<?xml version="1.0" encoding="utf-8" standalone="no"?>
<!DOCTYPE svg PUBLIC "-//W3C//DTD SVG 1.1//EN"
  "http://www.w3.org/Graphics/SVG/1.1/DTD/svg11.dtd">
<svg xmlns:xlink="http://www.w3.org/1999/xlink" width="460.8pt" height="345.6pt" viewBox="0 0 460.8 345.6" xmlns="http://www.w3.org/2000/svg" version="1.1">
 <metadata>
  <rdf:RDF xmlns:dc="http://purl.org/dc/elements/1.1/" xmlns:cc="http://creativecommons.org/ns#" xmlns:rdf="http://www.w3.org/1999/02/22-rdf-syntax-ns#">
   <cc:Work>
    <dc:type rdf:resource="http://purl.org/dc/dcmitype/StillImage"/>
    <dc:date>2023-02-10T12:43:42.194742</dc:date>
    <dc:format>image/svg+xml</dc:format>
    <dc:creator>
     <cc:Agent>
      <dc:title>Matplotlib v3.6.2, https://matplotlib.org/</dc:title>
     </cc:Agent>
    </dc:creator>
   </cc:Work>
  </rdf:RDF>
 </metadata>
 <defs>
  <style type="text/css">*{stroke-linejoin: round; stroke-linecap: butt}</style>
 </defs>
 <g id="figure_1">
  <g id="patch_1">
   <path d="M 0 345.6 
L 460.8 345.6 
L 460.8 0 
L 0 0 
z
" style="fill: #ffffff"/>
  </g>
  <g id="axes_1">
   <g id="patch_2">
    <path d="M 57.6 307.584 
L 414.72 307.584 
L 414.72 41.472 
L 57.6 41.472 
z
" style="fill: #ffffff"/>
   </g>
   <g id="PolyCollection_1">
    <path d="M 73.832727 290.600806 
L 73.832727 295.488 
L 74.907742 295.488 
L 75.982757 295.488 
L 77.057772 295.488 
L 78.132787 295.488 
L 79.207803 295.488 
L 80.282818 295.488 
L 81.357833 295.488 
L 82.432848 295.488 
L 83.507863 295.488 
L 84.582878 295.488 
L 85.657893 295.488 
L 86.732908 295.488 
L 87.807923 295.488 
L 88.882938 295.488 
L 89.957953 295.488 
L 91.032968 295.488 
L 92.107983 295.488 
L 93.182998 295.488 
L 94.258013 295.488 
L 95.333028 295.488 
L 96.408043 295.488 
L 97.483058 295.488 
L 98.558073 295.488 
L 99.633089 295.488 
L 100.708104 295.488 
L 101.783119 295.488 
L 102.858134 295.488 
L 103.933149 295.488 
L 105.008164 295.488 
L 106.083179 295.488 
L 107.158194 295.488 
L 108.233209 295.488 
L 109.308224 295.488 
L 110.383239 295.488 
L 111.458254 295.488 
L 112.533269 295.488 
L 113.608284 295.488 
L 114.683299 295.488 
L 115.758314 295.488 
L 116.833329 295.488 
L 117.908344 295.488 
L 118.983359 295.488 
L 120.058374 295.488 
L 121.13339 295.488 
L 122.208405 295.488 
L 123.28342 295.488 
L 124.358435 295.488 
L 125.43345 295.488 
L 126.508465 295.488 
L 127.58348 295.488 
L 128.658495 295.488 
L 129.73351 295.488 
L 130.808525 295.488 
L 131.88354 295.488 
L 132.958555 295.488 
L 134.03357 295.488 
L 135.108585 295.488 
L 136.1836 295.488 
L 137.258615 295.488 
L 138.33363 295.488 
L 139.408645 295.488 
L 140.48366 295.488 
L 141.558675 295.488 
L 142.633691 295.488 
L 143.708706 295.488 
L 144.783721 295.488 
L 145.858736 295.488 
L 146.933751 295.488 
L 148.008766 295.488 
L 149.083781 295.488 
L 150.158796 295.488 
L 151.233811 295.488 
L 152.308826 295.488 
L 153.383841 295.488 
L 154.458856 295.488 
L 155.533871 295.488 
L 156.608886 295.488 
L 157.683901 295.488 
L 158.758916 295.488 
L 159.833931 295.488 
L 160.908946 295.488 
L 161.983961 295.488 
L 163.058977 295.488 
L 164.133992 295.488 
L 165.209007 295.488 
L 166.284022 295.488 
L 167.359037 295.488 
L 168.434052 295.488 
L 169.509067 295.488 
L 170.584082 295.488 
L 171.659097 295.488 
L 172.734112 295.488 
L 173.809127 295.488 
L 174.884142 295.488 
L 175.959157 295.488 
L 177.034172 295.488 
L 178.109187 295.488 
L 179.184202 295.488 
L 180.259217 295.488 
L 181.334232 295.488 
L 182.409247 295.488 
L 183.484262 295.488 
L 184.559278 295.488 
L 185.634293 295.488 
L 186.709308 295.488 
L 187.784323 295.488 
L 188.859338 295.488 
L 189.934353 295.488 
L 191.009368 295.488 
L 192.084383 295.488 
L 193.159398 295.488 
L 194.234413 295.488 
L 195.309428 295.488 
L 196.384443 295.488 
L 197.459458 295.488 
L 198.534473 295.488 
L 199.609488 295.488 
L 200.684503 295.488 
L 201.759518 295.488 
L 202.834533 295.488 
L 203.909548 295.488 
L 204.984564 295.488 
L 206.059579 295.488 
L 207.134594 295.488 
L 208.209609 295.488 
L 209.284624 295.488 
L 210.359639 295.488 
L 211.434654 295.488 
L 212.509669 295.488 
L 213.584684 295.488 
L 214.659699 295.488 
L 215.734714 295.488 
L 216.809729 295.488 
L 217.884744 295.488 
L 218.959759 295.488 
L 220.034774 295.488 
L 221.109789 295.488 
L 222.184804 295.488 
L 223.259819 295.488 
L 224.334834 295.488 
L 225.409849 295.488 
L 226.484865 295.488 
L 227.55988 295.488 
L 228.634895 295.488 
L 229.70991 295.488 
L 230.784925 295.488 
L 231.85994 295.488 
L 232.934955 295.488 
L 234.00997 295.488 
L 235.084985 295.488 
L 236.16 295.488 
L 237.235015 295.488 
L 238.31003 295.488 
L 239.385045 295.488 
L 240.46006 295.488 
L 241.535075 295.488 
L 242.61009 295.488 
L 243.685105 295.488 
L 244.76012 295.488 
L 245.835135 295.488 
L 246.910151 295.488 
L 247.985166 295.488 
L 249.060181 295.488 
L 250.135196 295.488 
L 251.210211 295.488 
L 252.285226 295.488 
L 253.360241 295.488 
L 254.435256 295.488 
L 255.510271 295.488 
L 256.585286 295.488 
L 257.660301 295.488 
L 258.735316 295.488 
L 259.810331 295.488 
L 260.885346 295.488 
L 261.960361 295.488 
L 263.035376 295.488 
L 264.110391 295.488 
L 265.185406 295.488 
L 266.260421 295.488 
L 267.335436 295.488 
L 268.410452 295.488 
L 269.485467 295.488 
L 270.560482 295.488 
L 271.635497 295.488 
L 272.710512 295.488 
L 273.785527 295.488 
L 274.860542 295.488 
L 275.935557 295.488 
L 277.010572 295.488 
L 278.085587 295.488 
L 279.160602 295.488 
L 280.235617 295.488 
L 281.310632 295.488 
L 282.385647 295.488 
L 283.460662 295.488 
L 284.535677 295.488 
L 285.610692 295.488 
L 286.685707 295.488 
L 287.760722 295.488 
L 288.835738 295.488 
L 289.910753 295.488 
L 290.985768 295.488 
L 292.060783 295.488 
L 293.135798 295.488 
L 294.210813 295.488 
L 295.285828 295.488 
L 296.360843 295.488 
L 297.435858 295.488 
L 298.510873 295.488 
L 299.585888 295.488 
L 300.660903 295.488 
L 301.735918 295.488 
L 302.810933 295.488 
L 303.885948 295.488 
L 304.960963 295.488 
L 306.035978 295.488 
L 307.110993 295.488 
L 308.186008 295.488 
L 309.261023 295.488 
L 310.336039 295.488 
L 311.411054 295.488 
L 312.486069 295.488 
L 313.561084 295.488 
L 314.636099 295.488 
L 315.711114 295.488 
L 316.786129 295.488 
L 317.861144 295.488 
L 318.936159 295.488 
L 320.011174 295.488 
L 321.086189 295.488 
L 322.161204 295.488 
L 323.236219 295.488 
L 324.311234 295.488 
L 325.386249 295.488 
L 326.461264 295.488 
L 327.536279 295.488 
L 328.611294 295.488 
L 329.686309 295.488 
L 330.761325 295.488 
L 331.83634 295.488 
L 332.911355 295.488 
L 333.98637 295.488 
L 335.061385 295.488 
L 336.1364 295.488 
L 337.211415 295.488 
L 338.28643 295.488 
L 339.361445 295.488 
L 340.43646 295.488 
L 341.511475 295.488 
L 342.58649 295.488 
L 343.661505 295.488 
L 344.73652 295.488 
L 345.811535 295.488 
L 346.88655 295.488 
L 347.961565 295.488 
L 349.03658 295.488 
L 350.111595 295.488 
L 351.18661 295.488 
L 352.261626 295.488 
L 353.336641 295.488 
L 354.411656 295.488 
L 355.486671 295.488 
L 356.561686 295.488 
L 357.636701 295.488 
L 358.711716 295.488 
L 359.786731 295.488 
L 360.861746 295.488 
L 361.936761 295.488 
L 363.011776 295.488 
L 364.086791 295.488 
L 365.161806 295.488 
L 366.236821 295.488 
L 367.311836 295.488 
L 368.386851 295.488 
L 369.461866 295.488 
L 370.536881 295.488 
L 371.611896 295.488 
L 372.686911 295.488 
L 373.761927 295.488 
L 374.836942 295.488 
L 375.911957 295.488 
L 376.986972 295.488 
L 378.061987 295.488 
L 379.137002 295.488 
L 380.212017 295.488 
L 381.287032 295.488 
L 382.362047 295.488 
L 383.437062 295.488 
L 384.512077 295.488 
L 385.587092 295.488 
L 386.662107 295.488 
L 387.737122 295.488 
L 388.812137 295.488 
L 389.887152 295.488 
L 390.962167 295.488 
L 392.037182 295.488 
L 393.112197 295.488 
L 394.187213 295.488 
L 395.262228 295.488 
L 396.337243 295.488 
L 397.412258 295.488 
L 398.487273 295.488 
L 398.487273 295.243717 
L 398.487273 295.243717 
L 397.412258 295.23474 
L 396.337243 295.234649 
L 395.262228 295.243454 
L 394.187213 295.260238 
L 393.112197 295.283316 
L 392.037182 295.310509 
L 390.962167 295.339489 
L 389.887152 295.368091 
L 388.812137 295.394569 
L 387.737122 295.41773 
L 386.662107 295.43696 
L 385.587092 295.452151 
L 384.512077 295.463579 
L 383.437062 295.471747 
L 382.362047 295.47726 
L 381.287032 295.480713 
L 380.212017 295.482634 
L 379.137002 295.483454 
L 378.061987 295.483511 
L 376.986972 295.483062 
L 375.911957 295.482305 
L 374.836942 295.481403 
L 373.761927 295.48049 
L 372.686911 295.47968 
L 371.611896 295.479063 
L 370.536881 295.4787 
L 369.461866 295.478619 
L 368.386851 295.478809 
L 367.311836 295.479227 
L 366.236821 295.479806 
L 365.161806 295.480465 
L 364.086791 295.481126 
L 363.011776 295.481726 
L 361.936761 295.482225 
L 360.861746 295.482611 
L 359.786731 295.482893 
L 358.711716 295.483098 
L 357.636701 295.48326 
L 356.561686 295.483407 
L 355.486671 295.483559 
L 354.411656 295.48372 
L 353.336641 295.483879 
L 352.261626 295.484019 
L 351.18661 295.484117 
L 350.111595 295.484159 
L 349.03658 295.484139 
L 347.961565 295.484065 
L 346.88655 295.483956 
L 345.811535 295.48384 
L 344.73652 295.483746 
L 343.661505 295.483697 
L 342.58649 295.483706 
L 341.511475 295.483769 
L 340.43646 295.483872 
L 339.361445 295.483987 
L 338.28643 295.484087 
L 337.211415 295.484146 
L 336.1364 295.48415 
L 335.061385 295.484097 
L 333.98637 295.484002 
L 332.911355 295.483886 
L 331.83634 295.48378 
L 330.761325 295.48371 
L 329.686309 295.483692 
L 328.611294 295.483732 
L 327.536279 295.48382 
L 326.461264 295.483933 
L 325.386249 295.484044 
L 324.311234 295.484125 
L 323.236219 295.484155 
L 322.161204 295.484128 
L 321.086189 295.48405 
L 320.011174 295.48394 
L 318.936159 295.483826 
L 317.861144 295.483737 
L 316.786129 295.483694 
L 315.711114 295.483708 
L 314.636099 295.483776 
L 313.561084 295.48388 
L 312.486069 295.483996 
L 311.411054 295.484093 
L 310.336039 295.484148 
L 309.261023 295.484147 
L 308.186008 295.48409 
L 307.110993 295.483991 
L 306.035978 295.483876 
L 304.960963 295.483771 
L 303.885948 295.483705 
L 302.810933 295.483693 
L 301.735918 295.483737 
L 300.660903 295.483828 
L 299.585888 295.483942 
L 298.510873 295.484052 
L 297.435858 295.484129 
L 296.360843 295.484154 
L 295.285828 295.484122 
L 294.210813 295.48404 
L 293.135798 295.483929 
L 292.060783 295.483816 
L 290.985768 295.48373 
L 289.910753 295.483692 
L 288.835738 295.483711 
L 287.760722 295.483783 
L 286.685707 295.48389 
L 285.610692 295.484005 
L 284.535677 295.4841 
L 283.460662 295.484151 
L 282.385647 295.484145 
L 281.310632 295.484084 
L 280.235617 295.483983 
L 279.160602 295.483867 
L 278.085587 295.483765 
L 277.010572 295.483703 
L 275.935557 295.483696 
L 274.860542 295.483745 
L 273.785527 295.483839 
L 272.710512 295.483953 
L 271.635497 295.48406 
L 270.560482 295.484133 
L 269.485467 295.484154 
L 268.410452 295.484117 
L 267.335436 295.484031 
L 266.260421 295.483918 
L 265.185406 295.483807 
L 264.110391 295.483724 
L 263.035376 295.48369 
L 261.960361 295.483714 
L 260.885346 295.48379 
L 259.810331 295.483898 
L 258.735316 295.484013 
L 257.660301 295.484105 
L 256.585286 295.484151 
L 255.510271 295.48414 
L 254.435256 295.484075 
L 253.360241 295.483972 
L 252.285226 295.483857 
L 251.210211 295.483757 
L 250.135196 295.483699 
L 249.060181 295.483697 
L 247.985166 295.483751 
L 246.910151 295.483847 
L 245.835135 295.483963 
L 244.76012 295.484068 
L 243.685105 295.484137 
L 242.61009 295.484153 
L 241.535075 295.484112 
L 240.46006 295.484023 
L 239.385045 295.483909 
L 238.31003 295.483799 
L 237.235015 295.48372 
L 236.16 295.483691 
L 235.084985 295.48372 
L 234.00997 295.483799 
L 232.934955 295.483909 
L 231.85994 295.484023 
L 230.784925 295.484111 
L 229.70991 295.484153 
L 228.634895 295.484137 
L 227.55988 295.484067 
L 226.484865 295.483962 
L 225.409849 295.483846 
L 224.334834 295.483749 
L 223.259819 295.483696 
L 222.184804 295.483698 
L 221.109789 295.483756 
L 220.034774 295.483856 
L 218.959759 295.483971 
L 217.884744 295.484075 
L 216.809729 295.48414 
L 215.734714 295.484151 
L 214.659699 295.484105 
L 213.584684 295.484014 
L 212.509669 295.483899 
L 211.434654 295.483791 
L 210.359639 295.483715 
L 209.284624 295.483691 
L 208.209609 295.483725 
L 207.134594 295.483808 
L 206.059579 295.483919 
L 204.984564 295.484032 
L 203.909548 295.484117 
L 202.834533 295.484154 
L 201.759518 295.484133 
L 200.684503 295.48406 
L 199.609488 295.483952 
L 198.534473 295.483837 
L 197.459458 295.483743 
L 196.384443 295.483694 
L 195.309428 295.483702 
L 194.234413 295.483764 
L 193.159398 295.483866 
L 192.084383 295.483981 
L 191.009368 295.484082 
L 189.934353 295.484143 
L 188.859338 295.484149 
L 187.784323 295.484098 
L 186.709308 295.484003 
L 185.634293 295.483887 
L 184.559278 295.483779 
L 183.484262 295.483705 
L 182.409247 295.483683 
L 181.334232 295.483718 
L 180.259217 295.483799 
L 179.184202 295.483905 
L 178.109187 295.484008 
L 177.034172 295.48408 
L 175.959157 295.484102 
L 174.884142 295.484066 
L 173.809127 295.48398 
L 172.734112 295.483865 
L 171.659097 295.483751 
L 170.584082 295.483669 
L 169.509067 295.483644 
L 168.434052 295.483691 
L 167.359037 295.483809 
L 166.284022 295.483983 
L 165.209007 295.484189 
L 164.133992 295.484398 
L 163.058977 295.484582 
L 161.983961 295.484723 
L 160.908946 295.484813 
L 159.833931 295.48486 
L 158.758916 295.484878 
L 157.683901 295.484884 
L 156.608886 295.484889 
L 155.533871 295.484877 
L 154.458856 295.484779 
L 153.383841 295.484433 
L 152.308826 295.483495 
L 151.233811 295.481309 
L 150.158796 295.476677 
L 149.083781 295.46751 
L 148.008766 295.450332 
L 146.933751 295.419618 
L 145.858736 295.367031 
L 144.783721 295.280663 
L 143.708706 295.144522 
L 142.633691 294.938578 
L 141.558675 294.63976 
L 140.48366 294.224239 
L 139.408645 293.671171 
L 138.33363 292.967692 
L 137.258615 292.114515 
L 136.1836 291.131001 
L 135.108585 290.058261 
L 134.03357 288.958901 
L 132.958555 287.912498 
L 131.88354 287.006828 
L 130.808525 286.325948 
L 129.73351 285.937257 
L 128.658495 285.880156 
L 127.58348 286.158712 
L 126.508465 286.739726 
L 125.43345 287.556143 
L 124.358435 288.514112 
L 123.28342 289.500779 
L 122.208405 290.389434 
L 121.13339 291.039077 
L 120.058374 291.286915 
L 118.983359 290.934408 
L 117.908344 289.730168 
L 116.833329 287.355644 
L 115.758314 283.421701 
L 114.683299 277.48498 
L 113.608284 269.091402 
L 112.533269 257.849637 
L 111.458254 243.529608 
L 110.383239 226.17123 
L 109.308224 206.179102 
L 108.233209 184.37332 
L 107.158194 161.968439 
L 106.083179 140.46408 
L 105.008164 121.450661 
L 103.933149 106.358043 
L 102.858134 96.196298 
L 101.783119 91.348869 
L 100.708104 91.473735 
L 99.633089 95.547081 
L 98.558073 102.051037 
L 97.483058 109.271037 
L 96.408043 115.639439 
L 95.333028 120.048625 
L 94.258013 122.062792 
L 93.182998 121.981549 
L 92.107983 120.74388 
L 91.032968 119.698656 
L 89.957953 120.298095 
L 88.882938 123.785861 
L 87.807923 130.948542 
L 86.732908 141.97964 
L 85.657893 156.474996 
L 84.582878 173.54634 
L 83.507863 192.014122 
L 82.432848 210.628019 
L 81.357833 228.265312 
L 80.282818 244.071098 
L 79.207803 257.524394 
L 78.132787 268.433929 
L 77.057772 276.881797 
L 75.982757 283.139481 
L 74.907742 287.579649 
L 73.832727 290.600806 
z
" clip-path="url(#p91323e6198)" style="fill: #1f77b4; fill-opacity: 0.25"/>
   </g>
   <g id="PolyCollection_2">
    <path d="M 73.832727 291.057731 
L 73.832727 295.488 
L 74.907742 295.488 
L 75.982757 295.488 
L 77.057772 295.488 
L 78.132787 295.488 
L 79.207803 295.488 
L 80.282818 295.488 
L 81.357833 295.488 
L 82.432848 295.488 
L 83.507863 295.488 
L 84.582878 295.488 
L 85.657893 295.488 
L 86.732908 295.488 
L 87.807923 295.488 
L 88.882938 295.488 
L 89.957953 295.488 
L 91.032968 295.488 
L 92.107983 295.488 
L 93.182998 295.488 
L 94.258013 295.488 
L 95.333028 295.488 
L 96.408043 295.488 
L 97.483058 295.488 
L 98.558073 295.488 
L 99.633089 295.488 
L 100.708104 295.488 
L 101.783119 295.488 
L 102.858134 295.488 
L 103.933149 295.488 
L 105.008164 295.488 
L 106.083179 295.488 
L 107.158194 295.488 
L 108.233209 295.488 
L 109.308224 295.488 
L 110.383239 295.488 
L 111.458254 295.488 
L 112.533269 295.488 
L 113.608284 295.488 
L 114.683299 295.488 
L 115.758314 295.488 
L 116.833329 295.488 
L 117.908344 295.488 
L 118.983359 295.488 
L 120.058374 295.488 
L 121.13339 295.488 
L 122.208405 295.488 
L 123.28342 295.488 
L 124.358435 295.488 
L 125.43345 295.488 
L 126.508465 295.488 
L 127.58348 295.488 
L 128.658495 295.488 
L 129.73351 295.488 
L 130.808525 295.488 
L 131.88354 295.488 
L 132.958555 295.488 
L 134.03357 295.488 
L 135.108585 295.488 
L 136.1836 295.488 
L 137.258615 295.488 
L 138.33363 295.488 
L 139.408645 295.488 
L 140.48366 295.488 
L 141.558675 295.488 
L 142.633691 295.488 
L 143.708706 295.488 
L 144.783721 295.488 
L 145.858736 295.488 
L 146.933751 295.488 
L 148.008766 295.488 
L 149.083781 295.488 
L 150.158796 295.488 
L 151.233811 295.488 
L 152.308826 295.488 
L 153.383841 295.488 
L 154.458856 295.488 
L 155.533871 295.488 
L 156.608886 295.488 
L 157.683901 295.488 
L 158.758916 295.488 
L 159.833931 295.488 
L 160.908946 295.488 
L 161.983961 295.488 
L 163.058977 295.488 
L 164.133992 295.488 
L 165.209007 295.488 
L 166.284022 295.488 
L 167.359037 295.488 
L 168.434052 295.488 
L 169.509067 295.488 
L 170.584082 295.488 
L 171.659097 295.488 
L 172.734112 295.488 
L 173.809127 295.488 
L 174.884142 295.488 
L 175.959157 295.488 
L 177.034172 295.488 
L 178.109187 295.488 
L 179.184202 295.488 
L 180.259217 295.488 
L 181.334232 295.488 
L 182.409247 295.488 
L 183.484262 295.488 
L 184.559278 295.488 
L 185.634293 295.488 
L 186.709308 295.488 
L 187.784323 295.488 
L 188.859338 295.488 
L 189.934353 295.488 
L 191.009368 295.488 
L 192.084383 295.488 
L 193.159398 295.488 
L 194.234413 295.488 
L 195.309428 295.488 
L 196.384443 295.488 
L 197.459458 295.488 
L 198.534473 295.488 
L 199.609488 295.488 
L 200.684503 295.488 
L 201.759518 295.488 
L 202.834533 295.488 
L 203.909548 295.488 
L 204.984564 295.488 
L 206.059579 295.488 
L 207.134594 295.488 
L 208.209609 295.488 
L 209.284624 295.488 
L 210.359639 295.488 
L 211.434654 295.488 
L 212.509669 295.488 
L 213.584684 295.488 
L 214.659699 295.488 
L 215.734714 295.488 
L 216.809729 295.488 
L 217.884744 295.488 
L 218.959759 295.488 
L 220.034774 295.488 
L 221.109789 295.488 
L 222.184804 295.488 
L 223.259819 295.488 
L 224.334834 295.488 
L 225.409849 295.488 
L 226.484865 295.488 
L 227.55988 295.488 
L 228.634895 295.488 
L 229.70991 295.488 
L 230.784925 295.488 
L 231.85994 295.488 
L 232.934955 295.488 
L 234.00997 295.488 
L 235.084985 295.488 
L 236.16 295.488 
L 237.235015 295.488 
L 238.31003 295.488 
L 239.385045 295.488 
L 240.46006 295.488 
L 241.535075 295.488 
L 242.61009 295.488 
L 243.685105 295.488 
L 244.76012 295.488 
L 245.835135 295.488 
L 246.910151 295.488 
L 247.985166 295.488 
L 249.060181 295.488 
L 250.135196 295.488 
L 251.210211 295.488 
L 252.285226 295.488 
L 253.360241 295.488 
L 254.435256 295.488 
L 255.510271 295.488 
L 256.585286 295.488 
L 257.660301 295.488 
L 258.735316 295.488 
L 259.810331 295.488 
L 260.885346 295.488 
L 261.960361 295.488 
L 263.035376 295.488 
L 264.110391 295.488 
L 265.185406 295.488 
L 266.260421 295.488 
L 267.335436 295.488 
L 268.410452 295.488 
L 269.485467 295.488 
L 270.560482 295.488 
L 271.635497 295.488 
L 272.710512 295.488 
L 273.785527 295.488 
L 274.860542 295.488 
L 275.935557 295.488 
L 277.010572 295.488 
L 278.085587 295.488 
L 279.160602 295.488 
L 280.235617 295.488 
L 281.310632 295.488 
L 282.385647 295.488 
L 283.460662 295.488 
L 284.535677 295.488 
L 285.610692 295.488 
L 286.685707 295.488 
L 287.760722 295.488 
L 288.835738 295.488 
L 289.910753 295.488 
L 290.985768 295.488 
L 292.060783 295.488 
L 293.135798 295.488 
L 294.210813 295.488 
L 295.285828 295.488 
L 296.360843 295.488 
L 297.435858 295.488 
L 298.510873 295.488 
L 299.585888 295.488 
L 300.660903 295.488 
L 301.735918 295.488 
L 302.810933 295.488 
L 303.885948 295.488 
L 304.960963 295.488 
L 306.035978 295.488 
L 307.110993 295.488 
L 308.186008 295.488 
L 309.261023 295.488 
L 310.336039 295.488 
L 311.411054 295.488 
L 312.486069 295.488 
L 313.561084 295.488 
L 314.636099 295.488 
L 315.711114 295.488 
L 316.786129 295.488 
L 317.861144 295.488 
L 318.936159 295.488 
L 320.011174 295.488 
L 321.086189 295.488 
L 322.161204 295.488 
L 323.236219 295.488 
L 324.311234 295.488 
L 325.386249 295.488 
L 326.461264 295.488 
L 327.536279 295.488 
L 328.611294 295.488 
L 329.686309 295.488 
L 330.761325 295.488 
L 331.83634 295.488 
L 332.911355 295.488 
L 333.98637 295.488 
L 335.061385 295.488 
L 336.1364 295.488 
L 337.211415 295.488 
L 338.28643 295.488 
L 339.361445 295.488 
L 340.43646 295.488 
L 341.511475 295.488 
L 342.58649 295.488 
L 343.661505 295.488 
L 344.73652 295.488 
L 345.811535 295.488 
L 346.88655 295.488 
L 347.961565 295.488 
L 349.03658 295.488 
L 350.111595 295.488 
L 351.18661 295.488 
L 352.261626 295.488 
L 353.336641 295.488 
L 354.411656 295.488 
L 355.486671 295.488 
L 356.561686 295.488 
L 357.636701 295.488 
L 358.711716 295.488 
L 359.786731 295.488 
L 360.861746 295.488 
L 361.936761 295.488 
L 363.011776 295.488 
L 364.086791 295.488 
L 365.161806 295.488 
L 366.236821 295.488 
L 367.311836 295.488 
L 368.386851 295.488 
L 369.461866 295.488 
L 370.536881 295.488 
L 371.611896 295.488 
L 372.686911 295.488 
L 373.761927 295.488 
L 374.836942 295.488 
L 375.911957 295.488 
L 376.986972 295.488 
L 378.061987 295.488 
L 379.137002 295.488 
L 380.212017 295.488 
L 381.287032 295.488 
L 382.362047 295.488 
L 383.437062 295.488 
L 384.512077 295.488 
L 385.587092 295.488 
L 386.662107 295.488 
L 387.737122 295.488 
L 388.812137 295.488 
L 389.887152 295.488 
L 390.962167 295.488 
L 392.037182 295.488 
L 393.112197 295.488 
L 394.187213 295.488 
L 395.262228 295.488 
L 396.337243 295.488 
L 397.412258 295.488 
L 398.487273 295.488 
L 398.487273 295.449715 
L 398.487273 295.449715 
L 397.412258 295.446558 
L 396.337243 295.443811 
L 395.262228 295.441229 
L 394.187213 295.438454 
L 393.112197 295.435078 
L 392.037182 295.430744 
L 390.962167 295.425244 
L 389.887152 295.41861 
L 388.812137 295.411153 
L 387.737122 295.403449 
L 386.662107 295.396266 
L 385.587092 295.390435 
L 384.512077 295.386702 
L 383.437062 295.385584 
L 382.362047 295.387271 
L 381.287032 295.391585 
L 380.212017 295.398016 
L 379.137002 295.405829 
L 378.061987 295.414197 
L 376.986972 295.422348 
L 375.911957 295.429693 
L 374.836942 295.435889 
L 373.761927 295.440863 
L 372.686911 295.444765 
L 371.611896 295.447893 
L 370.536881 295.4506 
L 369.461866 295.453205 
L 368.386851 295.455932 
L 367.311836 295.458879 
L 366.236821 295.462024 
L 365.161806 295.465255 
L 364.086791 295.468414 
L 363.011776 295.471343 
L 361.936761 295.473921 
L 360.861746 295.476084 
L 359.786731 295.477829 
L 358.711716 295.479204 
L 357.636701 295.480289 
L 356.561686 295.481175 
L 355.486671 295.481942 
L 354.411656 295.482653 
L 353.336641 295.483342 
L 352.261626 295.484019 
L 351.18661 295.484674 
L 350.111595 295.48529 
L 349.03658 295.485844 
L 347.961565 295.486316 
L 346.88655 295.486691 
L 345.811535 295.486962 
L 344.73652 295.487124 
L 343.661505 295.487173 
L 342.58649 295.487107 
L 341.511475 295.486921 
L 340.43646 295.486612 
L 339.361445 295.486177 
L 338.28643 295.485624 
L 337.211415 295.484967 
L 336.1364 295.484237 
L 335.061385 295.483478 
L 333.98637 295.482744 
L 332.911355 295.482098 
L 331.83634 295.481601 
L 330.761325 295.481302 
L 329.686309 295.481234 
L 328.611294 295.481403 
L 327.536279 295.481794 
L 326.461264 295.482366 
L 325.386249 295.483064 
L 324.311234 295.483827 
L 323.236219 295.484595 
L 322.161204 295.485318 
L 321.086189 295.485959 
L 320.011174 295.486497 
L 318.936159 295.486924 
L 317.861144 295.487244 
L 316.786129 295.487466 
L 315.711114 295.487604 
L 314.636099 295.48767 
L 313.561084 295.487675 
L 312.486069 295.487623 
L 311.411054 295.487514 
L 310.336039 295.487337 
L 309.261023 295.487068 
L 308.186008 295.486664 
L 307.110993 295.486051 
L 306.035978 295.485116 
L 304.960963 295.483698 
L 303.885948 295.481583 
L 302.810933 295.478507 
L 301.735918 295.474176 
L 300.660903 295.468303 
L 299.585888 295.460662 
L 298.510873 295.451153 
L 297.435858 295.439874 
L 296.360843 295.427168 
L 295.285828 295.413643 
L 294.210813 295.400141 
L 293.135798 295.387646 
L 292.060783 295.377155 
L 290.985768 295.369514 
L 289.910753 295.365266 
L 288.835738 295.364544 
L 287.760722 295.367035 
L 286.685707 295.372034 
L 285.610692 295.378573 
L 284.535677 295.385604 
L 283.460662 295.392193 
L 282.385647 295.397683 
L 281.310632 295.401792 
L 280.235617 295.404625 
L 279.160602 295.406605 
L 278.085587 295.408349 
L 277.010572 295.410508 
L 275.935557 295.413621 
L 274.860542 295.418013 
L 273.785527 295.42374 
L 272.710512 295.430607 
L 271.635497 295.43823 
L 270.560482 295.446124 
L 269.485467 295.453801 
L 268.410452 295.460846 
L 267.335436 295.466969 
L 266.260421 295.472019 
L 265.185406 295.47597 
L 264.110391 295.478888 
L 263.035376 295.480896 
L 261.960361 295.482134 
L 260.885346 295.482734 
L 259.810331 295.482809 
L 258.735316 295.482452 
L 257.660301 295.481741 
L 256.585286 295.480754 
L 255.510271 295.47958 
L 254.435256 295.478324 
L 253.360241 295.477105 
L 252.285226 295.47605 
L 251.210211 295.475278 
L 250.135196 295.474881 
L 249.060181 295.474916 
L 247.985166 295.47539 
L 246.910151 295.476262 
L 245.835135 295.477451 
L 244.76012 295.478848 
L 243.685105 295.480336 
L 242.61009 295.481805 
L 241.535075 295.483166 
L 240.46006 295.484356 
L 239.385045 295.485341 
L 238.31003 295.486116 
L 237.235015 295.486691 
L 236.16 295.487088 
L 235.084985 295.487336 
L 234.00997 295.487457 
L 232.934955 295.487471 
L 231.85994 295.487386 
L 230.784925 295.487195 
L 229.70991 295.486869 
L 228.634895 295.48635 
L 227.55988 295.485534 
L 226.484865 295.484252 
L 225.409849 295.482255 
L 224.334834 295.479193 
L 223.259819 295.474611 
L 222.184804 295.467969 
L 221.109789 295.458684 
L 220.034774 295.446212 
L 218.959759 295.430169 
L 217.884744 295.410462 
L 216.809729 295.387421 
L 215.734714 295.361896 
L 214.659699 295.335272 
L 213.584684 295.309388 
L 212.509669 295.286349 
L 211.434654 295.268251 
L 210.359639 295.256867 
L 209.284624 295.253362 
L 208.209609 295.258091 
L 207.134594 295.270538 
L 206.059579 295.289407 
L 204.984564 295.31284 
L 203.909548 295.338714 
L 202.834533 295.364959 
L 201.759518 295.389814 
L 200.684503 295.412002 
L 199.609488 295.43079 
L 198.534473 295.445952 
L 197.459458 295.457667 
L 196.384443 295.466372 
L 195.309428 295.472634 
L 194.234413 295.477029 
L 193.159398 295.48007 
L 192.084383 295.482168 
L 191.009368 295.483613 
L 189.934353 295.484591 
L 188.859338 295.485187 
L 187.784323 295.485407 
L 186.709308 295.485179 
L 185.634293 295.484353 
L 184.559278 295.482702 
L 183.484262 295.479913 
L 182.409247 295.475602 
L 181.334232 295.469339 
L 180.259217 295.460699 
L 179.184202 295.449341 
L 178.109187 295.435108 
L 177.034172 295.418128 
L 175.959157 295.398891 
L 174.884142 295.378289 
L 173.809127 295.357569 
L 172.734112 295.338214 
L 171.659097 295.321743 
L 170.584082 295.309472 
L 169.509067 295.302277 
L 168.434052 295.300423 
L 167.359037 295.303491 
L 166.284022 295.310436 
L 165.209007 295.319765 
L 164.133992 295.329788 
L 163.058977 295.338883 
L 161.983961 295.345705 
L 160.908946 295.34928 
L 159.833931 295.348961 
L 158.758916 295.344239 
L 157.683901 295.334475 
L 156.608886 295.318621 
L 155.533871 295.295017 
L 154.458856 295.26136 
L 153.383841 295.214875 
L 152.308826 295.152687 
L 151.233811 295.072283 
L 150.158796 294.971883 
L 149.083781 294.850484 
L 148.008766 294.707314 
L 146.933751 294.540548 
L 145.858736 294.345276 
L 144.783721 294.111015 
L 143.708706 293.819343 
L 142.633691 293.442518 
L 141.558675 292.944052 
L 140.48366 292.282105 
L 139.408645 291.416074 
L 138.33363 290.316017 
L 137.258615 288.973559 
L 136.1836 287.412059 
L 135.108585 285.693254 
L 134.03357 283.91777 
L 132.958555 282.217823 
L 131.88354 280.742157 
L 130.808525 279.635248 
L 129.73351 279.014603 
L 128.658495 278.950851 
L 127.58348 279.454954 
L 126.508465 280.475193 
L 125.43345 281.904031 
L 124.358435 283.592305 
L 123.28342 285.366154 
L 122.208405 287.04134 
L 121.13339 288.430295 
L 120.058374 289.339317 
L 118.983359 289.556239 
L 117.908344 288.832251 
L 116.833329 286.864604 
L 115.758314 283.289187 
L 114.683299 277.692518 
L 113.608284 269.650974 
L 112.533269 258.800227 
L 111.458254 244.930087 
L 110.383239 228.090171 
L 109.308224 208.682547 
L 108.233209 187.512127 
L 107.158194 165.767462 
L 106.083179 144.915729 
L 105.008164 126.51518 
L 103.933149 111.971814 
L 102.858134 102.287844 
L 101.783119 97.860126 
L 100.708104 98.382247 
L 99.633089 102.883535 
L 98.558073 109.90659 
L 97.483058 117.790362 
L 96.408043 124.998259 
L 95.333028 130.418114 
L 94.258013 133.566805 
L 93.182998 134.655177 
L 92.107983 134.502564 
L 91.032968 134.325568 
L 89.957953 135.45397 
L 88.882938 139.040661 
L 87.807923 145.829517 
L 86.732908 156.026778 
L 85.657893 169.293453 
L 84.582878 184.846586 
L 83.507863 201.633749 
L 82.432848 218.533469 
L 81.357833 234.536005 
L 80.282818 248.871476 
L 79.207803 261.070683 
L 78.132787 270.962013 
L 77.057772 278.620855 
L 75.982757 284.293822 
L 74.907742 288.31899 
L 73.832727 291.057731 
z
" clip-path="url(#p91323e6198)" style="fill: #ff7f0e; fill-opacity: 0.25"/>
   </g>
   <g id="PolyCollection_3">
    <path d="M 73.832727 291.25733 
L 73.832727 295.488 
L 74.907742 295.488 
L 75.982757 295.488 
L 77.057772 295.488 
L 78.132787 295.488 
L 79.207803 295.488 
L 80.282818 295.488 
L 81.357833 295.488 
L 82.432848 295.488 
L 83.507863 295.488 
L 84.582878 295.488 
L 85.657893 295.488 
L 86.732908 295.488 
L 87.807923 295.488 
L 88.882938 295.488 
L 89.957953 295.488 
L 91.032968 295.488 
L 92.107983 295.488 
L 93.182998 295.488 
L 94.258013 295.488 
L 95.333028 295.488 
L 96.408043 295.488 
L 97.483058 295.488 
L 98.558073 295.488 
L 99.633089 295.488 
L 100.708104 295.488 
L 101.783119 295.488 
L 102.858134 295.488 
L 103.933149 295.488 
L 105.008164 295.488 
L 106.083179 295.488 
L 107.158194 295.488 
L 108.233209 295.488 
L 109.308224 295.488 
L 110.383239 295.488 
L 111.458254 295.488 
L 112.533269 295.488 
L 113.608284 295.488 
L 114.683299 295.488 
L 115.758314 295.488 
L 116.833329 295.488 
L 117.908344 295.488 
L 118.983359 295.488 
L 120.058374 295.488 
L 121.13339 295.488 
L 122.208405 295.488 
L 123.28342 295.488 
L 124.358435 295.488 
L 125.43345 295.488 
L 126.508465 295.488 
L 127.58348 295.488 
L 128.658495 295.488 
L 129.73351 295.488 
L 130.808525 295.488 
L 131.88354 295.488 
L 132.958555 295.488 
L 134.03357 295.488 
L 135.108585 295.488 
L 136.1836 295.488 
L 137.258615 295.488 
L 138.33363 295.488 
L 139.408645 295.488 
L 140.48366 295.488 
L 141.558675 295.488 
L 142.633691 295.488 
L 143.708706 295.488 
L 144.783721 295.488 
L 145.858736 295.488 
L 146.933751 295.488 
L 148.008766 295.488 
L 149.083781 295.488 
L 150.158796 295.488 
L 151.233811 295.488 
L 152.308826 295.488 
L 153.383841 295.488 
L 154.458856 295.488 
L 155.533871 295.488 
L 156.608886 295.488 
L 157.683901 295.488 
L 158.758916 295.488 
L 159.833931 295.488 
L 160.908946 295.488 
L 161.983961 295.488 
L 163.058977 295.488 
L 164.133992 295.488 
L 165.209007 295.488 
L 166.284022 295.488 
L 167.359037 295.488 
L 168.434052 295.488 
L 169.509067 295.488 
L 170.584082 295.488 
L 171.659097 295.488 
L 172.734112 295.488 
L 173.809127 295.488 
L 174.884142 295.488 
L 175.959157 295.488 
L 177.034172 295.488 
L 178.109187 295.488 
L 179.184202 295.488 
L 180.259217 295.488 
L 181.334232 295.488 
L 182.409247 295.488 
L 183.484262 295.488 
L 184.559278 295.488 
L 185.634293 295.488 
L 186.709308 295.488 
L 187.784323 295.488 
L 188.859338 295.488 
L 189.934353 295.488 
L 191.009368 295.488 
L 192.084383 295.488 
L 193.159398 295.488 
L 194.234413 295.488 
L 195.309428 295.488 
L 196.384443 295.488 
L 197.459458 295.488 
L 198.534473 295.488 
L 199.609488 295.488 
L 200.684503 295.488 
L 201.759518 295.488 
L 202.834533 295.488 
L 203.909548 295.488 
L 204.984564 295.488 
L 206.059579 295.488 
L 207.134594 295.488 
L 208.209609 295.488 
L 209.284624 295.488 
L 210.359639 295.488 
L 211.434654 295.488 
L 212.509669 295.488 
L 213.584684 295.488 
L 214.659699 295.488 
L 215.734714 295.488 
L 216.809729 295.488 
L 217.884744 295.488 
L 218.959759 295.488 
L 220.034774 295.488 
L 221.109789 295.488 
L 222.184804 295.488 
L 223.259819 295.488 
L 224.334834 295.488 
L 225.409849 295.488 
L 226.484865 295.488 
L 227.55988 295.488 
L 228.634895 295.488 
L 229.70991 295.488 
L 230.784925 295.488 
L 231.85994 295.488 
L 232.934955 295.488 
L 234.00997 295.488 
L 235.084985 295.488 
L 236.16 295.488 
L 237.235015 295.488 
L 238.31003 295.488 
L 239.385045 295.488 
L 240.46006 295.488 
L 241.535075 295.488 
L 242.61009 295.488 
L 243.685105 295.488 
L 244.76012 295.488 
L 245.835135 295.488 
L 246.910151 295.488 
L 247.985166 295.488 
L 249.060181 295.488 
L 250.135196 295.488 
L 251.210211 295.488 
L 252.285226 295.488 
L 253.360241 295.488 
L 254.435256 295.488 
L 255.510271 295.488 
L 256.585286 295.488 
L 257.660301 295.488 
L 258.735316 295.488 
L 259.810331 295.488 
L 260.885346 295.488 
L 261.960361 295.488 
L 263.035376 295.488 
L 264.110391 295.488 
L 265.185406 295.488 
L 266.260421 295.488 
L 267.335436 295.488 
L 268.410452 295.488 
L 269.485467 295.488 
L 270.560482 295.488 
L 271.635497 295.488 
L 272.710512 295.488 
L 273.785527 295.488 
L 274.860542 295.488 
L 275.935557 295.488 
L 277.010572 295.488 
L 278.085587 295.488 
L 279.160602 295.488 
L 280.235617 295.488 
L 281.310632 295.488 
L 282.385647 295.488 
L 283.460662 295.488 
L 284.535677 295.488 
L 285.610692 295.488 
L 286.685707 295.488 
L 287.760722 295.488 
L 288.835738 295.488 
L 289.910753 295.488 
L 290.985768 295.488 
L 292.060783 295.488 
L 293.135798 295.488 
L 294.210813 295.488 
L 295.285828 295.488 
L 296.360843 295.488 
L 297.435858 295.488 
L 298.510873 295.488 
L 299.585888 295.488 
L 300.660903 295.488 
L 301.735918 295.488 
L 302.810933 295.488 
L 303.885948 295.488 
L 304.960963 295.488 
L 306.035978 295.488 
L 307.110993 295.488 
L 308.186008 295.488 
L 309.261023 295.488 
L 310.336039 295.488 
L 311.411054 295.488 
L 312.486069 295.488 
L 313.561084 295.488 
L 314.636099 295.488 
L 315.711114 295.488 
L 316.786129 295.488 
L 317.861144 295.488 
L 318.936159 295.488 
L 320.011174 295.488 
L 321.086189 295.488 
L 322.161204 295.488 
L 323.236219 295.488 
L 324.311234 295.488 
L 325.386249 295.488 
L 326.461264 295.488 
L 327.536279 295.488 
L 328.611294 295.488 
L 329.686309 295.488 
L 330.761325 295.488 
L 331.83634 295.488 
L 332.911355 295.488 
L 333.98637 295.488 
L 335.061385 295.488 
L 336.1364 295.488 
L 337.211415 295.488 
L 338.28643 295.488 
L 339.361445 295.488 
L 340.43646 295.488 
L 341.511475 295.488 
L 342.58649 295.488 
L 343.661505 295.488 
L 344.73652 295.488 
L 345.811535 295.488 
L 346.88655 295.488 
L 347.961565 295.488 
L 349.03658 295.488 
L 350.111595 295.488 
L 351.18661 295.488 
L 352.261626 295.488 
L 353.336641 295.488 
L 354.411656 295.488 
L 355.486671 295.488 
L 356.561686 295.488 
L 357.636701 295.488 
L 358.711716 295.488 
L 359.786731 295.488 
L 360.861746 295.488 
L 361.936761 295.488 
L 363.011776 295.488 
L 364.086791 295.488 
L 365.161806 295.488 
L 366.236821 295.488 
L 367.311836 295.488 
L 368.386851 295.488 
L 369.461866 295.488 
L 370.536881 295.488 
L 371.611896 295.488 
L 372.686911 295.488 
L 373.761927 295.488 
L 374.836942 295.488 
L 375.911957 295.488 
L 376.986972 295.488 
L 378.061987 295.488 
L 379.137002 295.488 
L 380.212017 295.488 
L 381.287032 295.488 
L 382.362047 295.488 
L 383.437062 295.488 
L 384.512077 295.488 
L 385.587092 295.488 
L 386.662107 295.488 
L 387.737122 295.488 
L 388.812137 295.488 
L 389.887152 295.488 
L 390.962167 295.488 
L 392.037182 295.488 
L 393.112197 295.488 
L 394.187213 295.488 
L 395.262228 295.488 
L 396.337243 295.488 
L 397.412258 295.488 
L 398.487273 295.488 
L 398.487273 295.484934 
L 398.487273 295.484934 
L 397.412258 295.483286 
L 396.337243 295.480888 
L 395.262228 295.477526 
L 394.187213 295.472997 
L 393.112197 295.467158 
L 392.037182 295.459966 
L 390.962167 295.451537 
L 389.887152 295.442172 
L 388.812137 295.432371 
L 387.737122 295.422803 
L 386.662107 295.414238 
L 385.587092 295.407449 
L 384.512077 295.403093 
L 383.437062 295.401611 
L 382.362047 295.403146 
L 381.287032 295.40752 
L 380.212017 295.414269 
L 379.137002 295.422712 
L 378.061987 295.432073 
L 376.986972 295.441586 
L 375.911957 295.450598 
L 374.836942 295.458631 
L 373.761927 295.465409 
L 372.686911 295.470835 
L 371.611896 295.474962 
L 370.536881 295.477929 
L 369.461866 295.479921 
L 368.386851 295.481118 
L 367.311836 295.48168 
L 366.236821 295.481731 
L 365.161806 295.481371 
L 364.086791 295.480685 
L 363.011776 295.479756 
L 361.936761 295.478676 
L 360.861746 295.477548 
L 359.786731 295.476481 
L 358.711716 295.475578 
L 357.636701 295.474919 
L 356.561686 295.474545 
L 355.486671 295.474452 
L 354.411656 295.47459 
L 353.336641 295.474869 
L 352.261626 295.475184 
L 351.18661 295.475431 
L 350.111595 295.475533 
L 349.03658 295.475456 
L 347.961565 295.475215 
L 346.88655 295.474867 
L 345.811535 295.474498 
L 344.73652 295.4742 
L 343.661505 295.474048 
L 342.58649 295.474079 
L 341.511475 295.474287 
L 340.43646 295.47462 
L 339.361445 295.474995 
L 338.28643 295.475318 
L 337.211415 295.47551 
L 336.1364 295.475523 
L 335.061385 295.475353 
L 333.98637 295.475042 
L 332.911355 295.474668 
L 331.83634 295.474324 
L 330.761325 295.474095 
L 329.686309 295.474039 
L 328.611294 295.474169 
L 327.536279 295.474453 
L 326.461264 295.47482 
L 325.386249 295.475179 
L 324.311234 295.47544 
L 323.236219 295.475539 
L 322.161204 295.47545 
L 321.086189 295.475196 
L 320.011174 295.474841 
L 318.936159 295.474472 
L 317.861144 295.474181 
L 316.786129 295.474042 
L 315.711114 295.474088 
L 314.636099 295.474308 
L 313.561084 295.474648 
L 312.486069 295.475022 
L 311.411054 295.475338 
L 310.336039 295.475516 
L 309.261023 295.475513 
L 308.186008 295.475329 
L 307.110993 295.47501 
L 306.035978 295.474635 
L 304.960963 295.474298 
L 303.885948 295.474083 
L 302.810933 295.474043 
L 301.735918 295.474188 
L 300.660903 295.474483 
L 299.585888 295.474853 
L 298.510873 295.475207 
L 297.435858 295.475457 
L 296.360843 295.475541 
L 295.285828 295.475437 
L 294.210813 295.475173 
L 293.135798 295.474813 
L 292.060783 295.474448 
L 290.985768 295.474168 
L 289.910753 295.474044 
L 288.835738 295.474106 
L 287.760722 295.474339 
L 286.685707 295.474684 
L 285.610692 295.475057 
L 284.535677 295.475363 
L 283.460662 295.475526 
L 282.385647 295.475506 
L 281.310632 295.475308 
L 280.235617 295.47498 
L 279.160602 295.474604 
L 278.085587 295.474274 
L 277.010572 295.474072 
L 275.935557 295.474048 
L 274.860542 295.474207 
L 273.785527 295.474511 
L 272.710512 295.474884 
L 271.635497 295.475232 
L 270.560482 295.475469 
L 269.485467 295.475537 
L 268.410452 295.475418 
L 267.335436 295.475141 
L 266.260421 295.474778 
L 265.185406 295.474417 
L 264.110391 295.474149 
L 263.035376 295.474042 
L 261.960361 295.474122 
L 260.885346 295.474371 
L 259.810331 295.474727 
L 258.735316 295.475102 
L 257.660301 295.475402 
L 256.585286 295.475552 
L 255.510271 295.47551 
L 254.435256 295.47528 
L 253.360241 295.474906 
L 252.285226 295.474457 
L 251.210211 295.474012 
L 250.135196 295.473628 
L 249.060181 295.473329 
L 247.985166 295.473088 
L 246.910151 295.47284 
L 245.835135 295.472487 
L 244.76012 295.471933 
L 243.685105 295.471107 
L 242.61009 295.469988 
L 241.535075 295.468626 
L 240.46006 295.467133 
L 239.385045 295.465673 
L 238.31003 295.464428 
L 237.235015 295.463562 
L 236.16 295.463187 
L 235.084985 295.463335 
L 234.00997 295.463952 
L 232.934955 295.464909 
L 231.85994 295.466025 
L 230.784925 295.467106 
L 229.70991 295.467982 
L 228.634895 295.468533 
L 227.55988 295.468698 
L 226.484865 295.468473 
L 225.409849 295.467881 
L 224.334834 295.466939 
L 223.259819 295.465623 
L 222.184804 295.463843 
L 221.109789 295.461439 
L 220.034774 295.458205 
L 218.959759 295.453935 
L 217.884744 295.448491 
L 216.809729 295.441867 
L 215.734714 295.434247 
L 214.659699 295.426023 
L 213.584684 295.417772 
L 212.509669 295.410185 
L 211.434654 295.403959 
L 210.359639 295.399676 
L 209.284624 295.397683 
L 208.209609 295.398026 
L 207.134594 295.400429 
L 206.059579 295.404347 
L 204.984564 295.409073 
L 203.909548 295.413872 
L 202.834533 295.418122 
L 201.759518 295.421422 
L 200.684503 295.42364 
L 199.609488 295.424909 
L 198.534473 295.425551 
L 197.459458 295.425976 
L 196.384443 295.42656 
L 195.309428 295.427549 
L 194.234413 295.428998 
L 193.159398 295.430764 
L 192.084383 295.432553 
L 191.009368 295.434 
L 189.934353 295.434759 
L 188.859338 295.434583 
L 187.784323 295.433363 
L 186.709308 295.431119 
L 185.634293 295.427937 
L 184.559278 295.423876 
L 183.484262 295.418859 
L 182.409247 295.412592 
L 181.334232 295.404541 
L 180.259217 295.393986 
L 179.184202 295.380155 
L 178.109187 295.362433 
L 177.034172 295.340594 
L 175.959157 295.314992 
L 174.884142 295.286678 
L 173.809127 295.257359 
L 172.734112 295.229204 
L 171.659097 295.204503 
L 170.584082 295.185241 
L 169.509067 295.172685 
L 168.434052 295.167072 
L 167.359037 295.1675 
L 166.284022 295.172037 
L 165.209007 295.178042 
L 164.133992 295.182617 
L 163.058977 295.183036 
L 161.983961 295.177051 
L 160.908946 295.16291 
L 159.833931 295.139066 
L 158.758916 295.103587 
L 157.683901 295.053405 
L 156.608886 294.983621 
L 155.533871 294.887148 
L 154.458856 294.75496 
L 153.383841 294.577109 
L 152.308826 294.344554 
L 151.233811 294.051532 
L 150.158796 293.698017 
L 149.083781 293.291582 
L 148.008766 292.847921 
L 146.933751 292.389485 
L 145.858736 291.942005 
L 144.783721 291.529309 
L 143.708706 291.167354 
L 142.633691 290.858938 
L 141.558675 290.590651 
L 140.48366 290.333377 
L 139.408645 290.046962 
L 138.33363 289.688662 
L 137.258615 289.223903 
L 136.1836 288.637069 
L 135.108585 287.939654 
L 134.03357 287.173457 
L 132.958555 286.407418 
L 131.88354 285.72817 
L 130.808525 285.225909 
L 129.73351 284.978442 
L 128.658495 285.036779 
L 127.58348 285.415305 
L 126.508465 286.088266 
L 125.43345 286.992571 
L 124.358435 288.035032 
L 123.28342 289.100805 
L 122.208405 290.059299 
L 121.13339 290.764297 
L 120.058374 291.046614 
L 118.983359 290.699898 
L 117.908344 289.462991 
L 116.833329 287.005073 
L 115.758314 282.922087 
L 114.683299 276.753715 
L 113.608284 268.028658 
L 112.533269 256.341188 
L 111.458254 241.453905 
L 110.383239 223.411387 
L 109.308224 202.639576 
L 108.233209 179.999921 
L 107.158194 156.769271 
L 106.083179 134.528236 
L 105.008164 114.961401 
L 103.933149 99.597743 
L 102.858134 89.541594 
L 101.783119 85.25579 
L 100.708104 86.45373 
L 99.633089 92.135556 
L 98.558073 100.770183 
L 97.483058 110.588729 
L 96.408043 119.926236 
L 95.333028 127.535735 
L 94.258013 132.805235 
L 93.182998 135.832169 
L 92.107983 137.344457 
L 91.032968 138.49336 
L 89.957953 140.571559 
L 88.882938 144.723624 
L 87.807923 151.71265 
L 86.732908 161.788314 
L 85.657893 174.673738 
L 84.582878 189.659326 
L 83.507863 205.768867 
L 82.432848 221.951859 
L 81.357833 237.257759 
L 80.282818 250.96008 
L 79.207803 262.616028 
L 78.132787 272.064749 
L 77.057772 279.379903 
L 75.982757 284.797861 
L 74.907742 288.641905 
L 73.832727 291.25733 
z
" clip-path="url(#p91323e6198)" style="fill: #2ca02c; fill-opacity: 0.25"/>
   </g>
   <g id="PolyCollection_4">
    <path d="M 73.832727 288.371256 
L 73.832727 295.488 
L 74.907742 295.488 
L 75.982757 295.488 
L 77.057772 295.488 
L 78.132787 295.488 
L 79.207803 295.488 
L 80.282818 295.488 
L 81.357833 295.488 
L 82.432848 295.488 
L 83.507863 295.488 
L 84.582878 295.488 
L 85.657893 295.488 
L 86.732908 295.488 
L 87.807923 295.488 
L 88.882938 295.488 
L 89.957953 295.488 
L 91.032968 295.488 
L 92.107983 295.488 
L 93.182998 295.488 
L 94.258013 295.488 
L 95.333028 295.488 
L 96.408043 295.488 
L 97.483058 295.488 
L 98.558073 295.488 
L 99.633089 295.488 
L 100.708104 295.488 
L 101.783119 295.488 
L 102.858134 295.488 
L 103.933149 295.488 
L 105.008164 295.488 
L 106.083179 295.488 
L 107.158194 295.488 
L 108.233209 295.488 
L 109.308224 295.488 
L 110.383239 295.488 
L 111.458254 295.488 
L 112.533269 295.488 
L 113.608284 295.488 
L 114.683299 295.488 
L 115.758314 295.488 
L 116.833329 295.488 
L 117.908344 295.488 
L 118.983359 295.488 
L 120.058374 295.488 
L 121.13339 295.488 
L 122.208405 295.488 
L 123.28342 295.488 
L 124.358435 295.488 
L 125.43345 295.488 
L 126.508465 295.488 
L 127.58348 295.488 
L 128.658495 295.488 
L 129.73351 295.488 
L 130.808525 295.488 
L 131.88354 295.488 
L 132.958555 295.488 
L 134.03357 295.488 
L 135.108585 295.488 
L 136.1836 295.488 
L 137.258615 295.488 
L 138.33363 295.488 
L 139.408645 295.488 
L 140.48366 295.488 
L 141.558675 295.488 
L 142.633691 295.488 
L 143.708706 295.488 
L 144.783721 295.488 
L 145.858736 295.488 
L 146.933751 295.488 
L 148.008766 295.488 
L 149.083781 295.488 
L 150.158796 295.488 
L 151.233811 295.488 
L 152.308826 295.488 
L 153.383841 295.488 
L 154.458856 295.488 
L 155.533871 295.488 
L 156.608886 295.488 
L 157.683901 295.488 
L 158.758916 295.488 
L 159.833931 295.488 
L 160.908946 295.488 
L 161.983961 295.488 
L 163.058977 295.488 
L 164.133992 295.488 
L 165.209007 295.488 
L 166.284022 295.488 
L 167.359037 295.488 
L 168.434052 295.488 
L 169.509067 295.488 
L 170.584082 295.488 
L 171.659097 295.488 
L 172.734112 295.488 
L 173.809127 295.488 
L 174.884142 295.488 
L 175.959157 295.488 
L 177.034172 295.488 
L 178.109187 295.488 
L 179.184202 295.488 
L 180.259217 295.488 
L 181.334232 295.488 
L 182.409247 295.488 
L 183.484262 295.488 
L 184.559278 295.488 
L 185.634293 295.488 
L 186.709308 295.488 
L 187.784323 295.488 
L 188.859338 295.488 
L 189.934353 295.488 
L 191.009368 295.488 
L 192.084383 295.488 
L 193.159398 295.488 
L 194.234413 295.488 
L 195.309428 295.488 
L 196.384443 295.488 
L 197.459458 295.488 
L 198.534473 295.488 
L 199.609488 295.488 
L 200.684503 295.488 
L 201.759518 295.488 
L 202.834533 295.488 
L 203.909548 295.488 
L 204.984564 295.488 
L 206.059579 295.488 
L 207.134594 295.488 
L 208.209609 295.488 
L 209.284624 295.488 
L 210.359639 295.488 
L 211.434654 295.488 
L 212.509669 295.488 
L 213.584684 295.488 
L 214.659699 295.488 
L 215.734714 295.488 
L 216.809729 295.488 
L 217.884744 295.488 
L 218.959759 295.488 
L 220.034774 295.488 
L 221.109789 295.488 
L 222.184804 295.488 
L 223.259819 295.488 
L 224.334834 295.488 
L 225.409849 295.488 
L 226.484865 295.488 
L 227.55988 295.488 
L 228.634895 295.488 
L 229.70991 295.488 
L 230.784925 295.488 
L 231.85994 295.488 
L 232.934955 295.488 
L 234.00997 295.488 
L 235.084985 295.488 
L 236.16 295.488 
L 237.235015 295.488 
L 238.31003 295.488 
L 239.385045 295.488 
L 240.46006 295.488 
L 241.535075 295.488 
L 242.61009 295.488 
L 243.685105 295.488 
L 244.76012 295.488 
L 245.835135 295.488 
L 246.910151 295.488 
L 247.985166 295.488 
L 249.060181 295.488 
L 250.135196 295.488 
L 251.210211 295.488 
L 252.285226 295.488 
L 253.360241 295.488 
L 254.435256 295.488 
L 255.510271 295.488 
L 256.585286 295.488 
L 257.660301 295.488 
L 258.735316 295.488 
L 259.810331 295.488 
L 260.885346 295.488 
L 261.960361 295.488 
L 263.035376 295.488 
L 264.110391 295.488 
L 265.185406 295.488 
L 266.260421 295.488 
L 267.335436 295.488 
L 268.410452 295.488 
L 269.485467 295.488 
L 270.560482 295.488 
L 271.635497 295.488 
L 272.710512 295.488 
L 273.785527 295.488 
L 274.860542 295.488 
L 275.935557 295.488 
L 277.010572 295.488 
L 278.085587 295.488 
L 279.160602 295.488 
L 280.235617 295.488 
L 281.310632 295.488 
L 282.385647 295.488 
L 283.460662 295.488 
L 284.535677 295.488 
L 285.610692 295.488 
L 286.685707 295.488 
L 287.760722 295.488 
L 288.835738 295.488 
L 289.910753 295.488 
L 290.985768 295.488 
L 292.060783 295.488 
L 293.135798 295.488 
L 294.210813 295.488 
L 295.285828 295.488 
L 296.360843 295.488 
L 297.435858 295.488 
L 298.510873 295.488 
L 299.585888 295.488 
L 300.660903 295.488 
L 301.735918 295.488 
L 302.810933 295.488 
L 303.885948 295.488 
L 304.960963 295.488 
L 306.035978 295.488 
L 307.110993 295.488 
L 308.186008 295.488 
L 309.261023 295.488 
L 310.336039 295.488 
L 311.411054 295.488 
L 312.486069 295.488 
L 313.561084 295.488 
L 314.636099 295.488 
L 315.711114 295.488 
L 316.786129 295.488 
L 317.861144 295.488 
L 318.936159 295.488 
L 320.011174 295.488 
L 321.086189 295.488 
L 322.161204 295.488 
L 323.236219 295.488 
L 324.311234 295.488 
L 325.386249 295.488 
L 326.461264 295.488 
L 327.536279 295.488 
L 328.611294 295.488 
L 329.686309 295.488 
L 330.761325 295.488 
L 331.83634 295.488 
L 332.911355 295.488 
L 333.98637 295.488 
L 335.061385 295.488 
L 336.1364 295.488 
L 337.211415 295.488 
L 338.28643 295.488 
L 339.361445 295.488 
L 340.43646 295.488 
L 341.511475 295.488 
L 342.58649 295.488 
L 343.661505 295.488 
L 344.73652 295.488 
L 345.811535 295.488 
L 346.88655 295.488 
L 347.961565 295.488 
L 349.03658 295.488 
L 350.111595 295.488 
L 351.18661 295.488 
L 352.261626 295.488 
L 353.336641 295.488 
L 354.411656 295.488 
L 355.486671 295.488 
L 356.561686 295.488 
L 357.636701 295.488 
L 358.711716 295.488 
L 359.786731 295.488 
L 360.861746 295.488 
L 361.936761 295.488 
L 363.011776 295.488 
L 364.086791 295.488 
L 365.161806 295.488 
L 366.236821 295.488 
L 367.311836 295.488 
L 368.386851 295.488 
L 369.461866 295.488 
L 370.536881 295.488 
L 371.611896 295.488 
L 372.686911 295.488 
L 373.761927 295.488 
L 374.836942 295.488 
L 375.911957 295.488 
L 376.986972 295.488 
L 378.061987 295.488 
L 379.137002 295.488 
L 380.212017 295.488 
L 381.287032 295.488 
L 382.362047 295.488 
L 383.437062 295.488 
L 384.512077 295.488 
L 385.587092 295.488 
L 386.662107 295.488 
L 387.737122 295.488 
L 388.812137 295.488 
L 389.887152 295.488 
L 390.962167 295.488 
L 392.037182 295.488 
L 393.112197 295.488 
L 394.187213 295.488 
L 395.262228 295.488 
L 396.337243 295.488 
L 397.412258 295.488 
L 398.487273 295.488 
L 398.487273 295.437784 
L 398.487273 295.437784 
L 397.412258 295.435938 
L 396.337243 295.43592 
L 395.262228 295.43773 
L 394.187213 295.44118 
L 393.112197 295.445924 
L 392.037182 295.451515 
L 390.962167 295.457473 
L 389.887152 295.463355 
L 388.812137 295.468802 
L 387.737122 295.47357 
L 386.662107 295.477535 
L 385.587092 295.480676 
L 384.512077 295.483055 
L 383.437062 295.484778 
L 382.362047 295.485974 
L 381.287032 295.486771 
L 380.212017 295.487281 
L 379.137002 295.487594 
L 378.061987 295.487779 
L 376.986972 295.487884 
L 375.911957 295.487941 
L 374.836942 295.487971 
L 373.761927 295.487986 
L 372.686911 295.487994 
L 371.611896 295.487997 
L 370.536881 295.487999 
L 369.461866 295.488 
L 368.386851 295.488 
L 367.311836 295.488 
L 366.236821 295.488 
L 365.161806 295.488 
L 364.086791 295.488 
L 363.011776 295.488 
L 361.936761 295.488 
L 360.861746 295.488 
L 359.786731 295.488 
L 358.711716 295.488 
L 357.636701 295.488 
L 356.561686 295.488 
L 355.486671 295.488 
L 354.411656 295.488 
L 353.336641 295.488 
L 352.261626 295.488 
L 351.18661 295.488 
L 350.111595 295.488 
L 349.03658 295.488 
L 347.961565 295.488 
L 346.88655 295.488 
L 345.811535 295.488 
L 344.73652 295.488 
L 343.661505 295.488 
L 342.58649 295.488 
L 341.511475 295.488 
L 340.43646 295.488 
L 339.361445 295.488 
L 338.28643 295.488 
L 337.211415 295.488 
L 336.1364 295.488 
L 335.061385 295.488 
L 333.98637 295.488 
L 332.911355 295.488 
L 331.83634 295.488 
L 330.761325 295.488 
L 329.686309 295.488 
L 328.611294 295.488 
L 327.536279 295.488 
L 326.461264 295.488 
L 325.386249 295.488 
L 324.311234 295.488 
L 323.236219 295.488 
L 322.161204 295.488 
L 321.086189 295.488 
L 320.011174 295.488 
L 318.936159 295.488 
L 317.861144 295.488 
L 316.786129 295.488 
L 315.711114 295.488 
L 314.636099 295.488 
L 313.561084 295.488 
L 312.486069 295.488 
L 311.411054 295.488 
L 310.336039 295.488 
L 309.261023 295.488 
L 308.186008 295.488 
L 307.110993 295.488 
L 306.035978 295.488 
L 304.960963 295.488 
L 303.885948 295.488 
L 302.810933 295.488 
L 301.735918 295.488 
L 300.660903 295.488 
L 299.585888 295.488 
L 298.510873 295.488 
L 297.435858 295.488 
L 296.360843 295.488 
L 295.285828 295.488 
L 294.210813 295.488 
L 293.135798 295.488 
L 292.060783 295.488 
L 290.985768 295.488 
L 289.910753 295.488 
L 288.835738 295.488 
L 287.760722 295.488 
L 286.685707 295.488 
L 285.610692 295.488 
L 284.535677 295.488 
L 283.460662 295.488 
L 282.385647 295.488 
L 281.310632 295.488 
L 280.235617 295.488 
L 279.160602 295.488 
L 278.085587 295.488 
L 277.010572 295.488 
L 275.935557 295.488 
L 274.860542 295.488 
L 273.785527 295.488 
L 272.710512 295.488 
L 271.635497 295.488 
L 270.560482 295.488 
L 269.485467 295.488 
L 268.410452 295.488 
L 267.335436 295.488 
L 266.260421 295.488 
L 265.185406 295.488 
L 264.110391 295.488 
L 263.035376 295.488 
L 261.960361 295.488 
L 260.885346 295.488 
L 259.810331 295.488 
L 258.735316 295.488 
L 257.660301 295.488 
L 256.585286 295.488 
L 255.510271 295.488 
L 254.435256 295.488 
L 253.360241 295.488 
L 252.285226 295.488 
L 251.210211 295.488 
L 250.135196 295.488 
L 249.060181 295.488 
L 247.985166 295.488 
L 246.910151 295.488 
L 245.835135 295.488 
L 244.76012 295.488 
L 243.685105 295.488 
L 242.61009 295.488 
L 241.535075 295.488 
L 240.46006 295.488 
L 239.385045 295.488 
L 238.31003 295.488 
L 237.235015 295.488 
L 236.16 295.488 
L 235.084985 295.488 
L 234.00997 295.488 
L 232.934955 295.488 
L 231.85994 295.488 
L 230.784925 295.488 
L 229.70991 295.488 
L 228.634895 295.488 
L 227.55988 295.488 
L 226.484865 295.488 
L 225.409849 295.488 
L 224.334834 295.488 
L 223.259819 295.488 
L 222.184804 295.488 
L 221.109789 295.488 
L 220.034774 295.488 
L 218.959759 295.488 
L 217.884744 295.488 
L 216.809729 295.488 
L 215.734714 295.488 
L 214.659699 295.488 
L 213.584684 295.488 
L 212.509669 295.488 
L 211.434654 295.488 
L 210.359639 295.488 
L 209.284624 295.488 
L 208.209609 295.488 
L 207.134594 295.488 
L 206.059579 295.488 
L 204.984564 295.488 
L 203.909548 295.488 
L 202.834533 295.488 
L 201.759518 295.488 
L 200.684503 295.488 
L 199.609488 295.488 
L 198.534473 295.488 
L 197.459458 295.488 
L 196.384443 295.488 
L 195.309428 295.488 
L 194.234413 295.488 
L 193.159398 295.488 
L 192.084383 295.488 
L 191.009368 295.488 
L 189.934353 295.488 
L 188.859338 295.488 
L 187.784323 295.488 
L 186.709308 295.488 
L 185.634293 295.488 
L 184.559278 295.488 
L 183.484262 295.487999 
L 182.409247 295.487998 
L 181.334232 295.487994 
L 180.259217 295.487987 
L 179.184202 295.48797 
L 178.109187 295.487937 
L 177.034172 295.48787 
L 175.959157 295.487741 
L 174.884142 295.487503 
L 173.809127 295.48708 
L 172.734112 295.486355 
L 171.659097 295.485164 
L 170.584082 295.483282 
L 169.509067 295.480426 
L 168.434052 295.476269 
L 167.359037 295.470465 
L 166.284022 295.46271 
L 165.209007 295.452802 
L 164.133992 295.440724 
L 163.058977 295.426718 
L 161.983961 295.411324 
L 160.908946 295.395381 
L 159.833931 295.379961 
L 158.758916 295.366237 
L 157.683901 295.355319 
L 156.608886 295.348054 
L 155.533871 295.344868 
L 154.458856 295.345661 
L 153.383841 295.349785 
L 152.308826 295.356104 
L 151.233811 295.363105 
L 150.158796 295.369007 
L 149.083781 295.371792 
L 148.008766 295.369118 
L 146.933751 295.35806 
L 145.858736 295.334698 
L 144.783721 295.293633 
L 143.708706 295.227562 
L 142.633691 295.127126 
L 141.558675 294.981264 
L 140.48366 294.778259 
L 139.408645 294.507598 
L 138.33363 294.162515 
L 137.258615 293.742889 
L 136.1836 293.257892 
L 135.108585 292.727655 
L 134.03357 292.183207 
L 132.958555 291.664247 
L 131.88354 291.214735 
L 130.808525 290.876875 
L 129.73351 290.684551 
L 128.658495 290.657529 
L 127.58348 290.797621 
L 126.508465 291.087452 
L 125.43345 291.491742 
L 124.358435 291.960113 
L 123.28342 292.429821 
L 122.208405 292.826528 
L 121.13339 293.061525 
L 120.058374 293.024625 
L 118.983359 292.573308 
L 117.908344 291.520402 
L 116.833329 289.624448 
L 115.758314 286.588413 
L 114.683299 282.073078 
L 113.608284 275.730319 
L 112.533269 267.258174 
L 111.458254 256.473766 
L 110.383239 243.392734 
L 109.308224 228.296666 
L 108.233209 211.765846 
L 107.158194 194.656226 
L 106.083179 178.008531 
L 105.008164 162.893206 
L 103.933149 150.214223 
L 102.858134 140.51208 
L 101.783119 133.81554 
L 100.708104 129.588199 
L 99.633089 126.798668 
L 98.558073 124.11501 
L 97.483058 120.192042 
L 96.408043 113.99264 
L 95.333028 105.069621 
L 94.258013 93.738015 
L 93.182998 81.089217 
L 92.107983 68.834157 
L 91.032968 59.003447 
L 89.957953 53.568 
L 88.882938 54.063846 
L 87.807923 61.303959 
L 86.732908 75.23769 
L 85.657893 94.981225 
L 84.582878 119.000949 
L 83.507863 145.397623 
L 82.432848 172.221637 
L 81.357833 197.751687 
L 80.282818 220.687953 
L 79.207803 240.238591 
L 78.132787 256.105969 
L 77.057772 268.399137 
L 75.982757 277.507939 
L 74.907742 283.972309 
L 73.832727 288.371256 
z
" clip-path="url(#p91323e6198)" style="fill: #d62728; fill-opacity: 0.25"/>
   </g>
   <g id="matplotlib.axis_1">
    <g id="xtick_1">
     <g id="line2d_1">
      <path d="M 73.832727 307.584 
L 73.832727 41.472 
" clip-path="url(#p91323e6198)" style="fill: none; stroke-dasharray: 1.85,0.8; stroke-dashoffset: 0; stroke: #b0b0b0; stroke-width: 0.5"/>
     </g>
     <g id="line2d_2">
      <defs>
       <path id="m5c778d131f" d="M 0 0 
L 0 3.5 
" style="stroke: #000000; stroke-width: 0.8"/>
      </defs>
      <g>
       <use xlink:href="#m5c778d131f" x="73.832727" y="307.584" style="stroke: #000000; stroke-width: 0.8"/>
      </g>
     </g>
     <g id="text_1">
      <!-- 0.000 -->
      <g transform="translate(59.518665 322.182437) scale(0.1 -0.1)">
       <defs>
        <path id="DejaVuSans-30" d="M 2034 4250 
Q 1547 4250 1301 3770 
Q 1056 3291 1056 2328 
Q 1056 1369 1301 889 
Q 1547 409 2034 409 
Q 2525 409 2770 889 
Q 3016 1369 3016 2328 
Q 3016 3291 2770 3770 
Q 2525 4250 2034 4250 
z
M 2034 4750 
Q 2819 4750 3233 4129 
Q 3647 3509 3647 2328 
Q 3647 1150 3233 529 
Q 2819 -91 2034 -91 
Q 1250 -91 836 529 
Q 422 1150 422 2328 
Q 422 3509 836 4129 
Q 1250 4750 2034 4750 
z
" transform="scale(0.015625)"/>
        <path id="DejaVuSans-2e" d="M 684 794 
L 1344 794 
L 1344 0 
L 684 0 
L 684 794 
z
" transform="scale(0.015625)"/>
       </defs>
       <use xlink:href="#DejaVuSans-30"/>
       <use xlink:href="#DejaVuSans-2e" x="63.623047"/>
       <use xlink:href="#DejaVuSans-30" x="95.410156"/>
       <use xlink:href="#DejaVuSans-30" x="159.033203"/>
       <use xlink:href="#DejaVuSans-30" x="222.65625"/>
      </g>
     </g>
    </g>
    <g id="xtick_2">
     <g id="line2d_3">
      <path d="M 126.919265 307.584 
L 126.919265 41.472 
" clip-path="url(#p91323e6198)" style="fill: none; stroke-dasharray: 1.85,0.8; stroke-dashoffset: 0; stroke: #b0b0b0; stroke-width: 0.5"/>
     </g>
     <g id="line2d_4">
      <g>
       <use xlink:href="#m5c778d131f" x="126.919265" y="307.584" style="stroke: #000000; stroke-width: 0.8"/>
      </g>
     </g>
     <g id="text_2">
      <!-- 0.002 -->
      <g transform="translate(112.605202 322.182437) scale(0.1 -0.1)">
       <defs>
        <path id="DejaVuSans-32" d="M 1228 531 
L 3431 531 
L 3431 0 
L 469 0 
L 469 531 
Q 828 903 1448 1529 
Q 2069 2156 2228 2338 
Q 2531 2678 2651 2914 
Q 2772 3150 2772 3378 
Q 2772 3750 2511 3984 
Q 2250 4219 1831 4219 
Q 1534 4219 1204 4116 
Q 875 4013 500 3803 
L 500 4441 
Q 881 4594 1212 4672 
Q 1544 4750 1819 4750 
Q 2544 4750 2975 4387 
Q 3406 4025 3406 3419 
Q 3406 3131 3298 2873 
Q 3191 2616 2906 2266 
Q 2828 2175 2409 1742 
Q 1991 1309 1228 531 
z
" transform="scale(0.015625)"/>
       </defs>
       <use xlink:href="#DejaVuSans-30"/>
       <use xlink:href="#DejaVuSans-2e" x="63.623047"/>
       <use xlink:href="#DejaVuSans-30" x="95.410156"/>
       <use xlink:href="#DejaVuSans-30" x="159.033203"/>
       <use xlink:href="#DejaVuSans-32" x="222.65625"/>
      </g>
     </g>
    </g>
    <g id="xtick_3">
     <g id="line2d_5">
      <path d="M 180.005802 307.584 
L 180.005802 41.472 
" clip-path="url(#p91323e6198)" style="fill: none; stroke-dasharray: 1.85,0.8; stroke-dashoffset: 0; stroke: #b0b0b0; stroke-width: 0.5"/>
     </g>
     <g id="line2d_6">
      <g>
       <use xlink:href="#m5c778d131f" x="180.005802" y="307.584" style="stroke: #000000; stroke-width: 0.8"/>
      </g>
     </g>
     <g id="text_3">
      <!-- 0.004 -->
      <g transform="translate(165.69174 322.182437) scale(0.1 -0.1)">
       <defs>
        <path id="DejaVuSans-34" d="M 2419 4116 
L 825 1625 
L 2419 1625 
L 2419 4116 
z
M 2253 4666 
L 3047 4666 
L 3047 1625 
L 3713 1625 
L 3713 1100 
L 3047 1100 
L 3047 0 
L 2419 0 
L 2419 1100 
L 313 1100 
L 313 1709 
L 2253 4666 
z
" transform="scale(0.015625)"/>
       </defs>
       <use xlink:href="#DejaVuSans-30"/>
       <use xlink:href="#DejaVuSans-2e" x="63.623047"/>
       <use xlink:href="#DejaVuSans-30" x="95.410156"/>
       <use xlink:href="#DejaVuSans-30" x="159.033203"/>
       <use xlink:href="#DejaVuSans-34" x="222.65625"/>
      </g>
     </g>
    </g>
    <g id="xtick_4">
     <g id="line2d_7">
      <path d="M 233.09234 307.584 
L 233.09234 41.472 
" clip-path="url(#p91323e6198)" style="fill: none; stroke-dasharray: 1.85,0.8; stroke-dashoffset: 0; stroke: #b0b0b0; stroke-width: 0.5"/>
     </g>
     <g id="line2d_8">
      <g>
       <use xlink:href="#m5c778d131f" x="233.09234" y="307.584" style="stroke: #000000; stroke-width: 0.8"/>
      </g>
     </g>
     <g id="text_4">
      <!-- 0.006 -->
      <g transform="translate(218.778277 322.182437) scale(0.1 -0.1)">
       <defs>
        <path id="DejaVuSans-36" d="M 2113 2584 
Q 1688 2584 1439 2293 
Q 1191 2003 1191 1497 
Q 1191 994 1439 701 
Q 1688 409 2113 409 
Q 2538 409 2786 701 
Q 3034 994 3034 1497 
Q 3034 2003 2786 2293 
Q 2538 2584 2113 2584 
z
M 3366 4563 
L 3366 3988 
Q 3128 4100 2886 4159 
Q 2644 4219 2406 4219 
Q 1781 4219 1451 3797 
Q 1122 3375 1075 2522 
Q 1259 2794 1537 2939 
Q 1816 3084 2150 3084 
Q 2853 3084 3261 2657 
Q 3669 2231 3669 1497 
Q 3669 778 3244 343 
Q 2819 -91 2113 -91 
Q 1303 -91 875 529 
Q 447 1150 447 2328 
Q 447 3434 972 4092 
Q 1497 4750 2381 4750 
Q 2619 4750 2861 4703 
Q 3103 4656 3366 4563 
z
" transform="scale(0.015625)"/>
       </defs>
       <use xlink:href="#DejaVuSans-30"/>
       <use xlink:href="#DejaVuSans-2e" x="63.623047"/>
       <use xlink:href="#DejaVuSans-30" x="95.410156"/>
       <use xlink:href="#DejaVuSans-30" x="159.033203"/>
       <use xlink:href="#DejaVuSans-36" x="222.65625"/>
      </g>
     </g>
    </g>
    <g id="xtick_5">
     <g id="line2d_9">
      <path d="M 286.178877 307.584 
L 286.178877 41.472 
" clip-path="url(#p91323e6198)" style="fill: none; stroke-dasharray: 1.85,0.8; stroke-dashoffset: 0; stroke: #b0b0b0; stroke-width: 0.5"/>
     </g>
     <g id="line2d_10">
      <g>
       <use xlink:href="#m5c778d131f" x="286.178877" y="307.584" style="stroke: #000000; stroke-width: 0.8"/>
      </g>
     </g>
     <g id="text_5">
      <!-- 0.008 -->
      <g transform="translate(271.864815 322.182437) scale(0.1 -0.1)">
       <defs>
        <path id="DejaVuSans-38" d="M 2034 2216 
Q 1584 2216 1326 1975 
Q 1069 1734 1069 1313 
Q 1069 891 1326 650 
Q 1584 409 2034 409 
Q 2484 409 2743 651 
Q 3003 894 3003 1313 
Q 3003 1734 2745 1975 
Q 2488 2216 2034 2216 
z
M 1403 2484 
Q 997 2584 770 2862 
Q 544 3141 544 3541 
Q 544 4100 942 4425 
Q 1341 4750 2034 4750 
Q 2731 4750 3128 4425 
Q 3525 4100 3525 3541 
Q 3525 3141 3298 2862 
Q 3072 2584 2669 2484 
Q 3125 2378 3379 2068 
Q 3634 1759 3634 1313 
Q 3634 634 3220 271 
Q 2806 -91 2034 -91 
Q 1263 -91 848 271 
Q 434 634 434 1313 
Q 434 1759 690 2068 
Q 947 2378 1403 2484 
z
M 1172 3481 
Q 1172 3119 1398 2916 
Q 1625 2713 2034 2713 
Q 2441 2713 2670 2916 
Q 2900 3119 2900 3481 
Q 2900 3844 2670 4047 
Q 2441 4250 2034 4250 
Q 1625 4250 1398 4047 
Q 1172 3844 1172 3481 
z
" transform="scale(0.015625)"/>
       </defs>
       <use xlink:href="#DejaVuSans-30"/>
       <use xlink:href="#DejaVuSans-2e" x="63.623047"/>
       <use xlink:href="#DejaVuSans-30" x="95.410156"/>
       <use xlink:href="#DejaVuSans-30" x="159.033203"/>
       <use xlink:href="#DejaVuSans-38" x="222.65625"/>
      </g>
     </g>
    </g>
    <g id="xtick_6">
     <g id="line2d_11">
      <path d="M 339.265415 307.584 
L 339.265415 41.472 
" clip-path="url(#p91323e6198)" style="fill: none; stroke-dasharray: 1.85,0.8; stroke-dashoffset: 0; stroke: #b0b0b0; stroke-width: 0.5"/>
     </g>
     <g id="line2d_12">
      <g>
       <use xlink:href="#m5c778d131f" x="339.265415" y="307.584" style="stroke: #000000; stroke-width: 0.8"/>
      </g>
     </g>
     <g id="text_6">
      <!-- 0.010 -->
      <g transform="translate(324.951352 322.182437) scale(0.1 -0.1)">
       <defs>
        <path id="DejaVuSans-31" d="M 794 531 
L 1825 531 
L 1825 4091 
L 703 3866 
L 703 4441 
L 1819 4666 
L 2450 4666 
L 2450 531 
L 3481 531 
L 3481 0 
L 794 0 
L 794 531 
z
" transform="scale(0.015625)"/>
       </defs>
       <use xlink:href="#DejaVuSans-30"/>
       <use xlink:href="#DejaVuSans-2e" x="63.623047"/>
       <use xlink:href="#DejaVuSans-30" x="95.410156"/>
       <use xlink:href="#DejaVuSans-31" x="159.033203"/>
       <use xlink:href="#DejaVuSans-30" x="222.65625"/>
      </g>
     </g>
    </g>
    <g id="xtick_7">
     <g id="line2d_13">
      <path d="M 392.351952 307.584 
L 392.351952 41.472 
" clip-path="url(#p91323e6198)" style="fill: none; stroke-dasharray: 1.85,0.8; stroke-dashoffset: 0; stroke: #b0b0b0; stroke-width: 0.5"/>
     </g>
     <g id="line2d_14">
      <g>
       <use xlink:href="#m5c778d131f" x="392.351952" y="307.584" style="stroke: #000000; stroke-width: 0.8"/>
      </g>
     </g>
     <g id="text_7">
      <!-- 0.012 -->
      <g transform="translate(378.03789 322.182437) scale(0.1 -0.1)">
       <use xlink:href="#DejaVuSans-30"/>
       <use xlink:href="#DejaVuSans-2e" x="63.623047"/>
       <use xlink:href="#DejaVuSans-30" x="95.410156"/>
       <use xlink:href="#DejaVuSans-31" x="159.033203"/>
       <use xlink:href="#DejaVuSans-32" x="222.65625"/>
      </g>
     </g>
    </g>
    <g id="text_8">
     <!-- Pixel values -->
     <g transform="translate(206.748281 335.860562) scale(0.1 -0.1)">
      <defs>
       <path id="DejaVuSans-50" d="M 1259 4147 
L 1259 2394 
L 2053 2394 
Q 2494 2394 2734 2622 
Q 2975 2850 2975 3272 
Q 2975 3691 2734 3919 
Q 2494 4147 2053 4147 
L 1259 4147 
z
M 628 4666 
L 2053 4666 
Q 2838 4666 3239 4311 
Q 3641 3956 3641 3272 
Q 3641 2581 3239 2228 
Q 2838 1875 2053 1875 
L 1259 1875 
L 1259 0 
L 628 0 
L 628 4666 
z
" transform="scale(0.015625)"/>
       <path id="DejaVuSans-69" d="M 603 3500 
L 1178 3500 
L 1178 0 
L 603 0 
L 603 3500 
z
M 603 4863 
L 1178 4863 
L 1178 4134 
L 603 4134 
L 603 4863 
z
" transform="scale(0.015625)"/>
       <path id="DejaVuSans-78" d="M 3513 3500 
L 2247 1797 
L 3578 0 
L 2900 0 
L 1881 1375 
L 863 0 
L 184 0 
L 1544 1831 
L 300 3500 
L 978 3500 
L 1906 2253 
L 2834 3500 
L 3513 3500 
z
" transform="scale(0.015625)"/>
       <path id="DejaVuSans-65" d="M 3597 1894 
L 3597 1613 
L 953 1613 
Q 991 1019 1311 708 
Q 1631 397 2203 397 
Q 2534 397 2845 478 
Q 3156 559 3463 722 
L 3463 178 
Q 3153 47 2828 -22 
Q 2503 -91 2169 -91 
Q 1331 -91 842 396 
Q 353 884 353 1716 
Q 353 2575 817 3079 
Q 1281 3584 2069 3584 
Q 2775 3584 3186 3129 
Q 3597 2675 3597 1894 
z
M 3022 2063 
Q 3016 2534 2758 2815 
Q 2500 3097 2075 3097 
Q 1594 3097 1305 2825 
Q 1016 2553 972 2059 
L 3022 2063 
z
" transform="scale(0.015625)"/>
       <path id="DejaVuSans-6c" d="M 603 4863 
L 1178 4863 
L 1178 0 
L 603 0 
L 603 4863 
z
" transform="scale(0.015625)"/>
       <path id="DejaVuSans-20" transform="scale(0.015625)"/>
       <path id="DejaVuSans-76" d="M 191 3500 
L 800 3500 
L 1894 563 
L 2988 3500 
L 3597 3500 
L 2284 0 
L 1503 0 
L 191 3500 
z
" transform="scale(0.015625)"/>
       <path id="DejaVuSans-61" d="M 2194 1759 
Q 1497 1759 1228 1600 
Q 959 1441 959 1056 
Q 959 750 1161 570 
Q 1363 391 1709 391 
Q 2188 391 2477 730 
Q 2766 1069 2766 1631 
L 2766 1759 
L 2194 1759 
z
M 3341 1997 
L 3341 0 
L 2766 0 
L 2766 531 
Q 2569 213 2275 61 
Q 1981 -91 1556 -91 
Q 1019 -91 701 211 
Q 384 513 384 1019 
Q 384 1609 779 1909 
Q 1175 2209 1959 2209 
L 2766 2209 
L 2766 2266 
Q 2766 2663 2505 2880 
Q 2244 3097 1772 3097 
Q 1472 3097 1187 3025 
Q 903 2953 641 2809 
L 641 3341 
Q 956 3463 1253 3523 
Q 1550 3584 1831 3584 
Q 2591 3584 2966 3190 
Q 3341 2797 3341 1997 
z
" transform="scale(0.015625)"/>
       <path id="DejaVuSans-75" d="M 544 1381 
L 544 3500 
L 1119 3500 
L 1119 1403 
Q 1119 906 1312 657 
Q 1506 409 1894 409 
Q 2359 409 2629 706 
Q 2900 1003 2900 1516 
L 2900 3500 
L 3475 3500 
L 3475 0 
L 2900 0 
L 2900 538 
Q 2691 219 2414 64 
Q 2138 -91 1772 -91 
Q 1169 -91 856 284 
Q 544 659 544 1381 
z
M 1991 3584 
L 1991 3584 
z
" transform="scale(0.015625)"/>
       <path id="DejaVuSans-73" d="M 2834 3397 
L 2834 2853 
Q 2591 2978 2328 3040 
Q 2066 3103 1784 3103 
Q 1356 3103 1142 2972 
Q 928 2841 928 2578 
Q 928 2378 1081 2264 
Q 1234 2150 1697 2047 
L 1894 2003 
Q 2506 1872 2764 1633 
Q 3022 1394 3022 966 
Q 3022 478 2636 193 
Q 2250 -91 1575 -91 
Q 1294 -91 989 -36 
Q 684 19 347 128 
L 347 722 
Q 666 556 975 473 
Q 1284 391 1588 391 
Q 1994 391 2212 530 
Q 2431 669 2431 922 
Q 2431 1156 2273 1281 
Q 2116 1406 1581 1522 
L 1381 1569 
Q 847 1681 609 1914 
Q 372 2147 372 2553 
Q 372 3047 722 3315 
Q 1072 3584 1716 3584 
Q 2034 3584 2315 3537 
Q 2597 3491 2834 3397 
z
" transform="scale(0.015625)"/>
      </defs>
      <use xlink:href="#DejaVuSans-50"/>
      <use xlink:href="#DejaVuSans-69" x="58.052734"/>
      <use xlink:href="#DejaVuSans-78" x="85.835938"/>
      <use xlink:href="#DejaVuSans-65" x="141.890625"/>
      <use xlink:href="#DejaVuSans-6c" x="203.414062"/>
      <use xlink:href="#DejaVuSans-20" x="231.197266"/>
      <use xlink:href="#DejaVuSans-76" x="262.984375"/>
      <use xlink:href="#DejaVuSans-61" x="322.164062"/>
      <use xlink:href="#DejaVuSans-6c" x="383.443359"/>
      <use xlink:href="#DejaVuSans-75" x="411.226562"/>
      <use xlink:href="#DejaVuSans-65" x="474.605469"/>
      <use xlink:href="#DejaVuSans-73" x="536.128906"/>
     </g>
    </g>
   </g>
   <g id="matplotlib.axis_2">
    <g id="ytick_1">
     <g id="line2d_15">
      <path d="M 57.6 295.488 
L 414.72 295.488 
" clip-path="url(#p91323e6198)" style="fill: none; stroke-dasharray: 1.85,0.8; stroke-dashoffset: 0; stroke: #b0b0b0; stroke-width: 0.5"/>
     </g>
     <g id="line2d_16">
      <defs>
       <path id="mcfc2609421" d="M 0 0 
L -3.5 0 
" style="stroke: #000000; stroke-width: 0.8"/>
      </defs>
      <g>
       <use xlink:href="#mcfc2609421" x="57.6" y="295.488" style="stroke: #000000; stroke-width: 0.8"/>
      </g>
     </g>
     <g id="text_9">
      <!-- 0 -->
      <g transform="translate(44.2375 299.287219) scale(0.1 -0.1)">
       <use xlink:href="#DejaVuSans-30"/>
      </g>
     </g>
    </g>
    <g id="ytick_2">
     <g id="line2d_17">
      <path d="M 57.6 259.696608 
L 414.72 259.696608 
" clip-path="url(#p91323e6198)" style="fill: none; stroke-dasharray: 1.85,0.8; stroke-dashoffset: 0; stroke: #b0b0b0; stroke-width: 0.5"/>
     </g>
     <g id="line2d_18">
      <g>
       <use xlink:href="#mcfc2609421" x="57.6" y="259.696608" style="stroke: #000000; stroke-width: 0.8"/>
      </g>
     </g>
     <g id="text_10">
      <!-- 2 -->
      <g transform="translate(44.2375 263.495826) scale(0.1 -0.1)">
       <use xlink:href="#DejaVuSans-32"/>
      </g>
     </g>
    </g>
    <g id="ytick_3">
     <g id="line2d_19">
      <path d="M 57.6 223.905215 
L 414.72 223.905215 
" clip-path="url(#p91323e6198)" style="fill: none; stroke-dasharray: 1.85,0.8; stroke-dashoffset: 0; stroke: #b0b0b0; stroke-width: 0.5"/>
     </g>
     <g id="line2d_20">
      <g>
       <use xlink:href="#mcfc2609421" x="57.6" y="223.905215" style="stroke: #000000; stroke-width: 0.8"/>
      </g>
     </g>
     <g id="text_11">
      <!-- 4 -->
      <g transform="translate(44.2375 227.704434) scale(0.1 -0.1)">
       <use xlink:href="#DejaVuSans-34"/>
      </g>
     </g>
    </g>
    <g id="ytick_4">
     <g id="line2d_21">
      <path d="M 57.6 188.113823 
L 414.72 188.113823 
" clip-path="url(#p91323e6198)" style="fill: none; stroke-dasharray: 1.85,0.8; stroke-dashoffset: 0; stroke: #b0b0b0; stroke-width: 0.5"/>
     </g>
     <g id="line2d_22">
      <g>
       <use xlink:href="#mcfc2609421" x="57.6" y="188.113823" style="stroke: #000000; stroke-width: 0.8"/>
      </g>
     </g>
     <g id="text_12">
      <!-- 6 -->
      <g transform="translate(44.2375 191.913042) scale(0.1 -0.1)">
       <use xlink:href="#DejaVuSans-36"/>
      </g>
     </g>
    </g>
    <g id="ytick_5">
     <g id="line2d_23">
      <path d="M 57.6 152.322431 
L 414.72 152.322431 
" clip-path="url(#p91323e6198)" style="fill: none; stroke-dasharray: 1.85,0.8; stroke-dashoffset: 0; stroke: #b0b0b0; stroke-width: 0.5"/>
     </g>
     <g id="line2d_24">
      <g>
       <use xlink:href="#mcfc2609421" x="57.6" y="152.322431" style="stroke: #000000; stroke-width: 0.8"/>
      </g>
     </g>
     <g id="text_13">
      <!-- 8 -->
      <g transform="translate(44.2375 156.121649) scale(0.1 -0.1)">
       <use xlink:href="#DejaVuSans-38"/>
      </g>
     </g>
    </g>
    <g id="ytick_6">
     <g id="line2d_25">
      <path d="M 57.6 116.531038 
L 414.72 116.531038 
" clip-path="url(#p91323e6198)" style="fill: none; stroke-dasharray: 1.85,0.8; stroke-dashoffset: 0; stroke: #b0b0b0; stroke-width: 0.5"/>
     </g>
     <g id="line2d_26">
      <g>
       <use xlink:href="#mcfc2609421" x="57.6" y="116.531038" style="stroke: #000000; stroke-width: 0.8"/>
      </g>
     </g>
     <g id="text_14">
      <!-- 10 -->
      <g transform="translate(37.875 120.330257) scale(0.1 -0.1)">
       <use xlink:href="#DejaVuSans-31"/>
       <use xlink:href="#DejaVuSans-30" x="63.623047"/>
      </g>
     </g>
    </g>
    <g id="ytick_7">
     <g id="line2d_27">
      <path d="M 57.6 80.739646 
L 414.72 80.739646 
" clip-path="url(#p91323e6198)" style="fill: none; stroke-dasharray: 1.85,0.8; stroke-dashoffset: 0; stroke: #b0b0b0; stroke-width: 0.5"/>
     </g>
     <g id="line2d_28">
      <g>
       <use xlink:href="#mcfc2609421" x="57.6" y="80.739646" style="stroke: #000000; stroke-width: 0.8"/>
      </g>
     </g>
     <g id="text_15">
      <!-- 12 -->
      <g transform="translate(37.875 84.538865) scale(0.1 -0.1)">
       <use xlink:href="#DejaVuSans-31"/>
       <use xlink:href="#DejaVuSans-32" x="63.623047"/>
      </g>
     </g>
    </g>
    <g id="ytick_8">
     <g id="line2d_29">
      <path d="M 57.6 44.948254 
L 414.72 44.948254 
" clip-path="url(#p91323e6198)" style="fill: none; stroke-dasharray: 1.85,0.8; stroke-dashoffset: 0; stroke: #b0b0b0; stroke-width: 0.5"/>
     </g>
     <g id="line2d_30">
      <g>
       <use xlink:href="#mcfc2609421" x="57.6" y="44.948254" style="stroke: #000000; stroke-width: 0.8"/>
      </g>
     </g>
     <g id="text_16">
      <!-- 14 -->
      <g transform="translate(37.875 48.747472) scale(0.1 -0.1)">
       <use xlink:href="#DejaVuSans-31"/>
       <use xlink:href="#DejaVuSans-34" x="63.623047"/>
      </g>
     </g>
    </g>
    <g id="text_17">
     <!-- Frequency -->
     <g transform="translate(31.795312 200.357687) rotate(-90) scale(0.1 -0.1)">
      <defs>
       <path id="DejaVuSans-46" d="M 628 4666 
L 3309 4666 
L 3309 4134 
L 1259 4134 
L 1259 2759 
L 3109 2759 
L 3109 2228 
L 1259 2228 
L 1259 0 
L 628 0 
L 628 4666 
z
" transform="scale(0.015625)"/>
       <path id="DejaVuSans-72" d="M 2631 2963 
Q 2534 3019 2420 3045 
Q 2306 3072 2169 3072 
Q 1681 3072 1420 2755 
Q 1159 2438 1159 1844 
L 1159 0 
L 581 0 
L 581 3500 
L 1159 3500 
L 1159 2956 
Q 1341 3275 1631 3429 
Q 1922 3584 2338 3584 
Q 2397 3584 2469 3576 
Q 2541 3569 2628 3553 
L 2631 2963 
z
" transform="scale(0.015625)"/>
       <path id="DejaVuSans-71" d="M 947 1747 
Q 947 1113 1208 752 
Q 1469 391 1925 391 
Q 2381 391 2643 752 
Q 2906 1113 2906 1747 
Q 2906 2381 2643 2742 
Q 2381 3103 1925 3103 
Q 1469 3103 1208 2742 
Q 947 2381 947 1747 
z
M 2906 525 
Q 2725 213 2448 61 
Q 2172 -91 1784 -91 
Q 1150 -91 751 415 
Q 353 922 353 1747 
Q 353 2572 751 3078 
Q 1150 3584 1784 3584 
Q 2172 3584 2448 3432 
Q 2725 3281 2906 2969 
L 2906 3500 
L 3481 3500 
L 3481 -1331 
L 2906 -1331 
L 2906 525 
z
" transform="scale(0.015625)"/>
       <path id="DejaVuSans-6e" d="M 3513 2113 
L 3513 0 
L 2938 0 
L 2938 2094 
Q 2938 2591 2744 2837 
Q 2550 3084 2163 3084 
Q 1697 3084 1428 2787 
Q 1159 2491 1159 1978 
L 1159 0 
L 581 0 
L 581 3500 
L 1159 3500 
L 1159 2956 
Q 1366 3272 1645 3428 
Q 1925 3584 2291 3584 
Q 2894 3584 3203 3211 
Q 3513 2838 3513 2113 
z
" transform="scale(0.015625)"/>
       <path id="DejaVuSans-63" d="M 3122 3366 
L 3122 2828 
Q 2878 2963 2633 3030 
Q 2388 3097 2138 3097 
Q 1578 3097 1268 2742 
Q 959 2388 959 1747 
Q 959 1106 1268 751 
Q 1578 397 2138 397 
Q 2388 397 2633 464 
Q 2878 531 3122 666 
L 3122 134 
Q 2881 22 2623 -34 
Q 2366 -91 2075 -91 
Q 1284 -91 818 406 
Q 353 903 353 1747 
Q 353 2603 823 3093 
Q 1294 3584 2113 3584 
Q 2378 3584 2631 3529 
Q 2884 3475 3122 3366 
z
" transform="scale(0.015625)"/>
       <path id="DejaVuSans-79" d="M 2059 -325 
Q 1816 -950 1584 -1140 
Q 1353 -1331 966 -1331 
L 506 -1331 
L 506 -850 
L 844 -850 
Q 1081 -850 1212 -737 
Q 1344 -625 1503 -206 
L 1606 56 
L 191 3500 
L 800 3500 
L 1894 763 
L 2988 3500 
L 3597 3500 
L 2059 -325 
z
" transform="scale(0.015625)"/>
      </defs>
      <use xlink:href="#DejaVuSans-46"/>
      <use xlink:href="#DejaVuSans-72" x="50.269531"/>
      <use xlink:href="#DejaVuSans-65" x="89.132812"/>
      <use xlink:href="#DejaVuSans-71" x="150.65625"/>
      <use xlink:href="#DejaVuSans-75" x="214.132812"/>
      <use xlink:href="#DejaVuSans-65" x="277.511719"/>
      <use xlink:href="#DejaVuSans-6e" x="339.035156"/>
      <use xlink:href="#DejaVuSans-63" x="402.414062"/>
      <use xlink:href="#DejaVuSans-79" x="457.394531"/>
     </g>
    </g>
   </g>
   <g id="line2d_31">
    <path d="M 73.832727 290.600806 
L 74.907742 287.579649 
L 75.982757 283.139481 
L 77.057772 276.881797 
L 78.132787 268.433929 
L 79.207803 257.524394 
L 80.282818 244.071098 
L 81.357833 228.265312 
L 85.657893 156.474996 
L 86.732908 141.97964 
L 87.807923 130.948542 
L 88.882938 123.785861 
L 89.957953 120.298095 
L 91.032968 119.698656 
L 92.107983 120.74388 
L 93.182998 121.981549 
L 94.258013 122.062792 
L 95.333028 120.048625 
L 96.408043 115.639439 
L 97.483058 109.271037 
L 99.633089 95.547081 
L 100.708104 91.473735 
L 101.783119 91.348869 
L 102.858134 96.196298 
L 103.933149 106.358043 
L 105.008164 121.450661 
L 106.083179 140.46408 
L 110.383239 226.17123 
L 111.458254 243.529608 
L 112.533269 257.849637 
L 113.608284 269.091402 
L 114.683299 277.48498 
L 115.758314 283.421701 
L 116.833329 287.355644 
L 117.908344 289.730168 
L 118.983359 290.934408 
L 120.058374 291.286915 
L 121.13339 291.039077 
L 122.208405 290.389434 
L 124.358435 288.514112 
L 126.508465 286.739726 
L 127.58348 286.158712 
L 128.658495 285.880156 
L 129.73351 285.937257 
L 130.808525 286.325948 
L 131.88354 287.006828 
L 134.03357 288.958901 
L 137.258615 292.114515 
L 138.33363 292.967692 
L 139.408645 293.671171 
L 140.48366 294.224239 
L 142.633691 294.938578 
L 144.783721 295.280663 
L 148.008766 295.450332 
L 156.608886 295.484889 
L 388.812137 295.394569 
L 398.487273 295.243717 
L 398.487273 295.243717 
" clip-path="url(#p91323e6198)" style="fill: none; stroke: #1f77b4; stroke-width: 1.5; stroke-linecap: square"/>
   </g>
   <g id="line2d_32">
    <path d="M 73.832727 291.057731 
L 74.907742 288.31899 
L 75.982757 284.293822 
L 77.057772 278.620855 
L 78.132787 270.962013 
L 79.207803 261.070683 
L 80.282818 248.871476 
L 81.357833 234.536005 
L 83.507863 201.633749 
L 85.657893 169.293453 
L 86.732908 156.026778 
L 87.807923 145.829517 
L 88.882938 139.040661 
L 89.957953 135.45397 
L 91.032968 134.325568 
L 93.182998 134.655177 
L 94.258013 133.566805 
L 95.333028 130.418114 
L 96.408043 124.998259 
L 99.633089 102.883535 
L 100.708104 98.382247 
L 101.783119 97.860126 
L 102.858134 102.287844 
L 103.933149 111.971814 
L 105.008164 126.51518 
L 106.083179 144.915729 
L 110.383239 228.090171 
L 111.458254 244.930087 
L 112.533269 258.800227 
L 113.608284 269.650974 
L 114.683299 277.692518 
L 115.758314 283.289187 
L 116.833329 286.864604 
L 117.908344 288.832251 
L 118.983359 289.556239 
L 120.058374 289.339317 
L 121.13339 288.430295 
L 122.208405 287.04134 
L 126.508465 280.475193 
L 127.58348 279.454954 
L 128.658495 278.950851 
L 129.73351 279.014603 
L 130.808525 279.635248 
L 131.88354 280.742157 
L 132.958555 282.217823 
L 137.258615 288.973559 
L 138.33363 290.316017 
L 139.408645 291.416074 
L 140.48366 292.282105 
L 141.558675 292.944052 
L 143.708706 293.819343 
L 145.858736 294.345276 
L 149.083781 294.850484 
L 152.308826 295.152687 
L 156.608886 295.318621 
L 164.133992 295.329788 
L 172.734112 295.338214 
L 186.709308 295.485179 
L 201.759518 295.389814 
L 211.434654 295.268251 
L 230.784925 295.487195 
L 283.460662 295.392193 
L 295.285828 295.413643 
L 309.261023 295.487068 
L 380.212017 295.398016 
L 392.037182 295.430744 
L 398.487273 295.449715 
L 398.487273 295.449715 
" clip-path="url(#p91323e6198)" style="fill: none; stroke: #ff7f0e; stroke-width: 1.5; stroke-linecap: square"/>
   </g>
   <g id="line2d_33">
    <path d="M 73.832727 291.25733 
L 74.907742 288.641905 
L 75.982757 284.797861 
L 77.057772 279.379903 
L 78.132787 272.064749 
L 79.207803 262.616028 
L 80.282818 250.96008 
L 81.357833 237.257759 
L 83.507863 205.768867 
L 85.657893 174.673738 
L 86.732908 161.788314 
L 87.807923 151.71265 
L 88.882938 144.723624 
L 89.957953 140.571559 
L 91.032968 138.49336 
L 92.107983 137.344457 
L 93.182998 135.832169 
L 94.258013 132.805235 
L 95.333028 127.535735 
L 96.408043 119.926236 
L 99.633089 92.135556 
L 100.708104 86.45373 
L 101.783119 85.25579 
L 102.858134 89.541594 
L 103.933149 99.597743 
L 105.008164 114.961401 
L 106.083179 134.528236 
L 110.383239 223.411387 
L 111.458254 241.453905 
L 112.533269 256.341188 
L 113.608284 268.028658 
L 114.683299 276.753715 
L 115.758314 282.922087 
L 116.833329 287.005073 
L 117.908344 289.462991 
L 118.983359 290.699898 
L 120.058374 291.046614 
L 121.13339 290.764297 
L 122.208405 290.059299 
L 124.358435 288.035032 
L 126.508465 286.088266 
L 127.58348 285.415305 
L 128.658495 285.036779 
L 129.73351 284.978442 
L 130.808525 285.225909 
L 131.88354 285.72817 
L 134.03357 287.173457 
L 136.1836 288.637069 
L 138.33363 289.688662 
L 140.48366 290.333377 
L 143.708706 291.167354 
L 145.858736 291.942005 
L 150.158796 293.698017 
L 152.308826 294.344554 
L 154.458856 294.75496 
L 157.683901 295.053405 
L 161.983961 295.177051 
L 179.184202 295.380155 
L 191.009368 295.434 
L 244.76012 295.471933 
L 378.061987 295.432073 
L 388.812137 295.432371 
L 398.487273 295.484934 
L 398.487273 295.484934 
" clip-path="url(#p91323e6198)" style="fill: none; stroke: #2ca02c; stroke-width: 1.5; stroke-linecap: square"/>
   </g>
   <g id="line2d_34">
    <path d="M 73.832727 288.371256 
L 74.907742 283.972309 
L 75.982757 277.507939 
L 77.057772 268.399137 
L 78.132787 256.105969 
L 79.207803 240.238591 
L 80.282818 220.687953 
L 81.357833 197.751687 
L 85.657893 94.981225 
L 86.732908 75.23769 
L 87.807923 61.303959 
L 88.882938 54.063846 
L 89.957953 53.568 
L 91.032968 59.003447 
L 92.107983 68.834157 
L 95.333028 105.069621 
L 96.408043 113.99264 
L 97.483058 120.192042 
L 98.558073 124.11501 
L 100.708104 129.588199 
L 101.783119 133.81554 
L 102.858134 140.51208 
L 103.933149 150.214223 
L 105.008164 162.893206 
L 107.158194 194.656226 
L 109.308224 228.296666 
L 110.383239 243.392734 
L 111.458254 256.473766 
L 112.533269 267.258174 
L 113.608284 275.730319 
L 114.683299 282.073078 
L 115.758314 286.588413 
L 116.833329 289.624448 
L 117.908344 291.520402 
L 118.983359 292.573308 
L 120.058374 293.024625 
L 121.13339 293.061525 
L 122.208405 292.826528 
L 124.358435 291.960113 
L 126.508465 291.087452 
L 127.58348 290.797621 
L 128.658495 290.657529 
L 129.73351 290.684551 
L 130.808525 290.876875 
L 132.958555 291.664247 
L 138.33363 294.162515 
L 140.48366 294.778259 
L 142.633691 295.127126 
L 145.858736 295.334698 
L 151.233811 295.363105 
L 160.908946 295.395381 
L 173.809127 295.48708 
L 389.887152 295.463355 
L 398.487273 295.437784 
L 398.487273 295.437784 
" clip-path="url(#p91323e6198)" style="fill: none; stroke: #d62728; stroke-width: 1.5; stroke-linecap: square"/>
   </g>
   <g id="patch_3">
    <path d="M 57.6 307.584 
L 57.6 41.472 
" style="fill: none; stroke: #000000; stroke-width: 0.8; stroke-linejoin: miter; stroke-linecap: square"/>
   </g>
   <g id="patch_4">
    <path d="M 414.72 307.584 
L 414.72 41.472 
" style="fill: none; stroke: #000000; stroke-width: 0.8; stroke-linejoin: miter; stroke-linecap: square"/>
   </g>
   <g id="patch_5">
    <path d="M 57.6 307.584 
L 414.72 307.584 
" style="fill: none; stroke: #000000; stroke-width: 0.8; stroke-linejoin: miter; stroke-linecap: square"/>
   </g>
   <g id="patch_6">
    <path d="M 57.6 41.472 
L 414.72 41.472 
" style="fill: none; stroke: #000000; stroke-width: 0.8; stroke-linejoin: miter; stroke-linecap: square"/>
   </g>
   <g id="text_18">
    <!-- AD - xtract_prob_Corticospinal_Tract_L -->
    <g transform="translate(121.155938 35.472) scale(0.12 -0.12)">
     <defs>
      <path id="DejaVuSans-41" d="M 2188 4044 
L 1331 1722 
L 3047 1722 
L 2188 4044 
z
M 1831 4666 
L 2547 4666 
L 4325 0 
L 3669 0 
L 3244 1197 
L 1141 1197 
L 716 0 
L 50 0 
L 1831 4666 
z
" transform="scale(0.015625)"/>
      <path id="DejaVuSans-44" d="M 1259 4147 
L 1259 519 
L 2022 519 
Q 2988 519 3436 956 
Q 3884 1394 3884 2338 
Q 3884 3275 3436 3711 
Q 2988 4147 2022 4147 
L 1259 4147 
z
M 628 4666 
L 1925 4666 
Q 3281 4666 3915 4102 
Q 4550 3538 4550 2338 
Q 4550 1131 3912 565 
Q 3275 0 1925 0 
L 628 0 
L 628 4666 
z
" transform="scale(0.015625)"/>
      <path id="DejaVuSans-2d" d="M 313 2009 
L 1997 2009 
L 1997 1497 
L 313 1497 
L 313 2009 
z
" transform="scale(0.015625)"/>
      <path id="DejaVuSans-74" d="M 1172 4494 
L 1172 3500 
L 2356 3500 
L 2356 3053 
L 1172 3053 
L 1172 1153 
Q 1172 725 1289 603 
Q 1406 481 1766 481 
L 2356 481 
L 2356 0 
L 1766 0 
Q 1100 0 847 248 
Q 594 497 594 1153 
L 594 3053 
L 172 3053 
L 172 3500 
L 594 3500 
L 594 4494 
L 1172 4494 
z
" transform="scale(0.015625)"/>
      <path id="DejaVuSans-5f" d="M 3263 -1063 
L 3263 -1509 
L -63 -1509 
L -63 -1063 
L 3263 -1063 
z
" transform="scale(0.015625)"/>
      <path id="DejaVuSans-70" d="M 1159 525 
L 1159 -1331 
L 581 -1331 
L 581 3500 
L 1159 3500 
L 1159 2969 
Q 1341 3281 1617 3432 
Q 1894 3584 2278 3584 
Q 2916 3584 3314 3078 
Q 3713 2572 3713 1747 
Q 3713 922 3314 415 
Q 2916 -91 2278 -91 
Q 1894 -91 1617 61 
Q 1341 213 1159 525 
z
M 3116 1747 
Q 3116 2381 2855 2742 
Q 2594 3103 2138 3103 
Q 1681 3103 1420 2742 
Q 1159 2381 1159 1747 
Q 1159 1113 1420 752 
Q 1681 391 2138 391 
Q 2594 391 2855 752 
Q 3116 1113 3116 1747 
z
" transform="scale(0.015625)"/>
      <path id="DejaVuSans-6f" d="M 1959 3097 
Q 1497 3097 1228 2736 
Q 959 2375 959 1747 
Q 959 1119 1226 758 
Q 1494 397 1959 397 
Q 2419 397 2687 759 
Q 2956 1122 2956 1747 
Q 2956 2369 2687 2733 
Q 2419 3097 1959 3097 
z
M 1959 3584 
Q 2709 3584 3137 3096 
Q 3566 2609 3566 1747 
Q 3566 888 3137 398 
Q 2709 -91 1959 -91 
Q 1206 -91 779 398 
Q 353 888 353 1747 
Q 353 2609 779 3096 
Q 1206 3584 1959 3584 
z
" transform="scale(0.015625)"/>
      <path id="DejaVuSans-62" d="M 3116 1747 
Q 3116 2381 2855 2742 
Q 2594 3103 2138 3103 
Q 1681 3103 1420 2742 
Q 1159 2381 1159 1747 
Q 1159 1113 1420 752 
Q 1681 391 2138 391 
Q 2594 391 2855 752 
Q 3116 1113 3116 1747 
z
M 1159 2969 
Q 1341 3281 1617 3432 
Q 1894 3584 2278 3584 
Q 2916 3584 3314 3078 
Q 3713 2572 3713 1747 
Q 3713 922 3314 415 
Q 2916 -91 2278 -91 
Q 1894 -91 1617 61 
Q 1341 213 1159 525 
L 1159 0 
L 581 0 
L 581 4863 
L 1159 4863 
L 1159 2969 
z
" transform="scale(0.015625)"/>
      <path id="DejaVuSans-43" d="M 4122 4306 
L 4122 3641 
Q 3803 3938 3442 4084 
Q 3081 4231 2675 4231 
Q 1875 4231 1450 3742 
Q 1025 3253 1025 2328 
Q 1025 1406 1450 917 
Q 1875 428 2675 428 
Q 3081 428 3442 575 
Q 3803 722 4122 1019 
L 4122 359 
Q 3791 134 3420 21 
Q 3050 -91 2638 -91 
Q 1578 -91 968 557 
Q 359 1206 359 2328 
Q 359 3453 968 4101 
Q 1578 4750 2638 4750 
Q 3056 4750 3426 4639 
Q 3797 4528 4122 4306 
z
" transform="scale(0.015625)"/>
      <path id="DejaVuSans-54" d="M -19 4666 
L 3928 4666 
L 3928 4134 
L 2272 4134 
L 2272 0 
L 1638 0 
L 1638 4134 
L -19 4134 
L -19 4666 
z
" transform="scale(0.015625)"/>
      <path id="DejaVuSans-4c" d="M 628 4666 
L 1259 4666 
L 1259 531 
L 3531 531 
L 3531 0 
L 628 0 
L 628 4666 
z
" transform="scale(0.015625)"/>
     </defs>
     <use xlink:href="#DejaVuSans-41"/>
     <use xlink:href="#DejaVuSans-44" x="68.408203"/>
     <use xlink:href="#DejaVuSans-20" x="145.410156"/>
     <use xlink:href="#DejaVuSans-2d" x="177.197266"/>
     <use xlink:href="#DejaVuSans-20" x="213.28125"/>
     <use xlink:href="#DejaVuSans-78" x="245.068359"/>
     <use xlink:href="#DejaVuSans-74" x="304.248047"/>
     <use xlink:href="#DejaVuSans-72" x="343.457031"/>
     <use xlink:href="#DejaVuSans-61" x="384.570312"/>
     <use xlink:href="#DejaVuSans-63" x="445.849609"/>
     <use xlink:href="#DejaVuSans-74" x="500.830078"/>
     <use xlink:href="#DejaVuSans-5f" x="540.039062"/>
     <use xlink:href="#DejaVuSans-70" x="590.039062"/>
     <use xlink:href="#DejaVuSans-72" x="653.515625"/>
     <use xlink:href="#DejaVuSans-6f" x="692.378906"/>
     <use xlink:href="#DejaVuSans-62" x="753.560547"/>
     <use xlink:href="#DejaVuSans-5f" x="817.037109"/>
     <use xlink:href="#DejaVuSans-43" x="867.037109"/>
     <use xlink:href="#DejaVuSans-6f" x="936.861328"/>
     <use xlink:href="#DejaVuSans-72" x="998.042969"/>
     <use xlink:href="#DejaVuSans-74" x="1039.15625"/>
     <use xlink:href="#DejaVuSans-69" x="1078.365234"/>
     <use xlink:href="#DejaVuSans-63" x="1106.148438"/>
     <use xlink:href="#DejaVuSans-6f" x="1161.128906"/>
     <use xlink:href="#DejaVuSans-73" x="1222.310547"/>
     <use xlink:href="#DejaVuSans-70" x="1274.410156"/>
     <use xlink:href="#DejaVuSans-69" x="1337.886719"/>
     <use xlink:href="#DejaVuSans-6e" x="1365.669922"/>
     <use xlink:href="#DejaVuSans-61" x="1429.048828"/>
     <use xlink:href="#DejaVuSans-6c" x="1490.328125"/>
     <use xlink:href="#DejaVuSans-5f" x="1518.111328"/>
     <use xlink:href="#DejaVuSans-54" x="1568.111328"/>
     <use xlink:href="#DejaVuSans-72" x="1614.445312"/>
     <use xlink:href="#DejaVuSans-61" x="1655.558594"/>
     <use xlink:href="#DejaVuSans-63" x="1716.837891"/>
     <use xlink:href="#DejaVuSans-74" x="1771.818359"/>
     <use xlink:href="#DejaVuSans-5f" x="1811.027344"/>
     <use xlink:href="#DejaVuSans-4c" x="1861.027344"/>
    </g>
   </g>
   <g id="legend_1">
    <g id="patch_7">
     <path d="M 190.72 109.297 
L 407.72 109.297 
Q 409.72 109.297 409.72 107.297 
L 409.72 48.472 
Q 409.72 46.472 407.72 46.472 
L 190.72 46.472 
Q 188.72 46.472 188.72 48.472 
L 188.72 107.297 
Q 188.72 109.297 190.72 109.297 
z
" style="fill: #ffffff; opacity: 0.8; stroke: #cccccc; stroke-linejoin: miter"/>
    </g>
    <g id="line2d_35">
     <path d="M 192.72 54.570437 
L 202.72 54.570437 
L 212.72 54.570437 
" style="fill: none; stroke: #1f77b4; stroke-width: 1.5; stroke-linecap: square"/>
    </g>
    <g id="text_19">
     <!-- 20_01_01_E0[1.0000000000000002] -->
     <g transform="translate(220.72 58.070437) scale(0.1 -0.1)">
      <defs>
       <path id="DejaVuSans-45" d="M 628 4666 
L 3578 4666 
L 3578 4134 
L 1259 4134 
L 1259 2753 
L 3481 2753 
L 3481 2222 
L 1259 2222 
L 1259 531 
L 3634 531 
L 3634 0 
L 628 0 
L 628 4666 
z
" transform="scale(0.015625)"/>
       <path id="DejaVuSans-5b" d="M 550 4863 
L 1875 4863 
L 1875 4416 
L 1125 4416 
L 1125 -397 
L 1875 -397 
L 1875 -844 
L 550 -844 
L 550 4863 
z
" transform="scale(0.015625)"/>
       <path id="DejaVuSans-5d" d="M 1947 4863 
L 1947 -844 
L 622 -844 
L 622 -397 
L 1369 -397 
L 1369 4416 
L 622 4416 
L 622 4863 
L 1947 4863 
z
" transform="scale(0.015625)"/>
      </defs>
      <use xlink:href="#DejaVuSans-32"/>
      <use xlink:href="#DejaVuSans-30" x="63.623047"/>
      <use xlink:href="#DejaVuSans-5f" x="127.246094"/>
      <use xlink:href="#DejaVuSans-30" x="177.246094"/>
      <use xlink:href="#DejaVuSans-31" x="240.869141"/>
      <use xlink:href="#DejaVuSans-5f" x="304.492188"/>
      <use xlink:href="#DejaVuSans-30" x="354.492188"/>
      <use xlink:href="#DejaVuSans-31" x="418.115234"/>
      <use xlink:href="#DejaVuSans-5f" x="481.738281"/>
      <use xlink:href="#DejaVuSans-45" x="531.738281"/>
      <use xlink:href="#DejaVuSans-30" x="594.921875"/>
      <use xlink:href="#DejaVuSans-5b" x="658.544922"/>
      <use xlink:href="#DejaVuSans-31" x="697.558594"/>
      <use xlink:href="#DejaVuSans-2e" x="761.181641"/>
      <use xlink:href="#DejaVuSans-30" x="792.96875"/>
      <use xlink:href="#DejaVuSans-30" x="856.591797"/>
      <use xlink:href="#DejaVuSans-30" x="920.214844"/>
      <use xlink:href="#DejaVuSans-30" x="983.837891"/>
      <use xlink:href="#DejaVuSans-30" x="1047.460938"/>
      <use xlink:href="#DejaVuSans-30" x="1111.083984"/>
      <use xlink:href="#DejaVuSans-30" x="1174.707031"/>
      <use xlink:href="#DejaVuSans-30" x="1238.330078"/>
      <use xlink:href="#DejaVuSans-30" x="1301.953125"/>
      <use xlink:href="#DejaVuSans-30" x="1365.576172"/>
      <use xlink:href="#DejaVuSans-30" x="1429.199219"/>
      <use xlink:href="#DejaVuSans-30" x="1492.822266"/>
      <use xlink:href="#DejaVuSans-30" x="1556.445312"/>
      <use xlink:href="#DejaVuSans-30" x="1620.068359"/>
      <use xlink:href="#DejaVuSans-30" x="1683.691406"/>
      <use xlink:href="#DejaVuSans-32" x="1747.314453"/>
      <use xlink:href="#DejaVuSans-5d" x="1810.9375"/>
     </g>
    </g>
    <g id="line2d_36">
     <path d="M 192.72 69.526687 
L 202.72 69.526687 
L 212.72 69.526687 
" style="fill: none; stroke: #ff7f0e; stroke-width: 1.5; stroke-linecap: square"/>
    </g>
    <g id="text_20">
     <!-- 20_01_01_E1[1.0] -->
     <g transform="translate(220.72 73.026687) scale(0.1 -0.1)">
      <use xlink:href="#DejaVuSans-32"/>
      <use xlink:href="#DejaVuSans-30" x="63.623047"/>
      <use xlink:href="#DejaVuSans-5f" x="127.246094"/>
      <use xlink:href="#DejaVuSans-30" x="177.246094"/>
      <use xlink:href="#DejaVuSans-31" x="240.869141"/>
      <use xlink:href="#DejaVuSans-5f" x="304.492188"/>
      <use xlink:href="#DejaVuSans-30" x="354.492188"/>
      <use xlink:href="#DejaVuSans-31" x="418.115234"/>
      <use xlink:href="#DejaVuSans-5f" x="481.738281"/>
      <use xlink:href="#DejaVuSans-45" x="531.738281"/>
      <use xlink:href="#DejaVuSans-31" x="594.921875"/>
      <use xlink:href="#DejaVuSans-5b" x="658.544922"/>
      <use xlink:href="#DejaVuSans-31" x="697.558594"/>
      <use xlink:href="#DejaVuSans-2e" x="761.181641"/>
      <use xlink:href="#DejaVuSans-30" x="792.96875"/>
      <use xlink:href="#DejaVuSans-5d" x="856.591797"/>
     </g>
    </g>
    <g id="line2d_37">
     <path d="M 192.72 84.482937 
L 202.72 84.482937 
L 212.72 84.482937 
" style="fill: none; stroke: #2ca02c; stroke-width: 1.5; stroke-linecap: square"/>
    </g>
    <g id="text_21">
     <!-- 20_01_01_E2[1.0] -->
     <g transform="translate(220.72 87.982937) scale(0.1 -0.1)">
      <use xlink:href="#DejaVuSans-32"/>
      <use xlink:href="#DejaVuSans-30" x="63.623047"/>
      <use xlink:href="#DejaVuSans-5f" x="127.246094"/>
      <use xlink:href="#DejaVuSans-30" x="177.246094"/>
      <use xlink:href="#DejaVuSans-31" x="240.869141"/>
      <use xlink:href="#DejaVuSans-5f" x="304.492188"/>
      <use xlink:href="#DejaVuSans-30" x="354.492188"/>
      <use xlink:href="#DejaVuSans-31" x="418.115234"/>
      <use xlink:href="#DejaVuSans-5f" x="481.738281"/>
      <use xlink:href="#DejaVuSans-45" x="531.738281"/>
      <use xlink:href="#DejaVuSans-32" x="594.921875"/>
      <use xlink:href="#DejaVuSans-5b" x="658.544922"/>
      <use xlink:href="#DejaVuSans-31" x="697.558594"/>
      <use xlink:href="#DejaVuSans-2e" x="761.181641"/>
      <use xlink:href="#DejaVuSans-30" x="792.96875"/>
      <use xlink:href="#DejaVuSans-5d" x="856.591797"/>
     </g>
    </g>
    <g id="line2d_38">
     <path d="M 192.72 99.439187 
L 202.72 99.439187 
L 212.72 99.439187 
" style="fill: none; stroke: #d62728; stroke-width: 1.5; stroke-linecap: square"/>
    </g>
    <g id="text_22">
     <!-- 20_11_02_E1[1.0] -->
     <g transform="translate(220.72 102.939187) scale(0.1 -0.1)">
      <use xlink:href="#DejaVuSans-32"/>
      <use xlink:href="#DejaVuSans-30" x="63.623047"/>
      <use xlink:href="#DejaVuSans-5f" x="127.246094"/>
      <use xlink:href="#DejaVuSans-31" x="177.246094"/>
      <use xlink:href="#DejaVuSans-31" x="240.869141"/>
      <use xlink:href="#DejaVuSans-5f" x="304.492188"/>
      <use xlink:href="#DejaVuSans-30" x="354.492188"/>
      <use xlink:href="#DejaVuSans-32" x="418.115234"/>
      <use xlink:href="#DejaVuSans-5f" x="481.738281"/>
      <use xlink:href="#DejaVuSans-45" x="531.738281"/>
      <use xlink:href="#DejaVuSans-31" x="594.921875"/>
      <use xlink:href="#DejaVuSans-5b" x="658.544922"/>
      <use xlink:href="#DejaVuSans-31" x="697.558594"/>
      <use xlink:href="#DejaVuSans-2e" x="761.181641"/>
      <use xlink:href="#DejaVuSans-30" x="792.96875"/>
      <use xlink:href="#DejaVuSans-5d" x="856.591797"/>
     </g>
    </g>
   </g>
  </g>
 </g>
 <defs>
  <clipPath id="p91323e6198">
   <rect x="57.6" y="41.472" width="357.12" height="266.112"/>
  </clipPath>
 </defs>
</svg>
