<?xml version="1.0" encoding="utf-8" standalone="no"?>
<!DOCTYPE svg PUBLIC "-//W3C//DTD SVG 1.1//EN"
  "http://www.w3.org/Graphics/SVG/1.1/DTD/svg11.dtd">
<svg xmlns:xlink="http://www.w3.org/1999/xlink" width="557.032pt" height="325.986375pt" viewBox="0 0 557.032 325.986375" xmlns="http://www.w3.org/2000/svg" version="1.1">
 <metadata>
  <rdf:RDF xmlns:dc="http://purl.org/dc/elements/1.1/" xmlns:cc="http://creativecommons.org/ns#" xmlns:rdf="http://www.w3.org/1999/02/22-rdf-syntax-ns#">
   <cc:Work>
    <dc:type rdf:resource="http://purl.org/dc/dcmitype/StillImage"/>
    <dc:date>2023-02-07T23:00:04.029090</dc:date>
    <dc:format>image/svg+xml</dc:format>
    <dc:creator>
     <cc:Agent>
      <dc:title>Matplotlib v3.6.2, https://matplotlib.org/</dc:title>
     </cc:Agent>
    </dc:creator>
   </cc:Work>
  </rdf:RDF>
 </metadata>
 <defs>
  <style type="text/css">*{stroke-linejoin: round; stroke-linecap: butt}</style>
 </defs>
 <g id="figure_1">
  <g id="patch_1">
   <path d="M 0 325.986375 
L 557.032 325.986375 
L 557.032 0 
L 0 0 
z
" style="fill: #ffffff"/>
  </g>
  <g id="axes_1">
   <g id="patch_2">
    <path d="M 50.14375 288.430125 
L 407.26375 288.430125 
L 407.26375 22.318125 
L 50.14375 22.318125 
z
" style="fill: #ffffff"/>
   </g>
   <g id="PolyCollection_1">
    <path d="M 66.376477 202.498291 
L 66.376477 241.002868 
L 69.655816 241.002868 
L 72.935155 241.002868 
L 76.214494 241.002868 
L 79.493833 241.002868 
L 82.773171 241.002868 
L 86.05251 241.002868 
L 89.331849 241.002868 
L 92.611188 241.002868 
L 95.890527 241.002868 
L 99.169866 241.002868 
L 102.449205 241.002868 
L 105.728543 241.002868 
L 109.007882 241.002868 
L 112.287221 241.002868 
L 115.56656 241.002868 
L 118.845899 241.002868 
L 122.125238 241.002868 
L 125.404576 241.002868 
L 128.683915 241.002868 
L 131.963254 241.002868 
L 135.242593 241.002868 
L 138.521932 241.002868 
L 141.801271 241.002868 
L 145.08061 241.002868 
L 148.359948 241.002868 
L 151.639287 241.002868 
L 154.918626 241.002868 
L 158.197965 241.002868 
L 161.477304 241.002868 
L 164.756643 241.002868 
L 168.035981 241.002868 
L 171.31532 241.002868 
L 174.594659 241.002868 
L 177.873998 241.002868 
L 181.153337 241.002868 
L 184.432676 241.002868 
L 187.712014 241.002868 
L 190.991353 241.002868 
L 194.270692 241.002868 
L 197.550031 241.002868 
L 200.82937 241.002868 
L 204.108709 241.002868 
L 207.388048 241.002868 
L 210.667386 241.002868 
L 213.946725 241.002868 
L 217.226064 241.002868 
L 220.505403 241.002868 
L 223.784742 241.002868 
L 227.064081 241.002868 
L 230.343419 241.002868 
L 233.622758 241.002868 
L 236.902097 241.002868 
L 240.181436 241.002868 
L 243.460775 241.002868 
L 246.740114 241.002868 
L 250.019452 241.002868 
L 253.298791 241.002868 
L 256.57813 241.002868 
L 259.857469 241.002868 
L 263.136808 241.002868 
L 266.416147 241.002868 
L 269.695486 241.002868 
L 272.974824 241.002868 
L 276.254163 241.002868 
L 279.533502 241.002868 
L 282.812841 241.002868 
L 286.09218 241.002868 
L 289.371519 241.002868 
L 292.650857 241.002868 
L 295.930196 241.002868 
L 299.209535 241.002868 
L 302.488874 241.002868 
L 305.768213 241.002868 
L 309.047552 241.002868 
L 312.32689 241.002868 
L 315.606229 241.002868 
L 318.885568 241.002868 
L 322.164907 241.002868 
L 325.444246 241.002868 
L 328.723585 241.002868 
L 332.002924 241.002868 
L 335.282262 241.002868 
L 338.561601 241.002868 
L 341.84094 241.002868 
L 345.120279 241.002868 
L 348.399618 241.002868 
L 351.678957 241.002868 
L 354.958295 241.002868 
L 358.237634 241.002868 
L 361.516973 241.002868 
L 364.796312 241.002868 
L 368.075651 241.002868 
L 371.35499 241.002868 
L 374.634329 241.002868 
L 377.913667 241.002868 
L 381.193006 241.002868 
L 384.472345 241.002868 
L 387.751684 241.002868 
L 391.031023 241.002868 
L 391.031023 259.095532 
L 391.031023 259.095532 
L 387.751684 236.787276 
L 384.472345 227.962099 
L 381.193006 227.373127 
L 377.913667 231.222773 
L 374.634329 236.867087 
L 371.35499 242.565046 
L 368.075651 247.267767 
L 364.796312 250.443038 
L 361.516973 251.930909 
L 358.237634 251.826458 
L 354.958295 250.386168 
L 351.678957 247.954672 
L 348.399618 244.908926 
L 345.120279 241.617141 
L 341.84094 238.410086 
L 338.561601 235.562609 
L 335.282262 233.283468 
L 332.002924 231.711771 
L 328.723585 230.918544 
L 325.444246 230.912126 
L 322.164907 231.646259 
L 318.885568 233.029924 
L 315.606229 234.938108 
L 312.32689 237.222824 
L 309.047552 239.723843 
L 305.768213 242.278707 
L 302.488874 244.731685 
L 299.209535 246.941433 
L 295.930196 248.787219 
L 292.650857 250.173601 
L 289.371519 251.03357 
L 286.09218 251.330162 
L 282.812841 251.056641 
L 279.533502 250.235356 
L 276.254163 248.915431 
L 272.974824 247.169452 
L 269.695486 245.089339 
L 266.416147 242.781611 
L 263.136808 240.362237 
L 259.857469 237.951279 
L 256.57813 235.667536 
L 253.298791 233.623364 
L 250.019452 231.919852 
L 246.740114 230.64252 
L 243.460775 229.857669 
L 240.181436 229.609509 
L 236.902097 229.918146 
L 233.622758 230.778505 
L 230.343419 241.006407 
L 227.064081 241.006732 
L 223.784742 234.319326 
L 220.505403 237.083035 
L 217.226064 240.117169 
L 213.946725 243.280477 
L 210.667386 246.420877 
L 207.388048 249.381767 
L 204.108709 252.008799 
L 200.82937 254.156889 
L 197.550031 255.69723 
L 194.270692 256.52405 
L 190.991353 256.560846 
L 187.712014 255.765836 
L 184.432676 254.136348 
L 181.153337 251.711894 
L 177.873998 248.575684 
L 174.594659 244.854359 
L 171.31532 240.715756 
L 168.035981 236.364556 
L 164.756643 232.035727 
L 161.477304 227.985712 
L 158.197965 224.481419 
L 154.918626 221.787117 
L 151.639287 220.14946 
L 148.359948 219.780969 
L 145.08061 220.842397 
L 141.801271 223.424579 
L 138.521932 227.530476 
L 135.242593 233.058305 
L 131.963254 239.786842 
L 128.683915 247.364128 
L 125.404576 255.301087 
L 122.125238 262.971736 
L 118.845899 269.621944 
L 115.56656 274.388947 
L 112.287221 276.334125 
L 109.007882 274.491827 
L 105.728543 267.937366 
L 102.449205 255.877647 
L 99.169866 237.768262 
L 95.890527 213.46124 
L 92.611188 183.3881 
L 89.331849 148.783226 
L 86.05251 111.953093 
L 82.773171 76.597304 
L 79.493833 48.187922 
L 76.214494 34.414125 
L 72.935155 45.699713 
L 69.655816 95.801639 
L 66.376477 202.498291 
z
" clip-path="url(#p0f579bb211)" style="fill: #1f77b4; fill-opacity: 0.166667"/>
   </g>
   <g id="PolyCollection_2">
    <path d="M 66.376477 244.316831 
L 66.376477 241.002868 
L 68.815298 241.002868 
L 71.254118 241.002868 
L 73.692938 241.002868 
L 76.131758 241.002868 
L 78.570579 241.002868 
L 81.009399 241.002868 
L 83.448219 241.002868 
L 85.887039 241.002868 
L 88.32586 241.002868 
L 90.76468 241.002868 
L 93.2035 241.002868 
L 95.64232 241.002868 
L 98.081141 241.002868 
L 100.519961 241.002868 
L 102.958781 241.002868 
L 105.397602 241.002868 
L 107.836422 241.002868 
L 110.275242 241.002868 
L 112.714062 241.002868 
L 115.152883 241.002868 
L 117.591703 241.002868 
L 120.030523 241.002868 
L 122.469343 241.002868 
L 124.908164 241.002868 
L 127.346984 241.002868 
L 129.785804 241.002868 
L 132.224624 241.002868 
L 134.663445 241.002868 
L 137.102265 241.002868 
L 139.541085 241.002868 
L 141.979905 241.002868 
L 144.418726 241.002868 
L 146.857546 241.002868 
L 149.296366 241.002868 
L 151.735187 241.002868 
L 154.174007 241.002868 
L 156.612827 241.002868 
L 159.051647 241.002868 
L 161.490468 241.002868 
L 163.929288 241.002868 
L 166.368108 241.002868 
L 168.806928 241.002868 
L 171.245749 241.002868 
L 173.684569 241.002868 
L 176.123389 241.002868 
L 178.562209 241.002868 
L 181.00103 241.002868 
L 183.43985 241.002868 
L 185.87867 241.002868 
L 188.31749 241.002868 
L 190.756311 241.002868 
L 193.195131 241.002868 
L 195.633951 241.002868 
L 198.072772 241.002868 
L 200.511592 241.002868 
L 202.950412 241.002868 
L 205.389232 241.002868 
L 207.828053 241.002868 
L 210.266873 241.002868 
L 212.705693 241.002868 
L 215.144513 241.002868 
L 217.583334 241.002868 
L 220.022154 241.002868 
L 222.460974 241.002868 
L 224.899794 241.002868 
L 227.338615 241.002868 
L 229.777435 241.002868 
L 232.216255 241.002868 
L 234.655076 241.002868 
L 237.093896 241.002868 
L 239.532716 241.002868 
L 241.971536 241.002868 
L 244.410357 241.002868 
L 246.849177 241.002868 
L 249.287997 241.002868 
L 251.726817 241.002868 
L 254.165638 241.002868 
L 256.604458 241.002868 
L 259.043278 241.002868 
L 261.482098 241.002868 
L 263.920919 241.002868 
L 266.359739 241.002868 
L 268.798559 241.002868 
L 271.237379 241.002868 
L 273.6762 241.002868 
L 276.11502 241.002868 
L 278.55384 241.002868 
L 280.992661 241.002868 
L 283.431481 241.002868 
L 285.870301 241.002868 
L 288.309121 241.002868 
L 290.747942 241.002868 
L 293.186762 241.002868 
L 295.625582 241.002868 
L 298.064402 241.002868 
L 300.503223 241.002868 
L 302.942043 241.002868 
L 305.380863 241.002868 
L 307.819683 241.002868 
L 307.819683 262.133913 
L 307.819683 262.133913 
L 305.380863 235.975435 
L 302.942043 225.693671 
L 300.503223 225.083631 
L 298.064402 229.66185 
L 295.625582 236.313598 
L 293.186762 242.993961 
L 290.747942 248.476767 
L 288.309121 252.145797 
L 285.870301 253.823162 
L 283.431481 253.630172 
L 280.992661 251.876404 
L 278.55384 248.973085 
L 276.11502 245.367238 
L 273.6762 241.493416 
L 271.237379 237.740122 
L 268.798559 234.428378 
L 266.359739 231.800116 
L 263.920919 230.014393 
L 261.482098 229.149633 
L 259.043278 229.210358 
L 256.604458 230.137057 
L 254.165638 231.81806 
L 251.726817 234.102448 
L 249.287997 236.813211 
L 246.849177 239.759995 
L 244.410357 242.750944 
L 241.971536 245.603241 
L 239.532716 248.15207 
L 237.093896 250.257831 
L 234.655076 251.811516 
L 232.216255 252.738219 
L 229.777435 252.998841 
L 227.338615 252.590087 
L 224.899794 251.542901 
L 222.460974 249.919528 
L 220.022154 247.809405 
L 217.583334 245.324114 
L 215.144513 242.591643 
L 212.705693 239.750189 
L 210.266873 236.941762 
L 207.828053 234.305813 
L 205.389232 231.973123 
L 202.950412 230.060154 
L 200.511592 228.664053 
L 198.072772 227.858468 
L 195.633951 227.690317 
L 193.195131 228.177607 
L 190.756311 229.308383 
L 188.31749 241.006921 
L 185.87867 241.006431 
L 183.43985 235.222048 
L 181.00103 237.924949 
L 178.562209 240.855476 
L 176.123389 243.874983 
L 173.684569 246.835759 
L 171.245749 249.587278 
L 168.806928 251.982831 
L 166.368108 253.886344 
L 163.929288 255.179145 
L 161.490468 255.766403 
L 159.051647 255.583014 
L 156.612827 254.598641 
L 154.174007 252.82166 
L 151.735187 250.30176 
L 149.296366 247.130969 
L 146.857546 243.442884 
L 144.418726 239.409944 
L 141.979905 235.238612 
L 139.541085 231.16238 
L 137.102265 227.432588 
L 134.663445 224.30712 
L 132.224624 222.037097 
L 129.785804 220.851833 
L 127.346984 220.942386 
L 124.908164 222.444172 
L 122.469343 225.419259 
L 120.030523 229.839088 
L 117.591703 235.568545 
L 115.152883 242.352481 
L 112.714062 249.805978 
L 110.275242 257.409869 
L 107.836422 264.513248 
L 105.397602 270.344952 
L 102.958781 274.036272 
L 100.519961 274.657407 
L 98.081141 271.270514 
L 95.64232 263.0025 
L 93.2035 249.141064 
L 90.76468 229.257835 
L 88.32586 203.362879 
L 85.887039 172.09521 
L 83.448219 136.954401 
L 81.009399 100.578833 
L 78.570579 67.076593 
L 76.131758 42.415543 
L 73.692938 34.879602 
L 71.254118 55.598826 
L 68.815298 119.161476 
L 66.376477 244.316831 
z
" clip-path="url(#p0f579bb211)" style="fill: #ff7f0e; fill-opacity: 0.166667"/>
   </g>
   <g id="PolyCollection_3">
    <path d="M 66.376477 248.65235 
L 66.376477 241.002868 
L 66.806097 241.002868 
L 67.235716 241.002868 
L 67.665335 241.002868 
L 68.094955 241.002868 
L 68.524574 241.002868 
L 68.954193 241.002868 
L 69.383813 241.002868 
L 69.813432 241.002868 
L 70.243052 241.002868 
L 70.672671 241.002868 
L 71.10229 241.002868 
L 71.53191 241.002868 
L 71.961529 241.002868 
L 72.391148 241.002868 
L 72.820768 241.002868 
L 73.250387 241.002868 
L 73.680006 241.002868 
L 74.109626 241.002868 
L 74.539245 241.002868 
L 74.968865 241.002868 
L 75.398484 241.002868 
L 75.828103 241.002868 
L 76.257723 241.002868 
L 76.687342 241.002868 
L 77.116961 241.002868 
L 77.546581 241.002868 
L 77.9762 241.002868 
L 78.405819 241.002868 
L 78.835439 241.002868 
L 79.265058 241.002868 
L 79.694678 241.002868 
L 80.124297 241.002868 
L 80.553916 241.002868 
L 80.983536 241.002868 
L 81.413155 241.002868 
L 81.842774 241.002868 
L 82.272394 241.002868 
L 82.702013 241.002868 
L 83.131632 241.002868 
L 83.561252 241.002868 
L 83.990871 241.002868 
L 84.420491 241.002868 
L 84.85011 241.002868 
L 85.279729 241.002868 
L 85.709349 241.002868 
L 86.138968 241.002868 
L 86.568587 241.002868 
L 86.998207 241.002868 
L 87.427826 241.002868 
L 87.857445 241.002868 
L 88.287065 241.002868 
L 88.716684 241.002868 
L 89.146304 241.002868 
L 89.575923 241.002868 
L 90.005542 241.002868 
L 90.435162 241.002868 
L 90.864781 241.002868 
L 91.2944 241.002868 
L 91.72402 241.002868 
L 92.153639 241.002868 
L 92.583258 241.002868 
L 93.012878 241.002868 
L 93.442497 241.002868 
L 93.872117 241.002868 
L 94.301736 241.002868 
L 94.731355 241.002868 
L 95.160975 241.002868 
L 95.590594 241.002868 
L 96.020213 241.002868 
L 96.449833 241.002868 
L 96.879452 241.002868 
L 97.309072 241.002868 
L 97.738691 241.002868 
L 98.16831 241.002868 
L 98.59793 241.002868 
L 99.027549 241.002868 
L 99.457168 241.002868 
L 99.886788 241.002868 
L 100.316407 241.002868 
L 100.746026 241.002868 
L 101.175646 241.002868 
L 101.605265 241.002868 
L 102.034885 241.002868 
L 102.464504 241.002868 
L 102.894123 241.002868 
L 103.323743 241.002868 
L 103.753362 241.002868 
L 104.182981 241.002868 
L 104.612601 241.002868 
L 105.04222 241.002868 
L 105.471839 241.002868 
L 105.901459 241.002868 
L 106.331078 241.002868 
L 106.760698 241.002868 
L 107.190317 241.002868 
L 107.619936 241.002868 
L 108.049556 241.002868 
L 108.479175 241.002868 
L 108.908794 241.002868 
L 108.908794 245.744698 
L 108.908794 245.744698 
L 108.479175 239.267717 
L 108.049556 236.98734 
L 107.619936 237.165576 
L 107.190317 238.571988 
L 106.760698 240.374974 
L 106.331078 242.050278 
L 105.901459 243.304728 
L 105.471839 244.01339 
L 105.04222 244.16846 
L 104.612601 243.838348 
L 104.182981 243.135587 
L 103.753362 242.192268 
L 103.323743 241.141873 
L 102.894123 240.106461 
L 102.464504 239.188296 
L 102.034885 238.465068 
L 101.605265 237.987999 
L 101.175646 237.782171 
L 100.746026 237.848522 
L 100.316407 238.16703 
L 99.886788 238.700654 
L 99.457168 239.399686 
L 99.027549 240.206233 
L 98.59793 241.058571 
L 98.16831 241.895203 
L 97.738691 242.658459 
L 97.309072 243.297544 
L 96.879452 243.770974 
L 96.449833 244.048338 
L 96.020213 244.111407 
L 95.590594 243.954585 
L 95.160975 243.584741 
L 94.731355 243.020484 
L 94.301736 242.290927 
L 93.872117 241.434041 
L 93.442497 240.494653 
L 93.012878 239.522206 
L 92.583258 238.56835 
L 92.153639 237.684465 
L 91.72402 236.9192 
L 91.2944 236.316124 
L 90.864781 235.911552 
L 90.435162 235.732633 
L 90.005542 235.795753 
L 89.575923 236.105323 
L 89.146304 236.652973 
L 88.716684 237.417205 
L 88.287065 238.363515 
L 87.857445 241.003437 
L 87.427826 241.002762 
L 86.998207 241.889203 
L 86.568587 242.794126 
L 86.138968 243.550376 
L 85.709349 244.082688 
L 85.279729 244.315815 
L 84.85011 244.177299 
L 84.420491 243.600353 
L 83.990871 242.526765 
L 83.561252 240.909754 
L 83.131632 238.716676 
L 82.702013 235.931495 
L 82.272394 232.556918 
L 81.842774 228.616108 
L 81.413155 224.153877 
L 80.983536 219.237282 
L 80.553916 213.955534 
L 80.124297 208.419166 
L 79.694678 202.75839 
L 79.265058 197.120616 
L 78.835439 191.667096 
L 78.405819 186.568713 
L 77.9762 182.00092 
L 77.546581 178.137897 
L 77.116961 175.146002 
L 76.687342 173.17665 
L 76.257723 172.358776 
L 75.828103 172.791083 
L 75.398484 174.534346 
L 74.968865 177.604069 
L 74.539245 181.963872 
L 74.109626 187.520029 
L 73.680006 194.117662 
L 73.250387 201.539164 
L 72.820768 209.505495 
L 72.391148 217.681093 
L 71.961529 225.683214 
L 71.53191 233.096632 
L 71.10229 239.494711 
L 70.672671 244.467984 
L 70.243052 247.661481 
L 69.813432 248.822157 
L 69.383813 247.857942 
L 68.954193 244.909998 
L 68.524574 240.439979 
L 68.094955 235.334203 
L 67.665335 231.026791 
L 67.235716 229.644021 
L 66.806097 234.172305 
L 66.376477 248.65235 
z
" clip-path="url(#p0f579bb211)" style="fill: #2ca02c; fill-opacity: 0.166667"/>
   </g>
   <g id="PolyCollection_4">
    <path d="M 66.376477 228.01316 
L 66.376477 241.002868 
L 68.068021 241.002868 
L 69.759566 241.002868 
L 71.45111 241.002868 
L 73.142654 241.002868 
L 74.834198 241.002868 
L 76.525742 241.002868 
L 78.217287 241.002868 
L 79.908831 241.002868 
L 81.600375 241.002868 
L 83.291919 241.002868 
L 84.983463 241.002868 
L 86.675008 241.002868 
L 88.366552 241.002868 
L 90.058096 241.002868 
L 91.74964 241.002868 
L 93.441184 241.002868 
L 95.132728 241.002868 
L 96.824273 241.002868 
L 98.515817 241.002868 
L 100.207361 241.002868 
L 101.898905 241.002868 
L 103.590449 241.002868 
L 105.281994 241.002868 
L 106.973538 241.002868 
L 108.665082 241.002868 
L 110.356626 241.002868 
L 112.04817 241.002868 
L 113.739715 241.002868 
L 115.431259 241.002868 
L 117.122803 241.002868 
L 118.814347 241.002868 
L 120.505891 241.002868 
L 122.197436 241.002868 
L 123.88898 241.002868 
L 125.580524 241.002868 
L 127.272068 241.002868 
L 128.963612 241.002868 
L 130.655156 241.002868 
L 132.346701 241.002868 
L 134.038245 241.002868 
L 135.729789 241.002868 
L 137.421333 241.002868 
L 139.112877 241.002868 
L 140.804422 241.002868 
L 142.495966 241.002868 
L 144.18751 241.002868 
L 145.879054 241.002868 
L 147.570598 241.002868 
L 149.262143 241.002868 
L 150.953687 241.002868 
L 152.645231 241.002868 
L 154.336775 241.002868 
L 156.028319 241.002868 
L 157.719864 241.002868 
L 159.411408 241.002868 
L 161.102952 241.002868 
L 162.794496 241.002868 
L 164.48604 241.002868 
L 166.177584 241.002868 
L 167.869129 241.002868 
L 169.560673 241.002868 
L 171.252217 241.002868 
L 172.943761 241.002868 
L 174.635305 241.002868 
L 176.32685 241.002868 
L 178.018394 241.002868 
L 179.709938 241.002868 
L 181.401482 241.002868 
L 183.093026 241.002868 
L 184.784571 241.002868 
L 186.476115 241.002868 
L 188.167659 241.002868 
L 189.859203 241.002868 
L 191.550747 241.002868 
L 193.242291 241.002868 
L 194.933836 241.002868 
L 196.62538 241.002868 
L 198.316924 241.002868 
L 200.008468 241.002868 
L 201.700012 241.002868 
L 203.391557 241.002868 
L 205.083101 241.002868 
L 206.774645 241.002868 
L 208.466189 241.002868 
L 210.157733 241.002868 
L 211.849278 241.002868 
L 213.540822 241.002868 
L 215.232366 241.002868 
L 216.92391 241.002868 
L 218.615454 241.002868 
L 220.306999 241.002868 
L 221.998543 241.002868 
L 223.690087 241.002868 
L 225.381631 241.002868 
L 227.073175 241.002868 
L 228.764719 241.002868 
L 230.456264 241.002868 
L 232.147808 241.002868 
L 233.839352 241.002868 
L 233.839352 248.632323 
L 233.839352 248.632323 
L 232.147808 238.539944 
L 230.456264 234.761566 
L 228.764719 234.761437 
L 227.073175 236.726326 
L 225.381631 239.413487 
L 223.690087 242.022464 
L 221.998543 244.087988 
L 220.306999 245.391456 
L 218.615454 245.888669 
L 216.92391 245.651732 
L 215.232366 244.823176 
L 213.540822 243.580565 
L 211.849278 242.11 
L 210.157733 240.58711 
L 208.466189 239.164239 
L 206.774645 237.962707 
L 205.083101 237.069127 
L 203.391557 236.534899 
L 201.700012 236.378111 
L 200.008468 236.587172 
L 198.316924 237.125596 
L 196.62538 237.937479 
L 194.933836 238.953237 
L 193.242291 240.095293 
L 191.550747 241.283452 
L 189.859203 242.439749 
L 188.167659 243.492646 
L 186.476115 244.380457 
L 184.784571 245.053962 
L 183.093026 245.478186 
L 181.401482 245.633354 
L 179.709938 245.515065 
L 178.018394 245.133756 
L 176.32685 244.513514 
L 174.635305 243.690364 
L 172.943761 242.710095 
L 171.252217 241.625782 
L 169.560673 240.495071 
L 167.869129 239.377374 
L 166.177584 238.331064 
L 164.48604 237.410787 
L 162.794496 236.664975 
L 161.102952 236.133657 
L 159.411408 235.846638 
L 157.719864 235.822108 
L 156.028319 236.065733 
L 154.336775 236.570252 
L 152.645231 237.315606 
L 150.953687 241.004206 
L 149.262143 241.00312 
L 147.570598 241.696904 
L 145.879054 242.305987 
L 144.18751 242.868719 
L 142.495966 243.351512 
L 140.804422 243.722924 
L 139.112877 243.955322 
L 137.421333 244.026508 
L 135.729789 243.921219 
L 134.038245 243.632452 
L 132.346701 243.162526 
L 130.655156 242.523827 
L 128.963612 241.739164 
L 127.272068 240.841674 
L 125.580524 239.87423 
L 123.88898 238.888301 
L 122.197436 237.942245 
L 120.505891 237.098997 
L 118.814347 236.423182 
L 117.122803 235.977645 
L 115.431259 235.819472 
L 113.739715 235.99554 
L 112.04817 236.53774 
L 110.356626 237.457962 
L 108.665082 238.743061 
L 106.973538 240.349979 
L 105.281994 242.201313 
L 103.590449 244.181618 
L 101.898905 246.134821 
L 100.207361 247.86316 
L 98.515817 249.128136 
L 96.824273 249.654034 
L 95.132728 249.134627 
L 93.441184 247.243779 
L 91.74964 243.650723 
L 90.058096 238.040898 
L 88.366552 230.1433 
L 86.675008 219.765433 
L 84.983463 206.837017 
L 83.291919 191.463754 
L 81.600375 173.992542 
L 79.908831 155.089674 
L 78.217287 135.83368 
L 76.525742 117.8246 
L 74.834198 103.311645 
L 73.142654 95.341314 
L 71.45111 97.928241 
L 69.759566 116.251163 
L 68.068021 156.876625 
L 66.376477 228.01316 
z
" clip-path="url(#p0f579bb211)" style="fill: #d62728; fill-opacity: 0.166667"/>
   </g>
   <g id="PolyCollection_5">
    <path d="M 66.376477 251.771108 
L 66.376477 241.002868 
L 69.430359 241.002868 
L 72.484241 241.002868 
L 75.538122 241.002868 
L 78.592004 241.002868 
L 81.645885 241.002868 
L 84.699767 241.002868 
L 87.753649 241.002868 
L 90.80753 241.002868 
L 93.861412 241.002868 
L 96.915294 241.002868 
L 99.969175 241.002868 
L 103.023057 241.002868 
L 106.076939 241.002868 
L 109.13082 241.002868 
L 112.184702 241.002868 
L 115.238583 241.002868 
L 118.292465 241.002868 
L 121.346347 241.002868 
L 124.400228 241.002868 
L 127.45411 241.002868 
L 130.507992 241.002868 
L 133.561873 241.002868 
L 136.615755 241.002868 
L 139.669636 241.002868 
L 142.723518 241.002868 
L 145.7774 241.002868 
L 148.831281 241.002868 
L 151.885163 241.002868 
L 154.939045 241.002868 
L 157.992926 241.002868 
L 161.046808 241.002868 
L 164.10069 241.002868 
L 167.154571 241.002868 
L 170.208453 241.002868 
L 173.262334 241.002868 
L 176.316216 241.002868 
L 179.370098 241.002868 
L 182.423979 241.002868 
L 185.477861 241.002868 
L 188.531743 241.002868 
L 191.585624 241.002868 
L 194.639506 241.002868 
L 197.693388 241.002868 
L 200.747269 241.002868 
L 203.801151 241.002868 
L 206.855032 241.002868 
L 209.908914 241.002868 
L 212.962796 241.002868 
L 216.016677 241.002868 
L 219.070559 241.002868 
L 222.124441 241.002868 
L 225.178322 241.002868 
L 228.232204 241.002868 
L 231.286086 241.002868 
L 234.339967 241.002868 
L 237.393849 241.002868 
L 240.44773 241.002868 
L 243.501612 241.002868 
L 246.555494 241.002868 
L 249.609375 241.002868 
L 252.663257 241.002868 
L 255.717139 241.002868 
L 258.77102 241.002868 
L 261.824902 241.002868 
L 264.878783 241.002868 
L 267.932665 241.002868 
L 270.986547 241.002868 
L 274.040428 241.002868 
L 277.09431 241.002868 
L 280.148192 241.002868 
L 283.202073 241.002868 
L 286.255955 241.002868 
L 289.309837 241.002868 
L 292.363718 241.002868 
L 295.4176 241.002868 
L 298.471481 241.002868 
L 301.525363 241.002868 
L 304.579245 241.002868 
L 307.633126 241.002868 
L 310.687008 241.002868 
L 313.74089 241.002868 
L 316.794771 241.002868 
L 319.848653 241.002868 
L 322.902535 241.002868 
L 325.956416 241.002868 
L 329.010298 241.002868 
L 332.064179 241.002868 
L 335.118061 241.002868 
L 338.171943 241.002868 
L 341.225824 241.002868 
L 344.279706 241.002868 
L 347.333588 241.002868 
L 350.387469 241.002868 
L 353.441351 241.002868 
L 356.495233 241.002868 
L 359.549114 241.002868 
L 362.602996 241.002868 
L 365.656877 241.002868 
L 368.710759 241.002868 
L 368.710759 259.498324 
L 368.710759 259.498324 
L 365.656877 236.576727 
L 362.602996 227.631957 
L 359.549114 227.171952 
L 356.495233 231.237037 
L 353.441351 237.084079 
L 350.387469 242.919156 
L 347.333588 247.673277 
L 344.279706 250.816114 
L 341.225824 252.203126 
L 338.171943 251.951837 
L 335.118061 250.343401 
L 332.064179 247.745928 
L 329.010298 244.556397 
L 325.956416 241.158248 
L 322.902535 237.89209 
L 319.848653 235.037191 
L 316.794771 232.801703 
L 313.74089 231.319786 
L 310.687008 230.654057 
L 307.633126 230.801956 
L 304.579245 231.704835 
L 301.525363 233.258765 
L 298.471481 235.326185 
L 295.4176 237.747698 
L 292.363718 240.353443 
L 289.309837 242.973585 
L 286.255955 245.447603 
L 283.202073 247.632123 
L 280.148192 249.407152 
L 277.09431 250.68065 
L 274.040428 251.391416 
L 270.986547 251.510359 
L 267.932665 251.040243 
L 264.878783 250.014048 
L 261.824902 248.492124 
L 258.77102 246.55832 
L 255.717139 244.31531 
L 252.663257 241.879334 
L 249.609375 239.374568 
L 246.555494 236.927363 
L 243.501612 234.660544 
L 240.44773 232.687988 
L 237.393849 231.109663 
L 234.339967 230.007289 
L 231.286086 229.440761 
L 228.232204 229.445464 
L 225.178322 230.030556 
L 222.124441 231.178282 
L 219.070559 241.006345 
L 216.016677 241.005569 
L 212.962796 237.268461 
L 209.908914 239.511885 
L 206.855032 241.896952 
L 203.801151 244.307815 
L 200.747269 246.623054 
L 197.693388 248.720948 
L 194.639506 250.485007 
L 191.585624 251.809594 
L 188.531743 252.605422 
L 185.477861 252.804719 
L 182.423979 252.365834 
L 179.370098 251.277078 
L 176.316216 249.559574 
L 173.262334 247.268918 
L 170.208453 244.495455 
L 167.154571 241.363013 
L 164.10069 238.025963 
L 161.046808 234.664495 
L 157.992926 231.478079 
L 154.939045 228.677106 
L 151.885163 226.472785 
L 148.831281 225.065434 
L 145.7774 224.63141 
L 142.723518 225.308982 
L 139.669636 227.183597 
L 136.615755 230.27307 
L 133.561873 234.513387 
L 130.507992 239.745938 
L 127.45411 245.70715 
L 124.400228 252.021664 
L 121.346347 258.200391 
L 118.292465 263.644954 
L 115.238583 267.660258 
L 112.184702 269.477153 
L 109.13082 268.287378 
L 106.076939 263.293268 
L 103.023057 253.774946 
L 99.969175 239.178043 
L 96.915294 219.225278 
L 93.861412 194.05558 
L 90.80753 164.394758 
L 87.753649 131.76212 
L 84.699767 98.717799 
L 81.645885 69.155971 
L 78.592004 48.649572 
L 75.538122 44.852561 
L 72.484241 67.966263 
L 69.430359 131.276794 
L 66.376477 251.771108 
z
" clip-path="url(#p0f579bb211)" style="fill: #9467bd; fill-opacity: 0.166667"/>
   </g>
   <g id="PolyCollection_6">
    <path d="M 66.376477 241.31029 
L 66.376477 241.002868 
L 66.68301 241.002868 
L 66.989543 241.002868 
L 67.296076 241.002868 
L 67.602609 241.002868 
L 67.909142 241.002868 
L 68.215675 241.002868 
L 68.522208 241.002868 
L 68.828741 241.002868 
L 69.135274 241.002868 
L 69.441807 241.002868 
L 69.748339 241.002868 
L 70.054872 241.002868 
L 70.361405 241.002868 
L 70.667938 241.002868 
L 70.974471 241.002868 
L 71.281004 241.002868 
L 71.587537 241.002868 
L 71.89407 241.002868 
L 72.200603 241.002868 
L 72.507136 241.002868 
L 72.813669 241.002868 
L 73.120202 241.002868 
L 73.426735 241.002868 
L 73.733267 241.002868 
L 74.0398 241.002868 
L 74.346333 241.002868 
L 74.652866 241.002868 
L 74.959399 241.002868 
L 75.265932 241.002868 
L 75.572465 241.002868 
L 75.878998 241.002868 
L 76.185531 241.002868 
L 76.492064 241.002868 
L 76.798597 241.002868 
L 77.10513 241.002868 
L 77.411663 241.002868 
L 77.718196 241.002868 
L 78.024728 241.002868 
L 78.331261 241.002868 
L 78.637794 241.002868 
L 78.944327 241.002868 
L 79.25086 241.002868 
L 79.557393 241.002868 
L 79.863926 241.002868 
L 80.170459 241.002868 
L 80.476992 241.002868 
L 80.783525 241.002868 
L 81.090058 241.002868 
L 81.396591 241.002868 
L 81.703124 241.002868 
L 82.009656 241.002868 
L 82.316189 241.002868 
L 82.622722 241.002868 
L 82.929255 241.002868 
L 83.235788 241.002868 
L 83.542321 241.002868 
L 83.848854 241.002868 
L 84.155387 241.002868 
L 84.46192 241.002868 
L 84.768453 241.002868 
L 85.074986 241.002868 
L 85.381519 241.002868 
L 85.688052 241.002868 
L 85.994584 241.002868 
L 86.301117 241.002868 
L 86.60765 241.002868 
L 86.914183 241.002868 
L 87.220716 241.002868 
L 87.527249 241.002868 
L 87.833782 241.002868 
L 88.140315 241.002868 
L 88.446848 241.002868 
L 88.753381 241.002868 
L 89.059914 241.002868 
L 89.366447 241.002868 
L 89.67298 241.002868 
L 89.979513 241.002868 
L 90.286045 241.002868 
L 90.592578 241.002868 
L 90.899111 241.002868 
L 91.205644 241.002868 
L 91.512177 241.002868 
L 91.81871 241.002868 
L 92.125243 241.002868 
L 92.431776 241.002868 
L 92.738309 241.002868 
L 93.044842 241.002868 
L 93.351375 241.002868 
L 93.657908 241.002868 
L 93.964441 241.002868 
L 94.270973 241.002868 
L 94.577506 241.002868 
L 94.884039 241.002868 
L 95.190572 241.002868 
L 95.497105 241.002868 
L 95.803638 241.002868 
L 96.110171 241.002868 
L 96.416704 241.002868 
L 96.723237 241.002868 
L 96.723237 234.072549 
L 96.723237 234.072549 
L 96.416704 242.595597 
L 96.110171 245.935042 
L 95.803638 246.104666 
L 95.497105 244.568716 
L 95.190572 242.351339 
L 94.884039 240.129981 
L 94.577506 238.314454 
L 94.270973 237.113246 
L 93.964441 236.588534 
L 93.657908 236.70124 
L 93.351375 237.347375 
L 93.044842 238.386785 
L 92.738309 239.665359 
L 92.431776 241.031625 
L 92.125243 242.348588 
L 91.81871 243.501593 
L 91.512177 244.402907 
L 91.205644 244.993625 
L 90.899111 245.243475 
L 90.592578 245.148997 
L 90.286045 244.730521 
L 89.979513 244.028333 
L 89.67298 243.098328 
L 89.366447 242.007434 
L 89.059914 240.829032 
L 88.753381 239.63856 
L 88.446848 238.509446 
L 88.140315 237.509485 
L 87.833782 236.69775 
L 87.527249 236.122087 
L 87.220716 235.817236 
L 86.914183 235.80357 
L 86.60765 236.086466 
L 86.301117 236.656266 
L 85.994584 237.488796 
L 85.688052 238.54639 
L 85.381519 239.779367 
L 85.074986 241.127876 
L 84.768453 242.524057 
L 84.46192 243.894432 
L 84.155387 245.162449 
L 83.848854 246.251101 
L 83.542321 247.085553 
L 83.235788 247.595692 
L 82.929255 247.718536 
L 82.622722 247.40045 
L 82.316189 246.599087 
L 82.009656 245.285032 
L 81.703124 240.997344 
L 81.396591 240.996881 
L 81.090058 238.638041 
L 80.783525 235.29245 
L 80.476992 231.488576 
L 80.170459 227.287891 
L 79.863926 222.766183 
L 79.557393 218.011861 
L 79.25086 213.123863 
L 78.944327 208.2092 
L 78.637794 203.380202 
L 78.331261 198.751514 
L 78.024728 194.436935 
L 77.718196 190.546144 
L 77.411663 187.181434 
L 77.10513 184.434508 
L 76.798597 182.383458 
L 76.492064 181.089986 
L 76.185531 180.596993 
L 75.878998 180.926592 
L 75.572465 182.078659 
L 75.265932 184.029975 
L 74.959399 186.734049 
L 74.652866 190.121662 
L 74.346333 194.102184 
L 74.0398 198.565698 
L 73.733267 203.385916 
L 73.426735 208.423898 
L 73.120202 213.532505 
L 72.813669 218.561535 
L 72.507136 223.363428 
L 72.200603 227.799394 
L 71.89407 231.745791 
L 71.587537 235.100521 
L 71.281004 237.789167 
L 70.974471 239.770548 
L 70.667938 241.0413 
L 70.361405 241.63904 
L 70.054872 241.643596 
L 69.748339 241.175717 
L 69.441807 240.392605 
L 69.135274 239.47952 
L 68.828741 238.63663 
L 68.522208 238.060178 
L 68.215675 237.916961 
L 67.909142 238.310967 
L 67.602609 239.240971 
L 67.296076 240.547709 
L 66.989543 241.849177 
L 66.68301 242.462451 
L 66.376477 241.31029 
z
" clip-path="url(#p0f579bb211)" style="fill: #8c564b; fill-opacity: 0.166667"/>
   </g>
   <g id="matplotlib.axis_1">
    <g id="xtick_1">
     <g id="line2d_1">
      <defs>
       <path id="me357f17e58" d="M 0 0 
L 0 3.5 
" style="stroke: #000000; stroke-width: 0.8"/>
      </defs>
      <g>
       <use xlink:href="#me357f17e58" x="66.376477" y="288.430125" style="stroke: #000000; stroke-width: 0.8"/>
      </g>
     </g>
     <g id="text_1">
      <!-- 0.000 -->
      <g transform="translate(52.062415 303.028562) scale(0.1 -0.1)">
       <defs>
        <path id="DejaVuSans-30" d="M 2034 4250 
Q 1547 4250 1301 3770 
Q 1056 3291 1056 2328 
Q 1056 1369 1301 889 
Q 1547 409 2034 409 
Q 2525 409 2770 889 
Q 3016 1369 3016 2328 
Q 3016 3291 2770 3770 
Q 2525 4250 2034 4250 
z
M 2034 4750 
Q 2819 4750 3233 4129 
Q 3647 3509 3647 2328 
Q 3647 1150 3233 529 
Q 2819 -91 2034 -91 
Q 1250 -91 836 529 
Q 422 1150 422 2328 
Q 422 3509 836 4129 
Q 1250 4750 2034 4750 
z
" transform="scale(0.015625)"/>
        <path id="DejaVuSans-2e" d="M 684 794 
L 1344 794 
L 1344 0 
L 684 0 
L 684 794 
z
" transform="scale(0.015625)"/>
       </defs>
       <use xlink:href="#DejaVuSans-30"/>
       <use xlink:href="#DejaVuSans-2e" x="63.623047"/>
       <use xlink:href="#DejaVuSans-30" x="95.410156"/>
       <use xlink:href="#DejaVuSans-30" x="159.033203"/>
       <use xlink:href="#DejaVuSans-30" x="222.65625"/>
      </g>
     </g>
    </g>
    <g id="xtick_2">
     <g id="line2d_2">
      <g>
       <use xlink:href="#me357f17e58" x="132.424767" y="288.430125" style="stroke: #000000; stroke-width: 0.8"/>
      </g>
     </g>
     <g id="text_2">
      <!-- 0.005 -->
      <g transform="translate(118.110705 303.028562) scale(0.1 -0.1)">
       <defs>
        <path id="DejaVuSans-35" d="M 691 4666 
L 3169 4666 
L 3169 4134 
L 1269 4134 
L 1269 2991 
Q 1406 3038 1543 3061 
Q 1681 3084 1819 3084 
Q 2600 3084 3056 2656 
Q 3513 2228 3513 1497 
Q 3513 744 3044 326 
Q 2575 -91 1722 -91 
Q 1428 -91 1123 -41 
Q 819 9 494 109 
L 494 744 
Q 775 591 1075 516 
Q 1375 441 1709 441 
Q 2250 441 2565 725 
Q 2881 1009 2881 1497 
Q 2881 1984 2565 2268 
Q 2250 2553 1709 2553 
Q 1456 2553 1204 2497 
Q 953 2441 691 2322 
L 691 4666 
z
" transform="scale(0.015625)"/>
       </defs>
       <use xlink:href="#DejaVuSans-30"/>
       <use xlink:href="#DejaVuSans-2e" x="63.623047"/>
       <use xlink:href="#DejaVuSans-30" x="95.410156"/>
       <use xlink:href="#DejaVuSans-30" x="159.033203"/>
       <use xlink:href="#DejaVuSans-35" x="222.65625"/>
      </g>
     </g>
    </g>
    <g id="xtick_3">
     <g id="line2d_3">
      <g>
       <use xlink:href="#me357f17e58" x="198.473057" y="288.430125" style="stroke: #000000; stroke-width: 0.8"/>
      </g>
     </g>
     <g id="text_3">
      <!-- 0.010 -->
      <g transform="translate(184.158995 303.028562) scale(0.1 -0.1)">
       <defs>
        <path id="DejaVuSans-31" d="M 794 531 
L 1825 531 
L 1825 4091 
L 703 3866 
L 703 4441 
L 1819 4666 
L 2450 4666 
L 2450 531 
L 3481 531 
L 3481 0 
L 794 0 
L 794 531 
z
" transform="scale(0.015625)"/>
       </defs>
       <use xlink:href="#DejaVuSans-30"/>
       <use xlink:href="#DejaVuSans-2e" x="63.623047"/>
       <use xlink:href="#DejaVuSans-30" x="95.410156"/>
       <use xlink:href="#DejaVuSans-31" x="159.033203"/>
       <use xlink:href="#DejaVuSans-30" x="222.65625"/>
      </g>
     </g>
    </g>
    <g id="xtick_4">
     <g id="line2d_4">
      <g>
       <use xlink:href="#me357f17e58" x="264.521348" y="288.430125" style="stroke: #000000; stroke-width: 0.8"/>
      </g>
     </g>
     <g id="text_4">
      <!-- 0.015 -->
      <g transform="translate(250.207285 303.028562) scale(0.1 -0.1)">
       <use xlink:href="#DejaVuSans-30"/>
       <use xlink:href="#DejaVuSans-2e" x="63.623047"/>
       <use xlink:href="#DejaVuSans-30" x="95.410156"/>
       <use xlink:href="#DejaVuSans-31" x="159.033203"/>
       <use xlink:href="#DejaVuSans-35" x="222.65625"/>
      </g>
     </g>
    </g>
    <g id="xtick_5">
     <g id="line2d_5">
      <g>
       <use xlink:href="#me357f17e58" x="330.569638" y="288.430125" style="stroke: #000000; stroke-width: 0.8"/>
      </g>
     </g>
     <g id="text_5">
      <!-- 0.020 -->
      <g transform="translate(316.255575 303.028562) scale(0.1 -0.1)">
       <defs>
        <path id="DejaVuSans-32" d="M 1228 531 
L 3431 531 
L 3431 0 
L 469 0 
L 469 531 
Q 828 903 1448 1529 
Q 2069 2156 2228 2338 
Q 2531 2678 2651 2914 
Q 2772 3150 2772 3378 
Q 2772 3750 2511 3984 
Q 2250 4219 1831 4219 
Q 1534 4219 1204 4116 
Q 875 4013 500 3803 
L 500 4441 
Q 881 4594 1212 4672 
Q 1544 4750 1819 4750 
Q 2544 4750 2975 4387 
Q 3406 4025 3406 3419 
Q 3406 3131 3298 2873 
Q 3191 2616 2906 2266 
Q 2828 2175 2409 1742 
Q 1991 1309 1228 531 
z
" transform="scale(0.015625)"/>
       </defs>
       <use xlink:href="#DejaVuSans-30"/>
       <use xlink:href="#DejaVuSans-2e" x="63.623047"/>
       <use xlink:href="#DejaVuSans-30" x="95.410156"/>
       <use xlink:href="#DejaVuSans-32" x="159.033203"/>
       <use xlink:href="#DejaVuSans-30" x="222.65625"/>
      </g>
     </g>
    </g>
    <g id="xtick_6">
     <g id="line2d_6">
      <g>
       <use xlink:href="#me357f17e58" x="396.617928" y="288.430125" style="stroke: #000000; stroke-width: 0.8"/>
      </g>
     </g>
     <g id="text_6">
      <!-- 0.025 -->
      <g transform="translate(382.303865 303.028562) scale(0.1 -0.1)">
       <use xlink:href="#DejaVuSans-30"/>
       <use xlink:href="#DejaVuSans-2e" x="63.623047"/>
       <use xlink:href="#DejaVuSans-30" x="95.410156"/>
       <use xlink:href="#DejaVuSans-32" x="159.033203"/>
       <use xlink:href="#DejaVuSans-35" x="222.65625"/>
      </g>
     </g>
    </g>
    <g id="text_7">
     <!-- Pixel values -->
     <g transform="translate(199.292031 316.706687) scale(0.1 -0.1)">
      <defs>
       <path id="DejaVuSans-50" d="M 1259 4147 
L 1259 2394 
L 2053 2394 
Q 2494 2394 2734 2622 
Q 2975 2850 2975 3272 
Q 2975 3691 2734 3919 
Q 2494 4147 2053 4147 
L 1259 4147 
z
M 628 4666 
L 2053 4666 
Q 2838 4666 3239 4311 
Q 3641 3956 3641 3272 
Q 3641 2581 3239 2228 
Q 2838 1875 2053 1875 
L 1259 1875 
L 1259 0 
L 628 0 
L 628 4666 
z
" transform="scale(0.015625)"/>
       <path id="DejaVuSans-69" d="M 603 3500 
L 1178 3500 
L 1178 0 
L 603 0 
L 603 3500 
z
M 603 4863 
L 1178 4863 
L 1178 4134 
L 603 4134 
L 603 4863 
z
" transform="scale(0.015625)"/>
       <path id="DejaVuSans-78" d="M 3513 3500 
L 2247 1797 
L 3578 0 
L 2900 0 
L 1881 1375 
L 863 0 
L 184 0 
L 1544 1831 
L 300 3500 
L 978 3500 
L 1906 2253 
L 2834 3500 
L 3513 3500 
z
" transform="scale(0.015625)"/>
       <path id="DejaVuSans-65" d="M 3597 1894 
L 3597 1613 
L 953 1613 
Q 991 1019 1311 708 
Q 1631 397 2203 397 
Q 2534 397 2845 478 
Q 3156 559 3463 722 
L 3463 178 
Q 3153 47 2828 -22 
Q 2503 -91 2169 -91 
Q 1331 -91 842 396 
Q 353 884 353 1716 
Q 353 2575 817 3079 
Q 1281 3584 2069 3584 
Q 2775 3584 3186 3129 
Q 3597 2675 3597 1894 
z
M 3022 2063 
Q 3016 2534 2758 2815 
Q 2500 3097 2075 3097 
Q 1594 3097 1305 2825 
Q 1016 2553 972 2059 
L 3022 2063 
z
" transform="scale(0.015625)"/>
       <path id="DejaVuSans-6c" d="M 603 4863 
L 1178 4863 
L 1178 0 
L 603 0 
L 603 4863 
z
" transform="scale(0.015625)"/>
       <path id="DejaVuSans-20" transform="scale(0.015625)"/>
       <path id="DejaVuSans-76" d="M 191 3500 
L 800 3500 
L 1894 563 
L 2988 3500 
L 3597 3500 
L 2284 0 
L 1503 0 
L 191 3500 
z
" transform="scale(0.015625)"/>
       <path id="DejaVuSans-61" d="M 2194 1759 
Q 1497 1759 1228 1600 
Q 959 1441 959 1056 
Q 959 750 1161 570 
Q 1363 391 1709 391 
Q 2188 391 2477 730 
Q 2766 1069 2766 1631 
L 2766 1759 
L 2194 1759 
z
M 3341 1997 
L 3341 0 
L 2766 0 
L 2766 531 
Q 2569 213 2275 61 
Q 1981 -91 1556 -91 
Q 1019 -91 701 211 
Q 384 513 384 1019 
Q 384 1609 779 1909 
Q 1175 2209 1959 2209 
L 2766 2209 
L 2766 2266 
Q 2766 2663 2505 2880 
Q 2244 3097 1772 3097 
Q 1472 3097 1187 3025 
Q 903 2953 641 2809 
L 641 3341 
Q 956 3463 1253 3523 
Q 1550 3584 1831 3584 
Q 2591 3584 2966 3190 
Q 3341 2797 3341 1997 
z
" transform="scale(0.015625)"/>
       <path id="DejaVuSans-75" d="M 544 1381 
L 544 3500 
L 1119 3500 
L 1119 1403 
Q 1119 906 1312 657 
Q 1506 409 1894 409 
Q 2359 409 2629 706 
Q 2900 1003 2900 1516 
L 2900 3500 
L 3475 3500 
L 3475 0 
L 2900 0 
L 2900 538 
Q 2691 219 2414 64 
Q 2138 -91 1772 -91 
Q 1169 -91 856 284 
Q 544 659 544 1381 
z
M 1991 3584 
L 1991 3584 
z
" transform="scale(0.015625)"/>
       <path id="DejaVuSans-73" d="M 2834 3397 
L 2834 2853 
Q 2591 2978 2328 3040 
Q 2066 3103 1784 3103 
Q 1356 3103 1142 2972 
Q 928 2841 928 2578 
Q 928 2378 1081 2264 
Q 1234 2150 1697 2047 
L 1894 2003 
Q 2506 1872 2764 1633 
Q 3022 1394 3022 966 
Q 3022 478 2636 193 
Q 2250 -91 1575 -91 
Q 1294 -91 989 -36 
Q 684 19 347 128 
L 347 722 
Q 666 556 975 473 
Q 1284 391 1588 391 
Q 1994 391 2212 530 
Q 2431 669 2431 922 
Q 2431 1156 2273 1281 
Q 2116 1406 1581 1522 
L 1381 1569 
Q 847 1681 609 1914 
Q 372 2147 372 2553 
Q 372 3047 722 3315 
Q 1072 3584 1716 3584 
Q 2034 3584 2315 3537 
Q 2597 3491 2834 3397 
z
" transform="scale(0.015625)"/>
      </defs>
      <use xlink:href="#DejaVuSans-50"/>
      <use xlink:href="#DejaVuSans-69" x="58.052734"/>
      <use xlink:href="#DejaVuSans-78" x="85.835938"/>
      <use xlink:href="#DejaVuSans-65" x="141.890625"/>
      <use xlink:href="#DejaVuSans-6c" x="203.414062"/>
      <use xlink:href="#DejaVuSans-20" x="231.197266"/>
      <use xlink:href="#DejaVuSans-76" x="262.984375"/>
      <use xlink:href="#DejaVuSans-61" x="322.164062"/>
      <use xlink:href="#DejaVuSans-6c" x="383.443359"/>
      <use xlink:href="#DejaVuSans-75" x="411.226562"/>
      <use xlink:href="#DejaVuSans-65" x="474.605469"/>
      <use xlink:href="#DejaVuSans-73" x="536.128906"/>
     </g>
    </g>
   </g>
   <g id="matplotlib.axis_2">
    <g id="ytick_1">
     <g id="line2d_7">
      <defs>
       <path id="mc3dc3b9628" d="M 0 0 
L -3.5 0 
" style="stroke: #000000; stroke-width: 0.8"/>
      </defs>
      <g>
       <use xlink:href="#mc3dc3b9628" x="50.14375" y="241.002868" style="stroke: #000000; stroke-width: 0.8"/>
      </g>
     </g>
     <g id="text_8">
      <!-- 0.00 -->
      <g transform="translate(20.878125 244.802086) scale(0.1 -0.1)">
       <use xlink:href="#DejaVuSans-30"/>
       <use xlink:href="#DejaVuSans-2e" x="63.623047"/>
       <use xlink:href="#DejaVuSans-30" x="95.410156"/>
       <use xlink:href="#DejaVuSans-30" x="159.033203"/>
      </g>
     </g>
    </g>
    <g id="ytick_2">
     <g id="line2d_8">
      <g>
       <use xlink:href="#mc3dc3b9628" x="50.14375" y="184.560154" style="stroke: #000000; stroke-width: 0.8"/>
      </g>
     </g>
     <g id="text_9">
      <!-- 0.05 -->
      <g transform="translate(20.878125 188.359373) scale(0.1 -0.1)">
       <use xlink:href="#DejaVuSans-30"/>
       <use xlink:href="#DejaVuSans-2e" x="63.623047"/>
       <use xlink:href="#DejaVuSans-30" x="95.410156"/>
       <use xlink:href="#DejaVuSans-35" x="159.033203"/>
      </g>
     </g>
    </g>
    <g id="ytick_3">
     <g id="line2d_9">
      <g>
       <use xlink:href="#mc3dc3b9628" x="50.14375" y="128.117441" style="stroke: #000000; stroke-width: 0.8"/>
      </g>
     </g>
     <g id="text_10">
      <!-- 0.10 -->
      <g transform="translate(20.878125 131.91666) scale(0.1 -0.1)">
       <use xlink:href="#DejaVuSans-30"/>
       <use xlink:href="#DejaVuSans-2e" x="63.623047"/>
       <use xlink:href="#DejaVuSans-31" x="95.410156"/>
       <use xlink:href="#DejaVuSans-30" x="159.033203"/>
      </g>
     </g>
    </g>
    <g id="ytick_4">
     <g id="line2d_10">
      <g>
       <use xlink:href="#mc3dc3b9628" x="50.14375" y="71.674727" style="stroke: #000000; stroke-width: 0.8"/>
      </g>
     </g>
     <g id="text_11">
      <!-- 0.15 -->
      <g transform="translate(20.878125 75.473946) scale(0.1 -0.1)">
       <use xlink:href="#DejaVuSans-30"/>
       <use xlink:href="#DejaVuSans-2e" x="63.623047"/>
       <use xlink:href="#DejaVuSans-31" x="95.410156"/>
       <use xlink:href="#DejaVuSans-35" x="159.033203"/>
      </g>
     </g>
    </g>
    <g id="text_12">
     <!-- Frequency -->
     <g transform="translate(14.798438 181.203812) rotate(-90) scale(0.1 -0.1)">
      <defs>
       <path id="DejaVuSans-46" d="M 628 4666 
L 3309 4666 
L 3309 4134 
L 1259 4134 
L 1259 2759 
L 3109 2759 
L 3109 2228 
L 1259 2228 
L 1259 0 
L 628 0 
L 628 4666 
z
" transform="scale(0.015625)"/>
       <path id="DejaVuSans-72" d="M 2631 2963 
Q 2534 3019 2420 3045 
Q 2306 3072 2169 3072 
Q 1681 3072 1420 2755 
Q 1159 2438 1159 1844 
L 1159 0 
L 581 0 
L 581 3500 
L 1159 3500 
L 1159 2956 
Q 1341 3275 1631 3429 
Q 1922 3584 2338 3584 
Q 2397 3584 2469 3576 
Q 2541 3569 2628 3553 
L 2631 2963 
z
" transform="scale(0.015625)"/>
       <path id="DejaVuSans-71" d="M 947 1747 
Q 947 1113 1208 752 
Q 1469 391 1925 391 
Q 2381 391 2643 752 
Q 2906 1113 2906 1747 
Q 2906 2381 2643 2742 
Q 2381 3103 1925 3103 
Q 1469 3103 1208 2742 
Q 947 2381 947 1747 
z
M 2906 525 
Q 2725 213 2448 61 
Q 2172 -91 1784 -91 
Q 1150 -91 751 415 
Q 353 922 353 1747 
Q 353 2572 751 3078 
Q 1150 3584 1784 3584 
Q 2172 3584 2448 3432 
Q 2725 3281 2906 2969 
L 2906 3500 
L 3481 3500 
L 3481 -1331 
L 2906 -1331 
L 2906 525 
z
" transform="scale(0.015625)"/>
       <path id="DejaVuSans-6e" d="M 3513 2113 
L 3513 0 
L 2938 0 
L 2938 2094 
Q 2938 2591 2744 2837 
Q 2550 3084 2163 3084 
Q 1697 3084 1428 2787 
Q 1159 2491 1159 1978 
L 1159 0 
L 581 0 
L 581 3500 
L 1159 3500 
L 1159 2956 
Q 1366 3272 1645 3428 
Q 1925 3584 2291 3584 
Q 2894 3584 3203 3211 
Q 3513 2838 3513 2113 
z
" transform="scale(0.015625)"/>
       <path id="DejaVuSans-63" d="M 3122 3366 
L 3122 2828 
Q 2878 2963 2633 3030 
Q 2388 3097 2138 3097 
Q 1578 3097 1268 2742 
Q 959 2388 959 1747 
Q 959 1106 1268 751 
Q 1578 397 2138 397 
Q 2388 397 2633 464 
Q 2878 531 3122 666 
L 3122 134 
Q 2881 22 2623 -34 
Q 2366 -91 2075 -91 
Q 1284 -91 818 406 
Q 353 903 353 1747 
Q 353 2603 823 3093 
Q 1294 3584 2113 3584 
Q 2378 3584 2631 3529 
Q 2884 3475 3122 3366 
z
" transform="scale(0.015625)"/>
       <path id="DejaVuSans-79" d="M 2059 -325 
Q 1816 -950 1584 -1140 
Q 1353 -1331 966 -1331 
L 506 -1331 
L 506 -850 
L 844 -850 
Q 1081 -850 1212 -737 
Q 1344 -625 1503 -206 
L 1606 56 
L 191 3500 
L 800 3500 
L 1894 763 
L 2988 3500 
L 3597 3500 
L 2059 -325 
z
" transform="scale(0.015625)"/>
      </defs>
      <use xlink:href="#DejaVuSans-46"/>
      <use xlink:href="#DejaVuSans-72" x="50.269531"/>
      <use xlink:href="#DejaVuSans-65" x="89.132812"/>
      <use xlink:href="#DejaVuSans-71" x="150.65625"/>
      <use xlink:href="#DejaVuSans-75" x="214.132812"/>
      <use xlink:href="#DejaVuSans-65" x="277.511719"/>
      <use xlink:href="#DejaVuSans-6e" x="339.035156"/>
      <use xlink:href="#DejaVuSans-63" x="402.414062"/>
      <use xlink:href="#DejaVuSans-79" x="457.394531"/>
     </g>
    </g>
   </g>
   <g id="line2d_11">
    <path d="M 66.376477 202.498291 
L 69.655816 95.801639 
L 72.935155 45.699713 
L 76.214494 34.414125 
L 79.493833 48.187922 
L 82.773171 76.597304 
L 86.05251 111.953093 
L 89.331849 148.783226 
L 92.611188 183.3881 
L 95.890527 213.46124 
L 99.169866 237.768262 
L 102.449205 255.877647 
L 105.728543 267.937366 
L 109.007882 274.491827 
L 112.287221 276.334125 
L 115.56656 274.388947 
L 118.845899 269.621944 
L 122.125238 262.971736 
L 125.404576 255.301087 
L 128.683915 247.364128 
L 131.963254 239.786842 
L 135.242593 233.058305 
L 138.521932 227.530476 
L 141.801271 223.424579 
L 145.08061 220.842397 
L 148.359948 219.780969 
L 151.639287 220.14946 
L 154.918626 221.787117 
L 158.197965 224.481419 
L 161.477304 227.985712 
L 164.756643 232.035727 
L 168.035981 236.364556 
L 171.31532 240.715756 
L 174.594659 244.854359 
L 177.873998 248.575684 
L 181.153337 251.711894 
L 184.432676 254.136348 
L 187.712014 255.765836 
L 190.991353 256.560846 
L 194.270692 256.52405 
L 197.550031 255.69723 
L 200.82937 254.156889 
L 204.108709 252.008799 
L 207.388048 249.381767 
L 210.667386 246.420877 
L 213.946725 243.280477 
L 217.226064 240.117169 
L 220.505403 237.083035 
L 223.784742 234.319326 
L 227.064081 241.006732 
L 230.343419 241.006407 
L 233.622758 230.778505 
L 236.902097 229.918146 
L 240.181436 229.609509 
L 243.460775 229.857669 
L 246.740114 230.64252 
L 250.019452 231.919852 
L 253.298791 233.623364 
L 256.57813 235.667536 
L 259.857469 237.951279 
L 263.136808 240.362237 
L 266.416147 242.781611 
L 269.695486 245.089339 
L 272.974824 247.169452 
L 276.254163 248.915431 
L 279.533502 250.235356 
L 282.812841 251.056641 
L 286.09218 251.330162 
L 289.371519 251.03357 
L 292.650857 250.173601 
L 295.930196 248.787219 
L 299.209535 246.941433 
L 302.488874 244.731685 
L 305.768213 242.278707 
L 309.047552 239.723843 
L 312.32689 237.222824 
L 315.606229 234.938108 
L 318.885568 233.029924 
L 322.164907 231.646259 
L 325.444246 230.912126 
L 328.723585 230.918544 
L 332.002924 231.711771 
L 335.282262 233.283468 
L 338.561601 235.562609 
L 341.84094 238.410086 
L 345.120279 241.617141 
L 348.399618 244.908926 
L 351.678957 247.954672 
L 354.958295 250.386168 
L 358.237634 251.826458 
L 361.516973 251.930909 
L 364.796312 250.443038 
L 368.075651 247.267767 
L 371.35499 242.565046 
L 374.634329 236.867087 
L 377.913667 231.222773 
L 381.193006 227.373127 
L 384.472345 227.962099 
L 387.751684 236.787276 
L 391.031023 259.095532 
" clip-path="url(#p0f579bb211)" style="fill: none; stroke: #1f77b4; stroke-width: 1.5; stroke-linecap: square"/>
   </g>
   <g id="line2d_12">
    <path d="M 66.376477 244.316831 
L 68.815298 119.161476 
L 71.254118 55.598826 
L 73.692938 34.879602 
L 76.131758 42.415543 
L 78.570579 67.076593 
L 81.009399 100.578833 
L 83.448219 136.954401 
L 85.887039 172.09521 
L 88.32586 203.362879 
L 90.76468 229.257835 
L 93.2035 249.141064 
L 95.64232 263.0025 
L 98.081141 271.270514 
L 100.519961 274.657407 
L 102.958781 274.036272 
L 105.397602 270.344952 
L 107.836422 264.513248 
L 110.275242 257.409869 
L 112.714062 249.805978 
L 115.152883 242.352481 
L 117.591703 235.568545 
L 120.030523 229.839088 
L 122.469343 225.419259 
L 124.908164 222.444172 
L 127.346984 220.942386 
L 129.785804 220.851833 
L 132.224624 222.037097 
L 134.663445 224.30712 
L 137.102265 227.432588 
L 139.541085 231.16238 
L 141.979905 235.238612 
L 144.418726 239.409944 
L 146.857546 243.442884 
L 149.296366 247.130969 
L 151.735187 250.30176 
L 154.174007 252.82166 
L 156.612827 254.598641 
L 159.051647 255.583014 
L 161.490468 255.766403 
L 163.929288 255.179145 
L 166.368108 253.886344 
L 168.806928 251.982831 
L 171.245749 249.587278 
L 173.684569 246.835759 
L 176.123389 243.874983 
L 178.562209 240.855476 
L 181.00103 237.924949 
L 183.43985 235.222048 
L 185.87867 241.006431 
L 188.31749 241.006921 
L 190.756311 229.308383 
L 193.195131 228.177607 
L 195.633951 227.690317 
L 198.072772 227.858468 
L 200.511592 228.664053 
L 202.950412 230.060154 
L 205.389232 231.973123 
L 207.828053 234.305813 
L 210.266873 236.941762 
L 212.705693 239.750189 
L 215.144513 242.591643 
L 217.583334 245.324114 
L 220.022154 247.809405 
L 222.460974 249.919528 
L 224.899794 251.542901 
L 227.338615 252.590087 
L 229.777435 252.998841 
L 232.216255 252.738219 
L 234.655076 251.811516 
L 237.093896 250.257831 
L 239.532716 248.15207 
L 241.971536 245.603241 
L 244.410357 242.750944 
L 246.849177 239.759995 
L 249.287997 236.813211 
L 251.726817 234.102448 
L 254.165638 231.81806 
L 256.604458 230.137057 
L 259.043278 229.210358 
L 261.482098 229.149633 
L 263.920919 230.014393 
L 266.359739 231.800116 
L 268.798559 234.428378 
L 271.237379 237.740122 
L 273.6762 241.493416 
L 276.11502 245.367238 
L 278.55384 248.973085 
L 280.992661 251.876404 
L 283.431481 253.630172 
L 285.870301 253.823162 
L 288.309121 252.145797 
L 290.747942 248.476767 
L 293.186762 242.993961 
L 295.625582 236.313598 
L 298.064402 229.66185 
L 300.503223 225.083631 
L 302.942043 225.693671 
L 305.380863 235.975435 
L 307.819683 262.133913 
" clip-path="url(#p0f579bb211)" style="fill: none; stroke: #ff7f0e; stroke-width: 1.5; stroke-linecap: square"/>
   </g>
   <g id="line2d_13">
    <path d="M 66.376477 248.65235 
L 66.806097 234.172305 
L 67.235716 229.644021 
L 67.665335 231.026791 
L 68.094955 235.334203 
L 68.524574 240.439979 
L 68.954193 244.909998 
L 69.383813 247.857942 
L 69.813432 248.822157 
L 70.243052 247.661481 
L 70.672671 244.467984 
L 71.10229 239.494711 
L 71.53191 233.096632 
L 71.961529 225.683214 
L 72.391148 217.681093 
L 72.820768 209.505495 
L 73.250387 201.539164 
L 73.680006 194.117662 
L 74.109626 187.520029 
L 74.539245 181.963872 
L 74.968865 177.604069 
L 75.398484 174.534346 
L 75.828103 172.791083 
L 76.257723 172.358776 
L 76.687342 173.17665 
L 77.116961 175.146002 
L 77.546581 178.137897 
L 77.9762 182.00092 
L 78.405819 186.568713 
L 78.835439 191.667096 
L 79.265058 197.120616 
L 79.694678 202.75839 
L 80.124297 208.419166 
L 80.553916 213.955534 
L 80.983536 219.237282 
L 81.413155 224.153877 
L 81.842774 228.616108 
L 82.272394 232.556918 
L 82.702013 235.931495 
L 83.131632 238.716676 
L 83.561252 240.909754 
L 83.990871 242.526765 
L 84.420491 243.600353 
L 84.85011 244.177299 
L 85.279729 244.315815 
L 85.709349 244.082688 
L 86.138968 243.550376 
L 86.568587 242.794126 
L 86.998207 241.889203 
L 87.427826 241.002762 
L 87.857445 241.003437 
L 88.287065 238.363515 
L 88.716684 237.417205 
L 89.146304 236.652973 
L 89.575923 236.105323 
L 90.005542 235.795753 
L 90.435162 235.732633 
L 90.864781 235.911552 
L 91.2944 236.316124 
L 91.72402 236.9192 
L 92.153639 237.684465 
L 92.583258 238.56835 
L 93.012878 239.522206 
L 93.442497 240.494653 
L 93.872117 241.434041 
L 94.301736 242.290927 
L 94.731355 243.020484 
L 95.160975 243.584741 
L 95.590594 243.954585 
L 96.020213 244.111407 
L 96.449833 244.048338 
L 96.879452 243.770974 
L 97.309072 243.297544 
L 97.738691 242.658459 
L 98.16831 241.895203 
L 98.59793 241.058571 
L 99.027549 240.206233 
L 99.457168 239.399686 
L 99.886788 238.700654 
L 100.316407 238.16703 
L 100.746026 237.848522 
L 101.175646 237.782171 
L 101.605265 237.987999 
L 102.034885 238.465068 
L 102.464504 239.188296 
L 102.894123 240.106461 
L 103.323743 241.141873 
L 103.753362 242.192268 
L 104.182981 243.135587 
L 104.612601 243.838348 
L 105.04222 244.16846 
L 105.471839 244.01339 
L 105.901459 243.304728 
L 106.331078 242.050278 
L 106.760698 240.374974 
L 107.190317 238.571988 
L 107.619936 237.165576 
L 108.049556 236.98734 
L 108.479175 239.267717 
L 108.908794 245.744698 
" clip-path="url(#p0f579bb211)" style="fill: none; stroke: #2ca02c; stroke-width: 1.5; stroke-linecap: square"/>
   </g>
   <g id="line2d_14">
    <path d="M 66.376477 228.01316 
L 68.068021 156.876625 
L 69.759566 116.251163 
L 71.45111 97.928241 
L 73.142654 95.341314 
L 74.834198 103.311645 
L 76.525742 117.8246 
L 78.217287 135.83368 
L 79.908831 155.089674 
L 81.600375 173.992542 
L 83.291919 191.463754 
L 84.983463 206.837017 
L 86.675008 219.765433 
L 88.366552 230.1433 
L 90.058096 238.040898 
L 91.74964 243.650723 
L 93.441184 247.243779 
L 95.132728 249.134627 
L 96.824273 249.654034 
L 98.515817 249.128136 
L 100.207361 247.86316 
L 101.898905 246.134821 
L 103.590449 244.181618 
L 105.281994 242.201313 
L 106.973538 240.349979 
L 108.665082 238.743061 
L 110.356626 237.457962 
L 112.04817 236.53774 
L 113.739715 235.99554 
L 115.431259 235.819472 
L 117.122803 235.977645 
L 118.814347 236.423182 
L 120.505891 237.098997 
L 122.197436 237.942245 
L 123.88898 238.888301 
L 125.580524 239.87423 
L 127.272068 240.841674 
L 128.963612 241.739164 
L 130.655156 242.523827 
L 132.346701 243.162526 
L 134.038245 243.632452 
L 135.729789 243.921219 
L 137.421333 244.026508 
L 139.112877 243.955322 
L 140.804422 243.722924 
L 142.495966 243.351512 
L 144.18751 242.868719 
L 145.879054 242.305987 
L 147.570598 241.696904 
L 149.262143 241.00312 
L 150.953687 241.004206 
L 152.645231 237.315606 
L 154.336775 236.570252 
L 156.028319 236.065733 
L 157.719864 235.822108 
L 159.411408 235.846638 
L 161.102952 236.133657 
L 162.794496 236.664975 
L 164.48604 237.410787 
L 166.177584 238.331064 
L 167.869129 239.377374 
L 169.560673 240.495071 
L 171.252217 241.625782 
L 172.943761 242.710095 
L 174.635305 243.690364 
L 176.32685 244.513514 
L 178.018394 245.133756 
L 179.709938 245.515065 
L 181.401482 245.633354 
L 183.093026 245.478186 
L 184.784571 245.053962 
L 186.476115 244.380457 
L 188.167659 243.492646 
L 189.859203 242.439749 
L 191.550747 241.283452 
L 193.242291 240.095293 
L 194.933836 238.953237 
L 196.62538 237.937479 
L 198.316924 237.125596 
L 200.008468 236.587172 
L 201.700012 236.378111 
L 203.391557 236.534899 
L 205.083101 237.069127 
L 206.774645 237.962707 
L 208.466189 239.164239 
L 210.157733 240.58711 
L 211.849278 242.11 
L 213.540822 243.580565 
L 215.232366 244.823176 
L 216.92391 245.651732 
L 218.615454 245.888669 
L 220.306999 245.391456 
L 221.998543 244.087988 
L 223.690087 242.022464 
L 225.381631 239.413487 
L 227.073175 236.726326 
L 228.764719 234.761437 
L 230.456264 234.761566 
L 232.147808 238.539944 
L 233.839352 248.632323 
" clip-path="url(#p0f579bb211)" style="fill: none; stroke: #d62728; stroke-width: 1.5; stroke-linecap: square"/>
   </g>
   <g id="line2d_15">
    <path d="M 66.376477 251.771108 
L 69.430359 131.276794 
L 72.484241 67.966263 
L 75.538122 44.852561 
L 78.592004 48.649572 
L 81.645885 69.155971 
L 84.699767 98.717799 
L 87.753649 131.76212 
L 90.80753 164.394758 
L 93.861412 194.05558 
L 96.915294 219.225278 
L 99.969175 239.178043 
L 103.023057 253.774946 
L 106.076939 263.293268 
L 109.13082 268.287378 
L 112.184702 269.477153 
L 115.238583 267.660258 
L 118.292465 263.644954 
L 121.346347 258.200391 
L 124.400228 252.021664 
L 127.45411 245.70715 
L 130.507992 239.745938 
L 133.561873 234.513387 
L 136.615755 230.27307 
L 139.669636 227.183597 
L 142.723518 225.308982 
L 145.7774 224.63141 
L 148.831281 225.065434 
L 151.885163 226.472785 
L 154.939045 228.677106 
L 157.992926 231.478079 
L 161.046808 234.664495 
L 164.10069 238.025963 
L 167.154571 241.363013 
L 170.208453 244.495455 
L 173.262334 247.268918 
L 176.316216 249.559574 
L 179.370098 251.277078 
L 182.423979 252.365834 
L 185.477861 252.804719 
L 188.531743 252.605422 
L 191.585624 251.809594 
L 194.639506 250.485007 
L 197.693388 248.720948 
L 200.747269 246.623054 
L 203.801151 244.307815 
L 206.855032 241.896952 
L 209.908914 239.511885 
L 212.962796 237.268461 
L 216.016677 241.005569 
L 219.070559 241.006345 
L 222.124441 231.178282 
L 225.178322 230.030556 
L 228.232204 229.445464 
L 231.286086 229.440761 
L 234.339967 230.007289 
L 237.393849 231.109663 
L 240.44773 232.687988 
L 243.501612 234.660544 
L 246.555494 236.927363 
L 249.609375 239.374568 
L 252.663257 241.879334 
L 255.717139 244.31531 
L 258.77102 246.55832 
L 261.824902 248.492124 
L 264.878783 250.014048 
L 267.932665 251.040243 
L 270.986547 251.510359 
L 274.040428 251.391416 
L 277.09431 250.68065 
L 280.148192 249.407152 
L 283.202073 247.632123 
L 286.255955 245.447603 
L 289.309837 242.973585 
L 292.363718 240.353443 
L 295.4176 237.747698 
L 298.471481 235.326185 
L 301.525363 233.258765 
L 304.579245 231.704835 
L 307.633126 230.801956 
L 310.687008 230.654057 
L 313.74089 231.319786 
L 316.794771 232.801703 
L 319.848653 235.037191 
L 322.902535 237.89209 
L 325.956416 241.158248 
L 329.010298 244.556397 
L 332.064179 247.745928 
L 335.118061 250.343401 
L 338.171943 251.951837 
L 341.225824 252.203126 
L 344.279706 250.816114 
L 347.333588 247.673277 
L 350.387469 242.919156 
L 353.441351 237.084079 
L 356.495233 231.237037 
L 359.549114 227.171952 
L 362.602996 227.631957 
L 365.656877 236.576727 
L 368.710759 259.498324 
" clip-path="url(#p0f579bb211)" style="fill: none; stroke: #9467bd; stroke-width: 1.5; stroke-linecap: square"/>
   </g>
   <g id="line2d_16">
    <path d="M 66.376477 241.31029 
L 66.68301 242.462451 
L 66.989543 241.849177 
L 67.296076 240.547709 
L 67.602609 239.240971 
L 67.909142 238.310967 
L 68.215675 237.916961 
L 68.522208 238.060178 
L 68.828741 238.63663 
L 69.135274 239.47952 
L 69.441807 240.392605 
L 69.748339 241.175717 
L 70.054872 241.643596 
L 70.361405 241.63904 
L 70.667938 241.0413 
L 70.974471 239.770548 
L 71.281004 237.789167 
L 71.587537 235.100521 
L 71.89407 231.745791 
L 72.200603 227.799394 
L 72.507136 223.363428 
L 72.813669 218.561535 
L 73.120202 213.532505 
L 73.426735 208.423898 
L 73.733267 203.385916 
L 74.0398 198.565698 
L 74.346333 194.102184 
L 74.652866 190.121662 
L 74.959399 186.734049 
L 75.265932 184.029975 
L 75.572465 182.078659 
L 75.878998 180.926592 
L 76.185531 180.596993 
L 76.492064 181.089986 
L 76.798597 182.383458 
L 77.10513 184.434508 
L 77.411663 187.181434 
L 77.718196 190.546144 
L 78.024728 194.436935 
L 78.331261 198.751514 
L 78.637794 203.380202 
L 78.944327 208.2092 
L 79.25086 213.123863 
L 79.557393 218.011861 
L 79.863926 222.766183 
L 80.170459 227.287891 
L 80.476992 231.488576 
L 80.783525 235.29245 
L 81.090058 238.638041 
L 81.396591 240.996881 
L 81.703124 240.997344 
L 82.009656 245.285032 
L 82.316189 246.599087 
L 82.622722 247.40045 
L 82.929255 247.718536 
L 83.235788 247.595692 
L 83.542321 247.085553 
L 83.848854 246.251101 
L 84.155387 245.162449 
L 84.46192 243.894432 
L 84.768453 242.524057 
L 85.074986 241.127876 
L 85.381519 239.779367 
L 85.688052 238.54639 
L 85.994584 237.488796 
L 86.301117 236.656266 
L 86.60765 236.086466 
L 86.914183 235.80357 
L 87.220716 235.817236 
L 87.527249 236.122087 
L 87.833782 236.69775 
L 88.140315 237.509485 
L 88.446848 238.509446 
L 88.753381 239.63856 
L 89.059914 240.829032 
L 89.366447 242.007434 
L 89.67298 243.098328 
L 89.979513 244.028333 
L 90.286045 244.730521 
L 90.592578 245.148997 
L 90.899111 245.243475 
L 91.205644 244.993625 
L 91.512177 244.402907 
L 91.81871 243.501593 
L 92.125243 242.348588 
L 92.431776 241.031625 
L 92.738309 239.665359 
L 93.044842 238.386785 
L 93.351375 237.347375 
L 93.657908 236.70124 
L 93.964441 236.588534 
L 94.270973 237.113246 
L 94.577506 238.314454 
L 94.884039 240.129981 
L 95.190572 242.351339 
L 95.497105 244.568716 
L 95.803638 246.104666 
L 96.110171 245.935042 
L 96.416704 242.595597 
L 96.723237 234.072549 
" clip-path="url(#p0f579bb211)" style="fill: none; stroke: #8c564b; stroke-width: 1.5; stroke-linecap: square"/>
   </g>
   <g id="patch_3">
    <path d="M 50.14375 288.430125 
L 50.14375 22.318125 
" style="fill: none; stroke: #000000; stroke-width: 0.8; stroke-linejoin: miter; stroke-linecap: square"/>
   </g>
   <g id="patch_4">
    <path d="M 407.26375 288.430125 
L 407.26375 22.318125 
" style="fill: none; stroke: #000000; stroke-width: 0.8; stroke-linejoin: miter; stroke-linecap: square"/>
   </g>
   <g id="patch_5">
    <path d="M 50.14375 288.430125 
L 407.26375 288.430125 
" style="fill: none; stroke: #000000; stroke-width: 0.8; stroke-linejoin: miter; stroke-linecap: square"/>
   </g>
   <g id="patch_6">
    <path d="M 50.14375 22.318125 
L 407.26375 22.318125 
" style="fill: none; stroke: #000000; stroke-width: 0.8; stroke-linejoin: miter; stroke-linecap: square"/>
   </g>
   <g id="text_13">
    <!-- AD - xtract_prob_Corticospinal_Tract_R -->
    <g transform="translate(112.87375 16.318125) scale(0.12 -0.12)">
     <defs>
      <path id="DejaVuSans-41" d="M 2188 4044 
L 1331 1722 
L 3047 1722 
L 2188 4044 
z
M 1831 4666 
L 2547 4666 
L 4325 0 
L 3669 0 
L 3244 1197 
L 1141 1197 
L 716 0 
L 50 0 
L 1831 4666 
z
" transform="scale(0.015625)"/>
      <path id="DejaVuSans-44" d="M 1259 4147 
L 1259 519 
L 2022 519 
Q 2988 519 3436 956 
Q 3884 1394 3884 2338 
Q 3884 3275 3436 3711 
Q 2988 4147 2022 4147 
L 1259 4147 
z
M 628 4666 
L 1925 4666 
Q 3281 4666 3915 4102 
Q 4550 3538 4550 2338 
Q 4550 1131 3912 565 
Q 3275 0 1925 0 
L 628 0 
L 628 4666 
z
" transform="scale(0.015625)"/>
      <path id="DejaVuSans-2d" d="M 313 2009 
L 1997 2009 
L 1997 1497 
L 313 1497 
L 313 2009 
z
" transform="scale(0.015625)"/>
      <path id="DejaVuSans-74" d="M 1172 4494 
L 1172 3500 
L 2356 3500 
L 2356 3053 
L 1172 3053 
L 1172 1153 
Q 1172 725 1289 603 
Q 1406 481 1766 481 
L 2356 481 
L 2356 0 
L 1766 0 
Q 1100 0 847 248 
Q 594 497 594 1153 
L 594 3053 
L 172 3053 
L 172 3500 
L 594 3500 
L 594 4494 
L 1172 4494 
z
" transform="scale(0.015625)"/>
      <path id="DejaVuSans-5f" d="M 3263 -1063 
L 3263 -1509 
L -63 -1509 
L -63 -1063 
L 3263 -1063 
z
" transform="scale(0.015625)"/>
      <path id="DejaVuSans-70" d="M 1159 525 
L 1159 -1331 
L 581 -1331 
L 581 3500 
L 1159 3500 
L 1159 2969 
Q 1341 3281 1617 3432 
Q 1894 3584 2278 3584 
Q 2916 3584 3314 3078 
Q 3713 2572 3713 1747 
Q 3713 922 3314 415 
Q 2916 -91 2278 -91 
Q 1894 -91 1617 61 
Q 1341 213 1159 525 
z
M 3116 1747 
Q 3116 2381 2855 2742 
Q 2594 3103 2138 3103 
Q 1681 3103 1420 2742 
Q 1159 2381 1159 1747 
Q 1159 1113 1420 752 
Q 1681 391 2138 391 
Q 2594 391 2855 752 
Q 3116 1113 3116 1747 
z
" transform="scale(0.015625)"/>
      <path id="DejaVuSans-6f" d="M 1959 3097 
Q 1497 3097 1228 2736 
Q 959 2375 959 1747 
Q 959 1119 1226 758 
Q 1494 397 1959 397 
Q 2419 397 2687 759 
Q 2956 1122 2956 1747 
Q 2956 2369 2687 2733 
Q 2419 3097 1959 3097 
z
M 1959 3584 
Q 2709 3584 3137 3096 
Q 3566 2609 3566 1747 
Q 3566 888 3137 398 
Q 2709 -91 1959 -91 
Q 1206 -91 779 398 
Q 353 888 353 1747 
Q 353 2609 779 3096 
Q 1206 3584 1959 3584 
z
" transform="scale(0.015625)"/>
      <path id="DejaVuSans-62" d="M 3116 1747 
Q 3116 2381 2855 2742 
Q 2594 3103 2138 3103 
Q 1681 3103 1420 2742 
Q 1159 2381 1159 1747 
Q 1159 1113 1420 752 
Q 1681 391 2138 391 
Q 2594 391 2855 752 
Q 3116 1113 3116 1747 
z
M 1159 2969 
Q 1341 3281 1617 3432 
Q 1894 3584 2278 3584 
Q 2916 3584 3314 3078 
Q 3713 2572 3713 1747 
Q 3713 922 3314 415 
Q 2916 -91 2278 -91 
Q 1894 -91 1617 61 
Q 1341 213 1159 525 
L 1159 0 
L 581 0 
L 581 4863 
L 1159 4863 
L 1159 2969 
z
" transform="scale(0.015625)"/>
      <path id="DejaVuSans-43" d="M 4122 4306 
L 4122 3641 
Q 3803 3938 3442 4084 
Q 3081 4231 2675 4231 
Q 1875 4231 1450 3742 
Q 1025 3253 1025 2328 
Q 1025 1406 1450 917 
Q 1875 428 2675 428 
Q 3081 428 3442 575 
Q 3803 722 4122 1019 
L 4122 359 
Q 3791 134 3420 21 
Q 3050 -91 2638 -91 
Q 1578 -91 968 557 
Q 359 1206 359 2328 
Q 359 3453 968 4101 
Q 1578 4750 2638 4750 
Q 3056 4750 3426 4639 
Q 3797 4528 4122 4306 
z
" transform="scale(0.015625)"/>
      <path id="DejaVuSans-54" d="M -19 4666 
L 3928 4666 
L 3928 4134 
L 2272 4134 
L 2272 0 
L 1638 0 
L 1638 4134 
L -19 4134 
L -19 4666 
z
" transform="scale(0.015625)"/>
      <path id="DejaVuSans-52" d="M 2841 2188 
Q 3044 2119 3236 1894 
Q 3428 1669 3622 1275 
L 4263 0 
L 3584 0 
L 2988 1197 
Q 2756 1666 2539 1819 
Q 2322 1972 1947 1972 
L 1259 1972 
L 1259 0 
L 628 0 
L 628 4666 
L 2053 4666 
Q 2853 4666 3247 4331 
Q 3641 3997 3641 3322 
Q 3641 2881 3436 2590 
Q 3231 2300 2841 2188 
z
M 1259 4147 
L 1259 2491 
L 2053 2491 
Q 2509 2491 2742 2702 
Q 2975 2913 2975 3322 
Q 2975 3731 2742 3939 
Q 2509 4147 2053 4147 
L 1259 4147 
z
" transform="scale(0.015625)"/>
     </defs>
     <use xlink:href="#DejaVuSans-41"/>
     <use xlink:href="#DejaVuSans-44" x="68.408203"/>
     <use xlink:href="#DejaVuSans-20" x="145.410156"/>
     <use xlink:href="#DejaVuSans-2d" x="177.197266"/>
     <use xlink:href="#DejaVuSans-20" x="213.28125"/>
     <use xlink:href="#DejaVuSans-78" x="245.068359"/>
     <use xlink:href="#DejaVuSans-74" x="304.248047"/>
     <use xlink:href="#DejaVuSans-72" x="343.457031"/>
     <use xlink:href="#DejaVuSans-61" x="384.570312"/>
     <use xlink:href="#DejaVuSans-63" x="445.849609"/>
     <use xlink:href="#DejaVuSans-74" x="500.830078"/>
     <use xlink:href="#DejaVuSans-5f" x="540.039062"/>
     <use xlink:href="#DejaVuSans-70" x="590.039062"/>
     <use xlink:href="#DejaVuSans-72" x="653.515625"/>
     <use xlink:href="#DejaVuSans-6f" x="692.378906"/>
     <use xlink:href="#DejaVuSans-62" x="753.560547"/>
     <use xlink:href="#DejaVuSans-5f" x="817.037109"/>
     <use xlink:href="#DejaVuSans-43" x="867.037109"/>
     <use xlink:href="#DejaVuSans-6f" x="936.861328"/>
     <use xlink:href="#DejaVuSans-72" x="998.042969"/>
     <use xlink:href="#DejaVuSans-74" x="1039.15625"/>
     <use xlink:href="#DejaVuSans-69" x="1078.365234"/>
     <use xlink:href="#DejaVuSans-63" x="1106.148438"/>
     <use xlink:href="#DejaVuSans-6f" x="1161.128906"/>
     <use xlink:href="#DejaVuSans-73" x="1222.310547"/>
     <use xlink:href="#DejaVuSans-70" x="1274.410156"/>
     <use xlink:href="#DejaVuSans-69" x="1337.886719"/>
     <use xlink:href="#DejaVuSans-6e" x="1365.669922"/>
     <use xlink:href="#DejaVuSans-61" x="1429.048828"/>
     <use xlink:href="#DejaVuSans-6c" x="1490.328125"/>
     <use xlink:href="#DejaVuSans-5f" x="1518.111328"/>
     <use xlink:href="#DejaVuSans-54" x="1568.111328"/>
     <use xlink:href="#DejaVuSans-72" x="1614.445312"/>
     <use xlink:href="#DejaVuSans-61" x="1655.558594"/>
     <use xlink:href="#DejaVuSans-63" x="1716.837891"/>
     <use xlink:href="#DejaVuSans-74" x="1771.818359"/>
     <use xlink:href="#DejaVuSans-5f" x="1811.027344"/>
     <use xlink:href="#DejaVuSans-52" x="1861.027344"/>
    </g>
   </g>
   <g id="legend_1">
    <g id="patch_7">
     <path d="M 449.97575 146.666825 
L 547.832 146.666825 
Q 549.832 146.666825 549.832 144.666825 
L 549.832 55.929325 
Q 549.832 53.929325 547.832 53.929325 
L 449.97575 53.929325 
Q 447.97575 53.929325 447.97575 55.929325 
L 447.97575 144.666825 
Q 447.97575 146.666825 449.97575 146.666825 
z
" style="fill: #ffffff; opacity: 0.8; stroke: #cccccc; stroke-linejoin: miter"/>
    </g>
    <g id="line2d_17">
     <path d="M 451.97575 62.027762 
L 461.97575 62.027762 
L 471.97575 62.027762 
" style="fill: none; stroke: #1f77b4; stroke-width: 1.5; stroke-linecap: square"/>
    </g>
    <g id="text_14">
     <!-- 20_06_02_E3 -->
     <g transform="translate(479.97575 65.527762) scale(0.1 -0.1)">
      <defs>
       <path id="DejaVuSans-36" d="M 2113 2584 
Q 1688 2584 1439 2293 
Q 1191 2003 1191 1497 
Q 1191 994 1439 701 
Q 1688 409 2113 409 
Q 2538 409 2786 701 
Q 3034 994 3034 1497 
Q 3034 2003 2786 2293 
Q 2538 2584 2113 2584 
z
M 3366 4563 
L 3366 3988 
Q 3128 4100 2886 4159 
Q 2644 4219 2406 4219 
Q 1781 4219 1451 3797 
Q 1122 3375 1075 2522 
Q 1259 2794 1537 2939 
Q 1816 3084 2150 3084 
Q 2853 3084 3261 2657 
Q 3669 2231 3669 1497 
Q 3669 778 3244 343 
Q 2819 -91 2113 -91 
Q 1303 -91 875 529 
Q 447 1150 447 2328 
Q 447 3434 972 4092 
Q 1497 4750 2381 4750 
Q 2619 4750 2861 4703 
Q 3103 4656 3366 4563 
z
" transform="scale(0.015625)"/>
       <path id="DejaVuSans-45" d="M 628 4666 
L 3578 4666 
L 3578 4134 
L 1259 4134 
L 1259 2753 
L 3481 2753 
L 3481 2222 
L 1259 2222 
L 1259 531 
L 3634 531 
L 3634 0 
L 628 0 
L 628 4666 
z
" transform="scale(0.015625)"/>
       <path id="DejaVuSans-33" d="M 2597 2516 
Q 3050 2419 3304 2112 
Q 3559 1806 3559 1356 
Q 3559 666 3084 287 
Q 2609 -91 1734 -91 
Q 1441 -91 1130 -33 
Q 819 25 488 141 
L 488 750 
Q 750 597 1062 519 
Q 1375 441 1716 441 
Q 2309 441 2620 675 
Q 2931 909 2931 1356 
Q 2931 1769 2642 2001 
Q 2353 2234 1838 2234 
L 1294 2234 
L 1294 2753 
L 1863 2753 
Q 2328 2753 2575 2939 
Q 2822 3125 2822 3475 
Q 2822 3834 2567 4026 
Q 2313 4219 1838 4219 
Q 1578 4219 1281 4162 
Q 984 4106 628 3988 
L 628 4550 
Q 988 4650 1302 4700 
Q 1616 4750 1894 4750 
Q 2613 4750 3031 4423 
Q 3450 4097 3450 3541 
Q 3450 3153 3228 2886 
Q 3006 2619 2597 2516 
z
" transform="scale(0.015625)"/>
      </defs>
      <use xlink:href="#DejaVuSans-32"/>
      <use xlink:href="#DejaVuSans-30" x="63.623047"/>
      <use xlink:href="#DejaVuSans-5f" x="127.246094"/>
      <use xlink:href="#DejaVuSans-30" x="177.246094"/>
      <use xlink:href="#DejaVuSans-36" x="240.869141"/>
      <use xlink:href="#DejaVuSans-5f" x="304.492188"/>
      <use xlink:href="#DejaVuSans-30" x="354.492188"/>
      <use xlink:href="#DejaVuSans-32" x="418.115234"/>
      <use xlink:href="#DejaVuSans-5f" x="481.738281"/>
      <use xlink:href="#DejaVuSans-45" x="531.738281"/>
      <use xlink:href="#DejaVuSans-33" x="594.921875"/>
     </g>
    </g>
    <g id="line2d_18">
     <path d="M 451.97575 76.984013 
L 461.97575 76.984013 
L 471.97575 76.984013 
" style="fill: none; stroke: #ff7f0e; stroke-width: 1.5; stroke-linecap: square"/>
    </g>
    <g id="text_15">
     <!-- 20_05_01_E3 -->
     <g transform="translate(479.97575 80.484013) scale(0.1 -0.1)">
      <use xlink:href="#DejaVuSans-32"/>
      <use xlink:href="#DejaVuSans-30" x="63.623047"/>
      <use xlink:href="#DejaVuSans-5f" x="127.246094"/>
      <use xlink:href="#DejaVuSans-30" x="177.246094"/>
      <use xlink:href="#DejaVuSans-35" x="240.869141"/>
      <use xlink:href="#DejaVuSans-5f" x="304.492188"/>
      <use xlink:href="#DejaVuSans-30" x="354.492188"/>
      <use xlink:href="#DejaVuSans-31" x="418.115234"/>
      <use xlink:href="#DejaVuSans-5f" x="481.738281"/>
      <use xlink:href="#DejaVuSans-45" x="531.738281"/>
      <use xlink:href="#DejaVuSans-33" x="594.921875"/>
     </g>
    </g>
    <g id="line2d_19">
     <path d="M 451.97575 91.940262 
L 461.97575 91.940262 
L 471.97575 91.940262 
" style="fill: none; stroke: #2ca02c; stroke-width: 1.5; stroke-linecap: square"/>
    </g>
    <g id="text_16">
     <!-- 20_02_02_E3 -->
     <g transform="translate(479.97575 95.440262) scale(0.1 -0.1)">
      <use xlink:href="#DejaVuSans-32"/>
      <use xlink:href="#DejaVuSans-30" x="63.623047"/>
      <use xlink:href="#DejaVuSans-5f" x="127.246094"/>
      <use xlink:href="#DejaVuSans-30" x="177.246094"/>
      <use xlink:href="#DejaVuSans-32" x="240.869141"/>
      <use xlink:href="#DejaVuSans-5f" x="304.492188"/>
      <use xlink:href="#DejaVuSans-30" x="354.492188"/>
      <use xlink:href="#DejaVuSans-32" x="418.115234"/>
      <use xlink:href="#DejaVuSans-5f" x="481.738281"/>
      <use xlink:href="#DejaVuSans-45" x="531.738281"/>
      <use xlink:href="#DejaVuSans-33" x="594.921875"/>
     </g>
    </g>
    <g id="line2d_20">
     <path d="M 451.97575 106.896513 
L 461.97575 106.896513 
L 471.97575 106.896513 
" style="fill: none; stroke: #d62728; stroke-width: 1.5; stroke-linecap: square"/>
    </g>
    <g id="text_17">
     <!-- 20_10_02_E3 -->
     <g transform="translate(479.97575 110.396513) scale(0.1 -0.1)">
      <use xlink:href="#DejaVuSans-32"/>
      <use xlink:href="#DejaVuSans-30" x="63.623047"/>
      <use xlink:href="#DejaVuSans-5f" x="127.246094"/>
      <use xlink:href="#DejaVuSans-31" x="177.246094"/>
      <use xlink:href="#DejaVuSans-30" x="240.869141"/>
      <use xlink:href="#DejaVuSans-5f" x="304.492188"/>
      <use xlink:href="#DejaVuSans-30" x="354.492188"/>
      <use xlink:href="#DejaVuSans-32" x="418.115234"/>
      <use xlink:href="#DejaVuSans-5f" x="481.738281"/>
      <use xlink:href="#DejaVuSans-45" x="531.738281"/>
      <use xlink:href="#DejaVuSans-33" x="594.921875"/>
     </g>
    </g>
    <g id="line2d_21">
     <path d="M 451.97575 121.852762 
L 461.97575 121.852762 
L 471.97575 121.852762 
" style="fill: none; stroke: #9467bd; stroke-width: 1.5; stroke-linecap: square"/>
    </g>
    <g id="text_18">
     <!-- 20_08_02_E3 -->
     <g transform="translate(479.97575 125.352762) scale(0.1 -0.1)">
      <defs>
       <path id="DejaVuSans-38" d="M 2034 2216 
Q 1584 2216 1326 1975 
Q 1069 1734 1069 1313 
Q 1069 891 1326 650 
Q 1584 409 2034 409 
Q 2484 409 2743 651 
Q 3003 894 3003 1313 
Q 3003 1734 2745 1975 
Q 2488 2216 2034 2216 
z
M 1403 2484 
Q 997 2584 770 2862 
Q 544 3141 544 3541 
Q 544 4100 942 4425 
Q 1341 4750 2034 4750 
Q 2731 4750 3128 4425 
Q 3525 4100 3525 3541 
Q 3525 3141 3298 2862 
Q 3072 2584 2669 2484 
Q 3125 2378 3379 2068 
Q 3634 1759 3634 1313 
Q 3634 634 3220 271 
Q 2806 -91 2034 -91 
Q 1263 -91 848 271 
Q 434 634 434 1313 
Q 434 1759 690 2068 
Q 947 2378 1403 2484 
z
M 1172 3481 
Q 1172 3119 1398 2916 
Q 1625 2713 2034 2713 
Q 2441 2713 2670 2916 
Q 2900 3119 2900 3481 
Q 2900 3844 2670 4047 
Q 2441 4250 2034 4250 
Q 1625 4250 1398 4047 
Q 1172 3844 1172 3481 
z
" transform="scale(0.015625)"/>
      </defs>
      <use xlink:href="#DejaVuSans-32"/>
      <use xlink:href="#DejaVuSans-30" x="63.623047"/>
      <use xlink:href="#DejaVuSans-5f" x="127.246094"/>
      <use xlink:href="#DejaVuSans-30" x="177.246094"/>
      <use xlink:href="#DejaVuSans-38" x="240.869141"/>
      <use xlink:href="#DejaVuSans-5f" x="304.492188"/>
      <use xlink:href="#DejaVuSans-30" x="354.492188"/>
      <use xlink:href="#DejaVuSans-32" x="418.115234"/>
      <use xlink:href="#DejaVuSans-5f" x="481.738281"/>
      <use xlink:href="#DejaVuSans-45" x="531.738281"/>
      <use xlink:href="#DejaVuSans-33" x="594.921875"/>
     </g>
    </g>
    <g id="line2d_22">
     <path d="M 451.97575 136.809012 
L 461.97575 136.809012 
L 471.97575 136.809012 
" style="fill: none; stroke: #8c564b; stroke-width: 1.5; stroke-linecap: square"/>
    </g>
    <g id="text_19">
     <!-- 20_11_02_E3 -->
     <g transform="translate(479.97575 140.309012) scale(0.1 -0.1)">
      <use xlink:href="#DejaVuSans-32"/>
      <use xlink:href="#DejaVuSans-30" x="63.623047"/>
      <use xlink:href="#DejaVuSans-5f" x="127.246094"/>
      <use xlink:href="#DejaVuSans-31" x="177.246094"/>
      <use xlink:href="#DejaVuSans-31" x="240.869141"/>
      <use xlink:href="#DejaVuSans-5f" x="304.492188"/>
      <use xlink:href="#DejaVuSans-30" x="354.492188"/>
      <use xlink:href="#DejaVuSans-32" x="418.115234"/>
      <use xlink:href="#DejaVuSans-5f" x="481.738281"/>
      <use xlink:href="#DejaVuSans-45" x="531.738281"/>
      <use xlink:href="#DejaVuSans-33" x="594.921875"/>
     </g>
    </g>
   </g>
  </g>
 </g>
 <defs>
  <clipPath id="p0f579bb211">
   <rect x="50.14375" y="22.318125" width="357.12" height="266.112"/>
  </clipPath>
 </defs>
</svg>
