<?xml version="1.0" encoding="utf-8" standalone="no"?>
<!DOCTYPE svg PUBLIC "-//W3C//DTD SVG 1.1//EN"
  "http://www.w3.org/Graphics/SVG/1.1/DTD/svg11.dtd">
<svg xmlns:xlink="http://www.w3.org/1999/xlink" width="563.3945pt" height="325.986375pt" viewBox="0 0 563.3945 325.986375" xmlns="http://www.w3.org/2000/svg" version="1.1">
 <metadata>
  <rdf:RDF xmlns:dc="http://purl.org/dc/elements/1.1/" xmlns:cc="http://creativecommons.org/ns#" xmlns:rdf="http://www.w3.org/1999/02/22-rdf-syntax-ns#">
   <cc:Work>
    <dc:type rdf:resource="http://purl.org/dc/dcmitype/StillImage"/>
    <dc:date>2023-02-07T22:59:55.874151</dc:date>
    <dc:format>image/svg+xml</dc:format>
    <dc:creator>
     <cc:Agent>
      <dc:title>Matplotlib v3.6.2, https://matplotlib.org/</dc:title>
     </cc:Agent>
    </dc:creator>
   </cc:Work>
  </rdf:RDF>
 </metadata>
 <defs>
  <style type="text/css">*{stroke-linejoin: round; stroke-linecap: butt}</style>
 </defs>
 <g id="figure_1">
  <g id="patch_1">
   <path d="M 0 325.986375 
L 563.3945 325.986375 
L 563.3945 0 
L 0 0 
z
" style="fill: #ffffff"/>
  </g>
  <g id="axes_1">
   <g id="patch_2">
    <path d="M 56.50625 288.430125 
L 413.62625 288.430125 
L 413.62625 22.318125 
L 56.50625 22.318125 
z
" style="fill: #ffffff"/>
   </g>
   <g id="PolyCollection_1">
    <path d="M 72.738977 267.313779 
L 72.738977 256.35092 
L 76.018315 256.35092 
L 79.297653 256.35092 
L 82.576991 256.35092 
L 85.85633 256.35092 
L 89.135668 256.35092 
L 92.415006 256.35092 
L 95.694344 256.35092 
L 98.973682 256.35092 
L 102.25302 256.35092 
L 105.532358 256.35092 
L 108.811696 256.35092 
L 112.091034 256.35092 
L 115.370372 256.35092 
L 118.64971 256.35092 
L 121.929048 256.35092 
L 125.208386 256.35092 
L 128.487724 256.35092 
L 131.767062 256.35092 
L 135.0464 256.35092 
L 138.325738 256.35092 
L 141.605077 256.35092 
L 144.884415 256.35092 
L 148.163753 256.35092 
L 151.443091 256.35092 
L 154.722429 256.35092 
L 158.001767 256.35092 
L 161.281105 256.35092 
L 164.560443 256.35092 
L 167.839781 256.35092 
L 171.119119 256.35092 
L 174.398457 256.35092 
L 177.677795 256.35092 
L 180.957133 256.35092 
L 184.236471 256.35092 
L 187.515809 256.35092 
L 190.795147 256.35092 
L 194.074486 256.35092 
L 197.353824 256.35092 
L 200.633162 256.35092 
L 203.9125 256.35092 
L 207.191838 256.35092 
L 210.471176 256.35092 
L 213.750514 256.35092 
L 217.029852 256.35092 
L 220.30919 256.35092 
L 223.588528 256.35092 
L 226.867866 256.35092 
L 230.147204 256.35092 
L 233.426542 256.35092 
L 236.70588 256.35092 
L 239.985218 256.35092 
L 243.264556 256.35092 
L 246.543895 256.35092 
L 249.823233 256.35092 
L 253.102571 256.35092 
L 256.381909 256.35092 
L 259.661247 256.35092 
L 262.940585 256.35092 
L 266.219923 256.35092 
L 269.499261 256.35092 
L 272.778599 256.35092 
L 276.057937 256.35092 
L 279.337275 256.35092 
L 282.616613 256.35092 
L 285.895951 256.35092 
L 289.175289 256.35092 
L 292.454627 256.35092 
L 295.733965 256.35092 
L 299.013303 256.35092 
L 302.292642 256.35092 
L 305.57198 256.35092 
L 308.851318 256.35092 
L 312.130656 256.35092 
L 315.409994 256.35092 
L 318.689332 256.35092 
L 321.96867 256.35092 
L 325.248008 256.35092 
L 328.527346 256.35092 
L 331.806684 256.35092 
L 335.086022 256.35092 
L 338.36536 256.35092 
L 341.644698 256.35092 
L 344.924036 256.35092 
L 348.203374 256.35092 
L 351.482712 256.35092 
L 354.762051 256.35092 
L 358.041389 256.35092 
L 361.320727 256.35092 
L 364.600065 256.35092 
L 367.879403 256.35092 
L 371.158741 256.35092 
L 374.438079 256.35092 
L 377.717417 256.35092 
L 380.996755 256.35092 
L 384.276093 256.35092 
L 387.555431 256.35092 
L 390.834769 256.35092 
L 394.114107 256.35092 
L 397.393445 256.35092 
L 397.393445 207.987514 
L 397.393445 207.987514 
L 394.114107 231.876142 
L 390.834769 247.965365 
L 387.555431 257.899762 
L 384.276093 263.052414 
L 380.996755 264.560146 
L 377.717417 263.355243 
L 374.438079 260.193899 
L 371.158741 255.681659 
L 367.879403 250.296092 
L 364.600065 244.406898 
L 361.320727 238.293688 
L 358.041389 232.161619 
L 354.762051 226.155064 
L 351.482712 220.369515 
L 348.203374 214.861867 
L 344.924036 209.659231 
L 341.644698 204.766446 
L 338.36536 200.17239 
L 335.086022 195.855251 
L 331.806684 191.786839 
L 328.527346 187.936074 
L 325.248008 184.27174 
L 321.96867 180.764587 
L 318.689332 177.388889 
L 315.409994 174.123506 
L 312.130656 170.952549 
L 308.851318 167.865693 
L 305.57198 164.858209 
L 302.292642 161.930754 
L 299.013303 159.088986 
L 295.733965 156.343032 
L 292.454627 153.706844 
L 289.175289 151.197496 
L 285.895951 148.834427 
L 282.616613 146.638675 
L 279.337275 144.632115 
L 276.057937 142.836713 
L 272.778599 141.273829 
L 269.499261 139.963566 
L 266.219923 138.924181 
L 262.940585 138.17156 
L 259.661247 137.71878 
L 256.381909 137.575734 
L 253.102571 137.74884 
L 249.823233 138.240837 
L 246.543895 139.050646 
L 243.264556 140.173314 
L 239.985218 141.600031 
L 236.70588 256.331222 
L 233.426542 256.331511 
L 230.147204 147.020237 
L 226.867866 149.296154 
L 223.588528 151.812749 
L 220.30919 154.54913 
L 217.029852 157.480592 
L 213.750514 160.578775 
L 210.471176 163.811924 
L 207.191838 167.145204 
L 203.9125 170.541113 
L 200.633162 173.959959 
L 197.353824 177.360417 
L 194.074486 180.700147 
L 190.795147 183.93648 
L 187.515809 187.027161 
L 184.236471 189.931131 
L 180.957133 192.609363 
L 177.677795 195.025713 
L 174.398457 197.147798 
L 171.119119 198.947877 
L 167.839781 200.403727 
L 164.560443 201.49949 
L 161.281105 202.226494 
L 158.001767 202.584007 
L 154.722429 202.57993 
L 151.443091 202.231392 
L 148.163753 201.565237 
L 144.884415 200.618383 
L 141.605077 199.438023 
L 138.325738 198.081651 
L 135.0464 196.616896 
L 131.767062 195.121123 
L 128.487724 193.680792 
L 125.208386 192.390543 
L 121.929048 191.351977 
L 118.64971 190.67211 
L 115.370372 190.461478 
L 112.091034 190.831847 
L 108.811696 191.893523 
L 105.532358 193.752209 
L 102.25302 196.505402 
L 98.973682 200.238284 
L 95.694344 205.019082 
L 92.415006 210.893872 
L 89.135668 217.880794 
L 85.85633 225.963641 
L 82.576991 235.084807 
L 79.297653 245.137553 
L 76.018315 255.957565 
L 72.738977 267.313779 
z
" clip-path="url(#p576c1ff1a5)" style="fill: #1f77b4; fill-opacity: 0.166667"/>
   </g>
   <g id="PolyCollection_2">
    <path d="M 72.738977 258.421934 
L 72.738977 256.35092 
L 76.018316 256.35092 
L 79.297655 256.35092 
L 82.576994 256.35092 
L 85.856333 256.35092 
L 89.135671 256.35092 
L 92.41501 256.35092 
L 95.694349 256.35092 
L 98.973688 256.35092 
L 102.253027 256.35092 
L 105.532366 256.35092 
L 108.811705 256.35092 
L 112.091043 256.35092 
L 115.370382 256.35092 
L 118.649721 256.35092 
L 121.92906 256.35092 
L 125.208399 256.35092 
L 128.487738 256.35092 
L 131.767076 256.35092 
L 135.046415 256.35092 
L 138.325754 256.35092 
L 141.605093 256.35092 
L 144.884432 256.35092 
L 148.163771 256.35092 
L 151.44311 256.35092 
L 154.722448 256.35092 
L 158.001787 256.35092 
L 161.281126 256.35092 
L 164.560465 256.35092 
L 167.839804 256.35092 
L 171.119143 256.35092 
L 174.398481 256.35092 
L 177.67782 256.35092 
L 180.957159 256.35092 
L 184.236498 256.35092 
L 187.515837 256.35092 
L 190.795176 256.35092 
L 194.074514 256.35092 
L 197.353853 256.35092 
L 200.633192 256.35092 
L 203.912531 256.35092 
L 207.19187 256.35092 
L 210.471209 256.35092 
L 213.750548 256.35092 
L 217.029886 256.35092 
L 220.309225 256.35092 
L 223.588564 256.35092 
L 226.867903 256.35092 
L 230.147242 256.35092 
L 233.426581 256.35092 
L 236.705919 256.35092 
L 239.985258 256.35092 
L 243.264597 256.35092 
L 246.543936 256.35092 
L 249.823275 256.35092 
L 253.102614 256.35092 
L 256.381952 256.35092 
L 259.661291 256.35092 
L 262.94063 256.35092 
L 266.219969 256.35092 
L 269.499308 256.35092 
L 272.778647 256.35092 
L 276.057986 256.35092 
L 279.337324 256.35092 
L 282.616663 256.35092 
L 285.896002 256.35092 
L 289.175341 256.35092 
L 292.45468 256.35092 
L 295.734019 256.35092 
L 299.013357 256.35092 
L 302.292696 256.35092 
L 305.572035 256.35092 
L 308.851374 256.35092 
L 312.130713 256.35092 
L 315.410052 256.35092 
L 318.68939 256.35092 
L 321.968729 256.35092 
L 325.248068 256.35092 
L 328.527407 256.35092 
L 331.806746 256.35092 
L 335.086085 256.35092 
L 338.365424 256.35092 
L 341.644762 256.35092 
L 344.924101 256.35092 
L 348.20344 256.35092 
L 351.482779 256.35092 
L 354.762118 256.35092 
L 358.041457 256.35092 
L 361.320795 256.35092 
L 364.600134 256.35092 
L 367.879473 256.35092 
L 371.158812 256.35092 
L 374.438151 256.35092 
L 377.71749 256.35092 
L 380.996829 256.35092 
L 384.276167 256.35092 
L 387.555506 256.35092 
L 390.834845 256.35092 
L 394.114184 256.35092 
L 397.393523 256.35092 
L 397.393523 237.805316 
L 397.393523 237.805316 
L 394.114184 235.986998 
L 390.834845 239.644186 
L 387.555506 246.068637 
L 384.276167 253.233171 
L 380.996829 259.677616 
L 377.71749 264.408467 
L 374.438151 266.811063 
L 371.158812 266.573172 
L 367.879473 263.618918 
L 364.600134 258.052082 
L 361.320795 250.107857 
L 358.041457 240.112184 
L 354.762118 228.447886 
L 351.482779 215.526847 
L 348.20344 201.767547 
L 344.924101 187.577319 
L 341.644762 173.338738 
L 338.365424 159.399591 
L 335.086085 146.065947 
L 331.806746 133.597854 
L 328.527407 122.207265 
L 325.248068 112.057798 
L 321.968729 103.266013 
L 318.68939 95.903872 
L 315.410052 90.002141 
L 312.130713 85.554456 
L 308.851374 82.52187 
L 305.572035 80.837671 
L 302.292696 80.412319 
L 299.013357 81.138361 
L 295.734019 82.895207 
L 292.45468 85.553665 
L 289.175341 88.980163 
L 285.896002 93.040596 
L 282.616663 97.603743 
L 279.337324 102.544234 
L 276.057986 107.745041 
L 272.778647 113.09949 
L 269.499308 118.512792 
L 266.219969 123.903112 
L 262.94063 129.20219 
L 259.661291 134.355544 
L 256.381952 139.322289 
L 253.102614 144.074605 
L 249.823275 148.596904 
L 246.543936 152.884726 
L 243.264597 156.943428 
L 239.985258 160.786694 
L 236.705919 256.330424 
L 233.426581 256.331981 
L 230.147242 169.722864 
L 226.867903 172.837688 
L 223.588564 175.954039 
L 220.309225 179.101143 
L 217.029886 182.301573 
L 213.750548 185.570183 
L 210.471209 188.913383 
L 207.19187 192.328747 
L 203.912531 195.804993 
L 200.633192 199.322294 
L 197.353853 202.852937 
L 194.074514 206.362291 
L 190.795176 209.810064 
L 187.515837 213.151803 
L 184.236498 216.340604 
L 180.957159 219.328971 
L 177.67782 222.070774 
L 174.398481 224.523246 
L 171.119143 226.648951 
L 167.839804 228.417659 
L 164.560465 229.808059 
L 161.281126 230.809253 
L 158.001787 231.421948 
L 154.722448 231.659298 
L 151.44311 231.547347 
L 148.163771 231.124998 
L 144.884432 230.443507 
L 141.605093 229.565437 
L 138.325754 228.563088 
L 135.046415 227.516394 
L 131.767076 226.510301 
L 128.487738 225.631686 
L 125.208399 224.965876 
L 121.92906 224.592853 
L 118.649721 224.583284 
L 115.370382 224.994529 
L 112.091043 225.866811 
L 108.811705 227.219793 
L 105.532366 229.049834 
L 102.253027 231.32825 
L 98.973688 234.000941 
L 95.694349 236.989838 
L 92.41501 240.196626 
L 89.135671 243.509308 
L 85.856333 246.81223 
L 82.576994 250.000234 
L 79.297655 252.99772 
L 76.018316 255.783433 
L 72.738977 258.421934 
z
" clip-path="url(#p576c1ff1a5)" style="fill: #ff7f0e; fill-opacity: 0.166667"/>
   </g>
   <g id="PolyCollection_3">
    <path d="M 72.738977 273.983387 
L 72.738977 256.35092 
L 76.018316 256.35092 
L 79.297654 256.35092 
L 82.576993 256.35092 
L 85.856331 256.35092 
L 89.13567 256.35092 
L 92.415008 256.35092 
L 95.694346 256.35092 
L 98.973685 256.35092 
L 102.253023 256.35092 
L 105.532362 256.35092 
L 108.8117 256.35092 
L 112.091039 256.35092 
L 115.370377 256.35092 
L 118.649716 256.35092 
L 121.929054 256.35092 
L 125.208393 256.35092 
L 128.487731 256.35092 
L 131.767069 256.35092 
L 135.046408 256.35092 
L 138.325746 256.35092 
L 141.605085 256.35092 
L 144.884423 256.35092 
L 148.163762 256.35092 
L 151.4431 256.35092 
L 154.722439 256.35092 
L 158.001777 256.35092 
L 161.281115 256.35092 
L 164.560454 256.35092 
L 167.839792 256.35092 
L 171.119131 256.35092 
L 174.398469 256.35092 
L 177.677808 256.35092 
L 180.957146 256.35092 
L 184.236485 256.35092 
L 187.515823 256.35092 
L 190.795162 256.35092 
L 194.0745 256.35092 
L 197.353838 256.35092 
L 200.633177 256.35092 
L 203.912515 256.35092 
L 207.191854 256.35092 
L 210.471192 256.35092 
L 213.750531 256.35092 
L 217.029869 256.35092 
L 220.309208 256.35092 
L 223.588546 256.35092 
L 226.867885 256.35092 
L 230.147223 256.35092 
L 233.426561 256.35092 
L 236.7059 256.35092 
L 239.985238 256.35092 
L 243.264577 256.35092 
L 246.543915 256.35092 
L 249.823254 256.35092 
L 253.102592 256.35092 
L 256.381931 256.35092 
L 259.661269 256.35092 
L 262.940607 256.35092 
L 266.219946 256.35092 
L 269.499284 256.35092 
L 272.778623 256.35092 
L 276.057961 256.35092 
L 279.3373 256.35092 
L 282.616638 256.35092 
L 285.895977 256.35092 
L 289.175315 256.35092 
L 292.454654 256.35092 
L 295.733992 256.35092 
L 299.01333 256.35092 
L 302.292669 256.35092 
L 305.572007 256.35092 
L 308.851346 256.35092 
L 312.130684 256.35092 
L 315.410023 256.35092 
L 318.689361 256.35092 
L 321.9687 256.35092 
L 325.248038 256.35092 
L 328.527377 256.35092 
L 331.806715 256.35092 
L 335.086053 256.35092 
L 338.365392 256.35092 
L 341.64473 256.35092 
L 344.924069 256.35092 
L 348.203407 256.35092 
L 351.482746 256.35092 
L 354.762084 256.35092 
L 358.041423 256.35092 
L 361.320761 256.35092 
L 364.6001 256.35092 
L 367.879438 256.35092 
L 371.158776 256.35092 
L 374.438115 256.35092 
L 377.717453 256.35092 
L 380.996792 256.35092 
L 384.27613 256.35092 
L 387.555469 256.35092 
L 390.834807 256.35092 
L 394.114146 256.35092 
L 397.393484 256.35092 
L 397.393484 244.680903 
L 397.393484 244.680903 
L 394.114146 234.335775 
L 390.834807 235.984948 
L 387.555469 243.83762 
L 384.27613 253.706817 
L 380.996792 262.704034 
L 377.717453 268.976195 
L 374.438115 271.480653 
L 371.158776 269.794253 
L 367.879438 263.952779 
L 364.6001 254.31737 
L 361.320761 241.464765 
L 358.041423 226.09848 
L 354.762084 208.978259 
L 351.482746 190.865368 
L 348.203407 172.481515 
L 344.924069 154.479388 
L 341.64473 137.422973 
L 338.365392 121.776025 
L 335.086053 107.897207 
L 331.806715 96.040591 
L 328.527377 86.360348 
L 325.248038 78.918608 
L 321.9687 73.695589 
L 318.689361 70.601229 
L 315.410023 69.48764 
L 312.130684 70.161847 
L 308.851346 72.398322 
L 305.572007 75.950959 
L 302.292669 80.564167 
L 299.01333 85.982872 
L 295.733992 91.961249 
L 292.454654 98.270095 
L 289.175315 104.702766 
L 285.895977 111.079693 
L 282.616638 117.251485 
L 279.3373 123.100687 
L 276.057961 128.542292 
L 272.778623 133.523103 
L 269.499284 138.020088 
L 266.219946 142.037859 
L 262.940607 145.605442 
L 259.661269 148.772482 
L 256.381931 151.605045 
L 253.102592 154.181182 
L 249.823254 156.586393 
L 246.543915 158.909148 
L 243.264577 161.236594 
L 239.985238 163.650567 
L 236.7059 256.335237 
L 233.426561 256.336552 
L 230.147223 171.09009 
L 226.867885 174.111242 
L 223.588546 177.503087 
L 220.309208 181.272389 
L 217.029869 185.40533 
L 213.750531 189.868078 
L 210.471192 194.608095 
L 207.191854 199.556151 
L 203.912515 204.628973 
L 200.633177 209.73243 
L 197.353838 214.76518 
L 194.0745 219.622632 
L 190.795162 224.201118 
L 187.515823 228.402123 
L 184.236485 232.136426 
L 180.957146 235.328016 
L 177.677808 237.917603 
L 174.398469 239.865608 
L 171.119131 241.154467 
L 167.839792 241.790124 
L 164.560454 241.802606 
L 161.281115 241.245575 
L 158.001777 240.194802 
L 154.722439 238.745515 
L 151.4431 237.008637 
L 148.163762 235.105947 
L 144.884423 233.164279 
L 141.605085 231.308893 
L 138.325746 229.656265 
L 135.046408 228.30656 
L 131.767069 227.336186 
L 128.487731 226.790875 
L 125.208393 226.679863 
L 121.929054 226.971816 
L 118.649716 227.593302 
L 115.370377 228.430696 
L 112.091039 229.336569 
L 108.8117 230.14173 
L 105.532362 230.674276 
L 102.253023 230.787133 
L 98.973685 230.395777 
L 95.694346 229.528007 
L 92.415008 228.387817 
L 89.13567 227.435665 
L 85.856331 227.487622 
L 82.576993 229.836152 
L 79.297654 236.395502 
L 76.018316 249.874939 
L 72.738977 273.983387 
z
" clip-path="url(#p576c1ff1a5)" style="fill: #2ca02c; fill-opacity: 0.166667"/>
   </g>
   <g id="PolyCollection_4">
    <path d="M 72.738977 255.907389 
L 72.738977 256.35092 
L 76.018316 256.35092 
L 79.297655 256.35092 
L 82.576994 256.35092 
L 85.856333 256.35092 
L 89.135671 256.35092 
L 92.41501 256.35092 
L 95.694349 256.35092 
L 98.973688 256.35092 
L 102.253027 256.35092 
L 105.532366 256.35092 
L 108.811705 256.35092 
L 112.091043 256.35092 
L 115.370382 256.35092 
L 118.649721 256.35092 
L 121.92906 256.35092 
L 125.208399 256.35092 
L 128.487738 256.35092 
L 131.767076 256.35092 
L 135.046415 256.35092 
L 138.325754 256.35092 
L 141.605093 256.35092 
L 144.884432 256.35092 
L 148.163771 256.35092 
L 151.44311 256.35092 
L 154.722448 256.35092 
L 158.001787 256.35092 
L 161.281126 256.35092 
L 164.560465 256.35092 
L 167.839804 256.35092 
L 171.119143 256.35092 
L 174.398481 256.35092 
L 177.67782 256.35092 
L 180.957159 256.35092 
L 184.236498 256.35092 
L 187.515837 256.35092 
L 190.795176 256.35092 
L 194.074514 256.35092 
L 197.353853 256.35092 
L 200.633192 256.35092 
L 203.912531 256.35092 
L 207.19187 256.35092 
L 210.471209 256.35092 
L 213.750548 256.35092 
L 217.029886 256.35092 
L 220.309225 256.35092 
L 223.588564 256.35092 
L 226.867903 256.35092 
L 230.147242 256.35092 
L 233.426581 256.35092 
L 236.705919 256.35092 
L 239.985258 256.35092 
L 243.264597 256.35092 
L 246.543936 256.35092 
L 249.823275 256.35092 
L 253.102614 256.35092 
L 256.381952 256.35092 
L 259.661291 256.35092 
L 262.94063 256.35092 
L 266.219969 256.35092 
L 269.499308 256.35092 
L 272.778647 256.35092 
L 276.057986 256.35092 
L 279.337324 256.35092 
L 282.616663 256.35092 
L 285.896002 256.35092 
L 289.175341 256.35092 
L 292.45468 256.35092 
L 295.734019 256.35092 
L 299.013357 256.35092 
L 302.292696 256.35092 
L 305.572035 256.35092 
L 308.851374 256.35092 
L 312.130713 256.35092 
L 315.410052 256.35092 
L 318.68939 256.35092 
L 321.968729 256.35092 
L 325.248068 256.35092 
L 328.527407 256.35092 
L 331.806746 256.35092 
L 335.086085 256.35092 
L 338.365424 256.35092 
L 341.644762 256.35092 
L 344.924101 256.35092 
L 348.20344 256.35092 
L 351.482779 256.35092 
L 354.762118 256.35092 
L 358.041457 256.35092 
L 361.320795 256.35092 
L 364.600134 256.35092 
L 367.879473 256.35092 
L 371.158812 256.35092 
L 374.438151 256.35092 
L 377.71749 256.35092 
L 380.996829 256.35092 
L 384.276167 256.35092 
L 387.555506 256.35092 
L 390.834845 256.35092 
L 394.114184 256.35092 
L 397.393523 256.35092 
L 397.393523 34.414125 
L 397.393523 34.414125 
L 394.114184 139.778911 
L 390.834845 207.659488 
L 387.555506 248.040178 
L 384.276167 268.85909 
L 380.996829 276.334125 
L 377.71749 275.24866 
L 374.438151 269.20072 
L 371.158812 260.819154 
L 367.879473 251.9501 
L 364.600134 243.816783 
L 361.320795 237.15548 
L 358.041457 232.330254 
L 354.762118 229.428884 
L 351.482779 228.342185 
L 348.20344 228.828778 
L 344.924101 230.567156 
L 341.644762 233.196755 
L 338.365424 236.349564 
L 335.086085 239.673678 
L 331.806746 242.850059 
L 328.527407 245.603623 
L 325.248068 247.709672 
L 321.968729 248.996576 
L 318.68939 249.345473 
L 315.410052 248.687708 
L 312.130713 247.000591 
L 308.851374 244.302006 
L 305.572035 240.644306 
L 302.292696 236.107863 
L 299.013357 230.794583 
L 295.734019 224.821619 
L 292.45468 218.315496 
L 289.175341 211.406766 
L 285.896002 204.225321 
L 282.616663 196.896406 
L 279.337324 189.537385 
L 276.057986 182.255241 
L 272.778647 175.144812 
L 269.499308 168.287703 
L 266.219969 161.751832 
L 262.94063 155.591532 
L 259.661291 149.848131 
L 256.381952 144.550933 
L 253.102614 139.718502 
L 249.823275 135.360169 
L 246.543936 131.477662 
L 243.264597 128.066795 
L 239.985258 125.119124 
L 236.705919 256.328907 
L 233.426581 256.330492 
L 230.147242 112.884271 
L 226.867903 111.36437 
L 223.588564 110.567826 
L 220.309225 110.481207 
L 217.029886 111.078454 
L 213.750548 112.321544 
L 210.471209 114.161421 
L 207.19187 116.539184 
L 203.912531 119.387518 
L 200.633192 122.632314 
L 197.353853 126.194486 
L 194.074514 129.991918 
L 190.795176 133.941517 
L 187.515837 137.961334 
L 184.236498 141.972691 
L 180.957159 145.902286 
L 177.67782 149.684213 
L 174.398481 153.261852 
L 171.119143 156.589576 
L 167.839804 159.634227 
L 164.560465 162.376306 
L 161.281126 164.810842 
L 158.001787 166.947874 
L 154.722448 168.812536 
L 151.44311 170.444674 
L 148.163771 171.898001 
L 144.884432 173.238744 
L 141.605093 174.543783 
L 138.325754 175.898267 
L 135.046415 177.392739 
L 131.767076 179.119756 
L 128.487738 181.170079 
L 125.208399 183.628449 
L 121.92906 186.569043 
L 118.649721 190.050679 
L 115.370382 194.111899 
L 112.091043 198.766036 
L 108.811705 203.996436 
L 105.532366 209.752021 
L 102.253027 215.943379 
L 98.973688 222.439646 
L 95.694349 229.066431 
L 92.41501 235.60511 
L 89.135671 241.793803 
L 85.856333 247.330444 
L 82.576994 251.878345 
L 79.297655 255.074725 
L 76.018316 256.542713 
L 72.738977 255.907389 
z
" clip-path="url(#p576c1ff1a5)" style="fill: #d62728; fill-opacity: 0.166667"/>
   </g>
   <g id="PolyCollection_5">
    <path d="M 72.738977 250.963878 
L 72.738977 256.35092 
L 76.018316 256.35092 
L 79.297655 256.35092 
L 82.576993 256.35092 
L 85.856332 256.35092 
L 89.135671 256.35092 
L 92.415009 256.35092 
L 95.694348 256.35092 
L 98.973686 256.35092 
L 102.253025 256.35092 
L 105.532364 256.35092 
L 108.811702 256.35092 
L 112.091041 256.35092 
L 115.37038 256.35092 
L 118.649718 256.35092 
L 121.929057 256.35092 
L 125.208396 256.35092 
L 128.487734 256.35092 
L 131.767073 256.35092 
L 135.046412 256.35092 
L 138.32575 256.35092 
L 141.605089 256.35092 
L 144.884428 256.35092 
L 148.163766 256.35092 
L 151.443105 256.35092 
L 154.722443 256.35092 
L 158.001782 256.35092 
L 161.281121 256.35092 
L 164.560459 256.35092 
L 167.839798 256.35092 
L 171.119137 256.35092 
L 174.398475 256.35092 
L 177.677814 256.35092 
L 180.957153 256.35092 
L 184.236491 256.35092 
L 187.51583 256.35092 
L 190.795169 256.35092 
L 194.074507 256.35092 
L 197.353846 256.35092 
L 200.633185 256.35092 
L 203.912523 256.35092 
L 207.191862 256.35092 
L 210.4712 256.35092 
L 213.750539 256.35092 
L 217.029878 256.35092 
L 220.309216 256.35092 
L 223.588555 256.35092 
L 226.867894 256.35092 
L 230.147232 256.35092 
L 233.426571 256.35092 
L 236.70591 256.35092 
L 239.985248 256.35092 
L 243.264587 256.35092 
L 246.543926 256.35092 
L 249.823264 256.35092 
L 253.102603 256.35092 
L 256.381942 256.35092 
L 259.66128 256.35092 
L 262.940619 256.35092 
L 266.219957 256.35092 
L 269.499296 256.35092 
L 272.778635 256.35092 
L 276.057973 256.35092 
L 279.337312 256.35092 
L 282.616651 256.35092 
L 285.895989 256.35092 
L 289.175328 256.35092 
L 292.454667 256.35092 
L 295.734005 256.35092 
L 299.013344 256.35092 
L 302.292683 256.35092 
L 305.572021 256.35092 
L 308.85136 256.35092 
L 312.130699 256.35092 
L 315.410037 256.35092 
L 318.689376 256.35092 
L 321.968714 256.35092 
L 325.248053 256.35092 
L 328.527392 256.35092 
L 331.80673 256.35092 
L 335.086069 256.35092 
L 338.365408 256.35092 
L 341.644746 256.35092 
L 344.924085 256.35092 
L 348.203424 256.35092 
L 351.482762 256.35092 
L 354.762101 256.35092 
L 358.04144 256.35092 
L 361.320778 256.35092 
L 364.600117 256.35092 
L 367.879456 256.35092 
L 371.158794 256.35092 
L 374.438133 256.35092 
L 377.717471 256.35092 
L 380.99681 256.35092 
L 384.276149 256.35092 
L 387.555487 256.35092 
L 390.834826 256.35092 
L 394.114165 256.35092 
L 397.393503 256.35092 
L 397.393503 229.434574 
L 397.393503 229.434574 
L 394.114165 256.817776 
L 390.834826 267.825286 
L 387.555487 267.258232 
L 384.276149 258.939502 
L 380.99681 245.865131 
L 377.717471 230.337453 
L 374.438133 214.08169 
L 371.158794 198.347572 
L 367.879456 183.997434 
L 364.600117 171.582177 
L 361.320778 161.406329 
L 358.04144 153.583393 
L 354.762101 148.082553 
L 351.482762 144.767726 
L 348.203424 143.429879 
L 344.924085 143.813437 
L 341.644746 145.637544 
L 338.365408 148.612871 
L 335.086069 152.4546 
L 331.80673 156.892144 
L 328.527392 161.676113 
L 325.248053 166.58299 
L 321.968714 171.41791 
L 318.689376 176.015906 
L 315.410037 180.241941 
L 312.130699 183.989995 
L 308.85136 187.181445 
L 305.572021 189.76295 
L 302.292683 191.703997 
L 299.013344 192.994276 
L 295.734005 193.640981 
L 292.454667 193.666134 
L 289.175328 193.104028 
L 285.895989 191.998812 
L 282.616651 190.402283 
L 279.337312 188.371894 
L 276.057973 185.969005 
L 272.778635 183.257357 
L 269.499296 180.301793 
L 266.219957 177.16718 
L 262.940619 173.917541 
L 259.66128 170.615352 
L 256.381942 167.320993 
L 253.102603 164.092324 
L 249.823264 160.984348 
L 246.543926 158.048946 
L 243.264587 155.334657 
L 239.985248 152.886473 
L 236.70591 256.333512 
L 233.426571 256.333461 
L 230.147232 147.823115 
L 226.867894 146.913348 
L 223.588555 146.415621 
L 220.309216 146.344881 
L 217.029878 146.711362 
L 213.750539 147.520279 
L 210.4712 148.771475 
L 207.191862 150.459061 
L 203.912523 152.571037 
L 200.633185 155.08896 
L 197.353846 157.987646 
L 194.074507 161.234967 
L 190.795169 164.79177 
L 187.51583 168.611935 
L 184.236491 172.64263 
L 180.957153 176.824779 
L 177.677814 181.093778 
L 174.398475 185.380482 
L 171.119137 189.612487 
L 167.839798 193.715712 
L 164.560459 197.616299 
L 161.281121 201.2428 
L 158.001782 204.528653 
L 154.722443 207.414901 
L 151.443105 209.853095 
L 148.163766 211.808329 
L 144.884428 213.262281 
L 141.605089 214.21617 
L 138.32575 214.693471 
L 135.046412 214.742198 
L 131.767073 214.436567 
L 128.487734 213.877777 
L 125.208396 213.193629 
L 121.929057 212.536655 
L 118.649718 212.080374 
L 115.37038 212.013261 
L 112.091041 212.529954 
L 108.811702 213.819147 
L 105.532364 216.047591 
L 102.253025 219.339539 
L 98.973686 223.750902 
L 95.694348 229.237317 
L 92.415009 235.615245 
L 89.135671 242.515149 
L 85.856332 249.325681 
L 82.576993 255.127769 
L 79.297655 258.617347 
L 76.018316 258.015398 
L 72.738977 250.963878 
z
" clip-path="url(#p576c1ff1a5)" style="fill: #9467bd; fill-opacity: 0.166667"/>
   </g>
   <g id="PolyCollection_6">
    <path d="M 72.738977 252.688528 
L 72.738977 256.35092 
L 75.721383 256.35092 
L 78.703789 256.35092 
L 81.686194 256.35092 
L 84.6686 256.35092 
L 87.651005 256.35092 
L 90.633411 256.35092 
L 93.615817 256.35092 
L 96.598222 256.35092 
L 99.580628 256.35092 
L 102.563034 256.35092 
L 105.545439 256.35092 
L 108.527845 256.35092 
L 111.510251 256.35092 
L 114.492656 256.35092 
L 117.475062 256.35092 
L 120.457467 256.35092 
L 123.439873 256.35092 
L 126.422279 256.35092 
L 129.404684 256.35092 
L 132.38709 256.35092 
L 135.369496 256.35092 
L 138.351901 256.35092 
L 141.334307 256.35092 
L 144.316713 256.35092 
L 147.299118 256.35092 
L 150.281524 256.35092 
L 153.26393 256.35092 
L 156.246335 256.35092 
L 159.228741 256.35092 
L 162.211146 256.35092 
L 165.193552 256.35092 
L 168.175958 256.35092 
L 171.158363 256.35092 
L 174.140769 256.35092 
L 177.123175 256.35092 
L 180.10558 256.35092 
L 183.087986 256.35092 
L 186.070392 256.35092 
L 189.052797 256.35092 
L 192.035203 256.35092 
L 195.017608 256.35092 
L 198.000014 256.35092 
L 200.98242 256.35092 
L 203.964825 256.35092 
L 206.947231 256.35092 
L 209.929637 256.35092 
L 212.912042 256.35092 
L 215.894448 256.35092 
L 218.876854 256.35092 
L 221.859259 256.35092 
L 224.841665 256.35092 
L 227.82407 256.35092 
L 230.806476 256.35092 
L 233.788882 256.35092 
L 236.771287 256.35092 
L 239.753693 256.35092 
L 242.736099 256.35092 
L 245.718504 256.35092 
L 248.70091 256.35092 
L 251.683316 256.35092 
L 254.665721 256.35092 
L 257.648127 256.35092 
L 260.630533 256.35092 
L 263.612938 256.35092 
L 266.595344 256.35092 
L 269.577749 256.35092 
L 272.560155 256.35092 
L 275.542561 256.35092 
L 278.524966 256.35092 
L 281.507372 256.35092 
L 284.489778 256.35092 
L 287.472183 256.35092 
L 290.454589 256.35092 
L 293.436995 256.35092 
L 296.4194 256.35092 
L 299.401806 256.35092 
L 302.384211 256.35092 
L 305.366617 256.35092 
L 308.349023 256.35092 
L 311.331428 256.35092 
L 314.313834 256.35092 
L 317.29624 256.35092 
L 320.278645 256.35092 
L 323.261051 256.35092 
L 326.243457 256.35092 
L 329.225862 256.35092 
L 332.208268 256.35092 
L 335.190673 256.35092 
L 338.173079 256.35092 
L 341.155485 256.35092 
L 344.13789 256.35092 
L 347.120296 256.35092 
L 350.102702 256.35092 
L 353.085107 256.35092 
L 356.067513 256.35092 
L 359.049919 256.35092 
L 362.032324 256.35092 
L 365.01473 256.35092 
L 367.997136 256.35092 
L 367.997136 235.054468 
L 367.997136 235.054468 
L 365.01473 256.196896 
L 362.032324 263.094732 
L 359.049919 259.979618 
L 356.067513 250.176042 
L 353.085107 236.251842 
L 350.102702 220.149409 
L 347.120296 203.299479 
L 344.13789 186.719215 
L 341.155485 171.096214 
L 338.173079 156.859912 
L 335.190673 144.241768 
L 332.208268 133.325522 
L 329.225862 124.088671 
L 326.243457 116.43627 
L 323.261051 110.228025 
L 320.278645 105.299596 
L 317.29624 101.478908 
L 314.313834 98.598248 
L 311.331428 96.502777 
L 308.349023 95.056098 
L 305.366617 94.14339 
L 302.384211 93.672605 
L 299.401806 93.574142 
L 296.4194 93.799366 
L 293.436995 94.318303 
L 290.454589 95.11678 
L 287.472183 96.193248 
L 284.489778 97.555484 
L 281.507372 99.217331 
L 278.524966 101.19562 
L 275.542561 103.507353 
L 272.560155 106.167242 
L 269.577749 109.185644 
L 266.595344 112.566933 
L 263.612938 116.308309 
L 260.630533 120.399058 
L 257.648127 124.82023 
L 254.665721 129.544729 
L 251.683316 134.537751 
L 248.70091 139.75755 
L 245.718504 145.156479 
L 242.736099 150.682233 
L 239.753693 156.27927 
L 236.771287 161.89033 
L 233.788882 167.458001 
L 230.806476 172.926289 
L 227.82407 178.242128 
L 224.841665 183.356793 
L 221.859259 256.333962 
L 218.876854 256.334388 
L 215.894448 197.659938 
L 212.912042 201.698245 
L 209.929637 205.362791 
L 206.947231 208.647992 
L 203.964825 211.558269 
L 200.98242 214.10765 
L 198.000014 216.319066 
L 195.017608 218.223364 
L 192.035203 219.858058 
L 189.052797 221.265865 
L 186.070392 222.493051 
L 183.087986 223.58766 
L 180.10558 224.597661 
L 177.123175 225.569083 
L 174.140769 226.544198 
L 171.158363 227.559818 
L 168.175958 228.64577 
L 165.193552 229.823611 
L 162.211146 231.105652 
L 159.228741 232.494343 
L 156.246335 233.982059 
L 153.26393 235.551353 
L 150.281524 237.175678 
L 147.299118 238.820617 
L 144.316713 240.4456 
L 141.334307 242.006113 
L 138.351901 243.456336 
L 135.369496 244.752158 
L 132.38709 245.854467 
L 129.404684 246.732604 
L 126.422279 247.367803 
L 123.439873 247.756433 
L 120.457467 247.912797 
L 117.475062 247.871202 
L 114.492656 247.68697 
L 111.510251 247.435998 
L 108.527845 247.212412 
L 105.545439 247.123819 
L 102.563034 247.28357 
L 99.580628 247.799396 
L 96.598222 248.757667 
L 93.615817 250.202504 
L 90.633411 252.108818 
L 87.651005 254.348304 
L 84.6686 256.64731 
L 81.686194 258.535381 
L 78.703789 259.283204 
L 75.721383 257.828528 
L 72.738977 252.688528 
z
" clip-path="url(#p576c1ff1a5)" style="fill: #8c564b; fill-opacity: 0.166667"/>
   </g>
   <g id="matplotlib.axis_1">
    <g id="xtick_1">
     <g id="line2d_1">
      <defs>
       <path id="m0a7caf54a5" d="M 0 0 
L 0 3.5 
" style="stroke: #000000; stroke-width: 0.8"/>
      </defs>
      <g>
       <use xlink:href="#m0a7caf54a5" x="72.738977" y="288.430125" style="stroke: #000000; stroke-width: 0.8"/>
      </g>
     </g>
     <g id="text_1">
      <!-- 0.0 -->
      <g transform="translate(64.787415 303.028562) scale(0.1 -0.1)">
       <defs>
        <path id="DejaVuSans-30" d="M 2034 4250 
Q 1547 4250 1301 3770 
Q 1056 3291 1056 2328 
Q 1056 1369 1301 889 
Q 1547 409 2034 409 
Q 2525 409 2770 889 
Q 3016 1369 3016 2328 
Q 3016 3291 2770 3770 
Q 2525 4250 2034 4250 
z
M 2034 4750 
Q 2819 4750 3233 4129 
Q 3647 3509 3647 2328 
Q 3647 1150 3233 529 
Q 2819 -91 2034 -91 
Q 1250 -91 836 529 
Q 422 1150 422 2328 
Q 422 3509 836 4129 
Q 1250 4750 2034 4750 
z
" transform="scale(0.015625)"/>
        <path id="DejaVuSans-2e" d="M 684 794 
L 1344 794 
L 1344 0 
L 684 0 
L 684 794 
z
" transform="scale(0.015625)"/>
       </defs>
       <use xlink:href="#DejaVuSans-30"/>
       <use xlink:href="#DejaVuSans-2e" x="63.623047"/>
       <use xlink:href="#DejaVuSans-30" x="95.410156"/>
      </g>
     </g>
    </g>
    <g id="xtick_2">
     <g id="line2d_2">
      <g>
       <use xlink:href="#m0a7caf54a5" x="138.325754" y="288.430125" style="stroke: #000000; stroke-width: 0.8"/>
      </g>
     </g>
     <g id="text_2">
      <!-- 0.2 -->
      <g transform="translate(130.374192 303.028562) scale(0.1 -0.1)">
       <defs>
        <path id="DejaVuSans-32" d="M 1228 531 
L 3431 531 
L 3431 0 
L 469 0 
L 469 531 
Q 828 903 1448 1529 
Q 2069 2156 2228 2338 
Q 2531 2678 2651 2914 
Q 2772 3150 2772 3378 
Q 2772 3750 2511 3984 
Q 2250 4219 1831 4219 
Q 1534 4219 1204 4116 
Q 875 4013 500 3803 
L 500 4441 
Q 881 4594 1212 4672 
Q 1544 4750 1819 4750 
Q 2544 4750 2975 4387 
Q 3406 4025 3406 3419 
Q 3406 3131 3298 2873 
Q 3191 2616 2906 2266 
Q 2828 2175 2409 1742 
Q 1991 1309 1228 531 
z
" transform="scale(0.015625)"/>
       </defs>
       <use xlink:href="#DejaVuSans-30"/>
       <use xlink:href="#DejaVuSans-2e" x="63.623047"/>
       <use xlink:href="#DejaVuSans-32" x="95.410156"/>
      </g>
     </g>
    </g>
    <g id="xtick_3">
     <g id="line2d_3">
      <g>
       <use xlink:href="#m0a7caf54a5" x="203.912531" y="288.430125" style="stroke: #000000; stroke-width: 0.8"/>
      </g>
     </g>
     <g id="text_3">
      <!-- 0.4 -->
      <g transform="translate(195.960968 303.028562) scale(0.1 -0.1)">
       <defs>
        <path id="DejaVuSans-34" d="M 2419 4116 
L 825 1625 
L 2419 1625 
L 2419 4116 
z
M 2253 4666 
L 3047 4666 
L 3047 1625 
L 3713 1625 
L 3713 1100 
L 3047 1100 
L 3047 0 
L 2419 0 
L 2419 1100 
L 313 1100 
L 313 1709 
L 2253 4666 
z
" transform="scale(0.015625)"/>
       </defs>
       <use xlink:href="#DejaVuSans-30"/>
       <use xlink:href="#DejaVuSans-2e" x="63.623047"/>
       <use xlink:href="#DejaVuSans-34" x="95.410156"/>
      </g>
     </g>
    </g>
    <g id="xtick_4">
     <g id="line2d_4">
      <g>
       <use xlink:href="#m0a7caf54a5" x="269.499308" y="288.430125" style="stroke: #000000; stroke-width: 0.8"/>
      </g>
     </g>
     <g id="text_4">
      <!-- 0.6 -->
      <g transform="translate(261.547745 303.028562) scale(0.1 -0.1)">
       <defs>
        <path id="DejaVuSans-36" d="M 2113 2584 
Q 1688 2584 1439 2293 
Q 1191 2003 1191 1497 
Q 1191 994 1439 701 
Q 1688 409 2113 409 
Q 2538 409 2786 701 
Q 3034 994 3034 1497 
Q 3034 2003 2786 2293 
Q 2538 2584 2113 2584 
z
M 3366 4563 
L 3366 3988 
Q 3128 4100 2886 4159 
Q 2644 4219 2406 4219 
Q 1781 4219 1451 3797 
Q 1122 3375 1075 2522 
Q 1259 2794 1537 2939 
Q 1816 3084 2150 3084 
Q 2853 3084 3261 2657 
Q 3669 2231 3669 1497 
Q 3669 778 3244 343 
Q 2819 -91 2113 -91 
Q 1303 -91 875 529 
Q 447 1150 447 2328 
Q 447 3434 972 4092 
Q 1497 4750 2381 4750 
Q 2619 4750 2861 4703 
Q 3103 4656 3366 4563 
z
" transform="scale(0.015625)"/>
       </defs>
       <use xlink:href="#DejaVuSans-30"/>
       <use xlink:href="#DejaVuSans-2e" x="63.623047"/>
       <use xlink:href="#DejaVuSans-36" x="95.410156"/>
      </g>
     </g>
    </g>
    <g id="xtick_5">
     <g id="line2d_5">
      <g>
       <use xlink:href="#m0a7caf54a5" x="335.086085" y="288.430125" style="stroke: #000000; stroke-width: 0.8"/>
      </g>
     </g>
     <g id="text_5">
      <!-- 0.8 -->
      <g transform="translate(327.134522 303.028562) scale(0.1 -0.1)">
       <defs>
        <path id="DejaVuSans-38" d="M 2034 2216 
Q 1584 2216 1326 1975 
Q 1069 1734 1069 1313 
Q 1069 891 1326 650 
Q 1584 409 2034 409 
Q 2484 409 2743 651 
Q 3003 894 3003 1313 
Q 3003 1734 2745 1975 
Q 2488 2216 2034 2216 
z
M 1403 2484 
Q 997 2584 770 2862 
Q 544 3141 544 3541 
Q 544 4100 942 4425 
Q 1341 4750 2034 4750 
Q 2731 4750 3128 4425 
Q 3525 4100 3525 3541 
Q 3525 3141 3298 2862 
Q 3072 2584 2669 2484 
Q 3125 2378 3379 2068 
Q 3634 1759 3634 1313 
Q 3634 634 3220 271 
Q 2806 -91 2034 -91 
Q 1263 -91 848 271 
Q 434 634 434 1313 
Q 434 1759 690 2068 
Q 947 2378 1403 2484 
z
M 1172 3481 
Q 1172 3119 1398 2916 
Q 1625 2713 2034 2713 
Q 2441 2713 2670 2916 
Q 2900 3119 2900 3481 
Q 2900 3844 2670 4047 
Q 2441 4250 2034 4250 
Q 1625 4250 1398 4047 
Q 1172 3844 1172 3481 
z
" transform="scale(0.015625)"/>
       </defs>
       <use xlink:href="#DejaVuSans-30"/>
       <use xlink:href="#DejaVuSans-2e" x="63.623047"/>
       <use xlink:href="#DejaVuSans-38" x="95.410156"/>
      </g>
     </g>
    </g>
    <g id="xtick_6">
     <g id="line2d_6">
      <g>
       <use xlink:href="#m0a7caf54a5" x="400.672862" y="288.430125" style="stroke: #000000; stroke-width: 0.8"/>
      </g>
     </g>
     <g id="text_6">
      <!-- 1.0 -->
      <g transform="translate(392.721299 303.028562) scale(0.1 -0.1)">
       <defs>
        <path id="DejaVuSans-31" d="M 794 531 
L 1825 531 
L 1825 4091 
L 703 3866 
L 703 4441 
L 1819 4666 
L 2450 4666 
L 2450 531 
L 3481 531 
L 3481 0 
L 794 0 
L 794 531 
z
" transform="scale(0.015625)"/>
       </defs>
       <use xlink:href="#DejaVuSans-31"/>
       <use xlink:href="#DejaVuSans-2e" x="63.623047"/>
       <use xlink:href="#DejaVuSans-30" x="95.410156"/>
      </g>
     </g>
    </g>
    <g id="text_7">
     <!-- Pixel values -->
     <g transform="translate(205.654531 316.706687) scale(0.1 -0.1)">
      <defs>
       <path id="DejaVuSans-50" d="M 1259 4147 
L 1259 2394 
L 2053 2394 
Q 2494 2394 2734 2622 
Q 2975 2850 2975 3272 
Q 2975 3691 2734 3919 
Q 2494 4147 2053 4147 
L 1259 4147 
z
M 628 4666 
L 2053 4666 
Q 2838 4666 3239 4311 
Q 3641 3956 3641 3272 
Q 3641 2581 3239 2228 
Q 2838 1875 2053 1875 
L 1259 1875 
L 1259 0 
L 628 0 
L 628 4666 
z
" transform="scale(0.015625)"/>
       <path id="DejaVuSans-69" d="M 603 3500 
L 1178 3500 
L 1178 0 
L 603 0 
L 603 3500 
z
M 603 4863 
L 1178 4863 
L 1178 4134 
L 603 4134 
L 603 4863 
z
" transform="scale(0.015625)"/>
       <path id="DejaVuSans-78" d="M 3513 3500 
L 2247 1797 
L 3578 0 
L 2900 0 
L 1881 1375 
L 863 0 
L 184 0 
L 1544 1831 
L 300 3500 
L 978 3500 
L 1906 2253 
L 2834 3500 
L 3513 3500 
z
" transform="scale(0.015625)"/>
       <path id="DejaVuSans-65" d="M 3597 1894 
L 3597 1613 
L 953 1613 
Q 991 1019 1311 708 
Q 1631 397 2203 397 
Q 2534 397 2845 478 
Q 3156 559 3463 722 
L 3463 178 
Q 3153 47 2828 -22 
Q 2503 -91 2169 -91 
Q 1331 -91 842 396 
Q 353 884 353 1716 
Q 353 2575 817 3079 
Q 1281 3584 2069 3584 
Q 2775 3584 3186 3129 
Q 3597 2675 3597 1894 
z
M 3022 2063 
Q 3016 2534 2758 2815 
Q 2500 3097 2075 3097 
Q 1594 3097 1305 2825 
Q 1016 2553 972 2059 
L 3022 2063 
z
" transform="scale(0.015625)"/>
       <path id="DejaVuSans-6c" d="M 603 4863 
L 1178 4863 
L 1178 0 
L 603 0 
L 603 4863 
z
" transform="scale(0.015625)"/>
       <path id="DejaVuSans-20" transform="scale(0.015625)"/>
       <path id="DejaVuSans-76" d="M 191 3500 
L 800 3500 
L 1894 563 
L 2988 3500 
L 3597 3500 
L 2284 0 
L 1503 0 
L 191 3500 
z
" transform="scale(0.015625)"/>
       <path id="DejaVuSans-61" d="M 2194 1759 
Q 1497 1759 1228 1600 
Q 959 1441 959 1056 
Q 959 750 1161 570 
Q 1363 391 1709 391 
Q 2188 391 2477 730 
Q 2766 1069 2766 1631 
L 2766 1759 
L 2194 1759 
z
M 3341 1997 
L 3341 0 
L 2766 0 
L 2766 531 
Q 2569 213 2275 61 
Q 1981 -91 1556 -91 
Q 1019 -91 701 211 
Q 384 513 384 1019 
Q 384 1609 779 1909 
Q 1175 2209 1959 2209 
L 2766 2209 
L 2766 2266 
Q 2766 2663 2505 2880 
Q 2244 3097 1772 3097 
Q 1472 3097 1187 3025 
Q 903 2953 641 2809 
L 641 3341 
Q 956 3463 1253 3523 
Q 1550 3584 1831 3584 
Q 2591 3584 2966 3190 
Q 3341 2797 3341 1997 
z
" transform="scale(0.015625)"/>
       <path id="DejaVuSans-75" d="M 544 1381 
L 544 3500 
L 1119 3500 
L 1119 1403 
Q 1119 906 1312 657 
Q 1506 409 1894 409 
Q 2359 409 2629 706 
Q 2900 1003 2900 1516 
L 2900 3500 
L 3475 3500 
L 3475 0 
L 2900 0 
L 2900 538 
Q 2691 219 2414 64 
Q 2138 -91 1772 -91 
Q 1169 -91 856 284 
Q 544 659 544 1381 
z
M 1991 3584 
L 1991 3584 
z
" transform="scale(0.015625)"/>
       <path id="DejaVuSans-73" d="M 2834 3397 
L 2834 2853 
Q 2591 2978 2328 3040 
Q 2066 3103 1784 3103 
Q 1356 3103 1142 2972 
Q 928 2841 928 2578 
Q 928 2378 1081 2264 
Q 1234 2150 1697 2047 
L 1894 2003 
Q 2506 1872 2764 1633 
Q 3022 1394 3022 966 
Q 3022 478 2636 193 
Q 2250 -91 1575 -91 
Q 1294 -91 989 -36 
Q 684 19 347 128 
L 347 722 
Q 666 556 975 473 
Q 1284 391 1588 391 
Q 1994 391 2212 530 
Q 2431 669 2431 922 
Q 2431 1156 2273 1281 
Q 2116 1406 1581 1522 
L 1381 1569 
Q 847 1681 609 1914 
Q 372 2147 372 2553 
Q 372 3047 722 3315 
Q 1072 3584 1716 3584 
Q 2034 3584 2315 3537 
Q 2597 3491 2834 3397 
z
" transform="scale(0.015625)"/>
      </defs>
      <use xlink:href="#DejaVuSans-50"/>
      <use xlink:href="#DejaVuSans-69" x="58.052734"/>
      <use xlink:href="#DejaVuSans-78" x="85.835938"/>
      <use xlink:href="#DejaVuSans-65" x="141.890625"/>
      <use xlink:href="#DejaVuSans-6c" x="203.414062"/>
      <use xlink:href="#DejaVuSans-20" x="231.197266"/>
      <use xlink:href="#DejaVuSans-76" x="262.984375"/>
      <use xlink:href="#DejaVuSans-61" x="322.164062"/>
      <use xlink:href="#DejaVuSans-6c" x="383.443359"/>
      <use xlink:href="#DejaVuSans-75" x="411.226562"/>
      <use xlink:href="#DejaVuSans-65" x="474.605469"/>
      <use xlink:href="#DejaVuSans-73" x="536.128906"/>
     </g>
    </g>
   </g>
   <g id="matplotlib.axis_2">
    <g id="ytick_1">
     <g id="line2d_7">
      <defs>
       <path id="md9352bd6af" d="M 0 0 
L -3.5 0 
" style="stroke: #000000; stroke-width: 0.8"/>
      </defs>
      <g>
       <use xlink:href="#md9352bd6af" x="56.50625" y="256.35092" style="stroke: #000000; stroke-width: 0.8"/>
      </g>
     </g>
     <g id="text_8">
      <!-- 0.000 -->
      <g transform="translate(20.878125 260.150139) scale(0.1 -0.1)">
       <use xlink:href="#DejaVuSans-30"/>
       <use xlink:href="#DejaVuSans-2e" x="63.623047"/>
       <use xlink:href="#DejaVuSans-30" x="95.410156"/>
       <use xlink:href="#DejaVuSans-30" x="159.033203"/>
       <use xlink:href="#DejaVuSans-30" x="222.65625"/>
      </g>
     </g>
    </g>
    <g id="ytick_2">
     <g id="line2d_8">
      <g>
       <use xlink:href="#md9352bd6af" x="56.50625" y="223.054674" style="stroke: #000000; stroke-width: 0.8"/>
      </g>
     </g>
     <g id="text_9">
      <!-- 0.005 -->
      <g transform="translate(20.878125 226.853893) scale(0.1 -0.1)">
       <defs>
        <path id="DejaVuSans-35" d="M 691 4666 
L 3169 4666 
L 3169 4134 
L 1269 4134 
L 1269 2991 
Q 1406 3038 1543 3061 
Q 1681 3084 1819 3084 
Q 2600 3084 3056 2656 
Q 3513 2228 3513 1497 
Q 3513 744 3044 326 
Q 2575 -91 1722 -91 
Q 1428 -91 1123 -41 
Q 819 9 494 109 
L 494 744 
Q 775 591 1075 516 
Q 1375 441 1709 441 
Q 2250 441 2565 725 
Q 2881 1009 2881 1497 
Q 2881 1984 2565 2268 
Q 2250 2553 1709 2553 
Q 1456 2553 1204 2497 
Q 953 2441 691 2322 
L 691 4666 
z
" transform="scale(0.015625)"/>
       </defs>
       <use xlink:href="#DejaVuSans-30"/>
       <use xlink:href="#DejaVuSans-2e" x="63.623047"/>
       <use xlink:href="#DejaVuSans-30" x="95.410156"/>
       <use xlink:href="#DejaVuSans-30" x="159.033203"/>
       <use xlink:href="#DejaVuSans-35" x="222.65625"/>
      </g>
     </g>
    </g>
    <g id="ytick_3">
     <g id="line2d_9">
      <g>
       <use xlink:href="#md9352bd6af" x="56.50625" y="189.758428" style="stroke: #000000; stroke-width: 0.8"/>
      </g>
     </g>
     <g id="text_10">
      <!-- 0.010 -->
      <g transform="translate(20.878125 193.557647) scale(0.1 -0.1)">
       <use xlink:href="#DejaVuSans-30"/>
       <use xlink:href="#DejaVuSans-2e" x="63.623047"/>
       <use xlink:href="#DejaVuSans-30" x="95.410156"/>
       <use xlink:href="#DejaVuSans-31" x="159.033203"/>
       <use xlink:href="#DejaVuSans-30" x="222.65625"/>
      </g>
     </g>
    </g>
    <g id="ytick_4">
     <g id="line2d_10">
      <g>
       <use xlink:href="#md9352bd6af" x="56.50625" y="156.462182" style="stroke: #000000; stroke-width: 0.8"/>
      </g>
     </g>
     <g id="text_11">
      <!-- 0.015 -->
      <g transform="translate(20.878125 160.261401) scale(0.1 -0.1)">
       <use xlink:href="#DejaVuSans-30"/>
       <use xlink:href="#DejaVuSans-2e" x="63.623047"/>
       <use xlink:href="#DejaVuSans-30" x="95.410156"/>
       <use xlink:href="#DejaVuSans-31" x="159.033203"/>
       <use xlink:href="#DejaVuSans-35" x="222.65625"/>
      </g>
     </g>
    </g>
    <g id="ytick_5">
     <g id="line2d_11">
      <g>
       <use xlink:href="#md9352bd6af" x="56.50625" y="123.165936" style="stroke: #000000; stroke-width: 0.8"/>
      </g>
     </g>
     <g id="text_12">
      <!-- 0.020 -->
      <g transform="translate(20.878125 126.965155) scale(0.1 -0.1)">
       <use xlink:href="#DejaVuSans-30"/>
       <use xlink:href="#DejaVuSans-2e" x="63.623047"/>
       <use xlink:href="#DejaVuSans-30" x="95.410156"/>
       <use xlink:href="#DejaVuSans-32" x="159.033203"/>
       <use xlink:href="#DejaVuSans-30" x="222.65625"/>
      </g>
     </g>
    </g>
    <g id="ytick_6">
     <g id="line2d_12">
      <g>
       <use xlink:href="#md9352bd6af" x="56.50625" y="89.869691" style="stroke: #000000; stroke-width: 0.8"/>
      </g>
     </g>
     <g id="text_13">
      <!-- 0.025 -->
      <g transform="translate(20.878125 93.668909) scale(0.1 -0.1)">
       <use xlink:href="#DejaVuSans-30"/>
       <use xlink:href="#DejaVuSans-2e" x="63.623047"/>
       <use xlink:href="#DejaVuSans-30" x="95.410156"/>
       <use xlink:href="#DejaVuSans-32" x="159.033203"/>
       <use xlink:href="#DejaVuSans-35" x="222.65625"/>
      </g>
     </g>
    </g>
    <g id="ytick_7">
     <g id="line2d_13">
      <g>
       <use xlink:href="#md9352bd6af" x="56.50625" y="56.573445" style="stroke: #000000; stroke-width: 0.8"/>
      </g>
     </g>
     <g id="text_14">
      <!-- 0.030 -->
      <g transform="translate(20.878125 60.372663) scale(0.1 -0.1)">
       <defs>
        <path id="DejaVuSans-33" d="M 2597 2516 
Q 3050 2419 3304 2112 
Q 3559 1806 3559 1356 
Q 3559 666 3084 287 
Q 2609 -91 1734 -91 
Q 1441 -91 1130 -33 
Q 819 25 488 141 
L 488 750 
Q 750 597 1062 519 
Q 1375 441 1716 441 
Q 2309 441 2620 675 
Q 2931 909 2931 1356 
Q 2931 1769 2642 2001 
Q 2353 2234 1838 2234 
L 1294 2234 
L 1294 2753 
L 1863 2753 
Q 2328 2753 2575 2939 
Q 2822 3125 2822 3475 
Q 2822 3834 2567 4026 
Q 2313 4219 1838 4219 
Q 1578 4219 1281 4162 
Q 984 4106 628 3988 
L 628 4550 
Q 988 4650 1302 4700 
Q 1616 4750 1894 4750 
Q 2613 4750 3031 4423 
Q 3450 4097 3450 3541 
Q 3450 3153 3228 2886 
Q 3006 2619 2597 2516 
z
" transform="scale(0.015625)"/>
       </defs>
       <use xlink:href="#DejaVuSans-30"/>
       <use xlink:href="#DejaVuSans-2e" x="63.623047"/>
       <use xlink:href="#DejaVuSans-30" x="95.410156"/>
       <use xlink:href="#DejaVuSans-33" x="159.033203"/>
       <use xlink:href="#DejaVuSans-30" x="222.65625"/>
      </g>
     </g>
    </g>
    <g id="ytick_8">
     <g id="line2d_14">
      <g>
       <use xlink:href="#md9352bd6af" x="56.50625" y="23.277199" style="stroke: #000000; stroke-width: 0.8"/>
      </g>
     </g>
     <g id="text_15">
      <!-- 0.035 -->
      <g transform="translate(20.878125 27.076418) scale(0.1 -0.1)">
       <use xlink:href="#DejaVuSans-30"/>
       <use xlink:href="#DejaVuSans-2e" x="63.623047"/>
       <use xlink:href="#DejaVuSans-30" x="95.410156"/>
       <use xlink:href="#DejaVuSans-33" x="159.033203"/>
       <use xlink:href="#DejaVuSans-35" x="222.65625"/>
      </g>
     </g>
    </g>
    <g id="text_16">
     <!-- Frequency -->
     <g transform="translate(14.798437 181.203812) rotate(-90) scale(0.1 -0.1)">
      <defs>
       <path id="DejaVuSans-46" d="M 628 4666 
L 3309 4666 
L 3309 4134 
L 1259 4134 
L 1259 2759 
L 3109 2759 
L 3109 2228 
L 1259 2228 
L 1259 0 
L 628 0 
L 628 4666 
z
" transform="scale(0.015625)"/>
       <path id="DejaVuSans-72" d="M 2631 2963 
Q 2534 3019 2420 3045 
Q 2306 3072 2169 3072 
Q 1681 3072 1420 2755 
Q 1159 2438 1159 1844 
L 1159 0 
L 581 0 
L 581 3500 
L 1159 3500 
L 1159 2956 
Q 1341 3275 1631 3429 
Q 1922 3584 2338 3584 
Q 2397 3584 2469 3576 
Q 2541 3569 2628 3553 
L 2631 2963 
z
" transform="scale(0.015625)"/>
       <path id="DejaVuSans-71" d="M 947 1747 
Q 947 1113 1208 752 
Q 1469 391 1925 391 
Q 2381 391 2643 752 
Q 2906 1113 2906 1747 
Q 2906 2381 2643 2742 
Q 2381 3103 1925 3103 
Q 1469 3103 1208 2742 
Q 947 2381 947 1747 
z
M 2906 525 
Q 2725 213 2448 61 
Q 2172 -91 1784 -91 
Q 1150 -91 751 415 
Q 353 922 353 1747 
Q 353 2572 751 3078 
Q 1150 3584 1784 3584 
Q 2172 3584 2448 3432 
Q 2725 3281 2906 2969 
L 2906 3500 
L 3481 3500 
L 3481 -1331 
L 2906 -1331 
L 2906 525 
z
" transform="scale(0.015625)"/>
       <path id="DejaVuSans-6e" d="M 3513 2113 
L 3513 0 
L 2938 0 
L 2938 2094 
Q 2938 2591 2744 2837 
Q 2550 3084 2163 3084 
Q 1697 3084 1428 2787 
Q 1159 2491 1159 1978 
L 1159 0 
L 581 0 
L 581 3500 
L 1159 3500 
L 1159 2956 
Q 1366 3272 1645 3428 
Q 1925 3584 2291 3584 
Q 2894 3584 3203 3211 
Q 3513 2838 3513 2113 
z
" transform="scale(0.015625)"/>
       <path id="DejaVuSans-63" d="M 3122 3366 
L 3122 2828 
Q 2878 2963 2633 3030 
Q 2388 3097 2138 3097 
Q 1578 3097 1268 2742 
Q 959 2388 959 1747 
Q 959 1106 1268 751 
Q 1578 397 2138 397 
Q 2388 397 2633 464 
Q 2878 531 3122 666 
L 3122 134 
Q 2881 22 2623 -34 
Q 2366 -91 2075 -91 
Q 1284 -91 818 406 
Q 353 903 353 1747 
Q 353 2603 823 3093 
Q 1294 3584 2113 3584 
Q 2378 3584 2631 3529 
Q 2884 3475 3122 3366 
z
" transform="scale(0.015625)"/>
       <path id="DejaVuSans-79" d="M 2059 -325 
Q 1816 -950 1584 -1140 
Q 1353 -1331 966 -1331 
L 506 -1331 
L 506 -850 
L 844 -850 
Q 1081 -850 1212 -737 
Q 1344 -625 1503 -206 
L 1606 56 
L 191 3500 
L 800 3500 
L 1894 763 
L 2988 3500 
L 3597 3500 
L 2059 -325 
z
" transform="scale(0.015625)"/>
      </defs>
      <use xlink:href="#DejaVuSans-46"/>
      <use xlink:href="#DejaVuSans-72" x="50.269531"/>
      <use xlink:href="#DejaVuSans-65" x="89.132812"/>
      <use xlink:href="#DejaVuSans-71" x="150.65625"/>
      <use xlink:href="#DejaVuSans-75" x="214.132812"/>
      <use xlink:href="#DejaVuSans-65" x="277.511719"/>
      <use xlink:href="#DejaVuSans-6e" x="339.035156"/>
      <use xlink:href="#DejaVuSans-63" x="402.414062"/>
      <use xlink:href="#DejaVuSans-79" x="457.394531"/>
     </g>
    </g>
   </g>
   <g id="line2d_15">
    <path d="M 72.738977 267.313779 
L 76.018315 255.957565 
L 79.297653 245.137553 
L 82.576991 235.084807 
L 85.85633 225.963641 
L 89.135668 217.880794 
L 92.415006 210.893872 
L 95.694344 205.019082 
L 98.973682 200.238284 
L 102.25302 196.505402 
L 105.532358 193.752209 
L 108.811696 191.893523 
L 112.091034 190.831847 
L 115.370372 190.461478 
L 118.64971 190.67211 
L 121.929048 191.351977 
L 125.208386 192.390543 
L 128.487724 193.680792 
L 131.767062 195.121123 
L 135.0464 196.616896 
L 138.325738 198.081651 
L 141.605077 199.438023 
L 144.884415 200.618383 
L 148.163753 201.565237 
L 151.443091 202.231392 
L 154.722429 202.57993 
L 158.001767 202.584007 
L 161.281105 202.226494 
L 164.560443 201.49949 
L 167.839781 200.403727 
L 171.119119 198.947877 
L 174.398457 197.147798 
L 177.677795 195.025713 
L 180.957133 192.609363 
L 184.236471 189.931131 
L 187.515809 187.027161 
L 190.795147 183.93648 
L 194.074486 180.700147 
L 197.353824 177.360417 
L 200.633162 173.959959 
L 203.9125 170.541113 
L 207.191838 167.145204 
L 210.471176 163.811924 
L 213.750514 160.578775 
L 217.029852 157.480592 
L 220.30919 154.54913 
L 223.588528 151.812749 
L 226.867866 149.296154 
L 230.147204 147.020237 
L 233.426542 256.331511 
L 236.70588 256.331222 
L 239.985218 141.600031 
L 243.264556 140.173314 
L 246.543895 139.050646 
L 249.823233 138.240837 
L 253.102571 137.74884 
L 256.381909 137.575734 
L 259.661247 137.71878 
L 262.940585 138.17156 
L 266.219923 138.924181 
L 269.499261 139.963566 
L 272.778599 141.273829 
L 276.057937 142.836713 
L 279.337275 144.632115 
L 282.616613 146.638675 
L 285.895951 148.834427 
L 289.175289 151.197496 
L 292.454627 153.706844 
L 295.733965 156.343032 
L 299.013303 159.088986 
L 302.292642 161.930754 
L 305.57198 164.858209 
L 308.851318 167.865693 
L 312.130656 170.952549 
L 315.409994 174.123506 
L 318.689332 177.388889 
L 321.96867 180.764587 
L 325.248008 184.27174 
L 328.527346 187.936074 
L 331.806684 191.786839 
L 335.086022 195.855251 
L 338.36536 200.17239 
L 341.644698 204.766446 
L 344.924036 209.659231 
L 348.203374 214.861867 
L 351.482712 220.369515 
L 354.762051 226.155064 
L 358.041389 232.161619 
L 361.320727 238.293688 
L 364.600065 244.406898 
L 367.879403 250.296092 
L 371.158741 255.681659 
L 374.438079 260.193899 
L 377.717417 263.355243 
L 380.996755 264.560146 
L 384.276093 263.052414 
L 387.555431 257.899762 
L 390.834769 247.965365 
L 394.114107 231.876142 
L 397.393445 207.987514 
" clip-path="url(#p576c1ff1a5)" style="fill: none; stroke: #1f77b4; stroke-width: 1.5; stroke-linecap: square"/>
   </g>
   <g id="line2d_16">
    <path d="M 72.738977 258.421934 
L 76.018316 255.783433 
L 79.297655 252.99772 
L 82.576994 250.000234 
L 85.856333 246.81223 
L 89.135671 243.509308 
L 92.41501 240.196626 
L 95.694349 236.989838 
L 98.973688 234.000941 
L 102.253027 231.32825 
L 105.532366 229.049834 
L 108.811705 227.219793 
L 112.091043 225.866811 
L 115.370382 224.994529 
L 118.649721 224.583284 
L 121.92906 224.592853 
L 125.208399 224.965876 
L 128.487738 225.631686 
L 131.767076 226.510301 
L 135.046415 227.516394 
L 138.325754 228.563088 
L 141.605093 229.565437 
L 144.884432 230.443507 
L 148.163771 231.124998 
L 151.44311 231.547347 
L 154.722448 231.659298 
L 158.001787 231.421948 
L 161.281126 230.809253 
L 164.560465 229.808059 
L 167.839804 228.417659 
L 171.119143 226.648951 
L 174.398481 224.523246 
L 177.67782 222.070774 
L 180.957159 219.328971 
L 184.236498 216.340604 
L 187.515837 213.151803 
L 190.795176 209.810064 
L 194.074514 206.362291 
L 197.353853 202.852937 
L 200.633192 199.322294 
L 203.912531 195.804993 
L 207.19187 192.328747 
L 210.471209 188.913383 
L 213.750548 185.570183 
L 217.029886 182.301573 
L 220.309225 179.101143 
L 223.588564 175.954039 
L 226.867903 172.837688 
L 230.147242 169.722864 
L 233.426581 256.331981 
L 236.705919 256.330424 
L 239.985258 160.786694 
L 243.264597 156.943428 
L 246.543936 152.884726 
L 249.823275 148.596904 
L 253.102614 144.074605 
L 256.381952 139.322289 
L 259.661291 134.355544 
L 262.94063 129.20219 
L 266.219969 123.903112 
L 269.499308 118.512792 
L 272.778647 113.09949 
L 276.057986 107.745041 
L 279.337324 102.544234 
L 282.616663 97.603743 
L 285.896002 93.040596 
L 289.175341 88.980163 
L 292.45468 85.553665 
L 295.734019 82.895207 
L 299.013357 81.138361 
L 302.292696 80.412319 
L 305.572035 80.837671 
L 308.851374 82.52187 
L 312.130713 85.554456 
L 315.410052 90.002141 
L 318.68939 95.903872 
L 321.968729 103.266013 
L 325.248068 112.057798 
L 328.527407 122.207265 
L 331.806746 133.597854 
L 335.086085 146.065947 
L 338.365424 159.399591 
L 341.644762 173.338738 
L 344.924101 187.577319 
L 348.20344 201.767547 
L 351.482779 215.526847 
L 354.762118 228.447886 
L 358.041457 240.112184 
L 361.320795 250.107857 
L 364.600134 258.052082 
L 367.879473 263.618918 
L 371.158812 266.573172 
L 374.438151 266.811063 
L 377.71749 264.408467 
L 380.996829 259.677616 
L 384.276167 253.233171 
L 387.555506 246.068637 
L 390.834845 239.644186 
L 394.114184 235.986998 
L 397.393523 237.805316 
" clip-path="url(#p576c1ff1a5)" style="fill: none; stroke: #ff7f0e; stroke-width: 1.5; stroke-linecap: square"/>
   </g>
   <g id="line2d_17">
    <path d="M 72.738977 273.983387 
L 76.018316 249.874939 
L 79.297654 236.395502 
L 82.576993 229.836152 
L 85.856331 227.487622 
L 89.13567 227.435665 
L 92.415008 228.387817 
L 95.694346 229.528007 
L 98.973685 230.395777 
L 102.253023 230.787133 
L 105.532362 230.674276 
L 108.8117 230.14173 
L 112.091039 229.336569 
L 115.370377 228.430696 
L 118.649716 227.593302 
L 121.929054 226.971816 
L 125.208393 226.679863 
L 128.487731 226.790875 
L 131.767069 227.336186 
L 135.046408 228.30656 
L 138.325746 229.656265 
L 141.605085 231.308893 
L 144.884423 233.164279 
L 148.163762 235.105947 
L 151.4431 237.008637 
L 154.722439 238.745515 
L 158.001777 240.194802 
L 161.281115 241.245575 
L 164.560454 241.802606 
L 167.839792 241.790124 
L 171.119131 241.154467 
L 174.398469 239.865608 
L 177.677808 237.917603 
L 180.957146 235.328016 
L 184.236485 232.136426 
L 187.515823 228.402123 
L 190.795162 224.201118 
L 194.0745 219.622632 
L 197.353838 214.76518 
L 200.633177 209.73243 
L 203.912515 204.628973 
L 207.191854 199.556151 
L 210.471192 194.608095 
L 213.750531 189.868078 
L 217.029869 185.40533 
L 220.309208 181.272389 
L 223.588546 177.503087 
L 226.867885 174.111242 
L 230.147223 171.09009 
L 233.426561 256.336552 
L 236.7059 256.335237 
L 239.985238 163.650567 
L 243.264577 161.236594 
L 246.543915 158.909148 
L 249.823254 156.586393 
L 253.102592 154.181182 
L 256.381931 151.605045 
L 259.661269 148.772482 
L 262.940607 145.605442 
L 266.219946 142.037859 
L 269.499284 138.020088 
L 272.778623 133.523103 
L 276.057961 128.542292 
L 279.3373 123.100687 
L 282.616638 117.251485 
L 285.895977 111.079693 
L 289.175315 104.702766 
L 292.454654 98.270095 
L 295.733992 91.961249 
L 299.01333 85.982872 
L 302.292669 80.564167 
L 305.572007 75.950959 
L 308.851346 72.398322 
L 312.130684 70.161847 
L 315.410023 69.48764 
L 318.689361 70.601229 
L 321.9687 73.695589 
L 325.248038 78.918608 
L 328.527377 86.360348 
L 331.806715 96.040591 
L 335.086053 107.897207 
L 338.365392 121.776025 
L 341.64473 137.422973 
L 344.924069 154.479388 
L 348.203407 172.481515 
L 351.482746 190.865368 
L 354.762084 208.978259 
L 358.041423 226.09848 
L 361.320761 241.464765 
L 364.6001 254.31737 
L 367.879438 263.952779 
L 371.158776 269.794253 
L 374.438115 271.480653 
L 377.717453 268.976195 
L 380.996792 262.704034 
L 384.27613 253.706817 
L 387.555469 243.83762 
L 390.834807 235.984948 
L 394.114146 234.335775 
L 397.393484 244.680903 
" clip-path="url(#p576c1ff1a5)" style="fill: none; stroke: #2ca02c; stroke-width: 1.5; stroke-linecap: square"/>
   </g>
   <g id="line2d_18">
    <path d="M 72.738977 255.907389 
L 76.018316 256.542713 
L 79.297655 255.074725 
L 82.576994 251.878345 
L 85.856333 247.330444 
L 89.135671 241.793803 
L 92.41501 235.60511 
L 95.694349 229.066431 
L 98.973688 222.439646 
L 102.253027 215.943379 
L 105.532366 209.752021 
L 108.811705 203.996436 
L 112.091043 198.766036 
L 115.370382 194.111899 
L 118.649721 190.050679 
L 121.92906 186.569043 
L 125.208399 183.628449 
L 128.487738 181.170079 
L 131.767076 179.119756 
L 135.046415 177.392739 
L 138.325754 175.898267 
L 141.605093 174.543783 
L 144.884432 173.238744 
L 148.163771 171.898001 
L 151.44311 170.444674 
L 154.722448 168.812536 
L 158.001787 166.947874 
L 161.281126 164.810842 
L 164.560465 162.376306 
L 167.839804 159.634227 
L 171.119143 156.589576 
L 174.398481 153.261852 
L 177.67782 149.684213 
L 180.957159 145.902286 
L 184.236498 141.972691 
L 187.515837 137.961334 
L 190.795176 133.941517 
L 194.074514 129.991918 
L 197.353853 126.194486 
L 200.633192 122.632314 
L 203.912531 119.387518 
L 207.19187 116.539184 
L 210.471209 114.161421 
L 213.750548 112.321544 
L 217.029886 111.078454 
L 220.309225 110.481207 
L 223.588564 110.567826 
L 226.867903 111.36437 
L 230.147242 112.884271 
L 233.426581 256.330492 
L 236.705919 256.328907 
L 239.985258 125.119124 
L 243.264597 128.066795 
L 246.543936 131.477662 
L 249.823275 135.360169 
L 253.102614 139.718502 
L 256.381952 144.550933 
L 259.661291 149.848131 
L 262.94063 155.591532 
L 266.219969 161.751832 
L 269.499308 168.287703 
L 272.778647 175.144812 
L 276.057986 182.255241 
L 279.337324 189.537385 
L 282.616663 196.896406 
L 285.896002 204.225321 
L 289.175341 211.406766 
L 292.45468 218.315496 
L 295.734019 224.821619 
L 299.013357 230.794583 
L 302.292696 236.107863 
L 305.572035 240.644306 
L 308.851374 244.302006 
L 312.130713 247.000591 
L 315.410052 248.687708 
L 318.68939 249.345473 
L 321.968729 248.996576 
L 325.248068 247.709672 
L 328.527407 245.603623 
L 331.806746 242.850059 
L 335.086085 239.673678 
L 338.365424 236.349564 
L 341.644762 233.196755 
L 344.924101 230.567156 
L 348.20344 228.828778 
L 351.482779 228.342185 
L 354.762118 229.428884 
L 358.041457 232.330254 
L 361.320795 237.15548 
L 364.600134 243.816783 
L 367.879473 251.9501 
L 371.158812 260.819154 
L 374.438151 269.20072 
L 377.71749 275.24866 
L 380.996829 276.334125 
L 384.276167 268.85909 
L 387.555506 248.040178 
L 390.834845 207.659488 
L 394.114184 139.778911 
L 397.393523 34.414125 
" clip-path="url(#p576c1ff1a5)" style="fill: none; stroke: #d62728; stroke-width: 1.5; stroke-linecap: square"/>
   </g>
   <g id="line2d_19">
    <path d="M 72.738977 250.963878 
L 76.018316 258.015398 
L 79.297655 258.617347 
L 82.576993 255.127769 
L 85.856332 249.325681 
L 89.135671 242.515149 
L 92.415009 235.615245 
L 95.694348 229.237317 
L 98.973686 223.750902 
L 102.253025 219.339539 
L 105.532364 216.047591 
L 108.811702 213.819147 
L 112.091041 212.529954 
L 115.37038 212.013261 
L 118.649718 212.080374 
L 121.929057 212.536655 
L 125.208396 213.193629 
L 128.487734 213.877777 
L 131.767073 214.436567 
L 135.046412 214.742198 
L 138.32575 214.693471 
L 141.605089 214.21617 
L 144.884428 213.262281 
L 148.163766 211.808329 
L 151.443105 209.853095 
L 154.722443 207.414901 
L 158.001782 204.528653 
L 161.281121 201.2428 
L 164.560459 197.616299 
L 167.839798 193.715712 
L 171.119137 189.612487 
L 174.398475 185.380482 
L 177.677814 181.093778 
L 180.957153 176.824779 
L 184.236491 172.64263 
L 187.51583 168.611935 
L 190.795169 164.79177 
L 194.074507 161.234967 
L 197.353846 157.987646 
L 200.633185 155.08896 
L 203.912523 152.571037 
L 207.191862 150.459061 
L 210.4712 148.771475 
L 213.750539 147.520279 
L 217.029878 146.711362 
L 220.309216 146.344881 
L 223.588555 146.415621 
L 226.867894 146.913348 
L 230.147232 147.823115 
L 233.426571 256.333461 
L 236.70591 256.333512 
L 239.985248 152.886473 
L 243.264587 155.334657 
L 246.543926 158.048946 
L 249.823264 160.984348 
L 253.102603 164.092324 
L 256.381942 167.320993 
L 259.66128 170.615352 
L 262.940619 173.917541 
L 266.219957 177.16718 
L 269.499296 180.301793 
L 272.778635 183.257357 
L 276.057973 185.969005 
L 279.337312 188.371894 
L 282.616651 190.402283 
L 285.895989 191.998812 
L 289.175328 193.104028 
L 292.454667 193.666134 
L 295.734005 193.640981 
L 299.013344 192.994276 
L 302.292683 191.703997 
L 305.572021 189.76295 
L 308.85136 187.181445 
L 312.130699 183.989995 
L 315.410037 180.241941 
L 318.689376 176.015906 
L 321.968714 171.41791 
L 325.248053 166.58299 
L 328.527392 161.676113 
L 331.80673 156.892144 
L 335.086069 152.4546 
L 338.365408 148.612871 
L 341.644746 145.637544 
L 344.924085 143.813437 
L 348.203424 143.429879 
L 351.482762 144.767726 
L 354.762101 148.082553 
L 358.04144 153.583393 
L 361.320778 161.406329 
L 364.600117 171.582177 
L 367.879456 183.997434 
L 371.158794 198.347572 
L 374.438133 214.08169 
L 377.717471 230.337453 
L 380.99681 245.865131 
L 384.276149 258.939502 
L 387.555487 267.258232 
L 390.834826 267.825286 
L 394.114165 256.817776 
L 397.393503 229.434574 
" clip-path="url(#p576c1ff1a5)" style="fill: none; stroke: #9467bd; stroke-width: 1.5; stroke-linecap: square"/>
   </g>
   <g id="line2d_20">
    <path d="M 72.738977 252.688528 
L 75.721383 257.828528 
L 78.703789 259.283204 
L 81.686194 258.535381 
L 84.6686 256.64731 
L 87.651005 254.348304 
L 90.633411 252.108818 
L 93.615817 250.202504 
L 96.598222 248.757667 
L 99.580628 247.799396 
L 102.563034 247.28357 
L 105.545439 247.123819 
L 108.527845 247.212412 
L 111.510251 247.435998 
L 114.492656 247.68697 
L 117.475062 247.871202 
L 120.457467 247.912797 
L 123.439873 247.756433 
L 126.422279 247.367803 
L 129.404684 246.732604 
L 132.38709 245.854467 
L 135.369496 244.752158 
L 138.351901 243.456336 
L 141.334307 242.006113 
L 144.316713 240.4456 
L 147.299118 238.820617 
L 150.281524 237.175678 
L 153.26393 235.551353 
L 156.246335 233.982059 
L 159.228741 232.494343 
L 162.211146 231.105652 
L 165.193552 229.823611 
L 168.175958 228.64577 
L 171.158363 227.559818 
L 174.140769 226.544198 
L 177.123175 225.569083 
L 180.10558 224.597661 
L 183.087986 223.58766 
L 186.070392 222.493051 
L 189.052797 221.265865 
L 192.035203 219.858058 
L 195.017608 218.223364 
L 198.000014 216.319066 
L 200.98242 214.10765 
L 203.964825 211.558269 
L 206.947231 208.647992 
L 209.929637 205.362791 
L 212.912042 201.698245 
L 215.894448 197.659938 
L 218.876854 256.334388 
L 221.859259 256.333962 
L 224.841665 183.356793 
L 227.82407 178.242128 
L 230.806476 172.926289 
L 233.788882 167.458001 
L 236.771287 161.89033 
L 239.753693 156.27927 
L 242.736099 150.682233 
L 245.718504 145.156479 
L 248.70091 139.75755 
L 251.683316 134.537751 
L 254.665721 129.544729 
L 257.648127 124.82023 
L 260.630533 120.399058 
L 263.612938 116.308309 
L 266.595344 112.566933 
L 269.577749 109.185644 
L 272.560155 106.167242 
L 275.542561 103.507353 
L 278.524966 101.19562 
L 281.507372 99.217331 
L 284.489778 97.555484 
L 287.472183 96.193248 
L 290.454589 95.11678 
L 293.436995 94.318303 
L 296.4194 93.799366 
L 299.401806 93.574142 
L 302.384211 93.672605 
L 305.366617 94.14339 
L 308.349023 95.056098 
L 311.331428 96.502777 
L 314.313834 98.598248 
L 317.29624 101.478908 
L 320.278645 105.299596 
L 323.261051 110.228025 
L 326.243457 116.43627 
L 329.225862 124.088671 
L 332.208268 133.325522 
L 335.190673 144.241768 
L 338.173079 156.859912 
L 341.155485 171.096214 
L 344.13789 186.719215 
L 347.120296 203.299479 
L 350.102702 220.149409 
L 353.085107 236.251842 
L 356.067513 250.176042 
L 359.049919 259.979618 
L 362.032324 263.094732 
L 365.01473 256.196896 
L 367.997136 235.054468 
" clip-path="url(#p576c1ff1a5)" style="fill: none; stroke: #8c564b; stroke-width: 1.5; stroke-linecap: square"/>
   </g>
   <g id="patch_3">
    <path d="M 56.50625 288.430125 
L 56.50625 22.318125 
" style="fill: none; stroke: #000000; stroke-width: 0.8; stroke-linejoin: miter; stroke-linecap: square"/>
   </g>
   <g id="patch_4">
    <path d="M 413.62625 288.430125 
L 413.62625 22.318125 
" style="fill: none; stroke: #000000; stroke-width: 0.8; stroke-linejoin: miter; stroke-linecap: square"/>
   </g>
   <g id="patch_5">
    <path d="M 56.50625 288.430125 
L 413.62625 288.430125 
" style="fill: none; stroke: #000000; stroke-width: 0.8; stroke-linejoin: miter; stroke-linecap: square"/>
   </g>
   <g id="patch_6">
    <path d="M 56.50625 22.318125 
L 413.62625 22.318125 
" style="fill: none; stroke: #000000; stroke-width: 0.8; stroke-linejoin: miter; stroke-linecap: square"/>
   </g>
   <g id="text_17">
    <!-- FA - xtract_prob_Corticospinal_Tract_R -->
    <g transform="translate(120.952813 16.318125) scale(0.12 -0.12)">
     <defs>
      <path id="DejaVuSans-41" d="M 2188 4044 
L 1331 1722 
L 3047 1722 
L 2188 4044 
z
M 1831 4666 
L 2547 4666 
L 4325 0 
L 3669 0 
L 3244 1197 
L 1141 1197 
L 716 0 
L 50 0 
L 1831 4666 
z
" transform="scale(0.015625)"/>
      <path id="DejaVuSans-2d" d="M 313 2009 
L 1997 2009 
L 1997 1497 
L 313 1497 
L 313 2009 
z
" transform="scale(0.015625)"/>
      <path id="DejaVuSans-74" d="M 1172 4494 
L 1172 3500 
L 2356 3500 
L 2356 3053 
L 1172 3053 
L 1172 1153 
Q 1172 725 1289 603 
Q 1406 481 1766 481 
L 2356 481 
L 2356 0 
L 1766 0 
Q 1100 0 847 248 
Q 594 497 594 1153 
L 594 3053 
L 172 3053 
L 172 3500 
L 594 3500 
L 594 4494 
L 1172 4494 
z
" transform="scale(0.015625)"/>
      <path id="DejaVuSans-5f" d="M 3263 -1063 
L 3263 -1509 
L -63 -1509 
L -63 -1063 
L 3263 -1063 
z
" transform="scale(0.015625)"/>
      <path id="DejaVuSans-70" d="M 1159 525 
L 1159 -1331 
L 581 -1331 
L 581 3500 
L 1159 3500 
L 1159 2969 
Q 1341 3281 1617 3432 
Q 1894 3584 2278 3584 
Q 2916 3584 3314 3078 
Q 3713 2572 3713 1747 
Q 3713 922 3314 415 
Q 2916 -91 2278 -91 
Q 1894 -91 1617 61 
Q 1341 213 1159 525 
z
M 3116 1747 
Q 3116 2381 2855 2742 
Q 2594 3103 2138 3103 
Q 1681 3103 1420 2742 
Q 1159 2381 1159 1747 
Q 1159 1113 1420 752 
Q 1681 391 2138 391 
Q 2594 391 2855 752 
Q 3116 1113 3116 1747 
z
" transform="scale(0.015625)"/>
      <path id="DejaVuSans-6f" d="M 1959 3097 
Q 1497 3097 1228 2736 
Q 959 2375 959 1747 
Q 959 1119 1226 758 
Q 1494 397 1959 397 
Q 2419 397 2687 759 
Q 2956 1122 2956 1747 
Q 2956 2369 2687 2733 
Q 2419 3097 1959 3097 
z
M 1959 3584 
Q 2709 3584 3137 3096 
Q 3566 2609 3566 1747 
Q 3566 888 3137 398 
Q 2709 -91 1959 -91 
Q 1206 -91 779 398 
Q 353 888 353 1747 
Q 353 2609 779 3096 
Q 1206 3584 1959 3584 
z
" transform="scale(0.015625)"/>
      <path id="DejaVuSans-62" d="M 3116 1747 
Q 3116 2381 2855 2742 
Q 2594 3103 2138 3103 
Q 1681 3103 1420 2742 
Q 1159 2381 1159 1747 
Q 1159 1113 1420 752 
Q 1681 391 2138 391 
Q 2594 391 2855 752 
Q 3116 1113 3116 1747 
z
M 1159 2969 
Q 1341 3281 1617 3432 
Q 1894 3584 2278 3584 
Q 2916 3584 3314 3078 
Q 3713 2572 3713 1747 
Q 3713 922 3314 415 
Q 2916 -91 2278 -91 
Q 1894 -91 1617 61 
Q 1341 213 1159 525 
L 1159 0 
L 581 0 
L 581 4863 
L 1159 4863 
L 1159 2969 
z
" transform="scale(0.015625)"/>
      <path id="DejaVuSans-43" d="M 4122 4306 
L 4122 3641 
Q 3803 3938 3442 4084 
Q 3081 4231 2675 4231 
Q 1875 4231 1450 3742 
Q 1025 3253 1025 2328 
Q 1025 1406 1450 917 
Q 1875 428 2675 428 
Q 3081 428 3442 575 
Q 3803 722 4122 1019 
L 4122 359 
Q 3791 134 3420 21 
Q 3050 -91 2638 -91 
Q 1578 -91 968 557 
Q 359 1206 359 2328 
Q 359 3453 968 4101 
Q 1578 4750 2638 4750 
Q 3056 4750 3426 4639 
Q 3797 4528 4122 4306 
z
" transform="scale(0.015625)"/>
      <path id="DejaVuSans-54" d="M -19 4666 
L 3928 4666 
L 3928 4134 
L 2272 4134 
L 2272 0 
L 1638 0 
L 1638 4134 
L -19 4134 
L -19 4666 
z
" transform="scale(0.015625)"/>
      <path id="DejaVuSans-52" d="M 2841 2188 
Q 3044 2119 3236 1894 
Q 3428 1669 3622 1275 
L 4263 0 
L 3584 0 
L 2988 1197 
Q 2756 1666 2539 1819 
Q 2322 1972 1947 1972 
L 1259 1972 
L 1259 0 
L 628 0 
L 628 4666 
L 2053 4666 
Q 2853 4666 3247 4331 
Q 3641 3997 3641 3322 
Q 3641 2881 3436 2590 
Q 3231 2300 2841 2188 
z
M 1259 4147 
L 1259 2491 
L 2053 2491 
Q 2509 2491 2742 2702 
Q 2975 2913 2975 3322 
Q 2975 3731 2742 3939 
Q 2509 4147 2053 4147 
L 1259 4147 
z
" transform="scale(0.015625)"/>
     </defs>
     <use xlink:href="#DejaVuSans-46"/>
     <use xlink:href="#DejaVuSans-41" x="48.394531"/>
     <use xlink:href="#DejaVuSans-20" x="116.802734"/>
     <use xlink:href="#DejaVuSans-2d" x="148.589844"/>
     <use xlink:href="#DejaVuSans-20" x="184.673828"/>
     <use xlink:href="#DejaVuSans-78" x="216.460938"/>
     <use xlink:href="#DejaVuSans-74" x="275.640625"/>
     <use xlink:href="#DejaVuSans-72" x="314.849609"/>
     <use xlink:href="#DejaVuSans-61" x="355.962891"/>
     <use xlink:href="#DejaVuSans-63" x="417.242188"/>
     <use xlink:href="#DejaVuSans-74" x="472.222656"/>
     <use xlink:href="#DejaVuSans-5f" x="511.431641"/>
     <use xlink:href="#DejaVuSans-70" x="561.431641"/>
     <use xlink:href="#DejaVuSans-72" x="624.908203"/>
     <use xlink:href="#DejaVuSans-6f" x="663.771484"/>
     <use xlink:href="#DejaVuSans-62" x="724.953125"/>
     <use xlink:href="#DejaVuSans-5f" x="788.429688"/>
     <use xlink:href="#DejaVuSans-43" x="838.429688"/>
     <use xlink:href="#DejaVuSans-6f" x="908.253906"/>
     <use xlink:href="#DejaVuSans-72" x="969.435547"/>
     <use xlink:href="#DejaVuSans-74" x="1010.548828"/>
     <use xlink:href="#DejaVuSans-69" x="1049.757812"/>
     <use xlink:href="#DejaVuSans-63" x="1077.541016"/>
     <use xlink:href="#DejaVuSans-6f" x="1132.521484"/>
     <use xlink:href="#DejaVuSans-73" x="1193.703125"/>
     <use xlink:href="#DejaVuSans-70" x="1245.802734"/>
     <use xlink:href="#DejaVuSans-69" x="1309.279297"/>
     <use xlink:href="#DejaVuSans-6e" x="1337.0625"/>
     <use xlink:href="#DejaVuSans-61" x="1400.441406"/>
     <use xlink:href="#DejaVuSans-6c" x="1461.720703"/>
     <use xlink:href="#DejaVuSans-5f" x="1489.503906"/>
     <use xlink:href="#DejaVuSans-54" x="1539.503906"/>
     <use xlink:href="#DejaVuSans-72" x="1585.837891"/>
     <use xlink:href="#DejaVuSans-61" x="1626.951172"/>
     <use xlink:href="#DejaVuSans-63" x="1688.230469"/>
     <use xlink:href="#DejaVuSans-74" x="1743.210938"/>
     <use xlink:href="#DejaVuSans-5f" x="1782.419922"/>
     <use xlink:href="#DejaVuSans-52" x="1832.419922"/>
    </g>
   </g>
   <g id="legend_1">
    <g id="patch_7">
     <path d="M 456.33825 146.666825 
L 554.1945 146.666825 
Q 556.1945 146.666825 556.1945 144.666825 
L 556.1945 55.929325 
Q 556.1945 53.929325 554.1945 53.929325 
L 456.33825 53.929325 
Q 454.33825 53.929325 454.33825 55.929325 
L 454.33825 144.666825 
Q 454.33825 146.666825 456.33825 146.666825 
z
" style="fill: #ffffff; opacity: 0.8; stroke: #cccccc; stroke-linejoin: miter"/>
    </g>
    <g id="line2d_21">
     <path d="M 458.33825 62.027762 
L 468.33825 62.027762 
L 478.33825 62.027762 
" style="fill: none; stroke: #1f77b4; stroke-width: 1.5; stroke-linecap: square"/>
    </g>
    <g id="text_18">
     <!-- 20_06_02_E3 -->
     <g transform="translate(486.33825 65.527762) scale(0.1 -0.1)">
      <defs>
       <path id="DejaVuSans-45" d="M 628 4666 
L 3578 4666 
L 3578 4134 
L 1259 4134 
L 1259 2753 
L 3481 2753 
L 3481 2222 
L 1259 2222 
L 1259 531 
L 3634 531 
L 3634 0 
L 628 0 
L 628 4666 
z
" transform="scale(0.015625)"/>
      </defs>
      <use xlink:href="#DejaVuSans-32"/>
      <use xlink:href="#DejaVuSans-30" x="63.623047"/>
      <use xlink:href="#DejaVuSans-5f" x="127.246094"/>
      <use xlink:href="#DejaVuSans-30" x="177.246094"/>
      <use xlink:href="#DejaVuSans-36" x="240.869141"/>
      <use xlink:href="#DejaVuSans-5f" x="304.492188"/>
      <use xlink:href="#DejaVuSans-30" x="354.492188"/>
      <use xlink:href="#DejaVuSans-32" x="418.115234"/>
      <use xlink:href="#DejaVuSans-5f" x="481.738281"/>
      <use xlink:href="#DejaVuSans-45" x="531.738281"/>
      <use xlink:href="#DejaVuSans-33" x="594.921875"/>
     </g>
    </g>
    <g id="line2d_22">
     <path d="M 458.33825 76.984013 
L 468.33825 76.984013 
L 478.33825 76.984013 
" style="fill: none; stroke: #ff7f0e; stroke-width: 1.5; stroke-linecap: square"/>
    </g>
    <g id="text_19">
     <!-- 20_05_01_E3 -->
     <g transform="translate(486.33825 80.484013) scale(0.1 -0.1)">
      <use xlink:href="#DejaVuSans-32"/>
      <use xlink:href="#DejaVuSans-30" x="63.623047"/>
      <use xlink:href="#DejaVuSans-5f" x="127.246094"/>
      <use xlink:href="#DejaVuSans-30" x="177.246094"/>
      <use xlink:href="#DejaVuSans-35" x="240.869141"/>
      <use xlink:href="#DejaVuSans-5f" x="304.492188"/>
      <use xlink:href="#DejaVuSans-30" x="354.492188"/>
      <use xlink:href="#DejaVuSans-31" x="418.115234"/>
      <use xlink:href="#DejaVuSans-5f" x="481.738281"/>
      <use xlink:href="#DejaVuSans-45" x="531.738281"/>
      <use xlink:href="#DejaVuSans-33" x="594.921875"/>
     </g>
    </g>
    <g id="line2d_23">
     <path d="M 458.33825 91.940262 
L 468.33825 91.940262 
L 478.33825 91.940262 
" style="fill: none; stroke: #2ca02c; stroke-width: 1.5; stroke-linecap: square"/>
    </g>
    <g id="text_20">
     <!-- 20_02_02_E3 -->
     <g transform="translate(486.33825 95.440262) scale(0.1 -0.1)">
      <use xlink:href="#DejaVuSans-32"/>
      <use xlink:href="#DejaVuSans-30" x="63.623047"/>
      <use xlink:href="#DejaVuSans-5f" x="127.246094"/>
      <use xlink:href="#DejaVuSans-30" x="177.246094"/>
      <use xlink:href="#DejaVuSans-32" x="240.869141"/>
      <use xlink:href="#DejaVuSans-5f" x="304.492188"/>
      <use xlink:href="#DejaVuSans-30" x="354.492188"/>
      <use xlink:href="#DejaVuSans-32" x="418.115234"/>
      <use xlink:href="#DejaVuSans-5f" x="481.738281"/>
      <use xlink:href="#DejaVuSans-45" x="531.738281"/>
      <use xlink:href="#DejaVuSans-33" x="594.921875"/>
     </g>
    </g>
    <g id="line2d_24">
     <path d="M 458.33825 106.896513 
L 468.33825 106.896513 
L 478.33825 106.896513 
" style="fill: none; stroke: #d62728; stroke-width: 1.5; stroke-linecap: square"/>
    </g>
    <g id="text_21">
     <!-- 20_10_02_E3 -->
     <g transform="translate(486.33825 110.396513) scale(0.1 -0.1)">
      <use xlink:href="#DejaVuSans-32"/>
      <use xlink:href="#DejaVuSans-30" x="63.623047"/>
      <use xlink:href="#DejaVuSans-5f" x="127.246094"/>
      <use xlink:href="#DejaVuSans-31" x="177.246094"/>
      <use xlink:href="#DejaVuSans-30" x="240.869141"/>
      <use xlink:href="#DejaVuSans-5f" x="304.492188"/>
      <use xlink:href="#DejaVuSans-30" x="354.492188"/>
      <use xlink:href="#DejaVuSans-32" x="418.115234"/>
      <use xlink:href="#DejaVuSans-5f" x="481.738281"/>
      <use xlink:href="#DejaVuSans-45" x="531.738281"/>
      <use xlink:href="#DejaVuSans-33" x="594.921875"/>
     </g>
    </g>
    <g id="line2d_25">
     <path d="M 458.33825 121.852762 
L 468.33825 121.852762 
L 478.33825 121.852762 
" style="fill: none; stroke: #9467bd; stroke-width: 1.5; stroke-linecap: square"/>
    </g>
    <g id="text_22">
     <!-- 20_08_02_E3 -->
     <g transform="translate(486.33825 125.352762) scale(0.1 -0.1)">
      <use xlink:href="#DejaVuSans-32"/>
      <use xlink:href="#DejaVuSans-30" x="63.623047"/>
      <use xlink:href="#DejaVuSans-5f" x="127.246094"/>
      <use xlink:href="#DejaVuSans-30" x="177.246094"/>
      <use xlink:href="#DejaVuSans-38" x="240.869141"/>
      <use xlink:href="#DejaVuSans-5f" x="304.492188"/>
      <use xlink:href="#DejaVuSans-30" x="354.492188"/>
      <use xlink:href="#DejaVuSans-32" x="418.115234"/>
      <use xlink:href="#DejaVuSans-5f" x="481.738281"/>
      <use xlink:href="#DejaVuSans-45" x="531.738281"/>
      <use xlink:href="#DejaVuSans-33" x="594.921875"/>
     </g>
    </g>
    <g id="line2d_26">
     <path d="M 458.33825 136.809012 
L 468.33825 136.809012 
L 478.33825 136.809012 
" style="fill: none; stroke: #8c564b; stroke-width: 1.5; stroke-linecap: square"/>
    </g>
    <g id="text_23">
     <!-- 20_11_02_E3 -->
     <g transform="translate(486.33825 140.309012) scale(0.1 -0.1)">
      <use xlink:href="#DejaVuSans-32"/>
      <use xlink:href="#DejaVuSans-30" x="63.623047"/>
      <use xlink:href="#DejaVuSans-5f" x="127.246094"/>
      <use xlink:href="#DejaVuSans-31" x="177.246094"/>
      <use xlink:href="#DejaVuSans-31" x="240.869141"/>
      <use xlink:href="#DejaVuSans-5f" x="304.492188"/>
      <use xlink:href="#DejaVuSans-30" x="354.492188"/>
      <use xlink:href="#DejaVuSans-32" x="418.115234"/>
      <use xlink:href="#DejaVuSans-5f" x="481.738281"/>
      <use xlink:href="#DejaVuSans-45" x="531.738281"/>
      <use xlink:href="#DejaVuSans-33" x="594.921875"/>
     </g>
    </g>
   </g>
  </g>
 </g>
 <defs>
  <clipPath id="p576c1ff1a5">
   <rect x="56.50625" y="22.318125" width="357.12" height="266.112"/>
  </clipPath>
 </defs>
</svg>
