<?xml version="1.0" encoding="utf-8" standalone="no"?>
<!DOCTYPE svg PUBLIC "-//W3C//DTD SVG 1.1//EN"
  "http://www.w3.org/Graphics/SVG/1.1/DTD/svg11.dtd">
<svg xmlns:xlink="http://www.w3.org/1999/xlink" width="557.032pt" height="325.986375pt" viewBox="0 0 557.032 325.986375" xmlns="http://www.w3.org/2000/svg" version="1.1">
 <metadata>
  <rdf:RDF xmlns:dc="http://purl.org/dc/elements/1.1/" xmlns:cc="http://creativecommons.org/ns#" xmlns:rdf="http://www.w3.org/1999/02/22-rdf-syntax-ns#">
   <cc:Work>
    <dc:type rdf:resource="http://purl.org/dc/dcmitype/StillImage"/>
    <dc:date>2023-02-07T23:00:08.317154</dc:date>
    <dc:format>image/svg+xml</dc:format>
    <dc:creator>
     <cc:Agent>
      <dc:title>Matplotlib v3.6.2, https://matplotlib.org/</dc:title>
     </cc:Agent>
    </dc:creator>
   </cc:Work>
  </rdf:RDF>
 </metadata>
 <defs>
  <style type="text/css">*{stroke-linejoin: round; stroke-linecap: butt}</style>
 </defs>
 <g id="figure_1">
  <g id="patch_1">
   <path d="M 0 325.986375 
L 557.032 325.986375 
L 557.032 0 
L 0 0 
z
" style="fill: #ffffff"/>
  </g>
  <g id="axes_1">
   <g id="patch_2">
    <path d="M 50.14375 288.430125 
L 407.26375 288.430125 
L 407.26375 22.318125 
L 50.14375 22.318125 
z
" style="fill: #ffffff"/>
   </g>
   <g id="PolyCollection_1">
    <path d="M 66.376477 198.26455 
L 66.376477 251.378842 
L 69.019433 251.378842 
L 71.662388 251.378842 
L 74.305344 251.378842 
L 76.948299 251.378842 
L 79.591255 251.378842 
L 82.23421 251.378842 
L 84.877166 251.378842 
L 87.520121 251.378842 
L 90.163077 251.378842 
L 92.806032 251.378842 
L 95.448988 251.378842 
L 98.091943 251.378842 
L 100.734899 251.378842 
L 103.377854 251.378842 
L 106.02081 251.378842 
L 108.663765 251.378842 
L 111.30672 251.378842 
L 113.949676 251.378842 
L 116.592631 251.378842 
L 119.235587 251.378842 
L 121.878542 251.378842 
L 124.521498 251.378842 
L 127.164453 251.378842 
L 129.807409 251.378842 
L 132.450364 251.378842 
L 135.09332 251.378842 
L 137.736275 251.378842 
L 140.379231 251.378842 
L 143.022186 251.378842 
L 145.665142 251.378842 
L 148.308097 251.378842 
L 150.951053 251.378842 
L 153.594008 251.378842 
L 156.236964 251.378842 
L 158.879919 251.378842 
L 161.522875 251.378842 
L 164.16583 251.378842 
L 166.808786 251.378842 
L 169.451741 251.378842 
L 172.094697 251.378842 
L 174.737652 251.378842 
L 177.380608 251.378842 
L 180.023563 251.378842 
L 182.666519 251.378842 
L 185.309474 251.378842 
L 187.952429 251.378842 
L 190.595385 251.378842 
L 193.23834 251.378842 
L 195.881296 251.378842 
L 198.524251 251.378842 
L 201.167207 251.378842 
L 203.810162 251.378842 
L 206.453118 251.378842 
L 209.096073 251.378842 
L 211.739029 251.378842 
L 214.381984 251.378842 
L 217.02494 251.378842 
L 219.667895 251.378842 
L 222.310851 251.378842 
L 224.953806 251.378842 
L 227.596762 251.378842 
L 230.239717 251.378842 
L 232.882673 251.378842 
L 235.525628 251.378842 
L 238.168584 251.378842 
L 240.811539 251.378842 
L 243.454495 251.378842 
L 246.09745 251.378842 
L 248.740406 251.378842 
L 251.383361 251.378842 
L 254.026317 251.378842 
L 256.669272 251.378842 
L 259.312228 251.378842 
L 261.955183 251.378842 
L 264.598139 251.378842 
L 267.241094 251.378842 
L 269.884049 251.378842 
L 272.527005 251.378842 
L 275.16996 251.378842 
L 277.812916 251.378842 
L 280.455871 251.378842 
L 283.098827 251.378842 
L 285.741782 251.378842 
L 288.384738 251.378842 
L 291.027693 251.378842 
L 293.670649 251.378842 
L 296.313604 251.378842 
L 298.95656 251.378842 
L 301.599515 251.378842 
L 304.242471 251.378842 
L 306.885426 251.378842 
L 309.528382 251.378842 
L 312.171337 251.378842 
L 314.814293 251.378842 
L 317.457248 251.378842 
L 320.100204 251.378842 
L 322.743159 251.378842 
L 325.386115 251.378842 
L 328.02907 251.378842 
L 328.02907 249.017206 
L 328.02907 249.017206 
L 325.386115 249.415186 
L 322.743159 249.512293 
L 320.100204 249.478101 
L 317.457248 249.411916 
L 314.814293 249.363012 
L 312.171337 249.346786 
L 309.528382 249.357387 
L 306.885426 249.377351 
L 304.242471 249.384727 
L 301.599515 249.358095 
L 298.95656 249.279875 
L 296.313604 249.138255 
L 293.670649 248.928021 
L 291.027693 248.650567 
L 288.384738 248.31329 
L 285.741782 247.928573 
L 283.098827 247.512503 
L 280.455871 247.083472 
L 277.812916 246.660765 
L 275.16996 246.263218 
L 272.527005 245.908017 
L 269.884049 245.609686 
L 267.241094 245.379294 
L 264.598139 245.223907 
L 261.955183 245.146271 
L 259.312228 245.144756 
L 256.669272 245.213505 
L 254.026317 245.342804 
L 251.383361 245.51962 
L 248.740406 245.728298 
L 246.09745 245.951352 
L 243.454495 246.170351 
L 240.811539 246.366832 
L 238.168584 246.523212 
L 235.525628 246.623671 
L 232.882673 246.654965 
L 230.239717 246.607128 
L 227.596762 246.474056 
L 224.953806 246.253932 
L 222.310851 245.949478 
L 219.667895 245.568019 
L 217.02494 245.121354 
L 214.381984 244.625424 
L 211.739029 244.09978 
L 209.096073 243.566864 
L 206.453118 243.051111 
L 203.810162 242.577897 
L 201.167207 242.172346 
L 198.524251 251.378195 
L 195.881296 251.378624 
L 193.23834 241.02158 
L 190.595385 241.24109 
L 187.952429 241.62754 
L 185.309474 242.168043 
L 182.666519 242.839477 
L 180.023563 243.608046 
L 177.380608 244.42912 
L 174.737652 245.24742 
L 172.094697 245.997553 
L 169.451741 246.604938 
L 166.808786 246.98714 
L 164.16583 247.055608 
L 161.522875 246.71785 
L 158.879919 245.880012 
L 156.236964 244.449862 
L 153.594008 242.340141 
L 150.951053 239.472255 
L 148.308097 235.780234 
L 145.665142 231.214908 
L 143.022186 225.7482 
L 140.379231 219.377431 
L 137.736275 212.129526 
L 135.09332 204.064953 
L 132.450364 195.281242 
L 129.807409 185.915891 
L 127.164453 176.14842 
L 124.521498 166.201349 
L 121.878542 156.339804 
L 119.235587 146.869455 
L 116.592631 138.132431 
L 113.949676 130.500843 
L 111.30672 124.367498 
L 108.663765 120.133345 
L 106.02081 118.191164 
L 103.377854 118.904958 
L 100.734899 122.58446 
L 98.091943 129.454126 
L 95.448988 139.61593 
L 92.806032 153.005238 
L 90.163077 169.338956 
L 87.520121 188.055122 
L 84.877166 208.243029 
L 82.23421 228.562925 
L 79.591255 247.15425 
L 76.948299 261.531315 
L 74.305344 268.465272 
L 71.662388 263.85112 
L 69.019433 242.558454 
L 66.376477 198.26455 
z
" clip-path="url(#p2f6a7a4b69)" style="fill: #1f77b4; fill-opacity: 0.166667"/>
   </g>
   <g id="PolyCollection_2">
    <path d="M 66.376477 209.091116 
L 66.376477 251.378842 
L 69.157406 251.378842 
L 71.938334 251.378842 
L 74.719263 251.378842 
L 77.500191 251.378842 
L 80.28112 251.378842 
L 83.062048 251.378842 
L 85.842977 251.378842 
L 88.623905 251.378842 
L 91.404834 251.378842 
L 94.185762 251.378842 
L 96.966691 251.378842 
L 99.747619 251.378842 
L 102.528548 251.378842 
L 105.309476 251.378842 
L 108.090405 251.378842 
L 110.871333 251.378842 
L 113.652261 251.378842 
L 116.43319 251.378842 
L 119.214118 251.378842 
L 121.995047 251.378842 
L 124.775975 251.378842 
L 127.556904 251.378842 
L 130.337832 251.378842 
L 133.118761 251.378842 
L 135.899689 251.378842 
L 138.680618 251.378842 
L 141.461546 251.378842 
L 144.242475 251.378842 
L 147.023403 251.378842 
L 149.804332 251.378842 
L 152.58526 251.378842 
L 155.366189 251.378842 
L 158.147117 251.378842 
L 160.928046 251.378842 
L 163.708974 251.378842 
L 166.489903 251.378842 
L 169.270831 251.378842 
L 172.05176 251.378842 
L 174.832688 251.378842 
L 177.613617 251.378842 
L 180.394545 251.378842 
L 183.175474 251.378842 
L 185.956402 251.378842 
L 188.73733 251.378842 
L 191.518259 251.378842 
L 194.299187 251.378842 
L 197.080116 251.378842 
L 199.861044 251.378842 
L 202.641973 251.378842 
L 205.422901 251.378842 
L 208.20383 251.378842 
L 210.984758 251.378842 
L 213.765687 251.378842 
L 216.546615 251.378842 
L 219.327544 251.378842 
L 222.108472 251.378842 
L 224.889401 251.378842 
L 227.670329 251.378842 
L 230.451258 251.378842 
L 233.232186 251.378842 
L 236.013115 251.378842 
L 238.794043 251.378842 
L 241.574972 251.378842 
L 244.3559 251.378842 
L 247.136829 251.378842 
L 249.917757 251.378842 
L 252.698686 251.378842 
L 255.479614 251.378842 
L 258.260543 251.378842 
L 261.041471 251.378842 
L 263.8224 251.378842 
L 266.603328 251.378842 
L 269.384256 251.378842 
L 272.165185 251.378842 
L 274.946113 251.378842 
L 277.727042 251.378842 
L 280.50797 251.378842 
L 283.288899 251.378842 
L 286.069827 251.378842 
L 288.850756 251.378842 
L 291.631684 251.378842 
L 294.412613 251.378842 
L 297.193541 251.378842 
L 299.97447 251.378842 
L 302.755398 251.378842 
L 305.536327 251.378842 
L 308.317255 251.378842 
L 311.098184 251.378842 
L 313.879112 251.378842 
L 316.660041 251.378842 
L 319.440969 251.378842 
L 322.221898 251.378842 
L 325.002826 251.378842 
L 327.783755 251.378842 
L 330.564683 251.378842 
L 333.345612 251.378842 
L 336.12654 251.378842 
L 338.907469 251.378842 
L 341.688397 251.378842 
L 341.688397 230.502477 
L 341.688397 230.502477 
L 338.907469 256.569428 
L 336.12654 266.614195 
L 333.345612 266.965558 
L 330.564683 262.179054 
L 327.783755 255.403447 
L 325.002826 248.690856 
L 322.221898 243.25688 
L 319.440969 239.696577 
L 316.660041 238.161639 
L 313.879112 238.5037 
L 311.098184 240.388259 
L 308.317255 243.383313 
L 305.536327 247.026401 
L 302.755398 250.873419 
L 299.97447 254.532208 
L 297.193541 257.683613 
L 294.412613 260.092413 
L 291.631684 261.610236 
L 288.850756 262.172317 
L 286.069827 261.789732 
L 283.288899 260.538482 
L 280.50797 258.546626 
L 277.727042 255.980474 
L 274.946113 253.030643 
L 272.165185 249.898653 
L 269.384256 246.784594 
L 266.603328 243.876242 
L 263.8224 241.339909 
L 261.041471 239.313201 
L 258.260543 237.899764 
L 255.479614 237.166026 
L 252.698686 237.139866 
L 249.917757 237.811104 
L 247.136829 239.133623 
L 244.3559 241.028943 
L 241.574972 243.391001 
L 238.794043 246.091887 
L 236.013115 248.988286 
L 233.232186 251.928335 
L 230.451258 254.758652 
L 227.670329 257.331269 
L 224.889401 259.510226 
L 222.108472 261.1776 
L 219.327544 262.238769 
L 216.546615 262.626746 
L 213.765687 262.305408 
L 210.984758 261.271547 
L 208.20383 259.555631 
L 205.422901 251.374043 
L 202.641973 251.374546 
L 199.861044 252.174635 
L 197.080116 248.842468 
L 194.299187 245.36121 
L 191.518259 241.902837 
L 188.73733 238.646631 
L 185.956402 235.771376 
L 183.175474 233.447102 
L 180.394545 231.826615 
L 177.613617 231.037099 
L 174.832688 231.172089 
L 172.05176 232.284115 
L 169.270831 234.378338 
L 166.489903 237.407483 
L 163.708974 241.26838 
L 160.928046 245.800391 
L 158.147117 250.785987 
L 155.366189 255.953705 
L 152.58526 260.983664 
L 149.804332 265.515762 
L 147.023403 269.160621 
L 144.242475 271.513265 
L 141.461546 272.169414 
L 138.680618 270.744188 
L 135.899689 266.8929 
L 133.118761 260.333469 
L 130.337832 250.869857 
L 127.556904 238.41576 
L 124.775975 223.017609 
L 121.995047 204.875757 
L 119.214118 184.362488 
L 116.43319 162.035277 
L 113.652261 138.643481 
L 110.871333 115.126367 
L 108.090405 92.600097 
L 105.309476 72.330989 
L 102.528548 55.692032 
L 99.747619 44.099308 
L 96.966691 38.924577 
L 94.185762 41.379888 
L 91.404834 52.369694 
L 88.623905 72.305452 
L 85.842977 100.877271 
L 83.062048 136.776657 
L 80.28112 177.363882 
L 77.500191 218.272967 
L 74.719263 252.9467 
L 71.938334 272.093499 
L 69.157406 263.057319 
L 66.376477 209.091116 
z
" clip-path="url(#p2f6a7a4b69)" style="fill: #ff7f0e; fill-opacity: 0.166667"/>
   </g>
   <g id="PolyCollection_3">
    <path d="M 66.376477 270.352541 
L 66.376477 251.378842 
L 69.655816 251.378842 
L 72.935155 251.378842 
L 76.214494 251.378842 
L 79.493833 251.378842 
L 82.773171 251.378842 
L 86.05251 251.378842 
L 89.331849 251.378842 
L 92.611188 251.378842 
L 95.890527 251.378842 
L 99.169866 251.378842 
L 102.449205 251.378842 
L 105.728543 251.378842 
L 109.007882 251.378842 
L 112.287221 251.378842 
L 115.56656 251.378842 
L 118.845899 251.378842 
L 122.125238 251.378842 
L 125.404576 251.378842 
L 128.683915 251.378842 
L 131.963254 251.378842 
L 135.242593 251.378842 
L 138.521932 251.378842 
L 141.801271 251.378842 
L 145.08061 251.378842 
L 148.359948 251.378842 
L 151.639287 251.378842 
L 154.918626 251.378842 
L 158.197965 251.378842 
L 161.477304 251.378842 
L 164.756643 251.378842 
L 168.035981 251.378842 
L 171.31532 251.378842 
L 174.594659 251.378842 
L 177.873998 251.378842 
L 181.153337 251.378842 
L 184.432676 251.378842 
L 187.712014 251.378842 
L 190.991353 251.378842 
L 194.270692 251.378842 
L 197.550031 251.378842 
L 200.82937 251.378842 
L 204.108709 251.378842 
L 207.388048 251.378842 
L 210.667386 251.378842 
L 213.946725 251.378842 
L 217.226064 251.378842 
L 220.505403 251.378842 
L 223.784742 251.378842 
L 227.064081 251.378842 
L 230.343419 251.378842 
L 233.622758 251.378842 
L 236.902097 251.378842 
L 240.181436 251.378842 
L 243.460775 251.378842 
L 246.740114 251.378842 
L 250.019452 251.378842 
L 253.298791 251.378842 
L 256.57813 251.378842 
L 259.857469 251.378842 
L 263.136808 251.378842 
L 266.416147 251.378842 
L 269.695486 251.378842 
L 272.974824 251.378842 
L 276.254163 251.378842 
L 279.533502 251.378842 
L 282.812841 251.378842 
L 286.09218 251.378842 
L 289.371519 251.378842 
L 292.650857 251.378842 
L 295.930196 251.378842 
L 299.209535 251.378842 
L 302.488874 251.378842 
L 305.768213 251.378842 
L 309.047552 251.378842 
L 312.32689 251.378842 
L 315.606229 251.378842 
L 318.885568 251.378842 
L 322.164907 251.378842 
L 325.444246 251.378842 
L 328.723585 251.378842 
L 332.002924 251.378842 
L 335.282262 251.378842 
L 338.561601 251.378842 
L 341.84094 251.378842 
L 345.120279 251.378842 
L 348.399618 251.378842 
L 351.678957 251.378842 
L 354.958295 251.378842 
L 358.237634 251.378842 
L 361.516973 251.378842 
L 364.796312 251.378842 
L 368.075651 251.378842 
L 371.35499 251.378842 
L 374.634329 251.378842 
L 377.913667 251.378842 
L 381.193006 251.378842 
L 384.472345 251.378842 
L 387.751684 251.378842 
L 391.031023 251.378842 
L 391.031023 231.788735 
L 391.031023 231.788735 
L 387.751684 255.118239 
L 384.472345 264.557699 
L 381.193006 265.439005 
L 377.913667 261.641593 
L 374.634329 255.884148 
L 371.35499 249.972772 
L 368.075651 245.010351 
L 364.796312 241.571526 
L 361.516973 239.847304 
L 358.237634 239.763033 
L 354.958295 241.073147 
L 351.678957 243.435794 
L 348.399618 246.470178 
L 345.120279 249.799195 
L 341.84094 253.079666 
L 338.561601 256.022271 
L 335.282262 258.403042 
L 332.002924 260.068078 
L 328.723585 260.932941 
L 325.444246 260.978034 
L 322.164907 260.241059 
L 318.885568 258.807549 
L 315.606229 256.800251 
L 312.32689 254.368093 
L 309.047552 251.675266 
L 305.768213 248.890893 
L 302.488874 246.179634 
L 299.209535 243.693498 
L 295.930196 241.565032 
L 292.650857 239.902009 
L 289.371519 238.783657 
L 286.09218 238.25842 
L 282.812841 238.343195 
L 279.533502 239.023955 
L 276.254163 240.257614 
L 272.974824 241.975 
L 269.695486 244.084736 
L 266.416147 246.477868 
L 263.136808 249.033014 
L 259.857469 251.621853 
L 256.57813 254.114741 
L 253.298791 256.386273 
L 250.019452 258.32059 
L 246.740114 259.816272 
L 243.460775 260.790656 
L 240.181436 261.183442 
L 236.902097 260.959478 
L 233.622758 260.110619 
L 230.343419 251.373947 
L 227.064081 251.373133 
L 223.784742 256.836944 
L 220.505403 253.433135 
L 217.226064 249.641555 
L 213.946725 245.629824 
L 210.667386 241.582835 
L 207.388048 237.695592 
L 204.108709 234.165287 
L 200.82937 231.18284 
L 197.550031 228.92416 
L 194.270692 227.54138 
L 190.991353 227.154379 
L 187.712014 227.84287 
L 184.432676 229.639388 
L 181.153337 232.523463 
L 177.873998 236.417308 
L 174.594659 241.18329 
L 171.31532 246.623467 
L 168.035981 252.481428 
L 164.756643 258.446632 
L 161.477304 264.161397 
L 158.197965 269.230628 
L 154.918626 273.234316 
L 151.639287 275.742724 
L 148.359948 276.334125 
L 145.08061 274.614816 
L 141.801271 270.241029 
L 138.521932 262.942225 
L 135.242593 252.545095 
L 131.963254 238.997456 
L 128.683915 222.391012 
L 125.404576 202.981799 
L 122.125238 181.206885 
L 118.845899 157.695681 
L 115.56656 133.273983 
L 112.287221 108.95857 
L 109.007882 85.93994 
L 105.728543 65.550409 
L 102.449205 49.214534 
L 99.169866 38.378417 
L 95.890527 34.414125 
L 92.611188 38.495051 
L 89.331849 51.437626 
L 86.05251 73.504381 
L 82.773171 104.162865 
L 79.493833 141.794483 
L 76.214494 183.346775 
L 72.935155 223.922143 
L 69.655816 256.295478 
L 66.376477 270.352541 
z
" clip-path="url(#p2f6a7a4b69)" style="fill: #2ca02c; fill-opacity: 0.166667"/>
   </g>
   <g id="PolyCollection_4">
    <path d="M 66.376477 95.84689 
L 66.376477 251.378842 
L 69.349559 251.378842 
L 72.322641 251.378842 
L 75.295723 251.378842 
L 78.268805 251.378842 
L 81.241887 251.378842 
L 84.214969 251.378842 
L 87.188051 251.378842 
L 90.161133 251.378842 
L 93.134215 251.378842 
L 96.107297 251.378842 
L 99.080379 251.378842 
L 102.053461 251.378842 
L 105.026543 251.378842 
L 107.999625 251.378842 
L 110.972707 251.378842 
L 113.945789 251.378842 
L 116.918871 251.378842 
L 119.891953 251.378842 
L 122.865035 251.378842 
L 125.838117 251.378842 
L 128.811199 251.378842 
L 131.784281 251.378842 
L 134.757363 251.378842 
L 137.730444 251.378842 
L 140.703526 251.378842 
L 143.676608 251.378842 
L 146.64969 251.378842 
L 149.622772 251.378842 
L 152.595854 251.378842 
L 155.568936 251.378842 
L 158.542018 251.378842 
L 161.5151 251.378842 
L 164.488182 251.378842 
L 167.461264 251.378842 
L 170.434346 251.378842 
L 173.407428 251.378842 
L 176.38051 251.378842 
L 179.353592 251.378842 
L 182.326674 251.378842 
L 185.299756 251.378842 
L 188.272838 251.378842 
L 191.24592 251.378842 
L 194.219002 251.378842 
L 197.192084 251.378842 
L 200.165166 251.378842 
L 203.138248 251.378842 
L 206.11133 251.378842 
L 209.084412 251.378842 
L 212.057494 251.378842 
L 215.030576 251.378842 
L 218.003658 251.378842 
L 220.97674 251.378842 
L 223.949822 251.378842 
L 226.922903 251.378842 
L 229.895985 251.378842 
L 232.869067 251.378842 
L 235.842149 251.378842 
L 238.815231 251.378842 
L 241.788313 251.378842 
L 244.761395 251.378842 
L 247.734477 251.378842 
L 250.707559 251.378842 
L 253.680641 251.378842 
L 256.653723 251.378842 
L 259.626805 251.378842 
L 262.599887 251.378842 
L 265.572969 251.378842 
L 268.546051 251.378842 
L 271.519133 251.378842 
L 274.492215 251.378842 
L 277.465297 251.378842 
L 280.438379 251.378842 
L 283.411461 251.378842 
L 286.384543 251.378842 
L 289.357625 251.378842 
L 292.330707 251.378842 
L 295.303789 251.378842 
L 298.276871 251.378842 
L 301.249953 251.378842 
L 304.223035 251.378842 
L 307.196117 251.378842 
L 310.169199 251.378842 
L 313.142281 251.378842 
L 316.115362 251.378842 
L 319.088444 251.378842 
L 322.061526 251.378842 
L 325.034608 251.378842 
L 328.00769 251.378842 
L 330.980772 251.378842 
L 333.953854 251.378842 
L 336.926936 251.378842 
L 339.900018 251.378842 
L 342.8731 251.378842 
L 345.846182 251.378842 
L 348.819264 251.378842 
L 351.792346 251.378842 
L 354.765428 251.378842 
L 357.73851 251.378842 
L 360.711592 251.378842 
L 360.711592 256.937641 
L 360.711592 256.937641 
L 357.73851 250.341853 
L 354.765428 247.459677 
L 351.792346 246.942943 
L 348.819264 247.787253 
L 345.846182 249.268267 
L 342.8731 250.886597 
L 339.900018 252.320495 
L 336.926936 253.385541 
L 333.953854 254.000625 
L 330.980772 254.159522 
L 328.00769 253.907451 
L 325.034608 253.322036 
L 322.061526 252.498117 
L 319.088444 251.53593 
L 316.115362 250.532194 
L 313.142281 249.573695 
L 310.169199 248.732972 
L 307.196117 248.065778 
L 304.223035 247.609991 
L 301.249953 247.385697 
L 298.276871 247.396189 
L 295.303789 247.62967 
L 292.330707 248.061449 
L 289.357625 248.656457 
L 286.384543 249.371946 
L 283.411461 250.160228 
L 280.438379 250.971355 
L 277.465297 251.75564 
L 274.492215 252.465965 
L 271.519133 253.059798 
L 268.546051 253.500888 
L 265.572969 253.760618 
L 262.599887 253.818979 
L 259.626805 253.665186 
L 256.653723 253.297908 
L 253.680641 252.725164 
L 250.707559 251.963875 
L 247.734477 251.039107 
L 244.761395 249.983055 
L 241.788313 248.833777 
L 238.815231 247.633747 
L 235.842149 246.42825 
L 232.869067 245.263678 
L 229.895985 244.185768 
L 226.922903 243.237833 
L 223.949822 242.459023 
L 220.97674 241.88268 
L 218.003658 241.534813 
L 215.030576 251.379722 
L 212.057494 251.379098 
L 209.084412 242.956896 
L 206.11133 243.038011 
L 203.138248 243.294664 
L 200.165166 243.715982 
L 197.192084 244.280824 
L 194.219002 244.95725 
L 191.24592 245.7023 
L 188.272838 246.462101 
L 185.299756 247.172345 
L 182.326674 247.759173 
L 179.353592 248.140478 
L 176.38051 248.227645 
L 173.407428 247.927738 
L 170.434346 247.146132 
L 167.461264 245.789568 
L 164.488182 243.769609 
L 161.5151 241.006456 
L 158.542018 237.433058 
L 155.568936 232.999451 
L 152.595854 227.677223 
L 149.622772 221.463985 
L 146.64969 214.387725 
L 143.676608 206.51086 
L 140.703526 197.933809 
L 137.730444 188.797858 
L 134.757363 179.287075 
L 131.784281 169.628984 
L 128.811199 160.093677 
L 125.838117 150.991016 
L 122.865035 142.665519 
L 119.891953 135.488494 
L 116.918871 129.846941 
L 113.945789 126.128686 
L 110.972707 124.703165 
L 107.999625 125.897236 
L 105.026543 129.965311 
L 102.053461 137.053086 
L 99.080379 147.154044 
L 96.107297 160.057865 
L 93.134215 175.28981 
L 90.161133 192.040077 
L 87.188051 209.082037 
L 84.214969 224.678205 
L 81.241887 236.472716 
L 78.268805 241.368982 
L 75.295723 235.391134 
L 72.322641 213.527765 
L 69.349559 169.556379 
L 66.376477 95.84689 
z
" clip-path="url(#p2f6a7a4b69)" style="fill: #d62728; fill-opacity: 0.166667"/>
   </g>
   <g id="PolyCollection_5">
    <path d="M 66.376477 248.400535 
L 66.376477 251.378842 
L 68.925622 251.378842 
L 71.474767 251.378842 
L 74.023913 251.378842 
L 76.573058 251.378842 
L 79.122203 251.378842 
L 81.671348 251.378842 
L 84.220493 251.378842 
L 86.769638 251.378842 
L 89.318783 251.378842 
L 91.867928 251.378842 
L 94.417073 251.378842 
L 96.966218 251.378842 
L 99.515363 251.378842 
L 102.064509 251.378842 
L 104.613654 251.378842 
L 107.162799 251.378842 
L 109.711944 251.378842 
L 112.261089 251.378842 
L 114.810234 251.378842 
L 117.359379 251.378842 
L 119.908524 251.378842 
L 122.457669 251.378842 
L 125.006814 251.378842 
L 127.555959 251.378842 
L 130.105105 251.378842 
L 132.65425 251.378842 
L 135.203395 251.378842 
L 137.75254 251.378842 
L 140.301685 251.378842 
L 142.85083 251.378842 
L 145.399975 251.378842 
L 147.94912 251.378842 
L 150.498265 251.378842 
L 153.04741 251.378842 
L 155.596555 251.378842 
L 158.1457 251.378842 
L 160.694846 251.378842 
L 163.243991 251.378842 
L 165.793136 251.378842 
L 168.342281 251.378842 
L 170.891426 251.378842 
L 173.440571 251.378842 
L 175.989716 251.378842 
L 178.538861 251.378842 
L 181.088006 251.378842 
L 183.637151 251.378842 
L 186.186296 251.378842 
L 188.735442 251.378842 
L 191.284587 251.378842 
L 193.833732 251.378842 
L 196.382877 251.378842 
L 198.932022 251.378842 
L 201.481167 251.378842 
L 204.030312 251.378842 
L 206.579457 251.378842 
L 209.128602 251.378842 
L 211.677747 251.378842 
L 214.226892 251.378842 
L 216.776038 251.378842 
L 219.325183 251.378842 
L 221.874328 251.378842 
L 224.423473 251.378842 
L 226.972618 251.378842 
L 229.521763 251.378842 
L 232.070908 251.378842 
L 234.620053 251.378842 
L 237.169198 251.378842 
L 239.718343 251.378842 
L 242.267488 251.378842 
L 244.816634 251.378842 
L 247.365779 251.378842 
L 249.914924 251.378842 
L 252.464069 251.378842 
L 255.013214 251.378842 
L 257.562359 251.378842 
L 260.111504 251.378842 
L 262.660649 251.378842 
L 265.209794 251.378842 
L 267.758939 251.378842 
L 270.308084 251.378842 
L 272.85723 251.378842 
L 275.406375 251.378842 
L 277.95552 251.378842 
L 280.504665 251.378842 
L 283.05381 251.378842 
L 285.602955 251.378842 
L 288.1521 251.378842 
L 290.701245 251.378842 
L 293.25039 251.378842 
L 295.799535 251.378842 
L 298.34868 251.378842 
L 300.897826 251.378842 
L 303.446971 251.378842 
L 305.996116 251.378842 
L 308.545261 251.378842 
L 311.094406 251.378842 
L 313.643551 251.378842 
L 316.192696 251.378842 
L 318.741841 251.378842 
L 318.741841 245.566789 
L 318.741841 245.566789 
L 316.192696 251.962963 
L 313.643551 254.604503 
L 311.094406 254.880747 
L 308.545261 253.819043 
L 305.996116 252.153906 
L 303.446971 250.38641 
L 300.897826 248.8348 
L 298.34868 247.677275 
L 295.799535 246.987794 
L 293.25039 246.765716 
L 290.701245 246.960003 
L 288.1521 247.488663 
L 285.602955 248.254063 
L 283.05381 249.15467 
L 280.504665 250.093746 
L 277.95552 250.985456 
L 275.406375 251.758823 
L 272.85723 252.359902 
L 270.308084 252.752519 
L 267.758939 252.917877 
L 265.209794 252.853295 
L 262.660649 252.570312 
L 260.111504 252.092367 
L 257.562359 251.452222 
L 255.013214 250.689275 
L 252.464069 249.846904 
L 249.914924 248.969912 
L 247.365779 248.102188 
L 244.816634 247.284619 
L 242.267488 246.553316 
L 239.718343 245.938171 
L 237.169198 245.461774 
L 234.620053 245.138675 
L 232.070908 244.975012 
L 229.521763 244.968465 
L 226.972618 245.108524 
L 224.423473 245.377041 
L 221.874328 245.749036 
L 219.325183 246.193703 
L 216.776038 246.675597 
L 214.226892 247.155939 
L 211.677747 247.594011 
L 209.128602 247.948582 
L 206.579457 248.179341 
L 204.030312 248.248272 
L 201.481167 248.12096 
L 198.932022 247.767768 
L 196.382877 247.164867 
L 193.833732 251.374662 
L 191.284587 251.373753 
L 188.735442 245.015144 
L 186.186296 242.953069 
L 183.637151 240.576173 
L 181.088006 237.925536 
L 178.538861 235.05155 
L 175.989716 232.012228 
L 173.440571 228.871199 
L 170.891426 225.695456 
L 168.342281 222.552916 
L 165.793136 219.509852 
L 163.243991 216.628303 
L 160.694846 213.963507 
L 158.1457 211.56148 
L 155.596555 209.456806 
L 153.04741 207.670739 
L 150.498265 206.2097 
L 147.94912 205.064265 
L 145.399975 204.208698 
L 142.85083 203.601132 
L 140.301685 203.184427 
L 137.75254 202.887769 
L 135.203395 202.629028 
L 132.65425 202.317889 
L 130.105105 201.859735 
L 127.555959 201.160245 
L 125.006814 200.130623 
L 122.457669 198.693368 
L 119.908524 196.78842 
L 117.359379 194.379505 
L 114.810234 191.460437 
L 112.261089 188.061098 
L 109.711944 184.25274 
L 107.162799 180.152213 
L 104.613654 175.924653 
L 102.064509 171.784077 
L 99.515363 167.991269 
L 96.966218 164.848275 
L 94.417073 162.688689 
L 91.867928 161.862877 
L 89.318783 162.71714 
L 86.769638 165.565744 
L 84.220493 170.654601 
L 81.671348 178.115309 
L 79.122203 187.908082 
L 76.573058 199.752016 
L 74.023913 213.040973 
L 71.474767 226.743219 
L 68.925622 239.282808 
L 66.376477 248.400535 
z
" clip-path="url(#p2f6a7a4b69)" style="fill: #9467bd; fill-opacity: 0.166667"/>
   </g>
   <g id="PolyCollection_6">
    <path d="M 66.376477 223.856944 
L 66.376477 251.378842 
L 68.985937 251.378842 
L 71.595397 251.378842 
L 74.204857 251.378842 
L 76.814317 251.378842 
L 79.423776 251.378842 
L 82.033236 251.378842 
L 84.642696 251.378842 
L 87.252156 251.378842 
L 89.861616 251.378842 
L 92.471076 251.378842 
L 95.080535 251.378842 
L 97.689995 251.378842 
L 100.299455 251.378842 
L 102.908915 251.378842 
L 105.518375 251.378842 
L 108.127835 251.378842 
L 110.737294 251.378842 
L 113.346754 251.378842 
L 115.956214 251.378842 
L 118.565674 251.378842 
L 121.175134 251.378842 
L 123.784594 251.378842 
L 126.394053 251.378842 
L 129.003513 251.378842 
L 131.612973 251.378842 
L 134.222433 251.378842 
L 136.831893 251.378842 
L 139.441353 251.378842 
L 142.050812 251.378842 
L 144.660272 251.378842 
L 147.269732 251.378842 
L 149.879192 251.378842 
L 152.488652 251.378842 
L 155.098111 251.378842 
L 157.707571 251.378842 
L 160.317031 251.378842 
L 162.926491 251.378842 
L 165.535951 251.378842 
L 168.145411 251.378842 
L 170.75487 251.378842 
L 173.36433 251.378842 
L 175.97379 251.378842 
L 178.58325 251.378842 
L 181.19271 251.378842 
L 183.80217 251.378842 
L 186.411629 251.378842 
L 189.021089 251.378842 
L 191.630549 251.378842 
L 194.240009 251.378842 
L 196.849469 251.378842 
L 199.458929 251.378842 
L 202.068388 251.378842 
L 204.677848 251.378842 
L 207.287308 251.378842 
L 209.896768 251.378842 
L 212.506228 251.378842 
L 215.115688 251.378842 
L 217.725147 251.378842 
L 220.334607 251.378842 
L 222.944067 251.378842 
L 225.553527 251.378842 
L 228.162987 251.378842 
L 230.772447 251.378842 
L 233.381906 251.378842 
L 235.991366 251.378842 
L 238.600826 251.378842 
L 241.210286 251.378842 
L 243.819746 251.378842 
L 246.429206 251.378842 
L 249.038665 251.378842 
L 251.648125 251.378842 
L 254.257585 251.378842 
L 256.867045 251.378842 
L 259.476505 251.378842 
L 262.085964 251.378842 
L 264.695424 251.378842 
L 267.304884 251.378842 
L 269.914344 251.378842 
L 272.523804 251.378842 
L 275.133264 251.378842 
L 277.742723 251.378842 
L 280.352183 251.378842 
L 282.961643 251.378842 
L 285.571103 251.378842 
L 288.180563 251.378842 
L 290.790023 251.378842 
L 293.399482 251.378842 
L 296.008942 251.378842 
L 298.618402 251.378842 
L 301.227862 251.378842 
L 303.837322 251.378842 
L 306.446782 251.378842 
L 309.056241 251.378842 
L 311.665701 251.378842 
L 314.275161 251.378842 
L 316.884621 251.378842 
L 319.494081 251.378842 
L 322.103541 251.378842 
L 324.713 251.378842 
L 324.713 238.708027 
L 324.713 238.708027 
L 322.103541 254.866528 
L 319.494081 260.792625 
L 316.884621 260.646232 
L 314.275161 257.389756 
L 311.665701 253.042024 
L 309.056241 248.892215 
L 306.446782 245.678378 
L 303.837322 243.73481 
L 301.227862 243.112138 
L 298.618402 243.67369 
L 296.008942 245.171375 
L 293.399482 247.304014 
L 290.790023 249.760787 
L 288.180563 252.252177 
L 285.571103 254.530571 
L 282.961643 256.402414 
L 280.352183 257.733627 
L 277.742723 258.449759 
L 275.133264 258.53219 
L 272.523804 258.011507 
L 269.914344 256.959003 
L 267.304884 255.477132 
L 264.695424 253.689579 
L 262.085964 251.731503 
L 259.476505 249.740393 
L 256.867045 247.847866 
L 254.257585 246.172642 
L 251.648125 244.814881 
L 249.038665 243.851936 
L 246.429206 243.335579 
L 243.819746 243.290644 
L 241.210286 243.715033 
L 238.600826 244.580954 
L 235.991366 245.83727 
L 233.381906 247.41276 
L 230.772447 249.220142 
L 228.162987 251.160643 
L 225.553527 253.12892 
L 222.944067 255.01814 
L 220.334607 256.725014 
L 217.725147 258.154612 
L 215.115688 259.224779 
L 212.506228 259.870004 
L 209.896768 260.044595 
L 207.287308 259.725071 
L 204.677848 258.911655 
L 202.068388 257.628826 
L 199.458929 255.924889 
L 196.849469 251.376377 
L 194.240009 251.377407 
L 191.630549 248.89768 
L 189.021089 246.835965 
L 186.411629 244.867033 
L 183.80217 243.101267 
L 181.19271 241.645813 
L 178.58325 240.599194 
L 175.97379 240.04584 
L 173.36433 240.050712 
L 170.75487 240.654221 
L 168.145411 241.867626 
L 165.535951 243.669142 
L 162.926491 246.000935 
L 160.317031 248.767219 
L 157.707571 251.833631 
L 155.098111 255.028062 
L 152.488652 258.143088 
L 149.879192 260.940118 
L 147.269732 263.155347 
L 144.660272 264.507549 
L 142.050812 264.707703 
L 139.441353 263.470388 
L 136.831893 260.526804 
L 134.222433 255.639214 
L 131.612973 248.616509 
L 129.003513 239.330522 
L 126.394053 227.732567 
L 123.784594 213.869636 
L 121.175134 197.899483 
L 118.565674 180.103764 
L 115.956214 160.898182 
L 113.346754 140.838491 
L 110.737294 120.620989 
L 108.127835 101.075983 
L 105.518375 83.152487 
L 102.908915 67.892217 
L 100.299455 56.390709 
L 97.689995 49.743162 
L 95.080535 48.972338 
L 92.471076 54.935589 
L 89.861616 68.207802 
L 87.252156 88.93674 
L 84.642696 116.66694 
L 82.033236 150.128018 
L 79.423776 186.982833 
L 76.814317 223.530662 
L 74.204857 254.360068 
L 71.595397 271.94582 
L 68.985937 266.183742 
L 66.376477 223.856944 
z
" clip-path="url(#p2f6a7a4b69)" style="fill: #8c564b; fill-opacity: 0.166667"/>
   </g>
   <g id="matplotlib.axis_1">
    <g id="xtick_1">
     <g id="line2d_1">
      <defs>
       <path id="m4bef5a4943" d="M 0 0 
L 0 3.5 
" style="stroke: #000000; stroke-width: 0.8"/>
      </defs>
      <g>
       <use xlink:href="#m4bef5a4943" x="66.376477" y="288.430125" style="stroke: #000000; stroke-width: 0.8"/>
      </g>
     </g>
     <g id="text_1">
      <!-- 0.0000 -->
      <g transform="translate(48.881165 303.028562) scale(0.1 -0.1)">
       <defs>
        <path id="DejaVuSans-30" d="M 2034 4250 
Q 1547 4250 1301 3770 
Q 1056 3291 1056 2328 
Q 1056 1369 1301 889 
Q 1547 409 2034 409 
Q 2525 409 2770 889 
Q 3016 1369 3016 2328 
Q 3016 3291 2770 3770 
Q 2525 4250 2034 4250 
z
M 2034 4750 
Q 2819 4750 3233 4129 
Q 3647 3509 3647 2328 
Q 3647 1150 3233 529 
Q 2819 -91 2034 -91 
Q 1250 -91 836 529 
Q 422 1150 422 2328 
Q 422 3509 836 4129 
Q 1250 4750 2034 4750 
z
" transform="scale(0.015625)"/>
        <path id="DejaVuSans-2e" d="M 684 794 
L 1344 794 
L 1344 0 
L 684 0 
L 684 794 
z
" transform="scale(0.015625)"/>
       </defs>
       <use xlink:href="#DejaVuSans-30"/>
       <use xlink:href="#DejaVuSans-2e" x="63.623047"/>
       <use xlink:href="#DejaVuSans-30" x="95.410156"/>
       <use xlink:href="#DejaVuSans-30" x="159.033203"/>
       <use xlink:href="#DejaVuSans-30" x="222.65625"/>
       <use xlink:href="#DejaVuSans-30" x="286.279297"/>
      </g>
     </g>
    </g>
    <g id="xtick_2">
     <g id="line2d_2">
      <g>
       <use xlink:href="#m4bef5a4943" x="136.702994" y="288.430125" style="stroke: #000000; stroke-width: 0.8"/>
      </g>
     </g>
     <g id="text_2">
      <!-- 0.0005 -->
      <g transform="translate(119.207682 303.028562) scale(0.1 -0.1)">
       <defs>
        <path id="DejaVuSans-35" d="M 691 4666 
L 3169 4666 
L 3169 4134 
L 1269 4134 
L 1269 2991 
Q 1406 3038 1543 3061 
Q 1681 3084 1819 3084 
Q 2600 3084 3056 2656 
Q 3513 2228 3513 1497 
Q 3513 744 3044 326 
Q 2575 -91 1722 -91 
Q 1428 -91 1123 -41 
Q 819 9 494 109 
L 494 744 
Q 775 591 1075 516 
Q 1375 441 1709 441 
Q 2250 441 2565 725 
Q 2881 1009 2881 1497 
Q 2881 1984 2565 2268 
Q 2250 2553 1709 2553 
Q 1456 2553 1204 2497 
Q 953 2441 691 2322 
L 691 4666 
z
" transform="scale(0.015625)"/>
       </defs>
       <use xlink:href="#DejaVuSans-30"/>
       <use xlink:href="#DejaVuSans-2e" x="63.623047"/>
       <use xlink:href="#DejaVuSans-30" x="95.410156"/>
       <use xlink:href="#DejaVuSans-30" x="159.033203"/>
       <use xlink:href="#DejaVuSans-30" x="222.65625"/>
       <use xlink:href="#DejaVuSans-35" x="286.279297"/>
      </g>
     </g>
    </g>
    <g id="xtick_3">
     <g id="line2d_3">
      <g>
       <use xlink:href="#m4bef5a4943" x="207.029512" y="288.430125" style="stroke: #000000; stroke-width: 0.8"/>
      </g>
     </g>
     <g id="text_3">
      <!-- 0.0010 -->
      <g transform="translate(189.534199 303.028562) scale(0.1 -0.1)">
       <defs>
        <path id="DejaVuSans-31" d="M 794 531 
L 1825 531 
L 1825 4091 
L 703 3866 
L 703 4441 
L 1819 4666 
L 2450 4666 
L 2450 531 
L 3481 531 
L 3481 0 
L 794 0 
L 794 531 
z
" transform="scale(0.015625)"/>
       </defs>
       <use xlink:href="#DejaVuSans-30"/>
       <use xlink:href="#DejaVuSans-2e" x="63.623047"/>
       <use xlink:href="#DejaVuSans-30" x="95.410156"/>
       <use xlink:href="#DejaVuSans-30" x="159.033203"/>
       <use xlink:href="#DejaVuSans-31" x="222.65625"/>
       <use xlink:href="#DejaVuSans-30" x="286.279297"/>
      </g>
     </g>
    </g>
    <g id="xtick_4">
     <g id="line2d_4">
      <g>
       <use xlink:href="#m4bef5a4943" x="277.356029" y="288.430125" style="stroke: #000000; stroke-width: 0.8"/>
      </g>
     </g>
     <g id="text_4">
      <!-- 0.0015 -->
      <g transform="translate(259.860716 303.028562) scale(0.1 -0.1)">
       <use xlink:href="#DejaVuSans-30"/>
       <use xlink:href="#DejaVuSans-2e" x="63.623047"/>
       <use xlink:href="#DejaVuSans-30" x="95.410156"/>
       <use xlink:href="#DejaVuSans-30" x="159.033203"/>
       <use xlink:href="#DejaVuSans-31" x="222.65625"/>
       <use xlink:href="#DejaVuSans-35" x="286.279297"/>
      </g>
     </g>
    </g>
    <g id="xtick_5">
     <g id="line2d_5">
      <g>
       <use xlink:href="#m4bef5a4943" x="347.682546" y="288.430125" style="stroke: #000000; stroke-width: 0.8"/>
      </g>
     </g>
     <g id="text_5">
      <!-- 0.0020 -->
      <g transform="translate(330.187234 303.028562) scale(0.1 -0.1)">
       <defs>
        <path id="DejaVuSans-32" d="M 1228 531 
L 3431 531 
L 3431 0 
L 469 0 
L 469 531 
Q 828 903 1448 1529 
Q 2069 2156 2228 2338 
Q 2531 2678 2651 2914 
Q 2772 3150 2772 3378 
Q 2772 3750 2511 3984 
Q 2250 4219 1831 4219 
Q 1534 4219 1204 4116 
Q 875 4013 500 3803 
L 500 4441 
Q 881 4594 1212 4672 
Q 1544 4750 1819 4750 
Q 2544 4750 2975 4387 
Q 3406 4025 3406 3419 
Q 3406 3131 3298 2873 
Q 3191 2616 2906 2266 
Q 2828 2175 2409 1742 
Q 1991 1309 1228 531 
z
" transform="scale(0.015625)"/>
       </defs>
       <use xlink:href="#DejaVuSans-30"/>
       <use xlink:href="#DejaVuSans-2e" x="63.623047"/>
       <use xlink:href="#DejaVuSans-30" x="95.410156"/>
       <use xlink:href="#DejaVuSans-30" x="159.033203"/>
       <use xlink:href="#DejaVuSans-32" x="222.65625"/>
       <use xlink:href="#DejaVuSans-30" x="286.279297"/>
      </g>
     </g>
    </g>
    <g id="text_6">
     <!-- Pixel values -->
     <g transform="translate(199.292031 316.706687) scale(0.1 -0.1)">
      <defs>
       <path id="DejaVuSans-50" d="M 1259 4147 
L 1259 2394 
L 2053 2394 
Q 2494 2394 2734 2622 
Q 2975 2850 2975 3272 
Q 2975 3691 2734 3919 
Q 2494 4147 2053 4147 
L 1259 4147 
z
M 628 4666 
L 2053 4666 
Q 2838 4666 3239 4311 
Q 3641 3956 3641 3272 
Q 3641 2581 3239 2228 
Q 2838 1875 2053 1875 
L 1259 1875 
L 1259 0 
L 628 0 
L 628 4666 
z
" transform="scale(0.015625)"/>
       <path id="DejaVuSans-69" d="M 603 3500 
L 1178 3500 
L 1178 0 
L 603 0 
L 603 3500 
z
M 603 4863 
L 1178 4863 
L 1178 4134 
L 603 4134 
L 603 4863 
z
" transform="scale(0.015625)"/>
       <path id="DejaVuSans-78" d="M 3513 3500 
L 2247 1797 
L 3578 0 
L 2900 0 
L 1881 1375 
L 863 0 
L 184 0 
L 1544 1831 
L 300 3500 
L 978 3500 
L 1906 2253 
L 2834 3500 
L 3513 3500 
z
" transform="scale(0.015625)"/>
       <path id="DejaVuSans-65" d="M 3597 1894 
L 3597 1613 
L 953 1613 
Q 991 1019 1311 708 
Q 1631 397 2203 397 
Q 2534 397 2845 478 
Q 3156 559 3463 722 
L 3463 178 
Q 3153 47 2828 -22 
Q 2503 -91 2169 -91 
Q 1331 -91 842 396 
Q 353 884 353 1716 
Q 353 2575 817 3079 
Q 1281 3584 2069 3584 
Q 2775 3584 3186 3129 
Q 3597 2675 3597 1894 
z
M 3022 2063 
Q 3016 2534 2758 2815 
Q 2500 3097 2075 3097 
Q 1594 3097 1305 2825 
Q 1016 2553 972 2059 
L 3022 2063 
z
" transform="scale(0.015625)"/>
       <path id="DejaVuSans-6c" d="M 603 4863 
L 1178 4863 
L 1178 0 
L 603 0 
L 603 4863 
z
" transform="scale(0.015625)"/>
       <path id="DejaVuSans-20" transform="scale(0.015625)"/>
       <path id="DejaVuSans-76" d="M 191 3500 
L 800 3500 
L 1894 563 
L 2988 3500 
L 3597 3500 
L 2284 0 
L 1503 0 
L 191 3500 
z
" transform="scale(0.015625)"/>
       <path id="DejaVuSans-61" d="M 2194 1759 
Q 1497 1759 1228 1600 
Q 959 1441 959 1056 
Q 959 750 1161 570 
Q 1363 391 1709 391 
Q 2188 391 2477 730 
Q 2766 1069 2766 1631 
L 2766 1759 
L 2194 1759 
z
M 3341 1997 
L 3341 0 
L 2766 0 
L 2766 531 
Q 2569 213 2275 61 
Q 1981 -91 1556 -91 
Q 1019 -91 701 211 
Q 384 513 384 1019 
Q 384 1609 779 1909 
Q 1175 2209 1959 2209 
L 2766 2209 
L 2766 2266 
Q 2766 2663 2505 2880 
Q 2244 3097 1772 3097 
Q 1472 3097 1187 3025 
Q 903 2953 641 2809 
L 641 3341 
Q 956 3463 1253 3523 
Q 1550 3584 1831 3584 
Q 2591 3584 2966 3190 
Q 3341 2797 3341 1997 
z
" transform="scale(0.015625)"/>
       <path id="DejaVuSans-75" d="M 544 1381 
L 544 3500 
L 1119 3500 
L 1119 1403 
Q 1119 906 1312 657 
Q 1506 409 1894 409 
Q 2359 409 2629 706 
Q 2900 1003 2900 1516 
L 2900 3500 
L 3475 3500 
L 3475 0 
L 2900 0 
L 2900 538 
Q 2691 219 2414 64 
Q 2138 -91 1772 -91 
Q 1169 -91 856 284 
Q 544 659 544 1381 
z
M 1991 3584 
L 1991 3584 
z
" transform="scale(0.015625)"/>
       <path id="DejaVuSans-73" d="M 2834 3397 
L 2834 2853 
Q 2591 2978 2328 3040 
Q 2066 3103 1784 3103 
Q 1356 3103 1142 2972 
Q 928 2841 928 2578 
Q 928 2378 1081 2264 
Q 1234 2150 1697 2047 
L 1894 2003 
Q 2506 1872 2764 1633 
Q 3022 1394 3022 966 
Q 3022 478 2636 193 
Q 2250 -91 1575 -91 
Q 1294 -91 989 -36 
Q 684 19 347 128 
L 347 722 
Q 666 556 975 473 
Q 1284 391 1588 391 
Q 1994 391 2212 530 
Q 2431 669 2431 922 
Q 2431 1156 2273 1281 
Q 2116 1406 1581 1522 
L 1381 1569 
Q 847 1681 609 1914 
Q 372 2147 372 2553 
Q 372 3047 722 3315 
Q 1072 3584 1716 3584 
Q 2034 3584 2315 3537 
Q 2597 3491 2834 3397 
z
" transform="scale(0.015625)"/>
      </defs>
      <use xlink:href="#DejaVuSans-50"/>
      <use xlink:href="#DejaVuSans-69" x="58.052734"/>
      <use xlink:href="#DejaVuSans-78" x="85.835938"/>
      <use xlink:href="#DejaVuSans-65" x="141.890625"/>
      <use xlink:href="#DejaVuSans-6c" x="203.414062"/>
      <use xlink:href="#DejaVuSans-20" x="231.197266"/>
      <use xlink:href="#DejaVuSans-76" x="262.984375"/>
      <use xlink:href="#DejaVuSans-61" x="322.164062"/>
      <use xlink:href="#DejaVuSans-6c" x="383.443359"/>
      <use xlink:href="#DejaVuSans-75" x="411.226562"/>
      <use xlink:href="#DejaVuSans-65" x="474.605469"/>
      <use xlink:href="#DejaVuSans-73" x="536.128906"/>
     </g>
    </g>
   </g>
   <g id="matplotlib.axis_2">
    <g id="ytick_1">
     <g id="line2d_6">
      <defs>
       <path id="m7ba5f3ae07" d="M 0 0 
L -3.5 0 
" style="stroke: #000000; stroke-width: 0.8"/>
      </defs>
      <g>
       <use xlink:href="#m7ba5f3ae07" x="50.14375" y="251.378842" style="stroke: #000000; stroke-width: 0.8"/>
      </g>
     </g>
     <g id="text_7">
      <!-- 0.00 -->
      <g transform="translate(20.878125 255.178061) scale(0.1 -0.1)">
       <use xlink:href="#DejaVuSans-30"/>
       <use xlink:href="#DejaVuSans-2e" x="63.623047"/>
       <use xlink:href="#DejaVuSans-30" x="95.410156"/>
       <use xlink:href="#DejaVuSans-30" x="159.033203"/>
      </g>
     </g>
    </g>
    <g id="ytick_2">
     <g id="line2d_7">
      <g>
       <use xlink:href="#m7ba5f3ae07" x="50.14375" y="201.53981" style="stroke: #000000; stroke-width: 0.8"/>
      </g>
     </g>
     <g id="text_8">
      <!-- 0.02 -->
      <g transform="translate(20.878125 205.339028) scale(0.1 -0.1)">
       <use xlink:href="#DejaVuSans-30"/>
       <use xlink:href="#DejaVuSans-2e" x="63.623047"/>
       <use xlink:href="#DejaVuSans-30" x="95.410156"/>
       <use xlink:href="#DejaVuSans-32" x="159.033203"/>
      </g>
     </g>
    </g>
    <g id="ytick_3">
     <g id="line2d_8">
      <g>
       <use xlink:href="#m7ba5f3ae07" x="50.14375" y="151.700777" style="stroke: #000000; stroke-width: 0.8"/>
      </g>
     </g>
     <g id="text_9">
      <!-- 0.04 -->
      <g transform="translate(20.878125 155.499996) scale(0.1 -0.1)">
       <defs>
        <path id="DejaVuSans-34" d="M 2419 4116 
L 825 1625 
L 2419 1625 
L 2419 4116 
z
M 2253 4666 
L 3047 4666 
L 3047 1625 
L 3713 1625 
L 3713 1100 
L 3047 1100 
L 3047 0 
L 2419 0 
L 2419 1100 
L 313 1100 
L 313 1709 
L 2253 4666 
z
" transform="scale(0.015625)"/>
       </defs>
       <use xlink:href="#DejaVuSans-30"/>
       <use xlink:href="#DejaVuSans-2e" x="63.623047"/>
       <use xlink:href="#DejaVuSans-30" x="95.410156"/>
       <use xlink:href="#DejaVuSans-34" x="159.033203"/>
      </g>
     </g>
    </g>
    <g id="ytick_4">
     <g id="line2d_9">
      <g>
       <use xlink:href="#m7ba5f3ae07" x="50.14375" y="101.861745" style="stroke: #000000; stroke-width: 0.8"/>
      </g>
     </g>
     <g id="text_10">
      <!-- 0.06 -->
      <g transform="translate(20.878125 105.660964) scale(0.1 -0.1)">
       <defs>
        <path id="DejaVuSans-36" d="M 2113 2584 
Q 1688 2584 1439 2293 
Q 1191 2003 1191 1497 
Q 1191 994 1439 701 
Q 1688 409 2113 409 
Q 2538 409 2786 701 
Q 3034 994 3034 1497 
Q 3034 2003 2786 2293 
Q 2538 2584 2113 2584 
z
M 3366 4563 
L 3366 3988 
Q 3128 4100 2886 4159 
Q 2644 4219 2406 4219 
Q 1781 4219 1451 3797 
Q 1122 3375 1075 2522 
Q 1259 2794 1537 2939 
Q 1816 3084 2150 3084 
Q 2853 3084 3261 2657 
Q 3669 2231 3669 1497 
Q 3669 778 3244 343 
Q 2819 -91 2113 -91 
Q 1303 -91 875 529 
Q 447 1150 447 2328 
Q 447 3434 972 4092 
Q 1497 4750 2381 4750 
Q 2619 4750 2861 4703 
Q 3103 4656 3366 4563 
z
" transform="scale(0.015625)"/>
       </defs>
       <use xlink:href="#DejaVuSans-30"/>
       <use xlink:href="#DejaVuSans-2e" x="63.623047"/>
       <use xlink:href="#DejaVuSans-30" x="95.410156"/>
       <use xlink:href="#DejaVuSans-36" x="159.033203"/>
      </g>
     </g>
    </g>
    <g id="ytick_5">
     <g id="line2d_10">
      <g>
       <use xlink:href="#m7ba5f3ae07" x="50.14375" y="52.022713" style="stroke: #000000; stroke-width: 0.8"/>
      </g>
     </g>
     <g id="text_11">
      <!-- 0.08 -->
      <g transform="translate(20.878125 55.821932) scale(0.1 -0.1)">
       <defs>
        <path id="DejaVuSans-38" d="M 2034 2216 
Q 1584 2216 1326 1975 
Q 1069 1734 1069 1313 
Q 1069 891 1326 650 
Q 1584 409 2034 409 
Q 2484 409 2743 651 
Q 3003 894 3003 1313 
Q 3003 1734 2745 1975 
Q 2488 2216 2034 2216 
z
M 1403 2484 
Q 997 2584 770 2862 
Q 544 3141 544 3541 
Q 544 4100 942 4425 
Q 1341 4750 2034 4750 
Q 2731 4750 3128 4425 
Q 3525 4100 3525 3541 
Q 3525 3141 3298 2862 
Q 3072 2584 2669 2484 
Q 3125 2378 3379 2068 
Q 3634 1759 3634 1313 
Q 3634 634 3220 271 
Q 2806 -91 2034 -91 
Q 1263 -91 848 271 
Q 434 634 434 1313 
Q 434 1759 690 2068 
Q 947 2378 1403 2484 
z
M 1172 3481 
Q 1172 3119 1398 2916 
Q 1625 2713 2034 2713 
Q 2441 2713 2670 2916 
Q 2900 3119 2900 3481 
Q 2900 3844 2670 4047 
Q 2441 4250 2034 4250 
Q 1625 4250 1398 4047 
Q 1172 3844 1172 3481 
z
" transform="scale(0.015625)"/>
       </defs>
       <use xlink:href="#DejaVuSans-30"/>
       <use xlink:href="#DejaVuSans-2e" x="63.623047"/>
       <use xlink:href="#DejaVuSans-30" x="95.410156"/>
       <use xlink:href="#DejaVuSans-38" x="159.033203"/>
      </g>
     </g>
    </g>
    <g id="text_12">
     <!-- Frequency -->
     <g transform="translate(14.798438 181.203812) rotate(-90) scale(0.1 -0.1)">
      <defs>
       <path id="DejaVuSans-46" d="M 628 4666 
L 3309 4666 
L 3309 4134 
L 1259 4134 
L 1259 2759 
L 3109 2759 
L 3109 2228 
L 1259 2228 
L 1259 0 
L 628 0 
L 628 4666 
z
" transform="scale(0.015625)"/>
       <path id="DejaVuSans-72" d="M 2631 2963 
Q 2534 3019 2420 3045 
Q 2306 3072 2169 3072 
Q 1681 3072 1420 2755 
Q 1159 2438 1159 1844 
L 1159 0 
L 581 0 
L 581 3500 
L 1159 3500 
L 1159 2956 
Q 1341 3275 1631 3429 
Q 1922 3584 2338 3584 
Q 2397 3584 2469 3576 
Q 2541 3569 2628 3553 
L 2631 2963 
z
" transform="scale(0.015625)"/>
       <path id="DejaVuSans-71" d="M 947 1747 
Q 947 1113 1208 752 
Q 1469 391 1925 391 
Q 2381 391 2643 752 
Q 2906 1113 2906 1747 
Q 2906 2381 2643 2742 
Q 2381 3103 1925 3103 
Q 1469 3103 1208 2742 
Q 947 2381 947 1747 
z
M 2906 525 
Q 2725 213 2448 61 
Q 2172 -91 1784 -91 
Q 1150 -91 751 415 
Q 353 922 353 1747 
Q 353 2572 751 3078 
Q 1150 3584 1784 3584 
Q 2172 3584 2448 3432 
Q 2725 3281 2906 2969 
L 2906 3500 
L 3481 3500 
L 3481 -1331 
L 2906 -1331 
L 2906 525 
z
" transform="scale(0.015625)"/>
       <path id="DejaVuSans-6e" d="M 3513 2113 
L 3513 0 
L 2938 0 
L 2938 2094 
Q 2938 2591 2744 2837 
Q 2550 3084 2163 3084 
Q 1697 3084 1428 2787 
Q 1159 2491 1159 1978 
L 1159 0 
L 581 0 
L 581 3500 
L 1159 3500 
L 1159 2956 
Q 1366 3272 1645 3428 
Q 1925 3584 2291 3584 
Q 2894 3584 3203 3211 
Q 3513 2838 3513 2113 
z
" transform="scale(0.015625)"/>
       <path id="DejaVuSans-63" d="M 3122 3366 
L 3122 2828 
Q 2878 2963 2633 3030 
Q 2388 3097 2138 3097 
Q 1578 3097 1268 2742 
Q 959 2388 959 1747 
Q 959 1106 1268 751 
Q 1578 397 2138 397 
Q 2388 397 2633 464 
Q 2878 531 3122 666 
L 3122 134 
Q 2881 22 2623 -34 
Q 2366 -91 2075 -91 
Q 1284 -91 818 406 
Q 353 903 353 1747 
Q 353 2603 823 3093 
Q 1294 3584 2113 3584 
Q 2378 3584 2631 3529 
Q 2884 3475 3122 3366 
z
" transform="scale(0.015625)"/>
       <path id="DejaVuSans-79" d="M 2059 -325 
Q 1816 -950 1584 -1140 
Q 1353 -1331 966 -1331 
L 506 -1331 
L 506 -850 
L 844 -850 
Q 1081 -850 1212 -737 
Q 1344 -625 1503 -206 
L 1606 56 
L 191 3500 
L 800 3500 
L 1894 763 
L 2988 3500 
L 3597 3500 
L 2059 -325 
z
" transform="scale(0.015625)"/>
      </defs>
      <use xlink:href="#DejaVuSans-46"/>
      <use xlink:href="#DejaVuSans-72" x="50.269531"/>
      <use xlink:href="#DejaVuSans-65" x="89.132812"/>
      <use xlink:href="#DejaVuSans-71" x="150.65625"/>
      <use xlink:href="#DejaVuSans-75" x="214.132812"/>
      <use xlink:href="#DejaVuSans-65" x="277.511719"/>
      <use xlink:href="#DejaVuSans-6e" x="339.035156"/>
      <use xlink:href="#DejaVuSans-63" x="402.414062"/>
      <use xlink:href="#DejaVuSans-79" x="457.394531"/>
     </g>
    </g>
   </g>
   <g id="line2d_11">
    <path d="M 66.376477 198.26455 
L 69.019433 242.558454 
L 71.662388 263.85112 
L 74.305344 268.465272 
L 76.948299 261.531315 
L 79.591255 247.15425 
L 82.23421 228.562925 
L 84.877166 208.243029 
L 87.520121 188.055122 
L 90.163077 169.338956 
L 92.806032 153.005238 
L 95.448988 139.61593 
L 98.091943 129.454126 
L 100.734899 122.58446 
L 103.377854 118.904958 
L 106.02081 118.191164 
L 108.663765 120.133345 
L 111.30672 124.367498 
L 113.949676 130.500843 
L 116.592631 138.132431 
L 119.235587 146.869455 
L 121.878542 156.339804 
L 124.521498 166.201349 
L 127.164453 176.14842 
L 129.807409 185.915891 
L 132.450364 195.281242 
L 135.09332 204.064953 
L 137.736275 212.129526 
L 140.379231 219.377431 
L 143.022186 225.7482 
L 145.665142 231.214908 
L 148.308097 235.780234 
L 150.951053 239.472255 
L 153.594008 242.340141 
L 156.236964 244.449862 
L 158.879919 245.880012 
L 161.522875 246.71785 
L 164.16583 247.055608 
L 166.808786 246.98714 
L 169.451741 246.604938 
L 172.094697 245.997553 
L 174.737652 245.24742 
L 177.380608 244.42912 
L 180.023563 243.608046 
L 182.666519 242.839477 
L 185.309474 242.168043 
L 187.952429 241.62754 
L 190.595385 241.24109 
L 193.23834 241.02158 
L 195.881296 251.378624 
L 198.524251 251.378195 
L 201.167207 242.172346 
L 203.810162 242.577897 
L 206.453118 243.051111 
L 209.096073 243.566864 
L 211.739029 244.09978 
L 214.381984 244.625424 
L 217.02494 245.121354 
L 219.667895 245.568019 
L 222.310851 245.949478 
L 224.953806 246.253932 
L 227.596762 246.474056 
L 230.239717 246.607128 
L 232.882673 246.654965 
L 235.525628 246.623671 
L 238.168584 246.523212 
L 240.811539 246.366832 
L 243.454495 246.170351 
L 246.09745 245.951352 
L 248.740406 245.728298 
L 251.383361 245.51962 
L 254.026317 245.342804 
L 256.669272 245.213505 
L 259.312228 245.144756 
L 261.955183 245.146271 
L 264.598139 245.223907 
L 267.241094 245.379294 
L 269.884049 245.609686 
L 272.527005 245.908017 
L 275.16996 246.263218 
L 277.812916 246.660765 
L 280.455871 247.083472 
L 283.098827 247.512503 
L 285.741782 247.928573 
L 288.384738 248.31329 
L 291.027693 248.650567 
L 293.670649 248.928021 
L 296.313604 249.138255 
L 298.95656 249.279875 
L 301.599515 249.358095 
L 304.242471 249.384727 
L 306.885426 249.377351 
L 309.528382 249.357387 
L 312.171337 249.346786 
L 314.814293 249.363012 
L 317.457248 249.411916 
L 320.100204 249.478101 
L 322.743159 249.512293 
L 325.386115 249.415186 
L 328.02907 249.017206 
" clip-path="url(#p2f6a7a4b69)" style="fill: none; stroke: #1f77b4; stroke-width: 1.5; stroke-linecap: square"/>
   </g>
   <g id="line2d_12">
    <path d="M 66.376477 209.091116 
L 69.157406 263.057319 
L 71.938334 272.093499 
L 74.719263 252.9467 
L 77.500191 218.272967 
L 80.28112 177.363882 
L 83.062048 136.776657 
L 85.842977 100.877271 
L 88.623905 72.305452 
L 91.404834 52.369694 
L 94.185762 41.379888 
L 96.966691 38.924577 
L 99.747619 44.099308 
L 102.528548 55.692032 
L 105.309476 72.330989 
L 108.090405 92.600097 
L 110.871333 115.126367 
L 113.652261 138.643481 
L 116.43319 162.035277 
L 119.214118 184.362488 
L 121.995047 204.875757 
L 124.775975 223.017609 
L 127.556904 238.41576 
L 130.337832 250.869857 
L 133.118761 260.333469 
L 135.899689 266.8929 
L 138.680618 270.744188 
L 141.461546 272.169414 
L 144.242475 271.513265 
L 147.023403 269.160621 
L 149.804332 265.515762 
L 152.58526 260.983664 
L 155.366189 255.953705 
L 158.147117 250.785987 
L 160.928046 245.800391 
L 163.708974 241.26838 
L 166.489903 237.407483 
L 169.270831 234.378338 
L 172.05176 232.284115 
L 174.832688 231.172089 
L 177.613617 231.037099 
L 180.394545 231.826615 
L 183.175474 233.447102 
L 185.956402 235.771376 
L 188.73733 238.646631 
L 191.518259 241.902837 
L 194.299187 245.36121 
L 197.080116 248.842468 
L 199.861044 252.174635 
L 202.641973 251.374546 
L 205.422901 251.374043 
L 208.20383 259.555631 
L 210.984758 261.271547 
L 213.765687 262.305408 
L 216.546615 262.626746 
L 219.327544 262.238769 
L 222.108472 261.1776 
L 224.889401 259.510226 
L 227.670329 257.331269 
L 230.451258 254.758652 
L 233.232186 251.928335 
L 236.013115 248.988286 
L 238.794043 246.091887 
L 241.574972 243.391001 
L 244.3559 241.028943 
L 247.136829 239.133623 
L 249.917757 237.811104 
L 252.698686 237.139866 
L 255.479614 237.166026 
L 258.260543 237.899764 
L 261.041471 239.313201 
L 263.8224 241.339909 
L 266.603328 243.876242 
L 269.384256 246.784594 
L 272.165185 249.898653 
L 274.946113 253.030643 
L 277.727042 255.980474 
L 280.50797 258.546626 
L 283.288899 260.538482 
L 286.069827 261.789732 
L 288.850756 262.172317 
L 291.631684 261.610236 
L 294.412613 260.092413 
L 297.193541 257.683613 
L 299.97447 254.532208 
L 302.755398 250.873419 
L 305.536327 247.026401 
L 308.317255 243.383313 
L 311.098184 240.388259 
L 313.879112 238.5037 
L 316.660041 238.161639 
L 319.440969 239.696577 
L 322.221898 243.25688 
L 325.002826 248.690856 
L 327.783755 255.403447 
L 330.564683 262.179054 
L 333.345612 266.965558 
L 336.12654 266.614195 
L 338.907469 256.569428 
L 341.688397 230.502477 
" clip-path="url(#p2f6a7a4b69)" style="fill: none; stroke: #ff7f0e; stroke-width: 1.5; stroke-linecap: square"/>
   </g>
   <g id="line2d_13">
    <path d="M 66.376477 270.352541 
L 69.655816 256.295478 
L 72.935155 223.922143 
L 76.214494 183.346775 
L 79.493833 141.794483 
L 82.773171 104.162865 
L 86.05251 73.504381 
L 89.331849 51.437626 
L 92.611188 38.495051 
L 95.890527 34.414125 
L 99.169866 38.378417 
L 102.449205 49.214534 
L 105.728543 65.550409 
L 109.007882 85.93994 
L 112.287221 108.95857 
L 115.56656 133.273983 
L 118.845899 157.695681 
L 122.125238 181.206885 
L 125.404576 202.981799 
L 128.683915 222.391012 
L 131.963254 238.997456 
L 135.242593 252.545095 
L 138.521932 262.942225 
L 141.801271 270.241029 
L 145.08061 274.614816 
L 148.359948 276.334125 
L 151.639287 275.742724 
L 154.918626 273.234316 
L 158.197965 269.230628 
L 161.477304 264.161397 
L 164.756643 258.446632 
L 168.035981 252.481428 
L 171.31532 246.623467 
L 174.594659 241.18329 
L 177.873998 236.417308 
L 181.153337 232.523463 
L 184.432676 229.639388 
L 187.712014 227.84287 
L 190.991353 227.154379 
L 194.270692 227.54138 
L 197.550031 228.92416 
L 200.82937 231.18284 
L 204.108709 234.165287 
L 207.388048 237.695592 
L 210.667386 241.582835 
L 213.946725 245.629824 
L 217.226064 249.641555 
L 220.505403 253.433135 
L 223.784742 256.836944 
L 227.064081 251.373133 
L 230.343419 251.373947 
L 233.622758 260.110619 
L 236.902097 260.959478 
L 240.181436 261.183442 
L 243.460775 260.790656 
L 246.740114 259.816272 
L 250.019452 258.32059 
L 253.298791 256.386273 
L 256.57813 254.114741 
L 259.857469 251.621853 
L 263.136808 249.033014 
L 266.416147 246.477868 
L 269.695486 244.084736 
L 272.974824 241.975 
L 276.254163 240.257614 
L 279.533502 239.023955 
L 282.812841 238.343195 
L 286.09218 238.25842 
L 289.371519 238.783657 
L 292.650857 239.902009 
L 295.930196 241.565032 
L 299.209535 243.693498 
L 302.488874 246.179634 
L 305.768213 248.890893 
L 309.047552 251.675266 
L 312.32689 254.368093 
L 315.606229 256.800251 
L 318.885568 258.807549 
L 322.164907 260.241059 
L 325.444246 260.978034 
L 328.723585 260.932941 
L 332.002924 260.068078 
L 335.282262 258.403042 
L 338.561601 256.022271 
L 341.84094 253.079666 
L 345.120279 249.799195 
L 348.399618 246.470178 
L 351.678957 243.435794 
L 354.958295 241.073147 
L 358.237634 239.763033 
L 361.516973 239.847304 
L 364.796312 241.571526 
L 368.075651 245.010351 
L 371.35499 249.972772 
L 374.634329 255.884148 
L 377.913667 261.641593 
L 381.193006 265.439005 
L 384.472345 264.557699 
L 387.751684 255.118239 
L 391.031023 231.788735 
" clip-path="url(#p2f6a7a4b69)" style="fill: none; stroke: #2ca02c; stroke-width: 1.5; stroke-linecap: square"/>
   </g>
   <g id="line2d_14">
    <path d="M 66.376477 95.84689 
L 69.349559 169.556379 
L 72.322641 213.527765 
L 75.295723 235.391134 
L 78.268805 241.368982 
L 81.241887 236.472716 
L 84.214969 224.678205 
L 87.188051 209.082037 
L 90.161133 192.040077 
L 93.134215 175.28981 
L 96.107297 160.057865 
L 99.080379 147.154044 
L 102.053461 137.053086 
L 105.026543 129.965311 
L 107.999625 125.897236 
L 110.972707 124.703165 
L 113.945789 126.128686 
L 116.918871 129.846941 
L 119.891953 135.488494 
L 122.865035 142.665519 
L 125.838117 150.991016 
L 128.811199 160.093677 
L 131.784281 169.628984 
L 134.757363 179.287075 
L 137.730444 188.797858 
L 140.703526 197.933809 
L 143.676608 206.51086 
L 146.64969 214.387725 
L 149.622772 221.463985 
L 152.595854 227.677223 
L 155.568936 232.999451 
L 158.542018 237.433058 
L 161.5151 241.006456 
L 164.488182 243.769609 
L 167.461264 245.789568 
L 170.434346 247.146132 
L 173.407428 247.927738 
L 176.38051 248.227645 
L 179.353592 248.140478 
L 182.326674 247.759173 
L 185.299756 247.172345 
L 188.272838 246.462101 
L 191.24592 245.7023 
L 194.219002 244.95725 
L 197.192084 244.280824 
L 200.165166 243.715982 
L 203.138248 243.294664 
L 206.11133 243.038011 
L 209.084412 242.956896 
L 212.057494 251.379098 
L 215.030576 251.379722 
L 218.003658 241.534813 
L 220.97674 241.88268 
L 223.949822 242.459023 
L 226.922903 243.237833 
L 229.895985 244.185768 
L 232.869067 245.263678 
L 235.842149 246.42825 
L 238.815231 247.633747 
L 241.788313 248.833777 
L 244.761395 249.983055 
L 247.734477 251.039107 
L 250.707559 251.963875 
L 253.680641 252.725164 
L 256.653723 253.297908 
L 259.626805 253.665186 
L 262.599887 253.818979 
L 265.572969 253.760618 
L 268.546051 253.500888 
L 271.519133 253.059798 
L 274.492215 252.465965 
L 277.465297 251.75564 
L 280.438379 250.971355 
L 283.411461 250.160228 
L 286.384543 249.371946 
L 289.357625 248.656457 
L 292.330707 248.061449 
L 295.303789 247.62967 
L 298.276871 247.396189 
L 301.249953 247.385697 
L 304.223035 247.609991 
L 307.196117 248.065778 
L 310.169199 248.732972 
L 313.142281 249.573695 
L 316.115362 250.532194 
L 319.088444 251.53593 
L 322.061526 252.498117 
L 325.034608 253.322036 
L 328.00769 253.907451 
L 330.980772 254.159522 
L 333.953854 254.000625 
L 336.926936 253.385541 
L 339.900018 252.320495 
L 342.8731 250.886597 
L 345.846182 249.268267 
L 348.819264 247.787253 
L 351.792346 246.942943 
L 354.765428 247.459677 
L 357.73851 250.341853 
L 360.711592 256.937641 
" clip-path="url(#p2f6a7a4b69)" style="fill: none; stroke: #d62728; stroke-width: 1.5; stroke-linecap: square"/>
   </g>
   <g id="line2d_15">
    <path d="M 66.376477 248.400535 
L 68.925622 239.282808 
L 71.474767 226.743219 
L 74.023913 213.040973 
L 76.573058 199.752016 
L 79.122203 187.908082 
L 81.671348 178.115309 
L 84.220493 170.654601 
L 86.769638 165.565744 
L 89.318783 162.71714 
L 91.867928 161.862877 
L 94.417073 162.688689 
L 96.966218 164.848275 
L 99.515363 167.991269 
L 102.064509 171.784077 
L 104.613654 175.924653 
L 107.162799 180.152213 
L 109.711944 184.25274 
L 112.261089 188.061098 
L 114.810234 191.460437 
L 117.359379 194.379505 
L 119.908524 196.78842 
L 122.457669 198.693368 
L 125.006814 200.130623 
L 127.555959 201.160245 
L 130.105105 201.859735 
L 132.65425 202.317889 
L 135.203395 202.629028 
L 137.75254 202.887769 
L 140.301685 203.184427 
L 142.85083 203.601132 
L 145.399975 204.208698 
L 147.94912 205.064265 
L 150.498265 206.2097 
L 153.04741 207.670739 
L 155.596555 209.456806 
L 158.1457 211.56148 
L 160.694846 213.963507 
L 163.243991 216.628303 
L 165.793136 219.509852 
L 168.342281 222.552916 
L 170.891426 225.695456 
L 173.440571 228.871199 
L 175.989716 232.012228 
L 178.538861 235.05155 
L 181.088006 237.925536 
L 183.637151 240.576173 
L 186.186296 242.953069 
L 188.735442 245.015144 
L 191.284587 251.373753 
L 193.833732 251.374662 
L 196.382877 247.164867 
L 198.932022 247.767768 
L 201.481167 248.12096 
L 204.030312 248.248272 
L 206.579457 248.179341 
L 209.128602 247.948582 
L 211.677747 247.594011 
L 214.226892 247.155939 
L 216.776038 246.675597 
L 219.325183 246.193703 
L 221.874328 245.749036 
L 224.423473 245.377041 
L 226.972618 245.108524 
L 229.521763 244.968465 
L 232.070908 244.975012 
L 234.620053 245.138675 
L 237.169198 245.461774 
L 239.718343 245.938171 
L 242.267488 246.553316 
L 244.816634 247.284619 
L 247.365779 248.102188 
L 249.914924 248.969912 
L 252.464069 249.846904 
L 255.013214 250.689275 
L 257.562359 251.452222 
L 260.111504 252.092367 
L 262.660649 252.570312 
L 265.209794 252.853295 
L 267.758939 252.917877 
L 270.308084 252.752519 
L 272.85723 252.359902 
L 275.406375 251.758823 
L 277.95552 250.985456 
L 280.504665 250.093746 
L 283.05381 249.15467 
L 285.602955 248.254063 
L 288.1521 247.488663 
L 290.701245 246.960003 
L 293.25039 246.765716 
L 295.799535 246.987794 
L 298.34868 247.677275 
L 300.897826 248.8348 
L 303.446971 250.38641 
L 305.996116 252.153906 
L 308.545261 253.819043 
L 311.094406 254.880747 
L 313.643551 254.604503 
L 316.192696 251.962963 
L 318.741841 245.566789 
" clip-path="url(#p2f6a7a4b69)" style="fill: none; stroke: #9467bd; stroke-width: 1.5; stroke-linecap: square"/>
   </g>
   <g id="line2d_16">
    <path d="M 66.376477 223.856944 
L 68.985937 266.183742 
L 71.595397 271.94582 
L 74.204857 254.360068 
L 76.814317 223.530662 
L 79.423776 186.982833 
L 82.033236 150.128018 
L 84.642696 116.66694 
L 87.252156 88.93674 
L 89.861616 68.207802 
L 92.471076 54.935589 
L 95.080535 48.972338 
L 97.689995 49.743162 
L 100.299455 56.390709 
L 102.908915 67.892217 
L 105.518375 83.152487 
L 108.127835 101.075983 
L 110.737294 120.620989 
L 113.346754 140.838491 
L 115.956214 160.898182 
L 118.565674 180.103764 
L 121.175134 197.899483 
L 123.784594 213.869636 
L 126.394053 227.732567 
L 129.003513 239.330522 
L 131.612973 248.616509 
L 134.222433 255.639214 
L 136.831893 260.526804 
L 139.441353 263.470388 
L 142.050812 264.707703 
L 144.660272 264.507549 
L 147.269732 263.155347 
L 149.879192 260.940118 
L 152.488652 258.143088 
L 155.098111 255.028062 
L 157.707571 251.833631 
L 160.317031 248.767219 
L 162.926491 246.000935 
L 165.535951 243.669142 
L 168.145411 241.867626 
L 170.75487 240.654221 
L 173.36433 240.050712 
L 175.97379 240.04584 
L 178.58325 240.599194 
L 181.19271 241.645813 
L 183.80217 243.101267 
L 186.411629 244.867033 
L 189.021089 246.835965 
L 191.630549 248.89768 
L 194.240009 251.377407 
L 196.849469 251.376377 
L 199.458929 255.924889 
L 202.068388 257.628826 
L 204.677848 258.911655 
L 207.287308 259.725071 
L 209.896768 260.044595 
L 212.506228 259.870004 
L 215.115688 259.224779 
L 217.725147 258.154612 
L 220.334607 256.725014 
L 222.944067 255.01814 
L 225.553527 253.12892 
L 228.162987 251.160643 
L 230.772447 249.220142 
L 233.381906 247.41276 
L 235.991366 245.83727 
L 238.600826 244.580954 
L 241.210286 243.715033 
L 243.819746 243.290644 
L 246.429206 243.335579 
L 249.038665 243.851936 
L 251.648125 244.814881 
L 254.257585 246.172642 
L 256.867045 247.847866 
L 259.476505 249.740393 
L 262.085964 251.731503 
L 264.695424 253.689579 
L 267.304884 255.477132 
L 269.914344 256.959003 
L 272.523804 258.011507 
L 275.133264 258.53219 
L 277.742723 258.449759 
L 280.352183 257.733627 
L 282.961643 256.402414 
L 285.571103 254.530571 
L 288.180563 252.252177 
L 290.790023 249.760787 
L 293.399482 247.304014 
L 296.008942 245.171375 
L 298.618402 243.67369 
L 301.227862 243.112138 
L 303.837322 243.73481 
L 306.446782 245.678378 
L 309.056241 248.892215 
L 311.665701 253.042024 
L 314.275161 257.389756 
L 316.884621 260.646232 
L 319.494081 260.792625 
L 322.103541 254.866528 
L 324.713 238.708027 
" clip-path="url(#p2f6a7a4b69)" style="fill: none; stroke: #8c564b; stroke-width: 1.5; stroke-linecap: square"/>
   </g>
   <g id="patch_3">
    <path d="M 50.14375 288.430125 
L 50.14375 22.318125 
" style="fill: none; stroke: #000000; stroke-width: 0.8; stroke-linejoin: miter; stroke-linecap: square"/>
   </g>
   <g id="patch_4">
    <path d="M 407.26375 288.430125 
L 407.26375 22.318125 
" style="fill: none; stroke: #000000; stroke-width: 0.8; stroke-linejoin: miter; stroke-linecap: square"/>
   </g>
   <g id="patch_5">
    <path d="M 50.14375 288.430125 
L 407.26375 288.430125 
" style="fill: none; stroke: #000000; stroke-width: 0.8; stroke-linejoin: miter; stroke-linecap: square"/>
   </g>
   <g id="patch_6">
    <path d="M 50.14375 22.318125 
L 407.26375 22.318125 
" style="fill: none; stroke: #000000; stroke-width: 0.8; stroke-linejoin: miter; stroke-linecap: square"/>
   </g>
   <g id="text_13">
    <!-- RD - xtract_prob_Corticospinal_Tract_R -->
    <g transform="translate(112.809063 16.318125) scale(0.12 -0.12)">
     <defs>
      <path id="DejaVuSans-52" d="M 2841 2188 
Q 3044 2119 3236 1894 
Q 3428 1669 3622 1275 
L 4263 0 
L 3584 0 
L 2988 1197 
Q 2756 1666 2539 1819 
Q 2322 1972 1947 1972 
L 1259 1972 
L 1259 0 
L 628 0 
L 628 4666 
L 2053 4666 
Q 2853 4666 3247 4331 
Q 3641 3997 3641 3322 
Q 3641 2881 3436 2590 
Q 3231 2300 2841 2188 
z
M 1259 4147 
L 1259 2491 
L 2053 2491 
Q 2509 2491 2742 2702 
Q 2975 2913 2975 3322 
Q 2975 3731 2742 3939 
Q 2509 4147 2053 4147 
L 1259 4147 
z
" transform="scale(0.015625)"/>
      <path id="DejaVuSans-44" d="M 1259 4147 
L 1259 519 
L 2022 519 
Q 2988 519 3436 956 
Q 3884 1394 3884 2338 
Q 3884 3275 3436 3711 
Q 2988 4147 2022 4147 
L 1259 4147 
z
M 628 4666 
L 1925 4666 
Q 3281 4666 3915 4102 
Q 4550 3538 4550 2338 
Q 4550 1131 3912 565 
Q 3275 0 1925 0 
L 628 0 
L 628 4666 
z
" transform="scale(0.015625)"/>
      <path id="DejaVuSans-2d" d="M 313 2009 
L 1997 2009 
L 1997 1497 
L 313 1497 
L 313 2009 
z
" transform="scale(0.015625)"/>
      <path id="DejaVuSans-74" d="M 1172 4494 
L 1172 3500 
L 2356 3500 
L 2356 3053 
L 1172 3053 
L 1172 1153 
Q 1172 725 1289 603 
Q 1406 481 1766 481 
L 2356 481 
L 2356 0 
L 1766 0 
Q 1100 0 847 248 
Q 594 497 594 1153 
L 594 3053 
L 172 3053 
L 172 3500 
L 594 3500 
L 594 4494 
L 1172 4494 
z
" transform="scale(0.015625)"/>
      <path id="DejaVuSans-5f" d="M 3263 -1063 
L 3263 -1509 
L -63 -1509 
L -63 -1063 
L 3263 -1063 
z
" transform="scale(0.015625)"/>
      <path id="DejaVuSans-70" d="M 1159 525 
L 1159 -1331 
L 581 -1331 
L 581 3500 
L 1159 3500 
L 1159 2969 
Q 1341 3281 1617 3432 
Q 1894 3584 2278 3584 
Q 2916 3584 3314 3078 
Q 3713 2572 3713 1747 
Q 3713 922 3314 415 
Q 2916 -91 2278 -91 
Q 1894 -91 1617 61 
Q 1341 213 1159 525 
z
M 3116 1747 
Q 3116 2381 2855 2742 
Q 2594 3103 2138 3103 
Q 1681 3103 1420 2742 
Q 1159 2381 1159 1747 
Q 1159 1113 1420 752 
Q 1681 391 2138 391 
Q 2594 391 2855 752 
Q 3116 1113 3116 1747 
z
" transform="scale(0.015625)"/>
      <path id="DejaVuSans-6f" d="M 1959 3097 
Q 1497 3097 1228 2736 
Q 959 2375 959 1747 
Q 959 1119 1226 758 
Q 1494 397 1959 397 
Q 2419 397 2687 759 
Q 2956 1122 2956 1747 
Q 2956 2369 2687 2733 
Q 2419 3097 1959 3097 
z
M 1959 3584 
Q 2709 3584 3137 3096 
Q 3566 2609 3566 1747 
Q 3566 888 3137 398 
Q 2709 -91 1959 -91 
Q 1206 -91 779 398 
Q 353 888 353 1747 
Q 353 2609 779 3096 
Q 1206 3584 1959 3584 
z
" transform="scale(0.015625)"/>
      <path id="DejaVuSans-62" d="M 3116 1747 
Q 3116 2381 2855 2742 
Q 2594 3103 2138 3103 
Q 1681 3103 1420 2742 
Q 1159 2381 1159 1747 
Q 1159 1113 1420 752 
Q 1681 391 2138 391 
Q 2594 391 2855 752 
Q 3116 1113 3116 1747 
z
M 1159 2969 
Q 1341 3281 1617 3432 
Q 1894 3584 2278 3584 
Q 2916 3584 3314 3078 
Q 3713 2572 3713 1747 
Q 3713 922 3314 415 
Q 2916 -91 2278 -91 
Q 1894 -91 1617 61 
Q 1341 213 1159 525 
L 1159 0 
L 581 0 
L 581 4863 
L 1159 4863 
L 1159 2969 
z
" transform="scale(0.015625)"/>
      <path id="DejaVuSans-43" d="M 4122 4306 
L 4122 3641 
Q 3803 3938 3442 4084 
Q 3081 4231 2675 4231 
Q 1875 4231 1450 3742 
Q 1025 3253 1025 2328 
Q 1025 1406 1450 917 
Q 1875 428 2675 428 
Q 3081 428 3442 575 
Q 3803 722 4122 1019 
L 4122 359 
Q 3791 134 3420 21 
Q 3050 -91 2638 -91 
Q 1578 -91 968 557 
Q 359 1206 359 2328 
Q 359 3453 968 4101 
Q 1578 4750 2638 4750 
Q 3056 4750 3426 4639 
Q 3797 4528 4122 4306 
z
" transform="scale(0.015625)"/>
      <path id="DejaVuSans-54" d="M -19 4666 
L 3928 4666 
L 3928 4134 
L 2272 4134 
L 2272 0 
L 1638 0 
L 1638 4134 
L -19 4134 
L -19 4666 
z
" transform="scale(0.015625)"/>
     </defs>
     <use xlink:href="#DejaVuSans-52"/>
     <use xlink:href="#DejaVuSans-44" x="69.482422"/>
     <use xlink:href="#DejaVuSans-20" x="146.484375"/>
     <use xlink:href="#DejaVuSans-2d" x="178.271484"/>
     <use xlink:href="#DejaVuSans-20" x="214.355469"/>
     <use xlink:href="#DejaVuSans-78" x="246.142578"/>
     <use xlink:href="#DejaVuSans-74" x="305.322266"/>
     <use xlink:href="#DejaVuSans-72" x="344.53125"/>
     <use xlink:href="#DejaVuSans-61" x="385.644531"/>
     <use xlink:href="#DejaVuSans-63" x="446.923828"/>
     <use xlink:href="#DejaVuSans-74" x="501.904297"/>
     <use xlink:href="#DejaVuSans-5f" x="541.113281"/>
     <use xlink:href="#DejaVuSans-70" x="591.113281"/>
     <use xlink:href="#DejaVuSans-72" x="654.589844"/>
     <use xlink:href="#DejaVuSans-6f" x="693.453125"/>
     <use xlink:href="#DejaVuSans-62" x="754.634766"/>
     <use xlink:href="#DejaVuSans-5f" x="818.111328"/>
     <use xlink:href="#DejaVuSans-43" x="868.111328"/>
     <use xlink:href="#DejaVuSans-6f" x="937.935547"/>
     <use xlink:href="#DejaVuSans-72" x="999.117188"/>
     <use xlink:href="#DejaVuSans-74" x="1040.230469"/>
     <use xlink:href="#DejaVuSans-69" x="1079.439453"/>
     <use xlink:href="#DejaVuSans-63" x="1107.222656"/>
     <use xlink:href="#DejaVuSans-6f" x="1162.203125"/>
     <use xlink:href="#DejaVuSans-73" x="1223.384766"/>
     <use xlink:href="#DejaVuSans-70" x="1275.484375"/>
     <use xlink:href="#DejaVuSans-69" x="1338.960938"/>
     <use xlink:href="#DejaVuSans-6e" x="1366.744141"/>
     <use xlink:href="#DejaVuSans-61" x="1430.123047"/>
     <use xlink:href="#DejaVuSans-6c" x="1491.402344"/>
     <use xlink:href="#DejaVuSans-5f" x="1519.185547"/>
     <use xlink:href="#DejaVuSans-54" x="1569.185547"/>
     <use xlink:href="#DejaVuSans-72" x="1615.519531"/>
     <use xlink:href="#DejaVuSans-61" x="1656.632812"/>
     <use xlink:href="#DejaVuSans-63" x="1717.912109"/>
     <use xlink:href="#DejaVuSans-74" x="1772.892578"/>
     <use xlink:href="#DejaVuSans-5f" x="1812.101562"/>
     <use xlink:href="#DejaVuSans-52" x="1862.101562"/>
    </g>
   </g>
   <g id="legend_1">
    <g id="patch_7">
     <path d="M 449.97575 146.666825 
L 547.832 146.666825 
Q 549.832 146.666825 549.832 144.666825 
L 549.832 55.929325 
Q 549.832 53.929325 547.832 53.929325 
L 449.97575 53.929325 
Q 447.97575 53.929325 447.97575 55.929325 
L 447.97575 144.666825 
Q 447.97575 146.666825 449.97575 146.666825 
z
" style="fill: #ffffff; opacity: 0.8; stroke: #cccccc; stroke-linejoin: miter"/>
    </g>
    <g id="line2d_17">
     <path d="M 451.97575 62.027762 
L 461.97575 62.027762 
L 471.97575 62.027762 
" style="fill: none; stroke: #1f77b4; stroke-width: 1.5; stroke-linecap: square"/>
    </g>
    <g id="text_14">
     <!-- 20_06_02_E3 -->
     <g transform="translate(479.97575 65.527762) scale(0.1 -0.1)">
      <defs>
       <path id="DejaVuSans-45" d="M 628 4666 
L 3578 4666 
L 3578 4134 
L 1259 4134 
L 1259 2753 
L 3481 2753 
L 3481 2222 
L 1259 2222 
L 1259 531 
L 3634 531 
L 3634 0 
L 628 0 
L 628 4666 
z
" transform="scale(0.015625)"/>
       <path id="DejaVuSans-33" d="M 2597 2516 
Q 3050 2419 3304 2112 
Q 3559 1806 3559 1356 
Q 3559 666 3084 287 
Q 2609 -91 1734 -91 
Q 1441 -91 1130 -33 
Q 819 25 488 141 
L 488 750 
Q 750 597 1062 519 
Q 1375 441 1716 441 
Q 2309 441 2620 675 
Q 2931 909 2931 1356 
Q 2931 1769 2642 2001 
Q 2353 2234 1838 2234 
L 1294 2234 
L 1294 2753 
L 1863 2753 
Q 2328 2753 2575 2939 
Q 2822 3125 2822 3475 
Q 2822 3834 2567 4026 
Q 2313 4219 1838 4219 
Q 1578 4219 1281 4162 
Q 984 4106 628 3988 
L 628 4550 
Q 988 4650 1302 4700 
Q 1616 4750 1894 4750 
Q 2613 4750 3031 4423 
Q 3450 4097 3450 3541 
Q 3450 3153 3228 2886 
Q 3006 2619 2597 2516 
z
" transform="scale(0.015625)"/>
      </defs>
      <use xlink:href="#DejaVuSans-32"/>
      <use xlink:href="#DejaVuSans-30" x="63.623047"/>
      <use xlink:href="#DejaVuSans-5f" x="127.246094"/>
      <use xlink:href="#DejaVuSans-30" x="177.246094"/>
      <use xlink:href="#DejaVuSans-36" x="240.869141"/>
      <use xlink:href="#DejaVuSans-5f" x="304.492188"/>
      <use xlink:href="#DejaVuSans-30" x="354.492188"/>
      <use xlink:href="#DejaVuSans-32" x="418.115234"/>
      <use xlink:href="#DejaVuSans-5f" x="481.738281"/>
      <use xlink:href="#DejaVuSans-45" x="531.738281"/>
      <use xlink:href="#DejaVuSans-33" x="594.921875"/>
     </g>
    </g>
    <g id="line2d_18">
     <path d="M 451.97575 76.984013 
L 461.97575 76.984013 
L 471.97575 76.984013 
" style="fill: none; stroke: #ff7f0e; stroke-width: 1.5; stroke-linecap: square"/>
    </g>
    <g id="text_15">
     <!-- 20_05_01_E3 -->
     <g transform="translate(479.97575 80.484013) scale(0.1 -0.1)">
      <use xlink:href="#DejaVuSans-32"/>
      <use xlink:href="#DejaVuSans-30" x="63.623047"/>
      <use xlink:href="#DejaVuSans-5f" x="127.246094"/>
      <use xlink:href="#DejaVuSans-30" x="177.246094"/>
      <use xlink:href="#DejaVuSans-35" x="240.869141"/>
      <use xlink:href="#DejaVuSans-5f" x="304.492188"/>
      <use xlink:href="#DejaVuSans-30" x="354.492188"/>
      <use xlink:href="#DejaVuSans-31" x="418.115234"/>
      <use xlink:href="#DejaVuSans-5f" x="481.738281"/>
      <use xlink:href="#DejaVuSans-45" x="531.738281"/>
      <use xlink:href="#DejaVuSans-33" x="594.921875"/>
     </g>
    </g>
    <g id="line2d_19">
     <path d="M 451.97575 91.940262 
L 461.97575 91.940262 
L 471.97575 91.940262 
" style="fill: none; stroke: #2ca02c; stroke-width: 1.5; stroke-linecap: square"/>
    </g>
    <g id="text_16">
     <!-- 20_02_02_E3 -->
     <g transform="translate(479.97575 95.440262) scale(0.1 -0.1)">
      <use xlink:href="#DejaVuSans-32"/>
      <use xlink:href="#DejaVuSans-30" x="63.623047"/>
      <use xlink:href="#DejaVuSans-5f" x="127.246094"/>
      <use xlink:href="#DejaVuSans-30" x="177.246094"/>
      <use xlink:href="#DejaVuSans-32" x="240.869141"/>
      <use xlink:href="#DejaVuSans-5f" x="304.492188"/>
      <use xlink:href="#DejaVuSans-30" x="354.492188"/>
      <use xlink:href="#DejaVuSans-32" x="418.115234"/>
      <use xlink:href="#DejaVuSans-5f" x="481.738281"/>
      <use xlink:href="#DejaVuSans-45" x="531.738281"/>
      <use xlink:href="#DejaVuSans-33" x="594.921875"/>
     </g>
    </g>
    <g id="line2d_20">
     <path d="M 451.97575 106.896513 
L 461.97575 106.896513 
L 471.97575 106.896513 
" style="fill: none; stroke: #d62728; stroke-width: 1.5; stroke-linecap: square"/>
    </g>
    <g id="text_17">
     <!-- 20_10_02_E3 -->
     <g transform="translate(479.97575 110.396513) scale(0.1 -0.1)">
      <use xlink:href="#DejaVuSans-32"/>
      <use xlink:href="#DejaVuSans-30" x="63.623047"/>
      <use xlink:href="#DejaVuSans-5f" x="127.246094"/>
      <use xlink:href="#DejaVuSans-31" x="177.246094"/>
      <use xlink:href="#DejaVuSans-30" x="240.869141"/>
      <use xlink:href="#DejaVuSans-5f" x="304.492188"/>
      <use xlink:href="#DejaVuSans-30" x="354.492188"/>
      <use xlink:href="#DejaVuSans-32" x="418.115234"/>
      <use xlink:href="#DejaVuSans-5f" x="481.738281"/>
      <use xlink:href="#DejaVuSans-45" x="531.738281"/>
      <use xlink:href="#DejaVuSans-33" x="594.921875"/>
     </g>
    </g>
    <g id="line2d_21">
     <path d="M 451.97575 121.852762 
L 461.97575 121.852762 
L 471.97575 121.852762 
" style="fill: none; stroke: #9467bd; stroke-width: 1.5; stroke-linecap: square"/>
    </g>
    <g id="text_18">
     <!-- 20_08_02_E3 -->
     <g transform="translate(479.97575 125.352762) scale(0.1 -0.1)">
      <use xlink:href="#DejaVuSans-32"/>
      <use xlink:href="#DejaVuSans-30" x="63.623047"/>
      <use xlink:href="#DejaVuSans-5f" x="127.246094"/>
      <use xlink:href="#DejaVuSans-30" x="177.246094"/>
      <use xlink:href="#DejaVuSans-38" x="240.869141"/>
      <use xlink:href="#DejaVuSans-5f" x="304.492188"/>
      <use xlink:href="#DejaVuSans-30" x="354.492188"/>
      <use xlink:href="#DejaVuSans-32" x="418.115234"/>
      <use xlink:href="#DejaVuSans-5f" x="481.738281"/>
      <use xlink:href="#DejaVuSans-45" x="531.738281"/>
      <use xlink:href="#DejaVuSans-33" x="594.921875"/>
     </g>
    </g>
    <g id="line2d_22">
     <path d="M 451.97575 136.809012 
L 461.97575 136.809012 
L 471.97575 136.809012 
" style="fill: none; stroke: #8c564b; stroke-width: 1.5; stroke-linecap: square"/>
    </g>
    <g id="text_19">
     <!-- 20_11_02_E3 -->
     <g transform="translate(479.97575 140.309012) scale(0.1 -0.1)">
      <use xlink:href="#DejaVuSans-32"/>
      <use xlink:href="#DejaVuSans-30" x="63.623047"/>
      <use xlink:href="#DejaVuSans-5f" x="127.246094"/>
      <use xlink:href="#DejaVuSans-31" x="177.246094"/>
      <use xlink:href="#DejaVuSans-31" x="240.869141"/>
      <use xlink:href="#DejaVuSans-5f" x="304.492188"/>
      <use xlink:href="#DejaVuSans-30" x="354.492188"/>
      <use xlink:href="#DejaVuSans-32" x="418.115234"/>
      <use xlink:href="#DejaVuSans-5f" x="481.738281"/>
      <use xlink:href="#DejaVuSans-45" x="531.738281"/>
      <use xlink:href="#DejaVuSans-33" x="594.921875"/>
     </g>
    </g>
   </g>
  </g>
 </g>
 <defs>
  <clipPath id="p2f6a7a4b69">
   <rect x="50.14375" y="22.318125" width="357.12" height="266.112"/>
  </clipPath>
 </defs>
</svg>
