<?xml version="1.0" encoding="utf-8" standalone="no"?>
<!DOCTYPE svg PUBLIC "-//W3C//DTD SVG 1.1//EN"
  "http://www.w3.org/Graphics/SVG/1.1/DTD/svg11.dtd">
<svg xmlns:xlink="http://www.w3.org/1999/xlink" width="460.8pt" height="345.6pt" viewBox="0 0 460.8 345.6" xmlns="http://www.w3.org/2000/svg" version="1.1">
 <metadata>
  <rdf:RDF xmlns:dc="http://purl.org/dc/elements/1.1/" xmlns:cc="http://creativecommons.org/ns#" xmlns:rdf="http://www.w3.org/1999/02/22-rdf-syntax-ns#">
   <cc:Work>
    <dc:type rdf:resource="http://purl.org/dc/dcmitype/StillImage"/>
    <dc:date>2023-02-10T12:43:59.653468</dc:date>
    <dc:format>image/svg+xml</dc:format>
    <dc:creator>
     <cc:Agent>
      <dc:title>Matplotlib v3.6.2, https://matplotlib.org/</dc:title>
     </cc:Agent>
    </dc:creator>
   </cc:Work>
  </rdf:RDF>
 </metadata>
 <defs>
  <style type="text/css">*{stroke-linejoin: round; stroke-linecap: butt}</style>
 </defs>
 <g id="figure_1">
  <g id="patch_1">
   <path d="M 0 345.6 
L 460.8 345.6 
L 460.8 0 
L 0 0 
z
" style="fill: #ffffff"/>
  </g>
  <g id="axes_1">
   <g id="patch_2">
    <path d="M 57.6 307.584 
L 414.72 307.584 
L 414.72 41.472 
L 57.6 41.472 
z
" style="fill: #ffffff"/>
   </g>
   <g id="PolyCollection_1">
    <path d="M 73.832727 180.85868 
L 73.832727 295.488 
L 74.907742 295.488 
L 75.982757 295.488 
L 77.057772 295.488 
L 78.132787 295.488 
L 79.207803 295.488 
L 80.282818 295.488 
L 81.357833 295.488 
L 82.432848 295.488 
L 83.507863 295.488 
L 84.582878 295.488 
L 85.657893 295.488 
L 86.732908 295.488 
L 87.807923 295.488 
L 88.882938 295.488 
L 89.957953 295.488 
L 91.032968 295.488 
L 92.107983 295.488 
L 93.182998 295.488 
L 94.258013 295.488 
L 95.333028 295.488 
L 96.408043 295.488 
L 97.483058 295.488 
L 98.558073 295.488 
L 99.633089 295.488 
L 100.708104 295.488 
L 101.783119 295.488 
L 102.858134 295.488 
L 103.933149 295.488 
L 105.008164 295.488 
L 106.083179 295.488 
L 107.158194 295.488 
L 108.233209 295.488 
L 109.308224 295.488 
L 110.383239 295.488 
L 111.458254 295.488 
L 112.533269 295.488 
L 113.608284 295.488 
L 114.683299 295.488 
L 115.758314 295.488 
L 116.833329 295.488 
L 117.908344 295.488 
L 118.983359 295.488 
L 120.058374 295.488 
L 121.13339 295.488 
L 122.208405 295.488 
L 123.28342 295.488 
L 124.358435 295.488 
L 125.43345 295.488 
L 126.508465 295.488 
L 127.58348 295.488 
L 128.658495 295.488 
L 129.73351 295.488 
L 130.808525 295.488 
L 131.88354 295.488 
L 132.958555 295.488 
L 134.03357 295.488 
L 135.108585 295.488 
L 136.1836 295.488 
L 137.258615 295.488 
L 138.33363 295.488 
L 139.408645 295.488 
L 140.48366 295.488 
L 141.558675 295.488 
L 142.633691 295.488 
L 143.708706 295.488 
L 144.783721 295.488 
L 145.858736 295.488 
L 146.933751 295.488 
L 148.008766 295.488 
L 149.083781 295.488 
L 150.158796 295.488 
L 151.233811 295.488 
L 152.308826 295.488 
L 153.383841 295.488 
L 154.458856 295.488 
L 155.533871 295.488 
L 156.608886 295.488 
L 157.683901 295.488 
L 158.758916 295.488 
L 159.833931 295.488 
L 160.908946 295.488 
L 161.983961 295.488 
L 163.058977 295.488 
L 164.133992 295.488 
L 165.209007 295.488 
L 166.284022 295.488 
L 167.359037 295.488 
L 168.434052 295.488 
L 169.509067 295.488 
L 170.584082 295.488 
L 171.659097 295.488 
L 172.734112 295.488 
L 173.809127 295.488 
L 174.884142 295.488 
L 175.959157 295.488 
L 177.034172 295.488 
L 178.109187 295.488 
L 179.184202 295.488 
L 180.259217 295.488 
L 181.334232 295.488 
L 182.409247 295.488 
L 183.484262 295.488 
L 184.559278 295.488 
L 185.634293 295.488 
L 186.709308 295.488 
L 187.784323 295.488 
L 188.859338 295.488 
L 189.934353 295.488 
L 191.009368 295.488 
L 192.084383 295.488 
L 193.159398 295.488 
L 194.234413 295.488 
L 195.309428 295.488 
L 196.384443 295.488 
L 197.459458 295.488 
L 198.534473 295.488 
L 199.609488 295.488 
L 200.684503 295.488 
L 201.759518 295.488 
L 202.834533 295.488 
L 203.909548 295.488 
L 204.984564 295.488 
L 206.059579 295.488 
L 207.134594 295.488 
L 208.209609 295.488 
L 209.284624 295.488 
L 210.359639 295.488 
L 211.434654 295.488 
L 212.509669 295.488 
L 213.584684 295.488 
L 214.659699 295.488 
L 215.734714 295.488 
L 216.809729 295.488 
L 217.884744 295.488 
L 218.959759 295.488 
L 220.034774 295.488 
L 221.109789 295.488 
L 222.184804 295.488 
L 223.259819 295.488 
L 224.334834 295.488 
L 225.409849 295.488 
L 226.484865 295.488 
L 227.55988 295.488 
L 228.634895 295.488 
L 229.70991 295.488 
L 230.784925 295.488 
L 231.85994 295.488 
L 232.934955 295.488 
L 234.00997 295.488 
L 235.084985 295.488 
L 236.16 295.488 
L 237.235015 295.488 
L 238.31003 295.488 
L 239.385045 295.488 
L 240.46006 295.488 
L 241.535075 295.488 
L 242.61009 295.488 
L 243.685105 295.488 
L 244.76012 295.488 
L 245.835135 295.488 
L 246.910151 295.488 
L 247.985166 295.488 
L 249.060181 295.488 
L 250.135196 295.488 
L 251.210211 295.488 
L 252.285226 295.488 
L 253.360241 295.488 
L 254.435256 295.488 
L 255.510271 295.488 
L 256.585286 295.488 
L 257.660301 295.488 
L 258.735316 295.488 
L 259.810331 295.488 
L 260.885346 295.488 
L 261.960361 295.488 
L 263.035376 295.488 
L 264.110391 295.488 
L 265.185406 295.488 
L 266.260421 295.488 
L 267.335436 295.488 
L 268.410452 295.488 
L 269.485467 295.488 
L 270.560482 295.488 
L 271.635497 295.488 
L 272.710512 295.488 
L 273.785527 295.488 
L 274.860542 295.488 
L 275.935557 295.488 
L 277.010572 295.488 
L 278.085587 295.488 
L 279.160602 295.488 
L 280.235617 295.488 
L 281.310632 295.488 
L 282.385647 295.488 
L 283.460662 295.488 
L 284.535677 295.488 
L 285.610692 295.488 
L 286.685707 295.488 
L 287.760722 295.488 
L 288.835738 295.488 
L 289.910753 295.488 
L 290.985768 295.488 
L 292.060783 295.488 
L 293.135798 295.488 
L 294.210813 295.488 
L 295.285828 295.488 
L 296.360843 295.488 
L 297.435858 295.488 
L 298.510873 295.488 
L 299.585888 295.488 
L 300.660903 295.488 
L 301.735918 295.488 
L 302.810933 295.488 
L 303.885948 295.488 
L 304.960963 295.488 
L 306.035978 295.488 
L 307.110993 295.488 
L 308.186008 295.488 
L 309.261023 295.488 
L 310.336039 295.488 
L 311.411054 295.488 
L 312.486069 295.488 
L 313.561084 295.488 
L 314.636099 295.488 
L 315.711114 295.488 
L 316.786129 295.488 
L 317.861144 295.488 
L 318.936159 295.488 
L 320.011174 295.488 
L 321.086189 295.488 
L 322.161204 295.488 
L 323.236219 295.488 
L 324.311234 295.488 
L 325.386249 295.488 
L 326.461264 295.488 
L 327.536279 295.488 
L 328.611294 295.488 
L 329.686309 295.488 
L 330.761325 295.488 
L 331.83634 295.488 
L 332.911355 295.488 
L 333.98637 295.488 
L 335.061385 295.488 
L 336.1364 295.488 
L 337.211415 295.488 
L 338.28643 295.488 
L 339.361445 295.488 
L 340.43646 295.488 
L 341.511475 295.488 
L 342.58649 295.488 
L 343.661505 295.488 
L 344.73652 295.488 
L 345.811535 295.488 
L 346.88655 295.488 
L 347.961565 295.488 
L 349.03658 295.488 
L 350.111595 295.488 
L 351.18661 295.488 
L 352.261626 295.488 
L 353.336641 295.488 
L 354.411656 295.488 
L 355.486671 295.488 
L 356.561686 295.488 
L 357.636701 295.488 
L 358.711716 295.488 
L 359.786731 295.488 
L 360.861746 295.488 
L 361.936761 295.488 
L 363.011776 295.488 
L 364.086791 295.488 
L 365.161806 295.488 
L 366.236821 295.488 
L 367.311836 295.488 
L 368.386851 295.488 
L 369.461866 295.488 
L 370.536881 295.488 
L 371.611896 295.488 
L 372.686911 295.488 
L 373.761927 295.488 
L 374.836942 295.488 
L 375.911957 295.488 
L 376.986972 295.488 
L 378.061987 295.488 
L 379.137002 295.488 
L 380.212017 295.488 
L 381.287032 295.488 
L 382.362047 295.488 
L 383.437062 295.488 
L 384.512077 295.488 
L 385.587092 295.488 
L 386.662107 295.488 
L 387.737122 295.488 
L 388.812137 295.488 
L 389.887152 295.488 
L 390.962167 295.488 
L 392.037182 295.488 
L 393.112197 295.488 
L 394.187213 295.488 
L 395.262228 295.488 
L 396.337243 295.488 
L 397.412258 295.488 
L 398.487273 295.488 
L 398.487273 295.48505 
L 398.487273 295.48505 
L 397.412258 295.483226 
L 396.337243 295.480546 
L 395.262228 295.476771 
L 394.187213 295.471678 
L 393.112197 295.465107 
L 392.037182 295.457016 
L 390.962167 295.447536 
L 389.887152 295.437007 
L 388.812137 295.425989 
L 387.737122 295.415225 
L 386.662107 295.405572 
L 385.587092 295.397881 
L 384.512077 295.392877 
L 383.437062 295.391033 
L 382.362047 295.39249 
L 381.287032 295.397031 
L 380.212017 295.40412 
L 379.137002 295.412991 
L 378.061987 295.422777 
L 376.986972 295.432642 
L 375.911957 295.441893 
L 374.836942 295.450052 
L 373.761927 295.456873 
L 372.686911 295.462324 
L 371.611896 295.466531 
L 370.536881 295.469711 
L 369.461866 295.472104 
L 368.386851 295.473924 
L 367.311836 295.475331 
L 366.236821 295.476426 
L 365.161806 295.477257 
L 364.086791 295.477847 
L 363.011776 295.478211 
L 361.936761 295.478378 
L 360.861746 295.478399 
L 359.786731 295.478347 
L 358.711716 295.478307 
L 357.636701 295.478364 
L 356.561686 295.478587 
L 355.486671 295.479014 
L 354.411656 295.479653 
L 353.336641 295.480477 
L 352.261626 295.481433 
L 351.18661 295.482456 
L 350.111595 295.483476 
L 349.03658 295.484435 
L 347.961565 295.485288 
L 346.88655 295.486008 
L 345.811535 295.486588 
L 344.73652 295.487034 
L 343.661505 295.487362 
L 342.58649 295.487594 
L 341.511475 295.48775 
L 340.43646 295.487852 
L 339.361445 295.487915 
L 338.28643 295.487953 
L 337.211415 295.487975 
L 336.1364 295.487987 
L 335.061385 295.487994 
L 333.98637 295.487997 
L 332.911355 295.487999 
L 331.83634 295.487999 
L 330.761325 295.488 
L 329.686309 295.488 
L 328.611294 295.488 
L 327.536279 295.488 
L 326.461264 295.488 
L 325.386249 295.488 
L 324.311234 295.488 
L 323.236219 295.488 
L 322.161204 295.488 
L 321.086189 295.488 
L 320.011174 295.488 
L 318.936159 295.488 
L 317.861144 295.488 
L 316.786129 295.488 
L 315.711114 295.488 
L 314.636099 295.488 
L 313.561084 295.488 
L 312.486069 295.488 
L 311.411054 295.488 
L 310.336039 295.488 
L 309.261023 295.488 
L 308.186008 295.488 
L 307.110993 295.488 
L 306.035978 295.488 
L 304.960963 295.488 
L 303.885948 295.488 
L 302.810933 295.488 
L 301.735918 295.488 
L 300.660903 295.487999 
L 299.585888 295.487998 
L 298.510873 295.487995 
L 297.435858 295.48799 
L 296.360843 295.48798 
L 295.285828 295.487961 
L 294.210813 295.487928 
L 293.135798 295.487872 
L 292.060783 295.487781 
L 290.985768 295.487637 
L 289.910753 295.487419 
L 288.835738 295.487104 
L 287.760722 295.486667 
L 286.685707 295.486086 
L 285.610692 295.485348 
L 284.535677 295.484454 
L 283.460662 295.483426 
L 282.385647 295.482306 
L 281.310632 295.481161 
L 280.235617 295.480074 
L 279.160602 295.479137 
L 278.085587 295.478437 
L 277.010572 295.478044 
L 275.935557 295.477998 
L 274.860542 295.478304 
L 273.785527 295.47893 
L 272.710512 295.479811 
L 271.635497 295.480862 
L 270.560482 295.481987 
L 269.485467 295.483095 
L 268.410452 295.484105 
L 267.335436 295.484953 
L 266.260421 295.485592 
L 265.185406 295.485984 
L 264.110391 295.486098 
L 263.035376 295.485903 
L 261.960361 295.485365 
L 260.885346 295.484449 
L 259.810331 295.483125 
L 258.735316 295.481382 
L 257.660301 295.479237 
L 256.585286 295.476748 
L 255.510271 295.474023 
L 254.435256 295.471214 
L 253.360241 295.468506 
L 252.285226 295.466088 
L 251.210211 295.464126 
L 250.135196 295.462728 
L 249.060181 295.461921 
L 247.985166 295.461637 
L 246.910151 295.461728 
L 245.835135 295.461987 
L 244.76012 295.462196 
L 243.685105 295.462165 
L 242.61009 295.461781 
L 241.535075 295.461027 
L 240.46006 295.459986 
L 239.385045 295.458822 
L 238.31003 295.457736 
L 237.235015 295.456918 
L 236.16 295.456496 
L 235.084985 295.456506 
L 234.00997 295.456875 
L 232.934955 295.457445 
L 231.85994 295.458002 
L 230.784925 295.458337 
L 229.70991 295.458292 
L 228.634895 295.457803 
L 227.55988 295.45692 
L 226.484865 295.455797 
L 225.409849 295.454653 
L 224.334834 295.453727 
L 223.259819 295.453215 
L 222.184804 295.453224 
L 221.109789 295.45375 
L 220.034774 295.454671 
L 218.959759 295.455785 
L 217.884744 295.456852 
L 216.809729 295.457653 
L 215.734714 295.458043 
L 214.659699 295.457982 
L 213.584684 295.457541 
L 212.509669 295.456881 
L 211.434654 295.45621 
L 210.359639 295.455726 
L 209.284624 295.455572 
L 208.209609 295.45579 
L 207.134594 295.456319 
L 206.059579 295.457003 
L 204.984564 295.457637 
L 203.909548 295.458015 
L 202.834533 295.457982 
L 201.759518 295.457476 
L 200.684503 295.456542 
L 199.609488 295.455319 
L 198.534473 295.454 
L 197.459458 295.452778 
L 196.384443 295.451793 
L 195.309428 295.451079 
L 194.234413 295.450557 
L 193.159398 295.450038 
L 192.084383 295.449273 
L 191.009368 295.448015 
L 189.934353 295.44609 
L 188.859338 295.443459 
L 187.784323 295.440243 
L 186.709308 295.436718 
L 185.634293 295.433265 
L 184.559278 295.430291 
L 183.484262 295.428141 
L 182.409247 295.427011 
L 181.334232 295.4269 
L 180.259217 295.427604 
L 179.184202 295.428753 
L 178.109187 295.429899 
L 177.034172 295.430613 
L 175.959157 295.43059 
L 174.884142 295.429718 
L 173.809127 295.428106 
L 172.734112 295.42605 
L 171.659097 295.423967 
L 170.584082 295.422282 
L 169.509067 295.421325 
L 168.434052 295.421247 
L 167.359037 295.421976 
L 166.284022 295.423232 
L 165.209007 295.424598 
L 164.133992 295.42562 
L 163.058977 295.425918 
L 161.983961 295.425285 
L 160.908946 295.423736 
L 159.833931 295.421505 
L 158.758916 295.418984 
L 157.683901 295.416622 
L 156.608886 295.414804 
L 155.533871 295.413749 
L 154.458856 295.413439 
L 153.383841 295.413618 
L 152.308826 295.413852 
L 151.233811 295.413629 
L 150.158796 295.412503 
L 149.083781 295.410211 
L 148.008766 295.406761 
L 146.933751 295.402453 
L 145.858736 295.397829 
L 144.783721 295.393556 
L 143.708706 295.390277 
L 142.633691 295.388459 
L 141.558675 295.388279 
L 140.48366 295.38957 
L 139.408645 295.391858 
L 138.33363 295.394457 
L 137.258615 295.396622 
L 136.1836 295.397698 
L 135.108585 295.397245 
L 134.03357 295.395088 
L 132.958555 295.39128 
L 131.88354 295.385985 
L 130.808525 295.379308 
L 129.73351 295.371118 
L 128.658495 295.360916 
L 127.58348 295.347807 
L 126.508465 295.330607 
L 125.43345 295.308075 
L 124.358435 295.279253 
L 123.28342 295.243823 
L 122.208405 295.202398 
L 121.13339 295.156636 
L 120.058374 295.109114 
L 118.983359 295.062915 
L 117.908344 295.020989 
L 116.833329 294.985351 
L 115.758314 294.956235 
L 114.683299 294.931288 
L 113.608284 294.904726 
L 112.533269 294.866211 
L 111.458254 294.798909 
L 110.383239 294.67589 
L 109.308224 294.453826 
L 108.233209 294.06296 
L 107.158194 293.392718 
L 106.083179 292.273427 
L 105.008164 290.456374 
L 103.933149 287.596899 
L 102.858134 283.247871 
L 101.783119 276.872882 
L 100.708104 267.888461 
L 99.633089 255.741404 
L 98.558073 240.019963 
L 97.483058 220.586893 
L 96.408043 197.710178 
L 95.333028 172.15776 
L 94.258013 145.220128 
L 93.182998 118.63288 
L 92.107983 94.390893 
L 91.032968 74.473197 
L 89.957953 60.52565 
L 88.882938 53.568 
L 87.807923 53.795082 
L 86.732908 60.525521 
L 85.657893 72.31847 
L 84.582878 87.238378 
L 83.507863 103.21118 
L 82.432848 118.393238 
L 81.357833 131.472875 
L 80.282818 141.843168 
L 79.207803 149.617819 
L 78.132787 155.499798 
L 77.057772 160.545081 
L 75.982757 165.883439 
L 74.907742 172.461253 
L 73.832727 180.85868 
z
" clip-path="url(#p7d58098fbd)" style="fill: #1f77b4; fill-opacity: 0.25"/>
   </g>
   <g id="PolyCollection_2">
    <path d="M 73.832727 172.141252 
L 73.832727 295.488 
L 74.907742 295.488 
L 75.982757 295.488 
L 77.057772 295.488 
L 78.132787 295.488 
L 79.207803 295.488 
L 80.282818 295.488 
L 81.357833 295.488 
L 82.432848 295.488 
L 83.507863 295.488 
L 84.582878 295.488 
L 85.657893 295.488 
L 86.732908 295.488 
L 87.807923 295.488 
L 88.882938 295.488 
L 89.957953 295.488 
L 91.032968 295.488 
L 92.107983 295.488 
L 93.182998 295.488 
L 94.258013 295.488 
L 95.333028 295.488 
L 96.408043 295.488 
L 97.483058 295.488 
L 98.558073 295.488 
L 99.633089 295.488 
L 100.708104 295.488 
L 101.783119 295.488 
L 102.858134 295.488 
L 103.933149 295.488 
L 105.008164 295.488 
L 106.083179 295.488 
L 107.158194 295.488 
L 108.233209 295.488 
L 109.308224 295.488 
L 110.383239 295.488 
L 111.458254 295.488 
L 112.533269 295.488 
L 113.608284 295.488 
L 114.683299 295.488 
L 115.758314 295.488 
L 116.833329 295.488 
L 117.908344 295.488 
L 118.983359 295.488 
L 120.058374 295.488 
L 121.13339 295.488 
L 122.208405 295.488 
L 123.28342 295.488 
L 124.358435 295.488 
L 125.43345 295.488 
L 126.508465 295.488 
L 127.58348 295.488 
L 128.658495 295.488 
L 129.73351 295.488 
L 130.808525 295.488 
L 131.88354 295.488 
L 132.958555 295.488 
L 134.03357 295.488 
L 135.108585 295.488 
L 136.1836 295.488 
L 137.258615 295.488 
L 138.33363 295.488 
L 139.408645 295.488 
L 140.48366 295.488 
L 141.558675 295.488 
L 142.633691 295.488 
L 143.708706 295.488 
L 144.783721 295.488 
L 145.858736 295.488 
L 146.933751 295.488 
L 148.008766 295.488 
L 149.083781 295.488 
L 150.158796 295.488 
L 151.233811 295.488 
L 152.308826 295.488 
L 153.383841 295.488 
L 154.458856 295.488 
L 155.533871 295.488 
L 156.608886 295.488 
L 157.683901 295.488 
L 158.758916 295.488 
L 159.833931 295.488 
L 160.908946 295.488 
L 161.983961 295.488 
L 163.058977 295.488 
L 164.133992 295.488 
L 165.209007 295.488 
L 166.284022 295.488 
L 167.359037 295.488 
L 168.434052 295.488 
L 169.509067 295.488 
L 170.584082 295.488 
L 171.659097 295.488 
L 172.734112 295.488 
L 173.809127 295.488 
L 174.884142 295.488 
L 175.959157 295.488 
L 177.034172 295.488 
L 178.109187 295.488 
L 179.184202 295.488 
L 180.259217 295.488 
L 181.334232 295.488 
L 182.409247 295.488 
L 183.484262 295.488 
L 184.559278 295.488 
L 185.634293 295.488 
L 186.709308 295.488 
L 187.784323 295.488 
L 188.859338 295.488 
L 189.934353 295.488 
L 191.009368 295.488 
L 192.084383 295.488 
L 193.159398 295.488 
L 194.234413 295.488 
L 195.309428 295.488 
L 196.384443 295.488 
L 197.459458 295.488 
L 198.534473 295.488 
L 199.609488 295.488 
L 200.684503 295.488 
L 201.759518 295.488 
L 202.834533 295.488 
L 203.909548 295.488 
L 204.984564 295.488 
L 206.059579 295.488 
L 207.134594 295.488 
L 208.209609 295.488 
L 209.284624 295.488 
L 210.359639 295.488 
L 211.434654 295.488 
L 212.509669 295.488 
L 213.584684 295.488 
L 214.659699 295.488 
L 215.734714 295.488 
L 216.809729 295.488 
L 217.884744 295.488 
L 218.959759 295.488 
L 220.034774 295.488 
L 221.109789 295.488 
L 222.184804 295.488 
L 223.259819 295.488 
L 224.334834 295.488 
L 225.409849 295.488 
L 226.484865 295.488 
L 227.55988 295.488 
L 228.634895 295.488 
L 229.70991 295.488 
L 230.784925 295.488 
L 231.85994 295.488 
L 232.934955 295.488 
L 234.00997 295.488 
L 235.084985 295.488 
L 236.16 295.488 
L 237.235015 295.488 
L 238.31003 295.488 
L 239.385045 295.488 
L 240.46006 295.488 
L 241.535075 295.488 
L 242.61009 295.488 
L 243.685105 295.488 
L 244.76012 295.488 
L 245.835135 295.488 
L 246.910151 295.488 
L 247.985166 295.488 
L 249.060181 295.488 
L 250.135196 295.488 
L 251.210211 295.488 
L 252.285226 295.488 
L 253.360241 295.488 
L 254.435256 295.488 
L 255.510271 295.488 
L 256.585286 295.488 
L 257.660301 295.488 
L 258.735316 295.488 
L 259.810331 295.488 
L 260.885346 295.488 
L 261.960361 295.488 
L 263.035376 295.488 
L 264.110391 295.488 
L 265.185406 295.488 
L 266.260421 295.488 
L 267.335436 295.488 
L 268.410452 295.488 
L 269.485467 295.488 
L 270.560482 295.488 
L 271.635497 295.488 
L 272.710512 295.488 
L 273.785527 295.488 
L 274.860542 295.488 
L 275.935557 295.488 
L 277.010572 295.488 
L 278.085587 295.488 
L 279.160602 295.488 
L 280.235617 295.488 
L 281.310632 295.488 
L 282.385647 295.488 
L 283.460662 295.488 
L 284.535677 295.488 
L 285.610692 295.488 
L 286.685707 295.488 
L 287.760722 295.488 
L 288.835738 295.488 
L 289.910753 295.488 
L 290.985768 295.488 
L 292.060783 295.488 
L 293.135798 295.488 
L 294.210813 295.488 
L 295.285828 295.488 
L 296.360843 295.488 
L 297.435858 295.488 
L 298.510873 295.488 
L 299.585888 295.488 
L 300.660903 295.488 
L 301.735918 295.488 
L 302.810933 295.488 
L 303.885948 295.488 
L 304.960963 295.488 
L 306.035978 295.488 
L 307.110993 295.488 
L 308.186008 295.488 
L 309.261023 295.488 
L 310.336039 295.488 
L 311.411054 295.488 
L 312.486069 295.488 
L 313.561084 295.488 
L 314.636099 295.488 
L 315.711114 295.488 
L 316.786129 295.488 
L 317.861144 295.488 
L 318.936159 295.488 
L 320.011174 295.488 
L 321.086189 295.488 
L 322.161204 295.488 
L 323.236219 295.488 
L 324.311234 295.488 
L 325.386249 295.488 
L 326.461264 295.488 
L 327.536279 295.488 
L 328.611294 295.488 
L 329.686309 295.488 
L 330.761325 295.488 
L 331.83634 295.488 
L 332.911355 295.488 
L 333.98637 295.488 
L 335.061385 295.488 
L 336.1364 295.488 
L 337.211415 295.488 
L 338.28643 295.488 
L 339.361445 295.488 
L 340.43646 295.488 
L 341.511475 295.488 
L 342.58649 295.488 
L 343.661505 295.488 
L 344.73652 295.488 
L 345.811535 295.488 
L 346.88655 295.488 
L 347.961565 295.488 
L 349.03658 295.488 
L 350.111595 295.488 
L 351.18661 295.488 
L 352.261626 295.488 
L 353.336641 295.488 
L 354.411656 295.488 
L 355.486671 295.488 
L 356.561686 295.488 
L 357.636701 295.488 
L 358.711716 295.488 
L 359.786731 295.488 
L 360.861746 295.488 
L 361.936761 295.488 
L 363.011776 295.488 
L 364.086791 295.488 
L 365.161806 295.488 
L 366.236821 295.488 
L 367.311836 295.488 
L 368.386851 295.488 
L 369.461866 295.488 
L 370.536881 295.488 
L 371.611896 295.488 
L 372.686911 295.488 
L 373.761927 295.488 
L 374.836942 295.488 
L 375.911957 295.488 
L 376.986972 295.488 
L 378.061987 295.488 
L 379.137002 295.488 
L 380.212017 295.488 
L 381.287032 295.488 
L 382.362047 295.488 
L 383.437062 295.488 
L 384.512077 295.488 
L 385.587092 295.488 
L 386.662107 295.488 
L 387.737122 295.488 
L 388.812137 295.488 
L 389.887152 295.488 
L 390.962167 295.488 
L 392.037182 295.488 
L 393.112197 295.488 
L 394.187213 295.488 
L 395.262228 295.488 
L 396.337243 295.488 
L 397.412258 295.488 
L 398.487273 295.488 
L 398.487273 295.468928 
L 398.487273 295.468928 
L 397.412258 295.466074 
L 396.337243 295.462704 
L 395.262228 295.458519 
L 394.187213 295.453179 
L 393.112197 295.44638 
L 392.037182 295.43793 
L 390.962167 295.427847 
L 389.887152 295.416419 
L 388.812137 295.404236 
L 387.737122 295.392152 
L 386.662107 295.381196 
L 385.587092 295.372423 
L 384.512077 295.366743 
L 383.437062 295.364768 
L 382.362047 295.366695 
L 381.287032 295.372271 
L 380.212017 295.380841 
L 379.137002 295.391464 
L 378.061987 295.403077 
L 376.986972 295.414668 
L 375.911957 295.425419 
L 374.836942 295.434795 
L 373.761927 295.442571 
L 372.686911 295.448793 
L 371.611896 295.453707 
L 370.536881 295.457658 
L 369.461866 295.461 
L 368.386851 295.464028 
L 367.311836 295.466937 
L 366.236821 295.469815 
L 365.161806 295.47266 
L 364.086791 295.475407 
L 363.011776 295.477969 
L 361.936761 295.480262 
L 360.861746 295.482226 
L 359.786731 295.483837 
L 358.711716 295.485101 
L 357.636701 295.486051 
L 356.561686 295.486735 
L 355.486671 295.487207 
L 354.411656 295.487521 
L 353.336641 295.48772 
L 352.261626 295.487843 
L 351.18661 295.487914 
L 350.111595 295.487955 
L 349.03658 295.487977 
L 347.961565 295.487989 
L 346.88655 295.487995 
L 345.811535 295.487998 
L 344.73652 295.487999 
L 343.661505 295.488 
L 342.58649 295.488 
L 341.511475 295.488 
L 340.43646 295.488 
L 339.361445 295.488 
L 338.28643 295.488 
L 337.211415 295.488 
L 336.1364 295.488 
L 335.061385 295.488 
L 333.98637 295.488 
L 332.911355 295.488 
L 331.83634 295.488 
L 330.761325 295.488 
L 329.686309 295.488 
L 328.611294 295.488 
L 327.536279 295.488 
L 326.461264 295.488 
L 325.386249 295.488 
L 324.311234 295.488 
L 323.236219 295.488 
L 322.161204 295.488 
L 321.086189 295.488 
L 320.011174 295.488 
L 318.936159 295.488 
L 317.861144 295.488 
L 316.786129 295.488 
L 315.711114 295.488 
L 314.636099 295.488 
L 313.561084 295.488 
L 312.486069 295.488 
L 311.411054 295.488 
L 310.336039 295.488 
L 309.261023 295.488 
L 308.186008 295.488 
L 307.110993 295.488 
L 306.035978 295.488 
L 304.960963 295.488 
L 303.885948 295.488 
L 302.810933 295.488 
L 301.735918 295.488 
L 300.660903 295.488 
L 299.585888 295.488 
L 298.510873 295.488 
L 297.435858 295.488 
L 296.360843 295.488 
L 295.285828 295.488 
L 294.210813 295.488 
L 293.135798 295.488 
L 292.060783 295.488 
L 290.985768 295.488 
L 289.910753 295.488 
L 288.835738 295.488 
L 287.760722 295.487999 
L 286.685707 295.487997 
L 285.610692 295.487994 
L 284.535677 295.487988 
L 283.460662 295.487977 
L 282.385647 295.487955 
L 281.310632 295.487916 
L 280.235617 295.487847 
L 279.160602 295.487734 
L 278.085587 295.487551 
L 277.010572 295.48727 
L 275.935557 295.486856 
L 274.860542 295.486267 
L 273.785527 295.485467 
L 272.710512 295.484425 
L 271.635497 295.483126 
L 270.560482 295.481576 
L 269.485467 295.479808 
L 268.410452 295.477876 
L 267.335436 295.475849 
L 266.260421 295.47379 
L 265.185406 295.471732 
L 264.110391 295.469656 
L 263.035376 295.467471 
L 261.960361 295.465009 
L 260.885346 295.462038 
L 259.810331 295.458305 
L 258.735316 295.453587 
L 257.660301 295.447755 
L 256.585286 295.440841 
L 255.510271 295.433069 
L 254.435256 295.424855 
L 253.360241 295.416765 
L 252.285226 295.409422 
L 251.210211 295.403393 
L 250.135196 295.399062 
L 249.060181 295.396542 
L 247.985166 295.395626 
L 246.910151 295.395818 
L 245.835135 295.396426 
L 244.76012 295.396708 
L 243.685105 295.396037 
L 242.61009 295.394041 
L 241.535075 295.390693 
L 240.46006 295.386318 
L 239.385045 295.381509 
L 238.31003 295.376978 
L 237.235015 295.373378 
L 236.16 295.37112 
L 235.084985 295.370262 
L 234.00997 295.370476 
L 232.934955 295.371112 
L 231.85994 295.371357 
L 230.784925 295.370435 
L 229.70991 295.367815 
L 228.634895 295.363362 
L 227.55988 295.357403 
L 226.484865 295.350673 
L 225.409849 295.344164 
L 224.334834 295.338901 
L 223.259819 295.335702 
L 222.184804 295.334979 
L 221.109789 295.336636 
L 220.034774 295.340081 
L 218.959759 295.344359 
L 217.884744 295.348375 
L 216.809729 295.351147 
L 215.734714 295.352029 
L 214.659699 295.350853 
L 213.584684 295.347944 
L 212.509669 295.344021 
L 211.434654 295.339989 
L 210.359639 295.336688 
L 209.284624 295.334656 
L 208.209609 295.333971 
L 207.134594 295.334216 
L 206.059579 295.334569 
L 204.984564 295.334011 
L 203.909548 295.331602 
L 202.834533 295.326741 
L 201.759518 295.319363 
L 200.684503 295.31 
L 199.609488 295.299696 
L 198.534473 295.289783 
L 197.459458 295.281571 
L 196.384443 295.276022 
L 195.309428 295.273499 
L 194.234413 295.273651 
L 193.159398 295.27547 
L 192.084383 295.27751 
L 191.009368 295.278239 
L 189.934353 295.276408 
L 188.859338 295.271372 
L 187.784323 295.263274 
L 186.709308 295.253027 
L 185.634293 295.24211 
L 184.559278 295.232214 
L 183.484262 295.224814 
L 182.409247 295.220791 
L 181.334232 295.220188 
L 180.259217 295.222166 
L 179.184202 295.225192 
L 178.109187 295.227403 
L 177.034172 295.227071 
L 175.959157 295.223054 
L 174.884142 295.215118 
L 173.809127 295.204046 
L 172.734112 295.1915 
L 171.659097 295.179668 
L 170.584082 295.170773 
L 169.509067 295.166559 
L 168.434052 295.167887 
L 167.359037 295.174531 
L 166.284022 295.185235 
L 165.209007 295.197998 
L 164.133992 295.21054 
L 163.058977 295.22081 
L 161.983961 295.227421 
L 160.908946 295.229914 
L 159.833931 295.228772 
L 158.758916 295.225211 
L 157.683901 295.220776 
L 156.608886 295.216879 
L 155.533871 295.21437 
L 154.458856 295.213278 
L 153.383841 295.212772 
L 152.308826 295.211376 
L 151.233811 295.207375 
L 150.158796 295.199323 
L 149.083781 295.186528 
L 148.008766 295.169373 
L 146.933751 295.149409 
L 145.858736 295.129152 
L 144.783721 295.111649 
L 143.708706 295.099889 
L 142.633691 295.096198 
L 141.558675 295.101771 
L 140.48366 295.116423 
L 139.408645 295.138636 
L 138.33363 295.165865 
L 137.258615 295.195006 
L 136.1836 295.222918 
L 135.108585 295.246844 
L 134.03357 295.264631 
L 132.958555 295.274705 
L 131.88354 295.275809 
L 130.808525 295.266597 
L 129.73351 295.245218 
L 128.658495 295.209044 
L 127.58348 295.15469 
L 126.508465 295.078421 
L 125.43345 294.976931 
L 124.358435 294.848412 
L 123.28342 294.693665 
L 122.208405 294.51697 
L 121.13339 294.326378 
L 120.058374 294.133193 
L 118.983359 293.950555 
L 117.908344 293.79125 
L 116.833329 293.665133 
L 115.758314 293.576653 
L 114.683299 293.522994 
L 113.608284 293.493119 
L 112.533269 293.467615 
L 111.458254 293.418724 
L 110.383239 293.30938 
L 109.308224 293.089729 
L 108.233209 292.689525 
L 107.158194 292.005372 
L 106.083179 290.882955 
L 105.008164 289.096458 
L 103.933149 286.329999 
L 102.858134 282.168643 
L 101.783119 276.108516 
L 100.708104 267.595469 
L 99.633089 256.098369 
L 98.558073 241.215868 
L 97.483058 222.804869 
L 96.408043 201.10714 
L 95.333028 176.841314 
L 94.258013 151.225332 
L 93.182998 125.902383 
L 92.107983 102.762393 
L 91.032968 83.677642 
L 89.957953 70.198077 
L 88.882938 63.270729 
L 87.807923 63.050661 
L 86.732908 68.85508 
L 85.657893 79.280437 
L 84.582878 92.463008 
L 83.507863 106.427657 
L 82.432848 119.447782 
L 81.357833 130.337551 
L 80.282818 138.6158 
L 79.207803 144.513463 
L 78.132787 148.834088 
L 77.057772 152.70987 
L 75.982757 157.315827 
L 74.907742 163.608282 
L 73.832727 172.141252 
z
" clip-path="url(#p7d58098fbd)" style="fill: #ff7f0e; fill-opacity: 0.25"/>
   </g>
   <g id="PolyCollection_3">
    <path d="M 73.832727 198.578358 
L 73.832727 295.488 
L 74.907742 295.488 
L 75.982757 295.488 
L 77.057772 295.488 
L 78.132787 295.488 
L 79.207803 295.488 
L 80.282818 295.488 
L 81.357833 295.488 
L 82.432848 295.488 
L 83.507863 295.488 
L 84.582878 295.488 
L 85.657893 295.488 
L 86.732908 295.488 
L 87.807923 295.488 
L 88.882938 295.488 
L 89.957953 295.488 
L 91.032968 295.488 
L 92.107983 295.488 
L 93.182998 295.488 
L 94.258013 295.488 
L 95.333028 295.488 
L 96.408043 295.488 
L 97.483058 295.488 
L 98.558073 295.488 
L 99.633089 295.488 
L 100.708104 295.488 
L 101.783119 295.488 
L 102.858134 295.488 
L 103.933149 295.488 
L 105.008164 295.488 
L 106.083179 295.488 
L 107.158194 295.488 
L 108.233209 295.488 
L 109.308224 295.488 
L 110.383239 295.488 
L 111.458254 295.488 
L 112.533269 295.488 
L 113.608284 295.488 
L 114.683299 295.488 
L 115.758314 295.488 
L 116.833329 295.488 
L 117.908344 295.488 
L 118.983359 295.488 
L 120.058374 295.488 
L 121.13339 295.488 
L 122.208405 295.488 
L 123.28342 295.488 
L 124.358435 295.488 
L 125.43345 295.488 
L 126.508465 295.488 
L 127.58348 295.488 
L 128.658495 295.488 
L 129.73351 295.488 
L 130.808525 295.488 
L 131.88354 295.488 
L 132.958555 295.488 
L 134.03357 295.488 
L 135.108585 295.488 
L 136.1836 295.488 
L 137.258615 295.488 
L 138.33363 295.488 
L 139.408645 295.488 
L 140.48366 295.488 
L 141.558675 295.488 
L 142.633691 295.488 
L 143.708706 295.488 
L 144.783721 295.488 
L 145.858736 295.488 
L 146.933751 295.488 
L 148.008766 295.488 
L 149.083781 295.488 
L 150.158796 295.488 
L 151.233811 295.488 
L 152.308826 295.488 
L 153.383841 295.488 
L 154.458856 295.488 
L 155.533871 295.488 
L 156.608886 295.488 
L 157.683901 295.488 
L 158.758916 295.488 
L 159.833931 295.488 
L 160.908946 295.488 
L 161.983961 295.488 
L 163.058977 295.488 
L 164.133992 295.488 
L 165.209007 295.488 
L 166.284022 295.488 
L 167.359037 295.488 
L 168.434052 295.488 
L 169.509067 295.488 
L 170.584082 295.488 
L 171.659097 295.488 
L 172.734112 295.488 
L 173.809127 295.488 
L 174.884142 295.488 
L 175.959157 295.488 
L 177.034172 295.488 
L 178.109187 295.488 
L 179.184202 295.488 
L 180.259217 295.488 
L 181.334232 295.488 
L 182.409247 295.488 
L 183.484262 295.488 
L 184.559278 295.488 
L 185.634293 295.488 
L 186.709308 295.488 
L 187.784323 295.488 
L 188.859338 295.488 
L 189.934353 295.488 
L 191.009368 295.488 
L 192.084383 295.488 
L 193.159398 295.488 
L 194.234413 295.488 
L 195.309428 295.488 
L 196.384443 295.488 
L 197.459458 295.488 
L 198.534473 295.488 
L 199.609488 295.488 
L 200.684503 295.488 
L 201.759518 295.488 
L 202.834533 295.488 
L 203.909548 295.488 
L 204.984564 295.488 
L 206.059579 295.488 
L 207.134594 295.488 
L 208.209609 295.488 
L 209.284624 295.488 
L 210.359639 295.488 
L 211.434654 295.488 
L 212.509669 295.488 
L 213.584684 295.488 
L 214.659699 295.488 
L 215.734714 295.488 
L 216.809729 295.488 
L 217.884744 295.488 
L 218.959759 295.488 
L 220.034774 295.488 
L 221.109789 295.488 
L 222.184804 295.488 
L 223.259819 295.488 
L 224.334834 295.488 
L 225.409849 295.488 
L 226.484865 295.488 
L 227.55988 295.488 
L 228.634895 295.488 
L 229.70991 295.488 
L 230.784925 295.488 
L 231.85994 295.488 
L 232.934955 295.488 
L 234.00997 295.488 
L 235.084985 295.488 
L 236.16 295.488 
L 237.235015 295.488 
L 238.31003 295.488 
L 239.385045 295.488 
L 240.46006 295.488 
L 241.535075 295.488 
L 242.61009 295.488 
L 243.685105 295.488 
L 244.76012 295.488 
L 245.835135 295.488 
L 246.910151 295.488 
L 247.985166 295.488 
L 249.060181 295.488 
L 250.135196 295.488 
L 251.210211 295.488 
L 252.285226 295.488 
L 253.360241 295.488 
L 254.435256 295.488 
L 255.510271 295.488 
L 256.585286 295.488 
L 257.660301 295.488 
L 258.735316 295.488 
L 259.810331 295.488 
L 260.885346 295.488 
L 261.960361 295.488 
L 263.035376 295.488 
L 264.110391 295.488 
L 265.185406 295.488 
L 266.260421 295.488 
L 267.335436 295.488 
L 268.410452 295.488 
L 269.485467 295.488 
L 270.560482 295.488 
L 271.635497 295.488 
L 272.710512 295.488 
L 273.785527 295.488 
L 274.860542 295.488 
L 275.935557 295.488 
L 277.010572 295.488 
L 278.085587 295.488 
L 279.160602 295.488 
L 280.235617 295.488 
L 281.310632 295.488 
L 282.385647 295.488 
L 283.460662 295.488 
L 284.535677 295.488 
L 285.610692 295.488 
L 286.685707 295.488 
L 287.760722 295.488 
L 288.835738 295.488 
L 289.910753 295.488 
L 290.985768 295.488 
L 292.060783 295.488 
L 293.135798 295.488 
L 294.210813 295.488 
L 295.285828 295.488 
L 296.360843 295.488 
L 297.435858 295.488 
L 298.510873 295.488 
L 299.585888 295.488 
L 300.660903 295.488 
L 301.735918 295.488 
L 302.810933 295.488 
L 303.885948 295.488 
L 304.960963 295.488 
L 306.035978 295.488 
L 307.110993 295.488 
L 308.186008 295.488 
L 309.261023 295.488 
L 310.336039 295.488 
L 311.411054 295.488 
L 312.486069 295.488 
L 313.561084 295.488 
L 314.636099 295.488 
L 315.711114 295.488 
L 316.786129 295.488 
L 317.861144 295.488 
L 318.936159 295.488 
L 320.011174 295.488 
L 321.086189 295.488 
L 322.161204 295.488 
L 323.236219 295.488 
L 324.311234 295.488 
L 325.386249 295.488 
L 326.461264 295.488 
L 327.536279 295.488 
L 328.611294 295.488 
L 329.686309 295.488 
L 330.761325 295.488 
L 331.83634 295.488 
L 332.911355 295.488 
L 333.98637 295.488 
L 335.061385 295.488 
L 336.1364 295.488 
L 337.211415 295.488 
L 338.28643 295.488 
L 339.361445 295.488 
L 340.43646 295.488 
L 341.511475 295.488 
L 342.58649 295.488 
L 343.661505 295.488 
L 344.73652 295.488 
L 345.811535 295.488 
L 346.88655 295.488 
L 347.961565 295.488 
L 349.03658 295.488 
L 350.111595 295.488 
L 351.18661 295.488 
L 352.261626 295.488 
L 353.336641 295.488 
L 354.411656 295.488 
L 355.486671 295.488 
L 356.561686 295.488 
L 357.636701 295.488 
L 358.711716 295.488 
L 359.786731 295.488 
L 360.861746 295.488 
L 361.936761 295.488 
L 363.011776 295.488 
L 364.086791 295.488 
L 365.161806 295.488 
L 366.236821 295.488 
L 367.311836 295.488 
L 368.386851 295.488 
L 369.461866 295.488 
L 370.536881 295.488 
L 371.611896 295.488 
L 372.686911 295.488 
L 373.761927 295.488 
L 374.836942 295.488 
L 375.911957 295.488 
L 376.986972 295.488 
L 378.061987 295.488 
L 379.137002 295.488 
L 380.212017 295.488 
L 381.287032 295.488 
L 382.362047 295.488 
L 383.437062 295.488 
L 384.512077 295.488 
L 385.587092 295.488 
L 386.662107 295.488 
L 387.737122 295.488 
L 388.812137 295.488 
L 389.887152 295.488 
L 390.962167 295.488 
L 392.037182 295.488 
L 393.112197 295.488 
L 394.187213 295.488 
L 395.262228 295.488 
L 396.337243 295.488 
L 397.412258 295.488 
L 398.487273 295.488 
L 398.487273 295.48444 
L 398.487273 295.48444 
L 397.412258 295.48224 
L 396.337243 295.479008 
L 395.262228 295.474453 
L 394.187213 295.468309 
L 393.112197 295.460382 
L 392.037182 295.450624 
L 390.962167 295.439194 
L 389.887152 295.426504 
L 388.812137 295.413234 
L 387.737122 295.400289 
L 386.662107 295.388712 
L 385.587092 295.379548 
L 384.512077 295.373688 
L 383.437062 295.371728 
L 382.362047 295.373868 
L 381.287032 295.379873 
L 380.212017 295.389117 
L 379.137002 295.400689 
L 378.061987 295.413538 
L 376.986972 295.426626 
L 375.911957 295.43906 
L 374.836942 295.450182 
L 373.761927 295.459596 
L 372.686911 295.467156 
L 371.611896 295.472913 
L 370.536881 295.477046 
L 369.461866 295.4798 
L 368.386851 295.481426 
L 367.311836 295.482154 
L 366.236821 295.482177 
L 365.161806 295.481651 
L 364.086791 295.480711 
L 363.011776 295.479485 
L 361.936761 295.478106 
L 360.861746 295.476714 
L 359.786731 295.475454 
L 358.711716 295.474464 
L 357.636701 295.47386 
L 356.561686 295.473717 
L 355.486671 295.474061 
L 354.411656 295.474862 
L 353.336641 295.476046 
L 352.261626 295.477502 
L 351.18661 295.479102 
L 350.111595 295.480722 
L 349.03658 295.482255 
L 347.961565 295.483625 
L 346.88655 295.484785 
L 345.811535 295.48572 
L 344.73652 295.48644 
L 343.661505 295.48697 
L 342.58649 295.487344 
L 341.511475 295.487597 
L 340.43646 295.487761 
L 339.361445 295.487863 
L 338.28643 295.487924 
L 337.211415 295.48796 
L 336.1364 295.487979 
L 335.061385 295.48799 
L 333.98637 295.487995 
L 332.911355 295.487998 
L 331.83634 295.487999 
L 330.761325 295.488 
L 329.686309 295.488 
L 328.611294 295.488 
L 327.536279 295.488 
L 326.461264 295.488 
L 325.386249 295.488 
L 324.311234 295.488 
L 323.236219 295.488 
L 322.161204 295.488 
L 321.086189 295.488 
L 320.011174 295.488 
L 318.936159 295.488 
L 317.861144 295.488 
L 316.786129 295.488 
L 315.711114 295.488 
L 314.636099 295.487999 
L 313.561084 295.487999 
L 312.486069 295.487997 
L 311.411054 295.487995 
L 310.336039 295.487989 
L 309.261023 295.487979 
L 308.186008 295.487961 
L 307.110993 295.487929 
L 306.035978 295.487876 
L 304.960963 295.487791 
L 303.885948 295.487659 
L 302.810933 295.487463 
L 301.735918 295.487185 
L 300.660903 295.486806 
L 299.585888 295.486313 
L 298.510873 295.485699 
L 297.435858 295.48497 
L 296.360843 295.484149 
L 295.285828 295.483272 
L 294.210813 295.482391 
L 293.135798 295.481566 
L 292.060783 295.480856 
L 290.985768 295.480306 
L 289.910753 295.479943 
L 288.835738 295.479764 
L 287.760722 295.479741 
L 286.685707 295.479817 
L 285.610692 295.479926 
L 284.535677 295.48 
L 283.460662 295.479986 
L 282.385647 295.479859 
L 281.310632 295.479622 
L 280.235617 295.47931 
L 279.160602 295.478977 
L 278.085587 295.478683 
L 277.010572 295.478482 
L 275.935557 295.478401 
L 274.860542 295.478439 
L 273.785527 295.478563 
L 272.710512 295.478715 
L 271.635497 295.478829 
L 270.560482 295.478842 
L 269.485467 295.478713 
L 268.410452 295.47843 
L 267.335436 295.478008 
L 266.260421 295.477488 
L 265.185406 295.476916 
L 264.110391 295.476325 
L 263.035376 295.475721 
L 261.960361 295.475072 
L 260.885346 295.474308 
L 259.810331 295.473332 
L 258.735316 295.472046 
L 257.660301 295.470378 
L 256.585286 295.468314 
L 255.510271 295.465913 
L 254.435256 295.463315 
L 253.360241 295.460725 
L 252.285226 295.458385 
L 251.210211 295.456524 
L 250.135196 295.455317 
L 249.060181 295.454844 
L 247.985166 295.45507 
L 246.910151 295.45585 
L 245.835135 295.456957 
L 244.76012 295.45813 
L 243.685105 295.459126 
L 242.61009 295.459771 
L 241.535075 295.459991 
L 240.46006 295.459817 
L 239.385045 295.459373 
L 238.31003 295.458828 
L 237.235015 295.458351 
L 236.16 295.45806 
L 235.084985 295.457987 
L 234.00997 295.458069 
L 232.934955 295.458158 
L 231.85994 295.458068 
L 230.784925 295.457619 
L 229.70991 295.456694 
L 228.634895 295.455278 
L 227.55988 295.453475 
L 226.484865 295.451493 
L 225.409849 295.449601 
L 224.334834 295.448077 
L 223.259819 295.447137 
L 222.184804 295.446889 
L 221.109789 295.447302 
L 220.034774 295.448211 
L 218.959759 295.449356 
L 217.884744 295.450438 
L 216.809729 295.45119 
L 215.734714 295.451436 
L 214.659699 295.451127 
L 213.584684 295.450348 
L 212.509669 295.449289 
L 211.434654 295.44819 
L 210.359639 295.447271 
L 209.284624 295.446673 
L 208.209609 295.44641 
L 207.134594 295.446366 
L 206.059579 295.446313 
L 204.984564 295.445977 
L 203.909548 295.445104 
L 202.834533 295.443537 
L 201.759518 295.441266 
L 200.684503 295.438443 
L 199.609488 295.435358 
L 198.534473 295.432375 
L 197.459458 295.429843 
L 196.384443 295.428009 
L 195.309428 295.426944 
L 194.234413 295.42652 
L 193.159398 295.426423 
L 192.084383 295.426228 
L 191.009368 295.425495 
L 189.934353 295.423881 
L 188.859338 295.421235 
L 187.784323 295.417642 
L 186.709308 295.413414 
L 185.634293 295.409017 
L 184.559278 295.40496 
L 183.484262 295.401653 
L 182.409247 295.399297 
L 181.334232 295.397804 
L 180.259217 295.396806 
L 179.184202 295.39572 
L 178.109187 295.393893 
L 177.034172 295.390764 
L 175.959157 295.386028 
L 174.884142 295.379735 
L 173.809127 295.372322 
L 172.734112 295.364534 
L 171.659097 295.357276 
L 170.584082 295.3514 
L 169.509067 295.347502 
L 168.434052 295.345762 
L 167.359037 295.345883 
L 166.284022 295.347139 
L 165.209007 295.348536 
L 164.133992 295.349042 
L 163.058977 295.347833 
L 161.983961 295.344503 
L 160.908946 295.339168 
L 159.833931 295.332448 
L 158.758916 295.325317 
L 157.683901 295.318861 
L 156.608886 295.314003 
L 155.533871 295.311248 
L 154.458856 295.310538 
L 153.383841 295.311238 
L 152.308826 295.312268 
L 151.233811 295.312351 
L 150.158796 295.310315 
L 149.083781 295.305368 
L 148.008766 295.29727 
L 146.933751 295.286351 
L 145.858736 295.273344 
L 144.783721 295.259084 
L 143.708706 295.24413 
L 142.633691 295.228414 
L 141.558675 295.211039 
L 140.48366 295.190288 
L 139.408645 295.163923 
L 138.33363 295.129703 
L 137.258615 295.086075 
L 136.1836 295.032843 
L 135.108585 294.971672 
L 134.03357 294.906261 
L 132.958555 294.842074 
L 131.88354 294.785659 
L 130.808525 294.743638 
L 129.73351 294.721573 
L 128.658495 294.722933 
L 127.58348 294.748364 
L 126.508465 294.79536 
L 125.43345 294.8583 
L 124.358435 294.928663 
L 123.28342 294.995112 
L 122.208405 295.043106 
L 121.13339 295.053743 
L 120.058374 295.001699 
L 118.983359 294.852435 
L 117.908344 294.559183 
L 116.833329 294.060693 
L 115.758314 293.281047 
L 114.683299 292.132999 
L 113.608284 290.525991 
L 112.533269 288.379098 
L 111.458254 285.637597 
L 110.383239 282.28991 
L 109.308224 278.379739 
L 108.233209 274.007247 
L 107.158194 269.313737 
L 106.083179 264.447165 
L 105.008164 259.510869 
L 103.933149 254.504192 
L 102.858134 249.269723 
L 101.783119 243.465357 
L 100.708104 236.578615 
L 99.633089 227.994195 
L 98.558073 217.114111 
L 97.483058 203.514768 
L 96.408043 187.110705 
L 95.333028 168.284916 
L 94.258013 147.944866 
L 93.182998 127.474146 
L 92.107983 108.571256 
L 91.032968 92.995158 
L 89.957953 82.264423 
L 88.882938 77.374657 
L 87.807923 78.600844 
L 86.732908 85.434967 
L 85.657893 96.678264 
L 84.582878 110.670068 
L 83.507863 125.601917 
L 82.432848 139.845932 
L 81.357833 152.225401 
L 80.282818 162.172655 
L 79.207803 169.748957 
L 78.132787 175.534734 
L 77.057772 180.427157 
L 75.982757 185.399172 
L 74.907742 191.276544 
L 73.832727 198.578358 
z
" clip-path="url(#p7d58098fbd)" style="fill: #2ca02c; fill-opacity: 0.25"/>
   </g>
   <g id="PolyCollection_4">
    <path d="M 73.832727 150.304212 
L 73.832727 295.488 
L 74.907742 295.488 
L 75.982757 295.488 
L 77.057772 295.488 
L 78.132787 295.488 
L 79.207803 295.488 
L 80.282818 295.488 
L 81.357833 295.488 
L 82.432848 295.488 
L 83.507863 295.488 
L 84.582878 295.488 
L 85.657893 295.488 
L 86.732908 295.488 
L 87.807923 295.488 
L 88.882938 295.488 
L 89.957953 295.488 
L 91.032968 295.488 
L 92.107983 295.488 
L 93.182998 295.488 
L 94.258013 295.488 
L 95.333028 295.488 
L 96.408043 295.488 
L 97.483058 295.488 
L 98.558073 295.488 
L 99.633089 295.488 
L 100.708104 295.488 
L 101.783119 295.488 
L 102.858134 295.488 
L 103.933149 295.488 
L 105.008164 295.488 
L 106.083179 295.488 
L 107.158194 295.488 
L 108.233209 295.488 
L 109.308224 295.488 
L 110.383239 295.488 
L 111.458254 295.488 
L 112.533269 295.488 
L 113.608284 295.488 
L 114.683299 295.488 
L 115.758314 295.488 
L 116.833329 295.488 
L 117.908344 295.488 
L 118.983359 295.488 
L 120.058374 295.488 
L 121.13339 295.488 
L 122.208405 295.488 
L 123.28342 295.488 
L 124.358435 295.488 
L 125.43345 295.488 
L 126.508465 295.488 
L 127.58348 295.488 
L 128.658495 295.488 
L 129.73351 295.488 
L 130.808525 295.488 
L 131.88354 295.488 
L 132.958555 295.488 
L 134.03357 295.488 
L 135.108585 295.488 
L 136.1836 295.488 
L 137.258615 295.488 
L 138.33363 295.488 
L 139.408645 295.488 
L 140.48366 295.488 
L 141.558675 295.488 
L 142.633691 295.488 
L 143.708706 295.488 
L 144.783721 295.488 
L 145.858736 295.488 
L 146.933751 295.488 
L 148.008766 295.488 
L 149.083781 295.488 
L 150.158796 295.488 
L 151.233811 295.488 
L 152.308826 295.488 
L 153.383841 295.488 
L 154.458856 295.488 
L 155.533871 295.488 
L 156.608886 295.488 
L 157.683901 295.488 
L 158.758916 295.488 
L 159.833931 295.488 
L 160.908946 295.488 
L 161.983961 295.488 
L 163.058977 295.488 
L 164.133992 295.488 
L 165.209007 295.488 
L 166.284022 295.488 
L 167.359037 295.488 
L 168.434052 295.488 
L 169.509067 295.488 
L 170.584082 295.488 
L 171.659097 295.488 
L 172.734112 295.488 
L 173.809127 295.488 
L 174.884142 295.488 
L 175.959157 295.488 
L 177.034172 295.488 
L 178.109187 295.488 
L 179.184202 295.488 
L 180.259217 295.488 
L 181.334232 295.488 
L 182.409247 295.488 
L 183.484262 295.488 
L 184.559278 295.488 
L 185.634293 295.488 
L 186.709308 295.488 
L 187.784323 295.488 
L 188.859338 295.488 
L 189.934353 295.488 
L 191.009368 295.488 
L 192.084383 295.488 
L 193.159398 295.488 
L 194.234413 295.488 
L 195.309428 295.488 
L 196.384443 295.488 
L 197.459458 295.488 
L 198.534473 295.488 
L 199.609488 295.488 
L 200.684503 295.488 
L 201.759518 295.488 
L 202.834533 295.488 
L 203.909548 295.488 
L 204.984564 295.488 
L 206.059579 295.488 
L 207.134594 295.488 
L 208.209609 295.488 
L 209.284624 295.488 
L 210.359639 295.488 
L 211.434654 295.488 
L 212.509669 295.488 
L 213.584684 295.488 
L 214.659699 295.488 
L 215.734714 295.488 
L 216.809729 295.488 
L 217.884744 295.488 
L 218.959759 295.488 
L 220.034774 295.488 
L 221.109789 295.488 
L 222.184804 295.488 
L 223.259819 295.488 
L 224.334834 295.488 
L 225.409849 295.488 
L 226.484865 295.488 
L 227.55988 295.488 
L 228.634895 295.488 
L 229.70991 295.488 
L 230.784925 295.488 
L 231.85994 295.488 
L 232.934955 295.488 
L 234.00997 295.488 
L 235.084985 295.488 
L 236.16 295.488 
L 237.235015 295.488 
L 238.31003 295.488 
L 239.385045 295.488 
L 240.46006 295.488 
L 241.535075 295.488 
L 242.61009 295.488 
L 243.685105 295.488 
L 244.76012 295.488 
L 245.835135 295.488 
L 246.910151 295.488 
L 247.985166 295.488 
L 249.060181 295.488 
L 250.135196 295.488 
L 251.210211 295.488 
L 252.285226 295.488 
L 253.360241 295.488 
L 254.435256 295.488 
L 255.510271 295.488 
L 256.585286 295.488 
L 257.660301 295.488 
L 258.735316 295.488 
L 259.810331 295.488 
L 260.885346 295.488 
L 261.960361 295.488 
L 263.035376 295.488 
L 264.110391 295.488 
L 265.185406 295.488 
L 266.260421 295.488 
L 267.335436 295.488 
L 268.410452 295.488 
L 269.485467 295.488 
L 270.560482 295.488 
L 271.635497 295.488 
L 272.710512 295.488 
L 273.785527 295.488 
L 274.860542 295.488 
L 275.935557 295.488 
L 277.010572 295.488 
L 278.085587 295.488 
L 279.160602 295.488 
L 280.235617 295.488 
L 281.310632 295.488 
L 282.385647 295.488 
L 283.460662 295.488 
L 284.535677 295.488 
L 285.610692 295.488 
L 286.685707 295.488 
L 287.760722 295.488 
L 288.835738 295.488 
L 289.910753 295.488 
L 290.985768 295.488 
L 292.060783 295.488 
L 293.135798 295.488 
L 294.210813 295.488 
L 295.285828 295.488 
L 296.360843 295.488 
L 297.435858 295.488 
L 298.510873 295.488 
L 299.585888 295.488 
L 300.660903 295.488 
L 301.735918 295.488 
L 302.810933 295.488 
L 303.885948 295.488 
L 304.960963 295.488 
L 306.035978 295.488 
L 307.110993 295.488 
L 308.186008 295.488 
L 309.261023 295.488 
L 310.336039 295.488 
L 311.411054 295.488 
L 312.486069 295.488 
L 313.561084 295.488 
L 314.636099 295.488 
L 315.711114 295.488 
L 316.786129 295.488 
L 317.861144 295.488 
L 318.936159 295.488 
L 320.011174 295.488 
L 321.086189 295.488 
L 322.161204 295.488 
L 323.236219 295.488 
L 324.311234 295.488 
L 325.386249 295.488 
L 326.461264 295.488 
L 327.536279 295.488 
L 328.611294 295.488 
L 329.686309 295.488 
L 330.761325 295.488 
L 331.83634 295.488 
L 332.911355 295.488 
L 333.98637 295.488 
L 335.061385 295.488 
L 336.1364 295.488 
L 337.211415 295.488 
L 338.28643 295.488 
L 339.361445 295.488 
L 340.43646 295.488 
L 341.511475 295.488 
L 342.58649 295.488 
L 343.661505 295.488 
L 344.73652 295.488 
L 345.811535 295.488 
L 346.88655 295.488 
L 347.961565 295.488 
L 349.03658 295.488 
L 350.111595 295.488 
L 351.18661 295.488 
L 352.261626 295.488 
L 353.336641 295.488 
L 354.411656 295.488 
L 355.486671 295.488 
L 356.561686 295.488 
L 357.636701 295.488 
L 358.711716 295.488 
L 359.786731 295.488 
L 360.861746 295.488 
L 361.936761 295.488 
L 363.011776 295.488 
L 364.086791 295.488 
L 365.161806 295.488 
L 366.236821 295.488 
L 367.311836 295.488 
L 368.386851 295.488 
L 369.461866 295.488 
L 370.536881 295.488 
L 371.611896 295.488 
L 372.686911 295.488 
L 373.761927 295.488 
L 374.836942 295.488 
L 375.911957 295.488 
L 376.986972 295.488 
L 378.061987 295.488 
L 379.137002 295.488 
L 380.212017 295.488 
L 381.287032 295.488 
L 382.362047 295.488 
L 383.437062 295.488 
L 384.512077 295.488 
L 385.587092 295.488 
L 386.662107 295.488 
L 387.737122 295.488 
L 388.812137 295.488 
L 389.887152 295.488 
L 390.962167 295.488 
L 392.037182 295.488 
L 393.112197 295.488 
L 394.187213 295.488 
L 395.262228 295.488 
L 396.337243 295.488 
L 397.412258 295.488 
L 398.487273 295.488 
L 398.487273 295.488 
L 398.487273 295.488 
L 397.412258 295.488 
L 396.337243 295.488 
L 395.262228 295.488 
L 394.187213 295.488 
L 393.112197 295.488 
L 392.037182 295.488 
L 390.962167 295.488 
L 389.887152 295.488 
L 388.812137 295.488 
L 387.737122 295.488 
L 386.662107 295.488 
L 385.587092 295.488 
L 384.512077 295.487999 
L 383.437062 295.487999 
L 382.362047 295.487997 
L 381.287032 295.487993 
L 380.212017 295.487984 
L 379.137002 295.487967 
L 378.061987 295.487931 
L 376.986972 295.487861 
L 375.911957 295.487733 
L 374.836942 295.487502 
L 373.761927 295.487106 
L 372.686911 295.486451 
L 371.611896 295.485411 
L 370.536881 295.483823 
L 369.461866 295.481498 
L 368.386851 295.478233 
L 367.311836 295.473842 
L 366.236821 295.468195 
L 365.161806 295.461261 
L 364.086791 295.453155 
L 363.011776 295.444161 
L 361.936761 295.434734 
L 360.861746 295.425468 
L 359.786731 295.417017 
L 358.711716 295.41 
L 357.636701 295.404886 
L 356.561686 295.401902 
L 355.486671 295.40097 
L 354.411656 295.401715 
L 353.336641 295.403528 
L 352.261626 295.405684 
L 351.18661 295.407488 
L 350.111595 295.408418 
L 349.03658 295.408224 
L 347.961565 295.406975 
L 346.88655 295.40502 
L 345.811535 295.402892 
L 344.73652 295.401168 
L 343.661505 295.40032 
L 342.58649 295.400595 
L 341.511475 295.401953 
L 340.43646 295.404077 
L 339.361445 295.406455 
L 338.28643 295.408506 
L 337.211415 295.409726 
L 336.1364 295.409816 
L 335.061385 295.408756 
L 333.98637 295.40681 
L 332.911355 295.404458 
L 331.83634 295.402282 
L 330.761325 295.400811 
L 329.686309 295.400396 
L 328.611294 295.401119 
L 327.536279 295.402771 
L 326.461264 295.404904 
L 325.386249 295.406943 
L 324.311234 295.408331 
L 323.236219 295.408668 
L 322.161204 295.407816 
L 321.086189 295.40593 
L 320.011174 295.40343 
L 318.936159 295.400895 
L 317.861144 295.398921 
L 316.786129 295.397977 
L 315.711114 295.398287 
L 314.636099 295.399776 
L 313.561084 295.40209 
L 312.486069 295.404678 
L 311.411054 295.406935 
L 310.336039 295.408345 
L 309.261023 295.408607 
L 308.186008 295.40771 
L 307.110993 295.405931 
L 306.035978 295.403764 
L 304.960963 295.401793 
L 303.885948 295.400547 
L 302.810933 295.400369 
L 301.735918 295.401327 
L 300.660903 295.4032 
L 299.585888 295.405533 
L 298.510873 295.407754 
L 297.435858 295.409314 
L 296.360843 295.409825 
L 295.285828 295.409163 
L 294.210813 295.407492 
L 293.135798 295.405229 
L 292.060783 295.40294 
L 290.985768 295.401202 
L 289.910753 295.400453 
L 288.835738 295.400894 
L 287.760722 295.40243 
L 286.685707 295.4047 
L 285.610692 295.407164 
L 284.535677 295.409236 
L 283.460662 295.410432 
L 282.385647 295.410483 
L 281.310632 295.409402 
L 280.235617 295.407471 
L 279.160602 295.405174 
L 278.085587 295.403061 
L 277.010572 295.401608 
L 275.935557 295.401094 
L 274.860542 295.401521 
L 273.785527 295.402614 
L 272.710512 295.403887 
L 271.635497 295.404769 
L 270.560482 295.404757 
L 269.485467 295.403559 
L 268.410452 295.401191 
L 267.335436 295.398 
L 266.260421 295.394619 
L 265.185406 295.391845 
L 264.110391 295.390485 
L 263.035376 295.391201 
L 261.960361 295.394377 
L 260.885346 295.400059 
L 259.810331 295.407955 
L 258.735316 295.417502 
L 257.660301 295.427978 
L 256.585286 295.438626 
L 255.510271 295.448764 
L 254.435256 295.457871 
L 253.360241 295.465614 
L 252.285226 295.471853 
L 251.210211 295.476602 
L 250.135196 295.479981 
L 249.060181 295.482167 
L 247.985166 295.483352 
L 246.910151 295.483715 
L 245.835135 295.483411 
L 244.76012 295.482578 
L 243.685105 295.481338 
L 242.61009 295.479817 
L 241.535075 295.478151 
L 240.46006 295.476486 
L 239.385045 295.474976 
L 238.31003 295.473771 
L 237.235015 295.472992 
L 236.16 295.472723 
L 235.084985 295.472995 
L 234.00997 295.473778 
L 232.934955 295.474993 
L 231.85994 295.476522 
L 230.784925 295.478225 
L 229.70991 295.479966 
L 228.634895 295.481626 
L 227.55988 295.483115 
L 226.484865 295.484377 
L 225.409849 295.485389 
L 224.334834 295.486154 
L 223.259819 295.486693 
L 222.184804 295.487035 
L 221.109789 295.48721 
L 220.034774 295.487247 
L 218.959759 295.487172 
L 217.884744 295.487007 
L 216.809729 295.486772 
L 215.734714 295.48649 
L 214.659699 295.486184 
L 213.584684 295.48588 
L 212.509669 295.485605 
L 211.434654 295.485384 
L 210.359639 295.485238 
L 209.284624 295.48518 
L 208.209609 295.485212 
L 207.134594 295.485326 
L 206.059579 295.485507 
L 204.984564 295.48573 
L 203.909548 295.485971 
L 202.834533 295.486207 
L 201.759518 295.486419 
L 200.684503 295.486596 
L 199.609488 295.486732 
L 198.534473 295.486829 
L 197.459458 295.486889 
L 196.384443 295.486917 
L 195.309428 295.486915 
L 194.234413 295.486883 
L 193.159398 295.486818 
L 192.084383 295.486716 
L 191.009368 295.486575 
L 189.934353 295.486394 
L 188.859338 295.486179 
L 187.784323 295.485943 
L 186.709308 295.485703 
L 185.634293 295.485481 
L 184.559278 295.485298 
L 183.484262 295.485172 
L 182.409247 295.485113 
L 181.334232 295.48512 
L 180.259217 295.485184 
L 179.184202 295.485286 
L 178.109187 295.485404 
L 177.034172 295.485514 
L 175.959157 295.485597 
L 174.884142 295.485642 
L 173.809127 295.485645 
L 172.734112 295.485609 
L 171.659097 295.485541 
L 170.584082 295.485449 
L 169.509067 295.485333 
L 168.434052 295.485187 
L 167.359037 295.484998 
L 166.284022 295.484744 
L 165.209007 295.484403 
L 164.133992 295.483957 
L 163.058977 295.483397 
L 161.983961 295.482728 
L 160.908946 295.481968 
L 159.833931 295.481142 
L 158.758916 295.480275 
L 157.683901 295.479375 
L 156.608886 295.478422 
L 155.533871 295.477364 
L 154.458856 295.476106 
L 153.383841 295.474533 
L 152.308826 295.472517 
L 151.233811 295.469955 
L 150.158796 295.466792 
L 149.083781 295.463044 
L 148.008766 295.458805 
L 146.933751 295.454225 
L 145.858736 295.449472 
L 144.783721 295.444666 
L 143.708706 295.439816 
L 142.633691 295.434757 
L 141.558675 295.429129 
L 140.48366 295.422402 
L 139.408645 295.413953 
L 138.33363 295.403201 
L 137.258615 295.38976 
L 136.1836 295.373586 
L 135.108585 295.355072 
L 134.03357 295.335051 
L 132.958555 295.314674 
L 131.88354 295.295198 
L 130.808525 295.277682 
L 129.73351 295.262689 
L 128.658495 295.250052 
L 127.58348 295.238798 
L 126.508465 295.227262 
L 125.43345 295.213412 
L 124.358435 295.195324 
L 123.28342 295.171723 
L 122.208405 295.14245 
L 121.13339 295.108747 
L 120.058374 295.073249 
L 118.983359 295.039656 
L 117.908344 295.012117 
L 116.833329 294.994404 
L 115.758314 294.988987 
L 114.683299 294.996056 
L 113.608284 295.012434 
L 112.533269 295.030121 
L 111.458254 295.033976 
L 110.383239 294.997785 
L 109.308224 294.877795 
L 108.233209 294.602854 
L 107.158194 294.060662 
L 106.083179 293.080644 
L 105.008164 291.415598 
L 103.933149 288.726495 
L 102.858134 284.577337 
L 101.783119 278.448746 
L 100.708104 269.779048 
L 99.633089 258.038482 
L 98.558073 242.835301 
L 97.483058 224.042221 
L 96.408043 201.920065 
L 95.333028 177.20634 
L 94.258013 151.134091 
L 93.182998 125.354338 
L 92.107983 101.754308 
L 91.032968 82.190275 
L 89.957953 68.181104 
L 88.882938 60.627716 
L 87.807923 59.626863 
L 86.732908 64.431743 
L 85.657893 73.579543 
L 84.582878 85.165725 
L 83.507863 97.207786 
L 82.432848 108.018371 
L 81.357833 116.505134 
L 80.282818 122.33333 
L 79.207803 125.921112 
L 78.132787 128.277618 
L 77.057772 130.72957 
L 75.982757 134.604578 
L 74.907742 140.943921 
L 73.832727 150.304212 
z
" clip-path="url(#p7d58098fbd)" style="fill: #d62728; fill-opacity: 0.25"/>
   </g>
   <g id="matplotlib.axis_1">
    <g id="xtick_1">
     <g id="line2d_1">
      <path d="M 73.832727 307.584 
L 73.832727 41.472 
" clip-path="url(#p7d58098fbd)" style="fill: none; stroke-dasharray: 1.85,0.8; stroke-dashoffset: 0; stroke: #b0b0b0; stroke-width: 0.5"/>
     </g>
     <g id="line2d_2">
      <defs>
       <path id="m38360849e0" d="M 0 0 
L 0 3.5 
" style="stroke: #000000; stroke-width: 0.8"/>
      </defs>
      <g>
       <use xlink:href="#m38360849e0" x="73.832727" y="307.584" style="stroke: #000000; stroke-width: 0.8"/>
      </g>
     </g>
     <g id="text_1">
      <!-- 0.000 -->
      <g transform="translate(59.518665 322.182437) scale(0.1 -0.1)">
       <defs>
        <path id="DejaVuSans-30" d="M 2034 4250 
Q 1547 4250 1301 3770 
Q 1056 3291 1056 2328 
Q 1056 1369 1301 889 
Q 1547 409 2034 409 
Q 2525 409 2770 889 
Q 3016 1369 3016 2328 
Q 3016 3291 2770 3770 
Q 2525 4250 2034 4250 
z
M 2034 4750 
Q 2819 4750 3233 4129 
Q 3647 3509 3647 2328 
Q 3647 1150 3233 529 
Q 2819 -91 2034 -91 
Q 1250 -91 836 529 
Q 422 1150 422 2328 
Q 422 3509 836 4129 
Q 1250 4750 2034 4750 
z
" transform="scale(0.015625)"/>
        <path id="DejaVuSans-2e" d="M 684 794 
L 1344 794 
L 1344 0 
L 684 0 
L 684 794 
z
" transform="scale(0.015625)"/>
       </defs>
       <use xlink:href="#DejaVuSans-30"/>
       <use xlink:href="#DejaVuSans-2e" x="63.623047"/>
       <use xlink:href="#DejaVuSans-30" x="95.410156"/>
       <use xlink:href="#DejaVuSans-30" x="159.033203"/>
       <use xlink:href="#DejaVuSans-30" x="222.65625"/>
      </g>
     </g>
    </g>
    <g id="xtick_2">
     <g id="line2d_3">
      <path d="M 136.981316 307.584 
L 136.981316 41.472 
" clip-path="url(#p7d58098fbd)" style="fill: none; stroke-dasharray: 1.85,0.8; stroke-dashoffset: 0; stroke: #b0b0b0; stroke-width: 0.5"/>
     </g>
     <g id="line2d_4">
      <g>
       <use xlink:href="#m38360849e0" x="136.981316" y="307.584" style="stroke: #000000; stroke-width: 0.8"/>
      </g>
     </g>
     <g id="text_2">
      <!-- 0.005 -->
      <g transform="translate(122.667254 322.182437) scale(0.1 -0.1)">
       <defs>
        <path id="DejaVuSans-35" d="M 691 4666 
L 3169 4666 
L 3169 4134 
L 1269 4134 
L 1269 2991 
Q 1406 3038 1543 3061 
Q 1681 3084 1819 3084 
Q 2600 3084 3056 2656 
Q 3513 2228 3513 1497 
Q 3513 744 3044 326 
Q 2575 -91 1722 -91 
Q 1428 -91 1123 -41 
Q 819 9 494 109 
L 494 744 
Q 775 591 1075 516 
Q 1375 441 1709 441 
Q 2250 441 2565 725 
Q 2881 1009 2881 1497 
Q 2881 1984 2565 2268 
Q 2250 2553 1709 2553 
Q 1456 2553 1204 2497 
Q 953 2441 691 2322 
L 691 4666 
z
" transform="scale(0.015625)"/>
       </defs>
       <use xlink:href="#DejaVuSans-30"/>
       <use xlink:href="#DejaVuSans-2e" x="63.623047"/>
       <use xlink:href="#DejaVuSans-30" x="95.410156"/>
       <use xlink:href="#DejaVuSans-30" x="159.033203"/>
       <use xlink:href="#DejaVuSans-35" x="222.65625"/>
      </g>
     </g>
    </g>
    <g id="xtick_3">
     <g id="line2d_5">
      <path d="M 200.129905 307.584 
L 200.129905 41.472 
" clip-path="url(#p7d58098fbd)" style="fill: none; stroke-dasharray: 1.85,0.8; stroke-dashoffset: 0; stroke: #b0b0b0; stroke-width: 0.5"/>
     </g>
     <g id="line2d_6">
      <g>
       <use xlink:href="#m38360849e0" x="200.129905" y="307.584" style="stroke: #000000; stroke-width: 0.8"/>
      </g>
     </g>
     <g id="text_3">
      <!-- 0.010 -->
      <g transform="translate(185.815842 322.182437) scale(0.1 -0.1)">
       <defs>
        <path id="DejaVuSans-31" d="M 794 531 
L 1825 531 
L 1825 4091 
L 703 3866 
L 703 4441 
L 1819 4666 
L 2450 4666 
L 2450 531 
L 3481 531 
L 3481 0 
L 794 0 
L 794 531 
z
" transform="scale(0.015625)"/>
       </defs>
       <use xlink:href="#DejaVuSans-30"/>
       <use xlink:href="#DejaVuSans-2e" x="63.623047"/>
       <use xlink:href="#DejaVuSans-30" x="95.410156"/>
       <use xlink:href="#DejaVuSans-31" x="159.033203"/>
       <use xlink:href="#DejaVuSans-30" x="222.65625"/>
      </g>
     </g>
    </g>
    <g id="xtick_4">
     <g id="line2d_7">
      <path d="M 263.278494 307.584 
L 263.278494 41.472 
" clip-path="url(#p7d58098fbd)" style="fill: none; stroke-dasharray: 1.85,0.8; stroke-dashoffset: 0; stroke: #b0b0b0; stroke-width: 0.5"/>
     </g>
     <g id="line2d_8">
      <g>
       <use xlink:href="#m38360849e0" x="263.278494" y="307.584" style="stroke: #000000; stroke-width: 0.8"/>
      </g>
     </g>
     <g id="text_4">
      <!-- 0.015 -->
      <g transform="translate(248.964431 322.182437) scale(0.1 -0.1)">
       <use xlink:href="#DejaVuSans-30"/>
       <use xlink:href="#DejaVuSans-2e" x="63.623047"/>
       <use xlink:href="#DejaVuSans-30" x="95.410156"/>
       <use xlink:href="#DejaVuSans-31" x="159.033203"/>
       <use xlink:href="#DejaVuSans-35" x="222.65625"/>
      </g>
     </g>
    </g>
    <g id="xtick_5">
     <g id="line2d_9">
      <path d="M 326.427083 307.584 
L 326.427083 41.472 
" clip-path="url(#p7d58098fbd)" style="fill: none; stroke-dasharray: 1.85,0.8; stroke-dashoffset: 0; stroke: #b0b0b0; stroke-width: 0.5"/>
     </g>
     <g id="line2d_10">
      <g>
       <use xlink:href="#m38360849e0" x="326.427083" y="307.584" style="stroke: #000000; stroke-width: 0.8"/>
      </g>
     </g>
     <g id="text_5">
      <!-- 0.020 -->
      <g transform="translate(312.11302 322.182437) scale(0.1 -0.1)">
       <defs>
        <path id="DejaVuSans-32" d="M 1228 531 
L 3431 531 
L 3431 0 
L 469 0 
L 469 531 
Q 828 903 1448 1529 
Q 2069 2156 2228 2338 
Q 2531 2678 2651 2914 
Q 2772 3150 2772 3378 
Q 2772 3750 2511 3984 
Q 2250 4219 1831 4219 
Q 1534 4219 1204 4116 
Q 875 4013 500 3803 
L 500 4441 
Q 881 4594 1212 4672 
Q 1544 4750 1819 4750 
Q 2544 4750 2975 4387 
Q 3406 4025 3406 3419 
Q 3406 3131 3298 2873 
Q 3191 2616 2906 2266 
Q 2828 2175 2409 1742 
Q 1991 1309 1228 531 
z
" transform="scale(0.015625)"/>
       </defs>
       <use xlink:href="#DejaVuSans-30"/>
       <use xlink:href="#DejaVuSans-2e" x="63.623047"/>
       <use xlink:href="#DejaVuSans-30" x="95.410156"/>
       <use xlink:href="#DejaVuSans-32" x="159.033203"/>
       <use xlink:href="#DejaVuSans-30" x="222.65625"/>
      </g>
     </g>
    </g>
    <g id="xtick_6">
     <g id="line2d_11">
      <path d="M 389.575671 307.584 
L 389.575671 41.472 
" clip-path="url(#p7d58098fbd)" style="fill: none; stroke-dasharray: 1.85,0.8; stroke-dashoffset: 0; stroke: #b0b0b0; stroke-width: 0.5"/>
     </g>
     <g id="line2d_12">
      <g>
       <use xlink:href="#m38360849e0" x="389.575671" y="307.584" style="stroke: #000000; stroke-width: 0.8"/>
      </g>
     </g>
     <g id="text_6">
      <!-- 0.025 -->
      <g transform="translate(375.261609 322.182437) scale(0.1 -0.1)">
       <use xlink:href="#DejaVuSans-30"/>
       <use xlink:href="#DejaVuSans-2e" x="63.623047"/>
       <use xlink:href="#DejaVuSans-30" x="95.410156"/>
       <use xlink:href="#DejaVuSans-32" x="159.033203"/>
       <use xlink:href="#DejaVuSans-35" x="222.65625"/>
      </g>
     </g>
    </g>
    <g id="text_7">
     <!-- Pixel values -->
     <g transform="translate(206.748281 335.860562) scale(0.1 -0.1)">
      <defs>
       <path id="DejaVuSans-50" d="M 1259 4147 
L 1259 2394 
L 2053 2394 
Q 2494 2394 2734 2622 
Q 2975 2850 2975 3272 
Q 2975 3691 2734 3919 
Q 2494 4147 2053 4147 
L 1259 4147 
z
M 628 4666 
L 2053 4666 
Q 2838 4666 3239 4311 
Q 3641 3956 3641 3272 
Q 3641 2581 3239 2228 
Q 2838 1875 2053 1875 
L 1259 1875 
L 1259 0 
L 628 0 
L 628 4666 
z
" transform="scale(0.015625)"/>
       <path id="DejaVuSans-69" d="M 603 3500 
L 1178 3500 
L 1178 0 
L 603 0 
L 603 3500 
z
M 603 4863 
L 1178 4863 
L 1178 4134 
L 603 4134 
L 603 4863 
z
" transform="scale(0.015625)"/>
       <path id="DejaVuSans-78" d="M 3513 3500 
L 2247 1797 
L 3578 0 
L 2900 0 
L 1881 1375 
L 863 0 
L 184 0 
L 1544 1831 
L 300 3500 
L 978 3500 
L 1906 2253 
L 2834 3500 
L 3513 3500 
z
" transform="scale(0.015625)"/>
       <path id="DejaVuSans-65" d="M 3597 1894 
L 3597 1613 
L 953 1613 
Q 991 1019 1311 708 
Q 1631 397 2203 397 
Q 2534 397 2845 478 
Q 3156 559 3463 722 
L 3463 178 
Q 3153 47 2828 -22 
Q 2503 -91 2169 -91 
Q 1331 -91 842 396 
Q 353 884 353 1716 
Q 353 2575 817 3079 
Q 1281 3584 2069 3584 
Q 2775 3584 3186 3129 
Q 3597 2675 3597 1894 
z
M 3022 2063 
Q 3016 2534 2758 2815 
Q 2500 3097 2075 3097 
Q 1594 3097 1305 2825 
Q 1016 2553 972 2059 
L 3022 2063 
z
" transform="scale(0.015625)"/>
       <path id="DejaVuSans-6c" d="M 603 4863 
L 1178 4863 
L 1178 0 
L 603 0 
L 603 4863 
z
" transform="scale(0.015625)"/>
       <path id="DejaVuSans-20" transform="scale(0.015625)"/>
       <path id="DejaVuSans-76" d="M 191 3500 
L 800 3500 
L 1894 563 
L 2988 3500 
L 3597 3500 
L 2284 0 
L 1503 0 
L 191 3500 
z
" transform="scale(0.015625)"/>
       <path id="DejaVuSans-61" d="M 2194 1759 
Q 1497 1759 1228 1600 
Q 959 1441 959 1056 
Q 959 750 1161 570 
Q 1363 391 1709 391 
Q 2188 391 2477 730 
Q 2766 1069 2766 1631 
L 2766 1759 
L 2194 1759 
z
M 3341 1997 
L 3341 0 
L 2766 0 
L 2766 531 
Q 2569 213 2275 61 
Q 1981 -91 1556 -91 
Q 1019 -91 701 211 
Q 384 513 384 1019 
Q 384 1609 779 1909 
Q 1175 2209 1959 2209 
L 2766 2209 
L 2766 2266 
Q 2766 2663 2505 2880 
Q 2244 3097 1772 3097 
Q 1472 3097 1187 3025 
Q 903 2953 641 2809 
L 641 3341 
Q 956 3463 1253 3523 
Q 1550 3584 1831 3584 
Q 2591 3584 2966 3190 
Q 3341 2797 3341 1997 
z
" transform="scale(0.015625)"/>
       <path id="DejaVuSans-75" d="M 544 1381 
L 544 3500 
L 1119 3500 
L 1119 1403 
Q 1119 906 1312 657 
Q 1506 409 1894 409 
Q 2359 409 2629 706 
Q 2900 1003 2900 1516 
L 2900 3500 
L 3475 3500 
L 3475 0 
L 2900 0 
L 2900 538 
Q 2691 219 2414 64 
Q 2138 -91 1772 -91 
Q 1169 -91 856 284 
Q 544 659 544 1381 
z
M 1991 3584 
L 1991 3584 
z
" transform="scale(0.015625)"/>
       <path id="DejaVuSans-73" d="M 2834 3397 
L 2834 2853 
Q 2591 2978 2328 3040 
Q 2066 3103 1784 3103 
Q 1356 3103 1142 2972 
Q 928 2841 928 2578 
Q 928 2378 1081 2264 
Q 1234 2150 1697 2047 
L 1894 2003 
Q 2506 1872 2764 1633 
Q 3022 1394 3022 966 
Q 3022 478 2636 193 
Q 2250 -91 1575 -91 
Q 1294 -91 989 -36 
Q 684 19 347 128 
L 347 722 
Q 666 556 975 473 
Q 1284 391 1588 391 
Q 1994 391 2212 530 
Q 2431 669 2431 922 
Q 2431 1156 2273 1281 
Q 2116 1406 1581 1522 
L 1381 1569 
Q 847 1681 609 1914 
Q 372 2147 372 2553 
Q 372 3047 722 3315 
Q 1072 3584 1716 3584 
Q 2034 3584 2315 3537 
Q 2597 3491 2834 3397 
z
" transform="scale(0.015625)"/>
      </defs>
      <use xlink:href="#DejaVuSans-50"/>
      <use xlink:href="#DejaVuSans-69" x="58.052734"/>
      <use xlink:href="#DejaVuSans-78" x="85.835938"/>
      <use xlink:href="#DejaVuSans-65" x="141.890625"/>
      <use xlink:href="#DejaVuSans-6c" x="203.414062"/>
      <use xlink:href="#DejaVuSans-20" x="231.197266"/>
      <use xlink:href="#DejaVuSans-76" x="262.984375"/>
      <use xlink:href="#DejaVuSans-61" x="322.164062"/>
      <use xlink:href="#DejaVuSans-6c" x="383.443359"/>
      <use xlink:href="#DejaVuSans-75" x="411.226562"/>
      <use xlink:href="#DejaVuSans-65" x="474.605469"/>
      <use xlink:href="#DejaVuSans-73" x="536.128906"/>
     </g>
    </g>
   </g>
   <g id="matplotlib.axis_2">
    <g id="ytick_1">
     <g id="line2d_13">
      <path d="M 57.6 295.488 
L 414.72 295.488 
" clip-path="url(#p7d58098fbd)" style="fill: none; stroke-dasharray: 1.85,0.8; stroke-dashoffset: 0; stroke: #b0b0b0; stroke-width: 0.5"/>
     </g>
     <g id="line2d_14">
      <defs>
       <path id="me15d5d4d66" d="M 0 0 
L -3.5 0 
" style="stroke: #000000; stroke-width: 0.8"/>
      </defs>
      <g>
       <use xlink:href="#me15d5d4d66" x="57.6" y="295.488" style="stroke: #000000; stroke-width: 0.8"/>
      </g>
     </g>
     <g id="text_8">
      <!-- 0 -->
      <g transform="translate(44.2375 299.287219) scale(0.1 -0.1)">
       <use xlink:href="#DejaVuSans-30"/>
      </g>
     </g>
    </g>
    <g id="ytick_2">
     <g id="line2d_15">
      <path d="M 57.6 260.948109 
L 414.72 260.948109 
" clip-path="url(#p7d58098fbd)" style="fill: none; stroke-dasharray: 1.85,0.8; stroke-dashoffset: 0; stroke: #b0b0b0; stroke-width: 0.5"/>
     </g>
     <g id="line2d_16">
      <g>
       <use xlink:href="#me15d5d4d66" x="57.6" y="260.948109" style="stroke: #000000; stroke-width: 0.8"/>
      </g>
     </g>
     <g id="text_9">
      <!-- 1 -->
      <g transform="translate(44.2375 264.747328) scale(0.1 -0.1)">
       <use xlink:href="#DejaVuSans-31"/>
      </g>
     </g>
    </g>
    <g id="ytick_3">
     <g id="line2d_17">
      <path d="M 57.6 226.408219 
L 414.72 226.408219 
" clip-path="url(#p7d58098fbd)" style="fill: none; stroke-dasharray: 1.85,0.8; stroke-dashoffset: 0; stroke: #b0b0b0; stroke-width: 0.5"/>
     </g>
     <g id="line2d_18">
      <g>
       <use xlink:href="#me15d5d4d66" x="57.6" y="226.408219" style="stroke: #000000; stroke-width: 0.8"/>
      </g>
     </g>
     <g id="text_10">
      <!-- 2 -->
      <g transform="translate(44.2375 230.207438) scale(0.1 -0.1)">
       <use xlink:href="#DejaVuSans-32"/>
      </g>
     </g>
    </g>
    <g id="ytick_4">
     <g id="line2d_19">
      <path d="M 57.6 191.868328 
L 414.72 191.868328 
" clip-path="url(#p7d58098fbd)" style="fill: none; stroke-dasharray: 1.85,0.8; stroke-dashoffset: 0; stroke: #b0b0b0; stroke-width: 0.5"/>
     </g>
     <g id="line2d_20">
      <g>
       <use xlink:href="#me15d5d4d66" x="57.6" y="191.868328" style="stroke: #000000; stroke-width: 0.8"/>
      </g>
     </g>
     <g id="text_11">
      <!-- 3 -->
      <g transform="translate(44.2375 195.667547) scale(0.1 -0.1)">
       <defs>
        <path id="DejaVuSans-33" d="M 2597 2516 
Q 3050 2419 3304 2112 
Q 3559 1806 3559 1356 
Q 3559 666 3084 287 
Q 2609 -91 1734 -91 
Q 1441 -91 1130 -33 
Q 819 25 488 141 
L 488 750 
Q 750 597 1062 519 
Q 1375 441 1716 441 
Q 2309 441 2620 675 
Q 2931 909 2931 1356 
Q 2931 1769 2642 2001 
Q 2353 2234 1838 2234 
L 1294 2234 
L 1294 2753 
L 1863 2753 
Q 2328 2753 2575 2939 
Q 2822 3125 2822 3475 
Q 2822 3834 2567 4026 
Q 2313 4219 1838 4219 
Q 1578 4219 1281 4162 
Q 984 4106 628 3988 
L 628 4550 
Q 988 4650 1302 4700 
Q 1616 4750 1894 4750 
Q 2613 4750 3031 4423 
Q 3450 4097 3450 3541 
Q 3450 3153 3228 2886 
Q 3006 2619 2597 2516 
z
" transform="scale(0.015625)"/>
       </defs>
       <use xlink:href="#DejaVuSans-33"/>
      </g>
     </g>
    </g>
    <g id="ytick_5">
     <g id="line2d_21">
      <path d="M 57.6 157.328438 
L 414.72 157.328438 
" clip-path="url(#p7d58098fbd)" style="fill: none; stroke-dasharray: 1.85,0.8; stroke-dashoffset: 0; stroke: #b0b0b0; stroke-width: 0.5"/>
     </g>
     <g id="line2d_22">
      <g>
       <use xlink:href="#me15d5d4d66" x="57.6" y="157.328438" style="stroke: #000000; stroke-width: 0.8"/>
      </g>
     </g>
     <g id="text_12">
      <!-- 4 -->
      <g transform="translate(44.2375 161.127656) scale(0.1 -0.1)">
       <defs>
        <path id="DejaVuSans-34" d="M 2419 4116 
L 825 1625 
L 2419 1625 
L 2419 4116 
z
M 2253 4666 
L 3047 4666 
L 3047 1625 
L 3713 1625 
L 3713 1100 
L 3047 1100 
L 3047 0 
L 2419 0 
L 2419 1100 
L 313 1100 
L 313 1709 
L 2253 4666 
z
" transform="scale(0.015625)"/>
       </defs>
       <use xlink:href="#DejaVuSans-34"/>
      </g>
     </g>
    </g>
    <g id="ytick_6">
     <g id="line2d_23">
      <path d="M 57.6 122.788547 
L 414.72 122.788547 
" clip-path="url(#p7d58098fbd)" style="fill: none; stroke-dasharray: 1.85,0.8; stroke-dashoffset: 0; stroke: #b0b0b0; stroke-width: 0.5"/>
     </g>
     <g id="line2d_24">
      <g>
       <use xlink:href="#me15d5d4d66" x="57.6" y="122.788547" style="stroke: #000000; stroke-width: 0.8"/>
      </g>
     </g>
     <g id="text_13">
      <!-- 5 -->
      <g transform="translate(44.2375 126.587766) scale(0.1 -0.1)">
       <use xlink:href="#DejaVuSans-35"/>
      </g>
     </g>
    </g>
    <g id="ytick_7">
     <g id="line2d_25">
      <path d="M 57.6 88.248656 
L 414.72 88.248656 
" clip-path="url(#p7d58098fbd)" style="fill: none; stroke-dasharray: 1.85,0.8; stroke-dashoffset: 0; stroke: #b0b0b0; stroke-width: 0.5"/>
     </g>
     <g id="line2d_26">
      <g>
       <use xlink:href="#me15d5d4d66" x="57.6" y="88.248656" style="stroke: #000000; stroke-width: 0.8"/>
      </g>
     </g>
     <g id="text_14">
      <!-- 6 -->
      <g transform="translate(44.2375 92.047875) scale(0.1 -0.1)">
       <defs>
        <path id="DejaVuSans-36" d="M 2113 2584 
Q 1688 2584 1439 2293 
Q 1191 2003 1191 1497 
Q 1191 994 1439 701 
Q 1688 409 2113 409 
Q 2538 409 2786 701 
Q 3034 994 3034 1497 
Q 3034 2003 2786 2293 
Q 2538 2584 2113 2584 
z
M 3366 4563 
L 3366 3988 
Q 3128 4100 2886 4159 
Q 2644 4219 2406 4219 
Q 1781 4219 1451 3797 
Q 1122 3375 1075 2522 
Q 1259 2794 1537 2939 
Q 1816 3084 2150 3084 
Q 2853 3084 3261 2657 
Q 3669 2231 3669 1497 
Q 3669 778 3244 343 
Q 2819 -91 2113 -91 
Q 1303 -91 875 529 
Q 447 1150 447 2328 
Q 447 3434 972 4092 
Q 1497 4750 2381 4750 
Q 2619 4750 2861 4703 
Q 3103 4656 3366 4563 
z
" transform="scale(0.015625)"/>
       </defs>
       <use xlink:href="#DejaVuSans-36"/>
      </g>
     </g>
    </g>
    <g id="ytick_8">
     <g id="line2d_27">
      <path d="M 57.6 53.708766 
L 414.72 53.708766 
" clip-path="url(#p7d58098fbd)" style="fill: none; stroke-dasharray: 1.85,0.8; stroke-dashoffset: 0; stroke: #b0b0b0; stroke-width: 0.5"/>
     </g>
     <g id="line2d_28">
      <g>
       <use xlink:href="#me15d5d4d66" x="57.6" y="53.708766" style="stroke: #000000; stroke-width: 0.8"/>
      </g>
     </g>
     <g id="text_15">
      <!-- 7 -->
      <g transform="translate(44.2375 57.507984) scale(0.1 -0.1)">
       <defs>
        <path id="DejaVuSans-37" d="M 525 4666 
L 3525 4666 
L 3525 4397 
L 1831 0 
L 1172 0 
L 2766 4134 
L 525 4134 
L 525 4666 
z
" transform="scale(0.015625)"/>
       </defs>
       <use xlink:href="#DejaVuSans-37"/>
      </g>
     </g>
    </g>
    <g id="text_16">
     <!-- Frequency -->
     <g transform="translate(38.157812 200.357687) rotate(-90) scale(0.1 -0.1)">
      <defs>
       <path id="DejaVuSans-46" d="M 628 4666 
L 3309 4666 
L 3309 4134 
L 1259 4134 
L 1259 2759 
L 3109 2759 
L 3109 2228 
L 1259 2228 
L 1259 0 
L 628 0 
L 628 4666 
z
" transform="scale(0.015625)"/>
       <path id="DejaVuSans-72" d="M 2631 2963 
Q 2534 3019 2420 3045 
Q 2306 3072 2169 3072 
Q 1681 3072 1420 2755 
Q 1159 2438 1159 1844 
L 1159 0 
L 581 0 
L 581 3500 
L 1159 3500 
L 1159 2956 
Q 1341 3275 1631 3429 
Q 1922 3584 2338 3584 
Q 2397 3584 2469 3576 
Q 2541 3569 2628 3553 
L 2631 2963 
z
" transform="scale(0.015625)"/>
       <path id="DejaVuSans-71" d="M 947 1747 
Q 947 1113 1208 752 
Q 1469 391 1925 391 
Q 2381 391 2643 752 
Q 2906 1113 2906 1747 
Q 2906 2381 2643 2742 
Q 2381 3103 1925 3103 
Q 1469 3103 1208 2742 
Q 947 2381 947 1747 
z
M 2906 525 
Q 2725 213 2448 61 
Q 2172 -91 1784 -91 
Q 1150 -91 751 415 
Q 353 922 353 1747 
Q 353 2572 751 3078 
Q 1150 3584 1784 3584 
Q 2172 3584 2448 3432 
Q 2725 3281 2906 2969 
L 2906 3500 
L 3481 3500 
L 3481 -1331 
L 2906 -1331 
L 2906 525 
z
" transform="scale(0.015625)"/>
       <path id="DejaVuSans-6e" d="M 3513 2113 
L 3513 0 
L 2938 0 
L 2938 2094 
Q 2938 2591 2744 2837 
Q 2550 3084 2163 3084 
Q 1697 3084 1428 2787 
Q 1159 2491 1159 1978 
L 1159 0 
L 581 0 
L 581 3500 
L 1159 3500 
L 1159 2956 
Q 1366 3272 1645 3428 
Q 1925 3584 2291 3584 
Q 2894 3584 3203 3211 
Q 3513 2838 3513 2113 
z
" transform="scale(0.015625)"/>
       <path id="DejaVuSans-63" d="M 3122 3366 
L 3122 2828 
Q 2878 2963 2633 3030 
Q 2388 3097 2138 3097 
Q 1578 3097 1268 2742 
Q 959 2388 959 1747 
Q 959 1106 1268 751 
Q 1578 397 2138 397 
Q 2388 397 2633 464 
Q 2878 531 3122 666 
L 3122 134 
Q 2881 22 2623 -34 
Q 2366 -91 2075 -91 
Q 1284 -91 818 406 
Q 353 903 353 1747 
Q 353 2603 823 3093 
Q 1294 3584 2113 3584 
Q 2378 3584 2631 3529 
Q 2884 3475 3122 3366 
z
" transform="scale(0.015625)"/>
       <path id="DejaVuSans-79" d="M 2059 -325 
Q 1816 -950 1584 -1140 
Q 1353 -1331 966 -1331 
L 506 -1331 
L 506 -850 
L 844 -850 
Q 1081 -850 1212 -737 
Q 1344 -625 1503 -206 
L 1606 56 
L 191 3500 
L 800 3500 
L 1894 763 
L 2988 3500 
L 3597 3500 
L 2059 -325 
z
" transform="scale(0.015625)"/>
      </defs>
      <use xlink:href="#DejaVuSans-46"/>
      <use xlink:href="#DejaVuSans-72" x="50.269531"/>
      <use xlink:href="#DejaVuSans-65" x="89.132812"/>
      <use xlink:href="#DejaVuSans-71" x="150.65625"/>
      <use xlink:href="#DejaVuSans-75" x="214.132812"/>
      <use xlink:href="#DejaVuSans-65" x="277.511719"/>
      <use xlink:href="#DejaVuSans-6e" x="339.035156"/>
      <use xlink:href="#DejaVuSans-63" x="402.414062"/>
      <use xlink:href="#DejaVuSans-79" x="457.394531"/>
     </g>
    </g>
   </g>
   <g id="line2d_29">
    <path d="M 73.832727 180.85868 
L 74.907742 172.461253 
L 75.982757 165.883439 
L 79.207803 149.617819 
L 80.282818 141.843168 
L 81.357833 131.472875 
L 82.432848 118.393238 
L 85.657893 72.31847 
L 86.732908 60.525521 
L 87.807923 53.795082 
L 88.882938 53.568 
L 89.957953 60.52565 
L 91.032968 74.473197 
L 92.107983 94.390893 
L 94.258013 145.220128 
L 96.408043 197.710178 
L 97.483058 220.586893 
L 98.558073 240.019963 
L 99.633089 255.741404 
L 100.708104 267.888461 
L 101.783119 276.872882 
L 102.858134 283.247871 
L 103.933149 287.596899 
L 105.008164 290.456374 
L 106.083179 292.273427 
L 107.158194 293.392718 
L 108.233209 294.06296 
L 109.308224 294.453826 
L 111.458254 294.798909 
L 114.683299 294.931288 
L 122.208405 295.202398 
L 128.658495 295.360916 
L 142.633691 295.388459 
L 265.185406 295.485984 
L 398.487273 295.48505 
L 398.487273 295.48505 
" clip-path="url(#p7d58098fbd)" style="fill: none; stroke: #1f77b4; stroke-width: 1.5; stroke-linecap: square"/>
   </g>
   <g id="line2d_30">
    <path d="M 73.832727 172.141252 
L 74.907742 163.608282 
L 75.982757 157.315827 
L 77.057772 152.70987 
L 78.132787 148.834088 
L 79.207803 144.513463 
L 80.282818 138.6158 
L 81.357833 130.337551 
L 82.432848 119.447782 
L 85.657893 79.280437 
L 86.732908 68.85508 
L 87.807923 63.050661 
L 88.882938 63.270729 
L 89.957953 70.198077 
L 91.032968 83.677642 
L 92.107983 102.762393 
L 94.258013 151.225332 
L 96.408043 201.10714 
L 97.483058 222.804869 
L 98.558073 241.215868 
L 99.633089 256.098369 
L 100.708104 267.595469 
L 101.783119 276.108516 
L 102.858134 282.168643 
L 103.933149 286.329999 
L 105.008164 289.096458 
L 106.083179 290.882955 
L 107.158194 292.005372 
L 108.233209 292.689525 
L 109.308224 293.089729 
L 111.458254 293.418724 
L 117.908344 293.79125 
L 127.58348 295.15469 
L 131.88354 295.275809 
L 138.33363 295.165865 
L 144.783721 295.111649 
L 157.683901 295.220776 
L 215.734714 295.352029 
L 254.435256 295.424855 
L 277.010572 295.48727 
L 378.061987 295.403077 
L 387.737122 295.392152 
L 398.487273 295.468928 
L 398.487273 295.468928 
" clip-path="url(#p7d58098fbd)" style="fill: none; stroke: #ff7f0e; stroke-width: 1.5; stroke-linecap: square"/>
   </g>
   <g id="line2d_31">
    <path d="M 73.832727 198.578358 
L 74.907742 191.276544 
L 75.982757 185.399172 
L 78.132787 175.534734 
L 79.207803 169.748957 
L 80.282818 162.172655 
L 81.357833 152.225401 
L 82.432848 139.845932 
L 85.657893 96.678264 
L 86.732908 85.434967 
L 87.807923 78.600844 
L 88.882938 77.374657 
L 89.957953 82.264423 
L 91.032968 92.995158 
L 92.107983 108.571256 
L 94.258013 147.944866 
L 96.408043 187.110705 
L 97.483058 203.514768 
L 98.558073 217.114111 
L 99.633089 227.994195 
L 100.708104 236.578615 
L 101.783119 243.465357 
L 103.933149 254.504192 
L 108.233209 274.007247 
L 110.383239 282.28991 
L 111.458254 285.637597 
L 112.533269 288.379098 
L 113.608284 290.525991 
L 114.683299 292.132999 
L 115.758314 293.281047 
L 116.833329 294.060693 
L 117.908344 294.559183 
L 118.983359 294.852435 
L 121.13339 295.053743 
L 124.358435 294.928663 
L 128.658495 294.722933 
L 131.88354 294.785659 
L 141.558675 295.211039 
L 154.458856 295.310538 
L 398.487273 295.48444 
L 398.487273 295.48444 
" clip-path="url(#p7d58098fbd)" style="fill: none; stroke: #2ca02c; stroke-width: 1.5; stroke-linecap: square"/>
   </g>
   <g id="line2d_32">
    <path d="M 73.832727 150.304212 
L 74.907742 140.943921 
L 75.982757 134.604578 
L 77.057772 130.72957 
L 79.207803 125.921112 
L 80.282818 122.33333 
L 81.357833 116.505134 
L 82.432848 108.018371 
L 83.507863 97.207786 
L 85.657893 73.579543 
L 86.732908 64.431743 
L 87.807923 59.626863 
L 88.882938 60.627716 
L 89.957953 68.181104 
L 91.032968 82.190275 
L 92.107983 101.754308 
L 94.258013 151.134091 
L 96.408043 201.920065 
L 97.483058 224.042221 
L 98.558073 242.835301 
L 99.633089 258.038482 
L 100.708104 269.779048 
L 101.783119 278.448746 
L 102.858134 284.577337 
L 103.933149 288.726495 
L 105.008164 291.415598 
L 106.083179 293.080644 
L 107.158194 294.060662 
L 108.233209 294.602854 
L 109.308224 294.877795 
L 111.458254 295.033976 
L 121.13339 295.108747 
L 128.658495 295.250052 
L 156.608886 295.478422 
L 254.435256 295.457871 
L 273.785527 295.402614 
L 359.786731 295.417017 
L 382.362047 295.487997 
L 398.487273 295.488 
L 398.487273 295.488 
" clip-path="url(#p7d58098fbd)" style="fill: none; stroke: #d62728; stroke-width: 1.5; stroke-linecap: square"/>
   </g>
   <g id="patch_3">
    <path d="M 57.6 307.584 
L 57.6 41.472 
" style="fill: none; stroke: #000000; stroke-width: 0.8; stroke-linejoin: miter; stroke-linecap: square"/>
   </g>
   <g id="patch_4">
    <path d="M 414.72 307.584 
L 414.72 41.472 
" style="fill: none; stroke: #000000; stroke-width: 0.8; stroke-linejoin: miter; stroke-linecap: square"/>
   </g>
   <g id="patch_5">
    <path d="M 57.6 307.584 
L 414.72 307.584 
" style="fill: none; stroke: #000000; stroke-width: 0.8; stroke-linejoin: miter; stroke-linecap: square"/>
   </g>
   <g id="patch_6">
    <path d="M 57.6 41.472 
L 414.72 41.472 
" style="fill: none; stroke: #000000; stroke-width: 0.8; stroke-linejoin: miter; stroke-linecap: square"/>
   </g>
   <g id="text_17">
    <!-- AD - mni_prob_Frontal_Lobe -->
    <g transform="translate(152.595 35.472) scale(0.12 -0.12)">
     <defs>
      <path id="DejaVuSans-41" d="M 2188 4044 
L 1331 1722 
L 3047 1722 
L 2188 4044 
z
M 1831 4666 
L 2547 4666 
L 4325 0 
L 3669 0 
L 3244 1197 
L 1141 1197 
L 716 0 
L 50 0 
L 1831 4666 
z
" transform="scale(0.015625)"/>
      <path id="DejaVuSans-44" d="M 1259 4147 
L 1259 519 
L 2022 519 
Q 2988 519 3436 956 
Q 3884 1394 3884 2338 
Q 3884 3275 3436 3711 
Q 2988 4147 2022 4147 
L 1259 4147 
z
M 628 4666 
L 1925 4666 
Q 3281 4666 3915 4102 
Q 4550 3538 4550 2338 
Q 4550 1131 3912 565 
Q 3275 0 1925 0 
L 628 0 
L 628 4666 
z
" transform="scale(0.015625)"/>
      <path id="DejaVuSans-2d" d="M 313 2009 
L 1997 2009 
L 1997 1497 
L 313 1497 
L 313 2009 
z
" transform="scale(0.015625)"/>
      <path id="DejaVuSans-6d" d="M 3328 2828 
Q 3544 3216 3844 3400 
Q 4144 3584 4550 3584 
Q 5097 3584 5394 3201 
Q 5691 2819 5691 2113 
L 5691 0 
L 5113 0 
L 5113 2094 
Q 5113 2597 4934 2840 
Q 4756 3084 4391 3084 
Q 3944 3084 3684 2787 
Q 3425 2491 3425 1978 
L 3425 0 
L 2847 0 
L 2847 2094 
Q 2847 2600 2669 2842 
Q 2491 3084 2119 3084 
Q 1678 3084 1418 2786 
Q 1159 2488 1159 1978 
L 1159 0 
L 581 0 
L 581 3500 
L 1159 3500 
L 1159 2956 
Q 1356 3278 1631 3431 
Q 1906 3584 2284 3584 
Q 2666 3584 2933 3390 
Q 3200 3197 3328 2828 
z
" transform="scale(0.015625)"/>
      <path id="DejaVuSans-5f" d="M 3263 -1063 
L 3263 -1509 
L -63 -1509 
L -63 -1063 
L 3263 -1063 
z
" transform="scale(0.015625)"/>
      <path id="DejaVuSans-70" d="M 1159 525 
L 1159 -1331 
L 581 -1331 
L 581 3500 
L 1159 3500 
L 1159 2969 
Q 1341 3281 1617 3432 
Q 1894 3584 2278 3584 
Q 2916 3584 3314 3078 
Q 3713 2572 3713 1747 
Q 3713 922 3314 415 
Q 2916 -91 2278 -91 
Q 1894 -91 1617 61 
Q 1341 213 1159 525 
z
M 3116 1747 
Q 3116 2381 2855 2742 
Q 2594 3103 2138 3103 
Q 1681 3103 1420 2742 
Q 1159 2381 1159 1747 
Q 1159 1113 1420 752 
Q 1681 391 2138 391 
Q 2594 391 2855 752 
Q 3116 1113 3116 1747 
z
" transform="scale(0.015625)"/>
      <path id="DejaVuSans-6f" d="M 1959 3097 
Q 1497 3097 1228 2736 
Q 959 2375 959 1747 
Q 959 1119 1226 758 
Q 1494 397 1959 397 
Q 2419 397 2687 759 
Q 2956 1122 2956 1747 
Q 2956 2369 2687 2733 
Q 2419 3097 1959 3097 
z
M 1959 3584 
Q 2709 3584 3137 3096 
Q 3566 2609 3566 1747 
Q 3566 888 3137 398 
Q 2709 -91 1959 -91 
Q 1206 -91 779 398 
Q 353 888 353 1747 
Q 353 2609 779 3096 
Q 1206 3584 1959 3584 
z
" transform="scale(0.015625)"/>
      <path id="DejaVuSans-62" d="M 3116 1747 
Q 3116 2381 2855 2742 
Q 2594 3103 2138 3103 
Q 1681 3103 1420 2742 
Q 1159 2381 1159 1747 
Q 1159 1113 1420 752 
Q 1681 391 2138 391 
Q 2594 391 2855 752 
Q 3116 1113 3116 1747 
z
M 1159 2969 
Q 1341 3281 1617 3432 
Q 1894 3584 2278 3584 
Q 2916 3584 3314 3078 
Q 3713 2572 3713 1747 
Q 3713 922 3314 415 
Q 2916 -91 2278 -91 
Q 1894 -91 1617 61 
Q 1341 213 1159 525 
L 1159 0 
L 581 0 
L 581 4863 
L 1159 4863 
L 1159 2969 
z
" transform="scale(0.015625)"/>
      <path id="DejaVuSans-74" d="M 1172 4494 
L 1172 3500 
L 2356 3500 
L 2356 3053 
L 1172 3053 
L 1172 1153 
Q 1172 725 1289 603 
Q 1406 481 1766 481 
L 2356 481 
L 2356 0 
L 1766 0 
Q 1100 0 847 248 
Q 594 497 594 1153 
L 594 3053 
L 172 3053 
L 172 3500 
L 594 3500 
L 594 4494 
L 1172 4494 
z
" transform="scale(0.015625)"/>
      <path id="DejaVuSans-4c" d="M 628 4666 
L 1259 4666 
L 1259 531 
L 3531 531 
L 3531 0 
L 628 0 
L 628 4666 
z
" transform="scale(0.015625)"/>
     </defs>
     <use xlink:href="#DejaVuSans-41"/>
     <use xlink:href="#DejaVuSans-44" x="68.408203"/>
     <use xlink:href="#DejaVuSans-20" x="145.410156"/>
     <use xlink:href="#DejaVuSans-2d" x="177.197266"/>
     <use xlink:href="#DejaVuSans-20" x="213.28125"/>
     <use xlink:href="#DejaVuSans-6d" x="245.068359"/>
     <use xlink:href="#DejaVuSans-6e" x="342.480469"/>
     <use xlink:href="#DejaVuSans-69" x="405.859375"/>
     <use xlink:href="#DejaVuSans-5f" x="433.642578"/>
     <use xlink:href="#DejaVuSans-70" x="483.642578"/>
     <use xlink:href="#DejaVuSans-72" x="547.119141"/>
     <use xlink:href="#DejaVuSans-6f" x="585.982422"/>
     <use xlink:href="#DejaVuSans-62" x="647.164062"/>
     <use xlink:href="#DejaVuSans-5f" x="710.640625"/>
     <use xlink:href="#DejaVuSans-46" x="760.640625"/>
     <use xlink:href="#DejaVuSans-72" x="810.910156"/>
     <use xlink:href="#DejaVuSans-6f" x="849.773438"/>
     <use xlink:href="#DejaVuSans-6e" x="910.955078"/>
     <use xlink:href="#DejaVuSans-74" x="974.333984"/>
     <use xlink:href="#DejaVuSans-61" x="1013.542969"/>
     <use xlink:href="#DejaVuSans-6c" x="1074.822266"/>
     <use xlink:href="#DejaVuSans-5f" x="1102.605469"/>
     <use xlink:href="#DejaVuSans-4c" x="1152.605469"/>
     <use xlink:href="#DejaVuSans-6f" x="1206.568359"/>
     <use xlink:href="#DejaVuSans-62" x="1267.75"/>
     <use xlink:href="#DejaVuSans-65" x="1331.226562"/>
    </g>
   </g>
   <g id="legend_1">
    <g id="patch_7">
     <path d="M 190.72 109.297 
L 407.72 109.297 
Q 409.72 109.297 409.72 107.297 
L 409.72 48.472 
Q 409.72 46.472 407.72 46.472 
L 190.72 46.472 
Q 188.72 46.472 188.72 48.472 
L 188.72 107.297 
Q 188.72 109.297 190.72 109.297 
z
" style="fill: #ffffff; opacity: 0.8; stroke: #cccccc; stroke-linejoin: miter"/>
    </g>
    <g id="line2d_33">
     <path d="M 192.72 54.570437 
L 202.72 54.570437 
L 212.72 54.570437 
" style="fill: none; stroke: #1f77b4; stroke-width: 1.5; stroke-linecap: square"/>
    </g>
    <g id="text_18">
     <!-- 20_01_01_E0[1.0] -->
     <g transform="translate(220.72 58.070437) scale(0.1 -0.1)">
      <defs>
       <path id="DejaVuSans-45" d="M 628 4666 
L 3578 4666 
L 3578 4134 
L 1259 4134 
L 1259 2753 
L 3481 2753 
L 3481 2222 
L 1259 2222 
L 1259 531 
L 3634 531 
L 3634 0 
L 628 0 
L 628 4666 
z
" transform="scale(0.015625)"/>
       <path id="DejaVuSans-5b" d="M 550 4863 
L 1875 4863 
L 1875 4416 
L 1125 4416 
L 1125 -397 
L 1875 -397 
L 1875 -844 
L 550 -844 
L 550 4863 
z
" transform="scale(0.015625)"/>
       <path id="DejaVuSans-5d" d="M 1947 4863 
L 1947 -844 
L 622 -844 
L 622 -397 
L 1369 -397 
L 1369 4416 
L 622 4416 
L 622 4863 
L 1947 4863 
z
" transform="scale(0.015625)"/>
      </defs>
      <use xlink:href="#DejaVuSans-32"/>
      <use xlink:href="#DejaVuSans-30" x="63.623047"/>
      <use xlink:href="#DejaVuSans-5f" x="127.246094"/>
      <use xlink:href="#DejaVuSans-30" x="177.246094"/>
      <use xlink:href="#DejaVuSans-31" x="240.869141"/>
      <use xlink:href="#DejaVuSans-5f" x="304.492188"/>
      <use xlink:href="#DejaVuSans-30" x="354.492188"/>
      <use xlink:href="#DejaVuSans-31" x="418.115234"/>
      <use xlink:href="#DejaVuSans-5f" x="481.738281"/>
      <use xlink:href="#DejaVuSans-45" x="531.738281"/>
      <use xlink:href="#DejaVuSans-30" x="594.921875"/>
      <use xlink:href="#DejaVuSans-5b" x="658.544922"/>
      <use xlink:href="#DejaVuSans-31" x="697.558594"/>
      <use xlink:href="#DejaVuSans-2e" x="761.181641"/>
      <use xlink:href="#DejaVuSans-30" x="792.96875"/>
      <use xlink:href="#DejaVuSans-5d" x="856.591797"/>
     </g>
    </g>
    <g id="line2d_34">
     <path d="M 192.72 69.526687 
L 202.72 69.526687 
L 212.72 69.526687 
" style="fill: none; stroke: #ff7f0e; stroke-width: 1.5; stroke-linecap: square"/>
    </g>
    <g id="text_19">
     <!-- 20_01_01_E1[1.0] -->
     <g transform="translate(220.72 73.026687) scale(0.1 -0.1)">
      <use xlink:href="#DejaVuSans-32"/>
      <use xlink:href="#DejaVuSans-30" x="63.623047"/>
      <use xlink:href="#DejaVuSans-5f" x="127.246094"/>
      <use xlink:href="#DejaVuSans-30" x="177.246094"/>
      <use xlink:href="#DejaVuSans-31" x="240.869141"/>
      <use xlink:href="#DejaVuSans-5f" x="304.492188"/>
      <use xlink:href="#DejaVuSans-30" x="354.492188"/>
      <use xlink:href="#DejaVuSans-31" x="418.115234"/>
      <use xlink:href="#DejaVuSans-5f" x="481.738281"/>
      <use xlink:href="#DejaVuSans-45" x="531.738281"/>
      <use xlink:href="#DejaVuSans-31" x="594.921875"/>
      <use xlink:href="#DejaVuSans-5b" x="658.544922"/>
      <use xlink:href="#DejaVuSans-31" x="697.558594"/>
      <use xlink:href="#DejaVuSans-2e" x="761.181641"/>
      <use xlink:href="#DejaVuSans-30" x="792.96875"/>
      <use xlink:href="#DejaVuSans-5d" x="856.591797"/>
     </g>
    </g>
    <g id="line2d_35">
     <path d="M 192.72 84.482937 
L 202.72 84.482937 
L 212.72 84.482937 
" style="fill: none; stroke: #2ca02c; stroke-width: 1.5; stroke-linecap: square"/>
    </g>
    <g id="text_20">
     <!-- 20_01_01_E2[1.0000000000000002] -->
     <g transform="translate(220.72 87.982937) scale(0.1 -0.1)">
      <use xlink:href="#DejaVuSans-32"/>
      <use xlink:href="#DejaVuSans-30" x="63.623047"/>
      <use xlink:href="#DejaVuSans-5f" x="127.246094"/>
      <use xlink:href="#DejaVuSans-30" x="177.246094"/>
      <use xlink:href="#DejaVuSans-31" x="240.869141"/>
      <use xlink:href="#DejaVuSans-5f" x="304.492188"/>
      <use xlink:href="#DejaVuSans-30" x="354.492188"/>
      <use xlink:href="#DejaVuSans-31" x="418.115234"/>
      <use xlink:href="#DejaVuSans-5f" x="481.738281"/>
      <use xlink:href="#DejaVuSans-45" x="531.738281"/>
      <use xlink:href="#DejaVuSans-32" x="594.921875"/>
      <use xlink:href="#DejaVuSans-5b" x="658.544922"/>
      <use xlink:href="#DejaVuSans-31" x="697.558594"/>
      <use xlink:href="#DejaVuSans-2e" x="761.181641"/>
      <use xlink:href="#DejaVuSans-30" x="792.96875"/>
      <use xlink:href="#DejaVuSans-30" x="856.591797"/>
      <use xlink:href="#DejaVuSans-30" x="920.214844"/>
      <use xlink:href="#DejaVuSans-30" x="983.837891"/>
      <use xlink:href="#DejaVuSans-30" x="1047.460938"/>
      <use xlink:href="#DejaVuSans-30" x="1111.083984"/>
      <use xlink:href="#DejaVuSans-30" x="1174.707031"/>
      <use xlink:href="#DejaVuSans-30" x="1238.330078"/>
      <use xlink:href="#DejaVuSans-30" x="1301.953125"/>
      <use xlink:href="#DejaVuSans-30" x="1365.576172"/>
      <use xlink:href="#DejaVuSans-30" x="1429.199219"/>
      <use xlink:href="#DejaVuSans-30" x="1492.822266"/>
      <use xlink:href="#DejaVuSans-30" x="1556.445312"/>
      <use xlink:href="#DejaVuSans-30" x="1620.068359"/>
      <use xlink:href="#DejaVuSans-30" x="1683.691406"/>
      <use xlink:href="#DejaVuSans-32" x="1747.314453"/>
      <use xlink:href="#DejaVuSans-5d" x="1810.9375"/>
     </g>
    </g>
    <g id="line2d_36">
     <path d="M 192.72 99.439187 
L 202.72 99.439187 
L 212.72 99.439187 
" style="fill: none; stroke: #d62728; stroke-width: 1.5; stroke-linecap: square"/>
    </g>
    <g id="text_21">
     <!-- 20_11_02_E1[1.0] -->
     <g transform="translate(220.72 102.939187) scale(0.1 -0.1)">
      <use xlink:href="#DejaVuSans-32"/>
      <use xlink:href="#DejaVuSans-30" x="63.623047"/>
      <use xlink:href="#DejaVuSans-5f" x="127.246094"/>
      <use xlink:href="#DejaVuSans-31" x="177.246094"/>
      <use xlink:href="#DejaVuSans-31" x="240.869141"/>
      <use xlink:href="#DejaVuSans-5f" x="304.492188"/>
      <use xlink:href="#DejaVuSans-30" x="354.492188"/>
      <use xlink:href="#DejaVuSans-32" x="418.115234"/>
      <use xlink:href="#DejaVuSans-5f" x="481.738281"/>
      <use xlink:href="#DejaVuSans-45" x="531.738281"/>
      <use xlink:href="#DejaVuSans-31" x="594.921875"/>
      <use xlink:href="#DejaVuSans-5b" x="658.544922"/>
      <use xlink:href="#DejaVuSans-31" x="697.558594"/>
      <use xlink:href="#DejaVuSans-2e" x="761.181641"/>
      <use xlink:href="#DejaVuSans-30" x="792.96875"/>
      <use xlink:href="#DejaVuSans-5d" x="856.591797"/>
     </g>
    </g>
   </g>
  </g>
 </g>
 <defs>
  <clipPath id="p7d58098fbd">
   <rect x="57.6" y="41.472" width="357.12" height="266.112"/>
  </clipPath>
 </defs>
</svg>
