<?xml version="1.0" encoding="utf-8" standalone="no"?>
<!DOCTYPE svg PUBLIC "-//W3C//DTD SVG 1.1//EN"
  "http://www.w3.org/Graphics/SVG/1.1/DTD/svg11.dtd">
<svg xmlns:xlink="http://www.w3.org/1999/xlink" width="460.8pt" height="345.6pt" viewBox="0 0 460.8 345.6" xmlns="http://www.w3.org/2000/svg" version="1.1">
 <metadata>
  <rdf:RDF xmlns:dc="http://purl.org/dc/elements/1.1/" xmlns:cc="http://creativecommons.org/ns#" xmlns:rdf="http://www.w3.org/1999/02/22-rdf-syntax-ns#">
   <cc:Work>
    <dc:type rdf:resource="http://purl.org/dc/dcmitype/StillImage"/>
    <dc:date>2023-02-10T12:43:38.606671</dc:date>
    <dc:format>image/svg+xml</dc:format>
    <dc:creator>
     <cc:Agent>
      <dc:title>Matplotlib v3.6.2, https://matplotlib.org/</dc:title>
     </cc:Agent>
    </dc:creator>
   </cc:Work>
  </rdf:RDF>
 </metadata>
 <defs>
  <style type="text/css">*{stroke-linejoin: round; stroke-linecap: butt}</style>
 </defs>
 <g id="figure_1">
  <g id="patch_1">
   <path d="M 0 345.6 
L 460.8 345.6 
L 460.8 0 
L 0 0 
z
" style="fill: #ffffff"/>
  </g>
  <g id="axes_1">
   <g id="patch_2">
    <path d="M 57.6 307.584 
L 414.72 307.584 
L 414.72 41.472 
L 57.6 41.472 
z
" style="fill: #ffffff"/>
   </g>
   <g id="PolyCollection_1">
    <path d="M 73.832727 189.827469 
L 73.832727 295.488 
L 74.907742 295.488 
L 75.982757 295.488 
L 77.057772 295.488 
L 78.132787 295.488 
L 79.207803 295.488 
L 80.282818 295.488 
L 81.357833 295.488 
L 82.432848 295.488 
L 83.507863 295.488 
L 84.582878 295.488 
L 85.657893 295.488 
L 86.732908 295.488 
L 87.807923 295.488 
L 88.882938 295.488 
L 89.957953 295.488 
L 91.032968 295.488 
L 92.107983 295.488 
L 93.182998 295.488 
L 94.258013 295.488 
L 95.333028 295.488 
L 96.408043 295.488 
L 97.483058 295.488 
L 98.558073 295.488 
L 99.633089 295.488 
L 100.708104 295.488 
L 101.783119 295.488 
L 102.858134 295.488 
L 103.933149 295.488 
L 105.008164 295.488 
L 106.083179 295.488 
L 107.158194 295.488 
L 108.233209 295.488 
L 109.308224 295.488 
L 110.383239 295.488 
L 111.458254 295.488 
L 112.533269 295.488 
L 113.608284 295.488 
L 114.683299 295.488 
L 115.758314 295.488 
L 116.833329 295.488 
L 117.908344 295.488 
L 118.983359 295.488 
L 120.058374 295.488 
L 121.13339 295.488 
L 122.208405 295.488 
L 123.28342 295.488 
L 124.358435 295.488 
L 125.43345 295.488 
L 126.508465 295.488 
L 127.58348 295.488 
L 128.658495 295.488 
L 129.73351 295.488 
L 130.808525 295.488 
L 131.88354 295.488 
L 132.958555 295.488 
L 134.03357 295.488 
L 135.108585 295.488 
L 136.1836 295.488 
L 137.258615 295.488 
L 138.33363 295.488 
L 139.408645 295.488 
L 140.48366 295.488 
L 141.558675 295.488 
L 142.633691 295.488 
L 143.708706 295.488 
L 144.783721 295.488 
L 145.858736 295.488 
L 146.933751 295.488 
L 148.008766 295.488 
L 149.083781 295.488 
L 150.158796 295.488 
L 151.233811 295.488 
L 152.308826 295.488 
L 153.383841 295.488 
L 154.458856 295.488 
L 155.533871 295.488 
L 156.608886 295.488 
L 157.683901 295.488 
L 158.758916 295.488 
L 159.833931 295.488 
L 160.908946 295.488 
L 161.983961 295.488 
L 163.058977 295.488 
L 164.133992 295.488 
L 165.209007 295.488 
L 166.284022 295.488 
L 167.359037 295.488 
L 168.434052 295.488 
L 169.509067 295.488 
L 170.584082 295.488 
L 171.659097 295.488 
L 172.734112 295.488 
L 173.809127 295.488 
L 174.884142 295.488 
L 175.959157 295.488 
L 177.034172 295.488 
L 178.109187 295.488 
L 179.184202 295.488 
L 180.259217 295.488 
L 181.334232 295.488 
L 182.409247 295.488 
L 183.484262 295.488 
L 184.559278 295.488 
L 185.634293 295.488 
L 186.709308 295.488 
L 187.784323 295.488 
L 188.859338 295.488 
L 189.934353 295.488 
L 191.009368 295.488 
L 192.084383 295.488 
L 193.159398 295.488 
L 194.234413 295.488 
L 195.309428 295.488 
L 196.384443 295.488 
L 197.459458 295.488 
L 198.534473 295.488 
L 199.609488 295.488 
L 200.684503 295.488 
L 201.759518 295.488 
L 202.834533 295.488 
L 203.909548 295.488 
L 204.984564 295.488 
L 206.059579 295.488 
L 207.134594 295.488 
L 208.209609 295.488 
L 209.284624 295.488 
L 210.359639 295.488 
L 211.434654 295.488 
L 212.509669 295.488 
L 213.584684 295.488 
L 214.659699 295.488 
L 215.734714 295.488 
L 216.809729 295.488 
L 217.884744 295.488 
L 218.959759 295.488 
L 220.034774 295.488 
L 221.109789 295.488 
L 222.184804 295.488 
L 223.259819 295.488 
L 224.334834 295.488 
L 225.409849 295.488 
L 226.484865 295.488 
L 227.55988 295.488 
L 228.634895 295.488 
L 229.70991 295.488 
L 230.784925 295.488 
L 231.85994 295.488 
L 232.934955 295.488 
L 234.00997 295.488 
L 235.084985 295.488 
L 236.16 295.488 
L 237.235015 295.488 
L 238.31003 295.488 
L 239.385045 295.488 
L 240.46006 295.488 
L 241.535075 295.488 
L 242.61009 295.488 
L 243.685105 295.488 
L 244.76012 295.488 
L 245.835135 295.488 
L 246.910151 295.488 
L 247.985166 295.488 
L 249.060181 295.488 
L 250.135196 295.488 
L 251.210211 295.488 
L 252.285226 295.488 
L 253.360241 295.488 
L 254.435256 295.488 
L 255.510271 295.488 
L 256.585286 295.488 
L 257.660301 295.488 
L 258.735316 295.488 
L 259.810331 295.488 
L 260.885346 295.488 
L 261.960361 295.488 
L 263.035376 295.488 
L 264.110391 295.488 
L 265.185406 295.488 
L 266.260421 295.488 
L 267.335436 295.488 
L 268.410452 295.488 
L 269.485467 295.488 
L 270.560482 295.488 
L 271.635497 295.488 
L 272.710512 295.488 
L 273.785527 295.488 
L 274.860542 295.488 
L 275.935557 295.488 
L 277.010572 295.488 
L 278.085587 295.488 
L 279.160602 295.488 
L 280.235617 295.488 
L 281.310632 295.488 
L 282.385647 295.488 
L 283.460662 295.488 
L 284.535677 295.488 
L 285.610692 295.488 
L 286.685707 295.488 
L 287.760722 295.488 
L 288.835738 295.488 
L 289.910753 295.488 
L 290.985768 295.488 
L 292.060783 295.488 
L 293.135798 295.488 
L 294.210813 295.488 
L 295.285828 295.488 
L 296.360843 295.488 
L 297.435858 295.488 
L 298.510873 295.488 
L 299.585888 295.488 
L 300.660903 295.488 
L 301.735918 295.488 
L 302.810933 295.488 
L 303.885948 295.488 
L 304.960963 295.488 
L 306.035978 295.488 
L 307.110993 295.488 
L 308.186008 295.488 
L 309.261023 295.488 
L 310.336039 295.488 
L 311.411054 295.488 
L 312.486069 295.488 
L 313.561084 295.488 
L 314.636099 295.488 
L 315.711114 295.488 
L 316.786129 295.488 
L 317.861144 295.488 
L 318.936159 295.488 
L 320.011174 295.488 
L 321.086189 295.488 
L 322.161204 295.488 
L 323.236219 295.488 
L 324.311234 295.488 
L 325.386249 295.488 
L 326.461264 295.488 
L 327.536279 295.488 
L 328.611294 295.488 
L 329.686309 295.488 
L 330.761325 295.488 
L 331.83634 295.488 
L 332.911355 295.488 
L 333.98637 295.488 
L 335.061385 295.488 
L 336.1364 295.488 
L 337.211415 295.488 
L 338.28643 295.488 
L 339.361445 295.488 
L 340.43646 295.488 
L 341.511475 295.488 
L 342.58649 295.488 
L 343.661505 295.488 
L 344.73652 295.488 
L 345.811535 295.488 
L 346.88655 295.488 
L 347.961565 295.488 
L 349.03658 295.488 
L 350.111595 295.488 
L 351.18661 295.488 
L 352.261626 295.488 
L 353.336641 295.488 
L 354.411656 295.488 
L 355.486671 295.488 
L 356.561686 295.488 
L 357.636701 295.488 
L 358.711716 295.488 
L 359.786731 295.488 
L 360.861746 295.488 
L 361.936761 295.488 
L 363.011776 295.488 
L 364.086791 295.488 
L 365.161806 295.488 
L 366.236821 295.488 
L 367.311836 295.488 
L 368.386851 295.488 
L 369.461866 295.488 
L 370.536881 295.488 
L 371.611896 295.488 
L 372.686911 295.488 
L 373.761927 295.488 
L 374.836942 295.488 
L 375.911957 295.488 
L 376.986972 295.488 
L 378.061987 295.488 
L 379.137002 295.488 
L 380.212017 295.488 
L 381.287032 295.488 
L 382.362047 295.488 
L 383.437062 295.488 
L 384.512077 295.488 
L 385.587092 295.488 
L 386.662107 295.488 
L 387.737122 295.488 
L 388.812137 295.488 
L 389.887152 295.488 
L 390.962167 295.488 
L 392.037182 295.488 
L 393.112197 295.488 
L 394.187213 295.488 
L 395.262228 295.488 
L 396.337243 295.488 
L 397.412258 295.488 
L 398.487273 295.488 
L 398.487273 295.488 
L 398.487273 295.488 
L 397.412258 295.488 
L 396.337243 295.487999 
L 395.262228 295.487997 
L 394.187213 295.487994 
L 393.112197 295.487986 
L 392.037182 295.48797 
L 390.962167 295.487939 
L 389.887152 295.48788 
L 388.812137 295.487773 
L 387.737122 295.487584 
L 386.662107 295.487265 
L 385.587092 295.486746 
L 384.512077 295.485938 
L 383.437062 295.484728 
L 382.362047 295.48299 
L 381.287032 295.480597 
L 380.212017 295.477446 
L 379.137002 295.473481 
L 378.061987 295.468729 
L 376.986972 295.463318 
L 375.911957 295.457499 
L 374.836942 295.45163 
L 373.761927 295.446154 
L 372.686911 295.441544 
L 371.611896 295.438236 
L 370.536881 295.436563 
L 369.461866 295.436701 
L 368.386851 295.438634 
L 367.311836 295.442161 
L 366.236821 295.44693 
L 365.161806 295.452492 
L 364.086791 295.458376 
L 363.011776 295.464146 
L 361.936761 295.469455 
L 360.861746 295.474068 
L 359.786731 295.477864 
L 358.711716 295.480822 
L 357.636701 295.482995 
L 356.561686 295.484474 
L 355.486671 295.485371 
L 354.411656 295.485792 
L 353.336641 295.485832 
L 352.261626 295.485573 
L 351.18661 295.485083 
L 350.111595 295.484426 
L 349.03658 295.483665 
L 347.961565 295.482866 
L 346.88655 295.482095 
L 345.811535 295.481414 
L 344.73652 295.480872 
L 343.661505 295.480498 
L 342.58649 295.480296 
L 341.511475 295.480242 
L 340.43646 295.480288 
L 339.361445 295.480371 
L 338.28643 295.480427 
L 337.211415 295.480406 
L 336.1364 295.480278 
L 335.061385 295.480045 
L 333.98637 295.479738 
L 332.911355 295.479408 
L 331.83634 295.479117 
L 330.761325 295.478918 
L 329.686309 295.478848 
L 328.611294 295.478912 
L 327.536279 295.479087 
L 326.461264 295.479324 
L 325.386249 295.47956 
L 324.311234 295.479735 
L 323.236219 295.479806 
L 322.161204 295.479754 
L 321.086189 295.479593 
L 320.011174 295.479365 
L 318.936159 295.479127 
L 317.861144 295.47894 
L 316.786129 295.47885 
L 315.711114 295.478881 
L 314.636099 295.479024 
L 313.561084 295.479245 
L 312.486069 295.479488 
L 311.411054 295.479691 
L 310.336039 295.479805 
L 309.261023 295.479799 
L 308.186008 295.479676 
L 307.110993 295.479467 
L 306.035978 295.479225 
L 304.960963 295.479013 
L 303.885948 295.478889 
L 302.810933 295.47889 
L 301.735918 295.479026 
L 300.660903 295.479274 
L 299.585888 295.47959 
L 298.510873 295.479911 
L 297.435858 295.480179 
L 296.360843 295.480347 
L 295.285828 295.480393 
L 294.210813 295.480322 
L 293.135798 295.480161 
L 292.060783 295.479951 
L 290.985768 295.479731 
L 289.910753 295.479527 
L 288.835738 295.479339 
L 287.760722 295.479142 
L 286.685707 295.478887 
L 285.610692 295.478519 
L 284.535677 295.477986 
L 283.460662 295.477264 
L 282.385647 295.476365 
L 281.310632 295.475347 
L 280.235617 295.474305 
L 279.160602 295.473362 
L 278.085587 295.472643 
L 277.010572 295.472255 
L 275.935557 295.472266 
L 274.860542 295.472686 
L 273.785527 295.473473 
L 272.710512 295.474536 
L 271.635497 295.475757 
L 270.560482 295.477005 
L 269.485467 295.478168 
L 268.410452 295.479157 
L 267.335436 295.47992 
L 266.260421 295.480434 
L 265.185406 295.480698 
L 264.110391 295.480715 
L 263.035376 295.48048 
L 261.960361 295.479969 
L 260.885346 295.479139 
L 259.810331 295.477938 
L 258.735316 295.476318 
L 257.660301 295.474262 
L 256.585286 295.471799 
L 255.510271 295.469022 
L 254.435256 295.466086 
L 253.360241 295.463192 
L 252.285226 295.460558 
L 251.210211 295.45838 
L 250.135196 295.456785 
L 249.060181 295.455805 
L 247.985166 295.455359 
L 246.910151 295.455266 
L 245.835135 295.455276 
L 244.76012 295.455127 
L 243.685105 295.454601 
L 242.61009 295.453576 
L 241.535075 295.452056 
L 240.46006 295.450171 
L 239.385045 295.448147 
L 238.31003 295.446249 
L 237.235015 295.444713 
L 236.16 295.443681 
L 235.084985 295.443158 
L 234.00997 295.443003 
L 232.934955 295.442957 
L 231.85994 295.442702 
L 230.784925 295.441943 
L 229.70991 295.440487 
L 228.634895 295.438298 
L 227.55988 295.435525 
L 226.484865 295.432474 
L 225.409849 295.429551 
L 224.334834 295.427165 
L 223.259819 295.425636 
L 222.184804 295.425115 
L 221.109789 295.425542 
L 220.034774 295.426655 
L 218.959759 295.428051 
L 217.884744 295.429275 
L 216.809729 295.429928 
L 215.734714 295.429764 
L 214.659699 295.428741 
L 213.584684 295.427034 
L 212.509669 295.424985 
L 211.434654 295.423014 
L 210.359639 295.42151 
L 209.284624 295.420728 
L 208.209609 295.420722 
L 207.134594 295.421322 
L 206.059579 295.422174 
L 204.984564 295.422829 
L 203.909548 295.422855 
L 202.834533 295.421951 
L 201.759518 295.420028 
L 200.684503 295.417242 
L 199.609488 295.413962 
L 198.534473 295.410682 
L 197.459458 295.407902 
L 196.384443 295.405994 
L 195.309428 295.405106 
L 194.234413 295.405111 
L 193.159398 295.405631 
L 192.084383 295.406119 
L 191.009368 295.405999 
L 189.934353 295.404804 
L 188.859338 295.402309 
L 187.784323 295.398589 
L 186.709308 295.394019 
L 185.634293 295.389186 
L 184.559278 295.384744 
L 183.484262 295.381249 
L 182.409247 295.379002 
L 181.334232 295.377963 
L 180.259217 295.377735 
L 179.184202 295.377657 
L 178.109187 295.376956 
L 177.034172 295.374958 
L 175.959157 295.371273 
L 174.884142 295.365939 
L 173.809127 295.359469 
L 172.734112 295.352783 
L 171.659097 295.347057 
L 170.584082 295.343491 
L 169.509067 295.343068 
L 168.434052 295.34634 
L 167.359037 295.353267 
L 166.284022 295.363122 
L 165.209007 295.37442 
L 164.133992 295.384816 
L 163.058977 295.390867 
L 161.983961 295.387588 
L 160.908946 295.36772 
L 159.833931 295.320729 
L 158.758916 295.231631 
L 157.683901 295.079921 
L 156.608886 294.838995 
L 155.533871 294.476615 
L 154.458856 293.956927 
L 153.383841 293.244374 
L 152.308826 292.309378 
L 151.233811 291.134982 
L 150.158796 289.722834 
L 149.083781 288.096247 
L 148.008766 286.297873 
L 146.933751 284.38012 
L 145.858736 282.387969 
L 144.783721 280.336152 
L 143.708706 278.185315 
L 142.633691 275.823983 
L 141.558675 273.064039 
L 140.48366 269.656236 
L 139.408645 265.328666 
L 138.33363 259.845467 
L 137.258615 253.076399 
L 136.1836 245.062078 
L 135.108585 236.056606 
L 134.03357 226.530811 
L 132.958555 217.126085 
L 131.88354 208.56006 
L 130.808525 201.498612 
L 129.73351 196.420316 
L 128.658495 193.505576 
L 127.58348 192.580584 
L 126.508465 193.135503 
L 125.43345 194.418982 
L 124.358435 195.591665 
L 123.28342 195.904985 
L 122.208405 194.862957 
L 121.13339 192.326609 
L 120.058374 188.533107 
L 118.983359 184.021822 
L 117.908344 179.482743 
L 116.833329 175.563007 
L 115.758314 172.679634 
L 114.683299 170.887312 
L 113.608284 169.83845 
L 112.533269 168.851081 
L 111.458254 167.073436 
L 110.383239 163.708723 
L 109.308224 158.246196 
L 108.233209 150.639893 
L 107.158194 141.38628 
L 106.083179 131.474798 
L 105.008164 122.215914 
L 103.933149 114.982221 
L 102.858134 110.92147 
L 101.783119 110.709456 
L 100.708104 114.402545 
L 99.633089 121.425809 
L 98.558073 130.699422 
L 97.483058 140.871957 
L 96.408043 150.60364 
L 95.333028 158.831991 
L 94.258013 164.958937 
L 93.182998 168.919974 
L 92.107983 171.126121 
L 91.032968 172.30036 
L 89.957953 173.254413 
L 88.882938 174.663552 
L 87.807923 176.894629 
L 86.732908 179.926889 
L 85.657893 183.380674 
L 84.582878 186.642219 
L 83.507863 189.049657 
L 82.432848 190.091679 
L 81.357833 189.56874 
L 80.282818 187.67739 
L 79.207803 184.998105 
L 78.132787 182.390985 
L 77.057772 180.825766 
L 75.982757 181.187486 
L 74.907742 184.10316 
L 73.832727 189.827469 
z
" clip-path="url(#p25465fe055)" style="fill: #1f77b4; fill-opacity: 0.25"/>
   </g>
   <g id="PolyCollection_2">
    <path d="M 73.832727 217.342682 
L 73.832727 295.488 
L 74.907742 295.488 
L 75.982757 295.488 
L 77.057772 295.488 
L 78.132787 295.488 
L 79.207803 295.488 
L 80.282818 295.488 
L 81.357833 295.488 
L 82.432848 295.488 
L 83.507863 295.488 
L 84.582878 295.488 
L 85.657893 295.488 
L 86.732908 295.488 
L 87.807923 295.488 
L 88.882938 295.488 
L 89.957953 295.488 
L 91.032968 295.488 
L 92.107983 295.488 
L 93.182998 295.488 
L 94.258013 295.488 
L 95.333028 295.488 
L 96.408043 295.488 
L 97.483058 295.488 
L 98.558073 295.488 
L 99.633089 295.488 
L 100.708104 295.488 
L 101.783119 295.488 
L 102.858134 295.488 
L 103.933149 295.488 
L 105.008164 295.488 
L 106.083179 295.488 
L 107.158194 295.488 
L 108.233209 295.488 
L 109.308224 295.488 
L 110.383239 295.488 
L 111.458254 295.488 
L 112.533269 295.488 
L 113.608284 295.488 
L 114.683299 295.488 
L 115.758314 295.488 
L 116.833329 295.488 
L 117.908344 295.488 
L 118.983359 295.488 
L 120.058374 295.488 
L 121.13339 295.488 
L 122.208405 295.488 
L 123.28342 295.488 
L 124.358435 295.488 
L 125.43345 295.488 
L 126.508465 295.488 
L 127.58348 295.488 
L 128.658495 295.488 
L 129.73351 295.488 
L 130.808525 295.488 
L 131.88354 295.488 
L 132.958555 295.488 
L 134.03357 295.488 
L 135.108585 295.488 
L 136.1836 295.488 
L 137.258615 295.488 
L 138.33363 295.488 
L 139.408645 295.488 
L 140.48366 295.488 
L 141.558675 295.488 
L 142.633691 295.488 
L 143.708706 295.488 
L 144.783721 295.488 
L 145.858736 295.488 
L 146.933751 295.488 
L 148.008766 295.488 
L 149.083781 295.488 
L 150.158796 295.488 
L 151.233811 295.488 
L 152.308826 295.488 
L 153.383841 295.488 
L 154.458856 295.488 
L 155.533871 295.488 
L 156.608886 295.488 
L 157.683901 295.488 
L 158.758916 295.488 
L 159.833931 295.488 
L 160.908946 295.488 
L 161.983961 295.488 
L 163.058977 295.488 
L 164.133992 295.488 
L 165.209007 295.488 
L 166.284022 295.488 
L 167.359037 295.488 
L 168.434052 295.488 
L 169.509067 295.488 
L 170.584082 295.488 
L 171.659097 295.488 
L 172.734112 295.488 
L 173.809127 295.488 
L 174.884142 295.488 
L 175.959157 295.488 
L 177.034172 295.488 
L 178.109187 295.488 
L 179.184202 295.488 
L 180.259217 295.488 
L 181.334232 295.488 
L 182.409247 295.488 
L 183.484262 295.488 
L 184.559278 295.488 
L 185.634293 295.488 
L 186.709308 295.488 
L 187.784323 295.488 
L 188.859338 295.488 
L 189.934353 295.488 
L 191.009368 295.488 
L 192.084383 295.488 
L 193.159398 295.488 
L 194.234413 295.488 
L 195.309428 295.488 
L 196.384443 295.488 
L 197.459458 295.488 
L 198.534473 295.488 
L 199.609488 295.488 
L 200.684503 295.488 
L 201.759518 295.488 
L 202.834533 295.488 
L 203.909548 295.488 
L 204.984564 295.488 
L 206.059579 295.488 
L 207.134594 295.488 
L 208.209609 295.488 
L 209.284624 295.488 
L 210.359639 295.488 
L 211.434654 295.488 
L 212.509669 295.488 
L 213.584684 295.488 
L 214.659699 295.488 
L 215.734714 295.488 
L 216.809729 295.488 
L 217.884744 295.488 
L 218.959759 295.488 
L 220.034774 295.488 
L 221.109789 295.488 
L 222.184804 295.488 
L 223.259819 295.488 
L 224.334834 295.488 
L 225.409849 295.488 
L 226.484865 295.488 
L 227.55988 295.488 
L 228.634895 295.488 
L 229.70991 295.488 
L 230.784925 295.488 
L 231.85994 295.488 
L 232.934955 295.488 
L 234.00997 295.488 
L 235.084985 295.488 
L 236.16 295.488 
L 237.235015 295.488 
L 238.31003 295.488 
L 239.385045 295.488 
L 240.46006 295.488 
L 241.535075 295.488 
L 242.61009 295.488 
L 243.685105 295.488 
L 244.76012 295.488 
L 245.835135 295.488 
L 246.910151 295.488 
L 247.985166 295.488 
L 249.060181 295.488 
L 250.135196 295.488 
L 251.210211 295.488 
L 252.285226 295.488 
L 253.360241 295.488 
L 254.435256 295.488 
L 255.510271 295.488 
L 256.585286 295.488 
L 257.660301 295.488 
L 258.735316 295.488 
L 259.810331 295.488 
L 260.885346 295.488 
L 261.960361 295.488 
L 263.035376 295.488 
L 264.110391 295.488 
L 265.185406 295.488 
L 266.260421 295.488 
L 267.335436 295.488 
L 268.410452 295.488 
L 269.485467 295.488 
L 270.560482 295.488 
L 271.635497 295.488 
L 272.710512 295.488 
L 273.785527 295.488 
L 274.860542 295.488 
L 275.935557 295.488 
L 277.010572 295.488 
L 278.085587 295.488 
L 279.160602 295.488 
L 280.235617 295.488 
L 281.310632 295.488 
L 282.385647 295.488 
L 283.460662 295.488 
L 284.535677 295.488 
L 285.610692 295.488 
L 286.685707 295.488 
L 287.760722 295.488 
L 288.835738 295.488 
L 289.910753 295.488 
L 290.985768 295.488 
L 292.060783 295.488 
L 293.135798 295.488 
L 294.210813 295.488 
L 295.285828 295.488 
L 296.360843 295.488 
L 297.435858 295.488 
L 298.510873 295.488 
L 299.585888 295.488 
L 300.660903 295.488 
L 301.735918 295.488 
L 302.810933 295.488 
L 303.885948 295.488 
L 304.960963 295.488 
L 306.035978 295.488 
L 307.110993 295.488 
L 308.186008 295.488 
L 309.261023 295.488 
L 310.336039 295.488 
L 311.411054 295.488 
L 312.486069 295.488 
L 313.561084 295.488 
L 314.636099 295.488 
L 315.711114 295.488 
L 316.786129 295.488 
L 317.861144 295.488 
L 318.936159 295.488 
L 320.011174 295.488 
L 321.086189 295.488 
L 322.161204 295.488 
L 323.236219 295.488 
L 324.311234 295.488 
L 325.386249 295.488 
L 326.461264 295.488 
L 327.536279 295.488 
L 328.611294 295.488 
L 329.686309 295.488 
L 330.761325 295.488 
L 331.83634 295.488 
L 332.911355 295.488 
L 333.98637 295.488 
L 335.061385 295.488 
L 336.1364 295.488 
L 337.211415 295.488 
L 338.28643 295.488 
L 339.361445 295.488 
L 340.43646 295.488 
L 341.511475 295.488 
L 342.58649 295.488 
L 343.661505 295.488 
L 344.73652 295.488 
L 345.811535 295.488 
L 346.88655 295.488 
L 347.961565 295.488 
L 349.03658 295.488 
L 350.111595 295.488 
L 351.18661 295.488 
L 352.261626 295.488 
L 353.336641 295.488 
L 354.411656 295.488 
L 355.486671 295.488 
L 356.561686 295.488 
L 357.636701 295.488 
L 358.711716 295.488 
L 359.786731 295.488 
L 360.861746 295.488 
L 361.936761 295.488 
L 363.011776 295.488 
L 364.086791 295.488 
L 365.161806 295.488 
L 366.236821 295.488 
L 367.311836 295.488 
L 368.386851 295.488 
L 369.461866 295.488 
L 370.536881 295.488 
L 371.611896 295.488 
L 372.686911 295.488 
L 373.761927 295.488 
L 374.836942 295.488 
L 375.911957 295.488 
L 376.986972 295.488 
L 378.061987 295.488 
L 379.137002 295.488 
L 380.212017 295.488 
L 381.287032 295.488 
L 382.362047 295.488 
L 383.437062 295.488 
L 384.512077 295.488 
L 385.587092 295.488 
L 386.662107 295.488 
L 387.737122 295.488 
L 388.812137 295.488 
L 389.887152 295.488 
L 390.962167 295.488 
L 392.037182 295.488 
L 393.112197 295.488 
L 394.187213 295.488 
L 395.262228 295.488 
L 396.337243 295.488 
L 397.412258 295.488 
L 398.487273 295.488 
L 398.487273 295.488 
L 398.487273 295.488 
L 397.412258 295.488 
L 396.337243 295.488 
L 395.262228 295.488 
L 394.187213 295.488 
L 393.112197 295.488 
L 392.037182 295.488 
L 390.962167 295.487999 
L 389.887152 295.487998 
L 388.812137 295.487997 
L 387.737122 295.487994 
L 386.662107 295.48799 
L 385.587092 295.487983 
L 384.512077 295.487973 
L 383.437062 295.487957 
L 382.362047 295.487934 
L 381.287032 295.487902 
L 380.212017 295.48786 
L 379.137002 295.487807 
L 378.061987 295.487744 
L 376.986972 295.487673 
L 375.911957 295.487595 
L 374.836942 295.487517 
L 373.761927 295.487445 
L 372.686911 295.487384 
L 371.611896 295.48734 
L 370.536881 295.487318 
L 369.461866 295.487319 
L 368.386851 295.487345 
L 367.311836 295.487392 
L 366.236821 295.487455 
L 365.161806 295.487529 
L 364.086791 295.487607 
L 363.011776 295.487683 
L 361.936761 295.487753 
L 360.861746 295.487814 
L 359.786731 295.487864 
L 358.711716 295.487902 
L 357.636701 295.487929 
L 356.561686 295.487946 
L 355.486671 295.487955 
L 354.411656 295.487955 
L 353.336641 295.487949 
L 352.261626 295.487938 
L 351.18661 295.487922 
L 350.111595 295.487902 
L 349.03658 295.48788 
L 347.961565 295.487858 
L 346.88655 295.487838 
L 345.811535 295.48782 
L 344.73652 295.487808 
L 343.661505 295.487802 
L 342.58649 295.487803 
L 341.511475 295.487811 
L 340.43646 295.487825 
L 339.361445 295.487842 
L 338.28643 295.487862 
L 337.211415 295.48788 
L 336.1364 295.487894 
L 335.061385 295.487899 
L 333.98637 295.487891 
L 332.911355 295.487862 
L 331.83634 295.487803 
L 330.761325 295.487703 
L 329.686309 295.487548 
L 328.611294 295.487322 
L 327.536279 295.48701 
L 326.461264 295.486599 
L 325.386249 295.486083 
L 324.311234 295.485466 
L 323.236219 295.484761 
L 322.161204 295.483998 
L 321.086189 295.483211 
L 320.011174 295.482442 
L 318.936159 295.481727 
L 317.861144 295.481087 
L 316.786129 295.480525 
L 315.711114 295.480011 
L 314.636099 295.479495 
L 313.561084 295.478904 
L 312.486069 295.478167 
L 311.411054 295.477222 
L 310.336039 295.476043 
L 309.261023 295.474645 
L 308.186008 295.473095 
L 307.110993 295.4715 
L 306.035978 295.469989 
L 304.960963 295.468685 
L 303.885948 295.467678 
L 302.810933 295.467 
L 301.735918 295.466611 
L 300.660903 295.466404 
L 299.585888 295.466227 
L 298.510873 295.465912 
L 297.435858 295.46532 
L 296.360843 295.464374 
L 295.285828 295.463085 
L 294.210813 295.46155 
L 293.135798 295.459941 
L 292.060783 295.458461 
L 290.985768 295.457303 
L 289.910753 295.456598 
L 288.835738 295.456385 
L 287.760722 295.456593 
L 286.685707 295.457061 
L 285.610692 295.457566 
L 284.535677 295.457878 
L 283.460662 295.457813 
L 282.385647 295.457272 
L 281.310632 295.45626 
L 280.235617 295.454879 
L 279.160602 295.453292 
L 278.085587 295.451665 
L 277.010572 295.45011 
L 275.935557 295.448635 
L 274.860542 295.447124 
L 273.785527 295.445347 
L 272.710512 295.443011 
L 271.635497 295.439829 
L 270.560482 295.435608 
L 269.485467 295.430318 
L 268.410452 295.424128 
L 267.335436 295.417388 
L 266.260421 295.410569 
L 265.185406 295.404143 
L 264.110391 295.398459 
L 263.035376 295.393622 
L 261.960361 295.389424 
L 260.885346 295.385346 
L 259.810331 295.380648 
L 258.735316 295.374529 
L 257.660301 295.366332 
L 256.585286 295.355739 
L 255.510271 295.34291 
L 254.435256 295.328522 
L 253.360241 295.313672 
L 252.285226 295.299675 
L 251.210211 295.287774 
L 250.135196 295.278836 
L 249.060181 295.273117 
L 247.985166 295.270148 
L 246.910151 295.268797 
L 245.835135 295.267499 
L 244.76012 295.264614 
L 243.685105 295.258828 
L 242.61009 295.24951 
L 241.535075 295.23692 
L 240.46006 295.22222 
L 239.385045 295.207269 
L 238.31003 295.194234 
L 237.235015 295.185119 
L 236.16 295.181308 
L 235.084985 295.183245 
L 234.00997 295.190322 
L 232.934955 295.20101 
L 231.85994 295.213204 
L 230.784925 295.22469 
L 229.70991 295.233637 
L 228.634895 295.238971 
L 227.55988 295.240578 
L 226.484865 295.239254 
L 225.409849 295.236451 
L 224.334834 295.23387 
L 223.259819 295.233014 
L 222.184804 295.234801 
L 221.109789 295.239341 
L 220.034774 295.245928 
L 218.959759 295.253234 
L 217.884744 295.259663 
L 216.809729 295.263766 
L 215.734714 295.264616 
L 214.659699 295.262042 
L 213.584684 295.256668 
L 212.509669 295.249748 
L 211.434654 295.242832 
L 210.359639 295.237354 
L 209.284624 295.234246 
L 208.209609 295.233677 
L 207.134594 295.234986 
L 206.059579 295.236832 
L 204.984564 295.237535 
L 203.909548 295.235515 
L 202.834533 295.229729 
L 201.759518 295.219989 
L 200.684503 295.207082 
L 199.609488 295.192642 
L 198.534473 295.178806 
L 197.459458 295.167731 
L 196.384443 295.161085 
L 195.309428 295.159634 
L 194.234413 295.163041 
L 193.159398 295.169924 
L 192.084383 295.178163 
L 191.009368 295.185384 
L 189.934353 295.189497 
L 188.859338 295.189161 
L 187.784323 295.184035 
L 186.709308 295.174774 
L 185.634293 295.162737 
L 184.559278 295.149501 
L 183.484262 295.136287 
L 182.409247 295.123459 
L 181.334232 295.110244 
L 180.259217 295.094764 
L 179.184202 295.074407 
L 178.109187 295.046469 
L 177.034172 295.008916 
L 175.959157 294.961062 
L 174.884142 294.903959 
L 173.809127 294.840338 
L 172.734112 294.774037 
L 171.659097 294.708996 
L 170.584082 294.648025 
L 169.509067 294.591636 
L 168.434052 294.537301 
L 167.359037 294.479375 
L 166.284022 294.409829 
L 165.209007 294.319686 
L 164.133992 294.200811 
L 163.058977 294.047542 
L 161.983961 293.857528 
L 160.908946 293.631236 
L 159.833931 293.369848 
L 158.758916 293.071688 
L 157.683901 292.72783 
L 156.608886 292.318058 
L 155.533871 291.808616 
L 154.458856 291.153208 
L 153.383841 290.298182 
L 152.308826 289.191948 
L 151.233811 287.797345 
L 150.158796 286.104369 
L 149.083781 284.139626 
L 148.008766 281.96866 
L 146.933751 279.688181 
L 145.858736 277.407313 
L 144.783721 275.219967 
L 143.708706 273.173688 
L 142.633691 271.242838 
L 141.558675 269.314822 
L 140.48366 267.196553 
L 139.408645 264.644418 
L 138.33363 261.415185 
L 137.258615 257.328949 
L 136.1836 252.329959 
L 135.108585 246.528847 
L 134.03357 240.21151 
L 132.958555 233.80619 
L 131.88354 227.810011 
L 130.808525 222.687363 
L 129.73351 218.761977 
L 128.658495 216.129386 
L 127.58348 214.614569 
L 126.508465 213.790692 
L 125.43345 213.060562 
L 124.358435 211.786253 
L 123.28342 209.438418 
L 122.208405 205.729228 
L 121.13339 200.693984 
L 120.058374 194.696822 
L 118.983359 188.353494 
L 117.908344 182.385001 
L 116.833329 177.434715 
L 115.758314 173.893553 
L 114.683299 171.778926 
L 113.608284 170.702664 
L 112.533269 169.942599 
L 111.458254 168.606877 
L 110.383239 165.855487 
L 109.308224 161.126579 
L 108.233209 154.310512 
L 107.158194 145.824319 
L 106.083179 136.561568 
L 105.008164 127.722695 
L 103.933149 120.561269 
L 102.858134 116.104616 
L 101.783119 114.916237 
L 100.708104 116.959432 
L 99.633089 121.597979 
L 98.558073 127.736274 
L 97.483058 134.06673 
L 96.408043 139.365549 
L 95.333028 142.766085 
L 94.258013 143.945006 
L 93.182998 143.178386 
L 92.107983 141.257078 
L 91.032968 139.284864 
L 89.957953 138.410507 
L 88.882938 139.559254 
L 87.807923 143.227243 
L 86.732908 149.384658 
L 85.657893 157.505298 
L 84.582878 166.708902 
L 83.507863 175.97629 
L 82.432848 184.382447 
L 81.357833 191.292178 
L 80.282818 196.47598 
L 79.207803 200.125938 
L 78.132787 202.776653 
L 77.057772 205.157795 
L 75.982757 208.01817 
L 74.907742 211.963558 
L 73.832727 217.342682 
z
" clip-path="url(#p25465fe055)" style="fill: #ff7f0e; fill-opacity: 0.25"/>
   </g>
   <g id="PolyCollection_3">
    <path d="M 73.832727 226.81425 
L 73.832727 295.488 
L 74.907742 295.488 
L 75.982757 295.488 
L 77.057772 295.488 
L 78.132787 295.488 
L 79.207803 295.488 
L 80.282818 295.488 
L 81.357833 295.488 
L 82.432848 295.488 
L 83.507863 295.488 
L 84.582878 295.488 
L 85.657893 295.488 
L 86.732908 295.488 
L 87.807923 295.488 
L 88.882938 295.488 
L 89.957953 295.488 
L 91.032968 295.488 
L 92.107983 295.488 
L 93.182998 295.488 
L 94.258013 295.488 
L 95.333028 295.488 
L 96.408043 295.488 
L 97.483058 295.488 
L 98.558073 295.488 
L 99.633089 295.488 
L 100.708104 295.488 
L 101.783119 295.488 
L 102.858134 295.488 
L 103.933149 295.488 
L 105.008164 295.488 
L 106.083179 295.488 
L 107.158194 295.488 
L 108.233209 295.488 
L 109.308224 295.488 
L 110.383239 295.488 
L 111.458254 295.488 
L 112.533269 295.488 
L 113.608284 295.488 
L 114.683299 295.488 
L 115.758314 295.488 
L 116.833329 295.488 
L 117.908344 295.488 
L 118.983359 295.488 
L 120.058374 295.488 
L 121.13339 295.488 
L 122.208405 295.488 
L 123.28342 295.488 
L 124.358435 295.488 
L 125.43345 295.488 
L 126.508465 295.488 
L 127.58348 295.488 
L 128.658495 295.488 
L 129.73351 295.488 
L 130.808525 295.488 
L 131.88354 295.488 
L 132.958555 295.488 
L 134.03357 295.488 
L 135.108585 295.488 
L 136.1836 295.488 
L 137.258615 295.488 
L 138.33363 295.488 
L 139.408645 295.488 
L 140.48366 295.488 
L 141.558675 295.488 
L 142.633691 295.488 
L 143.708706 295.488 
L 144.783721 295.488 
L 145.858736 295.488 
L 146.933751 295.488 
L 148.008766 295.488 
L 149.083781 295.488 
L 150.158796 295.488 
L 151.233811 295.488 
L 152.308826 295.488 
L 153.383841 295.488 
L 154.458856 295.488 
L 155.533871 295.488 
L 156.608886 295.488 
L 157.683901 295.488 
L 158.758916 295.488 
L 159.833931 295.488 
L 160.908946 295.488 
L 161.983961 295.488 
L 163.058977 295.488 
L 164.133992 295.488 
L 165.209007 295.488 
L 166.284022 295.488 
L 167.359037 295.488 
L 168.434052 295.488 
L 169.509067 295.488 
L 170.584082 295.488 
L 171.659097 295.488 
L 172.734112 295.488 
L 173.809127 295.488 
L 174.884142 295.488 
L 175.959157 295.488 
L 177.034172 295.488 
L 178.109187 295.488 
L 179.184202 295.488 
L 180.259217 295.488 
L 181.334232 295.488 
L 182.409247 295.488 
L 183.484262 295.488 
L 184.559278 295.488 
L 185.634293 295.488 
L 186.709308 295.488 
L 187.784323 295.488 
L 188.859338 295.488 
L 189.934353 295.488 
L 191.009368 295.488 
L 192.084383 295.488 
L 193.159398 295.488 
L 194.234413 295.488 
L 195.309428 295.488 
L 196.384443 295.488 
L 197.459458 295.488 
L 198.534473 295.488 
L 199.609488 295.488 
L 200.684503 295.488 
L 201.759518 295.488 
L 202.834533 295.488 
L 203.909548 295.488 
L 204.984564 295.488 
L 206.059579 295.488 
L 207.134594 295.488 
L 208.209609 295.488 
L 209.284624 295.488 
L 210.359639 295.488 
L 211.434654 295.488 
L 212.509669 295.488 
L 213.584684 295.488 
L 214.659699 295.488 
L 215.734714 295.488 
L 216.809729 295.488 
L 217.884744 295.488 
L 218.959759 295.488 
L 220.034774 295.488 
L 221.109789 295.488 
L 222.184804 295.488 
L 223.259819 295.488 
L 224.334834 295.488 
L 225.409849 295.488 
L 226.484865 295.488 
L 227.55988 295.488 
L 228.634895 295.488 
L 229.70991 295.488 
L 230.784925 295.488 
L 231.85994 295.488 
L 232.934955 295.488 
L 234.00997 295.488 
L 235.084985 295.488 
L 236.16 295.488 
L 237.235015 295.488 
L 238.31003 295.488 
L 239.385045 295.488 
L 240.46006 295.488 
L 241.535075 295.488 
L 242.61009 295.488 
L 243.685105 295.488 
L 244.76012 295.488 
L 245.835135 295.488 
L 246.910151 295.488 
L 247.985166 295.488 
L 249.060181 295.488 
L 250.135196 295.488 
L 251.210211 295.488 
L 252.285226 295.488 
L 253.360241 295.488 
L 254.435256 295.488 
L 255.510271 295.488 
L 256.585286 295.488 
L 257.660301 295.488 
L 258.735316 295.488 
L 259.810331 295.488 
L 260.885346 295.488 
L 261.960361 295.488 
L 263.035376 295.488 
L 264.110391 295.488 
L 265.185406 295.488 
L 266.260421 295.488 
L 267.335436 295.488 
L 268.410452 295.488 
L 269.485467 295.488 
L 270.560482 295.488 
L 271.635497 295.488 
L 272.710512 295.488 
L 273.785527 295.488 
L 274.860542 295.488 
L 275.935557 295.488 
L 277.010572 295.488 
L 278.085587 295.488 
L 279.160602 295.488 
L 280.235617 295.488 
L 281.310632 295.488 
L 282.385647 295.488 
L 283.460662 295.488 
L 284.535677 295.488 
L 285.610692 295.488 
L 286.685707 295.488 
L 287.760722 295.488 
L 288.835738 295.488 
L 289.910753 295.488 
L 290.985768 295.488 
L 292.060783 295.488 
L 293.135798 295.488 
L 294.210813 295.488 
L 295.285828 295.488 
L 296.360843 295.488 
L 297.435858 295.488 
L 298.510873 295.488 
L 299.585888 295.488 
L 300.660903 295.488 
L 301.735918 295.488 
L 302.810933 295.488 
L 303.885948 295.488 
L 304.960963 295.488 
L 306.035978 295.488 
L 307.110993 295.488 
L 308.186008 295.488 
L 309.261023 295.488 
L 310.336039 295.488 
L 311.411054 295.488 
L 312.486069 295.488 
L 313.561084 295.488 
L 314.636099 295.488 
L 315.711114 295.488 
L 316.786129 295.488 
L 317.861144 295.488 
L 318.936159 295.488 
L 320.011174 295.488 
L 321.086189 295.488 
L 322.161204 295.488 
L 323.236219 295.488 
L 324.311234 295.488 
L 325.386249 295.488 
L 326.461264 295.488 
L 327.536279 295.488 
L 328.611294 295.488 
L 329.686309 295.488 
L 330.761325 295.488 
L 331.83634 295.488 
L 332.911355 295.488 
L 333.98637 295.488 
L 335.061385 295.488 
L 336.1364 295.488 
L 337.211415 295.488 
L 338.28643 295.488 
L 339.361445 295.488 
L 340.43646 295.488 
L 341.511475 295.488 
L 342.58649 295.488 
L 343.661505 295.488 
L 344.73652 295.488 
L 345.811535 295.488 
L 346.88655 295.488 
L 347.961565 295.488 
L 349.03658 295.488 
L 350.111595 295.488 
L 351.18661 295.488 
L 352.261626 295.488 
L 353.336641 295.488 
L 354.411656 295.488 
L 355.486671 295.488 
L 356.561686 295.488 
L 357.636701 295.488 
L 358.711716 295.488 
L 359.786731 295.488 
L 360.861746 295.488 
L 361.936761 295.488 
L 363.011776 295.488 
L 364.086791 295.488 
L 365.161806 295.488 
L 366.236821 295.488 
L 367.311836 295.488 
L 368.386851 295.488 
L 369.461866 295.488 
L 370.536881 295.488 
L 371.611896 295.488 
L 372.686911 295.488 
L 373.761927 295.488 
L 374.836942 295.488 
L 375.911957 295.488 
L 376.986972 295.488 
L 378.061987 295.488 
L 379.137002 295.488 
L 380.212017 295.488 
L 381.287032 295.488 
L 382.362047 295.488 
L 383.437062 295.488 
L 384.512077 295.488 
L 385.587092 295.488 
L 386.662107 295.488 
L 387.737122 295.488 
L 388.812137 295.488 
L 389.887152 295.488 
L 390.962167 295.488 
L 392.037182 295.488 
L 393.112197 295.488 
L 394.187213 295.488 
L 395.262228 295.488 
L 396.337243 295.488 
L 397.412258 295.488 
L 398.487273 295.488 
L 398.487273 295.463094 
L 398.487273 295.463094 
L 397.412258 295.462179 
L 396.337243 295.46217 
L 395.262228 295.463067 
L 394.187213 295.464779 
L 393.112197 295.467132 
L 392.037182 295.469904 
L 390.962167 295.47286 
L 389.887152 295.475777 
L 388.812137 295.478478 
L 387.737122 295.480843 
L 386.662107 295.482809 
L 385.587092 295.484368 
L 384.512077 295.485547 
L 383.437062 295.486402 
L 382.362047 295.486995 
L 381.287032 295.48739 
L 380.212017 295.487643 
L 379.137002 295.487797 
L 378.061987 295.487887 
L 376.986972 295.487935 
L 375.911957 295.487957 
L 374.836942 295.487961 
L 373.761927 295.487948 
L 372.686911 295.487919 
L 371.611896 295.487868 
L 370.536881 295.487789 
L 369.461866 295.487673 
L 368.386851 295.487509 
L 367.311836 295.487288 
L 366.236821 295.487004 
L 365.161806 295.486655 
L 364.086791 295.486247 
L 363.011776 295.485793 
L 361.936761 295.485317 
L 360.861746 295.484847 
L 359.786731 295.484416 
L 358.711716 295.484052 
L 357.636701 295.483779 
L 356.561686 295.483603 
L 355.486671 295.483521 
L 354.411656 295.483509 
L 353.336641 295.483536 
L 352.261626 295.483563 
L 351.18661 295.483557 
L 350.111595 295.483494 
L 349.03658 295.483367 
L 347.961565 295.483185 
L 346.88655 295.482975 
L 345.811535 295.482772 
L 344.73652 295.482613 
L 343.661505 295.482527 
L 342.58649 295.482528 
L 341.511475 295.482611 
L 340.43646 295.482755 
L 339.361445 295.482926 
L 338.28643 295.483086 
L 337.211415 295.483201 
L 336.1364 295.483249 
L 335.061385 295.483226 
L 333.98637 295.483147 
L 332.911355 295.483039 
L 331.83634 295.482935 
L 330.761325 295.482868 
L 329.686309 295.482859 
L 328.611294 295.482913 
L 327.536279 295.483021 
L 326.461264 295.483157 
L 325.386249 295.483287 
L 324.311234 295.483381 
L 323.236219 295.483413 
L 322.161204 295.483377 
L 321.086189 295.48328 
L 320.011174 295.483146 
L 318.936159 295.483008 
L 317.861144 295.482901 
L 316.786129 295.48285 
L 315.711114 295.482869 
L 314.636099 295.482955 
L 313.561084 295.483086 
L 312.486069 295.483232 
L 311.411054 295.483358 
L 310.336039 295.483435 
L 309.261023 295.483445 
L 308.186008 295.483387 
L 307.110993 295.483276 
L 306.035978 295.483141 
L 304.960963 295.483012 
L 303.885948 295.482917 
L 302.810933 295.482875 
L 301.735918 295.482884 
L 300.660903 295.482931 
L 299.585888 295.482986 
L 298.510873 295.483016 
L 297.435858 295.482991 
L 296.360843 295.482893 
L 295.285828 295.482724 
L 294.210813 295.482505 
L 293.135798 295.482274 
L 292.060783 295.48208 
L 290.985768 295.481974 
L 289.910753 295.481997 
L 288.835738 295.482174 
L 287.760722 295.48251 
L 286.685707 295.482986 
L 285.610692 295.483569 
L 284.535677 295.484214 
L 283.460662 295.484871 
L 282.385647 295.485497 
L 281.310632 295.486055 
L 280.235617 295.48652 
L 279.160602 295.486875 
L 278.085587 295.487114 
L 277.010572 295.487234 
L 275.935557 295.487231 
L 274.860542 295.487105 
L 273.785527 295.486853 
L 272.710512 295.486475 
L 271.635497 295.485974 
L 270.560482 295.485361 
L 269.485467 295.484655 
L 268.410452 295.483883 
L 267.335436 295.483081 
L 266.260421 295.482281 
L 265.185406 295.481506 
L 264.110391 295.480761 
L 263.035376 295.480024 
L 261.960361 295.479243 
L 260.885346 295.478341 
L 259.810331 295.47723 
L 258.735316 295.475828 
L 257.660301 295.474085 
L 256.585286 295.472001 
L 255.510271 295.469646 
L 254.435256 295.467157 
L 253.360241 295.464729 
L 252.285226 295.462585 
L 251.210211 295.460939 
L 250.135196 295.459958 
L 249.060181 295.459728 
L 247.985166 295.460234 
L 246.910151 295.461364 
L 245.835135 295.46293 
L 244.76012 295.464699 
L 243.685105 295.466439 
L 242.61009 295.467954 
L 241.535075 295.469111 
L 240.46006 295.469844 
L 239.385045 295.470144 
L 238.31003 295.470028 
L 237.235015 295.46951 
L 236.16 295.468566 
L 235.084985 295.467116 
L 234.00997 295.465028 
L 232.934955 295.462146 
L 231.85994 295.458325 
L 230.784925 295.453492 
L 229.70991 295.447693 
L 228.634895 295.441116 
L 227.55988 295.434088 
L 226.484865 295.427031 
L 225.409849 295.420377 
L 224.334834 295.414467 
L 223.259819 295.409448 
L 222.184804 295.405205 
L 221.109789 295.401346 
L 220.034774 295.397254 
L 218.959759 295.392213 
L 217.884744 295.385574 
L 216.809729 295.376935 
L 215.734714 295.366288 
L 214.659699 295.354084 
L 213.584684 295.341203 
L 212.509669 295.328808 
L 211.434654 295.318116 
L 210.359639 295.31014 
L 209.284624 295.305443 
L 208.209609 295.30399 
L 207.134594 295.305124 
L 206.059579 295.307691 
L 204.984564 295.31028 
L 203.909548 295.311532 
L 202.834533 295.310439 
L 201.759518 295.306555 
L 200.684503 295.300071 
L 199.609488 295.291713 
L 198.534473 295.282495 
L 197.459458 295.273387 
L 196.384443 295.264965 
L 195.309428 295.257163 
L 194.234413 295.249177 
L 193.159398 295.239584 
L 192.084383 295.226653 
L 191.009368 295.208781 
L 189.934353 295.184948 
L 188.859338 295.15507 
L 187.784323 295.120114 
L 186.709308 295.081922 
L 185.634293 295.042736 
L 184.559278 295.004505 
L 183.484262 294.96814 
L 182.409247 294.932913 
L 181.334232 294.896196 
L 180.259217 294.853675 
L 179.184202 294.800061 
L 178.109187 294.730155 
L 177.034172 294.640036 
L 175.959157 294.527975 
L 174.884142 294.394733 
L 173.809127 294.242945 
L 172.734112 294.075519 
L 171.659097 293.893248 
L 170.584082 293.692155 
L 169.509067 293.461301 
L 168.434052 293.181929 
L 167.359037 292.828633 
L 166.284022 292.372879 
L 165.209007 291.788574 
L 164.133992 291.058652 
L 163.058977 290.180959 
L 161.983961 289.171407 
L 160.908946 288.062472 
L 159.833931 286.895971 
L 158.758916 285.710401 
L 157.683901 284.524917 
L 156.608886 283.323669 
L 155.533871 282.045258 
L 154.458856 280.582004 
L 153.383841 278.792205 
L 152.308826 276.525737 
L 151.233811 273.659613 
L 150.158796 270.136397 
L 149.083781 265.995717 
L 148.008766 261.38864 
L 146.933751 256.567048 
L 145.858736 251.8453 
L 144.783721 247.538611 
L 143.708706 243.88989 
L 142.633691 241.00221 
L 141.558675 238.79559 
L 140.48366 237.003349 
L 139.408645 235.215028 
L 138.33363 232.96157 
L 137.258615 229.826737 
L 136.1836 225.559879 
L 135.108585 220.161847 
L 134.03357 213.919592 
L 132.958555 207.375574 
L 131.88354 201.233393 
L 130.808525 196.217418 
L 129.73351 192.917257 
L 128.658495 191.653915 
L 127.58348 192.401103 
L 126.508465 194.782863 
L 125.43345 198.150194 
L 124.358435 201.71958 
L 123.28342 204.740426 
L 122.208405 206.650717 
L 121.13339 207.182784 
L 120.058374 206.393239 
L 118.983359 204.610016 
L 117.908344 202.310183 
L 116.833329 199.959948 
L 115.758314 197.858562 
L 114.683299 196.028044 
L 113.608284 194.180493 
L 112.533269 191.776232 
L 111.458254 188.163301 
L 110.383239 182.767176 
L 109.308224 175.284458 
L 108.233209 165.829787 
L 107.158194 154.993323 
L 106.083179 143.785767 
L 105.008164 133.474916 
L 103.933149 125.34575 
L 102.858134 120.43762 
L 101.783119 119.320965 
L 100.708104 121.968979 
L 99.633089 127.757775 
L 98.558073 135.597382 
L 97.483058 144.163574 
L 96.408043 152.175812 
L 95.333028 158.65598 
L 94.258013 163.10862 
L 93.182998 165.583972 
L 92.107983 166.614527 
L 91.032968 167.046308 
L 89.957953 167.810074 
L 88.882938 169.689628 
L 87.807923 173.141908 
L 86.732908 178.208086 
L 85.657893 184.530686 
L 84.582878 191.465446 
L 83.507863 198.254682 
L 82.432848 204.216557 
L 81.357833 208.904182 
L 80.282818 212.199211 
L 79.207803 214.322889 
L 78.132787 215.768411 
L 77.057772 217.176632 
L 75.982757 219.188399 
L 74.907742 222.309064 
L 73.832727 226.81425 
z
" clip-path="url(#p25465fe055)" style="fill: #2ca02c; fill-opacity: 0.25"/>
   </g>
   <g id="PolyCollection_4">
    <path d="M 73.832727 248.194152 
L 73.832727 295.488 
L 74.907742 295.488 
L 75.982757 295.488 
L 77.057772 295.488 
L 78.132787 295.488 
L 79.207803 295.488 
L 80.282818 295.488 
L 81.357833 295.488 
L 82.432848 295.488 
L 83.507863 295.488 
L 84.582878 295.488 
L 85.657893 295.488 
L 86.732908 295.488 
L 87.807923 295.488 
L 88.882938 295.488 
L 89.957953 295.488 
L 91.032968 295.488 
L 92.107983 295.488 
L 93.182998 295.488 
L 94.258013 295.488 
L 95.333028 295.488 
L 96.408043 295.488 
L 97.483058 295.488 
L 98.558073 295.488 
L 99.633089 295.488 
L 100.708104 295.488 
L 101.783119 295.488 
L 102.858134 295.488 
L 103.933149 295.488 
L 105.008164 295.488 
L 106.083179 295.488 
L 107.158194 295.488 
L 108.233209 295.488 
L 109.308224 295.488 
L 110.383239 295.488 
L 111.458254 295.488 
L 112.533269 295.488 
L 113.608284 295.488 
L 114.683299 295.488 
L 115.758314 295.488 
L 116.833329 295.488 
L 117.908344 295.488 
L 118.983359 295.488 
L 120.058374 295.488 
L 121.13339 295.488 
L 122.208405 295.488 
L 123.28342 295.488 
L 124.358435 295.488 
L 125.43345 295.488 
L 126.508465 295.488 
L 127.58348 295.488 
L 128.658495 295.488 
L 129.73351 295.488 
L 130.808525 295.488 
L 131.88354 295.488 
L 132.958555 295.488 
L 134.03357 295.488 
L 135.108585 295.488 
L 136.1836 295.488 
L 137.258615 295.488 
L 138.33363 295.488 
L 139.408645 295.488 
L 140.48366 295.488 
L 141.558675 295.488 
L 142.633691 295.488 
L 143.708706 295.488 
L 144.783721 295.488 
L 145.858736 295.488 
L 146.933751 295.488 
L 148.008766 295.488 
L 149.083781 295.488 
L 150.158796 295.488 
L 151.233811 295.488 
L 152.308826 295.488 
L 153.383841 295.488 
L 154.458856 295.488 
L 155.533871 295.488 
L 156.608886 295.488 
L 157.683901 295.488 
L 158.758916 295.488 
L 159.833931 295.488 
L 160.908946 295.488 
L 161.983961 295.488 
L 163.058977 295.488 
L 164.133992 295.488 
L 165.209007 295.488 
L 166.284022 295.488 
L 167.359037 295.488 
L 168.434052 295.488 
L 169.509067 295.488 
L 170.584082 295.488 
L 171.659097 295.488 
L 172.734112 295.488 
L 173.809127 295.488 
L 174.884142 295.488 
L 175.959157 295.488 
L 177.034172 295.488 
L 178.109187 295.488 
L 179.184202 295.488 
L 180.259217 295.488 
L 181.334232 295.488 
L 182.409247 295.488 
L 183.484262 295.488 
L 184.559278 295.488 
L 185.634293 295.488 
L 186.709308 295.488 
L 187.784323 295.488 
L 188.859338 295.488 
L 189.934353 295.488 
L 191.009368 295.488 
L 192.084383 295.488 
L 193.159398 295.488 
L 194.234413 295.488 
L 195.309428 295.488 
L 196.384443 295.488 
L 197.459458 295.488 
L 198.534473 295.488 
L 199.609488 295.488 
L 200.684503 295.488 
L 201.759518 295.488 
L 202.834533 295.488 
L 203.909548 295.488 
L 204.984564 295.488 
L 206.059579 295.488 
L 207.134594 295.488 
L 208.209609 295.488 
L 209.284624 295.488 
L 210.359639 295.488 
L 211.434654 295.488 
L 212.509669 295.488 
L 213.584684 295.488 
L 214.659699 295.488 
L 215.734714 295.488 
L 216.809729 295.488 
L 217.884744 295.488 
L 218.959759 295.488 
L 220.034774 295.488 
L 221.109789 295.488 
L 222.184804 295.488 
L 223.259819 295.488 
L 224.334834 295.488 
L 225.409849 295.488 
L 226.484865 295.488 
L 227.55988 295.488 
L 228.634895 295.488 
L 229.70991 295.488 
L 230.784925 295.488 
L 231.85994 295.488 
L 232.934955 295.488 
L 234.00997 295.488 
L 235.084985 295.488 
L 236.16 295.488 
L 237.235015 295.488 
L 238.31003 295.488 
L 239.385045 295.488 
L 240.46006 295.488 
L 241.535075 295.488 
L 242.61009 295.488 
L 243.685105 295.488 
L 244.76012 295.488 
L 245.835135 295.488 
L 246.910151 295.488 
L 247.985166 295.488 
L 249.060181 295.488 
L 250.135196 295.488 
L 251.210211 295.488 
L 252.285226 295.488 
L 253.360241 295.488 
L 254.435256 295.488 
L 255.510271 295.488 
L 256.585286 295.488 
L 257.660301 295.488 
L 258.735316 295.488 
L 259.810331 295.488 
L 260.885346 295.488 
L 261.960361 295.488 
L 263.035376 295.488 
L 264.110391 295.488 
L 265.185406 295.488 
L 266.260421 295.488 
L 267.335436 295.488 
L 268.410452 295.488 
L 269.485467 295.488 
L 270.560482 295.488 
L 271.635497 295.488 
L 272.710512 295.488 
L 273.785527 295.488 
L 274.860542 295.488 
L 275.935557 295.488 
L 277.010572 295.488 
L 278.085587 295.488 
L 279.160602 295.488 
L 280.235617 295.488 
L 281.310632 295.488 
L 282.385647 295.488 
L 283.460662 295.488 
L 284.535677 295.488 
L 285.610692 295.488 
L 286.685707 295.488 
L 287.760722 295.488 
L 288.835738 295.488 
L 289.910753 295.488 
L 290.985768 295.488 
L 292.060783 295.488 
L 293.135798 295.488 
L 294.210813 295.488 
L 295.285828 295.488 
L 296.360843 295.488 
L 297.435858 295.488 
L 298.510873 295.488 
L 299.585888 295.488 
L 300.660903 295.488 
L 301.735918 295.488 
L 302.810933 295.488 
L 303.885948 295.488 
L 304.960963 295.488 
L 306.035978 295.488 
L 307.110993 295.488 
L 308.186008 295.488 
L 309.261023 295.488 
L 310.336039 295.488 
L 311.411054 295.488 
L 312.486069 295.488 
L 313.561084 295.488 
L 314.636099 295.488 
L 315.711114 295.488 
L 316.786129 295.488 
L 317.861144 295.488 
L 318.936159 295.488 
L 320.011174 295.488 
L 321.086189 295.488 
L 322.161204 295.488 
L 323.236219 295.488 
L 324.311234 295.488 
L 325.386249 295.488 
L 326.461264 295.488 
L 327.536279 295.488 
L 328.611294 295.488 
L 329.686309 295.488 
L 330.761325 295.488 
L 331.83634 295.488 
L 332.911355 295.488 
L 333.98637 295.488 
L 335.061385 295.488 
L 336.1364 295.488 
L 337.211415 295.488 
L 338.28643 295.488 
L 339.361445 295.488 
L 340.43646 295.488 
L 341.511475 295.488 
L 342.58649 295.488 
L 343.661505 295.488 
L 344.73652 295.488 
L 345.811535 295.488 
L 346.88655 295.488 
L 347.961565 295.488 
L 349.03658 295.488 
L 350.111595 295.488 
L 351.18661 295.488 
L 352.261626 295.488 
L 353.336641 295.488 
L 354.411656 295.488 
L 355.486671 295.488 
L 356.561686 295.488 
L 357.636701 295.488 
L 358.711716 295.488 
L 359.786731 295.488 
L 360.861746 295.488 
L 361.936761 295.488 
L 363.011776 295.488 
L 364.086791 295.488 
L 365.161806 295.488 
L 366.236821 295.488 
L 367.311836 295.488 
L 368.386851 295.488 
L 369.461866 295.488 
L 370.536881 295.488 
L 371.611896 295.488 
L 372.686911 295.488 
L 373.761927 295.488 
L 374.836942 295.488 
L 375.911957 295.488 
L 376.986972 295.488 
L 378.061987 295.488 
L 379.137002 295.488 
L 380.212017 295.488 
L 381.287032 295.488 
L 382.362047 295.488 
L 383.437062 295.488 
L 384.512077 295.488 
L 385.587092 295.488 
L 386.662107 295.488 
L 387.737122 295.488 
L 388.812137 295.488 
L 389.887152 295.488 
L 390.962167 295.488 
L 392.037182 295.488 
L 393.112197 295.488 
L 394.187213 295.488 
L 395.262228 295.488 
L 396.337243 295.488 
L 397.412258 295.488 
L 398.487273 295.488 
L 398.487273 295.248357 
L 398.487273 295.248357 
L 397.412258 295.23955 
L 396.337243 295.23946 
L 395.262228 295.248096 
L 394.187213 295.264557 
L 393.112197 295.287186 
L 392.037182 295.313844 
L 390.962167 295.342234 
L 389.887152 295.37022 
L 388.812137 295.396061 
L 387.737122 295.418546 
L 386.662107 295.437012 
L 385.587092 295.451268 
L 384.512077 295.46147 
L 383.437062 295.467974 
L 382.362047 295.471214 
L 381.287032 295.471616 
L 380.212017 295.46957 
L 379.137002 295.465429 
L 378.061987 295.459557 
L 376.986972 295.452369 
L 375.911957 295.44437 
L 374.836942 295.43617 
L 373.761927 295.428454 
L 372.686911 295.421927 
L 371.611896 295.417224 
L 370.536881 295.414826 
L 369.461866 295.414983 
L 368.386851 295.417672 
L 367.311836 295.422607 
L 366.236821 295.429282 
L 365.161806 295.437065 
L 364.086791 295.445287 
L 363.011776 295.453337 
L 361.936761 295.460736 
L 360.861746 295.467167 
L 359.786731 295.472482 
L 358.711716 295.476679 
L 357.636701 295.479859 
L 356.561686 295.482185 
L 355.486671 295.48384 
L 354.411656 295.484998 
L 353.336641 295.485805 
L 352.261626 295.486375 
L 351.18661 295.486787 
L 350.111595 295.487094 
L 349.03658 295.487329 
L 347.961565 295.48751 
L 346.88655 295.48765 
L 345.811535 295.487756 
L 344.73652 295.487835 
L 343.661505 295.487892 
L 342.58649 295.487932 
L 341.511475 295.487958 
L 340.43646 295.487975 
L 339.361445 295.487986 
L 338.28643 295.487992 
L 337.211415 295.487996 
L 336.1364 295.487998 
L 335.061385 295.487999 
L 333.98637 295.487999 
L 332.911355 295.488 
L 331.83634 295.488 
L 330.761325 295.488 
L 329.686309 295.488 
L 328.611294 295.488 
L 327.536279 295.488 
L 326.461264 295.488 
L 325.386249 295.488 
L 324.311234 295.488 
L 323.236219 295.488 
L 322.161204 295.488 
L 321.086189 295.488 
L 320.011174 295.488 
L 318.936159 295.488 
L 317.861144 295.488 
L 316.786129 295.488 
L 315.711114 295.488 
L 314.636099 295.488 
L 313.561084 295.488 
L 312.486069 295.488 
L 311.411054 295.488 
L 310.336039 295.488 
L 309.261023 295.488 
L 308.186008 295.488 
L 307.110993 295.488 
L 306.035978 295.488 
L 304.960963 295.488 
L 303.885948 295.488 
L 302.810933 295.487999 
L 301.735918 295.487998 
L 300.660903 295.487995 
L 299.585888 295.487989 
L 298.510873 295.487977 
L 297.435858 295.487954 
L 296.360843 295.487909 
L 295.285828 295.487825 
L 294.210813 295.487678 
L 293.135798 295.487426 
L 292.060783 295.487015 
L 290.985768 295.486368 
L 289.910753 295.485391 
L 288.835738 295.483976 
L 287.760722 295.482012 
L 286.685707 295.479401 
L 285.610692 295.476085 
L 284.535677 295.47207 
L 283.460662 295.46745 
L 282.385647 295.46242 
L 281.310632 295.457276 
L 280.235617 295.452394 
L 279.160602 295.448184 
L 278.085587 295.445039 
L 277.010572 295.443272 
L 275.935557 295.443067 
L 274.860542 295.444443 
L 273.785527 295.447255 
L 272.710512 295.451216 
L 271.635497 295.455939 
L 270.560482 295.461 
L 269.485467 295.465989 
L 268.410452 295.47055 
L 267.335436 295.474402 
L 266.260421 295.47734 
L 265.185406 295.479214 
L 264.110391 295.479904 
L 263.035376 295.479294 
L 261.960361 295.477261 
L 260.885346 295.473678 
L 259.810331 295.468439 
L 258.735316 295.461504 
L 257.660301 295.452951 
L 256.585286 295.443025 
L 255.510271 295.432165 
L 254.435256 295.420991 
L 253.360241 295.410254 
L 252.285226 295.400739 
L 251.210211 295.393137 
L 250.135196 295.38792 
L 249.060181 295.385238 
L 247.985166 295.384878 
L 246.910151 295.386287 
L 245.835135 295.388679 
L 244.76012 295.391184 
L 243.685105 295.39303 
L 242.61009 295.393695 
L 241.535075 295.393008 
L 240.46006 295.391167 
L 239.385045 295.388671 
L 238.31003 295.386183 
L 237.235015 295.384351 
L 236.16 295.383645 
L 235.084985 295.384231 
L 234.00997 295.385931 
L 232.934955 295.388264 
L 231.85994 295.390568 
L 230.784925 295.392169 
L 229.70991 295.392552 
L 228.634895 295.391497 
L 227.55988 295.389135 
L 226.484865 295.385929 
L 225.409849 295.382555 
L 224.334834 295.379744 
L 223.259819 295.3781 
L 222.184804 295.377946 
L 221.109789 295.379247 
L 220.034774 295.381615 
L 218.959759 295.3844 
L 217.884744 295.386855 
L 216.809729 295.388317 
L 215.734714 295.38837 
L 214.659699 295.386952 
L 213.584684 295.384368 
L 212.509669 295.381215 
L 211.434654 295.378234 
L 210.359639 295.376123 
L 209.284624 295.375366 
L 208.209609 295.376107 
L 207.134594 295.378115 
L 206.059579 295.380839 
L 204.984564 295.383545 
L 203.909548 295.385496 
L 202.834533 295.386137 
L 201.759518 295.385229 
L 200.684503 295.382909 
L 199.609488 295.379649 
L 198.534473 295.376136 
L 197.459458 295.373089 
L 196.384443 295.371071 
L 195.309428 295.370336 
L 194.234413 295.370752 
L 193.159398 295.37183 
L 192.084383 295.372837 
L 191.009368 295.372983 
L 189.934353 295.371631 
L 188.859338 295.36847 
L 187.784323 295.363615 
L 186.709308 295.357604 
L 185.634293 295.351278 
L 184.559278 295.345591 
L 183.484262 295.34137 
L 182.409247 295.33911 
L 181.334232 295.338832 
L 180.259217 295.340066 
L 179.184202 295.341942 
L 178.109187 295.343394 
L 177.034172 295.343409 
L 175.959157 295.34126 
L 174.884142 295.336673 
L 173.809127 295.329857 
L 172.734112 295.321411 
L 171.659097 295.312092 
L 170.584082 295.302533 
L 169.509067 295.292956 
L 168.434052 295.282979 
L 167.359037 295.271581 
L 166.284022 295.257258 
L 165.209007 295.238336 
L 164.133992 295.213408 
L 163.058977 295.181751 
L 161.983961 295.143614 
L 160.908946 295.100269 
L 159.833931 295.053737 
L 158.758916 295.006224 
L 157.683901 294.959338 
L 156.608886 294.913273 
L 155.533871 294.86617 
L 154.458856 294.813826 
L 153.383841 294.749866 
L 152.308826 294.66629 
L 151.233811 294.554137 
L 150.158796 294.403797 
L 149.083781 294.204369 
L 148.008766 293.941506 
L 146.933751 293.59338 
L 145.858736 293.124935 
L 144.783721 292.481272 
L 143.708706 291.5819 
L 142.633691 290.318329 
L 141.558675 288.557861 
L 140.48366 286.156056 
L 139.408645 282.978952 
L 138.33363 278.933686 
L 137.258615 274.003046 
L 136.1836 268.276452 
L 135.108585 261.968033 
L 134.03357 255.412945 
L 132.958555 249.03644 
L 131.88354 243.296333 
L 130.808525 238.606971 
L 129.73351 235.259617 
L 128.658495 233.357905 
L 127.58348 232.785902 
L 126.508465 233.220077 
L 125.43345 234.186181 
L 124.358435 235.150376 
L 123.28342 235.624127 
L 122.208405 235.257179 
L 121.13339 233.894283 
L 120.058374 231.57904 
L 118.983359 228.501015 
L 117.908344 224.896983 
L 116.833329 220.930574 
L 115.758314 216.583004 
L 114.683299 211.588609 
L 113.608284 205.441319 
L 112.533269 197.48279 
L 111.458254 187.062469 
L 110.383239 173.738815 
L 109.308224 157.474575 
L 108.233209 138.772673 
L 107.158194 118.70619 
L 106.083179 98.816651 
L 105.008164 80.885732 
L 103.933149 66.619511 
L 102.858134 57.312087 
L 101.783119 53.568 
L 100.708104 55.155152 
L 99.633089 61.03208 
L 98.558073 69.552098 
L 97.483058 78.802819 
L 96.408043 87.004972 
L 95.333028 92.878871 
L 94.258013 95.894416 
L 93.182998 96.349165 
L 92.107983 95.260853 
L 91.032968 94.10505 
L 89.957953 94.464071 
L 88.882938 97.671249 
L 87.807923 104.531398 
L 86.732908 115.175419 
L 85.657893 129.071329 
L 84.582878 145.175483 
L 83.507863 162.176389 
L 82.432848 178.76693 
L 81.357833 193.8817 
L 80.282818 206.852353 
L 79.207803 217.459296 
L 78.132787 225.884864 
L 77.057772 232.594586 
L 75.982757 238.184662 
L 74.907742 243.234429 
L 73.832727 248.194152 
z
" clip-path="url(#p25465fe055)" style="fill: #d62728; fill-opacity: 0.25"/>
   </g>
   <g id="matplotlib.axis_1">
    <g id="xtick_1">
     <g id="line2d_1">
      <path d="M 73.832727 307.584 
L 73.832727 41.472 
" clip-path="url(#p25465fe055)" style="fill: none; stroke-dasharray: 1.85,0.8; stroke-dashoffset: 0; stroke: #b0b0b0; stroke-width: 0.5"/>
     </g>
     <g id="line2d_2">
      <defs>
       <path id="mfb0a5161b7" d="M 0 0 
L 0 3.5 
" style="stroke: #000000; stroke-width: 0.8"/>
      </defs>
      <g>
       <use xlink:href="#mfb0a5161b7" x="73.832727" y="307.584" style="stroke: #000000; stroke-width: 0.8"/>
      </g>
     </g>
     <g id="text_1">
      <!-- 0.000 -->
      <g transform="translate(59.518665 322.182437) scale(0.1 -0.1)">
       <defs>
        <path id="DejaVuSans-30" d="M 2034 4250 
Q 1547 4250 1301 3770 
Q 1056 3291 1056 2328 
Q 1056 1369 1301 889 
Q 1547 409 2034 409 
Q 2525 409 2770 889 
Q 3016 1369 3016 2328 
Q 3016 3291 2770 3770 
Q 2525 4250 2034 4250 
z
M 2034 4750 
Q 2819 4750 3233 4129 
Q 3647 3509 3647 2328 
Q 3647 1150 3233 529 
Q 2819 -91 2034 -91 
Q 1250 -91 836 529 
Q 422 1150 422 2328 
Q 422 3509 836 4129 
Q 1250 4750 2034 4750 
z
" transform="scale(0.015625)"/>
        <path id="DejaVuSans-2e" d="M 684 794 
L 1344 794 
L 1344 0 
L 684 0 
L 684 794 
z
" transform="scale(0.015625)"/>
       </defs>
       <use xlink:href="#DejaVuSans-30"/>
       <use xlink:href="#DejaVuSans-2e" x="63.623047"/>
       <use xlink:href="#DejaVuSans-30" x="95.410156"/>
       <use xlink:href="#DejaVuSans-30" x="159.033203"/>
       <use xlink:href="#DejaVuSans-30" x="222.65625"/>
      </g>
     </g>
    </g>
    <g id="xtick_2">
     <g id="line2d_3">
      <path d="M 146.972408 307.584 
L 146.972408 41.472 
" clip-path="url(#p25465fe055)" style="fill: none; stroke-dasharray: 1.85,0.8; stroke-dashoffset: 0; stroke: #b0b0b0; stroke-width: 0.5"/>
     </g>
     <g id="line2d_4">
      <g>
       <use xlink:href="#mfb0a5161b7" x="146.972408" y="307.584" style="stroke: #000000; stroke-width: 0.8"/>
      </g>
     </g>
     <g id="text_2">
      <!-- 0.002 -->
      <g transform="translate(132.658345 322.182437) scale(0.1 -0.1)">
       <defs>
        <path id="DejaVuSans-32" d="M 1228 531 
L 3431 531 
L 3431 0 
L 469 0 
L 469 531 
Q 828 903 1448 1529 
Q 2069 2156 2228 2338 
Q 2531 2678 2651 2914 
Q 2772 3150 2772 3378 
Q 2772 3750 2511 3984 
Q 2250 4219 1831 4219 
Q 1534 4219 1204 4116 
Q 875 4013 500 3803 
L 500 4441 
Q 881 4594 1212 4672 
Q 1544 4750 1819 4750 
Q 2544 4750 2975 4387 
Q 3406 4025 3406 3419 
Q 3406 3131 3298 2873 
Q 3191 2616 2906 2266 
Q 2828 2175 2409 1742 
Q 1991 1309 1228 531 
z
" transform="scale(0.015625)"/>
       </defs>
       <use xlink:href="#DejaVuSans-30"/>
       <use xlink:href="#DejaVuSans-2e" x="63.623047"/>
       <use xlink:href="#DejaVuSans-30" x="95.410156"/>
       <use xlink:href="#DejaVuSans-30" x="159.033203"/>
       <use xlink:href="#DejaVuSans-32" x="222.65625"/>
      </g>
     </g>
    </g>
    <g id="xtick_3">
     <g id="line2d_5">
      <path d="M 220.112088 307.584 
L 220.112088 41.472 
" clip-path="url(#p25465fe055)" style="fill: none; stroke-dasharray: 1.85,0.8; stroke-dashoffset: 0; stroke: #b0b0b0; stroke-width: 0.5"/>
     </g>
     <g id="line2d_6">
      <g>
       <use xlink:href="#mfb0a5161b7" x="220.112088" y="307.584" style="stroke: #000000; stroke-width: 0.8"/>
      </g>
     </g>
     <g id="text_3">
      <!-- 0.004 -->
      <g transform="translate(205.798026 322.182437) scale(0.1 -0.1)">
       <defs>
        <path id="DejaVuSans-34" d="M 2419 4116 
L 825 1625 
L 2419 1625 
L 2419 4116 
z
M 2253 4666 
L 3047 4666 
L 3047 1625 
L 3713 1625 
L 3713 1100 
L 3047 1100 
L 3047 0 
L 2419 0 
L 2419 1100 
L 313 1100 
L 313 1709 
L 2253 4666 
z
" transform="scale(0.015625)"/>
       </defs>
       <use xlink:href="#DejaVuSans-30"/>
       <use xlink:href="#DejaVuSans-2e" x="63.623047"/>
       <use xlink:href="#DejaVuSans-30" x="95.410156"/>
       <use xlink:href="#DejaVuSans-30" x="159.033203"/>
       <use xlink:href="#DejaVuSans-34" x="222.65625"/>
      </g>
     </g>
    </g>
    <g id="xtick_4">
     <g id="line2d_7">
      <path d="M 293.251769 307.584 
L 293.251769 41.472 
" clip-path="url(#p25465fe055)" style="fill: none; stroke-dasharray: 1.85,0.8; stroke-dashoffset: 0; stroke: #b0b0b0; stroke-width: 0.5"/>
     </g>
     <g id="line2d_8">
      <g>
       <use xlink:href="#mfb0a5161b7" x="293.251769" y="307.584" style="stroke: #000000; stroke-width: 0.8"/>
      </g>
     </g>
     <g id="text_4">
      <!-- 0.006 -->
      <g transform="translate(278.937706 322.182437) scale(0.1 -0.1)">
       <defs>
        <path id="DejaVuSans-36" d="M 2113 2584 
Q 1688 2584 1439 2293 
Q 1191 2003 1191 1497 
Q 1191 994 1439 701 
Q 1688 409 2113 409 
Q 2538 409 2786 701 
Q 3034 994 3034 1497 
Q 3034 2003 2786 2293 
Q 2538 2584 2113 2584 
z
M 3366 4563 
L 3366 3988 
Q 3128 4100 2886 4159 
Q 2644 4219 2406 4219 
Q 1781 4219 1451 3797 
Q 1122 3375 1075 2522 
Q 1259 2794 1537 2939 
Q 1816 3084 2150 3084 
Q 2853 3084 3261 2657 
Q 3669 2231 3669 1497 
Q 3669 778 3244 343 
Q 2819 -91 2113 -91 
Q 1303 -91 875 529 
Q 447 1150 447 2328 
Q 447 3434 972 4092 
Q 1497 4750 2381 4750 
Q 2619 4750 2861 4703 
Q 3103 4656 3366 4563 
z
" transform="scale(0.015625)"/>
       </defs>
       <use xlink:href="#DejaVuSans-30"/>
       <use xlink:href="#DejaVuSans-2e" x="63.623047"/>
       <use xlink:href="#DejaVuSans-30" x="95.410156"/>
       <use xlink:href="#DejaVuSans-30" x="159.033203"/>
       <use xlink:href="#DejaVuSans-36" x="222.65625"/>
      </g>
     </g>
    </g>
    <g id="xtick_5">
     <g id="line2d_9">
      <path d="M 366.391449 307.584 
L 366.391449 41.472 
" clip-path="url(#p25465fe055)" style="fill: none; stroke-dasharray: 1.85,0.8; stroke-dashoffset: 0; stroke: #b0b0b0; stroke-width: 0.5"/>
     </g>
     <g id="line2d_10">
      <g>
       <use xlink:href="#mfb0a5161b7" x="366.391449" y="307.584" style="stroke: #000000; stroke-width: 0.8"/>
      </g>
     </g>
     <g id="text_5">
      <!-- 0.008 -->
      <g transform="translate(352.077387 322.182437) scale(0.1 -0.1)">
       <defs>
        <path id="DejaVuSans-38" d="M 2034 2216 
Q 1584 2216 1326 1975 
Q 1069 1734 1069 1313 
Q 1069 891 1326 650 
Q 1584 409 2034 409 
Q 2484 409 2743 651 
Q 3003 894 3003 1313 
Q 3003 1734 2745 1975 
Q 2488 2216 2034 2216 
z
M 1403 2484 
Q 997 2584 770 2862 
Q 544 3141 544 3541 
Q 544 4100 942 4425 
Q 1341 4750 2034 4750 
Q 2731 4750 3128 4425 
Q 3525 4100 3525 3541 
Q 3525 3141 3298 2862 
Q 3072 2584 2669 2484 
Q 3125 2378 3379 2068 
Q 3634 1759 3634 1313 
Q 3634 634 3220 271 
Q 2806 -91 2034 -91 
Q 1263 -91 848 271 
Q 434 634 434 1313 
Q 434 1759 690 2068 
Q 947 2378 1403 2484 
z
M 1172 3481 
Q 1172 3119 1398 2916 
Q 1625 2713 2034 2713 
Q 2441 2713 2670 2916 
Q 2900 3119 2900 3481 
Q 2900 3844 2670 4047 
Q 2441 4250 2034 4250 
Q 1625 4250 1398 4047 
Q 1172 3844 1172 3481 
z
" transform="scale(0.015625)"/>
       </defs>
       <use xlink:href="#DejaVuSans-30"/>
       <use xlink:href="#DejaVuSans-2e" x="63.623047"/>
       <use xlink:href="#DejaVuSans-30" x="95.410156"/>
       <use xlink:href="#DejaVuSans-30" x="159.033203"/>
       <use xlink:href="#DejaVuSans-38" x="222.65625"/>
      </g>
     </g>
    </g>
    <g id="text_6">
     <!-- Pixel values -->
     <g transform="translate(206.748281 335.860562) scale(0.1 -0.1)">
      <defs>
       <path id="DejaVuSans-50" d="M 1259 4147 
L 1259 2394 
L 2053 2394 
Q 2494 2394 2734 2622 
Q 2975 2850 2975 3272 
Q 2975 3691 2734 3919 
Q 2494 4147 2053 4147 
L 1259 4147 
z
M 628 4666 
L 2053 4666 
Q 2838 4666 3239 4311 
Q 3641 3956 3641 3272 
Q 3641 2581 3239 2228 
Q 2838 1875 2053 1875 
L 1259 1875 
L 1259 0 
L 628 0 
L 628 4666 
z
" transform="scale(0.015625)"/>
       <path id="DejaVuSans-69" d="M 603 3500 
L 1178 3500 
L 1178 0 
L 603 0 
L 603 3500 
z
M 603 4863 
L 1178 4863 
L 1178 4134 
L 603 4134 
L 603 4863 
z
" transform="scale(0.015625)"/>
       <path id="DejaVuSans-78" d="M 3513 3500 
L 2247 1797 
L 3578 0 
L 2900 0 
L 1881 1375 
L 863 0 
L 184 0 
L 1544 1831 
L 300 3500 
L 978 3500 
L 1906 2253 
L 2834 3500 
L 3513 3500 
z
" transform="scale(0.015625)"/>
       <path id="DejaVuSans-65" d="M 3597 1894 
L 3597 1613 
L 953 1613 
Q 991 1019 1311 708 
Q 1631 397 2203 397 
Q 2534 397 2845 478 
Q 3156 559 3463 722 
L 3463 178 
Q 3153 47 2828 -22 
Q 2503 -91 2169 -91 
Q 1331 -91 842 396 
Q 353 884 353 1716 
Q 353 2575 817 3079 
Q 1281 3584 2069 3584 
Q 2775 3584 3186 3129 
Q 3597 2675 3597 1894 
z
M 3022 2063 
Q 3016 2534 2758 2815 
Q 2500 3097 2075 3097 
Q 1594 3097 1305 2825 
Q 1016 2553 972 2059 
L 3022 2063 
z
" transform="scale(0.015625)"/>
       <path id="DejaVuSans-6c" d="M 603 4863 
L 1178 4863 
L 1178 0 
L 603 0 
L 603 4863 
z
" transform="scale(0.015625)"/>
       <path id="DejaVuSans-20" transform="scale(0.015625)"/>
       <path id="DejaVuSans-76" d="M 191 3500 
L 800 3500 
L 1894 563 
L 2988 3500 
L 3597 3500 
L 2284 0 
L 1503 0 
L 191 3500 
z
" transform="scale(0.015625)"/>
       <path id="DejaVuSans-61" d="M 2194 1759 
Q 1497 1759 1228 1600 
Q 959 1441 959 1056 
Q 959 750 1161 570 
Q 1363 391 1709 391 
Q 2188 391 2477 730 
Q 2766 1069 2766 1631 
L 2766 1759 
L 2194 1759 
z
M 3341 1997 
L 3341 0 
L 2766 0 
L 2766 531 
Q 2569 213 2275 61 
Q 1981 -91 1556 -91 
Q 1019 -91 701 211 
Q 384 513 384 1019 
Q 384 1609 779 1909 
Q 1175 2209 1959 2209 
L 2766 2209 
L 2766 2266 
Q 2766 2663 2505 2880 
Q 2244 3097 1772 3097 
Q 1472 3097 1187 3025 
Q 903 2953 641 2809 
L 641 3341 
Q 956 3463 1253 3523 
Q 1550 3584 1831 3584 
Q 2591 3584 2966 3190 
Q 3341 2797 3341 1997 
z
" transform="scale(0.015625)"/>
       <path id="DejaVuSans-75" d="M 544 1381 
L 544 3500 
L 1119 3500 
L 1119 1403 
Q 1119 906 1312 657 
Q 1506 409 1894 409 
Q 2359 409 2629 706 
Q 2900 1003 2900 1516 
L 2900 3500 
L 3475 3500 
L 3475 0 
L 2900 0 
L 2900 538 
Q 2691 219 2414 64 
Q 2138 -91 1772 -91 
Q 1169 -91 856 284 
Q 544 659 544 1381 
z
M 1991 3584 
L 1991 3584 
z
" transform="scale(0.015625)"/>
       <path id="DejaVuSans-73" d="M 2834 3397 
L 2834 2853 
Q 2591 2978 2328 3040 
Q 2066 3103 1784 3103 
Q 1356 3103 1142 2972 
Q 928 2841 928 2578 
Q 928 2378 1081 2264 
Q 1234 2150 1697 2047 
L 1894 2003 
Q 2506 1872 2764 1633 
Q 3022 1394 3022 966 
Q 3022 478 2636 193 
Q 2250 -91 1575 -91 
Q 1294 -91 989 -36 
Q 684 19 347 128 
L 347 722 
Q 666 556 975 473 
Q 1284 391 1588 391 
Q 1994 391 2212 530 
Q 2431 669 2431 922 
Q 2431 1156 2273 1281 
Q 2116 1406 1581 1522 
L 1381 1569 
Q 847 1681 609 1914 
Q 372 2147 372 2553 
Q 372 3047 722 3315 
Q 1072 3584 1716 3584 
Q 2034 3584 2315 3537 
Q 2597 3491 2834 3397 
z
" transform="scale(0.015625)"/>
      </defs>
      <use xlink:href="#DejaVuSans-50"/>
      <use xlink:href="#DejaVuSans-69" x="58.052734"/>
      <use xlink:href="#DejaVuSans-78" x="85.835938"/>
      <use xlink:href="#DejaVuSans-65" x="141.890625"/>
      <use xlink:href="#DejaVuSans-6c" x="203.414062"/>
      <use xlink:href="#DejaVuSans-20" x="231.197266"/>
      <use xlink:href="#DejaVuSans-76" x="262.984375"/>
      <use xlink:href="#DejaVuSans-61" x="322.164062"/>
      <use xlink:href="#DejaVuSans-6c" x="383.443359"/>
      <use xlink:href="#DejaVuSans-75" x="411.226562"/>
      <use xlink:href="#DejaVuSans-65" x="474.605469"/>
      <use xlink:href="#DejaVuSans-73" x="536.128906"/>
     </g>
    </g>
   </g>
   <g id="matplotlib.axis_2">
    <g id="ytick_1">
     <g id="line2d_11">
      <path d="M 57.6 295.488 
L 414.72 295.488 
" clip-path="url(#p25465fe055)" style="fill: none; stroke-dasharray: 1.85,0.8; stroke-dashoffset: 0; stroke: #b0b0b0; stroke-width: 0.5"/>
     </g>
     <g id="line2d_12">
      <defs>
       <path id="m5bb2fae5af" d="M 0 0 
L -3.5 0 
" style="stroke: #000000; stroke-width: 0.8"/>
      </defs>
      <g>
       <use xlink:href="#m5bb2fae5af" x="57.6" y="295.488" style="stroke: #000000; stroke-width: 0.8"/>
      </g>
     </g>
     <g id="text_7">
      <!-- 0 -->
      <g transform="translate(44.2375 299.287219) scale(0.1 -0.1)">
       <use xlink:href="#DejaVuSans-30"/>
      </g>
     </g>
    </g>
    <g id="ytick_2">
     <g id="line2d_13">
      <path d="M 57.6 252.109183 
L 414.72 252.109183 
" clip-path="url(#p25465fe055)" style="fill: none; stroke-dasharray: 1.85,0.8; stroke-dashoffset: 0; stroke: #b0b0b0; stroke-width: 0.5"/>
     </g>
     <g id="line2d_14">
      <g>
       <use xlink:href="#m5bb2fae5af" x="57.6" y="252.109183" style="stroke: #000000; stroke-width: 0.8"/>
      </g>
     </g>
     <g id="text_8">
      <!-- 2 -->
      <g transform="translate(44.2375 255.908402) scale(0.1 -0.1)">
       <use xlink:href="#DejaVuSans-32"/>
      </g>
     </g>
    </g>
    <g id="ytick_3">
     <g id="line2d_15">
      <path d="M 57.6 208.730367 
L 414.72 208.730367 
" clip-path="url(#p25465fe055)" style="fill: none; stroke-dasharray: 1.85,0.8; stroke-dashoffset: 0; stroke: #b0b0b0; stroke-width: 0.5"/>
     </g>
     <g id="line2d_16">
      <g>
       <use xlink:href="#m5bb2fae5af" x="57.6" y="208.730367" style="stroke: #000000; stroke-width: 0.8"/>
      </g>
     </g>
     <g id="text_9">
      <!-- 4 -->
      <g transform="translate(44.2375 212.529585) scale(0.1 -0.1)">
       <use xlink:href="#DejaVuSans-34"/>
      </g>
     </g>
    </g>
    <g id="ytick_4">
     <g id="line2d_17">
      <path d="M 57.6 165.35155 
L 414.72 165.35155 
" clip-path="url(#p25465fe055)" style="fill: none; stroke-dasharray: 1.85,0.8; stroke-dashoffset: 0; stroke: #b0b0b0; stroke-width: 0.5"/>
     </g>
     <g id="line2d_18">
      <g>
       <use xlink:href="#m5bb2fae5af" x="57.6" y="165.35155" style="stroke: #000000; stroke-width: 0.8"/>
      </g>
     </g>
     <g id="text_10">
      <!-- 6 -->
      <g transform="translate(44.2375 169.150769) scale(0.1 -0.1)">
       <use xlink:href="#DejaVuSans-36"/>
      </g>
     </g>
    </g>
    <g id="ytick_5">
     <g id="line2d_19">
      <path d="M 57.6 121.972733 
L 414.72 121.972733 
" clip-path="url(#p25465fe055)" style="fill: none; stroke-dasharray: 1.85,0.8; stroke-dashoffset: 0; stroke: #b0b0b0; stroke-width: 0.5"/>
     </g>
     <g id="line2d_20">
      <g>
       <use xlink:href="#m5bb2fae5af" x="57.6" y="121.972733" style="stroke: #000000; stroke-width: 0.8"/>
      </g>
     </g>
     <g id="text_11">
      <!-- 8 -->
      <g transform="translate(44.2375 125.771952) scale(0.1 -0.1)">
       <use xlink:href="#DejaVuSans-38"/>
      </g>
     </g>
    </g>
    <g id="ytick_6">
     <g id="line2d_21">
      <path d="M 57.6 78.593917 
L 414.72 78.593917 
" clip-path="url(#p25465fe055)" style="fill: none; stroke-dasharray: 1.85,0.8; stroke-dashoffset: 0; stroke: #b0b0b0; stroke-width: 0.5"/>
     </g>
     <g id="line2d_22">
      <g>
       <use xlink:href="#m5bb2fae5af" x="57.6" y="78.593917" style="stroke: #000000; stroke-width: 0.8"/>
      </g>
     </g>
     <g id="text_12">
      <!-- 10 -->
      <g transform="translate(37.875 82.393135) scale(0.1 -0.1)">
       <defs>
        <path id="DejaVuSans-31" d="M 794 531 
L 1825 531 
L 1825 4091 
L 703 3866 
L 703 4441 
L 1819 4666 
L 2450 4666 
L 2450 531 
L 3481 531 
L 3481 0 
L 794 0 
L 794 531 
z
" transform="scale(0.015625)"/>
       </defs>
       <use xlink:href="#DejaVuSans-31"/>
       <use xlink:href="#DejaVuSans-30" x="63.623047"/>
      </g>
     </g>
    </g>
    <g id="text_13">
     <!-- Frequency -->
     <g transform="translate(31.795312 200.357687) rotate(-90) scale(0.1 -0.1)">
      <defs>
       <path id="DejaVuSans-46" d="M 628 4666 
L 3309 4666 
L 3309 4134 
L 1259 4134 
L 1259 2759 
L 3109 2759 
L 3109 2228 
L 1259 2228 
L 1259 0 
L 628 0 
L 628 4666 
z
" transform="scale(0.015625)"/>
       <path id="DejaVuSans-72" d="M 2631 2963 
Q 2534 3019 2420 3045 
Q 2306 3072 2169 3072 
Q 1681 3072 1420 2755 
Q 1159 2438 1159 1844 
L 1159 0 
L 581 0 
L 581 3500 
L 1159 3500 
L 1159 2956 
Q 1341 3275 1631 3429 
Q 1922 3584 2338 3584 
Q 2397 3584 2469 3576 
Q 2541 3569 2628 3553 
L 2631 2963 
z
" transform="scale(0.015625)"/>
       <path id="DejaVuSans-71" d="M 947 1747 
Q 947 1113 1208 752 
Q 1469 391 1925 391 
Q 2381 391 2643 752 
Q 2906 1113 2906 1747 
Q 2906 2381 2643 2742 
Q 2381 3103 1925 3103 
Q 1469 3103 1208 2742 
Q 947 2381 947 1747 
z
M 2906 525 
Q 2725 213 2448 61 
Q 2172 -91 1784 -91 
Q 1150 -91 751 415 
Q 353 922 353 1747 
Q 353 2572 751 3078 
Q 1150 3584 1784 3584 
Q 2172 3584 2448 3432 
Q 2725 3281 2906 2969 
L 2906 3500 
L 3481 3500 
L 3481 -1331 
L 2906 -1331 
L 2906 525 
z
" transform="scale(0.015625)"/>
       <path id="DejaVuSans-6e" d="M 3513 2113 
L 3513 0 
L 2938 0 
L 2938 2094 
Q 2938 2591 2744 2837 
Q 2550 3084 2163 3084 
Q 1697 3084 1428 2787 
Q 1159 2491 1159 1978 
L 1159 0 
L 581 0 
L 581 3500 
L 1159 3500 
L 1159 2956 
Q 1366 3272 1645 3428 
Q 1925 3584 2291 3584 
Q 2894 3584 3203 3211 
Q 3513 2838 3513 2113 
z
" transform="scale(0.015625)"/>
       <path id="DejaVuSans-63" d="M 3122 3366 
L 3122 2828 
Q 2878 2963 2633 3030 
Q 2388 3097 2138 3097 
Q 1578 3097 1268 2742 
Q 959 2388 959 1747 
Q 959 1106 1268 751 
Q 1578 397 2138 397 
Q 2388 397 2633 464 
Q 2878 531 3122 666 
L 3122 134 
Q 2881 22 2623 -34 
Q 2366 -91 2075 -91 
Q 1284 -91 818 406 
Q 353 903 353 1747 
Q 353 2603 823 3093 
Q 1294 3584 2113 3584 
Q 2378 3584 2631 3529 
Q 2884 3475 3122 3366 
z
" transform="scale(0.015625)"/>
       <path id="DejaVuSans-79" d="M 2059 -325 
Q 1816 -950 1584 -1140 
Q 1353 -1331 966 -1331 
L 506 -1331 
L 506 -850 
L 844 -850 
Q 1081 -850 1212 -737 
Q 1344 -625 1503 -206 
L 1606 56 
L 191 3500 
L 800 3500 
L 1894 763 
L 2988 3500 
L 3597 3500 
L 2059 -325 
z
" transform="scale(0.015625)"/>
      </defs>
      <use xlink:href="#DejaVuSans-46"/>
      <use xlink:href="#DejaVuSans-72" x="50.269531"/>
      <use xlink:href="#DejaVuSans-65" x="89.132812"/>
      <use xlink:href="#DejaVuSans-71" x="150.65625"/>
      <use xlink:href="#DejaVuSans-75" x="214.132812"/>
      <use xlink:href="#DejaVuSans-65" x="277.511719"/>
      <use xlink:href="#DejaVuSans-6e" x="339.035156"/>
      <use xlink:href="#DejaVuSans-63" x="402.414062"/>
      <use xlink:href="#DejaVuSans-79" x="457.394531"/>
     </g>
    </g>
   </g>
   <g id="line2d_23">
    <path d="M 73.832727 189.827469 
L 74.907742 184.10316 
L 75.982757 181.187486 
L 77.057772 180.825766 
L 78.132787 182.390985 
L 80.282818 187.67739 
L 81.357833 189.56874 
L 82.432848 190.091679 
L 83.507863 189.049657 
L 84.582878 186.642219 
L 87.807923 176.894629 
L 88.882938 174.663552 
L 89.957953 173.254413 
L 91.032968 172.30036 
L 92.107983 171.126121 
L 93.182998 168.919974 
L 94.258013 164.958937 
L 95.333028 158.831991 
L 96.408043 150.60364 
L 99.633089 121.425809 
L 100.708104 114.402545 
L 101.783119 110.709456 
L 102.858134 110.92147 
L 103.933149 114.982221 
L 105.008164 122.215914 
L 108.233209 150.639893 
L 109.308224 158.246196 
L 110.383239 163.708723 
L 111.458254 167.073436 
L 112.533269 168.851081 
L 114.683299 170.887312 
L 115.758314 172.679634 
L 116.833329 175.563007 
L 117.908344 179.482743 
L 120.058374 188.533107 
L 121.13339 192.326609 
L 122.208405 194.862957 
L 123.28342 195.904985 
L 124.358435 195.591665 
L 126.508465 193.135503 
L 127.58348 192.580584 
L 128.658495 193.505576 
L 129.73351 196.420316 
L 130.808525 201.498612 
L 131.88354 208.56006 
L 134.03357 226.530811 
L 136.1836 245.062078 
L 137.258615 253.076399 
L 138.33363 259.845467 
L 139.408645 265.328666 
L 140.48366 269.656236 
L 141.558675 273.064039 
L 142.633691 275.823983 
L 144.783721 280.336152 
L 148.008766 286.297873 
L 150.158796 289.722834 
L 151.233811 291.134982 
L 152.308826 292.309378 
L 153.383841 293.244374 
L 154.458856 293.956927 
L 155.533871 294.476615 
L 156.608886 294.838995 
L 158.758916 295.231631 
L 161.983961 295.387588 
L 208.209609 295.420722 
L 398.487273 295.488 
L 398.487273 295.488 
" clip-path="url(#p25465fe055)" style="fill: none; stroke: #1f77b4; stroke-width: 1.5; stroke-linecap: square"/>
   </g>
   <g id="line2d_24">
    <path d="M 73.832727 217.342682 
L 74.907742 211.963558 
L 75.982757 208.01817 
L 77.057772 205.157795 
L 79.207803 200.125938 
L 80.282818 196.47598 
L 81.357833 191.292178 
L 82.432848 184.382447 
L 84.582878 166.708902 
L 85.657893 157.505298 
L 86.732908 149.384658 
L 87.807923 143.227243 
L 88.882938 139.559254 
L 89.957953 138.410507 
L 91.032968 139.284864 
L 93.182998 143.178386 
L 94.258013 143.945006 
L 95.333028 142.766085 
L 96.408043 139.365549 
L 97.483058 134.06673 
L 99.633089 121.597979 
L 100.708104 116.959432 
L 101.783119 114.916237 
L 102.858134 116.104616 
L 103.933149 120.561269 
L 105.008164 127.722695 
L 108.233209 154.310512 
L 109.308224 161.126579 
L 110.383239 165.855487 
L 111.458254 168.606877 
L 112.533269 169.942599 
L 113.608284 170.702664 
L 114.683299 171.778926 
L 115.758314 173.893553 
L 116.833329 177.434715 
L 117.908344 182.385001 
L 122.208405 205.729228 
L 123.28342 209.438418 
L 124.358435 211.786253 
L 125.43345 213.060562 
L 127.58348 214.614569 
L 128.658495 216.129386 
L 129.73351 218.761977 
L 130.808525 222.687363 
L 131.88354 227.810011 
L 134.03357 240.21151 
L 136.1836 252.329959 
L 137.258615 257.328949 
L 138.33363 261.415185 
L 139.408645 264.644418 
L 140.48366 267.196553 
L 142.633691 271.242838 
L 144.783721 275.219967 
L 150.158796 286.104369 
L 151.233811 287.797345 
L 152.308826 289.191948 
L 153.383841 290.298182 
L 154.458856 291.153208 
L 155.533871 291.808616 
L 157.683901 292.72783 
L 159.833931 293.369848 
L 163.058977 294.047542 
L 166.284022 294.409829 
L 177.034172 295.008916 
L 183.484262 295.136287 
L 194.234413 295.163041 
L 204.984564 295.237535 
L 253.360241 295.313672 
L 269.485467 295.430318 
L 298.510873 295.465912 
L 398.487273 295.488 
L 398.487273 295.488 
" clip-path="url(#p25465fe055)" style="fill: none; stroke: #ff7f0e; stroke-width: 1.5; stroke-linecap: square"/>
   </g>
   <g id="line2d_25">
    <path d="M 73.832727 226.81425 
L 74.907742 222.309064 
L 75.982757 219.188399 
L 77.057772 217.176632 
L 79.207803 214.322889 
L 80.282818 212.199211 
L 81.357833 208.904182 
L 82.432848 204.216557 
L 83.507863 198.254682 
L 86.732908 178.208086 
L 87.807923 173.141908 
L 88.882938 169.689628 
L 89.957953 167.810074 
L 91.032968 167.046308 
L 92.107983 166.614527 
L 93.182998 165.583972 
L 94.258013 163.10862 
L 95.333028 158.65598 
L 96.408043 152.175812 
L 99.633089 127.757775 
L 100.708104 121.968979 
L 101.783119 119.320965 
L 102.858134 120.43762 
L 103.933149 125.34575 
L 105.008164 133.474916 
L 107.158194 154.993323 
L 108.233209 165.829787 
L 109.308224 175.284458 
L 110.383239 182.767176 
L 111.458254 188.163301 
L 112.533269 191.776232 
L 113.608284 194.180493 
L 115.758314 197.858562 
L 116.833329 199.959948 
L 118.983359 204.610016 
L 120.058374 206.393239 
L 121.13339 207.182784 
L 122.208405 206.650717 
L 123.28342 204.740426 
L 124.358435 201.71958 
L 126.508465 194.782863 
L 127.58348 192.401103 
L 128.658495 191.653915 
L 129.73351 192.917257 
L 130.808525 196.217418 
L 131.88354 201.233393 
L 136.1836 225.559879 
L 137.258615 229.826737 
L 138.33363 232.96157 
L 139.408645 235.215028 
L 141.558675 238.79559 
L 142.633691 241.00221 
L 143.708706 243.88989 
L 144.783721 247.538611 
L 146.933751 256.567048 
L 149.083781 265.995717 
L 150.158796 270.136397 
L 151.233811 273.659613 
L 152.308826 276.525737 
L 153.383841 278.792205 
L 154.458856 280.582004 
L 156.608886 283.323669 
L 161.983961 289.171407 
L 164.133992 291.058652 
L 165.209007 291.788574 
L 166.284022 292.372879 
L 168.434052 293.181929 
L 170.584082 293.692155 
L 174.884142 294.394733 
L 178.109187 294.730155 
L 182.409247 294.932913 
L 195.309428 295.257163 
L 239.385045 295.470144 
L 398.487273 295.463094 
L 398.487273 295.463094 
" clip-path="url(#p25465fe055)" style="fill: none; stroke: #2ca02c; stroke-width: 1.5; stroke-linecap: square"/>
   </g>
   <g id="line2d_26">
    <path d="M 73.832727 248.194152 
L 75.982757 238.184662 
L 77.057772 232.594586 
L 78.132787 225.884864 
L 79.207803 217.459296 
L 80.282818 206.852353 
L 81.357833 193.8817 
L 83.507863 162.176389 
L 85.657893 129.071329 
L 86.732908 115.175419 
L 87.807923 104.531398 
L 88.882938 97.671249 
L 89.957953 94.464071 
L 91.032968 94.10505 
L 93.182998 96.349165 
L 94.258013 95.894416 
L 95.333028 92.878871 
L 96.408043 87.004972 
L 97.483058 78.802819 
L 99.633089 61.03208 
L 100.708104 55.155152 
L 101.783119 53.568 
L 102.858134 57.312087 
L 103.933149 66.619511 
L 105.008164 80.885732 
L 106.083179 98.816651 
L 109.308224 157.474575 
L 110.383239 173.738815 
L 111.458254 187.062469 
L 112.533269 197.48279 
L 113.608284 205.441319 
L 114.683299 211.588609 
L 115.758314 216.583004 
L 117.908344 224.896983 
L 118.983359 228.501015 
L 120.058374 231.57904 
L 121.13339 233.894283 
L 122.208405 235.257179 
L 123.28342 235.624127 
L 124.358435 235.150376 
L 126.508465 233.220077 
L 127.58348 232.785902 
L 128.658495 233.357905 
L 129.73351 235.259617 
L 130.808525 238.606971 
L 131.88354 243.296333 
L 132.958555 249.03644 
L 137.258615 274.003046 
L 138.33363 278.933686 
L 139.408645 282.978952 
L 140.48366 286.156056 
L 141.558675 288.557861 
L 142.633691 290.318329 
L 143.708706 291.5819 
L 144.783721 292.481272 
L 145.858736 293.124935 
L 148.008766 293.941506 
L 150.158796 294.403797 
L 153.383841 294.749866 
L 160.908946 295.100269 
L 167.359037 295.271581 
L 184.559278 295.345591 
L 211.434654 295.378234 
L 274.860542 295.444443 
L 327.536279 295.488 
L 388.812137 295.396061 
L 398.487273 295.248357 
L 398.487273 295.248357 
" clip-path="url(#p25465fe055)" style="fill: none; stroke: #d62728; stroke-width: 1.5; stroke-linecap: square"/>
   </g>
   <g id="patch_3">
    <path d="M 57.6 307.584 
L 57.6 41.472 
" style="fill: none; stroke: #000000; stroke-width: 0.8; stroke-linejoin: miter; stroke-linecap: square"/>
   </g>
   <g id="patch_4">
    <path d="M 414.72 307.584 
L 414.72 41.472 
" style="fill: none; stroke: #000000; stroke-width: 0.8; stroke-linejoin: miter; stroke-linecap: square"/>
   </g>
   <g id="patch_5">
    <path d="M 57.6 307.584 
L 414.72 307.584 
" style="fill: none; stroke: #000000; stroke-width: 0.8; stroke-linejoin: miter; stroke-linecap: square"/>
   </g>
   <g id="patch_6">
    <path d="M 57.6 41.472 
L 414.72 41.472 
" style="fill: none; stroke: #000000; stroke-width: 0.8; stroke-linejoin: miter; stroke-linecap: square"/>
   </g>
   <g id="text_14">
    <!-- MD - mni_prob_Frontal_Lobe -->
    <g transform="translate(151.5225 35.472) scale(0.12 -0.12)">
     <defs>
      <path id="DejaVuSans-4d" d="M 628 4666 
L 1569 4666 
L 2759 1491 
L 3956 4666 
L 4897 4666 
L 4897 0 
L 4281 0 
L 4281 4097 
L 3078 897 
L 2444 897 
L 1241 4097 
L 1241 0 
L 628 0 
L 628 4666 
z
" transform="scale(0.015625)"/>
      <path id="DejaVuSans-44" d="M 1259 4147 
L 1259 519 
L 2022 519 
Q 2988 519 3436 956 
Q 3884 1394 3884 2338 
Q 3884 3275 3436 3711 
Q 2988 4147 2022 4147 
L 1259 4147 
z
M 628 4666 
L 1925 4666 
Q 3281 4666 3915 4102 
Q 4550 3538 4550 2338 
Q 4550 1131 3912 565 
Q 3275 0 1925 0 
L 628 0 
L 628 4666 
z
" transform="scale(0.015625)"/>
      <path id="DejaVuSans-2d" d="M 313 2009 
L 1997 2009 
L 1997 1497 
L 313 1497 
L 313 2009 
z
" transform="scale(0.015625)"/>
      <path id="DejaVuSans-6d" d="M 3328 2828 
Q 3544 3216 3844 3400 
Q 4144 3584 4550 3584 
Q 5097 3584 5394 3201 
Q 5691 2819 5691 2113 
L 5691 0 
L 5113 0 
L 5113 2094 
Q 5113 2597 4934 2840 
Q 4756 3084 4391 3084 
Q 3944 3084 3684 2787 
Q 3425 2491 3425 1978 
L 3425 0 
L 2847 0 
L 2847 2094 
Q 2847 2600 2669 2842 
Q 2491 3084 2119 3084 
Q 1678 3084 1418 2786 
Q 1159 2488 1159 1978 
L 1159 0 
L 581 0 
L 581 3500 
L 1159 3500 
L 1159 2956 
Q 1356 3278 1631 3431 
Q 1906 3584 2284 3584 
Q 2666 3584 2933 3390 
Q 3200 3197 3328 2828 
z
" transform="scale(0.015625)"/>
      <path id="DejaVuSans-5f" d="M 3263 -1063 
L 3263 -1509 
L -63 -1509 
L -63 -1063 
L 3263 -1063 
z
" transform="scale(0.015625)"/>
      <path id="DejaVuSans-70" d="M 1159 525 
L 1159 -1331 
L 581 -1331 
L 581 3500 
L 1159 3500 
L 1159 2969 
Q 1341 3281 1617 3432 
Q 1894 3584 2278 3584 
Q 2916 3584 3314 3078 
Q 3713 2572 3713 1747 
Q 3713 922 3314 415 
Q 2916 -91 2278 -91 
Q 1894 -91 1617 61 
Q 1341 213 1159 525 
z
M 3116 1747 
Q 3116 2381 2855 2742 
Q 2594 3103 2138 3103 
Q 1681 3103 1420 2742 
Q 1159 2381 1159 1747 
Q 1159 1113 1420 752 
Q 1681 391 2138 391 
Q 2594 391 2855 752 
Q 3116 1113 3116 1747 
z
" transform="scale(0.015625)"/>
      <path id="DejaVuSans-6f" d="M 1959 3097 
Q 1497 3097 1228 2736 
Q 959 2375 959 1747 
Q 959 1119 1226 758 
Q 1494 397 1959 397 
Q 2419 397 2687 759 
Q 2956 1122 2956 1747 
Q 2956 2369 2687 2733 
Q 2419 3097 1959 3097 
z
M 1959 3584 
Q 2709 3584 3137 3096 
Q 3566 2609 3566 1747 
Q 3566 888 3137 398 
Q 2709 -91 1959 -91 
Q 1206 -91 779 398 
Q 353 888 353 1747 
Q 353 2609 779 3096 
Q 1206 3584 1959 3584 
z
" transform="scale(0.015625)"/>
      <path id="DejaVuSans-62" d="M 3116 1747 
Q 3116 2381 2855 2742 
Q 2594 3103 2138 3103 
Q 1681 3103 1420 2742 
Q 1159 2381 1159 1747 
Q 1159 1113 1420 752 
Q 1681 391 2138 391 
Q 2594 391 2855 752 
Q 3116 1113 3116 1747 
z
M 1159 2969 
Q 1341 3281 1617 3432 
Q 1894 3584 2278 3584 
Q 2916 3584 3314 3078 
Q 3713 2572 3713 1747 
Q 3713 922 3314 415 
Q 2916 -91 2278 -91 
Q 1894 -91 1617 61 
Q 1341 213 1159 525 
L 1159 0 
L 581 0 
L 581 4863 
L 1159 4863 
L 1159 2969 
z
" transform="scale(0.015625)"/>
      <path id="DejaVuSans-74" d="M 1172 4494 
L 1172 3500 
L 2356 3500 
L 2356 3053 
L 1172 3053 
L 1172 1153 
Q 1172 725 1289 603 
Q 1406 481 1766 481 
L 2356 481 
L 2356 0 
L 1766 0 
Q 1100 0 847 248 
Q 594 497 594 1153 
L 594 3053 
L 172 3053 
L 172 3500 
L 594 3500 
L 594 4494 
L 1172 4494 
z
" transform="scale(0.015625)"/>
      <path id="DejaVuSans-4c" d="M 628 4666 
L 1259 4666 
L 1259 531 
L 3531 531 
L 3531 0 
L 628 0 
L 628 4666 
z
" transform="scale(0.015625)"/>
     </defs>
     <use xlink:href="#DejaVuSans-4d"/>
     <use xlink:href="#DejaVuSans-44" x="86.279297"/>
     <use xlink:href="#DejaVuSans-20" x="163.28125"/>
     <use xlink:href="#DejaVuSans-2d" x="195.068359"/>
     <use xlink:href="#DejaVuSans-20" x="231.152344"/>
     <use xlink:href="#DejaVuSans-6d" x="262.939453"/>
     <use xlink:href="#DejaVuSans-6e" x="360.351562"/>
     <use xlink:href="#DejaVuSans-69" x="423.730469"/>
     <use xlink:href="#DejaVuSans-5f" x="451.513672"/>
     <use xlink:href="#DejaVuSans-70" x="501.513672"/>
     <use xlink:href="#DejaVuSans-72" x="564.990234"/>
     <use xlink:href="#DejaVuSans-6f" x="603.853516"/>
     <use xlink:href="#DejaVuSans-62" x="665.035156"/>
     <use xlink:href="#DejaVuSans-5f" x="728.511719"/>
     <use xlink:href="#DejaVuSans-46" x="778.511719"/>
     <use xlink:href="#DejaVuSans-72" x="828.78125"/>
     <use xlink:href="#DejaVuSans-6f" x="867.644531"/>
     <use xlink:href="#DejaVuSans-6e" x="928.826172"/>
     <use xlink:href="#DejaVuSans-74" x="992.205078"/>
     <use xlink:href="#DejaVuSans-61" x="1031.414062"/>
     <use xlink:href="#DejaVuSans-6c" x="1092.693359"/>
     <use xlink:href="#DejaVuSans-5f" x="1120.476562"/>
     <use xlink:href="#DejaVuSans-4c" x="1170.476562"/>
     <use xlink:href="#DejaVuSans-6f" x="1224.439453"/>
     <use xlink:href="#DejaVuSans-62" x="1285.621094"/>
     <use xlink:href="#DejaVuSans-65" x="1349.097656"/>
    </g>
   </g>
   <g id="legend_1">
    <g id="patch_7">
     <path d="M 190.72 109.297 
L 407.72 109.297 
Q 409.72 109.297 409.72 107.297 
L 409.72 48.472 
Q 409.72 46.472 407.72 46.472 
L 190.72 46.472 
Q 188.72 46.472 188.72 48.472 
L 188.72 107.297 
Q 188.72 109.297 190.72 109.297 
z
" style="fill: #ffffff; opacity: 0.8; stroke: #cccccc; stroke-linejoin: miter"/>
    </g>
    <g id="line2d_27">
     <path d="M 192.72 54.570437 
L 202.72 54.570437 
L 212.72 54.570437 
" style="fill: none; stroke: #1f77b4; stroke-width: 1.5; stroke-linecap: square"/>
    </g>
    <g id="text_15">
     <!-- 20_01_01_E0[1.0] -->
     <g transform="translate(220.72 58.070437) scale(0.1 -0.1)">
      <defs>
       <path id="DejaVuSans-45" d="M 628 4666 
L 3578 4666 
L 3578 4134 
L 1259 4134 
L 1259 2753 
L 3481 2753 
L 3481 2222 
L 1259 2222 
L 1259 531 
L 3634 531 
L 3634 0 
L 628 0 
L 628 4666 
z
" transform="scale(0.015625)"/>
       <path id="DejaVuSans-5b" d="M 550 4863 
L 1875 4863 
L 1875 4416 
L 1125 4416 
L 1125 -397 
L 1875 -397 
L 1875 -844 
L 550 -844 
L 550 4863 
z
" transform="scale(0.015625)"/>
       <path id="DejaVuSans-5d" d="M 1947 4863 
L 1947 -844 
L 622 -844 
L 622 -397 
L 1369 -397 
L 1369 4416 
L 622 4416 
L 622 4863 
L 1947 4863 
z
" transform="scale(0.015625)"/>
      </defs>
      <use xlink:href="#DejaVuSans-32"/>
      <use xlink:href="#DejaVuSans-30" x="63.623047"/>
      <use xlink:href="#DejaVuSans-5f" x="127.246094"/>
      <use xlink:href="#DejaVuSans-30" x="177.246094"/>
      <use xlink:href="#DejaVuSans-31" x="240.869141"/>
      <use xlink:href="#DejaVuSans-5f" x="304.492188"/>
      <use xlink:href="#DejaVuSans-30" x="354.492188"/>
      <use xlink:href="#DejaVuSans-31" x="418.115234"/>
      <use xlink:href="#DejaVuSans-5f" x="481.738281"/>
      <use xlink:href="#DejaVuSans-45" x="531.738281"/>
      <use xlink:href="#DejaVuSans-30" x="594.921875"/>
      <use xlink:href="#DejaVuSans-5b" x="658.544922"/>
      <use xlink:href="#DejaVuSans-31" x="697.558594"/>
      <use xlink:href="#DejaVuSans-2e" x="761.181641"/>
      <use xlink:href="#DejaVuSans-30" x="792.96875"/>
      <use xlink:href="#DejaVuSans-5d" x="856.591797"/>
     </g>
    </g>
    <g id="line2d_28">
     <path d="M 192.72 69.526687 
L 202.72 69.526687 
L 212.72 69.526687 
" style="fill: none; stroke: #ff7f0e; stroke-width: 1.5; stroke-linecap: square"/>
    </g>
    <g id="text_16">
     <!-- 20_01_01_E1[1.0] -->
     <g transform="translate(220.72 73.026687) scale(0.1 -0.1)">
      <use xlink:href="#DejaVuSans-32"/>
      <use xlink:href="#DejaVuSans-30" x="63.623047"/>
      <use xlink:href="#DejaVuSans-5f" x="127.246094"/>
      <use xlink:href="#DejaVuSans-30" x="177.246094"/>
      <use xlink:href="#DejaVuSans-31" x="240.869141"/>
      <use xlink:href="#DejaVuSans-5f" x="304.492188"/>
      <use xlink:href="#DejaVuSans-30" x="354.492188"/>
      <use xlink:href="#DejaVuSans-31" x="418.115234"/>
      <use xlink:href="#DejaVuSans-5f" x="481.738281"/>
      <use xlink:href="#DejaVuSans-45" x="531.738281"/>
      <use xlink:href="#DejaVuSans-31" x="594.921875"/>
      <use xlink:href="#DejaVuSans-5b" x="658.544922"/>
      <use xlink:href="#DejaVuSans-31" x="697.558594"/>
      <use xlink:href="#DejaVuSans-2e" x="761.181641"/>
      <use xlink:href="#DejaVuSans-30" x="792.96875"/>
      <use xlink:href="#DejaVuSans-5d" x="856.591797"/>
     </g>
    </g>
    <g id="line2d_29">
     <path d="M 192.72 84.482937 
L 202.72 84.482937 
L 212.72 84.482937 
" style="fill: none; stroke: #2ca02c; stroke-width: 1.5; stroke-linecap: square"/>
    </g>
    <g id="text_17">
     <!-- 20_01_01_E2[1.0000000000000002] -->
     <g transform="translate(220.72 87.982937) scale(0.1 -0.1)">
      <use xlink:href="#DejaVuSans-32"/>
      <use xlink:href="#DejaVuSans-30" x="63.623047"/>
      <use xlink:href="#DejaVuSans-5f" x="127.246094"/>
      <use xlink:href="#DejaVuSans-30" x="177.246094"/>
      <use xlink:href="#DejaVuSans-31" x="240.869141"/>
      <use xlink:href="#DejaVuSans-5f" x="304.492188"/>
      <use xlink:href="#DejaVuSans-30" x="354.492188"/>
      <use xlink:href="#DejaVuSans-31" x="418.115234"/>
      <use xlink:href="#DejaVuSans-5f" x="481.738281"/>
      <use xlink:href="#DejaVuSans-45" x="531.738281"/>
      <use xlink:href="#DejaVuSans-32" x="594.921875"/>
      <use xlink:href="#DejaVuSans-5b" x="658.544922"/>
      <use xlink:href="#DejaVuSans-31" x="697.558594"/>
      <use xlink:href="#DejaVuSans-2e" x="761.181641"/>
      <use xlink:href="#DejaVuSans-30" x="792.96875"/>
      <use xlink:href="#DejaVuSans-30" x="856.591797"/>
      <use xlink:href="#DejaVuSans-30" x="920.214844"/>
      <use xlink:href="#DejaVuSans-30" x="983.837891"/>
      <use xlink:href="#DejaVuSans-30" x="1047.460938"/>
      <use xlink:href="#DejaVuSans-30" x="1111.083984"/>
      <use xlink:href="#DejaVuSans-30" x="1174.707031"/>
      <use xlink:href="#DejaVuSans-30" x="1238.330078"/>
      <use xlink:href="#DejaVuSans-30" x="1301.953125"/>
      <use xlink:href="#DejaVuSans-30" x="1365.576172"/>
      <use xlink:href="#DejaVuSans-30" x="1429.199219"/>
      <use xlink:href="#DejaVuSans-30" x="1492.822266"/>
      <use xlink:href="#DejaVuSans-30" x="1556.445312"/>
      <use xlink:href="#DejaVuSans-30" x="1620.068359"/>
      <use xlink:href="#DejaVuSans-30" x="1683.691406"/>
      <use xlink:href="#DejaVuSans-32" x="1747.314453"/>
      <use xlink:href="#DejaVuSans-5d" x="1810.9375"/>
     </g>
    </g>
    <g id="line2d_30">
     <path d="M 192.72 99.439187 
L 202.72 99.439187 
L 212.72 99.439187 
" style="fill: none; stroke: #d62728; stroke-width: 1.5; stroke-linecap: square"/>
    </g>
    <g id="text_18">
     <!-- 20_11_02_E1[1.0] -->
     <g transform="translate(220.72 102.939187) scale(0.1 -0.1)">
      <use xlink:href="#DejaVuSans-32"/>
      <use xlink:href="#DejaVuSans-30" x="63.623047"/>
      <use xlink:href="#DejaVuSans-5f" x="127.246094"/>
      <use xlink:href="#DejaVuSans-31" x="177.246094"/>
      <use xlink:href="#DejaVuSans-31" x="240.869141"/>
      <use xlink:href="#DejaVuSans-5f" x="304.492188"/>
      <use xlink:href="#DejaVuSans-30" x="354.492188"/>
      <use xlink:href="#DejaVuSans-32" x="418.115234"/>
      <use xlink:href="#DejaVuSans-5f" x="481.738281"/>
      <use xlink:href="#DejaVuSans-45" x="531.738281"/>
      <use xlink:href="#DejaVuSans-31" x="594.921875"/>
      <use xlink:href="#DejaVuSans-5b" x="658.544922"/>
      <use xlink:href="#DejaVuSans-31" x="697.558594"/>
      <use xlink:href="#DejaVuSans-2e" x="761.181641"/>
      <use xlink:href="#DejaVuSans-30" x="792.96875"/>
      <use xlink:href="#DejaVuSans-5d" x="856.591797"/>
     </g>
    </g>
   </g>
  </g>
 </g>
 <defs>
  <clipPath id="p25465fe055">
   <rect x="57.6" y="41.472" width="357.12" height="266.112"/>
  </clipPath>
 </defs>
</svg>
