<?xml version="1.0" encoding="utf-8" standalone="no"?>
<!DOCTYPE svg PUBLIC "-//W3C//DTD SVG 1.1//EN"
  "http://www.w3.org/Graphics/SVG/1.1/DTD/svg11.dtd">
<svg xmlns:xlink="http://www.w3.org/1999/xlink" width="460.8pt" height="345.6pt" viewBox="0 0 460.8 345.6" xmlns="http://www.w3.org/2000/svg" version="1.1">
 <metadata>
  <rdf:RDF xmlns:dc="http://purl.org/dc/elements/1.1/" xmlns:cc="http://creativecommons.org/ns#" xmlns:rdf="http://www.w3.org/1999/02/22-rdf-syntax-ns#">
   <cc:Work>
    <dc:type rdf:resource="http://purl.org/dc/dcmitype/StillImage"/>
    <dc:date>2023-02-10T12:44:00.822125</dc:date>
    <dc:format>image/svg+xml</dc:format>
    <dc:creator>
     <cc:Agent>
      <dc:title>Matplotlib v3.6.2, https://matplotlib.org/</dc:title>
     </cc:Agent>
    </dc:creator>
   </cc:Work>
  </rdf:RDF>
 </metadata>
 <defs>
  <style type="text/css">*{stroke-linejoin: round; stroke-linecap: butt}</style>
 </defs>
 <g id="figure_1">
  <g id="patch_1">
   <path d="M 0 345.6 
L 460.8 345.6 
L 460.8 0 
L 0 0 
z
" style="fill: #ffffff"/>
  </g>
  <g id="axes_1">
   <g id="patch_2">
    <path d="M 57.6 307.584 
L 414.72 307.584 
L 414.72 41.472 
L 57.6 41.472 
z
" style="fill: #ffffff"/>
   </g>
   <g id="PolyCollection_1">
    <path d="M 73.832727 256.555351 
L 73.832727 295.488 
L 74.907742 295.488 
L 75.982757 295.488 
L 77.057772 295.488 
L 78.132787 295.488 
L 79.207803 295.488 
L 80.282818 295.488 
L 81.357833 295.488 
L 82.432848 295.488 
L 83.507863 295.488 
L 84.582878 295.488 
L 85.657893 295.488 
L 86.732908 295.488 
L 87.807923 295.488 
L 88.882938 295.488 
L 89.957953 295.488 
L 91.032968 295.488 
L 92.107983 295.488 
L 93.182998 295.488 
L 94.258013 295.488 
L 95.333028 295.488 
L 96.408043 295.488 
L 97.483058 295.488 
L 98.558073 295.488 
L 99.633089 295.488 
L 100.708104 295.488 
L 101.783119 295.488 
L 102.858134 295.488 
L 103.933149 295.488 
L 105.008164 295.488 
L 106.083179 295.488 
L 107.158194 295.488 
L 108.233209 295.488 
L 109.308224 295.488 
L 110.383239 295.488 
L 111.458254 295.488 
L 112.533269 295.488 
L 113.608284 295.488 
L 114.683299 295.488 
L 115.758314 295.488 
L 116.833329 295.488 
L 117.908344 295.488 
L 118.983359 295.488 
L 120.058374 295.488 
L 121.13339 295.488 
L 122.208405 295.488 
L 123.28342 295.488 
L 124.358435 295.488 
L 125.43345 295.488 
L 126.508465 295.488 
L 127.58348 295.488 
L 128.658495 295.488 
L 129.73351 295.488 
L 130.808525 295.488 
L 131.88354 295.488 
L 132.958555 295.488 
L 134.03357 295.488 
L 135.108585 295.488 
L 136.1836 295.488 
L 137.258615 295.488 
L 138.33363 295.488 
L 139.408645 295.488 
L 140.48366 295.488 
L 141.558675 295.488 
L 142.633691 295.488 
L 143.708706 295.488 
L 144.783721 295.488 
L 145.858736 295.488 
L 146.933751 295.488 
L 148.008766 295.488 
L 149.083781 295.488 
L 150.158796 295.488 
L 151.233811 295.488 
L 152.308826 295.488 
L 153.383841 295.488 
L 154.458856 295.488 
L 155.533871 295.488 
L 156.608886 295.488 
L 157.683901 295.488 
L 158.758916 295.488 
L 159.833931 295.488 
L 160.908946 295.488 
L 161.983961 295.488 
L 163.058977 295.488 
L 164.133992 295.488 
L 165.209007 295.488 
L 166.284022 295.488 
L 167.359037 295.488 
L 168.434052 295.488 
L 169.509067 295.488 
L 170.584082 295.488 
L 171.659097 295.488 
L 172.734112 295.488 
L 173.809127 295.488 
L 174.884142 295.488 
L 175.959157 295.488 
L 177.034172 295.488 
L 178.109187 295.488 
L 179.184202 295.488 
L 180.259217 295.488 
L 181.334232 295.488 
L 182.409247 295.488 
L 183.484262 295.488 
L 184.559278 295.488 
L 185.634293 295.488 
L 186.709308 295.488 
L 187.784323 295.488 
L 188.859338 295.488 
L 189.934353 295.488 
L 191.009368 295.488 
L 192.084383 295.488 
L 193.159398 295.488 
L 194.234413 295.488 
L 195.309428 295.488 
L 196.384443 295.488 
L 197.459458 295.488 
L 198.534473 295.488 
L 199.609488 295.488 
L 200.684503 295.488 
L 201.759518 295.488 
L 202.834533 295.488 
L 203.909548 295.488 
L 204.984564 295.488 
L 206.059579 295.488 
L 207.134594 295.488 
L 208.209609 295.488 
L 209.284624 295.488 
L 210.359639 295.488 
L 211.434654 295.488 
L 212.509669 295.488 
L 213.584684 295.488 
L 214.659699 295.488 
L 215.734714 295.488 
L 216.809729 295.488 
L 217.884744 295.488 
L 218.959759 295.488 
L 220.034774 295.488 
L 221.109789 295.488 
L 222.184804 295.488 
L 223.259819 295.488 
L 224.334834 295.488 
L 225.409849 295.488 
L 226.484865 295.488 
L 227.55988 295.488 
L 228.634895 295.488 
L 229.70991 295.488 
L 230.784925 295.488 
L 231.85994 295.488 
L 232.934955 295.488 
L 234.00997 295.488 
L 235.084985 295.488 
L 236.16 295.488 
L 237.235015 295.488 
L 238.31003 295.488 
L 239.385045 295.488 
L 240.46006 295.488 
L 241.535075 295.488 
L 242.61009 295.488 
L 243.685105 295.488 
L 244.76012 295.488 
L 245.835135 295.488 
L 246.910151 295.488 
L 247.985166 295.488 
L 249.060181 295.488 
L 250.135196 295.488 
L 251.210211 295.488 
L 252.285226 295.488 
L 253.360241 295.488 
L 254.435256 295.488 
L 255.510271 295.488 
L 256.585286 295.488 
L 257.660301 295.488 
L 258.735316 295.488 
L 259.810331 295.488 
L 260.885346 295.488 
L 261.960361 295.488 
L 263.035376 295.488 
L 264.110391 295.488 
L 265.185406 295.488 
L 266.260421 295.488 
L 267.335436 295.488 
L 268.410452 295.488 
L 269.485467 295.488 
L 270.560482 295.488 
L 271.635497 295.488 
L 272.710512 295.488 
L 273.785527 295.488 
L 274.860542 295.488 
L 275.935557 295.488 
L 277.010572 295.488 
L 278.085587 295.488 
L 279.160602 295.488 
L 280.235617 295.488 
L 281.310632 295.488 
L 282.385647 295.488 
L 283.460662 295.488 
L 284.535677 295.488 
L 285.610692 295.488 
L 286.685707 295.488 
L 287.760722 295.488 
L 288.835738 295.488 
L 289.910753 295.488 
L 290.985768 295.488 
L 292.060783 295.488 
L 293.135798 295.488 
L 294.210813 295.488 
L 295.285828 295.488 
L 296.360843 295.488 
L 297.435858 295.488 
L 298.510873 295.488 
L 299.585888 295.488 
L 300.660903 295.488 
L 301.735918 295.488 
L 302.810933 295.488 
L 303.885948 295.488 
L 304.960963 295.488 
L 306.035978 295.488 
L 307.110993 295.488 
L 308.186008 295.488 
L 309.261023 295.488 
L 310.336039 295.488 
L 311.411054 295.488 
L 312.486069 295.488 
L 313.561084 295.488 
L 314.636099 295.488 
L 315.711114 295.488 
L 316.786129 295.488 
L 317.861144 295.488 
L 318.936159 295.488 
L 320.011174 295.488 
L 321.086189 295.488 
L 322.161204 295.488 
L 323.236219 295.488 
L 324.311234 295.488 
L 325.386249 295.488 
L 326.461264 295.488 
L 327.536279 295.488 
L 328.611294 295.488 
L 329.686309 295.488 
L 330.761325 295.488 
L 331.83634 295.488 
L 332.911355 295.488 
L 333.98637 295.488 
L 335.061385 295.488 
L 336.1364 295.488 
L 337.211415 295.488 
L 338.28643 295.488 
L 339.361445 295.488 
L 340.43646 295.488 
L 341.511475 295.488 
L 342.58649 295.488 
L 343.661505 295.488 
L 344.73652 295.488 
L 345.811535 295.488 
L 346.88655 295.488 
L 347.961565 295.488 
L 349.03658 295.488 
L 350.111595 295.488 
L 351.18661 295.488 
L 352.261626 295.488 
L 353.336641 295.488 
L 354.411656 295.488 
L 355.486671 295.488 
L 356.561686 295.488 
L 357.636701 295.488 
L 358.711716 295.488 
L 359.786731 295.488 
L 360.861746 295.488 
L 361.936761 295.488 
L 363.011776 295.488 
L 364.086791 295.488 
L 365.161806 295.488 
L 366.236821 295.488 
L 367.311836 295.488 
L 368.386851 295.488 
L 369.461866 295.488 
L 370.536881 295.488 
L 371.611896 295.488 
L 372.686911 295.488 
L 373.761927 295.488 
L 374.836942 295.488 
L 375.911957 295.488 
L 376.986972 295.488 
L 378.061987 295.488 
L 379.137002 295.488 
L 380.212017 295.488 
L 381.287032 295.488 
L 382.362047 295.488 
L 383.437062 295.488 
L 384.512077 295.488 
L 385.587092 295.488 
L 386.662107 295.488 
L 387.737122 295.488 
L 388.812137 295.488 
L 389.887152 295.488 
L 390.962167 295.488 
L 392.037182 295.488 
L 393.112197 295.488 
L 394.187213 295.488 
L 395.262228 295.488 
L 396.337243 295.488 
L 397.412258 295.488 
L 398.487273 295.488 
L 398.487273 295.411803 
L 398.487273 295.411803 
L 397.412258 295.409003 
L 396.337243 295.408974 
L 395.262228 295.41172 
L 394.187213 295.416955 
L 393.112197 295.424151 
L 392.037182 295.432628 
L 390.962167 295.441659 
L 389.887152 295.450564 
L 388.812137 295.458792 
L 387.737122 295.465962 
L 386.662107 295.471868 
L 385.587092 295.476457 
L 384.512077 295.479789 
L 383.437062 295.481989 
L 382.362047 295.483207 
L 381.287032 295.483595 
L 380.212017 295.483285 
L 379.137002 295.482395 
L 378.061987 295.481035 
L 376.986972 295.479319 
L 375.911957 295.477372 
L 374.836942 295.475337 
L 373.761927 295.473365 
L 372.686911 295.471601 
L 371.611896 295.470164 
L 370.536881 295.469122 
L 369.461866 295.468481 
L 368.386851 295.468177 
L 367.311836 295.468086 
L 366.236821 295.468047 
L 365.161806 295.467901 
L 364.086791 295.467519 
L 363.011776 295.466836 
L 361.936761 295.465872 
L 360.861746 295.464723 
L 359.786731 295.463548 
L 358.711716 295.462527 
L 357.636701 295.461825 
L 356.561686 295.461552 
L 355.486671 295.461731 
L 354.411656 295.4623 
L 353.336641 295.463118 
L 352.261626 295.464003 
L 351.18661 295.464771 
L 350.111595 295.465278 
L 349.03658 295.465452 
L 347.961565 295.465308 
L 346.88655 295.46494 
L 345.811535 295.464494 
L 344.73652 295.464131 
L 343.661505 295.463986 
L 342.58649 295.464132 
L 341.511475 295.464565 
L 340.43646 295.465204 
L 339.361445 295.465915 
L 338.28643 295.466542 
L 337.211415 295.466949 
L 336.1364 295.467054 
L 335.061385 295.466847 
L 333.98637 295.466397 
L 332.911355 295.465832 
L 331.83634 295.465304 
L 330.761325 295.464956 
L 329.686309 295.464885 
L 328.611294 295.465114 
L 327.536279 295.465592 
L 326.461264 295.466204 
L 325.386249 295.466799 
L 324.311234 295.46723 
L 323.236219 295.467392 
L 322.161204 295.467243 
L 321.086189 295.466821 
L 320.011174 295.466231 
L 318.936159 295.465619 
L 317.861144 295.465138 
L 316.786129 295.464907 
L 315.711114 295.464984 
L 314.636099 295.465349 
L 313.561084 295.465913 
L 312.486069 295.466534 
L 311.411054 295.467058 
L 310.336039 295.467354 
L 309.261023 295.467348 
L 308.186008 295.467039 
L 307.110993 295.466501 
L 306.035978 295.465861 
L 304.960963 295.465269 
L 303.885948 295.464856 
L 302.810933 295.464705 
L 301.735918 295.464824 
L 300.660903 295.465144 
L 299.585888 295.465539 
L 298.510873 295.465854 
L 297.435858 295.465944 
L 296.360843 295.465716 
L 295.285828 295.46515 
L 294.210813 295.464309 
L 293.135798 295.463324 
L 292.060783 295.462361 
L 290.985768 295.461584 
L 289.910753 295.461109 
L 288.835738 295.460972 
L 287.760722 295.461123 
L 286.685707 295.46143 
L 285.610692 295.461714 
L 284.535677 295.461792 
L 283.460662 295.461523 
L 282.385647 295.460847 
L 281.310632 295.459803 
L 280.235617 295.458521 
L 279.160602 295.457194 
L 278.085587 295.456032 
L 277.010572 295.455208 
L 275.935557 295.454812 
L 274.860542 295.454828 
L 273.785527 295.455134 
L 272.710512 295.455528 
L 271.635497 295.455778 
L 270.560482 295.455682 
L 269.485467 295.455117 
L 268.410452 295.454081 
L 267.335436 295.452695 
L 266.260421 295.451186 
L 265.185406 295.449833 
L 264.110391 295.448911 
L 263.035376 295.448625 
L 261.960361 295.449066 
L 260.885346 295.450188 
L 259.810331 295.451826 
L 258.735316 295.453726 
L 257.660301 295.455609 
L 256.585286 295.45723 
L 255.510271 295.458426 
L 254.435256 295.459146 
L 253.360241 295.459448 
L 252.285226 295.459477 
L 251.210211 295.459414 
L 250.135196 295.459429 
L 249.060181 295.459631 
L 247.985166 295.460043 
L 246.910151 295.460597 
L 245.835135 295.461154 
L 244.76012 295.461548 
L 243.685105 295.461625 
L 242.61009 295.461297 
L 241.535075 295.460562 
L 240.46006 295.459513 
L 239.385045 295.458317 
L 238.31003 295.457175 
L 237.235015 295.456274 
L 236.16 295.455733 
L 235.084985 295.455577 
L 234.00997 295.455721 
L 232.934955 295.455993 
L 231.85994 295.456173 
L 230.784925 295.456049 
L 229.70991 295.455473 
L 228.634895 295.454406 
L 227.55988 295.452932 
L 226.484865 295.451247 
L 225.409849 295.449621 
L 224.334834 295.448335 
L 223.259819 295.447618 
L 222.184804 295.447594 
L 221.109789 295.448253 
L 220.034774 295.449451 
L 218.959759 295.450943 
L 217.884744 295.452442 
L 216.809729 295.45368 
L 215.734714 295.454471 
L 214.659699 295.454741 
L 213.584684 295.454543 
L 212.509669 295.454029 
L 211.434654 295.453404 
L 210.359639 295.452863 
L 209.284624 295.45254 
L 208.209609 295.452463 
L 207.134594 295.452545 
L 206.059579 295.452609 
L 204.984564 295.452431 
L 203.909548 295.451806 
L 202.834533 295.45061 
L 201.759518 295.448845 
L 200.684503 295.446655 
L 199.609488 295.444312 
L 198.534473 295.442162 
L 197.459458 295.440554 
L 196.384443 295.439769 
L 195.309428 295.439954 
L 194.234413 295.441093 
L 193.159398 295.44301 
L 192.084383 295.445407 
L 191.009368 295.447932 
L 189.934353 295.450251 
L 188.859338 295.452115 
L 187.784323 295.453404 
L 186.709308 295.454134 
L 185.634293 295.454437 
L 184.559278 295.454513 
L 183.484262 295.454565 
L 182.409247 295.454741 
L 181.334232 295.455099 
L 180.259217 295.455585 
L 179.184202 295.456058 
L 178.109187 295.456325 
L 177.034172 295.4562 
L 175.959157 295.455552 
L 174.884142 295.454343 
L 173.809127 295.452638 
L 172.734112 295.450583 
L 171.659097 295.448353 
L 170.584082 295.446092 
L 169.509067 295.443847 
L 168.434052 295.441526 
L 167.359037 295.438895 
L 166.284022 295.435609 
L 165.209007 295.431291 
L 164.133992 295.425628 
L 163.058977 295.418474 
L 161.983961 295.409917 
L 160.908946 295.400298 
L 159.833931 295.39016 
L 158.758916 295.380127 
L 157.683901 295.370738 
L 156.608886 295.362273 
L 155.533871 295.354614 
L 154.458856 295.347196 
L 153.383841 295.339069 
L 152.308826 295.329077 
L 151.233811 295.316144 
L 150.158796 295.299582 
L 149.083781 295.279384 
L 148.008766 295.256393 
L 146.933751 295.232312 
L 145.858736 295.209516 
L 144.783721 295.190707 
L 143.708706 295.178451 
L 142.633691 295.174718 
L 141.558675 295.180503 
L 140.48366 295.195597 
L 139.408645 295.218548 
L 138.33363 295.24675 
L 137.258615 295.276595 
L 136.1836 295.30354 
L 135.108585 295.321977 
L 134.03357 295.324816 
L 132.958555 295.302762 
L 131.88354 295.243399 
L 130.808525 295.130302 
L 129.73351 294.942556 
L 128.658495 294.655147 
L 127.58348 294.240659 
L 126.508465 293.6726 
L 125.43345 292.930261 
L 124.358435 292.004532 
L 123.28342 290.903464 
L 122.208405 289.655908 
L 121.13339 288.311408 
L 120.058374 286.934945 
L 118.983359 285.596205 
L 117.908344 284.354496 
L 116.833329 283.242161 
L 115.758314 282.250509 
L 114.683299 281.322676 
L 113.608284 280.35686 
L 112.533269 279.221195 
L 111.458254 277.778368 
L 110.383239 275.914739 
L 109.308224 273.566123 
L 108.233209 270.731429 
L 107.158194 267.466744 
L 106.083179 263.856424 
L 105.008164 259.963758 
L 103.933149 255.770775 
L 102.858134 251.122903 
L 101.783119 245.697532 
L 100.708104 239.014385 
L 99.633089 230.498916 
L 98.558073 219.598282 
L 97.483058 205.934611 
L 96.408043 189.465884 
L 95.333028 170.615127 
L 94.258013 150.327763 
L 93.182998 130.027403 
L 92.107983 111.461241 
L 91.032968 96.453447 
L 89.957953 86.61117 
L 88.882938 83.044856 
L 87.807923 86.166311 
L 86.732908 95.612273 
L 85.657893 110.311977 
L 84.582878 128.682467 
L 83.507863 148.905468 
L 82.432848 169.222937 
L 81.357833 188.188942 
L 80.282818 204.831778 
L 79.207803 218.706079 
L 78.132787 229.841965 
L 77.057772 238.61974 
L 75.982757 245.609624 
L 74.907742 251.415867 
L 73.832727 256.555351 
z
" clip-path="url(#p6f869cb01e)" style="fill: #1f77b4; fill-opacity: 0.25"/>
   </g>
   <g id="PolyCollection_2">
    <path d="M 73.832727 275.551649 
L 73.832727 295.488 
L 74.907742 295.488 
L 75.982757 295.488 
L 77.057772 295.488 
L 78.132787 295.488 
L 79.207803 295.488 
L 80.282818 295.488 
L 81.357833 295.488 
L 82.432848 295.488 
L 83.507863 295.488 
L 84.582878 295.488 
L 85.657893 295.488 
L 86.732908 295.488 
L 87.807923 295.488 
L 88.882938 295.488 
L 89.957953 295.488 
L 91.032968 295.488 
L 92.107983 295.488 
L 93.182998 295.488 
L 94.258013 295.488 
L 95.333028 295.488 
L 96.408043 295.488 
L 97.483058 295.488 
L 98.558073 295.488 
L 99.633089 295.488 
L 100.708104 295.488 
L 101.783119 295.488 
L 102.858134 295.488 
L 103.933149 295.488 
L 105.008164 295.488 
L 106.083179 295.488 
L 107.158194 295.488 
L 108.233209 295.488 
L 109.308224 295.488 
L 110.383239 295.488 
L 111.458254 295.488 
L 112.533269 295.488 
L 113.608284 295.488 
L 114.683299 295.488 
L 115.758314 295.488 
L 116.833329 295.488 
L 117.908344 295.488 
L 118.983359 295.488 
L 120.058374 295.488 
L 121.13339 295.488 
L 122.208405 295.488 
L 123.28342 295.488 
L 124.358435 295.488 
L 125.43345 295.488 
L 126.508465 295.488 
L 127.58348 295.488 
L 128.658495 295.488 
L 129.73351 295.488 
L 130.808525 295.488 
L 131.88354 295.488 
L 132.958555 295.488 
L 134.03357 295.488 
L 135.108585 295.488 
L 136.1836 295.488 
L 137.258615 295.488 
L 138.33363 295.488 
L 139.408645 295.488 
L 140.48366 295.488 
L 141.558675 295.488 
L 142.633691 295.488 
L 143.708706 295.488 
L 144.783721 295.488 
L 145.858736 295.488 
L 146.933751 295.488 
L 148.008766 295.488 
L 149.083781 295.488 
L 150.158796 295.488 
L 151.233811 295.488 
L 152.308826 295.488 
L 153.383841 295.488 
L 154.458856 295.488 
L 155.533871 295.488 
L 156.608886 295.488 
L 157.683901 295.488 
L 158.758916 295.488 
L 159.833931 295.488 
L 160.908946 295.488 
L 161.983961 295.488 
L 163.058977 295.488 
L 164.133992 295.488 
L 165.209007 295.488 
L 166.284022 295.488 
L 167.359037 295.488 
L 168.434052 295.488 
L 169.509067 295.488 
L 170.584082 295.488 
L 171.659097 295.488 
L 172.734112 295.488 
L 173.809127 295.488 
L 174.884142 295.488 
L 175.959157 295.488 
L 177.034172 295.488 
L 178.109187 295.488 
L 179.184202 295.488 
L 180.259217 295.488 
L 181.334232 295.488 
L 182.409247 295.488 
L 183.484262 295.488 
L 184.559278 295.488 
L 185.634293 295.488 
L 186.709308 295.488 
L 187.784323 295.488 
L 188.859338 295.488 
L 189.934353 295.488 
L 191.009368 295.488 
L 192.084383 295.488 
L 193.159398 295.488 
L 194.234413 295.488 
L 195.309428 295.488 
L 196.384443 295.488 
L 197.459458 295.488 
L 198.534473 295.488 
L 199.609488 295.488 
L 200.684503 295.488 
L 201.759518 295.488 
L 202.834533 295.488 
L 203.909548 295.488 
L 204.984564 295.488 
L 206.059579 295.488 
L 207.134594 295.488 
L 208.209609 295.488 
L 209.284624 295.488 
L 210.359639 295.488 
L 211.434654 295.488 
L 212.509669 295.488 
L 213.584684 295.488 
L 214.659699 295.488 
L 215.734714 295.488 
L 216.809729 295.488 
L 217.884744 295.488 
L 218.959759 295.488 
L 220.034774 295.488 
L 221.109789 295.488 
L 222.184804 295.488 
L 223.259819 295.488 
L 224.334834 295.488 
L 225.409849 295.488 
L 226.484865 295.488 
L 227.55988 295.488 
L 228.634895 295.488 
L 229.70991 295.488 
L 230.784925 295.488 
L 231.85994 295.488 
L 232.934955 295.488 
L 234.00997 295.488 
L 235.084985 295.488 
L 236.16 295.488 
L 237.235015 295.488 
L 238.31003 295.488 
L 239.385045 295.488 
L 240.46006 295.488 
L 241.535075 295.488 
L 242.61009 295.488 
L 243.685105 295.488 
L 244.76012 295.488 
L 245.835135 295.488 
L 246.910151 295.488 
L 247.985166 295.488 
L 249.060181 295.488 
L 250.135196 295.488 
L 251.210211 295.488 
L 252.285226 295.488 
L 253.360241 295.488 
L 254.435256 295.488 
L 255.510271 295.488 
L 256.585286 295.488 
L 257.660301 295.488 
L 258.735316 295.488 
L 259.810331 295.488 
L 260.885346 295.488 
L 261.960361 295.488 
L 263.035376 295.488 
L 264.110391 295.488 
L 265.185406 295.488 
L 266.260421 295.488 
L 267.335436 295.488 
L 268.410452 295.488 
L 269.485467 295.488 
L 270.560482 295.488 
L 271.635497 295.488 
L 272.710512 295.488 
L 273.785527 295.488 
L 274.860542 295.488 
L 275.935557 295.488 
L 277.010572 295.488 
L 278.085587 295.488 
L 279.160602 295.488 
L 280.235617 295.488 
L 281.310632 295.488 
L 282.385647 295.488 
L 283.460662 295.488 
L 284.535677 295.488 
L 285.610692 295.488 
L 286.685707 295.488 
L 287.760722 295.488 
L 288.835738 295.488 
L 289.910753 295.488 
L 290.985768 295.488 
L 292.060783 295.488 
L 293.135798 295.488 
L 294.210813 295.488 
L 295.285828 295.488 
L 296.360843 295.488 
L 297.435858 295.488 
L 298.510873 295.488 
L 299.585888 295.488 
L 300.660903 295.488 
L 301.735918 295.488 
L 302.810933 295.488 
L 303.885948 295.488 
L 304.960963 295.488 
L 306.035978 295.488 
L 307.110993 295.488 
L 308.186008 295.488 
L 309.261023 295.488 
L 310.336039 295.488 
L 311.411054 295.488 
L 312.486069 295.488 
L 313.561084 295.488 
L 314.636099 295.488 
L 315.711114 295.488 
L 316.786129 295.488 
L 317.861144 295.488 
L 318.936159 295.488 
L 320.011174 295.488 
L 321.086189 295.488 
L 322.161204 295.488 
L 323.236219 295.488 
L 324.311234 295.488 
L 325.386249 295.488 
L 326.461264 295.488 
L 327.536279 295.488 
L 328.611294 295.488 
L 329.686309 295.488 
L 330.761325 295.488 
L 331.83634 295.488 
L 332.911355 295.488 
L 333.98637 295.488 
L 335.061385 295.488 
L 336.1364 295.488 
L 337.211415 295.488 
L 338.28643 295.488 
L 339.361445 295.488 
L 340.43646 295.488 
L 341.511475 295.488 
L 342.58649 295.488 
L 343.661505 295.488 
L 344.73652 295.488 
L 345.811535 295.488 
L 346.88655 295.488 
L 347.961565 295.488 
L 349.03658 295.488 
L 350.111595 295.488 
L 351.18661 295.488 
L 352.261626 295.488 
L 353.336641 295.488 
L 354.411656 295.488 
L 355.486671 295.488 
L 356.561686 295.488 
L 357.636701 295.488 
L 358.711716 295.488 
L 359.786731 295.488 
L 360.861746 295.488 
L 361.936761 295.488 
L 363.011776 295.488 
L 364.086791 295.488 
L 365.161806 295.488 
L 366.236821 295.488 
L 367.311836 295.488 
L 368.386851 295.488 
L 369.461866 295.488 
L 370.536881 295.488 
L 371.611896 295.488 
L 372.686911 295.488 
L 373.761927 295.488 
L 374.836942 295.488 
L 375.911957 295.488 
L 376.986972 295.488 
L 378.061987 295.488 
L 379.137002 295.488 
L 380.212017 295.488 
L 381.287032 295.488 
L 382.362047 295.488 
L 383.437062 295.488 
L 384.512077 295.488 
L 385.587092 295.488 
L 386.662107 295.488 
L 387.737122 295.488 
L 388.812137 295.488 
L 389.887152 295.488 
L 390.962167 295.488 
L 392.037182 295.488 
L 393.112197 295.488 
L 394.187213 295.488 
L 395.262228 295.488 
L 396.337243 295.488 
L 397.412258 295.488 
L 398.487273 295.488 
L 398.487273 295.411935 
L 398.487273 295.411935 
L 397.412258 295.408853 
L 396.337243 295.408377 
L 395.262228 295.410469 
L 394.187213 295.41481 
L 393.112197 295.42085 
L 392.037182 295.427911 
L 390.962167 295.435293 
L 389.887152 295.442385 
L 388.812137 295.448742 
L 387.737122 295.454124 
L 386.662107 295.458486 
L 385.587092 295.461945 
L 384.512077 295.464715 
L 383.437062 295.467042 
L 382.362047 295.469146 
L 381.287032 295.471187 
L 380.212017 295.473248 
L 379.137002 295.475338 
L 378.061987 295.477416 
L 376.986972 295.479407 
L 375.911957 295.481236 
L 374.836942 295.482838 
L 373.761927 295.484173 
L 372.686911 295.485225 
L 371.611896 295.486001 
L 370.536881 295.486522 
L 369.461866 295.486814 
L 368.386851 295.486906 
L 367.311836 295.486823 
L 366.236821 295.486588 
L 365.161806 295.486225 
L 364.086791 295.485758 
L 363.011776 295.48522 
L 361.936761 295.484648 
L 360.861746 295.484088 
L 359.786731 295.48359 
L 358.711716 295.4832 
L 357.636701 295.482957 
L 356.561686 295.482888 
L 355.486671 295.483 
L 354.411656 295.483281 
L 353.336641 295.483702 
L 352.261626 295.484223 
L 351.18661 295.484798 
L 350.111595 295.48538 
L 349.03658 295.485932 
L 347.961565 295.486425 
L 346.88655 295.486842 
L 345.811535 295.487179 
L 344.73652 295.487438 
L 343.661505 295.487629 
L 342.58649 295.487764 
L 341.511475 295.487855 
L 340.43646 295.487913 
L 339.361445 295.48795 
L 338.28643 295.487971 
L 337.211415 295.487982 
L 336.1364 295.487985 
L 335.061385 295.487983 
L 333.98637 295.487974 
L 332.911355 295.487956 
L 331.83634 295.487927 
L 330.761325 295.48788 
L 329.686309 295.487811 
L 328.611294 295.487712 
L 327.536279 295.487576 
L 326.461264 295.487396 
L 325.386249 295.487168 
L 324.311234 295.486889 
L 323.236219 295.486559 
L 322.161204 295.486179 
L 321.086189 295.485746 
L 320.011174 295.485254 
L 318.936159 295.484678 
L 317.861144 295.483979 
L 316.786129 295.483092 
L 315.711114 295.481933 
L 314.636099 295.480403 
L 313.561084 295.478404 
L 312.486069 295.475862 
L 311.411054 295.472749 
L 310.336039 295.469113 
L 309.261023 295.465087 
L 308.186008 295.460894 
L 307.110993 295.456832 
L 306.035978 295.45323 
L 304.960963 295.450409 
L 303.885948 295.44862 
L 302.810933 295.448002 
L 301.735918 295.448553 
L 300.660903 295.450131 
L 299.585888 295.452473 
L 298.510873 295.455252 
L 297.435858 295.458128 
L 296.360843 295.460808 
L 295.285828 295.463089 
L 294.210813 295.464874 
L 293.135798 295.466172 
L 292.060783 295.467064 
L 290.985768 295.467668 
L 289.910753 295.468095 
L 288.835738 295.468414 
L 287.760722 295.468636 
L 286.685707 295.468716 
L 285.610692 295.468571 
L 284.535677 295.468114 
L 283.460662 295.467291 
L 282.385647 295.466104 
L 281.310632 295.46463 
L 280.235617 295.46301 
L 279.160602 295.461428 
L 278.085587 295.460069 
L 277.010572 295.459074 
L 275.935557 295.458511 
L 274.860542 295.458347 
L 273.785527 295.458454 
L 272.710512 295.458639 
L 271.635497 295.458685 
L 270.560482 295.458407 
L 269.485467 295.4577 
L 268.410452 295.45657 
L 267.335436 295.455142 
L 266.260421 295.453637 
L 265.185406 295.452329 
L 264.110391 295.451486 
L 263.035376 295.451313 
L 261.960361 295.451907 
L 260.885346 295.453239 
L 259.810331 295.45516 
L 258.735316 295.457436 
L 257.660301 295.459798 
L 256.585286 295.461992 
L 255.510271 295.463826 
L 254.435256 295.465194 
L 253.360241 295.466077 
L 252.285226 295.466522 
L 251.210211 295.466607 
L 250.135196 295.466397 
L 249.060181 295.465913 
L 247.985166 295.465115 
L 246.910151 295.463902 
L 245.835135 295.462145 
L 244.76012 295.459728 
L 243.685105 295.456601 
L 242.61009 295.452817 
L 241.535075 295.448559 
L 240.46006 295.44413 
L 239.385045 295.439912 
L 238.31003 295.436303 
L 237.235015 295.433637 
L 236.16 295.432113 
L 235.084985 295.431746 
L 234.00997 295.432358 
L 232.934955 295.43361 
L 231.85994 295.435073 
L 230.784925 295.43632 
L 229.70991 295.437023 
L 228.634895 295.437021 
L 227.55988 295.436358 
L 226.484865 295.435269 
L 225.409849 295.434122 
L 224.334834 295.433338 
L 223.259819 295.433294 
L 222.184804 295.434239 
L 221.109789 295.436243 
L 220.034774 295.439192 
L 218.959759 295.442815 
L 217.884744 295.446747 
L 216.809729 295.450609 
L 215.734714 295.454073 
L 214.659699 295.456917 
L 213.584684 295.45904 
L 212.509669 295.46045 
L 211.434654 295.461224 
L 210.359639 295.461455 
L 209.284624 295.461201 
L 208.209609 295.460452 
L 207.134594 295.459125 
L 206.059579 295.457086 
L 204.984564 295.454192 
L 203.909548 295.45036 
L 202.834533 295.445617 
L 201.759518 295.440138 
L 200.684503 295.434251 
L 199.609488 295.428394 
L 198.534473 295.423043 
L 197.459458 295.418613 
L 196.384443 295.41536 
L 195.309428 295.413312 
L 194.234413 295.41224 
L 193.159398 295.411698 
L 192.084383 295.41111 
L 191.009368 295.409901 
L 189.934353 295.407638 
L 188.859338 295.404145 
L 187.784323 295.399566 
L 186.709308 295.394354 
L 185.634293 295.389187 
L 184.559278 295.384826 
L 183.484262 295.381944 
L 182.409247 295.380978 
L 181.334232 295.382023 
L 180.259217 295.384809 
L 179.184202 295.388759 
L 178.109187 295.393119 
L 177.034172 295.397124 
L 175.959157 295.400165 
L 174.884142 295.401909 
L 173.809127 295.402355 
L 172.734112 295.401803 
L 171.659097 295.400755 
L 170.584082 295.399765 
L 169.509067 295.399288 
L 168.434052 295.399551 
L 167.359037 295.400492 
L 166.284022 295.401769 
L 165.209007 295.402835 
L 164.133992 295.403064 
L 163.058977 295.401876 
L 161.983961 295.398829 
L 160.908946 295.393634 
L 159.833931 295.38609 
L 158.758916 295.37592 
L 157.683901 295.362575 
L 156.608886 295.345035 
L 155.533871 295.3217 
L 154.458856 295.290438 
L 153.383841 295.248842 
L 152.308826 295.194696 
L 151.233811 295.12661 
L 150.158796 295.044699 
L 149.083781 294.95115 
L 148.008766 294.850507 
L 146.933751 294.749512 
L 145.858736 294.656478 
L 144.783721 294.580209 
L 143.708706 294.52868 
L 142.633691 294.507703 
L 141.558675 294.519881 
L 140.48366 294.56404 
L 139.408645 294.635222 
L 138.33363 294.725143 
L 137.258615 294.822849 
L 136.1836 294.915232 
L 135.108585 294.987029 
L 134.03357 295.020064 
L 132.958555 294.991677 
L 131.88354 294.872569 
L 130.808525 294.624667 
L 129.73351 294.199885 
L 128.658495 293.540935 
L 127.58348 292.585282 
L 126.508465 291.273008 
L 125.43345 289.558513 
L 124.358435 287.424805 
L 123.28342 284.89774 
L 122.208405 282.056503 
L 121.13339 279.036233 
L 120.058374 276.019577 
L 118.983359 273.216057 
L 117.908344 270.83125 
L 116.833329 269.03103 
L 115.758314 267.908523 
L 114.683299 267.461959 
L 113.608284 267.589839 
L 112.533269 268.105948 
L 111.458254 268.771628 
L 110.383239 269.337823 
L 109.308224 269.586026 
L 108.233209 269.356588 
L 107.158194 268.555192 
L 106.083179 267.13346 
L 105.008164 265.046555 
L 103.933149 262.197947 
L 102.858134 258.387394 
L 101.783119 253.28111 
L 100.708104 246.421542 
L 99.633089 237.287625 
L 98.558073 225.405104 
L 97.483058 210.492339 
L 96.408043 192.61308 
L 95.333028 172.298181 
L 94.258013 150.597074 
L 93.182998 129.029646 
L 92.107983 109.4295 
L 91.032968 93.696326 
L 89.957953 83.501233 
L 88.882938 80.006044 
L 87.807923 83.659458 
L 86.732908 94.117532 
L 85.657893 110.306896 
L 84.582878 130.614765 
L 83.507863 153.160417 
L 82.432848 176.086749 
L 81.357833 197.811631 
L 80.282818 217.195019 
L 79.207803 233.602917 
L 78.132787 246.875058 
L 77.057772 257.222588 
L 75.982757 265.091248 
L 74.907742 271.024424 
L 73.832727 275.551649 
z
" clip-path="url(#p6f869cb01e)" style="fill: #ff7f0e; fill-opacity: 0.25"/>
   </g>
   <g id="PolyCollection_3">
    <path d="M 73.832727 275.994174 
L 73.832727 295.488 
L 74.907742 295.488 
L 75.982757 295.488 
L 77.057772 295.488 
L 78.132787 295.488 
L 79.207803 295.488 
L 80.282818 295.488 
L 81.357833 295.488 
L 82.432848 295.488 
L 83.507863 295.488 
L 84.582878 295.488 
L 85.657893 295.488 
L 86.732908 295.488 
L 87.807923 295.488 
L 88.882938 295.488 
L 89.957953 295.488 
L 91.032968 295.488 
L 92.107983 295.488 
L 93.182998 295.488 
L 94.258013 295.488 
L 95.333028 295.488 
L 96.408043 295.488 
L 97.483058 295.488 
L 98.558073 295.488 
L 99.633089 295.488 
L 100.708104 295.488 
L 101.783119 295.488 
L 102.858134 295.488 
L 103.933149 295.488 
L 105.008164 295.488 
L 106.083179 295.488 
L 107.158194 295.488 
L 108.233209 295.488 
L 109.308224 295.488 
L 110.383239 295.488 
L 111.458254 295.488 
L 112.533269 295.488 
L 113.608284 295.488 
L 114.683299 295.488 
L 115.758314 295.488 
L 116.833329 295.488 
L 117.908344 295.488 
L 118.983359 295.488 
L 120.058374 295.488 
L 121.13339 295.488 
L 122.208405 295.488 
L 123.28342 295.488 
L 124.358435 295.488 
L 125.43345 295.488 
L 126.508465 295.488 
L 127.58348 295.488 
L 128.658495 295.488 
L 129.73351 295.488 
L 130.808525 295.488 
L 131.88354 295.488 
L 132.958555 295.488 
L 134.03357 295.488 
L 135.108585 295.488 
L 136.1836 295.488 
L 137.258615 295.488 
L 138.33363 295.488 
L 139.408645 295.488 
L 140.48366 295.488 
L 141.558675 295.488 
L 142.633691 295.488 
L 143.708706 295.488 
L 144.783721 295.488 
L 145.858736 295.488 
L 146.933751 295.488 
L 148.008766 295.488 
L 149.083781 295.488 
L 150.158796 295.488 
L 151.233811 295.488 
L 152.308826 295.488 
L 153.383841 295.488 
L 154.458856 295.488 
L 155.533871 295.488 
L 156.608886 295.488 
L 157.683901 295.488 
L 158.758916 295.488 
L 159.833931 295.488 
L 160.908946 295.488 
L 161.983961 295.488 
L 163.058977 295.488 
L 164.133992 295.488 
L 165.209007 295.488 
L 166.284022 295.488 
L 167.359037 295.488 
L 168.434052 295.488 
L 169.509067 295.488 
L 170.584082 295.488 
L 171.659097 295.488 
L 172.734112 295.488 
L 173.809127 295.488 
L 174.884142 295.488 
L 175.959157 295.488 
L 177.034172 295.488 
L 178.109187 295.488 
L 179.184202 295.488 
L 180.259217 295.488 
L 181.334232 295.488 
L 182.409247 295.488 
L 183.484262 295.488 
L 184.559278 295.488 
L 185.634293 295.488 
L 186.709308 295.488 
L 187.784323 295.488 
L 188.859338 295.488 
L 189.934353 295.488 
L 191.009368 295.488 
L 192.084383 295.488 
L 193.159398 295.488 
L 194.234413 295.488 
L 195.309428 295.488 
L 196.384443 295.488 
L 197.459458 295.488 
L 198.534473 295.488 
L 199.609488 295.488 
L 200.684503 295.488 
L 201.759518 295.488 
L 202.834533 295.488 
L 203.909548 295.488 
L 204.984564 295.488 
L 206.059579 295.488 
L 207.134594 295.488 
L 208.209609 295.488 
L 209.284624 295.488 
L 210.359639 295.488 
L 211.434654 295.488 
L 212.509669 295.488 
L 213.584684 295.488 
L 214.659699 295.488 
L 215.734714 295.488 
L 216.809729 295.488 
L 217.884744 295.488 
L 218.959759 295.488 
L 220.034774 295.488 
L 221.109789 295.488 
L 222.184804 295.488 
L 223.259819 295.488 
L 224.334834 295.488 
L 225.409849 295.488 
L 226.484865 295.488 
L 227.55988 295.488 
L 228.634895 295.488 
L 229.70991 295.488 
L 230.784925 295.488 
L 231.85994 295.488 
L 232.934955 295.488 
L 234.00997 295.488 
L 235.084985 295.488 
L 236.16 295.488 
L 237.235015 295.488 
L 238.31003 295.488 
L 239.385045 295.488 
L 240.46006 295.488 
L 241.535075 295.488 
L 242.61009 295.488 
L 243.685105 295.488 
L 244.76012 295.488 
L 245.835135 295.488 
L 246.910151 295.488 
L 247.985166 295.488 
L 249.060181 295.488 
L 250.135196 295.488 
L 251.210211 295.488 
L 252.285226 295.488 
L 253.360241 295.488 
L 254.435256 295.488 
L 255.510271 295.488 
L 256.585286 295.488 
L 257.660301 295.488 
L 258.735316 295.488 
L 259.810331 295.488 
L 260.885346 295.488 
L 261.960361 295.488 
L 263.035376 295.488 
L 264.110391 295.488 
L 265.185406 295.488 
L 266.260421 295.488 
L 267.335436 295.488 
L 268.410452 295.488 
L 269.485467 295.488 
L 270.560482 295.488 
L 271.635497 295.488 
L 272.710512 295.488 
L 273.785527 295.488 
L 274.860542 295.488 
L 275.935557 295.488 
L 277.010572 295.488 
L 278.085587 295.488 
L 279.160602 295.488 
L 280.235617 295.488 
L 281.310632 295.488 
L 282.385647 295.488 
L 283.460662 295.488 
L 284.535677 295.488 
L 285.610692 295.488 
L 286.685707 295.488 
L 287.760722 295.488 
L 288.835738 295.488 
L 289.910753 295.488 
L 290.985768 295.488 
L 292.060783 295.488 
L 293.135798 295.488 
L 294.210813 295.488 
L 295.285828 295.488 
L 296.360843 295.488 
L 297.435858 295.488 
L 298.510873 295.488 
L 299.585888 295.488 
L 300.660903 295.488 
L 301.735918 295.488 
L 302.810933 295.488 
L 303.885948 295.488 
L 304.960963 295.488 
L 306.035978 295.488 
L 307.110993 295.488 
L 308.186008 295.488 
L 309.261023 295.488 
L 310.336039 295.488 
L 311.411054 295.488 
L 312.486069 295.488 
L 313.561084 295.488 
L 314.636099 295.488 
L 315.711114 295.488 
L 316.786129 295.488 
L 317.861144 295.488 
L 318.936159 295.488 
L 320.011174 295.488 
L 321.086189 295.488 
L 322.161204 295.488 
L 323.236219 295.488 
L 324.311234 295.488 
L 325.386249 295.488 
L 326.461264 295.488 
L 327.536279 295.488 
L 328.611294 295.488 
L 329.686309 295.488 
L 330.761325 295.488 
L 331.83634 295.488 
L 332.911355 295.488 
L 333.98637 295.488 
L 335.061385 295.488 
L 336.1364 295.488 
L 337.211415 295.488 
L 338.28643 295.488 
L 339.361445 295.488 
L 340.43646 295.488 
L 341.511475 295.488 
L 342.58649 295.488 
L 343.661505 295.488 
L 344.73652 295.488 
L 345.811535 295.488 
L 346.88655 295.488 
L 347.961565 295.488 
L 349.03658 295.488 
L 350.111595 295.488 
L 351.18661 295.488 
L 352.261626 295.488 
L 353.336641 295.488 
L 354.411656 295.488 
L 355.486671 295.488 
L 356.561686 295.488 
L 357.636701 295.488 
L 358.711716 295.488 
L 359.786731 295.488 
L 360.861746 295.488 
L 361.936761 295.488 
L 363.011776 295.488 
L 364.086791 295.488 
L 365.161806 295.488 
L 366.236821 295.488 
L 367.311836 295.488 
L 368.386851 295.488 
L 369.461866 295.488 
L 370.536881 295.488 
L 371.611896 295.488 
L 372.686911 295.488 
L 373.761927 295.488 
L 374.836942 295.488 
L 375.911957 295.488 
L 376.986972 295.488 
L 378.061987 295.488 
L 379.137002 295.488 
L 380.212017 295.488 
L 381.287032 295.488 
L 382.362047 295.488 
L 383.437062 295.488 
L 384.512077 295.488 
L 385.587092 295.488 
L 386.662107 295.488 
L 387.737122 295.488 
L 388.812137 295.488 
L 389.887152 295.488 
L 390.962167 295.488 
L 392.037182 295.488 
L 393.112197 295.488 
L 394.187213 295.488 
L 395.262228 295.488 
L 396.337243 295.488 
L 397.412258 295.488 
L 398.487273 295.488 
L 398.487273 295.375044 
L 398.487273 295.375044 
L 397.412258 295.370894 
L 396.337243 295.370852 
L 395.262228 295.374923 
L 394.187213 295.382683 
L 393.112197 295.393353 
L 392.037182 295.405926 
L 390.962167 295.419323 
L 389.887152 295.432542 
L 388.812137 295.444773 
L 387.737122 295.455462 
L 386.662107 295.464318 
L 385.587092 295.471286 
L 384.512077 295.476481 
L 383.437062 295.480125 
L 382.362047 295.482482 
L 381.287032 295.483815 
L 380.212017 295.484356 
L 379.137002 295.484297 
L 378.061987 295.483796 
L 376.986972 295.482986 
L 375.911957 295.481982 
L 374.836942 295.480894 
L 373.761927 295.479828 
L 372.686911 295.478877 
L 371.611896 295.478118 
L 370.536881 295.477599 
L 369.461866 295.477331 
L 368.386851 295.477287 
L 367.311836 295.477405 
L 366.236821 295.477602 
L 365.161806 295.477787 
L 364.086791 295.477886 
L 363.011776 295.47785 
L 361.936761 295.477671 
L 360.861746 295.477381 
L 359.786731 295.477041 
L 358.711716 295.476727 
L 357.636701 295.476509 
L 356.561686 295.476438 
L 355.486671 295.476527 
L 354.411656 295.476752 
L 353.336641 295.477054 
L 352.261626 295.477359 
L 351.18661 295.477591 
L 350.111595 295.477693 
L 349.03658 295.477641 
L 347.961565 295.477448 
L 346.88655 295.477166 
L 345.811535 295.476865 
L 344.73652 295.476621 
L 343.661505 295.476497 
L 342.58649 295.476524 
L 341.511475 295.476697 
L 340.43646 295.476972 
L 339.361445 295.477283 
L 338.28643 295.477551 
L 337.211415 295.477711 
L 336.1364 295.477722 
L 335.061385 295.477583 
L 333.98637 295.477327 
L 332.911355 295.477019 
L 331.83634 295.476733 
L 330.761325 295.47654 
L 329.686309 295.476487 
L 328.611294 295.476584 
L 327.536279 295.476803 
L 326.461264 295.477086 
L 325.386249 295.477358 
L 324.311234 295.477545 
L 323.236219 295.477594 
L 322.161204 295.477487 
L 321.086189 295.477244 
L 320.011174 295.476919 
L 318.936159 295.476589 
L 317.861144 295.476331 
L 316.786129 295.476207 
L 315.711114 295.476244 
L 314.636099 295.476435 
L 313.561084 295.476731 
L 312.486069 295.477061 
L 311.411054 295.477345 
L 310.336039 295.477517 
L 309.261023 295.477537 
L 308.186008 295.477405 
L 307.110993 295.477159 
L 306.035978 295.476863 
L 304.960963 295.476596 
L 303.885948 295.476428 
L 302.810933 295.476404 
L 301.735918 295.476533 
L 300.660903 295.476786 
L 299.585888 295.477103 
L 298.510873 295.477408 
L 297.435858 295.477626 
L 296.360843 295.477707 
L 295.285828 295.477633 
L 294.210813 295.477422 
L 293.135798 295.477129 
L 292.060783 295.476825 
L 290.985768 295.476583 
L 289.910753 295.476458 
L 288.835738 295.476473 
L 287.760722 295.476612 
L 286.685707 295.476825 
L 285.610692 295.47704 
L 284.535677 295.477181 
L 283.460662 295.477188 
L 282.385647 295.477033 
L 281.310632 295.476727 
L 280.235617 295.476322 
L 279.160602 295.475895 
L 278.085587 295.475534 
L 277.010572 295.475314 
L 275.935557 295.47528 
L 274.860542 295.475438 
L 273.785527 295.47575 
L 272.710512 295.476146 
L 271.635497 295.476538 
L 270.560482 295.476843 
L 269.485467 295.477005 
L 268.410452 295.477 
L 267.335436 295.476848 
L 266.260421 295.476603 
L 265.185406 295.476339 
L 264.110391 295.476131 
L 263.035376 295.476033 
L 261.960361 295.476066 
L 260.885346 295.476212 
L 259.810331 295.476417 
L 258.735316 295.476608 
L 257.660301 295.476708 
L 256.585286 295.476659 
L 255.510271 295.476437 
L 254.435256 295.476063 
L 253.360241 295.475596 
L 252.285226 295.47512 
L 251.210211 295.474731 
L 250.135196 295.474507 
L 249.060181 295.474493 
L 247.985166 295.474691 
L 246.910151 295.475057 
L 245.835135 295.475512 
L 244.76012 295.475962 
L 243.685105 295.476314 
L 242.61009 295.476499 
L 241.535075 295.476483 
L 240.46006 295.476268 
L 239.385045 295.475883 
L 238.31003 295.475363 
L 237.235015 295.474734 
L 236.16 295.473985 
L 235.084985 295.473065 
L 234.00997 295.471882 
L 232.934955 295.47032 
L 231.85994 295.468273 
L 230.784925 295.465677 
L 229.70991 295.462552 
L 228.634895 295.459018 
L 227.55988 295.455308 
L 226.484865 295.45174 
L 225.409849 295.448683 
L 224.334834 295.446493 
L 223.259819 295.445457 
L 222.184804 295.445738 
L 221.109789 295.44735 
L 220.034774 295.450153 
L 218.959759 295.453879 
L 217.884744 295.458177 
L 216.809729 295.462674 
L 215.734714 295.467021 
L 214.659699 295.470933 
L 213.584684 295.474205 
L 212.509669 295.476713 
L 211.434654 295.478392 
L 210.359639 295.479207 
L 209.284624 295.479132 
L 208.209609 295.478134 
L 207.134594 295.476165 
L 206.059579 295.473184 
L 204.984564 295.469184 
L 203.909548 295.464227 
L 202.834533 295.458475 
L 201.759518 295.452214 
L 200.684503 295.445843 
L 199.609488 295.439848 
L 198.534473 295.434735 
L 197.459458 295.430962 
L 196.384443 295.428859 
L 195.309428 295.428567 
L 194.234413 295.430012 
L 193.159398 295.432916 
L 192.084383 295.436848 
L 191.009368 295.441301 
L 189.934353 295.445784 
L 188.859338 295.449898 
L 187.784323 295.453392 
L 186.709308 295.456182 
L 185.634293 295.458337 
L 184.559278 295.460031 
L 183.484262 295.461488 
L 182.409247 295.462921 
L 181.334232 295.464486 
L 180.259217 295.466255 
L 179.184202 295.46821 
L 178.109187 295.470267 
L 177.034172 295.472294 
L 175.959157 295.474149 
L 174.884142 295.475696 
L 173.809127 295.476826 
L 172.734112 295.477444 
L 171.659097 295.477461 
L 170.584082 295.47677 
L 169.509067 295.475232 
L 168.434052 295.472658 
L 167.359037 295.468829 
L 166.284022 295.463515 
L 165.209007 295.456526 
L 164.133992 295.447757 
L 163.058977 295.437227 
L 161.983961 295.425086 
L 160.908946 295.411565 
L 159.833931 295.39687 
L 158.758916 295.38102 
L 157.683901 295.363648 
L 156.608886 295.343838 
L 155.533871 295.320035 
L 154.458856 295.290104 
L 153.383841 295.251583 
L 152.308826 295.202132 
L 151.233811 295.140123 
L 150.158796 295.06526 
L 149.083781 294.979075 
L 148.008766 294.885137 
L 146.933751 294.788818 
L 145.858736 294.696603 
L 144.783721 294.614981 
L 143.708706 294.549126 
L 142.633691 294.501664 
L 141.558675 294.471811 
L 140.48366 294.455135 
L 139.408645 294.44403 
L 138.33363 294.428751 
L 137.258615 294.398687 
L 136.1836 294.343346 
L 135.108585 294.252518 
L 134.03357 294.115148 
L 132.958555 293.916784 
L 131.88354 293.635866 
L 130.808525 293.239671 
L 129.73351 292.681219 
L 128.658495 291.89882 
L 127.58348 290.819862 
L 126.508465 289.369951 
L 125.43345 287.487359 
L 124.358435 285.141169 
L 123.28342 282.34976 
L 122.208405 279.194946 
L 121.13339 275.826707 
L 120.058374 272.454547 
L 118.983359 269.324105 
L 117.908344 266.681372 
L 116.833329 264.73067 
L 115.758314 263.595329 
L 114.683299 263.290558 
L 113.608284 263.71594 
L 112.533269 264.670525 
L 111.458254 265.887708 
L 110.383239 267.081652 
L 109.308224 267.993361 
L 108.233209 268.423892 
L 107.158194 268.244825 
L 106.083179 267.381673 
L 105.008164 265.773122 
L 103.933149 263.316463 
L 102.858134 259.815427 
L 101.783119 254.949406 
L 100.708104 248.281411 
L 99.633089 239.315507 
L 98.558073 227.603369 
L 97.483058 212.88571 
L 96.408043 195.240706 
L 95.333028 175.202238 
L 94.258013 153.809655 
L 93.182998 132.560336 
L 92.107983 113.256152 
L 91.032968 97.761161 
L 89.957953 87.713342 
L 88.882938 84.250071 
L 87.807923 87.808878 
L 86.732908 98.049959 
L 85.657893 113.91846 
L 84.582878 133.830938 
L 83.507863 155.941578 
L 82.432848 178.428036 
L 81.357833 199.737829 
L 80.282818 218.752128 
L 79.207803 234.848437 
L 78.132787 247.868896 
L 77.057772 258.019975 
L 75.982757 265.738351 
L 74.907742 271.556659 
L 73.832727 275.994174 
z
" clip-path="url(#p6f869cb01e)" style="fill: #2ca02c; fill-opacity: 0.25"/>
   </g>
   <g id="PolyCollection_4">
    <path d="M 73.832727 271.998538 
L 73.832727 295.488 
L 74.907742 295.488 
L 75.982757 295.488 
L 77.057772 295.488 
L 78.132787 295.488 
L 79.207803 295.488 
L 80.282818 295.488 
L 81.357833 295.488 
L 82.432848 295.488 
L 83.507863 295.488 
L 84.582878 295.488 
L 85.657893 295.488 
L 86.732908 295.488 
L 87.807923 295.488 
L 88.882938 295.488 
L 89.957953 295.488 
L 91.032968 295.488 
L 92.107983 295.488 
L 93.182998 295.488 
L 94.258013 295.488 
L 95.333028 295.488 
L 96.408043 295.488 
L 97.483058 295.488 
L 98.558073 295.488 
L 99.633089 295.488 
L 100.708104 295.488 
L 101.783119 295.488 
L 102.858134 295.488 
L 103.933149 295.488 
L 105.008164 295.488 
L 106.083179 295.488 
L 107.158194 295.488 
L 108.233209 295.488 
L 109.308224 295.488 
L 110.383239 295.488 
L 111.458254 295.488 
L 112.533269 295.488 
L 113.608284 295.488 
L 114.683299 295.488 
L 115.758314 295.488 
L 116.833329 295.488 
L 117.908344 295.488 
L 118.983359 295.488 
L 120.058374 295.488 
L 121.13339 295.488 
L 122.208405 295.488 
L 123.28342 295.488 
L 124.358435 295.488 
L 125.43345 295.488 
L 126.508465 295.488 
L 127.58348 295.488 
L 128.658495 295.488 
L 129.73351 295.488 
L 130.808525 295.488 
L 131.88354 295.488 
L 132.958555 295.488 
L 134.03357 295.488 
L 135.108585 295.488 
L 136.1836 295.488 
L 137.258615 295.488 
L 138.33363 295.488 
L 139.408645 295.488 
L 140.48366 295.488 
L 141.558675 295.488 
L 142.633691 295.488 
L 143.708706 295.488 
L 144.783721 295.488 
L 145.858736 295.488 
L 146.933751 295.488 
L 148.008766 295.488 
L 149.083781 295.488 
L 150.158796 295.488 
L 151.233811 295.488 
L 152.308826 295.488 
L 153.383841 295.488 
L 154.458856 295.488 
L 155.533871 295.488 
L 156.608886 295.488 
L 157.683901 295.488 
L 158.758916 295.488 
L 159.833931 295.488 
L 160.908946 295.488 
L 161.983961 295.488 
L 163.058977 295.488 
L 164.133992 295.488 
L 165.209007 295.488 
L 166.284022 295.488 
L 167.359037 295.488 
L 168.434052 295.488 
L 169.509067 295.488 
L 170.584082 295.488 
L 171.659097 295.488 
L 172.734112 295.488 
L 173.809127 295.488 
L 174.884142 295.488 
L 175.959157 295.488 
L 177.034172 295.488 
L 178.109187 295.488 
L 179.184202 295.488 
L 180.259217 295.488 
L 181.334232 295.488 
L 182.409247 295.488 
L 183.484262 295.488 
L 184.559278 295.488 
L 185.634293 295.488 
L 186.709308 295.488 
L 187.784323 295.488 
L 188.859338 295.488 
L 189.934353 295.488 
L 191.009368 295.488 
L 192.084383 295.488 
L 193.159398 295.488 
L 194.234413 295.488 
L 195.309428 295.488 
L 196.384443 295.488 
L 197.459458 295.488 
L 198.534473 295.488 
L 199.609488 295.488 
L 200.684503 295.488 
L 201.759518 295.488 
L 202.834533 295.488 
L 203.909548 295.488 
L 204.984564 295.488 
L 206.059579 295.488 
L 207.134594 295.488 
L 208.209609 295.488 
L 209.284624 295.488 
L 210.359639 295.488 
L 211.434654 295.488 
L 212.509669 295.488 
L 213.584684 295.488 
L 214.659699 295.488 
L 215.734714 295.488 
L 216.809729 295.488 
L 217.884744 295.488 
L 218.959759 295.488 
L 220.034774 295.488 
L 221.109789 295.488 
L 222.184804 295.488 
L 223.259819 295.488 
L 224.334834 295.488 
L 225.409849 295.488 
L 226.484865 295.488 
L 227.55988 295.488 
L 228.634895 295.488 
L 229.70991 295.488 
L 230.784925 295.488 
L 231.85994 295.488 
L 232.934955 295.488 
L 234.00997 295.488 
L 235.084985 295.488 
L 236.16 295.488 
L 237.235015 295.488 
L 238.31003 295.488 
L 239.385045 295.488 
L 240.46006 295.488 
L 241.535075 295.488 
L 242.61009 295.488 
L 243.685105 295.488 
L 244.76012 295.488 
L 245.835135 295.488 
L 246.910151 295.488 
L 247.985166 295.488 
L 249.060181 295.488 
L 250.135196 295.488 
L 251.210211 295.488 
L 252.285226 295.488 
L 253.360241 295.488 
L 254.435256 295.488 
L 255.510271 295.488 
L 256.585286 295.488 
L 257.660301 295.488 
L 258.735316 295.488 
L 259.810331 295.488 
L 260.885346 295.488 
L 261.960361 295.488 
L 263.035376 295.488 
L 264.110391 295.488 
L 265.185406 295.488 
L 266.260421 295.488 
L 267.335436 295.488 
L 268.410452 295.488 
L 269.485467 295.488 
L 270.560482 295.488 
L 271.635497 295.488 
L 272.710512 295.488 
L 273.785527 295.488 
L 274.860542 295.488 
L 275.935557 295.488 
L 277.010572 295.488 
L 278.085587 295.488 
L 279.160602 295.488 
L 280.235617 295.488 
L 281.310632 295.488 
L 282.385647 295.488 
L 283.460662 295.488 
L 284.535677 295.488 
L 285.610692 295.488 
L 286.685707 295.488 
L 287.760722 295.488 
L 288.835738 295.488 
L 289.910753 295.488 
L 290.985768 295.488 
L 292.060783 295.488 
L 293.135798 295.488 
L 294.210813 295.488 
L 295.285828 295.488 
L 296.360843 295.488 
L 297.435858 295.488 
L 298.510873 295.488 
L 299.585888 295.488 
L 300.660903 295.488 
L 301.735918 295.488 
L 302.810933 295.488 
L 303.885948 295.488 
L 304.960963 295.488 
L 306.035978 295.488 
L 307.110993 295.488 
L 308.186008 295.488 
L 309.261023 295.488 
L 310.336039 295.488 
L 311.411054 295.488 
L 312.486069 295.488 
L 313.561084 295.488 
L 314.636099 295.488 
L 315.711114 295.488 
L 316.786129 295.488 
L 317.861144 295.488 
L 318.936159 295.488 
L 320.011174 295.488 
L 321.086189 295.488 
L 322.161204 295.488 
L 323.236219 295.488 
L 324.311234 295.488 
L 325.386249 295.488 
L 326.461264 295.488 
L 327.536279 295.488 
L 328.611294 295.488 
L 329.686309 295.488 
L 330.761325 295.488 
L 331.83634 295.488 
L 332.911355 295.488 
L 333.98637 295.488 
L 335.061385 295.488 
L 336.1364 295.488 
L 337.211415 295.488 
L 338.28643 295.488 
L 339.361445 295.488 
L 340.43646 295.488 
L 341.511475 295.488 
L 342.58649 295.488 
L 343.661505 295.488 
L 344.73652 295.488 
L 345.811535 295.488 
L 346.88655 295.488 
L 347.961565 295.488 
L 349.03658 295.488 
L 350.111595 295.488 
L 351.18661 295.488 
L 352.261626 295.488 
L 353.336641 295.488 
L 354.411656 295.488 
L 355.486671 295.488 
L 356.561686 295.488 
L 357.636701 295.488 
L 358.711716 295.488 
L 359.786731 295.488 
L 360.861746 295.488 
L 361.936761 295.488 
L 363.011776 295.488 
L 364.086791 295.488 
L 365.161806 295.488 
L 366.236821 295.488 
L 367.311836 295.488 
L 368.386851 295.488 
L 369.461866 295.488 
L 370.536881 295.488 
L 371.611896 295.488 
L 372.686911 295.488 
L 373.761927 295.488 
L 374.836942 295.488 
L 375.911957 295.488 
L 376.986972 295.488 
L 378.061987 295.488 
L 379.137002 295.488 
L 380.212017 295.488 
L 381.287032 295.488 
L 382.362047 295.488 
L 383.437062 295.488 
L 384.512077 295.488 
L 385.587092 295.488 
L 386.662107 295.488 
L 387.737122 295.488 
L 388.812137 295.488 
L 389.887152 295.488 
L 390.962167 295.488 
L 392.037182 295.488 
L 393.112197 295.488 
L 394.187213 295.488 
L 395.262228 295.488 
L 396.337243 295.488 
L 397.412258 295.488 
L 398.487273 295.488 
L 398.487273 295.434356 
L 398.487273 295.434356 
L 397.412258 295.432137 
L 396.337243 295.431731 
L 395.262228 295.433104 
L 394.187213 295.436025 
L 393.112197 295.440102 
L 392.037182 295.444854 
L 390.962167 295.449789 
L 389.887152 295.454479 
L 388.812137 295.458618 
L 387.737122 295.462039 
L 386.662107 295.464714 
L 385.587092 295.466716 
L 384.512077 295.468174 
L 383.437062 295.469223 
L 382.362047 295.469967 
L 381.287032 295.470455 
L 380.212017 295.470684 
L 379.137002 295.470616 
L 378.061987 295.470207 
L 376.986972 295.469437 
L 375.911957 295.468339 
L 374.836942 295.467006 
L 373.761927 295.465585 
L 372.686911 295.464252 
L 371.611896 295.46318 
L 370.536881 295.462497 
L 369.461866 295.462261 
L 368.386851 295.462442 
L 367.311836 295.462927 
L 366.236821 295.463544 
L 365.161806 295.464106 
L 364.086791 295.464446 
L 363.011776 295.464461 
L 361.936761 295.464136 
L 360.861746 295.463541 
L 359.786731 295.462817 
L 358.711716 295.462139 
L 357.636701 295.461672 
L 356.561686 295.461528 
L 355.486671 295.461741 
L 354.411656 295.462257 
L 353.336641 295.462945 
L 352.261626 295.463633 
L 351.18661 295.46415 
L 350.111595 295.464366 
L 349.03658 295.464228 
L 347.961565 295.463771 
L 346.88655 295.463107 
L 345.811535 295.462404 
L 344.73652 295.461835 
L 343.661505 295.461543 
L 342.58649 295.4616 
L 341.511475 295.461993 
L 340.43646 295.462624 
L 339.361445 295.463335 
L 338.28643 295.46395 
L 337.211415 295.464315 
L 336.1364 295.464339 
L 335.061385 295.464018 
L 333.98637 295.463429 
L 332.911355 295.462721 
L 331.83634 295.462069 
L 330.761325 295.461636 
L 329.686309 295.46153 
L 328.611294 295.461777 
L 327.536279 295.462315 
L 326.461264 295.463011 
L 325.386249 295.463691 
L 324.311234 295.464186 
L 323.236219 295.464373 
L 322.161204 295.464205 
L 321.086189 295.463723 
L 320.011174 295.463049 
L 318.936159 295.462349 
L 317.861144 295.461799 
L 316.786129 295.461534 
L 315.711114 295.461622 
L 314.636099 295.46204 
L 313.561084 295.462684 
L 312.486069 295.463394 
L 311.411054 295.463992 
L 310.336039 295.464331 
L 309.261023 295.464325 
L 308.186008 295.463976 
L 307.110993 295.463371 
L 306.035978 295.462661 
L 304.960963 295.462022 
L 303.885948 295.461613 
L 302.810933 295.461537 
L 301.735918 295.461812 
L 300.660903 295.46237 
L 299.585888 295.463072 
L 298.510873 295.463743 
L 297.435858 295.464215 
L 296.360843 295.464372 
L 295.285828 295.464175 
L 294.210813 295.463671 
L 293.135798 295.462988 
L 292.060783 295.462295 
L 290.985768 295.461764 
L 289.910753 295.461528 
L 288.835738 295.461647 
L 287.760722 295.462089 
L 286.685707 295.462746 
L 285.610692 295.463454 
L 284.535677 295.464037 
L 283.460662 295.464349 
L 282.385647 295.464314 
L 281.310632 295.463939 
L 280.235617 295.463318 
L 279.160602 295.462605 
L 278.085587 295.461975 
L 277.010572 295.461585 
L 275.935557 295.461528 
L 274.860542 295.461814 
L 273.785527 295.462367 
L 272.710512 295.463042 
L 271.635497 295.463662 
L 270.560482 295.46406 
L 269.485467 295.464124 
L 268.410452 295.463818 
L 267.335436 295.463194 
L 266.260421 295.46237 
L 265.185406 295.461506 
L 264.110391 295.460748 
L 263.035376 295.460194 
L 261.960361 295.459859 
L 260.885346 295.45967 
L 259.810331 295.459476 
L 258.735316 295.459089 
L 257.660301 295.458335 
L 256.585286 295.457102 
L 255.510271 295.455383 
L 254.435256 295.453292 
L 253.360241 295.451051 
L 252.285226 295.44895 
L 251.210211 295.447289 
L 250.135196 295.446313 
L 249.060181 295.446159 
L 247.985166 295.446822 
L 246.910151 295.448158 
L 245.835135 295.449913 
L 244.76012 295.45178 
L 243.685105 295.453465 
L 242.61009 295.454751 
L 241.535075 295.455533 
L 240.46006 295.45584 
L 239.385045 295.455807 
L 238.31003 295.45564 
L 237.235015 295.455555 
L 236.16 295.45572 
L 235.084985 295.456219 
L 234.00997 295.457026 
L 232.934955 295.458022 
L 231.85994 295.459024 
L 230.784925 295.459837 
L 229.70991 295.460307 
L 228.634895 295.460358 
L 227.55988 295.460016 
L 226.484865 295.459401 
L 225.409849 295.4587 
L 224.334834 295.458119 
L 223.259819 295.457833 
L 222.184804 295.457944 
L 221.109789 295.458457 
L 220.034774 295.459277 
L 218.959759 295.460239 
L 217.884744 295.461143 
L 216.809729 295.461811 
L 215.734714 295.462126 
L 214.659699 295.462064 
L 213.584684 295.461699 
L 212.509669 295.461189 
L 211.434654 295.460735 
L 210.359639 295.460539 
L 209.284624 295.460756 
L 208.209609 295.461461 
L 207.134594 295.462636 
L 206.059579 295.464178 
L 204.984564 295.465925 
L 203.909548 295.467691 
L 202.834533 295.469312 
L 201.759518 295.470675 
L 200.684503 295.471735 
L 199.609488 295.47252 
L 198.534473 295.473115 
L 197.459458 295.473639 
L 196.384443 295.47421 
L 195.309428 295.474927 
L 194.234413 295.475845 
L 193.159398 295.476972 
L 192.084383 295.478271 
L 191.009368 295.479672 
L 189.934353 295.481089 
L 188.859338 295.482434 
L 187.784323 295.483631 
L 186.709308 295.484619 
L 185.634293 295.485355 
L 184.559278 295.485807 
L 183.484262 295.48595 
L 182.409247 295.485761 
L 181.334232 295.485212 
L 180.259217 295.484276 
L 179.184202 295.482936 
L 178.109187 295.481189 
L 177.034172 295.479066 
L 175.959157 295.47664 
L 174.884142 295.474031 
L 173.809127 295.471401 
L 172.734112 295.468943 
L 171.659097 295.466852 
L 170.584082 295.465295 
L 169.509067 295.464387 
L 168.434052 295.464161 
L 167.359037 295.464566 
L 166.284022 295.46547 
L 165.209007 295.466687 
L 164.133992 295.468004 
L 163.058977 295.469222 
L 161.983961 295.470182 
L 160.908946 295.470776 
L 159.833931 295.470951 
L 158.758916 295.470686 
L 157.683901 295.46996 
L 156.608886 295.468725 
L 155.533871 295.466874 
L 154.458856 295.464241 
L 153.383841 295.460615 
L 152.308826 295.455787 
L 151.233811 295.449613 
L 150.158796 295.442088 
L 149.083781 295.433403 
L 148.008766 295.423982 
L 146.933751 295.414471 
L 145.858736 295.405673 
L 144.783721 295.398443 
L 143.708706 295.393554 
L 142.633691 295.391552 
L 141.558675 295.392635 
L 140.48366 295.396553 
L 139.408645 295.402534 
L 138.33363 295.409193 
L 137.258615 295.414375 
L 136.1836 295.414852 
L 135.108585 295.405797 
L 134.03357 295.379997 
L 132.958555 295.326814 
L 131.88354 295.231029 
L 130.808525 295.071828 
L 129.73351 294.822367 
L 128.658495 294.45047 
L 127.58348 293.92101 
L 126.508465 293.200373 
L 125.43345 292.262961 
L 124.358435 291.099067 
L 123.28342 289.722726 
L 122.208405 288.17753 
L 121.13339 286.538217 
L 120.058374 284.906278 
L 118.983359 283.398966 
L 117.908344 282.132731 
L 116.833329 281.203851 
L 115.758314 280.670266 
L 114.683299 280.538867 
L 113.608284 280.761524 
L 112.533269 281.240995 
L 111.458254 281.845147 
L 110.383239 282.425303 
L 109.308224 282.832806 
L 108.233209 282.927635 
L 107.158194 282.574381 
L 106.083179 281.623975 
L 105.008164 279.883897 
L 103.933149 277.084318 
L 102.858134 272.851858 
L 101.783119 266.705069 
L 100.708104 258.085022 
L 99.633089 246.42954 
L 98.558073 231.290234 
L 97.483058 212.478724 
L 96.408043 190.21492 
L 95.333028 165.240156 
L 94.258013 138.855851 
L 93.182998 112.857555 
L 92.107983 89.354851 
L 91.032968 70.495854 
L 89.957953 58.143262 
L 88.882938 53.568 
L 87.807923 57.229086 
L 86.732908 68.691771 
L 85.657893 86.704132 
L 84.582878 109.414282 
L 83.507863 134.677551 
L 82.432848 160.385031 
L 81.357833 184.74595 
L 80.282818 206.474559 
L 79.207803 224.860391 
L 78.132787 239.729776 
L 77.057772 251.328401 
L 75.982757 260.165148 
L 74.907742 266.856213 
L 73.832727 271.998538 
z
" clip-path="url(#p6f869cb01e)" style="fill: #d62728; fill-opacity: 0.25"/>
   </g>
   <g id="matplotlib.axis_1">
    <g id="xtick_1">
     <g id="line2d_1">
      <path d="M 73.832727 307.584 
L 73.832727 41.472 
" clip-path="url(#p6f869cb01e)" style="fill: none; stroke-dasharray: 1.85,0.8; stroke-dashoffset: 0; stroke: #b0b0b0; stroke-width: 0.5"/>
     </g>
     <g id="line2d_2">
      <defs>
       <path id="m54627dcc80" d="M 0 0 
L 0 3.5 
" style="stroke: #000000; stroke-width: 0.8"/>
      </defs>
      <g>
       <use xlink:href="#m54627dcc80" x="73.832727" y="307.584" style="stroke: #000000; stroke-width: 0.8"/>
      </g>
     </g>
     <g id="text_1">
      <!-- 0.0000 -->
      <g transform="translate(56.337415 322.182437) scale(0.1 -0.1)">
       <defs>
        <path id="DejaVuSans-30" d="M 2034 4250 
Q 1547 4250 1301 3770 
Q 1056 3291 1056 2328 
Q 1056 1369 1301 889 
Q 1547 409 2034 409 
Q 2525 409 2770 889 
Q 3016 1369 3016 2328 
Q 3016 3291 2770 3770 
Q 2525 4250 2034 4250 
z
M 2034 4750 
Q 2819 4750 3233 4129 
Q 3647 3509 3647 2328 
Q 3647 1150 3233 529 
Q 2819 -91 2034 -91 
Q 1250 -91 836 529 
Q 422 1150 422 2328 
Q 422 3509 836 4129 
Q 1250 4750 2034 4750 
z
" transform="scale(0.015625)"/>
        <path id="DejaVuSans-2e" d="M 684 794 
L 1344 794 
L 1344 0 
L 684 0 
L 684 794 
z
" transform="scale(0.015625)"/>
       </defs>
       <use xlink:href="#DejaVuSans-30"/>
       <use xlink:href="#DejaVuSans-2e" x="63.623047"/>
       <use xlink:href="#DejaVuSans-30" x="95.410156"/>
       <use xlink:href="#DejaVuSans-30" x="159.033203"/>
       <use xlink:href="#DejaVuSans-30" x="222.65625"/>
       <use xlink:href="#DejaVuSans-30" x="286.279297"/>
      </g>
     </g>
    </g>
    <g id="xtick_2">
     <g id="line2d_3">
      <path d="M 117.625165 307.584 
L 117.625165 41.472 
" clip-path="url(#p6f869cb01e)" style="fill: none; stroke-dasharray: 1.85,0.8; stroke-dashoffset: 0; stroke: #b0b0b0; stroke-width: 0.5"/>
     </g>
     <g id="line2d_4">
      <g>
       <use xlink:href="#m54627dcc80" x="117.625165" y="307.584" style="stroke: #000000; stroke-width: 0.8"/>
      </g>
     </g>
     <g id="text_2">
      <!-- 0.0025 -->
      <g transform="translate(100.129853 322.182437) scale(0.1 -0.1)">
       <defs>
        <path id="DejaVuSans-32" d="M 1228 531 
L 3431 531 
L 3431 0 
L 469 0 
L 469 531 
Q 828 903 1448 1529 
Q 2069 2156 2228 2338 
Q 2531 2678 2651 2914 
Q 2772 3150 2772 3378 
Q 2772 3750 2511 3984 
Q 2250 4219 1831 4219 
Q 1534 4219 1204 4116 
Q 875 4013 500 3803 
L 500 4441 
Q 881 4594 1212 4672 
Q 1544 4750 1819 4750 
Q 2544 4750 2975 4387 
Q 3406 4025 3406 3419 
Q 3406 3131 3298 2873 
Q 3191 2616 2906 2266 
Q 2828 2175 2409 1742 
Q 1991 1309 1228 531 
z
" transform="scale(0.015625)"/>
        <path id="DejaVuSans-35" d="M 691 4666 
L 3169 4666 
L 3169 4134 
L 1269 4134 
L 1269 2991 
Q 1406 3038 1543 3061 
Q 1681 3084 1819 3084 
Q 2600 3084 3056 2656 
Q 3513 2228 3513 1497 
Q 3513 744 3044 326 
Q 2575 -91 1722 -91 
Q 1428 -91 1123 -41 
Q 819 9 494 109 
L 494 744 
Q 775 591 1075 516 
Q 1375 441 1709 441 
Q 2250 441 2565 725 
Q 2881 1009 2881 1497 
Q 2881 1984 2565 2268 
Q 2250 2553 1709 2553 
Q 1456 2553 1204 2497 
Q 953 2441 691 2322 
L 691 4666 
z
" transform="scale(0.015625)"/>
       </defs>
       <use xlink:href="#DejaVuSans-30"/>
       <use xlink:href="#DejaVuSans-2e" x="63.623047"/>
       <use xlink:href="#DejaVuSans-30" x="95.410156"/>
       <use xlink:href="#DejaVuSans-30" x="159.033203"/>
       <use xlink:href="#DejaVuSans-32" x="222.65625"/>
       <use xlink:href="#DejaVuSans-35" x="286.279297"/>
      </g>
     </g>
    </g>
    <g id="xtick_3">
     <g id="line2d_5">
      <path d="M 161.417603 307.584 
L 161.417603 41.472 
" clip-path="url(#p6f869cb01e)" style="fill: none; stroke-dasharray: 1.85,0.8; stroke-dashoffset: 0; stroke: #b0b0b0; stroke-width: 0.5"/>
     </g>
     <g id="line2d_6">
      <g>
       <use xlink:href="#m54627dcc80" x="161.417603" y="307.584" style="stroke: #000000; stroke-width: 0.8"/>
      </g>
     </g>
     <g id="text_3">
      <!-- 0.0050 -->
      <g transform="translate(143.922291 322.182437) scale(0.1 -0.1)">
       <use xlink:href="#DejaVuSans-30"/>
       <use xlink:href="#DejaVuSans-2e" x="63.623047"/>
       <use xlink:href="#DejaVuSans-30" x="95.410156"/>
       <use xlink:href="#DejaVuSans-30" x="159.033203"/>
       <use xlink:href="#DejaVuSans-35" x="222.65625"/>
       <use xlink:href="#DejaVuSans-30" x="286.279297"/>
      </g>
     </g>
    </g>
    <g id="xtick_4">
     <g id="line2d_7">
      <path d="M 205.210041 307.584 
L 205.210041 41.472 
" clip-path="url(#p6f869cb01e)" style="fill: none; stroke-dasharray: 1.85,0.8; stroke-dashoffset: 0; stroke: #b0b0b0; stroke-width: 0.5"/>
     </g>
     <g id="line2d_8">
      <g>
       <use xlink:href="#m54627dcc80" x="205.210041" y="307.584" style="stroke: #000000; stroke-width: 0.8"/>
      </g>
     </g>
     <g id="text_4">
      <!-- 0.0075 -->
      <g transform="translate(187.714729 322.182437) scale(0.1 -0.1)">
       <defs>
        <path id="DejaVuSans-37" d="M 525 4666 
L 3525 4666 
L 3525 4397 
L 1831 0 
L 1172 0 
L 2766 4134 
L 525 4134 
L 525 4666 
z
" transform="scale(0.015625)"/>
       </defs>
       <use xlink:href="#DejaVuSans-30"/>
       <use xlink:href="#DejaVuSans-2e" x="63.623047"/>
       <use xlink:href="#DejaVuSans-30" x="95.410156"/>
       <use xlink:href="#DejaVuSans-30" x="159.033203"/>
       <use xlink:href="#DejaVuSans-37" x="222.65625"/>
       <use xlink:href="#DejaVuSans-35" x="286.279297"/>
      </g>
     </g>
    </g>
    <g id="xtick_5">
     <g id="line2d_9">
      <path d="M 249.002479 307.584 
L 249.002479 41.472 
" clip-path="url(#p6f869cb01e)" style="fill: none; stroke-dasharray: 1.85,0.8; stroke-dashoffset: 0; stroke: #b0b0b0; stroke-width: 0.5"/>
     </g>
     <g id="line2d_10">
      <g>
       <use xlink:href="#m54627dcc80" x="249.002479" y="307.584" style="stroke: #000000; stroke-width: 0.8"/>
      </g>
     </g>
     <g id="text_5">
      <!-- 0.0100 -->
      <g transform="translate(231.507167 322.182437) scale(0.1 -0.1)">
       <defs>
        <path id="DejaVuSans-31" d="M 794 531 
L 1825 531 
L 1825 4091 
L 703 3866 
L 703 4441 
L 1819 4666 
L 2450 4666 
L 2450 531 
L 3481 531 
L 3481 0 
L 794 0 
L 794 531 
z
" transform="scale(0.015625)"/>
       </defs>
       <use xlink:href="#DejaVuSans-30"/>
       <use xlink:href="#DejaVuSans-2e" x="63.623047"/>
       <use xlink:href="#DejaVuSans-30" x="95.410156"/>
       <use xlink:href="#DejaVuSans-31" x="159.033203"/>
       <use xlink:href="#DejaVuSans-30" x="222.65625"/>
       <use xlink:href="#DejaVuSans-30" x="286.279297"/>
      </g>
     </g>
    </g>
    <g id="xtick_6">
     <g id="line2d_11">
      <path d="M 292.794917 307.584 
L 292.794917 41.472 
" clip-path="url(#p6f869cb01e)" style="fill: none; stroke-dasharray: 1.85,0.8; stroke-dashoffset: 0; stroke: #b0b0b0; stroke-width: 0.5"/>
     </g>
     <g id="line2d_12">
      <g>
       <use xlink:href="#m54627dcc80" x="292.794917" y="307.584" style="stroke: #000000; stroke-width: 0.8"/>
      </g>
     </g>
     <g id="text_6">
      <!-- 0.0125 -->
      <g transform="translate(275.299605 322.182437) scale(0.1 -0.1)">
       <use xlink:href="#DejaVuSans-30"/>
       <use xlink:href="#DejaVuSans-2e" x="63.623047"/>
       <use xlink:href="#DejaVuSans-30" x="95.410156"/>
       <use xlink:href="#DejaVuSans-31" x="159.033203"/>
       <use xlink:href="#DejaVuSans-32" x="222.65625"/>
       <use xlink:href="#DejaVuSans-35" x="286.279297"/>
      </g>
     </g>
    </g>
    <g id="xtick_7">
     <g id="line2d_13">
      <path d="M 336.587355 307.584 
L 336.587355 41.472 
" clip-path="url(#p6f869cb01e)" style="fill: none; stroke-dasharray: 1.85,0.8; stroke-dashoffset: 0; stroke: #b0b0b0; stroke-width: 0.5"/>
     </g>
     <g id="line2d_14">
      <g>
       <use xlink:href="#m54627dcc80" x="336.587355" y="307.584" style="stroke: #000000; stroke-width: 0.8"/>
      </g>
     </g>
     <g id="text_7">
      <!-- 0.0150 -->
      <g transform="translate(319.092043 322.182437) scale(0.1 -0.1)">
       <use xlink:href="#DejaVuSans-30"/>
       <use xlink:href="#DejaVuSans-2e" x="63.623047"/>
       <use xlink:href="#DejaVuSans-30" x="95.410156"/>
       <use xlink:href="#DejaVuSans-31" x="159.033203"/>
       <use xlink:href="#DejaVuSans-35" x="222.65625"/>
       <use xlink:href="#DejaVuSans-30" x="286.279297"/>
      </g>
     </g>
    </g>
    <g id="xtick_8">
     <g id="line2d_15">
      <path d="M 380.379793 307.584 
L 380.379793 41.472 
" clip-path="url(#p6f869cb01e)" style="fill: none; stroke-dasharray: 1.85,0.8; stroke-dashoffset: 0; stroke: #b0b0b0; stroke-width: 0.5"/>
     </g>
     <g id="line2d_16">
      <g>
       <use xlink:href="#m54627dcc80" x="380.379793" y="307.584" style="stroke: #000000; stroke-width: 0.8"/>
      </g>
     </g>
     <g id="text_8">
      <!-- 0.0175 -->
      <g transform="translate(362.884481 322.182437) scale(0.1 -0.1)">
       <use xlink:href="#DejaVuSans-30"/>
       <use xlink:href="#DejaVuSans-2e" x="63.623047"/>
       <use xlink:href="#DejaVuSans-30" x="95.410156"/>
       <use xlink:href="#DejaVuSans-31" x="159.033203"/>
       <use xlink:href="#DejaVuSans-37" x="222.65625"/>
       <use xlink:href="#DejaVuSans-35" x="286.279297"/>
      </g>
     </g>
    </g>
    <g id="text_9">
     <!-- Pixel values -->
     <g transform="translate(206.748281 335.860562) scale(0.1 -0.1)">
      <defs>
       <path id="DejaVuSans-50" d="M 1259 4147 
L 1259 2394 
L 2053 2394 
Q 2494 2394 2734 2622 
Q 2975 2850 2975 3272 
Q 2975 3691 2734 3919 
Q 2494 4147 2053 4147 
L 1259 4147 
z
M 628 4666 
L 2053 4666 
Q 2838 4666 3239 4311 
Q 3641 3956 3641 3272 
Q 3641 2581 3239 2228 
Q 2838 1875 2053 1875 
L 1259 1875 
L 1259 0 
L 628 0 
L 628 4666 
z
" transform="scale(0.015625)"/>
       <path id="DejaVuSans-69" d="M 603 3500 
L 1178 3500 
L 1178 0 
L 603 0 
L 603 3500 
z
M 603 4863 
L 1178 4863 
L 1178 4134 
L 603 4134 
L 603 4863 
z
" transform="scale(0.015625)"/>
       <path id="DejaVuSans-78" d="M 3513 3500 
L 2247 1797 
L 3578 0 
L 2900 0 
L 1881 1375 
L 863 0 
L 184 0 
L 1544 1831 
L 300 3500 
L 978 3500 
L 1906 2253 
L 2834 3500 
L 3513 3500 
z
" transform="scale(0.015625)"/>
       <path id="DejaVuSans-65" d="M 3597 1894 
L 3597 1613 
L 953 1613 
Q 991 1019 1311 708 
Q 1631 397 2203 397 
Q 2534 397 2845 478 
Q 3156 559 3463 722 
L 3463 178 
Q 3153 47 2828 -22 
Q 2503 -91 2169 -91 
Q 1331 -91 842 396 
Q 353 884 353 1716 
Q 353 2575 817 3079 
Q 1281 3584 2069 3584 
Q 2775 3584 3186 3129 
Q 3597 2675 3597 1894 
z
M 3022 2063 
Q 3016 2534 2758 2815 
Q 2500 3097 2075 3097 
Q 1594 3097 1305 2825 
Q 1016 2553 972 2059 
L 3022 2063 
z
" transform="scale(0.015625)"/>
       <path id="DejaVuSans-6c" d="M 603 4863 
L 1178 4863 
L 1178 0 
L 603 0 
L 603 4863 
z
" transform="scale(0.015625)"/>
       <path id="DejaVuSans-20" transform="scale(0.015625)"/>
       <path id="DejaVuSans-76" d="M 191 3500 
L 800 3500 
L 1894 563 
L 2988 3500 
L 3597 3500 
L 2284 0 
L 1503 0 
L 191 3500 
z
" transform="scale(0.015625)"/>
       <path id="DejaVuSans-61" d="M 2194 1759 
Q 1497 1759 1228 1600 
Q 959 1441 959 1056 
Q 959 750 1161 570 
Q 1363 391 1709 391 
Q 2188 391 2477 730 
Q 2766 1069 2766 1631 
L 2766 1759 
L 2194 1759 
z
M 3341 1997 
L 3341 0 
L 2766 0 
L 2766 531 
Q 2569 213 2275 61 
Q 1981 -91 1556 -91 
Q 1019 -91 701 211 
Q 384 513 384 1019 
Q 384 1609 779 1909 
Q 1175 2209 1959 2209 
L 2766 2209 
L 2766 2266 
Q 2766 2663 2505 2880 
Q 2244 3097 1772 3097 
Q 1472 3097 1187 3025 
Q 903 2953 641 2809 
L 641 3341 
Q 956 3463 1253 3523 
Q 1550 3584 1831 3584 
Q 2591 3584 2966 3190 
Q 3341 2797 3341 1997 
z
" transform="scale(0.015625)"/>
       <path id="DejaVuSans-75" d="M 544 1381 
L 544 3500 
L 1119 3500 
L 1119 1403 
Q 1119 906 1312 657 
Q 1506 409 1894 409 
Q 2359 409 2629 706 
Q 2900 1003 2900 1516 
L 2900 3500 
L 3475 3500 
L 3475 0 
L 2900 0 
L 2900 538 
Q 2691 219 2414 64 
Q 2138 -91 1772 -91 
Q 1169 -91 856 284 
Q 544 659 544 1381 
z
M 1991 3584 
L 1991 3584 
z
" transform="scale(0.015625)"/>
       <path id="DejaVuSans-73" d="M 2834 3397 
L 2834 2853 
Q 2591 2978 2328 3040 
Q 2066 3103 1784 3103 
Q 1356 3103 1142 2972 
Q 928 2841 928 2578 
Q 928 2378 1081 2264 
Q 1234 2150 1697 2047 
L 1894 2003 
Q 2506 1872 2764 1633 
Q 3022 1394 3022 966 
Q 3022 478 2636 193 
Q 2250 -91 1575 -91 
Q 1294 -91 989 -36 
Q 684 19 347 128 
L 347 722 
Q 666 556 975 473 
Q 1284 391 1588 391 
Q 1994 391 2212 530 
Q 2431 669 2431 922 
Q 2431 1156 2273 1281 
Q 2116 1406 1581 1522 
L 1381 1569 
Q 847 1681 609 1914 
Q 372 2147 372 2553 
Q 372 3047 722 3315 
Q 1072 3584 1716 3584 
Q 2034 3584 2315 3537 
Q 2597 3491 2834 3397 
z
" transform="scale(0.015625)"/>
      </defs>
      <use xlink:href="#DejaVuSans-50"/>
      <use xlink:href="#DejaVuSans-69" x="58.052734"/>
      <use xlink:href="#DejaVuSans-78" x="85.835938"/>
      <use xlink:href="#DejaVuSans-65" x="141.890625"/>
      <use xlink:href="#DejaVuSans-6c" x="203.414062"/>
      <use xlink:href="#DejaVuSans-20" x="231.197266"/>
      <use xlink:href="#DejaVuSans-76" x="262.984375"/>
      <use xlink:href="#DejaVuSans-61" x="322.164062"/>
      <use xlink:href="#DejaVuSans-6c" x="383.443359"/>
      <use xlink:href="#DejaVuSans-75" x="411.226562"/>
      <use xlink:href="#DejaVuSans-65" x="474.605469"/>
      <use xlink:href="#DejaVuSans-73" x="536.128906"/>
     </g>
    </g>
   </g>
   <g id="matplotlib.axis_2">
    <g id="ytick_1">
     <g id="line2d_17">
      <path d="M 57.6 295.488 
L 414.72 295.488 
" clip-path="url(#p6f869cb01e)" style="fill: none; stroke-dasharray: 1.85,0.8; stroke-dashoffset: 0; stroke: #b0b0b0; stroke-width: 0.5"/>
     </g>
     <g id="line2d_18">
      <defs>
       <path id="mad4e8d36b2" d="M 0 0 
L -3.5 0 
" style="stroke: #000000; stroke-width: 0.8"/>
      </defs>
      <g>
       <use xlink:href="#mad4e8d36b2" x="57.6" y="295.488" style="stroke: #000000; stroke-width: 0.8"/>
      </g>
     </g>
     <g id="text_10">
      <!-- 0 -->
      <g transform="translate(44.2375 299.287219) scale(0.1 -0.1)">
       <use xlink:href="#DejaVuSans-30"/>
      </g>
     </g>
    </g>
    <g id="ytick_2">
     <g id="line2d_19">
      <path d="M 57.6 251.433481 
L 414.72 251.433481 
" clip-path="url(#p6f869cb01e)" style="fill: none; stroke-dasharray: 1.85,0.8; stroke-dashoffset: 0; stroke: #b0b0b0; stroke-width: 0.5"/>
     </g>
     <g id="line2d_20">
      <g>
       <use xlink:href="#mad4e8d36b2" x="57.6" y="251.433481" style="stroke: #000000; stroke-width: 0.8"/>
      </g>
     </g>
     <g id="text_11">
      <!-- 2 -->
      <g transform="translate(44.2375 255.2327) scale(0.1 -0.1)">
       <use xlink:href="#DejaVuSans-32"/>
      </g>
     </g>
    </g>
    <g id="ytick_3">
     <g id="line2d_21">
      <path d="M 57.6 207.378962 
L 414.72 207.378962 
" clip-path="url(#p6f869cb01e)" style="fill: none; stroke-dasharray: 1.85,0.8; stroke-dashoffset: 0; stroke: #b0b0b0; stroke-width: 0.5"/>
     </g>
     <g id="line2d_22">
      <g>
       <use xlink:href="#mad4e8d36b2" x="57.6" y="207.378962" style="stroke: #000000; stroke-width: 0.8"/>
      </g>
     </g>
     <g id="text_12">
      <!-- 4 -->
      <g transform="translate(44.2375 211.178181) scale(0.1 -0.1)">
       <defs>
        <path id="DejaVuSans-34" d="M 2419 4116 
L 825 1625 
L 2419 1625 
L 2419 4116 
z
M 2253 4666 
L 3047 4666 
L 3047 1625 
L 3713 1625 
L 3713 1100 
L 3047 1100 
L 3047 0 
L 2419 0 
L 2419 1100 
L 313 1100 
L 313 1709 
L 2253 4666 
z
" transform="scale(0.015625)"/>
       </defs>
       <use xlink:href="#DejaVuSans-34"/>
      </g>
     </g>
    </g>
    <g id="ytick_4">
     <g id="line2d_23">
      <path d="M 57.6 163.324443 
L 414.72 163.324443 
" clip-path="url(#p6f869cb01e)" style="fill: none; stroke-dasharray: 1.85,0.8; stroke-dashoffset: 0; stroke: #b0b0b0; stroke-width: 0.5"/>
     </g>
     <g id="line2d_24">
      <g>
       <use xlink:href="#mad4e8d36b2" x="57.6" y="163.324443" style="stroke: #000000; stroke-width: 0.8"/>
      </g>
     </g>
     <g id="text_13">
      <!-- 6 -->
      <g transform="translate(44.2375 167.123662) scale(0.1 -0.1)">
       <defs>
        <path id="DejaVuSans-36" d="M 2113 2584 
Q 1688 2584 1439 2293 
Q 1191 2003 1191 1497 
Q 1191 994 1439 701 
Q 1688 409 2113 409 
Q 2538 409 2786 701 
Q 3034 994 3034 1497 
Q 3034 2003 2786 2293 
Q 2538 2584 2113 2584 
z
M 3366 4563 
L 3366 3988 
Q 3128 4100 2886 4159 
Q 2644 4219 2406 4219 
Q 1781 4219 1451 3797 
Q 1122 3375 1075 2522 
Q 1259 2794 1537 2939 
Q 1816 3084 2150 3084 
Q 2853 3084 3261 2657 
Q 3669 2231 3669 1497 
Q 3669 778 3244 343 
Q 2819 -91 2113 -91 
Q 1303 -91 875 529 
Q 447 1150 447 2328 
Q 447 3434 972 4092 
Q 1497 4750 2381 4750 
Q 2619 4750 2861 4703 
Q 3103 4656 3366 4563 
z
" transform="scale(0.015625)"/>
       </defs>
       <use xlink:href="#DejaVuSans-36"/>
      </g>
     </g>
    </g>
    <g id="ytick_5">
     <g id="line2d_25">
      <path d="M 57.6 119.269924 
L 414.72 119.269924 
" clip-path="url(#p6f869cb01e)" style="fill: none; stroke-dasharray: 1.85,0.8; stroke-dashoffset: 0; stroke: #b0b0b0; stroke-width: 0.5"/>
     </g>
     <g id="line2d_26">
      <g>
       <use xlink:href="#mad4e8d36b2" x="57.6" y="119.269924" style="stroke: #000000; stroke-width: 0.8"/>
      </g>
     </g>
     <g id="text_14">
      <!-- 8 -->
      <g transform="translate(44.2375 123.069143) scale(0.1 -0.1)">
       <defs>
        <path id="DejaVuSans-38" d="M 2034 2216 
Q 1584 2216 1326 1975 
Q 1069 1734 1069 1313 
Q 1069 891 1326 650 
Q 1584 409 2034 409 
Q 2484 409 2743 651 
Q 3003 894 3003 1313 
Q 3003 1734 2745 1975 
Q 2488 2216 2034 2216 
z
M 1403 2484 
Q 997 2584 770 2862 
Q 544 3141 544 3541 
Q 544 4100 942 4425 
Q 1341 4750 2034 4750 
Q 2731 4750 3128 4425 
Q 3525 4100 3525 3541 
Q 3525 3141 3298 2862 
Q 3072 2584 2669 2484 
Q 3125 2378 3379 2068 
Q 3634 1759 3634 1313 
Q 3634 634 3220 271 
Q 2806 -91 2034 -91 
Q 1263 -91 848 271 
Q 434 634 434 1313 
Q 434 1759 690 2068 
Q 947 2378 1403 2484 
z
M 1172 3481 
Q 1172 3119 1398 2916 
Q 1625 2713 2034 2713 
Q 2441 2713 2670 2916 
Q 2900 3119 2900 3481 
Q 2900 3844 2670 4047 
Q 2441 4250 2034 4250 
Q 1625 4250 1398 4047 
Q 1172 3844 1172 3481 
z
" transform="scale(0.015625)"/>
       </defs>
       <use xlink:href="#DejaVuSans-38"/>
      </g>
     </g>
    </g>
    <g id="ytick_6">
     <g id="line2d_27">
      <path d="M 57.6 75.215405 
L 414.72 75.215405 
" clip-path="url(#p6f869cb01e)" style="fill: none; stroke-dasharray: 1.85,0.8; stroke-dashoffset: 0; stroke: #b0b0b0; stroke-width: 0.5"/>
     </g>
     <g id="line2d_28">
      <g>
       <use xlink:href="#mad4e8d36b2" x="57.6" y="75.215405" style="stroke: #000000; stroke-width: 0.8"/>
      </g>
     </g>
     <g id="text_15">
      <!-- 10 -->
      <g transform="translate(37.875 79.014624) scale(0.1 -0.1)">
       <use xlink:href="#DejaVuSans-31"/>
       <use xlink:href="#DejaVuSans-30" x="63.623047"/>
      </g>
     </g>
    </g>
    <g id="text_16">
     <!-- Frequency -->
     <g transform="translate(31.795312 200.357687) rotate(-90) scale(0.1 -0.1)">
      <defs>
       <path id="DejaVuSans-46" d="M 628 4666 
L 3309 4666 
L 3309 4134 
L 1259 4134 
L 1259 2759 
L 3109 2759 
L 3109 2228 
L 1259 2228 
L 1259 0 
L 628 0 
L 628 4666 
z
" transform="scale(0.015625)"/>
       <path id="DejaVuSans-72" d="M 2631 2963 
Q 2534 3019 2420 3045 
Q 2306 3072 2169 3072 
Q 1681 3072 1420 2755 
Q 1159 2438 1159 1844 
L 1159 0 
L 581 0 
L 581 3500 
L 1159 3500 
L 1159 2956 
Q 1341 3275 1631 3429 
Q 1922 3584 2338 3584 
Q 2397 3584 2469 3576 
Q 2541 3569 2628 3553 
L 2631 2963 
z
" transform="scale(0.015625)"/>
       <path id="DejaVuSans-71" d="M 947 1747 
Q 947 1113 1208 752 
Q 1469 391 1925 391 
Q 2381 391 2643 752 
Q 2906 1113 2906 1747 
Q 2906 2381 2643 2742 
Q 2381 3103 1925 3103 
Q 1469 3103 1208 2742 
Q 947 2381 947 1747 
z
M 2906 525 
Q 2725 213 2448 61 
Q 2172 -91 1784 -91 
Q 1150 -91 751 415 
Q 353 922 353 1747 
Q 353 2572 751 3078 
Q 1150 3584 1784 3584 
Q 2172 3584 2448 3432 
Q 2725 3281 2906 2969 
L 2906 3500 
L 3481 3500 
L 3481 -1331 
L 2906 -1331 
L 2906 525 
z
" transform="scale(0.015625)"/>
       <path id="DejaVuSans-6e" d="M 3513 2113 
L 3513 0 
L 2938 0 
L 2938 2094 
Q 2938 2591 2744 2837 
Q 2550 3084 2163 3084 
Q 1697 3084 1428 2787 
Q 1159 2491 1159 1978 
L 1159 0 
L 581 0 
L 581 3500 
L 1159 3500 
L 1159 2956 
Q 1366 3272 1645 3428 
Q 1925 3584 2291 3584 
Q 2894 3584 3203 3211 
Q 3513 2838 3513 2113 
z
" transform="scale(0.015625)"/>
       <path id="DejaVuSans-63" d="M 3122 3366 
L 3122 2828 
Q 2878 2963 2633 3030 
Q 2388 3097 2138 3097 
Q 1578 3097 1268 2742 
Q 959 2388 959 1747 
Q 959 1106 1268 751 
Q 1578 397 2138 397 
Q 2388 397 2633 464 
Q 2878 531 3122 666 
L 3122 134 
Q 2881 22 2623 -34 
Q 2366 -91 2075 -91 
Q 1284 -91 818 406 
Q 353 903 353 1747 
Q 353 2603 823 3093 
Q 1294 3584 2113 3584 
Q 2378 3584 2631 3529 
Q 2884 3475 3122 3366 
z
" transform="scale(0.015625)"/>
       <path id="DejaVuSans-79" d="M 2059 -325 
Q 1816 -950 1584 -1140 
Q 1353 -1331 966 -1331 
L 506 -1331 
L 506 -850 
L 844 -850 
Q 1081 -850 1212 -737 
Q 1344 -625 1503 -206 
L 1606 56 
L 191 3500 
L 800 3500 
L 1894 763 
L 2988 3500 
L 3597 3500 
L 2059 -325 
z
" transform="scale(0.015625)"/>
      </defs>
      <use xlink:href="#DejaVuSans-46"/>
      <use xlink:href="#DejaVuSans-72" x="50.269531"/>
      <use xlink:href="#DejaVuSans-65" x="89.132812"/>
      <use xlink:href="#DejaVuSans-71" x="150.65625"/>
      <use xlink:href="#DejaVuSans-75" x="214.132812"/>
      <use xlink:href="#DejaVuSans-65" x="277.511719"/>
      <use xlink:href="#DejaVuSans-6e" x="339.035156"/>
      <use xlink:href="#DejaVuSans-63" x="402.414062"/>
      <use xlink:href="#DejaVuSans-79" x="457.394531"/>
     </g>
    </g>
   </g>
   <g id="line2d_29">
    <path d="M 73.832727 256.555351 
L 74.907742 251.415867 
L 75.982757 245.609624 
L 77.057772 238.61974 
L 78.132787 229.841965 
L 79.207803 218.706079 
L 80.282818 204.831778 
L 81.357833 188.188942 
L 83.507863 148.905468 
L 85.657893 110.311977 
L 86.732908 95.612273 
L 87.807923 86.166311 
L 88.882938 83.044856 
L 89.957953 86.61117 
L 91.032968 96.453447 
L 92.107983 111.461241 
L 94.258013 150.327763 
L 96.408043 189.465884 
L 97.483058 205.934611 
L 98.558073 219.598282 
L 99.633089 230.498916 
L 100.708104 239.014385 
L 101.783119 245.697532 
L 102.858134 251.122903 
L 105.008164 259.963758 
L 107.158194 267.466744 
L 108.233209 270.731429 
L 109.308224 273.566123 
L 110.383239 275.914739 
L 111.458254 277.778368 
L 112.533269 279.221195 
L 113.608284 280.35686 
L 117.908344 284.354496 
L 120.058374 286.934945 
L 123.28342 290.903464 
L 124.358435 292.004532 
L 125.43345 292.930261 
L 126.508465 293.6726 
L 127.58348 294.240659 
L 128.658495 294.655147 
L 130.808525 295.130302 
L 132.958555 295.302762 
L 136.1836 295.30354 
L 144.783721 295.190707 
L 164.133992 295.425628 
L 188.859338 295.452115 
L 247.985166 295.460043 
L 398.487273 295.411803 
L 398.487273 295.411803 
" clip-path="url(#p6f869cb01e)" style="fill: none; stroke: #1f77b4; stroke-width: 1.5; stroke-linecap: square"/>
   </g>
   <g id="line2d_30">
    <path d="M 73.832727 275.551649 
L 74.907742 271.024424 
L 75.982757 265.091248 
L 77.057772 257.222588 
L 78.132787 246.875058 
L 79.207803 233.602917 
L 80.282818 217.195019 
L 81.357833 197.811631 
L 85.657893 110.306896 
L 86.732908 94.117532 
L 87.807923 83.659458 
L 88.882938 80.006044 
L 89.957953 83.501233 
L 91.032968 93.696326 
L 92.107983 109.4295 
L 94.258013 150.597074 
L 96.408043 192.61308 
L 97.483058 210.492339 
L 98.558073 225.405104 
L 99.633089 237.287625 
L 100.708104 246.421542 
L 101.783119 253.28111 
L 102.858134 258.387394 
L 103.933149 262.197947 
L 105.008164 265.046555 
L 106.083179 267.13346 
L 107.158194 268.555192 
L 108.233209 269.356588 
L 109.308224 269.586026 
L 110.383239 269.337823 
L 113.608284 267.589839 
L 114.683299 267.461959 
L 115.758314 267.908523 
L 116.833329 269.03103 
L 117.908344 270.83125 
L 118.983359 273.216057 
L 121.13339 279.036233 
L 123.28342 284.89774 
L 124.358435 287.424805 
L 125.43345 289.558513 
L 126.508465 291.273008 
L 127.58348 292.585282 
L 128.658495 293.540935 
L 129.73351 294.199885 
L 130.808525 294.624667 
L 131.88354 294.872569 
L 134.03357 295.020064 
L 137.258615 294.822849 
L 141.558675 294.519881 
L 144.783721 294.580209 
L 156.608886 295.345035 
L 166.284022 295.401769 
L 209.284624 295.461201 
L 398.487273 295.411935 
L 398.487273 295.411935 
" clip-path="url(#p6f869cb01e)" style="fill: none; stroke: #ff7f0e; stroke-width: 1.5; stroke-linecap: square"/>
   </g>
   <g id="line2d_31">
    <path d="M 73.832727 275.994174 
L 74.907742 271.556659 
L 75.982757 265.738351 
L 77.057772 258.019975 
L 78.132787 247.868896 
L 79.207803 234.848437 
L 80.282818 218.752128 
L 81.357833 199.737829 
L 85.657893 113.91846 
L 86.732908 98.049959 
L 87.807923 87.808878 
L 88.882938 84.250071 
L 89.957953 87.713342 
L 91.032968 97.761161 
L 92.107983 113.256152 
L 94.258013 153.809655 
L 96.408043 195.240706 
L 97.483058 212.88571 
L 98.558073 227.603369 
L 99.633089 239.315507 
L 100.708104 248.281411 
L 101.783119 254.949406 
L 102.858134 259.815427 
L 103.933149 263.316463 
L 105.008164 265.773122 
L 106.083179 267.381673 
L 107.158194 268.244825 
L 108.233209 268.423892 
L 109.308224 267.993361 
L 110.383239 267.081652 
L 112.533269 264.670525 
L 113.608284 263.71594 
L 114.683299 263.290558 
L 115.758314 263.595329 
L 116.833329 264.73067 
L 117.908344 266.681372 
L 118.983359 269.324105 
L 121.13339 275.826707 
L 123.28342 282.34976 
L 124.358435 285.141169 
L 125.43345 287.487359 
L 126.508465 289.369951 
L 127.58348 290.819862 
L 128.658495 291.89882 
L 129.73351 292.681219 
L 130.808525 293.239671 
L 132.958555 293.916784 
L 135.108585 294.252518 
L 138.33363 294.428751 
L 144.783721 294.614981 
L 155.533871 295.320035 
L 166.284022 295.463515 
L 186.709308 295.456182 
L 227.55988 295.455308 
L 265.185406 295.476339 
L 392.037182 295.405926 
L 398.487273 295.375044 
L 398.487273 295.375044 
" clip-path="url(#p6f869cb01e)" style="fill: none; stroke: #2ca02c; stroke-width: 1.5; stroke-linecap: square"/>
   </g>
   <g id="line2d_32">
    <path d="M 73.832727 271.998538 
L 74.907742 266.856213 
L 75.982757 260.165148 
L 77.057772 251.328401 
L 78.132787 239.729776 
L 79.207803 224.860391 
L 80.282818 206.474559 
L 81.357833 184.74595 
L 85.657893 86.704132 
L 86.732908 68.691771 
L 87.807923 57.229086 
L 88.882938 53.568 
L 89.957953 58.143262 
L 91.032968 70.495854 
L 92.107983 89.354851 
L 93.182998 112.857555 
L 96.408043 190.21492 
L 97.483058 212.478724 
L 98.558073 231.290234 
L 99.633089 246.42954 
L 100.708104 258.085022 
L 101.783119 266.705069 
L 102.858134 272.851858 
L 103.933149 277.084318 
L 105.008164 279.883897 
L 106.083179 281.623975 
L 107.158194 282.574381 
L 108.233209 282.927635 
L 109.308224 282.832806 
L 110.383239 282.425303 
L 113.608284 280.761524 
L 114.683299 280.538867 
L 115.758314 280.670266 
L 116.833329 281.203851 
L 117.908344 282.132731 
L 118.983359 283.398966 
L 121.13339 286.538217 
L 123.28342 289.722726 
L 124.358435 291.099067 
L 125.43345 292.262961 
L 126.508465 293.200373 
L 127.58348 293.92101 
L 128.658495 294.45047 
L 129.73351 294.822367 
L 131.88354 295.231029 
L 134.03357 295.379997 
L 139.408645 295.402534 
L 150.158796 295.442088 
L 168.434052 295.464161 
L 398.487273 295.434356 
L 398.487273 295.434356 
" clip-path="url(#p6f869cb01e)" style="fill: none; stroke: #d62728; stroke-width: 1.5; stroke-linecap: square"/>
   </g>
   <g id="patch_3">
    <path d="M 57.6 307.584 
L 57.6 41.472 
" style="fill: none; stroke: #000000; stroke-width: 0.8; stroke-linejoin: miter; stroke-linecap: square"/>
   </g>
   <g id="patch_4">
    <path d="M 414.72 307.584 
L 414.72 41.472 
" style="fill: none; stroke: #000000; stroke-width: 0.8; stroke-linejoin: miter; stroke-linecap: square"/>
   </g>
   <g id="patch_5">
    <path d="M 57.6 307.584 
L 414.72 307.584 
" style="fill: none; stroke: #000000; stroke-width: 0.8; stroke-linejoin: miter; stroke-linecap: square"/>
   </g>
   <g id="patch_6">
    <path d="M 57.6 41.472 
L 414.72 41.472 
" style="fill: none; stroke: #000000; stroke-width: 0.8; stroke-linejoin: miter; stroke-linecap: square"/>
   </g>
   <g id="text_17">
    <!-- AD - mni_prob_Parietal_Lobe -->
    <g transform="translate(150.56625 35.472) scale(0.12 -0.12)">
     <defs>
      <path id="DejaVuSans-41" d="M 2188 4044 
L 1331 1722 
L 3047 1722 
L 2188 4044 
z
M 1831 4666 
L 2547 4666 
L 4325 0 
L 3669 0 
L 3244 1197 
L 1141 1197 
L 716 0 
L 50 0 
L 1831 4666 
z
" transform="scale(0.015625)"/>
      <path id="DejaVuSans-44" d="M 1259 4147 
L 1259 519 
L 2022 519 
Q 2988 519 3436 956 
Q 3884 1394 3884 2338 
Q 3884 3275 3436 3711 
Q 2988 4147 2022 4147 
L 1259 4147 
z
M 628 4666 
L 1925 4666 
Q 3281 4666 3915 4102 
Q 4550 3538 4550 2338 
Q 4550 1131 3912 565 
Q 3275 0 1925 0 
L 628 0 
L 628 4666 
z
" transform="scale(0.015625)"/>
      <path id="DejaVuSans-2d" d="M 313 2009 
L 1997 2009 
L 1997 1497 
L 313 1497 
L 313 2009 
z
" transform="scale(0.015625)"/>
      <path id="DejaVuSans-6d" d="M 3328 2828 
Q 3544 3216 3844 3400 
Q 4144 3584 4550 3584 
Q 5097 3584 5394 3201 
Q 5691 2819 5691 2113 
L 5691 0 
L 5113 0 
L 5113 2094 
Q 5113 2597 4934 2840 
Q 4756 3084 4391 3084 
Q 3944 3084 3684 2787 
Q 3425 2491 3425 1978 
L 3425 0 
L 2847 0 
L 2847 2094 
Q 2847 2600 2669 2842 
Q 2491 3084 2119 3084 
Q 1678 3084 1418 2786 
Q 1159 2488 1159 1978 
L 1159 0 
L 581 0 
L 581 3500 
L 1159 3500 
L 1159 2956 
Q 1356 3278 1631 3431 
Q 1906 3584 2284 3584 
Q 2666 3584 2933 3390 
Q 3200 3197 3328 2828 
z
" transform="scale(0.015625)"/>
      <path id="DejaVuSans-5f" d="M 3263 -1063 
L 3263 -1509 
L -63 -1509 
L -63 -1063 
L 3263 -1063 
z
" transform="scale(0.015625)"/>
      <path id="DejaVuSans-70" d="M 1159 525 
L 1159 -1331 
L 581 -1331 
L 581 3500 
L 1159 3500 
L 1159 2969 
Q 1341 3281 1617 3432 
Q 1894 3584 2278 3584 
Q 2916 3584 3314 3078 
Q 3713 2572 3713 1747 
Q 3713 922 3314 415 
Q 2916 -91 2278 -91 
Q 1894 -91 1617 61 
Q 1341 213 1159 525 
z
M 3116 1747 
Q 3116 2381 2855 2742 
Q 2594 3103 2138 3103 
Q 1681 3103 1420 2742 
Q 1159 2381 1159 1747 
Q 1159 1113 1420 752 
Q 1681 391 2138 391 
Q 2594 391 2855 752 
Q 3116 1113 3116 1747 
z
" transform="scale(0.015625)"/>
      <path id="DejaVuSans-6f" d="M 1959 3097 
Q 1497 3097 1228 2736 
Q 959 2375 959 1747 
Q 959 1119 1226 758 
Q 1494 397 1959 397 
Q 2419 397 2687 759 
Q 2956 1122 2956 1747 
Q 2956 2369 2687 2733 
Q 2419 3097 1959 3097 
z
M 1959 3584 
Q 2709 3584 3137 3096 
Q 3566 2609 3566 1747 
Q 3566 888 3137 398 
Q 2709 -91 1959 -91 
Q 1206 -91 779 398 
Q 353 888 353 1747 
Q 353 2609 779 3096 
Q 1206 3584 1959 3584 
z
" transform="scale(0.015625)"/>
      <path id="DejaVuSans-62" d="M 3116 1747 
Q 3116 2381 2855 2742 
Q 2594 3103 2138 3103 
Q 1681 3103 1420 2742 
Q 1159 2381 1159 1747 
Q 1159 1113 1420 752 
Q 1681 391 2138 391 
Q 2594 391 2855 752 
Q 3116 1113 3116 1747 
z
M 1159 2969 
Q 1341 3281 1617 3432 
Q 1894 3584 2278 3584 
Q 2916 3584 3314 3078 
Q 3713 2572 3713 1747 
Q 3713 922 3314 415 
Q 2916 -91 2278 -91 
Q 1894 -91 1617 61 
Q 1341 213 1159 525 
L 1159 0 
L 581 0 
L 581 4863 
L 1159 4863 
L 1159 2969 
z
" transform="scale(0.015625)"/>
      <path id="DejaVuSans-74" d="M 1172 4494 
L 1172 3500 
L 2356 3500 
L 2356 3053 
L 1172 3053 
L 1172 1153 
Q 1172 725 1289 603 
Q 1406 481 1766 481 
L 2356 481 
L 2356 0 
L 1766 0 
Q 1100 0 847 248 
Q 594 497 594 1153 
L 594 3053 
L 172 3053 
L 172 3500 
L 594 3500 
L 594 4494 
L 1172 4494 
z
" transform="scale(0.015625)"/>
      <path id="DejaVuSans-4c" d="M 628 4666 
L 1259 4666 
L 1259 531 
L 3531 531 
L 3531 0 
L 628 0 
L 628 4666 
z
" transform="scale(0.015625)"/>
     </defs>
     <use xlink:href="#DejaVuSans-41"/>
     <use xlink:href="#DejaVuSans-44" x="68.408203"/>
     <use xlink:href="#DejaVuSans-20" x="145.410156"/>
     <use xlink:href="#DejaVuSans-2d" x="177.197266"/>
     <use xlink:href="#DejaVuSans-20" x="213.28125"/>
     <use xlink:href="#DejaVuSans-6d" x="245.068359"/>
     <use xlink:href="#DejaVuSans-6e" x="342.480469"/>
     <use xlink:href="#DejaVuSans-69" x="405.859375"/>
     <use xlink:href="#DejaVuSans-5f" x="433.642578"/>
     <use xlink:href="#DejaVuSans-70" x="483.642578"/>
     <use xlink:href="#DejaVuSans-72" x="547.119141"/>
     <use xlink:href="#DejaVuSans-6f" x="585.982422"/>
     <use xlink:href="#DejaVuSans-62" x="647.164062"/>
     <use xlink:href="#DejaVuSans-5f" x="710.640625"/>
     <use xlink:href="#DejaVuSans-50" x="760.640625"/>
     <use xlink:href="#DejaVuSans-61" x="816.443359"/>
     <use xlink:href="#DejaVuSans-72" x="877.722656"/>
     <use xlink:href="#DejaVuSans-69" x="918.835938"/>
     <use xlink:href="#DejaVuSans-65" x="946.619141"/>
     <use xlink:href="#DejaVuSans-74" x="1008.142578"/>
     <use xlink:href="#DejaVuSans-61" x="1047.351562"/>
     <use xlink:href="#DejaVuSans-6c" x="1108.630859"/>
     <use xlink:href="#DejaVuSans-5f" x="1136.414062"/>
     <use xlink:href="#DejaVuSans-4c" x="1186.414062"/>
     <use xlink:href="#DejaVuSans-6f" x="1240.376953"/>
     <use xlink:href="#DejaVuSans-62" x="1301.558594"/>
     <use xlink:href="#DejaVuSans-65" x="1365.035156"/>
    </g>
   </g>
   <g id="legend_1">
    <g id="patch_7">
     <path d="M 190.72 109.297 
L 407.72 109.297 
Q 409.72 109.297 409.72 107.297 
L 409.72 48.472 
Q 409.72 46.472 407.72 46.472 
L 190.72 46.472 
Q 188.72 46.472 188.72 48.472 
L 188.72 107.297 
Q 188.72 109.297 190.72 109.297 
z
" style="fill: #ffffff; opacity: 0.8; stroke: #cccccc; stroke-linejoin: miter"/>
    </g>
    <g id="line2d_33">
     <path d="M 192.72 54.570437 
L 202.72 54.570437 
L 212.72 54.570437 
" style="fill: none; stroke: #1f77b4; stroke-width: 1.5; stroke-linecap: square"/>
    </g>
    <g id="text_18">
     <!-- 20_01_01_E0[1.0] -->
     <g transform="translate(220.72 58.070437) scale(0.1 -0.1)">
      <defs>
       <path id="DejaVuSans-45" d="M 628 4666 
L 3578 4666 
L 3578 4134 
L 1259 4134 
L 1259 2753 
L 3481 2753 
L 3481 2222 
L 1259 2222 
L 1259 531 
L 3634 531 
L 3634 0 
L 628 0 
L 628 4666 
z
" transform="scale(0.015625)"/>
       <path id="DejaVuSans-5b" d="M 550 4863 
L 1875 4863 
L 1875 4416 
L 1125 4416 
L 1125 -397 
L 1875 -397 
L 1875 -844 
L 550 -844 
L 550 4863 
z
" transform="scale(0.015625)"/>
       <path id="DejaVuSans-5d" d="M 1947 4863 
L 1947 -844 
L 622 -844 
L 622 -397 
L 1369 -397 
L 1369 4416 
L 622 4416 
L 622 4863 
L 1947 4863 
z
" transform="scale(0.015625)"/>
      </defs>
      <use xlink:href="#DejaVuSans-32"/>
      <use xlink:href="#DejaVuSans-30" x="63.623047"/>
      <use xlink:href="#DejaVuSans-5f" x="127.246094"/>
      <use xlink:href="#DejaVuSans-30" x="177.246094"/>
      <use xlink:href="#DejaVuSans-31" x="240.869141"/>
      <use xlink:href="#DejaVuSans-5f" x="304.492188"/>
      <use xlink:href="#DejaVuSans-30" x="354.492188"/>
      <use xlink:href="#DejaVuSans-31" x="418.115234"/>
      <use xlink:href="#DejaVuSans-5f" x="481.738281"/>
      <use xlink:href="#DejaVuSans-45" x="531.738281"/>
      <use xlink:href="#DejaVuSans-30" x="594.921875"/>
      <use xlink:href="#DejaVuSans-5b" x="658.544922"/>
      <use xlink:href="#DejaVuSans-31" x="697.558594"/>
      <use xlink:href="#DejaVuSans-2e" x="761.181641"/>
      <use xlink:href="#DejaVuSans-30" x="792.96875"/>
      <use xlink:href="#DejaVuSans-5d" x="856.591797"/>
     </g>
    </g>
    <g id="line2d_34">
     <path d="M 192.72 69.526687 
L 202.72 69.526687 
L 212.72 69.526687 
" style="fill: none; stroke: #ff7f0e; stroke-width: 1.5; stroke-linecap: square"/>
    </g>
    <g id="text_19">
     <!-- 20_01_01_E1[0.9999999999999999] -->
     <g transform="translate(220.72 73.026687) scale(0.1 -0.1)">
      <defs>
       <path id="DejaVuSans-39" d="M 703 97 
L 703 672 
Q 941 559 1184 500 
Q 1428 441 1663 441 
Q 2288 441 2617 861 
Q 2947 1281 2994 2138 
Q 2813 1869 2534 1725 
Q 2256 1581 1919 1581 
Q 1219 1581 811 2004 
Q 403 2428 403 3163 
Q 403 3881 828 4315 
Q 1253 4750 1959 4750 
Q 2769 4750 3195 4129 
Q 3622 3509 3622 2328 
Q 3622 1225 3098 567 
Q 2575 -91 1691 -91 
Q 1453 -91 1209 -44 
Q 966 3 703 97 
z
M 1959 2075 
Q 2384 2075 2632 2365 
Q 2881 2656 2881 3163 
Q 2881 3666 2632 3958 
Q 2384 4250 1959 4250 
Q 1534 4250 1286 3958 
Q 1038 3666 1038 3163 
Q 1038 2656 1286 2365 
Q 1534 2075 1959 2075 
z
" transform="scale(0.015625)"/>
      </defs>
      <use xlink:href="#DejaVuSans-32"/>
      <use xlink:href="#DejaVuSans-30" x="63.623047"/>
      <use xlink:href="#DejaVuSans-5f" x="127.246094"/>
      <use xlink:href="#DejaVuSans-30" x="177.246094"/>
      <use xlink:href="#DejaVuSans-31" x="240.869141"/>
      <use xlink:href="#DejaVuSans-5f" x="304.492188"/>
      <use xlink:href="#DejaVuSans-30" x="354.492188"/>
      <use xlink:href="#DejaVuSans-31" x="418.115234"/>
      <use xlink:href="#DejaVuSans-5f" x="481.738281"/>
      <use xlink:href="#DejaVuSans-45" x="531.738281"/>
      <use xlink:href="#DejaVuSans-31" x="594.921875"/>
      <use xlink:href="#DejaVuSans-5b" x="658.544922"/>
      <use xlink:href="#DejaVuSans-30" x="697.558594"/>
      <use xlink:href="#DejaVuSans-2e" x="761.181641"/>
      <use xlink:href="#DejaVuSans-39" x="792.96875"/>
      <use xlink:href="#DejaVuSans-39" x="856.591797"/>
      <use xlink:href="#DejaVuSans-39" x="920.214844"/>
      <use xlink:href="#DejaVuSans-39" x="983.837891"/>
      <use xlink:href="#DejaVuSans-39" x="1047.460938"/>
      <use xlink:href="#DejaVuSans-39" x="1111.083984"/>
      <use xlink:href="#DejaVuSans-39" x="1174.707031"/>
      <use xlink:href="#DejaVuSans-39" x="1238.330078"/>
      <use xlink:href="#DejaVuSans-39" x="1301.953125"/>
      <use xlink:href="#DejaVuSans-39" x="1365.576172"/>
      <use xlink:href="#DejaVuSans-39" x="1429.199219"/>
      <use xlink:href="#DejaVuSans-39" x="1492.822266"/>
      <use xlink:href="#DejaVuSans-39" x="1556.445312"/>
      <use xlink:href="#DejaVuSans-39" x="1620.068359"/>
      <use xlink:href="#DejaVuSans-39" x="1683.691406"/>
      <use xlink:href="#DejaVuSans-39" x="1747.314453"/>
      <use xlink:href="#DejaVuSans-5d" x="1810.9375"/>
     </g>
    </g>
    <g id="line2d_35">
     <path d="M 192.72 84.482937 
L 202.72 84.482937 
L 212.72 84.482937 
" style="fill: none; stroke: #2ca02c; stroke-width: 1.5; stroke-linecap: square"/>
    </g>
    <g id="text_20">
     <!-- 20_01_01_E2[1.0] -->
     <g transform="translate(220.72 87.982937) scale(0.1 -0.1)">
      <use xlink:href="#DejaVuSans-32"/>
      <use xlink:href="#DejaVuSans-30" x="63.623047"/>
      <use xlink:href="#DejaVuSans-5f" x="127.246094"/>
      <use xlink:href="#DejaVuSans-30" x="177.246094"/>
      <use xlink:href="#DejaVuSans-31" x="240.869141"/>
      <use xlink:href="#DejaVuSans-5f" x="304.492188"/>
      <use xlink:href="#DejaVuSans-30" x="354.492188"/>
      <use xlink:href="#DejaVuSans-31" x="418.115234"/>
      <use xlink:href="#DejaVuSans-5f" x="481.738281"/>
      <use xlink:href="#DejaVuSans-45" x="531.738281"/>
      <use xlink:href="#DejaVuSans-32" x="594.921875"/>
      <use xlink:href="#DejaVuSans-5b" x="658.544922"/>
      <use xlink:href="#DejaVuSans-31" x="697.558594"/>
      <use xlink:href="#DejaVuSans-2e" x="761.181641"/>
      <use xlink:href="#DejaVuSans-30" x="792.96875"/>
      <use xlink:href="#DejaVuSans-5d" x="856.591797"/>
     </g>
    </g>
    <g id="line2d_36">
     <path d="M 192.72 99.439187 
L 202.72 99.439187 
L 212.72 99.439187 
" style="fill: none; stroke: #d62728; stroke-width: 1.5; stroke-linecap: square"/>
    </g>
    <g id="text_21">
     <!-- 20_11_02_E1[0.9999999999999999] -->
     <g transform="translate(220.72 102.939187) scale(0.1 -0.1)">
      <use xlink:href="#DejaVuSans-32"/>
      <use xlink:href="#DejaVuSans-30" x="63.623047"/>
      <use xlink:href="#DejaVuSans-5f" x="127.246094"/>
      <use xlink:href="#DejaVuSans-31" x="177.246094"/>
      <use xlink:href="#DejaVuSans-31" x="240.869141"/>
      <use xlink:href="#DejaVuSans-5f" x="304.492188"/>
      <use xlink:href="#DejaVuSans-30" x="354.492188"/>
      <use xlink:href="#DejaVuSans-32" x="418.115234"/>
      <use xlink:href="#DejaVuSans-5f" x="481.738281"/>
      <use xlink:href="#DejaVuSans-45" x="531.738281"/>
      <use xlink:href="#DejaVuSans-31" x="594.921875"/>
      <use xlink:href="#DejaVuSans-5b" x="658.544922"/>
      <use xlink:href="#DejaVuSans-30" x="697.558594"/>
      <use xlink:href="#DejaVuSans-2e" x="761.181641"/>
      <use xlink:href="#DejaVuSans-39" x="792.96875"/>
      <use xlink:href="#DejaVuSans-39" x="856.591797"/>
      <use xlink:href="#DejaVuSans-39" x="920.214844"/>
      <use xlink:href="#DejaVuSans-39" x="983.837891"/>
      <use xlink:href="#DejaVuSans-39" x="1047.460938"/>
      <use xlink:href="#DejaVuSans-39" x="1111.083984"/>
      <use xlink:href="#DejaVuSans-39" x="1174.707031"/>
      <use xlink:href="#DejaVuSans-39" x="1238.330078"/>
      <use xlink:href="#DejaVuSans-39" x="1301.953125"/>
      <use xlink:href="#DejaVuSans-39" x="1365.576172"/>
      <use xlink:href="#DejaVuSans-39" x="1429.199219"/>
      <use xlink:href="#DejaVuSans-39" x="1492.822266"/>
      <use xlink:href="#DejaVuSans-39" x="1556.445312"/>
      <use xlink:href="#DejaVuSans-39" x="1620.068359"/>
      <use xlink:href="#DejaVuSans-39" x="1683.691406"/>
      <use xlink:href="#DejaVuSans-39" x="1747.314453"/>
      <use xlink:href="#DejaVuSans-5d" x="1810.9375"/>
     </g>
    </g>
   </g>
  </g>
 </g>
 <defs>
  <clipPath id="p6f869cb01e">
   <rect x="57.6" y="41.472" width="357.12" height="266.112"/>
  </clipPath>
 </defs>
</svg>
