<?xml version="1.0" encoding="utf-8" standalone="no"?>
<!DOCTYPE svg PUBLIC "-//W3C//DTD SVG 1.1//EN"
  "http://www.w3.org/Graphics/SVG/1.1/DTD/svg11.dtd">
<svg xmlns:xlink="http://www.w3.org/1999/xlink" width="557.032pt" height="325.986375pt" viewBox="0 0 557.032 325.986375" xmlns="http://www.w3.org/2000/svg" version="1.1">
 <metadata>
  <rdf:RDF xmlns:dc="http://purl.org/dc/elements/1.1/" xmlns:cc="http://creativecommons.org/ns#" xmlns:rdf="http://www.w3.org/1999/02/22-rdf-syntax-ns#">
   <cc:Work>
    <dc:type rdf:resource="http://purl.org/dc/dcmitype/StillImage"/>
    <dc:date>2023-02-07T23:00:04.478819</dc:date>
    <dc:format>image/svg+xml</dc:format>
    <dc:creator>
     <cc:Agent>
      <dc:title>Matplotlib v3.6.2, https://matplotlib.org/</dc:title>
     </cc:Agent>
    </dc:creator>
   </cc:Work>
  </rdf:RDF>
 </metadata>
 <defs>
  <style type="text/css">*{stroke-linejoin: round; stroke-linecap: butt}</style>
 </defs>
 <g id="figure_1">
  <g id="patch_1">
   <path d="M 0 325.986375 
L 557.032 325.986375 
L 557.032 0 
L 0 0 
z
" style="fill: #ffffff"/>
  </g>
  <g id="axes_1">
   <g id="patch_2">
    <path d="M 50.14375 288.430125 
L 407.26375 288.430125 
L 407.26375 22.318125 
L 50.14375 22.318125 
z
" style="fill: #ffffff"/>
   </g>
   <g id="PolyCollection_1">
    <path d="M 66.376477 271.875897 
L 66.376477 260.378546 
L 67.366164 260.378546 
L 68.35585 260.378546 
L 69.345537 260.378546 
L 70.335224 260.378546 
L 71.32491 260.378546 
L 72.314597 260.378546 
L 73.304283 260.378546 
L 74.29397 260.378546 
L 75.283656 260.378546 
L 76.273343 260.378546 
L 77.26303 260.378546 
L 78.252716 260.378546 
L 79.242403 260.378546 
L 80.232089 260.378546 
L 81.221776 260.378546 
L 82.211462 260.378546 
L 83.201149 260.378546 
L 84.190836 260.378546 
L 85.180522 260.378546 
L 86.170209 260.378546 
L 87.159895 260.378546 
L 88.149582 260.378546 
L 89.139268 260.378546 
L 90.128955 260.378546 
L 91.118642 260.378546 
L 92.108328 260.378546 
L 93.098015 260.378546 
L 94.087701 260.378546 
L 95.077388 260.378546 
L 96.067075 260.378546 
L 97.056761 260.378546 
L 98.046448 260.378546 
L 99.036134 260.378546 
L 100.025821 260.378546 
L 101.015507 260.378546 
L 102.005194 260.378546 
L 102.994881 260.378546 
L 103.984567 260.378546 
L 104.974254 260.378546 
L 105.96394 260.378546 
L 106.953627 260.378546 
L 107.943313 260.378546 
L 108.933 260.378546 
L 109.922687 260.378546 
L 110.912373 260.378546 
L 111.90206 260.378546 
L 112.891746 260.378546 
L 113.881433 260.378546 
L 114.871119 260.378546 
L 115.860806 260.378546 
L 116.850493 260.378546 
L 117.840179 260.378546 
L 118.829866 260.378546 
L 119.819552 260.378546 
L 120.809239 260.378546 
L 121.798925 260.378546 
L 122.788612 260.378546 
L 123.778299 260.378546 
L 124.767985 260.378546 
L 125.757672 260.378546 
L 126.747358 260.378546 
L 127.737045 260.378546 
L 128.726731 260.378546 
L 129.716418 260.378546 
L 130.706105 260.378546 
L 131.695791 260.378546 
L 132.685478 260.378546 
L 133.675164 260.378546 
L 134.664851 260.378546 
L 135.654538 260.378546 
L 136.644224 260.378546 
L 137.633911 260.378546 
L 138.623597 260.378546 
L 139.613284 260.378546 
L 140.60297 260.378546 
L 141.592657 260.378546 
L 142.582344 260.378546 
L 143.57203 260.378546 
L 144.561717 260.378546 
L 145.551403 260.378546 
L 146.54109 260.378546 
L 147.530776 260.378546 
L 148.520463 260.378546 
L 149.51015 260.378546 
L 150.499836 260.378546 
L 151.489523 260.378546 
L 152.479209 260.378546 
L 153.468896 260.378546 
L 154.458582 260.378546 
L 155.448269 260.378546 
L 156.437956 260.378546 
L 157.427642 260.378546 
L 158.417329 260.378546 
L 159.407015 260.378546 
L 160.396702 260.378546 
L 161.386388 260.378546 
L 162.376075 260.378546 
L 163.365762 260.378546 
L 164.355448 260.378546 
L 164.355448 255.773177 
L 164.355448 255.773177 
L 163.365762 261.234836 
L 162.376075 263.495283 
L 161.386388 263.760022 
L 160.396702 262.913534 
L 159.407015 261.582119 
L 158.417329 260.187615 
L 157.427642 258.992977 
L 156.437956 258.140592 
L 155.448269 257.684155 
L 154.458582 257.614885 
L 153.468896 257.882756 
L 152.479209 258.4134 
L 151.489523 259.121264 
L 150.499836 259.919553 
L 149.51015 260.727446 
L 148.520463 261.475022 
L 147.530776 262.106294 
L 146.54109 262.580689 
L 145.551403 262.873308 
L 144.561717 262.974229 
L 143.57203 262.887096 
L 142.582344 262.627217 
L 141.592657 262.219336 
L 140.60297 261.695252 
L 139.613284 261.091395 
L 138.623597 260.446484 
L 137.633911 259.79934 
L 136.644224 259.186924 
L 135.654538 258.642644 
L 134.664851 258.194979 
L 133.675164 257.866415 
L 132.685478 257.672723 
L 131.695791 257.622561 
L 130.706105 257.717389 
L 129.716418 257.95168 
L 128.726731 258.313395 
L 127.737045 258.784695 
L 126.747358 259.342841 
L 125.757672 259.961256 
L 124.767985 260.6107 
L 123.778299 261.26052 
L 122.788612 261.879917 
L 121.798925 262.43922 
L 120.809239 262.911091 
L 119.819552 263.27165 
L 118.829866 263.501473 
L 117.840179 263.586442 
L 116.850493 263.518403 
L 115.860806 260.377426 
L 114.871119 260.377027 
L 113.881433 263.33594 
L 112.891746 262.467872 
L 111.90206 261.463582 
L 110.912373 260.36566 
L 109.922687 259.222752 
L 108.933 258.087821 
L 107.943313 257.016156 
L 106.953627 256.063188 
L 105.96394 255.282171 
L 104.974254 254.721781 
L 103.984567 254.423728 
L 102.994881 254.420431 
L 102.005194 254.732853 
L 101.015507 255.368564 
L 100.025821 256.320133 
L 99.036134 257.563901 
L 98.046448 259.05924 
L 97.056761 260.748355 
L 96.067075 262.556695 
L 95.077388 264.39404 
L 94.087701 266.156294 
L 93.098015 267.728023 
L 92.108328 268.985756 
L 91.118642 269.80203 
L 90.128955 270.050162 
L 89.139268 269.609688 
L 88.149582 268.37239 
L 87.159895 266.248795 
L 86.170209 263.174992 
L 85.180522 259.119581 
L 84.190836 254.090526 
L 83.201149 248.141618 
L 82.211462 241.378231 
L 81.221776 233.961985 
L 80.232089 226.113859 
L 79.242403 218.115259 
L 78.252716 210.306453 
L 77.26303 203.08173 
L 76.273343 196.880549 
L 75.283656 192.17387 
L 74.29397 189.444761 
L 73.304283 189.162295 
L 72.314597 191.747639 
L 71.32491 197.531134 
L 70.335224 206.699072 
L 69.345537 219.228731 
L 68.35585 234.810125 
L 67.366164 252.752807 
L 66.376477 271.875897 
z
" clip-path="url(#p8acca6fa98)" style="fill: #1f77b4; fill-opacity: 0.166667"/>
   </g>
   <g id="PolyCollection_2">
    <path d="M 66.376477 253.488702 
L 66.376477 260.378546 
L 66.847178 260.378546 
L 67.317878 260.378546 
L 67.788579 260.378546 
L 68.259279 260.378546 
L 68.72998 260.378546 
L 69.200681 260.378546 
L 69.671381 260.378546 
L 70.142082 260.378546 
L 70.612782 260.378546 
L 71.083483 260.378546 
L 71.554183 260.378546 
L 72.024884 260.378546 
L 72.495584 260.378546 
L 72.966285 260.378546 
L 73.436986 260.378546 
L 73.907686 260.378546 
L 74.378387 260.378546 
L 74.849087 260.378546 
L 75.319788 260.378546 
L 75.790488 260.378546 
L 76.261189 260.378546 
L 76.731889 260.378546 
L 77.20259 260.378546 
L 77.673291 260.378546 
L 78.143991 260.378546 
L 78.614692 260.378546 
L 79.085392 260.378546 
L 79.556093 260.378546 
L 80.026793 260.378546 
L 80.497494 260.378546 
L 80.968194 260.378546 
L 81.438895 260.378546 
L 81.909596 260.378546 
L 82.380296 260.378546 
L 82.850997 260.378546 
L 83.321697 260.378546 
L 83.792398 260.378546 
L 84.263098 260.378546 
L 84.733799 260.378546 
L 85.204499 260.378546 
L 85.6752 260.378546 
L 86.145901 260.378546 
L 86.616601 260.378546 
L 87.087302 260.378546 
L 87.558002 260.378546 
L 88.028703 260.378546 
L 88.499403 260.378546 
L 88.970104 260.378546 
L 89.440804 260.378546 
L 89.911505 260.378546 
L 90.382206 260.378546 
L 90.852906 260.378546 
L 91.323607 260.378546 
L 91.794307 260.378546 
L 92.265008 260.378546 
L 92.735708 260.378546 
L 93.206409 260.378546 
L 93.677109 260.378546 
L 94.14781 260.378546 
L 94.618511 260.378546 
L 95.089211 260.378546 
L 95.559912 260.378546 
L 96.030612 260.378546 
L 96.501313 260.378546 
L 96.972013 260.378546 
L 97.442714 260.378546 
L 97.913414 260.378546 
L 98.384115 260.378546 
L 98.854816 260.378546 
L 99.325516 260.378546 
L 99.796217 260.378546 
L 100.266917 260.378546 
L 100.737618 260.378546 
L 101.208318 260.378546 
L 101.679019 260.378546 
L 102.149719 260.378546 
L 102.62042 260.378546 
L 103.091121 260.378546 
L 103.561821 260.378546 
L 104.032522 260.378546 
L 104.503222 260.378546 
L 104.973923 260.378546 
L 105.444623 260.378546 
L 105.915324 260.378546 
L 106.386024 260.378546 
L 106.856725 260.378546 
L 107.327426 260.378546 
L 107.798126 260.378546 
L 108.268827 260.378546 
L 108.739527 260.378546 
L 109.210228 260.378546 
L 109.680928 260.378546 
L 110.151629 260.378546 
L 110.622329 260.378546 
L 111.09303 260.378546 
L 111.56373 260.378546 
L 112.034431 260.378546 
L 112.505132 260.378546 
L 112.975832 260.378546 
L 112.975832 251.423141 
L 112.975832 251.423141 
L 112.505132 262.450089 
L 112.034431 266.787014 
L 111.56373 267.047348 
L 111.09303 265.120538 
L 110.622329 262.319968 
L 110.151629 259.508401 
L 109.680928 257.203432 
L 109.210228 255.665277 
L 108.739527 254.968998 
L 108.268827 255.06313 
L 107.798126 255.816476 
L 107.327426 257.0547 
L 106.856725 258.588189 
L 106.386024 260.232518 
L 105.915324 261.822716 
L 105.444623 263.22241 
L 104.973923 264.328806 
L 104.503222 265.074354 
L 104.032522 265.425856 
L 103.561821 265.381644 
L 103.091121 264.967424 
L 102.62042 264.23125 
L 102.149719 263.238029 
L 101.679019 262.063923 
L 101.208318 260.790889 
L 100.737618 259.501611 
L 100.266917 258.274956 
L 99.796217 257.182105 
L 99.325516 256.283416 
L 98.854816 255.626072 
L 98.384115 255.24252 
L 97.913414 255.149692 
L 97.442714 255.348954 
L 96.972013 255.826736 
L 96.501313 256.555757 
L 96.030612 257.496773 
L 95.559912 258.600734 
L 95.089211 259.811259 
L 94.618511 261.067324 
L 94.14781 262.306056 
L 93.677109 263.465529 
L 93.206409 264.487473 
L 92.735708 265.319794 
L 92.265008 265.918823 
L 91.794307 266.251237 
L 91.323607 266.295561 
L 90.852906 266.043231 
L 90.382206 265.499161 
L 89.911505 260.376655 
L 89.440804 260.376779 
L 88.970104 262.861706 
L 88.499403 261.521562 
L 88.028703 260.073248 
L 87.558002 258.584846 
L 87.087302 257.129337 
L 86.616601 255.781608 
L 86.145901 254.615237 
L 85.6752 253.699112 
L 85.204499 253.094033 
L 84.733799 252.84938 
L 84.263098 252.999981 
L 83.792398 253.563299 
L 83.321697 254.537064 
L 82.850997 255.897471 
L 82.380296 257.598053 
L 81.909596 259.569361 
L 81.438895 261.719513 
L 80.968194 263.935732 
L 80.497494 266.086903 
L 80.026793 268.027206 
L 79.556093 269.600835 
L 79.085392 270.647767 
L 78.614692 271.010536 
L 78.143991 270.541904 
L 77.673291 269.113269 
L 77.20259 266.623618 
L 76.731889 263.008748 
L 76.261189 258.250429 
L 75.790488 252.385098 
L 75.319788 245.511613 
L 74.849087 237.797476 
L 74.378387 229.482881 
L 73.907686 220.881814 
L 73.436986 212.379328 
L 72.966285 204.424017 
L 72.495584 197.514563 
L 72.024884 192.179116 
L 71.554183 188.946125 
L 71.083483 188.305071 
L 70.612782 190.655422 
L 70.142082 196.241925 
L 69.671381 205.074221 
L 69.200681 216.828522 
L 68.72998 230.728951 
L 68.259279 245.40588 
L 67.788579 258.728447 
L 67.317878 267.608132 
L 66.847178 267.770099 
L 66.376477 253.488702 
z
" clip-path="url(#p8acca6fa98)" style="fill: #ff7f0e; fill-opacity: 0.166667"/>
   </g>
   <g id="PolyCollection_3">
    <path d="M 66.376477 258.187291 
L 66.376477 260.378546 
L 66.611602 260.378546 
L 66.846727 260.378546 
L 67.081852 260.378546 
L 67.316977 260.378546 
L 67.552102 260.378546 
L 67.787226 260.378546 
L 68.022351 260.378546 
L 68.257476 260.378546 
L 68.492601 260.378546 
L 68.727726 260.378546 
L 68.962851 260.378546 
L 69.197976 260.378546 
L 69.433101 260.378546 
L 69.668225 260.378546 
L 69.90335 260.378546 
L 70.138475 260.378546 
L 70.3736 260.378546 
L 70.608725 260.378546 
L 70.84385 260.378546 
L 71.078975 260.378546 
L 71.314099 260.378546 
L 71.549224 260.378546 
L 71.784349 260.378546 
L 72.019474 260.378546 
L 72.254599 260.378546 
L 72.489724 260.378546 
L 72.724849 260.378546 
L 72.959974 260.378546 
L 73.195098 260.378546 
L 73.430223 260.378546 
L 73.665348 260.378546 
L 73.900473 260.378546 
L 74.135598 260.378546 
L 74.370723 260.378546 
L 74.605848 260.378546 
L 74.840973 260.378546 
L 75.076097 260.378546 
L 75.311222 260.378546 
L 75.546347 260.378546 
L 75.781472 260.378546 
L 76.016597 260.378546 
L 76.251722 260.378546 
L 76.486847 260.378546 
L 76.721971 260.378546 
L 76.957096 260.378546 
L 77.192221 260.378546 
L 77.427346 260.378546 
L 77.662471 260.378546 
L 77.897596 260.378546 
L 78.132721 260.378546 
L 78.367846 260.378546 
L 78.60297 260.378546 
L 78.838095 260.378546 
L 79.07322 260.378546 
L 79.308345 260.378546 
L 79.54347 260.378546 
L 79.778595 260.378546 
L 80.01372 260.378546 
L 80.248844 260.378546 
L 80.483969 260.378546 
L 80.719094 260.378546 
L 80.954219 260.378546 
L 81.189344 260.378546 
L 81.424469 260.378546 
L 81.659594 260.378546 
L 81.894719 260.378546 
L 82.129843 260.378546 
L 82.364968 260.378546 
L 82.600093 260.378546 
L 82.835218 260.378546 
L 83.070343 260.378546 
L 83.305468 260.378546 
L 83.540593 260.378546 
L 83.775717 260.378546 
L 84.010842 260.378546 
L 84.245967 260.378546 
L 84.481092 260.378546 
L 84.716217 260.378546 
L 84.951342 260.378546 
L 85.186467 260.378546 
L 85.421592 260.378546 
L 85.656716 260.378546 
L 85.891841 260.378546 
L 86.126966 260.378546 
L 86.362091 260.378546 
L 86.597216 260.378546 
L 86.832341 260.378546 
L 87.067466 260.378546 
L 87.302591 260.378546 
L 87.537715 260.378546 
L 87.77284 260.378546 
L 88.007965 260.378546 
L 88.24309 260.378546 
L 88.478215 260.378546 
L 88.71334 260.378546 
L 88.948465 260.378546 
L 89.183589 260.378546 
L 89.418714 260.378546 
L 89.653839 260.378546 
L 89.653839 263.465017 
L 89.653839 263.465017 
L 89.418714 259.297274 
L 89.183589 257.86625 
L 88.948465 258.024774 
L 88.71334 258.964101 
L 88.478215 260.140763 
L 88.24309 261.215098 
L 88.007965 262.000112 
L 87.77284 262.419411 
L 87.537715 262.473079 
L 87.302591 262.210439 
L 87.067466 261.70876 
L 86.832341 261.057033 
L 86.597216 260.344047 
L 86.362091 259.650052 
L 86.126966 259.041388 
L 85.891841 258.567515 
L 85.656716 258.259951 
L 85.421592 258.132678 
L 85.186467 258.183643 
L 84.951342 258.397022 
L 84.716217 258.745967 
L 84.481092 259.195603 
L 84.245967 259.706077 
L 84.010842 260.235502 
L 83.775717 260.742678 
L 83.540593 261.189482 
L 83.305468 261.542871 
L 83.070343 261.776458 
L 82.835218 261.871627 
L 82.600093 261.818196 
L 82.364968 261.614632 
L 82.129843 261.267857 
L 81.894719 260.792665 
L 81.659594 260.210817 
L 81.424469 259.549851 
L 81.189344 258.841669 
L 80.954219 258.120977 
L 80.719094 257.423611 
L 80.483969 256.784848 
L 80.248844 256.237728 
L 80.01372 255.811471 
L 79.778595 255.530029 
L 79.54347 255.410825 
L 79.308345 255.463724 
L 79.07322 255.690266 
L 78.838095 256.083194 
L 78.60297 256.626298 
L 78.367846 257.294579 
L 78.132721 260.378664 
L 77.897596 260.3781 
L 77.662471 259.948869 
L 77.427346 260.518753 
L 77.192221 260.977376 
L 76.957096 261.27747 
L 76.721971 261.372654 
L 76.486847 261.219189 
L 76.251722 260.77778 
L 76.016597 260.015371 
L 75.781472 258.906876 
L 75.546347 257.436792 
L 75.311222 255.600643 
L 75.076097 253.406181 
L 74.840973 250.874302 
L 74.605848 248.039621 
L 74.370723 244.950641 
L 74.135598 241.669489 
L 73.900473 238.271166 
L 73.665348 234.842289 
L 73.430223 231.479295 
L 73.195098 228.286108 
L 72.959974 225.371274 
L 72.724849 222.844575 
L 72.489724 220.813176 
L 72.254599 219.377357 
L 72.019474 218.625923 
L 71.784349 218.631389 
L 71.549224 219.445087 
L 71.314099 221.092367 
L 71.078975 223.568081 
L 70.84385 226.832603 
L 70.608725 230.80866 
L 70.3736 235.379285 
L 70.138475 240.387275 
L 69.90335 245.636559 
L 69.668225 250.895953 
L 69.433101 255.905817 
L 69.197976 260.388205 
L 68.962851 264.06116 
L 68.727726 266.657861 
L 68.492601 267.951406 
L 68.257476 267.786106 
L 68.022351 266.116218 
L 67.787226 263.053138 
L 67.552102 258.92218 
L 67.316977 254.330129 
L 67.081852 250.244875 
L 66.846727 248.088527 
L 66.611602 249.845514 
L 66.376477 258.187291 
z
" clip-path="url(#p8acca6fa98)" style="fill: #2ca02c; fill-opacity: 0.166667"/>
   </g>
   <g id="PolyCollection_4">
    <path d="M 66.376477 244.460267 
L 66.376477 260.378546 
L 66.693362 260.378546 
L 67.010247 260.378546 
L 67.327132 260.378546 
L 67.644017 260.378546 
L 67.960902 260.378546 
L 68.277786 260.378546 
L 68.594671 260.378546 
L 68.911556 260.378546 
L 69.228441 260.378546 
L 69.545326 260.378546 
L 69.862211 260.378546 
L 70.179095 260.378546 
L 70.49598 260.378546 
L 70.812865 260.378546 
L 71.12975 260.378546 
L 71.446635 260.378546 
L 71.76352 260.378546 
L 72.080405 260.378546 
L 72.397289 260.378546 
L 72.714174 260.378546 
L 73.031059 260.378546 
L 73.347944 260.378546 
L 73.664829 260.378546 
L 73.981714 260.378546 
L 74.298598 260.378546 
L 74.615483 260.378546 
L 74.932368 260.378546 
L 75.249253 260.378546 
L 75.566138 260.378546 
L 75.883023 260.378546 
L 76.199908 260.378546 
L 76.516792 260.378546 
L 76.833677 260.378546 
L 77.150562 260.378546 
L 77.467447 260.378546 
L 77.784332 260.378546 
L 78.101217 260.378546 
L 78.418101 260.378546 
L 78.734986 260.378546 
L 79.051871 260.378546 
L 79.368756 260.378546 
L 79.685641 260.378546 
L 80.002526 260.378546 
L 80.319411 260.378546 
L 80.636295 260.378546 
L 80.95318 260.378546 
L 81.270065 260.378546 
L 81.58695 260.378546 
L 81.903835 260.378546 
L 82.22072 260.378546 
L 82.537605 260.378546 
L 82.854489 260.378546 
L 83.171374 260.378546 
L 83.488259 260.378546 
L 83.805144 260.378546 
L 84.122029 260.378546 
L 84.438914 260.378546 
L 84.755798 260.378546 
L 85.072683 260.378546 
L 85.389568 260.378546 
L 85.706453 260.378546 
L 86.023338 260.378546 
L 86.340223 260.378546 
L 86.657108 260.378546 
L 86.973992 260.378546 
L 87.290877 260.378546 
L 87.607762 260.378546 
L 87.924647 260.378546 
L 88.241532 260.378546 
L 88.558417 260.378546 
L 88.875301 260.378546 
L 89.192186 260.378546 
L 89.509071 260.378546 
L 89.825956 260.378546 
L 90.142841 260.378546 
L 90.459726 260.378546 
L 90.776611 260.378546 
L 91.093495 260.378546 
L 91.41038 260.378546 
L 91.727265 260.378546 
L 92.04415 260.378546 
L 92.361035 260.378546 
L 92.67792 260.378546 
L 92.994805 260.378546 
L 93.311689 260.378546 
L 93.628574 260.378546 
L 93.945459 260.378546 
L 94.262344 260.378546 
L 94.579229 260.378546 
L 94.896114 260.378546 
L 95.212998 260.378546 
L 95.529883 260.378546 
L 95.846768 260.378546 
L 96.163653 260.378546 
L 96.480538 260.378546 
L 96.797423 260.378546 
L 97.114308 260.378546 
L 97.431192 260.378546 
L 97.748077 260.378546 
L 97.748077 265.29133 
L 97.748077 265.29133 
L 97.431192 259.437878 
L 97.114308 256.992496 
L 96.797423 256.685466 
L 96.480538 257.580344 
L 96.163653 259.009912 
L 95.846768 260.521204 
L 95.529883 261.828685 
L 95.212998 262.774714 
L 94.896114 263.296482 
L 94.579229 263.398687 
L 94.262344 263.131249 
L 93.945459 262.571452 
L 93.628574 261.809912 
L 93.311689 260.939864 
L 92.994805 260.049267 
L 92.67792 259.215306 
L 92.361035 258.500887 
L 92.04415 257.952765 
L 91.727265 257.601009 
L 91.41038 257.459492 
L 91.093495 257.527179 
L 90.776611 257.789991 
L 90.459726 258.223044 
L 90.142841 258.793109 
L 89.825956 259.461164 
L 89.509071 260.184897 
L 89.192186 260.921095 
L 88.875301 261.627823 
L 88.558417 262.266349 
L 88.241532 262.802763 
L 87.924647 263.209276 
L 87.607762 263.465169 
L 87.290877 263.557404 
L 86.973992 263.480898 
L 86.657108 263.238469 
L 86.340223 262.84049 
L 86.023338 262.304273 
L 85.706453 261.653213 
L 85.389568 260.915739 
L 85.072683 260.124103 
L 84.755798 259.31306 
L 84.438914 258.518469 
L 84.122029 257.775868 
L 83.805144 257.119065 
L 83.488259 256.578774 
L 83.171374 256.181355 
L 82.854489 255.947669 
L 82.537605 255.892105 
L 82.22072 260.379771 
L 81.903835 260.38 
L 81.58695 256.230968 
L 81.270065 256.972576 
L 80.95318 257.874919 
L 80.636295 258.899035 
L 80.319411 259.997722 
L 80.002526 261.116747 
L 79.685641 262.196352 
L 79.368756 263.173002 
L 79.051871 263.981347 
L 78.734986 264.556362 
L 78.418101 264.835595 
L 78.101217 264.76149 
L 77.784332 264.283708 
L 77.467447 263.361394 
L 77.150562 261.96531 
L 76.833677 260.079785 
L 76.516792 257.704385 
L 76.199908 254.85527 
L 75.883023 251.566131 
L 75.566138 247.888676 
L 75.249253 243.892593 
L 74.932368 239.664931 
L 74.615483 235.308875 
L 74.298598 230.941854 
L 73.981714 226.692989 
L 73.664829 222.69985 
L 73.347944 219.104544 
L 73.031059 216.049158 
L 72.714174 213.670602 
L 72.397289 212.094926 
L 72.080405 211.431211 
L 71.76352 211.765153 
L 71.446635 213.152502 
L 71.12975 215.612545 
L 70.812865 219.121869 
L 70.49598 223.608656 
L 70.179095 228.947836 
L 69.862211 234.95746 
L 69.545326 241.396678 
L 69.228441 247.965816 
L 68.911556 254.309041 
L 68.594671 260.020217 
L 68.277786 264.652582 
L 67.960902 267.732959 
L 67.644017 268.781292 
L 67.327132 267.336365 
L 67.010247 262.988642 
L 66.693362 255.421256 
L 66.376477 244.460267 
z
" clip-path="url(#p8acca6fa98)" style="fill: #d62728; fill-opacity: 0.166667"/>
   </g>
   <g id="PolyCollection_5">
    <path d="M 66.376477 251.670821 
L 66.376477 260.378546 
L 66.955135 260.378546 
L 67.533792 260.378546 
L 68.112449 260.378546 
L 68.691107 260.378546 
L 69.269764 260.378546 
L 69.848422 260.378546 
L 70.427079 260.378546 
L 71.005736 260.378546 
L 71.584394 260.378546 
L 72.163051 260.378546 
L 72.741708 260.378546 
L 73.320366 260.378546 
L 73.899023 260.378546 
L 74.477681 260.378546 
L 75.056338 260.378546 
L 75.634995 260.378546 
L 76.213653 260.378546 
L 76.79231 260.378546 
L 77.370968 260.378546 
L 77.949625 260.378546 
L 78.528282 260.378546 
L 79.10694 260.378546 
L 79.685597 260.378546 
L 80.264254 260.378546 
L 80.842912 260.378546 
L 81.421569 260.378546 
L 82.000227 260.378546 
L 82.578884 260.378546 
L 83.157541 260.378546 
L 83.736199 260.378546 
L 84.314856 260.378546 
L 84.893513 260.378546 
L 85.472171 260.378546 
L 86.050828 260.378546 
L 86.629486 260.378546 
L 87.208143 260.378546 
L 87.7868 260.378546 
L 88.365458 260.378546 
L 88.944115 260.378546 
L 89.522773 260.378546 
L 90.10143 260.378546 
L 90.680087 260.378546 
L 91.258745 260.378546 
L 91.837402 260.378546 
L 92.416059 260.378546 
L 92.994717 260.378546 
L 93.573374 260.378546 
L 94.152032 260.378546 
L 94.730689 260.378546 
L 95.309346 260.378546 
L 95.888004 260.378546 
L 96.466661 260.378546 
L 97.045318 260.378546 
L 97.623976 260.378546 
L 98.202633 260.378546 
L 98.781291 260.378546 
L 99.359948 260.378546 
L 99.938605 260.378546 
L 100.517263 260.378546 
L 101.09592 260.378546 
L 101.674578 260.378546 
L 102.253235 260.378546 
L 102.831892 260.378546 
L 103.41055 260.378546 
L 103.989207 260.378546 
L 104.567864 260.378546 
L 105.146522 260.378546 
L 105.725179 260.378546 
L 106.303837 260.378546 
L 106.882494 260.378546 
L 107.461151 260.378546 
L 108.039809 260.378546 
L 108.618466 260.378546 
L 109.197123 260.378546 
L 109.775781 260.378546 
L 110.354438 260.378546 
L 110.933096 260.378546 
L 111.511753 260.378546 
L 112.09041 260.378546 
L 112.669068 260.378546 
L 113.247725 260.378546 
L 113.826383 260.378546 
L 114.40504 260.378546 
L 114.983697 260.378546 
L 115.562355 260.378546 
L 116.141012 260.378546 
L 116.719669 260.378546 
L 117.298327 260.378546 
L 117.876984 260.378546 
L 118.455642 260.378546 
L 119.034299 260.378546 
L 119.612956 260.378546 
L 120.191614 260.378546 
L 120.770271 260.378546 
L 121.348928 260.378546 
L 121.927586 260.378546 
L 122.506243 260.378546 
L 123.084901 260.378546 
L 123.663558 260.378546 
L 123.663558 252.057974 
L 123.663558 252.057974 
L 123.084901 262.197979 
L 122.506243 266.197497 
L 121.927586 266.455188 
L 121.348928 264.704811 
L 120.770271 262.151204 
L 120.191614 259.585565 
L 119.612956 257.482358 
L 119.034299 256.079952 
L 118.455642 255.44696 
L 117.876984 255.536058 
L 117.298327 256.226938 
L 116.719669 257.359872 
L 116.141012 258.761266 
L 115.562355 260.262401 
L 114.983697 261.712493 
L 114.40504 262.987048 
L 113.826383 263.992395 
L 113.247725 264.667182 
L 112.669068 264.98152 
L 112.09041 264.934373 
L 111.511753 264.549724 
L 110.933096 263.871938 
L 110.354438 262.96072 
L 109.775781 261.885969 
L 109.197123 260.722771 
L 108.618466 259.546754 
L 108.039809 258.429934 
L 107.461151 257.437176 
L 106.882494 256.623338 
L 106.303837 256.031135 
L 105.725179 255.689731 
L 105.146522 255.614048 
L 104.567864 255.804749 
L 103.989207 256.248834 
L 103.41055 256.9208 
L 102.831892 257.784253 
L 102.253235 258.793917 
L 101.674578 259.897915 
L 101.09592 261.040251 
L 100.517263 262.16338 
L 99.938605 263.210778 
L 99.359948 264.129422 
L 98.781291 264.872099 
L 98.202633 265.399459 
L 97.623976 265.681755 
L 97.045318 265.700206 
L 96.466661 265.447944 
L 95.888004 264.930503 
L 95.309346 260.37683 
L 94.730689 260.376922 
L 94.152032 262.53263 
L 93.573374 261.280388 
L 92.994717 259.933867 
L 92.416059 258.557214 
L 91.837402 257.218911 
L 91.258745 255.988948 
L 90.680087 254.935778 
L 90.10143 254.123137 
L 89.522773 253.606846 
L 88.944115 253.431693 
L 88.365458 253.628499 
L 87.7868 254.211512 
L 87.208143 255.176211 
L 86.629486 256.497661 
L 86.050828 258.129519 
L 85.472171 260.00379 
L 84.893513 262.031428 
L 84.314856 264.103863 
L 83.736199 266.095497 
L 83.157541 267.867218 
L 82.578884 269.270933 
L 82.000227 270.155097 
L 81.421569 270.371182 
L 80.842912 269.780979 
L 80.264254 268.264596 
L 79.685597 265.72895 
L 79.10694 262.116488 
L 78.528282 257.413847 
L 77.949625 251.660029 
L 77.370968 244.953668 
L 76.79231 237.458813 
L 76.213653 229.408618 
L 75.634995 221.1062 
L 75.056338 212.921839 
L 74.477681 205.285582 
L 73.899023 198.674187 
L 73.320366 193.591234 
L 72.741708 190.53908 
L 72.163051 189.981194 
L 71.584394 192.293281 
L 71.005736 197.701399 
L 70.427079 206.205167 
L 69.848422 217.483908 
L 69.269764 230.783467 
L 68.691107 244.781173 
L 68.112449 257.42626 
L 67.533792 265.752808 
L 66.955135 265.662077 
L 66.376477 251.670821 
z
" clip-path="url(#p8acca6fa98)" style="fill: #9467bd; fill-opacity: 0.166667"/>
   </g>
   <g id="PolyCollection_6">
    <path d="M 66.376477 34.414125 
L 66.376477 260.378546 
L 69.655816 260.378546 
L 72.935155 260.378546 
L 76.214494 260.378546 
L 79.493833 260.378546 
L 82.773171 260.378546 
L 86.05251 260.378546 
L 89.331849 260.378546 
L 92.611188 260.378546 
L 95.890527 260.378546 
L 99.169866 260.378546 
L 102.449205 260.378546 
L 105.728543 260.378546 
L 109.007882 260.378546 
L 112.287221 260.378546 
L 115.56656 260.378546 
L 118.845899 260.378546 
L 122.125238 260.378546 
L 125.404576 260.378546 
L 128.683915 260.378546 
L 131.963254 260.378546 
L 135.242593 260.378546 
L 138.521932 260.378546 
L 141.801271 260.378546 
L 145.08061 260.378546 
L 148.359948 260.378546 
L 151.639287 260.378546 
L 154.918626 260.378546 
L 158.197965 260.378546 
L 161.477304 260.378546 
L 164.756643 260.378546 
L 168.035981 260.378546 
L 171.31532 260.378546 
L 174.594659 260.378546 
L 177.873998 260.378546 
L 181.153337 260.378546 
L 184.432676 260.378546 
L 187.712014 260.378546 
L 190.991353 260.378546 
L 194.270692 260.378546 
L 197.550031 260.378546 
L 200.82937 260.378546 
L 204.108709 260.378546 
L 207.388048 260.378546 
L 210.667386 260.378546 
L 213.946725 260.378546 
L 217.226064 260.378546 
L 220.505403 260.378546 
L 223.784742 260.378546 
L 227.064081 260.378546 
L 230.343419 260.378546 
L 233.622758 260.378546 
L 236.902097 260.378546 
L 240.181436 260.378546 
L 243.460775 260.378546 
L 246.740114 260.378546 
L 250.019452 260.378546 
L 253.298791 260.378546 
L 256.57813 260.378546 
L 259.857469 260.378546 
L 263.136808 260.378546 
L 266.416147 260.378546 
L 269.695486 260.378546 
L 272.974824 260.378546 
L 276.254163 260.378546 
L 279.533502 260.378546 
L 282.812841 260.378546 
L 286.09218 260.378546 
L 289.371519 260.378546 
L 292.650857 260.378546 
L 295.930196 260.378546 
L 299.209535 260.378546 
L 302.488874 260.378546 
L 305.768213 260.378546 
L 309.047552 260.378546 
L 312.32689 260.378546 
L 315.606229 260.378546 
L 318.885568 260.378546 
L 322.164907 260.378546 
L 325.444246 260.378546 
L 328.723585 260.378546 
L 332.002924 260.378546 
L 335.282262 260.378546 
L 338.561601 260.378546 
L 341.84094 260.378546 
L 345.120279 260.378546 
L 348.399618 260.378546 
L 351.678957 260.378546 
L 354.958295 260.378546 
L 358.237634 260.378546 
L 361.516973 260.378546 
L 364.796312 260.378546 
L 368.075651 260.378546 
L 371.35499 260.378546 
L 374.634329 260.378546 
L 377.913667 260.378546 
L 381.193006 260.378546 
L 384.472345 260.378546 
L 387.751684 260.378546 
L 391.031023 260.378546 
L 391.031023 245.458726 
L 391.031023 245.458726 
L 387.751684 263.978356 
L 384.472345 271.172927 
L 381.193006 271.509104 
L 377.913667 268.201565 
L 374.634329 263.472471 
L 371.35499 258.770814 
L 368.075651 254.956209 
L 364.796312 252.451327 
L 361.516973 251.36679 
L 358.237634 251.602077 
L 354.958295 252.925635 
L 351.678957 255.037121 
L 348.399618 257.614414 
L 345.120279 260.347795 
L 341.84094 262.96342 
L 338.561601 265.238008 
L 335.282262 267.006433 
L 332.002924 268.163737 
L 328.723585 268.662848 
L 325.444246 268.509164 
L 322.164907 267.752975 
L 318.885568 266.480547 
L 315.606229 264.804582 
L 312.32689 262.854607 
L 309.047552 260.767764 
L 305.768213 258.680358 
L 302.488874 256.720427 
L 299.209535 255.001519 
L 295.930196 253.617797 
L 292.650857 252.640506 
L 289.371519 252.115821 
L 286.09218 252.063999 
L 282.812841 252.479768 
L 279.533502 253.333821 
L 276.254163 254.575268 
L 272.974824 256.134889 
L 269.695486 257.929013 
L 266.416147 259.863832 
L 263.136808 261.839974 
L 259.857469 263.757152 
L 256.57813 265.518713 
L 253.298791 267.035936 
L 250.019452 268.23191 
L 246.740114 269.044883 
L 243.460775 269.430963 
L 240.181436 269.366078 
L 236.902097 268.847139 
L 233.622758 267.892359 
L 230.343419 260.375926 
L 227.064081 260.380034 
L 223.784742 256.824544 
L 220.505403 257.551747 
L 217.226064 258.433649 
L 213.946725 259.434204 
L 210.667386 260.510962 
L 207.388048 261.616581 
L 204.108709 262.700571 
L 200.82937 263.711248 
L 197.550031 264.597815 
L 194.270692 265.312535 
L 190.991353 265.81291 
L 187.712014 266.063811 
L 184.432676 266.039465 
L 181.153337 265.725247 
L 177.873998 265.119167 
L 174.594659 264.233008 
L 171.31532 263.093008 
L 168.035981 261.740039 
L 164.756643 260.229206 
L 161.477304 258.628804 
L 158.197965 257.018598 
L 154.918626 255.487388 
L 151.639287 254.129831 
L 148.359948 253.042529 
L 145.08061 252.319397 
L 141.801271 252.046358 
L 138.521932 252.295426 
L 135.242593 253.11828 
L 131.963254 254.539464 
L 128.683915 256.549375 
L 125.404576 259.097242 
L 122.125238 262.084358 
L 118.845899 265.357859 
L 115.56656 268.705387 
L 112.287221 271.851057 
L 109.007882 274.453191 
L 105.728543 276.104326 
L 102.449205 276.334125 
L 99.169866 274.615822 
L 95.890527 270.376982 
L 92.611188 263.015379 
L 89.331849 251.920922 
L 86.05251 236.504631 
L 82.773171 216.23577 
L 79.493833 190.688354 
L 76.214494 159.598335 
L 72.935155 122.932913 
L 69.655816 80.973514 
L 66.376477 34.414125 
z
" clip-path="url(#p8acca6fa98)" style="fill: #8c564b; fill-opacity: 0.166667"/>
   </g>
   <g id="matplotlib.axis_1">
    <g id="xtick_1">
     <g id="line2d_1">
      <defs>
       <path id="md90773157f" d="M 0 0 
L 0 3.5 
" style="stroke: #000000; stroke-width: 0.8"/>
      </defs>
      <g>
       <use xlink:href="#md90773157f" x="66.376477" y="288.430125" style="stroke: #000000; stroke-width: 0.8"/>
      </g>
     </g>
     <g id="text_1">
      <!-- 0.00 -->
      <g transform="translate(55.243665 303.028562) scale(0.1 -0.1)">
       <defs>
        <path id="DejaVuSans-30" d="M 2034 4250 
Q 1547 4250 1301 3770 
Q 1056 3291 1056 2328 
Q 1056 1369 1301 889 
Q 1547 409 2034 409 
Q 2525 409 2770 889 
Q 3016 1369 3016 2328 
Q 3016 3291 2770 3770 
Q 2525 4250 2034 4250 
z
M 2034 4750 
Q 2819 4750 3233 4129 
Q 3647 3509 3647 2328 
Q 3647 1150 3233 529 
Q 2819 -91 2034 -91 
Q 1250 -91 836 529 
Q 422 1150 422 2328 
Q 422 3509 836 4129 
Q 1250 4750 2034 4750 
z
" transform="scale(0.015625)"/>
        <path id="DejaVuSans-2e" d="M 684 794 
L 1344 794 
L 1344 0 
L 684 0 
L 684 794 
z
" transform="scale(0.015625)"/>
       </defs>
       <use xlink:href="#DejaVuSans-30"/>
       <use xlink:href="#DejaVuSans-2e" x="63.623047"/>
       <use xlink:href="#DejaVuSans-30" x="95.410156"/>
       <use xlink:href="#DejaVuSans-30" x="159.033203"/>
      </g>
     </g>
    </g>
    <g id="xtick_2">
     <g id="line2d_2">
      <g>
       <use xlink:href="#md90773157f" x="141.285633" y="288.430125" style="stroke: #000000; stroke-width: 0.8"/>
      </g>
     </g>
     <g id="text_2">
      <!-- 0.01 -->
      <g transform="translate(130.15282 303.028562) scale(0.1 -0.1)">
       <defs>
        <path id="DejaVuSans-31" d="M 794 531 
L 1825 531 
L 1825 4091 
L 703 3866 
L 703 4441 
L 1819 4666 
L 2450 4666 
L 2450 531 
L 3481 531 
L 3481 0 
L 794 0 
L 794 531 
z
" transform="scale(0.015625)"/>
       </defs>
       <use xlink:href="#DejaVuSans-30"/>
       <use xlink:href="#DejaVuSans-2e" x="63.623047"/>
       <use xlink:href="#DejaVuSans-30" x="95.410156"/>
       <use xlink:href="#DejaVuSans-31" x="159.033203"/>
      </g>
     </g>
    </g>
    <g id="xtick_3">
     <g id="line2d_3">
      <g>
       <use xlink:href="#md90773157f" x="216.194788" y="288.430125" style="stroke: #000000; stroke-width: 0.8"/>
      </g>
     </g>
     <g id="text_3">
      <!-- 0.02 -->
      <g transform="translate(205.061975 303.028562) scale(0.1 -0.1)">
       <defs>
        <path id="DejaVuSans-32" d="M 1228 531 
L 3431 531 
L 3431 0 
L 469 0 
L 469 531 
Q 828 903 1448 1529 
Q 2069 2156 2228 2338 
Q 2531 2678 2651 2914 
Q 2772 3150 2772 3378 
Q 2772 3750 2511 3984 
Q 2250 4219 1831 4219 
Q 1534 4219 1204 4116 
Q 875 4013 500 3803 
L 500 4441 
Q 881 4594 1212 4672 
Q 1544 4750 1819 4750 
Q 2544 4750 2975 4387 
Q 3406 4025 3406 3419 
Q 3406 3131 3298 2873 
Q 3191 2616 2906 2266 
Q 2828 2175 2409 1742 
Q 1991 1309 1228 531 
z
" transform="scale(0.015625)"/>
       </defs>
       <use xlink:href="#DejaVuSans-30"/>
       <use xlink:href="#DejaVuSans-2e" x="63.623047"/>
       <use xlink:href="#DejaVuSans-30" x="95.410156"/>
       <use xlink:href="#DejaVuSans-32" x="159.033203"/>
      </g>
     </g>
    </g>
    <g id="xtick_4">
     <g id="line2d_4">
      <g>
       <use xlink:href="#md90773157f" x="291.103943" y="288.430125" style="stroke: #000000; stroke-width: 0.8"/>
      </g>
     </g>
     <g id="text_4">
      <!-- 0.03 -->
      <g transform="translate(279.97113 303.028562) scale(0.1 -0.1)">
       <defs>
        <path id="DejaVuSans-33" d="M 2597 2516 
Q 3050 2419 3304 2112 
Q 3559 1806 3559 1356 
Q 3559 666 3084 287 
Q 2609 -91 1734 -91 
Q 1441 -91 1130 -33 
Q 819 25 488 141 
L 488 750 
Q 750 597 1062 519 
Q 1375 441 1716 441 
Q 2309 441 2620 675 
Q 2931 909 2931 1356 
Q 2931 1769 2642 2001 
Q 2353 2234 1838 2234 
L 1294 2234 
L 1294 2753 
L 1863 2753 
Q 2328 2753 2575 2939 
Q 2822 3125 2822 3475 
Q 2822 3834 2567 4026 
Q 2313 4219 1838 4219 
Q 1578 4219 1281 4162 
Q 984 4106 628 3988 
L 628 4550 
Q 988 4650 1302 4700 
Q 1616 4750 1894 4750 
Q 2613 4750 3031 4423 
Q 3450 4097 3450 3541 
Q 3450 3153 3228 2886 
Q 3006 2619 2597 2516 
z
" transform="scale(0.015625)"/>
       </defs>
       <use xlink:href="#DejaVuSans-30"/>
       <use xlink:href="#DejaVuSans-2e" x="63.623047"/>
       <use xlink:href="#DejaVuSans-30" x="95.410156"/>
       <use xlink:href="#DejaVuSans-33" x="159.033203"/>
      </g>
     </g>
    </g>
    <g id="xtick_5">
     <g id="line2d_5">
      <g>
       <use xlink:href="#md90773157f" x="366.013098" y="288.430125" style="stroke: #000000; stroke-width: 0.8"/>
      </g>
     </g>
     <g id="text_5">
      <!-- 0.04 -->
      <g transform="translate(354.880286 303.028562) scale(0.1 -0.1)">
       <defs>
        <path id="DejaVuSans-34" d="M 2419 4116 
L 825 1625 
L 2419 1625 
L 2419 4116 
z
M 2253 4666 
L 3047 4666 
L 3047 1625 
L 3713 1625 
L 3713 1100 
L 3047 1100 
L 3047 0 
L 2419 0 
L 2419 1100 
L 313 1100 
L 313 1709 
L 2253 4666 
z
" transform="scale(0.015625)"/>
       </defs>
       <use xlink:href="#DejaVuSans-30"/>
       <use xlink:href="#DejaVuSans-2e" x="63.623047"/>
       <use xlink:href="#DejaVuSans-30" x="95.410156"/>
       <use xlink:href="#DejaVuSans-34" x="159.033203"/>
      </g>
     </g>
    </g>
    <g id="text_6">
     <!-- Pixel values -->
     <g transform="translate(199.292031 316.706687) scale(0.1 -0.1)">
      <defs>
       <path id="DejaVuSans-50" d="M 1259 4147 
L 1259 2394 
L 2053 2394 
Q 2494 2394 2734 2622 
Q 2975 2850 2975 3272 
Q 2975 3691 2734 3919 
Q 2494 4147 2053 4147 
L 1259 4147 
z
M 628 4666 
L 2053 4666 
Q 2838 4666 3239 4311 
Q 3641 3956 3641 3272 
Q 3641 2581 3239 2228 
Q 2838 1875 2053 1875 
L 1259 1875 
L 1259 0 
L 628 0 
L 628 4666 
z
" transform="scale(0.015625)"/>
       <path id="DejaVuSans-69" d="M 603 3500 
L 1178 3500 
L 1178 0 
L 603 0 
L 603 3500 
z
M 603 4863 
L 1178 4863 
L 1178 4134 
L 603 4134 
L 603 4863 
z
" transform="scale(0.015625)"/>
       <path id="DejaVuSans-78" d="M 3513 3500 
L 2247 1797 
L 3578 0 
L 2900 0 
L 1881 1375 
L 863 0 
L 184 0 
L 1544 1831 
L 300 3500 
L 978 3500 
L 1906 2253 
L 2834 3500 
L 3513 3500 
z
" transform="scale(0.015625)"/>
       <path id="DejaVuSans-65" d="M 3597 1894 
L 3597 1613 
L 953 1613 
Q 991 1019 1311 708 
Q 1631 397 2203 397 
Q 2534 397 2845 478 
Q 3156 559 3463 722 
L 3463 178 
Q 3153 47 2828 -22 
Q 2503 -91 2169 -91 
Q 1331 -91 842 396 
Q 353 884 353 1716 
Q 353 2575 817 3079 
Q 1281 3584 2069 3584 
Q 2775 3584 3186 3129 
Q 3597 2675 3597 1894 
z
M 3022 2063 
Q 3016 2534 2758 2815 
Q 2500 3097 2075 3097 
Q 1594 3097 1305 2825 
Q 1016 2553 972 2059 
L 3022 2063 
z
" transform="scale(0.015625)"/>
       <path id="DejaVuSans-6c" d="M 603 4863 
L 1178 4863 
L 1178 0 
L 603 0 
L 603 4863 
z
" transform="scale(0.015625)"/>
       <path id="DejaVuSans-20" transform="scale(0.015625)"/>
       <path id="DejaVuSans-76" d="M 191 3500 
L 800 3500 
L 1894 563 
L 2988 3500 
L 3597 3500 
L 2284 0 
L 1503 0 
L 191 3500 
z
" transform="scale(0.015625)"/>
       <path id="DejaVuSans-61" d="M 2194 1759 
Q 1497 1759 1228 1600 
Q 959 1441 959 1056 
Q 959 750 1161 570 
Q 1363 391 1709 391 
Q 2188 391 2477 730 
Q 2766 1069 2766 1631 
L 2766 1759 
L 2194 1759 
z
M 3341 1997 
L 3341 0 
L 2766 0 
L 2766 531 
Q 2569 213 2275 61 
Q 1981 -91 1556 -91 
Q 1019 -91 701 211 
Q 384 513 384 1019 
Q 384 1609 779 1909 
Q 1175 2209 1959 2209 
L 2766 2209 
L 2766 2266 
Q 2766 2663 2505 2880 
Q 2244 3097 1772 3097 
Q 1472 3097 1187 3025 
Q 903 2953 641 2809 
L 641 3341 
Q 956 3463 1253 3523 
Q 1550 3584 1831 3584 
Q 2591 3584 2966 3190 
Q 3341 2797 3341 1997 
z
" transform="scale(0.015625)"/>
       <path id="DejaVuSans-75" d="M 544 1381 
L 544 3500 
L 1119 3500 
L 1119 1403 
Q 1119 906 1312 657 
Q 1506 409 1894 409 
Q 2359 409 2629 706 
Q 2900 1003 2900 1516 
L 2900 3500 
L 3475 3500 
L 3475 0 
L 2900 0 
L 2900 538 
Q 2691 219 2414 64 
Q 2138 -91 1772 -91 
Q 1169 -91 856 284 
Q 544 659 544 1381 
z
M 1991 3584 
L 1991 3584 
z
" transform="scale(0.015625)"/>
       <path id="DejaVuSans-73" d="M 2834 3397 
L 2834 2853 
Q 2591 2978 2328 3040 
Q 2066 3103 1784 3103 
Q 1356 3103 1142 2972 
Q 928 2841 928 2578 
Q 928 2378 1081 2264 
Q 1234 2150 1697 2047 
L 1894 2003 
Q 2506 1872 2764 1633 
Q 3022 1394 3022 966 
Q 3022 478 2636 193 
Q 2250 -91 1575 -91 
Q 1294 -91 989 -36 
Q 684 19 347 128 
L 347 722 
Q 666 556 975 473 
Q 1284 391 1588 391 
Q 1994 391 2212 530 
Q 2431 669 2431 922 
Q 2431 1156 2273 1281 
Q 2116 1406 1581 1522 
L 1381 1569 
Q 847 1681 609 1914 
Q 372 2147 372 2553 
Q 372 3047 722 3315 
Q 1072 3584 1716 3584 
Q 2034 3584 2315 3537 
Q 2597 3491 2834 3397 
z
" transform="scale(0.015625)"/>
      </defs>
      <use xlink:href="#DejaVuSans-50"/>
      <use xlink:href="#DejaVuSans-69" x="58.052734"/>
      <use xlink:href="#DejaVuSans-78" x="85.835938"/>
      <use xlink:href="#DejaVuSans-65" x="141.890625"/>
      <use xlink:href="#DejaVuSans-6c" x="203.414062"/>
      <use xlink:href="#DejaVuSans-20" x="231.197266"/>
      <use xlink:href="#DejaVuSans-76" x="262.984375"/>
      <use xlink:href="#DejaVuSans-61" x="322.164062"/>
      <use xlink:href="#DejaVuSans-6c" x="383.443359"/>
      <use xlink:href="#DejaVuSans-75" x="411.226562"/>
      <use xlink:href="#DejaVuSans-65" x="474.605469"/>
      <use xlink:href="#DejaVuSans-73" x="536.128906"/>
     </g>
    </g>
   </g>
   <g id="matplotlib.axis_2">
    <g id="ytick_1">
     <g id="line2d_6">
      <defs>
       <path id="m7c457e332b" d="M 0 0 
L -3.5 0 
" style="stroke: #000000; stroke-width: 0.8"/>
      </defs>
      <g>
       <use xlink:href="#m7c457e332b" x="50.14375" y="260.378546" style="stroke: #000000; stroke-width: 0.8"/>
      </g>
     </g>
     <g id="text_7">
      <!-- 0.00 -->
      <g transform="translate(20.878125 264.177765) scale(0.1 -0.1)">
       <use xlink:href="#DejaVuSans-30"/>
       <use xlink:href="#DejaVuSans-2e" x="63.623047"/>
       <use xlink:href="#DejaVuSans-30" x="95.410156"/>
       <use xlink:href="#DejaVuSans-30" x="159.033203"/>
      </g>
     </g>
    </g>
    <g id="ytick_2">
     <g id="line2d_7">
      <g>
       <use xlink:href="#m7c457e332b" x="50.14375" y="223.933857" style="stroke: #000000; stroke-width: 0.8"/>
      </g>
     </g>
     <g id="text_8">
      <!-- 0.05 -->
      <g transform="translate(20.878125 227.733076) scale(0.1 -0.1)">
       <defs>
        <path id="DejaVuSans-35" d="M 691 4666 
L 3169 4666 
L 3169 4134 
L 1269 4134 
L 1269 2991 
Q 1406 3038 1543 3061 
Q 1681 3084 1819 3084 
Q 2600 3084 3056 2656 
Q 3513 2228 3513 1497 
Q 3513 744 3044 326 
Q 2575 -91 1722 -91 
Q 1428 -91 1123 -41 
Q 819 9 494 109 
L 494 744 
Q 775 591 1075 516 
Q 1375 441 1709 441 
Q 2250 441 2565 725 
Q 2881 1009 2881 1497 
Q 2881 1984 2565 2268 
Q 2250 2553 1709 2553 
Q 1456 2553 1204 2497 
Q 953 2441 691 2322 
L 691 4666 
z
" transform="scale(0.015625)"/>
       </defs>
       <use xlink:href="#DejaVuSans-30"/>
       <use xlink:href="#DejaVuSans-2e" x="63.623047"/>
       <use xlink:href="#DejaVuSans-30" x="95.410156"/>
       <use xlink:href="#DejaVuSans-35" x="159.033203"/>
      </g>
     </g>
    </g>
    <g id="ytick_3">
     <g id="line2d_8">
      <g>
       <use xlink:href="#m7c457e332b" x="50.14375" y="187.489168" style="stroke: #000000; stroke-width: 0.8"/>
      </g>
     </g>
     <g id="text_9">
      <!-- 0.10 -->
      <g transform="translate(20.878125 191.288387) scale(0.1 -0.1)">
       <use xlink:href="#DejaVuSans-30"/>
       <use xlink:href="#DejaVuSans-2e" x="63.623047"/>
       <use xlink:href="#DejaVuSans-31" x="95.410156"/>
       <use xlink:href="#DejaVuSans-30" x="159.033203"/>
      </g>
     </g>
    </g>
    <g id="ytick_4">
     <g id="line2d_9">
      <g>
       <use xlink:href="#m7c457e332b" x="50.14375" y="151.04448" style="stroke: #000000; stroke-width: 0.8"/>
      </g>
     </g>
     <g id="text_10">
      <!-- 0.15 -->
      <g transform="translate(20.878125 154.843698) scale(0.1 -0.1)">
       <use xlink:href="#DejaVuSans-30"/>
       <use xlink:href="#DejaVuSans-2e" x="63.623047"/>
       <use xlink:href="#DejaVuSans-31" x="95.410156"/>
       <use xlink:href="#DejaVuSans-35" x="159.033203"/>
      </g>
     </g>
    </g>
    <g id="ytick_5">
     <g id="line2d_10">
      <g>
       <use xlink:href="#m7c457e332b" x="50.14375" y="114.599791" style="stroke: #000000; stroke-width: 0.8"/>
      </g>
     </g>
     <g id="text_11">
      <!-- 0.20 -->
      <g transform="translate(20.878125 118.39901) scale(0.1 -0.1)">
       <use xlink:href="#DejaVuSans-30"/>
       <use xlink:href="#DejaVuSans-2e" x="63.623047"/>
       <use xlink:href="#DejaVuSans-32" x="95.410156"/>
       <use xlink:href="#DejaVuSans-30" x="159.033203"/>
      </g>
     </g>
    </g>
    <g id="ytick_6">
     <g id="line2d_11">
      <g>
       <use xlink:href="#m7c457e332b" x="50.14375" y="78.155102" style="stroke: #000000; stroke-width: 0.8"/>
      </g>
     </g>
     <g id="text_12">
      <!-- 0.25 -->
      <g transform="translate(20.878125 81.954321) scale(0.1 -0.1)">
       <use xlink:href="#DejaVuSans-30"/>
       <use xlink:href="#DejaVuSans-2e" x="63.623047"/>
       <use xlink:href="#DejaVuSans-32" x="95.410156"/>
       <use xlink:href="#DejaVuSans-35" x="159.033203"/>
      </g>
     </g>
    </g>
    <g id="ytick_7">
     <g id="line2d_12">
      <g>
       <use xlink:href="#m7c457e332b" x="50.14375" y="41.710413" style="stroke: #000000; stroke-width: 0.8"/>
      </g>
     </g>
     <g id="text_13">
      <!-- 0.30 -->
      <g transform="translate(20.878125 45.509632) scale(0.1 -0.1)">
       <use xlink:href="#DejaVuSans-30"/>
       <use xlink:href="#DejaVuSans-2e" x="63.623047"/>
       <use xlink:href="#DejaVuSans-33" x="95.410156"/>
       <use xlink:href="#DejaVuSans-30" x="159.033203"/>
      </g>
     </g>
    </g>
    <g id="text_14">
     <!-- Frequency -->
     <g transform="translate(14.798438 181.203812) rotate(-90) scale(0.1 -0.1)">
      <defs>
       <path id="DejaVuSans-46" d="M 628 4666 
L 3309 4666 
L 3309 4134 
L 1259 4134 
L 1259 2759 
L 3109 2759 
L 3109 2228 
L 1259 2228 
L 1259 0 
L 628 0 
L 628 4666 
z
" transform="scale(0.015625)"/>
       <path id="DejaVuSans-72" d="M 2631 2963 
Q 2534 3019 2420 3045 
Q 2306 3072 2169 3072 
Q 1681 3072 1420 2755 
Q 1159 2438 1159 1844 
L 1159 0 
L 581 0 
L 581 3500 
L 1159 3500 
L 1159 2956 
Q 1341 3275 1631 3429 
Q 1922 3584 2338 3584 
Q 2397 3584 2469 3576 
Q 2541 3569 2628 3553 
L 2631 2963 
z
" transform="scale(0.015625)"/>
       <path id="DejaVuSans-71" d="M 947 1747 
Q 947 1113 1208 752 
Q 1469 391 1925 391 
Q 2381 391 2643 752 
Q 2906 1113 2906 1747 
Q 2906 2381 2643 2742 
Q 2381 3103 1925 3103 
Q 1469 3103 1208 2742 
Q 947 2381 947 1747 
z
M 2906 525 
Q 2725 213 2448 61 
Q 2172 -91 1784 -91 
Q 1150 -91 751 415 
Q 353 922 353 1747 
Q 353 2572 751 3078 
Q 1150 3584 1784 3584 
Q 2172 3584 2448 3432 
Q 2725 3281 2906 2969 
L 2906 3500 
L 3481 3500 
L 3481 -1331 
L 2906 -1331 
L 2906 525 
z
" transform="scale(0.015625)"/>
       <path id="DejaVuSans-6e" d="M 3513 2113 
L 3513 0 
L 2938 0 
L 2938 2094 
Q 2938 2591 2744 2837 
Q 2550 3084 2163 3084 
Q 1697 3084 1428 2787 
Q 1159 2491 1159 1978 
L 1159 0 
L 581 0 
L 581 3500 
L 1159 3500 
L 1159 2956 
Q 1366 3272 1645 3428 
Q 1925 3584 2291 3584 
Q 2894 3584 3203 3211 
Q 3513 2838 3513 2113 
z
" transform="scale(0.015625)"/>
       <path id="DejaVuSans-63" d="M 3122 3366 
L 3122 2828 
Q 2878 2963 2633 3030 
Q 2388 3097 2138 3097 
Q 1578 3097 1268 2742 
Q 959 2388 959 1747 
Q 959 1106 1268 751 
Q 1578 397 2138 397 
Q 2388 397 2633 464 
Q 2878 531 3122 666 
L 3122 134 
Q 2881 22 2623 -34 
Q 2366 -91 2075 -91 
Q 1284 -91 818 406 
Q 353 903 353 1747 
Q 353 2603 823 3093 
Q 1294 3584 2113 3584 
Q 2378 3584 2631 3529 
Q 2884 3475 3122 3366 
z
" transform="scale(0.015625)"/>
       <path id="DejaVuSans-79" d="M 2059 -325 
Q 1816 -950 1584 -1140 
Q 1353 -1331 966 -1331 
L 506 -1331 
L 506 -850 
L 844 -850 
Q 1081 -850 1212 -737 
Q 1344 -625 1503 -206 
L 1606 56 
L 191 3500 
L 800 3500 
L 1894 763 
L 2988 3500 
L 3597 3500 
L 2059 -325 
z
" transform="scale(0.015625)"/>
      </defs>
      <use xlink:href="#DejaVuSans-46"/>
      <use xlink:href="#DejaVuSans-72" x="50.269531"/>
      <use xlink:href="#DejaVuSans-65" x="89.132812"/>
      <use xlink:href="#DejaVuSans-71" x="150.65625"/>
      <use xlink:href="#DejaVuSans-75" x="214.132812"/>
      <use xlink:href="#DejaVuSans-65" x="277.511719"/>
      <use xlink:href="#DejaVuSans-6e" x="339.035156"/>
      <use xlink:href="#DejaVuSans-63" x="402.414062"/>
      <use xlink:href="#DejaVuSans-79" x="457.394531"/>
     </g>
    </g>
   </g>
   <g id="line2d_13">
    <path d="M 66.376477 271.875897 
L 67.366164 252.752807 
L 68.35585 234.810125 
L 69.345537 219.228731 
L 70.335224 206.699072 
L 71.32491 197.531134 
L 72.314597 191.747639 
L 73.304283 189.162295 
L 74.29397 189.444761 
L 75.283656 192.17387 
L 76.273343 196.880549 
L 77.26303 203.08173 
L 78.252716 210.306453 
L 79.242403 218.115259 
L 80.232089 226.113859 
L 81.221776 233.961985 
L 82.211462 241.378231 
L 83.201149 248.141618 
L 84.190836 254.090526 
L 85.180522 259.119581 
L 86.170209 263.174992 
L 87.159895 266.248795 
L 88.149582 268.37239 
L 89.139268 269.609688 
L 90.128955 270.050162 
L 91.118642 269.80203 
L 92.108328 268.985756 
L 93.098015 267.728023 
L 94.087701 266.156294 
L 95.077388 264.39404 
L 96.067075 262.556695 
L 97.056761 260.748355 
L 98.046448 259.05924 
L 99.036134 257.563901 
L 100.025821 256.320133 
L 101.015507 255.368564 
L 102.005194 254.732853 
L 102.994881 254.420431 
L 103.984567 254.423728 
L 104.974254 254.721781 
L 105.96394 255.282171 
L 106.953627 256.063188 
L 107.943313 257.016156 
L 108.933 258.087821 
L 109.922687 259.222752 
L 110.912373 260.36566 
L 111.90206 261.463582 
L 112.891746 262.467872 
L 113.881433 263.33594 
L 114.871119 260.377027 
L 115.860806 260.377426 
L 116.850493 263.518403 
L 117.840179 263.586442 
L 118.829866 263.501473 
L 119.819552 263.27165 
L 120.809239 262.911091 
L 121.798925 262.43922 
L 122.788612 261.879917 
L 123.778299 261.26052 
L 124.767985 260.6107 
L 125.757672 259.961256 
L 126.747358 259.342841 
L 127.737045 258.784695 
L 128.726731 258.313395 
L 129.716418 257.95168 
L 130.706105 257.717389 
L 131.695791 257.622561 
L 132.685478 257.672723 
L 133.675164 257.866415 
L 134.664851 258.194979 
L 135.654538 258.642644 
L 136.644224 259.186924 
L 137.633911 259.79934 
L 138.623597 260.446484 
L 139.613284 261.091395 
L 140.60297 261.695252 
L 141.592657 262.219336 
L 142.582344 262.627217 
L 143.57203 262.887096 
L 144.561717 262.974229 
L 145.551403 262.873308 
L 146.54109 262.580689 
L 147.530776 262.106294 
L 148.520463 261.475022 
L 149.51015 260.727446 
L 150.499836 259.919553 
L 151.489523 259.121264 
L 152.479209 258.4134 
L 153.468896 257.882756 
L 154.458582 257.614885 
L 155.448269 257.684155 
L 156.437956 258.140592 
L 157.427642 258.992977 
L 158.417329 260.187615 
L 159.407015 261.582119 
L 160.396702 262.913534 
L 161.386388 263.760022 
L 162.376075 263.495283 
L 163.365762 261.234836 
L 164.355448 255.773177 
" clip-path="url(#p8acca6fa98)" style="fill: none; stroke: #1f77b4; stroke-width: 1.5; stroke-linecap: square"/>
   </g>
   <g id="line2d_14">
    <path d="M 66.376477 253.488702 
L 66.847178 267.770099 
L 67.317878 267.608132 
L 67.788579 258.728447 
L 68.259279 245.40588 
L 68.72998 230.728951 
L 69.200681 216.828522 
L 69.671381 205.074221 
L 70.142082 196.241925 
L 70.612782 190.655422 
L 71.083483 188.305071 
L 71.554183 188.946125 
L 72.024884 192.179116 
L 72.495584 197.514563 
L 72.966285 204.424017 
L 73.436986 212.379328 
L 73.907686 220.881814 
L 74.378387 229.482881 
L 74.849087 237.797476 
L 75.319788 245.511613 
L 75.790488 252.385098 
L 76.261189 258.250429 
L 76.731889 263.008748 
L 77.20259 266.623618 
L 77.673291 269.113269 
L 78.143991 270.541904 
L 78.614692 271.010536 
L 79.085392 270.647767 
L 79.556093 269.600835 
L 80.026793 268.027206 
L 80.497494 266.086903 
L 80.968194 263.935732 
L 81.438895 261.719513 
L 81.909596 259.569361 
L 82.380296 257.598053 
L 82.850997 255.897471 
L 83.321697 254.537064 
L 83.792398 253.563299 
L 84.263098 252.999981 
L 84.733799 252.84938 
L 85.204499 253.094033 
L 85.6752 253.699112 
L 86.145901 254.615237 
L 86.616601 255.781608 
L 87.087302 257.129337 
L 87.558002 258.584846 
L 88.028703 260.073248 
L 88.499403 261.521562 
L 88.970104 262.861706 
L 89.440804 260.376779 
L 89.911505 260.376655 
L 90.382206 265.499161 
L 90.852906 266.043231 
L 91.323607 266.295561 
L 91.794307 266.251237 
L 92.265008 265.918823 
L 92.735708 265.319794 
L 93.206409 264.487473 
L 93.677109 263.465529 
L 94.14781 262.306056 
L 94.618511 261.067324 
L 95.089211 259.811259 
L 95.559912 258.600734 
L 96.030612 257.496773 
L 96.501313 256.555757 
L 96.972013 255.826736 
L 97.442714 255.348954 
L 97.913414 255.149692 
L 98.384115 255.24252 
L 98.854816 255.626072 
L 99.325516 256.283416 
L 99.796217 257.182105 
L 100.266917 258.274956 
L 100.737618 259.501611 
L 101.208318 260.790889 
L 101.679019 262.063923 
L 102.149719 263.238029 
L 102.62042 264.23125 
L 103.091121 264.967424 
L 103.561821 265.381644 
L 104.032522 265.425856 
L 104.503222 265.074354 
L 104.973923 264.328806 
L 105.444623 263.22241 
L 105.915324 261.822716 
L 106.386024 260.232518 
L 106.856725 258.588189 
L 107.327426 257.0547 
L 107.798126 255.816476 
L 108.268827 255.06313 
L 108.739527 254.968998 
L 109.210228 255.665277 
L 109.680928 257.203432 
L 110.151629 259.508401 
L 110.622329 262.319968 
L 111.09303 265.120538 
L 111.56373 267.047348 
L 112.034431 266.787014 
L 112.505132 262.450089 
L 112.975832 251.423141 
" clip-path="url(#p8acca6fa98)" style="fill: none; stroke: #ff7f0e; stroke-width: 1.5; stroke-linecap: square"/>
   </g>
   <g id="line2d_15">
    <path d="M 66.376477 258.187291 
L 66.611602 249.845514 
L 66.846727 248.088527 
L 67.081852 250.244875 
L 67.316977 254.330129 
L 67.552102 258.92218 
L 67.787226 263.053138 
L 68.022351 266.116218 
L 68.257476 267.786106 
L 68.492601 267.951406 
L 68.727726 266.657861 
L 68.962851 264.06116 
L 69.197976 260.388205 
L 69.433101 255.905817 
L 69.668225 250.895953 
L 69.90335 245.636559 
L 70.138475 240.387275 
L 70.3736 235.379285 
L 70.608725 230.80866 
L 70.84385 226.832603 
L 71.078975 223.568081 
L 71.314099 221.092367 
L 71.549224 219.445087 
L 71.784349 218.631389 
L 72.019474 218.625923 
L 72.254599 219.377357 
L 72.489724 220.813176 
L 72.724849 222.844575 
L 72.959974 225.371274 
L 73.195098 228.286108 
L 73.430223 231.479295 
L 73.665348 234.842289 
L 73.900473 238.271166 
L 74.135598 241.669489 
L 74.370723 244.950641 
L 74.605848 248.039621 
L 74.840973 250.874302 
L 75.076097 253.406181 
L 75.311222 255.600643 
L 75.546347 257.436792 
L 75.781472 258.906876 
L 76.016597 260.015371 
L 76.251722 260.77778 
L 76.486847 261.219189 
L 76.721971 261.372654 
L 76.957096 261.27747 
L 77.192221 260.977376 
L 77.427346 260.518753 
L 77.662471 259.948869 
L 77.897596 260.3781 
L 78.132721 260.378664 
L 78.367846 257.294579 
L 78.60297 256.626298 
L 78.838095 256.083194 
L 79.07322 255.690266 
L 79.308345 255.463724 
L 79.54347 255.410825 
L 79.778595 255.530029 
L 80.01372 255.811471 
L 80.248844 256.237728 
L 80.483969 256.784848 
L 80.719094 257.423611 
L 80.954219 258.120977 
L 81.189344 258.841669 
L 81.424469 259.549851 
L 81.659594 260.210817 
L 81.894719 260.792665 
L 82.129843 261.267857 
L 82.364968 261.614632 
L 82.600093 261.818196 
L 82.835218 261.871627 
L 83.070343 261.776458 
L 83.305468 261.542871 
L 83.540593 261.189482 
L 83.775717 260.742678 
L 84.010842 260.235502 
L 84.245967 259.706077 
L 84.481092 259.195603 
L 84.716217 258.745967 
L 84.951342 258.397022 
L 85.186467 258.183643 
L 85.421592 258.132678 
L 85.656716 258.259951 
L 85.891841 258.567515 
L 86.126966 259.041388 
L 86.362091 259.650052 
L 86.597216 260.344047 
L 86.832341 261.057033 
L 87.067466 261.70876 
L 87.302591 262.210439 
L 87.537715 262.473079 
L 87.77284 262.419411 
L 88.007965 262.000112 
L 88.24309 261.215098 
L 88.478215 260.140763 
L 88.71334 258.964101 
L 88.948465 258.024774 
L 89.183589 257.86625 
L 89.418714 259.297274 
L 89.653839 263.465017 
" clip-path="url(#p8acca6fa98)" style="fill: none; stroke: #2ca02c; stroke-width: 1.5; stroke-linecap: square"/>
   </g>
   <g id="line2d_16">
    <path d="M 66.376477 244.460267 
L 66.693362 255.421256 
L 67.010247 262.988642 
L 67.327132 267.336365 
L 67.644017 268.781292 
L 67.960902 267.732959 
L 68.277786 264.652582 
L 68.594671 260.020217 
L 68.911556 254.309041 
L 69.228441 247.965816 
L 69.545326 241.396678 
L 69.862211 234.95746 
L 70.179095 228.947836 
L 70.49598 223.608656 
L 70.812865 219.121869 
L 71.12975 215.612545 
L 71.446635 213.152502 
L 71.76352 211.765153 
L 72.080405 211.431211 
L 72.397289 212.094926 
L 72.714174 213.670602 
L 73.031059 216.049158 
L 73.347944 219.104544 
L 73.664829 222.69985 
L 73.981714 226.692989 
L 74.298598 230.941854 
L 74.615483 235.308875 
L 74.932368 239.664931 
L 75.249253 243.892593 
L 75.566138 247.888676 
L 75.883023 251.566131 
L 76.199908 254.85527 
L 76.516792 257.704385 
L 76.833677 260.079785 
L 77.150562 261.96531 
L 77.467447 263.361394 
L 77.784332 264.283708 
L 78.101217 264.76149 
L 78.418101 264.835595 
L 78.734986 264.556362 
L 79.051871 263.981347 
L 79.368756 263.173002 
L 79.685641 262.196352 
L 80.002526 261.116747 
L 80.319411 259.997722 
L 80.636295 258.899035 
L 80.95318 257.874919 
L 81.270065 256.972576 
L 81.58695 256.230968 
L 81.903835 260.38 
L 82.22072 260.379771 
L 82.537605 255.892105 
L 82.854489 255.947669 
L 83.171374 256.181355 
L 83.488259 256.578774 
L 83.805144 257.119065 
L 84.122029 257.775868 
L 84.438914 258.518469 
L 84.755798 259.31306 
L 85.072683 260.124103 
L 85.389568 260.915739 
L 85.706453 261.653213 
L 86.023338 262.304273 
L 86.340223 262.84049 
L 86.657108 263.238469 
L 86.973992 263.480898 
L 87.290877 263.557404 
L 87.607762 263.465169 
L 87.924647 263.209276 
L 88.241532 262.802763 
L 88.558417 262.266349 
L 88.875301 261.627823 
L 89.192186 260.921095 
L 89.509071 260.184897 
L 89.825956 259.461164 
L 90.142841 258.793109 
L 90.459726 258.223044 
L 90.776611 257.789991 
L 91.093495 257.527179 
L 91.41038 257.459492 
L 91.727265 257.601009 
L 92.04415 257.952765 
L 92.361035 258.500887 
L 92.67792 259.215306 
L 92.994805 260.049267 
L 93.311689 260.939864 
L 93.628574 261.809912 
L 93.945459 262.571452 
L 94.262344 263.131249 
L 94.579229 263.398687 
L 94.896114 263.296482 
L 95.212998 262.774714 
L 95.529883 261.828685 
L 95.846768 260.521204 
L 96.163653 259.009912 
L 96.480538 257.580344 
L 96.797423 256.685466 
L 97.114308 256.992496 
L 97.431192 259.437878 
L 97.748077 265.29133 
" clip-path="url(#p8acca6fa98)" style="fill: none; stroke: #d62728; stroke-width: 1.5; stroke-linecap: square"/>
   </g>
   <g id="line2d_17">
    <path d="M 66.376477 251.670821 
L 66.955135 265.662077 
L 67.533792 265.752808 
L 68.112449 257.42626 
L 68.691107 244.781173 
L 69.269764 230.783467 
L 69.848422 217.483908 
L 70.427079 206.205167 
L 71.005736 197.701399 
L 71.584394 192.293281 
L 72.163051 189.981194 
L 72.741708 190.53908 
L 73.320366 193.591234 
L 73.899023 198.674187 
L 74.477681 205.285582 
L 75.056338 212.921839 
L 75.634995 221.1062 
L 76.213653 229.408618 
L 76.79231 237.458813 
L 77.370968 244.953668 
L 77.949625 251.660029 
L 78.528282 257.413847 
L 79.10694 262.116488 
L 79.685597 265.72895 
L 80.264254 268.264596 
L 80.842912 269.780979 
L 81.421569 270.371182 
L 82.000227 270.155097 
L 82.578884 269.270933 
L 83.157541 267.867218 
L 83.736199 266.095497 
L 84.314856 264.103863 
L 84.893513 262.031428 
L 85.472171 260.00379 
L 86.050828 258.129519 
L 86.629486 256.497661 
L 87.208143 255.176211 
L 87.7868 254.211512 
L 88.365458 253.628499 
L 88.944115 253.431693 
L 89.522773 253.606846 
L 90.10143 254.123137 
L 90.680087 254.935778 
L 91.258745 255.988948 
L 91.837402 257.218911 
L 92.416059 258.557214 
L 92.994717 259.933867 
L 93.573374 261.280388 
L 94.152032 262.53263 
L 94.730689 260.376922 
L 95.309346 260.37683 
L 95.888004 264.930503 
L 96.466661 265.447944 
L 97.045318 265.700206 
L 97.623976 265.681755 
L 98.202633 265.399459 
L 98.781291 264.872099 
L 99.359948 264.129422 
L 99.938605 263.210778 
L 100.517263 262.16338 
L 101.09592 261.040251 
L 101.674578 259.897915 
L 102.253235 258.793917 
L 102.831892 257.784253 
L 103.41055 256.9208 
L 103.989207 256.248834 
L 104.567864 255.804749 
L 105.146522 255.614048 
L 105.725179 255.689731 
L 106.303837 256.031135 
L 106.882494 256.623338 
L 107.461151 257.437176 
L 108.039809 258.429934 
L 108.618466 259.546754 
L 109.197123 260.722771 
L 109.775781 261.885969 
L 110.354438 262.96072 
L 110.933096 263.871938 
L 111.511753 264.549724 
L 112.09041 264.934373 
L 112.669068 264.98152 
L 113.247725 264.667182 
L 113.826383 263.992395 
L 114.40504 262.987048 
L 114.983697 261.712493 
L 115.562355 260.262401 
L 116.141012 258.761266 
L 116.719669 257.359872 
L 117.298327 256.226938 
L 117.876984 255.536058 
L 118.455642 255.44696 
L 119.034299 256.079952 
L 119.612956 257.482358 
L 120.191614 259.585565 
L 120.770271 262.151204 
L 121.348928 264.704811 
L 121.927586 266.455188 
L 122.506243 266.197497 
L 123.084901 262.197979 
L 123.663558 252.057974 
" clip-path="url(#p8acca6fa98)" style="fill: none; stroke: #9467bd; stroke-width: 1.5; stroke-linecap: square"/>
   </g>
   <g id="line2d_18">
    <path d="M 66.376477 34.414125 
L 69.655816 80.973514 
L 72.935155 122.932913 
L 76.214494 159.598335 
L 79.493833 190.688354 
L 82.773171 216.23577 
L 86.05251 236.504631 
L 89.331849 251.920922 
L 92.611188 263.015379 
L 95.890527 270.376982 
L 99.169866 274.615822 
L 102.449205 276.334125 
L 105.728543 276.104326 
L 109.007882 274.453191 
L 112.287221 271.851057 
L 115.56656 268.705387 
L 118.845899 265.357859 
L 122.125238 262.084358 
L 125.404576 259.097242 
L 128.683915 256.549375 
L 131.963254 254.539464 
L 135.242593 253.11828 
L 138.521932 252.295426 
L 141.801271 252.046358 
L 145.08061 252.319397 
L 148.359948 253.042529 
L 151.639287 254.129831 
L 154.918626 255.487388 
L 158.197965 257.018598 
L 161.477304 258.628804 
L 164.756643 260.229206 
L 168.035981 261.740039 
L 171.31532 263.093008 
L 174.594659 264.233008 
L 177.873998 265.119167 
L 181.153337 265.725247 
L 184.432676 266.039465 
L 187.712014 266.063811 
L 190.991353 265.81291 
L 194.270692 265.312535 
L 197.550031 264.597815 
L 200.82937 263.711248 
L 204.108709 262.700571 
L 207.388048 261.616581 
L 210.667386 260.510962 
L 213.946725 259.434204 
L 217.226064 258.433649 
L 220.505403 257.551747 
L 223.784742 256.824544 
L 227.064081 260.380034 
L 230.343419 260.375926 
L 233.622758 267.892359 
L 236.902097 268.847139 
L 240.181436 269.366078 
L 243.460775 269.430963 
L 246.740114 269.044883 
L 250.019452 268.23191 
L 253.298791 267.035936 
L 256.57813 265.518713 
L 259.857469 263.757152 
L 263.136808 261.839974 
L 266.416147 259.863832 
L 269.695486 257.929013 
L 272.974824 256.134889 
L 276.254163 254.575268 
L 279.533502 253.333821 
L 282.812841 252.479768 
L 286.09218 252.063999 
L 289.371519 252.115821 
L 292.650857 252.640506 
L 295.930196 253.617797 
L 299.209535 255.001519 
L 302.488874 256.720427 
L 305.768213 258.680358 
L 309.047552 260.767764 
L 312.32689 262.854607 
L 315.606229 264.804582 
L 318.885568 266.480547 
L 322.164907 267.752975 
L 325.444246 268.509164 
L 328.723585 268.662848 
L 332.002924 268.163737 
L 335.282262 267.006433 
L 338.561601 265.238008 
L 341.84094 262.96342 
L 345.120279 260.347795 
L 348.399618 257.614414 
L 351.678957 255.037121 
L 354.958295 252.925635 
L 358.237634 251.602077 
L 361.516973 251.36679 
L 364.796312 252.451327 
L 368.075651 254.956209 
L 371.35499 258.770814 
L 374.634329 263.472471 
L 377.913667 268.201565 
L 381.193006 271.509104 
L 384.472345 271.172927 
L 387.751684 263.978356 
L 391.031023 245.458726 
" clip-path="url(#p8acca6fa98)" style="fill: none; stroke: #8c564b; stroke-width: 1.5; stroke-linecap: square"/>
   </g>
   <g id="patch_3">
    <path d="M 50.14375 288.430125 
L 50.14375 22.318125 
" style="fill: none; stroke: #000000; stroke-width: 0.8; stroke-linejoin: miter; stroke-linecap: square"/>
   </g>
   <g id="patch_4">
    <path d="M 407.26375 288.430125 
L 407.26375 22.318125 
" style="fill: none; stroke: #000000; stroke-width: 0.8; stroke-linejoin: miter; stroke-linecap: square"/>
   </g>
   <g id="patch_5">
    <path d="M 50.14375 288.430125 
L 407.26375 288.430125 
" style="fill: none; stroke: #000000; stroke-width: 0.8; stroke-linejoin: miter; stroke-linecap: square"/>
   </g>
   <g id="patch_6">
    <path d="M 50.14375 22.318125 
L 407.26375 22.318125 
" style="fill: none; stroke: #000000; stroke-width: 0.8; stroke-linejoin: miter; stroke-linecap: square"/>
   </g>
   <g id="text_15">
    <!-- AD - xtract_prob_Frontal_Aslant_Tract_R -->
    <g transform="translate(109.692813 16.318125) scale(0.12 -0.12)">
     <defs>
      <path id="DejaVuSans-41" d="M 2188 4044 
L 1331 1722 
L 3047 1722 
L 2188 4044 
z
M 1831 4666 
L 2547 4666 
L 4325 0 
L 3669 0 
L 3244 1197 
L 1141 1197 
L 716 0 
L 50 0 
L 1831 4666 
z
" transform="scale(0.015625)"/>
      <path id="DejaVuSans-44" d="M 1259 4147 
L 1259 519 
L 2022 519 
Q 2988 519 3436 956 
Q 3884 1394 3884 2338 
Q 3884 3275 3436 3711 
Q 2988 4147 2022 4147 
L 1259 4147 
z
M 628 4666 
L 1925 4666 
Q 3281 4666 3915 4102 
Q 4550 3538 4550 2338 
Q 4550 1131 3912 565 
Q 3275 0 1925 0 
L 628 0 
L 628 4666 
z
" transform="scale(0.015625)"/>
      <path id="DejaVuSans-2d" d="M 313 2009 
L 1997 2009 
L 1997 1497 
L 313 1497 
L 313 2009 
z
" transform="scale(0.015625)"/>
      <path id="DejaVuSans-74" d="M 1172 4494 
L 1172 3500 
L 2356 3500 
L 2356 3053 
L 1172 3053 
L 1172 1153 
Q 1172 725 1289 603 
Q 1406 481 1766 481 
L 2356 481 
L 2356 0 
L 1766 0 
Q 1100 0 847 248 
Q 594 497 594 1153 
L 594 3053 
L 172 3053 
L 172 3500 
L 594 3500 
L 594 4494 
L 1172 4494 
z
" transform="scale(0.015625)"/>
      <path id="DejaVuSans-5f" d="M 3263 -1063 
L 3263 -1509 
L -63 -1509 
L -63 -1063 
L 3263 -1063 
z
" transform="scale(0.015625)"/>
      <path id="DejaVuSans-70" d="M 1159 525 
L 1159 -1331 
L 581 -1331 
L 581 3500 
L 1159 3500 
L 1159 2969 
Q 1341 3281 1617 3432 
Q 1894 3584 2278 3584 
Q 2916 3584 3314 3078 
Q 3713 2572 3713 1747 
Q 3713 922 3314 415 
Q 2916 -91 2278 -91 
Q 1894 -91 1617 61 
Q 1341 213 1159 525 
z
M 3116 1747 
Q 3116 2381 2855 2742 
Q 2594 3103 2138 3103 
Q 1681 3103 1420 2742 
Q 1159 2381 1159 1747 
Q 1159 1113 1420 752 
Q 1681 391 2138 391 
Q 2594 391 2855 752 
Q 3116 1113 3116 1747 
z
" transform="scale(0.015625)"/>
      <path id="DejaVuSans-6f" d="M 1959 3097 
Q 1497 3097 1228 2736 
Q 959 2375 959 1747 
Q 959 1119 1226 758 
Q 1494 397 1959 397 
Q 2419 397 2687 759 
Q 2956 1122 2956 1747 
Q 2956 2369 2687 2733 
Q 2419 3097 1959 3097 
z
M 1959 3584 
Q 2709 3584 3137 3096 
Q 3566 2609 3566 1747 
Q 3566 888 3137 398 
Q 2709 -91 1959 -91 
Q 1206 -91 779 398 
Q 353 888 353 1747 
Q 353 2609 779 3096 
Q 1206 3584 1959 3584 
z
" transform="scale(0.015625)"/>
      <path id="DejaVuSans-62" d="M 3116 1747 
Q 3116 2381 2855 2742 
Q 2594 3103 2138 3103 
Q 1681 3103 1420 2742 
Q 1159 2381 1159 1747 
Q 1159 1113 1420 752 
Q 1681 391 2138 391 
Q 2594 391 2855 752 
Q 3116 1113 3116 1747 
z
M 1159 2969 
Q 1341 3281 1617 3432 
Q 1894 3584 2278 3584 
Q 2916 3584 3314 3078 
Q 3713 2572 3713 1747 
Q 3713 922 3314 415 
Q 2916 -91 2278 -91 
Q 1894 -91 1617 61 
Q 1341 213 1159 525 
L 1159 0 
L 581 0 
L 581 4863 
L 1159 4863 
L 1159 2969 
z
" transform="scale(0.015625)"/>
      <path id="DejaVuSans-54" d="M -19 4666 
L 3928 4666 
L 3928 4134 
L 2272 4134 
L 2272 0 
L 1638 0 
L 1638 4134 
L -19 4134 
L -19 4666 
z
" transform="scale(0.015625)"/>
      <path id="DejaVuSans-52" d="M 2841 2188 
Q 3044 2119 3236 1894 
Q 3428 1669 3622 1275 
L 4263 0 
L 3584 0 
L 2988 1197 
Q 2756 1666 2539 1819 
Q 2322 1972 1947 1972 
L 1259 1972 
L 1259 0 
L 628 0 
L 628 4666 
L 2053 4666 
Q 2853 4666 3247 4331 
Q 3641 3997 3641 3322 
Q 3641 2881 3436 2590 
Q 3231 2300 2841 2188 
z
M 1259 4147 
L 1259 2491 
L 2053 2491 
Q 2509 2491 2742 2702 
Q 2975 2913 2975 3322 
Q 2975 3731 2742 3939 
Q 2509 4147 2053 4147 
L 1259 4147 
z
" transform="scale(0.015625)"/>
     </defs>
     <use xlink:href="#DejaVuSans-41"/>
     <use xlink:href="#DejaVuSans-44" x="68.408203"/>
     <use xlink:href="#DejaVuSans-20" x="145.410156"/>
     <use xlink:href="#DejaVuSans-2d" x="177.197266"/>
     <use xlink:href="#DejaVuSans-20" x="213.28125"/>
     <use xlink:href="#DejaVuSans-78" x="245.068359"/>
     <use xlink:href="#DejaVuSans-74" x="304.248047"/>
     <use xlink:href="#DejaVuSans-72" x="343.457031"/>
     <use xlink:href="#DejaVuSans-61" x="384.570312"/>
     <use xlink:href="#DejaVuSans-63" x="445.849609"/>
     <use xlink:href="#DejaVuSans-74" x="500.830078"/>
     <use xlink:href="#DejaVuSans-5f" x="540.039062"/>
     <use xlink:href="#DejaVuSans-70" x="590.039062"/>
     <use xlink:href="#DejaVuSans-72" x="653.515625"/>
     <use xlink:href="#DejaVuSans-6f" x="692.378906"/>
     <use xlink:href="#DejaVuSans-62" x="753.560547"/>
     <use xlink:href="#DejaVuSans-5f" x="817.037109"/>
     <use xlink:href="#DejaVuSans-46" x="867.037109"/>
     <use xlink:href="#DejaVuSans-72" x="917.306641"/>
     <use xlink:href="#DejaVuSans-6f" x="956.169922"/>
     <use xlink:href="#DejaVuSans-6e" x="1017.351562"/>
     <use xlink:href="#DejaVuSans-74" x="1080.730469"/>
     <use xlink:href="#DejaVuSans-61" x="1119.939453"/>
     <use xlink:href="#DejaVuSans-6c" x="1181.21875"/>
     <use xlink:href="#DejaVuSans-5f" x="1209.001953"/>
     <use xlink:href="#DejaVuSans-41" x="1259.001953"/>
     <use xlink:href="#DejaVuSans-73" x="1327.410156"/>
     <use xlink:href="#DejaVuSans-6c" x="1379.509766"/>
     <use xlink:href="#DejaVuSans-61" x="1407.292969"/>
     <use xlink:href="#DejaVuSans-6e" x="1468.572266"/>
     <use xlink:href="#DejaVuSans-74" x="1531.951172"/>
     <use xlink:href="#DejaVuSans-5f" x="1571.160156"/>
     <use xlink:href="#DejaVuSans-54" x="1621.160156"/>
     <use xlink:href="#DejaVuSans-72" x="1667.494141"/>
     <use xlink:href="#DejaVuSans-61" x="1708.607422"/>
     <use xlink:href="#DejaVuSans-63" x="1769.886719"/>
     <use xlink:href="#DejaVuSans-74" x="1824.867188"/>
     <use xlink:href="#DejaVuSans-5f" x="1864.076172"/>
     <use xlink:href="#DejaVuSans-52" x="1914.076172"/>
    </g>
   </g>
   <g id="legend_1">
    <g id="patch_7">
     <path d="M 449.97575 146.666825 
L 547.832 146.666825 
Q 549.832 146.666825 549.832 144.666825 
L 549.832 55.929325 
Q 549.832 53.929325 547.832 53.929325 
L 449.97575 53.929325 
Q 447.97575 53.929325 447.97575 55.929325 
L 447.97575 144.666825 
Q 447.97575 146.666825 449.97575 146.666825 
z
" style="fill: #ffffff; opacity: 0.8; stroke: #cccccc; stroke-linejoin: miter"/>
    </g>
    <g id="line2d_19">
     <path d="M 451.97575 62.027762 
L 461.97575 62.027762 
L 471.97575 62.027762 
" style="fill: none; stroke: #1f77b4; stroke-width: 1.5; stroke-linecap: square"/>
    </g>
    <g id="text_16">
     <!-- 20_06_02_E3 -->
     <g transform="translate(479.97575 65.527762) scale(0.1 -0.1)">
      <defs>
       <path id="DejaVuSans-36" d="M 2113 2584 
Q 1688 2584 1439 2293 
Q 1191 2003 1191 1497 
Q 1191 994 1439 701 
Q 1688 409 2113 409 
Q 2538 409 2786 701 
Q 3034 994 3034 1497 
Q 3034 2003 2786 2293 
Q 2538 2584 2113 2584 
z
M 3366 4563 
L 3366 3988 
Q 3128 4100 2886 4159 
Q 2644 4219 2406 4219 
Q 1781 4219 1451 3797 
Q 1122 3375 1075 2522 
Q 1259 2794 1537 2939 
Q 1816 3084 2150 3084 
Q 2853 3084 3261 2657 
Q 3669 2231 3669 1497 
Q 3669 778 3244 343 
Q 2819 -91 2113 -91 
Q 1303 -91 875 529 
Q 447 1150 447 2328 
Q 447 3434 972 4092 
Q 1497 4750 2381 4750 
Q 2619 4750 2861 4703 
Q 3103 4656 3366 4563 
z
" transform="scale(0.015625)"/>
       <path id="DejaVuSans-45" d="M 628 4666 
L 3578 4666 
L 3578 4134 
L 1259 4134 
L 1259 2753 
L 3481 2753 
L 3481 2222 
L 1259 2222 
L 1259 531 
L 3634 531 
L 3634 0 
L 628 0 
L 628 4666 
z
" transform="scale(0.015625)"/>
      </defs>
      <use xlink:href="#DejaVuSans-32"/>
      <use xlink:href="#DejaVuSans-30" x="63.623047"/>
      <use xlink:href="#DejaVuSans-5f" x="127.246094"/>
      <use xlink:href="#DejaVuSans-30" x="177.246094"/>
      <use xlink:href="#DejaVuSans-36" x="240.869141"/>
      <use xlink:href="#DejaVuSans-5f" x="304.492188"/>
      <use xlink:href="#DejaVuSans-30" x="354.492188"/>
      <use xlink:href="#DejaVuSans-32" x="418.115234"/>
      <use xlink:href="#DejaVuSans-5f" x="481.738281"/>
      <use xlink:href="#DejaVuSans-45" x="531.738281"/>
      <use xlink:href="#DejaVuSans-33" x="594.921875"/>
     </g>
    </g>
    <g id="line2d_20">
     <path d="M 451.97575 76.984013 
L 461.97575 76.984013 
L 471.97575 76.984013 
" style="fill: none; stroke: #ff7f0e; stroke-width: 1.5; stroke-linecap: square"/>
    </g>
    <g id="text_17">
     <!-- 20_05_01_E3 -->
     <g transform="translate(479.97575 80.484013) scale(0.1 -0.1)">
      <use xlink:href="#DejaVuSans-32"/>
      <use xlink:href="#DejaVuSans-30" x="63.623047"/>
      <use xlink:href="#DejaVuSans-5f" x="127.246094"/>
      <use xlink:href="#DejaVuSans-30" x="177.246094"/>
      <use xlink:href="#DejaVuSans-35" x="240.869141"/>
      <use xlink:href="#DejaVuSans-5f" x="304.492188"/>
      <use xlink:href="#DejaVuSans-30" x="354.492188"/>
      <use xlink:href="#DejaVuSans-31" x="418.115234"/>
      <use xlink:href="#DejaVuSans-5f" x="481.738281"/>
      <use xlink:href="#DejaVuSans-45" x="531.738281"/>
      <use xlink:href="#DejaVuSans-33" x="594.921875"/>
     </g>
    </g>
    <g id="line2d_21">
     <path d="M 451.97575 91.940262 
L 461.97575 91.940262 
L 471.97575 91.940262 
" style="fill: none; stroke: #2ca02c; stroke-width: 1.5; stroke-linecap: square"/>
    </g>
    <g id="text_18">
     <!-- 20_02_02_E3 -->
     <g transform="translate(479.97575 95.440262) scale(0.1 -0.1)">
      <use xlink:href="#DejaVuSans-32"/>
      <use xlink:href="#DejaVuSans-30" x="63.623047"/>
      <use xlink:href="#DejaVuSans-5f" x="127.246094"/>
      <use xlink:href="#DejaVuSans-30" x="177.246094"/>
      <use xlink:href="#DejaVuSans-32" x="240.869141"/>
      <use xlink:href="#DejaVuSans-5f" x="304.492188"/>
      <use xlink:href="#DejaVuSans-30" x="354.492188"/>
      <use xlink:href="#DejaVuSans-32" x="418.115234"/>
      <use xlink:href="#DejaVuSans-5f" x="481.738281"/>
      <use xlink:href="#DejaVuSans-45" x="531.738281"/>
      <use xlink:href="#DejaVuSans-33" x="594.921875"/>
     </g>
    </g>
    <g id="line2d_22">
     <path d="M 451.97575 106.896513 
L 461.97575 106.896513 
L 471.97575 106.896513 
" style="fill: none; stroke: #d62728; stroke-width: 1.5; stroke-linecap: square"/>
    </g>
    <g id="text_19">
     <!-- 20_10_02_E3 -->
     <g transform="translate(479.97575 110.396513) scale(0.1 -0.1)">
      <use xlink:href="#DejaVuSans-32"/>
      <use xlink:href="#DejaVuSans-30" x="63.623047"/>
      <use xlink:href="#DejaVuSans-5f" x="127.246094"/>
      <use xlink:href="#DejaVuSans-31" x="177.246094"/>
      <use xlink:href="#DejaVuSans-30" x="240.869141"/>
      <use xlink:href="#DejaVuSans-5f" x="304.492188"/>
      <use xlink:href="#DejaVuSans-30" x="354.492188"/>
      <use xlink:href="#DejaVuSans-32" x="418.115234"/>
      <use xlink:href="#DejaVuSans-5f" x="481.738281"/>
      <use xlink:href="#DejaVuSans-45" x="531.738281"/>
      <use xlink:href="#DejaVuSans-33" x="594.921875"/>
     </g>
    </g>
    <g id="line2d_23">
     <path d="M 451.97575 121.852762 
L 461.97575 121.852762 
L 471.97575 121.852762 
" style="fill: none; stroke: #9467bd; stroke-width: 1.5; stroke-linecap: square"/>
    </g>
    <g id="text_20">
     <!-- 20_08_02_E3 -->
     <g transform="translate(479.97575 125.352762) scale(0.1 -0.1)">
      <defs>
       <path id="DejaVuSans-38" d="M 2034 2216 
Q 1584 2216 1326 1975 
Q 1069 1734 1069 1313 
Q 1069 891 1326 650 
Q 1584 409 2034 409 
Q 2484 409 2743 651 
Q 3003 894 3003 1313 
Q 3003 1734 2745 1975 
Q 2488 2216 2034 2216 
z
M 1403 2484 
Q 997 2584 770 2862 
Q 544 3141 544 3541 
Q 544 4100 942 4425 
Q 1341 4750 2034 4750 
Q 2731 4750 3128 4425 
Q 3525 4100 3525 3541 
Q 3525 3141 3298 2862 
Q 3072 2584 2669 2484 
Q 3125 2378 3379 2068 
Q 3634 1759 3634 1313 
Q 3634 634 3220 271 
Q 2806 -91 2034 -91 
Q 1263 -91 848 271 
Q 434 634 434 1313 
Q 434 1759 690 2068 
Q 947 2378 1403 2484 
z
M 1172 3481 
Q 1172 3119 1398 2916 
Q 1625 2713 2034 2713 
Q 2441 2713 2670 2916 
Q 2900 3119 2900 3481 
Q 2900 3844 2670 4047 
Q 2441 4250 2034 4250 
Q 1625 4250 1398 4047 
Q 1172 3844 1172 3481 
z
" transform="scale(0.015625)"/>
      </defs>
      <use xlink:href="#DejaVuSans-32"/>
      <use xlink:href="#DejaVuSans-30" x="63.623047"/>
      <use xlink:href="#DejaVuSans-5f" x="127.246094"/>
      <use xlink:href="#DejaVuSans-30" x="177.246094"/>
      <use xlink:href="#DejaVuSans-38" x="240.869141"/>
      <use xlink:href="#DejaVuSans-5f" x="304.492188"/>
      <use xlink:href="#DejaVuSans-30" x="354.492188"/>
      <use xlink:href="#DejaVuSans-32" x="418.115234"/>
      <use xlink:href="#DejaVuSans-5f" x="481.738281"/>
      <use xlink:href="#DejaVuSans-45" x="531.738281"/>
      <use xlink:href="#DejaVuSans-33" x="594.921875"/>
     </g>
    </g>
    <g id="line2d_24">
     <path d="M 451.97575 136.809012 
L 461.97575 136.809012 
L 471.97575 136.809012 
" style="fill: none; stroke: #8c564b; stroke-width: 1.5; stroke-linecap: square"/>
    </g>
    <g id="text_21">
     <!-- 20_11_02_E3 -->
     <g transform="translate(479.97575 140.309012) scale(0.1 -0.1)">
      <use xlink:href="#DejaVuSans-32"/>
      <use xlink:href="#DejaVuSans-30" x="63.623047"/>
      <use xlink:href="#DejaVuSans-5f" x="127.246094"/>
      <use xlink:href="#DejaVuSans-31" x="177.246094"/>
      <use xlink:href="#DejaVuSans-31" x="240.869141"/>
      <use xlink:href="#DejaVuSans-5f" x="304.492188"/>
      <use xlink:href="#DejaVuSans-30" x="354.492188"/>
      <use xlink:href="#DejaVuSans-32" x="418.115234"/>
      <use xlink:href="#DejaVuSans-5f" x="481.738281"/>
      <use xlink:href="#DejaVuSans-45" x="531.738281"/>
      <use xlink:href="#DejaVuSans-33" x="594.921875"/>
     </g>
    </g>
   </g>
  </g>
 </g>
 <defs>
  <clipPath id="p8acca6fa98">
   <rect x="50.14375" y="22.318125" width="357.12" height="266.112"/>
  </clipPath>
 </defs>
</svg>
