<?xml version="1.0" encoding="utf-8" standalone="no"?>
<!DOCTYPE svg PUBLIC "-//W3C//DTD SVG 1.1//EN"
  "http://www.w3.org/Graphics/SVG/1.1/DTD/svg11.dtd">
<svg xmlns:xlink="http://www.w3.org/1999/xlink" width="565.411687pt" height="325.986375pt" viewBox="0 0 565.411687 325.986375" xmlns="http://www.w3.org/2000/svg" version="1.1">
 <metadata>
  <rdf:RDF xmlns:dc="http://purl.org/dc/elements/1.1/" xmlns:cc="http://creativecommons.org/ns#" xmlns:rdf="http://www.w3.org/1999/02/22-rdf-syntax-ns#">
   <cc:Work>
    <dc:type rdf:resource="http://purl.org/dc/dcmitype/StillImage"/>
    <dc:date>2023-02-07T22:59:56.322414</dc:date>
    <dc:format>image/svg+xml</dc:format>
    <dc:creator>
     <cc:Agent>
      <dc:title>Matplotlib v3.6.2, https://matplotlib.org/</dc:title>
     </cc:Agent>
    </dc:creator>
   </cc:Work>
  </rdf:RDF>
 </metadata>
 <defs>
  <style type="text/css">*{stroke-linejoin: round; stroke-linecap: butt}</style>
 </defs>
 <g id="figure_1">
  <g id="patch_1">
   <path d="M 0 325.986375 
L 565.411687 325.986375 
L 565.411687 0 
L 0 0 
z
" style="fill: #ffffff"/>
  </g>
  <g id="axes_1">
   <g id="patch_2">
    <path d="M 58.523438 288.430125 
L 415.643438 288.430125 
L 415.643438 22.318125 
L 58.523438 22.318125 
z
" style="fill: #ffffff"/>
   </g>
   <g id="PolyCollection_1">
    <path d="M 74.756165 276.334125 
L 74.756165 226.809403 
L 78.035504 226.809403 
L 81.314842 226.809403 
L 84.594181 226.809403 
L 87.87352 226.809403 
L 91.152859 226.809403 
L 94.432198 226.809403 
L 97.711537 226.809403 
L 100.990876 226.809403 
L 104.270214 226.809403 
L 107.549553 226.809403 
L 110.828892 226.809403 
L 114.108231 226.809403 
L 117.38757 226.809403 
L 120.666909 226.809403 
L 123.946247 226.809403 
L 127.225586 226.809403 
L 130.504925 226.809403 
L 133.784264 226.809403 
L 137.063603 226.809403 
L 140.342942 226.809403 
L 143.62228 226.809403 
L 146.901619 226.809403 
L 150.180958 226.809403 
L 153.460297 226.809403 
L 156.739636 226.809403 
L 160.018975 226.809403 
L 163.298314 226.809403 
L 166.577652 226.809403 
L 169.856991 226.809403 
L 173.13633 226.809403 
L 176.415669 226.809403 
L 179.695008 226.809403 
L 182.974347 226.809403 
L 186.253685 226.809403 
L 189.533024 226.809403 
L 192.812363 226.809403 
L 196.091702 226.809403 
L 199.371041 226.809403 
L 202.65038 226.809403 
L 205.929718 226.809403 
L 209.209057 226.809403 
L 212.488396 226.809403 
L 215.767735 226.809403 
L 219.047074 226.809403 
L 222.326413 226.809403 
L 225.605752 226.809403 
L 228.88509 226.809403 
L 232.164429 226.809403 
L 235.443768 226.809403 
L 238.723107 226.809403 
L 242.002446 226.809403 
L 245.281785 226.809403 
L 248.561123 226.809403 
L 251.840462 226.809403 
L 255.119801 226.809403 
L 258.39914 226.809403 
L 261.678479 226.809403 
L 264.957818 226.809403 
L 268.237157 226.809403 
L 271.516495 226.809403 
L 274.795834 226.809403 
L 278.075173 226.809403 
L 281.354512 226.809403 
L 284.633851 226.809403 
L 287.91319 226.809403 
L 291.192528 226.809403 
L 294.471867 226.809403 
L 297.751206 226.809403 
L 301.030545 226.809403 
L 304.309884 226.809403 
L 307.589223 226.809403 
L 310.868561 226.809403 
L 314.1479 226.809403 
L 317.427239 226.809403 
L 320.706578 226.809403 
L 323.985917 226.809403 
L 327.265256 226.809403 
L 330.544595 226.809403 
L 333.823933 226.809403 
L 337.103272 226.809403 
L 340.382611 226.809403 
L 343.66195 226.809403 
L 346.941289 226.809403 
L 350.220628 226.809403 
L 353.499966 226.809403 
L 356.779305 226.809403 
L 360.058644 226.809403 
L 363.337983 226.809403 
L 366.617322 226.809403 
L 369.896661 226.809403 
L 373.175999 226.809403 
L 376.455338 226.809403 
L 379.734677 226.809403 
L 383.014016 226.809403 
L 386.293355 226.809403 
L 389.572694 226.809403 
L 392.852033 226.809403 
L 396.131371 226.809403 
L 399.41071 226.809403 
L 399.41071 192.458207 
L 399.41071 192.458207 
L 396.131371 209.573448 
L 392.852033 220.154649 
L 389.572694 226.088419 
L 386.293355 228.841429 
L 383.014016 229.53265 
L 379.734677 228.996121 
L 376.455338 227.835162 
L 373.175999 226.468892 
L 369.896661 225.171835 
L 366.617322 224.107359 
L 363.337983 223.355634 
L 360.058644 222.936736 
L 356.779305 222.829486 
L 353.499966 222.986562 
L 350.220628 223.346369 
L 346.941289 223.842131 
L 343.66195 224.408598 
L 340.382611 224.986765 
L 337.103272 225.526905 
L 333.823933 225.990255 
L 330.544595 226.349595 
L 327.265256 226.588979 
L 323.985917 226.702818 
L 320.706578 226.694503 
L 317.427239 226.574735 
L 314.1479 226.359683 
L 310.868561 226.069102 
L 307.589223 225.72449 
L 304.309884 225.34738 
L 301.030545 224.957804 
L 297.751206 224.573 
L 294.471867 224.206365 
L 291.192528 223.866699 
L 287.91319 223.557726 
L 284.633851 223.277905 
L 281.354512 223.020506 
L 278.075173 222.773947 
L 274.795834 222.522355 
L 271.516495 222.246326 
L 268.237157 221.923847 
L 264.957818 221.531349 
L 261.678479 221.044841 
L 258.39914 220.441098 
L 255.119801 219.698842 
L 251.840462 218.799896 
L 248.561123 217.73026 
L 245.281785 216.481069 
L 242.002446 215.049407 
L 238.723107 226.804784 
L 235.443768 226.803894 
L 232.164429 210.77228 
L 228.88509 207.968336 
L 225.605752 205.039485 
L 222.326413 202.05961 
L 219.047074 199.108837 
L 215.767735 196.270852 
L 212.488396 193.629914 
L 209.209057 191.267635 
L 205.929718 189.259609 
L 202.65038 187.671978 
L 199.371041 186.558031 
L 196.091702 185.954947 
L 192.812363 185.880776 
L 189.533024 186.331783 
L 186.253685 187.280266 
L 182.974347 188.672951 
L 179.695008 190.430086 
L 176.415669 192.445327 
L 173.13633 194.586525 
L 169.856991 196.697486 
L 166.577652 198.600794 
L 163.298314 200.10174 
L 160.018975 200.993401 
L 156.739636 201.062885 
L 153.460297 200.098731 
L 150.180958 197.899422 
L 146.901619 194.282937 
L 143.62228 189.097234 
L 140.342942 182.2315 
L 137.063603 173.627986 
L 133.784264 163.294161 
L 130.504925 151.314881 
L 127.225586 137.864224 
L 123.946247 123.216534 
L 120.666909 107.756198 
L 117.38757 91.985564 
L 114.108231 76.530348 
L 110.828892 62.141788 
L 107.549553 49.694697 
L 104.270214 40.180503 
L 100.990876 34.694206 
L 97.711537 34.414125 
L 94.432198 40.573158 
L 91.152859 54.420156 
L 87.87352 77.1699 
L 84.594181 109.940011 
L 81.314842 153.67298 
L 78.035504 209.041383 
L 74.756165 276.334125 
z
" clip-path="url(#p53a50dd174)" style="fill: #1f77b4; fill-opacity: 0.166667"/>
   </g>
   <g id="PolyCollection_2">
    <path d="M 74.756165 220.776426 
L 74.756165 226.809403 
L 78.035503 226.809403 
L 81.314842 226.809403 
L 84.594181 226.809403 
L 87.873519 226.809403 
L 91.152858 226.809403 
L 94.432197 226.809403 
L 97.711535 226.809403 
L 100.990874 226.809403 
L 104.270213 226.809403 
L 107.549551 226.809403 
L 110.82889 226.809403 
L 114.108229 226.809403 
L 117.387567 226.809403 
L 120.666906 226.809403 
L 123.946244 226.809403 
L 127.225583 226.809403 
L 130.504922 226.809403 
L 133.78426 226.809403 
L 137.063599 226.809403 
L 140.342938 226.809403 
L 143.622276 226.809403 
L 146.901615 226.809403 
L 150.180954 226.809403 
L 153.460292 226.809403 
L 156.739631 226.809403 
L 160.01897 226.809403 
L 163.298308 226.809403 
L 166.577647 226.809403 
L 169.856986 226.809403 
L 173.136324 226.809403 
L 176.415663 226.809403 
L 179.695001 226.809403 
L 182.97434 226.809403 
L 186.253679 226.809403 
L 189.533017 226.809403 
L 192.812356 226.809403 
L 196.091695 226.809403 
L 199.371033 226.809403 
L 202.650372 226.809403 
L 205.929711 226.809403 
L 209.209049 226.809403 
L 212.488388 226.809403 
L 215.767727 226.809403 
L 219.047065 226.809403 
L 222.326404 226.809403 
L 225.605743 226.809403 
L 228.885081 226.809403 
L 232.16442 226.809403 
L 235.443759 226.809403 
L 238.723097 226.809403 
L 242.002436 226.809403 
L 245.281774 226.809403 
L 248.561113 226.809403 
L 251.840452 226.809403 
L 255.11979 226.809403 
L 258.399129 226.809403 
L 261.678468 226.809403 
L 264.957806 226.809403 
L 268.237145 226.809403 
L 271.516484 226.809403 
L 274.795822 226.809403 
L 278.075161 226.809403 
L 281.3545 226.809403 
L 284.633838 226.809403 
L 287.913177 226.809403 
L 291.192516 226.809403 
L 294.471854 226.809403 
L 297.751193 226.809403 
L 301.030531 226.809403 
L 304.30987 226.809403 
L 307.589209 226.809403 
L 310.868547 226.809403 
L 314.147886 226.809403 
L 317.427225 226.809403 
L 320.706563 226.809403 
L 323.985902 226.809403 
L 327.265241 226.809403 
L 330.544579 226.809403 
L 333.823918 226.809403 
L 337.103257 226.809403 
L 340.382595 226.809403 
L 343.661934 226.809403 
L 346.941273 226.809403 
L 350.220611 226.809403 
L 353.49995 226.809403 
L 356.779288 226.809403 
L 360.058627 226.809403 
L 363.337966 226.809403 
L 366.617304 226.809403 
L 369.896643 226.809403 
L 373.175982 226.809403 
L 376.45532 226.809403 
L 379.734659 226.809403 
L 383.013998 226.809403 
L 386.293336 226.809403 
L 389.572675 226.809403 
L 392.852014 226.809403 
L 396.131352 226.809403 
L 399.410691 226.809403 
L 399.410691 206.664943 
L 399.410691 206.664943 
L 396.131352 214.588997 
L 392.852014 220.156223 
L 389.572675 223.98787 
L 386.293336 226.541112 
L 383.013998 228.145035 
L 379.734659 229.030627 
L 376.45532 229.355517 
L 373.175982 229.224116 
L 369.896643 228.70376 
L 366.617304 227.837422 
L 363.337966 226.653476 
L 360.058627 225.172986 
L 356.779288 223.414901 
L 353.49995 221.399548 
L 350.220611 219.150724 
L 346.941273 216.696681 
L 343.661934 214.070267 
L 340.382595 211.308419 
L 337.103257 208.45122 
L 333.823918 205.540658 
L 330.544579 202.619249 
L 327.265241 199.728613 
L 323.985902 196.908096 
L 320.706563 194.193529 
L 317.427225 191.616153 
L 314.147886 189.201756 
L 310.868547 186.970057 
L 307.589209 184.934331 
L 304.30987 183.101284 
L 301.030531 181.471176 
L 297.751193 180.038162 
L 294.471854 178.790841 
L 291.192516 177.712978 
L 287.913177 176.784373 
L 284.633838 175.981837 
L 281.3545 175.280249 
L 278.075161 174.653647 
L 274.795822 174.076324 
L 271.516484 173.523891 
L 268.237145 172.97428 
L 264.957806 172.408646 
L 261.678468 171.812148 
L 258.399129 171.174592 
L 255.11979 170.490894 
L 251.840452 169.761375 
L 248.561113 168.991859 
L 245.281774 168.193575 
L 242.002436 167.382864 
L 238.723097 226.797615 
L 235.443759 226.79817 
L 232.16442 164.125735 
L 228.885081 163.5574 
L 225.605743 163.160605 
L 222.326404 162.96135 
L 219.047065 162.982041 
L 215.767727 163.240514 
L 212.488388 163.749148 
L 209.209049 164.514105 
L 205.929711 165.534721 
L 202.650372 166.803062 
L 199.371033 168.303685 
L 196.091695 170.013615 
L 192.812356 171.902548 
L 189.533017 173.933316 
L 186.253679 176.062591 
L 182.97434 178.241863 
L 179.695001 180.418665 
L 176.415663 182.538056 
L 173.136324 184.544336 
L 169.856986 186.382966 
L 166.577647 188.002681 
L 163.298308 189.357731 
L 160.01897 190.410218 
L 156.739631 191.13246 
L 153.460292 191.509308 
L 150.180954 191.540338 
L 146.901615 191.24181 
L 143.622276 190.648294 
L 140.342938 189.813817 
L 137.063599 188.812417 
L 133.78426 187.737908 
L 130.504922 186.702705 
L 127.225583 185.83551 
L 123.946244 185.277625 
L 120.666906 185.177673 
L 117.387567 185.684465 
L 114.108229 186.937716 
L 110.82889 189.056332 
L 107.549551 192.12391 
L 104.270213 196.171109 
L 100.990874 201.154507 
L 97.711535 206.93152 
L 94.432197 213.230964 
L 91.152858 219.618754 
L 87.873519 225.458267 
L 84.594181 229.864804 
L 81.314842 231.653599 
L 78.035503 229.280749 
L 74.756165 220.776426 
z
" clip-path="url(#p53a50dd174)" style="fill: #ff7f0e; fill-opacity: 0.166667"/>
   </g>
   <g id="PolyCollection_3">
    <path d="M 74.756165 228.656596 
L 74.756165 226.809403 
L 78.035503 226.809403 
L 81.314842 226.809403 
L 84.59418 226.809403 
L 87.873519 226.809403 
L 91.152857 226.809403 
L 94.432195 226.809403 
L 97.711534 226.809403 
L 100.990872 226.809403 
L 104.270211 226.809403 
L 107.549549 226.809403 
L 110.828888 226.809403 
L 114.108226 226.809403 
L 117.387565 226.809403 
L 120.666903 226.809403 
L 123.946242 226.809403 
L 127.22558 226.809403 
L 130.504918 226.809403 
L 133.784257 226.809403 
L 137.063595 226.809403 
L 140.342934 226.809403 
L 143.622272 226.809403 
L 146.901611 226.809403 
L 150.180949 226.809403 
L 153.460288 226.809403 
L 156.739626 226.809403 
L 160.018965 226.809403 
L 163.298303 226.809403 
L 166.577641 226.809403 
L 169.85698 226.809403 
L 173.136318 226.809403 
L 176.415657 226.809403 
L 179.694995 226.809403 
L 182.974334 226.809403 
L 186.253672 226.809403 
L 189.533011 226.809403 
L 192.812349 226.809403 
L 196.091687 226.809403 
L 199.371026 226.809403 
L 202.650364 226.809403 
L 205.929703 226.809403 
L 209.209041 226.809403 
L 212.48838 226.809403 
L 215.767718 226.809403 
L 219.047057 226.809403 
L 222.326395 226.809403 
L 225.605734 226.809403 
L 228.885072 226.809403 
L 232.16441 226.809403 
L 235.443749 226.809403 
L 238.723087 226.809403 
L 242.002426 226.809403 
L 245.281764 226.809403 
L 248.561103 226.809403 
L 251.840441 226.809403 
L 255.11978 226.809403 
L 258.399118 226.809403 
L 261.678457 226.809403 
L 264.957795 226.809403 
L 268.237133 226.809403 
L 271.516472 226.809403 
L 274.79581 226.809403 
L 278.075149 226.809403 
L 281.354487 226.809403 
L 284.633826 226.809403 
L 287.913164 226.809403 
L 291.192503 226.809403 
L 294.471841 226.809403 
L 297.75118 226.809403 
L 301.030518 226.809403 
L 304.309856 226.809403 
L 307.589195 226.809403 
L 310.868533 226.809403 
L 314.147872 226.809403 
L 317.42721 226.809403 
L 320.706549 226.809403 
L 323.985887 226.809403 
L 327.265226 226.809403 
L 330.544564 226.809403 
L 333.823902 226.809403 
L 337.103241 226.809403 
L 340.382579 226.809403 
L 343.661918 226.809403 
L 346.941256 226.809403 
L 350.220595 226.809403 
L 353.499933 226.809403 
L 356.779272 226.809403 
L 360.05861 226.809403 
L 363.337949 226.809403 
L 366.617287 226.809403 
L 369.896625 226.809403 
L 373.175964 226.809403 
L 376.455302 226.809403 
L 379.734641 226.809403 
L 383.013979 226.809403 
L 386.293318 226.809403 
L 389.572656 226.809403 
L 392.851995 226.809403 
L 396.131333 226.809403 
L 399.410672 226.809403 
L 399.410672 171.865843 
L 399.410672 171.865843 
L 396.131333 200.628527 
L 392.851995 218.40847 
L 389.572656 228.344804 
L 386.293318 232.882445 
L 383.013979 233.890575 
L 379.734641 232.765598 
L 376.455302 230.520104 
L 373.175964 227.859243 
L 369.896625 225.245854 
L 366.617287 222.955552 
L 363.337949 221.12291 
L 360.05861 219.779765 
L 356.779272 218.886617 
L 353.499933 218.35798 
L 350.220595 218.082497 
L 346.941256 217.938534 
L 343.661918 217.805918 
L 340.382579 217.574413 
L 337.103241 217.149476 
L 333.823902 216.455749 
L 330.544564 215.438749 
L 327.265226 214.065094 
L 323.985887 212.321621 
L 320.706549 210.213685 
L 317.42721 207.76286 
L 314.147872 205.004293 
L 310.868533 201.983858 
L 307.589195 198.75527 
L 304.309856 195.377284 
L 301.030518 191.911066 
L 297.75118 188.417804 
L 294.471841 184.956627 
L 291.192503 181.582845 
L 287.913164 178.346545 
L 284.633826 175.291534 
L 281.354487 172.454631 
L 278.075149 169.865282 
L 274.79581 167.545481 
L 271.516472 165.509955 
L 268.237133 163.766583 
L 264.957795 162.317011 
L 261.678457 161.15741 
L 258.399118 160.279342 
L 255.11978 159.670695 
L 251.840441 159.316631 
L 248.561103 159.200528 
L 245.281764 159.304863 
L 242.002426 159.61201 
L 238.723087 226.79786 
L 235.443749 226.798202 
L 232.16441 160.49632 
L 228.885072 161.371327 
L 225.605734 162.436913 
L 222.326395 163.684686 
L 219.047057 165.10513 
L 215.767718 166.687322 
L 212.48838 168.418629 
L 209.209041 170.284388 
L 205.929703 172.267593 
L 202.650364 174.348621 
L 199.371026 176.504995 
L 196.091687 178.711232 
L 192.812349 180.938778 
L 189.533011 183.156066 
L 186.253672 185.328706 
L 182.974334 187.419837 
L 179.694995 189.390648 
L 176.415657 191.201092 
L 173.136318 192.810784 
L 169.85698 194.180111 
L 166.577641 195.271523 
L 163.298303 196.051019 
L 160.018965 196.489797 
L 156.739626 196.566041 
L 153.460288 196.266809 
L 150.180949 195.589973 
L 146.901611 194.546137 
L 143.622272 193.160467 
L 140.342934 191.474332 
L 137.063595 189.546637 
L 133.784257 187.454731 
L 130.504918 185.294722 
L 127.22558 183.181036 
L 123.946242 181.245015 
L 120.666903 179.632323 
L 117.387565 178.498923 
L 114.108226 178.005327 
L 110.828888 178.308816 
L 107.549549 179.553271 
L 104.270211 181.856245 
L 100.990872 185.292842 
L 97.711534 189.875959 
L 94.432195 195.532366 
L 91.152857 202.074095 
L 87.873519 209.164541 
L 84.59418 216.278624 
L 81.314842 222.656325 
L 78.035503 227.248847 
L 74.756165 228.656596 
z
" clip-path="url(#p53a50dd174)" style="fill: #2ca02c; fill-opacity: 0.166667"/>
   </g>
   <g id="PolyCollection_4">
    <path d="M 74.756165 225.513523 
L 74.756165 226.809403 
L 78.035503 226.809403 
L 81.314842 226.809403 
L 84.594181 226.809403 
L 87.873519 226.809403 
L 91.152858 226.809403 
L 94.432197 226.809403 
L 97.711535 226.809403 
L 100.990874 226.809403 
L 104.270213 226.809403 
L 107.549551 226.809403 
L 110.82889 226.809403 
L 114.108229 226.809403 
L 117.387567 226.809403 
L 120.666906 226.809403 
L 123.946244 226.809403 
L 127.225583 226.809403 
L 130.504922 226.809403 
L 133.78426 226.809403 
L 137.063599 226.809403 
L 140.342938 226.809403 
L 143.622276 226.809403 
L 146.901615 226.809403 
L 150.180954 226.809403 
L 153.460292 226.809403 
L 156.739631 226.809403 
L 160.01897 226.809403 
L 163.298308 226.809403 
L 166.577647 226.809403 
L 169.856986 226.809403 
L 173.136324 226.809403 
L 176.415663 226.809403 
L 179.695001 226.809403 
L 182.97434 226.809403 
L 186.253679 226.809403 
L 189.533017 226.809403 
L 192.812356 226.809403 
L 196.091695 226.809403 
L 199.371033 226.809403 
L 202.650372 226.809403 
L 205.929711 226.809403 
L 209.209049 226.809403 
L 212.488388 226.809403 
L 215.767727 226.809403 
L 219.047065 226.809403 
L 222.326404 226.809403 
L 225.605743 226.809403 
L 228.885081 226.809403 
L 232.16442 226.809403 
L 235.443759 226.809403 
L 238.723097 226.809403 
L 242.002436 226.809403 
L 245.281774 226.809403 
L 248.561113 226.809403 
L 251.840452 226.809403 
L 255.11979 226.809403 
L 258.399129 226.809403 
L 261.678468 226.809403 
L 264.957806 226.809403 
L 268.237145 226.809403 
L 271.516484 226.809403 
L 274.795822 226.809403 
L 278.075161 226.809403 
L 281.3545 226.809403 
L 284.633838 226.809403 
L 287.913177 226.809403 
L 291.192516 226.809403 
L 294.471854 226.809403 
L 297.751193 226.809403 
L 301.030531 226.809403 
L 304.30987 226.809403 
L 307.589209 226.809403 
L 310.868547 226.809403 
L 314.147886 226.809403 
L 317.427225 226.809403 
L 320.706563 226.809403 
L 323.985902 226.809403 
L 327.265241 226.809403 
L 330.544579 226.809403 
L 333.823918 226.809403 
L 337.103257 226.809403 
L 340.382595 226.809403 
L 343.661934 226.809403 
L 346.941273 226.809403 
L 350.220611 226.809403 
L 353.49995 226.809403 
L 356.779288 226.809403 
L 360.058627 226.809403 
L 363.337966 226.809403 
L 366.617304 226.809403 
L 369.896643 226.809403 
L 373.175982 226.809403 
L 376.45532 226.809403 
L 379.734659 226.809403 
L 383.013998 226.809403 
L 386.293336 226.809403 
L 389.572675 226.809403 
L 392.852014 226.809403 
L 396.131352 226.809403 
L 399.410691 226.809403 
L 399.410691 200.366885 
L 399.410691 200.366885 
L 396.131352 215.094153 
L 392.852014 223.771208 
L 389.572675 228.246697 
L 386.293336 229.925419 
L 383.013998 229.851474 
L 379.734659 228.779399 
L 376.45532 227.234604 
L 373.175982 225.564286 
L 369.896643 223.979948 
L 366.617304 222.592523 
L 363.337966 221.441032 
L 360.058627 220.515641 
L 356.779288 219.77586 
L 353.49995 219.164622 
L 350.220611 218.618832 
L 346.941273 218.076992 
L 343.661934 217.484385 
L 340.382595 216.796275 
L 337.103257 215.979538 
L 333.823918 215.013042 
L 330.544579 213.887121 
L 327.265241 212.602366 
L 323.985902 211.167993 
L 320.706563 209.599943 
L 317.427225 207.918901 
L 314.147886 206.148334 
L 310.868547 204.312662 
L 307.589209 202.435634 
L 304.30987 200.538958 
L 301.030531 198.641225 
L 297.751193 196.757141 
L 294.471854 194.897066 
L 291.192516 193.06686 
L 287.913177 191.268007 
L 284.633838 189.497996 
L 281.3545 187.750913 
L 278.075161 186.018216 
L 274.795822 184.289645 
L 271.516484 182.554216 
L 268.237145 180.801263 
L 264.957806 179.02147 
L 261.678468 177.207868 
L 258.399129 175.356732 
L 255.11979 173.468367 
L 251.840452 171.547725 
L 248.561113 169.604845 
L 245.281774 167.655091 
L 242.002436 165.719156 
L 238.723097 226.797474 
L 235.443759 226.797684 
L 232.16442 159.774642 
L 228.885081 158.190278 
L 225.605743 156.813335 
L 222.326404 155.682828 
L 219.047065 154.835952 
L 215.767727 154.306696 
L 212.488388 154.124428 
L 209.209049 154.312507 
L 205.929711 154.886964 
L 202.650372 155.855305 
L 199.371033 157.215468 
L 196.091695 158.954994 
L 192.812356 161.050456 
L 189.533017 163.467181 
L 186.253679 166.15932 
L 182.97434 169.070285 
L 179.695001 172.1336 
L 176.415663 175.274169 
L 173.136324 178.409997 
L 169.856986 181.454338 
L 166.577647 184.318291 
L 163.298308 186.913793 
L 160.01897 189.156984 
L 156.739631 190.971884 
L 153.460292 192.294294 
L 150.180954 193.075837 
L 146.901615 193.287992 
L 143.622276 192.925995 
L 140.342938 192.012396 
L 137.063599 190.600089 
L 133.78426 188.774542 
L 130.504922 186.654963 
L 127.225583 184.394063 
L 123.946244 182.176061 
L 120.666906 180.21251 
L 117.387567 178.735493 
L 114.108229 177.987667 
L 110.82889 178.208599 
L 107.549551 179.616764 
L 104.270213 182.386516 
L 100.990874 186.619294 
L 97.711535 192.30823 
L 94.432197 199.295279 
L 91.152858 207.219895 
L 87.873519 215.458225 
L 84.594181 223.051672 
L 81.314842 228.623627 
L 78.035503 230.283052 
L 74.756165 225.513523 
z
" clip-path="url(#p53a50dd174)" style="fill: #d62728; fill-opacity: 0.166667"/>
   </g>
   <g id="PolyCollection_5">
    <path d="M 74.756165 230.137284 
L 74.756165 226.809403 
L 78.035503 226.809403 
L 81.314842 226.809403 
L 84.594181 226.809403 
L 87.873519 226.809403 
L 91.152858 226.809403 
L 94.432197 226.809403 
L 97.711535 226.809403 
L 100.990874 226.809403 
L 104.270213 226.809403 
L 107.549551 226.809403 
L 110.82889 226.809403 
L 114.108229 226.809403 
L 117.387567 226.809403 
L 120.666906 226.809403 
L 123.946244 226.809403 
L 127.225583 226.809403 
L 130.504922 226.809403 
L 133.78426 226.809403 
L 137.063599 226.809403 
L 140.342938 226.809403 
L 143.622276 226.809403 
L 146.901615 226.809403 
L 150.180954 226.809403 
L 153.460292 226.809403 
L 156.739631 226.809403 
L 160.01897 226.809403 
L 163.298308 226.809403 
L 166.577647 226.809403 
L 169.856986 226.809403 
L 173.136324 226.809403 
L 176.415663 226.809403 
L 179.695001 226.809403 
L 182.97434 226.809403 
L 186.253679 226.809403 
L 189.533017 226.809403 
L 192.812356 226.809403 
L 196.091695 226.809403 
L 199.371033 226.809403 
L 202.650372 226.809403 
L 205.929711 226.809403 
L 209.209049 226.809403 
L 212.488388 226.809403 
L 215.767727 226.809403 
L 219.047065 226.809403 
L 222.326404 226.809403 
L 225.605743 226.809403 
L 228.885081 226.809403 
L 232.16442 226.809403 
L 235.443759 226.809403 
L 238.723097 226.809403 
L 242.002436 226.809403 
L 245.281774 226.809403 
L 248.561113 226.809403 
L 251.840452 226.809403 
L 255.11979 226.809403 
L 258.399129 226.809403 
L 261.678468 226.809403 
L 264.957806 226.809403 
L 268.237145 226.809403 
L 271.516484 226.809403 
L 274.795822 226.809403 
L 278.075161 226.809403 
L 281.3545 226.809403 
L 284.633838 226.809403 
L 287.913177 226.809403 
L 291.192516 226.809403 
L 294.471854 226.809403 
L 297.751193 226.809403 
L 301.030531 226.809403 
L 304.30987 226.809403 
L 307.589209 226.809403 
L 310.868547 226.809403 
L 314.147886 226.809403 
L 317.427225 226.809403 
L 320.706563 226.809403 
L 323.985902 226.809403 
L 327.265241 226.809403 
L 330.544579 226.809403 
L 333.823918 226.809403 
L 337.103257 226.809403 
L 340.382595 226.809403 
L 343.661934 226.809403 
L 346.941273 226.809403 
L 350.220611 226.809403 
L 353.49995 226.809403 
L 356.779288 226.809403 
L 360.058627 226.809403 
L 363.337966 226.809403 
L 366.617304 226.809403 
L 369.896643 226.809403 
L 373.175982 226.809403 
L 376.45532 226.809403 
L 379.734659 226.809403 
L 383.013998 226.809403 
L 386.293336 226.809403 
L 389.572675 226.809403 
L 392.852014 226.809403 
L 396.131352 226.809403 
L 399.410691 226.809403 
L 399.410691 189.596146 
L 399.410691 189.596146 
L 396.131352 210.986137 
L 392.852014 223.069747 
L 389.572675 228.858623 
L 386.293336 230.62712 
L 383.013998 230.049275 
L 379.734659 228.316479 
L 376.45532 226.237888 
L 373.175982 224.325427 
L 369.896643 222.865131 
L 366.617304 221.976396 
L 363.337966 221.660615 
L 360.058627 221.840542 
L 356.779288 222.391597 
L 353.49995 223.166232 
L 350.220611 224.012374 
L 346.941273 224.786851 
L 343.661934 225.364627 
L 340.382595 225.644576 
L 337.103257 225.552456 
L 333.823918 225.041658 
L 330.544579 224.092232 
L 327.265241 222.708651 
L 323.985902 220.916667 
L 320.706563 218.759613 
L 317.427225 216.294407 
L 314.147886 213.587495 
L 310.868547 210.710904 
L 307.589209 207.738575 
L 304.30987 204.743054 
L 301.030531 201.792648 
L 297.751193 198.949077 
L 294.471854 196.265662 
L 291.192516 193.786047 
L 287.913177 191.543433 
L 284.633838 189.56032 
L 281.3545 187.84869 
L 278.075161 186.410592 
L 274.795822 185.239071 
L 271.516484 184.319371 
L 268.237145 183.63035 
L 264.957806 183.146036 
L 261.678468 182.837252 
L 258.399129 182.673253 
L 255.11979 182.623306 
L 251.840452 182.658154 
L 248.561113 182.75132 
L 245.281774 182.880195 
L 242.002436 183.026895 
L 238.723097 226.800565 
L 235.443759 226.800664 
L 232.16442 183.166442 
L 228.885081 183.24389 
L 225.605743 183.348166 
L 222.326404 183.493561 
L 219.047065 183.696151 
L 215.767727 183.972414 
L 212.488388 184.337735 
L 209.209049 184.804822 
L 205.929711 185.382122 
L 202.650372 186.072274 
L 199.371033 186.870691 
L 196.091695 187.764321 
L 192.812356 188.73067 
L 189.533017 189.737151 
L 186.253679 190.740826 
L 182.97434 191.688599 
L 179.695001 192.51792 
L 176.415663 193.158045 
L 173.136324 193.531869 
L 169.856986 193.558377 
L 166.577647 193.155691 
L 163.298308 192.244708 
L 160.01897 190.753281 
L 156.739631 188.620878 
L 153.460292 185.80362 
L 150.180954 182.279575 
L 146.901615 178.054126 
L 143.622276 173.165226 
L 140.342938 167.688273 
L 137.063599 161.740311 
L 133.78426 155.483212 
L 130.504922 149.125417 
L 127.225583 142.921778 
L 123.946244 137.170961 
L 120.666906 132.209798 
L 117.387567 128.40392 
L 114.108229 126.133885 
L 110.82889 125.775979 
L 107.549551 127.676723 
L 104.270213 132.120074 
L 100.990874 139.28615 
L 97.711535 149.20026 
L 94.432197 161.67085 
L 91.152858 176.214903 
L 87.873519 191.96916 
L 84.594181 207.585431 
L 81.314842 221.108111 
L 78.035503 229.831863 
L 74.756165 230.137284 
z
" clip-path="url(#p53a50dd174)" style="fill: #9467bd; fill-opacity: 0.166667"/>
   </g>
   <g id="PolyCollection_6">
    <path d="M 74.756165 230.473663 
L 74.756165 226.809403 
L 78.035504 226.809403 
L 81.314842 226.809403 
L 84.594181 226.809403 
L 87.87352 226.809403 
L 91.152859 226.809403 
L 94.432198 226.809403 
L 97.711537 226.809403 
L 100.990876 226.809403 
L 104.270214 226.809403 
L 107.549553 226.809403 
L 110.828892 226.809403 
L 114.108231 226.809403 
L 117.38757 226.809403 
L 120.666909 226.809403 
L 123.946247 226.809403 
L 127.225586 226.809403 
L 130.504925 226.809403 
L 133.784264 226.809403 
L 137.063603 226.809403 
L 140.342942 226.809403 
L 143.62228 226.809403 
L 146.901619 226.809403 
L 150.180958 226.809403 
L 153.460297 226.809403 
L 156.739636 226.809403 
L 160.018975 226.809403 
L 163.298314 226.809403 
L 166.577652 226.809403 
L 169.856991 226.809403 
L 173.13633 226.809403 
L 176.415669 226.809403 
L 179.695008 226.809403 
L 182.974347 226.809403 
L 186.253685 226.809403 
L 189.533024 226.809403 
L 192.812363 226.809403 
L 196.091702 226.809403 
L 199.371041 226.809403 
L 202.65038 226.809403 
L 205.929718 226.809403 
L 209.209057 226.809403 
L 212.488396 226.809403 
L 215.767735 226.809403 
L 219.047074 226.809403 
L 222.326413 226.809403 
L 225.605752 226.809403 
L 228.88509 226.809403 
L 232.164429 226.809403 
L 235.443768 226.809403 
L 238.723107 226.809403 
L 242.002446 226.809403 
L 245.281785 226.809403 
L 248.561123 226.809403 
L 251.840462 226.809403 
L 255.119801 226.809403 
L 258.39914 226.809403 
L 261.678479 226.809403 
L 264.957818 226.809403 
L 268.237157 226.809403 
L 271.516495 226.809403 
L 274.795834 226.809403 
L 278.075173 226.809403 
L 281.354512 226.809403 
L 284.633851 226.809403 
L 287.91319 226.809403 
L 291.192528 226.809403 
L 294.471867 226.809403 
L 297.751206 226.809403 
L 301.030545 226.809403 
L 304.309884 226.809403 
L 307.589223 226.809403 
L 310.868561 226.809403 
L 314.1479 226.809403 
L 317.427239 226.809403 
L 320.706578 226.809403 
L 323.985917 226.809403 
L 327.265256 226.809403 
L 330.544595 226.809403 
L 333.823933 226.809403 
L 337.103272 226.809403 
L 340.382611 226.809403 
L 343.66195 226.809403 
L 346.941289 226.809403 
L 350.220628 226.809403 
L 353.499966 226.809403 
L 356.779305 226.809403 
L 360.058644 226.809403 
L 363.337983 226.809403 
L 366.617322 226.809403 
L 369.896661 226.809403 
L 373.175999 226.809403 
L 376.455338 226.809403 
L 379.734677 226.809403 
L 383.014016 226.809403 
L 386.293355 226.809403 
L 389.572694 226.809403 
L 392.852033 226.809403 
L 396.131371 226.809403 
L 399.41071 226.809403 
L 399.41071 181.808068 
L 399.41071 181.808068 
L 396.131371 205.495524 
L 392.852033 220.037294 
L 389.572694 228.026365 
L 386.293355 231.50493 
L 383.014016 232.052714 
L 379.734677 230.864534 
L 376.455338 228.81808 
L 373.175999 226.532826 
L 369.896661 224.420941 
L 366.617322 222.731005 
L 363.337983 221.585247 
L 360.058644 221.011029 
L 356.779305 220.967188 
L 353.499966 221.365824 
L 350.220628 222.090099 
L 346.941289 223.008512 
L 343.66195 223.986133 
L 340.382611 224.893187 
L 337.103272 225.611388 
L 333.823933 226.038345 
L 330.544595 226.090363 
L 327.265256 225.703908 
L 323.985917 224.835984 
L 320.706578 223.463645 
L 317.427239 221.582839 
L 314.1479 219.206738 
L 310.868561 216.363727 
L 307.589223 213.095156 
L 304.309884 209.452976 
L 301.030545 205.497352 
L 297.751206 201.294312 
L 294.471867 196.913516 
L 291.192528 192.426167 
L 287.91319 187.903124 
L 284.633851 183.413219 
L 281.354512 179.021817 
L 278.075173 174.789601 
L 274.795834 170.77161 
L 271.516495 167.016497 
L 268.237157 163.566022 
L 264.957818 160.454743 
L 261.678479 157.709906 
L 258.39914 155.351498 
L 255.119801 153.392449 
L 251.840462 151.838967 
L 248.561123 150.690959 
L 245.281785 149.942546 
L 242.002446 149.582621 
L 238.723107 226.797823 
L 235.443768 226.797829 
L 232.164429 150.026635 
L 228.88509 150.934105 
L 225.605752 152.152123 
L 222.326413 153.652839 
L 219.047074 155.405507 
L 215.767735 157.376892 
L 212.488396 159.531681 
L 209.209057 161.832899 
L 205.929718 164.242331 
L 202.65038 166.720953 
L 199.371041 169.229363 
L 196.091702 171.728237 
L 192.812363 174.178792 
L 189.533024 176.543269 
L 186.253685 178.785442 
L 182.974347 180.871151 
L 179.695008 182.768862 
L 176.415669 184.450258 
L 173.13633 185.890859 
L 169.856991 187.07067 
L 166.577652 187.974852 
L 163.298314 188.594408 
L 160.018975 188.926874 
L 156.739636 188.977002 
L 153.460297 188.757414 
L 150.180958 188.289202 
L 146.901619 187.602449 
L 143.62228 186.736628 
L 140.342942 185.740835 
L 137.063603 184.673818 
L 133.784264 183.603723 
L 130.504925 182.607494 
L 127.225586 181.769861 
L 123.946247 181.181797 
L 120.666909 180.938368 
L 117.38757 181.135843 
L 114.108231 181.867935 
L 110.828892 183.221037 
L 107.549553 185.268281 
L 104.270214 188.062248 
L 100.990876 191.626125 
L 97.711537 195.943105 
L 94.432198 200.943779 
L 91.152859 206.491272 
L 87.87352 212.36384 
L 84.594181 218.234618 
L 81.314842 223.648192 
L 78.035504 227.993643 
L 74.756165 230.473663 
z
" clip-path="url(#p53a50dd174)" style="fill: #8c564b; fill-opacity: 0.166667"/>
   </g>
   <g id="matplotlib.axis_1">
    <g id="xtick_1">
     <g id="line2d_1">
      <defs>
       <path id="m4f4e56bbba" d="M 0 0 
L 0 3.5 
" style="stroke: #000000; stroke-width: 0.8"/>
      </defs>
      <g>
       <use xlink:href="#m4f4e56bbba" x="74.756165" y="288.430125" style="stroke: #000000; stroke-width: 0.8"/>
      </g>
     </g>
     <g id="text_1">
      <!-- 0.0 -->
      <g transform="translate(66.804602 303.028562) scale(0.1 -0.1)">
       <defs>
        <path id="DejaVuSans-30" d="M 2034 4250 
Q 1547 4250 1301 3770 
Q 1056 3291 1056 2328 
Q 1056 1369 1301 889 
Q 1547 409 2034 409 
Q 2525 409 2770 889 
Q 3016 1369 3016 2328 
Q 3016 3291 2770 3770 
Q 2525 4250 2034 4250 
z
M 2034 4750 
Q 2819 4750 3233 4129 
Q 3647 3509 3647 2328 
Q 3647 1150 3233 529 
Q 2819 -91 2034 -91 
Q 1250 -91 836 529 
Q 422 1150 422 2328 
Q 422 3509 836 4129 
Q 1250 4750 2034 4750 
z
" transform="scale(0.015625)"/>
        <path id="DejaVuSans-2e" d="M 684 794 
L 1344 794 
L 1344 0 
L 684 0 
L 684 794 
z
" transform="scale(0.015625)"/>
       </defs>
       <use xlink:href="#DejaVuSans-30"/>
       <use xlink:href="#DejaVuSans-2e" x="63.623047"/>
       <use xlink:href="#DejaVuSans-30" x="95.410156"/>
      </g>
     </g>
    </g>
    <g id="xtick_2">
     <g id="line2d_2">
      <g>
       <use xlink:href="#m4f4e56bbba" x="140.342942" y="288.430125" style="stroke: #000000; stroke-width: 0.8"/>
      </g>
     </g>
     <g id="text_2">
      <!-- 0.2 -->
      <g transform="translate(132.391379 303.028562) scale(0.1 -0.1)">
       <defs>
        <path id="DejaVuSans-32" d="M 1228 531 
L 3431 531 
L 3431 0 
L 469 0 
L 469 531 
Q 828 903 1448 1529 
Q 2069 2156 2228 2338 
Q 2531 2678 2651 2914 
Q 2772 3150 2772 3378 
Q 2772 3750 2511 3984 
Q 2250 4219 1831 4219 
Q 1534 4219 1204 4116 
Q 875 4013 500 3803 
L 500 4441 
Q 881 4594 1212 4672 
Q 1544 4750 1819 4750 
Q 2544 4750 2975 4387 
Q 3406 4025 3406 3419 
Q 3406 3131 3298 2873 
Q 3191 2616 2906 2266 
Q 2828 2175 2409 1742 
Q 1991 1309 1228 531 
z
" transform="scale(0.015625)"/>
       </defs>
       <use xlink:href="#DejaVuSans-30"/>
       <use xlink:href="#DejaVuSans-2e" x="63.623047"/>
       <use xlink:href="#DejaVuSans-32" x="95.410156"/>
      </g>
     </g>
    </g>
    <g id="xtick_3">
     <g id="line2d_3">
      <g>
       <use xlink:href="#m4f4e56bbba" x="205.929718" y="288.430125" style="stroke: #000000; stroke-width: 0.8"/>
      </g>
     </g>
     <g id="text_3">
      <!-- 0.4 -->
      <g transform="translate(197.978156 303.028562) scale(0.1 -0.1)">
       <defs>
        <path id="DejaVuSans-34" d="M 2419 4116 
L 825 1625 
L 2419 1625 
L 2419 4116 
z
M 2253 4666 
L 3047 4666 
L 3047 1625 
L 3713 1625 
L 3713 1100 
L 3047 1100 
L 3047 0 
L 2419 0 
L 2419 1100 
L 313 1100 
L 313 1709 
L 2253 4666 
z
" transform="scale(0.015625)"/>
       </defs>
       <use xlink:href="#DejaVuSans-30"/>
       <use xlink:href="#DejaVuSans-2e" x="63.623047"/>
       <use xlink:href="#DejaVuSans-34" x="95.410156"/>
      </g>
     </g>
    </g>
    <g id="xtick_4">
     <g id="line2d_4">
      <g>
       <use xlink:href="#m4f4e56bbba" x="271.516495" y="288.430125" style="stroke: #000000; stroke-width: 0.8"/>
      </g>
     </g>
     <g id="text_4">
      <!-- 0.6 -->
      <g transform="translate(263.564933 303.028562) scale(0.1 -0.1)">
       <defs>
        <path id="DejaVuSans-36" d="M 2113 2584 
Q 1688 2584 1439 2293 
Q 1191 2003 1191 1497 
Q 1191 994 1439 701 
Q 1688 409 2113 409 
Q 2538 409 2786 701 
Q 3034 994 3034 1497 
Q 3034 2003 2786 2293 
Q 2538 2584 2113 2584 
z
M 3366 4563 
L 3366 3988 
Q 3128 4100 2886 4159 
Q 2644 4219 2406 4219 
Q 1781 4219 1451 3797 
Q 1122 3375 1075 2522 
Q 1259 2794 1537 2939 
Q 1816 3084 2150 3084 
Q 2853 3084 3261 2657 
Q 3669 2231 3669 1497 
Q 3669 778 3244 343 
Q 2819 -91 2113 -91 
Q 1303 -91 875 529 
Q 447 1150 447 2328 
Q 447 3434 972 4092 
Q 1497 4750 2381 4750 
Q 2619 4750 2861 4703 
Q 3103 4656 3366 4563 
z
" transform="scale(0.015625)"/>
       </defs>
       <use xlink:href="#DejaVuSans-30"/>
       <use xlink:href="#DejaVuSans-2e" x="63.623047"/>
       <use xlink:href="#DejaVuSans-36" x="95.410156"/>
      </g>
     </g>
    </g>
    <g id="xtick_5">
     <g id="line2d_5">
      <g>
       <use xlink:href="#m4f4e56bbba" x="337.103272" y="288.430125" style="stroke: #000000; stroke-width: 0.8"/>
      </g>
     </g>
     <g id="text_5">
      <!-- 0.8 -->
      <g transform="translate(329.15171 303.028562) scale(0.1 -0.1)">
       <defs>
        <path id="DejaVuSans-38" d="M 2034 2216 
Q 1584 2216 1326 1975 
Q 1069 1734 1069 1313 
Q 1069 891 1326 650 
Q 1584 409 2034 409 
Q 2484 409 2743 651 
Q 3003 894 3003 1313 
Q 3003 1734 2745 1975 
Q 2488 2216 2034 2216 
z
M 1403 2484 
Q 997 2584 770 2862 
Q 544 3141 544 3541 
Q 544 4100 942 4425 
Q 1341 4750 2034 4750 
Q 2731 4750 3128 4425 
Q 3525 4100 3525 3541 
Q 3525 3141 3298 2862 
Q 3072 2584 2669 2484 
Q 3125 2378 3379 2068 
Q 3634 1759 3634 1313 
Q 3634 634 3220 271 
Q 2806 -91 2034 -91 
Q 1263 -91 848 271 
Q 434 634 434 1313 
Q 434 1759 690 2068 
Q 947 2378 1403 2484 
z
M 1172 3481 
Q 1172 3119 1398 2916 
Q 1625 2713 2034 2713 
Q 2441 2713 2670 2916 
Q 2900 3119 2900 3481 
Q 2900 3844 2670 4047 
Q 2441 4250 2034 4250 
Q 1625 4250 1398 4047 
Q 1172 3844 1172 3481 
z
" transform="scale(0.015625)"/>
       </defs>
       <use xlink:href="#DejaVuSans-30"/>
       <use xlink:href="#DejaVuSans-2e" x="63.623047"/>
       <use xlink:href="#DejaVuSans-38" x="95.410156"/>
      </g>
     </g>
    </g>
    <g id="xtick_6">
     <g id="line2d_6">
      <g>
       <use xlink:href="#m4f4e56bbba" x="402.690049" y="288.430125" style="stroke: #000000; stroke-width: 0.8"/>
      </g>
     </g>
     <g id="text_6">
      <!-- 1.0 -->
      <g transform="translate(394.738487 303.028562) scale(0.1 -0.1)">
       <defs>
        <path id="DejaVuSans-31" d="M 794 531 
L 1825 531 
L 1825 4091 
L 703 3866 
L 703 4441 
L 1819 4666 
L 2450 4666 
L 2450 531 
L 3481 531 
L 3481 0 
L 794 0 
L 794 531 
z
" transform="scale(0.015625)"/>
       </defs>
       <use xlink:href="#DejaVuSans-31"/>
       <use xlink:href="#DejaVuSans-2e" x="63.623047"/>
       <use xlink:href="#DejaVuSans-30" x="95.410156"/>
      </g>
     </g>
    </g>
    <g id="text_7">
     <!-- Pixel values -->
     <g transform="translate(207.671719 316.706687) scale(0.1 -0.1)">
      <defs>
       <path id="DejaVuSans-50" d="M 1259 4147 
L 1259 2394 
L 2053 2394 
Q 2494 2394 2734 2622 
Q 2975 2850 2975 3272 
Q 2975 3691 2734 3919 
Q 2494 4147 2053 4147 
L 1259 4147 
z
M 628 4666 
L 2053 4666 
Q 2838 4666 3239 4311 
Q 3641 3956 3641 3272 
Q 3641 2581 3239 2228 
Q 2838 1875 2053 1875 
L 1259 1875 
L 1259 0 
L 628 0 
L 628 4666 
z
" transform="scale(0.015625)"/>
       <path id="DejaVuSans-69" d="M 603 3500 
L 1178 3500 
L 1178 0 
L 603 0 
L 603 3500 
z
M 603 4863 
L 1178 4863 
L 1178 4134 
L 603 4134 
L 603 4863 
z
" transform="scale(0.015625)"/>
       <path id="DejaVuSans-78" d="M 3513 3500 
L 2247 1797 
L 3578 0 
L 2900 0 
L 1881 1375 
L 863 0 
L 184 0 
L 1544 1831 
L 300 3500 
L 978 3500 
L 1906 2253 
L 2834 3500 
L 3513 3500 
z
" transform="scale(0.015625)"/>
       <path id="DejaVuSans-65" d="M 3597 1894 
L 3597 1613 
L 953 1613 
Q 991 1019 1311 708 
Q 1631 397 2203 397 
Q 2534 397 2845 478 
Q 3156 559 3463 722 
L 3463 178 
Q 3153 47 2828 -22 
Q 2503 -91 2169 -91 
Q 1331 -91 842 396 
Q 353 884 353 1716 
Q 353 2575 817 3079 
Q 1281 3584 2069 3584 
Q 2775 3584 3186 3129 
Q 3597 2675 3597 1894 
z
M 3022 2063 
Q 3016 2534 2758 2815 
Q 2500 3097 2075 3097 
Q 1594 3097 1305 2825 
Q 1016 2553 972 2059 
L 3022 2063 
z
" transform="scale(0.015625)"/>
       <path id="DejaVuSans-6c" d="M 603 4863 
L 1178 4863 
L 1178 0 
L 603 0 
L 603 4863 
z
" transform="scale(0.015625)"/>
       <path id="DejaVuSans-20" transform="scale(0.015625)"/>
       <path id="DejaVuSans-76" d="M 191 3500 
L 800 3500 
L 1894 563 
L 2988 3500 
L 3597 3500 
L 2284 0 
L 1503 0 
L 191 3500 
z
" transform="scale(0.015625)"/>
       <path id="DejaVuSans-61" d="M 2194 1759 
Q 1497 1759 1228 1600 
Q 959 1441 959 1056 
Q 959 750 1161 570 
Q 1363 391 1709 391 
Q 2188 391 2477 730 
Q 2766 1069 2766 1631 
L 2766 1759 
L 2194 1759 
z
M 3341 1997 
L 3341 0 
L 2766 0 
L 2766 531 
Q 2569 213 2275 61 
Q 1981 -91 1556 -91 
Q 1019 -91 701 211 
Q 384 513 384 1019 
Q 384 1609 779 1909 
Q 1175 2209 1959 2209 
L 2766 2209 
L 2766 2266 
Q 2766 2663 2505 2880 
Q 2244 3097 1772 3097 
Q 1472 3097 1187 3025 
Q 903 2953 641 2809 
L 641 3341 
Q 956 3463 1253 3523 
Q 1550 3584 1831 3584 
Q 2591 3584 2966 3190 
Q 3341 2797 3341 1997 
z
" transform="scale(0.015625)"/>
       <path id="DejaVuSans-75" d="M 544 1381 
L 544 3500 
L 1119 3500 
L 1119 1403 
Q 1119 906 1312 657 
Q 1506 409 1894 409 
Q 2359 409 2629 706 
Q 2900 1003 2900 1516 
L 2900 3500 
L 3475 3500 
L 3475 0 
L 2900 0 
L 2900 538 
Q 2691 219 2414 64 
Q 2138 -91 1772 -91 
Q 1169 -91 856 284 
Q 544 659 544 1381 
z
M 1991 3584 
L 1991 3584 
z
" transform="scale(0.015625)"/>
       <path id="DejaVuSans-73" d="M 2834 3397 
L 2834 2853 
Q 2591 2978 2328 3040 
Q 2066 3103 1784 3103 
Q 1356 3103 1142 2972 
Q 928 2841 928 2578 
Q 928 2378 1081 2264 
Q 1234 2150 1697 2047 
L 1894 2003 
Q 2506 1872 2764 1633 
Q 3022 1394 3022 966 
Q 3022 478 2636 193 
Q 2250 -91 1575 -91 
Q 1294 -91 989 -36 
Q 684 19 347 128 
L 347 722 
Q 666 556 975 473 
Q 1284 391 1588 391 
Q 1994 391 2212 530 
Q 2431 669 2431 922 
Q 2431 1156 2273 1281 
Q 2116 1406 1581 1522 
L 1381 1569 
Q 847 1681 609 1914 
Q 372 2147 372 2553 
Q 372 3047 722 3315 
Q 1072 3584 1716 3584 
Q 2034 3584 2315 3537 
Q 2597 3491 2834 3397 
z
" transform="scale(0.015625)"/>
      </defs>
      <use xlink:href="#DejaVuSans-50"/>
      <use xlink:href="#DejaVuSans-69" x="58.052734"/>
      <use xlink:href="#DejaVuSans-78" x="85.835938"/>
      <use xlink:href="#DejaVuSans-65" x="141.890625"/>
      <use xlink:href="#DejaVuSans-6c" x="203.414062"/>
      <use xlink:href="#DejaVuSans-20" x="231.197266"/>
      <use xlink:href="#DejaVuSans-76" x="262.984375"/>
      <use xlink:href="#DejaVuSans-61" x="322.164062"/>
      <use xlink:href="#DejaVuSans-6c" x="383.443359"/>
      <use xlink:href="#DejaVuSans-75" x="411.226562"/>
      <use xlink:href="#DejaVuSans-65" x="474.605469"/>
      <use xlink:href="#DejaVuSans-73" x="536.128906"/>
     </g>
    </g>
   </g>
   <g id="matplotlib.axis_2">
    <g id="ytick_1">
     <g id="line2d_7">
      <defs>
       <path id="m506aaaea7d" d="M 0 0 
L -3.5 0 
" style="stroke: #000000; stroke-width: 0.8"/>
      </defs>
      <g>
       <use xlink:href="#m506aaaea7d" x="58.523438" y="261.882398" style="stroke: #000000; stroke-width: 0.8"/>
      </g>
     </g>
     <g id="text_8">
      <!-- −0.01 -->
      <g transform="translate(20.878125 265.681617) scale(0.1 -0.1)">
       <defs>
        <path id="DejaVuSans-2212" d="M 678 2272 
L 4684 2272 
L 4684 1741 
L 678 1741 
L 678 2272 
z
" transform="scale(0.015625)"/>
       </defs>
       <use xlink:href="#DejaVuSans-2212"/>
       <use xlink:href="#DejaVuSans-30" x="83.789062"/>
       <use xlink:href="#DejaVuSans-2e" x="147.412109"/>
       <use xlink:href="#DejaVuSans-30" x="179.199219"/>
       <use xlink:href="#DejaVuSans-31" x="242.822266"/>
      </g>
     </g>
    </g>
    <g id="ytick_2">
     <g id="line2d_8">
      <g>
       <use xlink:href="#m506aaaea7d" x="58.523438" y="226.809403" style="stroke: #000000; stroke-width: 0.8"/>
      </g>
     </g>
     <g id="text_9">
      <!-- 0.00 -->
      <g transform="translate(29.257813 230.608622) scale(0.1 -0.1)">
       <use xlink:href="#DejaVuSans-30"/>
       <use xlink:href="#DejaVuSans-2e" x="63.623047"/>
       <use xlink:href="#DejaVuSans-30" x="95.410156"/>
       <use xlink:href="#DejaVuSans-30" x="159.033203"/>
      </g>
     </g>
    </g>
    <g id="ytick_3">
     <g id="line2d_9">
      <g>
       <use xlink:href="#m506aaaea7d" x="58.523438" y="191.736407" style="stroke: #000000; stroke-width: 0.8"/>
      </g>
     </g>
     <g id="text_10">
      <!-- 0.01 -->
      <g transform="translate(29.257813 195.535626) scale(0.1 -0.1)">
       <use xlink:href="#DejaVuSans-30"/>
       <use xlink:href="#DejaVuSans-2e" x="63.623047"/>
       <use xlink:href="#DejaVuSans-30" x="95.410156"/>
       <use xlink:href="#DejaVuSans-31" x="159.033203"/>
      </g>
     </g>
    </g>
    <g id="ytick_4">
     <g id="line2d_10">
      <g>
       <use xlink:href="#m506aaaea7d" x="58.523438" y="156.663412" style="stroke: #000000; stroke-width: 0.8"/>
      </g>
     </g>
     <g id="text_11">
      <!-- 0.02 -->
      <g transform="translate(29.257813 160.462631) scale(0.1 -0.1)">
       <use xlink:href="#DejaVuSans-30"/>
       <use xlink:href="#DejaVuSans-2e" x="63.623047"/>
       <use xlink:href="#DejaVuSans-30" x="95.410156"/>
       <use xlink:href="#DejaVuSans-32" x="159.033203"/>
      </g>
     </g>
    </g>
    <g id="ytick_5">
     <g id="line2d_11">
      <g>
       <use xlink:href="#m506aaaea7d" x="58.523438" y="121.590417" style="stroke: #000000; stroke-width: 0.8"/>
      </g>
     </g>
     <g id="text_12">
      <!-- 0.03 -->
      <g transform="translate(29.257813 125.389635) scale(0.1 -0.1)">
       <defs>
        <path id="DejaVuSans-33" d="M 2597 2516 
Q 3050 2419 3304 2112 
Q 3559 1806 3559 1356 
Q 3559 666 3084 287 
Q 2609 -91 1734 -91 
Q 1441 -91 1130 -33 
Q 819 25 488 141 
L 488 750 
Q 750 597 1062 519 
Q 1375 441 1716 441 
Q 2309 441 2620 675 
Q 2931 909 2931 1356 
Q 2931 1769 2642 2001 
Q 2353 2234 1838 2234 
L 1294 2234 
L 1294 2753 
L 1863 2753 
Q 2328 2753 2575 2939 
Q 2822 3125 2822 3475 
Q 2822 3834 2567 4026 
Q 2313 4219 1838 4219 
Q 1578 4219 1281 4162 
Q 984 4106 628 3988 
L 628 4550 
Q 988 4650 1302 4700 
Q 1616 4750 1894 4750 
Q 2613 4750 3031 4423 
Q 3450 4097 3450 3541 
Q 3450 3153 3228 2886 
Q 3006 2619 2597 2516 
z
" transform="scale(0.015625)"/>
       </defs>
       <use xlink:href="#DejaVuSans-30"/>
       <use xlink:href="#DejaVuSans-2e" x="63.623047"/>
       <use xlink:href="#DejaVuSans-30" x="95.410156"/>
       <use xlink:href="#DejaVuSans-33" x="159.033203"/>
      </g>
     </g>
    </g>
    <g id="ytick_6">
     <g id="line2d_12">
      <g>
       <use xlink:href="#m506aaaea7d" x="58.523438" y="86.517421" style="stroke: #000000; stroke-width: 0.8"/>
      </g>
     </g>
     <g id="text_13">
      <!-- 0.04 -->
      <g transform="translate(29.257813 90.31664) scale(0.1 -0.1)">
       <use xlink:href="#DejaVuSans-30"/>
       <use xlink:href="#DejaVuSans-2e" x="63.623047"/>
       <use xlink:href="#DejaVuSans-30" x="95.410156"/>
       <use xlink:href="#DejaVuSans-34" x="159.033203"/>
      </g>
     </g>
    </g>
    <g id="ytick_7">
     <g id="line2d_13">
      <g>
       <use xlink:href="#m506aaaea7d" x="58.523438" y="51.444426" style="stroke: #000000; stroke-width: 0.8"/>
      </g>
     </g>
     <g id="text_14">
      <!-- 0.05 -->
      <g transform="translate(29.257813 55.243645) scale(0.1 -0.1)">
       <defs>
        <path id="DejaVuSans-35" d="M 691 4666 
L 3169 4666 
L 3169 4134 
L 1269 4134 
L 1269 2991 
Q 1406 3038 1543 3061 
Q 1681 3084 1819 3084 
Q 2600 3084 3056 2656 
Q 3513 2228 3513 1497 
Q 3513 744 3044 326 
Q 2575 -91 1722 -91 
Q 1428 -91 1123 -41 
Q 819 9 494 109 
L 494 744 
Q 775 591 1075 516 
Q 1375 441 1709 441 
Q 2250 441 2565 725 
Q 2881 1009 2881 1497 
Q 2881 1984 2565 2268 
Q 2250 2553 1709 2553 
Q 1456 2553 1204 2497 
Q 953 2441 691 2322 
L 691 4666 
z
" transform="scale(0.015625)"/>
       </defs>
       <use xlink:href="#DejaVuSans-30"/>
       <use xlink:href="#DejaVuSans-2e" x="63.623047"/>
       <use xlink:href="#DejaVuSans-30" x="95.410156"/>
       <use xlink:href="#DejaVuSans-35" x="159.033203"/>
      </g>
     </g>
    </g>
    <g id="text_15">
     <!-- Frequency -->
     <g transform="translate(14.798438 181.203812) rotate(-90) scale(0.1 -0.1)">
      <defs>
       <path id="DejaVuSans-46" d="M 628 4666 
L 3309 4666 
L 3309 4134 
L 1259 4134 
L 1259 2759 
L 3109 2759 
L 3109 2228 
L 1259 2228 
L 1259 0 
L 628 0 
L 628 4666 
z
" transform="scale(0.015625)"/>
       <path id="DejaVuSans-72" d="M 2631 2963 
Q 2534 3019 2420 3045 
Q 2306 3072 2169 3072 
Q 1681 3072 1420 2755 
Q 1159 2438 1159 1844 
L 1159 0 
L 581 0 
L 581 3500 
L 1159 3500 
L 1159 2956 
Q 1341 3275 1631 3429 
Q 1922 3584 2338 3584 
Q 2397 3584 2469 3576 
Q 2541 3569 2628 3553 
L 2631 2963 
z
" transform="scale(0.015625)"/>
       <path id="DejaVuSans-71" d="M 947 1747 
Q 947 1113 1208 752 
Q 1469 391 1925 391 
Q 2381 391 2643 752 
Q 2906 1113 2906 1747 
Q 2906 2381 2643 2742 
Q 2381 3103 1925 3103 
Q 1469 3103 1208 2742 
Q 947 2381 947 1747 
z
M 2906 525 
Q 2725 213 2448 61 
Q 2172 -91 1784 -91 
Q 1150 -91 751 415 
Q 353 922 353 1747 
Q 353 2572 751 3078 
Q 1150 3584 1784 3584 
Q 2172 3584 2448 3432 
Q 2725 3281 2906 2969 
L 2906 3500 
L 3481 3500 
L 3481 -1331 
L 2906 -1331 
L 2906 525 
z
" transform="scale(0.015625)"/>
       <path id="DejaVuSans-6e" d="M 3513 2113 
L 3513 0 
L 2938 0 
L 2938 2094 
Q 2938 2591 2744 2837 
Q 2550 3084 2163 3084 
Q 1697 3084 1428 2787 
Q 1159 2491 1159 1978 
L 1159 0 
L 581 0 
L 581 3500 
L 1159 3500 
L 1159 2956 
Q 1366 3272 1645 3428 
Q 1925 3584 2291 3584 
Q 2894 3584 3203 3211 
Q 3513 2838 3513 2113 
z
" transform="scale(0.015625)"/>
       <path id="DejaVuSans-63" d="M 3122 3366 
L 3122 2828 
Q 2878 2963 2633 3030 
Q 2388 3097 2138 3097 
Q 1578 3097 1268 2742 
Q 959 2388 959 1747 
Q 959 1106 1268 751 
Q 1578 397 2138 397 
Q 2388 397 2633 464 
Q 2878 531 3122 666 
L 3122 134 
Q 2881 22 2623 -34 
Q 2366 -91 2075 -91 
Q 1284 -91 818 406 
Q 353 903 353 1747 
Q 353 2603 823 3093 
Q 1294 3584 2113 3584 
Q 2378 3584 2631 3529 
Q 2884 3475 3122 3366 
z
" transform="scale(0.015625)"/>
       <path id="DejaVuSans-79" d="M 2059 -325 
Q 1816 -950 1584 -1140 
Q 1353 -1331 966 -1331 
L 506 -1331 
L 506 -850 
L 844 -850 
Q 1081 -850 1212 -737 
Q 1344 -625 1503 -206 
L 1606 56 
L 191 3500 
L 800 3500 
L 1894 763 
L 2988 3500 
L 3597 3500 
L 2059 -325 
z
" transform="scale(0.015625)"/>
      </defs>
      <use xlink:href="#DejaVuSans-46"/>
      <use xlink:href="#DejaVuSans-72" x="50.269531"/>
      <use xlink:href="#DejaVuSans-65" x="89.132812"/>
      <use xlink:href="#DejaVuSans-71" x="150.65625"/>
      <use xlink:href="#DejaVuSans-75" x="214.132812"/>
      <use xlink:href="#DejaVuSans-65" x="277.511719"/>
      <use xlink:href="#DejaVuSans-6e" x="339.035156"/>
      <use xlink:href="#DejaVuSans-63" x="402.414062"/>
      <use xlink:href="#DejaVuSans-79" x="457.394531"/>
     </g>
    </g>
   </g>
   <g id="line2d_14">
    <path d="M 74.756165 276.334125 
L 78.035504 209.041383 
L 81.314842 153.67298 
L 84.594181 109.940011 
L 87.87352 77.1699 
L 91.152859 54.420156 
L 94.432198 40.573158 
L 97.711537 34.414125 
L 100.990876 34.694206 
L 104.270214 40.180503 
L 107.549553 49.694697 
L 110.828892 62.141788 
L 114.108231 76.530348 
L 117.38757 91.985564 
L 120.666909 107.756198 
L 123.946247 123.216534 
L 127.225586 137.864224 
L 130.504925 151.314881 
L 133.784264 163.294161 
L 137.063603 173.627986 
L 140.342942 182.2315 
L 143.62228 189.097234 
L 146.901619 194.282937 
L 150.180958 197.899422 
L 153.460297 200.098731 
L 156.739636 201.062885 
L 160.018975 200.993401 
L 163.298314 200.10174 
L 166.577652 198.600794 
L 169.856991 196.697486 
L 173.13633 194.586525 
L 176.415669 192.445327 
L 179.695008 190.430086 
L 182.974347 188.672951 
L 186.253685 187.280266 
L 189.533024 186.331783 
L 192.812363 185.880776 
L 196.091702 185.954947 
L 199.371041 186.558031 
L 202.65038 187.671978 
L 205.929718 189.259609 
L 209.209057 191.267635 
L 212.488396 193.629914 
L 215.767735 196.270852 
L 219.047074 199.108837 
L 222.326413 202.05961 
L 225.605752 205.039485 
L 228.88509 207.968336 
L 232.164429 210.77228 
L 235.443768 226.803894 
L 238.723107 226.804784 
L 242.002446 215.049407 
L 245.281785 216.481069 
L 248.561123 217.73026 
L 251.840462 218.799896 
L 255.119801 219.698842 
L 258.39914 220.441098 
L 261.678479 221.044841 
L 264.957818 221.531349 
L 268.237157 221.923847 
L 271.516495 222.246326 
L 274.795834 222.522355 
L 278.075173 222.773947 
L 281.354512 223.020506 
L 284.633851 223.277905 
L 287.91319 223.557726 
L 291.192528 223.866699 
L 294.471867 224.206365 
L 297.751206 224.573 
L 301.030545 224.957804 
L 304.309884 225.34738 
L 307.589223 225.72449 
L 310.868561 226.069102 
L 314.1479 226.359683 
L 317.427239 226.574735 
L 320.706578 226.694503 
L 323.985917 226.702818 
L 327.265256 226.588979 
L 330.544595 226.349595 
L 333.823933 225.990255 
L 337.103272 225.526905 
L 340.382611 224.986765 
L 343.66195 224.408598 
L 346.941289 223.842131 
L 350.220628 223.346369 
L 353.499966 222.986562 
L 356.779305 222.829486 
L 360.058644 222.936736 
L 363.337983 223.355634 
L 366.617322 224.107359 
L 369.896661 225.171835 
L 373.175999 226.468892 
L 376.455338 227.835162 
L 379.734677 228.996121 
L 383.014016 229.53265 
L 386.293355 228.841429 
L 389.572694 226.088419 
L 392.852033 220.154649 
L 396.131371 209.573448 
L 399.41071 192.458207 
" clip-path="url(#p53a50dd174)" style="fill: none; stroke: #1f77b4; stroke-width: 1.5; stroke-linecap: square"/>
   </g>
   <g id="line2d_15">
    <path d="M 74.756165 220.776426 
L 78.035503 229.280749 
L 81.314842 231.653599 
L 84.594181 229.864804 
L 87.873519 225.458267 
L 91.152858 219.618754 
L 94.432197 213.230964 
L 97.711535 206.93152 
L 100.990874 201.154507 
L 104.270213 196.171109 
L 107.549551 192.12391 
L 110.82889 189.056332 
L 114.108229 186.937716 
L 117.387567 185.684465 
L 120.666906 185.177673 
L 123.946244 185.277625 
L 127.225583 185.83551 
L 130.504922 186.702705 
L 133.78426 187.737908 
L 137.063599 188.812417 
L 140.342938 189.813817 
L 143.622276 190.648294 
L 146.901615 191.24181 
L 150.180954 191.540338 
L 153.460292 191.509308 
L 156.739631 191.13246 
L 160.01897 190.410218 
L 163.298308 189.357731 
L 166.577647 188.002681 
L 169.856986 186.382966 
L 173.136324 184.544336 
L 176.415663 182.538056 
L 179.695001 180.418665 
L 182.97434 178.241863 
L 186.253679 176.062591 
L 189.533017 173.933316 
L 192.812356 171.902548 
L 196.091695 170.013615 
L 199.371033 168.303685 
L 202.650372 166.803062 
L 205.929711 165.534721 
L 209.209049 164.514105 
L 212.488388 163.749148 
L 215.767727 163.240514 
L 219.047065 162.982041 
L 222.326404 162.96135 
L 225.605743 163.160605 
L 228.885081 163.5574 
L 232.16442 164.125735 
L 235.443759 226.79817 
L 238.723097 226.797615 
L 242.002436 167.382864 
L 245.281774 168.193575 
L 248.561113 168.991859 
L 251.840452 169.761375 
L 255.11979 170.490894 
L 258.399129 171.174592 
L 261.678468 171.812148 
L 264.957806 172.408646 
L 268.237145 172.97428 
L 271.516484 173.523891 
L 274.795822 174.076324 
L 278.075161 174.653647 
L 281.3545 175.280249 
L 284.633838 175.981837 
L 287.913177 176.784373 
L 291.192516 177.712978 
L 294.471854 178.790841 
L 297.751193 180.038162 
L 301.030531 181.471176 
L 304.30987 183.101284 
L 307.589209 184.934331 
L 310.868547 186.970057 
L 314.147886 189.201756 
L 317.427225 191.616153 
L 320.706563 194.193529 
L 323.985902 196.908096 
L 327.265241 199.728613 
L 330.544579 202.619249 
L 333.823918 205.540658 
L 337.103257 208.45122 
L 340.382595 211.308419 
L 343.661934 214.070267 
L 346.941273 216.696681 
L 350.220611 219.150724 
L 353.49995 221.399548 
L 356.779288 223.414901 
L 360.058627 225.172986 
L 363.337966 226.653476 
L 366.617304 227.837422 
L 369.896643 228.70376 
L 373.175982 229.224116 
L 376.45532 229.355517 
L 379.734659 229.030627 
L 383.013998 228.145035 
L 386.293336 226.541112 
L 389.572675 223.98787 
L 392.852014 220.156223 
L 396.131352 214.588997 
L 399.410691 206.664943 
" clip-path="url(#p53a50dd174)" style="fill: none; stroke: #ff7f0e; stroke-width: 1.5; stroke-linecap: square"/>
   </g>
   <g id="line2d_16">
    <path d="M 74.756165 228.656596 
L 78.035503 227.248847 
L 81.314842 222.656325 
L 84.59418 216.278624 
L 87.873519 209.164541 
L 91.152857 202.074095 
L 94.432195 195.532366 
L 97.711534 189.875959 
L 100.990872 185.292842 
L 104.270211 181.856245 
L 107.549549 179.553271 
L 110.828888 178.308816 
L 114.108226 178.005327 
L 117.387565 178.498923 
L 120.666903 179.632323 
L 123.946242 181.245015 
L 127.22558 183.181036 
L 130.504918 185.294722 
L 133.784257 187.454731 
L 137.063595 189.546637 
L 140.342934 191.474332 
L 143.622272 193.160467 
L 146.901611 194.546137 
L 150.180949 195.589973 
L 153.460288 196.266809 
L 156.739626 196.566041 
L 160.018965 196.489797 
L 163.298303 196.051019 
L 166.577641 195.271523 
L 169.85698 194.180111 
L 173.136318 192.810784 
L 176.415657 191.201092 
L 179.694995 189.390648 
L 182.974334 187.419837 
L 186.253672 185.328706 
L 189.533011 183.156066 
L 192.812349 180.938778 
L 196.091687 178.711232 
L 199.371026 176.504995 
L 202.650364 174.348621 
L 205.929703 172.267593 
L 209.209041 170.284388 
L 212.48838 168.418629 
L 215.767718 166.687322 
L 219.047057 165.10513 
L 222.326395 163.684686 
L 225.605734 162.436913 
L 228.885072 161.371327 
L 232.16441 160.49632 
L 235.443749 226.798202 
L 238.723087 226.79786 
L 242.002426 159.61201 
L 245.281764 159.304863 
L 248.561103 159.200528 
L 251.840441 159.316631 
L 255.11978 159.670695 
L 258.399118 160.279342 
L 261.678457 161.15741 
L 264.957795 162.317011 
L 268.237133 163.766583 
L 271.516472 165.509955 
L 274.79581 167.545481 
L 278.075149 169.865282 
L 281.354487 172.454631 
L 284.633826 175.291534 
L 287.913164 178.346545 
L 291.192503 181.582845 
L 294.471841 184.956627 
L 297.75118 188.417804 
L 301.030518 191.911066 
L 304.309856 195.377284 
L 307.589195 198.75527 
L 310.868533 201.983858 
L 314.147872 205.004293 
L 317.42721 207.76286 
L 320.706549 210.213685 
L 323.985887 212.321621 
L 327.265226 214.065094 
L 330.544564 215.438749 
L 333.823902 216.455749 
L 337.103241 217.149476 
L 340.382579 217.574413 
L 343.661918 217.805918 
L 346.941256 217.938534 
L 350.220595 218.082497 
L 353.499933 218.35798 
L 356.779272 218.886617 
L 360.05861 219.779765 
L 363.337949 221.12291 
L 366.617287 222.955552 
L 369.896625 225.245854 
L 373.175964 227.859243 
L 376.455302 230.520104 
L 379.734641 232.765598 
L 383.013979 233.890575 
L 386.293318 232.882445 
L 389.572656 228.344804 
L 392.851995 218.40847 
L 396.131333 200.628527 
L 399.410672 171.865843 
" clip-path="url(#p53a50dd174)" style="fill: none; stroke: #2ca02c; stroke-width: 1.5; stroke-linecap: square"/>
   </g>
   <g id="line2d_17">
    <path d="M 74.756165 225.513523 
L 78.035503 230.283052 
L 81.314842 228.623627 
L 84.594181 223.051672 
L 87.873519 215.458225 
L 91.152858 207.219895 
L 94.432197 199.295279 
L 97.711535 192.30823 
L 100.990874 186.619294 
L 104.270213 182.386516 
L 107.549551 179.616764 
L 110.82889 178.208599 
L 114.108229 177.987667 
L 117.387567 178.735493 
L 120.666906 180.21251 
L 123.946244 182.176061 
L 127.225583 184.394063 
L 130.504922 186.654963 
L 133.78426 188.774542 
L 137.063599 190.600089 
L 140.342938 192.012396 
L 143.622276 192.925995 
L 146.901615 193.287992 
L 150.180954 193.075837 
L 153.460292 192.294294 
L 156.739631 190.971884 
L 160.01897 189.156984 
L 163.298308 186.913793 
L 166.577647 184.318291 
L 169.856986 181.454338 
L 173.136324 178.409997 
L 176.415663 175.274169 
L 179.695001 172.1336 
L 182.97434 169.070285 
L 186.253679 166.15932 
L 189.533017 163.467181 
L 192.812356 161.050456 
L 196.091695 158.954994 
L 199.371033 157.215468 
L 202.650372 155.855305 
L 205.929711 154.886964 
L 209.209049 154.312507 
L 212.488388 154.124428 
L 215.767727 154.306696 
L 219.047065 154.835952 
L 222.326404 155.682828 
L 225.605743 156.813335 
L 228.885081 158.190278 
L 232.16442 159.774642 
L 235.443759 226.797684 
L 238.723097 226.797474 
L 242.002436 165.719156 
L 245.281774 167.655091 
L 248.561113 169.604845 
L 251.840452 171.547725 
L 255.11979 173.468367 
L 258.399129 175.356732 
L 261.678468 177.207868 
L 264.957806 179.02147 
L 268.237145 180.801263 
L 271.516484 182.554216 
L 274.795822 184.289645 
L 278.075161 186.018216 
L 281.3545 187.750913 
L 284.633838 189.497996 
L 287.913177 191.268007 
L 291.192516 193.06686 
L 294.471854 194.897066 
L 297.751193 196.757141 
L 301.030531 198.641225 
L 304.30987 200.538958 
L 307.589209 202.435634 
L 310.868547 204.312662 
L 314.147886 206.148334 
L 317.427225 207.918901 
L 320.706563 209.599943 
L 323.985902 211.167993 
L 327.265241 212.602366 
L 330.544579 213.887121 
L 333.823918 215.013042 
L 337.103257 215.979538 
L 340.382595 216.796275 
L 343.661934 217.484385 
L 346.941273 218.076992 
L 350.220611 218.618832 
L 353.49995 219.164622 
L 356.779288 219.77586 
L 360.058627 220.515641 
L 363.337966 221.441032 
L 366.617304 222.592523 
L 369.896643 223.979948 
L 373.175982 225.564286 
L 376.45532 227.234604 
L 379.734659 228.779399 
L 383.013998 229.851474 
L 386.293336 229.925419 
L 389.572675 228.246697 
L 392.852014 223.771208 
L 396.131352 215.094153 
L 399.410691 200.366885 
" clip-path="url(#p53a50dd174)" style="fill: none; stroke: #d62728; stroke-width: 1.5; stroke-linecap: square"/>
   </g>
   <g id="line2d_18">
    <path d="M 74.756165 230.137284 
L 78.035503 229.831863 
L 81.314842 221.108111 
L 84.594181 207.585431 
L 87.873519 191.96916 
L 91.152858 176.214903 
L 94.432197 161.67085 
L 97.711535 149.20026 
L 100.990874 139.28615 
L 104.270213 132.120074 
L 107.549551 127.676723 
L 110.82889 125.775979 
L 114.108229 126.133885 
L 117.387567 128.40392 
L 120.666906 132.209798 
L 123.946244 137.170961 
L 127.225583 142.921778 
L 130.504922 149.125417 
L 133.78426 155.483212 
L 137.063599 161.740311 
L 140.342938 167.688273 
L 143.622276 173.165226 
L 146.901615 178.054126 
L 150.180954 182.279575 
L 153.460292 185.80362 
L 156.739631 188.620878 
L 160.01897 190.753281 
L 163.298308 192.244708 
L 166.577647 193.155691 
L 169.856986 193.558377 
L 173.136324 193.531869 
L 176.415663 193.158045 
L 179.695001 192.51792 
L 182.97434 191.688599 
L 186.253679 190.740826 
L 189.533017 189.737151 
L 192.812356 188.73067 
L 196.091695 187.764321 
L 199.371033 186.870691 
L 202.650372 186.072274 
L 205.929711 185.382122 
L 209.209049 184.804822 
L 212.488388 184.337735 
L 215.767727 183.972414 
L 219.047065 183.696151 
L 222.326404 183.493561 
L 225.605743 183.348166 
L 228.885081 183.24389 
L 232.16442 183.166442 
L 235.443759 226.800664 
L 238.723097 226.800565 
L 242.002436 183.026895 
L 245.281774 182.880195 
L 248.561113 182.75132 
L 251.840452 182.658154 
L 255.11979 182.623306 
L 258.399129 182.673253 
L 261.678468 182.837252 
L 264.957806 183.146036 
L 268.237145 183.63035 
L 271.516484 184.319371 
L 274.795822 185.239071 
L 278.075161 186.410592 
L 281.3545 187.84869 
L 284.633838 189.56032 
L 287.913177 191.543433 
L 291.192516 193.786047 
L 294.471854 196.265662 
L 297.751193 198.949077 
L 301.030531 201.792648 
L 304.30987 204.743054 
L 307.589209 207.738575 
L 310.868547 210.710904 
L 314.147886 213.587495 
L 317.427225 216.294407 
L 320.706563 218.759613 
L 323.985902 220.916667 
L 327.265241 222.708651 
L 330.544579 224.092232 
L 333.823918 225.041658 
L 337.103257 225.552456 
L 340.382595 225.644576 
L 343.661934 225.364627 
L 346.941273 224.786851 
L 350.220611 224.012374 
L 353.49995 223.166232 
L 356.779288 222.391597 
L 360.058627 221.840542 
L 363.337966 221.660615 
L 366.617304 221.976396 
L 369.896643 222.865131 
L 373.175982 224.325427 
L 376.45532 226.237888 
L 379.734659 228.316479 
L 383.013998 230.049275 
L 386.293336 230.62712 
L 389.572675 228.858623 
L 392.852014 223.069747 
L 396.131352 210.986137 
L 399.410691 189.596146 
" clip-path="url(#p53a50dd174)" style="fill: none; stroke: #9467bd; stroke-width: 1.5; stroke-linecap: square"/>
   </g>
   <g id="line2d_19">
    <path d="M 74.756165 230.473663 
L 78.035504 227.993643 
L 81.314842 223.648192 
L 84.594181 218.234618 
L 87.87352 212.36384 
L 91.152859 206.491272 
L 94.432198 200.943779 
L 97.711537 195.943105 
L 100.990876 191.626125 
L 104.270214 188.062248 
L 107.549553 185.268281 
L 110.828892 183.221037 
L 114.108231 181.867935 
L 117.38757 181.135843 
L 120.666909 180.938368 
L 123.946247 181.181797 
L 127.225586 181.769861 
L 130.504925 182.607494 
L 133.784264 183.603723 
L 137.063603 184.673818 
L 140.342942 185.740835 
L 143.62228 186.736628 
L 146.901619 187.602449 
L 150.180958 188.289202 
L 153.460297 188.757414 
L 156.739636 188.977002 
L 160.018975 188.926874 
L 163.298314 188.594408 
L 166.577652 187.974852 
L 169.856991 187.07067 
L 173.13633 185.890859 
L 176.415669 184.450258 
L 179.695008 182.768862 
L 182.974347 180.871151 
L 186.253685 178.785442 
L 189.533024 176.543269 
L 192.812363 174.178792 
L 196.091702 171.728237 
L 199.371041 169.229363 
L 202.65038 166.720953 
L 205.929718 164.242331 
L 209.209057 161.832899 
L 212.488396 159.531681 
L 215.767735 157.376892 
L 219.047074 155.405507 
L 222.326413 153.652839 
L 225.605752 152.152123 
L 228.88509 150.934105 
L 232.164429 150.026635 
L 235.443768 226.797829 
L 238.723107 226.797823 
L 242.002446 149.582621 
L 245.281785 149.942546 
L 248.561123 150.690959 
L 251.840462 151.838967 
L 255.119801 153.392449 
L 258.39914 155.351498 
L 261.678479 157.709906 
L 264.957818 160.454743 
L 268.237157 163.566022 
L 271.516495 167.016497 
L 274.795834 170.77161 
L 278.075173 174.789601 
L 281.354512 179.021817 
L 284.633851 183.413219 
L 287.91319 187.903124 
L 291.192528 192.426167 
L 294.471867 196.913516 
L 297.751206 201.294312 
L 301.030545 205.497352 
L 304.309884 209.452976 
L 307.589223 213.095156 
L 310.868561 216.363727 
L 314.1479 219.206738 
L 317.427239 221.582839 
L 320.706578 223.463645 
L 323.985917 224.835984 
L 327.265256 225.703908 
L 330.544595 226.090363 
L 333.823933 226.038345 
L 337.103272 225.611388 
L 340.382611 224.893187 
L 343.66195 223.986133 
L 346.941289 223.008512 
L 350.220628 222.090099 
L 353.499966 221.365824 
L 356.779305 220.967188 
L 360.058644 221.011029 
L 363.337983 221.585247 
L 366.617322 222.731005 
L 369.896661 224.420941 
L 373.175999 226.532826 
L 376.455338 228.81808 
L 379.734677 230.864534 
L 383.014016 232.052714 
L 386.293355 231.50493 
L 389.572694 228.026365 
L 392.852033 220.037294 
L 396.131371 205.495524 
L 399.41071 181.808068 
" clip-path="url(#p53a50dd174)" style="fill: none; stroke: #8c564b; stroke-width: 1.5; stroke-linecap: square"/>
   </g>
   <g id="patch_3">
    <path d="M 58.523438 288.430125 
L 58.523438 22.318125 
" style="fill: none; stroke: #000000; stroke-width: 0.8; stroke-linejoin: miter; stroke-linecap: square"/>
   </g>
   <g id="patch_4">
    <path d="M 415.643438 288.430125 
L 415.643438 22.318125 
" style="fill: none; stroke: #000000; stroke-width: 0.8; stroke-linejoin: miter; stroke-linecap: square"/>
   </g>
   <g id="patch_5">
    <path d="M 58.523438 288.430125 
L 415.643438 288.430125 
" style="fill: none; stroke: #000000; stroke-width: 0.8; stroke-linejoin: miter; stroke-linecap: square"/>
   </g>
   <g id="patch_6">
    <path d="M 58.523438 22.318125 
L 415.643438 22.318125 
" style="fill: none; stroke: #000000; stroke-width: 0.8; stroke-linejoin: miter; stroke-linecap: square"/>
   </g>
   <g id="text_16">
    <!-- FA - xtract_prob_Frontal_Aslant_Tract_R -->
    <g transform="translate(119.789062 16.318125) scale(0.12 -0.12)">
     <defs>
      <path id="DejaVuSans-41" d="M 2188 4044 
L 1331 1722 
L 3047 1722 
L 2188 4044 
z
M 1831 4666 
L 2547 4666 
L 4325 0 
L 3669 0 
L 3244 1197 
L 1141 1197 
L 716 0 
L 50 0 
L 1831 4666 
z
" transform="scale(0.015625)"/>
      <path id="DejaVuSans-2d" d="M 313 2009 
L 1997 2009 
L 1997 1497 
L 313 1497 
L 313 2009 
z
" transform="scale(0.015625)"/>
      <path id="DejaVuSans-74" d="M 1172 4494 
L 1172 3500 
L 2356 3500 
L 2356 3053 
L 1172 3053 
L 1172 1153 
Q 1172 725 1289 603 
Q 1406 481 1766 481 
L 2356 481 
L 2356 0 
L 1766 0 
Q 1100 0 847 248 
Q 594 497 594 1153 
L 594 3053 
L 172 3053 
L 172 3500 
L 594 3500 
L 594 4494 
L 1172 4494 
z
" transform="scale(0.015625)"/>
      <path id="DejaVuSans-5f" d="M 3263 -1063 
L 3263 -1509 
L -63 -1509 
L -63 -1063 
L 3263 -1063 
z
" transform="scale(0.015625)"/>
      <path id="DejaVuSans-70" d="M 1159 525 
L 1159 -1331 
L 581 -1331 
L 581 3500 
L 1159 3500 
L 1159 2969 
Q 1341 3281 1617 3432 
Q 1894 3584 2278 3584 
Q 2916 3584 3314 3078 
Q 3713 2572 3713 1747 
Q 3713 922 3314 415 
Q 2916 -91 2278 -91 
Q 1894 -91 1617 61 
Q 1341 213 1159 525 
z
M 3116 1747 
Q 3116 2381 2855 2742 
Q 2594 3103 2138 3103 
Q 1681 3103 1420 2742 
Q 1159 2381 1159 1747 
Q 1159 1113 1420 752 
Q 1681 391 2138 391 
Q 2594 391 2855 752 
Q 3116 1113 3116 1747 
z
" transform="scale(0.015625)"/>
      <path id="DejaVuSans-6f" d="M 1959 3097 
Q 1497 3097 1228 2736 
Q 959 2375 959 1747 
Q 959 1119 1226 758 
Q 1494 397 1959 397 
Q 2419 397 2687 759 
Q 2956 1122 2956 1747 
Q 2956 2369 2687 2733 
Q 2419 3097 1959 3097 
z
M 1959 3584 
Q 2709 3584 3137 3096 
Q 3566 2609 3566 1747 
Q 3566 888 3137 398 
Q 2709 -91 1959 -91 
Q 1206 -91 779 398 
Q 353 888 353 1747 
Q 353 2609 779 3096 
Q 1206 3584 1959 3584 
z
" transform="scale(0.015625)"/>
      <path id="DejaVuSans-62" d="M 3116 1747 
Q 3116 2381 2855 2742 
Q 2594 3103 2138 3103 
Q 1681 3103 1420 2742 
Q 1159 2381 1159 1747 
Q 1159 1113 1420 752 
Q 1681 391 2138 391 
Q 2594 391 2855 752 
Q 3116 1113 3116 1747 
z
M 1159 2969 
Q 1341 3281 1617 3432 
Q 1894 3584 2278 3584 
Q 2916 3584 3314 3078 
Q 3713 2572 3713 1747 
Q 3713 922 3314 415 
Q 2916 -91 2278 -91 
Q 1894 -91 1617 61 
Q 1341 213 1159 525 
L 1159 0 
L 581 0 
L 581 4863 
L 1159 4863 
L 1159 2969 
z
" transform="scale(0.015625)"/>
      <path id="DejaVuSans-54" d="M -19 4666 
L 3928 4666 
L 3928 4134 
L 2272 4134 
L 2272 0 
L 1638 0 
L 1638 4134 
L -19 4134 
L -19 4666 
z
" transform="scale(0.015625)"/>
      <path id="DejaVuSans-52" d="M 2841 2188 
Q 3044 2119 3236 1894 
Q 3428 1669 3622 1275 
L 4263 0 
L 3584 0 
L 2988 1197 
Q 2756 1666 2539 1819 
Q 2322 1972 1947 1972 
L 1259 1972 
L 1259 0 
L 628 0 
L 628 4666 
L 2053 4666 
Q 2853 4666 3247 4331 
Q 3641 3997 3641 3322 
Q 3641 2881 3436 2590 
Q 3231 2300 2841 2188 
z
M 1259 4147 
L 1259 2491 
L 2053 2491 
Q 2509 2491 2742 2702 
Q 2975 2913 2975 3322 
Q 2975 3731 2742 3939 
Q 2509 4147 2053 4147 
L 1259 4147 
z
" transform="scale(0.015625)"/>
     </defs>
     <use xlink:href="#DejaVuSans-46"/>
     <use xlink:href="#DejaVuSans-41" x="48.394531"/>
     <use xlink:href="#DejaVuSans-20" x="116.802734"/>
     <use xlink:href="#DejaVuSans-2d" x="148.589844"/>
     <use xlink:href="#DejaVuSans-20" x="184.673828"/>
     <use xlink:href="#DejaVuSans-78" x="216.460938"/>
     <use xlink:href="#DejaVuSans-74" x="275.640625"/>
     <use xlink:href="#DejaVuSans-72" x="314.849609"/>
     <use xlink:href="#DejaVuSans-61" x="355.962891"/>
     <use xlink:href="#DejaVuSans-63" x="417.242188"/>
     <use xlink:href="#DejaVuSans-74" x="472.222656"/>
     <use xlink:href="#DejaVuSans-5f" x="511.431641"/>
     <use xlink:href="#DejaVuSans-70" x="561.431641"/>
     <use xlink:href="#DejaVuSans-72" x="624.908203"/>
     <use xlink:href="#DejaVuSans-6f" x="663.771484"/>
     <use xlink:href="#DejaVuSans-62" x="724.953125"/>
     <use xlink:href="#DejaVuSans-5f" x="788.429688"/>
     <use xlink:href="#DejaVuSans-46" x="838.429688"/>
     <use xlink:href="#DejaVuSans-72" x="888.699219"/>
     <use xlink:href="#DejaVuSans-6f" x="927.5625"/>
     <use xlink:href="#DejaVuSans-6e" x="988.744141"/>
     <use xlink:href="#DejaVuSans-74" x="1052.123047"/>
     <use xlink:href="#DejaVuSans-61" x="1091.332031"/>
     <use xlink:href="#DejaVuSans-6c" x="1152.611328"/>
     <use xlink:href="#DejaVuSans-5f" x="1180.394531"/>
     <use xlink:href="#DejaVuSans-41" x="1230.394531"/>
     <use xlink:href="#DejaVuSans-73" x="1298.802734"/>
     <use xlink:href="#DejaVuSans-6c" x="1350.902344"/>
     <use xlink:href="#DejaVuSans-61" x="1378.685547"/>
     <use xlink:href="#DejaVuSans-6e" x="1439.964844"/>
     <use xlink:href="#DejaVuSans-74" x="1503.34375"/>
     <use xlink:href="#DejaVuSans-5f" x="1542.552734"/>
     <use xlink:href="#DejaVuSans-54" x="1592.552734"/>
     <use xlink:href="#DejaVuSans-72" x="1638.886719"/>
     <use xlink:href="#DejaVuSans-61" x="1680"/>
     <use xlink:href="#DejaVuSans-63" x="1741.279297"/>
     <use xlink:href="#DejaVuSans-74" x="1796.259766"/>
     <use xlink:href="#DejaVuSans-5f" x="1835.46875"/>
     <use xlink:href="#DejaVuSans-52" x="1885.46875"/>
    </g>
   </g>
   <g id="legend_1">
    <g id="patch_7">
     <path d="M 458.355438 146.666825 
L 556.211688 146.666825 
Q 558.211688 146.666825 558.211688 144.666825 
L 558.211688 55.929325 
Q 558.211688 53.929325 556.211688 53.929325 
L 458.355438 53.929325 
Q 456.355438 53.929325 456.355438 55.929325 
L 456.355438 144.666825 
Q 456.355438 146.666825 458.355438 146.666825 
z
" style="fill: #ffffff; opacity: 0.8; stroke: #cccccc; stroke-linejoin: miter"/>
    </g>
    <g id="line2d_20">
     <path d="M 460.355438 62.027762 
L 470.355438 62.027762 
L 480.355438 62.027762 
" style="fill: none; stroke: #1f77b4; stroke-width: 1.5; stroke-linecap: square"/>
    </g>
    <g id="text_17">
     <!-- 20_06_02_E3 -->
     <g transform="translate(488.355438 65.527762) scale(0.1 -0.1)">
      <defs>
       <path id="DejaVuSans-45" d="M 628 4666 
L 3578 4666 
L 3578 4134 
L 1259 4134 
L 1259 2753 
L 3481 2753 
L 3481 2222 
L 1259 2222 
L 1259 531 
L 3634 531 
L 3634 0 
L 628 0 
L 628 4666 
z
" transform="scale(0.015625)"/>
      </defs>
      <use xlink:href="#DejaVuSans-32"/>
      <use xlink:href="#DejaVuSans-30" x="63.623047"/>
      <use xlink:href="#DejaVuSans-5f" x="127.246094"/>
      <use xlink:href="#DejaVuSans-30" x="177.246094"/>
      <use xlink:href="#DejaVuSans-36" x="240.869141"/>
      <use xlink:href="#DejaVuSans-5f" x="304.492188"/>
      <use xlink:href="#DejaVuSans-30" x="354.492188"/>
      <use xlink:href="#DejaVuSans-32" x="418.115234"/>
      <use xlink:href="#DejaVuSans-5f" x="481.738281"/>
      <use xlink:href="#DejaVuSans-45" x="531.738281"/>
      <use xlink:href="#DejaVuSans-33" x="594.921875"/>
     </g>
    </g>
    <g id="line2d_21">
     <path d="M 460.355438 76.984013 
L 470.355438 76.984013 
L 480.355438 76.984013 
" style="fill: none; stroke: #ff7f0e; stroke-width: 1.5; stroke-linecap: square"/>
    </g>
    <g id="text_18">
     <!-- 20_05_01_E3 -->
     <g transform="translate(488.355438 80.484013) scale(0.1 -0.1)">
      <use xlink:href="#DejaVuSans-32"/>
      <use xlink:href="#DejaVuSans-30" x="63.623047"/>
      <use xlink:href="#DejaVuSans-5f" x="127.246094"/>
      <use xlink:href="#DejaVuSans-30" x="177.246094"/>
      <use xlink:href="#DejaVuSans-35" x="240.869141"/>
      <use xlink:href="#DejaVuSans-5f" x="304.492188"/>
      <use xlink:href="#DejaVuSans-30" x="354.492188"/>
      <use xlink:href="#DejaVuSans-31" x="418.115234"/>
      <use xlink:href="#DejaVuSans-5f" x="481.738281"/>
      <use xlink:href="#DejaVuSans-45" x="531.738281"/>
      <use xlink:href="#DejaVuSans-33" x="594.921875"/>
     </g>
    </g>
    <g id="line2d_22">
     <path d="M 460.355438 91.940262 
L 470.355438 91.940262 
L 480.355438 91.940262 
" style="fill: none; stroke: #2ca02c; stroke-width: 1.5; stroke-linecap: square"/>
    </g>
    <g id="text_19">
     <!-- 20_02_02_E3 -->
     <g transform="translate(488.355438 95.440262) scale(0.1 -0.1)">
      <use xlink:href="#DejaVuSans-32"/>
      <use xlink:href="#DejaVuSans-30" x="63.623047"/>
      <use xlink:href="#DejaVuSans-5f" x="127.246094"/>
      <use xlink:href="#DejaVuSans-30" x="177.246094"/>
      <use xlink:href="#DejaVuSans-32" x="240.869141"/>
      <use xlink:href="#DejaVuSans-5f" x="304.492188"/>
      <use xlink:href="#DejaVuSans-30" x="354.492188"/>
      <use xlink:href="#DejaVuSans-32" x="418.115234"/>
      <use xlink:href="#DejaVuSans-5f" x="481.738281"/>
      <use xlink:href="#DejaVuSans-45" x="531.738281"/>
      <use xlink:href="#DejaVuSans-33" x="594.921875"/>
     </g>
    </g>
    <g id="line2d_23">
     <path d="M 460.355438 106.896513 
L 470.355438 106.896513 
L 480.355438 106.896513 
" style="fill: none; stroke: #d62728; stroke-width: 1.5; stroke-linecap: square"/>
    </g>
    <g id="text_20">
     <!-- 20_10_02_E3 -->
     <g transform="translate(488.355438 110.396513) scale(0.1 -0.1)">
      <use xlink:href="#DejaVuSans-32"/>
      <use xlink:href="#DejaVuSans-30" x="63.623047"/>
      <use xlink:href="#DejaVuSans-5f" x="127.246094"/>
      <use xlink:href="#DejaVuSans-31" x="177.246094"/>
      <use xlink:href="#DejaVuSans-30" x="240.869141"/>
      <use xlink:href="#DejaVuSans-5f" x="304.492188"/>
      <use xlink:href="#DejaVuSans-30" x="354.492188"/>
      <use xlink:href="#DejaVuSans-32" x="418.115234"/>
      <use xlink:href="#DejaVuSans-5f" x="481.738281"/>
      <use xlink:href="#DejaVuSans-45" x="531.738281"/>
      <use xlink:href="#DejaVuSans-33" x="594.921875"/>
     </g>
    </g>
    <g id="line2d_24">
     <path d="M 460.355438 121.852762 
L 470.355438 121.852762 
L 480.355438 121.852762 
" style="fill: none; stroke: #9467bd; stroke-width: 1.5; stroke-linecap: square"/>
    </g>
    <g id="text_21">
     <!-- 20_08_02_E3 -->
     <g transform="translate(488.355438 125.352762) scale(0.1 -0.1)">
      <use xlink:href="#DejaVuSans-32"/>
      <use xlink:href="#DejaVuSans-30" x="63.623047"/>
      <use xlink:href="#DejaVuSans-5f" x="127.246094"/>
      <use xlink:href="#DejaVuSans-30" x="177.246094"/>
      <use xlink:href="#DejaVuSans-38" x="240.869141"/>
      <use xlink:href="#DejaVuSans-5f" x="304.492188"/>
      <use xlink:href="#DejaVuSans-30" x="354.492188"/>
      <use xlink:href="#DejaVuSans-32" x="418.115234"/>
      <use xlink:href="#DejaVuSans-5f" x="481.738281"/>
      <use xlink:href="#DejaVuSans-45" x="531.738281"/>
      <use xlink:href="#DejaVuSans-33" x="594.921875"/>
     </g>
    </g>
    <g id="line2d_25">
     <path d="M 460.355438 136.809012 
L 470.355438 136.809012 
L 480.355438 136.809012 
" style="fill: none; stroke: #8c564b; stroke-width: 1.5; stroke-linecap: square"/>
    </g>
    <g id="text_22">
     <!-- 20_11_02_E3 -->
     <g transform="translate(488.355438 140.309012) scale(0.1 -0.1)">
      <use xlink:href="#DejaVuSans-32"/>
      <use xlink:href="#DejaVuSans-30" x="63.623047"/>
      <use xlink:href="#DejaVuSans-5f" x="127.246094"/>
      <use xlink:href="#DejaVuSans-31" x="177.246094"/>
      <use xlink:href="#DejaVuSans-31" x="240.869141"/>
      <use xlink:href="#DejaVuSans-5f" x="304.492188"/>
      <use xlink:href="#DejaVuSans-30" x="354.492188"/>
      <use xlink:href="#DejaVuSans-32" x="418.115234"/>
      <use xlink:href="#DejaVuSans-5f" x="481.738281"/>
      <use xlink:href="#DejaVuSans-45" x="531.738281"/>
      <use xlink:href="#DejaVuSans-33" x="594.921875"/>
     </g>
    </g>
   </g>
  </g>
 </g>
 <defs>
  <clipPath id="p53a50dd174">
   <rect x="58.523438" y="22.318125" width="357.12" height="266.112"/>
  </clipPath>
 </defs>
</svg>
