<?xml version="1.0" encoding="utf-8" standalone="no"?>
<!DOCTYPE svg PUBLIC "-//W3C//DTD SVG 1.1//EN"
  "http://www.w3.org/Graphics/SVG/1.1/DTD/svg11.dtd">
<svg xmlns:xlink="http://www.w3.org/1999/xlink" width="571.774188pt" height="325.986375pt" viewBox="0 0 571.774188 325.986375" xmlns="http://www.w3.org/2000/svg" version="1.1">
 <metadata>
  <rdf:RDF xmlns:dc="http://purl.org/dc/elements/1.1/" xmlns:cc="http://creativecommons.org/ns#" xmlns:rdf="http://www.w3.org/1999/02/22-rdf-syntax-ns#">
   <cc:Work>
    <dc:type rdf:resource="http://purl.org/dc/dcmitype/StillImage"/>
    <dc:date>2023-02-07T23:00:00.303510</dc:date>
    <dc:format>image/svg+xml</dc:format>
    <dc:creator>
     <cc:Agent>
      <dc:title>Matplotlib v3.6.2, https://matplotlib.org/</dc:title>
     </cc:Agent>
    </dc:creator>
   </cc:Work>
  </rdf:RDF>
 </metadata>
 <defs>
  <style type="text/css">*{stroke-linejoin: round; stroke-linecap: butt}</style>
 </defs>
 <g id="figure_1">
  <g id="patch_1">
   <path d="M 0 325.986375 
L 571.774188 325.986375 
L 571.774188 0 
L 0 0 
z
" style="fill: #ffffff"/>
  </g>
  <g id="axes_1">
   <g id="patch_2">
    <path d="M 64.885937 288.430125 
L 422.005938 288.430125 
L 422.005938 22.318125 
L 64.885937 22.318125 
z
" style="fill: #ffffff"/>
   </g>
   <g id="PolyCollection_1">
    <path d="M 81.118665 238.415027 
L 81.118665 245.004822 
L 82.157253 245.004822 
L 83.19584 245.004822 
L 84.234428 245.004822 
L 85.273016 245.004822 
L 86.311604 245.004822 
L 87.350192 245.004822 
L 88.388779 245.004822 
L 89.427367 245.004822 
L 90.465955 245.004822 
L 91.504543 245.004822 
L 92.543131 245.004822 
L 93.581718 245.004822 
L 94.620306 245.004822 
L 95.658894 245.004822 
L 96.697482 245.004822 
L 97.73607 245.004822 
L 98.774657 245.004822 
L 99.813245 245.004822 
L 100.851833 245.004822 
L 101.890421 245.004822 
L 102.929009 245.004822 
L 103.967596 245.004822 
L 105.006184 245.004822 
L 106.044772 245.004822 
L 107.08336 245.004822 
L 108.121948 245.004822 
L 109.160535 245.004822 
L 110.199123 245.004822 
L 111.237711 245.004822 
L 112.276299 245.004822 
L 113.314887 245.004822 
L 114.353474 245.004822 
L 115.392062 245.004822 
L 116.43065 245.004822 
L 117.469238 245.004822 
L 118.507825 245.004822 
L 119.546413 245.004822 
L 120.585001 245.004822 
L 121.623589 245.004822 
L 122.662177 245.004822 
L 123.700764 245.004822 
L 124.739352 245.004822 
L 125.77794 245.004822 
L 126.816528 245.004822 
L 127.855116 245.004822 
L 128.893703 245.004822 
L 129.932291 245.004822 
L 130.970879 245.004822 
L 132.009467 245.004822 
L 133.048055 245.004822 
L 134.086642 245.004822 
L 135.12523 245.004822 
L 136.163818 245.004822 
L 137.202406 245.004822 
L 138.240994 245.004822 
L 139.279581 245.004822 
L 140.318169 245.004822 
L 141.356757 245.004822 
L 142.395345 245.004822 
L 143.433933 245.004822 
L 144.47252 245.004822 
L 145.511108 245.004822 
L 146.549696 245.004822 
L 147.588284 245.004822 
L 148.626872 245.004822 
L 149.665459 245.004822 
L 150.704047 245.004822 
L 151.742635 245.004822 
L 152.781223 245.004822 
L 153.819811 245.004822 
L 154.858398 245.004822 
L 155.896986 245.004822 
L 156.935574 245.004822 
L 157.974162 245.004822 
L 159.01275 245.004822 
L 160.051337 245.004822 
L 161.089925 245.004822 
L 162.128513 245.004822 
L 163.167101 245.004822 
L 164.205689 245.004822 
L 165.244276 245.004822 
L 166.282864 245.004822 
L 167.321452 245.004822 
L 168.36004 245.004822 
L 169.398628 245.004822 
L 170.437215 245.004822 
L 171.475803 245.004822 
L 172.514391 245.004822 
L 173.552979 245.004822 
L 174.591567 245.004822 
L 175.630154 245.004822 
L 176.668742 245.004822 
L 177.70733 245.004822 
L 178.745918 245.004822 
L 179.784506 245.004822 
L 180.823093 245.004822 
L 181.861681 245.004822 
L 182.900269 245.004822 
L 183.938857 245.004822 
L 183.938857 240.522877 
L 183.938857 240.522877 
L 182.900269 245.540673 
L 181.861681 247.791677 
L 180.823093 248.248748 
L 179.784506 247.644867 
L 178.745918 246.51626 
L 177.70733 245.239817 
L 176.668742 244.065352 
L 175.630154 243.143214 
L 174.591567 242.547733 
L 173.552979 242.29693 
L 172.514391 242.368919 
L 171.475803 242.715366 
L 170.437215 243.272366 
L 169.398628 243.969059 
L 168.36004 244.734279 
L 167.321452 245.501508 
L 166.282864 246.212384 
L 165.244276 246.81899 
L 164.205689 247.285123 
L 163.167101 247.586727 
L 162.128513 247.711662 
L 161.089925 247.65894 
L 160.051337 247.437573 
L 159.01275 247.065141 
L 157.974162 246.566175 
L 156.935574 245.970447 
L 155.896986 245.311236 
L 154.858398 244.623632 
L 153.819811 243.942931 
L 152.781223 243.303155 
L 151.742635 242.735736 
L 150.704047 242.268377 
L 149.665459 241.924124 
L 148.626872 241.720628 
L 147.588284 241.669637 
L 146.549696 241.77668 
L 145.511108 242.040961 
L 144.47252 242.455445 
L 143.433933 243.007116 
L 142.395345 243.677397 
L 141.356757 244.442712 
L 140.318169 245.275169 
L 139.279581 246.143339 
L 138.240994 247.013112 
L 137.202406 247.848612 
L 136.163818 248.61313 
L 135.12523 249.270084 
L 134.086642 249.783948 
L 133.048055 245.003494 
L 132.009467 245.003115 
L 130.970879 250.420599 
L 129.932291 250.073854 
L 128.893703 249.437292 
L 127.855116 248.498515 
L 126.816528 247.25155 
L 125.77794 245.697068 
L 124.739352 243.842436 
L 123.700764 241.701629 
L 122.662177 239.294987 
L 121.623589 236.648827 
L 120.585001 233.794935 
L 119.546413 230.769924 
L 118.507825 227.614496 
L 117.469238 224.372616 
L 116.43065 221.090615 
L 115.392062 217.816253 
L 114.353474 214.597749 
L 113.314887 211.482823 
L 112.276299 208.517745 
L 111.237711 205.746447 
L 110.199123 203.209689 
L 109.160535 200.944329 
L 108.121948 198.982689 
L 107.08336 197.352063 
L 106.044772 196.074345 
L 105.006184 195.165824 
L 103.967596 194.637121 
L 102.929009 194.493273 
L 101.890421 194.733964 
L 100.851833 195.35388 
L 99.813245 196.343154 
L 98.774657 197.687879 
L 97.73607 199.370635 
L 96.697482 201.37097 
L 95.658894 203.665764 
L 94.620306 206.229396 
L 93.581718 209.033593 
L 92.543131 212.046865 
L 91.504543 215.233362 
L 90.465955 218.551023 
L 89.427367 221.948804 
L 88.388779 225.362814 
L 87.350192 228.71111 
L 86.311604 231.886903 
L 85.273016 234.749903 
L 84.234428 237.115478 
L 83.19584 238.741296 
L 82.157253 239.311076 
L 81.118665 238.415027 
z
" clip-path="url(#pf7be631ad5)" style="fill: #1f77b4; fill-opacity: 0.166667"/>
   </g>
   <g id="PolyCollection_2">
    <path d="M 81.118665 229.040653 
L 81.118665 245.004822 
L 81.598747 245.004822 
L 82.078829 245.004822 
L 82.558911 245.004822 
L 83.038993 245.004822 
L 83.519075 245.004822 
L 83.999157 245.004822 
L 84.479239 245.004822 
L 84.959321 245.004822 
L 85.439403 245.004822 
L 85.919485 245.004822 
L 86.399567 245.004822 
L 86.879649 245.004822 
L 87.359731 245.004822 
L 87.839813 245.004822 
L 88.319895 245.004822 
L 88.799977 245.004822 
L 89.280059 245.004822 
L 89.760141 245.004822 
L 90.240223 245.004822 
L 90.720305 245.004822 
L 91.200387 245.004822 
L 91.680469 245.004822 
L 92.160551 245.004822 
L 92.640633 245.004822 
L 93.120715 245.004822 
L 93.600797 245.004822 
L 94.080879 245.004822 
L 94.560961 245.004822 
L 95.041043 245.004822 
L 95.521125 245.004822 
L 96.001207 245.004822 
L 96.481289 245.004822 
L 96.961371 245.004822 
L 97.441453 245.004822 
L 97.921535 245.004822 
L 98.401617 245.004822 
L 98.881699 245.004822 
L 99.361781 245.004822 
L 99.841863 245.004822 
L 100.321945 245.004822 
L 100.802027 245.004822 
L 101.282109 245.004822 
L 101.762191 245.004822 
L 102.242273 245.004822 
L 102.722355 245.004822 
L 103.202436 245.004822 
L 103.682518 245.004822 
L 104.1626 245.004822 
L 104.642682 245.004822 
L 105.122764 245.004822 
L 105.602846 245.004822 
L 106.082928 245.004822 
L 106.56301 245.004822 
L 107.043092 245.004822 
L 107.523174 245.004822 
L 108.003256 245.004822 
L 108.483338 245.004822 
L 108.96342 245.004822 
L 109.443502 245.004822 
L 109.923584 245.004822 
L 110.403666 245.004822 
L 110.883748 245.004822 
L 111.36383 245.004822 
L 111.843912 245.004822 
L 112.323994 245.004822 
L 112.804076 245.004822 
L 113.284158 245.004822 
L 113.76424 245.004822 
L 114.244322 245.004822 
L 114.724404 245.004822 
L 115.204486 245.004822 
L 115.684568 245.004822 
L 116.16465 245.004822 
L 116.644732 245.004822 
L 117.124814 245.004822 
L 117.604896 245.004822 
L 118.084978 245.004822 
L 118.56506 245.004822 
L 119.045142 245.004822 
L 119.525224 245.004822 
L 120.005306 245.004822 
L 120.485388 245.004822 
L 120.96547 245.004822 
L 121.445552 245.004822 
L 121.925634 245.004822 
L 122.405716 245.004822 
L 122.885798 245.004822 
L 123.36588 245.004822 
L 123.845962 245.004822 
L 124.326044 245.004822 
L 124.806126 245.004822 
L 125.286208 245.004822 
L 125.76629 245.004822 
L 126.246372 245.004822 
L 126.726454 245.004822 
L 127.206536 245.004822 
L 127.686618 245.004822 
L 128.1667 245.004822 
L 128.646782 245.004822 
L 128.646782 256.054032 
L 128.646782 256.054032 
L 128.1667 242.646246 
L 127.686618 237.19296 
L 127.206536 236.668316 
L 126.726454 238.859446 
L 126.246372 242.20604 
L 125.76629 245.663358 
L 125.286208 248.586189 
L 124.806126 250.631456 
L 124.326044 251.677315 
L 123.845962 251.7568 
L 123.36588 251.004183 
L 122.885798 249.612414 
L 122.405716 247.80012 
L 121.925634 245.786773 
L 121.445552 243.77481 
L 120.96547 241.937549 
L 120.485388 240.411905 
L 120.005306 239.294999 
L 119.525224 238.643862 
L 119.045142 238.477509 
L 118.56506 238.780786 
L 118.084978 239.509431 
L 117.604896 240.595902 
L 117.124814 241.955567 
L 116.644732 243.492943 
L 116.16465 245.107705 
L 115.684568 246.700253 
L 115.204486 248.176682 
L 114.724404 249.453028 
L 114.244322 250.458705 
L 113.76424 251.139107 
L 113.284158 251.45734 
L 112.804076 251.395117 
L 112.323994 250.952844 
L 111.843912 250.148948 
L 111.36383 249.018547 
L 110.883748 247.61151 
L 110.403666 245.990037 
L 109.923584 244.225842 
L 109.443502 242.397059 
L 108.96342 240.584966 
L 108.483338 238.870653 
L 108.003256 237.331716 
L 107.523174 236.039108 
L 107.043092 235.054208 
L 106.56301 234.426219 
L 106.082928 234.189957 
L 105.602846 234.364103 
L 105.122764 245.007299 
L 104.642682 245.007521 
L 104.1626 236.253162 
L 103.682518 237.982998 
L 103.202436 240.00093 
L 102.722355 242.216283 
L 102.242273 244.523505 
L 101.762191 246.80527 
L 101.282109 248.936107 
L 100.802027 250.786476 
L 100.321945 252.227199 
L 99.841863 253.134121 
L 99.361781 253.392877 
L 98.881699 252.903652 
L 98.401617 251.585757 
L 97.921535 249.381916 
L 97.441453 246.262073 
L 96.961371 242.226607 
L 96.481289 237.308789 
L 96.001207 231.57634 
L 95.521125 225.131983 
L 95.041043 218.112852 
L 94.560961 210.68868 
L 94.080879 203.058683 
L 93.600797 195.447102 
L 93.120715 188.097392 
L 92.640633 181.265073 
L 92.160551 175.209327 
L 91.680469 170.183444 
L 91.200387 166.424296 
L 90.720305 164.141069 
L 90.240223 163.50355 
L 89.760141 164.63034 
L 89.280059 167.577456 
L 88.799977 172.327844 
L 88.319895 178.782458 
L 87.839813 186.753618 
L 87.359731 195.961528 
L 86.879649 206.034886 
L 86.399567 216.516699 
L 85.919485 226.876533 
L 85.439403 236.530554 
L 84.959321 244.87091 
L 84.479239 251.306119 
L 83.999157 255.314343 
L 83.519075 256.511587 
L 83.038993 254.737051 
L 82.558911 250.158082 
L 82.078829 243.397387 
L 81.598747 235.685359 
L 81.118665 229.040653 
z
" clip-path="url(#pf7be631ad5)" style="fill: #ff7f0e; fill-opacity: 0.166667"/>
   </g>
   <g id="PolyCollection_3">
    <path d="M 81.118665 220.396162 
L 81.118665 245.004822 
L 81.647745 245.004822 
L 82.176826 245.004822 
L 82.705906 245.004822 
L 83.234987 245.004822 
L 83.764068 245.004822 
L 84.293148 245.004822 
L 84.822229 245.004822 
L 85.351309 245.004822 
L 85.88039 245.004822 
L 86.40947 245.004822 
L 86.938551 245.004822 
L 87.467631 245.004822 
L 87.996712 245.004822 
L 88.525793 245.004822 
L 89.054873 245.004822 
L 89.583954 245.004822 
L 90.113034 245.004822 
L 90.642115 245.004822 
L 91.171195 245.004822 
L 91.700276 245.004822 
L 92.229356 245.004822 
L 92.758437 245.004822 
L 93.287517 245.004822 
L 93.816598 245.004822 
L 94.345679 245.004822 
L 94.874759 245.004822 
L 95.40384 245.004822 
L 95.93292 245.004822 
L 96.462001 245.004822 
L 96.991081 245.004822 
L 97.520162 245.004822 
L 98.049242 245.004822 
L 98.578323 245.004822 
L 99.107404 245.004822 
L 99.636484 245.004822 
L 100.165565 245.004822 
L 100.694645 245.004822 
L 101.223726 245.004822 
L 101.752806 245.004822 
L 102.281887 245.004822 
L 102.810967 245.004822 
L 103.340048 245.004822 
L 103.869129 245.004822 
L 104.398209 245.004822 
L 104.92729 245.004822 
L 105.45637 245.004822 
L 105.985451 245.004822 
L 106.514531 245.004822 
L 107.043612 245.004822 
L 107.572692 245.004822 
L 108.101773 245.004822 
L 108.630854 245.004822 
L 109.159934 245.004822 
L 109.689015 245.004822 
L 110.218095 245.004822 
L 110.747176 245.004822 
L 111.276256 245.004822 
L 111.805337 245.004822 
L 112.334417 245.004822 
L 112.863498 245.004822 
L 113.392579 245.004822 
L 113.921659 245.004822 
L 114.45074 245.004822 
L 114.97982 245.004822 
L 115.508901 245.004822 
L 116.037981 245.004822 
L 116.567062 245.004822 
L 117.096142 245.004822 
L 117.625223 245.004822 
L 118.154303 245.004822 
L 118.683384 245.004822 
L 119.212465 245.004822 
L 119.741545 245.004822 
L 120.270626 245.004822 
L 120.799706 245.004822 
L 121.328787 245.004822 
L 121.857867 245.004822 
L 122.386948 245.004822 
L 122.916028 245.004822 
L 123.445109 245.004822 
L 123.97419 245.004822 
L 124.50327 245.004822 
L 125.032351 245.004822 
L 125.561431 245.004822 
L 126.090512 245.004822 
L 126.619592 245.004822 
L 127.148673 245.004822 
L 127.677753 245.004822 
L 128.206834 245.004822 
L 128.735915 245.004822 
L 129.264995 245.004822 
L 129.794076 245.004822 
L 130.323156 245.004822 
L 130.852237 245.004822 
L 131.381317 245.004822 
L 131.910398 245.004822 
L 132.439478 245.004822 
L 132.968559 245.004822 
L 133.49764 245.004822 
L 133.49764 258.177674 
L 133.49764 258.177674 
L 132.968559 241.933581 
L 132.439478 235.503072 
L 131.910398 235.084389 
L 131.381317 237.915196 
L 130.852237 242.063728 
L 130.323156 246.251054 
L 129.794076 249.701073 
L 129.264995 252.015104 
L 128.735915 253.068218 
L 128.206834 252.924627 
L 127.677753 251.769729 
L 127.148673 249.85657 
L 126.619592 247.464712 
L 126.090512 244.869662 
L 125.561431 242.321206 
L 125.032351 240.029163 
L 124.50327 238.155204 
L 123.97419 236.809569 
L 123.445109 236.051611 
L 122.916028 235.893247 
L 122.386948 236.304525 
L 121.857867 237.220593 
L 121.328787 238.549487 
L 120.799706 240.180248 
L 120.270626 241.990945 
L 119.741545 243.856281 
L 119.212465 245.654519 
L 118.683384 247.27354 
L 118.154303 248.615884 
L 117.625223 249.602713 
L 117.096142 250.176627 
L 116.567062 250.30337 
L 116.037981 249.972434 
L 115.508901 249.196642 
L 114.97982 248.010801 
L 114.45074 246.469527 
L 113.921659 244.644371 
L 113.392579 242.620382 
L 112.863498 240.492249 
L 112.334417 238.360166 
L 111.805337 236.325566 
L 111.276256 234.486871 
L 110.747176 232.935383 
L 110.218095 231.751455 
L 109.689015 231.001053 
L 109.159934 230.732809 
L 108.630854 230.975664 
L 108.101773 231.73716 
L 107.572692 245.00772 
L 107.043612 245.007565 
L 106.514531 236.247544 
L 105.985451 238.576136 
L 105.45637 241.167753 
L 104.92729 243.911201 
L 104.398209 246.680921 
L 103.869129 249.340863 
L 103.340048 251.74889 
L 102.810967 253.761625 
L 102.281887 255.239594 
L 101.752806 256.052549 
L 101.223726 256.084802 
L 100.694645 255.240423 
L 100.165565 253.448132 
L 99.636484 250.665712 
L 99.107404 246.883776 
L 98.578323 242.128724 
L 98.049242 236.464718 
L 97.520162 229.994543 
L 96.991081 222.859201 
L 96.462001 215.236145 
L 95.93292 207.336047 
L 95.40384 199.398062 
L 94.874759 191.683547 
L 94.345679 184.468279 
L 93.816598 178.033227 
L 93.287517 172.65401 
L 92.758437 168.589233 
L 92.229356 166.067957 
L 91.700276 165.27663 
L 91.171195 166.34591 
L 90.642115 169.337884 
L 90.113034 174.234295 
L 89.583954 180.926505 
L 89.054873 189.208021 
L 88.525793 198.770565 
L 87.996712 209.204786 
L 87.467631 220.006862 
L 86.938551 230.592403 
L 86.40947 240.31923 
L 85.88039 248.520781 
L 85.351309 254.552091 
L 84.822229 257.850474 
L 84.293148 258.013279 
L 83.764068 254.895281 
L 83.234987 248.728527 
L 82.705906 240.267699 
L 82.176826 230.964313 
L 81.647745 223.173342 
L 81.118665 220.396162 
z
" clip-path="url(#pf7be631ad5)" style="fill: #2ca02c; fill-opacity: 0.166667"/>
   </g>
   <g id="PolyCollection_4">
    <path d="M 81.118665 246.132753 
L 81.118665 245.004822 
L 81.62118 245.004822 
L 82.123696 245.004822 
L 82.626211 245.004822 
L 83.128726 245.004822 
L 83.631242 245.004822 
L 84.133757 245.004822 
L 84.636272 245.004822 
L 85.138788 245.004822 
L 85.641303 245.004822 
L 86.143819 245.004822 
L 86.646334 245.004822 
L 87.148849 245.004822 
L 87.651365 245.004822 
L 88.15388 245.004822 
L 88.656395 245.004822 
L 89.158911 245.004822 
L 89.661426 245.004822 
L 90.163942 245.004822 
L 90.666457 245.004822 
L 91.168972 245.004822 
L 91.671488 245.004822 
L 92.174003 245.004822 
L 92.676519 245.004822 
L 93.179034 245.004822 
L 93.681549 245.004822 
L 94.184065 245.004822 
L 94.68658 245.004822 
L 95.189095 245.004822 
L 95.691611 245.004822 
L 96.194126 245.004822 
L 96.696642 245.004822 
L 97.199157 245.004822 
L 97.701672 245.004822 
L 98.204188 245.004822 
L 98.706703 245.004822 
L 99.209218 245.004822 
L 99.711734 245.004822 
L 100.214249 245.004822 
L 100.716765 245.004822 
L 101.21928 245.004822 
L 101.721795 245.004822 
L 102.224311 245.004822 
L 102.726826 245.004822 
L 103.229342 245.004822 
L 103.731857 245.004822 
L 104.234372 245.004822 
L 104.736888 245.004822 
L 105.239403 245.004822 
L 105.741918 245.004822 
L 106.244434 245.004822 
L 106.746949 245.004822 
L 107.249465 245.004822 
L 107.75198 245.004822 
L 108.254495 245.004822 
L 108.757011 245.004822 
L 109.259526 245.004822 
L 109.762041 245.004822 
L 110.264557 245.004822 
L 110.767072 245.004822 
L 111.269588 245.004822 
L 111.772103 245.004822 
L 112.274618 245.004822 
L 112.777134 245.004822 
L 113.279649 245.004822 
L 113.782165 245.004822 
L 114.28468 245.004822 
L 114.787195 245.004822 
L 115.289711 245.004822 
L 115.792226 245.004822 
L 116.294741 245.004822 
L 116.797257 245.004822 
L 117.299772 245.004822 
L 117.802288 245.004822 
L 118.304803 245.004822 
L 118.807318 245.004822 
L 119.309834 245.004822 
L 119.812349 245.004822 
L 120.314864 245.004822 
L 120.81738 245.004822 
L 121.319895 245.004822 
L 121.822411 245.004822 
L 122.324926 245.004822 
L 122.827441 245.004822 
L 123.329957 245.004822 
L 123.832472 245.004822 
L 124.334988 245.004822 
L 124.837503 245.004822 
L 125.340018 245.004822 
L 125.842534 245.004822 
L 126.345049 245.004822 
L 126.847564 245.004822 
L 127.35008 245.004822 
L 127.852595 245.004822 
L 128.355111 245.004822 
L 128.857626 245.004822 
L 129.360141 245.004822 
L 129.862657 245.004822 
L 130.365172 245.004822 
L 130.867687 245.004822 
L 130.867687 258.222822 
L 130.867687 258.222822 
L 130.365172 241.611688 
L 129.862657 235.235488 
L 129.360141 235.046526 
L 128.857626 238.128243 
L 128.355111 242.462765 
L 127.852595 246.733881 
L 127.35008 250.16152 
L 126.847564 252.364067 
L 126.345049 253.245201 
L 125.842534 252.90216 
L 125.340018 251.55265 
L 124.837503 249.477814 
L 124.334988 246.978955 
L 123.832472 244.345901 
L 123.329957 241.835114 
L 122.827441 239.655851 
L 122.324926 237.962862 
L 121.822411 236.854268 
L 121.319895 236.373465 
L 120.81738 236.513993 
L 120.314864 237.226496 
L 119.812349 238.427006 
L 119.309834 240.005898 
L 118.807318 241.836995 
L 118.304803 243.786368 
L 117.802288 245.720504 
L 117.299772 247.513568 
L 116.797257 249.053568 
L 116.294741 250.247307 
L 115.792226 251.024053 
L 115.289711 251.337904 
L 114.787195 251.168893 
L 114.28468 250.522888 
L 113.782165 249.430376 
L 113.279649 247.944284 
L 112.777134 246.136936 
L 112.274618 244.096346 
L 111.772103 241.921971 
L 111.269588 239.720129 
L 110.767072 237.599232 
L 110.264557 235.665009 
L 109.762041 234.015874 
L 109.259526 232.738599 
L 108.757011 231.904427 
L 108.254495 231.565735 
L 107.75198 231.753377 
L 107.249465 232.474764 
L 106.746949 233.712775 
L 106.244434 245.007555 
L 105.741918 245.006936 
L 105.239403 239.743066 
L 104.736888 242.10901 
L 104.234372 244.581171 
L 103.731857 247.032289 
L 103.229342 249.325383 
L 102.726826 251.318399 
L 102.224311 252.869278 
L 101.721795 253.841341 
L 101.21928 254.108803 
L 100.716765 253.562297 
L 100.214249 252.114194 
L 99.711734 249.703579 
L 99.209218 246.300661 
L 98.706703 241.910474 
L 98.204188 236.575662 
L 97.701672 230.378192 
L 97.199157 223.439835 
L 96.696642 215.921282 
L 96.194126 208.019773 
L 95.691611 199.965162 
L 95.189095 192.014366 
L 94.68658 184.444188 
L 94.184065 177.542557 
L 93.681549 171.598284 
L 93.179034 166.889487 
L 92.676519 163.670916 
L 92.174003 162.160492 
L 91.671488 162.525445 
L 91.168972 164.868545 
L 90.666457 169.215019 
L 90.163942 175.50087 
L 89.661426 183.563411 
L 89.158911 193.134996 
L 88.656395 203.841048 
L 88.15388 215.203644 
L 87.651365 226.652094 
L 87.148849 237.542103 
L 86.646334 247.185328 
L 86.143819 254.891299 
L 85.641303 260.023933 
L 85.138788 262.075048 
L 84.636272 260.757566 
L 84.133757 256.121307 
L 83.631242 248.694569 
L 83.128726 239.654951 
L 82.626211 231.033179 
L 82.123696 225.954001 
L 81.62118 228.918526 
L 81.118665 246.132753 
z
" clip-path="url(#pf7be631ad5)" style="fill: #d62728; fill-opacity: 0.166667"/>
   </g>
   <g id="PolyCollection_5">
    <path d="M 81.118665 217.782622 
L 81.118665 245.004822 
L 81.734055 245.004822 
L 82.349446 245.004822 
L 82.964837 245.004822 
L 83.580228 245.004822 
L 84.195618 245.004822 
L 84.811009 245.004822 
L 85.4264 245.004822 
L 86.04179 245.004822 
L 86.657181 245.004822 
L 87.272572 245.004822 
L 87.887963 245.004822 
L 88.503353 245.004822 
L 89.118744 245.004822 
L 89.734135 245.004822 
L 90.349525 245.004822 
L 90.964916 245.004822 
L 91.580307 245.004822 
L 92.195698 245.004822 
L 92.811088 245.004822 
L 93.426479 245.004822 
L 94.04187 245.004822 
L 94.65726 245.004822 
L 95.272651 245.004822 
L 95.888042 245.004822 
L 96.503433 245.004822 
L 97.118823 245.004822 
L 97.734214 245.004822 
L 98.349605 245.004822 
L 98.964995 245.004822 
L 99.580386 245.004822 
L 100.195777 245.004822 
L 100.811168 245.004822 
L 101.426558 245.004822 
L 102.041949 245.004822 
L 102.65734 245.004822 
L 103.27273 245.004822 
L 103.888121 245.004822 
L 104.503512 245.004822 
L 105.118903 245.004822 
L 105.734293 245.004822 
L 106.349684 245.004822 
L 106.965075 245.004822 
L 107.580465 245.004822 
L 108.195856 245.004822 
L 108.811247 245.004822 
L 109.426638 245.004822 
L 110.042028 245.004822 
L 110.657419 245.004822 
L 111.27281 245.004822 
L 111.8882 245.004822 
L 112.503591 245.004822 
L 113.118982 245.004822 
L 113.734373 245.004822 
L 114.349763 245.004822 
L 114.965154 245.004822 
L 115.580545 245.004822 
L 116.195935 245.004822 
L 116.811326 245.004822 
L 117.426717 245.004822 
L 118.042107 245.004822 
L 118.657498 245.004822 
L 119.272889 245.004822 
L 119.88828 245.004822 
L 120.50367 245.004822 
L 121.119061 245.004822 
L 121.734452 245.004822 
L 122.349842 245.004822 
L 122.965233 245.004822 
L 123.580624 245.004822 
L 124.196015 245.004822 
L 124.811405 245.004822 
L 125.426796 245.004822 
L 126.042187 245.004822 
L 126.657577 245.004822 
L 127.272968 245.004822 
L 127.888359 245.004822 
L 128.50375 245.004822 
L 129.11914 245.004822 
L 129.734531 245.004822 
L 130.349922 245.004822 
L 130.965312 245.004822 
L 131.580703 245.004822 
L 132.196094 245.004822 
L 132.811485 245.004822 
L 133.426875 245.004822 
L 134.042266 245.004822 
L 134.657657 245.004822 
L 135.273047 245.004822 
L 135.888438 245.004822 
L 136.503829 245.004822 
L 137.11922 245.004822 
L 137.73461 245.004822 
L 138.350001 245.004822 
L 138.965392 245.004822 
L 139.580782 245.004822 
L 140.196173 245.004822 
L 140.811564 245.004822 
L 141.426955 245.004822 
L 142.042345 245.004822 
L 142.042345 246.177368 
L 142.042345 246.177368 
L 141.426955 244.941545 
L 140.811564 244.24322 
L 140.196173 243.959345 
L 139.580782 243.977184 
L 138.965392 244.196908 
L 138.350001 244.533102 
L 137.73461 244.915392 
L 137.11922 245.288358 
L 136.503829 245.610888 
L 135.888438 245.855111 
L 135.273047 246.005021 
L 134.657657 246.054901 
L 134.042266 246.007633 
L 133.426875 245.872963 
L 132.811485 245.665796 
L 132.196094 245.404564 
L 131.580703 245.1097 
L 130.965312 244.802271 
L 130.349922 244.502768 
L 129.734531 244.230084 
L 129.11914 244.000684 
L 128.50375 243.827968 
L 127.888359 243.721827 
L 127.272968 243.688376 
L 126.657577 243.729862 
L 126.042187 243.844737 
L 125.426796 244.027856 
L 124.811405 244.27081 
L 124.196015 244.562351 
L 123.580624 244.888903 
L 122.965233 245.235124 
L 122.349842 245.584514 
L 121.734452 245.920029 
L 121.119061 246.224694 
L 120.50367 246.482199 
L 119.88828 246.67744 
L 119.272889 246.797018 
L 118.657498 246.829653 
L 118.042107 246.766532 
L 117.426717 246.601552 
L 116.811326 246.331473 
L 116.195935 245.955966 
L 115.580545 245.477562 
L 114.965154 244.901492 
L 114.349763 244.235441 
L 113.734373 243.489196 
L 113.118982 242.674227 
L 112.503591 241.803183 
L 111.8882 245.003656 
L 111.27281 245.003901 
L 110.657419 238.432408 
L 110.042028 237.645949 
L 109.426638 236.88706 
L 108.811247 236.153577 
L 108.195856 235.439524 
L 107.580465 234.735117 
L 106.965075 234.026921 
L 106.349684 233.298136 
L 105.734293 232.529044 
L 105.118903 231.697592 
L 104.503512 230.780127 
L 103.888121 229.752257 
L 103.27273 228.589841 
L 102.65734 227.270091 
L 102.041949 225.772757 
L 101.426558 224.08139 
L 100.811168 222.184641 
L 100.195777 220.077573 
L 99.580386 217.762948 
L 98.964995 215.252451 
L 98.349605 212.567802 
L 97.734214 209.741713 
L 97.118823 206.818628 
L 96.503433 203.855198 
L 95.888042 200.92041 
L 95.272651 198.095323 
L 94.65726 195.472312 
L 94.04187 193.153765 
L 93.426479 191.250129 
L 92.811088 189.877224 
L 92.195698 189.152733 
L 91.580307 189.19176 
L 90.964916 190.101357 
L 90.349525 191.973905 
L 89.734135 194.879239 
L 89.118744 198.855387 
L 88.503353 203.897811 
L 87.887963 209.947001 
L 87.272572 216.874306 
L 86.657181 224.465845 
L 86.04179 232.404359 
L 85.4264 240.248858 
L 84.811009 247.411895 
L 84.195618 253.134327 
L 83.580228 256.457376 
L 82.964837 256.191843 
L 82.349446 250.884288 
L 81.734055 238.780007 
L 81.118665 217.782622 
z
" clip-path="url(#pf7be631ad5)" style="fill: #9467bd; fill-opacity: 0.166667"/>
   </g>
   <g id="PolyCollection_6">
    <path d="M 81.118665 181.825498 
L 81.118665 245.004822 
L 84.398004 245.004822 
L 87.677342 245.004822 
L 90.956681 245.004822 
L 94.23602 245.004822 
L 97.515359 245.004822 
L 100.794698 245.004822 
L 104.074037 245.004822 
L 107.353376 245.004822 
L 110.632714 245.004822 
L 113.912053 245.004822 
L 117.191392 245.004822 
L 120.470731 245.004822 
L 123.75007 245.004822 
L 127.029409 245.004822 
L 130.308747 245.004822 
L 133.588086 245.004822 
L 136.867425 245.004822 
L 140.146764 245.004822 
L 143.426103 245.004822 
L 146.705442 245.004822 
L 149.98478 245.004822 
L 153.264119 245.004822 
L 156.543458 245.004822 
L 159.822797 245.004822 
L 163.102136 245.004822 
L 166.381475 245.004822 
L 169.660814 245.004822 
L 172.940152 245.004822 
L 176.219491 245.004822 
L 179.49883 245.004822 
L 182.778169 245.004822 
L 186.057508 245.004822 
L 189.336847 245.004822 
L 192.616185 245.004822 
L 195.895524 245.004822 
L 199.174863 245.004822 
L 202.454202 245.004822 
L 205.733541 245.004822 
L 209.01288 245.004822 
L 212.292218 245.004822 
L 215.571557 245.004822 
L 218.850896 245.004822 
L 222.130235 245.004822 
L 225.409574 245.004822 
L 228.688913 245.004822 
L 231.968252 245.004822 
L 235.24759 245.004822 
L 238.526929 245.004822 
L 241.806268 245.004822 
L 245.085607 245.004822 
L 248.364946 245.004822 
L 251.644285 245.004822 
L 254.923623 245.004822 
L 258.202962 245.004822 
L 261.482301 245.004822 
L 264.76164 245.004822 
L 268.040979 245.004822 
L 271.320318 245.004822 
L 274.599657 245.004822 
L 277.878995 245.004822 
L 281.158334 245.004822 
L 284.437673 245.004822 
L 287.717012 245.004822 
L 290.996351 245.004822 
L 294.27569 245.004822 
L 297.555028 245.004822 
L 300.834367 245.004822 
L 304.113706 245.004822 
L 307.393045 245.004822 
L 310.672384 245.004822 
L 313.951723 245.004822 
L 317.231061 245.004822 
L 320.5104 245.004822 
L 323.789739 245.004822 
L 327.069078 245.004822 
L 330.348417 245.004822 
L 333.627756 245.004822 
L 336.907095 245.004822 
L 340.186433 245.004822 
L 343.465772 245.004822 
L 346.745111 245.004822 
L 350.02445 245.004822 
L 353.303789 245.004822 
L 356.583128 245.004822 
L 359.862466 245.004822 
L 363.141805 245.004822 
L 366.421144 245.004822 
L 369.700483 245.004822 
L 372.979822 245.004822 
L 376.259161 245.004822 
L 379.538499 245.004822 
L 382.817838 245.004822 
L 386.097177 245.004822 
L 389.376516 245.004822 
L 392.655855 245.004822 
L 395.935194 245.004822 
L 399.214533 245.004822 
L 402.493871 245.004822 
L 405.77321 245.004822 
L 405.77321 262.490802 
L 405.77321 262.490802 
L 402.493871 241.094258 
L 399.214533 232.585336 
L 395.935194 231.96146 
L 392.655855 235.598922 
L 389.376516 240.972129 
L 386.097177 246.415459 
L 382.817838 250.92297 
L 379.538499 253.981589 
L 376.259161 255.43378 
L 372.979822 255.365985 
L 369.700483 254.019477 
L 366.421144 251.720554 
L 363.141805 248.827283 
L 359.862466 245.690266 
L 356.583128 242.625177 
L 353.303789 239.895002 
L 350.02445 237.700208 
L 346.745111 236.1752 
L 343.465772 235.389672 
L 340.186433 235.353614 
L 336.907095 236.024908 
L 333.627756 237.3186 
L 330.348417 239.117074 
L 327.069078 241.280496 
L 323.789739 243.657 
L 320.5104 246.092204 
L 317.231061 248.437741 
L 313.951723 250.558575 
L 310.672384 252.338952 
L 307.393045 253.686915 
L 304.113706 254.537334 
L 300.834367 254.853513 
L 297.555028 254.627431 
L 294.27569 253.878716 
L 290.996351 252.652522 
L 287.717012 251.016438 
L 284.437673 249.05662 
L 281.158334 246.873338 
L 277.878995 244.576126 
L 274.599657 242.278718 
L 271.320318 240.093976 
L 268.040979 238.128976 
L 264.76164 236.480421 
L 261.482301 235.230538 
L 258.202962 234.443583 
L 254.923623 234.163074 
L 251.644285 234.409835 
L 248.364946 235.180914 
L 245.085607 245.0082 
L 241.806268 245.008565 
L 238.526929 238.348081 
L 235.24759 240.976723 
L 231.968252 243.874859 
L 228.688913 246.908112 
L 225.409574 249.931353 
L 222.130235 252.794713 
L 218.850896 255.350034 
L 215.571557 257.457568 
L 212.292218 258.992686 
L 209.01288 259.852358 
L 205.733541 259.96115 
L 202.454202 259.276479 
L 199.174863 257.792865 
L 195.895524 255.54495 
L 192.616185 252.60902 
L 189.336847 249.102846 
L 186.057508 245.183644 
L 182.778169 241.044024 
L 179.49883 236.905823 
L 176.219491 233.011791 
L 172.940152 229.615166 
L 169.660814 226.967232 
L 166.381475 225.303087 
L 163.102136 224.825897 
L 159.822797 225.690074 
L 156.543458 227.983908 
L 153.264119 231.71236 
L 149.98478 236.78083 
L 146.705442 242.980944 
L 143.426103 249.979525 
L 140.146764 257.312179 
L 136.867425 264.383083 
L 133.588086 270.47284 
L 130.308747 274.756502 
L 127.029409 276.334125 
L 123.75007 274.276518 
L 120.470731 267.68915 
L 117.191392 255.797503 
L 113.912053 238.057523 
L 110.632714 214.295149 
L 107.353376 184.879339 
L 104.074037 150.933383 
L 100.794698 114.589733 
L 97.515359 79.294062 
L 94.23602 50.164698 
L 90.956681 34.414125 
L 87.677342 41.839732 
L 84.398004 85.391579 
L 81.118665 181.825498 
z
" clip-path="url(#pf7be631ad5)" style="fill: #8c564b; fill-opacity: 0.166667"/>
   </g>
   <g id="matplotlib.axis_1">
    <g id="xtick_1">
     <g id="line2d_1">
      <defs>
       <path id="m652f32e6cc" d="M 0 0 
L 0 3.5 
" style="stroke: #000000; stroke-width: 0.8"/>
      </defs>
      <g>
       <use xlink:href="#m652f32e6cc" x="81.118665" y="288.430125" style="stroke: #000000; stroke-width: 0.8"/>
      </g>
     </g>
     <g id="text_1">
      <!-- 0.000 -->
      <g transform="translate(66.804602 303.028562) scale(0.1 -0.1)">
       <defs>
        <path id="DejaVuSans-30" d="M 2034 4250 
Q 1547 4250 1301 3770 
Q 1056 3291 1056 2328 
Q 1056 1369 1301 889 
Q 1547 409 2034 409 
Q 2525 409 2770 889 
Q 3016 1369 3016 2328 
Q 3016 3291 2770 3770 
Q 2525 4250 2034 4250 
z
M 2034 4750 
Q 2819 4750 3233 4129 
Q 3647 3509 3647 2328 
Q 3647 1150 3233 529 
Q 2819 -91 2034 -91 
Q 1250 -91 836 529 
Q 422 1150 422 2328 
Q 422 3509 836 4129 
Q 1250 4750 2034 4750 
z
" transform="scale(0.015625)"/>
        <path id="DejaVuSans-2e" d="M 684 794 
L 1344 794 
L 1344 0 
L 684 0 
L 684 794 
z
" transform="scale(0.015625)"/>
       </defs>
       <use xlink:href="#DejaVuSans-30"/>
       <use xlink:href="#DejaVuSans-2e" x="63.623047"/>
       <use xlink:href="#DejaVuSans-30" x="95.410156"/>
       <use xlink:href="#DejaVuSans-30" x="159.033203"/>
       <use xlink:href="#DejaVuSans-30" x="222.65625"/>
      </g>
     </g>
    </g>
    <g id="xtick_2">
     <g id="line2d_2">
      <g>
       <use xlink:href="#m652f32e6cc" x="125.312669" y="288.430125" style="stroke: #000000; stroke-width: 0.8"/>
      </g>
     </g>
     <g id="text_2">
      <!-- 0.002 -->
      <g transform="translate(110.998607 303.028562) scale(0.1 -0.1)">
       <defs>
        <path id="DejaVuSans-32" d="M 1228 531 
L 3431 531 
L 3431 0 
L 469 0 
L 469 531 
Q 828 903 1448 1529 
Q 2069 2156 2228 2338 
Q 2531 2678 2651 2914 
Q 2772 3150 2772 3378 
Q 2772 3750 2511 3984 
Q 2250 4219 1831 4219 
Q 1534 4219 1204 4116 
Q 875 4013 500 3803 
L 500 4441 
Q 881 4594 1212 4672 
Q 1544 4750 1819 4750 
Q 2544 4750 2975 4387 
Q 3406 4025 3406 3419 
Q 3406 3131 3298 2873 
Q 3191 2616 2906 2266 
Q 2828 2175 2409 1742 
Q 1991 1309 1228 531 
z
" transform="scale(0.015625)"/>
       </defs>
       <use xlink:href="#DejaVuSans-30"/>
       <use xlink:href="#DejaVuSans-2e" x="63.623047"/>
       <use xlink:href="#DejaVuSans-30" x="95.410156"/>
       <use xlink:href="#DejaVuSans-30" x="159.033203"/>
       <use xlink:href="#DejaVuSans-32" x="222.65625"/>
      </g>
     </g>
    </g>
    <g id="xtick_3">
     <g id="line2d_3">
      <g>
       <use xlink:href="#m652f32e6cc" x="169.506674" y="288.430125" style="stroke: #000000; stroke-width: 0.8"/>
      </g>
     </g>
     <g id="text_3">
      <!-- 0.004 -->
      <g transform="translate(155.192611 303.028562) scale(0.1 -0.1)">
       <defs>
        <path id="DejaVuSans-34" d="M 2419 4116 
L 825 1625 
L 2419 1625 
L 2419 4116 
z
M 2253 4666 
L 3047 4666 
L 3047 1625 
L 3713 1625 
L 3713 1100 
L 3047 1100 
L 3047 0 
L 2419 0 
L 2419 1100 
L 313 1100 
L 313 1709 
L 2253 4666 
z
" transform="scale(0.015625)"/>
       </defs>
       <use xlink:href="#DejaVuSans-30"/>
       <use xlink:href="#DejaVuSans-2e" x="63.623047"/>
       <use xlink:href="#DejaVuSans-30" x="95.410156"/>
       <use xlink:href="#DejaVuSans-30" x="159.033203"/>
       <use xlink:href="#DejaVuSans-34" x="222.65625"/>
      </g>
     </g>
    </g>
    <g id="xtick_4">
     <g id="line2d_4">
      <g>
       <use xlink:href="#m652f32e6cc" x="213.700678" y="288.430125" style="stroke: #000000; stroke-width: 0.8"/>
      </g>
     </g>
     <g id="text_4">
      <!-- 0.006 -->
      <g transform="translate(199.386616 303.028562) scale(0.1 -0.1)">
       <defs>
        <path id="DejaVuSans-36" d="M 2113 2584 
Q 1688 2584 1439 2293 
Q 1191 2003 1191 1497 
Q 1191 994 1439 701 
Q 1688 409 2113 409 
Q 2538 409 2786 701 
Q 3034 994 3034 1497 
Q 3034 2003 2786 2293 
Q 2538 2584 2113 2584 
z
M 3366 4563 
L 3366 3988 
Q 3128 4100 2886 4159 
Q 2644 4219 2406 4219 
Q 1781 4219 1451 3797 
Q 1122 3375 1075 2522 
Q 1259 2794 1537 2939 
Q 1816 3084 2150 3084 
Q 2853 3084 3261 2657 
Q 3669 2231 3669 1497 
Q 3669 778 3244 343 
Q 2819 -91 2113 -91 
Q 1303 -91 875 529 
Q 447 1150 447 2328 
Q 447 3434 972 4092 
Q 1497 4750 2381 4750 
Q 2619 4750 2861 4703 
Q 3103 4656 3366 4563 
z
" transform="scale(0.015625)"/>
       </defs>
       <use xlink:href="#DejaVuSans-30"/>
       <use xlink:href="#DejaVuSans-2e" x="63.623047"/>
       <use xlink:href="#DejaVuSans-30" x="95.410156"/>
       <use xlink:href="#DejaVuSans-30" x="159.033203"/>
       <use xlink:href="#DejaVuSans-36" x="222.65625"/>
      </g>
     </g>
    </g>
    <g id="xtick_5">
     <g id="line2d_5">
      <g>
       <use xlink:href="#m652f32e6cc" x="257.894683" y="288.430125" style="stroke: #000000; stroke-width: 0.8"/>
      </g>
     </g>
     <g id="text_5">
      <!-- 0.008 -->
      <g transform="translate(243.58062 303.028562) scale(0.1 -0.1)">
       <defs>
        <path id="DejaVuSans-38" d="M 2034 2216 
Q 1584 2216 1326 1975 
Q 1069 1734 1069 1313 
Q 1069 891 1326 650 
Q 1584 409 2034 409 
Q 2484 409 2743 651 
Q 3003 894 3003 1313 
Q 3003 1734 2745 1975 
Q 2488 2216 2034 2216 
z
M 1403 2484 
Q 997 2584 770 2862 
Q 544 3141 544 3541 
Q 544 4100 942 4425 
Q 1341 4750 2034 4750 
Q 2731 4750 3128 4425 
Q 3525 4100 3525 3541 
Q 3525 3141 3298 2862 
Q 3072 2584 2669 2484 
Q 3125 2378 3379 2068 
Q 3634 1759 3634 1313 
Q 3634 634 3220 271 
Q 2806 -91 2034 -91 
Q 1263 -91 848 271 
Q 434 634 434 1313 
Q 434 1759 690 2068 
Q 947 2378 1403 2484 
z
M 1172 3481 
Q 1172 3119 1398 2916 
Q 1625 2713 2034 2713 
Q 2441 2713 2670 2916 
Q 2900 3119 2900 3481 
Q 2900 3844 2670 4047 
Q 2441 4250 2034 4250 
Q 1625 4250 1398 4047 
Q 1172 3844 1172 3481 
z
" transform="scale(0.015625)"/>
       </defs>
       <use xlink:href="#DejaVuSans-30"/>
       <use xlink:href="#DejaVuSans-2e" x="63.623047"/>
       <use xlink:href="#DejaVuSans-30" x="95.410156"/>
       <use xlink:href="#DejaVuSans-30" x="159.033203"/>
       <use xlink:href="#DejaVuSans-38" x="222.65625"/>
      </g>
     </g>
    </g>
    <g id="xtick_6">
     <g id="line2d_6">
      <g>
       <use xlink:href="#m652f32e6cc" x="302.088687" y="288.430125" style="stroke: #000000; stroke-width: 0.8"/>
      </g>
     </g>
     <g id="text_6">
      <!-- 0.010 -->
      <g transform="translate(287.774625 303.028562) scale(0.1 -0.1)">
       <defs>
        <path id="DejaVuSans-31" d="M 794 531 
L 1825 531 
L 1825 4091 
L 703 3866 
L 703 4441 
L 1819 4666 
L 2450 4666 
L 2450 531 
L 3481 531 
L 3481 0 
L 794 0 
L 794 531 
z
" transform="scale(0.015625)"/>
       </defs>
       <use xlink:href="#DejaVuSans-30"/>
       <use xlink:href="#DejaVuSans-2e" x="63.623047"/>
       <use xlink:href="#DejaVuSans-30" x="95.410156"/>
       <use xlink:href="#DejaVuSans-31" x="159.033203"/>
       <use xlink:href="#DejaVuSans-30" x="222.65625"/>
      </g>
     </g>
    </g>
    <g id="xtick_7">
     <g id="line2d_7">
      <g>
       <use xlink:href="#m652f32e6cc" x="346.282691" y="288.430125" style="stroke: #000000; stroke-width: 0.8"/>
      </g>
     </g>
     <g id="text_7">
      <!-- 0.012 -->
      <g transform="translate(331.968629 303.028562) scale(0.1 -0.1)">
       <use xlink:href="#DejaVuSans-30"/>
       <use xlink:href="#DejaVuSans-2e" x="63.623047"/>
       <use xlink:href="#DejaVuSans-30" x="95.410156"/>
       <use xlink:href="#DejaVuSans-31" x="159.033203"/>
       <use xlink:href="#DejaVuSans-32" x="222.65625"/>
      </g>
     </g>
    </g>
    <g id="xtick_8">
     <g id="line2d_8">
      <g>
       <use xlink:href="#m652f32e6cc" x="390.476696" y="288.430125" style="stroke: #000000; stroke-width: 0.8"/>
      </g>
     </g>
     <g id="text_8">
      <!-- 0.014 -->
      <g transform="translate(376.162633 303.028562) scale(0.1 -0.1)">
       <use xlink:href="#DejaVuSans-30"/>
       <use xlink:href="#DejaVuSans-2e" x="63.623047"/>
       <use xlink:href="#DejaVuSans-30" x="95.410156"/>
       <use xlink:href="#DejaVuSans-31" x="159.033203"/>
       <use xlink:href="#DejaVuSans-34" x="222.65625"/>
      </g>
     </g>
    </g>
    <g id="text_9">
     <!-- Pixel values -->
     <g transform="translate(214.034219 316.706687) scale(0.1 -0.1)">
      <defs>
       <path id="DejaVuSans-50" d="M 1259 4147 
L 1259 2394 
L 2053 2394 
Q 2494 2394 2734 2622 
Q 2975 2850 2975 3272 
Q 2975 3691 2734 3919 
Q 2494 4147 2053 4147 
L 1259 4147 
z
M 628 4666 
L 2053 4666 
Q 2838 4666 3239 4311 
Q 3641 3956 3641 3272 
Q 3641 2581 3239 2228 
Q 2838 1875 2053 1875 
L 1259 1875 
L 1259 0 
L 628 0 
L 628 4666 
z
" transform="scale(0.015625)"/>
       <path id="DejaVuSans-69" d="M 603 3500 
L 1178 3500 
L 1178 0 
L 603 0 
L 603 3500 
z
M 603 4863 
L 1178 4863 
L 1178 4134 
L 603 4134 
L 603 4863 
z
" transform="scale(0.015625)"/>
       <path id="DejaVuSans-78" d="M 3513 3500 
L 2247 1797 
L 3578 0 
L 2900 0 
L 1881 1375 
L 863 0 
L 184 0 
L 1544 1831 
L 300 3500 
L 978 3500 
L 1906 2253 
L 2834 3500 
L 3513 3500 
z
" transform="scale(0.015625)"/>
       <path id="DejaVuSans-65" d="M 3597 1894 
L 3597 1613 
L 953 1613 
Q 991 1019 1311 708 
Q 1631 397 2203 397 
Q 2534 397 2845 478 
Q 3156 559 3463 722 
L 3463 178 
Q 3153 47 2828 -22 
Q 2503 -91 2169 -91 
Q 1331 -91 842 396 
Q 353 884 353 1716 
Q 353 2575 817 3079 
Q 1281 3584 2069 3584 
Q 2775 3584 3186 3129 
Q 3597 2675 3597 1894 
z
M 3022 2063 
Q 3016 2534 2758 2815 
Q 2500 3097 2075 3097 
Q 1594 3097 1305 2825 
Q 1016 2553 972 2059 
L 3022 2063 
z
" transform="scale(0.015625)"/>
       <path id="DejaVuSans-6c" d="M 603 4863 
L 1178 4863 
L 1178 0 
L 603 0 
L 603 4863 
z
" transform="scale(0.015625)"/>
       <path id="DejaVuSans-20" transform="scale(0.015625)"/>
       <path id="DejaVuSans-76" d="M 191 3500 
L 800 3500 
L 1894 563 
L 2988 3500 
L 3597 3500 
L 2284 0 
L 1503 0 
L 191 3500 
z
" transform="scale(0.015625)"/>
       <path id="DejaVuSans-61" d="M 2194 1759 
Q 1497 1759 1228 1600 
Q 959 1441 959 1056 
Q 959 750 1161 570 
Q 1363 391 1709 391 
Q 2188 391 2477 730 
Q 2766 1069 2766 1631 
L 2766 1759 
L 2194 1759 
z
M 3341 1997 
L 3341 0 
L 2766 0 
L 2766 531 
Q 2569 213 2275 61 
Q 1981 -91 1556 -91 
Q 1019 -91 701 211 
Q 384 513 384 1019 
Q 384 1609 779 1909 
Q 1175 2209 1959 2209 
L 2766 2209 
L 2766 2266 
Q 2766 2663 2505 2880 
Q 2244 3097 1772 3097 
Q 1472 3097 1187 3025 
Q 903 2953 641 2809 
L 641 3341 
Q 956 3463 1253 3523 
Q 1550 3584 1831 3584 
Q 2591 3584 2966 3190 
Q 3341 2797 3341 1997 
z
" transform="scale(0.015625)"/>
       <path id="DejaVuSans-75" d="M 544 1381 
L 544 3500 
L 1119 3500 
L 1119 1403 
Q 1119 906 1312 657 
Q 1506 409 1894 409 
Q 2359 409 2629 706 
Q 2900 1003 2900 1516 
L 2900 3500 
L 3475 3500 
L 3475 0 
L 2900 0 
L 2900 538 
Q 2691 219 2414 64 
Q 2138 -91 1772 -91 
Q 1169 -91 856 284 
Q 544 659 544 1381 
z
M 1991 3584 
L 1991 3584 
z
" transform="scale(0.015625)"/>
       <path id="DejaVuSans-73" d="M 2834 3397 
L 2834 2853 
Q 2591 2978 2328 3040 
Q 2066 3103 1784 3103 
Q 1356 3103 1142 2972 
Q 928 2841 928 2578 
Q 928 2378 1081 2264 
Q 1234 2150 1697 2047 
L 1894 2003 
Q 2506 1872 2764 1633 
Q 3022 1394 3022 966 
Q 3022 478 2636 193 
Q 2250 -91 1575 -91 
Q 1294 -91 989 -36 
Q 684 19 347 128 
L 347 722 
Q 666 556 975 473 
Q 1284 391 1588 391 
Q 1994 391 2212 530 
Q 2431 669 2431 922 
Q 2431 1156 2273 1281 
Q 2116 1406 1581 1522 
L 1381 1569 
Q 847 1681 609 1914 
Q 372 2147 372 2553 
Q 372 3047 722 3315 
Q 1072 3584 1716 3584 
Q 2034 3584 2315 3537 
Q 2597 3491 2834 3397 
z
" transform="scale(0.015625)"/>
      </defs>
      <use xlink:href="#DejaVuSans-50"/>
      <use xlink:href="#DejaVuSans-69" x="58.052734"/>
      <use xlink:href="#DejaVuSans-78" x="85.835938"/>
      <use xlink:href="#DejaVuSans-65" x="141.890625"/>
      <use xlink:href="#DejaVuSans-6c" x="203.414062"/>
      <use xlink:href="#DejaVuSans-20" x="231.197266"/>
      <use xlink:href="#DejaVuSans-76" x="262.984375"/>
      <use xlink:href="#DejaVuSans-61" x="322.164062"/>
      <use xlink:href="#DejaVuSans-6c" x="383.443359"/>
      <use xlink:href="#DejaVuSans-75" x="411.226562"/>
      <use xlink:href="#DejaVuSans-65" x="474.605469"/>
      <use xlink:href="#DejaVuSans-73" x="536.128906"/>
     </g>
    </g>
   </g>
   <g id="matplotlib.axis_2">
    <g id="ytick_1">
     <g id="line2d_9">
      <defs>
       <path id="ma28b22230c" d="M 0 0 
L -3.5 0 
" style="stroke: #000000; stroke-width: 0.8"/>
      </defs>
      <g>
       <use xlink:href="#ma28b22230c" x="64.885937" y="275.508093" style="stroke: #000000; stroke-width: 0.8"/>
      </g>
     </g>
     <g id="text_10">
      <!-- −0.025 -->
      <g transform="translate(20.878125 279.307312) scale(0.1 -0.1)">
       <defs>
        <path id="DejaVuSans-2212" d="M 678 2272 
L 4684 2272 
L 4684 1741 
L 678 1741 
L 678 2272 
z
" transform="scale(0.015625)"/>
        <path id="DejaVuSans-35" d="M 691 4666 
L 3169 4666 
L 3169 4134 
L 1269 4134 
L 1269 2991 
Q 1406 3038 1543 3061 
Q 1681 3084 1819 3084 
Q 2600 3084 3056 2656 
Q 3513 2228 3513 1497 
Q 3513 744 3044 326 
Q 2575 -91 1722 -91 
Q 1428 -91 1123 -41 
Q 819 9 494 109 
L 494 744 
Q 775 591 1075 516 
Q 1375 441 1709 441 
Q 2250 441 2565 725 
Q 2881 1009 2881 1497 
Q 2881 1984 2565 2268 
Q 2250 2553 1709 2553 
Q 1456 2553 1204 2497 
Q 953 2441 691 2322 
L 691 4666 
z
" transform="scale(0.015625)"/>
       </defs>
       <use xlink:href="#DejaVuSans-2212"/>
       <use xlink:href="#DejaVuSans-30" x="83.789062"/>
       <use xlink:href="#DejaVuSans-2e" x="147.412109"/>
       <use xlink:href="#DejaVuSans-30" x="179.199219"/>
       <use xlink:href="#DejaVuSans-32" x="242.822266"/>
       <use xlink:href="#DejaVuSans-35" x="306.445312"/>
      </g>
     </g>
    </g>
    <g id="ytick_2">
     <g id="line2d_10">
      <g>
       <use xlink:href="#ma28b22230c" x="64.885937" y="245.004822" style="stroke: #000000; stroke-width: 0.8"/>
      </g>
     </g>
     <g id="text_11">
      <!-- 0.000 -->
      <g transform="translate(29.257812 248.804041) scale(0.1 -0.1)">
       <use xlink:href="#DejaVuSans-30"/>
       <use xlink:href="#DejaVuSans-2e" x="63.623047"/>
       <use xlink:href="#DejaVuSans-30" x="95.410156"/>
       <use xlink:href="#DejaVuSans-30" x="159.033203"/>
       <use xlink:href="#DejaVuSans-30" x="222.65625"/>
      </g>
     </g>
    </g>
    <g id="ytick_3">
     <g id="line2d_11">
      <g>
       <use xlink:href="#ma28b22230c" x="64.885937" y="214.501551" style="stroke: #000000; stroke-width: 0.8"/>
      </g>
     </g>
     <g id="text_12">
      <!-- 0.025 -->
      <g transform="translate(29.257812 218.30077) scale(0.1 -0.1)">
       <use xlink:href="#DejaVuSans-30"/>
       <use xlink:href="#DejaVuSans-2e" x="63.623047"/>
       <use xlink:href="#DejaVuSans-30" x="95.410156"/>
       <use xlink:href="#DejaVuSans-32" x="159.033203"/>
       <use xlink:href="#DejaVuSans-35" x="222.65625"/>
      </g>
     </g>
    </g>
    <g id="ytick_4">
     <g id="line2d_12">
      <g>
       <use xlink:href="#ma28b22230c" x="64.885937" y="183.99828" style="stroke: #000000; stroke-width: 0.8"/>
      </g>
     </g>
     <g id="text_13">
      <!-- 0.050 -->
      <g transform="translate(29.257812 187.797498) scale(0.1 -0.1)">
       <use xlink:href="#DejaVuSans-30"/>
       <use xlink:href="#DejaVuSans-2e" x="63.623047"/>
       <use xlink:href="#DejaVuSans-30" x="95.410156"/>
       <use xlink:href="#DejaVuSans-35" x="159.033203"/>
       <use xlink:href="#DejaVuSans-30" x="222.65625"/>
      </g>
     </g>
    </g>
    <g id="ytick_5">
     <g id="line2d_13">
      <g>
       <use xlink:href="#ma28b22230c" x="64.885937" y="153.495008" style="stroke: #000000; stroke-width: 0.8"/>
      </g>
     </g>
     <g id="text_14">
      <!-- 0.075 -->
      <g transform="translate(29.257812 157.294227) scale(0.1 -0.1)">
       <defs>
        <path id="DejaVuSans-37" d="M 525 4666 
L 3525 4666 
L 3525 4397 
L 1831 0 
L 1172 0 
L 2766 4134 
L 525 4134 
L 525 4666 
z
" transform="scale(0.015625)"/>
       </defs>
       <use xlink:href="#DejaVuSans-30"/>
       <use xlink:href="#DejaVuSans-2e" x="63.623047"/>
       <use xlink:href="#DejaVuSans-30" x="95.410156"/>
       <use xlink:href="#DejaVuSans-37" x="159.033203"/>
       <use xlink:href="#DejaVuSans-35" x="222.65625"/>
      </g>
     </g>
    </g>
    <g id="ytick_6">
     <g id="line2d_14">
      <g>
       <use xlink:href="#ma28b22230c" x="64.885937" y="122.991737" style="stroke: #000000; stroke-width: 0.8"/>
      </g>
     </g>
     <g id="text_15">
      <!-- 0.100 -->
      <g transform="translate(29.257812 126.790956) scale(0.1 -0.1)">
       <use xlink:href="#DejaVuSans-30"/>
       <use xlink:href="#DejaVuSans-2e" x="63.623047"/>
       <use xlink:href="#DejaVuSans-31" x="95.410156"/>
       <use xlink:href="#DejaVuSans-30" x="159.033203"/>
       <use xlink:href="#DejaVuSans-30" x="222.65625"/>
      </g>
     </g>
    </g>
    <g id="ytick_7">
     <g id="line2d_15">
      <g>
       <use xlink:href="#ma28b22230c" x="64.885937" y="92.488466" style="stroke: #000000; stroke-width: 0.8"/>
      </g>
     </g>
     <g id="text_16">
      <!-- 0.125 -->
      <g transform="translate(29.257812 96.287684) scale(0.1 -0.1)">
       <use xlink:href="#DejaVuSans-30"/>
       <use xlink:href="#DejaVuSans-2e" x="63.623047"/>
       <use xlink:href="#DejaVuSans-31" x="95.410156"/>
       <use xlink:href="#DejaVuSans-32" x="159.033203"/>
       <use xlink:href="#DejaVuSans-35" x="222.65625"/>
      </g>
     </g>
    </g>
    <g id="ytick_8">
     <g id="line2d_16">
      <g>
       <use xlink:href="#ma28b22230c" x="64.885937" y="61.985194" style="stroke: #000000; stroke-width: 0.8"/>
      </g>
     </g>
     <g id="text_17">
      <!-- 0.150 -->
      <g transform="translate(29.257812 65.784413) scale(0.1 -0.1)">
       <use xlink:href="#DejaVuSans-30"/>
       <use xlink:href="#DejaVuSans-2e" x="63.623047"/>
       <use xlink:href="#DejaVuSans-31" x="95.410156"/>
       <use xlink:href="#DejaVuSans-35" x="159.033203"/>
       <use xlink:href="#DejaVuSans-30" x="222.65625"/>
      </g>
     </g>
    </g>
    <g id="ytick_9">
     <g id="line2d_17">
      <g>
       <use xlink:href="#ma28b22230c" x="64.885937" y="31.481923" style="stroke: #000000; stroke-width: 0.8"/>
      </g>
     </g>
     <g id="text_18">
      <!-- 0.175 -->
      <g transform="translate(29.257812 35.281142) scale(0.1 -0.1)">
       <use xlink:href="#DejaVuSans-30"/>
       <use xlink:href="#DejaVuSans-2e" x="63.623047"/>
       <use xlink:href="#DejaVuSans-31" x="95.410156"/>
       <use xlink:href="#DejaVuSans-37" x="159.033203"/>
       <use xlink:href="#DejaVuSans-35" x="222.65625"/>
      </g>
     </g>
    </g>
    <g id="text_19">
     <!-- Frequency -->
     <g transform="translate(14.798437 181.203812) rotate(-90) scale(0.1 -0.1)">
      <defs>
       <path id="DejaVuSans-46" d="M 628 4666 
L 3309 4666 
L 3309 4134 
L 1259 4134 
L 1259 2759 
L 3109 2759 
L 3109 2228 
L 1259 2228 
L 1259 0 
L 628 0 
L 628 4666 
z
" transform="scale(0.015625)"/>
       <path id="DejaVuSans-72" d="M 2631 2963 
Q 2534 3019 2420 3045 
Q 2306 3072 2169 3072 
Q 1681 3072 1420 2755 
Q 1159 2438 1159 1844 
L 1159 0 
L 581 0 
L 581 3500 
L 1159 3500 
L 1159 2956 
Q 1341 3275 1631 3429 
Q 1922 3584 2338 3584 
Q 2397 3584 2469 3576 
Q 2541 3569 2628 3553 
L 2631 2963 
z
" transform="scale(0.015625)"/>
       <path id="DejaVuSans-71" d="M 947 1747 
Q 947 1113 1208 752 
Q 1469 391 1925 391 
Q 2381 391 2643 752 
Q 2906 1113 2906 1747 
Q 2906 2381 2643 2742 
Q 2381 3103 1925 3103 
Q 1469 3103 1208 2742 
Q 947 2381 947 1747 
z
M 2906 525 
Q 2725 213 2448 61 
Q 2172 -91 1784 -91 
Q 1150 -91 751 415 
Q 353 922 353 1747 
Q 353 2572 751 3078 
Q 1150 3584 1784 3584 
Q 2172 3584 2448 3432 
Q 2725 3281 2906 2969 
L 2906 3500 
L 3481 3500 
L 3481 -1331 
L 2906 -1331 
L 2906 525 
z
" transform="scale(0.015625)"/>
       <path id="DejaVuSans-6e" d="M 3513 2113 
L 3513 0 
L 2938 0 
L 2938 2094 
Q 2938 2591 2744 2837 
Q 2550 3084 2163 3084 
Q 1697 3084 1428 2787 
Q 1159 2491 1159 1978 
L 1159 0 
L 581 0 
L 581 3500 
L 1159 3500 
L 1159 2956 
Q 1366 3272 1645 3428 
Q 1925 3584 2291 3584 
Q 2894 3584 3203 3211 
Q 3513 2838 3513 2113 
z
" transform="scale(0.015625)"/>
       <path id="DejaVuSans-63" d="M 3122 3366 
L 3122 2828 
Q 2878 2963 2633 3030 
Q 2388 3097 2138 3097 
Q 1578 3097 1268 2742 
Q 959 2388 959 1747 
Q 959 1106 1268 751 
Q 1578 397 2138 397 
Q 2388 397 2633 464 
Q 2878 531 3122 666 
L 3122 134 
Q 2881 22 2623 -34 
Q 2366 -91 2075 -91 
Q 1284 -91 818 406 
Q 353 903 353 1747 
Q 353 2603 823 3093 
Q 1294 3584 2113 3584 
Q 2378 3584 2631 3529 
Q 2884 3475 3122 3366 
z
" transform="scale(0.015625)"/>
       <path id="DejaVuSans-79" d="M 2059 -325 
Q 1816 -950 1584 -1140 
Q 1353 -1331 966 -1331 
L 506 -1331 
L 506 -850 
L 844 -850 
Q 1081 -850 1212 -737 
Q 1344 -625 1503 -206 
L 1606 56 
L 191 3500 
L 800 3500 
L 1894 763 
L 2988 3500 
L 3597 3500 
L 2059 -325 
z
" transform="scale(0.015625)"/>
      </defs>
      <use xlink:href="#DejaVuSans-46"/>
      <use xlink:href="#DejaVuSans-72" x="50.269531"/>
      <use xlink:href="#DejaVuSans-65" x="89.132812"/>
      <use xlink:href="#DejaVuSans-71" x="150.65625"/>
      <use xlink:href="#DejaVuSans-75" x="214.132812"/>
      <use xlink:href="#DejaVuSans-65" x="277.511719"/>
      <use xlink:href="#DejaVuSans-6e" x="339.035156"/>
      <use xlink:href="#DejaVuSans-63" x="402.414062"/>
      <use xlink:href="#DejaVuSans-79" x="457.394531"/>
     </g>
    </g>
   </g>
   <g id="line2d_18">
    <path d="M 81.118665 238.415027 
L 82.157253 239.311076 
L 83.19584 238.741296 
L 84.234428 237.115478 
L 85.273016 234.749903 
L 86.311604 231.886903 
L 87.350192 228.71111 
L 88.388779 225.362814 
L 89.427367 221.948804 
L 90.465955 218.551023 
L 91.504543 215.233362 
L 92.543131 212.046865 
L 93.581718 209.033593 
L 94.620306 206.229396 
L 95.658894 203.665764 
L 96.697482 201.37097 
L 97.73607 199.370635 
L 98.774657 197.687879 
L 99.813245 196.343154 
L 100.851833 195.35388 
L 101.890421 194.733964 
L 102.929009 194.493273 
L 103.967596 194.637121 
L 105.006184 195.165824 
L 106.044772 196.074345 
L 107.08336 197.352063 
L 108.121948 198.982689 
L 109.160535 200.944329 
L 110.199123 203.209689 
L 111.237711 205.746447 
L 112.276299 208.517745 
L 113.314887 211.482823 
L 114.353474 214.597749 
L 115.392062 217.816253 
L 116.43065 221.090615 
L 117.469238 224.372616 
L 118.507825 227.614496 
L 119.546413 230.769924 
L 120.585001 233.794935 
L 121.623589 236.648827 
L 122.662177 239.294987 
L 123.700764 241.701629 
L 124.739352 243.842436 
L 125.77794 245.697068 
L 126.816528 247.25155 
L 127.855116 248.498515 
L 128.893703 249.437292 
L 129.932291 250.073854 
L 130.970879 250.420599 
L 132.009467 245.003115 
L 133.048055 245.003494 
L 134.086642 249.783948 
L 135.12523 249.270084 
L 136.163818 248.61313 
L 137.202406 247.848612 
L 138.240994 247.013112 
L 139.279581 246.143339 
L 140.318169 245.275169 
L 141.356757 244.442712 
L 142.395345 243.677397 
L 143.433933 243.007116 
L 144.47252 242.455445 
L 145.511108 242.040961 
L 146.549696 241.77668 
L 147.588284 241.669637 
L 148.626872 241.720628 
L 149.665459 241.924124 
L 150.704047 242.268377 
L 151.742635 242.735736 
L 152.781223 243.303155 
L 153.819811 243.942931 
L 154.858398 244.623632 
L 155.896986 245.311236 
L 156.935574 245.970447 
L 157.974162 246.566175 
L 159.01275 247.065141 
L 160.051337 247.437573 
L 161.089925 247.65894 
L 162.128513 247.711662 
L 163.167101 247.586727 
L 164.205689 247.285123 
L 165.244276 246.81899 
L 166.282864 246.212384 
L 167.321452 245.501508 
L 168.36004 244.734279 
L 169.398628 243.969059 
L 170.437215 243.272366 
L 171.475803 242.715366 
L 172.514391 242.368919 
L 173.552979 242.29693 
L 174.591567 242.547733 
L 175.630154 243.143214 
L 176.668742 244.065352 
L 177.70733 245.239817 
L 178.745918 246.51626 
L 179.784506 247.644867 
L 180.823093 248.248748 
L 181.861681 247.791677 
L 182.900269 245.540673 
L 183.938857 240.522877 
" clip-path="url(#pf7be631ad5)" style="fill: none; stroke: #1f77b4; stroke-width: 1.5; stroke-linecap: square"/>
   </g>
   <g id="line2d_19">
    <path d="M 81.118665 229.040653 
L 81.598747 235.685359 
L 82.078829 243.397387 
L 82.558911 250.158082 
L 83.038993 254.737051 
L 83.519075 256.511587 
L 83.999157 255.314343 
L 84.479239 251.306119 
L 84.959321 244.87091 
L 85.439403 236.530554 
L 85.919485 226.876533 
L 86.399567 216.516699 
L 86.879649 206.034886 
L 87.359731 195.961528 
L 87.839813 186.753618 
L 88.319895 178.782458 
L 88.799977 172.327844 
L 89.280059 167.577456 
L 89.760141 164.63034 
L 90.240223 163.50355 
L 90.720305 164.141069 
L 91.200387 166.424296 
L 91.680469 170.183444 
L 92.160551 175.209327 
L 92.640633 181.265073 
L 93.120715 188.097392 
L 93.600797 195.447102 
L 94.080879 203.058683 
L 94.560961 210.68868 
L 95.041043 218.112852 
L 95.521125 225.131983 
L 96.001207 231.57634 
L 96.481289 237.308789 
L 96.961371 242.226607 
L 97.441453 246.262073 
L 97.921535 249.381916 
L 98.401617 251.585757 
L 98.881699 252.903652 
L 99.361781 253.392877 
L 99.841863 253.134121 
L 100.321945 252.227199 
L 100.802027 250.786476 
L 101.282109 248.936107 
L 101.762191 246.80527 
L 102.242273 244.523505 
L 102.722355 242.216283 
L 103.202436 240.00093 
L 103.682518 237.982998 
L 104.1626 236.253162 
L 104.642682 245.007521 
L 105.122764 245.007299 
L 105.602846 234.364103 
L 106.082928 234.189957 
L 106.56301 234.426219 
L 107.043092 235.054208 
L 107.523174 236.039108 
L 108.003256 237.331716 
L 108.483338 238.870653 
L 108.96342 240.584966 
L 109.443502 242.397059 
L 109.923584 244.225842 
L 110.403666 245.990037 
L 110.883748 247.61151 
L 111.36383 249.018547 
L 111.843912 250.148948 
L 112.323994 250.952844 
L 112.804076 251.395117 
L 113.284158 251.45734 
L 113.76424 251.139107 
L 114.244322 250.458705 
L 114.724404 249.453028 
L 115.204486 248.176682 
L 115.684568 246.700253 
L 116.16465 245.107705 
L 116.644732 243.492943 
L 117.124814 241.955567 
L 117.604896 240.595902 
L 118.084978 239.509431 
L 118.56506 238.780786 
L 119.045142 238.477509 
L 119.525224 238.643862 
L 120.005306 239.294999 
L 120.485388 240.411905 
L 120.96547 241.937549 
L 121.445552 243.77481 
L 121.925634 245.786773 
L 122.405716 247.80012 
L 122.885798 249.612414 
L 123.36588 251.004183 
L 123.845962 251.7568 
L 124.326044 251.677315 
L 124.806126 250.631456 
L 125.286208 248.586189 
L 125.76629 245.663358 
L 126.246372 242.20604 
L 126.726454 238.859446 
L 127.206536 236.668316 
L 127.686618 237.19296 
L 128.1667 242.646246 
L 128.646782 256.054032 
" clip-path="url(#pf7be631ad5)" style="fill: none; stroke: #ff7f0e; stroke-width: 1.5; stroke-linecap: square"/>
   </g>
   <g id="line2d_20">
    <path d="M 81.118665 220.396162 
L 81.647745 223.173342 
L 82.176826 230.964313 
L 82.705906 240.267699 
L 83.234987 248.728527 
L 83.764068 254.895281 
L 84.293148 258.013279 
L 84.822229 257.850474 
L 85.351309 254.552091 
L 85.88039 248.520781 
L 86.40947 240.31923 
L 86.938551 230.592403 
L 87.467631 220.006862 
L 87.996712 209.204786 
L 88.525793 198.770565 
L 89.054873 189.208021 
L 89.583954 180.926505 
L 90.113034 174.234295 
L 90.642115 169.337884 
L 91.171195 166.34591 
L 91.700276 165.27663 
L 92.229356 166.067957 
L 92.758437 168.589233 
L 93.287517 172.65401 
L 93.816598 178.033227 
L 94.345679 184.468279 
L 94.874759 191.683547 
L 95.40384 199.398062 
L 95.93292 207.336047 
L 96.462001 215.236145 
L 96.991081 222.859201 
L 97.520162 229.994543 
L 98.049242 236.464718 
L 98.578323 242.128724 
L 99.107404 246.883776 
L 99.636484 250.665712 
L 100.165565 253.448132 
L 100.694645 255.240423 
L 101.223726 256.084802 
L 101.752806 256.052549 
L 102.281887 255.239594 
L 102.810967 253.761625 
L 103.340048 251.74889 
L 103.869129 249.340863 
L 104.398209 246.680921 
L 104.92729 243.911201 
L 105.45637 241.167753 
L 105.985451 238.576136 
L 106.514531 236.247544 
L 107.043612 245.007565 
L 107.572692 245.00772 
L 108.101773 231.73716 
L 108.630854 230.975664 
L 109.159934 230.732809 
L 109.689015 231.001053 
L 110.218095 231.751455 
L 110.747176 232.935383 
L 111.276256 234.486871 
L 111.805337 236.325566 
L 112.334417 238.360166 
L 112.863498 240.492249 
L 113.392579 242.620382 
L 113.921659 244.644371 
L 114.45074 246.469527 
L 114.97982 248.010801 
L 115.508901 249.196642 
L 116.037981 249.972434 
L 116.567062 250.30337 
L 117.096142 250.176627 
L 117.625223 249.602713 
L 118.154303 248.615884 
L 118.683384 247.27354 
L 119.212465 245.654519 
L 119.741545 243.856281 
L 120.270626 241.990945 
L 120.799706 240.180248 
L 121.328787 238.549487 
L 121.857867 237.220593 
L 122.386948 236.304525 
L 122.916028 235.893247 
L 123.445109 236.051611 
L 123.97419 236.809569 
L 124.50327 238.155204 
L 125.032351 240.029163 
L 125.561431 242.321206 
L 126.090512 244.869662 
L 126.619592 247.464712 
L 127.148673 249.85657 
L 127.677753 251.769729 
L 128.206834 252.924627 
L 128.735915 253.068218 
L 129.264995 252.015104 
L 129.794076 249.701073 
L 130.323156 246.251054 
L 130.852237 242.063728 
L 131.381317 237.915196 
L 131.910398 235.084389 
L 132.439478 235.503072 
L 132.968559 241.933581 
L 133.49764 258.177674 
" clip-path="url(#pf7be631ad5)" style="fill: none; stroke: #2ca02c; stroke-width: 1.5; stroke-linecap: square"/>
   </g>
   <g id="line2d_21">
    <path d="M 81.118665 246.132753 
L 81.62118 228.918526 
L 82.123696 225.954001 
L 82.626211 231.033179 
L 83.128726 239.654951 
L 83.631242 248.694569 
L 84.133757 256.121307 
L 84.636272 260.757566 
L 85.138788 262.075048 
L 85.641303 260.023933 
L 86.143819 254.891299 
L 86.646334 247.185328 
L 87.148849 237.542103 
L 87.651365 226.652094 
L 88.15388 215.203644 
L 88.656395 203.841048 
L 89.158911 193.134996 
L 89.661426 183.563411 
L 90.163942 175.50087 
L 90.666457 169.215019 
L 91.168972 164.868545 
L 91.671488 162.525445 
L 92.174003 162.160492 
L 92.676519 163.670916 
L 93.179034 166.889487 
L 93.681549 171.598284 
L 94.184065 177.542557 
L 94.68658 184.444188 
L 95.189095 192.014366 
L 95.691611 199.965162 
L 96.194126 208.019773 
L 96.696642 215.921282 
L 97.199157 223.439835 
L 97.701672 230.378192 
L 98.204188 236.575662 
L 98.706703 241.910474 
L 99.209218 246.300661 
L 99.711734 249.703579 
L 100.214249 252.114194 
L 100.716765 253.562297 
L 101.21928 254.108803 
L 101.721795 253.841341 
L 102.224311 252.869278 
L 102.726826 251.318399 
L 103.229342 249.325383 
L 103.731857 247.032289 
L 104.234372 244.581171 
L 104.736888 242.10901 
L 105.239403 239.743066 
L 105.741918 245.006936 
L 106.244434 245.007555 
L 106.746949 233.712775 
L 107.249465 232.474764 
L 107.75198 231.753377 
L 108.254495 231.565735 
L 108.757011 231.904427 
L 109.259526 232.738599 
L 109.762041 234.015874 
L 110.264557 235.665009 
L 110.767072 237.599232 
L 111.269588 239.720129 
L 111.772103 241.921971 
L 112.274618 244.096346 
L 112.777134 246.136936 
L 113.279649 247.944284 
L 113.782165 249.430376 
L 114.28468 250.522888 
L 114.787195 251.168893 
L 115.289711 251.337904 
L 115.792226 251.024053 
L 116.294741 250.247307 
L 116.797257 249.053568 
L 117.299772 247.513568 
L 117.802288 245.720504 
L 118.304803 243.786368 
L 118.807318 241.836995 
L 119.309834 240.005898 
L 119.812349 238.427006 
L 120.314864 237.226496 
L 120.81738 236.513993 
L 121.319895 236.373465 
L 121.822411 236.854268 
L 122.324926 237.962862 
L 122.827441 239.655851 
L 123.329957 241.835114 
L 123.832472 244.345901 
L 124.334988 246.978955 
L 124.837503 249.477814 
L 125.340018 251.55265 
L 125.842534 252.90216 
L 126.345049 253.245201 
L 126.847564 252.364067 
L 127.35008 250.16152 
L 127.852595 246.733881 
L 128.355111 242.462765 
L 128.857626 238.128243 
L 129.360141 235.046526 
L 129.862657 235.235488 
L 130.365172 241.611688 
L 130.867687 258.222822 
" clip-path="url(#pf7be631ad5)" style="fill: none; stroke: #d62728; stroke-width: 1.5; stroke-linecap: square"/>
   </g>
   <g id="line2d_22">
    <path d="M 81.118665 217.782622 
L 81.734055 238.780007 
L 82.349446 250.884288 
L 82.964837 256.191843 
L 83.580228 256.457376 
L 84.195618 253.134327 
L 84.811009 247.411895 
L 85.4264 240.248858 
L 86.04179 232.404359 
L 86.657181 224.465845 
L 87.272572 216.874306 
L 87.887963 209.947001 
L 88.503353 203.897811 
L 89.118744 198.855387 
L 89.734135 194.879239 
L 90.349525 191.973905 
L 90.964916 190.101357 
L 91.580307 189.19176 
L 92.195698 189.152733 
L 92.811088 189.877224 
L 93.426479 191.250129 
L 94.04187 193.153765 
L 94.65726 195.472312 
L 95.272651 198.095323 
L 95.888042 200.92041 
L 96.503433 203.855198 
L 97.118823 206.818628 
L 97.734214 209.741713 
L 98.349605 212.567802 
L 98.964995 215.252451 
L 99.580386 217.762948 
L 100.195777 220.077573 
L 100.811168 222.184641 
L 101.426558 224.08139 
L 102.041949 225.772757 
L 102.65734 227.270091 
L 103.27273 228.589841 
L 103.888121 229.752257 
L 104.503512 230.780127 
L 105.118903 231.697592 
L 105.734293 232.529044 
L 106.349684 233.298136 
L 106.965075 234.026921 
L 107.580465 234.735117 
L 108.195856 235.439524 
L 108.811247 236.153577 
L 109.426638 236.88706 
L 110.042028 237.645949 
L 110.657419 238.432408 
L 111.27281 245.003901 
L 111.8882 245.003656 
L 112.503591 241.803183 
L 113.118982 242.674227 
L 113.734373 243.489196 
L 114.349763 244.235441 
L 114.965154 244.901492 
L 115.580545 245.477562 
L 116.195935 245.955966 
L 116.811326 246.331473 
L 117.426717 246.601552 
L 118.042107 246.766532 
L 118.657498 246.829653 
L 119.272889 246.797018 
L 119.88828 246.67744 
L 120.50367 246.482199 
L 121.119061 246.224694 
L 121.734452 245.920029 
L 122.349842 245.584514 
L 122.965233 245.235124 
L 123.580624 244.888903 
L 124.196015 244.562351 
L 124.811405 244.27081 
L 125.426796 244.027856 
L 126.042187 243.844737 
L 126.657577 243.729862 
L 127.272968 243.688376 
L 127.888359 243.721827 
L 128.50375 243.827968 
L 129.11914 244.000684 
L 129.734531 244.230084 
L 130.349922 244.502768 
L 130.965312 244.802271 
L 131.580703 245.1097 
L 132.196094 245.404564 
L 132.811485 245.665796 
L 133.426875 245.872963 
L 134.042266 246.007633 
L 134.657657 246.054901 
L 135.273047 246.005021 
L 135.888438 245.855111 
L 136.503829 245.610888 
L 137.11922 245.288358 
L 137.73461 244.915392 
L 138.350001 244.533102 
L 138.965392 244.196908 
L 139.580782 243.977184 
L 140.196173 243.959345 
L 140.811564 244.24322 
L 141.426955 244.941545 
L 142.042345 246.177368 
" clip-path="url(#pf7be631ad5)" style="fill: none; stroke: #9467bd; stroke-width: 1.5; stroke-linecap: square"/>
   </g>
   <g id="line2d_23">
    <path d="M 81.118665 181.825498 
L 84.398004 85.391579 
L 87.677342 41.839732 
L 90.956681 34.414125 
L 94.23602 50.164698 
L 97.515359 79.294062 
L 100.794698 114.589733 
L 104.074037 150.933383 
L 107.353376 184.879339 
L 110.632714 214.295149 
L 113.912053 238.057523 
L 117.191392 255.797503 
L 120.470731 267.68915 
L 123.75007 274.276518 
L 127.029409 276.334125 
L 130.308747 274.756502 
L 133.588086 270.47284 
L 136.867425 264.383083 
L 140.146764 257.312179 
L 143.426103 249.979525 
L 146.705442 242.980944 
L 149.98478 236.78083 
L 153.264119 231.71236 
L 156.543458 227.983908 
L 159.822797 225.690074 
L 163.102136 224.825897 
L 166.381475 225.303087 
L 169.660814 226.967232 
L 172.940152 229.615166 
L 176.219491 233.011791 
L 179.49883 236.905823 
L 182.778169 241.044024 
L 186.057508 245.183644 
L 189.336847 249.102846 
L 192.616185 252.60902 
L 195.895524 255.54495 
L 199.174863 257.792865 
L 202.454202 259.276479 
L 205.733541 259.96115 
L 209.01288 259.852358 
L 212.292218 258.992686 
L 215.571557 257.457568 
L 218.850896 255.350034 
L 222.130235 252.794713 
L 225.409574 249.931353 
L 228.688913 246.908112 
L 231.968252 243.874859 
L 235.24759 240.976723 
L 238.526929 238.348081 
L 241.806268 245.008565 
L 245.085607 245.0082 
L 248.364946 235.180914 
L 251.644285 234.409835 
L 254.923623 234.163074 
L 258.202962 234.443583 
L 261.482301 235.230538 
L 264.76164 236.480421 
L 268.040979 238.128976 
L 271.320318 240.093976 
L 274.599657 242.278718 
L 277.878995 244.576126 
L 281.158334 246.873338 
L 284.437673 249.05662 
L 287.717012 251.016438 
L 290.996351 252.652522 
L 294.27569 253.878716 
L 297.555028 254.627431 
L 300.834367 254.853513 
L 304.113706 254.537334 
L 307.393045 253.686915 
L 310.672384 252.338952 
L 313.951723 250.558575 
L 317.231061 248.437741 
L 320.5104 246.092204 
L 323.789739 243.657 
L 327.069078 241.280496 
L 330.348417 239.117074 
L 333.627756 237.3186 
L 336.907095 236.024908 
L 340.186433 235.353614 
L 343.465772 235.389672 
L 346.745111 236.1752 
L 350.02445 237.700208 
L 353.303789 239.895002 
L 356.583128 242.625177 
L 359.862466 245.690266 
L 363.141805 248.827283 
L 366.421144 251.720554 
L 369.700483 254.019477 
L 372.979822 255.365985 
L 376.259161 255.43378 
L 379.538499 253.981589 
L 382.817838 250.92297 
L 386.097177 246.415459 
L 389.376516 240.972129 
L 392.655855 235.598922 
L 395.935194 231.96146 
L 399.214533 232.585336 
L 402.493871 241.094258 
L 405.77321 262.490802 
" clip-path="url(#pf7be631ad5)" style="fill: none; stroke: #8c564b; stroke-width: 1.5; stroke-linecap: square"/>
   </g>
   <g id="patch_3">
    <path d="M 64.885937 288.430125 
L 64.885937 22.318125 
" style="fill: none; stroke: #000000; stroke-width: 0.8; stroke-linejoin: miter; stroke-linecap: square"/>
   </g>
   <g id="patch_4">
    <path d="M 422.005938 288.430125 
L 422.005938 22.318125 
" style="fill: none; stroke: #000000; stroke-width: 0.8; stroke-linejoin: miter; stroke-linecap: square"/>
   </g>
   <g id="patch_5">
    <path d="M 64.885937 288.430125 
L 422.005937 288.430125 
" style="fill: none; stroke: #000000; stroke-width: 0.8; stroke-linejoin: miter; stroke-linecap: square"/>
   </g>
   <g id="patch_6">
    <path d="M 64.885937 22.318125 
L 422.005937 22.318125 
" style="fill: none; stroke: #000000; stroke-width: 0.8; stroke-linejoin: miter; stroke-linecap: square"/>
   </g>
   <g id="text_20">
    <!-- MD - xtract_prob_Frontal_Aslant_Tract_R -->
    <g transform="translate(123.3625 16.318125) scale(0.12 -0.12)">
     <defs>
      <path id="DejaVuSans-4d" d="M 628 4666 
L 1569 4666 
L 2759 1491 
L 3956 4666 
L 4897 4666 
L 4897 0 
L 4281 0 
L 4281 4097 
L 3078 897 
L 2444 897 
L 1241 4097 
L 1241 0 
L 628 0 
L 628 4666 
z
" transform="scale(0.015625)"/>
      <path id="DejaVuSans-44" d="M 1259 4147 
L 1259 519 
L 2022 519 
Q 2988 519 3436 956 
Q 3884 1394 3884 2338 
Q 3884 3275 3436 3711 
Q 2988 4147 2022 4147 
L 1259 4147 
z
M 628 4666 
L 1925 4666 
Q 3281 4666 3915 4102 
Q 4550 3538 4550 2338 
Q 4550 1131 3912 565 
Q 3275 0 1925 0 
L 628 0 
L 628 4666 
z
" transform="scale(0.015625)"/>
      <path id="DejaVuSans-2d" d="M 313 2009 
L 1997 2009 
L 1997 1497 
L 313 1497 
L 313 2009 
z
" transform="scale(0.015625)"/>
      <path id="DejaVuSans-74" d="M 1172 4494 
L 1172 3500 
L 2356 3500 
L 2356 3053 
L 1172 3053 
L 1172 1153 
Q 1172 725 1289 603 
Q 1406 481 1766 481 
L 2356 481 
L 2356 0 
L 1766 0 
Q 1100 0 847 248 
Q 594 497 594 1153 
L 594 3053 
L 172 3053 
L 172 3500 
L 594 3500 
L 594 4494 
L 1172 4494 
z
" transform="scale(0.015625)"/>
      <path id="DejaVuSans-5f" d="M 3263 -1063 
L 3263 -1509 
L -63 -1509 
L -63 -1063 
L 3263 -1063 
z
" transform="scale(0.015625)"/>
      <path id="DejaVuSans-70" d="M 1159 525 
L 1159 -1331 
L 581 -1331 
L 581 3500 
L 1159 3500 
L 1159 2969 
Q 1341 3281 1617 3432 
Q 1894 3584 2278 3584 
Q 2916 3584 3314 3078 
Q 3713 2572 3713 1747 
Q 3713 922 3314 415 
Q 2916 -91 2278 -91 
Q 1894 -91 1617 61 
Q 1341 213 1159 525 
z
M 3116 1747 
Q 3116 2381 2855 2742 
Q 2594 3103 2138 3103 
Q 1681 3103 1420 2742 
Q 1159 2381 1159 1747 
Q 1159 1113 1420 752 
Q 1681 391 2138 391 
Q 2594 391 2855 752 
Q 3116 1113 3116 1747 
z
" transform="scale(0.015625)"/>
      <path id="DejaVuSans-6f" d="M 1959 3097 
Q 1497 3097 1228 2736 
Q 959 2375 959 1747 
Q 959 1119 1226 758 
Q 1494 397 1959 397 
Q 2419 397 2687 759 
Q 2956 1122 2956 1747 
Q 2956 2369 2687 2733 
Q 2419 3097 1959 3097 
z
M 1959 3584 
Q 2709 3584 3137 3096 
Q 3566 2609 3566 1747 
Q 3566 888 3137 398 
Q 2709 -91 1959 -91 
Q 1206 -91 779 398 
Q 353 888 353 1747 
Q 353 2609 779 3096 
Q 1206 3584 1959 3584 
z
" transform="scale(0.015625)"/>
      <path id="DejaVuSans-62" d="M 3116 1747 
Q 3116 2381 2855 2742 
Q 2594 3103 2138 3103 
Q 1681 3103 1420 2742 
Q 1159 2381 1159 1747 
Q 1159 1113 1420 752 
Q 1681 391 2138 391 
Q 2594 391 2855 752 
Q 3116 1113 3116 1747 
z
M 1159 2969 
Q 1341 3281 1617 3432 
Q 1894 3584 2278 3584 
Q 2916 3584 3314 3078 
Q 3713 2572 3713 1747 
Q 3713 922 3314 415 
Q 2916 -91 2278 -91 
Q 1894 -91 1617 61 
Q 1341 213 1159 525 
L 1159 0 
L 581 0 
L 581 4863 
L 1159 4863 
L 1159 2969 
z
" transform="scale(0.015625)"/>
      <path id="DejaVuSans-41" d="M 2188 4044 
L 1331 1722 
L 3047 1722 
L 2188 4044 
z
M 1831 4666 
L 2547 4666 
L 4325 0 
L 3669 0 
L 3244 1197 
L 1141 1197 
L 716 0 
L 50 0 
L 1831 4666 
z
" transform="scale(0.015625)"/>
      <path id="DejaVuSans-54" d="M -19 4666 
L 3928 4666 
L 3928 4134 
L 2272 4134 
L 2272 0 
L 1638 0 
L 1638 4134 
L -19 4134 
L -19 4666 
z
" transform="scale(0.015625)"/>
      <path id="DejaVuSans-52" d="M 2841 2188 
Q 3044 2119 3236 1894 
Q 3428 1669 3622 1275 
L 4263 0 
L 3584 0 
L 2988 1197 
Q 2756 1666 2539 1819 
Q 2322 1972 1947 1972 
L 1259 1972 
L 1259 0 
L 628 0 
L 628 4666 
L 2053 4666 
Q 2853 4666 3247 4331 
Q 3641 3997 3641 3322 
Q 3641 2881 3436 2590 
Q 3231 2300 2841 2188 
z
M 1259 4147 
L 1259 2491 
L 2053 2491 
Q 2509 2491 2742 2702 
Q 2975 2913 2975 3322 
Q 2975 3731 2742 3939 
Q 2509 4147 2053 4147 
L 1259 4147 
z
" transform="scale(0.015625)"/>
     </defs>
     <use xlink:href="#DejaVuSans-4d"/>
     <use xlink:href="#DejaVuSans-44" x="86.279297"/>
     <use xlink:href="#DejaVuSans-20" x="163.28125"/>
     <use xlink:href="#DejaVuSans-2d" x="195.068359"/>
     <use xlink:href="#DejaVuSans-20" x="231.152344"/>
     <use xlink:href="#DejaVuSans-78" x="262.939453"/>
     <use xlink:href="#DejaVuSans-74" x="322.119141"/>
     <use xlink:href="#DejaVuSans-72" x="361.328125"/>
     <use xlink:href="#DejaVuSans-61" x="402.441406"/>
     <use xlink:href="#DejaVuSans-63" x="463.720703"/>
     <use xlink:href="#DejaVuSans-74" x="518.701172"/>
     <use xlink:href="#DejaVuSans-5f" x="557.910156"/>
     <use xlink:href="#DejaVuSans-70" x="607.910156"/>
     <use xlink:href="#DejaVuSans-72" x="671.386719"/>
     <use xlink:href="#DejaVuSans-6f" x="710.25"/>
     <use xlink:href="#DejaVuSans-62" x="771.431641"/>
     <use xlink:href="#DejaVuSans-5f" x="834.908203"/>
     <use xlink:href="#DejaVuSans-46" x="884.908203"/>
     <use xlink:href="#DejaVuSans-72" x="935.177734"/>
     <use xlink:href="#DejaVuSans-6f" x="974.041016"/>
     <use xlink:href="#DejaVuSans-6e" x="1035.222656"/>
     <use xlink:href="#DejaVuSans-74" x="1098.601562"/>
     <use xlink:href="#DejaVuSans-61" x="1137.810547"/>
     <use xlink:href="#DejaVuSans-6c" x="1199.089844"/>
     <use xlink:href="#DejaVuSans-5f" x="1226.873047"/>
     <use xlink:href="#DejaVuSans-41" x="1276.873047"/>
     <use xlink:href="#DejaVuSans-73" x="1345.28125"/>
     <use xlink:href="#DejaVuSans-6c" x="1397.380859"/>
     <use xlink:href="#DejaVuSans-61" x="1425.164062"/>
     <use xlink:href="#DejaVuSans-6e" x="1486.443359"/>
     <use xlink:href="#DejaVuSans-74" x="1549.822266"/>
     <use xlink:href="#DejaVuSans-5f" x="1589.03125"/>
     <use xlink:href="#DejaVuSans-54" x="1639.03125"/>
     <use xlink:href="#DejaVuSans-72" x="1685.365234"/>
     <use xlink:href="#DejaVuSans-61" x="1726.478516"/>
     <use xlink:href="#DejaVuSans-63" x="1787.757812"/>
     <use xlink:href="#DejaVuSans-74" x="1842.738281"/>
     <use xlink:href="#DejaVuSans-5f" x="1881.947266"/>
     <use xlink:href="#DejaVuSans-52" x="1931.947266"/>
    </g>
   </g>
   <g id="legend_1">
    <g id="patch_7">
     <path d="M 464.717938 146.666825 
L 562.574188 146.666825 
Q 564.574188 146.666825 564.574188 144.666825 
L 564.574188 55.929325 
Q 564.574188 53.929325 562.574188 53.929325 
L 464.717938 53.929325 
Q 462.717938 53.929325 462.717938 55.929325 
L 462.717938 144.666825 
Q 462.717938 146.666825 464.717938 146.666825 
z
" style="fill: #ffffff; opacity: 0.8; stroke: #cccccc; stroke-linejoin: miter"/>
    </g>
    <g id="line2d_24">
     <path d="M 466.717938 62.027762 
L 476.717938 62.027762 
L 486.717938 62.027762 
" style="fill: none; stroke: #1f77b4; stroke-width: 1.5; stroke-linecap: square"/>
    </g>
    <g id="text_21">
     <!-- 20_06_02_E3 -->
     <g transform="translate(494.717938 65.527762) scale(0.1 -0.1)">
      <defs>
       <path id="DejaVuSans-45" d="M 628 4666 
L 3578 4666 
L 3578 4134 
L 1259 4134 
L 1259 2753 
L 3481 2753 
L 3481 2222 
L 1259 2222 
L 1259 531 
L 3634 531 
L 3634 0 
L 628 0 
L 628 4666 
z
" transform="scale(0.015625)"/>
       <path id="DejaVuSans-33" d="M 2597 2516 
Q 3050 2419 3304 2112 
Q 3559 1806 3559 1356 
Q 3559 666 3084 287 
Q 2609 -91 1734 -91 
Q 1441 -91 1130 -33 
Q 819 25 488 141 
L 488 750 
Q 750 597 1062 519 
Q 1375 441 1716 441 
Q 2309 441 2620 675 
Q 2931 909 2931 1356 
Q 2931 1769 2642 2001 
Q 2353 2234 1838 2234 
L 1294 2234 
L 1294 2753 
L 1863 2753 
Q 2328 2753 2575 2939 
Q 2822 3125 2822 3475 
Q 2822 3834 2567 4026 
Q 2313 4219 1838 4219 
Q 1578 4219 1281 4162 
Q 984 4106 628 3988 
L 628 4550 
Q 988 4650 1302 4700 
Q 1616 4750 1894 4750 
Q 2613 4750 3031 4423 
Q 3450 4097 3450 3541 
Q 3450 3153 3228 2886 
Q 3006 2619 2597 2516 
z
" transform="scale(0.015625)"/>
      </defs>
      <use xlink:href="#DejaVuSans-32"/>
      <use xlink:href="#DejaVuSans-30" x="63.623047"/>
      <use xlink:href="#DejaVuSans-5f" x="127.246094"/>
      <use xlink:href="#DejaVuSans-30" x="177.246094"/>
      <use xlink:href="#DejaVuSans-36" x="240.869141"/>
      <use xlink:href="#DejaVuSans-5f" x="304.492188"/>
      <use xlink:href="#DejaVuSans-30" x="354.492188"/>
      <use xlink:href="#DejaVuSans-32" x="418.115234"/>
      <use xlink:href="#DejaVuSans-5f" x="481.738281"/>
      <use xlink:href="#DejaVuSans-45" x="531.738281"/>
      <use xlink:href="#DejaVuSans-33" x="594.921875"/>
     </g>
    </g>
    <g id="line2d_25">
     <path d="M 466.717938 76.984013 
L 476.717938 76.984013 
L 486.717938 76.984013 
" style="fill: none; stroke: #ff7f0e; stroke-width: 1.5; stroke-linecap: square"/>
    </g>
    <g id="text_22">
     <!-- 20_05_01_E3 -->
     <g transform="translate(494.717938 80.484013) scale(0.1 -0.1)">
      <use xlink:href="#DejaVuSans-32"/>
      <use xlink:href="#DejaVuSans-30" x="63.623047"/>
      <use xlink:href="#DejaVuSans-5f" x="127.246094"/>
      <use xlink:href="#DejaVuSans-30" x="177.246094"/>
      <use xlink:href="#DejaVuSans-35" x="240.869141"/>
      <use xlink:href="#DejaVuSans-5f" x="304.492188"/>
      <use xlink:href="#DejaVuSans-30" x="354.492188"/>
      <use xlink:href="#DejaVuSans-31" x="418.115234"/>
      <use xlink:href="#DejaVuSans-5f" x="481.738281"/>
      <use xlink:href="#DejaVuSans-45" x="531.738281"/>
      <use xlink:href="#DejaVuSans-33" x="594.921875"/>
     </g>
    </g>
    <g id="line2d_26">
     <path d="M 466.717938 91.940262 
L 476.717938 91.940262 
L 486.717938 91.940262 
" style="fill: none; stroke: #2ca02c; stroke-width: 1.5; stroke-linecap: square"/>
    </g>
    <g id="text_23">
     <!-- 20_02_02_E3 -->
     <g transform="translate(494.717938 95.440262) scale(0.1 -0.1)">
      <use xlink:href="#DejaVuSans-32"/>
      <use xlink:href="#DejaVuSans-30" x="63.623047"/>
      <use xlink:href="#DejaVuSans-5f" x="127.246094"/>
      <use xlink:href="#DejaVuSans-30" x="177.246094"/>
      <use xlink:href="#DejaVuSans-32" x="240.869141"/>
      <use xlink:href="#DejaVuSans-5f" x="304.492188"/>
      <use xlink:href="#DejaVuSans-30" x="354.492188"/>
      <use xlink:href="#DejaVuSans-32" x="418.115234"/>
      <use xlink:href="#DejaVuSans-5f" x="481.738281"/>
      <use xlink:href="#DejaVuSans-45" x="531.738281"/>
      <use xlink:href="#DejaVuSans-33" x="594.921875"/>
     </g>
    </g>
    <g id="line2d_27">
     <path d="M 466.717938 106.896513 
L 476.717938 106.896513 
L 486.717938 106.896513 
" style="fill: none; stroke: #d62728; stroke-width: 1.5; stroke-linecap: square"/>
    </g>
    <g id="text_24">
     <!-- 20_10_02_E3 -->
     <g transform="translate(494.717938 110.396513) scale(0.1 -0.1)">
      <use xlink:href="#DejaVuSans-32"/>
      <use xlink:href="#DejaVuSans-30" x="63.623047"/>
      <use xlink:href="#DejaVuSans-5f" x="127.246094"/>
      <use xlink:href="#DejaVuSans-31" x="177.246094"/>
      <use xlink:href="#DejaVuSans-30" x="240.869141"/>
      <use xlink:href="#DejaVuSans-5f" x="304.492188"/>
      <use xlink:href="#DejaVuSans-30" x="354.492188"/>
      <use xlink:href="#DejaVuSans-32" x="418.115234"/>
      <use xlink:href="#DejaVuSans-5f" x="481.738281"/>
      <use xlink:href="#DejaVuSans-45" x="531.738281"/>
      <use xlink:href="#DejaVuSans-33" x="594.921875"/>
     </g>
    </g>
    <g id="line2d_28">
     <path d="M 466.717938 121.852762 
L 476.717938 121.852762 
L 486.717938 121.852762 
" style="fill: none; stroke: #9467bd; stroke-width: 1.5; stroke-linecap: square"/>
    </g>
    <g id="text_25">
     <!-- 20_08_02_E3 -->
     <g transform="translate(494.717938 125.352762) scale(0.1 -0.1)">
      <use xlink:href="#DejaVuSans-32"/>
      <use xlink:href="#DejaVuSans-30" x="63.623047"/>
      <use xlink:href="#DejaVuSans-5f" x="127.246094"/>
      <use xlink:href="#DejaVuSans-30" x="177.246094"/>
      <use xlink:href="#DejaVuSans-38" x="240.869141"/>
      <use xlink:href="#DejaVuSans-5f" x="304.492188"/>
      <use xlink:href="#DejaVuSans-30" x="354.492188"/>
      <use xlink:href="#DejaVuSans-32" x="418.115234"/>
      <use xlink:href="#DejaVuSans-5f" x="481.738281"/>
      <use xlink:href="#DejaVuSans-45" x="531.738281"/>
      <use xlink:href="#DejaVuSans-33" x="594.921875"/>
     </g>
    </g>
    <g id="line2d_29">
     <path d="M 466.717938 136.809012 
L 476.717938 136.809012 
L 486.717938 136.809012 
" style="fill: none; stroke: #8c564b; stroke-width: 1.5; stroke-linecap: square"/>
    </g>
    <g id="text_26">
     <!-- 20_11_02_E3 -->
     <g transform="translate(494.717938 140.309012) scale(0.1 -0.1)">
      <use xlink:href="#DejaVuSans-32"/>
      <use xlink:href="#DejaVuSans-30" x="63.623047"/>
      <use xlink:href="#DejaVuSans-5f" x="127.246094"/>
      <use xlink:href="#DejaVuSans-31" x="177.246094"/>
      <use xlink:href="#DejaVuSans-31" x="240.869141"/>
      <use xlink:href="#DejaVuSans-5f" x="304.492188"/>
      <use xlink:href="#DejaVuSans-30" x="354.492188"/>
      <use xlink:href="#DejaVuSans-32" x="418.115234"/>
      <use xlink:href="#DejaVuSans-5f" x="481.738281"/>
      <use xlink:href="#DejaVuSans-45" x="531.738281"/>
      <use xlink:href="#DejaVuSans-33" x="594.921875"/>
     </g>
    </g>
   </g>
  </g>
 </g>
 <defs>
  <clipPath id="pf7be631ad5">
   <rect x="64.885937" y="22.318125" width="357.12" height="266.112"/>
  </clipPath>
 </defs>
</svg>
