<?xml version="1.0" encoding="utf-8" standalone="no"?>
<!DOCTYPE svg PUBLIC "-//W3C//DTD SVG 1.1//EN"
  "http://www.w3.org/Graphics/SVG/1.1/DTD/svg11.dtd">
<svg xmlns:xlink="http://www.w3.org/1999/xlink" width="565.411687pt" height="325.986375pt" viewBox="0 0 565.411687 325.986375" xmlns="http://www.w3.org/2000/svg" version="1.1">
 <metadata>
  <rdf:RDF xmlns:dc="http://purl.org/dc/elements/1.1/" xmlns:cc="http://creativecommons.org/ns#" xmlns:rdf="http://www.w3.org/1999/02/22-rdf-syntax-ns#">
   <cc:Work>
    <dc:type rdf:resource="http://purl.org/dc/dcmitype/StillImage"/>
    <dc:date>2023-02-07T23:00:08.807931</dc:date>
    <dc:format>image/svg+xml</dc:format>
    <dc:creator>
     <cc:Agent>
      <dc:title>Matplotlib v3.6.2, https://matplotlib.org/</dc:title>
     </cc:Agent>
    </dc:creator>
   </cc:Work>
  </rdf:RDF>
 </metadata>
 <defs>
  <style type="text/css">*{stroke-linejoin: round; stroke-linecap: butt}</style>
 </defs>
 <g id="figure_1">
  <g id="patch_1">
   <path d="M 0 325.986375 
L 565.411687 325.986375 
L 565.411687 0 
L 0 0 
z
" style="fill: #ffffff"/>
  </g>
  <g id="axes_1">
   <g id="patch_2">
    <path d="M 58.523438 288.430125 
L 415.643438 288.430125 
L 415.643438 22.318125 
L 58.523438 22.318125 
z
" style="fill: #ffffff"/>
   </g>
   <g id="PolyCollection_1">
    <path d="M 74.756165 199.38487 
L 74.756165 232.620233 
L 77.591094 232.620233 
L 80.426022 232.620233 
L 83.260951 232.620233 
L 86.09588 232.620233 
L 88.930809 232.620233 
L 91.765737 232.620233 
L 94.600666 232.620233 
L 97.435595 232.620233 
L 100.270524 232.620233 
L 103.105453 232.620233 
L 105.940381 232.620233 
L 108.77531 232.620233 
L 111.610239 232.620233 
L 114.445168 232.620233 
L 117.280096 232.620233 
L 120.115025 232.620233 
L 122.949954 232.620233 
L 125.784883 232.620233 
L 128.619811 232.620233 
L 131.45474 232.620233 
L 134.289669 232.620233 
L 137.124598 232.620233 
L 139.959527 232.620233 
L 142.794455 232.620233 
L 145.629384 232.620233 
L 148.464313 232.620233 
L 151.299242 232.620233 
L 154.13417 232.620233 
L 156.969099 232.620233 
L 159.804028 232.620233 
L 162.638957 232.620233 
L 165.473886 232.620233 
L 168.308814 232.620233 
L 171.143743 232.620233 
L 173.978672 232.620233 
L 176.813601 232.620233 
L 179.648529 232.620233 
L 182.483458 232.620233 
L 185.318387 232.620233 
L 188.153316 232.620233 
L 190.988245 232.620233 
L 193.823173 232.620233 
L 196.658102 232.620233 
L 199.493031 232.620233 
L 202.32796 232.620233 
L 205.162888 232.620233 
L 207.997817 232.620233 
L 210.832746 232.620233 
L 213.667675 232.620233 
L 216.502604 232.620233 
L 219.337532 232.620233 
L 222.172461 232.620233 
L 225.00739 232.620233 
L 227.842319 232.620233 
L 230.677247 232.620233 
L 233.512176 232.620233 
L 236.347105 232.620233 
L 239.182034 232.620233 
L 242.016962 232.620233 
L 244.851891 232.620233 
L 247.68682 232.620233 
L 250.521749 232.620233 
L 253.356678 232.620233 
L 256.191606 232.620233 
L 259.026535 232.620233 
L 261.861464 232.620233 
L 264.696393 232.620233 
L 267.531321 232.620233 
L 270.36625 232.620233 
L 273.201179 232.620233 
L 276.036108 232.620233 
L 278.871037 232.620233 
L 281.705965 232.620233 
L 284.540894 232.620233 
L 287.375823 232.620233 
L 290.210752 232.620233 
L 293.04568 232.620233 
L 295.880609 232.620233 
L 298.715538 232.620233 
L 301.550467 232.620233 
L 304.385396 232.620233 
L 307.220324 232.620233 
L 310.055253 232.620233 
L 312.890182 232.620233 
L 315.725111 232.620233 
L 318.560039 232.620233 
L 321.394968 232.620233 
L 324.229897 232.620233 
L 327.064826 232.620233 
L 329.899754 232.620233 
L 332.734683 232.620233 
L 335.569612 232.620233 
L 338.404541 232.620233 
L 341.23947 232.620233 
L 344.074398 232.620233 
L 346.909327 232.620233 
L 349.744256 232.620233 
L 352.579185 232.620233 
L 355.414113 232.620233 
L 355.414113 230.656877 
L 355.414113 230.656877 
L 352.579185 228.369458 
L 349.744256 227.988642 
L 346.909327 228.705427 
L 344.074398 229.904864 
L 341.23947 231.131946 
L 338.404541 232.062335 
L 335.569612 232.477384 
L 332.734683 232.242944 
L 329.899754 231.291504 
L 327.064826 229.607231 
L 324.229897 227.213552 
L 321.394968 224.16291 
L 318.560039 220.528407 
L 315.725111 216.397036 
L 312.890182 211.86428 
L 310.055253 207.029832 
L 307.220324 201.994264 
L 304.385396 196.856468 
L 301.550467 191.711716 
L 298.715538 186.650232 
L 295.880609 181.756143 
L 293.04568 177.106744 
L 290.210752 172.771983 
L 287.375823 168.814115 
L 284.540894 165.287478 
L 281.705965 162.238347 
L 278.871037 159.704843 
L 276.036108 157.716884 
L 273.201179 156.29615 
L 270.36625 155.456081 
L 267.531321 155.201882 
L 264.696393 155.530561 
L 261.861464 156.430994 
L 259.026535 157.884036 
L 256.191606 159.862671 
L 253.356678 162.332242 
L 250.521749 165.250746 
L 247.68682 168.569213 
L 244.851891 172.232192 
L 242.016962 176.178328 
L 239.182034 180.341058 
L 236.347105 184.64942 
L 233.512176 189.028966 
L 230.677247 193.402802 
L 227.842319 197.692724 
L 225.00739 201.820448 
L 222.172461 205.708936 
L 219.337532 209.283779 
L 216.502604 232.611056 
L 213.667675 232.610551 
L 210.832746 218.13331 
L 207.997817 219.498489 
L 205.162888 220.242405 
L 202.32796 220.352364 
L 199.493031 219.828877 
L 196.658102 218.685963 
L 193.823173 216.951208 
L 190.988245 214.665591 
L 188.153316 211.883036 
L 185.318387 208.669722 
L 182.483458 205.103117 
L 179.648529 201.27076 
L 176.813601 197.268785 
L 173.978672 193.200196 
L 171.143743 189.172914 
L 168.308814 185.297604 
L 165.473886 181.685319 
L 162.638957 178.444967 
L 159.804028 175.680659 
L 156.969099 173.488955 
L 154.13417 171.956066 
L 151.299242 171.155054 
L 148.464313 171.143093 
L 145.629384 171.958848 
L 142.794455 173.620042 
L 139.959527 176.121298 
L 137.124598 179.432318 
L 134.289669 183.49652 
L 131.45474 188.2302 
L 128.619811 193.522356 
L 125.784883 199.235268 
L 122.949954 205.205969 
L 120.115025 211.248736 
L 117.280096 217.158745 
L 114.445168 222.717044 
L 111.610239 227.696992 
L 108.77531 231.872358 
L 105.940381 235.027237 
L 103.105453 236.967988 
L 100.270524 237.537399 
L 97.435595 236.63128 
L 94.600666 234.217719 
L 91.765737 230.35923 
L 88.930809 225.238046 
L 86.09588 219.184818 
L 83.260951 212.710978 
L 80.426022 206.54507 
L 77.591094 201.673337 
L 74.756165 199.38487 
z
" clip-path="url(#p94437a3502)" style="fill: #1f77b4; fill-opacity: 0.166667"/>
   </g>
   <g id="PolyCollection_2">
    <path d="M 74.756165 158.510061 
L 74.756165 232.620233 
L 77.249594 232.620233 
L 79.743023 232.620233 
L 82.236451 232.620233 
L 84.72988 232.620233 
L 87.223309 232.620233 
L 89.716738 232.620233 
L 92.210167 232.620233 
L 94.703596 232.620233 
L 97.197025 232.620233 
L 99.690454 232.620233 
L 102.183883 232.620233 
L 104.677312 232.620233 
L 107.170741 232.620233 
L 109.664169 232.620233 
L 112.157598 232.620233 
L 114.651027 232.620233 
L 117.144456 232.620233 
L 119.637885 232.620233 
L 122.131314 232.620233 
L 124.624743 232.620233 
L 127.118172 232.620233 
L 129.611601 232.620233 
L 132.10503 232.620233 
L 134.598459 232.620233 
L 137.091887 232.620233 
L 139.585316 232.620233 
L 142.078745 232.620233 
L 144.572174 232.620233 
L 147.065603 232.620233 
L 149.559032 232.620233 
L 152.052461 232.620233 
L 154.54589 232.620233 
L 157.039319 232.620233 
L 159.532748 232.620233 
L 162.026177 232.620233 
L 164.519605 232.620233 
L 167.013034 232.620233 
L 169.506463 232.620233 
L 171.999892 232.620233 
L 174.493321 232.620233 
L 176.98675 232.620233 
L 179.480179 232.620233 
L 181.973608 232.620233 
L 184.467037 232.620233 
L 186.960466 232.620233 
L 189.453895 232.620233 
L 191.947323 232.620233 
L 194.440752 232.620233 
L 196.934181 232.620233 
L 199.42761 232.620233 
L 201.921039 232.620233 
L 204.414468 232.620233 
L 206.907897 232.620233 
L 209.401326 232.620233 
L 211.894755 232.620233 
L 214.388184 232.620233 
L 216.881612 232.620233 
L 219.375041 232.620233 
L 221.86847 232.620233 
L 224.361899 232.620233 
L 226.855328 232.620233 
L 229.348757 232.620233 
L 231.842186 232.620233 
L 234.335615 232.620233 
L 236.829044 232.620233 
L 239.322473 232.620233 
L 241.815902 232.620233 
L 244.30933 232.620233 
L 246.802759 232.620233 
L 249.296188 232.620233 
L 251.789617 232.620233 
L 254.283046 232.620233 
L 256.776475 232.620233 
L 259.269904 232.620233 
L 261.763333 232.620233 
L 264.256762 232.620233 
L 266.750191 232.620233 
L 269.24362 232.620233 
L 271.737048 232.620233 
L 274.230477 232.620233 
L 276.723906 232.620233 
L 279.217335 232.620233 
L 281.710764 232.620233 
L 284.204193 232.620233 
L 286.697622 232.620233 
L 289.191051 232.620233 
L 291.68448 232.620233 
L 294.177909 232.620233 
L 296.671338 232.620233 
L 299.164766 232.620233 
L 301.658195 232.620233 
L 304.151624 232.620233 
L 306.645053 232.620233 
L 309.138482 232.620233 
L 311.631911 232.620233 
L 314.12534 232.620233 
L 316.618769 232.620233 
L 319.112198 232.620233 
L 321.605627 232.620233 
L 321.605627 243.026412 
L 321.605627 243.026412 
L 319.112198 230.408726 
L 316.618769 225.062887 
L 314.12534 224.310661 
L 311.631911 226.163568 
L 309.138482 229.193807 
L 306.645053 232.422834 
L 304.151624 235.225866 
L 301.658195 237.250695 
L 299.164766 238.349309 
L 296.671338 238.520914 
L 294.177909 237.865078 
L 291.68448 236.543771 
L 289.191051 234.751226 
L 286.697622 232.690575 
L 284.204193 230.556339 
L 281.710764 228.52192 
L 279.217335 226.731315 
L 276.723906 225.29434 
L 274.230477 224.284749 
L 271.737048 223.740646 
L 269.24362 223.666714 
L 266.750191 224.037781 
L 264.256762 224.803344 
L 261.763333 225.892695 
L 259.269904 227.220352 
L 256.776475 228.691544 
L 254.283046 230.207529 
L 251.789617 231.670582 
L 249.296188 232.9885 
L 246.802759 234.078525 
L 244.30933 234.870607 
L 241.815902 235.309957 
L 239.322473 235.358853 
L 236.829044 234.997717 
L 234.335615 234.225456 
L 231.842186 233.059109 
L 229.348757 231.53285 
L 226.855328 229.6964 
L 224.361899 227.612921 
L 221.86847 225.356471 
L 219.375041 223.009107 
L 216.881612 220.657721 
L 214.388184 218.390704 
L 211.894755 216.294536 
L 209.401326 214.450393 
L 206.907897 212.930857 
L 204.414468 211.796836 
L 201.921039 211.094751 
L 199.42761 232.621222 
L 196.934181 232.62187 
L 194.440752 210.231674 
L 191.947323 211.638914 
L 189.453895 213.494731 
L 186.960466 215.707494 
L 184.467037 218.161986 
L 181.973608 220.72184 
L 179.480179 223.232763 
L 176.98675 225.526477 
L 174.493321 227.425346 
L 171.999892 228.747574 
L 169.506463 229.312897 
L 167.013034 228.948643 
L 164.519605 227.496043 
L 162.026177 224.816629 
L 159.532748 220.798588 
L 157.039319 215.362889 
L 154.54589 208.469012 
L 152.052461 200.120099 
L 149.559032 190.367341 
L 147.065603 179.313404 
L 144.572174 167.114717 
L 142.078745 153.982414 
L 139.585316 140.181775 
L 137.091887 126.029969 
L 134.598459 111.891955 
L 132.10503 98.174379 
L 129.611601 85.317364 
L 127.118172 73.784056 
L 124.624743 64.047884 
L 122.131314 56.577463 
L 119.637885 51.819143 
L 117.144456 50.177226 
L 114.651027 51.991939 
L 112.157598 57.515274 
L 109.664169 66.88488 
L 107.170741 80.09626 
L 104.677312 96.973565 
L 102.183883 117.139372 
L 99.690454 139.983908 
L 97.197025 164.63425 
L 94.703596 189.924155 
L 92.210167 214.365221 
L 89.716738 236.120242 
L 87.223309 252.97968 
L 84.72988 262.342331 
L 82.236451 261.201359 
L 79.743023 246.137036 
L 77.249594 213.317628 
L 74.756165 158.510061 
z
" clip-path="url(#p94437a3502)" style="fill: #ff7f0e; fill-opacity: 0.166667"/>
   </g>
   <g id="PolyCollection_3">
    <path d="M 74.756165 83.536085 
L 74.756165 232.620233 
L 78.035504 232.620233 
L 81.314842 232.620233 
L 84.594181 232.620233 
L 87.87352 232.620233 
L 91.152859 232.620233 
L 94.432198 232.620233 
L 97.711537 232.620233 
L 100.990876 232.620233 
L 104.270214 232.620233 
L 107.549553 232.620233 
L 110.828892 232.620233 
L 114.108231 232.620233 
L 117.38757 232.620233 
L 120.666909 232.620233 
L 123.946247 232.620233 
L 127.225586 232.620233 
L 130.504925 232.620233 
L 133.784264 232.620233 
L 137.063603 232.620233 
L 140.342942 232.620233 
L 143.62228 232.620233 
L 146.901619 232.620233 
L 150.180958 232.620233 
L 153.460297 232.620233 
L 156.739636 232.620233 
L 160.018975 232.620233 
L 163.298314 232.620233 
L 166.577652 232.620233 
L 169.856991 232.620233 
L 173.13633 232.620233 
L 176.415669 232.620233 
L 179.695008 232.620233 
L 182.974347 232.620233 
L 186.253685 232.620233 
L 189.533024 232.620233 
L 192.812363 232.620233 
L 196.091702 232.620233 
L 199.371041 232.620233 
L 202.65038 232.620233 
L 205.929718 232.620233 
L 209.209057 232.620233 
L 212.488396 232.620233 
L 215.767735 232.620233 
L 219.047074 232.620233 
L 222.326413 232.620233 
L 225.605752 232.620233 
L 228.88509 232.620233 
L 232.164429 232.620233 
L 235.443768 232.620233 
L 238.723107 232.620233 
L 242.002446 232.620233 
L 245.281785 232.620233 
L 248.561123 232.620233 
L 251.840462 232.620233 
L 255.119801 232.620233 
L 258.39914 232.620233 
L 261.678479 232.620233 
L 264.957818 232.620233 
L 268.237157 232.620233 
L 271.516495 232.620233 
L 274.795834 232.620233 
L 278.075173 232.620233 
L 281.354512 232.620233 
L 284.633851 232.620233 
L 287.91319 232.620233 
L 291.192528 232.620233 
L 294.471867 232.620233 
L 297.751206 232.620233 
L 301.030545 232.620233 
L 304.309884 232.620233 
L 307.589223 232.620233 
L 310.868561 232.620233 
L 314.1479 232.620233 
L 317.427239 232.620233 
L 320.706578 232.620233 
L 323.985917 232.620233 
L 327.265256 232.620233 
L 330.544595 232.620233 
L 333.823933 232.620233 
L 337.103272 232.620233 
L 340.382611 232.620233 
L 343.66195 232.620233 
L 346.941289 232.620233 
L 350.220628 232.620233 
L 353.499966 232.620233 
L 356.779305 232.620233 
L 360.058644 232.620233 
L 363.337983 232.620233 
L 366.617322 232.620233 
L 369.896661 232.620233 
L 373.175999 232.620233 
L 376.455338 232.620233 
L 379.734677 232.620233 
L 383.014016 232.620233 
L 386.293355 232.620233 
L 389.572694 232.620233 
L 392.852033 232.620233 
L 396.131371 232.620233 
L 399.41071 232.620233 
L 399.41071 236.654018 
L 399.41071 236.654018 
L 396.131371 232.976194 
L 392.852033 230.590209 
L 389.572694 229.268987 
L 386.293355 228.771376 
L 383.014016 228.86113 
L 379.734677 229.320496 
L 376.455338 229.959265 
L 373.175999 230.620122 
L 369.896661 231.180974 
L 366.617322 231.554914 
L 363.337983 231.68835 
L 360.058644 231.557814 
L 356.779305 231.165839 
L 353.499966 230.536283 
L 350.220628 229.709396 
L 346.941289 228.736881 
L 343.66195 227.677149 
L 340.382611 226.590939 
L 337.103272 225.537414 
L 333.823933 224.570824 
L 330.544595 223.737798 
L 327.265256 223.075285 
L 323.985917 222.609153 
L 320.706578 222.353429 
L 317.427239 222.310144 
L 314.1479 222.469738 
L 310.868561 222.811961 
L 307.589223 223.307198 
L 304.309884 223.918146 
L 301.030545 224.601757 
L 297.751206 225.311367 
L 294.471867 225.998922 
L 291.192528 226.617224 
L 287.91319 227.122105 
L 284.633851 227.474478 
L 281.354512 227.642169 
L 278.075173 227.601483 
L 274.795834 227.338456 
L 271.516495 226.849734 
L 268.237157 226.143056 
L 264.957818 225.237318 
L 261.678479 224.162203 
L 258.39914 222.957371 
L 255.119801 221.671236 
L 251.840462 220.359331 
L 248.561123 219.082315 
L 245.281785 217.903647 
L 242.002446 216.887003 
L 238.723107 232.620072 
L 235.443768 232.620902 
L 232.164429 214.580155 
L 228.88509 214.953038 
L 225.605752 215.744429 
L 222.326413 216.947775 
L 219.047074 218.535991 
L 215.767735 220.460171 
L 212.488396 222.648878 
L 209.209057 225.008086 
L 205.929718 227.421856 
L 202.65038 229.753787 
L 199.371041 231.849292 
L 196.091702 233.53874 
L 192.812363 234.641454 
L 189.533024 234.970593 
L 186.253685 234.338864 
L 182.974347 232.565032 
L 179.695008 229.481139 
L 176.415669 224.94034 
L 173.13633 218.825205 
L 169.856991 211.056331 
L 166.577652 201.601028 
L 163.298314 190.481852 
L 160.018975 177.784679 
L 156.739636 163.665963 
L 153.460297 148.358806 
L 150.180958 132.177366 
L 146.901619 115.519108 
L 143.62228 98.864317 
L 140.342942 82.772247 
L 137.063603 67.873182 
L 133.784264 54.855637 
L 130.504925 44.447838 
L 127.225586 37.392536 
L 123.946247 34.414125 
L 120.666909 36.176941 
L 117.38757 43.233536 
L 114.108231 55.96159 
L 110.828892 74.488064 
L 107.549553 98.599038 
L 104.270214 127.633604 
L 100.990876 160.360038 
L 97.711537 194.832369 
L 94.432198 228.225305 
L 91.152859 256.645387 
L 87.87352 274.916044 
L 84.594181 276.334125 
L 81.314842 252.395301 
L 78.035504 192.485591 
L 74.756165 83.536085 
z
" clip-path="url(#p94437a3502)" style="fill: #2ca02c; fill-opacity: 0.166667"/>
   </g>
   <g id="PolyCollection_4">
    <path d="M 74.756165 162.453628 
L 74.756165 232.620233 
L 77.76669 232.620233 
L 80.777214 232.620233 
L 83.787739 232.620233 
L 86.798264 232.620233 
L 89.808789 232.620233 
L 92.819314 232.620233 
L 95.829839 232.620233 
L 98.840364 232.620233 
L 101.850888 232.620233 
L 104.861413 232.620233 
L 107.871938 232.620233 
L 110.882463 232.620233 
L 113.892988 232.620233 
L 116.903513 232.620233 
L 119.914038 232.620233 
L 122.924562 232.620233 
L 125.935087 232.620233 
L 128.945612 232.620233 
L 131.956137 232.620233 
L 134.966662 232.620233 
L 137.977187 232.620233 
L 140.987711 232.620233 
L 143.998236 232.620233 
L 147.008761 232.620233 
L 150.019286 232.620233 
L 153.029811 232.620233 
L 156.040336 232.620233 
L 159.050861 232.620233 
L 162.061385 232.620233 
L 165.07191 232.620233 
L 168.082435 232.620233 
L 171.09296 232.620233 
L 174.103485 232.620233 
L 177.11401 232.620233 
L 180.124534 232.620233 
L 183.135059 232.620233 
L 186.145584 232.620233 
L 189.156109 232.620233 
L 192.166634 232.620233 
L 195.177159 232.620233 
L 198.187684 232.620233 
L 201.198208 232.620233 
L 204.208733 232.620233 
L 207.219258 232.620233 
L 210.229783 232.620233 
L 213.240308 232.620233 
L 216.250833 232.620233 
L 219.261358 232.620233 
L 222.271882 232.620233 
L 225.282407 232.620233 
L 228.292932 232.620233 
L 231.303457 232.620233 
L 234.313982 232.620233 
L 237.324507 232.620233 
L 240.335031 232.620233 
L 243.345556 232.620233 
L 246.356081 232.620233 
L 249.366606 232.620233 
L 252.377131 232.620233 
L 255.387656 232.620233 
L 258.398181 232.620233 
L 261.408705 232.620233 
L 264.41923 232.620233 
L 267.429755 232.620233 
L 270.44028 232.620233 
L 273.450805 232.620233 
L 276.46133 232.620233 
L 279.471854 232.620233 
L 282.482379 232.620233 
L 285.492904 232.620233 
L 288.503429 232.620233 
L 291.513954 232.620233 
L 294.524479 232.620233 
L 297.535004 232.620233 
L 300.545528 232.620233 
L 303.556053 232.620233 
L 306.566578 232.620233 
L 309.577103 232.620233 
L 312.587628 232.620233 
L 315.598153 232.620233 
L 318.608678 232.620233 
L 321.619202 232.620233 
L 324.629727 232.620233 
L 327.640252 232.620233 
L 330.650777 232.620233 
L 333.661302 232.620233 
L 336.671827 232.620233 
L 339.682351 232.620233 
L 342.692876 232.620233 
L 345.703401 232.620233 
L 348.713926 232.620233 
L 351.724451 232.620233 
L 354.734976 232.620233 
L 357.745501 232.620233 
L 360.756025 232.620233 
L 363.76655 232.620233 
L 366.777075 232.620233 
L 369.7876 232.620233 
L 372.798125 232.620233 
L 372.798125 252.269678 
L 372.798125 252.269678 
L 369.7876 228.119649 
L 366.777075 218.179082 
L 363.76655 217.024654 
L 360.756025 220.69479 
L 357.745501 226.400617 
L 354.734976 232.279193 
L 351.724451 237.184509 
L 348.713926 240.512103 
L 345.703401 242.053435 
L 342.692876 241.876473 
L 339.682351 240.229236 
L 336.671827 237.463302 
L 333.661302 233.97455 
L 330.650777 230.158661 
L 327.640252 226.379121 
L 324.629727 222.945695 
L 321.619202 220.101545 
L 318.608678 218.017358 
L 315.598153 216.791044 
L 312.587628 216.451712 
L 309.577103 216.966801 
L 306.566578 218.251414 
L 303.556053 220.178994 
L 300.545528 222.592645 
L 297.535004 225.316514 
L 294.524479 228.166735 
L 291.513954 230.961559 
L 288.503429 233.530371 
L 285.492904 235.721379 
L 282.482379 237.407829 
L 279.471854 238.492667 
L 276.46133 238.911629 
L 273.450805 238.634783 
L 270.44028 237.666587 
L 267.429755 236.04458 
L 264.41923 233.836829 
L 261.408705 231.138298 
L 258.398181 228.06631 
L 255.387656 224.755294 
L 252.377131 221.351014 
L 249.366606 218.004477 
L 246.356081 214.865724 
L 243.345556 212.077688 
L 240.335031 209.770321 
L 237.324507 208.055147 
L 234.313982 207.020404 
L 231.303457 206.726925 
L 228.292932 207.20487 
L 225.282407 232.6237 
L 222.271882 232.623756 
L 219.261358 211.759213 
L 216.250833 214.901466 
L 213.240308 218.530248 
L 210.229783 222.478754 
L 207.219258 226.552817 
L 204.208733 230.536247 
L 201.198208 234.197138 
L 198.187684 237.295034 
L 195.177159 239.588753 
L 192.166634 240.844726 
L 189.156109 240.845607 
L 186.145584 239.39896 
L 183.135059 236.345759 
L 180.124534 231.568463 
L 177.11401 224.998405 
L 174.103485 216.622229 
L 171.09296 206.487113 
L 168.082435 194.704536 
L 165.07191 181.452339 
L 162.061385 166.974851 
L 159.050861 151.580906 
L 156.040336 135.639564 
L 153.029811 119.573422 
L 150.019286 103.849436 
L 147.008761 88.967223 
L 143.998236 75.4449 
L 140.987711 63.802548 
L 137.977187 54.543524 
L 134.966662 48.133873 
L 131.956137 44.980262 
L 128.945612 45.406903 
L 125.935087 49.632106 
L 122.924562 57.745209 
L 119.914038 69.684782 
L 116.903513 85.219175 
L 113.892988 103.930617 
L 110.882463 125.204299 
L 107.871938 148.224034 
L 104.861413 171.976307 
L 101.850888 195.264777 
L 98.840364 216.737474 
L 95.829839 234.929262 
L 92.819314 248.322337 
L 89.808789 255.427858 
L 86.798264 254.8921 
L 83.787739 245.630815 
L 80.777214 226.995849 
L 77.76669 198.978394 
L 74.756165 162.453628 
z
" clip-path="url(#p94437a3502)" style="fill: #d62728; fill-opacity: 0.166667"/>
   </g>
   <g id="PolyCollection_5">
    <path d="M 74.756165 167.151084 
L 74.756165 232.620233 
L 77.546752 232.620233 
L 80.33734 232.620233 
L 83.127928 232.620233 
L 85.918515 232.620233 
L 88.709103 232.620233 
L 91.49969 232.620233 
L 94.290278 232.620233 
L 97.080866 232.620233 
L 99.871453 232.620233 
L 102.662041 232.620233 
L 105.452628 232.620233 
L 108.243216 232.620233 
L 111.033804 232.620233 
L 113.824391 232.620233 
L 116.614979 232.620233 
L 119.405566 232.620233 
L 122.196154 232.620233 
L 124.986742 232.620233 
L 127.777329 232.620233 
L 130.567917 232.620233 
L 133.358504 232.620233 
L 136.149092 232.620233 
L 138.93968 232.620233 
L 141.730267 232.620233 
L 144.520855 232.620233 
L 147.311442 232.620233 
L 150.10203 232.620233 
L 152.892618 232.620233 
L 155.683205 232.620233 
L 158.473793 232.620233 
L 161.26438 232.620233 
L 164.054968 232.620233 
L 166.845556 232.620233 
L 169.636143 232.620233 
L 172.426731 232.620233 
L 175.217318 232.620233 
L 178.007906 232.620233 
L 180.798494 232.620233 
L 183.589081 232.620233 
L 186.379669 232.620233 
L 189.170256 232.620233 
L 191.960844 232.620233 
L 194.751432 232.620233 
L 197.542019 232.620233 
L 200.332607 232.620233 
L 203.123194 232.620233 
L 205.913782 232.620233 
L 208.70437 232.620233 
L 211.494957 232.620233 
L 214.285545 232.620233 
L 217.076132 232.620233 
L 219.86672 232.620233 
L 222.657308 232.620233 
L 225.447895 232.620233 
L 228.238483 232.620233 
L 231.02907 232.620233 
L 233.819658 232.620233 
L 236.610246 232.620233 
L 239.400833 232.620233 
L 242.191421 232.620233 
L 244.982008 232.620233 
L 247.772596 232.620233 
L 250.563184 232.620233 
L 253.353771 232.620233 
L 256.144359 232.620233 
L 258.934946 232.620233 
L 261.725534 232.620233 
L 264.516122 232.620233 
L 267.306709 232.620233 
L 270.097297 232.620233 
L 272.887884 232.620233 
L 275.678472 232.620233 
L 278.46906 232.620233 
L 281.259647 232.620233 
L 284.050235 232.620233 
L 286.840823 232.620233 
L 289.63141 232.620233 
L 292.421998 232.620233 
L 295.212585 232.620233 
L 298.003173 232.620233 
L 300.793761 232.620233 
L 303.584348 232.620233 
L 306.374936 232.620233 
L 309.165523 232.620233 
L 311.956111 232.620233 
L 314.746699 232.620233 
L 317.537286 232.620233 
L 320.327874 232.620233 
L 323.118461 232.620233 
L 325.909049 232.620233 
L 328.699637 232.620233 
L 331.490224 232.620233 
L 334.280812 232.620233 
L 337.071399 232.620233 
L 339.861987 232.620233 
L 342.652575 232.620233 
L 345.443162 232.620233 
L 348.23375 232.620233 
L 351.024337 232.620233 
L 351.024337 240.599774 
L 351.024337 240.599774 
L 348.23375 230.25284 
L 345.443162 226.466326 
L 342.652575 226.586921 
L 339.861987 228.71226 
L 337.071399 231.536469 
L 334.280812 234.218936 
L 331.490224 236.273796 
L 328.699637 237.477813 
L 325.909049 237.794489 
L 323.118461 237.312432 
L 320.327874 236.196171 
L 317.537286 234.647739 
L 314.746699 232.877524 
L 311.956111 231.082994 
L 309.165523 229.434058 
L 306.374936 228.063939 
L 303.584348 227.064546 
L 300.793761 226.485442 
L 298.003173 226.335625 
L 295.212585 226.587414 
L 292.421998 227.181818 
L 289.63141 228.034887 
L 286.840823 229.044561 
L 284.050235 230.097671 
L 281.259647 231.076745 
L 278.46906 231.866397 
L 275.678472 232.359075 
L 272.887884 232.460037 
L 270.097297 232.091436 
L 267.306709 231.195466 
L 264.516122 229.736528 
L 261.725534 227.702424 
L 258.934946 225.104612 
L 256.144359 221.977577 
L 253.353771 218.377378 
L 250.563184 214.379485 
L 247.772596 210.07598 
L 244.982008 205.572257 
L 242.191421 200.983326 
L 239.400833 196.429845 
L 236.610246 192.034004 
L 233.819658 187.915379 
L 231.02907 184.186883 
L 228.238483 180.950911 
L 225.447895 178.29579 
L 222.657308 176.292641 
L 219.86672 174.992713 
L 217.076132 174.425284 
L 214.285545 232.61672 
L 211.494957 232.616521 
L 208.70437 176.670224 
L 205.913782 178.767335 
L 203.123194 181.407504 
L 200.332607 184.483308 
L 197.542019 187.868375 
L 194.751432 191.420594 
L 191.960844 194.985931 
L 189.170256 198.402745 
L 186.379669 201.506554 
L 183.589081 204.13511 
L 180.798494 206.133692 
L 178.007906 207.360485 
L 175.217318 207.691904 
L 172.426731 207.027724 
L 169.636143 205.295871 
L 166.845556 202.456723 
L 164.054968 198.506757 
L 161.26438 193.481407 
L 158.473793 187.456984 
L 155.683205 180.551516 
L 152.892618 172.924381 
L 150.10203 164.774629 
L 147.311442 156.3379 
L 144.520855 147.881847 
L 141.730267 139.700051 
L 138.93968 132.10438 
L 136.149092 125.415839 
L 133.358504 119.953955 
L 130.567917 116.024802 
L 127.777329 113.907825 
L 124.986742 113.841672 
L 122.196154 116.00929 
L 119.405566 120.522641 
L 116.614979 127.407421 
L 113.824391 136.588286 
L 111.033804 147.875139 
L 108.243216 160.951148 
L 105.452628 175.363247 
L 102.662041 190.515986 
L 99.871453 205.669691 
L 97.080866 219.944047 
L 94.290278 232.328298 
L 91.49969 241.699443 
L 88.709103 246.849895 
L 85.918515 246.526275 
L 83.127928 239.48112 
L 80.33734 224.5395 
L 77.546752 200.682666 
L 74.756165 167.151084 
z
" clip-path="url(#p94437a3502)" style="fill: #9467bd; fill-opacity: 0.166667"/>
   </g>
   <g id="PolyCollection_6">
    <path d="M 74.756165 160.197456 
L 74.756165 232.620233 
L 77.362889 232.620233 
L 79.969613 232.620233 
L 82.576338 232.620233 
L 85.183062 232.620233 
L 87.789786 232.620233 
L 90.39651 232.620233 
L 93.003235 232.620233 
L 95.609959 232.620233 
L 98.216683 232.620233 
L 100.823407 232.620233 
L 103.430132 232.620233 
L 106.036856 232.620233 
L 108.64358 232.620233 
L 111.250304 232.620233 
L 113.857029 232.620233 
L 116.463753 232.620233 
L 119.070477 232.620233 
L 121.677201 232.620233 
L 124.283926 232.620233 
L 126.89065 232.620233 
L 129.497374 232.620233 
L 132.104099 232.620233 
L 134.710823 232.620233 
L 137.317547 232.620233 
L 139.924271 232.620233 
L 142.530996 232.620233 
L 145.13772 232.620233 
L 147.744444 232.620233 
L 150.351168 232.620233 
L 152.957893 232.620233 
L 155.564617 232.620233 
L 158.171341 232.620233 
L 160.778065 232.620233 
L 163.38479 232.620233 
L 165.991514 232.620233 
L 168.598238 232.620233 
L 171.204962 232.620233 
L 173.811687 232.620233 
L 176.418411 232.620233 
L 179.025135 232.620233 
L 181.631859 232.620233 
L 184.238584 232.620233 
L 186.845308 232.620233 
L 189.452032 232.620233 
L 192.058757 232.620233 
L 194.665481 232.620233 
L 197.272205 232.620233 
L 199.878929 232.620233 
L 202.485654 232.620233 
L 205.092378 232.620233 
L 207.699102 232.620233 
L 210.305826 232.620233 
L 212.912551 232.620233 
L 215.519275 232.620233 
L 218.125999 232.620233 
L 220.732723 232.620233 
L 223.339448 232.620233 
L 225.946172 232.620233 
L 228.552896 232.620233 
L 231.15962 232.620233 
L 233.766345 232.620233 
L 236.373069 232.620233 
L 238.979793 232.620233 
L 241.586517 232.620233 
L 244.193242 232.620233 
L 246.799966 232.620233 
L 249.40669 232.620233 
L 252.013415 232.620233 
L 254.620139 232.620233 
L 257.226863 232.620233 
L 259.833587 232.620233 
L 262.440312 232.620233 
L 265.047036 232.620233 
L 267.65376 232.620233 
L 270.260484 232.620233 
L 272.867209 232.620233 
L 275.473933 232.620233 
L 278.080657 232.620233 
L 280.687381 232.620233 
L 283.294106 232.620233 
L 285.90083 232.620233 
L 288.507554 232.620233 
L 291.114278 232.620233 
L 293.721003 232.620233 
L 296.327727 232.620233 
L 298.934451 232.620233 
L 301.541175 232.620233 
L 304.1479 232.620233 
L 306.754624 232.620233 
L 309.361348 232.620233 
L 311.968073 232.620233 
L 314.574797 232.620233 
L 317.181521 232.620233 
L 319.788245 232.620233 
L 322.39497 232.620233 
L 325.001694 232.620233 
L 327.608418 232.620233 
L 330.215142 232.620233 
L 332.821867 232.620233 
L 332.821867 252.069981 
L 332.821867 252.069981 
L 330.215142 227.32491 
L 327.608418 217.865211 
L 325.001694 217.601303 
L 322.39497 222.137974 
L 319.788245 228.430162 
L 317.181521 234.490411 
L 314.574797 239.142349 
L 311.968073 241.814977 
L 309.361348 242.372947 
L 306.754624 240.978414 
L 304.1479 237.980417 
L 301.541175 233.828068 
L 298.934451 229.004197 
L 296.327727 223.976383 
L 293.721003 219.162623 
L 291.114278 214.909145 
L 288.507554 211.478156 
L 285.90083 209.043535 
L 283.294106 207.692753 
L 280.687381 207.433457 
L 278.080657 208.20342 
L 275.473933 209.88269 
L 272.867209 212.306967 
L 270.260484 215.281412 
L 267.65376 218.594183 
L 265.047036 222.029192 
L 262.440312 225.377638 
L 259.833587 228.448026 
L 257.226863 231.074439 
L 254.620139 233.122949 
L 252.013415 234.496112 
L 249.40669 235.135557 
L 246.799966 235.022752 
L 244.193242 234.178048 
L 241.586517 232.658185 
L 238.979793 230.552426 
L 236.373069 227.977558 
L 233.766345 225.071971 
L 231.15962 221.989072 
L 228.552896 218.890277 
L 225.946172 215.937826 
L 223.339448 213.287662 
L 220.732723 211.082605 
L 218.125999 209.446023 
L 215.519275 208.476217 
L 212.912551 208.241662 
L 210.305826 208.777278 
L 207.699102 210.081825 
L 205.092378 232.623559 
L 202.485654 232.622815 
L 199.878929 217.564336 
L 197.272205 220.794477 
L 194.665481 224.277553 
L 192.058757 227.827336 
L 189.452032 231.236618 
L 186.845308 234.283617 
L 184.238584 236.739243 
L 181.631859 238.375028 
L 179.025135 238.971527 
L 176.418411 238.326984 
L 173.811687 236.265993 
L 171.204962 232.64793 
L 168.598238 227.374869 
L 165.991514 220.398719 
L 163.38479 211.727303 
L 160.778065 201.429118 
L 158.171341 189.636499 
L 155.564617 176.54697 
L 152.957893 162.422532 
L 150.351168 147.586726 
L 147.744444 132.419307 
L 145.13772 117.348423 
L 142.530996 102.840263 
L 139.924271 89.386182 
L 137.317547 77.487396 
L 134.710823 67.637423 
L 132.104099 60.302545 
L 129.497374 55.900656 
L 126.89065 54.779004 
L 124.283926 57.191438 
L 121.677201 63.275933 
L 119.070477 73.033301 
L 116.463753 86.308193 
L 113.857029 102.773634 
L 111.250304 121.920573 
L 108.64358 143.054119 
L 106.036856 165.298348 
L 103.430132 187.611833 
L 100.823407 208.816282 
L 98.216683 227.640965 
L 95.609959 242.785865 
L 93.003235 253.006843 
L 90.39651 257.226384 
L 87.789786 254.673874 
L 85.183062 245.05969 
L 82.576338 228.787784 
L 79.969613 207.211835 
L 77.362889 182.940464 
L 74.756165 160.197456 
z
" clip-path="url(#p94437a3502)" style="fill: #8c564b; fill-opacity: 0.166667"/>
   </g>
   <g id="matplotlib.axis_1">
    <g id="xtick_1">
     <g id="line2d_1">
      <defs>
       <path id="ma1895f857c" d="M 0 0 
L 0 3.5 
" style="stroke: #000000; stroke-width: 0.8"/>
      </defs>
      <g>
       <use xlink:href="#ma1895f857c" x="74.756165" y="288.430125" style="stroke: #000000; stroke-width: 0.8"/>
      </g>
     </g>
     <g id="text_1">
      <!-- 0.00000 -->
      <g transform="translate(54.079602 303.028562) scale(0.1 -0.1)">
       <defs>
        <path id="DejaVuSans-30" d="M 2034 4250 
Q 1547 4250 1301 3770 
Q 1056 3291 1056 2328 
Q 1056 1369 1301 889 
Q 1547 409 2034 409 
Q 2525 409 2770 889 
Q 3016 1369 3016 2328 
Q 3016 3291 2770 3770 
Q 2525 4250 2034 4250 
z
M 2034 4750 
Q 2819 4750 3233 4129 
Q 3647 3509 3647 2328 
Q 3647 1150 3233 529 
Q 2819 -91 2034 -91 
Q 1250 -91 836 529 
Q 422 1150 422 2328 
Q 422 3509 836 4129 
Q 1250 4750 2034 4750 
z
" transform="scale(0.015625)"/>
        <path id="DejaVuSans-2e" d="M 684 794 
L 1344 794 
L 1344 0 
L 684 0 
L 684 794 
z
" transform="scale(0.015625)"/>
       </defs>
       <use xlink:href="#DejaVuSans-30"/>
       <use xlink:href="#DejaVuSans-2e" x="63.623047"/>
       <use xlink:href="#DejaVuSans-30" x="95.410156"/>
       <use xlink:href="#DejaVuSans-30" x="159.033203"/>
       <use xlink:href="#DejaVuSans-30" x="222.65625"/>
       <use xlink:href="#DejaVuSans-30" x="286.279297"/>
       <use xlink:href="#DejaVuSans-30" x="349.902344"/>
      </g>
     </g>
    </g>
    <g id="xtick_2">
     <g id="line2d_2">
      <g>
       <use xlink:href="#ma1895f857c" x="115.299259" y="288.430125" style="stroke: #000000; stroke-width: 0.8"/>
      </g>
     </g>
     <g id="text_2">
      <!-- 0.00025 -->
      <g transform="translate(94.622696 303.028562) scale(0.1 -0.1)">
       <defs>
        <path id="DejaVuSans-32" d="M 1228 531 
L 3431 531 
L 3431 0 
L 469 0 
L 469 531 
Q 828 903 1448 1529 
Q 2069 2156 2228 2338 
Q 2531 2678 2651 2914 
Q 2772 3150 2772 3378 
Q 2772 3750 2511 3984 
Q 2250 4219 1831 4219 
Q 1534 4219 1204 4116 
Q 875 4013 500 3803 
L 500 4441 
Q 881 4594 1212 4672 
Q 1544 4750 1819 4750 
Q 2544 4750 2975 4387 
Q 3406 4025 3406 3419 
Q 3406 3131 3298 2873 
Q 3191 2616 2906 2266 
Q 2828 2175 2409 1742 
Q 1991 1309 1228 531 
z
" transform="scale(0.015625)"/>
        <path id="DejaVuSans-35" d="M 691 4666 
L 3169 4666 
L 3169 4134 
L 1269 4134 
L 1269 2991 
Q 1406 3038 1543 3061 
Q 1681 3084 1819 3084 
Q 2600 3084 3056 2656 
Q 3513 2228 3513 1497 
Q 3513 744 3044 326 
Q 2575 -91 1722 -91 
Q 1428 -91 1123 -41 
Q 819 9 494 109 
L 494 744 
Q 775 591 1075 516 
Q 1375 441 1709 441 
Q 2250 441 2565 725 
Q 2881 1009 2881 1497 
Q 2881 1984 2565 2268 
Q 2250 2553 1709 2553 
Q 1456 2553 1204 2497 
Q 953 2441 691 2322 
L 691 4666 
z
" transform="scale(0.015625)"/>
       </defs>
       <use xlink:href="#DejaVuSans-30"/>
       <use xlink:href="#DejaVuSans-2e" x="63.623047"/>
       <use xlink:href="#DejaVuSans-30" x="95.410156"/>
       <use xlink:href="#DejaVuSans-30" x="159.033203"/>
       <use xlink:href="#DejaVuSans-30" x="222.65625"/>
       <use xlink:href="#DejaVuSans-32" x="286.279297"/>
       <use xlink:href="#DejaVuSans-35" x="349.902344"/>
      </g>
     </g>
    </g>
    <g id="xtick_3">
     <g id="line2d_3">
      <g>
       <use xlink:href="#ma1895f857c" x="155.842353" y="288.430125" style="stroke: #000000; stroke-width: 0.8"/>
      </g>
     </g>
     <g id="text_3">
      <!-- 0.00050 -->
      <g transform="translate(135.165791 303.028562) scale(0.1 -0.1)">
       <use xlink:href="#DejaVuSans-30"/>
       <use xlink:href="#DejaVuSans-2e" x="63.623047"/>
       <use xlink:href="#DejaVuSans-30" x="95.410156"/>
       <use xlink:href="#DejaVuSans-30" x="159.033203"/>
       <use xlink:href="#DejaVuSans-30" x="222.65625"/>
       <use xlink:href="#DejaVuSans-35" x="286.279297"/>
       <use xlink:href="#DejaVuSans-30" x="349.902344"/>
      </g>
     </g>
    </g>
    <g id="xtick_4">
     <g id="line2d_4">
      <g>
       <use xlink:href="#ma1895f857c" x="196.385447" y="288.430125" style="stroke: #000000; stroke-width: 0.8"/>
      </g>
     </g>
     <g id="text_4">
      <!-- 0.00075 -->
      <g transform="translate(175.708885 303.028562) scale(0.1 -0.1)">
       <defs>
        <path id="DejaVuSans-37" d="M 525 4666 
L 3525 4666 
L 3525 4397 
L 1831 0 
L 1172 0 
L 2766 4134 
L 525 4134 
L 525 4666 
z
" transform="scale(0.015625)"/>
       </defs>
       <use xlink:href="#DejaVuSans-30"/>
       <use xlink:href="#DejaVuSans-2e" x="63.623047"/>
       <use xlink:href="#DejaVuSans-30" x="95.410156"/>
       <use xlink:href="#DejaVuSans-30" x="159.033203"/>
       <use xlink:href="#DejaVuSans-30" x="222.65625"/>
       <use xlink:href="#DejaVuSans-37" x="286.279297"/>
       <use xlink:href="#DejaVuSans-35" x="349.902344"/>
      </g>
     </g>
    </g>
    <g id="xtick_5">
     <g id="line2d_5">
      <g>
       <use xlink:href="#ma1895f857c" x="236.928542" y="288.430125" style="stroke: #000000; stroke-width: 0.8"/>
      </g>
     </g>
     <g id="text_5">
      <!-- 0.00100 -->
      <g transform="translate(216.251979 303.028562) scale(0.1 -0.1)">
       <defs>
        <path id="DejaVuSans-31" d="M 794 531 
L 1825 531 
L 1825 4091 
L 703 3866 
L 703 4441 
L 1819 4666 
L 2450 4666 
L 2450 531 
L 3481 531 
L 3481 0 
L 794 0 
L 794 531 
z
" transform="scale(0.015625)"/>
       </defs>
       <use xlink:href="#DejaVuSans-30"/>
       <use xlink:href="#DejaVuSans-2e" x="63.623047"/>
       <use xlink:href="#DejaVuSans-30" x="95.410156"/>
       <use xlink:href="#DejaVuSans-30" x="159.033203"/>
       <use xlink:href="#DejaVuSans-31" x="222.65625"/>
       <use xlink:href="#DejaVuSans-30" x="286.279297"/>
       <use xlink:href="#DejaVuSans-30" x="349.902344"/>
      </g>
     </g>
    </g>
    <g id="xtick_6">
     <g id="line2d_6">
      <g>
       <use xlink:href="#ma1895f857c" x="277.471636" y="288.430125" style="stroke: #000000; stroke-width: 0.8"/>
      </g>
     </g>
     <g id="text_6">
      <!-- 0.00125 -->
      <g transform="translate(256.795073 303.028562) scale(0.1 -0.1)">
       <use xlink:href="#DejaVuSans-30"/>
       <use xlink:href="#DejaVuSans-2e" x="63.623047"/>
       <use xlink:href="#DejaVuSans-30" x="95.410156"/>
       <use xlink:href="#DejaVuSans-30" x="159.033203"/>
       <use xlink:href="#DejaVuSans-31" x="222.65625"/>
       <use xlink:href="#DejaVuSans-32" x="286.279297"/>
       <use xlink:href="#DejaVuSans-35" x="349.902344"/>
      </g>
     </g>
    </g>
    <g id="xtick_7">
     <g id="line2d_7">
      <g>
       <use xlink:href="#ma1895f857c" x="318.01473" y="288.430125" style="stroke: #000000; stroke-width: 0.8"/>
      </g>
     </g>
     <g id="text_7">
      <!-- 0.00150 -->
      <g transform="translate(297.338167 303.028562) scale(0.1 -0.1)">
       <use xlink:href="#DejaVuSans-30"/>
       <use xlink:href="#DejaVuSans-2e" x="63.623047"/>
       <use xlink:href="#DejaVuSans-30" x="95.410156"/>
       <use xlink:href="#DejaVuSans-30" x="159.033203"/>
       <use xlink:href="#DejaVuSans-31" x="222.65625"/>
       <use xlink:href="#DejaVuSans-35" x="286.279297"/>
       <use xlink:href="#DejaVuSans-30" x="349.902344"/>
      </g>
     </g>
    </g>
    <g id="xtick_8">
     <g id="line2d_8">
      <g>
       <use xlink:href="#ma1895f857c" x="358.557824" y="288.430125" style="stroke: #000000; stroke-width: 0.8"/>
      </g>
     </g>
     <g id="text_8">
      <!-- 0.00175 -->
      <g transform="translate(337.881262 303.028562) scale(0.1 -0.1)">
       <use xlink:href="#DejaVuSans-30"/>
       <use xlink:href="#DejaVuSans-2e" x="63.623047"/>
       <use xlink:href="#DejaVuSans-30" x="95.410156"/>
       <use xlink:href="#DejaVuSans-30" x="159.033203"/>
       <use xlink:href="#DejaVuSans-31" x="222.65625"/>
       <use xlink:href="#DejaVuSans-37" x="286.279297"/>
       <use xlink:href="#DejaVuSans-35" x="349.902344"/>
      </g>
     </g>
    </g>
    <g id="xtick_9">
     <g id="line2d_9">
      <g>
       <use xlink:href="#ma1895f857c" x="399.100918" y="288.430125" style="stroke: #000000; stroke-width: 0.8"/>
      </g>
     </g>
     <g id="text_9">
      <!-- 0.00200 -->
      <g transform="translate(378.424356 303.028562) scale(0.1 -0.1)">
       <use xlink:href="#DejaVuSans-30"/>
       <use xlink:href="#DejaVuSans-2e" x="63.623047"/>
       <use xlink:href="#DejaVuSans-30" x="95.410156"/>
       <use xlink:href="#DejaVuSans-30" x="159.033203"/>
       <use xlink:href="#DejaVuSans-32" x="222.65625"/>
       <use xlink:href="#DejaVuSans-30" x="286.279297"/>
       <use xlink:href="#DejaVuSans-30" x="349.902344"/>
      </g>
     </g>
    </g>
    <g id="text_10">
     <!-- Pixel values -->
     <g transform="translate(207.671719 316.706687) scale(0.1 -0.1)">
      <defs>
       <path id="DejaVuSans-50" d="M 1259 4147 
L 1259 2394 
L 2053 2394 
Q 2494 2394 2734 2622 
Q 2975 2850 2975 3272 
Q 2975 3691 2734 3919 
Q 2494 4147 2053 4147 
L 1259 4147 
z
M 628 4666 
L 2053 4666 
Q 2838 4666 3239 4311 
Q 3641 3956 3641 3272 
Q 3641 2581 3239 2228 
Q 2838 1875 2053 1875 
L 1259 1875 
L 1259 0 
L 628 0 
L 628 4666 
z
" transform="scale(0.015625)"/>
       <path id="DejaVuSans-69" d="M 603 3500 
L 1178 3500 
L 1178 0 
L 603 0 
L 603 3500 
z
M 603 4863 
L 1178 4863 
L 1178 4134 
L 603 4134 
L 603 4863 
z
" transform="scale(0.015625)"/>
       <path id="DejaVuSans-78" d="M 3513 3500 
L 2247 1797 
L 3578 0 
L 2900 0 
L 1881 1375 
L 863 0 
L 184 0 
L 1544 1831 
L 300 3500 
L 978 3500 
L 1906 2253 
L 2834 3500 
L 3513 3500 
z
" transform="scale(0.015625)"/>
       <path id="DejaVuSans-65" d="M 3597 1894 
L 3597 1613 
L 953 1613 
Q 991 1019 1311 708 
Q 1631 397 2203 397 
Q 2534 397 2845 478 
Q 3156 559 3463 722 
L 3463 178 
Q 3153 47 2828 -22 
Q 2503 -91 2169 -91 
Q 1331 -91 842 396 
Q 353 884 353 1716 
Q 353 2575 817 3079 
Q 1281 3584 2069 3584 
Q 2775 3584 3186 3129 
Q 3597 2675 3597 1894 
z
M 3022 2063 
Q 3016 2534 2758 2815 
Q 2500 3097 2075 3097 
Q 1594 3097 1305 2825 
Q 1016 2553 972 2059 
L 3022 2063 
z
" transform="scale(0.015625)"/>
       <path id="DejaVuSans-6c" d="M 603 4863 
L 1178 4863 
L 1178 0 
L 603 0 
L 603 4863 
z
" transform="scale(0.015625)"/>
       <path id="DejaVuSans-20" transform="scale(0.015625)"/>
       <path id="DejaVuSans-76" d="M 191 3500 
L 800 3500 
L 1894 563 
L 2988 3500 
L 3597 3500 
L 2284 0 
L 1503 0 
L 191 3500 
z
" transform="scale(0.015625)"/>
       <path id="DejaVuSans-61" d="M 2194 1759 
Q 1497 1759 1228 1600 
Q 959 1441 959 1056 
Q 959 750 1161 570 
Q 1363 391 1709 391 
Q 2188 391 2477 730 
Q 2766 1069 2766 1631 
L 2766 1759 
L 2194 1759 
z
M 3341 1997 
L 3341 0 
L 2766 0 
L 2766 531 
Q 2569 213 2275 61 
Q 1981 -91 1556 -91 
Q 1019 -91 701 211 
Q 384 513 384 1019 
Q 384 1609 779 1909 
Q 1175 2209 1959 2209 
L 2766 2209 
L 2766 2266 
Q 2766 2663 2505 2880 
Q 2244 3097 1772 3097 
Q 1472 3097 1187 3025 
Q 903 2953 641 2809 
L 641 3341 
Q 956 3463 1253 3523 
Q 1550 3584 1831 3584 
Q 2591 3584 2966 3190 
Q 3341 2797 3341 1997 
z
" transform="scale(0.015625)"/>
       <path id="DejaVuSans-75" d="M 544 1381 
L 544 3500 
L 1119 3500 
L 1119 1403 
Q 1119 906 1312 657 
Q 1506 409 1894 409 
Q 2359 409 2629 706 
Q 2900 1003 2900 1516 
L 2900 3500 
L 3475 3500 
L 3475 0 
L 2900 0 
L 2900 538 
Q 2691 219 2414 64 
Q 2138 -91 1772 -91 
Q 1169 -91 856 284 
Q 544 659 544 1381 
z
M 1991 3584 
L 1991 3584 
z
" transform="scale(0.015625)"/>
       <path id="DejaVuSans-73" d="M 2834 3397 
L 2834 2853 
Q 2591 2978 2328 3040 
Q 2066 3103 1784 3103 
Q 1356 3103 1142 2972 
Q 928 2841 928 2578 
Q 928 2378 1081 2264 
Q 1234 2150 1697 2047 
L 1894 2003 
Q 2506 1872 2764 1633 
Q 3022 1394 3022 966 
Q 3022 478 2636 193 
Q 2250 -91 1575 -91 
Q 1294 -91 989 -36 
Q 684 19 347 128 
L 347 722 
Q 666 556 975 473 
Q 1284 391 1588 391 
Q 1994 391 2212 530 
Q 2431 669 2431 922 
Q 2431 1156 2273 1281 
Q 2116 1406 1581 1522 
L 1381 1569 
Q 847 1681 609 1914 
Q 372 2147 372 2553 
Q 372 3047 722 3315 
Q 1072 3584 1716 3584 
Q 2034 3584 2315 3537 
Q 2597 3491 2834 3397 
z
" transform="scale(0.015625)"/>
      </defs>
      <use xlink:href="#DejaVuSans-50"/>
      <use xlink:href="#DejaVuSans-69" x="58.052734"/>
      <use xlink:href="#DejaVuSans-78" x="85.835938"/>
      <use xlink:href="#DejaVuSans-65" x="141.890625"/>
      <use xlink:href="#DejaVuSans-6c" x="203.414062"/>
      <use xlink:href="#DejaVuSans-20" x="231.197266"/>
      <use xlink:href="#DejaVuSans-76" x="262.984375"/>
      <use xlink:href="#DejaVuSans-61" x="322.164062"/>
      <use xlink:href="#DejaVuSans-6c" x="383.443359"/>
      <use xlink:href="#DejaVuSans-75" x="411.226562"/>
      <use xlink:href="#DejaVuSans-65" x="474.605469"/>
      <use xlink:href="#DejaVuSans-73" x="536.128906"/>
     </g>
    </g>
   </g>
   <g id="matplotlib.axis_2">
    <g id="ytick_1">
     <g id="line2d_10">
      <defs>
       <path id="m906cd97b76" d="M 0 0 
L -3.5 0 
" style="stroke: #000000; stroke-width: 0.8"/>
      </defs>
      <g>
       <use xlink:href="#m906cd97b76" x="58.523438" y="266.022752" style="stroke: #000000; stroke-width: 0.8"/>
      </g>
     </g>
     <g id="text_11">
      <!-- −0.01 -->
      <g transform="translate(20.878125 269.82197) scale(0.1 -0.1)">
       <defs>
        <path id="DejaVuSans-2212" d="M 678 2272 
L 4684 2272 
L 4684 1741 
L 678 1741 
L 678 2272 
z
" transform="scale(0.015625)"/>
       </defs>
       <use xlink:href="#DejaVuSans-2212"/>
       <use xlink:href="#DejaVuSans-30" x="83.789062"/>
       <use xlink:href="#DejaVuSans-2e" x="147.412109"/>
       <use xlink:href="#DejaVuSans-30" x="179.199219"/>
       <use xlink:href="#DejaVuSans-31" x="242.822266"/>
      </g>
     </g>
    </g>
    <g id="ytick_2">
     <g id="line2d_11">
      <g>
       <use xlink:href="#m906cd97b76" x="58.523438" y="232.620233" style="stroke: #000000; stroke-width: 0.8"/>
      </g>
     </g>
     <g id="text_12">
      <!-- 0.00 -->
      <g transform="translate(29.257813 236.419452) scale(0.1 -0.1)">
       <use xlink:href="#DejaVuSans-30"/>
       <use xlink:href="#DejaVuSans-2e" x="63.623047"/>
       <use xlink:href="#DejaVuSans-30" x="95.410156"/>
       <use xlink:href="#DejaVuSans-30" x="159.033203"/>
      </g>
     </g>
    </g>
    <g id="ytick_3">
     <g id="line2d_12">
      <g>
       <use xlink:href="#m906cd97b76" x="58.523438" y="199.217715" style="stroke: #000000; stroke-width: 0.8"/>
      </g>
     </g>
     <g id="text_13">
      <!-- 0.01 -->
      <g transform="translate(29.257813 203.016934) scale(0.1 -0.1)">
       <use xlink:href="#DejaVuSans-30"/>
       <use xlink:href="#DejaVuSans-2e" x="63.623047"/>
       <use xlink:href="#DejaVuSans-30" x="95.410156"/>
       <use xlink:href="#DejaVuSans-31" x="159.033203"/>
      </g>
     </g>
    </g>
    <g id="ytick_4">
     <g id="line2d_13">
      <g>
       <use xlink:href="#m906cd97b76" x="58.523438" y="165.815197" style="stroke: #000000; stroke-width: 0.8"/>
      </g>
     </g>
     <g id="text_14">
      <!-- 0.02 -->
      <g transform="translate(29.257813 169.614416) scale(0.1 -0.1)">
       <use xlink:href="#DejaVuSans-30"/>
       <use xlink:href="#DejaVuSans-2e" x="63.623047"/>
       <use xlink:href="#DejaVuSans-30" x="95.410156"/>
       <use xlink:href="#DejaVuSans-32" x="159.033203"/>
      </g>
     </g>
    </g>
    <g id="ytick_5">
     <g id="line2d_14">
      <g>
       <use xlink:href="#m906cd97b76" x="58.523438" y="132.412679" style="stroke: #000000; stroke-width: 0.8"/>
      </g>
     </g>
     <g id="text_15">
      <!-- 0.03 -->
      <g transform="translate(29.257813 136.211898) scale(0.1 -0.1)">
       <defs>
        <path id="DejaVuSans-33" d="M 2597 2516 
Q 3050 2419 3304 2112 
Q 3559 1806 3559 1356 
Q 3559 666 3084 287 
Q 2609 -91 1734 -91 
Q 1441 -91 1130 -33 
Q 819 25 488 141 
L 488 750 
Q 750 597 1062 519 
Q 1375 441 1716 441 
Q 2309 441 2620 675 
Q 2931 909 2931 1356 
Q 2931 1769 2642 2001 
Q 2353 2234 1838 2234 
L 1294 2234 
L 1294 2753 
L 1863 2753 
Q 2328 2753 2575 2939 
Q 2822 3125 2822 3475 
Q 2822 3834 2567 4026 
Q 2313 4219 1838 4219 
Q 1578 4219 1281 4162 
Q 984 4106 628 3988 
L 628 4550 
Q 988 4650 1302 4700 
Q 1616 4750 1894 4750 
Q 2613 4750 3031 4423 
Q 3450 4097 3450 3541 
Q 3450 3153 3228 2886 
Q 3006 2619 2597 2516 
z
" transform="scale(0.015625)"/>
       </defs>
       <use xlink:href="#DejaVuSans-30"/>
       <use xlink:href="#DejaVuSans-2e" x="63.623047"/>
       <use xlink:href="#DejaVuSans-30" x="95.410156"/>
       <use xlink:href="#DejaVuSans-33" x="159.033203"/>
      </g>
     </g>
    </g>
    <g id="ytick_6">
     <g id="line2d_15">
      <g>
       <use xlink:href="#m906cd97b76" x="58.523438" y="99.010161" style="stroke: #000000; stroke-width: 0.8"/>
      </g>
     </g>
     <g id="text_16">
      <!-- 0.04 -->
      <g transform="translate(29.257813 102.809379) scale(0.1 -0.1)">
       <defs>
        <path id="DejaVuSans-34" d="M 2419 4116 
L 825 1625 
L 2419 1625 
L 2419 4116 
z
M 2253 4666 
L 3047 4666 
L 3047 1625 
L 3713 1625 
L 3713 1100 
L 3047 1100 
L 3047 0 
L 2419 0 
L 2419 1100 
L 313 1100 
L 313 1709 
L 2253 4666 
z
" transform="scale(0.015625)"/>
       </defs>
       <use xlink:href="#DejaVuSans-30"/>
       <use xlink:href="#DejaVuSans-2e" x="63.623047"/>
       <use xlink:href="#DejaVuSans-30" x="95.410156"/>
       <use xlink:href="#DejaVuSans-34" x="159.033203"/>
      </g>
     </g>
    </g>
    <g id="ytick_7">
     <g id="line2d_16">
      <g>
       <use xlink:href="#m906cd97b76" x="58.523438" y="65.607643" style="stroke: #000000; stroke-width: 0.8"/>
      </g>
     </g>
     <g id="text_17">
      <!-- 0.05 -->
      <g transform="translate(29.257813 69.406861) scale(0.1 -0.1)">
       <use xlink:href="#DejaVuSans-30"/>
       <use xlink:href="#DejaVuSans-2e" x="63.623047"/>
       <use xlink:href="#DejaVuSans-30" x="95.410156"/>
       <use xlink:href="#DejaVuSans-35" x="159.033203"/>
      </g>
     </g>
    </g>
    <g id="ytick_8">
     <g id="line2d_17">
      <g>
       <use xlink:href="#m906cd97b76" x="58.523438" y="32.205124" style="stroke: #000000; stroke-width: 0.8"/>
      </g>
     </g>
     <g id="text_18">
      <!-- 0.06 -->
      <g transform="translate(29.257813 36.004343) scale(0.1 -0.1)">
       <defs>
        <path id="DejaVuSans-36" d="M 2113 2584 
Q 1688 2584 1439 2293 
Q 1191 2003 1191 1497 
Q 1191 994 1439 701 
Q 1688 409 2113 409 
Q 2538 409 2786 701 
Q 3034 994 3034 1497 
Q 3034 2003 2786 2293 
Q 2538 2584 2113 2584 
z
M 3366 4563 
L 3366 3988 
Q 3128 4100 2886 4159 
Q 2644 4219 2406 4219 
Q 1781 4219 1451 3797 
Q 1122 3375 1075 2522 
Q 1259 2794 1537 2939 
Q 1816 3084 2150 3084 
Q 2853 3084 3261 2657 
Q 3669 2231 3669 1497 
Q 3669 778 3244 343 
Q 2819 -91 2113 -91 
Q 1303 -91 875 529 
Q 447 1150 447 2328 
Q 447 3434 972 4092 
Q 1497 4750 2381 4750 
Q 2619 4750 2861 4703 
Q 3103 4656 3366 4563 
z
" transform="scale(0.015625)"/>
       </defs>
       <use xlink:href="#DejaVuSans-30"/>
       <use xlink:href="#DejaVuSans-2e" x="63.623047"/>
       <use xlink:href="#DejaVuSans-30" x="95.410156"/>
       <use xlink:href="#DejaVuSans-36" x="159.033203"/>
      </g>
     </g>
    </g>
    <g id="text_19">
     <!-- Frequency -->
     <g transform="translate(14.798438 181.203812) rotate(-90) scale(0.1 -0.1)">
      <defs>
       <path id="DejaVuSans-46" d="M 628 4666 
L 3309 4666 
L 3309 4134 
L 1259 4134 
L 1259 2759 
L 3109 2759 
L 3109 2228 
L 1259 2228 
L 1259 0 
L 628 0 
L 628 4666 
z
" transform="scale(0.015625)"/>
       <path id="DejaVuSans-72" d="M 2631 2963 
Q 2534 3019 2420 3045 
Q 2306 3072 2169 3072 
Q 1681 3072 1420 2755 
Q 1159 2438 1159 1844 
L 1159 0 
L 581 0 
L 581 3500 
L 1159 3500 
L 1159 2956 
Q 1341 3275 1631 3429 
Q 1922 3584 2338 3584 
Q 2397 3584 2469 3576 
Q 2541 3569 2628 3553 
L 2631 2963 
z
" transform="scale(0.015625)"/>
       <path id="DejaVuSans-71" d="M 947 1747 
Q 947 1113 1208 752 
Q 1469 391 1925 391 
Q 2381 391 2643 752 
Q 2906 1113 2906 1747 
Q 2906 2381 2643 2742 
Q 2381 3103 1925 3103 
Q 1469 3103 1208 2742 
Q 947 2381 947 1747 
z
M 2906 525 
Q 2725 213 2448 61 
Q 2172 -91 1784 -91 
Q 1150 -91 751 415 
Q 353 922 353 1747 
Q 353 2572 751 3078 
Q 1150 3584 1784 3584 
Q 2172 3584 2448 3432 
Q 2725 3281 2906 2969 
L 2906 3500 
L 3481 3500 
L 3481 -1331 
L 2906 -1331 
L 2906 525 
z
" transform="scale(0.015625)"/>
       <path id="DejaVuSans-6e" d="M 3513 2113 
L 3513 0 
L 2938 0 
L 2938 2094 
Q 2938 2591 2744 2837 
Q 2550 3084 2163 3084 
Q 1697 3084 1428 2787 
Q 1159 2491 1159 1978 
L 1159 0 
L 581 0 
L 581 3500 
L 1159 3500 
L 1159 2956 
Q 1366 3272 1645 3428 
Q 1925 3584 2291 3584 
Q 2894 3584 3203 3211 
Q 3513 2838 3513 2113 
z
" transform="scale(0.015625)"/>
       <path id="DejaVuSans-63" d="M 3122 3366 
L 3122 2828 
Q 2878 2963 2633 3030 
Q 2388 3097 2138 3097 
Q 1578 3097 1268 2742 
Q 959 2388 959 1747 
Q 959 1106 1268 751 
Q 1578 397 2138 397 
Q 2388 397 2633 464 
Q 2878 531 3122 666 
L 3122 134 
Q 2881 22 2623 -34 
Q 2366 -91 2075 -91 
Q 1284 -91 818 406 
Q 353 903 353 1747 
Q 353 2603 823 3093 
Q 1294 3584 2113 3584 
Q 2378 3584 2631 3529 
Q 2884 3475 3122 3366 
z
" transform="scale(0.015625)"/>
       <path id="DejaVuSans-79" d="M 2059 -325 
Q 1816 -950 1584 -1140 
Q 1353 -1331 966 -1331 
L 506 -1331 
L 506 -850 
L 844 -850 
Q 1081 -850 1212 -737 
Q 1344 -625 1503 -206 
L 1606 56 
L 191 3500 
L 800 3500 
L 1894 763 
L 2988 3500 
L 3597 3500 
L 2059 -325 
z
" transform="scale(0.015625)"/>
      </defs>
      <use xlink:href="#DejaVuSans-46"/>
      <use xlink:href="#DejaVuSans-72" x="50.269531"/>
      <use xlink:href="#DejaVuSans-65" x="89.132812"/>
      <use xlink:href="#DejaVuSans-71" x="150.65625"/>
      <use xlink:href="#DejaVuSans-75" x="214.132812"/>
      <use xlink:href="#DejaVuSans-65" x="277.511719"/>
      <use xlink:href="#DejaVuSans-6e" x="339.035156"/>
      <use xlink:href="#DejaVuSans-63" x="402.414062"/>
      <use xlink:href="#DejaVuSans-79" x="457.394531"/>
     </g>
    </g>
   </g>
   <g id="line2d_18">
    <path d="M 74.756165 199.38487 
L 77.591094 201.673337 
L 80.426022 206.54507 
L 83.260951 212.710978 
L 86.09588 219.184818 
L 88.930809 225.238046 
L 91.765737 230.35923 
L 94.600666 234.217719 
L 97.435595 236.63128 
L 100.270524 237.537399 
L 103.105453 236.967988 
L 105.940381 235.027237 
L 108.77531 231.872358 
L 111.610239 227.696992 
L 114.445168 222.717044 
L 117.280096 217.158745 
L 120.115025 211.248736 
L 122.949954 205.205969 
L 125.784883 199.235268 
L 128.619811 193.522356 
L 131.45474 188.2302 
L 134.289669 183.49652 
L 137.124598 179.432318 
L 139.959527 176.121298 
L 142.794455 173.620042 
L 145.629384 171.958848 
L 148.464313 171.143093 
L 151.299242 171.155054 
L 154.13417 171.956066 
L 156.969099 173.488955 
L 159.804028 175.680659 
L 162.638957 178.444967 
L 165.473886 181.685319 
L 168.308814 185.297604 
L 171.143743 189.172914 
L 173.978672 193.200196 
L 176.813601 197.268785 
L 179.648529 201.27076 
L 182.483458 205.103117 
L 185.318387 208.669722 
L 188.153316 211.883036 
L 190.988245 214.665591 
L 193.823173 216.951208 
L 196.658102 218.685963 
L 199.493031 219.828877 
L 202.32796 220.352364 
L 205.162888 220.242405 
L 207.997817 219.498489 
L 210.832746 218.13331 
L 213.667675 232.610551 
L 216.502604 232.611056 
L 219.337532 209.283779 
L 222.172461 205.708936 
L 225.00739 201.820448 
L 227.842319 197.692724 
L 230.677247 193.402802 
L 233.512176 189.028966 
L 236.347105 184.64942 
L 239.182034 180.341058 
L 242.016962 176.178328 
L 244.851891 172.232192 
L 247.68682 168.569213 
L 250.521749 165.250746 
L 253.356678 162.332242 
L 256.191606 159.862671 
L 259.026535 157.884036 
L 261.861464 156.430994 
L 264.696393 155.530561 
L 267.531321 155.201882 
L 270.36625 155.456081 
L 273.201179 156.29615 
L 276.036108 157.716884 
L 278.871037 159.704843 
L 281.705965 162.238347 
L 284.540894 165.287478 
L 287.375823 168.814115 
L 290.210752 172.771983 
L 293.04568 177.106744 
L 295.880609 181.756143 
L 298.715538 186.650232 
L 301.550467 191.711716 
L 304.385396 196.856468 
L 307.220324 201.994264 
L 310.055253 207.029832 
L 312.890182 211.86428 
L 315.725111 216.397036 
L 318.560039 220.528407 
L 321.394968 224.16291 
L 324.229897 227.213552 
L 327.064826 229.607231 
L 329.899754 231.291504 
L 332.734683 232.242944 
L 335.569612 232.477384 
L 338.404541 232.062335 
L 341.23947 231.131946 
L 344.074398 229.904864 
L 346.909327 228.705427 
L 349.744256 227.988642 
L 352.579185 228.369458 
L 355.414113 230.656877 
" clip-path="url(#p94437a3502)" style="fill: none; stroke: #1f77b4; stroke-width: 1.5; stroke-linecap: square"/>
   </g>
   <g id="line2d_19">
    <path d="M 74.756165 158.510061 
L 77.249594 213.317628 
L 79.743023 246.137036 
L 82.236451 261.201359 
L 84.72988 262.342331 
L 87.223309 252.97968 
L 89.716738 236.120242 
L 92.210167 214.365221 
L 94.703596 189.924155 
L 97.197025 164.63425 
L 99.690454 139.983908 
L 102.183883 117.139372 
L 104.677312 96.973565 
L 107.170741 80.09626 
L 109.664169 66.88488 
L 112.157598 57.515274 
L 114.651027 51.991939 
L 117.144456 50.177226 
L 119.637885 51.819143 
L 122.131314 56.577463 
L 124.624743 64.047884 
L 127.118172 73.784056 
L 129.611601 85.317364 
L 132.10503 98.174379 
L 134.598459 111.891955 
L 137.091887 126.029969 
L 139.585316 140.181775 
L 142.078745 153.982414 
L 144.572174 167.114717 
L 147.065603 179.313404 
L 149.559032 190.367341 
L 152.052461 200.120099 
L 154.54589 208.469012 
L 157.039319 215.362889 
L 159.532748 220.798588 
L 162.026177 224.816629 
L 164.519605 227.496043 
L 167.013034 228.948643 
L 169.506463 229.312897 
L 171.999892 228.747574 
L 174.493321 227.425346 
L 176.98675 225.526477 
L 179.480179 223.232763 
L 181.973608 220.72184 
L 184.467037 218.161986 
L 186.960466 215.707494 
L 189.453895 213.494731 
L 191.947323 211.638914 
L 194.440752 210.231674 
L 196.934181 232.62187 
L 199.42761 232.621222 
L 201.921039 211.094751 
L 204.414468 211.796836 
L 206.907897 212.930857 
L 209.401326 214.450393 
L 211.894755 216.294536 
L 214.388184 218.390704 
L 216.881612 220.657721 
L 219.375041 223.009107 
L 221.86847 225.356471 
L 224.361899 227.612921 
L 226.855328 229.6964 
L 229.348757 231.53285 
L 231.842186 233.059109 
L 234.335615 234.225456 
L 236.829044 234.997717 
L 239.322473 235.358853 
L 241.815902 235.309957 
L 244.30933 234.870607 
L 246.802759 234.078525 
L 249.296188 232.9885 
L 251.789617 231.670582 
L 254.283046 230.207529 
L 256.776475 228.691544 
L 259.269904 227.220352 
L 261.763333 225.892695 
L 264.256762 224.803344 
L 266.750191 224.037781 
L 269.24362 223.666714 
L 271.737048 223.740646 
L 274.230477 224.284749 
L 276.723906 225.29434 
L 279.217335 226.731315 
L 281.710764 228.52192 
L 284.204193 230.556339 
L 286.697622 232.690575 
L 289.191051 234.751226 
L 291.68448 236.543771 
L 294.177909 237.865078 
L 296.671338 238.520914 
L 299.164766 238.349309 
L 301.658195 237.250695 
L 304.151624 235.225866 
L 306.645053 232.422834 
L 309.138482 229.193807 
L 311.631911 226.163568 
L 314.12534 224.310661 
L 316.618769 225.062887 
L 319.112198 230.408726 
L 321.605627 243.026412 
" clip-path="url(#p94437a3502)" style="fill: none; stroke: #ff7f0e; stroke-width: 1.5; stroke-linecap: square"/>
   </g>
   <g id="line2d_20">
    <path d="M 74.756165 83.536085 
L 78.035504 192.485591 
L 81.314842 252.395301 
L 84.594181 276.334125 
L 87.87352 274.916044 
L 91.152859 256.645387 
L 94.432198 228.225305 
L 97.711537 194.832369 
L 100.990876 160.360038 
L 104.270214 127.633604 
L 107.549553 98.599038 
L 110.828892 74.488064 
L 114.108231 55.96159 
L 117.38757 43.233536 
L 120.666909 36.176941 
L 123.946247 34.414125 
L 127.225586 37.392536 
L 130.504925 44.447838 
L 133.784264 54.855637 
L 137.063603 67.873182 
L 140.342942 82.772247 
L 143.62228 98.864317 
L 146.901619 115.519108 
L 150.180958 132.177366 
L 153.460297 148.358806 
L 156.739636 163.665963 
L 160.018975 177.784679 
L 163.298314 190.481852 
L 166.577652 201.601028 
L 169.856991 211.056331 
L 173.13633 218.825205 
L 176.415669 224.94034 
L 179.695008 229.481139 
L 182.974347 232.565032 
L 186.253685 234.338864 
L 189.533024 234.970593 
L 192.812363 234.641454 
L 196.091702 233.53874 
L 199.371041 231.849292 
L 202.65038 229.753787 
L 205.929718 227.421856 
L 209.209057 225.008086 
L 212.488396 222.648878 
L 215.767735 220.460171 
L 219.047074 218.535991 
L 222.326413 216.947775 
L 225.605752 215.744429 
L 228.88509 214.953038 
L 232.164429 214.580155 
L 235.443768 232.620902 
L 238.723107 232.620072 
L 242.002446 216.887003 
L 245.281785 217.903647 
L 248.561123 219.082315 
L 251.840462 220.359331 
L 255.119801 221.671236 
L 258.39914 222.957371 
L 261.678479 224.162203 
L 264.957818 225.237318 
L 268.237157 226.143056 
L 271.516495 226.849734 
L 274.795834 227.338456 
L 278.075173 227.601483 
L 281.354512 227.642169 
L 284.633851 227.474478 
L 287.91319 227.122105 
L 291.192528 226.617224 
L 294.471867 225.998922 
L 297.751206 225.311367 
L 301.030545 224.601757 
L 304.309884 223.918146 
L 307.589223 223.307198 
L 310.868561 222.811961 
L 314.1479 222.469738 
L 317.427239 222.310144 
L 320.706578 222.353429 
L 323.985917 222.609153 
L 327.265256 223.075285 
L 330.544595 223.737798 
L 333.823933 224.570824 
L 337.103272 225.537414 
L 340.382611 226.590939 
L 343.66195 227.677149 
L 346.941289 228.736881 
L 350.220628 229.709396 
L 353.499966 230.536283 
L 356.779305 231.165839 
L 360.058644 231.557814 
L 363.337983 231.68835 
L 366.617322 231.554914 
L 369.896661 231.180974 
L 373.175999 230.620122 
L 376.455338 229.959265 
L 379.734677 229.320496 
L 383.014016 228.86113 
L 386.293355 228.771376 
L 389.572694 229.268987 
L 392.852033 230.590209 
L 396.131371 232.976194 
L 399.41071 236.654018 
" clip-path="url(#p94437a3502)" style="fill: none; stroke: #2ca02c; stroke-width: 1.5; stroke-linecap: square"/>
   </g>
   <g id="line2d_21">
    <path d="M 74.756165 162.453628 
L 77.76669 198.978394 
L 80.777214 226.995849 
L 83.787739 245.630815 
L 86.798264 254.8921 
L 89.808789 255.427858 
L 92.819314 248.322337 
L 95.829839 234.929262 
L 98.840364 216.737474 
L 101.850888 195.264777 
L 104.861413 171.976307 
L 107.871938 148.224034 
L 110.882463 125.204299 
L 113.892988 103.930617 
L 116.903513 85.219175 
L 119.914038 69.684782 
L 122.924562 57.745209 
L 125.935087 49.632106 
L 128.945612 45.406903 
L 131.956137 44.980262 
L 134.966662 48.133873 
L 137.977187 54.543524 
L 140.987711 63.802548 
L 143.998236 75.4449 
L 147.008761 88.967223 
L 150.019286 103.849436 
L 153.029811 119.573422 
L 156.040336 135.639564 
L 159.050861 151.580906 
L 162.061385 166.974851 
L 165.07191 181.452339 
L 168.082435 194.704536 
L 171.09296 206.487113 
L 174.103485 216.622229 
L 177.11401 224.998405 
L 180.124534 231.568463 
L 183.135059 236.345759 
L 186.145584 239.39896 
L 189.156109 240.845607 
L 192.166634 240.844726 
L 195.177159 239.588753 
L 198.187684 237.295034 
L 201.198208 234.197138 
L 204.208733 230.536247 
L 207.219258 226.552817 
L 210.229783 222.478754 
L 213.240308 218.530248 
L 216.250833 214.901466 
L 219.261358 211.759213 
L 222.271882 232.623756 
L 225.282407 232.6237 
L 228.292932 207.20487 
L 231.303457 206.726925 
L 234.313982 207.020404 
L 237.324507 208.055147 
L 240.335031 209.770321 
L 243.345556 212.077688 
L 246.356081 214.865724 
L 249.366606 218.004477 
L 252.377131 221.351014 
L 255.387656 224.755294 
L 258.398181 228.06631 
L 261.408705 231.138298 
L 264.41923 233.836829 
L 267.429755 236.04458 
L 270.44028 237.666587 
L 273.450805 238.634783 
L 276.46133 238.911629 
L 279.471854 238.492667 
L 282.482379 237.407829 
L 285.492904 235.721379 
L 288.503429 233.530371 
L 291.513954 230.961559 
L 294.524479 228.166735 
L 297.535004 225.316514 
L 300.545528 222.592645 
L 303.556053 220.178994 
L 306.566578 218.251414 
L 309.577103 216.966801 
L 312.587628 216.451712 
L 315.598153 216.791044 
L 318.608678 218.017358 
L 321.619202 220.101545 
L 324.629727 222.945695 
L 327.640252 226.379121 
L 330.650777 230.158661 
L 333.661302 233.97455 
L 336.671827 237.463302 
L 339.682351 240.229236 
L 342.692876 241.876473 
L 345.703401 242.053435 
L 348.713926 240.512103 
L 351.724451 237.184509 
L 354.734976 232.279193 
L 357.745501 226.400617 
L 360.756025 220.69479 
L 363.76655 217.024654 
L 366.777075 218.179082 
L 369.7876 228.119649 
L 372.798125 252.269678 
" clip-path="url(#p94437a3502)" style="fill: none; stroke: #d62728; stroke-width: 1.5; stroke-linecap: square"/>
   </g>
   <g id="line2d_22">
    <path d="M 74.756165 167.151084 
L 77.546752 200.682666 
L 80.33734 224.5395 
L 83.127928 239.48112 
L 85.918515 246.526275 
L 88.709103 246.849895 
L 91.49969 241.699443 
L 94.290278 232.328298 
L 97.080866 219.944047 
L 99.871453 205.669691 
L 102.662041 190.515986 
L 105.452628 175.363247 
L 108.243216 160.951148 
L 111.033804 147.875139 
L 113.824391 136.588286 
L 116.614979 127.407421 
L 119.405566 120.522641 
L 122.196154 116.00929 
L 124.986742 113.841672 
L 127.777329 113.907825 
L 130.567917 116.024802 
L 133.358504 119.953955 
L 136.149092 125.415839 
L 138.93968 132.10438 
L 141.730267 139.700051 
L 144.520855 147.881847 
L 147.311442 156.3379 
L 150.10203 164.774629 
L 152.892618 172.924381 
L 155.683205 180.551516 
L 158.473793 187.456984 
L 161.26438 193.481407 
L 164.054968 198.506757 
L 166.845556 202.456723 
L 169.636143 205.295871 
L 172.426731 207.027724 
L 175.217318 207.691904 
L 178.007906 207.360485 
L 180.798494 206.133692 
L 183.589081 204.13511 
L 186.379669 201.506554 
L 189.170256 198.402745 
L 191.960844 194.985931 
L 194.751432 191.420594 
L 197.542019 187.868375 
L 200.332607 184.483308 
L 203.123194 181.407504 
L 205.913782 178.767335 
L 208.70437 176.670224 
L 211.494957 232.616521 
L 214.285545 232.61672 
L 217.076132 174.425284 
L 219.86672 174.992713 
L 222.657308 176.292641 
L 225.447895 178.29579 
L 228.238483 180.950911 
L 231.02907 184.186883 
L 233.819658 187.915379 
L 236.610246 192.034004 
L 239.400833 196.429845 
L 242.191421 200.983326 
L 244.982008 205.572257 
L 247.772596 210.07598 
L 250.563184 214.379485 
L 253.353771 218.377378 
L 256.144359 221.977577 
L 258.934946 225.104612 
L 261.725534 227.702424 
L 264.516122 229.736528 
L 267.306709 231.195466 
L 270.097297 232.091436 
L 272.887884 232.460037 
L 275.678472 232.359075 
L 278.46906 231.866397 
L 281.259647 231.076745 
L 284.050235 230.097671 
L 286.840823 229.044561 
L 289.63141 228.034887 
L 292.421998 227.181818 
L 295.212585 226.587414 
L 298.003173 226.335625 
L 300.793761 226.485442 
L 303.584348 227.064546 
L 306.374936 228.063939 
L 309.165523 229.434058 
L 311.956111 231.082994 
L 314.746699 232.877524 
L 317.537286 234.647739 
L 320.327874 236.196171 
L 323.118461 237.312432 
L 325.909049 237.794489 
L 328.699637 237.477813 
L 331.490224 236.273796 
L 334.280812 234.218936 
L 337.071399 231.536469 
L 339.861987 228.71226 
L 342.652575 226.586921 
L 345.443162 226.466326 
L 348.23375 230.25284 
L 351.024337 240.599774 
" clip-path="url(#p94437a3502)" style="fill: none; stroke: #9467bd; stroke-width: 1.5; stroke-linecap: square"/>
   </g>
   <g id="line2d_23">
    <path d="M 74.756165 160.197456 
L 77.362889 182.940464 
L 79.969613 207.211835 
L 82.576338 228.787784 
L 85.183062 245.05969 
L 87.789786 254.673874 
L 90.39651 257.226384 
L 93.003235 253.006843 
L 95.609959 242.785865 
L 98.216683 227.640965 
L 100.823407 208.816282 
L 103.430132 187.611833 
L 106.036856 165.298348 
L 108.64358 143.054119 
L 111.250304 121.920573 
L 113.857029 102.773634 
L 116.463753 86.308193 
L 119.070477 73.033301 
L 121.677201 63.275933 
L 124.283926 57.191438 
L 126.89065 54.779004 
L 129.497374 55.900656 
L 132.104099 60.302545 
L 134.710823 67.637423 
L 137.317547 77.487396 
L 139.924271 89.386182 
L 142.530996 102.840263 
L 145.13772 117.348423 
L 147.744444 132.419307 
L 150.351168 147.586726 
L 152.957893 162.422532 
L 155.564617 176.54697 
L 158.171341 189.636499 
L 160.778065 201.429118 
L 163.38479 211.727303 
L 165.991514 220.398719 
L 168.598238 227.374869 
L 171.204962 232.64793 
L 173.811687 236.265993 
L 176.418411 238.326984 
L 179.025135 238.971527 
L 181.631859 238.375028 
L 184.238584 236.739243 
L 186.845308 234.283617 
L 189.452032 231.236618 
L 192.058757 227.827336 
L 194.665481 224.277553 
L 197.272205 220.794477 
L 199.878929 217.564336 
L 202.485654 232.622815 
L 205.092378 232.623559 
L 207.699102 210.081825 
L 210.305826 208.777278 
L 212.912551 208.241662 
L 215.519275 208.476217 
L 218.125999 209.446023 
L 220.732723 211.082605 
L 223.339448 213.287662 
L 225.946172 215.937826 
L 228.552896 218.890277 
L 231.15962 221.989072 
L 233.766345 225.071971 
L 236.373069 227.977558 
L 238.979793 230.552426 
L 241.586517 232.658185 
L 244.193242 234.178048 
L 246.799966 235.022752 
L 249.40669 235.135557 
L 252.013415 234.496112 
L 254.620139 233.122949 
L 257.226863 231.074439 
L 259.833587 228.448026 
L 262.440312 225.377638 
L 265.047036 222.029192 
L 267.65376 218.594183 
L 270.260484 215.281412 
L 272.867209 212.306967 
L 275.473933 209.88269 
L 278.080657 208.20342 
L 280.687381 207.433457 
L 283.294106 207.692753 
L 285.90083 209.043535 
L 288.507554 211.478156 
L 291.114278 214.909145 
L 293.721003 219.162623 
L 296.327727 223.976383 
L 298.934451 229.004197 
L 301.541175 233.828068 
L 304.1479 237.980417 
L 306.754624 240.978414 
L 309.361348 242.372947 
L 311.968073 241.814977 
L 314.574797 239.142349 
L 317.181521 234.490411 
L 319.788245 228.430162 
L 322.39497 222.137974 
L 325.001694 217.601303 
L 327.608418 217.865211 
L 330.215142 227.32491 
L 332.821867 252.069981 
" clip-path="url(#p94437a3502)" style="fill: none; stroke: #8c564b; stroke-width: 1.5; stroke-linecap: square"/>
   </g>
   <g id="patch_3">
    <path d="M 58.523438 288.430125 
L 58.523438 22.318125 
" style="fill: none; stroke: #000000; stroke-width: 0.8; stroke-linejoin: miter; stroke-linecap: square"/>
   </g>
   <g id="patch_4">
    <path d="M 415.643438 288.430125 
L 415.643438 22.318125 
" style="fill: none; stroke: #000000; stroke-width: 0.8; stroke-linejoin: miter; stroke-linecap: square"/>
   </g>
   <g id="patch_5">
    <path d="M 58.523438 288.430125 
L 415.643438 288.430125 
" style="fill: none; stroke: #000000; stroke-width: 0.8; stroke-linejoin: miter; stroke-linecap: square"/>
   </g>
   <g id="patch_6">
    <path d="M 58.523438 22.318125 
L 415.643438 22.318125 
" style="fill: none; stroke: #000000; stroke-width: 0.8; stroke-linejoin: miter; stroke-linecap: square"/>
   </g>
   <g id="text_20">
    <!-- RD - xtract_prob_Frontal_Aslant_Tract_R -->
    <g transform="translate(118.007812 16.318125) scale(0.12 -0.12)">
     <defs>
      <path id="DejaVuSans-52" d="M 2841 2188 
Q 3044 2119 3236 1894 
Q 3428 1669 3622 1275 
L 4263 0 
L 3584 0 
L 2988 1197 
Q 2756 1666 2539 1819 
Q 2322 1972 1947 1972 
L 1259 1972 
L 1259 0 
L 628 0 
L 628 4666 
L 2053 4666 
Q 2853 4666 3247 4331 
Q 3641 3997 3641 3322 
Q 3641 2881 3436 2590 
Q 3231 2300 2841 2188 
z
M 1259 4147 
L 1259 2491 
L 2053 2491 
Q 2509 2491 2742 2702 
Q 2975 2913 2975 3322 
Q 2975 3731 2742 3939 
Q 2509 4147 2053 4147 
L 1259 4147 
z
" transform="scale(0.015625)"/>
      <path id="DejaVuSans-44" d="M 1259 4147 
L 1259 519 
L 2022 519 
Q 2988 519 3436 956 
Q 3884 1394 3884 2338 
Q 3884 3275 3436 3711 
Q 2988 4147 2022 4147 
L 1259 4147 
z
M 628 4666 
L 1925 4666 
Q 3281 4666 3915 4102 
Q 4550 3538 4550 2338 
Q 4550 1131 3912 565 
Q 3275 0 1925 0 
L 628 0 
L 628 4666 
z
" transform="scale(0.015625)"/>
      <path id="DejaVuSans-2d" d="M 313 2009 
L 1997 2009 
L 1997 1497 
L 313 1497 
L 313 2009 
z
" transform="scale(0.015625)"/>
      <path id="DejaVuSans-74" d="M 1172 4494 
L 1172 3500 
L 2356 3500 
L 2356 3053 
L 1172 3053 
L 1172 1153 
Q 1172 725 1289 603 
Q 1406 481 1766 481 
L 2356 481 
L 2356 0 
L 1766 0 
Q 1100 0 847 248 
Q 594 497 594 1153 
L 594 3053 
L 172 3053 
L 172 3500 
L 594 3500 
L 594 4494 
L 1172 4494 
z
" transform="scale(0.015625)"/>
      <path id="DejaVuSans-5f" d="M 3263 -1063 
L 3263 -1509 
L -63 -1509 
L -63 -1063 
L 3263 -1063 
z
" transform="scale(0.015625)"/>
      <path id="DejaVuSans-70" d="M 1159 525 
L 1159 -1331 
L 581 -1331 
L 581 3500 
L 1159 3500 
L 1159 2969 
Q 1341 3281 1617 3432 
Q 1894 3584 2278 3584 
Q 2916 3584 3314 3078 
Q 3713 2572 3713 1747 
Q 3713 922 3314 415 
Q 2916 -91 2278 -91 
Q 1894 -91 1617 61 
Q 1341 213 1159 525 
z
M 3116 1747 
Q 3116 2381 2855 2742 
Q 2594 3103 2138 3103 
Q 1681 3103 1420 2742 
Q 1159 2381 1159 1747 
Q 1159 1113 1420 752 
Q 1681 391 2138 391 
Q 2594 391 2855 752 
Q 3116 1113 3116 1747 
z
" transform="scale(0.015625)"/>
      <path id="DejaVuSans-6f" d="M 1959 3097 
Q 1497 3097 1228 2736 
Q 959 2375 959 1747 
Q 959 1119 1226 758 
Q 1494 397 1959 397 
Q 2419 397 2687 759 
Q 2956 1122 2956 1747 
Q 2956 2369 2687 2733 
Q 2419 3097 1959 3097 
z
M 1959 3584 
Q 2709 3584 3137 3096 
Q 3566 2609 3566 1747 
Q 3566 888 3137 398 
Q 2709 -91 1959 -91 
Q 1206 -91 779 398 
Q 353 888 353 1747 
Q 353 2609 779 3096 
Q 1206 3584 1959 3584 
z
" transform="scale(0.015625)"/>
      <path id="DejaVuSans-62" d="M 3116 1747 
Q 3116 2381 2855 2742 
Q 2594 3103 2138 3103 
Q 1681 3103 1420 2742 
Q 1159 2381 1159 1747 
Q 1159 1113 1420 752 
Q 1681 391 2138 391 
Q 2594 391 2855 752 
Q 3116 1113 3116 1747 
z
M 1159 2969 
Q 1341 3281 1617 3432 
Q 1894 3584 2278 3584 
Q 2916 3584 3314 3078 
Q 3713 2572 3713 1747 
Q 3713 922 3314 415 
Q 2916 -91 2278 -91 
Q 1894 -91 1617 61 
Q 1341 213 1159 525 
L 1159 0 
L 581 0 
L 581 4863 
L 1159 4863 
L 1159 2969 
z
" transform="scale(0.015625)"/>
      <path id="DejaVuSans-41" d="M 2188 4044 
L 1331 1722 
L 3047 1722 
L 2188 4044 
z
M 1831 4666 
L 2547 4666 
L 4325 0 
L 3669 0 
L 3244 1197 
L 1141 1197 
L 716 0 
L 50 0 
L 1831 4666 
z
" transform="scale(0.015625)"/>
      <path id="DejaVuSans-54" d="M -19 4666 
L 3928 4666 
L 3928 4134 
L 2272 4134 
L 2272 0 
L 1638 0 
L 1638 4134 
L -19 4134 
L -19 4666 
z
" transform="scale(0.015625)"/>
     </defs>
     <use xlink:href="#DejaVuSans-52"/>
     <use xlink:href="#DejaVuSans-44" x="69.482422"/>
     <use xlink:href="#DejaVuSans-20" x="146.484375"/>
     <use xlink:href="#DejaVuSans-2d" x="178.271484"/>
     <use xlink:href="#DejaVuSans-20" x="214.355469"/>
     <use xlink:href="#DejaVuSans-78" x="246.142578"/>
     <use xlink:href="#DejaVuSans-74" x="305.322266"/>
     <use xlink:href="#DejaVuSans-72" x="344.53125"/>
     <use xlink:href="#DejaVuSans-61" x="385.644531"/>
     <use xlink:href="#DejaVuSans-63" x="446.923828"/>
     <use xlink:href="#DejaVuSans-74" x="501.904297"/>
     <use xlink:href="#DejaVuSans-5f" x="541.113281"/>
     <use xlink:href="#DejaVuSans-70" x="591.113281"/>
     <use xlink:href="#DejaVuSans-72" x="654.589844"/>
     <use xlink:href="#DejaVuSans-6f" x="693.453125"/>
     <use xlink:href="#DejaVuSans-62" x="754.634766"/>
     <use xlink:href="#DejaVuSans-5f" x="818.111328"/>
     <use xlink:href="#DejaVuSans-46" x="868.111328"/>
     <use xlink:href="#DejaVuSans-72" x="918.380859"/>
     <use xlink:href="#DejaVuSans-6f" x="957.244141"/>
     <use xlink:href="#DejaVuSans-6e" x="1018.425781"/>
     <use xlink:href="#DejaVuSans-74" x="1081.804688"/>
     <use xlink:href="#DejaVuSans-61" x="1121.013672"/>
     <use xlink:href="#DejaVuSans-6c" x="1182.292969"/>
     <use xlink:href="#DejaVuSans-5f" x="1210.076172"/>
     <use xlink:href="#DejaVuSans-41" x="1260.076172"/>
     <use xlink:href="#DejaVuSans-73" x="1328.484375"/>
     <use xlink:href="#DejaVuSans-6c" x="1380.583984"/>
     <use xlink:href="#DejaVuSans-61" x="1408.367188"/>
     <use xlink:href="#DejaVuSans-6e" x="1469.646484"/>
     <use xlink:href="#DejaVuSans-74" x="1533.025391"/>
     <use xlink:href="#DejaVuSans-5f" x="1572.234375"/>
     <use xlink:href="#DejaVuSans-54" x="1622.234375"/>
     <use xlink:href="#DejaVuSans-72" x="1668.568359"/>
     <use xlink:href="#DejaVuSans-61" x="1709.681641"/>
     <use xlink:href="#DejaVuSans-63" x="1770.960938"/>
     <use xlink:href="#DejaVuSans-74" x="1825.941406"/>
     <use xlink:href="#DejaVuSans-5f" x="1865.150391"/>
     <use xlink:href="#DejaVuSans-52" x="1915.150391"/>
    </g>
   </g>
   <g id="legend_1">
    <g id="patch_7">
     <path d="M 458.355438 146.666825 
L 556.211688 146.666825 
Q 558.211688 146.666825 558.211688 144.666825 
L 558.211688 55.929325 
Q 558.211688 53.929325 556.211688 53.929325 
L 458.355438 53.929325 
Q 456.355438 53.929325 456.355438 55.929325 
L 456.355438 144.666825 
Q 456.355438 146.666825 458.355438 146.666825 
z
" style="fill: #ffffff; opacity: 0.8; stroke: #cccccc; stroke-linejoin: miter"/>
    </g>
    <g id="line2d_24">
     <path d="M 460.355438 62.027762 
L 470.355438 62.027762 
L 480.355438 62.027762 
" style="fill: none; stroke: #1f77b4; stroke-width: 1.5; stroke-linecap: square"/>
    </g>
    <g id="text_21">
     <!-- 20_06_02_E3 -->
     <g transform="translate(488.355438 65.527762) scale(0.1 -0.1)">
      <defs>
       <path id="DejaVuSans-45" d="M 628 4666 
L 3578 4666 
L 3578 4134 
L 1259 4134 
L 1259 2753 
L 3481 2753 
L 3481 2222 
L 1259 2222 
L 1259 531 
L 3634 531 
L 3634 0 
L 628 0 
L 628 4666 
z
" transform="scale(0.015625)"/>
      </defs>
      <use xlink:href="#DejaVuSans-32"/>
      <use xlink:href="#DejaVuSans-30" x="63.623047"/>
      <use xlink:href="#DejaVuSans-5f" x="127.246094"/>
      <use xlink:href="#DejaVuSans-30" x="177.246094"/>
      <use xlink:href="#DejaVuSans-36" x="240.869141"/>
      <use xlink:href="#DejaVuSans-5f" x="304.492188"/>
      <use xlink:href="#DejaVuSans-30" x="354.492188"/>
      <use xlink:href="#DejaVuSans-32" x="418.115234"/>
      <use xlink:href="#DejaVuSans-5f" x="481.738281"/>
      <use xlink:href="#DejaVuSans-45" x="531.738281"/>
      <use xlink:href="#DejaVuSans-33" x="594.921875"/>
     </g>
    </g>
    <g id="line2d_25">
     <path d="M 460.355438 76.984013 
L 470.355438 76.984013 
L 480.355438 76.984013 
" style="fill: none; stroke: #ff7f0e; stroke-width: 1.5; stroke-linecap: square"/>
    </g>
    <g id="text_22">
     <!-- 20_05_01_E3 -->
     <g transform="translate(488.355438 80.484013) scale(0.1 -0.1)">
      <use xlink:href="#DejaVuSans-32"/>
      <use xlink:href="#DejaVuSans-30" x="63.623047"/>
      <use xlink:href="#DejaVuSans-5f" x="127.246094"/>
      <use xlink:href="#DejaVuSans-30" x="177.246094"/>
      <use xlink:href="#DejaVuSans-35" x="240.869141"/>
      <use xlink:href="#DejaVuSans-5f" x="304.492188"/>
      <use xlink:href="#DejaVuSans-30" x="354.492188"/>
      <use xlink:href="#DejaVuSans-31" x="418.115234"/>
      <use xlink:href="#DejaVuSans-5f" x="481.738281"/>
      <use xlink:href="#DejaVuSans-45" x="531.738281"/>
      <use xlink:href="#DejaVuSans-33" x="594.921875"/>
     </g>
    </g>
    <g id="line2d_26">
     <path d="M 460.355438 91.940262 
L 470.355438 91.940262 
L 480.355438 91.940262 
" style="fill: none; stroke: #2ca02c; stroke-width: 1.5; stroke-linecap: square"/>
    </g>
    <g id="text_23">
     <!-- 20_02_02_E3 -->
     <g transform="translate(488.355438 95.440262) scale(0.1 -0.1)">
      <use xlink:href="#DejaVuSans-32"/>
      <use xlink:href="#DejaVuSans-30" x="63.623047"/>
      <use xlink:href="#DejaVuSans-5f" x="127.246094"/>
      <use xlink:href="#DejaVuSans-30" x="177.246094"/>
      <use xlink:href="#DejaVuSans-32" x="240.869141"/>
      <use xlink:href="#DejaVuSans-5f" x="304.492188"/>
      <use xlink:href="#DejaVuSans-30" x="354.492188"/>
      <use xlink:href="#DejaVuSans-32" x="418.115234"/>
      <use xlink:href="#DejaVuSans-5f" x="481.738281"/>
      <use xlink:href="#DejaVuSans-45" x="531.738281"/>
      <use xlink:href="#DejaVuSans-33" x="594.921875"/>
     </g>
    </g>
    <g id="line2d_27">
     <path d="M 460.355438 106.896513 
L 470.355438 106.896513 
L 480.355438 106.896513 
" style="fill: none; stroke: #d62728; stroke-width: 1.5; stroke-linecap: square"/>
    </g>
    <g id="text_24">
     <!-- 20_10_02_E3 -->
     <g transform="translate(488.355438 110.396513) scale(0.1 -0.1)">
      <use xlink:href="#DejaVuSans-32"/>
      <use xlink:href="#DejaVuSans-30" x="63.623047"/>
      <use xlink:href="#DejaVuSans-5f" x="127.246094"/>
      <use xlink:href="#DejaVuSans-31" x="177.246094"/>
      <use xlink:href="#DejaVuSans-30" x="240.869141"/>
      <use xlink:href="#DejaVuSans-5f" x="304.492188"/>
      <use xlink:href="#DejaVuSans-30" x="354.492188"/>
      <use xlink:href="#DejaVuSans-32" x="418.115234"/>
      <use xlink:href="#DejaVuSans-5f" x="481.738281"/>
      <use xlink:href="#DejaVuSans-45" x="531.738281"/>
      <use xlink:href="#DejaVuSans-33" x="594.921875"/>
     </g>
    </g>
    <g id="line2d_28">
     <path d="M 460.355438 121.852762 
L 470.355438 121.852762 
L 480.355438 121.852762 
" style="fill: none; stroke: #9467bd; stroke-width: 1.5; stroke-linecap: square"/>
    </g>
    <g id="text_25">
     <!-- 20_08_02_E3 -->
     <g transform="translate(488.355438 125.352762) scale(0.1 -0.1)">
      <defs>
       <path id="DejaVuSans-38" d="M 2034 2216 
Q 1584 2216 1326 1975 
Q 1069 1734 1069 1313 
Q 1069 891 1326 650 
Q 1584 409 2034 409 
Q 2484 409 2743 651 
Q 3003 894 3003 1313 
Q 3003 1734 2745 1975 
Q 2488 2216 2034 2216 
z
M 1403 2484 
Q 997 2584 770 2862 
Q 544 3141 544 3541 
Q 544 4100 942 4425 
Q 1341 4750 2034 4750 
Q 2731 4750 3128 4425 
Q 3525 4100 3525 3541 
Q 3525 3141 3298 2862 
Q 3072 2584 2669 2484 
Q 3125 2378 3379 2068 
Q 3634 1759 3634 1313 
Q 3634 634 3220 271 
Q 2806 -91 2034 -91 
Q 1263 -91 848 271 
Q 434 634 434 1313 
Q 434 1759 690 2068 
Q 947 2378 1403 2484 
z
M 1172 3481 
Q 1172 3119 1398 2916 
Q 1625 2713 2034 2713 
Q 2441 2713 2670 2916 
Q 2900 3119 2900 3481 
Q 2900 3844 2670 4047 
Q 2441 4250 2034 4250 
Q 1625 4250 1398 4047 
Q 1172 3844 1172 3481 
z
" transform="scale(0.015625)"/>
      </defs>
      <use xlink:href="#DejaVuSans-32"/>
      <use xlink:href="#DejaVuSans-30" x="63.623047"/>
      <use xlink:href="#DejaVuSans-5f" x="127.246094"/>
      <use xlink:href="#DejaVuSans-30" x="177.246094"/>
      <use xlink:href="#DejaVuSans-38" x="240.869141"/>
      <use xlink:href="#DejaVuSans-5f" x="304.492188"/>
      <use xlink:href="#DejaVuSans-30" x="354.492188"/>
      <use xlink:href="#DejaVuSans-32" x="418.115234"/>
      <use xlink:href="#DejaVuSans-5f" x="481.738281"/>
      <use xlink:href="#DejaVuSans-45" x="531.738281"/>
      <use xlink:href="#DejaVuSans-33" x="594.921875"/>
     </g>
    </g>
    <g id="line2d_29">
     <path d="M 460.355438 136.809012 
L 470.355438 136.809012 
L 480.355438 136.809012 
" style="fill: none; stroke: #8c564b; stroke-width: 1.5; stroke-linecap: square"/>
    </g>
    <g id="text_26">
     <!-- 20_11_02_E3 -->
     <g transform="translate(488.355438 140.309012) scale(0.1 -0.1)">
      <use xlink:href="#DejaVuSans-32"/>
      <use xlink:href="#DejaVuSans-30" x="63.623047"/>
      <use xlink:href="#DejaVuSans-5f" x="127.246094"/>
      <use xlink:href="#DejaVuSans-31" x="177.246094"/>
      <use xlink:href="#DejaVuSans-31" x="240.869141"/>
      <use xlink:href="#DejaVuSans-5f" x="304.492188"/>
      <use xlink:href="#DejaVuSans-30" x="354.492188"/>
      <use xlink:href="#DejaVuSans-32" x="418.115234"/>
      <use xlink:href="#DejaVuSans-5f" x="481.738281"/>
      <use xlink:href="#DejaVuSans-45" x="531.738281"/>
      <use xlink:href="#DejaVuSans-33" x="594.921875"/>
     </g>
    </g>
   </g>
  </g>
 </g>
 <defs>
  <clipPath id="p94437a3502">
   <rect x="58.523438" y="22.318125" width="357.12" height="266.112"/>
  </clipPath>
 </defs>
</svg>
