<?xml version="1.0" encoding="utf-8" standalone="no"?>
<!DOCTYPE svg PUBLIC "-//W3C//DTD SVG 1.1//EN"
  "http://www.w3.org/Graphics/SVG/1.1/DTD/svg11.dtd">
<svg xmlns:xlink="http://www.w3.org/1999/xlink" width="557.032pt" height="325.986375pt" viewBox="0 0 557.032 325.986375" xmlns="http://www.w3.org/2000/svg" version="1.1">
 <metadata>
  <rdf:RDF xmlns:dc="http://purl.org/dc/elements/1.1/" xmlns:cc="http://creativecommons.org/ns#" xmlns:rdf="http://www.w3.org/1999/02/22-rdf-syntax-ns#">
   <cc:Work>
    <dc:type rdf:resource="http://purl.org/dc/dcmitype/StillImage"/>
    <dc:date>2023-02-07T22:59:59.388467</dc:date>
    <dc:format>image/svg+xml</dc:format>
    <dc:creator>
     <cc:Agent>
      <dc:title>Matplotlib v3.6.2, https://matplotlib.org/</dc:title>
     </cc:Agent>
    </dc:creator>
   </cc:Work>
  </rdf:RDF>
 </metadata>
 <defs>
  <style type="text/css">*{stroke-linejoin: round; stroke-linecap: butt}</style>
 </defs>
 <g id="figure_1">
  <g id="patch_1">
   <path d="M 0 325.986375 
L 557.032 325.986375 
L 557.032 0 
L 0 0 
z
" style="fill: #ffffff"/>
  </g>
  <g id="axes_1">
   <g id="patch_2">
    <path d="M 50.14375 288.430125 
L 407.26375 288.430125 
L 407.26375 22.318125 
L 50.14375 22.318125 
z
" style="fill: #ffffff"/>
   </g>
   <g id="PolyCollection_1">
    <path d="M 66.376477 268.922608 
L 66.376477 266.159172 
L 69.491208 266.159172 
L 72.605939 266.159172 
L 75.72067 266.159172 
L 78.835401 266.159172 
L 81.950132 266.159172 
L 85.064862 266.159172 
L 88.179593 266.159172 
L 91.294324 266.159172 
L 94.409055 266.159172 
L 97.523786 266.159172 
L 100.638517 266.159172 
L 103.753248 266.159172 
L 106.867979 266.159172 
L 109.982709 266.159172 
L 113.09744 266.159172 
L 116.212171 266.159172 
L 119.326902 266.159172 
L 122.441633 266.159172 
L 125.556364 266.159172 
L 128.671095 266.159172 
L 131.785825 266.159172 
L 134.900556 266.159172 
L 138.015287 266.159172 
L 141.130018 266.159172 
L 144.244749 266.159172 
L 147.35948 266.159172 
L 150.474211 266.159172 
L 153.588942 266.159172 
L 156.703672 266.159172 
L 159.818403 266.159172 
L 162.933134 266.159172 
L 166.047865 266.159172 
L 169.162596 266.159172 
L 172.277327 266.159172 
L 175.392058 266.159172 
L 178.506788 266.159172 
L 181.621519 266.159172 
L 184.73625 266.159172 
L 187.850981 266.159172 
L 190.965712 266.159172 
L 194.080443 266.159172 
L 197.195174 266.159172 
L 200.309905 266.159172 
L 203.424635 266.159172 
L 206.539366 266.159172 
L 209.654097 266.159172 
L 212.768828 266.159172 
L 215.883559 266.159172 
L 218.99829 266.159172 
L 222.113021 266.159172 
L 225.227751 266.159172 
L 228.342482 266.159172 
L 231.457213 266.159172 
L 234.571944 266.159172 
L 237.686675 266.159172 
L 240.801406 266.159172 
L 243.916137 266.159172 
L 247.030868 266.159172 
L 250.145598 266.159172 
L 253.260329 266.159172 
L 256.37506 266.159172 
L 259.489791 266.159172 
L 262.604522 266.159172 
L 265.719253 266.159172 
L 268.833984 266.159172 
L 271.948715 266.159172 
L 275.063445 266.159172 
L 278.178176 266.159172 
L 281.292907 266.159172 
L 284.407638 266.159172 
L 287.522369 266.159172 
L 290.6371 266.159172 
L 293.751831 266.159172 
L 296.866561 266.159172 
L 299.981292 266.159172 
L 303.096023 266.159172 
L 306.210754 266.159172 
L 309.325485 266.159172 
L 312.440216 266.159172 
L 315.554947 266.159172 
L 318.669678 266.159172 
L 321.784408 266.159172 
L 324.899139 266.159172 
L 328.01387 266.159172 
L 331.128601 266.159172 
L 334.243332 266.159172 
L 337.358063 266.159172 
L 340.472794 266.159172 
L 343.587524 266.159172 
L 346.702255 266.159172 
L 349.816986 266.159172 
L 352.931717 266.159172 
L 356.046448 266.159172 
L 359.161179 266.159172 
L 362.27591 266.159172 
L 365.390641 266.159172 
L 368.505371 266.159172 
L 371.620102 266.159172 
L 374.734833 266.159172 
L 374.734833 261.924249 
L 374.734833 261.924249 
L 371.620102 266.758851 
L 368.505371 268.716018 
L 365.390641 268.875473 
L 362.27591 268.031346 
L 359.161179 266.747304 
L 356.046448 265.40388 
L 352.931717 264.238799 
L 349.816986 263.38104 
L 346.702255 262.879299 
L 343.587524 262.725505 
L 340.472794 262.873953 
L 337.358063 263.256611 
L 334.243332 263.795085 
L 331.128601 264.409705 
L 328.01387 265.026137 
L 324.899139 265.579921 
L 321.784408 266.019247 
L 318.669678 266.306315 
L 315.554947 266.417526 
L 312.440216 266.342776 
L 309.325485 266.084061 
L 306.210754 265.65359 
L 303.096023 265.071583 
L 299.981292 264.363894 
L 296.866561 263.559581 
L 293.751831 262.688541 
L 290.6371 261.779288 
L 287.522369 260.856939 
L 284.407638 259.94148 
L 281.292907 259.046334 
L 278.178176 258.177261 
L 275.063445 257.331622 
L 271.948715 256.497981 
L 268.833984 255.656074 
L 265.719253 254.7771 
L 262.604522 253.824343 
L 259.489791 252.75407 
L 256.37506 251.516701 
L 253.260329 250.058188 
L 250.145598 248.32159 
L 247.030868 246.248777 
L 243.916137 243.782244 
L 240.801406 240.866967 
L 237.686675 237.452274 
L 234.571944 233.493683 
L 231.457213 228.954661 
L 228.342482 223.808259 
L 225.227751 218.038599 
L 222.113021 266.141135 
L 218.99829 266.139846 
L 215.883559 197.381005 
L 212.768828 189.19487 
L 209.654097 180.491308 
L 206.539366 171.341406 
L 203.424635 161.831548 
L 200.309905 152.06256 
L 197.195174 142.148485 
L 194.080443 132.215029 
L 190.965712 122.397659 
L 187.850981 112.839409 
L 184.73625 103.688406 
L 181.621519 95.09516 
L 178.506788 87.209658 
L 175.392058 80.178307 
L 172.277327 74.140784 
L 169.162596 69.226845 
L 166.047865 65.55316 
L 162.933134 63.220233 
L 159.818403 62.309473 
L 156.703672 62.880496 
L 153.588942 64.968712 
L 150.474211 68.583283 
L 147.35948 73.705512 
L 144.244749 80.287735 
L 141.130018 88.252782 
L 138.015287 97.494068 
L 134.900556 107.876369 
L 131.785825 119.237334 
L 128.671095 131.389786 
L 125.556364 144.124822 
L 122.441633 157.215763 
L 119.326902 170.422942 
L 116.212171 183.49935 
L 113.09744 196.197096 
L 109.982709 208.274677 
L 106.867979 219.504972 
L 103.753248 229.683922 
L 100.638517 238.639765 
L 97.523786 246.24273 
L 94.409055 252.415036 
L 91.294324 257.141012 
L 88.179593 260.477144 
L 85.064862 262.561804 
L 81.950132 263.62438 
L 78.835401 263.993513 
L 75.72067 264.104059 
L 72.605939 264.502415 
L 69.491208 265.849741 
L 66.376477 268.922608 
z
" clip-path="url(#p0e6545f1c6)" style="fill: #1f77b4; fill-opacity: 0.166667"/>
   </g>
   <g id="PolyCollection_2">
    <path d="M 66.376477 276.002807 
L 66.376477 266.159172 
L 69.655803 266.159172 
L 72.935128 266.159172 
L 76.214453 266.159172 
L 79.493779 266.159172 
L 82.773104 266.159172 
L 86.052429 266.159172 
L 89.331755 266.159172 
L 92.61108 266.159172 
L 95.890405 266.159172 
L 99.169731 266.159172 
L 102.449056 266.159172 
L 105.728382 266.159172 
L 109.007707 266.159172 
L 112.287032 266.159172 
L 115.566358 266.159172 
L 118.845683 266.159172 
L 122.125008 266.159172 
L 125.404334 266.159172 
L 128.683659 266.159172 
L 131.962984 266.159172 
L 135.24231 266.159172 
L 138.521635 266.159172 
L 141.80096 266.159172 
L 145.080286 266.159172 
L 148.359611 266.159172 
L 151.638937 266.159172 
L 154.918262 266.159172 
L 158.197587 266.159172 
L 161.476913 266.159172 
L 164.756238 266.159172 
L 168.035563 266.159172 
L 171.314889 266.159172 
L 174.594214 266.159172 
L 177.873539 266.159172 
L 181.152865 266.159172 
L 184.43219 266.159172 
L 187.711515 266.159172 
L 190.990841 266.159172 
L 194.270166 266.159172 
L 197.549492 266.159172 
L 200.828817 266.159172 
L 204.108142 266.159172 
L 207.387468 266.159172 
L 210.666793 266.159172 
L 213.946118 266.159172 
L 217.225444 266.159172 
L 220.504769 266.159172 
L 223.784094 266.159172 
L 227.06342 266.159172 
L 230.342745 266.159172 
L 233.62207 266.159172 
L 236.901396 266.159172 
L 240.180721 266.159172 
L 243.460046 266.159172 
L 246.739372 266.159172 
L 250.018697 266.159172 
L 253.298023 266.159172 
L 256.577348 266.159172 
L 259.856673 266.159172 
L 263.135999 266.159172 
L 266.415324 266.159172 
L 269.694649 266.159172 
L 272.973975 266.159172 
L 276.2533 266.159172 
L 279.532625 266.159172 
L 282.811951 266.159172 
L 286.091276 266.159172 
L 289.370601 266.159172 
L 292.649927 266.159172 
L 295.929252 266.159172 
L 299.208578 266.159172 
L 302.487903 266.159172 
L 305.767228 266.159172 
L 309.046554 266.159172 
L 312.325879 266.159172 
L 315.605204 266.159172 
L 318.88453 266.159172 
L 322.163855 266.159172 
L 325.44318 266.159172 
L 328.722506 266.159172 
L 332.001831 266.159172 
L 335.281156 266.159172 
L 338.560482 266.159172 
L 341.839807 266.159172 
L 345.119133 266.159172 
L 348.398458 266.159172 
L 351.677783 266.159172 
L 354.957109 266.159172 
L 358.236434 266.159172 
L 361.515759 266.159172 
L 364.795085 266.159172 
L 368.07441 266.159172 
L 371.353735 266.159172 
L 374.633061 266.159172 
L 377.912386 266.159172 
L 381.191711 266.159172 
L 384.471037 266.159172 
L 387.750362 266.159172 
L 391.029688 266.159172 
L 391.029688 264.677833 
L 391.029688 264.677833 
L 387.750362 266.149894 
L 384.471037 266.96941 
L 381.191711 267.280817 
L 377.912386 267.221305 
L 374.633061 266.914919 
L 371.353735 266.46876 
L 368.07441 265.970909 
L 364.795085 265.489737 
L 361.515759 265.074307 
L 358.236434 264.755617 
L 354.957109 264.548443 
L 351.677783 264.453593 
L 348.398458 264.460403 
L 345.119133 264.549331 
L 341.839807 264.694525 
L 338.560482 264.866281 
L 335.281156 265.033301 
L 332.001831 265.164697 
L 328.722506 265.231709 
L 325.44318 265.209089 
L 322.163855 265.076161 
L 318.88453 264.817541 
L 315.605204 264.423518 
L 312.325879 263.890139 
L 309.046554 263.218989 
L 305.767228 262.416724 
L 302.487903 261.494371 
L 299.208578 260.46645 
L 295.929252 259.349943 
L 292.649927 258.163168 
L 289.370601 256.924589 
L 286.091276 255.65161 
L 282.811951 254.359395 
L 279.532625 253.059749 
L 276.2533 251.760108 
L 272.973975 250.462653 
L 269.694649 249.1636 
L 266.415324 247.852673 
L 263.135999 246.512798 
L 259.856673 245.120019 
L 256.577348 243.643657 
L 253.298023 242.046716 
L 250.018697 240.286534 
L 246.739372 238.315674 
L 243.460046 236.083046 
L 240.180721 233.535243 
L 236.901396 230.618064 
L 233.62207 227.278207 
L 230.342745 266.144641 
L 227.06342 266.143085 
L 223.784094 214.691837 
L 220.504769 209.075176 
L 217.225444 202.829918 
L 213.946118 195.955517 
L 210.666793 188.466285 
L 207.387468 180.392557 
L 204.108142 171.781597 
L 200.828817 162.69817 
L 197.549492 153.224768 
L 194.270166 143.461443 
L 190.990841 133.525215 
L 187.711515 123.549038 
L 184.43219 113.680308 
L 181.152865 104.078887 
L 177.873539 94.914652 
L 174.594214 86.364572 
L 171.314889 78.609322 
L 168.035563 71.829465 
L 164.756238 66.201238 
L 161.476913 61.891991 
L 158.197587 59.055345 
L 154.918262 57.826149 
L 151.638937 58.315329 
L 148.359611 60.604744 
L 145.080286 64.742185 
L 141.80096 70.736663 
L 138.521635 78.554169 
L 135.24231 88.114088 
L 131.962984 99.286509 
L 128.683659 111.890654 
L 125.404334 125.694724 
L 122.125008 140.417438 
L 118.845683 155.731624 
L 115.566358 171.270203 
L 112.287032 186.634977 
L 109.007707 201.408646 
L 105.728382 215.170526 
L 102.449056 227.516469 
L 99.169731 238.083536 
L 95.890405 246.580008 
L 92.61108 252.821365 
L 89.331755 256.772909 
L 86.052429 258.599756 
L 82.773104 258.724963 
L 79.493779 257.896621 
L 76.214453 257.264774 
L 72.935128 258.469117 
L 69.655803 263.738428 
L 66.376477 276.002807 
z
" clip-path="url(#p0e6545f1c6)" style="fill: #ff7f0e; fill-opacity: 0.166667"/>
   </g>
   <g id="PolyCollection_3">
    <path d="M 66.376477 256.37602 
L 66.376477 266.159172 
L 69.655816 266.159172 
L 72.935155 266.159172 
L 76.214494 266.159172 
L 79.493833 266.159172 
L 82.773171 266.159172 
L 86.05251 266.159172 
L 89.331849 266.159172 
L 92.611188 266.159172 
L 95.890527 266.159172 
L 99.169866 266.159172 
L 102.449205 266.159172 
L 105.728543 266.159172 
L 109.007882 266.159172 
L 112.287221 266.159172 
L 115.56656 266.159172 
L 118.845899 266.159172 
L 122.125238 266.159172 
L 125.404576 266.159172 
L 128.683915 266.159172 
L 131.963254 266.159172 
L 135.242593 266.159172 
L 138.521932 266.159172 
L 141.801271 266.159172 
L 145.08061 266.159172 
L 148.359948 266.159172 
L 151.639287 266.159172 
L 154.918626 266.159172 
L 158.197965 266.159172 
L 161.477304 266.159172 
L 164.756643 266.159172 
L 168.035981 266.159172 
L 171.31532 266.159172 
L 174.594659 266.159172 
L 177.873998 266.159172 
L 181.153337 266.159172 
L 184.432676 266.159172 
L 187.712014 266.159172 
L 190.991353 266.159172 
L 194.270692 266.159172 
L 197.550031 266.159172 
L 200.82937 266.159172 
L 204.108709 266.159172 
L 207.388048 266.159172 
L 210.667386 266.159172 
L 213.946725 266.159172 
L 217.226064 266.159172 
L 220.505403 266.159172 
L 223.784742 266.159172 
L 227.064081 266.159172 
L 230.343419 266.159172 
L 233.622758 266.159172 
L 236.902097 266.159172 
L 240.181436 266.159172 
L 243.460775 266.159172 
L 246.740114 266.159172 
L 250.019452 266.159172 
L 253.298791 266.159172 
L 256.57813 266.159172 
L 259.857469 266.159172 
L 263.136808 266.159172 
L 266.416147 266.159172 
L 269.695486 266.159172 
L 272.974824 266.159172 
L 276.254163 266.159172 
L 279.533502 266.159172 
L 282.812841 266.159172 
L 286.09218 266.159172 
L 289.371519 266.159172 
L 292.650857 266.159172 
L 295.930196 266.159172 
L 299.209535 266.159172 
L 302.488874 266.159172 
L 305.768213 266.159172 
L 309.047552 266.159172 
L 312.32689 266.159172 
L 315.606229 266.159172 
L 318.885568 266.159172 
L 322.164907 266.159172 
L 325.444246 266.159172 
L 328.723585 266.159172 
L 332.002924 266.159172 
L 335.282262 266.159172 
L 338.561601 266.159172 
L 341.84094 266.159172 
L 345.120279 266.159172 
L 348.399618 266.159172 
L 351.678957 266.159172 
L 354.958295 266.159172 
L 358.237634 266.159172 
L 361.516973 266.159172 
L 364.796312 266.159172 
L 368.075651 266.159172 
L 371.35499 266.159172 
L 374.634329 266.159172 
L 377.913667 266.159172 
L 381.193006 266.159172 
L 384.472345 266.159172 
L 387.751684 266.159172 
L 391.031023 266.159172 
L 391.031023 262.752253 
L 391.031023 262.752253 
L 387.751684 267.289391 
L 384.472345 268.579136 
L 381.193006 268.017597 
L 377.913667 266.586977 
L 374.634329 264.944806 
L 371.35499 263.498957 
L 368.075651 262.470117 
L 364.796312 261.943214 
L 361.516973 261.909195 
L 358.237634 262.298417 
L 354.958295 263.006815 
L 351.678957 263.915888 
L 348.399618 264.907448 
L 345.120279 265.873992 
L 341.84094 266.725449 
L 338.561601 267.392985 
L 335.282262 267.830473 
L 332.002924 268.014133 
L 328.723585 267.940833 
L 325.444246 267.625417 
L 322.164907 267.09742 
L 318.885568 266.397444 
L 315.606229 265.573435 
L 312.32689 264.677051 
L 309.047552 263.760276 
L 305.768213 262.872391 
L 302.488874 262.057386 
L 299.209535 261.351866 
L 295.930196 260.783482 
L 292.650857 260.36989 
L 289.371519 260.118222 
L 286.09218 260.025056 
L 282.812841 260.076813 
L 279.533502 260.250569 
L 276.254163 260.515185 
L 272.974824 260.832713 
L 269.695486 261.159996 
L 266.416147 261.450408 
L 263.136808 261.655638 
L 259.857469 261.727484 
L 256.57813 261.61956 
L 253.298791 261.288885 
L 250.019452 260.697283 
L 246.740114 259.812559 
L 243.460775 258.609411 
L 240.181436 257.07005 
L 236.902097 255.184509 
L 233.622758 252.95063 
L 230.343419 266.152218 
L 227.064081 266.151956 
L 223.784742 244.112748 
L 220.505403 240.754294 
L 217.226064 237.134547 
L 213.946725 233.27448 
L 210.667386 229.195187 
L 207.388048 224.916451 
L 204.108709 220.455336 
L 200.82937 215.824867 
L 197.550031 211.032853 
L 194.270692 206.08093 
L 190.991353 200.96388 
L 187.712014 195.6693 
L 184.432676 190.177677 
L 181.153337 184.462918 
L 177.873998 178.493383 
L 174.594659 172.233467 
L 171.31532 165.64574 
L 168.035981 158.693651 
L 164.756643 151.344805 
L 161.477304 143.574759 
L 158.197965 135.371293 
L 154.918626 126.739074 
L 151.639287 117.704596 
L 148.359948 108.32125 
L 145.08061 98.674344 
L 141.801271 88.885848 
L 138.521932 79.118584 
L 135.242593 69.579563 
L 131.963254 60.522073 
L 128.683915 52.246108 
L 125.404576 45.096638 
L 122.125238 39.459167 
L 118.845899 35.751942 
L 115.56656 34.414125 
L 112.287221 35.889127 
L 109.007882 40.602236 
L 105.728543 48.931584 
L 102.449205 61.171384 
L 99.169866 77.486277 
L 95.890527 97.855522 
L 92.611188 122.005633 
L 89.331849 149.329975 
L 86.05251 178.79367 
L 82.773171 208.822057 
L 79.493833 237.170805 
L 76.214494 260.775619 
L 72.935155 275.579348 
L 69.655816 276.334125 
L 66.376477 256.37602 
z
" clip-path="url(#p0e6545f1c6)" style="fill: #2ca02c; fill-opacity: 0.166667"/>
   </g>
   <g id="PolyCollection_4">
    <path d="M 66.376477 256.445765 
L 66.376477 266.159172 
L 69.655814 266.159172 
L 72.93515 266.159172 
L 76.214486 266.159172 
L 79.493822 266.159172 
L 82.773159 266.159172 
L 86.052495 266.159172 
L 89.331831 266.159172 
L 92.611168 266.159172 
L 95.890504 266.159172 
L 99.16984 266.159172 
L 102.449177 266.159172 
L 105.728513 266.159172 
L 109.007849 266.159172 
L 112.287185 266.159172 
L 115.566522 266.159172 
L 118.845858 266.159172 
L 122.125194 266.159172 
L 125.404531 266.159172 
L 128.683867 266.159172 
L 131.963203 266.159172 
L 135.24254 266.159172 
L 138.521876 266.159172 
L 141.801212 266.159172 
L 145.080549 266.159172 
L 148.359885 266.159172 
L 151.639221 266.159172 
L 154.918557 266.159172 
L 158.197894 266.159172 
L 161.47723 266.159172 
L 164.756566 266.159172 
L 168.035903 266.159172 
L 171.315239 266.159172 
L 174.594575 266.159172 
L 177.873912 266.159172 
L 181.153248 266.159172 
L 184.432584 266.159172 
L 187.71192 266.159172 
L 190.991257 266.159172 
L 194.270593 266.159172 
L 197.549929 266.159172 
L 200.829266 266.159172 
L 204.108602 266.159172 
L 207.387938 266.159172 
L 210.667275 266.159172 
L 213.946611 266.159172 
L 217.225947 266.159172 
L 220.505283 266.159172 
L 223.78462 266.159172 
L 227.063956 266.159172 
L 230.343292 266.159172 
L 233.622629 266.159172 
L 236.901965 266.159172 
L 240.181301 266.159172 
L 243.460638 266.159172 
L 246.739974 266.159172 
L 250.01931 266.159172 
L 253.298646 266.159172 
L 256.577983 266.159172 
L 259.857319 266.159172 
L 263.136655 266.159172 
L 266.415992 266.159172 
L 269.695328 266.159172 
L 272.974664 266.159172 
L 276.254001 266.159172 
L 279.533337 266.159172 
L 282.812673 266.159172 
L 286.09201 266.159172 
L 289.371346 266.159172 
L 292.650682 266.159172 
L 295.930018 266.159172 
L 299.209355 266.159172 
L 302.488691 266.159172 
L 305.768027 266.159172 
L 309.047364 266.159172 
L 312.3267 266.159172 
L 315.606036 266.159172 
L 318.885373 266.159172 
L 322.164709 266.159172 
L 325.444045 266.159172 
L 328.723381 266.159172 
L 332.002718 266.159172 
L 335.282054 266.159172 
L 338.56139 266.159172 
L 341.840727 266.159172 
L 345.120063 266.159172 
L 348.399399 266.159172 
L 351.678736 266.159172 
L 354.958072 266.159172 
L 358.237408 266.159172 
L 361.516744 266.159172 
L 364.796081 266.159172 
L 368.075417 266.159172 
L 371.354753 266.159172 
L 374.63409 266.159172 
L 377.913426 266.159172 
L 381.192762 266.159172 
L 384.472099 266.159172 
L 387.751435 266.159172 
L 391.030771 266.159172 
L 391.030771 259.399151 
L 391.030771 259.399151 
L 387.751435 267.313247 
L 384.472099 270.290053 
L 381.192762 270.338077 
L 377.913426 268.883999 
L 374.63409 266.896159 
L 371.354753 264.98877 
L 368.075417 263.509048 
L 364.796081 262.609235 
L 361.516744 262.305374 
L 358.237408 262.524516 
L 354.958072 263.1419 
L 351.678736 264.009522 
L 348.399399 264.977361 
L 345.120063 265.90842 
L 341.840727 266.688628 
L 338.56139 267.232518 
L 335.282054 267.485529 
L 332.002718 267.42365 
L 328.723381 267.051065 
L 325.444045 266.396344 
L 322.164709 265.507679 
L 318.885373 264.447576 
L 315.606036 263.287344 
L 312.3267 262.101669 
L 309.047364 260.963512 
L 305.768027 259.93951 
L 302.488691 259.086006 
L 299.209355 258.445819 
L 295.930018 258.045798 
L 292.650682 257.895196 
L 289.371346 257.984857 
L 286.09201 258.287193 
L 282.812673 258.756896 
L 279.533337 259.332332 
L 276.254001 259.93753 
L 272.974664 260.484679 
L 269.695328 260.877038 
L 266.415992 261.012153 
L 263.136655 260.78528 
L 259.857319 260.092901 
L 256.577983 258.836247 
L 253.298646 256.924699 
L 250.01931 254.279011 
L 246.739974 250.834231 
L 243.460638 246.542267 
L 240.181301 241.374027 
L 236.901965 235.321061 
L 233.622629 228.396681 
L 230.343292 266.141114 
L 227.063956 266.140376 
L 223.78462 202.837654 
L 220.505283 193.159289 
L 217.225947 182.997993 
L 213.946611 172.481948 
L 210.667275 161.753205 
L 207.387938 150.964763 
L 204.108602 140.277291 
L 200.829266 129.85556 
L 197.549929 119.864672 
L 194.270593 110.466168 
L 190.991257 101.814111 
L 187.71192 94.051253 
L 184.432584 87.305373 
L 181.153248 81.685903 
L 177.873912 77.280938 
L 174.594575 74.154742 
L 171.315239 72.345826 
L 168.035903 71.865707 
L 164.756566 72.698411 
L 161.47723 74.800785 
L 158.197894 78.103672 
L 154.918557 82.513968 
L 151.639221 87.917568 
L 148.359885 94.183178 
L 145.080549 101.166937 
L 141.801212 108.717766 
L 138.521876 116.68331 
L 135.24254 124.916302 
L 131.963203 133.281146 
L 128.683867 141.660425 
L 125.404531 149.961032 
L 122.125194 158.119518 
L 118.845858 166.106213 
L 115.566522 173.92758 
L 112.287185 181.626214 
L 109.007849 189.277776 
L 105.728513 196.984109 
L 102.449177 204.86163 
L 99.16984 213.024059 
L 95.890504 221.558373 
L 92.611168 230.492805 
L 89.331831 239.755561 
L 86.052495 249.122814 
L 82.773159 258.154395 
L 79.493822 266.115444 
L 76.214486 271.882176 
L 72.93515 273.829702 
L 69.655814 269.699729 
L 66.376477 256.445765 
z
" clip-path="url(#p0e6545f1c6)" style="fill: #d62728; fill-opacity: 0.166667"/>
   </g>
   <g id="PolyCollection_5">
    <path d="M 66.376477 259.265929 
L 66.376477 266.159172 
L 69.443755 266.159172 
L 72.511032 266.159172 
L 75.57831 266.159172 
L 78.645587 266.159172 
L 81.712865 266.159172 
L 84.780142 266.159172 
L 87.84742 266.159172 
L 90.914697 266.159172 
L 93.981975 266.159172 
L 97.049252 266.159172 
L 100.11653 266.159172 
L 103.183807 266.159172 
L 106.251085 266.159172 
L 109.318362 266.159172 
L 112.38564 266.159172 
L 115.452917 266.159172 
L 118.520195 266.159172 
L 121.587472 266.159172 
L 124.65475 266.159172 
L 127.722027 266.159172 
L 130.789305 266.159172 
L 133.856582 266.159172 
L 136.92386 266.159172 
L 139.991137 266.159172 
L 143.058415 266.159172 
L 146.125692 266.159172 
L 149.19297 266.159172 
L 152.260247 266.159172 
L 155.327525 266.159172 
L 158.394803 266.159172 
L 161.46208 266.159172 
L 164.529358 266.159172 
L 167.596635 266.159172 
L 170.663913 266.159172 
L 173.73119 266.159172 
L 176.798468 266.159172 
L 179.865745 266.159172 
L 182.933023 266.159172 
L 186.0003 266.159172 
L 189.067578 266.159172 
L 192.134855 266.159172 
L 195.202133 266.159172 
L 198.26941 266.159172 
L 201.336688 266.159172 
L 204.403965 266.159172 
L 207.471243 266.159172 
L 210.53852 266.159172 
L 213.605798 266.159172 
L 216.673075 266.159172 
L 219.740353 266.159172 
L 222.80763 266.159172 
L 225.874908 266.159172 
L 228.942185 266.159172 
L 232.009463 266.159172 
L 235.07674 266.159172 
L 238.144018 266.159172 
L 241.211295 266.159172 
L 244.278573 266.159172 
L 247.34585 266.159172 
L 250.413128 266.159172 
L 253.480405 266.159172 
L 256.547683 266.159172 
L 259.61496 266.159172 
L 262.682238 266.159172 
L 265.749515 266.159172 
L 268.816793 266.159172 
L 271.88407 266.159172 
L 274.951348 266.159172 
L 278.018625 266.159172 
L 281.085903 266.159172 
L 284.15318 266.159172 
L 287.220458 266.159172 
L 290.287735 266.159172 
L 293.355013 266.159172 
L 296.42229 266.159172 
L 299.489568 266.159172 
L 302.556845 266.159172 
L 305.624123 266.159172 
L 308.6914 266.159172 
L 311.758678 266.159172 
L 314.825955 266.159172 
L 317.893233 266.159172 
L 320.96051 266.159172 
L 324.027788 266.159172 
L 327.095065 266.159172 
L 330.162343 266.159172 
L 333.22962 266.159172 
L 336.296898 266.159172 
L 339.364175 266.159172 
L 342.431453 266.159172 
L 345.49873 266.159172 
L 348.566008 266.159172 
L 351.633285 266.159172 
L 354.700563 266.159172 
L 357.767841 266.159172 
L 360.835118 266.159172 
L 363.902396 266.159172 
L 366.969673 266.159172 
L 370.036951 266.159172 
L 370.036951 260.256808 
L 370.036951 260.256808 
L 366.969673 267.944423 
L 363.902396 270.672564 
L 360.835118 270.45924 
L 357.767841 268.745078 
L 354.700563 266.513801 
L 351.633285 264.394244 
L 348.566008 262.745924 
L 345.49873 261.730083 
L 342.431453 261.367927 
L 339.364175 261.587677 
L 336.296898 262.261879 
L 333.22962 263.236335 
L 330.162343 264.351845 
L 327.095065 265.45988 
L 324.027788 266.433176 
L 320.96051 267.172128 
L 317.893233 267.607806 
L 314.825955 267.70227 
L 311.758678 267.446834 
L 308.6914 266.858801 
L 305.624123 265.97716 
L 302.556845 264.857639 
L 299.489568 263.567458 
L 296.42229 262.180071 
L 293.355013 260.770126 
L 290.287735 259.408833 
L 287.220458 258.159873 
L 284.15318 257.075961 
L 281.085903 256.196125 
L 278.018625 255.543731 
L 274.951348 255.125275 
L 271.88407 254.929924 
L 268.816793 254.929757 
L 265.749515 255.080679 
L 262.682238 255.323913 
L 259.61496 255.58802 
L 256.547683 255.791335 
L 253.480405 255.844751 
L 250.413128 255.65474 
L 247.34585 255.126515 
L 244.278573 254.167251 
L 241.211295 252.68926 
L 238.144018 250.613029 
L 235.07674 247.870051 
L 232.009463 244.405371 
L 228.942185 240.179763 
L 225.874908 235.171514 
L 222.80763 229.377736 
L 219.740353 266.142077 
L 216.673075 266.14125 
L 213.605798 207.683422 
L 210.53852 199.231819 
L 207.471243 190.262981 
L 204.403965 180.88127 
L 201.336688 171.205357 
L 198.26941 161.365788 
L 195.202133 151.502175 
L 192.134855 141.760102 
L 189.067578 132.287783 
L 186.0003 123.232576 
L 182.933023 114.737437 
L 179.865745 106.937394 
L 176.798468 99.956146 
L 173.73119 93.902885 
L 170.663913 88.869427 
L 167.596635 84.927764 
L 164.529358 82.128113 
L 161.46208 80.497552 
L 158.394803 80.03932 
L 155.327525 80.732834 
L 152.260247 82.534485 
L 149.19297 85.379228 
L 146.125692 89.182978 
L 143.058415 93.8458 
L 139.991137 99.255843 
L 136.92386 105.293936 
L 133.856582 111.838739 
L 130.789305 118.772295 
L 127.722027 125.985774 
L 124.65475 133.385175 
L 121.587472 140.896671 
L 118.520195 148.471249 
L 115.452917 156.088217 
L 112.38564 163.757078 
L 109.318362 171.517227 
L 106.251085 179.434803 
L 103.183807 187.595987 
L 100.11653 196.095906 
L 97.049252 205.022254 
L 93.981975 214.432583 
L 90.914697 224.32416 
L 87.84742 234.595131 
L 84.780142 244.995641 
L 81.712865 255.067404 
L 78.645587 264.07011 
L 75.57831 270.892881 
L 72.511032 273.948864 
L 69.443755 271.050889 
L 66.376477 259.265929 
z
" clip-path="url(#p0e6545f1c6)" style="fill: #9467bd; fill-opacity: 0.166667"/>
   </g>
   <g id="PolyCollection_6">
    <path d="M 66.376477 261.383787 
L 66.376477 266.159172 
L 69.655814 266.159172 
L 72.935151 266.159172 
L 76.214489 266.159172 
L 79.493826 266.159172 
L 82.773163 266.159172 
L 86.0525 266.159172 
L 89.331837 266.159172 
L 92.611174 266.159172 
L 95.890511 266.159172 
L 99.169848 266.159172 
L 102.449185 266.159172 
L 105.728522 266.159172 
L 109.007859 266.159172 
L 112.287196 266.159172 
L 115.566534 266.159172 
L 118.845871 266.159172 
L 122.125208 266.159172 
L 125.404545 266.159172 
L 128.683882 266.159172 
L 131.963219 266.159172 
L 135.242556 266.159172 
L 138.521893 266.159172 
L 141.80123 266.159172 
L 145.080567 266.159172 
L 148.359904 266.159172 
L 151.639241 266.159172 
L 154.918579 266.159172 
L 158.197916 266.159172 
L 161.477253 266.159172 
L 164.75659 266.159172 
L 168.035927 266.159172 
L 171.315264 266.159172 
L 174.594601 266.159172 
L 177.873938 266.159172 
L 181.153275 266.159172 
L 184.432612 266.159172 
L 187.711949 266.159172 
L 190.991286 266.159172 
L 194.270624 266.159172 
L 197.549961 266.159172 
L 200.829298 266.159172 
L 204.108635 266.159172 
L 207.387972 266.159172 
L 210.667309 266.159172 
L 213.946646 266.159172 
L 217.225983 266.159172 
L 220.50532 266.159172 
L 223.784657 266.159172 
L 227.063994 266.159172 
L 230.343331 266.159172 
L 233.622669 266.159172 
L 236.902006 266.159172 
L 240.181343 266.159172 
L 243.46068 266.159172 
L 246.740017 266.159172 
L 250.019354 266.159172 
L 253.298691 266.159172 
L 256.578028 266.159172 
L 259.857365 266.159172 
L 263.136702 266.159172 
L 266.416039 266.159172 
L 269.695376 266.159172 
L 272.974714 266.159172 
L 276.254051 266.159172 
L 279.533388 266.159172 
L 282.812725 266.159172 
L 286.092062 266.159172 
L 289.371399 266.159172 
L 292.650736 266.159172 
L 295.930073 266.159172 
L 299.20941 266.159172 
L 302.488747 266.159172 
L 305.768084 266.159172 
L 309.047421 266.159172 
L 312.326759 266.159172 
L 315.606096 266.159172 
L 318.885433 266.159172 
L 322.16477 266.159172 
L 325.444107 266.159172 
L 328.723444 266.159172 
L 332.002781 266.159172 
L 335.282118 266.159172 
L 338.561455 266.159172 
L 341.840792 266.159172 
L 345.120129 266.159172 
L 348.399466 266.159172 
L 351.678804 266.159172 
L 354.958141 266.159172 
L 358.237478 266.159172 
L 361.516815 266.159172 
L 364.796152 266.159172 
L 368.075489 266.159172 
L 371.354826 266.159172 
L 374.634163 266.159172 
L 377.9135 266.159172 
L 381.192837 266.159172 
L 384.472174 266.159172 
L 387.751511 266.159172 
L 391.030849 266.159172 
L 391.030849 268.440083 
L 391.030849 268.440083 
L 387.751511 265.509547 
L 384.472174 264.351762 
L 381.192837 264.284818 
L 377.9135 264.81138 
L 374.634163 265.581827 
L 371.354826 266.362875 
L 368.075489 267.011088 
L 364.796152 267.450719 
L 361.516815 267.655382 
L 358.237478 267.633074 
L 354.958141 267.414131 
L 351.678804 267.041714 
L 348.399466 266.564475 
L 345.120129 266.031085 
L 341.840792 265.486311 
L 338.561455 264.968405 
L 335.282118 264.507551 
L 332.002781 264.125166 
L 328.723444 263.833873 
L 325.444107 263.637985 
L 322.16477 263.534347 
L 318.885433 263.513436 
L 315.606096 263.560594 
L 312.326759 263.657322 
L 309.047421 263.782558 
L 305.768084 263.91389 
L 302.488747 264.028644 
L 299.20941 264.104835 
L 295.930073 264.121944 
L 292.650736 264.061512 
L 289.371399 263.90755 
L 286.092062 263.646765 
L 282.812725 263.268609 
L 279.533388 262.765166 
L 276.254051 262.130897 
L 272.974714 261.362258 
L 269.695376 260.457224 
L 266.416039 259.414737 
L 263.136702 258.234106 
L 259.857365 256.914389 
L 256.578028 255.45378 
L 253.298691 253.849035 
L 250.019354 252.094948 
L 246.740017 250.183911 
L 243.46068 248.105579 
L 240.181343 245.846651 
L 236.902006 243.390784 
L 233.622669 240.71866 
L 230.343331 266.150461 
L 227.063994 266.149675 
L 223.784657 230.835312 
L 220.50532 227.11647 
L 217.225983 223.068855 
L 213.946646 218.66178 
L 210.667309 213.865703 
L 207.387972 208.653634 
L 204.108635 203.002642 
L 200.829298 196.895441 
L 197.549961 190.322018 
L 194.270624 183.281253 
L 190.991286 175.782495 
L 187.711949 167.847044 
L 184.432612 159.509493 
L 181.153275 150.818865 
L 177.873938 141.83952 
L 174.594601 132.651757 
L 171.315264 123.35207 
L 168.035927 114.053014 
L 164.75659 104.882637 
L 161.477253 95.983423 
L 158.197916 87.510733 
L 154.918579 79.630707 
L 151.639241 72.517598 
L 148.359904 66.350545 
L 145.080567 61.309776 
L 141.80123 57.572261 
L 138.521893 55.306829 
L 135.242556 54.668818 
L 131.963219 55.794297 
L 128.683882 58.793948 
L 125.404545 63.746721 
L 122.125208 70.693373 
L 118.845871 79.630055 
L 115.566534 90.502115 
L 112.287196 103.198342 
L 109.007859 117.545875 
L 105.728522 133.306061 
L 102.449185 150.17158 
L 99.169848 167.765174 
L 95.890511 185.640392 
L 92.611174 203.284768 
L 89.331837 220.125937 
L 86.0525 235.541207 
L 82.773163 248.871187 
L 79.493826 259.438111 
L 76.214489 266.569545 
L 72.935151 269.628268 
L 69.655814 268.049129 
L 66.376477 261.383787 
z
" clip-path="url(#p0e6545f1c6)" style="fill: #8c564b; fill-opacity: 0.166667"/>
   </g>
   <g id="matplotlib.axis_1">
    <g id="xtick_1">
     <g id="line2d_1">
      <defs>
       <path id="me22f18a9aa" d="M 0 0 
L 0 3.5 
" style="stroke: #000000; stroke-width: 0.8"/>
      </defs>
      <g>
       <use xlink:href="#me22f18a9aa" x="66.376477" y="288.430125" style="stroke: #000000; stroke-width: 0.8"/>
      </g>
     </g>
     <g id="text_1">
      <!-- 0.0 -->
      <g transform="translate(58.424915 303.028562) scale(0.1 -0.1)">
       <defs>
        <path id="DejaVuSans-30" d="M 2034 4250 
Q 1547 4250 1301 3770 
Q 1056 3291 1056 2328 
Q 1056 1369 1301 889 
Q 1547 409 2034 409 
Q 2525 409 2770 889 
Q 3016 1369 3016 2328 
Q 3016 3291 2770 3770 
Q 2525 4250 2034 4250 
z
M 2034 4750 
Q 2819 4750 3233 4129 
Q 3647 3509 3647 2328 
Q 3647 1150 3233 529 
Q 2819 -91 2034 -91 
Q 1250 -91 836 529 
Q 422 1150 422 2328 
Q 422 3509 836 4129 
Q 1250 4750 2034 4750 
z
" transform="scale(0.015625)"/>
        <path id="DejaVuSans-2e" d="M 684 794 
L 1344 794 
L 1344 0 
L 684 0 
L 684 794 
z
" transform="scale(0.015625)"/>
       </defs>
       <use xlink:href="#DejaVuSans-30"/>
       <use xlink:href="#DejaVuSans-2e" x="63.623047"/>
       <use xlink:href="#DejaVuSans-30" x="95.410156"/>
      </g>
     </g>
    </g>
    <g id="xtick_2">
     <g id="line2d_2">
      <g>
       <use xlink:href="#me22f18a9aa" x="131.963281" y="288.430125" style="stroke: #000000; stroke-width: 0.8"/>
      </g>
     </g>
     <g id="text_2">
      <!-- 0.2 -->
      <g transform="translate(124.011719 303.028562) scale(0.1 -0.1)">
       <defs>
        <path id="DejaVuSans-32" d="M 1228 531 
L 3431 531 
L 3431 0 
L 469 0 
L 469 531 
Q 828 903 1448 1529 
Q 2069 2156 2228 2338 
Q 2531 2678 2651 2914 
Q 2772 3150 2772 3378 
Q 2772 3750 2511 3984 
Q 2250 4219 1831 4219 
Q 1534 4219 1204 4116 
Q 875 4013 500 3803 
L 500 4441 
Q 881 4594 1212 4672 
Q 1544 4750 1819 4750 
Q 2544 4750 2975 4387 
Q 3406 4025 3406 3419 
Q 3406 3131 3298 2873 
Q 3191 2616 2906 2266 
Q 2828 2175 2409 1742 
Q 1991 1309 1228 531 
z
" transform="scale(0.015625)"/>
       </defs>
       <use xlink:href="#DejaVuSans-30"/>
       <use xlink:href="#DejaVuSans-2e" x="63.623047"/>
       <use xlink:href="#DejaVuSans-32" x="95.410156"/>
      </g>
     </g>
    </g>
    <g id="xtick_3">
     <g id="line2d_3">
      <g>
       <use xlink:href="#me22f18a9aa" x="197.550086" y="288.430125" style="stroke: #000000; stroke-width: 0.8"/>
      </g>
     </g>
     <g id="text_3">
      <!-- 0.4 -->
      <g transform="translate(189.598523 303.028562) scale(0.1 -0.1)">
       <defs>
        <path id="DejaVuSans-34" d="M 2419 4116 
L 825 1625 
L 2419 1625 
L 2419 4116 
z
M 2253 4666 
L 3047 4666 
L 3047 1625 
L 3713 1625 
L 3713 1100 
L 3047 1100 
L 3047 0 
L 2419 0 
L 2419 1100 
L 313 1100 
L 313 1709 
L 2253 4666 
z
" transform="scale(0.015625)"/>
       </defs>
       <use xlink:href="#DejaVuSans-30"/>
       <use xlink:href="#DejaVuSans-2e" x="63.623047"/>
       <use xlink:href="#DejaVuSans-34" x="95.410156"/>
      </g>
     </g>
    </g>
    <g id="xtick_4">
     <g id="line2d_4">
      <g>
       <use xlink:href="#me22f18a9aa" x="263.13689" y="288.430125" style="stroke: #000000; stroke-width: 0.8"/>
      </g>
     </g>
     <g id="text_4">
      <!-- 0.6 -->
      <g transform="translate(255.185327 303.028562) scale(0.1 -0.1)">
       <defs>
        <path id="DejaVuSans-36" d="M 2113 2584 
Q 1688 2584 1439 2293 
Q 1191 2003 1191 1497 
Q 1191 994 1439 701 
Q 1688 409 2113 409 
Q 2538 409 2786 701 
Q 3034 994 3034 1497 
Q 3034 2003 2786 2293 
Q 2538 2584 2113 2584 
z
M 3366 4563 
L 3366 3988 
Q 3128 4100 2886 4159 
Q 2644 4219 2406 4219 
Q 1781 4219 1451 3797 
Q 1122 3375 1075 2522 
Q 1259 2794 1537 2939 
Q 1816 3084 2150 3084 
Q 2853 3084 3261 2657 
Q 3669 2231 3669 1497 
Q 3669 778 3244 343 
Q 2819 -91 2113 -91 
Q 1303 -91 875 529 
Q 447 1150 447 2328 
Q 447 3434 972 4092 
Q 1497 4750 2381 4750 
Q 2619 4750 2861 4703 
Q 3103 4656 3366 4563 
z
" transform="scale(0.015625)"/>
       </defs>
       <use xlink:href="#DejaVuSans-30"/>
       <use xlink:href="#DejaVuSans-2e" x="63.623047"/>
       <use xlink:href="#DejaVuSans-36" x="95.410156"/>
      </g>
     </g>
    </g>
    <g id="xtick_5">
     <g id="line2d_5">
      <g>
       <use xlink:href="#me22f18a9aa" x="328.723694" y="288.430125" style="stroke: #000000; stroke-width: 0.8"/>
      </g>
     </g>
     <g id="text_5">
      <!-- 0.8 -->
      <g transform="translate(320.772132 303.028562) scale(0.1 -0.1)">
       <defs>
        <path id="DejaVuSans-38" d="M 2034 2216 
Q 1584 2216 1326 1975 
Q 1069 1734 1069 1313 
Q 1069 891 1326 650 
Q 1584 409 2034 409 
Q 2484 409 2743 651 
Q 3003 894 3003 1313 
Q 3003 1734 2745 1975 
Q 2488 2216 2034 2216 
z
M 1403 2484 
Q 997 2584 770 2862 
Q 544 3141 544 3541 
Q 544 4100 942 4425 
Q 1341 4750 2034 4750 
Q 2731 4750 3128 4425 
Q 3525 4100 3525 3541 
Q 3525 3141 3298 2862 
Q 3072 2584 2669 2484 
Q 3125 2378 3379 2068 
Q 3634 1759 3634 1313 
Q 3634 634 3220 271 
Q 2806 -91 2034 -91 
Q 1263 -91 848 271 
Q 434 634 434 1313 
Q 434 1759 690 2068 
Q 947 2378 1403 2484 
z
M 1172 3481 
Q 1172 3119 1398 2916 
Q 1625 2713 2034 2713 
Q 2441 2713 2670 2916 
Q 2900 3119 2900 3481 
Q 2900 3844 2670 4047 
Q 2441 4250 2034 4250 
Q 1625 4250 1398 4047 
Q 1172 3844 1172 3481 
z
" transform="scale(0.015625)"/>
       </defs>
       <use xlink:href="#DejaVuSans-30"/>
       <use xlink:href="#DejaVuSans-2e" x="63.623047"/>
       <use xlink:href="#DejaVuSans-38" x="95.410156"/>
      </g>
     </g>
    </g>
    <g id="xtick_6">
     <g id="line2d_6">
      <g>
       <use xlink:href="#me22f18a9aa" x="394.310498" y="288.430125" style="stroke: #000000; stroke-width: 0.8"/>
      </g>
     </g>
     <g id="text_6">
      <!-- 1.0 -->
      <g transform="translate(386.358936 303.028562) scale(0.1 -0.1)">
       <defs>
        <path id="DejaVuSans-31" d="M 794 531 
L 1825 531 
L 1825 4091 
L 703 3866 
L 703 4441 
L 1819 4666 
L 2450 4666 
L 2450 531 
L 3481 531 
L 3481 0 
L 794 0 
L 794 531 
z
" transform="scale(0.015625)"/>
       </defs>
       <use xlink:href="#DejaVuSans-31"/>
       <use xlink:href="#DejaVuSans-2e" x="63.623047"/>
       <use xlink:href="#DejaVuSans-30" x="95.410156"/>
      </g>
     </g>
    </g>
    <g id="text_7">
     <!-- Pixel values -->
     <g transform="translate(199.292031 316.706687) scale(0.1 -0.1)">
      <defs>
       <path id="DejaVuSans-50" d="M 1259 4147 
L 1259 2394 
L 2053 2394 
Q 2494 2394 2734 2622 
Q 2975 2850 2975 3272 
Q 2975 3691 2734 3919 
Q 2494 4147 2053 4147 
L 1259 4147 
z
M 628 4666 
L 2053 4666 
Q 2838 4666 3239 4311 
Q 3641 3956 3641 3272 
Q 3641 2581 3239 2228 
Q 2838 1875 2053 1875 
L 1259 1875 
L 1259 0 
L 628 0 
L 628 4666 
z
" transform="scale(0.015625)"/>
       <path id="DejaVuSans-69" d="M 603 3500 
L 1178 3500 
L 1178 0 
L 603 0 
L 603 3500 
z
M 603 4863 
L 1178 4863 
L 1178 4134 
L 603 4134 
L 603 4863 
z
" transform="scale(0.015625)"/>
       <path id="DejaVuSans-78" d="M 3513 3500 
L 2247 1797 
L 3578 0 
L 2900 0 
L 1881 1375 
L 863 0 
L 184 0 
L 1544 1831 
L 300 3500 
L 978 3500 
L 1906 2253 
L 2834 3500 
L 3513 3500 
z
" transform="scale(0.015625)"/>
       <path id="DejaVuSans-65" d="M 3597 1894 
L 3597 1613 
L 953 1613 
Q 991 1019 1311 708 
Q 1631 397 2203 397 
Q 2534 397 2845 478 
Q 3156 559 3463 722 
L 3463 178 
Q 3153 47 2828 -22 
Q 2503 -91 2169 -91 
Q 1331 -91 842 396 
Q 353 884 353 1716 
Q 353 2575 817 3079 
Q 1281 3584 2069 3584 
Q 2775 3584 3186 3129 
Q 3597 2675 3597 1894 
z
M 3022 2063 
Q 3016 2534 2758 2815 
Q 2500 3097 2075 3097 
Q 1594 3097 1305 2825 
Q 1016 2553 972 2059 
L 3022 2063 
z
" transform="scale(0.015625)"/>
       <path id="DejaVuSans-6c" d="M 603 4863 
L 1178 4863 
L 1178 0 
L 603 0 
L 603 4863 
z
" transform="scale(0.015625)"/>
       <path id="DejaVuSans-20" transform="scale(0.015625)"/>
       <path id="DejaVuSans-76" d="M 191 3500 
L 800 3500 
L 1894 563 
L 2988 3500 
L 3597 3500 
L 2284 0 
L 1503 0 
L 191 3500 
z
" transform="scale(0.015625)"/>
       <path id="DejaVuSans-61" d="M 2194 1759 
Q 1497 1759 1228 1600 
Q 959 1441 959 1056 
Q 959 750 1161 570 
Q 1363 391 1709 391 
Q 2188 391 2477 730 
Q 2766 1069 2766 1631 
L 2766 1759 
L 2194 1759 
z
M 3341 1997 
L 3341 0 
L 2766 0 
L 2766 531 
Q 2569 213 2275 61 
Q 1981 -91 1556 -91 
Q 1019 -91 701 211 
Q 384 513 384 1019 
Q 384 1609 779 1909 
Q 1175 2209 1959 2209 
L 2766 2209 
L 2766 2266 
Q 2766 2663 2505 2880 
Q 2244 3097 1772 3097 
Q 1472 3097 1187 3025 
Q 903 2953 641 2809 
L 641 3341 
Q 956 3463 1253 3523 
Q 1550 3584 1831 3584 
Q 2591 3584 2966 3190 
Q 3341 2797 3341 1997 
z
" transform="scale(0.015625)"/>
       <path id="DejaVuSans-75" d="M 544 1381 
L 544 3500 
L 1119 3500 
L 1119 1403 
Q 1119 906 1312 657 
Q 1506 409 1894 409 
Q 2359 409 2629 706 
Q 2900 1003 2900 1516 
L 2900 3500 
L 3475 3500 
L 3475 0 
L 2900 0 
L 2900 538 
Q 2691 219 2414 64 
Q 2138 -91 1772 -91 
Q 1169 -91 856 284 
Q 544 659 544 1381 
z
M 1991 3584 
L 1991 3584 
z
" transform="scale(0.015625)"/>
       <path id="DejaVuSans-73" d="M 2834 3397 
L 2834 2853 
Q 2591 2978 2328 3040 
Q 2066 3103 1784 3103 
Q 1356 3103 1142 2972 
Q 928 2841 928 2578 
Q 928 2378 1081 2264 
Q 1234 2150 1697 2047 
L 1894 2003 
Q 2506 1872 2764 1633 
Q 3022 1394 3022 966 
Q 3022 478 2636 193 
Q 2250 -91 1575 -91 
Q 1294 -91 989 -36 
Q 684 19 347 128 
L 347 722 
Q 666 556 975 473 
Q 1284 391 1588 391 
Q 1994 391 2212 530 
Q 2431 669 2431 922 
Q 2431 1156 2273 1281 
Q 2116 1406 1581 1522 
L 1381 1569 
Q 847 1681 609 1914 
Q 372 2147 372 2553 
Q 372 3047 722 3315 
Q 1072 3584 1716 3584 
Q 2034 3584 2315 3537 
Q 2597 3491 2834 3397 
z
" transform="scale(0.015625)"/>
      </defs>
      <use xlink:href="#DejaVuSans-50"/>
      <use xlink:href="#DejaVuSans-69" x="58.052734"/>
      <use xlink:href="#DejaVuSans-78" x="85.835938"/>
      <use xlink:href="#DejaVuSans-65" x="141.890625"/>
      <use xlink:href="#DejaVuSans-6c" x="203.414062"/>
      <use xlink:href="#DejaVuSans-20" x="231.197266"/>
      <use xlink:href="#DejaVuSans-76" x="262.984375"/>
      <use xlink:href="#DejaVuSans-61" x="322.164062"/>
      <use xlink:href="#DejaVuSans-6c" x="383.443359"/>
      <use xlink:href="#DejaVuSans-75" x="411.226562"/>
      <use xlink:href="#DejaVuSans-65" x="474.605469"/>
      <use xlink:href="#DejaVuSans-73" x="536.128906"/>
     </g>
    </g>
   </g>
   <g id="matplotlib.axis_2">
    <g id="ytick_1">
     <g id="line2d_7">
      <defs>
       <path id="m611a391127" d="M 0 0 
L -3.5 0 
" style="stroke: #000000; stroke-width: 0.8"/>
      </defs>
      <g>
       <use xlink:href="#m611a391127" x="50.14375" y="266.159172" style="stroke: #000000; stroke-width: 0.8"/>
      </g>
     </g>
     <g id="text_8">
      <!-- 0.00 -->
      <g transform="translate(20.878125 269.958391) scale(0.1 -0.1)">
       <use xlink:href="#DejaVuSans-30"/>
       <use xlink:href="#DejaVuSans-2e" x="63.623047"/>
       <use xlink:href="#DejaVuSans-30" x="95.410156"/>
       <use xlink:href="#DejaVuSans-30" x="159.033203"/>
      </g>
     </g>
    </g>
    <g id="ytick_2">
     <g id="line2d_8">
      <g>
       <use xlink:href="#m611a391127" x="50.14375" y="208.012841" style="stroke: #000000; stroke-width: 0.8"/>
      </g>
     </g>
     <g id="text_9">
      <!-- 0.01 -->
      <g transform="translate(20.878125 211.81206) scale(0.1 -0.1)">
       <use xlink:href="#DejaVuSans-30"/>
       <use xlink:href="#DejaVuSans-2e" x="63.623047"/>
       <use xlink:href="#DejaVuSans-30" x="95.410156"/>
       <use xlink:href="#DejaVuSans-31" x="159.033203"/>
      </g>
     </g>
    </g>
    <g id="ytick_3">
     <g id="line2d_9">
      <g>
       <use xlink:href="#m611a391127" x="50.14375" y="149.86651" style="stroke: #000000; stroke-width: 0.8"/>
      </g>
     </g>
     <g id="text_10">
      <!-- 0.02 -->
      <g transform="translate(20.878125 153.665729) scale(0.1 -0.1)">
       <use xlink:href="#DejaVuSans-30"/>
       <use xlink:href="#DejaVuSans-2e" x="63.623047"/>
       <use xlink:href="#DejaVuSans-30" x="95.410156"/>
       <use xlink:href="#DejaVuSans-32" x="159.033203"/>
      </g>
     </g>
    </g>
    <g id="ytick_4">
     <g id="line2d_10">
      <g>
       <use xlink:href="#m611a391127" x="50.14375" y="91.720179" style="stroke: #000000; stroke-width: 0.8"/>
      </g>
     </g>
     <g id="text_11">
      <!-- 0.03 -->
      <g transform="translate(20.878125 95.519398) scale(0.1 -0.1)">
       <defs>
        <path id="DejaVuSans-33" d="M 2597 2516 
Q 3050 2419 3304 2112 
Q 3559 1806 3559 1356 
Q 3559 666 3084 287 
Q 2609 -91 1734 -91 
Q 1441 -91 1130 -33 
Q 819 25 488 141 
L 488 750 
Q 750 597 1062 519 
Q 1375 441 1716 441 
Q 2309 441 2620 675 
Q 2931 909 2931 1356 
Q 2931 1769 2642 2001 
Q 2353 2234 1838 2234 
L 1294 2234 
L 1294 2753 
L 1863 2753 
Q 2328 2753 2575 2939 
Q 2822 3125 2822 3475 
Q 2822 3834 2567 4026 
Q 2313 4219 1838 4219 
Q 1578 4219 1281 4162 
Q 984 4106 628 3988 
L 628 4550 
Q 988 4650 1302 4700 
Q 1616 4750 1894 4750 
Q 2613 4750 3031 4423 
Q 3450 4097 3450 3541 
Q 3450 3153 3228 2886 
Q 3006 2619 2597 2516 
z
" transform="scale(0.015625)"/>
       </defs>
       <use xlink:href="#DejaVuSans-30"/>
       <use xlink:href="#DejaVuSans-2e" x="63.623047"/>
       <use xlink:href="#DejaVuSans-30" x="95.410156"/>
       <use xlink:href="#DejaVuSans-33" x="159.033203"/>
      </g>
     </g>
    </g>
    <g id="ytick_5">
     <g id="line2d_11">
      <g>
       <use xlink:href="#m611a391127" x="50.14375" y="33.573848" style="stroke: #000000; stroke-width: 0.8"/>
      </g>
     </g>
     <g id="text_12">
      <!-- 0.04 -->
      <g transform="translate(20.878125 37.373067) scale(0.1 -0.1)">
       <use xlink:href="#DejaVuSans-30"/>
       <use xlink:href="#DejaVuSans-2e" x="63.623047"/>
       <use xlink:href="#DejaVuSans-30" x="95.410156"/>
       <use xlink:href="#DejaVuSans-34" x="159.033203"/>
      </g>
     </g>
    </g>
    <g id="text_13">
     <!-- Frequency -->
     <g transform="translate(14.798438 181.203812) rotate(-90) scale(0.1 -0.1)">
      <defs>
       <path id="DejaVuSans-46" d="M 628 4666 
L 3309 4666 
L 3309 4134 
L 1259 4134 
L 1259 2759 
L 3109 2759 
L 3109 2228 
L 1259 2228 
L 1259 0 
L 628 0 
L 628 4666 
z
" transform="scale(0.015625)"/>
       <path id="DejaVuSans-72" d="M 2631 2963 
Q 2534 3019 2420 3045 
Q 2306 3072 2169 3072 
Q 1681 3072 1420 2755 
Q 1159 2438 1159 1844 
L 1159 0 
L 581 0 
L 581 3500 
L 1159 3500 
L 1159 2956 
Q 1341 3275 1631 3429 
Q 1922 3584 2338 3584 
Q 2397 3584 2469 3576 
Q 2541 3569 2628 3553 
L 2631 2963 
z
" transform="scale(0.015625)"/>
       <path id="DejaVuSans-71" d="M 947 1747 
Q 947 1113 1208 752 
Q 1469 391 1925 391 
Q 2381 391 2643 752 
Q 2906 1113 2906 1747 
Q 2906 2381 2643 2742 
Q 2381 3103 1925 3103 
Q 1469 3103 1208 2742 
Q 947 2381 947 1747 
z
M 2906 525 
Q 2725 213 2448 61 
Q 2172 -91 1784 -91 
Q 1150 -91 751 415 
Q 353 922 353 1747 
Q 353 2572 751 3078 
Q 1150 3584 1784 3584 
Q 2172 3584 2448 3432 
Q 2725 3281 2906 2969 
L 2906 3500 
L 3481 3500 
L 3481 -1331 
L 2906 -1331 
L 2906 525 
z
" transform="scale(0.015625)"/>
       <path id="DejaVuSans-6e" d="M 3513 2113 
L 3513 0 
L 2938 0 
L 2938 2094 
Q 2938 2591 2744 2837 
Q 2550 3084 2163 3084 
Q 1697 3084 1428 2787 
Q 1159 2491 1159 1978 
L 1159 0 
L 581 0 
L 581 3500 
L 1159 3500 
L 1159 2956 
Q 1366 3272 1645 3428 
Q 1925 3584 2291 3584 
Q 2894 3584 3203 3211 
Q 3513 2838 3513 2113 
z
" transform="scale(0.015625)"/>
       <path id="DejaVuSans-63" d="M 3122 3366 
L 3122 2828 
Q 2878 2963 2633 3030 
Q 2388 3097 2138 3097 
Q 1578 3097 1268 2742 
Q 959 2388 959 1747 
Q 959 1106 1268 751 
Q 1578 397 2138 397 
Q 2388 397 2633 464 
Q 2878 531 3122 666 
L 3122 134 
Q 2881 22 2623 -34 
Q 2366 -91 2075 -91 
Q 1284 -91 818 406 
Q 353 903 353 1747 
Q 353 2603 823 3093 
Q 1294 3584 2113 3584 
Q 2378 3584 2631 3529 
Q 2884 3475 3122 3366 
z
" transform="scale(0.015625)"/>
       <path id="DejaVuSans-79" d="M 2059 -325 
Q 1816 -950 1584 -1140 
Q 1353 -1331 966 -1331 
L 506 -1331 
L 506 -850 
L 844 -850 
Q 1081 -850 1212 -737 
Q 1344 -625 1503 -206 
L 1606 56 
L 191 3500 
L 800 3500 
L 1894 763 
L 2988 3500 
L 3597 3500 
L 2059 -325 
z
" transform="scale(0.015625)"/>
      </defs>
      <use xlink:href="#DejaVuSans-46"/>
      <use xlink:href="#DejaVuSans-72" x="50.269531"/>
      <use xlink:href="#DejaVuSans-65" x="89.132812"/>
      <use xlink:href="#DejaVuSans-71" x="150.65625"/>
      <use xlink:href="#DejaVuSans-75" x="214.132812"/>
      <use xlink:href="#DejaVuSans-65" x="277.511719"/>
      <use xlink:href="#DejaVuSans-6e" x="339.035156"/>
      <use xlink:href="#DejaVuSans-63" x="402.414062"/>
      <use xlink:href="#DejaVuSans-79" x="457.394531"/>
     </g>
    </g>
   </g>
   <g id="line2d_12">
    <path d="M 66.376477 268.922608 
L 69.491208 265.849741 
L 72.605939 264.502415 
L 75.72067 264.104059 
L 78.835401 263.993513 
L 81.950132 263.62438 
L 85.064862 262.561804 
L 88.179593 260.477144 
L 91.294324 257.141012 
L 94.409055 252.415036 
L 97.523786 246.24273 
L 100.638517 238.639765 
L 103.753248 229.683922 
L 106.867979 219.504972 
L 109.982709 208.274677 
L 113.09744 196.197096 
L 116.212171 183.49935 
L 119.326902 170.422942 
L 122.441633 157.215763 
L 125.556364 144.124822 
L 128.671095 131.389786 
L 131.785825 119.237334 
L 134.900556 107.876369 
L 138.015287 97.494068 
L 141.130018 88.252782 
L 144.244749 80.287735 
L 147.35948 73.705512 
L 150.474211 68.583283 
L 153.588942 64.968712 
L 156.703672 62.880496 
L 159.818403 62.309473 
L 162.933134 63.220233 
L 166.047865 65.55316 
L 169.162596 69.226845 
L 172.277327 74.140784 
L 175.392058 80.178307 
L 178.506788 87.209658 
L 181.621519 95.09516 
L 184.73625 103.688406 
L 187.850981 112.839409 
L 190.965712 122.397659 
L 194.080443 132.215029 
L 197.195174 142.148485 
L 200.309905 152.06256 
L 203.424635 161.831548 
L 206.539366 171.341406 
L 209.654097 180.491308 
L 212.768828 189.19487 
L 215.883559 197.381005 
L 218.99829 266.139846 
L 222.113021 266.141135 
L 225.227751 218.038599 
L 228.342482 223.808259 
L 231.457213 228.954661 
L 234.571944 233.493683 
L 237.686675 237.452274 
L 240.801406 240.866967 
L 243.916137 243.782244 
L 247.030868 246.248777 
L 250.145598 248.32159 
L 253.260329 250.058188 
L 256.37506 251.516701 
L 259.489791 252.75407 
L 262.604522 253.824343 
L 265.719253 254.7771 
L 268.833984 255.656074 
L 271.948715 256.497981 
L 275.063445 257.331622 
L 278.178176 258.177261 
L 281.292907 259.046334 
L 284.407638 259.94148 
L 287.522369 260.856939 
L 290.6371 261.779288 
L 293.751831 262.688541 
L 296.866561 263.559581 
L 299.981292 264.363894 
L 303.096023 265.071583 
L 306.210754 265.65359 
L 309.325485 266.084061 
L 312.440216 266.342776 
L 315.554947 266.417526 
L 318.669678 266.306315 
L 321.784408 266.019247 
L 324.899139 265.579921 
L 328.01387 265.026137 
L 331.128601 264.409705 
L 334.243332 263.795085 
L 337.358063 263.256611 
L 340.472794 262.873953 
L 343.587524 262.725505 
L 346.702255 262.879299 
L 349.816986 263.38104 
L 352.931717 264.238799 
L 356.046448 265.40388 
L 359.161179 266.747304 
L 362.27591 268.031346 
L 365.390641 268.875473 
L 368.505371 268.716018 
L 371.620102 266.758851 
L 374.734833 261.924249 
" clip-path="url(#p0e6545f1c6)" style="fill: none; stroke: #1f77b4; stroke-width: 1.5; stroke-linecap: square"/>
   </g>
   <g id="line2d_13">
    <path d="M 66.376477 276.002807 
L 69.655803 263.738428 
L 72.935128 258.469117 
L 76.214453 257.264774 
L 79.493779 257.896621 
L 82.773104 258.724963 
L 86.052429 258.599756 
L 89.331755 256.772909 
L 92.61108 252.821365 
L 95.890405 246.580008 
L 99.169731 238.083536 
L 102.449056 227.516469 
L 105.728382 215.170526 
L 109.007707 201.408646 
L 112.287032 186.634977 
L 115.566358 171.270203 
L 118.845683 155.731624 
L 122.125008 140.417438 
L 125.404334 125.694724 
L 128.683659 111.890654 
L 131.962984 99.286509 
L 135.24231 88.114088 
L 138.521635 78.554169 
L 141.80096 70.736663 
L 145.080286 64.742185 
L 148.359611 60.604744 
L 151.638937 58.315329 
L 154.918262 57.826149 
L 158.197587 59.055345 
L 161.476913 61.891991 
L 164.756238 66.201238 
L 168.035563 71.829465 
L 171.314889 78.609322 
L 174.594214 86.364572 
L 177.873539 94.914652 
L 181.152865 104.078887 
L 184.43219 113.680308 
L 187.711515 123.549038 
L 190.990841 133.525215 
L 194.270166 143.461443 
L 197.549492 153.224768 
L 200.828817 162.69817 
L 204.108142 171.781597 
L 207.387468 180.392557 
L 210.666793 188.466285 
L 213.946118 195.955517 
L 217.225444 202.829918 
L 220.504769 209.075176 
L 223.784094 214.691837 
L 227.06342 266.143085 
L 230.342745 266.144641 
L 233.62207 227.278207 
L 236.901396 230.618064 
L 240.180721 233.535243 
L 243.460046 236.083046 
L 246.739372 238.315674 
L 250.018697 240.286534 
L 253.298023 242.046716 
L 256.577348 243.643657 
L 259.856673 245.120019 
L 263.135999 246.512798 
L 266.415324 247.852673 
L 269.694649 249.1636 
L 272.973975 250.462653 
L 276.2533 251.760108 
L 279.532625 253.059749 
L 282.811951 254.359395 
L 286.091276 255.65161 
L 289.370601 256.924589 
L 292.649927 258.163168 
L 295.929252 259.349943 
L 299.208578 260.46645 
L 302.487903 261.494371 
L 305.767228 262.416724 
L 309.046554 263.218989 
L 312.325879 263.890139 
L 315.605204 264.423518 
L 318.88453 264.817541 
L 322.163855 265.076161 
L 325.44318 265.209089 
L 328.722506 265.231709 
L 332.001831 265.164697 
L 335.281156 265.033301 
L 338.560482 264.866281 
L 341.839807 264.694525 
L 345.119133 264.549331 
L 348.398458 264.460403 
L 351.677783 264.453593 
L 354.957109 264.548443 
L 358.236434 264.755617 
L 361.515759 265.074307 
L 364.795085 265.489737 
L 368.07441 265.970909 
L 371.353735 266.46876 
L 374.633061 266.914919 
L 377.912386 267.221305 
L 381.191711 267.280817 
L 384.471037 266.96941 
L 387.750362 266.149894 
L 391.029688 264.677833 
" clip-path="url(#p0e6545f1c6)" style="fill: none; stroke: #ff7f0e; stroke-width: 1.5; stroke-linecap: square"/>
   </g>
   <g id="line2d_14">
    <path d="M 66.376477 256.37602 
L 69.655816 276.334125 
L 72.935155 275.579348 
L 76.214494 260.775619 
L 79.493833 237.170805 
L 82.773171 208.822057 
L 86.05251 178.79367 
L 89.331849 149.329975 
L 92.611188 122.005633 
L 95.890527 97.855522 
L 99.169866 77.486277 
L 102.449205 61.171384 
L 105.728543 48.931584 
L 109.007882 40.602236 
L 112.287221 35.889127 
L 115.56656 34.414125 
L 118.845899 35.751942 
L 122.125238 39.459167 
L 125.404576 45.096638 
L 128.683915 52.246108 
L 131.963254 60.522073 
L 135.242593 69.579563 
L 138.521932 79.118584 
L 141.801271 88.885848 
L 145.08061 98.674344 
L 148.359948 108.32125 
L 151.639287 117.704596 
L 154.918626 126.739074 
L 158.197965 135.371293 
L 161.477304 143.574759 
L 164.756643 151.344805 
L 168.035981 158.693651 
L 171.31532 165.64574 
L 174.594659 172.233467 
L 177.873998 178.493383 
L 181.153337 184.462918 
L 184.432676 190.177677 
L 187.712014 195.6693 
L 190.991353 200.96388 
L 194.270692 206.08093 
L 197.550031 211.032853 
L 200.82937 215.824867 
L 204.108709 220.455336 
L 207.388048 224.916451 
L 210.667386 229.195187 
L 213.946725 233.27448 
L 217.226064 237.134547 
L 220.505403 240.754294 
L 223.784742 244.112748 
L 227.064081 266.151956 
L 230.343419 266.152218 
L 233.622758 252.95063 
L 236.902097 255.184509 
L 240.181436 257.07005 
L 243.460775 258.609411 
L 246.740114 259.812559 
L 250.019452 260.697283 
L 253.298791 261.288885 
L 256.57813 261.61956 
L 259.857469 261.727484 
L 263.136808 261.655638 
L 266.416147 261.450408 
L 269.695486 261.159996 
L 272.974824 260.832713 
L 276.254163 260.515185 
L 279.533502 260.250569 
L 282.812841 260.076813 
L 286.09218 260.025056 
L 289.371519 260.118222 
L 292.650857 260.36989 
L 295.930196 260.783482 
L 299.209535 261.351866 
L 302.488874 262.057386 
L 305.768213 262.872391 
L 309.047552 263.760276 
L 312.32689 264.677051 
L 315.606229 265.573435 
L 318.885568 266.397444 
L 322.164907 267.09742 
L 325.444246 267.625417 
L 328.723585 267.940833 
L 332.002924 268.014133 
L 335.282262 267.830473 
L 338.561601 267.392985 
L 341.84094 266.725449 
L 345.120279 265.873992 
L 348.399618 264.907448 
L 351.678957 263.915888 
L 354.958295 263.006815 
L 358.237634 262.298417 
L 361.516973 261.909195 
L 364.796312 261.943214 
L 368.075651 262.470117 
L 371.35499 263.498957 
L 374.634329 264.944806 
L 377.913667 266.586977 
L 381.193006 268.017597 
L 384.472345 268.579136 
L 387.751684 267.289391 
L 391.031023 262.752253 
" clip-path="url(#p0e6545f1c6)" style="fill: none; stroke: #2ca02c; stroke-width: 1.5; stroke-linecap: square"/>
   </g>
   <g id="line2d_15">
    <path d="M 66.376477 256.445765 
L 69.655814 269.699729 
L 72.93515 273.829702 
L 76.214486 271.882176 
L 79.493822 266.115444 
L 82.773159 258.154395 
L 86.052495 249.122814 
L 89.331831 239.755561 
L 92.611168 230.492805 
L 95.890504 221.558373 
L 99.16984 213.024059 
L 102.449177 204.86163 
L 105.728513 196.984109 
L 109.007849 189.277776 
L 112.287185 181.626214 
L 115.566522 173.92758 
L 118.845858 166.106213 
L 122.125194 158.119518 
L 125.404531 149.961032 
L 128.683867 141.660425 
L 131.963203 133.281146 
L 135.24254 124.916302 
L 138.521876 116.68331 
L 141.801212 108.717766 
L 145.080549 101.166937 
L 148.359885 94.183178 
L 151.639221 87.917568 
L 154.918557 82.513968 
L 158.197894 78.103672 
L 161.47723 74.800785 
L 164.756566 72.698411 
L 168.035903 71.865707 
L 171.315239 72.345826 
L 174.594575 74.154742 
L 177.873912 77.280938 
L 181.153248 81.685903 
L 184.432584 87.305373 
L 187.71192 94.051253 
L 190.991257 101.814111 
L 194.270593 110.466168 
L 197.549929 119.864672 
L 200.829266 129.85556 
L 204.108602 140.277291 
L 207.387938 150.964763 
L 210.667275 161.753205 
L 213.946611 172.481948 
L 217.225947 182.997993 
L 220.505283 193.159289 
L 223.78462 202.837654 
L 227.063956 266.140376 
L 230.343292 266.141114 
L 233.622629 228.396681 
L 236.901965 235.321061 
L 240.181301 241.374027 
L 243.460638 246.542267 
L 246.739974 250.834231 
L 250.01931 254.279011 
L 253.298646 256.924699 
L 256.577983 258.836247 
L 259.857319 260.092901 
L 263.136655 260.78528 
L 266.415992 261.012153 
L 269.695328 260.877038 
L 272.974664 260.484679 
L 276.254001 259.93753 
L 279.533337 259.332332 
L 282.812673 258.756896 
L 286.09201 258.287193 
L 289.371346 257.984857 
L 292.650682 257.895196 
L 295.930018 258.045798 
L 299.209355 258.445819 
L 302.488691 259.086006 
L 305.768027 259.93951 
L 309.047364 260.963512 
L 312.3267 262.101669 
L 315.606036 263.287344 
L 318.885373 264.447576 
L 322.164709 265.507679 
L 325.444045 266.396344 
L 328.723381 267.051065 
L 332.002718 267.42365 
L 335.282054 267.485529 
L 338.56139 267.232518 
L 341.840727 266.688628 
L 345.120063 265.90842 
L 348.399399 264.977361 
L 351.678736 264.009522 
L 354.958072 263.1419 
L 358.237408 262.524516 
L 361.516744 262.305374 
L 364.796081 262.609235 
L 368.075417 263.509048 
L 371.354753 264.98877 
L 374.63409 266.896159 
L 377.913426 268.883999 
L 381.192762 270.338077 
L 384.472099 270.290053 
L 387.751435 267.313247 
L 391.030771 259.399151 
" clip-path="url(#p0e6545f1c6)" style="fill: none; stroke: #d62728; stroke-width: 1.5; stroke-linecap: square"/>
   </g>
   <g id="line2d_16">
    <path d="M 66.376477 259.265929 
L 69.443755 271.050889 
L 72.511032 273.948864 
L 75.57831 270.892881 
L 78.645587 264.07011 
L 81.712865 255.067404 
L 84.780142 244.995641 
L 87.84742 234.595131 
L 90.914697 224.32416 
L 93.981975 214.432583 
L 97.049252 205.022254 
L 100.11653 196.095906 
L 103.183807 187.595987 
L 106.251085 179.434803 
L 109.318362 171.517227 
L 112.38564 163.757078 
L 115.452917 156.088217 
L 118.520195 148.471249 
L 121.587472 140.896671 
L 124.65475 133.385175 
L 127.722027 125.985774 
L 130.789305 118.772295 
L 133.856582 111.838739 
L 136.92386 105.293936 
L 139.991137 99.255843 
L 143.058415 93.8458 
L 146.125692 89.182978 
L 149.19297 85.379228 
L 152.260247 82.534485 
L 155.327525 80.732834 
L 158.394803 80.03932 
L 161.46208 80.497552 
L 164.529358 82.128113 
L 167.596635 84.927764 
L 170.663913 88.869427 
L 173.73119 93.902885 
L 176.798468 99.956146 
L 179.865745 106.937394 
L 182.933023 114.737437 
L 186.0003 123.232576 
L 189.067578 132.287783 
L 192.134855 141.760102 
L 195.202133 151.502175 
L 198.26941 161.365788 
L 201.336688 171.205357 
L 204.403965 180.88127 
L 207.471243 190.262981 
L 210.53852 199.231819 
L 213.605798 207.683422 
L 216.673075 266.14125 
L 219.740353 266.142077 
L 222.80763 229.377736 
L 225.874908 235.171514 
L 228.942185 240.179763 
L 232.009463 244.405371 
L 235.07674 247.870051 
L 238.144018 250.613029 
L 241.211295 252.68926 
L 244.278573 254.167251 
L 247.34585 255.126515 
L 250.413128 255.65474 
L 253.480405 255.844751 
L 256.547683 255.791335 
L 259.61496 255.58802 
L 262.682238 255.323913 
L 265.749515 255.080679 
L 268.816793 254.929757 
L 271.88407 254.929924 
L 274.951348 255.125275 
L 278.018625 255.543731 
L 281.085903 256.196125 
L 284.15318 257.075961 
L 287.220458 258.159873 
L 290.287735 259.408833 
L 293.355013 260.770126 
L 296.42229 262.180071 
L 299.489568 263.567458 
L 302.556845 264.857639 
L 305.624123 265.97716 
L 308.6914 266.858801 
L 311.758678 267.446834 
L 314.825955 267.70227 
L 317.893233 267.607806 
L 320.96051 267.172128 
L 324.027788 266.433176 
L 327.095065 265.45988 
L 330.162343 264.351845 
L 333.22962 263.236335 
L 336.296898 262.261879 
L 339.364175 261.587677 
L 342.431453 261.367927 
L 345.49873 261.730083 
L 348.566008 262.745924 
L 351.633285 264.394244 
L 354.700563 266.513801 
L 357.767841 268.745078 
L 360.835118 270.45924 
L 363.902396 270.672564 
L 366.969673 267.944423 
L 370.036951 260.256808 
" clip-path="url(#p0e6545f1c6)" style="fill: none; stroke: #9467bd; stroke-width: 1.5; stroke-linecap: square"/>
   </g>
   <g id="line2d_17">
    <path d="M 66.376477 261.383787 
L 69.655814 268.049129 
L 72.935151 269.628268 
L 76.214489 266.569545 
L 79.493826 259.438111 
L 82.773163 248.871187 
L 86.0525 235.541207 
L 89.331837 220.125937 
L 92.611174 203.284768 
L 95.890511 185.640392 
L 99.169848 167.765174 
L 102.449185 150.17158 
L 105.728522 133.306061 
L 109.007859 117.545875 
L 112.287196 103.198342 
L 115.566534 90.502115 
L 118.845871 79.630055 
L 122.125208 70.693373 
L 125.404545 63.746721 
L 128.683882 58.793948 
L 131.963219 55.794297 
L 135.242556 54.668818 
L 138.521893 55.306829 
L 141.80123 57.572261 
L 145.080567 61.309776 
L 148.359904 66.350545 
L 151.639241 72.517598 
L 154.918579 79.630707 
L 158.197916 87.510733 
L 161.477253 95.983423 
L 164.75659 104.882637 
L 168.035927 114.053014 
L 171.315264 123.35207 
L 174.594601 132.651757 
L 177.873938 141.83952 
L 181.153275 150.818865 
L 184.432612 159.509493 
L 187.711949 167.847044 
L 190.991286 175.782495 
L 194.270624 183.281253 
L 197.549961 190.322018 
L 200.829298 196.895441 
L 204.108635 203.002642 
L 207.387972 208.653634 
L 210.667309 213.865703 
L 213.946646 218.66178 
L 217.225983 223.068855 
L 220.50532 227.11647 
L 223.784657 230.835312 
L 227.063994 266.149675 
L 230.343331 266.150461 
L 233.622669 240.71866 
L 236.902006 243.390784 
L 240.181343 245.846651 
L 243.46068 248.105579 
L 246.740017 250.183911 
L 250.019354 252.094948 
L 253.298691 253.849035 
L 256.578028 255.45378 
L 259.857365 256.914389 
L 263.136702 258.234106 
L 266.416039 259.414737 
L 269.695376 260.457224 
L 272.974714 261.362258 
L 276.254051 262.130897 
L 279.533388 262.765166 
L 282.812725 263.268609 
L 286.092062 263.646765 
L 289.371399 263.90755 
L 292.650736 264.061512 
L 295.930073 264.121944 
L 299.20941 264.104835 
L 302.488747 264.028644 
L 305.768084 263.91389 
L 309.047421 263.782558 
L 312.326759 263.657322 
L 315.606096 263.560594 
L 318.885433 263.513436 
L 322.16477 263.534347 
L 325.444107 263.637985 
L 328.723444 263.833873 
L 332.002781 264.125166 
L 335.282118 264.507551 
L 338.561455 264.968405 
L 341.840792 265.486311 
L 345.120129 266.031085 
L 348.399466 266.564475 
L 351.678804 267.041714 
L 354.958141 267.414131 
L 358.237478 267.633074 
L 361.516815 267.655382 
L 364.796152 267.450719 
L 368.075489 267.011088 
L 371.354826 266.362875 
L 374.634163 265.581827 
L 377.9135 264.81138 
L 381.192837 264.284818 
L 384.472174 264.351762 
L 387.751511 265.509547 
L 391.030849 268.440083 
" clip-path="url(#p0e6545f1c6)" style="fill: none; stroke: #8c564b; stroke-width: 1.5; stroke-linecap: square"/>
   </g>
   <g id="patch_3">
    <path d="M 50.14375 288.430125 
L 50.14375 22.318125 
" style="fill: none; stroke: #000000; stroke-width: 0.8; stroke-linejoin: miter; stroke-linecap: square"/>
   </g>
   <g id="patch_4">
    <path d="M 407.26375 288.430125 
L 407.26375 22.318125 
" style="fill: none; stroke: #000000; stroke-width: 0.8; stroke-linejoin: miter; stroke-linecap: square"/>
   </g>
   <g id="patch_5">
    <path d="M 50.14375 288.430125 
L 407.26375 288.430125 
" style="fill: none; stroke: #000000; stroke-width: 0.8; stroke-linejoin: miter; stroke-linecap: square"/>
   </g>
   <g id="patch_6">
    <path d="M 50.14375 22.318125 
L 407.26375 22.318125 
" style="fill: none; stroke: #000000; stroke-width: 0.8; stroke-linejoin: miter; stroke-linecap: square"/>
   </g>
   <g id="text_14">
    <!-- FA - harvardoxford-subcortical_prob_Left_Thalamus -->
    <g transform="translate(75.2125 16.318125) scale(0.12 -0.12)">
     <defs>
      <path id="DejaVuSans-41" d="M 2188 4044 
L 1331 1722 
L 3047 1722 
L 2188 4044 
z
M 1831 4666 
L 2547 4666 
L 4325 0 
L 3669 0 
L 3244 1197 
L 1141 1197 
L 716 0 
L 50 0 
L 1831 4666 
z
" transform="scale(0.015625)"/>
      <path id="DejaVuSans-2d" d="M 313 2009 
L 1997 2009 
L 1997 1497 
L 313 1497 
L 313 2009 
z
" transform="scale(0.015625)"/>
      <path id="DejaVuSans-68" d="M 3513 2113 
L 3513 0 
L 2938 0 
L 2938 2094 
Q 2938 2591 2744 2837 
Q 2550 3084 2163 3084 
Q 1697 3084 1428 2787 
Q 1159 2491 1159 1978 
L 1159 0 
L 581 0 
L 581 4863 
L 1159 4863 
L 1159 2956 
Q 1366 3272 1645 3428 
Q 1925 3584 2291 3584 
Q 2894 3584 3203 3211 
Q 3513 2838 3513 2113 
z
" transform="scale(0.015625)"/>
      <path id="DejaVuSans-64" d="M 2906 2969 
L 2906 4863 
L 3481 4863 
L 3481 0 
L 2906 0 
L 2906 525 
Q 2725 213 2448 61 
Q 2172 -91 1784 -91 
Q 1150 -91 751 415 
Q 353 922 353 1747 
Q 353 2572 751 3078 
Q 1150 3584 1784 3584 
Q 2172 3584 2448 3432 
Q 2725 3281 2906 2969 
z
M 947 1747 
Q 947 1113 1208 752 
Q 1469 391 1925 391 
Q 2381 391 2643 752 
Q 2906 1113 2906 1747 
Q 2906 2381 2643 2742 
Q 2381 3103 1925 3103 
Q 1469 3103 1208 2742 
Q 947 2381 947 1747 
z
" transform="scale(0.015625)"/>
      <path id="DejaVuSans-6f" d="M 1959 3097 
Q 1497 3097 1228 2736 
Q 959 2375 959 1747 
Q 959 1119 1226 758 
Q 1494 397 1959 397 
Q 2419 397 2687 759 
Q 2956 1122 2956 1747 
Q 2956 2369 2687 2733 
Q 2419 3097 1959 3097 
z
M 1959 3584 
Q 2709 3584 3137 3096 
Q 3566 2609 3566 1747 
Q 3566 888 3137 398 
Q 2709 -91 1959 -91 
Q 1206 -91 779 398 
Q 353 888 353 1747 
Q 353 2609 779 3096 
Q 1206 3584 1959 3584 
z
" transform="scale(0.015625)"/>
      <path id="DejaVuSans-66" d="M 2375 4863 
L 2375 4384 
L 1825 4384 
Q 1516 4384 1395 4259 
Q 1275 4134 1275 3809 
L 1275 3500 
L 2222 3500 
L 2222 3053 
L 1275 3053 
L 1275 0 
L 697 0 
L 697 3053 
L 147 3053 
L 147 3500 
L 697 3500 
L 697 3744 
Q 697 4328 969 4595 
Q 1241 4863 1831 4863 
L 2375 4863 
z
" transform="scale(0.015625)"/>
      <path id="DejaVuSans-62" d="M 3116 1747 
Q 3116 2381 2855 2742 
Q 2594 3103 2138 3103 
Q 1681 3103 1420 2742 
Q 1159 2381 1159 1747 
Q 1159 1113 1420 752 
Q 1681 391 2138 391 
Q 2594 391 2855 752 
Q 3116 1113 3116 1747 
z
M 1159 2969 
Q 1341 3281 1617 3432 
Q 1894 3584 2278 3584 
Q 2916 3584 3314 3078 
Q 3713 2572 3713 1747 
Q 3713 922 3314 415 
Q 2916 -91 2278 -91 
Q 1894 -91 1617 61 
Q 1341 213 1159 525 
L 1159 0 
L 581 0 
L 581 4863 
L 1159 4863 
L 1159 2969 
z
" transform="scale(0.015625)"/>
      <path id="DejaVuSans-74" d="M 1172 4494 
L 1172 3500 
L 2356 3500 
L 2356 3053 
L 1172 3053 
L 1172 1153 
Q 1172 725 1289 603 
Q 1406 481 1766 481 
L 2356 481 
L 2356 0 
L 1766 0 
Q 1100 0 847 248 
Q 594 497 594 1153 
L 594 3053 
L 172 3053 
L 172 3500 
L 594 3500 
L 594 4494 
L 1172 4494 
z
" transform="scale(0.015625)"/>
      <path id="DejaVuSans-5f" d="M 3263 -1063 
L 3263 -1509 
L -63 -1509 
L -63 -1063 
L 3263 -1063 
z
" transform="scale(0.015625)"/>
      <path id="DejaVuSans-70" d="M 1159 525 
L 1159 -1331 
L 581 -1331 
L 581 3500 
L 1159 3500 
L 1159 2969 
Q 1341 3281 1617 3432 
Q 1894 3584 2278 3584 
Q 2916 3584 3314 3078 
Q 3713 2572 3713 1747 
Q 3713 922 3314 415 
Q 2916 -91 2278 -91 
Q 1894 -91 1617 61 
Q 1341 213 1159 525 
z
M 3116 1747 
Q 3116 2381 2855 2742 
Q 2594 3103 2138 3103 
Q 1681 3103 1420 2742 
Q 1159 2381 1159 1747 
Q 1159 1113 1420 752 
Q 1681 391 2138 391 
Q 2594 391 2855 752 
Q 3116 1113 3116 1747 
z
" transform="scale(0.015625)"/>
      <path id="DejaVuSans-4c" d="M 628 4666 
L 1259 4666 
L 1259 531 
L 3531 531 
L 3531 0 
L 628 0 
L 628 4666 
z
" transform="scale(0.015625)"/>
      <path id="DejaVuSans-54" d="M -19 4666 
L 3928 4666 
L 3928 4134 
L 2272 4134 
L 2272 0 
L 1638 0 
L 1638 4134 
L -19 4134 
L -19 4666 
z
" transform="scale(0.015625)"/>
      <path id="DejaVuSans-6d" d="M 3328 2828 
Q 3544 3216 3844 3400 
Q 4144 3584 4550 3584 
Q 5097 3584 5394 3201 
Q 5691 2819 5691 2113 
L 5691 0 
L 5113 0 
L 5113 2094 
Q 5113 2597 4934 2840 
Q 4756 3084 4391 3084 
Q 3944 3084 3684 2787 
Q 3425 2491 3425 1978 
L 3425 0 
L 2847 0 
L 2847 2094 
Q 2847 2600 2669 2842 
Q 2491 3084 2119 3084 
Q 1678 3084 1418 2786 
Q 1159 2488 1159 1978 
L 1159 0 
L 581 0 
L 581 3500 
L 1159 3500 
L 1159 2956 
Q 1356 3278 1631 3431 
Q 1906 3584 2284 3584 
Q 2666 3584 2933 3390 
Q 3200 3197 3328 2828 
z
" transform="scale(0.015625)"/>
     </defs>
     <use xlink:href="#DejaVuSans-46"/>
     <use xlink:href="#DejaVuSans-41" x="48.394531"/>
     <use xlink:href="#DejaVuSans-20" x="116.802734"/>
     <use xlink:href="#DejaVuSans-2d" x="148.589844"/>
     <use xlink:href="#DejaVuSans-20" x="184.673828"/>
     <use xlink:href="#DejaVuSans-68" x="216.460938"/>
     <use xlink:href="#DejaVuSans-61" x="279.839844"/>
     <use xlink:href="#DejaVuSans-72" x="341.119141"/>
     <use xlink:href="#DejaVuSans-76" x="382.232422"/>
     <use xlink:href="#DejaVuSans-61" x="441.412109"/>
     <use xlink:href="#DejaVuSans-72" x="502.691406"/>
     <use xlink:href="#DejaVuSans-64" x="542.054688"/>
     <use xlink:href="#DejaVuSans-6f" x="605.53125"/>
     <use xlink:href="#DejaVuSans-78" x="663.587891"/>
     <use xlink:href="#DejaVuSans-66" x="722.767578"/>
     <use xlink:href="#DejaVuSans-6f" x="757.972656"/>
     <use xlink:href="#DejaVuSans-72" x="819.154297"/>
     <use xlink:href="#DejaVuSans-64" x="858.517578"/>
     <use xlink:href="#DejaVuSans-2d" x="921.994141"/>
     <use xlink:href="#DejaVuSans-73" x="958.078125"/>
     <use xlink:href="#DejaVuSans-75" x="1010.177734"/>
     <use xlink:href="#DejaVuSans-62" x="1073.556641"/>
     <use xlink:href="#DejaVuSans-63" x="1137.033203"/>
     <use xlink:href="#DejaVuSans-6f" x="1192.013672"/>
     <use xlink:href="#DejaVuSans-72" x="1253.195312"/>
     <use xlink:href="#DejaVuSans-74" x="1294.308594"/>
     <use xlink:href="#DejaVuSans-69" x="1333.517578"/>
     <use xlink:href="#DejaVuSans-63" x="1361.300781"/>
     <use xlink:href="#DejaVuSans-61" x="1416.28125"/>
     <use xlink:href="#DejaVuSans-6c" x="1477.560547"/>
     <use xlink:href="#DejaVuSans-5f" x="1505.34375"/>
     <use xlink:href="#DejaVuSans-70" x="1555.34375"/>
     <use xlink:href="#DejaVuSans-72" x="1618.820312"/>
     <use xlink:href="#DejaVuSans-6f" x="1657.683594"/>
     <use xlink:href="#DejaVuSans-62" x="1718.865234"/>
     <use xlink:href="#DejaVuSans-5f" x="1782.341797"/>
     <use xlink:href="#DejaVuSans-4c" x="1832.341797"/>
     <use xlink:href="#DejaVuSans-65" x="1886.304688"/>
     <use xlink:href="#DejaVuSans-66" x="1947.828125"/>
     <use xlink:href="#DejaVuSans-74" x="1981.283203"/>
     <use xlink:href="#DejaVuSans-5f" x="2020.492188"/>
     <use xlink:href="#DejaVuSans-54" x="2070.492188"/>
     <use xlink:href="#DejaVuSans-68" x="2131.576172"/>
     <use xlink:href="#DejaVuSans-61" x="2194.955078"/>
     <use xlink:href="#DejaVuSans-6c" x="2256.234375"/>
     <use xlink:href="#DejaVuSans-61" x="2284.017578"/>
     <use xlink:href="#DejaVuSans-6d" x="2345.296875"/>
     <use xlink:href="#DejaVuSans-75" x="2442.708984"/>
     <use xlink:href="#DejaVuSans-73" x="2506.087891"/>
    </g>
   </g>
   <g id="legend_1">
    <g id="patch_7">
     <path d="M 449.97575 146.666825 
L 547.832 146.666825 
Q 549.832 146.666825 549.832 144.666825 
L 549.832 55.929325 
Q 549.832 53.929325 547.832 53.929325 
L 449.97575 53.929325 
Q 447.97575 53.929325 447.97575 55.929325 
L 447.97575 144.666825 
Q 447.97575 146.666825 449.97575 146.666825 
z
" style="fill: #ffffff; opacity: 0.8; stroke: #cccccc; stroke-linejoin: miter"/>
    </g>
    <g id="line2d_18">
     <path d="M 451.97575 62.027762 
L 461.97575 62.027762 
L 471.97575 62.027762 
" style="fill: none; stroke: #1f77b4; stroke-width: 1.5; stroke-linecap: square"/>
    </g>
    <g id="text_15">
     <!-- 20_06_02_E3 -->
     <g transform="translate(479.97575 65.527762) scale(0.1 -0.1)">
      <defs>
       <path id="DejaVuSans-45" d="M 628 4666 
L 3578 4666 
L 3578 4134 
L 1259 4134 
L 1259 2753 
L 3481 2753 
L 3481 2222 
L 1259 2222 
L 1259 531 
L 3634 531 
L 3634 0 
L 628 0 
L 628 4666 
z
" transform="scale(0.015625)"/>
      </defs>
      <use xlink:href="#DejaVuSans-32"/>
      <use xlink:href="#DejaVuSans-30" x="63.623047"/>
      <use xlink:href="#DejaVuSans-5f" x="127.246094"/>
      <use xlink:href="#DejaVuSans-30" x="177.246094"/>
      <use xlink:href="#DejaVuSans-36" x="240.869141"/>
      <use xlink:href="#DejaVuSans-5f" x="304.492188"/>
      <use xlink:href="#DejaVuSans-30" x="354.492188"/>
      <use xlink:href="#DejaVuSans-32" x="418.115234"/>
      <use xlink:href="#DejaVuSans-5f" x="481.738281"/>
      <use xlink:href="#DejaVuSans-45" x="531.738281"/>
      <use xlink:href="#DejaVuSans-33" x="594.921875"/>
     </g>
    </g>
    <g id="line2d_19">
     <path d="M 451.97575 76.984013 
L 461.97575 76.984013 
L 471.97575 76.984013 
" style="fill: none; stroke: #ff7f0e; stroke-width: 1.5; stroke-linecap: square"/>
    </g>
    <g id="text_16">
     <!-- 20_05_01_E3 -->
     <g transform="translate(479.97575 80.484013) scale(0.1 -0.1)">
      <defs>
       <path id="DejaVuSans-35" d="M 691 4666 
L 3169 4666 
L 3169 4134 
L 1269 4134 
L 1269 2991 
Q 1406 3038 1543 3061 
Q 1681 3084 1819 3084 
Q 2600 3084 3056 2656 
Q 3513 2228 3513 1497 
Q 3513 744 3044 326 
Q 2575 -91 1722 -91 
Q 1428 -91 1123 -41 
Q 819 9 494 109 
L 494 744 
Q 775 591 1075 516 
Q 1375 441 1709 441 
Q 2250 441 2565 725 
Q 2881 1009 2881 1497 
Q 2881 1984 2565 2268 
Q 2250 2553 1709 2553 
Q 1456 2553 1204 2497 
Q 953 2441 691 2322 
L 691 4666 
z
" transform="scale(0.015625)"/>
      </defs>
      <use xlink:href="#DejaVuSans-32"/>
      <use xlink:href="#DejaVuSans-30" x="63.623047"/>
      <use xlink:href="#DejaVuSans-5f" x="127.246094"/>
      <use xlink:href="#DejaVuSans-30" x="177.246094"/>
      <use xlink:href="#DejaVuSans-35" x="240.869141"/>
      <use xlink:href="#DejaVuSans-5f" x="304.492188"/>
      <use xlink:href="#DejaVuSans-30" x="354.492188"/>
      <use xlink:href="#DejaVuSans-31" x="418.115234"/>
      <use xlink:href="#DejaVuSans-5f" x="481.738281"/>
      <use xlink:href="#DejaVuSans-45" x="531.738281"/>
      <use xlink:href="#DejaVuSans-33" x="594.921875"/>
     </g>
    </g>
    <g id="line2d_20">
     <path d="M 451.97575 91.940262 
L 461.97575 91.940262 
L 471.97575 91.940262 
" style="fill: none; stroke: #2ca02c; stroke-width: 1.5; stroke-linecap: square"/>
    </g>
    <g id="text_17">
     <!-- 20_02_02_E3 -->
     <g transform="translate(479.97575 95.440262) scale(0.1 -0.1)">
      <use xlink:href="#DejaVuSans-32"/>
      <use xlink:href="#DejaVuSans-30" x="63.623047"/>
      <use xlink:href="#DejaVuSans-5f" x="127.246094"/>
      <use xlink:href="#DejaVuSans-30" x="177.246094"/>
      <use xlink:href="#DejaVuSans-32" x="240.869141"/>
      <use xlink:href="#DejaVuSans-5f" x="304.492188"/>
      <use xlink:href="#DejaVuSans-30" x="354.492188"/>
      <use xlink:href="#DejaVuSans-32" x="418.115234"/>
      <use xlink:href="#DejaVuSans-5f" x="481.738281"/>
      <use xlink:href="#DejaVuSans-45" x="531.738281"/>
      <use xlink:href="#DejaVuSans-33" x="594.921875"/>
     </g>
    </g>
    <g id="line2d_21">
     <path d="M 451.97575 106.896513 
L 461.97575 106.896513 
L 471.97575 106.896513 
" style="fill: none; stroke: #d62728; stroke-width: 1.5; stroke-linecap: square"/>
    </g>
    <g id="text_18">
     <!-- 20_10_02_E3 -->
     <g transform="translate(479.97575 110.396513) scale(0.1 -0.1)">
      <use xlink:href="#DejaVuSans-32"/>
      <use xlink:href="#DejaVuSans-30" x="63.623047"/>
      <use xlink:href="#DejaVuSans-5f" x="127.246094"/>
      <use xlink:href="#DejaVuSans-31" x="177.246094"/>
      <use xlink:href="#DejaVuSans-30" x="240.869141"/>
      <use xlink:href="#DejaVuSans-5f" x="304.492188"/>
      <use xlink:href="#DejaVuSans-30" x="354.492188"/>
      <use xlink:href="#DejaVuSans-32" x="418.115234"/>
      <use xlink:href="#DejaVuSans-5f" x="481.738281"/>
      <use xlink:href="#DejaVuSans-45" x="531.738281"/>
      <use xlink:href="#DejaVuSans-33" x="594.921875"/>
     </g>
    </g>
    <g id="line2d_22">
     <path d="M 451.97575 121.852762 
L 461.97575 121.852762 
L 471.97575 121.852762 
" style="fill: none; stroke: #9467bd; stroke-width: 1.5; stroke-linecap: square"/>
    </g>
    <g id="text_19">
     <!-- 20_08_02_E3 -->
     <g transform="translate(479.97575 125.352762) scale(0.1 -0.1)">
      <use xlink:href="#DejaVuSans-32"/>
      <use xlink:href="#DejaVuSans-30" x="63.623047"/>
      <use xlink:href="#DejaVuSans-5f" x="127.246094"/>
      <use xlink:href="#DejaVuSans-30" x="177.246094"/>
      <use xlink:href="#DejaVuSans-38" x="240.869141"/>
      <use xlink:href="#DejaVuSans-5f" x="304.492188"/>
      <use xlink:href="#DejaVuSans-30" x="354.492188"/>
      <use xlink:href="#DejaVuSans-32" x="418.115234"/>
      <use xlink:href="#DejaVuSans-5f" x="481.738281"/>
      <use xlink:href="#DejaVuSans-45" x="531.738281"/>
      <use xlink:href="#DejaVuSans-33" x="594.921875"/>
     </g>
    </g>
    <g id="line2d_23">
     <path d="M 451.97575 136.809012 
L 461.97575 136.809012 
L 471.97575 136.809012 
" style="fill: none; stroke: #8c564b; stroke-width: 1.5; stroke-linecap: square"/>
    </g>
    <g id="text_20">
     <!-- 20_11_02_E3 -->
     <g transform="translate(479.97575 140.309012) scale(0.1 -0.1)">
      <use xlink:href="#DejaVuSans-32"/>
      <use xlink:href="#DejaVuSans-30" x="63.623047"/>
      <use xlink:href="#DejaVuSans-5f" x="127.246094"/>
      <use xlink:href="#DejaVuSans-31" x="177.246094"/>
      <use xlink:href="#DejaVuSans-31" x="240.869141"/>
      <use xlink:href="#DejaVuSans-5f" x="304.492188"/>
      <use xlink:href="#DejaVuSans-30" x="354.492188"/>
      <use xlink:href="#DejaVuSans-32" x="418.115234"/>
      <use xlink:href="#DejaVuSans-5f" x="481.738281"/>
      <use xlink:href="#DejaVuSans-45" x="531.738281"/>
      <use xlink:href="#DejaVuSans-33" x="594.921875"/>
     </g>
    </g>
   </g>
  </g>
 </g>
 <defs>
  <clipPath id="p0e6545f1c6">
   <rect x="50.14375" y="22.318125" width="357.12" height="266.112"/>
  </clipPath>
 </defs>
</svg>
