<?xml version="1.0" encoding="utf-8" standalone="no"?>
<!DOCTYPE svg PUBLIC "-//W3C//DTD SVG 1.1//EN"
  "http://www.w3.org/Graphics/SVG/1.1/DTD/svg11.dtd">
<svg xmlns:xlink="http://www.w3.org/1999/xlink" width="557.032pt" height="325.986375pt" viewBox="0 0 557.032 325.986375" xmlns="http://www.w3.org/2000/svg" version="1.1">
 <metadata>
  <rdf:RDF xmlns:dc="http://purl.org/dc/elements/1.1/" xmlns:cc="http://creativecommons.org/ns#" xmlns:rdf="http://www.w3.org/1999/02/22-rdf-syntax-ns#">
   <cc:Work>
    <dc:type rdf:resource="http://purl.org/dc/dcmitype/StillImage"/>
    <dc:date>2023-02-07T23:00:12.163672</dc:date>
    <dc:format>image/svg+xml</dc:format>
    <dc:creator>
     <cc:Agent>
      <dc:title>Matplotlib v3.6.2, https://matplotlib.org/</dc:title>
     </cc:Agent>
    </dc:creator>
   </cc:Work>
  </rdf:RDF>
 </metadata>
 <defs>
  <style type="text/css">*{stroke-linejoin: round; stroke-linecap: butt}</style>
 </defs>
 <g id="figure_1">
  <g id="patch_1">
   <path d="M 0 325.986375 
L 557.032 325.986375 
L 557.032 0 
L 0 0 
z
" style="fill: #ffffff"/>
  </g>
  <g id="axes_1">
   <g id="patch_2">
    <path d="M 50.14375 288.430125 
L 407.26375 288.430125 
L 407.26375 22.318125 
L 50.14375 22.318125 
z
" style="fill: #ffffff"/>
   </g>
   <g id="PolyCollection_1">
    <path d="M 66.376477 247.390978 
L 66.376477 261.919084 
L 69.621401 261.919084 
L 72.866325 261.919084 
L 76.11125 261.919084 
L 79.356174 261.919084 
L 82.601098 261.919084 
L 85.846022 261.919084 
L 89.090946 261.919084 
L 92.33587 261.919084 
L 95.580794 261.919084 
L 98.825718 261.919084 
L 102.070642 261.919084 
L 105.315566 261.919084 
L 108.560491 261.919084 
L 111.805415 261.919084 
L 115.050339 261.919084 
L 118.295263 261.919084 
L 121.540187 261.919084 
L 124.785111 261.919084 
L 128.030035 261.919084 
L 131.274959 261.919084 
L 134.519883 261.919084 
L 137.764807 261.919084 
L 141.009732 261.919084 
L 144.254656 261.919084 
L 147.49958 261.919084 
L 150.744504 261.919084 
L 153.989428 261.919084 
L 157.234352 261.919084 
L 160.479276 261.919084 
L 163.7242 261.919084 
L 166.969124 261.919084 
L 170.214048 261.919084 
L 173.458973 261.919084 
L 176.703897 261.919084 
L 179.948821 261.919084 
L 183.193745 261.919084 
L 186.438669 261.919084 
L 189.683593 261.919084 
L 192.928517 261.919084 
L 196.173441 261.919084 
L 199.418365 261.919084 
L 202.66329 261.919084 
L 205.908214 261.919084 
L 209.153138 261.919084 
L 212.398062 261.919084 
L 215.642986 261.919084 
L 218.88791 261.919084 
L 222.132834 261.919084 
L 225.377758 261.919084 
L 228.622682 261.919084 
L 231.867606 261.919084 
L 235.112531 261.919084 
L 238.357455 261.919084 
L 241.602379 261.919084 
L 244.847303 261.919084 
L 248.092227 261.919084 
L 251.337151 261.919084 
L 254.582075 261.919084 
L 257.826999 261.919084 
L 261.071923 261.919084 
L 264.316847 261.919084 
L 267.561772 261.919084 
L 270.806696 261.919084 
L 274.05162 261.919084 
L 277.296544 261.919084 
L 280.541468 261.919084 
L 283.786392 261.919084 
L 287.031316 261.919084 
L 290.27624 261.919084 
L 293.521164 261.919084 
L 296.766088 261.919084 
L 300.011013 261.919084 
L 303.255937 261.919084 
L 306.500861 261.919084 
L 309.745785 261.919084 
L 312.990709 261.919084 
L 316.235633 261.919084 
L 319.480557 261.919084 
L 322.725481 261.919084 
L 325.970405 261.919084 
L 329.215329 261.919084 
L 332.460254 261.919084 
L 335.705178 261.919084 
L 338.950102 261.919084 
L 342.195026 261.919084 
L 345.43995 261.919084 
L 348.684874 261.919084 
L 351.929798 261.919084 
L 355.174722 261.919084 
L 358.419646 261.919084 
L 361.66457 261.919084 
L 364.909495 261.919084 
L 368.154419 261.919084 
L 371.399343 261.919084 
L 374.644267 261.919084 
L 377.889191 261.919084 
L 381.134115 261.919084 
L 384.379039 261.919084 
L 387.623963 261.919084 
L 387.623963 249.201236 
L 387.623963 249.201236 
L 384.379039 266.317001 
L 381.134115 272.230551 
L 377.889191 271.60011 
L 374.644267 267.729678 
L 371.399343 262.854648 
L 368.154419 258.383228 
L 364.909495 255.098599 
L 361.66457 253.326383 
L 358.419646 253.07162 
L 355.174722 254.129103 
L 351.929798 256.170606 
L 348.684874 258.81222 
L 345.43995 261.6647 
L 342.195026 264.369489 
L 338.950102 266.622776 
L 335.705178 268.189738 
L 332.460254 268.910851 
L 329.215329 268.701962 
L 325.970405 267.549604 
L 322.725481 265.502837 
L 319.480557 262.66274 
L 316.235633 259.170499 
L 312.990709 255.194904 
L 309.745785 250.91991 
L 306.500861 246.532812 
L 303.255937 242.213446 
L 300.011013 238.124751 
L 296.766088 234.404904 
L 293.521164 231.16119 
L 290.27624 228.465652 
L 287.031316 226.352557 
L 283.786392 224.817594 
L 280.541468 223.818735 
L 277.296544 223.278601 
L 274.05162 223.088173 
L 270.806696 223.111651 
L 267.561772 223.192242 
L 264.316847 223.158658 
L 261.071923 222.832092 
L 257.826999 222.033429 
L 254.582075 220.590478 
L 251.337151 218.344986 
L 248.092227 215.159242 
L 244.847303 210.922073 
L 241.602379 205.55405 
L 238.357455 199.011772 
L 235.112531 191.291089 
L 231.867606 182.429166 
L 228.622682 261.890291 
L 225.377758 261.889932 
L 222.132834 150.294218 
L 218.88791 138.319247 
L 215.642986 125.97112 
L 212.398062 113.498403 
L 209.153138 101.17212 
L 205.908214 89.278918 
L 202.66329 78.113474 
L 199.418365 67.970305 
L 196.173441 59.135206 
L 192.928517 51.876492 
L 189.683593 46.436316 
L 186.438669 43.02227 
L 183.193745 41.799544 
L 179.948821 42.883878 
L 176.703897 46.335572 
L 173.458973 52.154785 
L 170.214048 60.278366 
L 166.969124 70.578413 
L 163.7242 82.862765 
L 160.479276 96.877558 
L 157.234352 112.311974 
L 153.989428 128.805236 
L 150.744504 145.955861 
L 147.49958 163.333115 
L 144.254656 180.490523 
L 141.009732 196.981246 
L 137.764807 212.374977 
L 134.519883 226.275978 
L 131.274959 238.341698 
L 128.030035 248.301335 
L 124.785111 255.973544 
L 121.540187 261.282335 
L 118.295263 264.270073 
L 115.050339 265.106283 
L 111.805415 264.090795 
L 108.560491 261.649563 
L 105.315566 258.321248 
L 102.070642 254.732474 
L 98.825718 251.559361 
L 95.580794 249.472728 
L 92.33587 249.064052 
L 89.090946 250.748983 
L 85.846022 254.644916 
L 82.601098 260.418767 
L 79.356174 267.100797 
L 76.11125 272.859913 
L 72.866325 274.73555 
L 69.621401 268.320788 
L 66.376477 247.390978 
z
" clip-path="url(#p6616a71e7c)" style="fill: #1f77b4; fill-opacity: 0.166667"/>
   </g>
   <g id="PolyCollection_2">
    <path d="M 66.376477 275.445158 
L 66.376477 261.919084 
L 69.020358 261.919084 
L 71.664239 261.919084 
L 74.308119 261.919084 
L 76.952 261.919084 
L 79.595881 261.919084 
L 82.239762 261.919084 
L 84.883642 261.919084 
L 87.527523 261.919084 
L 90.171404 261.919084 
L 92.815284 261.919084 
L 95.459165 261.919084 
L 98.103046 261.919084 
L 100.746927 261.919084 
L 103.390807 261.919084 
L 106.034688 261.919084 
L 108.678569 261.919084 
L 111.322449 261.919084 
L 113.96633 261.919084 
L 116.610211 261.919084 
L 119.254091 261.919084 
L 121.897972 261.919084 
L 124.541853 261.919084 
L 127.185734 261.919084 
L 129.829614 261.919084 
L 132.473495 261.919084 
L 135.117376 261.919084 
L 137.761256 261.919084 
L 140.405137 261.919084 
L 143.049018 261.919084 
L 145.692899 261.919084 
L 148.336779 261.919084 
L 150.98066 261.919084 
L 153.624541 261.919084 
L 156.268421 261.919084 
L 158.912302 261.919084 
L 161.556183 261.919084 
L 164.200064 261.919084 
L 166.843944 261.919084 
L 169.487825 261.919084 
L 172.131706 261.919084 
L 174.775586 261.919084 
L 177.419467 261.919084 
L 180.063348 261.919084 
L 182.707229 261.919084 
L 185.351109 261.919084 
L 187.99499 261.919084 
L 190.638871 261.919084 
L 193.282751 261.919084 
L 195.926632 261.919084 
L 198.570513 261.919084 
L 201.214393 261.919084 
L 203.858274 261.919084 
L 206.502155 261.919084 
L 209.146036 261.919084 
L 211.789916 261.919084 
L 214.433797 261.919084 
L 217.077678 261.919084 
L 219.721558 261.919084 
L 222.365439 261.919084 
L 225.00932 261.919084 
L 227.653201 261.919084 
L 230.297081 261.919084 
L 232.940962 261.919084 
L 235.584843 261.919084 
L 238.228723 261.919084 
L 240.872604 261.919084 
L 243.516485 261.919084 
L 246.160366 261.919084 
L 248.804246 261.919084 
L 251.448127 261.919084 
L 254.092008 261.919084 
L 256.735888 261.919084 
L 259.379769 261.919084 
L 262.02365 261.919084 
L 264.667531 261.919084 
L 267.311411 261.919084 
L 269.955292 261.919084 
L 272.599173 261.919084 
L 275.243053 261.919084 
L 277.886934 261.919084 
L 280.530815 261.919084 
L 283.174695 261.919084 
L 285.818576 261.919084 
L 288.462457 261.919084 
L 291.106338 261.919084 
L 293.750218 261.919084 
L 296.394099 261.919084 
L 299.03798 261.919084 
L 301.68186 261.919084 
L 304.325741 261.919084 
L 306.969622 261.919084 
L 309.613503 261.919084 
L 312.257383 261.919084 
L 314.901264 261.919084 
L 317.545145 261.919084 
L 320.189025 261.919084 
L 322.832906 261.919084 
L 325.476787 261.919084 
L 328.120668 261.919084 
L 328.120668 259.907164 
L 328.120668 259.907164 
L 325.476787 262.116077 
L 322.832906 263.194308 
L 320.189025 263.478702 
L 317.545145 263.248492 
L 314.901264 262.728581 
L 312.257383 262.09373 
L 309.613503 261.473396 
L 306.969622 260.956969 
L 304.325741 260.599223 
L 301.68186 260.425803 
L 299.03798 260.4386 
L 296.394099 260.620899 
L 293.750218 260.942199 
L 291.106338 261.362637 
L 288.462457 261.83695 
L 285.818576 262.317946 
L 283.174695 262.759454 
L 280.530815 263.118745 
L 277.886934 263.358433 
L 275.243053 263.447864 
L 272.599173 263.36402 
L 269.955292 263.091968 
L 267.311411 262.624895 
L 264.667531 261.963769 
L 262.02365 261.11668 
L 259.379769 260.0979 
L 256.735888 258.926737 
L 254.092008 257.626204 
L 251.448127 256.221591 
L 248.804246 254.738972 
L 246.160366 253.203698 
L 243.516485 251.638943 
L 240.872604 250.064318 
L 238.228723 248.494632 
L 235.584843 246.938804 
L 232.940962 245.398978 
L 230.297081 243.869868 
L 227.653201 242.338344 
L 225.00932 240.78329 
L 222.365439 239.175733 
L 219.721558 237.479252 
L 217.077678 235.650671 
L 214.433797 233.641017 
L 211.789916 231.396736 
L 209.146036 228.861152 
L 206.502155 225.976125 
L 203.858274 222.683908 
L 201.214393 218.92913 
L 198.570513 261.90319 
L 195.926632 261.901492 
L 193.282751 205.033553 
L 190.638871 198.808973 
L 187.99499 191.928873 
L 185.351109 184.406491 
L 182.707229 176.27258 
L 180.063348 167.576327 
L 177.419467 158.385907 
L 174.775586 148.788641 
L 172.131706 138.890704 
L 169.487825 128.816376 
L 166.843944 118.706808 
L 164.200064 108.718287 
L 161.556183 99.019991 
L 158.912302 89.791242 
L 156.268421 81.218269 
L 153.624541 73.490492 
L 150.98066 66.796381 
L 148.336779 61.318908 
L 145.692899 57.230677 
L 143.049018 54.688789 
L 140.405137 53.829532 
L 137.761256 54.763008 
L 135.117376 57.567804 
L 132.473495 62.285861 
L 129.829614 68.917687 
L 127.185734 77.418099 
L 124.541853 87.69269 
L 121.897972 99.595249 
L 119.254091 112.926371 
L 116.610211 127.433531 
L 113.96633 142.81292 
L 111.322449 158.713359 
L 108.678569 174.742655 
L 106.034688 190.47676 
L 103.390807 205.472161 
L 100.746927 219.281932 
L 98.103046 231.475933 
L 95.459165 241.665658 
L 92.815284 249.53428 
L 90.171404 254.872475 
L 87.527523 257.620653 
L 84.883642 257.918241 
L 82.239762 256.160735 
L 79.595881 253.065257 
L 76.952 249.745404 
L 74.308119 247.796224 
L 71.664239 249.390202 
L 69.020358 257.385174 
L 66.376477 275.445158 
z
" clip-path="url(#p6616a71e7c)" style="fill: #ff7f0e; fill-opacity: 0.166667"/>
   </g>
   <g id="PolyCollection_3">
    <path d="M 66.376477 257.500718 
L 66.376477 261.919084 
L 69.655816 261.919084 
L 72.935155 261.919084 
L 76.214494 261.919084 
L 79.493833 261.919084 
L 82.773171 261.919084 
L 86.05251 261.919084 
L 89.331849 261.919084 
L 92.611188 261.919084 
L 95.890527 261.919084 
L 99.169866 261.919084 
L 102.449205 261.919084 
L 105.728543 261.919084 
L 109.007882 261.919084 
L 112.287221 261.919084 
L 115.56656 261.919084 
L 118.845899 261.919084 
L 122.125238 261.919084 
L 125.404576 261.919084 
L 128.683915 261.919084 
L 131.963254 261.919084 
L 135.242593 261.919084 
L 138.521932 261.919084 
L 141.801271 261.919084 
L 145.08061 261.919084 
L 148.359948 261.919084 
L 151.639287 261.919084 
L 154.918626 261.919084 
L 158.197965 261.919084 
L 161.477304 261.919084 
L 164.756643 261.919084 
L 168.035981 261.919084 
L 171.31532 261.919084 
L 174.594659 261.919084 
L 177.873998 261.919084 
L 181.153337 261.919084 
L 184.432676 261.919084 
L 187.712014 261.919084 
L 190.991353 261.919084 
L 194.270692 261.919084 
L 197.550031 261.919084 
L 200.82937 261.919084 
L 204.108709 261.919084 
L 207.388048 261.919084 
L 210.667386 261.919084 
L 213.946725 261.919084 
L 217.226064 261.919084 
L 220.505403 261.919084 
L 223.784742 261.919084 
L 227.064081 261.919084 
L 230.343419 261.919084 
L 233.622758 261.919084 
L 236.902097 261.919084 
L 240.181436 261.919084 
L 243.460775 261.919084 
L 246.740114 261.919084 
L 250.019452 261.919084 
L 253.298791 261.919084 
L 256.57813 261.919084 
L 259.857469 261.919084 
L 263.136808 261.919084 
L 266.416147 261.919084 
L 269.695486 261.919084 
L 272.974824 261.919084 
L 276.254163 261.919084 
L 279.533502 261.919084 
L 282.812841 261.919084 
L 286.09218 261.919084 
L 289.371519 261.919084 
L 292.650857 261.919084 
L 295.930196 261.919084 
L 299.209535 261.919084 
L 302.488874 261.919084 
L 305.768213 261.919084 
L 309.047552 261.919084 
L 312.32689 261.919084 
L 315.606229 261.919084 
L 318.885568 261.919084 
L 322.164907 261.919084 
L 325.444246 261.919084 
L 328.723585 261.919084 
L 332.002924 261.919084 
L 335.282262 261.919084 
L 338.561601 261.919084 
L 341.84094 261.919084 
L 345.120279 261.919084 
L 348.399618 261.919084 
L 351.678957 261.919084 
L 354.958295 261.919084 
L 358.237634 261.919084 
L 361.516973 261.919084 
L 364.796312 261.919084 
L 368.075651 261.919084 
L 371.35499 261.919084 
L 374.634329 261.919084 
L 377.913667 261.919084 
L 381.193006 261.919084 
L 384.472345 261.919084 
L 387.751684 261.919084 
L 391.031023 261.919084 
L 391.031023 259.530121 
L 391.031023 259.530121 
L 387.751684 261.432959 
L 384.472345 262.908113 
L 381.193006 263.814397 
L 377.913667 264.135829 
L 374.634329 263.939865 
L 371.35499 263.34404 
L 368.075651 262.489898 
L 364.796312 261.523192 
L 361.516973 260.579429 
L 358.237634 259.773914 
L 354.958295 259.195545 
L 351.678957 258.903675 
L 348.399618 258.927427 
L 345.120279 259.26694 
L 341.84094 259.896061 
L 338.561601 260.766072 
L 335.282262 261.810089 
L 332.002924 262.947843 
L 328.723585 264.090562 
L 325.444246 265.145755 
L 322.164907 266.021722 
L 318.885568 266.631643 
L 315.606229 266.897159 
L 312.32689 266.751355 
L 309.047552 266.141108 
L 305.768213 265.028776 
L 302.488874 263.393226 
L 299.209535 261.230223 
L 295.930196 258.552198 
L 292.650857 255.387472 
L 289.371519 251.778953 
L 286.09218 247.782414 
L 282.812841 243.464389 
L 279.533502 238.899791 
L 276.254163 234.169319 
L 272.974824 229.356734 
L 269.695486 224.546096 
L 266.416147 219.819023 
L 263.136808 215.25207 
L 259.857469 210.914272 
L 256.57813 206.864939 
L 253.298791 203.151744 
L 250.019452 199.809162 
L 246.740114 196.857302 
L 243.460775 194.301155 
L 240.181436 192.130299 
L 236.902097 190.319051 
L 233.622758 188.827089 
L 230.343419 261.90635 
L 227.064081 261.905194 
L 223.784742 185.872804 
L 220.505403 184.997177 
L 217.226064 184.061864 
L 213.946725 182.976537 
L 210.667386 181.652087 
L 207.388048 180.003803 
L 204.108709 177.954577 
L 200.82937 175.438089 
L 197.550031 172.401861 
L 194.270692 168.810109 
L 190.991353 164.646306 
L 187.712014 159.915357 
L 184.432676 154.645319 
L 181.153337 148.88857 
L 177.873998 142.722362 
L 174.594659 136.248677 
L 171.31532 129.593341 
L 168.035981 122.904342 
L 164.756643 116.349309 
L 161.477304 110.112155 
L 158.197965 104.388861 
L 154.918626 99.382447 
L 151.639287 95.297147 
L 148.359948 92.331896 
L 145.08061 90.673196 
L 141.801271 90.487519 
L 138.521932 91.913417 
L 135.242593 95.053528 
L 131.963254 99.966765 
L 128.683915 106.660951 
L 125.404576 115.08628 
L 122.125238 125.12998 
L 118.845899 136.612659 
L 115.56656 149.286842 
L 112.287221 162.838287 
L 109.007882 176.890745 
L 105.728543 191.014878 
L 102.449205 204.742161 
L 99.169866 217.58465 
L 95.890527 229.061594 
L 92.611188 238.733964 
L 89.331849 246.248079 
L 86.05251 251.389576 
L 82.773171 254.14913 
L 79.493833 254.801395 
L 76.214494 253.998786 
L 72.935155 252.881833 
L 69.655816 253.207962 
L 66.376477 257.500718 
z
" clip-path="url(#p6616a71e7c)" style="fill: #2ca02c; fill-opacity: 0.166667"/>
   </g>
   <g id="PolyCollection_4">
    <path d="M 66.376477 254.357188 
L 66.376477 261.919084 
L 69.373199 261.919084 
L 72.369921 261.919084 
L 75.366642 261.919084 
L 78.363364 261.919084 
L 81.360085 261.919084 
L 84.356807 261.919084 
L 87.353529 261.919084 
L 90.35025 261.919084 
L 93.346972 261.919084 
L 96.343694 261.919084 
L 99.340415 261.919084 
L 102.337137 261.919084 
L 105.333859 261.919084 
L 108.33058 261.919084 
L 111.327302 261.919084 
L 114.324024 261.919084 
L 117.320745 261.919084 
L 120.317467 261.919084 
L 123.314188 261.919084 
L 126.31091 261.919084 
L 129.307632 261.919084 
L 132.304353 261.919084 
L 135.301075 261.919084 
L 138.297797 261.919084 
L 141.294518 261.919084 
L 144.29124 261.919084 
L 147.287962 261.919084 
L 150.284683 261.919084 
L 153.281405 261.919084 
L 156.278127 261.919084 
L 159.274848 261.919084 
L 162.27157 261.919084 
L 165.268291 261.919084 
L 168.265013 261.919084 
L 171.261735 261.919084 
L 174.258456 261.919084 
L 177.255178 261.919084 
L 180.2519 261.919084 
L 183.248621 261.919084 
L 186.245343 261.919084 
L 189.242065 261.919084 
L 192.238786 261.919084 
L 195.235508 261.919084 
L 198.232229 261.919084 
L 201.228951 261.919084 
L 204.225673 261.919084 
L 207.222394 261.919084 
L 210.219116 261.919084 
L 213.215838 261.919084 
L 216.212559 261.919084 
L 219.209281 261.919084 
L 222.206003 261.919084 
L 225.202724 261.919084 
L 228.199446 261.919084 
L 231.196168 261.919084 
L 234.192889 261.919084 
L 237.189611 261.919084 
L 240.186332 261.919084 
L 243.183054 261.919084 
L 246.179776 261.919084 
L 249.176497 261.919084 
L 252.173219 261.919084 
L 255.169941 261.919084 
L 258.166662 261.919084 
L 261.163384 261.919084 
L 264.160106 261.919084 
L 267.156827 261.919084 
L 270.153549 261.919084 
L 273.150271 261.919084 
L 276.146992 261.919084 
L 279.143714 261.919084 
L 282.140435 261.919084 
L 285.137157 261.919084 
L 288.133879 261.919084 
L 291.1306 261.919084 
L 294.127322 261.919084 
L 297.124044 261.919084 
L 300.120765 261.919084 
L 303.117487 261.919084 
L 306.114209 261.919084 
L 309.11093 261.919084 
L 312.107652 261.919084 
L 315.104374 261.919084 
L 318.101095 261.919084 
L 321.097817 261.919084 
L 324.094538 261.919084 
L 327.09126 261.919084 
L 330.087982 261.919084 
L 333.084703 261.919084 
L 336.081425 261.919084 
L 339.078147 261.919084 
L 342.074868 261.919084 
L 345.07159 261.919084 
L 348.068312 261.919084 
L 351.065033 261.919084 
L 354.061755 261.919084 
L 357.058476 261.919084 
L 360.055198 261.919084 
L 363.05192 261.919084 
L 363.05192 246.295412 
L 363.05192 246.295412 
L 360.055198 265.645839 
L 357.058476 272.879869 
L 354.061755 272.747193 
L 351.065033 268.675384 
L 348.068312 263.040711 
L 345.07159 257.39792 
L 342.074868 252.673499 
L 339.078147 249.326585 
L 336.081425 247.481376 
L 333.084703 247.034561 
L 330.087982 247.741009 
L 327.09126 249.280685 
L 324.094538 251.30945 
L 321.097817 253.496221 
L 318.101095 255.54866 
L 315.104374 257.229386 
L 312.107652 258.364468 
L 309.11093 258.845782 
L 306.114209 258.628595 
L 303.117487 257.725615 
L 300.120765 256.198545 
L 297.124044 254.14805 
L 294.127322 251.702907 
L 291.1306 249.008975 
L 288.133879 246.218524 
L 285.137157 243.480319 
L 282.140435 240.930813 
L 279.143714 238.686655 
L 276.146992 236.838699 
L 273.150271 235.447583 
L 270.153549 234.54093 
L 267.156827 234.112115 
L 264.160106 234.120566 
L 261.163384 234.493462 
L 258.166662 235.128696 
L 255.169941 235.898956 
L 252.173219 236.656707 
L 249.176497 237.239912 
L 246.179776 237.478257 
L 243.183054 237.19969 
L 240.186332 236.237059 
L 237.189611 234.434649 
L 234.192889 231.654418 
L 231.196168 227.78177 
L 228.199446 222.730671 
L 225.202724 216.447999 
L 222.206003 208.916966 
L 219.209281 200.15954 
L 216.212559 261.892495 
L 213.215838 261.891651 
L 210.219116 168.143482 
L 207.222394 155.634059 
L 204.225673 142.550966 
L 201.228951 129.132699 
L 198.232229 115.643954 
L 195.235508 102.369417 
L 192.238786 89.606712 
L 189.242065 77.658668 
L 186.245343 66.825082 
L 183.248621 57.394168 
L 180.2519 49.633919 
L 177.255178 43.78359 
L 174.258456 40.045564 
L 171.261735 38.577818 
L 168.265013 39.48726 
L 165.268291 42.824153 
L 162.27157 48.57788 
L 159.274848 56.674254 
L 156.278127 66.974575 
L 153.281405 79.276604 
L 150.284683 93.317594 
L 147.287962 108.779467 
L 144.29124 125.296184 
L 141.294518 142.463308 
L 138.297797 159.849664 
L 135.301075 177.010963 
L 132.304353 193.505155 
L 129.307632 208.909163 
L 126.31091 222.836601 
L 123.314188 234.955899 
L 120.317467 245.008188 
L 117.320745 252.824124 
L 114.324024 258.33871 
L 111.327302 261.603 
L 108.33058 262.791392 
L 105.333859 262.203051 
L 102.337137 260.255785 
L 99.340415 257.470503 
L 96.343694 254.44413 
L 93.346972 251.808656 
L 90.35025 250.173702 
L 87.353529 250.049719 
L 84.356807 251.74869 
L 81.360085 255.258842 
L 78.363364 260.089605 
L 75.366642 265.082692 
L 72.369921 268.184835 
L 69.373199 266.177335 
L 66.376477 254.357188 
z
" clip-path="url(#p6616a71e7c)" style="fill: #d62728; fill-opacity: 0.166667"/>
   </g>
   <g id="PolyCollection_5">
    <path d="M 66.376477 254.156484 
L 66.376477 261.919084 
L 68.762023 261.919084 
L 71.14757 261.919084 
L 73.533116 261.919084 
L 75.918662 261.919084 
L 78.304208 261.919084 
L 80.689754 261.919084 
L 83.075301 261.919084 
L 85.460847 261.919084 
L 87.846393 261.919084 
L 90.231939 261.919084 
L 92.617485 261.919084 
L 95.003031 261.919084 
L 97.388578 261.919084 
L 99.774124 261.919084 
L 102.15967 261.919084 
L 104.545216 261.919084 
L 106.930762 261.919084 
L 109.316309 261.919084 
L 111.701855 261.919084 
L 114.087401 261.919084 
L 116.472947 261.919084 
L 118.858493 261.919084 
L 121.24404 261.919084 
L 123.629586 261.919084 
L 126.015132 261.919084 
L 128.400678 261.919084 
L 130.786224 261.919084 
L 133.17177 261.919084 
L 135.557317 261.919084 
L 137.942863 261.919084 
L 140.328409 261.919084 
L 142.713955 261.919084 
L 145.099501 261.919084 
L 147.485048 261.919084 
L 149.870594 261.919084 
L 152.25614 261.919084 
L 154.641686 261.919084 
L 157.027232 261.919084 
L 159.412778 261.919084 
L 161.798325 261.919084 
L 164.183871 261.919084 
L 166.569417 261.919084 
L 168.954963 261.919084 
L 171.340509 261.919084 
L 173.726056 261.919084 
L 176.111602 261.919084 
L 178.497148 261.919084 
L 180.882694 261.919084 
L 183.26824 261.919084 
L 185.653787 261.919084 
L 188.039333 261.919084 
L 190.424879 261.919084 
L 192.810425 261.919084 
L 195.195971 261.919084 
L 197.581517 261.919084 
L 199.967064 261.919084 
L 202.35261 261.919084 
L 204.738156 261.919084 
L 207.123702 261.919084 
L 209.509248 261.919084 
L 211.894795 261.919084 
L 214.280341 261.919084 
L 216.665887 261.919084 
L 219.051433 261.919084 
L 221.436979 261.919084 
L 223.822525 261.919084 
L 226.208072 261.919084 
L 228.593618 261.919084 
L 230.979164 261.919084 
L 233.36471 261.919084 
L 235.750256 261.919084 
L 238.135803 261.919084 
L 240.521349 261.919084 
L 242.906895 261.919084 
L 245.292441 261.919084 
L 247.677987 261.919084 
L 250.063534 261.919084 
L 252.44908 261.919084 
L 254.834626 261.919084 
L 257.220172 261.919084 
L 259.605718 261.919084 
L 261.991264 261.919084 
L 264.376811 261.919084 
L 266.762357 261.919084 
L 269.147903 261.919084 
L 271.533449 261.919084 
L 273.918995 261.919084 
L 276.304542 261.919084 
L 278.690088 261.919084 
L 281.075634 261.919084 
L 283.46118 261.919084 
L 285.846726 261.919084 
L 288.232272 261.919084 
L 290.617819 261.919084 
L 293.003365 261.919084 
L 295.388911 261.919084 
L 297.774457 261.919084 
L 300.160003 261.919084 
L 302.54555 261.919084 
L 302.54555 245.669835 
L 302.54555 245.669835 
L 300.160003 266.327251 
L 297.774457 273.920262 
L 295.388911 273.743288 
L 293.003365 269.570307 
L 290.617819 263.972809 
L 288.232272 258.589017 
L 285.846726 254.349775 
L 283.46118 251.666068 
L 281.075634 250.582774 
L 278.690088 250.90285 
L 276.304542 252.285821 
L 273.918995 254.324096 
L 271.533449 256.600303 
L 269.147903 258.728567 
L 266.762357 260.382348 
L 264.376811 261.311177 
L 261.991264 261.348418 
L 259.605718 260.411905 
L 257.220172 258.499113 
L 254.834626 255.6783 
L 252.44908 252.076861 
L 250.063534 247.867993 
L 247.677987 243.256547 
L 245.292441 238.464853 
L 242.906895 233.719116 
L 240.521349 229.236891 
L 238.135803 225.216003 
L 235.750256 221.825198 
L 233.36471 219.196688 
L 230.979164 217.420714 
L 228.593618 216.542124 
L 226.208072 216.558951 
L 223.822525 217.422891 
L 221.436979 219.041538 
L 219.051433 221.282209 
L 216.665887 223.977148 
L 214.280341 226.92989 
L 211.894795 229.922522 
L 209.509248 232.723612 
L 207.123702 235.096528 
L 204.738156 236.807904 
L 202.35261 237.635995 
L 199.967064 237.378697 
L 197.581517 235.860992 
L 195.195971 232.941627 
L 192.810425 228.51885 
L 190.424879 222.535034 
L 188.039333 214.980073 
L 185.653787 261.891329 
L 183.26824 261.890573 
L 180.882694 184.304108 
L 178.497148 171.522617 
L 176.111602 157.811064 
L 173.726056 143.433582 
L 171.340509 128.689004 
L 168.954963 113.90367 
L 166.569417 99.423208 
L 164.183871 85.603441 
L 161.798325 72.800661 
L 159.412778 61.361479 
L 157.027232 51.61251 
L 154.641686 43.850165 
L 152.25614 38.330825 
L 149.870594 35.261697 
L 147.485048 34.792618 
L 145.099501 37.009128 
L 142.713955 41.927056 
L 140.328409 49.488904 
L 137.942863 59.562247 
L 135.557317 71.940371 
L 133.17177 86.345307 
L 130.786224 102.43337 
L 128.400678 119.803293 
L 126.015132 138.006915 
L 123.629586 156.56237 
L 121.24404 174.969601 
L 118.858493 192.727926 
L 116.472947 209.355294 
L 114.087401 224.408727 
L 111.701855 237.505328 
L 109.316309 248.343075 
L 106.930762 256.720474 
L 104.545216 262.553962 
L 102.15967 265.891768 
L 99.774124 266.922749 
L 97.388578 265.978473 
L 95.003031 263.526623 
L 92.617485 260.153531 
L 90.231939 256.533376 
L 87.846393 253.381322 
L 85.460847 251.387558 
L 83.075301 251.128891 
L 80.689754 252.954193 
L 78.304208 256.839682 
L 75.918662 262.209603 
L 73.533116 267.717516 
L 71.14757 270.982961 
L 68.762023 268.277851 
L 66.376477 254.156484 
z
" clip-path="url(#p6616a71e7c)" style="fill: #9467bd; fill-opacity: 0.166667"/>
   </g>
   <g id="PolyCollection_6">
    <path d="M 66.376477 267.080076 
L 66.376477 261.919084 
L 68.918293 261.919084 
L 71.460108 261.919084 
L 74.001924 261.919084 
L 76.543739 261.919084 
L 79.085555 261.919084 
L 81.62737 261.919084 
L 84.169186 261.919084 
L 86.711002 261.919084 
L 89.252817 261.919084 
L 91.794633 261.919084 
L 94.336448 261.919084 
L 96.878264 261.919084 
L 99.420079 261.919084 
L 101.961895 261.919084 
L 104.50371 261.919084 
L 107.045526 261.919084 
L 109.587341 261.919084 
L 112.129157 261.919084 
L 114.670972 261.919084 
L 117.212788 261.919084 
L 119.754603 261.919084 
L 122.296419 261.919084 
L 124.838234 261.919084 
L 127.38005 261.919084 
L 129.921866 261.919084 
L 132.463681 261.919084 
L 135.005497 261.919084 
L 137.547312 261.919084 
L 140.089128 261.919084 
L 142.630943 261.919084 
L 145.172759 261.919084 
L 147.714574 261.919084 
L 150.25639 261.919084 
L 152.798205 261.919084 
L 155.340021 261.919084 
L 157.881836 261.919084 
L 160.423652 261.919084 
L 162.965467 261.919084 
L 165.507283 261.919084 
L 168.049098 261.919084 
L 170.590914 261.919084 
L 173.132729 261.919084 
L 175.674545 261.919084 
L 178.216361 261.919084 
L 180.758176 261.919084 
L 183.299992 261.919084 
L 185.841807 261.919084 
L 188.383623 261.919084 
L 190.925438 261.919084 
L 193.467254 261.919084 
L 196.009069 261.919084 
L 198.550885 261.919084 
L 201.0927 261.919084 
L 203.634516 261.919084 
L 206.176331 261.919084 
L 208.718147 261.919084 
L 211.259962 261.919084 
L 213.801778 261.919084 
L 216.343593 261.919084 
L 218.885409 261.919084 
L 221.427225 261.919084 
L 223.96904 261.919084 
L 226.510856 261.919084 
L 229.052671 261.919084 
L 231.594487 261.919084 
L 234.136302 261.919084 
L 236.678118 261.919084 
L 239.219933 261.919084 
L 241.761749 261.919084 
L 244.303564 261.919084 
L 246.84538 261.919084 
L 249.387195 261.919084 
L 251.929011 261.919084 
L 254.470826 261.919084 
L 257.012642 261.919084 
L 259.554457 261.919084 
L 262.096273 261.919084 
L 264.638089 261.919084 
L 267.179904 261.919084 
L 269.72172 261.919084 
L 272.263535 261.919084 
L 274.805351 261.919084 
L 277.347166 261.919084 
L 279.888982 261.919084 
L 282.430797 261.919084 
L 284.972613 261.919084 
L 287.514428 261.919084 
L 290.056244 261.919084 
L 292.598059 261.919084 
L 295.139875 261.919084 
L 297.68169 261.919084 
L 300.223506 261.919084 
L 302.765321 261.919084 
L 305.307137 261.919084 
L 307.848953 261.919084 
L 310.390768 261.919084 
L 312.932584 261.919084 
L 315.474399 261.919084 
L 318.016215 261.919084 
L 318.016215 242.856971 
L 318.016215 242.856971 
L 315.474399 266.824942 
L 312.932584 276.059826 
L 310.390768 276.334125 
L 307.848953 271.8378 
L 305.307137 265.492756 
L 302.765321 259.221553 
L 300.223506 254.175156 
L 297.68169 250.924185 
L 295.139875 249.617796 
L 292.598059 250.114009 
L 290.056244 252.084981 
L 287.514428 255.100447 
L 284.972613 258.692278 
L 282.430797 262.402845 
L 279.888982 265.819612 
L 277.347166 268.598189 
L 274.805351 270.475819 
L 272.263535 271.277084 
L 269.72172 270.913419 
L 267.179904 269.377844 
L 264.638089 266.736137 
L 262.096273 263.115549 
L 259.554457 258.691964 
L 257.012642 253.676313 
L 254.470826 248.300905 
L 251.929011 242.806225 
L 249.387195 237.428639 
L 246.84538 232.389354 
L 244.303564 227.884891 
L 241.761749 224.07925 
L 239.219933 221.097865 
L 236.678118 219.023404 
L 234.136302 217.8934 
L 231.594487 217.699638 
L 229.052671 218.389216 
L 226.510856 219.867136 
L 223.96904 222.000252 
L 221.427225 224.622403 
L 218.885409 227.540519 
L 216.343593 230.541481 
L 213.801778 233.399535 
L 211.259962 235.884001 
L 208.718147 237.767101 
L 206.176331 238.831649 
L 203.634516 238.878435 
L 201.0927 237.733093 
L 198.550885 235.252278 
L 196.009069 231.329013 
L 193.467254 261.894361 
L 190.925438 261.892679 
L 188.383623 211.893639 
L 185.841807 201.972599 
L 183.299992 190.660291 
L 180.758176 178.124151 
L 178.216361 164.576894 
L 175.674545 150.272035 
L 173.132729 135.498143 
L 170.590914 120.571961 
L 168.049098 105.830539 
L 165.507283 91.622534 
L 162.965467 78.298898 
L 160.423652 66.203142 
L 157.881836 55.661448 
L 155.340021 46.972843 
L 152.798205 40.399728 
L 150.25639 36.159011 
L 147.714574 34.414125 
L 145.172759 35.268193 
L 142.630943 38.758606 
L 140.089128 44.853245 
L 137.547312 53.448582 
L 135.005497 64.369844 
L 132.463681 77.373405 
L 129.921866 92.151511 
L 127.38005 108.339415 
L 124.838234 125.524908 
L 122.296419 143.260191 
L 119.754603 161.075944 
L 117.212788 178.497349 
L 114.670972 195.061746 
L 112.129157 210.337472 
L 109.587341 223.943331 
L 107.045526 235.567996 
L 104.50371 244.988513 
L 101.961895 252.086899 
L 99.420079 256.863702 
L 96.878264 259.44715 
L 94.336448 260.096373 
L 91.794633 259.196938 
L 89.252817 257.246735 
L 86.711002 254.830001 
L 84.169186 252.577015 
L 81.62737 251.106741 
L 79.085555 250.949393 
L 76.543739 252.445606 
L 74.001924 255.618577 
L 71.460108 260.015192 
L 68.918293 264.511821 
L 66.376477 267.080076 
z
" clip-path="url(#p6616a71e7c)" style="fill: #8c564b; fill-opacity: 0.166667"/>
   </g>
   <g id="matplotlib.axis_1">
    <g id="xtick_1">
     <g id="line2d_1">
      <defs>
       <path id="m29ace060fe" d="M 0 0 
L 0 3.5 
" style="stroke: #000000; stroke-width: 0.8"/>
      </defs>
      <g>
       <use xlink:href="#m29ace060fe" x="66.376477" y="288.430125" style="stroke: #000000; stroke-width: 0.8"/>
      </g>
     </g>
     <g id="text_1">
      <!-- 0.0000 -->
      <g transform="translate(48.881165 303.028562) scale(0.1 -0.1)">
       <defs>
        <path id="DejaVuSans-30" d="M 2034 4250 
Q 1547 4250 1301 3770 
Q 1056 3291 1056 2328 
Q 1056 1369 1301 889 
Q 1547 409 2034 409 
Q 2525 409 2770 889 
Q 3016 1369 3016 2328 
Q 3016 3291 2770 3770 
Q 2525 4250 2034 4250 
z
M 2034 4750 
Q 2819 4750 3233 4129 
Q 3647 3509 3647 2328 
Q 3647 1150 3233 529 
Q 2819 -91 2034 -91 
Q 1250 -91 836 529 
Q 422 1150 422 2328 
Q 422 3509 836 4129 
Q 1250 4750 2034 4750 
z
" transform="scale(0.015625)"/>
        <path id="DejaVuSans-2e" d="M 684 794 
L 1344 794 
L 1344 0 
L 684 0 
L 684 794 
z
" transform="scale(0.015625)"/>
       </defs>
       <use xlink:href="#DejaVuSans-30"/>
       <use xlink:href="#DejaVuSans-2e" x="63.623047"/>
       <use xlink:href="#DejaVuSans-30" x="95.410156"/>
       <use xlink:href="#DejaVuSans-30" x="159.033203"/>
       <use xlink:href="#DejaVuSans-30" x="222.65625"/>
       <use xlink:href="#DejaVuSans-30" x="286.279297"/>
      </g>
     </g>
    </g>
    <g id="xtick_2">
     <g id="line2d_2">
      <g>
       <use xlink:href="#m29ace060fe" x="125.388431" y="288.430125" style="stroke: #000000; stroke-width: 0.8"/>
      </g>
     </g>
     <g id="text_2">
      <!-- 0.0002 -->
      <g transform="translate(107.893119 303.028562) scale(0.1 -0.1)">
       <defs>
        <path id="DejaVuSans-32" d="M 1228 531 
L 3431 531 
L 3431 0 
L 469 0 
L 469 531 
Q 828 903 1448 1529 
Q 2069 2156 2228 2338 
Q 2531 2678 2651 2914 
Q 2772 3150 2772 3378 
Q 2772 3750 2511 3984 
Q 2250 4219 1831 4219 
Q 1534 4219 1204 4116 
Q 875 4013 500 3803 
L 500 4441 
Q 881 4594 1212 4672 
Q 1544 4750 1819 4750 
Q 2544 4750 2975 4387 
Q 3406 4025 3406 3419 
Q 3406 3131 3298 2873 
Q 3191 2616 2906 2266 
Q 2828 2175 2409 1742 
Q 1991 1309 1228 531 
z
" transform="scale(0.015625)"/>
       </defs>
       <use xlink:href="#DejaVuSans-30"/>
       <use xlink:href="#DejaVuSans-2e" x="63.623047"/>
       <use xlink:href="#DejaVuSans-30" x="95.410156"/>
       <use xlink:href="#DejaVuSans-30" x="159.033203"/>
       <use xlink:href="#DejaVuSans-30" x="222.65625"/>
       <use xlink:href="#DejaVuSans-32" x="286.279297"/>
      </g>
     </g>
    </g>
    <g id="xtick_3">
     <g id="line2d_3">
      <g>
       <use xlink:href="#m29ace060fe" x="184.400386" y="288.430125" style="stroke: #000000; stroke-width: 0.8"/>
      </g>
     </g>
     <g id="text_3">
      <!-- 0.0004 -->
      <g transform="translate(166.905073 303.028562) scale(0.1 -0.1)">
       <defs>
        <path id="DejaVuSans-34" d="M 2419 4116 
L 825 1625 
L 2419 1625 
L 2419 4116 
z
M 2253 4666 
L 3047 4666 
L 3047 1625 
L 3713 1625 
L 3713 1100 
L 3047 1100 
L 3047 0 
L 2419 0 
L 2419 1100 
L 313 1100 
L 313 1709 
L 2253 4666 
z
" transform="scale(0.015625)"/>
       </defs>
       <use xlink:href="#DejaVuSans-30"/>
       <use xlink:href="#DejaVuSans-2e" x="63.623047"/>
       <use xlink:href="#DejaVuSans-30" x="95.410156"/>
       <use xlink:href="#DejaVuSans-30" x="159.033203"/>
       <use xlink:href="#DejaVuSans-30" x="222.65625"/>
       <use xlink:href="#DejaVuSans-34" x="286.279297"/>
      </g>
     </g>
    </g>
    <g id="xtick_4">
     <g id="line2d_4">
      <g>
       <use xlink:href="#m29ace060fe" x="243.41234" y="288.430125" style="stroke: #000000; stroke-width: 0.8"/>
      </g>
     </g>
     <g id="text_4">
      <!-- 0.0006 -->
      <g transform="translate(225.917027 303.028562) scale(0.1 -0.1)">
       <defs>
        <path id="DejaVuSans-36" d="M 2113 2584 
Q 1688 2584 1439 2293 
Q 1191 2003 1191 1497 
Q 1191 994 1439 701 
Q 1688 409 2113 409 
Q 2538 409 2786 701 
Q 3034 994 3034 1497 
Q 3034 2003 2786 2293 
Q 2538 2584 2113 2584 
z
M 3366 4563 
L 3366 3988 
Q 3128 4100 2886 4159 
Q 2644 4219 2406 4219 
Q 1781 4219 1451 3797 
Q 1122 3375 1075 2522 
Q 1259 2794 1537 2939 
Q 1816 3084 2150 3084 
Q 2853 3084 3261 2657 
Q 3669 2231 3669 1497 
Q 3669 778 3244 343 
Q 2819 -91 2113 -91 
Q 1303 -91 875 529 
Q 447 1150 447 2328 
Q 447 3434 972 4092 
Q 1497 4750 2381 4750 
Q 2619 4750 2861 4703 
Q 3103 4656 3366 4563 
z
" transform="scale(0.015625)"/>
       </defs>
       <use xlink:href="#DejaVuSans-30"/>
       <use xlink:href="#DejaVuSans-2e" x="63.623047"/>
       <use xlink:href="#DejaVuSans-30" x="95.410156"/>
       <use xlink:href="#DejaVuSans-30" x="159.033203"/>
       <use xlink:href="#DejaVuSans-30" x="222.65625"/>
       <use xlink:href="#DejaVuSans-36" x="286.279297"/>
      </g>
     </g>
    </g>
    <g id="xtick_5">
     <g id="line2d_5">
      <g>
       <use xlink:href="#m29ace060fe" x="302.424294" y="288.430125" style="stroke: #000000; stroke-width: 0.8"/>
      </g>
     </g>
     <g id="text_5">
      <!-- 0.0008 -->
      <g transform="translate(284.928981 303.028562) scale(0.1 -0.1)">
       <defs>
        <path id="DejaVuSans-38" d="M 2034 2216 
Q 1584 2216 1326 1975 
Q 1069 1734 1069 1313 
Q 1069 891 1326 650 
Q 1584 409 2034 409 
Q 2484 409 2743 651 
Q 3003 894 3003 1313 
Q 3003 1734 2745 1975 
Q 2488 2216 2034 2216 
z
M 1403 2484 
Q 997 2584 770 2862 
Q 544 3141 544 3541 
Q 544 4100 942 4425 
Q 1341 4750 2034 4750 
Q 2731 4750 3128 4425 
Q 3525 4100 3525 3541 
Q 3525 3141 3298 2862 
Q 3072 2584 2669 2484 
Q 3125 2378 3379 2068 
Q 3634 1759 3634 1313 
Q 3634 634 3220 271 
Q 2806 -91 2034 -91 
Q 1263 -91 848 271 
Q 434 634 434 1313 
Q 434 1759 690 2068 
Q 947 2378 1403 2484 
z
M 1172 3481 
Q 1172 3119 1398 2916 
Q 1625 2713 2034 2713 
Q 2441 2713 2670 2916 
Q 2900 3119 2900 3481 
Q 2900 3844 2670 4047 
Q 2441 4250 2034 4250 
Q 1625 4250 1398 4047 
Q 1172 3844 1172 3481 
z
" transform="scale(0.015625)"/>
       </defs>
       <use xlink:href="#DejaVuSans-30"/>
       <use xlink:href="#DejaVuSans-2e" x="63.623047"/>
       <use xlink:href="#DejaVuSans-30" x="95.410156"/>
       <use xlink:href="#DejaVuSans-30" x="159.033203"/>
       <use xlink:href="#DejaVuSans-30" x="222.65625"/>
       <use xlink:href="#DejaVuSans-38" x="286.279297"/>
      </g>
     </g>
    </g>
    <g id="xtick_6">
     <g id="line2d_6">
      <g>
       <use xlink:href="#m29ace060fe" x="361.436248" y="288.430125" style="stroke: #000000; stroke-width: 0.8"/>
      </g>
     </g>
     <g id="text_6">
      <!-- 0.0010 -->
      <g transform="translate(343.940936 303.028562) scale(0.1 -0.1)">
       <defs>
        <path id="DejaVuSans-31" d="M 794 531 
L 1825 531 
L 1825 4091 
L 703 3866 
L 703 4441 
L 1819 4666 
L 2450 4666 
L 2450 531 
L 3481 531 
L 3481 0 
L 794 0 
L 794 531 
z
" transform="scale(0.015625)"/>
       </defs>
       <use xlink:href="#DejaVuSans-30"/>
       <use xlink:href="#DejaVuSans-2e" x="63.623047"/>
       <use xlink:href="#DejaVuSans-30" x="95.410156"/>
       <use xlink:href="#DejaVuSans-30" x="159.033203"/>
       <use xlink:href="#DejaVuSans-31" x="222.65625"/>
       <use xlink:href="#DejaVuSans-30" x="286.279297"/>
      </g>
     </g>
    </g>
    <g id="text_7">
     <!-- Pixel values -->
     <g transform="translate(199.292031 316.706687) scale(0.1 -0.1)">
      <defs>
       <path id="DejaVuSans-50" d="M 1259 4147 
L 1259 2394 
L 2053 2394 
Q 2494 2394 2734 2622 
Q 2975 2850 2975 3272 
Q 2975 3691 2734 3919 
Q 2494 4147 2053 4147 
L 1259 4147 
z
M 628 4666 
L 2053 4666 
Q 2838 4666 3239 4311 
Q 3641 3956 3641 3272 
Q 3641 2581 3239 2228 
Q 2838 1875 2053 1875 
L 1259 1875 
L 1259 0 
L 628 0 
L 628 4666 
z
" transform="scale(0.015625)"/>
       <path id="DejaVuSans-69" d="M 603 3500 
L 1178 3500 
L 1178 0 
L 603 0 
L 603 3500 
z
M 603 4863 
L 1178 4863 
L 1178 4134 
L 603 4134 
L 603 4863 
z
" transform="scale(0.015625)"/>
       <path id="DejaVuSans-78" d="M 3513 3500 
L 2247 1797 
L 3578 0 
L 2900 0 
L 1881 1375 
L 863 0 
L 184 0 
L 1544 1831 
L 300 3500 
L 978 3500 
L 1906 2253 
L 2834 3500 
L 3513 3500 
z
" transform="scale(0.015625)"/>
       <path id="DejaVuSans-65" d="M 3597 1894 
L 3597 1613 
L 953 1613 
Q 991 1019 1311 708 
Q 1631 397 2203 397 
Q 2534 397 2845 478 
Q 3156 559 3463 722 
L 3463 178 
Q 3153 47 2828 -22 
Q 2503 -91 2169 -91 
Q 1331 -91 842 396 
Q 353 884 353 1716 
Q 353 2575 817 3079 
Q 1281 3584 2069 3584 
Q 2775 3584 3186 3129 
Q 3597 2675 3597 1894 
z
M 3022 2063 
Q 3016 2534 2758 2815 
Q 2500 3097 2075 3097 
Q 1594 3097 1305 2825 
Q 1016 2553 972 2059 
L 3022 2063 
z
" transform="scale(0.015625)"/>
       <path id="DejaVuSans-6c" d="M 603 4863 
L 1178 4863 
L 1178 0 
L 603 0 
L 603 4863 
z
" transform="scale(0.015625)"/>
       <path id="DejaVuSans-20" transform="scale(0.015625)"/>
       <path id="DejaVuSans-76" d="M 191 3500 
L 800 3500 
L 1894 563 
L 2988 3500 
L 3597 3500 
L 2284 0 
L 1503 0 
L 191 3500 
z
" transform="scale(0.015625)"/>
       <path id="DejaVuSans-61" d="M 2194 1759 
Q 1497 1759 1228 1600 
Q 959 1441 959 1056 
Q 959 750 1161 570 
Q 1363 391 1709 391 
Q 2188 391 2477 730 
Q 2766 1069 2766 1631 
L 2766 1759 
L 2194 1759 
z
M 3341 1997 
L 3341 0 
L 2766 0 
L 2766 531 
Q 2569 213 2275 61 
Q 1981 -91 1556 -91 
Q 1019 -91 701 211 
Q 384 513 384 1019 
Q 384 1609 779 1909 
Q 1175 2209 1959 2209 
L 2766 2209 
L 2766 2266 
Q 2766 2663 2505 2880 
Q 2244 3097 1772 3097 
Q 1472 3097 1187 3025 
Q 903 2953 641 2809 
L 641 3341 
Q 956 3463 1253 3523 
Q 1550 3584 1831 3584 
Q 2591 3584 2966 3190 
Q 3341 2797 3341 1997 
z
" transform="scale(0.015625)"/>
       <path id="DejaVuSans-75" d="M 544 1381 
L 544 3500 
L 1119 3500 
L 1119 1403 
Q 1119 906 1312 657 
Q 1506 409 1894 409 
Q 2359 409 2629 706 
Q 2900 1003 2900 1516 
L 2900 3500 
L 3475 3500 
L 3475 0 
L 2900 0 
L 2900 538 
Q 2691 219 2414 64 
Q 2138 -91 1772 -91 
Q 1169 -91 856 284 
Q 544 659 544 1381 
z
M 1991 3584 
L 1991 3584 
z
" transform="scale(0.015625)"/>
       <path id="DejaVuSans-73" d="M 2834 3397 
L 2834 2853 
Q 2591 2978 2328 3040 
Q 2066 3103 1784 3103 
Q 1356 3103 1142 2972 
Q 928 2841 928 2578 
Q 928 2378 1081 2264 
Q 1234 2150 1697 2047 
L 1894 2003 
Q 2506 1872 2764 1633 
Q 3022 1394 3022 966 
Q 3022 478 2636 193 
Q 2250 -91 1575 -91 
Q 1294 -91 989 -36 
Q 684 19 347 128 
L 347 722 
Q 666 556 975 473 
Q 1284 391 1588 391 
Q 1994 391 2212 530 
Q 2431 669 2431 922 
Q 2431 1156 2273 1281 
Q 2116 1406 1581 1522 
L 1381 1569 
Q 847 1681 609 1914 
Q 372 2147 372 2553 
Q 372 3047 722 3315 
Q 1072 3584 1716 3584 
Q 2034 3584 2315 3537 
Q 2597 3491 2834 3397 
z
" transform="scale(0.015625)"/>
      </defs>
      <use xlink:href="#DejaVuSans-50"/>
      <use xlink:href="#DejaVuSans-69" x="58.052734"/>
      <use xlink:href="#DejaVuSans-78" x="85.835938"/>
      <use xlink:href="#DejaVuSans-65" x="141.890625"/>
      <use xlink:href="#DejaVuSans-6c" x="203.414062"/>
      <use xlink:href="#DejaVuSans-20" x="231.197266"/>
      <use xlink:href="#DejaVuSans-76" x="262.984375"/>
      <use xlink:href="#DejaVuSans-61" x="322.164062"/>
      <use xlink:href="#DejaVuSans-6c" x="383.443359"/>
      <use xlink:href="#DejaVuSans-75" x="411.226562"/>
      <use xlink:href="#DejaVuSans-65" x="474.605469"/>
      <use xlink:href="#DejaVuSans-73" x="536.128906"/>
     </g>
    </g>
   </g>
   <g id="matplotlib.axis_2">
    <g id="ytick_1">
     <g id="line2d_7">
      <defs>
       <path id="mdf336a0b8d" d="M 0 0 
L -3.5 0 
" style="stroke: #000000; stroke-width: 0.8"/>
      </defs>
      <g>
       <use xlink:href="#mdf336a0b8d" x="50.14375" y="261.919084" style="stroke: #000000; stroke-width: 0.8"/>
      </g>
     </g>
     <g id="text_8">
      <!-- 0.00 -->
      <g transform="translate(20.878125 265.718303) scale(0.1 -0.1)">
       <use xlink:href="#DejaVuSans-30"/>
       <use xlink:href="#DejaVuSans-2e" x="63.623047"/>
       <use xlink:href="#DejaVuSans-30" x="95.410156"/>
       <use xlink:href="#DejaVuSans-30" x="159.033203"/>
      </g>
     </g>
    </g>
    <g id="ytick_2">
     <g id="line2d_8">
      <g>
       <use xlink:href="#mdf336a0b8d" x="50.14375" y="205.103646" style="stroke: #000000; stroke-width: 0.8"/>
      </g>
     </g>
     <g id="text_9">
      <!-- 0.01 -->
      <g transform="translate(20.878125 208.902865) scale(0.1 -0.1)">
       <use xlink:href="#DejaVuSans-30"/>
       <use xlink:href="#DejaVuSans-2e" x="63.623047"/>
       <use xlink:href="#DejaVuSans-30" x="95.410156"/>
       <use xlink:href="#DejaVuSans-31" x="159.033203"/>
      </g>
     </g>
    </g>
    <g id="ytick_3">
     <g id="line2d_9">
      <g>
       <use xlink:href="#mdf336a0b8d" x="50.14375" y="148.288208" style="stroke: #000000; stroke-width: 0.8"/>
      </g>
     </g>
     <g id="text_10">
      <!-- 0.02 -->
      <g transform="translate(20.878125 152.087426) scale(0.1 -0.1)">
       <use xlink:href="#DejaVuSans-30"/>
       <use xlink:href="#DejaVuSans-2e" x="63.623047"/>
       <use xlink:href="#DejaVuSans-30" x="95.410156"/>
       <use xlink:href="#DejaVuSans-32" x="159.033203"/>
      </g>
     </g>
    </g>
    <g id="ytick_4">
     <g id="line2d_10">
      <g>
       <use xlink:href="#mdf336a0b8d" x="50.14375" y="91.47277" style="stroke: #000000; stroke-width: 0.8"/>
      </g>
     </g>
     <g id="text_11">
      <!-- 0.03 -->
      <g transform="translate(20.878125 95.271988) scale(0.1 -0.1)">
       <defs>
        <path id="DejaVuSans-33" d="M 2597 2516 
Q 3050 2419 3304 2112 
Q 3559 1806 3559 1356 
Q 3559 666 3084 287 
Q 2609 -91 1734 -91 
Q 1441 -91 1130 -33 
Q 819 25 488 141 
L 488 750 
Q 750 597 1062 519 
Q 1375 441 1716 441 
Q 2309 441 2620 675 
Q 2931 909 2931 1356 
Q 2931 1769 2642 2001 
Q 2353 2234 1838 2234 
L 1294 2234 
L 1294 2753 
L 1863 2753 
Q 2328 2753 2575 2939 
Q 2822 3125 2822 3475 
Q 2822 3834 2567 4026 
Q 2313 4219 1838 4219 
Q 1578 4219 1281 4162 
Q 984 4106 628 3988 
L 628 4550 
Q 988 4650 1302 4700 
Q 1616 4750 1894 4750 
Q 2613 4750 3031 4423 
Q 3450 4097 3450 3541 
Q 3450 3153 3228 2886 
Q 3006 2619 2597 2516 
z
" transform="scale(0.015625)"/>
       </defs>
       <use xlink:href="#DejaVuSans-30"/>
       <use xlink:href="#DejaVuSans-2e" x="63.623047"/>
       <use xlink:href="#DejaVuSans-30" x="95.410156"/>
       <use xlink:href="#DejaVuSans-33" x="159.033203"/>
      </g>
     </g>
    </g>
    <g id="ytick_5">
     <g id="line2d_11">
      <g>
       <use xlink:href="#mdf336a0b8d" x="50.14375" y="34.657332" style="stroke: #000000; stroke-width: 0.8"/>
      </g>
     </g>
     <g id="text_12">
      <!-- 0.04 -->
      <g transform="translate(20.878125 38.45655) scale(0.1 -0.1)">
       <use xlink:href="#DejaVuSans-30"/>
       <use xlink:href="#DejaVuSans-2e" x="63.623047"/>
       <use xlink:href="#DejaVuSans-30" x="95.410156"/>
       <use xlink:href="#DejaVuSans-34" x="159.033203"/>
      </g>
     </g>
    </g>
    <g id="text_13">
     <!-- Frequency -->
     <g transform="translate(14.798438 181.203812) rotate(-90) scale(0.1 -0.1)">
      <defs>
       <path id="DejaVuSans-46" d="M 628 4666 
L 3309 4666 
L 3309 4134 
L 1259 4134 
L 1259 2759 
L 3109 2759 
L 3109 2228 
L 1259 2228 
L 1259 0 
L 628 0 
L 628 4666 
z
" transform="scale(0.015625)"/>
       <path id="DejaVuSans-72" d="M 2631 2963 
Q 2534 3019 2420 3045 
Q 2306 3072 2169 3072 
Q 1681 3072 1420 2755 
Q 1159 2438 1159 1844 
L 1159 0 
L 581 0 
L 581 3500 
L 1159 3500 
L 1159 2956 
Q 1341 3275 1631 3429 
Q 1922 3584 2338 3584 
Q 2397 3584 2469 3576 
Q 2541 3569 2628 3553 
L 2631 2963 
z
" transform="scale(0.015625)"/>
       <path id="DejaVuSans-71" d="M 947 1747 
Q 947 1113 1208 752 
Q 1469 391 1925 391 
Q 2381 391 2643 752 
Q 2906 1113 2906 1747 
Q 2906 2381 2643 2742 
Q 2381 3103 1925 3103 
Q 1469 3103 1208 2742 
Q 947 2381 947 1747 
z
M 2906 525 
Q 2725 213 2448 61 
Q 2172 -91 1784 -91 
Q 1150 -91 751 415 
Q 353 922 353 1747 
Q 353 2572 751 3078 
Q 1150 3584 1784 3584 
Q 2172 3584 2448 3432 
Q 2725 3281 2906 2969 
L 2906 3500 
L 3481 3500 
L 3481 -1331 
L 2906 -1331 
L 2906 525 
z
" transform="scale(0.015625)"/>
       <path id="DejaVuSans-6e" d="M 3513 2113 
L 3513 0 
L 2938 0 
L 2938 2094 
Q 2938 2591 2744 2837 
Q 2550 3084 2163 3084 
Q 1697 3084 1428 2787 
Q 1159 2491 1159 1978 
L 1159 0 
L 581 0 
L 581 3500 
L 1159 3500 
L 1159 2956 
Q 1366 3272 1645 3428 
Q 1925 3584 2291 3584 
Q 2894 3584 3203 3211 
Q 3513 2838 3513 2113 
z
" transform="scale(0.015625)"/>
       <path id="DejaVuSans-63" d="M 3122 3366 
L 3122 2828 
Q 2878 2963 2633 3030 
Q 2388 3097 2138 3097 
Q 1578 3097 1268 2742 
Q 959 2388 959 1747 
Q 959 1106 1268 751 
Q 1578 397 2138 397 
Q 2388 397 2633 464 
Q 2878 531 3122 666 
L 3122 134 
Q 2881 22 2623 -34 
Q 2366 -91 2075 -91 
Q 1284 -91 818 406 
Q 353 903 353 1747 
Q 353 2603 823 3093 
Q 1294 3584 2113 3584 
Q 2378 3584 2631 3529 
Q 2884 3475 3122 3366 
z
" transform="scale(0.015625)"/>
       <path id="DejaVuSans-79" d="M 2059 -325 
Q 1816 -950 1584 -1140 
Q 1353 -1331 966 -1331 
L 506 -1331 
L 506 -850 
L 844 -850 
Q 1081 -850 1212 -737 
Q 1344 -625 1503 -206 
L 1606 56 
L 191 3500 
L 800 3500 
L 1894 763 
L 2988 3500 
L 3597 3500 
L 2059 -325 
z
" transform="scale(0.015625)"/>
      </defs>
      <use xlink:href="#DejaVuSans-46"/>
      <use xlink:href="#DejaVuSans-72" x="50.269531"/>
      <use xlink:href="#DejaVuSans-65" x="89.132812"/>
      <use xlink:href="#DejaVuSans-71" x="150.65625"/>
      <use xlink:href="#DejaVuSans-75" x="214.132812"/>
      <use xlink:href="#DejaVuSans-65" x="277.511719"/>
      <use xlink:href="#DejaVuSans-6e" x="339.035156"/>
      <use xlink:href="#DejaVuSans-63" x="402.414062"/>
      <use xlink:href="#DejaVuSans-79" x="457.394531"/>
     </g>
    </g>
   </g>
   <g id="line2d_12">
    <path d="M 66.376477 247.390978 
L 69.621401 268.320788 
L 72.866325 274.73555 
L 76.11125 272.859913 
L 79.356174 267.100797 
L 82.601098 260.418767 
L 85.846022 254.644916 
L 89.090946 250.748983 
L 92.33587 249.064052 
L 95.580794 249.472728 
L 98.825718 251.559361 
L 102.070642 254.732474 
L 105.315566 258.321248 
L 108.560491 261.649563 
L 111.805415 264.090795 
L 115.050339 265.106283 
L 118.295263 264.270073 
L 121.540187 261.282335 
L 124.785111 255.973544 
L 128.030035 248.301335 
L 131.274959 238.341698 
L 134.519883 226.275978 
L 137.764807 212.374977 
L 141.009732 196.981246 
L 144.254656 180.490523 
L 147.49958 163.333115 
L 150.744504 145.955861 
L 153.989428 128.805236 
L 157.234352 112.311974 
L 160.479276 96.877558 
L 163.7242 82.862765 
L 166.969124 70.578413 
L 170.214048 60.278366 
L 173.458973 52.154785 
L 176.703897 46.335572 
L 179.948821 42.883878 
L 183.193745 41.799544 
L 186.438669 43.02227 
L 189.683593 46.436316 
L 192.928517 51.876492 
L 196.173441 59.135206 
L 199.418365 67.970305 
L 202.66329 78.113474 
L 205.908214 89.278918 
L 209.153138 101.17212 
L 212.398062 113.498403 
L 215.642986 125.97112 
L 218.88791 138.319247 
L 222.132834 150.294218 
L 225.377758 261.889932 
L 228.622682 261.890291 
L 231.867606 182.429166 
L 235.112531 191.291089 
L 238.357455 199.011772 
L 241.602379 205.55405 
L 244.847303 210.922073 
L 248.092227 215.159242 
L 251.337151 218.344986 
L 254.582075 220.590478 
L 257.826999 222.033429 
L 261.071923 222.832092 
L 264.316847 223.158658 
L 267.561772 223.192242 
L 270.806696 223.111651 
L 274.05162 223.088173 
L 277.296544 223.278601 
L 280.541468 223.818735 
L 283.786392 224.817594 
L 287.031316 226.352557 
L 290.27624 228.465652 
L 293.521164 231.16119 
L 296.766088 234.404904 
L 300.011013 238.124751 
L 303.255937 242.213446 
L 306.500861 246.532812 
L 309.745785 250.91991 
L 312.990709 255.194904 
L 316.235633 259.170499 
L 319.480557 262.66274 
L 322.725481 265.502837 
L 325.970405 267.549604 
L 329.215329 268.701962 
L 332.460254 268.910851 
L 335.705178 268.189738 
L 338.950102 266.622776 
L 342.195026 264.369489 
L 345.43995 261.6647 
L 348.684874 258.81222 
L 351.929798 256.170606 
L 355.174722 254.129103 
L 358.419646 253.07162 
L 361.66457 253.326383 
L 364.909495 255.098599 
L 368.154419 258.383228 
L 371.399343 262.854648 
L 374.644267 267.729678 
L 377.889191 271.60011 
L 381.134115 272.230551 
L 384.379039 266.317001 
L 387.623963 249.201236 
" clip-path="url(#p6616a71e7c)" style="fill: none; stroke: #1f77b4; stroke-width: 1.5; stroke-linecap: square"/>
   </g>
   <g id="line2d_13">
    <path d="M 66.376477 275.445158 
L 69.020358 257.385174 
L 71.664239 249.390202 
L 74.308119 247.796224 
L 76.952 249.745404 
L 79.595881 253.065257 
L 82.239762 256.160735 
L 84.883642 257.918241 
L 87.527523 257.620653 
L 90.171404 254.872475 
L 92.815284 249.53428 
L 95.459165 241.665658 
L 98.103046 231.475933 
L 100.746927 219.281932 
L 103.390807 205.472161 
L 106.034688 190.47676 
L 108.678569 174.742655 
L 111.322449 158.713359 
L 113.96633 142.81292 
L 116.610211 127.433531 
L 119.254091 112.926371 
L 121.897972 99.595249 
L 124.541853 87.69269 
L 127.185734 77.418099 
L 129.829614 68.917687 
L 132.473495 62.285861 
L 135.117376 57.567804 
L 137.761256 54.763008 
L 140.405137 53.829532 
L 143.049018 54.688789 
L 145.692899 57.230677 
L 148.336779 61.318908 
L 150.98066 66.796381 
L 153.624541 73.490492 
L 156.268421 81.218269 
L 158.912302 89.791242 
L 161.556183 99.019991 
L 164.200064 108.718287 
L 166.843944 118.706808 
L 169.487825 128.816376 
L 172.131706 138.890704 
L 174.775586 148.788641 
L 177.419467 158.385907 
L 180.063348 167.576327 
L 182.707229 176.27258 
L 185.351109 184.406491 
L 187.99499 191.928873 
L 190.638871 198.808973 
L 193.282751 205.033553 
L 195.926632 261.901492 
L 198.570513 261.90319 
L 201.214393 218.92913 
L 203.858274 222.683908 
L 206.502155 225.976125 
L 209.146036 228.861152 
L 211.789916 231.396736 
L 214.433797 233.641017 
L 217.077678 235.650671 
L 219.721558 237.479252 
L 222.365439 239.175733 
L 225.00932 240.78329 
L 227.653201 242.338344 
L 230.297081 243.869868 
L 232.940962 245.398978 
L 235.584843 246.938804 
L 238.228723 248.494632 
L 240.872604 250.064318 
L 243.516485 251.638943 
L 246.160366 253.203698 
L 248.804246 254.738972 
L 251.448127 256.221591 
L 254.092008 257.626204 
L 256.735888 258.926737 
L 259.379769 260.0979 
L 262.02365 261.11668 
L 264.667531 261.963769 
L 267.311411 262.624895 
L 269.955292 263.091968 
L 272.599173 263.36402 
L 275.243053 263.447864 
L 277.886934 263.358433 
L 280.530815 263.118745 
L 283.174695 262.759454 
L 285.818576 262.317946 
L 288.462457 261.83695 
L 291.106338 261.362637 
L 293.750218 260.942199 
L 296.394099 260.620899 
L 299.03798 260.4386 
L 301.68186 260.425803 
L 304.325741 260.599223 
L 306.969622 260.956969 
L 309.613503 261.473396 
L 312.257383 262.09373 
L 314.901264 262.728581 
L 317.545145 263.248492 
L 320.189025 263.478702 
L 322.832906 263.194308 
L 325.476787 262.116077 
L 328.120668 259.907164 
" clip-path="url(#p6616a71e7c)" style="fill: none; stroke: #ff7f0e; stroke-width: 1.5; stroke-linecap: square"/>
   </g>
   <g id="line2d_14">
    <path d="M 66.376477 257.500718 
L 69.655816 253.207962 
L 72.935155 252.881833 
L 76.214494 253.998786 
L 79.493833 254.801395 
L 82.773171 254.14913 
L 86.05251 251.389576 
L 89.331849 246.248079 
L 92.611188 238.733964 
L 95.890527 229.061594 
L 99.169866 217.58465 
L 102.449205 204.742161 
L 105.728543 191.014878 
L 109.007882 176.890745 
L 112.287221 162.838287 
L 115.56656 149.286842 
L 118.845899 136.612659 
L 122.125238 125.12998 
L 125.404576 115.08628 
L 128.683915 106.660951 
L 131.963254 99.966765 
L 135.242593 95.053528 
L 138.521932 91.913417 
L 141.801271 90.487519 
L 145.08061 90.673196 
L 148.359948 92.331896 
L 151.639287 95.297147 
L 154.918626 99.382447 
L 158.197965 104.388861 
L 161.477304 110.112155 
L 164.756643 116.349309 
L 168.035981 122.904342 
L 171.31532 129.593341 
L 174.594659 136.248677 
L 177.873998 142.722362 
L 181.153337 148.88857 
L 184.432676 154.645319 
L 187.712014 159.915357 
L 190.991353 164.646306 
L 194.270692 168.810109 
L 197.550031 172.401861 
L 200.82937 175.438089 
L 204.108709 177.954577 
L 207.388048 180.003803 
L 210.667386 181.652087 
L 213.946725 182.976537 
L 217.226064 184.061864 
L 220.505403 184.997177 
L 223.784742 185.872804 
L 227.064081 261.905194 
L 230.343419 261.90635 
L 233.622758 188.827089 
L 236.902097 190.319051 
L 240.181436 192.130299 
L 243.460775 194.301155 
L 246.740114 196.857302 
L 250.019452 199.809162 
L 253.298791 203.151744 
L 256.57813 206.864939 
L 259.857469 210.914272 
L 263.136808 215.25207 
L 266.416147 219.819023 
L 269.695486 224.546096 
L 272.974824 229.356734 
L 276.254163 234.169319 
L 279.533502 238.899791 
L 282.812841 243.464389 
L 286.09218 247.782414 
L 289.371519 251.778953 
L 292.650857 255.387472 
L 295.930196 258.552198 
L 299.209535 261.230223 
L 302.488874 263.393226 
L 305.768213 265.028776 
L 309.047552 266.141108 
L 312.32689 266.751355 
L 315.606229 266.897159 
L 318.885568 266.631643 
L 322.164907 266.021722 
L 325.444246 265.145755 
L 328.723585 264.090562 
L 332.002924 262.947843 
L 335.282262 261.810089 
L 338.561601 260.766072 
L 341.84094 259.896061 
L 345.120279 259.26694 
L 348.399618 258.927427 
L 351.678957 258.903675 
L 354.958295 259.195545 
L 358.237634 259.773914 
L 361.516973 260.579429 
L 364.796312 261.523192 
L 368.075651 262.489898 
L 371.35499 263.34404 
L 374.634329 263.939865 
L 377.913667 264.135829 
L 381.193006 263.814397 
L 384.472345 262.908113 
L 387.751684 261.432959 
L 391.031023 259.530121 
" clip-path="url(#p6616a71e7c)" style="fill: none; stroke: #2ca02c; stroke-width: 1.5; stroke-linecap: square"/>
   </g>
   <g id="line2d_15">
    <path d="M 66.376477 254.357188 
L 69.373199 266.177335 
L 72.369921 268.184835 
L 75.366642 265.082692 
L 78.363364 260.089605 
L 81.360085 255.258842 
L 84.356807 251.74869 
L 87.353529 250.049719 
L 90.35025 250.173702 
L 93.346972 251.808656 
L 96.343694 254.44413 
L 99.340415 257.470503 
L 102.337137 260.255785 
L 105.333859 262.203051 
L 108.33058 262.791392 
L 111.327302 261.603 
L 114.324024 258.33871 
L 117.320745 252.824124 
L 120.317467 245.008188 
L 123.314188 234.955899 
L 126.31091 222.836601 
L 129.307632 208.909163 
L 132.304353 193.505155 
L 135.301075 177.010963 
L 138.297797 159.849664 
L 141.294518 142.463308 
L 144.29124 125.296184 
L 147.287962 108.779467 
L 150.284683 93.317594 
L 153.281405 79.276604 
L 156.278127 66.974575 
L 159.274848 56.674254 
L 162.27157 48.57788 
L 165.268291 42.824153 
L 168.265013 39.48726 
L 171.261735 38.577818 
L 174.258456 40.045564 
L 177.255178 43.78359 
L 180.2519 49.633919 
L 183.248621 57.394168 
L 186.245343 66.825082 
L 189.242065 77.658668 
L 192.238786 89.606712 
L 195.235508 102.369417 
L 198.232229 115.643954 
L 201.228951 129.132699 
L 204.225673 142.550966 
L 207.222394 155.634059 
L 210.219116 168.143482 
L 213.215838 261.891651 
L 216.212559 261.892495 
L 219.209281 200.15954 
L 222.206003 208.916966 
L 225.202724 216.447999 
L 228.199446 222.730671 
L 231.196168 227.78177 
L 234.192889 231.654418 
L 237.189611 234.434649 
L 240.186332 236.237059 
L 243.183054 237.19969 
L 246.179776 237.478257 
L 249.176497 237.239912 
L 252.173219 236.656707 
L 255.169941 235.898956 
L 258.166662 235.128696 
L 261.163384 234.493462 
L 264.160106 234.120566 
L 267.156827 234.112115 
L 270.153549 234.54093 
L 273.150271 235.447583 
L 276.146992 236.838699 
L 279.143714 238.686655 
L 282.140435 240.930813 
L 285.137157 243.480319 
L 288.133879 246.218524 
L 291.1306 249.008975 
L 294.127322 251.702907 
L 297.124044 254.14805 
L 300.120765 256.198545 
L 303.117487 257.725615 
L 306.114209 258.628595 
L 309.11093 258.845782 
L 312.107652 258.364468 
L 315.104374 257.229386 
L 318.101095 255.54866 
L 321.097817 253.496221 
L 324.094538 251.30945 
L 327.09126 249.280685 
L 330.087982 247.741009 
L 333.084703 247.034561 
L 336.081425 247.481376 
L 339.078147 249.326585 
L 342.074868 252.673499 
L 345.07159 257.39792 
L 348.068312 263.040711 
L 351.065033 268.675384 
L 354.061755 272.747193 
L 357.058476 272.879869 
L 360.055198 265.645839 
L 363.05192 246.295412 
" clip-path="url(#p6616a71e7c)" style="fill: none; stroke: #d62728; stroke-width: 1.5; stroke-linecap: square"/>
   </g>
   <g id="line2d_16">
    <path d="M 66.376477 254.156484 
L 68.762023 268.277851 
L 71.14757 270.982961 
L 73.533116 267.717516 
L 75.918662 262.209603 
L 78.304208 256.839682 
L 80.689754 252.954193 
L 83.075301 251.128891 
L 85.460847 251.387558 
L 87.846393 253.381322 
L 90.231939 256.533376 
L 92.617485 260.153531 
L 95.003031 263.526623 
L 97.388578 265.978473 
L 99.774124 266.922749 
L 102.15967 265.891768 
L 104.545216 262.553962 
L 106.930762 256.720474 
L 109.316309 248.343075 
L 111.701855 237.505328 
L 114.087401 224.408727 
L 116.472947 209.355294 
L 118.858493 192.727926 
L 121.24404 174.969601 
L 123.629586 156.56237 
L 126.015132 138.006915 
L 128.400678 119.803293 
L 130.786224 102.43337 
L 133.17177 86.345307 
L 135.557317 71.940371 
L 137.942863 59.562247 
L 140.328409 49.488904 
L 142.713955 41.927056 
L 145.099501 37.009128 
L 147.485048 34.792618 
L 149.870594 35.261697 
L 152.25614 38.330825 
L 154.641686 43.850165 
L 157.027232 51.61251 
L 159.412778 61.361479 
L 161.798325 72.800661 
L 164.183871 85.603441 
L 166.569417 99.423208 
L 168.954963 113.90367 
L 171.340509 128.689004 
L 173.726056 143.433582 
L 176.111602 157.811064 
L 178.497148 171.522617 
L 180.882694 184.304108 
L 183.26824 261.890573 
L 185.653787 261.891329 
L 188.039333 214.980073 
L 190.424879 222.535034 
L 192.810425 228.51885 
L 195.195971 232.941627 
L 197.581517 235.860992 
L 199.967064 237.378697 
L 202.35261 237.635995 
L 204.738156 236.807904 
L 207.123702 235.096528 
L 209.509248 232.723612 
L 211.894795 229.922522 
L 214.280341 226.92989 
L 216.665887 223.977148 
L 219.051433 221.282209 
L 221.436979 219.041538 
L 223.822525 217.422891 
L 226.208072 216.558951 
L 228.593618 216.542124 
L 230.979164 217.420714 
L 233.36471 219.196688 
L 235.750256 221.825198 
L 238.135803 225.216003 
L 240.521349 229.236891 
L 242.906895 233.719116 
L 245.292441 238.464853 
L 247.677987 243.256547 
L 250.063534 247.867993 
L 252.44908 252.076861 
L 254.834626 255.6783 
L 257.220172 258.499113 
L 259.605718 260.411905 
L 261.991264 261.348418 
L 264.376811 261.311177 
L 266.762357 260.382348 
L 269.147903 258.728567 
L 271.533449 256.600303 
L 273.918995 254.324096 
L 276.304542 252.285821 
L 278.690088 250.90285 
L 281.075634 250.582774 
L 283.46118 251.666068 
L 285.846726 254.349775 
L 288.232272 258.589017 
L 290.617819 263.972809 
L 293.003365 269.570307 
L 295.388911 273.743288 
L 297.774457 273.920262 
L 300.160003 266.327251 
L 302.54555 245.669835 
" clip-path="url(#p6616a71e7c)" style="fill: none; stroke: #9467bd; stroke-width: 1.5; stroke-linecap: square"/>
   </g>
   <g id="line2d_17">
    <path d="M 66.376477 267.080076 
L 68.918293 264.511821 
L 71.460108 260.015192 
L 74.001924 255.618577 
L 76.543739 252.445606 
L 79.085555 250.949393 
L 81.62737 251.106741 
L 84.169186 252.577015 
L 86.711002 254.830001 
L 89.252817 257.246735 
L 91.794633 259.196938 
L 94.336448 260.096373 
L 96.878264 259.44715 
L 99.420079 256.863702 
L 101.961895 252.086899 
L 104.50371 244.988513 
L 107.045526 235.567996 
L 109.587341 223.943331 
L 112.129157 210.337472 
L 114.670972 195.061746 
L 117.212788 178.497349 
L 119.754603 161.075944 
L 122.296419 143.260191 
L 124.838234 125.524908 
L 127.38005 108.339415 
L 129.921866 92.151511 
L 132.463681 77.373405 
L 135.005497 64.369844 
L 137.547312 53.448582 
L 140.089128 44.853245 
L 142.630943 38.758606 
L 145.172759 35.268193 
L 147.714574 34.414125 
L 150.25639 36.159011 
L 152.798205 40.399728 
L 155.340021 46.972843 
L 157.881836 55.661448 
L 160.423652 66.203142 
L 162.965467 78.298898 
L 165.507283 91.622534 
L 168.049098 105.830539 
L 170.590914 120.571961 
L 173.132729 135.498143 
L 175.674545 150.272035 
L 178.216361 164.576894 
L 180.758176 178.124151 
L 183.299992 190.660291 
L 185.841807 201.972599 
L 188.383623 211.893639 
L 190.925438 261.892679 
L 193.467254 261.894361 
L 196.009069 231.329013 
L 198.550885 235.252278 
L 201.0927 237.733093 
L 203.634516 238.878435 
L 206.176331 238.831649 
L 208.718147 237.767101 
L 211.259962 235.884001 
L 213.801778 233.399535 
L 216.343593 230.541481 
L 218.885409 227.540519 
L 221.427225 224.622403 
L 223.96904 222.000252 
L 226.510856 219.867136 
L 229.052671 218.389216 
L 231.594487 217.699638 
L 234.136302 217.8934 
L 236.678118 219.023404 
L 239.219933 221.097865 
L 241.761749 224.07925 
L 244.303564 227.884891 
L 246.84538 232.389354 
L 249.387195 237.428639 
L 251.929011 242.806225 
L 254.470826 248.300905 
L 257.012642 253.676313 
L 259.554457 258.691964 
L 262.096273 263.115549 
L 264.638089 266.736137 
L 267.179904 269.377844 
L 269.72172 270.913419 
L 272.263535 271.277084 
L 274.805351 270.475819 
L 277.347166 268.598189 
L 279.888982 265.819612 
L 282.430797 262.402845 
L 284.972613 258.692278 
L 287.514428 255.100447 
L 290.056244 252.084981 
L 292.598059 250.114009 
L 295.139875 249.617796 
L 297.68169 250.924185 
L 300.223506 254.175156 
L 302.765321 259.221553 
L 305.307137 265.492756 
L 307.848953 271.8378 
L 310.390768 276.334125 
L 312.932584 276.059826 
L 315.474399 266.824942 
L 318.016215 242.856971 
" clip-path="url(#p6616a71e7c)" style="fill: none; stroke: #8c564b; stroke-width: 1.5; stroke-linecap: square"/>
   </g>
   <g id="patch_3">
    <path d="M 50.14375 288.430125 
L 50.14375 22.318125 
" style="fill: none; stroke: #000000; stroke-width: 0.8; stroke-linejoin: miter; stroke-linecap: square"/>
   </g>
   <g id="patch_4">
    <path d="M 407.26375 288.430125 
L 407.26375 22.318125 
" style="fill: none; stroke: #000000; stroke-width: 0.8; stroke-linejoin: miter; stroke-linecap: square"/>
   </g>
   <g id="patch_5">
    <path d="M 50.14375 288.430125 
L 407.26375 288.430125 
" style="fill: none; stroke: #000000; stroke-width: 0.8; stroke-linejoin: miter; stroke-linecap: square"/>
   </g>
   <g id="patch_6">
    <path d="M 50.14375 22.318125 
L 407.26375 22.318125 
" style="fill: none; stroke: #000000; stroke-width: 0.8; stroke-linejoin: miter; stroke-linecap: square"/>
   </g>
   <g id="text_14">
    <!-- RD - harvardoxford-subcortical_prob_Left_Thalamus -->
    <g transform="translate(73.43125 16.318125) scale(0.12 -0.12)">
     <defs>
      <path id="DejaVuSans-52" d="M 2841 2188 
Q 3044 2119 3236 1894 
Q 3428 1669 3622 1275 
L 4263 0 
L 3584 0 
L 2988 1197 
Q 2756 1666 2539 1819 
Q 2322 1972 1947 1972 
L 1259 1972 
L 1259 0 
L 628 0 
L 628 4666 
L 2053 4666 
Q 2853 4666 3247 4331 
Q 3641 3997 3641 3322 
Q 3641 2881 3436 2590 
Q 3231 2300 2841 2188 
z
M 1259 4147 
L 1259 2491 
L 2053 2491 
Q 2509 2491 2742 2702 
Q 2975 2913 2975 3322 
Q 2975 3731 2742 3939 
Q 2509 4147 2053 4147 
L 1259 4147 
z
" transform="scale(0.015625)"/>
      <path id="DejaVuSans-44" d="M 1259 4147 
L 1259 519 
L 2022 519 
Q 2988 519 3436 956 
Q 3884 1394 3884 2338 
Q 3884 3275 3436 3711 
Q 2988 4147 2022 4147 
L 1259 4147 
z
M 628 4666 
L 1925 4666 
Q 3281 4666 3915 4102 
Q 4550 3538 4550 2338 
Q 4550 1131 3912 565 
Q 3275 0 1925 0 
L 628 0 
L 628 4666 
z
" transform="scale(0.015625)"/>
      <path id="DejaVuSans-2d" d="M 313 2009 
L 1997 2009 
L 1997 1497 
L 313 1497 
L 313 2009 
z
" transform="scale(0.015625)"/>
      <path id="DejaVuSans-68" d="M 3513 2113 
L 3513 0 
L 2938 0 
L 2938 2094 
Q 2938 2591 2744 2837 
Q 2550 3084 2163 3084 
Q 1697 3084 1428 2787 
Q 1159 2491 1159 1978 
L 1159 0 
L 581 0 
L 581 4863 
L 1159 4863 
L 1159 2956 
Q 1366 3272 1645 3428 
Q 1925 3584 2291 3584 
Q 2894 3584 3203 3211 
Q 3513 2838 3513 2113 
z
" transform="scale(0.015625)"/>
      <path id="DejaVuSans-64" d="M 2906 2969 
L 2906 4863 
L 3481 4863 
L 3481 0 
L 2906 0 
L 2906 525 
Q 2725 213 2448 61 
Q 2172 -91 1784 -91 
Q 1150 -91 751 415 
Q 353 922 353 1747 
Q 353 2572 751 3078 
Q 1150 3584 1784 3584 
Q 2172 3584 2448 3432 
Q 2725 3281 2906 2969 
z
M 947 1747 
Q 947 1113 1208 752 
Q 1469 391 1925 391 
Q 2381 391 2643 752 
Q 2906 1113 2906 1747 
Q 2906 2381 2643 2742 
Q 2381 3103 1925 3103 
Q 1469 3103 1208 2742 
Q 947 2381 947 1747 
z
" transform="scale(0.015625)"/>
      <path id="DejaVuSans-6f" d="M 1959 3097 
Q 1497 3097 1228 2736 
Q 959 2375 959 1747 
Q 959 1119 1226 758 
Q 1494 397 1959 397 
Q 2419 397 2687 759 
Q 2956 1122 2956 1747 
Q 2956 2369 2687 2733 
Q 2419 3097 1959 3097 
z
M 1959 3584 
Q 2709 3584 3137 3096 
Q 3566 2609 3566 1747 
Q 3566 888 3137 398 
Q 2709 -91 1959 -91 
Q 1206 -91 779 398 
Q 353 888 353 1747 
Q 353 2609 779 3096 
Q 1206 3584 1959 3584 
z
" transform="scale(0.015625)"/>
      <path id="DejaVuSans-66" d="M 2375 4863 
L 2375 4384 
L 1825 4384 
Q 1516 4384 1395 4259 
Q 1275 4134 1275 3809 
L 1275 3500 
L 2222 3500 
L 2222 3053 
L 1275 3053 
L 1275 0 
L 697 0 
L 697 3053 
L 147 3053 
L 147 3500 
L 697 3500 
L 697 3744 
Q 697 4328 969 4595 
Q 1241 4863 1831 4863 
L 2375 4863 
z
" transform="scale(0.015625)"/>
      <path id="DejaVuSans-62" d="M 3116 1747 
Q 3116 2381 2855 2742 
Q 2594 3103 2138 3103 
Q 1681 3103 1420 2742 
Q 1159 2381 1159 1747 
Q 1159 1113 1420 752 
Q 1681 391 2138 391 
Q 2594 391 2855 752 
Q 3116 1113 3116 1747 
z
M 1159 2969 
Q 1341 3281 1617 3432 
Q 1894 3584 2278 3584 
Q 2916 3584 3314 3078 
Q 3713 2572 3713 1747 
Q 3713 922 3314 415 
Q 2916 -91 2278 -91 
Q 1894 -91 1617 61 
Q 1341 213 1159 525 
L 1159 0 
L 581 0 
L 581 4863 
L 1159 4863 
L 1159 2969 
z
" transform="scale(0.015625)"/>
      <path id="DejaVuSans-74" d="M 1172 4494 
L 1172 3500 
L 2356 3500 
L 2356 3053 
L 1172 3053 
L 1172 1153 
Q 1172 725 1289 603 
Q 1406 481 1766 481 
L 2356 481 
L 2356 0 
L 1766 0 
Q 1100 0 847 248 
Q 594 497 594 1153 
L 594 3053 
L 172 3053 
L 172 3500 
L 594 3500 
L 594 4494 
L 1172 4494 
z
" transform="scale(0.015625)"/>
      <path id="DejaVuSans-5f" d="M 3263 -1063 
L 3263 -1509 
L -63 -1509 
L -63 -1063 
L 3263 -1063 
z
" transform="scale(0.015625)"/>
      <path id="DejaVuSans-70" d="M 1159 525 
L 1159 -1331 
L 581 -1331 
L 581 3500 
L 1159 3500 
L 1159 2969 
Q 1341 3281 1617 3432 
Q 1894 3584 2278 3584 
Q 2916 3584 3314 3078 
Q 3713 2572 3713 1747 
Q 3713 922 3314 415 
Q 2916 -91 2278 -91 
Q 1894 -91 1617 61 
Q 1341 213 1159 525 
z
M 3116 1747 
Q 3116 2381 2855 2742 
Q 2594 3103 2138 3103 
Q 1681 3103 1420 2742 
Q 1159 2381 1159 1747 
Q 1159 1113 1420 752 
Q 1681 391 2138 391 
Q 2594 391 2855 752 
Q 3116 1113 3116 1747 
z
" transform="scale(0.015625)"/>
      <path id="DejaVuSans-4c" d="M 628 4666 
L 1259 4666 
L 1259 531 
L 3531 531 
L 3531 0 
L 628 0 
L 628 4666 
z
" transform="scale(0.015625)"/>
      <path id="DejaVuSans-54" d="M -19 4666 
L 3928 4666 
L 3928 4134 
L 2272 4134 
L 2272 0 
L 1638 0 
L 1638 4134 
L -19 4134 
L -19 4666 
z
" transform="scale(0.015625)"/>
      <path id="DejaVuSans-6d" d="M 3328 2828 
Q 3544 3216 3844 3400 
Q 4144 3584 4550 3584 
Q 5097 3584 5394 3201 
Q 5691 2819 5691 2113 
L 5691 0 
L 5113 0 
L 5113 2094 
Q 5113 2597 4934 2840 
Q 4756 3084 4391 3084 
Q 3944 3084 3684 2787 
Q 3425 2491 3425 1978 
L 3425 0 
L 2847 0 
L 2847 2094 
Q 2847 2600 2669 2842 
Q 2491 3084 2119 3084 
Q 1678 3084 1418 2786 
Q 1159 2488 1159 1978 
L 1159 0 
L 581 0 
L 581 3500 
L 1159 3500 
L 1159 2956 
Q 1356 3278 1631 3431 
Q 1906 3584 2284 3584 
Q 2666 3584 2933 3390 
Q 3200 3197 3328 2828 
z
" transform="scale(0.015625)"/>
     </defs>
     <use xlink:href="#DejaVuSans-52"/>
     <use xlink:href="#DejaVuSans-44" x="69.482422"/>
     <use xlink:href="#DejaVuSans-20" x="146.484375"/>
     <use xlink:href="#DejaVuSans-2d" x="178.271484"/>
     <use xlink:href="#DejaVuSans-20" x="214.355469"/>
     <use xlink:href="#DejaVuSans-68" x="246.142578"/>
     <use xlink:href="#DejaVuSans-61" x="309.521484"/>
     <use xlink:href="#DejaVuSans-72" x="370.800781"/>
     <use xlink:href="#DejaVuSans-76" x="411.914062"/>
     <use xlink:href="#DejaVuSans-61" x="471.09375"/>
     <use xlink:href="#DejaVuSans-72" x="532.373047"/>
     <use xlink:href="#DejaVuSans-64" x="571.736328"/>
     <use xlink:href="#DejaVuSans-6f" x="635.212891"/>
     <use xlink:href="#DejaVuSans-78" x="693.269531"/>
     <use xlink:href="#DejaVuSans-66" x="752.449219"/>
     <use xlink:href="#DejaVuSans-6f" x="787.654297"/>
     <use xlink:href="#DejaVuSans-72" x="848.835938"/>
     <use xlink:href="#DejaVuSans-64" x="888.199219"/>
     <use xlink:href="#DejaVuSans-2d" x="951.675781"/>
     <use xlink:href="#DejaVuSans-73" x="987.759766"/>
     <use xlink:href="#DejaVuSans-75" x="1039.859375"/>
     <use xlink:href="#DejaVuSans-62" x="1103.238281"/>
     <use xlink:href="#DejaVuSans-63" x="1166.714844"/>
     <use xlink:href="#DejaVuSans-6f" x="1221.695312"/>
     <use xlink:href="#DejaVuSans-72" x="1282.876953"/>
     <use xlink:href="#DejaVuSans-74" x="1323.990234"/>
     <use xlink:href="#DejaVuSans-69" x="1363.199219"/>
     <use xlink:href="#DejaVuSans-63" x="1390.982422"/>
     <use xlink:href="#DejaVuSans-61" x="1445.962891"/>
     <use xlink:href="#DejaVuSans-6c" x="1507.242188"/>
     <use xlink:href="#DejaVuSans-5f" x="1535.025391"/>
     <use xlink:href="#DejaVuSans-70" x="1585.025391"/>
     <use xlink:href="#DejaVuSans-72" x="1648.501953"/>
     <use xlink:href="#DejaVuSans-6f" x="1687.365234"/>
     <use xlink:href="#DejaVuSans-62" x="1748.546875"/>
     <use xlink:href="#DejaVuSans-5f" x="1812.023438"/>
     <use xlink:href="#DejaVuSans-4c" x="1862.023438"/>
     <use xlink:href="#DejaVuSans-65" x="1915.986328"/>
     <use xlink:href="#DejaVuSans-66" x="1977.509766"/>
     <use xlink:href="#DejaVuSans-74" x="2010.964844"/>
     <use xlink:href="#DejaVuSans-5f" x="2050.173828"/>
     <use xlink:href="#DejaVuSans-54" x="2100.173828"/>
     <use xlink:href="#DejaVuSans-68" x="2161.257812"/>
     <use xlink:href="#DejaVuSans-61" x="2224.636719"/>
     <use xlink:href="#DejaVuSans-6c" x="2285.916016"/>
     <use xlink:href="#DejaVuSans-61" x="2313.699219"/>
     <use xlink:href="#DejaVuSans-6d" x="2374.978516"/>
     <use xlink:href="#DejaVuSans-75" x="2472.390625"/>
     <use xlink:href="#DejaVuSans-73" x="2535.769531"/>
    </g>
   </g>
   <g id="legend_1">
    <g id="patch_7">
     <path d="M 449.97575 146.666825 
L 547.832 146.666825 
Q 549.832 146.666825 549.832 144.666825 
L 549.832 55.929325 
Q 549.832 53.929325 547.832 53.929325 
L 449.97575 53.929325 
Q 447.97575 53.929325 447.97575 55.929325 
L 447.97575 144.666825 
Q 447.97575 146.666825 449.97575 146.666825 
z
" style="fill: #ffffff; opacity: 0.8; stroke: #cccccc; stroke-linejoin: miter"/>
    </g>
    <g id="line2d_18">
     <path d="M 451.97575 62.027762 
L 461.97575 62.027762 
L 471.97575 62.027762 
" style="fill: none; stroke: #1f77b4; stroke-width: 1.5; stroke-linecap: square"/>
    </g>
    <g id="text_15">
     <!-- 20_06_02_E3 -->
     <g transform="translate(479.97575 65.527762) scale(0.1 -0.1)">
      <defs>
       <path id="DejaVuSans-45" d="M 628 4666 
L 3578 4666 
L 3578 4134 
L 1259 4134 
L 1259 2753 
L 3481 2753 
L 3481 2222 
L 1259 2222 
L 1259 531 
L 3634 531 
L 3634 0 
L 628 0 
L 628 4666 
z
" transform="scale(0.015625)"/>
      </defs>
      <use xlink:href="#DejaVuSans-32"/>
      <use xlink:href="#DejaVuSans-30" x="63.623047"/>
      <use xlink:href="#DejaVuSans-5f" x="127.246094"/>
      <use xlink:href="#DejaVuSans-30" x="177.246094"/>
      <use xlink:href="#DejaVuSans-36" x="240.869141"/>
      <use xlink:href="#DejaVuSans-5f" x="304.492188"/>
      <use xlink:href="#DejaVuSans-30" x="354.492188"/>
      <use xlink:href="#DejaVuSans-32" x="418.115234"/>
      <use xlink:href="#DejaVuSans-5f" x="481.738281"/>
      <use xlink:href="#DejaVuSans-45" x="531.738281"/>
      <use xlink:href="#DejaVuSans-33" x="594.921875"/>
     </g>
    </g>
    <g id="line2d_19">
     <path d="M 451.97575 76.984013 
L 461.97575 76.984013 
L 471.97575 76.984013 
" style="fill: none; stroke: #ff7f0e; stroke-width: 1.5; stroke-linecap: square"/>
    </g>
    <g id="text_16">
     <!-- 20_05_01_E3 -->
     <g transform="translate(479.97575 80.484013) scale(0.1 -0.1)">
      <defs>
       <path id="DejaVuSans-35" d="M 691 4666 
L 3169 4666 
L 3169 4134 
L 1269 4134 
L 1269 2991 
Q 1406 3038 1543 3061 
Q 1681 3084 1819 3084 
Q 2600 3084 3056 2656 
Q 3513 2228 3513 1497 
Q 3513 744 3044 326 
Q 2575 -91 1722 -91 
Q 1428 -91 1123 -41 
Q 819 9 494 109 
L 494 744 
Q 775 591 1075 516 
Q 1375 441 1709 441 
Q 2250 441 2565 725 
Q 2881 1009 2881 1497 
Q 2881 1984 2565 2268 
Q 2250 2553 1709 2553 
Q 1456 2553 1204 2497 
Q 953 2441 691 2322 
L 691 4666 
z
" transform="scale(0.015625)"/>
      </defs>
      <use xlink:href="#DejaVuSans-32"/>
      <use xlink:href="#DejaVuSans-30" x="63.623047"/>
      <use xlink:href="#DejaVuSans-5f" x="127.246094"/>
      <use xlink:href="#DejaVuSans-30" x="177.246094"/>
      <use xlink:href="#DejaVuSans-35" x="240.869141"/>
      <use xlink:href="#DejaVuSans-5f" x="304.492188"/>
      <use xlink:href="#DejaVuSans-30" x="354.492188"/>
      <use xlink:href="#DejaVuSans-31" x="418.115234"/>
      <use xlink:href="#DejaVuSans-5f" x="481.738281"/>
      <use xlink:href="#DejaVuSans-45" x="531.738281"/>
      <use xlink:href="#DejaVuSans-33" x="594.921875"/>
     </g>
    </g>
    <g id="line2d_20">
     <path d="M 451.97575 91.940262 
L 461.97575 91.940262 
L 471.97575 91.940262 
" style="fill: none; stroke: #2ca02c; stroke-width: 1.5; stroke-linecap: square"/>
    </g>
    <g id="text_17">
     <!-- 20_02_02_E3 -->
     <g transform="translate(479.97575 95.440262) scale(0.1 -0.1)">
      <use xlink:href="#DejaVuSans-32"/>
      <use xlink:href="#DejaVuSans-30" x="63.623047"/>
      <use xlink:href="#DejaVuSans-5f" x="127.246094"/>
      <use xlink:href="#DejaVuSans-30" x="177.246094"/>
      <use xlink:href="#DejaVuSans-32" x="240.869141"/>
      <use xlink:href="#DejaVuSans-5f" x="304.492188"/>
      <use xlink:href="#DejaVuSans-30" x="354.492188"/>
      <use xlink:href="#DejaVuSans-32" x="418.115234"/>
      <use xlink:href="#DejaVuSans-5f" x="481.738281"/>
      <use xlink:href="#DejaVuSans-45" x="531.738281"/>
      <use xlink:href="#DejaVuSans-33" x="594.921875"/>
     </g>
    </g>
    <g id="line2d_21">
     <path d="M 451.97575 106.896513 
L 461.97575 106.896513 
L 471.97575 106.896513 
" style="fill: none; stroke: #d62728; stroke-width: 1.5; stroke-linecap: square"/>
    </g>
    <g id="text_18">
     <!-- 20_10_02_E3 -->
     <g transform="translate(479.97575 110.396513) scale(0.1 -0.1)">
      <use xlink:href="#DejaVuSans-32"/>
      <use xlink:href="#DejaVuSans-30" x="63.623047"/>
      <use xlink:href="#DejaVuSans-5f" x="127.246094"/>
      <use xlink:href="#DejaVuSans-31" x="177.246094"/>
      <use xlink:href="#DejaVuSans-30" x="240.869141"/>
      <use xlink:href="#DejaVuSans-5f" x="304.492188"/>
      <use xlink:href="#DejaVuSans-30" x="354.492188"/>
      <use xlink:href="#DejaVuSans-32" x="418.115234"/>
      <use xlink:href="#DejaVuSans-5f" x="481.738281"/>
      <use xlink:href="#DejaVuSans-45" x="531.738281"/>
      <use xlink:href="#DejaVuSans-33" x="594.921875"/>
     </g>
    </g>
    <g id="line2d_22">
     <path d="M 451.97575 121.852762 
L 461.97575 121.852762 
L 471.97575 121.852762 
" style="fill: none; stroke: #9467bd; stroke-width: 1.5; stroke-linecap: square"/>
    </g>
    <g id="text_19">
     <!-- 20_08_02_E3 -->
     <g transform="translate(479.97575 125.352762) scale(0.1 -0.1)">
      <use xlink:href="#DejaVuSans-32"/>
      <use xlink:href="#DejaVuSans-30" x="63.623047"/>
      <use xlink:href="#DejaVuSans-5f" x="127.246094"/>
      <use xlink:href="#DejaVuSans-30" x="177.246094"/>
      <use xlink:href="#DejaVuSans-38" x="240.869141"/>
      <use xlink:href="#DejaVuSans-5f" x="304.492188"/>
      <use xlink:href="#DejaVuSans-30" x="354.492188"/>
      <use xlink:href="#DejaVuSans-32" x="418.115234"/>
      <use xlink:href="#DejaVuSans-5f" x="481.738281"/>
      <use xlink:href="#DejaVuSans-45" x="531.738281"/>
      <use xlink:href="#DejaVuSans-33" x="594.921875"/>
     </g>
    </g>
    <g id="line2d_23">
     <path d="M 451.97575 136.809012 
L 461.97575 136.809012 
L 471.97575 136.809012 
" style="fill: none; stroke: #8c564b; stroke-width: 1.5; stroke-linecap: square"/>
    </g>
    <g id="text_20">
     <!-- 20_11_02_E3 -->
     <g transform="translate(479.97575 140.309012) scale(0.1 -0.1)">
      <use xlink:href="#DejaVuSans-32"/>
      <use xlink:href="#DejaVuSans-30" x="63.623047"/>
      <use xlink:href="#DejaVuSans-5f" x="127.246094"/>
      <use xlink:href="#DejaVuSans-31" x="177.246094"/>
      <use xlink:href="#DejaVuSans-31" x="240.869141"/>
      <use xlink:href="#DejaVuSans-5f" x="304.492188"/>
      <use xlink:href="#DejaVuSans-30" x="354.492188"/>
      <use xlink:href="#DejaVuSans-32" x="418.115234"/>
      <use xlink:href="#DejaVuSans-5f" x="481.738281"/>
      <use xlink:href="#DejaVuSans-45" x="531.738281"/>
      <use xlink:href="#DejaVuSans-33" x="594.921875"/>
     </g>
    </g>
   </g>
  </g>
 </g>
 <defs>
  <clipPath id="p6616a71e7c">
   <rect x="50.14375" y="22.318125" width="357.12" height="266.112"/>
  </clipPath>
 </defs>
</svg>
