<?xml version="1.0" encoding="utf-8" standalone="no"?>
<!DOCTYPE svg PUBLIC "-//W3C//DTD SVG 1.1//EN"
  "http://www.w3.org/Graphics/SVG/1.1/DTD/svg11.dtd">
<svg xmlns:xlink="http://www.w3.org/1999/xlink" width="565.411687pt" height="325.986375pt" viewBox="0 0 565.411687 325.986375" xmlns="http://www.w3.org/2000/svg" version="1.1">
 <metadata>
  <rdf:RDF xmlns:dc="http://purl.org/dc/elements/1.1/" xmlns:cc="http://creativecommons.org/ns#" xmlns:rdf="http://www.w3.org/1999/02/22-rdf-syntax-ns#">
   <cc:Work>
    <dc:type rdf:resource="http://purl.org/dc/dcmitype/StillImage"/>
    <dc:date>2023-02-07T23:00:03.809987</dc:date>
    <dc:format>image/svg+xml</dc:format>
    <dc:creator>
     <cc:Agent>
      <dc:title>Matplotlib v3.6.2, https://matplotlib.org/</dc:title>
     </cc:Agent>
    </dc:creator>
   </cc:Work>
  </rdf:RDF>
 </metadata>
 <defs>
  <style type="text/css">*{stroke-linejoin: round; stroke-linecap: butt}</style>
 </defs>
 <g id="figure_1">
  <g id="patch_1">
   <path d="M 0 325.986375 
L 565.411687 325.986375 
L 565.411687 0 
L 0 0 
z
" style="fill: #ffffff"/>
  </g>
  <g id="axes_1">
   <g id="patch_2">
    <path d="M 58.523438 288.430125 
L 415.643438 288.430125 
L 415.643438 22.318125 
L 58.523438 22.318125 
z
" style="fill: #ffffff"/>
   </g>
   <g id="PolyCollection_1">
    <path d="M 74.756165 204.259305 
L 74.756165 218.65493 
L 75.426379 218.65493 
L 76.096593 218.65493 
L 76.766808 218.65493 
L 77.437022 218.65493 
L 78.107236 218.65493 
L 78.77745 218.65493 
L 79.447665 218.65493 
L 80.117879 218.65493 
L 80.788093 218.65493 
L 81.458307 218.65493 
L 82.128522 218.65493 
L 82.798736 218.65493 
L 83.46895 218.65493 
L 84.139164 218.65493 
L 84.809379 218.65493 
L 85.479593 218.65493 
L 86.149807 218.65493 
L 86.820021 218.65493 
L 87.490236 218.65493 
L 88.16045 218.65493 
L 88.830664 218.65493 
L 89.500878 218.65493 
L 90.171093 218.65493 
L 90.841307 218.65493 
L 91.511521 218.65493 
L 92.181735 218.65493 
L 92.85195 218.65493 
L 93.522164 218.65493 
L 94.192378 218.65493 
L 94.862592 218.65493 
L 95.532807 218.65493 
L 96.203021 218.65493 
L 96.873235 218.65493 
L 97.543449 218.65493 
L 98.213664 218.65493 
L 98.883878 218.65493 
L 99.554092 218.65493 
L 100.224306 218.65493 
L 100.894521 218.65493 
L 101.564735 218.65493 
L 102.234949 218.65493 
L 102.905163 218.65493 
L 103.575378 218.65493 
L 104.245592 218.65493 
L 104.915806 218.65493 
L 105.58602 218.65493 
L 106.256235 218.65493 
L 106.926449 218.65493 
L 107.596663 218.65493 
L 108.266877 218.65493 
L 108.937092 218.65493 
L 109.607306 218.65493 
L 110.27752 218.65493 
L 110.947734 218.65493 
L 111.617949 218.65493 
L 112.288163 218.65493 
L 112.958377 218.65493 
L 113.628592 218.65493 
L 114.298806 218.65493 
L 114.96902 218.65493 
L 115.639234 218.65493 
L 116.309449 218.65493 
L 116.979663 218.65493 
L 117.649877 218.65493 
L 118.320091 218.65493 
L 118.990306 218.65493 
L 119.66052 218.65493 
L 120.330734 218.65493 
L 121.000948 218.65493 
L 121.671163 218.65493 
L 122.341377 218.65493 
L 123.011591 218.65493 
L 123.681805 218.65493 
L 124.35202 218.65493 
L 125.022234 218.65493 
L 125.692448 218.65493 
L 126.362662 218.65493 
L 127.032877 218.65493 
L 127.703091 218.65493 
L 128.373305 218.65493 
L 129.043519 218.65493 
L 129.713734 218.65493 
L 130.383948 218.65493 
L 131.054162 218.65493 
L 131.724376 218.65493 
L 132.394591 218.65493 
L 133.064805 218.65493 
L 133.735019 218.65493 
L 134.405233 218.65493 
L 135.075448 218.65493 
L 135.745662 218.65493 
L 136.415876 218.65493 
L 137.08609 218.65493 
L 137.756305 218.65493 
L 138.426519 218.65493 
L 139.096733 218.65493 
L 139.766947 218.65493 
L 140.437162 218.65493 
L 141.107376 218.65493 
L 141.107376 226.203528 
L 141.107376 226.203528 
L 140.437162 216.994401 
L 139.766947 213.25232 
L 139.096733 212.900735 
L 138.426519 214.419152 
L 137.756305 216.733991 
L 137.08609 219.125276 
L 136.415876 221.147484 
L 135.745662 222.563015 
L 135.075448 223.286831 
L 134.405233 223.340974 
L 133.735019 222.817726 
L 133.064805 221.850309 
L 132.394591 220.590101 
L 131.724376 219.189452 
L 131.054162 217.789236 
L 130.383948 216.510402 
L 129.713734 215.448826 
L 129.043519 214.672848 
L 128.373305 214.22296 
L 127.703091 214.113144 
L 127.032877 214.333459 
L 126.362662 214.853487 
L 125.692448 215.626329 
L 125.022234 216.592889 
L 124.35202 217.686195 
L 123.681805 218.835603 
L 123.011591 219.9707 
L 122.341377 221.024818 
L 121.671163 221.938054 
L 121.000948 222.659749 
L 120.330734 223.150379 
L 119.66052 223.382859 
L 118.990306 223.343259 
L 118.320091 223.030945 
L 117.649877 222.458203 
L 116.979663 221.649371 
L 116.309449 220.63955 
L 115.639234 219.472952 
L 114.96902 218.200959 
L 114.298806 216.879958 
L 113.628592 215.569034 
L 112.958377 214.327597 
L 112.288163 213.213009 
L 111.617949 212.278284 
L 110.947734 211.569935 
L 110.27752 211.12602 
L 109.607306 210.974447 
L 108.937092 211.131593 
L 108.266877 218.656964 
L 107.596663 218.65719 
L 106.926449 212.652041 
L 106.256235 214.033486 
L 105.58602 215.64717 
L 104.915806 217.426449 
L 104.245592 219.292801 
L 103.575378 221.157959 
L 102.905163 222.926455 
L 102.234949 224.49853 
L 101.564735 225.773324 
L 100.894521 226.652288 
L 100.224306 227.042722 
L 99.554092 226.86135 
L 98.883878 226.037834 
L 98.213664 224.518129 
L 97.543449 222.267555 
L 96.873235 219.2735 
L 96.203021 215.547635 
L 95.532807 211.127535 
L 94.862592 206.077615 
L 94.192378 200.489287 
L 93.522164 194.480262 
L 92.85195 188.192916 
L 92.181735 181.791697 
L 91.511521 175.459518 
L 90.841307 169.393137 
L 90.171093 163.797555 
L 89.500878 158.87947 
L 88.830664 154.83987 
L 88.16045 151.865902 
L 87.490236 150.122171 
L 86.820021 149.741688 
L 86.149807 150.816725 
L 85.479593 153.389911 
L 84.809379 157.445932 
L 84.139164 162.904304 
L 83.46895 169.613723 
L 82.798736 177.348599 
L 82.128522 185.808447 
L 81.458307 194.620909 
L 80.788093 203.349263 
L 80.117879 211.505383 
L 79.447665 218.569229 
L 78.77745 224.016025 
L 78.107236 227.352453 
L 77.437022 228.163276 
L 76.766808 226.169948 
L 76.096593 221.302928 
L 75.426379 213.789527 
L 74.756165 204.259305 
z
" clip-path="url(#p9e1e079526)" style="fill: #1f77b4; fill-opacity: 0.166667"/>
   </g>
   <g id="PolyCollection_2">
    <path d="M 74.756165 223.912173 
L 74.756165 218.65493 
L 78.035504 218.65493 
L 81.314842 218.65493 
L 84.594181 218.65493 
L 87.87352 218.65493 
L 91.152859 218.65493 
L 94.432198 218.65493 
L 97.711537 218.65493 
L 100.990876 218.65493 
L 104.270214 218.65493 
L 107.549553 218.65493 
L 110.828892 218.65493 
L 114.108231 218.65493 
L 117.38757 218.65493 
L 120.666909 218.65493 
L 123.946247 218.65493 
L 127.225586 218.65493 
L 130.504925 218.65493 
L 133.784264 218.65493 
L 137.063603 218.65493 
L 140.342942 218.65493 
L 143.62228 218.65493 
L 146.901619 218.65493 
L 150.180958 218.65493 
L 153.460297 218.65493 
L 156.739636 218.65493 
L 160.018975 218.65493 
L 163.298314 218.65493 
L 166.577652 218.65493 
L 169.856991 218.65493 
L 173.13633 218.65493 
L 176.415669 218.65493 
L 179.695008 218.65493 
L 182.974347 218.65493 
L 186.253685 218.65493 
L 189.533024 218.65493 
L 192.812363 218.65493 
L 196.091702 218.65493 
L 199.371041 218.65493 
L 202.65038 218.65493 
L 205.929718 218.65493 
L 209.209057 218.65493 
L 212.488396 218.65493 
L 215.767735 218.65493 
L 219.047074 218.65493 
L 222.326413 218.65493 
L 225.605752 218.65493 
L 228.88509 218.65493 
L 232.164429 218.65493 
L 235.443768 218.65493 
L 238.723107 218.65493 
L 242.002446 218.65493 
L 245.281785 218.65493 
L 248.561123 218.65493 
L 251.840462 218.65493 
L 255.119801 218.65493 
L 258.39914 218.65493 
L 261.678479 218.65493 
L 264.957818 218.65493 
L 268.237157 218.65493 
L 271.516495 218.65493 
L 274.795834 218.65493 
L 278.075173 218.65493 
L 281.354512 218.65493 
L 284.633851 218.65493 
L 287.91319 218.65493 
L 291.192528 218.65493 
L 294.471867 218.65493 
L 297.751206 218.65493 
L 301.030545 218.65493 
L 304.309884 218.65493 
L 307.589223 218.65493 
L 310.868561 218.65493 
L 314.1479 218.65493 
L 317.427239 218.65493 
L 320.706578 218.65493 
L 323.985917 218.65493 
L 327.265256 218.65493 
L 330.544595 218.65493 
L 333.823933 218.65493 
L 337.103272 218.65493 
L 340.382611 218.65493 
L 343.66195 218.65493 
L 346.941289 218.65493 
L 350.220628 218.65493 
L 353.499966 218.65493 
L 356.779305 218.65493 
L 360.058644 218.65493 
L 363.337983 218.65493 
L 366.617322 218.65493 
L 369.896661 218.65493 
L 373.175999 218.65493 
L 376.455338 218.65493 
L 379.734677 218.65493 
L 383.014016 218.65493 
L 386.293355 218.65493 
L 389.572694 218.65493 
L 392.852033 218.65493 
L 396.131371 218.65493 
L 399.41071 218.65493 
L 399.41071 237.477459 
L 399.41071 237.477459 
L 396.131371 214.285055 
L 392.852033 205.154577 
L 389.572694 204.591584 
L 386.293355 208.626118 
L 383.014016 214.50023 
L 379.734677 220.403246 
L 376.455338 225.249409 
L 373.175999 228.492977 
L 369.896661 229.976255 
L 366.617322 229.806393 
L 363.337983 228.257169 
L 360.058644 225.692305 
L 356.779305 222.507175 
L 353.499966 219.086075 
L 350.220628 215.772522 
L 346.941289 212.850284 
L 343.66195 210.533127 
L 340.382611 208.961469 
L 337.103272 208.204387 
L 333.823933 208.265584 
L 330.544595 209.09213 
L 327.265256 210.584988 
L 323.985917 212.610444 
L 320.706578 215.011753 
L 317.427239 217.620429 
L 314.1479 220.26672 
L 310.868561 222.788931 
L 307.589223 225.041357 
L 304.309884 226.900658 
L 301.030545 228.270603 
L 297.751206 229.085171 
L 294.471867 229.310048 
L 291.192528 228.942609 
L 287.91319 228.010526 
L 284.633851 226.569151 
L 281.354512 224.697872 
L 278.075173 222.495636 
L 274.795834 220.075863 
L 271.516495 217.560953 
L 268.237157 215.07662 
L 264.957818 212.746255 
L 261.678479 210.685511 
L 258.39914 208.997313 
L 255.119801 207.767435 
L 251.840462 207.060807 
L 248.561123 206.918661 
L 245.281785 207.356616 
L 242.002446 208.363755 
L 238.723107 218.658519 
L 235.443768 218.658095 
L 232.164429 213.592195 
L 228.88509 215.996603 
L 225.605752 218.601389 
L 222.326413 221.283193 
L 219.047074 223.91069 
L 215.767735 226.350146 
L 212.488396 228.471326 
L 209.209057 230.153549 
L 205.929718 231.2917 
L 202.65038 231.80195 
L 199.371041 231.626973 
L 196.091702 230.740407 
L 192.812363 229.150345 
L 189.533024 226.90162 
L 186.253685 224.076679 
L 182.974347 220.794871 
L 179.695008 217.209984 
L 176.415669 213.505915 
L 173.13633 209.89042 
L 169.856991 206.586902 
L 166.577652 203.824322 
L 163.298314 201.825339 
L 160.018975 200.792893 
L 156.739636 200.895564 
L 153.460297 202.252099 
L 150.180958 204.915674 
L 146.901619 208.858544 
L 143.62228 213.957924 
L 140.342942 219.984066 
L 137.063603 226.5917 
L 133.784264 233.31618 
L 130.504925 239.575882 
L 127.225586 244.682637 
L 123.946247 247.862183 
L 120.666909 248.286917 
L 117.38757 245.123463 
L 114.108231 237.597868 
L 110.828892 225.081557 
L 107.549553 207.201487 
L 104.270214 183.978286 
L 100.990876 155.996531 
L 97.711537 124.611698 
L 94.432198 92.198723 
L 91.152859 62.447533 
L 87.87352 40.711362 
L 84.594181 34.414125 
L 81.314842 53.523615 
L 78.035504 111.097822 
L 74.756165 223.912173 
z
" clip-path="url(#p9e1e079526)" style="fill: #ff7f0e; fill-opacity: 0.166667"/>
   </g>
   <g id="PolyCollection_3">
    <path d="M 74.756165 232.711293 
L 74.756165 218.65493 
L 76.943535 218.65493 
L 79.130905 218.65493 
L 81.318276 218.65493 
L 83.505646 218.65493 
L 85.693016 218.65493 
L 87.880387 218.65493 
L 90.067757 218.65493 
L 92.255127 218.65493 
L 94.442497 218.65493 
L 96.629868 218.65493 
L 98.817238 218.65493 
L 101.004608 218.65493 
L 103.191979 218.65493 
L 105.379349 218.65493 
L 107.566719 218.65493 
L 109.75409 218.65493 
L 111.94146 218.65493 
L 114.12883 218.65493 
L 116.3162 218.65493 
L 118.503571 218.65493 
L 120.690941 218.65493 
L 122.878311 218.65493 
L 125.065682 218.65493 
L 127.253052 218.65493 
L 129.440422 218.65493 
L 131.627792 218.65493 
L 133.815163 218.65493 
L 136.002533 218.65493 
L 138.189903 218.65493 
L 140.377274 218.65493 
L 142.564644 218.65493 
L 144.752014 218.65493 
L 146.939385 218.65493 
L 149.126755 218.65493 
L 151.314125 218.65493 
L 153.501495 218.65493 
L 155.688866 218.65493 
L 157.876236 218.65493 
L 160.063606 218.65493 
L 162.250977 218.65493 
L 164.438347 218.65493 
L 166.625717 218.65493 
L 168.813088 218.65493 
L 171.000458 218.65493 
L 173.187828 218.65493 
L 175.375198 218.65493 
L 177.562569 218.65493 
L 179.749939 218.65493 
L 181.937309 218.65493 
L 184.12468 218.65493 
L 186.31205 218.65493 
L 188.49942 218.65493 
L 190.686791 218.65493 
L 192.874161 218.65493 
L 195.061531 218.65493 
L 197.248901 218.65493 
L 199.436272 218.65493 
L 201.623642 218.65493 
L 203.811012 218.65493 
L 205.998383 218.65493 
L 208.185753 218.65493 
L 210.373123 218.65493 
L 212.560493 218.65493 
L 214.747864 218.65493 
L 216.935234 218.65493 
L 219.122604 218.65493 
L 221.309975 218.65493 
L 223.497345 218.65493 
L 225.684715 218.65493 
L 227.872086 218.65493 
L 230.059456 218.65493 
L 232.246826 218.65493 
L 234.434196 218.65493 
L 236.621567 218.65493 
L 238.808937 218.65493 
L 240.996307 218.65493 
L 243.183678 218.65493 
L 245.371048 218.65493 
L 247.558418 218.65493 
L 249.745789 218.65493 
L 251.933159 218.65493 
L 254.120529 218.65493 
L 256.307899 218.65493 
L 258.49527 218.65493 
L 260.68264 218.65493 
L 262.87001 218.65493 
L 265.057381 218.65493 
L 267.244751 218.65493 
L 269.432121 218.65493 
L 271.619492 218.65493 
L 273.806862 218.65493 
L 275.994232 218.65493 
L 278.181602 218.65493 
L 280.368973 218.65493 
L 282.556343 218.65493 
L 284.743713 218.65493 
L 286.931084 218.65493 
L 289.118454 218.65493 
L 291.305824 218.65493 
L 291.305824 214.965473 
L 291.305824 214.965473 
L 289.118454 219.236412 
L 286.931084 221.077271 
L 284.743713 221.372067 
L 282.556343 220.778928 
L 280.368973 219.772138 
L 278.181602 218.678466 
L 275.994232 217.708311 
L 273.806862 216.982202 
L 271.619492 216.553142 
L 269.432121 216.425233 
L 267.244751 216.569018 
L 265.057381 216.933924 
L 262.87001 217.458155 
L 260.68264 218.07639 
L 258.49527 218.725555 
L 256.307899 219.348978 
L 254.120529 219.89916 
L 251.933159 220.339399 
L 249.745789 220.644474 
L 247.558418 220.800565 
L 245.371048 220.804597 
L 243.183678 220.663123 
L 240.996307 220.390909 
L 238.808937 220.009311 
L 236.621567 219.544548 
L 234.434196 219.025959 
L 232.246826 218.484305 
L 230.059456 217.950179 
L 227.872086 217.45257 
L 225.684715 217.017607 
L 223.497345 216.667521 
L 221.309975 216.419831 
L 219.122604 216.286768 
L 216.935234 216.274932 
L 214.747864 216.385188 
L 212.560493 216.612774 
L 210.373123 216.947621 
L 208.185753 217.374855 
L 205.998383 217.87546 
L 203.811012 218.427079 
L 201.623642 219.00492 
L 199.436272 219.582744 
L 197.248901 220.13389 
L 195.061531 220.632329 
L 192.874161 221.053693 
L 190.686791 221.37626 
L 188.49942 221.581871 
L 186.31205 221.656733 
L 184.12468 218.653896 
L 181.937309 218.653146 
L 179.749939 222.448361 
L 177.562569 221.513522 
L 175.375198 220.403981 
L 173.187828 219.164849 
L 171.000458 217.848998 
L 168.813088 216.515271 
L 166.625717 215.226394 
L 164.438347 214.04662 
L 162.250977 213.039184 
L 160.063606 212.263616 
L 157.876236 211.772997 
L 155.688866 211.611228 
L 153.501495 211.810411 
L 151.314125 212.388405 
L 149.126755 213.346678 
L 146.939385 214.668519 
L 144.752014 216.317716 
L 142.564644 218.237784 
L 140.377274 220.35182 
L 138.189903 222.56307 
L 136.002533 224.756263 
L 133.815163 226.79978 
L 131.627792 228.548684 
L 129.440422 229.848651 
L 127.253052 230.54079 
L 125.065682 230.467344 
L 122.878311 229.478231 
L 120.690941 227.438334 
L 118.503571 224.235456 
L 116.3162 219.788788 
L 114.12883 214.057705 
L 111.94146 207.050675 
L 109.75409 198.834004 
L 107.566719 189.540096 
L 105.379349 179.374841 
L 103.191979 168.623715 
L 101.004608 157.656052 
L 98.817238 146.926958 
L 96.629868 136.976179 
L 94.442497 128.423237 
L 92.255127 121.95799 
L 90.067757 118.325738 
L 87.880387 118.305885 
L 85.693016 122.683043 
L 83.505646 132.2094 
L 81.318276 147.557035 
L 79.130905 169.258747 
L 76.943535 197.635857 
L 74.756165 232.711293 
z
" clip-path="url(#p9e1e079526)" style="fill: #2ca02c; fill-opacity: 0.166667"/>
   </g>
   <g id="PolyCollection_4">
    <path d="M 74.756165 276.334125 
L 74.756165 218.65493 
L 77.158682 218.65493 
L 79.561199 218.65493 
L 81.963716 218.65493 
L 84.366234 218.65493 
L 86.768751 218.65493 
L 89.171268 218.65493 
L 91.573785 218.65493 
L 93.976302 218.65493 
L 96.378819 218.65493 
L 98.781337 218.65493 
L 101.183854 218.65493 
L 103.586371 218.65493 
L 105.988888 218.65493 
L 108.391405 218.65493 
L 110.793923 218.65493 
L 113.19644 218.65493 
L 115.598957 218.65493 
L 118.001474 218.65493 
L 120.403991 218.65493 
L 122.806509 218.65493 
L 125.209026 218.65493 
L 127.611543 218.65493 
L 130.01406 218.65493 
L 132.416577 218.65493 
L 134.819095 218.65493 
L 137.221612 218.65493 
L 139.624129 218.65493 
L 142.026646 218.65493 
L 144.429163 218.65493 
L 146.83168 218.65493 
L 149.234198 218.65493 
L 151.636715 218.65493 
L 154.039232 218.65493 
L 156.441749 218.65493 
L 158.844266 218.65493 
L 161.246784 218.65493 
L 163.649301 218.65493 
L 166.051818 218.65493 
L 168.454335 218.65493 
L 170.856852 218.65493 
L 173.25937 218.65493 
L 175.661887 218.65493 
L 178.064404 218.65493 
L 180.466921 218.65493 
L 182.869438 218.65493 
L 185.271956 218.65493 
L 187.674473 218.65493 
L 190.07699 218.65493 
L 192.479507 218.65493 
L 194.882024 218.65493 
L 197.284542 218.65493 
L 199.687059 218.65493 
L 202.089576 218.65493 
L 204.492093 218.65493 
L 206.89461 218.65493 
L 209.297127 218.65493 
L 211.699645 218.65493 
L 214.102162 218.65493 
L 216.504679 218.65493 
L 218.907196 218.65493 
L 221.309713 218.65493 
L 223.712231 218.65493 
L 226.114748 218.65493 
L 228.517265 218.65493 
L 230.919782 218.65493 
L 233.322299 218.65493 
L 235.724817 218.65493 
L 238.127334 218.65493 
L 240.529851 218.65493 
L 242.932368 218.65493 
L 245.334885 218.65493 
L 247.737403 218.65493 
L 250.13992 218.65493 
L 252.542437 218.65493 
L 254.944954 218.65493 
L 257.347471 218.65493 
L 259.749988 218.65493 
L 262.152506 218.65493 
L 264.555023 218.65493 
L 266.95754 218.65493 
L 269.360057 218.65493 
L 271.762574 218.65493 
L 274.165092 218.65493 
L 276.567609 218.65493 
L 278.970126 218.65493 
L 281.372643 218.65493 
L 283.77516 218.65493 
L 286.177678 218.65493 
L 288.580195 218.65493 
L 290.982712 218.65493 
L 293.385229 218.65493 
L 295.787746 218.65493 
L 298.190264 218.65493 
L 300.592781 218.65493 
L 302.995298 218.65493 
L 305.397815 218.65493 
L 307.800332 218.65493 
L 310.202849 218.65493 
L 312.605367 218.65493 
L 312.605367 233.788197 
L 312.605367 233.788197 
L 310.202849 214.777184 
L 307.800332 207.495286 
L 305.397815 207.28054 
L 302.995298 210.786633 
L 300.592781 215.708642 
L 298.190264 220.551371 
L 295.787746 224.435447 
L 293.385229 226.936703 
L 290.982712 227.954742 
L 288.580195 227.606941 
L 286.177678 226.144471 
L 283.77516 223.887216 
L 281.372643 221.174786 
L 278.970126 218.331091 
L 276.567609 215.640178 
L 274.165092 213.331324 
L 271.762574 211.571564 
L 269.360057 210.464073 
L 266.95754 210.051009 
L 264.555023 210.319605 
L 262.152506 211.210485 
L 259.749988 212.627311 
L 257.347471 214.447044 
L 254.944954 216.530196 
L 252.542437 218.730613 
L 250.13992 220.904389 
L 247.737403 222.917663 
L 245.334885 224.653081 
L 242.932368 226.014833 
L 240.529851 226.932202 
L 238.127334 227.361645 
L 235.724817 227.287465 
L 233.322299 226.721171 
L 230.919782 225.699671 
L 228.517265 224.282445 
L 226.114748 222.547889 
L 223.712231 220.589008 
L 221.309713 218.508676 
L 218.907196 216.414643 
L 216.504679 214.414491 
L 214.102162 212.610732 
L 211.699645 211.096217 
L 209.297127 209.950012 
L 206.89461 209.233887 
L 204.492093 208.989527 
L 202.089576 209.23657 
L 199.687059 209.971528 
L 197.284542 211.167635 
L 194.882024 218.657646 
L 192.479507 218.655956 
L 190.07699 218.49891 
L 187.674473 219.784118 
L 185.271956 221.057369 
L 182.869438 222.250604 
L 180.466921 223.296498 
L 178.064404 224.131686 
L 175.661887 224.700006 
L 173.25937 224.955657 
L 170.856852 224.866119 
L 168.454335 224.414727 
L 166.051818 223.602759 
L 163.649301 222.450908 
L 161.246784 221.000018 
L 158.844266 219.310969 
L 156.441749 217.463633 
L 154.039232 215.554791 
L 151.636715 213.694986 
L 149.234198 212.004278 
L 146.83168 210.606896 
L 144.429163 209.624863 
L 142.026646 209.170662 
L 139.624129 209.339105 
L 137.221612 210.198603 
L 134.819095 211.782105 
L 132.416577 214.078056 
L 130.01406 217.021781 
L 127.611543 220.487813 
L 125.209026 224.283764 
L 122.806509 228.146447 
L 120.403991 231.741061 
L 118.001474 234.66438 
L 115.598957 236.453017 
L 113.19644 236.597964 
L 110.793923 234.566764 
L 108.391405 229.834831 
L 105.988888 221.927593 
L 103.586371 210.475336 
L 101.183854 195.282775 
L 98.781337 176.415635 
L 96.378819 154.306678 
L 93.976302 129.883893 
L 91.573785 104.72375 
L 89.171268 81.232722 
L 86.768751 62.860479 
L 84.366234 54.348493 
L 81.963716 62.018034 
L 79.561199 94.101862 
L 77.158682 161.124229 
L 74.756165 276.334125 
z
" clip-path="url(#p9e1e079526)" style="fill: #d62728; fill-opacity: 0.166667"/>
   </g>
   <g id="PolyCollection_5">
    <path d="M 74.756165 227.954156 
L 74.756165 218.65493 
L 75.207717 218.65493 
L 75.659269 218.65493 
L 76.11082 218.65493 
L 76.562372 218.65493 
L 77.013924 218.65493 
L 77.465476 218.65493 
L 77.917028 218.65493 
L 78.36858 218.65493 
L 78.820132 218.65493 
L 79.271684 218.65493 
L 79.723236 218.65493 
L 80.174788 218.65493 
L 80.626339 218.65493 
L 81.077891 218.65493 
L 81.529443 218.65493 
L 81.980995 218.65493 
L 82.432547 218.65493 
L 82.884099 218.65493 
L 83.335651 218.65493 
L 83.787203 218.65493 
L 84.238755 218.65493 
L 84.690307 218.65493 
L 85.141858 218.65493 
L 85.59341 218.65493 
L 86.044962 218.65493 
L 86.496514 218.65493 
L 86.948066 218.65493 
L 87.399618 218.65493 
L 87.85117 218.65493 
L 88.302722 218.65493 
L 88.754274 218.65493 
L 89.205826 218.65493 
L 89.657377 218.65493 
L 90.108929 218.65493 
L 90.560481 218.65493 
L 91.012033 218.65493 
L 91.463585 218.65493 
L 91.915137 218.65493 
L 92.366689 218.65493 
L 92.818241 218.65493 
L 93.269793 218.65493 
L 93.721345 218.65493 
L 94.172896 218.65493 
L 94.624448 218.65493 
L 95.076 218.65493 
L 95.527552 218.65493 
L 95.979104 218.65493 
L 96.430656 218.65493 
L 96.882208 218.65493 
L 97.33376 218.65493 
L 97.785312 218.65493 
L 98.236864 218.65493 
L 98.688415 218.65493 
L 99.139967 218.65493 
L 99.591519 218.65493 
L 100.043071 218.65493 
L 100.494623 218.65493 
L 100.946175 218.65493 
L 101.397727 218.65493 
L 101.849279 218.65493 
L 102.300831 218.65493 
L 102.752382 218.65493 
L 103.203934 218.65493 
L 103.655486 218.65493 
L 104.107038 218.65493 
L 104.55859 218.65493 
L 105.010142 218.65493 
L 105.461694 218.65493 
L 105.913246 218.65493 
L 106.364798 218.65493 
L 106.81635 218.65493 
L 107.267901 218.65493 
L 107.719453 218.65493 
L 108.171005 218.65493 
L 108.622557 218.65493 
L 109.074109 218.65493 
L 109.525661 218.65493 
L 109.977213 218.65493 
L 110.428765 218.65493 
L 110.880317 218.65493 
L 111.331869 218.65493 
L 111.78342 218.65493 
L 112.234972 218.65493 
L 112.686524 218.65493 
L 113.138076 218.65493 
L 113.589628 218.65493 
L 114.04118 218.65493 
L 114.492732 218.65493 
L 114.944284 218.65493 
L 115.395836 218.65493 
L 115.847388 218.65493 
L 116.298939 218.65493 
L 116.750491 218.65493 
L 117.202043 218.65493 
L 117.653595 218.65493 
L 118.105147 218.65493 
L 118.556699 218.65493 
L 119.008251 218.65493 
L 119.459803 218.65493 
L 119.459803 217.852601 
L 119.459803 217.852601 
L 119.008251 218.409715 
L 118.556699 218.909078 
L 118.105147 219.25681 
L 117.653595 219.418662 
L 117.202043 219.400779 
L 116.750491 219.234457 
L 116.298939 218.964347 
L 115.847388 218.639582 
L 115.395836 218.30737 
L 114.944284 218.008652 
L 114.492732 217.775428 
L 114.04118 217.629456 
L 113.589628 217.582 
L 113.138076 217.6344 
L 112.686524 217.779216 
L 112.234972 218.001782 
L 111.78342 218.281981 
L 111.331869 218.596129 
L 110.880317 218.918833 
L 110.428765 219.224754 
L 109.977213 219.490192 
L 109.525661 219.69444 
L 109.074109 219.820882 
L 108.622557 219.857805 
L 108.171005 219.798914 
L 107.719453 219.643563 
L 107.267901 219.396702 
L 106.81635 219.06857 
L 106.364798 218.674145 
L 105.913246 218.232409 
L 105.461694 217.765433 
L 105.010142 217.297339 
L 104.55859 216.85318 
L 104.107038 216.457764 
L 103.655486 216.134485 
L 103.203934 215.904169 
L 102.752382 215.784015 
L 102.300831 215.786619 
L 101.849279 215.919148 
L 101.397727 216.182681 
L 100.946175 216.571728 
L 100.494623 217.073968 
L 100.043071 217.670198 
L 99.591519 218.33452 
L 99.139967 219.034752 
L 98.688415 219.733076 
L 98.236864 220.386899 
L 97.785312 220.949924 
L 97.33376 218.653326 
L 96.882208 218.65257 
L 96.430656 222.056668 
L 95.979104 221.60892 
L 95.527552 220.813809 
L 95.076 219.642042 
L 94.624448 218.072369 
L 94.172896 216.092824 
L 93.721345 213.701816 
L 93.269793 210.909021 
L 92.818241 207.736052 
L 92.366689 204.216858 
L 91.915137 200.397844 
L 91.463585 196.337656 
L 91.012033 192.106635 
L 90.560481 187.785896 
L 90.108929 183.466044 
L 89.657377 179.245501 
L 89.205826 175.228458 
L 88.754274 171.522451 
L 88.302722 168.235604 
L 87.85117 165.473537 
L 87.399618 163.336015 
L 86.948066 161.913368 
L 86.496514 161.282771 
L 86.044962 161.504459 
L 85.59341 162.617984 
L 85.141858 164.638633 
L 84.690307 167.554145 
L 84.238755 171.321898 
L 83.787203 175.86673 
L 83.335651 181.079619 
L 82.884099 186.817445 
L 82.432547 192.904091 
L 81.980995 199.133173 
L 81.529443 205.272712 
L 81.077891 211.072102 
L 80.626339 216.271744 
L 80.174788 220.615776 
L 79.723236 223.868337 
L 79.271684 225.833867 
L 78.820132 226.381967 
L 78.36858 225.477398 
L 77.917028 223.215836 
L 77.465476 219.866036 
L 77.013924 215.919141 
L 76.562372 212.145863 
L 76.11082 209.66239 
L 75.659269 210.005855 
L 75.207717 215.220304 
L 74.756165 227.954156 
z
" clip-path="url(#p9e1e079526)" style="fill: #9467bd; fill-opacity: 0.166667"/>
   </g>
   <g id="PolyCollection_6">
    <path d="M 74.756165 217.110219 
L 74.756165 218.65493 
L 75.126551 218.65493 
L 75.496936 218.65493 
L 75.867322 218.65493 
L 76.237708 218.65493 
L 76.608093 218.65493 
L 76.978479 218.65493 
L 77.348865 218.65493 
L 77.719251 218.65493 
L 78.089636 218.65493 
L 78.460022 218.65493 
L 78.830408 218.65493 
L 79.200794 218.65493 
L 79.571179 218.65493 
L 79.941565 218.65493 
L 80.311951 218.65493 
L 80.682337 218.65493 
L 81.052722 218.65493 
L 81.423108 218.65493 
L 81.793494 218.65493 
L 82.16388 218.65493 
L 82.534265 218.65493 
L 82.904651 218.65493 
L 83.275037 218.65493 
L 83.645423 218.65493 
L 84.015808 218.65493 
L 84.386194 218.65493 
L 84.75658 218.65493 
L 85.126965 218.65493 
L 85.497351 218.65493 
L 85.867737 218.65493 
L 86.238123 218.65493 
L 86.608508 218.65493 
L 86.978894 218.65493 
L 87.34928 218.65493 
L 87.719666 218.65493 
L 88.090051 218.65493 
L 88.460437 218.65493 
L 88.830823 218.65493 
L 89.201209 218.65493 
L 89.571594 218.65493 
L 89.94198 218.65493 
L 90.312366 218.65493 
L 90.682752 218.65493 
L 91.053137 218.65493 
L 91.423523 218.65493 
L 91.793909 218.65493 
L 92.164295 218.65493 
L 92.53468 218.65493 
L 92.905066 218.65493 
L 93.275452 218.65493 
L 93.645837 218.65493 
L 94.016223 218.65493 
L 94.386609 218.65493 
L 94.756995 218.65493 
L 95.12738 218.65493 
L 95.497766 218.65493 
L 95.868152 218.65493 
L 96.238538 218.65493 
L 96.608923 218.65493 
L 96.979309 218.65493 
L 97.349695 218.65493 
L 97.720081 218.65493 
L 98.090466 218.65493 
L 98.460852 218.65493 
L 98.831238 218.65493 
L 99.201624 218.65493 
L 99.572009 218.65493 
L 99.942395 218.65493 
L 100.312781 218.65493 
L 100.683167 218.65493 
L 101.053552 218.65493 
L 101.423938 218.65493 
L 101.794324 218.65493 
L 102.164709 218.65493 
L 102.535095 218.65493 
L 102.905481 218.65493 
L 103.275867 218.65493 
L 103.646252 218.65493 
L 104.016638 218.65493 
L 104.387024 218.65493 
L 104.75741 218.65493 
L 105.127795 218.65493 
L 105.498181 218.65493 
L 105.868567 218.65493 
L 106.238953 218.65493 
L 106.609338 218.65493 
L 106.979724 218.65493 
L 107.35011 218.65493 
L 107.720496 218.65493 
L 108.090881 218.65493 
L 108.461267 218.65493 
L 108.831653 218.65493 
L 109.202039 218.65493 
L 109.572424 218.65493 
L 109.94281 218.65493 
L 110.313196 218.65493 
L 110.683581 218.65493 
L 111.053967 218.65493 
L 111.424353 218.65493 
L 111.424353 215.130554 
L 111.424353 215.130554 
L 111.053967 219.619718 
L 110.683581 221.250467 
L 110.313196 221.185242 
L 109.94281 220.254316 
L 109.572424 219.02501 
L 109.202039 217.860316 
L 108.831653 216.968103 
L 108.461267 216.441973 
L 108.090881 216.294787 
L 107.720496 216.485753 
L 107.35011 216.941931 
L 106.979724 217.574913 
L 106.609338 218.293375 
L 106.238953 219.012141 
L 105.868567 219.658315 
L 105.498181 220.174998 
L 105.127795 220.52306 
L 104.75741 220.681344 
L 104.387024 220.645697 
L 104.016638 220.427103 
L 103.646252 220.049225 
L 103.275867 219.545559 
L 102.905481 218.956421 
L 102.535095 218.325915 
L 102.164709 217.699031 
L 101.794324 217.118965 
L 101.423938 216.624754 
L 101.053552 216.249283 
L 100.683167 216.017702 
L 100.312781 215.946271 
L 99.942395 216.041653 
L 99.572009 216.300621 
L 99.201624 216.710191 
L 98.831238 217.248122 
L 98.460852 217.883763 
L 98.090466 218.579199 
L 97.720081 219.290638 
L 97.349695 219.969999 
L 96.979309 220.566635 
L 96.608923 221.029144 
L 96.238538 221.307202 
L 95.868152 221.353374 
L 95.497766 221.124849 
L 95.12738 220.585046 
L 94.756995 219.705048 
L 94.386609 218.464837 
L 94.016223 216.854276 
L 93.645837 214.873824 
L 93.275452 218.649866 
L 92.905066 218.64966 
L 92.53468 207.051562 
L 92.164295 203.850289 
L 91.793909 200.434894 
L 91.423523 196.866578 
L 91.053137 193.214139 
L 90.682752 189.552369 
L 90.312366 185.960225 
L 89.94198 182.518815 
L 89.571594 179.309236 
L 89.201209 176.41033 
L 88.830823 173.896401 
L 88.460437 171.834954 
L 88.090051 170.284525 
L 87.719666 169.292653 
L 87.34928 168.894068 
L 86.978894 169.109153 
L 86.608508 169.942743 
L 86.238123 171.383312 
L 85.867737 173.402611 
L 85.497351 175.955793 
L 85.126965 178.982064 
L 84.75658 182.405885 
L 84.386194 186.13875 
L 84.015808 190.081515 
L 83.645423 194.127295 
L 83.275037 198.164854 
L 82.904651 202.08247 
L 82.534265 205.772161 
L 82.16388 209.134187 
L 81.793494 212.081682 
L 81.423108 214.545248 
L 81.052722 216.477316 
L 80.682337 217.856022 
L 80.311951 218.688333 
L 79.941565 219.012082 
L 79.571179 218.896553 
L 79.200794 218.441187 
L 78.830408 217.77194 
L 78.460022 217.03475 
L 78.089636 216.385523 
L 77.719251 215.975982 
L 77.348865 215.934642 
L 76.978479 216.342118 
L 76.608093 217.199878 
L 76.237708 218.391485 
L 75.867322 219.635288 
L 75.496936 220.427413 
L 75.126551 219.97384 
L 74.756165 217.110219 
z
" clip-path="url(#p9e1e079526)" style="fill: #8c564b; fill-opacity: 0.166667"/>
   </g>
   <g id="matplotlib.axis_1">
    <g id="xtick_1">
     <g id="line2d_1">
      <defs>
       <path id="m39f3df9769" d="M 0 0 
L 0 3.5 
" style="stroke: #000000; stroke-width: 0.8"/>
      </defs>
      <g>
       <use xlink:href="#m39f3df9769" x="74.756165" y="288.430125" style="stroke: #000000; stroke-width: 0.8"/>
      </g>
     </g>
     <g id="text_1">
      <!-- 0.0000 -->
      <g transform="translate(57.260852 303.028562) scale(0.1 -0.1)">
       <defs>
        <path id="DejaVuSans-30" d="M 2034 4250 
Q 1547 4250 1301 3770 
Q 1056 3291 1056 2328 
Q 1056 1369 1301 889 
Q 1547 409 2034 409 
Q 2525 409 2770 889 
Q 3016 1369 3016 2328 
Q 3016 3291 2770 3770 
Q 2525 4250 2034 4250 
z
M 2034 4750 
Q 2819 4750 3233 4129 
Q 3647 3509 3647 2328 
Q 3647 1150 3233 529 
Q 2819 -91 2034 -91 
Q 1250 -91 836 529 
Q 422 1150 422 2328 
Q 422 3509 836 4129 
Q 1250 4750 2034 4750 
z
" transform="scale(0.015625)"/>
        <path id="DejaVuSans-2e" d="M 684 794 
L 1344 794 
L 1344 0 
L 684 0 
L 684 794 
z
" transform="scale(0.015625)"/>
       </defs>
       <use xlink:href="#DejaVuSans-30"/>
       <use xlink:href="#DejaVuSans-2e" x="63.623047"/>
       <use xlink:href="#DejaVuSans-30" x="95.410156"/>
       <use xlink:href="#DejaVuSans-30" x="159.033203"/>
       <use xlink:href="#DejaVuSans-30" x="222.65625"/>
       <use xlink:href="#DejaVuSans-30" x="286.279297"/>
      </g>
     </g>
    </g>
    <g id="xtick_2">
     <g id="line2d_2">
      <g>
       <use xlink:href="#m39f3df9769" x="117.157545" y="288.430125" style="stroke: #000000; stroke-width: 0.8"/>
      </g>
     </g>
     <g id="text_2">
      <!-- 0.0025 -->
      <g transform="translate(99.662233 303.028562) scale(0.1 -0.1)">
       <defs>
        <path id="DejaVuSans-32" d="M 1228 531 
L 3431 531 
L 3431 0 
L 469 0 
L 469 531 
Q 828 903 1448 1529 
Q 2069 2156 2228 2338 
Q 2531 2678 2651 2914 
Q 2772 3150 2772 3378 
Q 2772 3750 2511 3984 
Q 2250 4219 1831 4219 
Q 1534 4219 1204 4116 
Q 875 4013 500 3803 
L 500 4441 
Q 881 4594 1212 4672 
Q 1544 4750 1819 4750 
Q 2544 4750 2975 4387 
Q 3406 4025 3406 3419 
Q 3406 3131 3298 2873 
Q 3191 2616 2906 2266 
Q 2828 2175 2409 1742 
Q 1991 1309 1228 531 
z
" transform="scale(0.015625)"/>
        <path id="DejaVuSans-35" d="M 691 4666 
L 3169 4666 
L 3169 4134 
L 1269 4134 
L 1269 2991 
Q 1406 3038 1543 3061 
Q 1681 3084 1819 3084 
Q 2600 3084 3056 2656 
Q 3513 2228 3513 1497 
Q 3513 744 3044 326 
Q 2575 -91 1722 -91 
Q 1428 -91 1123 -41 
Q 819 9 494 109 
L 494 744 
Q 775 591 1075 516 
Q 1375 441 1709 441 
Q 2250 441 2565 725 
Q 2881 1009 2881 1497 
Q 2881 1984 2565 2268 
Q 2250 2553 1709 2553 
Q 1456 2553 1204 2497 
Q 953 2441 691 2322 
L 691 4666 
z
" transform="scale(0.015625)"/>
       </defs>
       <use xlink:href="#DejaVuSans-30"/>
       <use xlink:href="#DejaVuSans-2e" x="63.623047"/>
       <use xlink:href="#DejaVuSans-30" x="95.410156"/>
       <use xlink:href="#DejaVuSans-30" x="159.033203"/>
       <use xlink:href="#DejaVuSans-32" x="222.65625"/>
       <use xlink:href="#DejaVuSans-35" x="286.279297"/>
      </g>
     </g>
    </g>
    <g id="xtick_3">
     <g id="line2d_3">
      <g>
       <use xlink:href="#m39f3df9769" x="159.558926" y="288.430125" style="stroke: #000000; stroke-width: 0.8"/>
      </g>
     </g>
     <g id="text_3">
      <!-- 0.0050 -->
      <g transform="translate(142.063613 303.028562) scale(0.1 -0.1)">
       <use xlink:href="#DejaVuSans-30"/>
       <use xlink:href="#DejaVuSans-2e" x="63.623047"/>
       <use xlink:href="#DejaVuSans-30" x="95.410156"/>
       <use xlink:href="#DejaVuSans-30" x="159.033203"/>
       <use xlink:href="#DejaVuSans-35" x="222.65625"/>
       <use xlink:href="#DejaVuSans-30" x="286.279297"/>
      </g>
     </g>
    </g>
    <g id="xtick_4">
     <g id="line2d_4">
      <g>
       <use xlink:href="#m39f3df9769" x="201.960306" y="288.430125" style="stroke: #000000; stroke-width: 0.8"/>
      </g>
     </g>
     <g id="text_4">
      <!-- 0.0075 -->
      <g transform="translate(184.464993 303.028562) scale(0.1 -0.1)">
       <defs>
        <path id="DejaVuSans-37" d="M 525 4666 
L 3525 4666 
L 3525 4397 
L 1831 0 
L 1172 0 
L 2766 4134 
L 525 4134 
L 525 4666 
z
" transform="scale(0.015625)"/>
       </defs>
       <use xlink:href="#DejaVuSans-30"/>
       <use xlink:href="#DejaVuSans-2e" x="63.623047"/>
       <use xlink:href="#DejaVuSans-30" x="95.410156"/>
       <use xlink:href="#DejaVuSans-30" x="159.033203"/>
       <use xlink:href="#DejaVuSans-37" x="222.65625"/>
       <use xlink:href="#DejaVuSans-35" x="286.279297"/>
      </g>
     </g>
    </g>
    <g id="xtick_5">
     <g id="line2d_5">
      <g>
       <use xlink:href="#m39f3df9769" x="244.361686" y="288.430125" style="stroke: #000000; stroke-width: 0.8"/>
      </g>
     </g>
     <g id="text_5">
      <!-- 0.0100 -->
      <g transform="translate(226.866374 303.028562) scale(0.1 -0.1)">
       <defs>
        <path id="DejaVuSans-31" d="M 794 531 
L 1825 531 
L 1825 4091 
L 703 3866 
L 703 4441 
L 1819 4666 
L 2450 4666 
L 2450 531 
L 3481 531 
L 3481 0 
L 794 0 
L 794 531 
z
" transform="scale(0.015625)"/>
       </defs>
       <use xlink:href="#DejaVuSans-30"/>
       <use xlink:href="#DejaVuSans-2e" x="63.623047"/>
       <use xlink:href="#DejaVuSans-30" x="95.410156"/>
       <use xlink:href="#DejaVuSans-31" x="159.033203"/>
       <use xlink:href="#DejaVuSans-30" x="222.65625"/>
       <use xlink:href="#DejaVuSans-30" x="286.279297"/>
      </g>
     </g>
    </g>
    <g id="xtick_6">
     <g id="line2d_6">
      <g>
       <use xlink:href="#m39f3df9769" x="286.763067" y="288.430125" style="stroke: #000000; stroke-width: 0.8"/>
      </g>
     </g>
     <g id="text_6">
      <!-- 0.0125 -->
      <g transform="translate(269.267754 303.028562) scale(0.1 -0.1)">
       <use xlink:href="#DejaVuSans-30"/>
       <use xlink:href="#DejaVuSans-2e" x="63.623047"/>
       <use xlink:href="#DejaVuSans-30" x="95.410156"/>
       <use xlink:href="#DejaVuSans-31" x="159.033203"/>
       <use xlink:href="#DejaVuSans-32" x="222.65625"/>
       <use xlink:href="#DejaVuSans-35" x="286.279297"/>
      </g>
     </g>
    </g>
    <g id="xtick_7">
     <g id="line2d_7">
      <g>
       <use xlink:href="#m39f3df9769" x="329.164447" y="288.430125" style="stroke: #000000; stroke-width: 0.8"/>
      </g>
     </g>
     <g id="text_7">
      <!-- 0.0150 -->
      <g transform="translate(311.669134 303.028562) scale(0.1 -0.1)">
       <use xlink:href="#DejaVuSans-30"/>
       <use xlink:href="#DejaVuSans-2e" x="63.623047"/>
       <use xlink:href="#DejaVuSans-30" x="95.410156"/>
       <use xlink:href="#DejaVuSans-31" x="159.033203"/>
       <use xlink:href="#DejaVuSans-35" x="222.65625"/>
       <use xlink:href="#DejaVuSans-30" x="286.279297"/>
      </g>
     </g>
    </g>
    <g id="xtick_8">
     <g id="line2d_8">
      <g>
       <use xlink:href="#m39f3df9769" x="371.565827" y="288.430125" style="stroke: #000000; stroke-width: 0.8"/>
      </g>
     </g>
     <g id="text_8">
      <!-- 0.0175 -->
      <g transform="translate(354.070515 303.028562) scale(0.1 -0.1)">
       <use xlink:href="#DejaVuSans-30"/>
       <use xlink:href="#DejaVuSans-2e" x="63.623047"/>
       <use xlink:href="#DejaVuSans-30" x="95.410156"/>
       <use xlink:href="#DejaVuSans-31" x="159.033203"/>
       <use xlink:href="#DejaVuSans-37" x="222.65625"/>
       <use xlink:href="#DejaVuSans-35" x="286.279297"/>
      </g>
     </g>
    </g>
    <g id="xtick_9">
     <g id="line2d_9">
      <g>
       <use xlink:href="#m39f3df9769" x="413.967208" y="288.430125" style="stroke: #000000; stroke-width: 0.8"/>
      </g>
     </g>
     <g id="text_9">
      <!-- 0.0200 -->
      <g transform="translate(396.471895 303.028562) scale(0.1 -0.1)">
       <use xlink:href="#DejaVuSans-30"/>
       <use xlink:href="#DejaVuSans-2e" x="63.623047"/>
       <use xlink:href="#DejaVuSans-30" x="95.410156"/>
       <use xlink:href="#DejaVuSans-32" x="159.033203"/>
       <use xlink:href="#DejaVuSans-30" x="222.65625"/>
       <use xlink:href="#DejaVuSans-30" x="286.279297"/>
      </g>
     </g>
    </g>
    <g id="text_10">
     <!-- Pixel values -->
     <g transform="translate(207.671719 316.706687) scale(0.1 -0.1)">
      <defs>
       <path id="DejaVuSans-50" d="M 1259 4147 
L 1259 2394 
L 2053 2394 
Q 2494 2394 2734 2622 
Q 2975 2850 2975 3272 
Q 2975 3691 2734 3919 
Q 2494 4147 2053 4147 
L 1259 4147 
z
M 628 4666 
L 2053 4666 
Q 2838 4666 3239 4311 
Q 3641 3956 3641 3272 
Q 3641 2581 3239 2228 
Q 2838 1875 2053 1875 
L 1259 1875 
L 1259 0 
L 628 0 
L 628 4666 
z
" transform="scale(0.015625)"/>
       <path id="DejaVuSans-69" d="M 603 3500 
L 1178 3500 
L 1178 0 
L 603 0 
L 603 3500 
z
M 603 4863 
L 1178 4863 
L 1178 4134 
L 603 4134 
L 603 4863 
z
" transform="scale(0.015625)"/>
       <path id="DejaVuSans-78" d="M 3513 3500 
L 2247 1797 
L 3578 0 
L 2900 0 
L 1881 1375 
L 863 0 
L 184 0 
L 1544 1831 
L 300 3500 
L 978 3500 
L 1906 2253 
L 2834 3500 
L 3513 3500 
z
" transform="scale(0.015625)"/>
       <path id="DejaVuSans-65" d="M 3597 1894 
L 3597 1613 
L 953 1613 
Q 991 1019 1311 708 
Q 1631 397 2203 397 
Q 2534 397 2845 478 
Q 3156 559 3463 722 
L 3463 178 
Q 3153 47 2828 -22 
Q 2503 -91 2169 -91 
Q 1331 -91 842 396 
Q 353 884 353 1716 
Q 353 2575 817 3079 
Q 1281 3584 2069 3584 
Q 2775 3584 3186 3129 
Q 3597 2675 3597 1894 
z
M 3022 2063 
Q 3016 2534 2758 2815 
Q 2500 3097 2075 3097 
Q 1594 3097 1305 2825 
Q 1016 2553 972 2059 
L 3022 2063 
z
" transform="scale(0.015625)"/>
       <path id="DejaVuSans-6c" d="M 603 4863 
L 1178 4863 
L 1178 0 
L 603 0 
L 603 4863 
z
" transform="scale(0.015625)"/>
       <path id="DejaVuSans-20" transform="scale(0.015625)"/>
       <path id="DejaVuSans-76" d="M 191 3500 
L 800 3500 
L 1894 563 
L 2988 3500 
L 3597 3500 
L 2284 0 
L 1503 0 
L 191 3500 
z
" transform="scale(0.015625)"/>
       <path id="DejaVuSans-61" d="M 2194 1759 
Q 1497 1759 1228 1600 
Q 959 1441 959 1056 
Q 959 750 1161 570 
Q 1363 391 1709 391 
Q 2188 391 2477 730 
Q 2766 1069 2766 1631 
L 2766 1759 
L 2194 1759 
z
M 3341 1997 
L 3341 0 
L 2766 0 
L 2766 531 
Q 2569 213 2275 61 
Q 1981 -91 1556 -91 
Q 1019 -91 701 211 
Q 384 513 384 1019 
Q 384 1609 779 1909 
Q 1175 2209 1959 2209 
L 2766 2209 
L 2766 2266 
Q 2766 2663 2505 2880 
Q 2244 3097 1772 3097 
Q 1472 3097 1187 3025 
Q 903 2953 641 2809 
L 641 3341 
Q 956 3463 1253 3523 
Q 1550 3584 1831 3584 
Q 2591 3584 2966 3190 
Q 3341 2797 3341 1997 
z
" transform="scale(0.015625)"/>
       <path id="DejaVuSans-75" d="M 544 1381 
L 544 3500 
L 1119 3500 
L 1119 1403 
Q 1119 906 1312 657 
Q 1506 409 1894 409 
Q 2359 409 2629 706 
Q 2900 1003 2900 1516 
L 2900 3500 
L 3475 3500 
L 3475 0 
L 2900 0 
L 2900 538 
Q 2691 219 2414 64 
Q 2138 -91 1772 -91 
Q 1169 -91 856 284 
Q 544 659 544 1381 
z
M 1991 3584 
L 1991 3584 
z
" transform="scale(0.015625)"/>
       <path id="DejaVuSans-73" d="M 2834 3397 
L 2834 2853 
Q 2591 2978 2328 3040 
Q 2066 3103 1784 3103 
Q 1356 3103 1142 2972 
Q 928 2841 928 2578 
Q 928 2378 1081 2264 
Q 1234 2150 1697 2047 
L 1894 2003 
Q 2506 1872 2764 1633 
Q 3022 1394 3022 966 
Q 3022 478 2636 193 
Q 2250 -91 1575 -91 
Q 1294 -91 989 -36 
Q 684 19 347 128 
L 347 722 
Q 666 556 975 473 
Q 1284 391 1588 391 
Q 1994 391 2212 530 
Q 2431 669 2431 922 
Q 2431 1156 2273 1281 
Q 2116 1406 1581 1522 
L 1381 1569 
Q 847 1681 609 1914 
Q 372 2147 372 2553 
Q 372 3047 722 3315 
Q 1072 3584 1716 3584 
Q 2034 3584 2315 3537 
Q 2597 3491 2834 3397 
z
" transform="scale(0.015625)"/>
      </defs>
      <use xlink:href="#DejaVuSans-50"/>
      <use xlink:href="#DejaVuSans-69" x="58.052734"/>
      <use xlink:href="#DejaVuSans-78" x="85.835938"/>
      <use xlink:href="#DejaVuSans-65" x="141.890625"/>
      <use xlink:href="#DejaVuSans-6c" x="203.414062"/>
      <use xlink:href="#DejaVuSans-20" x="231.197266"/>
      <use xlink:href="#DejaVuSans-76" x="262.984375"/>
      <use xlink:href="#DejaVuSans-61" x="322.164062"/>
      <use xlink:href="#DejaVuSans-6c" x="383.443359"/>
      <use xlink:href="#DejaVuSans-75" x="411.226562"/>
      <use xlink:href="#DejaVuSans-65" x="474.605469"/>
      <use xlink:href="#DejaVuSans-73" x="536.128906"/>
     </g>
    </g>
   </g>
   <g id="matplotlib.axis_2">
    <g id="ytick_1">
     <g id="line2d_10">
      <defs>
       <path id="md4113b8353" d="M 0 0 
L -3.5 0 
" style="stroke: #000000; stroke-width: 0.8"/>
      </defs>
      <g>
       <use xlink:href="#md4113b8353" x="58.523438" y="269.202103" style="stroke: #000000; stroke-width: 0.8"/>
      </g>
     </g>
     <g id="text_11">
      <!-- −0.05 -->
      <g transform="translate(20.878125 273.001322) scale(0.1 -0.1)">
       <defs>
        <path id="DejaVuSans-2212" d="M 678 2272 
L 4684 2272 
L 4684 1741 
L 678 1741 
L 678 2272 
z
" transform="scale(0.015625)"/>
       </defs>
       <use xlink:href="#DejaVuSans-2212"/>
       <use xlink:href="#DejaVuSans-30" x="83.789062"/>
       <use xlink:href="#DejaVuSans-2e" x="147.412109"/>
       <use xlink:href="#DejaVuSans-30" x="179.199219"/>
       <use xlink:href="#DejaVuSans-35" x="242.822266"/>
      </g>
     </g>
    </g>
    <g id="ytick_2">
     <g id="line2d_11">
      <g>
       <use xlink:href="#md4113b8353" x="58.523438" y="218.65493" style="stroke: #000000; stroke-width: 0.8"/>
      </g>
     </g>
     <g id="text_12">
      <!-- 0.00 -->
      <g transform="translate(29.257813 222.454149) scale(0.1 -0.1)">
       <use xlink:href="#DejaVuSans-30"/>
       <use xlink:href="#DejaVuSans-2e" x="63.623047"/>
       <use xlink:href="#DejaVuSans-30" x="95.410156"/>
       <use xlink:href="#DejaVuSans-30" x="159.033203"/>
      </g>
     </g>
    </g>
    <g id="ytick_3">
     <g id="line2d_12">
      <g>
       <use xlink:href="#md4113b8353" x="58.523438" y="168.107757" style="stroke: #000000; stroke-width: 0.8"/>
      </g>
     </g>
     <g id="text_13">
      <!-- 0.05 -->
      <g transform="translate(29.257813 171.906975) scale(0.1 -0.1)">
       <use xlink:href="#DejaVuSans-30"/>
       <use xlink:href="#DejaVuSans-2e" x="63.623047"/>
       <use xlink:href="#DejaVuSans-30" x="95.410156"/>
       <use xlink:href="#DejaVuSans-35" x="159.033203"/>
      </g>
     </g>
    </g>
    <g id="ytick_4">
     <g id="line2d_13">
      <g>
       <use xlink:href="#md4113b8353" x="58.523438" y="117.560583" style="stroke: #000000; stroke-width: 0.8"/>
      </g>
     </g>
     <g id="text_14">
      <!-- 0.10 -->
      <g transform="translate(29.257813 121.359802) scale(0.1 -0.1)">
       <use xlink:href="#DejaVuSans-30"/>
       <use xlink:href="#DejaVuSans-2e" x="63.623047"/>
       <use xlink:href="#DejaVuSans-31" x="95.410156"/>
       <use xlink:href="#DejaVuSans-30" x="159.033203"/>
      </g>
     </g>
    </g>
    <g id="ytick_5">
     <g id="line2d_14">
      <g>
       <use xlink:href="#md4113b8353" x="58.523438" y="67.01341" style="stroke: #000000; stroke-width: 0.8"/>
      </g>
     </g>
     <g id="text_15">
      <!-- 0.15 -->
      <g transform="translate(29.257813 70.812629) scale(0.1 -0.1)">
       <use xlink:href="#DejaVuSans-30"/>
       <use xlink:href="#DejaVuSans-2e" x="63.623047"/>
       <use xlink:href="#DejaVuSans-31" x="95.410156"/>
       <use xlink:href="#DejaVuSans-35" x="159.033203"/>
      </g>
     </g>
    </g>
    <g id="text_16">
     <!-- Frequency -->
     <g transform="translate(14.798438 181.203812) rotate(-90) scale(0.1 -0.1)">
      <defs>
       <path id="DejaVuSans-46" d="M 628 4666 
L 3309 4666 
L 3309 4134 
L 1259 4134 
L 1259 2759 
L 3109 2759 
L 3109 2228 
L 1259 2228 
L 1259 0 
L 628 0 
L 628 4666 
z
" transform="scale(0.015625)"/>
       <path id="DejaVuSans-72" d="M 2631 2963 
Q 2534 3019 2420 3045 
Q 2306 3072 2169 3072 
Q 1681 3072 1420 2755 
Q 1159 2438 1159 1844 
L 1159 0 
L 581 0 
L 581 3500 
L 1159 3500 
L 1159 2956 
Q 1341 3275 1631 3429 
Q 1922 3584 2338 3584 
Q 2397 3584 2469 3576 
Q 2541 3569 2628 3553 
L 2631 2963 
z
" transform="scale(0.015625)"/>
       <path id="DejaVuSans-71" d="M 947 1747 
Q 947 1113 1208 752 
Q 1469 391 1925 391 
Q 2381 391 2643 752 
Q 2906 1113 2906 1747 
Q 2906 2381 2643 2742 
Q 2381 3103 1925 3103 
Q 1469 3103 1208 2742 
Q 947 2381 947 1747 
z
M 2906 525 
Q 2725 213 2448 61 
Q 2172 -91 1784 -91 
Q 1150 -91 751 415 
Q 353 922 353 1747 
Q 353 2572 751 3078 
Q 1150 3584 1784 3584 
Q 2172 3584 2448 3432 
Q 2725 3281 2906 2969 
L 2906 3500 
L 3481 3500 
L 3481 -1331 
L 2906 -1331 
L 2906 525 
z
" transform="scale(0.015625)"/>
       <path id="DejaVuSans-6e" d="M 3513 2113 
L 3513 0 
L 2938 0 
L 2938 2094 
Q 2938 2591 2744 2837 
Q 2550 3084 2163 3084 
Q 1697 3084 1428 2787 
Q 1159 2491 1159 1978 
L 1159 0 
L 581 0 
L 581 3500 
L 1159 3500 
L 1159 2956 
Q 1366 3272 1645 3428 
Q 1925 3584 2291 3584 
Q 2894 3584 3203 3211 
Q 3513 2838 3513 2113 
z
" transform="scale(0.015625)"/>
       <path id="DejaVuSans-63" d="M 3122 3366 
L 3122 2828 
Q 2878 2963 2633 3030 
Q 2388 3097 2138 3097 
Q 1578 3097 1268 2742 
Q 959 2388 959 1747 
Q 959 1106 1268 751 
Q 1578 397 2138 397 
Q 2388 397 2633 464 
Q 2878 531 3122 666 
L 3122 134 
Q 2881 22 2623 -34 
Q 2366 -91 2075 -91 
Q 1284 -91 818 406 
Q 353 903 353 1747 
Q 353 2603 823 3093 
Q 1294 3584 2113 3584 
Q 2378 3584 2631 3529 
Q 2884 3475 3122 3366 
z
" transform="scale(0.015625)"/>
       <path id="DejaVuSans-79" d="M 2059 -325 
Q 1816 -950 1584 -1140 
Q 1353 -1331 966 -1331 
L 506 -1331 
L 506 -850 
L 844 -850 
Q 1081 -850 1212 -737 
Q 1344 -625 1503 -206 
L 1606 56 
L 191 3500 
L 800 3500 
L 1894 763 
L 2988 3500 
L 3597 3500 
L 2059 -325 
z
" transform="scale(0.015625)"/>
      </defs>
      <use xlink:href="#DejaVuSans-46"/>
      <use xlink:href="#DejaVuSans-72" x="50.269531"/>
      <use xlink:href="#DejaVuSans-65" x="89.132812"/>
      <use xlink:href="#DejaVuSans-71" x="150.65625"/>
      <use xlink:href="#DejaVuSans-75" x="214.132812"/>
      <use xlink:href="#DejaVuSans-65" x="277.511719"/>
      <use xlink:href="#DejaVuSans-6e" x="339.035156"/>
      <use xlink:href="#DejaVuSans-63" x="402.414062"/>
      <use xlink:href="#DejaVuSans-79" x="457.394531"/>
     </g>
    </g>
   </g>
   <g id="line2d_15">
    <path d="M 74.756165 204.259305 
L 75.426379 213.789527 
L 76.096593 221.302928 
L 76.766808 226.169948 
L 77.437022 228.163276 
L 78.107236 227.352453 
L 78.77745 224.016025 
L 79.447665 218.569229 
L 80.117879 211.505383 
L 80.788093 203.349263 
L 81.458307 194.620909 
L 82.128522 185.808447 
L 82.798736 177.348599 
L 83.46895 169.613723 
L 84.139164 162.904304 
L 84.809379 157.445932 
L 85.479593 153.389911 
L 86.149807 150.816725 
L 86.820021 149.741688 
L 87.490236 150.122171 
L 88.16045 151.865902 
L 88.830664 154.83987 
L 89.500878 158.87947 
L 90.171093 163.797555 
L 90.841307 169.393137 
L 91.511521 175.459518 
L 92.181735 181.791697 
L 92.85195 188.192916 
L 93.522164 194.480262 
L 94.192378 200.489287 
L 94.862592 206.077615 
L 95.532807 211.127535 
L 96.203021 215.547635 
L 96.873235 219.2735 
L 97.543449 222.267555 
L 98.213664 224.518129 
L 98.883878 226.037834 
L 99.554092 226.86135 
L 100.224306 227.042722 
L 100.894521 226.652288 
L 101.564735 225.773324 
L 102.234949 224.49853 
L 102.905163 222.926455 
L 103.575378 221.157959 
L 104.245592 219.292801 
L 104.915806 217.426449 
L 105.58602 215.64717 
L 106.256235 214.033486 
L 106.926449 212.652041 
L 107.596663 218.65719 
L 108.266877 218.656964 
L 108.937092 211.131593 
L 109.607306 210.974447 
L 110.27752 211.12602 
L 110.947734 211.569935 
L 111.617949 212.278284 
L 112.288163 213.213009 
L 112.958377 214.327597 
L 113.628592 215.569034 
L 114.298806 216.879958 
L 114.96902 218.200959 
L 115.639234 219.472952 
L 116.309449 220.63955 
L 116.979663 221.649371 
L 117.649877 222.458203 
L 118.320091 223.030945 
L 118.990306 223.343259 
L 119.66052 223.382859 
L 120.330734 223.150379 
L 121.000948 222.659749 
L 121.671163 221.938054 
L 122.341377 221.024818 
L 123.011591 219.9707 
L 123.681805 218.835603 
L 124.35202 217.686195 
L 125.022234 216.592889 
L 125.692448 215.626329 
L 126.362662 214.853487 
L 127.032877 214.333459 
L 127.703091 214.113144 
L 128.373305 214.22296 
L 129.043519 214.672848 
L 129.713734 215.448826 
L 130.383948 216.510402 
L 131.054162 217.789236 
L 131.724376 219.189452 
L 132.394591 220.590101 
L 133.064805 221.850309 
L 133.735019 222.817726 
L 134.405233 223.340974 
L 135.075448 223.286831 
L 135.745662 222.563015 
L 136.415876 221.147484 
L 137.08609 219.125276 
L 137.756305 216.733991 
L 138.426519 214.419152 
L 139.096733 212.900735 
L 139.766947 213.25232 
L 140.437162 216.994401 
L 141.107376 226.203528 
" clip-path="url(#p9e1e079526)" style="fill: none; stroke: #1f77b4; stroke-width: 1.5; stroke-linecap: square"/>
   </g>
   <g id="line2d_16">
    <path d="M 74.756165 223.912173 
L 78.035504 111.097822 
L 81.314842 53.523615 
L 84.594181 34.414125 
L 87.87352 40.711362 
L 91.152859 62.447533 
L 94.432198 92.198723 
L 97.711537 124.611698 
L 100.990876 155.996531 
L 104.270214 183.978286 
L 107.549553 207.201487 
L 110.828892 225.081557 
L 114.108231 237.597868 
L 117.38757 245.123463 
L 120.666909 248.286917 
L 123.946247 247.862183 
L 127.225586 244.682637 
L 130.504925 239.575882 
L 133.784264 233.31618 
L 137.063603 226.5917 
L 140.342942 219.984066 
L 143.62228 213.957924 
L 146.901619 208.858544 
L 150.180958 204.915674 
L 153.460297 202.252099 
L 156.739636 200.895564 
L 160.018975 200.792893 
L 163.298314 201.825339 
L 166.577652 203.824322 
L 169.856991 206.586902 
L 173.13633 209.89042 
L 176.415669 213.505915 
L 179.695008 217.209984 
L 182.974347 220.794871 
L 186.253685 224.076679 
L 189.533024 226.90162 
L 192.812363 229.150345 
L 196.091702 230.740407 
L 199.371041 231.626973 
L 202.65038 231.80195 
L 205.929718 231.2917 
L 209.209057 230.153549 
L 212.488396 228.471326 
L 215.767735 226.350146 
L 219.047074 223.91069 
L 222.326413 221.283193 
L 225.605752 218.601389 
L 228.88509 215.996603 
L 232.164429 213.592195 
L 235.443768 218.658095 
L 238.723107 218.658519 
L 242.002446 208.363755 
L 245.281785 207.356616 
L 248.561123 206.918661 
L 251.840462 207.060807 
L 255.119801 207.767435 
L 258.39914 208.997313 
L 261.678479 210.685511 
L 264.957818 212.746255 
L 268.237157 215.07662 
L 271.516495 217.560953 
L 274.795834 220.075863 
L 278.075173 222.495636 
L 281.354512 224.697872 
L 284.633851 226.569151 
L 287.91319 228.010526 
L 291.192528 228.942609 
L 294.471867 229.310048 
L 297.751206 229.085171 
L 301.030545 228.270603 
L 304.309884 226.900658 
L 307.589223 225.041357 
L 310.868561 222.788931 
L 314.1479 220.26672 
L 317.427239 217.620429 
L 320.706578 215.011753 
L 323.985917 212.610444 
L 327.265256 210.584988 
L 330.544595 209.09213 
L 333.823933 208.265584 
L 337.103272 208.204387 
L 340.382611 208.961469 
L 343.66195 210.533127 
L 346.941289 212.850284 
L 350.220628 215.772522 
L 353.499966 219.086075 
L 356.779305 222.507175 
L 360.058644 225.692305 
L 363.337983 228.257169 
L 366.617322 229.806393 
L 369.896661 229.976255 
L 373.175999 228.492977 
L 376.455338 225.249409 
L 379.734677 220.403246 
L 383.014016 214.50023 
L 386.293355 208.626118 
L 389.572694 204.591584 
L 392.852033 205.154577 
L 396.131371 214.285055 
L 399.41071 237.477459 
" clip-path="url(#p9e1e079526)" style="fill: none; stroke: #ff7f0e; stroke-width: 1.5; stroke-linecap: square"/>
   </g>
   <g id="line2d_17">
    <path d="M 74.756165 232.711293 
L 76.943535 197.635857 
L 79.130905 169.258747 
L 81.318276 147.557035 
L 83.505646 132.2094 
L 85.693016 122.683043 
L 87.880387 118.305885 
L 90.067757 118.325738 
L 92.255127 121.95799 
L 94.442497 128.423237 
L 96.629868 136.976179 
L 98.817238 146.926958 
L 101.004608 157.656052 
L 103.191979 168.623715 
L 105.379349 179.374841 
L 107.566719 189.540096 
L 109.75409 198.834004 
L 111.94146 207.050675 
L 114.12883 214.057705 
L 116.3162 219.788788 
L 118.503571 224.235456 
L 120.690941 227.438334 
L 122.878311 229.478231 
L 125.065682 230.467344 
L 127.253052 230.54079 
L 129.440422 229.848651 
L 131.627792 228.548684 
L 133.815163 226.79978 
L 136.002533 224.756263 
L 138.189903 222.56307 
L 140.377274 220.35182 
L 142.564644 218.237784 
L 144.752014 216.317716 
L 146.939385 214.668519 
L 149.126755 213.346678 
L 151.314125 212.388405 
L 153.501495 211.810411 
L 155.688866 211.611228 
L 157.876236 211.772997 
L 160.063606 212.263616 
L 162.250977 213.039184 
L 164.438347 214.04662 
L 166.625717 215.226394 
L 168.813088 216.515271 
L 171.000458 217.848998 
L 173.187828 219.164849 
L 175.375198 220.403981 
L 177.562569 221.513522 
L 179.749939 222.448361 
L 181.937309 218.653146 
L 184.12468 218.653896 
L 186.31205 221.656733 
L 188.49942 221.581871 
L 190.686791 221.37626 
L 192.874161 221.053693 
L 195.061531 220.632329 
L 197.248901 220.13389 
L 199.436272 219.582744 
L 201.623642 219.00492 
L 203.811012 218.427079 
L 205.998383 217.87546 
L 208.185753 217.374855 
L 210.373123 216.947621 
L 212.560493 216.612774 
L 214.747864 216.385188 
L 216.935234 216.274932 
L 219.122604 216.286768 
L 221.309975 216.419831 
L 223.497345 216.667521 
L 225.684715 217.017607 
L 227.872086 217.45257 
L 230.059456 217.950179 
L 232.246826 218.484305 
L 234.434196 219.025959 
L 236.621567 219.544548 
L 238.808937 220.009311 
L 240.996307 220.390909 
L 243.183678 220.663123 
L 245.371048 220.804597 
L 247.558418 220.800565 
L 249.745789 220.644474 
L 251.933159 220.339399 
L 254.120529 219.89916 
L 256.307899 219.348978 
L 258.49527 218.725555 
L 260.68264 218.07639 
L 262.87001 217.458155 
L 265.057381 216.933924 
L 267.244751 216.569018 
L 269.432121 216.425233 
L 271.619492 216.553142 
L 273.806862 216.982202 
L 275.994232 217.708311 
L 278.181602 218.678466 
L 280.368973 219.772138 
L 282.556343 220.778928 
L 284.743713 221.372067 
L 286.931084 221.077271 
L 289.118454 219.236412 
L 291.305824 214.965473 
" clip-path="url(#p9e1e079526)" style="fill: none; stroke: #2ca02c; stroke-width: 1.5; stroke-linecap: square"/>
   </g>
   <g id="line2d_18">
    <path d="M 74.756165 276.334125 
L 77.158682 161.124229 
L 79.561199 94.101862 
L 81.963716 62.018034 
L 84.366234 54.348493 
L 86.768751 62.860479 
L 89.171268 81.232722 
L 91.573785 104.72375 
L 93.976302 129.883893 
L 96.378819 154.306678 
L 98.781337 176.415635 
L 101.183854 195.282775 
L 103.586371 210.475336 
L 105.988888 221.927593 
L 108.391405 229.834831 
L 110.793923 234.566764 
L 113.19644 236.597964 
L 115.598957 236.453017 
L 118.001474 234.66438 
L 120.403991 231.741061 
L 122.806509 228.146447 
L 125.209026 224.283764 
L 127.611543 220.487813 
L 130.01406 217.021781 
L 132.416577 214.078056 
L 134.819095 211.782105 
L 137.221612 210.198603 
L 139.624129 209.339105 
L 142.026646 209.170662 
L 144.429163 209.624863 
L 146.83168 210.606896 
L 149.234198 212.004278 
L 151.636715 213.694986 
L 154.039232 215.554791 
L 156.441749 217.463633 
L 158.844266 219.310969 
L 161.246784 221.000018 
L 163.649301 222.450908 
L 166.051818 223.602759 
L 168.454335 224.414727 
L 170.856852 224.866119 
L 173.25937 224.955657 
L 175.661887 224.700006 
L 178.064404 224.131686 
L 180.466921 223.296498 
L 182.869438 222.250604 
L 185.271956 221.057369 
L 187.674473 219.784118 
L 190.07699 218.49891 
L 192.479507 218.655956 
L 194.882024 218.657646 
L 197.284542 211.167635 
L 199.687059 209.971528 
L 202.089576 209.23657 
L 204.492093 208.989527 
L 206.89461 209.233887 
L 209.297127 209.950012 
L 211.699645 211.096217 
L 214.102162 212.610732 
L 216.504679 214.414491 
L 218.907196 216.414643 
L 221.309713 218.508676 
L 223.712231 220.589008 
L 226.114748 222.547889 
L 228.517265 224.282445 
L 230.919782 225.699671 
L 233.322299 226.721171 
L 235.724817 227.287465 
L 238.127334 227.361645 
L 240.529851 226.932202 
L 242.932368 226.014833 
L 245.334885 224.653081 
L 247.737403 222.917663 
L 250.13992 220.904389 
L 252.542437 218.730613 
L 254.944954 216.530196 
L 257.347471 214.447044 
L 259.749988 212.627311 
L 262.152506 211.210485 
L 264.555023 210.319605 
L 266.95754 210.051009 
L 269.360057 210.464073 
L 271.762574 211.571564 
L 274.165092 213.331324 
L 276.567609 215.640178 
L 278.970126 218.331091 
L 281.372643 221.174786 
L 283.77516 223.887216 
L 286.177678 226.144471 
L 288.580195 227.606941 
L 290.982712 227.954742 
L 293.385229 226.936703 
L 295.787746 224.435447 
L 298.190264 220.551371 
L 300.592781 215.708642 
L 302.995298 210.786633 
L 305.397815 207.28054 
L 307.800332 207.495286 
L 310.202849 214.777184 
L 312.605367 233.788197 
" clip-path="url(#p9e1e079526)" style="fill: none; stroke: #d62728; stroke-width: 1.5; stroke-linecap: square"/>
   </g>
   <g id="line2d_19">
    <path d="M 74.756165 227.954156 
L 75.207717 215.220304 
L 75.659269 210.005855 
L 76.11082 209.66239 
L 76.562372 212.145863 
L 77.013924 215.919141 
L 77.465476 219.866036 
L 77.917028 223.215836 
L 78.36858 225.477398 
L 78.820132 226.381967 
L 79.271684 225.833867 
L 79.723236 223.868337 
L 80.174788 220.615776 
L 80.626339 216.271744 
L 81.077891 211.072102 
L 81.529443 205.272712 
L 81.980995 199.133173 
L 82.432547 192.904091 
L 82.884099 186.817445 
L 83.335651 181.079619 
L 83.787203 175.86673 
L 84.238755 171.321898 
L 84.690307 167.554145 
L 85.141858 164.638633 
L 85.59341 162.617984 
L 86.044962 161.504459 
L 86.496514 161.282771 
L 86.948066 161.913368 
L 87.399618 163.336015 
L 87.85117 165.473537 
L 88.302722 168.235604 
L 88.754274 171.522451 
L 89.205826 175.228458 
L 89.657377 179.245501 
L 90.108929 183.466044 
L 90.560481 187.785896 
L 91.012033 192.106635 
L 91.463585 196.337656 
L 91.915137 200.397844 
L 92.366689 204.216858 
L 92.818241 207.736052 
L 93.269793 210.909021 
L 93.721345 213.701816 
L 94.172896 216.092824 
L 94.624448 218.072369 
L 95.076 219.642042 
L 95.527552 220.813809 
L 95.979104 221.60892 
L 96.430656 222.056668 
L 96.882208 218.65257 
L 97.33376 218.653326 
L 97.785312 220.949924 
L 98.236864 220.386899 
L 98.688415 219.733076 
L 99.139967 219.034752 
L 99.591519 218.33452 
L 100.043071 217.670198 
L 100.494623 217.073968 
L 100.946175 216.571728 
L 101.397727 216.182681 
L 101.849279 215.919148 
L 102.300831 215.786619 
L 102.752382 215.784015 
L 103.203934 215.904169 
L 103.655486 216.134485 
L 104.107038 216.457764 
L 104.55859 216.85318 
L 105.010142 217.297339 
L 105.461694 217.765433 
L 105.913246 218.232409 
L 106.364798 218.674145 
L 106.81635 219.06857 
L 107.267901 219.396702 
L 107.719453 219.643563 
L 108.171005 219.798914 
L 108.622557 219.857805 
L 109.074109 219.820882 
L 109.525661 219.69444 
L 109.977213 219.490192 
L 110.428765 219.224754 
L 110.880317 218.918833 
L 111.331869 218.596129 
L 111.78342 218.281981 
L 112.234972 218.001782 
L 112.686524 217.779216 
L 113.138076 217.6344 
L 113.589628 217.582 
L 114.04118 217.629456 
L 114.492732 217.775428 
L 114.944284 218.008652 
L 115.395836 218.30737 
L 115.847388 218.639582 
L 116.298939 218.964347 
L 116.750491 219.234457 
L 117.202043 219.400779 
L 117.653595 219.418662 
L 118.105147 219.25681 
L 118.556699 218.909078 
L 119.008251 218.409715 
L 119.459803 217.852601 
" clip-path="url(#p9e1e079526)" style="fill: none; stroke: #9467bd; stroke-width: 1.5; stroke-linecap: square"/>
   </g>
   <g id="line2d_20">
    <path d="M 74.756165 217.110219 
L 75.126551 219.97384 
L 75.496936 220.427413 
L 75.867322 219.635288 
L 76.237708 218.391485 
L 76.608093 217.199878 
L 76.978479 216.342118 
L 77.348865 215.934642 
L 77.719251 215.975982 
L 78.089636 216.385523 
L 78.460022 217.03475 
L 78.830408 217.77194 
L 79.200794 218.441187 
L 79.571179 218.896553 
L 79.941565 219.012082 
L 80.311951 218.688333 
L 80.682337 217.856022 
L 81.052722 216.477316 
L 81.423108 214.545248 
L 81.793494 212.081682 
L 82.16388 209.134187 
L 82.534265 205.772161 
L 82.904651 202.08247 
L 83.275037 198.164854 
L 83.645423 194.127295 
L 84.015808 190.081515 
L 84.386194 186.13875 
L 84.75658 182.405885 
L 85.126965 178.982064 
L 85.497351 175.955793 
L 85.867737 173.402611 
L 86.238123 171.383312 
L 86.608508 169.942743 
L 86.978894 169.109153 
L 87.34928 168.894068 
L 87.719666 169.292653 
L 88.090051 170.284525 
L 88.460437 171.834954 
L 88.830823 173.896401 
L 89.201209 176.41033 
L 89.571594 179.309236 
L 89.94198 182.518815 
L 90.312366 185.960225 
L 90.682752 189.552369 
L 91.053137 193.214139 
L 91.423523 196.866578 
L 91.793909 200.434894 
L 92.164295 203.850289 
L 92.53468 207.051562 
L 92.905066 218.64966 
L 93.275452 218.649866 
L 93.645837 214.873824 
L 94.016223 216.854276 
L 94.386609 218.464837 
L 94.756995 219.705048 
L 95.12738 220.585046 
L 95.497766 221.124849 
L 95.868152 221.353374 
L 96.238538 221.307202 
L 96.608923 221.029144 
L 96.979309 220.566635 
L 97.349695 219.969999 
L 97.720081 219.290638 
L 98.090466 218.579199 
L 98.460852 217.883763 
L 98.831238 217.248122 
L 99.201624 216.710191 
L 99.572009 216.300621 
L 99.942395 216.041653 
L 100.312781 215.946271 
L 100.683167 216.017702 
L 101.053552 216.249283 
L 101.423938 216.624754 
L 101.794324 217.118965 
L 102.164709 217.699031 
L 102.535095 218.325915 
L 102.905481 218.956421 
L 103.275867 219.545559 
L 103.646252 220.049225 
L 104.016638 220.427103 
L 104.387024 220.645697 
L 104.75741 220.681344 
L 105.127795 220.52306 
L 105.498181 220.174998 
L 105.868567 219.658315 
L 106.238953 219.012141 
L 106.609338 218.293375 
L 106.979724 217.574913 
L 107.35011 216.941931 
L 107.720496 216.485753 
L 108.090881 216.294787 
L 108.461267 216.441973 
L 108.831653 216.968103 
L 109.202039 217.860316 
L 109.572424 219.02501 
L 109.94281 220.254316 
L 110.313196 221.185242 
L 110.683581 221.250467 
L 111.053967 219.619718 
L 111.424353 215.130554 
" clip-path="url(#p9e1e079526)" style="fill: none; stroke: #8c564b; stroke-width: 1.5; stroke-linecap: square"/>
   </g>
   <g id="patch_3">
    <path d="M 58.523438 288.430125 
L 58.523438 22.318125 
" style="fill: none; stroke: #000000; stroke-width: 0.8; stroke-linejoin: miter; stroke-linecap: square"/>
   </g>
   <g id="patch_4">
    <path d="M 415.643438 288.430125 
L 415.643438 22.318125 
" style="fill: none; stroke: #000000; stroke-width: 0.8; stroke-linejoin: miter; stroke-linecap: square"/>
   </g>
   <g id="patch_5">
    <path d="M 58.523438 288.430125 
L 415.643438 288.430125 
" style="fill: none; stroke: #000000; stroke-width: 0.8; stroke-linejoin: miter; stroke-linecap: square"/>
   </g>
   <g id="patch_6">
    <path d="M 58.523438 22.318125 
L 415.643438 22.318125 
" style="fill: none; stroke: #000000; stroke-width: 0.8; stroke-linejoin: miter; stroke-linecap: square"/>
   </g>
   <g id="text_17">
    <!-- AD - xtract_prob_Corticospinal_Tract_L -->
    <g transform="translate(122.079375 16.318125) scale(0.12 -0.12)">
     <defs>
      <path id="DejaVuSans-41" d="M 2188 4044 
L 1331 1722 
L 3047 1722 
L 2188 4044 
z
M 1831 4666 
L 2547 4666 
L 4325 0 
L 3669 0 
L 3244 1197 
L 1141 1197 
L 716 0 
L 50 0 
L 1831 4666 
z
" transform="scale(0.015625)"/>
      <path id="DejaVuSans-44" d="M 1259 4147 
L 1259 519 
L 2022 519 
Q 2988 519 3436 956 
Q 3884 1394 3884 2338 
Q 3884 3275 3436 3711 
Q 2988 4147 2022 4147 
L 1259 4147 
z
M 628 4666 
L 1925 4666 
Q 3281 4666 3915 4102 
Q 4550 3538 4550 2338 
Q 4550 1131 3912 565 
Q 3275 0 1925 0 
L 628 0 
L 628 4666 
z
" transform="scale(0.015625)"/>
      <path id="DejaVuSans-2d" d="M 313 2009 
L 1997 2009 
L 1997 1497 
L 313 1497 
L 313 2009 
z
" transform="scale(0.015625)"/>
      <path id="DejaVuSans-74" d="M 1172 4494 
L 1172 3500 
L 2356 3500 
L 2356 3053 
L 1172 3053 
L 1172 1153 
Q 1172 725 1289 603 
Q 1406 481 1766 481 
L 2356 481 
L 2356 0 
L 1766 0 
Q 1100 0 847 248 
Q 594 497 594 1153 
L 594 3053 
L 172 3053 
L 172 3500 
L 594 3500 
L 594 4494 
L 1172 4494 
z
" transform="scale(0.015625)"/>
      <path id="DejaVuSans-5f" d="M 3263 -1063 
L 3263 -1509 
L -63 -1509 
L -63 -1063 
L 3263 -1063 
z
" transform="scale(0.015625)"/>
      <path id="DejaVuSans-70" d="M 1159 525 
L 1159 -1331 
L 581 -1331 
L 581 3500 
L 1159 3500 
L 1159 2969 
Q 1341 3281 1617 3432 
Q 1894 3584 2278 3584 
Q 2916 3584 3314 3078 
Q 3713 2572 3713 1747 
Q 3713 922 3314 415 
Q 2916 -91 2278 -91 
Q 1894 -91 1617 61 
Q 1341 213 1159 525 
z
M 3116 1747 
Q 3116 2381 2855 2742 
Q 2594 3103 2138 3103 
Q 1681 3103 1420 2742 
Q 1159 2381 1159 1747 
Q 1159 1113 1420 752 
Q 1681 391 2138 391 
Q 2594 391 2855 752 
Q 3116 1113 3116 1747 
z
" transform="scale(0.015625)"/>
      <path id="DejaVuSans-6f" d="M 1959 3097 
Q 1497 3097 1228 2736 
Q 959 2375 959 1747 
Q 959 1119 1226 758 
Q 1494 397 1959 397 
Q 2419 397 2687 759 
Q 2956 1122 2956 1747 
Q 2956 2369 2687 2733 
Q 2419 3097 1959 3097 
z
M 1959 3584 
Q 2709 3584 3137 3096 
Q 3566 2609 3566 1747 
Q 3566 888 3137 398 
Q 2709 -91 1959 -91 
Q 1206 -91 779 398 
Q 353 888 353 1747 
Q 353 2609 779 3096 
Q 1206 3584 1959 3584 
z
" transform="scale(0.015625)"/>
      <path id="DejaVuSans-62" d="M 3116 1747 
Q 3116 2381 2855 2742 
Q 2594 3103 2138 3103 
Q 1681 3103 1420 2742 
Q 1159 2381 1159 1747 
Q 1159 1113 1420 752 
Q 1681 391 2138 391 
Q 2594 391 2855 752 
Q 3116 1113 3116 1747 
z
M 1159 2969 
Q 1341 3281 1617 3432 
Q 1894 3584 2278 3584 
Q 2916 3584 3314 3078 
Q 3713 2572 3713 1747 
Q 3713 922 3314 415 
Q 2916 -91 2278 -91 
Q 1894 -91 1617 61 
Q 1341 213 1159 525 
L 1159 0 
L 581 0 
L 581 4863 
L 1159 4863 
L 1159 2969 
z
" transform="scale(0.015625)"/>
      <path id="DejaVuSans-43" d="M 4122 4306 
L 4122 3641 
Q 3803 3938 3442 4084 
Q 3081 4231 2675 4231 
Q 1875 4231 1450 3742 
Q 1025 3253 1025 2328 
Q 1025 1406 1450 917 
Q 1875 428 2675 428 
Q 3081 428 3442 575 
Q 3803 722 4122 1019 
L 4122 359 
Q 3791 134 3420 21 
Q 3050 -91 2638 -91 
Q 1578 -91 968 557 
Q 359 1206 359 2328 
Q 359 3453 968 4101 
Q 1578 4750 2638 4750 
Q 3056 4750 3426 4639 
Q 3797 4528 4122 4306 
z
" transform="scale(0.015625)"/>
      <path id="DejaVuSans-54" d="M -19 4666 
L 3928 4666 
L 3928 4134 
L 2272 4134 
L 2272 0 
L 1638 0 
L 1638 4134 
L -19 4134 
L -19 4666 
z
" transform="scale(0.015625)"/>
      <path id="DejaVuSans-4c" d="M 628 4666 
L 1259 4666 
L 1259 531 
L 3531 531 
L 3531 0 
L 628 0 
L 628 4666 
z
" transform="scale(0.015625)"/>
     </defs>
     <use xlink:href="#DejaVuSans-41"/>
     <use xlink:href="#DejaVuSans-44" x="68.408203"/>
     <use xlink:href="#DejaVuSans-20" x="145.410156"/>
     <use xlink:href="#DejaVuSans-2d" x="177.197266"/>
     <use xlink:href="#DejaVuSans-20" x="213.28125"/>
     <use xlink:href="#DejaVuSans-78" x="245.068359"/>
     <use xlink:href="#DejaVuSans-74" x="304.248047"/>
     <use xlink:href="#DejaVuSans-72" x="343.457031"/>
     <use xlink:href="#DejaVuSans-61" x="384.570312"/>
     <use xlink:href="#DejaVuSans-63" x="445.849609"/>
     <use xlink:href="#DejaVuSans-74" x="500.830078"/>
     <use xlink:href="#DejaVuSans-5f" x="540.039062"/>
     <use xlink:href="#DejaVuSans-70" x="590.039062"/>
     <use xlink:href="#DejaVuSans-72" x="653.515625"/>
     <use xlink:href="#DejaVuSans-6f" x="692.378906"/>
     <use xlink:href="#DejaVuSans-62" x="753.560547"/>
     <use xlink:href="#DejaVuSans-5f" x="817.037109"/>
     <use xlink:href="#DejaVuSans-43" x="867.037109"/>
     <use xlink:href="#DejaVuSans-6f" x="936.861328"/>
     <use xlink:href="#DejaVuSans-72" x="998.042969"/>
     <use xlink:href="#DejaVuSans-74" x="1039.15625"/>
     <use xlink:href="#DejaVuSans-69" x="1078.365234"/>
     <use xlink:href="#DejaVuSans-63" x="1106.148438"/>
     <use xlink:href="#DejaVuSans-6f" x="1161.128906"/>
     <use xlink:href="#DejaVuSans-73" x="1222.310547"/>
     <use xlink:href="#DejaVuSans-70" x="1274.410156"/>
     <use xlink:href="#DejaVuSans-69" x="1337.886719"/>
     <use xlink:href="#DejaVuSans-6e" x="1365.669922"/>
     <use xlink:href="#DejaVuSans-61" x="1429.048828"/>
     <use xlink:href="#DejaVuSans-6c" x="1490.328125"/>
     <use xlink:href="#DejaVuSans-5f" x="1518.111328"/>
     <use xlink:href="#DejaVuSans-54" x="1568.111328"/>
     <use xlink:href="#DejaVuSans-72" x="1614.445312"/>
     <use xlink:href="#DejaVuSans-61" x="1655.558594"/>
     <use xlink:href="#DejaVuSans-63" x="1716.837891"/>
     <use xlink:href="#DejaVuSans-74" x="1771.818359"/>
     <use xlink:href="#DejaVuSans-5f" x="1811.027344"/>
     <use xlink:href="#DejaVuSans-4c" x="1861.027344"/>
    </g>
   </g>
   <g id="legend_1">
    <g id="patch_7">
     <path d="M 458.355438 146.666825 
L 556.211688 146.666825 
Q 558.211688 146.666825 558.211688 144.666825 
L 558.211688 55.929325 
Q 558.211688 53.929325 556.211688 53.929325 
L 458.355438 53.929325 
Q 456.355438 53.929325 456.355438 55.929325 
L 456.355438 144.666825 
Q 456.355438 146.666825 458.355438 146.666825 
z
" style="fill: #ffffff; opacity: 0.8; stroke: #cccccc; stroke-linejoin: miter"/>
    </g>
    <g id="line2d_21">
     <path d="M 460.355438 62.027762 
L 470.355438 62.027762 
L 480.355438 62.027762 
" style="fill: none; stroke: #1f77b4; stroke-width: 1.5; stroke-linecap: square"/>
    </g>
    <g id="text_18">
     <!-- 20_06_02_E3 -->
     <g transform="translate(488.355438 65.527762) scale(0.1 -0.1)">
      <defs>
       <path id="DejaVuSans-36" d="M 2113 2584 
Q 1688 2584 1439 2293 
Q 1191 2003 1191 1497 
Q 1191 994 1439 701 
Q 1688 409 2113 409 
Q 2538 409 2786 701 
Q 3034 994 3034 1497 
Q 3034 2003 2786 2293 
Q 2538 2584 2113 2584 
z
M 3366 4563 
L 3366 3988 
Q 3128 4100 2886 4159 
Q 2644 4219 2406 4219 
Q 1781 4219 1451 3797 
Q 1122 3375 1075 2522 
Q 1259 2794 1537 2939 
Q 1816 3084 2150 3084 
Q 2853 3084 3261 2657 
Q 3669 2231 3669 1497 
Q 3669 778 3244 343 
Q 2819 -91 2113 -91 
Q 1303 -91 875 529 
Q 447 1150 447 2328 
Q 447 3434 972 4092 
Q 1497 4750 2381 4750 
Q 2619 4750 2861 4703 
Q 3103 4656 3366 4563 
z
" transform="scale(0.015625)"/>
       <path id="DejaVuSans-45" d="M 628 4666 
L 3578 4666 
L 3578 4134 
L 1259 4134 
L 1259 2753 
L 3481 2753 
L 3481 2222 
L 1259 2222 
L 1259 531 
L 3634 531 
L 3634 0 
L 628 0 
L 628 4666 
z
" transform="scale(0.015625)"/>
       <path id="DejaVuSans-33" d="M 2597 2516 
Q 3050 2419 3304 2112 
Q 3559 1806 3559 1356 
Q 3559 666 3084 287 
Q 2609 -91 1734 -91 
Q 1441 -91 1130 -33 
Q 819 25 488 141 
L 488 750 
Q 750 597 1062 519 
Q 1375 441 1716 441 
Q 2309 441 2620 675 
Q 2931 909 2931 1356 
Q 2931 1769 2642 2001 
Q 2353 2234 1838 2234 
L 1294 2234 
L 1294 2753 
L 1863 2753 
Q 2328 2753 2575 2939 
Q 2822 3125 2822 3475 
Q 2822 3834 2567 4026 
Q 2313 4219 1838 4219 
Q 1578 4219 1281 4162 
Q 984 4106 628 3988 
L 628 4550 
Q 988 4650 1302 4700 
Q 1616 4750 1894 4750 
Q 2613 4750 3031 4423 
Q 3450 4097 3450 3541 
Q 3450 3153 3228 2886 
Q 3006 2619 2597 2516 
z
" transform="scale(0.015625)"/>
      </defs>
      <use xlink:href="#DejaVuSans-32"/>
      <use xlink:href="#DejaVuSans-30" x="63.623047"/>
      <use xlink:href="#DejaVuSans-5f" x="127.246094"/>
      <use xlink:href="#DejaVuSans-30" x="177.246094"/>
      <use xlink:href="#DejaVuSans-36" x="240.869141"/>
      <use xlink:href="#DejaVuSans-5f" x="304.492188"/>
      <use xlink:href="#DejaVuSans-30" x="354.492188"/>
      <use xlink:href="#DejaVuSans-32" x="418.115234"/>
      <use xlink:href="#DejaVuSans-5f" x="481.738281"/>
      <use xlink:href="#DejaVuSans-45" x="531.738281"/>
      <use xlink:href="#DejaVuSans-33" x="594.921875"/>
     </g>
    </g>
    <g id="line2d_22">
     <path d="M 460.355438 76.984013 
L 470.355438 76.984013 
L 480.355438 76.984013 
" style="fill: none; stroke: #ff7f0e; stroke-width: 1.5; stroke-linecap: square"/>
    </g>
    <g id="text_19">
     <!-- 20_05_01_E3 -->
     <g transform="translate(488.355438 80.484013) scale(0.1 -0.1)">
      <use xlink:href="#DejaVuSans-32"/>
      <use xlink:href="#DejaVuSans-30" x="63.623047"/>
      <use xlink:href="#DejaVuSans-5f" x="127.246094"/>
      <use xlink:href="#DejaVuSans-30" x="177.246094"/>
      <use xlink:href="#DejaVuSans-35" x="240.869141"/>
      <use xlink:href="#DejaVuSans-5f" x="304.492188"/>
      <use xlink:href="#DejaVuSans-30" x="354.492188"/>
      <use xlink:href="#DejaVuSans-31" x="418.115234"/>
      <use xlink:href="#DejaVuSans-5f" x="481.738281"/>
      <use xlink:href="#DejaVuSans-45" x="531.738281"/>
      <use xlink:href="#DejaVuSans-33" x="594.921875"/>
     </g>
    </g>
    <g id="line2d_23">
     <path d="M 460.355438 91.940262 
L 470.355438 91.940262 
L 480.355438 91.940262 
" style="fill: none; stroke: #2ca02c; stroke-width: 1.5; stroke-linecap: square"/>
    </g>
    <g id="text_20">
     <!-- 20_02_02_E3 -->
     <g transform="translate(488.355438 95.440262) scale(0.1 -0.1)">
      <use xlink:href="#DejaVuSans-32"/>
      <use xlink:href="#DejaVuSans-30" x="63.623047"/>
      <use xlink:href="#DejaVuSans-5f" x="127.246094"/>
      <use xlink:href="#DejaVuSans-30" x="177.246094"/>
      <use xlink:href="#DejaVuSans-32" x="240.869141"/>
      <use xlink:href="#DejaVuSans-5f" x="304.492188"/>
      <use xlink:href="#DejaVuSans-30" x="354.492188"/>
      <use xlink:href="#DejaVuSans-32" x="418.115234"/>
      <use xlink:href="#DejaVuSans-5f" x="481.738281"/>
      <use xlink:href="#DejaVuSans-45" x="531.738281"/>
      <use xlink:href="#DejaVuSans-33" x="594.921875"/>
     </g>
    </g>
    <g id="line2d_24">
     <path d="M 460.355438 106.896513 
L 470.355438 106.896513 
L 480.355438 106.896513 
" style="fill: none; stroke: #d62728; stroke-width: 1.5; stroke-linecap: square"/>
    </g>
    <g id="text_21">
     <!-- 20_10_02_E3 -->
     <g transform="translate(488.355438 110.396513) scale(0.1 -0.1)">
      <use xlink:href="#DejaVuSans-32"/>
      <use xlink:href="#DejaVuSans-30" x="63.623047"/>
      <use xlink:href="#DejaVuSans-5f" x="127.246094"/>
      <use xlink:href="#DejaVuSans-31" x="177.246094"/>
      <use xlink:href="#DejaVuSans-30" x="240.869141"/>
      <use xlink:href="#DejaVuSans-5f" x="304.492188"/>
      <use xlink:href="#DejaVuSans-30" x="354.492188"/>
      <use xlink:href="#DejaVuSans-32" x="418.115234"/>
      <use xlink:href="#DejaVuSans-5f" x="481.738281"/>
      <use xlink:href="#DejaVuSans-45" x="531.738281"/>
      <use xlink:href="#DejaVuSans-33" x="594.921875"/>
     </g>
    </g>
    <g id="line2d_25">
     <path d="M 460.355438 121.852762 
L 470.355438 121.852762 
L 480.355438 121.852762 
" style="fill: none; stroke: #9467bd; stroke-width: 1.5; stroke-linecap: square"/>
    </g>
    <g id="text_22">
     <!-- 20_08_02_E3 -->
     <g transform="translate(488.355438 125.352762) scale(0.1 -0.1)">
      <defs>
       <path id="DejaVuSans-38" d="M 2034 2216 
Q 1584 2216 1326 1975 
Q 1069 1734 1069 1313 
Q 1069 891 1326 650 
Q 1584 409 2034 409 
Q 2484 409 2743 651 
Q 3003 894 3003 1313 
Q 3003 1734 2745 1975 
Q 2488 2216 2034 2216 
z
M 1403 2484 
Q 997 2584 770 2862 
Q 544 3141 544 3541 
Q 544 4100 942 4425 
Q 1341 4750 2034 4750 
Q 2731 4750 3128 4425 
Q 3525 4100 3525 3541 
Q 3525 3141 3298 2862 
Q 3072 2584 2669 2484 
Q 3125 2378 3379 2068 
Q 3634 1759 3634 1313 
Q 3634 634 3220 271 
Q 2806 -91 2034 -91 
Q 1263 -91 848 271 
Q 434 634 434 1313 
Q 434 1759 690 2068 
Q 947 2378 1403 2484 
z
M 1172 3481 
Q 1172 3119 1398 2916 
Q 1625 2713 2034 2713 
Q 2441 2713 2670 2916 
Q 2900 3119 2900 3481 
Q 2900 3844 2670 4047 
Q 2441 4250 2034 4250 
Q 1625 4250 1398 4047 
Q 1172 3844 1172 3481 
z
" transform="scale(0.015625)"/>
      </defs>
      <use xlink:href="#DejaVuSans-32"/>
      <use xlink:href="#DejaVuSans-30" x="63.623047"/>
      <use xlink:href="#DejaVuSans-5f" x="127.246094"/>
      <use xlink:href="#DejaVuSans-30" x="177.246094"/>
      <use xlink:href="#DejaVuSans-38" x="240.869141"/>
      <use xlink:href="#DejaVuSans-5f" x="304.492188"/>
      <use xlink:href="#DejaVuSans-30" x="354.492188"/>
      <use xlink:href="#DejaVuSans-32" x="418.115234"/>
      <use xlink:href="#DejaVuSans-5f" x="481.738281"/>
      <use xlink:href="#DejaVuSans-45" x="531.738281"/>
      <use xlink:href="#DejaVuSans-33" x="594.921875"/>
     </g>
    </g>
    <g id="line2d_26">
     <path d="M 460.355438 136.809012 
L 470.355438 136.809012 
L 480.355438 136.809012 
" style="fill: none; stroke: #8c564b; stroke-width: 1.5; stroke-linecap: square"/>
    </g>
    <g id="text_23">
     <!-- 20_11_02_E3 -->
     <g transform="translate(488.355438 140.309012) scale(0.1 -0.1)">
      <use xlink:href="#DejaVuSans-32"/>
      <use xlink:href="#DejaVuSans-30" x="63.623047"/>
      <use xlink:href="#DejaVuSans-5f" x="127.246094"/>
      <use xlink:href="#DejaVuSans-31" x="177.246094"/>
      <use xlink:href="#DejaVuSans-31" x="240.869141"/>
      <use xlink:href="#DejaVuSans-5f" x="304.492188"/>
      <use xlink:href="#DejaVuSans-30" x="354.492188"/>
      <use xlink:href="#DejaVuSans-32" x="418.115234"/>
      <use xlink:href="#DejaVuSans-5f" x="481.738281"/>
      <use xlink:href="#DejaVuSans-45" x="531.738281"/>
      <use xlink:href="#DejaVuSans-33" x="594.921875"/>
     </g>
    </g>
   </g>
  </g>
 </g>
 <defs>
  <clipPath id="p9e1e079526">
   <rect x="58.523438" y="22.318125" width="357.12" height="266.112"/>
  </clipPath>
 </defs>
</svg>
