<?xml version="1.0" encoding="utf-8" standalone="no"?>
<!DOCTYPE svg PUBLIC "-//W3C//DTD SVG 1.1//EN"
  "http://www.w3.org/Graphics/SVG/1.1/DTD/svg11.dtd">
<svg xmlns:xlink="http://www.w3.org/1999/xlink" width="563.3945pt" height="325.986375pt" viewBox="0 0 563.3945 325.986375" xmlns="http://www.w3.org/2000/svg" version="1.1">
 <metadata>
  <rdf:RDF xmlns:dc="http://purl.org/dc/elements/1.1/" xmlns:cc="http://creativecommons.org/ns#" xmlns:rdf="http://www.w3.org/1999/02/22-rdf-syntax-ns#">
   <cc:Work>
    <dc:type rdf:resource="http://purl.org/dc/dcmitype/StillImage"/>
    <dc:date>2023-02-07T22:59:58.088728</dc:date>
    <dc:format>image/svg+xml</dc:format>
    <dc:creator>
     <cc:Agent>
      <dc:title>Matplotlib v3.6.2, https://matplotlib.org/</dc:title>
     </cc:Agent>
    </dc:creator>
   </cc:Work>
  </rdf:RDF>
 </metadata>
 <defs>
  <style type="text/css">*{stroke-linejoin: round; stroke-linecap: butt}</style>
 </defs>
 <g id="figure_1">
  <g id="patch_1">
   <path d="M 0 325.986375 
L 563.3945 325.986375 
L 563.3945 0 
L 0 0 
z
" style="fill: #ffffff"/>
  </g>
  <g id="axes_1">
   <g id="patch_2">
    <path d="M 56.50625 288.430125 
L 413.62625 288.430125 
L 413.62625 22.318125 
L 56.50625 22.318125 
z
" style="fill: #ffffff"/>
   </g>
   <g id="PolyCollection_1">
    <path d="M 72.738977 276.334125 
L 72.738977 255.225788 
L 76.018316 255.225788 
L 79.297655 255.225788 
L 82.576993 255.225788 
L 85.856332 255.225788 
L 89.135671 255.225788 
L 92.415009 255.225788 
L 95.694348 255.225788 
L 98.973686 255.225788 
L 102.253025 255.225788 
L 105.532364 255.225788 
L 108.811702 255.225788 
L 112.091041 255.225788 
L 115.37038 255.225788 
L 118.649718 255.225788 
L 121.929057 255.225788 
L 125.208396 255.225788 
L 128.487734 255.225788 
L 131.767073 255.225788 
L 135.046412 255.225788 
L 138.32575 255.225788 
L 141.605089 255.225788 
L 144.884428 255.225788 
L 148.163766 255.225788 
L 151.443105 255.225788 
L 154.722443 255.225788 
L 158.001782 255.225788 
L 161.281121 255.225788 
L 164.560459 255.225788 
L 167.839798 255.225788 
L 171.119137 255.225788 
L 174.398475 255.225788 
L 177.677814 255.225788 
L 180.957153 255.225788 
L 184.236491 255.225788 
L 187.51583 255.225788 
L 190.795169 255.225788 
L 194.074507 255.225788 
L 197.353846 255.225788 
L 200.633185 255.225788 
L 203.912523 255.225788 
L 207.191862 255.225788 
L 210.4712 255.225788 
L 213.750539 255.225788 
L 217.029878 255.225788 
L 220.309216 255.225788 
L 223.588555 255.225788 
L 226.867894 255.225788 
L 230.147232 255.225788 
L 233.426571 255.225788 
L 236.70591 255.225788 
L 239.985248 255.225788 
L 243.264587 255.225788 
L 246.543926 255.225788 
L 249.823264 255.225788 
L 253.102603 255.225788 
L 256.381942 255.225788 
L 259.66128 255.225788 
L 262.940619 255.225788 
L 266.219957 255.225788 
L 269.499296 255.225788 
L 272.778635 255.225788 
L 276.057973 255.225788 
L 279.337312 255.225788 
L 282.616651 255.225788 
L 285.895989 255.225788 
L 289.175328 255.225788 
L 292.454667 255.225788 
L 295.734005 255.225788 
L 299.013344 255.225788 
L 302.292683 255.225788 
L 305.572021 255.225788 
L 308.85136 255.225788 
L 312.130699 255.225788 
L 315.410037 255.225788 
L 318.689376 255.225788 
L 321.968714 255.225788 
L 325.248053 255.225788 
L 328.527392 255.225788 
L 331.80673 255.225788 
L 335.086069 255.225788 
L 338.365408 255.225788 
L 341.644746 255.225788 
L 344.924085 255.225788 
L 348.203424 255.225788 
L 351.482762 255.225788 
L 354.762101 255.225788 
L 358.04144 255.225788 
L 361.320778 255.225788 
L 364.600117 255.225788 
L 367.879456 255.225788 
L 371.158794 255.225788 
L 374.438133 255.225788 
L 377.717471 255.225788 
L 380.99681 255.225788 
L 384.276149 255.225788 
L 387.555487 255.225788 
L 390.834826 255.225788 
L 394.114165 255.225788 
L 397.393503 255.225788 
L 397.393503 185.47625 
L 397.393503 185.47625 
L 394.114165 223.783267 
L 390.834826 246.590283 
L 387.555487 258.506205 
L 384.276149 263.100726 
L 380.99681 263.08519 
L 377.717471 260.469072 
L 374.438133 256.694574 
L 371.158794 252.751641 
L 367.879456 249.275522 
L 364.600117 246.628858 
L 361.320778 244.970095 
L 358.04144 244.309887 
L 354.762101 244.55701 
L 351.482762 245.555173 
L 348.203424 247.111988 
L 344.924085 249.021225 
L 341.644746 251.079404 
L 338.365408 253.097624 
L 335.086069 254.909468 
L 331.80673 256.375706 
L 328.527392 257.386445 
L 325.248053 257.861294 
L 321.968714 257.748027 
L 318.689376 257.020175 
L 315.410037 255.6739 
L 312.130699 253.724452 
L 308.85136 251.202467 
L 305.572021 248.15029 
L 302.292683 244.618493 
L 299.013344 240.662704 
L 295.734005 236.340824 
L 292.454667 231.710698 
L 289.175328 226.828252 
L 285.895989 221.746112 
L 282.616651 216.512684 
L 279.337312 211.171666 
L 276.057973 205.761948 
L 272.778635 200.317845 
L 269.499296 194.869604 
L 266.219957 189.444116 
L 262.940619 184.065776 
L 259.66128 178.757402 
L 256.381942 173.541174 
L 253.102603 168.439509 
L 249.823264 163.475825 
L 246.543926 158.675143 
L 243.264587 154.064487 
L 239.985248 149.673035 
L 236.70591 255.206852 
L 233.426571 255.206444 
L 230.147232 137.737375 
L 226.867894 134.185194 
L 223.588555 131.048002 
L 220.309216 128.370832 
L 217.029878 126.192985 
L 213.750539 124.545776 
L 210.4712 123.450252 
L 207.191862 122.914984 
L 203.912523 122.934006 
L 200.633185 123.485007 
L 197.353846 124.527852 
L 194.074507 126.00356 
L 190.795169 127.833798 
L 187.51583 129.921004 
L 184.236491 132.14922 
L 180.957153 134.385698 
L 177.677814 136.483347 
L 174.398475 138.284066 
L 171.119137 139.622984 
L 167.839798 140.333613 
L 164.560459 140.253878 
L 161.281121 139.232987 
L 158.001782 137.139019 
L 154.722443 133.867129 
L 151.443105 129.34817 
L 148.163766 123.557509 
L 144.884428 116.523762 
L 141.605089 108.3371 
L 138.32575 99.156723 
L 135.046412 89.217008 
L 131.767073 78.831796 
L 128.487734 68.396163 
L 125.208396 58.384948 
L 121.929057 49.347211 
L 118.649718 41.8957 
L 115.37038 36.690272 
L 112.091041 34.414125 
L 108.811702 35.741555 
L 105.532364 41.295821 
L 102.253025 51.595575 
L 98.973686 66.988139 
L 95.694348 87.567796 
L 92.415009 113.077045 
L 89.135671 142.788653 
L 85.856332 175.366108 
L 82.576993 208.699918 
L 79.297655 239.71698 
L 76.018316 264.160052 
L 72.738977 276.334125 
z
" clip-path="url(#p99d4e93991)" style="fill: #1f77b4; fill-opacity: 0.166667"/>
   </g>
   <g id="PolyCollection_2">
    <path d="M 72.738977 244.253049 
L 72.738977 255.225788 
L 76.018316 255.225788 
L 79.297655 255.225788 
L 82.576994 255.225788 
L 85.856333 255.225788 
L 89.135671 255.225788 
L 92.41501 255.225788 
L 95.694349 255.225788 
L 98.973688 255.225788 
L 102.253027 255.225788 
L 105.532366 255.225788 
L 108.811705 255.225788 
L 112.091043 255.225788 
L 115.370382 255.225788 
L 118.649721 255.225788 
L 121.92906 255.225788 
L 125.208399 255.225788 
L 128.487738 255.225788 
L 131.767076 255.225788 
L 135.046415 255.225788 
L 138.325754 255.225788 
L 141.605093 255.225788 
L 144.884432 255.225788 
L 148.163771 255.225788 
L 151.44311 255.225788 
L 154.722448 255.225788 
L 158.001787 255.225788 
L 161.281126 255.225788 
L 164.560465 255.225788 
L 167.839804 255.225788 
L 171.119143 255.225788 
L 174.398481 255.225788 
L 177.67782 255.225788 
L 180.957159 255.225788 
L 184.236498 255.225788 
L 187.515837 255.225788 
L 190.795176 255.225788 
L 194.074514 255.225788 
L 197.353853 255.225788 
L 200.633192 255.225788 
L 203.912531 255.225788 
L 207.19187 255.225788 
L 210.471209 255.225788 
L 213.750548 255.225788 
L 217.029886 255.225788 
L 220.309225 255.225788 
L 223.588564 255.225788 
L 226.867903 255.225788 
L 230.147242 255.225788 
L 233.426581 255.225788 
L 236.705919 255.225788 
L 239.985258 255.225788 
L 243.264597 255.225788 
L 246.543936 255.225788 
L 249.823275 255.225788 
L 253.102614 255.225788 
L 256.381952 255.225788 
L 259.661291 255.225788 
L 262.94063 255.225788 
L 266.219969 255.225788 
L 269.499308 255.225788 
L 272.778647 255.225788 
L 276.057986 255.225788 
L 279.337324 255.225788 
L 282.616663 255.225788 
L 285.896002 255.225788 
L 289.175341 255.225788 
L 292.45468 255.225788 
L 295.734019 255.225788 
L 299.013357 255.225788 
L 302.292696 255.225788 
L 305.572035 255.225788 
L 308.851374 255.225788 
L 312.130713 255.225788 
L 315.410052 255.225788 
L 318.68939 255.225788 
L 321.968729 255.225788 
L 325.248068 255.225788 
L 328.527407 255.225788 
L 331.806746 255.225788 
L 335.086085 255.225788 
L 338.365424 255.225788 
L 341.644762 255.225788 
L 344.924101 255.225788 
L 348.20344 255.225788 
L 351.482779 255.225788 
L 354.762118 255.225788 
L 358.041457 255.225788 
L 361.320795 255.225788 
L 364.600134 255.225788 
L 367.879473 255.225788 
L 371.158812 255.225788 
L 374.438151 255.225788 
L 377.71749 255.225788 
L 380.996829 255.225788 
L 384.276167 255.225788 
L 387.555506 255.225788 
L 390.834845 255.225788 
L 394.114184 255.225788 
L 397.393523 255.225788 
L 397.393523 220.40409 
L 397.393523 220.40409 
L 394.114184 235.044986 
L 390.834845 243.991077 
L 387.555506 249.440157 
L 384.276167 252.87317 
L 380.996829 255.22163 
L 377.71749 257.007322 
L 374.438151 258.457505 
L 371.158812 259.598631 
L 367.879473 260.331294 
L 364.600134 260.488947 
L 361.320795 259.88264 
L 358.041457 258.333881 
L 354.762118 255.697477 
L 351.482779 251.876056 
L 348.20344 246.827779 
L 344.924101 240.568595 
L 341.644762 233.170226 
L 338.365424 224.754938 
L 335.086085 215.488011 
L 331.806746 205.568698 
L 328.527407 195.220341 
L 325.248068 184.680225 
L 321.968729 174.189624 
L 318.68939 163.984427 
L 315.410052 154.286641 
L 312.130713 145.296985 
L 308.851374 137.188748 
L 305.572035 130.102991 
L 302.292696 124.145146 
L 299.013357 119.383016 
L 295.734019 115.846118 
L 292.45468 113.526313 
L 289.175341 112.379599 
L 285.896002 112.328966 
L 282.616663 113.268137 
L 279.337324 115.06607 
L 276.057986 117.572025 
L 272.778647 120.62105 
L 269.499308 124.039697 
L 266.219969 127.651807 
L 262.94063 131.284199 
L 259.661291 134.772112 
L 256.381952 137.964252 
L 253.102614 140.727316 
L 249.823275 142.949893 
L 246.543936 144.545626 
L 243.264597 145.455576 
L 239.985258 145.649724 
L 236.705919 255.195708 
L 233.426581 255.196826 
L 230.147242 140.285039 
L 226.867903 137.981781 
L 223.588564 135.325414 
L 220.309225 132.432035 
L 217.029886 129.428946 
L 213.750548 126.450397 
L 210.471209 123.633051 
L 207.19187 121.111306 
L 203.912531 119.012586 
L 200.633192 117.452738 
L 197.353853 116.531671 
L 194.074514 116.329369 
L 190.795176 116.902412 
L 187.515837 118.281146 
L 184.236498 120.467608 
L 180.957159 123.434342 
L 177.67782 127.124187 
L 174.398481 131.451135 
L 171.119143 136.302312 
L 167.839804 141.54113 
L 164.560465 147.011614 
L 161.281126 152.543879 
L 158.001787 157.960706 
L 154.722448 163.085101 
L 151.44311 167.748698 
L 148.163771 171.800795 
L 144.884432 175.117774 
L 141.605093 177.612565 
L 138.325754 179.243776 
L 135.046415 180.024012 
L 131.767076 180.026847 
L 128.487738 179.391793 
L 125.208399 178.326558 
L 121.92906 177.105747 
L 118.649721 176.065077 
L 115.370382 175.590053 
L 112.091043 176.09792 
L 108.811705 178.011604 
L 105.532366 181.724193 
L 102.253027 187.552361 
L 98.973688 195.677019 
L 95.694349 206.069269 
L 92.41501 218.399611 
L 89.135671 231.928128 
L 85.856333 245.373244 
L 82.576994 256.756387 
L 79.297655 263.219745 
L 76.018316 260.814039 
L 72.738977 244.253049 
z
" clip-path="url(#p99d4e93991)" style="fill: #ff7f0e; fill-opacity: 0.166667"/>
   </g>
   <g id="PolyCollection_3">
    <path d="M 72.738977 255.449711 
L 72.738977 255.225788 
L 76.018316 255.225788 
L 79.297655 255.225788 
L 82.576994 255.225788 
L 85.856333 255.225788 
L 89.135671 255.225788 
L 92.41501 255.225788 
L 95.694349 255.225788 
L 98.973688 255.225788 
L 102.253027 255.225788 
L 105.532366 255.225788 
L 108.811705 255.225788 
L 112.091043 255.225788 
L 115.370382 255.225788 
L 118.649721 255.225788 
L 121.92906 255.225788 
L 125.208399 255.225788 
L 128.487738 255.225788 
L 131.767076 255.225788 
L 135.046415 255.225788 
L 138.325754 255.225788 
L 141.605093 255.225788 
L 144.884432 255.225788 
L 148.163771 255.225788 
L 151.44311 255.225788 
L 154.722448 255.225788 
L 158.001787 255.225788 
L 161.281126 255.225788 
L 164.560465 255.225788 
L 167.839804 255.225788 
L 171.119143 255.225788 
L 174.398481 255.225788 
L 177.67782 255.225788 
L 180.957159 255.225788 
L 184.236498 255.225788 
L 187.515837 255.225788 
L 190.795176 255.225788 
L 194.074514 255.225788 
L 197.353853 255.225788 
L 200.633192 255.225788 
L 203.912531 255.225788 
L 207.19187 255.225788 
L 210.471209 255.225788 
L 213.750548 255.225788 
L 217.029886 255.225788 
L 220.309225 255.225788 
L 223.588564 255.225788 
L 226.867903 255.225788 
L 230.147242 255.225788 
L 233.426581 255.225788 
L 236.705919 255.225788 
L 239.985258 255.225788 
L 243.264597 255.225788 
L 246.543936 255.225788 
L 249.823275 255.225788 
L 253.102614 255.225788 
L 256.381952 255.225788 
L 259.661291 255.225788 
L 262.94063 255.225788 
L 266.219969 255.225788 
L 269.499308 255.225788 
L 272.778647 255.225788 
L 276.057986 255.225788 
L 279.337324 255.225788 
L 282.616663 255.225788 
L 285.896002 255.225788 
L 289.175341 255.225788 
L 292.45468 255.225788 
L 295.734019 255.225788 
L 299.013357 255.225788 
L 302.292696 255.225788 
L 305.572035 255.225788 
L 308.851374 255.225788 
L 312.130713 255.225788 
L 315.410052 255.225788 
L 318.68939 255.225788 
L 321.968729 255.225788 
L 325.248068 255.225788 
L 328.527407 255.225788 
L 331.806746 255.225788 
L 335.086085 255.225788 
L 338.365424 255.225788 
L 341.644762 255.225788 
L 344.924101 255.225788 
L 348.20344 255.225788 
L 351.482779 255.225788 
L 354.762118 255.225788 
L 358.041457 255.225788 
L 361.320795 255.225788 
L 364.600134 255.225788 
L 367.879473 255.225788 
L 371.158812 255.225788 
L 374.438151 255.225788 
L 377.71749 255.225788 
L 380.996829 255.225788 
L 384.276167 255.225788 
L 387.555506 255.225788 
L 390.834845 255.225788 
L 394.114184 255.225788 
L 397.393523 255.225788 
L 397.393523 199.639346 
L 397.393523 199.639346 
L 394.114184 225.115958 
L 390.834845 241.243183 
L 387.555506 250.999708 
L 384.276167 256.547496 
L 380.996829 259.401186 
L 377.71749 260.571777 
L 374.438151 260.687398 
L 371.158812 260.093778 
L 367.879473 258.936794 
L 364.600134 257.229315 
L 361.320795 254.904351 
L 358.041457 251.856362 
L 354.762118 247.97241 
L 351.482779 243.154679 
L 348.20344 237.335743 
L 344.924101 230.487827 
L 341.644762 222.627179 
L 338.365424 213.814536 
L 335.086085 204.152556 
L 331.806746 193.781005 
L 328.527407 182.870346 
L 325.248068 171.614328 
L 321.968729 160.222046 
L 318.68939 148.909905 
L 315.410052 137.893821 
L 312.130713 127.381925 
L 308.851374 117.568 
L 305.572035 108.625798 
L 302.292696 100.704349 
L 299.013357 93.924336 
L 295.734019 88.375559 
L 292.45468 84.115472 
L 289.175341 81.168783 
L 285.896002 79.528022 
L 282.616663 79.155035 
L 279.337324 79.983266 
L 276.057986 81.920756 
L 272.778647 84.853702 
L 269.499308 88.650477 
L 266.219969 93.165969 
L 262.94063 98.246109 
L 259.661291 103.732462 
L 256.381952 109.466761 
L 253.102614 115.295259 
L 249.823275 121.072804 
L 246.543936 126.666523 
L 243.264597 131.95905 
L 239.985258 136.851205 
L 236.705919 255.19665 
L 233.426581 255.197617 
L 230.147242 146.80643 
L 226.867903 149.439954 
L 223.588564 151.586539 
L 220.309225 153.275818 
L 217.029886 154.552441 
L 213.750548 155.473902 
L 210.471209 156.108014 
L 207.19187 156.530102 
L 203.912531 156.819988 
L 200.633192 157.058847 
L 197.353853 157.326024 
L 194.074514 157.695906 
L 190.795176 158.23494 
L 187.515837 158.998887 
L 184.236498 160.030421 
L 180.957159 161.357148 
L 177.67782 162.990142 
L 174.398481 164.923074 
L 171.119143 167.132 
L 167.839804 169.57587 
L 164.560465 172.197797 
L 161.281126 174.927115 
L 158.001787 177.682217 
L 154.722448 180.37417 
L 151.44311 182.911046 
L 148.163771 185.202888 
L 144.884432 187.167222 
L 141.605093 188.734926 
L 138.325754 189.856299 
L 135.046415 190.507073 
L 131.767076 190.694079 
L 128.487738 190.460237 
L 125.208399 189.888451 
L 121.92906 189.103963 
L 118.649721 188.274617 
L 115.370382 187.608435 
L 112.091043 187.34783 
L 108.811705 187.759662 
L 105.532366 189.120321 
L 102.253027 191.694852 
L 98.973688 195.709094 
L 95.694349 201.313677 
L 92.41501 208.538609 
L 89.135671 217.237069 
L 85.856333 227.016911 
L 82.576994 237.158234 
L 79.297655 246.515254 
L 76.018316 253.400562 
L 72.738977 255.449711 
z
" clip-path="url(#p99d4e93991)" style="fill: #2ca02c; fill-opacity: 0.166667"/>
   </g>
   <g id="PolyCollection_4">
    <path d="M 72.738977 275.555725 
L 72.738977 255.225788 
L 76.018316 255.225788 
L 79.297655 255.225788 
L 82.576994 255.225788 
L 85.856333 255.225788 
L 89.135671 255.225788 
L 92.41501 255.225788 
L 95.694349 255.225788 
L 98.973688 255.225788 
L 102.253027 255.225788 
L 105.532366 255.225788 
L 108.811705 255.225788 
L 112.091043 255.225788 
L 115.370382 255.225788 
L 118.649721 255.225788 
L 121.92906 255.225788 
L 125.208399 255.225788 
L 128.487738 255.225788 
L 131.767076 255.225788 
L 135.046415 255.225788 
L 138.325754 255.225788 
L 141.605093 255.225788 
L 144.884432 255.225788 
L 148.163771 255.225788 
L 151.44311 255.225788 
L 154.722448 255.225788 
L 158.001787 255.225788 
L 161.281126 255.225788 
L 164.560465 255.225788 
L 167.839804 255.225788 
L 171.119143 255.225788 
L 174.398481 255.225788 
L 177.67782 255.225788 
L 180.957159 255.225788 
L 184.236498 255.225788 
L 187.515837 255.225788 
L 190.795176 255.225788 
L 194.074514 255.225788 
L 197.353853 255.225788 
L 200.633192 255.225788 
L 203.912531 255.225788 
L 207.19187 255.225788 
L 210.471209 255.225788 
L 213.750548 255.225788 
L 217.029886 255.225788 
L 220.309225 255.225788 
L 223.588564 255.225788 
L 226.867903 255.225788 
L 230.147242 255.225788 
L 233.426581 255.225788 
L 236.705919 255.225788 
L 239.985258 255.225788 
L 243.264597 255.225788 
L 246.543936 255.225788 
L 249.823275 255.225788 
L 253.102614 255.225788 
L 256.381952 255.225788 
L 259.661291 255.225788 
L 262.94063 255.225788 
L 266.219969 255.225788 
L 269.499308 255.225788 
L 272.778647 255.225788 
L 276.057986 255.225788 
L 279.337324 255.225788 
L 282.616663 255.225788 
L 285.896002 255.225788 
L 289.175341 255.225788 
L 292.45468 255.225788 
L 295.734019 255.225788 
L 299.013357 255.225788 
L 302.292696 255.225788 
L 305.572035 255.225788 
L 308.851374 255.225788 
L 312.130713 255.225788 
L 315.410052 255.225788 
L 318.68939 255.225788 
L 321.968729 255.225788 
L 325.248068 255.225788 
L 328.527407 255.225788 
L 331.806746 255.225788 
L 335.086085 255.225788 
L 338.365424 255.225788 
L 341.644762 255.225788 
L 344.924101 255.225788 
L 348.20344 255.225788 
L 351.482779 255.225788 
L 354.762118 255.225788 
L 358.041457 255.225788 
L 361.320795 255.225788 
L 364.600134 255.225788 
L 367.879473 255.225788 
L 371.158812 255.225788 
L 374.438151 255.225788 
L 377.71749 255.225788 
L 380.996829 255.225788 
L 384.276167 255.225788 
L 387.555506 255.225788 
L 390.834845 255.225788 
L 394.114184 255.225788 
L 397.393523 255.225788 
L 397.393523 179.2528 
L 397.393523 179.2528 
L 394.114184 212.3408 
L 390.834845 235.097497 
L 387.555506 249.855534 
L 384.276167 258.546399 
L 380.996829 262.753052 
L 377.71749 263.757285 
L 374.438151 262.582193 
L 371.158812 260.030155 
L 367.879473 256.716658 
L 364.600134 253.100318 
L 361.320795 249.509414 
L 358.041457 246.165221 
L 354.762118 243.20243 
L 351.482779 240.686923 
L 348.20344 238.631136 
L 344.924101 237.007248 
L 341.644762 235.758406 
L 338.365424 234.80819 
L 335.086085 234.0685 
L 331.806746 233.446035 
L 328.527407 232.84753 
L 325.248068 232.183891 
L 321.968729 231.373371 
L 318.68939 230.343897 
L 315.410052 229.034684 
L 312.130713 227.397221 
L 308.851374 225.395727 
L 305.572035 223.007176 
L 302.292696 220.220952 
L 299.013357 217.038213 
L 295.734019 213.471018 
L 292.45468 209.541291 
L 289.175341 205.279645 
L 285.896002 200.72413 
L 282.616663 195.918932 
L 279.337324 190.913058 
L 276.057986 185.759038 
L 272.778647 180.511658 
L 269.499308 175.226751 
L 266.219969 169.960065 
L 262.94063 164.766206 
L 259.661291 159.697679 
L 256.381952 154.804029 
L 253.102614 150.131082 
L 249.823275 145.720297 
L 246.543936 141.608218 
L 243.264597 137.82604 
L 239.985258 134.399269 
L 236.705919 255.20519 
L 233.426581 255.2051 
L 230.147242 124.963103 
L 226.867903 122.687068 
L 223.588564 120.889737 
L 220.309225 119.574007 
L 217.029886 118.733113 
L 213.750548 118.350587 
L 210.471209 118.400431 
L 207.19187 118.847495 
L 203.912531 119.648064 
L 200.633192 120.750657 
L 197.353853 122.09701 
L 194.074514 123.62326 
L 190.795176 125.261288 
L 187.515837 126.940224 
L 184.236498 128.588083 
L 180.957159 130.133509 
L 177.67782 131.507612 
L 174.398481 132.645846 
L 171.119143 133.489933 
L 167.839804 133.98976 
L 164.560465 134.105247 
L 161.281126 133.808131 
L 158.001787 133.083641 
L 154.722448 131.932016 
L 151.44311 130.36984 
L 148.163771 128.43114 
L 144.884432 126.168234 
L 141.605093 123.652265 
L 138.325754 120.973411 
L 135.046415 118.240725 
L 131.767076 115.581581 
L 128.487738 113.140699 
L 125.208399 111.078725 
L 121.92906 109.570354 
L 118.649721 108.801981 
L 115.370382 108.968867 
L 112.091043 110.271842 
L 108.811705 112.913521 
L 105.532366 117.094087 
L 102.253027 123.006636 
L 98.973688 130.832137 
L 95.694349 140.734048 
L 92.41501 152.852653 
L 89.135671 167.299181 
L 85.856333 184.149807 
L 82.576994 203.439615 
L 79.297655 225.156669 
L 76.018316 249.236292 
L 72.738977 275.555725 
z
" clip-path="url(#p99d4e93991)" style="fill: #d62728; fill-opacity: 0.166667"/>
   </g>
   <g id="PolyCollection_5">
    <path d="M 72.738977 254.979508 
L 72.738977 255.225788 
L 76.018316 255.225788 
L 79.297655 255.225788 
L 82.576994 255.225788 
L 85.856333 255.225788 
L 89.135671 255.225788 
L 92.41501 255.225788 
L 95.694349 255.225788 
L 98.973688 255.225788 
L 102.253027 255.225788 
L 105.532366 255.225788 
L 108.811705 255.225788 
L 112.091043 255.225788 
L 115.370382 255.225788 
L 118.649721 255.225788 
L 121.92906 255.225788 
L 125.208399 255.225788 
L 128.487738 255.225788 
L 131.767076 255.225788 
L 135.046415 255.225788 
L 138.325754 255.225788 
L 141.605093 255.225788 
L 144.884432 255.225788 
L 148.163771 255.225788 
L 151.44311 255.225788 
L 154.722448 255.225788 
L 158.001787 255.225788 
L 161.281126 255.225788 
L 164.560465 255.225788 
L 167.839804 255.225788 
L 171.119143 255.225788 
L 174.398481 255.225788 
L 177.67782 255.225788 
L 180.957159 255.225788 
L 184.236498 255.225788 
L 187.515837 255.225788 
L 190.795176 255.225788 
L 194.074514 255.225788 
L 197.353853 255.225788 
L 200.633192 255.225788 
L 203.912531 255.225788 
L 207.19187 255.225788 
L 210.471209 255.225788 
L 213.750548 255.225788 
L 217.029886 255.225788 
L 220.309225 255.225788 
L 223.588564 255.225788 
L 226.867903 255.225788 
L 230.147242 255.225788 
L 233.426581 255.225788 
L 236.705919 255.225788 
L 239.985258 255.225788 
L 243.264597 255.225788 
L 246.543936 255.225788 
L 249.823275 255.225788 
L 253.102614 255.225788 
L 256.381952 255.225788 
L 259.661291 255.225788 
L 262.94063 255.225788 
L 266.219969 255.225788 
L 269.499308 255.225788 
L 272.778647 255.225788 
L 276.057986 255.225788 
L 279.337324 255.225788 
L 282.616663 255.225788 
L 285.896002 255.225788 
L 289.175341 255.225788 
L 292.45468 255.225788 
L 295.734019 255.225788 
L 299.013357 255.225788 
L 302.292696 255.225788 
L 305.572035 255.225788 
L 308.851374 255.225788 
L 312.130713 255.225788 
L 315.410052 255.225788 
L 318.68939 255.225788 
L 321.968729 255.225788 
L 325.248068 255.225788 
L 328.527407 255.225788 
L 331.806746 255.225788 
L 335.086085 255.225788 
L 338.365424 255.225788 
L 341.644762 255.225788 
L 344.924101 255.225788 
L 348.20344 255.225788 
L 351.482779 255.225788 
L 354.762118 255.225788 
L 358.041457 255.225788 
L 361.320795 255.225788 
L 364.600134 255.225788 
L 367.879473 255.225788 
L 371.158812 255.225788 
L 374.438151 255.225788 
L 377.71749 255.225788 
L 380.996829 255.225788 
L 384.276167 255.225788 
L 387.555506 255.225788 
L 390.834845 255.225788 
L 394.114184 255.225788 
L 397.393523 255.225788 
L 397.393523 200.971664 
L 397.393523 200.971664 
L 394.114184 231.48196 
L 390.834845 249.512204 
L 387.555506 258.514578 
L 384.276167 261.191183 
L 380.996829 259.624677 
L 377.71749 255.390893 
L 374.438151 249.655322 
L 371.158812 243.255237 
L 367.879473 236.769066 
L 364.600134 230.574517 
L 361.320795 224.896825 
L 358.041457 219.848355 
L 354.762118 215.460722 
L 351.482779 211.710441 
L 348.20344 208.539058 
L 344.924101 205.86859 
L 341.644762 203.613043 
L 338.365424 201.686665 
L 335.086085 200.009542 
L 331.806746 198.511061 
L 328.527407 197.131685 
L 325.248068 195.823462 
L 321.968729 194.549587 
L 318.68939 193.283322 
L 315.410052 192.006505 
L 312.130713 190.707854 
L 308.851374 189.38123 
L 305.572035 188.023968 
L 302.292696 186.635388 
L 299.013357 185.215537 
L 295.734019 183.764216 
L 292.45468 182.280301 
L 289.175341 180.76136 
L 285.896002 179.203566 
L 282.616663 177.601868 
L 279.337324 175.950379 
L 276.057986 174.242963 
L 272.778647 172.473938 
L 269.499308 170.63888 
L 266.219969 168.735445 
L 262.94063 166.764175 
L 259.661291 164.729237 
L 256.381952 162.639039 
L 253.102614 160.506699 
L 249.823275 158.350309 
L 246.543936 156.192993 
L 243.264597 154.062715 
L 239.985258 151.991839 
L 236.705919 255.206063 
L 233.426581 255.206437 
L 230.147242 145.708674 
L 226.867903 144.220126 
L 223.588564 143.028057 
L 220.309225 142.167783 
L 217.029886 141.667811 
L 213.750548 141.548138 
L 210.471209 141.818637 
L 207.19187 142.477622 
L 203.912531 143.510615 
L 200.633192 144.88942 
L 197.353853 146.571533 
L 194.074514 148.499966 
L 190.795176 150.603537 
L 187.515837 152.797671 
L 184.236498 154.985766 
L 180.957159 157.061144 
L 177.67782 158.909621 
L 174.398481 160.412697 
L 171.119143 161.451358 
L 167.839804 161.910464 
L 164.560465 161.68368 
L 161.281126 160.678866 
L 158.001787 158.823834 
L 154.722448 156.072344 
L 151.44311 152.41017 
L 148.163771 147.861045 
L 144.884432 142.492233 
L 141.605093 136.419462 
L 138.325754 129.810879 
L 135.046415 122.889644 
L 131.767076 115.934744 
L 128.487738 109.279507 
L 125.208399 103.307295 
L 121.92906 98.443723 
L 118.649721 95.14472 
L 115.370382 93.879674 
L 112.091043 95.108786 
L 108.811705 99.253717 
L 105.532366 106.660496 
L 102.253027 117.553556 
L 98.973688 131.979696 
L 95.694349 149.74062 
L 92.41501 170.312631 
L 89.135671 192.751911 
L 85.856333 215.583713 
L 82.576994 236.673667 
L 79.297655 253.079243 
L 76.018316 260.879302 
L 72.738977 254.979508 
z
" clip-path="url(#p99d4e93991)" style="fill: #9467bd; fill-opacity: 0.166667"/>
   </g>
   <g id="PolyCollection_6">
    <path d="M 72.738977 245.794565 
L 72.738977 255.225788 
L 76.018316 255.225788 
L 79.297655 255.225788 
L 82.576993 255.225788 
L 85.856332 255.225788 
L 89.135671 255.225788 
L 92.415009 255.225788 
L 95.694348 255.225788 
L 98.973686 255.225788 
L 102.253025 255.225788 
L 105.532364 255.225788 
L 108.811702 255.225788 
L 112.091041 255.225788 
L 115.37038 255.225788 
L 118.649718 255.225788 
L 121.929057 255.225788 
L 125.208396 255.225788 
L 128.487734 255.225788 
L 131.767073 255.225788 
L 135.046412 255.225788 
L 138.32575 255.225788 
L 141.605089 255.225788 
L 144.884428 255.225788 
L 148.163766 255.225788 
L 151.443105 255.225788 
L 154.722443 255.225788 
L 158.001782 255.225788 
L 161.281121 255.225788 
L 164.560459 255.225788 
L 167.839798 255.225788 
L 171.119137 255.225788 
L 174.398475 255.225788 
L 177.677814 255.225788 
L 180.957153 255.225788 
L 184.236491 255.225788 
L 187.51583 255.225788 
L 190.795169 255.225788 
L 194.074507 255.225788 
L 197.353846 255.225788 
L 200.633185 255.225788 
L 203.912523 255.225788 
L 207.191862 255.225788 
L 210.4712 255.225788 
L 213.750539 255.225788 
L 217.029878 255.225788 
L 220.309216 255.225788 
L 223.588555 255.225788 
L 226.867894 255.225788 
L 230.147232 255.225788 
L 233.426571 255.225788 
L 236.70591 255.225788 
L 239.985248 255.225788 
L 243.264587 255.225788 
L 246.543926 255.225788 
L 249.823264 255.225788 
L 253.102603 255.225788 
L 256.381942 255.225788 
L 259.66128 255.225788 
L 262.940619 255.225788 
L 266.219957 255.225788 
L 269.499296 255.225788 
L 272.778635 255.225788 
L 276.057973 255.225788 
L 279.337312 255.225788 
L 282.616651 255.225788 
L 285.895989 255.225788 
L 289.175328 255.225788 
L 292.454667 255.225788 
L 295.734005 255.225788 
L 299.013344 255.225788 
L 302.292683 255.225788 
L 305.572021 255.225788 
L 308.85136 255.225788 
L 312.130699 255.225788 
L 315.410037 255.225788 
L 318.689376 255.225788 
L 321.968714 255.225788 
L 325.248053 255.225788 
L 328.527392 255.225788 
L 331.80673 255.225788 
L 335.086069 255.225788 
L 338.365408 255.225788 
L 341.644746 255.225788 
L 344.924085 255.225788 
L 348.203424 255.225788 
L 351.482762 255.225788 
L 354.762101 255.225788 
L 358.04144 255.225788 
L 361.320778 255.225788 
L 364.600117 255.225788 
L 367.879456 255.225788 
L 371.158794 255.225788 
L 374.438133 255.225788 
L 377.717471 255.225788 
L 380.99681 255.225788 
L 384.276149 255.225788 
L 387.555487 255.225788 
L 390.834826 255.225788 
L 394.114165 255.225788 
L 397.393503 255.225788 
L 397.393503 244.315864 
L 397.393503 244.315864 
L 394.114165 256.943916 
L 390.834826 261.283853 
L 387.555487 260.914429 
L 384.276149 258.334783 
L 380.99681 255.192857 
L 377.717471 252.479121 
L 374.438133 250.689387 
L 371.158794 249.960206 
L 367.879456 250.180062 
L 364.600117 251.079334 
L 361.320778 252.301751 
L 358.04144 253.459816 
L 354.762101 254.176472 
L 351.482762 254.115073 
L 348.203424 252.999512 
L 344.924085 250.626199 
L 341.644746 246.86937 
L 338.365408 241.68108 
L 335.086069 235.087067 
L 331.80673 227.179516 
L 328.527392 218.107635 
L 325.248053 208.066842 
L 321.968714 197.287201 
L 318.689376 186.0217 
L 315.410037 174.534819 
L 312.130699 163.091768 
L 308.85136 151.948688 
L 305.572021 141.34404 
L 302.292683 131.491334 
L 299.013344 122.573289 
L 295.734005 114.73748 
L 292.454667 108.093452 
L 289.175328 102.71128 
L 285.895989 98.621474 
L 282.616651 95.81615 
L 279.337312 94.251318 
L 276.057973 93.850163 
L 272.778635 94.507137 
L 269.499296 96.092722 
L 266.219957 98.458663 
L 262.940619 101.443528 
L 259.66128 104.878402 
L 256.381942 108.592559 
L 253.102603 112.418959 
L 249.823264 116.19942 
L 246.543926 119.789341 
L 243.264587 123.061852 
L 239.985248 125.911295 
L 236.70591 255.193745 
L 233.426571 255.193819 
L 230.147232 131.313128 
L 226.867894 132.073748 
L 223.588555 132.259554 
L 220.309216 131.913873 
L 217.029878 131.103312 
L 213.750539 129.915017 
L 210.4712 128.453262 
L 207.191862 126.835471 
L 203.912523 125.187793 
L 200.633185 123.640327 
L 197.353846 122.322168 
L 194.074507 121.356397 
L 190.795169 120.855176 
L 187.51583 120.915121 
L 184.236491 121.61309 
L 180.957153 123.002569 
L 177.677814 125.110795 
L 174.398475 127.936771 
L 171.119137 131.45029 
L 167.839798 135.592095 
L 164.560459 140.275251 
L 161.281121 145.387795 
L 158.001782 150.796684 
L 154.722443 156.353032 
L 151.443105 161.89857 
L 148.163766 167.273214 
L 144.884428 172.323577 
L 141.605089 176.91217 
L 138.32575 180.926998 
L 135.046412 184.291144 
L 131.767073 186.971863 
L 128.487734 188.988611 
L 125.208396 190.419317 
L 121.929057 191.404105 
L 118.649718 192.14555 
L 115.37038 192.904399 
L 112.091041 193.98958 
L 108.811702 195.741143 
L 105.532364 198.504623 
L 102.253025 202.595152 
L 98.973686 208.249452 
L 95.694348 215.56365 
L 92.415009 224.41466 
L 89.135671 234.362648 
L 85.856332 244.531866 
L 82.576993 253.466927 
L 79.297655 258.961294 
L 76.018316 257.854529 
L 72.738977 245.794565 
z
" clip-path="url(#p99d4e93991)" style="fill: #8c564b; fill-opacity: 0.166667"/>
   </g>
   <g id="matplotlib.axis_1">
    <g id="xtick_1">
     <g id="line2d_1">
      <defs>
       <path id="mc591f2be58" d="M 0 0 
L 0 3.5 
" style="stroke: #000000; stroke-width: 0.8"/>
      </defs>
      <g>
       <use xlink:href="#mc591f2be58" x="72.738977" y="288.430125" style="stroke: #000000; stroke-width: 0.8"/>
      </g>
     </g>
     <g id="text_1">
      <!-- 0.0 -->
      <g transform="translate(64.787415 303.028562) scale(0.1 -0.1)">
       <defs>
        <path id="DejaVuSans-30" d="M 2034 4250 
Q 1547 4250 1301 3770 
Q 1056 3291 1056 2328 
Q 1056 1369 1301 889 
Q 1547 409 2034 409 
Q 2525 409 2770 889 
Q 3016 1369 3016 2328 
Q 3016 3291 2770 3770 
Q 2525 4250 2034 4250 
z
M 2034 4750 
Q 2819 4750 3233 4129 
Q 3647 3509 3647 2328 
Q 3647 1150 3233 529 
Q 2819 -91 2034 -91 
Q 1250 -91 836 529 
Q 422 1150 422 2328 
Q 422 3509 836 4129 
Q 1250 4750 2034 4750 
z
" transform="scale(0.015625)"/>
        <path id="DejaVuSans-2e" d="M 684 794 
L 1344 794 
L 1344 0 
L 684 0 
L 684 794 
z
" transform="scale(0.015625)"/>
       </defs>
       <use xlink:href="#DejaVuSans-30"/>
       <use xlink:href="#DejaVuSans-2e" x="63.623047"/>
       <use xlink:href="#DejaVuSans-30" x="95.410156"/>
      </g>
     </g>
    </g>
    <g id="xtick_2">
     <g id="line2d_2">
      <g>
       <use xlink:href="#mc591f2be58" x="138.325754" y="288.430125" style="stroke: #000000; stroke-width: 0.8"/>
      </g>
     </g>
     <g id="text_2">
      <!-- 0.2 -->
      <g transform="translate(130.374192 303.028562) scale(0.1 -0.1)">
       <defs>
        <path id="DejaVuSans-32" d="M 1228 531 
L 3431 531 
L 3431 0 
L 469 0 
L 469 531 
Q 828 903 1448 1529 
Q 2069 2156 2228 2338 
Q 2531 2678 2651 2914 
Q 2772 3150 2772 3378 
Q 2772 3750 2511 3984 
Q 2250 4219 1831 4219 
Q 1534 4219 1204 4116 
Q 875 4013 500 3803 
L 500 4441 
Q 881 4594 1212 4672 
Q 1544 4750 1819 4750 
Q 2544 4750 2975 4387 
Q 3406 4025 3406 3419 
Q 3406 3131 3298 2873 
Q 3191 2616 2906 2266 
Q 2828 2175 2409 1742 
Q 1991 1309 1228 531 
z
" transform="scale(0.015625)"/>
       </defs>
       <use xlink:href="#DejaVuSans-30"/>
       <use xlink:href="#DejaVuSans-2e" x="63.623047"/>
       <use xlink:href="#DejaVuSans-32" x="95.410156"/>
      </g>
     </g>
    </g>
    <g id="xtick_3">
     <g id="line2d_3">
      <g>
       <use xlink:href="#mc591f2be58" x="203.912531" y="288.430125" style="stroke: #000000; stroke-width: 0.8"/>
      </g>
     </g>
     <g id="text_3">
      <!-- 0.4 -->
      <g transform="translate(195.960968 303.028562) scale(0.1 -0.1)">
       <defs>
        <path id="DejaVuSans-34" d="M 2419 4116 
L 825 1625 
L 2419 1625 
L 2419 4116 
z
M 2253 4666 
L 3047 4666 
L 3047 1625 
L 3713 1625 
L 3713 1100 
L 3047 1100 
L 3047 0 
L 2419 0 
L 2419 1100 
L 313 1100 
L 313 1709 
L 2253 4666 
z
" transform="scale(0.015625)"/>
       </defs>
       <use xlink:href="#DejaVuSans-30"/>
       <use xlink:href="#DejaVuSans-2e" x="63.623047"/>
       <use xlink:href="#DejaVuSans-34" x="95.410156"/>
      </g>
     </g>
    </g>
    <g id="xtick_4">
     <g id="line2d_4">
      <g>
       <use xlink:href="#mc591f2be58" x="269.499308" y="288.430125" style="stroke: #000000; stroke-width: 0.8"/>
      </g>
     </g>
     <g id="text_4">
      <!-- 0.6 -->
      <g transform="translate(261.547745 303.028562) scale(0.1 -0.1)">
       <defs>
        <path id="DejaVuSans-36" d="M 2113 2584 
Q 1688 2584 1439 2293 
Q 1191 2003 1191 1497 
Q 1191 994 1439 701 
Q 1688 409 2113 409 
Q 2538 409 2786 701 
Q 3034 994 3034 1497 
Q 3034 2003 2786 2293 
Q 2538 2584 2113 2584 
z
M 3366 4563 
L 3366 3988 
Q 3128 4100 2886 4159 
Q 2644 4219 2406 4219 
Q 1781 4219 1451 3797 
Q 1122 3375 1075 2522 
Q 1259 2794 1537 2939 
Q 1816 3084 2150 3084 
Q 2853 3084 3261 2657 
Q 3669 2231 3669 1497 
Q 3669 778 3244 343 
Q 2819 -91 2113 -91 
Q 1303 -91 875 529 
Q 447 1150 447 2328 
Q 447 3434 972 4092 
Q 1497 4750 2381 4750 
Q 2619 4750 2861 4703 
Q 3103 4656 3366 4563 
z
" transform="scale(0.015625)"/>
       </defs>
       <use xlink:href="#DejaVuSans-30"/>
       <use xlink:href="#DejaVuSans-2e" x="63.623047"/>
       <use xlink:href="#DejaVuSans-36" x="95.410156"/>
      </g>
     </g>
    </g>
    <g id="xtick_5">
     <g id="line2d_5">
      <g>
       <use xlink:href="#mc591f2be58" x="335.086085" y="288.430125" style="stroke: #000000; stroke-width: 0.8"/>
      </g>
     </g>
     <g id="text_5">
      <!-- 0.8 -->
      <g transform="translate(327.134522 303.028562) scale(0.1 -0.1)">
       <defs>
        <path id="DejaVuSans-38" d="M 2034 2216 
Q 1584 2216 1326 1975 
Q 1069 1734 1069 1313 
Q 1069 891 1326 650 
Q 1584 409 2034 409 
Q 2484 409 2743 651 
Q 3003 894 3003 1313 
Q 3003 1734 2745 1975 
Q 2488 2216 2034 2216 
z
M 1403 2484 
Q 997 2584 770 2862 
Q 544 3141 544 3541 
Q 544 4100 942 4425 
Q 1341 4750 2034 4750 
Q 2731 4750 3128 4425 
Q 3525 4100 3525 3541 
Q 3525 3141 3298 2862 
Q 3072 2584 2669 2484 
Q 3125 2378 3379 2068 
Q 3634 1759 3634 1313 
Q 3634 634 3220 271 
Q 2806 -91 2034 -91 
Q 1263 -91 848 271 
Q 434 634 434 1313 
Q 434 1759 690 2068 
Q 947 2378 1403 2484 
z
M 1172 3481 
Q 1172 3119 1398 2916 
Q 1625 2713 2034 2713 
Q 2441 2713 2670 2916 
Q 2900 3119 2900 3481 
Q 2900 3844 2670 4047 
Q 2441 4250 2034 4250 
Q 1625 4250 1398 4047 
Q 1172 3844 1172 3481 
z
" transform="scale(0.015625)"/>
       </defs>
       <use xlink:href="#DejaVuSans-30"/>
       <use xlink:href="#DejaVuSans-2e" x="63.623047"/>
       <use xlink:href="#DejaVuSans-38" x="95.410156"/>
      </g>
     </g>
    </g>
    <g id="xtick_6">
     <g id="line2d_6">
      <g>
       <use xlink:href="#mc591f2be58" x="400.672862" y="288.430125" style="stroke: #000000; stroke-width: 0.8"/>
      </g>
     </g>
     <g id="text_6">
      <!-- 1.0 -->
      <g transform="translate(392.721299 303.028562) scale(0.1 -0.1)">
       <defs>
        <path id="DejaVuSans-31" d="M 794 531 
L 1825 531 
L 1825 4091 
L 703 3866 
L 703 4441 
L 1819 4666 
L 2450 4666 
L 2450 531 
L 3481 531 
L 3481 0 
L 794 0 
L 794 531 
z
" transform="scale(0.015625)"/>
       </defs>
       <use xlink:href="#DejaVuSans-31"/>
       <use xlink:href="#DejaVuSans-2e" x="63.623047"/>
       <use xlink:href="#DejaVuSans-30" x="95.410156"/>
      </g>
     </g>
    </g>
    <g id="text_7">
     <!-- Pixel values -->
     <g transform="translate(205.654531 316.706687) scale(0.1 -0.1)">
      <defs>
       <path id="DejaVuSans-50" d="M 1259 4147 
L 1259 2394 
L 2053 2394 
Q 2494 2394 2734 2622 
Q 2975 2850 2975 3272 
Q 2975 3691 2734 3919 
Q 2494 4147 2053 4147 
L 1259 4147 
z
M 628 4666 
L 2053 4666 
Q 2838 4666 3239 4311 
Q 3641 3956 3641 3272 
Q 3641 2581 3239 2228 
Q 2838 1875 2053 1875 
L 1259 1875 
L 1259 0 
L 628 0 
L 628 4666 
z
" transform="scale(0.015625)"/>
       <path id="DejaVuSans-69" d="M 603 3500 
L 1178 3500 
L 1178 0 
L 603 0 
L 603 3500 
z
M 603 4863 
L 1178 4863 
L 1178 4134 
L 603 4134 
L 603 4863 
z
" transform="scale(0.015625)"/>
       <path id="DejaVuSans-78" d="M 3513 3500 
L 2247 1797 
L 3578 0 
L 2900 0 
L 1881 1375 
L 863 0 
L 184 0 
L 1544 1831 
L 300 3500 
L 978 3500 
L 1906 2253 
L 2834 3500 
L 3513 3500 
z
" transform="scale(0.015625)"/>
       <path id="DejaVuSans-65" d="M 3597 1894 
L 3597 1613 
L 953 1613 
Q 991 1019 1311 708 
Q 1631 397 2203 397 
Q 2534 397 2845 478 
Q 3156 559 3463 722 
L 3463 178 
Q 3153 47 2828 -22 
Q 2503 -91 2169 -91 
Q 1331 -91 842 396 
Q 353 884 353 1716 
Q 353 2575 817 3079 
Q 1281 3584 2069 3584 
Q 2775 3584 3186 3129 
Q 3597 2675 3597 1894 
z
M 3022 2063 
Q 3016 2534 2758 2815 
Q 2500 3097 2075 3097 
Q 1594 3097 1305 2825 
Q 1016 2553 972 2059 
L 3022 2063 
z
" transform="scale(0.015625)"/>
       <path id="DejaVuSans-6c" d="M 603 4863 
L 1178 4863 
L 1178 0 
L 603 0 
L 603 4863 
z
" transform="scale(0.015625)"/>
       <path id="DejaVuSans-20" transform="scale(0.015625)"/>
       <path id="DejaVuSans-76" d="M 191 3500 
L 800 3500 
L 1894 563 
L 2988 3500 
L 3597 3500 
L 2284 0 
L 1503 0 
L 191 3500 
z
" transform="scale(0.015625)"/>
       <path id="DejaVuSans-61" d="M 2194 1759 
Q 1497 1759 1228 1600 
Q 959 1441 959 1056 
Q 959 750 1161 570 
Q 1363 391 1709 391 
Q 2188 391 2477 730 
Q 2766 1069 2766 1631 
L 2766 1759 
L 2194 1759 
z
M 3341 1997 
L 3341 0 
L 2766 0 
L 2766 531 
Q 2569 213 2275 61 
Q 1981 -91 1556 -91 
Q 1019 -91 701 211 
Q 384 513 384 1019 
Q 384 1609 779 1909 
Q 1175 2209 1959 2209 
L 2766 2209 
L 2766 2266 
Q 2766 2663 2505 2880 
Q 2244 3097 1772 3097 
Q 1472 3097 1187 3025 
Q 903 2953 641 2809 
L 641 3341 
Q 956 3463 1253 3523 
Q 1550 3584 1831 3584 
Q 2591 3584 2966 3190 
Q 3341 2797 3341 1997 
z
" transform="scale(0.015625)"/>
       <path id="DejaVuSans-75" d="M 544 1381 
L 544 3500 
L 1119 3500 
L 1119 1403 
Q 1119 906 1312 657 
Q 1506 409 1894 409 
Q 2359 409 2629 706 
Q 2900 1003 2900 1516 
L 2900 3500 
L 3475 3500 
L 3475 0 
L 2900 0 
L 2900 538 
Q 2691 219 2414 64 
Q 2138 -91 1772 -91 
Q 1169 -91 856 284 
Q 544 659 544 1381 
z
M 1991 3584 
L 1991 3584 
z
" transform="scale(0.015625)"/>
       <path id="DejaVuSans-73" d="M 2834 3397 
L 2834 2853 
Q 2591 2978 2328 3040 
Q 2066 3103 1784 3103 
Q 1356 3103 1142 2972 
Q 928 2841 928 2578 
Q 928 2378 1081 2264 
Q 1234 2150 1697 2047 
L 1894 2003 
Q 2506 1872 2764 1633 
Q 3022 1394 3022 966 
Q 3022 478 2636 193 
Q 2250 -91 1575 -91 
Q 1294 -91 989 -36 
Q 684 19 347 128 
L 347 722 
Q 666 556 975 473 
Q 1284 391 1588 391 
Q 1994 391 2212 530 
Q 2431 669 2431 922 
Q 2431 1156 2273 1281 
Q 2116 1406 1581 1522 
L 1381 1569 
Q 847 1681 609 1914 
Q 372 2147 372 2553 
Q 372 3047 722 3315 
Q 1072 3584 1716 3584 
Q 2034 3584 2315 3537 
Q 2597 3491 2834 3397 
z
" transform="scale(0.015625)"/>
      </defs>
      <use xlink:href="#DejaVuSans-50"/>
      <use xlink:href="#DejaVuSans-69" x="58.052734"/>
      <use xlink:href="#DejaVuSans-78" x="85.835938"/>
      <use xlink:href="#DejaVuSans-65" x="141.890625"/>
      <use xlink:href="#DejaVuSans-6c" x="203.414062"/>
      <use xlink:href="#DejaVuSans-20" x="231.197266"/>
      <use xlink:href="#DejaVuSans-76" x="262.984375"/>
      <use xlink:href="#DejaVuSans-61" x="322.164062"/>
      <use xlink:href="#DejaVuSans-6c" x="383.443359"/>
      <use xlink:href="#DejaVuSans-75" x="411.226562"/>
      <use xlink:href="#DejaVuSans-65" x="474.605469"/>
      <use xlink:href="#DejaVuSans-73" x="536.128906"/>
     </g>
    </g>
   </g>
   <g id="matplotlib.axis_2">
    <g id="ytick_1">
     <g id="line2d_7">
      <defs>
       <path id="ma5fa2e2922" d="M 0 0 
L -3.5 0 
" style="stroke: #000000; stroke-width: 0.8"/>
      </defs>
      <g>
       <use xlink:href="#ma5fa2e2922" x="56.50625" y="255.225788" style="stroke: #000000; stroke-width: 0.8"/>
      </g>
     </g>
     <g id="text_8">
      <!-- 0.000 -->
      <g transform="translate(20.878125 259.025007) scale(0.1 -0.1)">
       <use xlink:href="#DejaVuSans-30"/>
       <use xlink:href="#DejaVuSans-2e" x="63.623047"/>
       <use xlink:href="#DejaVuSans-30" x="95.410156"/>
       <use xlink:href="#DejaVuSans-30" x="159.033203"/>
       <use xlink:href="#DejaVuSans-30" x="222.65625"/>
      </g>
     </g>
    </g>
    <g id="ytick_2">
     <g id="line2d_8">
      <g>
       <use xlink:href="#ma5fa2e2922" x="56.50625" y="214.486474" style="stroke: #000000; stroke-width: 0.8"/>
      </g>
     </g>
     <g id="text_9">
      <!-- 0.005 -->
      <g transform="translate(20.878125 218.285693) scale(0.1 -0.1)">
       <defs>
        <path id="DejaVuSans-35" d="M 691 4666 
L 3169 4666 
L 3169 4134 
L 1269 4134 
L 1269 2991 
Q 1406 3038 1543 3061 
Q 1681 3084 1819 3084 
Q 2600 3084 3056 2656 
Q 3513 2228 3513 1497 
Q 3513 744 3044 326 
Q 2575 -91 1722 -91 
Q 1428 -91 1123 -41 
Q 819 9 494 109 
L 494 744 
Q 775 591 1075 516 
Q 1375 441 1709 441 
Q 2250 441 2565 725 
Q 2881 1009 2881 1497 
Q 2881 1984 2565 2268 
Q 2250 2553 1709 2553 
Q 1456 2553 1204 2497 
Q 953 2441 691 2322 
L 691 4666 
z
" transform="scale(0.015625)"/>
       </defs>
       <use xlink:href="#DejaVuSans-30"/>
       <use xlink:href="#DejaVuSans-2e" x="63.623047"/>
       <use xlink:href="#DejaVuSans-30" x="95.410156"/>
       <use xlink:href="#DejaVuSans-30" x="159.033203"/>
       <use xlink:href="#DejaVuSans-35" x="222.65625"/>
      </g>
     </g>
    </g>
    <g id="ytick_3">
     <g id="line2d_9">
      <g>
       <use xlink:href="#ma5fa2e2922" x="56.50625" y="173.74716" style="stroke: #000000; stroke-width: 0.8"/>
      </g>
     </g>
     <g id="text_10">
      <!-- 0.010 -->
      <g transform="translate(20.878125 177.546379) scale(0.1 -0.1)">
       <use xlink:href="#DejaVuSans-30"/>
       <use xlink:href="#DejaVuSans-2e" x="63.623047"/>
       <use xlink:href="#DejaVuSans-30" x="95.410156"/>
       <use xlink:href="#DejaVuSans-31" x="159.033203"/>
       <use xlink:href="#DejaVuSans-30" x="222.65625"/>
      </g>
     </g>
    </g>
    <g id="ytick_4">
     <g id="line2d_10">
      <g>
       <use xlink:href="#ma5fa2e2922" x="56.50625" y="133.007847" style="stroke: #000000; stroke-width: 0.8"/>
      </g>
     </g>
     <g id="text_11">
      <!-- 0.015 -->
      <g transform="translate(20.878125 136.807065) scale(0.1 -0.1)">
       <use xlink:href="#DejaVuSans-30"/>
       <use xlink:href="#DejaVuSans-2e" x="63.623047"/>
       <use xlink:href="#DejaVuSans-30" x="95.410156"/>
       <use xlink:href="#DejaVuSans-31" x="159.033203"/>
       <use xlink:href="#DejaVuSans-35" x="222.65625"/>
      </g>
     </g>
    </g>
    <g id="ytick_5">
     <g id="line2d_11">
      <g>
       <use xlink:href="#ma5fa2e2922" x="56.50625" y="92.268533" style="stroke: #000000; stroke-width: 0.8"/>
      </g>
     </g>
     <g id="text_12">
      <!-- 0.020 -->
      <g transform="translate(20.878125 96.067752) scale(0.1 -0.1)">
       <use xlink:href="#DejaVuSans-30"/>
       <use xlink:href="#DejaVuSans-2e" x="63.623047"/>
       <use xlink:href="#DejaVuSans-30" x="95.410156"/>
       <use xlink:href="#DejaVuSans-32" x="159.033203"/>
       <use xlink:href="#DejaVuSans-30" x="222.65625"/>
      </g>
     </g>
    </g>
    <g id="ytick_6">
     <g id="line2d_12">
      <g>
       <use xlink:href="#ma5fa2e2922" x="56.50625" y="51.529219" style="stroke: #000000; stroke-width: 0.8"/>
      </g>
     </g>
     <g id="text_13">
      <!-- 0.025 -->
      <g transform="translate(20.878125 55.328438) scale(0.1 -0.1)">
       <use xlink:href="#DejaVuSans-30"/>
       <use xlink:href="#DejaVuSans-2e" x="63.623047"/>
       <use xlink:href="#DejaVuSans-30" x="95.410156"/>
       <use xlink:href="#DejaVuSans-32" x="159.033203"/>
       <use xlink:href="#DejaVuSans-35" x="222.65625"/>
      </g>
     </g>
    </g>
    <g id="text_14">
     <!-- Frequency -->
     <g transform="translate(14.798437 181.203812) rotate(-90) scale(0.1 -0.1)">
      <defs>
       <path id="DejaVuSans-46" d="M 628 4666 
L 3309 4666 
L 3309 4134 
L 1259 4134 
L 1259 2759 
L 3109 2759 
L 3109 2228 
L 1259 2228 
L 1259 0 
L 628 0 
L 628 4666 
z
" transform="scale(0.015625)"/>
       <path id="DejaVuSans-72" d="M 2631 2963 
Q 2534 3019 2420 3045 
Q 2306 3072 2169 3072 
Q 1681 3072 1420 2755 
Q 1159 2438 1159 1844 
L 1159 0 
L 581 0 
L 581 3500 
L 1159 3500 
L 1159 2956 
Q 1341 3275 1631 3429 
Q 1922 3584 2338 3584 
Q 2397 3584 2469 3576 
Q 2541 3569 2628 3553 
L 2631 2963 
z
" transform="scale(0.015625)"/>
       <path id="DejaVuSans-71" d="M 947 1747 
Q 947 1113 1208 752 
Q 1469 391 1925 391 
Q 2381 391 2643 752 
Q 2906 1113 2906 1747 
Q 2906 2381 2643 2742 
Q 2381 3103 1925 3103 
Q 1469 3103 1208 2742 
Q 947 2381 947 1747 
z
M 2906 525 
Q 2725 213 2448 61 
Q 2172 -91 1784 -91 
Q 1150 -91 751 415 
Q 353 922 353 1747 
Q 353 2572 751 3078 
Q 1150 3584 1784 3584 
Q 2172 3584 2448 3432 
Q 2725 3281 2906 2969 
L 2906 3500 
L 3481 3500 
L 3481 -1331 
L 2906 -1331 
L 2906 525 
z
" transform="scale(0.015625)"/>
       <path id="DejaVuSans-6e" d="M 3513 2113 
L 3513 0 
L 2938 0 
L 2938 2094 
Q 2938 2591 2744 2837 
Q 2550 3084 2163 3084 
Q 1697 3084 1428 2787 
Q 1159 2491 1159 1978 
L 1159 0 
L 581 0 
L 581 3500 
L 1159 3500 
L 1159 2956 
Q 1366 3272 1645 3428 
Q 1925 3584 2291 3584 
Q 2894 3584 3203 3211 
Q 3513 2838 3513 2113 
z
" transform="scale(0.015625)"/>
       <path id="DejaVuSans-63" d="M 3122 3366 
L 3122 2828 
Q 2878 2963 2633 3030 
Q 2388 3097 2138 3097 
Q 1578 3097 1268 2742 
Q 959 2388 959 1747 
Q 959 1106 1268 751 
Q 1578 397 2138 397 
Q 2388 397 2633 464 
Q 2878 531 3122 666 
L 3122 134 
Q 2881 22 2623 -34 
Q 2366 -91 2075 -91 
Q 1284 -91 818 406 
Q 353 903 353 1747 
Q 353 2603 823 3093 
Q 1294 3584 2113 3584 
Q 2378 3584 2631 3529 
Q 2884 3475 3122 3366 
z
" transform="scale(0.015625)"/>
       <path id="DejaVuSans-79" d="M 2059 -325 
Q 1816 -950 1584 -1140 
Q 1353 -1331 966 -1331 
L 506 -1331 
L 506 -850 
L 844 -850 
Q 1081 -850 1212 -737 
Q 1344 -625 1503 -206 
L 1606 56 
L 191 3500 
L 800 3500 
L 1894 763 
L 2988 3500 
L 3597 3500 
L 2059 -325 
z
" transform="scale(0.015625)"/>
      </defs>
      <use xlink:href="#DejaVuSans-46"/>
      <use xlink:href="#DejaVuSans-72" x="50.269531"/>
      <use xlink:href="#DejaVuSans-65" x="89.132812"/>
      <use xlink:href="#DejaVuSans-71" x="150.65625"/>
      <use xlink:href="#DejaVuSans-75" x="214.132812"/>
      <use xlink:href="#DejaVuSans-65" x="277.511719"/>
      <use xlink:href="#DejaVuSans-6e" x="339.035156"/>
      <use xlink:href="#DejaVuSans-63" x="402.414062"/>
      <use xlink:href="#DejaVuSans-79" x="457.394531"/>
     </g>
    </g>
   </g>
   <g id="line2d_13">
    <path d="M 72.738977 276.334125 
L 76.018316 264.160052 
L 79.297655 239.71698 
L 82.576993 208.699918 
L 85.856332 175.366108 
L 89.135671 142.788653 
L 92.415009 113.077045 
L 95.694348 87.567796 
L 98.973686 66.988139 
L 102.253025 51.595575 
L 105.532364 41.295821 
L 108.811702 35.741555 
L 112.091041 34.414125 
L 115.37038 36.690272 
L 118.649718 41.8957 
L 121.929057 49.347211 
L 125.208396 58.384948 
L 128.487734 68.396163 
L 131.767073 78.831796 
L 135.046412 89.217008 
L 138.32575 99.156723 
L 141.605089 108.3371 
L 144.884428 116.523762 
L 148.163766 123.557509 
L 151.443105 129.34817 
L 154.722443 133.867129 
L 158.001782 137.139019 
L 161.281121 139.232987 
L 164.560459 140.253878 
L 167.839798 140.333613 
L 171.119137 139.622984 
L 174.398475 138.284066 
L 177.677814 136.483347 
L 180.957153 134.385698 
L 184.236491 132.14922 
L 187.51583 129.921004 
L 190.795169 127.833798 
L 194.074507 126.00356 
L 197.353846 124.527852 
L 200.633185 123.485007 
L 203.912523 122.934006 
L 207.191862 122.914984 
L 210.4712 123.450252 
L 213.750539 124.545776 
L 217.029878 126.192985 
L 220.309216 128.370832 
L 223.588555 131.048002 
L 226.867894 134.185194 
L 230.147232 137.737375 
L 233.426571 255.206444 
L 236.70591 255.206852 
L 239.985248 149.673035 
L 243.264587 154.064487 
L 246.543926 158.675143 
L 249.823264 163.475825 
L 253.102603 168.439509 
L 256.381942 173.541174 
L 259.66128 178.757402 
L 262.940619 184.065776 
L 266.219957 189.444116 
L 269.499296 194.869604 
L 272.778635 200.317845 
L 276.057973 205.761948 
L 279.337312 211.171666 
L 282.616651 216.512684 
L 285.895989 221.746112 
L 289.175328 226.828252 
L 292.454667 231.710698 
L 295.734005 236.340824 
L 299.013344 240.662704 
L 302.292683 244.618493 
L 305.572021 248.15029 
L 308.85136 251.202467 
L 312.130699 253.724452 
L 315.410037 255.6739 
L 318.689376 257.020175 
L 321.968714 257.748027 
L 325.248053 257.861294 
L 328.527392 257.386445 
L 331.80673 256.375706 
L 335.086069 254.909468 
L 338.365408 253.097624 
L 341.644746 251.079404 
L 344.924085 249.021225 
L 348.203424 247.111988 
L 351.482762 245.555173 
L 354.762101 244.55701 
L 358.04144 244.309887 
L 361.320778 244.970095 
L 364.600117 246.628858 
L 367.879456 249.275522 
L 371.158794 252.751641 
L 374.438133 256.694574 
L 377.717471 260.469072 
L 380.99681 263.08519 
L 384.276149 263.100726 
L 387.555487 258.506205 
L 390.834826 246.590283 
L 394.114165 223.783267 
L 397.393503 185.47625 
" clip-path="url(#p99d4e93991)" style="fill: none; stroke: #1f77b4; stroke-width: 1.5; stroke-linecap: square"/>
   </g>
   <g id="line2d_14">
    <path d="M 72.738977 244.253049 
L 76.018316 260.814039 
L 79.297655 263.219745 
L 82.576994 256.756387 
L 85.856333 245.373244 
L 89.135671 231.928128 
L 92.41501 218.399611 
L 95.694349 206.069269 
L 98.973688 195.677019 
L 102.253027 187.552361 
L 105.532366 181.724193 
L 108.811705 178.011604 
L 112.091043 176.09792 
L 115.370382 175.590053 
L 118.649721 176.065077 
L 121.92906 177.105747 
L 125.208399 178.326558 
L 128.487738 179.391793 
L 131.767076 180.026847 
L 135.046415 180.024012 
L 138.325754 179.243776 
L 141.605093 177.612565 
L 144.884432 175.117774 
L 148.163771 171.800795 
L 151.44311 167.748698 
L 154.722448 163.085101 
L 158.001787 157.960706 
L 161.281126 152.543879 
L 164.560465 147.011614 
L 167.839804 141.54113 
L 171.119143 136.302312 
L 174.398481 131.451135 
L 177.67782 127.124187 
L 180.957159 123.434342 
L 184.236498 120.467608 
L 187.515837 118.281146 
L 190.795176 116.902412 
L 194.074514 116.329369 
L 197.353853 116.531671 
L 200.633192 117.452738 
L 203.912531 119.012586 
L 207.19187 121.111306 
L 210.471209 123.633051 
L 213.750548 126.450397 
L 217.029886 129.428946 
L 220.309225 132.432035 
L 223.588564 135.325414 
L 226.867903 137.981781 
L 230.147242 140.285039 
L 233.426581 255.196826 
L 236.705919 255.195708 
L 239.985258 145.649724 
L 243.264597 145.455576 
L 246.543936 144.545626 
L 249.823275 142.949893 
L 253.102614 140.727316 
L 256.381952 137.964252 
L 259.661291 134.772112 
L 262.94063 131.284199 
L 266.219969 127.651807 
L 269.499308 124.039697 
L 272.778647 120.62105 
L 276.057986 117.572025 
L 279.337324 115.06607 
L 282.616663 113.268137 
L 285.896002 112.328966 
L 289.175341 112.379599 
L 292.45468 113.526313 
L 295.734019 115.846118 
L 299.013357 119.383016 
L 302.292696 124.145146 
L 305.572035 130.102991 
L 308.851374 137.188748 
L 312.130713 145.296985 
L 315.410052 154.286641 
L 318.68939 163.984427 
L 321.968729 174.189624 
L 325.248068 184.680225 
L 328.527407 195.220341 
L 331.806746 205.568698 
L 335.086085 215.488011 
L 338.365424 224.754938 
L 341.644762 233.170226 
L 344.924101 240.568595 
L 348.20344 246.827779 
L 351.482779 251.876056 
L 354.762118 255.697477 
L 358.041457 258.333881 
L 361.320795 259.88264 
L 364.600134 260.488947 
L 367.879473 260.331294 
L 371.158812 259.598631 
L 374.438151 258.457505 
L 377.71749 257.007322 
L 380.996829 255.22163 
L 384.276167 252.87317 
L 387.555506 249.440157 
L 390.834845 243.991077 
L 394.114184 235.044986 
L 397.393523 220.40409 
" clip-path="url(#p99d4e93991)" style="fill: none; stroke: #ff7f0e; stroke-width: 1.5; stroke-linecap: square"/>
   </g>
   <g id="line2d_15">
    <path d="M 72.738977 255.449711 
L 76.018316 253.400562 
L 79.297655 246.515254 
L 82.576994 237.158234 
L 85.856333 227.016911 
L 89.135671 217.237069 
L 92.41501 208.538609 
L 95.694349 201.313677 
L 98.973688 195.709094 
L 102.253027 191.694852 
L 105.532366 189.120321 
L 108.811705 187.759662 
L 112.091043 187.34783 
L 115.370382 187.608435 
L 118.649721 188.274617 
L 121.92906 189.103963 
L 125.208399 189.888451 
L 128.487738 190.460237 
L 131.767076 190.694079 
L 135.046415 190.507073 
L 138.325754 189.856299 
L 141.605093 188.734926 
L 144.884432 187.167222 
L 148.163771 185.202888 
L 151.44311 182.911046 
L 154.722448 180.37417 
L 158.001787 177.682217 
L 161.281126 174.927115 
L 164.560465 172.197797 
L 167.839804 169.57587 
L 171.119143 167.132 
L 174.398481 164.923074 
L 177.67782 162.990142 
L 180.957159 161.357148 
L 184.236498 160.030421 
L 187.515837 158.998887 
L 190.795176 158.23494 
L 194.074514 157.695906 
L 197.353853 157.326024 
L 200.633192 157.058847 
L 203.912531 156.819988 
L 207.19187 156.530102 
L 210.471209 156.108014 
L 213.750548 155.473902 
L 217.029886 154.552441 
L 220.309225 153.275818 
L 223.588564 151.586539 
L 226.867903 149.439954 
L 230.147242 146.80643 
L 233.426581 255.197617 
L 236.705919 255.19665 
L 239.985258 136.851205 
L 243.264597 131.95905 
L 246.543936 126.666523 
L 249.823275 121.072804 
L 253.102614 115.295259 
L 256.381952 109.466761 
L 259.661291 103.732462 
L 262.94063 98.246109 
L 266.219969 93.165969 
L 269.499308 88.650477 
L 272.778647 84.853702 
L 276.057986 81.920756 
L 279.337324 79.983266 
L 282.616663 79.155035 
L 285.896002 79.528022 
L 289.175341 81.168783 
L 292.45468 84.115472 
L 295.734019 88.375559 
L 299.013357 93.924336 
L 302.292696 100.704349 
L 305.572035 108.625798 
L 308.851374 117.568 
L 312.130713 127.381925 
L 315.410052 137.893821 
L 318.68939 148.909905 
L 321.968729 160.222046 
L 325.248068 171.614328 
L 328.527407 182.870346 
L 331.806746 193.781005 
L 335.086085 204.152556 
L 338.365424 213.814536 
L 341.644762 222.627179 
L 344.924101 230.487827 
L 348.20344 237.335743 
L 351.482779 243.154679 
L 354.762118 247.97241 
L 358.041457 251.856362 
L 361.320795 254.904351 
L 364.600134 257.229315 
L 367.879473 258.936794 
L 371.158812 260.093778 
L 374.438151 260.687398 
L 377.71749 260.571777 
L 380.996829 259.401186 
L 384.276167 256.547496 
L 387.555506 250.999708 
L 390.834845 241.243183 
L 394.114184 225.115958 
L 397.393523 199.639346 
" clip-path="url(#p99d4e93991)" style="fill: none; stroke: #2ca02c; stroke-width: 1.5; stroke-linecap: square"/>
   </g>
   <g id="line2d_16">
    <path d="M 72.738977 275.555725 
L 76.018316 249.236292 
L 79.297655 225.156669 
L 82.576994 203.439615 
L 85.856333 184.149807 
L 89.135671 167.299181 
L 92.41501 152.852653 
L 95.694349 140.734048 
L 98.973688 130.832137 
L 102.253027 123.006636 
L 105.532366 117.094087 
L 108.811705 112.913521 
L 112.091043 110.271842 
L 115.370382 108.968867 
L 118.649721 108.801981 
L 121.92906 109.570354 
L 125.208399 111.078725 
L 128.487738 113.140699 
L 131.767076 115.581581 
L 135.046415 118.240725 
L 138.325754 120.973411 
L 141.605093 123.652265 
L 144.884432 126.168234 
L 148.163771 128.43114 
L 151.44311 130.36984 
L 154.722448 131.932016 
L 158.001787 133.083641 
L 161.281126 133.808131 
L 164.560465 134.105247 
L 167.839804 133.98976 
L 171.119143 133.489933 
L 174.398481 132.645846 
L 177.67782 131.507612 
L 180.957159 130.133509 
L 184.236498 128.588083 
L 187.515837 126.940224 
L 190.795176 125.261288 
L 194.074514 123.62326 
L 197.353853 122.09701 
L 200.633192 120.750657 
L 203.912531 119.648064 
L 207.19187 118.847495 
L 210.471209 118.400431 
L 213.750548 118.350587 
L 217.029886 118.733113 
L 220.309225 119.574007 
L 223.588564 120.889737 
L 226.867903 122.687068 
L 230.147242 124.963103 
L 233.426581 255.2051 
L 236.705919 255.20519 
L 239.985258 134.399269 
L 243.264597 137.82604 
L 246.543936 141.608218 
L 249.823275 145.720297 
L 253.102614 150.131082 
L 256.381952 154.804029 
L 259.661291 159.697679 
L 262.94063 164.766206 
L 266.219969 169.960065 
L 269.499308 175.226751 
L 272.778647 180.511658 
L 276.057986 185.759038 
L 279.337324 190.913058 
L 282.616663 195.918932 
L 285.896002 200.72413 
L 289.175341 205.279645 
L 292.45468 209.541291 
L 295.734019 213.471018 
L 299.013357 217.038213 
L 302.292696 220.220952 
L 305.572035 223.007176 
L 308.851374 225.395727 
L 312.130713 227.397221 
L 315.410052 229.034684 
L 318.68939 230.343897 
L 321.968729 231.373371 
L 325.248068 232.183891 
L 328.527407 232.84753 
L 331.806746 233.446035 
L 335.086085 234.0685 
L 338.365424 234.80819 
L 341.644762 235.758406 
L 344.924101 237.007248 
L 348.20344 238.631136 
L 351.482779 240.686923 
L 354.762118 243.20243 
L 358.041457 246.165221 
L 361.320795 249.509414 
L 364.600134 253.100318 
L 367.879473 256.716658 
L 371.158812 260.030155 
L 374.438151 262.582193 
L 377.71749 263.757285 
L 380.996829 262.753052 
L 384.276167 258.546399 
L 387.555506 249.855534 
L 390.834845 235.097497 
L 394.114184 212.3408 
L 397.393523 179.2528 
" clip-path="url(#p99d4e93991)" style="fill: none; stroke: #d62728; stroke-width: 1.5; stroke-linecap: square"/>
   </g>
   <g id="line2d_17">
    <path d="M 72.738977 254.979508 
L 76.018316 260.879302 
L 79.297655 253.079243 
L 82.576994 236.673667 
L 85.856333 215.583713 
L 89.135671 192.751911 
L 92.41501 170.312631 
L 95.694349 149.74062 
L 98.973688 131.979696 
L 102.253027 117.553556 
L 105.532366 106.660496 
L 108.811705 99.253717 
L 112.091043 95.108786 
L 115.370382 93.879674 
L 118.649721 95.14472 
L 121.92906 98.443723 
L 125.208399 103.307295 
L 128.487738 109.279507 
L 131.767076 115.934744 
L 135.046415 122.889644 
L 138.325754 129.810879 
L 141.605093 136.419462 
L 144.884432 142.492233 
L 148.163771 147.861045 
L 151.44311 152.41017 
L 154.722448 156.072344 
L 158.001787 158.823834 
L 161.281126 160.678866 
L 164.560465 161.68368 
L 167.839804 161.910464 
L 171.119143 161.451358 
L 174.398481 160.412697 
L 177.67782 158.909621 
L 180.957159 157.061144 
L 184.236498 154.985766 
L 187.515837 152.797671 
L 190.795176 150.603537 
L 194.074514 148.499966 
L 197.353853 146.571533 
L 200.633192 144.88942 
L 203.912531 143.510615 
L 207.19187 142.477622 
L 210.471209 141.818637 
L 213.750548 141.548138 
L 217.029886 141.667811 
L 220.309225 142.167783 
L 223.588564 143.028057 
L 226.867903 144.220126 
L 230.147242 145.708674 
L 233.426581 255.206437 
L 236.705919 255.206063 
L 239.985258 151.991839 
L 243.264597 154.062715 
L 246.543936 156.192993 
L 249.823275 158.350309 
L 253.102614 160.506699 
L 256.381952 162.639039 
L 259.661291 164.729237 
L 262.94063 166.764175 
L 266.219969 168.735445 
L 269.499308 170.63888 
L 272.778647 172.473938 
L 276.057986 174.242963 
L 279.337324 175.950379 
L 282.616663 177.601868 
L 285.896002 179.203566 
L 289.175341 180.76136 
L 292.45468 182.280301 
L 295.734019 183.764216 
L 299.013357 185.215537 
L 302.292696 186.635388 
L 305.572035 188.023968 
L 308.851374 189.38123 
L 312.130713 190.707854 
L 315.410052 192.006505 
L 318.68939 193.283322 
L 321.968729 194.549587 
L 325.248068 195.823462 
L 328.527407 197.131685 
L 331.806746 198.511061 
L 335.086085 200.009542 
L 338.365424 201.686665 
L 341.644762 203.613043 
L 344.924101 205.86859 
L 348.20344 208.539058 
L 351.482779 211.710441 
L 354.762118 215.460722 
L 358.041457 219.848355 
L 361.320795 224.896825 
L 364.600134 230.574517 
L 367.879473 236.769066 
L 371.158812 243.255237 
L 374.438151 249.655322 
L 377.71749 255.390893 
L 380.996829 259.624677 
L 384.276167 261.191183 
L 387.555506 258.514578 
L 390.834845 249.512204 
L 394.114184 231.48196 
L 397.393523 200.971664 
" clip-path="url(#p99d4e93991)" style="fill: none; stroke: #9467bd; stroke-width: 1.5; stroke-linecap: square"/>
   </g>
   <g id="line2d_18">
    <path d="M 72.738977 245.794565 
L 76.018316 257.854529 
L 79.297655 258.961294 
L 82.576993 253.466927 
L 85.856332 244.531866 
L 89.135671 234.362648 
L 92.415009 224.41466 
L 95.694348 215.56365 
L 98.973686 208.249452 
L 102.253025 202.595152 
L 105.532364 198.504623 
L 108.811702 195.741143 
L 112.091041 193.98958 
L 115.37038 192.904399 
L 118.649718 192.14555 
L 121.929057 191.404105 
L 125.208396 190.419317 
L 128.487734 188.988611 
L 131.767073 186.971863 
L 135.046412 184.291144 
L 138.32575 180.926998 
L 141.605089 176.91217 
L 144.884428 172.323577 
L 148.163766 167.273214 
L 151.443105 161.89857 
L 154.722443 156.353032 
L 158.001782 150.796684 
L 161.281121 145.387795 
L 164.560459 140.275251 
L 167.839798 135.592095 
L 171.119137 131.45029 
L 174.398475 127.936771 
L 177.677814 125.110795 
L 180.957153 123.002569 
L 184.236491 121.61309 
L 187.51583 120.915121 
L 190.795169 120.855176 
L 194.074507 121.356397 
L 197.353846 122.322168 
L 200.633185 123.640327 
L 203.912523 125.187793 
L 207.191862 126.835471 
L 210.4712 128.453262 
L 213.750539 129.915017 
L 217.029878 131.103312 
L 220.309216 131.913873 
L 223.588555 132.259554 
L 226.867894 132.073748 
L 230.147232 131.313128 
L 233.426571 255.193819 
L 236.70591 255.193745 
L 239.985248 125.911295 
L 243.264587 123.061852 
L 246.543926 119.789341 
L 249.823264 116.19942 
L 253.102603 112.418959 
L 256.381942 108.592559 
L 259.66128 104.878402 
L 262.940619 101.443528 
L 266.219957 98.458663 
L 269.499296 96.092722 
L 272.778635 94.507137 
L 276.057973 93.850163 
L 279.337312 94.251318 
L 282.616651 95.81615 
L 285.895989 98.621474 
L 289.175328 102.71128 
L 292.454667 108.093452 
L 295.734005 114.73748 
L 299.013344 122.573289 
L 302.292683 131.491334 
L 305.572021 141.34404 
L 308.85136 151.948688 
L 312.130699 163.091768 
L 315.410037 174.534819 
L 318.689376 186.0217 
L 321.968714 197.287201 
L 325.248053 208.066842 
L 328.527392 218.107635 
L 331.80673 227.179516 
L 335.086069 235.087067 
L 338.365408 241.68108 
L 341.644746 246.86937 
L 344.924085 250.626199 
L 348.203424 252.999512 
L 351.482762 254.115073 
L 354.762101 254.176472 
L 358.04144 253.459816 
L 361.320778 252.301751 
L 364.600117 251.079334 
L 367.879456 250.180062 
L 371.158794 249.960206 
L 374.438133 250.689387 
L 377.717471 252.479121 
L 380.99681 255.192857 
L 384.276149 258.334783 
L 387.555487 260.914429 
L 390.834826 261.283853 
L 394.114165 256.943916 
L 397.393503 244.315864 
" clip-path="url(#p99d4e93991)" style="fill: none; stroke: #8c564b; stroke-width: 1.5; stroke-linecap: square"/>
   </g>
   <g id="patch_3">
    <path d="M 56.50625 288.430125 
L 56.50625 22.318125 
" style="fill: none; stroke: #000000; stroke-width: 0.8; stroke-linejoin: miter; stroke-linecap: square"/>
   </g>
   <g id="patch_4">
    <path d="M 413.62625 288.430125 
L 413.62625 22.318125 
" style="fill: none; stroke: #000000; stroke-width: 0.8; stroke-linejoin: miter; stroke-linecap: square"/>
   </g>
   <g id="patch_5">
    <path d="M 56.50625 288.430125 
L 413.62625 288.430125 
" style="fill: none; stroke: #000000; stroke-width: 0.8; stroke-linejoin: miter; stroke-linecap: square"/>
   </g>
   <g id="patch_6">
    <path d="M 56.50625 22.318125 
L 413.62625 22.318125 
" style="fill: none; stroke: #000000; stroke-width: 0.8; stroke-linejoin: miter; stroke-linecap: square"/>
   </g>
   <g id="text_15">
    <!-- FA - xtract_prob_Superior_Thalamic_Radiation_R -->
    <g transform="translate(90.553438 16.318125) scale(0.12 -0.12)">
     <defs>
      <path id="DejaVuSans-41" d="M 2188 4044 
L 1331 1722 
L 3047 1722 
L 2188 4044 
z
M 1831 4666 
L 2547 4666 
L 4325 0 
L 3669 0 
L 3244 1197 
L 1141 1197 
L 716 0 
L 50 0 
L 1831 4666 
z
" transform="scale(0.015625)"/>
      <path id="DejaVuSans-2d" d="M 313 2009 
L 1997 2009 
L 1997 1497 
L 313 1497 
L 313 2009 
z
" transform="scale(0.015625)"/>
      <path id="DejaVuSans-74" d="M 1172 4494 
L 1172 3500 
L 2356 3500 
L 2356 3053 
L 1172 3053 
L 1172 1153 
Q 1172 725 1289 603 
Q 1406 481 1766 481 
L 2356 481 
L 2356 0 
L 1766 0 
Q 1100 0 847 248 
Q 594 497 594 1153 
L 594 3053 
L 172 3053 
L 172 3500 
L 594 3500 
L 594 4494 
L 1172 4494 
z
" transform="scale(0.015625)"/>
      <path id="DejaVuSans-5f" d="M 3263 -1063 
L 3263 -1509 
L -63 -1509 
L -63 -1063 
L 3263 -1063 
z
" transform="scale(0.015625)"/>
      <path id="DejaVuSans-70" d="M 1159 525 
L 1159 -1331 
L 581 -1331 
L 581 3500 
L 1159 3500 
L 1159 2969 
Q 1341 3281 1617 3432 
Q 1894 3584 2278 3584 
Q 2916 3584 3314 3078 
Q 3713 2572 3713 1747 
Q 3713 922 3314 415 
Q 2916 -91 2278 -91 
Q 1894 -91 1617 61 
Q 1341 213 1159 525 
z
M 3116 1747 
Q 3116 2381 2855 2742 
Q 2594 3103 2138 3103 
Q 1681 3103 1420 2742 
Q 1159 2381 1159 1747 
Q 1159 1113 1420 752 
Q 1681 391 2138 391 
Q 2594 391 2855 752 
Q 3116 1113 3116 1747 
z
" transform="scale(0.015625)"/>
      <path id="DejaVuSans-6f" d="M 1959 3097 
Q 1497 3097 1228 2736 
Q 959 2375 959 1747 
Q 959 1119 1226 758 
Q 1494 397 1959 397 
Q 2419 397 2687 759 
Q 2956 1122 2956 1747 
Q 2956 2369 2687 2733 
Q 2419 3097 1959 3097 
z
M 1959 3584 
Q 2709 3584 3137 3096 
Q 3566 2609 3566 1747 
Q 3566 888 3137 398 
Q 2709 -91 1959 -91 
Q 1206 -91 779 398 
Q 353 888 353 1747 
Q 353 2609 779 3096 
Q 1206 3584 1959 3584 
z
" transform="scale(0.015625)"/>
      <path id="DejaVuSans-62" d="M 3116 1747 
Q 3116 2381 2855 2742 
Q 2594 3103 2138 3103 
Q 1681 3103 1420 2742 
Q 1159 2381 1159 1747 
Q 1159 1113 1420 752 
Q 1681 391 2138 391 
Q 2594 391 2855 752 
Q 3116 1113 3116 1747 
z
M 1159 2969 
Q 1341 3281 1617 3432 
Q 1894 3584 2278 3584 
Q 2916 3584 3314 3078 
Q 3713 2572 3713 1747 
Q 3713 922 3314 415 
Q 2916 -91 2278 -91 
Q 1894 -91 1617 61 
Q 1341 213 1159 525 
L 1159 0 
L 581 0 
L 581 4863 
L 1159 4863 
L 1159 2969 
z
" transform="scale(0.015625)"/>
      <path id="DejaVuSans-53" d="M 3425 4513 
L 3425 3897 
Q 3066 4069 2747 4153 
Q 2428 4238 2131 4238 
Q 1616 4238 1336 4038 
Q 1056 3838 1056 3469 
Q 1056 3159 1242 3001 
Q 1428 2844 1947 2747 
L 2328 2669 
Q 3034 2534 3370 2195 
Q 3706 1856 3706 1288 
Q 3706 609 3251 259 
Q 2797 -91 1919 -91 
Q 1588 -91 1214 -16 
Q 841 59 441 206 
L 441 856 
Q 825 641 1194 531 
Q 1563 422 1919 422 
Q 2459 422 2753 634 
Q 3047 847 3047 1241 
Q 3047 1584 2836 1778 
Q 2625 1972 2144 2069 
L 1759 2144 
Q 1053 2284 737 2584 
Q 422 2884 422 3419 
Q 422 4038 858 4394 
Q 1294 4750 2059 4750 
Q 2388 4750 2728 4690 
Q 3069 4631 3425 4513 
z
" transform="scale(0.015625)"/>
      <path id="DejaVuSans-54" d="M -19 4666 
L 3928 4666 
L 3928 4134 
L 2272 4134 
L 2272 0 
L 1638 0 
L 1638 4134 
L -19 4134 
L -19 4666 
z
" transform="scale(0.015625)"/>
      <path id="DejaVuSans-68" d="M 3513 2113 
L 3513 0 
L 2938 0 
L 2938 2094 
Q 2938 2591 2744 2837 
Q 2550 3084 2163 3084 
Q 1697 3084 1428 2787 
Q 1159 2491 1159 1978 
L 1159 0 
L 581 0 
L 581 4863 
L 1159 4863 
L 1159 2956 
Q 1366 3272 1645 3428 
Q 1925 3584 2291 3584 
Q 2894 3584 3203 3211 
Q 3513 2838 3513 2113 
z
" transform="scale(0.015625)"/>
      <path id="DejaVuSans-6d" d="M 3328 2828 
Q 3544 3216 3844 3400 
Q 4144 3584 4550 3584 
Q 5097 3584 5394 3201 
Q 5691 2819 5691 2113 
L 5691 0 
L 5113 0 
L 5113 2094 
Q 5113 2597 4934 2840 
Q 4756 3084 4391 3084 
Q 3944 3084 3684 2787 
Q 3425 2491 3425 1978 
L 3425 0 
L 2847 0 
L 2847 2094 
Q 2847 2600 2669 2842 
Q 2491 3084 2119 3084 
Q 1678 3084 1418 2786 
Q 1159 2488 1159 1978 
L 1159 0 
L 581 0 
L 581 3500 
L 1159 3500 
L 1159 2956 
Q 1356 3278 1631 3431 
Q 1906 3584 2284 3584 
Q 2666 3584 2933 3390 
Q 3200 3197 3328 2828 
z
" transform="scale(0.015625)"/>
      <path id="DejaVuSans-52" d="M 2841 2188 
Q 3044 2119 3236 1894 
Q 3428 1669 3622 1275 
L 4263 0 
L 3584 0 
L 2988 1197 
Q 2756 1666 2539 1819 
Q 2322 1972 1947 1972 
L 1259 1972 
L 1259 0 
L 628 0 
L 628 4666 
L 2053 4666 
Q 2853 4666 3247 4331 
Q 3641 3997 3641 3322 
Q 3641 2881 3436 2590 
Q 3231 2300 2841 2188 
z
M 1259 4147 
L 1259 2491 
L 2053 2491 
Q 2509 2491 2742 2702 
Q 2975 2913 2975 3322 
Q 2975 3731 2742 3939 
Q 2509 4147 2053 4147 
L 1259 4147 
z
" transform="scale(0.015625)"/>
      <path id="DejaVuSans-64" d="M 2906 2969 
L 2906 4863 
L 3481 4863 
L 3481 0 
L 2906 0 
L 2906 525 
Q 2725 213 2448 61 
Q 2172 -91 1784 -91 
Q 1150 -91 751 415 
Q 353 922 353 1747 
Q 353 2572 751 3078 
Q 1150 3584 1784 3584 
Q 2172 3584 2448 3432 
Q 2725 3281 2906 2969 
z
M 947 1747 
Q 947 1113 1208 752 
Q 1469 391 1925 391 
Q 2381 391 2643 752 
Q 2906 1113 2906 1747 
Q 2906 2381 2643 2742 
Q 2381 3103 1925 3103 
Q 1469 3103 1208 2742 
Q 947 2381 947 1747 
z
" transform="scale(0.015625)"/>
     </defs>
     <use xlink:href="#DejaVuSans-46"/>
     <use xlink:href="#DejaVuSans-41" x="48.394531"/>
     <use xlink:href="#DejaVuSans-20" x="116.802734"/>
     <use xlink:href="#DejaVuSans-2d" x="148.589844"/>
     <use xlink:href="#DejaVuSans-20" x="184.673828"/>
     <use xlink:href="#DejaVuSans-78" x="216.460938"/>
     <use xlink:href="#DejaVuSans-74" x="275.640625"/>
     <use xlink:href="#DejaVuSans-72" x="314.849609"/>
     <use xlink:href="#DejaVuSans-61" x="355.962891"/>
     <use xlink:href="#DejaVuSans-63" x="417.242188"/>
     <use xlink:href="#DejaVuSans-74" x="472.222656"/>
     <use xlink:href="#DejaVuSans-5f" x="511.431641"/>
     <use xlink:href="#DejaVuSans-70" x="561.431641"/>
     <use xlink:href="#DejaVuSans-72" x="624.908203"/>
     <use xlink:href="#DejaVuSans-6f" x="663.771484"/>
     <use xlink:href="#DejaVuSans-62" x="724.953125"/>
     <use xlink:href="#DejaVuSans-5f" x="788.429688"/>
     <use xlink:href="#DejaVuSans-53" x="838.429688"/>
     <use xlink:href="#DejaVuSans-75" x="901.90625"/>
     <use xlink:href="#DejaVuSans-70" x="965.285156"/>
     <use xlink:href="#DejaVuSans-65" x="1028.761719"/>
     <use xlink:href="#DejaVuSans-72" x="1090.285156"/>
     <use xlink:href="#DejaVuSans-69" x="1131.398438"/>
     <use xlink:href="#DejaVuSans-6f" x="1159.181641"/>
     <use xlink:href="#DejaVuSans-72" x="1220.363281"/>
     <use xlink:href="#DejaVuSans-5f" x="1261.476562"/>
     <use xlink:href="#DejaVuSans-54" x="1311.476562"/>
     <use xlink:href="#DejaVuSans-68" x="1372.560547"/>
     <use xlink:href="#DejaVuSans-61" x="1435.939453"/>
     <use xlink:href="#DejaVuSans-6c" x="1497.21875"/>
     <use xlink:href="#DejaVuSans-61" x="1525.001953"/>
     <use xlink:href="#DejaVuSans-6d" x="1586.28125"/>
     <use xlink:href="#DejaVuSans-69" x="1683.693359"/>
     <use xlink:href="#DejaVuSans-63" x="1711.476562"/>
     <use xlink:href="#DejaVuSans-5f" x="1766.457031"/>
     <use xlink:href="#DejaVuSans-52" x="1816.457031"/>
     <use xlink:href="#DejaVuSans-61" x="1883.689453"/>
     <use xlink:href="#DejaVuSans-64" x="1944.96875"/>
     <use xlink:href="#DejaVuSans-69" x="2008.445312"/>
     <use xlink:href="#DejaVuSans-61" x="2036.228516"/>
     <use xlink:href="#DejaVuSans-74" x="2097.507812"/>
     <use xlink:href="#DejaVuSans-69" x="2136.716797"/>
     <use xlink:href="#DejaVuSans-6f" x="2164.5"/>
     <use xlink:href="#DejaVuSans-6e" x="2225.681641"/>
     <use xlink:href="#DejaVuSans-5f" x="2289.060547"/>
     <use xlink:href="#DejaVuSans-52" x="2339.060547"/>
    </g>
   </g>
   <g id="legend_1">
    <g id="patch_7">
     <path d="M 456.33825 146.666825 
L 554.1945 146.666825 
Q 556.1945 146.666825 556.1945 144.666825 
L 556.1945 55.929325 
Q 556.1945 53.929325 554.1945 53.929325 
L 456.33825 53.929325 
Q 454.33825 53.929325 454.33825 55.929325 
L 454.33825 144.666825 
Q 454.33825 146.666825 456.33825 146.666825 
z
" style="fill: #ffffff; opacity: 0.8; stroke: #cccccc; stroke-linejoin: miter"/>
    </g>
    <g id="line2d_19">
     <path d="M 458.33825 62.027762 
L 468.33825 62.027762 
L 478.33825 62.027762 
" style="fill: none; stroke: #1f77b4; stroke-width: 1.5; stroke-linecap: square"/>
    </g>
    <g id="text_16">
     <!-- 20_06_02_E3 -->
     <g transform="translate(486.33825 65.527762) scale(0.1 -0.1)">
      <defs>
       <path id="DejaVuSans-45" d="M 628 4666 
L 3578 4666 
L 3578 4134 
L 1259 4134 
L 1259 2753 
L 3481 2753 
L 3481 2222 
L 1259 2222 
L 1259 531 
L 3634 531 
L 3634 0 
L 628 0 
L 628 4666 
z
" transform="scale(0.015625)"/>
       <path id="DejaVuSans-33" d="M 2597 2516 
Q 3050 2419 3304 2112 
Q 3559 1806 3559 1356 
Q 3559 666 3084 287 
Q 2609 -91 1734 -91 
Q 1441 -91 1130 -33 
Q 819 25 488 141 
L 488 750 
Q 750 597 1062 519 
Q 1375 441 1716 441 
Q 2309 441 2620 675 
Q 2931 909 2931 1356 
Q 2931 1769 2642 2001 
Q 2353 2234 1838 2234 
L 1294 2234 
L 1294 2753 
L 1863 2753 
Q 2328 2753 2575 2939 
Q 2822 3125 2822 3475 
Q 2822 3834 2567 4026 
Q 2313 4219 1838 4219 
Q 1578 4219 1281 4162 
Q 984 4106 628 3988 
L 628 4550 
Q 988 4650 1302 4700 
Q 1616 4750 1894 4750 
Q 2613 4750 3031 4423 
Q 3450 4097 3450 3541 
Q 3450 3153 3228 2886 
Q 3006 2619 2597 2516 
z
" transform="scale(0.015625)"/>
      </defs>
      <use xlink:href="#DejaVuSans-32"/>
      <use xlink:href="#DejaVuSans-30" x="63.623047"/>
      <use xlink:href="#DejaVuSans-5f" x="127.246094"/>
      <use xlink:href="#DejaVuSans-30" x="177.246094"/>
      <use xlink:href="#DejaVuSans-36" x="240.869141"/>
      <use xlink:href="#DejaVuSans-5f" x="304.492188"/>
      <use xlink:href="#DejaVuSans-30" x="354.492188"/>
      <use xlink:href="#DejaVuSans-32" x="418.115234"/>
      <use xlink:href="#DejaVuSans-5f" x="481.738281"/>
      <use xlink:href="#DejaVuSans-45" x="531.738281"/>
      <use xlink:href="#DejaVuSans-33" x="594.921875"/>
     </g>
    </g>
    <g id="line2d_20">
     <path d="M 458.33825 76.984013 
L 468.33825 76.984013 
L 478.33825 76.984013 
" style="fill: none; stroke: #ff7f0e; stroke-width: 1.5; stroke-linecap: square"/>
    </g>
    <g id="text_17">
     <!-- 20_05_01_E3 -->
     <g transform="translate(486.33825 80.484013) scale(0.1 -0.1)">
      <use xlink:href="#DejaVuSans-32"/>
      <use xlink:href="#DejaVuSans-30" x="63.623047"/>
      <use xlink:href="#DejaVuSans-5f" x="127.246094"/>
      <use xlink:href="#DejaVuSans-30" x="177.246094"/>
      <use xlink:href="#DejaVuSans-35" x="240.869141"/>
      <use xlink:href="#DejaVuSans-5f" x="304.492188"/>
      <use xlink:href="#DejaVuSans-30" x="354.492188"/>
      <use xlink:href="#DejaVuSans-31" x="418.115234"/>
      <use xlink:href="#DejaVuSans-5f" x="481.738281"/>
      <use xlink:href="#DejaVuSans-45" x="531.738281"/>
      <use xlink:href="#DejaVuSans-33" x="594.921875"/>
     </g>
    </g>
    <g id="line2d_21">
     <path d="M 458.33825 91.940262 
L 468.33825 91.940262 
L 478.33825 91.940262 
" style="fill: none; stroke: #2ca02c; stroke-width: 1.5; stroke-linecap: square"/>
    </g>
    <g id="text_18">
     <!-- 20_02_02_E3 -->
     <g transform="translate(486.33825 95.440262) scale(0.1 -0.1)">
      <use xlink:href="#DejaVuSans-32"/>
      <use xlink:href="#DejaVuSans-30" x="63.623047"/>
      <use xlink:href="#DejaVuSans-5f" x="127.246094"/>
      <use xlink:href="#DejaVuSans-30" x="177.246094"/>
      <use xlink:href="#DejaVuSans-32" x="240.869141"/>
      <use xlink:href="#DejaVuSans-5f" x="304.492188"/>
      <use xlink:href="#DejaVuSans-30" x="354.492188"/>
      <use xlink:href="#DejaVuSans-32" x="418.115234"/>
      <use xlink:href="#DejaVuSans-5f" x="481.738281"/>
      <use xlink:href="#DejaVuSans-45" x="531.738281"/>
      <use xlink:href="#DejaVuSans-33" x="594.921875"/>
     </g>
    </g>
    <g id="line2d_22">
     <path d="M 458.33825 106.896513 
L 468.33825 106.896513 
L 478.33825 106.896513 
" style="fill: none; stroke: #d62728; stroke-width: 1.5; stroke-linecap: square"/>
    </g>
    <g id="text_19">
     <!-- 20_10_02_E3 -->
     <g transform="translate(486.33825 110.396513) scale(0.1 -0.1)">
      <use xlink:href="#DejaVuSans-32"/>
      <use xlink:href="#DejaVuSans-30" x="63.623047"/>
      <use xlink:href="#DejaVuSans-5f" x="127.246094"/>
      <use xlink:href="#DejaVuSans-31" x="177.246094"/>
      <use xlink:href="#DejaVuSans-30" x="240.869141"/>
      <use xlink:href="#DejaVuSans-5f" x="304.492188"/>
      <use xlink:href="#DejaVuSans-30" x="354.492188"/>
      <use xlink:href="#DejaVuSans-32" x="418.115234"/>
      <use xlink:href="#DejaVuSans-5f" x="481.738281"/>
      <use xlink:href="#DejaVuSans-45" x="531.738281"/>
      <use xlink:href="#DejaVuSans-33" x="594.921875"/>
     </g>
    </g>
    <g id="line2d_23">
     <path d="M 458.33825 121.852762 
L 468.33825 121.852762 
L 478.33825 121.852762 
" style="fill: none; stroke: #9467bd; stroke-width: 1.5; stroke-linecap: square"/>
    </g>
    <g id="text_20">
     <!-- 20_08_02_E3 -->
     <g transform="translate(486.33825 125.352762) scale(0.1 -0.1)">
      <use xlink:href="#DejaVuSans-32"/>
      <use xlink:href="#DejaVuSans-30" x="63.623047"/>
      <use xlink:href="#DejaVuSans-5f" x="127.246094"/>
      <use xlink:href="#DejaVuSans-30" x="177.246094"/>
      <use xlink:href="#DejaVuSans-38" x="240.869141"/>
      <use xlink:href="#DejaVuSans-5f" x="304.492188"/>
      <use xlink:href="#DejaVuSans-30" x="354.492188"/>
      <use xlink:href="#DejaVuSans-32" x="418.115234"/>
      <use xlink:href="#DejaVuSans-5f" x="481.738281"/>
      <use xlink:href="#DejaVuSans-45" x="531.738281"/>
      <use xlink:href="#DejaVuSans-33" x="594.921875"/>
     </g>
    </g>
    <g id="line2d_24">
     <path d="M 458.33825 136.809012 
L 468.33825 136.809012 
L 478.33825 136.809012 
" style="fill: none; stroke: #8c564b; stroke-width: 1.5; stroke-linecap: square"/>
    </g>
    <g id="text_21">
     <!-- 20_11_02_E3 -->
     <g transform="translate(486.33825 140.309012) scale(0.1 -0.1)">
      <use xlink:href="#DejaVuSans-32"/>
      <use xlink:href="#DejaVuSans-30" x="63.623047"/>
      <use xlink:href="#DejaVuSans-5f" x="127.246094"/>
      <use xlink:href="#DejaVuSans-31" x="177.246094"/>
      <use xlink:href="#DejaVuSans-31" x="240.869141"/>
      <use xlink:href="#DejaVuSans-5f" x="304.492188"/>
      <use xlink:href="#DejaVuSans-30" x="354.492188"/>
      <use xlink:href="#DejaVuSans-32" x="418.115234"/>
      <use xlink:href="#DejaVuSans-5f" x="481.738281"/>
      <use xlink:href="#DejaVuSans-45" x="531.738281"/>
      <use xlink:href="#DejaVuSans-33" x="594.921875"/>
     </g>
    </g>
   </g>
  </g>
 </g>
 <defs>
  <clipPath id="p99d4e93991">
   <rect x="56.50625" y="22.318125" width="357.12" height="266.112"/>
  </clipPath>
 </defs>
</svg>
