<?xml version="1.0" encoding="utf-8" standalone="no"?>
<!DOCTYPE svg PUBLIC "-//W3C//DTD SVG 1.1//EN"
  "http://www.w3.org/Graphics/SVG/1.1/DTD/svg11.dtd">
<svg xmlns:xlink="http://www.w3.org/1999/xlink" width="565.411687pt" height="325.986375pt" viewBox="0 0 565.411687 325.986375" xmlns="http://www.w3.org/2000/svg" version="1.1">
 <metadata>
  <rdf:RDF xmlns:dc="http://purl.org/dc/elements/1.1/" xmlns:cc="http://creativecommons.org/ns#" xmlns:rdf="http://www.w3.org/1999/02/22-rdf-syntax-ns#">
   <cc:Work>
    <dc:type rdf:resource="http://purl.org/dc/dcmitype/StillImage"/>
    <dc:date>2023-02-07T23:00:10.701489</dc:date>
    <dc:format>image/svg+xml</dc:format>
    <dc:creator>
     <cc:Agent>
      <dc:title>Matplotlib v3.6.2, https://matplotlib.org/</dc:title>
     </cc:Agent>
    </dc:creator>
   </cc:Work>
  </rdf:RDF>
 </metadata>
 <defs>
  <style type="text/css">*{stroke-linejoin: round; stroke-linecap: butt}</style>
 </defs>
 <g id="figure_1">
  <g id="patch_1">
   <path d="M 0 325.986375 
L 565.411687 325.986375 
L 565.411687 0 
L 0 0 
z
" style="fill: #ffffff"/>
  </g>
  <g id="axes_1">
   <g id="patch_2">
    <path d="M 58.523438 288.430125 
L 415.643438 288.430125 
L 415.643438 22.318125 
L 58.523438 22.318125 
z
" style="fill: #ffffff"/>
   </g>
   <g id="PolyCollection_1">
    <path d="M 74.756165 205.158526 
L 74.756165 237.401311 
L 78.035504 237.401311 
L 81.314842 237.401311 
L 84.594181 237.401311 
L 87.87352 237.401311 
L 91.152859 237.401311 
L 94.432198 237.401311 
L 97.711537 237.401311 
L 100.990876 237.401311 
L 104.270214 237.401311 
L 107.549553 237.401311 
L 110.828892 237.401311 
L 114.108231 237.401311 
L 117.38757 237.401311 
L 120.666909 237.401311 
L 123.946247 237.401311 
L 127.225586 237.401311 
L 130.504925 237.401311 
L 133.784264 237.401311 
L 137.063603 237.401311 
L 140.342942 237.401311 
L 143.62228 237.401311 
L 146.901619 237.401311 
L 150.180958 237.401311 
L 153.460297 237.401311 
L 156.739636 237.401311 
L 160.018975 237.401311 
L 163.298314 237.401311 
L 166.577652 237.401311 
L 169.856991 237.401311 
L 173.13633 237.401311 
L 176.415669 237.401311 
L 179.695008 237.401311 
L 182.974347 237.401311 
L 186.253685 237.401311 
L 189.533024 237.401311 
L 192.812363 237.401311 
L 196.091702 237.401311 
L 199.371041 237.401311 
L 202.65038 237.401311 
L 205.929718 237.401311 
L 209.209057 237.401311 
L 212.488396 237.401311 
L 215.767735 237.401311 
L 219.047074 237.401311 
L 222.326413 237.401311 
L 225.605752 237.401311 
L 228.88509 237.401311 
L 232.164429 237.401311 
L 235.443768 237.401311 
L 238.723107 237.401311 
L 242.002446 237.401311 
L 245.281785 237.401311 
L 248.561123 237.401311 
L 251.840462 237.401311 
L 255.119801 237.401311 
L 258.39914 237.401311 
L 261.678479 237.401311 
L 264.957818 237.401311 
L 268.237157 237.401311 
L 271.516495 237.401311 
L 274.795834 237.401311 
L 278.075173 237.401311 
L 281.354512 237.401311 
L 284.633851 237.401311 
L 287.91319 237.401311 
L 291.192528 237.401311 
L 294.471867 237.401311 
L 297.751206 237.401311 
L 301.030545 237.401311 
L 304.309884 237.401311 
L 307.589223 237.401311 
L 310.868561 237.401311 
L 314.1479 237.401311 
L 317.427239 237.401311 
L 320.706578 237.401311 
L 323.985917 237.401311 
L 327.265256 237.401311 
L 330.544595 237.401311 
L 333.823933 237.401311 
L 337.103272 237.401311 
L 340.382611 237.401311 
L 343.66195 237.401311 
L 346.941289 237.401311 
L 350.220628 237.401311 
L 353.499966 237.401311 
L 356.779305 237.401311 
L 360.058644 237.401311 
L 363.337983 237.401311 
L 366.617322 237.401311 
L 369.896661 237.401311 
L 373.175999 237.401311 
L 376.455338 237.401311 
L 379.734677 237.401311 
L 383.014016 237.401311 
L 386.293355 237.401311 
L 389.572694 237.401311 
L 392.852033 237.401311 
L 396.131371 237.401311 
L 399.41071 237.401311 
L 399.41071 219.083565 
L 399.41071 219.083565 
L 396.131371 241.332501 
L 392.852033 250.22963 
L 389.572694 250.932364 
L 386.293355 247.186643 
L 383.014016 241.611556 
L 379.734677 235.94131 
L 376.455338 231.229211 
L 373.175999 228.01799 
L 369.896661 226.480434 
L 366.617322 226.533997 
L 363.337983 227.932719 
L 360.058644 230.339518 
L 356.779305 233.381633 
L 353.499966 236.691743 
L 350.220628 239.937017 
L 346.941289 242.838164 
L 343.66195 245.180286 
L 340.382611 246.817162 
L 337.103272 247.670408 
L 333.823933 247.724742 
L 330.544595 247.020471 
L 327.265256 245.644113 
L 323.985917 243.717965 
L 320.706578 241.38928 
L 317.427239 238.819597 
L 314.1479 236.174665 
L 310.868561 233.615298 
L 307.589223 231.289425 
L 304.309884 229.325495 
L 301.030545 227.827344 
L 297.751206 226.870569 
L 294.471867 226.500395 
L 291.192528 226.730973 
L 287.91319 227.546019 
L 284.633851 228.900659 
L 281.354512 230.724337 
L 278.075173 232.924604 
L 274.795834 235.391606 
L 271.516495 238.003086 
L 268.237157 240.629694 
L 264.957818 243.140427 
L 261.678479 245.407992 
L 258.39914 247.313931 
L 255.119801 248.753348 
L 251.840462 249.63907 
L 248.561123 249.905135 
L 245.281785 249.509492 
L 242.002446 248.43583 
L 238.723107 237.395993 
L 235.443768 237.395533 
L 232.164429 243.047288 
L 228.88509 239.483539 
L 225.605752 235.462886 
L 222.326413 231.119987 
L 219.047074 226.605455 
L 215.767735 222.080108 
L 212.488396 217.708612 
L 209.209057 213.652673 
L 205.929718 210.064018 
L 202.65038 207.077364 
L 199.371041 204.803621 
L 196.091702 203.323591 
L 192.812363 202.682394 
L 189.533024 202.884887 
L 186.253685 203.89232 
L 182.974347 205.620459 
L 179.695008 207.939378 
L 176.415669 210.675125 
L 173.13633 213.613389 
L 169.856991 216.505279 
L 166.577652 219.07527 
L 163.298314 221.031299 
L 160.018975 222.076925 
L 156.739636 221.925386 
L 153.460297 220.315301 
L 150.180958 217.027633 
L 146.901619 211.903441 
L 143.62228 204.86181 
L 140.342942 195.917191 
L 137.063603 185.195246 
L 133.784264 172.946123 
L 130.504925 159.553879 
L 127.225586 145.540602 
L 123.946247 131.563538 
L 120.666909 118.403331 
L 117.38757 106.941195 
L 114.108231 98.122627 
L 110.828892 92.904931 
L 107.549553 92.185577 
L 104.270214 96.708061 
L 100.990876 106.941623 
L 97.711537 122.93081 
L 94.432198 144.1105 
L 91.152859 169.081614 
L 87.87352 195.342312 
L 84.594181 218.96904 
L 81.314842 234.241349 
L 78.035504 233.20389 
L 74.756165 205.158526 
z
" clip-path="url(#p9999c8e03b)" style="fill: #1f77b4; fill-opacity: 0.166667"/>
   </g>
   <g id="PolyCollection_2">
    <path d="M 74.756165 172.702528 
L 74.756165 237.401311 
L 76.464696 237.401311 
L 78.173226 237.401311 
L 79.881757 237.401311 
L 81.590288 237.401311 
L 83.298819 237.401311 
L 85.00735 237.401311 
L 86.715881 237.401311 
L 88.424411 237.401311 
L 90.132942 237.401311 
L 91.841473 237.401311 
L 93.550004 237.401311 
L 95.258535 237.401311 
L 96.967065 237.401311 
L 98.675596 237.401311 
L 100.384127 237.401311 
L 102.092658 237.401311 
L 103.801189 237.401311 
L 105.50972 237.401311 
L 107.21825 237.401311 
L 108.926781 237.401311 
L 110.635312 237.401311 
L 112.343843 237.401311 
L 114.052374 237.401311 
L 115.760904 237.401311 
L 117.469435 237.401311 
L 119.177966 237.401311 
L 120.886497 237.401311 
L 122.595028 237.401311 
L 124.303559 237.401311 
L 126.012089 237.401311 
L 127.72062 237.401311 
L 129.429151 237.401311 
L 131.137682 237.401311 
L 132.846213 237.401311 
L 134.554744 237.401311 
L 136.263274 237.401311 
L 137.971805 237.401311 
L 139.680336 237.401311 
L 141.388867 237.401311 
L 143.097398 237.401311 
L 144.805928 237.401311 
L 146.514459 237.401311 
L 148.22299 237.401311 
L 149.931521 237.401311 
L 151.640052 237.401311 
L 153.348583 237.401311 
L 155.057113 237.401311 
L 156.765644 237.401311 
L 158.474175 237.401311 
L 160.182706 237.401311 
L 161.891237 237.401311 
L 163.599768 237.401311 
L 165.308298 237.401311 
L 167.016829 237.401311 
L 168.72536 237.401311 
L 170.433891 237.401311 
L 172.142422 237.401311 
L 173.850952 237.401311 
L 175.559483 237.401311 
L 177.268014 237.401311 
L 178.976545 237.401311 
L 180.685076 237.401311 
L 182.393607 237.401311 
L 184.102137 237.401311 
L 185.810668 237.401311 
L 187.519199 237.401311 
L 189.22773 237.401311 
L 190.936261 237.401311 
L 192.644791 237.401311 
L 194.353322 237.401311 
L 196.061853 237.401311 
L 197.770384 237.401311 
L 199.478915 237.401311 
L 201.187446 237.401311 
L 202.895976 237.401311 
L 204.604507 237.401311 
L 206.313038 237.401311 
L 208.021569 237.401311 
L 209.7301 237.401311 
L 211.438631 237.401311 
L 213.147161 237.401311 
L 214.855692 237.401311 
L 216.564223 237.401311 
L 218.272754 237.401311 
L 219.981285 237.401311 
L 221.689815 237.401311 
L 223.398346 237.401311 
L 225.106877 237.401311 
L 226.815408 237.401311 
L 228.523939 237.401311 
L 230.23247 237.401311 
L 231.941 237.401311 
L 233.649531 237.401311 
L 235.358062 237.401311 
L 237.066593 237.401311 
L 238.775124 237.401311 
L 240.483654 237.401311 
L 242.192185 237.401311 
L 243.900716 237.401311 
L 243.900716 221.5005 
L 243.900716 221.5005 
L 242.192185 241.621043 
L 240.483654 249.151263 
L 238.775124 249.163709 
L 237.066593 245.281565 
L 235.358062 239.983835 
L 233.649531 234.862768 
L 231.941 230.838973 
L 230.23247 228.339275 
L 228.523939 227.441919 
L 226.815408 227.993341 
L 225.106877 229.700372 
L 223.398346 232.201353 
L 221.689815 235.119344 
L 219.981285 238.10027 
L 218.272754 240.838564 
L 216.564223 243.092595 
L 214.855692 244.691894 
L 213.147161 245.537971 
L 211.438631 245.600279 
L 209.7301 244.908669 
L 208.021569 243.543499 
L 206.313038 241.62438 
L 204.604507 239.298363 
L 202.895976 236.728253 
L 201.187446 234.081566 
L 199.478915 231.520547 
L 197.770384 229.193554 
L 196.061853 227.227998 
L 194.353322 225.724967 
L 192.644791 224.755572 
L 190.936261 224.358983 
L 189.22773 224.542086 
L 187.519199 225.28063 
L 185.810668 226.521704 
L 184.102137 228.187345 
L 182.393607 230.179083 
L 180.685076 232.383176 
L 178.976545 234.676316 
L 177.268014 236.931571 
L 175.559483 239.024328 
L 173.850952 240.838032 
L 172.142422 242.269501 
L 170.433891 243.233646 
L 168.72536 243.667427 
L 167.016829 243.532918 
L 165.308298 242.819356 
L 163.599768 241.544114 
L 161.891237 239.752541 
L 160.182706 237.397358 
L 158.474175 237.398454 
L 156.765644 231.983483 
L 155.057113 229.583275 
L 153.348583 227.221485 
L 151.640052 225.024358 
L 149.931521 223.11705 
L 148.22299 221.617559 
L 146.514459 220.630517 
L 144.805928 220.241033 
L 143.097398 220.508817 
L 141.388867 221.462809 
L 139.680336 223.096566 
L 137.971805 225.364609 
L 136.263274 228.179996 
L 134.554744 231.413305 
L 132.846213 234.893247 
L 131.137682 238.409062 
L 129.429151 241.714856 
L 127.72062 244.535951 
L 126.012089 246.577324 
L 124.303559 247.534101 
L 122.595028 247.104034 
L 120.886497 245.001809 
L 119.177966 240.974942 
L 117.469435 234.820901 
L 115.760904 226.405031 
L 114.052374 215.678682 
L 112.343843 202.696838 
L 110.635312 187.634405 
L 108.926781 170.800119 
L 107.21825 152.64691 
L 105.50972 133.777327 
L 103.801189 114.942467 
L 102.092658 97.032587 
L 100.384127 81.057404 
L 98.675596 68.113775 
L 96.967065 59.338254 
L 95.258535 55.841662 
L 93.550004 58.622595 
L 91.841473 68.456389 
L 90.132942 85.755809 
L 88.424411 110.399302 
L 86.715881 141.522333 
L 85.00735 177.266913 
L 83.298819 214.483992 
L 81.590288 248.383004 
L 79.881757 272.122345 
L 78.173226 276.334125 
L 76.464696 248.57602 
L 74.756165 172.702528 
z
" clip-path="url(#p9999c8e03b)" style="fill: #ff7f0e; fill-opacity: 0.166667"/>
   </g>
   <g id="PolyCollection_3">
    <path d="M 74.756165 254.656648 
L 74.756165 237.401311 
L 77.336331 237.401311 
L 79.916498 237.401311 
L 82.496664 237.401311 
L 85.07683 237.401311 
L 87.656997 237.401311 
L 90.237163 237.401311 
L 92.81733 237.401311 
L 95.397496 237.401311 
L 97.977662 237.401311 
L 100.557829 237.401311 
L 103.137995 237.401311 
L 105.718162 237.401311 
L 108.298328 237.401311 
L 110.878494 237.401311 
L 113.458661 237.401311 
L 116.038827 237.401311 
L 118.618994 237.401311 
L 121.19916 237.401311 
L 123.779326 237.401311 
L 126.359493 237.401311 
L 128.939659 237.401311 
L 131.519826 237.401311 
L 134.099992 237.401311 
L 136.680158 237.401311 
L 139.260325 237.401311 
L 141.840491 237.401311 
L 144.420658 237.401311 
L 147.000824 237.401311 
L 149.58099 237.401311 
L 152.161157 237.401311 
L 154.741323 237.401311 
L 157.32149 237.401311 
L 159.901656 237.401311 
L 162.481823 237.401311 
L 165.061989 237.401311 
L 167.642155 237.401311 
L 170.222322 237.401311 
L 172.802488 237.401311 
L 175.382655 237.401311 
L 177.962821 237.401311 
L 180.542987 237.401311 
L 183.123154 237.401311 
L 185.70332 237.401311 
L 188.283487 237.401311 
L 190.863653 237.401311 
L 193.443819 237.401311 
L 196.023986 237.401311 
L 198.604152 237.401311 
L 201.184319 237.401311 
L 203.764485 237.401311 
L 206.344651 237.401311 
L 208.924818 237.401311 
L 211.504984 237.401311 
L 214.085151 237.401311 
L 216.665317 237.401311 
L 219.245483 237.401311 
L 221.82565 237.401311 
L 224.405816 237.401311 
L 226.985983 237.401311 
L 229.566149 237.401311 
L 232.146315 237.401311 
L 234.726482 237.401311 
L 237.306648 237.401311 
L 239.886815 237.401311 
L 242.466981 237.401311 
L 245.047147 237.401311 
L 247.627314 237.401311 
L 250.20748 237.401311 
L 252.787647 237.401311 
L 255.367813 237.401311 
L 257.947979 237.401311 
L 260.528146 237.401311 
L 263.108312 237.401311 
L 265.688479 237.401311 
L 268.268645 237.401311 
L 270.848812 237.401311 
L 273.428978 237.401311 
L 276.009144 237.401311 
L 278.589311 237.401311 
L 281.169477 237.401311 
L 283.749644 237.401311 
L 286.32981 237.401311 
L 288.909976 237.401311 
L 291.490143 237.401311 
L 294.070309 237.401311 
L 296.650476 237.401311 
L 299.230642 237.401311 
L 301.810808 237.401311 
L 304.390975 237.401311 
L 306.971141 237.401311 
L 309.551308 237.401311 
L 312.131474 237.401311 
L 314.71164 237.401311 
L 317.291807 237.401311 
L 319.871973 237.401311 
L 322.45214 237.401311 
L 325.032306 237.401311 
L 327.612472 237.401311 
L 330.192639 237.401311 
L 330.192639 219.743395 
L 330.192639 219.743395 
L 327.612472 240.866133 
L 325.032306 249.518629 
L 322.45214 250.437812 
L 319.871973 247.086118 
L 317.291807 241.904044 
L 314.71164 236.525532 
L 312.131474 231.960181 
L 309.551308 228.745982 
L 306.971141 227.075989 
L 304.390975 226.902069 
L 301.810808 228.0186 
L 299.230642 230.12877 
L 296.650476 232.895869 
L 294.070309 235.981769 
L 291.490143 239.074562 
L 288.909976 241.907143 
L 286.32981 244.268336 
L 283.749644 246.007982 
L 281.169477 247.037268 
L 278.589311 247.325392 
L 276.009144 246.893543 
L 273.428978 245.807039 
L 270.848812 244.166338 
L 268.268645 242.097528 
L 265.688479 239.742803 
L 263.108312 237.251334 
L 260.528146 234.770854 
L 257.947979 232.440211 
L 255.367813 230.38306 
L 252.787647 228.702802 
L 250.20748 227.478846 
L 247.627314 226.764177 
L 245.047147 226.584222 
L 242.466981 226.936936 
L 239.886815 227.794002 
L 237.306648 229.103038 
L 234.726482 230.790658 
L 232.146315 232.766236 
L 229.566149 234.92621 
L 226.985983 237.158756 
L 224.405816 239.348649 
L 221.82565 241.38217 
L 219.245483 243.151869 
L 216.665317 244.561046 
L 214.085151 245.527813 
L 211.504984 245.988597 
L 208.924818 245.900989 
L 206.344651 245.24584 
L 203.764485 237.39658 
L 201.184319 237.395146 
L 198.604152 243.518439 
L 196.023986 240.0179 
L 193.443819 236.065072 
L 190.863653 231.824923 
L 188.283487 227.482412 
L 185.70332 223.235573 
L 183.123154 219.287768 
L 180.542987 215.839325 
L 177.962821 213.078789 
L 175.382655 211.174074 
L 172.802488 210.263768 
L 170.222322 210.448924 
L 167.642155 211.785612 
L 165.061989 214.278564 
L 162.481823 217.876206 
L 159.901656 222.467374 
L 157.32149 227.880006 
L 154.741323 233.882024 
L 152.161157 240.184666 
L 149.58099 246.44839 
L 147.000824 252.291502 
L 144.420658 257.301527 
L 141.840491 261.049301 
L 139.260325 263.105674 
L 136.680158 263.060581 
L 134.099992 260.544168 
L 131.519826 255.249489 
L 128.939659 246.956183 
L 126.359493 235.554363 
L 123.779326 221.067779 
L 121.19916 203.675134 
L 118.618994 183.728241 
L 116.038827 161.765445 
L 113.458661 138.518563 
L 110.878494 114.911256 
L 108.298328 92.046564 
L 105.718162 71.180951 
L 103.137995 53.68196 
L 100.557829 40.966211 
L 97.977662 34.414125 
L 95.397496 35.257386 
L 92.81733 44.434746 
L 90.237163 62.411366 
L 87.656997 88.956432 
L 85.07683 122.873316 
L 82.496664 161.676073 
L 79.916498 201.205534 
L 77.336331 235.177707 
L 74.756165 254.656648 
z
" clip-path="url(#p9999c8e03b)" style="fill: #2ca02c; fill-opacity: 0.166667"/>
   </g>
   <g id="PolyCollection_4">
    <path d="M 74.756165 191.154391 
L 74.756165 237.401311 
L 76.409358 237.401311 
L 78.062551 237.401311 
L 79.715744 237.401311 
L 81.368937 237.401311 
L 83.02213 237.401311 
L 84.675323 237.401311 
L 86.328516 237.401311 
L 87.981709 237.401311 
L 89.634902 237.401311 
L 91.288095 237.401311 
L 92.941288 237.401311 
L 94.594481 237.401311 
L 96.247674 237.401311 
L 97.900867 237.401311 
L 99.55406 237.401311 
L 101.207253 237.401311 
L 102.860446 237.401311 
L 104.513639 237.401311 
L 106.166832 237.401311 
L 107.820025 237.401311 
L 109.473218 237.401311 
L 111.126411 237.401311 
L 112.779604 237.401311 
L 114.432797 237.401311 
L 116.08599 237.401311 
L 117.739183 237.401311 
L 119.392376 237.401311 
L 121.045569 237.401311 
L 122.698762 237.401311 
L 124.351955 237.401311 
L 126.005148 237.401311 
L 127.658341 237.401311 
L 129.311534 237.401311 
L 130.964727 237.401311 
L 132.61792 237.401311 
L 134.271113 237.401311 
L 135.924306 237.401311 
L 137.577499 237.401311 
L 139.230692 237.401311 
L 140.883885 237.401311 
L 142.537078 237.401311 
L 144.190271 237.401311 
L 145.843464 237.401311 
L 147.496657 237.401311 
L 149.14985 237.401311 
L 150.803043 237.401311 
L 152.456236 237.401311 
L 154.109429 237.401311 
L 155.762622 237.401311 
L 157.415815 237.401311 
L 159.069008 237.401311 
L 160.722201 237.401311 
L 162.375394 237.401311 
L 164.028587 237.401311 
L 165.68178 237.401311 
L 167.334973 237.401311 
L 168.988166 237.401311 
L 170.641359 237.401311 
L 172.294552 237.401311 
L 173.947745 237.401311 
L 175.600938 237.401311 
L 177.254131 237.401311 
L 178.907324 237.401311 
L 180.560517 237.401311 
L 182.21371 237.401311 
L 183.866903 237.401311 
L 185.520096 237.401311 
L 187.173289 237.401311 
L 188.826482 237.401311 
L 190.479675 237.401311 
L 192.132868 237.401311 
L 193.786061 237.401311 
L 195.439254 237.401311 
L 197.092447 237.401311 
L 198.74564 237.401311 
L 200.398833 237.401311 
L 202.052026 237.401311 
L 203.705219 237.401311 
L 205.358412 237.401311 
L 207.011605 237.401311 
L 208.664798 237.401311 
L 210.317991 237.401311 
L 211.971184 237.401311 
L 213.624377 237.401311 
L 215.27757 237.401311 
L 216.930763 237.401311 
L 218.583956 237.401311 
L 220.237149 237.401311 
L 221.890342 237.401311 
L 223.543535 237.401311 
L 225.196728 237.401311 
L 226.849921 237.401311 
L 228.503114 237.401311 
L 230.156307 237.401311 
L 231.8095 237.401311 
L 233.462693 237.401311 
L 235.115886 237.401311 
L 236.769079 237.401311 
L 238.422272 237.401311 
L 238.422272 245.600007 
L 238.422272 245.600007 
L 236.769079 235.373076 
L 235.115886 231.365013 
L 233.462693 231.141956 
L 231.8095 232.941375 
L 230.156307 235.536475 
L 228.503114 238.120801 
L 226.849921 240.210876 
L 225.196728 241.564826 
L 223.543535 242.115149 
L 221.890342 241.913889 
L 220.237149 241.08866 
L 218.583956 239.808058 
L 216.930763 238.255164 
L 215.27757 236.607931 
L 213.624377 235.02538 
L 211.971184 233.638636 
L 210.317991 232.545925 
L 208.664798 231.81075 
L 207.011605 231.462579 
L 205.358412 231.499416 
L 203.705219 231.891737 
L 202.052026 232.587334 
L 200.398833 233.516688 
L 198.74564 234.598515 
L 197.092447 235.745253 
L 195.439254 236.86823 
L 193.786061 237.882377 
L 192.132868 238.710329 
L 190.479675 239.285837 
L 188.826482 239.556436 
L 187.173289 239.485327 
L 185.520096 239.0525 
L 183.866903 238.25509 
L 182.21371 237.107036 
L 180.560517 235.638088 
L 178.907324 233.892239 
L 177.254131 231.925669 
L 175.600938 229.804277 
L 173.947745 227.600927 
L 172.294552 225.39247 
L 170.641359 223.256671 
L 168.988166 221.269125 
L 167.334973 219.500258 
L 165.68178 218.012505 
L 164.028587 216.857743 
L 162.375394 216.075062 
L 160.722201 215.688924 
L 159.069008 215.707786 
L 157.415815 237.401245 
L 155.762622 237.400959 
L 154.109429 217.754927 
L 152.456236 219.006337 
L 150.803043 220.470195 
L 149.14985 222.064078 
L 147.496657 223.693758 
L 145.843464 225.255797 
L 144.190271 226.640562 
L 142.537078 227.735606 
L 140.883885 228.429323 
L 139.230692 228.614817 
L 137.577499 228.193866 
L 135.924306 227.080893 
L 134.271113 225.206833 
L 132.61792 222.522775 
L 130.964727 219.003274 
L 129.311534 214.649205 
L 127.658341 209.490046 
L 126.005148 203.585477 
L 124.351955 197.026185 
L 122.698762 189.933781 
L 121.045569 182.459731 
L 119.392376 174.783239 
L 117.739183 167.108016 
L 116.08599 159.657905 
L 114.432797 152.671351 
L 112.779604 146.394728 
L 111.126411 141.074575 
L 109.473218 136.948832 
L 107.820025 134.237185 
L 106.166832 133.130707 
L 104.513639 133.780999 
L 102.860446 136.289114 
L 101.207253 140.694589 
L 99.55406 146.964979 
L 97.900867 154.986365 
L 96.247674 164.55536 
L 94.594481 175.373248 
L 92.941288 187.042944 
L 91.288095 199.06959 
L 89.634902 210.865655 
L 87.981709 221.761568 
L 86.328516 231.022964 
L 84.675323 237.875789 
L 83.02213 241.540605 
L 81.368937 241.27758 
L 79.715744 236.443779 
L 78.062551 226.564525 
L 76.409358 211.420748 
L 74.756165 191.154391 
z
" clip-path="url(#p9999c8e03b)" style="fill: #d62728; fill-opacity: 0.166667"/>
   </g>
   <g id="PolyCollection_5">
    <path d="M 74.756165 199.175536 
L 74.756165 237.401311 
L 76.337198 237.401311 
L 77.918231 237.401311 
L 79.499264 237.401311 
L 81.080297 237.401311 
L 82.66133 237.401311 
L 84.242363 237.401311 
L 85.823396 237.401311 
L 87.404429 237.401311 
L 88.985462 237.401311 
L 90.566494 237.401311 
L 92.147527 237.401311 
L 93.72856 237.401311 
L 95.309593 237.401311 
L 96.890626 237.401311 
L 98.471659 237.401311 
L 100.052692 237.401311 
L 101.633725 237.401311 
L 103.214758 237.401311 
L 104.795791 237.401311 
L 106.376824 237.401311 
L 107.957857 237.401311 
L 109.53889 237.401311 
L 111.119923 237.401311 
L 112.700956 237.401311 
L 114.281989 237.401311 
L 115.863022 237.401311 
L 117.444055 237.401311 
L 119.025088 237.401311 
L 120.606121 237.401311 
L 122.187154 237.401311 
L 123.768187 237.401311 
L 125.34922 237.401311 
L 126.930253 237.401311 
L 128.511286 237.401311 
L 130.092319 237.401311 
L 131.673352 237.401311 
L 133.254385 237.401311 
L 134.835418 237.401311 
L 136.416451 237.401311 
L 137.997484 237.401311 
L 139.578517 237.401311 
L 141.15955 237.401311 
L 142.740583 237.401311 
L 144.321615 237.401311 
L 145.902648 237.401311 
L 147.483681 237.401311 
L 149.064714 237.401311 
L 150.645747 237.401311 
L 152.22678 237.401311 
L 153.807813 237.401311 
L 155.388846 237.401311 
L 156.969879 237.401311 
L 158.550912 237.401311 
L 160.131945 237.401311 
L 161.712978 237.401311 
L 163.294011 237.401311 
L 164.875044 237.401311 
L 166.456077 237.401311 
L 168.03711 237.401311 
L 169.618143 237.401311 
L 171.199176 237.401311 
L 172.780209 237.401311 
L 174.361242 237.401311 
L 175.942275 237.401311 
L 177.523308 237.401311 
L 179.104341 237.401311 
L 180.685374 237.401311 
L 182.266407 237.401311 
L 183.84744 237.401311 
L 185.428473 237.401311 
L 187.009506 237.401311 
L 188.590539 237.401311 
L 190.171572 237.401311 
L 191.752605 237.401311 
L 193.333638 237.401311 
L 194.914671 237.401311 
L 196.495704 237.401311 
L 198.076736 237.401311 
L 199.657769 237.401311 
L 201.238802 237.401311 
L 202.819835 237.401311 
L 204.400868 237.401311 
L 205.981901 237.401311 
L 207.562934 237.401311 
L 209.143967 237.401311 
L 210.725 237.401311 
L 212.306033 237.401311 
L 213.887066 237.401311 
L 215.468099 237.401311 
L 217.049132 237.401311 
L 218.630165 237.401311 
L 220.211198 237.401311 
L 221.792231 237.401311 
L 223.373264 237.401311 
L 224.954297 237.401311 
L 226.53533 237.401311 
L 228.116363 237.401311 
L 229.697396 237.401311 
L 231.278429 237.401311 
L 231.278429 232.749867 
L 231.278429 232.749867 
L 229.697396 238.141361 
L 228.116363 240.106304 
L 226.53533 240.006742 
L 224.954297 238.821342 
L 223.373264 237.225121 
L 221.792231 235.656809 
L 220.211198 234.375275 
L 218.630165 233.506273 
L 217.049132 233.080728 
L 215.468099 233.065624 
L 213.887066 233.388501 
L 212.306033 233.956451 
L 210.725 234.670429 
L 209.143967 235.435628 
L 207.562934 236.168559 
L 205.981901 236.801441 
L 204.400868 237.284418 
L 202.819835 237.586063 
L 201.238802 237.692584 
L 199.657769 237.606071 
L 198.076736 237.342088 
L 196.495704 236.926877 
L 194.914671 236.394374 
L 193.333638 235.783221 
L 191.752605 235.133918 
L 190.171572 234.486212 
L 188.590539 233.876827 
L 187.009506 233.33756 
L 185.428473 232.893814 
L 183.84744 232.56355 
L 182.266407 232.356674 
L 180.685374 232.274834 
L 179.104341 232.311609 
L 177.523308 232.453036 
L 175.942275 232.678437 
L 174.361242 232.961502 
L 172.780209 233.271554 
L 171.199176 233.574958 
L 169.618143 233.8366 
L 168.03711 234.021386 
L 166.456077 234.095712 
L 164.875044 234.028841 
L 163.294011 233.794149 
L 161.712978 233.370194 
L 160.131945 232.741581 
L 158.550912 231.89958 
L 156.969879 230.842493 
L 155.388846 229.575746 
L 153.807813 237.3974 
L 152.22678 237.397314 
L 150.645747 224.824125 
L 149.064714 222.952061 
L 147.483681 220.979435 
L 145.902648 218.939866 
L 144.321615 216.868184 
L 142.740583 214.798891 
L 141.15955 212.764566 
L 139.578517 210.794273 
L 137.997484 208.912032 
L 136.416451 207.135414 
L 134.835418 205.474327 
L 133.254385 203.930044 
L 131.673352 202.494561 
L 130.092319 201.150311 
L 128.511286 199.870312 
L 126.930253 198.61878 
L 125.34922 197.352248 
L 123.768187 196.021216 
L 122.187154 194.572335 
L 120.606121 192.951123 
L 119.025088 191.105185 
L 117.444055 188.987885 
L 115.863022 186.562402 
L 114.281989 183.806052 
L 112.700956 180.714759 
L 111.119923 177.307494 
L 109.53889 173.630472 
L 107.957857 169.760864 
L 106.376824 165.809722 
L 104.795791 161.923768 
L 103.214758 158.285649 
L 101.633725 155.1122 
L 100.052692 152.650194 
L 98.471659 151.168977 
L 96.890626 150.949352 
L 95.309593 152.267951 
L 93.72856 155.37629 
L 92.147527 160.473604 
L 90.566494 167.672455 
L 88.985462 176.956031 
L 87.404429 188.125937 
L 85.823396 200.739175 
L 84.242363 214.032898 
L 82.66133 226.835406 
L 81.080297 237.461712 
L 79.499264 243.591904 
L 77.918231 242.130358 
L 76.337198 229.043734 
L 74.756165 199.175536 
z
" clip-path="url(#p9999c8e03b)" style="fill: #9467bd; fill-opacity: 0.166667"/>
   </g>
   <g id="PolyCollection_6">
    <path d="M 74.756165 192.120833 
L 74.756165 237.401311 
L 76.314136 237.401311 
L 77.872106 237.401311 
L 79.430077 237.401311 
L 80.988048 237.401311 
L 82.546019 237.401311 
L 84.10399 237.401311 
L 85.661961 237.401311 
L 87.219931 237.401311 
L 88.777902 237.401311 
L 90.335873 237.401311 
L 91.893844 237.401311 
L 93.451815 237.401311 
L 95.009786 237.401311 
L 96.567756 237.401311 
L 98.125727 237.401311 
L 99.683698 237.401311 
L 101.241669 237.401311 
L 102.79964 237.401311 
L 104.35761 237.401311 
L 105.915581 237.401311 
L 107.473552 237.401311 
L 109.031523 237.401311 
L 110.589494 237.401311 
L 112.147465 237.401311 
L 113.705435 237.401311 
L 115.263406 237.401311 
L 116.821377 237.401311 
L 118.379348 237.401311 
L 119.937319 237.401311 
L 121.49529 237.401311 
L 123.05326 237.401311 
L 124.611231 237.401311 
L 126.169202 237.401311 
L 127.727173 237.401311 
L 129.285144 237.401311 
L 130.843114 237.401311 
L 132.401085 237.401311 
L 133.959056 237.401311 
L 135.517027 237.401311 
L 137.074998 237.401311 
L 138.632969 237.401311 
L 140.190939 237.401311 
L 141.74891 237.401311 
L 143.306881 237.401311 
L 144.864852 237.401311 
L 146.422823 237.401311 
L 147.980794 237.401311 
L 149.538764 237.401311 
L 151.096735 237.401311 
L 152.654706 237.401311 
L 154.212677 237.401311 
L 155.770648 237.401311 
L 157.328619 237.401311 
L 158.886589 237.401311 
L 160.44456 237.401311 
L 162.002531 237.401311 
L 163.560502 237.401311 
L 165.118473 237.401311 
L 166.676443 237.401311 
L 168.234414 237.401311 
L 169.792385 237.401311 
L 171.350356 237.401311 
L 172.908327 237.401311 
L 174.466298 237.401311 
L 176.024268 237.401311 
L 177.582239 237.401311 
L 179.14021 237.401311 
L 180.698181 237.401311 
L 182.256152 237.401311 
L 183.814123 237.401311 
L 185.372093 237.401311 
L 186.930064 237.401311 
L 188.488035 237.401311 
L 190.046006 237.401311 
L 191.603977 237.401311 
L 193.161948 237.401311 
L 194.719918 237.401311 
L 196.277889 237.401311 
L 197.83586 237.401311 
L 199.393831 237.401311 
L 200.951802 237.401311 
L 202.509772 237.401311 
L 204.067743 237.401311 
L 205.625714 237.401311 
L 207.183685 237.401311 
L 208.741656 237.401311 
L 210.299627 237.401311 
L 211.857597 237.401311 
L 213.415568 237.401311 
L 214.973539 237.401311 
L 216.53151 237.401311 
L 218.089481 237.401311 
L 219.647452 237.401311 
L 221.205422 237.401311 
L 222.763393 237.401311 
L 224.321364 237.401311 
L 225.879335 237.401311 
L 227.437306 237.401311 
L 228.995277 237.401311 
L 228.995277 234.805697 
L 228.995277 234.805697 
L 227.437306 238.103811 
L 225.879335 238.796564 
L 224.321364 238.102792 
L 222.763393 236.845756 
L 221.205422 235.546384 
L 219.647452 234.500376 
L 218.089481 233.841196 
L 216.53151 233.590801 
L 214.973539 233.699782 
L 213.415568 234.078426 
L 211.857597 234.620109 
L 210.299627 235.218215 
L 208.741656 235.777727 
L 207.183685 236.222448 
L 205.625714 236.498742 
L 204.067743 236.576547 
L 202.509772 236.448341 
L 200.951802 236.126626 
L 199.393831 235.640431 
L 197.83586 235.031235 
L 196.277889 234.34867 
L 194.719918 233.646275 
L 193.161948 232.977511 
L 191.603977 232.392224 
L 190.046006 231.933661 
L 188.488035 231.636118 
L 186.930064 231.523271 
L 185.372093 231.60719 
L 183.814123 231.888017 
L 182.256152 232.354273 
L 180.698181 232.983735 
L 179.14021 233.744798 
L 177.582239 234.598247 
L 176.024268 235.499336 
L 174.466298 236.400085 
L 172.908327 237.251687 
L 171.350356 238.006925 
L 169.792385 238.622514 
L 168.234414 239.061263 
L 166.676443 239.293986 
L 165.118473 239.301084 
L 163.560502 239.07374 
L 162.002531 238.614665 
L 160.44456 237.938384 
L 158.886589 237.071007 
L 157.328619 236.049505 
L 155.770648 234.920483 
L 154.212677 233.738475 
L 152.654706 237.40114 
L 151.096735 237.402456 
L 149.538764 229.083528 
L 147.980794 228.922871 
L 146.422823 229.067851 
L 144.864852 229.533539 
L 143.306881 230.32046 
L 141.74891 231.412904 
L 140.190939 232.777602 
L 138.632969 234.36287 
L 137.074998 236.098259 
L 135.517027 237.894812 
L 133.959056 239.645955 
L 132.401085 241.229094 
L 130.843114 242.50794 
L 129.285144 243.3356 
L 127.727173 243.558427 
L 126.169202 243.02064 
L 124.611231 241.569653 
L 123.05326 239.062097 
L 121.49529 235.37042 
L 119.937319 230.389976 
L 118.379348 224.046459 
L 116.821377 216.303498 
L 115.263406 207.170207 
L 113.705435 196.708435 
L 112.147465 185.039401 
L 110.589494 172.349384 
L 109.031523 158.894055 
L 107.473552 145.000993 
L 105.915581 131.069875 
L 104.35761 117.569754 
L 102.79964 105.032773 
L 101.241669 94.043607 
L 99.683698 85.223826 
L 98.125727 79.210298 
L 96.567756 76.626684 
L 95.009786 78.046957 
L 93.451815 83.949807 
L 91.893844 94.662683 
L 90.335873 110.294122 
L 88.777902 130.652896 
L 87.219931 155.152416 
L 85.661961 182.698687 
L 84.10399 211.55999 
L 82.546019 239.216355 
L 80.988048 262.186713 
L 79.430077 275.831521 
L 77.872106 274.128454 
L 76.314136 249.418656 
L 74.756165 192.120833 
z
" clip-path="url(#p9999c8e03b)" style="fill: #8c564b; fill-opacity: 0.166667"/>
   </g>
   <g id="matplotlib.axis_1">
    <g id="xtick_1">
     <g id="line2d_1">
      <defs>
       <path id="m0756019117" d="M 0 0 
L 0 3.5 
" style="stroke: #000000; stroke-width: 0.8"/>
      </defs>
      <g>
       <use xlink:href="#m0756019117" x="74.756165" y="288.430125" style="stroke: #000000; stroke-width: 0.8"/>
      </g>
     </g>
     <g id="text_1">
      <!-- 0.0000 -->
      <g transform="translate(57.260852 303.028562) scale(0.1 -0.1)">
       <defs>
        <path id="DejaVuSans-30" d="M 2034 4250 
Q 1547 4250 1301 3770 
Q 1056 3291 1056 2328 
Q 1056 1369 1301 889 
Q 1547 409 2034 409 
Q 2525 409 2770 889 
Q 3016 1369 3016 2328 
Q 3016 3291 2770 3770 
Q 2525 4250 2034 4250 
z
M 2034 4750 
Q 2819 4750 3233 4129 
Q 3647 3509 3647 2328 
Q 3647 1150 3233 529 
Q 2819 -91 2034 -91 
Q 1250 -91 836 529 
Q 422 1150 422 2328 
Q 422 3509 836 4129 
Q 1250 4750 2034 4750 
z
" transform="scale(0.015625)"/>
        <path id="DejaVuSans-2e" d="M 684 794 
L 1344 794 
L 1344 0 
L 684 0 
L 684 794 
z
" transform="scale(0.015625)"/>
       </defs>
       <use xlink:href="#DejaVuSans-30"/>
       <use xlink:href="#DejaVuSans-2e" x="63.623047"/>
       <use xlink:href="#DejaVuSans-30" x="95.410156"/>
       <use xlink:href="#DejaVuSans-30" x="159.033203"/>
       <use xlink:href="#DejaVuSans-30" x="222.65625"/>
       <use xlink:href="#DejaVuSans-30" x="286.279297"/>
      </g>
     </g>
    </g>
    <g id="xtick_2">
     <g id="line2d_2">
      <g>
       <use xlink:href="#m0756019117" x="117.962965" y="288.430125" style="stroke: #000000; stroke-width: 0.8"/>
      </g>
     </g>
     <g id="text_2">
      <!-- 0.0005 -->
      <g transform="translate(100.467653 303.028562) scale(0.1 -0.1)">
       <defs>
        <path id="DejaVuSans-35" d="M 691 4666 
L 3169 4666 
L 3169 4134 
L 1269 4134 
L 1269 2991 
Q 1406 3038 1543 3061 
Q 1681 3084 1819 3084 
Q 2600 3084 3056 2656 
Q 3513 2228 3513 1497 
Q 3513 744 3044 326 
Q 2575 -91 1722 -91 
Q 1428 -91 1123 -41 
Q 819 9 494 109 
L 494 744 
Q 775 591 1075 516 
Q 1375 441 1709 441 
Q 2250 441 2565 725 
Q 2881 1009 2881 1497 
Q 2881 1984 2565 2268 
Q 2250 2553 1709 2553 
Q 1456 2553 1204 2497 
Q 953 2441 691 2322 
L 691 4666 
z
" transform="scale(0.015625)"/>
       </defs>
       <use xlink:href="#DejaVuSans-30"/>
       <use xlink:href="#DejaVuSans-2e" x="63.623047"/>
       <use xlink:href="#DejaVuSans-30" x="95.410156"/>
       <use xlink:href="#DejaVuSans-30" x="159.033203"/>
       <use xlink:href="#DejaVuSans-30" x="222.65625"/>
       <use xlink:href="#DejaVuSans-35" x="286.279297"/>
      </g>
     </g>
    </g>
    <g id="xtick_3">
     <g id="line2d_3">
      <g>
       <use xlink:href="#m0756019117" x="161.169766" y="288.430125" style="stroke: #000000; stroke-width: 0.8"/>
      </g>
     </g>
     <g id="text_3">
      <!-- 0.0010 -->
      <g transform="translate(143.674453 303.028562) scale(0.1 -0.1)">
       <defs>
        <path id="DejaVuSans-31" d="M 794 531 
L 1825 531 
L 1825 4091 
L 703 3866 
L 703 4441 
L 1819 4666 
L 2450 4666 
L 2450 531 
L 3481 531 
L 3481 0 
L 794 0 
L 794 531 
z
" transform="scale(0.015625)"/>
       </defs>
       <use xlink:href="#DejaVuSans-30"/>
       <use xlink:href="#DejaVuSans-2e" x="63.623047"/>
       <use xlink:href="#DejaVuSans-30" x="95.410156"/>
       <use xlink:href="#DejaVuSans-30" x="159.033203"/>
       <use xlink:href="#DejaVuSans-31" x="222.65625"/>
       <use xlink:href="#DejaVuSans-30" x="286.279297"/>
      </g>
     </g>
    </g>
    <g id="xtick_4">
     <g id="line2d_4">
      <g>
       <use xlink:href="#m0756019117" x="204.376566" y="288.430125" style="stroke: #000000; stroke-width: 0.8"/>
      </g>
     </g>
     <g id="text_4">
      <!-- 0.0015 -->
      <g transform="translate(186.881254 303.028562) scale(0.1 -0.1)">
       <use xlink:href="#DejaVuSans-30"/>
       <use xlink:href="#DejaVuSans-2e" x="63.623047"/>
       <use xlink:href="#DejaVuSans-30" x="95.410156"/>
       <use xlink:href="#DejaVuSans-30" x="159.033203"/>
       <use xlink:href="#DejaVuSans-31" x="222.65625"/>
       <use xlink:href="#DejaVuSans-35" x="286.279297"/>
      </g>
     </g>
    </g>
    <g id="xtick_5">
     <g id="line2d_5">
      <g>
       <use xlink:href="#m0756019117" x="247.583367" y="288.430125" style="stroke: #000000; stroke-width: 0.8"/>
      </g>
     </g>
     <g id="text_5">
      <!-- 0.0020 -->
      <g transform="translate(230.088054 303.028562) scale(0.1 -0.1)">
       <defs>
        <path id="DejaVuSans-32" d="M 1228 531 
L 3431 531 
L 3431 0 
L 469 0 
L 469 531 
Q 828 903 1448 1529 
Q 2069 2156 2228 2338 
Q 2531 2678 2651 2914 
Q 2772 3150 2772 3378 
Q 2772 3750 2511 3984 
Q 2250 4219 1831 4219 
Q 1534 4219 1204 4116 
Q 875 4013 500 3803 
L 500 4441 
Q 881 4594 1212 4672 
Q 1544 4750 1819 4750 
Q 2544 4750 2975 4387 
Q 3406 4025 3406 3419 
Q 3406 3131 3298 2873 
Q 3191 2616 2906 2266 
Q 2828 2175 2409 1742 
Q 1991 1309 1228 531 
z
" transform="scale(0.015625)"/>
       </defs>
       <use xlink:href="#DejaVuSans-30"/>
       <use xlink:href="#DejaVuSans-2e" x="63.623047"/>
       <use xlink:href="#DejaVuSans-30" x="95.410156"/>
       <use xlink:href="#DejaVuSans-30" x="159.033203"/>
       <use xlink:href="#DejaVuSans-32" x="222.65625"/>
       <use xlink:href="#DejaVuSans-30" x="286.279297"/>
      </g>
     </g>
    </g>
    <g id="xtick_6">
     <g id="line2d_6">
      <g>
       <use xlink:href="#m0756019117" x="290.790168" y="288.430125" style="stroke: #000000; stroke-width: 0.8"/>
      </g>
     </g>
     <g id="text_6">
      <!-- 0.0025 -->
      <g transform="translate(273.294855 303.028562) scale(0.1 -0.1)">
       <use xlink:href="#DejaVuSans-30"/>
       <use xlink:href="#DejaVuSans-2e" x="63.623047"/>
       <use xlink:href="#DejaVuSans-30" x="95.410156"/>
       <use xlink:href="#DejaVuSans-30" x="159.033203"/>
       <use xlink:href="#DejaVuSans-32" x="222.65625"/>
       <use xlink:href="#DejaVuSans-35" x="286.279297"/>
      </g>
     </g>
    </g>
    <g id="xtick_7">
     <g id="line2d_7">
      <g>
       <use xlink:href="#m0756019117" x="333.996968" y="288.430125" style="stroke: #000000; stroke-width: 0.8"/>
      </g>
     </g>
     <g id="text_7">
      <!-- 0.0030 -->
      <g transform="translate(316.501656 303.028562) scale(0.1 -0.1)">
       <defs>
        <path id="DejaVuSans-33" d="M 2597 2516 
Q 3050 2419 3304 2112 
Q 3559 1806 3559 1356 
Q 3559 666 3084 287 
Q 2609 -91 1734 -91 
Q 1441 -91 1130 -33 
Q 819 25 488 141 
L 488 750 
Q 750 597 1062 519 
Q 1375 441 1716 441 
Q 2309 441 2620 675 
Q 2931 909 2931 1356 
Q 2931 1769 2642 2001 
Q 2353 2234 1838 2234 
L 1294 2234 
L 1294 2753 
L 1863 2753 
Q 2328 2753 2575 2939 
Q 2822 3125 2822 3475 
Q 2822 3834 2567 4026 
Q 2313 4219 1838 4219 
Q 1578 4219 1281 4162 
Q 984 4106 628 3988 
L 628 4550 
Q 988 4650 1302 4700 
Q 1616 4750 1894 4750 
Q 2613 4750 3031 4423 
Q 3450 4097 3450 3541 
Q 3450 3153 3228 2886 
Q 3006 2619 2597 2516 
z
" transform="scale(0.015625)"/>
       </defs>
       <use xlink:href="#DejaVuSans-30"/>
       <use xlink:href="#DejaVuSans-2e" x="63.623047"/>
       <use xlink:href="#DejaVuSans-30" x="95.410156"/>
       <use xlink:href="#DejaVuSans-30" x="159.033203"/>
       <use xlink:href="#DejaVuSans-33" x="222.65625"/>
       <use xlink:href="#DejaVuSans-30" x="286.279297"/>
      </g>
     </g>
    </g>
    <g id="xtick_8">
     <g id="line2d_8">
      <g>
       <use xlink:href="#m0756019117" x="377.203769" y="288.430125" style="stroke: #000000; stroke-width: 0.8"/>
      </g>
     </g>
     <g id="text_8">
      <!-- 0.0035 -->
      <g transform="translate(359.708456 303.028562) scale(0.1 -0.1)">
       <use xlink:href="#DejaVuSans-30"/>
       <use xlink:href="#DejaVuSans-2e" x="63.623047"/>
       <use xlink:href="#DejaVuSans-30" x="95.410156"/>
       <use xlink:href="#DejaVuSans-30" x="159.033203"/>
       <use xlink:href="#DejaVuSans-33" x="222.65625"/>
       <use xlink:href="#DejaVuSans-35" x="286.279297"/>
      </g>
     </g>
    </g>
    <g id="text_9">
     <!-- Pixel values -->
     <g transform="translate(207.671719 316.706687) scale(0.1 -0.1)">
      <defs>
       <path id="DejaVuSans-50" d="M 1259 4147 
L 1259 2394 
L 2053 2394 
Q 2494 2394 2734 2622 
Q 2975 2850 2975 3272 
Q 2975 3691 2734 3919 
Q 2494 4147 2053 4147 
L 1259 4147 
z
M 628 4666 
L 2053 4666 
Q 2838 4666 3239 4311 
Q 3641 3956 3641 3272 
Q 3641 2581 3239 2228 
Q 2838 1875 2053 1875 
L 1259 1875 
L 1259 0 
L 628 0 
L 628 4666 
z
" transform="scale(0.015625)"/>
       <path id="DejaVuSans-69" d="M 603 3500 
L 1178 3500 
L 1178 0 
L 603 0 
L 603 3500 
z
M 603 4863 
L 1178 4863 
L 1178 4134 
L 603 4134 
L 603 4863 
z
" transform="scale(0.015625)"/>
       <path id="DejaVuSans-78" d="M 3513 3500 
L 2247 1797 
L 3578 0 
L 2900 0 
L 1881 1375 
L 863 0 
L 184 0 
L 1544 1831 
L 300 3500 
L 978 3500 
L 1906 2253 
L 2834 3500 
L 3513 3500 
z
" transform="scale(0.015625)"/>
       <path id="DejaVuSans-65" d="M 3597 1894 
L 3597 1613 
L 953 1613 
Q 991 1019 1311 708 
Q 1631 397 2203 397 
Q 2534 397 2845 478 
Q 3156 559 3463 722 
L 3463 178 
Q 3153 47 2828 -22 
Q 2503 -91 2169 -91 
Q 1331 -91 842 396 
Q 353 884 353 1716 
Q 353 2575 817 3079 
Q 1281 3584 2069 3584 
Q 2775 3584 3186 3129 
Q 3597 2675 3597 1894 
z
M 3022 2063 
Q 3016 2534 2758 2815 
Q 2500 3097 2075 3097 
Q 1594 3097 1305 2825 
Q 1016 2553 972 2059 
L 3022 2063 
z
" transform="scale(0.015625)"/>
       <path id="DejaVuSans-6c" d="M 603 4863 
L 1178 4863 
L 1178 0 
L 603 0 
L 603 4863 
z
" transform="scale(0.015625)"/>
       <path id="DejaVuSans-20" transform="scale(0.015625)"/>
       <path id="DejaVuSans-76" d="M 191 3500 
L 800 3500 
L 1894 563 
L 2988 3500 
L 3597 3500 
L 2284 0 
L 1503 0 
L 191 3500 
z
" transform="scale(0.015625)"/>
       <path id="DejaVuSans-61" d="M 2194 1759 
Q 1497 1759 1228 1600 
Q 959 1441 959 1056 
Q 959 750 1161 570 
Q 1363 391 1709 391 
Q 2188 391 2477 730 
Q 2766 1069 2766 1631 
L 2766 1759 
L 2194 1759 
z
M 3341 1997 
L 3341 0 
L 2766 0 
L 2766 531 
Q 2569 213 2275 61 
Q 1981 -91 1556 -91 
Q 1019 -91 701 211 
Q 384 513 384 1019 
Q 384 1609 779 1909 
Q 1175 2209 1959 2209 
L 2766 2209 
L 2766 2266 
Q 2766 2663 2505 2880 
Q 2244 3097 1772 3097 
Q 1472 3097 1187 3025 
Q 903 2953 641 2809 
L 641 3341 
Q 956 3463 1253 3523 
Q 1550 3584 1831 3584 
Q 2591 3584 2966 3190 
Q 3341 2797 3341 1997 
z
" transform="scale(0.015625)"/>
       <path id="DejaVuSans-75" d="M 544 1381 
L 544 3500 
L 1119 3500 
L 1119 1403 
Q 1119 906 1312 657 
Q 1506 409 1894 409 
Q 2359 409 2629 706 
Q 2900 1003 2900 1516 
L 2900 3500 
L 3475 3500 
L 3475 0 
L 2900 0 
L 2900 538 
Q 2691 219 2414 64 
Q 2138 -91 1772 -91 
Q 1169 -91 856 284 
Q 544 659 544 1381 
z
M 1991 3584 
L 1991 3584 
z
" transform="scale(0.015625)"/>
       <path id="DejaVuSans-73" d="M 2834 3397 
L 2834 2853 
Q 2591 2978 2328 3040 
Q 2066 3103 1784 3103 
Q 1356 3103 1142 2972 
Q 928 2841 928 2578 
Q 928 2378 1081 2264 
Q 1234 2150 1697 2047 
L 1894 2003 
Q 2506 1872 2764 1633 
Q 3022 1394 3022 966 
Q 3022 478 2636 193 
Q 2250 -91 1575 -91 
Q 1294 -91 989 -36 
Q 684 19 347 128 
L 347 722 
Q 666 556 975 473 
Q 1284 391 1588 391 
Q 1994 391 2212 530 
Q 2431 669 2431 922 
Q 2431 1156 2273 1281 
Q 2116 1406 1581 1522 
L 1381 1569 
Q 847 1681 609 1914 
Q 372 2147 372 2553 
Q 372 3047 722 3315 
Q 1072 3584 1716 3584 
Q 2034 3584 2315 3537 
Q 2597 3491 2834 3397 
z
" transform="scale(0.015625)"/>
      </defs>
      <use xlink:href="#DejaVuSans-50"/>
      <use xlink:href="#DejaVuSans-69" x="58.052734"/>
      <use xlink:href="#DejaVuSans-78" x="85.835938"/>
      <use xlink:href="#DejaVuSans-65" x="141.890625"/>
      <use xlink:href="#DejaVuSans-6c" x="203.414062"/>
      <use xlink:href="#DejaVuSans-20" x="231.197266"/>
      <use xlink:href="#DejaVuSans-76" x="262.984375"/>
      <use xlink:href="#DejaVuSans-61" x="322.164062"/>
      <use xlink:href="#DejaVuSans-6c" x="383.443359"/>
      <use xlink:href="#DejaVuSans-75" x="411.226562"/>
      <use xlink:href="#DejaVuSans-65" x="474.605469"/>
      <use xlink:href="#DejaVuSans-73" x="536.128906"/>
     </g>
    </g>
   </g>
   <g id="matplotlib.axis_2">
    <g id="ytick_1">
     <g id="line2d_9">
      <defs>
       <path id="m06576d38ca" d="M 0 0 
L -3.5 0 
" style="stroke: #000000; stroke-width: 0.8"/>
      </defs>
      <g>
       <use xlink:href="#m06576d38ca" x="58.523438" y="283.353081" style="stroke: #000000; stroke-width: 0.8"/>
      </g>
     </g>
     <g id="text_10">
      <!-- −0.02 -->
      <g transform="translate(20.878125 287.1523) scale(0.1 -0.1)">
       <defs>
        <path id="DejaVuSans-2212" d="M 678 2272 
L 4684 2272 
L 4684 1741 
L 678 1741 
L 678 2272 
z
" transform="scale(0.015625)"/>
       </defs>
       <use xlink:href="#DejaVuSans-2212"/>
       <use xlink:href="#DejaVuSans-30" x="83.789062"/>
       <use xlink:href="#DejaVuSans-2e" x="147.412109"/>
       <use xlink:href="#DejaVuSans-30" x="179.199219"/>
       <use xlink:href="#DejaVuSans-32" x="242.822266"/>
      </g>
     </g>
    </g>
    <g id="ytick_2">
     <g id="line2d_10">
      <g>
       <use xlink:href="#m06576d38ca" x="58.523438" y="237.401311" style="stroke: #000000; stroke-width: 0.8"/>
      </g>
     </g>
     <g id="text_11">
      <!-- 0.00 -->
      <g transform="translate(29.257813 241.20053) scale(0.1 -0.1)">
       <use xlink:href="#DejaVuSans-30"/>
       <use xlink:href="#DejaVuSans-2e" x="63.623047"/>
       <use xlink:href="#DejaVuSans-30" x="95.410156"/>
       <use xlink:href="#DejaVuSans-30" x="159.033203"/>
      </g>
     </g>
    </g>
    <g id="ytick_3">
     <g id="line2d_11">
      <g>
       <use xlink:href="#m06576d38ca" x="58.523438" y="191.44954" style="stroke: #000000; stroke-width: 0.8"/>
      </g>
     </g>
     <g id="text_12">
      <!-- 0.02 -->
      <g transform="translate(29.257813 195.248759) scale(0.1 -0.1)">
       <use xlink:href="#DejaVuSans-30"/>
       <use xlink:href="#DejaVuSans-2e" x="63.623047"/>
       <use xlink:href="#DejaVuSans-30" x="95.410156"/>
       <use xlink:href="#DejaVuSans-32" x="159.033203"/>
      </g>
     </g>
    </g>
    <g id="ytick_4">
     <g id="line2d_12">
      <g>
       <use xlink:href="#m06576d38ca" x="58.523438" y="145.49777" style="stroke: #000000; stroke-width: 0.8"/>
      </g>
     </g>
     <g id="text_13">
      <!-- 0.04 -->
      <g transform="translate(29.257813 149.296988) scale(0.1 -0.1)">
       <defs>
        <path id="DejaVuSans-34" d="M 2419 4116 
L 825 1625 
L 2419 1625 
L 2419 4116 
z
M 2253 4666 
L 3047 4666 
L 3047 1625 
L 3713 1625 
L 3713 1100 
L 3047 1100 
L 3047 0 
L 2419 0 
L 2419 1100 
L 313 1100 
L 313 1709 
L 2253 4666 
z
" transform="scale(0.015625)"/>
       </defs>
       <use xlink:href="#DejaVuSans-30"/>
       <use xlink:href="#DejaVuSans-2e" x="63.623047"/>
       <use xlink:href="#DejaVuSans-30" x="95.410156"/>
       <use xlink:href="#DejaVuSans-34" x="159.033203"/>
      </g>
     </g>
    </g>
    <g id="ytick_5">
     <g id="line2d_13">
      <g>
       <use xlink:href="#m06576d38ca" x="58.523438" y="99.545999" style="stroke: #000000; stroke-width: 0.8"/>
      </g>
     </g>
     <g id="text_14">
      <!-- 0.06 -->
      <g transform="translate(29.257813 103.345218) scale(0.1 -0.1)">
       <defs>
        <path id="DejaVuSans-36" d="M 2113 2584 
Q 1688 2584 1439 2293 
Q 1191 2003 1191 1497 
Q 1191 994 1439 701 
Q 1688 409 2113 409 
Q 2538 409 2786 701 
Q 3034 994 3034 1497 
Q 3034 2003 2786 2293 
Q 2538 2584 2113 2584 
z
M 3366 4563 
L 3366 3988 
Q 3128 4100 2886 4159 
Q 2644 4219 2406 4219 
Q 1781 4219 1451 3797 
Q 1122 3375 1075 2522 
Q 1259 2794 1537 2939 
Q 1816 3084 2150 3084 
Q 2853 3084 3261 2657 
Q 3669 2231 3669 1497 
Q 3669 778 3244 343 
Q 2819 -91 2113 -91 
Q 1303 -91 875 529 
Q 447 1150 447 2328 
Q 447 3434 972 4092 
Q 1497 4750 2381 4750 
Q 2619 4750 2861 4703 
Q 3103 4656 3366 4563 
z
" transform="scale(0.015625)"/>
       </defs>
       <use xlink:href="#DejaVuSans-30"/>
       <use xlink:href="#DejaVuSans-2e" x="63.623047"/>
       <use xlink:href="#DejaVuSans-30" x="95.410156"/>
       <use xlink:href="#DejaVuSans-36" x="159.033203"/>
      </g>
     </g>
    </g>
    <g id="ytick_6">
     <g id="line2d_14">
      <g>
       <use xlink:href="#m06576d38ca" x="58.523438" y="53.594229" style="stroke: #000000; stroke-width: 0.8"/>
      </g>
     </g>
     <g id="text_15">
      <!-- 0.08 -->
      <g transform="translate(29.257813 57.393447) scale(0.1 -0.1)">
       <defs>
        <path id="DejaVuSans-38" d="M 2034 2216 
Q 1584 2216 1326 1975 
Q 1069 1734 1069 1313 
Q 1069 891 1326 650 
Q 1584 409 2034 409 
Q 2484 409 2743 651 
Q 3003 894 3003 1313 
Q 3003 1734 2745 1975 
Q 2488 2216 2034 2216 
z
M 1403 2484 
Q 997 2584 770 2862 
Q 544 3141 544 3541 
Q 544 4100 942 4425 
Q 1341 4750 2034 4750 
Q 2731 4750 3128 4425 
Q 3525 4100 3525 3541 
Q 3525 3141 3298 2862 
Q 3072 2584 2669 2484 
Q 3125 2378 3379 2068 
Q 3634 1759 3634 1313 
Q 3634 634 3220 271 
Q 2806 -91 2034 -91 
Q 1263 -91 848 271 
Q 434 634 434 1313 
Q 434 1759 690 2068 
Q 947 2378 1403 2484 
z
M 1172 3481 
Q 1172 3119 1398 2916 
Q 1625 2713 2034 2713 
Q 2441 2713 2670 2916 
Q 2900 3119 2900 3481 
Q 2900 3844 2670 4047 
Q 2441 4250 2034 4250 
Q 1625 4250 1398 4047 
Q 1172 3844 1172 3481 
z
" transform="scale(0.015625)"/>
       </defs>
       <use xlink:href="#DejaVuSans-30"/>
       <use xlink:href="#DejaVuSans-2e" x="63.623047"/>
       <use xlink:href="#DejaVuSans-30" x="95.410156"/>
       <use xlink:href="#DejaVuSans-38" x="159.033203"/>
      </g>
     </g>
    </g>
    <g id="text_16">
     <!-- Frequency -->
     <g transform="translate(14.798438 181.203812) rotate(-90) scale(0.1 -0.1)">
      <defs>
       <path id="DejaVuSans-46" d="M 628 4666 
L 3309 4666 
L 3309 4134 
L 1259 4134 
L 1259 2759 
L 3109 2759 
L 3109 2228 
L 1259 2228 
L 1259 0 
L 628 0 
L 628 4666 
z
" transform="scale(0.015625)"/>
       <path id="DejaVuSans-72" d="M 2631 2963 
Q 2534 3019 2420 3045 
Q 2306 3072 2169 3072 
Q 1681 3072 1420 2755 
Q 1159 2438 1159 1844 
L 1159 0 
L 581 0 
L 581 3500 
L 1159 3500 
L 1159 2956 
Q 1341 3275 1631 3429 
Q 1922 3584 2338 3584 
Q 2397 3584 2469 3576 
Q 2541 3569 2628 3553 
L 2631 2963 
z
" transform="scale(0.015625)"/>
       <path id="DejaVuSans-71" d="M 947 1747 
Q 947 1113 1208 752 
Q 1469 391 1925 391 
Q 2381 391 2643 752 
Q 2906 1113 2906 1747 
Q 2906 2381 2643 2742 
Q 2381 3103 1925 3103 
Q 1469 3103 1208 2742 
Q 947 2381 947 1747 
z
M 2906 525 
Q 2725 213 2448 61 
Q 2172 -91 1784 -91 
Q 1150 -91 751 415 
Q 353 922 353 1747 
Q 353 2572 751 3078 
Q 1150 3584 1784 3584 
Q 2172 3584 2448 3432 
Q 2725 3281 2906 2969 
L 2906 3500 
L 3481 3500 
L 3481 -1331 
L 2906 -1331 
L 2906 525 
z
" transform="scale(0.015625)"/>
       <path id="DejaVuSans-6e" d="M 3513 2113 
L 3513 0 
L 2938 0 
L 2938 2094 
Q 2938 2591 2744 2837 
Q 2550 3084 2163 3084 
Q 1697 3084 1428 2787 
Q 1159 2491 1159 1978 
L 1159 0 
L 581 0 
L 581 3500 
L 1159 3500 
L 1159 2956 
Q 1366 3272 1645 3428 
Q 1925 3584 2291 3584 
Q 2894 3584 3203 3211 
Q 3513 2838 3513 2113 
z
" transform="scale(0.015625)"/>
       <path id="DejaVuSans-63" d="M 3122 3366 
L 3122 2828 
Q 2878 2963 2633 3030 
Q 2388 3097 2138 3097 
Q 1578 3097 1268 2742 
Q 959 2388 959 1747 
Q 959 1106 1268 751 
Q 1578 397 2138 397 
Q 2388 397 2633 464 
Q 2878 531 3122 666 
L 3122 134 
Q 2881 22 2623 -34 
Q 2366 -91 2075 -91 
Q 1284 -91 818 406 
Q 353 903 353 1747 
Q 353 2603 823 3093 
Q 1294 3584 2113 3584 
Q 2378 3584 2631 3529 
Q 2884 3475 3122 3366 
z
" transform="scale(0.015625)"/>
       <path id="DejaVuSans-79" d="M 2059 -325 
Q 1816 -950 1584 -1140 
Q 1353 -1331 966 -1331 
L 506 -1331 
L 506 -850 
L 844 -850 
Q 1081 -850 1212 -737 
Q 1344 -625 1503 -206 
L 1606 56 
L 191 3500 
L 800 3500 
L 1894 763 
L 2988 3500 
L 3597 3500 
L 2059 -325 
z
" transform="scale(0.015625)"/>
      </defs>
      <use xlink:href="#DejaVuSans-46"/>
      <use xlink:href="#DejaVuSans-72" x="50.269531"/>
      <use xlink:href="#DejaVuSans-65" x="89.132812"/>
      <use xlink:href="#DejaVuSans-71" x="150.65625"/>
      <use xlink:href="#DejaVuSans-75" x="214.132812"/>
      <use xlink:href="#DejaVuSans-65" x="277.511719"/>
      <use xlink:href="#DejaVuSans-6e" x="339.035156"/>
      <use xlink:href="#DejaVuSans-63" x="402.414062"/>
      <use xlink:href="#DejaVuSans-79" x="457.394531"/>
     </g>
    </g>
   </g>
   <g id="line2d_15">
    <path d="M 74.756165 205.158526 
L 78.035504 233.20389 
L 81.314842 234.241349 
L 84.594181 218.96904 
L 87.87352 195.342312 
L 91.152859 169.081614 
L 94.432198 144.1105 
L 97.711537 122.93081 
L 100.990876 106.941623 
L 104.270214 96.708061 
L 107.549553 92.185577 
L 110.828892 92.904931 
L 114.108231 98.122627 
L 117.38757 106.941195 
L 120.666909 118.403331 
L 123.946247 131.563538 
L 127.225586 145.540602 
L 130.504925 159.553879 
L 133.784264 172.946123 
L 137.063603 185.195246 
L 140.342942 195.917191 
L 143.62228 204.86181 
L 146.901619 211.903441 
L 150.180958 217.027633 
L 153.460297 220.315301 
L 156.739636 221.925386 
L 160.018975 222.076925 
L 163.298314 221.031299 
L 166.577652 219.07527 
L 169.856991 216.505279 
L 173.13633 213.613389 
L 176.415669 210.675125 
L 179.695008 207.939378 
L 182.974347 205.620459 
L 186.253685 203.89232 
L 189.533024 202.884887 
L 192.812363 202.682394 
L 196.091702 203.323591 
L 199.371041 204.803621 
L 202.65038 207.077364 
L 205.929718 210.064018 
L 209.209057 213.652673 
L 212.488396 217.708612 
L 215.767735 222.080108 
L 219.047074 226.605455 
L 222.326413 231.119987 
L 225.605752 235.462886 
L 228.88509 239.483539 
L 232.164429 243.047288 
L 235.443768 237.395533 
L 238.723107 237.395993 
L 242.002446 248.43583 
L 245.281785 249.509492 
L 248.561123 249.905135 
L 251.840462 249.63907 
L 255.119801 248.753348 
L 258.39914 247.313931 
L 261.678479 245.407992 
L 264.957818 243.140427 
L 268.237157 240.629694 
L 271.516495 238.003086 
L 274.795834 235.391606 
L 278.075173 232.924604 
L 281.354512 230.724337 
L 284.633851 228.900659 
L 287.91319 227.546019 
L 291.192528 226.730973 
L 294.471867 226.500395 
L 297.751206 226.870569 
L 301.030545 227.827344 
L 304.309884 229.325495 
L 307.589223 231.289425 
L 310.868561 233.615298 
L 314.1479 236.174665 
L 317.427239 238.819597 
L 320.706578 241.38928 
L 323.985917 243.717965 
L 327.265256 245.644113 
L 330.544595 247.020471 
L 333.823933 247.724742 
L 337.103272 247.670408 
L 340.382611 246.817162 
L 343.66195 245.180286 
L 346.941289 242.838164 
L 350.220628 239.937017 
L 353.499966 236.691743 
L 356.779305 233.381633 
L 360.058644 230.339518 
L 363.337983 227.932719 
L 366.617322 226.533997 
L 369.896661 226.480434 
L 373.175999 228.01799 
L 376.455338 231.229211 
L 379.734677 235.94131 
L 383.014016 241.611556 
L 386.293355 247.186643 
L 389.572694 250.932364 
L 392.852033 250.22963 
L 396.131371 241.332501 
L 399.41071 219.083565 
" clip-path="url(#p9999c8e03b)" style="fill: none; stroke: #1f77b4; stroke-width: 1.5; stroke-linecap: square"/>
   </g>
   <g id="line2d_16">
    <path d="M 74.756165 172.702528 
L 76.464696 248.57602 
L 78.173226 276.334125 
L 79.881757 272.122345 
L 81.590288 248.383004 
L 83.298819 214.483992 
L 85.00735 177.266913 
L 86.715881 141.522333 
L 88.424411 110.399302 
L 90.132942 85.755809 
L 91.841473 68.456389 
L 93.550004 58.622595 
L 95.258535 55.841662 
L 96.967065 59.338254 
L 98.675596 68.113775 
L 100.384127 81.057404 
L 102.092658 97.032587 
L 103.801189 114.942467 
L 105.50972 133.777327 
L 107.21825 152.64691 
L 108.926781 170.800119 
L 110.635312 187.634405 
L 112.343843 202.696838 
L 114.052374 215.678682 
L 115.760904 226.405031 
L 117.469435 234.820901 
L 119.177966 240.974942 
L 120.886497 245.001809 
L 122.595028 247.104034 
L 124.303559 247.534101 
L 126.012089 246.577324 
L 127.72062 244.535951 
L 129.429151 241.714856 
L 131.137682 238.409062 
L 132.846213 234.893247 
L 134.554744 231.413305 
L 136.263274 228.179996 
L 137.971805 225.364609 
L 139.680336 223.096566 
L 141.388867 221.462809 
L 143.097398 220.508817 
L 144.805928 220.241033 
L 146.514459 220.630517 
L 148.22299 221.617559 
L 149.931521 223.11705 
L 151.640052 225.024358 
L 153.348583 227.221485 
L 155.057113 229.583275 
L 156.765644 231.983483 
L 158.474175 237.398454 
L 160.182706 237.397358 
L 161.891237 239.752541 
L 163.599768 241.544114 
L 165.308298 242.819356 
L 167.016829 243.532918 
L 168.72536 243.667427 
L 170.433891 243.233646 
L 172.142422 242.269501 
L 173.850952 240.838032 
L 175.559483 239.024328 
L 177.268014 236.931571 
L 178.976545 234.676316 
L 180.685076 232.383176 
L 182.393607 230.179083 
L 184.102137 228.187345 
L 185.810668 226.521704 
L 187.519199 225.28063 
L 189.22773 224.542086 
L 190.936261 224.358983 
L 192.644791 224.755572 
L 194.353322 225.724967 
L 196.061853 227.227998 
L 197.770384 229.193554 
L 199.478915 231.520547 
L 201.187446 234.081566 
L 202.895976 236.728253 
L 204.604507 239.298363 
L 206.313038 241.62438 
L 208.021569 243.543499 
L 209.7301 244.908669 
L 211.438631 245.600279 
L 213.147161 245.537971 
L 214.855692 244.691894 
L 216.564223 243.092595 
L 218.272754 240.838564 
L 219.981285 238.10027 
L 221.689815 235.119344 
L 223.398346 232.201353 
L 225.106877 229.700372 
L 226.815408 227.993341 
L 228.523939 227.441919 
L 230.23247 228.339275 
L 231.941 230.838973 
L 233.649531 234.862768 
L 235.358062 239.983835 
L 237.066593 245.281565 
L 238.775124 249.163709 
L 240.483654 249.151263 
L 242.192185 241.621043 
L 243.900716 221.5005 
" clip-path="url(#p9999c8e03b)" style="fill: none; stroke: #ff7f0e; stroke-width: 1.5; stroke-linecap: square"/>
   </g>
   <g id="line2d_17">
    <path d="M 74.756165 254.656648 
L 77.336331 235.177707 
L 79.916498 201.205534 
L 82.496664 161.676073 
L 85.07683 122.873316 
L 87.656997 88.956432 
L 90.237163 62.411366 
L 92.81733 44.434746 
L 95.397496 35.257386 
L 97.977662 34.414125 
L 100.557829 40.966211 
L 103.137995 53.68196 
L 105.718162 71.180951 
L 108.298328 92.046564 
L 110.878494 114.911256 
L 113.458661 138.518563 
L 116.038827 161.765445 
L 118.618994 183.728241 
L 121.19916 203.675134 
L 123.779326 221.067779 
L 126.359493 235.554363 
L 128.939659 246.956183 
L 131.519826 255.249489 
L 134.099992 260.544168 
L 136.680158 263.060581 
L 139.260325 263.105674 
L 141.840491 261.049301 
L 144.420658 257.301527 
L 147.000824 252.291502 
L 149.58099 246.44839 
L 152.161157 240.184666 
L 154.741323 233.882024 
L 157.32149 227.880006 
L 159.901656 222.467374 
L 162.481823 217.876206 
L 165.061989 214.278564 
L 167.642155 211.785612 
L 170.222322 210.448924 
L 172.802488 210.263768 
L 175.382655 211.174074 
L 177.962821 213.078789 
L 180.542987 215.839325 
L 183.123154 219.287768 
L 185.70332 223.235573 
L 188.283487 227.482412 
L 190.863653 231.824923 
L 193.443819 236.065072 
L 196.023986 240.0179 
L 198.604152 243.518439 
L 201.184319 237.395146 
L 203.764485 237.39658 
L 206.344651 245.24584 
L 208.924818 245.900989 
L 211.504984 245.988597 
L 214.085151 245.527813 
L 216.665317 244.561046 
L 219.245483 243.151869 
L 221.82565 241.38217 
L 224.405816 239.348649 
L 226.985983 237.158756 
L 229.566149 234.92621 
L 232.146315 232.766236 
L 234.726482 230.790658 
L 237.306648 229.103038 
L 239.886815 227.794002 
L 242.466981 226.936936 
L 245.047147 226.584222 
L 247.627314 226.764177 
L 250.20748 227.478846 
L 252.787647 228.702802 
L 255.367813 230.38306 
L 257.947979 232.440211 
L 260.528146 234.770854 
L 263.108312 237.251334 
L 265.688479 239.742803 
L 268.268645 242.097528 
L 270.848812 244.166338 
L 273.428978 245.807039 
L 276.009144 246.893543 
L 278.589311 247.325392 
L 281.169477 247.037268 
L 283.749644 246.007982 
L 286.32981 244.268336 
L 288.909976 241.907143 
L 291.490143 239.074562 
L 294.070309 235.981769 
L 296.650476 232.895869 
L 299.230642 230.12877 
L 301.810808 228.0186 
L 304.390975 226.902069 
L 306.971141 227.075989 
L 309.551308 228.745982 
L 312.131474 231.960181 
L 314.71164 236.525532 
L 317.291807 241.904044 
L 319.871973 247.086118 
L 322.45214 250.437812 
L 325.032306 249.518629 
L 327.612472 240.866133 
L 330.192639 219.743395 
" clip-path="url(#p9999c8e03b)" style="fill: none; stroke: #2ca02c; stroke-width: 1.5; stroke-linecap: square"/>
   </g>
   <g id="line2d_18">
    <path d="M 74.756165 191.154391 
L 76.409358 211.420748 
L 78.062551 226.564525 
L 79.715744 236.443779 
L 81.368937 241.27758 
L 83.02213 241.540605 
L 84.675323 237.875789 
L 86.328516 231.022964 
L 87.981709 221.761568 
L 89.634902 210.865655 
L 91.288095 199.06959 
L 92.941288 187.042944 
L 94.594481 175.373248 
L 96.247674 164.55536 
L 97.900867 154.986365 
L 99.55406 146.964979 
L 101.207253 140.694589 
L 102.860446 136.289114 
L 104.513639 133.780999 
L 106.166832 133.130707 
L 107.820025 134.237185 
L 109.473218 136.948832 
L 111.126411 141.074575 
L 112.779604 146.394728 
L 114.432797 152.671351 
L 116.08599 159.657905 
L 117.739183 167.108016 
L 119.392376 174.783239 
L 121.045569 182.459731 
L 122.698762 189.933781 
L 124.351955 197.026185 
L 126.005148 203.585477 
L 127.658341 209.490046 
L 129.311534 214.649205 
L 130.964727 219.003274 
L 132.61792 222.522775 
L 134.271113 225.206833 
L 135.924306 227.080893 
L 137.577499 228.193866 
L 139.230692 228.614817 
L 140.883885 228.429323 
L 142.537078 227.735606 
L 144.190271 226.640562 
L 145.843464 225.255797 
L 147.496657 223.693758 
L 149.14985 222.064078 
L 150.803043 220.470195 
L 152.456236 219.006337 
L 154.109429 217.754927 
L 155.762622 237.400959 
L 157.415815 237.401245 
L 159.069008 215.707786 
L 160.722201 215.688924 
L 162.375394 216.075062 
L 164.028587 216.857743 
L 165.68178 218.012505 
L 167.334973 219.500258 
L 168.988166 221.269125 
L 170.641359 223.256671 
L 172.294552 225.39247 
L 173.947745 227.600927 
L 175.600938 229.804277 
L 177.254131 231.925669 
L 178.907324 233.892239 
L 180.560517 235.638088 
L 182.21371 237.107036 
L 183.866903 238.25509 
L 185.520096 239.0525 
L 187.173289 239.485327 
L 188.826482 239.556436 
L 190.479675 239.285837 
L 192.132868 238.710329 
L 193.786061 237.882377 
L 195.439254 236.86823 
L 197.092447 235.745253 
L 198.74564 234.598515 
L 200.398833 233.516688 
L 202.052026 232.587334 
L 203.705219 231.891737 
L 205.358412 231.499416 
L 207.011605 231.462579 
L 208.664798 231.81075 
L 210.317991 232.545925 
L 211.971184 233.638636 
L 213.624377 235.02538 
L 215.27757 236.607931 
L 216.930763 238.255164 
L 218.583956 239.808058 
L 220.237149 241.08866 
L 221.890342 241.913889 
L 223.543535 242.115149 
L 225.196728 241.564826 
L 226.849921 240.210876 
L 228.503114 238.120801 
L 230.156307 235.536475 
L 231.8095 232.941375 
L 233.462693 231.141956 
L 235.115886 231.365013 
L 236.769079 235.373076 
L 238.422272 245.600007 
" clip-path="url(#p9999c8e03b)" style="fill: none; stroke: #d62728; stroke-width: 1.5; stroke-linecap: square"/>
   </g>
   <g id="line2d_19">
    <path d="M 74.756165 199.175536 
L 76.337198 229.043734 
L 77.918231 242.130358 
L 79.499264 243.591904 
L 81.080297 237.461712 
L 82.66133 226.835406 
L 84.242363 214.032898 
L 85.823396 200.739175 
L 87.404429 188.125937 
L 88.985462 176.956031 
L 90.566494 167.672455 
L 92.147527 160.473604 
L 93.72856 155.37629 
L 95.309593 152.267951 
L 96.890626 150.949352 
L 98.471659 151.168977 
L 100.052692 152.650194 
L 101.633725 155.1122 
L 103.214758 158.285649 
L 104.795791 161.923768 
L 106.376824 165.809722 
L 107.957857 169.760864 
L 109.53889 173.630472 
L 111.119923 177.307494 
L 112.700956 180.714759 
L 114.281989 183.806052 
L 115.863022 186.562402 
L 117.444055 188.987885 
L 119.025088 191.105185 
L 120.606121 192.951123 
L 122.187154 194.572335 
L 123.768187 196.021216 
L 125.34922 197.352248 
L 126.930253 198.61878 
L 128.511286 199.870312 
L 130.092319 201.150311 
L 131.673352 202.494561 
L 133.254385 203.930044 
L 134.835418 205.474327 
L 136.416451 207.135414 
L 137.997484 208.912032 
L 139.578517 210.794273 
L 141.15955 212.764566 
L 142.740583 214.798891 
L 144.321615 216.868184 
L 145.902648 218.939866 
L 147.483681 220.979435 
L 149.064714 222.952061 
L 150.645747 224.824125 
L 152.22678 237.397314 
L 153.807813 237.3974 
L 155.388846 229.575746 
L 156.969879 230.842493 
L 158.550912 231.89958 
L 160.131945 232.741581 
L 161.712978 233.370194 
L 163.294011 233.794149 
L 164.875044 234.028841 
L 166.456077 234.095712 
L 168.03711 234.021386 
L 169.618143 233.8366 
L 171.199176 233.574958 
L 172.780209 233.271554 
L 174.361242 232.961502 
L 175.942275 232.678437 
L 177.523308 232.453036 
L 179.104341 232.311609 
L 180.685374 232.274834 
L 182.266407 232.356674 
L 183.84744 232.56355 
L 185.428473 232.893814 
L 187.009506 233.33756 
L 188.590539 233.876827 
L 190.171572 234.486212 
L 191.752605 235.133918 
L 193.333638 235.783221 
L 194.914671 236.394374 
L 196.495704 236.926877 
L 198.076736 237.342088 
L 199.657769 237.606071 
L 201.238802 237.692584 
L 202.819835 237.586063 
L 204.400868 237.284418 
L 205.981901 236.801441 
L 207.562934 236.168559 
L 209.143967 235.435628 
L 210.725 234.670429 
L 212.306033 233.956451 
L 213.887066 233.388501 
L 215.468099 233.065624 
L 217.049132 233.080728 
L 218.630165 233.506273 
L 220.211198 234.375275 
L 221.792231 235.656809 
L 223.373264 237.225121 
L 224.954297 238.821342 
L 226.53533 240.006742 
L 228.116363 240.106304 
L 229.697396 238.141361 
L 231.278429 232.749867 
" clip-path="url(#p9999c8e03b)" style="fill: none; stroke: #9467bd; stroke-width: 1.5; stroke-linecap: square"/>
   </g>
   <g id="line2d_20">
    <path d="M 74.756165 192.120833 
L 76.314136 249.418656 
L 77.872106 274.128454 
L 79.430077 275.831521 
L 80.988048 262.186713 
L 82.546019 239.216355 
L 84.10399 211.55999 
L 85.661961 182.698687 
L 87.219931 155.152416 
L 88.777902 130.652896 
L 90.335873 110.294122 
L 91.893844 94.662683 
L 93.451815 83.949807 
L 95.009786 78.046957 
L 96.567756 76.626684 
L 98.125727 79.210298 
L 99.683698 85.223826 
L 101.241669 94.043607 
L 102.79964 105.032773 
L 104.35761 117.569754 
L 105.915581 131.069875 
L 107.473552 145.000993 
L 109.031523 158.894055 
L 110.589494 172.349384 
L 112.147465 185.039401 
L 113.705435 196.708435 
L 115.263406 207.170207 
L 116.821377 216.303498 
L 118.379348 224.046459 
L 119.937319 230.389976 
L 121.49529 235.37042 
L 123.05326 239.062097 
L 124.611231 241.569653 
L 126.169202 243.02064 
L 127.727173 243.558427 
L 129.285144 243.3356 
L 130.843114 242.50794 
L 132.401085 241.229094 
L 133.959056 239.645955 
L 135.517027 237.894812 
L 137.074998 236.098259 
L 138.632969 234.36287 
L 140.190939 232.777602 
L 141.74891 231.412904 
L 143.306881 230.32046 
L 144.864852 229.533539 
L 146.422823 229.067851 
L 147.980794 228.922871 
L 149.538764 229.083528 
L 151.096735 237.402456 
L 152.654706 237.40114 
L 154.212677 233.738475 
L 155.770648 234.920483 
L 157.328619 236.049505 
L 158.886589 237.071007 
L 160.44456 237.938384 
L 162.002531 238.614665 
L 163.560502 239.07374 
L 165.118473 239.301084 
L 166.676443 239.293986 
L 168.234414 239.061263 
L 169.792385 238.622514 
L 171.350356 238.006925 
L 172.908327 237.251687 
L 174.466298 236.400085 
L 176.024268 235.499336 
L 177.582239 234.598247 
L 179.14021 233.744798 
L 180.698181 232.983735 
L 182.256152 232.354273 
L 183.814123 231.888017 
L 185.372093 231.60719 
L 186.930064 231.523271 
L 188.488035 231.636118 
L 190.046006 231.933661 
L 191.603977 232.392224 
L 193.161948 232.977511 
L 194.719918 233.646275 
L 196.277889 234.34867 
L 197.83586 235.031235 
L 199.393831 235.640431 
L 200.951802 236.126626 
L 202.509772 236.448341 
L 204.067743 236.576547 
L 205.625714 236.498742 
L 207.183685 236.222448 
L 208.741656 235.777727 
L 210.299627 235.218215 
L 211.857597 234.620109 
L 213.415568 234.078426 
L 214.973539 233.699782 
L 216.53151 233.590801 
L 218.089481 233.841196 
L 219.647452 234.500376 
L 221.205422 235.546384 
L 222.763393 236.845756 
L 224.321364 238.102792 
L 225.879335 238.796564 
L 227.437306 238.103811 
L 228.995277 234.805697 
" clip-path="url(#p9999c8e03b)" style="fill: none; stroke: #8c564b; stroke-width: 1.5; stroke-linecap: square"/>
   </g>
   <g id="patch_3">
    <path d="M 58.523438 288.430125 
L 58.523438 22.318125 
" style="fill: none; stroke: #000000; stroke-width: 0.8; stroke-linejoin: miter; stroke-linecap: square"/>
   </g>
   <g id="patch_4">
    <path d="M 415.643438 288.430125 
L 415.643438 22.318125 
" style="fill: none; stroke: #000000; stroke-width: 0.8; stroke-linejoin: miter; stroke-linecap: square"/>
   </g>
   <g id="patch_5">
    <path d="M 58.523438 288.430125 
L 415.643438 288.430125 
" style="fill: none; stroke: #000000; stroke-width: 0.8; stroke-linejoin: miter; stroke-linecap: square"/>
   </g>
   <g id="patch_6">
    <path d="M 58.523438 22.318125 
L 415.643438 22.318125 
" style="fill: none; stroke: #000000; stroke-width: 0.8; stroke-linejoin: miter; stroke-linecap: square"/>
   </g>
   <g id="text_17">
    <!-- RD - xtract_prob_Superior_Thalamic_Radiation_R -->
    <g transform="translate(90.789375 16.318125) scale(0.12 -0.12)">
     <defs>
      <path id="DejaVuSans-52" d="M 2841 2188 
Q 3044 2119 3236 1894 
Q 3428 1669 3622 1275 
L 4263 0 
L 3584 0 
L 2988 1197 
Q 2756 1666 2539 1819 
Q 2322 1972 1947 1972 
L 1259 1972 
L 1259 0 
L 628 0 
L 628 4666 
L 2053 4666 
Q 2853 4666 3247 4331 
Q 3641 3997 3641 3322 
Q 3641 2881 3436 2590 
Q 3231 2300 2841 2188 
z
M 1259 4147 
L 1259 2491 
L 2053 2491 
Q 2509 2491 2742 2702 
Q 2975 2913 2975 3322 
Q 2975 3731 2742 3939 
Q 2509 4147 2053 4147 
L 1259 4147 
z
" transform="scale(0.015625)"/>
      <path id="DejaVuSans-44" d="M 1259 4147 
L 1259 519 
L 2022 519 
Q 2988 519 3436 956 
Q 3884 1394 3884 2338 
Q 3884 3275 3436 3711 
Q 2988 4147 2022 4147 
L 1259 4147 
z
M 628 4666 
L 1925 4666 
Q 3281 4666 3915 4102 
Q 4550 3538 4550 2338 
Q 4550 1131 3912 565 
Q 3275 0 1925 0 
L 628 0 
L 628 4666 
z
" transform="scale(0.015625)"/>
      <path id="DejaVuSans-2d" d="M 313 2009 
L 1997 2009 
L 1997 1497 
L 313 1497 
L 313 2009 
z
" transform="scale(0.015625)"/>
      <path id="DejaVuSans-74" d="M 1172 4494 
L 1172 3500 
L 2356 3500 
L 2356 3053 
L 1172 3053 
L 1172 1153 
Q 1172 725 1289 603 
Q 1406 481 1766 481 
L 2356 481 
L 2356 0 
L 1766 0 
Q 1100 0 847 248 
Q 594 497 594 1153 
L 594 3053 
L 172 3053 
L 172 3500 
L 594 3500 
L 594 4494 
L 1172 4494 
z
" transform="scale(0.015625)"/>
      <path id="DejaVuSans-5f" d="M 3263 -1063 
L 3263 -1509 
L -63 -1509 
L -63 -1063 
L 3263 -1063 
z
" transform="scale(0.015625)"/>
      <path id="DejaVuSans-70" d="M 1159 525 
L 1159 -1331 
L 581 -1331 
L 581 3500 
L 1159 3500 
L 1159 2969 
Q 1341 3281 1617 3432 
Q 1894 3584 2278 3584 
Q 2916 3584 3314 3078 
Q 3713 2572 3713 1747 
Q 3713 922 3314 415 
Q 2916 -91 2278 -91 
Q 1894 -91 1617 61 
Q 1341 213 1159 525 
z
M 3116 1747 
Q 3116 2381 2855 2742 
Q 2594 3103 2138 3103 
Q 1681 3103 1420 2742 
Q 1159 2381 1159 1747 
Q 1159 1113 1420 752 
Q 1681 391 2138 391 
Q 2594 391 2855 752 
Q 3116 1113 3116 1747 
z
" transform="scale(0.015625)"/>
      <path id="DejaVuSans-6f" d="M 1959 3097 
Q 1497 3097 1228 2736 
Q 959 2375 959 1747 
Q 959 1119 1226 758 
Q 1494 397 1959 397 
Q 2419 397 2687 759 
Q 2956 1122 2956 1747 
Q 2956 2369 2687 2733 
Q 2419 3097 1959 3097 
z
M 1959 3584 
Q 2709 3584 3137 3096 
Q 3566 2609 3566 1747 
Q 3566 888 3137 398 
Q 2709 -91 1959 -91 
Q 1206 -91 779 398 
Q 353 888 353 1747 
Q 353 2609 779 3096 
Q 1206 3584 1959 3584 
z
" transform="scale(0.015625)"/>
      <path id="DejaVuSans-62" d="M 3116 1747 
Q 3116 2381 2855 2742 
Q 2594 3103 2138 3103 
Q 1681 3103 1420 2742 
Q 1159 2381 1159 1747 
Q 1159 1113 1420 752 
Q 1681 391 2138 391 
Q 2594 391 2855 752 
Q 3116 1113 3116 1747 
z
M 1159 2969 
Q 1341 3281 1617 3432 
Q 1894 3584 2278 3584 
Q 2916 3584 3314 3078 
Q 3713 2572 3713 1747 
Q 3713 922 3314 415 
Q 2916 -91 2278 -91 
Q 1894 -91 1617 61 
Q 1341 213 1159 525 
L 1159 0 
L 581 0 
L 581 4863 
L 1159 4863 
L 1159 2969 
z
" transform="scale(0.015625)"/>
      <path id="DejaVuSans-53" d="M 3425 4513 
L 3425 3897 
Q 3066 4069 2747 4153 
Q 2428 4238 2131 4238 
Q 1616 4238 1336 4038 
Q 1056 3838 1056 3469 
Q 1056 3159 1242 3001 
Q 1428 2844 1947 2747 
L 2328 2669 
Q 3034 2534 3370 2195 
Q 3706 1856 3706 1288 
Q 3706 609 3251 259 
Q 2797 -91 1919 -91 
Q 1588 -91 1214 -16 
Q 841 59 441 206 
L 441 856 
Q 825 641 1194 531 
Q 1563 422 1919 422 
Q 2459 422 2753 634 
Q 3047 847 3047 1241 
Q 3047 1584 2836 1778 
Q 2625 1972 2144 2069 
L 1759 2144 
Q 1053 2284 737 2584 
Q 422 2884 422 3419 
Q 422 4038 858 4394 
Q 1294 4750 2059 4750 
Q 2388 4750 2728 4690 
Q 3069 4631 3425 4513 
z
" transform="scale(0.015625)"/>
      <path id="DejaVuSans-54" d="M -19 4666 
L 3928 4666 
L 3928 4134 
L 2272 4134 
L 2272 0 
L 1638 0 
L 1638 4134 
L -19 4134 
L -19 4666 
z
" transform="scale(0.015625)"/>
      <path id="DejaVuSans-68" d="M 3513 2113 
L 3513 0 
L 2938 0 
L 2938 2094 
Q 2938 2591 2744 2837 
Q 2550 3084 2163 3084 
Q 1697 3084 1428 2787 
Q 1159 2491 1159 1978 
L 1159 0 
L 581 0 
L 581 4863 
L 1159 4863 
L 1159 2956 
Q 1366 3272 1645 3428 
Q 1925 3584 2291 3584 
Q 2894 3584 3203 3211 
Q 3513 2838 3513 2113 
z
" transform="scale(0.015625)"/>
      <path id="DejaVuSans-6d" d="M 3328 2828 
Q 3544 3216 3844 3400 
Q 4144 3584 4550 3584 
Q 5097 3584 5394 3201 
Q 5691 2819 5691 2113 
L 5691 0 
L 5113 0 
L 5113 2094 
Q 5113 2597 4934 2840 
Q 4756 3084 4391 3084 
Q 3944 3084 3684 2787 
Q 3425 2491 3425 1978 
L 3425 0 
L 2847 0 
L 2847 2094 
Q 2847 2600 2669 2842 
Q 2491 3084 2119 3084 
Q 1678 3084 1418 2786 
Q 1159 2488 1159 1978 
L 1159 0 
L 581 0 
L 581 3500 
L 1159 3500 
L 1159 2956 
Q 1356 3278 1631 3431 
Q 1906 3584 2284 3584 
Q 2666 3584 2933 3390 
Q 3200 3197 3328 2828 
z
" transform="scale(0.015625)"/>
      <path id="DejaVuSans-64" d="M 2906 2969 
L 2906 4863 
L 3481 4863 
L 3481 0 
L 2906 0 
L 2906 525 
Q 2725 213 2448 61 
Q 2172 -91 1784 -91 
Q 1150 -91 751 415 
Q 353 922 353 1747 
Q 353 2572 751 3078 
Q 1150 3584 1784 3584 
Q 2172 3584 2448 3432 
Q 2725 3281 2906 2969 
z
M 947 1747 
Q 947 1113 1208 752 
Q 1469 391 1925 391 
Q 2381 391 2643 752 
Q 2906 1113 2906 1747 
Q 2906 2381 2643 2742 
Q 2381 3103 1925 3103 
Q 1469 3103 1208 2742 
Q 947 2381 947 1747 
z
" transform="scale(0.015625)"/>
     </defs>
     <use xlink:href="#DejaVuSans-52"/>
     <use xlink:href="#DejaVuSans-44" x="69.482422"/>
     <use xlink:href="#DejaVuSans-20" x="146.484375"/>
     <use xlink:href="#DejaVuSans-2d" x="178.271484"/>
     <use xlink:href="#DejaVuSans-20" x="214.355469"/>
     <use xlink:href="#DejaVuSans-78" x="246.142578"/>
     <use xlink:href="#DejaVuSans-74" x="305.322266"/>
     <use xlink:href="#DejaVuSans-72" x="344.53125"/>
     <use xlink:href="#DejaVuSans-61" x="385.644531"/>
     <use xlink:href="#DejaVuSans-63" x="446.923828"/>
     <use xlink:href="#DejaVuSans-74" x="501.904297"/>
     <use xlink:href="#DejaVuSans-5f" x="541.113281"/>
     <use xlink:href="#DejaVuSans-70" x="591.113281"/>
     <use xlink:href="#DejaVuSans-72" x="654.589844"/>
     <use xlink:href="#DejaVuSans-6f" x="693.453125"/>
     <use xlink:href="#DejaVuSans-62" x="754.634766"/>
     <use xlink:href="#DejaVuSans-5f" x="818.111328"/>
     <use xlink:href="#DejaVuSans-53" x="868.111328"/>
     <use xlink:href="#DejaVuSans-75" x="931.587891"/>
     <use xlink:href="#DejaVuSans-70" x="994.966797"/>
     <use xlink:href="#DejaVuSans-65" x="1058.443359"/>
     <use xlink:href="#DejaVuSans-72" x="1119.966797"/>
     <use xlink:href="#DejaVuSans-69" x="1161.080078"/>
     <use xlink:href="#DejaVuSans-6f" x="1188.863281"/>
     <use xlink:href="#DejaVuSans-72" x="1250.044922"/>
     <use xlink:href="#DejaVuSans-5f" x="1291.158203"/>
     <use xlink:href="#DejaVuSans-54" x="1341.158203"/>
     <use xlink:href="#DejaVuSans-68" x="1402.242188"/>
     <use xlink:href="#DejaVuSans-61" x="1465.621094"/>
     <use xlink:href="#DejaVuSans-6c" x="1526.900391"/>
     <use xlink:href="#DejaVuSans-61" x="1554.683594"/>
     <use xlink:href="#DejaVuSans-6d" x="1615.962891"/>
     <use xlink:href="#DejaVuSans-69" x="1713.375"/>
     <use xlink:href="#DejaVuSans-63" x="1741.158203"/>
     <use xlink:href="#DejaVuSans-5f" x="1796.138672"/>
     <use xlink:href="#DejaVuSans-52" x="1846.138672"/>
     <use xlink:href="#DejaVuSans-61" x="1913.371094"/>
     <use xlink:href="#DejaVuSans-64" x="1974.650391"/>
     <use xlink:href="#DejaVuSans-69" x="2038.126953"/>
     <use xlink:href="#DejaVuSans-61" x="2065.910156"/>
     <use xlink:href="#DejaVuSans-74" x="2127.189453"/>
     <use xlink:href="#DejaVuSans-69" x="2166.398438"/>
     <use xlink:href="#DejaVuSans-6f" x="2194.181641"/>
     <use xlink:href="#DejaVuSans-6e" x="2255.363281"/>
     <use xlink:href="#DejaVuSans-5f" x="2318.742188"/>
     <use xlink:href="#DejaVuSans-52" x="2368.742188"/>
    </g>
   </g>
   <g id="legend_1">
    <g id="patch_7">
     <path d="M 458.355438 146.666825 
L 556.211688 146.666825 
Q 558.211688 146.666825 558.211688 144.666825 
L 558.211688 55.929325 
Q 558.211688 53.929325 556.211688 53.929325 
L 458.355438 53.929325 
Q 456.355438 53.929325 456.355438 55.929325 
L 456.355438 144.666825 
Q 456.355438 146.666825 458.355438 146.666825 
z
" style="fill: #ffffff; opacity: 0.8; stroke: #cccccc; stroke-linejoin: miter"/>
    </g>
    <g id="line2d_21">
     <path d="M 460.355438 62.027762 
L 470.355438 62.027762 
L 480.355438 62.027762 
" style="fill: none; stroke: #1f77b4; stroke-width: 1.5; stroke-linecap: square"/>
    </g>
    <g id="text_18">
     <!-- 20_06_02_E3 -->
     <g transform="translate(488.355438 65.527762) scale(0.1 -0.1)">
      <defs>
       <path id="DejaVuSans-45" d="M 628 4666 
L 3578 4666 
L 3578 4134 
L 1259 4134 
L 1259 2753 
L 3481 2753 
L 3481 2222 
L 1259 2222 
L 1259 531 
L 3634 531 
L 3634 0 
L 628 0 
L 628 4666 
z
" transform="scale(0.015625)"/>
      </defs>
      <use xlink:href="#DejaVuSans-32"/>
      <use xlink:href="#DejaVuSans-30" x="63.623047"/>
      <use xlink:href="#DejaVuSans-5f" x="127.246094"/>
      <use xlink:href="#DejaVuSans-30" x="177.246094"/>
      <use xlink:href="#DejaVuSans-36" x="240.869141"/>
      <use xlink:href="#DejaVuSans-5f" x="304.492188"/>
      <use xlink:href="#DejaVuSans-30" x="354.492188"/>
      <use xlink:href="#DejaVuSans-32" x="418.115234"/>
      <use xlink:href="#DejaVuSans-5f" x="481.738281"/>
      <use xlink:href="#DejaVuSans-45" x="531.738281"/>
      <use xlink:href="#DejaVuSans-33" x="594.921875"/>
     </g>
    </g>
    <g id="line2d_22">
     <path d="M 460.355438 76.984013 
L 470.355438 76.984013 
L 480.355438 76.984013 
" style="fill: none; stroke: #ff7f0e; stroke-width: 1.5; stroke-linecap: square"/>
    </g>
    <g id="text_19">
     <!-- 20_05_01_E3 -->
     <g transform="translate(488.355438 80.484013) scale(0.1 -0.1)">
      <use xlink:href="#DejaVuSans-32"/>
      <use xlink:href="#DejaVuSans-30" x="63.623047"/>
      <use xlink:href="#DejaVuSans-5f" x="127.246094"/>
      <use xlink:href="#DejaVuSans-30" x="177.246094"/>
      <use xlink:href="#DejaVuSans-35" x="240.869141"/>
      <use xlink:href="#DejaVuSans-5f" x="304.492188"/>
      <use xlink:href="#DejaVuSans-30" x="354.492188"/>
      <use xlink:href="#DejaVuSans-31" x="418.115234"/>
      <use xlink:href="#DejaVuSans-5f" x="481.738281"/>
      <use xlink:href="#DejaVuSans-45" x="531.738281"/>
      <use xlink:href="#DejaVuSans-33" x="594.921875"/>
     </g>
    </g>
    <g id="line2d_23">
     <path d="M 460.355438 91.940262 
L 470.355438 91.940262 
L 480.355438 91.940262 
" style="fill: none; stroke: #2ca02c; stroke-width: 1.5; stroke-linecap: square"/>
    </g>
    <g id="text_20">
     <!-- 20_02_02_E3 -->
     <g transform="translate(488.355438 95.440262) scale(0.1 -0.1)">
      <use xlink:href="#DejaVuSans-32"/>
      <use xlink:href="#DejaVuSans-30" x="63.623047"/>
      <use xlink:href="#DejaVuSans-5f" x="127.246094"/>
      <use xlink:href="#DejaVuSans-30" x="177.246094"/>
      <use xlink:href="#DejaVuSans-32" x="240.869141"/>
      <use xlink:href="#DejaVuSans-5f" x="304.492188"/>
      <use xlink:href="#DejaVuSans-30" x="354.492188"/>
      <use xlink:href="#DejaVuSans-32" x="418.115234"/>
      <use xlink:href="#DejaVuSans-5f" x="481.738281"/>
      <use xlink:href="#DejaVuSans-45" x="531.738281"/>
      <use xlink:href="#DejaVuSans-33" x="594.921875"/>
     </g>
    </g>
    <g id="line2d_24">
     <path d="M 460.355438 106.896513 
L 470.355438 106.896513 
L 480.355438 106.896513 
" style="fill: none; stroke: #d62728; stroke-width: 1.5; stroke-linecap: square"/>
    </g>
    <g id="text_21">
     <!-- 20_10_02_E3 -->
     <g transform="translate(488.355438 110.396513) scale(0.1 -0.1)">
      <use xlink:href="#DejaVuSans-32"/>
      <use xlink:href="#DejaVuSans-30" x="63.623047"/>
      <use xlink:href="#DejaVuSans-5f" x="127.246094"/>
      <use xlink:href="#DejaVuSans-31" x="177.246094"/>
      <use xlink:href="#DejaVuSans-30" x="240.869141"/>
      <use xlink:href="#DejaVuSans-5f" x="304.492188"/>
      <use xlink:href="#DejaVuSans-30" x="354.492188"/>
      <use xlink:href="#DejaVuSans-32" x="418.115234"/>
      <use xlink:href="#DejaVuSans-5f" x="481.738281"/>
      <use xlink:href="#DejaVuSans-45" x="531.738281"/>
      <use xlink:href="#DejaVuSans-33" x="594.921875"/>
     </g>
    </g>
    <g id="line2d_25">
     <path d="M 460.355438 121.852762 
L 470.355438 121.852762 
L 480.355438 121.852762 
" style="fill: none; stroke: #9467bd; stroke-width: 1.5; stroke-linecap: square"/>
    </g>
    <g id="text_22">
     <!-- 20_08_02_E3 -->
     <g transform="translate(488.355438 125.352762) scale(0.1 -0.1)">
      <use xlink:href="#DejaVuSans-32"/>
      <use xlink:href="#DejaVuSans-30" x="63.623047"/>
      <use xlink:href="#DejaVuSans-5f" x="127.246094"/>
      <use xlink:href="#DejaVuSans-30" x="177.246094"/>
      <use xlink:href="#DejaVuSans-38" x="240.869141"/>
      <use xlink:href="#DejaVuSans-5f" x="304.492188"/>
      <use xlink:href="#DejaVuSans-30" x="354.492188"/>
      <use xlink:href="#DejaVuSans-32" x="418.115234"/>
      <use xlink:href="#DejaVuSans-5f" x="481.738281"/>
      <use xlink:href="#DejaVuSans-45" x="531.738281"/>
      <use xlink:href="#DejaVuSans-33" x="594.921875"/>
     </g>
    </g>
    <g id="line2d_26">
     <path d="M 460.355438 136.809012 
L 470.355438 136.809012 
L 480.355438 136.809012 
" style="fill: none; stroke: #8c564b; stroke-width: 1.5; stroke-linecap: square"/>
    </g>
    <g id="text_23">
     <!-- 20_11_02_E3 -->
     <g transform="translate(488.355438 140.309012) scale(0.1 -0.1)">
      <use xlink:href="#DejaVuSans-32"/>
      <use xlink:href="#DejaVuSans-30" x="63.623047"/>
      <use xlink:href="#DejaVuSans-5f" x="127.246094"/>
      <use xlink:href="#DejaVuSans-31" x="177.246094"/>
      <use xlink:href="#DejaVuSans-31" x="240.869141"/>
      <use xlink:href="#DejaVuSans-5f" x="304.492188"/>
      <use xlink:href="#DejaVuSans-30" x="354.492188"/>
      <use xlink:href="#DejaVuSans-32" x="418.115234"/>
      <use xlink:href="#DejaVuSans-5f" x="481.738281"/>
      <use xlink:href="#DejaVuSans-45" x="531.738281"/>
      <use xlink:href="#DejaVuSans-33" x="594.921875"/>
     </g>
    </g>
   </g>
  </g>
 </g>
 <defs>
  <clipPath id="p9999c8e03b">
   <rect x="58.523438" y="22.318125" width="357.12" height="266.112"/>
  </clipPath>
 </defs>
</svg>
