<?xml version="1.0" encoding="utf-8" standalone="no"?>
<!DOCTYPE svg PUBLIC "-//W3C//DTD SVG 1.1//EN"
  "http://www.w3.org/Graphics/SVG/1.1/DTD/svg11.dtd">
<svg xmlns:xlink="http://www.w3.org/1999/xlink" width="565.411687pt" height="325.986375pt" viewBox="0 0 565.411687 325.986375" xmlns="http://www.w3.org/2000/svg" version="1.1">
 <metadata>
  <rdf:RDF xmlns:dc="http://purl.org/dc/elements/1.1/" xmlns:cc="http://creativecommons.org/ns#" xmlns:rdf="http://www.w3.org/1999/02/22-rdf-syntax-ns#">
   <cc:Work>
    <dc:type rdf:resource="http://purl.org/dc/dcmitype/StillImage"/>
    <dc:date>2023-02-07T23:00:04.253691</dc:date>
    <dc:format>image/svg+xml</dc:format>
    <dc:creator>
     <cc:Agent>
      <dc:title>Matplotlib v3.6.2, https://matplotlib.org/</dc:title>
     </cc:Agent>
    </dc:creator>
   </cc:Work>
  </rdf:RDF>
 </metadata>
 <defs>
  <style type="text/css">*{stroke-linejoin: round; stroke-linecap: butt}</style>
 </defs>
 <g id="figure_1">
  <g id="patch_1">
   <path d="M 0 325.986375 
L 565.411687 325.986375 
L 565.411687 0 
L 0 0 
z
" style="fill: #ffffff"/>
  </g>
  <g id="axes_1">
   <g id="patch_2">
    <path d="M 58.523438 288.430125 
L 415.643438 288.430125 
L 415.643438 22.318125 
L 58.523438 22.318125 
z
" style="fill: #ffffff"/>
   </g>
   <g id="PolyCollection_1">
    <path d="M 74.756165 261.841597 
L 74.756165 254.934914 
L 75.242567 254.934914 
L 75.728969 254.934914 
L 76.215371 254.934914 
L 76.701772 254.934914 
L 77.188174 254.934914 
L 77.674576 254.934914 
L 78.160978 254.934914 
L 78.64738 254.934914 
L 79.133782 254.934914 
L 79.620184 254.934914 
L 80.106586 254.934914 
L 80.592988 254.934914 
L 81.07939 254.934914 
L 81.565792 254.934914 
L 82.052194 254.934914 
L 82.538596 254.934914 
L 83.024997 254.934914 
L 83.511399 254.934914 
L 83.997801 254.934914 
L 84.484203 254.934914 
L 84.970605 254.934914 
L 85.457007 254.934914 
L 85.943409 254.934914 
L 86.429811 254.934914 
L 86.916213 254.934914 
L 87.402615 254.934914 
L 87.889017 254.934914 
L 88.375419 254.934914 
L 88.861821 254.934914 
L 89.348222 254.934914 
L 89.834624 254.934914 
L 90.321026 254.934914 
L 90.807428 254.934914 
L 91.29383 254.934914 
L 91.780232 254.934914 
L 92.266634 254.934914 
L 92.753036 254.934914 
L 93.239438 254.934914 
L 93.72584 254.934914 
L 94.212242 254.934914 
L 94.698644 254.934914 
L 95.185046 254.934914 
L 95.671447 254.934914 
L 96.157849 254.934914 
L 96.644251 254.934914 
L 97.130653 254.934914 
L 97.617055 254.934914 
L 98.103457 254.934914 
L 98.589859 254.934914 
L 99.076261 254.934914 
L 99.562663 254.934914 
L 100.049065 254.934914 
L 100.535467 254.934914 
L 101.021869 254.934914 
L 101.508271 254.934914 
L 101.994672 254.934914 
L 102.481074 254.934914 
L 102.967476 254.934914 
L 103.453878 254.934914 
L 103.94028 254.934914 
L 104.426682 254.934914 
L 104.913084 254.934914 
L 105.399486 254.934914 
L 105.885888 254.934914 
L 106.37229 254.934914 
L 106.858692 254.934914 
L 107.345094 254.934914 
L 107.831496 254.934914 
L 108.317898 254.934914 
L 108.804299 254.934914 
L 109.290701 254.934914 
L 109.777103 254.934914 
L 110.263505 254.934914 
L 110.749907 254.934914 
L 111.236309 254.934914 
L 111.722711 254.934914 
L 112.209113 254.934914 
L 112.695515 254.934914 
L 113.181917 254.934914 
L 113.668319 254.934914 
L 114.154721 254.934914 
L 114.641123 254.934914 
L 115.127524 254.934914 
L 115.613926 254.934914 
L 116.100328 254.934914 
L 116.58673 254.934914 
L 117.073132 254.934914 
L 117.559534 254.934914 
L 118.045936 254.934914 
L 118.532338 254.934914 
L 119.01874 254.934914 
L 119.505142 254.934914 
L 119.991544 254.934914 
L 120.477946 254.934914 
L 120.964348 254.934914 
L 121.450749 254.934914 
L 121.937151 254.934914 
L 122.423553 254.934914 
L 122.909955 254.934914 
L 122.909955 248.387705 
L 122.909955 248.387705 
L 122.423553 256.102386 
L 121.937151 259.29309 
L 121.450749 259.669936 
L 120.964348 258.484698 
L 120.477946 256.621343 
L 119.991544 254.673277 
L 119.505142 253.008726 
L 119.01874 251.825576 
L 118.532338 251.196888 
L 118.045936 251.1082 
L 117.559534 251.487661 
L 117.073132 252.229923 
L 116.58673 253.214658 
L 116.100328 254.320482 
L 115.613926 255.434979 
L 115.127524 256.461487 
L 114.641123 257.32319 
L 114.154721 257.965042 
L 113.668319 258.353971 
L 113.181917 258.477765 
L 112.695515 258.342971 
L 112.209113 257.972134 
L 111.722711 257.400614 
L 111.236309 256.673204 
L 110.749907 255.840729 
L 110.263505 254.956784 
L 109.777103 254.074708 
L 109.290701 253.244899 
L 108.804299 252.512532 
L 108.317898 251.915708 
L 107.831496 251.484082 
L 107.345094 251.237943 
L 106.858692 251.187762 
L 106.37229 251.334173 
L 105.885888 251.66835 
L 105.399486 252.172745 
L 104.913084 252.822138 
L 104.426682 253.584936 
L 103.94028 254.424667 
L 103.453878 255.30162 
L 102.967476 256.174548 
L 102.481074 257.002403 
L 101.994672 257.746019 
L 101.508271 258.369707 
L 101.021869 258.842711 
L 100.535467 259.140463 
L 100.049065 259.24563 
L 99.562663 259.148885 
L 99.076261 254.933481 
L 98.589859 254.933072 
L 98.103457 258.720293 
L 97.617055 257.663926 
L 97.130653 256.439362 
L 96.644251 255.098147 
L 96.157849 253.69883 
L 95.671447 252.304768 
L 95.185046 250.981666 
L 94.698644 249.794891 
L 94.212242 248.80666 
L 93.72584 248.073174 
L 93.239438 247.64179 
L 92.753036 247.548334 
L 92.266634 247.81465 
L 91.780232 248.446481 
L 91.29383 249.431791 
L 90.807428 250.739616 
L 90.321026 252.31954 
L 89.834624 254.101873 
L 89.348222 255.99861 
L 88.861821 257.905209 
L 88.375419 259.703252 
L 87.889017 261.263983 
L 87.402615 262.452727 
L 86.916213 263.134154 
L 86.429811 263.178309 
L 85.943409 262.467317 
L 85.457007 260.902601 
L 84.970605 258.412432 
L 84.484203 254.959561 
L 83.997801 250.54863 
L 83.511399 245.233019 
L 83.024997 239.12068 
L 82.538596 232.378481 
L 82.052194 225.234479 
L 81.565792 217.977456 
L 81.07939 210.95299 
L 80.592988 204.555202 
L 80.106586 199.21325 
L 79.620184 195.371508 
L 79.133782 193.462268 
L 78.64738 193.869676 
L 78.160978 196.883488 
L 77.674576 202.641084 
L 77.188174 211.05604 
L 76.701772 221.731423 
L 76.215371 233.855775 
L 75.728969 246.079626 
L 75.242567 256.370177 
L 74.756165 261.841597 
z
" clip-path="url(#p2371b86476)" style="fill: #1f77b4; fill-opacity: 0.166667"/>
   </g>
   <g id="PolyCollection_2">
    <path d="M 74.756165 276.334125 
L 74.756165 254.934914 
L 75.306776 254.934914 
L 75.857387 254.934914 
L 76.407999 254.934914 
L 76.95861 254.934914 
L 77.509221 254.934914 
L 78.059833 254.934914 
L 78.610444 254.934914 
L 79.161055 254.934914 
L 79.711667 254.934914 
L 80.262278 254.934914 
L 80.812889 254.934914 
L 81.363501 254.934914 
L 81.914112 254.934914 
L 82.464723 254.934914 
L 83.015335 254.934914 
L 83.565946 254.934914 
L 84.116557 254.934914 
L 84.667169 254.934914 
L 85.21778 254.934914 
L 85.768391 254.934914 
L 86.319003 254.934914 
L 86.869614 254.934914 
L 87.420225 254.934914 
L 87.970837 254.934914 
L 88.521448 254.934914 
L 89.072059 254.934914 
L 89.622671 254.934914 
L 90.173282 254.934914 
L 90.723893 254.934914 
L 91.274505 254.934914 
L 91.825116 254.934914 
L 92.375727 254.934914 
L 92.926339 254.934914 
L 93.47695 254.934914 
L 94.027561 254.934914 
L 94.578173 254.934914 
L 95.128784 254.934914 
L 95.679395 254.934914 
L 96.230007 254.934914 
L 96.780618 254.934914 
L 97.331229 254.934914 
L 97.881841 254.934914 
L 98.432452 254.934914 
L 98.983063 254.934914 
L 99.533675 254.934914 
L 100.084286 254.934914 
L 100.634897 254.934914 
L 101.185508 254.934914 
L 101.73612 254.934914 
L 102.286731 254.934914 
L 102.837342 254.934914 
L 103.387954 254.934914 
L 103.938565 254.934914 
L 104.489176 254.934914 
L 105.039788 254.934914 
L 105.590399 254.934914 
L 106.14101 254.934914 
L 106.691622 254.934914 
L 107.242233 254.934914 
L 107.792844 254.934914 
L 108.343456 254.934914 
L 108.894067 254.934914 
L 109.444678 254.934914 
L 109.99529 254.934914 
L 110.545901 254.934914 
L 111.096512 254.934914 
L 111.647124 254.934914 
L 112.197735 254.934914 
L 112.748346 254.934914 
L 113.298958 254.934914 
L 113.849569 254.934914 
L 114.40018 254.934914 
L 114.950792 254.934914 
L 115.501403 254.934914 
L 116.052014 254.934914 
L 116.602626 254.934914 
L 117.153237 254.934914 
L 117.703848 254.934914 
L 118.25446 254.934914 
L 118.805071 254.934914 
L 119.355682 254.934914 
L 119.906294 254.934914 
L 120.456905 254.934914 
L 121.007516 254.934914 
L 121.558128 254.934914 
L 122.108739 254.934914 
L 122.65935 254.934914 
L 123.209962 254.934914 
L 123.760573 254.934914 
L 124.311184 254.934914 
L 124.861796 254.934914 
L 125.412407 254.934914 
L 125.963018 254.934914 
L 126.51363 254.934914 
L 127.064241 254.934914 
L 127.614852 254.934914 
L 128.165464 254.934914 
L 128.716075 254.934914 
L 129.266686 254.934914 
L 129.266686 251.192255 
L 129.266686 251.192255 
L 128.716075 255.568982 
L 128.165464 257.430253 
L 127.614852 257.702399 
L 127.064241 257.071162 
L 126.51363 256.02748 
L 125.963018 254.906834 
L 125.412407 253.922835 
L 124.861796 253.195634 
L 124.311184 252.775734 
L 123.760573 252.663724 
L 123.209962 252.826412 
L 122.65935 253.209809 
L 122.108739 253.749359 
L 121.558128 254.377807 
L 121.007516 255.031029 
L 120.456905 255.652137 
L 119.906294 256.19415 
L 119.355682 256.621467 
L 118.805071 256.910381 
L 118.25446 257.048827 
L 117.703848 257.035551 
L 117.153237 256.878844 
L 116.602626 256.594993 
L 116.052014 256.206554 
L 115.501403 255.740552 
L 114.950792 255.226692 
L 114.40018 254.695648 
L 113.849569 254.177491 
L 113.298958 253.700287 
L 112.748346 253.288908 
L 112.197735 252.964068 
L 111.647124 252.741608 
L 111.096512 252.63201 
L 110.545901 252.640168 
L 109.99529 252.765377 
L 109.444678 253.001539 
L 108.894067 253.337571 
L 108.343456 253.757973 
L 107.792844 254.243546 
L 107.242233 254.772229 
L 106.691622 255.32001 
L 106.14101 255.861908 
L 105.590399 256.372961 
L 105.039788 256.829221 
L 104.489176 257.208701 
L 103.938565 257.492264 
L 103.387954 257.664415 
L 102.837342 257.713984 
L 102.286731 254.933976 
L 101.73612 254.933385 
L 101.185508 258.251786 
L 100.634897 257.447426 
L 100.084286 256.493652 
L 99.533675 255.429716 
L 98.983063 254.301319 
L 98.432452 253.15901 
L 97.881841 252.056332 
L 97.331229 251.047761 
L 96.780618 250.186491 
L 96.230007 249.522127 
L 95.679395 249.098356 
L 95.128784 248.950656 
L 94.578173 249.104134 
L 94.027561 249.571557 
L 93.47695 250.351665 
L 92.926339 251.427839 
L 92.375727 252.767201 
L 91.825116 254.320214 
L 91.274505 256.020864 
L 90.723893 257.78746 
L 90.173282 259.524121 
L 89.622671 261.122965 
L 89.072059 262.467047 
L 88.521448 263.434021 
L 87.970837 263.900529 
L 87.420225 263.74727 
L 86.869614 262.864682 
L 86.319003 261.159141 
L 85.768391 258.559553 
L 85.21778 255.024165 
L 84.667169 250.54741 
L 84.116557 245.166518 
L 83.565946 238.967609 
L 83.015335 232.090937 
L 82.464723 224.734854 
L 81.914112 217.158069 
L 81.363501 209.679661 
L 80.812889 202.676263 
L 80.262278 196.575752 
L 79.711667 191.846712 
L 79.161055 188.982843 
L 78.610444 188.481414 
L 78.059833 190.814754 
L 77.509221 196.393695 
L 76.95861 205.521748 
L 76.407999 218.338732 
L 75.857387 234.752412 
L 75.306776 254.356607 
L 74.756165 276.334125 
z
" clip-path="url(#p2371b86476)" style="fill: #ff7f0e; fill-opacity: 0.166667"/>
   </g>
   <g id="PolyCollection_3">
    <path d="M 74.756165 271.617941 
L 74.756165 254.934914 
L 75.694796 254.934914 
L 76.633427 254.934914 
L 77.572058 254.934914 
L 78.510689 254.934914 
L 79.44932 254.934914 
L 80.387951 254.934914 
L 81.326582 254.934914 
L 82.265213 254.934914 
L 83.203845 254.934914 
L 84.142476 254.934914 
L 85.081107 254.934914 
L 86.019738 254.934914 
L 86.958369 254.934914 
L 87.897 254.934914 
L 88.835631 254.934914 
L 89.774262 254.934914 
L 90.712893 254.934914 
L 91.651524 254.934914 
L 92.590155 254.934914 
L 93.528787 254.934914 
L 94.467418 254.934914 
L 95.406049 254.934914 
L 96.34468 254.934914 
L 97.283311 254.934914 
L 98.221942 254.934914 
L 99.160573 254.934914 
L 100.099204 254.934914 
L 101.037835 254.934914 
L 101.976466 254.934914 
L 102.915097 254.934914 
L 103.853729 254.934914 
L 104.79236 254.934914 
L 105.730991 254.934914 
L 106.669622 254.934914 
L 107.608253 254.934914 
L 108.546884 254.934914 
L 109.485515 254.934914 
L 110.424146 254.934914 
L 111.362777 254.934914 
L 112.301408 254.934914 
L 113.240039 254.934914 
L 114.178671 254.934914 
L 115.117302 254.934914 
L 116.055933 254.934914 
L 116.994564 254.934914 
L 117.933195 254.934914 
L 118.871826 254.934914 
L 119.810457 254.934914 
L 120.749088 254.934914 
L 121.687719 254.934914 
L 122.62635 254.934914 
L 123.564981 254.934914 
L 124.503613 254.934914 
L 125.442244 254.934914 
L 126.380875 254.934914 
L 127.319506 254.934914 
L 128.258137 254.934914 
L 129.196768 254.934914 
L 130.135399 254.934914 
L 131.07403 254.934914 
L 132.012661 254.934914 
L 132.951292 254.934914 
L 133.889923 254.934914 
L 134.828555 254.934914 
L 135.767186 254.934914 
L 136.705817 254.934914 
L 137.644448 254.934914 
L 138.583079 254.934914 
L 139.52171 254.934914 
L 140.460341 254.934914 
L 141.398972 254.934914 
L 142.337603 254.934914 
L 143.276234 254.934914 
L 144.214865 254.934914 
L 145.153497 254.934914 
L 146.092128 254.934914 
L 147.030759 254.934914 
L 147.96939 254.934914 
L 148.908021 254.934914 
L 149.846652 254.934914 
L 150.785283 254.934914 
L 151.723914 254.934914 
L 152.662545 254.934914 
L 153.601176 254.934914 
L 154.539807 254.934914 
L 155.478439 254.934914 
L 156.41707 254.934914 
L 157.355701 254.934914 
L 158.294332 254.934914 
L 159.232963 254.934914 
L 160.171594 254.934914 
L 161.110225 254.934914 
L 162.048856 254.934914 
L 162.987487 254.934914 
L 163.926118 254.934914 
L 164.864749 254.934914 
L 165.803381 254.934914 
L 166.742012 254.934914 
L 167.680643 254.934914 
L 167.680643 253.068767 
L 167.680643 253.068767 
L 166.742012 255.071871 
L 165.803381 256.015137 
L 164.864749 256.252038 
L 163.926118 256.055341 
L 162.987487 255.629944 
L 162.048856 255.124349 
L 161.110225 254.640839 
L 160.171594 254.244458 
L 159.232963 253.970864 
L 158.294332 253.833152 
L 157.355701 253.827706 
L 156.41707 253.939174 
L 155.478439 254.144637 
L 154.539807 254.417039 
L 153.601176 254.727958 
L 152.662545 255.049779 
L 151.723914 255.357338 
L 150.785283 255.629098 
L 149.846652 255.847916 
L 148.908021 256.001461 
L 147.96939 256.082329 
L 147.030759 256.087914 
L 146.092128 256.020078 
L 145.153497 255.884658 
L 144.214865 255.690859 
L 143.276234 255.450571 
L 142.337603 255.177625 
L 141.398972 254.88705 
L 140.460341 254.594324 
L 139.52171 254.314666 
L 138.583079 254.062382 
L 137.644448 253.850273 
L 136.705817 253.68914 
L 135.767186 253.587371 
L 134.828555 253.550639 
L 133.889923 253.581702 
L 132.951292 253.680313 
L 132.012661 253.843244 
L 131.07403 254.064406 
L 130.135399 254.335078 
L 129.196768 254.644219 
L 128.258137 254.978875 
L 127.319506 255.324642 
L 126.380875 255.666198 
L 125.442244 255.987875 
L 124.503613 256.274256 
L 123.564981 256.510788 
L 122.62635 256.684378 
L 121.687719 254.934347 
L 120.749088 254.933602 
L 119.810457 258.000416 
L 118.871826 257.384272 
L 117.933195 256.628434 
L 116.994564 255.762391 
L 116.055933 254.82167 
L 115.117302 253.846686 
L 114.178671 252.881355 
L 113.240039 251.971517 
L 112.301408 251.163191 
L 111.362777 250.500714 
L 110.424146 250.024812 
L 109.485515 249.770654 
L 108.546884 249.765948 
L 107.608253 250.029133 
L 106.669622 250.56774 
L 105.730991 251.376981 
L 104.79236 252.438628 
L 103.853729 253.72024 
L 102.915097 255.174822 
L 101.976466 256.740935 
L 101.037835 258.343348 
L 100.099204 259.894246 
L 99.160573 261.295047 
L 98.221942 262.438857 
L 97.283311 263.213556 
L 96.34468 263.505545 
L 95.406049 263.204109 
L 94.467418 262.206388 
L 93.528787 260.422881 
L 92.590155 257.783414 
L 91.651524 254.243475 
L 90.712893 249.790779 
L 89.774262 244.451897 
L 88.835631 238.298774 
L 87.897 231.454886 
L 86.958369 224.100786 
L 86.019738 216.478712 
L 85.081107 208.895925 
L 84.142476 201.726348 
L 83.203845 195.410075 
L 82.265213 190.450235 
L 81.326582 187.406637 
L 80.387951 186.885583 
L 79.44932 189.525142 
L 78.510689 195.975134 
L 77.572058 206.870988 
L 76.633427 222.800555 
L 75.694796 244.262891 
L 74.756165 271.617941 
z
" clip-path="url(#p2371b86476)" style="fill: #2ca02c; fill-opacity: 0.166667"/>
   </g>
   <g id="PolyCollection_4">
    <path d="M 74.756165 34.414125 
L 74.756165 254.934914 
L 78.035504 254.934914 
L 81.314842 254.934914 
L 84.594181 254.934914 
L 87.87352 254.934914 
L 91.152859 254.934914 
L 94.432198 254.934914 
L 97.711537 254.934914 
L 100.990876 254.934914 
L 104.270214 254.934914 
L 107.549553 254.934914 
L 110.828892 254.934914 
L 114.108231 254.934914 
L 117.38757 254.934914 
L 120.666909 254.934914 
L 123.946247 254.934914 
L 127.225586 254.934914 
L 130.504925 254.934914 
L 133.784264 254.934914 
L 137.063603 254.934914 
L 140.342942 254.934914 
L 143.62228 254.934914 
L 146.901619 254.934914 
L 150.180958 254.934914 
L 153.460297 254.934914 
L 156.739636 254.934914 
L 160.018975 254.934914 
L 163.298314 254.934914 
L 166.577652 254.934914 
L 169.856991 254.934914 
L 173.13633 254.934914 
L 176.415669 254.934914 
L 179.695008 254.934914 
L 182.974347 254.934914 
L 186.253685 254.934914 
L 189.533024 254.934914 
L 192.812363 254.934914 
L 196.091702 254.934914 
L 199.371041 254.934914 
L 202.65038 254.934914 
L 205.929718 254.934914 
L 209.209057 254.934914 
L 212.488396 254.934914 
L 215.767735 254.934914 
L 219.047074 254.934914 
L 222.326413 254.934914 
L 225.605752 254.934914 
L 228.88509 254.934914 
L 232.164429 254.934914 
L 235.443768 254.934914 
L 238.723107 254.934914 
L 242.002446 254.934914 
L 245.281785 254.934914 
L 248.561123 254.934914 
L 251.840462 254.934914 
L 255.119801 254.934914 
L 258.39914 254.934914 
L 261.678479 254.934914 
L 264.957818 254.934914 
L 268.237157 254.934914 
L 271.516495 254.934914 
L 274.795834 254.934914 
L 278.075173 254.934914 
L 281.354512 254.934914 
L 284.633851 254.934914 
L 287.91319 254.934914 
L 291.192528 254.934914 
L 294.471867 254.934914 
L 297.751206 254.934914 
L 301.030545 254.934914 
L 304.309884 254.934914 
L 307.589223 254.934914 
L 310.868561 254.934914 
L 314.1479 254.934914 
L 317.427239 254.934914 
L 320.706578 254.934914 
L 323.985917 254.934914 
L 327.265256 254.934914 
L 330.544595 254.934914 
L 333.823933 254.934914 
L 337.103272 254.934914 
L 340.382611 254.934914 
L 343.66195 254.934914 
L 346.941289 254.934914 
L 350.220628 254.934914 
L 353.499966 254.934914 
L 356.779305 254.934914 
L 360.058644 254.934914 
L 363.337983 254.934914 
L 366.617322 254.934914 
L 369.896661 254.934914 
L 373.175999 254.934914 
L 376.455338 254.934914 
L 379.734677 254.934914 
L 383.014016 254.934914 
L 386.293355 254.934914 
L 389.572694 254.934914 
L 392.852033 254.934914 
L 396.131371 254.934914 
L 399.41071 254.934914 
L 399.41071 237.409771 
L 399.41071 237.409771 
L 396.131371 259.054481 
L 392.852033 267.503327 
L 389.572694 267.946904 
L 386.293355 264.124674 
L 383.014016 258.624922 
L 379.734677 253.138467 
L 376.455338 248.671355 
L 373.175999 245.721361 
L 369.896661 244.422712 
L 366.617322 244.663104 
L 363.337983 246.176686 
L 360.058644 248.616396 
L 356.779305 251.608673 
L 353.499966 254.793318 
L 350.220628 257.850948 
L 346.941289 260.520261 
L 343.66195 262.607077 
L 340.382611 263.986864 
L 337.103272 264.602287 
L 333.823933 264.457081 
L 330.544595 263.60739 
L 327.265256 262.151527 
L 323.985917 260.218969 
L 320.706578 257.959253 
L 317.427239 255.5313 
L 314.1479 253.093595 
L 310.868561 250.795524 
L 307.589223 248.770105 
L 304.309884 247.128222 
L 301.030545 245.954448 
L 297.751206 245.304448 
L 294.471867 245.203894 
L 291.192528 245.648815 
L 287.91319 246.607233 
L 284.633851 248.021913 
L 281.354512 249.814058 
L 278.075173 251.887735 
L 274.795834 254.134827 
L 271.516495 256.440297 
L 268.237157 258.687564 
L 264.957818 260.763779 
L 261.678479 262.564818 
L 258.39914 263.999831 
L 255.119801 264.995173 
L 251.840462 265.497609 
L 248.561123 265.476674 
L 245.281785 264.926117 
L 242.002446 263.864387 
L 238.723107 254.931805 
L 235.443768 254.936066 
L 232.164429 251.979647 
L 228.88509 252.478044 
L 225.605752 253.105992 
L 222.326413 253.838991 
L 219.047074 254.647147 
L 215.767735 255.496165 
L 212.488396 256.348549 
L 209.209057 257.164967 
L 205.929718 257.905761 
L 202.65038 258.532545 
L 199.371041 259.009864 
L 196.091702 259.306845 
L 192.812363 259.398811 
L 189.533024 259.268775 
L 186.253685 258.908779 
L 182.974347 258.321008 
L 179.695008 257.518616 
L 176.415669 256.526214 
L 173.13633 255.379964 
L 169.856991 254.12721 
L 166.577652 252.825624 
L 163.298314 251.541794 
L 160.018975 250.34925 
L 156.739636 249.325877 
L 153.460297 248.550714 
L 150.180958 248.100136 
L 146.901619 248.043427 
L 143.62228 248.437777 
L 140.342942 249.322749 
L 137.063603 250.714286 
L 133.784264 252.598348 
L 130.504925 254.924295 
L 127.225586 257.598162 
L 123.946247 260.476001 
L 120.666909 263.35749 
L 117.38757 265.980063 
L 114.108231 268.013825 
L 110.828892 269.057592 
L 107.549553 268.636401 
L 104.270214 266.200916 
L 100.990876 261.129183 
L 97.711537 252.731246 
L 94.432198 240.257207 
L 91.152859 222.909339 
L 87.87352 199.858964 
L 84.594181 170.268838 
L 81.314842 133.321885 
L 78.035504 88.257175 
L 74.756165 34.414125 
z
" clip-path="url(#p2371b86476)" style="fill: #d62728; fill-opacity: 0.166667"/>
   </g>
   <g id="PolyCollection_5">
    <path d="M 74.756165 244.274388 
L 74.756165 254.934914 
L 74.982236 254.934914 
L 75.208307 254.934914 
L 75.434378 254.934914 
L 75.660449 254.934914 
L 75.88652 254.934914 
L 76.112591 254.934914 
L 76.338662 254.934914 
L 76.564733 254.934914 
L 76.790804 254.934914 
L 77.016875 254.934914 
L 77.242946 254.934914 
L 77.469017 254.934914 
L 77.695088 254.934914 
L 77.921159 254.934914 
L 78.14723 254.934914 
L 78.373301 254.934914 
L 78.599372 254.934914 
L 78.825443 254.934914 
L 79.051514 254.934914 
L 79.277585 254.934914 
L 79.503656 254.934914 
L 79.729727 254.934914 
L 79.955798 254.934914 
L 80.18187 254.934914 
L 80.407941 254.934914 
L 80.634012 254.934914 
L 80.860083 254.934914 
L 81.086154 254.934914 
L 81.312225 254.934914 
L 81.538296 254.934914 
L 81.764367 254.934914 
L 81.990438 254.934914 
L 82.216509 254.934914 
L 82.44258 254.934914 
L 82.668651 254.934914 
L 82.894722 254.934914 
L 83.120793 254.934914 
L 83.346864 254.934914 
L 83.572935 254.934914 
L 83.799006 254.934914 
L 84.025077 254.934914 
L 84.251148 254.934914 
L 84.477219 254.934914 
L 84.70329 254.934914 
L 84.929361 254.934914 
L 85.155432 254.934914 
L 85.381503 254.934914 
L 85.607574 254.934914 
L 85.833645 254.934914 
L 86.059716 254.934914 
L 86.285787 254.934914 
L 86.511858 254.934914 
L 86.737929 254.934914 
L 86.964 254.934914 
L 87.190071 254.934914 
L 87.416142 254.934914 
L 87.642214 254.934914 
L 87.868285 254.934914 
L 88.094356 254.934914 
L 88.320427 254.934914 
L 88.546498 254.934914 
L 88.772569 254.934914 
L 88.99864 254.934914 
L 89.224711 254.934914 
L 89.450782 254.934914 
L 89.676853 254.934914 
L 89.902924 254.934914 
L 90.128995 254.934914 
L 90.355066 254.934914 
L 90.581137 254.934914 
L 90.807208 254.934914 
L 91.033279 254.934914 
L 91.25935 254.934914 
L 91.485421 254.934914 
L 91.711492 254.934914 
L 91.937563 254.934914 
L 92.163634 254.934914 
L 92.389705 254.934914 
L 92.615776 254.934914 
L 92.841847 254.934914 
L 93.067918 254.934914 
L 93.293989 254.934914 
L 93.52006 254.934914 
L 93.746131 254.934914 
L 93.972202 254.934914 
L 94.198273 254.934914 
L 94.424344 254.934914 
L 94.650415 254.934914 
L 94.876486 254.934914 
L 95.102558 254.934914 
L 95.328629 254.934914 
L 95.5547 254.934914 
L 95.780771 254.934914 
L 96.006842 254.934914 
L 96.232913 254.934914 
L 96.458984 254.934914 
L 96.685055 254.934914 
L 96.911126 254.934914 
L 97.137197 254.934914 
L 97.137197 259.922448 
L 97.137197 259.922448 
L 96.911126 253.830829 
L 96.685055 251.355215 
L 96.458984 251.121464 
L 96.232913 252.123849 
L 96.006842 253.652595 
L 95.780771 255.231954 
L 95.5547 256.567711 
L 95.328629 257.503084 
L 95.102558 257.982065 
L 94.876486 258.019303 
L 94.650415 257.675753 
L 94.424344 257.039309 
L 94.198273 256.209772 
L 93.972202 255.28752 
L 93.746131 254.365318 
L 93.52006 253.522771 
L 93.293989 252.822959 
L 93.067918 252.310839 
L 92.841847 252.013064 
L 92.615776 251.93889 
L 92.389705 252.081899 
L 92.163634 252.422274 
L 91.937563 252.929448 
L 91.711492 253.564914 
L 91.485421 254.285068 
L 91.25935 255.043964 
L 91.033279 255.795865 
L 90.807208 256.497532 
L 90.581137 257.110183 
L 90.355066 257.601097 
L 90.128995 257.944827 
L 89.902924 258.124022 
L 89.676853 258.129868 
L 89.450782 257.962152 
L 89.224711 257.628986 
L 88.99864 257.146212 
L 88.772569 256.536535 
L 88.546498 255.828424 
L 88.320427 255.054829 
L 88.094356 254.251757 
L 87.868285 253.456765 
L 87.642214 252.707412 
L 87.416142 252.039722 
L 87.190071 251.486706 
L 86.964 251.076981 
L 86.737929 250.833534 
L 86.511858 250.772657 
L 86.285787 250.903094 
L 86.059716 254.936263 
L 85.833645 254.936385 
L 85.607574 251.911667 
L 85.381503 252.775141 
L 85.155432 253.771688 
L 84.929361 254.857406 
L 84.70329 255.981074 
L 84.477219 257.085583 
L 84.251148 258.109632 
L 84.025077 258.989647 
L 83.799006 259.661877 
L 83.572935 260.064616 
L 83.346864 260.140505 
L 83.120793 259.838828 
L 82.894722 259.117766 
L 82.668651 257.946521 
L 82.44258 256.307248 
L 82.216509 254.196717 
L 81.990438 251.627648 
L 81.764367 248.629642 
L 81.538296 245.249648 
L 81.312225 241.551904 
L 81.086154 237.617317 
L 80.860083 233.542216 
L 80.634012 229.436481 
L 80.407941 225.420998 
L 80.18187 221.624475 
L 79.955798 218.179607 
L 79.729727 215.218657 
L 79.503656 212.868494 
L 79.277585 211.245191 
L 79.051514 210.448298 
L 78.825443 210.554938 
L 78.599372 211.613916 
L 78.373301 213.640057 
L 78.14723 216.609047 
L 77.921159 220.453081 
L 77.695088 225.057676 
L 77.469017 230.260065 
L 77.242946 235.84963 
L 77.016875 241.570902 
L 76.790804 247.129722 
L 76.564733 252.20321 
L 76.338662 256.454285 
L 76.112591 259.551515 
L 75.88652 261.195215 
L 75.660449 261.150729 
L 75.434378 259.289985 
L 75.208307 255.642452 
L 74.982236 250.456768 
L 74.756165 244.274388 
z
" clip-path="url(#p2371b86476)" style="fill: #9467bd; fill-opacity: 0.166667"/>
   </g>
   <g id="PolyCollection_6">
    <path d="M 74.756165 256.680106 
L 74.756165 254.934914 
L 74.913003 254.934914 
L 75.069841 254.934914 
L 75.226679 254.934914 
L 75.383518 254.934914 
L 75.540356 254.934914 
L 75.697194 254.934914 
L 75.854032 254.934914 
L 76.01087 254.934914 
L 76.167709 254.934914 
L 76.324547 254.934914 
L 76.481385 254.934914 
L 76.638223 254.934914 
L 76.795061 254.934914 
L 76.9519 254.934914 
L 77.108738 254.934914 
L 77.265576 254.934914 
L 77.422414 254.934914 
L 77.579252 254.934914 
L 77.736091 254.934914 
L 77.892929 254.934914 
L 78.049767 254.934914 
L 78.206605 254.934914 
L 78.363443 254.934914 
L 78.520282 254.934914 
L 78.67712 254.934914 
L 78.833958 254.934914 
L 78.990796 254.934914 
L 79.147635 254.934914 
L 79.304473 254.934914 
L 79.461311 254.934914 
L 79.618149 254.934914 
L 79.774987 254.934914 
L 79.931826 254.934914 
L 80.088664 254.934914 
L 80.245502 254.934914 
L 80.40234 254.934914 
L 80.559178 254.934914 
L 80.716017 254.934914 
L 80.872855 254.934914 
L 81.029693 254.934914 
L 81.186531 254.934914 
L 81.343369 254.934914 
L 81.500208 254.934914 
L 81.657046 254.934914 
L 81.813884 254.934914 
L 81.970722 254.934914 
L 82.12756 254.934914 
L 82.284399 254.934914 
L 82.441237 254.934914 
L 82.598075 254.934914 
L 82.754913 254.934914 
L 82.911751 254.934914 
L 83.06859 254.934914 
L 83.225428 254.934914 
L 83.382266 254.934914 
L 83.539104 254.934914 
L 83.695942 254.934914 
L 83.852781 254.934914 
L 84.009619 254.934914 
L 84.166457 254.934914 
L 84.323295 254.934914 
L 84.480133 254.934914 
L 84.636972 254.934914 
L 84.79381 254.934914 
L 84.950648 254.934914 
L 85.107486 254.934914 
L 85.264324 254.934914 
L 85.421163 254.934914 
L 85.578001 254.934914 
L 85.734839 254.934914 
L 85.891677 254.934914 
L 86.048516 254.934914 
L 86.205354 254.934914 
L 86.362192 254.934914 
L 86.51903 254.934914 
L 86.675868 254.934914 
L 86.832707 254.934914 
L 86.989545 254.934914 
L 87.146383 254.934914 
L 87.303221 254.934914 
L 87.460059 254.934914 
L 87.616898 254.934914 
L 87.773736 254.934914 
L 87.930574 254.934914 
L 88.087412 254.934914 
L 88.24425 254.934914 
L 88.401089 254.934914 
L 88.557927 254.934914 
L 88.714765 254.934914 
L 88.871603 254.934914 
L 89.028441 254.934914 
L 89.18528 254.934914 
L 89.342118 254.934914 
L 89.498956 254.934914 
L 89.655794 254.934914 
L 89.812632 254.934914 
L 89.969471 254.934914 
L 90.126309 254.934914 
L 90.283147 254.934914 
L 90.283147 253.559224 
L 90.283147 253.559224 
L 90.126309 255.035047 
L 89.969471 255.694739 
L 89.812632 255.812406 
L 89.655794 255.600595 
L 89.498956 255.219524 
L 89.342118 254.785462 
L 89.18528 254.378294 
L 89.028441 254.048299 
L 88.871603 253.822174 
L 88.714765 253.708345 
L 88.557927 253.701607 
L 88.401089 253.787129 
L 88.24425 253.943857 
L 88.087412 254.147376 
L 87.930574 254.372254 
L 87.773736 254.593923 
L 87.616898 254.790127 
L 87.460059 254.941992 
L 87.303221 255.034746 
L 87.146383 255.058136 
L 86.989545 255.006585 
L 86.832707 254.879111 
L 86.675868 254.679062 
L 86.51903 254.413691 
L 86.362192 254.09361 
L 86.205354 253.732146 
L 86.048516 253.344639 
L 85.891677 252.947701 
L 85.734839 252.558463 
L 85.578001 252.193833 
L 85.421163 251.869794 
L 85.264324 251.600739 
L 85.107486 251.398883 
L 84.950648 251.273751 
L 84.79381 251.231755 
L 84.636972 251.275874 
L 84.480133 251.405439 
L 84.323295 251.616023 
L 84.166457 251.899453 
L 84.009619 252.243921 
L 83.852781 252.63421 
L 83.695942 253.052025 
L 83.539104 253.476417 
L 83.382266 253.884294 
L 83.225428 254.251015 
L 83.06859 254.551046 
L 82.911751 254.758669 
L 82.754913 254.848729 
L 82.598075 254.933029 
L 82.441237 254.932618 
L 82.284399 254.491798 
L 82.12756 253.814665 
L 81.970722 252.916189 
L 81.813884 251.794873 
L 81.657046 250.455191 
L 81.500208 248.907798 
L 81.343369 247.169608 
L 81.186531 245.263721 
L 81.029693 243.219197 
L 80.872855 241.070681 
L 80.716017 238.857861 
L 80.559178 236.624787 
L 80.40234 234.419028 
L 80.245502 232.2907 
L 80.088664 230.291359 
L 79.931826 228.472787 
L 79.774987 226.885668 
L 79.618149 225.578206 
L 79.461311 224.594677 
L 79.304473 223.973963 
L 79.147635 223.748095 
L 78.990796 223.940832 
L 78.833958 224.56633 
L 78.67712 225.627919 
L 78.520282 227.117063 
L 78.363443 229.012523 
L 78.206605 231.279793 
L 78.049767 233.870867 
L 77.892929 236.724378 
L 77.736091 239.766192 
L 77.579252 242.910515 
L 77.422414 246.061576 
L 77.265576 249.115973 
L 77.108738 251.965746 
L 76.9519 254.502264 
L 76.795061 256.621003 
L 76.638223 258.227299 
L 76.481385 259.243171 
L 76.324547 259.615302 
L 76.167709 259.32426 
L 76.01087 258.39507 
L 75.854032 256.909228 
L 75.697194 255.018251 
L 75.540356 252.958871 
L 75.383518 251.069976 
L 75.226679 249.811396 
L 75.069841 249.784646 
L 74.913003 251.755729 
L 74.756165 256.680106 
z
" clip-path="url(#p2371b86476)" style="fill: #8c564b; fill-opacity: 0.166667"/>
   </g>
   <g id="matplotlib.axis_1">
    <g id="xtick_1">
     <g id="line2d_1">
      <defs>
       <path id="mdf295657a7" d="M 0 0 
L 0 3.5 
" style="stroke: #000000; stroke-width: 0.8"/>
      </defs>
      <g>
       <use xlink:href="#mdf295657a7" x="74.756165" y="288.430125" style="stroke: #000000; stroke-width: 0.8"/>
      </g>
     </g>
     <g id="text_1">
      <!-- 0.00 -->
      <g transform="translate(63.623352 303.028562) scale(0.1 -0.1)">
       <defs>
        <path id="DejaVuSans-30" d="M 2034 4250 
Q 1547 4250 1301 3770 
Q 1056 3291 1056 2328 
Q 1056 1369 1301 889 
Q 1547 409 2034 409 
Q 2525 409 2770 889 
Q 3016 1369 3016 2328 
Q 3016 3291 2770 3770 
Q 2525 4250 2034 4250 
z
M 2034 4750 
Q 2819 4750 3233 4129 
Q 3647 3509 3647 2328 
Q 3647 1150 3233 529 
Q 2819 -91 2034 -91 
Q 1250 -91 836 529 
Q 422 1150 422 2328 
Q 422 3509 836 4129 
Q 1250 4750 2034 4750 
z
" transform="scale(0.015625)"/>
        <path id="DejaVuSans-2e" d="M 684 794 
L 1344 794 
L 1344 0 
L 684 0 
L 684 794 
z
" transform="scale(0.015625)"/>
       </defs>
       <use xlink:href="#DejaVuSans-30"/>
       <use xlink:href="#DejaVuSans-2e" x="63.623047"/>
       <use xlink:href="#DejaVuSans-30" x="95.410156"/>
       <use xlink:href="#DejaVuSans-30" x="159.033203"/>
      </g>
     </g>
    </g>
    <g id="xtick_2">
     <g id="line2d_2">
      <g>
       <use xlink:href="#mdf295657a7" x="135.627542" y="288.430125" style="stroke: #000000; stroke-width: 0.8"/>
      </g>
     </g>
     <g id="text_2">
      <!-- 0.01 -->
      <g transform="translate(124.49473 303.028562) scale(0.1 -0.1)">
       <defs>
        <path id="DejaVuSans-31" d="M 794 531 
L 1825 531 
L 1825 4091 
L 703 3866 
L 703 4441 
L 1819 4666 
L 2450 4666 
L 2450 531 
L 3481 531 
L 3481 0 
L 794 0 
L 794 531 
z
" transform="scale(0.015625)"/>
       </defs>
       <use xlink:href="#DejaVuSans-30"/>
       <use xlink:href="#DejaVuSans-2e" x="63.623047"/>
       <use xlink:href="#DejaVuSans-30" x="95.410156"/>
       <use xlink:href="#DejaVuSans-31" x="159.033203"/>
      </g>
     </g>
    </g>
    <g id="xtick_3">
     <g id="line2d_3">
      <g>
       <use xlink:href="#mdf295657a7" x="196.49892" y="288.430125" style="stroke: #000000; stroke-width: 0.8"/>
      </g>
     </g>
     <g id="text_3">
      <!-- 0.02 -->
      <g transform="translate(185.366107 303.028562) scale(0.1 -0.1)">
       <defs>
        <path id="DejaVuSans-32" d="M 1228 531 
L 3431 531 
L 3431 0 
L 469 0 
L 469 531 
Q 828 903 1448 1529 
Q 2069 2156 2228 2338 
Q 2531 2678 2651 2914 
Q 2772 3150 2772 3378 
Q 2772 3750 2511 3984 
Q 2250 4219 1831 4219 
Q 1534 4219 1204 4116 
Q 875 4013 500 3803 
L 500 4441 
Q 881 4594 1212 4672 
Q 1544 4750 1819 4750 
Q 2544 4750 2975 4387 
Q 3406 4025 3406 3419 
Q 3406 3131 3298 2873 
Q 3191 2616 2906 2266 
Q 2828 2175 2409 1742 
Q 1991 1309 1228 531 
z
" transform="scale(0.015625)"/>
       </defs>
       <use xlink:href="#DejaVuSans-30"/>
       <use xlink:href="#DejaVuSans-2e" x="63.623047"/>
       <use xlink:href="#DejaVuSans-30" x="95.410156"/>
       <use xlink:href="#DejaVuSans-32" x="159.033203"/>
      </g>
     </g>
    </g>
    <g id="xtick_4">
     <g id="line2d_4">
      <g>
       <use xlink:href="#mdf295657a7" x="257.370297" y="288.430125" style="stroke: #000000; stroke-width: 0.8"/>
      </g>
     </g>
     <g id="text_4">
      <!-- 0.03 -->
      <g transform="translate(246.237485 303.028562) scale(0.1 -0.1)">
       <defs>
        <path id="DejaVuSans-33" d="M 2597 2516 
Q 3050 2419 3304 2112 
Q 3559 1806 3559 1356 
Q 3559 666 3084 287 
Q 2609 -91 1734 -91 
Q 1441 -91 1130 -33 
Q 819 25 488 141 
L 488 750 
Q 750 597 1062 519 
Q 1375 441 1716 441 
Q 2309 441 2620 675 
Q 2931 909 2931 1356 
Q 2931 1769 2642 2001 
Q 2353 2234 1838 2234 
L 1294 2234 
L 1294 2753 
L 1863 2753 
Q 2328 2753 2575 2939 
Q 2822 3125 2822 3475 
Q 2822 3834 2567 4026 
Q 2313 4219 1838 4219 
Q 1578 4219 1281 4162 
Q 984 4106 628 3988 
L 628 4550 
Q 988 4650 1302 4700 
Q 1616 4750 1894 4750 
Q 2613 4750 3031 4423 
Q 3450 4097 3450 3541 
Q 3450 3153 3228 2886 
Q 3006 2619 2597 2516 
z
" transform="scale(0.015625)"/>
       </defs>
       <use xlink:href="#DejaVuSans-30"/>
       <use xlink:href="#DejaVuSans-2e" x="63.623047"/>
       <use xlink:href="#DejaVuSans-30" x="95.410156"/>
       <use xlink:href="#DejaVuSans-33" x="159.033203"/>
      </g>
     </g>
    </g>
    <g id="xtick_5">
     <g id="line2d_5">
      <g>
       <use xlink:href="#mdf295657a7" x="318.241675" y="288.430125" style="stroke: #000000; stroke-width: 0.8"/>
      </g>
     </g>
     <g id="text_5">
      <!-- 0.04 -->
      <g transform="translate(307.108862 303.028562) scale(0.1 -0.1)">
       <defs>
        <path id="DejaVuSans-34" d="M 2419 4116 
L 825 1625 
L 2419 1625 
L 2419 4116 
z
M 2253 4666 
L 3047 4666 
L 3047 1625 
L 3713 1625 
L 3713 1100 
L 3047 1100 
L 3047 0 
L 2419 0 
L 2419 1100 
L 313 1100 
L 313 1709 
L 2253 4666 
z
" transform="scale(0.015625)"/>
       </defs>
       <use xlink:href="#DejaVuSans-30"/>
       <use xlink:href="#DejaVuSans-2e" x="63.623047"/>
       <use xlink:href="#DejaVuSans-30" x="95.410156"/>
       <use xlink:href="#DejaVuSans-34" x="159.033203"/>
      </g>
     </g>
    </g>
    <g id="xtick_6">
     <g id="line2d_6">
      <g>
       <use xlink:href="#mdf295657a7" x="379.113053" y="288.430125" style="stroke: #000000; stroke-width: 0.8"/>
      </g>
     </g>
     <g id="text_6">
      <!-- 0.05 -->
      <g transform="translate(367.98024 303.028562) scale(0.1 -0.1)">
       <defs>
        <path id="DejaVuSans-35" d="M 691 4666 
L 3169 4666 
L 3169 4134 
L 1269 4134 
L 1269 2991 
Q 1406 3038 1543 3061 
Q 1681 3084 1819 3084 
Q 2600 3084 3056 2656 
Q 3513 2228 3513 1497 
Q 3513 744 3044 326 
Q 2575 -91 1722 -91 
Q 1428 -91 1123 -41 
Q 819 9 494 109 
L 494 744 
Q 775 591 1075 516 
Q 1375 441 1709 441 
Q 2250 441 2565 725 
Q 2881 1009 2881 1497 
Q 2881 1984 2565 2268 
Q 2250 2553 1709 2553 
Q 1456 2553 1204 2497 
Q 953 2441 691 2322 
L 691 4666 
z
" transform="scale(0.015625)"/>
       </defs>
       <use xlink:href="#DejaVuSans-30"/>
       <use xlink:href="#DejaVuSans-2e" x="63.623047"/>
       <use xlink:href="#DejaVuSans-30" x="95.410156"/>
       <use xlink:href="#DejaVuSans-35" x="159.033203"/>
      </g>
     </g>
    </g>
    <g id="text_7">
     <!-- Pixel values -->
     <g transform="translate(207.671719 316.706687) scale(0.1 -0.1)">
      <defs>
       <path id="DejaVuSans-50" d="M 1259 4147 
L 1259 2394 
L 2053 2394 
Q 2494 2394 2734 2622 
Q 2975 2850 2975 3272 
Q 2975 3691 2734 3919 
Q 2494 4147 2053 4147 
L 1259 4147 
z
M 628 4666 
L 2053 4666 
Q 2838 4666 3239 4311 
Q 3641 3956 3641 3272 
Q 3641 2581 3239 2228 
Q 2838 1875 2053 1875 
L 1259 1875 
L 1259 0 
L 628 0 
L 628 4666 
z
" transform="scale(0.015625)"/>
       <path id="DejaVuSans-69" d="M 603 3500 
L 1178 3500 
L 1178 0 
L 603 0 
L 603 3500 
z
M 603 4863 
L 1178 4863 
L 1178 4134 
L 603 4134 
L 603 4863 
z
" transform="scale(0.015625)"/>
       <path id="DejaVuSans-78" d="M 3513 3500 
L 2247 1797 
L 3578 0 
L 2900 0 
L 1881 1375 
L 863 0 
L 184 0 
L 1544 1831 
L 300 3500 
L 978 3500 
L 1906 2253 
L 2834 3500 
L 3513 3500 
z
" transform="scale(0.015625)"/>
       <path id="DejaVuSans-65" d="M 3597 1894 
L 3597 1613 
L 953 1613 
Q 991 1019 1311 708 
Q 1631 397 2203 397 
Q 2534 397 2845 478 
Q 3156 559 3463 722 
L 3463 178 
Q 3153 47 2828 -22 
Q 2503 -91 2169 -91 
Q 1331 -91 842 396 
Q 353 884 353 1716 
Q 353 2575 817 3079 
Q 1281 3584 2069 3584 
Q 2775 3584 3186 3129 
Q 3597 2675 3597 1894 
z
M 3022 2063 
Q 3016 2534 2758 2815 
Q 2500 3097 2075 3097 
Q 1594 3097 1305 2825 
Q 1016 2553 972 2059 
L 3022 2063 
z
" transform="scale(0.015625)"/>
       <path id="DejaVuSans-6c" d="M 603 4863 
L 1178 4863 
L 1178 0 
L 603 0 
L 603 4863 
z
" transform="scale(0.015625)"/>
       <path id="DejaVuSans-20" transform="scale(0.015625)"/>
       <path id="DejaVuSans-76" d="M 191 3500 
L 800 3500 
L 1894 563 
L 2988 3500 
L 3597 3500 
L 2284 0 
L 1503 0 
L 191 3500 
z
" transform="scale(0.015625)"/>
       <path id="DejaVuSans-61" d="M 2194 1759 
Q 1497 1759 1228 1600 
Q 959 1441 959 1056 
Q 959 750 1161 570 
Q 1363 391 1709 391 
Q 2188 391 2477 730 
Q 2766 1069 2766 1631 
L 2766 1759 
L 2194 1759 
z
M 3341 1997 
L 3341 0 
L 2766 0 
L 2766 531 
Q 2569 213 2275 61 
Q 1981 -91 1556 -91 
Q 1019 -91 701 211 
Q 384 513 384 1019 
Q 384 1609 779 1909 
Q 1175 2209 1959 2209 
L 2766 2209 
L 2766 2266 
Q 2766 2663 2505 2880 
Q 2244 3097 1772 3097 
Q 1472 3097 1187 3025 
Q 903 2953 641 2809 
L 641 3341 
Q 956 3463 1253 3523 
Q 1550 3584 1831 3584 
Q 2591 3584 2966 3190 
Q 3341 2797 3341 1997 
z
" transform="scale(0.015625)"/>
       <path id="DejaVuSans-75" d="M 544 1381 
L 544 3500 
L 1119 3500 
L 1119 1403 
Q 1119 906 1312 657 
Q 1506 409 1894 409 
Q 2359 409 2629 706 
Q 2900 1003 2900 1516 
L 2900 3500 
L 3475 3500 
L 3475 0 
L 2900 0 
L 2900 538 
Q 2691 219 2414 64 
Q 2138 -91 1772 -91 
Q 1169 -91 856 284 
Q 544 659 544 1381 
z
M 1991 3584 
L 1991 3584 
z
" transform="scale(0.015625)"/>
       <path id="DejaVuSans-73" d="M 2834 3397 
L 2834 2853 
Q 2591 2978 2328 3040 
Q 2066 3103 1784 3103 
Q 1356 3103 1142 2972 
Q 928 2841 928 2578 
Q 928 2378 1081 2264 
Q 1234 2150 1697 2047 
L 1894 2003 
Q 2506 1872 2764 1633 
Q 3022 1394 3022 966 
Q 3022 478 2636 193 
Q 2250 -91 1575 -91 
Q 1294 -91 989 -36 
Q 684 19 347 128 
L 347 722 
Q 666 556 975 473 
Q 1284 391 1588 391 
Q 1994 391 2212 530 
Q 2431 669 2431 922 
Q 2431 1156 2273 1281 
Q 2116 1406 1581 1522 
L 1381 1569 
Q 847 1681 609 1914 
Q 372 2147 372 2553 
Q 372 3047 722 3315 
Q 1072 3584 1716 3584 
Q 2034 3584 2315 3537 
Q 2597 3491 2834 3397 
z
" transform="scale(0.015625)"/>
      </defs>
      <use xlink:href="#DejaVuSans-50"/>
      <use xlink:href="#DejaVuSans-69" x="58.052734"/>
      <use xlink:href="#DejaVuSans-78" x="85.835938"/>
      <use xlink:href="#DejaVuSans-65" x="141.890625"/>
      <use xlink:href="#DejaVuSans-6c" x="203.414062"/>
      <use xlink:href="#DejaVuSans-20" x="231.197266"/>
      <use xlink:href="#DejaVuSans-76" x="262.984375"/>
      <use xlink:href="#DejaVuSans-61" x="322.164062"/>
      <use xlink:href="#DejaVuSans-6c" x="383.443359"/>
      <use xlink:href="#DejaVuSans-75" x="411.226562"/>
      <use xlink:href="#DejaVuSans-65" x="474.605469"/>
      <use xlink:href="#DejaVuSans-73" x="536.128906"/>
     </g>
    </g>
   </g>
   <g id="matplotlib.axis_2">
    <g id="ytick_1">
     <g id="line2d_7">
      <defs>
       <path id="m360e3c7add" d="M 0 0 
L -3.5 0 
" style="stroke: #000000; stroke-width: 0.8"/>
      </defs>
      <g>
       <use xlink:href="#m360e3c7add" x="58.523438" y="287.176388" style="stroke: #000000; stroke-width: 0.8"/>
      </g>
     </g>
     <g id="text_8">
      <!-- −0.05 -->
      <g transform="translate(20.878125 290.975607) scale(0.1 -0.1)">
       <defs>
        <path id="DejaVuSans-2212" d="M 678 2272 
L 4684 2272 
L 4684 1741 
L 678 1741 
L 678 2272 
z
" transform="scale(0.015625)"/>
       </defs>
       <use xlink:href="#DejaVuSans-2212"/>
       <use xlink:href="#DejaVuSans-30" x="83.789062"/>
       <use xlink:href="#DejaVuSans-2e" x="147.412109"/>
       <use xlink:href="#DejaVuSans-30" x="179.199219"/>
       <use xlink:href="#DejaVuSans-35" x="242.822266"/>
      </g>
     </g>
    </g>
    <g id="ytick_2">
     <g id="line2d_8">
      <g>
       <use xlink:href="#m360e3c7add" x="58.523438" y="254.934914" style="stroke: #000000; stroke-width: 0.8"/>
      </g>
     </g>
     <g id="text_9">
      <!-- 0.00 -->
      <g transform="translate(29.257813 258.734132) scale(0.1 -0.1)">
       <use xlink:href="#DejaVuSans-30"/>
       <use xlink:href="#DejaVuSans-2e" x="63.623047"/>
       <use xlink:href="#DejaVuSans-30" x="95.410156"/>
       <use xlink:href="#DejaVuSans-30" x="159.033203"/>
      </g>
     </g>
    </g>
    <g id="ytick_3">
     <g id="line2d_9">
      <g>
       <use xlink:href="#m360e3c7add" x="58.523438" y="222.693439" style="stroke: #000000; stroke-width: 0.8"/>
      </g>
     </g>
     <g id="text_10">
      <!-- 0.05 -->
      <g transform="translate(29.257813 226.492658) scale(0.1 -0.1)">
       <use xlink:href="#DejaVuSans-30"/>
       <use xlink:href="#DejaVuSans-2e" x="63.623047"/>
       <use xlink:href="#DejaVuSans-30" x="95.410156"/>
       <use xlink:href="#DejaVuSans-35" x="159.033203"/>
      </g>
     </g>
    </g>
    <g id="ytick_4">
     <g id="line2d_10">
      <g>
       <use xlink:href="#m360e3c7add" x="58.523438" y="190.451964" style="stroke: #000000; stroke-width: 0.8"/>
      </g>
     </g>
     <g id="text_11">
      <!-- 0.10 -->
      <g transform="translate(29.257813 194.251183) scale(0.1 -0.1)">
       <use xlink:href="#DejaVuSans-30"/>
       <use xlink:href="#DejaVuSans-2e" x="63.623047"/>
       <use xlink:href="#DejaVuSans-31" x="95.410156"/>
       <use xlink:href="#DejaVuSans-30" x="159.033203"/>
      </g>
     </g>
    </g>
    <g id="ytick_5">
     <g id="line2d_11">
      <g>
       <use xlink:href="#m360e3c7add" x="58.523438" y="158.21049" style="stroke: #000000; stroke-width: 0.8"/>
      </g>
     </g>
     <g id="text_12">
      <!-- 0.15 -->
      <g transform="translate(29.257813 162.009708) scale(0.1 -0.1)">
       <use xlink:href="#DejaVuSans-30"/>
       <use xlink:href="#DejaVuSans-2e" x="63.623047"/>
       <use xlink:href="#DejaVuSans-31" x="95.410156"/>
       <use xlink:href="#DejaVuSans-35" x="159.033203"/>
      </g>
     </g>
    </g>
    <g id="ytick_6">
     <g id="line2d_12">
      <g>
       <use xlink:href="#m360e3c7add" x="58.523438" y="125.969015" style="stroke: #000000; stroke-width: 0.8"/>
      </g>
     </g>
     <g id="text_13">
      <!-- 0.20 -->
      <g transform="translate(29.257813 129.768234) scale(0.1 -0.1)">
       <use xlink:href="#DejaVuSans-30"/>
       <use xlink:href="#DejaVuSans-2e" x="63.623047"/>
       <use xlink:href="#DejaVuSans-32" x="95.410156"/>
       <use xlink:href="#DejaVuSans-30" x="159.033203"/>
      </g>
     </g>
    </g>
    <g id="ytick_7">
     <g id="line2d_13">
      <g>
       <use xlink:href="#m360e3c7add" x="58.523438" y="93.72754" style="stroke: #000000; stroke-width: 0.8"/>
      </g>
     </g>
     <g id="text_14">
      <!-- 0.25 -->
      <g transform="translate(29.257813 97.526759) scale(0.1 -0.1)">
       <use xlink:href="#DejaVuSans-30"/>
       <use xlink:href="#DejaVuSans-2e" x="63.623047"/>
       <use xlink:href="#DejaVuSans-32" x="95.410156"/>
       <use xlink:href="#DejaVuSans-35" x="159.033203"/>
      </g>
     </g>
    </g>
    <g id="ytick_8">
     <g id="line2d_14">
      <g>
       <use xlink:href="#m360e3c7add" x="58.523438" y="61.486066" style="stroke: #000000; stroke-width: 0.8"/>
      </g>
     </g>
     <g id="text_15">
      <!-- 0.30 -->
      <g transform="translate(29.257813 65.285285) scale(0.1 -0.1)">
       <use xlink:href="#DejaVuSans-30"/>
       <use xlink:href="#DejaVuSans-2e" x="63.623047"/>
       <use xlink:href="#DejaVuSans-33" x="95.410156"/>
       <use xlink:href="#DejaVuSans-30" x="159.033203"/>
      </g>
     </g>
    </g>
    <g id="ytick_9">
     <g id="line2d_15">
      <g>
       <use xlink:href="#m360e3c7add" x="58.523438" y="29.244591" style="stroke: #000000; stroke-width: 0.8"/>
      </g>
     </g>
     <g id="text_16">
      <!-- 0.35 -->
      <g transform="translate(29.257813 33.04381) scale(0.1 -0.1)">
       <use xlink:href="#DejaVuSans-30"/>
       <use xlink:href="#DejaVuSans-2e" x="63.623047"/>
       <use xlink:href="#DejaVuSans-33" x="95.410156"/>
       <use xlink:href="#DejaVuSans-35" x="159.033203"/>
      </g>
     </g>
    </g>
    <g id="text_17">
     <!-- Frequency -->
     <g transform="translate(14.798438 181.203812) rotate(-90) scale(0.1 -0.1)">
      <defs>
       <path id="DejaVuSans-46" d="M 628 4666 
L 3309 4666 
L 3309 4134 
L 1259 4134 
L 1259 2759 
L 3109 2759 
L 3109 2228 
L 1259 2228 
L 1259 0 
L 628 0 
L 628 4666 
z
" transform="scale(0.015625)"/>
       <path id="DejaVuSans-72" d="M 2631 2963 
Q 2534 3019 2420 3045 
Q 2306 3072 2169 3072 
Q 1681 3072 1420 2755 
Q 1159 2438 1159 1844 
L 1159 0 
L 581 0 
L 581 3500 
L 1159 3500 
L 1159 2956 
Q 1341 3275 1631 3429 
Q 1922 3584 2338 3584 
Q 2397 3584 2469 3576 
Q 2541 3569 2628 3553 
L 2631 2963 
z
" transform="scale(0.015625)"/>
       <path id="DejaVuSans-71" d="M 947 1747 
Q 947 1113 1208 752 
Q 1469 391 1925 391 
Q 2381 391 2643 752 
Q 2906 1113 2906 1747 
Q 2906 2381 2643 2742 
Q 2381 3103 1925 3103 
Q 1469 3103 1208 2742 
Q 947 2381 947 1747 
z
M 2906 525 
Q 2725 213 2448 61 
Q 2172 -91 1784 -91 
Q 1150 -91 751 415 
Q 353 922 353 1747 
Q 353 2572 751 3078 
Q 1150 3584 1784 3584 
Q 2172 3584 2448 3432 
Q 2725 3281 2906 2969 
L 2906 3500 
L 3481 3500 
L 3481 -1331 
L 2906 -1331 
L 2906 525 
z
" transform="scale(0.015625)"/>
       <path id="DejaVuSans-6e" d="M 3513 2113 
L 3513 0 
L 2938 0 
L 2938 2094 
Q 2938 2591 2744 2837 
Q 2550 3084 2163 3084 
Q 1697 3084 1428 2787 
Q 1159 2491 1159 1978 
L 1159 0 
L 581 0 
L 581 3500 
L 1159 3500 
L 1159 2956 
Q 1366 3272 1645 3428 
Q 1925 3584 2291 3584 
Q 2894 3584 3203 3211 
Q 3513 2838 3513 2113 
z
" transform="scale(0.015625)"/>
       <path id="DejaVuSans-63" d="M 3122 3366 
L 3122 2828 
Q 2878 2963 2633 3030 
Q 2388 3097 2138 3097 
Q 1578 3097 1268 2742 
Q 959 2388 959 1747 
Q 959 1106 1268 751 
Q 1578 397 2138 397 
Q 2388 397 2633 464 
Q 2878 531 3122 666 
L 3122 134 
Q 2881 22 2623 -34 
Q 2366 -91 2075 -91 
Q 1284 -91 818 406 
Q 353 903 353 1747 
Q 353 2603 823 3093 
Q 1294 3584 2113 3584 
Q 2378 3584 2631 3529 
Q 2884 3475 3122 3366 
z
" transform="scale(0.015625)"/>
       <path id="DejaVuSans-79" d="M 2059 -325 
Q 1816 -950 1584 -1140 
Q 1353 -1331 966 -1331 
L 506 -1331 
L 506 -850 
L 844 -850 
Q 1081 -850 1212 -737 
Q 1344 -625 1503 -206 
L 1606 56 
L 191 3500 
L 800 3500 
L 1894 763 
L 2988 3500 
L 3597 3500 
L 2059 -325 
z
" transform="scale(0.015625)"/>
      </defs>
      <use xlink:href="#DejaVuSans-46"/>
      <use xlink:href="#DejaVuSans-72" x="50.269531"/>
      <use xlink:href="#DejaVuSans-65" x="89.132812"/>
      <use xlink:href="#DejaVuSans-71" x="150.65625"/>
      <use xlink:href="#DejaVuSans-75" x="214.132812"/>
      <use xlink:href="#DejaVuSans-65" x="277.511719"/>
      <use xlink:href="#DejaVuSans-6e" x="339.035156"/>
      <use xlink:href="#DejaVuSans-63" x="402.414062"/>
      <use xlink:href="#DejaVuSans-79" x="457.394531"/>
     </g>
    </g>
   </g>
   <g id="line2d_16">
    <path d="M 74.756165 261.841597 
L 75.242567 256.370177 
L 75.728969 246.079626 
L 76.215371 233.855775 
L 76.701772 221.731423 
L 77.188174 211.05604 
L 77.674576 202.641084 
L 78.160978 196.883488 
L 78.64738 193.869676 
L 79.133782 193.462268 
L 79.620184 195.371508 
L 80.106586 199.21325 
L 80.592988 204.555202 
L 81.07939 210.95299 
L 81.565792 217.977456 
L 82.052194 225.234479 
L 82.538596 232.378481 
L 83.024997 239.12068 
L 83.511399 245.233019 
L 83.997801 250.54863 
L 84.484203 254.959561 
L 84.970605 258.412432 
L 85.457007 260.902601 
L 85.943409 262.467317 
L 86.429811 263.178309 
L 86.916213 263.134154 
L 87.402615 262.452727 
L 87.889017 261.263983 
L 88.375419 259.703252 
L 88.861821 257.905209 
L 89.348222 255.99861 
L 89.834624 254.101873 
L 90.321026 252.31954 
L 90.807428 250.739616 
L 91.29383 249.431791 
L 91.780232 248.446481 
L 92.266634 247.81465 
L 92.753036 247.548334 
L 93.239438 247.64179 
L 93.72584 248.073174 
L 94.212242 248.80666 
L 94.698644 249.794891 
L 95.185046 250.981666 
L 95.671447 252.304768 
L 96.157849 253.69883 
L 96.644251 255.098147 
L 97.130653 256.439362 
L 97.617055 257.663926 
L 98.103457 258.720293 
L 98.589859 254.933072 
L 99.076261 254.933481 
L 99.562663 259.148885 
L 100.049065 259.24563 
L 100.535467 259.140463 
L 101.021869 258.842711 
L 101.508271 258.369707 
L 101.994672 257.746019 
L 102.481074 257.002403 
L 102.967476 256.174548 
L 103.453878 255.30162 
L 103.94028 254.424667 
L 104.426682 253.584936 
L 104.913084 252.822138 
L 105.399486 252.172745 
L 105.885888 251.66835 
L 106.37229 251.334173 
L 106.858692 251.187762 
L 107.345094 251.237943 
L 107.831496 251.484082 
L 108.317898 251.915708 
L 108.804299 252.512532 
L 109.290701 253.244899 
L 109.777103 254.074708 
L 110.263505 254.956784 
L 110.749907 255.840729 
L 111.236309 256.673204 
L 111.722711 257.400614 
L 112.209113 257.972134 
L 112.695515 258.342971 
L 113.181917 258.477765 
L 113.668319 258.353971 
L 114.154721 257.965042 
L 114.641123 257.32319 
L 115.127524 256.461487 
L 115.613926 255.434979 
L 116.100328 254.320482 
L 116.58673 253.214658 
L 117.073132 252.229923 
L 117.559534 251.487661 
L 118.045936 251.1082 
L 118.532338 251.196888 
L 119.01874 251.825576 
L 119.505142 253.008726 
L 119.991544 254.673277 
L 120.477946 256.621343 
L 120.964348 258.484698 
L 121.450749 259.669936 
L 121.937151 259.29309 
L 122.423553 256.102386 
L 122.909955 248.387705 
" clip-path="url(#p2371b86476)" style="fill: none; stroke: #1f77b4; stroke-width: 1.5; stroke-linecap: square"/>
   </g>
   <g id="line2d_17">
    <path d="M 74.756165 276.334125 
L 75.306776 254.356607 
L 75.857387 234.752412 
L 76.407999 218.338732 
L 76.95861 205.521748 
L 77.509221 196.393695 
L 78.059833 190.814754 
L 78.610444 188.481414 
L 79.161055 188.982843 
L 79.711667 191.846712 
L 80.262278 196.575752 
L 80.812889 202.676263 
L 81.363501 209.679661 
L 81.914112 217.158069 
L 82.464723 224.734854 
L 83.015335 232.090937 
L 83.565946 238.967609 
L 84.116557 245.166518 
L 84.667169 250.54741 
L 85.21778 255.024165 
L 85.768391 258.559553 
L 86.319003 261.159141 
L 86.869614 262.864682 
L 87.420225 263.74727 
L 87.970837 263.900529 
L 88.521448 263.434021 
L 89.072059 262.467047 
L 89.622671 261.122965 
L 90.173282 259.524121 
L 90.723893 257.78746 
L 91.274505 256.020864 
L 91.825116 254.320214 
L 92.375727 252.767201 
L 92.926339 251.427839 
L 93.47695 250.351665 
L 94.027561 249.571557 
L 94.578173 249.104134 
L 95.128784 248.950656 
L 95.679395 249.098356 
L 96.230007 249.522127 
L 96.780618 250.186491 
L 97.331229 251.047761 
L 97.881841 252.056332 
L 98.432452 253.15901 
L 98.983063 254.301319 
L 99.533675 255.429716 
L 100.084286 256.493652 
L 100.634897 257.447426 
L 101.185508 258.251786 
L 101.73612 254.933385 
L 102.286731 254.933976 
L 102.837342 257.713984 
L 103.387954 257.664415 
L 103.938565 257.492264 
L 104.489176 257.208701 
L 105.039788 256.829221 
L 105.590399 256.372961 
L 106.14101 255.861908 
L 106.691622 255.32001 
L 107.242233 254.772229 
L 107.792844 254.243546 
L 108.343456 253.757973 
L 108.894067 253.337571 
L 109.444678 253.001539 
L 109.99529 252.765377 
L 110.545901 252.640168 
L 111.096512 252.63201 
L 111.647124 252.741608 
L 112.197735 252.964068 
L 112.748346 253.288908 
L 113.298958 253.700287 
L 113.849569 254.177491 
L 114.40018 254.695648 
L 114.950792 255.226692 
L 115.501403 255.740552 
L 116.052014 256.206554 
L 116.602626 256.594993 
L 117.153237 256.878844 
L 117.703848 257.035551 
L 118.25446 257.048827 
L 118.805071 256.910381 
L 119.355682 256.621467 
L 119.906294 256.19415 
L 120.456905 255.652137 
L 121.007516 255.031029 
L 121.558128 254.377807 
L 122.108739 253.749359 
L 122.65935 253.209809 
L 123.209962 252.826412 
L 123.760573 252.663724 
L 124.311184 252.775734 
L 124.861796 253.195634 
L 125.412407 253.922835 
L 125.963018 254.906834 
L 126.51363 256.02748 
L 127.064241 257.071162 
L 127.614852 257.702399 
L 128.165464 257.430253 
L 128.716075 255.568982 
L 129.266686 251.192255 
" clip-path="url(#p2371b86476)" style="fill: none; stroke: #ff7f0e; stroke-width: 1.5; stroke-linecap: square"/>
   </g>
   <g id="line2d_18">
    <path d="M 74.756165 271.617941 
L 75.694796 244.262891 
L 76.633427 222.800555 
L 77.572058 206.870988 
L 78.510689 195.975134 
L 79.44932 189.525142 
L 80.387951 186.885583 
L 81.326582 187.406637 
L 82.265213 190.450235 
L 83.203845 195.410075 
L 84.142476 201.726348 
L 85.081107 208.895925 
L 86.019738 216.478712 
L 86.958369 224.100786 
L 87.897 231.454886 
L 88.835631 238.298774 
L 89.774262 244.451897 
L 90.712893 249.790779 
L 91.651524 254.243475 
L 92.590155 257.783414 
L 93.528787 260.422881 
L 94.467418 262.206388 
L 95.406049 263.204109 
L 96.34468 263.505545 
L 97.283311 263.213556 
L 98.221942 262.438857 
L 99.160573 261.295047 
L 100.099204 259.894246 
L 101.037835 258.343348 
L 101.976466 256.740935 
L 102.915097 255.174822 
L 103.853729 253.72024 
L 104.79236 252.438628 
L 105.730991 251.376981 
L 106.669622 250.56774 
L 107.608253 250.029133 
L 108.546884 249.765948 
L 109.485515 249.770654 
L 110.424146 250.024812 
L 111.362777 250.500714 
L 112.301408 251.163191 
L 113.240039 251.971517 
L 114.178671 252.881355 
L 115.117302 253.846686 
L 116.055933 254.82167 
L 116.994564 255.762391 
L 117.933195 256.628434 
L 118.871826 257.384272 
L 119.810457 258.000416 
L 120.749088 254.933602 
L 121.687719 254.934347 
L 122.62635 256.684378 
L 123.564981 256.510788 
L 124.503613 256.274256 
L 125.442244 255.987875 
L 126.380875 255.666198 
L 127.319506 255.324642 
L 128.258137 254.978875 
L 129.196768 254.644219 
L 130.135399 254.335078 
L 131.07403 254.064406 
L 132.012661 253.843244 
L 132.951292 253.680313 
L 133.889923 253.581702 
L 134.828555 253.550639 
L 135.767186 253.587371 
L 136.705817 253.68914 
L 137.644448 253.850273 
L 138.583079 254.062382 
L 139.52171 254.314666 
L 140.460341 254.594324 
L 141.398972 254.88705 
L 142.337603 255.177625 
L 143.276234 255.450571 
L 144.214865 255.690859 
L 145.153497 255.884658 
L 146.092128 256.020078 
L 147.030759 256.087914 
L 147.96939 256.082329 
L 148.908021 256.001461 
L 149.846652 255.847916 
L 150.785283 255.629098 
L 151.723914 255.357338 
L 152.662545 255.049779 
L 153.601176 254.727958 
L 154.539807 254.417039 
L 155.478439 254.144637 
L 156.41707 253.939174 
L 157.355701 253.827706 
L 158.294332 253.833152 
L 159.232963 253.970864 
L 160.171594 254.244458 
L 161.110225 254.640839 
L 162.048856 255.124349 
L 162.987487 255.629944 
L 163.926118 256.055341 
L 164.864749 256.252038 
L 165.803381 256.015137 
L 166.742012 255.071871 
L 167.680643 253.068767 
" clip-path="url(#p2371b86476)" style="fill: none; stroke: #2ca02c; stroke-width: 1.5; stroke-linecap: square"/>
   </g>
   <g id="line2d_19">
    <path d="M 74.756165 34.414125 
L 78.035504 88.257175 
L 81.314842 133.321885 
L 84.594181 170.268838 
L 87.87352 199.858964 
L 91.152859 222.909339 
L 94.432198 240.257207 
L 97.711537 252.731246 
L 100.990876 261.129183 
L 104.270214 266.200916 
L 107.549553 268.636401 
L 110.828892 269.057592 
L 114.108231 268.013825 
L 117.38757 265.980063 
L 120.666909 263.35749 
L 123.946247 260.476001 
L 127.225586 257.598162 
L 130.504925 254.924295 
L 133.784264 252.598348 
L 137.063603 250.714286 
L 140.342942 249.322749 
L 143.62228 248.437777 
L 146.901619 248.043427 
L 150.180958 248.100136 
L 153.460297 248.550714 
L 156.739636 249.325877 
L 160.018975 250.34925 
L 163.298314 251.541794 
L 166.577652 252.825624 
L 169.856991 254.12721 
L 173.13633 255.379964 
L 176.415669 256.526214 
L 179.695008 257.518616 
L 182.974347 258.321008 
L 186.253685 258.908779 
L 189.533024 259.268775 
L 192.812363 259.398811 
L 196.091702 259.306845 
L 199.371041 259.009864 
L 202.65038 258.532545 
L 205.929718 257.905761 
L 209.209057 257.164967 
L 212.488396 256.348549 
L 215.767735 255.496165 
L 219.047074 254.647147 
L 222.326413 253.838991 
L 225.605752 253.105992 
L 228.88509 252.478044 
L 232.164429 251.979647 
L 235.443768 254.936066 
L 238.723107 254.931805 
L 242.002446 263.864387 
L 245.281785 264.926117 
L 248.561123 265.476674 
L 251.840462 265.497609 
L 255.119801 264.995173 
L 258.39914 263.999831 
L 261.678479 262.564818 
L 264.957818 260.763779 
L 268.237157 258.687564 
L 271.516495 256.440297 
L 274.795834 254.134827 
L 278.075173 251.887735 
L 281.354512 249.814058 
L 284.633851 248.021913 
L 287.91319 246.607233 
L 291.192528 245.648815 
L 294.471867 245.203894 
L 297.751206 245.304448 
L 301.030545 245.954448 
L 304.309884 247.128222 
L 307.589223 248.770105 
L 310.868561 250.795524 
L 314.1479 253.093595 
L 317.427239 255.5313 
L 320.706578 257.959253 
L 323.985917 260.218969 
L 327.265256 262.151527 
L 330.544595 263.60739 
L 333.823933 264.457081 
L 337.103272 264.602287 
L 340.382611 263.986864 
L 343.66195 262.607077 
L 346.941289 260.520261 
L 350.220628 257.850948 
L 353.499966 254.793318 
L 356.779305 251.608673 
L 360.058644 248.616396 
L 363.337983 246.176686 
L 366.617322 244.663104 
L 369.896661 244.422712 
L 373.175999 245.721361 
L 376.455338 248.671355 
L 379.734677 253.138467 
L 383.014016 258.624922 
L 386.293355 264.124674 
L 389.572694 267.946904 
L 392.852033 267.503327 
L 396.131371 259.054481 
L 399.41071 237.409771 
" clip-path="url(#p2371b86476)" style="fill: none; stroke: #d62728; stroke-width: 1.5; stroke-linecap: square"/>
   </g>
   <g id="line2d_20">
    <path d="M 74.756165 244.274388 
L 74.982236 250.456768 
L 75.208307 255.642452 
L 75.434378 259.289985 
L 75.660449 261.150729 
L 75.88652 261.195215 
L 76.112591 259.551515 
L 76.338662 256.454285 
L 76.564733 252.20321 
L 76.790804 247.129722 
L 77.016875 241.570902 
L 77.242946 235.84963 
L 77.469017 230.260065 
L 77.695088 225.057676 
L 77.921159 220.453081 
L 78.14723 216.609047 
L 78.373301 213.640057 
L 78.599372 211.613916 
L 78.825443 210.554938 
L 79.051514 210.448298 
L 79.277585 211.245191 
L 79.503656 212.868494 
L 79.729727 215.218657 
L 79.955798 218.179607 
L 80.18187 221.624475 
L 80.407941 225.420998 
L 80.634012 229.436481 
L 80.860083 233.542216 
L 81.086154 237.617317 
L 81.312225 241.551904 
L 81.538296 245.249648 
L 81.764367 248.629642 
L 81.990438 251.627648 
L 82.216509 254.196717 
L 82.44258 256.307248 
L 82.668651 257.946521 
L 82.894722 259.117766 
L 83.120793 259.838828 
L 83.346864 260.140505 
L 83.572935 260.064616 
L 83.799006 259.661877 
L 84.025077 258.989647 
L 84.251148 258.109632 
L 84.477219 257.085583 
L 84.70329 255.981074 
L 84.929361 254.857406 
L 85.155432 253.771688 
L 85.381503 252.775141 
L 85.607574 251.911667 
L 85.833645 254.936385 
L 86.059716 254.936263 
L 86.285787 250.903094 
L 86.511858 250.772657 
L 86.737929 250.833534 
L 86.964 251.076981 
L 87.190071 251.486706 
L 87.416142 252.039722 
L 87.642214 252.707412 
L 87.868285 253.456765 
L 88.094356 254.251757 
L 88.320427 255.054829 
L 88.546498 255.828424 
L 88.772569 256.536535 
L 88.99864 257.146212 
L 89.224711 257.628986 
L 89.450782 257.962152 
L 89.676853 258.129868 
L 89.902924 258.124022 
L 90.128995 257.944827 
L 90.355066 257.601097 
L 90.581137 257.110183 
L 90.807208 256.497532 
L 91.033279 255.795865 
L 91.25935 255.043964 
L 91.485421 254.285068 
L 91.711492 253.564914 
L 91.937563 252.929448 
L 92.163634 252.422274 
L 92.389705 252.081899 
L 92.615776 251.93889 
L 92.841847 252.013064 
L 93.067918 252.310839 
L 93.293989 252.822959 
L 93.52006 253.522771 
L 93.746131 254.365318 
L 93.972202 255.28752 
L 94.198273 256.209772 
L 94.424344 257.039309 
L 94.650415 257.675753 
L 94.876486 258.019303 
L 95.102558 257.982065 
L 95.328629 257.503084 
L 95.5547 256.567711 
L 95.780771 255.231954 
L 96.006842 253.652595 
L 96.232913 252.123849 
L 96.458984 251.121464 
L 96.685055 251.355215 
L 96.911126 253.830829 
L 97.137197 259.922448 
" clip-path="url(#p2371b86476)" style="fill: none; stroke: #9467bd; stroke-width: 1.5; stroke-linecap: square"/>
   </g>
   <g id="line2d_21">
    <path d="M 74.756165 256.680106 
L 74.913003 251.755729 
L 75.069841 249.784646 
L 75.226679 249.811396 
L 75.383518 251.069976 
L 75.540356 252.958871 
L 75.697194 255.018251 
L 75.854032 256.909228 
L 76.01087 258.39507 
L 76.167709 259.32426 
L 76.324547 259.615302 
L 76.481385 259.243171 
L 76.638223 258.227299 
L 76.795061 256.621003 
L 76.9519 254.502264 
L 77.108738 251.965746 
L 77.265576 249.115973 
L 77.422414 246.061576 
L 77.579252 242.910515 
L 77.736091 239.766192 
L 77.892929 236.724378 
L 78.049767 233.870867 
L 78.206605 231.279793 
L 78.363443 229.012523 
L 78.520282 227.117063 
L 78.67712 225.627919 
L 78.833958 224.56633 
L 78.990796 223.940832 
L 79.147635 223.748095 
L 79.304473 223.973963 
L 79.461311 224.594677 
L 79.618149 225.578206 
L 79.774987 226.885668 
L 79.931826 228.472787 
L 80.088664 230.291359 
L 80.245502 232.2907 
L 80.40234 234.419028 
L 80.559178 236.624787 
L 80.716017 238.857861 
L 80.872855 241.070681 
L 81.029693 243.219197 
L 81.186531 245.263721 
L 81.343369 247.169608 
L 81.500208 248.907798 
L 81.657046 250.455191 
L 81.813884 251.794873 
L 81.970722 252.916189 
L 82.12756 253.814665 
L 82.284399 254.491798 
L 82.441237 254.932618 
L 82.598075 254.933029 
L 82.754913 254.848729 
L 82.911751 254.758669 
L 83.06859 254.551046 
L 83.225428 254.251015 
L 83.382266 253.884294 
L 83.539104 253.476417 
L 83.695942 253.052025 
L 83.852781 252.63421 
L 84.009619 252.243921 
L 84.166457 251.899453 
L 84.323295 251.616023 
L 84.480133 251.405439 
L 84.636972 251.275874 
L 84.79381 251.231755 
L 84.950648 251.273751 
L 85.107486 251.398883 
L 85.264324 251.600739 
L 85.421163 251.869794 
L 85.578001 252.193833 
L 85.734839 252.558463 
L 85.891677 252.947701 
L 86.048516 253.344639 
L 86.205354 253.732146 
L 86.362192 254.09361 
L 86.51903 254.413691 
L 86.675868 254.679062 
L 86.832707 254.879111 
L 86.989545 255.006585 
L 87.146383 255.058136 
L 87.303221 255.034746 
L 87.460059 254.941992 
L 87.616898 254.790127 
L 87.773736 254.593923 
L 87.930574 254.372254 
L 88.087412 254.147376 
L 88.24425 253.943857 
L 88.401089 253.787129 
L 88.557927 253.701607 
L 88.714765 253.708345 
L 88.871603 253.822174 
L 89.028441 254.048299 
L 89.18528 254.378294 
L 89.342118 254.785462 
L 89.498956 255.219524 
L 89.655794 255.600595 
L 89.812632 255.812406 
L 89.969471 255.694739 
L 90.126309 255.035047 
L 90.283147 253.559224 
" clip-path="url(#p2371b86476)" style="fill: none; stroke: #8c564b; stroke-width: 1.5; stroke-linecap: square"/>
   </g>
   <g id="patch_3">
    <path d="M 58.523438 288.430125 
L 58.523438 22.318125 
" style="fill: none; stroke: #000000; stroke-width: 0.8; stroke-linejoin: miter; stroke-linecap: square"/>
   </g>
   <g id="patch_4">
    <path d="M 415.643438 288.430125 
L 415.643438 22.318125 
" style="fill: none; stroke: #000000; stroke-width: 0.8; stroke-linejoin: miter; stroke-linecap: square"/>
   </g>
   <g id="patch_5">
    <path d="M 58.523438 288.430125 
L 415.643438 288.430125 
" style="fill: none; stroke: #000000; stroke-width: 0.8; stroke-linejoin: miter; stroke-linecap: square"/>
   </g>
   <g id="patch_6">
    <path d="M 58.523438 22.318125 
L 415.643438 22.318125 
" style="fill: none; stroke: #000000; stroke-width: 0.8; stroke-linejoin: miter; stroke-linecap: square"/>
   </g>
   <g id="text_18">
    <!-- AD - xtract_prob_Frontal_Aslant_Tract_L -->
    <g transform="translate(118.898438 16.318125) scale(0.12 -0.12)">
     <defs>
      <path id="DejaVuSans-41" d="M 2188 4044 
L 1331 1722 
L 3047 1722 
L 2188 4044 
z
M 1831 4666 
L 2547 4666 
L 4325 0 
L 3669 0 
L 3244 1197 
L 1141 1197 
L 716 0 
L 50 0 
L 1831 4666 
z
" transform="scale(0.015625)"/>
      <path id="DejaVuSans-44" d="M 1259 4147 
L 1259 519 
L 2022 519 
Q 2988 519 3436 956 
Q 3884 1394 3884 2338 
Q 3884 3275 3436 3711 
Q 2988 4147 2022 4147 
L 1259 4147 
z
M 628 4666 
L 1925 4666 
Q 3281 4666 3915 4102 
Q 4550 3538 4550 2338 
Q 4550 1131 3912 565 
Q 3275 0 1925 0 
L 628 0 
L 628 4666 
z
" transform="scale(0.015625)"/>
      <path id="DejaVuSans-2d" d="M 313 2009 
L 1997 2009 
L 1997 1497 
L 313 1497 
L 313 2009 
z
" transform="scale(0.015625)"/>
      <path id="DejaVuSans-74" d="M 1172 4494 
L 1172 3500 
L 2356 3500 
L 2356 3053 
L 1172 3053 
L 1172 1153 
Q 1172 725 1289 603 
Q 1406 481 1766 481 
L 2356 481 
L 2356 0 
L 1766 0 
Q 1100 0 847 248 
Q 594 497 594 1153 
L 594 3053 
L 172 3053 
L 172 3500 
L 594 3500 
L 594 4494 
L 1172 4494 
z
" transform="scale(0.015625)"/>
      <path id="DejaVuSans-5f" d="M 3263 -1063 
L 3263 -1509 
L -63 -1509 
L -63 -1063 
L 3263 -1063 
z
" transform="scale(0.015625)"/>
      <path id="DejaVuSans-70" d="M 1159 525 
L 1159 -1331 
L 581 -1331 
L 581 3500 
L 1159 3500 
L 1159 2969 
Q 1341 3281 1617 3432 
Q 1894 3584 2278 3584 
Q 2916 3584 3314 3078 
Q 3713 2572 3713 1747 
Q 3713 922 3314 415 
Q 2916 -91 2278 -91 
Q 1894 -91 1617 61 
Q 1341 213 1159 525 
z
M 3116 1747 
Q 3116 2381 2855 2742 
Q 2594 3103 2138 3103 
Q 1681 3103 1420 2742 
Q 1159 2381 1159 1747 
Q 1159 1113 1420 752 
Q 1681 391 2138 391 
Q 2594 391 2855 752 
Q 3116 1113 3116 1747 
z
" transform="scale(0.015625)"/>
      <path id="DejaVuSans-6f" d="M 1959 3097 
Q 1497 3097 1228 2736 
Q 959 2375 959 1747 
Q 959 1119 1226 758 
Q 1494 397 1959 397 
Q 2419 397 2687 759 
Q 2956 1122 2956 1747 
Q 2956 2369 2687 2733 
Q 2419 3097 1959 3097 
z
M 1959 3584 
Q 2709 3584 3137 3096 
Q 3566 2609 3566 1747 
Q 3566 888 3137 398 
Q 2709 -91 1959 -91 
Q 1206 -91 779 398 
Q 353 888 353 1747 
Q 353 2609 779 3096 
Q 1206 3584 1959 3584 
z
" transform="scale(0.015625)"/>
      <path id="DejaVuSans-62" d="M 3116 1747 
Q 3116 2381 2855 2742 
Q 2594 3103 2138 3103 
Q 1681 3103 1420 2742 
Q 1159 2381 1159 1747 
Q 1159 1113 1420 752 
Q 1681 391 2138 391 
Q 2594 391 2855 752 
Q 3116 1113 3116 1747 
z
M 1159 2969 
Q 1341 3281 1617 3432 
Q 1894 3584 2278 3584 
Q 2916 3584 3314 3078 
Q 3713 2572 3713 1747 
Q 3713 922 3314 415 
Q 2916 -91 2278 -91 
Q 1894 -91 1617 61 
Q 1341 213 1159 525 
L 1159 0 
L 581 0 
L 581 4863 
L 1159 4863 
L 1159 2969 
z
" transform="scale(0.015625)"/>
      <path id="DejaVuSans-54" d="M -19 4666 
L 3928 4666 
L 3928 4134 
L 2272 4134 
L 2272 0 
L 1638 0 
L 1638 4134 
L -19 4134 
L -19 4666 
z
" transform="scale(0.015625)"/>
      <path id="DejaVuSans-4c" d="M 628 4666 
L 1259 4666 
L 1259 531 
L 3531 531 
L 3531 0 
L 628 0 
L 628 4666 
z
" transform="scale(0.015625)"/>
     </defs>
     <use xlink:href="#DejaVuSans-41"/>
     <use xlink:href="#DejaVuSans-44" x="68.408203"/>
     <use xlink:href="#DejaVuSans-20" x="145.410156"/>
     <use xlink:href="#DejaVuSans-2d" x="177.197266"/>
     <use xlink:href="#DejaVuSans-20" x="213.28125"/>
     <use xlink:href="#DejaVuSans-78" x="245.068359"/>
     <use xlink:href="#DejaVuSans-74" x="304.248047"/>
     <use xlink:href="#DejaVuSans-72" x="343.457031"/>
     <use xlink:href="#DejaVuSans-61" x="384.570312"/>
     <use xlink:href="#DejaVuSans-63" x="445.849609"/>
     <use xlink:href="#DejaVuSans-74" x="500.830078"/>
     <use xlink:href="#DejaVuSans-5f" x="540.039062"/>
     <use xlink:href="#DejaVuSans-70" x="590.039062"/>
     <use xlink:href="#DejaVuSans-72" x="653.515625"/>
     <use xlink:href="#DejaVuSans-6f" x="692.378906"/>
     <use xlink:href="#DejaVuSans-62" x="753.560547"/>
     <use xlink:href="#DejaVuSans-5f" x="817.037109"/>
     <use xlink:href="#DejaVuSans-46" x="867.037109"/>
     <use xlink:href="#DejaVuSans-72" x="917.306641"/>
     <use xlink:href="#DejaVuSans-6f" x="956.169922"/>
     <use xlink:href="#DejaVuSans-6e" x="1017.351562"/>
     <use xlink:href="#DejaVuSans-74" x="1080.730469"/>
     <use xlink:href="#DejaVuSans-61" x="1119.939453"/>
     <use xlink:href="#DejaVuSans-6c" x="1181.21875"/>
     <use xlink:href="#DejaVuSans-5f" x="1209.001953"/>
     <use xlink:href="#DejaVuSans-41" x="1259.001953"/>
     <use xlink:href="#DejaVuSans-73" x="1327.410156"/>
     <use xlink:href="#DejaVuSans-6c" x="1379.509766"/>
     <use xlink:href="#DejaVuSans-61" x="1407.292969"/>
     <use xlink:href="#DejaVuSans-6e" x="1468.572266"/>
     <use xlink:href="#DejaVuSans-74" x="1531.951172"/>
     <use xlink:href="#DejaVuSans-5f" x="1571.160156"/>
     <use xlink:href="#DejaVuSans-54" x="1621.160156"/>
     <use xlink:href="#DejaVuSans-72" x="1667.494141"/>
     <use xlink:href="#DejaVuSans-61" x="1708.607422"/>
     <use xlink:href="#DejaVuSans-63" x="1769.886719"/>
     <use xlink:href="#DejaVuSans-74" x="1824.867188"/>
     <use xlink:href="#DejaVuSans-5f" x="1864.076172"/>
     <use xlink:href="#DejaVuSans-4c" x="1914.076172"/>
    </g>
   </g>
   <g id="legend_1">
    <g id="patch_7">
     <path d="M 458.355438 146.666825 
L 556.211688 146.666825 
Q 558.211688 146.666825 558.211688 144.666825 
L 558.211688 55.929325 
Q 558.211688 53.929325 556.211688 53.929325 
L 458.355438 53.929325 
Q 456.355438 53.929325 456.355438 55.929325 
L 456.355438 144.666825 
Q 456.355438 146.666825 458.355438 146.666825 
z
" style="fill: #ffffff; opacity: 0.8; stroke: #cccccc; stroke-linejoin: miter"/>
    </g>
    <g id="line2d_22">
     <path d="M 460.355438 62.027762 
L 470.355438 62.027762 
L 480.355438 62.027762 
" style="fill: none; stroke: #1f77b4; stroke-width: 1.5; stroke-linecap: square"/>
    </g>
    <g id="text_19">
     <!-- 20_06_02_E3 -->
     <g transform="translate(488.355438 65.527762) scale(0.1 -0.1)">
      <defs>
       <path id="DejaVuSans-36" d="M 2113 2584 
Q 1688 2584 1439 2293 
Q 1191 2003 1191 1497 
Q 1191 994 1439 701 
Q 1688 409 2113 409 
Q 2538 409 2786 701 
Q 3034 994 3034 1497 
Q 3034 2003 2786 2293 
Q 2538 2584 2113 2584 
z
M 3366 4563 
L 3366 3988 
Q 3128 4100 2886 4159 
Q 2644 4219 2406 4219 
Q 1781 4219 1451 3797 
Q 1122 3375 1075 2522 
Q 1259 2794 1537 2939 
Q 1816 3084 2150 3084 
Q 2853 3084 3261 2657 
Q 3669 2231 3669 1497 
Q 3669 778 3244 343 
Q 2819 -91 2113 -91 
Q 1303 -91 875 529 
Q 447 1150 447 2328 
Q 447 3434 972 4092 
Q 1497 4750 2381 4750 
Q 2619 4750 2861 4703 
Q 3103 4656 3366 4563 
z
" transform="scale(0.015625)"/>
       <path id="DejaVuSans-45" d="M 628 4666 
L 3578 4666 
L 3578 4134 
L 1259 4134 
L 1259 2753 
L 3481 2753 
L 3481 2222 
L 1259 2222 
L 1259 531 
L 3634 531 
L 3634 0 
L 628 0 
L 628 4666 
z
" transform="scale(0.015625)"/>
      </defs>
      <use xlink:href="#DejaVuSans-32"/>
      <use xlink:href="#DejaVuSans-30" x="63.623047"/>
      <use xlink:href="#DejaVuSans-5f" x="127.246094"/>
      <use xlink:href="#DejaVuSans-30" x="177.246094"/>
      <use xlink:href="#DejaVuSans-36" x="240.869141"/>
      <use xlink:href="#DejaVuSans-5f" x="304.492188"/>
      <use xlink:href="#DejaVuSans-30" x="354.492188"/>
      <use xlink:href="#DejaVuSans-32" x="418.115234"/>
      <use xlink:href="#DejaVuSans-5f" x="481.738281"/>
      <use xlink:href="#DejaVuSans-45" x="531.738281"/>
      <use xlink:href="#DejaVuSans-33" x="594.921875"/>
     </g>
    </g>
    <g id="line2d_23">
     <path d="M 460.355438 76.984013 
L 470.355438 76.984013 
L 480.355438 76.984013 
" style="fill: none; stroke: #ff7f0e; stroke-width: 1.5; stroke-linecap: square"/>
    </g>
    <g id="text_20">
     <!-- 20_05_01_E3 -->
     <g transform="translate(488.355438 80.484013) scale(0.1 -0.1)">
      <use xlink:href="#DejaVuSans-32"/>
      <use xlink:href="#DejaVuSans-30" x="63.623047"/>
      <use xlink:href="#DejaVuSans-5f" x="127.246094"/>
      <use xlink:href="#DejaVuSans-30" x="177.246094"/>
      <use xlink:href="#DejaVuSans-35" x="240.869141"/>
      <use xlink:href="#DejaVuSans-5f" x="304.492188"/>
      <use xlink:href="#DejaVuSans-30" x="354.492188"/>
      <use xlink:href="#DejaVuSans-31" x="418.115234"/>
      <use xlink:href="#DejaVuSans-5f" x="481.738281"/>
      <use xlink:href="#DejaVuSans-45" x="531.738281"/>
      <use xlink:href="#DejaVuSans-33" x="594.921875"/>
     </g>
    </g>
    <g id="line2d_24">
     <path d="M 460.355438 91.940262 
L 470.355438 91.940262 
L 480.355438 91.940262 
" style="fill: none; stroke: #2ca02c; stroke-width: 1.5; stroke-linecap: square"/>
    </g>
    <g id="text_21">
     <!-- 20_02_02_E3 -->
     <g transform="translate(488.355438 95.440262) scale(0.1 -0.1)">
      <use xlink:href="#DejaVuSans-32"/>
      <use xlink:href="#DejaVuSans-30" x="63.623047"/>
      <use xlink:href="#DejaVuSans-5f" x="127.246094"/>
      <use xlink:href="#DejaVuSans-30" x="177.246094"/>
      <use xlink:href="#DejaVuSans-32" x="240.869141"/>
      <use xlink:href="#DejaVuSans-5f" x="304.492188"/>
      <use xlink:href="#DejaVuSans-30" x="354.492188"/>
      <use xlink:href="#DejaVuSans-32" x="418.115234"/>
      <use xlink:href="#DejaVuSans-5f" x="481.738281"/>
      <use xlink:href="#DejaVuSans-45" x="531.738281"/>
      <use xlink:href="#DejaVuSans-33" x="594.921875"/>
     </g>
    </g>
    <g id="line2d_25">
     <path d="M 460.355438 106.896513 
L 470.355438 106.896513 
L 480.355438 106.896513 
" style="fill: none; stroke: #d62728; stroke-width: 1.5; stroke-linecap: square"/>
    </g>
    <g id="text_22">
     <!-- 20_10_02_E3 -->
     <g transform="translate(488.355438 110.396513) scale(0.1 -0.1)">
      <use xlink:href="#DejaVuSans-32"/>
      <use xlink:href="#DejaVuSans-30" x="63.623047"/>
      <use xlink:href="#DejaVuSans-5f" x="127.246094"/>
      <use xlink:href="#DejaVuSans-31" x="177.246094"/>
      <use xlink:href="#DejaVuSans-30" x="240.869141"/>
      <use xlink:href="#DejaVuSans-5f" x="304.492188"/>
      <use xlink:href="#DejaVuSans-30" x="354.492188"/>
      <use xlink:href="#DejaVuSans-32" x="418.115234"/>
      <use xlink:href="#DejaVuSans-5f" x="481.738281"/>
      <use xlink:href="#DejaVuSans-45" x="531.738281"/>
      <use xlink:href="#DejaVuSans-33" x="594.921875"/>
     </g>
    </g>
    <g id="line2d_26">
     <path d="M 460.355438 121.852762 
L 470.355438 121.852762 
L 480.355438 121.852762 
" style="fill: none; stroke: #9467bd; stroke-width: 1.5; stroke-linecap: square"/>
    </g>
    <g id="text_23">
     <!-- 20_08_02_E3 -->
     <g transform="translate(488.355438 125.352762) scale(0.1 -0.1)">
      <defs>
       <path id="DejaVuSans-38" d="M 2034 2216 
Q 1584 2216 1326 1975 
Q 1069 1734 1069 1313 
Q 1069 891 1326 650 
Q 1584 409 2034 409 
Q 2484 409 2743 651 
Q 3003 894 3003 1313 
Q 3003 1734 2745 1975 
Q 2488 2216 2034 2216 
z
M 1403 2484 
Q 997 2584 770 2862 
Q 544 3141 544 3541 
Q 544 4100 942 4425 
Q 1341 4750 2034 4750 
Q 2731 4750 3128 4425 
Q 3525 4100 3525 3541 
Q 3525 3141 3298 2862 
Q 3072 2584 2669 2484 
Q 3125 2378 3379 2068 
Q 3634 1759 3634 1313 
Q 3634 634 3220 271 
Q 2806 -91 2034 -91 
Q 1263 -91 848 271 
Q 434 634 434 1313 
Q 434 1759 690 2068 
Q 947 2378 1403 2484 
z
M 1172 3481 
Q 1172 3119 1398 2916 
Q 1625 2713 2034 2713 
Q 2441 2713 2670 2916 
Q 2900 3119 2900 3481 
Q 2900 3844 2670 4047 
Q 2441 4250 2034 4250 
Q 1625 4250 1398 4047 
Q 1172 3844 1172 3481 
z
" transform="scale(0.015625)"/>
      </defs>
      <use xlink:href="#DejaVuSans-32"/>
      <use xlink:href="#DejaVuSans-30" x="63.623047"/>
      <use xlink:href="#DejaVuSans-5f" x="127.246094"/>
      <use xlink:href="#DejaVuSans-30" x="177.246094"/>
      <use xlink:href="#DejaVuSans-38" x="240.869141"/>
      <use xlink:href="#DejaVuSans-5f" x="304.492188"/>
      <use xlink:href="#DejaVuSans-30" x="354.492188"/>
      <use xlink:href="#DejaVuSans-32" x="418.115234"/>
      <use xlink:href="#DejaVuSans-5f" x="481.738281"/>
      <use xlink:href="#DejaVuSans-45" x="531.738281"/>
      <use xlink:href="#DejaVuSans-33" x="594.921875"/>
     </g>
    </g>
    <g id="line2d_27">
     <path d="M 460.355438 136.809012 
L 470.355438 136.809012 
L 480.355438 136.809012 
" style="fill: none; stroke: #8c564b; stroke-width: 1.5; stroke-linecap: square"/>
    </g>
    <g id="text_24">
     <!-- 20_11_02_E3 -->
     <g transform="translate(488.355438 140.309012) scale(0.1 -0.1)">
      <use xlink:href="#DejaVuSans-32"/>
      <use xlink:href="#DejaVuSans-30" x="63.623047"/>
      <use xlink:href="#DejaVuSans-5f" x="127.246094"/>
      <use xlink:href="#DejaVuSans-31" x="177.246094"/>
      <use xlink:href="#DejaVuSans-31" x="240.869141"/>
      <use xlink:href="#DejaVuSans-5f" x="304.492188"/>
      <use xlink:href="#DejaVuSans-30" x="354.492188"/>
      <use xlink:href="#DejaVuSans-32" x="418.115234"/>
      <use xlink:href="#DejaVuSans-5f" x="481.738281"/>
      <use xlink:href="#DejaVuSans-45" x="531.738281"/>
      <use xlink:href="#DejaVuSans-33" x="594.921875"/>
     </g>
    </g>
   </g>
  </g>
 </g>
 <defs>
  <clipPath id="p2371b86476">
   <rect x="58.523438" y="22.318125" width="357.12" height="266.112"/>
  </clipPath>
 </defs>
</svg>
