<?xml version="1.0" encoding="utf-8" standalone="no"?>
<!DOCTYPE svg PUBLIC "-//W3C//DTD SVG 1.1//EN"
  "http://www.w3.org/Graphics/SVG/1.1/DTD/svg11.dtd">
<svg xmlns:xlink="http://www.w3.org/1999/xlink" width="565.411687pt" height="325.986375pt" viewBox="0 0 565.411687 325.986375" xmlns="http://www.w3.org/2000/svg" version="1.1">
 <metadata>
  <rdf:RDF xmlns:dc="http://purl.org/dc/elements/1.1/" xmlns:cc="http://creativecommons.org/ns#" xmlns:rdf="http://www.w3.org/1999/02/22-rdf-syntax-ns#">
   <cc:Work>
    <dc:type rdf:resource="http://purl.org/dc/dcmitype/StillImage"/>
    <dc:date>2023-02-07T22:59:56.099964</dc:date>
    <dc:format>image/svg+xml</dc:format>
    <dc:creator>
     <cc:Agent>
      <dc:title>Matplotlib v3.6.2, https://matplotlib.org/</dc:title>
     </cc:Agent>
    </dc:creator>
   </cc:Work>
  </rdf:RDF>
 </metadata>
 <defs>
  <style type="text/css">*{stroke-linejoin: round; stroke-linecap: butt}</style>
 </defs>
 <g id="figure_1">
  <g id="patch_1">
   <path d="M 0 325.986375 
L 565.411687 325.986375 
L 565.411687 0 
L 0 0 
z
" style="fill: #ffffff"/>
  </g>
  <g id="axes_1">
   <g id="patch_2">
    <path d="M 58.523438 288.430125 
L 415.643438 288.430125 
L 415.643438 22.318125 
L 58.523438 22.318125 
z
" style="fill: #ffffff"/>
   </g>
   <g id="PolyCollection_1">
    <path d="M 74.756165 237.596806 
L 74.756165 237.485591 
L 78.035503 237.485591 
L 81.314842 237.485591 
L 84.594181 237.485591 
L 87.873519 237.485591 
L 91.152858 237.485591 
L 94.432197 237.485591 
L 97.711535 237.485591 
L 100.990874 237.485591 
L 104.270213 237.485591 
L 107.549551 237.485591 
L 110.82889 237.485591 
L 114.108229 237.485591 
L 117.387567 237.485591 
L 120.666906 237.485591 
L 123.946244 237.485591 
L 127.225583 237.485591 
L 130.504922 237.485591 
L 133.78426 237.485591 
L 137.063599 237.485591 
L 140.342938 237.485591 
L 143.622276 237.485591 
L 146.901615 237.485591 
L 150.180954 237.485591 
L 153.460292 237.485591 
L 156.739631 237.485591 
L 160.01897 237.485591 
L 163.298308 237.485591 
L 166.577647 237.485591 
L 169.856986 237.485591 
L 173.136324 237.485591 
L 176.415663 237.485591 
L 179.695001 237.485591 
L 182.97434 237.485591 
L 186.253679 237.485591 
L 189.533017 237.485591 
L 192.812356 237.485591 
L 196.091695 237.485591 
L 199.371033 237.485591 
L 202.650372 237.485591 
L 205.929711 237.485591 
L 209.209049 237.485591 
L 212.488388 237.485591 
L 215.767727 237.485591 
L 219.047065 237.485591 
L 222.326404 237.485591 
L 225.605743 237.485591 
L 228.885081 237.485591 
L 232.16442 237.485591 
L 235.443759 237.485591 
L 238.723097 237.485591 
L 242.002436 237.485591 
L 245.281774 237.485591 
L 248.561113 237.485591 
L 251.840452 237.485591 
L 255.11979 237.485591 
L 258.399129 237.485591 
L 261.678468 237.485591 
L 264.957806 237.485591 
L 268.237145 237.485591 
L 271.516484 237.485591 
L 274.795822 237.485591 
L 278.075161 237.485591 
L 281.3545 237.485591 
L 284.633838 237.485591 
L 287.913177 237.485591 
L 291.192516 237.485591 
L 294.471854 237.485591 
L 297.751193 237.485591 
L 301.030531 237.485591 
L 304.30987 237.485591 
L 307.589209 237.485591 
L 310.868547 237.485591 
L 314.147886 237.485591 
L 317.427225 237.485591 
L 320.706563 237.485591 
L 323.985902 237.485591 
L 327.265241 237.485591 
L 330.544579 237.485591 
L 333.823918 237.485591 
L 337.103257 237.485591 
L 340.382595 237.485591 
L 343.661934 237.485591 
L 346.941273 237.485591 
L 350.220611 237.485591 
L 353.49995 237.485591 
L 356.779288 237.485591 
L 360.058627 237.485591 
L 363.337966 237.485591 
L 366.617304 237.485591 
L 369.896643 237.485591 
L 373.175982 237.485591 
L 376.45532 237.485591 
L 379.734659 237.485591 
L 383.013998 237.485591 
L 386.293336 237.485591 
L 389.572675 237.485591 
L 392.852014 237.485591 
L 396.131352 237.485591 
L 399.410691 237.485591 
L 399.410691 199.829363 
L 399.410691 199.829363 
L 396.131352 220.511677 
L 392.852014 232.526508 
L 389.572675 238.546901 
L 386.293336 240.633185 
L 383.013998 240.338446 
L 379.734659 238.80024 
L 376.45532 236.819865 
L 373.175982 234.930474 
L 369.896643 233.455167 
L 366.617304 232.55616 
L 363.337966 232.27601 
L 360.058627 232.571829 
L 356.779288 233.343313 
L 353.49995 234.45538 
L 350.220611 235.756105 
L 346.941273 237.090603 
L 343.661934 238.311446 
L 340.382595 239.286142 
L 337.103257 239.902145 
L 333.823918 240.069826 
L 330.544579 239.723794 
L 327.265241 238.822876 
L 323.985902 237.349089 
L 320.706563 235.305826 
L 317.427225 232.715507 
L 314.147886 229.616868 
L 310.868547 226.062065 
L 307.589209 222.113709 
L 304.30987 217.841967 
L 301.030531 213.32179 
L 297.751193 208.630359 
L 294.471854 203.844782 
L 291.192516 199.040091 
L 287.913177 194.287539 
L 284.633838 189.653227 
L 281.3545 185.197039 
L 278.075161 180.971892 
L 274.795822 177.023255 
L 271.516484 173.388947 
L 268.237145 170.099152 
L 264.957806 167.176642 
L 261.678468 164.637158 
L 258.399129 162.489924 
L 255.11979 160.738253 
L 251.840452 159.380213 
L 248.561113 158.409318 
L 245.281774 157.81522 
L 242.002436 157.584363 
L 238.723097 237.473216 
L 235.443759 237.473246 
L 232.16442 158.428477 
L 228.885081 159.444291 
L 225.605743 160.750712 
L 222.326404 162.324418 
L 219.047065 164.140111 
L 215.767727 166.170531 
L 212.488388 168.386445 
L 209.209049 170.756612 
L 205.929711 173.247753 
L 202.650372 175.824526 
L 199.371033 178.449553 
L 196.091695 181.083491 
L 192.812356 183.685201 
L 189.533017 186.212005 
L 186.253679 188.620077 
L 182.97434 190.86498 
L 179.695001 192.90235 
L 176.415663 194.688774 
L 173.136324 196.182828 
L 169.856986 197.346316 
L 166.577647 198.145676 
L 163.298308 198.553561 
L 160.01897 198.550559 
L 156.739631 198.127018 
L 153.460292 197.284949 
L 150.180954 196.039914 
L 146.901615 194.422858 
L 143.622276 192.481764 
L 140.342938 190.283037 
L 137.063599 187.912474 
L 133.78426 185.47567 
L 130.504922 183.097678 
L 127.225583 180.921709 
L 123.946244 179.106645 
L 120.666906 177.8231 
L 117.387567 177.247715 
L 114.108229 177.555362 
L 110.82889 178.908878 
L 107.549551 181.445924 
L 104.270213 185.262495 
L 100.990874 190.39259 
L 97.711535 196.783491 
L 94.432197 204.266044 
L 91.152858 212.519286 
L 87.873519 221.028712 
L 84.594181 229.037399 
L 81.314842 235.489169 
L 78.035503 238.962866 
L 74.756165 237.596806 
z
" clip-path="url(#p3ee47ff0d6)" style="fill: #1f77b4; fill-opacity: 0.166667"/>
   </g>
   <g id="PolyCollection_2">
    <path d="M 74.756165 232.557548 
L 74.756165 237.485591 
L 78.035504 237.485591 
L 81.314842 237.485591 
L 84.594181 237.485591 
L 87.87352 237.485591 
L 91.152859 237.485591 
L 94.432198 237.485591 
L 97.711537 237.485591 
L 100.990876 237.485591 
L 104.270214 237.485591 
L 107.549553 237.485591 
L 110.828892 237.485591 
L 114.108231 237.485591 
L 117.38757 237.485591 
L 120.666909 237.485591 
L 123.946247 237.485591 
L 127.225586 237.485591 
L 130.504925 237.485591 
L 133.784264 237.485591 
L 137.063603 237.485591 
L 140.342942 237.485591 
L 143.62228 237.485591 
L 146.901619 237.485591 
L 150.180958 237.485591 
L 153.460297 237.485591 
L 156.739636 237.485591 
L 160.018975 237.485591 
L 163.298314 237.485591 
L 166.577652 237.485591 
L 169.856991 237.485591 
L 173.13633 237.485591 
L 176.415669 237.485591 
L 179.695008 237.485591 
L 182.974347 237.485591 
L 186.253685 237.485591 
L 189.533024 237.485591 
L 192.812363 237.485591 
L 196.091702 237.485591 
L 199.371041 237.485591 
L 202.65038 237.485591 
L 205.929718 237.485591 
L 209.209057 237.485591 
L 212.488396 237.485591 
L 215.767735 237.485591 
L 219.047074 237.485591 
L 222.326413 237.485591 
L 225.605752 237.485591 
L 228.88509 237.485591 
L 232.164429 237.485591 
L 235.443768 237.485591 
L 238.723107 237.485591 
L 242.002446 237.485591 
L 245.281785 237.485591 
L 248.561123 237.485591 
L 251.840462 237.485591 
L 255.119801 237.485591 
L 258.39914 237.485591 
L 261.678479 237.485591 
L 264.957818 237.485591 
L 268.237157 237.485591 
L 271.516495 237.485591 
L 274.795834 237.485591 
L 278.075173 237.485591 
L 281.354512 237.485591 
L 284.633851 237.485591 
L 287.91319 237.485591 
L 291.192528 237.485591 
L 294.471867 237.485591 
L 297.751206 237.485591 
L 301.030545 237.485591 
L 304.309884 237.485591 
L 307.589223 237.485591 
L 310.868561 237.485591 
L 314.1479 237.485591 
L 317.427239 237.485591 
L 320.706578 237.485591 
L 323.985917 237.485591 
L 327.265256 237.485591 
L 330.544595 237.485591 
L 333.823933 237.485591 
L 337.103272 237.485591 
L 340.382611 237.485591 
L 343.66195 237.485591 
L 346.941289 237.485591 
L 350.220628 237.485591 
L 353.499966 237.485591 
L 356.779305 237.485591 
L 360.058644 237.485591 
L 363.337983 237.485591 
L 366.617322 237.485591 
L 369.896661 237.485591 
L 373.175999 237.485591 
L 376.455338 237.485591 
L 379.734677 237.485591 
L 383.014016 237.485591 
L 386.293355 237.485591 
L 389.572694 237.485591 
L 392.852033 237.485591 
L 396.131371 237.485591 
L 399.41071 237.485591 
L 399.41071 222.408089 
L 399.41071 222.408089 
L 396.131371 228.790248 
L 392.852033 233.105463 
L 389.572694 235.902886 
L 386.293355 237.601311 
L 383.014016 238.514588 
L 379.734677 238.873116 
L 376.455338 238.841885 
L 373.175999 238.535475 
L 369.896661 238.030401 
L 366.617322 237.375157 
L 363.337983 236.598271 
L 360.058644 235.714659 
L 356.779305 234.730536 
L 353.499966 233.647123 
L 350.220628 232.463345 
L 346.941289 231.177706 
L 343.66195 229.789515 
L 340.382611 228.299582 
L 337.103272 226.710524 
L 333.823933 225.026778 
L 330.544595 223.254412 
L 327.265256 221.400804 
L 323.985917 219.47426 
L 320.706578 217.483605 
L 317.427239 215.437799 
L 314.1479 213.345601 
L 310.868561 211.215296 
L 307.589223 209.054509 
L 304.309884 206.870094 
L 301.030545 204.668122 
L 297.751206 202.45394 
L 294.471867 200.232308 
L 291.192528 198.007597 
L 287.91319 195.784033 
L 284.633851 193.565978 
L 281.354512 191.358221 
L 278.075173 189.166278 
L 274.795834 186.996671 
L 271.516495 184.857172 
L 268.237157 182.757008 
L 264.957818 180.707004 
L 261.678479 178.719653 
L 258.39914 176.809111 
L 255.119801 174.99111 
L 251.840462 173.28277 
L 248.561123 171.702335 
L 245.281785 170.268815 
L 242.002446 169.001539 
L 238.723107 237.473858 
L 235.443768 237.474134 
L 232.164429 165.751207 
L 228.88509 165.376519 
L 225.605752 165.28047 
L 222.326413 165.467732 
L 219.047074 165.937503 
L 215.767735 166.683124 
L 212.488396 167.691826 
L 209.209057 168.944609 
L 205.929718 170.416282 
L 202.65038 172.075669 
L 199.371041 173.885988 
L 196.091702 175.805417 
L 192.812363 177.787848 
L 189.533024 179.783823 
L 186.253685 181.741666 
L 182.974347 183.608778 
L 179.695008 185.333111 
L 176.415669 186.864775 
L 173.13633 188.15778 
L 169.856991 189.171863 
L 166.577652 189.874379 
L 163.298314 190.242202 
L 160.018975 190.263589 
L 156.739636 189.939955 
L 153.460297 189.287472 
L 150.180958 188.338438 
L 146.901619 187.142312 
L 143.62228 185.766324 
L 140.342942 184.295552 
L 137.063603 182.832346 
L 133.784264 181.494957 
L 130.504925 180.415251 
L 127.225586 179.735312 
L 123.946247 179.6028 
L 120.666909 180.164844 
L 117.38757 181.560293 
L 114.108231 183.910084 
L 110.828892 187.305505 
L 107.549553 191.794096 
L 104.270214 197.362912 
L 100.990876 203.918858 
L 97.711537 211.265795 
L 94.432198 219.078061 
L 91.152859 226.87009 
L 87.87352 233.961716 
L 84.594181 239.43879 
L 81.314842 242.108681 
L 78.035504 240.450211 
L 74.756165 232.557548 
z
" clip-path="url(#p3ee47ff0d6)" style="fill: #ff7f0e; fill-opacity: 0.166667"/>
   </g>
   <g id="PolyCollection_3">
    <path d="M 74.756165 276.334125 
L 74.756165 237.485591 
L 78.035504 237.485591 
L 81.314842 237.485591 
L 84.594181 237.485591 
L 87.87352 237.485591 
L 91.152859 237.485591 
L 94.432198 237.485591 
L 97.711537 237.485591 
L 100.990876 237.485591 
L 104.270214 237.485591 
L 107.549553 237.485591 
L 110.828892 237.485591 
L 114.108231 237.485591 
L 117.38757 237.485591 
L 120.666909 237.485591 
L 123.946247 237.485591 
L 127.225586 237.485591 
L 130.504925 237.485591 
L 133.784264 237.485591 
L 137.063603 237.485591 
L 140.342942 237.485591 
L 143.62228 237.485591 
L 146.901619 237.485591 
L 150.180958 237.485591 
L 153.460297 237.485591 
L 156.739636 237.485591 
L 160.018975 237.485591 
L 163.298314 237.485591 
L 166.577652 237.485591 
L 169.856991 237.485591 
L 173.13633 237.485591 
L 176.415669 237.485591 
L 179.695008 237.485591 
L 182.974347 237.485591 
L 186.253685 237.485591 
L 189.533024 237.485591 
L 192.812363 237.485591 
L 196.091702 237.485591 
L 199.371041 237.485591 
L 202.65038 237.485591 
L 205.929718 237.485591 
L 209.209057 237.485591 
L 212.488396 237.485591 
L 215.767735 237.485591 
L 219.047074 237.485591 
L 222.326413 237.485591 
L 225.605752 237.485591 
L 228.88509 237.485591 
L 232.164429 237.485591 
L 235.443768 237.485591 
L 238.723107 237.485591 
L 242.002446 237.485591 
L 245.281785 237.485591 
L 248.561123 237.485591 
L 251.840462 237.485591 
L 255.119801 237.485591 
L 258.39914 237.485591 
L 261.678479 237.485591 
L 264.957818 237.485591 
L 268.237157 237.485591 
L 271.516495 237.485591 
L 274.795834 237.485591 
L 278.075173 237.485591 
L 281.354512 237.485591 
L 284.633851 237.485591 
L 287.91319 237.485591 
L 291.192528 237.485591 
L 294.471867 237.485591 
L 297.751206 237.485591 
L 301.030545 237.485591 
L 304.309884 237.485591 
L 307.589223 237.485591 
L 310.868561 237.485591 
L 314.1479 237.485591 
L 317.427239 237.485591 
L 320.706578 237.485591 
L 323.985917 237.485591 
L 327.265256 237.485591 
L 330.544595 237.485591 
L 333.823933 237.485591 
L 337.103272 237.485591 
L 340.382611 237.485591 
L 343.66195 237.485591 
L 346.941289 237.485591 
L 350.220628 237.485591 
L 353.499966 237.485591 
L 356.779305 237.485591 
L 360.058644 237.485591 
L 363.337983 237.485591 
L 366.617322 237.485591 
L 369.896661 237.485591 
L 373.175999 237.485591 
L 376.455338 237.485591 
L 379.734677 237.485591 
L 383.014016 237.485591 
L 386.293355 237.485591 
L 389.572694 237.485591 
L 392.852033 237.485591 
L 396.131371 237.485591 
L 399.41071 237.485591 
L 399.41071 198.007315 
L 399.41071 198.007315 
L 396.131371 221.113825 
L 392.852033 234.312041 
L 389.572694 240.750731 
L 386.293355 242.82188 
L 383.014016 242.299298 
L 379.734677 240.458007 
L 376.455338 238.176387 
L 373.175999 236.022887 
L 369.896661 234.32902 
L 366.617322 233.250178 
L 363.337983 232.815727 
L 360.058644 232.969694 
L 356.779305 233.603268 
L 353.499966 234.58021 
L 350.220628 235.756202 
L 346.941289 236.993026 
L 343.66195 238.168413 
L 340.382611 239.182303 
L 337.103272 239.960174 
L 333.823933 240.454035 
L 330.544595 240.641602 
L 327.265256 240.524109 
L 323.985917 240.123164 
L 320.706578 239.476969 
L 317.427239 238.636218 
L 314.1479 237.659894 
L 310.868561 236.611175 
L 307.589223 235.553605 
L 304.309884 234.547659 
L 301.030545 233.647772 
L 297.751206 232.899922 
L 294.471867 232.339778 
L 291.192528 231.991442 
L 287.91319 231.866759 
L 284.633851 231.965194 
L 281.354512 232.274216 
L 278.075173 232.770153 
L 274.795834 233.41944 
L 271.516495 234.180218 
L 268.237157 235.004187 
L 264.957818 235.838654 
L 261.678479 236.628688 
L 258.39914 237.319315 
L 255.119801 237.857674 
L 251.840462 238.195067 
L 248.561123 238.288833 
L 245.281785 238.103991 
L 242.002446 237.614601 
L 238.723107 237.481742 
L 235.443768 237.480954 
L 232.164429 235.173145 
L 228.88509 232.834537 
L 225.605752 230.18812 
L 222.326413 227.298742 
L 219.047074 224.240417 
L 215.767735 221.093406 
L 212.488396 217.940937 
L 209.209057 214.865636 
L 205.929718 211.945777 
L 202.65038 209.251471 
L 199.371041 206.840903 
L 196.091702 204.756751 
L 192.812363 203.022929 
L 189.533024 201.641768 
L 186.253685 200.591799 
L 182.974347 199.826246 
L 179.695008 199.272367 
L 176.415669 198.831755 
L 173.13633 198.381709 
L 169.856991 197.777745 
L 166.577652 196.857326 
L 163.298314 195.444841 
L 160.018975 193.357844 
L 156.739636 190.414517 
L 153.460297 186.442307 
L 150.180958 181.287602 
L 146.901619 174.826293 
L 143.62228 166.975005 
L 140.342942 157.702697 
L 137.063603 147.042293 
L 133.784264 135.101901 
L 130.504925 122.075123 
L 127.225586 108.24984 
L 123.946247 94.014778 
L 120.666909 79.863067 
L 117.38757 66.391853 
L 114.108231 54.296956 
L 110.828892 44.361396 
L 107.549553 37.436498 
L 104.270214 34.414125 
L 100.990876 36.18846 
L 97.711537 43.605556 
L 94.432198 57.398748 
L 91.152859 78.107788 
L 87.87352 105.979426 
L 84.594181 140.84691 
L 81.314842 181.985703 
L 78.035504 227.942462 
L 74.756165 276.334125 
z
" clip-path="url(#p3ee47ff0d6)" style="fill: #2ca02c; fill-opacity: 0.166667"/>
   </g>
   <g id="PolyCollection_4">
    <path d="M 74.756165 233.944293 
L 74.756165 237.485591 
L 78.035504 237.485591 
L 81.314842 237.485591 
L 84.594181 237.485591 
L 87.87352 237.485591 
L 91.152859 237.485591 
L 94.432198 237.485591 
L 97.711537 237.485591 
L 100.990876 237.485591 
L 104.270214 237.485591 
L 107.549553 237.485591 
L 110.828892 237.485591 
L 114.108231 237.485591 
L 117.38757 237.485591 
L 120.666909 237.485591 
L 123.946247 237.485591 
L 127.225586 237.485591 
L 130.504925 237.485591 
L 133.784264 237.485591 
L 137.063603 237.485591 
L 140.342942 237.485591 
L 143.62228 237.485591 
L 146.901619 237.485591 
L 150.180958 237.485591 
L 153.460297 237.485591 
L 156.739636 237.485591 
L 160.018975 237.485591 
L 163.298314 237.485591 
L 166.577652 237.485591 
L 169.856991 237.485591 
L 173.13633 237.485591 
L 176.415669 237.485591 
L 179.695008 237.485591 
L 182.974347 237.485591 
L 186.253685 237.485591 
L 189.533024 237.485591 
L 192.812363 237.485591 
L 196.091702 237.485591 
L 199.371041 237.485591 
L 202.65038 237.485591 
L 205.929718 237.485591 
L 209.209057 237.485591 
L 212.488396 237.485591 
L 215.767735 237.485591 
L 219.047074 237.485591 
L 222.326413 237.485591 
L 225.605752 237.485591 
L 228.88509 237.485591 
L 232.164429 237.485591 
L 235.443768 237.485591 
L 238.723107 237.485591 
L 242.002446 237.485591 
L 245.281785 237.485591 
L 248.561123 237.485591 
L 251.840462 237.485591 
L 255.119801 237.485591 
L 258.39914 237.485591 
L 261.678479 237.485591 
L 264.957818 237.485591 
L 268.237157 237.485591 
L 271.516495 237.485591 
L 274.795834 237.485591 
L 278.075173 237.485591 
L 281.354512 237.485591 
L 284.633851 237.485591 
L 287.91319 237.485591 
L 291.192528 237.485591 
L 294.471867 237.485591 
L 297.751206 237.485591 
L 301.030545 237.485591 
L 304.309884 237.485591 
L 307.589223 237.485591 
L 310.868561 237.485591 
L 314.1479 237.485591 
L 317.427239 237.485591 
L 320.706578 237.485591 
L 323.985917 237.485591 
L 327.265256 237.485591 
L 330.544595 237.485591 
L 333.823933 237.485591 
L 337.103272 237.485591 
L 340.382611 237.485591 
L 343.66195 237.485591 
L 346.941289 237.485591 
L 350.220628 237.485591 
L 353.499966 237.485591 
L 356.779305 237.485591 
L 360.058644 237.485591 
L 363.337983 237.485591 
L 366.617322 237.485591 
L 369.896661 237.485591 
L 373.175999 237.485591 
L 376.455338 237.485591 
L 379.734677 237.485591 
L 383.014016 237.485591 
L 386.293355 237.485591 
L 389.572694 237.485591 
L 392.852033 237.485591 
L 396.131371 237.485591 
L 399.41071 237.485591 
L 399.41071 211.935749 
L 399.41071 211.935749 
L 396.131371 227.392438 
L 392.852033 235.553905 
L 389.572694 239.031561 
L 386.293355 239.740564 
L 383.014016 239.035916 
L 379.734677 237.82894 
L 376.455338 236.686185 
L 373.175999 235.912704 
L 369.896661 235.621443 
L 366.617322 235.790391 
L 363.337983 236.308978 
L 360.058644 237.01511 
L 356.779305 237.724073 
L 353.499966 238.25048 
L 350.220628 238.424269 
L 346.941289 238.101715 
L 343.66195 237.172282 
L 340.382611 235.562086 
L 337.103272 233.234618 
L 333.823933 230.189357 
L 330.544595 226.458761 
L 327.265256 222.104109 
L 323.985917 217.210586 
L 320.706578 211.881941 
L 317.427239 206.235 
L 314.1479 200.394271 
L 310.868561 194.486818 
L 307.589223 188.637573 
L 304.309884 182.965162 
L 301.030545 177.578367 
L 297.751206 172.573223 
L 294.471867 168.030822 
L 291.192528 164.015785 
L 287.91319 160.575401 
L 284.633851 157.739401 
L 281.354512 155.5203 
L 278.075173 153.91427 
L 274.795834 152.902453 
L 271.516495 152.452655 
L 268.237157 152.521334 
L 264.957818 153.055808 
L 261.678479 153.996595 
L 258.39914 155.279811 
L 255.119801 156.839551 
L 251.840462 158.610183 
L 248.561123 160.528479 
L 245.281785 162.535547 
L 242.002446 164.578493 
L 238.723107 237.470736 
L 235.443768 237.471024 
L 232.164429 170.000172 
L 228.88509 171.849275 
L 225.605752 173.620523 
L 222.326413 175.310485 
L 219.047074 176.92273 
L 215.767735 178.466928 
L 212.488396 179.957711 
L 209.209057 181.41334 
L 205.929718 182.854234 
L 202.65038 184.301389 
L 199.371041 185.774768 
L 196.091702 187.291706 
L 192.812363 188.865396 
L 189.533024 190.503528 
L 186.253685 192.207128 
L 182.974347 193.969676 
L 179.695008 195.776544 
L 176.415669 197.604828 
L 173.13633 199.423593 
L 169.856991 201.194594 
L 166.577652 202.87348 
L 163.298314 204.411492 
L 160.018975 205.757667 
L 156.739636 206.861498 
L 153.460297 207.676029 
L 150.180958 208.161296 
L 146.901619 208.288027 
L 143.62228 208.041467 
L 140.342942 207.42517 
L 137.063603 206.464558 
L 133.784264 205.210008 
L 130.504925 203.739176 
L 127.225586 202.158241 
L 123.946247 200.601672 
L 120.666909 199.230089 
L 117.38757 198.225708 
L 114.108231 197.78482 
L 110.828892 198.106665 
L 107.549553 199.377993 
L 104.270214 201.752542 
L 100.990876 205.324559 
L 97.711537 210.095412 
L 94.432198 215.932257 
L 91.152859 222.517611 
L 87.87352 229.288595 
L 84.594181 235.364486 
L 81.314842 239.461117 
L 78.035504 239.79055 
L 74.756165 233.944293 
z
" clip-path="url(#p3ee47ff0d6)" style="fill: #d62728; fill-opacity: 0.166667"/>
   </g>
   <g id="PolyCollection_5">
    <path d="M 74.756165 236.644879 
L 74.756165 237.485591 
L 78.035503 237.485591 
L 81.314842 237.485591 
L 84.594181 237.485591 
L 87.873519 237.485591 
L 91.152858 237.485591 
L 94.432197 237.485591 
L 97.711535 237.485591 
L 100.990874 237.485591 
L 104.270213 237.485591 
L 107.549551 237.485591 
L 110.82889 237.485591 
L 114.108229 237.485591 
L 117.387567 237.485591 
L 120.666906 237.485591 
L 123.946244 237.485591 
L 127.225583 237.485591 
L 130.504922 237.485591 
L 133.78426 237.485591 
L 137.063599 237.485591 
L 140.342938 237.485591 
L 143.622276 237.485591 
L 146.901615 237.485591 
L 150.180954 237.485591 
L 153.460292 237.485591 
L 156.739631 237.485591 
L 160.01897 237.485591 
L 163.298308 237.485591 
L 166.577647 237.485591 
L 169.856986 237.485591 
L 173.136324 237.485591 
L 176.415663 237.485591 
L 179.695001 237.485591 
L 182.97434 237.485591 
L 186.253679 237.485591 
L 189.533017 237.485591 
L 192.812356 237.485591 
L 196.091695 237.485591 
L 199.371033 237.485591 
L 202.650372 237.485591 
L 205.929711 237.485591 
L 209.209049 237.485591 
L 212.488388 237.485591 
L 215.767727 237.485591 
L 219.047065 237.485591 
L 222.326404 237.485591 
L 225.605743 237.485591 
L 228.885081 237.485591 
L 232.16442 237.485591 
L 235.443759 237.485591 
L 238.723097 237.485591 
L 242.002436 237.485591 
L 245.281774 237.485591 
L 248.561113 237.485591 
L 251.840452 237.485591 
L 255.11979 237.485591 
L 258.399129 237.485591 
L 261.678468 237.485591 
L 264.957806 237.485591 
L 268.237145 237.485591 
L 271.516484 237.485591 
L 274.795822 237.485591 
L 278.075161 237.485591 
L 281.3545 237.485591 
L 284.633838 237.485591 
L 287.913177 237.485591 
L 291.192516 237.485591 
L 294.471854 237.485591 
L 297.751193 237.485591 
L 301.030531 237.485591 
L 304.30987 237.485591 
L 307.589209 237.485591 
L 310.868547 237.485591 
L 314.147886 237.485591 
L 317.427225 237.485591 
L 320.706563 237.485591 
L 323.985902 237.485591 
L 327.265241 237.485591 
L 330.544579 237.485591 
L 333.823918 237.485591 
L 337.103257 237.485591 
L 340.382595 237.485591 
L 343.661934 237.485591 
L 346.941273 237.485591 
L 350.220611 237.485591 
L 353.49995 237.485591 
L 356.779288 237.485591 
L 360.058627 237.485591 
L 363.337966 237.485591 
L 366.617304 237.485591 
L 369.896643 237.485591 
L 373.175982 237.485591 
L 376.45532 237.485591 
L 379.734659 237.485591 
L 383.013998 237.485591 
L 386.293336 237.485591 
L 389.572675 237.485591 
L 392.852014 237.485591 
L 396.131352 237.485591 
L 399.410691 237.485591 
L 399.410691 202.273341 
L 399.410691 202.273341 
L 396.131352 223.16281 
L 392.852014 235.512339 
L 389.572675 241.752931 
L 386.293336 243.794064 
L 383.013998 243.107734 
L 379.734659 240.802342 
L 376.45532 237.687319 
L 373.175982 234.329352 
L 369.896643 231.101001 
L 366.617304 228.22246 
L 363.337966 225.797143 
L 360.058627 223.841747 
L 356.779288 222.311388 
L 353.49995 221.120361 
L 350.220611 220.15904 
L 346.941273 219.307382 
L 343.661934 218.445469 
L 340.382595 217.46149 
L 337.103257 216.257519 
L 333.823918 214.75341 
L 330.544579 212.889128 
L 327.265241 210.625763 
L 323.985902 207.945482 
L 320.706563 204.850626 
L 317.427225 201.362155 
L 314.147886 197.517597 
L 310.868547 193.368659 
L 307.589209 188.978621 
L 304.30987 184.419633 
L 301.030531 179.769998 
L 297.751193 175.111525 
L 294.471854 170.527016 
L 291.192516 166.097938 
L 287.913177 161.902318 
L 284.633838 158.012885 
L 281.3545 154.495496 
L 278.075161 151.407832 
L 274.795822 148.798384 
L 271.516484 146.705729 
L 268.237145 145.158065 
L 264.957806 144.173021 
L 261.678468 143.757704 
L 258.399129 143.908964 
L 255.11979 144.613865 
L 251.840452 145.850331 
L 248.561113 147.587932 
L 245.281774 149.788801 
L 242.002436 152.408642 
L 238.723097 237.4726 
L 235.443759 237.472728 
L 232.16442 161.973486 
L 228.885081 165.734611 
L 225.605743 169.650452 
L 222.326404 173.66063 
L 219.047065 177.705322 
L 215.767727 181.726259 
L 212.488388 185.667673 
L 209.209049 189.477164 
L 205.929711 193.106488 
L 202.650372 196.51226 
L 199.371033 199.656555 
L 196.091695 202.507409 
L 192.812356 205.039225 
L 189.533017 207.233067 
L 186.253679 209.076851 
L 182.97434 210.565446 
L 179.695001 211.700661 
L 176.415663 212.49115 
L 173.136324 212.95223 
L 169.856986 213.105603 
L 166.577647 212.979017 
L 163.298308 212.605848 
L 160.01897 212.024608 
L 156.739631 211.278405 
L 153.460292 210.414333 
L 150.180954 209.482801 
L 146.901615 208.536806 
L 143.622276 207.631137 
L 140.342938 206.821504 
L 137.063599 206.163578 
L 133.78426 205.711929 
L 130.504922 205.51884 
L 127.225583 205.632957 
L 123.946244 206.097756 
L 120.666906 206.949772 
L 117.387567 208.21654 
L 114.108229 209.914197 
L 110.82889 212.044657 
L 107.549551 214.592296 
L 104.270213 217.520036 
L 100.990874 220.764738 
L 97.711535 224.231768 
L 94.432197 227.788618 
L 91.152858 231.257409 
L 87.873519 234.406135 
L 84.594181 236.938437 
L 81.314842 238.481721 
L 78.035503 238.573379 
L 74.756165 236.644879 
z
" clip-path="url(#p3ee47ff0d6)" style="fill: #9467bd; fill-opacity: 0.166667"/>
   </g>
   <g id="PolyCollection_6">
    <path d="M 74.756165 239.504665 
L 74.756165 237.485591 
L 78.035503 237.485591 
L 81.314842 237.485591 
L 84.59418 237.485591 
L 87.873519 237.485591 
L 91.152857 237.485591 
L 94.432195 237.485591 
L 97.711534 237.485591 
L 100.990872 237.485591 
L 104.270211 237.485591 
L 107.549549 237.485591 
L 110.828888 237.485591 
L 114.108226 237.485591 
L 117.387565 237.485591 
L 120.666903 237.485591 
L 123.946242 237.485591 
L 127.22558 237.485591 
L 130.504918 237.485591 
L 133.784257 237.485591 
L 137.063595 237.485591 
L 140.342934 237.485591 
L 143.622272 237.485591 
L 146.901611 237.485591 
L 150.180949 237.485591 
L 153.460288 237.485591 
L 156.739626 237.485591 
L 160.018965 237.485591 
L 163.298303 237.485591 
L 166.577641 237.485591 
L 169.85698 237.485591 
L 173.136318 237.485591 
L 176.415657 237.485591 
L 179.694995 237.485591 
L 182.974334 237.485591 
L 186.253672 237.485591 
L 189.533011 237.485591 
L 192.812349 237.485591 
L 196.091687 237.485591 
L 199.371026 237.485591 
L 202.650364 237.485591 
L 205.929703 237.485591 
L 209.209041 237.485591 
L 212.48838 237.485591 
L 215.767718 237.485591 
L 219.047057 237.485591 
L 222.326395 237.485591 
L 225.605734 237.485591 
L 228.885072 237.485591 
L 232.16441 237.485591 
L 235.443749 237.485591 
L 238.723087 237.485591 
L 242.002426 237.485591 
L 245.281764 237.485591 
L 248.561103 237.485591 
L 251.840441 237.485591 
L 255.11978 237.485591 
L 258.399118 237.485591 
L 261.678457 237.485591 
L 264.957795 237.485591 
L 268.237133 237.485591 
L 271.516472 237.485591 
L 274.79581 237.485591 
L 278.075149 237.485591 
L 281.354487 237.485591 
L 284.633826 237.485591 
L 287.913164 237.485591 
L 291.192503 237.485591 
L 294.471841 237.485591 
L 297.75118 237.485591 
L 301.030518 237.485591 
L 304.309856 237.485591 
L 307.589195 237.485591 
L 310.868533 237.485591 
L 314.147872 237.485591 
L 317.42721 237.485591 
L 320.706549 237.485591 
L 323.985887 237.485591 
L 327.265226 237.485591 
L 330.544564 237.485591 
L 333.823902 237.485591 
L 337.103241 237.485591 
L 340.382579 237.485591 
L 343.661918 237.485591 
L 346.941256 237.485591 
L 350.220595 237.485591 
L 353.499933 237.485591 
L 356.779272 237.485591 
L 360.05861 237.485591 
L 363.337949 237.485591 
L 366.617287 237.485591 
L 369.896625 237.485591 
L 373.175964 237.485591 
L 376.455302 237.485591 
L 379.734641 237.485591 
L 383.013979 237.485591 
L 386.293318 237.485591 
L 389.572656 237.485591 
L 392.851995 237.485591 
L 396.131333 237.485591 
L 399.410672 237.485591 
L 399.410672 219.406687 
L 399.410672 219.406687 
L 396.131333 227.828991 
L 392.851995 233.40189 
L 389.572656 236.835277 
L 386.293318 238.707859 
L 383.013979 239.484763 
L 379.734641 239.533371 
L 376.455302 239.137509 
L 373.175964 238.510133 
L 369.896625 237.804636 
L 366.617287 237.124891 
L 363.337949 236.534138 
L 360.05861 236.062824 
L 356.779272 235.715474 
L 353.499933 235.476697 
L 350.220595 235.316394 
L 346.941256 235.194249 
L 343.661918 235.063573 
L 340.382579 234.874557 
L 337.103241 234.576997 
L 333.823902 234.122548 
L 330.544564 233.466547 
L 327.265226 232.569458 
L 323.985887 231.397972 
L 320.706549 229.925814 
L 317.42721 228.13427 
L 314.147872 226.012486 
L 310.868533 223.557558 
L 307.589195 220.774436 
L 304.309856 217.675674 
L 301.030518 214.281041 
L 297.75118 210.617021 
L 294.471841 206.716208 
L 291.192503 202.616626 
L 287.913164 198.36098 
L 284.633826 193.995858 
L 281.354487 189.570888 
L 278.075149 185.137881 
L 274.79581 180.749949 
L 271.516472 176.460622 
L 268.237133 172.322975 
L 264.957795 168.388764 
L 261.678457 164.707592 
L 258.399118 161.326108 
L 255.11978 158.28725 
L 251.840441 155.629528 
L 248.561103 153.386381 
L 245.281764 151.585583 
L 242.002426 150.248735 
L 238.723087 237.473341 
L 235.443749 237.473405 
L 232.16441 148.726218 
L 228.885072 149.270289 
L 225.605734 150.304158 
L 222.326395 151.807574 
L 219.047057 153.752025 
L 215.767718 156.101016 
L 212.48838 158.810515 
L 209.209041 161.829542 
L 205.929703 165.100928 
L 202.650364 168.562214 
L 199.371026 172.146696 
L 196.091687 175.784611 
L 192.812349 179.404437 
L 189.533011 182.934311 
L 186.253672 186.303535 
L 182.974334 189.444152 
L 179.694995 192.292582 
L 176.415657 194.791271 
L 173.136318 196.890345 
L 169.85698 198.549225 
L 166.577641 199.738175 
L 163.298303 200.439741 
L 160.018965 200.650048 
L 156.739626 200.379898 
L 153.460288 199.655641 
L 150.180949 198.519749 
L 146.901611 197.031056 
L 143.622272 195.264598 
L 140.342934 193.311 
L 137.063595 191.275336 
L 133.784257 189.275417 
L 130.504918 187.439416 
L 127.22558 185.902766 
L 123.946242 184.804267 
L 120.666903 184.281304 
L 117.387565 184.46411 
L 114.108226 185.46898 
L 110.828888 187.39036 
L 107.549549 190.291709 
L 104.270211 194.195046 
L 100.990872 199.06909 
L 97.711534 204.815889 
L 94.432195 211.255841 
L 91.152857 218.111001 
L 87.873519 224.986572 
L 84.59418 231.350464 
L 81.314842 236.510822 
L 78.035503 239.591398 
L 74.756165 239.504665 
z
" clip-path="url(#p3ee47ff0d6)" style="fill: #8c564b; fill-opacity: 0.166667"/>
   </g>
   <g id="matplotlib.axis_1">
    <g id="xtick_1">
     <g id="line2d_1">
      <defs>
       <path id="mdf980d5eae" d="M 0 0 
L 0 3.5 
" style="stroke: #000000; stroke-width: 0.8"/>
      </defs>
      <g>
       <use xlink:href="#mdf980d5eae" x="74.756165" y="288.430125" style="stroke: #000000; stroke-width: 0.8"/>
      </g>
     </g>
     <g id="text_1">
      <!-- 0.0 -->
      <g transform="translate(66.804602 303.028562) scale(0.1 -0.1)">
       <defs>
        <path id="DejaVuSans-30" d="M 2034 4250 
Q 1547 4250 1301 3770 
Q 1056 3291 1056 2328 
Q 1056 1369 1301 889 
Q 1547 409 2034 409 
Q 2525 409 2770 889 
Q 3016 1369 3016 2328 
Q 3016 3291 2770 3770 
Q 2525 4250 2034 4250 
z
M 2034 4750 
Q 2819 4750 3233 4129 
Q 3647 3509 3647 2328 
Q 3647 1150 3233 529 
Q 2819 -91 2034 -91 
Q 1250 -91 836 529 
Q 422 1150 422 2328 
Q 422 3509 836 4129 
Q 1250 4750 2034 4750 
z
" transform="scale(0.015625)"/>
        <path id="DejaVuSans-2e" d="M 684 794 
L 1344 794 
L 1344 0 
L 684 0 
L 684 794 
z
" transform="scale(0.015625)"/>
       </defs>
       <use xlink:href="#DejaVuSans-30"/>
       <use xlink:href="#DejaVuSans-2e" x="63.623047"/>
       <use xlink:href="#DejaVuSans-30" x="95.410156"/>
      </g>
     </g>
    </g>
    <g id="xtick_2">
     <g id="line2d_2">
      <g>
       <use xlink:href="#mdf980d5eae" x="140.342942" y="288.430125" style="stroke: #000000; stroke-width: 0.8"/>
      </g>
     </g>
     <g id="text_2">
      <!-- 0.2 -->
      <g transform="translate(132.391379 303.028562) scale(0.1 -0.1)">
       <defs>
        <path id="DejaVuSans-32" d="M 1228 531 
L 3431 531 
L 3431 0 
L 469 0 
L 469 531 
Q 828 903 1448 1529 
Q 2069 2156 2228 2338 
Q 2531 2678 2651 2914 
Q 2772 3150 2772 3378 
Q 2772 3750 2511 3984 
Q 2250 4219 1831 4219 
Q 1534 4219 1204 4116 
Q 875 4013 500 3803 
L 500 4441 
Q 881 4594 1212 4672 
Q 1544 4750 1819 4750 
Q 2544 4750 2975 4387 
Q 3406 4025 3406 3419 
Q 3406 3131 3298 2873 
Q 3191 2616 2906 2266 
Q 2828 2175 2409 1742 
Q 1991 1309 1228 531 
z
" transform="scale(0.015625)"/>
       </defs>
       <use xlink:href="#DejaVuSans-30"/>
       <use xlink:href="#DejaVuSans-2e" x="63.623047"/>
       <use xlink:href="#DejaVuSans-32" x="95.410156"/>
      </g>
     </g>
    </g>
    <g id="xtick_3">
     <g id="line2d_3">
      <g>
       <use xlink:href="#mdf980d5eae" x="205.929718" y="288.430125" style="stroke: #000000; stroke-width: 0.8"/>
      </g>
     </g>
     <g id="text_3">
      <!-- 0.4 -->
      <g transform="translate(197.978156 303.028562) scale(0.1 -0.1)">
       <defs>
        <path id="DejaVuSans-34" d="M 2419 4116 
L 825 1625 
L 2419 1625 
L 2419 4116 
z
M 2253 4666 
L 3047 4666 
L 3047 1625 
L 3713 1625 
L 3713 1100 
L 3047 1100 
L 3047 0 
L 2419 0 
L 2419 1100 
L 313 1100 
L 313 1709 
L 2253 4666 
z
" transform="scale(0.015625)"/>
       </defs>
       <use xlink:href="#DejaVuSans-30"/>
       <use xlink:href="#DejaVuSans-2e" x="63.623047"/>
       <use xlink:href="#DejaVuSans-34" x="95.410156"/>
      </g>
     </g>
    </g>
    <g id="xtick_4">
     <g id="line2d_4">
      <g>
       <use xlink:href="#mdf980d5eae" x="271.516495" y="288.430125" style="stroke: #000000; stroke-width: 0.8"/>
      </g>
     </g>
     <g id="text_4">
      <!-- 0.6 -->
      <g transform="translate(263.564933 303.028562) scale(0.1 -0.1)">
       <defs>
        <path id="DejaVuSans-36" d="M 2113 2584 
Q 1688 2584 1439 2293 
Q 1191 2003 1191 1497 
Q 1191 994 1439 701 
Q 1688 409 2113 409 
Q 2538 409 2786 701 
Q 3034 994 3034 1497 
Q 3034 2003 2786 2293 
Q 2538 2584 2113 2584 
z
M 3366 4563 
L 3366 3988 
Q 3128 4100 2886 4159 
Q 2644 4219 2406 4219 
Q 1781 4219 1451 3797 
Q 1122 3375 1075 2522 
Q 1259 2794 1537 2939 
Q 1816 3084 2150 3084 
Q 2853 3084 3261 2657 
Q 3669 2231 3669 1497 
Q 3669 778 3244 343 
Q 2819 -91 2113 -91 
Q 1303 -91 875 529 
Q 447 1150 447 2328 
Q 447 3434 972 4092 
Q 1497 4750 2381 4750 
Q 2619 4750 2861 4703 
Q 3103 4656 3366 4563 
z
" transform="scale(0.015625)"/>
       </defs>
       <use xlink:href="#DejaVuSans-30"/>
       <use xlink:href="#DejaVuSans-2e" x="63.623047"/>
       <use xlink:href="#DejaVuSans-36" x="95.410156"/>
      </g>
     </g>
    </g>
    <g id="xtick_5">
     <g id="line2d_5">
      <g>
       <use xlink:href="#mdf980d5eae" x="337.103272" y="288.430125" style="stroke: #000000; stroke-width: 0.8"/>
      </g>
     </g>
     <g id="text_5">
      <!-- 0.8 -->
      <g transform="translate(329.15171 303.028562) scale(0.1 -0.1)">
       <defs>
        <path id="DejaVuSans-38" d="M 2034 2216 
Q 1584 2216 1326 1975 
Q 1069 1734 1069 1313 
Q 1069 891 1326 650 
Q 1584 409 2034 409 
Q 2484 409 2743 651 
Q 3003 894 3003 1313 
Q 3003 1734 2745 1975 
Q 2488 2216 2034 2216 
z
M 1403 2484 
Q 997 2584 770 2862 
Q 544 3141 544 3541 
Q 544 4100 942 4425 
Q 1341 4750 2034 4750 
Q 2731 4750 3128 4425 
Q 3525 4100 3525 3541 
Q 3525 3141 3298 2862 
Q 3072 2584 2669 2484 
Q 3125 2378 3379 2068 
Q 3634 1759 3634 1313 
Q 3634 634 3220 271 
Q 2806 -91 2034 -91 
Q 1263 -91 848 271 
Q 434 634 434 1313 
Q 434 1759 690 2068 
Q 947 2378 1403 2484 
z
M 1172 3481 
Q 1172 3119 1398 2916 
Q 1625 2713 2034 2713 
Q 2441 2713 2670 2916 
Q 2900 3119 2900 3481 
Q 2900 3844 2670 4047 
Q 2441 4250 2034 4250 
Q 1625 4250 1398 4047 
Q 1172 3844 1172 3481 
z
" transform="scale(0.015625)"/>
       </defs>
       <use xlink:href="#DejaVuSans-30"/>
       <use xlink:href="#DejaVuSans-2e" x="63.623047"/>
       <use xlink:href="#DejaVuSans-38" x="95.410156"/>
      </g>
     </g>
    </g>
    <g id="xtick_6">
     <g id="line2d_6">
      <g>
       <use xlink:href="#mdf980d5eae" x="402.690049" y="288.430125" style="stroke: #000000; stroke-width: 0.8"/>
      </g>
     </g>
     <g id="text_6">
      <!-- 1.0 -->
      <g transform="translate(394.738487 303.028562) scale(0.1 -0.1)">
       <defs>
        <path id="DejaVuSans-31" d="M 794 531 
L 1825 531 
L 1825 4091 
L 703 3866 
L 703 4441 
L 1819 4666 
L 2450 4666 
L 2450 531 
L 3481 531 
L 3481 0 
L 794 0 
L 794 531 
z
" transform="scale(0.015625)"/>
       </defs>
       <use xlink:href="#DejaVuSans-31"/>
       <use xlink:href="#DejaVuSans-2e" x="63.623047"/>
       <use xlink:href="#DejaVuSans-30" x="95.410156"/>
      </g>
     </g>
    </g>
    <g id="text_7">
     <!-- Pixel values -->
     <g transform="translate(207.671719 316.706687) scale(0.1 -0.1)">
      <defs>
       <path id="DejaVuSans-50" d="M 1259 4147 
L 1259 2394 
L 2053 2394 
Q 2494 2394 2734 2622 
Q 2975 2850 2975 3272 
Q 2975 3691 2734 3919 
Q 2494 4147 2053 4147 
L 1259 4147 
z
M 628 4666 
L 2053 4666 
Q 2838 4666 3239 4311 
Q 3641 3956 3641 3272 
Q 3641 2581 3239 2228 
Q 2838 1875 2053 1875 
L 1259 1875 
L 1259 0 
L 628 0 
L 628 4666 
z
" transform="scale(0.015625)"/>
       <path id="DejaVuSans-69" d="M 603 3500 
L 1178 3500 
L 1178 0 
L 603 0 
L 603 3500 
z
M 603 4863 
L 1178 4863 
L 1178 4134 
L 603 4134 
L 603 4863 
z
" transform="scale(0.015625)"/>
       <path id="DejaVuSans-78" d="M 3513 3500 
L 2247 1797 
L 3578 0 
L 2900 0 
L 1881 1375 
L 863 0 
L 184 0 
L 1544 1831 
L 300 3500 
L 978 3500 
L 1906 2253 
L 2834 3500 
L 3513 3500 
z
" transform="scale(0.015625)"/>
       <path id="DejaVuSans-65" d="M 3597 1894 
L 3597 1613 
L 953 1613 
Q 991 1019 1311 708 
Q 1631 397 2203 397 
Q 2534 397 2845 478 
Q 3156 559 3463 722 
L 3463 178 
Q 3153 47 2828 -22 
Q 2503 -91 2169 -91 
Q 1331 -91 842 396 
Q 353 884 353 1716 
Q 353 2575 817 3079 
Q 1281 3584 2069 3584 
Q 2775 3584 3186 3129 
Q 3597 2675 3597 1894 
z
M 3022 2063 
Q 3016 2534 2758 2815 
Q 2500 3097 2075 3097 
Q 1594 3097 1305 2825 
Q 1016 2553 972 2059 
L 3022 2063 
z
" transform="scale(0.015625)"/>
       <path id="DejaVuSans-6c" d="M 603 4863 
L 1178 4863 
L 1178 0 
L 603 0 
L 603 4863 
z
" transform="scale(0.015625)"/>
       <path id="DejaVuSans-20" transform="scale(0.015625)"/>
       <path id="DejaVuSans-76" d="M 191 3500 
L 800 3500 
L 1894 563 
L 2988 3500 
L 3597 3500 
L 2284 0 
L 1503 0 
L 191 3500 
z
" transform="scale(0.015625)"/>
       <path id="DejaVuSans-61" d="M 2194 1759 
Q 1497 1759 1228 1600 
Q 959 1441 959 1056 
Q 959 750 1161 570 
Q 1363 391 1709 391 
Q 2188 391 2477 730 
Q 2766 1069 2766 1631 
L 2766 1759 
L 2194 1759 
z
M 3341 1997 
L 3341 0 
L 2766 0 
L 2766 531 
Q 2569 213 2275 61 
Q 1981 -91 1556 -91 
Q 1019 -91 701 211 
Q 384 513 384 1019 
Q 384 1609 779 1909 
Q 1175 2209 1959 2209 
L 2766 2209 
L 2766 2266 
Q 2766 2663 2505 2880 
Q 2244 3097 1772 3097 
Q 1472 3097 1187 3025 
Q 903 2953 641 2809 
L 641 3341 
Q 956 3463 1253 3523 
Q 1550 3584 1831 3584 
Q 2591 3584 2966 3190 
Q 3341 2797 3341 1997 
z
" transform="scale(0.015625)"/>
       <path id="DejaVuSans-75" d="M 544 1381 
L 544 3500 
L 1119 3500 
L 1119 1403 
Q 1119 906 1312 657 
Q 1506 409 1894 409 
Q 2359 409 2629 706 
Q 2900 1003 2900 1516 
L 2900 3500 
L 3475 3500 
L 3475 0 
L 2900 0 
L 2900 538 
Q 2691 219 2414 64 
Q 2138 -91 1772 -91 
Q 1169 -91 856 284 
Q 544 659 544 1381 
z
M 1991 3584 
L 1991 3584 
z
" transform="scale(0.015625)"/>
       <path id="DejaVuSans-73" d="M 2834 3397 
L 2834 2853 
Q 2591 2978 2328 3040 
Q 2066 3103 1784 3103 
Q 1356 3103 1142 2972 
Q 928 2841 928 2578 
Q 928 2378 1081 2264 
Q 1234 2150 1697 2047 
L 1894 2003 
Q 2506 1872 2764 1633 
Q 3022 1394 3022 966 
Q 3022 478 2636 193 
Q 2250 -91 1575 -91 
Q 1294 -91 989 -36 
Q 684 19 347 128 
L 347 722 
Q 666 556 975 473 
Q 1284 391 1588 391 
Q 1994 391 2212 530 
Q 2431 669 2431 922 
Q 2431 1156 2273 1281 
Q 2116 1406 1581 1522 
L 1381 1569 
Q 847 1681 609 1914 
Q 372 2147 372 2553 
Q 372 3047 722 3315 
Q 1072 3584 1716 3584 
Q 2034 3584 2315 3537 
Q 2597 3491 2834 3397 
z
" transform="scale(0.015625)"/>
      </defs>
      <use xlink:href="#DejaVuSans-50"/>
      <use xlink:href="#DejaVuSans-69" x="58.052734"/>
      <use xlink:href="#DejaVuSans-78" x="85.835938"/>
      <use xlink:href="#DejaVuSans-65" x="141.890625"/>
      <use xlink:href="#DejaVuSans-6c" x="203.414062"/>
      <use xlink:href="#DejaVuSans-20" x="231.197266"/>
      <use xlink:href="#DejaVuSans-76" x="262.984375"/>
      <use xlink:href="#DejaVuSans-61" x="322.164062"/>
      <use xlink:href="#DejaVuSans-6c" x="383.443359"/>
      <use xlink:href="#DejaVuSans-75" x="411.226562"/>
      <use xlink:href="#DejaVuSans-65" x="474.605469"/>
      <use xlink:href="#DejaVuSans-73" x="536.128906"/>
     </g>
    </g>
   </g>
   <g id="matplotlib.axis_2">
    <g id="ytick_1">
     <g id="line2d_7">
      <defs>
       <path id="mffd6b5fef9" d="M 0 0 
L -3.5 0 
" style="stroke: #000000; stroke-width: 0.8"/>
      </defs>
      <g>
       <use xlink:href="#mffd6b5fef9" x="58.523438" y="275.306014" style="stroke: #000000; stroke-width: 0.8"/>
      </g>
     </g>
     <g id="text_8">
      <!-- −0.01 -->
      <g transform="translate(20.878125 279.105233) scale(0.1 -0.1)">
       <defs>
        <path id="DejaVuSans-2212" d="M 678 2272 
L 4684 2272 
L 4684 1741 
L 678 1741 
L 678 2272 
z
" transform="scale(0.015625)"/>
       </defs>
       <use xlink:href="#DejaVuSans-2212"/>
       <use xlink:href="#DejaVuSans-30" x="83.789062"/>
       <use xlink:href="#DejaVuSans-2e" x="147.412109"/>
       <use xlink:href="#DejaVuSans-30" x="179.199219"/>
       <use xlink:href="#DejaVuSans-31" x="242.822266"/>
      </g>
     </g>
    </g>
    <g id="ytick_2">
     <g id="line2d_8">
      <g>
       <use xlink:href="#mffd6b5fef9" x="58.523438" y="237.485591" style="stroke: #000000; stroke-width: 0.8"/>
      </g>
     </g>
     <g id="text_9">
      <!-- 0.00 -->
      <g transform="translate(29.257813 241.28481) scale(0.1 -0.1)">
       <use xlink:href="#DejaVuSans-30"/>
       <use xlink:href="#DejaVuSans-2e" x="63.623047"/>
       <use xlink:href="#DejaVuSans-30" x="95.410156"/>
       <use xlink:href="#DejaVuSans-30" x="159.033203"/>
      </g>
     </g>
    </g>
    <g id="ytick_3">
     <g id="line2d_9">
      <g>
       <use xlink:href="#mffd6b5fef9" x="58.523438" y="199.665168" style="stroke: #000000; stroke-width: 0.8"/>
      </g>
     </g>
     <g id="text_10">
      <!-- 0.01 -->
      <g transform="translate(29.257813 203.464387) scale(0.1 -0.1)">
       <use xlink:href="#DejaVuSans-30"/>
       <use xlink:href="#DejaVuSans-2e" x="63.623047"/>
       <use xlink:href="#DejaVuSans-30" x="95.410156"/>
       <use xlink:href="#DejaVuSans-31" x="159.033203"/>
      </g>
     </g>
    </g>
    <g id="ytick_4">
     <g id="line2d_10">
      <g>
       <use xlink:href="#mffd6b5fef9" x="58.523438" y="161.844745" style="stroke: #000000; stroke-width: 0.8"/>
      </g>
     </g>
     <g id="text_11">
      <!-- 0.02 -->
      <g transform="translate(29.257813 165.643964) scale(0.1 -0.1)">
       <use xlink:href="#DejaVuSans-30"/>
       <use xlink:href="#DejaVuSans-2e" x="63.623047"/>
       <use xlink:href="#DejaVuSans-30" x="95.410156"/>
       <use xlink:href="#DejaVuSans-32" x="159.033203"/>
      </g>
     </g>
    </g>
    <g id="ytick_5">
     <g id="line2d_11">
      <g>
       <use xlink:href="#mffd6b5fef9" x="58.523438" y="124.024322" style="stroke: #000000; stroke-width: 0.8"/>
      </g>
     </g>
     <g id="text_12">
      <!-- 0.03 -->
      <g transform="translate(29.257813 127.823541) scale(0.1 -0.1)">
       <defs>
        <path id="DejaVuSans-33" d="M 2597 2516 
Q 3050 2419 3304 2112 
Q 3559 1806 3559 1356 
Q 3559 666 3084 287 
Q 2609 -91 1734 -91 
Q 1441 -91 1130 -33 
Q 819 25 488 141 
L 488 750 
Q 750 597 1062 519 
Q 1375 441 1716 441 
Q 2309 441 2620 675 
Q 2931 909 2931 1356 
Q 2931 1769 2642 2001 
Q 2353 2234 1838 2234 
L 1294 2234 
L 1294 2753 
L 1863 2753 
Q 2328 2753 2575 2939 
Q 2822 3125 2822 3475 
Q 2822 3834 2567 4026 
Q 2313 4219 1838 4219 
Q 1578 4219 1281 4162 
Q 984 4106 628 3988 
L 628 4550 
Q 988 4650 1302 4700 
Q 1616 4750 1894 4750 
Q 2613 4750 3031 4423 
Q 3450 4097 3450 3541 
Q 3450 3153 3228 2886 
Q 3006 2619 2597 2516 
z
" transform="scale(0.015625)"/>
       </defs>
       <use xlink:href="#DejaVuSans-30"/>
       <use xlink:href="#DejaVuSans-2e" x="63.623047"/>
       <use xlink:href="#DejaVuSans-30" x="95.410156"/>
       <use xlink:href="#DejaVuSans-33" x="159.033203"/>
      </g>
     </g>
    </g>
    <g id="ytick_6">
     <g id="line2d_12">
      <g>
       <use xlink:href="#mffd6b5fef9" x="58.523438" y="86.203899" style="stroke: #000000; stroke-width: 0.8"/>
      </g>
     </g>
     <g id="text_13">
      <!-- 0.04 -->
      <g transform="translate(29.257813 90.003118) scale(0.1 -0.1)">
       <use xlink:href="#DejaVuSans-30"/>
       <use xlink:href="#DejaVuSans-2e" x="63.623047"/>
       <use xlink:href="#DejaVuSans-30" x="95.410156"/>
       <use xlink:href="#DejaVuSans-34" x="159.033203"/>
      </g>
     </g>
    </g>
    <g id="ytick_7">
     <g id="line2d_13">
      <g>
       <use xlink:href="#mffd6b5fef9" x="58.523438" y="48.383476" style="stroke: #000000; stroke-width: 0.8"/>
      </g>
     </g>
     <g id="text_14">
      <!-- 0.05 -->
      <g transform="translate(29.257813 52.182695) scale(0.1 -0.1)">
       <defs>
        <path id="DejaVuSans-35" d="M 691 4666 
L 3169 4666 
L 3169 4134 
L 1269 4134 
L 1269 2991 
Q 1406 3038 1543 3061 
Q 1681 3084 1819 3084 
Q 2600 3084 3056 2656 
Q 3513 2228 3513 1497 
Q 3513 744 3044 326 
Q 2575 -91 1722 -91 
Q 1428 -91 1123 -41 
Q 819 9 494 109 
L 494 744 
Q 775 591 1075 516 
Q 1375 441 1709 441 
Q 2250 441 2565 725 
Q 2881 1009 2881 1497 
Q 2881 1984 2565 2268 
Q 2250 2553 1709 2553 
Q 1456 2553 1204 2497 
Q 953 2441 691 2322 
L 691 4666 
z
" transform="scale(0.015625)"/>
       </defs>
       <use xlink:href="#DejaVuSans-30"/>
       <use xlink:href="#DejaVuSans-2e" x="63.623047"/>
       <use xlink:href="#DejaVuSans-30" x="95.410156"/>
       <use xlink:href="#DejaVuSans-35" x="159.033203"/>
      </g>
     </g>
    </g>
    <g id="text_15">
     <!-- Frequency -->
     <g transform="translate(14.798438 181.203812) rotate(-90) scale(0.1 -0.1)">
      <defs>
       <path id="DejaVuSans-46" d="M 628 4666 
L 3309 4666 
L 3309 4134 
L 1259 4134 
L 1259 2759 
L 3109 2759 
L 3109 2228 
L 1259 2228 
L 1259 0 
L 628 0 
L 628 4666 
z
" transform="scale(0.015625)"/>
       <path id="DejaVuSans-72" d="M 2631 2963 
Q 2534 3019 2420 3045 
Q 2306 3072 2169 3072 
Q 1681 3072 1420 2755 
Q 1159 2438 1159 1844 
L 1159 0 
L 581 0 
L 581 3500 
L 1159 3500 
L 1159 2956 
Q 1341 3275 1631 3429 
Q 1922 3584 2338 3584 
Q 2397 3584 2469 3576 
Q 2541 3569 2628 3553 
L 2631 2963 
z
" transform="scale(0.015625)"/>
       <path id="DejaVuSans-71" d="M 947 1747 
Q 947 1113 1208 752 
Q 1469 391 1925 391 
Q 2381 391 2643 752 
Q 2906 1113 2906 1747 
Q 2906 2381 2643 2742 
Q 2381 3103 1925 3103 
Q 1469 3103 1208 2742 
Q 947 2381 947 1747 
z
M 2906 525 
Q 2725 213 2448 61 
Q 2172 -91 1784 -91 
Q 1150 -91 751 415 
Q 353 922 353 1747 
Q 353 2572 751 3078 
Q 1150 3584 1784 3584 
Q 2172 3584 2448 3432 
Q 2725 3281 2906 2969 
L 2906 3500 
L 3481 3500 
L 3481 -1331 
L 2906 -1331 
L 2906 525 
z
" transform="scale(0.015625)"/>
       <path id="DejaVuSans-6e" d="M 3513 2113 
L 3513 0 
L 2938 0 
L 2938 2094 
Q 2938 2591 2744 2837 
Q 2550 3084 2163 3084 
Q 1697 3084 1428 2787 
Q 1159 2491 1159 1978 
L 1159 0 
L 581 0 
L 581 3500 
L 1159 3500 
L 1159 2956 
Q 1366 3272 1645 3428 
Q 1925 3584 2291 3584 
Q 2894 3584 3203 3211 
Q 3513 2838 3513 2113 
z
" transform="scale(0.015625)"/>
       <path id="DejaVuSans-63" d="M 3122 3366 
L 3122 2828 
Q 2878 2963 2633 3030 
Q 2388 3097 2138 3097 
Q 1578 3097 1268 2742 
Q 959 2388 959 1747 
Q 959 1106 1268 751 
Q 1578 397 2138 397 
Q 2388 397 2633 464 
Q 2878 531 3122 666 
L 3122 134 
Q 2881 22 2623 -34 
Q 2366 -91 2075 -91 
Q 1284 -91 818 406 
Q 353 903 353 1747 
Q 353 2603 823 3093 
Q 1294 3584 2113 3584 
Q 2378 3584 2631 3529 
Q 2884 3475 3122 3366 
z
" transform="scale(0.015625)"/>
       <path id="DejaVuSans-79" d="M 2059 -325 
Q 1816 -950 1584 -1140 
Q 1353 -1331 966 -1331 
L 506 -1331 
L 506 -850 
L 844 -850 
Q 1081 -850 1212 -737 
Q 1344 -625 1503 -206 
L 1606 56 
L 191 3500 
L 800 3500 
L 1894 763 
L 2988 3500 
L 3597 3500 
L 2059 -325 
z
" transform="scale(0.015625)"/>
      </defs>
      <use xlink:href="#DejaVuSans-46"/>
      <use xlink:href="#DejaVuSans-72" x="50.269531"/>
      <use xlink:href="#DejaVuSans-65" x="89.132812"/>
      <use xlink:href="#DejaVuSans-71" x="150.65625"/>
      <use xlink:href="#DejaVuSans-75" x="214.132812"/>
      <use xlink:href="#DejaVuSans-65" x="277.511719"/>
      <use xlink:href="#DejaVuSans-6e" x="339.035156"/>
      <use xlink:href="#DejaVuSans-63" x="402.414062"/>
      <use xlink:href="#DejaVuSans-79" x="457.394531"/>
     </g>
    </g>
   </g>
   <g id="line2d_14">
    <path d="M 74.756165 237.596806 
L 78.035503 238.962866 
L 81.314842 235.489169 
L 84.594181 229.037399 
L 87.873519 221.028712 
L 91.152858 212.519286 
L 94.432197 204.266044 
L 97.711535 196.783491 
L 100.990874 190.39259 
L 104.270213 185.262495 
L 107.549551 181.445924 
L 110.82889 178.908878 
L 114.108229 177.555362 
L 117.387567 177.247715 
L 120.666906 177.8231 
L 123.946244 179.106645 
L 127.225583 180.921709 
L 130.504922 183.097678 
L 133.78426 185.47567 
L 137.063599 187.912474 
L 140.342938 190.283037 
L 143.622276 192.481764 
L 146.901615 194.422858 
L 150.180954 196.039914 
L 153.460292 197.284949 
L 156.739631 198.127018 
L 160.01897 198.550559 
L 163.298308 198.553561 
L 166.577647 198.145676 
L 169.856986 197.346316 
L 173.136324 196.182828 
L 176.415663 194.688774 
L 179.695001 192.90235 
L 182.97434 190.86498 
L 186.253679 188.620077 
L 189.533017 186.212005 
L 192.812356 183.685201 
L 196.091695 181.083491 
L 199.371033 178.449553 
L 202.650372 175.824526 
L 205.929711 173.247753 
L 209.209049 170.756612 
L 212.488388 168.386445 
L 215.767727 166.170531 
L 219.047065 164.140111 
L 222.326404 162.324418 
L 225.605743 160.750712 
L 228.885081 159.444291 
L 232.16442 158.428477 
L 235.443759 237.473246 
L 238.723097 237.473216 
L 242.002436 157.584363 
L 245.281774 157.81522 
L 248.561113 158.409318 
L 251.840452 159.380213 
L 255.11979 160.738253 
L 258.399129 162.489924 
L 261.678468 164.637158 
L 264.957806 167.176642 
L 268.237145 170.099152 
L 271.516484 173.388947 
L 274.795822 177.023255 
L 278.075161 180.971892 
L 281.3545 185.197039 
L 284.633838 189.653227 
L 287.913177 194.287539 
L 291.192516 199.040091 
L 294.471854 203.844782 
L 297.751193 208.630359 
L 301.030531 213.32179 
L 304.30987 217.841967 
L 307.589209 222.113709 
L 310.868547 226.062065 
L 314.147886 229.616868 
L 317.427225 232.715507 
L 320.706563 235.305826 
L 323.985902 237.349089 
L 327.265241 238.822876 
L 330.544579 239.723794 
L 333.823918 240.069826 
L 337.103257 239.902145 
L 340.382595 239.286142 
L 343.661934 238.311446 
L 346.941273 237.090603 
L 350.220611 235.756105 
L 353.49995 234.45538 
L 356.779288 233.343313 
L 360.058627 232.571829 
L 363.337966 232.27601 
L 366.617304 232.55616 
L 369.896643 233.455167 
L 373.175982 234.930474 
L 376.45532 236.819865 
L 379.734659 238.80024 
L 383.013998 240.338446 
L 386.293336 240.633185 
L 389.572675 238.546901 
L 392.852014 232.526508 
L 396.131352 220.511677 
L 399.410691 199.829363 
" clip-path="url(#p3ee47ff0d6)" style="fill: none; stroke: #1f77b4; stroke-width: 1.5; stroke-linecap: square"/>
   </g>
   <g id="line2d_15">
    <path d="M 74.756165 232.557548 
L 78.035504 240.450211 
L 81.314842 242.108681 
L 84.594181 239.43879 
L 87.87352 233.961716 
L 91.152859 226.87009 
L 94.432198 219.078061 
L 97.711537 211.265795 
L 100.990876 203.918858 
L 104.270214 197.362912 
L 107.549553 191.794096 
L 110.828892 187.305505 
L 114.108231 183.910084 
L 117.38757 181.560293 
L 120.666909 180.164844 
L 123.946247 179.6028 
L 127.225586 179.735312 
L 130.504925 180.415251 
L 133.784264 181.494957 
L 137.063603 182.832346 
L 140.342942 184.295552 
L 143.62228 185.766324 
L 146.901619 187.142312 
L 150.180958 188.338438 
L 153.460297 189.287472 
L 156.739636 189.939955 
L 160.018975 190.263589 
L 163.298314 190.242202 
L 166.577652 189.874379 
L 169.856991 189.171863 
L 173.13633 188.15778 
L 176.415669 186.864775 
L 179.695008 185.333111 
L 182.974347 183.608778 
L 186.253685 181.741666 
L 189.533024 179.783823 
L 192.812363 177.787848 
L 196.091702 175.805417 
L 199.371041 173.885988 
L 202.65038 172.075669 
L 205.929718 170.416282 
L 209.209057 168.944609 
L 212.488396 167.691826 
L 215.767735 166.683124 
L 219.047074 165.937503 
L 222.326413 165.467732 
L 225.605752 165.28047 
L 228.88509 165.376519 
L 232.164429 165.751207 
L 235.443768 237.474134 
L 238.723107 237.473858 
L 242.002446 169.001539 
L 245.281785 170.268815 
L 248.561123 171.702335 
L 251.840462 173.28277 
L 255.119801 174.99111 
L 258.39914 176.809111 
L 261.678479 178.719653 
L 264.957818 180.707004 
L 268.237157 182.757008 
L 271.516495 184.857172 
L 274.795834 186.996671 
L 278.075173 189.166278 
L 281.354512 191.358221 
L 284.633851 193.565978 
L 287.91319 195.784033 
L 291.192528 198.007597 
L 294.471867 200.232308 
L 297.751206 202.45394 
L 301.030545 204.668122 
L 304.309884 206.870094 
L 307.589223 209.054509 
L 310.868561 211.215296 
L 314.1479 213.345601 
L 317.427239 215.437799 
L 320.706578 217.483605 
L 323.985917 219.47426 
L 327.265256 221.400804 
L 330.544595 223.254412 
L 333.823933 225.026778 
L 337.103272 226.710524 
L 340.382611 228.299582 
L 343.66195 229.789515 
L 346.941289 231.177706 
L 350.220628 232.463345 
L 353.499966 233.647123 
L 356.779305 234.730536 
L 360.058644 235.714659 
L 363.337983 236.598271 
L 366.617322 237.375157 
L 369.896661 238.030401 
L 373.175999 238.535475 
L 376.455338 238.841885 
L 379.734677 238.873116 
L 383.014016 238.514588 
L 386.293355 237.601311 
L 389.572694 235.902886 
L 392.852033 233.105463 
L 396.131371 228.790248 
L 399.41071 222.408089 
" clip-path="url(#p3ee47ff0d6)" style="fill: none; stroke: #ff7f0e; stroke-width: 1.5; stroke-linecap: square"/>
   </g>
   <g id="line2d_16">
    <path d="M 74.756165 276.334125 
L 78.035504 227.942462 
L 81.314842 181.985703 
L 84.594181 140.84691 
L 87.87352 105.979426 
L 91.152859 78.107788 
L 94.432198 57.398748 
L 97.711537 43.605556 
L 100.990876 36.18846 
L 104.270214 34.414125 
L 107.549553 37.436498 
L 110.828892 44.361396 
L 114.108231 54.296956 
L 117.38757 66.391853 
L 120.666909 79.863067 
L 123.946247 94.014778 
L 127.225586 108.24984 
L 130.504925 122.075123 
L 133.784264 135.101901 
L 137.063603 147.042293 
L 140.342942 157.702697 
L 143.62228 166.975005 
L 146.901619 174.826293 
L 150.180958 181.287602 
L 153.460297 186.442307 
L 156.739636 190.414517 
L 160.018975 193.357844 
L 163.298314 195.444841 
L 166.577652 196.857326 
L 169.856991 197.777745 
L 173.13633 198.381709 
L 176.415669 198.831755 
L 179.695008 199.272367 
L 182.974347 199.826246 
L 186.253685 200.591799 
L 189.533024 201.641768 
L 192.812363 203.022929 
L 196.091702 204.756751 
L 199.371041 206.840903 
L 202.65038 209.251471 
L 205.929718 211.945777 
L 209.209057 214.865636 
L 212.488396 217.940937 
L 215.767735 221.093406 
L 219.047074 224.240417 
L 222.326413 227.298742 
L 225.605752 230.18812 
L 228.88509 232.834537 
L 232.164429 235.173145 
L 235.443768 237.480954 
L 238.723107 237.481742 
L 242.002446 237.614601 
L 245.281785 238.103991 
L 248.561123 238.288833 
L 251.840462 238.195067 
L 255.119801 237.857674 
L 258.39914 237.319315 
L 261.678479 236.628688 
L 264.957818 235.838654 
L 268.237157 235.004187 
L 271.516495 234.180218 
L 274.795834 233.41944 
L 278.075173 232.770153 
L 281.354512 232.274216 
L 284.633851 231.965194 
L 287.91319 231.866759 
L 291.192528 231.991442 
L 294.471867 232.339778 
L 297.751206 232.899922 
L 301.030545 233.647772 
L 304.309884 234.547659 
L 307.589223 235.553605 
L 310.868561 236.611175 
L 314.1479 237.659894 
L 317.427239 238.636218 
L 320.706578 239.476969 
L 323.985917 240.123164 
L 327.265256 240.524109 
L 330.544595 240.641602 
L 333.823933 240.454035 
L 337.103272 239.960174 
L 340.382611 239.182303 
L 343.66195 238.168413 
L 346.941289 236.993026 
L 350.220628 235.756202 
L 353.499966 234.58021 
L 356.779305 233.603268 
L 360.058644 232.969694 
L 363.337983 232.815727 
L 366.617322 233.250178 
L 369.896661 234.32902 
L 373.175999 236.022887 
L 376.455338 238.176387 
L 379.734677 240.458007 
L 383.014016 242.299298 
L 386.293355 242.82188 
L 389.572694 240.750731 
L 392.852033 234.312041 
L 396.131371 221.113825 
L 399.41071 198.007315 
" clip-path="url(#p3ee47ff0d6)" style="fill: none; stroke: #2ca02c; stroke-width: 1.5; stroke-linecap: square"/>
   </g>
   <g id="line2d_17">
    <path d="M 74.756165 233.944293 
L 78.035504 239.79055 
L 81.314842 239.461117 
L 84.594181 235.364486 
L 87.87352 229.288595 
L 91.152859 222.517611 
L 94.432198 215.932257 
L 97.711537 210.095412 
L 100.990876 205.324559 
L 104.270214 201.752542 
L 107.549553 199.377993 
L 110.828892 198.106665 
L 114.108231 197.78482 
L 117.38757 198.225708 
L 120.666909 199.230089 
L 123.946247 200.601672 
L 127.225586 202.158241 
L 130.504925 203.739176 
L 133.784264 205.210008 
L 137.063603 206.464558 
L 140.342942 207.42517 
L 143.62228 208.041467 
L 146.901619 208.288027 
L 150.180958 208.161296 
L 153.460297 207.676029 
L 156.739636 206.861498 
L 160.018975 205.757667 
L 163.298314 204.411492 
L 166.577652 202.87348 
L 169.856991 201.194594 
L 173.13633 199.423593 
L 176.415669 197.604828 
L 179.695008 195.776544 
L 182.974347 193.969676 
L 186.253685 192.207128 
L 189.533024 190.503528 
L 192.812363 188.865396 
L 196.091702 187.291706 
L 199.371041 185.774768 
L 202.65038 184.301389 
L 205.929718 182.854234 
L 209.209057 181.41334 
L 212.488396 179.957711 
L 215.767735 178.466928 
L 219.047074 176.92273 
L 222.326413 175.310485 
L 225.605752 173.620523 
L 228.88509 171.849275 
L 232.164429 170.000172 
L 235.443768 237.471024 
L 238.723107 237.470736 
L 242.002446 164.578493 
L 245.281785 162.535547 
L 248.561123 160.528479 
L 251.840462 158.610183 
L 255.119801 156.839551 
L 258.39914 155.279811 
L 261.678479 153.996595 
L 264.957818 153.055808 
L 268.237157 152.521334 
L 271.516495 152.452655 
L 274.795834 152.902453 
L 278.075173 153.91427 
L 281.354512 155.5203 
L 284.633851 157.739401 
L 287.91319 160.575401 
L 291.192528 164.015785 
L 294.471867 168.030822 
L 297.751206 172.573223 
L 301.030545 177.578367 
L 304.309884 182.965162 
L 307.589223 188.637573 
L 310.868561 194.486818 
L 314.1479 200.394271 
L 317.427239 206.235 
L 320.706578 211.881941 
L 323.985917 217.210586 
L 327.265256 222.104109 
L 330.544595 226.458761 
L 333.823933 230.189357 
L 337.103272 233.234618 
L 340.382611 235.562086 
L 343.66195 237.172282 
L 346.941289 238.101715 
L 350.220628 238.424269 
L 353.499966 238.25048 
L 356.779305 237.724073 
L 360.058644 237.01511 
L 363.337983 236.308978 
L 366.617322 235.790391 
L 369.896661 235.621443 
L 373.175999 235.912704 
L 376.455338 236.686185 
L 379.734677 237.82894 
L 383.014016 239.035916 
L 386.293355 239.740564 
L 389.572694 239.031561 
L 392.852033 235.553905 
L 396.131371 227.392438 
L 399.41071 211.935749 
" clip-path="url(#p3ee47ff0d6)" style="fill: none; stroke: #d62728; stroke-width: 1.5; stroke-linecap: square"/>
   </g>
   <g id="line2d_18">
    <path d="M 74.756165 236.644879 
L 78.035503 238.573379 
L 81.314842 238.481721 
L 84.594181 236.938437 
L 87.873519 234.406135 
L 91.152858 231.257409 
L 94.432197 227.788618 
L 97.711535 224.231768 
L 100.990874 220.764738 
L 104.270213 217.520036 
L 107.549551 214.592296 
L 110.82889 212.044657 
L 114.108229 209.914197 
L 117.387567 208.21654 
L 120.666906 206.949772 
L 123.946244 206.097756 
L 127.225583 205.632957 
L 130.504922 205.51884 
L 133.78426 205.711929 
L 137.063599 206.163578 
L 140.342938 206.821504 
L 143.622276 207.631137 
L 146.901615 208.536806 
L 150.180954 209.482801 
L 153.460292 210.414333 
L 156.739631 211.278405 
L 160.01897 212.024608 
L 163.298308 212.605848 
L 166.577647 212.979017 
L 169.856986 213.105603 
L 173.136324 212.95223 
L 176.415663 212.49115 
L 179.695001 211.700661 
L 182.97434 210.565446 
L 186.253679 209.076851 
L 189.533017 207.233067 
L 192.812356 205.039225 
L 196.091695 202.507409 
L 199.371033 199.656555 
L 202.650372 196.51226 
L 205.929711 193.106488 
L 209.209049 189.477164 
L 212.488388 185.667673 
L 215.767727 181.726259 
L 219.047065 177.705322 
L 222.326404 173.66063 
L 225.605743 169.650452 
L 228.885081 165.734611 
L 232.16442 161.973486 
L 235.443759 237.472728 
L 238.723097 237.4726 
L 242.002436 152.408642 
L 245.281774 149.788801 
L 248.561113 147.587932 
L 251.840452 145.850331 
L 255.11979 144.613865 
L 258.399129 143.908964 
L 261.678468 143.757704 
L 264.957806 144.173021 
L 268.237145 145.158065 
L 271.516484 146.705729 
L 274.795822 148.798384 
L 278.075161 151.407832 
L 281.3545 154.495496 
L 284.633838 158.012885 
L 287.913177 161.902318 
L 291.192516 166.097938 
L 294.471854 170.527016 
L 297.751193 175.111525 
L 301.030531 179.769998 
L 304.30987 184.419633 
L 307.589209 188.978621 
L 310.868547 193.368659 
L 314.147886 197.517597 
L 317.427225 201.362155 
L 320.706563 204.850626 
L 323.985902 207.945482 
L 327.265241 210.625763 
L 330.544579 212.889128 
L 333.823918 214.75341 
L 337.103257 216.257519 
L 340.382595 217.46149 
L 343.661934 218.445469 
L 346.941273 219.307382 
L 350.220611 220.15904 
L 353.49995 221.120361 
L 356.779288 222.311388 
L 360.058627 223.841747 
L 363.337966 225.797143 
L 366.617304 228.22246 
L 369.896643 231.101001 
L 373.175982 234.329352 
L 376.45532 237.687319 
L 379.734659 240.802342 
L 383.013998 243.107734 
L 386.293336 243.794064 
L 389.572675 241.752931 
L 392.852014 235.512339 
L 396.131352 223.16281 
L 399.410691 202.273341 
" clip-path="url(#p3ee47ff0d6)" style="fill: none; stroke: #9467bd; stroke-width: 1.5; stroke-linecap: square"/>
   </g>
   <g id="line2d_19">
    <path d="M 74.756165 239.504665 
L 78.035503 239.591398 
L 81.314842 236.510822 
L 84.59418 231.350464 
L 87.873519 224.986572 
L 91.152857 218.111001 
L 94.432195 211.255841 
L 97.711534 204.815889 
L 100.990872 199.06909 
L 104.270211 194.195046 
L 107.549549 190.291709 
L 110.828888 187.39036 
L 114.108226 185.46898 
L 117.387565 184.46411 
L 120.666903 184.281304 
L 123.946242 184.804267 
L 127.22558 185.902766 
L 130.504918 187.439416 
L 133.784257 189.275417 
L 137.063595 191.275336 
L 140.342934 193.311 
L 143.622272 195.264598 
L 146.901611 197.031056 
L 150.180949 198.519749 
L 153.460288 199.655641 
L 156.739626 200.379898 
L 160.018965 200.650048 
L 163.298303 200.439741 
L 166.577641 199.738175 
L 169.85698 198.549225 
L 173.136318 196.890345 
L 176.415657 194.791271 
L 179.694995 192.292582 
L 182.974334 189.444152 
L 186.253672 186.303535 
L 189.533011 182.934311 
L 192.812349 179.404437 
L 196.091687 175.784611 
L 199.371026 172.146696 
L 202.650364 168.562214 
L 205.929703 165.100928 
L 209.209041 161.829542 
L 212.48838 158.810515 
L 215.767718 156.101016 
L 219.047057 153.752025 
L 222.326395 151.807574 
L 225.605734 150.304158 
L 228.885072 149.270289 
L 232.16441 148.726218 
L 235.443749 237.473405 
L 238.723087 237.473341 
L 242.002426 150.248735 
L 245.281764 151.585583 
L 248.561103 153.386381 
L 251.840441 155.629528 
L 255.11978 158.28725 
L 258.399118 161.326108 
L 261.678457 164.707592 
L 264.957795 168.388764 
L 268.237133 172.322975 
L 271.516472 176.460622 
L 274.79581 180.749949 
L 278.075149 185.137881 
L 281.354487 189.570888 
L 284.633826 193.995858 
L 287.913164 198.36098 
L 291.192503 202.616626 
L 294.471841 206.716208 
L 297.75118 210.617021 
L 301.030518 214.281041 
L 304.309856 217.675674 
L 307.589195 220.774436 
L 310.868533 223.557558 
L 314.147872 226.012486 
L 317.42721 228.13427 
L 320.706549 229.925814 
L 323.985887 231.397972 
L 327.265226 232.569458 
L 330.544564 233.466547 
L 333.823902 234.122548 
L 337.103241 234.576997 
L 340.382579 234.874557 
L 343.661918 235.063573 
L 346.941256 235.194249 
L 350.220595 235.316394 
L 353.499933 235.476697 
L 356.779272 235.715474 
L 360.05861 236.062824 
L 363.337949 236.534138 
L 366.617287 237.124891 
L 369.896625 237.804636 
L 373.175964 238.510133 
L 376.455302 239.137509 
L 379.734641 239.533371 
L 383.013979 239.484763 
L 386.293318 238.707859 
L 389.572656 236.835277 
L 392.851995 233.40189 
L 396.131333 227.828991 
L 399.410672 219.406687 
" clip-path="url(#p3ee47ff0d6)" style="fill: none; stroke: #8c564b; stroke-width: 1.5; stroke-linecap: square"/>
   </g>
   <g id="patch_3">
    <path d="M 58.523438 288.430125 
L 58.523438 22.318125 
" style="fill: none; stroke: #000000; stroke-width: 0.8; stroke-linejoin: miter; stroke-linecap: square"/>
   </g>
   <g id="patch_4">
    <path d="M 415.643438 288.430125 
L 415.643438 22.318125 
" style="fill: none; stroke: #000000; stroke-width: 0.8; stroke-linejoin: miter; stroke-linecap: square"/>
   </g>
   <g id="patch_5">
    <path d="M 58.523438 288.430125 
L 415.643438 288.430125 
" style="fill: none; stroke: #000000; stroke-width: 0.8; stroke-linejoin: miter; stroke-linecap: square"/>
   </g>
   <g id="patch_6">
    <path d="M 58.523438 22.318125 
L 415.643438 22.318125 
" style="fill: none; stroke: #000000; stroke-width: 0.8; stroke-linejoin: miter; stroke-linecap: square"/>
   </g>
   <g id="text_16">
    <!-- FA - xtract_prob_Frontal_Aslant_Tract_L -->
    <g transform="translate(120.615 16.318125) scale(0.12 -0.12)">
     <defs>
      <path id="DejaVuSans-41" d="M 2188 4044 
L 1331 1722 
L 3047 1722 
L 2188 4044 
z
M 1831 4666 
L 2547 4666 
L 4325 0 
L 3669 0 
L 3244 1197 
L 1141 1197 
L 716 0 
L 50 0 
L 1831 4666 
z
" transform="scale(0.015625)"/>
      <path id="DejaVuSans-2d" d="M 313 2009 
L 1997 2009 
L 1997 1497 
L 313 1497 
L 313 2009 
z
" transform="scale(0.015625)"/>
      <path id="DejaVuSans-74" d="M 1172 4494 
L 1172 3500 
L 2356 3500 
L 2356 3053 
L 1172 3053 
L 1172 1153 
Q 1172 725 1289 603 
Q 1406 481 1766 481 
L 2356 481 
L 2356 0 
L 1766 0 
Q 1100 0 847 248 
Q 594 497 594 1153 
L 594 3053 
L 172 3053 
L 172 3500 
L 594 3500 
L 594 4494 
L 1172 4494 
z
" transform="scale(0.015625)"/>
      <path id="DejaVuSans-5f" d="M 3263 -1063 
L 3263 -1509 
L -63 -1509 
L -63 -1063 
L 3263 -1063 
z
" transform="scale(0.015625)"/>
      <path id="DejaVuSans-70" d="M 1159 525 
L 1159 -1331 
L 581 -1331 
L 581 3500 
L 1159 3500 
L 1159 2969 
Q 1341 3281 1617 3432 
Q 1894 3584 2278 3584 
Q 2916 3584 3314 3078 
Q 3713 2572 3713 1747 
Q 3713 922 3314 415 
Q 2916 -91 2278 -91 
Q 1894 -91 1617 61 
Q 1341 213 1159 525 
z
M 3116 1747 
Q 3116 2381 2855 2742 
Q 2594 3103 2138 3103 
Q 1681 3103 1420 2742 
Q 1159 2381 1159 1747 
Q 1159 1113 1420 752 
Q 1681 391 2138 391 
Q 2594 391 2855 752 
Q 3116 1113 3116 1747 
z
" transform="scale(0.015625)"/>
      <path id="DejaVuSans-6f" d="M 1959 3097 
Q 1497 3097 1228 2736 
Q 959 2375 959 1747 
Q 959 1119 1226 758 
Q 1494 397 1959 397 
Q 2419 397 2687 759 
Q 2956 1122 2956 1747 
Q 2956 2369 2687 2733 
Q 2419 3097 1959 3097 
z
M 1959 3584 
Q 2709 3584 3137 3096 
Q 3566 2609 3566 1747 
Q 3566 888 3137 398 
Q 2709 -91 1959 -91 
Q 1206 -91 779 398 
Q 353 888 353 1747 
Q 353 2609 779 3096 
Q 1206 3584 1959 3584 
z
" transform="scale(0.015625)"/>
      <path id="DejaVuSans-62" d="M 3116 1747 
Q 3116 2381 2855 2742 
Q 2594 3103 2138 3103 
Q 1681 3103 1420 2742 
Q 1159 2381 1159 1747 
Q 1159 1113 1420 752 
Q 1681 391 2138 391 
Q 2594 391 2855 752 
Q 3116 1113 3116 1747 
z
M 1159 2969 
Q 1341 3281 1617 3432 
Q 1894 3584 2278 3584 
Q 2916 3584 3314 3078 
Q 3713 2572 3713 1747 
Q 3713 922 3314 415 
Q 2916 -91 2278 -91 
Q 1894 -91 1617 61 
Q 1341 213 1159 525 
L 1159 0 
L 581 0 
L 581 4863 
L 1159 4863 
L 1159 2969 
z
" transform="scale(0.015625)"/>
      <path id="DejaVuSans-54" d="M -19 4666 
L 3928 4666 
L 3928 4134 
L 2272 4134 
L 2272 0 
L 1638 0 
L 1638 4134 
L -19 4134 
L -19 4666 
z
" transform="scale(0.015625)"/>
      <path id="DejaVuSans-4c" d="M 628 4666 
L 1259 4666 
L 1259 531 
L 3531 531 
L 3531 0 
L 628 0 
L 628 4666 
z
" transform="scale(0.015625)"/>
     </defs>
     <use xlink:href="#DejaVuSans-46"/>
     <use xlink:href="#DejaVuSans-41" x="48.394531"/>
     <use xlink:href="#DejaVuSans-20" x="116.802734"/>
     <use xlink:href="#DejaVuSans-2d" x="148.589844"/>
     <use xlink:href="#DejaVuSans-20" x="184.673828"/>
     <use xlink:href="#DejaVuSans-78" x="216.460938"/>
     <use xlink:href="#DejaVuSans-74" x="275.640625"/>
     <use xlink:href="#DejaVuSans-72" x="314.849609"/>
     <use xlink:href="#DejaVuSans-61" x="355.962891"/>
     <use xlink:href="#DejaVuSans-63" x="417.242188"/>
     <use xlink:href="#DejaVuSans-74" x="472.222656"/>
     <use xlink:href="#DejaVuSans-5f" x="511.431641"/>
     <use xlink:href="#DejaVuSans-70" x="561.431641"/>
     <use xlink:href="#DejaVuSans-72" x="624.908203"/>
     <use xlink:href="#DejaVuSans-6f" x="663.771484"/>
     <use xlink:href="#DejaVuSans-62" x="724.953125"/>
     <use xlink:href="#DejaVuSans-5f" x="788.429688"/>
     <use xlink:href="#DejaVuSans-46" x="838.429688"/>
     <use xlink:href="#DejaVuSans-72" x="888.699219"/>
     <use xlink:href="#DejaVuSans-6f" x="927.5625"/>
     <use xlink:href="#DejaVuSans-6e" x="988.744141"/>
     <use xlink:href="#DejaVuSans-74" x="1052.123047"/>
     <use xlink:href="#DejaVuSans-61" x="1091.332031"/>
     <use xlink:href="#DejaVuSans-6c" x="1152.611328"/>
     <use xlink:href="#DejaVuSans-5f" x="1180.394531"/>
     <use xlink:href="#DejaVuSans-41" x="1230.394531"/>
     <use xlink:href="#DejaVuSans-73" x="1298.802734"/>
     <use xlink:href="#DejaVuSans-6c" x="1350.902344"/>
     <use xlink:href="#DejaVuSans-61" x="1378.685547"/>
     <use xlink:href="#DejaVuSans-6e" x="1439.964844"/>
     <use xlink:href="#DejaVuSans-74" x="1503.34375"/>
     <use xlink:href="#DejaVuSans-5f" x="1542.552734"/>
     <use xlink:href="#DejaVuSans-54" x="1592.552734"/>
     <use xlink:href="#DejaVuSans-72" x="1638.886719"/>
     <use xlink:href="#DejaVuSans-61" x="1680"/>
     <use xlink:href="#DejaVuSans-63" x="1741.279297"/>
     <use xlink:href="#DejaVuSans-74" x="1796.259766"/>
     <use xlink:href="#DejaVuSans-5f" x="1835.46875"/>
     <use xlink:href="#DejaVuSans-4c" x="1885.46875"/>
    </g>
   </g>
   <g id="legend_1">
    <g id="patch_7">
     <path d="M 458.355438 146.666825 
L 556.211688 146.666825 
Q 558.211688 146.666825 558.211688 144.666825 
L 558.211688 55.929325 
Q 558.211688 53.929325 556.211688 53.929325 
L 458.355438 53.929325 
Q 456.355438 53.929325 456.355438 55.929325 
L 456.355438 144.666825 
Q 456.355438 146.666825 458.355438 146.666825 
z
" style="fill: #ffffff; opacity: 0.8; stroke: #cccccc; stroke-linejoin: miter"/>
    </g>
    <g id="line2d_20">
     <path d="M 460.355438 62.027762 
L 470.355438 62.027762 
L 480.355438 62.027762 
" style="fill: none; stroke: #1f77b4; stroke-width: 1.5; stroke-linecap: square"/>
    </g>
    <g id="text_17">
     <!-- 20_06_02_E3 -->
     <g transform="translate(488.355438 65.527762) scale(0.1 -0.1)">
      <defs>
       <path id="DejaVuSans-45" d="M 628 4666 
L 3578 4666 
L 3578 4134 
L 1259 4134 
L 1259 2753 
L 3481 2753 
L 3481 2222 
L 1259 2222 
L 1259 531 
L 3634 531 
L 3634 0 
L 628 0 
L 628 4666 
z
" transform="scale(0.015625)"/>
      </defs>
      <use xlink:href="#DejaVuSans-32"/>
      <use xlink:href="#DejaVuSans-30" x="63.623047"/>
      <use xlink:href="#DejaVuSans-5f" x="127.246094"/>
      <use xlink:href="#DejaVuSans-30" x="177.246094"/>
      <use xlink:href="#DejaVuSans-36" x="240.869141"/>
      <use xlink:href="#DejaVuSans-5f" x="304.492188"/>
      <use xlink:href="#DejaVuSans-30" x="354.492188"/>
      <use xlink:href="#DejaVuSans-32" x="418.115234"/>
      <use xlink:href="#DejaVuSans-5f" x="481.738281"/>
      <use xlink:href="#DejaVuSans-45" x="531.738281"/>
      <use xlink:href="#DejaVuSans-33" x="594.921875"/>
     </g>
    </g>
    <g id="line2d_21">
     <path d="M 460.355438 76.984013 
L 470.355438 76.984013 
L 480.355438 76.984013 
" style="fill: none; stroke: #ff7f0e; stroke-width: 1.5; stroke-linecap: square"/>
    </g>
    <g id="text_18">
     <!-- 20_05_01_E3 -->
     <g transform="translate(488.355438 80.484013) scale(0.1 -0.1)">
      <use xlink:href="#DejaVuSans-32"/>
      <use xlink:href="#DejaVuSans-30" x="63.623047"/>
      <use xlink:href="#DejaVuSans-5f" x="127.246094"/>
      <use xlink:href="#DejaVuSans-30" x="177.246094"/>
      <use xlink:href="#DejaVuSans-35" x="240.869141"/>
      <use xlink:href="#DejaVuSans-5f" x="304.492188"/>
      <use xlink:href="#DejaVuSans-30" x="354.492188"/>
      <use xlink:href="#DejaVuSans-31" x="418.115234"/>
      <use xlink:href="#DejaVuSans-5f" x="481.738281"/>
      <use xlink:href="#DejaVuSans-45" x="531.738281"/>
      <use xlink:href="#DejaVuSans-33" x="594.921875"/>
     </g>
    </g>
    <g id="line2d_22">
     <path d="M 460.355438 91.940262 
L 470.355438 91.940262 
L 480.355438 91.940262 
" style="fill: none; stroke: #2ca02c; stroke-width: 1.5; stroke-linecap: square"/>
    </g>
    <g id="text_19">
     <!-- 20_02_02_E3 -->
     <g transform="translate(488.355438 95.440262) scale(0.1 -0.1)">
      <use xlink:href="#DejaVuSans-32"/>
      <use xlink:href="#DejaVuSans-30" x="63.623047"/>
      <use xlink:href="#DejaVuSans-5f" x="127.246094"/>
      <use xlink:href="#DejaVuSans-30" x="177.246094"/>
      <use xlink:href="#DejaVuSans-32" x="240.869141"/>
      <use xlink:href="#DejaVuSans-5f" x="304.492188"/>
      <use xlink:href="#DejaVuSans-30" x="354.492188"/>
      <use xlink:href="#DejaVuSans-32" x="418.115234"/>
      <use xlink:href="#DejaVuSans-5f" x="481.738281"/>
      <use xlink:href="#DejaVuSans-45" x="531.738281"/>
      <use xlink:href="#DejaVuSans-33" x="594.921875"/>
     </g>
    </g>
    <g id="line2d_23">
     <path d="M 460.355438 106.896513 
L 470.355438 106.896513 
L 480.355438 106.896513 
" style="fill: none; stroke: #d62728; stroke-width: 1.5; stroke-linecap: square"/>
    </g>
    <g id="text_20">
     <!-- 20_10_02_E3 -->
     <g transform="translate(488.355438 110.396513) scale(0.1 -0.1)">
      <use xlink:href="#DejaVuSans-32"/>
      <use xlink:href="#DejaVuSans-30" x="63.623047"/>
      <use xlink:href="#DejaVuSans-5f" x="127.246094"/>
      <use xlink:href="#DejaVuSans-31" x="177.246094"/>
      <use xlink:href="#DejaVuSans-30" x="240.869141"/>
      <use xlink:href="#DejaVuSans-5f" x="304.492188"/>
      <use xlink:href="#DejaVuSans-30" x="354.492188"/>
      <use xlink:href="#DejaVuSans-32" x="418.115234"/>
      <use xlink:href="#DejaVuSans-5f" x="481.738281"/>
      <use xlink:href="#DejaVuSans-45" x="531.738281"/>
      <use xlink:href="#DejaVuSans-33" x="594.921875"/>
     </g>
    </g>
    <g id="line2d_24">
     <path d="M 460.355438 121.852762 
L 470.355438 121.852762 
L 480.355438 121.852762 
" style="fill: none; stroke: #9467bd; stroke-width: 1.5; stroke-linecap: square"/>
    </g>
    <g id="text_21">
     <!-- 20_08_02_E3 -->
     <g transform="translate(488.355438 125.352762) scale(0.1 -0.1)">
      <use xlink:href="#DejaVuSans-32"/>
      <use xlink:href="#DejaVuSans-30" x="63.623047"/>
      <use xlink:href="#DejaVuSans-5f" x="127.246094"/>
      <use xlink:href="#DejaVuSans-30" x="177.246094"/>
      <use xlink:href="#DejaVuSans-38" x="240.869141"/>
      <use xlink:href="#DejaVuSans-5f" x="304.492188"/>
      <use xlink:href="#DejaVuSans-30" x="354.492188"/>
      <use xlink:href="#DejaVuSans-32" x="418.115234"/>
      <use xlink:href="#DejaVuSans-5f" x="481.738281"/>
      <use xlink:href="#DejaVuSans-45" x="531.738281"/>
      <use xlink:href="#DejaVuSans-33" x="594.921875"/>
     </g>
    </g>
    <g id="line2d_25">
     <path d="M 460.355438 136.809012 
L 470.355438 136.809012 
L 480.355438 136.809012 
" style="fill: none; stroke: #8c564b; stroke-width: 1.5; stroke-linecap: square"/>
    </g>
    <g id="text_22">
     <!-- 20_11_02_E3 -->
     <g transform="translate(488.355438 140.309012) scale(0.1 -0.1)">
      <use xlink:href="#DejaVuSans-32"/>
      <use xlink:href="#DejaVuSans-30" x="63.623047"/>
      <use xlink:href="#DejaVuSans-5f" x="127.246094"/>
      <use xlink:href="#DejaVuSans-31" x="177.246094"/>
      <use xlink:href="#DejaVuSans-31" x="240.869141"/>
      <use xlink:href="#DejaVuSans-5f" x="304.492188"/>
      <use xlink:href="#DejaVuSans-30" x="354.492188"/>
      <use xlink:href="#DejaVuSans-32" x="418.115234"/>
      <use xlink:href="#DejaVuSans-5f" x="481.738281"/>
      <use xlink:href="#DejaVuSans-45" x="531.738281"/>
      <use xlink:href="#DejaVuSans-33" x="594.921875"/>
     </g>
    </g>
   </g>
  </g>
 </g>
 <defs>
  <clipPath id="p3ee47ff0d6">
   <rect x="58.523438" y="22.318125" width="357.12" height="266.112"/>
  </clipPath>
 </defs>
</svg>
