<?xml version="1.0" encoding="utf-8" standalone="no"?>
<!DOCTYPE svg PUBLIC "-//W3C//DTD SVG 1.1//EN"
  "http://www.w3.org/Graphics/SVG/1.1/DTD/svg11.dtd">
<svg xmlns:xlink="http://www.w3.org/1999/xlink" width="557.032pt" height="325.986375pt" viewBox="0 0 557.032 325.986375" xmlns="http://www.w3.org/2000/svg" version="1.1">
 <metadata>
  <rdf:RDF xmlns:dc="http://purl.org/dc/elements/1.1/" xmlns:cc="http://creativecommons.org/ns#" xmlns:rdf="http://www.w3.org/1999/02/22-rdf-syntax-ns#">
   <cc:Work>
    <dc:type rdf:resource="http://purl.org/dc/dcmitype/StillImage"/>
    <dc:date>2023-02-07T23:00:00.065261</dc:date>
    <dc:format>image/svg+xml</dc:format>
    <dc:creator>
     <cc:Agent>
      <dc:title>Matplotlib v3.6.2, https://matplotlib.org/</dc:title>
     </cc:Agent>
    </dc:creator>
   </cc:Work>
  </rdf:RDF>
 </metadata>
 <defs>
  <style type="text/css">*{stroke-linejoin: round; stroke-linecap: butt}</style>
 </defs>
 <g id="figure_1">
  <g id="patch_1">
   <path d="M 0 325.986375 
L 557.032 325.986375 
L 557.032 0 
L 0 0 
z
" style="fill: #ffffff"/>
  </g>
  <g id="axes_1">
   <g id="patch_2">
    <path d="M 50.14375 288.430125 
L 407.26375 288.430125 
L 407.26375 22.318125 
L 50.14375 22.318125 
z
" style="fill: #ffffff"/>
   </g>
   <g id="PolyCollection_1">
    <path d="M 66.376477 201.118631 
L 66.376477 239.049591 
L 66.88214 239.049591 
L 67.387803 239.049591 
L 67.893466 239.049591 
L 68.399129 239.049591 
L 68.904792 239.049591 
L 69.410455 239.049591 
L 69.916118 239.049591 
L 70.421781 239.049591 
L 70.927444 239.049591 
L 71.433107 239.049591 
L 71.93877 239.049591 
L 72.444433 239.049591 
L 72.950096 239.049591 
L 73.455759 239.049591 
L 73.961422 239.049591 
L 74.467085 239.049591 
L 74.972748 239.049591 
L 75.478411 239.049591 
L 75.984074 239.049591 
L 76.489737 239.049591 
L 76.9954 239.049591 
L 77.501063 239.049591 
L 78.006726 239.049591 
L 78.512389 239.049591 
L 79.018052 239.049591 
L 79.523715 239.049591 
L 80.029378 239.049591 
L 80.535041 239.049591 
L 81.040704 239.049591 
L 81.546367 239.049591 
L 82.05203 239.049591 
L 82.557693 239.049591 
L 83.063356 239.049591 
L 83.569018 239.049591 
L 84.074681 239.049591 
L 84.580344 239.049591 
L 85.086007 239.049591 
L 85.59167 239.049591 
L 86.097333 239.049591 
L 86.602996 239.049591 
L 87.108659 239.049591 
L 87.614322 239.049591 
L 88.119985 239.049591 
L 88.625648 239.049591 
L 89.131311 239.049591 
L 89.636974 239.049591 
L 90.142637 239.049591 
L 90.6483 239.049591 
L 91.153963 239.049591 
L 91.659626 239.049591 
L 92.165289 239.049591 
L 92.670952 239.049591 
L 93.176615 239.049591 
L 93.682278 239.049591 
L 94.187941 239.049591 
L 94.693604 239.049591 
L 95.199267 239.049591 
L 95.70493 239.049591 
L 96.210593 239.049591 
L 96.716256 239.049591 
L 97.221919 239.049591 
L 97.727582 239.049591 
L 98.233245 239.049591 
L 98.738908 239.049591 
L 99.244571 239.049591 
L 99.750234 239.049591 
L 100.255897 239.049591 
L 100.76156 239.049591 
L 101.267223 239.049591 
L 101.772886 239.049591 
L 102.278549 239.049591 
L 102.784212 239.049591 
L 103.289875 239.049591 
L 103.795538 239.049591 
L 104.301201 239.049591 
L 104.806864 239.049591 
L 105.312527 239.049591 
L 105.818189 239.049591 
L 106.323852 239.049591 
L 106.829515 239.049591 
L 107.335178 239.049591 
L 107.840841 239.049591 
L 108.346504 239.049591 
L 108.852167 239.049591 
L 109.35783 239.049591 
L 109.863493 239.049591 
L 110.369156 239.049591 
L 110.874819 239.049591 
L 111.380482 239.049591 
L 111.886145 239.049591 
L 112.391808 239.049591 
L 112.897471 239.049591 
L 113.403134 239.049591 
L 113.908797 239.049591 
L 114.41446 239.049591 
L 114.920123 239.049591 
L 115.425786 239.049591 
L 115.931449 239.049591 
L 116.437112 239.049591 
L 116.437112 243.124962 
L 116.437112 243.124962 
L 115.931449 238.399437 
L 115.425786 236.245327 
L 114.920123 235.785234 
L 114.41446 236.347821 
L 113.908797 237.433574 
L 113.403134 238.684521 
L 112.897471 239.857614 
L 112.391808 240.801492 
L 111.886145 241.43634 
L 111.380482 241.736592 
L 110.874819 241.716227 
L 110.369156 241.416412 
L 109.863493 240.895271 
L 109.35783 240.219567 
L 108.852167 239.458076 
L 108.346504 238.676485 
L 107.840841 237.933606 
L 107.335178 237.278758 
L 106.829515 236.750133 
L 106.323852 236.374021 
L 105.818189 236.164731 
L 105.312527 236.125103 
L 104.806864 236.24747 
L 104.301201 236.51498 
L 103.795538 236.903164 
L 103.289875 237.381678 
L 102.784212 237.916121 
L 102.278549 238.469875 
L 101.772886 239.005888 
L 101.267223 239.488366 
L 100.76156 239.884315 
L 100.255897 240.164898 
L 99.750234 240.306584 
L 99.244571 240.292059 
L 98.738908 240.110889 
L 98.233245 239.759929 
L 97.727582 239.243461 
L 97.221919 238.573089 
L 96.716256 237.767373 
L 96.210593 236.851238 
L 95.70493 235.855165 
L 95.199267 234.814188 
L 94.693604 233.766727 
L 94.187941 232.753285 
L 93.682278 231.815039 
L 93.176615 230.992368 
L 92.670952 230.32334 
L 92.165289 229.842218 
L 91.659626 239.050405 
L 91.153963 239.051088 
L 90.6483 228.740352 
L 90.142637 229.513334 
L 89.636974 230.586142 
L 89.131311 231.92829 
L 88.625648 233.496544 
L 88.119985 235.235549 
L 87.614322 237.078852 
L 87.108659 238.950302 
L 86.602996 240.765828 
L 86.097333 242.43554 
L 85.59167 243.866166 
L 85.086007 244.963741 
L 84.580344 245.636537 
L 84.074681 245.798156 
L 83.569018 245.370729 
L 83.063356 244.288162 
L 82.557693 242.499333 
L 82.05203 239.971174 
L 81.546367 236.691544 
L 81.040704 232.67179 
L 80.535041 227.948911 
L 80.029378 222.587218 
L 79.523715 216.679374 
L 79.018052 210.346722 
L 78.512389 203.738782 
L 78.006726 197.031807 
L 77.501063 190.426294 
L 76.9954 184.14334 
L 76.489737 178.419735 
L 75.984074 173.501701 
L 75.478411 169.637174 
L 74.972748 167.066541 
L 74.467085 166.011769 
L 73.961422 166.663827 
L 73.455759 169.168376 
L 72.950096 173.609655 
L 72.444433 179.992555 
L 71.93877 188.222849 
L 71.433107 198.085599 
L 70.927444 209.221756 
L 70.421781 221.103006 
L 69.916118 233.004928 
L 69.410455 243.978577 
L 68.904792 252.820605 
L 68.399129 258.042083 
L 67.893466 257.836223 
L 67.387803 250.045225 
L 66.88214 232.126506 
L 66.376477 201.118631 
z
" clip-path="url(#pc948c0ca2b)" style="fill: #1f77b4; fill-opacity: 0.166667"/>
   </g>
   <g id="PolyCollection_2">
    <path d="M 66.376477 206.343607 
L 66.376477 239.049591 
L 66.921478 239.049591 
L 67.466478 239.049591 
L 68.011478 239.049591 
L 68.556478 239.049591 
L 69.101479 239.049591 
L 69.646479 239.049591 
L 70.191479 239.049591 
L 70.736479 239.049591 
L 71.28148 239.049591 
L 71.82648 239.049591 
L 72.37148 239.049591 
L 72.91648 239.049591 
L 73.461481 239.049591 
L 74.006481 239.049591 
L 74.551481 239.049591 
L 75.096481 239.049591 
L 75.641482 239.049591 
L 76.186482 239.049591 
L 76.731482 239.049591 
L 77.276482 239.049591 
L 77.821483 239.049591 
L 78.366483 239.049591 
L 78.911483 239.049591 
L 79.456483 239.049591 
L 80.001484 239.049591 
L 80.546484 239.049591 
L 81.091484 239.049591 
L 81.636485 239.049591 
L 82.181485 239.049591 
L 82.726485 239.049591 
L 83.271485 239.049591 
L 83.816486 239.049591 
L 84.361486 239.049591 
L 84.906486 239.049591 
L 85.451486 239.049591 
L 85.996487 239.049591 
L 86.541487 239.049591 
L 87.086487 239.049591 
L 87.631487 239.049591 
L 88.176488 239.049591 
L 88.721488 239.049591 
L 89.266488 239.049591 
L 89.811488 239.049591 
L 90.356489 239.049591 
L 90.901489 239.049591 
L 91.446489 239.049591 
L 91.991489 239.049591 
L 92.53649 239.049591 
L 93.08149 239.049591 
L 93.62649 239.049591 
L 94.17149 239.049591 
L 94.716491 239.049591 
L 95.261491 239.049591 
L 95.806491 239.049591 
L 96.351492 239.049591 
L 96.896492 239.049591 
L 97.441492 239.049591 
L 97.986492 239.049591 
L 98.531493 239.049591 
L 99.076493 239.049591 
L 99.621493 239.049591 
L 100.166493 239.049591 
L 100.711494 239.049591 
L 101.256494 239.049591 
L 101.801494 239.049591 
L 102.346494 239.049591 
L 102.891495 239.049591 
L 103.436495 239.049591 
L 103.981495 239.049591 
L 104.526495 239.049591 
L 105.071496 239.049591 
L 105.616496 239.049591 
L 106.161496 239.049591 
L 106.706496 239.049591 
L 107.251497 239.049591 
L 107.796497 239.049591 
L 108.341497 239.049591 
L 108.886497 239.049591 
L 109.431498 239.049591 
L 109.976498 239.049591 
L 110.521498 239.049591 
L 111.066499 239.049591 
L 111.611499 239.049591 
L 112.156499 239.049591 
L 112.701499 239.049591 
L 113.2465 239.049591 
L 113.7915 239.049591 
L 114.3365 239.049591 
L 114.8815 239.049591 
L 115.426501 239.049591 
L 115.971501 239.049591 
L 116.516501 239.049591 
L 117.061501 239.049591 
L 117.606502 239.049591 
L 118.151502 239.049591 
L 118.696502 239.049591 
L 119.241502 239.049591 
L 119.786503 239.049591 
L 120.331503 239.049591 
L 120.331503 240.356148 
L 120.331503 240.356148 
L 119.786503 239.285615 
L 119.241502 238.504026 
L 118.696502 238.045287 
L 118.151502 237.89182 
L 117.606502 237.993906 
L 117.061501 238.284731 
L 116.516501 238.691749 
L 115.971501 239.144954 
L 115.426501 239.58255 
L 114.8815 239.954508 
L 114.3365 240.224386 
L 113.7915 240.369806 
L 113.2465 240.381878 
L 112.701499 240.263866 
L 112.156499 240.029329 
L 111.611499 239.699931 
L 111.066499 239.30311 
L 110.521498 238.869724 
L 109.976498 238.431808 
L 109.431498 238.020516 
L 108.886497 237.664325 
L 108.341497 237.387541 
L 107.796497 237.209143 
L 107.251497 237.141968 
L 106.706496 237.192251 
L 106.161496 237.359493 
L 105.616496 237.636652 
L 105.071496 238.010611 
L 104.526495 238.462896 
L 103.981495 238.970606 
L 103.436495 239.5075 
L 102.891495 240.045201 
L 102.346494 240.554472 
L 101.801494 241.006512 
L 101.256494 241.374223 
L 100.711494 241.633411 
L 100.166493 241.763885 
L 99.621493 241.750397 
L 99.076493 241.583415 
L 98.531493 241.259688 
L 97.986492 240.782587 
L 97.441492 240.162203 
L 96.896492 239.4152 
L 96.351492 238.564413 
L 95.806491 237.638201 
L 95.261491 236.669569 
L 94.716491 235.695063 
L 94.17149 234.753482 
L 93.62649 239.049816 
L 93.08149 239.050635 
L 92.53649 231.485842 
L 91.991489 231.427996 
L 91.446489 231.618221 
L 90.901489 232.055978 
L 90.356489 232.730083 
L 89.811488 233.618257 
L 89.266488 234.686972 
L 88.721488 235.89162 
L 88.176488 237.177035 
L 87.631487 238.478366 
L 87.086487 239.722324 
L 86.541487 240.8288 
L 85.996487 241.712841 
L 85.451486 242.286989 
L 84.906486 242.463934 
L 84.361486 242.159475 
L 83.816486 241.295727 
L 83.271485 239.804534 
L 82.726485 237.631011 
L 82.181485 234.737147 
L 81.636485 231.105373 
L 81.091484 226.741989 
L 80.546484 221.680335 
L 80.001484 215.983565 
L 79.456483 209.746878 
L 78.911483 203.099031 
L 78.366483 196.202949 
L 77.821483 189.255232 
L 77.276482 182.484323 
L 76.731482 176.147102 
L 76.186482 170.523629 
L 75.641482 165.909755 
L 75.096481 162.607283 
L 74.551481 160.911347 
L 74.006481 161.094639 
L 73.461481 163.388115 
L 72.91648 167.957742 
L 72.37148 174.87687 
L 71.82648 184.093739 
L 71.28148 195.393638 
L 70.736479 208.355174 
L 70.191479 222.300102 
L 69.646479 236.236115 
L 69.101479 248.791972 
L 68.556478 258.144306 
L 68.011478 261.935409 
L 67.466478 257.181278 
L 66.921478 240.169129 
L 66.376477 206.343607 
z
" clip-path="url(#pc948c0ca2b)" style="fill: #ff7f0e; fill-opacity: 0.166667"/>
   </g>
   <g id="PolyCollection_3">
    <path d="M 66.376477 213.648368 
L 66.376477 239.049591 
L 67.355117 239.049591 
L 68.333756 239.049591 
L 69.312396 239.049591 
L 70.291035 239.049591 
L 71.269675 239.049591 
L 72.248314 239.049591 
L 73.226954 239.049591 
L 74.205593 239.049591 
L 75.184233 239.049591 
L 76.162872 239.049591 
L 77.141511 239.049591 
L 78.120151 239.049591 
L 79.09879 239.049591 
L 80.07743 239.049591 
L 81.056069 239.049591 
L 82.034709 239.049591 
L 83.013348 239.049591 
L 83.991988 239.049591 
L 84.970627 239.049591 
L 85.949267 239.049591 
L 86.927906 239.049591 
L 87.906546 239.049591 
L 88.885185 239.049591 
L 89.863825 239.049591 
L 90.842464 239.049591 
L 91.821104 239.049591 
L 92.799743 239.049591 
L 93.778382 239.049591 
L 94.757022 239.049591 
L 95.735661 239.049591 
L 96.714301 239.049591 
L 97.69294 239.049591 
L 98.67158 239.049591 
L 99.650219 239.049591 
L 100.628859 239.049591 
L 101.607498 239.049591 
L 102.586138 239.049591 
L 103.564777 239.049591 
L 104.543417 239.049591 
L 105.522056 239.049591 
L 106.500696 239.049591 
L 107.479335 239.049591 
L 108.457975 239.049591 
L 109.436614 239.049591 
L 110.415253 239.049591 
L 111.393893 239.049591 
L 112.372532 239.049591 
L 113.351172 239.049591 
L 114.329811 239.049591 
L 115.308451 239.049591 
L 116.28709 239.049591 
L 117.26573 239.049591 
L 118.244369 239.049591 
L 119.223009 239.049591 
L 120.201648 239.049591 
L 121.180288 239.049591 
L 122.158927 239.049591 
L 123.137567 239.049591 
L 124.116206 239.049591 
L 125.094846 239.049591 
L 126.073485 239.049591 
L 127.052124 239.049591 
L 128.030764 239.049591 
L 129.009403 239.049591 
L 129.988043 239.049591 
L 130.966682 239.049591 
L 131.945322 239.049591 
L 132.923961 239.049591 
L 133.902601 239.049591 
L 134.88124 239.049591 
L 135.85988 239.049591 
L 136.838519 239.049591 
L 137.817159 239.049591 
L 138.795798 239.049591 
L 139.774438 239.049591 
L 140.753077 239.049591 
L 141.731717 239.049591 
L 142.710356 239.049591 
L 143.688996 239.049591 
L 144.667635 239.049591 
L 145.646274 239.049591 
L 146.624914 239.049591 
L 147.603553 239.049591 
L 148.582193 239.049591 
L 149.560832 239.049591 
L 150.539472 239.049591 
L 151.518111 239.049591 
L 152.496751 239.049591 
L 153.47539 239.049591 
L 154.45403 239.049591 
L 155.432669 239.049591 
L 156.411309 239.049591 
L 157.389948 239.049591 
L 158.368588 239.049591 
L 159.347227 239.049591 
L 160.325867 239.049591 
L 161.304506 239.049591 
L 162.283145 239.049591 
L 163.261785 239.049591 
L 163.261785 244.005571 
L 163.261785 244.005571 
L 162.283145 237.88159 
L 161.304506 235.406419 
L 160.325867 235.190386 
L 159.347227 236.216868 
L 158.368588 237.768896 
L 157.389948 239.366426 
L 156.411309 240.713161 
L 155.432669 241.651858 
L 154.45403 242.127176 
L 153.47539 242.155167 
L 152.496751 241.798579 
L 151.518111 241.147241 
L 150.539472 240.302829 
L 149.560832 239.367386 
L 148.582193 238.435039 
L 147.603553 237.586392 
L 146.624914 236.885126 
L 145.646274 236.376413 
L 144.667635 236.086754 
L 143.688996 236.024929 
L 142.710356 236.183768 
L 141.731717 236.542502 
L 140.753077 237.069465 
L 139.774438 237.724981 
L 138.795798 238.464277 
L 137.817159 239.240297 
L 136.838519 240.006315 
L 135.85988 240.71827 
L 134.88124 241.336774 
L 133.902601 241.828737 
L 132.923961 242.168606 
L 131.945322 242.339193 
L 130.966682 242.332111 
L 129.988043 242.147822 
L 129.009403 241.795335 
L 128.030764 241.291571 
L 127.052124 240.660452 
L 126.073485 239.93174 
L 125.094846 239.139696 
L 124.116206 238.321582 
L 123.137567 237.516081 
L 122.158927 236.761672 
L 121.180288 236.09502 
L 120.201648 235.549418 
L 119.223009 235.153334 
L 118.244369 234.929109 
L 117.26573 234.891836 
L 116.28709 235.048454 
L 115.308451 239.050919 
L 114.329811 239.050903 
L 113.351172 236.299803 
L 112.372532 237.097057 
L 111.393893 238.00411 
L 110.415253 238.975032 
L 109.436614 239.956315 
L 108.457975 240.888231 
L 107.479335 241.706461 
L 106.500696 242.343973 
L 105.522056 242.73309 
L 104.543417 242.807725 
L 103.564777 242.505718 
L 102.586138 241.771219 
L 101.607498 240.557069 
L 100.628859 238.8271 
L 99.650219 236.558291 
L 98.67158 233.742713 
L 97.69294 230.389197 
L 96.714301 226.524642 
L 95.735661 222.194907 
L 94.757022 217.465219 
L 93.778382 212.420036 
L 92.799743 207.162305 
L 91.821104 201.81208 
L 90.842464 196.504458 
L 89.863825 191.386798 
L 88.885185 186.615227 
L 87.906546 182.35043 
L 86.927906 178.752734 
L 85.949267 175.976544 
L 84.970627 174.164184 
L 83.991988 173.439231 
L 83.013348 173.899459 
L 82.034709 175.609534 
L 81.056069 178.593637 
L 80.07743 182.828235 
L 79.09879 188.235237 
L 78.120151 194.675833 
L 77.141511 201.945357 
L 76.162872 209.769542 
L 75.184233 217.802625 
L 74.205593 225.627757 
L 73.226954 232.760298 
L 72.248314 238.654582 
L 71.269675 242.714831 
L 70.291035 244.310955 
L 69.312396 242.800063 
L 68.333756 237.554557 
L 67.355117 227.997794 
L 66.376477 213.648368 
z
" clip-path="url(#pc948c0ca2b)" style="fill: #2ca02c; fill-opacity: 0.166667"/>
   </g>
   <g id="PolyCollection_4">
    <path d="M 66.376477 121.583121 
L 66.376477 239.049591 
L 69.655816 239.049591 
L 72.935155 239.049591 
L 76.214494 239.049591 
L 79.493833 239.049591 
L 82.773171 239.049591 
L 86.05251 239.049591 
L 89.331849 239.049591 
L 92.611188 239.049591 
L 95.890527 239.049591 
L 99.169866 239.049591 
L 102.449205 239.049591 
L 105.728543 239.049591 
L 109.007882 239.049591 
L 112.287221 239.049591 
L 115.56656 239.049591 
L 118.845899 239.049591 
L 122.125238 239.049591 
L 125.404576 239.049591 
L 128.683915 239.049591 
L 131.963254 239.049591 
L 135.242593 239.049591 
L 138.521932 239.049591 
L 141.801271 239.049591 
L 145.08061 239.049591 
L 148.359948 239.049591 
L 151.639287 239.049591 
L 154.918626 239.049591 
L 158.197965 239.049591 
L 161.477304 239.049591 
L 164.756643 239.049591 
L 168.035981 239.049591 
L 171.31532 239.049591 
L 174.594659 239.049591 
L 177.873998 239.049591 
L 181.153337 239.049591 
L 184.432676 239.049591 
L 187.712014 239.049591 
L 190.991353 239.049591 
L 194.270692 239.049591 
L 197.550031 239.049591 
L 200.82937 239.049591 
L 204.108709 239.049591 
L 207.388048 239.049591 
L 210.667386 239.049591 
L 213.946725 239.049591 
L 217.226064 239.049591 
L 220.505403 239.049591 
L 223.784742 239.049591 
L 227.064081 239.049591 
L 230.343419 239.049591 
L 233.622758 239.049591 
L 236.902097 239.049591 
L 240.181436 239.049591 
L 243.460775 239.049591 
L 246.740114 239.049591 
L 250.019452 239.049591 
L 253.298791 239.049591 
L 256.57813 239.049591 
L 259.857469 239.049591 
L 263.136808 239.049591 
L 266.416147 239.049591 
L 269.695486 239.049591 
L 272.974824 239.049591 
L 276.254163 239.049591 
L 279.533502 239.049591 
L 282.812841 239.049591 
L 286.09218 239.049591 
L 289.371519 239.049591 
L 292.650857 239.049591 
L 295.930196 239.049591 
L 299.209535 239.049591 
L 302.488874 239.049591 
L 305.768213 239.049591 
L 309.047552 239.049591 
L 312.32689 239.049591 
L 315.606229 239.049591 
L 318.885568 239.049591 
L 322.164907 239.049591 
L 325.444246 239.049591 
L 328.723585 239.049591 
L 332.002924 239.049591 
L 335.282262 239.049591 
L 338.561601 239.049591 
L 341.84094 239.049591 
L 345.120279 239.049591 
L 348.399618 239.049591 
L 351.678957 239.049591 
L 354.958295 239.049591 
L 358.237634 239.049591 
L 361.516973 239.049591 
L 364.796312 239.049591 
L 368.075651 239.049591 
L 371.35499 239.049591 
L 374.634329 239.049591 
L 377.913667 239.049591 
L 381.193006 239.049591 
L 384.472345 239.049591 
L 387.751684 239.049591 
L 391.031023 239.049591 
L 391.031023 249.529111 
L 391.031023 249.529111 
L 387.751684 236.810737 
L 384.472345 231.640263 
L 381.193006 231.137299 
L 377.913667 233.20076 
L 374.634329 236.353343 
L 371.35499 239.609095 
L 368.075651 242.36157 
L 364.796312 244.290247 
L 361.516973 245.283071 
L 358.237634 245.373154 
L 354.958295 244.687836 
L 351.678957 243.408457 
L 348.399618 241.73933 
L 345.120279 239.884585 
L 341.84094 238.031613 
L 338.561601 236.340044 
L 335.282262 234.935246 
L 332.002924 233.90547 
L 328.723585 233.301869 
L 325.444246 233.140698 
L 322.164907 233.40711 
L 318.885568 234.060026 
L 315.606229 235.03765 
L 312.32689 236.263258 
L 309.047552 237.650953 
L 305.768213 239.111159 
L 302.488874 240.555633 
L 299.209535 241.901889 
L 295.930196 243.076896 
L 292.650857 244.020014 
L 289.371519 244.685132 
L 286.09218 245.041998 
L 282.812841 245.076788 
L 279.533502 244.791938 
L 276.254163 244.205322 
L 272.974824 243.348844 
L 269.695486 242.266536 
L 266.416147 241.012262 
L 263.136808 239.647126 
L 259.857469 238.23669 
L 256.57813 236.848098 
L 253.298791 235.547223 
L 250.019452 234.395911 
L 246.740114 233.449433 
L 243.460775 232.754205 
L 240.181436 232.34586 
L 236.902097 232.247733 
L 233.622758 232.469795 
L 230.343419 239.051774 
L 227.064081 239.053872 
L 223.784742 230.597711 
L 220.505403 233.346154 
L 217.226064 236.443099 
L 213.946725 239.748901 
L 210.667386 243.109864 
L 207.388048 246.364404 
L 204.108709 249.349763 
L 200.82937 251.909087 
L 197.550031 253.898622 
L 194.270692 255.194781 
L 190.991353 255.700833 
L 187.712014 255.352925 
L 184.432676 254.125182 
L 181.153337 252.033615 
L 177.873998 249.138577 
L 174.594659 245.545548 
L 171.31532 241.404019 
L 168.035981 236.904328 
L 164.756643 232.272306 
L 161.477304 227.761667 
L 158.197965 223.644135 
L 154.918626 220.197391 
L 151.639287 217.690972 
L 148.359948 216.37041 
L 145.08061 216.439963 
L 141.801271 218.044435 
L 138.521932 221.250728 
L 135.242593 226.029908 
L 131.963254 232.240742 
L 128.683915 239.615845 
L 125.404576 247.75178 
L 122.125238 256.104655 
L 118.845899 263.993028 
L 115.56656 270.610121 
L 112.287221 275.047692 
L 109.007882 276.334125 
L 105.728543 273.489657 
L 102.449205 265.601966 
L 99.169866 251.92569 
L 95.890527 232.009825 
L 92.611188 205.857325 
L 89.331849 174.121663 
L 86.05251 138.345508 
L 82.773171 101.247168 
L 79.493833 67.060915 
L 76.214494 41.9378 
L 72.935155 34.414125 
L 69.655816 55.955261 
L 66.376477 121.583121 
z
" clip-path="url(#pc948c0ca2b)" style="fill: #d62728; fill-opacity: 0.166667"/>
   </g>
   <g id="PolyCollection_5">
    <path d="M 66.376477 243.462764 
L 66.376477 239.049591 
L 66.713989 239.049591 
L 67.051501 239.049591 
L 67.389013 239.049591 
L 67.726525 239.049591 
L 68.064037 239.049591 
L 68.401549 239.049591 
L 68.739061 239.049591 
L 69.076573 239.049591 
L 69.414085 239.049591 
L 69.751597 239.049591 
L 70.089109 239.049591 
L 70.426621 239.049591 
L 70.764133 239.049591 
L 71.101645 239.049591 
L 71.439157 239.049591 
L 71.776669 239.049591 
L 72.114181 239.049591 
L 72.451693 239.049591 
L 72.789205 239.049591 
L 73.126717 239.049591 
L 73.464229 239.049591 
L 73.80174 239.049591 
L 74.139252 239.049591 
L 74.476764 239.049591 
L 74.814276 239.049591 
L 75.151788 239.049591 
L 75.4893 239.049591 
L 75.826812 239.049591 
L 76.164324 239.049591 
L 76.501836 239.049591 
L 76.839348 239.049591 
L 77.17686 239.049591 
L 77.514372 239.049591 
L 77.851884 239.049591 
L 78.189396 239.049591 
L 78.526908 239.049591 
L 78.86442 239.049591 
L 79.201932 239.049591 
L 79.539444 239.049591 
L 79.876956 239.049591 
L 80.214468 239.049591 
L 80.55198 239.049591 
L 80.889492 239.049591 
L 81.227004 239.049591 
L 81.564516 239.049591 
L 81.902028 239.049591 
L 82.23954 239.049591 
L 82.577052 239.049591 
L 82.914564 239.049591 
L 83.252076 239.049591 
L 83.589587 239.049591 
L 83.927099 239.049591 
L 84.264611 239.049591 
L 84.602123 239.049591 
L 84.939635 239.049591 
L 85.277147 239.049591 
L 85.614659 239.049591 
L 85.952171 239.049591 
L 86.289683 239.049591 
L 86.627195 239.049591 
L 86.964707 239.049591 
L 87.302219 239.049591 
L 87.639731 239.049591 
L 87.977243 239.049591 
L 88.314755 239.049591 
L 88.652267 239.049591 
L 88.989779 239.049591 
L 89.327291 239.049591 
L 89.664803 239.049591 
L 90.002315 239.049591 
L 90.339827 239.049591 
L 90.677339 239.049591 
L 91.014851 239.049591 
L 91.352363 239.049591 
L 91.689875 239.049591 
L 92.027387 239.049591 
L 92.364899 239.049591 
L 92.702411 239.049591 
L 93.039922 239.049591 
L 93.377434 239.049591 
L 93.714946 239.049591 
L 94.052458 239.049591 
L 94.38997 239.049591 
L 94.727482 239.049591 
L 95.064994 239.049591 
L 95.402506 239.049591 
L 95.740018 239.049591 
L 96.07753 239.049591 
L 96.415042 239.049591 
L 96.752554 239.049591 
L 97.090066 239.049591 
L 97.427578 239.049591 
L 97.76509 239.049591 
L 98.102602 239.049591 
L 98.440114 239.049591 
L 98.777626 239.049591 
L 99.115138 239.049591 
L 99.45265 239.049591 
L 99.790162 239.049591 
L 99.790162 249.536178 
L 99.790162 249.536178 
L 99.45265 236.164089 
L 99.115138 231.134963 
L 98.777626 231.109686 
L 98.440114 233.693089 
L 98.102602 237.237894 
L 97.76509 240.678835 
L 97.427578 243.393565 
L 97.090066 245.08722 
L 96.752554 245.697782 
L 96.415042 245.319607 
L 96.07753 244.142713 
L 95.740018 242.405634 
L 95.402506 240.359866 
L 95.064994 238.244088 
L 94.727482 236.26656 
L 94.38997 234.594248 
L 94.052458 233.34737 
L 93.714946 232.598252 
L 93.377434 232.373467 
L 93.039922 232.658397 
L 92.702411 233.403459 
L 92.364899 234.531368 
L 92.027387 235.944866 
L 91.689875 237.534503 
L 91.352363 239.186084 
L 91.014851 240.787515 
L 90.677339 242.234819 
L 90.339827 243.437176 
L 90.002315 244.320903 
L 89.664803 244.832303 
L 89.327291 244.939408 
L 88.989779 244.632618 
L 88.652267 243.924336 
L 88.314755 242.847658 
L 87.977243 241.45425 
L 87.639731 239.811523 
L 87.302219 237.999267 
L 86.964707 236.105858 
L 86.627195 234.224218 
L 86.289683 232.447657 
L 85.952171 230.865746 
L 85.614659 229.560365 
L 85.277147 228.602045 
L 84.939635 228.046729 
L 84.602123 227.933052 
L 84.264611 228.280225 
L 83.927099 229.086594 
L 83.589587 230.328932 
L 83.252076 239.051881 
L 82.914564 239.051224 
L 82.577052 236.0312 
L 82.23954 238.10021 
L 81.902028 240.20629 
L 81.564516 242.235604 
L 81.227004 244.067542 
L 80.889492 245.578851 
L 80.55198 246.648107 
L 80.214468 247.160396 
L 79.876956 247.012078 
L 79.539444 246.11549 
L 79.201932 244.403445 
L 78.86442 241.833357 
L 78.526908 238.390857 
L 78.189396 234.092728 
L 77.851884 228.98901 
L 77.514372 223.164149 
L 77.17686 216.737032 
L 76.839348 209.85983 
L 76.501836 202.715523 
L 76.164324 195.514071 
L 75.826812 188.487183 
L 75.4893 181.881691 
L 75.151788 175.951579 
L 74.814276 170.94876 
L 74.476764 167.112757 
L 74.139252 164.659499 
L 73.80174 163.769513 
L 73.464229 164.575873 
L 73.126717 167.152347 
L 72.789205 171.502278 
L 72.451693 177.548825 
L 72.114181 185.127314 
L 71.776669 193.98054 
L 71.439157 203.758019 
L 71.101645 214.020294 
L 70.764133 224.249556 
L 70.426621 233.867992 
L 70.089109 242.265438 
L 69.751597 248.838083 
L 69.414085 253.040161 
L 69.076573 254.450751 
L 68.739061 252.858034 
L 68.401549 248.363539 
L 68.064037 241.509179 
L 67.726525 233.430083 
L 67.389013 226.036508 
L 67.051501 222.228372 
L 66.713989 226.146223 
L 66.376477 243.462764 
z
" clip-path="url(#pc948c0ca2b)" style="fill: #9467bd; fill-opacity: 0.166667"/>
   </g>
   <g id="PolyCollection_6">
    <path d="M 66.376477 243.020283 
L 66.376477 239.049591 
L 66.741128 239.049591 
L 67.105779 239.049591 
L 67.47043 239.049591 
L 67.835081 239.049591 
L 68.199732 239.049591 
L 68.564383 239.049591 
L 68.929034 239.049591 
L 69.293684 239.049591 
L 69.658335 239.049591 
L 70.022986 239.049591 
L 70.387637 239.049591 
L 70.752288 239.049591 
L 71.116939 239.049591 
L 71.48159 239.049591 
L 71.846241 239.049591 
L 72.210892 239.049591 
L 72.575543 239.049591 
L 72.940194 239.049591 
L 73.304844 239.049591 
L 73.669495 239.049591 
L 74.034146 239.049591 
L 74.398797 239.049591 
L 74.763448 239.049591 
L 75.128099 239.049591 
L 75.49275 239.049591 
L 75.857401 239.049591 
L 76.222052 239.049591 
L 76.586703 239.049591 
L 76.951353 239.049591 
L 77.316004 239.049591 
L 77.680655 239.049591 
L 78.045306 239.049591 
L 78.409957 239.049591 
L 78.774608 239.049591 
L 79.139259 239.049591 
L 79.50391 239.049591 
L 79.868561 239.049591 
L 80.233212 239.049591 
L 80.597862 239.049591 
L 80.962513 239.049591 
L 81.327164 239.049591 
L 81.691815 239.049591 
L 82.056466 239.049591 
L 82.421117 239.049591 
L 82.785768 239.049591 
L 83.150419 239.049591 
L 83.51507 239.049591 
L 83.879721 239.049591 
L 84.244372 239.049591 
L 84.609022 239.049591 
L 84.973673 239.049591 
L 85.338324 239.049591 
L 85.702975 239.049591 
L 86.067626 239.049591 
L 86.432277 239.049591 
L 86.796928 239.049591 
L 87.161579 239.049591 
L 87.52623 239.049591 
L 87.890881 239.049591 
L 88.255531 239.049591 
L 88.620182 239.049591 
L 88.984833 239.049591 
L 89.349484 239.049591 
L 89.714135 239.049591 
L 90.078786 239.049591 
L 90.443437 239.049591 
L 90.808088 239.049591 
L 91.172739 239.049591 
L 91.53739 239.049591 
L 91.90204 239.049591 
L 92.266691 239.049591 
L 92.631342 239.049591 
L 92.995993 239.049591 
L 93.360644 239.049591 
L 93.725295 239.049591 
L 94.089946 239.049591 
L 94.454597 239.049591 
L 94.819248 239.049591 
L 95.183899 239.049591 
L 95.54855 239.049591 
L 95.9132 239.049591 
L 96.277851 239.049591 
L 96.642502 239.049591 
L 97.007153 239.049591 
L 97.371804 239.049591 
L 97.736455 239.049591 
L 98.101106 239.049591 
L 98.465757 239.049591 
L 98.830408 239.049591 
L 99.195059 239.049591 
L 99.559709 239.049591 
L 99.92436 239.049591 
L 100.289011 239.049591 
L 100.653662 239.049591 
L 101.018313 239.049591 
L 101.382964 239.049591 
L 101.747615 239.049591 
L 102.112266 239.049591 
L 102.476917 239.049591 
L 102.476917 244.50599 
L 102.476917 244.50599 
L 102.112266 237.317924 
L 101.747615 234.746941 
L 101.382964 234.88716 
L 101.018313 236.383606 
L 100.653662 238.315582 
L 100.289011 240.09832 
L 99.92436 241.400824 
L 99.559709 242.077983 
L 99.195059 242.115191 
L 98.830408 241.583853 
L 98.465757 240.606316 
L 98.101106 239.328868 
L 97.736455 237.901606 
L 97.371804 236.464077 
L 97.007153 235.135697 
L 96.642502 234.010101 
L 96.277851 233.152609 
L 95.9132 232.600154 
L 95.54855 232.36306 
L 95.183899 232.428139 
L 94.819248 232.762689 
L 94.454597 233.318982 
L 94.089946 234.038957 
L 93.725295 234.858833 
L 93.360644 235.713457 
L 92.995993 236.540218 
L 92.631342 237.282408 
L 92.266691 237.891961 
L 91.90204 238.331515 
L 91.53739 238.575791 
L 91.172739 238.612286 
L 90.808088 238.441326 
L 90.443437 238.075517 
L 90.078786 237.538662 
L 89.714135 236.864225 
L 89.349484 236.09341 
L 88.984833 235.272967 
L 88.620182 234.452801 
L 88.255531 233.683479 
L 87.890881 233.013737 
L 87.52623 232.48807 
L 87.161579 232.144476 
L 86.796928 232.012455 
L 86.432277 232.111308 
L 86.067626 232.448806 
L 85.702975 233.020272 
L 85.338324 233.808111 
L 84.973673 234.781817 
L 84.609022 239.049971 
L 84.244372 239.049344 
L 83.879721 238.445112 
L 83.51507 239.419314 
L 83.150419 240.26699 
L 82.785768 240.915832 
L 82.421117 241.293024 
L 82.056466 241.327953 
L 81.691815 240.955062 
L 81.327164 240.116727 
L 80.962513 238.766112 
L 80.597862 236.869881 
L 80.233212 234.410685 
L 79.868561 231.389339 
L 79.50391 227.826566 
L 79.139259 223.764248 
L 78.774608 219.266077 
L 78.409957 214.417518 
L 78.045306 209.325046 
L 77.680655 204.114558 
L 77.316004 198.928945 
L 76.951353 193.9248 
L 76.586703 189.268235 
L 76.222052 185.129866 
L 75.857401 181.678987 
L 75.49275 179.077042 
L 75.128099 177.470499 
L 74.763448 176.983307 
L 74.398797 177.709128 
L 74.034146 179.703614 
L 73.669495 182.97704 
L 73.304844 187.487657 
L 72.940194 193.136215 
L 72.575543 199.762156 
L 72.210892 207.142049 
L 71.846241 214.990945 
L 71.48159 222.967391 
L 71.116939 230.682936 
L 70.752288 237.717079 
L 70.387637 243.63869 
L 70.022986 248.035064 
L 69.658335 250.549868 
L 69.293684 250.93138 
L 68.929034 249.092546 
L 68.564383 245.184502 
L 68.199732 239.685386 
L 67.835081 233.506383 
L 67.47043 228.117128 
L 67.105779 225.692753 
L 66.741128 229.285032 
L 66.376477 243.020283 
z
" clip-path="url(#pc948c0ca2b)" style="fill: #8c564b; fill-opacity: 0.166667"/>
   </g>
   <g id="matplotlib.axis_1">
    <g id="xtick_1">
     <g id="line2d_1">
      <defs>
       <path id="m101b13ba3b" d="M 0 0 
L 0 3.5 
" style="stroke: #000000; stroke-width: 0.8"/>
      </defs>
      <g>
       <use xlink:href="#m101b13ba3b" x="66.376477" y="288.430125" style="stroke: #000000; stroke-width: 0.8"/>
      </g>
     </g>
     <g id="text_1">
      <!-- 0.0000 -->
      <g transform="translate(48.881165 303.028562) scale(0.1 -0.1)">
       <defs>
        <path id="DejaVuSans-30" d="M 2034 4250 
Q 1547 4250 1301 3770 
Q 1056 3291 1056 2328 
Q 1056 1369 1301 889 
Q 1547 409 2034 409 
Q 2525 409 2770 889 
Q 3016 1369 3016 2328 
Q 3016 3291 2770 3770 
Q 2525 4250 2034 4250 
z
M 2034 4750 
Q 2819 4750 3233 4129 
Q 3647 3509 3647 2328 
Q 3647 1150 3233 529 
Q 2819 -91 2034 -91 
Q 1250 -91 836 529 
Q 422 1150 422 2328 
Q 422 3509 836 4129 
Q 1250 4750 2034 4750 
z
" transform="scale(0.015625)"/>
        <path id="DejaVuSans-2e" d="M 684 794 
L 1344 794 
L 1344 0 
L 684 0 
L 684 794 
z
" transform="scale(0.015625)"/>
       </defs>
       <use xlink:href="#DejaVuSans-30"/>
       <use xlink:href="#DejaVuSans-2e" x="63.623047"/>
       <use xlink:href="#DejaVuSans-30" x="95.410156"/>
       <use xlink:href="#DejaVuSans-30" x="159.033203"/>
       <use xlink:href="#DejaVuSans-30" x="222.65625"/>
       <use xlink:href="#DejaVuSans-30" x="286.279297"/>
      </g>
     </g>
    </g>
    <g id="xtick_2">
     <g id="line2d_2">
      <g>
       <use xlink:href="#m101b13ba3b" x="111.564771" y="288.430125" style="stroke: #000000; stroke-width: 0.8"/>
      </g>
     </g>
     <g id="text_2">
      <!-- 0.0025 -->
      <g transform="translate(94.069458 303.028562) scale(0.1 -0.1)">
       <defs>
        <path id="DejaVuSans-32" d="M 1228 531 
L 3431 531 
L 3431 0 
L 469 0 
L 469 531 
Q 828 903 1448 1529 
Q 2069 2156 2228 2338 
Q 2531 2678 2651 2914 
Q 2772 3150 2772 3378 
Q 2772 3750 2511 3984 
Q 2250 4219 1831 4219 
Q 1534 4219 1204 4116 
Q 875 4013 500 3803 
L 500 4441 
Q 881 4594 1212 4672 
Q 1544 4750 1819 4750 
Q 2544 4750 2975 4387 
Q 3406 4025 3406 3419 
Q 3406 3131 3298 2873 
Q 3191 2616 2906 2266 
Q 2828 2175 2409 1742 
Q 1991 1309 1228 531 
z
" transform="scale(0.015625)"/>
        <path id="DejaVuSans-35" d="M 691 4666 
L 3169 4666 
L 3169 4134 
L 1269 4134 
L 1269 2991 
Q 1406 3038 1543 3061 
Q 1681 3084 1819 3084 
Q 2600 3084 3056 2656 
Q 3513 2228 3513 1497 
Q 3513 744 3044 326 
Q 2575 -91 1722 -91 
Q 1428 -91 1123 -41 
Q 819 9 494 109 
L 494 744 
Q 775 591 1075 516 
Q 1375 441 1709 441 
Q 2250 441 2565 725 
Q 2881 1009 2881 1497 
Q 2881 1984 2565 2268 
Q 2250 2553 1709 2553 
Q 1456 2553 1204 2497 
Q 953 2441 691 2322 
L 691 4666 
z
" transform="scale(0.015625)"/>
       </defs>
       <use xlink:href="#DejaVuSans-30"/>
       <use xlink:href="#DejaVuSans-2e" x="63.623047"/>
       <use xlink:href="#DejaVuSans-30" x="95.410156"/>
       <use xlink:href="#DejaVuSans-30" x="159.033203"/>
       <use xlink:href="#DejaVuSans-32" x="222.65625"/>
       <use xlink:href="#DejaVuSans-35" x="286.279297"/>
      </g>
     </g>
    </g>
    <g id="xtick_3">
     <g id="line2d_3">
      <g>
       <use xlink:href="#m101b13ba3b" x="156.753064" y="288.430125" style="stroke: #000000; stroke-width: 0.8"/>
      </g>
     </g>
     <g id="text_3">
      <!-- 0.0050 -->
      <g transform="translate(139.257751 303.028562) scale(0.1 -0.1)">
       <use xlink:href="#DejaVuSans-30"/>
       <use xlink:href="#DejaVuSans-2e" x="63.623047"/>
       <use xlink:href="#DejaVuSans-30" x="95.410156"/>
       <use xlink:href="#DejaVuSans-30" x="159.033203"/>
       <use xlink:href="#DejaVuSans-35" x="222.65625"/>
       <use xlink:href="#DejaVuSans-30" x="286.279297"/>
      </g>
     </g>
    </g>
    <g id="xtick_4">
     <g id="line2d_4">
      <g>
       <use xlink:href="#m101b13ba3b" x="201.941357" y="288.430125" style="stroke: #000000; stroke-width: 0.8"/>
      </g>
     </g>
     <g id="text_4">
      <!-- 0.0075 -->
      <g transform="translate(184.446045 303.028562) scale(0.1 -0.1)">
       <defs>
        <path id="DejaVuSans-37" d="M 525 4666 
L 3525 4666 
L 3525 4397 
L 1831 0 
L 1172 0 
L 2766 4134 
L 525 4134 
L 525 4666 
z
" transform="scale(0.015625)"/>
       </defs>
       <use xlink:href="#DejaVuSans-30"/>
       <use xlink:href="#DejaVuSans-2e" x="63.623047"/>
       <use xlink:href="#DejaVuSans-30" x="95.410156"/>
       <use xlink:href="#DejaVuSans-30" x="159.033203"/>
       <use xlink:href="#DejaVuSans-37" x="222.65625"/>
       <use xlink:href="#DejaVuSans-35" x="286.279297"/>
      </g>
     </g>
    </g>
    <g id="xtick_5">
     <g id="line2d_5">
      <g>
       <use xlink:href="#m101b13ba3b" x="247.12965" y="288.430125" style="stroke: #000000; stroke-width: 0.8"/>
      </g>
     </g>
     <g id="text_5">
      <!-- 0.0100 -->
      <g transform="translate(229.634338 303.028562) scale(0.1 -0.1)">
       <defs>
        <path id="DejaVuSans-31" d="M 794 531 
L 1825 531 
L 1825 4091 
L 703 3866 
L 703 4441 
L 1819 4666 
L 2450 4666 
L 2450 531 
L 3481 531 
L 3481 0 
L 794 0 
L 794 531 
z
" transform="scale(0.015625)"/>
       </defs>
       <use xlink:href="#DejaVuSans-30"/>
       <use xlink:href="#DejaVuSans-2e" x="63.623047"/>
       <use xlink:href="#DejaVuSans-30" x="95.410156"/>
       <use xlink:href="#DejaVuSans-31" x="159.033203"/>
       <use xlink:href="#DejaVuSans-30" x="222.65625"/>
       <use xlink:href="#DejaVuSans-30" x="286.279297"/>
      </g>
     </g>
    </g>
    <g id="xtick_6">
     <g id="line2d_6">
      <g>
       <use xlink:href="#m101b13ba3b" x="292.317943" y="288.430125" style="stroke: #000000; stroke-width: 0.8"/>
      </g>
     </g>
     <g id="text_6">
      <!-- 0.0125 -->
      <g transform="translate(274.822631 303.028562) scale(0.1 -0.1)">
       <use xlink:href="#DejaVuSans-30"/>
       <use xlink:href="#DejaVuSans-2e" x="63.623047"/>
       <use xlink:href="#DejaVuSans-30" x="95.410156"/>
       <use xlink:href="#DejaVuSans-31" x="159.033203"/>
       <use xlink:href="#DejaVuSans-32" x="222.65625"/>
       <use xlink:href="#DejaVuSans-35" x="286.279297"/>
      </g>
     </g>
    </g>
    <g id="xtick_7">
     <g id="line2d_7">
      <g>
       <use xlink:href="#m101b13ba3b" x="337.506237" y="288.430125" style="stroke: #000000; stroke-width: 0.8"/>
      </g>
     </g>
     <g id="text_7">
      <!-- 0.0150 -->
      <g transform="translate(320.010924 303.028562) scale(0.1 -0.1)">
       <use xlink:href="#DejaVuSans-30"/>
       <use xlink:href="#DejaVuSans-2e" x="63.623047"/>
       <use xlink:href="#DejaVuSans-30" x="95.410156"/>
       <use xlink:href="#DejaVuSans-31" x="159.033203"/>
       <use xlink:href="#DejaVuSans-35" x="222.65625"/>
       <use xlink:href="#DejaVuSans-30" x="286.279297"/>
      </g>
     </g>
    </g>
    <g id="xtick_8">
     <g id="line2d_8">
      <g>
       <use xlink:href="#m101b13ba3b" x="382.69453" y="288.430125" style="stroke: #000000; stroke-width: 0.8"/>
      </g>
     </g>
     <g id="text_8">
      <!-- 0.0175 -->
      <g transform="translate(365.199217 303.028562) scale(0.1 -0.1)">
       <use xlink:href="#DejaVuSans-30"/>
       <use xlink:href="#DejaVuSans-2e" x="63.623047"/>
       <use xlink:href="#DejaVuSans-30" x="95.410156"/>
       <use xlink:href="#DejaVuSans-31" x="159.033203"/>
       <use xlink:href="#DejaVuSans-37" x="222.65625"/>
       <use xlink:href="#DejaVuSans-35" x="286.279297"/>
      </g>
     </g>
    </g>
    <g id="text_9">
     <!-- Pixel values -->
     <g transform="translate(199.292031 316.706687) scale(0.1 -0.1)">
      <defs>
       <path id="DejaVuSans-50" d="M 1259 4147 
L 1259 2394 
L 2053 2394 
Q 2494 2394 2734 2622 
Q 2975 2850 2975 3272 
Q 2975 3691 2734 3919 
Q 2494 4147 2053 4147 
L 1259 4147 
z
M 628 4666 
L 2053 4666 
Q 2838 4666 3239 4311 
Q 3641 3956 3641 3272 
Q 3641 2581 3239 2228 
Q 2838 1875 2053 1875 
L 1259 1875 
L 1259 0 
L 628 0 
L 628 4666 
z
" transform="scale(0.015625)"/>
       <path id="DejaVuSans-69" d="M 603 3500 
L 1178 3500 
L 1178 0 
L 603 0 
L 603 3500 
z
M 603 4863 
L 1178 4863 
L 1178 4134 
L 603 4134 
L 603 4863 
z
" transform="scale(0.015625)"/>
       <path id="DejaVuSans-78" d="M 3513 3500 
L 2247 1797 
L 3578 0 
L 2900 0 
L 1881 1375 
L 863 0 
L 184 0 
L 1544 1831 
L 300 3500 
L 978 3500 
L 1906 2253 
L 2834 3500 
L 3513 3500 
z
" transform="scale(0.015625)"/>
       <path id="DejaVuSans-65" d="M 3597 1894 
L 3597 1613 
L 953 1613 
Q 991 1019 1311 708 
Q 1631 397 2203 397 
Q 2534 397 2845 478 
Q 3156 559 3463 722 
L 3463 178 
Q 3153 47 2828 -22 
Q 2503 -91 2169 -91 
Q 1331 -91 842 396 
Q 353 884 353 1716 
Q 353 2575 817 3079 
Q 1281 3584 2069 3584 
Q 2775 3584 3186 3129 
Q 3597 2675 3597 1894 
z
M 3022 2063 
Q 3016 2534 2758 2815 
Q 2500 3097 2075 3097 
Q 1594 3097 1305 2825 
Q 1016 2553 972 2059 
L 3022 2063 
z
" transform="scale(0.015625)"/>
       <path id="DejaVuSans-6c" d="M 603 4863 
L 1178 4863 
L 1178 0 
L 603 0 
L 603 4863 
z
" transform="scale(0.015625)"/>
       <path id="DejaVuSans-20" transform="scale(0.015625)"/>
       <path id="DejaVuSans-76" d="M 191 3500 
L 800 3500 
L 1894 563 
L 2988 3500 
L 3597 3500 
L 2284 0 
L 1503 0 
L 191 3500 
z
" transform="scale(0.015625)"/>
       <path id="DejaVuSans-61" d="M 2194 1759 
Q 1497 1759 1228 1600 
Q 959 1441 959 1056 
Q 959 750 1161 570 
Q 1363 391 1709 391 
Q 2188 391 2477 730 
Q 2766 1069 2766 1631 
L 2766 1759 
L 2194 1759 
z
M 3341 1997 
L 3341 0 
L 2766 0 
L 2766 531 
Q 2569 213 2275 61 
Q 1981 -91 1556 -91 
Q 1019 -91 701 211 
Q 384 513 384 1019 
Q 384 1609 779 1909 
Q 1175 2209 1959 2209 
L 2766 2209 
L 2766 2266 
Q 2766 2663 2505 2880 
Q 2244 3097 1772 3097 
Q 1472 3097 1187 3025 
Q 903 2953 641 2809 
L 641 3341 
Q 956 3463 1253 3523 
Q 1550 3584 1831 3584 
Q 2591 3584 2966 3190 
Q 3341 2797 3341 1997 
z
" transform="scale(0.015625)"/>
       <path id="DejaVuSans-75" d="M 544 1381 
L 544 3500 
L 1119 3500 
L 1119 1403 
Q 1119 906 1312 657 
Q 1506 409 1894 409 
Q 2359 409 2629 706 
Q 2900 1003 2900 1516 
L 2900 3500 
L 3475 3500 
L 3475 0 
L 2900 0 
L 2900 538 
Q 2691 219 2414 64 
Q 2138 -91 1772 -91 
Q 1169 -91 856 284 
Q 544 659 544 1381 
z
M 1991 3584 
L 1991 3584 
z
" transform="scale(0.015625)"/>
       <path id="DejaVuSans-73" d="M 2834 3397 
L 2834 2853 
Q 2591 2978 2328 3040 
Q 2066 3103 1784 3103 
Q 1356 3103 1142 2972 
Q 928 2841 928 2578 
Q 928 2378 1081 2264 
Q 1234 2150 1697 2047 
L 1894 2003 
Q 2506 1872 2764 1633 
Q 3022 1394 3022 966 
Q 3022 478 2636 193 
Q 2250 -91 1575 -91 
Q 1294 -91 989 -36 
Q 684 19 347 128 
L 347 722 
Q 666 556 975 473 
Q 1284 391 1588 391 
Q 1994 391 2212 530 
Q 2431 669 2431 922 
Q 2431 1156 2273 1281 
Q 2116 1406 1581 1522 
L 1381 1569 
Q 847 1681 609 1914 
Q 372 2147 372 2553 
Q 372 3047 722 3315 
Q 1072 3584 1716 3584 
Q 2034 3584 2315 3537 
Q 2597 3491 2834 3397 
z
" transform="scale(0.015625)"/>
      </defs>
      <use xlink:href="#DejaVuSans-50"/>
      <use xlink:href="#DejaVuSans-69" x="58.052734"/>
      <use xlink:href="#DejaVuSans-78" x="85.835938"/>
      <use xlink:href="#DejaVuSans-65" x="141.890625"/>
      <use xlink:href="#DejaVuSans-6c" x="203.414062"/>
      <use xlink:href="#DejaVuSans-20" x="231.197266"/>
      <use xlink:href="#DejaVuSans-76" x="262.984375"/>
      <use xlink:href="#DejaVuSans-61" x="322.164062"/>
      <use xlink:href="#DejaVuSans-6c" x="383.443359"/>
      <use xlink:href="#DejaVuSans-75" x="411.226562"/>
      <use xlink:href="#DejaVuSans-65" x="474.605469"/>
      <use xlink:href="#DejaVuSans-73" x="536.128906"/>
     </g>
    </g>
   </g>
   <g id="matplotlib.axis_2">
    <g id="ytick_1">
     <g id="line2d_9">
      <defs>
       <path id="m8ada78eef7" d="M 0 0 
L -3.5 0 
" style="stroke: #000000; stroke-width: 0.8"/>
      </defs>
      <g>
       <use xlink:href="#m8ada78eef7" x="50.14375" y="239.049591" style="stroke: #000000; stroke-width: 0.8"/>
      </g>
     </g>
     <g id="text_10">
      <!-- 0.00 -->
      <g transform="translate(20.878125 242.84881) scale(0.1 -0.1)">
       <use xlink:href="#DejaVuSans-30"/>
       <use xlink:href="#DejaVuSans-2e" x="63.623047"/>
       <use xlink:href="#DejaVuSans-30" x="95.410156"/>
       <use xlink:href="#DejaVuSans-30" x="159.033203"/>
      </g>
     </g>
    </g>
    <g id="ytick_2">
     <g id="line2d_10">
      <g>
       <use xlink:href="#m8ada78eef7" x="50.14375" y="184.566696" style="stroke: #000000; stroke-width: 0.8"/>
      </g>
     </g>
     <g id="text_11">
      <!-- 0.05 -->
      <g transform="translate(20.878125 188.365915) scale(0.1 -0.1)">
       <use xlink:href="#DejaVuSans-30"/>
       <use xlink:href="#DejaVuSans-2e" x="63.623047"/>
       <use xlink:href="#DejaVuSans-30" x="95.410156"/>
       <use xlink:href="#DejaVuSans-35" x="159.033203"/>
      </g>
     </g>
    </g>
    <g id="ytick_3">
     <g id="line2d_11">
      <g>
       <use xlink:href="#m8ada78eef7" x="50.14375" y="130.083801" style="stroke: #000000; stroke-width: 0.8"/>
      </g>
     </g>
     <g id="text_12">
      <!-- 0.10 -->
      <g transform="translate(20.878125 133.88302) scale(0.1 -0.1)">
       <use xlink:href="#DejaVuSans-30"/>
       <use xlink:href="#DejaVuSans-2e" x="63.623047"/>
       <use xlink:href="#DejaVuSans-31" x="95.410156"/>
       <use xlink:href="#DejaVuSans-30" x="159.033203"/>
      </g>
     </g>
    </g>
    <g id="ytick_4">
     <g id="line2d_12">
      <g>
       <use xlink:href="#m8ada78eef7" x="50.14375" y="75.600906" style="stroke: #000000; stroke-width: 0.8"/>
      </g>
     </g>
     <g id="text_13">
      <!-- 0.15 -->
      <g transform="translate(20.878125 79.400124) scale(0.1 -0.1)">
       <use xlink:href="#DejaVuSans-30"/>
       <use xlink:href="#DejaVuSans-2e" x="63.623047"/>
       <use xlink:href="#DejaVuSans-31" x="95.410156"/>
       <use xlink:href="#DejaVuSans-35" x="159.033203"/>
      </g>
     </g>
    </g>
    <g id="text_14">
     <!-- Frequency -->
     <g transform="translate(14.798438 181.203812) rotate(-90) scale(0.1 -0.1)">
      <defs>
       <path id="DejaVuSans-46" d="M 628 4666 
L 3309 4666 
L 3309 4134 
L 1259 4134 
L 1259 2759 
L 3109 2759 
L 3109 2228 
L 1259 2228 
L 1259 0 
L 628 0 
L 628 4666 
z
" transform="scale(0.015625)"/>
       <path id="DejaVuSans-72" d="M 2631 2963 
Q 2534 3019 2420 3045 
Q 2306 3072 2169 3072 
Q 1681 3072 1420 2755 
Q 1159 2438 1159 1844 
L 1159 0 
L 581 0 
L 581 3500 
L 1159 3500 
L 1159 2956 
Q 1341 3275 1631 3429 
Q 1922 3584 2338 3584 
Q 2397 3584 2469 3576 
Q 2541 3569 2628 3553 
L 2631 2963 
z
" transform="scale(0.015625)"/>
       <path id="DejaVuSans-71" d="M 947 1747 
Q 947 1113 1208 752 
Q 1469 391 1925 391 
Q 2381 391 2643 752 
Q 2906 1113 2906 1747 
Q 2906 2381 2643 2742 
Q 2381 3103 1925 3103 
Q 1469 3103 1208 2742 
Q 947 2381 947 1747 
z
M 2906 525 
Q 2725 213 2448 61 
Q 2172 -91 1784 -91 
Q 1150 -91 751 415 
Q 353 922 353 1747 
Q 353 2572 751 3078 
Q 1150 3584 1784 3584 
Q 2172 3584 2448 3432 
Q 2725 3281 2906 2969 
L 2906 3500 
L 3481 3500 
L 3481 -1331 
L 2906 -1331 
L 2906 525 
z
" transform="scale(0.015625)"/>
       <path id="DejaVuSans-6e" d="M 3513 2113 
L 3513 0 
L 2938 0 
L 2938 2094 
Q 2938 2591 2744 2837 
Q 2550 3084 2163 3084 
Q 1697 3084 1428 2787 
Q 1159 2491 1159 1978 
L 1159 0 
L 581 0 
L 581 3500 
L 1159 3500 
L 1159 2956 
Q 1366 3272 1645 3428 
Q 1925 3584 2291 3584 
Q 2894 3584 3203 3211 
Q 3513 2838 3513 2113 
z
" transform="scale(0.015625)"/>
       <path id="DejaVuSans-63" d="M 3122 3366 
L 3122 2828 
Q 2878 2963 2633 3030 
Q 2388 3097 2138 3097 
Q 1578 3097 1268 2742 
Q 959 2388 959 1747 
Q 959 1106 1268 751 
Q 1578 397 2138 397 
Q 2388 397 2633 464 
Q 2878 531 3122 666 
L 3122 134 
Q 2881 22 2623 -34 
Q 2366 -91 2075 -91 
Q 1284 -91 818 406 
Q 353 903 353 1747 
Q 353 2603 823 3093 
Q 1294 3584 2113 3584 
Q 2378 3584 2631 3529 
Q 2884 3475 3122 3366 
z
" transform="scale(0.015625)"/>
       <path id="DejaVuSans-79" d="M 2059 -325 
Q 1816 -950 1584 -1140 
Q 1353 -1331 966 -1331 
L 506 -1331 
L 506 -850 
L 844 -850 
Q 1081 -850 1212 -737 
Q 1344 -625 1503 -206 
L 1606 56 
L 191 3500 
L 800 3500 
L 1894 763 
L 2988 3500 
L 3597 3500 
L 2059 -325 
z
" transform="scale(0.015625)"/>
      </defs>
      <use xlink:href="#DejaVuSans-46"/>
      <use xlink:href="#DejaVuSans-72" x="50.269531"/>
      <use xlink:href="#DejaVuSans-65" x="89.132812"/>
      <use xlink:href="#DejaVuSans-71" x="150.65625"/>
      <use xlink:href="#DejaVuSans-75" x="214.132812"/>
      <use xlink:href="#DejaVuSans-65" x="277.511719"/>
      <use xlink:href="#DejaVuSans-6e" x="339.035156"/>
      <use xlink:href="#DejaVuSans-63" x="402.414062"/>
      <use xlink:href="#DejaVuSans-79" x="457.394531"/>
     </g>
    </g>
   </g>
   <g id="line2d_13">
    <path d="M 66.376477 201.118631 
L 66.88214 232.126506 
L 67.387803 250.045225 
L 67.893466 257.836223 
L 68.399129 258.042083 
L 68.904792 252.820605 
L 69.410455 243.978577 
L 69.916118 233.004928 
L 70.421781 221.103006 
L 70.927444 209.221756 
L 71.433107 198.085599 
L 71.93877 188.222849 
L 72.444433 179.992555 
L 72.950096 173.609655 
L 73.455759 169.168376 
L 73.961422 166.663827 
L 74.467085 166.011769 
L 74.972748 167.066541 
L 75.478411 169.637174 
L 75.984074 173.501701 
L 76.489737 178.419735 
L 76.9954 184.14334 
L 77.501063 190.426294 
L 78.006726 197.031807 
L 78.512389 203.738782 
L 79.018052 210.346722 
L 79.523715 216.679374 
L 80.029378 222.587218 
L 80.535041 227.948911 
L 81.040704 232.67179 
L 81.546367 236.691544 
L 82.05203 239.971174 
L 82.557693 242.499333 
L 83.063356 244.288162 
L 83.569018 245.370729 
L 84.074681 245.798156 
L 84.580344 245.636537 
L 85.086007 244.963741 
L 85.59167 243.866166 
L 86.097333 242.43554 
L 86.602996 240.765828 
L 87.108659 238.950302 
L 87.614322 237.078852 
L 88.119985 235.235549 
L 88.625648 233.496544 
L 89.131311 231.92829 
L 89.636974 230.586142 
L 90.142637 229.513334 
L 90.6483 228.740352 
L 91.153963 239.051088 
L 91.659626 239.050405 
L 92.165289 229.842218 
L 92.670952 230.32334 
L 93.176615 230.992368 
L 93.682278 231.815039 
L 94.187941 232.753285 
L 94.693604 233.766727 
L 95.199267 234.814188 
L 95.70493 235.855165 
L 96.210593 236.851238 
L 96.716256 237.767373 
L 97.221919 238.573089 
L 97.727582 239.243461 
L 98.233245 239.759929 
L 98.738908 240.110889 
L 99.244571 240.292059 
L 99.750234 240.306584 
L 100.255897 240.164898 
L 100.76156 239.884315 
L 101.267223 239.488366 
L 101.772886 239.005888 
L 102.278549 238.469875 
L 102.784212 237.916121 
L 103.289875 237.381678 
L 103.795538 236.903164 
L 104.301201 236.51498 
L 104.806864 236.24747 
L 105.312527 236.125103 
L 105.818189 236.164731 
L 106.323852 236.374021 
L 106.829515 236.750133 
L 107.335178 237.278758 
L 107.840841 237.933606 
L 108.346504 238.676485 
L 108.852167 239.458076 
L 109.35783 240.219567 
L 109.863493 240.895271 
L 110.369156 241.416412 
L 110.874819 241.716227 
L 111.380482 241.736592 
L 111.886145 241.43634 
L 112.391808 240.801492 
L 112.897471 239.857614 
L 113.403134 238.684521 
L 113.908797 237.433574 
L 114.41446 236.347821 
L 114.920123 235.785234 
L 115.425786 236.245327 
L 115.931449 238.399437 
L 116.437112 243.124962 
" clip-path="url(#pc948c0ca2b)" style="fill: none; stroke: #1f77b4; stroke-width: 1.5; stroke-linecap: square"/>
   </g>
   <g id="line2d_14">
    <path d="M 66.376477 206.343607 
L 66.921478 240.169129 
L 67.466478 257.181278 
L 68.011478 261.935409 
L 68.556478 258.144306 
L 69.101479 248.791972 
L 69.646479 236.236115 
L 70.191479 222.300102 
L 70.736479 208.355174 
L 71.28148 195.393638 
L 71.82648 184.093739 
L 72.37148 174.87687 
L 72.91648 167.957742 
L 73.461481 163.388115 
L 74.006481 161.094639 
L 74.551481 160.911347 
L 75.096481 162.607283 
L 75.641482 165.909755 
L 76.186482 170.523629 
L 76.731482 176.147102 
L 77.276482 182.484323 
L 77.821483 189.255232 
L 78.366483 196.202949 
L 78.911483 203.099031 
L 79.456483 209.746878 
L 80.001484 215.983565 
L 80.546484 221.680335 
L 81.091484 226.741989 
L 81.636485 231.105373 
L 82.181485 234.737147 
L 82.726485 237.631011 
L 83.271485 239.804534 
L 83.816486 241.295727 
L 84.361486 242.159475 
L 84.906486 242.463934 
L 85.451486 242.286989 
L 85.996487 241.712841 
L 86.541487 240.8288 
L 87.086487 239.722324 
L 87.631487 238.478366 
L 88.176488 237.177035 
L 88.721488 235.89162 
L 89.266488 234.686972 
L 89.811488 233.618257 
L 90.356489 232.730083 
L 90.901489 232.055978 
L 91.446489 231.618221 
L 91.991489 231.427996 
L 92.53649 231.485842 
L 93.08149 239.050635 
L 93.62649 239.049816 
L 94.17149 234.753482 
L 94.716491 235.695063 
L 95.261491 236.669569 
L 95.806491 237.638201 
L 96.351492 238.564413 
L 96.896492 239.4152 
L 97.441492 240.162203 
L 97.986492 240.782587 
L 98.531493 241.259688 
L 99.076493 241.583415 
L 99.621493 241.750397 
L 100.166493 241.763885 
L 100.711494 241.633411 
L 101.256494 241.374223 
L 101.801494 241.006512 
L 102.346494 240.554472 
L 102.891495 240.045201 
L 103.436495 239.5075 
L 103.981495 238.970606 
L 104.526495 238.462896 
L 105.071496 238.010611 
L 105.616496 237.636652 
L 106.161496 237.359493 
L 106.706496 237.192251 
L 107.251497 237.141968 
L 107.796497 237.209143 
L 108.341497 237.387541 
L 108.886497 237.664325 
L 109.431498 238.020516 
L 109.976498 238.431808 
L 110.521498 238.869724 
L 111.066499 239.30311 
L 111.611499 239.699931 
L 112.156499 240.029329 
L 112.701499 240.263866 
L 113.2465 240.381878 
L 113.7915 240.369806 
L 114.3365 240.224386 
L 114.8815 239.954508 
L 115.426501 239.58255 
L 115.971501 239.144954 
L 116.516501 238.691749 
L 117.061501 238.284731 
L 117.606502 237.993906 
L 118.151502 237.89182 
L 118.696502 238.045287 
L 119.241502 238.504026 
L 119.786503 239.285615 
L 120.331503 240.356148 
" clip-path="url(#pc948c0ca2b)" style="fill: none; stroke: #ff7f0e; stroke-width: 1.5; stroke-linecap: square"/>
   </g>
   <g id="line2d_15">
    <path d="M 66.376477 213.648368 
L 67.355117 227.997794 
L 68.333756 237.554557 
L 69.312396 242.800063 
L 70.291035 244.310955 
L 71.269675 242.714831 
L 72.248314 238.654582 
L 73.226954 232.760298 
L 74.205593 225.627757 
L 75.184233 217.802625 
L 76.162872 209.769542 
L 77.141511 201.945357 
L 78.120151 194.675833 
L 79.09879 188.235237 
L 80.07743 182.828235 
L 81.056069 178.593637 
L 82.034709 175.609534 
L 83.013348 173.899459 
L 83.991988 173.439231 
L 84.970627 174.164184 
L 85.949267 175.976544 
L 86.927906 178.752734 
L 87.906546 182.35043 
L 88.885185 186.615227 
L 89.863825 191.386798 
L 90.842464 196.504458 
L 91.821104 201.81208 
L 92.799743 207.162305 
L 93.778382 212.420036 
L 94.757022 217.465219 
L 95.735661 222.194907 
L 96.714301 226.524642 
L 97.69294 230.389197 
L 98.67158 233.742713 
L 99.650219 236.558291 
L 100.628859 238.8271 
L 101.607498 240.557069 
L 102.586138 241.771219 
L 103.564777 242.505718 
L 104.543417 242.807725 
L 105.522056 242.73309 
L 106.500696 242.343973 
L 107.479335 241.706461 
L 108.457975 240.888231 
L 109.436614 239.956315 
L 110.415253 238.975032 
L 111.393893 238.00411 
L 112.372532 237.097057 
L 113.351172 236.299803 
L 114.329811 239.050903 
L 115.308451 239.050919 
L 116.28709 235.048454 
L 117.26573 234.891836 
L 118.244369 234.929109 
L 119.223009 235.153334 
L 120.201648 235.549418 
L 121.180288 236.09502 
L 122.158927 236.761672 
L 123.137567 237.516081 
L 124.116206 238.321582 
L 125.094846 239.139696 
L 126.073485 239.93174 
L 127.052124 240.660452 
L 128.030764 241.291571 
L 129.009403 241.795335 
L 129.988043 242.147822 
L 130.966682 242.332111 
L 131.945322 242.339193 
L 132.923961 242.168606 
L 133.902601 241.828737 
L 134.88124 241.336774 
L 135.85988 240.71827 
L 136.838519 240.006315 
L 137.817159 239.240297 
L 138.795798 238.464277 
L 139.774438 237.724981 
L 140.753077 237.069465 
L 141.731717 236.542502 
L 142.710356 236.183768 
L 143.688996 236.024929 
L 144.667635 236.086754 
L 145.646274 236.376413 
L 146.624914 236.885126 
L 147.603553 237.586392 
L 148.582193 238.435039 
L 149.560832 239.367386 
L 150.539472 240.302829 
L 151.518111 241.147241 
L 152.496751 241.798579 
L 153.47539 242.155167 
L 154.45403 242.127176 
L 155.432669 241.651858 
L 156.411309 240.713161 
L 157.389948 239.366426 
L 158.368588 237.768896 
L 159.347227 236.216868 
L 160.325867 235.190386 
L 161.304506 235.406419 
L 162.283145 237.88159 
L 163.261785 244.005571 
" clip-path="url(#pc948c0ca2b)" style="fill: none; stroke: #2ca02c; stroke-width: 1.5; stroke-linecap: square"/>
   </g>
   <g id="line2d_16">
    <path d="M 66.376477 121.583121 
L 69.655816 55.955261 
L 72.935155 34.414125 
L 76.214494 41.9378 
L 79.493833 67.060915 
L 82.773171 101.247168 
L 86.05251 138.345508 
L 89.331849 174.121663 
L 92.611188 205.857325 
L 95.890527 232.009825 
L 99.169866 251.92569 
L 102.449205 265.601966 
L 105.728543 273.489657 
L 109.007882 276.334125 
L 112.287221 275.047692 
L 115.56656 270.610121 
L 118.845899 263.993028 
L 122.125238 256.104655 
L 125.404576 247.75178 
L 128.683915 239.615845 
L 131.963254 232.240742 
L 135.242593 226.029908 
L 138.521932 221.250728 
L 141.801271 218.044435 
L 145.08061 216.439963 
L 148.359948 216.37041 
L 151.639287 217.690972 
L 154.918626 220.197391 
L 158.197965 223.644135 
L 161.477304 227.761667 
L 164.756643 232.272306 
L 168.035981 236.904328 
L 171.31532 241.404019 
L 174.594659 245.545548 
L 177.873998 249.138577 
L 181.153337 252.033615 
L 184.432676 254.125182 
L 187.712014 255.352925 
L 190.991353 255.700833 
L 194.270692 255.194781 
L 197.550031 253.898622 
L 200.82937 251.909087 
L 204.108709 249.349763 
L 207.388048 246.364404 
L 210.667386 243.109864 
L 213.946725 239.748901 
L 217.226064 236.443099 
L 220.505403 233.346154 
L 223.784742 230.597711 
L 227.064081 239.053872 
L 230.343419 239.051774 
L 233.622758 232.469795 
L 236.902097 232.247733 
L 240.181436 232.34586 
L 243.460775 232.754205 
L 246.740114 233.449433 
L 250.019452 234.395911 
L 253.298791 235.547223 
L 256.57813 236.848098 
L 259.857469 238.23669 
L 263.136808 239.647126 
L 266.416147 241.012262 
L 269.695486 242.266536 
L 272.974824 243.348844 
L 276.254163 244.205322 
L 279.533502 244.791938 
L 282.812841 245.076788 
L 286.09218 245.041998 
L 289.371519 244.685132 
L 292.650857 244.020014 
L 295.930196 243.076896 
L 299.209535 241.901889 
L 302.488874 240.555633 
L 305.768213 239.111159 
L 309.047552 237.650953 
L 312.32689 236.263258 
L 315.606229 235.03765 
L 318.885568 234.060026 
L 322.164907 233.40711 
L 325.444246 233.140698 
L 328.723585 233.301869 
L 332.002924 233.90547 
L 335.282262 234.935246 
L 338.561601 236.340044 
L 341.84094 238.031613 
L 345.120279 239.884585 
L 348.399618 241.73933 
L 351.678957 243.408457 
L 354.958295 244.687836 
L 358.237634 245.373154 
L 361.516973 245.283071 
L 364.796312 244.290247 
L 368.075651 242.36157 
L 371.35499 239.609095 
L 374.634329 236.353343 
L 377.913667 233.20076 
L 381.193006 231.137299 
L 384.472345 231.640263 
L 387.751684 236.810737 
L 391.031023 249.529111 
" clip-path="url(#pc948c0ca2b)" style="fill: none; stroke: #d62728; stroke-width: 1.5; stroke-linecap: square"/>
   </g>
   <g id="line2d_17">
    <path d="M 66.376477 243.462764 
L 66.713989 226.146223 
L 67.051501 222.228372 
L 67.389013 226.036508 
L 67.726525 233.430083 
L 68.064037 241.509179 
L 68.401549 248.363539 
L 68.739061 252.858034 
L 69.076573 254.450751 
L 69.414085 253.040161 
L 69.751597 248.838083 
L 70.089109 242.265438 
L 70.426621 233.867992 
L 70.764133 224.249556 
L 71.101645 214.020294 
L 71.439157 203.758019 
L 71.776669 193.98054 
L 72.114181 185.127314 
L 72.451693 177.548825 
L 72.789205 171.502278 
L 73.126717 167.152347 
L 73.464229 164.575873 
L 73.80174 163.769513 
L 74.139252 164.659499 
L 74.476764 167.112757 
L 74.814276 170.94876 
L 75.151788 175.951579 
L 75.4893 181.881691 
L 75.826812 188.487183 
L 76.164324 195.514071 
L 76.501836 202.715523 
L 76.839348 209.85983 
L 77.17686 216.737032 
L 77.514372 223.164149 
L 77.851884 228.98901 
L 78.189396 234.092728 
L 78.526908 238.390857 
L 78.86442 241.833357 
L 79.201932 244.403445 
L 79.539444 246.11549 
L 79.876956 247.012078 
L 80.214468 247.160396 
L 80.55198 246.648107 
L 80.889492 245.578851 
L 81.227004 244.067542 
L 81.564516 242.235604 
L 81.902028 240.20629 
L 82.23954 238.10021 
L 82.577052 236.0312 
L 82.914564 239.051224 
L 83.252076 239.051881 
L 83.589587 230.328932 
L 83.927099 229.086594 
L 84.264611 228.280225 
L 84.602123 227.933052 
L 84.939635 228.046729 
L 85.277147 228.602045 
L 85.614659 229.560365 
L 85.952171 230.865746 
L 86.289683 232.447657 
L 86.627195 234.224218 
L 86.964707 236.105858 
L 87.302219 237.999267 
L 87.639731 239.811523 
L 87.977243 241.45425 
L 88.314755 242.847658 
L 88.652267 243.924336 
L 88.989779 244.632618 
L 89.327291 244.939408 
L 89.664803 244.832303 
L 90.002315 244.320903 
L 90.339827 243.437176 
L 90.677339 242.234819 
L 91.014851 240.787515 
L 91.352363 239.186084 
L 91.689875 237.534503 
L 92.027387 235.944866 
L 92.364899 234.531368 
L 92.702411 233.403459 
L 93.039922 232.658397 
L 93.377434 232.373467 
L 93.714946 232.598252 
L 94.052458 233.34737 
L 94.38997 234.594248 
L 94.727482 236.26656 
L 95.064994 238.244088 
L 95.402506 240.359866 
L 95.740018 242.405634 
L 96.07753 244.142713 
L 96.415042 245.319607 
L 96.752554 245.697782 
L 97.090066 245.08722 
L 97.427578 243.393565 
L 97.76509 240.678835 
L 98.102602 237.237894 
L 98.440114 233.693089 
L 98.777626 231.109686 
L 99.115138 231.134963 
L 99.45265 236.164089 
L 99.790162 249.536178 
" clip-path="url(#pc948c0ca2b)" style="fill: none; stroke: #9467bd; stroke-width: 1.5; stroke-linecap: square"/>
   </g>
   <g id="line2d_18">
    <path d="M 66.376477 243.020283 
L 66.741128 229.285032 
L 67.105779 225.692753 
L 67.47043 228.117128 
L 67.835081 233.506383 
L 68.199732 239.685386 
L 68.564383 245.184502 
L 68.929034 249.092546 
L 69.293684 250.93138 
L 69.658335 250.549868 
L 70.022986 248.035064 
L 70.387637 243.63869 
L 70.752288 237.717079 
L 71.116939 230.682936 
L 71.48159 222.967391 
L 71.846241 214.990945 
L 72.210892 207.142049 
L 72.575543 199.762156 
L 72.940194 193.136215 
L 73.304844 187.487657 
L 73.669495 182.97704 
L 74.034146 179.703614 
L 74.398797 177.709128 
L 74.763448 176.983307 
L 75.128099 177.470499 
L 75.49275 179.077042 
L 75.857401 181.678987 
L 76.222052 185.129866 
L 76.586703 189.268235 
L 76.951353 193.9248 
L 77.316004 198.928945 
L 77.680655 204.114558 
L 78.045306 209.325046 
L 78.409957 214.417518 
L 78.774608 219.266077 
L 79.139259 223.764248 
L 79.50391 227.826566 
L 79.868561 231.389339 
L 80.233212 234.410685 
L 80.597862 236.869881 
L 80.962513 238.766112 
L 81.327164 240.116727 
L 81.691815 240.955062 
L 82.056466 241.327953 
L 82.421117 241.293024 
L 82.785768 240.915832 
L 83.150419 240.26699 
L 83.51507 239.419314 
L 83.879721 238.445112 
L 84.244372 239.049344 
L 84.609022 239.049971 
L 84.973673 234.781817 
L 85.338324 233.808111 
L 85.702975 233.020272 
L 86.067626 232.448806 
L 86.432277 232.111308 
L 86.796928 232.012455 
L 87.161579 232.144476 
L 87.52623 232.48807 
L 87.890881 233.013737 
L 88.255531 233.683479 
L 88.620182 234.452801 
L 88.984833 235.272967 
L 89.349484 236.09341 
L 89.714135 236.864225 
L 90.078786 237.538662 
L 90.443437 238.075517 
L 90.808088 238.441326 
L 91.172739 238.612286 
L 91.53739 238.575791 
L 91.90204 238.331515 
L 92.266691 237.891961 
L 92.631342 237.282408 
L 92.995993 236.540218 
L 93.360644 235.713457 
L 93.725295 234.858833 
L 94.089946 234.038957 
L 94.454597 233.318982 
L 94.819248 232.762689 
L 95.183899 232.428139 
L 95.54855 232.36306 
L 95.9132 232.600154 
L 96.277851 233.152609 
L 96.642502 234.010101 
L 97.007153 235.135697 
L 97.371804 236.464077 
L 97.736455 237.901606 
L 98.101106 239.328868 
L 98.465757 240.606316 
L 98.830408 241.583853 
L 99.195059 242.115191 
L 99.559709 242.077983 
L 99.92436 241.400824 
L 100.289011 240.09832 
L 100.653662 238.315582 
L 101.018313 236.383606 
L 101.382964 234.88716 
L 101.747615 234.746941 
L 102.112266 237.317924 
L 102.476917 244.50599 
" clip-path="url(#pc948c0ca2b)" style="fill: none; stroke: #8c564b; stroke-width: 1.5; stroke-linecap: square"/>
   </g>
   <g id="patch_3">
    <path d="M 50.14375 288.430125 
L 50.14375 22.318125 
" style="fill: none; stroke: #000000; stroke-width: 0.8; stroke-linejoin: miter; stroke-linecap: square"/>
   </g>
   <g id="patch_4">
    <path d="M 407.26375 288.430125 
L 407.26375 22.318125 
" style="fill: none; stroke: #000000; stroke-width: 0.8; stroke-linejoin: miter; stroke-linecap: square"/>
   </g>
   <g id="patch_5">
    <path d="M 50.14375 288.430125 
L 407.26375 288.430125 
" style="fill: none; stroke: #000000; stroke-width: 0.8; stroke-linejoin: miter; stroke-linecap: square"/>
   </g>
   <g id="patch_6">
    <path d="M 50.14375 22.318125 
L 407.26375 22.318125 
" style="fill: none; stroke: #000000; stroke-width: 0.8; stroke-linejoin: miter; stroke-linecap: square"/>
   </g>
   <g id="text_15">
    <!-- MD - xtract_prob_Frontal_Aslant_Tract_L -->
    <g transform="translate(109.44625 16.318125) scale(0.12 -0.12)">
     <defs>
      <path id="DejaVuSans-4d" d="M 628 4666 
L 1569 4666 
L 2759 1491 
L 3956 4666 
L 4897 4666 
L 4897 0 
L 4281 0 
L 4281 4097 
L 3078 897 
L 2444 897 
L 1241 4097 
L 1241 0 
L 628 0 
L 628 4666 
z
" transform="scale(0.015625)"/>
      <path id="DejaVuSans-44" d="M 1259 4147 
L 1259 519 
L 2022 519 
Q 2988 519 3436 956 
Q 3884 1394 3884 2338 
Q 3884 3275 3436 3711 
Q 2988 4147 2022 4147 
L 1259 4147 
z
M 628 4666 
L 1925 4666 
Q 3281 4666 3915 4102 
Q 4550 3538 4550 2338 
Q 4550 1131 3912 565 
Q 3275 0 1925 0 
L 628 0 
L 628 4666 
z
" transform="scale(0.015625)"/>
      <path id="DejaVuSans-2d" d="M 313 2009 
L 1997 2009 
L 1997 1497 
L 313 1497 
L 313 2009 
z
" transform="scale(0.015625)"/>
      <path id="DejaVuSans-74" d="M 1172 4494 
L 1172 3500 
L 2356 3500 
L 2356 3053 
L 1172 3053 
L 1172 1153 
Q 1172 725 1289 603 
Q 1406 481 1766 481 
L 2356 481 
L 2356 0 
L 1766 0 
Q 1100 0 847 248 
Q 594 497 594 1153 
L 594 3053 
L 172 3053 
L 172 3500 
L 594 3500 
L 594 4494 
L 1172 4494 
z
" transform="scale(0.015625)"/>
      <path id="DejaVuSans-5f" d="M 3263 -1063 
L 3263 -1509 
L -63 -1509 
L -63 -1063 
L 3263 -1063 
z
" transform="scale(0.015625)"/>
      <path id="DejaVuSans-70" d="M 1159 525 
L 1159 -1331 
L 581 -1331 
L 581 3500 
L 1159 3500 
L 1159 2969 
Q 1341 3281 1617 3432 
Q 1894 3584 2278 3584 
Q 2916 3584 3314 3078 
Q 3713 2572 3713 1747 
Q 3713 922 3314 415 
Q 2916 -91 2278 -91 
Q 1894 -91 1617 61 
Q 1341 213 1159 525 
z
M 3116 1747 
Q 3116 2381 2855 2742 
Q 2594 3103 2138 3103 
Q 1681 3103 1420 2742 
Q 1159 2381 1159 1747 
Q 1159 1113 1420 752 
Q 1681 391 2138 391 
Q 2594 391 2855 752 
Q 3116 1113 3116 1747 
z
" transform="scale(0.015625)"/>
      <path id="DejaVuSans-6f" d="M 1959 3097 
Q 1497 3097 1228 2736 
Q 959 2375 959 1747 
Q 959 1119 1226 758 
Q 1494 397 1959 397 
Q 2419 397 2687 759 
Q 2956 1122 2956 1747 
Q 2956 2369 2687 2733 
Q 2419 3097 1959 3097 
z
M 1959 3584 
Q 2709 3584 3137 3096 
Q 3566 2609 3566 1747 
Q 3566 888 3137 398 
Q 2709 -91 1959 -91 
Q 1206 -91 779 398 
Q 353 888 353 1747 
Q 353 2609 779 3096 
Q 1206 3584 1959 3584 
z
" transform="scale(0.015625)"/>
      <path id="DejaVuSans-62" d="M 3116 1747 
Q 3116 2381 2855 2742 
Q 2594 3103 2138 3103 
Q 1681 3103 1420 2742 
Q 1159 2381 1159 1747 
Q 1159 1113 1420 752 
Q 1681 391 2138 391 
Q 2594 391 2855 752 
Q 3116 1113 3116 1747 
z
M 1159 2969 
Q 1341 3281 1617 3432 
Q 1894 3584 2278 3584 
Q 2916 3584 3314 3078 
Q 3713 2572 3713 1747 
Q 3713 922 3314 415 
Q 2916 -91 2278 -91 
Q 1894 -91 1617 61 
Q 1341 213 1159 525 
L 1159 0 
L 581 0 
L 581 4863 
L 1159 4863 
L 1159 2969 
z
" transform="scale(0.015625)"/>
      <path id="DejaVuSans-41" d="M 2188 4044 
L 1331 1722 
L 3047 1722 
L 2188 4044 
z
M 1831 4666 
L 2547 4666 
L 4325 0 
L 3669 0 
L 3244 1197 
L 1141 1197 
L 716 0 
L 50 0 
L 1831 4666 
z
" transform="scale(0.015625)"/>
      <path id="DejaVuSans-54" d="M -19 4666 
L 3928 4666 
L 3928 4134 
L 2272 4134 
L 2272 0 
L 1638 0 
L 1638 4134 
L -19 4134 
L -19 4666 
z
" transform="scale(0.015625)"/>
      <path id="DejaVuSans-4c" d="M 628 4666 
L 1259 4666 
L 1259 531 
L 3531 531 
L 3531 0 
L 628 0 
L 628 4666 
z
" transform="scale(0.015625)"/>
     </defs>
     <use xlink:href="#DejaVuSans-4d"/>
     <use xlink:href="#DejaVuSans-44" x="86.279297"/>
     <use xlink:href="#DejaVuSans-20" x="163.28125"/>
     <use xlink:href="#DejaVuSans-2d" x="195.068359"/>
     <use xlink:href="#DejaVuSans-20" x="231.152344"/>
     <use xlink:href="#DejaVuSans-78" x="262.939453"/>
     <use xlink:href="#DejaVuSans-74" x="322.119141"/>
     <use xlink:href="#DejaVuSans-72" x="361.328125"/>
     <use xlink:href="#DejaVuSans-61" x="402.441406"/>
     <use xlink:href="#DejaVuSans-63" x="463.720703"/>
     <use xlink:href="#DejaVuSans-74" x="518.701172"/>
     <use xlink:href="#DejaVuSans-5f" x="557.910156"/>
     <use xlink:href="#DejaVuSans-70" x="607.910156"/>
     <use xlink:href="#DejaVuSans-72" x="671.386719"/>
     <use xlink:href="#DejaVuSans-6f" x="710.25"/>
     <use xlink:href="#DejaVuSans-62" x="771.431641"/>
     <use xlink:href="#DejaVuSans-5f" x="834.908203"/>
     <use xlink:href="#DejaVuSans-46" x="884.908203"/>
     <use xlink:href="#DejaVuSans-72" x="935.177734"/>
     <use xlink:href="#DejaVuSans-6f" x="974.041016"/>
     <use xlink:href="#DejaVuSans-6e" x="1035.222656"/>
     <use xlink:href="#DejaVuSans-74" x="1098.601562"/>
     <use xlink:href="#DejaVuSans-61" x="1137.810547"/>
     <use xlink:href="#DejaVuSans-6c" x="1199.089844"/>
     <use xlink:href="#DejaVuSans-5f" x="1226.873047"/>
     <use xlink:href="#DejaVuSans-41" x="1276.873047"/>
     <use xlink:href="#DejaVuSans-73" x="1345.28125"/>
     <use xlink:href="#DejaVuSans-6c" x="1397.380859"/>
     <use xlink:href="#DejaVuSans-61" x="1425.164062"/>
     <use xlink:href="#DejaVuSans-6e" x="1486.443359"/>
     <use xlink:href="#DejaVuSans-74" x="1549.822266"/>
     <use xlink:href="#DejaVuSans-5f" x="1589.03125"/>
     <use xlink:href="#DejaVuSans-54" x="1639.03125"/>
     <use xlink:href="#DejaVuSans-72" x="1685.365234"/>
     <use xlink:href="#DejaVuSans-61" x="1726.478516"/>
     <use xlink:href="#DejaVuSans-63" x="1787.757812"/>
     <use xlink:href="#DejaVuSans-74" x="1842.738281"/>
     <use xlink:href="#DejaVuSans-5f" x="1881.947266"/>
     <use xlink:href="#DejaVuSans-4c" x="1931.947266"/>
    </g>
   </g>
   <g id="legend_1">
    <g id="patch_7">
     <path d="M 449.97575 146.666825 
L 547.832 146.666825 
Q 549.832 146.666825 549.832 144.666825 
L 549.832 55.929325 
Q 549.832 53.929325 547.832 53.929325 
L 449.97575 53.929325 
Q 447.97575 53.929325 447.97575 55.929325 
L 447.97575 144.666825 
Q 447.97575 146.666825 449.97575 146.666825 
z
" style="fill: #ffffff; opacity: 0.8; stroke: #cccccc; stroke-linejoin: miter"/>
    </g>
    <g id="line2d_19">
     <path d="M 451.97575 62.027762 
L 461.97575 62.027762 
L 471.97575 62.027762 
" style="fill: none; stroke: #1f77b4; stroke-width: 1.5; stroke-linecap: square"/>
    </g>
    <g id="text_16">
     <!-- 20_06_02_E3 -->
     <g transform="translate(479.97575 65.527762) scale(0.1 -0.1)">
      <defs>
       <path id="DejaVuSans-36" d="M 2113 2584 
Q 1688 2584 1439 2293 
Q 1191 2003 1191 1497 
Q 1191 994 1439 701 
Q 1688 409 2113 409 
Q 2538 409 2786 701 
Q 3034 994 3034 1497 
Q 3034 2003 2786 2293 
Q 2538 2584 2113 2584 
z
M 3366 4563 
L 3366 3988 
Q 3128 4100 2886 4159 
Q 2644 4219 2406 4219 
Q 1781 4219 1451 3797 
Q 1122 3375 1075 2522 
Q 1259 2794 1537 2939 
Q 1816 3084 2150 3084 
Q 2853 3084 3261 2657 
Q 3669 2231 3669 1497 
Q 3669 778 3244 343 
Q 2819 -91 2113 -91 
Q 1303 -91 875 529 
Q 447 1150 447 2328 
Q 447 3434 972 4092 
Q 1497 4750 2381 4750 
Q 2619 4750 2861 4703 
Q 3103 4656 3366 4563 
z
" transform="scale(0.015625)"/>
       <path id="DejaVuSans-45" d="M 628 4666 
L 3578 4666 
L 3578 4134 
L 1259 4134 
L 1259 2753 
L 3481 2753 
L 3481 2222 
L 1259 2222 
L 1259 531 
L 3634 531 
L 3634 0 
L 628 0 
L 628 4666 
z
" transform="scale(0.015625)"/>
       <path id="DejaVuSans-33" d="M 2597 2516 
Q 3050 2419 3304 2112 
Q 3559 1806 3559 1356 
Q 3559 666 3084 287 
Q 2609 -91 1734 -91 
Q 1441 -91 1130 -33 
Q 819 25 488 141 
L 488 750 
Q 750 597 1062 519 
Q 1375 441 1716 441 
Q 2309 441 2620 675 
Q 2931 909 2931 1356 
Q 2931 1769 2642 2001 
Q 2353 2234 1838 2234 
L 1294 2234 
L 1294 2753 
L 1863 2753 
Q 2328 2753 2575 2939 
Q 2822 3125 2822 3475 
Q 2822 3834 2567 4026 
Q 2313 4219 1838 4219 
Q 1578 4219 1281 4162 
Q 984 4106 628 3988 
L 628 4550 
Q 988 4650 1302 4700 
Q 1616 4750 1894 4750 
Q 2613 4750 3031 4423 
Q 3450 4097 3450 3541 
Q 3450 3153 3228 2886 
Q 3006 2619 2597 2516 
z
" transform="scale(0.015625)"/>
      </defs>
      <use xlink:href="#DejaVuSans-32"/>
      <use xlink:href="#DejaVuSans-30" x="63.623047"/>
      <use xlink:href="#DejaVuSans-5f" x="127.246094"/>
      <use xlink:href="#DejaVuSans-30" x="177.246094"/>
      <use xlink:href="#DejaVuSans-36" x="240.869141"/>
      <use xlink:href="#DejaVuSans-5f" x="304.492188"/>
      <use xlink:href="#DejaVuSans-30" x="354.492188"/>
      <use xlink:href="#DejaVuSans-32" x="418.115234"/>
      <use xlink:href="#DejaVuSans-5f" x="481.738281"/>
      <use xlink:href="#DejaVuSans-45" x="531.738281"/>
      <use xlink:href="#DejaVuSans-33" x="594.921875"/>
     </g>
    </g>
    <g id="line2d_20">
     <path d="M 451.97575 76.984013 
L 461.97575 76.984013 
L 471.97575 76.984013 
" style="fill: none; stroke: #ff7f0e; stroke-width: 1.5; stroke-linecap: square"/>
    </g>
    <g id="text_17">
     <!-- 20_05_01_E3 -->
     <g transform="translate(479.97575 80.484013) scale(0.1 -0.1)">
      <use xlink:href="#DejaVuSans-32"/>
      <use xlink:href="#DejaVuSans-30" x="63.623047"/>
      <use xlink:href="#DejaVuSans-5f" x="127.246094"/>
      <use xlink:href="#DejaVuSans-30" x="177.246094"/>
      <use xlink:href="#DejaVuSans-35" x="240.869141"/>
      <use xlink:href="#DejaVuSans-5f" x="304.492188"/>
      <use xlink:href="#DejaVuSans-30" x="354.492188"/>
      <use xlink:href="#DejaVuSans-31" x="418.115234"/>
      <use xlink:href="#DejaVuSans-5f" x="481.738281"/>
      <use xlink:href="#DejaVuSans-45" x="531.738281"/>
      <use xlink:href="#DejaVuSans-33" x="594.921875"/>
     </g>
    </g>
    <g id="line2d_21">
     <path d="M 451.97575 91.940262 
L 461.97575 91.940262 
L 471.97575 91.940262 
" style="fill: none; stroke: #2ca02c; stroke-width: 1.5; stroke-linecap: square"/>
    </g>
    <g id="text_18">
     <!-- 20_02_02_E3 -->
     <g transform="translate(479.97575 95.440262) scale(0.1 -0.1)">
      <use xlink:href="#DejaVuSans-32"/>
      <use xlink:href="#DejaVuSans-30" x="63.623047"/>
      <use xlink:href="#DejaVuSans-5f" x="127.246094"/>
      <use xlink:href="#DejaVuSans-30" x="177.246094"/>
      <use xlink:href="#DejaVuSans-32" x="240.869141"/>
      <use xlink:href="#DejaVuSans-5f" x="304.492188"/>
      <use xlink:href="#DejaVuSans-30" x="354.492188"/>
      <use xlink:href="#DejaVuSans-32" x="418.115234"/>
      <use xlink:href="#DejaVuSans-5f" x="481.738281"/>
      <use xlink:href="#DejaVuSans-45" x="531.738281"/>
      <use xlink:href="#DejaVuSans-33" x="594.921875"/>
     </g>
    </g>
    <g id="line2d_22">
     <path d="M 451.97575 106.896513 
L 461.97575 106.896513 
L 471.97575 106.896513 
" style="fill: none; stroke: #d62728; stroke-width: 1.5; stroke-linecap: square"/>
    </g>
    <g id="text_19">
     <!-- 20_10_02_E3 -->
     <g transform="translate(479.97575 110.396513) scale(0.1 -0.1)">
      <use xlink:href="#DejaVuSans-32"/>
      <use xlink:href="#DejaVuSans-30" x="63.623047"/>
      <use xlink:href="#DejaVuSans-5f" x="127.246094"/>
      <use xlink:href="#DejaVuSans-31" x="177.246094"/>
      <use xlink:href="#DejaVuSans-30" x="240.869141"/>
      <use xlink:href="#DejaVuSans-5f" x="304.492188"/>
      <use xlink:href="#DejaVuSans-30" x="354.492188"/>
      <use xlink:href="#DejaVuSans-32" x="418.115234"/>
      <use xlink:href="#DejaVuSans-5f" x="481.738281"/>
      <use xlink:href="#DejaVuSans-45" x="531.738281"/>
      <use xlink:href="#DejaVuSans-33" x="594.921875"/>
     </g>
    </g>
    <g id="line2d_23">
     <path d="M 451.97575 121.852762 
L 461.97575 121.852762 
L 471.97575 121.852762 
" style="fill: none; stroke: #9467bd; stroke-width: 1.5; stroke-linecap: square"/>
    </g>
    <g id="text_20">
     <!-- 20_08_02_E3 -->
     <g transform="translate(479.97575 125.352762) scale(0.1 -0.1)">
      <defs>
       <path id="DejaVuSans-38" d="M 2034 2216 
Q 1584 2216 1326 1975 
Q 1069 1734 1069 1313 
Q 1069 891 1326 650 
Q 1584 409 2034 409 
Q 2484 409 2743 651 
Q 3003 894 3003 1313 
Q 3003 1734 2745 1975 
Q 2488 2216 2034 2216 
z
M 1403 2484 
Q 997 2584 770 2862 
Q 544 3141 544 3541 
Q 544 4100 942 4425 
Q 1341 4750 2034 4750 
Q 2731 4750 3128 4425 
Q 3525 4100 3525 3541 
Q 3525 3141 3298 2862 
Q 3072 2584 2669 2484 
Q 3125 2378 3379 2068 
Q 3634 1759 3634 1313 
Q 3634 634 3220 271 
Q 2806 -91 2034 -91 
Q 1263 -91 848 271 
Q 434 634 434 1313 
Q 434 1759 690 2068 
Q 947 2378 1403 2484 
z
M 1172 3481 
Q 1172 3119 1398 2916 
Q 1625 2713 2034 2713 
Q 2441 2713 2670 2916 
Q 2900 3119 2900 3481 
Q 2900 3844 2670 4047 
Q 2441 4250 2034 4250 
Q 1625 4250 1398 4047 
Q 1172 3844 1172 3481 
z
" transform="scale(0.015625)"/>
      </defs>
      <use xlink:href="#DejaVuSans-32"/>
      <use xlink:href="#DejaVuSans-30" x="63.623047"/>
      <use xlink:href="#DejaVuSans-5f" x="127.246094"/>
      <use xlink:href="#DejaVuSans-30" x="177.246094"/>
      <use xlink:href="#DejaVuSans-38" x="240.869141"/>
      <use xlink:href="#DejaVuSans-5f" x="304.492188"/>
      <use xlink:href="#DejaVuSans-30" x="354.492188"/>
      <use xlink:href="#DejaVuSans-32" x="418.115234"/>
      <use xlink:href="#DejaVuSans-5f" x="481.738281"/>
      <use xlink:href="#DejaVuSans-45" x="531.738281"/>
      <use xlink:href="#DejaVuSans-33" x="594.921875"/>
     </g>
    </g>
    <g id="line2d_24">
     <path d="M 451.97575 136.809012 
L 461.97575 136.809012 
L 471.97575 136.809012 
" style="fill: none; stroke: #8c564b; stroke-width: 1.5; stroke-linecap: square"/>
    </g>
    <g id="text_21">
     <!-- 20_11_02_E3 -->
     <g transform="translate(479.97575 140.309012) scale(0.1 -0.1)">
      <use xlink:href="#DejaVuSans-32"/>
      <use xlink:href="#DejaVuSans-30" x="63.623047"/>
      <use xlink:href="#DejaVuSans-5f" x="127.246094"/>
      <use xlink:href="#DejaVuSans-31" x="177.246094"/>
      <use xlink:href="#DejaVuSans-31" x="240.869141"/>
      <use xlink:href="#DejaVuSans-5f" x="304.492188"/>
      <use xlink:href="#DejaVuSans-30" x="354.492188"/>
      <use xlink:href="#DejaVuSans-32" x="418.115234"/>
      <use xlink:href="#DejaVuSans-5f" x="481.738281"/>
      <use xlink:href="#DejaVuSans-45" x="531.738281"/>
      <use xlink:href="#DejaVuSans-33" x="594.921875"/>
     </g>
    </g>
   </g>
  </g>
 </g>
 <defs>
  <clipPath id="pc948c0ca2b">
   <rect x="50.14375" y="22.318125" width="357.12" height="266.112"/>
  </clipPath>
 </defs>
</svg>
