<?xml version="1.0" encoding="utf-8" standalone="no"?>
<!DOCTYPE svg PUBLIC "-//W3C//DTD SVG 1.1//EN"
  "http://www.w3.org/Graphics/SVG/1.1/DTD/svg11.dtd">
<svg xmlns:xlink="http://www.w3.org/1999/xlink" width="565.411687pt" height="325.986375pt" viewBox="0 0 565.411687 325.986375" xmlns="http://www.w3.org/2000/svg" version="1.1">
 <metadata>
  <rdf:RDF xmlns:dc="http://purl.org/dc/elements/1.1/" xmlns:cc="http://creativecommons.org/ns#" xmlns:rdf="http://www.w3.org/1999/02/22-rdf-syntax-ns#">
   <cc:Work>
    <dc:type rdf:resource="http://purl.org/dc/dcmitype/StillImage"/>
    <dc:date>2023-02-07T23:00:05.653630</dc:date>
    <dc:format>image/svg+xml</dc:format>
    <dc:creator>
     <cc:Agent>
      <dc:title>Matplotlib v3.6.2, https://matplotlib.org/</dc:title>
     </cc:Agent>
    </dc:creator>
   </cc:Work>
  </rdf:RDF>
 </metadata>
 <defs>
  <style type="text/css">*{stroke-linejoin: round; stroke-linecap: butt}</style>
 </defs>
 <g id="figure_1">
  <g id="patch_1">
   <path d="M 0 325.986375 
L 565.411687 325.986375 
L 565.411687 0 
L 0 0 
z
" style="fill: #ffffff"/>
  </g>
  <g id="axes_1">
   <g id="patch_2">
    <path d="M 58.523438 288.430125 
L 415.643438 288.430125 
L 415.643438 22.318125 
L 58.523438 22.318125 
z
" style="fill: #ffffff"/>
   </g>
   <g id="PolyCollection_1">
    <path d="M 74.756165 275.848692 
L 74.756165 229.024938 
L 78.035504 229.024938 
L 81.314842 229.024938 
L 84.594181 229.024938 
L 87.87352 229.024938 
L 91.152859 229.024938 
L 94.432198 229.024938 
L 97.711537 229.024938 
L 100.990876 229.024938 
L 104.270214 229.024938 
L 107.549553 229.024938 
L 110.828892 229.024938 
L 114.108231 229.024938 
L 117.38757 229.024938 
L 120.666909 229.024938 
L 123.946247 229.024938 
L 127.225586 229.024938 
L 130.504925 229.024938 
L 133.784264 229.024938 
L 137.063603 229.024938 
L 140.342942 229.024938 
L 143.62228 229.024938 
L 146.901619 229.024938 
L 150.180958 229.024938 
L 153.460297 229.024938 
L 156.739636 229.024938 
L 160.018975 229.024938 
L 163.298314 229.024938 
L 166.577652 229.024938 
L 169.856991 229.024938 
L 173.13633 229.024938 
L 176.415669 229.024938 
L 179.695008 229.024938 
L 182.974347 229.024938 
L 186.253685 229.024938 
L 189.533024 229.024938 
L 192.812363 229.024938 
L 196.091702 229.024938 
L 199.371041 229.024938 
L 202.65038 229.024938 
L 205.929718 229.024938 
L 209.209057 229.024938 
L 212.488396 229.024938 
L 215.767735 229.024938 
L 219.047074 229.024938 
L 222.326413 229.024938 
L 225.605752 229.024938 
L 228.88509 229.024938 
L 232.164429 229.024938 
L 235.443768 229.024938 
L 238.723107 229.024938 
L 242.002446 229.024938 
L 245.281785 229.024938 
L 248.561123 229.024938 
L 251.840462 229.024938 
L 255.119801 229.024938 
L 258.39914 229.024938 
L 261.678479 229.024938 
L 264.957818 229.024938 
L 268.237157 229.024938 
L 271.516495 229.024938 
L 274.795834 229.024938 
L 278.075173 229.024938 
L 281.354512 229.024938 
L 284.633851 229.024938 
L 287.91319 229.024938 
L 291.192528 229.024938 
L 294.471867 229.024938 
L 297.751206 229.024938 
L 301.030545 229.024938 
L 304.309884 229.024938 
L 307.589223 229.024938 
L 310.868561 229.024938 
L 314.1479 229.024938 
L 317.427239 229.024938 
L 320.706578 229.024938 
L 323.985917 229.024938 
L 327.265256 229.024938 
L 330.544595 229.024938 
L 333.823933 229.024938 
L 337.103272 229.024938 
L 340.382611 229.024938 
L 343.66195 229.024938 
L 346.941289 229.024938 
L 350.220628 229.024938 
L 353.499966 229.024938 
L 356.779305 229.024938 
L 360.058644 229.024938 
L 363.337983 229.024938 
L 366.617322 229.024938 
L 369.896661 229.024938 
L 373.175999 229.024938 
L 376.455338 229.024938 
L 379.734677 229.024938 
L 383.014016 229.024938 
L 386.293355 229.024938 
L 389.572694 229.024938 
L 392.852033 229.024938 
L 396.131371 229.024938 
L 399.41071 229.024938 
L 399.41071 230.079611 
L 399.41071 230.079611 
L 396.131371 226.327373 
L 392.852033 226.096642 
L 389.572694 227.526755 
L 386.293355 229.406078 
L 383.014016 231.012449 
L 379.734677 231.981867 
L 376.455338 232.201825 
L 373.175999 231.726082 
L 369.896661 230.707855 
L 366.617322 229.348796 
L 363.337983 227.861282 
L 360.058644 226.441851 
L 356.779305 225.253835 
L 353.499966 224.417432 
L 350.220628 224.005686 
L 346.941289 224.04503 
L 343.66195 224.519197 
L 340.382611 225.375503 
L 337.103272 226.532626 
L 333.823933 227.88915 
L 330.544595 229.332281 
L 327.265256 230.74625 
L 323.985917 232.020004 
L 320.706578 233.053926 
L 317.427239 233.765351 
L 314.1479 234.092776 
L 310.868561 233.998693 
L 307.589223 233.471029 
L 304.309884 232.523267 
L 301.030545 231.193309 
L 297.751206 229.541218 
L 294.471867 227.64598 
L 291.192528 225.601466 
L 287.91319 223.511766 
L 284.633851 221.486103 
L 281.354512 219.633508 
L 278.075173 218.057467 
L 274.795834 216.850727 
L 271.516495 216.090431 
L 268.237157 215.833763 
L 264.957818 216.114248 
L 261.678479 216.938834 
L 258.39914 218.285871 
L 255.119801 220.104071 
L 251.840462 222.3125 
L 248.561123 224.801647 
L 245.281785 227.435563 
L 242.002446 230.055055 
L 238.723107 229.021268 
L 235.443768 229.01843 
L 232.164429 237.678436 
L 228.88509 237.625583 
L 225.605752 236.52444 
L 222.326413 234.229067 
L 219.047074 230.616855 
L 215.767735 225.594457 
L 212.488396 219.103335 
L 209.209057 211.124727 
L 205.929718 201.683883 
L 202.65038 190.853371 
L 199.371041 178.755295 
L 196.091702 165.562263 
L 192.812363 151.496961 
L 189.533024 136.830199 
L 186.253685 121.877332 
L 182.974347 106.992974 
L 179.695008 92.563961 
L 176.415669 79.000559 
L 173.13633 66.725949 
L 169.856991 56.164083 
L 166.577652 47.726045 
L 163.298314 41.795124 
L 160.018975 38.710877 
L 156.739636 38.752519 
L 153.460297 42.122082 
L 150.180958 48.927852 
L 146.901619 59.168712 
L 143.62228 72.72011 
L 140.342942 89.322487 
L 137.063603 108.573131 
L 133.784264 129.922536 
L 130.504925 152.676513 
L 127.225586 176.005411 
L 123.946247 198.962001 
L 120.666909 220.509723 
L 117.38757 239.563176 
L 114.108231 255.042928 
L 110.828892 265.946912 
L 107.549553 271.440894 
L 104.270214 270.9707 
L 100.990876 264.39915 
L 97.711537 252.170868 
L 94.432198 235.508396 
L 91.152859 216.643306 
L 87.87352 199.086302 
L 84.594181 187.940565 
L 81.314842 190.262921 
L 78.035504 215.477728 
L 74.756165 275.848692 
z
" clip-path="url(#p07d16eb85f)" style="fill: #1f77b4; fill-opacity: 0.166667"/>
   </g>
   <g id="PolyCollection_2">
    <path d="M 74.756165 274.307273 
L 74.756165 229.024938 
L 77.860385 229.024938 
L 80.964605 229.024938 
L 84.068825 229.024938 
L 87.173045 229.024938 
L 90.277265 229.024938 
L 93.381485 229.024938 
L 96.485705 229.024938 
L 99.589924 229.024938 
L 102.694144 229.024938 
L 105.798364 229.024938 
L 108.902584 229.024938 
L 112.006804 229.024938 
L 115.111024 229.024938 
L 118.215244 229.024938 
L 121.319464 229.024938 
L 124.423684 229.024938 
L 127.527904 229.024938 
L 130.632124 229.024938 
L 133.736344 229.024938 
L 136.840564 229.024938 
L 139.944784 229.024938 
L 143.049004 229.024938 
L 146.153224 229.024938 
L 149.257444 229.024938 
L 152.361664 229.024938 
L 155.465884 229.024938 
L 158.570104 229.024938 
L 161.674324 229.024938 
L 164.778544 229.024938 
L 167.882764 229.024938 
L 170.986984 229.024938 
L 174.091204 229.024938 
L 177.195424 229.024938 
L 180.299644 229.024938 
L 183.403863 229.024938 
L 186.508083 229.024938 
L 189.612303 229.024938 
L 192.716523 229.024938 
L 195.820743 229.024938 
L 198.924963 229.024938 
L 202.029183 229.024938 
L 205.133403 229.024938 
L 208.237623 229.024938 
L 211.341843 229.024938 
L 214.446063 229.024938 
L 217.550283 229.024938 
L 220.654503 229.024938 
L 223.758723 229.024938 
L 226.862943 229.024938 
L 229.967163 229.024938 
L 233.071383 229.024938 
L 236.175603 229.024938 
L 239.279823 229.024938 
L 242.384043 229.024938 
L 245.488263 229.024938 
L 248.592483 229.024938 
L 251.696703 229.024938 
L 254.800923 229.024938 
L 257.905143 229.024938 
L 261.009363 229.024938 
L 264.113582 229.024938 
L 267.217802 229.024938 
L 270.322022 229.024938 
L 273.426242 229.024938 
L 276.530462 229.024938 
L 279.634682 229.024938 
L 282.738902 229.024938 
L 285.843122 229.024938 
L 288.947342 229.024938 
L 292.051562 229.024938 
L 295.155782 229.024938 
L 298.260002 229.024938 
L 301.364222 229.024938 
L 304.468442 229.024938 
L 307.572662 229.024938 
L 310.676882 229.024938 
L 313.781102 229.024938 
L 316.885322 229.024938 
L 319.989542 229.024938 
L 323.093762 229.024938 
L 326.197982 229.024938 
L 329.302202 229.024938 
L 332.406422 229.024938 
L 335.510642 229.024938 
L 338.614862 229.024938 
L 341.719082 229.024938 
L 344.823302 229.024938 
L 347.927521 229.024938 
L 351.031741 229.024938 
L 354.135961 229.024938 
L 357.240181 229.024938 
L 360.344401 229.024938 
L 363.448621 229.024938 
L 366.552841 229.024938 
L 369.657061 229.024938 
L 372.761281 229.024938 
L 375.865501 229.024938 
L 378.969721 229.024938 
L 382.073941 229.024938 
L 382.073941 236.397203 
L 382.073941 236.397203 
L 378.969721 225.650531 
L 375.865501 222.403884 
L 372.761281 223.329098 
L 369.657061 226.130294 
L 366.552841 229.310701 
L 363.448621 231.978201 
L 360.344401 233.684941 
L 357.240181 234.296735 
L 354.135961 233.888385 
L 351.031741 232.66133 
L 347.927521 230.880428 
L 344.823302 228.826938 
L 341.719082 226.765086 
L 338.614862 224.919857 
L 335.510642 223.463919 
L 332.406422 222.511825 
L 329.302202 222.119874 
L 326.197982 222.290182 
L 323.093762 222.977763 
L 319.989542 224.099554 
L 316.885322 225.544501 
L 313.781102 227.183975 
L 310.676882 228.881924 
L 307.572662 230.50428 
L 304.468442 231.927278 
L 301.364222 233.044417 
L 298.260002 233.77191 
L 295.155782 234.052527 
L 292.051562 233.857815 
L 288.947342 233.188748 
L 285.843122 232.074889 
L 282.738902 230.572199 
L 279.634682 228.759675 
L 276.530462 226.734994 
L 273.426242 224.609385 
L 270.322022 222.501951 
L 267.217802 220.53367 
L 264.113582 218.821304 
L 261.009363 217.471433 
L 257.905143 216.57484 
L 254.800923 216.201421 
L 251.696703 216.395822 
L 248.592483 217.173938 
L 245.488263 218.520417 
L 242.384043 220.387258 
L 239.279823 222.693591 
L 236.175603 225.326661 
L 233.071383 228.144041 
L 229.967163 229.02336 
L 226.862943 229.020801 
L 223.758723 237.066502 
L 220.654503 238.070574 
L 217.550283 238.219549 
L 214.446063 237.333723 
L 211.341843 235.248699 
L 208.237623 231.822441 
L 205.133403 226.942213 
L 202.029183 220.531178 
L 198.924963 212.554442 
L 195.820743 203.024325 
L 192.716523 192.004645 
L 189.612303 179.613779 
L 186.508083 166.026325 
L 183.403863 151.47315 
L 180.299644 136.23967 
L 177.195424 120.662213 
L 174.091204 105.122355 
L 170.986984 90.039172 
L 167.882764 75.859368 
L 164.778544 63.045329 
L 161.674324 52.061187 
L 158.570104 43.357064 
L 155.465884 37.351748 
L 152.361664 34.414125 
L 149.257444 34.8438 
L 146.153224 38.851455 
L 143.049004 46.539589 
L 139.944784 57.884432 
L 136.840564 72.719946 
L 133.736344 90.725001 
L 130.632124 111.414941 
L 127.527904 134.138962 
L 124.423684 158.084883 
L 121.319464 182.29311 
L 118.215244 205.681786 
L 115.111024 227.085357 
L 112.006804 245.309018 
L 108.902584 259.201753 
L 105.798364 267.750953 
L 102.694144 270.201879 
L 99.589924 266.205525 
L 96.485705 255.998761 
L 93.381485 240.620957 
L 90.277265 222.171627 
L 87.173045 204.114012 
L 84.068825 191.629882 
L 80.964605 192.031237 
L 77.860385 215.235006 
L 74.756165 274.307273 
z
" clip-path="url(#p07d16eb85f)" style="fill: #ff7f0e; fill-opacity: 0.166667"/>
   </g>
   <g id="PolyCollection_3">
    <path d="M 74.756165 195.600878 
L 74.756165 229.024938 
L 77.42492 229.024938 
L 80.093675 229.024938 
L 82.762431 229.024938 
L 85.431186 229.024938 
L 88.099941 229.024938 
L 90.768697 229.024938 
L 93.437452 229.024938 
L 96.106207 229.024938 
L 98.774963 229.024938 
L 101.443718 229.024938 
L 104.112473 229.024938 
L 106.781229 229.024938 
L 109.449984 229.024938 
L 112.118739 229.024938 
L 114.787495 229.024938 
L 117.45625 229.024938 
L 120.125005 229.024938 
L 122.79376 229.024938 
L 125.462516 229.024938 
L 128.131271 229.024938 
L 130.800026 229.024938 
L 133.468782 229.024938 
L 136.137537 229.024938 
L 138.806292 229.024938 
L 141.475048 229.024938 
L 144.143803 229.024938 
L 146.812558 229.024938 
L 149.481314 229.024938 
L 152.150069 229.024938 
L 154.818824 229.024938 
L 157.48758 229.024938 
L 160.156335 229.024938 
L 162.82509 229.024938 
L 165.493846 229.024938 
L 168.162601 229.024938 
L 170.831356 229.024938 
L 173.500111 229.024938 
L 176.168867 229.024938 
L 178.837622 229.024938 
L 181.506377 229.024938 
L 184.175133 229.024938 
L 186.843888 229.024938 
L 189.512643 229.024938 
L 192.181399 229.024938 
L 194.850154 229.024938 
L 197.518909 229.024938 
L 200.187665 229.024938 
L 202.85642 229.024938 
L 205.525175 229.024938 
L 208.193931 229.024938 
L 210.862686 229.024938 
L 213.531441 229.024938 
L 216.200197 229.024938 
L 218.868952 229.024938 
L 221.537707 229.024938 
L 224.206462 229.024938 
L 226.875218 229.024938 
L 229.543973 229.024938 
L 232.212728 229.024938 
L 234.881484 229.024938 
L 237.550239 229.024938 
L 240.218994 229.024938 
L 242.88775 229.024938 
L 245.556505 229.024938 
L 248.22526 229.024938 
L 250.894016 229.024938 
L 253.562771 229.024938 
L 256.231526 229.024938 
L 258.900282 229.024938 
L 261.569037 229.024938 
L 264.237792 229.024938 
L 266.906548 229.024938 
L 269.575303 229.024938 
L 272.244058 229.024938 
L 274.912813 229.024938 
L 277.581569 229.024938 
L 280.250324 229.024938 
L 282.919079 229.024938 
L 285.587835 229.024938 
L 288.25659 229.024938 
L 290.925345 229.024938 
L 293.594101 229.024938 
L 296.262856 229.024938 
L 298.931611 229.024938 
L 301.600367 229.024938 
L 304.269122 229.024938 
L 306.937877 229.024938 
L 309.606633 229.024938 
L 312.275388 229.024938 
L 314.944143 229.024938 
L 317.612899 229.024938 
L 320.281654 229.024938 
L 322.950409 229.024938 
L 325.619164 229.024938 
L 328.28792 229.024938 
L 330.956675 229.024938 
L 333.62543 229.024938 
L 336.294186 229.024938 
L 338.962941 229.024938 
L 338.962941 218.047432 
L 338.962941 218.047432 
L 336.294186 230.746419 
L 333.62543 235.853607 
L 330.956675 236.218524 
L 328.28792 233.947631 
L 325.619164 230.544963 
L 322.950409 227.033043 
L 320.281654 224.056087 
L 317.612899 221.967398 
L 314.944143 220.902687 
L 312.275388 220.840948 
L 309.606633 221.654352 
L 306.937877 223.148535 
L 304.269122 225.094533 
L 301.600367 227.253494 
L 298.931611 229.395206 
L 296.262856 231.311386 
L 293.594101 232.824567 
L 290.925345 233.793358 
L 288.25659 234.114742 
L 285.587835 233.72402 
L 282.919079 232.592945 
L 280.250324 230.726491 
L 277.581569 228.158682 
L 274.912813 224.947811 
L 272.244058 221.17136 
L 269.575303 216.920855 
L 266.906548 212.296861 
L 264.237792 207.404283 
L 261.569037 202.348089 
L 258.900282 197.22956 
L 256.231526 192.143111 
L 253.562771 187.173735 
L 250.894016 182.395074 
L 248.22526 177.868115 
L 245.556505 173.640478 
L 242.88775 169.746271 
L 240.218994 166.206446 
L 237.550239 163.029614 
L 234.881484 160.213231 
L 232.212728 157.745106 
L 229.543973 155.605137 
L 226.875218 153.767217 
L 224.206462 152.201221 
L 221.537707 150.87501 
L 218.868952 149.756378 
L 216.200197 148.814889 
L 213.531441 148.023534 
L 210.862686 147.360162 
L 208.193931 229.009491 
L 205.525175 229.009067 
L 202.85642 146.817553 
L 200.187665 146.557184 
L 197.518909 146.376047 
L 194.850154 146.297647 
L 192.181399 146.353451 
L 189.512643 146.581529 
L 186.843888 147.024855 
L 184.175133 147.729319 
L 181.506377 148.741504 
L 178.837622 150.1063 
L 176.168867 151.864439 
L 173.500111 154.050025 
L 170.831356 156.688155 
L 168.162601 159.792721 
L 165.493846 163.364483 
L 162.82509 167.389509 
L 160.156335 171.838069 
L 157.48758 176.664062 
L 154.818824 181.805052 
L 152.150069 187.182976 
L 149.481314 192.705565 
L 146.812558 198.268506 
L 144.143803 203.758364 
L 141.475048 209.05622 
L 138.806292 214.042004 
L 136.137537 218.599413 
L 133.468782 222.621319 
L 130.800026 226.015482 
L 128.131271 228.710372 
L 125.462516 230.660832 
L 122.79376 231.853259 
L 120.125005 232.309936 
L 117.45625 232.092044 
L 114.787495 231.300845 
L 112.118739 230.076439 
L 109.449984 228.593385 
L 106.781229 227.052432 
L 104.112473 225.667463 
L 101.443718 224.646685 
L 98.774963 224.166961 
L 96.106207 224.340074 
L 93.437452 225.169591 
L 90.768697 226.49685 
L 88.099941 227.934463 
L 85.431186 228.785574 
L 82.762431 227.946955 
L 80.093675 223.793857 
L 77.42492 214.044376 
L 74.756165 195.600878 
z
" clip-path="url(#p07d16eb85f)" style="fill: #2ca02c; fill-opacity: 0.166667"/>
   </g>
   <g id="PolyCollection_4">
    <path d="M 74.756165 276.334125 
L 74.756165 229.024938 
L 78.000043 229.024938 
L 81.243922 229.024938 
L 84.4878 229.024938 
L 87.731679 229.024938 
L 90.975557 229.024938 
L 94.219436 229.024938 
L 97.463314 229.024938 
L 100.707193 229.024938 
L 103.951071 229.024938 
L 107.19495 229.024938 
L 110.438828 229.024938 
L 113.682706 229.024938 
L 116.926585 229.024938 
L 120.170463 229.024938 
L 123.414342 229.024938 
L 126.65822 229.024938 
L 129.902099 229.024938 
L 133.145977 229.024938 
L 136.389856 229.024938 
L 139.633734 229.024938 
L 142.877613 229.024938 
L 146.121491 229.024938 
L 149.36537 229.024938 
L 152.609248 229.024938 
L 155.853127 229.024938 
L 159.097005 229.024938 
L 162.340884 229.024938 
L 165.584762 229.024938 
L 168.828641 229.024938 
L 172.072519 229.024938 
L 175.316397 229.024938 
L 178.560276 229.024938 
L 181.804154 229.024938 
L 185.048033 229.024938 
L 188.291911 229.024938 
L 191.53579 229.024938 
L 194.779668 229.024938 
L 198.023547 229.024938 
L 201.267425 229.024938 
L 204.511304 229.024938 
L 207.755182 229.024938 
L 210.999061 229.024938 
L 214.242939 229.024938 
L 217.486818 229.024938 
L 220.730696 229.024938 
L 223.974575 229.024938 
L 227.218453 229.024938 
L 230.462332 229.024938 
L 233.70621 229.024938 
L 236.950088 229.024938 
L 240.193967 229.024938 
L 243.437845 229.024938 
L 246.681724 229.024938 
L 249.925602 229.024938 
L 253.169481 229.024938 
L 256.413359 229.024938 
L 259.657238 229.024938 
L 262.901116 229.024938 
L 266.144995 229.024938 
L 269.388873 229.024938 
L 272.632752 229.024938 
L 275.87663 229.024938 
L 279.120509 229.024938 
L 282.364387 229.024938 
L 285.608266 229.024938 
L 288.852144 229.024938 
L 292.096023 229.024938 
L 295.339901 229.024938 
L 298.583779 229.024938 
L 301.827658 229.024938 
L 305.071536 229.024938 
L 308.315415 229.024938 
L 311.559293 229.024938 
L 314.803172 229.024938 
L 318.04705 229.024938 
L 321.290929 229.024938 
L 324.534807 229.024938 
L 327.778686 229.024938 
L 331.022564 229.024938 
L 334.266443 229.024938 
L 337.510321 229.024938 
L 340.7542 229.024938 
L 343.998078 229.024938 
L 347.241957 229.024938 
L 350.485835 229.024938 
L 353.729714 229.024938 
L 356.973592 229.024938 
L 360.21747 229.024938 
L 363.461349 229.024938 
L 366.705227 229.024938 
L 369.949106 229.024938 
L 373.192984 229.024938 
L 376.436863 229.024938 
L 379.680741 229.024938 
L 382.92462 229.024938 
L 386.168498 229.024938 
L 389.412377 229.024938 
L 392.656255 229.024938 
L 395.900134 229.024938 
L 395.900134 230.613433 
L 395.900134 230.613433 
L 392.656255 226.478189 
L 389.412377 226.042079 
L 386.168498 227.38618 
L 382.92462 229.254984 
L 379.680741 230.894064 
L 376.436863 231.916386 
L 373.192984 232.193662 
L 369.949106 231.769455 
L 366.705227 230.79101 
L 363.461349 229.45711 
L 360.21747 227.979463 
L 356.973592 226.555439 
L 353.729714 225.350138 
L 350.485835 224.486052 
L 347.241957 224.038736 
L 343.998078 224.037137 
L 340.7542 224.467367 
L 337.510321 225.278902 
L 334.266443 226.392321 
L 331.022564 227.707853 
L 327.778686 229.114105 
L 324.534807 230.496501 
L 321.290929 231.745019 
L 318.04705 232.760942 
L 314.803172 233.462432 
L 311.559293 233.788759 
L 308.315415 233.703169 
L 305.071536 233.19434 
L 301.827658 232.27651 
L 298.583779 230.988332 
L 295.339901 229.390603 
L 292.096023 227.563003 
L 288.852144 225.600024 
L 285.608266 223.606265 
L 282.364387 221.691299 
L 279.120509 219.964304 
L 275.87663 218.528666 
L 272.632752 217.47673 
L 269.388873 216.8849 
L 266.144995 216.809241 
L 262.901116 217.281753 
L 259.657238 218.307429 
L 256.413359 219.862223 
L 253.169481 221.892012 
L 249.925602 224.3126 
L 246.681724 227.010814 
L 243.437845 229.846684 
L 240.193967 232.65669 
L 236.950088 229.021594 
L 233.70621 229.018766 
L 230.462332 240.659809 
L 227.218453 240.71636 
L 223.974575 239.693368 
L 220.730696 237.439837 
L 217.486818 233.828346 
L 214.242939 228.761139 
L 210.999061 222.175844 
L 207.755182 214.050613 
L 204.511304 204.408521 
L 201.267425 193.321034 
L 198.023547 180.91037 
L 194.779668 167.350596 
L 191.53579 152.867296 
L 188.291911 137.73569 
L 185.048033 122.277089 
L 181.804154 106.853603 
L 178.560276 91.86105 
L 175.316397 77.720067 
L 172.072519 64.865441 
L 168.828641 53.733762 
L 165.584762 44.749521 
L 162.340884 38.309875 
L 159.097005 34.768339 
L 155.853127 34.417767 
L 152.609248 37.473051 
L 149.36537 44.054073 
L 146.121491 54.169532 
L 142.877613 67.702385 
L 139.633734 84.39776 
L 136.389856 103.85431 
L 133.145977 125.52013 
L 129.902099 148.694488 
L 126.65822 172.53678 
L 123.414342 196.084283 
L 120.170463 218.280449 
L 116.926585 238.015671 
L 113.682706 254.182635 
L 110.438828 265.748598 
L 107.19495 271.847114 
L 103.951071 271.892002 
L 100.707193 265.716533 
L 97.463314 253.741126 
L 94.219436 237.173043 
L 90.975557 218.241905 
L 87.731679 200.475092 
L 84.4878 189.017423 
L 81.243922 190.999807 
L 78.000043 215.961901 
L 74.756165 276.334125 
z
" clip-path="url(#p07d16eb85f)" style="fill: #d62728; fill-opacity: 0.166667"/>
   </g>
   <g id="PolyCollection_5">
    <path d="M 74.756165 257.421043 
L 74.756165 229.024938 
L 77.623169 229.024938 
L 80.490173 229.024938 
L 83.357178 229.024938 
L 86.224182 229.024938 
L 89.091186 229.024938 
L 91.95819 229.024938 
L 94.825195 229.024938 
L 97.692199 229.024938 
L 100.559203 229.024938 
L 103.426207 229.024938 
L 106.293212 229.024938 
L 109.160216 229.024938 
L 112.02722 229.024938 
L 114.894224 229.024938 
L 117.761229 229.024938 
L 120.628233 229.024938 
L 123.495237 229.024938 
L 126.362241 229.024938 
L 129.229246 229.024938 
L 132.09625 229.024938 
L 134.963254 229.024938 
L 137.830259 229.024938 
L 140.697263 229.024938 
L 143.564267 229.024938 
L 146.431271 229.024938 
L 149.298276 229.024938 
L 152.16528 229.024938 
L 155.032284 229.024938 
L 157.899288 229.024938 
L 160.766293 229.024938 
L 163.633297 229.024938 
L 166.500301 229.024938 
L 169.367305 229.024938 
L 172.23431 229.024938 
L 175.101314 229.024938 
L 177.968318 229.024938 
L 180.835322 229.024938 
L 183.702327 229.024938 
L 186.569331 229.024938 
L 189.436335 229.024938 
L 192.303339 229.024938 
L 195.170344 229.024938 
L 198.037348 229.024938 
L 200.904352 229.024938 
L 203.771357 229.024938 
L 206.638361 229.024938 
L 209.505365 229.024938 
L 212.372369 229.024938 
L 215.239374 229.024938 
L 218.106378 229.024938 
L 220.973382 229.024938 
L 223.840386 229.024938 
L 226.707391 229.024938 
L 229.574395 229.024938 
L 232.441399 229.024938 
L 235.308403 229.024938 
L 238.175408 229.024938 
L 241.042412 229.024938 
L 243.909416 229.024938 
L 246.77642 229.024938 
L 249.643425 229.024938 
L 252.510429 229.024938 
L 255.377433 229.024938 
L 258.244437 229.024938 
L 261.111442 229.024938 
L 263.978446 229.024938 
L 266.84545 229.024938 
L 269.712455 229.024938 
L 272.579459 229.024938 
L 275.446463 229.024938 
L 278.313467 229.024938 
L 281.180472 229.024938 
L 284.047476 229.024938 
L 286.91448 229.024938 
L 289.781484 229.024938 
L 292.648489 229.024938 
L 295.515493 229.024938 
L 298.382497 229.024938 
L 301.249501 229.024938 
L 304.116506 229.024938 
L 306.98351 229.024938 
L 309.850514 229.024938 
L 312.717518 229.024938 
L 315.584523 229.024938 
L 318.451527 229.024938 
L 321.318531 229.024938 
L 324.185536 229.024938 
L 327.05254 229.024938 
L 329.919544 229.024938 
L 332.786548 229.024938 
L 335.653553 229.024938 
L 338.520557 229.024938 
L 341.387561 229.024938 
L 344.254565 229.024938 
L 347.12157 229.024938 
L 349.988574 229.024938 
L 352.855578 229.024938 
L 355.722582 229.024938 
L 358.589587 229.024938 
L 358.589587 225.423529 
L 358.589587 225.423529 
L 355.722582 228.149063 
L 352.855578 230.191369 
L 349.988574 231.419835 
L 347.12157 231.854634 
L 344.254565 231.611869 
L 341.387561 230.860735 
L 338.520557 229.790972 
L 335.653553 228.589007 
L 332.786548 227.421393 
L 329.919544 226.424253 
L 327.05254 225.697602 
L 324.185536 225.30354 
L 321.318531 225.26743 
L 318.451527 225.581289 
L 315.584523 226.208715 
L 312.717518 227.090793 
L 309.850514 228.152483 
L 306.98351 229.309091 
L 304.116506 230.472511 
L 301.249501 231.556954 
L 298.382497 232.483995 
L 295.515493 233.186783 
L 292.648489 233.613319 
L 289.781484 233.728776 
L 286.91448 233.516829 
L 284.047476 232.980035 
L 281.180472 232.139313 
L 278.313467 231.032602 
L 275.446463 229.712787 
L 272.579459 228.24502 
L 269.712455 226.703539 
L 266.84545 225.168129 
L 263.978446 223.720354 
L 261.111442 222.439693 
L 258.244437 221.399713 
L 255.377433 220.664411 
L 252.510429 220.284828 
L 249.643425 220.296072 
L 246.77642 220.714819 
L 243.909416 221.537397 
L 241.042412 222.738511 
L 238.175408 224.270673 
L 235.308403 226.064361 
L 232.441399 228.02894 
L 229.574395 230.054329 
L 226.707391 232.013414 
L 223.840386 233.765157 
L 220.973382 235.158355 
L 218.106378 229.018692 
L 215.239374 229.015976 
L 212.372369 237.489671 
L 209.505365 235.242712 
L 206.638361 231.818237 
L 203.771357 227.142209 
L 200.904352 221.169839 
L 198.037348 213.889116 
L 195.170344 205.323711 
L 192.303339 195.535178 
L 189.436335 184.624317 
L 186.569331 172.731633 
L 183.702327 160.036788 
L 180.835322 146.756986 
L 177.968318 133.144233 
L 175.101314 119.481437 
L 172.23431 106.077327 
L 169.367305 93.260201 
L 166.500301 81.370535 
L 163.633297 70.752509 
L 160.766293 61.744547 
L 157.899288 54.668993 
L 155.032284 49.821089 
L 152.16528 47.457461 
L 149.298276 47.78435 
L 146.431271 50.945904 
L 143.564267 57.012855 
L 140.697263 65.972001 
L 137.830259 77.716934 
L 134.963254 92.040551 
L 132.09625 108.629926 
L 129.229246 127.064195 
L 126.362241 146.816191 
L 123.495237 167.258638 
L 120.628233 187.675782 
L 117.761229 207.281446 
L 114.894224 225.244568 
L 112.02722 240.723393 
L 109.160216 252.909563 
L 106.293212 261.083496 
L 103.426207 264.682504 
L 100.559203 263.38326 
L 97.692199 257.20031 
L 94.825195 246.602466 
L 91.95819 232.649053 
L 89.091186 217.148086 
L 86.224182 202.838643 
L 83.357178 193.599784 
L 80.490173 194.688583 
L 77.623169 213.009942 
L 74.756165 257.421043 
z
" clip-path="url(#p07d16eb85f)" style="fill: #9467bd; fill-opacity: 0.166667"/>
   </g>
   <g id="PolyCollection_6">
    <path d="M 74.756165 210.447843 
L 74.756165 229.024938 
L 76.972226 229.024938 
L 79.188288 229.024938 
L 81.40435 229.024938 
L 83.620411 229.024938 
L 85.836473 229.024938 
L 88.052535 229.024938 
L 90.268596 229.024938 
L 92.484658 229.024938 
L 94.70072 229.024938 
L 96.916781 229.024938 
L 99.132843 229.024938 
L 101.348905 229.024938 
L 103.564966 229.024938 
L 105.781028 229.024938 
L 107.99709 229.024938 
L 110.213151 229.024938 
L 112.429213 229.024938 
L 114.645275 229.024938 
L 116.861336 229.024938 
L 119.077398 229.024938 
L 121.29346 229.024938 
L 123.509521 229.024938 
L 125.725583 229.024938 
L 127.941644 229.024938 
L 130.157706 229.024938 
L 132.373768 229.024938 
L 134.589829 229.024938 
L 136.805891 229.024938 
L 139.021953 229.024938 
L 141.238014 229.024938 
L 143.454076 229.024938 
L 145.670138 229.024938 
L 147.886199 229.024938 
L 150.102261 229.024938 
L 152.318323 229.024938 
L 154.534384 229.024938 
L 156.750446 229.024938 
L 158.966508 229.024938 
L 161.182569 229.024938 
L 163.398631 229.024938 
L 165.614693 229.024938 
L 167.830754 229.024938 
L 170.046816 229.024938 
L 172.262878 229.024938 
L 174.478939 229.024938 
L 176.695001 229.024938 
L 178.911063 229.024938 
L 181.127124 229.024938 
L 183.343186 229.024938 
L 185.559248 229.024938 
L 187.775309 229.024938 
L 189.991371 229.024938 
L 192.207432 229.024938 
L 194.423494 229.024938 
L 196.639556 229.024938 
L 198.855617 229.024938 
L 201.071679 229.024938 
L 203.287741 229.024938 
L 205.503802 229.024938 
L 207.719864 229.024938 
L 209.935926 229.024938 
L 212.151987 229.024938 
L 214.368049 229.024938 
L 216.584111 229.024938 
L 218.800172 229.024938 
L 221.016234 229.024938 
L 223.232296 229.024938 
L 225.448357 229.024938 
L 227.664419 229.024938 
L 229.880481 229.024938 
L 232.096542 229.024938 
L 234.312604 229.024938 
L 236.528666 229.024938 
L 238.744727 229.024938 
L 240.960789 229.024938 
L 243.176851 229.024938 
L 245.392912 229.024938 
L 247.608974 229.024938 
L 249.825036 229.024938 
L 252.041097 229.024938 
L 254.257159 229.024938 
L 256.47322 229.024938 
L 258.689282 229.024938 
L 260.905344 229.024938 
L 263.121405 229.024938 
L 265.337467 229.024938 
L 267.553529 229.024938 
L 269.76959 229.024938 
L 271.985652 229.024938 
L 274.201714 229.024938 
L 276.417775 229.024938 
L 278.633837 229.024938 
L 280.849899 229.024938 
L 283.06596 229.024938 
L 285.282022 229.024938 
L 287.498084 229.024938 
L 289.714145 229.024938 
L 291.930207 229.024938 
L 294.146269 229.024938 
L 294.146269 205.082986 
L 294.146269 205.082986 
L 291.930207 234.511034 
L 289.714145 245.638895 
L 287.498084 245.767583 
L 285.282022 240.145011 
L 283.06596 232.388422 
L 280.849899 224.842738 
L 278.633837 218.881861 
L 276.417775 215.159458 
L 274.201714 213.815232 
L 271.985652 214.642198 
L 269.76959 217.220011 
L 267.553529 221.01898 
L 265.337467 225.478941 
L 263.121405 230.066819 
L 260.905344 234.316298 
L 258.689282 237.852701 
L 256.47322 240.405815 
L 254.257159 241.813139 
L 252.041097 242.015692 
L 249.825036 241.048293 
L 247.608974 239.025945 
L 245.392912 236.127744 
L 243.176851 232.579502 
L 240.960789 228.636094 
L 238.744727 224.564343 
L 236.528666 220.627102 
L 234.312604 217.069032 
L 232.096542 214.104453 
L 229.880481 211.907516 
L 227.664419 210.604836 
L 225.448357 210.270629 
L 223.232296 210.924328 
L 221.016234 212.53056 
L 218.800172 215.001328 
L 216.584111 218.20018 
L 214.368049 221.948107 
L 212.151987 226.030895 
L 209.935926 230.207622 
L 207.719864 234.219992 
L 205.503802 237.802163 
L 203.287741 240.690784 
L 201.071679 242.634905 
L 198.855617 243.405467 
L 196.639556 242.804117 
L 194.423494 240.671065 
L 192.207432 236.891799 
L 189.991371 231.40243 
L 187.775309 224.193546 
L 185.559248 229.004293 
L 183.343186 229.003829 
L 181.127124 193.86326 
L 178.911063 181.123479 
L 176.695001 167.399653 
L 174.478939 152.985327 
L 172.262878 138.211273 
L 170.046816 123.436881 
L 167.830754 109.04036 
L 165.614693 95.408001 
L 163.398631 82.922736 
L 161.182569 71.952307 
L 158.966508 62.837347 
L 156.750446 55.879708 
L 154.534384 51.331378 
L 152.318323 49.384351 
L 150.102261 50.16179 
L 147.886199 53.710834 
L 145.670138 59.997386 
L 143.454076 68.90317 
L 141.238014 80.225352 
L 139.021953 93.678938 
L 136.805891 108.902128 
L 134.589829 125.464744 
L 132.373768 142.879759 
L 130.157706 160.617875 
L 127.941644 178.124996 
L 125.725583 194.842325 
L 123.509521 210.228681 
L 121.29346 223.7845 
L 119.077398 235.076812 
L 116.861336 243.764316 
L 114.645275 249.621487 
L 112.429213 252.560439 
L 110.213151 252.649037 
L 107.99709 250.123509 
L 105.781028 245.393553 
L 103.564966 239.037636 
L 101.348905 231.785904 
L 99.132843 224.487757 
L 96.916781 218.060854 
L 94.70072 213.417892 
L 92.484658 211.367147 
L 90.268596 212.482349 
L 88.052535 216.937012 
L 85.836473 224.297894 
L 83.620411 233.271772 
L 81.40435 241.399209 
L 79.188288 244.68844 
L 76.972226 237.181969 
L 74.756165 210.447843 
z
" clip-path="url(#p07d16eb85f)" style="fill: #8c564b; fill-opacity: 0.166667"/>
   </g>
   <g id="matplotlib.axis_1">
    <g id="xtick_1">
     <g id="line2d_1">
      <defs>
       <path id="m32d0de727d" d="M 0 0 
L 0 3.5 
" style="stroke: #000000; stroke-width: 0.8"/>
      </defs>
      <g>
       <use xlink:href="#m32d0de727d" x="74.756165" y="288.430125" style="stroke: #000000; stroke-width: 0.8"/>
      </g>
     </g>
     <g id="text_1">
      <!-- 0.0000 -->
      <g transform="translate(57.260852 303.028562) scale(0.1 -0.1)">
       <defs>
        <path id="DejaVuSans-30" d="M 2034 4250 
Q 1547 4250 1301 3770 
Q 1056 3291 1056 2328 
Q 1056 1369 1301 889 
Q 1547 409 2034 409 
Q 2525 409 2770 889 
Q 3016 1369 3016 2328 
Q 3016 3291 2770 3770 
Q 2525 4250 2034 4250 
z
M 2034 4750 
Q 2819 4750 3233 4129 
Q 3647 3509 3647 2328 
Q 3647 1150 3233 529 
Q 2819 -91 2034 -91 
Q 1250 -91 836 529 
Q 422 1150 422 2328 
Q 422 3509 836 4129 
Q 1250 4750 2034 4750 
z
" transform="scale(0.015625)"/>
        <path id="DejaVuSans-2e" d="M 684 794 
L 1344 794 
L 1344 0 
L 684 0 
L 684 794 
z
" transform="scale(0.015625)"/>
       </defs>
       <use xlink:href="#DejaVuSans-30"/>
       <use xlink:href="#DejaVuSans-2e" x="63.623047"/>
       <use xlink:href="#DejaVuSans-30" x="95.410156"/>
       <use xlink:href="#DejaVuSans-30" x="159.033203"/>
       <use xlink:href="#DejaVuSans-30" x="222.65625"/>
       <use xlink:href="#DejaVuSans-30" x="286.279297"/>
      </g>
     </g>
    </g>
    <g id="xtick_2">
     <g id="line2d_2">
      <g>
       <use xlink:href="#m32d0de727d" x="134.299963" y="288.430125" style="stroke: #000000; stroke-width: 0.8"/>
      </g>
     </g>
     <g id="text_2">
      <!-- 0.0005 -->
      <g transform="translate(116.80465 303.028562) scale(0.1 -0.1)">
       <defs>
        <path id="DejaVuSans-35" d="M 691 4666 
L 3169 4666 
L 3169 4134 
L 1269 4134 
L 1269 2991 
Q 1406 3038 1543 3061 
Q 1681 3084 1819 3084 
Q 2600 3084 3056 2656 
Q 3513 2228 3513 1497 
Q 3513 744 3044 326 
Q 2575 -91 1722 -91 
Q 1428 -91 1123 -41 
Q 819 9 494 109 
L 494 744 
Q 775 591 1075 516 
Q 1375 441 1709 441 
Q 2250 441 2565 725 
Q 2881 1009 2881 1497 
Q 2881 1984 2565 2268 
Q 2250 2553 1709 2553 
Q 1456 2553 1204 2497 
Q 953 2441 691 2322 
L 691 4666 
z
" transform="scale(0.015625)"/>
       </defs>
       <use xlink:href="#DejaVuSans-30"/>
       <use xlink:href="#DejaVuSans-2e" x="63.623047"/>
       <use xlink:href="#DejaVuSans-30" x="95.410156"/>
       <use xlink:href="#DejaVuSans-30" x="159.033203"/>
       <use xlink:href="#DejaVuSans-30" x="222.65625"/>
       <use xlink:href="#DejaVuSans-35" x="286.279297"/>
      </g>
     </g>
    </g>
    <g id="xtick_3">
     <g id="line2d_3">
      <g>
       <use xlink:href="#m32d0de727d" x="193.84376" y="288.430125" style="stroke: #000000; stroke-width: 0.8"/>
      </g>
     </g>
     <g id="text_3">
      <!-- 0.0010 -->
      <g transform="translate(176.348448 303.028562) scale(0.1 -0.1)">
       <defs>
        <path id="DejaVuSans-31" d="M 794 531 
L 1825 531 
L 1825 4091 
L 703 3866 
L 703 4441 
L 1819 4666 
L 2450 4666 
L 2450 531 
L 3481 531 
L 3481 0 
L 794 0 
L 794 531 
z
" transform="scale(0.015625)"/>
       </defs>
       <use xlink:href="#DejaVuSans-30"/>
       <use xlink:href="#DejaVuSans-2e" x="63.623047"/>
       <use xlink:href="#DejaVuSans-30" x="95.410156"/>
       <use xlink:href="#DejaVuSans-30" x="159.033203"/>
       <use xlink:href="#DejaVuSans-31" x="222.65625"/>
       <use xlink:href="#DejaVuSans-30" x="286.279297"/>
      </g>
     </g>
    </g>
    <g id="xtick_4">
     <g id="line2d_4">
      <g>
       <use xlink:href="#m32d0de727d" x="253.387558" y="288.430125" style="stroke: #000000; stroke-width: 0.8"/>
      </g>
     </g>
     <g id="text_4">
      <!-- 0.0015 -->
      <g transform="translate(235.892246 303.028562) scale(0.1 -0.1)">
       <use xlink:href="#DejaVuSans-30"/>
       <use xlink:href="#DejaVuSans-2e" x="63.623047"/>
       <use xlink:href="#DejaVuSans-30" x="95.410156"/>
       <use xlink:href="#DejaVuSans-30" x="159.033203"/>
       <use xlink:href="#DejaVuSans-31" x="222.65625"/>
       <use xlink:href="#DejaVuSans-35" x="286.279297"/>
      </g>
     </g>
    </g>
    <g id="xtick_5">
     <g id="line2d_5">
      <g>
       <use xlink:href="#m32d0de727d" x="312.931356" y="288.430125" style="stroke: #000000; stroke-width: 0.8"/>
      </g>
     </g>
     <g id="text_5">
      <!-- 0.0020 -->
      <g transform="translate(295.436043 303.028562) scale(0.1 -0.1)">
       <defs>
        <path id="DejaVuSans-32" d="M 1228 531 
L 3431 531 
L 3431 0 
L 469 0 
L 469 531 
Q 828 903 1448 1529 
Q 2069 2156 2228 2338 
Q 2531 2678 2651 2914 
Q 2772 3150 2772 3378 
Q 2772 3750 2511 3984 
Q 2250 4219 1831 4219 
Q 1534 4219 1204 4116 
Q 875 4013 500 3803 
L 500 4441 
Q 881 4594 1212 4672 
Q 1544 4750 1819 4750 
Q 2544 4750 2975 4387 
Q 3406 4025 3406 3419 
Q 3406 3131 3298 2873 
Q 3191 2616 2906 2266 
Q 2828 2175 2409 1742 
Q 1991 1309 1228 531 
z
" transform="scale(0.015625)"/>
       </defs>
       <use xlink:href="#DejaVuSans-30"/>
       <use xlink:href="#DejaVuSans-2e" x="63.623047"/>
       <use xlink:href="#DejaVuSans-30" x="95.410156"/>
       <use xlink:href="#DejaVuSans-30" x="159.033203"/>
       <use xlink:href="#DejaVuSans-32" x="222.65625"/>
       <use xlink:href="#DejaVuSans-30" x="286.279297"/>
      </g>
     </g>
    </g>
    <g id="xtick_6">
     <g id="line2d_6">
      <g>
       <use xlink:href="#m32d0de727d" x="372.475154" y="288.430125" style="stroke: #000000; stroke-width: 0.8"/>
      </g>
     </g>
     <g id="text_6">
      <!-- 0.0025 -->
      <g transform="translate(354.979841 303.028562) scale(0.1 -0.1)">
       <use xlink:href="#DejaVuSans-30"/>
       <use xlink:href="#DejaVuSans-2e" x="63.623047"/>
       <use xlink:href="#DejaVuSans-30" x="95.410156"/>
       <use xlink:href="#DejaVuSans-30" x="159.033203"/>
       <use xlink:href="#DejaVuSans-32" x="222.65625"/>
       <use xlink:href="#DejaVuSans-35" x="286.279297"/>
      </g>
     </g>
    </g>
    <g id="text_7">
     <!-- Pixel values -->
     <g transform="translate(207.671719 316.706687) scale(0.1 -0.1)">
      <defs>
       <path id="DejaVuSans-50" d="M 1259 4147 
L 1259 2394 
L 2053 2394 
Q 2494 2394 2734 2622 
Q 2975 2850 2975 3272 
Q 2975 3691 2734 3919 
Q 2494 4147 2053 4147 
L 1259 4147 
z
M 628 4666 
L 2053 4666 
Q 2838 4666 3239 4311 
Q 3641 3956 3641 3272 
Q 3641 2581 3239 2228 
Q 2838 1875 2053 1875 
L 1259 1875 
L 1259 0 
L 628 0 
L 628 4666 
z
" transform="scale(0.015625)"/>
       <path id="DejaVuSans-69" d="M 603 3500 
L 1178 3500 
L 1178 0 
L 603 0 
L 603 3500 
z
M 603 4863 
L 1178 4863 
L 1178 4134 
L 603 4134 
L 603 4863 
z
" transform="scale(0.015625)"/>
       <path id="DejaVuSans-78" d="M 3513 3500 
L 2247 1797 
L 3578 0 
L 2900 0 
L 1881 1375 
L 863 0 
L 184 0 
L 1544 1831 
L 300 3500 
L 978 3500 
L 1906 2253 
L 2834 3500 
L 3513 3500 
z
" transform="scale(0.015625)"/>
       <path id="DejaVuSans-65" d="M 3597 1894 
L 3597 1613 
L 953 1613 
Q 991 1019 1311 708 
Q 1631 397 2203 397 
Q 2534 397 2845 478 
Q 3156 559 3463 722 
L 3463 178 
Q 3153 47 2828 -22 
Q 2503 -91 2169 -91 
Q 1331 -91 842 396 
Q 353 884 353 1716 
Q 353 2575 817 3079 
Q 1281 3584 2069 3584 
Q 2775 3584 3186 3129 
Q 3597 2675 3597 1894 
z
M 3022 2063 
Q 3016 2534 2758 2815 
Q 2500 3097 2075 3097 
Q 1594 3097 1305 2825 
Q 1016 2553 972 2059 
L 3022 2063 
z
" transform="scale(0.015625)"/>
       <path id="DejaVuSans-6c" d="M 603 4863 
L 1178 4863 
L 1178 0 
L 603 0 
L 603 4863 
z
" transform="scale(0.015625)"/>
       <path id="DejaVuSans-20" transform="scale(0.015625)"/>
       <path id="DejaVuSans-76" d="M 191 3500 
L 800 3500 
L 1894 563 
L 2988 3500 
L 3597 3500 
L 2284 0 
L 1503 0 
L 191 3500 
z
" transform="scale(0.015625)"/>
       <path id="DejaVuSans-61" d="M 2194 1759 
Q 1497 1759 1228 1600 
Q 959 1441 959 1056 
Q 959 750 1161 570 
Q 1363 391 1709 391 
Q 2188 391 2477 730 
Q 2766 1069 2766 1631 
L 2766 1759 
L 2194 1759 
z
M 3341 1997 
L 3341 0 
L 2766 0 
L 2766 531 
Q 2569 213 2275 61 
Q 1981 -91 1556 -91 
Q 1019 -91 701 211 
Q 384 513 384 1019 
Q 384 1609 779 1909 
Q 1175 2209 1959 2209 
L 2766 2209 
L 2766 2266 
Q 2766 2663 2505 2880 
Q 2244 3097 1772 3097 
Q 1472 3097 1187 3025 
Q 903 2953 641 2809 
L 641 3341 
Q 956 3463 1253 3523 
Q 1550 3584 1831 3584 
Q 2591 3584 2966 3190 
Q 3341 2797 3341 1997 
z
" transform="scale(0.015625)"/>
       <path id="DejaVuSans-75" d="M 544 1381 
L 544 3500 
L 1119 3500 
L 1119 1403 
Q 1119 906 1312 657 
Q 1506 409 1894 409 
Q 2359 409 2629 706 
Q 2900 1003 2900 1516 
L 2900 3500 
L 3475 3500 
L 3475 0 
L 2900 0 
L 2900 538 
Q 2691 219 2414 64 
Q 2138 -91 1772 -91 
Q 1169 -91 856 284 
Q 544 659 544 1381 
z
M 1991 3584 
L 1991 3584 
z
" transform="scale(0.015625)"/>
       <path id="DejaVuSans-73" d="M 2834 3397 
L 2834 2853 
Q 2591 2978 2328 3040 
Q 2066 3103 1784 3103 
Q 1356 3103 1142 2972 
Q 928 2841 928 2578 
Q 928 2378 1081 2264 
Q 1234 2150 1697 2047 
L 1894 2003 
Q 2506 1872 2764 1633 
Q 3022 1394 3022 966 
Q 3022 478 2636 193 
Q 2250 -91 1575 -91 
Q 1294 -91 989 -36 
Q 684 19 347 128 
L 347 722 
Q 666 556 975 473 
Q 1284 391 1588 391 
Q 1994 391 2212 530 
Q 2431 669 2431 922 
Q 2431 1156 2273 1281 
Q 2116 1406 1581 1522 
L 1381 1569 
Q 847 1681 609 1914 
Q 372 2147 372 2553 
Q 372 3047 722 3315 
Q 1072 3584 1716 3584 
Q 2034 3584 2315 3537 
Q 2597 3491 2834 3397 
z
" transform="scale(0.015625)"/>
      </defs>
      <use xlink:href="#DejaVuSans-50"/>
      <use xlink:href="#DejaVuSans-69" x="58.052734"/>
      <use xlink:href="#DejaVuSans-78" x="85.835938"/>
      <use xlink:href="#DejaVuSans-65" x="141.890625"/>
      <use xlink:href="#DejaVuSans-6c" x="203.414062"/>
      <use xlink:href="#DejaVuSans-20" x="231.197266"/>
      <use xlink:href="#DejaVuSans-76" x="262.984375"/>
      <use xlink:href="#DejaVuSans-61" x="322.164062"/>
      <use xlink:href="#DejaVuSans-6c" x="383.443359"/>
      <use xlink:href="#DejaVuSans-75" x="411.226562"/>
      <use xlink:href="#DejaVuSans-65" x="474.605469"/>
      <use xlink:href="#DejaVuSans-73" x="536.128906"/>
     </g>
    </g>
   </g>
   <g id="matplotlib.axis_2">
    <g id="ytick_1">
     <g id="line2d_7">
      <defs>
       <path id="mc7cd93675c" d="M 0 0 
L -3.5 0 
" style="stroke: #000000; stroke-width: 0.8"/>
      </defs>
      <g>
       <use xlink:href="#mc7cd93675c" x="58.523438" y="260.400989" style="stroke: #000000; stroke-width: 0.8"/>
      </g>
     </g>
     <g id="text_8">
      <!-- −0.01 -->
      <g transform="translate(20.878125 264.200208) scale(0.1 -0.1)">
       <defs>
        <path id="DejaVuSans-2212" d="M 678 2272 
L 4684 2272 
L 4684 1741 
L 678 1741 
L 678 2272 
z
" transform="scale(0.015625)"/>
       </defs>
       <use xlink:href="#DejaVuSans-2212"/>
       <use xlink:href="#DejaVuSans-30" x="83.789062"/>
       <use xlink:href="#DejaVuSans-2e" x="147.412109"/>
       <use xlink:href="#DejaVuSans-30" x="179.199219"/>
       <use xlink:href="#DejaVuSans-31" x="242.822266"/>
      </g>
     </g>
    </g>
    <g id="ytick_2">
     <g id="line2d_8">
      <g>
       <use xlink:href="#mc7cd93675c" x="58.523438" y="229.024938" style="stroke: #000000; stroke-width: 0.8"/>
      </g>
     </g>
     <g id="text_9">
      <!-- 0.00 -->
      <g transform="translate(29.257813 232.824156) scale(0.1 -0.1)">
       <use xlink:href="#DejaVuSans-30"/>
       <use xlink:href="#DejaVuSans-2e" x="63.623047"/>
       <use xlink:href="#DejaVuSans-30" x="95.410156"/>
       <use xlink:href="#DejaVuSans-30" x="159.033203"/>
      </g>
     </g>
    </g>
    <g id="ytick_3">
     <g id="line2d_9">
      <g>
       <use xlink:href="#mc7cd93675c" x="58.523438" y="197.648886" style="stroke: #000000; stroke-width: 0.8"/>
      </g>
     </g>
     <g id="text_10">
      <!-- 0.01 -->
      <g transform="translate(29.257813 201.448105) scale(0.1 -0.1)">
       <use xlink:href="#DejaVuSans-30"/>
       <use xlink:href="#DejaVuSans-2e" x="63.623047"/>
       <use xlink:href="#DejaVuSans-30" x="95.410156"/>
       <use xlink:href="#DejaVuSans-31" x="159.033203"/>
      </g>
     </g>
    </g>
    <g id="ytick_4">
     <g id="line2d_10">
      <g>
       <use xlink:href="#mc7cd93675c" x="58.523438" y="166.272835" style="stroke: #000000; stroke-width: 0.8"/>
      </g>
     </g>
     <g id="text_11">
      <!-- 0.02 -->
      <g transform="translate(29.257813 170.072054) scale(0.1 -0.1)">
       <use xlink:href="#DejaVuSans-30"/>
       <use xlink:href="#DejaVuSans-2e" x="63.623047"/>
       <use xlink:href="#DejaVuSans-30" x="95.410156"/>
       <use xlink:href="#DejaVuSans-32" x="159.033203"/>
      </g>
     </g>
    </g>
    <g id="ytick_5">
     <g id="line2d_11">
      <g>
       <use xlink:href="#mc7cd93675c" x="58.523438" y="134.896784" style="stroke: #000000; stroke-width: 0.8"/>
      </g>
     </g>
     <g id="text_12">
      <!-- 0.03 -->
      <g transform="translate(29.257813 138.696003) scale(0.1 -0.1)">
       <defs>
        <path id="DejaVuSans-33" d="M 2597 2516 
Q 3050 2419 3304 2112 
Q 3559 1806 3559 1356 
Q 3559 666 3084 287 
Q 2609 -91 1734 -91 
Q 1441 -91 1130 -33 
Q 819 25 488 141 
L 488 750 
Q 750 597 1062 519 
Q 1375 441 1716 441 
Q 2309 441 2620 675 
Q 2931 909 2931 1356 
Q 2931 1769 2642 2001 
Q 2353 2234 1838 2234 
L 1294 2234 
L 1294 2753 
L 1863 2753 
Q 2328 2753 2575 2939 
Q 2822 3125 2822 3475 
Q 2822 3834 2567 4026 
Q 2313 4219 1838 4219 
Q 1578 4219 1281 4162 
Q 984 4106 628 3988 
L 628 4550 
Q 988 4650 1302 4700 
Q 1616 4750 1894 4750 
Q 2613 4750 3031 4423 
Q 3450 4097 3450 3541 
Q 3450 3153 3228 2886 
Q 3006 2619 2597 2516 
z
" transform="scale(0.015625)"/>
       </defs>
       <use xlink:href="#DejaVuSans-30"/>
       <use xlink:href="#DejaVuSans-2e" x="63.623047"/>
       <use xlink:href="#DejaVuSans-30" x="95.410156"/>
       <use xlink:href="#DejaVuSans-33" x="159.033203"/>
      </g>
     </g>
    </g>
    <g id="ytick_6">
     <g id="line2d_12">
      <g>
       <use xlink:href="#mc7cd93675c" x="58.523438" y="103.520733" style="stroke: #000000; stroke-width: 0.8"/>
      </g>
     </g>
     <g id="text_13">
      <!-- 0.04 -->
      <g transform="translate(29.257813 107.319952) scale(0.1 -0.1)">
       <defs>
        <path id="DejaVuSans-34" d="M 2419 4116 
L 825 1625 
L 2419 1625 
L 2419 4116 
z
M 2253 4666 
L 3047 4666 
L 3047 1625 
L 3713 1625 
L 3713 1100 
L 3047 1100 
L 3047 0 
L 2419 0 
L 2419 1100 
L 313 1100 
L 313 1709 
L 2253 4666 
z
" transform="scale(0.015625)"/>
       </defs>
       <use xlink:href="#DejaVuSans-30"/>
       <use xlink:href="#DejaVuSans-2e" x="63.623047"/>
       <use xlink:href="#DejaVuSans-30" x="95.410156"/>
       <use xlink:href="#DejaVuSans-34" x="159.033203"/>
      </g>
     </g>
    </g>
    <g id="ytick_7">
     <g id="line2d_13">
      <g>
       <use xlink:href="#mc7cd93675c" x="58.523438" y="72.144682" style="stroke: #000000; stroke-width: 0.8"/>
      </g>
     </g>
     <g id="text_14">
      <!-- 0.05 -->
      <g transform="translate(29.257813 75.943901) scale(0.1 -0.1)">
       <use xlink:href="#DejaVuSans-30"/>
       <use xlink:href="#DejaVuSans-2e" x="63.623047"/>
       <use xlink:href="#DejaVuSans-30" x="95.410156"/>
       <use xlink:href="#DejaVuSans-35" x="159.033203"/>
      </g>
     </g>
    </g>
    <g id="ytick_8">
     <g id="line2d_14">
      <g>
       <use xlink:href="#mc7cd93675c" x="58.523438" y="40.768631" style="stroke: #000000; stroke-width: 0.8"/>
      </g>
     </g>
     <g id="text_15">
      <!-- 0.06 -->
      <g transform="translate(29.257813 44.567849) scale(0.1 -0.1)">
       <defs>
        <path id="DejaVuSans-36" d="M 2113 2584 
Q 1688 2584 1439 2293 
Q 1191 2003 1191 1497 
Q 1191 994 1439 701 
Q 1688 409 2113 409 
Q 2538 409 2786 701 
Q 3034 994 3034 1497 
Q 3034 2003 2786 2293 
Q 2538 2584 2113 2584 
z
M 3366 4563 
L 3366 3988 
Q 3128 4100 2886 4159 
Q 2644 4219 2406 4219 
Q 1781 4219 1451 3797 
Q 1122 3375 1075 2522 
Q 1259 2794 1537 2939 
Q 1816 3084 2150 3084 
Q 2853 3084 3261 2657 
Q 3669 2231 3669 1497 
Q 3669 778 3244 343 
Q 2819 -91 2113 -91 
Q 1303 -91 875 529 
Q 447 1150 447 2328 
Q 447 3434 972 4092 
Q 1497 4750 2381 4750 
Q 2619 4750 2861 4703 
Q 3103 4656 3366 4563 
z
" transform="scale(0.015625)"/>
       </defs>
       <use xlink:href="#DejaVuSans-30"/>
       <use xlink:href="#DejaVuSans-2e" x="63.623047"/>
       <use xlink:href="#DejaVuSans-30" x="95.410156"/>
       <use xlink:href="#DejaVuSans-36" x="159.033203"/>
      </g>
     </g>
    </g>
    <g id="text_16">
     <!-- Frequency -->
     <g transform="translate(14.798438 181.203812) rotate(-90) scale(0.1 -0.1)">
      <defs>
       <path id="DejaVuSans-46" d="M 628 4666 
L 3309 4666 
L 3309 4134 
L 1259 4134 
L 1259 2759 
L 3109 2759 
L 3109 2228 
L 1259 2228 
L 1259 0 
L 628 0 
L 628 4666 
z
" transform="scale(0.015625)"/>
       <path id="DejaVuSans-72" d="M 2631 2963 
Q 2534 3019 2420 3045 
Q 2306 3072 2169 3072 
Q 1681 3072 1420 2755 
Q 1159 2438 1159 1844 
L 1159 0 
L 581 0 
L 581 3500 
L 1159 3500 
L 1159 2956 
Q 1341 3275 1631 3429 
Q 1922 3584 2338 3584 
Q 2397 3584 2469 3576 
Q 2541 3569 2628 3553 
L 2631 2963 
z
" transform="scale(0.015625)"/>
       <path id="DejaVuSans-71" d="M 947 1747 
Q 947 1113 1208 752 
Q 1469 391 1925 391 
Q 2381 391 2643 752 
Q 2906 1113 2906 1747 
Q 2906 2381 2643 2742 
Q 2381 3103 1925 3103 
Q 1469 3103 1208 2742 
Q 947 2381 947 1747 
z
M 2906 525 
Q 2725 213 2448 61 
Q 2172 -91 1784 -91 
Q 1150 -91 751 415 
Q 353 922 353 1747 
Q 353 2572 751 3078 
Q 1150 3584 1784 3584 
Q 2172 3584 2448 3432 
Q 2725 3281 2906 2969 
L 2906 3500 
L 3481 3500 
L 3481 -1331 
L 2906 -1331 
L 2906 525 
z
" transform="scale(0.015625)"/>
       <path id="DejaVuSans-6e" d="M 3513 2113 
L 3513 0 
L 2938 0 
L 2938 2094 
Q 2938 2591 2744 2837 
Q 2550 3084 2163 3084 
Q 1697 3084 1428 2787 
Q 1159 2491 1159 1978 
L 1159 0 
L 581 0 
L 581 3500 
L 1159 3500 
L 1159 2956 
Q 1366 3272 1645 3428 
Q 1925 3584 2291 3584 
Q 2894 3584 3203 3211 
Q 3513 2838 3513 2113 
z
" transform="scale(0.015625)"/>
       <path id="DejaVuSans-63" d="M 3122 3366 
L 3122 2828 
Q 2878 2963 2633 3030 
Q 2388 3097 2138 3097 
Q 1578 3097 1268 2742 
Q 959 2388 959 1747 
Q 959 1106 1268 751 
Q 1578 397 2138 397 
Q 2388 397 2633 464 
Q 2878 531 3122 666 
L 3122 134 
Q 2881 22 2623 -34 
Q 2366 -91 2075 -91 
Q 1284 -91 818 406 
Q 353 903 353 1747 
Q 353 2603 823 3093 
Q 1294 3584 2113 3584 
Q 2378 3584 2631 3529 
Q 2884 3475 3122 3366 
z
" transform="scale(0.015625)"/>
       <path id="DejaVuSans-79" d="M 2059 -325 
Q 1816 -950 1584 -1140 
Q 1353 -1331 966 -1331 
L 506 -1331 
L 506 -850 
L 844 -850 
Q 1081 -850 1212 -737 
Q 1344 -625 1503 -206 
L 1606 56 
L 191 3500 
L 800 3500 
L 1894 763 
L 2988 3500 
L 3597 3500 
L 2059 -325 
z
" transform="scale(0.015625)"/>
      </defs>
      <use xlink:href="#DejaVuSans-46"/>
      <use xlink:href="#DejaVuSans-72" x="50.269531"/>
      <use xlink:href="#DejaVuSans-65" x="89.132812"/>
      <use xlink:href="#DejaVuSans-71" x="150.65625"/>
      <use xlink:href="#DejaVuSans-75" x="214.132812"/>
      <use xlink:href="#DejaVuSans-65" x="277.511719"/>
      <use xlink:href="#DejaVuSans-6e" x="339.035156"/>
      <use xlink:href="#DejaVuSans-63" x="402.414062"/>
      <use xlink:href="#DejaVuSans-79" x="457.394531"/>
     </g>
    </g>
   </g>
   <g id="line2d_15">
    <path d="M 74.756165 275.848692 
L 78.035504 215.477728 
L 81.314842 190.262921 
L 84.594181 187.940565 
L 87.87352 199.086302 
L 91.152859 216.643306 
L 94.432198 235.508396 
L 97.711537 252.170868 
L 100.990876 264.39915 
L 104.270214 270.9707 
L 107.549553 271.440894 
L 110.828892 265.946912 
L 114.108231 255.042928 
L 117.38757 239.563176 
L 120.666909 220.509723 
L 123.946247 198.962001 
L 127.225586 176.005411 
L 130.504925 152.676513 
L 133.784264 129.922536 
L 137.063603 108.573131 
L 140.342942 89.322487 
L 143.62228 72.72011 
L 146.901619 59.168712 
L 150.180958 48.927852 
L 153.460297 42.122082 
L 156.739636 38.752519 
L 160.018975 38.710877 
L 163.298314 41.795124 
L 166.577652 47.726045 
L 169.856991 56.164083 
L 173.13633 66.725949 
L 176.415669 79.000559 
L 179.695008 92.563961 
L 182.974347 106.992974 
L 186.253685 121.877332 
L 189.533024 136.830199 
L 192.812363 151.496961 
L 196.091702 165.562263 
L 199.371041 178.755295 
L 202.65038 190.853371 
L 205.929718 201.683883 
L 209.209057 211.124727 
L 212.488396 219.103335 
L 215.767735 225.594457 
L 219.047074 230.616855 
L 222.326413 234.229067 
L 225.605752 236.52444 
L 228.88509 237.625583 
L 232.164429 237.678436 
L 235.443768 229.01843 
L 238.723107 229.021268 
L 242.002446 230.055055 
L 245.281785 227.435563 
L 248.561123 224.801647 
L 251.840462 222.3125 
L 255.119801 220.104071 
L 258.39914 218.285871 
L 261.678479 216.938834 
L 264.957818 216.114248 
L 268.237157 215.833763 
L 271.516495 216.090431 
L 274.795834 216.850727 
L 278.075173 218.057467 
L 281.354512 219.633508 
L 284.633851 221.486103 
L 287.91319 223.511766 
L 291.192528 225.601466 
L 294.471867 227.64598 
L 297.751206 229.541218 
L 301.030545 231.193309 
L 304.309884 232.523267 
L 307.589223 233.471029 
L 310.868561 233.998693 
L 314.1479 234.092776 
L 317.427239 233.765351 
L 320.706578 233.053926 
L 323.985917 232.020004 
L 327.265256 230.74625 
L 330.544595 229.332281 
L 333.823933 227.88915 
L 337.103272 226.532626 
L 340.382611 225.375503 
L 343.66195 224.519197 
L 346.941289 224.04503 
L 350.220628 224.005686 
L 353.499966 224.417432 
L 356.779305 225.253835 
L 360.058644 226.441851 
L 363.337983 227.861282 
L 366.617322 229.348796 
L 369.896661 230.707855 
L 373.175999 231.726082 
L 376.455338 232.201825 
L 379.734677 231.981867 
L 383.014016 231.012449 
L 386.293355 229.406078 
L 389.572694 227.526755 
L 392.852033 226.096642 
L 396.131371 226.327373 
L 399.41071 230.079611 
" clip-path="url(#p07d16eb85f)" style="fill: none; stroke: #1f77b4; stroke-width: 1.5; stroke-linecap: square"/>
   </g>
   <g id="line2d_16">
    <path d="M 74.756165 274.307273 
L 77.860385 215.235006 
L 80.964605 192.031237 
L 84.068825 191.629882 
L 87.173045 204.114012 
L 90.277265 222.171627 
L 93.381485 240.620957 
L 96.485705 255.998761 
L 99.589924 266.205525 
L 102.694144 270.201879 
L 105.798364 267.750953 
L 108.902584 259.201753 
L 112.006804 245.309018 
L 115.111024 227.085357 
L 118.215244 205.681786 
L 121.319464 182.29311 
L 124.423684 158.084883 
L 127.527904 134.138962 
L 130.632124 111.414941 
L 133.736344 90.725001 
L 136.840564 72.719946 
L 139.944784 57.884432 
L 143.049004 46.539589 
L 146.153224 38.851455 
L 149.257444 34.8438 
L 152.361664 34.414125 
L 155.465884 37.351748 
L 158.570104 43.357064 
L 161.674324 52.061187 
L 164.778544 63.045329 
L 167.882764 75.859368 
L 170.986984 90.039172 
L 174.091204 105.122355 
L 177.195424 120.662213 
L 180.299644 136.23967 
L 183.403863 151.47315 
L 186.508083 166.026325 
L 189.612303 179.613779 
L 192.716523 192.004645 
L 195.820743 203.024325 
L 198.924963 212.554442 
L 202.029183 220.531178 
L 205.133403 226.942213 
L 208.237623 231.822441 
L 211.341843 235.248699 
L 214.446063 237.333723 
L 217.550283 238.219549 
L 220.654503 238.070574 
L 223.758723 237.066502 
L 226.862943 229.020801 
L 229.967163 229.02336 
L 233.071383 228.144041 
L 236.175603 225.326661 
L 239.279823 222.693591 
L 242.384043 220.387258 
L 245.488263 218.520417 
L 248.592483 217.173938 
L 251.696703 216.395822 
L 254.800923 216.201421 
L 257.905143 216.57484 
L 261.009363 217.471433 
L 264.113582 218.821304 
L 267.217802 220.53367 
L 270.322022 222.501951 
L 273.426242 224.609385 
L 276.530462 226.734994 
L 279.634682 228.759675 
L 282.738902 230.572199 
L 285.843122 232.074889 
L 288.947342 233.188748 
L 292.051562 233.857815 
L 295.155782 234.052527 
L 298.260002 233.77191 
L 301.364222 233.044417 
L 304.468442 231.927278 
L 307.572662 230.50428 
L 310.676882 228.881924 
L 313.781102 227.183975 
L 316.885322 225.544501 
L 319.989542 224.099554 
L 323.093762 222.977763 
L 326.197982 222.290182 
L 329.302202 222.119874 
L 332.406422 222.511825 
L 335.510642 223.463919 
L 338.614862 224.919857 
L 341.719082 226.765086 
L 344.823302 228.826938 
L 347.927521 230.880428 
L 351.031741 232.66133 
L 354.135961 233.888385 
L 357.240181 234.296735 
L 360.344401 233.684941 
L 363.448621 231.978201 
L 366.552841 229.310701 
L 369.657061 226.130294 
L 372.761281 223.329098 
L 375.865501 222.403884 
L 378.969721 225.650531 
L 382.073941 236.397203 
" clip-path="url(#p07d16eb85f)" style="fill: none; stroke: #ff7f0e; stroke-width: 1.5; stroke-linecap: square"/>
   </g>
   <g id="line2d_17">
    <path d="M 74.756165 195.600878 
L 77.42492 214.044376 
L 80.093675 223.793857 
L 82.762431 227.946955 
L 85.431186 228.785574 
L 88.099941 227.934463 
L 90.768697 226.49685 
L 93.437452 225.169591 
L 96.106207 224.340074 
L 98.774963 224.166961 
L 101.443718 224.646685 
L 104.112473 225.667463 
L 106.781229 227.052432 
L 109.449984 228.593385 
L 112.118739 230.076439 
L 114.787495 231.300845 
L 117.45625 232.092044 
L 120.125005 232.309936 
L 122.79376 231.853259 
L 125.462516 230.660832 
L 128.131271 228.710372 
L 130.800026 226.015482 
L 133.468782 222.621319 
L 136.137537 218.599413 
L 138.806292 214.042004 
L 141.475048 209.05622 
L 144.143803 203.758364 
L 146.812558 198.268506 
L 149.481314 192.705565 
L 152.150069 187.182976 
L 154.818824 181.805052 
L 157.48758 176.664062 
L 160.156335 171.838069 
L 162.82509 167.389509 
L 165.493846 163.364483 
L 168.162601 159.792721 
L 170.831356 156.688155 
L 173.500111 154.050025 
L 176.168867 151.864439 
L 178.837622 150.1063 
L 181.506377 148.741504 
L 184.175133 147.729319 
L 186.843888 147.024855 
L 189.512643 146.581529 
L 192.181399 146.353451 
L 194.850154 146.297647 
L 197.518909 146.376047 
L 200.187665 146.557184 
L 202.85642 146.817553 
L 205.525175 229.009067 
L 208.193931 229.009491 
L 210.862686 147.360162 
L 213.531441 148.023534 
L 216.200197 148.814889 
L 218.868952 149.756378 
L 221.537707 150.87501 
L 224.206462 152.201221 
L 226.875218 153.767217 
L 229.543973 155.605137 
L 232.212728 157.745106 
L 234.881484 160.213231 
L 237.550239 163.029614 
L 240.218994 166.206446 
L 242.88775 169.746271 
L 245.556505 173.640478 
L 248.22526 177.868115 
L 250.894016 182.395074 
L 253.562771 187.173735 
L 256.231526 192.143111 
L 258.900282 197.22956 
L 261.569037 202.348089 
L 264.237792 207.404283 
L 266.906548 212.296861 
L 269.575303 216.920855 
L 272.244058 221.17136 
L 274.912813 224.947811 
L 277.581569 228.158682 
L 280.250324 230.726491 
L 282.919079 232.592945 
L 285.587835 233.72402 
L 288.25659 234.114742 
L 290.925345 233.793358 
L 293.594101 232.824567 
L 296.262856 231.311386 
L 298.931611 229.395206 
L 301.600367 227.253494 
L 304.269122 225.094533 
L 306.937877 223.148535 
L 309.606633 221.654352 
L 312.275388 220.840948 
L 314.944143 220.902687 
L 317.612899 221.967398 
L 320.281654 224.056087 
L 322.950409 227.033043 
L 325.619164 230.544963 
L 328.28792 233.947631 
L 330.956675 236.218524 
L 333.62543 235.853607 
L 336.294186 230.746419 
L 338.962941 218.047432 
" clip-path="url(#p07d16eb85f)" style="fill: none; stroke: #2ca02c; stroke-width: 1.5; stroke-linecap: square"/>
   </g>
   <g id="line2d_18">
    <path d="M 74.756165 276.334125 
L 78.000043 215.961901 
L 81.243922 190.999807 
L 84.4878 189.017423 
L 87.731679 200.475092 
L 90.975557 218.241905 
L 94.219436 237.173043 
L 97.463314 253.741126 
L 100.707193 265.716533 
L 103.951071 271.892002 
L 107.19495 271.847114 
L 110.438828 265.748598 
L 113.682706 254.182635 
L 116.926585 238.015671 
L 120.170463 218.280449 
L 123.414342 196.084283 
L 126.65822 172.53678 
L 129.902099 148.694488 
L 133.145977 125.52013 
L 136.389856 103.85431 
L 139.633734 84.39776 
L 142.877613 67.702385 
L 146.121491 54.169532 
L 149.36537 44.054073 
L 152.609248 37.473051 
L 155.853127 34.417767 
L 159.097005 34.768339 
L 162.340884 38.309875 
L 165.584762 44.749521 
L 168.828641 53.733762 
L 172.072519 64.865441 
L 175.316397 77.720067 
L 178.560276 91.86105 
L 181.804154 106.853603 
L 185.048033 122.277089 
L 188.291911 137.73569 
L 191.53579 152.867296 
L 194.779668 167.350596 
L 198.023547 180.91037 
L 201.267425 193.321034 
L 204.511304 204.408521 
L 207.755182 214.050613 
L 210.999061 222.175844 
L 214.242939 228.761139 
L 217.486818 233.828346 
L 220.730696 237.439837 
L 223.974575 239.693368 
L 227.218453 240.71636 
L 230.462332 240.659809 
L 233.70621 229.018766 
L 236.950088 229.021594 
L 240.193967 232.65669 
L 243.437845 229.846684 
L 246.681724 227.010814 
L 249.925602 224.3126 
L 253.169481 221.892012 
L 256.413359 219.862223 
L 259.657238 218.307429 
L 262.901116 217.281753 
L 266.144995 216.809241 
L 269.388873 216.8849 
L 272.632752 217.47673 
L 275.87663 218.528666 
L 279.120509 219.964304 
L 282.364387 221.691299 
L 285.608266 223.606265 
L 288.852144 225.600024 
L 292.096023 227.563003 
L 295.339901 229.390603 
L 298.583779 230.988332 
L 301.827658 232.27651 
L 305.071536 233.19434 
L 308.315415 233.703169 
L 311.559293 233.788759 
L 314.803172 233.462432 
L 318.04705 232.760942 
L 321.290929 231.745019 
L 324.534807 230.496501 
L 327.778686 229.114105 
L 331.022564 227.707853 
L 334.266443 226.392321 
L 337.510321 225.278902 
L 340.7542 224.467367 
L 343.998078 224.037137 
L 347.241957 224.038736 
L 350.485835 224.486052 
L 353.729714 225.350138 
L 356.973592 226.555439 
L 360.21747 227.979463 
L 363.461349 229.45711 
L 366.705227 230.79101 
L 369.949106 231.769455 
L 373.192984 232.193662 
L 376.436863 231.916386 
L 379.680741 230.894064 
L 382.92462 229.254984 
L 386.168498 227.38618 
L 389.412377 226.042079 
L 392.656255 226.478189 
L 395.900134 230.613433 
" clip-path="url(#p07d16eb85f)" style="fill: none; stroke: #d62728; stroke-width: 1.5; stroke-linecap: square"/>
   </g>
   <g id="line2d_19">
    <path d="M 74.756165 257.421043 
L 77.623169 213.009942 
L 80.490173 194.688583 
L 83.357178 193.599784 
L 86.224182 202.838643 
L 89.091186 217.148086 
L 91.95819 232.649053 
L 94.825195 246.602466 
L 97.692199 257.20031 
L 100.559203 263.38326 
L 103.426207 264.682504 
L 106.293212 261.083496 
L 109.160216 252.909563 
L 112.02722 240.723393 
L 114.894224 225.244568 
L 117.761229 207.281446 
L 120.628233 187.675782 
L 123.495237 167.258638 
L 126.362241 146.816191 
L 129.229246 127.064195 
L 132.09625 108.629926 
L 134.963254 92.040551 
L 137.830259 77.716934 
L 140.697263 65.972001 
L 143.564267 57.012855 
L 146.431271 50.945904 
L 149.298276 47.78435 
L 152.16528 47.457461 
L 155.032284 49.821089 
L 157.899288 54.668993 
L 160.766293 61.744547 
L 163.633297 70.752509 
L 166.500301 81.370535 
L 169.367305 93.260201 
L 172.23431 106.077327 
L 175.101314 119.481437 
L 177.968318 133.144233 
L 180.835322 146.756986 
L 183.702327 160.036788 
L 186.569331 172.731633 
L 189.436335 184.624317 
L 192.303339 195.535178 
L 195.170344 205.323711 
L 198.037348 213.889116 
L 200.904352 221.169839 
L 203.771357 227.142209 
L 206.638361 231.818237 
L 209.505365 235.242712 
L 212.372369 237.489671 
L 215.239374 229.015976 
L 218.106378 229.018692 
L 220.973382 235.158355 
L 223.840386 233.765157 
L 226.707391 232.013414 
L 229.574395 230.054329 
L 232.441399 228.02894 
L 235.308403 226.064361 
L 238.175408 224.270673 
L 241.042412 222.738511 
L 243.909416 221.537397 
L 246.77642 220.714819 
L 249.643425 220.296072 
L 252.510429 220.284828 
L 255.377433 220.664411 
L 258.244437 221.399713 
L 261.111442 222.439693 
L 263.978446 223.720354 
L 266.84545 225.168129 
L 269.712455 226.703539 
L 272.579459 228.24502 
L 275.446463 229.712787 
L 278.313467 231.032602 
L 281.180472 232.139313 
L 284.047476 232.980035 
L 286.91448 233.516829 
L 289.781484 233.728776 
L 292.648489 233.613319 
L 295.515493 233.186783 
L 298.382497 232.483995 
L 301.249501 231.556954 
L 304.116506 230.472511 
L 306.98351 229.309091 
L 309.850514 228.152483 
L 312.717518 227.090793 
L 315.584523 226.208715 
L 318.451527 225.581289 
L 321.318531 225.26743 
L 324.185536 225.30354 
L 327.05254 225.697602 
L 329.919544 226.424253 
L 332.786548 227.421393 
L 335.653553 228.589007 
L 338.520557 229.790972 
L 341.387561 230.860735 
L 344.254565 231.611869 
L 347.12157 231.854634 
L 349.988574 231.419835 
L 352.855578 230.191369 
L 355.722582 228.149063 
L 358.589587 225.423529 
" clip-path="url(#p07d16eb85f)" style="fill: none; stroke: #9467bd; stroke-width: 1.5; stroke-linecap: square"/>
   </g>
   <g id="line2d_20">
    <path d="M 74.756165 210.447843 
L 76.972226 237.181969 
L 79.188288 244.68844 
L 81.40435 241.399209 
L 83.620411 233.271772 
L 85.836473 224.297894 
L 88.052535 216.937012 
L 90.268596 212.482349 
L 92.484658 211.367147 
L 94.70072 213.417892 
L 96.916781 218.060854 
L 99.132843 224.487757 
L 101.348905 231.785904 
L 103.564966 239.037636 
L 105.781028 245.393553 
L 107.99709 250.123509 
L 110.213151 252.649037 
L 112.429213 252.560439 
L 114.645275 249.621487 
L 116.861336 243.764316 
L 119.077398 235.076812 
L 121.29346 223.7845 
L 123.509521 210.228681 
L 125.725583 194.842325 
L 127.941644 178.124996 
L 130.157706 160.617875 
L 132.373768 142.879759 
L 134.589829 125.464744 
L 136.805891 108.902128 
L 139.021953 93.678938 
L 141.238014 80.225352 
L 143.454076 68.90317 
L 145.670138 59.997386 
L 147.886199 53.710834 
L 150.102261 50.16179 
L 152.318323 49.384351 
L 154.534384 51.331378 
L 156.750446 55.879708 
L 158.966508 62.837347 
L 161.182569 71.952307 
L 163.398631 82.922736 
L 165.614693 95.408001 
L 167.830754 109.04036 
L 170.046816 123.436881 
L 172.262878 138.211273 
L 174.478939 152.985327 
L 176.695001 167.399653 
L 178.911063 181.123479 
L 181.127124 193.86326 
L 183.343186 229.003829 
L 185.559248 229.004293 
L 187.775309 224.193546 
L 189.991371 231.40243 
L 192.207432 236.891799 
L 194.423494 240.671065 
L 196.639556 242.804117 
L 198.855617 243.405467 
L 201.071679 242.634905 
L 203.287741 240.690784 
L 205.503802 237.802163 
L 207.719864 234.219992 
L 209.935926 230.207622 
L 212.151987 226.030895 
L 214.368049 221.948107 
L 216.584111 218.20018 
L 218.800172 215.001328 
L 221.016234 212.53056 
L 223.232296 210.924328 
L 225.448357 210.270629 
L 227.664419 210.604836 
L 229.880481 211.907516 
L 232.096542 214.104453 
L 234.312604 217.069032 
L 236.528666 220.627102 
L 238.744727 224.564343 
L 240.960789 228.636094 
L 243.176851 232.579502 
L 245.392912 236.127744 
L 247.608974 239.025945 
L 249.825036 241.048293 
L 252.041097 242.015692 
L 254.257159 241.813139 
L 256.47322 240.405815 
L 258.689282 237.852701 
L 260.905344 234.316298 
L 263.121405 230.066819 
L 265.337467 225.478941 
L 267.553529 221.01898 
L 269.76959 217.220011 
L 271.985652 214.642198 
L 274.201714 213.815232 
L 276.417775 215.159458 
L 278.633837 218.881861 
L 280.849899 224.842738 
L 283.06596 232.388422 
L 285.282022 240.145011 
L 287.498084 245.767583 
L 289.714145 245.638895 
L 291.930207 234.511034 
L 294.146269 205.082986 
" clip-path="url(#p07d16eb85f)" style="fill: none; stroke: #8c564b; stroke-width: 1.5; stroke-linecap: square"/>
   </g>
   <g id="patch_3">
    <path d="M 58.523438 288.430125 
L 58.523438 22.318125 
" style="fill: none; stroke: #000000; stroke-width: 0.8; stroke-linejoin: miter; stroke-linecap: square"/>
   </g>
   <g id="patch_4">
    <path d="M 415.643438 288.430125 
L 415.643438 22.318125 
" style="fill: none; stroke: #000000; stroke-width: 0.8; stroke-linejoin: miter; stroke-linecap: square"/>
   </g>
   <g id="patch_5">
    <path d="M 58.523438 288.430125 
L 415.643438 288.430125 
" style="fill: none; stroke: #000000; stroke-width: 0.8; stroke-linejoin: miter; stroke-linecap: square"/>
   </g>
   <g id="patch_6">
    <path d="M 58.523438 22.318125 
L 415.643438 22.318125 
" style="fill: none; stroke: #000000; stroke-width: 0.8; stroke-linejoin: miter; stroke-linecap: square"/>
   </g>
   <g id="text_17">
    <!-- AD - xtract_prob_Superior_Longitudinal_Fasciculus_3_L -->
    <g transform="translate(73.184063 16.318125) scale(0.12 -0.12)">
     <defs>
      <path id="DejaVuSans-41" d="M 2188 4044 
L 1331 1722 
L 3047 1722 
L 2188 4044 
z
M 1831 4666 
L 2547 4666 
L 4325 0 
L 3669 0 
L 3244 1197 
L 1141 1197 
L 716 0 
L 50 0 
L 1831 4666 
z
" transform="scale(0.015625)"/>
      <path id="DejaVuSans-44" d="M 1259 4147 
L 1259 519 
L 2022 519 
Q 2988 519 3436 956 
Q 3884 1394 3884 2338 
Q 3884 3275 3436 3711 
Q 2988 4147 2022 4147 
L 1259 4147 
z
M 628 4666 
L 1925 4666 
Q 3281 4666 3915 4102 
Q 4550 3538 4550 2338 
Q 4550 1131 3912 565 
Q 3275 0 1925 0 
L 628 0 
L 628 4666 
z
" transform="scale(0.015625)"/>
      <path id="DejaVuSans-2d" d="M 313 2009 
L 1997 2009 
L 1997 1497 
L 313 1497 
L 313 2009 
z
" transform="scale(0.015625)"/>
      <path id="DejaVuSans-74" d="M 1172 4494 
L 1172 3500 
L 2356 3500 
L 2356 3053 
L 1172 3053 
L 1172 1153 
Q 1172 725 1289 603 
Q 1406 481 1766 481 
L 2356 481 
L 2356 0 
L 1766 0 
Q 1100 0 847 248 
Q 594 497 594 1153 
L 594 3053 
L 172 3053 
L 172 3500 
L 594 3500 
L 594 4494 
L 1172 4494 
z
" transform="scale(0.015625)"/>
      <path id="DejaVuSans-5f" d="M 3263 -1063 
L 3263 -1509 
L -63 -1509 
L -63 -1063 
L 3263 -1063 
z
" transform="scale(0.015625)"/>
      <path id="DejaVuSans-70" d="M 1159 525 
L 1159 -1331 
L 581 -1331 
L 581 3500 
L 1159 3500 
L 1159 2969 
Q 1341 3281 1617 3432 
Q 1894 3584 2278 3584 
Q 2916 3584 3314 3078 
Q 3713 2572 3713 1747 
Q 3713 922 3314 415 
Q 2916 -91 2278 -91 
Q 1894 -91 1617 61 
Q 1341 213 1159 525 
z
M 3116 1747 
Q 3116 2381 2855 2742 
Q 2594 3103 2138 3103 
Q 1681 3103 1420 2742 
Q 1159 2381 1159 1747 
Q 1159 1113 1420 752 
Q 1681 391 2138 391 
Q 2594 391 2855 752 
Q 3116 1113 3116 1747 
z
" transform="scale(0.015625)"/>
      <path id="DejaVuSans-6f" d="M 1959 3097 
Q 1497 3097 1228 2736 
Q 959 2375 959 1747 
Q 959 1119 1226 758 
Q 1494 397 1959 397 
Q 2419 397 2687 759 
Q 2956 1122 2956 1747 
Q 2956 2369 2687 2733 
Q 2419 3097 1959 3097 
z
M 1959 3584 
Q 2709 3584 3137 3096 
Q 3566 2609 3566 1747 
Q 3566 888 3137 398 
Q 2709 -91 1959 -91 
Q 1206 -91 779 398 
Q 353 888 353 1747 
Q 353 2609 779 3096 
Q 1206 3584 1959 3584 
z
" transform="scale(0.015625)"/>
      <path id="DejaVuSans-62" d="M 3116 1747 
Q 3116 2381 2855 2742 
Q 2594 3103 2138 3103 
Q 1681 3103 1420 2742 
Q 1159 2381 1159 1747 
Q 1159 1113 1420 752 
Q 1681 391 2138 391 
Q 2594 391 2855 752 
Q 3116 1113 3116 1747 
z
M 1159 2969 
Q 1341 3281 1617 3432 
Q 1894 3584 2278 3584 
Q 2916 3584 3314 3078 
Q 3713 2572 3713 1747 
Q 3713 922 3314 415 
Q 2916 -91 2278 -91 
Q 1894 -91 1617 61 
Q 1341 213 1159 525 
L 1159 0 
L 581 0 
L 581 4863 
L 1159 4863 
L 1159 2969 
z
" transform="scale(0.015625)"/>
      <path id="DejaVuSans-53" d="M 3425 4513 
L 3425 3897 
Q 3066 4069 2747 4153 
Q 2428 4238 2131 4238 
Q 1616 4238 1336 4038 
Q 1056 3838 1056 3469 
Q 1056 3159 1242 3001 
Q 1428 2844 1947 2747 
L 2328 2669 
Q 3034 2534 3370 2195 
Q 3706 1856 3706 1288 
Q 3706 609 3251 259 
Q 2797 -91 1919 -91 
Q 1588 -91 1214 -16 
Q 841 59 441 206 
L 441 856 
Q 825 641 1194 531 
Q 1563 422 1919 422 
Q 2459 422 2753 634 
Q 3047 847 3047 1241 
Q 3047 1584 2836 1778 
Q 2625 1972 2144 2069 
L 1759 2144 
Q 1053 2284 737 2584 
Q 422 2884 422 3419 
Q 422 4038 858 4394 
Q 1294 4750 2059 4750 
Q 2388 4750 2728 4690 
Q 3069 4631 3425 4513 
z
" transform="scale(0.015625)"/>
      <path id="DejaVuSans-4c" d="M 628 4666 
L 1259 4666 
L 1259 531 
L 3531 531 
L 3531 0 
L 628 0 
L 628 4666 
z
" transform="scale(0.015625)"/>
      <path id="DejaVuSans-67" d="M 2906 1791 
Q 2906 2416 2648 2759 
Q 2391 3103 1925 3103 
Q 1463 3103 1205 2759 
Q 947 2416 947 1791 
Q 947 1169 1205 825 
Q 1463 481 1925 481 
Q 2391 481 2648 825 
Q 2906 1169 2906 1791 
z
M 3481 434 
Q 3481 -459 3084 -895 
Q 2688 -1331 1869 -1331 
Q 1566 -1331 1297 -1286 
Q 1028 -1241 775 -1147 
L 775 -588 
Q 1028 -725 1275 -790 
Q 1522 -856 1778 -856 
Q 2344 -856 2625 -561 
Q 2906 -266 2906 331 
L 2906 616 
Q 2728 306 2450 153 
Q 2172 0 1784 0 
Q 1141 0 747 490 
Q 353 981 353 1791 
Q 353 2603 747 3093 
Q 1141 3584 1784 3584 
Q 2172 3584 2450 3431 
Q 2728 3278 2906 2969 
L 2906 3500 
L 3481 3500 
L 3481 434 
z
" transform="scale(0.015625)"/>
      <path id="DejaVuSans-64" d="M 2906 2969 
L 2906 4863 
L 3481 4863 
L 3481 0 
L 2906 0 
L 2906 525 
Q 2725 213 2448 61 
Q 2172 -91 1784 -91 
Q 1150 -91 751 415 
Q 353 922 353 1747 
Q 353 2572 751 3078 
Q 1150 3584 1784 3584 
Q 2172 3584 2448 3432 
Q 2725 3281 2906 2969 
z
M 947 1747 
Q 947 1113 1208 752 
Q 1469 391 1925 391 
Q 2381 391 2643 752 
Q 2906 1113 2906 1747 
Q 2906 2381 2643 2742 
Q 2381 3103 1925 3103 
Q 1469 3103 1208 2742 
Q 947 2381 947 1747 
z
" transform="scale(0.015625)"/>
     </defs>
     <use xlink:href="#DejaVuSans-41"/>
     <use xlink:href="#DejaVuSans-44" x="68.408203"/>
     <use xlink:href="#DejaVuSans-20" x="145.410156"/>
     <use xlink:href="#DejaVuSans-2d" x="177.197266"/>
     <use xlink:href="#DejaVuSans-20" x="213.28125"/>
     <use xlink:href="#DejaVuSans-78" x="245.068359"/>
     <use xlink:href="#DejaVuSans-74" x="304.248047"/>
     <use xlink:href="#DejaVuSans-72" x="343.457031"/>
     <use xlink:href="#DejaVuSans-61" x="384.570312"/>
     <use xlink:href="#DejaVuSans-63" x="445.849609"/>
     <use xlink:href="#DejaVuSans-74" x="500.830078"/>
     <use xlink:href="#DejaVuSans-5f" x="540.039062"/>
     <use xlink:href="#DejaVuSans-70" x="590.039062"/>
     <use xlink:href="#DejaVuSans-72" x="653.515625"/>
     <use xlink:href="#DejaVuSans-6f" x="692.378906"/>
     <use xlink:href="#DejaVuSans-62" x="753.560547"/>
     <use xlink:href="#DejaVuSans-5f" x="817.037109"/>
     <use xlink:href="#DejaVuSans-53" x="867.037109"/>
     <use xlink:href="#DejaVuSans-75" x="930.513672"/>
     <use xlink:href="#DejaVuSans-70" x="993.892578"/>
     <use xlink:href="#DejaVuSans-65" x="1057.369141"/>
     <use xlink:href="#DejaVuSans-72" x="1118.892578"/>
     <use xlink:href="#DejaVuSans-69" x="1160.005859"/>
     <use xlink:href="#DejaVuSans-6f" x="1187.789062"/>
     <use xlink:href="#DejaVuSans-72" x="1248.970703"/>
     <use xlink:href="#DejaVuSans-5f" x="1290.083984"/>
     <use xlink:href="#DejaVuSans-4c" x="1340.083984"/>
     <use xlink:href="#DejaVuSans-6f" x="1394.046875"/>
     <use xlink:href="#DejaVuSans-6e" x="1455.228516"/>
     <use xlink:href="#DejaVuSans-67" x="1518.607422"/>
     <use xlink:href="#DejaVuSans-69" x="1582.083984"/>
     <use xlink:href="#DejaVuSans-74" x="1609.867188"/>
     <use xlink:href="#DejaVuSans-75" x="1649.076172"/>
     <use xlink:href="#DejaVuSans-64" x="1712.455078"/>
     <use xlink:href="#DejaVuSans-69" x="1775.931641"/>
     <use xlink:href="#DejaVuSans-6e" x="1803.714844"/>
     <use xlink:href="#DejaVuSans-61" x="1867.09375"/>
     <use xlink:href="#DejaVuSans-6c" x="1928.373047"/>
     <use xlink:href="#DejaVuSans-5f" x="1956.15625"/>
     <use xlink:href="#DejaVuSans-46" x="2006.15625"/>
     <use xlink:href="#DejaVuSans-61" x="2054.550781"/>
     <use xlink:href="#DejaVuSans-73" x="2115.830078"/>
     <use xlink:href="#DejaVuSans-63" x="2167.929688"/>
     <use xlink:href="#DejaVuSans-69" x="2222.910156"/>
     <use xlink:href="#DejaVuSans-63" x="2250.693359"/>
     <use xlink:href="#DejaVuSans-75" x="2305.673828"/>
     <use xlink:href="#DejaVuSans-6c" x="2369.052734"/>
     <use xlink:href="#DejaVuSans-75" x="2396.835938"/>
     <use xlink:href="#DejaVuSans-73" x="2460.214844"/>
     <use xlink:href="#DejaVuSans-5f" x="2512.314453"/>
     <use xlink:href="#DejaVuSans-33" x="2562.314453"/>
     <use xlink:href="#DejaVuSans-5f" x="2625.9375"/>
     <use xlink:href="#DejaVuSans-4c" x="2675.9375"/>
    </g>
   </g>
   <g id="legend_1">
    <g id="patch_7">
     <path d="M 458.355438 146.666825 
L 556.211688 146.666825 
Q 558.211688 146.666825 558.211688 144.666825 
L 558.211688 55.929325 
Q 558.211688 53.929325 556.211688 53.929325 
L 458.355438 53.929325 
Q 456.355438 53.929325 456.355438 55.929325 
L 456.355438 144.666825 
Q 456.355438 146.666825 458.355438 146.666825 
z
" style="fill: #ffffff; opacity: 0.8; stroke: #cccccc; stroke-linejoin: miter"/>
    </g>
    <g id="line2d_21">
     <path d="M 460.355438 62.027762 
L 470.355438 62.027762 
L 480.355438 62.027762 
" style="fill: none; stroke: #1f77b4; stroke-width: 1.5; stroke-linecap: square"/>
    </g>
    <g id="text_18">
     <!-- 20_06_02_E3 -->
     <g transform="translate(488.355438 65.527762) scale(0.1 -0.1)">
      <defs>
       <path id="DejaVuSans-45" d="M 628 4666 
L 3578 4666 
L 3578 4134 
L 1259 4134 
L 1259 2753 
L 3481 2753 
L 3481 2222 
L 1259 2222 
L 1259 531 
L 3634 531 
L 3634 0 
L 628 0 
L 628 4666 
z
" transform="scale(0.015625)"/>
      </defs>
      <use xlink:href="#DejaVuSans-32"/>
      <use xlink:href="#DejaVuSans-30" x="63.623047"/>
      <use xlink:href="#DejaVuSans-5f" x="127.246094"/>
      <use xlink:href="#DejaVuSans-30" x="177.246094"/>
      <use xlink:href="#DejaVuSans-36" x="240.869141"/>
      <use xlink:href="#DejaVuSans-5f" x="304.492188"/>
      <use xlink:href="#DejaVuSans-30" x="354.492188"/>
      <use xlink:href="#DejaVuSans-32" x="418.115234"/>
      <use xlink:href="#DejaVuSans-5f" x="481.738281"/>
      <use xlink:href="#DejaVuSans-45" x="531.738281"/>
      <use xlink:href="#DejaVuSans-33" x="594.921875"/>
     </g>
    </g>
    <g id="line2d_22">
     <path d="M 460.355438 76.984013 
L 470.355438 76.984013 
L 480.355438 76.984013 
" style="fill: none; stroke: #ff7f0e; stroke-width: 1.5; stroke-linecap: square"/>
    </g>
    <g id="text_19">
     <!-- 20_05_01_E3 -->
     <g transform="translate(488.355438 80.484013) scale(0.1 -0.1)">
      <use xlink:href="#DejaVuSans-32"/>
      <use xlink:href="#DejaVuSans-30" x="63.623047"/>
      <use xlink:href="#DejaVuSans-5f" x="127.246094"/>
      <use xlink:href="#DejaVuSans-30" x="177.246094"/>
      <use xlink:href="#DejaVuSans-35" x="240.869141"/>
      <use xlink:href="#DejaVuSans-5f" x="304.492188"/>
      <use xlink:href="#DejaVuSans-30" x="354.492188"/>
      <use xlink:href="#DejaVuSans-31" x="418.115234"/>
      <use xlink:href="#DejaVuSans-5f" x="481.738281"/>
      <use xlink:href="#DejaVuSans-45" x="531.738281"/>
      <use xlink:href="#DejaVuSans-33" x="594.921875"/>
     </g>
    </g>
    <g id="line2d_23">
     <path d="M 460.355438 91.940262 
L 470.355438 91.940262 
L 480.355438 91.940262 
" style="fill: none; stroke: #2ca02c; stroke-width: 1.5; stroke-linecap: square"/>
    </g>
    <g id="text_20">
     <!-- 20_02_02_E3 -->
     <g transform="translate(488.355438 95.440262) scale(0.1 -0.1)">
      <use xlink:href="#DejaVuSans-32"/>
      <use xlink:href="#DejaVuSans-30" x="63.623047"/>
      <use xlink:href="#DejaVuSans-5f" x="127.246094"/>
      <use xlink:href="#DejaVuSans-30" x="177.246094"/>
      <use xlink:href="#DejaVuSans-32" x="240.869141"/>
      <use xlink:href="#DejaVuSans-5f" x="304.492188"/>
      <use xlink:href="#DejaVuSans-30" x="354.492188"/>
      <use xlink:href="#DejaVuSans-32" x="418.115234"/>
      <use xlink:href="#DejaVuSans-5f" x="481.738281"/>
      <use xlink:href="#DejaVuSans-45" x="531.738281"/>
      <use xlink:href="#DejaVuSans-33" x="594.921875"/>
     </g>
    </g>
    <g id="line2d_24">
     <path d="M 460.355438 106.896513 
L 470.355438 106.896513 
L 480.355438 106.896513 
" style="fill: none; stroke: #d62728; stroke-width: 1.5; stroke-linecap: square"/>
    </g>
    <g id="text_21">
     <!-- 20_10_02_E3 -->
     <g transform="translate(488.355438 110.396513) scale(0.1 -0.1)">
      <use xlink:href="#DejaVuSans-32"/>
      <use xlink:href="#DejaVuSans-30" x="63.623047"/>
      <use xlink:href="#DejaVuSans-5f" x="127.246094"/>
      <use xlink:href="#DejaVuSans-31" x="177.246094"/>
      <use xlink:href="#DejaVuSans-30" x="240.869141"/>
      <use xlink:href="#DejaVuSans-5f" x="304.492188"/>
      <use xlink:href="#DejaVuSans-30" x="354.492188"/>
      <use xlink:href="#DejaVuSans-32" x="418.115234"/>
      <use xlink:href="#DejaVuSans-5f" x="481.738281"/>
      <use xlink:href="#DejaVuSans-45" x="531.738281"/>
      <use xlink:href="#DejaVuSans-33" x="594.921875"/>
     </g>
    </g>
    <g id="line2d_25">
     <path d="M 460.355438 121.852762 
L 470.355438 121.852762 
L 480.355438 121.852762 
" style="fill: none; stroke: #9467bd; stroke-width: 1.5; stroke-linecap: square"/>
    </g>
    <g id="text_22">
     <!-- 20_08_02_E3 -->
     <g transform="translate(488.355438 125.352762) scale(0.1 -0.1)">
      <defs>
       <path id="DejaVuSans-38" d="M 2034 2216 
Q 1584 2216 1326 1975 
Q 1069 1734 1069 1313 
Q 1069 891 1326 650 
Q 1584 409 2034 409 
Q 2484 409 2743 651 
Q 3003 894 3003 1313 
Q 3003 1734 2745 1975 
Q 2488 2216 2034 2216 
z
M 1403 2484 
Q 997 2584 770 2862 
Q 544 3141 544 3541 
Q 544 4100 942 4425 
Q 1341 4750 2034 4750 
Q 2731 4750 3128 4425 
Q 3525 4100 3525 3541 
Q 3525 3141 3298 2862 
Q 3072 2584 2669 2484 
Q 3125 2378 3379 2068 
Q 3634 1759 3634 1313 
Q 3634 634 3220 271 
Q 2806 -91 2034 -91 
Q 1263 -91 848 271 
Q 434 634 434 1313 
Q 434 1759 690 2068 
Q 947 2378 1403 2484 
z
M 1172 3481 
Q 1172 3119 1398 2916 
Q 1625 2713 2034 2713 
Q 2441 2713 2670 2916 
Q 2900 3119 2900 3481 
Q 2900 3844 2670 4047 
Q 2441 4250 2034 4250 
Q 1625 4250 1398 4047 
Q 1172 3844 1172 3481 
z
" transform="scale(0.015625)"/>
      </defs>
      <use xlink:href="#DejaVuSans-32"/>
      <use xlink:href="#DejaVuSans-30" x="63.623047"/>
      <use xlink:href="#DejaVuSans-5f" x="127.246094"/>
      <use xlink:href="#DejaVuSans-30" x="177.246094"/>
      <use xlink:href="#DejaVuSans-38" x="240.869141"/>
      <use xlink:href="#DejaVuSans-5f" x="304.492188"/>
      <use xlink:href="#DejaVuSans-30" x="354.492188"/>
      <use xlink:href="#DejaVuSans-32" x="418.115234"/>
      <use xlink:href="#DejaVuSans-5f" x="481.738281"/>
      <use xlink:href="#DejaVuSans-45" x="531.738281"/>
      <use xlink:href="#DejaVuSans-33" x="594.921875"/>
     </g>
    </g>
    <g id="line2d_26">
     <path d="M 460.355438 136.809012 
L 470.355438 136.809012 
L 480.355438 136.809012 
" style="fill: none; stroke: #8c564b; stroke-width: 1.5; stroke-linecap: square"/>
    </g>
    <g id="text_23">
     <!-- 20_11_02_E3 -->
     <g transform="translate(488.355438 140.309012) scale(0.1 -0.1)">
      <use xlink:href="#DejaVuSans-32"/>
      <use xlink:href="#DejaVuSans-30" x="63.623047"/>
      <use xlink:href="#DejaVuSans-5f" x="127.246094"/>
      <use xlink:href="#DejaVuSans-31" x="177.246094"/>
      <use xlink:href="#DejaVuSans-31" x="240.869141"/>
      <use xlink:href="#DejaVuSans-5f" x="304.492188"/>
      <use xlink:href="#DejaVuSans-30" x="354.492188"/>
      <use xlink:href="#DejaVuSans-32" x="418.115234"/>
      <use xlink:href="#DejaVuSans-5f" x="481.738281"/>
      <use xlink:href="#DejaVuSans-45" x="531.738281"/>
      <use xlink:href="#DejaVuSans-33" x="594.921875"/>
     </g>
    </g>
   </g>
  </g>
 </g>
 <defs>
  <clipPath id="p07d16eb85f">
   <rect x="58.523438" y="22.318125" width="357.12" height="266.112"/>
  </clipPath>
 </defs>
</svg>
