<?xml version="1.0" encoding="utf-8" standalone="no"?>
<!DOCTYPE svg PUBLIC "-//W3C//DTD SVG 1.1//EN"
  "http://www.w3.org/Graphics/SVG/1.1/DTD/svg11.dtd">
<svg xmlns:xlink="http://www.w3.org/1999/xlink" width="565.411687pt" height="325.986375pt" viewBox="0 0 565.411687 325.986375" xmlns="http://www.w3.org/2000/svg" version="1.1">
 <metadata>
  <rdf:RDF xmlns:dc="http://purl.org/dc/elements/1.1/" xmlns:cc="http://creativecommons.org/ns#" xmlns:rdf="http://www.w3.org/1999/02/22-rdf-syntax-ns#">
   <cc:Work>
    <dc:type rdf:resource="http://purl.org/dc/dcmitype/StillImage"/>
    <dc:date>2023-02-07T22:59:57.420790</dc:date>
    <dc:format>image/svg+xml</dc:format>
    <dc:creator>
     <cc:Agent>
      <dc:title>Matplotlib v3.6.2, https://matplotlib.org/</dc:title>
     </cc:Agent>
    </dc:creator>
   </cc:Work>
  </rdf:RDF>
 </metadata>
 <defs>
  <style type="text/css">*{stroke-linejoin: round; stroke-linecap: butt}</style>
 </defs>
 <g id="figure_1">
  <g id="patch_1">
   <path d="M 0 325.986375 
L 565.411687 325.986375 
L 565.411687 0 
L 0 0 
z
" style="fill: #ffffff"/>
  </g>
  <g id="axes_1">
   <g id="patch_2">
    <path d="M 58.523438 288.430125 
L 415.643438 288.430125 
L 415.643438 22.318125 
L 58.523438 22.318125 
z
" style="fill: #ffffff"/>
   </g>
   <g id="PolyCollection_1">
    <path d="M 74.756165 222.867085 
L 74.756165 227.356837 
L 78.035504 227.356837 
L 81.314842 227.356837 
L 84.594181 227.356837 
L 87.87352 227.356837 
L 91.152859 227.356837 
L 94.432198 227.356837 
L 97.711537 227.356837 
L 100.990876 227.356837 
L 104.270214 227.356837 
L 107.549553 227.356837 
L 110.828892 227.356837 
L 114.108231 227.356837 
L 117.38757 227.356837 
L 120.666909 227.356837 
L 123.946247 227.356837 
L 127.225586 227.356837 
L 130.504925 227.356837 
L 133.784264 227.356837 
L 137.063603 227.356837 
L 140.342942 227.356837 
L 143.62228 227.356837 
L 146.901619 227.356837 
L 150.180958 227.356837 
L 153.460297 227.356837 
L 156.739636 227.356837 
L 160.018975 227.356837 
L 163.298314 227.356837 
L 166.577652 227.356837 
L 169.856991 227.356837 
L 173.13633 227.356837 
L 176.415669 227.356837 
L 179.695008 227.356837 
L 182.974347 227.356837 
L 186.253685 227.356837 
L 189.533024 227.356837 
L 192.812363 227.356837 
L 196.091702 227.356837 
L 199.371041 227.356837 
L 202.65038 227.356837 
L 205.929718 227.356837 
L 209.209057 227.356837 
L 212.488396 227.356837 
L 215.767735 227.356837 
L 219.047074 227.356837 
L 222.326413 227.356837 
L 225.605752 227.356837 
L 228.88509 227.356837 
L 232.164429 227.356837 
L 235.443768 227.356837 
L 238.723107 227.356837 
L 242.002446 227.356837 
L 245.281785 227.356837 
L 248.561123 227.356837 
L 251.840462 227.356837 
L 255.119801 227.356837 
L 258.39914 227.356837 
L 261.678479 227.356837 
L 264.957818 227.356837 
L 268.237157 227.356837 
L 271.516495 227.356837 
L 274.795834 227.356837 
L 278.075173 227.356837 
L 281.354512 227.356837 
L 284.633851 227.356837 
L 287.91319 227.356837 
L 291.192528 227.356837 
L 294.471867 227.356837 
L 297.751206 227.356837 
L 301.030545 227.356837 
L 304.309884 227.356837 
L 307.589223 227.356837 
L 310.868561 227.356837 
L 314.1479 227.356837 
L 317.427239 227.356837 
L 320.706578 227.356837 
L 323.985917 227.356837 
L 327.265256 227.356837 
L 330.544595 227.356837 
L 333.823933 227.356837 
L 337.103272 227.356837 
L 340.382611 227.356837 
L 343.66195 227.356837 
L 346.941289 227.356837 
L 350.220628 227.356837 
L 353.499966 227.356837 
L 356.779305 227.356837 
L 360.058644 227.356837 
L 363.337983 227.356837 
L 366.617322 227.356837 
L 369.896661 227.356837 
L 373.175999 227.356837 
L 376.455338 227.356837 
L 379.734677 227.356837 
L 383.014016 227.356837 
L 386.293355 227.356837 
L 389.572694 227.356837 
L 392.852033 227.356837 
L 396.131371 227.356837 
L 399.41071 227.356837 
L 399.41071 221.422222 
L 399.41071 221.422222 
L 396.131371 226.971393 
L 392.852033 229.486662 
L 389.572694 230.053095 
L 386.293355 229.477835 
L 383.014016 228.341459 
L 379.734677 227.04233 
L 376.455338 225.834678 
L 373.175999 224.861032 
L 369.896661 224.179626 
L 366.617322 223.787318 
L 363.337983 223.63856 
L 360.058644 223.660868 
L 356.779305 223.767245 
L 353.499966 223.865943 
L 350.220628 223.867932 
L 346.941289 223.692405 
L 343.66195 223.270619 
L 340.382611 222.548331 
L 337.103272 221.487087 
L 333.823933 220.064565 
L 330.544595 218.274173 
L 327.265256 216.124065 
L 323.985917 213.635725 
L 320.706578 210.84225 
L 317.427239 207.786435 
L 314.1479 204.518768 
L 310.868561 201.095394 
L 307.589223 197.576132 
L 304.309884 194.022584 
L 301.030545 190.496383 
L 297.751206 187.057613 
L 294.471867 183.763408 
L 291.192528 180.666765 
L 287.91319 177.815559 
L 284.633851 175.251771 
L 281.354512 173.010917 
L 278.075173 171.121673 
L 274.795834 169.605681 
L 271.516495 168.477523 
L 268.237157 167.744839 
L 264.957818 167.408578 
L 261.678479 167.463354 
L 258.39914 167.897896 
L 255.119801 168.695556 
L 251.840462 169.834881 
L 248.561123 171.290202 
L 245.281785 173.032241 
L 242.002446 175.028724 
L 238.723107 227.3488 
L 235.443768 227.348876 
L 232.164429 182.219663 
L 228.88509 184.94571 
L 225.605752 187.735771 
L 222.326413 190.5477 
L 219.047074 193.339959 
L 215.767735 196.072057 
L 212.488396 198.704941 
L 209.209057 201.201357 
L 205.929718 203.526166 
L 202.65038 205.646645 
L 199.371041 207.532759 
L 196.091702 209.15743 
L 192.812363 210.496799 
L 189.533024 211.530505 
L 186.253685 212.241973 
L 182.974347 212.618736 
L 179.695008 212.652787 
L 176.415669 212.340969 
L 173.13633 211.685404 
L 169.856991 210.693966 
L 166.577652 209.38078 
L 163.298314 207.766753 
L 160.018975 205.880104 
L 156.739636 203.756886 
L 153.460297 201.441456 
L 150.180958 198.986863 
L 146.901619 196.455107 
L 143.62228 193.917203 
L 140.342942 191.452982 
L 137.063603 189.150549 
L 133.784264 187.105296 
L 130.504925 185.418366 
L 127.225586 184.194417 
L 123.946247 183.538574 
L 120.666909 183.55236 
L 117.38757 184.328461 
L 114.108231 185.944075 
L 110.828892 188.452649 
L 107.549553 191.873711 
L 104.270214 196.180544 
L 100.990876 201.285354 
L 97.711537 207.021618 
L 94.432198 213.123213 
L 91.152859 219.199929 
L 87.87352 224.708911 
L 84.594181 228.921551 
L 81.314842 230.885304 
L 78.035504 229.379862 
L 74.756165 222.867085 
z
" clip-path="url(#p3d90a79b7a)" style="fill: #1f77b4; fill-opacity: 0.166667"/>
   </g>
   <g id="PolyCollection_2">
    <path d="M 74.756165 227.987999 
L 74.756165 227.356837 
L 78.035498 227.356837 
L 81.314832 227.356837 
L 84.594165 227.356837 
L 87.873499 227.356837 
L 91.152833 227.356837 
L 94.432166 227.356837 
L 97.7115 227.356837 
L 100.990833 227.356837 
L 104.270167 227.356837 
L 107.5495 227.356837 
L 110.828834 227.356837 
L 114.108168 227.356837 
L 117.387501 227.356837 
L 120.666835 227.356837 
L 123.946168 227.356837 
L 127.225502 227.356837 
L 130.504835 227.356837 
L 133.784169 227.356837 
L 137.063503 227.356837 
L 140.342836 227.356837 
L 143.62217 227.356837 
L 146.901503 227.356837 
L 150.180837 227.356837 
L 153.46017 227.356837 
L 156.739504 227.356837 
L 160.018837 227.356837 
L 163.298171 227.356837 
L 166.577505 227.356837 
L 169.856838 227.356837 
L 173.136172 227.356837 
L 176.415505 227.356837 
L 179.694839 227.356837 
L 182.974172 227.356837 
L 186.253506 227.356837 
L 189.53284 227.356837 
L 192.812173 227.356837 
L 196.091507 227.356837 
L 199.37084 227.356837 
L 202.650174 227.356837 
L 205.929507 227.356837 
L 209.208841 227.356837 
L 212.488175 227.356837 
L 215.767508 227.356837 
L 219.046842 227.356837 
L 222.326175 227.356837 
L 225.605509 227.356837 
L 228.884842 227.356837 
L 232.164176 227.356837 
L 235.443509 227.356837 
L 238.722843 227.356837 
L 242.002177 227.356837 
L 245.28151 227.356837 
L 248.560844 227.356837 
L 251.840177 227.356837 
L 255.119511 227.356837 
L 258.398844 227.356837 
L 261.678178 227.356837 
L 264.957512 227.356837 
L 268.236845 227.356837 
L 271.516179 227.356837 
L 274.795512 227.356837 
L 278.074846 227.356837 
L 281.354179 227.356837 
L 284.633513 227.356837 
L 287.912847 227.356837 
L 291.19218 227.356837 
L 294.471514 227.356837 
L 297.750847 227.356837 
L 301.030181 227.356837 
L 304.309514 227.356837 
L 307.588848 227.356837 
L 310.868181 227.356837 
L 314.147515 227.356837 
L 317.426849 227.356837 
L 320.706182 227.356837 
L 323.985516 227.356837 
L 327.264849 227.356837 
L 330.544183 227.356837 
L 333.823516 227.356837 
L 337.10285 227.356837 
L 340.382184 227.356837 
L 343.661517 227.356837 
L 346.940851 227.356837 
L 350.220184 227.356837 
L 353.499518 227.356837 
L 356.778851 227.356837 
L 360.058185 227.356837 
L 363.337519 227.356837 
L 366.616852 227.356837 
L 369.896186 227.356837 
L 373.175519 227.356837 
L 376.454853 227.356837 
L 379.734186 227.356837 
L 383.01352 227.356837 
L 386.292853 227.356837 
L 389.572187 227.356837 
L 392.851521 227.356837 
L 396.130854 227.356837 
L 399.410188 227.356837 
L 399.410188 227.029841 
L 399.410188 227.029841 
L 396.130854 227.348599 
L 392.851521 227.582499 
L 389.572187 227.716419 
L 386.292853 227.742422 
L 383.01352 227.657245 
L 379.734186 227.46036 
L 376.454853 227.152505 
L 373.175519 226.734644 
L 369.896186 226.207274 
L 366.616852 225.570016 
L 363.337519 224.821451 
L 360.058185 223.959144 
L 356.778851 222.979814 
L 353.499518 221.879607 
L 350.220184 220.654458 
L 346.940851 219.300477 
L 343.661517 217.814375 
L 340.382184 216.193876 
L 337.10285 214.438108 
L 333.823516 212.547967 
L 330.544183 210.526422 
L 327.264849 208.378772 
L 323.985516 206.112832 
L 320.706182 203.739053 
L 317.426849 201.270574 
L 314.147515 198.723193 
L 310.868181 196.115277 
L 307.588848 193.467597 
L 304.309514 190.803105 
L 301.030181 188.146644 
L 297.750847 185.524611 
L 294.471514 182.964575 
L 291.19218 180.494847 
L 287.912847 178.144035 
L 284.633513 175.940562 
L 281.354179 173.912181 
L 278.074846 172.085479 
L 274.795512 170.485392 
L 271.516179 169.13473 
L 268.236845 168.05372 
L 264.957512 167.259585 
L 261.678178 166.76616 
L 258.398844 166.583548 
L 255.119511 166.717831 
L 251.840177 167.17084 
L 248.560844 167.939984 
L 245.28151 169.018146 
L 242.002177 170.393654 
L 238.722843 227.348633 
L 235.443509 227.348718 
L 232.164176 176.164006 
L 228.884842 178.516068 
L 225.605509 181.040848 
L 222.326175 183.703304 
L 219.046842 186.465774 
L 215.767508 189.288493 
L 212.488175 192.130173 
L 209.208841 194.948626 
L 205.929507 197.701435 
L 202.650174 200.346657 
L 199.37084 202.843557 
L 196.091507 205.153357 
L 192.812173 207.239998 
L 189.53284 209.070894 
L 186.253506 210.617681 
L 182.974172 211.856928 
L 179.694839 212.770823 
L 176.415505 213.347796 
L 173.136172 213.583079 
L 169.856838 213.479185 
L 166.577505 213.046287 
L 163.298171 212.302488 
L 160.018837 211.273957 
L 156.739504 209.994917 
L 153.46017 208.50748 
L 150.180837 206.861286 
L 146.901503 205.112952 
L 143.62217 203.325305 
L 140.342836 201.566376 
L 137.063503 199.908147 
L 133.784169 198.425023 
L 130.504835 197.192023 
L 127.225502 196.282661 
L 123.946168 195.766511 
L 120.666835 195.706434 
L 117.387501 196.155453 
L 114.108168 197.153258 
L 110.828834 198.722334 
L 107.5495 200.863694 
L 104.270167 203.552203 
L 100.990833 206.731493 
L 97.7115 210.308441 
L 94.432166 214.147225 
L 91.152833 218.062928 
L 87.873499 221.81471 
L 84.594165 225.09852 
L 81.314832 227.539366 
L 78.035498 228.683142 
L 74.756165 227.987999 
z
" clip-path="url(#p3d90a79b7a)" style="fill: #ff7f0e; fill-opacity: 0.166667"/>
   </g>
   <g id="PolyCollection_3">
    <path d="M 74.756165 276.334125 
L 74.756165 227.356837 
L 78.035502 227.356837 
L 81.31484 227.356837 
L 84.594177 227.356837 
L 87.873515 227.356837 
L 91.152852 227.356837 
L 94.43219 227.356837 
L 97.711527 227.356837 
L 100.990865 227.356837 
L 104.270202 227.356837 
L 107.54954 227.356837 
L 110.828877 227.356837 
L 114.108214 227.356837 
L 117.387552 227.356837 
L 120.666889 227.356837 
L 123.946227 227.356837 
L 127.225564 227.356837 
L 130.504902 227.356837 
L 133.784239 227.356837 
L 137.063577 227.356837 
L 140.342914 227.356837 
L 143.622252 227.356837 
L 146.901589 227.356837 
L 150.180927 227.356837 
L 153.460264 227.356837 
L 156.739602 227.356837 
L 160.018939 227.356837 
L 163.298277 227.356837 
L 166.577614 227.356837 
L 169.856952 227.356837 
L 173.136289 227.356837 
L 176.415626 227.356837 
L 179.694964 227.356837 
L 182.974301 227.356837 
L 186.253639 227.356837 
L 189.532976 227.356837 
L 192.812314 227.356837 
L 196.091651 227.356837 
L 199.370989 227.356837 
L 202.650326 227.356837 
L 205.929664 227.356837 
L 209.209001 227.356837 
L 212.488339 227.356837 
L 215.767676 227.356837 
L 219.047014 227.356837 
L 222.326351 227.356837 
L 225.605689 227.356837 
L 228.885026 227.356837 
L 232.164364 227.356837 
L 235.443701 227.356837 
L 238.723039 227.356837 
L 242.002376 227.356837 
L 245.281713 227.356837 
L 248.561051 227.356837 
L 251.840388 227.356837 
L 255.119726 227.356837 
L 258.399063 227.356837 
L 261.678401 227.356837 
L 264.957738 227.356837 
L 268.237076 227.356837 
L 271.516413 227.356837 
L 274.795751 227.356837 
L 278.075088 227.356837 
L 281.354426 227.356837 
L 284.633763 227.356837 
L 287.913101 227.356837 
L 291.192438 227.356837 
L 294.471776 227.356837 
L 297.751113 227.356837 
L 301.030451 227.356837 
L 304.309788 227.356837 
L 307.589125 227.356837 
L 310.868463 227.356837 
L 314.1478 227.356837 
L 317.427138 227.356837 
L 320.706475 227.356837 
L 323.985813 227.356837 
L 327.26515 227.356837 
L 330.544488 227.356837 
L 333.823825 227.356837 
L 337.103163 227.356837 
L 340.3825 227.356837 
L 343.661838 227.356837 
L 346.941175 227.356837 
L 350.220513 227.356837 
L 353.49985 227.356837 
L 356.779188 227.356837 
L 360.058525 227.356837 
L 363.337863 227.356837 
L 366.6172 227.356837 
L 369.896537 227.356837 
L 373.175875 227.356837 
L 376.455212 227.356837 
L 379.73455 227.356837 
L 383.013887 227.356837 
L 386.293225 227.356837 
L 389.572562 227.356837 
L 392.8519 227.356837 
L 396.131237 227.356837 
L 399.410575 227.356837 
L 399.410575 209.509733 
L 399.410575 209.509733 
L 396.131237 220.944274 
L 392.8519 227.249238 
L 389.572562 230.083171 
L 386.293225 230.706151 
L 383.013887 230.051781 
L 379.73455 228.789447 
L 376.455212 227.377814 
L 373.175875 226.110447 
L 369.896537 225.154383 
L 366.6172 224.582435 
L 363.337863 224.399927 
L 360.058525 224.56653 
L 356.779188 225.013802 
L 353.49985 225.658989 
L 350.220513 226.4156 
L 346.941175 227.201223 
L 343.661838 227.942999 
L 340.3825 228.581147 
L 337.103163 229.070875 
L 333.823825 229.383002 
L 330.544488 229.503542 
L 327.26515 229.432527 
L 323.985813 229.182249 
L 320.706475 228.775132 
L 317.427138 228.241387 
L 314.1478 227.616581 
L 310.868463 226.939238 
L 307.589125 226.248571 
L 304.309788 225.582402 
L 301.030451 224.975353 
L 297.751113 224.457318 
L 294.471776 224.052268 
L 291.192438 223.777393 
L 287.913101 223.642576 
L 284.633763 223.650209 
L 281.354426 223.795311 
L 278.075088 224.065949 
L 274.795751 224.443914 
L 271.516413 224.905618 
L 268.237076 225.423185 
L 264.957738 225.965679 
L 261.678401 226.500434 
L 258.399063 226.994431 
L 255.119726 227.415692 
L 251.840388 227.734628 
L 248.561051 227.925313 
L 245.281713 227.966633 
L 242.002376 227.843276 
L 238.723039 227.35488 
L 235.443701 227.353904 
L 232.164364 228.0937 
L 228.885026 226.588771 
L 225.605689 224.885032 
L 222.326351 223.046117 
L 219.047014 221.144081 
L 215.767676 219.256684 
L 212.488339 217.464303 
L 209.209001 215.846546 
L 205.929664 214.478655 
L 202.650326 213.42779 
L 199.370989 212.749321 
L 196.091651 212.483215 
L 192.812314 212.650675 
L 189.532976 213.251126 
L 186.253639 214.259694 
L 182.974301 215.625302 
L 179.694964 217.269504 
L 176.415626 219.086183 
L 173.136289 220.942217 
L 169.856952 222.679213 
L 166.577614 224.116402 
L 163.298277 225.054748 
L 160.018939 225.282313 
L 156.739602 224.580915 
L 153.460264 222.734036 
L 150.180927 219.535956 
L 146.901589 214.802006 
L 143.622252 208.379828 
L 140.342914 200.161436 
L 137.063577 190.095869 
L 133.784239 178.202119 
L 130.504902 164.581994 
L 127.225564 149.432459 
L 123.946227 133.056983 
L 120.666889 115.875268 
L 117.387552 98.430701 
L 114.108214 81.39475 
L 110.828877 65.567413 
L 107.54954 51.872762 
L 104.270202 41.348439 
L 100.990865 35.127915 
L 97.711527 34.414125 
L 94.43219 40.44299 
L 91.152852 54.435188 
L 87.873515 77.534357 
L 84.594177 110.729778 
L 81.31484 154.761398 
L 78.035502 210.004874 
L 74.756165 276.334125 
z
" clip-path="url(#p3d90a79b7a)" style="fill: #2ca02c; fill-opacity: 0.166667"/>
   </g>
   <g id="PolyCollection_4">
    <path d="M 74.756165 225.005942 
L 74.756165 227.356837 
L 77.539391 227.356837 
L 80.322618 227.356837 
L 83.105845 227.356837 
L 85.889071 227.356837 
L 88.672298 227.356837 
L 91.455524 227.356837 
L 94.238751 227.356837 
L 97.021978 227.356837 
L 99.805204 227.356837 
L 102.588431 227.356837 
L 105.371657 227.356837 
L 108.154884 227.356837 
L 110.938111 227.356837 
L 113.721337 227.356837 
L 116.504564 227.356837 
L 119.28779 227.356837 
L 122.071017 227.356837 
L 124.854244 227.356837 
L 127.63747 227.356837 
L 130.420697 227.356837 
L 133.203923 227.356837 
L 135.98715 227.356837 
L 138.770377 227.356837 
L 141.553603 227.356837 
L 144.33683 227.356837 
L 147.120056 227.356837 
L 149.903283 227.356837 
L 152.68651 227.356837 
L 155.469736 227.356837 
L 158.252963 227.356837 
L 161.036189 227.356837 
L 163.819416 227.356837 
L 166.602643 227.356837 
L 169.385869 227.356837 
L 172.169096 227.356837 
L 174.952322 227.356837 
L 177.735549 227.356837 
L 180.518776 227.356837 
L 183.302002 227.356837 
L 186.085229 227.356837 
L 188.868455 227.356837 
L 191.651682 227.356837 
L 194.434909 227.356837 
L 197.218135 227.356837 
L 200.001362 227.356837 
L 202.784588 227.356837 
L 205.567815 227.356837 
L 208.351042 227.356837 
L 211.134268 227.356837 
L 213.917495 227.356837 
L 216.700721 227.356837 
L 219.483948 227.356837 
L 222.267175 227.356837 
L 225.050401 227.356837 
L 227.833628 227.356837 
L 230.616854 227.356837 
L 233.400081 227.356837 
L 236.183308 227.356837 
L 238.966534 227.356837 
L 241.749761 227.356837 
L 244.532987 227.356837 
L 247.316214 227.356837 
L 250.099441 227.356837 
L 252.882667 227.356837 
L 255.665894 227.356837 
L 258.44912 227.356837 
L 261.232347 227.356837 
L 264.015574 227.356837 
L 266.7988 227.356837 
L 269.582027 227.356837 
L 272.365253 227.356837 
L 275.14848 227.356837 
L 277.931707 227.356837 
L 280.714933 227.356837 
L 283.49816 227.356837 
L 286.281386 227.356837 
L 289.064613 227.356837 
L 291.84784 227.356837 
L 294.631066 227.356837 
L 297.414293 227.356837 
L 300.197519 227.356837 
L 302.980746 227.356837 
L 305.763973 227.356837 
L 308.547199 227.356837 
L 311.330426 227.356837 
L 314.113653 227.356837 
L 316.896879 227.356837 
L 319.680106 227.356837 
L 322.463332 227.356837 
L 325.246559 227.356837 
L 328.029786 227.356837 
L 330.813012 227.356837 
L 333.596239 227.356837 
L 336.379465 227.356837 
L 339.162692 227.356837 
L 341.945919 227.356837 
L 344.729145 227.356837 
L 347.512372 227.356837 
L 350.295598 227.356837 
L 350.295598 224.436265 
L 350.295598 224.436265 
L 347.512372 226.364659 
L 344.729145 226.8578 
L 341.945919 226.408167 
L 339.162692 225.373438 
L 336.379465 224.003941 
L 333.596239 222.466024 
L 330.813012 220.861783 
L 328.029786 219.245551 
L 325.246559 217.637531 
L 322.463332 216.034911 
L 319.680106 214.420768 
L 316.896879 212.771077 
L 314.113653 211.060063 
L 311.330426 209.264142 
L 308.547199 207.364684 
L 305.763973 205.349777 
L 302.980746 203.215165 
L 300.197519 200.964542 
L 297.414293 198.609306 
L 294.631066 196.167931 
L 291.84784 193.665035 
L 289.064613 191.130255 
L 286.281386 188.597003 
L 283.49816 186.101172 
L 280.714933 183.679843 
L 277.931707 181.370049 
L 275.14848 179.207622 
L 272.365253 177.226157 
L 269.582027 175.45612 
L 266.7988 173.924095 
L 264.015574 172.652194 
L 261.232347 171.657635 
L 258.44912 170.952465 
L 255.665894 170.543444 
L 252.882667 170.432071 
L 250.099441 170.61474 
L 247.316214 171.083009 
L 244.532987 171.823974 
L 241.749761 172.820725 
L 238.966534 174.052871 
L 236.183308 175.497106 
L 233.400081 177.127814 
L 230.616854 178.917684 
L 227.833628 180.838321 
L 225.050401 182.860843 
L 222.267175 184.956443 
L 219.483948 187.096915 
L 216.700721 189.255114 
L 213.917495 227.349212 
L 211.134268 227.349455 
L 208.351042 195.45954 
L 205.567815 197.482707 
L 202.784588 199.421273 
L 200.001362 201.258745 
L 197.218135 202.980795 
L 194.434909 204.57526 
L 191.651682 206.032096 
L 188.868455 207.343295 
L 186.085229 208.502778 
L 183.302002 209.506251 
L 180.518776 210.35107 
L 177.735549 211.036085 
L 174.952322 211.561501 
L 172.169096 211.928759 
L 169.385869 212.140432 
L 166.602643 212.200176 
L 163.819416 212.112706 
L 161.036189 211.883837 
L 158.252963 211.520571 
L 155.469736 211.031252 
L 152.68651 210.425767 
L 149.903283 209.715813 
L 147.120056 208.915202 
L 144.33683 208.040213 
L 141.553603 207.10995 
L 138.770377 206.146715 
L 135.98715 205.17634 
L 133.203923 204.228464 
L 130.420697 203.336705 
L 127.63747 202.538676 
L 124.854244 201.875797 
L 122.071017 201.392825 
L 119.28779 201.137031 
L 116.504564 201.156935 
L 113.721337 201.500495 
L 110.938111 202.212643 
L 108.154884 203.332042 
L 105.371657 204.886911 
L 102.588431 206.889786 
L 99.805204 209.331023 
L 97.021978 212.170859 
L 94.238751 215.329839 
L 91.455524 218.677357 
L 88.672298 222.018089 
L 85.889071 225.076031 
L 83.105845 227.475864 
L 80.322618 228.721328 
L 77.539391 228.170259 
L 74.756165 225.005942 
z
" clip-path="url(#p3d90a79b7a)" style="fill: #d62728; fill-opacity: 0.166667"/>
   </g>
   <g id="PolyCollection_5">
    <path d="M 74.756165 225.488263 
L 74.756165 227.356837 
L 78.035503 227.356837 
L 81.314841 227.356837 
L 84.594179 227.356837 
L 87.873517 227.356837 
L 91.152855 227.356837 
L 94.432193 227.356837 
L 97.711531 227.356837 
L 100.990869 227.356837 
L 104.270207 227.356837 
L 107.549545 227.356837 
L 110.828883 227.356837 
L 114.108222 227.356837 
L 117.38756 227.356837 
L 120.666898 227.356837 
L 123.946236 227.356837 
L 127.225574 227.356837 
L 130.504912 227.356837 
L 133.78425 227.356837 
L 137.063588 227.356837 
L 140.342926 227.356837 
L 143.622264 227.356837 
L 146.901602 227.356837 
L 150.18094 227.356837 
L 153.460278 227.356837 
L 156.739616 227.356837 
L 160.018954 227.356837 
L 163.298292 227.356837 
L 166.57763 227.356837 
L 169.856969 227.356837 
L 173.136307 227.356837 
L 176.415645 227.356837 
L 179.694983 227.356837 
L 182.974321 227.356837 
L 186.253659 227.356837 
L 189.532997 227.356837 
L 192.812335 227.356837 
L 196.091673 227.356837 
L 199.371011 227.356837 
L 202.650349 227.356837 
L 205.929687 227.356837 
L 209.209025 227.356837 
L 212.488363 227.356837 
L 215.767701 227.356837 
L 219.047039 227.356837 
L 222.326378 227.356837 
L 225.605716 227.356837 
L 228.885054 227.356837 
L 232.164392 227.356837 
L 235.44373 227.356837 
L 238.723068 227.356837 
L 242.002406 227.356837 
L 245.281744 227.356837 
L 248.561082 227.356837 
L 251.84042 227.356837 
L 255.119758 227.356837 
L 258.399096 227.356837 
L 261.678434 227.356837 
L 264.957772 227.356837 
L 268.23711 227.356837 
L 271.516448 227.356837 
L 274.795787 227.356837 
L 278.075125 227.356837 
L 281.354463 227.356837 
L 284.633801 227.356837 
L 287.913139 227.356837 
L 291.192477 227.356837 
L 294.471815 227.356837 
L 297.751153 227.356837 
L 301.030491 227.356837 
L 304.309829 227.356837 
L 307.589167 227.356837 
L 310.868505 227.356837 
L 314.147843 227.356837 
L 317.427181 227.356837 
L 320.706519 227.356837 
L 323.985857 227.356837 
L 327.265195 227.356837 
L 330.544534 227.356837 
L 333.823872 227.356837 
L 337.10321 227.356837 
L 340.382548 227.356837 
L 343.661886 227.356837 
L 346.941224 227.356837 
L 350.220562 227.356837 
L 353.4999 227.356837 
L 356.779238 227.356837 
L 360.058576 227.356837 
L 363.337914 227.356837 
L 366.617252 227.356837 
L 369.89659 227.356837 
L 373.175928 227.356837 
L 376.455266 227.356837 
L 379.734604 227.356837 
L 383.013943 227.356837 
L 386.293281 227.356837 
L 389.572619 227.356837 
L 392.851957 227.356837 
L 396.131295 227.356837 
L 399.410633 227.356837 
L 399.410633 219.191874 
L 399.410633 219.191874 
L 396.131295 225.257687 
L 392.851957 228.487052 
L 389.572619 229.731626 
L 386.293281 229.648626 
L 383.013943 228.734209 
L 379.734604 227.352546 
L 376.455266 225.760979 
L 373.175928 224.131675 
L 369.89659 222.57012 
L 366.617252 221.130803 
L 363.337914 219.830389 
L 360.058576 218.658666 
L 356.779238 217.587543 
L 353.4999 216.578319 
L 350.220562 215.587461 
L 346.941224 214.571084 
L 343.661886 213.488316 
L 340.382548 212.303712 
L 337.10321 210.988875 
L 333.823872 209.523408 
L 330.544534 207.89532 
L 327.265195 206.100992 
L 323.985857 204.144803 
L 320.706519 202.038485 
L 317.427181 199.800293 
L 314.147843 197.454043 
L 310.868505 195.028075 
L 307.589167 192.55418 
L 304.309829 190.066535 
L 301.030491 187.600671 
L 297.751153 185.192498 
L 294.471815 182.877408 
L 291.192477 180.689466 
L 287.913139 178.660699 
L 284.633801 176.820489 
L 281.354463 175.195071 
L 278.075125 173.80713 
L 274.795787 172.675507 
L 271.516448 171.814992 
L 268.23711 171.236211 
L 264.957772 170.945586 
L 261.678434 170.945376 
L 258.399096 171.233772 
L 255.119758 171.805052 
L 251.84042 172.649777 
L 248.561082 173.755024 
L 245.281744 175.104645 
L 242.002406 176.679548 
L 238.723068 227.349003 
L 235.44373 227.349115 
L 232.164392 182.524845 
L 228.885054 184.791735 
L 225.605716 187.154035 
L 222.326378 189.579999 
L 219.047039 192.037112 
L 215.767701 194.492435 
L 212.488363 196.91296 
L 209.209025 199.265958 
L 205.929687 201.51933 
L 202.650349 203.641973 
L 199.371011 205.604136 
L 196.091673 207.377804 
L 192.812335 208.937086 
L 189.532997 210.258623 
L 186.253659 211.322013 
L 182.974321 212.110257 
L 179.694983 212.610228 
L 176.415645 212.813149 
L 173.136307 212.715097 
L 169.856969 212.317509 
L 166.57763 211.627686 
L 163.298292 210.659294 
L 160.018954 209.432825 
L 156.739616 207.976021 
L 153.460278 206.324216 
L 150.18094 204.520578 
L 146.901602 202.616216 
L 143.622264 200.67009 
L 140.342926 198.748702 
L 137.063588 196.925489 
L 133.78425 195.279852 
L 130.504912 193.895758 
L 127.225574 192.859813 
L 123.946236 192.258719 
L 120.666898 192.175999 
L 117.38756 192.687871 
L 114.108222 193.858135 
L 110.828883 195.731925 
L 107.549545 198.328153 
L 104.270207 201.630473 
L 100.990869 205.576565 
L 97.711531 210.045512 
L 94.432193 214.843047 
L 91.152855 219.684403 
L 87.873517 224.174499 
L 84.594179 227.785146 
L 81.314841 229.828964 
L 78.035503 229.429658 
L 74.756165 225.488263 
z
" clip-path="url(#p3d90a79b7a)" style="fill: #9467bd; fill-opacity: 0.166667"/>
   </g>
   <g id="PolyCollection_6">
    <path d="M 74.756165 226.761489 
L 74.756165 227.356837 
L 78.035501 227.356837 
L 81.314837 227.356837 
L 84.594174 227.356837 
L 87.87351 227.356837 
L 91.152846 227.356837 
L 94.432183 227.356837 
L 97.711519 227.356837 
L 100.990855 227.356837 
L 104.270191 227.356837 
L 107.549528 227.356837 
L 110.828864 227.356837 
L 114.1082 227.356837 
L 117.387537 227.356837 
L 120.666873 227.356837 
L 123.946209 227.356837 
L 127.225546 227.356837 
L 130.504882 227.356837 
L 133.784218 227.356837 
L 137.063555 227.356837 
L 140.342891 227.356837 
L 143.622227 227.356837 
L 146.901563 227.356837 
L 150.1809 227.356837 
L 153.460236 227.356837 
L 156.739572 227.356837 
L 160.018909 227.356837 
L 163.298245 227.356837 
L 166.577581 227.356837 
L 169.856918 227.356837 
L 173.136254 227.356837 
L 176.41559 227.356837 
L 179.694926 227.356837 
L 182.974263 227.356837 
L 186.253599 227.356837 
L 189.532935 227.356837 
L 192.812272 227.356837 
L 196.091608 227.356837 
L 199.370944 227.356837 
L 202.650281 227.356837 
L 205.929617 227.356837 
L 209.208953 227.356837 
L 212.488289 227.356837 
L 215.767626 227.356837 
L 219.046962 227.356837 
L 222.326298 227.356837 
L 225.605635 227.356837 
L 228.884971 227.356837 
L 232.164307 227.356837 
L 235.443644 227.356837 
L 238.72298 227.356837 
L 242.002316 227.356837 
L 245.281652 227.356837 
L 248.560989 227.356837 
L 251.840325 227.356837 
L 255.119661 227.356837 
L 258.398998 227.356837 
L 261.678334 227.356837 
L 264.95767 227.356837 
L 268.237007 227.356837 
L 271.516343 227.356837 
L 274.795679 227.356837 
L 278.075015 227.356837 
L 281.354352 227.356837 
L 284.633688 227.356837 
L 287.913024 227.356837 
L 291.192361 227.356837 
L 294.471697 227.356837 
L 297.751033 227.356837 
L 301.03037 227.356837 
L 304.309706 227.356837 
L 307.589042 227.356837 
L 310.868379 227.356837 
L 314.147715 227.356837 
L 317.427051 227.356837 
L 320.706387 227.356837 
L 323.985724 227.356837 
L 327.26506 227.356837 
L 330.544396 227.356837 
L 333.823733 227.356837 
L 337.103069 227.356837 
L 340.382405 227.356837 
L 343.661742 227.356837 
L 346.941078 227.356837 
L 350.220414 227.356837 
L 353.49975 227.356837 
L 356.779087 227.356837 
L 360.058423 227.356837 
L 363.337759 227.356837 
L 366.617096 227.356837 
L 369.896432 227.356837 
L 373.175768 227.356837 
L 376.455105 227.356837 
L 379.734441 227.356837 
L 383.013777 227.356837 
L 386.293113 227.356837 
L 389.57245 227.356837 
L 392.851786 227.356837 
L 396.131122 227.356837 
L 399.410459 227.356837 
L 399.410459 226.71603 
L 399.410459 226.71603 
L 396.131122 225.863011 
L 392.851786 225.734551 
L 389.57245 226.036501 
L 386.293113 226.554769 
L 383.013777 227.138413 
L 379.734441 227.685403 
L 376.455105 228.13074 
L 373.175768 228.436675 
L 369.896432 228.584753 
L 366.617096 228.56946 
L 363.337759 228.39326 
L 360.058423 228.062807 
L 356.779087 227.586187 
L 353.49975 226.970993 
L 350.220414 226.223108 
L 346.941078 225.346067 
L 343.661742 224.340864 
L 340.382405 223.206116 
L 337.103069 221.938491 
L 333.823733 220.533313 
L 330.544396 218.985281 
L 327.26506 217.289239 
L 323.985724 215.440957 
L 320.706387 213.43787 
L 317.427051 211.27975 
L 314.147715 208.96928 
L 310.868379 206.512522 
L 307.589042 203.919247 
L 304.309706 201.20314 
L 301.03037 198.38186 
L 297.751033 195.476967 
L 294.471697 192.513719 
L 291.192361 189.520743 
L 287.913024 186.529591 
L 284.633688 183.574207 
L 281.354352 180.690298 
L 278.075015 177.914643 
L 274.795679 175.284351 
L 271.516343 172.836089 
L 268.237007 170.605289 
L 264.95767 168.625363 
L 261.678334 166.926941 
L 258.398998 165.537147 
L 255.119661 164.478926 
L 251.840325 163.770444 
L 248.560989 163.424576 
L 245.281652 163.448481 
L 242.002316 163.843293 
L 238.72298 227.348197 
L 235.443644 227.348291 
L 232.164307 166.988787 
L 228.884971 168.753892 
L 225.605635 170.811851 
L 222.326298 173.127278 
L 219.046962 175.659592 
L 215.767626 178.363728 
L 212.488289 181.190979 
L 209.208953 184.08994 
L 205.929617 187.007549 
L 202.650281 189.890204 
L 199.370944 192.684936 
L 196.091608 195.340615 
L 192.812272 197.809165 
L 189.532935 200.046766 
L 186.253599 202.015013 
L 182.974263 203.682 
L 179.694926 205.023313 
L 176.41559 206.022896 
L 173.136254 206.67376 
L 169.856918 206.978515 
L 166.577581 206.949696 
L 163.298245 206.609859 
L 160.018909 205.991432 
L 156.739572 205.13629 
L 153.460236 204.095055 
L 150.1809 202.926104 
L 146.901563 201.694273 
L 143.622227 200.469279 
L 140.342891 199.323841 
L 137.063555 198.331537 
L 133.784218 197.564409 
L 130.504882 197.090351 
L 127.225546 196.970322 
L 123.946209 197.255441 
L 120.666873 197.984018 
L 117.387537 199.178615 
L 114.1082 200.843218 
L 110.828864 202.960621 
L 107.549528 205.490165 
L 104.270191 208.36595 
L 100.990855 211.495693 
L 97.711519 214.760399 
L 94.432183 218.015049 
L 91.152846 221.090533 
L 87.87351 223.797045 
L 84.594174 225.929247 
L 81.314837 227.273454 
L 78.035501 227.617197 
L 74.756165 226.761489 
z
" clip-path="url(#p3d90a79b7a)" style="fill: #8c564b; fill-opacity: 0.166667"/>
   </g>
   <g id="matplotlib.axis_1">
    <g id="xtick_1">
     <g id="line2d_1">
      <defs>
       <path id="m5a63466202" d="M 0 0 
L 0 3.5 
" style="stroke: #000000; stroke-width: 0.8"/>
      </defs>
      <g>
       <use xlink:href="#m5a63466202" x="74.756165" y="288.430125" style="stroke: #000000; stroke-width: 0.8"/>
      </g>
     </g>
     <g id="text_1">
      <!-- 0.0 -->
      <g transform="translate(66.804602 303.028562) scale(0.1 -0.1)">
       <defs>
        <path id="DejaVuSans-30" d="M 2034 4250 
Q 1547 4250 1301 3770 
Q 1056 3291 1056 2328 
Q 1056 1369 1301 889 
Q 1547 409 2034 409 
Q 2525 409 2770 889 
Q 3016 1369 3016 2328 
Q 3016 3291 2770 3770 
Q 2525 4250 2034 4250 
z
M 2034 4750 
Q 2819 4750 3233 4129 
Q 3647 3509 3647 2328 
Q 3647 1150 3233 529 
Q 2819 -91 2034 -91 
Q 1250 -91 836 529 
Q 422 1150 422 2328 
Q 422 3509 836 4129 
Q 1250 4750 2034 4750 
z
" transform="scale(0.015625)"/>
        <path id="DejaVuSans-2e" d="M 684 794 
L 1344 794 
L 1344 0 
L 684 0 
L 684 794 
z
" transform="scale(0.015625)"/>
       </defs>
       <use xlink:href="#DejaVuSans-30"/>
       <use xlink:href="#DejaVuSans-2e" x="63.623047"/>
       <use xlink:href="#DejaVuSans-30" x="95.410156"/>
      </g>
     </g>
    </g>
    <g id="xtick_2">
     <g id="line2d_2">
      <g>
       <use xlink:href="#m5a63466202" x="140.342946" y="288.430125" style="stroke: #000000; stroke-width: 0.8"/>
      </g>
     </g>
     <g id="text_2">
      <!-- 0.2 -->
      <g transform="translate(132.391383 303.028562) scale(0.1 -0.1)">
       <defs>
        <path id="DejaVuSans-32" d="M 1228 531 
L 3431 531 
L 3431 0 
L 469 0 
L 469 531 
Q 828 903 1448 1529 
Q 2069 2156 2228 2338 
Q 2531 2678 2651 2914 
Q 2772 3150 2772 3378 
Q 2772 3750 2511 3984 
Q 2250 4219 1831 4219 
Q 1534 4219 1204 4116 
Q 875 4013 500 3803 
L 500 4441 
Q 881 4594 1212 4672 
Q 1544 4750 1819 4750 
Q 2544 4750 2975 4387 
Q 3406 4025 3406 3419 
Q 3406 3131 3298 2873 
Q 3191 2616 2906 2266 
Q 2828 2175 2409 1742 
Q 1991 1309 1228 531 
z
" transform="scale(0.015625)"/>
       </defs>
       <use xlink:href="#DejaVuSans-30"/>
       <use xlink:href="#DejaVuSans-2e" x="63.623047"/>
       <use xlink:href="#DejaVuSans-32" x="95.410156"/>
      </g>
     </g>
    </g>
    <g id="xtick_3">
     <g id="line2d_3">
      <g>
       <use xlink:href="#m5a63466202" x="205.929726" y="288.430125" style="stroke: #000000; stroke-width: 0.8"/>
      </g>
     </g>
     <g id="text_3">
      <!-- 0.4 -->
      <g transform="translate(197.978164 303.028562) scale(0.1 -0.1)">
       <defs>
        <path id="DejaVuSans-34" d="M 2419 4116 
L 825 1625 
L 2419 1625 
L 2419 4116 
z
M 2253 4666 
L 3047 4666 
L 3047 1625 
L 3713 1625 
L 3713 1100 
L 3047 1100 
L 3047 0 
L 2419 0 
L 2419 1100 
L 313 1100 
L 313 1709 
L 2253 4666 
z
" transform="scale(0.015625)"/>
       </defs>
       <use xlink:href="#DejaVuSans-30"/>
       <use xlink:href="#DejaVuSans-2e" x="63.623047"/>
       <use xlink:href="#DejaVuSans-34" x="95.410156"/>
      </g>
     </g>
    </g>
    <g id="xtick_4">
     <g id="line2d_4">
      <g>
       <use xlink:href="#m5a63466202" x="271.516507" y="288.430125" style="stroke: #000000; stroke-width: 0.8"/>
      </g>
     </g>
     <g id="text_4">
      <!-- 0.6 -->
      <g transform="translate(263.564945 303.028562) scale(0.1 -0.1)">
       <defs>
        <path id="DejaVuSans-36" d="M 2113 2584 
Q 1688 2584 1439 2293 
Q 1191 2003 1191 1497 
Q 1191 994 1439 701 
Q 1688 409 2113 409 
Q 2538 409 2786 701 
Q 3034 994 3034 1497 
Q 3034 2003 2786 2293 
Q 2538 2584 2113 2584 
z
M 3366 4563 
L 3366 3988 
Q 3128 4100 2886 4159 
Q 2644 4219 2406 4219 
Q 1781 4219 1451 3797 
Q 1122 3375 1075 2522 
Q 1259 2794 1537 2939 
Q 1816 3084 2150 3084 
Q 2853 3084 3261 2657 
Q 3669 2231 3669 1497 
Q 3669 778 3244 343 
Q 2819 -91 2113 -91 
Q 1303 -91 875 529 
Q 447 1150 447 2328 
Q 447 3434 972 4092 
Q 1497 4750 2381 4750 
Q 2619 4750 2861 4703 
Q 3103 4656 3366 4563 
z
" transform="scale(0.015625)"/>
       </defs>
       <use xlink:href="#DejaVuSans-30"/>
       <use xlink:href="#DejaVuSans-2e" x="63.623047"/>
       <use xlink:href="#DejaVuSans-36" x="95.410156"/>
      </g>
     </g>
    </g>
    <g id="xtick_5">
     <g id="line2d_5">
      <g>
       <use xlink:href="#m5a63466202" x="337.103288" y="288.430125" style="stroke: #000000; stroke-width: 0.8"/>
      </g>
     </g>
     <g id="text_5">
      <!-- 0.8 -->
      <g transform="translate(329.151725 303.028562) scale(0.1 -0.1)">
       <defs>
        <path id="DejaVuSans-38" d="M 2034 2216 
Q 1584 2216 1326 1975 
Q 1069 1734 1069 1313 
Q 1069 891 1326 650 
Q 1584 409 2034 409 
Q 2484 409 2743 651 
Q 3003 894 3003 1313 
Q 3003 1734 2745 1975 
Q 2488 2216 2034 2216 
z
M 1403 2484 
Q 997 2584 770 2862 
Q 544 3141 544 3541 
Q 544 4100 942 4425 
Q 1341 4750 2034 4750 
Q 2731 4750 3128 4425 
Q 3525 4100 3525 3541 
Q 3525 3141 3298 2862 
Q 3072 2584 2669 2484 
Q 3125 2378 3379 2068 
Q 3634 1759 3634 1313 
Q 3634 634 3220 271 
Q 2806 -91 2034 -91 
Q 1263 -91 848 271 
Q 434 634 434 1313 
Q 434 1759 690 2068 
Q 947 2378 1403 2484 
z
M 1172 3481 
Q 1172 3119 1398 2916 
Q 1625 2713 2034 2713 
Q 2441 2713 2670 2916 
Q 2900 3119 2900 3481 
Q 2900 3844 2670 4047 
Q 2441 4250 2034 4250 
Q 1625 4250 1398 4047 
Q 1172 3844 1172 3481 
z
" transform="scale(0.015625)"/>
       </defs>
       <use xlink:href="#DejaVuSans-30"/>
       <use xlink:href="#DejaVuSans-2e" x="63.623047"/>
       <use xlink:href="#DejaVuSans-38" x="95.410156"/>
      </g>
     </g>
    </g>
    <g id="xtick_6">
     <g id="line2d_6">
      <g>
       <use xlink:href="#m5a63466202" x="402.690069" y="288.430125" style="stroke: #000000; stroke-width: 0.8"/>
      </g>
     </g>
     <g id="text_6">
      <!-- 1.0 -->
      <g transform="translate(394.738506 303.028562) scale(0.1 -0.1)">
       <defs>
        <path id="DejaVuSans-31" d="M 794 531 
L 1825 531 
L 1825 4091 
L 703 3866 
L 703 4441 
L 1819 4666 
L 2450 4666 
L 2450 531 
L 3481 531 
L 3481 0 
L 794 0 
L 794 531 
z
" transform="scale(0.015625)"/>
       </defs>
       <use xlink:href="#DejaVuSans-31"/>
       <use xlink:href="#DejaVuSans-2e" x="63.623047"/>
       <use xlink:href="#DejaVuSans-30" x="95.410156"/>
      </g>
     </g>
    </g>
    <g id="text_7">
     <!-- Pixel values -->
     <g transform="translate(207.671719 316.706687) scale(0.1 -0.1)">
      <defs>
       <path id="DejaVuSans-50" d="M 1259 4147 
L 1259 2394 
L 2053 2394 
Q 2494 2394 2734 2622 
Q 2975 2850 2975 3272 
Q 2975 3691 2734 3919 
Q 2494 4147 2053 4147 
L 1259 4147 
z
M 628 4666 
L 2053 4666 
Q 2838 4666 3239 4311 
Q 3641 3956 3641 3272 
Q 3641 2581 3239 2228 
Q 2838 1875 2053 1875 
L 1259 1875 
L 1259 0 
L 628 0 
L 628 4666 
z
" transform="scale(0.015625)"/>
       <path id="DejaVuSans-69" d="M 603 3500 
L 1178 3500 
L 1178 0 
L 603 0 
L 603 3500 
z
M 603 4863 
L 1178 4863 
L 1178 4134 
L 603 4134 
L 603 4863 
z
" transform="scale(0.015625)"/>
       <path id="DejaVuSans-78" d="M 3513 3500 
L 2247 1797 
L 3578 0 
L 2900 0 
L 1881 1375 
L 863 0 
L 184 0 
L 1544 1831 
L 300 3500 
L 978 3500 
L 1906 2253 
L 2834 3500 
L 3513 3500 
z
" transform="scale(0.015625)"/>
       <path id="DejaVuSans-65" d="M 3597 1894 
L 3597 1613 
L 953 1613 
Q 991 1019 1311 708 
Q 1631 397 2203 397 
Q 2534 397 2845 478 
Q 3156 559 3463 722 
L 3463 178 
Q 3153 47 2828 -22 
Q 2503 -91 2169 -91 
Q 1331 -91 842 396 
Q 353 884 353 1716 
Q 353 2575 817 3079 
Q 1281 3584 2069 3584 
Q 2775 3584 3186 3129 
Q 3597 2675 3597 1894 
z
M 3022 2063 
Q 3016 2534 2758 2815 
Q 2500 3097 2075 3097 
Q 1594 3097 1305 2825 
Q 1016 2553 972 2059 
L 3022 2063 
z
" transform="scale(0.015625)"/>
       <path id="DejaVuSans-6c" d="M 603 4863 
L 1178 4863 
L 1178 0 
L 603 0 
L 603 4863 
z
" transform="scale(0.015625)"/>
       <path id="DejaVuSans-20" transform="scale(0.015625)"/>
       <path id="DejaVuSans-76" d="M 191 3500 
L 800 3500 
L 1894 563 
L 2988 3500 
L 3597 3500 
L 2284 0 
L 1503 0 
L 191 3500 
z
" transform="scale(0.015625)"/>
       <path id="DejaVuSans-61" d="M 2194 1759 
Q 1497 1759 1228 1600 
Q 959 1441 959 1056 
Q 959 750 1161 570 
Q 1363 391 1709 391 
Q 2188 391 2477 730 
Q 2766 1069 2766 1631 
L 2766 1759 
L 2194 1759 
z
M 3341 1997 
L 3341 0 
L 2766 0 
L 2766 531 
Q 2569 213 2275 61 
Q 1981 -91 1556 -91 
Q 1019 -91 701 211 
Q 384 513 384 1019 
Q 384 1609 779 1909 
Q 1175 2209 1959 2209 
L 2766 2209 
L 2766 2266 
Q 2766 2663 2505 2880 
Q 2244 3097 1772 3097 
Q 1472 3097 1187 3025 
Q 903 2953 641 2809 
L 641 3341 
Q 956 3463 1253 3523 
Q 1550 3584 1831 3584 
Q 2591 3584 2966 3190 
Q 3341 2797 3341 1997 
z
" transform="scale(0.015625)"/>
       <path id="DejaVuSans-75" d="M 544 1381 
L 544 3500 
L 1119 3500 
L 1119 1403 
Q 1119 906 1312 657 
Q 1506 409 1894 409 
Q 2359 409 2629 706 
Q 2900 1003 2900 1516 
L 2900 3500 
L 3475 3500 
L 3475 0 
L 2900 0 
L 2900 538 
Q 2691 219 2414 64 
Q 2138 -91 1772 -91 
Q 1169 -91 856 284 
Q 544 659 544 1381 
z
M 1991 3584 
L 1991 3584 
z
" transform="scale(0.015625)"/>
       <path id="DejaVuSans-73" d="M 2834 3397 
L 2834 2853 
Q 2591 2978 2328 3040 
Q 2066 3103 1784 3103 
Q 1356 3103 1142 2972 
Q 928 2841 928 2578 
Q 928 2378 1081 2264 
Q 1234 2150 1697 2047 
L 1894 2003 
Q 2506 1872 2764 1633 
Q 3022 1394 3022 966 
Q 3022 478 2636 193 
Q 2250 -91 1575 -91 
Q 1294 -91 989 -36 
Q 684 19 347 128 
L 347 722 
Q 666 556 975 473 
Q 1284 391 1588 391 
Q 1994 391 2212 530 
Q 2431 669 2431 922 
Q 2431 1156 2273 1281 
Q 2116 1406 1581 1522 
L 1381 1569 
Q 847 1681 609 1914 
Q 372 2147 372 2553 
Q 372 3047 722 3315 
Q 1072 3584 1716 3584 
Q 2034 3584 2315 3537 
Q 2597 3491 2834 3397 
z
" transform="scale(0.015625)"/>
      </defs>
      <use xlink:href="#DejaVuSans-50"/>
      <use xlink:href="#DejaVuSans-69" x="58.052734"/>
      <use xlink:href="#DejaVuSans-78" x="85.835938"/>
      <use xlink:href="#DejaVuSans-65" x="141.890625"/>
      <use xlink:href="#DejaVuSans-6c" x="203.414062"/>
      <use xlink:href="#DejaVuSans-20" x="231.197266"/>
      <use xlink:href="#DejaVuSans-76" x="262.984375"/>
      <use xlink:href="#DejaVuSans-61" x="322.164062"/>
      <use xlink:href="#DejaVuSans-6c" x="383.443359"/>
      <use xlink:href="#DejaVuSans-75" x="411.226562"/>
      <use xlink:href="#DejaVuSans-65" x="474.605469"/>
      <use xlink:href="#DejaVuSans-73" x="536.128906"/>
     </g>
    </g>
   </g>
   <g id="matplotlib.axis_2">
    <g id="ytick_1">
     <g id="line2d_7">
      <defs>
       <path id="mcf603f6e93" d="M 0 0 
L -3.5 0 
" style="stroke: #000000; stroke-width: 0.8"/>
      </defs>
      <g>
       <use xlink:href="#mcf603f6e93" x="58.523438" y="279.127318" style="stroke: #000000; stroke-width: 0.8"/>
      </g>
     </g>
     <g id="text_8">
      <!-- −0.02 -->
      <g transform="translate(20.878125 282.926537) scale(0.1 -0.1)">
       <defs>
        <path id="DejaVuSans-2212" d="M 678 2272 
L 4684 2272 
L 4684 1741 
L 678 1741 
L 678 2272 
z
" transform="scale(0.015625)"/>
       </defs>
       <use xlink:href="#DejaVuSans-2212"/>
       <use xlink:href="#DejaVuSans-30" x="83.789062"/>
       <use xlink:href="#DejaVuSans-2e" x="147.412109"/>
       <use xlink:href="#DejaVuSans-30" x="179.199219"/>
       <use xlink:href="#DejaVuSans-32" x="242.822266"/>
      </g>
     </g>
    </g>
    <g id="ytick_2">
     <g id="line2d_8">
      <g>
       <use xlink:href="#mcf603f6e93" x="58.523438" y="227.356837" style="stroke: #000000; stroke-width: 0.8"/>
      </g>
     </g>
     <g id="text_9">
      <!-- 0.00 -->
      <g transform="translate(29.257813 231.156056) scale(0.1 -0.1)">
       <use xlink:href="#DejaVuSans-30"/>
       <use xlink:href="#DejaVuSans-2e" x="63.623047"/>
       <use xlink:href="#DejaVuSans-30" x="95.410156"/>
       <use xlink:href="#DejaVuSans-30" x="159.033203"/>
      </g>
     </g>
    </g>
    <g id="ytick_3">
     <g id="line2d_9">
      <g>
       <use xlink:href="#mcf603f6e93" x="58.523438" y="175.586356" style="stroke: #000000; stroke-width: 0.8"/>
      </g>
     </g>
     <g id="text_10">
      <!-- 0.02 -->
      <g transform="translate(29.257813 179.385575) scale(0.1 -0.1)">
       <use xlink:href="#DejaVuSans-30"/>
       <use xlink:href="#DejaVuSans-2e" x="63.623047"/>
       <use xlink:href="#DejaVuSans-30" x="95.410156"/>
       <use xlink:href="#DejaVuSans-32" x="159.033203"/>
      </g>
     </g>
    </g>
    <g id="ytick_4">
     <g id="line2d_10">
      <g>
       <use xlink:href="#mcf603f6e93" x="58.523438" y="123.815876" style="stroke: #000000; stroke-width: 0.8"/>
      </g>
     </g>
     <g id="text_11">
      <!-- 0.04 -->
      <g transform="translate(29.257813 127.615095) scale(0.1 -0.1)">
       <use xlink:href="#DejaVuSans-30"/>
       <use xlink:href="#DejaVuSans-2e" x="63.623047"/>
       <use xlink:href="#DejaVuSans-30" x="95.410156"/>
       <use xlink:href="#DejaVuSans-34" x="159.033203"/>
      </g>
     </g>
    </g>
    <g id="ytick_5">
     <g id="line2d_11">
      <g>
       <use xlink:href="#mcf603f6e93" x="58.523438" y="72.045395" style="stroke: #000000; stroke-width: 0.8"/>
      </g>
     </g>
     <g id="text_12">
      <!-- 0.06 -->
      <g transform="translate(29.257813 75.844614) scale(0.1 -0.1)">
       <use xlink:href="#DejaVuSans-30"/>
       <use xlink:href="#DejaVuSans-2e" x="63.623047"/>
       <use xlink:href="#DejaVuSans-30" x="95.410156"/>
       <use xlink:href="#DejaVuSans-36" x="159.033203"/>
      </g>
     </g>
    </g>
    <g id="text_13">
     <!-- Frequency -->
     <g transform="translate(14.798438 181.203812) rotate(-90) scale(0.1 -0.1)">
      <defs>
       <path id="DejaVuSans-46" d="M 628 4666 
L 3309 4666 
L 3309 4134 
L 1259 4134 
L 1259 2759 
L 3109 2759 
L 3109 2228 
L 1259 2228 
L 1259 0 
L 628 0 
L 628 4666 
z
" transform="scale(0.015625)"/>
       <path id="DejaVuSans-72" d="M 2631 2963 
Q 2534 3019 2420 3045 
Q 2306 3072 2169 3072 
Q 1681 3072 1420 2755 
Q 1159 2438 1159 1844 
L 1159 0 
L 581 0 
L 581 3500 
L 1159 3500 
L 1159 2956 
Q 1341 3275 1631 3429 
Q 1922 3584 2338 3584 
Q 2397 3584 2469 3576 
Q 2541 3569 2628 3553 
L 2631 2963 
z
" transform="scale(0.015625)"/>
       <path id="DejaVuSans-71" d="M 947 1747 
Q 947 1113 1208 752 
Q 1469 391 1925 391 
Q 2381 391 2643 752 
Q 2906 1113 2906 1747 
Q 2906 2381 2643 2742 
Q 2381 3103 1925 3103 
Q 1469 3103 1208 2742 
Q 947 2381 947 1747 
z
M 2906 525 
Q 2725 213 2448 61 
Q 2172 -91 1784 -91 
Q 1150 -91 751 415 
Q 353 922 353 1747 
Q 353 2572 751 3078 
Q 1150 3584 1784 3584 
Q 2172 3584 2448 3432 
Q 2725 3281 2906 2969 
L 2906 3500 
L 3481 3500 
L 3481 -1331 
L 2906 -1331 
L 2906 525 
z
" transform="scale(0.015625)"/>
       <path id="DejaVuSans-6e" d="M 3513 2113 
L 3513 0 
L 2938 0 
L 2938 2094 
Q 2938 2591 2744 2837 
Q 2550 3084 2163 3084 
Q 1697 3084 1428 2787 
Q 1159 2491 1159 1978 
L 1159 0 
L 581 0 
L 581 3500 
L 1159 3500 
L 1159 2956 
Q 1366 3272 1645 3428 
Q 1925 3584 2291 3584 
Q 2894 3584 3203 3211 
Q 3513 2838 3513 2113 
z
" transform="scale(0.015625)"/>
       <path id="DejaVuSans-63" d="M 3122 3366 
L 3122 2828 
Q 2878 2963 2633 3030 
Q 2388 3097 2138 3097 
Q 1578 3097 1268 2742 
Q 959 2388 959 1747 
Q 959 1106 1268 751 
Q 1578 397 2138 397 
Q 2388 397 2633 464 
Q 2878 531 3122 666 
L 3122 134 
Q 2881 22 2623 -34 
Q 2366 -91 2075 -91 
Q 1284 -91 818 406 
Q 353 903 353 1747 
Q 353 2603 823 3093 
Q 1294 3584 2113 3584 
Q 2378 3584 2631 3529 
Q 2884 3475 3122 3366 
z
" transform="scale(0.015625)"/>
       <path id="DejaVuSans-79" d="M 2059 -325 
Q 1816 -950 1584 -1140 
Q 1353 -1331 966 -1331 
L 506 -1331 
L 506 -850 
L 844 -850 
Q 1081 -850 1212 -737 
Q 1344 -625 1503 -206 
L 1606 56 
L 191 3500 
L 800 3500 
L 1894 763 
L 2988 3500 
L 3597 3500 
L 2059 -325 
z
" transform="scale(0.015625)"/>
      </defs>
      <use xlink:href="#DejaVuSans-46"/>
      <use xlink:href="#DejaVuSans-72" x="50.269531"/>
      <use xlink:href="#DejaVuSans-65" x="89.132812"/>
      <use xlink:href="#DejaVuSans-71" x="150.65625"/>
      <use xlink:href="#DejaVuSans-75" x="214.132812"/>
      <use xlink:href="#DejaVuSans-65" x="277.511719"/>
      <use xlink:href="#DejaVuSans-6e" x="339.035156"/>
      <use xlink:href="#DejaVuSans-63" x="402.414062"/>
      <use xlink:href="#DejaVuSans-79" x="457.394531"/>
     </g>
    </g>
   </g>
   <g id="line2d_12">
    <path d="M 74.756165 222.867085 
L 78.035504 229.379862 
L 81.314842 230.885304 
L 84.594181 228.921551 
L 87.87352 224.708911 
L 91.152859 219.199929 
L 94.432198 213.123213 
L 97.711537 207.021618 
L 100.990876 201.285354 
L 104.270214 196.180544 
L 107.549553 191.873711 
L 110.828892 188.452649 
L 114.108231 185.944075 
L 117.38757 184.328461 
L 120.666909 183.55236 
L 123.946247 183.538574 
L 127.225586 184.194417 
L 130.504925 185.418366 
L 133.784264 187.105296 
L 137.063603 189.150549 
L 140.342942 191.452982 
L 143.62228 193.917203 
L 146.901619 196.455107 
L 150.180958 198.986863 
L 153.460297 201.441456 
L 156.739636 203.756886 
L 160.018975 205.880104 
L 163.298314 207.766753 
L 166.577652 209.38078 
L 169.856991 210.693966 
L 173.13633 211.685404 
L 176.415669 212.340969 
L 179.695008 212.652787 
L 182.974347 212.618736 
L 186.253685 212.241973 
L 189.533024 211.530505 
L 192.812363 210.496799 
L 196.091702 209.15743 
L 199.371041 207.532759 
L 202.65038 205.646645 
L 205.929718 203.526166 
L 209.209057 201.201357 
L 212.488396 198.704941 
L 215.767735 196.072057 
L 219.047074 193.339959 
L 222.326413 190.5477 
L 225.605752 187.735771 
L 228.88509 184.94571 
L 232.164429 182.219663 
L 235.443768 227.348876 
L 238.723107 227.3488 
L 242.002446 175.028724 
L 245.281785 173.032241 
L 248.561123 171.290202 
L 251.840462 169.834881 
L 255.119801 168.695556 
L 258.39914 167.897896 
L 261.678479 167.463354 
L 264.957818 167.408578 
L 268.237157 167.744839 
L 271.516495 168.477523 
L 274.795834 169.605681 
L 278.075173 171.121673 
L 281.354512 173.010917 
L 284.633851 175.251771 
L 287.91319 177.815559 
L 291.192528 180.666765 
L 294.471867 183.763408 
L 297.751206 187.057613 
L 301.030545 190.496383 
L 304.309884 194.022584 
L 307.589223 197.576132 
L 310.868561 201.095394 
L 314.1479 204.518768 
L 317.427239 207.786435 
L 320.706578 210.84225 
L 323.985917 213.635725 
L 327.265256 216.124065 
L 330.544595 218.274173 
L 333.823933 220.064565 
L 337.103272 221.487087 
L 340.382611 222.548331 
L 343.66195 223.270619 
L 346.941289 223.692405 
L 350.220628 223.867932 
L 353.499966 223.865943 
L 356.779305 223.767245 
L 360.058644 223.660868 
L 363.337983 223.63856 
L 366.617322 223.787318 
L 369.896661 224.179626 
L 373.175999 224.861032 
L 376.455338 225.834678 
L 379.734677 227.04233 
L 383.014016 228.341459 
L 386.293355 229.477835 
L 389.572694 230.053095 
L 392.852033 229.486662 
L 396.131371 226.971393 
L 399.41071 221.422222 
" clip-path="url(#p3d90a79b7a)" style="fill: none; stroke: #1f77b4; stroke-width: 1.5; stroke-linecap: square"/>
   </g>
   <g id="line2d_13">
    <path d="M 74.756165 227.987999 
L 78.035498 228.683142 
L 81.314832 227.539366 
L 84.594165 225.09852 
L 87.873499 221.81471 
L 91.152833 218.062928 
L 94.432166 214.147225 
L 97.7115 210.308441 
L 100.990833 206.731493 
L 104.270167 203.552203 
L 107.5495 200.863694 
L 110.828834 198.722334 
L 114.108168 197.153258 
L 117.387501 196.155453 
L 120.666835 195.706434 
L 123.946168 195.766511 
L 127.225502 196.282661 
L 130.504835 197.192023 
L 133.784169 198.425023 
L 137.063503 199.908147 
L 140.342836 201.566376 
L 143.62217 203.325305 
L 146.901503 205.112952 
L 150.180837 206.861286 
L 153.46017 208.50748 
L 156.739504 209.994917 
L 160.018837 211.273957 
L 163.298171 212.302488 
L 166.577505 213.046287 
L 169.856838 213.479185 
L 173.136172 213.583079 
L 176.415505 213.347796 
L 179.694839 212.770823 
L 182.974172 211.856928 
L 186.253506 210.617681 
L 189.53284 209.070894 
L 192.812173 207.239998 
L 196.091507 205.153357 
L 199.37084 202.843557 
L 202.650174 200.346657 
L 205.929507 197.701435 
L 209.208841 194.948626 
L 212.488175 192.130173 
L 215.767508 189.288493 
L 219.046842 186.465774 
L 222.326175 183.703304 
L 225.605509 181.040848 
L 228.884842 178.516068 
L 232.164176 176.164006 
L 235.443509 227.348718 
L 238.722843 227.348633 
L 242.002177 170.393654 
L 245.28151 169.018146 
L 248.560844 167.939984 
L 251.840177 167.17084 
L 255.119511 166.717831 
L 258.398844 166.583548 
L 261.678178 166.76616 
L 264.957512 167.259585 
L 268.236845 168.05372 
L 271.516179 169.13473 
L 274.795512 170.485392 
L 278.074846 172.085479 
L 281.354179 173.912181 
L 284.633513 175.940562 
L 287.912847 178.144035 
L 291.19218 180.494847 
L 294.471514 182.964575 
L 297.750847 185.524611 
L 301.030181 188.146644 
L 304.309514 190.803105 
L 307.588848 193.467597 
L 310.868181 196.115277 
L 314.147515 198.723193 
L 317.426849 201.270574 
L 320.706182 203.739053 
L 323.985516 206.112832 
L 327.264849 208.378772 
L 330.544183 210.526422 
L 333.823516 212.547967 
L 337.10285 214.438108 
L 340.382184 216.193876 
L 343.661517 217.814375 
L 346.940851 219.300477 
L 350.220184 220.654458 
L 353.499518 221.879607 
L 356.778851 222.979814 
L 360.058185 223.959144 
L 363.337519 224.821451 
L 366.616852 225.570016 
L 369.896186 226.207274 
L 373.175519 226.734644 
L 376.454853 227.152505 
L 379.734186 227.46036 
L 383.01352 227.657245 
L 386.292853 227.742422 
L 389.572187 227.716419 
L 392.851521 227.582499 
L 396.130854 227.348599 
L 399.410188 227.029841 
" clip-path="url(#p3d90a79b7a)" style="fill: none; stroke: #ff7f0e; stroke-width: 1.5; stroke-linecap: square"/>
   </g>
   <g id="line2d_14">
    <path d="M 74.756165 276.334125 
L 78.035502 210.004874 
L 81.31484 154.761398 
L 84.594177 110.729778 
L 87.873515 77.534357 
L 91.152852 54.435188 
L 94.43219 40.44299 
L 97.711527 34.414125 
L 100.990865 35.127915 
L 104.270202 41.348439 
L 107.54954 51.872762 
L 110.828877 65.567413 
L 114.108214 81.39475 
L 117.387552 98.430701 
L 120.666889 115.875268 
L 123.946227 133.056983 
L 127.225564 149.432459 
L 130.504902 164.581994 
L 133.784239 178.202119 
L 137.063577 190.095869 
L 140.342914 200.161436 
L 143.622252 208.379828 
L 146.901589 214.802006 
L 150.180927 219.535956 
L 153.460264 222.734036 
L 156.739602 224.580915 
L 160.018939 225.282313 
L 163.298277 225.054748 
L 166.577614 224.116402 
L 169.856952 222.679213 
L 173.136289 220.942217 
L 176.415626 219.086183 
L 179.694964 217.269504 
L 182.974301 215.625302 
L 186.253639 214.259694 
L 189.532976 213.251126 
L 192.812314 212.650675 
L 196.091651 212.483215 
L 199.370989 212.749321 
L 202.650326 213.42779 
L 205.929664 214.478655 
L 209.209001 215.846546 
L 212.488339 217.464303 
L 215.767676 219.256684 
L 219.047014 221.144081 
L 222.326351 223.046117 
L 225.605689 224.885032 
L 228.885026 226.588771 
L 232.164364 228.0937 
L 235.443701 227.353904 
L 238.723039 227.35488 
L 242.002376 227.843276 
L 245.281713 227.966633 
L 248.561051 227.925313 
L 251.840388 227.734628 
L 255.119726 227.415692 
L 258.399063 226.994431 
L 261.678401 226.500434 
L 264.957738 225.965679 
L 268.237076 225.423185 
L 271.516413 224.905618 
L 274.795751 224.443914 
L 278.075088 224.065949 
L 281.354426 223.795311 
L 284.633763 223.650209 
L 287.913101 223.642576 
L 291.192438 223.777393 
L 294.471776 224.052268 
L 297.751113 224.457318 
L 301.030451 224.975353 
L 304.309788 225.582402 
L 307.589125 226.248571 
L 310.868463 226.939238 
L 314.1478 227.616581 
L 317.427138 228.241387 
L 320.706475 228.775132 
L 323.985813 229.182249 
L 327.26515 229.432527 
L 330.544488 229.503542 
L 333.823825 229.383002 
L 337.103163 229.070875 
L 340.3825 228.581147 
L 343.661838 227.942999 
L 346.941175 227.201223 
L 350.220513 226.4156 
L 353.49985 225.658989 
L 356.779188 225.013802 
L 360.058525 224.56653 
L 363.337863 224.399927 
L 366.6172 224.582435 
L 369.896537 225.154383 
L 373.175875 226.110447 
L 376.455212 227.377814 
L 379.73455 228.789447 
L 383.013887 230.051781 
L 386.293225 230.706151 
L 389.572562 230.083171 
L 392.8519 227.249238 
L 396.131237 220.944274 
L 399.410575 209.509733 
" clip-path="url(#p3d90a79b7a)" style="fill: none; stroke: #2ca02c; stroke-width: 1.5; stroke-linecap: square"/>
   </g>
   <g id="line2d_15">
    <path d="M 74.756165 225.005942 
L 77.539391 228.170259 
L 80.322618 228.721328 
L 83.105845 227.475864 
L 85.889071 225.076031 
L 88.672298 222.018089 
L 91.455524 218.677357 
L 94.238751 215.329839 
L 97.021978 212.170859 
L 99.805204 209.331023 
L 102.588431 206.889786 
L 105.371657 204.886911 
L 108.154884 203.332042 
L 110.938111 202.212643 
L 113.721337 201.500495 
L 116.504564 201.156935 
L 119.28779 201.137031 
L 122.071017 201.392825 
L 124.854244 201.875797 
L 127.63747 202.538676 
L 130.420697 203.336705 
L 133.203923 204.228464 
L 135.98715 205.17634 
L 138.770377 206.146715 
L 141.553603 207.10995 
L 144.33683 208.040213 
L 147.120056 208.915202 
L 149.903283 209.715813 
L 152.68651 210.425767 
L 155.469736 211.031252 
L 158.252963 211.520571 
L 161.036189 211.883837 
L 163.819416 212.112706 
L 166.602643 212.200176 
L 169.385869 212.140432 
L 172.169096 211.928759 
L 174.952322 211.561501 
L 177.735549 211.036085 
L 180.518776 210.35107 
L 183.302002 209.506251 
L 186.085229 208.502778 
L 188.868455 207.343295 
L 191.651682 206.032096 
L 194.434909 204.57526 
L 197.218135 202.980795 
L 200.001362 201.258745 
L 202.784588 199.421273 
L 205.567815 197.482707 
L 208.351042 195.45954 
L 211.134268 227.349455 
L 213.917495 227.349212 
L 216.700721 189.255114 
L 219.483948 187.096915 
L 222.267175 184.956443 
L 225.050401 182.860843 
L 227.833628 180.838321 
L 230.616854 178.917684 
L 233.400081 177.127814 
L 236.183308 175.497106 
L 238.966534 174.052871 
L 241.749761 172.820725 
L 244.532987 171.823974 
L 247.316214 171.083009 
L 250.099441 170.61474 
L 252.882667 170.432071 
L 255.665894 170.543444 
L 258.44912 170.952465 
L 261.232347 171.657635 
L 264.015574 172.652194 
L 266.7988 173.924095 
L 269.582027 175.45612 
L 272.365253 177.226157 
L 275.14848 179.207622 
L 277.931707 181.370049 
L 280.714933 183.679843 
L 283.49816 186.101172 
L 286.281386 188.597003 
L 289.064613 191.130255 
L 291.84784 193.665035 
L 294.631066 196.167931 
L 297.414293 198.609306 
L 300.197519 200.964542 
L 302.980746 203.215165 
L 305.763973 205.349777 
L 308.547199 207.364684 
L 311.330426 209.264142 
L 314.113653 211.060063 
L 316.896879 212.771077 
L 319.680106 214.420768 
L 322.463332 216.034911 
L 325.246559 217.637531 
L 328.029786 219.245551 
L 330.813012 220.861783 
L 333.596239 222.466024 
L 336.379465 224.003941 
L 339.162692 225.373438 
L 341.945919 226.408167 
L 344.729145 226.8578 
L 347.512372 226.364659 
L 350.295598 224.436265 
" clip-path="url(#p3d90a79b7a)" style="fill: none; stroke: #d62728; stroke-width: 1.5; stroke-linecap: square"/>
   </g>
   <g id="line2d_16">
    <path d="M 74.756165 225.488263 
L 78.035503 229.429658 
L 81.314841 229.828964 
L 84.594179 227.785146 
L 87.873517 224.174499 
L 91.152855 219.684403 
L 94.432193 214.843047 
L 97.711531 210.045512 
L 100.990869 205.576565 
L 104.270207 201.630473 
L 107.549545 198.328153 
L 110.828883 195.731925 
L 114.108222 193.858135 
L 117.38756 192.687871 
L 120.666898 192.175999 
L 123.946236 192.258719 
L 127.225574 192.859813 
L 130.504912 193.895758 
L 133.78425 195.279852 
L 137.063588 196.925489 
L 140.342926 198.748702 
L 143.622264 200.67009 
L 146.901602 202.616216 
L 150.18094 204.520578 
L 153.460278 206.324216 
L 156.739616 207.976021 
L 160.018954 209.432825 
L 163.298292 210.659294 
L 166.57763 211.627686 
L 169.856969 212.317509 
L 173.136307 212.715097 
L 176.415645 212.813149 
L 179.694983 212.610228 
L 182.974321 212.110257 
L 186.253659 211.322013 
L 189.532997 210.258623 
L 192.812335 208.937086 
L 196.091673 207.377804 
L 199.371011 205.604136 
L 202.650349 203.641973 
L 205.929687 201.51933 
L 209.209025 199.265958 
L 212.488363 196.91296 
L 215.767701 194.492435 
L 219.047039 192.037112 
L 222.326378 189.579999 
L 225.605716 187.154035 
L 228.885054 184.791735 
L 232.164392 182.524845 
L 235.44373 227.349115 
L 238.723068 227.349003 
L 242.002406 176.679548 
L 245.281744 175.104645 
L 248.561082 173.755024 
L 251.84042 172.649777 
L 255.119758 171.805052 
L 258.399096 171.233772 
L 261.678434 170.945376 
L 264.957772 170.945586 
L 268.23711 171.236211 
L 271.516448 171.814992 
L 274.795787 172.675507 
L 278.075125 173.80713 
L 281.354463 175.195071 
L 284.633801 176.820489 
L 287.913139 178.660699 
L 291.192477 180.689466 
L 294.471815 182.877408 
L 297.751153 185.192498 
L 301.030491 187.600671 
L 304.309829 190.066535 
L 307.589167 192.55418 
L 310.868505 195.028075 
L 314.147843 197.454043 
L 317.427181 199.800293 
L 320.706519 202.038485 
L 323.985857 204.144803 
L 327.265195 206.100992 
L 330.544534 207.89532 
L 333.823872 209.523408 
L 337.10321 210.988875 
L 340.382548 212.303712 
L 343.661886 213.488316 
L 346.941224 214.571084 
L 350.220562 215.587461 
L 353.4999 216.578319 
L 356.779238 217.587543 
L 360.058576 218.658666 
L 363.337914 219.830389 
L 366.617252 221.130803 
L 369.89659 222.57012 
L 373.175928 224.131675 
L 376.455266 225.760979 
L 379.734604 227.352546 
L 383.013943 228.734209 
L 386.293281 229.648626 
L 389.572619 229.731626 
L 392.851957 228.487052 
L 396.131295 225.257687 
L 399.410633 219.191874 
" clip-path="url(#p3d90a79b7a)" style="fill: none; stroke: #9467bd; stroke-width: 1.5; stroke-linecap: square"/>
   </g>
   <g id="line2d_17">
    <path d="M 74.756165 226.761489 
L 78.035501 227.617197 
L 81.314837 227.273454 
L 84.594174 225.929247 
L 87.87351 223.797045 
L 91.152846 221.090533 
L 94.432183 218.015049 
L 97.711519 214.760399 
L 100.990855 211.495693 
L 104.270191 208.36595 
L 107.549528 205.490165 
L 110.828864 202.960621 
L 114.1082 200.843218 
L 117.387537 199.178615 
L 120.666873 197.984018 
L 123.946209 197.255441 
L 127.225546 196.970322 
L 130.504882 197.090351 
L 133.784218 197.564409 
L 137.063555 198.331537 
L 140.342891 199.323841 
L 143.622227 200.469279 
L 146.901563 201.694273 
L 150.1809 202.926104 
L 153.460236 204.095055 
L 156.739572 205.13629 
L 160.018909 205.991432 
L 163.298245 206.609859 
L 166.577581 206.949696 
L 169.856918 206.978515 
L 173.136254 206.67376 
L 176.41559 206.022896 
L 179.694926 205.023313 
L 182.974263 203.682 
L 186.253599 202.015013 
L 189.532935 200.046766 
L 192.812272 197.809165 
L 196.091608 195.340615 
L 199.370944 192.684936 
L 202.650281 189.890204 
L 205.929617 187.007549 
L 209.208953 184.08994 
L 212.488289 181.190979 
L 215.767626 178.363728 
L 219.046962 175.659592 
L 222.326298 173.127278 
L 225.605635 170.811851 
L 228.884971 168.753892 
L 232.164307 166.988787 
L 235.443644 227.348291 
L 238.72298 227.348197 
L 242.002316 163.843293 
L 245.281652 163.448481 
L 248.560989 163.424576 
L 251.840325 163.770444 
L 255.119661 164.478926 
L 258.398998 165.537147 
L 261.678334 166.926941 
L 264.95767 168.625363 
L 268.237007 170.605289 
L 271.516343 172.836089 
L 274.795679 175.284351 
L 278.075015 177.914643 
L 281.354352 180.690298 
L 284.633688 183.574207 
L 287.913024 186.529591 
L 291.192361 189.520743 
L 294.471697 192.513719 
L 297.751033 195.476967 
L 301.03037 198.38186 
L 304.309706 201.20314 
L 307.589042 203.919247 
L 310.868379 206.512522 
L 314.147715 208.96928 
L 317.427051 211.27975 
L 320.706387 213.43787 
L 323.985724 215.440957 
L 327.26506 217.289239 
L 330.544396 218.985281 
L 333.823733 220.533313 
L 337.103069 221.938491 
L 340.382405 223.206116 
L 343.661742 224.340864 
L 346.941078 225.346067 
L 350.220414 226.223108 
L 353.49975 226.970993 
L 356.779087 227.586187 
L 360.058423 228.062807 
L 363.337759 228.39326 
L 366.617096 228.56946 
L 369.896432 228.584753 
L 373.175768 228.436675 
L 376.455105 228.13074 
L 379.734441 227.685403 
L 383.013777 227.138413 
L 386.293113 226.554769 
L 389.57245 226.036501 
L 392.851786 225.734551 
L 396.131122 225.863011 
L 399.410459 226.71603 
" clip-path="url(#p3d90a79b7a)" style="fill: none; stroke: #8c564b; stroke-width: 1.5; stroke-linecap: square"/>
   </g>
   <g id="patch_3">
    <path d="M 58.523438 288.430125 
L 58.523438 22.318125 
" style="fill: none; stroke: #000000; stroke-width: 0.8; stroke-linejoin: miter; stroke-linecap: square"/>
   </g>
   <g id="patch_4">
    <path d="M 415.643438 288.430125 
L 415.643438 22.318125 
" style="fill: none; stroke: #000000; stroke-width: 0.8; stroke-linejoin: miter; stroke-linecap: square"/>
   </g>
   <g id="patch_5">
    <path d="M 58.523438 288.430125 
L 415.643438 288.430125 
" style="fill: none; stroke: #000000; stroke-width: 0.8; stroke-linejoin: miter; stroke-linecap: square"/>
   </g>
   <g id="patch_6">
    <path d="M 58.523438 22.318125 
L 415.643438 22.318125 
" style="fill: none; stroke: #000000; stroke-width: 0.8; stroke-linejoin: miter; stroke-linecap: square"/>
   </g>
   <g id="text_14">
    <!-- FA - xtract_prob_Superior_Longitudinal_Fasciculus_3_L -->
    <g transform="translate(74.900625 16.318125) scale(0.12 -0.12)">
     <defs>
      <path id="DejaVuSans-41" d="M 2188 4044 
L 1331 1722 
L 3047 1722 
L 2188 4044 
z
M 1831 4666 
L 2547 4666 
L 4325 0 
L 3669 0 
L 3244 1197 
L 1141 1197 
L 716 0 
L 50 0 
L 1831 4666 
z
" transform="scale(0.015625)"/>
      <path id="DejaVuSans-2d" d="M 313 2009 
L 1997 2009 
L 1997 1497 
L 313 1497 
L 313 2009 
z
" transform="scale(0.015625)"/>
      <path id="DejaVuSans-74" d="M 1172 4494 
L 1172 3500 
L 2356 3500 
L 2356 3053 
L 1172 3053 
L 1172 1153 
Q 1172 725 1289 603 
Q 1406 481 1766 481 
L 2356 481 
L 2356 0 
L 1766 0 
Q 1100 0 847 248 
Q 594 497 594 1153 
L 594 3053 
L 172 3053 
L 172 3500 
L 594 3500 
L 594 4494 
L 1172 4494 
z
" transform="scale(0.015625)"/>
      <path id="DejaVuSans-5f" d="M 3263 -1063 
L 3263 -1509 
L -63 -1509 
L -63 -1063 
L 3263 -1063 
z
" transform="scale(0.015625)"/>
      <path id="DejaVuSans-70" d="M 1159 525 
L 1159 -1331 
L 581 -1331 
L 581 3500 
L 1159 3500 
L 1159 2969 
Q 1341 3281 1617 3432 
Q 1894 3584 2278 3584 
Q 2916 3584 3314 3078 
Q 3713 2572 3713 1747 
Q 3713 922 3314 415 
Q 2916 -91 2278 -91 
Q 1894 -91 1617 61 
Q 1341 213 1159 525 
z
M 3116 1747 
Q 3116 2381 2855 2742 
Q 2594 3103 2138 3103 
Q 1681 3103 1420 2742 
Q 1159 2381 1159 1747 
Q 1159 1113 1420 752 
Q 1681 391 2138 391 
Q 2594 391 2855 752 
Q 3116 1113 3116 1747 
z
" transform="scale(0.015625)"/>
      <path id="DejaVuSans-6f" d="M 1959 3097 
Q 1497 3097 1228 2736 
Q 959 2375 959 1747 
Q 959 1119 1226 758 
Q 1494 397 1959 397 
Q 2419 397 2687 759 
Q 2956 1122 2956 1747 
Q 2956 2369 2687 2733 
Q 2419 3097 1959 3097 
z
M 1959 3584 
Q 2709 3584 3137 3096 
Q 3566 2609 3566 1747 
Q 3566 888 3137 398 
Q 2709 -91 1959 -91 
Q 1206 -91 779 398 
Q 353 888 353 1747 
Q 353 2609 779 3096 
Q 1206 3584 1959 3584 
z
" transform="scale(0.015625)"/>
      <path id="DejaVuSans-62" d="M 3116 1747 
Q 3116 2381 2855 2742 
Q 2594 3103 2138 3103 
Q 1681 3103 1420 2742 
Q 1159 2381 1159 1747 
Q 1159 1113 1420 752 
Q 1681 391 2138 391 
Q 2594 391 2855 752 
Q 3116 1113 3116 1747 
z
M 1159 2969 
Q 1341 3281 1617 3432 
Q 1894 3584 2278 3584 
Q 2916 3584 3314 3078 
Q 3713 2572 3713 1747 
Q 3713 922 3314 415 
Q 2916 -91 2278 -91 
Q 1894 -91 1617 61 
Q 1341 213 1159 525 
L 1159 0 
L 581 0 
L 581 4863 
L 1159 4863 
L 1159 2969 
z
" transform="scale(0.015625)"/>
      <path id="DejaVuSans-53" d="M 3425 4513 
L 3425 3897 
Q 3066 4069 2747 4153 
Q 2428 4238 2131 4238 
Q 1616 4238 1336 4038 
Q 1056 3838 1056 3469 
Q 1056 3159 1242 3001 
Q 1428 2844 1947 2747 
L 2328 2669 
Q 3034 2534 3370 2195 
Q 3706 1856 3706 1288 
Q 3706 609 3251 259 
Q 2797 -91 1919 -91 
Q 1588 -91 1214 -16 
Q 841 59 441 206 
L 441 856 
Q 825 641 1194 531 
Q 1563 422 1919 422 
Q 2459 422 2753 634 
Q 3047 847 3047 1241 
Q 3047 1584 2836 1778 
Q 2625 1972 2144 2069 
L 1759 2144 
Q 1053 2284 737 2584 
Q 422 2884 422 3419 
Q 422 4038 858 4394 
Q 1294 4750 2059 4750 
Q 2388 4750 2728 4690 
Q 3069 4631 3425 4513 
z
" transform="scale(0.015625)"/>
      <path id="DejaVuSans-4c" d="M 628 4666 
L 1259 4666 
L 1259 531 
L 3531 531 
L 3531 0 
L 628 0 
L 628 4666 
z
" transform="scale(0.015625)"/>
      <path id="DejaVuSans-67" d="M 2906 1791 
Q 2906 2416 2648 2759 
Q 2391 3103 1925 3103 
Q 1463 3103 1205 2759 
Q 947 2416 947 1791 
Q 947 1169 1205 825 
Q 1463 481 1925 481 
Q 2391 481 2648 825 
Q 2906 1169 2906 1791 
z
M 3481 434 
Q 3481 -459 3084 -895 
Q 2688 -1331 1869 -1331 
Q 1566 -1331 1297 -1286 
Q 1028 -1241 775 -1147 
L 775 -588 
Q 1028 -725 1275 -790 
Q 1522 -856 1778 -856 
Q 2344 -856 2625 -561 
Q 2906 -266 2906 331 
L 2906 616 
Q 2728 306 2450 153 
Q 2172 0 1784 0 
Q 1141 0 747 490 
Q 353 981 353 1791 
Q 353 2603 747 3093 
Q 1141 3584 1784 3584 
Q 2172 3584 2450 3431 
Q 2728 3278 2906 2969 
L 2906 3500 
L 3481 3500 
L 3481 434 
z
" transform="scale(0.015625)"/>
      <path id="DejaVuSans-64" d="M 2906 2969 
L 2906 4863 
L 3481 4863 
L 3481 0 
L 2906 0 
L 2906 525 
Q 2725 213 2448 61 
Q 2172 -91 1784 -91 
Q 1150 -91 751 415 
Q 353 922 353 1747 
Q 353 2572 751 3078 
Q 1150 3584 1784 3584 
Q 2172 3584 2448 3432 
Q 2725 3281 2906 2969 
z
M 947 1747 
Q 947 1113 1208 752 
Q 1469 391 1925 391 
Q 2381 391 2643 752 
Q 2906 1113 2906 1747 
Q 2906 2381 2643 2742 
Q 2381 3103 1925 3103 
Q 1469 3103 1208 2742 
Q 947 2381 947 1747 
z
" transform="scale(0.015625)"/>
      <path id="DejaVuSans-33" d="M 2597 2516 
Q 3050 2419 3304 2112 
Q 3559 1806 3559 1356 
Q 3559 666 3084 287 
Q 2609 -91 1734 -91 
Q 1441 -91 1130 -33 
Q 819 25 488 141 
L 488 750 
Q 750 597 1062 519 
Q 1375 441 1716 441 
Q 2309 441 2620 675 
Q 2931 909 2931 1356 
Q 2931 1769 2642 2001 
Q 2353 2234 1838 2234 
L 1294 2234 
L 1294 2753 
L 1863 2753 
Q 2328 2753 2575 2939 
Q 2822 3125 2822 3475 
Q 2822 3834 2567 4026 
Q 2313 4219 1838 4219 
Q 1578 4219 1281 4162 
Q 984 4106 628 3988 
L 628 4550 
Q 988 4650 1302 4700 
Q 1616 4750 1894 4750 
Q 2613 4750 3031 4423 
Q 3450 4097 3450 3541 
Q 3450 3153 3228 2886 
Q 3006 2619 2597 2516 
z
" transform="scale(0.015625)"/>
     </defs>
     <use xlink:href="#DejaVuSans-46"/>
     <use xlink:href="#DejaVuSans-41" x="48.394531"/>
     <use xlink:href="#DejaVuSans-20" x="116.802734"/>
     <use xlink:href="#DejaVuSans-2d" x="148.589844"/>
     <use xlink:href="#DejaVuSans-20" x="184.673828"/>
     <use xlink:href="#DejaVuSans-78" x="216.460938"/>
     <use xlink:href="#DejaVuSans-74" x="275.640625"/>
     <use xlink:href="#DejaVuSans-72" x="314.849609"/>
     <use xlink:href="#DejaVuSans-61" x="355.962891"/>
     <use xlink:href="#DejaVuSans-63" x="417.242188"/>
     <use xlink:href="#DejaVuSans-74" x="472.222656"/>
     <use xlink:href="#DejaVuSans-5f" x="511.431641"/>
     <use xlink:href="#DejaVuSans-70" x="561.431641"/>
     <use xlink:href="#DejaVuSans-72" x="624.908203"/>
     <use xlink:href="#DejaVuSans-6f" x="663.771484"/>
     <use xlink:href="#DejaVuSans-62" x="724.953125"/>
     <use xlink:href="#DejaVuSans-5f" x="788.429688"/>
     <use xlink:href="#DejaVuSans-53" x="838.429688"/>
     <use xlink:href="#DejaVuSans-75" x="901.90625"/>
     <use xlink:href="#DejaVuSans-70" x="965.285156"/>
     <use xlink:href="#DejaVuSans-65" x="1028.761719"/>
     <use xlink:href="#DejaVuSans-72" x="1090.285156"/>
     <use xlink:href="#DejaVuSans-69" x="1131.398438"/>
     <use xlink:href="#DejaVuSans-6f" x="1159.181641"/>
     <use xlink:href="#DejaVuSans-72" x="1220.363281"/>
     <use xlink:href="#DejaVuSans-5f" x="1261.476562"/>
     <use xlink:href="#DejaVuSans-4c" x="1311.476562"/>
     <use xlink:href="#DejaVuSans-6f" x="1365.439453"/>
     <use xlink:href="#DejaVuSans-6e" x="1426.621094"/>
     <use xlink:href="#DejaVuSans-67" x="1490"/>
     <use xlink:href="#DejaVuSans-69" x="1553.476562"/>
     <use xlink:href="#DejaVuSans-74" x="1581.259766"/>
     <use xlink:href="#DejaVuSans-75" x="1620.46875"/>
     <use xlink:href="#DejaVuSans-64" x="1683.847656"/>
     <use xlink:href="#DejaVuSans-69" x="1747.324219"/>
     <use xlink:href="#DejaVuSans-6e" x="1775.107422"/>
     <use xlink:href="#DejaVuSans-61" x="1838.486328"/>
     <use xlink:href="#DejaVuSans-6c" x="1899.765625"/>
     <use xlink:href="#DejaVuSans-5f" x="1927.548828"/>
     <use xlink:href="#DejaVuSans-46" x="1977.548828"/>
     <use xlink:href="#DejaVuSans-61" x="2025.943359"/>
     <use xlink:href="#DejaVuSans-73" x="2087.222656"/>
     <use xlink:href="#DejaVuSans-63" x="2139.322266"/>
     <use xlink:href="#DejaVuSans-69" x="2194.302734"/>
     <use xlink:href="#DejaVuSans-63" x="2222.085938"/>
     <use xlink:href="#DejaVuSans-75" x="2277.066406"/>
     <use xlink:href="#DejaVuSans-6c" x="2340.445312"/>
     <use xlink:href="#DejaVuSans-75" x="2368.228516"/>
     <use xlink:href="#DejaVuSans-73" x="2431.607422"/>
     <use xlink:href="#DejaVuSans-5f" x="2483.707031"/>
     <use xlink:href="#DejaVuSans-33" x="2533.707031"/>
     <use xlink:href="#DejaVuSans-5f" x="2597.330078"/>
     <use xlink:href="#DejaVuSans-4c" x="2647.330078"/>
    </g>
   </g>
   <g id="legend_1">
    <g id="patch_7">
     <path d="M 458.355438 146.666825 
L 556.211688 146.666825 
Q 558.211688 146.666825 558.211688 144.666825 
L 558.211688 55.929325 
Q 558.211688 53.929325 556.211688 53.929325 
L 458.355438 53.929325 
Q 456.355438 53.929325 456.355438 55.929325 
L 456.355438 144.666825 
Q 456.355438 146.666825 458.355438 146.666825 
z
" style="fill: #ffffff; opacity: 0.8; stroke: #cccccc; stroke-linejoin: miter"/>
    </g>
    <g id="line2d_18">
     <path d="M 460.355438 62.027762 
L 470.355438 62.027762 
L 480.355438 62.027762 
" style="fill: none; stroke: #1f77b4; stroke-width: 1.5; stroke-linecap: square"/>
    </g>
    <g id="text_15">
     <!-- 20_06_02_E3 -->
     <g transform="translate(488.355438 65.527762) scale(0.1 -0.1)">
      <defs>
       <path id="DejaVuSans-45" d="M 628 4666 
L 3578 4666 
L 3578 4134 
L 1259 4134 
L 1259 2753 
L 3481 2753 
L 3481 2222 
L 1259 2222 
L 1259 531 
L 3634 531 
L 3634 0 
L 628 0 
L 628 4666 
z
" transform="scale(0.015625)"/>
      </defs>
      <use xlink:href="#DejaVuSans-32"/>
      <use xlink:href="#DejaVuSans-30" x="63.623047"/>
      <use xlink:href="#DejaVuSans-5f" x="127.246094"/>
      <use xlink:href="#DejaVuSans-30" x="177.246094"/>
      <use xlink:href="#DejaVuSans-36" x="240.869141"/>
      <use xlink:href="#DejaVuSans-5f" x="304.492188"/>
      <use xlink:href="#DejaVuSans-30" x="354.492188"/>
      <use xlink:href="#DejaVuSans-32" x="418.115234"/>
      <use xlink:href="#DejaVuSans-5f" x="481.738281"/>
      <use xlink:href="#DejaVuSans-45" x="531.738281"/>
      <use xlink:href="#DejaVuSans-33" x="594.921875"/>
     </g>
    </g>
    <g id="line2d_19">
     <path d="M 460.355438 76.984013 
L 470.355438 76.984013 
L 480.355438 76.984013 
" style="fill: none; stroke: #ff7f0e; stroke-width: 1.5; stroke-linecap: square"/>
    </g>
    <g id="text_16">
     <!-- 20_05_01_E3 -->
     <g transform="translate(488.355438 80.484013) scale(0.1 -0.1)">
      <defs>
       <path id="DejaVuSans-35" d="M 691 4666 
L 3169 4666 
L 3169 4134 
L 1269 4134 
L 1269 2991 
Q 1406 3038 1543 3061 
Q 1681 3084 1819 3084 
Q 2600 3084 3056 2656 
Q 3513 2228 3513 1497 
Q 3513 744 3044 326 
Q 2575 -91 1722 -91 
Q 1428 -91 1123 -41 
Q 819 9 494 109 
L 494 744 
Q 775 591 1075 516 
Q 1375 441 1709 441 
Q 2250 441 2565 725 
Q 2881 1009 2881 1497 
Q 2881 1984 2565 2268 
Q 2250 2553 1709 2553 
Q 1456 2553 1204 2497 
Q 953 2441 691 2322 
L 691 4666 
z
" transform="scale(0.015625)"/>
      </defs>
      <use xlink:href="#DejaVuSans-32"/>
      <use xlink:href="#DejaVuSans-30" x="63.623047"/>
      <use xlink:href="#DejaVuSans-5f" x="127.246094"/>
      <use xlink:href="#DejaVuSans-30" x="177.246094"/>
      <use xlink:href="#DejaVuSans-35" x="240.869141"/>
      <use xlink:href="#DejaVuSans-5f" x="304.492188"/>
      <use xlink:href="#DejaVuSans-30" x="354.492188"/>
      <use xlink:href="#DejaVuSans-31" x="418.115234"/>
      <use xlink:href="#DejaVuSans-5f" x="481.738281"/>
      <use xlink:href="#DejaVuSans-45" x="531.738281"/>
      <use xlink:href="#DejaVuSans-33" x="594.921875"/>
     </g>
    </g>
    <g id="line2d_20">
     <path d="M 460.355438 91.940262 
L 470.355438 91.940262 
L 480.355438 91.940262 
" style="fill: none; stroke: #2ca02c; stroke-width: 1.5; stroke-linecap: square"/>
    </g>
    <g id="text_17">
     <!-- 20_02_02_E3 -->
     <g transform="translate(488.355438 95.440262) scale(0.1 -0.1)">
      <use xlink:href="#DejaVuSans-32"/>
      <use xlink:href="#DejaVuSans-30" x="63.623047"/>
      <use xlink:href="#DejaVuSans-5f" x="127.246094"/>
      <use xlink:href="#DejaVuSans-30" x="177.246094"/>
      <use xlink:href="#DejaVuSans-32" x="240.869141"/>
      <use xlink:href="#DejaVuSans-5f" x="304.492188"/>
      <use xlink:href="#DejaVuSans-30" x="354.492188"/>
      <use xlink:href="#DejaVuSans-32" x="418.115234"/>
      <use xlink:href="#DejaVuSans-5f" x="481.738281"/>
      <use xlink:href="#DejaVuSans-45" x="531.738281"/>
      <use xlink:href="#DejaVuSans-33" x="594.921875"/>
     </g>
    </g>
    <g id="line2d_21">
     <path d="M 460.355438 106.896513 
L 470.355438 106.896513 
L 480.355438 106.896513 
" style="fill: none; stroke: #d62728; stroke-width: 1.5; stroke-linecap: square"/>
    </g>
    <g id="text_18">
     <!-- 20_10_02_E3 -->
     <g transform="translate(488.355438 110.396513) scale(0.1 -0.1)">
      <use xlink:href="#DejaVuSans-32"/>
      <use xlink:href="#DejaVuSans-30" x="63.623047"/>
      <use xlink:href="#DejaVuSans-5f" x="127.246094"/>
      <use xlink:href="#DejaVuSans-31" x="177.246094"/>
      <use xlink:href="#DejaVuSans-30" x="240.869141"/>
      <use xlink:href="#DejaVuSans-5f" x="304.492188"/>
      <use xlink:href="#DejaVuSans-30" x="354.492188"/>
      <use xlink:href="#DejaVuSans-32" x="418.115234"/>
      <use xlink:href="#DejaVuSans-5f" x="481.738281"/>
      <use xlink:href="#DejaVuSans-45" x="531.738281"/>
      <use xlink:href="#DejaVuSans-33" x="594.921875"/>
     </g>
    </g>
    <g id="line2d_22">
     <path d="M 460.355438 121.852762 
L 470.355438 121.852762 
L 480.355438 121.852762 
" style="fill: none; stroke: #9467bd; stroke-width: 1.5; stroke-linecap: square"/>
    </g>
    <g id="text_19">
     <!-- 20_08_02_E3 -->
     <g transform="translate(488.355438 125.352762) scale(0.1 -0.1)">
      <use xlink:href="#DejaVuSans-32"/>
      <use xlink:href="#DejaVuSans-30" x="63.623047"/>
      <use xlink:href="#DejaVuSans-5f" x="127.246094"/>
      <use xlink:href="#DejaVuSans-30" x="177.246094"/>
      <use xlink:href="#DejaVuSans-38" x="240.869141"/>
      <use xlink:href="#DejaVuSans-5f" x="304.492188"/>
      <use xlink:href="#DejaVuSans-30" x="354.492188"/>
      <use xlink:href="#DejaVuSans-32" x="418.115234"/>
      <use xlink:href="#DejaVuSans-5f" x="481.738281"/>
      <use xlink:href="#DejaVuSans-45" x="531.738281"/>
      <use xlink:href="#DejaVuSans-33" x="594.921875"/>
     </g>
    </g>
    <g id="line2d_23">
     <path d="M 460.355438 136.809012 
L 470.355438 136.809012 
L 480.355438 136.809012 
" style="fill: none; stroke: #8c564b; stroke-width: 1.5; stroke-linecap: square"/>
    </g>
    <g id="text_20">
     <!-- 20_11_02_E3 -->
     <g transform="translate(488.355438 140.309012) scale(0.1 -0.1)">
      <use xlink:href="#DejaVuSans-32"/>
      <use xlink:href="#DejaVuSans-30" x="63.623047"/>
      <use xlink:href="#DejaVuSans-5f" x="127.246094"/>
      <use xlink:href="#DejaVuSans-31" x="177.246094"/>
      <use xlink:href="#DejaVuSans-31" x="240.869141"/>
      <use xlink:href="#DejaVuSans-5f" x="304.492188"/>
      <use xlink:href="#DejaVuSans-30" x="354.492188"/>
      <use xlink:href="#DejaVuSans-32" x="418.115234"/>
      <use xlink:href="#DejaVuSans-5f" x="481.738281"/>
      <use xlink:href="#DejaVuSans-45" x="531.738281"/>
      <use xlink:href="#DejaVuSans-33" x="594.921875"/>
     </g>
    </g>
   </g>
  </g>
 </g>
 <defs>
  <clipPath id="p3d90a79b7a">
   <rect x="58.523438" y="22.318125" width="357.12" height="266.112"/>
  </clipPath>
 </defs>
</svg>
