<?xml version="1.0" encoding="utf-8" standalone="no"?>
<!DOCTYPE svg PUBLIC "-//W3C//DTD SVG 1.1//EN"
  "http://www.w3.org/Graphics/SVG/1.1/DTD/svg11.dtd">
<svg xmlns:xlink="http://www.w3.org/1999/xlink" width="565.411687pt" height="325.986375pt" viewBox="0 0 565.411687 325.986375" xmlns="http://www.w3.org/2000/svg" version="1.1">
 <metadata>
  <rdf:RDF xmlns:dc="http://purl.org/dc/elements/1.1/" xmlns:cc="http://creativecommons.org/ns#" xmlns:rdf="http://www.w3.org/1999/02/22-rdf-syntax-ns#">
   <cc:Work>
    <dc:type rdf:resource="http://purl.org/dc/dcmitype/StillImage"/>
    <dc:date>2023-02-07T23:00:09.992121</dc:date>
    <dc:format>image/svg+xml</dc:format>
    <dc:creator>
     <cc:Agent>
      <dc:title>Matplotlib v3.6.2, https://matplotlib.org/</dc:title>
     </cc:Agent>
    </dc:creator>
   </cc:Work>
  </rdf:RDF>
 </metadata>
 <defs>
  <style type="text/css">*{stroke-linejoin: round; stroke-linecap: butt}</style>
 </defs>
 <g id="figure_1">
  <g id="patch_1">
   <path d="M 0 325.986375 
L 565.411687 325.986375 
L 565.411687 0 
L 0 0 
z
" style="fill: #ffffff"/>
  </g>
  <g id="axes_1">
   <g id="patch_2">
    <path d="M 58.523438 288.430125 
L 415.643438 288.430125 
L 415.643438 22.318125 
L 58.523438 22.318125 
z
" style="fill: #ffffff"/>
   </g>
   <g id="PolyCollection_1">
    <path d="M 74.756165 174.551872 
L 74.756165 224.174697 
L 77.891949 224.174697 
L 81.027733 224.174697 
L 84.163517 224.174697 
L 87.299301 224.174697 
L 90.435086 224.174697 
L 93.57087 224.174697 
L 96.706654 224.174697 
L 99.842438 224.174697 
L 102.978222 224.174697 
L 106.114007 224.174697 
L 109.249791 224.174697 
L 112.385575 224.174697 
L 115.521359 224.174697 
L 118.657143 224.174697 
L 121.792927 224.174697 
L 124.928712 224.174697 
L 128.064496 224.174697 
L 131.20028 224.174697 
L 134.336064 224.174697 
L 137.471848 224.174697 
L 140.607632 224.174697 
L 143.743417 224.174697 
L 146.879201 224.174697 
L 150.014985 224.174697 
L 153.150769 224.174697 
L 156.286553 224.174697 
L 159.422338 224.174697 
L 162.558122 224.174697 
L 165.693906 224.174697 
L 168.82969 224.174697 
L 171.965474 224.174697 
L 175.101258 224.174697 
L 178.237043 224.174697 
L 181.372827 224.174697 
L 184.508611 224.174697 
L 187.644395 224.174697 
L 190.780179 224.174697 
L 193.915963 224.174697 
L 197.051748 224.174697 
L 200.187532 224.174697 
L 203.323316 224.174697 
L 206.4591 224.174697 
L 209.594884 224.174697 
L 212.730668 224.174697 
L 215.866453 224.174697 
L 219.002237 224.174697 
L 222.138021 224.174697 
L 225.273805 224.174697 
L 228.409589 224.174697 
L 231.545374 224.174697 
L 234.681158 224.174697 
L 237.816942 224.174697 
L 240.952726 224.174697 
L 244.08851 224.174697 
L 247.224294 224.174697 
L 250.360079 224.174697 
L 253.495863 224.174697 
L 256.631647 224.174697 
L 259.767431 224.174697 
L 262.903215 224.174697 
L 266.038999 224.174697 
L 269.174784 224.174697 
L 272.310568 224.174697 
L 275.446352 224.174697 
L 278.582136 224.174697 
L 281.71792 224.174697 
L 284.853705 224.174697 
L 287.989489 224.174697 
L 291.125273 224.174697 
L 294.261057 224.174697 
L 297.396841 224.174697 
L 300.532625 224.174697 
L 303.66841 224.174697 
L 306.804194 224.174697 
L 309.939978 224.174697 
L 313.075762 224.174697 
L 316.211546 224.174697 
L 319.34733 224.174697 
L 322.483115 224.174697 
L 325.618899 224.174697 
L 328.754683 224.174697 
L 331.890467 224.174697 
L 335.026251 224.174697 
L 338.162036 224.174697 
L 341.29782 224.174697 
L 344.433604 224.174697 
L 347.569388 224.174697 
L 350.705172 224.174697 
L 353.840956 224.174697 
L 356.976741 224.174697 
L 360.112525 224.174697 
L 363.248309 224.174697 
L 366.384093 224.174697 
L 369.519877 224.174697 
L 372.655661 224.174697 
L 375.791446 224.174697 
L 378.92723 224.174697 
L 382.063014 224.174697 
L 385.198798 224.174697 
L 385.198798 224.367255 
L 385.198798 224.367255 
L 382.063014 224.316715 
L 378.92723 223.761537 
L 375.791446 223.098459 
L 372.655661 222.557871 
L 369.519877 222.249579 
L 366.384093 222.199773 
L 363.248309 222.380382 
L 360.112525 222.731912 
L 356.976741 223.180725 
L 353.840956 223.651651 
L 350.705172 224.076724 
L 347.569388 224.400734 
L 344.433604 224.584231 
L 341.29782 224.604523 
L 338.162036 224.455148 
L 335.026251 224.144234 
L 331.890467 223.692112 
L 328.754683 223.128466 
L 325.618899 222.489286 
L 322.483115 221.813818 
L 319.34733 221.141681 
L 316.211546 220.51027 
L 313.075762 219.952539 
L 309.939978 219.495226 
L 306.804194 219.157554 
L 303.66841 218.950417 
L 300.532625 218.87605 
L 297.396841 218.928143 
L 294.261057 219.092381 
L 291.125273 219.347341 
L 287.989489 219.665699 
L 284.853705 220.015674 
L 281.71792 220.362646 
L 278.582136 220.670877 
L 275.446352 220.905261 
L 272.310568 221.033032 
L 269.174784 221.025381 
L 266.038999 220.858895 
L 262.903215 220.51679 
L 259.767431 219.989872 
L 256.631647 219.277201 
L 253.495863 218.38642 
L 250.360079 217.33373 
L 247.224294 216.143508 
L 244.08851 214.847559 
L 240.952726 213.484018 
L 237.816942 212.095929 
L 234.681158 210.729522 
L 231.545374 224.173037 
L 228.409589 224.174144 
L 225.273805 205.685953 
L 222.138021 205.456541 
L 219.002237 205.514162 
L 215.866453 205.847025 
L 212.730668 206.428405 
L 209.594884 207.216128 
L 206.4591 208.152501 
L 203.323316 209.164718 
L 200.187532 210.165772 
L 197.051748 211.055903 
L 193.915963 211.724589 
L 190.780179 212.053095 
L 187.644395 211.917564 
L 184.508611 211.192635 
L 181.372827 209.755556 
L 178.237043 207.490741 
L 175.101258 204.294716 
L 171.965474 200.081352 
L 168.82969 194.787312 
L 165.693906 188.377567 
L 162.558122 180.850849 
L 159.422338 172.244873 
L 156.286553 162.641142 
L 153.150769 152.169103 
L 150.014985 141.009432 
L 146.879201 129.396145 
L 143.743417 117.617264 
L 140.607632 106.013665 
L 137.471848 94.975764 
L 134.336064 84.937621 
L 131.20028 76.368012 
L 128.064496 69.757996 
L 124.928712 65.604446 
L 121.792927 64.388971 
L 118.657143 66.551621 
L 115.521359 72.458717 
L 112.385575 82.364084 
L 109.249791 96.362948 
L 106.114007 114.337669 
L 102.978222 135.894453 
L 99.842438 160.290114 
L 96.706654 186.347913 
L 93.57087 212.361429 
L 90.435086 235.985354 
L 87.299301 254.11205 
L 84.163517 262.732633 
L 81.027733 256.781269 
L 77.891949 229.961319 
L 74.756165 174.551872 
z
" clip-path="url(#p5cfd889eb4)" style="fill: #1f77b4; fill-opacity: 0.166667"/>
   </g>
   <g id="PolyCollection_2">
    <path d="M 74.756165 174.060852 
L 74.756165 224.174697 
L 77.905519 224.174697 
L 81.054872 224.174697 
L 84.204226 224.174697 
L 87.35358 224.174697 
L 90.502934 224.174697 
L 93.652288 224.174697 
L 96.801641 224.174697 
L 99.950995 224.174697 
L 103.100349 224.174697 
L 106.249703 224.174697 
L 109.399056 224.174697 
L 112.54841 224.174697 
L 115.697764 224.174697 
L 118.847118 224.174697 
L 121.996472 224.174697 
L 125.145825 224.174697 
L 128.295179 224.174697 
L 131.444533 224.174697 
L 134.593887 224.174697 
L 137.743241 224.174697 
L 140.892594 224.174697 
L 144.041948 224.174697 
L 147.191302 224.174697 
L 150.340656 224.174697 
L 153.49001 224.174697 
L 156.639363 224.174697 
L 159.788717 224.174697 
L 162.938071 224.174697 
L 166.087425 224.174697 
L 169.236779 224.174697 
L 172.386132 224.174697 
L 175.535486 224.174697 
L 178.68484 224.174697 
L 181.834194 224.174697 
L 184.983548 224.174697 
L 188.132901 224.174697 
L 191.282255 224.174697 
L 194.431609 224.174697 
L 197.580963 224.174697 
L 200.730316 224.174697 
L 203.87967 224.174697 
L 207.029024 224.174697 
L 210.178378 224.174697 
L 213.327732 224.174697 
L 216.477085 224.174697 
L 219.626439 224.174697 
L 222.775793 224.174697 
L 225.925147 224.174697 
L 229.074501 224.174697 
L 232.223854 224.174697 
L 235.373208 224.174697 
L 238.522562 224.174697 
L 241.671916 224.174697 
L 244.82127 224.174697 
L 247.970623 224.174697 
L 251.119977 224.174697 
L 254.269331 224.174697 
L 257.418685 224.174697 
L 260.568039 224.174697 
L 263.717392 224.174697 
L 266.866746 224.174697 
L 270.0161 224.174697 
L 273.165454 224.174697 
L 276.314808 224.174697 
L 279.464161 224.174697 
L 282.613515 224.174697 
L 285.762869 224.174697 
L 288.912223 224.174697 
L 292.061576 224.174697 
L 295.21093 224.174697 
L 298.360284 224.174697 
L 301.509638 224.174697 
L 304.658992 224.174697 
L 307.808345 224.174697 
L 310.957699 224.174697 
L 314.107053 224.174697 
L 317.256407 224.174697 
L 320.405761 224.174697 
L 323.555114 224.174697 
L 326.704468 224.174697 
L 329.853822 224.174697 
L 333.003176 224.174697 
L 336.15253 224.174697 
L 339.301883 224.174697 
L 342.451237 224.174697 
L 345.600591 224.174697 
L 348.749945 224.174697 
L 351.899299 224.174697 
L 355.048652 224.174697 
L 358.198006 224.174697 
L 361.34736 224.174697 
L 364.496714 224.174697 
L 367.646068 224.174697 
L 370.795421 224.174697 
L 373.944775 224.174697 
L 377.094129 224.174697 
L 380.243483 224.174697 
L 383.392836 224.174697 
L 386.54219 224.174697 
L 386.54219 214.34181 
L 386.54219 214.34181 
L 383.392836 226.550756 
L 380.243483 230.794071 
L 377.094129 230.370864 
L 373.944775 227.614057 
L 370.795421 224.098846 
L 367.646068 220.817722 
L 364.496714 218.325995 
L 361.34736 216.861405 
L 358.198006 216.441128 
L 355.048652 216.939162 
L 351.899299 218.146849 
L 348.749945 219.819002 
L 345.600591 221.707865 
L 342.451237 223.586921 
L 339.301883 225.266346 
L 336.15253 226.601687 
L 333.003176 227.497188 
L 329.853822 227.904985 
L 326.704468 227.821243 
L 323.555114 227.280166 
L 320.405761 226.346647 
L 317.256407 225.108232 
L 314.107053 223.666925 
L 310.957699 222.131284 
L 307.808345 220.609132 
L 304.658992 219.201153 
L 301.509638 217.99554 
L 298.360284 217.06381 
L 295.21093 216.457839 
L 292.061576 216.208109 
L 288.912223 216.323134 
L 285.762869 216.78997 
L 282.613515 217.575717 
L 279.464161 218.629861 
L 276.314808 219.887315 
L 273.165454 221.272002 
L 270.0161 222.700795 
L 266.866746 224.087658 
L 263.717392 225.34782 
L 260.568039 226.401804 
L 257.418685 227.179185 
L 254.269331 227.621926 
L 251.119977 227.687164 
L 247.970623 227.34937 
L 244.82127 226.601772 
L 241.671916 225.457005 
L 238.522562 223.946942 
L 235.373208 222.121697 
L 232.223854 224.171941 
L 229.074501 224.173325 
L 225.925147 214.270695 
L 222.775793 212.719908 
L 219.626439 211.329633 
L 216.477085 210.160726 
L 213.327732 209.265073 
L 210.178378 208.682046 
L 207.029024 208.435125 
L 203.87967 208.528831 
L 200.730316 208.946083 
L 197.580963 209.646147 
L 194.431609 210.563288 
L 191.282255 211.606265 
L 188.132901 212.658793 
L 184.983548 213.581064 
L 181.834194 214.212428 
L 178.68484 214.375295 
L 175.535486 213.880288 
L 172.386132 212.53267 
L 169.236779 210.140001 
L 166.087425 206.520947 
L 162.938071 201.515136 
L 159.788717 194.993859 
L 156.639363 186.871397 
L 153.49001 177.116646 
L 150.340656 165.764678 
L 147.191302 152.927751 
L 144.041948 138.805232 
L 140.892594 123.691761 
L 137.743241 107.982919 
L 134.593887 92.177506 
L 131.444533 76.875449 
L 128.295179 62.77021 
L 125.145825 50.634419 
L 121.996472 41.297337 
L 118.847118 35.612543 
L 115.697764 34.414125 
L 112.54841 38.459442 
L 109.399056 48.356334 
L 106.249703 64.472474 
L 103.100349 86.824332 
L 99.950995 114.942995 
L 96.801641 147.713866 
L 93.652288 183.186994 
L 90.502934 218.354569 
L 87.35358 248.891789 
L 84.204226 268.857075 
L 81.054872 270.34729 
L 77.905519 243.103289 
L 74.756165 174.060852 
z
" clip-path="url(#p5cfd889eb4)" style="fill: #ff7f0e; fill-opacity: 0.166667"/>
   </g>
   <g id="PolyCollection_3">
    <path d="M 74.756165 184.725479 
L 74.756165 224.174697 
L 77.675759 224.174697 
L 80.595353 224.174697 
L 83.514947 224.174697 
L 86.434541 224.174697 
L 89.354134 224.174697 
L 92.273728 224.174697 
L 95.193322 224.174697 
L 98.112916 224.174697 
L 101.03251 224.174697 
L 103.952104 224.174697 
L 106.871698 224.174697 
L 109.791292 224.174697 
L 112.710886 224.174697 
L 115.63048 224.174697 
L 118.550074 224.174697 
L 121.469668 224.174697 
L 124.389262 224.174697 
L 127.308856 224.174697 
L 130.22845 224.174697 
L 133.148044 224.174697 
L 136.067638 224.174697 
L 138.987232 224.174697 
L 141.906825 224.174697 
L 144.826419 224.174697 
L 147.746013 224.174697 
L 150.665607 224.174697 
L 153.585201 224.174697 
L 156.504795 224.174697 
L 159.424389 224.174697 
L 162.343983 224.174697 
L 165.263577 224.174697 
L 168.183171 224.174697 
L 171.102765 224.174697 
L 174.022359 224.174697 
L 176.941953 224.174697 
L 179.861547 224.174697 
L 182.781141 224.174697 
L 185.700735 224.174697 
L 188.620329 224.174697 
L 191.539923 224.174697 
L 194.459517 224.174697 
L 197.37911 224.174697 
L 200.298704 224.174697 
L 203.218298 224.174697 
L 206.137892 224.174697 
L 209.057486 224.174697 
L 211.97708 224.174697 
L 214.896674 224.174697 
L 217.816268 224.174697 
L 220.735862 224.174697 
L 223.655456 224.174697 
L 226.57505 224.174697 
L 229.494644 224.174697 
L 232.414238 224.174697 
L 235.333832 224.174697 
L 238.253426 224.174697 
L 241.17302 224.174697 
L 244.092614 224.174697 
L 247.012208 224.174697 
L 249.931801 224.174697 
L 252.851395 224.174697 
L 255.770989 224.174697 
L 258.690583 224.174697 
L 261.610177 224.174697 
L 264.529771 224.174697 
L 267.449365 224.174697 
L 270.368959 224.174697 
L 273.288553 224.174697 
L 276.208147 224.174697 
L 279.127741 224.174697 
L 282.047335 224.174697 
L 284.966929 224.174697 
L 287.886523 224.174697 
L 290.806117 224.174697 
L 293.725711 224.174697 
L 296.645305 224.174697 
L 299.564899 224.174697 
L 302.484492 224.174697 
L 305.404086 224.174697 
L 308.32368 224.174697 
L 311.243274 224.174697 
L 314.162868 224.174697 
L 317.082462 224.174697 
L 320.002056 224.174697 
L 322.92165 224.174697 
L 325.841244 224.174697 
L 328.760838 224.174697 
L 331.680432 224.174697 
L 334.600026 224.174697 
L 337.51962 224.174697 
L 340.439214 224.174697 
L 343.358808 224.174697 
L 346.278402 224.174697 
L 349.197996 224.174697 
L 352.11759 224.174697 
L 355.037183 224.174697 
L 357.956777 224.174697 
L 360.876371 224.174697 
L 363.795965 224.174697 
L 363.795965 231.698438 
L 363.795965 231.698438 
L 360.876371 222.400474 
L 357.956777 218.376614 
L 355.037183 217.848504 
L 352.11759 219.426509 
L 349.197996 222.048652 
L 346.278402 224.926684 
L 343.358808 227.498658 
L 340.439214 229.387443 
L 337.51962 230.364635 
L 334.600026 230.319356 
L 331.680432 229.231471 
L 328.760838 227.148789 
L 325.841244 224.167819 
L 322.92165 220.417725 
L 320.002056 216.047102 
L 317.082462 211.21326 
L 314.162868 206.073706 
L 311.243274 200.779553 
L 308.32368 195.470592 
L 305.404086 190.271799 
L 302.484492 185.29106 
L 299.564899 180.617926 
L 296.645305 176.323215 
L 293.725711 172.459308 
L 290.806117 169.060998 
L 287.886523 166.146764 
L 284.966929 163.72036 
L 282.047335 161.772618 
L 279.127741 160.283387 
L 276.208147 159.223522 
L 273.288553 158.556881 
L 270.368959 158.242251 
L 267.449365 158.235185 
L 264.529771 158.489702 
L 261.610177 158.959822 
L 258.690583 159.60093 
L 255.770989 160.370938 
L 252.851395 161.231252 
L 249.931801 162.147538 
L 247.012208 163.090285 
L 244.092614 164.035178 
L 241.17302 164.963283 
L 238.253426 165.861066 
L 235.333832 166.720259 
L 232.414238 167.537575 
L 229.494644 168.314316 
L 226.57505 169.055876 
L 223.655456 169.771155 
L 220.735862 224.163843 
L 217.816268 224.164026 
L 214.896674 171.949276 
L 211.97708 172.451635 
L 209.057486 173.005355 
L 206.137892 173.637019 
L 203.218298 174.371696 
L 200.298704 175.231953 
L 197.37911 176.236953 
L 194.459517 177.401656 
L 191.539923 178.736152 
L 188.620329 180.245138 
L 185.700735 181.927563 
L 182.781141 183.77645 
L 179.861547 185.778913 
L 176.941953 187.916366 
L 174.022359 190.164935 
L 171.102765 192.496074 
L 168.183171 194.877371 
L 165.263577 197.273529 
L 162.343983 199.647531 
L 159.424389 201.961927 
L 156.504795 204.18025 
L 153.585201 206.268501 
L 150.665607 208.196676 
L 147.746013 209.940276 
L 144.826419 211.481745 
L 141.906825 212.811774 
L 138.987232 213.93039 
L 136.067638 214.847754 
L 133.148044 215.58458 
L 130.22845 216.172056 
L 127.308856 216.651181 
L 124.389262 217.071381 
L 121.469668 217.488276 
L 118.550074 217.960461 
L 115.63048 218.545145 
L 112.710886 219.292484 
L 109.791292 220.238434 
L 106.871698 221.395937 
L 103.952104 222.744236 
L 101.03251 224.216112 
L 98.112916 225.682818 
L 95.193322 226.936464 
L 92.273728 227.669608 
L 89.354134 227.451786 
L 86.434541 225.702702 
L 83.514947 221.661779 
L 80.595353 214.353763 
L 77.675759 202.550064 
L 74.756165 184.725479 
z
" clip-path="url(#p5cfd889eb4)" style="fill: #2ca02c; fill-opacity: 0.166667"/>
   </g>
   <g id="PolyCollection_4">
    <path d="M 74.756165 166.378197 
L 74.756165 224.174697 
L 78.035504 224.174697 
L 81.314842 224.174697 
L 84.594181 224.174697 
L 87.87352 224.174697 
L 91.152859 224.174697 
L 94.432198 224.174697 
L 97.711537 224.174697 
L 100.990876 224.174697 
L 104.270214 224.174697 
L 107.549553 224.174697 
L 110.828892 224.174697 
L 114.108231 224.174697 
L 117.38757 224.174697 
L 120.666909 224.174697 
L 123.946247 224.174697 
L 127.225586 224.174697 
L 130.504925 224.174697 
L 133.784264 224.174697 
L 137.063603 224.174697 
L 140.342942 224.174697 
L 143.62228 224.174697 
L 146.901619 224.174697 
L 150.180958 224.174697 
L 153.460297 224.174697 
L 156.739636 224.174697 
L 160.018975 224.174697 
L 163.298314 224.174697 
L 166.577652 224.174697 
L 169.856991 224.174697 
L 173.13633 224.174697 
L 176.415669 224.174697 
L 179.695008 224.174697 
L 182.974347 224.174697 
L 186.253685 224.174697 
L 189.533024 224.174697 
L 192.812363 224.174697 
L 196.091702 224.174697 
L 199.371041 224.174697 
L 202.65038 224.174697 
L 205.929718 224.174697 
L 209.209057 224.174697 
L 212.488396 224.174697 
L 215.767735 224.174697 
L 219.047074 224.174697 
L 222.326413 224.174697 
L 225.605752 224.174697 
L 228.88509 224.174697 
L 232.164429 224.174697 
L 235.443768 224.174697 
L 238.723107 224.174697 
L 242.002446 224.174697 
L 245.281785 224.174697 
L 248.561123 224.174697 
L 251.840462 224.174697 
L 255.119801 224.174697 
L 258.39914 224.174697 
L 261.678479 224.174697 
L 264.957818 224.174697 
L 268.237157 224.174697 
L 271.516495 224.174697 
L 274.795834 224.174697 
L 278.075173 224.174697 
L 281.354512 224.174697 
L 284.633851 224.174697 
L 287.91319 224.174697 
L 291.192528 224.174697 
L 294.471867 224.174697 
L 297.751206 224.174697 
L 301.030545 224.174697 
L 304.309884 224.174697 
L 307.589223 224.174697 
L 310.868561 224.174697 
L 314.1479 224.174697 
L 317.427239 224.174697 
L 320.706578 224.174697 
L 323.985917 224.174697 
L 327.265256 224.174697 
L 330.544595 224.174697 
L 333.823933 224.174697 
L 337.103272 224.174697 
L 340.382611 224.174697 
L 343.66195 224.174697 
L 346.941289 224.174697 
L 350.220628 224.174697 
L 353.499966 224.174697 
L 356.779305 224.174697 
L 360.058644 224.174697 
L 363.337983 224.174697 
L 366.617322 224.174697 
L 369.896661 224.174697 
L 373.175999 224.174697 
L 376.455338 224.174697 
L 379.734677 224.174697 
L 383.014016 224.174697 
L 386.293355 224.174697 
L 389.572694 224.174697 
L 392.852033 224.174697 
L 396.131371 224.174697 
L 399.41071 224.174697 
L 399.41071 227.942658 
L 399.41071 227.942658 
L 396.131371 224.088167 
L 392.852033 221.867765 
L 389.572694 220.911131 
L 386.293355 220.872749 
L 383.014016 221.443451 
L 379.734677 222.357572 
L 376.455338 223.396523 
L 373.175999 224.389466 
L 369.896661 225.211735 
L 366.617322 225.781537 
L 363.337983 226.055417 
L 360.058644 226.02291 
L 356.779305 225.700718 
L 353.499966 225.12673 
L 350.220628 224.354116 
L 346.941289 223.445712 
L 343.66195 222.468836 
L 340.382611 221.490676 
L 337.103272 220.574322 
L 333.823933 219.775496 
L 330.544595 219.14001 
L 327.265256 218.701963 
L 323.985917 218.482639 
L 320.706578 218.490083 
L 317.427239 218.719307 
L 314.1479 219.153046 
L 310.868561 219.763013 
L 307.589223 220.511546 
L 304.309884 221.353591 
L 301.030545 222.238911 
L 297.751206 223.114437 
L 294.471867 223.926684 
L 291.192528 224.624136 
L 287.91319 225.159524 
L 284.633851 225.491926 
L 281.354512 225.588617 
L 278.075173 225.426609 
L 274.795834 224.993842 
L 271.516495 224.289972 
L 268.237157 223.326732 
L 264.957818 222.127856 
L 261.678479 220.728544 
L 258.39914 219.174482 
L 255.119801 217.520432 
L 251.840462 215.828417 
L 248.561123 214.165539 
L 245.281785 212.601485 
L 242.002446 211.20577 
L 238.723107 224.175205 
L 235.443768 224.176841 
L 232.164429 206.35789 
L 228.88509 207.015264 
L 225.605752 208.175352 
L 222.326413 209.802361 
L 219.047074 211.836773 
L 215.767735 214.195456 
L 212.488396 216.77249 
L 209.209057 219.440717 
L 205.929718 222.054039 
L 202.65038 224.45045 
L 199.371041 226.45581 
L 196.091702 227.888296 
L 192.812363 228.563516 
L 189.533024 228.300199 
L 186.253685 226.926391 
L 182.974347 224.28605 
L 179.695008 220.245923 
L 176.415669 214.702567 
L 173.13633 207.58935 
L 169.856991 198.883256 
L 166.577652 188.611291 
L 163.298314 176.856259 
L 160.018975 163.761669 
L 156.739636 149.53551 
L 153.460297 134.452578 
L 150.180958 118.855068 
L 146.901619 103.151068 
L 143.62228 87.810609 
L 140.342942 73.358868 
L 137.063603 60.366121 
L 133.784264 49.434007 
L 130.504925 41.177639 
L 127.225586 36.203078 
L 123.946247 35.079655 
L 120.666909 38.306612 
L 117.38757 46.273495 
L 114.108231 59.213711 
L 110.828892 77.150648 
L 107.549553 99.835716 
L 104.270214 126.677657 
L 100.990876 156.66243 
L 97.711537 188.262979 
L 94.432198 219.338144 
L 91.152859 247.019967 
L 87.87352 267.588615 
L 84.594181 276.334125 
L 81.314842 267.404151 
L 78.035504 233.636872 
L 74.756165 166.378197 
z
" clip-path="url(#p5cfd889eb4)" style="fill: #d62728; fill-opacity: 0.166667"/>
   </g>
   <g id="PolyCollection_5">
    <path d="M 74.756165 171.216698 
L 74.756165 224.174697 
L 77.282686 224.174697 
L 79.809207 224.174697 
L 82.335728 224.174697 
L 84.862249 224.174697 
L 87.388771 224.174697 
L 89.915292 224.174697 
L 92.441813 224.174697 
L 94.968334 224.174697 
L 97.494855 224.174697 
L 100.021376 224.174697 
L 102.547897 224.174697 
L 105.074419 224.174697 
L 107.60094 224.174697 
L 110.127461 224.174697 
L 112.653982 224.174697 
L 115.180503 224.174697 
L 117.707024 224.174697 
L 120.233546 224.174697 
L 122.760067 224.174697 
L 125.286588 224.174697 
L 127.813109 224.174697 
L 130.33963 224.174697 
L 132.866151 224.174697 
L 135.392672 224.174697 
L 137.919194 224.174697 
L 140.445715 224.174697 
L 142.972236 224.174697 
L 145.498757 224.174697 
L 148.025278 224.174697 
L 150.551799 224.174697 
L 153.078321 224.174697 
L 155.604842 224.174697 
L 158.131363 224.174697 
L 160.657884 224.174697 
L 163.184405 224.174697 
L 165.710926 224.174697 
L 168.237447 224.174697 
L 170.763969 224.174697 
L 173.29049 224.174697 
L 175.817011 224.174697 
L 178.343532 224.174697 
L 180.870053 224.174697 
L 183.396574 224.174697 
L 185.923095 224.174697 
L 188.449617 224.174697 
L 190.976138 224.174697 
L 193.502659 224.174697 
L 196.02918 224.174697 
L 198.555701 224.174697 
L 201.082222 224.174697 
L 203.608744 224.174697 
L 206.135265 224.174697 
L 208.661786 224.174697 
L 211.188307 224.174697 
L 213.714828 224.174697 
L 216.241349 224.174697 
L 218.76787 224.174697 
L 221.294392 224.174697 
L 223.820913 224.174697 
L 226.347434 224.174697 
L 228.873955 224.174697 
L 231.400476 224.174697 
L 233.926997 224.174697 
L 236.453519 224.174697 
L 238.98004 224.174697 
L 241.506561 224.174697 
L 244.033082 224.174697 
L 246.559603 224.174697 
L 249.086124 224.174697 
L 251.612645 224.174697 
L 254.139167 224.174697 
L 256.665688 224.174697 
L 259.192209 224.174697 
L 261.71873 224.174697 
L 264.245251 224.174697 
L 266.771772 224.174697 
L 269.298294 224.174697 
L 271.824815 224.174697 
L 274.351336 224.174697 
L 276.877857 224.174697 
L 279.404378 224.174697 
L 281.930899 224.174697 
L 284.45742 224.174697 
L 286.983942 224.174697 
L 289.510463 224.174697 
L 292.036984 224.174697 
L 294.563505 224.174697 
L 297.090026 224.174697 
L 299.616547 224.174697 
L 302.143069 224.174697 
L 304.66959 224.174697 
L 307.196111 224.174697 
L 309.722632 224.174697 
L 312.249153 224.174697 
L 314.775674 224.174697 
L 317.302195 224.174697 
L 319.828717 224.174697 
L 322.355238 224.174697 
L 324.881759 224.174697 
L 324.881759 227.048326 
L 324.881759 227.048326 
L 322.355238 223.929882 
L 319.828717 222.260513 
L 317.302195 221.650651 
L 314.775674 221.767304 
L 312.249153 222.33343 
L 309.722632 223.125664 
L 307.196111 223.970802 
L 304.66959 224.741361 
L 302.143069 225.350516 
L 299.616547 225.746662 
L 297.090026 225.907828 
L 294.563505 225.836117 
L 292.036984 225.552327 
L 289.510463 225.090875 
L 286.983942 224.495125 
L 284.45742 223.813185 
L 281.930899 223.094224 
L 279.404378 222.385359 
L 276.877857 221.729092 
L 274.351336 221.161332 
L 271.824815 220.709963 
L 269.298294 220.393944 
L 266.771772 220.2229 
L 264.245251 220.197169 
L 261.71873 220.308243 
L 259.192209 220.539564 
L 256.665688 220.867601 
L 254.139167 221.26316 
L 251.612645 221.692867 
L 249.086124 222.120748 
L 246.559603 222.509872 
L 244.033082 222.823975 
L 241.506561 223.029029 
L 238.98004 223.094703 
L 236.453519 222.995663 
L 233.926997 222.712684 
L 231.400476 222.233536 
L 228.873955 221.553607 
L 226.347434 220.676265 
L 223.820913 219.612921 
L 221.294392 218.38281 
L 218.76787 217.012467 
L 216.241349 215.534935 
L 213.714828 213.988687 
L 211.188307 212.416319 
L 208.661786 210.863019 
L 206.135265 209.374851 
L 203.608744 207.996912 
L 201.082222 224.173345 
L 198.555701 224.174149 
L 196.02918 203.650483 
L 193.502659 203.487699 
L 190.976138 203.630774 
L 188.449617 204.05698 
L 185.923095 204.728106 
L 183.396574 205.590486 
L 180.870053 206.5755 
L 178.343532 207.600561 
L 175.817011 208.570602 
L 173.29049 209.380061 
L 170.763969 209.915373 
L 168.237447 210.057929 
L 165.710926 209.687492 
L 163.184405 208.686021 
L 160.657884 206.941855 
L 158.131363 204.354187 
L 155.604842 200.837754 
L 153.078321 196.327643 
L 150.551799 190.784116 
L 148.025278 184.197312 
L 145.498757 176.591712 
L 142.972236 168.03018 
L 140.445715 158.617436 
L 137.919194 148.502749 
L 135.392672 137.881648 
L 132.866151 126.996432 
L 130.33963 116.135211 
L 127.813109 105.629236 
L 125.286588 95.848207 
L 122.760067 87.193279 
L 120.233546 80.087406 
L 117.707024 74.962704 
L 115.180503 72.244443 
L 112.653982 72.331276 
L 110.127461 75.571302 
L 107.60094 82.233507 
L 105.074419 92.47413 
L 102.547897 106.297473 
L 100.021376 123.510635 
L 97.494855 143.671644 
L 94.968334 166.030422 
L 92.441813 189.462011 
L 89.915292 212.391443 
L 87.388771 232.709618 
L 84.862249 247.679547 
L 82.335728 253.83226 
L 79.809207 246.851671 
L 77.282686 221.447675 
L 74.756165 171.216698 
z
" clip-path="url(#p5cfd889eb4)" style="fill: #9467bd; fill-opacity: 0.166667"/>
   </g>
   <g id="PolyCollection_6">
    <path d="M 74.756165 201.803925 
L 74.756165 224.174697 
L 77.267297 224.174697 
L 79.778429 224.174697 
L 82.289561 224.174697 
L 84.800693 224.174697 
L 87.311826 224.174697 
L 89.822958 224.174697 
L 92.33409 224.174697 
L 94.845222 224.174697 
L 97.356354 224.174697 
L 99.867487 224.174697 
L 102.378619 224.174697 
L 104.889751 224.174697 
L 107.400883 224.174697 
L 109.912015 224.174697 
L 112.423147 224.174697 
L 114.93428 224.174697 
L 117.445412 224.174697 
L 119.956544 224.174697 
L 122.467676 224.174697 
L 124.978808 224.174697 
L 127.48994 224.174697 
L 130.001073 224.174697 
L 132.512205 224.174697 
L 135.023337 224.174697 
L 137.534469 224.174697 
L 140.045601 224.174697 
L 142.556733 224.174697 
L 145.067866 224.174697 
L 147.578998 224.174697 
L 150.09013 224.174697 
L 152.601262 224.174697 
L 155.112394 224.174697 
L 157.623527 224.174697 
L 160.134659 224.174697 
L 162.645791 224.174697 
L 165.156923 224.174697 
L 167.668055 224.174697 
L 170.179187 224.174697 
L 172.69032 224.174697 
L 175.201452 224.174697 
L 177.712584 224.174697 
L 180.223716 224.174697 
L 182.734848 224.174697 
L 185.24598 224.174697 
L 187.757113 224.174697 
L 190.268245 224.174697 
L 192.779377 224.174697 
L 195.290509 224.174697 
L 197.801641 224.174697 
L 200.312774 224.174697 
L 202.823906 224.174697 
L 205.335038 224.174697 
L 207.84617 224.174697 
L 210.357302 224.174697 
L 212.868434 224.174697 
L 215.379567 224.174697 
L 217.890699 224.174697 
L 220.401831 224.174697 
L 222.912963 224.174697 
L 225.424095 224.174697 
L 227.935227 224.174697 
L 230.44636 224.174697 
L 232.957492 224.174697 
L 235.468624 224.174697 
L 237.979756 224.174697 
L 240.490888 224.174697 
L 243.00202 224.174697 
L 245.513153 224.174697 
L 248.024285 224.174697 
L 250.535417 224.174697 
L 253.046549 224.174697 
L 255.557681 224.174697 
L 258.068814 224.174697 
L 260.579946 224.174697 
L 263.091078 224.174697 
L 265.60221 224.174697 
L 268.113342 224.174697 
L 270.624474 224.174697 
L 273.135607 224.174697 
L 275.646739 224.174697 
L 278.157871 224.174697 
L 280.669003 224.174697 
L 283.180135 224.174697 
L 285.691267 224.174697 
L 288.2024 224.174697 
L 290.713532 224.174697 
L 293.224664 224.174697 
L 295.735796 224.174697 
L 298.246928 224.174697 
L 300.758061 224.174697 
L 303.269193 224.174697 
L 305.780325 224.174697 
L 308.291457 224.174697 
L 310.802589 224.174697 
L 313.313721 224.174697 
L 315.824854 224.174697 
L 318.335986 224.174697 
L 320.847118 224.174697 
L 323.35825 224.174697 
L 323.35825 234.234183 
L 323.35825 234.234183 
L 320.847118 220.901212 
L 318.335986 215.568106 
L 315.824854 215.164871 
L 313.313721 217.45149 
L 310.802589 220.85333 
L 308.291457 224.320703 
L 305.780325 227.209981 
L 303.269193 229.183902 
L 300.758061 230.128849 
L 298.246928 230.087078 
L 295.735796 229.202028 
L 293.224664 227.675002 
L 290.713532 225.731667 
L 288.2024 223.596938 
L 285.691267 221.476973 
L 283.180135 219.547115 
L 280.669003 217.944724 
L 278.157871 216.765992 
L 275.646739 216.065892 
L 273.135607 215.860541 
L 270.624474 216.131334 
L 268.113342 216.830303 
L 265.60221 217.886211 
L 263.091078 219.210998 
L 260.579946 220.706227 
L 258.068814 222.269264 
L 255.557681 223.798973 
L 253.046549 225.200765 
L 250.535417 226.390866 
L 248.024285 227.299743 
L 245.513153 227.874639 
L 243.00202 228.081192 
L 240.490888 227.904192 
L 237.979756 227.347475 
L 235.468624 226.433055 
L 232.957492 225.19955 
L 230.44636 223.700003 
L 227.935227 221.999207 
L 225.424095 220.170633 
L 222.912963 218.293082 
L 220.401831 216.447181 
L 217.890699 214.711832 
L 215.379567 213.160726 
L 212.868434 211.859034 
L 210.357302 210.860379 
L 207.84617 210.204161 
L 205.335038 209.913341 
L 202.823906 209.992737 
L 200.312774 224.175594 
L 197.801641 224.175737 
L 195.290509 210.833712 
L 192.779377 212.240115 
L 190.268245 213.816054 
L 187.757113 215.443694 
L 185.24598 216.98979 
L 182.734848 218.309594 
L 180.223716 219.251375 
L 177.712584 219.661446 
L 175.201452 219.389577 
L 172.69032 218.294665 
L 170.179187 216.250516 
L 167.668055 213.151567 
L 165.156923 208.918405 
L 162.645791 203.502885 
L 160.134659 196.892683 
L 157.623527 189.115101 
L 155.112394 180.239959 
L 152.601262 170.38139 
L 150.09013 159.698406 
L 147.578998 148.394069 
L 145.067866 136.713169 
L 142.556733 124.938305 
L 140.045601 113.384302 
L 137.534469 102.390946 
L 135.023337 92.314037 
L 132.512205 83.514834 
L 130.001073 76.348005 
L 127.48994 71.148245 
L 124.978808 68.215827 
L 122.467676 67.801391 
L 119.956544 70.090366 
L 117.445412 75.187539 
L 114.93428 83.102331 
L 112.423147 93.735497 
L 109.912015 106.86805 
L 107.400883 122.153346 
L 104.889751 139.113391 
L 102.378619 157.140589 
L 99.867487 175.506286 
L 97.356354 193.377628 
L 94.845222 209.844441 
L 92.33409 223.958005 
L 89.822958 234.783785 
L 87.311826 241.470417 
L 84.800693 243.337422 
L 82.289561 239.984376 
L 79.778429 231.424509 
L 77.267297 218.245923 
L 74.756165 201.803925 
z
" clip-path="url(#p5cfd889eb4)" style="fill: #8c564b; fill-opacity: 0.166667"/>
   </g>
   <g id="matplotlib.axis_1">
    <g id="xtick_1">
     <g id="line2d_1">
      <defs>
       <path id="m037339473b" d="M 0 0 
L 0 3.5 
" style="stroke: #000000; stroke-width: 0.8"/>
      </defs>
      <g>
       <use xlink:href="#m037339473b" x="74.756165" y="288.430125" style="stroke: #000000; stroke-width: 0.8"/>
      </g>
     </g>
     <g id="text_1">
      <!-- 0.00000 -->
      <g transform="translate(54.079602 303.028562) scale(0.1 -0.1)">
       <defs>
        <path id="DejaVuSans-30" d="M 2034 4250 
Q 1547 4250 1301 3770 
Q 1056 3291 1056 2328 
Q 1056 1369 1301 889 
Q 1547 409 2034 409 
Q 2525 409 2770 889 
Q 3016 1369 3016 2328 
Q 3016 3291 2770 3770 
Q 2525 4250 2034 4250 
z
M 2034 4750 
Q 2819 4750 3233 4129 
Q 3647 3509 3647 2328 
Q 3647 1150 3233 529 
Q 2819 -91 2034 -91 
Q 1250 -91 836 529 
Q 422 1150 422 2328 
Q 422 3509 836 4129 
Q 1250 4750 2034 4750 
z
" transform="scale(0.015625)"/>
        <path id="DejaVuSans-2e" d="M 684 794 
L 1344 794 
L 1344 0 
L 684 0 
L 684 794 
z
" transform="scale(0.015625)"/>
       </defs>
       <use xlink:href="#DejaVuSans-30"/>
       <use xlink:href="#DejaVuSans-2e" x="63.623047"/>
       <use xlink:href="#DejaVuSans-30" x="95.410156"/>
       <use xlink:href="#DejaVuSans-30" x="159.033203"/>
       <use xlink:href="#DejaVuSans-30" x="222.65625"/>
       <use xlink:href="#DejaVuSans-30" x="286.279297"/>
       <use xlink:href="#DejaVuSans-30" x="349.902344"/>
      </g>
     </g>
    </g>
    <g id="xtick_2">
     <g id="line2d_2">
      <g>
       <use xlink:href="#m037339473b" x="118.863709" y="288.430125" style="stroke: #000000; stroke-width: 0.8"/>
      </g>
     </g>
     <g id="text_2">
      <!-- 0.00025 -->
      <g transform="translate(98.187147 303.028562) scale(0.1 -0.1)">
       <defs>
        <path id="DejaVuSans-32" d="M 1228 531 
L 3431 531 
L 3431 0 
L 469 0 
L 469 531 
Q 828 903 1448 1529 
Q 2069 2156 2228 2338 
Q 2531 2678 2651 2914 
Q 2772 3150 2772 3378 
Q 2772 3750 2511 3984 
Q 2250 4219 1831 4219 
Q 1534 4219 1204 4116 
Q 875 4013 500 3803 
L 500 4441 
Q 881 4594 1212 4672 
Q 1544 4750 1819 4750 
Q 2544 4750 2975 4387 
Q 3406 4025 3406 3419 
Q 3406 3131 3298 2873 
Q 3191 2616 2906 2266 
Q 2828 2175 2409 1742 
Q 1991 1309 1228 531 
z
" transform="scale(0.015625)"/>
        <path id="DejaVuSans-35" d="M 691 4666 
L 3169 4666 
L 3169 4134 
L 1269 4134 
L 1269 2991 
Q 1406 3038 1543 3061 
Q 1681 3084 1819 3084 
Q 2600 3084 3056 2656 
Q 3513 2228 3513 1497 
Q 3513 744 3044 326 
Q 2575 -91 1722 -91 
Q 1428 -91 1123 -41 
Q 819 9 494 109 
L 494 744 
Q 775 591 1075 516 
Q 1375 441 1709 441 
Q 2250 441 2565 725 
Q 2881 1009 2881 1497 
Q 2881 1984 2565 2268 
Q 2250 2553 1709 2553 
Q 1456 2553 1204 2497 
Q 953 2441 691 2322 
L 691 4666 
z
" transform="scale(0.015625)"/>
       </defs>
       <use xlink:href="#DejaVuSans-30"/>
       <use xlink:href="#DejaVuSans-2e" x="63.623047"/>
       <use xlink:href="#DejaVuSans-30" x="95.410156"/>
       <use xlink:href="#DejaVuSans-30" x="159.033203"/>
       <use xlink:href="#DejaVuSans-30" x="222.65625"/>
       <use xlink:href="#DejaVuSans-32" x="286.279297"/>
       <use xlink:href="#DejaVuSans-35" x="349.902344"/>
      </g>
     </g>
    </g>
    <g id="xtick_3">
     <g id="line2d_3">
      <g>
       <use xlink:href="#m037339473b" x="162.971254" y="288.430125" style="stroke: #000000; stroke-width: 0.8"/>
      </g>
     </g>
     <g id="text_3">
      <!-- 0.00050 -->
      <g transform="translate(142.294691 303.028562) scale(0.1 -0.1)">
       <use xlink:href="#DejaVuSans-30"/>
       <use xlink:href="#DejaVuSans-2e" x="63.623047"/>
       <use xlink:href="#DejaVuSans-30" x="95.410156"/>
       <use xlink:href="#DejaVuSans-30" x="159.033203"/>
       <use xlink:href="#DejaVuSans-30" x="222.65625"/>
       <use xlink:href="#DejaVuSans-35" x="286.279297"/>
       <use xlink:href="#DejaVuSans-30" x="349.902344"/>
      </g>
     </g>
    </g>
    <g id="xtick_4">
     <g id="line2d_4">
      <g>
       <use xlink:href="#m037339473b" x="207.078798" y="288.430125" style="stroke: #000000; stroke-width: 0.8"/>
      </g>
     </g>
     <g id="text_4">
      <!-- 0.00075 -->
      <g transform="translate(186.402235 303.028562) scale(0.1 -0.1)">
       <defs>
        <path id="DejaVuSans-37" d="M 525 4666 
L 3525 4666 
L 3525 4397 
L 1831 0 
L 1172 0 
L 2766 4134 
L 525 4134 
L 525 4666 
z
" transform="scale(0.015625)"/>
       </defs>
       <use xlink:href="#DejaVuSans-30"/>
       <use xlink:href="#DejaVuSans-2e" x="63.623047"/>
       <use xlink:href="#DejaVuSans-30" x="95.410156"/>
       <use xlink:href="#DejaVuSans-30" x="159.033203"/>
       <use xlink:href="#DejaVuSans-30" x="222.65625"/>
       <use xlink:href="#DejaVuSans-37" x="286.279297"/>
       <use xlink:href="#DejaVuSans-35" x="349.902344"/>
      </g>
     </g>
    </g>
    <g id="xtick_5">
     <g id="line2d_5">
      <g>
       <use xlink:href="#m037339473b" x="251.186342" y="288.430125" style="stroke: #000000; stroke-width: 0.8"/>
      </g>
     </g>
     <g id="text_5">
      <!-- 0.00100 -->
      <g transform="translate(230.50978 303.028562) scale(0.1 -0.1)">
       <defs>
        <path id="DejaVuSans-31" d="M 794 531 
L 1825 531 
L 1825 4091 
L 703 3866 
L 703 4441 
L 1819 4666 
L 2450 4666 
L 2450 531 
L 3481 531 
L 3481 0 
L 794 0 
L 794 531 
z
" transform="scale(0.015625)"/>
       </defs>
       <use xlink:href="#DejaVuSans-30"/>
       <use xlink:href="#DejaVuSans-2e" x="63.623047"/>
       <use xlink:href="#DejaVuSans-30" x="95.410156"/>
       <use xlink:href="#DejaVuSans-30" x="159.033203"/>
       <use xlink:href="#DejaVuSans-31" x="222.65625"/>
       <use xlink:href="#DejaVuSans-30" x="286.279297"/>
       <use xlink:href="#DejaVuSans-30" x="349.902344"/>
      </g>
     </g>
    </g>
    <g id="xtick_6">
     <g id="line2d_6">
      <g>
       <use xlink:href="#m037339473b" x="295.293887" y="288.430125" style="stroke: #000000; stroke-width: 0.8"/>
      </g>
     </g>
     <g id="text_6">
      <!-- 0.00125 -->
      <g transform="translate(274.617324 303.028562) scale(0.1 -0.1)">
       <use xlink:href="#DejaVuSans-30"/>
       <use xlink:href="#DejaVuSans-2e" x="63.623047"/>
       <use xlink:href="#DejaVuSans-30" x="95.410156"/>
       <use xlink:href="#DejaVuSans-30" x="159.033203"/>
       <use xlink:href="#DejaVuSans-31" x="222.65625"/>
       <use xlink:href="#DejaVuSans-32" x="286.279297"/>
       <use xlink:href="#DejaVuSans-35" x="349.902344"/>
      </g>
     </g>
    </g>
    <g id="xtick_7">
     <g id="line2d_7">
      <g>
       <use xlink:href="#m037339473b" x="339.401431" y="288.430125" style="stroke: #000000; stroke-width: 0.8"/>
      </g>
     </g>
     <g id="text_7">
      <!-- 0.00150 -->
      <g transform="translate(318.724869 303.028562) scale(0.1 -0.1)">
       <use xlink:href="#DejaVuSans-30"/>
       <use xlink:href="#DejaVuSans-2e" x="63.623047"/>
       <use xlink:href="#DejaVuSans-30" x="95.410156"/>
       <use xlink:href="#DejaVuSans-30" x="159.033203"/>
       <use xlink:href="#DejaVuSans-31" x="222.65625"/>
       <use xlink:href="#DejaVuSans-35" x="286.279297"/>
       <use xlink:href="#DejaVuSans-30" x="349.902344"/>
      </g>
     </g>
    </g>
    <g id="xtick_8">
     <g id="line2d_8">
      <g>
       <use xlink:href="#m037339473b" x="383.508976" y="288.430125" style="stroke: #000000; stroke-width: 0.8"/>
      </g>
     </g>
     <g id="text_8">
      <!-- 0.00175 -->
      <g transform="translate(362.832413 303.028562) scale(0.1 -0.1)">
       <use xlink:href="#DejaVuSans-30"/>
       <use xlink:href="#DejaVuSans-2e" x="63.623047"/>
       <use xlink:href="#DejaVuSans-30" x="95.410156"/>
       <use xlink:href="#DejaVuSans-30" x="159.033203"/>
       <use xlink:href="#DejaVuSans-31" x="222.65625"/>
       <use xlink:href="#DejaVuSans-37" x="286.279297"/>
       <use xlink:href="#DejaVuSans-35" x="349.902344"/>
      </g>
     </g>
    </g>
    <g id="text_9">
     <!-- Pixel values -->
     <g transform="translate(207.671719 316.706687) scale(0.1 -0.1)">
      <defs>
       <path id="DejaVuSans-50" d="M 1259 4147 
L 1259 2394 
L 2053 2394 
Q 2494 2394 2734 2622 
Q 2975 2850 2975 3272 
Q 2975 3691 2734 3919 
Q 2494 4147 2053 4147 
L 1259 4147 
z
M 628 4666 
L 2053 4666 
Q 2838 4666 3239 4311 
Q 3641 3956 3641 3272 
Q 3641 2581 3239 2228 
Q 2838 1875 2053 1875 
L 1259 1875 
L 1259 0 
L 628 0 
L 628 4666 
z
" transform="scale(0.015625)"/>
       <path id="DejaVuSans-69" d="M 603 3500 
L 1178 3500 
L 1178 0 
L 603 0 
L 603 3500 
z
M 603 4863 
L 1178 4863 
L 1178 4134 
L 603 4134 
L 603 4863 
z
" transform="scale(0.015625)"/>
       <path id="DejaVuSans-78" d="M 3513 3500 
L 2247 1797 
L 3578 0 
L 2900 0 
L 1881 1375 
L 863 0 
L 184 0 
L 1544 1831 
L 300 3500 
L 978 3500 
L 1906 2253 
L 2834 3500 
L 3513 3500 
z
" transform="scale(0.015625)"/>
       <path id="DejaVuSans-65" d="M 3597 1894 
L 3597 1613 
L 953 1613 
Q 991 1019 1311 708 
Q 1631 397 2203 397 
Q 2534 397 2845 478 
Q 3156 559 3463 722 
L 3463 178 
Q 3153 47 2828 -22 
Q 2503 -91 2169 -91 
Q 1331 -91 842 396 
Q 353 884 353 1716 
Q 353 2575 817 3079 
Q 1281 3584 2069 3584 
Q 2775 3584 3186 3129 
Q 3597 2675 3597 1894 
z
M 3022 2063 
Q 3016 2534 2758 2815 
Q 2500 3097 2075 3097 
Q 1594 3097 1305 2825 
Q 1016 2553 972 2059 
L 3022 2063 
z
" transform="scale(0.015625)"/>
       <path id="DejaVuSans-6c" d="M 603 4863 
L 1178 4863 
L 1178 0 
L 603 0 
L 603 4863 
z
" transform="scale(0.015625)"/>
       <path id="DejaVuSans-20" transform="scale(0.015625)"/>
       <path id="DejaVuSans-76" d="M 191 3500 
L 800 3500 
L 1894 563 
L 2988 3500 
L 3597 3500 
L 2284 0 
L 1503 0 
L 191 3500 
z
" transform="scale(0.015625)"/>
       <path id="DejaVuSans-61" d="M 2194 1759 
Q 1497 1759 1228 1600 
Q 959 1441 959 1056 
Q 959 750 1161 570 
Q 1363 391 1709 391 
Q 2188 391 2477 730 
Q 2766 1069 2766 1631 
L 2766 1759 
L 2194 1759 
z
M 3341 1997 
L 3341 0 
L 2766 0 
L 2766 531 
Q 2569 213 2275 61 
Q 1981 -91 1556 -91 
Q 1019 -91 701 211 
Q 384 513 384 1019 
Q 384 1609 779 1909 
Q 1175 2209 1959 2209 
L 2766 2209 
L 2766 2266 
Q 2766 2663 2505 2880 
Q 2244 3097 1772 3097 
Q 1472 3097 1187 3025 
Q 903 2953 641 2809 
L 641 3341 
Q 956 3463 1253 3523 
Q 1550 3584 1831 3584 
Q 2591 3584 2966 3190 
Q 3341 2797 3341 1997 
z
" transform="scale(0.015625)"/>
       <path id="DejaVuSans-75" d="M 544 1381 
L 544 3500 
L 1119 3500 
L 1119 1403 
Q 1119 906 1312 657 
Q 1506 409 1894 409 
Q 2359 409 2629 706 
Q 2900 1003 2900 1516 
L 2900 3500 
L 3475 3500 
L 3475 0 
L 2900 0 
L 2900 538 
Q 2691 219 2414 64 
Q 2138 -91 1772 -91 
Q 1169 -91 856 284 
Q 544 659 544 1381 
z
M 1991 3584 
L 1991 3584 
z
" transform="scale(0.015625)"/>
       <path id="DejaVuSans-73" d="M 2834 3397 
L 2834 2853 
Q 2591 2978 2328 3040 
Q 2066 3103 1784 3103 
Q 1356 3103 1142 2972 
Q 928 2841 928 2578 
Q 928 2378 1081 2264 
Q 1234 2150 1697 2047 
L 1894 2003 
Q 2506 1872 2764 1633 
Q 3022 1394 3022 966 
Q 3022 478 2636 193 
Q 2250 -91 1575 -91 
Q 1294 -91 989 -36 
Q 684 19 347 128 
L 347 722 
Q 666 556 975 473 
Q 1284 391 1588 391 
Q 1994 391 2212 530 
Q 2431 669 2431 922 
Q 2431 1156 2273 1281 
Q 2116 1406 1581 1522 
L 1381 1569 
Q 847 1681 609 1914 
Q 372 2147 372 2553 
Q 372 3047 722 3315 
Q 1072 3584 1716 3584 
Q 2034 3584 2315 3537 
Q 2597 3491 2834 3397 
z
" transform="scale(0.015625)"/>
      </defs>
      <use xlink:href="#DejaVuSans-50"/>
      <use xlink:href="#DejaVuSans-69" x="58.052734"/>
      <use xlink:href="#DejaVuSans-78" x="85.835938"/>
      <use xlink:href="#DejaVuSans-65" x="141.890625"/>
      <use xlink:href="#DejaVuSans-6c" x="203.414062"/>
      <use xlink:href="#DejaVuSans-20" x="231.197266"/>
      <use xlink:href="#DejaVuSans-76" x="262.984375"/>
      <use xlink:href="#DejaVuSans-61" x="322.164062"/>
      <use xlink:href="#DejaVuSans-6c" x="383.443359"/>
      <use xlink:href="#DejaVuSans-75" x="411.226562"/>
      <use xlink:href="#DejaVuSans-65" x="474.605469"/>
      <use xlink:href="#DejaVuSans-73" x="536.128906"/>
     </g>
    </g>
   </g>
   <g id="matplotlib.axis_2">
    <g id="ytick_1">
     <g id="line2d_9">
      <defs>
       <path id="ma5f858fb75" d="M 0 0 
L -3.5 0 
" style="stroke: #000000; stroke-width: 0.8"/>
      </defs>
      <g>
       <use xlink:href="#ma5f858fb75" x="58.523438" y="282.386427" style="stroke: #000000; stroke-width: 0.8"/>
      </g>
     </g>
     <g id="text_10">
      <!-- −0.02 -->
      <g transform="translate(20.878125 286.185646) scale(0.1 -0.1)">
       <defs>
        <path id="DejaVuSans-2212" d="M 678 2272 
L 4684 2272 
L 4684 1741 
L 678 1741 
L 678 2272 
z
" transform="scale(0.015625)"/>
       </defs>
       <use xlink:href="#DejaVuSans-2212"/>
       <use xlink:href="#DejaVuSans-30" x="83.789062"/>
       <use xlink:href="#DejaVuSans-2e" x="147.412109"/>
       <use xlink:href="#DejaVuSans-30" x="179.199219"/>
       <use xlink:href="#DejaVuSans-32" x="242.822266"/>
      </g>
     </g>
    </g>
    <g id="ytick_2">
     <g id="line2d_10">
      <g>
       <use xlink:href="#ma5f858fb75" x="58.523438" y="224.174697" style="stroke: #000000; stroke-width: 0.8"/>
      </g>
     </g>
     <g id="text_11">
      <!-- 0.00 -->
      <g transform="translate(29.257813 227.973916) scale(0.1 -0.1)">
       <use xlink:href="#DejaVuSans-30"/>
       <use xlink:href="#DejaVuSans-2e" x="63.623047"/>
       <use xlink:href="#DejaVuSans-30" x="95.410156"/>
       <use xlink:href="#DejaVuSans-30" x="159.033203"/>
      </g>
     </g>
    </g>
    <g id="ytick_3">
     <g id="line2d_11">
      <g>
       <use xlink:href="#ma5f858fb75" x="58.523438" y="165.962967" style="stroke: #000000; stroke-width: 0.8"/>
      </g>
     </g>
     <g id="text_12">
      <!-- 0.02 -->
      <g transform="translate(29.257813 169.762186) scale(0.1 -0.1)">
       <use xlink:href="#DejaVuSans-30"/>
       <use xlink:href="#DejaVuSans-2e" x="63.623047"/>
       <use xlink:href="#DejaVuSans-30" x="95.410156"/>
       <use xlink:href="#DejaVuSans-32" x="159.033203"/>
      </g>
     </g>
    </g>
    <g id="ytick_4">
     <g id="line2d_12">
      <g>
       <use xlink:href="#ma5f858fb75" x="58.523438" y="107.751237" style="stroke: #000000; stroke-width: 0.8"/>
      </g>
     </g>
     <g id="text_13">
      <!-- 0.04 -->
      <g transform="translate(29.257813 111.550456) scale(0.1 -0.1)">
       <defs>
        <path id="DejaVuSans-34" d="M 2419 4116 
L 825 1625 
L 2419 1625 
L 2419 4116 
z
M 2253 4666 
L 3047 4666 
L 3047 1625 
L 3713 1625 
L 3713 1100 
L 3047 1100 
L 3047 0 
L 2419 0 
L 2419 1100 
L 313 1100 
L 313 1709 
L 2253 4666 
z
" transform="scale(0.015625)"/>
       </defs>
       <use xlink:href="#DejaVuSans-30"/>
       <use xlink:href="#DejaVuSans-2e" x="63.623047"/>
       <use xlink:href="#DejaVuSans-30" x="95.410156"/>
       <use xlink:href="#DejaVuSans-34" x="159.033203"/>
      </g>
     </g>
    </g>
    <g id="ytick_5">
     <g id="line2d_13">
      <g>
       <use xlink:href="#ma5f858fb75" x="58.523438" y="49.539507" style="stroke: #000000; stroke-width: 0.8"/>
      </g>
     </g>
     <g id="text_14">
      <!-- 0.06 -->
      <g transform="translate(29.257813 53.338726) scale(0.1 -0.1)">
       <defs>
        <path id="DejaVuSans-36" d="M 2113 2584 
Q 1688 2584 1439 2293 
Q 1191 2003 1191 1497 
Q 1191 994 1439 701 
Q 1688 409 2113 409 
Q 2538 409 2786 701 
Q 3034 994 3034 1497 
Q 3034 2003 2786 2293 
Q 2538 2584 2113 2584 
z
M 3366 4563 
L 3366 3988 
Q 3128 4100 2886 4159 
Q 2644 4219 2406 4219 
Q 1781 4219 1451 3797 
Q 1122 3375 1075 2522 
Q 1259 2794 1537 2939 
Q 1816 3084 2150 3084 
Q 2853 3084 3261 2657 
Q 3669 2231 3669 1497 
Q 3669 778 3244 343 
Q 2819 -91 2113 -91 
Q 1303 -91 875 529 
Q 447 1150 447 2328 
Q 447 3434 972 4092 
Q 1497 4750 2381 4750 
Q 2619 4750 2861 4703 
Q 3103 4656 3366 4563 
z
" transform="scale(0.015625)"/>
       </defs>
       <use xlink:href="#DejaVuSans-30"/>
       <use xlink:href="#DejaVuSans-2e" x="63.623047"/>
       <use xlink:href="#DejaVuSans-30" x="95.410156"/>
       <use xlink:href="#DejaVuSans-36" x="159.033203"/>
      </g>
     </g>
    </g>
    <g id="text_15">
     <!-- Frequency -->
     <g transform="translate(14.798438 181.203812) rotate(-90) scale(0.1 -0.1)">
      <defs>
       <path id="DejaVuSans-46" d="M 628 4666 
L 3309 4666 
L 3309 4134 
L 1259 4134 
L 1259 2759 
L 3109 2759 
L 3109 2228 
L 1259 2228 
L 1259 0 
L 628 0 
L 628 4666 
z
" transform="scale(0.015625)"/>
       <path id="DejaVuSans-72" d="M 2631 2963 
Q 2534 3019 2420 3045 
Q 2306 3072 2169 3072 
Q 1681 3072 1420 2755 
Q 1159 2438 1159 1844 
L 1159 0 
L 581 0 
L 581 3500 
L 1159 3500 
L 1159 2956 
Q 1341 3275 1631 3429 
Q 1922 3584 2338 3584 
Q 2397 3584 2469 3576 
Q 2541 3569 2628 3553 
L 2631 2963 
z
" transform="scale(0.015625)"/>
       <path id="DejaVuSans-71" d="M 947 1747 
Q 947 1113 1208 752 
Q 1469 391 1925 391 
Q 2381 391 2643 752 
Q 2906 1113 2906 1747 
Q 2906 2381 2643 2742 
Q 2381 3103 1925 3103 
Q 1469 3103 1208 2742 
Q 947 2381 947 1747 
z
M 2906 525 
Q 2725 213 2448 61 
Q 2172 -91 1784 -91 
Q 1150 -91 751 415 
Q 353 922 353 1747 
Q 353 2572 751 3078 
Q 1150 3584 1784 3584 
Q 2172 3584 2448 3432 
Q 2725 3281 2906 2969 
L 2906 3500 
L 3481 3500 
L 3481 -1331 
L 2906 -1331 
L 2906 525 
z
" transform="scale(0.015625)"/>
       <path id="DejaVuSans-6e" d="M 3513 2113 
L 3513 0 
L 2938 0 
L 2938 2094 
Q 2938 2591 2744 2837 
Q 2550 3084 2163 3084 
Q 1697 3084 1428 2787 
Q 1159 2491 1159 1978 
L 1159 0 
L 581 0 
L 581 3500 
L 1159 3500 
L 1159 2956 
Q 1366 3272 1645 3428 
Q 1925 3584 2291 3584 
Q 2894 3584 3203 3211 
Q 3513 2838 3513 2113 
z
" transform="scale(0.015625)"/>
       <path id="DejaVuSans-63" d="M 3122 3366 
L 3122 2828 
Q 2878 2963 2633 3030 
Q 2388 3097 2138 3097 
Q 1578 3097 1268 2742 
Q 959 2388 959 1747 
Q 959 1106 1268 751 
Q 1578 397 2138 397 
Q 2388 397 2633 464 
Q 2878 531 3122 666 
L 3122 134 
Q 2881 22 2623 -34 
Q 2366 -91 2075 -91 
Q 1284 -91 818 406 
Q 353 903 353 1747 
Q 353 2603 823 3093 
Q 1294 3584 2113 3584 
Q 2378 3584 2631 3529 
Q 2884 3475 3122 3366 
z
" transform="scale(0.015625)"/>
       <path id="DejaVuSans-79" d="M 2059 -325 
Q 1816 -950 1584 -1140 
Q 1353 -1331 966 -1331 
L 506 -1331 
L 506 -850 
L 844 -850 
Q 1081 -850 1212 -737 
Q 1344 -625 1503 -206 
L 1606 56 
L 191 3500 
L 800 3500 
L 1894 763 
L 2988 3500 
L 3597 3500 
L 2059 -325 
z
" transform="scale(0.015625)"/>
      </defs>
      <use xlink:href="#DejaVuSans-46"/>
      <use xlink:href="#DejaVuSans-72" x="50.269531"/>
      <use xlink:href="#DejaVuSans-65" x="89.132812"/>
      <use xlink:href="#DejaVuSans-71" x="150.65625"/>
      <use xlink:href="#DejaVuSans-75" x="214.132812"/>
      <use xlink:href="#DejaVuSans-65" x="277.511719"/>
      <use xlink:href="#DejaVuSans-6e" x="339.035156"/>
      <use xlink:href="#DejaVuSans-63" x="402.414062"/>
      <use xlink:href="#DejaVuSans-79" x="457.394531"/>
     </g>
    </g>
   </g>
   <g id="line2d_14">
    <path d="M 74.756165 174.551872 
L 77.891949 229.961319 
L 81.027733 256.781269 
L 84.163517 262.732633 
L 87.299301 254.11205 
L 90.435086 235.985354 
L 93.57087 212.361429 
L 96.706654 186.347913 
L 99.842438 160.290114 
L 102.978222 135.894453 
L 106.114007 114.337669 
L 109.249791 96.362948 
L 112.385575 82.364084 
L 115.521359 72.458717 
L 118.657143 66.551621 
L 121.792927 64.388971 
L 124.928712 65.604446 
L 128.064496 69.757996 
L 131.20028 76.368012 
L 134.336064 84.937621 
L 137.471848 94.975764 
L 140.607632 106.013665 
L 143.743417 117.617264 
L 146.879201 129.396145 
L 150.014985 141.009432 
L 153.150769 152.169103 
L 156.286553 162.641142 
L 159.422338 172.244873 
L 162.558122 180.850849 
L 165.693906 188.377567 
L 168.82969 194.787312 
L 171.965474 200.081352 
L 175.101258 204.294716 
L 178.237043 207.490741 
L 181.372827 209.755556 
L 184.508611 211.192635 
L 187.644395 211.917564 
L 190.780179 212.053095 
L 193.915963 211.724589 
L 197.051748 211.055903 
L 200.187532 210.165772 
L 203.323316 209.164718 
L 206.4591 208.152501 
L 209.594884 207.216128 
L 212.730668 206.428405 
L 215.866453 205.847025 
L 219.002237 205.514162 
L 222.138021 205.456541 
L 225.273805 205.685953 
L 228.409589 224.174144 
L 231.545374 224.173037 
L 234.681158 210.729522 
L 237.816942 212.095929 
L 240.952726 213.484018 
L 244.08851 214.847559 
L 247.224294 216.143508 
L 250.360079 217.33373 
L 253.495863 218.38642 
L 256.631647 219.277201 
L 259.767431 219.989872 
L 262.903215 220.51679 
L 266.038999 220.858895 
L 269.174784 221.025381 
L 272.310568 221.033032 
L 275.446352 220.905261 
L 278.582136 220.670877 
L 281.71792 220.362646 
L 284.853705 220.015674 
L 287.989489 219.665699 
L 291.125273 219.347341 
L 294.261057 219.092381 
L 297.396841 218.928143 
L 300.532625 218.87605 
L 303.66841 218.950417 
L 306.804194 219.157554 
L 309.939978 219.495226 
L 313.075762 219.952539 
L 316.211546 220.51027 
L 319.34733 221.141681 
L 322.483115 221.813818 
L 325.618899 222.489286 
L 328.754683 223.128466 
L 331.890467 223.692112 
L 335.026251 224.144234 
L 338.162036 224.455148 
L 341.29782 224.604523 
L 344.433604 224.584231 
L 347.569388 224.400734 
L 350.705172 224.076724 
L 353.840956 223.651651 
L 356.976741 223.180725 
L 360.112525 222.731912 
L 363.248309 222.380382 
L 366.384093 222.199773 
L 369.519877 222.249579 
L 372.655661 222.557871 
L 375.791446 223.098459 
L 378.92723 223.761537 
L 382.063014 224.316715 
L 385.198798 224.367255 
" clip-path="url(#p5cfd889eb4)" style="fill: none; stroke: #1f77b4; stroke-width: 1.5; stroke-linecap: square"/>
   </g>
   <g id="line2d_15">
    <path d="M 74.756165 174.060852 
L 77.905519 243.103289 
L 81.054872 270.34729 
L 84.204226 268.857075 
L 87.35358 248.891789 
L 90.502934 218.354569 
L 93.652288 183.186994 
L 96.801641 147.713866 
L 99.950995 114.942995 
L 103.100349 86.824332 
L 106.249703 64.472474 
L 109.399056 48.356334 
L 112.54841 38.459442 
L 115.697764 34.414125 
L 118.847118 35.612543 
L 121.996472 41.297337 
L 125.145825 50.634419 
L 128.295179 62.77021 
L 131.444533 76.875449 
L 134.593887 92.177506 
L 137.743241 107.982919 
L 140.892594 123.691761 
L 144.041948 138.805232 
L 147.191302 152.927751 
L 150.340656 165.764678 
L 153.49001 177.116646 
L 156.639363 186.871397 
L 159.788717 194.993859 
L 162.938071 201.515136 
L 166.087425 206.520947 
L 169.236779 210.140001 
L 172.386132 212.53267 
L 175.535486 213.880288 
L 178.68484 214.375295 
L 181.834194 214.212428 
L 184.983548 213.581064 
L 188.132901 212.658793 
L 191.282255 211.606265 
L 194.431609 210.563288 
L 197.580963 209.646147 
L 200.730316 208.946083 
L 203.87967 208.528831 
L 207.029024 208.435125 
L 210.178378 208.682046 
L 213.327732 209.265073 
L 216.477085 210.160726 
L 219.626439 211.329633 
L 222.775793 212.719908 
L 225.925147 214.270695 
L 229.074501 224.173325 
L 232.223854 224.171941 
L 235.373208 222.121697 
L 238.522562 223.946942 
L 241.671916 225.457005 
L 244.82127 226.601772 
L 247.970623 227.34937 
L 251.119977 227.687164 
L 254.269331 227.621926 
L 257.418685 227.179185 
L 260.568039 226.401804 
L 263.717392 225.34782 
L 266.866746 224.087658 
L 270.0161 222.700795 
L 273.165454 221.272002 
L 276.314808 219.887315 
L 279.464161 218.629861 
L 282.613515 217.575717 
L 285.762869 216.78997 
L 288.912223 216.323134 
L 292.061576 216.208109 
L 295.21093 216.457839 
L 298.360284 217.06381 
L 301.509638 217.99554 
L 304.658992 219.201153 
L 307.808345 220.609132 
L 310.957699 222.131284 
L 314.107053 223.666925 
L 317.256407 225.108232 
L 320.405761 226.346647 
L 323.555114 227.280166 
L 326.704468 227.821243 
L 329.853822 227.904985 
L 333.003176 227.497188 
L 336.15253 226.601687 
L 339.301883 225.266346 
L 342.451237 223.586921 
L 345.600591 221.707865 
L 348.749945 219.819002 
L 351.899299 218.146849 
L 355.048652 216.939162 
L 358.198006 216.441128 
L 361.34736 216.861405 
L 364.496714 218.325995 
L 367.646068 220.817722 
L 370.795421 224.098846 
L 373.944775 227.614057 
L 377.094129 230.370864 
L 380.243483 230.794071 
L 383.392836 226.550756 
L 386.54219 214.34181 
" clip-path="url(#p5cfd889eb4)" style="fill: none; stroke: #ff7f0e; stroke-width: 1.5; stroke-linecap: square"/>
   </g>
   <g id="line2d_16">
    <path d="M 74.756165 184.725479 
L 77.675759 202.550064 
L 80.595353 214.353763 
L 83.514947 221.661779 
L 86.434541 225.702702 
L 89.354134 227.451786 
L 92.273728 227.669608 
L 95.193322 226.936464 
L 98.112916 225.682818 
L 101.03251 224.216112 
L 103.952104 222.744236 
L 106.871698 221.395937 
L 109.791292 220.238434 
L 112.710886 219.292484 
L 115.63048 218.545145 
L 118.550074 217.960461 
L 121.469668 217.488276 
L 124.389262 217.071381 
L 127.308856 216.651181 
L 130.22845 216.172056 
L 133.148044 215.58458 
L 136.067638 214.847754 
L 138.987232 213.93039 
L 141.906825 212.811774 
L 144.826419 211.481745 
L 147.746013 209.940276 
L 150.665607 208.196676 
L 153.585201 206.268501 
L 156.504795 204.18025 
L 159.424389 201.961927 
L 162.343983 199.647531 
L 165.263577 197.273529 
L 168.183171 194.877371 
L 171.102765 192.496074 
L 174.022359 190.164935 
L 176.941953 187.916366 
L 179.861547 185.778913 
L 182.781141 183.77645 
L 185.700735 181.927563 
L 188.620329 180.245138 
L 191.539923 178.736152 
L 194.459517 177.401656 
L 197.37911 176.236953 
L 200.298704 175.231953 
L 203.218298 174.371696 
L 206.137892 173.637019 
L 209.057486 173.005355 
L 211.97708 172.451635 
L 214.896674 171.949276 
L 217.816268 224.164026 
L 220.735862 224.163843 
L 223.655456 169.771155 
L 226.57505 169.055876 
L 229.494644 168.314316 
L 232.414238 167.537575 
L 235.333832 166.720259 
L 238.253426 165.861066 
L 241.17302 164.963283 
L 244.092614 164.035178 
L 247.012208 163.090285 
L 249.931801 162.147538 
L 252.851395 161.231252 
L 255.770989 160.370938 
L 258.690583 159.60093 
L 261.610177 158.959822 
L 264.529771 158.489702 
L 267.449365 158.235185 
L 270.368959 158.242251 
L 273.288553 158.556881 
L 276.208147 159.223522 
L 279.127741 160.283387 
L 282.047335 161.772618 
L 284.966929 163.72036 
L 287.886523 166.146764 
L 290.806117 169.060998 
L 293.725711 172.459308 
L 296.645305 176.323215 
L 299.564899 180.617926 
L 302.484492 185.29106 
L 305.404086 190.271799 
L 308.32368 195.470592 
L 311.243274 200.779553 
L 314.162868 206.073706 
L 317.082462 211.21326 
L 320.002056 216.047102 
L 322.92165 220.417725 
L 325.841244 224.167819 
L 328.760838 227.148789 
L 331.680432 229.231471 
L 334.600026 230.319356 
L 337.51962 230.364635 
L 340.439214 229.387443 
L 343.358808 227.498658 
L 346.278402 224.926684 
L 349.197996 222.048652 
L 352.11759 219.426509 
L 355.037183 217.848504 
L 357.956777 218.376614 
L 360.876371 222.400474 
L 363.795965 231.698438 
" clip-path="url(#p5cfd889eb4)" style="fill: none; stroke: #2ca02c; stroke-width: 1.5; stroke-linecap: square"/>
   </g>
   <g id="line2d_17">
    <path d="M 74.756165 166.378197 
L 78.035504 233.636872 
L 81.314842 267.404151 
L 84.594181 276.334125 
L 87.87352 267.588615 
L 91.152859 247.019967 
L 94.432198 219.338144 
L 97.711537 188.262979 
L 100.990876 156.66243 
L 104.270214 126.677657 
L 107.549553 99.835716 
L 110.828892 77.150648 
L 114.108231 59.213711 
L 117.38757 46.273495 
L 120.666909 38.306612 
L 123.946247 35.079655 
L 127.225586 36.203078 
L 130.504925 41.177639 
L 133.784264 49.434007 
L 137.063603 60.366121 
L 140.342942 73.358868 
L 143.62228 87.810609 
L 146.901619 103.151068 
L 150.180958 118.855068 
L 153.460297 134.452578 
L 156.739636 149.53551 
L 160.018975 163.761669 
L 163.298314 176.856259 
L 166.577652 188.611291 
L 169.856991 198.883256 
L 173.13633 207.58935 
L 176.415669 214.702567 
L 179.695008 220.245923 
L 182.974347 224.28605 
L 186.253685 226.926391 
L 189.533024 228.300199 
L 192.812363 228.563516 
L 196.091702 227.888296 
L 199.371041 226.45581 
L 202.65038 224.45045 
L 205.929718 222.054039 
L 209.209057 219.440717 
L 212.488396 216.77249 
L 215.767735 214.195456 
L 219.047074 211.836773 
L 222.326413 209.802361 
L 225.605752 208.175352 
L 228.88509 207.015264 
L 232.164429 206.35789 
L 235.443768 224.176841 
L 238.723107 224.175205 
L 242.002446 211.20577 
L 245.281785 212.601485 
L 248.561123 214.165539 
L 251.840462 215.828417 
L 255.119801 217.520432 
L 258.39914 219.174482 
L 261.678479 220.728544 
L 264.957818 222.127856 
L 268.237157 223.326732 
L 271.516495 224.289972 
L 274.795834 224.993842 
L 278.075173 225.426609 
L 281.354512 225.588617 
L 284.633851 225.491926 
L 287.91319 225.159524 
L 291.192528 224.624136 
L 294.471867 223.926684 
L 297.751206 223.114437 
L 301.030545 222.238911 
L 304.309884 221.353591 
L 307.589223 220.511546 
L 310.868561 219.763013 
L 314.1479 219.153046 
L 317.427239 218.719307 
L 320.706578 218.490083 
L 323.985917 218.482639 
L 327.265256 218.701963 
L 330.544595 219.14001 
L 333.823933 219.775496 
L 337.103272 220.574322 
L 340.382611 221.490676 
L 343.66195 222.468836 
L 346.941289 223.445712 
L 350.220628 224.354116 
L 353.499966 225.12673 
L 356.779305 225.700718 
L 360.058644 226.02291 
L 363.337983 226.055417 
L 366.617322 225.781537 
L 369.896661 225.211735 
L 373.175999 224.389466 
L 376.455338 223.396523 
L 379.734677 222.357572 
L 383.014016 221.443451 
L 386.293355 220.872749 
L 389.572694 220.911131 
L 392.852033 221.867765 
L 396.131371 224.088167 
L 399.41071 227.942658 
" clip-path="url(#p5cfd889eb4)" style="fill: none; stroke: #d62728; stroke-width: 1.5; stroke-linecap: square"/>
   </g>
   <g id="line2d_18">
    <path d="M 74.756165 171.216698 
L 77.282686 221.447675 
L 79.809207 246.851671 
L 82.335728 253.83226 
L 84.862249 247.679547 
L 87.388771 232.709618 
L 89.915292 212.391443 
L 92.441813 189.462011 
L 94.968334 166.030422 
L 97.494855 143.671644 
L 100.021376 123.510635 
L 102.547897 106.297473 
L 105.074419 92.47413 
L 107.60094 82.233507 
L 110.127461 75.571302 
L 112.653982 72.331276 
L 115.180503 72.244443 
L 117.707024 74.962704 
L 120.233546 80.087406 
L 122.760067 87.193279 
L 125.286588 95.848207 
L 127.813109 105.629236 
L 130.33963 116.135211 
L 132.866151 126.996432 
L 135.392672 137.881648 
L 137.919194 148.502749 
L 140.445715 158.617436 
L 142.972236 168.03018 
L 145.498757 176.591712 
L 148.025278 184.197312 
L 150.551799 190.784116 
L 153.078321 196.327643 
L 155.604842 200.837754 
L 158.131363 204.354187 
L 160.657884 206.941855 
L 163.184405 208.686021 
L 165.710926 209.687492 
L 168.237447 210.057929 
L 170.763969 209.915373 
L 173.29049 209.380061 
L 175.817011 208.570602 
L 178.343532 207.600561 
L 180.870053 206.5755 
L 183.396574 205.590486 
L 185.923095 204.728106 
L 188.449617 204.05698 
L 190.976138 203.630774 
L 193.502659 203.487699 
L 196.02918 203.650483 
L 198.555701 224.174149 
L 201.082222 224.173345 
L 203.608744 207.996912 
L 206.135265 209.374851 
L 208.661786 210.863019 
L 211.188307 212.416319 
L 213.714828 213.988687 
L 216.241349 215.534935 
L 218.76787 217.012467 
L 221.294392 218.38281 
L 223.820913 219.612921 
L 226.347434 220.676265 
L 228.873955 221.553607 
L 231.400476 222.233536 
L 233.926997 222.712684 
L 236.453519 222.995663 
L 238.98004 223.094703 
L 241.506561 223.029029 
L 244.033082 222.823975 
L 246.559603 222.509872 
L 249.086124 222.120748 
L 251.612645 221.692867 
L 254.139167 221.26316 
L 256.665688 220.867601 
L 259.192209 220.539564 
L 261.71873 220.308243 
L 264.245251 220.197169 
L 266.771772 220.2229 
L 269.298294 220.393944 
L 271.824815 220.709963 
L 274.351336 221.161332 
L 276.877857 221.729092 
L 279.404378 222.385359 
L 281.930899 223.094224 
L 284.45742 223.813185 
L 286.983942 224.495125 
L 289.510463 225.090875 
L 292.036984 225.552327 
L 294.563505 225.836117 
L 297.090026 225.907828 
L 299.616547 225.746662 
L 302.143069 225.350516 
L 304.66959 224.741361 
L 307.196111 223.970802 
L 309.722632 223.125664 
L 312.249153 222.33343 
L 314.775674 221.767304 
L 317.302195 221.650651 
L 319.828717 222.260513 
L 322.355238 223.929882 
L 324.881759 227.048326 
" clip-path="url(#p5cfd889eb4)" style="fill: none; stroke: #9467bd; stroke-width: 1.5; stroke-linecap: square"/>
   </g>
   <g id="line2d_19">
    <path d="M 74.756165 201.803925 
L 77.267297 218.245923 
L 79.778429 231.424509 
L 82.289561 239.984376 
L 84.800693 243.337422 
L 87.311826 241.470417 
L 89.822958 234.783785 
L 92.33409 223.958005 
L 94.845222 209.844441 
L 97.356354 193.377628 
L 99.867487 175.506286 
L 102.378619 157.140589 
L 104.889751 139.113391 
L 107.400883 122.153346 
L 109.912015 106.86805 
L 112.423147 93.735497 
L 114.93428 83.102331 
L 117.445412 75.187539 
L 119.956544 70.090366 
L 122.467676 67.801391 
L 124.978808 68.215827 
L 127.48994 71.148245 
L 130.001073 76.348005 
L 132.512205 83.514834 
L 135.023337 92.314037 
L 137.534469 102.390946 
L 140.045601 113.384302 
L 142.556733 124.938305 
L 145.067866 136.713169 
L 147.578998 148.394069 
L 150.09013 159.698406 
L 152.601262 170.38139 
L 155.112394 180.239959 
L 157.623527 189.115101 
L 160.134659 196.892683 
L 162.645791 203.502885 
L 165.156923 208.918405 
L 167.668055 213.151567 
L 170.179187 216.250516 
L 172.69032 218.294665 
L 175.201452 219.389577 
L 177.712584 219.661446 
L 180.223716 219.251375 
L 182.734848 218.309594 
L 185.24598 216.98979 
L 187.757113 215.443694 
L 190.268245 213.816054 
L 192.779377 212.240115 
L 195.290509 210.833712 
L 197.801641 224.175737 
L 200.312774 224.175594 
L 202.823906 209.992737 
L 205.335038 209.913341 
L 207.84617 210.204161 
L 210.357302 210.860379 
L 212.868434 211.859034 
L 215.379567 213.160726 
L 217.890699 214.711832 
L 220.401831 216.447181 
L 222.912963 218.293082 
L 225.424095 220.170633 
L 227.935227 221.999207 
L 230.44636 223.700003 
L 232.957492 225.19955 
L 235.468624 226.433055 
L 237.979756 227.347475 
L 240.490888 227.904192 
L 243.00202 228.081192 
L 245.513153 227.874639 
L 248.024285 227.299743 
L 250.535417 226.390866 
L 253.046549 225.200765 
L 255.557681 223.798973 
L 258.068814 222.269264 
L 260.579946 220.706227 
L 263.091078 219.210998 
L 265.60221 217.886211 
L 268.113342 216.830303 
L 270.624474 216.131334 
L 273.135607 215.860541 
L 275.646739 216.065892 
L 278.157871 216.765992 
L 280.669003 217.944724 
L 283.180135 219.547115 
L 285.691267 221.476973 
L 288.2024 223.596938 
L 290.713532 225.731667 
L 293.224664 227.675002 
L 295.735796 229.202028 
L 298.246928 230.087078 
L 300.758061 230.128849 
L 303.269193 229.183902 
L 305.780325 227.209981 
L 308.291457 224.320703 
L 310.802589 220.85333 
L 313.313721 217.45149 
L 315.824854 215.164871 
L 318.335986 215.568106 
L 320.847118 220.901212 
L 323.35825 234.234183 
" clip-path="url(#p5cfd889eb4)" style="fill: none; stroke: #8c564b; stroke-width: 1.5; stroke-linecap: square"/>
   </g>
   <g id="patch_3">
    <path d="M 58.523438 288.430125 
L 58.523438 22.318125 
" style="fill: none; stroke: #000000; stroke-width: 0.8; stroke-linejoin: miter; stroke-linecap: square"/>
   </g>
   <g id="patch_4">
    <path d="M 415.643438 288.430125 
L 415.643438 22.318125 
" style="fill: none; stroke: #000000; stroke-width: 0.8; stroke-linejoin: miter; stroke-linecap: square"/>
   </g>
   <g id="patch_5">
    <path d="M 58.523438 288.430125 
L 415.643438 288.430125 
" style="fill: none; stroke: #000000; stroke-width: 0.8; stroke-linejoin: miter; stroke-linecap: square"/>
   </g>
   <g id="patch_6">
    <path d="M 58.523438 22.318125 
L 415.643438 22.318125 
" style="fill: none; stroke: #000000; stroke-width: 0.8; stroke-linejoin: miter; stroke-linecap: square"/>
   </g>
   <g id="text_16">
    <!-- RD - xtract_prob_Superior_Longitudinal_Fasciculus_3_L -->
    <g transform="translate(73.119375 16.318125) scale(0.12 -0.12)">
     <defs>
      <path id="DejaVuSans-52" d="M 2841 2188 
Q 3044 2119 3236 1894 
Q 3428 1669 3622 1275 
L 4263 0 
L 3584 0 
L 2988 1197 
Q 2756 1666 2539 1819 
Q 2322 1972 1947 1972 
L 1259 1972 
L 1259 0 
L 628 0 
L 628 4666 
L 2053 4666 
Q 2853 4666 3247 4331 
Q 3641 3997 3641 3322 
Q 3641 2881 3436 2590 
Q 3231 2300 2841 2188 
z
M 1259 4147 
L 1259 2491 
L 2053 2491 
Q 2509 2491 2742 2702 
Q 2975 2913 2975 3322 
Q 2975 3731 2742 3939 
Q 2509 4147 2053 4147 
L 1259 4147 
z
" transform="scale(0.015625)"/>
      <path id="DejaVuSans-44" d="M 1259 4147 
L 1259 519 
L 2022 519 
Q 2988 519 3436 956 
Q 3884 1394 3884 2338 
Q 3884 3275 3436 3711 
Q 2988 4147 2022 4147 
L 1259 4147 
z
M 628 4666 
L 1925 4666 
Q 3281 4666 3915 4102 
Q 4550 3538 4550 2338 
Q 4550 1131 3912 565 
Q 3275 0 1925 0 
L 628 0 
L 628 4666 
z
" transform="scale(0.015625)"/>
      <path id="DejaVuSans-2d" d="M 313 2009 
L 1997 2009 
L 1997 1497 
L 313 1497 
L 313 2009 
z
" transform="scale(0.015625)"/>
      <path id="DejaVuSans-74" d="M 1172 4494 
L 1172 3500 
L 2356 3500 
L 2356 3053 
L 1172 3053 
L 1172 1153 
Q 1172 725 1289 603 
Q 1406 481 1766 481 
L 2356 481 
L 2356 0 
L 1766 0 
Q 1100 0 847 248 
Q 594 497 594 1153 
L 594 3053 
L 172 3053 
L 172 3500 
L 594 3500 
L 594 4494 
L 1172 4494 
z
" transform="scale(0.015625)"/>
      <path id="DejaVuSans-5f" d="M 3263 -1063 
L 3263 -1509 
L -63 -1509 
L -63 -1063 
L 3263 -1063 
z
" transform="scale(0.015625)"/>
      <path id="DejaVuSans-70" d="M 1159 525 
L 1159 -1331 
L 581 -1331 
L 581 3500 
L 1159 3500 
L 1159 2969 
Q 1341 3281 1617 3432 
Q 1894 3584 2278 3584 
Q 2916 3584 3314 3078 
Q 3713 2572 3713 1747 
Q 3713 922 3314 415 
Q 2916 -91 2278 -91 
Q 1894 -91 1617 61 
Q 1341 213 1159 525 
z
M 3116 1747 
Q 3116 2381 2855 2742 
Q 2594 3103 2138 3103 
Q 1681 3103 1420 2742 
Q 1159 2381 1159 1747 
Q 1159 1113 1420 752 
Q 1681 391 2138 391 
Q 2594 391 2855 752 
Q 3116 1113 3116 1747 
z
" transform="scale(0.015625)"/>
      <path id="DejaVuSans-6f" d="M 1959 3097 
Q 1497 3097 1228 2736 
Q 959 2375 959 1747 
Q 959 1119 1226 758 
Q 1494 397 1959 397 
Q 2419 397 2687 759 
Q 2956 1122 2956 1747 
Q 2956 2369 2687 2733 
Q 2419 3097 1959 3097 
z
M 1959 3584 
Q 2709 3584 3137 3096 
Q 3566 2609 3566 1747 
Q 3566 888 3137 398 
Q 2709 -91 1959 -91 
Q 1206 -91 779 398 
Q 353 888 353 1747 
Q 353 2609 779 3096 
Q 1206 3584 1959 3584 
z
" transform="scale(0.015625)"/>
      <path id="DejaVuSans-62" d="M 3116 1747 
Q 3116 2381 2855 2742 
Q 2594 3103 2138 3103 
Q 1681 3103 1420 2742 
Q 1159 2381 1159 1747 
Q 1159 1113 1420 752 
Q 1681 391 2138 391 
Q 2594 391 2855 752 
Q 3116 1113 3116 1747 
z
M 1159 2969 
Q 1341 3281 1617 3432 
Q 1894 3584 2278 3584 
Q 2916 3584 3314 3078 
Q 3713 2572 3713 1747 
Q 3713 922 3314 415 
Q 2916 -91 2278 -91 
Q 1894 -91 1617 61 
Q 1341 213 1159 525 
L 1159 0 
L 581 0 
L 581 4863 
L 1159 4863 
L 1159 2969 
z
" transform="scale(0.015625)"/>
      <path id="DejaVuSans-53" d="M 3425 4513 
L 3425 3897 
Q 3066 4069 2747 4153 
Q 2428 4238 2131 4238 
Q 1616 4238 1336 4038 
Q 1056 3838 1056 3469 
Q 1056 3159 1242 3001 
Q 1428 2844 1947 2747 
L 2328 2669 
Q 3034 2534 3370 2195 
Q 3706 1856 3706 1288 
Q 3706 609 3251 259 
Q 2797 -91 1919 -91 
Q 1588 -91 1214 -16 
Q 841 59 441 206 
L 441 856 
Q 825 641 1194 531 
Q 1563 422 1919 422 
Q 2459 422 2753 634 
Q 3047 847 3047 1241 
Q 3047 1584 2836 1778 
Q 2625 1972 2144 2069 
L 1759 2144 
Q 1053 2284 737 2584 
Q 422 2884 422 3419 
Q 422 4038 858 4394 
Q 1294 4750 2059 4750 
Q 2388 4750 2728 4690 
Q 3069 4631 3425 4513 
z
" transform="scale(0.015625)"/>
      <path id="DejaVuSans-4c" d="M 628 4666 
L 1259 4666 
L 1259 531 
L 3531 531 
L 3531 0 
L 628 0 
L 628 4666 
z
" transform="scale(0.015625)"/>
      <path id="DejaVuSans-67" d="M 2906 1791 
Q 2906 2416 2648 2759 
Q 2391 3103 1925 3103 
Q 1463 3103 1205 2759 
Q 947 2416 947 1791 
Q 947 1169 1205 825 
Q 1463 481 1925 481 
Q 2391 481 2648 825 
Q 2906 1169 2906 1791 
z
M 3481 434 
Q 3481 -459 3084 -895 
Q 2688 -1331 1869 -1331 
Q 1566 -1331 1297 -1286 
Q 1028 -1241 775 -1147 
L 775 -588 
Q 1028 -725 1275 -790 
Q 1522 -856 1778 -856 
Q 2344 -856 2625 -561 
Q 2906 -266 2906 331 
L 2906 616 
Q 2728 306 2450 153 
Q 2172 0 1784 0 
Q 1141 0 747 490 
Q 353 981 353 1791 
Q 353 2603 747 3093 
Q 1141 3584 1784 3584 
Q 2172 3584 2450 3431 
Q 2728 3278 2906 2969 
L 2906 3500 
L 3481 3500 
L 3481 434 
z
" transform="scale(0.015625)"/>
      <path id="DejaVuSans-64" d="M 2906 2969 
L 2906 4863 
L 3481 4863 
L 3481 0 
L 2906 0 
L 2906 525 
Q 2725 213 2448 61 
Q 2172 -91 1784 -91 
Q 1150 -91 751 415 
Q 353 922 353 1747 
Q 353 2572 751 3078 
Q 1150 3584 1784 3584 
Q 2172 3584 2448 3432 
Q 2725 3281 2906 2969 
z
M 947 1747 
Q 947 1113 1208 752 
Q 1469 391 1925 391 
Q 2381 391 2643 752 
Q 2906 1113 2906 1747 
Q 2906 2381 2643 2742 
Q 2381 3103 1925 3103 
Q 1469 3103 1208 2742 
Q 947 2381 947 1747 
z
" transform="scale(0.015625)"/>
      <path id="DejaVuSans-33" d="M 2597 2516 
Q 3050 2419 3304 2112 
Q 3559 1806 3559 1356 
Q 3559 666 3084 287 
Q 2609 -91 1734 -91 
Q 1441 -91 1130 -33 
Q 819 25 488 141 
L 488 750 
Q 750 597 1062 519 
Q 1375 441 1716 441 
Q 2309 441 2620 675 
Q 2931 909 2931 1356 
Q 2931 1769 2642 2001 
Q 2353 2234 1838 2234 
L 1294 2234 
L 1294 2753 
L 1863 2753 
Q 2328 2753 2575 2939 
Q 2822 3125 2822 3475 
Q 2822 3834 2567 4026 
Q 2313 4219 1838 4219 
Q 1578 4219 1281 4162 
Q 984 4106 628 3988 
L 628 4550 
Q 988 4650 1302 4700 
Q 1616 4750 1894 4750 
Q 2613 4750 3031 4423 
Q 3450 4097 3450 3541 
Q 3450 3153 3228 2886 
Q 3006 2619 2597 2516 
z
" transform="scale(0.015625)"/>
     </defs>
     <use xlink:href="#DejaVuSans-52"/>
     <use xlink:href="#DejaVuSans-44" x="69.482422"/>
     <use xlink:href="#DejaVuSans-20" x="146.484375"/>
     <use xlink:href="#DejaVuSans-2d" x="178.271484"/>
     <use xlink:href="#DejaVuSans-20" x="214.355469"/>
     <use xlink:href="#DejaVuSans-78" x="246.142578"/>
     <use xlink:href="#DejaVuSans-74" x="305.322266"/>
     <use xlink:href="#DejaVuSans-72" x="344.53125"/>
     <use xlink:href="#DejaVuSans-61" x="385.644531"/>
     <use xlink:href="#DejaVuSans-63" x="446.923828"/>
     <use xlink:href="#DejaVuSans-74" x="501.904297"/>
     <use xlink:href="#DejaVuSans-5f" x="541.113281"/>
     <use xlink:href="#DejaVuSans-70" x="591.113281"/>
     <use xlink:href="#DejaVuSans-72" x="654.589844"/>
     <use xlink:href="#DejaVuSans-6f" x="693.453125"/>
     <use xlink:href="#DejaVuSans-62" x="754.634766"/>
     <use xlink:href="#DejaVuSans-5f" x="818.111328"/>
     <use xlink:href="#DejaVuSans-53" x="868.111328"/>
     <use xlink:href="#DejaVuSans-75" x="931.587891"/>
     <use xlink:href="#DejaVuSans-70" x="994.966797"/>
     <use xlink:href="#DejaVuSans-65" x="1058.443359"/>
     <use xlink:href="#DejaVuSans-72" x="1119.966797"/>
     <use xlink:href="#DejaVuSans-69" x="1161.080078"/>
     <use xlink:href="#DejaVuSans-6f" x="1188.863281"/>
     <use xlink:href="#DejaVuSans-72" x="1250.044922"/>
     <use xlink:href="#DejaVuSans-5f" x="1291.158203"/>
     <use xlink:href="#DejaVuSans-4c" x="1341.158203"/>
     <use xlink:href="#DejaVuSans-6f" x="1395.121094"/>
     <use xlink:href="#DejaVuSans-6e" x="1456.302734"/>
     <use xlink:href="#DejaVuSans-67" x="1519.681641"/>
     <use xlink:href="#DejaVuSans-69" x="1583.158203"/>
     <use xlink:href="#DejaVuSans-74" x="1610.941406"/>
     <use xlink:href="#DejaVuSans-75" x="1650.150391"/>
     <use xlink:href="#DejaVuSans-64" x="1713.529297"/>
     <use xlink:href="#DejaVuSans-69" x="1777.005859"/>
     <use xlink:href="#DejaVuSans-6e" x="1804.789062"/>
     <use xlink:href="#DejaVuSans-61" x="1868.167969"/>
     <use xlink:href="#DejaVuSans-6c" x="1929.447266"/>
     <use xlink:href="#DejaVuSans-5f" x="1957.230469"/>
     <use xlink:href="#DejaVuSans-46" x="2007.230469"/>
     <use xlink:href="#DejaVuSans-61" x="2055.625"/>
     <use xlink:href="#DejaVuSans-73" x="2116.904297"/>
     <use xlink:href="#DejaVuSans-63" x="2169.003906"/>
     <use xlink:href="#DejaVuSans-69" x="2223.984375"/>
     <use xlink:href="#DejaVuSans-63" x="2251.767578"/>
     <use xlink:href="#DejaVuSans-75" x="2306.748047"/>
     <use xlink:href="#DejaVuSans-6c" x="2370.126953"/>
     <use xlink:href="#DejaVuSans-75" x="2397.910156"/>
     <use xlink:href="#DejaVuSans-73" x="2461.289062"/>
     <use xlink:href="#DejaVuSans-5f" x="2513.388672"/>
     <use xlink:href="#DejaVuSans-33" x="2563.388672"/>
     <use xlink:href="#DejaVuSans-5f" x="2627.011719"/>
     <use xlink:href="#DejaVuSans-4c" x="2677.011719"/>
    </g>
   </g>
   <g id="legend_1">
    <g id="patch_7">
     <path d="M 458.355438 146.666825 
L 556.211688 146.666825 
Q 558.211688 146.666825 558.211688 144.666825 
L 558.211688 55.929325 
Q 558.211688 53.929325 556.211688 53.929325 
L 458.355438 53.929325 
Q 456.355438 53.929325 456.355438 55.929325 
L 456.355438 144.666825 
Q 456.355438 146.666825 458.355438 146.666825 
z
" style="fill: #ffffff; opacity: 0.8; stroke: #cccccc; stroke-linejoin: miter"/>
    </g>
    <g id="line2d_20">
     <path d="M 460.355438 62.027762 
L 470.355438 62.027762 
L 480.355438 62.027762 
" style="fill: none; stroke: #1f77b4; stroke-width: 1.5; stroke-linecap: square"/>
    </g>
    <g id="text_17">
     <!-- 20_06_02_E3 -->
     <g transform="translate(488.355438 65.527762) scale(0.1 -0.1)">
      <defs>
       <path id="DejaVuSans-45" d="M 628 4666 
L 3578 4666 
L 3578 4134 
L 1259 4134 
L 1259 2753 
L 3481 2753 
L 3481 2222 
L 1259 2222 
L 1259 531 
L 3634 531 
L 3634 0 
L 628 0 
L 628 4666 
z
" transform="scale(0.015625)"/>
      </defs>
      <use xlink:href="#DejaVuSans-32"/>
      <use xlink:href="#DejaVuSans-30" x="63.623047"/>
      <use xlink:href="#DejaVuSans-5f" x="127.246094"/>
      <use xlink:href="#DejaVuSans-30" x="177.246094"/>
      <use xlink:href="#DejaVuSans-36" x="240.869141"/>
      <use xlink:href="#DejaVuSans-5f" x="304.492188"/>
      <use xlink:href="#DejaVuSans-30" x="354.492188"/>
      <use xlink:href="#DejaVuSans-32" x="418.115234"/>
      <use xlink:href="#DejaVuSans-5f" x="481.738281"/>
      <use xlink:href="#DejaVuSans-45" x="531.738281"/>
      <use xlink:href="#DejaVuSans-33" x="594.921875"/>
     </g>
    </g>
    <g id="line2d_21">
     <path d="M 460.355438 76.984013 
L 470.355438 76.984013 
L 480.355438 76.984013 
" style="fill: none; stroke: #ff7f0e; stroke-width: 1.5; stroke-linecap: square"/>
    </g>
    <g id="text_18">
     <!-- 20_05_01_E3 -->
     <g transform="translate(488.355438 80.484013) scale(0.1 -0.1)">
      <use xlink:href="#DejaVuSans-32"/>
      <use xlink:href="#DejaVuSans-30" x="63.623047"/>
      <use xlink:href="#DejaVuSans-5f" x="127.246094"/>
      <use xlink:href="#DejaVuSans-30" x="177.246094"/>
      <use xlink:href="#DejaVuSans-35" x="240.869141"/>
      <use xlink:href="#DejaVuSans-5f" x="304.492188"/>
      <use xlink:href="#DejaVuSans-30" x="354.492188"/>
      <use xlink:href="#DejaVuSans-31" x="418.115234"/>
      <use xlink:href="#DejaVuSans-5f" x="481.738281"/>
      <use xlink:href="#DejaVuSans-45" x="531.738281"/>
      <use xlink:href="#DejaVuSans-33" x="594.921875"/>
     </g>
    </g>
    <g id="line2d_22">
     <path d="M 460.355438 91.940262 
L 470.355438 91.940262 
L 480.355438 91.940262 
" style="fill: none; stroke: #2ca02c; stroke-width: 1.5; stroke-linecap: square"/>
    </g>
    <g id="text_19">
     <!-- 20_02_02_E3 -->
     <g transform="translate(488.355438 95.440262) scale(0.1 -0.1)">
      <use xlink:href="#DejaVuSans-32"/>
      <use xlink:href="#DejaVuSans-30" x="63.623047"/>
      <use xlink:href="#DejaVuSans-5f" x="127.246094"/>
      <use xlink:href="#DejaVuSans-30" x="177.246094"/>
      <use xlink:href="#DejaVuSans-32" x="240.869141"/>
      <use xlink:href="#DejaVuSans-5f" x="304.492188"/>
      <use xlink:href="#DejaVuSans-30" x="354.492188"/>
      <use xlink:href="#DejaVuSans-32" x="418.115234"/>
      <use xlink:href="#DejaVuSans-5f" x="481.738281"/>
      <use xlink:href="#DejaVuSans-45" x="531.738281"/>
      <use xlink:href="#DejaVuSans-33" x="594.921875"/>
     </g>
    </g>
    <g id="line2d_23">
     <path d="M 460.355438 106.896513 
L 470.355438 106.896513 
L 480.355438 106.896513 
" style="fill: none; stroke: #d62728; stroke-width: 1.5; stroke-linecap: square"/>
    </g>
    <g id="text_20">
     <!-- 20_10_02_E3 -->
     <g transform="translate(488.355438 110.396513) scale(0.1 -0.1)">
      <use xlink:href="#DejaVuSans-32"/>
      <use xlink:href="#DejaVuSans-30" x="63.623047"/>
      <use xlink:href="#DejaVuSans-5f" x="127.246094"/>
      <use xlink:href="#DejaVuSans-31" x="177.246094"/>
      <use xlink:href="#DejaVuSans-30" x="240.869141"/>
      <use xlink:href="#DejaVuSans-5f" x="304.492188"/>
      <use xlink:href="#DejaVuSans-30" x="354.492188"/>
      <use xlink:href="#DejaVuSans-32" x="418.115234"/>
      <use xlink:href="#DejaVuSans-5f" x="481.738281"/>
      <use xlink:href="#DejaVuSans-45" x="531.738281"/>
      <use xlink:href="#DejaVuSans-33" x="594.921875"/>
     </g>
    </g>
    <g id="line2d_24">
     <path d="M 460.355438 121.852762 
L 470.355438 121.852762 
L 480.355438 121.852762 
" style="fill: none; stroke: #9467bd; stroke-width: 1.5; stroke-linecap: square"/>
    </g>
    <g id="text_21">
     <!-- 20_08_02_E3 -->
     <g transform="translate(488.355438 125.352762) scale(0.1 -0.1)">
      <defs>
       <path id="DejaVuSans-38" d="M 2034 2216 
Q 1584 2216 1326 1975 
Q 1069 1734 1069 1313 
Q 1069 891 1326 650 
Q 1584 409 2034 409 
Q 2484 409 2743 651 
Q 3003 894 3003 1313 
Q 3003 1734 2745 1975 
Q 2488 2216 2034 2216 
z
M 1403 2484 
Q 997 2584 770 2862 
Q 544 3141 544 3541 
Q 544 4100 942 4425 
Q 1341 4750 2034 4750 
Q 2731 4750 3128 4425 
Q 3525 4100 3525 3541 
Q 3525 3141 3298 2862 
Q 3072 2584 2669 2484 
Q 3125 2378 3379 2068 
Q 3634 1759 3634 1313 
Q 3634 634 3220 271 
Q 2806 -91 2034 -91 
Q 1263 -91 848 271 
Q 434 634 434 1313 
Q 434 1759 690 2068 
Q 947 2378 1403 2484 
z
M 1172 3481 
Q 1172 3119 1398 2916 
Q 1625 2713 2034 2713 
Q 2441 2713 2670 2916 
Q 2900 3119 2900 3481 
Q 2900 3844 2670 4047 
Q 2441 4250 2034 4250 
Q 1625 4250 1398 4047 
Q 1172 3844 1172 3481 
z
" transform="scale(0.015625)"/>
      </defs>
      <use xlink:href="#DejaVuSans-32"/>
      <use xlink:href="#DejaVuSans-30" x="63.623047"/>
      <use xlink:href="#DejaVuSans-5f" x="127.246094"/>
      <use xlink:href="#DejaVuSans-30" x="177.246094"/>
      <use xlink:href="#DejaVuSans-38" x="240.869141"/>
      <use xlink:href="#DejaVuSans-5f" x="304.492188"/>
      <use xlink:href="#DejaVuSans-30" x="354.492188"/>
      <use xlink:href="#DejaVuSans-32" x="418.115234"/>
      <use xlink:href="#DejaVuSans-5f" x="481.738281"/>
      <use xlink:href="#DejaVuSans-45" x="531.738281"/>
      <use xlink:href="#DejaVuSans-33" x="594.921875"/>
     </g>
    </g>
    <g id="line2d_25">
     <path d="M 460.355438 136.809012 
L 470.355438 136.809012 
L 480.355438 136.809012 
" style="fill: none; stroke: #8c564b; stroke-width: 1.5; stroke-linecap: square"/>
    </g>
    <g id="text_22">
     <!-- 20_11_02_E3 -->
     <g transform="translate(488.355438 140.309012) scale(0.1 -0.1)">
      <use xlink:href="#DejaVuSans-32"/>
      <use xlink:href="#DejaVuSans-30" x="63.623047"/>
      <use xlink:href="#DejaVuSans-5f" x="127.246094"/>
      <use xlink:href="#DejaVuSans-31" x="177.246094"/>
      <use xlink:href="#DejaVuSans-31" x="240.869141"/>
      <use xlink:href="#DejaVuSans-5f" x="304.492188"/>
      <use xlink:href="#DejaVuSans-30" x="354.492188"/>
      <use xlink:href="#DejaVuSans-32" x="418.115234"/>
      <use xlink:href="#DejaVuSans-5f" x="481.738281"/>
      <use xlink:href="#DejaVuSans-45" x="531.738281"/>
      <use xlink:href="#DejaVuSans-33" x="594.921875"/>
     </g>
    </g>
   </g>
  </g>
 </g>
 <defs>
  <clipPath id="p5cfd889eb4">
   <rect x="58.523438" y="22.318125" width="357.12" height="266.112"/>
  </clipPath>
 </defs>
</svg>
