<?xml version="1.0" encoding="utf-8" standalone="no"?>
<!DOCTYPE svg PUBLIC "-//W3C//DTD SVG 1.1//EN"
  "http://www.w3.org/Graphics/SVG/1.1/DTD/svg11.dtd">
<svg xmlns:xlink="http://www.w3.org/1999/xlink" width="565.411687pt" height="325.986375pt" viewBox="0 0 565.411687 325.986375" xmlns="http://www.w3.org/2000/svg" version="1.1">
 <metadata>
  <rdf:RDF xmlns:dc="http://purl.org/dc/elements/1.1/" xmlns:cc="http://creativecommons.org/ns#" xmlns:rdf="http://www.w3.org/1999/02/22-rdf-syntax-ns#">
   <cc:Work>
    <dc:type rdf:resource="http://purl.org/dc/dcmitype/StillImage"/>
    <dc:date>2023-02-07T23:00:05.887224</dc:date>
    <dc:format>image/svg+xml</dc:format>
    <dc:creator>
     <cc:Agent>
      <dc:title>Matplotlib v3.6.2, https://matplotlib.org/</dc:title>
     </cc:Agent>
    </dc:creator>
   </cc:Work>
  </rdf:RDF>
 </metadata>
 <defs>
  <style type="text/css">*{stroke-linejoin: round; stroke-linecap: butt}</style>
 </defs>
 <g id="figure_1">
  <g id="patch_1">
   <path d="M 0 325.986375 
L 565.411687 325.986375 
L 565.411687 0 
L 0 0 
z
" style="fill: #ffffff"/>
  </g>
  <g id="axes_1">
   <g id="patch_2">
    <path d="M 58.523438 288.430125 
L 415.643438 288.430125 
L 415.643438 22.318125 
L 58.523438 22.318125 
z
" style="fill: #ffffff"/>
   </g>
   <g id="PolyCollection_1">
    <path d="M 74.756165 275.617667 
L 74.756165 240.823135 
L 78.035504 240.823135 
L 81.314842 240.823135 
L 84.594181 240.823135 
L 87.87352 240.823135 
L 91.152859 240.823135 
L 94.432198 240.823135 
L 97.711537 240.823135 
L 100.990876 240.823135 
L 104.270214 240.823135 
L 107.549553 240.823135 
L 110.828892 240.823135 
L 114.108231 240.823135 
L 117.38757 240.823135 
L 120.666909 240.823135 
L 123.946247 240.823135 
L 127.225586 240.823135 
L 130.504925 240.823135 
L 133.784264 240.823135 
L 137.063603 240.823135 
L 140.342942 240.823135 
L 143.62228 240.823135 
L 146.901619 240.823135 
L 150.180958 240.823135 
L 153.460297 240.823135 
L 156.739636 240.823135 
L 160.018975 240.823135 
L 163.298314 240.823135 
L 166.577652 240.823135 
L 169.856991 240.823135 
L 173.13633 240.823135 
L 176.415669 240.823135 
L 179.695008 240.823135 
L 182.974347 240.823135 
L 186.253685 240.823135 
L 189.533024 240.823135 
L 192.812363 240.823135 
L 196.091702 240.823135 
L 199.371041 240.823135 
L 202.65038 240.823135 
L 205.929718 240.823135 
L 209.209057 240.823135 
L 212.488396 240.823135 
L 215.767735 240.823135 
L 219.047074 240.823135 
L 222.326413 240.823135 
L 225.605752 240.823135 
L 228.88509 240.823135 
L 232.164429 240.823135 
L 235.443768 240.823135 
L 238.723107 240.823135 
L 242.002446 240.823135 
L 245.281785 240.823135 
L 248.561123 240.823135 
L 251.840462 240.823135 
L 255.119801 240.823135 
L 258.39914 240.823135 
L 261.678479 240.823135 
L 264.957818 240.823135 
L 268.237157 240.823135 
L 271.516495 240.823135 
L 274.795834 240.823135 
L 278.075173 240.823135 
L 281.354512 240.823135 
L 284.633851 240.823135 
L 287.91319 240.823135 
L 291.192528 240.823135 
L 294.471867 240.823135 
L 297.751206 240.823135 
L 301.030545 240.823135 
L 304.309884 240.823135 
L 307.589223 240.823135 
L 310.868561 240.823135 
L 314.1479 240.823135 
L 317.427239 240.823135 
L 320.706578 240.823135 
L 323.985917 240.823135 
L 327.265256 240.823135 
L 330.544595 240.823135 
L 333.823933 240.823135 
L 337.103272 240.823135 
L 340.382611 240.823135 
L 343.66195 240.823135 
L 346.941289 240.823135 
L 350.220628 240.823135 
L 353.499966 240.823135 
L 356.779305 240.823135 
L 360.058644 240.823135 
L 363.337983 240.823135 
L 366.617322 240.823135 
L 369.896661 240.823135 
L 373.175999 240.823135 
L 376.455338 240.823135 
L 379.734677 240.823135 
L 383.014016 240.823135 
L 386.293355 240.823135 
L 389.572694 240.823135 
L 392.852033 240.823135 
L 396.131371 240.823135 
L 399.41071 240.823135 
L 399.41071 220.358449 
L 399.41071 220.358449 
L 396.131371 245.077202 
L 392.852033 255.096173 
L 389.572694 256.038048 
L 386.293355 252.002225 
L 383.014016 245.868765 
L 379.734677 239.557311 
L 376.455338 234.245821 
L 373.175999 230.553642 
L 369.896661 228.693092 
L 366.617322 228.593348 
L 363.337983 230.000185 
L 360.058644 232.554744 
L 356.779305 235.854273 
L 353.499966 239.497477 
L 350.220628 243.116894 
L 346.941289 246.400447 
L 343.66195 249.104099 
L 340.382611 251.057355 
L 337.103272 252.163117 
L 333.823933 252.393231 
L 330.544595 251.780912 
L 327.265256 250.41104 
L 323.985917 248.409182 
L 320.706578 245.930083 
L 317.427239 243.146211 
L 314.1479 240.236834 
L 310.868561 237.378029 
L 307.589223 234.733891 
L 304.309884 232.449153 
L 301.030545 230.643337 
L 297.751206 229.406505 
L 294.471867 228.796598 
L 291.192528 228.838333 
L 287.91319 229.523548 
L 284.633851 230.812883 
L 281.354512 232.638639 
L 278.075173 234.908635 
L 274.795834 237.510881 
L 271.516495 240.31885 
L 268.237157 243.197157 
L 264.957818 246.007432 
L 261.678479 248.614186 
L 258.39914 250.890468 
L 255.119801 252.723153 
L 251.840462 254.017665 
L 248.561123 254.702021 
L 245.281785 254.73004 
L 242.002446 254.083639 
L 238.723107 240.818449 
L 235.443768 240.817496 
L 232.164429 251.269307 
L 228.88509 247.760269 
L 225.605752 243.783481 
L 222.326413 239.513022 
L 219.047074 235.143661 
L 215.767735 230.883573 
L 212.488396 226.946183 
L 209.209057 223.541377 
L 205.929718 220.866327 
L 202.65038 219.096198 
L 199.371041 218.37505 
L 196.091702 218.807235 
L 192.812363 220.449613 
L 189.533024 223.304913 
L 186.253685 227.316562 
L 182.974347 232.365284 
L 179.695008 238.26776 
L 176.415669 244.777621 
L 173.13633 251.588973 
L 169.856991 258.342662 
L 166.577652 264.635365 
L 163.298314 270.031579 
L 160.018975 274.078462 
L 156.739636 276.323409 
L 153.460297 276.334125 
L 150.180958 273.720851 
L 146.901619 268.160249 
L 143.62228 259.420329 
L 140.342942 247.385597 
L 137.063603 232.081484 
L 133.784264 213.696842 
L 130.504925 192.603165 
L 127.225586 169.368889 
L 123.946247 144.76692 
L 120.666909 119.773264 
L 117.38757 95.554331 
L 114.108231 73.440189 
L 110.828892 54.880725 
L 107.549553 41.381298 
L 104.270214 34.414125 
L 100.990876 35.301216 
L 97.711537 45.064298 
L 94.432198 64.23669 
L 91.152859 92.631652 
L 87.87352 129.061226 
L 84.594181 170.999089 
L 81.314842 214.180385 
L 78.035504 252.13094 
L 74.756165 275.617667 
z
" clip-path="url(#p962b160c8c)" style="fill: #1f77b4; fill-opacity: 0.166667"/>
   </g>
   <g id="PolyCollection_2">
    <path d="M 74.756165 223.98322 
L 74.756165 240.823135 
L 75.694139 240.823135 
L 76.632113 240.823135 
L 77.570087 240.823135 
L 78.508062 240.823135 
L 79.446036 240.823135 
L 80.38401 240.823135 
L 81.321984 240.823135 
L 82.259958 240.823135 
L 83.197933 240.823135 
L 84.135907 240.823135 
L 85.073881 240.823135 
L 86.011855 240.823135 
L 86.949829 240.823135 
L 87.887804 240.823135 
L 88.825778 240.823135 
L 89.763752 240.823135 
L 90.701726 240.823135 
L 91.639701 240.823135 
L 92.577675 240.823135 
L 93.515649 240.823135 
L 94.453623 240.823135 
L 95.391597 240.823135 
L 96.329572 240.823135 
L 97.267546 240.823135 
L 98.20552 240.823135 
L 99.143494 240.823135 
L 100.081468 240.823135 
L 101.019443 240.823135 
L 101.957417 240.823135 
L 102.895391 240.823135 
L 103.833365 240.823135 
L 104.771339 240.823135 
L 105.709314 240.823135 
L 106.647288 240.823135 
L 107.585262 240.823135 
L 108.523236 240.823135 
L 109.46121 240.823135 
L 110.399185 240.823135 
L 111.337159 240.823135 
L 112.275133 240.823135 
L 113.213107 240.823135 
L 114.151082 240.823135 
L 115.089056 240.823135 
L 116.02703 240.823135 
L 116.965004 240.823135 
L 117.902978 240.823135 
L 118.840953 240.823135 
L 119.778927 240.823135 
L 120.716901 240.823135 
L 121.654875 240.823135 
L 122.592849 240.823135 
L 123.530824 240.823135 
L 124.468798 240.823135 
L 125.406772 240.823135 
L 126.344746 240.823135 
L 127.28272 240.823135 
L 128.220695 240.823135 
L 129.158669 240.823135 
L 130.096643 240.823135 
L 131.034617 240.823135 
L 131.972591 240.823135 
L 132.910566 240.823135 
L 133.84854 240.823135 
L 134.786514 240.823135 
L 135.724488 240.823135 
L 136.662462 240.823135 
L 137.600437 240.823135 
L 138.538411 240.823135 
L 139.476385 240.823135 
L 140.414359 240.823135 
L 141.352334 240.823135 
L 142.290308 240.823135 
L 143.228282 240.823135 
L 144.166256 240.823135 
L 145.10423 240.823135 
L 146.042205 240.823135 
L 146.980179 240.823135 
L 147.918153 240.823135 
L 148.856127 240.823135 
L 149.794101 240.823135 
L 150.732076 240.823135 
L 151.67005 240.823135 
L 152.608024 240.823135 
L 153.545998 240.823135 
L 154.483972 240.823135 
L 155.421947 240.823135 
L 156.359921 240.823135 
L 157.297895 240.823135 
L 158.235869 240.823135 
L 159.173843 240.823135 
L 160.111818 240.823135 
L 161.049792 240.823135 
L 161.987766 240.823135 
L 162.92574 240.823135 
L 163.863715 240.823135 
L 164.801689 240.823135 
L 165.739663 240.823135 
L 166.677637 240.823135 
L 167.615611 240.823135 
L 167.615611 258.330595 
L 167.615611 258.330595 
L 166.677637 236.980688 
L 165.739663 228.339297 
L 164.801689 227.559609 
L 163.863715 231.099672 
L 162.92574 236.464548 
L 161.987766 241.986169 
L 161.049792 246.636892 
L 160.111818 249.873028 
L 159.173843 251.504904 
L 158.235869 251.590307 
L 157.297895 250.348398 
L 156.359921 248.091422 
L 155.421947 245.171799 
L 154.483972 241.942357 
L 153.545998 238.72773 
L 152.608024 235.805081 
L 151.67005 233.392537 
L 150.732076 231.643882 
L 149.794101 230.648208 
L 148.856127 230.433389 
L 147.918153 230.972377 
L 146.980179 232.191452 
L 146.042205 233.97969 
L 145.10423 236.199002 
L 144.166256 238.694237 
L 143.228282 241.302899 
L 142.290308 243.864152 
L 141.352334 246.226832 
L 140.414359 248.256292 
L 139.476385 249.839934 
L 138.538411 250.891371 
L 137.600437 251.353191 
L 136.662462 251.198352 
L 135.724488 250.430261 
L 134.786514 249.081644 
L 133.84854 247.212312 
L 132.910566 244.905966 
L 131.972591 242.266212 
L 131.034617 239.411935 
L 130.096643 236.472208 
L 129.158669 233.580931 
L 128.220695 230.871352 
L 127.28272 228.470663 
L 126.344746 226.494813 
L 125.406772 225.043713 
L 124.468798 224.196953 
L 123.530824 224.010178 
L 122.592849 224.512199 
L 121.654875 240.827598 
L 120.716901 240.828016 
L 119.778927 228.271696 
L 118.840953 231.400927 
L 117.902978 235.005069 
L 116.965004 238.929223 
L 116.02703 242.993596 
L 115.089056 246.998684 
L 114.151082 250.731325 
L 113.213107 253.971514 
L 112.275133 256.499793 
L 111.337159 258.105044 
L 110.399185 258.592473 
L 109.46121 257.791574 
L 108.523236 255.563826 
L 107.585262 251.809891 
L 106.647288 246.476067 
L 105.709314 239.559742 
L 104.771339 231.113616 
L 103.833365 221.248455 
L 102.895391 210.134167 
L 101.957417 197.99901 
L 101.019443 185.126769 
L 100.081468 171.851781 
L 99.143494 158.551729 
L 98.20552 145.638173 
L 97.267546 133.544863 
L 96.329572 122.71393 
L 95.391597 113.580142 
L 94.453623 106.553486 
L 93.515649 102.000468 
L 92.577675 100.224582 
L 91.639701 101.446572 
L 90.701726 105.785191 
L 89.763752 113.239353 
L 88.825778 123.672682 
L 87.887804 136.801671 
L 86.949829 152.188803 
L 86.011855 169.242218 
L 85.073881 187.223692 
L 84.135907 205.266908 
L 83.197933 222.408276 
L 82.259958 237.632754 
L 81.321984 249.937427 
L 80.38401 258.415866 
L 79.446036 262.366595 
L 78.508062 261.429292 
L 77.570087 255.752701 
L 76.632113 246.198565 
L 75.694139 234.586264 
L 74.756165 223.98322 
z
" clip-path="url(#p962b160c8c)" style="fill: #ff7f0e; fill-opacity: 0.166667"/>
   </g>
   <g id="PolyCollection_3">
    <path d="M 74.756165 260.305765 
L 74.756165 240.823135 
L 75.611982 240.823135 
L 76.467799 240.823135 
L 77.323616 240.823135 
L 78.179432 240.823135 
L 79.035249 240.823135 
L 79.891066 240.823135 
L 80.746883 240.823135 
L 81.6027 240.823135 
L 82.458517 240.823135 
L 83.314334 240.823135 
L 84.170151 240.823135 
L 85.025968 240.823135 
L 85.881785 240.823135 
L 86.737602 240.823135 
L 87.593419 240.823135 
L 88.449236 240.823135 
L 89.305053 240.823135 
L 90.160869 240.823135 
L 91.016686 240.823135 
L 91.872503 240.823135 
L 92.72832 240.823135 
L 93.584137 240.823135 
L 94.439954 240.823135 
L 95.295771 240.823135 
L 96.151588 240.823135 
L 97.007405 240.823135 
L 97.863222 240.823135 
L 98.719039 240.823135 
L 99.574856 240.823135 
L 100.430673 240.823135 
L 101.28649 240.823135 
L 102.142306 240.823135 
L 102.998123 240.823135 
L 103.85394 240.823135 
L 104.709757 240.823135 
L 105.565574 240.823135 
L 106.421391 240.823135 
L 107.277208 240.823135 
L 108.133025 240.823135 
L 108.988842 240.823135 
L 109.844659 240.823135 
L 110.700476 240.823135 
L 111.556293 240.823135 
L 112.41211 240.823135 
L 113.267927 240.823135 
L 114.123743 240.823135 
L 114.97956 240.823135 
L 115.835377 240.823135 
L 116.691194 240.823135 
L 117.547011 240.823135 
L 118.402828 240.823135 
L 119.258645 240.823135 
L 120.114462 240.823135 
L 120.970279 240.823135 
L 121.826096 240.823135 
L 122.681913 240.823135 
L 123.53773 240.823135 
L 124.393547 240.823135 
L 125.249364 240.823135 
L 126.10518 240.823135 
L 126.960997 240.823135 
L 127.816814 240.823135 
L 128.672631 240.823135 
L 129.528448 240.823135 
L 130.384265 240.823135 
L 131.240082 240.823135 
L 132.095899 240.823135 
L 132.951716 240.823135 
L 133.807533 240.823135 
L 134.66335 240.823135 
L 135.519167 240.823135 
L 136.374984 240.823135 
L 137.230801 240.823135 
L 138.086617 240.823135 
L 138.942434 240.823135 
L 139.798251 240.823135 
L 140.654068 240.823135 
L 141.509885 240.823135 
L 142.365702 240.823135 
L 143.221519 240.823135 
L 144.077336 240.823135 
L 144.933153 240.823135 
L 145.78897 240.823135 
L 146.644787 240.823135 
L 147.500604 240.823135 
L 148.356421 240.823135 
L 149.212238 240.823135 
L 150.068054 240.823135 
L 150.923871 240.823135 
L 151.779688 240.823135 
L 152.635505 240.823135 
L 153.491322 240.823135 
L 154.347139 240.823135 
L 155.202956 240.823135 
L 156.058773 240.823135 
L 156.91459 240.823135 
L 157.770407 240.823135 
L 158.626224 240.823135 
L 159.482041 240.823135 
L 159.482041 256.978057 
L 159.482041 256.978057 
L 158.626224 236.34991 
L 157.770407 228.64192 
L 156.91459 228.658963 
L 156.058773 232.682601 
L 155.202956 238.162596 
L 154.347139 243.45619 
L 153.491322 247.60973 
L 152.635505 250.177705 
L 151.779688 251.074608 
L 150.923871 250.455458 
L 150.068054 248.621147 
L 149.212238 245.945157 
L 148.356421 242.818467 
L 147.500604 239.609825 
L 146.644787 236.638815 
L 145.78897 234.159421 
L 144.933153 232.352075 
L 144.077336 231.322352 
L 143.221519 231.104775 
L 142.365702 231.670317 
L 141.509885 232.936444 
L 140.654068 234.778677 
L 139.798251 237.042829 
L 138.942434 239.557227 
L 138.086617 242.144352 
L 137.230801 244.631449 
L 136.374984 246.859798 
L 135.519167 248.692408 
L 134.66335 250.019979 
L 133.807533 250.765103 
L 132.951716 250.884671 
L 132.095899 250.370572 
L 131.240082 249.248795 
L 130.384265 247.577071 
L 129.528448 245.441248 
L 128.672631 242.95061 
L 127.816814 240.232356 
L 126.960997 237.425474 
L 126.10518 234.674265 
L 125.249364 232.121722 
L 124.393547 229.903038 
L 123.53773 228.139417 
L 122.681913 226.932423 
L 121.826096 226.359039 
L 120.970279 226.467592 
L 120.114462 227.274683 
L 119.258645 228.763228 
L 118.402828 230.881685 
L 117.547011 240.826542 
L 116.691194 240.825386 
L 115.835377 239.801569 
L 114.97956 242.88646 
L 114.123743 245.907048 
L 113.267927 248.673103 
L 112.41211 250.986106 
L 111.556293 252.646223 
L 110.700476 253.459753 
L 109.844659 253.246867 
L 108.988842 251.849407 
L 108.133025 249.138515 
L 107.277208 245.021841 
L 106.421391 239.450073 
L 105.565574 232.422537 
L 104.709757 223.991618 
L 103.85394 214.26574 
L 102.998123 203.410694 
L 102.142306 191.64911 
L 101.28649 179.25787 
L 100.430673 166.56336 
L 99.574856 153.934437 
L 98.719039 141.773089 
L 97.863222 130.502799 
L 97.007405 120.554726 
L 96.151588 112.351867 
L 95.295771 106.291479 
L 94.439954 102.726141 
L 93.584137 101.943945 
L 92.72832 104.148439 
L 91.872503 109.43908 
L 91.016686 117.793114 
L 90.160869 129.04996 
L 89.305053 142.899359 
L 88.449236 158.874738 
L 87.593419 176.353456 
L 86.737602 194.565813 
L 85.881785 212.614952 
L 85.025968 229.510026 
L 84.170151 244.215293 
L 83.314334 255.718072 
L 82.458517 263.118812 
L 81.6027 265.746838 
L 80.746883 263.305704 
L 79.891066 256.052409 
L 79.035249 245.015145 
L 78.179432 232.25463 
L 77.323616 221.174498 
L 76.467799 216.886679 
L 75.611982 226.638123 
L 74.756165 260.305765 
z
" clip-path="url(#p962b160c8c)" style="fill: #2ca02c; fill-opacity: 0.166667"/>
   </g>
   <g id="PolyCollection_4">
    <path d="M 74.756165 245.668592 
L 74.756165 240.823135 
L 75.714236 240.823135 
L 76.672308 240.823135 
L 77.63038 240.823135 
L 78.588452 240.823135 
L 79.546523 240.823135 
L 80.504595 240.823135 
L 81.462667 240.823135 
L 82.420739 240.823135 
L 83.37881 240.823135 
L 84.336882 240.823135 
L 85.294954 240.823135 
L 86.253025 240.823135 
L 87.211097 240.823135 
L 88.169169 240.823135 
L 89.127241 240.823135 
L 90.085312 240.823135 
L 91.043384 240.823135 
L 92.001456 240.823135 
L 92.959528 240.823135 
L 93.917599 240.823135 
L 94.875671 240.823135 
L 95.833743 240.823135 
L 96.791814 240.823135 
L 97.749886 240.823135 
L 98.707958 240.823135 
L 99.66603 240.823135 
L 100.624101 240.823135 
L 101.582173 240.823135 
L 102.540245 240.823135 
L 103.498317 240.823135 
L 104.456388 240.823135 
L 105.41446 240.823135 
L 106.372532 240.823135 
L 107.330603 240.823135 
L 108.288675 240.823135 
L 109.246747 240.823135 
L 110.204819 240.823135 
L 111.16289 240.823135 
L 112.120962 240.823135 
L 113.079034 240.823135 
L 114.037106 240.823135 
L 114.995177 240.823135 
L 115.953249 240.823135 
L 116.911321 240.823135 
L 117.869392 240.823135 
L 118.827464 240.823135 
L 119.785536 240.823135 
L 120.743608 240.823135 
L 121.701679 240.823135 
L 122.659751 240.823135 
L 123.617823 240.823135 
L 124.575894 240.823135 
L 125.533966 240.823135 
L 126.492038 240.823135 
L 127.45011 240.823135 
L 128.408181 240.823135 
L 129.366253 240.823135 
L 130.324325 240.823135 
L 131.282397 240.823135 
L 132.240468 240.823135 
L 133.19854 240.823135 
L 134.156612 240.823135 
L 135.114683 240.823135 
L 136.072755 240.823135 
L 137.030827 240.823135 
L 137.988899 240.823135 
L 138.94697 240.823135 
L 139.905042 240.823135 
L 140.863114 240.823135 
L 141.821186 240.823135 
L 142.779257 240.823135 
L 143.737329 240.823135 
L 144.695401 240.823135 
L 145.653472 240.823135 
L 146.611544 240.823135 
L 147.569616 240.823135 
L 148.527688 240.823135 
L 149.485759 240.823135 
L 150.443831 240.823135 
L 151.401903 240.823135 
L 152.359975 240.823135 
L 153.318046 240.823135 
L 154.276118 240.823135 
L 155.23419 240.823135 
L 156.192261 240.823135 
L 157.150333 240.823135 
L 158.108405 240.823135 
L 159.066477 240.823135 
L 160.024548 240.823135 
L 160.98262 240.823135 
L 161.940692 240.823135 
L 162.898763 240.823135 
L 163.856835 240.823135 
L 164.814907 240.823135 
L 165.772979 240.823135 
L 166.73105 240.823135 
L 167.689122 240.823135 
L 168.647194 240.823135 
L 169.605266 240.823135 
L 169.605266 258.766015 
L 169.605266 258.766015 
L 168.647194 236.270427 
L 167.689122 227.517508 
L 166.73105 227.125005 
L 165.772979 231.200311 
L 164.814907 237.037422 
L 163.856835 242.859597 
L 162.898763 247.60268 
L 161.940692 250.73447 
L 160.98262 252.105831 
L 160.024548 251.829638 
L 159.066477 250.183961 
L 158.108405 247.536189 
L 157.150333 244.285121 
L 156.192261 240.81832 
L 155.23419 237.482269 
L 154.276118 234.563163 
L 153.318046 232.276354 
L 152.359975 230.762721 
L 151.401903 230.090427 
L 150.443831 230.260718 
L 149.485759 231.216597 
L 148.527688 232.853368 
L 147.569616 235.030206 
L 146.611544 237.582036 
L 145.653472 240.331142 
L 144.695401 243.098038 
L 143.737329 245.711246 
L 142.779257 248.015709 
L 141.821186 249.879669 
L 140.863114 251.199904 
L 139.905042 251.905282 
L 138.94697 251.958661 
L 137.988899 251.35721 
L 137.030827 250.131245 
L 136.072755 248.341749 
L 135.114683 246.076738 
L 134.156612 243.446669 
L 133.19854 240.579094 
L 132.240468 237.612784 
L 131.282397 234.691542 
L 130.324325 231.957907 
L 129.366253 229.546978 
L 128.408181 227.580552 
L 127.45011 226.161743 
L 126.492038 225.370282 
L 125.533966 225.258605 
L 124.575894 225.848883 
L 123.617823 227.131075 
L 122.659751 240.827303 
L 121.701679 240.826908 
L 120.743608 233.525865 
L 119.785536 236.693902 
L 118.827464 240.085928 
L 117.869392 243.523039 
L 116.911321 246.808877 
L 115.953249 249.736004 
L 114.995177 252.092989 
L 114.037106 253.67204 
L 113.079034 254.276972 
L 112.120962 253.731293 
L 111.16289 251.886158 
L 110.204819 248.627952 
L 109.246747 243.885239 
L 108.288675 237.634809 
L 107.330603 229.906574 
L 106.372532 220.78706 
L 105.41446 210.421256 
L 104.456388 199.012609 
L 103.498317 186.820985 
L 102.540245 174.158443 
L 101.582173 161.382723 
L 100.624101 148.888396 
L 99.66603 137.095698 
L 98.707958 126.437123 
L 97.749886 117.341955 
L 96.791814 110.218995 
L 95.833743 105.437849 
L 94.875671 103.309264 
L 93.917599 104.065108 
L 92.959528 107.838764 
L 92.001456 114.64681 
L 91.043384 124.373076 
L 90.085312 136.756318 
L 89.127241 151.382931 
L 88.169169 167.686382 
L 87.211097 184.955202 
L 86.253025 202.351672 
L 85.294954 218.94355 
L 84.336882 233.751495 
L 83.37881 245.815099 
L 82.420739 254.280775 
L 81.462667 258.515039 
L 80.504595 258.247106 
L 79.546523 253.745045 
L 78.588452 246.030144 
L 77.63038 237.134526 
L 76.672308 230.40747 
L 75.714236 230.876357 
L 74.756165 245.668592 
z
" clip-path="url(#p962b160c8c)" style="fill: #d62728; fill-opacity: 0.166667"/>
   </g>
   <g id="PolyCollection_5">
    <path d="M 74.756165 193.505184 
L 74.756165 240.823135 
L 76.503697 240.823135 
L 78.251228 240.823135 
L 79.99876 240.823135 
L 81.746292 240.823135 
L 83.493824 240.823135 
L 85.241355 240.823135 
L 86.988887 240.823135 
L 88.736419 240.823135 
L 90.483951 240.823135 
L 92.231482 240.823135 
L 93.979014 240.823135 
L 95.726546 240.823135 
L 97.474078 240.823135 
L 99.221609 240.823135 
L 100.969141 240.823135 
L 102.716673 240.823135 
L 104.464205 240.823135 
L 106.211736 240.823135 
L 107.959268 240.823135 
L 109.7068 240.823135 
L 111.454332 240.823135 
L 113.201864 240.823135 
L 114.949395 240.823135 
L 116.696927 240.823135 
L 118.444459 240.823135 
L 120.191991 240.823135 
L 121.939522 240.823135 
L 123.687054 240.823135 
L 125.434586 240.823135 
L 127.182118 240.823135 
L 128.929649 240.823135 
L 130.677181 240.823135 
L 132.424713 240.823135 
L 134.172245 240.823135 
L 135.919776 240.823135 
L 137.667308 240.823135 
L 139.41484 240.823135 
L 141.162372 240.823135 
L 142.909903 240.823135 
L 144.657435 240.823135 
L 146.404967 240.823135 
L 148.152499 240.823135 
L 149.90003 240.823135 
L 151.647562 240.823135 
L 153.395094 240.823135 
L 155.142626 240.823135 
L 156.890158 240.823135 
L 158.637689 240.823135 
L 160.385221 240.823135 
L 162.132753 240.823135 
L 163.880285 240.823135 
L 165.627816 240.823135 
L 167.375348 240.823135 
L 169.12288 240.823135 
L 170.870412 240.823135 
L 172.617943 240.823135 
L 174.365475 240.823135 
L 176.113007 240.823135 
L 177.860539 240.823135 
L 179.60807 240.823135 
L 181.355602 240.823135 
L 183.103134 240.823135 
L 184.850666 240.823135 
L 186.598197 240.823135 
L 188.345729 240.823135 
L 190.093261 240.823135 
L 191.840793 240.823135 
L 193.588324 240.823135 
L 195.335856 240.823135 
L 197.083388 240.823135 
L 198.83092 240.823135 
L 200.578452 240.823135 
L 202.325983 240.823135 
L 204.073515 240.823135 
L 205.821047 240.823135 
L 207.568579 240.823135 
L 209.31611 240.823135 
L 211.063642 240.823135 
L 212.811174 240.823135 
L 214.558706 240.823135 
L 216.306237 240.823135 
L 218.053769 240.823135 
L 219.801301 240.823135 
L 221.548833 240.823135 
L 223.296364 240.823135 
L 225.043896 240.823135 
L 226.791428 240.823135 
L 228.53896 240.823135 
L 230.286491 240.823135 
L 232.034023 240.823135 
L 233.781555 240.823135 
L 235.529087 240.823135 
L 237.276619 240.823135 
L 239.02415 240.823135 
L 240.771682 240.823135 
L 242.519214 240.823135 
L 244.266746 240.823135 
L 246.014277 240.823135 
L 247.761809 240.823135 
L 247.761809 253.515916 
L 247.761809 253.515916 
L 246.014277 238.798262 
L 244.266746 232.374741 
L 242.519214 231.271954 
L 240.771682 233.261848 
L 239.02415 236.72626 
L 237.276619 240.539384 
L 235.529087 243.966473 
L 233.781555 246.577188 
L 232.034023 248.172137 
L 230.286491 248.721194 
L 228.53896 248.312344 
L 226.791428 247.109839 
L 225.043896 245.320568 
L 223.296364 243.16762 
L 221.548833 240.870094 
L 219.801301 238.628296 
L 218.053769 236.613525 
L 216.306237 234.961721 
L 214.558706 233.770339 
L 212.811174 233.097824 
L 211.063642 232.965186 
L 209.31611 233.359164 
L 207.568579 234.236587 
L 205.821047 235.529533 
L 204.073515 237.150975 
L 202.325983 239.000624 
L 200.578452 240.970732 
L 198.83092 242.951654 
L 197.083388 244.836999 
L 195.335856 246.528248 
L 193.588324 247.938728 
L 191.840793 248.996875 
L 190.093261 249.648738 
L 188.345729 249.859707 
L 186.598197 249.61545 
L 184.850666 248.922094 
L 183.103134 247.805673 
L 181.355602 246.310897 
L 179.60807 244.4993 
L 177.860539 242.446845 
L 176.113007 240.241071 
L 174.365475 237.977858 
L 172.617943 235.757915 
L 170.870412 233.683089 
L 169.12288 231.852587 
L 167.375348 230.359215 
L 165.627816 229.285738 
L 163.880285 228.701442 
L 162.132753 240.827238 
L 160.385221 240.828567 
L 158.637689 228.06223 
L 156.890158 230.28117 
L 155.142626 233.139037 
L 153.395094 236.545103 
L 151.647562 240.3798 
L 149.90003 244.497111 
L 148.152499 248.727878 
L 146.404967 252.883965 
L 144.657435 256.76322 
L 142.909903 260.155123 
L 141.162372 262.847046 
L 139.41484 264.630959 
L 137.667308 265.310477 
L 135.919776 264.708054 
L 134.172245 262.672182 
L 132.424713 259.084381 
L 130.677181 253.865813 
L 128.929649 246.983295 
L 127.182118 238.454522 
L 125.434586 228.352275 
L 123.687054 216.807417 
L 121.939522 204.010472 
L 120.191991 190.211582 
L 118.444459 175.718672 
L 116.696927 160.893639 
L 114.949395 146.146425 
L 113.201864 131.926842 
L 111.454332 118.714062 
L 109.7068 107.003696 
L 107.959268 97.292446 
L 106.211736 90.060349 
L 104.464205 85.750676 
L 102.716673 84.747621 
L 100.969141 87.351956 
L 99.221609 93.754909 
L 97.474078 104.010601 
L 95.726546 118.007437 
L 93.979014 135.438958 
L 92.231482 155.774745 
L 90.483951 178.232069 
L 88.736419 201.74909 
L 86.988887 224.960525 
L 85.241355 246.176852 
L 83.493824 263.368208 
L 81.746292 274.154327 
L 79.99876 275.801991 
L 78.251228 265.231632 
L 76.503697 239.0349 
L 74.756165 193.505184 
z
" clip-path="url(#p962b160c8c)" style="fill: #9467bd; fill-opacity: 0.166667"/>
   </g>
   <g id="PolyCollection_6">
    <path d="M 74.756165 271.573008 
L 74.756165 240.823135 
L 75.433656 240.823135 
L 76.111148 240.823135 
L 76.78864 240.823135 
L 77.466131 240.823135 
L 78.143623 240.823135 
L 78.821114 240.823135 
L 79.498606 240.823135 
L 80.176098 240.823135 
L 80.853589 240.823135 
L 81.531081 240.823135 
L 82.208572 240.823135 
L 82.886064 240.823135 
L 83.563556 240.823135 
L 84.241047 240.823135 
L 84.918539 240.823135 
L 85.59603 240.823135 
L 86.273522 240.823135 
L 86.951014 240.823135 
L 87.628505 240.823135 
L 88.305997 240.823135 
L 88.983488 240.823135 
L 89.66098 240.823135 
L 90.338472 240.823135 
L 91.015963 240.823135 
L 91.693455 240.823135 
L 92.370946 240.823135 
L 93.048438 240.823135 
L 93.72593 240.823135 
L 94.403421 240.823135 
L 95.080913 240.823135 
L 95.758404 240.823135 
L 96.435896 240.823135 
L 97.113388 240.823135 
L 97.790879 240.823135 
L 98.468371 240.823135 
L 99.145862 240.823135 
L 99.823354 240.823135 
L 100.500846 240.823135 
L 101.178337 240.823135 
L 101.855829 240.823135 
L 102.53332 240.823135 
L 103.210812 240.823135 
L 103.888304 240.823135 
L 104.565795 240.823135 
L 105.243287 240.823135 
L 105.920779 240.823135 
L 106.59827 240.823135 
L 107.275762 240.823135 
L 107.953253 240.823135 
L 108.630745 240.823135 
L 109.308237 240.823135 
L 109.985728 240.823135 
L 110.66322 240.823135 
L 111.340711 240.823135 
L 112.018203 240.823135 
L 112.695695 240.823135 
L 113.373186 240.823135 
L 114.050678 240.823135 
L 114.728169 240.823135 
L 115.405661 240.823135 
L 116.083153 240.823135 
L 116.760644 240.823135 
L 117.438136 240.823135 
L 118.115627 240.823135 
L 118.793119 240.823135 
L 119.470611 240.823135 
L 120.148102 240.823135 
L 120.825594 240.823135 
L 121.503085 240.823135 
L 122.180577 240.823135 
L 122.858069 240.823135 
L 123.53556 240.823135 
L 124.213052 240.823135 
L 124.890543 240.823135 
L 125.568035 240.823135 
L 126.245527 240.823135 
L 126.923018 240.823135 
L 127.60051 240.823135 
L 128.278001 240.823135 
L 128.955493 240.823135 
L 129.632985 240.823135 
L 130.310476 240.823135 
L 130.987968 240.823135 
L 131.665459 240.823135 
L 132.342951 240.823135 
L 133.020443 240.823135 
L 133.697934 240.823135 
L 134.375426 240.823135 
L 135.052917 240.823135 
L 135.730409 240.823135 
L 136.407901 240.823135 
L 137.085392 240.823135 
L 137.762884 240.823135 
L 138.440375 240.823135 
L 139.117867 240.823135 
L 139.795359 240.823135 
L 140.47285 240.823135 
L 141.150342 240.823135 
L 141.827833 240.823135 
L 141.827833 242.06044 
L 141.827833 242.06044 
L 141.150342 238.656804 
L 140.47285 238.16501 
L 139.795359 239.130604 
L 139.117867 240.589219 
L 138.440375 241.948796 
L 137.762884 242.892313 
L 137.085392 243.298476 
L 136.407901 243.178019 
L 135.730409 242.623487 
L 135.052917 241.770565 
L 134.375426 240.769202 
L 133.697934 239.762942 
L 133.020443 238.87507 
L 132.342951 238.200285 
L 131.665459 237.800808 
L 130.987968 237.705924 
L 130.310476 237.914115 
L 129.632985 238.397031 
L 128.955493 239.10467 
L 128.278001 239.971234 
L 127.60051 240.921208 
L 126.923018 241.875311 
L 126.245527 242.756021 
L 125.568035 243.492463 
L 124.890543 244.024507 
L 124.213052 244.305954 
L 123.53556 244.306779 
L 122.858069 244.014405 
L 122.180577 243.43403 
L 121.503085 242.588067 
L 120.825594 241.514773 
L 120.148102 240.266166 
L 119.470611 238.905352 
L 118.793119 237.503375 
L 118.115627 236.135739 
L 117.438136 234.878733 
L 116.760644 233.805691 
L 116.083153 232.983337 
L 115.405661 232.468324 
L 114.728169 232.304102 
L 114.050678 232.518215 
L 113.373186 233.120123 
L 112.695695 234.099632 
L 112.018203 235.425995 
L 111.340711 237.047725 
L 110.66322 238.893149 
L 109.985728 240.871722 
L 109.308237 242.876066 
L 108.630745 240.821352 
L 107.953253 240.819494 
L 107.275762 248.824955 
L 106.59827 249.145148 
L 105.920779 248.780257 
L 105.243287 247.624316 
L 104.565795 245.585977 
L 103.888304 242.592723 
L 103.210812 238.594848 
L 102.53332 233.569097 
L 101.855829 227.521823 
L 101.178337 220.491542 
L 100.500846 212.55077 
L 99.823354 203.807015 
L 99.145862 194.402817 
L 98.468371 184.514747 
L 97.790879 174.351284 
L 97.113388 164.149495 
L 96.435896 154.170494 
L 95.758404 144.693655 
L 95.080913 136.009603 
L 94.403421 128.412024 
L 93.72593 122.188389 
L 93.048438 117.609726 
L 92.370946 114.919613 
L 91.693455 114.322628 
L 91.015963 115.972553 
L 90.338472 119.960668 
L 89.66098 126.304591 
L 88.983488 134.93812 
L 88.305997 145.702695 
L 87.628505 158.341123 
L 86.951014 172.494323 
L 86.273522 187.701968 
L 85.59603 203.407965 
L 84.918539 218.97187 
L 84.241047 233.687423 
L 83.563556 246.809526 
L 82.886064 257.591144 
L 82.208572 265.331699 
L 81.531081 269.438742 
L 80.853589 269.504789 
L 80.176098 265.401409 
L 79.498606 257.392825 
L 78.821114 246.27144 
L 78.143623 233.517937 
L 77.466131 221.488782 
L 76.78864 213.634148 
L 76.111148 214.74955 
L 75.433656 231.264655 
L 74.756165 271.573008 
z
" clip-path="url(#p962b160c8c)" style="fill: #8c564b; fill-opacity: 0.166667"/>
   </g>
   <g id="matplotlib.axis_1">
    <g id="xtick_1">
     <g id="line2d_1">
      <defs>
       <path id="m44a915cec1" d="M 0 0 
L 0 3.5 
" style="stroke: #000000; stroke-width: 0.8"/>
      </defs>
      <g>
       <use xlink:href="#m44a915cec1" x="74.756165" y="288.430125" style="stroke: #000000; stroke-width: 0.8"/>
      </g>
     </g>
     <g id="text_1">
      <!-- 0.000 -->
      <g transform="translate(60.442102 303.028562) scale(0.1 -0.1)">
       <defs>
        <path id="DejaVuSans-30" d="M 2034 4250 
Q 1547 4250 1301 3770 
Q 1056 3291 1056 2328 
Q 1056 1369 1301 889 
Q 1547 409 2034 409 
Q 2525 409 2770 889 
Q 3016 1369 3016 2328 
Q 3016 3291 2770 3770 
Q 2525 4250 2034 4250 
z
M 2034 4750 
Q 2819 4750 3233 4129 
Q 3647 3509 3647 2328 
Q 3647 1150 3233 529 
Q 2819 -91 2034 -91 
Q 1250 -91 836 529 
Q 422 1150 422 2328 
Q 422 3509 836 4129 
Q 1250 4750 2034 4750 
z
" transform="scale(0.015625)"/>
        <path id="DejaVuSans-2e" d="M 684 794 
L 1344 794 
L 1344 0 
L 684 0 
L 684 794 
z
" transform="scale(0.015625)"/>
       </defs>
       <use xlink:href="#DejaVuSans-30"/>
       <use xlink:href="#DejaVuSans-2e" x="63.623047"/>
       <use xlink:href="#DejaVuSans-30" x="95.410156"/>
       <use xlink:href="#DejaVuSans-30" x="159.033203"/>
       <use xlink:href="#DejaVuSans-30" x="222.65625"/>
      </g>
     </g>
    </g>
    <g id="xtick_2">
     <g id="line2d_2">
      <g>
       <use xlink:href="#m44a915cec1" x="126.23025" y="288.430125" style="stroke: #000000; stroke-width: 0.8"/>
      </g>
     </g>
     <g id="text_2">
      <!-- 0.002 -->
      <g transform="translate(111.916187 303.028562) scale(0.1 -0.1)">
       <defs>
        <path id="DejaVuSans-32" d="M 1228 531 
L 3431 531 
L 3431 0 
L 469 0 
L 469 531 
Q 828 903 1448 1529 
Q 2069 2156 2228 2338 
Q 2531 2678 2651 2914 
Q 2772 3150 2772 3378 
Q 2772 3750 2511 3984 
Q 2250 4219 1831 4219 
Q 1534 4219 1204 4116 
Q 875 4013 500 3803 
L 500 4441 
Q 881 4594 1212 4672 
Q 1544 4750 1819 4750 
Q 2544 4750 2975 4387 
Q 3406 4025 3406 3419 
Q 3406 3131 3298 2873 
Q 3191 2616 2906 2266 
Q 2828 2175 2409 1742 
Q 1991 1309 1228 531 
z
" transform="scale(0.015625)"/>
       </defs>
       <use xlink:href="#DejaVuSans-30"/>
       <use xlink:href="#DejaVuSans-2e" x="63.623047"/>
       <use xlink:href="#DejaVuSans-30" x="95.410156"/>
       <use xlink:href="#DejaVuSans-30" x="159.033203"/>
       <use xlink:href="#DejaVuSans-32" x="222.65625"/>
      </g>
     </g>
    </g>
    <g id="xtick_3">
     <g id="line2d_3">
      <g>
       <use xlink:href="#m44a915cec1" x="177.704334" y="288.430125" style="stroke: #000000; stroke-width: 0.8"/>
      </g>
     </g>
     <g id="text_3">
      <!-- 0.004 -->
      <g transform="translate(163.390272 303.028562) scale(0.1 -0.1)">
       <defs>
        <path id="DejaVuSans-34" d="M 2419 4116 
L 825 1625 
L 2419 1625 
L 2419 4116 
z
M 2253 4666 
L 3047 4666 
L 3047 1625 
L 3713 1625 
L 3713 1100 
L 3047 1100 
L 3047 0 
L 2419 0 
L 2419 1100 
L 313 1100 
L 313 1709 
L 2253 4666 
z
" transform="scale(0.015625)"/>
       </defs>
       <use xlink:href="#DejaVuSans-30"/>
       <use xlink:href="#DejaVuSans-2e" x="63.623047"/>
       <use xlink:href="#DejaVuSans-30" x="95.410156"/>
       <use xlink:href="#DejaVuSans-30" x="159.033203"/>
       <use xlink:href="#DejaVuSans-34" x="222.65625"/>
      </g>
     </g>
    </g>
    <g id="xtick_4">
     <g id="line2d_4">
      <g>
       <use xlink:href="#m44a915cec1" x="229.178419" y="288.430125" style="stroke: #000000; stroke-width: 0.8"/>
      </g>
     </g>
     <g id="text_4">
      <!-- 0.006 -->
      <g transform="translate(214.864357 303.028562) scale(0.1 -0.1)">
       <defs>
        <path id="DejaVuSans-36" d="M 2113 2584 
Q 1688 2584 1439 2293 
Q 1191 2003 1191 1497 
Q 1191 994 1439 701 
Q 1688 409 2113 409 
Q 2538 409 2786 701 
Q 3034 994 3034 1497 
Q 3034 2003 2786 2293 
Q 2538 2584 2113 2584 
z
M 3366 4563 
L 3366 3988 
Q 3128 4100 2886 4159 
Q 2644 4219 2406 4219 
Q 1781 4219 1451 3797 
Q 1122 3375 1075 2522 
Q 1259 2794 1537 2939 
Q 1816 3084 2150 3084 
Q 2853 3084 3261 2657 
Q 3669 2231 3669 1497 
Q 3669 778 3244 343 
Q 2819 -91 2113 -91 
Q 1303 -91 875 529 
Q 447 1150 447 2328 
Q 447 3434 972 4092 
Q 1497 4750 2381 4750 
Q 2619 4750 2861 4703 
Q 3103 4656 3366 4563 
z
" transform="scale(0.015625)"/>
       </defs>
       <use xlink:href="#DejaVuSans-30"/>
       <use xlink:href="#DejaVuSans-2e" x="63.623047"/>
       <use xlink:href="#DejaVuSans-30" x="95.410156"/>
       <use xlink:href="#DejaVuSans-30" x="159.033203"/>
       <use xlink:href="#DejaVuSans-36" x="222.65625"/>
      </g>
     </g>
    </g>
    <g id="xtick_5">
     <g id="line2d_5">
      <g>
       <use xlink:href="#m44a915cec1" x="280.652504" y="288.430125" style="stroke: #000000; stroke-width: 0.8"/>
      </g>
     </g>
     <g id="text_5">
      <!-- 0.008 -->
      <g transform="translate(266.338442 303.028562) scale(0.1 -0.1)">
       <defs>
        <path id="DejaVuSans-38" d="M 2034 2216 
Q 1584 2216 1326 1975 
Q 1069 1734 1069 1313 
Q 1069 891 1326 650 
Q 1584 409 2034 409 
Q 2484 409 2743 651 
Q 3003 894 3003 1313 
Q 3003 1734 2745 1975 
Q 2488 2216 2034 2216 
z
M 1403 2484 
Q 997 2584 770 2862 
Q 544 3141 544 3541 
Q 544 4100 942 4425 
Q 1341 4750 2034 4750 
Q 2731 4750 3128 4425 
Q 3525 4100 3525 3541 
Q 3525 3141 3298 2862 
Q 3072 2584 2669 2484 
Q 3125 2378 3379 2068 
Q 3634 1759 3634 1313 
Q 3634 634 3220 271 
Q 2806 -91 2034 -91 
Q 1263 -91 848 271 
Q 434 634 434 1313 
Q 434 1759 690 2068 
Q 947 2378 1403 2484 
z
M 1172 3481 
Q 1172 3119 1398 2916 
Q 1625 2713 2034 2713 
Q 2441 2713 2670 2916 
Q 2900 3119 2900 3481 
Q 2900 3844 2670 4047 
Q 2441 4250 2034 4250 
Q 1625 4250 1398 4047 
Q 1172 3844 1172 3481 
z
" transform="scale(0.015625)"/>
       </defs>
       <use xlink:href="#DejaVuSans-30"/>
       <use xlink:href="#DejaVuSans-2e" x="63.623047"/>
       <use xlink:href="#DejaVuSans-30" x="95.410156"/>
       <use xlink:href="#DejaVuSans-30" x="159.033203"/>
       <use xlink:href="#DejaVuSans-38" x="222.65625"/>
      </g>
     </g>
    </g>
    <g id="xtick_6">
     <g id="line2d_6">
      <g>
       <use xlink:href="#m44a915cec1" x="332.126589" y="288.430125" style="stroke: #000000; stroke-width: 0.8"/>
      </g>
     </g>
     <g id="text_6">
      <!-- 0.010 -->
      <g transform="translate(317.812526 303.028562) scale(0.1 -0.1)">
       <defs>
        <path id="DejaVuSans-31" d="M 794 531 
L 1825 531 
L 1825 4091 
L 703 3866 
L 703 4441 
L 1819 4666 
L 2450 4666 
L 2450 531 
L 3481 531 
L 3481 0 
L 794 0 
L 794 531 
z
" transform="scale(0.015625)"/>
       </defs>
       <use xlink:href="#DejaVuSans-30"/>
       <use xlink:href="#DejaVuSans-2e" x="63.623047"/>
       <use xlink:href="#DejaVuSans-30" x="95.410156"/>
       <use xlink:href="#DejaVuSans-31" x="159.033203"/>
       <use xlink:href="#DejaVuSans-30" x="222.65625"/>
      </g>
     </g>
    </g>
    <g id="xtick_7">
     <g id="line2d_7">
      <g>
       <use xlink:href="#m44a915cec1" x="383.600674" y="288.430125" style="stroke: #000000; stroke-width: 0.8"/>
      </g>
     </g>
     <g id="text_7">
      <!-- 0.012 -->
      <g transform="translate(369.286611 303.028562) scale(0.1 -0.1)">
       <use xlink:href="#DejaVuSans-30"/>
       <use xlink:href="#DejaVuSans-2e" x="63.623047"/>
       <use xlink:href="#DejaVuSans-30" x="95.410156"/>
       <use xlink:href="#DejaVuSans-31" x="159.033203"/>
       <use xlink:href="#DejaVuSans-32" x="222.65625"/>
      </g>
     </g>
    </g>
    <g id="text_8">
     <!-- Pixel values -->
     <g transform="translate(207.671719 316.706687) scale(0.1 -0.1)">
      <defs>
       <path id="DejaVuSans-50" d="M 1259 4147 
L 1259 2394 
L 2053 2394 
Q 2494 2394 2734 2622 
Q 2975 2850 2975 3272 
Q 2975 3691 2734 3919 
Q 2494 4147 2053 4147 
L 1259 4147 
z
M 628 4666 
L 2053 4666 
Q 2838 4666 3239 4311 
Q 3641 3956 3641 3272 
Q 3641 2581 3239 2228 
Q 2838 1875 2053 1875 
L 1259 1875 
L 1259 0 
L 628 0 
L 628 4666 
z
" transform="scale(0.015625)"/>
       <path id="DejaVuSans-69" d="M 603 3500 
L 1178 3500 
L 1178 0 
L 603 0 
L 603 3500 
z
M 603 4863 
L 1178 4863 
L 1178 4134 
L 603 4134 
L 603 4863 
z
" transform="scale(0.015625)"/>
       <path id="DejaVuSans-78" d="M 3513 3500 
L 2247 1797 
L 3578 0 
L 2900 0 
L 1881 1375 
L 863 0 
L 184 0 
L 1544 1831 
L 300 3500 
L 978 3500 
L 1906 2253 
L 2834 3500 
L 3513 3500 
z
" transform="scale(0.015625)"/>
       <path id="DejaVuSans-65" d="M 3597 1894 
L 3597 1613 
L 953 1613 
Q 991 1019 1311 708 
Q 1631 397 2203 397 
Q 2534 397 2845 478 
Q 3156 559 3463 722 
L 3463 178 
Q 3153 47 2828 -22 
Q 2503 -91 2169 -91 
Q 1331 -91 842 396 
Q 353 884 353 1716 
Q 353 2575 817 3079 
Q 1281 3584 2069 3584 
Q 2775 3584 3186 3129 
Q 3597 2675 3597 1894 
z
M 3022 2063 
Q 3016 2534 2758 2815 
Q 2500 3097 2075 3097 
Q 1594 3097 1305 2825 
Q 1016 2553 972 2059 
L 3022 2063 
z
" transform="scale(0.015625)"/>
       <path id="DejaVuSans-6c" d="M 603 4863 
L 1178 4863 
L 1178 0 
L 603 0 
L 603 4863 
z
" transform="scale(0.015625)"/>
       <path id="DejaVuSans-20" transform="scale(0.015625)"/>
       <path id="DejaVuSans-76" d="M 191 3500 
L 800 3500 
L 1894 563 
L 2988 3500 
L 3597 3500 
L 2284 0 
L 1503 0 
L 191 3500 
z
" transform="scale(0.015625)"/>
       <path id="DejaVuSans-61" d="M 2194 1759 
Q 1497 1759 1228 1600 
Q 959 1441 959 1056 
Q 959 750 1161 570 
Q 1363 391 1709 391 
Q 2188 391 2477 730 
Q 2766 1069 2766 1631 
L 2766 1759 
L 2194 1759 
z
M 3341 1997 
L 3341 0 
L 2766 0 
L 2766 531 
Q 2569 213 2275 61 
Q 1981 -91 1556 -91 
Q 1019 -91 701 211 
Q 384 513 384 1019 
Q 384 1609 779 1909 
Q 1175 2209 1959 2209 
L 2766 2209 
L 2766 2266 
Q 2766 2663 2505 2880 
Q 2244 3097 1772 3097 
Q 1472 3097 1187 3025 
Q 903 2953 641 2809 
L 641 3341 
Q 956 3463 1253 3523 
Q 1550 3584 1831 3584 
Q 2591 3584 2966 3190 
Q 3341 2797 3341 1997 
z
" transform="scale(0.015625)"/>
       <path id="DejaVuSans-75" d="M 544 1381 
L 544 3500 
L 1119 3500 
L 1119 1403 
Q 1119 906 1312 657 
Q 1506 409 1894 409 
Q 2359 409 2629 706 
Q 2900 1003 2900 1516 
L 2900 3500 
L 3475 3500 
L 3475 0 
L 2900 0 
L 2900 538 
Q 2691 219 2414 64 
Q 2138 -91 1772 -91 
Q 1169 -91 856 284 
Q 544 659 544 1381 
z
M 1991 3584 
L 1991 3584 
z
" transform="scale(0.015625)"/>
       <path id="DejaVuSans-73" d="M 2834 3397 
L 2834 2853 
Q 2591 2978 2328 3040 
Q 2066 3103 1784 3103 
Q 1356 3103 1142 2972 
Q 928 2841 928 2578 
Q 928 2378 1081 2264 
Q 1234 2150 1697 2047 
L 1894 2003 
Q 2506 1872 2764 1633 
Q 3022 1394 3022 966 
Q 3022 478 2636 193 
Q 2250 -91 1575 -91 
Q 1294 -91 989 -36 
Q 684 19 347 128 
L 347 722 
Q 666 556 975 473 
Q 1284 391 1588 391 
Q 1994 391 2212 530 
Q 2431 669 2431 922 
Q 2431 1156 2273 1281 
Q 2116 1406 1581 1522 
L 1381 1569 
Q 847 1681 609 1914 
Q 372 2147 372 2553 
Q 372 3047 722 3315 
Q 1072 3584 1716 3584 
Q 2034 3584 2315 3537 
Q 2597 3491 2834 3397 
z
" transform="scale(0.015625)"/>
      </defs>
      <use xlink:href="#DejaVuSans-50"/>
      <use xlink:href="#DejaVuSans-69" x="58.052734"/>
      <use xlink:href="#DejaVuSans-78" x="85.835938"/>
      <use xlink:href="#DejaVuSans-65" x="141.890625"/>
      <use xlink:href="#DejaVuSans-6c" x="203.414062"/>
      <use xlink:href="#DejaVuSans-20" x="231.197266"/>
      <use xlink:href="#DejaVuSans-76" x="262.984375"/>
      <use xlink:href="#DejaVuSans-61" x="322.164062"/>
      <use xlink:href="#DejaVuSans-6c" x="383.443359"/>
      <use xlink:href="#DejaVuSans-75" x="411.226562"/>
      <use xlink:href="#DejaVuSans-65" x="474.605469"/>
      <use xlink:href="#DejaVuSans-73" x="536.128906"/>
     </g>
    </g>
   </g>
   <g id="matplotlib.axis_2">
    <g id="ytick_1">
     <g id="line2d_8">
      <defs>
       <path id="ma4c96e1bca" d="M 0 0 
L -3.5 0 
" style="stroke: #000000; stroke-width: 0.8"/>
      </defs>
      <g>
       <use xlink:href="#ma4c96e1bca" x="58.523438" y="280.852402" style="stroke: #000000; stroke-width: 0.8"/>
      </g>
     </g>
     <g id="text_9">
      <!-- −0.02 -->
      <g transform="translate(20.878125 284.651621) scale(0.1 -0.1)">
       <defs>
        <path id="DejaVuSans-2212" d="M 678 2272 
L 4684 2272 
L 4684 1741 
L 678 1741 
L 678 2272 
z
" transform="scale(0.015625)"/>
       </defs>
       <use xlink:href="#DejaVuSans-2212"/>
       <use xlink:href="#DejaVuSans-30" x="83.789062"/>
       <use xlink:href="#DejaVuSans-2e" x="147.412109"/>
       <use xlink:href="#DejaVuSans-30" x="179.199219"/>
       <use xlink:href="#DejaVuSans-32" x="242.822266"/>
      </g>
     </g>
    </g>
    <g id="ytick_2">
     <g id="line2d_9">
      <g>
       <use xlink:href="#ma4c96e1bca" x="58.523438" y="240.823135" style="stroke: #000000; stroke-width: 0.8"/>
      </g>
     </g>
     <g id="text_10">
      <!-- 0.00 -->
      <g transform="translate(29.257813 244.622354) scale(0.1 -0.1)">
       <use xlink:href="#DejaVuSans-30"/>
       <use xlink:href="#DejaVuSans-2e" x="63.623047"/>
       <use xlink:href="#DejaVuSans-30" x="95.410156"/>
       <use xlink:href="#DejaVuSans-30" x="159.033203"/>
      </g>
     </g>
    </g>
    <g id="ytick_3">
     <g id="line2d_10">
      <g>
       <use xlink:href="#ma4c96e1bca" x="58.523438" y="200.793869" style="stroke: #000000; stroke-width: 0.8"/>
      </g>
     </g>
     <g id="text_11">
      <!-- 0.02 -->
      <g transform="translate(29.257813 204.593088) scale(0.1 -0.1)">
       <use xlink:href="#DejaVuSans-30"/>
       <use xlink:href="#DejaVuSans-2e" x="63.623047"/>
       <use xlink:href="#DejaVuSans-30" x="95.410156"/>
       <use xlink:href="#DejaVuSans-32" x="159.033203"/>
      </g>
     </g>
    </g>
    <g id="ytick_4">
     <g id="line2d_11">
      <g>
       <use xlink:href="#ma4c96e1bca" x="58.523438" y="160.764602" style="stroke: #000000; stroke-width: 0.8"/>
      </g>
     </g>
     <g id="text_12">
      <!-- 0.04 -->
      <g transform="translate(29.257813 164.563821) scale(0.1 -0.1)">
       <use xlink:href="#DejaVuSans-30"/>
       <use xlink:href="#DejaVuSans-2e" x="63.623047"/>
       <use xlink:href="#DejaVuSans-30" x="95.410156"/>
       <use xlink:href="#DejaVuSans-34" x="159.033203"/>
      </g>
     </g>
    </g>
    <g id="ytick_5">
     <g id="line2d_12">
      <g>
       <use xlink:href="#ma4c96e1bca" x="58.523438" y="120.735336" style="stroke: #000000; stroke-width: 0.8"/>
      </g>
     </g>
     <g id="text_13">
      <!-- 0.06 -->
      <g transform="translate(29.257813 124.534555) scale(0.1 -0.1)">
       <use xlink:href="#DejaVuSans-30"/>
       <use xlink:href="#DejaVuSans-2e" x="63.623047"/>
       <use xlink:href="#DejaVuSans-30" x="95.410156"/>
       <use xlink:href="#DejaVuSans-36" x="159.033203"/>
      </g>
     </g>
    </g>
    <g id="ytick_6">
     <g id="line2d_13">
      <g>
       <use xlink:href="#ma4c96e1bca" x="58.523438" y="80.706069" style="stroke: #000000; stroke-width: 0.8"/>
      </g>
     </g>
     <g id="text_14">
      <!-- 0.08 -->
      <g transform="translate(29.257813 84.505288) scale(0.1 -0.1)">
       <use xlink:href="#DejaVuSans-30"/>
       <use xlink:href="#DejaVuSans-2e" x="63.623047"/>
       <use xlink:href="#DejaVuSans-30" x="95.410156"/>
       <use xlink:href="#DejaVuSans-38" x="159.033203"/>
      </g>
     </g>
    </g>
    <g id="ytick_7">
     <g id="line2d_14">
      <g>
       <use xlink:href="#ma4c96e1bca" x="58.523438" y="40.676803" style="stroke: #000000; stroke-width: 0.8"/>
      </g>
     </g>
     <g id="text_15">
      <!-- 0.10 -->
      <g transform="translate(29.257813 44.476021) scale(0.1 -0.1)">
       <use xlink:href="#DejaVuSans-30"/>
       <use xlink:href="#DejaVuSans-2e" x="63.623047"/>
       <use xlink:href="#DejaVuSans-31" x="95.410156"/>
       <use xlink:href="#DejaVuSans-30" x="159.033203"/>
      </g>
     </g>
    </g>
    <g id="text_16">
     <!-- Frequency -->
     <g transform="translate(14.798438 181.203812) rotate(-90) scale(0.1 -0.1)">
      <defs>
       <path id="DejaVuSans-46" d="M 628 4666 
L 3309 4666 
L 3309 4134 
L 1259 4134 
L 1259 2759 
L 3109 2759 
L 3109 2228 
L 1259 2228 
L 1259 0 
L 628 0 
L 628 4666 
z
" transform="scale(0.015625)"/>
       <path id="DejaVuSans-72" d="M 2631 2963 
Q 2534 3019 2420 3045 
Q 2306 3072 2169 3072 
Q 1681 3072 1420 2755 
Q 1159 2438 1159 1844 
L 1159 0 
L 581 0 
L 581 3500 
L 1159 3500 
L 1159 2956 
Q 1341 3275 1631 3429 
Q 1922 3584 2338 3584 
Q 2397 3584 2469 3576 
Q 2541 3569 2628 3553 
L 2631 2963 
z
" transform="scale(0.015625)"/>
       <path id="DejaVuSans-71" d="M 947 1747 
Q 947 1113 1208 752 
Q 1469 391 1925 391 
Q 2381 391 2643 752 
Q 2906 1113 2906 1747 
Q 2906 2381 2643 2742 
Q 2381 3103 1925 3103 
Q 1469 3103 1208 2742 
Q 947 2381 947 1747 
z
M 2906 525 
Q 2725 213 2448 61 
Q 2172 -91 1784 -91 
Q 1150 -91 751 415 
Q 353 922 353 1747 
Q 353 2572 751 3078 
Q 1150 3584 1784 3584 
Q 2172 3584 2448 3432 
Q 2725 3281 2906 2969 
L 2906 3500 
L 3481 3500 
L 3481 -1331 
L 2906 -1331 
L 2906 525 
z
" transform="scale(0.015625)"/>
       <path id="DejaVuSans-6e" d="M 3513 2113 
L 3513 0 
L 2938 0 
L 2938 2094 
Q 2938 2591 2744 2837 
Q 2550 3084 2163 3084 
Q 1697 3084 1428 2787 
Q 1159 2491 1159 1978 
L 1159 0 
L 581 0 
L 581 3500 
L 1159 3500 
L 1159 2956 
Q 1366 3272 1645 3428 
Q 1925 3584 2291 3584 
Q 2894 3584 3203 3211 
Q 3513 2838 3513 2113 
z
" transform="scale(0.015625)"/>
       <path id="DejaVuSans-63" d="M 3122 3366 
L 3122 2828 
Q 2878 2963 2633 3030 
Q 2388 3097 2138 3097 
Q 1578 3097 1268 2742 
Q 959 2388 959 1747 
Q 959 1106 1268 751 
Q 1578 397 2138 397 
Q 2388 397 2633 464 
Q 2878 531 3122 666 
L 3122 134 
Q 2881 22 2623 -34 
Q 2366 -91 2075 -91 
Q 1284 -91 818 406 
Q 353 903 353 1747 
Q 353 2603 823 3093 
Q 1294 3584 2113 3584 
Q 2378 3584 2631 3529 
Q 2884 3475 3122 3366 
z
" transform="scale(0.015625)"/>
       <path id="DejaVuSans-79" d="M 2059 -325 
Q 1816 -950 1584 -1140 
Q 1353 -1331 966 -1331 
L 506 -1331 
L 506 -850 
L 844 -850 
Q 1081 -850 1212 -737 
Q 1344 -625 1503 -206 
L 1606 56 
L 191 3500 
L 800 3500 
L 1894 763 
L 2988 3500 
L 3597 3500 
L 2059 -325 
z
" transform="scale(0.015625)"/>
      </defs>
      <use xlink:href="#DejaVuSans-46"/>
      <use xlink:href="#DejaVuSans-72" x="50.269531"/>
      <use xlink:href="#DejaVuSans-65" x="89.132812"/>
      <use xlink:href="#DejaVuSans-71" x="150.65625"/>
      <use xlink:href="#DejaVuSans-75" x="214.132812"/>
      <use xlink:href="#DejaVuSans-65" x="277.511719"/>
      <use xlink:href="#DejaVuSans-6e" x="339.035156"/>
      <use xlink:href="#DejaVuSans-63" x="402.414062"/>
      <use xlink:href="#DejaVuSans-79" x="457.394531"/>
     </g>
    </g>
   </g>
   <g id="line2d_15">
    <path d="M 74.756165 275.617667 
L 78.035504 252.13094 
L 81.314842 214.180385 
L 84.594181 170.999089 
L 87.87352 129.061226 
L 91.152859 92.631652 
L 94.432198 64.23669 
L 97.711537 45.064298 
L 100.990876 35.301216 
L 104.270214 34.414125 
L 107.549553 41.381298 
L 110.828892 54.880725 
L 114.108231 73.440189 
L 117.38757 95.554331 
L 120.666909 119.773264 
L 123.946247 144.76692 
L 127.225586 169.368889 
L 130.504925 192.603165 
L 133.784264 213.696842 
L 137.063603 232.081484 
L 140.342942 247.385597 
L 143.62228 259.420329 
L 146.901619 268.160249 
L 150.180958 273.720851 
L 153.460297 276.334125 
L 156.739636 276.323409 
L 160.018975 274.078462 
L 163.298314 270.031579 
L 166.577652 264.635365 
L 169.856991 258.342662 
L 173.13633 251.588973 
L 176.415669 244.777621 
L 179.695008 238.26776 
L 182.974347 232.365284 
L 186.253685 227.316562 
L 189.533024 223.304913 
L 192.812363 220.449613 
L 196.091702 218.807235 
L 199.371041 218.37505 
L 202.65038 219.096198 
L 205.929718 220.866327 
L 209.209057 223.541377 
L 212.488396 226.946183 
L 215.767735 230.883573 
L 219.047074 235.143661 
L 222.326413 239.513022 
L 225.605752 243.783481 
L 228.88509 247.760269 
L 232.164429 251.269307 
L 235.443768 240.817496 
L 238.723107 240.818449 
L 242.002446 254.083639 
L 245.281785 254.73004 
L 248.561123 254.702021 
L 251.840462 254.017665 
L 255.119801 252.723153 
L 258.39914 250.890468 
L 261.678479 248.614186 
L 264.957818 246.007432 
L 268.237157 243.197157 
L 271.516495 240.31885 
L 274.795834 237.510881 
L 278.075173 234.908635 
L 281.354512 232.638639 
L 284.633851 230.812883 
L 287.91319 229.523548 
L 291.192528 228.838333 
L 294.471867 228.796598 
L 297.751206 229.406505 
L 301.030545 230.643337 
L 304.309884 232.449153 
L 307.589223 234.733891 
L 310.868561 237.378029 
L 314.1479 240.236834 
L 317.427239 243.146211 
L 320.706578 245.930083 
L 323.985917 248.409182 
L 327.265256 250.41104 
L 330.544595 251.780912 
L 333.823933 252.393231 
L 337.103272 252.163117 
L 340.382611 251.057355 
L 343.66195 249.104099 
L 346.941289 246.400447 
L 350.220628 243.116894 
L 353.499966 239.497477 
L 356.779305 235.854273 
L 360.058644 232.554744 
L 363.337983 230.000185 
L 366.617322 228.593348 
L 369.896661 228.693092 
L 373.175999 230.553642 
L 376.455338 234.245821 
L 379.734677 239.557311 
L 383.014016 245.868765 
L 386.293355 252.002225 
L 389.572694 256.038048 
L 392.852033 255.096173 
L 396.131371 245.077202 
L 399.41071 220.358449 
" clip-path="url(#p962b160c8c)" style="fill: none; stroke: #1f77b4; stroke-width: 1.5; stroke-linecap: square"/>
   </g>
   <g id="line2d_16">
    <path d="M 74.756165 223.98322 
L 75.694139 234.586264 
L 76.632113 246.198565 
L 77.570087 255.752701 
L 78.508062 261.429292 
L 79.446036 262.366595 
L 80.38401 258.415866 
L 81.321984 249.937427 
L 82.259958 237.632754 
L 83.197933 222.408276 
L 84.135907 205.266908 
L 85.073881 187.223692 
L 86.011855 169.242218 
L 86.949829 152.188803 
L 87.887804 136.801671 
L 88.825778 123.672682 
L 89.763752 113.239353 
L 90.701726 105.785191 
L 91.639701 101.446572 
L 92.577675 100.224582 
L 93.515649 102.000468 
L 94.453623 106.553486 
L 95.391597 113.580142 
L 96.329572 122.71393 
L 97.267546 133.544863 
L 98.20552 145.638173 
L 99.143494 158.551729 
L 100.081468 171.851781 
L 101.019443 185.126769 
L 101.957417 197.99901 
L 102.895391 210.134167 
L 103.833365 221.248455 
L 104.771339 231.113616 
L 105.709314 239.559742 
L 106.647288 246.476067 
L 107.585262 251.809891 
L 108.523236 255.563826 
L 109.46121 257.791574 
L 110.399185 258.592473 
L 111.337159 258.105044 
L 112.275133 256.499793 
L 113.213107 253.971514 
L 114.151082 250.731325 
L 115.089056 246.998684 
L 116.02703 242.993596 
L 116.965004 238.929223 
L 117.902978 235.005069 
L 118.840953 231.400927 
L 119.778927 228.271696 
L 120.716901 240.828016 
L 121.654875 240.827598 
L 122.592849 224.512199 
L 123.530824 224.010178 
L 124.468798 224.196953 
L 125.406772 225.043713 
L 126.344746 226.494813 
L 127.28272 228.470663 
L 128.220695 230.871352 
L 129.158669 233.580931 
L 130.096643 236.472208 
L 131.034617 239.411935 
L 131.972591 242.266212 
L 132.910566 244.905966 
L 133.84854 247.212312 
L 134.786514 249.081644 
L 135.724488 250.430261 
L 136.662462 251.198352 
L 137.600437 251.353191 
L 138.538411 250.891371 
L 139.476385 249.839934 
L 140.414359 248.256292 
L 141.352334 246.226832 
L 142.290308 243.864152 
L 143.228282 241.302899 
L 144.166256 238.694237 
L 145.10423 236.199002 
L 146.042205 233.97969 
L 146.980179 232.191452 
L 147.918153 230.972377 
L 148.856127 230.433389 
L 149.794101 230.648208 
L 150.732076 231.643882 
L 151.67005 233.392537 
L 152.608024 235.805081 
L 153.545998 238.72773 
L 154.483972 241.942357 
L 155.421947 245.171799 
L 156.359921 248.091422 
L 157.297895 250.348398 
L 158.235869 251.590307 
L 159.173843 251.504904 
L 160.111818 249.873028 
L 161.049792 246.636892 
L 161.987766 241.986169 
L 162.92574 236.464548 
L 163.863715 231.099672 
L 164.801689 227.559609 
L 165.739663 228.339297 
L 166.677637 236.980688 
L 167.615611 258.330595 
" clip-path="url(#p962b160c8c)" style="fill: none; stroke: #ff7f0e; stroke-width: 1.5; stroke-linecap: square"/>
   </g>
   <g id="line2d_17">
    <path d="M 74.756165 260.305765 
L 75.611982 226.638123 
L 76.467799 216.886679 
L 77.323616 221.174498 
L 78.179432 232.25463 
L 79.035249 245.015145 
L 79.891066 256.052409 
L 80.746883 263.305704 
L 81.6027 265.746838 
L 82.458517 263.118812 
L 83.314334 255.718072 
L 84.170151 244.215293 
L 85.025968 229.510026 
L 85.881785 212.614952 
L 86.737602 194.565813 
L 87.593419 176.353456 
L 88.449236 158.874738 
L 89.305053 142.899359 
L 90.160869 129.04996 
L 91.016686 117.793114 
L 91.872503 109.43908 
L 92.72832 104.148439 
L 93.584137 101.943945 
L 94.439954 102.726141 
L 95.295771 106.291479 
L 96.151588 112.351867 
L 97.007405 120.554726 
L 97.863222 130.502799 
L 98.719039 141.773089 
L 99.574856 153.934437 
L 100.430673 166.56336 
L 101.28649 179.25787 
L 102.142306 191.64911 
L 102.998123 203.410694 
L 103.85394 214.26574 
L 104.709757 223.991618 
L 105.565574 232.422537 
L 106.421391 239.450073 
L 107.277208 245.021841 
L 108.133025 249.138515 
L 108.988842 251.849407 
L 109.844659 253.246867 
L 110.700476 253.459753 
L 111.556293 252.646223 
L 112.41211 250.986106 
L 113.267927 248.673103 
L 114.123743 245.907048 
L 114.97956 242.88646 
L 115.835377 239.801569 
L 116.691194 240.825386 
L 117.547011 240.826542 
L 118.402828 230.881685 
L 119.258645 228.763228 
L 120.114462 227.274683 
L 120.970279 226.467592 
L 121.826096 226.359039 
L 122.681913 226.932423 
L 123.53773 228.139417 
L 124.393547 229.903038 
L 125.249364 232.121722 
L 126.10518 234.674265 
L 126.960997 237.425474 
L 127.816814 240.232356 
L 128.672631 242.95061 
L 129.528448 245.441248 
L 130.384265 247.577071 
L 131.240082 249.248795 
L 132.095899 250.370572 
L 132.951716 250.884671 
L 133.807533 250.765103 
L 134.66335 250.019979 
L 135.519167 248.692408 
L 136.374984 246.859798 
L 137.230801 244.631449 
L 138.086617 242.144352 
L 138.942434 239.557227 
L 139.798251 237.042829 
L 140.654068 234.778677 
L 141.509885 232.936444 
L 142.365702 231.670317 
L 143.221519 231.104775 
L 144.077336 231.322352 
L 144.933153 232.352075 
L 145.78897 234.159421 
L 146.644787 236.638815 
L 147.500604 239.609825 
L 148.356421 242.818467 
L 149.212238 245.945157 
L 150.068054 248.621147 
L 150.923871 250.455458 
L 151.779688 251.074608 
L 152.635505 250.177705 
L 153.491322 247.60973 
L 154.347139 243.45619 
L 155.202956 238.162596 
L 156.058773 232.682601 
L 156.91459 228.658963 
L 157.770407 228.64192 
L 158.626224 236.34991 
L 159.482041 256.978057 
" clip-path="url(#p962b160c8c)" style="fill: none; stroke: #2ca02c; stroke-width: 1.5; stroke-linecap: square"/>
   </g>
   <g id="line2d_18">
    <path d="M 74.756165 245.668592 
L 75.714236 230.876357 
L 76.672308 230.40747 
L 77.63038 237.134526 
L 78.588452 246.030144 
L 79.546523 253.745045 
L 80.504595 258.247106 
L 81.462667 258.515039 
L 82.420739 254.280775 
L 83.37881 245.815099 
L 84.336882 233.751495 
L 85.294954 218.94355 
L 86.253025 202.351672 
L 87.211097 184.955202 
L 88.169169 167.686382 
L 89.127241 151.382931 
L 90.085312 136.756318 
L 91.043384 124.373076 
L 92.001456 114.64681 
L 92.959528 107.838764 
L 93.917599 104.065108 
L 94.875671 103.309264 
L 95.833743 105.437849 
L 96.791814 110.218995 
L 97.749886 117.341955 
L 98.707958 126.437123 
L 99.66603 137.095698 
L 100.624101 148.888396 
L 101.582173 161.382723 
L 102.540245 174.158443 
L 103.498317 186.820985 
L 104.456388 199.012609 
L 105.41446 210.421256 
L 106.372532 220.78706 
L 107.330603 229.906574 
L 108.288675 237.634809 
L 109.246747 243.885239 
L 110.204819 248.627952 
L 111.16289 251.886158 
L 112.120962 253.731293 
L 113.079034 254.276972 
L 114.037106 253.67204 
L 114.995177 252.092989 
L 115.953249 249.736004 
L 116.911321 246.808877 
L 117.869392 243.523039 
L 118.827464 240.085928 
L 119.785536 236.693902 
L 120.743608 233.525865 
L 121.701679 240.826908 
L 122.659751 240.827303 
L 123.617823 227.131075 
L 124.575894 225.848883 
L 125.533966 225.258605 
L 126.492038 225.370282 
L 127.45011 226.161743 
L 128.408181 227.580552 
L 129.366253 229.546978 
L 130.324325 231.957907 
L 131.282397 234.691542 
L 132.240468 237.612784 
L 133.19854 240.579094 
L 134.156612 243.446669 
L 135.114683 246.076738 
L 136.072755 248.341749 
L 137.030827 250.131245 
L 137.988899 251.35721 
L 138.94697 251.958661 
L 139.905042 251.905282 
L 140.863114 251.199904 
L 141.821186 249.879669 
L 142.779257 248.015709 
L 143.737329 245.711246 
L 144.695401 243.098038 
L 145.653472 240.331142 
L 146.611544 237.582036 
L 147.569616 235.030206 
L 148.527688 232.853368 
L 149.485759 231.216597 
L 150.443831 230.260718 
L 151.401903 230.090427 
L 152.359975 230.762721 
L 153.318046 232.276354 
L 154.276118 234.563163 
L 155.23419 237.482269 
L 156.192261 240.81832 
L 157.150333 244.285121 
L 158.108405 247.536189 
L 159.066477 250.183961 
L 160.024548 251.829638 
L 160.98262 252.105831 
L 161.940692 250.73447 
L 162.898763 247.60268 
L 163.856835 242.859597 
L 164.814907 237.037422 
L 165.772979 231.200311 
L 166.73105 227.125005 
L 167.689122 227.517508 
L 168.647194 236.270427 
L 169.605266 258.766015 
" clip-path="url(#p962b160c8c)" style="fill: none; stroke: #d62728; stroke-width: 1.5; stroke-linecap: square"/>
   </g>
   <g id="line2d_19">
    <path d="M 74.756165 193.505184 
L 76.503697 239.0349 
L 78.251228 265.231632 
L 79.99876 275.801991 
L 81.746292 274.154327 
L 83.493824 263.368208 
L 85.241355 246.176852 
L 86.988887 224.960525 
L 88.736419 201.74909 
L 90.483951 178.232069 
L 92.231482 155.774745 
L 93.979014 135.438958 
L 95.726546 118.007437 
L 97.474078 104.010601 
L 99.221609 93.754909 
L 100.969141 87.351956 
L 102.716673 84.747621 
L 104.464205 85.750676 
L 106.211736 90.060349 
L 107.959268 97.292446 
L 109.7068 107.003696 
L 111.454332 118.714062 
L 113.201864 131.926842 
L 114.949395 146.146425 
L 116.696927 160.893639 
L 118.444459 175.718672 
L 120.191991 190.211582 
L 121.939522 204.010472 
L 123.687054 216.807417 
L 125.434586 228.352275 
L 127.182118 238.454522 
L 128.929649 246.983295 
L 130.677181 253.865813 
L 132.424713 259.084381 
L 134.172245 262.672182 
L 135.919776 264.708054 
L 137.667308 265.310477 
L 139.41484 264.630959 
L 141.162372 262.847046 
L 142.909903 260.155123 
L 144.657435 256.76322 
L 146.404967 252.883965 
L 148.152499 248.727878 
L 149.90003 244.497111 
L 151.647562 240.3798 
L 153.395094 236.545103 
L 155.142626 233.139037 
L 156.890158 230.28117 
L 158.637689 228.06223 
L 160.385221 240.828567 
L 162.132753 240.827238 
L 163.880285 228.701442 
L 165.627816 229.285738 
L 167.375348 230.359215 
L 169.12288 231.852587 
L 170.870412 233.683089 
L 172.617943 235.757915 
L 174.365475 237.977858 
L 176.113007 240.241071 
L 177.860539 242.446845 
L 179.60807 244.4993 
L 181.355602 246.310897 
L 183.103134 247.805673 
L 184.850666 248.922094 
L 186.598197 249.61545 
L 188.345729 249.859707 
L 190.093261 249.648738 
L 191.840793 248.996875 
L 193.588324 247.938728 
L 195.335856 246.528248 
L 197.083388 244.836999 
L 198.83092 242.951654 
L 200.578452 240.970732 
L 202.325983 239.000624 
L 204.073515 237.150975 
L 205.821047 235.529533 
L 207.568579 234.236587 
L 209.31611 233.359164 
L 211.063642 232.965186 
L 212.811174 233.097824 
L 214.558706 233.770339 
L 216.306237 234.961721 
L 218.053769 236.613525 
L 219.801301 238.628296 
L 221.548833 240.870094 
L 223.296364 243.16762 
L 225.043896 245.320568 
L 226.791428 247.109839 
L 228.53896 248.312344 
L 230.286491 248.721194 
L 232.034023 248.172137 
L 233.781555 246.577188 
L 235.529087 243.966473 
L 237.276619 240.539384 
L 239.02415 236.72626 
L 240.771682 233.261848 
L 242.519214 231.271954 
L 244.266746 232.374741 
L 246.014277 238.798262 
L 247.761809 253.515916 
" clip-path="url(#p962b160c8c)" style="fill: none; stroke: #9467bd; stroke-width: 1.5; stroke-linecap: square"/>
   </g>
   <g id="line2d_20">
    <path d="M 74.756165 271.573008 
L 75.433656 231.264655 
L 76.111148 214.74955 
L 76.78864 213.634148 
L 77.466131 221.488782 
L 78.143623 233.517937 
L 78.821114 246.27144 
L 79.498606 257.392825 
L 80.176098 265.401409 
L 80.853589 269.504789 
L 81.531081 269.438742 
L 82.208572 265.331699 
L 82.886064 257.591144 
L 83.563556 246.809526 
L 84.241047 233.687423 
L 84.918539 218.97187 
L 85.59603 203.407965 
L 86.273522 187.701968 
L 86.951014 172.494323 
L 87.628505 158.341123 
L 88.305997 145.702695 
L 88.983488 134.93812 
L 89.66098 126.304591 
L 90.338472 119.960668 
L 91.015963 115.972553 
L 91.693455 114.322628 
L 92.370946 114.919613 
L 93.048438 117.609726 
L 93.72593 122.188389 
L 94.403421 128.412024 
L 95.080913 136.009603 
L 95.758404 144.693655 
L 96.435896 154.170494 
L 97.113388 164.149495 
L 97.790879 174.351284 
L 98.468371 184.514747 
L 99.145862 194.402817 
L 99.823354 203.807015 
L 100.500846 212.55077 
L 101.178337 220.491542 
L 101.855829 227.521823 
L 102.53332 233.569097 
L 103.210812 238.594848 
L 103.888304 242.592723 
L 104.565795 245.585977 
L 105.243287 247.624316 
L 105.920779 248.780257 
L 106.59827 249.145148 
L 107.275762 248.824955 
L 107.953253 240.819494 
L 108.630745 240.821352 
L 109.308237 242.876066 
L 109.985728 240.871722 
L 110.66322 238.893149 
L 111.340711 237.047725 
L 112.018203 235.425995 
L 112.695695 234.099632 
L 113.373186 233.120123 
L 114.050678 232.518215 
L 114.728169 232.304102 
L 115.405661 232.468324 
L 116.083153 232.983337 
L 116.760644 233.805691 
L 117.438136 234.878733 
L 118.115627 236.135739 
L 118.793119 237.503375 
L 119.470611 238.905352 
L 120.148102 240.266166 
L 120.825594 241.514773 
L 121.503085 242.588067 
L 122.180577 243.43403 
L 122.858069 244.014405 
L 123.53556 244.306779 
L 124.213052 244.305954 
L 124.890543 244.024507 
L 125.568035 243.492463 
L 126.245527 242.756021 
L 126.923018 241.875311 
L 127.60051 240.921208 
L 128.278001 239.971234 
L 128.955493 239.10467 
L 129.632985 238.397031 
L 130.310476 237.914115 
L 130.987968 237.705924 
L 131.665459 237.800808 
L 132.342951 238.200285 
L 133.020443 238.87507 
L 133.697934 239.762942 
L 134.375426 240.769202 
L 135.052917 241.770565 
L 135.730409 242.623487 
L 136.407901 243.178019 
L 137.085392 243.298476 
L 137.762884 242.892313 
L 138.440375 241.948796 
L 139.117867 240.589219 
L 139.795359 239.130604 
L 140.47285 238.16501 
L 141.150342 238.656804 
L 141.827833 242.06044 
" clip-path="url(#p962b160c8c)" style="fill: none; stroke: #8c564b; stroke-width: 1.5; stroke-linecap: square"/>
   </g>
   <g id="patch_3">
    <path d="M 58.523438 288.430125 
L 58.523438 22.318125 
" style="fill: none; stroke: #000000; stroke-width: 0.8; stroke-linejoin: miter; stroke-linecap: square"/>
   </g>
   <g id="patch_4">
    <path d="M 415.643438 288.430125 
L 415.643438 22.318125 
" style="fill: none; stroke: #000000; stroke-width: 0.8; stroke-linejoin: miter; stroke-linecap: square"/>
   </g>
   <g id="patch_5">
    <path d="M 58.523438 288.430125 
L 415.643438 288.430125 
" style="fill: none; stroke: #000000; stroke-width: 0.8; stroke-linejoin: miter; stroke-linecap: square"/>
   </g>
   <g id="patch_6">
    <path d="M 58.523438 22.318125 
L 415.643438 22.318125 
" style="fill: none; stroke: #000000; stroke-width: 0.8; stroke-linejoin: miter; stroke-linecap: square"/>
   </g>
   <g id="text_17">
    <!-- AD - xtract_prob_Superior_Longitudinal_Fasciculus_3_R -->
    <g transform="translate(72.358125 16.318125) scale(0.12 -0.12)">
     <defs>
      <path id="DejaVuSans-41" d="M 2188 4044 
L 1331 1722 
L 3047 1722 
L 2188 4044 
z
M 1831 4666 
L 2547 4666 
L 4325 0 
L 3669 0 
L 3244 1197 
L 1141 1197 
L 716 0 
L 50 0 
L 1831 4666 
z
" transform="scale(0.015625)"/>
      <path id="DejaVuSans-44" d="M 1259 4147 
L 1259 519 
L 2022 519 
Q 2988 519 3436 956 
Q 3884 1394 3884 2338 
Q 3884 3275 3436 3711 
Q 2988 4147 2022 4147 
L 1259 4147 
z
M 628 4666 
L 1925 4666 
Q 3281 4666 3915 4102 
Q 4550 3538 4550 2338 
Q 4550 1131 3912 565 
Q 3275 0 1925 0 
L 628 0 
L 628 4666 
z
" transform="scale(0.015625)"/>
      <path id="DejaVuSans-2d" d="M 313 2009 
L 1997 2009 
L 1997 1497 
L 313 1497 
L 313 2009 
z
" transform="scale(0.015625)"/>
      <path id="DejaVuSans-74" d="M 1172 4494 
L 1172 3500 
L 2356 3500 
L 2356 3053 
L 1172 3053 
L 1172 1153 
Q 1172 725 1289 603 
Q 1406 481 1766 481 
L 2356 481 
L 2356 0 
L 1766 0 
Q 1100 0 847 248 
Q 594 497 594 1153 
L 594 3053 
L 172 3053 
L 172 3500 
L 594 3500 
L 594 4494 
L 1172 4494 
z
" transform="scale(0.015625)"/>
      <path id="DejaVuSans-5f" d="M 3263 -1063 
L 3263 -1509 
L -63 -1509 
L -63 -1063 
L 3263 -1063 
z
" transform="scale(0.015625)"/>
      <path id="DejaVuSans-70" d="M 1159 525 
L 1159 -1331 
L 581 -1331 
L 581 3500 
L 1159 3500 
L 1159 2969 
Q 1341 3281 1617 3432 
Q 1894 3584 2278 3584 
Q 2916 3584 3314 3078 
Q 3713 2572 3713 1747 
Q 3713 922 3314 415 
Q 2916 -91 2278 -91 
Q 1894 -91 1617 61 
Q 1341 213 1159 525 
z
M 3116 1747 
Q 3116 2381 2855 2742 
Q 2594 3103 2138 3103 
Q 1681 3103 1420 2742 
Q 1159 2381 1159 1747 
Q 1159 1113 1420 752 
Q 1681 391 2138 391 
Q 2594 391 2855 752 
Q 3116 1113 3116 1747 
z
" transform="scale(0.015625)"/>
      <path id="DejaVuSans-6f" d="M 1959 3097 
Q 1497 3097 1228 2736 
Q 959 2375 959 1747 
Q 959 1119 1226 758 
Q 1494 397 1959 397 
Q 2419 397 2687 759 
Q 2956 1122 2956 1747 
Q 2956 2369 2687 2733 
Q 2419 3097 1959 3097 
z
M 1959 3584 
Q 2709 3584 3137 3096 
Q 3566 2609 3566 1747 
Q 3566 888 3137 398 
Q 2709 -91 1959 -91 
Q 1206 -91 779 398 
Q 353 888 353 1747 
Q 353 2609 779 3096 
Q 1206 3584 1959 3584 
z
" transform="scale(0.015625)"/>
      <path id="DejaVuSans-62" d="M 3116 1747 
Q 3116 2381 2855 2742 
Q 2594 3103 2138 3103 
Q 1681 3103 1420 2742 
Q 1159 2381 1159 1747 
Q 1159 1113 1420 752 
Q 1681 391 2138 391 
Q 2594 391 2855 752 
Q 3116 1113 3116 1747 
z
M 1159 2969 
Q 1341 3281 1617 3432 
Q 1894 3584 2278 3584 
Q 2916 3584 3314 3078 
Q 3713 2572 3713 1747 
Q 3713 922 3314 415 
Q 2916 -91 2278 -91 
Q 1894 -91 1617 61 
Q 1341 213 1159 525 
L 1159 0 
L 581 0 
L 581 4863 
L 1159 4863 
L 1159 2969 
z
" transform="scale(0.015625)"/>
      <path id="DejaVuSans-53" d="M 3425 4513 
L 3425 3897 
Q 3066 4069 2747 4153 
Q 2428 4238 2131 4238 
Q 1616 4238 1336 4038 
Q 1056 3838 1056 3469 
Q 1056 3159 1242 3001 
Q 1428 2844 1947 2747 
L 2328 2669 
Q 3034 2534 3370 2195 
Q 3706 1856 3706 1288 
Q 3706 609 3251 259 
Q 2797 -91 1919 -91 
Q 1588 -91 1214 -16 
Q 841 59 441 206 
L 441 856 
Q 825 641 1194 531 
Q 1563 422 1919 422 
Q 2459 422 2753 634 
Q 3047 847 3047 1241 
Q 3047 1584 2836 1778 
Q 2625 1972 2144 2069 
L 1759 2144 
Q 1053 2284 737 2584 
Q 422 2884 422 3419 
Q 422 4038 858 4394 
Q 1294 4750 2059 4750 
Q 2388 4750 2728 4690 
Q 3069 4631 3425 4513 
z
" transform="scale(0.015625)"/>
      <path id="DejaVuSans-4c" d="M 628 4666 
L 1259 4666 
L 1259 531 
L 3531 531 
L 3531 0 
L 628 0 
L 628 4666 
z
" transform="scale(0.015625)"/>
      <path id="DejaVuSans-67" d="M 2906 1791 
Q 2906 2416 2648 2759 
Q 2391 3103 1925 3103 
Q 1463 3103 1205 2759 
Q 947 2416 947 1791 
Q 947 1169 1205 825 
Q 1463 481 1925 481 
Q 2391 481 2648 825 
Q 2906 1169 2906 1791 
z
M 3481 434 
Q 3481 -459 3084 -895 
Q 2688 -1331 1869 -1331 
Q 1566 -1331 1297 -1286 
Q 1028 -1241 775 -1147 
L 775 -588 
Q 1028 -725 1275 -790 
Q 1522 -856 1778 -856 
Q 2344 -856 2625 -561 
Q 2906 -266 2906 331 
L 2906 616 
Q 2728 306 2450 153 
Q 2172 0 1784 0 
Q 1141 0 747 490 
Q 353 981 353 1791 
Q 353 2603 747 3093 
Q 1141 3584 1784 3584 
Q 2172 3584 2450 3431 
Q 2728 3278 2906 2969 
L 2906 3500 
L 3481 3500 
L 3481 434 
z
" transform="scale(0.015625)"/>
      <path id="DejaVuSans-64" d="M 2906 2969 
L 2906 4863 
L 3481 4863 
L 3481 0 
L 2906 0 
L 2906 525 
Q 2725 213 2448 61 
Q 2172 -91 1784 -91 
Q 1150 -91 751 415 
Q 353 922 353 1747 
Q 353 2572 751 3078 
Q 1150 3584 1784 3584 
Q 2172 3584 2448 3432 
Q 2725 3281 2906 2969 
z
M 947 1747 
Q 947 1113 1208 752 
Q 1469 391 1925 391 
Q 2381 391 2643 752 
Q 2906 1113 2906 1747 
Q 2906 2381 2643 2742 
Q 2381 3103 1925 3103 
Q 1469 3103 1208 2742 
Q 947 2381 947 1747 
z
" transform="scale(0.015625)"/>
      <path id="DejaVuSans-33" d="M 2597 2516 
Q 3050 2419 3304 2112 
Q 3559 1806 3559 1356 
Q 3559 666 3084 287 
Q 2609 -91 1734 -91 
Q 1441 -91 1130 -33 
Q 819 25 488 141 
L 488 750 
Q 750 597 1062 519 
Q 1375 441 1716 441 
Q 2309 441 2620 675 
Q 2931 909 2931 1356 
Q 2931 1769 2642 2001 
Q 2353 2234 1838 2234 
L 1294 2234 
L 1294 2753 
L 1863 2753 
Q 2328 2753 2575 2939 
Q 2822 3125 2822 3475 
Q 2822 3834 2567 4026 
Q 2313 4219 1838 4219 
Q 1578 4219 1281 4162 
Q 984 4106 628 3988 
L 628 4550 
Q 988 4650 1302 4700 
Q 1616 4750 1894 4750 
Q 2613 4750 3031 4423 
Q 3450 4097 3450 3541 
Q 3450 3153 3228 2886 
Q 3006 2619 2597 2516 
z
" transform="scale(0.015625)"/>
      <path id="DejaVuSans-52" d="M 2841 2188 
Q 3044 2119 3236 1894 
Q 3428 1669 3622 1275 
L 4263 0 
L 3584 0 
L 2988 1197 
Q 2756 1666 2539 1819 
Q 2322 1972 1947 1972 
L 1259 1972 
L 1259 0 
L 628 0 
L 628 4666 
L 2053 4666 
Q 2853 4666 3247 4331 
Q 3641 3997 3641 3322 
Q 3641 2881 3436 2590 
Q 3231 2300 2841 2188 
z
M 1259 4147 
L 1259 2491 
L 2053 2491 
Q 2509 2491 2742 2702 
Q 2975 2913 2975 3322 
Q 2975 3731 2742 3939 
Q 2509 4147 2053 4147 
L 1259 4147 
z
" transform="scale(0.015625)"/>
     </defs>
     <use xlink:href="#DejaVuSans-41"/>
     <use xlink:href="#DejaVuSans-44" x="68.408203"/>
     <use xlink:href="#DejaVuSans-20" x="145.410156"/>
     <use xlink:href="#DejaVuSans-2d" x="177.197266"/>
     <use xlink:href="#DejaVuSans-20" x="213.28125"/>
     <use xlink:href="#DejaVuSans-78" x="245.068359"/>
     <use xlink:href="#DejaVuSans-74" x="304.248047"/>
     <use xlink:href="#DejaVuSans-72" x="343.457031"/>
     <use xlink:href="#DejaVuSans-61" x="384.570312"/>
     <use xlink:href="#DejaVuSans-63" x="445.849609"/>
     <use xlink:href="#DejaVuSans-74" x="500.830078"/>
     <use xlink:href="#DejaVuSans-5f" x="540.039062"/>
     <use xlink:href="#DejaVuSans-70" x="590.039062"/>
     <use xlink:href="#DejaVuSans-72" x="653.515625"/>
     <use xlink:href="#DejaVuSans-6f" x="692.378906"/>
     <use xlink:href="#DejaVuSans-62" x="753.560547"/>
     <use xlink:href="#DejaVuSans-5f" x="817.037109"/>
     <use xlink:href="#DejaVuSans-53" x="867.037109"/>
     <use xlink:href="#DejaVuSans-75" x="930.513672"/>
     <use xlink:href="#DejaVuSans-70" x="993.892578"/>
     <use xlink:href="#DejaVuSans-65" x="1057.369141"/>
     <use xlink:href="#DejaVuSans-72" x="1118.892578"/>
     <use xlink:href="#DejaVuSans-69" x="1160.005859"/>
     <use xlink:href="#DejaVuSans-6f" x="1187.789062"/>
     <use xlink:href="#DejaVuSans-72" x="1248.970703"/>
     <use xlink:href="#DejaVuSans-5f" x="1290.083984"/>
     <use xlink:href="#DejaVuSans-4c" x="1340.083984"/>
     <use xlink:href="#DejaVuSans-6f" x="1394.046875"/>
     <use xlink:href="#DejaVuSans-6e" x="1455.228516"/>
     <use xlink:href="#DejaVuSans-67" x="1518.607422"/>
     <use xlink:href="#DejaVuSans-69" x="1582.083984"/>
     <use xlink:href="#DejaVuSans-74" x="1609.867188"/>
     <use xlink:href="#DejaVuSans-75" x="1649.076172"/>
     <use xlink:href="#DejaVuSans-64" x="1712.455078"/>
     <use xlink:href="#DejaVuSans-69" x="1775.931641"/>
     <use xlink:href="#DejaVuSans-6e" x="1803.714844"/>
     <use xlink:href="#DejaVuSans-61" x="1867.09375"/>
     <use xlink:href="#DejaVuSans-6c" x="1928.373047"/>
     <use xlink:href="#DejaVuSans-5f" x="1956.15625"/>
     <use xlink:href="#DejaVuSans-46" x="2006.15625"/>
     <use xlink:href="#DejaVuSans-61" x="2054.550781"/>
     <use xlink:href="#DejaVuSans-73" x="2115.830078"/>
     <use xlink:href="#DejaVuSans-63" x="2167.929688"/>
     <use xlink:href="#DejaVuSans-69" x="2222.910156"/>
     <use xlink:href="#DejaVuSans-63" x="2250.693359"/>
     <use xlink:href="#DejaVuSans-75" x="2305.673828"/>
     <use xlink:href="#DejaVuSans-6c" x="2369.052734"/>
     <use xlink:href="#DejaVuSans-75" x="2396.835938"/>
     <use xlink:href="#DejaVuSans-73" x="2460.214844"/>
     <use xlink:href="#DejaVuSans-5f" x="2512.314453"/>
     <use xlink:href="#DejaVuSans-33" x="2562.314453"/>
     <use xlink:href="#DejaVuSans-5f" x="2625.9375"/>
     <use xlink:href="#DejaVuSans-52" x="2675.9375"/>
    </g>
   </g>
   <g id="legend_1">
    <g id="patch_7">
     <path d="M 458.355438 146.666825 
L 556.211688 146.666825 
Q 558.211688 146.666825 558.211688 144.666825 
L 558.211688 55.929325 
Q 558.211688 53.929325 556.211688 53.929325 
L 458.355438 53.929325 
Q 456.355438 53.929325 456.355438 55.929325 
L 456.355438 144.666825 
Q 456.355438 146.666825 458.355438 146.666825 
z
" style="fill: #ffffff; opacity: 0.8; stroke: #cccccc; stroke-linejoin: miter"/>
    </g>
    <g id="line2d_21">
     <path d="M 460.355438 62.027762 
L 470.355438 62.027762 
L 480.355438 62.027762 
" style="fill: none; stroke: #1f77b4; stroke-width: 1.5; stroke-linecap: square"/>
    </g>
    <g id="text_18">
     <!-- 20_06_02_E3 -->
     <g transform="translate(488.355438 65.527762) scale(0.1 -0.1)">
      <defs>
       <path id="DejaVuSans-45" d="M 628 4666 
L 3578 4666 
L 3578 4134 
L 1259 4134 
L 1259 2753 
L 3481 2753 
L 3481 2222 
L 1259 2222 
L 1259 531 
L 3634 531 
L 3634 0 
L 628 0 
L 628 4666 
z
" transform="scale(0.015625)"/>
      </defs>
      <use xlink:href="#DejaVuSans-32"/>
      <use xlink:href="#DejaVuSans-30" x="63.623047"/>
      <use xlink:href="#DejaVuSans-5f" x="127.246094"/>
      <use xlink:href="#DejaVuSans-30" x="177.246094"/>
      <use xlink:href="#DejaVuSans-36" x="240.869141"/>
      <use xlink:href="#DejaVuSans-5f" x="304.492188"/>
      <use xlink:href="#DejaVuSans-30" x="354.492188"/>
      <use xlink:href="#DejaVuSans-32" x="418.115234"/>
      <use xlink:href="#DejaVuSans-5f" x="481.738281"/>
      <use xlink:href="#DejaVuSans-45" x="531.738281"/>
      <use xlink:href="#DejaVuSans-33" x="594.921875"/>
     </g>
    </g>
    <g id="line2d_22">
     <path d="M 460.355438 76.984013 
L 470.355438 76.984013 
L 480.355438 76.984013 
" style="fill: none; stroke: #ff7f0e; stroke-width: 1.5; stroke-linecap: square"/>
    </g>
    <g id="text_19">
     <!-- 20_05_01_E3 -->
     <g transform="translate(488.355438 80.484013) scale(0.1 -0.1)">
      <defs>
       <path id="DejaVuSans-35" d="M 691 4666 
L 3169 4666 
L 3169 4134 
L 1269 4134 
L 1269 2991 
Q 1406 3038 1543 3061 
Q 1681 3084 1819 3084 
Q 2600 3084 3056 2656 
Q 3513 2228 3513 1497 
Q 3513 744 3044 326 
Q 2575 -91 1722 -91 
Q 1428 -91 1123 -41 
Q 819 9 494 109 
L 494 744 
Q 775 591 1075 516 
Q 1375 441 1709 441 
Q 2250 441 2565 725 
Q 2881 1009 2881 1497 
Q 2881 1984 2565 2268 
Q 2250 2553 1709 2553 
Q 1456 2553 1204 2497 
Q 953 2441 691 2322 
L 691 4666 
z
" transform="scale(0.015625)"/>
      </defs>
      <use xlink:href="#DejaVuSans-32"/>
      <use xlink:href="#DejaVuSans-30" x="63.623047"/>
      <use xlink:href="#DejaVuSans-5f" x="127.246094"/>
      <use xlink:href="#DejaVuSans-30" x="177.246094"/>
      <use xlink:href="#DejaVuSans-35" x="240.869141"/>
      <use xlink:href="#DejaVuSans-5f" x="304.492188"/>
      <use xlink:href="#DejaVuSans-30" x="354.492188"/>
      <use xlink:href="#DejaVuSans-31" x="418.115234"/>
      <use xlink:href="#DejaVuSans-5f" x="481.738281"/>
      <use xlink:href="#DejaVuSans-45" x="531.738281"/>
      <use xlink:href="#DejaVuSans-33" x="594.921875"/>
     </g>
    </g>
    <g id="line2d_23">
     <path d="M 460.355438 91.940262 
L 470.355438 91.940262 
L 480.355438 91.940262 
" style="fill: none; stroke: #2ca02c; stroke-width: 1.5; stroke-linecap: square"/>
    </g>
    <g id="text_20">
     <!-- 20_02_02_E3 -->
     <g transform="translate(488.355438 95.440262) scale(0.1 -0.1)">
      <use xlink:href="#DejaVuSans-32"/>
      <use xlink:href="#DejaVuSans-30" x="63.623047"/>
      <use xlink:href="#DejaVuSans-5f" x="127.246094"/>
      <use xlink:href="#DejaVuSans-30" x="177.246094"/>
      <use xlink:href="#DejaVuSans-32" x="240.869141"/>
      <use xlink:href="#DejaVuSans-5f" x="304.492188"/>
      <use xlink:href="#DejaVuSans-30" x="354.492188"/>
      <use xlink:href="#DejaVuSans-32" x="418.115234"/>
      <use xlink:href="#DejaVuSans-5f" x="481.738281"/>
      <use xlink:href="#DejaVuSans-45" x="531.738281"/>
      <use xlink:href="#DejaVuSans-33" x="594.921875"/>
     </g>
    </g>
    <g id="line2d_24">
     <path d="M 460.355438 106.896513 
L 470.355438 106.896513 
L 480.355438 106.896513 
" style="fill: none; stroke: #d62728; stroke-width: 1.5; stroke-linecap: square"/>
    </g>
    <g id="text_21">
     <!-- 20_10_02_E3 -->
     <g transform="translate(488.355438 110.396513) scale(0.1 -0.1)">
      <use xlink:href="#DejaVuSans-32"/>
      <use xlink:href="#DejaVuSans-30" x="63.623047"/>
      <use xlink:href="#DejaVuSans-5f" x="127.246094"/>
      <use xlink:href="#DejaVuSans-31" x="177.246094"/>
      <use xlink:href="#DejaVuSans-30" x="240.869141"/>
      <use xlink:href="#DejaVuSans-5f" x="304.492188"/>
      <use xlink:href="#DejaVuSans-30" x="354.492188"/>
      <use xlink:href="#DejaVuSans-32" x="418.115234"/>
      <use xlink:href="#DejaVuSans-5f" x="481.738281"/>
      <use xlink:href="#DejaVuSans-45" x="531.738281"/>
      <use xlink:href="#DejaVuSans-33" x="594.921875"/>
     </g>
    </g>
    <g id="line2d_25">
     <path d="M 460.355438 121.852762 
L 470.355438 121.852762 
L 480.355438 121.852762 
" style="fill: none; stroke: #9467bd; stroke-width: 1.5; stroke-linecap: square"/>
    </g>
    <g id="text_22">
     <!-- 20_08_02_E3 -->
     <g transform="translate(488.355438 125.352762) scale(0.1 -0.1)">
      <use xlink:href="#DejaVuSans-32"/>
      <use xlink:href="#DejaVuSans-30" x="63.623047"/>
      <use xlink:href="#DejaVuSans-5f" x="127.246094"/>
      <use xlink:href="#DejaVuSans-30" x="177.246094"/>
      <use xlink:href="#DejaVuSans-38" x="240.869141"/>
      <use xlink:href="#DejaVuSans-5f" x="304.492188"/>
      <use xlink:href="#DejaVuSans-30" x="354.492188"/>
      <use xlink:href="#DejaVuSans-32" x="418.115234"/>
      <use xlink:href="#DejaVuSans-5f" x="481.738281"/>
      <use xlink:href="#DejaVuSans-45" x="531.738281"/>
      <use xlink:href="#DejaVuSans-33" x="594.921875"/>
     </g>
    </g>
    <g id="line2d_26">
     <path d="M 460.355438 136.809012 
L 470.355438 136.809012 
L 480.355438 136.809012 
" style="fill: none; stroke: #8c564b; stroke-width: 1.5; stroke-linecap: square"/>
    </g>
    <g id="text_23">
     <!-- 20_11_02_E3 -->
     <g transform="translate(488.355438 140.309012) scale(0.1 -0.1)">
      <use xlink:href="#DejaVuSans-32"/>
      <use xlink:href="#DejaVuSans-30" x="63.623047"/>
      <use xlink:href="#DejaVuSans-5f" x="127.246094"/>
      <use xlink:href="#DejaVuSans-31" x="177.246094"/>
      <use xlink:href="#DejaVuSans-31" x="240.869141"/>
      <use xlink:href="#DejaVuSans-5f" x="304.492188"/>
      <use xlink:href="#DejaVuSans-30" x="354.492188"/>
      <use xlink:href="#DejaVuSans-32" x="418.115234"/>
      <use xlink:href="#DejaVuSans-5f" x="481.738281"/>
      <use xlink:href="#DejaVuSans-45" x="531.738281"/>
      <use xlink:href="#DejaVuSans-33" x="594.921875"/>
     </g>
    </g>
   </g>
  </g>
 </g>
 <defs>
  <clipPath id="p962b160c8c">
   <rect x="58.523438" y="22.318125" width="357.12" height="266.112"/>
  </clipPath>
 </defs>
</svg>
