<?xml version="1.0" encoding="utf-8" standalone="no"?>
<!DOCTYPE svg PUBLIC "-//W3C//DTD SVG 1.1//EN"
  "http://www.w3.org/Graphics/SVG/1.1/DTD/svg11.dtd">
<svg xmlns:xlink="http://www.w3.org/1999/xlink" width="565.411687pt" height="325.986375pt" viewBox="0 0 565.411687 325.986375" xmlns="http://www.w3.org/2000/svg" version="1.1">
 <metadata>
  <rdf:RDF xmlns:dc="http://purl.org/dc/elements/1.1/" xmlns:cc="http://creativecommons.org/ns#" xmlns:rdf="http://www.w3.org/1999/02/22-rdf-syntax-ns#">
   <cc:Work>
    <dc:type rdf:resource="http://purl.org/dc/dcmitype/StillImage"/>
    <dc:date>2023-02-07T22:59:57.640692</dc:date>
    <dc:format>image/svg+xml</dc:format>
    <dc:creator>
     <cc:Agent>
      <dc:title>Matplotlib v3.6.2, https://matplotlib.org/</dc:title>
     </cc:Agent>
    </dc:creator>
   </cc:Work>
  </rdf:RDF>
 </metadata>
 <defs>
  <style type="text/css">*{stroke-linejoin: round; stroke-linecap: butt}</style>
 </defs>
 <g id="figure_1">
  <g id="patch_1">
   <path d="M 0 325.986375 
L 565.411687 325.986375 
L 565.411687 0 
L 0 0 
z
" style="fill: #ffffff"/>
  </g>
  <g id="axes_1">
   <g id="patch_2">
    <path d="M 58.523438 288.430125 
L 415.643438 288.430125 
L 415.643438 22.318125 
L 58.523438 22.318125 
z
" style="fill: #ffffff"/>
   </g>
   <g id="PolyCollection_1">
    <path d="M 74.756165 267.005734 
L 74.756165 235.950977 
L 78.035501 235.950977 
L 81.314837 235.950977 
L 84.594173 235.950977 
L 87.873508 235.950977 
L 91.152844 235.950977 
L 94.43218 235.950977 
L 97.711516 235.950977 
L 100.990852 235.950977 
L 104.270188 235.950977 
L 107.549524 235.950977 
L 110.82886 235.950977 
L 114.108196 235.950977 
L 117.387532 235.950977 
L 120.666868 235.950977 
L 123.946203 235.950977 
L 127.225539 235.950977 
L 130.504875 235.950977 
L 133.784211 235.950977 
L 137.063547 235.950977 
L 140.342883 235.950977 
L 143.622219 235.950977 
L 146.901555 235.950977 
L 150.180891 235.950977 
L 153.460227 235.950977 
L 156.739563 235.950977 
L 160.018898 235.950977 
L 163.298234 235.950977 
L 166.57757 235.950977 
L 169.856906 235.950977 
L 173.136242 235.950977 
L 176.415578 235.950977 
L 179.694914 235.950977 
L 182.97425 235.950977 
L 186.253586 235.950977 
L 189.532922 235.950977 
L 192.812258 235.950977 
L 196.091593 235.950977 
L 199.370929 235.950977 
L 202.650265 235.950977 
L 205.929601 235.950977 
L 209.208937 235.950977 
L 212.488273 235.950977 
L 215.767609 235.950977 
L 219.046945 235.950977 
L 222.326281 235.950977 
L 225.605617 235.950977 
L 228.884953 235.950977 
L 232.164289 235.950977 
L 235.443624 235.950977 
L 238.72296 235.950977 
L 242.002296 235.950977 
L 245.281632 235.950977 
L 248.560968 235.950977 
L 251.840304 235.950977 
L 255.11964 235.950977 
L 258.398976 235.950977 
L 261.678312 235.950977 
L 264.957648 235.950977 
L 268.236984 235.950977 
L 271.516319 235.950977 
L 274.795655 235.950977 
L 278.074991 235.950977 
L 281.354327 235.950977 
L 284.633663 235.950977 
L 287.912999 235.950977 
L 291.192335 235.950977 
L 294.471671 235.950977 
L 297.751007 235.950977 
L 301.030343 235.950977 
L 304.309679 235.950977 
L 307.589014 235.950977 
L 310.86835 235.950977 
L 314.147686 235.950977 
L 317.427022 235.950977 
L 320.706358 235.950977 
L 323.985694 235.950977 
L 327.26503 235.950977 
L 330.544366 235.950977 
L 333.823702 235.950977 
L 337.103038 235.950977 
L 340.382374 235.950977 
L 343.661709 235.950977 
L 346.941045 235.950977 
L 350.220381 235.950977 
L 353.499717 235.950977 
L 356.779053 235.950977 
L 360.058389 235.950977 
L 363.337725 235.950977 
L 366.617061 235.950977 
L 369.896397 235.950977 
L 373.175733 235.950977 
L 376.455069 235.950977 
L 379.734404 235.950977 
L 383.01374 235.950977 
L 386.293076 235.950977 
L 389.572412 235.950977 
L 392.851748 235.950977 
L 396.131084 235.950977 
L 399.41042 235.950977 
L 399.41042 227.885071 
L 399.41042 227.885071 
L 396.131084 234.503909 
L 392.851748 237.668331 
L 389.572412 238.611984 
L 386.293076 238.249384 
L 383.01374 237.237279 
L 379.734404 236.027221 
L 376.455069 234.91026 
L 373.175733 234.054618 
L 369.896397 233.537133 
L 366.617061 233.369206 
L 363.337725 233.517912 
L 360.058389 233.922896 
L 356.779053 234.509621 
L 353.499717 235.199478 
L 350.220381 235.917222 
L 346.941045 236.59616 
L 343.661709 237.181467 
L 340.382374 237.631978 
L 337.103038 237.920752 
L 333.823702 238.034673 
L 330.544366 237.973345 
L 327.26503 237.747451 
L 323.985694 237.376793 
L 320.706358 236.888135 
L 317.427022 236.312986 
L 314.147686 235.685433 
L 310.86835 235.040099 
L 307.589014 234.410299 
L 304.309679 233.82644 
L 301.030343 233.314698 
L 297.751007 232.895998 
L 294.471671 232.585294 
L 291.192335 232.39116 
L 287.912999 232.315675 
L 284.633663 232.354583 
L 281.354327 232.497696 
L 278.074991 232.729528 
L 274.795655 233.030106 
L 271.516319 233.375929 
L 268.236984 233.74104 
L 264.957648 234.098156 
L 261.678312 234.419837 
L 258.398976 234.679629 
L 255.11964 234.853173 
L 251.840304 234.919205 
L 248.560968 234.860462 
L 245.281632 234.664416 
L 242.002296 234.323847 
L 238.72296 235.948933 
L 235.443624 235.948232 
L 232.164289 233.750658 
L 228.884953 232.437987 
L 225.605617 230.97593 
L 222.326281 229.412281 
L 219.046945 227.80024 
L 215.767609 226.196216 
L 212.488273 224.657353 
L 209.208937 223.238883 
L 205.929601 221.991348 
L 202.650265 220.957802 
L 199.370929 220.171064 
L 196.091593 219.65113 
L 192.812258 219.402826 
L 189.532922 219.41383 
L 186.253586 219.653129 
L 182.97425 220.070037 
L 179.694914 220.593852 
L 176.415578 221.134244 
L 173.136242 221.582449 
L 169.856906 221.813333 
L 166.57757 221.688373 
L 163.298234 221.059591 
L 160.018898 219.774441 
L 156.739563 217.681637 
L 153.460227 214.637876 
L 150.180891 210.515373 
L 146.901555 205.210095 
L 143.622219 198.650535 
L 140.342883 190.806829 
L 137.063547 181.699952 
L 133.784211 171.410701 
L 130.504875 160.088086 
L 127.225539 147.956704 
L 123.946203 135.322595 
L 120.666868 122.577007 
L 117.387532 110.197405 
L 114.108196 98.744996 
L 110.82886 88.857918 
L 107.549524 81.239177 
L 104.270188 76.638286 
L 100.990852 75.825453 
L 97.711516 79.557074 
L 94.43218 88.531106 
L 91.152844 103.33084 
L 87.873508 124.355383 
L 84.594173 151.735062 
L 81.314837 185.229787 
L 78.035501 224.108259 
L 74.756165 267.005734 
z
" clip-path="url(#p25bfdade9b)" style="fill: #1f77b4; fill-opacity: 0.166667"/>
   </g>
   <g id="PolyCollection_2">
    <path d="M 74.756165 236.030512 
L 74.756165 235.950977 
L 78.035495 235.950977 
L 81.314825 235.950977 
L 84.594156 235.950977 
L 87.873486 235.950977 
L 91.152816 235.950977 
L 94.432146 235.950977 
L 97.711476 235.950977 
L 100.990807 235.950977 
L 104.270137 235.950977 
L 107.549467 235.950977 
L 110.828797 235.950977 
L 114.108128 235.950977 
L 117.387458 235.950977 
L 120.666788 235.950977 
L 123.946118 235.950977 
L 127.225449 235.950977 
L 130.504779 235.950977 
L 133.784109 235.950977 
L 137.063439 235.950977 
L 140.34277 235.950977 
L 143.6221 235.950977 
L 146.90143 235.950977 
L 150.18076 235.950977 
L 153.460091 235.950977 
L 156.739421 235.950977 
L 160.018751 235.950977 
L 163.298081 235.950977 
L 166.577412 235.950977 
L 169.856742 235.950977 
L 173.136072 235.950977 
L 176.415402 235.950977 
L 179.694733 235.950977 
L 182.974063 235.950977 
L 186.253393 235.950977 
L 189.532723 235.950977 
L 192.812054 235.950977 
L 196.091384 235.950977 
L 199.370714 235.950977 
L 202.650044 235.950977 
L 205.929374 235.950977 
L 209.208705 235.950977 
L 212.488035 235.950977 
L 215.767365 235.950977 
L 219.046695 235.950977 
L 222.326026 235.950977 
L 225.605356 235.950977 
L 228.884686 235.950977 
L 232.164016 235.950977 
L 235.443347 235.950977 
L 238.722677 235.950977 
L 242.002007 235.950977 
L 245.281337 235.950977 
L 248.560668 235.950977 
L 251.839998 235.950977 
L 255.119328 235.950977 
L 258.398658 235.950977 
L 261.677989 235.950977 
L 264.957319 235.950977 
L 268.236649 235.950977 
L 271.515979 235.950977 
L 274.79531 235.950977 
L 278.07464 235.950977 
L 281.35397 235.950977 
L 284.6333 235.950977 
L 287.912631 235.950977 
L 291.191961 235.950977 
L 294.471291 235.950977 
L 297.750621 235.950977 
L 301.029952 235.950977 
L 304.309282 235.950977 
L 307.588612 235.950977 
L 310.867942 235.950977 
L 314.147272 235.950977 
L 317.426603 235.950977 
L 320.705933 235.950977 
L 323.985263 235.950977 
L 327.264593 235.950977 
L 330.543924 235.950977 
L 333.823254 235.950977 
L 337.102584 235.950977 
L 340.381914 235.950977 
L 343.661245 235.950977 
L 346.940575 235.950977 
L 350.219905 235.950977 
L 353.499235 235.950977 
L 356.778566 235.950977 
L 360.057896 235.950977 
L 363.337226 235.950977 
L 366.616556 235.950977 
L 369.895887 235.950977 
L 373.175217 235.950977 
L 376.454547 235.950977 
L 379.733877 235.950977 
L 383.013208 235.950977 
L 386.292538 235.950977 
L 389.571868 235.950977 
L 392.851198 235.950977 
L 396.130529 235.950977 
L 399.409859 235.950977 
L 399.409859 236.000586 
L 399.409859 236.000586 
L 396.130529 235.449588 
L 392.851198 235.220329 
L 389.571868 235.264322 
L 386.292538 235.514781 
L 383.013208 235.894719 
L 379.733877 236.323454 
L 376.454547 236.721728 
L 373.175217 237.015599 
L 369.895887 237.139303 
L 366.616556 237.037208 
L 363.337226 236.665017 
L 360.057896 235.990345 
L 356.778566 234.992762 
L 353.499235 233.663431 
L 350.219905 232.004409 
L 346.940575 230.027698 
L 343.661245 227.754119 
L 340.381914 225.212062 
L 337.102584 222.436174 
L 333.823254 219.466022 
L 330.543924 216.344769 
L 327.264593 213.117901 
L 323.985263 209.832025 
L 320.705933 206.533757 
L 317.426603 203.26872 
L 314.147272 200.080654 
L 310.867942 197.010654 
L 307.588612 194.096534 
L 304.309282 191.372317 
L 301.029952 188.867846 
L 297.750621 186.608518 
L 294.471291 184.615129 
L 291.191961 182.903817 
L 287.912631 181.486109 
L 284.6333 180.369037 
L 281.35397 179.55534 
L 278.07464 179.043712 
L 274.79531 178.829114 
L 271.515979 178.903105 
L 268.236649 179.254212 
L 264.957319 179.868311 
L 261.677989 180.729009 
L 258.398658 181.818023 
L 255.119328 183.115552 
L 251.839998 184.600619 
L 248.560668 186.251396 
L 245.281337 188.045492 
L 242.002007 189.960211 
L 238.722677 235.942949 
L 235.443347 235.943134 
L 232.164016 196.147526 
L 228.884686 198.314554 
L 225.605356 200.493425 
L 222.326026 202.662998 
L 219.046695 204.80252 
L 215.767365 206.891644 
L 212.488035 208.910445 
L 209.208705 210.839435 
L 205.929374 212.659594 
L 202.650044 214.352413 
L 199.370714 215.899963 
L 196.091384 217.285006 
L 192.812054 218.491133 
L 189.532723 219.502961 
L 186.253393 220.306368 
L 182.974063 220.888798 
L 179.694733 221.239612 
L 176.415402 221.350499 
L 173.136072 221.21595 
L 169.856742 220.833767 
L 166.577412 220.205636 
L 163.298081 219.337708 
L 160.018751 218.241217 
L 156.739421 216.933083 
L 153.460091 215.436489 
L 150.18076 213.781405 
L 146.90143 212.005018 
L 143.6221 210.152028 
L 140.34277 208.274762 
L 137.063439 206.433057 
L 133.784109 204.693835 
L 130.504779 203.13031 
L 127.225449 201.820747 
L 123.946118 200.846673 
L 120.666788 200.290446 
L 117.387458 200.232075 
L 114.108128 200.745158 
L 110.828797 201.891809 
L 107.549467 203.716429 
L 104.270137 206.238153 
L 100.990807 209.441795 
L 97.711476 213.267115 
L 94.432146 217.596183 
L 91.152816 222.238621 
L 87.873486 226.914496 
L 84.594156 231.234583 
L 81.314825 234.677733 
L 78.035495 236.565042 
L 74.756165 236.030512 
z
" clip-path="url(#p25bfdade9b)" style="fill: #ff7f0e; fill-opacity: 0.166667"/>
   </g>
   <g id="PolyCollection_3">
    <path d="M 74.756165 234.995413 
L 74.756165 235.950977 
L 78.035503 235.950977 
L 81.314842 235.950977 
L 84.59418 235.950977 
L 87.873519 235.950977 
L 91.152857 235.950977 
L 94.432195 235.950977 
L 97.711534 235.950977 
L 100.990872 235.950977 
L 104.270211 235.950977 
L 107.549549 235.950977 
L 110.828888 235.950977 
L 114.108226 235.950977 
L 117.387565 235.950977 
L 120.666903 235.950977 
L 123.946242 235.950977 
L 127.22558 235.950977 
L 130.504918 235.950977 
L 133.784257 235.950977 
L 137.063595 235.950977 
L 140.342934 235.950977 
L 143.622272 235.950977 
L 146.901611 235.950977 
L 150.180949 235.950977 
L 153.460288 235.950977 
L 156.739626 235.950977 
L 160.018965 235.950977 
L 163.298303 235.950977 
L 166.577641 235.950977 
L 169.85698 235.950977 
L 173.136318 235.950977 
L 176.415657 235.950977 
L 179.694995 235.950977 
L 182.974334 235.950977 
L 186.253672 235.950977 
L 189.533011 235.950977 
L 192.812349 235.950977 
L 196.091687 235.950977 
L 199.371026 235.950977 
L 202.650364 235.950977 
L 205.929703 235.950977 
L 209.209041 235.950977 
L 212.48838 235.950977 
L 215.767718 235.950977 
L 219.047057 235.950977 
L 222.326395 235.950977 
L 225.605734 235.950977 
L 228.885072 235.950977 
L 232.16441 235.950977 
L 235.443749 235.950977 
L 238.723087 235.950977 
L 242.002426 235.950977 
L 245.281764 235.950977 
L 248.561103 235.950977 
L 251.840441 235.950977 
L 255.11978 235.950977 
L 258.399118 235.950977 
L 261.678457 235.950977 
L 264.957795 235.950977 
L 268.237133 235.950977 
L 271.516472 235.950977 
L 274.79581 235.950977 
L 278.075149 235.950977 
L 281.354487 235.950977 
L 284.633826 235.950977 
L 287.913164 235.950977 
L 291.192503 235.950977 
L 294.471841 235.950977 
L 297.75118 235.950977 
L 301.030518 235.950977 
L 304.309856 235.950977 
L 307.589195 235.950977 
L 310.868533 235.950977 
L 314.147872 235.950977 
L 317.42721 235.950977 
L 320.706549 235.950977 
L 323.985887 235.950977 
L 327.265226 235.950977 
L 330.544564 235.950977 
L 333.823902 235.950977 
L 337.103241 235.950977 
L 340.382579 235.950977 
L 343.661918 235.950977 
L 346.941256 235.950977 
L 350.220595 235.950977 
L 353.499933 235.950977 
L 356.779272 235.950977 
L 360.05861 235.950977 
L 363.337949 235.950977 
L 366.617287 235.950977 
L 369.896625 235.950977 
L 373.175964 235.950977 
L 376.455302 235.950977 
L 379.734641 235.950977 
L 383.013979 235.950977 
L 386.293318 235.950977 
L 389.572656 235.950977 
L 392.851995 235.950977 
L 396.131333 235.950977 
L 399.410672 235.950977 
L 399.410672 231.594752 
L 399.410672 231.594752 
L 396.131333 233.595874 
L 392.851995 235.008865 
L 389.572656 235.955599 
L 386.293318 236.532423 
L 383.013979 236.814077 
L 379.734641 236.857209 
L 376.455302 236.703491 
L 373.175964 236.382401 
L 369.896625 235.913656 
L 366.617287 235.309369 
L 363.337949 234.575913 
L 360.05861 233.715542 
L 356.779272 232.727784 
L 353.499933 231.610613 
L 350.220595 230.361447 
L 346.941256 228.977956 
L 343.661918 227.458725 
L 340.382579 225.803769 
L 337.103241 224.014923 
L 333.823902 222.096118 
L 330.544564 220.053553 
L 327.265226 217.895785 
L 323.985887 215.633724 
L 320.706549 213.280577 
L 317.42721 210.851718 
L 314.147872 208.364513 
L 310.868533 205.8381 
L 307.589195 203.293131 
L 304.309856 200.75149 
L 301.030518 198.235984 
L 297.75118 195.770015 
L 294.471841 193.377254 
L 291.192503 191.08129 
L 287.913164 188.905296 
L 284.633826 186.871688 
L 281.354487 185.001796 
L 278.075149 183.315548 
L 274.79581 181.831169 
L 271.516472 180.564896 
L 268.237133 179.530726 
L 264.957795 178.740172 
L 261.678457 178.202067 
L 258.399118 177.922388 
L 255.11978 177.904112 
L 251.840441 178.147113 
L 248.561103 178.648096 
L 245.281764 179.400565 
L 242.002426 180.394834 
L 238.723087 235.942429 
L 235.443749 235.942563 
L 232.16441 184.543006 
L 228.885072 186.354777 
L 225.605734 188.322492 
L 222.326395 190.419164 
L 219.047057 192.615579 
L 215.767718 194.880692 
L 212.48838 197.182076 
L 209.209041 199.486417 
L 205.929703 201.76005 
L 202.650364 203.969529 
L 199.371026 206.082231 
L 196.091687 208.066971 
L 192.812349 209.89464 
L 189.533011 211.538833 
L 186.253672 212.976482 
L 182.974334 214.18846 
L 179.694995 215.160156 
L 176.415657 215.882013 
L 173.136318 216.349994 
L 169.85698 216.565998 
L 166.577641 216.538169 
L 163.298303 216.281124 
L 160.018965 215.816052 
L 156.739626 215.17069 
L 153.460288 214.379152 
L 150.180949 213.481591 
L 146.901611 212.523691 
L 143.622272 211.555958 
L 140.342934 210.632804 
L 137.063595 209.811413 
L 133.784257 209.150353 
L 130.504918 208.70795 
L 127.22558 208.540386 
L 123.946242 208.699517 
L 120.666903 209.230405 
L 117.387565 210.168535 
L 114.108226 211.536737 
L 110.828888 213.34177 
L 107.549549 215.570591 
L 104.270211 218.186288 
L 100.990872 221.123675 
L 97.711534 224.284558 
L 94.432195 227.532663 
L 91.152857 230.688232 
L 87.873519 233.522299 
L 84.59418 235.75065 
L 81.314842 237.027484 
L 78.035503 236.93878 
L 74.756165 234.995413 
z
" clip-path="url(#p25bfdade9b)" style="fill: #2ca02c; fill-opacity: 0.166667"/>
   </g>
   <g id="PolyCollection_4">
    <path d="M 74.756165 230.927957 
L 74.756165 235.950977 
L 77.89458 235.950977 
L 81.032996 235.950977 
L 84.171411 235.950977 
L 87.309827 235.950977 
L 90.448242 235.950977 
L 93.586658 235.950977 
L 96.725073 235.950977 
L 99.863489 235.950977 
L 103.001904 235.950977 
L 106.14032 235.950977 
L 109.278735 235.950977 
L 112.417151 235.950977 
L 115.555566 235.950977 
L 118.693982 235.950977 
L 121.832397 235.950977 
L 124.970813 235.950977 
L 128.109228 235.950977 
L 131.247643 235.950977 
L 134.386059 235.950977 
L 137.524474 235.950977 
L 140.66289 235.950977 
L 143.801305 235.950977 
L 146.939721 235.950977 
L 150.078136 235.950977 
L 153.216552 235.950977 
L 156.354967 235.950977 
L 159.493383 235.950977 
L 162.631798 235.950977 
L 165.770214 235.950977 
L 168.908629 235.950977 
L 172.047045 235.950977 
L 175.18546 235.950977 
L 178.323876 235.950977 
L 181.462291 235.950977 
L 184.600707 235.950977 
L 187.739122 235.950977 
L 190.877538 235.950977 
L 194.015953 235.950977 
L 197.154369 235.950977 
L 200.292784 235.950977 
L 203.4312 235.950977 
L 206.569615 235.950977 
L 209.708031 235.950977 
L 212.846446 235.950977 
L 215.984862 235.950977 
L 219.123277 235.950977 
L 222.261692 235.950977 
L 225.400108 235.950977 
L 228.538523 235.950977 
L 231.676939 235.950977 
L 234.815354 235.950977 
L 237.95377 235.950977 
L 241.092185 235.950977 
L 244.230601 235.950977 
L 247.369016 235.950977 
L 250.507432 235.950977 
L 253.645847 235.950977 
L 256.784263 235.950977 
L 259.922678 235.950977 
L 263.061094 235.950977 
L 266.199509 235.950977 
L 269.337925 235.950977 
L 272.47634 235.950977 
L 275.614756 235.950977 
L 278.753171 235.950977 
L 281.891587 235.950977 
L 285.030002 235.950977 
L 288.168418 235.950977 
L 291.306833 235.950977 
L 294.445249 235.950977 
L 297.583664 235.950977 
L 300.72208 235.950977 
L 303.860495 235.950977 
L 306.998911 235.950977 
L 310.137326 235.950977 
L 313.275741 235.950977 
L 316.414157 235.950977 
L 319.552572 235.950977 
L 322.690988 235.950977 
L 325.829403 235.950977 
L 328.967819 235.950977 
L 332.106234 235.950977 
L 335.24465 235.950977 
L 338.383065 235.950977 
L 341.521481 235.950977 
L 344.659896 235.950977 
L 347.798312 235.950977 
L 350.936727 235.950977 
L 354.075143 235.950977 
L 357.213558 235.950977 
L 360.351974 235.950977 
L 363.490389 235.950977 
L 366.628805 235.950977 
L 369.76722 235.950977 
L 372.905636 235.950977 
L 376.044051 235.950977 
L 379.182467 235.950977 
L 382.320882 235.950977 
L 385.459298 235.950977 
L 385.459298 234.514476 
L 385.459298 234.514476 
L 382.320882 236.447378 
L 379.182467 237.063404 
L 376.044051 236.943692 
L 372.905636 236.489185 
L 369.76722 235.960412 
L 366.628805 235.510879 
L 363.490389 235.214798 
L 360.351974 235.089852 
L 357.213558 235.115612 
L 354.075143 235.248191 
L 350.936727 235.431646 
L 347.798312 235.606606 
L 344.659896 235.716555 
L 341.521481 235.712155 
L 338.383065 235.55395 
L 335.24465 235.213766 
L 332.106234 234.675072 
L 328.967819 233.932541 
L 325.829403 232.991027 
L 322.690988 231.864127 
L 319.552572 230.572488 
L 316.414157 229.14199 
L 313.275741 227.601906 
L 310.137326 225.983128 
L 306.998911 224.31653 
L 303.860495 222.631516 
L 300.72208 220.954793 
L 297.583664 219.309389 
L 294.445249 217.713934 
L 291.306833 216.182192 
L 288.168418 214.722857 
L 285.030002 213.339582 
L 281.891587 212.031225 
L 278.753171 210.792289 
L 275.614756 209.613527 
L 272.47634 208.482675 
L 269.337925 207.385281 
L 266.199509 206.305604 
L 263.061094 205.227535 
L 259.922678 204.135511 
L 256.784263 203.015402 
L 253.645847 201.855324 
L 250.507432 200.646359 
L 247.369016 199.383158 
L 244.230601 198.064415 
L 241.092185 196.693175 
L 237.95377 195.276989 
L 234.815354 193.827895 
L 231.676939 235.942212 
L 228.538523 235.942257 
L 225.400108 189.369885 
L 222.261692 188.065498 
L 219.123277 186.845785 
L 215.984862 185.736385 
L 212.846446 184.762832 
L 209.708031 183.949626 
L 206.569615 183.319288 
L 203.4312 182.891405 
L 200.292784 182.681716 
L 197.154369 182.701264 
L 194.015953 182.955635 
L 190.877538 183.444343 
L 187.739122 184.160361 
L 184.600707 185.089854 
L 181.462291 186.212128 
L 178.323876 187.499828 
L 175.18546 188.91939 
L 172.047045 190.431788 
L 168.908629 191.993558 
L 165.770214 193.558118 
L 162.631798 195.077366 
L 159.493383 196.503549 
L 156.354967 197.791364 
L 153.216552 198.900252 
L 150.078136 199.796837 
L 146.939721 200.457426 
L 143.801305 200.870493 
L 140.66289 201.039035 
L 137.524474 200.982662 
L 134.386059 200.739295 
L 131.247643 200.366272 
L 128.109228 199.940675 
L 124.970813 199.558648 
L 121.832397 199.333446 
L 118.693982 199.391924 
L 115.555566 199.869143 
L 112.417151 200.900734 
L 109.278735 202.612616 
L 106.14032 205.107634 
L 103.001904 208.448624 
L 99.863489 212.637394 
L 96.725073 217.589022 
L 93.586658 223.100859 
L 90.448242 228.815557 
L 87.309827 234.177371 
L 84.171411 238.380959 
L 81.032996 240.311808 
L 77.89458 238.477376 
L 74.756165 230.927957 
z
" clip-path="url(#p25bfdade9b)" style="fill: #d62728; fill-opacity: 0.166667"/>
   </g>
   <g id="PolyCollection_5">
    <path d="M 74.756165 276.334125 
L 74.756165 235.950977 
L 78.035504 235.950977 
L 81.314842 235.950977 
L 84.594181 235.950977 
L 87.87352 235.950977 
L 91.152859 235.950977 
L 94.432198 235.950977 
L 97.711537 235.950977 
L 100.990876 235.950977 
L 104.270214 235.950977 
L 107.549553 235.950977 
L 110.828892 235.950977 
L 114.108231 235.950977 
L 117.38757 235.950977 
L 120.666909 235.950977 
L 123.946247 235.950977 
L 127.225586 235.950977 
L 130.504925 235.950977 
L 133.784264 235.950977 
L 137.063603 235.950977 
L 140.342942 235.950977 
L 143.62228 235.950977 
L 146.901619 235.950977 
L 150.180958 235.950977 
L 153.460297 235.950977 
L 156.739636 235.950977 
L 160.018975 235.950977 
L 163.298314 235.950977 
L 166.577652 235.950977 
L 169.856991 235.950977 
L 173.13633 235.950977 
L 176.415669 235.950977 
L 179.695008 235.950977 
L 182.974347 235.950977 
L 186.253685 235.950977 
L 189.533024 235.950977 
L 192.812363 235.950977 
L 196.091702 235.950977 
L 199.371041 235.950977 
L 202.65038 235.950977 
L 205.929718 235.950977 
L 209.209057 235.950977 
L 212.488396 235.950977 
L 215.767735 235.950977 
L 219.047074 235.950977 
L 222.326413 235.950977 
L 225.605752 235.950977 
L 228.88509 235.950977 
L 232.164429 235.950977 
L 235.443768 235.950977 
L 238.723107 235.950977 
L 242.002446 235.950977 
L 245.281785 235.950977 
L 248.561123 235.950977 
L 251.840462 235.950977 
L 255.119801 235.950977 
L 258.39914 235.950977 
L 261.678479 235.950977 
L 264.957818 235.950977 
L 268.237157 235.950977 
L 271.516495 235.950977 
L 274.795834 235.950977 
L 278.075173 235.950977 
L 281.354512 235.950977 
L 284.633851 235.950977 
L 287.91319 235.950977 
L 291.192528 235.950977 
L 294.471867 235.950977 
L 297.751206 235.950977 
L 301.030545 235.950977 
L 304.309884 235.950977 
L 307.589223 235.950977 
L 310.868561 235.950977 
L 314.1479 235.950977 
L 317.427239 235.950977 
L 320.706578 235.950977 
L 323.985917 235.950977 
L 327.265256 235.950977 
L 330.544595 235.950977 
L 333.823933 235.950977 
L 337.103272 235.950977 
L 340.382611 235.950977 
L 343.66195 235.950977 
L 346.941289 235.950977 
L 350.220628 235.950977 
L 353.499966 235.950977 
L 356.779305 235.950977 
L 360.058644 235.950977 
L 363.337983 235.950977 
L 366.617322 235.950977 
L 369.896661 235.950977 
L 373.175999 235.950977 
L 376.455338 235.950977 
L 379.734677 235.950977 
L 383.014016 235.950977 
L 386.293355 235.950977 
L 389.572694 235.950977 
L 392.852033 235.950977 
L 396.131371 235.950977 
L 399.41071 235.950977 
L 399.41071 221.322943 
L 399.41071 221.322943 
L 396.131371 235.966348 
L 392.852033 242.342445 
L 389.572694 243.538001 
L 386.293355 241.81573 
L 383.014016 238.776953 
L 379.734677 235.500375 
L 376.455338 232.659537 
L 373.175999 230.621315 
L 369.896661 229.527668 
L 366.617322 229.362631 
L 363.337983 230.006416 
L 360.058644 231.278312 
L 356.779305 232.969923 
L 353.499966 234.870157 
L 350.220628 236.783228 
L 346.941289 238.540822 
L 343.66195 240.009446 
L 340.382611 241.09389 
L 337.103272 241.737601 
L 333.823933 241.920692 
L 330.544595 241.656211 
L 327.265256 240.985199 
L 323.985917 239.971026 
L 320.706578 238.693361 
L 317.427239 237.242133 
L 314.1479 235.711726 
L 310.868561 234.195625 
L 307.589223 232.781673 
L 304.309884 231.548051 
L 301.030545 230.56005 
L 297.751206 229.867683 
L 294.471867 229.504138 
L 291.192528 229.48505 
L 287.91319 229.808554 
L 284.633851 230.456049 
L 281.354512 231.393609 
L 278.075173 232.573929 
L 274.795834 233.938728 
L 271.516495 235.421492 
L 268.237157 236.950446 
L 264.957818 238.451658 
L 261.678479 239.852149 
L 258.39914 241.082924 
L 255.119801 242.081812 
L 251.840462 242.796031 
L 248.561123 243.184398 
L 245.281785 243.219107 
L 242.002446 242.887029 
L 238.723107 235.948284 
L 235.443768 235.947434 
L 232.164429 241.82563 
L 228.88509 239.653509 
L 225.605752 237.187922 
L 222.326413 234.530064 
L 219.047074 231.792865 
L 215.767735 229.096545 
L 212.488396 226.563655 
L 209.209057 224.31374 
L 205.929718 222.457781 
L 202.65038 221.092565 
L 199.371041 220.295188 
L 196.091702 220.117872 
L 192.812363 220.583281 
L 189.533024 221.680555 
L 186.253685 223.362242 
L 182.974347 225.542329 
L 179.695008 228.095545 
L 176.415669 230.858104 
L 173.13633 233.630028 
L 169.856991 236.17916 
L 166.577652 238.246955 
L 163.298314 239.556084 
L 160.018975 239.81984 
L 156.739636 238.753294 
L 153.460297 236.086063 
L 150.180958 231.576511 
L 146.901619 225.027092 
L 143.62228 216.30049 
L 140.342942 205.336084 
L 137.063603 192.166194 
L 133.784264 176.931407 
L 130.504925 159.894196 
L 127.225586 141.44988 
L 123.946247 122.13385 
L 120.666909 102.623796 
L 117.38757 83.735542 
L 114.108231 66.410869 
L 110.828892 51.695557 
L 107.549553 40.705622 
L 104.270214 34.579561 
L 100.990876 34.414125 
L 97.711537 41.180945 
L 94.432198 55.621039 
L 91.152859 78.113982 
L 87.87352 108.518198 
L 84.594181 145.978568 
L 81.314842 188.697189 
L 78.035504 233.662812 
L 74.756165 276.334125 
z
" clip-path="url(#p25bfdade9b)" style="fill: #9467bd; fill-opacity: 0.166667"/>
   </g>
   <g id="PolyCollection_6">
    <path d="M 74.756165 239.282688 
L 74.756165 235.950977 
L 78.035499 235.950977 
L 81.314833 235.950977 
L 84.594168 235.950977 
L 87.873502 235.950977 
L 91.152837 235.950977 
L 94.432171 235.950977 
L 97.711505 235.950977 
L 100.99084 235.950977 
L 104.270174 235.950977 
L 107.549508 235.950977 
L 110.828843 235.950977 
L 114.108177 235.950977 
L 117.387511 235.950977 
L 120.666846 235.950977 
L 123.94618 235.950977 
L 127.225514 235.950977 
L 130.504849 235.950977 
L 133.784183 235.950977 
L 137.063517 235.950977 
L 140.342852 235.950977 
L 143.622186 235.950977 
L 146.90152 235.950977 
L 150.180855 235.950977 
L 153.460189 235.950977 
L 156.739523 235.950977 
L 160.018858 235.950977 
L 163.298192 235.950977 
L 166.577526 235.950977 
L 169.856861 235.950977 
L 173.136195 235.950977 
L 176.41553 235.950977 
L 179.694864 235.950977 
L 182.974198 235.950977 
L 186.253533 235.950977 
L 189.532867 235.950977 
L 192.812201 235.950977 
L 196.091536 235.950977 
L 199.37087 235.950977 
L 202.650204 235.950977 
L 205.929539 235.950977 
L 209.208873 235.950977 
L 212.488207 235.950977 
L 215.767542 235.950977 
L 219.046876 235.950977 
L 222.32621 235.950977 
L 225.605545 235.950977 
L 228.884879 235.950977 
L 232.164213 235.950977 
L 235.443548 235.950977 
L 238.722882 235.950977 
L 242.002216 235.950977 
L 245.281551 235.950977 
L 248.560885 235.950977 
L 251.84022 235.950977 
L 255.119554 235.950977 
L 258.398888 235.950977 
L 261.678223 235.950977 
L 264.957557 235.950977 
L 268.236891 235.950977 
L 271.516226 235.950977 
L 274.79556 235.950977 
L 278.074894 235.950977 
L 281.354229 235.950977 
L 284.633563 235.950977 
L 287.912897 235.950977 
L 291.192232 235.950977 
L 294.471566 235.950977 
L 297.7509 235.950977 
L 301.030235 235.950977 
L 304.309569 235.950977 
L 307.588903 235.950977 
L 310.868238 235.950977 
L 314.147572 235.950977 
L 317.426906 235.950977 
L 320.706241 235.950977 
L 323.985575 235.950977 
L 327.26491 235.950977 
L 330.544244 235.950977 
L 333.823578 235.950977 
L 337.102913 235.950977 
L 340.382247 235.950977 
L 343.661581 235.950977 
L 346.940916 235.950977 
L 350.22025 235.950977 
L 353.499584 235.950977 
L 356.778919 235.950977 
L 360.058253 235.950977 
L 363.337587 235.950977 
L 366.616922 235.950977 
L 369.896256 235.950977 
L 373.17559 235.950977 
L 376.454925 235.950977 
L 379.734259 235.950977 
L 383.013593 235.950977 
L 386.292928 235.950977 
L 389.572262 235.950977 
L 392.851596 235.950977 
L 396.130931 235.950977 
L 399.410265 235.950977 
L 399.410265 235.751596 
L 399.410265 235.751596 
L 396.130931 234.588939 
L 392.851596 234.52334 
L 389.572262 235.043265 
L 386.292928 235.790654 
L 383.013593 236.527424 
L 379.734259 237.107286 
L 376.454925 237.452268 
L 373.17559 237.533403 
L 369.896256 237.355067 
L 366.616922 236.942495 
L 363.337587 236.332049 
L 360.058253 235.563862 
L 356.778919 234.676472 
L 353.499584 233.703163 
L 350.22025 232.66969 
L 346.940916 231.593148 
L 343.661581 230.481758 
L 340.382247 229.335342 
L 337.102913 228.14633 
L 333.823578 226.901139 
L 330.544244 225.58177 
L 327.26491 224.167533 
L 323.985575 222.636788 
L 320.706241 220.96862 
L 317.426906 219.144392 
L 314.147572 217.149127 
L 310.868238 214.972663 
L 307.588903 212.610582 
L 304.309569 210.064871 
L 301.030235 207.344336 
L 297.7509 204.464741 
L 294.471566 201.448704 
L 291.192232 198.325358 
L 287.912897 195.129788 
L 284.633563 191.902287 
L 281.354229 188.687434 
L 278.074894 185.533047 
L 274.79556 182.489031 
L 271.516226 179.606148 
L 268.236891 176.93476 
L 264.957557 174.523553 
L 261.678223 172.4183 
L 258.398888 170.660671 
L 255.119554 169.28713 
L 251.84022 168.327945 
L 248.560885 167.806325 
L 245.281551 167.737714 
L 242.002216 168.12926 
L 238.722882 235.942556 
L 235.443548 235.942566 
L 232.164213 172.034068 
L 228.884879 174.110911 
L 225.605545 176.553784 
L 222.32621 179.321913 
L 219.046876 182.367838 
L 215.767542 185.638301 
L 212.488207 189.075278 
L 209.208873 192.617148 
L 205.929539 196.199972 
L 202.650204 199.758861 
L 199.37087 203.229409 
L 196.091536 206.549152 
L 192.812201 209.659039 
L 189.532867 212.504865 
L 186.253533 215.038644 
L 182.974198 217.219894 
L 179.694864 219.016776 
L 176.41553 220.407089 
L 173.136195 221.379054 
L 169.856861 221.931885 
L 166.577526 222.076102 
L 163.298192 221.83357 
L 160.018858 221.237247 
L 156.739523 220.33061 
L 153.460189 219.166779 
L 150.180855 217.807298 
L 146.90152 216.32062 
L 143.622186 214.780281 
L 140.342852 213.262793 
L 137.063517 211.845303 
L 133.784183 210.603052 
L 130.504849 209.6067 
L 127.225514 208.919592 
L 123.94618 208.595053 
L 120.666846 208.673821 
L 117.387511 209.181753 
L 114.108177 210.127925 
L 110.828843 211.503327 
L 107.549508 213.280313 
L 104.270174 215.41304 
L 100.99084 217.839125 
L 97.711505 220.482791 
L 94.432171 223.259802 
L 91.152837 226.084509 
L 87.873502 228.879365 
L 84.594168 231.587313 
L 81.314833 234.187469 
L 78.035499 236.714567 
L 74.756165 239.282688 
z
" clip-path="url(#p25bfdade9b)" style="fill: #8c564b; fill-opacity: 0.166667"/>
   </g>
   <g id="matplotlib.axis_1">
    <g id="xtick_1">
     <g id="line2d_1">
      <defs>
       <path id="m45c025b805" d="M 0 0 
L 0 3.5 
" style="stroke: #000000; stroke-width: 0.8"/>
      </defs>
      <g>
       <use xlink:href="#m45c025b805" x="74.756165" y="288.430125" style="stroke: #000000; stroke-width: 0.8"/>
      </g>
     </g>
     <g id="text_1">
      <!-- 0.0 -->
      <g transform="translate(66.804602 303.028562) scale(0.1 -0.1)">
       <defs>
        <path id="DejaVuSans-30" d="M 2034 4250 
Q 1547 4250 1301 3770 
Q 1056 3291 1056 2328 
Q 1056 1369 1301 889 
Q 1547 409 2034 409 
Q 2525 409 2770 889 
Q 3016 1369 3016 2328 
Q 3016 3291 2770 3770 
Q 2525 4250 2034 4250 
z
M 2034 4750 
Q 2819 4750 3233 4129 
Q 3647 3509 3647 2328 
Q 3647 1150 3233 529 
Q 2819 -91 2034 -91 
Q 1250 -91 836 529 
Q 422 1150 422 2328 
Q 422 3509 836 4129 
Q 1250 4750 2034 4750 
z
" transform="scale(0.015625)"/>
        <path id="DejaVuSans-2e" d="M 684 794 
L 1344 794 
L 1344 0 
L 684 0 
L 684 794 
z
" transform="scale(0.015625)"/>
       </defs>
       <use xlink:href="#DejaVuSans-30"/>
       <use xlink:href="#DejaVuSans-2e" x="63.623047"/>
       <use xlink:href="#DejaVuSans-30" x="95.410156"/>
      </g>
     </g>
    </g>
    <g id="xtick_2">
     <g id="line2d_2">
      <g>
       <use xlink:href="#m45c025b805" x="140.342942" y="288.430125" style="stroke: #000000; stroke-width: 0.8"/>
      </g>
     </g>
     <g id="text_2">
      <!-- 0.2 -->
      <g transform="translate(132.391379 303.028562) scale(0.1 -0.1)">
       <defs>
        <path id="DejaVuSans-32" d="M 1228 531 
L 3431 531 
L 3431 0 
L 469 0 
L 469 531 
Q 828 903 1448 1529 
Q 2069 2156 2228 2338 
Q 2531 2678 2651 2914 
Q 2772 3150 2772 3378 
Q 2772 3750 2511 3984 
Q 2250 4219 1831 4219 
Q 1534 4219 1204 4116 
Q 875 4013 500 3803 
L 500 4441 
Q 881 4594 1212 4672 
Q 1544 4750 1819 4750 
Q 2544 4750 2975 4387 
Q 3406 4025 3406 3419 
Q 3406 3131 3298 2873 
Q 3191 2616 2906 2266 
Q 2828 2175 2409 1742 
Q 1991 1309 1228 531 
z
" transform="scale(0.015625)"/>
       </defs>
       <use xlink:href="#DejaVuSans-30"/>
       <use xlink:href="#DejaVuSans-2e" x="63.623047"/>
       <use xlink:href="#DejaVuSans-32" x="95.410156"/>
      </g>
     </g>
    </g>
    <g id="xtick_3">
     <g id="line2d_3">
      <g>
       <use xlink:href="#m45c025b805" x="205.929718" y="288.430125" style="stroke: #000000; stroke-width: 0.8"/>
      </g>
     </g>
     <g id="text_3">
      <!-- 0.4 -->
      <g transform="translate(197.978156 303.028562) scale(0.1 -0.1)">
       <defs>
        <path id="DejaVuSans-34" d="M 2419 4116 
L 825 1625 
L 2419 1625 
L 2419 4116 
z
M 2253 4666 
L 3047 4666 
L 3047 1625 
L 3713 1625 
L 3713 1100 
L 3047 1100 
L 3047 0 
L 2419 0 
L 2419 1100 
L 313 1100 
L 313 1709 
L 2253 4666 
z
" transform="scale(0.015625)"/>
       </defs>
       <use xlink:href="#DejaVuSans-30"/>
       <use xlink:href="#DejaVuSans-2e" x="63.623047"/>
       <use xlink:href="#DejaVuSans-34" x="95.410156"/>
      </g>
     </g>
    </g>
    <g id="xtick_4">
     <g id="line2d_4">
      <g>
       <use xlink:href="#m45c025b805" x="271.516495" y="288.430125" style="stroke: #000000; stroke-width: 0.8"/>
      </g>
     </g>
     <g id="text_4">
      <!-- 0.6 -->
      <g transform="translate(263.564933 303.028562) scale(0.1 -0.1)">
       <defs>
        <path id="DejaVuSans-36" d="M 2113 2584 
Q 1688 2584 1439 2293 
Q 1191 2003 1191 1497 
Q 1191 994 1439 701 
Q 1688 409 2113 409 
Q 2538 409 2786 701 
Q 3034 994 3034 1497 
Q 3034 2003 2786 2293 
Q 2538 2584 2113 2584 
z
M 3366 4563 
L 3366 3988 
Q 3128 4100 2886 4159 
Q 2644 4219 2406 4219 
Q 1781 4219 1451 3797 
Q 1122 3375 1075 2522 
Q 1259 2794 1537 2939 
Q 1816 3084 2150 3084 
Q 2853 3084 3261 2657 
Q 3669 2231 3669 1497 
Q 3669 778 3244 343 
Q 2819 -91 2113 -91 
Q 1303 -91 875 529 
Q 447 1150 447 2328 
Q 447 3434 972 4092 
Q 1497 4750 2381 4750 
Q 2619 4750 2861 4703 
Q 3103 4656 3366 4563 
z
" transform="scale(0.015625)"/>
       </defs>
       <use xlink:href="#DejaVuSans-30"/>
       <use xlink:href="#DejaVuSans-2e" x="63.623047"/>
       <use xlink:href="#DejaVuSans-36" x="95.410156"/>
      </g>
     </g>
    </g>
    <g id="xtick_5">
     <g id="line2d_5">
      <g>
       <use xlink:href="#m45c025b805" x="337.103272" y="288.430125" style="stroke: #000000; stroke-width: 0.8"/>
      </g>
     </g>
     <g id="text_5">
      <!-- 0.8 -->
      <g transform="translate(329.15171 303.028562) scale(0.1 -0.1)">
       <defs>
        <path id="DejaVuSans-38" d="M 2034 2216 
Q 1584 2216 1326 1975 
Q 1069 1734 1069 1313 
Q 1069 891 1326 650 
Q 1584 409 2034 409 
Q 2484 409 2743 651 
Q 3003 894 3003 1313 
Q 3003 1734 2745 1975 
Q 2488 2216 2034 2216 
z
M 1403 2484 
Q 997 2584 770 2862 
Q 544 3141 544 3541 
Q 544 4100 942 4425 
Q 1341 4750 2034 4750 
Q 2731 4750 3128 4425 
Q 3525 4100 3525 3541 
Q 3525 3141 3298 2862 
Q 3072 2584 2669 2484 
Q 3125 2378 3379 2068 
Q 3634 1759 3634 1313 
Q 3634 634 3220 271 
Q 2806 -91 2034 -91 
Q 1263 -91 848 271 
Q 434 634 434 1313 
Q 434 1759 690 2068 
Q 947 2378 1403 2484 
z
M 1172 3481 
Q 1172 3119 1398 2916 
Q 1625 2713 2034 2713 
Q 2441 2713 2670 2916 
Q 2900 3119 2900 3481 
Q 2900 3844 2670 4047 
Q 2441 4250 2034 4250 
Q 1625 4250 1398 4047 
Q 1172 3844 1172 3481 
z
" transform="scale(0.015625)"/>
       </defs>
       <use xlink:href="#DejaVuSans-30"/>
       <use xlink:href="#DejaVuSans-2e" x="63.623047"/>
       <use xlink:href="#DejaVuSans-38" x="95.410156"/>
      </g>
     </g>
    </g>
    <g id="xtick_6">
     <g id="line2d_6">
      <g>
       <use xlink:href="#m45c025b805" x="402.690049" y="288.430125" style="stroke: #000000; stroke-width: 0.8"/>
      </g>
     </g>
     <g id="text_6">
      <!-- 1.0 -->
      <g transform="translate(394.738487 303.028562) scale(0.1 -0.1)">
       <defs>
        <path id="DejaVuSans-31" d="M 794 531 
L 1825 531 
L 1825 4091 
L 703 3866 
L 703 4441 
L 1819 4666 
L 2450 4666 
L 2450 531 
L 3481 531 
L 3481 0 
L 794 0 
L 794 531 
z
" transform="scale(0.015625)"/>
       </defs>
       <use xlink:href="#DejaVuSans-31"/>
       <use xlink:href="#DejaVuSans-2e" x="63.623047"/>
       <use xlink:href="#DejaVuSans-30" x="95.410156"/>
      </g>
     </g>
    </g>
    <g id="text_7">
     <!-- Pixel values -->
     <g transform="translate(207.671719 316.706687) scale(0.1 -0.1)">
      <defs>
       <path id="DejaVuSans-50" d="M 1259 4147 
L 1259 2394 
L 2053 2394 
Q 2494 2394 2734 2622 
Q 2975 2850 2975 3272 
Q 2975 3691 2734 3919 
Q 2494 4147 2053 4147 
L 1259 4147 
z
M 628 4666 
L 2053 4666 
Q 2838 4666 3239 4311 
Q 3641 3956 3641 3272 
Q 3641 2581 3239 2228 
Q 2838 1875 2053 1875 
L 1259 1875 
L 1259 0 
L 628 0 
L 628 4666 
z
" transform="scale(0.015625)"/>
       <path id="DejaVuSans-69" d="M 603 3500 
L 1178 3500 
L 1178 0 
L 603 0 
L 603 3500 
z
M 603 4863 
L 1178 4863 
L 1178 4134 
L 603 4134 
L 603 4863 
z
" transform="scale(0.015625)"/>
       <path id="DejaVuSans-78" d="M 3513 3500 
L 2247 1797 
L 3578 0 
L 2900 0 
L 1881 1375 
L 863 0 
L 184 0 
L 1544 1831 
L 300 3500 
L 978 3500 
L 1906 2253 
L 2834 3500 
L 3513 3500 
z
" transform="scale(0.015625)"/>
       <path id="DejaVuSans-65" d="M 3597 1894 
L 3597 1613 
L 953 1613 
Q 991 1019 1311 708 
Q 1631 397 2203 397 
Q 2534 397 2845 478 
Q 3156 559 3463 722 
L 3463 178 
Q 3153 47 2828 -22 
Q 2503 -91 2169 -91 
Q 1331 -91 842 396 
Q 353 884 353 1716 
Q 353 2575 817 3079 
Q 1281 3584 2069 3584 
Q 2775 3584 3186 3129 
Q 3597 2675 3597 1894 
z
M 3022 2063 
Q 3016 2534 2758 2815 
Q 2500 3097 2075 3097 
Q 1594 3097 1305 2825 
Q 1016 2553 972 2059 
L 3022 2063 
z
" transform="scale(0.015625)"/>
       <path id="DejaVuSans-6c" d="M 603 4863 
L 1178 4863 
L 1178 0 
L 603 0 
L 603 4863 
z
" transform="scale(0.015625)"/>
       <path id="DejaVuSans-20" transform="scale(0.015625)"/>
       <path id="DejaVuSans-76" d="M 191 3500 
L 800 3500 
L 1894 563 
L 2988 3500 
L 3597 3500 
L 2284 0 
L 1503 0 
L 191 3500 
z
" transform="scale(0.015625)"/>
       <path id="DejaVuSans-61" d="M 2194 1759 
Q 1497 1759 1228 1600 
Q 959 1441 959 1056 
Q 959 750 1161 570 
Q 1363 391 1709 391 
Q 2188 391 2477 730 
Q 2766 1069 2766 1631 
L 2766 1759 
L 2194 1759 
z
M 3341 1997 
L 3341 0 
L 2766 0 
L 2766 531 
Q 2569 213 2275 61 
Q 1981 -91 1556 -91 
Q 1019 -91 701 211 
Q 384 513 384 1019 
Q 384 1609 779 1909 
Q 1175 2209 1959 2209 
L 2766 2209 
L 2766 2266 
Q 2766 2663 2505 2880 
Q 2244 3097 1772 3097 
Q 1472 3097 1187 3025 
Q 903 2953 641 2809 
L 641 3341 
Q 956 3463 1253 3523 
Q 1550 3584 1831 3584 
Q 2591 3584 2966 3190 
Q 3341 2797 3341 1997 
z
" transform="scale(0.015625)"/>
       <path id="DejaVuSans-75" d="M 544 1381 
L 544 3500 
L 1119 3500 
L 1119 1403 
Q 1119 906 1312 657 
Q 1506 409 1894 409 
Q 2359 409 2629 706 
Q 2900 1003 2900 1516 
L 2900 3500 
L 3475 3500 
L 3475 0 
L 2900 0 
L 2900 538 
Q 2691 219 2414 64 
Q 2138 -91 1772 -91 
Q 1169 -91 856 284 
Q 544 659 544 1381 
z
M 1991 3584 
L 1991 3584 
z
" transform="scale(0.015625)"/>
       <path id="DejaVuSans-73" d="M 2834 3397 
L 2834 2853 
Q 2591 2978 2328 3040 
Q 2066 3103 1784 3103 
Q 1356 3103 1142 2972 
Q 928 2841 928 2578 
Q 928 2378 1081 2264 
Q 1234 2150 1697 2047 
L 1894 2003 
Q 2506 1872 2764 1633 
Q 3022 1394 3022 966 
Q 3022 478 2636 193 
Q 2250 -91 1575 -91 
Q 1294 -91 989 -36 
Q 684 19 347 128 
L 347 722 
Q 666 556 975 473 
Q 1284 391 1588 391 
Q 1994 391 2212 530 
Q 2431 669 2431 922 
Q 2431 1156 2273 1281 
Q 2116 1406 1581 1522 
L 1381 1569 
Q 847 1681 609 1914 
Q 372 2147 372 2553 
Q 372 3047 722 3315 
Q 1072 3584 1716 3584 
Q 2034 3584 2315 3537 
Q 2597 3491 2834 3397 
z
" transform="scale(0.015625)"/>
      </defs>
      <use xlink:href="#DejaVuSans-50"/>
      <use xlink:href="#DejaVuSans-69" x="58.052734"/>
      <use xlink:href="#DejaVuSans-78" x="85.835938"/>
      <use xlink:href="#DejaVuSans-65" x="141.890625"/>
      <use xlink:href="#DejaVuSans-6c" x="203.414062"/>
      <use xlink:href="#DejaVuSans-20" x="231.197266"/>
      <use xlink:href="#DejaVuSans-76" x="262.984375"/>
      <use xlink:href="#DejaVuSans-61" x="322.164062"/>
      <use xlink:href="#DejaVuSans-6c" x="383.443359"/>
      <use xlink:href="#DejaVuSans-75" x="411.226562"/>
      <use xlink:href="#DejaVuSans-65" x="474.605469"/>
      <use xlink:href="#DejaVuSans-73" x="536.128906"/>
     </g>
    </g>
   </g>
   <g id="matplotlib.axis_2">
    <g id="ytick_1">
     <g id="line2d_7">
      <defs>
       <path id="m70e0aef576" d="M 0 0 
L -3.5 0 
" style="stroke: #000000; stroke-width: 0.8"/>
      </defs>
      <g>
       <use xlink:href="#m70e0aef576" x="58.523438" y="287.174383" style="stroke: #000000; stroke-width: 0.8"/>
      </g>
     </g>
     <g id="text_8">
      <!-- −0.02 -->
      <g transform="translate(20.878125 290.973602) scale(0.1 -0.1)">
       <defs>
        <path id="DejaVuSans-2212" d="M 678 2272 
L 4684 2272 
L 4684 1741 
L 678 1741 
L 678 2272 
z
" transform="scale(0.015625)"/>
       </defs>
       <use xlink:href="#DejaVuSans-2212"/>
       <use xlink:href="#DejaVuSans-30" x="83.789062"/>
       <use xlink:href="#DejaVuSans-2e" x="147.412109"/>
       <use xlink:href="#DejaVuSans-30" x="179.199219"/>
       <use xlink:href="#DejaVuSans-32" x="242.822266"/>
      </g>
     </g>
    </g>
    <g id="ytick_2">
     <g id="line2d_8">
      <g>
       <use xlink:href="#m70e0aef576" x="58.523438" y="235.950977" style="stroke: #000000; stroke-width: 0.8"/>
      </g>
     </g>
     <g id="text_9">
      <!-- 0.00 -->
      <g transform="translate(29.257813 239.750196) scale(0.1 -0.1)">
       <use xlink:href="#DejaVuSans-30"/>
       <use xlink:href="#DejaVuSans-2e" x="63.623047"/>
       <use xlink:href="#DejaVuSans-30" x="95.410156"/>
       <use xlink:href="#DejaVuSans-30" x="159.033203"/>
      </g>
     </g>
    </g>
    <g id="ytick_3">
     <g id="line2d_9">
      <g>
       <use xlink:href="#m70e0aef576" x="58.523438" y="184.727572" style="stroke: #000000; stroke-width: 0.8"/>
      </g>
     </g>
     <g id="text_10">
      <!-- 0.02 -->
      <g transform="translate(29.257813 188.526791) scale(0.1 -0.1)">
       <use xlink:href="#DejaVuSans-30"/>
       <use xlink:href="#DejaVuSans-2e" x="63.623047"/>
       <use xlink:href="#DejaVuSans-30" x="95.410156"/>
       <use xlink:href="#DejaVuSans-32" x="159.033203"/>
      </g>
     </g>
    </g>
    <g id="ytick_4">
     <g id="line2d_10">
      <g>
       <use xlink:href="#m70e0aef576" x="58.523438" y="133.504166" style="stroke: #000000; stroke-width: 0.8"/>
      </g>
     </g>
     <g id="text_11">
      <!-- 0.04 -->
      <g transform="translate(29.257813 137.303385) scale(0.1 -0.1)">
       <use xlink:href="#DejaVuSans-30"/>
       <use xlink:href="#DejaVuSans-2e" x="63.623047"/>
       <use xlink:href="#DejaVuSans-30" x="95.410156"/>
       <use xlink:href="#DejaVuSans-34" x="159.033203"/>
      </g>
     </g>
    </g>
    <g id="ytick_5">
     <g id="line2d_11">
      <g>
       <use xlink:href="#m70e0aef576" x="58.523438" y="82.280761" style="stroke: #000000; stroke-width: 0.8"/>
      </g>
     </g>
     <g id="text_12">
      <!-- 0.06 -->
      <g transform="translate(29.257813 86.07998) scale(0.1 -0.1)">
       <use xlink:href="#DejaVuSans-30"/>
       <use xlink:href="#DejaVuSans-2e" x="63.623047"/>
       <use xlink:href="#DejaVuSans-30" x="95.410156"/>
       <use xlink:href="#DejaVuSans-36" x="159.033203"/>
      </g>
     </g>
    </g>
    <g id="ytick_6">
     <g id="line2d_12">
      <g>
       <use xlink:href="#m70e0aef576" x="58.523438" y="31.057355" style="stroke: #000000; stroke-width: 0.8"/>
      </g>
     </g>
     <g id="text_13">
      <!-- 0.08 -->
      <g transform="translate(29.257813 34.856574) scale(0.1 -0.1)">
       <use xlink:href="#DejaVuSans-30"/>
       <use xlink:href="#DejaVuSans-2e" x="63.623047"/>
       <use xlink:href="#DejaVuSans-30" x="95.410156"/>
       <use xlink:href="#DejaVuSans-38" x="159.033203"/>
      </g>
     </g>
    </g>
    <g id="text_14">
     <!-- Frequency -->
     <g transform="translate(14.798438 181.203812) rotate(-90) scale(0.1 -0.1)">
      <defs>
       <path id="DejaVuSans-46" d="M 628 4666 
L 3309 4666 
L 3309 4134 
L 1259 4134 
L 1259 2759 
L 3109 2759 
L 3109 2228 
L 1259 2228 
L 1259 0 
L 628 0 
L 628 4666 
z
" transform="scale(0.015625)"/>
       <path id="DejaVuSans-72" d="M 2631 2963 
Q 2534 3019 2420 3045 
Q 2306 3072 2169 3072 
Q 1681 3072 1420 2755 
Q 1159 2438 1159 1844 
L 1159 0 
L 581 0 
L 581 3500 
L 1159 3500 
L 1159 2956 
Q 1341 3275 1631 3429 
Q 1922 3584 2338 3584 
Q 2397 3584 2469 3576 
Q 2541 3569 2628 3553 
L 2631 2963 
z
" transform="scale(0.015625)"/>
       <path id="DejaVuSans-71" d="M 947 1747 
Q 947 1113 1208 752 
Q 1469 391 1925 391 
Q 2381 391 2643 752 
Q 2906 1113 2906 1747 
Q 2906 2381 2643 2742 
Q 2381 3103 1925 3103 
Q 1469 3103 1208 2742 
Q 947 2381 947 1747 
z
M 2906 525 
Q 2725 213 2448 61 
Q 2172 -91 1784 -91 
Q 1150 -91 751 415 
Q 353 922 353 1747 
Q 353 2572 751 3078 
Q 1150 3584 1784 3584 
Q 2172 3584 2448 3432 
Q 2725 3281 2906 2969 
L 2906 3500 
L 3481 3500 
L 3481 -1331 
L 2906 -1331 
L 2906 525 
z
" transform="scale(0.015625)"/>
       <path id="DejaVuSans-6e" d="M 3513 2113 
L 3513 0 
L 2938 0 
L 2938 2094 
Q 2938 2591 2744 2837 
Q 2550 3084 2163 3084 
Q 1697 3084 1428 2787 
Q 1159 2491 1159 1978 
L 1159 0 
L 581 0 
L 581 3500 
L 1159 3500 
L 1159 2956 
Q 1366 3272 1645 3428 
Q 1925 3584 2291 3584 
Q 2894 3584 3203 3211 
Q 3513 2838 3513 2113 
z
" transform="scale(0.015625)"/>
       <path id="DejaVuSans-63" d="M 3122 3366 
L 3122 2828 
Q 2878 2963 2633 3030 
Q 2388 3097 2138 3097 
Q 1578 3097 1268 2742 
Q 959 2388 959 1747 
Q 959 1106 1268 751 
Q 1578 397 2138 397 
Q 2388 397 2633 464 
Q 2878 531 3122 666 
L 3122 134 
Q 2881 22 2623 -34 
Q 2366 -91 2075 -91 
Q 1284 -91 818 406 
Q 353 903 353 1747 
Q 353 2603 823 3093 
Q 1294 3584 2113 3584 
Q 2378 3584 2631 3529 
Q 2884 3475 3122 3366 
z
" transform="scale(0.015625)"/>
       <path id="DejaVuSans-79" d="M 2059 -325 
Q 1816 -950 1584 -1140 
Q 1353 -1331 966 -1331 
L 506 -1331 
L 506 -850 
L 844 -850 
Q 1081 -850 1212 -737 
Q 1344 -625 1503 -206 
L 1606 56 
L 191 3500 
L 800 3500 
L 1894 763 
L 2988 3500 
L 3597 3500 
L 2059 -325 
z
" transform="scale(0.015625)"/>
      </defs>
      <use xlink:href="#DejaVuSans-46"/>
      <use xlink:href="#DejaVuSans-72" x="50.269531"/>
      <use xlink:href="#DejaVuSans-65" x="89.132812"/>
      <use xlink:href="#DejaVuSans-71" x="150.65625"/>
      <use xlink:href="#DejaVuSans-75" x="214.132812"/>
      <use xlink:href="#DejaVuSans-65" x="277.511719"/>
      <use xlink:href="#DejaVuSans-6e" x="339.035156"/>
      <use xlink:href="#DejaVuSans-63" x="402.414062"/>
      <use xlink:href="#DejaVuSans-79" x="457.394531"/>
     </g>
    </g>
   </g>
   <g id="line2d_13">
    <path d="M 74.756165 267.005734 
L 78.035501 224.108259 
L 81.314837 185.229787 
L 84.594173 151.735062 
L 87.873508 124.355383 
L 91.152844 103.33084 
L 94.43218 88.531106 
L 97.711516 79.557074 
L 100.990852 75.825453 
L 104.270188 76.638286 
L 107.549524 81.239177 
L 110.82886 88.857918 
L 114.108196 98.744996 
L 117.387532 110.197405 
L 120.666868 122.577007 
L 123.946203 135.322595 
L 127.225539 147.956704 
L 130.504875 160.088086 
L 133.784211 171.410701 
L 137.063547 181.699952 
L 140.342883 190.806829 
L 143.622219 198.650535 
L 146.901555 205.210095 
L 150.180891 210.515373 
L 153.460227 214.637876 
L 156.739563 217.681637 
L 160.018898 219.774441 
L 163.298234 221.059591 
L 166.57757 221.688373 
L 169.856906 221.813333 
L 173.136242 221.582449 
L 176.415578 221.134244 
L 179.694914 220.593852 
L 182.97425 220.070037 
L 186.253586 219.653129 
L 189.532922 219.41383 
L 192.812258 219.402826 
L 196.091593 219.65113 
L 199.370929 220.171064 
L 202.650265 220.957802 
L 205.929601 221.991348 
L 209.208937 223.238883 
L 212.488273 224.657353 
L 215.767609 226.196216 
L 219.046945 227.80024 
L 222.326281 229.412281 
L 225.605617 230.97593 
L 228.884953 232.437987 
L 232.164289 233.750658 
L 235.443624 235.948232 
L 238.72296 235.948933 
L 242.002296 234.323847 
L 245.281632 234.664416 
L 248.560968 234.860462 
L 251.840304 234.919205 
L 255.11964 234.853173 
L 258.398976 234.679629 
L 261.678312 234.419837 
L 264.957648 234.098156 
L 268.236984 233.74104 
L 271.516319 233.375929 
L 274.795655 233.030106 
L 278.074991 232.729528 
L 281.354327 232.497696 
L 284.633663 232.354583 
L 287.912999 232.315675 
L 291.192335 232.39116 
L 294.471671 232.585294 
L 297.751007 232.895998 
L 301.030343 233.314698 
L 304.309679 233.82644 
L 307.589014 234.410299 
L 310.86835 235.040099 
L 314.147686 235.685433 
L 317.427022 236.312986 
L 320.706358 236.888135 
L 323.985694 237.376793 
L 327.26503 237.747451 
L 330.544366 237.973345 
L 333.823702 238.034673 
L 337.103038 237.920752 
L 340.382374 237.631978 
L 343.661709 237.181467 
L 346.941045 236.59616 
L 350.220381 235.917222 
L 353.499717 235.199478 
L 356.779053 234.509621 
L 360.058389 233.922896 
L 363.337725 233.517912 
L 366.617061 233.369206 
L 369.896397 233.537133 
L 373.175733 234.054618 
L 376.455069 234.91026 
L 379.734404 236.027221 
L 383.01374 237.237279 
L 386.293076 238.249384 
L 389.572412 238.611984 
L 392.851748 237.668331 
L 396.131084 234.503909 
L 399.41042 227.885071 
" clip-path="url(#p25bfdade9b)" style="fill: none; stroke: #1f77b4; stroke-width: 1.5; stroke-linecap: square"/>
   </g>
   <g id="line2d_14">
    <path d="M 74.756165 236.030512 
L 78.035495 236.565042 
L 81.314825 234.677733 
L 84.594156 231.234583 
L 87.873486 226.914496 
L 91.152816 222.238621 
L 94.432146 217.596183 
L 97.711476 213.267115 
L 100.990807 209.441795 
L 104.270137 206.238153 
L 107.549467 203.716429 
L 110.828797 201.891809 
L 114.108128 200.745158 
L 117.387458 200.232075 
L 120.666788 200.290446 
L 123.946118 200.846673 
L 127.225449 201.820747 
L 130.504779 203.13031 
L 133.784109 204.693835 
L 137.063439 206.433057 
L 140.34277 208.274762 
L 143.6221 210.152028 
L 146.90143 212.005018 
L 150.18076 213.781405 
L 153.460091 215.436489 
L 156.739421 216.933083 
L 160.018751 218.241217 
L 163.298081 219.337708 
L 166.577412 220.205636 
L 169.856742 220.833767 
L 173.136072 221.21595 
L 176.415402 221.350499 
L 179.694733 221.239612 
L 182.974063 220.888798 
L 186.253393 220.306368 
L 189.532723 219.502961 
L 192.812054 218.491133 
L 196.091384 217.285006 
L 199.370714 215.899963 
L 202.650044 214.352413 
L 205.929374 212.659594 
L 209.208705 210.839435 
L 212.488035 208.910445 
L 215.767365 206.891644 
L 219.046695 204.80252 
L 222.326026 202.662998 
L 225.605356 200.493425 
L 228.884686 198.314554 
L 232.164016 196.147526 
L 235.443347 235.943134 
L 238.722677 235.942949 
L 242.002007 189.960211 
L 245.281337 188.045492 
L 248.560668 186.251396 
L 251.839998 184.600619 
L 255.119328 183.115552 
L 258.398658 181.818023 
L 261.677989 180.729009 
L 264.957319 179.868311 
L 268.236649 179.254212 
L 271.515979 178.903105 
L 274.79531 178.829114 
L 278.07464 179.043712 
L 281.35397 179.55534 
L 284.6333 180.369037 
L 287.912631 181.486109 
L 291.191961 182.903817 
L 294.471291 184.615129 
L 297.750621 186.608518 
L 301.029952 188.867846 
L 304.309282 191.372317 
L 307.588612 194.096534 
L 310.867942 197.010654 
L 314.147272 200.080654 
L 317.426603 203.26872 
L 320.705933 206.533757 
L 323.985263 209.832025 
L 327.264593 213.117901 
L 330.543924 216.344769 
L 333.823254 219.466022 
L 337.102584 222.436174 
L 340.381914 225.212062 
L 343.661245 227.754119 
L 346.940575 230.027698 
L 350.219905 232.004409 
L 353.499235 233.663431 
L 356.778566 234.992762 
L 360.057896 235.990345 
L 363.337226 236.665017 
L 366.616556 237.037208 
L 369.895887 237.139303 
L 373.175217 237.015599 
L 376.454547 236.721728 
L 379.733877 236.323454 
L 383.013208 235.894719 
L 386.292538 235.514781 
L 389.571868 235.264322 
L 392.851198 235.220329 
L 396.130529 235.449588 
L 399.409859 236.000586 
" clip-path="url(#p25bfdade9b)" style="fill: none; stroke: #ff7f0e; stroke-width: 1.5; stroke-linecap: square"/>
   </g>
   <g id="line2d_15">
    <path d="M 74.756165 234.995413 
L 78.035503 236.93878 
L 81.314842 237.027484 
L 84.59418 235.75065 
L 87.873519 233.522299 
L 91.152857 230.688232 
L 94.432195 227.532663 
L 97.711534 224.284558 
L 100.990872 221.123675 
L 104.270211 218.186288 
L 107.549549 215.570591 
L 110.828888 213.34177 
L 114.108226 211.536737 
L 117.387565 210.168535 
L 120.666903 209.230405 
L 123.946242 208.699517 
L 127.22558 208.540386 
L 130.504918 208.70795 
L 133.784257 209.150353 
L 137.063595 209.811413 
L 140.342934 210.632804 
L 143.622272 211.555958 
L 146.901611 212.523691 
L 150.180949 213.481591 
L 153.460288 214.379152 
L 156.739626 215.17069 
L 160.018965 215.816052 
L 163.298303 216.281124 
L 166.577641 216.538169 
L 169.85698 216.565998 
L 173.136318 216.349994 
L 176.415657 215.882013 
L 179.694995 215.160156 
L 182.974334 214.18846 
L 186.253672 212.976482 
L 189.533011 211.538833 
L 192.812349 209.89464 
L 196.091687 208.066971 
L 199.371026 206.082231 
L 202.650364 203.969529 
L 205.929703 201.76005 
L 209.209041 199.486417 
L 212.48838 197.182076 
L 215.767718 194.880692 
L 219.047057 192.615579 
L 222.326395 190.419164 
L 225.605734 188.322492 
L 228.885072 186.354777 
L 232.16441 184.543006 
L 235.443749 235.942563 
L 238.723087 235.942429 
L 242.002426 180.394834 
L 245.281764 179.400565 
L 248.561103 178.648096 
L 251.840441 178.147113 
L 255.11978 177.904112 
L 258.399118 177.922388 
L 261.678457 178.202067 
L 264.957795 178.740172 
L 268.237133 179.530726 
L 271.516472 180.564896 
L 274.79581 181.831169 
L 278.075149 183.315548 
L 281.354487 185.001796 
L 284.633826 186.871688 
L 287.913164 188.905296 
L 291.192503 191.08129 
L 294.471841 193.377254 
L 297.75118 195.770015 
L 301.030518 198.235984 
L 304.309856 200.75149 
L 307.589195 203.293131 
L 310.868533 205.8381 
L 314.147872 208.364513 
L 317.42721 210.851718 
L 320.706549 213.280577 
L 323.985887 215.633724 
L 327.265226 217.895785 
L 330.544564 220.053553 
L 333.823902 222.096118 
L 337.103241 224.014923 
L 340.382579 225.803769 
L 343.661918 227.458725 
L 346.941256 228.977956 
L 350.220595 230.361447 
L 353.499933 231.610613 
L 356.779272 232.727784 
L 360.05861 233.715542 
L 363.337949 234.575913 
L 366.617287 235.309369 
L 369.896625 235.913656 
L 373.175964 236.382401 
L 376.455302 236.703491 
L 379.734641 236.857209 
L 383.013979 236.814077 
L 386.293318 236.532423 
L 389.572656 235.955599 
L 392.851995 235.008865 
L 396.131333 233.595874 
L 399.410672 231.594752 
" clip-path="url(#p25bfdade9b)" style="fill: none; stroke: #2ca02c; stroke-width: 1.5; stroke-linecap: square"/>
   </g>
   <g id="line2d_16">
    <path d="M 74.756165 230.927957 
L 77.89458 238.477376 
L 81.032996 240.311808 
L 84.171411 238.380959 
L 87.309827 234.177371 
L 90.448242 228.815557 
L 93.586658 223.100859 
L 96.725073 217.589022 
L 99.863489 212.637394 
L 103.001904 208.448624 
L 106.14032 205.107634 
L 109.278735 202.612616 
L 112.417151 200.900734 
L 115.555566 199.869143 
L 118.693982 199.391924 
L 121.832397 199.333446 
L 124.970813 199.558648 
L 128.109228 199.940675 
L 131.247643 200.366272 
L 134.386059 200.739295 
L 137.524474 200.982662 
L 140.66289 201.039035 
L 143.801305 200.870493 
L 146.939721 200.457426 
L 150.078136 199.796837 
L 153.216552 198.900252 
L 156.354967 197.791364 
L 159.493383 196.503549 
L 162.631798 195.077366 
L 165.770214 193.558118 
L 168.908629 191.993558 
L 172.047045 190.431788 
L 175.18546 188.91939 
L 178.323876 187.499828 
L 181.462291 186.212128 
L 184.600707 185.089854 
L 187.739122 184.160361 
L 190.877538 183.444343 
L 194.015953 182.955635 
L 197.154369 182.701264 
L 200.292784 182.681716 
L 203.4312 182.891405 
L 206.569615 183.319288 
L 209.708031 183.949626 
L 212.846446 184.762832 
L 215.984862 185.736385 
L 219.123277 186.845785 
L 222.261692 188.065498 
L 225.400108 189.369885 
L 228.538523 235.942257 
L 231.676939 235.942212 
L 234.815354 193.827895 
L 237.95377 195.276989 
L 241.092185 196.693175 
L 244.230601 198.064415 
L 247.369016 199.383158 
L 250.507432 200.646359 
L 253.645847 201.855324 
L 256.784263 203.015402 
L 259.922678 204.135511 
L 263.061094 205.227535 
L 266.199509 206.305604 
L 269.337925 207.385281 
L 272.47634 208.482675 
L 275.614756 209.613527 
L 278.753171 210.792289 
L 281.891587 212.031225 
L 285.030002 213.339582 
L 288.168418 214.722857 
L 291.306833 216.182192 
L 294.445249 217.713934 
L 297.583664 219.309389 
L 300.72208 220.954793 
L 303.860495 222.631516 
L 306.998911 224.31653 
L 310.137326 225.983128 
L 313.275741 227.601906 
L 316.414157 229.14199 
L 319.552572 230.572488 
L 322.690988 231.864127 
L 325.829403 232.991027 
L 328.967819 233.932541 
L 332.106234 234.675072 
L 335.24465 235.213766 
L 338.383065 235.55395 
L 341.521481 235.712155 
L 344.659896 235.716555 
L 347.798312 235.606606 
L 350.936727 235.431646 
L 354.075143 235.248191 
L 357.213558 235.115612 
L 360.351974 235.089852 
L 363.490389 235.214798 
L 366.628805 235.510879 
L 369.76722 235.960412 
L 372.905636 236.489185 
L 376.044051 236.943692 
L 379.182467 237.063404 
L 382.320882 236.447378 
L 385.459298 234.514476 
" clip-path="url(#p25bfdade9b)" style="fill: none; stroke: #d62728; stroke-width: 1.5; stroke-linecap: square"/>
   </g>
   <g id="line2d_17">
    <path d="M 74.756165 276.334125 
L 78.035504 233.662812 
L 81.314842 188.697189 
L 84.594181 145.978568 
L 87.87352 108.518198 
L 91.152859 78.113982 
L 94.432198 55.621039 
L 97.711537 41.180945 
L 100.990876 34.414125 
L 104.270214 34.579561 
L 107.549553 40.705622 
L 110.828892 51.695557 
L 114.108231 66.410869 
L 117.38757 83.735542 
L 120.666909 102.623796 
L 123.946247 122.13385 
L 127.225586 141.44988 
L 130.504925 159.894196 
L 133.784264 176.931407 
L 137.063603 192.166194 
L 140.342942 205.336084 
L 143.62228 216.30049 
L 146.901619 225.027092 
L 150.180958 231.576511 
L 153.460297 236.086063 
L 156.739636 238.753294 
L 160.018975 239.81984 
L 163.298314 239.556084 
L 166.577652 238.246955 
L 169.856991 236.17916 
L 173.13633 233.630028 
L 176.415669 230.858104 
L 179.695008 228.095545 
L 182.974347 225.542329 
L 186.253685 223.362242 
L 189.533024 221.680555 
L 192.812363 220.583281 
L 196.091702 220.117872 
L 199.371041 220.295188 
L 202.65038 221.092565 
L 205.929718 222.457781 
L 209.209057 224.31374 
L 212.488396 226.563655 
L 215.767735 229.096545 
L 219.047074 231.792865 
L 222.326413 234.530064 
L 225.605752 237.187922 
L 228.88509 239.653509 
L 232.164429 241.82563 
L 235.443768 235.947434 
L 238.723107 235.948284 
L 242.002446 242.887029 
L 245.281785 243.219107 
L 248.561123 243.184398 
L 251.840462 242.796031 
L 255.119801 242.081812 
L 258.39914 241.082924 
L 261.678479 239.852149 
L 264.957818 238.451658 
L 268.237157 236.950446 
L 271.516495 235.421492 
L 274.795834 233.938728 
L 278.075173 232.573929 
L 281.354512 231.393609 
L 284.633851 230.456049 
L 287.91319 229.808554 
L 291.192528 229.48505 
L 294.471867 229.504138 
L 297.751206 229.867683 
L 301.030545 230.56005 
L 304.309884 231.548051 
L 307.589223 232.781673 
L 310.868561 234.195625 
L 314.1479 235.711726 
L 317.427239 237.242133 
L 320.706578 238.693361 
L 323.985917 239.971026 
L 327.265256 240.985199 
L 330.544595 241.656211 
L 333.823933 241.920692 
L 337.103272 241.737601 
L 340.382611 241.09389 
L 343.66195 240.009446 
L 346.941289 238.540822 
L 350.220628 236.783228 
L 353.499966 234.870157 
L 356.779305 232.969923 
L 360.058644 231.278312 
L 363.337983 230.006416 
L 366.617322 229.362631 
L 369.896661 229.527668 
L 373.175999 230.621315 
L 376.455338 232.659537 
L 379.734677 235.500375 
L 383.014016 238.776953 
L 386.293355 241.81573 
L 389.572694 243.538001 
L 392.852033 242.342445 
L 396.131371 235.966348 
L 399.41071 221.322943 
" clip-path="url(#p25bfdade9b)" style="fill: none; stroke: #9467bd; stroke-width: 1.5; stroke-linecap: square"/>
   </g>
   <g id="line2d_18">
    <path d="M 74.756165 239.282688 
L 78.035499 236.714567 
L 81.314833 234.187469 
L 84.594168 231.587313 
L 87.873502 228.879365 
L 91.152837 226.084509 
L 94.432171 223.259802 
L 97.711505 220.482791 
L 100.99084 217.839125 
L 104.270174 215.41304 
L 107.549508 213.280313 
L 110.828843 211.503327 
L 114.108177 210.127925 
L 117.387511 209.181753 
L 120.666846 208.673821 
L 123.94618 208.595053 
L 127.225514 208.919592 
L 130.504849 209.6067 
L 133.784183 210.603052 
L 137.063517 211.845303 
L 140.342852 213.262793 
L 143.622186 214.780281 
L 146.90152 216.32062 
L 150.180855 217.807298 
L 153.460189 219.166779 
L 156.739523 220.33061 
L 160.018858 221.237247 
L 163.298192 221.83357 
L 166.577526 222.076102 
L 169.856861 221.931885 
L 173.136195 221.379054 
L 176.41553 220.407089 
L 179.694864 219.016776 
L 182.974198 217.219894 
L 186.253533 215.038644 
L 189.532867 212.504865 
L 192.812201 209.659039 
L 196.091536 206.549152 
L 199.37087 203.229409 
L 202.650204 199.758861 
L 205.929539 196.199972 
L 209.208873 192.617148 
L 212.488207 189.075278 
L 215.767542 185.638301 
L 219.046876 182.367838 
L 222.32621 179.321913 
L 225.605545 176.553784 
L 228.884879 174.110911 
L 232.164213 172.034068 
L 235.443548 235.942566 
L 238.722882 235.942556 
L 242.002216 168.12926 
L 245.281551 167.737714 
L 248.560885 167.806325 
L 251.84022 168.327945 
L 255.119554 169.28713 
L 258.398888 170.660671 
L 261.678223 172.4183 
L 264.957557 174.523553 
L 268.236891 176.93476 
L 271.516226 179.606148 
L 274.79556 182.489031 
L 278.074894 185.533047 
L 281.354229 188.687434 
L 284.633563 191.902287 
L 287.912897 195.129788 
L 291.192232 198.325358 
L 294.471566 201.448704 
L 297.7509 204.464741 
L 301.030235 207.344336 
L 304.309569 210.064871 
L 307.588903 212.610582 
L 310.868238 214.972663 
L 314.147572 217.149127 
L 317.426906 219.144392 
L 320.706241 220.96862 
L 323.985575 222.636788 
L 327.26491 224.167533 
L 330.544244 225.58177 
L 333.823578 226.901139 
L 337.102913 228.14633 
L 340.382247 229.335342 
L 343.661581 230.481758 
L 346.940916 231.593148 
L 350.22025 232.66969 
L 353.499584 233.703163 
L 356.778919 234.676472 
L 360.058253 235.563862 
L 363.337587 236.332049 
L 366.616922 236.942495 
L 369.896256 237.355067 
L 373.17559 237.533403 
L 376.454925 237.452268 
L 379.734259 237.107286 
L 383.013593 236.527424 
L 386.292928 235.790654 
L 389.572262 235.043265 
L 392.851596 234.52334 
L 396.130931 234.588939 
L 399.410265 235.751596 
" clip-path="url(#p25bfdade9b)" style="fill: none; stroke: #8c564b; stroke-width: 1.5; stroke-linecap: square"/>
   </g>
   <g id="patch_3">
    <path d="M 58.523438 288.430125 
L 58.523438 22.318125 
" style="fill: none; stroke: #000000; stroke-width: 0.8; stroke-linejoin: miter; stroke-linecap: square"/>
   </g>
   <g id="patch_4">
    <path d="M 415.643438 288.430125 
L 415.643438 22.318125 
" style="fill: none; stroke: #000000; stroke-width: 0.8; stroke-linejoin: miter; stroke-linecap: square"/>
   </g>
   <g id="patch_5">
    <path d="M 58.523438 288.430125 
L 415.643438 288.430125 
" style="fill: none; stroke: #000000; stroke-width: 0.8; stroke-linejoin: miter; stroke-linecap: square"/>
   </g>
   <g id="patch_6">
    <path d="M 58.523438 22.318125 
L 415.643438 22.318125 
" style="fill: none; stroke: #000000; stroke-width: 0.8; stroke-linejoin: miter; stroke-linecap: square"/>
   </g>
   <g id="text_15">
    <!-- FA - xtract_prob_Superior_Longitudinal_Fasciculus_3_R -->
    <g transform="translate(74.074688 16.318125) scale(0.12 -0.12)">
     <defs>
      <path id="DejaVuSans-41" d="M 2188 4044 
L 1331 1722 
L 3047 1722 
L 2188 4044 
z
M 1831 4666 
L 2547 4666 
L 4325 0 
L 3669 0 
L 3244 1197 
L 1141 1197 
L 716 0 
L 50 0 
L 1831 4666 
z
" transform="scale(0.015625)"/>
      <path id="DejaVuSans-2d" d="M 313 2009 
L 1997 2009 
L 1997 1497 
L 313 1497 
L 313 2009 
z
" transform="scale(0.015625)"/>
      <path id="DejaVuSans-74" d="M 1172 4494 
L 1172 3500 
L 2356 3500 
L 2356 3053 
L 1172 3053 
L 1172 1153 
Q 1172 725 1289 603 
Q 1406 481 1766 481 
L 2356 481 
L 2356 0 
L 1766 0 
Q 1100 0 847 248 
Q 594 497 594 1153 
L 594 3053 
L 172 3053 
L 172 3500 
L 594 3500 
L 594 4494 
L 1172 4494 
z
" transform="scale(0.015625)"/>
      <path id="DejaVuSans-5f" d="M 3263 -1063 
L 3263 -1509 
L -63 -1509 
L -63 -1063 
L 3263 -1063 
z
" transform="scale(0.015625)"/>
      <path id="DejaVuSans-70" d="M 1159 525 
L 1159 -1331 
L 581 -1331 
L 581 3500 
L 1159 3500 
L 1159 2969 
Q 1341 3281 1617 3432 
Q 1894 3584 2278 3584 
Q 2916 3584 3314 3078 
Q 3713 2572 3713 1747 
Q 3713 922 3314 415 
Q 2916 -91 2278 -91 
Q 1894 -91 1617 61 
Q 1341 213 1159 525 
z
M 3116 1747 
Q 3116 2381 2855 2742 
Q 2594 3103 2138 3103 
Q 1681 3103 1420 2742 
Q 1159 2381 1159 1747 
Q 1159 1113 1420 752 
Q 1681 391 2138 391 
Q 2594 391 2855 752 
Q 3116 1113 3116 1747 
z
" transform="scale(0.015625)"/>
      <path id="DejaVuSans-6f" d="M 1959 3097 
Q 1497 3097 1228 2736 
Q 959 2375 959 1747 
Q 959 1119 1226 758 
Q 1494 397 1959 397 
Q 2419 397 2687 759 
Q 2956 1122 2956 1747 
Q 2956 2369 2687 2733 
Q 2419 3097 1959 3097 
z
M 1959 3584 
Q 2709 3584 3137 3096 
Q 3566 2609 3566 1747 
Q 3566 888 3137 398 
Q 2709 -91 1959 -91 
Q 1206 -91 779 398 
Q 353 888 353 1747 
Q 353 2609 779 3096 
Q 1206 3584 1959 3584 
z
" transform="scale(0.015625)"/>
      <path id="DejaVuSans-62" d="M 3116 1747 
Q 3116 2381 2855 2742 
Q 2594 3103 2138 3103 
Q 1681 3103 1420 2742 
Q 1159 2381 1159 1747 
Q 1159 1113 1420 752 
Q 1681 391 2138 391 
Q 2594 391 2855 752 
Q 3116 1113 3116 1747 
z
M 1159 2969 
Q 1341 3281 1617 3432 
Q 1894 3584 2278 3584 
Q 2916 3584 3314 3078 
Q 3713 2572 3713 1747 
Q 3713 922 3314 415 
Q 2916 -91 2278 -91 
Q 1894 -91 1617 61 
Q 1341 213 1159 525 
L 1159 0 
L 581 0 
L 581 4863 
L 1159 4863 
L 1159 2969 
z
" transform="scale(0.015625)"/>
      <path id="DejaVuSans-53" d="M 3425 4513 
L 3425 3897 
Q 3066 4069 2747 4153 
Q 2428 4238 2131 4238 
Q 1616 4238 1336 4038 
Q 1056 3838 1056 3469 
Q 1056 3159 1242 3001 
Q 1428 2844 1947 2747 
L 2328 2669 
Q 3034 2534 3370 2195 
Q 3706 1856 3706 1288 
Q 3706 609 3251 259 
Q 2797 -91 1919 -91 
Q 1588 -91 1214 -16 
Q 841 59 441 206 
L 441 856 
Q 825 641 1194 531 
Q 1563 422 1919 422 
Q 2459 422 2753 634 
Q 3047 847 3047 1241 
Q 3047 1584 2836 1778 
Q 2625 1972 2144 2069 
L 1759 2144 
Q 1053 2284 737 2584 
Q 422 2884 422 3419 
Q 422 4038 858 4394 
Q 1294 4750 2059 4750 
Q 2388 4750 2728 4690 
Q 3069 4631 3425 4513 
z
" transform="scale(0.015625)"/>
      <path id="DejaVuSans-4c" d="M 628 4666 
L 1259 4666 
L 1259 531 
L 3531 531 
L 3531 0 
L 628 0 
L 628 4666 
z
" transform="scale(0.015625)"/>
      <path id="DejaVuSans-67" d="M 2906 1791 
Q 2906 2416 2648 2759 
Q 2391 3103 1925 3103 
Q 1463 3103 1205 2759 
Q 947 2416 947 1791 
Q 947 1169 1205 825 
Q 1463 481 1925 481 
Q 2391 481 2648 825 
Q 2906 1169 2906 1791 
z
M 3481 434 
Q 3481 -459 3084 -895 
Q 2688 -1331 1869 -1331 
Q 1566 -1331 1297 -1286 
Q 1028 -1241 775 -1147 
L 775 -588 
Q 1028 -725 1275 -790 
Q 1522 -856 1778 -856 
Q 2344 -856 2625 -561 
Q 2906 -266 2906 331 
L 2906 616 
Q 2728 306 2450 153 
Q 2172 0 1784 0 
Q 1141 0 747 490 
Q 353 981 353 1791 
Q 353 2603 747 3093 
Q 1141 3584 1784 3584 
Q 2172 3584 2450 3431 
Q 2728 3278 2906 2969 
L 2906 3500 
L 3481 3500 
L 3481 434 
z
" transform="scale(0.015625)"/>
      <path id="DejaVuSans-64" d="M 2906 2969 
L 2906 4863 
L 3481 4863 
L 3481 0 
L 2906 0 
L 2906 525 
Q 2725 213 2448 61 
Q 2172 -91 1784 -91 
Q 1150 -91 751 415 
Q 353 922 353 1747 
Q 353 2572 751 3078 
Q 1150 3584 1784 3584 
Q 2172 3584 2448 3432 
Q 2725 3281 2906 2969 
z
M 947 1747 
Q 947 1113 1208 752 
Q 1469 391 1925 391 
Q 2381 391 2643 752 
Q 2906 1113 2906 1747 
Q 2906 2381 2643 2742 
Q 2381 3103 1925 3103 
Q 1469 3103 1208 2742 
Q 947 2381 947 1747 
z
" transform="scale(0.015625)"/>
      <path id="DejaVuSans-33" d="M 2597 2516 
Q 3050 2419 3304 2112 
Q 3559 1806 3559 1356 
Q 3559 666 3084 287 
Q 2609 -91 1734 -91 
Q 1441 -91 1130 -33 
Q 819 25 488 141 
L 488 750 
Q 750 597 1062 519 
Q 1375 441 1716 441 
Q 2309 441 2620 675 
Q 2931 909 2931 1356 
Q 2931 1769 2642 2001 
Q 2353 2234 1838 2234 
L 1294 2234 
L 1294 2753 
L 1863 2753 
Q 2328 2753 2575 2939 
Q 2822 3125 2822 3475 
Q 2822 3834 2567 4026 
Q 2313 4219 1838 4219 
Q 1578 4219 1281 4162 
Q 984 4106 628 3988 
L 628 4550 
Q 988 4650 1302 4700 
Q 1616 4750 1894 4750 
Q 2613 4750 3031 4423 
Q 3450 4097 3450 3541 
Q 3450 3153 3228 2886 
Q 3006 2619 2597 2516 
z
" transform="scale(0.015625)"/>
      <path id="DejaVuSans-52" d="M 2841 2188 
Q 3044 2119 3236 1894 
Q 3428 1669 3622 1275 
L 4263 0 
L 3584 0 
L 2988 1197 
Q 2756 1666 2539 1819 
Q 2322 1972 1947 1972 
L 1259 1972 
L 1259 0 
L 628 0 
L 628 4666 
L 2053 4666 
Q 2853 4666 3247 4331 
Q 3641 3997 3641 3322 
Q 3641 2881 3436 2590 
Q 3231 2300 2841 2188 
z
M 1259 4147 
L 1259 2491 
L 2053 2491 
Q 2509 2491 2742 2702 
Q 2975 2913 2975 3322 
Q 2975 3731 2742 3939 
Q 2509 4147 2053 4147 
L 1259 4147 
z
" transform="scale(0.015625)"/>
     </defs>
     <use xlink:href="#DejaVuSans-46"/>
     <use xlink:href="#DejaVuSans-41" x="48.394531"/>
     <use xlink:href="#DejaVuSans-20" x="116.802734"/>
     <use xlink:href="#DejaVuSans-2d" x="148.589844"/>
     <use xlink:href="#DejaVuSans-20" x="184.673828"/>
     <use xlink:href="#DejaVuSans-78" x="216.460938"/>
     <use xlink:href="#DejaVuSans-74" x="275.640625"/>
     <use xlink:href="#DejaVuSans-72" x="314.849609"/>
     <use xlink:href="#DejaVuSans-61" x="355.962891"/>
     <use xlink:href="#DejaVuSans-63" x="417.242188"/>
     <use xlink:href="#DejaVuSans-74" x="472.222656"/>
     <use xlink:href="#DejaVuSans-5f" x="511.431641"/>
     <use xlink:href="#DejaVuSans-70" x="561.431641"/>
     <use xlink:href="#DejaVuSans-72" x="624.908203"/>
     <use xlink:href="#DejaVuSans-6f" x="663.771484"/>
     <use xlink:href="#DejaVuSans-62" x="724.953125"/>
     <use xlink:href="#DejaVuSans-5f" x="788.429688"/>
     <use xlink:href="#DejaVuSans-53" x="838.429688"/>
     <use xlink:href="#DejaVuSans-75" x="901.90625"/>
     <use xlink:href="#DejaVuSans-70" x="965.285156"/>
     <use xlink:href="#DejaVuSans-65" x="1028.761719"/>
     <use xlink:href="#DejaVuSans-72" x="1090.285156"/>
     <use xlink:href="#DejaVuSans-69" x="1131.398438"/>
     <use xlink:href="#DejaVuSans-6f" x="1159.181641"/>
     <use xlink:href="#DejaVuSans-72" x="1220.363281"/>
     <use xlink:href="#DejaVuSans-5f" x="1261.476562"/>
     <use xlink:href="#DejaVuSans-4c" x="1311.476562"/>
     <use xlink:href="#DejaVuSans-6f" x="1365.439453"/>
     <use xlink:href="#DejaVuSans-6e" x="1426.621094"/>
     <use xlink:href="#DejaVuSans-67" x="1490"/>
     <use xlink:href="#DejaVuSans-69" x="1553.476562"/>
     <use xlink:href="#DejaVuSans-74" x="1581.259766"/>
     <use xlink:href="#DejaVuSans-75" x="1620.46875"/>
     <use xlink:href="#DejaVuSans-64" x="1683.847656"/>
     <use xlink:href="#DejaVuSans-69" x="1747.324219"/>
     <use xlink:href="#DejaVuSans-6e" x="1775.107422"/>
     <use xlink:href="#DejaVuSans-61" x="1838.486328"/>
     <use xlink:href="#DejaVuSans-6c" x="1899.765625"/>
     <use xlink:href="#DejaVuSans-5f" x="1927.548828"/>
     <use xlink:href="#DejaVuSans-46" x="1977.548828"/>
     <use xlink:href="#DejaVuSans-61" x="2025.943359"/>
     <use xlink:href="#DejaVuSans-73" x="2087.222656"/>
     <use xlink:href="#DejaVuSans-63" x="2139.322266"/>
     <use xlink:href="#DejaVuSans-69" x="2194.302734"/>
     <use xlink:href="#DejaVuSans-63" x="2222.085938"/>
     <use xlink:href="#DejaVuSans-75" x="2277.066406"/>
     <use xlink:href="#DejaVuSans-6c" x="2340.445312"/>
     <use xlink:href="#DejaVuSans-75" x="2368.228516"/>
     <use xlink:href="#DejaVuSans-73" x="2431.607422"/>
     <use xlink:href="#DejaVuSans-5f" x="2483.707031"/>
     <use xlink:href="#DejaVuSans-33" x="2533.707031"/>
     <use xlink:href="#DejaVuSans-5f" x="2597.330078"/>
     <use xlink:href="#DejaVuSans-52" x="2647.330078"/>
    </g>
   </g>
   <g id="legend_1">
    <g id="patch_7">
     <path d="M 458.355438 146.666825 
L 556.211688 146.666825 
Q 558.211688 146.666825 558.211688 144.666825 
L 558.211688 55.929325 
Q 558.211688 53.929325 556.211688 53.929325 
L 458.355438 53.929325 
Q 456.355438 53.929325 456.355438 55.929325 
L 456.355438 144.666825 
Q 456.355438 146.666825 458.355438 146.666825 
z
" style="fill: #ffffff; opacity: 0.8; stroke: #cccccc; stroke-linejoin: miter"/>
    </g>
    <g id="line2d_19">
     <path d="M 460.355438 62.027762 
L 470.355438 62.027762 
L 480.355438 62.027762 
" style="fill: none; stroke: #1f77b4; stroke-width: 1.5; stroke-linecap: square"/>
    </g>
    <g id="text_16">
     <!-- 20_06_02_E3 -->
     <g transform="translate(488.355438 65.527762) scale(0.1 -0.1)">
      <defs>
       <path id="DejaVuSans-45" d="M 628 4666 
L 3578 4666 
L 3578 4134 
L 1259 4134 
L 1259 2753 
L 3481 2753 
L 3481 2222 
L 1259 2222 
L 1259 531 
L 3634 531 
L 3634 0 
L 628 0 
L 628 4666 
z
" transform="scale(0.015625)"/>
      </defs>
      <use xlink:href="#DejaVuSans-32"/>
      <use xlink:href="#DejaVuSans-30" x="63.623047"/>
      <use xlink:href="#DejaVuSans-5f" x="127.246094"/>
      <use xlink:href="#DejaVuSans-30" x="177.246094"/>
      <use xlink:href="#DejaVuSans-36" x="240.869141"/>
      <use xlink:href="#DejaVuSans-5f" x="304.492188"/>
      <use xlink:href="#DejaVuSans-30" x="354.492188"/>
      <use xlink:href="#DejaVuSans-32" x="418.115234"/>
      <use xlink:href="#DejaVuSans-5f" x="481.738281"/>
      <use xlink:href="#DejaVuSans-45" x="531.738281"/>
      <use xlink:href="#DejaVuSans-33" x="594.921875"/>
     </g>
    </g>
    <g id="line2d_20">
     <path d="M 460.355438 76.984013 
L 470.355438 76.984013 
L 480.355438 76.984013 
" style="fill: none; stroke: #ff7f0e; stroke-width: 1.5; stroke-linecap: square"/>
    </g>
    <g id="text_17">
     <!-- 20_05_01_E3 -->
     <g transform="translate(488.355438 80.484013) scale(0.1 -0.1)">
      <defs>
       <path id="DejaVuSans-35" d="M 691 4666 
L 3169 4666 
L 3169 4134 
L 1269 4134 
L 1269 2991 
Q 1406 3038 1543 3061 
Q 1681 3084 1819 3084 
Q 2600 3084 3056 2656 
Q 3513 2228 3513 1497 
Q 3513 744 3044 326 
Q 2575 -91 1722 -91 
Q 1428 -91 1123 -41 
Q 819 9 494 109 
L 494 744 
Q 775 591 1075 516 
Q 1375 441 1709 441 
Q 2250 441 2565 725 
Q 2881 1009 2881 1497 
Q 2881 1984 2565 2268 
Q 2250 2553 1709 2553 
Q 1456 2553 1204 2497 
Q 953 2441 691 2322 
L 691 4666 
z
" transform="scale(0.015625)"/>
      </defs>
      <use xlink:href="#DejaVuSans-32"/>
      <use xlink:href="#DejaVuSans-30" x="63.623047"/>
      <use xlink:href="#DejaVuSans-5f" x="127.246094"/>
      <use xlink:href="#DejaVuSans-30" x="177.246094"/>
      <use xlink:href="#DejaVuSans-35" x="240.869141"/>
      <use xlink:href="#DejaVuSans-5f" x="304.492188"/>
      <use xlink:href="#DejaVuSans-30" x="354.492188"/>
      <use xlink:href="#DejaVuSans-31" x="418.115234"/>
      <use xlink:href="#DejaVuSans-5f" x="481.738281"/>
      <use xlink:href="#DejaVuSans-45" x="531.738281"/>
      <use xlink:href="#DejaVuSans-33" x="594.921875"/>
     </g>
    </g>
    <g id="line2d_21">
     <path d="M 460.355438 91.940262 
L 470.355438 91.940262 
L 480.355438 91.940262 
" style="fill: none; stroke: #2ca02c; stroke-width: 1.5; stroke-linecap: square"/>
    </g>
    <g id="text_18">
     <!-- 20_02_02_E3 -->
     <g transform="translate(488.355438 95.440262) scale(0.1 -0.1)">
      <use xlink:href="#DejaVuSans-32"/>
      <use xlink:href="#DejaVuSans-30" x="63.623047"/>
      <use xlink:href="#DejaVuSans-5f" x="127.246094"/>
      <use xlink:href="#DejaVuSans-30" x="177.246094"/>
      <use xlink:href="#DejaVuSans-32" x="240.869141"/>
      <use xlink:href="#DejaVuSans-5f" x="304.492188"/>
      <use xlink:href="#DejaVuSans-30" x="354.492188"/>
      <use xlink:href="#DejaVuSans-32" x="418.115234"/>
      <use xlink:href="#DejaVuSans-5f" x="481.738281"/>
      <use xlink:href="#DejaVuSans-45" x="531.738281"/>
      <use xlink:href="#DejaVuSans-33" x="594.921875"/>
     </g>
    </g>
    <g id="line2d_22">
     <path d="M 460.355438 106.896513 
L 470.355438 106.896513 
L 480.355438 106.896513 
" style="fill: none; stroke: #d62728; stroke-width: 1.5; stroke-linecap: square"/>
    </g>
    <g id="text_19">
     <!-- 20_10_02_E3 -->
     <g transform="translate(488.355438 110.396513) scale(0.1 -0.1)">
      <use xlink:href="#DejaVuSans-32"/>
      <use xlink:href="#DejaVuSans-30" x="63.623047"/>
      <use xlink:href="#DejaVuSans-5f" x="127.246094"/>
      <use xlink:href="#DejaVuSans-31" x="177.246094"/>
      <use xlink:href="#DejaVuSans-30" x="240.869141"/>
      <use xlink:href="#DejaVuSans-5f" x="304.492188"/>
      <use xlink:href="#DejaVuSans-30" x="354.492188"/>
      <use xlink:href="#DejaVuSans-32" x="418.115234"/>
      <use xlink:href="#DejaVuSans-5f" x="481.738281"/>
      <use xlink:href="#DejaVuSans-45" x="531.738281"/>
      <use xlink:href="#DejaVuSans-33" x="594.921875"/>
     </g>
    </g>
    <g id="line2d_23">
     <path d="M 460.355438 121.852762 
L 470.355438 121.852762 
L 480.355438 121.852762 
" style="fill: none; stroke: #9467bd; stroke-width: 1.5; stroke-linecap: square"/>
    </g>
    <g id="text_20">
     <!-- 20_08_02_E3 -->
     <g transform="translate(488.355438 125.352762) scale(0.1 -0.1)">
      <use xlink:href="#DejaVuSans-32"/>
      <use xlink:href="#DejaVuSans-30" x="63.623047"/>
      <use xlink:href="#DejaVuSans-5f" x="127.246094"/>
      <use xlink:href="#DejaVuSans-30" x="177.246094"/>
      <use xlink:href="#DejaVuSans-38" x="240.869141"/>
      <use xlink:href="#DejaVuSans-5f" x="304.492188"/>
      <use xlink:href="#DejaVuSans-30" x="354.492188"/>
      <use xlink:href="#DejaVuSans-32" x="418.115234"/>
      <use xlink:href="#DejaVuSans-5f" x="481.738281"/>
      <use xlink:href="#DejaVuSans-45" x="531.738281"/>
      <use xlink:href="#DejaVuSans-33" x="594.921875"/>
     </g>
    </g>
    <g id="line2d_24">
     <path d="M 460.355438 136.809012 
L 470.355438 136.809012 
L 480.355438 136.809012 
" style="fill: none; stroke: #8c564b; stroke-width: 1.5; stroke-linecap: square"/>
    </g>
    <g id="text_21">
     <!-- 20_11_02_E3 -->
     <g transform="translate(488.355438 140.309012) scale(0.1 -0.1)">
      <use xlink:href="#DejaVuSans-32"/>
      <use xlink:href="#DejaVuSans-30" x="63.623047"/>
      <use xlink:href="#DejaVuSans-5f" x="127.246094"/>
      <use xlink:href="#DejaVuSans-31" x="177.246094"/>
      <use xlink:href="#DejaVuSans-31" x="240.869141"/>
      <use xlink:href="#DejaVuSans-5f" x="304.492188"/>
      <use xlink:href="#DejaVuSans-30" x="354.492188"/>
      <use xlink:href="#DejaVuSans-32" x="418.115234"/>
      <use xlink:href="#DejaVuSans-5f" x="481.738281"/>
      <use xlink:href="#DejaVuSans-45" x="531.738281"/>
      <use xlink:href="#DejaVuSans-33" x="594.921875"/>
     </g>
    </g>
   </g>
  </g>
 </g>
 <defs>
  <clipPath id="p25bfdade9b">
   <rect x="58.523438" y="22.318125" width="357.12" height="266.112"/>
  </clipPath>
 </defs>
</svg>
