<?xml version="1.0" encoding="utf-8" standalone="no"?>
<!DOCTYPE svg PUBLIC "-//W3C//DTD SVG 1.1//EN"
  "http://www.w3.org/Graphics/SVG/1.1/DTD/svg11.dtd">
<svg xmlns:xlink="http://www.w3.org/1999/xlink" width="565.411687pt" height="325.986375pt" viewBox="0 0 565.411687 325.986375" xmlns="http://www.w3.org/2000/svg" version="1.1">
 <metadata>
  <rdf:RDF xmlns:dc="http://purl.org/dc/elements/1.1/" xmlns:cc="http://creativecommons.org/ns#" xmlns:rdf="http://www.w3.org/1999/02/22-rdf-syntax-ns#">
   <cc:Work>
    <dc:type rdf:resource="http://purl.org/dc/dcmitype/StillImage"/>
    <dc:date>2023-02-07T23:00:01.692864</dc:date>
    <dc:format>image/svg+xml</dc:format>
    <dc:creator>
     <cc:Agent>
      <dc:title>Matplotlib v3.6.2, https://matplotlib.org/</dc:title>
     </cc:Agent>
    </dc:creator>
   </cc:Work>
  </rdf:RDF>
 </metadata>
 <defs>
  <style type="text/css">*{stroke-linejoin: round; stroke-linecap: butt}</style>
 </defs>
 <g id="figure_1">
  <g id="patch_1">
   <path d="M 0 325.986375 
L 565.411687 325.986375 
L 565.411687 0 
L 0 0 
z
" style="fill: #ffffff"/>
  </g>
  <g id="axes_1">
   <g id="patch_2">
    <path d="M 58.523438 288.430125 
L 415.643438 288.430125 
L 415.643438 22.318125 
L 58.523438 22.318125 
z
" style="fill: #ffffff"/>
   </g>
   <g id="PolyCollection_1">
    <path d="M 74.756165 216.241805 
L 74.756165 216.974213 
L 78.035504 216.974213 
L 81.314842 216.974213 
L 84.594181 216.974213 
L 87.87352 216.974213 
L 91.152859 216.974213 
L 94.432198 216.974213 
L 97.711537 216.974213 
L 100.990876 216.974213 
L 104.270214 216.974213 
L 107.549553 216.974213 
L 110.828892 216.974213 
L 114.108231 216.974213 
L 117.38757 216.974213 
L 120.666909 216.974213 
L 123.946247 216.974213 
L 127.225586 216.974213 
L 130.504925 216.974213 
L 133.784264 216.974213 
L 137.063603 216.974213 
L 140.342942 216.974213 
L 143.62228 216.974213 
L 146.901619 216.974213 
L 150.180958 216.974213 
L 153.460297 216.974213 
L 156.739636 216.974213 
L 160.018975 216.974213 
L 163.298314 216.974213 
L 166.577652 216.974213 
L 169.856991 216.974213 
L 173.13633 216.974213 
L 176.415669 216.974213 
L 179.695008 216.974213 
L 182.974347 216.974213 
L 186.253685 216.974213 
L 189.533024 216.974213 
L 192.812363 216.974213 
L 196.091702 216.974213 
L 199.371041 216.974213 
L 202.65038 216.974213 
L 205.929718 216.974213 
L 209.209057 216.974213 
L 212.488396 216.974213 
L 215.767735 216.974213 
L 219.047074 216.974213 
L 222.326413 216.974213 
L 225.605752 216.974213 
L 228.88509 216.974213 
L 232.164429 216.974213 
L 235.443768 216.974213 
L 238.723107 216.974213 
L 242.002446 216.974213 
L 245.281785 216.974213 
L 248.561123 216.974213 
L 251.840462 216.974213 
L 255.119801 216.974213 
L 258.39914 216.974213 
L 261.678479 216.974213 
L 264.957818 216.974213 
L 268.237157 216.974213 
L 271.516495 216.974213 
L 274.795834 216.974213 
L 278.075173 216.974213 
L 281.354512 216.974213 
L 284.633851 216.974213 
L 287.91319 216.974213 
L 291.192528 216.974213 
L 294.471867 216.974213 
L 297.751206 216.974213 
L 301.030545 216.974213 
L 304.309884 216.974213 
L 307.589223 216.974213 
L 310.868561 216.974213 
L 314.1479 216.974213 
L 317.427239 216.974213 
L 320.706578 216.974213 
L 323.985917 216.974213 
L 327.265256 216.974213 
L 330.544595 216.974213 
L 333.823933 216.974213 
L 337.103272 216.974213 
L 340.382611 216.974213 
L 343.66195 216.974213 
L 346.941289 216.974213 
L 350.220628 216.974213 
L 353.499966 216.974213 
L 356.779305 216.974213 
L 360.058644 216.974213 
L 363.337983 216.974213 
L 366.617322 216.974213 
L 369.896661 216.974213 
L 373.175999 216.974213 
L 376.455338 216.974213 
L 379.734677 216.974213 
L 383.014016 216.974213 
L 386.293355 216.974213 
L 389.572694 216.974213 
L 392.852033 216.974213 
L 396.131371 216.974213 
L 399.41071 216.974213 
L 399.41071 212.582858 
L 399.41071 212.582858 
L 396.131371 217.112051 
L 392.852033 219.428084 
L 389.572694 220.177033 
L 386.293355 219.888599 
L 383.014016 218.986958 
L 379.734677 217.80188 
L 376.455338 216.579905 
L 373.175999 215.495356 
L 369.896661 214.661032 
L 366.617322 214.138426 
L 363.337983 213.947357 
L 360.058644 214.074916 
L 356.779305 214.48367 
L 353.499966 215.119054 
L 350.220628 215.915936 
L 346.941289 216.804328 
L 343.66195 217.714252 
L 340.382611 218.579765 
L 337.103272 219.342179 
L 333.823933 219.952499 
L 330.544595 220.373136 
L 327.265256 220.578935 
L 323.985917 220.557582 
L 320.706578 220.309455 
L 317.427239 219.846978 
L 314.1479 219.193548 
L 310.868561 218.382113 
L 307.589223 217.453468 
L 304.309884 216.454325 
L 301.030545 215.435252 
L 297.751206 214.448528 
L 294.471867 213.545979 
L 291.192528 212.77687 
L 287.91319 212.185889 
L 284.633851 211.811289 
L 281.354512 211.683223 
L 278.075173 211.822326 
L 274.795834 212.238566 
L 271.516495 212.93039 
L 268.237157 213.884202 
L 264.957818 215.074174 
L 261.678479 216.462399 
L 258.39914 217.999391 
L 255.119801 219.624932 
L 251.840462 221.269231 
L 248.561123 222.854409 
L 245.281785 224.296254 
L 242.002446 225.506231 
L 238.723107 216.97142 
L 235.443768 216.970191 
L 232.164429 227.529528 
L 228.88509 226.769908 
L 225.605752 225.323064 
L 222.326413 223.134209 
L 219.047074 220.162901 
L 215.767735 216.384926 
L 212.488396 211.793907 
L 209.209057 206.402588 
L 205.929718 200.243762 
L 202.65038 193.370782 
L 199.371041 185.85765 
L 196.091702 177.798623 
L 192.812363 169.307343 
L 189.533024 160.515453 
L 186.253685 151.570697 
L 182.974347 142.634519 
L 179.695008 133.879141 
L 176.415669 125.484174 
L 173.13633 117.632762 
L 169.856991 110.507328 
L 166.577652 104.284957 
L 163.298314 99.132501 
L 160.018975 95.201476 
L 156.739636 92.622871 
L 153.460297 91.501957 
L 150.180958 91.913253 
L 146.901619 93.895794 
L 143.62228 97.44887 
L 140.342942 102.528421 
L 137.063603 109.044324 
L 133.784264 116.858776 
L 130.504925 125.786062 
L 127.225586 135.593973 
L 123.946247 146.007183 
L 120.666909 156.71294 
L 117.38757 167.369407 
L 114.108231 177.61707 
L 110.828892 187.093622 
L 107.549553 195.452781 
L 104.270214 202.38753 
L 100.990876 207.658299 
L 97.711537 211.126638 
L 94.432198 212.794982 
L 91.152859 212.853127 
L 87.87352 211.732089 
L 84.594181 210.166048 
L 81.314842 209.263131 
L 78.035504 210.585819 
L 74.756165 216.241805 
z
" clip-path="url(#p91af862f80)" style="fill: #1f77b4; fill-opacity: 0.166667"/>
   </g>
   <g id="PolyCollection_2">
    <path d="M 74.756165 151.191828 
L 74.756165 216.974213 
L 76.734542 216.974213 
L 78.712919 216.974213 
L 80.691297 216.974213 
L 82.669674 216.974213 
L 84.648051 216.974213 
L 86.626428 216.974213 
L 88.604806 216.974213 
L 90.583183 216.974213 
L 92.56156 216.974213 
L 94.539937 216.974213 
L 96.518315 216.974213 
L 98.496692 216.974213 
L 100.475069 216.974213 
L 102.453447 216.974213 
L 104.431824 216.974213 
L 106.410201 216.974213 
L 108.388578 216.974213 
L 110.366956 216.974213 
L 112.345333 216.974213 
L 114.32371 216.974213 
L 116.302087 216.974213 
L 118.280465 216.974213 
L 120.258842 216.974213 
L 122.237219 216.974213 
L 124.215597 216.974213 
L 126.193974 216.974213 
L 128.172351 216.974213 
L 130.150728 216.974213 
L 132.129106 216.974213 
L 134.107483 216.974213 
L 136.08586 216.974213 
L 138.064237 216.974213 
L 140.042615 216.974213 
L 142.020992 216.974213 
L 143.999369 216.974213 
L 145.977746 216.974213 
L 147.956124 216.974213 
L 149.934501 216.974213 
L 151.912878 216.974213 
L 153.891256 216.974213 
L 155.869633 216.974213 
L 157.84801 216.974213 
L 159.826387 216.974213 
L 161.804765 216.974213 
L 163.783142 216.974213 
L 165.761519 216.974213 
L 167.739896 216.974213 
L 169.718274 216.974213 
L 171.696651 216.974213 
L 173.675028 216.974213 
L 175.653406 216.974213 
L 177.631783 216.974213 
L 179.61016 216.974213 
L 181.588537 216.974213 
L 183.566915 216.974213 
L 185.545292 216.974213 
L 187.523669 216.974213 
L 189.502046 216.974213 
L 191.480424 216.974213 
L 193.458801 216.974213 
L 195.437178 216.974213 
L 197.415556 216.974213 
L 199.393933 216.974213 
L 201.37231 216.974213 
L 203.350687 216.974213 
L 205.329065 216.974213 
L 207.307442 216.974213 
L 209.285819 216.974213 
L 211.264196 216.974213 
L 213.242574 216.974213 
L 215.220951 216.974213 
L 217.199328 216.974213 
L 219.177705 216.974213 
L 221.156083 216.974213 
L 223.13446 216.974213 
L 225.112837 216.974213 
L 227.091215 216.974213 
L 229.069592 216.974213 
L 231.047969 216.974213 
L 233.026346 216.974213 
L 235.004724 216.974213 
L 236.983101 216.974213 
L 238.961478 216.974213 
L 240.939855 216.974213 
L 242.918233 216.974213 
L 244.89661 216.974213 
L 246.874987 216.974213 
L 248.853365 216.974213 
L 250.831742 216.974213 
L 252.810119 216.974213 
L 254.788496 216.974213 
L 256.766874 216.974213 
L 258.745251 216.974213 
L 260.723628 216.974213 
L 262.702005 216.974213 
L 264.680383 216.974213 
L 266.65876 216.974213 
L 268.637137 216.974213 
L 270.615515 216.974213 
L 270.615515 219.461622 
L 270.615515 219.461622 
L 268.637137 217.56059 
L 266.65876 216.006696 
L 264.680383 214.994436 
L 262.702005 214.570741 
L 260.723628 214.684461 
L 258.745251 215.225359 
L 256.766874 216.054117 
L 254.788496 217.024716 
L 252.810119 218.000403 
L 250.831742 218.864348 
L 248.853365 219.525969 
L 246.874987 219.923794 
L 244.89661 220.025619 
L 242.918233 219.826627 
L 240.939855 219.346059 
L 238.961478 218.622918 
L 236.983101 217.711126 
L 235.004724 216.674493 
L 233.026346 215.581768 
L 231.047969 214.502008 
L 229.069592 213.500436 
L 227.091215 212.634906 
L 225.112837 211.953071 
L 223.13446 211.490295 
L 221.156083 211.268313 
L 219.177705 211.294642 
L 217.199328 211.562695 
L 215.220951 212.052535 
L 213.242574 212.732203 
L 211.264196 213.559537 
L 209.285819 214.484368 
L 207.307442 215.451017 
L 205.329065 216.400964 
L 203.350687 217.275599 
L 201.37231 218.018954 
L 199.393933 218.580303 
L 197.415556 218.916554 
L 195.437178 218.994345 
L 193.458801 218.791764 
L 191.480424 218.299645 
L 189.502046 217.52237 
L 187.523669 216.478169 
L 185.545292 215.198869 
L 183.566915 213.7291 
L 181.588537 212.124967 
L 179.61016 210.4522 
L 177.631783 208.783829 
L 175.653406 207.197435 
L 173.675028 216.974662 
L 171.696651 216.976607 
L 169.718274 201.191731 
L 167.739896 201.607212 
L 165.761519 202.545842 
L 163.783142 203.992872 
L 161.804765 205.909978 
L 159.826387 208.234592 
L 157.84801 210.879901 
L 155.869633 213.735595 
L 153.891256 216.669361 
L 151.912878 219.529182 
L 149.934501 222.146426 
L 147.956124 224.339742 
L 145.977746 225.919717 
L 143.999369 226.694284 
L 142.020992 226.47479 
L 140.042615 225.08267 
L 138.064237 222.356613 
L 136.08586 218.160087 
L 134.107483 212.389092 
L 132.129106 204.979938 
L 130.150728 195.916866 
L 128.172351 185.239251 
L 126.193974 173.048147 
L 124.215597 159.511854 
L 122.237219 144.870181 
L 120.258842 129.437041 
L 118.280465 113.600961 
L 116.302087 97.823078 
L 114.32371 82.63212 
L 112.345333 68.615859 
L 110.366956 56.408464 
L 108.388578 46.673135 
L 106.410201 40.079368 
L 104.431824 37.274132 
L 102.453447 38.846212 
L 100.475069 45.282909 
L 98.496692 56.918226 
L 96.518315 73.871641 
L 94.539937 95.976491 
L 92.56156 122.696934 
L 90.583183 153.032414 
L 88.604806 185.408473 
L 86.626428 217.552714 
L 84.648051 246.354625 
L 82.669674 267.707938 
L 80.691297 276.334125 
L 78.712919 265.585535 
L 76.734542 227.226649 
L 74.756165 151.191828 
z
" clip-path="url(#p91af862f80)" style="fill: #ff7f0e; fill-opacity: 0.166667"/>
   </g>
   <g id="PolyCollection_3">
    <path d="M 74.756165 219.03112 
L 74.756165 216.974213 
L 76.45955 216.974213 
L 78.162935 216.974213 
L 79.86632 216.974213 
L 81.569705 216.974213 
L 83.273089 216.974213 
L 84.976474 216.974213 
L 86.679859 216.974213 
L 88.383244 216.974213 
L 90.086629 216.974213 
L 91.790014 216.974213 
L 93.493399 216.974213 
L 95.196784 216.974213 
L 96.900169 216.974213 
L 98.603554 216.974213 
L 100.306939 216.974213 
L 102.010324 216.974213 
L 103.713709 216.974213 
L 105.417094 216.974213 
L 107.120479 216.974213 
L 108.823864 216.974213 
L 110.527249 216.974213 
L 112.230633 216.974213 
L 113.934018 216.974213 
L 115.637403 216.974213 
L 117.340788 216.974213 
L 119.044173 216.974213 
L 120.747558 216.974213 
L 122.450943 216.974213 
L 124.154328 216.974213 
L 125.857713 216.974213 
L 127.561098 216.974213 
L 129.264483 216.974213 
L 130.967868 216.974213 
L 132.671253 216.974213 
L 134.374638 216.974213 
L 136.078023 216.974213 
L 137.781408 216.974213 
L 139.484792 216.974213 
L 141.188177 216.974213 
L 142.891562 216.974213 
L 144.594947 216.974213 
L 146.298332 216.974213 
L 148.001717 216.974213 
L 149.705102 216.974213 
L 151.408487 216.974213 
L 153.111872 216.974213 
L 154.815257 216.974213 
L 156.518642 216.974213 
L 158.222027 216.974213 
L 159.925412 216.974213 
L 161.628797 216.974213 
L 163.332182 216.974213 
L 165.035567 216.974213 
L 166.738952 216.974213 
L 168.442336 216.974213 
L 170.145721 216.974213 
L 171.849106 216.974213 
L 173.552491 216.974213 
L 175.255876 216.974213 
L 176.959261 216.974213 
L 178.662646 216.974213 
L 180.366031 216.974213 
L 182.069416 216.974213 
L 183.772801 216.974213 
L 185.476186 216.974213 
L 187.179571 216.974213 
L 188.882956 216.974213 
L 190.586341 216.974213 
L 192.289726 216.974213 
L 193.993111 216.974213 
L 195.696495 216.974213 
L 197.39988 216.974213 
L 199.103265 216.974213 
L 200.80665 216.974213 
L 202.510035 216.974213 
L 204.21342 216.974213 
L 205.916805 216.974213 
L 207.62019 216.974213 
L 209.323575 216.974213 
L 211.02696 216.974213 
L 212.730345 216.974213 
L 214.43373 216.974213 
L 216.137115 216.974213 
L 217.8405 216.974213 
L 219.543885 216.974213 
L 221.24727 216.974213 
L 222.950655 216.974213 
L 224.654039 216.974213 
L 226.357424 216.974213 
L 228.060809 216.974213 
L 229.764194 216.974213 
L 231.467579 216.974213 
L 233.170964 216.974213 
L 234.874349 216.974213 
L 236.577734 216.974213 
L 238.281119 216.974213 
L 239.984504 216.974213 
L 241.687889 216.974213 
L 243.391274 216.974213 
L 243.391274 246.893695 
L 243.391274 246.893695 
L 241.687889 209.916088 
L 239.984504 195.305862 
L 238.281119 194.383713 
L 236.577734 200.851053 
L 234.874349 210.30979 
L 233.170964 219.853954 
L 231.467579 227.725318 
L 229.764194 233.025775 
L 228.060809 235.479784 
L 226.357424 235.240755 
L 224.654039 232.735734 
L 222.950655 228.543264 
L 221.24727 223.299728 
L 219.543885 217.629937 
L 217.8405 212.098132 
L 216.137115 207.175944 
L 214.43373 203.224244 
L 212.730345 200.486125 
L 211.02696 199.088604 
L 209.323575 199.050913 
L 207.62019 200.297535 
L 205.916805 202.674388 
L 204.21342 205.966808 
L 202.510035 209.918191 
L 200.80665 214.248359 
L 199.103265 218.670909 
L 197.39988 222.908934 
L 195.696495 226.708713 
L 193.993111 229.851042 
L 192.289726 232.160039 
L 190.586341 233.50934 
L 188.882956 233.825706 
L 187.179571 233.090135 
L 185.476186 231.336634 
L 183.772801 228.648879 
L 182.069416 225.155004 
L 180.366031 221.020832 
L 178.662646 216.441855 
L 176.959261 211.634286 
L 175.255876 206.825542 
L 173.552491 202.244468 
L 171.849106 198.11165 
L 170.145721 194.630118 
L 168.442336 191.97673 
L 166.738952 190.294503 
L 165.035567 189.686125 
L 163.332182 190.208843 
L 161.628797 191.870886 
L 159.925412 216.981147 
L 158.222027 216.980815 
L 156.518642 201.328983 
L 154.815257 206.414358 
L 153.111872 212.030803 
L 151.408487 217.916837 
L 149.705102 223.780186 
L 148.001717 229.307145 
L 146.298332 234.173125 
L 144.594947 238.05413 
L 142.891562 240.638842 
L 141.188177 241.641 
L 139.484792 240.811695 
L 137.781408 237.951201 
L 136.078023 232.91995 
L 134.374638 225.648254 
L 132.671253 216.144358 
L 130.967868 204.500455 
L 129.264483 190.896285 
L 127.561098 175.599984 
L 125.857713 158.965887 
L 124.154328 141.429055 
L 122.450943 123.496341 
L 120.747558 105.733911 
L 119.044173 88.751214 
L 117.340788 73.181517 
L 115.637403 59.659236 
L 113.934018 48.794436 
L 112.230633 41.145022 
L 110.527249 37.187349 
L 108.823864 37.286116 
L 107.120479 41.664681 
L 105.417094 50.377122 
L 103.713709 63.283635 
L 102.010324 80.031143 
L 100.306939 100.041264 
L 98.603554 122.508124 
L 96.900169 146.408823 
L 95.196784 170.529743 
L 93.493399 193.512256 
L 91.790014 213.921834 
L 90.086629 230.344972 
L 88.383244 241.518818 
L 86.679859 246.498907 
L 84.976474 244.870904 
L 83.273089 237.012812 
L 81.569705 224.414709 
L 79.86632 210.063655 
L 78.162935 198.902079 
L 76.45955 198.368622 
L 74.756165 219.03112 
z
" clip-path="url(#p91af862f80)" style="fill: #2ca02c; fill-opacity: 0.166667"/>
   </g>
   <g id="PolyCollection_4">
    <path d="M 74.756165 230.133093 
L 74.756165 216.974213 
L 76.612929 216.974213 
L 78.469694 216.974213 
L 80.326458 216.974213 
L 82.183222 216.974213 
L 84.039987 216.974213 
L 85.896751 216.974213 
L 87.753516 216.974213 
L 89.61028 216.974213 
L 91.467044 216.974213 
L 93.323809 216.974213 
L 95.180573 216.974213 
L 97.037338 216.974213 
L 98.894102 216.974213 
L 100.750866 216.974213 
L 102.607631 216.974213 
L 104.464395 216.974213 
L 106.32116 216.974213 
L 108.177924 216.974213 
L 110.034689 216.974213 
L 111.891453 216.974213 
L 113.748217 216.974213 
L 115.604982 216.974213 
L 117.461746 216.974213 
L 119.318511 216.974213 
L 121.175275 216.974213 
L 123.032039 216.974213 
L 124.888804 216.974213 
L 126.745568 216.974213 
L 128.602333 216.974213 
L 130.459097 216.974213 
L 132.315861 216.974213 
L 134.172626 216.974213 
L 136.02939 216.974213 
L 137.886155 216.974213 
L 139.742919 216.974213 
L 141.599683 216.974213 
L 143.456448 216.974213 
L 145.313212 216.974213 
L 147.169977 216.974213 
L 149.026741 216.974213 
L 150.883506 216.974213 
L 152.74027 216.974213 
L 154.597034 216.974213 
L 156.453799 216.974213 
L 158.310563 216.974213 
L 160.167328 216.974213 
L 162.024092 216.974213 
L 163.880856 216.974213 
L 165.737621 216.974213 
L 167.594385 216.974213 
L 169.45115 216.974213 
L 171.307914 216.974213 
L 173.164678 216.974213 
L 175.021443 216.974213 
L 176.878207 216.974213 
L 178.734972 216.974213 
L 180.591736 216.974213 
L 182.4485 216.974213 
L 184.305265 216.974213 
L 186.162029 216.974213 
L 188.018794 216.974213 
L 189.875558 216.974213 
L 191.732322 216.974213 
L 193.589087 216.974213 
L 195.445851 216.974213 
L 197.302616 216.974213 
L 199.15938 216.974213 
L 201.016145 216.974213 
L 202.872909 216.974213 
L 204.729673 216.974213 
L 206.586438 216.974213 
L 208.443202 216.974213 
L 210.299967 216.974213 
L 212.156731 216.974213 
L 214.013495 216.974213 
L 215.87026 216.974213 
L 217.727024 216.974213 
L 219.583789 216.974213 
L 221.440553 216.974213 
L 223.297317 216.974213 
L 225.154082 216.974213 
L 227.010846 216.974213 
L 228.867611 216.974213 
L 230.724375 216.974213 
L 232.581139 216.974213 
L 234.437904 216.974213 
L 236.294668 216.974213 
L 238.151433 216.974213 
L 240.008197 216.974213 
L 241.864962 216.974213 
L 243.721726 216.974213 
L 245.57849 216.974213 
L 247.435255 216.974213 
L 249.292019 216.974213 
L 251.148784 216.974213 
L 253.005548 216.974213 
L 254.862312 216.974213 
L 256.719077 216.974213 
L 258.575841 216.974213 
L 258.575841 242.369238 
L 258.575841 242.369238 
L 256.719077 210.544015 
L 254.862312 198.162434 
L 253.005548 197.608899 
L 251.148784 203.376146 
L 249.292019 211.636024 
L 247.435255 219.87508 
L 245.57849 226.587807 
L 243.721726 231.020972 
L 241.864962 232.962945 
L 240.008197 232.572455 
L 238.151433 230.241668 
L 236.294668 226.48893 
L 234.437904 221.876941 
L 232.581139 216.952505 
L 230.724375 212.204425 
L 228.867611 208.036395 
L 227.010846 204.75215 
L 225.154082 202.550381 
L 223.297317 201.527257 
L 221.440553 201.684646 
L 219.583789 202.94238 
L 217.727024 205.153156 
L 215.87026 208.118868 
L 214.013495 211.607357 
L 212.156731 215.368778 
L 210.299967 219.15091 
L 208.443202 222.712911 
L 206.586438 225.837152 
L 204.729673 228.338863 
L 202.872909 230.073481 
L 201.016145 230.941608 
L 199.15938 230.891657 
L 197.302616 229.920254 
L 195.445851 228.070577 
L 193.589087 225.428838 
L 191.732322 222.119145 
L 189.875558 218.297035 
L 188.018794 214.14196 
L 186.162029 209.849035 
L 184.305265 205.620359 
L 182.4485 201.656214 
L 180.591736 198.146433 
L 178.734972 195.26222 
L 176.878207 193.148682 
L 175.021443 191.918296 
L 173.164678 191.645526 
L 171.307914 192.362746 
L 169.45115 194.057611 
L 167.594385 216.97943 
L 165.737621 216.978779 
L 163.880856 203.004277 
L 162.024092 207.311197 
L 160.167328 211.950019 
L 158.310563 216.680903 
L 156.453799 221.240806 
L 154.597034 225.352173 
L 152.74027 228.732601 
L 150.883506 231.105198 
L 149.026741 232.209372 
L 147.169977 231.811745 
L 145.313212 229.716841 
L 143.456448 225.77723 
L 141.599683 219.902755 
L 139.742919 212.068491 
L 137.886155 202.321087 
L 136.02939 190.783142 
L 134.172626 177.655315 
L 132.315861 163.215865 
L 130.459097 147.817397 
L 128.602333 131.880609 
L 126.745568 115.884922 
L 124.888804 100.355939 
L 123.032039 85.84978 
L 121.175275 72.934422 
L 119.318511 62.168311 
L 117.461746 54.076637 
L 115.604982 49.125797 
L 113.748217 47.696751 
L 111.891453 50.058148 
L 110.034689 56.340292 
L 108.177924 66.511232 
L 106.32116 80.3565 
L 104.464395 97.464265 
L 102.607631 117.21795 
L 100.750866 138.798629 
L 98.894102 161.19988 
L 97.037338 183.258049 
L 95.180573 203.701273 
L 93.323809 221.220993 
L 91.467044 234.570059 
L 89.61028 242.691989 
L 87.753516 244.886394 
L 85.896751 241.016033 
L 84.039987 231.761501 
L 82.183222 218.930062 
L 80.326458 205.825708 
L 78.469694 197.688109 
L 76.612929 202.208736 
L 74.756165 230.133093 
z
" clip-path="url(#p91af862f80)" style="fill: #d62728; fill-opacity: 0.166667"/>
   </g>
   <g id="PolyCollection_5">
    <path d="M 74.756165 220.624452 
L 74.756165 216.974213 
L 76.458531 216.974213 
L 78.160897 216.974213 
L 79.863263 216.974213 
L 81.565629 216.974213 
L 83.267995 216.974213 
L 84.970361 216.974213 
L 86.672727 216.974213 
L 88.375093 216.974213 
L 90.077459 216.974213 
L 91.779825 216.974213 
L 93.482191 216.974213 
L 95.184558 216.974213 
L 96.886924 216.974213 
L 98.58929 216.974213 
L 100.291656 216.974213 
L 101.994022 216.974213 
L 103.696388 216.974213 
L 105.398754 216.974213 
L 107.10112 216.974213 
L 108.803486 216.974213 
L 110.505852 216.974213 
L 112.208218 216.974213 
L 113.910584 216.974213 
L 115.61295 216.974213 
L 117.315316 216.974213 
L 119.017682 216.974213 
L 120.720048 216.974213 
L 122.422415 216.974213 
L 124.124781 216.974213 
L 125.827147 216.974213 
L 127.529513 216.974213 
L 129.231879 216.974213 
L 130.934245 216.974213 
L 132.636611 216.974213 
L 134.338977 216.974213 
L 136.041343 216.974213 
L 137.743709 216.974213 
L 139.446075 216.974213 
L 141.148441 216.974213 
L 142.850807 216.974213 
L 144.553173 216.974213 
L 146.255539 216.974213 
L 147.957905 216.974213 
L 149.660272 216.974213 
L 151.362638 216.974213 
L 153.065004 216.974213 
L 154.76737 216.974213 
L 156.469736 216.974213 
L 158.172102 216.974213 
L 159.874468 216.974213 
L 161.576834 216.974213 
L 163.2792 216.974213 
L 164.981566 216.974213 
L 166.683932 216.974213 
L 168.386298 216.974213 
L 170.088664 216.974213 
L 171.79103 216.974213 
L 173.493396 216.974213 
L 175.195762 216.974213 
L 176.898129 216.974213 
L 178.600495 216.974213 
L 180.302861 216.974213 
L 182.005227 216.974213 
L 183.707593 216.974213 
L 185.409959 216.974213 
L 187.112325 216.974213 
L 188.814691 216.974213 
L 190.517057 216.974213 
L 192.219423 216.974213 
L 193.921789 216.974213 
L 195.624155 216.974213 
L 197.326521 216.974213 
L 199.028887 216.974213 
L 200.731253 216.974213 
L 202.43362 216.974213 
L 204.135986 216.974213 
L 205.838352 216.974213 
L 207.540718 216.974213 
L 209.243084 216.974213 
L 210.94545 216.974213 
L 212.647816 216.974213 
L 214.350182 216.974213 
L 216.052548 216.974213 
L 217.754914 216.974213 
L 219.45728 216.974213 
L 221.159646 216.974213 
L 222.862012 216.974213 
L 224.564378 216.974213 
L 226.266744 216.974213 
L 227.96911 216.974213 
L 229.671477 216.974213 
L 231.373843 216.974213 
L 233.076209 216.974213 
L 234.778575 216.974213 
L 236.480941 216.974213 
L 238.183307 216.974213 
L 239.885673 216.974213 
L 241.588039 216.974213 
L 243.290405 216.974213 
L 243.290405 229.372942 
L 243.290405 229.372942 
L 241.588039 212.732412 
L 239.885673 206.853493 
L 238.183307 207.344089 
L 236.480941 211.056296 
L 234.778575 215.832091 
L 233.076209 220.286926 
L 231.373843 223.627141 
L 229.671477 225.497439 
L 227.96911 225.854934 
L 226.266744 224.866563 
L 224.564378 222.826928 
L 222.862012 220.093849 
L 221.159646 217.039198 
L 219.45728 214.012742 
L 217.754914 211.316996 
L 216.052548 209.191237 
L 214.350182 207.803055 
L 212.647816 207.245954 
L 210.94545 207.541731 
L 209.243084 208.64646 
L 207.540718 210.459098 
L 205.838352 212.831833 
L 204.135986 215.581437 
L 202.43362 218.501002 
L 200.731253 221.37151 
L 199.028887 223.972847 
L 197.326521 226.093891 
L 195.624155 227.541435 
L 193.921789 228.147759 
L 192.219423 227.776716 
L 190.517057 226.328289 
L 188.814691 223.741596 
L 187.112325 219.996369 
L 185.409959 215.112999 
L 183.707593 209.151221 
L 182.005227 202.207584 
L 180.302861 194.411858 
L 178.600495 185.922525 
L 176.898129 176.921544 
L 175.195762 167.608566 
L 173.493396 158.194788 
L 171.79103 148.896619 
L 170.088664 139.92935 
L 168.386298 131.500983 
L 166.683932 123.806392 
L 164.981566 117.021953 
L 163.2792 111.300777 
L 161.576834 106.768655 
L 159.874468 216.966639 
L 158.172102 216.966605 
L 156.469736 100.738925 
L 154.76737 101.356542 
L 153.065004 103.325157 
L 151.362638 106.579346 
L 149.660272 111.021913 
L 147.957905 116.52681 
L 146.255539 122.94287 
L 144.553173 130.098266 
L 142.850807 137.80559 
L 141.148441 145.867413 
L 139.446075 154.082187 
L 137.743709 162.250342 
L 136.041343 170.180384 
L 134.338977 177.694857 
L 132.636611 184.635948 
L 130.934245 190.870588 
L 129.231879 196.294853 
L 127.529513 200.837495 
L 125.827147 204.462457 
L 124.124781 207.170207 
L 122.422415 208.997795 
L 120.720048 210.017513 
L 119.017682 210.334117 
L 117.315316 210.080571 
L 115.61295 209.412345 
L 113.910584 208.500328 
L 112.208218 207.522505 
L 110.505852 206.654567 
L 108.803486 206.05975 
L 107.10112 205.878244 
L 105.398754 206.216599 
L 103.696388 207.137691 
L 101.994022 208.651871 
L 100.291656 210.710068 
L 98.58929 213.199729 
L 96.886924 215.944615 
L 95.184558 218.709624 
L 93.482191 221.211956 
L 91.779825 223.140107 
L 90.077459 224.182368 
L 88.375093 224.066664 
L 86.672727 222.613802 
L 84.970361 219.806381 
L 83.267995 215.875867 
L 81.565629 211.410547 
L 79.863263 207.487341 
L 78.160897 205.830719 
L 76.458531 209.002231 
L 74.756165 220.624452 
z
" clip-path="url(#p91af862f80)" style="fill: #9467bd; fill-opacity: 0.166667"/>
   </g>
   <g id="PolyCollection_6">
    <path d="M 74.756165 212.590046 
L 74.756165 216.974213 
L 76.374155 216.974213 
L 77.992146 216.974213 
L 79.610136 216.974213 
L 81.228127 216.974213 
L 82.846117 216.974213 
L 84.464108 216.974213 
L 86.082099 216.974213 
L 87.700089 216.974213 
L 89.31808 216.974213 
L 90.93607 216.974213 
L 92.554061 216.974213 
L 94.172051 216.974213 
L 95.790042 216.974213 
L 97.408032 216.974213 
L 99.026023 216.974213 
L 100.644013 216.974213 
L 102.262004 216.974213 
L 103.879994 216.974213 
L 105.497985 216.974213 
L 107.115975 216.974213 
L 108.733966 216.974213 
L 110.351957 216.974213 
L 111.969947 216.974213 
L 113.587938 216.974213 
L 115.205928 216.974213 
L 116.823919 216.974213 
L 118.441909 216.974213 
L 120.0599 216.974213 
L 121.67789 216.974213 
L 123.295881 216.974213 
L 124.913871 216.974213 
L 126.531862 216.974213 
L 128.149852 216.974213 
L 129.767843 216.974213 
L 131.385833 216.974213 
L 133.003824 216.974213 
L 134.621815 216.974213 
L 136.239805 216.974213 
L 137.857796 216.974213 
L 139.475786 216.974213 
L 141.093777 216.974213 
L 142.711767 216.974213 
L 144.329758 216.974213 
L 145.947748 216.974213 
L 147.565739 216.974213 
L 149.183729 216.974213 
L 150.80172 216.974213 
L 152.41971 216.974213 
L 154.037701 216.974213 
L 155.655692 216.974213 
L 157.273682 216.974213 
L 158.891673 216.974213 
L 160.509663 216.974213 
L 162.127654 216.974213 
L 163.745644 216.974213 
L 165.363635 216.974213 
L 166.981625 216.974213 
L 168.599616 216.974213 
L 170.217606 216.974213 
L 171.835597 216.974213 
L 173.453587 216.974213 
L 175.071578 216.974213 
L 176.689568 216.974213 
L 178.307559 216.974213 
L 179.92555 216.974213 
L 181.54354 216.974213 
L 183.161531 216.974213 
L 184.779521 216.974213 
L 186.397512 216.974213 
L 188.015502 216.974213 
L 189.633493 216.974213 
L 191.251483 216.974213 
L 192.869474 216.974213 
L 194.487464 216.974213 
L 196.105455 216.974213 
L 197.723445 216.974213 
L 199.341436 216.974213 
L 200.959426 216.974213 
L 202.577417 216.974213 
L 204.195408 216.974213 
L 205.813398 216.974213 
L 207.431389 216.974213 
L 209.049379 216.974213 
L 210.66737 216.974213 
L 212.28536 216.974213 
L 213.903351 216.974213 
L 215.521341 216.974213 
L 217.139332 216.974213 
L 218.757322 216.974213 
L 220.375313 216.974213 
L 221.993303 216.974213 
L 223.611294 216.974213 
L 225.229284 216.974213 
L 226.847275 216.974213 
L 228.465266 216.974213 
L 230.083256 216.974213 
L 231.701247 216.974213 
L 233.319237 216.974213 
L 234.937228 216.974213 
L 234.937228 246.617919 
L 234.937228 246.617919 
L 233.319237 209.684731 
L 231.701247 195.02788 
L 230.083256 194.043786 
L 228.465266 200.476265 
L 226.847275 209.945735 
L 225.229284 219.548427 
L 223.611294 227.518014 
L 221.993303 232.942633 
L 220.375313 235.530818 
L 218.757322 235.420405 
L 217.139332 233.024931 
L 215.521341 228.91254 
L 213.903351 223.712859 
L 212.28536 218.047689 
L 210.66737 212.481813 
L 209.049379 207.490525 
L 207.431389 203.440905 
L 205.813398 200.584135 
L 204.195408 199.056502 
L 202.577417 198.887004 
L 200.959426 200.009732 
L 199.341436 202.279478 
L 197.723445 205.489229 
L 196.105455 209.388422 
L 194.487464 213.701027 
L 192.869474 218.142726 
L 191.251483 222.436579 
L 189.633493 226.326753 
L 188.015502 229.589991 
L 186.397512 232.044639 
L 184.779521 233.557138 
L 183.161531 234.045974 
L 181.54354 233.483188 
L 179.92555 231.893559 
L 178.307559 229.351691 
L 176.689568 225.977229 
L 175.071578 221.928488 
L 173.453587 217.394798 
L 171.835597 212.587886 
L 170.217606 207.732612 
L 168.599616 203.057399 
L 166.981625 198.784666 
L 165.363635 195.121573 
L 163.745644 192.251367 
L 162.127654 190.325589 
L 160.509663 189.457372 
L 158.891673 189.716049 
L 157.273682 191.123208 
L 155.655692 216.981381 
L 154.037701 216.981333 
L 152.41971 199.725135 
L 150.80172 204.845242 
L 149.183729 210.58629 
L 147.565739 216.691526 
L 145.947748 222.870482 
L 144.329758 228.80807 
L 142.711767 234.174927 
L 141.093777 238.638775 
L 139.475786 241.87649 
L 137.857796 243.586556 
L 136.239805 243.501536 
L 134.621815 241.400211 
L 133.003824 237.118954 
L 131.385833 230.561982 
L 129.767843 221.710043 
L 128.149852 210.62718 
L 126.531862 197.465173 
L 124.913871 182.465325 
L 123.295881 165.957286 
L 121.67789 148.354645 
L 120.0599 130.147103 
L 118.441909 111.889115 
L 116.823919 94.184955 
L 115.205928 77.670282 
L 113.587938 62.990411 
L 111.969947 50.775591 
L 110.351957 41.613784 
L 108.733966 36.02159 
L 107.115975 34.414125 
L 105.497985 37.074919 
L 103.879994 44.127057 
L 102.262004 55.507097 
L 100.644013 70.943496 
L 99.026023 89.941625 
L 97.408032 111.777713 
L 95.790042 135.504413 
L 94.172051 159.971039 
L 92.554061 183.861885 
L 90.93607 205.756463 
L 89.31808 224.215906 
L 87.700089 237.900245 
L 86.082099 245.721758 
L 84.464108 247.040088 
L 82.846117 241.905375 
L 81.228127 231.356206 
L 79.610136 217.779794 
L 77.992146 205.342423 
L 76.374155 200.498849 
L 74.756165 212.590046 
z
" clip-path="url(#p91af862f80)" style="fill: #8c564b; fill-opacity: 0.166667"/>
   </g>
   <g id="matplotlib.axis_1">
    <g id="xtick_1">
     <g id="line2d_1">
      <defs>
       <path id="m9a87531798" d="M 0 0 
L 0 3.5 
" style="stroke: #000000; stroke-width: 0.8"/>
      </defs>
      <g>
       <use xlink:href="#m9a87531798" x="74.756165" y="288.430125" style="stroke: #000000; stroke-width: 0.8"/>
      </g>
     </g>
     <g id="text_1">
      <!-- 0.000 -->
      <g transform="translate(60.442102 303.028562) scale(0.1 -0.1)">
       <defs>
        <path id="DejaVuSans-30" d="M 2034 4250 
Q 1547 4250 1301 3770 
Q 1056 3291 1056 2328 
Q 1056 1369 1301 889 
Q 1547 409 2034 409 
Q 2525 409 2770 889 
Q 3016 1369 3016 2328 
Q 3016 3291 2770 3770 
Q 2525 4250 2034 4250 
z
M 2034 4750 
Q 2819 4750 3233 4129 
Q 3647 3509 3647 2328 
Q 3647 1150 3233 529 
Q 2819 -91 2034 -91 
Q 1250 -91 836 529 
Q 422 1150 422 2328 
Q 422 3509 836 4129 
Q 1250 4750 2034 4750 
z
" transform="scale(0.015625)"/>
        <path id="DejaVuSans-2e" d="M 684 794 
L 1344 794 
L 1344 0 
L 684 0 
L 684 794 
z
" transform="scale(0.015625)"/>
       </defs>
       <use xlink:href="#DejaVuSans-30"/>
       <use xlink:href="#DejaVuSans-2e" x="63.623047"/>
       <use xlink:href="#DejaVuSans-30" x="95.410156"/>
       <use xlink:href="#DejaVuSans-30" x="159.033203"/>
       <use xlink:href="#DejaVuSans-30" x="222.65625"/>
      </g>
     </g>
    </g>
    <g id="xtick_2">
     <g id="line2d_2">
      <g>
       <use xlink:href="#m9a87531798" x="149.971738" y="288.430125" style="stroke: #000000; stroke-width: 0.8"/>
      </g>
     </g>
     <g id="text_2">
      <!-- 0.001 -->
      <g transform="translate(135.657675 303.028562) scale(0.1 -0.1)">
       <defs>
        <path id="DejaVuSans-31" d="M 794 531 
L 1825 531 
L 1825 4091 
L 703 3866 
L 703 4441 
L 1819 4666 
L 2450 4666 
L 2450 531 
L 3481 531 
L 3481 0 
L 794 0 
L 794 531 
z
" transform="scale(0.015625)"/>
       </defs>
       <use xlink:href="#DejaVuSans-30"/>
       <use xlink:href="#DejaVuSans-2e" x="63.623047"/>
       <use xlink:href="#DejaVuSans-30" x="95.410156"/>
       <use xlink:href="#DejaVuSans-30" x="159.033203"/>
       <use xlink:href="#DejaVuSans-31" x="222.65625"/>
      </g>
     </g>
    </g>
    <g id="xtick_3">
     <g id="line2d_3">
      <g>
       <use xlink:href="#m9a87531798" x="225.187311" y="288.430125" style="stroke: #000000; stroke-width: 0.8"/>
      </g>
     </g>
     <g id="text_3">
      <!-- 0.002 -->
      <g transform="translate(210.873248 303.028562) scale(0.1 -0.1)">
       <defs>
        <path id="DejaVuSans-32" d="M 1228 531 
L 3431 531 
L 3431 0 
L 469 0 
L 469 531 
Q 828 903 1448 1529 
Q 2069 2156 2228 2338 
Q 2531 2678 2651 2914 
Q 2772 3150 2772 3378 
Q 2772 3750 2511 3984 
Q 2250 4219 1831 4219 
Q 1534 4219 1204 4116 
Q 875 4013 500 3803 
L 500 4441 
Q 881 4594 1212 4672 
Q 1544 4750 1819 4750 
Q 2544 4750 2975 4387 
Q 3406 4025 3406 3419 
Q 3406 3131 3298 2873 
Q 3191 2616 2906 2266 
Q 2828 2175 2409 1742 
Q 1991 1309 1228 531 
z
" transform="scale(0.015625)"/>
       </defs>
       <use xlink:href="#DejaVuSans-30"/>
       <use xlink:href="#DejaVuSans-2e" x="63.623047"/>
       <use xlink:href="#DejaVuSans-30" x="95.410156"/>
       <use xlink:href="#DejaVuSans-30" x="159.033203"/>
       <use xlink:href="#DejaVuSans-32" x="222.65625"/>
      </g>
     </g>
    </g>
    <g id="xtick_4">
     <g id="line2d_4">
      <g>
       <use xlink:href="#m9a87531798" x="300.402884" y="288.430125" style="stroke: #000000; stroke-width: 0.8"/>
      </g>
     </g>
     <g id="text_4">
      <!-- 0.003 -->
      <g transform="translate(286.088821 303.028562) scale(0.1 -0.1)">
       <defs>
        <path id="DejaVuSans-33" d="M 2597 2516 
Q 3050 2419 3304 2112 
Q 3559 1806 3559 1356 
Q 3559 666 3084 287 
Q 2609 -91 1734 -91 
Q 1441 -91 1130 -33 
Q 819 25 488 141 
L 488 750 
Q 750 597 1062 519 
Q 1375 441 1716 441 
Q 2309 441 2620 675 
Q 2931 909 2931 1356 
Q 2931 1769 2642 2001 
Q 2353 2234 1838 2234 
L 1294 2234 
L 1294 2753 
L 1863 2753 
Q 2328 2753 2575 2939 
Q 2822 3125 2822 3475 
Q 2822 3834 2567 4026 
Q 2313 4219 1838 4219 
Q 1578 4219 1281 4162 
Q 984 4106 628 3988 
L 628 4550 
Q 988 4650 1302 4700 
Q 1616 4750 1894 4750 
Q 2613 4750 3031 4423 
Q 3450 4097 3450 3541 
Q 3450 3153 3228 2886 
Q 3006 2619 2597 2516 
z
" transform="scale(0.015625)"/>
       </defs>
       <use xlink:href="#DejaVuSans-30"/>
       <use xlink:href="#DejaVuSans-2e" x="63.623047"/>
       <use xlink:href="#DejaVuSans-30" x="95.410156"/>
       <use xlink:href="#DejaVuSans-30" x="159.033203"/>
       <use xlink:href="#DejaVuSans-33" x="222.65625"/>
      </g>
     </g>
    </g>
    <g id="xtick_5">
     <g id="line2d_5">
      <g>
       <use xlink:href="#m9a87531798" x="375.618457" y="288.430125" style="stroke: #000000; stroke-width: 0.8"/>
      </g>
     </g>
     <g id="text_5">
      <!-- 0.004 -->
      <g transform="translate(361.304394 303.028562) scale(0.1 -0.1)">
       <defs>
        <path id="DejaVuSans-34" d="M 2419 4116 
L 825 1625 
L 2419 1625 
L 2419 4116 
z
M 2253 4666 
L 3047 4666 
L 3047 1625 
L 3713 1625 
L 3713 1100 
L 3047 1100 
L 3047 0 
L 2419 0 
L 2419 1100 
L 313 1100 
L 313 1709 
L 2253 4666 
z
" transform="scale(0.015625)"/>
       </defs>
       <use xlink:href="#DejaVuSans-30"/>
       <use xlink:href="#DejaVuSans-2e" x="63.623047"/>
       <use xlink:href="#DejaVuSans-30" x="95.410156"/>
       <use xlink:href="#DejaVuSans-30" x="159.033203"/>
       <use xlink:href="#DejaVuSans-34" x="222.65625"/>
      </g>
     </g>
    </g>
    <g id="text_6">
     <!-- Pixel values -->
     <g transform="translate(207.671719 316.706687) scale(0.1 -0.1)">
      <defs>
       <path id="DejaVuSans-50" d="M 1259 4147 
L 1259 2394 
L 2053 2394 
Q 2494 2394 2734 2622 
Q 2975 2850 2975 3272 
Q 2975 3691 2734 3919 
Q 2494 4147 2053 4147 
L 1259 4147 
z
M 628 4666 
L 2053 4666 
Q 2838 4666 3239 4311 
Q 3641 3956 3641 3272 
Q 3641 2581 3239 2228 
Q 2838 1875 2053 1875 
L 1259 1875 
L 1259 0 
L 628 0 
L 628 4666 
z
" transform="scale(0.015625)"/>
       <path id="DejaVuSans-69" d="M 603 3500 
L 1178 3500 
L 1178 0 
L 603 0 
L 603 3500 
z
M 603 4863 
L 1178 4863 
L 1178 4134 
L 603 4134 
L 603 4863 
z
" transform="scale(0.015625)"/>
       <path id="DejaVuSans-78" d="M 3513 3500 
L 2247 1797 
L 3578 0 
L 2900 0 
L 1881 1375 
L 863 0 
L 184 0 
L 1544 1831 
L 300 3500 
L 978 3500 
L 1906 2253 
L 2834 3500 
L 3513 3500 
z
" transform="scale(0.015625)"/>
       <path id="DejaVuSans-65" d="M 3597 1894 
L 3597 1613 
L 953 1613 
Q 991 1019 1311 708 
Q 1631 397 2203 397 
Q 2534 397 2845 478 
Q 3156 559 3463 722 
L 3463 178 
Q 3153 47 2828 -22 
Q 2503 -91 2169 -91 
Q 1331 -91 842 396 
Q 353 884 353 1716 
Q 353 2575 817 3079 
Q 1281 3584 2069 3584 
Q 2775 3584 3186 3129 
Q 3597 2675 3597 1894 
z
M 3022 2063 
Q 3016 2534 2758 2815 
Q 2500 3097 2075 3097 
Q 1594 3097 1305 2825 
Q 1016 2553 972 2059 
L 3022 2063 
z
" transform="scale(0.015625)"/>
       <path id="DejaVuSans-6c" d="M 603 4863 
L 1178 4863 
L 1178 0 
L 603 0 
L 603 4863 
z
" transform="scale(0.015625)"/>
       <path id="DejaVuSans-20" transform="scale(0.015625)"/>
       <path id="DejaVuSans-76" d="M 191 3500 
L 800 3500 
L 1894 563 
L 2988 3500 
L 3597 3500 
L 2284 0 
L 1503 0 
L 191 3500 
z
" transform="scale(0.015625)"/>
       <path id="DejaVuSans-61" d="M 2194 1759 
Q 1497 1759 1228 1600 
Q 959 1441 959 1056 
Q 959 750 1161 570 
Q 1363 391 1709 391 
Q 2188 391 2477 730 
Q 2766 1069 2766 1631 
L 2766 1759 
L 2194 1759 
z
M 3341 1997 
L 3341 0 
L 2766 0 
L 2766 531 
Q 2569 213 2275 61 
Q 1981 -91 1556 -91 
Q 1019 -91 701 211 
Q 384 513 384 1019 
Q 384 1609 779 1909 
Q 1175 2209 1959 2209 
L 2766 2209 
L 2766 2266 
Q 2766 2663 2505 2880 
Q 2244 3097 1772 3097 
Q 1472 3097 1187 3025 
Q 903 2953 641 2809 
L 641 3341 
Q 956 3463 1253 3523 
Q 1550 3584 1831 3584 
Q 2591 3584 2966 3190 
Q 3341 2797 3341 1997 
z
" transform="scale(0.015625)"/>
       <path id="DejaVuSans-75" d="M 544 1381 
L 544 3500 
L 1119 3500 
L 1119 1403 
Q 1119 906 1312 657 
Q 1506 409 1894 409 
Q 2359 409 2629 706 
Q 2900 1003 2900 1516 
L 2900 3500 
L 3475 3500 
L 3475 0 
L 2900 0 
L 2900 538 
Q 2691 219 2414 64 
Q 2138 -91 1772 -91 
Q 1169 -91 856 284 
Q 544 659 544 1381 
z
M 1991 3584 
L 1991 3584 
z
" transform="scale(0.015625)"/>
       <path id="DejaVuSans-73" d="M 2834 3397 
L 2834 2853 
Q 2591 2978 2328 3040 
Q 2066 3103 1784 3103 
Q 1356 3103 1142 2972 
Q 928 2841 928 2578 
Q 928 2378 1081 2264 
Q 1234 2150 1697 2047 
L 1894 2003 
Q 2506 1872 2764 1633 
Q 3022 1394 3022 966 
Q 3022 478 2636 193 
Q 2250 -91 1575 -91 
Q 1294 -91 989 -36 
Q 684 19 347 128 
L 347 722 
Q 666 556 975 473 
Q 1284 391 1588 391 
Q 1994 391 2212 530 
Q 2431 669 2431 922 
Q 2431 1156 2273 1281 
Q 2116 1406 1581 1522 
L 1381 1569 
Q 847 1681 609 1914 
Q 372 2147 372 2553 
Q 372 3047 722 3315 
Q 1072 3584 1716 3584 
Q 2034 3584 2315 3537 
Q 2597 3491 2834 3397 
z
" transform="scale(0.015625)"/>
      </defs>
      <use xlink:href="#DejaVuSans-50"/>
      <use xlink:href="#DejaVuSans-69" x="58.052734"/>
      <use xlink:href="#DejaVuSans-78" x="85.835938"/>
      <use xlink:href="#DejaVuSans-65" x="141.890625"/>
      <use xlink:href="#DejaVuSans-6c" x="203.414062"/>
      <use xlink:href="#DejaVuSans-20" x="231.197266"/>
      <use xlink:href="#DejaVuSans-76" x="262.984375"/>
      <use xlink:href="#DejaVuSans-61" x="322.164062"/>
      <use xlink:href="#DejaVuSans-6c" x="383.443359"/>
      <use xlink:href="#DejaVuSans-75" x="411.226562"/>
      <use xlink:href="#DejaVuSans-65" x="474.605469"/>
      <use xlink:href="#DejaVuSans-73" x="536.128906"/>
     </g>
    </g>
   </g>
   <g id="matplotlib.axis_2">
    <g id="ytick_1">
     <g id="line2d_6">
      <defs>
       <path id="m98694a718e" d="M 0 0 
L -3.5 0 
" style="stroke: #000000; stroke-width: 0.8"/>
      </defs>
      <g>
       <use xlink:href="#m98694a718e" x="58.523438" y="266.830556" style="stroke: #000000; stroke-width: 0.8"/>
      </g>
     </g>
     <g id="text_7">
      <!-- −0.02 -->
      <g transform="translate(20.878125 270.629775) scale(0.1 -0.1)">
       <defs>
        <path id="DejaVuSans-2212" d="M 678 2272 
L 4684 2272 
L 4684 1741 
L 678 1741 
L 678 2272 
z
" transform="scale(0.015625)"/>
       </defs>
       <use xlink:href="#DejaVuSans-2212"/>
       <use xlink:href="#DejaVuSans-30" x="83.789062"/>
       <use xlink:href="#DejaVuSans-2e" x="147.412109"/>
       <use xlink:href="#DejaVuSans-30" x="179.199219"/>
       <use xlink:href="#DejaVuSans-32" x="242.822266"/>
      </g>
     </g>
    </g>
    <g id="ytick_2">
     <g id="line2d_7">
      <g>
       <use xlink:href="#m98694a718e" x="58.523438" y="216.974213" style="stroke: #000000; stroke-width: 0.8"/>
      </g>
     </g>
     <g id="text_8">
      <!-- 0.00 -->
      <g transform="translate(29.257813 220.773432) scale(0.1 -0.1)">
       <use xlink:href="#DejaVuSans-30"/>
       <use xlink:href="#DejaVuSans-2e" x="63.623047"/>
       <use xlink:href="#DejaVuSans-30" x="95.410156"/>
       <use xlink:href="#DejaVuSans-30" x="159.033203"/>
      </g>
     </g>
    </g>
    <g id="ytick_3">
     <g id="line2d_8">
      <g>
       <use xlink:href="#m98694a718e" x="58.523438" y="167.117871" style="stroke: #000000; stroke-width: 0.8"/>
      </g>
     </g>
     <g id="text_9">
      <!-- 0.02 -->
      <g transform="translate(29.257813 170.91709) scale(0.1 -0.1)">
       <use xlink:href="#DejaVuSans-30"/>
       <use xlink:href="#DejaVuSans-2e" x="63.623047"/>
       <use xlink:href="#DejaVuSans-30" x="95.410156"/>
       <use xlink:href="#DejaVuSans-32" x="159.033203"/>
      </g>
     </g>
    </g>
    <g id="ytick_4">
     <g id="line2d_9">
      <g>
       <use xlink:href="#m98694a718e" x="58.523438" y="117.261529" style="stroke: #000000; stroke-width: 0.8"/>
      </g>
     </g>
     <g id="text_10">
      <!-- 0.04 -->
      <g transform="translate(29.257813 121.060747) scale(0.1 -0.1)">
       <use xlink:href="#DejaVuSans-30"/>
       <use xlink:href="#DejaVuSans-2e" x="63.623047"/>
       <use xlink:href="#DejaVuSans-30" x="95.410156"/>
       <use xlink:href="#DejaVuSans-34" x="159.033203"/>
      </g>
     </g>
    </g>
    <g id="ytick_5">
     <g id="line2d_10">
      <g>
       <use xlink:href="#m98694a718e" x="58.523438" y="67.405186" style="stroke: #000000; stroke-width: 0.8"/>
      </g>
     </g>
     <g id="text_11">
      <!-- 0.06 -->
      <g transform="translate(29.257813 71.204405) scale(0.1 -0.1)">
       <defs>
        <path id="DejaVuSans-36" d="M 2113 2584 
Q 1688 2584 1439 2293 
Q 1191 2003 1191 1497 
Q 1191 994 1439 701 
Q 1688 409 2113 409 
Q 2538 409 2786 701 
Q 3034 994 3034 1497 
Q 3034 2003 2786 2293 
Q 2538 2584 2113 2584 
z
M 3366 4563 
L 3366 3988 
Q 3128 4100 2886 4159 
Q 2644 4219 2406 4219 
Q 1781 4219 1451 3797 
Q 1122 3375 1075 2522 
Q 1259 2794 1537 2939 
Q 1816 3084 2150 3084 
Q 2853 3084 3261 2657 
Q 3669 2231 3669 1497 
Q 3669 778 3244 343 
Q 2819 -91 2113 -91 
Q 1303 -91 875 529 
Q 447 1150 447 2328 
Q 447 3434 972 4092 
Q 1497 4750 2381 4750 
Q 2619 4750 2861 4703 
Q 3103 4656 3366 4563 
z
" transform="scale(0.015625)"/>
       </defs>
       <use xlink:href="#DejaVuSans-30"/>
       <use xlink:href="#DejaVuSans-2e" x="63.623047"/>
       <use xlink:href="#DejaVuSans-30" x="95.410156"/>
       <use xlink:href="#DejaVuSans-36" x="159.033203"/>
      </g>
     </g>
    </g>
    <g id="text_12">
     <!-- Frequency -->
     <g transform="translate(14.798438 181.203812) rotate(-90) scale(0.1 -0.1)">
      <defs>
       <path id="DejaVuSans-46" d="M 628 4666 
L 3309 4666 
L 3309 4134 
L 1259 4134 
L 1259 2759 
L 3109 2759 
L 3109 2228 
L 1259 2228 
L 1259 0 
L 628 0 
L 628 4666 
z
" transform="scale(0.015625)"/>
       <path id="DejaVuSans-72" d="M 2631 2963 
Q 2534 3019 2420 3045 
Q 2306 3072 2169 3072 
Q 1681 3072 1420 2755 
Q 1159 2438 1159 1844 
L 1159 0 
L 581 0 
L 581 3500 
L 1159 3500 
L 1159 2956 
Q 1341 3275 1631 3429 
Q 1922 3584 2338 3584 
Q 2397 3584 2469 3576 
Q 2541 3569 2628 3553 
L 2631 2963 
z
" transform="scale(0.015625)"/>
       <path id="DejaVuSans-71" d="M 947 1747 
Q 947 1113 1208 752 
Q 1469 391 1925 391 
Q 2381 391 2643 752 
Q 2906 1113 2906 1747 
Q 2906 2381 2643 2742 
Q 2381 3103 1925 3103 
Q 1469 3103 1208 2742 
Q 947 2381 947 1747 
z
M 2906 525 
Q 2725 213 2448 61 
Q 2172 -91 1784 -91 
Q 1150 -91 751 415 
Q 353 922 353 1747 
Q 353 2572 751 3078 
Q 1150 3584 1784 3584 
Q 2172 3584 2448 3432 
Q 2725 3281 2906 2969 
L 2906 3500 
L 3481 3500 
L 3481 -1331 
L 2906 -1331 
L 2906 525 
z
" transform="scale(0.015625)"/>
       <path id="DejaVuSans-6e" d="M 3513 2113 
L 3513 0 
L 2938 0 
L 2938 2094 
Q 2938 2591 2744 2837 
Q 2550 3084 2163 3084 
Q 1697 3084 1428 2787 
Q 1159 2491 1159 1978 
L 1159 0 
L 581 0 
L 581 3500 
L 1159 3500 
L 1159 2956 
Q 1366 3272 1645 3428 
Q 1925 3584 2291 3584 
Q 2894 3584 3203 3211 
Q 3513 2838 3513 2113 
z
" transform="scale(0.015625)"/>
       <path id="DejaVuSans-63" d="M 3122 3366 
L 3122 2828 
Q 2878 2963 2633 3030 
Q 2388 3097 2138 3097 
Q 1578 3097 1268 2742 
Q 959 2388 959 1747 
Q 959 1106 1268 751 
Q 1578 397 2138 397 
Q 2388 397 2633 464 
Q 2878 531 3122 666 
L 3122 134 
Q 2881 22 2623 -34 
Q 2366 -91 2075 -91 
Q 1284 -91 818 406 
Q 353 903 353 1747 
Q 353 2603 823 3093 
Q 1294 3584 2113 3584 
Q 2378 3584 2631 3529 
Q 2884 3475 3122 3366 
z
" transform="scale(0.015625)"/>
       <path id="DejaVuSans-79" d="M 2059 -325 
Q 1816 -950 1584 -1140 
Q 1353 -1331 966 -1331 
L 506 -1331 
L 506 -850 
L 844 -850 
Q 1081 -850 1212 -737 
Q 1344 -625 1503 -206 
L 1606 56 
L 191 3500 
L 800 3500 
L 1894 763 
L 2988 3500 
L 3597 3500 
L 2059 -325 
z
" transform="scale(0.015625)"/>
      </defs>
      <use xlink:href="#DejaVuSans-46"/>
      <use xlink:href="#DejaVuSans-72" x="50.269531"/>
      <use xlink:href="#DejaVuSans-65" x="89.132812"/>
      <use xlink:href="#DejaVuSans-71" x="150.65625"/>
      <use xlink:href="#DejaVuSans-75" x="214.132812"/>
      <use xlink:href="#DejaVuSans-65" x="277.511719"/>
      <use xlink:href="#DejaVuSans-6e" x="339.035156"/>
      <use xlink:href="#DejaVuSans-63" x="402.414062"/>
      <use xlink:href="#DejaVuSans-79" x="457.394531"/>
     </g>
    </g>
   </g>
   <g id="line2d_11">
    <path d="M 74.756165 216.241805 
L 78.035504 210.585819 
L 81.314842 209.263131 
L 84.594181 210.166048 
L 87.87352 211.732089 
L 91.152859 212.853127 
L 94.432198 212.794982 
L 97.711537 211.126638 
L 100.990876 207.658299 
L 104.270214 202.38753 
L 107.549553 195.452781 
L 110.828892 187.093622 
L 114.108231 177.61707 
L 117.38757 167.369407 
L 120.666909 156.71294 
L 123.946247 146.007183 
L 127.225586 135.593973 
L 130.504925 125.786062 
L 133.784264 116.858776 
L 137.063603 109.044324 
L 140.342942 102.528421 
L 143.62228 97.44887 
L 146.901619 93.895794 
L 150.180958 91.913253 
L 153.460297 91.501957 
L 156.739636 92.622871 
L 160.018975 95.201476 
L 163.298314 99.132501 
L 166.577652 104.284957 
L 169.856991 110.507328 
L 173.13633 117.632762 
L 176.415669 125.484174 
L 179.695008 133.879141 
L 182.974347 142.634519 
L 186.253685 151.570697 
L 189.533024 160.515453 
L 192.812363 169.307343 
L 196.091702 177.798623 
L 199.371041 185.85765 
L 202.65038 193.370782 
L 205.929718 200.243762 
L 209.209057 206.402588 
L 212.488396 211.793907 
L 215.767735 216.384926 
L 219.047074 220.162901 
L 222.326413 223.134209 
L 225.605752 225.323064 
L 228.88509 226.769908 
L 232.164429 227.529528 
L 235.443768 216.970191 
L 238.723107 216.97142 
L 242.002446 225.506231 
L 245.281785 224.296254 
L 248.561123 222.854409 
L 251.840462 221.269231 
L 255.119801 219.624932 
L 258.39914 217.999391 
L 261.678479 216.462399 
L 264.957818 215.074174 
L 268.237157 213.884202 
L 271.516495 212.93039 
L 274.795834 212.238566 
L 278.075173 211.822326 
L 281.354512 211.683223 
L 284.633851 211.811289 
L 287.91319 212.185889 
L 291.192528 212.77687 
L 294.471867 213.545979 
L 297.751206 214.448528 
L 301.030545 215.435252 
L 304.309884 216.454325 
L 307.589223 217.453468 
L 310.868561 218.382113 
L 314.1479 219.193548 
L 317.427239 219.846978 
L 320.706578 220.309455 
L 323.985917 220.557582 
L 327.265256 220.578935 
L 330.544595 220.373136 
L 333.823933 219.952499 
L 337.103272 219.342179 
L 340.382611 218.579765 
L 343.66195 217.714252 
L 346.941289 216.804328 
L 350.220628 215.915936 
L 353.499966 215.119054 
L 356.779305 214.48367 
L 360.058644 214.074916 
L 363.337983 213.947357 
L 366.617322 214.138426 
L 369.896661 214.661032 
L 373.175999 215.495356 
L 376.455338 216.579905 
L 379.734677 217.80188 
L 383.014016 218.986958 
L 386.293355 219.888599 
L 389.572694 220.177033 
L 392.852033 219.428084 
L 396.131371 217.112051 
L 399.41071 212.582858 
" clip-path="url(#p91af862f80)" style="fill: none; stroke: #1f77b4; stroke-width: 1.5; stroke-linecap: square"/>
   </g>
   <g id="line2d_12">
    <path d="M 74.756165 151.191828 
L 76.734542 227.226649 
L 78.712919 265.585535 
L 80.691297 276.334125 
L 82.669674 267.707938 
L 84.648051 246.354625 
L 86.626428 217.552714 
L 88.604806 185.408473 
L 90.583183 153.032414 
L 92.56156 122.696934 
L 94.539937 95.976491 
L 96.518315 73.871641 
L 98.496692 56.918226 
L 100.475069 45.282909 
L 102.453447 38.846212 
L 104.431824 37.274132 
L 106.410201 40.079368 
L 108.388578 46.673135 
L 110.366956 56.408464 
L 112.345333 68.615859 
L 114.32371 82.63212 
L 116.302087 97.823078 
L 118.280465 113.600961 
L 120.258842 129.437041 
L 122.237219 144.870181 
L 124.215597 159.511854 
L 126.193974 173.048147 
L 128.172351 185.239251 
L 130.150728 195.916866 
L 132.129106 204.979938 
L 134.107483 212.389092 
L 136.08586 218.160087 
L 138.064237 222.356613 
L 140.042615 225.08267 
L 142.020992 226.47479 
L 143.999369 226.694284 
L 145.977746 225.919717 
L 147.956124 224.339742 
L 149.934501 222.146426 
L 151.912878 219.529182 
L 153.891256 216.669361 
L 155.869633 213.735595 
L 157.84801 210.879901 
L 159.826387 208.234592 
L 161.804765 205.909978 
L 163.783142 203.992872 
L 165.761519 202.545842 
L 167.739896 201.607212 
L 169.718274 201.191731 
L 171.696651 216.976607 
L 173.675028 216.974662 
L 175.653406 207.197435 
L 177.631783 208.783829 
L 179.61016 210.4522 
L 181.588537 212.124967 
L 183.566915 213.7291 
L 185.545292 215.198869 
L 187.523669 216.478169 
L 189.502046 217.52237 
L 191.480424 218.299645 
L 193.458801 218.791764 
L 195.437178 218.994345 
L 197.415556 218.916554 
L 199.393933 218.580303 
L 201.37231 218.018954 
L 203.350687 217.275599 
L 205.329065 216.400964 
L 207.307442 215.451017 
L 209.285819 214.484368 
L 211.264196 213.559537 
L 213.242574 212.732203 
L 215.220951 212.052535 
L 217.199328 211.562695 
L 219.177705 211.294642 
L 221.156083 211.268313 
L 223.13446 211.490295 
L 225.112837 211.953071 
L 227.091215 212.634906 
L 229.069592 213.500436 
L 231.047969 214.502008 
L 233.026346 215.581768 
L 235.004724 216.674493 
L 236.983101 217.711126 
L 238.961478 218.622918 
L 240.939855 219.346059 
L 242.918233 219.826627 
L 244.89661 220.025619 
L 246.874987 219.923794 
L 248.853365 219.525969 
L 250.831742 218.864348 
L 252.810119 218.000403 
L 254.788496 217.024716 
L 256.766874 216.054117 
L 258.745251 215.225359 
L 260.723628 214.684461 
L 262.702005 214.570741 
L 264.680383 214.994436 
L 266.65876 216.006696 
L 268.637137 217.56059 
L 270.615515 219.461622 
" clip-path="url(#p91af862f80)" style="fill: none; stroke: #ff7f0e; stroke-width: 1.5; stroke-linecap: square"/>
   </g>
   <g id="line2d_13">
    <path d="M 74.756165 219.03112 
L 76.45955 198.368622 
L 78.162935 198.902079 
L 79.86632 210.063655 
L 81.569705 224.414709 
L 83.273089 237.012812 
L 84.976474 244.870904 
L 86.679859 246.498907 
L 88.383244 241.518818 
L 90.086629 230.344972 
L 91.790014 213.921834 
L 93.493399 193.512256 
L 95.196784 170.529743 
L 96.900169 146.408823 
L 98.603554 122.508124 
L 100.306939 100.041264 
L 102.010324 80.031143 
L 103.713709 63.283635 
L 105.417094 50.377122 
L 107.120479 41.664681 
L 108.823864 37.286116 
L 110.527249 37.187349 
L 112.230633 41.145022 
L 113.934018 48.794436 
L 115.637403 59.659236 
L 117.340788 73.181517 
L 119.044173 88.751214 
L 120.747558 105.733911 
L 122.450943 123.496341 
L 124.154328 141.429055 
L 125.857713 158.965887 
L 127.561098 175.599984 
L 129.264483 190.896285 
L 130.967868 204.500455 
L 132.671253 216.144358 
L 134.374638 225.648254 
L 136.078023 232.91995 
L 137.781408 237.951201 
L 139.484792 240.811695 
L 141.188177 241.641 
L 142.891562 240.638842 
L 144.594947 238.05413 
L 146.298332 234.173125 
L 148.001717 229.307145 
L 149.705102 223.780186 
L 151.408487 217.916837 
L 153.111872 212.030803 
L 154.815257 206.414358 
L 156.518642 201.328983 
L 158.222027 216.980815 
L 159.925412 216.981147 
L 161.628797 191.870886 
L 163.332182 190.208843 
L 165.035567 189.686125 
L 166.738952 190.294503 
L 168.442336 191.97673 
L 170.145721 194.630118 
L 171.849106 198.11165 
L 173.552491 202.244468 
L 175.255876 206.825542 
L 176.959261 211.634286 
L 178.662646 216.441855 
L 180.366031 221.020832 
L 182.069416 225.155004 
L 183.772801 228.648879 
L 185.476186 231.336634 
L 187.179571 233.090135 
L 188.882956 233.825706 
L 190.586341 233.50934 
L 192.289726 232.160039 
L 193.993111 229.851042 
L 195.696495 226.708713 
L 197.39988 222.908934 
L 199.103265 218.670909 
L 200.80665 214.248359 
L 202.510035 209.918191 
L 204.21342 205.966808 
L 205.916805 202.674388 
L 207.62019 200.297535 
L 209.323575 199.050913 
L 211.02696 199.088604 
L 212.730345 200.486125 
L 214.43373 203.224244 
L 216.137115 207.175944 
L 217.8405 212.098132 
L 219.543885 217.629937 
L 221.24727 223.299728 
L 222.950655 228.543264 
L 224.654039 232.735734 
L 226.357424 235.240755 
L 228.060809 235.479784 
L 229.764194 233.025775 
L 231.467579 227.725318 
L 233.170964 219.853954 
L 234.874349 210.30979 
L 236.577734 200.851053 
L 238.281119 194.383713 
L 239.984504 195.305862 
L 241.687889 209.916088 
L 243.391274 246.893695 
" clip-path="url(#p91af862f80)" style="fill: none; stroke: #2ca02c; stroke-width: 1.5; stroke-linecap: square"/>
   </g>
   <g id="line2d_14">
    <path d="M 74.756165 230.133093 
L 76.612929 202.208736 
L 78.469694 197.688109 
L 80.326458 205.825708 
L 82.183222 218.930062 
L 84.039987 231.761501 
L 85.896751 241.016033 
L 87.753516 244.886394 
L 89.61028 242.691989 
L 91.467044 234.570059 
L 93.323809 221.220993 
L 95.180573 203.701273 
L 97.037338 183.258049 
L 98.894102 161.19988 
L 100.750866 138.798629 
L 102.607631 117.21795 
L 104.464395 97.464265 
L 106.32116 80.3565 
L 108.177924 66.511232 
L 110.034689 56.340292 
L 111.891453 50.058148 
L 113.748217 47.696751 
L 115.604982 49.125797 
L 117.461746 54.076637 
L 119.318511 62.168311 
L 121.175275 72.934422 
L 123.032039 85.84978 
L 124.888804 100.355939 
L 126.745568 115.884922 
L 128.602333 131.880609 
L 130.459097 147.817397 
L 132.315861 163.215865 
L 134.172626 177.655315 
L 136.02939 190.783142 
L 137.886155 202.321087 
L 139.742919 212.068491 
L 141.599683 219.902755 
L 143.456448 225.77723 
L 145.313212 229.716841 
L 147.169977 231.811745 
L 149.026741 232.209372 
L 150.883506 231.105198 
L 152.74027 228.732601 
L 154.597034 225.352173 
L 156.453799 221.240806 
L 158.310563 216.680903 
L 160.167328 211.950019 
L 162.024092 207.311197 
L 163.880856 203.004277 
L 165.737621 216.978779 
L 167.594385 216.97943 
L 169.45115 194.057611 
L 171.307914 192.362746 
L 173.164678 191.645526 
L 175.021443 191.918296 
L 176.878207 193.148682 
L 178.734972 195.26222 
L 180.591736 198.146433 
L 182.4485 201.656214 
L 184.305265 205.620359 
L 186.162029 209.849035 
L 188.018794 214.14196 
L 189.875558 218.297035 
L 191.732322 222.119145 
L 193.589087 225.428838 
L 195.445851 228.070577 
L 197.302616 229.920254 
L 199.15938 230.891657 
L 201.016145 230.941608 
L 202.872909 230.073481 
L 204.729673 228.338863 
L 206.586438 225.837152 
L 208.443202 222.712911 
L 210.299967 219.15091 
L 212.156731 215.368778 
L 214.013495 211.607357 
L 215.87026 208.118868 
L 217.727024 205.153156 
L 219.583789 202.94238 
L 221.440553 201.684646 
L 223.297317 201.527257 
L 225.154082 202.550381 
L 227.010846 204.75215 
L 228.867611 208.036395 
L 230.724375 212.204425 
L 232.581139 216.952505 
L 234.437904 221.876941 
L 236.294668 226.48893 
L 238.151433 230.241668 
L 240.008197 232.572455 
L 241.864962 232.962945 
L 243.721726 231.020972 
L 245.57849 226.587807 
L 247.435255 219.87508 
L 249.292019 211.636024 
L 251.148784 203.376146 
L 253.005548 197.608899 
L 254.862312 198.162434 
L 256.719077 210.544015 
L 258.575841 242.369238 
" clip-path="url(#p91af862f80)" style="fill: none; stroke: #d62728; stroke-width: 1.5; stroke-linecap: square"/>
   </g>
   <g id="line2d_15">
    <path d="M 74.756165 220.624452 
L 76.458531 209.002231 
L 78.160897 205.830719 
L 79.863263 207.487341 
L 81.565629 211.410547 
L 83.267995 215.875867 
L 84.970361 219.806381 
L 86.672727 222.613802 
L 88.375093 224.066664 
L 90.077459 224.182368 
L 91.779825 223.140107 
L 93.482191 221.211956 
L 95.184558 218.709624 
L 96.886924 215.944615 
L 98.58929 213.199729 
L 100.291656 210.710068 
L 101.994022 208.651871 
L 103.696388 207.137691 
L 105.398754 206.216599 
L 107.10112 205.878244 
L 108.803486 206.05975 
L 110.505852 206.654567 
L 112.208218 207.522505 
L 113.910584 208.500328 
L 115.61295 209.412345 
L 117.315316 210.080571 
L 119.017682 210.334117 
L 120.720048 210.017513 
L 122.422415 208.997795 
L 124.124781 207.170207 
L 125.827147 204.462457 
L 127.529513 200.837495 
L 129.231879 196.294853 
L 130.934245 190.870588 
L 132.636611 184.635948 
L 134.338977 177.694857 
L 136.041343 170.180384 
L 137.743709 162.250342 
L 139.446075 154.082187 
L 141.148441 145.867413 
L 142.850807 137.80559 
L 144.553173 130.098266 
L 146.255539 122.94287 
L 147.957905 116.52681 
L 149.660272 111.021913 
L 151.362638 106.579346 
L 153.065004 103.325157 
L 154.76737 101.356542 
L 156.469736 100.738925 
L 158.172102 216.966605 
L 159.874468 216.966639 
L 161.576834 106.768655 
L 163.2792 111.300777 
L 164.981566 117.021953 
L 166.683932 123.806392 
L 168.386298 131.500983 
L 170.088664 139.92935 
L 171.79103 148.896619 
L 173.493396 158.194788 
L 175.195762 167.608566 
L 176.898129 176.921544 
L 178.600495 185.922525 
L 180.302861 194.411858 
L 182.005227 202.207584 
L 183.707593 209.151221 
L 185.409959 215.112999 
L 187.112325 219.996369 
L 188.814691 223.741596 
L 190.517057 226.328289 
L 192.219423 227.776716 
L 193.921789 228.147759 
L 195.624155 227.541435 
L 197.326521 226.093891 
L 199.028887 223.972847 
L 200.731253 221.37151 
L 202.43362 218.501002 
L 204.135986 215.581437 
L 205.838352 212.831833 
L 207.540718 210.459098 
L 209.243084 208.64646 
L 210.94545 207.541731 
L 212.647816 207.245954 
L 214.350182 207.803055 
L 216.052548 209.191237 
L 217.754914 211.316996 
L 219.45728 214.012742 
L 221.159646 217.039198 
L 222.862012 220.093849 
L 224.564378 222.826928 
L 226.266744 224.866563 
L 227.96911 225.854934 
L 229.671477 225.497439 
L 231.373843 223.627141 
L 233.076209 220.286926 
L 234.778575 215.832091 
L 236.480941 211.056296 
L 238.183307 207.344089 
L 239.885673 206.853493 
L 241.588039 212.732412 
L 243.290405 229.372942 
" clip-path="url(#p91af862f80)" style="fill: none; stroke: #9467bd; stroke-width: 1.5; stroke-linecap: square"/>
   </g>
   <g id="line2d_16">
    <path d="M 74.756165 212.590046 
L 76.374155 200.498849 
L 77.992146 205.342423 
L 79.610136 217.779794 
L 81.228127 231.356206 
L 82.846117 241.905375 
L 84.464108 247.040088 
L 86.082099 245.721758 
L 87.700089 237.900245 
L 89.31808 224.215906 
L 90.93607 205.756463 
L 92.554061 183.861885 
L 94.172051 159.971039 
L 95.790042 135.504413 
L 97.408032 111.777713 
L 99.026023 89.941625 
L 100.644013 70.943496 
L 102.262004 55.507097 
L 103.879994 44.127057 
L 105.497985 37.074919 
L 107.115975 34.414125 
L 108.733966 36.02159 
L 110.351957 41.613784 
L 111.969947 50.775591 
L 113.587938 62.990411 
L 115.205928 77.670282 
L 116.823919 94.184955 
L 118.441909 111.889115 
L 120.0599 130.147103 
L 121.67789 148.354645 
L 123.295881 165.957286 
L 124.913871 182.465325 
L 126.531862 197.465173 
L 128.149852 210.62718 
L 129.767843 221.710043 
L 131.385833 230.561982 
L 133.003824 237.118954 
L 134.621815 241.400211 
L 136.239805 243.501536 
L 137.857796 243.586556 
L 139.475786 241.87649 
L 141.093777 238.638775 
L 142.711767 234.174927 
L 144.329758 228.80807 
L 145.947748 222.870482 
L 147.565739 216.691526 
L 149.183729 210.58629 
L 150.80172 204.845242 
L 152.41971 199.725135 
L 154.037701 216.981333 
L 155.655692 216.981381 
L 157.273682 191.123208 
L 158.891673 189.716049 
L 160.509663 189.457372 
L 162.127654 190.325589 
L 163.745644 192.251367 
L 165.363635 195.121573 
L 166.981625 198.784666 
L 168.599616 203.057399 
L 170.217606 207.732612 
L 171.835597 212.587886 
L 173.453587 217.394798 
L 175.071578 221.928488 
L 176.689568 225.977229 
L 178.307559 229.351691 
L 179.92555 231.893559 
L 181.54354 233.483188 
L 183.161531 234.045974 
L 184.779521 233.557138 
L 186.397512 232.044639 
L 188.015502 229.589991 
L 189.633493 226.326753 
L 191.251483 222.436579 
L 192.869474 218.142726 
L 194.487464 213.701027 
L 196.105455 209.388422 
L 197.723445 205.489229 
L 199.341436 202.279478 
L 200.959426 200.009732 
L 202.577417 198.887004 
L 204.195408 199.056502 
L 205.813398 200.584135 
L 207.431389 203.440905 
L 209.049379 207.490525 
L 210.66737 212.481813 
L 212.28536 218.047689 
L 213.903351 223.712859 
L 215.521341 228.91254 
L 217.139332 233.024931 
L 218.757322 235.420405 
L 220.375313 235.530818 
L 221.993303 232.942633 
L 223.611294 227.518014 
L 225.229284 219.548427 
L 226.847275 209.945735 
L 228.465266 200.476265 
L 230.083256 194.043786 
L 231.701247 195.02788 
L 233.319237 209.684731 
L 234.937228 246.617919 
" clip-path="url(#p91af862f80)" style="fill: none; stroke: #8c564b; stroke-width: 1.5; stroke-linecap: square"/>
   </g>
   <g id="patch_3">
    <path d="M 58.523438 288.430125 
L 58.523438 22.318125 
" style="fill: none; stroke: #000000; stroke-width: 0.8; stroke-linejoin: miter; stroke-linecap: square"/>
   </g>
   <g id="patch_4">
    <path d="M 415.643438 288.430125 
L 415.643438 22.318125 
" style="fill: none; stroke: #000000; stroke-width: 0.8; stroke-linejoin: miter; stroke-linecap: square"/>
   </g>
   <g id="patch_5">
    <path d="M 58.523438 288.430125 
L 415.643438 288.430125 
" style="fill: none; stroke: #000000; stroke-width: 0.8; stroke-linejoin: miter; stroke-linecap: square"/>
   </g>
   <g id="patch_6">
    <path d="M 58.523438 22.318125 
L 415.643438 22.318125 
" style="fill: none; stroke: #000000; stroke-width: 0.8; stroke-linejoin: miter; stroke-linecap: square"/>
   </g>
   <g id="text_13">
    <!-- MD - xtract_prob_Superior_Longitudinal_Fasciculus_3_R -->
    <g transform="translate(71.285625 16.318125) scale(0.12 -0.12)">
     <defs>
      <path id="DejaVuSans-4d" d="M 628 4666 
L 1569 4666 
L 2759 1491 
L 3956 4666 
L 4897 4666 
L 4897 0 
L 4281 0 
L 4281 4097 
L 3078 897 
L 2444 897 
L 1241 4097 
L 1241 0 
L 628 0 
L 628 4666 
z
" transform="scale(0.015625)"/>
      <path id="DejaVuSans-44" d="M 1259 4147 
L 1259 519 
L 2022 519 
Q 2988 519 3436 956 
Q 3884 1394 3884 2338 
Q 3884 3275 3436 3711 
Q 2988 4147 2022 4147 
L 1259 4147 
z
M 628 4666 
L 1925 4666 
Q 3281 4666 3915 4102 
Q 4550 3538 4550 2338 
Q 4550 1131 3912 565 
Q 3275 0 1925 0 
L 628 0 
L 628 4666 
z
" transform="scale(0.015625)"/>
      <path id="DejaVuSans-2d" d="M 313 2009 
L 1997 2009 
L 1997 1497 
L 313 1497 
L 313 2009 
z
" transform="scale(0.015625)"/>
      <path id="DejaVuSans-74" d="M 1172 4494 
L 1172 3500 
L 2356 3500 
L 2356 3053 
L 1172 3053 
L 1172 1153 
Q 1172 725 1289 603 
Q 1406 481 1766 481 
L 2356 481 
L 2356 0 
L 1766 0 
Q 1100 0 847 248 
Q 594 497 594 1153 
L 594 3053 
L 172 3053 
L 172 3500 
L 594 3500 
L 594 4494 
L 1172 4494 
z
" transform="scale(0.015625)"/>
      <path id="DejaVuSans-5f" d="M 3263 -1063 
L 3263 -1509 
L -63 -1509 
L -63 -1063 
L 3263 -1063 
z
" transform="scale(0.015625)"/>
      <path id="DejaVuSans-70" d="M 1159 525 
L 1159 -1331 
L 581 -1331 
L 581 3500 
L 1159 3500 
L 1159 2969 
Q 1341 3281 1617 3432 
Q 1894 3584 2278 3584 
Q 2916 3584 3314 3078 
Q 3713 2572 3713 1747 
Q 3713 922 3314 415 
Q 2916 -91 2278 -91 
Q 1894 -91 1617 61 
Q 1341 213 1159 525 
z
M 3116 1747 
Q 3116 2381 2855 2742 
Q 2594 3103 2138 3103 
Q 1681 3103 1420 2742 
Q 1159 2381 1159 1747 
Q 1159 1113 1420 752 
Q 1681 391 2138 391 
Q 2594 391 2855 752 
Q 3116 1113 3116 1747 
z
" transform="scale(0.015625)"/>
      <path id="DejaVuSans-6f" d="M 1959 3097 
Q 1497 3097 1228 2736 
Q 959 2375 959 1747 
Q 959 1119 1226 758 
Q 1494 397 1959 397 
Q 2419 397 2687 759 
Q 2956 1122 2956 1747 
Q 2956 2369 2687 2733 
Q 2419 3097 1959 3097 
z
M 1959 3584 
Q 2709 3584 3137 3096 
Q 3566 2609 3566 1747 
Q 3566 888 3137 398 
Q 2709 -91 1959 -91 
Q 1206 -91 779 398 
Q 353 888 353 1747 
Q 353 2609 779 3096 
Q 1206 3584 1959 3584 
z
" transform="scale(0.015625)"/>
      <path id="DejaVuSans-62" d="M 3116 1747 
Q 3116 2381 2855 2742 
Q 2594 3103 2138 3103 
Q 1681 3103 1420 2742 
Q 1159 2381 1159 1747 
Q 1159 1113 1420 752 
Q 1681 391 2138 391 
Q 2594 391 2855 752 
Q 3116 1113 3116 1747 
z
M 1159 2969 
Q 1341 3281 1617 3432 
Q 1894 3584 2278 3584 
Q 2916 3584 3314 3078 
Q 3713 2572 3713 1747 
Q 3713 922 3314 415 
Q 2916 -91 2278 -91 
Q 1894 -91 1617 61 
Q 1341 213 1159 525 
L 1159 0 
L 581 0 
L 581 4863 
L 1159 4863 
L 1159 2969 
z
" transform="scale(0.015625)"/>
      <path id="DejaVuSans-53" d="M 3425 4513 
L 3425 3897 
Q 3066 4069 2747 4153 
Q 2428 4238 2131 4238 
Q 1616 4238 1336 4038 
Q 1056 3838 1056 3469 
Q 1056 3159 1242 3001 
Q 1428 2844 1947 2747 
L 2328 2669 
Q 3034 2534 3370 2195 
Q 3706 1856 3706 1288 
Q 3706 609 3251 259 
Q 2797 -91 1919 -91 
Q 1588 -91 1214 -16 
Q 841 59 441 206 
L 441 856 
Q 825 641 1194 531 
Q 1563 422 1919 422 
Q 2459 422 2753 634 
Q 3047 847 3047 1241 
Q 3047 1584 2836 1778 
Q 2625 1972 2144 2069 
L 1759 2144 
Q 1053 2284 737 2584 
Q 422 2884 422 3419 
Q 422 4038 858 4394 
Q 1294 4750 2059 4750 
Q 2388 4750 2728 4690 
Q 3069 4631 3425 4513 
z
" transform="scale(0.015625)"/>
      <path id="DejaVuSans-4c" d="M 628 4666 
L 1259 4666 
L 1259 531 
L 3531 531 
L 3531 0 
L 628 0 
L 628 4666 
z
" transform="scale(0.015625)"/>
      <path id="DejaVuSans-67" d="M 2906 1791 
Q 2906 2416 2648 2759 
Q 2391 3103 1925 3103 
Q 1463 3103 1205 2759 
Q 947 2416 947 1791 
Q 947 1169 1205 825 
Q 1463 481 1925 481 
Q 2391 481 2648 825 
Q 2906 1169 2906 1791 
z
M 3481 434 
Q 3481 -459 3084 -895 
Q 2688 -1331 1869 -1331 
Q 1566 -1331 1297 -1286 
Q 1028 -1241 775 -1147 
L 775 -588 
Q 1028 -725 1275 -790 
Q 1522 -856 1778 -856 
Q 2344 -856 2625 -561 
Q 2906 -266 2906 331 
L 2906 616 
Q 2728 306 2450 153 
Q 2172 0 1784 0 
Q 1141 0 747 490 
Q 353 981 353 1791 
Q 353 2603 747 3093 
Q 1141 3584 1784 3584 
Q 2172 3584 2450 3431 
Q 2728 3278 2906 2969 
L 2906 3500 
L 3481 3500 
L 3481 434 
z
" transform="scale(0.015625)"/>
      <path id="DejaVuSans-64" d="M 2906 2969 
L 2906 4863 
L 3481 4863 
L 3481 0 
L 2906 0 
L 2906 525 
Q 2725 213 2448 61 
Q 2172 -91 1784 -91 
Q 1150 -91 751 415 
Q 353 922 353 1747 
Q 353 2572 751 3078 
Q 1150 3584 1784 3584 
Q 2172 3584 2448 3432 
Q 2725 3281 2906 2969 
z
M 947 1747 
Q 947 1113 1208 752 
Q 1469 391 1925 391 
Q 2381 391 2643 752 
Q 2906 1113 2906 1747 
Q 2906 2381 2643 2742 
Q 2381 3103 1925 3103 
Q 1469 3103 1208 2742 
Q 947 2381 947 1747 
z
" transform="scale(0.015625)"/>
      <path id="DejaVuSans-52" d="M 2841 2188 
Q 3044 2119 3236 1894 
Q 3428 1669 3622 1275 
L 4263 0 
L 3584 0 
L 2988 1197 
Q 2756 1666 2539 1819 
Q 2322 1972 1947 1972 
L 1259 1972 
L 1259 0 
L 628 0 
L 628 4666 
L 2053 4666 
Q 2853 4666 3247 4331 
Q 3641 3997 3641 3322 
Q 3641 2881 3436 2590 
Q 3231 2300 2841 2188 
z
M 1259 4147 
L 1259 2491 
L 2053 2491 
Q 2509 2491 2742 2702 
Q 2975 2913 2975 3322 
Q 2975 3731 2742 3939 
Q 2509 4147 2053 4147 
L 1259 4147 
z
" transform="scale(0.015625)"/>
     </defs>
     <use xlink:href="#DejaVuSans-4d"/>
     <use xlink:href="#DejaVuSans-44" x="86.279297"/>
     <use xlink:href="#DejaVuSans-20" x="163.28125"/>
     <use xlink:href="#DejaVuSans-2d" x="195.068359"/>
     <use xlink:href="#DejaVuSans-20" x="231.152344"/>
     <use xlink:href="#DejaVuSans-78" x="262.939453"/>
     <use xlink:href="#DejaVuSans-74" x="322.119141"/>
     <use xlink:href="#DejaVuSans-72" x="361.328125"/>
     <use xlink:href="#DejaVuSans-61" x="402.441406"/>
     <use xlink:href="#DejaVuSans-63" x="463.720703"/>
     <use xlink:href="#DejaVuSans-74" x="518.701172"/>
     <use xlink:href="#DejaVuSans-5f" x="557.910156"/>
     <use xlink:href="#DejaVuSans-70" x="607.910156"/>
     <use xlink:href="#DejaVuSans-72" x="671.386719"/>
     <use xlink:href="#DejaVuSans-6f" x="710.25"/>
     <use xlink:href="#DejaVuSans-62" x="771.431641"/>
     <use xlink:href="#DejaVuSans-5f" x="834.908203"/>
     <use xlink:href="#DejaVuSans-53" x="884.908203"/>
     <use xlink:href="#DejaVuSans-75" x="948.384766"/>
     <use xlink:href="#DejaVuSans-70" x="1011.763672"/>
     <use xlink:href="#DejaVuSans-65" x="1075.240234"/>
     <use xlink:href="#DejaVuSans-72" x="1136.763672"/>
     <use xlink:href="#DejaVuSans-69" x="1177.876953"/>
     <use xlink:href="#DejaVuSans-6f" x="1205.660156"/>
     <use xlink:href="#DejaVuSans-72" x="1266.841797"/>
     <use xlink:href="#DejaVuSans-5f" x="1307.955078"/>
     <use xlink:href="#DejaVuSans-4c" x="1357.955078"/>
     <use xlink:href="#DejaVuSans-6f" x="1411.917969"/>
     <use xlink:href="#DejaVuSans-6e" x="1473.099609"/>
     <use xlink:href="#DejaVuSans-67" x="1536.478516"/>
     <use xlink:href="#DejaVuSans-69" x="1599.955078"/>
     <use xlink:href="#DejaVuSans-74" x="1627.738281"/>
     <use xlink:href="#DejaVuSans-75" x="1666.947266"/>
     <use xlink:href="#DejaVuSans-64" x="1730.326172"/>
     <use xlink:href="#DejaVuSans-69" x="1793.802734"/>
     <use xlink:href="#DejaVuSans-6e" x="1821.585938"/>
     <use xlink:href="#DejaVuSans-61" x="1884.964844"/>
     <use xlink:href="#DejaVuSans-6c" x="1946.244141"/>
     <use xlink:href="#DejaVuSans-5f" x="1974.027344"/>
     <use xlink:href="#DejaVuSans-46" x="2024.027344"/>
     <use xlink:href="#DejaVuSans-61" x="2072.421875"/>
     <use xlink:href="#DejaVuSans-73" x="2133.701172"/>
     <use xlink:href="#DejaVuSans-63" x="2185.800781"/>
     <use xlink:href="#DejaVuSans-69" x="2240.78125"/>
     <use xlink:href="#DejaVuSans-63" x="2268.564453"/>
     <use xlink:href="#DejaVuSans-75" x="2323.544922"/>
     <use xlink:href="#DejaVuSans-6c" x="2386.923828"/>
     <use xlink:href="#DejaVuSans-75" x="2414.707031"/>
     <use xlink:href="#DejaVuSans-73" x="2478.085938"/>
     <use xlink:href="#DejaVuSans-5f" x="2530.185547"/>
     <use xlink:href="#DejaVuSans-33" x="2580.185547"/>
     <use xlink:href="#DejaVuSans-5f" x="2643.808594"/>
     <use xlink:href="#DejaVuSans-52" x="2693.808594"/>
    </g>
   </g>
   <g id="legend_1">
    <g id="patch_7">
     <path d="M 458.355438 146.666825 
L 556.211688 146.666825 
Q 558.211688 146.666825 558.211688 144.666825 
L 558.211688 55.929325 
Q 558.211688 53.929325 556.211688 53.929325 
L 458.355438 53.929325 
Q 456.355438 53.929325 456.355438 55.929325 
L 456.355438 144.666825 
Q 456.355438 146.666825 458.355438 146.666825 
z
" style="fill: #ffffff; opacity: 0.8; stroke: #cccccc; stroke-linejoin: miter"/>
    </g>
    <g id="line2d_17">
     <path d="M 460.355438 62.027762 
L 470.355438 62.027762 
L 480.355438 62.027762 
" style="fill: none; stroke: #1f77b4; stroke-width: 1.5; stroke-linecap: square"/>
    </g>
    <g id="text_14">
     <!-- 20_06_02_E3 -->
     <g transform="translate(488.355438 65.527762) scale(0.1 -0.1)">
      <defs>
       <path id="DejaVuSans-45" d="M 628 4666 
L 3578 4666 
L 3578 4134 
L 1259 4134 
L 1259 2753 
L 3481 2753 
L 3481 2222 
L 1259 2222 
L 1259 531 
L 3634 531 
L 3634 0 
L 628 0 
L 628 4666 
z
" transform="scale(0.015625)"/>
      </defs>
      <use xlink:href="#DejaVuSans-32"/>
      <use xlink:href="#DejaVuSans-30" x="63.623047"/>
      <use xlink:href="#DejaVuSans-5f" x="127.246094"/>
      <use xlink:href="#DejaVuSans-30" x="177.246094"/>
      <use xlink:href="#DejaVuSans-36" x="240.869141"/>
      <use xlink:href="#DejaVuSans-5f" x="304.492188"/>
      <use xlink:href="#DejaVuSans-30" x="354.492188"/>
      <use xlink:href="#DejaVuSans-32" x="418.115234"/>
      <use xlink:href="#DejaVuSans-5f" x="481.738281"/>
      <use xlink:href="#DejaVuSans-45" x="531.738281"/>
      <use xlink:href="#DejaVuSans-33" x="594.921875"/>
     </g>
    </g>
    <g id="line2d_18">
     <path d="M 460.355438 76.984013 
L 470.355438 76.984013 
L 480.355438 76.984013 
" style="fill: none; stroke: #ff7f0e; stroke-width: 1.5; stroke-linecap: square"/>
    </g>
    <g id="text_15">
     <!-- 20_05_01_E3 -->
     <g transform="translate(488.355438 80.484013) scale(0.1 -0.1)">
      <defs>
       <path id="DejaVuSans-35" d="M 691 4666 
L 3169 4666 
L 3169 4134 
L 1269 4134 
L 1269 2991 
Q 1406 3038 1543 3061 
Q 1681 3084 1819 3084 
Q 2600 3084 3056 2656 
Q 3513 2228 3513 1497 
Q 3513 744 3044 326 
Q 2575 -91 1722 -91 
Q 1428 -91 1123 -41 
Q 819 9 494 109 
L 494 744 
Q 775 591 1075 516 
Q 1375 441 1709 441 
Q 2250 441 2565 725 
Q 2881 1009 2881 1497 
Q 2881 1984 2565 2268 
Q 2250 2553 1709 2553 
Q 1456 2553 1204 2497 
Q 953 2441 691 2322 
L 691 4666 
z
" transform="scale(0.015625)"/>
      </defs>
      <use xlink:href="#DejaVuSans-32"/>
      <use xlink:href="#DejaVuSans-30" x="63.623047"/>
      <use xlink:href="#DejaVuSans-5f" x="127.246094"/>
      <use xlink:href="#DejaVuSans-30" x="177.246094"/>
      <use xlink:href="#DejaVuSans-35" x="240.869141"/>
      <use xlink:href="#DejaVuSans-5f" x="304.492188"/>
      <use xlink:href="#DejaVuSans-30" x="354.492188"/>
      <use xlink:href="#DejaVuSans-31" x="418.115234"/>
      <use xlink:href="#DejaVuSans-5f" x="481.738281"/>
      <use xlink:href="#DejaVuSans-45" x="531.738281"/>
      <use xlink:href="#DejaVuSans-33" x="594.921875"/>
     </g>
    </g>
    <g id="line2d_19">
     <path d="M 460.355438 91.940262 
L 470.355438 91.940262 
L 480.355438 91.940262 
" style="fill: none; stroke: #2ca02c; stroke-width: 1.5; stroke-linecap: square"/>
    </g>
    <g id="text_16">
     <!-- 20_02_02_E3 -->
     <g transform="translate(488.355438 95.440262) scale(0.1 -0.1)">
      <use xlink:href="#DejaVuSans-32"/>
      <use xlink:href="#DejaVuSans-30" x="63.623047"/>
      <use xlink:href="#DejaVuSans-5f" x="127.246094"/>
      <use xlink:href="#DejaVuSans-30" x="177.246094"/>
      <use xlink:href="#DejaVuSans-32" x="240.869141"/>
      <use xlink:href="#DejaVuSans-5f" x="304.492188"/>
      <use xlink:href="#DejaVuSans-30" x="354.492188"/>
      <use xlink:href="#DejaVuSans-32" x="418.115234"/>
      <use xlink:href="#DejaVuSans-5f" x="481.738281"/>
      <use xlink:href="#DejaVuSans-45" x="531.738281"/>
      <use xlink:href="#DejaVuSans-33" x="594.921875"/>
     </g>
    </g>
    <g id="line2d_20">
     <path d="M 460.355438 106.896513 
L 470.355438 106.896513 
L 480.355438 106.896513 
" style="fill: none; stroke: #d62728; stroke-width: 1.5; stroke-linecap: square"/>
    </g>
    <g id="text_17">
     <!-- 20_10_02_E3 -->
     <g transform="translate(488.355438 110.396513) scale(0.1 -0.1)">
      <use xlink:href="#DejaVuSans-32"/>
      <use xlink:href="#DejaVuSans-30" x="63.623047"/>
      <use xlink:href="#DejaVuSans-5f" x="127.246094"/>
      <use xlink:href="#DejaVuSans-31" x="177.246094"/>
      <use xlink:href="#DejaVuSans-30" x="240.869141"/>
      <use xlink:href="#DejaVuSans-5f" x="304.492188"/>
      <use xlink:href="#DejaVuSans-30" x="354.492188"/>
      <use xlink:href="#DejaVuSans-32" x="418.115234"/>
      <use xlink:href="#DejaVuSans-5f" x="481.738281"/>
      <use xlink:href="#DejaVuSans-45" x="531.738281"/>
      <use xlink:href="#DejaVuSans-33" x="594.921875"/>
     </g>
    </g>
    <g id="line2d_21">
     <path d="M 460.355438 121.852762 
L 470.355438 121.852762 
L 480.355438 121.852762 
" style="fill: none; stroke: #9467bd; stroke-width: 1.5; stroke-linecap: square"/>
    </g>
    <g id="text_18">
     <!-- 20_08_02_E3 -->
     <g transform="translate(488.355438 125.352762) scale(0.1 -0.1)">
      <defs>
       <path id="DejaVuSans-38" d="M 2034 2216 
Q 1584 2216 1326 1975 
Q 1069 1734 1069 1313 
Q 1069 891 1326 650 
Q 1584 409 2034 409 
Q 2484 409 2743 651 
Q 3003 894 3003 1313 
Q 3003 1734 2745 1975 
Q 2488 2216 2034 2216 
z
M 1403 2484 
Q 997 2584 770 2862 
Q 544 3141 544 3541 
Q 544 4100 942 4425 
Q 1341 4750 2034 4750 
Q 2731 4750 3128 4425 
Q 3525 4100 3525 3541 
Q 3525 3141 3298 2862 
Q 3072 2584 2669 2484 
Q 3125 2378 3379 2068 
Q 3634 1759 3634 1313 
Q 3634 634 3220 271 
Q 2806 -91 2034 -91 
Q 1263 -91 848 271 
Q 434 634 434 1313 
Q 434 1759 690 2068 
Q 947 2378 1403 2484 
z
M 1172 3481 
Q 1172 3119 1398 2916 
Q 1625 2713 2034 2713 
Q 2441 2713 2670 2916 
Q 2900 3119 2900 3481 
Q 2900 3844 2670 4047 
Q 2441 4250 2034 4250 
Q 1625 4250 1398 4047 
Q 1172 3844 1172 3481 
z
" transform="scale(0.015625)"/>
      </defs>
      <use xlink:href="#DejaVuSans-32"/>
      <use xlink:href="#DejaVuSans-30" x="63.623047"/>
      <use xlink:href="#DejaVuSans-5f" x="127.246094"/>
      <use xlink:href="#DejaVuSans-30" x="177.246094"/>
      <use xlink:href="#DejaVuSans-38" x="240.869141"/>
      <use xlink:href="#DejaVuSans-5f" x="304.492188"/>
      <use xlink:href="#DejaVuSans-30" x="354.492188"/>
      <use xlink:href="#DejaVuSans-32" x="418.115234"/>
      <use xlink:href="#DejaVuSans-5f" x="481.738281"/>
      <use xlink:href="#DejaVuSans-45" x="531.738281"/>
      <use xlink:href="#DejaVuSans-33" x="594.921875"/>
     </g>
    </g>
    <g id="line2d_22">
     <path d="M 460.355438 136.809012 
L 470.355438 136.809012 
L 480.355438 136.809012 
" style="fill: none; stroke: #8c564b; stroke-width: 1.5; stroke-linecap: square"/>
    </g>
    <g id="text_19">
     <!-- 20_11_02_E3 -->
     <g transform="translate(488.355438 140.309012) scale(0.1 -0.1)">
      <use xlink:href="#DejaVuSans-32"/>
      <use xlink:href="#DejaVuSans-30" x="63.623047"/>
      <use xlink:href="#DejaVuSans-5f" x="127.246094"/>
      <use xlink:href="#DejaVuSans-31" x="177.246094"/>
      <use xlink:href="#DejaVuSans-31" x="240.869141"/>
      <use xlink:href="#DejaVuSans-5f" x="304.492188"/>
      <use xlink:href="#DejaVuSans-30" x="354.492188"/>
      <use xlink:href="#DejaVuSans-32" x="418.115234"/>
      <use xlink:href="#DejaVuSans-5f" x="481.738281"/>
      <use xlink:href="#DejaVuSans-45" x="531.738281"/>
      <use xlink:href="#DejaVuSans-33" x="594.921875"/>
     </g>
    </g>
   </g>
  </g>
 </g>
 <defs>
  <clipPath id="p91af862f80">
   <rect x="58.523438" y="22.318125" width="357.12" height="266.112"/>
  </clipPath>
 </defs>
</svg>
