<?xml version="1.0" encoding="utf-8" standalone="no"?>
<!DOCTYPE svg PUBLIC "-//W3C//DTD SVG 1.1//EN"
  "http://www.w3.org/Graphics/SVG/1.1/DTD/svg11.dtd">
<svg xmlns:xlink="http://www.w3.org/1999/xlink" width="565.411687pt" height="325.986375pt" viewBox="0 0 565.411687 325.986375" xmlns="http://www.w3.org/2000/svg" version="1.1">
 <metadata>
  <rdf:RDF xmlns:dc="http://purl.org/dc/elements/1.1/" xmlns:cc="http://creativecommons.org/ns#" xmlns:rdf="http://www.w3.org/1999/02/22-rdf-syntax-ns#">
   <cc:Work>
    <dc:type rdf:resource="http://purl.org/dc/dcmitype/StillImage"/>
    <dc:date>2023-02-07T23:00:10.216532</dc:date>
    <dc:format>image/svg+xml</dc:format>
    <dc:creator>
     <cc:Agent>
      <dc:title>Matplotlib v3.6.2, https://matplotlib.org/</dc:title>
     </cc:Agent>
    </dc:creator>
   </cc:Work>
  </rdf:RDF>
 </metadata>
 <defs>
  <style type="text/css">*{stroke-linejoin: round; stroke-linecap: butt}</style>
 </defs>
 <g id="figure_1">
  <g id="patch_1">
   <path d="M 0 325.986375 
L 565.411687 325.986375 
L 565.411687 0 
L 0 0 
z
" style="fill: #ffffff"/>
  </g>
  <g id="axes_1">
   <g id="patch_2">
    <path d="M 58.523438 288.430125 
L 415.643438 288.430125 
L 415.643438 22.318125 
L 58.523438 22.318125 
z
" style="fill: #ffffff"/>
   </g>
   <g id="PolyCollection_1">
    <path d="M 74.756165 214.887986 
L 74.756165 225.394552 
L 77.683501 225.394552 
L 80.610838 225.394552 
L 83.538174 225.394552 
L 86.465511 225.394552 
L 89.392848 225.394552 
L 92.320184 225.394552 
L 95.247521 225.394552 
L 98.174857 225.394552 
L 101.102194 225.394552 
L 104.02953 225.394552 
L 106.956867 225.394552 
L 109.884204 225.394552 
L 112.81154 225.394552 
L 115.738877 225.394552 
L 118.666213 225.394552 
L 121.59355 225.394552 
L 124.520886 225.394552 
L 127.448223 225.394552 
L 130.375559 225.394552 
L 133.302896 225.394552 
L 136.230233 225.394552 
L 139.157569 225.394552 
L 142.084906 225.394552 
L 145.012242 225.394552 
L 147.939579 225.394552 
L 150.866915 225.394552 
L 153.794252 225.394552 
L 156.721589 225.394552 
L 159.648925 225.394552 
L 162.576262 225.394552 
L 165.503598 225.394552 
L 168.430935 225.394552 
L 171.358271 225.394552 
L 174.285608 225.394552 
L 177.212945 225.394552 
L 180.140281 225.394552 
L 183.067618 225.394552 
L 185.994954 225.394552 
L 188.922291 225.394552 
L 191.849627 225.394552 
L 194.776964 225.394552 
L 197.7043 225.394552 
L 200.631637 225.394552 
L 203.558974 225.394552 
L 206.48631 225.394552 
L 209.413647 225.394552 
L 212.340983 225.394552 
L 215.26832 225.394552 
L 218.195656 225.394552 
L 221.122993 225.394552 
L 224.05033 225.394552 
L 226.977666 225.394552 
L 229.905003 225.394552 
L 232.832339 225.394552 
L 235.759676 225.394552 
L 238.687012 225.394552 
L 241.614349 225.394552 
L 244.541685 225.394552 
L 247.469022 225.394552 
L 250.396359 225.394552 
L 253.323695 225.394552 
L 256.251032 225.394552 
L 259.178368 225.394552 
L 262.105705 225.394552 
L 265.033041 225.394552 
L 267.960378 225.394552 
L 270.887715 225.394552 
L 273.815051 225.394552 
L 276.742388 225.394552 
L 279.669724 225.394552 
L 282.597061 225.394552 
L 285.524397 225.394552 
L 288.451734 225.394552 
L 291.37907 225.394552 
L 294.306407 225.394552 
L 297.233744 225.394552 
L 300.16108 225.394552 
L 303.088417 225.394552 
L 306.015753 225.394552 
L 308.94309 225.394552 
L 311.870426 225.394552 
L 314.797763 225.394552 
L 317.7251 225.394552 
L 320.652436 225.394552 
L 323.579773 225.394552 
L 326.507109 225.394552 
L 329.434446 225.394552 
L 332.361782 225.394552 
L 335.289119 225.394552 
L 338.216456 225.394552 
L 341.143792 225.394552 
L 344.071129 225.394552 
L 346.998465 225.394552 
L 349.925802 225.394552 
L 352.853138 225.394552 
L 355.780475 225.394552 
L 358.707811 225.394552 
L 361.635148 225.394552 
L 364.562485 225.394552 
L 364.562485 225.11519 
L 364.562485 225.11519 
L 361.635148 226.014995 
L 358.707811 225.895818 
L 355.780475 225.326279 
L 352.853138 224.682069 
L 349.925802 224.187506 
L 346.998465 223.95099 
L 344.071129 223.994974 
L 341.143792 224.281039 
L 338.216456 224.730606 
L 335.289119 225.241799 
L 332.361782 225.702901 
L 329.434446 226.002857 
L 326.507109 226.039186 
L 323.579773 225.723685 
L 320.652436 224.986237 
L 317.7251 223.777034 
L 314.797763 222.067467 
L 311.870426 219.849949 
L 308.94309 217.13687 
L 306.015753 213.95889 
L 303.088417 210.362738 
L 300.16108 206.408673 
L 297.233744 202.167731 
L 294.306407 197.718885 
L 291.37907 193.146205 
L 288.451734 188.536109 
L 285.524397 183.974754 
L 282.597061 179.545657 
L 279.669724 175.327544 
L 276.742388 171.392495 
L 273.815051 167.804383 
L 270.887715 164.617633 
L 267.960378 161.876294 
L 265.033041 159.61343 
L 262.105705 157.850815 
L 259.178368 156.598917 
L 256.251032 155.857156 
L 253.323695 155.614406 
L 250.396359 155.849723 
L 247.469022 156.533261 
L 244.541685 157.627352 
L 241.614349 159.087713 
L 238.687012 160.864754 
L 235.759676 162.90495 
L 232.832339 165.152241 
L 229.905003 167.549441 
L 226.977666 170.039615 
L 224.05033 172.567401 
L 221.122993 225.383663 
L 218.195656 225.383588 
L 215.26832 180.00211 
L 212.340983 182.14645 
L 209.413647 184.109344 
L 206.48631 185.86925 
L 203.558974 187.412243 
L 200.631637 188.732061 
L 197.7043 189.829962 
L 194.776964 190.714401 
L 191.849627 191.400521 
L 188.922291 191.909485 
L 185.994954 192.267671 
L 183.067618 192.505729 
L 180.140281 192.657546 
L 177.212945 192.759136 
L 174.285608 192.847481 
L 171.358271 192.959348 
L 168.430935 193.130131 
L 165.503598 193.39273 
L 162.576262 193.7765 
L 159.648925 194.306315 
L 156.721589 195.001758 
L 153.794252 195.876478 
L 150.866915 196.937719 
L 147.939579 198.186067 
L 145.012242 199.615399 
L 142.084906 201.213073 
L 139.157569 202.960333 
L 136.230233 204.832946 
L 133.302896 206.80204 
L 130.375559 208.835129 
L 127.448223 210.897283 
L 124.520886 212.952387 
L 121.59355 214.964447 
L 118.666213 216.898843 
L 115.738877 218.723439 
L 112.81154 220.409451 
L 109.884204 221.931918 
L 106.956867 223.269638 
L 104.02953 224.404391 
L 101.102194 225.319228 
L 98.174857 225.995634 
L 95.247521 226.409269 
L 92.320184 226.524036 
L 89.392848 226.28413 
L 86.465511 225.603741 
L 83.538174 224.354006 
L 80.610838 222.346803 
L 77.683501 219.314901 
L 74.756165 214.887986 
z
" clip-path="url(#pd1c5857393)" style="fill: #1f77b4; fill-opacity: 0.166667"/>
   </g>
   <g id="PolyCollection_2">
    <path d="M 74.756165 198.27256 
L 74.756165 225.394552 
L 78.035504 225.394552 
L 81.314842 225.394552 
L 84.594181 225.394552 
L 87.87352 225.394552 
L 91.152859 225.394552 
L 94.432198 225.394552 
L 97.711537 225.394552 
L 100.990876 225.394552 
L 104.270214 225.394552 
L 107.549553 225.394552 
L 110.828892 225.394552 
L 114.108231 225.394552 
L 117.38757 225.394552 
L 120.666909 225.394552 
L 123.946247 225.394552 
L 127.225586 225.394552 
L 130.504925 225.394552 
L 133.784264 225.394552 
L 137.063603 225.394552 
L 140.342942 225.394552 
L 143.62228 225.394552 
L 146.901619 225.394552 
L 150.180958 225.394552 
L 153.460297 225.394552 
L 156.739636 225.394552 
L 160.018975 225.394552 
L 163.298314 225.394552 
L 166.577652 225.394552 
L 169.856991 225.394552 
L 173.13633 225.394552 
L 176.415669 225.394552 
L 179.695008 225.394552 
L 182.974347 225.394552 
L 186.253685 225.394552 
L 189.533024 225.394552 
L 192.812363 225.394552 
L 196.091702 225.394552 
L 199.371041 225.394552 
L 202.65038 225.394552 
L 205.929718 225.394552 
L 209.209057 225.394552 
L 212.488396 225.394552 
L 215.767735 225.394552 
L 219.047074 225.394552 
L 222.326413 225.394552 
L 225.605752 225.394552 
L 228.88509 225.394552 
L 232.164429 225.394552 
L 235.443768 225.394552 
L 238.723107 225.394552 
L 242.002446 225.394552 
L 245.281785 225.394552 
L 248.561123 225.394552 
L 251.840462 225.394552 
L 255.119801 225.394552 
L 258.39914 225.394552 
L 261.678479 225.394552 
L 264.957818 225.394552 
L 268.237157 225.394552 
L 271.516495 225.394552 
L 274.795834 225.394552 
L 278.075173 225.394552 
L 281.354512 225.394552 
L 284.633851 225.394552 
L 287.91319 225.394552 
L 291.192528 225.394552 
L 294.471867 225.394552 
L 297.751206 225.394552 
L 301.030545 225.394552 
L 304.309884 225.394552 
L 307.589223 225.394552 
L 310.868561 225.394552 
L 314.1479 225.394552 
L 317.427239 225.394552 
L 320.706578 225.394552 
L 323.985917 225.394552 
L 327.265256 225.394552 
L 330.544595 225.394552 
L 333.823933 225.394552 
L 337.103272 225.394552 
L 340.382611 225.394552 
L 343.66195 225.394552 
L 346.941289 225.394552 
L 350.220628 225.394552 
L 353.499966 225.394552 
L 356.779305 225.394552 
L 360.058644 225.394552 
L 363.337983 225.394552 
L 366.617322 225.394552 
L 369.896661 225.394552 
L 373.175999 225.394552 
L 376.455338 225.394552 
L 379.734677 225.394552 
L 383.014016 225.394552 
L 386.293355 225.394552 
L 389.572694 225.394552 
L 392.852033 225.394552 
L 396.131371 225.394552 
L 399.41071 225.394552 
L 399.41071 205.962297 
L 399.41071 205.962297 
L 396.131371 229.958841 
L 392.852033 239.297922 
L 389.572694 239.74979 
L 386.293355 235.467426 
L 383.014016 229.321545 
L 379.734677 223.183935 
L 376.455338 218.164958 
L 373.175999 214.810588 
L 369.896661 213.263929 
L 366.617322 213.395731 
L 363.337983 214.908032 
L 360.058644 217.414694 
L 356.779305 220.502222 
L 353.499966 223.773955 
L 350.220628 226.880385 
L 346.941289 229.538076 
L 343.66195 231.539371 
L 340.382611 232.754841 
L 337.103272 233.130165 
L 333.823933 232.678919 
L 330.544595 231.472557 
L 327.265256 229.628655 
L 323.985917 227.298337 
L 320.706578 224.653625 
L 317.427239 221.875318 
L 314.1479 219.141873 
L 310.868561 216.619639 
L 307.589223 214.454695 
L 304.309884 212.766428 
L 301.030545 211.642952 
L 297.751206 211.138326 
L 294.471867 211.271543 
L 291.192528 212.027153 
L 287.91319 213.357373 
L 284.633851 215.185488 
L 281.354512 217.410338 
L 278.075173 219.911643 
L 274.795834 222.555939 
L 271.516495 225.202873 
L 268.237157 227.711609 
L 264.957818 229.947123 
L 261.678479 231.786149 
L 258.39914 233.122591 
L 255.119801 233.872206 
L 251.840462 233.976405 
L 248.561123 233.405046 
L 245.281785 232.158123 
L 242.002446 230.266282 
L 238.723107 225.389378 
L 235.443768 225.390162 
L 232.164429 221.760761 
L 228.88509 218.598058 
L 225.605752 215.310327 
L 222.326413 212.039327 
L 219.047074 208.931412 
L 215.767735 206.131048 
L 212.488396 203.773997 
L 209.209057 201.980387 
L 205.929718 200.847908 
L 202.65038 200.445384 
L 199.371041 200.806959 
L 196.091702 201.92718 
L 192.812363 203.757219 
L 189.533024 206.202483 
L 186.253685 209.121846 
L 182.974347 212.328713 
L 179.695008 215.594092 
L 176.415669 218.651809 
L 173.13633 221.20596 
L 169.856991 222.940635 
L 166.577652 223.531873 
L 163.298314 222.661734 
L 160.018975 220.0343 
L 156.739636 215.39328 
L 153.460297 208.54083 
L 150.180958 199.357023 
L 146.901619 187.819319 
L 143.62228 174.021176 
L 140.342942 158.188842 
L 137.063603 140.695121 
L 133.784264 122.068767 
L 130.504925 102.997921 
L 127.225586 84.325776 
L 123.946247 67.036431 
L 120.666909 52.228621 
L 117.38757 41.074725 
L 114.108231 34.762186 
L 110.828892 34.414125 
L 107.549553 40.985621 
L 104.270214 55.131773 
L 100.990876 77.043279 
L 97.711537 106.244866 
L 94.432198 141.35151 
L 91.152859 179.77693 
L 87.87352 217.388374 
L 84.594181 248.101254 
L 81.314842 263.406659 
L 78.035504 251.824262 
L 74.756165 198.27256 
z
" clip-path="url(#pd1c5857393)" style="fill: #ff7f0e; fill-opacity: 0.166667"/>
   </g>
   <g id="PolyCollection_3">
    <path d="M 74.756165 170.13914 
L 74.756165 225.394552 
L 77.787431 225.394552 
L 80.818697 225.394552 
L 83.849963 225.394552 
L 86.88123 225.394552 
L 89.912496 225.394552 
L 92.943762 225.394552 
L 95.975028 225.394552 
L 99.006295 225.394552 
L 102.037561 225.394552 
L 105.068827 225.394552 
L 108.100093 225.394552 
L 111.13136 225.394552 
L 114.162626 225.394552 
L 117.193892 225.394552 
L 120.225158 225.394552 
L 123.256425 225.394552 
L 126.287691 225.394552 
L 129.318957 225.394552 
L 132.350223 225.394552 
L 135.38149 225.394552 
L 138.412756 225.394552 
L 141.444022 225.394552 
L 144.475288 225.394552 
L 147.506555 225.394552 
L 150.537821 225.394552 
L 153.569087 225.394552 
L 156.600353 225.394552 
L 159.63162 225.394552 
L 162.662886 225.394552 
L 165.694152 225.394552 
L 168.725418 225.394552 
L 171.756685 225.394552 
L 174.787951 225.394552 
L 177.819217 225.394552 
L 180.850483 225.394552 
L 183.881749 225.394552 
L 186.913016 225.394552 
L 189.944282 225.394552 
L 192.975548 225.394552 
L 196.006814 225.394552 
L 199.038081 225.394552 
L 202.069347 225.394552 
L 205.100613 225.394552 
L 208.131879 225.394552 
L 211.163146 225.394552 
L 214.194412 225.394552 
L 217.225678 225.394552 
L 220.256944 225.394552 
L 223.288211 225.394552 
L 226.319477 225.394552 
L 229.350743 225.394552 
L 232.382009 225.394552 
L 235.413276 225.394552 
L 238.444542 225.394552 
L 241.475808 225.394552 
L 244.507074 225.394552 
L 247.538341 225.394552 
L 250.569607 225.394552 
L 253.600873 225.394552 
L 256.632139 225.394552 
L 259.663406 225.394552 
L 262.694672 225.394552 
L 265.725938 225.394552 
L 268.757204 225.394552 
L 271.78847 225.394552 
L 274.819737 225.394552 
L 277.851003 225.394552 
L 280.882269 225.394552 
L 283.913535 225.394552 
L 286.944802 225.394552 
L 289.976068 225.394552 
L 293.007334 225.394552 
L 296.0386 225.394552 
L 299.069867 225.394552 
L 302.101133 225.394552 
L 305.132399 225.394552 
L 308.163665 225.394552 
L 311.194932 225.394552 
L 314.226198 225.394552 
L 317.257464 225.394552 
L 320.28873 225.394552 
L 323.319997 225.394552 
L 326.351263 225.394552 
L 329.382529 225.394552 
L 332.413795 225.394552 
L 335.445062 225.394552 
L 338.476328 225.394552 
L 341.507594 225.394552 
L 344.53886 225.394552 
L 347.570127 225.394552 
L 350.601393 225.394552 
L 353.632659 225.394552 
L 356.663925 225.394552 
L 359.695192 225.394552 
L 362.726458 225.394552 
L 365.757724 225.394552 
L 368.78899 225.394552 
L 371.820256 225.394552 
L 374.851523 225.394552 
L 374.851523 222.4731 
L 374.851523 222.4731 
L 371.820256 226.762475 
L 368.78899 227.956743 
L 365.757724 227.47424 
L 362.726458 226.278882 
L 359.695192 224.98602 
L 356.663925 223.950174 
L 353.632659 223.336892 
L 350.601393 223.180778 
L 347.570127 223.431578 
L 344.53886 223.990016 
L 341.507594 224.734914 
L 338.476328 225.542992 
L 335.445062 226.302576 
L 332.413795 226.922332 
L 329.382529 227.335985 
L 326.351263 227.503911 
L 323.319997 227.412332 
L 320.28873 227.070771 
L 317.257464 226.508333 
L 314.226198 225.769261 
L 311.194932 224.90819 
L 308.163665 223.985379 
L 305.132399 223.062209 
L 302.101133 222.197126 
L 299.069867 221.442166 
L 296.0386 220.840169 
L 293.007334 220.422728 
L 289.976068 220.208887 
L 286.944802 220.204589 
L 283.913535 220.402807 
L 280.882269 220.784336 
L 277.851003 221.319123 
L 274.819737 221.968079 
L 271.78847 222.685258 
L 268.757204 223.42029 
L 265.725938 224.120974 
L 262.694672 224.735909 
L 259.663406 225.217064 
L 256.632139 225.522187 
L 253.600873 225.616962 
L 250.569607 225.476825 
L 247.538341 225.088381 
L 244.507074 224.450353 
L 241.475808 223.574033 
L 238.444542 222.483186 
L 235.413276 221.213426 
L 232.382009 219.811038 
L 229.350743 218.331287 
L 226.319477 225.393402 
L 223.288211 225.39473 
L 220.256944 212.609416 
L 217.225678 212.127509 
L 214.194412 211.944752 
L 211.163146 212.07891 
L 208.131879 212.533233 
L 205.100613 213.294616 
L 202.069347 214.332146 
L 199.038081 215.596098 
L 196.006814 217.017474 
L 192.975548 218.50815 
L 189.944282 219.961699 
L 186.913016 221.25494 
L 183.881749 222.250268 
L 180.850483 222.798782 
L 177.819217 222.744228 
L 174.787951 221.927758 
L 171.756685 220.193464 
L 168.725418 217.394642 
L 165.694152 213.400699 
L 162.662886 208.104593 
L 159.63162 201.430656 
L 156.600353 193.342614 
L 153.569087 183.851576 
L 150.537821 173.023724 
L 147.506555 160.987377 
L 144.475288 147.93905 
L 141.444022 134.148091 
L 138.412756 119.959383 
L 135.38149 105.793572 
L 132.350223 92.14418 
L 129.318957 79.570895 
L 126.287691 68.688273 
L 123.256425 60.148971 
L 120.225158 54.620558 
L 117.193892 52.754856 
L 114.162626 55.14866 
L 111.13136 62.294585 
L 108.100093 74.520674 
L 105.068827 91.917285 
L 102.037561 114.249661 
L 99.006295 140.854447 
L 95.975028 170.518299 
L 92.943762 201.336575 
L 89.912496 230.549969 
L 86.88123 254.356785 
L 83.849963 267.698388 
L 80.818697 264.015217 
L 77.787431 234.970566 
L 74.756165 170.13914 
z
" clip-path="url(#pd1c5857393)" style="fill: #2ca02c; fill-opacity: 0.166667"/>
   </g>
   <g id="PolyCollection_4">
    <path d="M 74.756165 222.63071 
L 74.756165 225.394552 
L 77.600605 225.394552 
L 80.445045 225.394552 
L 83.289484 225.394552 
L 86.133924 225.394552 
L 88.978364 225.394552 
L 91.822804 225.394552 
L 94.667244 225.394552 
L 97.511684 225.394552 
L 100.356124 225.394552 
L 103.200564 225.394552 
L 106.045003 225.394552 
L 108.889443 225.394552 
L 111.733883 225.394552 
L 114.578323 225.394552 
L 117.422763 225.394552 
L 120.267203 225.394552 
L 123.111643 225.394552 
L 125.956083 225.394552 
L 128.800522 225.394552 
L 131.644962 225.394552 
L 134.489402 225.394552 
L 137.333842 225.394552 
L 140.178282 225.394552 
L 143.022722 225.394552 
L 145.867162 225.394552 
L 148.711602 225.394552 
L 151.556041 225.394552 
L 154.400481 225.394552 
L 157.244921 225.394552 
L 160.089361 225.394552 
L 162.933801 225.394552 
L 165.778241 225.394552 
L 168.622681 225.394552 
L 171.467121 225.394552 
L 174.31156 225.394552 
L 177.156 225.394552 
L 180.00044 225.394552 
L 182.84488 225.394552 
L 185.68932 225.394552 
L 188.53376 225.394552 
L 191.3782 225.394552 
L 194.22264 225.394552 
L 197.067079 225.394552 
L 199.911519 225.394552 
L 202.755959 225.394552 
L 205.600399 225.394552 
L 208.444839 225.394552 
L 211.289279 225.394552 
L 214.133719 225.394552 
L 216.978159 225.394552 
L 219.822599 225.394552 
L 222.667038 225.394552 
L 225.511478 225.394552 
L 228.355918 225.394552 
L 231.200358 225.394552 
L 234.044798 225.394552 
L 236.889238 225.394552 
L 239.733678 225.394552 
L 242.578118 225.394552 
L 245.422557 225.394552 
L 248.266997 225.394552 
L 251.111437 225.394552 
L 253.955877 225.394552 
L 256.800317 225.394552 
L 259.644757 225.394552 
L 262.489197 225.394552 
L 265.333637 225.394552 
L 268.178076 225.394552 
L 271.022516 225.394552 
L 273.866956 225.394552 
L 276.711396 225.394552 
L 279.555836 225.394552 
L 282.400276 225.394552 
L 285.244716 225.394552 
L 288.089156 225.394552 
L 290.933595 225.394552 
L 293.778035 225.394552 
L 296.622475 225.394552 
L 299.466915 225.394552 
L 302.311355 225.394552 
L 305.155795 225.394552 
L 308.000235 225.394552 
L 310.844675 225.394552 
L 313.689114 225.394552 
L 316.533554 225.394552 
L 319.377994 225.394552 
L 322.222434 225.394552 
L 325.066874 225.394552 
L 327.911314 225.394552 
L 330.755754 225.394552 
L 333.600194 225.394552 
L 336.444633 225.394552 
L 339.289073 225.394552 
L 342.133513 225.394552 
L 344.977953 225.394552 
L 347.822393 225.394552 
L 350.666833 225.394552 
L 353.511273 225.394552 
L 356.355713 225.394552 
L 356.355713 240.655417 
L 356.355713 240.655417 
L 353.511273 221.368021 
L 350.666833 213.747098 
L 347.822393 213.238947 
L 344.977953 216.545984 
L 342.133513 221.372148 
L 339.289073 226.206538 
L 336.444633 230.141092 
L 333.600194 232.718447 
L 330.755754 233.806416 
L 327.911314 233.495809 
L 325.066874 232.018599 
L 322.222434 229.683689 
L 319.377994 226.827791 
L 316.533554 223.779157 
L 313.689114 220.832106 
L 310.844675 218.230532 
L 308.000235 216.158735 
L 305.155795 214.73812 
L 302.311355 214.028475 
L 299.466915 214.032705 
L 296.622475 214.704026 
L 293.778035 215.954779 
L 290.933595 217.666154 
L 288.089156 219.698211 
L 285.244716 221.899707 
L 282.400276 224.11733 
L 279.555836 226.204043 
L 276.711396 228.026292 
L 273.866956 229.469935 
L 271.022516 230.444799 
L 268.178076 230.887817 
L 265.333637 230.764773 
L 262.489197 230.070704 
L 259.644757 228.829041 
L 256.800317 227.089623 
L 253.955877 224.925718 
L 251.111437 222.430205 
L 248.266997 219.711113 
L 245.422557 216.886663 
L 242.578118 214.080035 
L 239.733678 211.414009 
L 236.889238 209.005676 
L 234.044798 206.961391 
L 231.200358 205.372107 
L 228.355918 204.309255 
L 225.511478 203.821282 
L 222.667038 203.930955 
L 219.822599 204.633533 
L 216.978159 225.396304 
L 214.133719 225.39606 
L 211.289279 208.711691 
L 208.444839 211.161226 
L 205.600399 213.826518 
L 202.755959 216.549583 
L 199.911519 219.155877 
L 197.067079 221.459854 
L 194.22264 223.271207 
L 191.3782 224.401622 
L 188.53376 224.67188 
L 185.68932 223.919115 
L 182.84488 222.004008 
L 180.00044 218.817708 
L 177.156 214.288248 
L 174.31156 208.386223 
L 171.467121 201.129505 
L 168.622681 192.586757 
L 165.778241 182.879557 
L 162.933801 172.182906 
L 160.089361 160.72397 
L 157.244921 148.778905 
L 154.400481 136.667658 
L 151.556041 124.746684 
L 148.711602 113.399576 
L 145.867162 103.025641 
L 143.022722 94.026571 
L 140.178282 86.79138 
L 137.333842 81.679912 
L 134.489402 79.005289 
L 131.644962 79.015807 
L 128.800522 81.87687 
L 125.956083 87.653716 
L 123.111643 96.295805 
L 120.267203 107.623904 
L 117.422763 121.321067 
L 114.578323 136.928874 
L 111.733883 153.85051 
L 108.889443 171.36243 
L 106.045003 188.636617 
L 103.200564 204.775636 
L 100.356124 218.862946 
L 97.511684 230.031212 
L 94.667244 237.551597 
L 91.822804 240.947347 
L 88.978364 240.13526 
L 86.133924 235.598983 
L 83.289484 228.598389 
L 80.445045 221.419689 
L 77.600605 217.671277 
L 74.756165 222.63071 
z
" clip-path="url(#pd1c5857393)" style="fill: #d62728; fill-opacity: 0.166667"/>
   </g>
   <g id="PolyCollection_5">
    <path d="M 74.756165 204.439727 
L 74.756165 225.394552 
L 77.237418 225.394552 
L 79.718671 225.394552 
L 82.199924 225.394552 
L 84.681177 225.394552 
L 87.16243 225.394552 
L 89.643683 225.394552 
L 92.124936 225.394552 
L 94.606189 225.394552 
L 97.087442 225.394552 
L 99.568695 225.394552 
L 102.049948 225.394552 
L 104.531201 225.394552 
L 107.012454 225.394552 
L 109.493707 225.394552 
L 111.97496 225.394552 
L 114.456213 225.394552 
L 116.937466 225.394552 
L 119.418719 225.394552 
L 121.899972 225.394552 
L 124.381225 225.394552 
L 126.862478 225.394552 
L 129.343731 225.394552 
L 131.824984 225.394552 
L 134.306237 225.394552 
L 136.78749 225.394552 
L 139.268743 225.394552 
L 141.749997 225.394552 
L 144.23125 225.394552 
L 146.712503 225.394552 
L 149.193756 225.394552 
L 151.675009 225.394552 
L 154.156262 225.394552 
L 156.637515 225.394552 
L 159.118768 225.394552 
L 161.600021 225.394552 
L 164.081274 225.394552 
L 166.562527 225.394552 
L 169.04378 225.394552 
L 171.525033 225.394552 
L 174.006286 225.394552 
L 176.487539 225.394552 
L 178.968792 225.394552 
L 181.450045 225.394552 
L 183.931298 225.394552 
L 186.412551 225.394552 
L 188.893804 225.394552 
L 191.375057 225.394552 
L 193.85631 225.394552 
L 196.337563 225.394552 
L 198.818816 225.394552 
L 201.300069 225.394552 
L 203.781322 225.394552 
L 206.262575 225.394552 
L 208.743828 225.394552 
L 211.225081 225.394552 
L 213.706334 225.394552 
L 216.187587 225.394552 
L 218.66884 225.394552 
L 221.150093 225.394552 
L 223.631346 225.394552 
L 226.112599 225.394552 
L 228.593852 225.394552 
L 231.075105 225.394552 
L 233.556359 225.394552 
L 236.037612 225.394552 
L 238.518865 225.394552 
L 241.000118 225.394552 
L 243.481371 225.394552 
L 245.962624 225.394552 
L 248.443877 225.394552 
L 250.92513 225.394552 
L 253.406383 225.394552 
L 255.887636 225.394552 
L 258.368889 225.394552 
L 260.850142 225.394552 
L 263.331395 225.394552 
L 265.812648 225.394552 
L 268.293901 225.394552 
L 270.775154 225.394552 
L 273.256407 225.394552 
L 275.73766 225.394552 
L 278.218913 225.394552 
L 280.700166 225.394552 
L 283.181419 225.394552 
L 285.662672 225.394552 
L 288.143925 225.394552 
L 290.625178 225.394552 
L 293.106431 225.394552 
L 295.587684 225.394552 
L 298.068937 225.394552 
L 300.55019 225.394552 
L 303.031443 225.394552 
L 305.512696 225.394552 
L 307.993949 225.394552 
L 310.475202 225.394552 
L 312.956455 225.394552 
L 315.437708 225.394552 
L 317.918961 225.394552 
L 320.400214 225.394552 
L 320.400214 222.716882 
L 320.400214 222.716882 
L 317.918961 227.635995 
L 315.437708 228.098916 
L 312.956455 226.339587 
L 310.475202 223.856409 
L 307.993949 221.57646 
L 305.512696 219.993879 
L 303.031443 219.285324 
L 300.55019 219.405141 
L 298.068937 220.162698 
L 295.587684 221.284138 
L 293.106431 222.460606 
L 290.625178 223.384832 
L 288.143925 223.777776 
L 285.662672 223.406892 
L 283.181419 222.097397 
L 280.700166 219.737815 
L 278.218913 216.2809 
L 275.73766 211.740943 
L 273.256407 206.188341 
L 270.775154 199.742181 
L 268.293901 192.561526 
L 265.812648 184.835949 
L 263.331395 176.77581 
L 260.850142 168.602687 
L 258.368889 160.540255 
L 255.887636 152.805916 
L 253.406383 145.603342 
L 250.92513 139.116097 
L 248.443877 133.502417 
L 245.962624 128.891207 
L 243.481371 125.379258 
L 241.000118 123.029673 
L 238.518865 121.871427 
L 236.037612 121.900008 
L 233.556359 123.07903 
L 231.075105 125.342705 
L 228.593852 128.599049 
L 226.112599 132.733696 
L 223.631346 137.614171 
L 221.150093 143.09448 
L 218.66884 149.019892 
L 216.187587 155.231759 
L 213.706334 161.57225 
L 211.225081 167.888878 
L 208.743828 174.038706 
L 206.262575 179.892131 
L 203.781322 185.336156 
L 201.300069 190.277082 
L 198.818816 225.381213 
L 196.337563 225.381805 
L 193.85631 201.248283 
L 191.375057 203.794325 
L 188.893804 205.713898 
L 186.412551 207.042217 
L 183.931298 207.833256 
L 181.450045 208.157349 
L 178.968792 208.098287 
L 176.487539 207.750021 
L 174.006286 207.213027 
L 171.525033 206.590466 
L 169.04378 205.984221 
L 166.562527 205.490953 
L 164.081274 205.198276 
L 161.600021 205.181191 
L 159.118768 205.498893 
L 156.637515 206.192075 
L 154.156262 207.280855 
L 151.675009 208.763409 
L 149.193756 210.615434 
L 146.712503 212.790494 
L 144.23125 215.221329 
L 141.749997 217.82215 
L 139.268743 220.491927 
L 136.78749 223.118665 
L 134.306237 225.584573 
L 131.824984 227.772062 
L 129.343731 229.570387 
L 126.862478 230.882758 
L 124.381225 231.633641 
L 121.899972 231.775938 
L 119.418719 231.297647 
L 116.937466 230.227536 
L 114.456213 228.639276 
L 111.97496 226.653401 
L 109.493707 224.43636 
L 107.012454 222.195808 
L 104.531201 220.171219 
L 102.049948 218.618726 
L 99.568695 217.789017 
L 97.087442 217.89696 
L 94.606189 219.081499 
L 92.124936 221.354197 
L 89.643683 224.534667 
L 87.16243 228.170951 
L 84.681177 231.442735 
L 82.199924 233.045099 
L 79.718671 231.050316 
L 77.237418 222.745007 
L 74.756165 204.439727 
z
" clip-path="url(#pd1c5857393)" style="fill: #9467bd; fill-opacity: 0.166667"/>
   </g>
   <g id="PolyCollection_6">
    <path d="M 74.756165 165.935549 
L 74.756165 225.394552 
L 77.707041 225.394552 
L 80.657917 225.394552 
L 83.608792 225.394552 
L 86.559668 225.394552 
L 89.510544 225.394552 
L 92.46142 225.394552 
L 95.412296 225.394552 
L 98.363172 225.394552 
L 101.314048 225.394552 
L 104.264924 225.394552 
L 107.2158 225.394552 
L 110.166675 225.394552 
L 113.117551 225.394552 
L 116.068427 225.394552 
L 119.019303 225.394552 
L 121.970179 225.394552 
L 124.921055 225.394552 
L 127.871931 225.394552 
L 130.822807 225.394552 
L 133.773683 225.394552 
L 136.724559 225.394552 
L 139.675434 225.394552 
L 142.62631 225.394552 
L 145.577186 225.394552 
L 148.528062 225.394552 
L 151.478938 225.394552 
L 154.429814 225.394552 
L 157.38069 225.394552 
L 160.331566 225.394552 
L 163.282442 225.394552 
L 166.233317 225.394552 
L 169.184193 225.394552 
L 172.135069 225.394552 
L 175.085945 225.394552 
L 178.036821 225.394552 
L 180.987697 225.394552 
L 183.938573 225.394552 
L 186.889449 225.394552 
L 189.840325 225.394552 
L 192.7912 225.394552 
L 195.742076 225.394552 
L 198.692952 225.394552 
L 201.643828 225.394552 
L 204.594704 225.394552 
L 207.54558 225.394552 
L 210.496456 225.394552 
L 213.447332 225.394552 
L 216.398208 225.394552 
L 219.349084 225.394552 
L 222.299959 225.394552 
L 225.250835 225.394552 
L 228.201711 225.394552 
L 231.152587 225.394552 
L 234.103463 225.394552 
L 237.054339 225.394552 
L 240.005215 225.394552 
L 242.956091 225.394552 
L 245.906967 225.394552 
L 248.857842 225.394552 
L 251.808718 225.394552 
L 254.759594 225.394552 
L 257.71047 225.394552 
L 260.661346 225.394552 
L 263.612222 225.394552 
L 266.563098 225.394552 
L 269.513974 225.394552 
L 272.46485 225.394552 
L 275.415725 225.394552 
L 278.366601 225.394552 
L 281.317477 225.394552 
L 284.268353 225.394552 
L 287.219229 225.394552 
L 290.170105 225.394552 
L 293.120981 225.394552 
L 296.071857 225.394552 
L 299.022733 225.394552 
L 301.973609 225.394552 
L 304.924484 225.394552 
L 307.87536 225.394552 
L 310.826236 225.394552 
L 313.777112 225.394552 
L 316.727988 225.394552 
L 319.678864 225.394552 
L 322.62974 225.394552 
L 325.580616 225.394552 
L 328.531492 225.394552 
L 331.482367 225.394552 
L 334.433243 225.394552 
L 337.384119 225.394552 
L 340.334995 225.394552 
L 343.285871 225.394552 
L 346.236747 225.394552 
L 349.187623 225.394552 
L 352.138499 225.394552 
L 355.089375 225.394552 
L 358.04025 225.394552 
L 360.991126 225.394552 
L 363.942002 225.394552 
L 366.892878 225.394552 
L 366.892878 222.204977 
L 366.892878 222.204977 
L 363.942002 226.583729 
L 360.991126 227.73857 
L 358.04025 227.178845 
L 355.089375 225.922342 
L 352.138499 224.611217 
L 349.187623 223.607892 
L 346.236747 223.073412 
L 343.285871 223.030554 
L 340.334995 223.413785 
L 337.384119 224.107934 
L 334.433243 224.977306 
L 331.482367 225.886763 
L 328.531492 226.716153 
L 325.580616 227.369305 
L 322.62974 227.778685 
L 319.678864 227.906647 
L 316.727988 227.744131 
L 313.777112 227.307503 
L 310.826236 226.634168 
L 307.87536 225.777458 
L 304.924484 224.801227 
L 301.973609 223.774512 
L 299.022733 222.766514 
L 296.071857 221.842123 
L 293.120981 221.05814 
L 290.170105 220.46028 
L 287.219229 220.081024 
L 284.268353 219.938321 
L 281.317477 220.03513 
L 278.366601 220.35974 
L 275.415725 220.88681 
L 272.46485 221.579016 
L 269.513974 222.389224 
L 266.563098 223.263053 
L 263.612222 224.141711 
L 260.661346 224.964993 
L 257.71047 225.67429 
L 254.759594 226.215524 
L 251.808718 226.541869 
L 248.857842 226.616168 
L 245.906967 226.412953 
L 242.956091 225.919991 
L 240.005215 225.139289 
L 237.054339 224.087516 
L 234.103463 222.795813 
L 231.152587 221.308971 
L 228.201711 219.684001 
L 225.250835 217.988101 
L 222.299959 225.39366 
L 219.349084 225.395292 
L 216.398208 211.441264 
L 213.447332 211.027995 
L 210.496456 210.996244 
L 207.54558 211.366324 
L 204.594704 212.141194 
L 201.643828 213.304429 
L 198.692952 214.818649 
L 195.742076 216.624474 
L 192.7912 218.640121 
L 189.840325 220.761699 
L 186.889449 222.86427 
L 183.938573 224.803752 
L 180.987697 226.41969 
L 178.036821 227.538927 
L 175.085945 227.980197 
L 172.135069 227.559601 
L 169.184193 226.096955 
L 166.233317 223.422931 
L 163.282442 219.38689 
L 160.331566 213.865283 
L 157.38069 206.770454 
L 154.429814 198.059617 
L 151.478938 187.743769 
L 148.528062 175.896221 
L 145.577186 162.660387 
L 142.62631 148.256423 
L 139.675434 132.98622 
L 136.724559 117.236225 
L 133.773683 101.477453 
L 130.822807 86.262014 
L 127.871931 72.215368 
L 124.921055 60.023463 
L 121.970179 50.413793 
L 119.019303 44.129342 
L 116.068427 41.894259 
L 113.117551 44.370022 
L 110.166675 52.100714 
L 107.2158 65.445935 
L 104.264924 84.499744 
L 101.314048 108.993888 
L 98.363172 138.183455 
L 95.412296 170.712923 
L 92.46142 204.460452 
L 89.510544 236.358098 
L 86.559668 262.18546 
L 83.608792 276.334125 
L 80.657917 271.540067 
L 77.707041 238.581012 
L 74.756165 165.935549 
z
" clip-path="url(#pd1c5857393)" style="fill: #8c564b; fill-opacity: 0.166667"/>
   </g>
   <g id="matplotlib.axis_1">
    <g id="xtick_1">
     <g id="line2d_1">
      <defs>
       <path id="m3ad33a5fc2" d="M 0 0 
L 0 3.5 
" style="stroke: #000000; stroke-width: 0.8"/>
      </defs>
      <g>
       <use xlink:href="#m3ad33a5fc2" x="74.756165" y="288.430125" style="stroke: #000000; stroke-width: 0.8"/>
      </g>
     </g>
     <g id="text_1">
      <!-- 0.0000 -->
      <g transform="translate(57.260852 303.028562) scale(0.1 -0.1)">
       <defs>
        <path id="DejaVuSans-30" d="M 2034 4250 
Q 1547 4250 1301 3770 
Q 1056 3291 1056 2328 
Q 1056 1369 1301 889 
Q 1547 409 2034 409 
Q 2525 409 2770 889 
Q 3016 1369 3016 2328 
Q 3016 3291 2770 3770 
Q 2525 4250 2034 4250 
z
M 2034 4750 
Q 2819 4750 3233 4129 
Q 3647 3509 3647 2328 
Q 3647 1150 3233 529 
Q 2819 -91 2034 -91 
Q 1250 -91 836 529 
Q 422 1150 422 2328 
Q 422 3509 836 4129 
Q 1250 4750 2034 4750 
z
" transform="scale(0.015625)"/>
        <path id="DejaVuSans-2e" d="M 684 794 
L 1344 794 
L 1344 0 
L 684 0 
L 684 794 
z
" transform="scale(0.015625)"/>
       </defs>
       <use xlink:href="#DejaVuSans-30"/>
       <use xlink:href="#DejaVuSans-2e" x="63.623047"/>
       <use xlink:href="#DejaVuSans-30" x="95.410156"/>
       <use xlink:href="#DejaVuSans-30" x="159.033203"/>
       <use xlink:href="#DejaVuSans-30" x="222.65625"/>
       <use xlink:href="#DejaVuSans-30" x="286.279297"/>
      </g>
     </g>
    </g>
    <g id="xtick_2">
     <g id="line2d_2">
      <g>
       <use xlink:href="#m3ad33a5fc2" x="151.982931" y="288.430125" style="stroke: #000000; stroke-width: 0.8"/>
      </g>
     </g>
     <g id="text_2">
      <!-- 0.0005 -->
      <g transform="translate(134.487618 303.028562) scale(0.1 -0.1)">
       <defs>
        <path id="DejaVuSans-35" d="M 691 4666 
L 3169 4666 
L 3169 4134 
L 1269 4134 
L 1269 2991 
Q 1406 3038 1543 3061 
Q 1681 3084 1819 3084 
Q 2600 3084 3056 2656 
Q 3513 2228 3513 1497 
Q 3513 744 3044 326 
Q 2575 -91 1722 -91 
Q 1428 -91 1123 -41 
Q 819 9 494 109 
L 494 744 
Q 775 591 1075 516 
Q 1375 441 1709 441 
Q 2250 441 2565 725 
Q 2881 1009 2881 1497 
Q 2881 1984 2565 2268 
Q 2250 2553 1709 2553 
Q 1456 2553 1204 2497 
Q 953 2441 691 2322 
L 691 4666 
z
" transform="scale(0.015625)"/>
       </defs>
       <use xlink:href="#DejaVuSans-30"/>
       <use xlink:href="#DejaVuSans-2e" x="63.623047"/>
       <use xlink:href="#DejaVuSans-30" x="95.410156"/>
       <use xlink:href="#DejaVuSans-30" x="159.033203"/>
       <use xlink:href="#DejaVuSans-30" x="222.65625"/>
       <use xlink:href="#DejaVuSans-35" x="286.279297"/>
      </g>
     </g>
    </g>
    <g id="xtick_3">
     <g id="line2d_3">
      <g>
       <use xlink:href="#m3ad33a5fc2" x="229.209697" y="288.430125" style="stroke: #000000; stroke-width: 0.8"/>
      </g>
     </g>
     <g id="text_3">
      <!-- 0.0010 -->
      <g transform="translate(211.714384 303.028562) scale(0.1 -0.1)">
       <defs>
        <path id="DejaVuSans-31" d="M 794 531 
L 1825 531 
L 1825 4091 
L 703 3866 
L 703 4441 
L 1819 4666 
L 2450 4666 
L 2450 531 
L 3481 531 
L 3481 0 
L 794 0 
L 794 531 
z
" transform="scale(0.015625)"/>
       </defs>
       <use xlink:href="#DejaVuSans-30"/>
       <use xlink:href="#DejaVuSans-2e" x="63.623047"/>
       <use xlink:href="#DejaVuSans-30" x="95.410156"/>
       <use xlink:href="#DejaVuSans-30" x="159.033203"/>
       <use xlink:href="#DejaVuSans-31" x="222.65625"/>
       <use xlink:href="#DejaVuSans-30" x="286.279297"/>
      </g>
     </g>
    </g>
    <g id="xtick_4">
     <g id="line2d_4">
      <g>
       <use xlink:href="#m3ad33a5fc2" x="306.436462" y="288.430125" style="stroke: #000000; stroke-width: 0.8"/>
      </g>
     </g>
     <g id="text_4">
      <!-- 0.0015 -->
      <g transform="translate(288.94115 303.028562) scale(0.1 -0.1)">
       <use xlink:href="#DejaVuSans-30"/>
       <use xlink:href="#DejaVuSans-2e" x="63.623047"/>
       <use xlink:href="#DejaVuSans-30" x="95.410156"/>
       <use xlink:href="#DejaVuSans-30" x="159.033203"/>
       <use xlink:href="#DejaVuSans-31" x="222.65625"/>
       <use xlink:href="#DejaVuSans-35" x="286.279297"/>
      </g>
     </g>
    </g>
    <g id="xtick_5">
     <g id="line2d_5">
      <g>
       <use xlink:href="#m3ad33a5fc2" x="383.663228" y="288.430125" style="stroke: #000000; stroke-width: 0.8"/>
      </g>
     </g>
     <g id="text_5">
      <!-- 0.0020 -->
      <g transform="translate(366.167916 303.028562) scale(0.1 -0.1)">
       <defs>
        <path id="DejaVuSans-32" d="M 1228 531 
L 3431 531 
L 3431 0 
L 469 0 
L 469 531 
Q 828 903 1448 1529 
Q 2069 2156 2228 2338 
Q 2531 2678 2651 2914 
Q 2772 3150 2772 3378 
Q 2772 3750 2511 3984 
Q 2250 4219 1831 4219 
Q 1534 4219 1204 4116 
Q 875 4013 500 3803 
L 500 4441 
Q 881 4594 1212 4672 
Q 1544 4750 1819 4750 
Q 2544 4750 2975 4387 
Q 3406 4025 3406 3419 
Q 3406 3131 3298 2873 
Q 3191 2616 2906 2266 
Q 2828 2175 2409 1742 
Q 1991 1309 1228 531 
z
" transform="scale(0.015625)"/>
       </defs>
       <use xlink:href="#DejaVuSans-30"/>
       <use xlink:href="#DejaVuSans-2e" x="63.623047"/>
       <use xlink:href="#DejaVuSans-30" x="95.410156"/>
       <use xlink:href="#DejaVuSans-30" x="159.033203"/>
       <use xlink:href="#DejaVuSans-32" x="222.65625"/>
       <use xlink:href="#DejaVuSans-30" x="286.279297"/>
      </g>
     </g>
    </g>
    <g id="text_6">
     <!-- Pixel values -->
     <g transform="translate(207.671719 316.706687) scale(0.1 -0.1)">
      <defs>
       <path id="DejaVuSans-50" d="M 1259 4147 
L 1259 2394 
L 2053 2394 
Q 2494 2394 2734 2622 
Q 2975 2850 2975 3272 
Q 2975 3691 2734 3919 
Q 2494 4147 2053 4147 
L 1259 4147 
z
M 628 4666 
L 2053 4666 
Q 2838 4666 3239 4311 
Q 3641 3956 3641 3272 
Q 3641 2581 3239 2228 
Q 2838 1875 2053 1875 
L 1259 1875 
L 1259 0 
L 628 0 
L 628 4666 
z
" transform="scale(0.015625)"/>
       <path id="DejaVuSans-69" d="M 603 3500 
L 1178 3500 
L 1178 0 
L 603 0 
L 603 3500 
z
M 603 4863 
L 1178 4863 
L 1178 4134 
L 603 4134 
L 603 4863 
z
" transform="scale(0.015625)"/>
       <path id="DejaVuSans-78" d="M 3513 3500 
L 2247 1797 
L 3578 0 
L 2900 0 
L 1881 1375 
L 863 0 
L 184 0 
L 1544 1831 
L 300 3500 
L 978 3500 
L 1906 2253 
L 2834 3500 
L 3513 3500 
z
" transform="scale(0.015625)"/>
       <path id="DejaVuSans-65" d="M 3597 1894 
L 3597 1613 
L 953 1613 
Q 991 1019 1311 708 
Q 1631 397 2203 397 
Q 2534 397 2845 478 
Q 3156 559 3463 722 
L 3463 178 
Q 3153 47 2828 -22 
Q 2503 -91 2169 -91 
Q 1331 -91 842 396 
Q 353 884 353 1716 
Q 353 2575 817 3079 
Q 1281 3584 2069 3584 
Q 2775 3584 3186 3129 
Q 3597 2675 3597 1894 
z
M 3022 2063 
Q 3016 2534 2758 2815 
Q 2500 3097 2075 3097 
Q 1594 3097 1305 2825 
Q 1016 2553 972 2059 
L 3022 2063 
z
" transform="scale(0.015625)"/>
       <path id="DejaVuSans-6c" d="M 603 4863 
L 1178 4863 
L 1178 0 
L 603 0 
L 603 4863 
z
" transform="scale(0.015625)"/>
       <path id="DejaVuSans-20" transform="scale(0.015625)"/>
       <path id="DejaVuSans-76" d="M 191 3500 
L 800 3500 
L 1894 563 
L 2988 3500 
L 3597 3500 
L 2284 0 
L 1503 0 
L 191 3500 
z
" transform="scale(0.015625)"/>
       <path id="DejaVuSans-61" d="M 2194 1759 
Q 1497 1759 1228 1600 
Q 959 1441 959 1056 
Q 959 750 1161 570 
Q 1363 391 1709 391 
Q 2188 391 2477 730 
Q 2766 1069 2766 1631 
L 2766 1759 
L 2194 1759 
z
M 3341 1997 
L 3341 0 
L 2766 0 
L 2766 531 
Q 2569 213 2275 61 
Q 1981 -91 1556 -91 
Q 1019 -91 701 211 
Q 384 513 384 1019 
Q 384 1609 779 1909 
Q 1175 2209 1959 2209 
L 2766 2209 
L 2766 2266 
Q 2766 2663 2505 2880 
Q 2244 3097 1772 3097 
Q 1472 3097 1187 3025 
Q 903 2953 641 2809 
L 641 3341 
Q 956 3463 1253 3523 
Q 1550 3584 1831 3584 
Q 2591 3584 2966 3190 
Q 3341 2797 3341 1997 
z
" transform="scale(0.015625)"/>
       <path id="DejaVuSans-75" d="M 544 1381 
L 544 3500 
L 1119 3500 
L 1119 1403 
Q 1119 906 1312 657 
Q 1506 409 1894 409 
Q 2359 409 2629 706 
Q 2900 1003 2900 1516 
L 2900 3500 
L 3475 3500 
L 3475 0 
L 2900 0 
L 2900 538 
Q 2691 219 2414 64 
Q 2138 -91 1772 -91 
Q 1169 -91 856 284 
Q 544 659 544 1381 
z
M 1991 3584 
L 1991 3584 
z
" transform="scale(0.015625)"/>
       <path id="DejaVuSans-73" d="M 2834 3397 
L 2834 2853 
Q 2591 2978 2328 3040 
Q 2066 3103 1784 3103 
Q 1356 3103 1142 2972 
Q 928 2841 928 2578 
Q 928 2378 1081 2264 
Q 1234 2150 1697 2047 
L 1894 2003 
Q 2506 1872 2764 1633 
Q 3022 1394 3022 966 
Q 3022 478 2636 193 
Q 2250 -91 1575 -91 
Q 1294 -91 989 -36 
Q 684 19 347 128 
L 347 722 
Q 666 556 975 473 
Q 1284 391 1588 391 
Q 1994 391 2212 530 
Q 2431 669 2431 922 
Q 2431 1156 2273 1281 
Q 2116 1406 1581 1522 
L 1381 1569 
Q 847 1681 609 1914 
Q 372 2147 372 2553 
Q 372 3047 722 3315 
Q 1072 3584 1716 3584 
Q 2034 3584 2315 3537 
Q 2597 3491 2834 3397 
z
" transform="scale(0.015625)"/>
      </defs>
      <use xlink:href="#DejaVuSans-50"/>
      <use xlink:href="#DejaVuSans-69" x="58.052734"/>
      <use xlink:href="#DejaVuSans-78" x="85.835938"/>
      <use xlink:href="#DejaVuSans-65" x="141.890625"/>
      <use xlink:href="#DejaVuSans-6c" x="203.414062"/>
      <use xlink:href="#DejaVuSans-20" x="231.197266"/>
      <use xlink:href="#DejaVuSans-76" x="262.984375"/>
      <use xlink:href="#DejaVuSans-61" x="322.164062"/>
      <use xlink:href="#DejaVuSans-6c" x="383.443359"/>
      <use xlink:href="#DejaVuSans-75" x="411.226562"/>
      <use xlink:href="#DejaVuSans-65" x="474.605469"/>
      <use xlink:href="#DejaVuSans-73" x="536.128906"/>
     </g>
    </g>
   </g>
   <g id="matplotlib.axis_2">
    <g id="ytick_1">
     <g id="line2d_6">
      <defs>
       <path id="mf8a8a89bff" d="M 0 0 
L -3.5 0 
" style="stroke: #000000; stroke-width: 0.8"/>
      </defs>
      <g>
       <use xlink:href="#mf8a8a89bff" x="58.523438" y="278.517287" style="stroke: #000000; stroke-width: 0.8"/>
      </g>
     </g>
     <g id="text_7">
      <!-- −0.02 -->
      <g transform="translate(20.878125 282.316506) scale(0.1 -0.1)">
       <defs>
        <path id="DejaVuSans-2212" d="M 678 2272 
L 4684 2272 
L 4684 1741 
L 678 1741 
L 678 2272 
z
" transform="scale(0.015625)"/>
       </defs>
       <use xlink:href="#DejaVuSans-2212"/>
       <use xlink:href="#DejaVuSans-30" x="83.789062"/>
       <use xlink:href="#DejaVuSans-2e" x="147.412109"/>
       <use xlink:href="#DejaVuSans-30" x="179.199219"/>
       <use xlink:href="#DejaVuSans-32" x="242.822266"/>
      </g>
     </g>
    </g>
    <g id="ytick_2">
     <g id="line2d_7">
      <g>
       <use xlink:href="#mf8a8a89bff" x="58.523438" y="225.394552" style="stroke: #000000; stroke-width: 0.8"/>
      </g>
     </g>
     <g id="text_8">
      <!-- 0.00 -->
      <g transform="translate(29.257813 229.193771) scale(0.1 -0.1)">
       <use xlink:href="#DejaVuSans-30"/>
       <use xlink:href="#DejaVuSans-2e" x="63.623047"/>
       <use xlink:href="#DejaVuSans-30" x="95.410156"/>
       <use xlink:href="#DejaVuSans-30" x="159.033203"/>
      </g>
     </g>
    </g>
    <g id="ytick_3">
     <g id="line2d_8">
      <g>
       <use xlink:href="#mf8a8a89bff" x="58.523438" y="172.271818" style="stroke: #000000; stroke-width: 0.8"/>
      </g>
     </g>
     <g id="text_9">
      <!-- 0.02 -->
      <g transform="translate(29.257813 176.071036) scale(0.1 -0.1)">
       <use xlink:href="#DejaVuSans-30"/>
       <use xlink:href="#DejaVuSans-2e" x="63.623047"/>
       <use xlink:href="#DejaVuSans-30" x="95.410156"/>
       <use xlink:href="#DejaVuSans-32" x="159.033203"/>
      </g>
     </g>
    </g>
    <g id="ytick_4">
     <g id="line2d_9">
      <g>
       <use xlink:href="#mf8a8a89bff" x="58.523438" y="119.149083" style="stroke: #000000; stroke-width: 0.8"/>
      </g>
     </g>
     <g id="text_10">
      <!-- 0.04 -->
      <g transform="translate(29.257813 122.948301) scale(0.1 -0.1)">
       <defs>
        <path id="DejaVuSans-34" d="M 2419 4116 
L 825 1625 
L 2419 1625 
L 2419 4116 
z
M 2253 4666 
L 3047 4666 
L 3047 1625 
L 3713 1625 
L 3713 1100 
L 3047 1100 
L 3047 0 
L 2419 0 
L 2419 1100 
L 313 1100 
L 313 1709 
L 2253 4666 
z
" transform="scale(0.015625)"/>
       </defs>
       <use xlink:href="#DejaVuSans-30"/>
       <use xlink:href="#DejaVuSans-2e" x="63.623047"/>
       <use xlink:href="#DejaVuSans-30" x="95.410156"/>
       <use xlink:href="#DejaVuSans-34" x="159.033203"/>
      </g>
     </g>
    </g>
    <g id="ytick_5">
     <g id="line2d_10">
      <g>
       <use xlink:href="#mf8a8a89bff" x="58.523438" y="66.026348" style="stroke: #000000; stroke-width: 0.8"/>
      </g>
     </g>
     <g id="text_11">
      <!-- 0.06 -->
      <g transform="translate(29.257813 69.825567) scale(0.1 -0.1)">
       <defs>
        <path id="DejaVuSans-36" d="M 2113 2584 
Q 1688 2584 1439 2293 
Q 1191 2003 1191 1497 
Q 1191 994 1439 701 
Q 1688 409 2113 409 
Q 2538 409 2786 701 
Q 3034 994 3034 1497 
Q 3034 2003 2786 2293 
Q 2538 2584 2113 2584 
z
M 3366 4563 
L 3366 3988 
Q 3128 4100 2886 4159 
Q 2644 4219 2406 4219 
Q 1781 4219 1451 3797 
Q 1122 3375 1075 2522 
Q 1259 2794 1537 2939 
Q 1816 3084 2150 3084 
Q 2853 3084 3261 2657 
Q 3669 2231 3669 1497 
Q 3669 778 3244 343 
Q 2819 -91 2113 -91 
Q 1303 -91 875 529 
Q 447 1150 447 2328 
Q 447 3434 972 4092 
Q 1497 4750 2381 4750 
Q 2619 4750 2861 4703 
Q 3103 4656 3366 4563 
z
" transform="scale(0.015625)"/>
       </defs>
       <use xlink:href="#DejaVuSans-30"/>
       <use xlink:href="#DejaVuSans-2e" x="63.623047"/>
       <use xlink:href="#DejaVuSans-30" x="95.410156"/>
       <use xlink:href="#DejaVuSans-36" x="159.033203"/>
      </g>
     </g>
    </g>
    <g id="text_12">
     <!-- Frequency -->
     <g transform="translate(14.798438 181.203812) rotate(-90) scale(0.1 -0.1)">
      <defs>
       <path id="DejaVuSans-46" d="M 628 4666 
L 3309 4666 
L 3309 4134 
L 1259 4134 
L 1259 2759 
L 3109 2759 
L 3109 2228 
L 1259 2228 
L 1259 0 
L 628 0 
L 628 4666 
z
" transform="scale(0.015625)"/>
       <path id="DejaVuSans-72" d="M 2631 2963 
Q 2534 3019 2420 3045 
Q 2306 3072 2169 3072 
Q 1681 3072 1420 2755 
Q 1159 2438 1159 1844 
L 1159 0 
L 581 0 
L 581 3500 
L 1159 3500 
L 1159 2956 
Q 1341 3275 1631 3429 
Q 1922 3584 2338 3584 
Q 2397 3584 2469 3576 
Q 2541 3569 2628 3553 
L 2631 2963 
z
" transform="scale(0.015625)"/>
       <path id="DejaVuSans-71" d="M 947 1747 
Q 947 1113 1208 752 
Q 1469 391 1925 391 
Q 2381 391 2643 752 
Q 2906 1113 2906 1747 
Q 2906 2381 2643 2742 
Q 2381 3103 1925 3103 
Q 1469 3103 1208 2742 
Q 947 2381 947 1747 
z
M 2906 525 
Q 2725 213 2448 61 
Q 2172 -91 1784 -91 
Q 1150 -91 751 415 
Q 353 922 353 1747 
Q 353 2572 751 3078 
Q 1150 3584 1784 3584 
Q 2172 3584 2448 3432 
Q 2725 3281 2906 2969 
L 2906 3500 
L 3481 3500 
L 3481 -1331 
L 2906 -1331 
L 2906 525 
z
" transform="scale(0.015625)"/>
       <path id="DejaVuSans-6e" d="M 3513 2113 
L 3513 0 
L 2938 0 
L 2938 2094 
Q 2938 2591 2744 2837 
Q 2550 3084 2163 3084 
Q 1697 3084 1428 2787 
Q 1159 2491 1159 1978 
L 1159 0 
L 581 0 
L 581 3500 
L 1159 3500 
L 1159 2956 
Q 1366 3272 1645 3428 
Q 1925 3584 2291 3584 
Q 2894 3584 3203 3211 
Q 3513 2838 3513 2113 
z
" transform="scale(0.015625)"/>
       <path id="DejaVuSans-63" d="M 3122 3366 
L 3122 2828 
Q 2878 2963 2633 3030 
Q 2388 3097 2138 3097 
Q 1578 3097 1268 2742 
Q 959 2388 959 1747 
Q 959 1106 1268 751 
Q 1578 397 2138 397 
Q 2388 397 2633 464 
Q 2878 531 3122 666 
L 3122 134 
Q 2881 22 2623 -34 
Q 2366 -91 2075 -91 
Q 1284 -91 818 406 
Q 353 903 353 1747 
Q 353 2603 823 3093 
Q 1294 3584 2113 3584 
Q 2378 3584 2631 3529 
Q 2884 3475 3122 3366 
z
" transform="scale(0.015625)"/>
       <path id="DejaVuSans-79" d="M 2059 -325 
Q 1816 -950 1584 -1140 
Q 1353 -1331 966 -1331 
L 506 -1331 
L 506 -850 
L 844 -850 
Q 1081 -850 1212 -737 
Q 1344 -625 1503 -206 
L 1606 56 
L 191 3500 
L 800 3500 
L 1894 763 
L 2988 3500 
L 3597 3500 
L 2059 -325 
z
" transform="scale(0.015625)"/>
      </defs>
      <use xlink:href="#DejaVuSans-46"/>
      <use xlink:href="#DejaVuSans-72" x="50.269531"/>
      <use xlink:href="#DejaVuSans-65" x="89.132812"/>
      <use xlink:href="#DejaVuSans-71" x="150.65625"/>
      <use xlink:href="#DejaVuSans-75" x="214.132812"/>
      <use xlink:href="#DejaVuSans-65" x="277.511719"/>
      <use xlink:href="#DejaVuSans-6e" x="339.035156"/>
      <use xlink:href="#DejaVuSans-63" x="402.414062"/>
      <use xlink:href="#DejaVuSans-79" x="457.394531"/>
     </g>
    </g>
   </g>
   <g id="line2d_11">
    <path d="M 74.756165 214.887986 
L 77.683501 219.314901 
L 80.610838 222.346803 
L 83.538174 224.354006 
L 86.465511 225.603741 
L 89.392848 226.28413 
L 92.320184 226.524036 
L 95.247521 226.409269 
L 98.174857 225.995634 
L 101.102194 225.319228 
L 104.02953 224.404391 
L 106.956867 223.269638 
L 109.884204 221.931918 
L 112.81154 220.409451 
L 115.738877 218.723439 
L 118.666213 216.898843 
L 121.59355 214.964447 
L 124.520886 212.952387 
L 127.448223 210.897283 
L 130.375559 208.835129 
L 133.302896 206.80204 
L 136.230233 204.832946 
L 139.157569 202.960333 
L 142.084906 201.213073 
L 145.012242 199.615399 
L 147.939579 198.186067 
L 150.866915 196.937719 
L 153.794252 195.876478 
L 156.721589 195.001758 
L 159.648925 194.306315 
L 162.576262 193.7765 
L 165.503598 193.39273 
L 168.430935 193.130131 
L 171.358271 192.959348 
L 174.285608 192.847481 
L 177.212945 192.759136 
L 180.140281 192.657546 
L 183.067618 192.505729 
L 185.994954 192.267671 
L 188.922291 191.909485 
L 191.849627 191.400521 
L 194.776964 190.714401 
L 197.7043 189.829962 
L 200.631637 188.732061 
L 203.558974 187.412243 
L 206.48631 185.86925 
L 209.413647 184.109344 
L 212.340983 182.14645 
L 215.26832 180.00211 
L 218.195656 225.383588 
L 221.122993 225.383663 
L 224.05033 172.567401 
L 226.977666 170.039615 
L 229.905003 167.549441 
L 232.832339 165.152241 
L 235.759676 162.90495 
L 238.687012 160.864754 
L 241.614349 159.087713 
L 244.541685 157.627352 
L 247.469022 156.533261 
L 250.396359 155.849723 
L 253.323695 155.614406 
L 256.251032 155.857156 
L 259.178368 156.598917 
L 262.105705 157.850815 
L 265.033041 159.61343 
L 267.960378 161.876294 
L 270.887715 164.617633 
L 273.815051 167.804383 
L 276.742388 171.392495 
L 279.669724 175.327544 
L 282.597061 179.545657 
L 285.524397 183.974754 
L 288.451734 188.536109 
L 291.37907 193.146205 
L 294.306407 197.718885 
L 297.233744 202.167731 
L 300.16108 206.408673 
L 303.088417 210.362738 
L 306.015753 213.95889 
L 308.94309 217.13687 
L 311.870426 219.849949 
L 314.797763 222.067467 
L 317.7251 223.777034 
L 320.652436 224.986237 
L 323.579773 225.723685 
L 326.507109 226.039186 
L 329.434446 226.002857 
L 332.361782 225.702901 
L 335.289119 225.241799 
L 338.216456 224.730606 
L 341.143792 224.281039 
L 344.071129 223.994974 
L 346.998465 223.95099 
L 349.925802 224.187506 
L 352.853138 224.682069 
L 355.780475 225.326279 
L 358.707811 225.895818 
L 361.635148 226.014995 
L 364.562485 225.11519 
" clip-path="url(#pd1c5857393)" style="fill: none; stroke: #1f77b4; stroke-width: 1.5; stroke-linecap: square"/>
   </g>
   <g id="line2d_12">
    <path d="M 74.756165 198.27256 
L 78.035504 251.824262 
L 81.314842 263.406659 
L 84.594181 248.101254 
L 87.87352 217.388374 
L 91.152859 179.77693 
L 94.432198 141.35151 
L 97.711537 106.244866 
L 100.990876 77.043279 
L 104.270214 55.131773 
L 107.549553 40.985621 
L 110.828892 34.414125 
L 114.108231 34.762186 
L 117.38757 41.074725 
L 120.666909 52.228621 
L 123.946247 67.036431 
L 127.225586 84.325776 
L 130.504925 102.997921 
L 133.784264 122.068767 
L 137.063603 140.695121 
L 140.342942 158.188842 
L 143.62228 174.021176 
L 146.901619 187.819319 
L 150.180958 199.357023 
L 153.460297 208.54083 
L 156.739636 215.39328 
L 160.018975 220.0343 
L 163.298314 222.661734 
L 166.577652 223.531873 
L 169.856991 222.940635 
L 173.13633 221.20596 
L 176.415669 218.651809 
L 179.695008 215.594092 
L 182.974347 212.328713 
L 186.253685 209.121846 
L 189.533024 206.202483 
L 192.812363 203.757219 
L 196.091702 201.92718 
L 199.371041 200.806959 
L 202.65038 200.445384 
L 205.929718 200.847908 
L 209.209057 201.980387 
L 212.488396 203.773997 
L 215.767735 206.131048 
L 219.047074 208.931412 
L 222.326413 212.039327 
L 225.605752 215.310327 
L 228.88509 218.598058 
L 232.164429 221.760761 
L 235.443768 225.390162 
L 238.723107 225.389378 
L 242.002446 230.266282 
L 245.281785 232.158123 
L 248.561123 233.405046 
L 251.840462 233.976405 
L 255.119801 233.872206 
L 258.39914 233.122591 
L 261.678479 231.786149 
L 264.957818 229.947123 
L 268.237157 227.711609 
L 271.516495 225.202873 
L 274.795834 222.555939 
L 278.075173 219.911643 
L 281.354512 217.410338 
L 284.633851 215.185488 
L 287.91319 213.357373 
L 291.192528 212.027153 
L 294.471867 211.271543 
L 297.751206 211.138326 
L 301.030545 211.642952 
L 304.309884 212.766428 
L 307.589223 214.454695 
L 310.868561 216.619639 
L 314.1479 219.141873 
L 317.427239 221.875318 
L 320.706578 224.653625 
L 323.985917 227.298337 
L 327.265256 229.628655 
L 330.544595 231.472557 
L 333.823933 232.678919 
L 337.103272 233.130165 
L 340.382611 232.754841 
L 343.66195 231.539371 
L 346.941289 229.538076 
L 350.220628 226.880385 
L 353.499966 223.773955 
L 356.779305 220.502222 
L 360.058644 217.414694 
L 363.337983 214.908032 
L 366.617322 213.395731 
L 369.896661 213.263929 
L 373.175999 214.810588 
L 376.455338 218.164958 
L 379.734677 223.183935 
L 383.014016 229.321545 
L 386.293355 235.467426 
L 389.572694 239.74979 
L 392.852033 239.297922 
L 396.131371 229.958841 
L 399.41071 205.962297 
" clip-path="url(#pd1c5857393)" style="fill: none; stroke: #ff7f0e; stroke-width: 1.5; stroke-linecap: square"/>
   </g>
   <g id="line2d_13">
    <path d="M 74.756165 170.13914 
L 77.787431 234.970566 
L 80.818697 264.015217 
L 83.849963 267.698388 
L 86.88123 254.356785 
L 89.912496 230.549969 
L 92.943762 201.336575 
L 95.975028 170.518299 
L 99.006295 140.854447 
L 102.037561 114.249661 
L 105.068827 91.917285 
L 108.100093 74.520674 
L 111.13136 62.294585 
L 114.162626 55.14866 
L 117.193892 52.754856 
L 120.225158 54.620558 
L 123.256425 60.148971 
L 126.287691 68.688273 
L 129.318957 79.570895 
L 132.350223 92.14418 
L 135.38149 105.793572 
L 138.412756 119.959383 
L 141.444022 134.148091 
L 144.475288 147.93905 
L 147.506555 160.987377 
L 150.537821 173.023724 
L 153.569087 183.851576 
L 156.600353 193.342614 
L 159.63162 201.430656 
L 162.662886 208.104593 
L 165.694152 213.400699 
L 168.725418 217.394642 
L 171.756685 220.193464 
L 174.787951 221.927758 
L 177.819217 222.744228 
L 180.850483 222.798782 
L 183.881749 222.250268 
L 186.913016 221.25494 
L 189.944282 219.961699 
L 192.975548 218.50815 
L 196.006814 217.017474 
L 199.038081 215.596098 
L 202.069347 214.332146 
L 205.100613 213.294616 
L 208.131879 212.533233 
L 211.163146 212.07891 
L 214.194412 211.944752 
L 217.225678 212.127509 
L 220.256944 212.609416 
L 223.288211 225.39473 
L 226.319477 225.393402 
L 229.350743 218.331287 
L 232.382009 219.811038 
L 235.413276 221.213426 
L 238.444542 222.483186 
L 241.475808 223.574033 
L 244.507074 224.450353 
L 247.538341 225.088381 
L 250.569607 225.476825 
L 253.600873 225.616962 
L 256.632139 225.522187 
L 259.663406 225.217064 
L 262.694672 224.735909 
L 265.725938 224.120974 
L 268.757204 223.42029 
L 271.78847 222.685258 
L 274.819737 221.968079 
L 277.851003 221.319123 
L 280.882269 220.784336 
L 283.913535 220.402807 
L 286.944802 220.204589 
L 289.976068 220.208887 
L 293.007334 220.422728 
L 296.0386 220.840169 
L 299.069867 221.442166 
L 302.101133 222.197126 
L 305.132399 223.062209 
L 308.163665 223.985379 
L 311.194932 224.90819 
L 314.226198 225.769261 
L 317.257464 226.508333 
L 320.28873 227.070771 
L 323.319997 227.412332 
L 326.351263 227.503911 
L 329.382529 227.335985 
L 332.413795 226.922332 
L 335.445062 226.302576 
L 338.476328 225.542992 
L 341.507594 224.734914 
L 344.53886 223.990016 
L 347.570127 223.431578 
L 350.601393 223.180778 
L 353.632659 223.336892 
L 356.663925 223.950174 
L 359.695192 224.98602 
L 362.726458 226.278882 
L 365.757724 227.47424 
L 368.78899 227.956743 
L 371.820256 226.762475 
L 374.851523 222.4731 
" clip-path="url(#pd1c5857393)" style="fill: none; stroke: #2ca02c; stroke-width: 1.5; stroke-linecap: square"/>
   </g>
   <g id="line2d_14">
    <path d="M 74.756165 222.63071 
L 77.600605 217.671277 
L 80.445045 221.419689 
L 83.289484 228.598389 
L 86.133924 235.598983 
L 88.978364 240.13526 
L 91.822804 240.947347 
L 94.667244 237.551597 
L 97.511684 230.031212 
L 100.356124 218.862946 
L 103.200564 204.775636 
L 106.045003 188.636617 
L 108.889443 171.36243 
L 111.733883 153.85051 
L 114.578323 136.928874 
L 117.422763 121.321067 
L 120.267203 107.623904 
L 123.111643 96.295805 
L 125.956083 87.653716 
L 128.800522 81.87687 
L 131.644962 79.015807 
L 134.489402 79.005289 
L 137.333842 81.679912 
L 140.178282 86.79138 
L 143.022722 94.026571 
L 145.867162 103.025641 
L 148.711602 113.399576 
L 151.556041 124.746684 
L 154.400481 136.667658 
L 157.244921 148.778905 
L 160.089361 160.72397 
L 162.933801 172.182906 
L 165.778241 182.879557 
L 168.622681 192.586757 
L 171.467121 201.129505 
L 174.31156 208.386223 
L 177.156 214.288248 
L 180.00044 218.817708 
L 182.84488 222.004008 
L 185.68932 223.919115 
L 188.53376 224.67188 
L 191.3782 224.401622 
L 194.22264 223.271207 
L 197.067079 221.459854 
L 199.911519 219.155877 
L 202.755959 216.549583 
L 205.600399 213.826518 
L 208.444839 211.161226 
L 211.289279 208.711691 
L 214.133719 225.39606 
L 216.978159 225.396304 
L 219.822599 204.633533 
L 222.667038 203.930955 
L 225.511478 203.821282 
L 228.355918 204.309255 
L 231.200358 205.372107 
L 234.044798 206.961391 
L 236.889238 209.005676 
L 239.733678 211.414009 
L 242.578118 214.080035 
L 245.422557 216.886663 
L 248.266997 219.711113 
L 251.111437 222.430205 
L 253.955877 224.925718 
L 256.800317 227.089623 
L 259.644757 228.829041 
L 262.489197 230.070704 
L 265.333637 230.764773 
L 268.178076 230.887817 
L 271.022516 230.444799 
L 273.866956 229.469935 
L 276.711396 228.026292 
L 279.555836 226.204043 
L 282.400276 224.11733 
L 285.244716 221.899707 
L 288.089156 219.698211 
L 290.933595 217.666154 
L 293.778035 215.954779 
L 296.622475 214.704026 
L 299.466915 214.032705 
L 302.311355 214.028475 
L 305.155795 214.73812 
L 308.000235 216.158735 
L 310.844675 218.230532 
L 313.689114 220.832106 
L 316.533554 223.779157 
L 319.377994 226.827791 
L 322.222434 229.683689 
L 325.066874 232.018599 
L 327.911314 233.495809 
L 330.755754 233.806416 
L 333.600194 232.718447 
L 336.444633 230.141092 
L 339.289073 226.206538 
L 342.133513 221.372148 
L 344.977953 216.545984 
L 347.822393 213.238947 
L 350.666833 213.747098 
L 353.511273 221.368021 
L 356.355713 240.655417 
" clip-path="url(#pd1c5857393)" style="fill: none; stroke: #d62728; stroke-width: 1.5; stroke-linecap: square"/>
   </g>
   <g id="line2d_15">
    <path d="M 74.756165 204.439727 
L 77.237418 222.745007 
L 79.718671 231.050316 
L 82.199924 233.045099 
L 84.681177 231.442735 
L 87.16243 228.170951 
L 89.643683 224.534667 
L 92.124936 221.354197 
L 94.606189 219.081499 
L 97.087442 217.89696 
L 99.568695 217.789017 
L 102.049948 218.618726 
L 104.531201 220.171219 
L 107.012454 222.195808 
L 109.493707 224.43636 
L 111.97496 226.653401 
L 114.456213 228.639276 
L 116.937466 230.227536 
L 119.418719 231.297647 
L 121.899972 231.775938 
L 124.381225 231.633641 
L 126.862478 230.882758 
L 129.343731 229.570387 
L 131.824984 227.772062 
L 134.306237 225.584573 
L 136.78749 223.118665 
L 139.268743 220.491927 
L 141.749997 217.82215 
L 144.23125 215.221329 
L 146.712503 212.790494 
L 149.193756 210.615434 
L 151.675009 208.763409 
L 154.156262 207.280855 
L 156.637515 206.192075 
L 159.118768 205.498893 
L 161.600021 205.181191 
L 164.081274 205.198276 
L 166.562527 205.490953 
L 169.04378 205.984221 
L 171.525033 206.590466 
L 174.006286 207.213027 
L 176.487539 207.750021 
L 178.968792 208.098287 
L 181.450045 208.157349 
L 183.931298 207.833256 
L 186.412551 207.042217 
L 188.893804 205.713898 
L 191.375057 203.794325 
L 193.85631 201.248283 
L 196.337563 225.381805 
L 198.818816 225.381213 
L 201.300069 190.277082 
L 203.781322 185.336156 
L 206.262575 179.892131 
L 208.743828 174.038706 
L 211.225081 167.888878 
L 213.706334 161.57225 
L 216.187587 155.231759 
L 218.66884 149.019892 
L 221.150093 143.09448 
L 223.631346 137.614171 
L 226.112599 132.733696 
L 228.593852 128.599049 
L 231.075105 125.342705 
L 233.556359 123.07903 
L 236.037612 121.900008 
L 238.518865 121.871427 
L 241.000118 123.029673 
L 243.481371 125.379258 
L 245.962624 128.891207 
L 248.443877 133.502417 
L 250.92513 139.116097 
L 253.406383 145.603342 
L 255.887636 152.805916 
L 258.368889 160.540255 
L 260.850142 168.602687 
L 263.331395 176.77581 
L 265.812648 184.835949 
L 268.293901 192.561526 
L 270.775154 199.742181 
L 273.256407 206.188341 
L 275.73766 211.740943 
L 278.218913 216.2809 
L 280.700166 219.737815 
L 283.181419 222.097397 
L 285.662672 223.406892 
L 288.143925 223.777776 
L 290.625178 223.384832 
L 293.106431 222.460606 
L 295.587684 221.284138 
L 298.068937 220.162698 
L 300.55019 219.405141 
L 303.031443 219.285324 
L 305.512696 219.993879 
L 307.993949 221.57646 
L 310.475202 223.856409 
L 312.956455 226.339587 
L 315.437708 228.098916 
L 317.918961 227.635995 
L 320.400214 222.716882 
" clip-path="url(#pd1c5857393)" style="fill: none; stroke: #9467bd; stroke-width: 1.5; stroke-linecap: square"/>
   </g>
   <g id="line2d_16">
    <path d="M 74.756165 165.935549 
L 77.707041 238.581012 
L 80.657917 271.540067 
L 83.608792 276.334125 
L 86.559668 262.18546 
L 89.510544 236.358098 
L 92.46142 204.460452 
L 95.412296 170.712923 
L 98.363172 138.183455 
L 101.314048 108.993888 
L 104.264924 84.499744 
L 107.2158 65.445935 
L 110.166675 52.100714 
L 113.117551 44.370022 
L 116.068427 41.894259 
L 119.019303 44.129342 
L 121.970179 50.413793 
L 124.921055 60.023463 
L 127.871931 72.215368 
L 130.822807 86.262014 
L 133.773683 101.477453 
L 136.724559 117.236225 
L 139.675434 132.98622 
L 142.62631 148.256423 
L 145.577186 162.660387 
L 148.528062 175.896221 
L 151.478938 187.743769 
L 154.429814 198.059617 
L 157.38069 206.770454 
L 160.331566 213.865283 
L 163.282442 219.38689 
L 166.233317 223.422931 
L 169.184193 226.096955 
L 172.135069 227.559601 
L 175.085945 227.980197 
L 178.036821 227.538927 
L 180.987697 226.41969 
L 183.938573 224.803752 
L 186.889449 222.86427 
L 189.840325 220.761699 
L 192.7912 218.640121 
L 195.742076 216.624474 
L 198.692952 214.818649 
L 201.643828 213.304429 
L 204.594704 212.141194 
L 207.54558 211.366324 
L 210.496456 210.996244 
L 213.447332 211.027995 
L 216.398208 211.441264 
L 219.349084 225.395292 
L 222.299959 225.39366 
L 225.250835 217.988101 
L 228.201711 219.684001 
L 231.152587 221.308971 
L 234.103463 222.795813 
L 237.054339 224.087516 
L 240.005215 225.139289 
L 242.956091 225.919991 
L 245.906967 226.412953 
L 248.857842 226.616168 
L 251.808718 226.541869 
L 254.759594 226.215524 
L 257.71047 225.67429 
L 260.661346 224.964993 
L 263.612222 224.141711 
L 266.563098 223.263053 
L 269.513974 222.389224 
L 272.46485 221.579016 
L 275.415725 220.88681 
L 278.366601 220.35974 
L 281.317477 220.03513 
L 284.268353 219.938321 
L 287.219229 220.081024 
L 290.170105 220.46028 
L 293.120981 221.05814 
L 296.071857 221.842123 
L 299.022733 222.766514 
L 301.973609 223.774512 
L 304.924484 224.801227 
L 307.87536 225.777458 
L 310.826236 226.634168 
L 313.777112 227.307503 
L 316.727988 227.744131 
L 319.678864 227.906647 
L 322.62974 227.778685 
L 325.580616 227.369305 
L 328.531492 226.716153 
L 331.482367 225.886763 
L 334.433243 224.977306 
L 337.384119 224.107934 
L 340.334995 223.413785 
L 343.285871 223.030554 
L 346.236747 223.073412 
L 349.187623 223.607892 
L 352.138499 224.611217 
L 355.089375 225.922342 
L 358.04025 227.178845 
L 360.991126 227.73857 
L 363.942002 226.583729 
L 366.892878 222.204977 
" clip-path="url(#pd1c5857393)" style="fill: none; stroke: #8c564b; stroke-width: 1.5; stroke-linecap: square"/>
   </g>
   <g id="patch_3">
    <path d="M 58.523438 288.430125 
L 58.523438 22.318125 
" style="fill: none; stroke: #000000; stroke-width: 0.8; stroke-linejoin: miter; stroke-linecap: square"/>
   </g>
   <g id="patch_4">
    <path d="M 415.643438 288.430125 
L 415.643438 22.318125 
" style="fill: none; stroke: #000000; stroke-width: 0.8; stroke-linejoin: miter; stroke-linecap: square"/>
   </g>
   <g id="patch_5">
    <path d="M 58.523438 288.430125 
L 415.643438 288.430125 
" style="fill: none; stroke: #000000; stroke-width: 0.8; stroke-linejoin: miter; stroke-linecap: square"/>
   </g>
   <g id="patch_6">
    <path d="M 58.523438 22.318125 
L 415.643438 22.318125 
" style="fill: none; stroke: #000000; stroke-width: 0.8; stroke-linejoin: miter; stroke-linecap: square"/>
   </g>
   <g id="text_13">
    <!-- RD - xtract_prob_Superior_Longitudinal_Fasciculus_3_R -->
    <g transform="translate(72.293438 16.318125) scale(0.12 -0.12)">
     <defs>
      <path id="DejaVuSans-52" d="M 2841 2188 
Q 3044 2119 3236 1894 
Q 3428 1669 3622 1275 
L 4263 0 
L 3584 0 
L 2988 1197 
Q 2756 1666 2539 1819 
Q 2322 1972 1947 1972 
L 1259 1972 
L 1259 0 
L 628 0 
L 628 4666 
L 2053 4666 
Q 2853 4666 3247 4331 
Q 3641 3997 3641 3322 
Q 3641 2881 3436 2590 
Q 3231 2300 2841 2188 
z
M 1259 4147 
L 1259 2491 
L 2053 2491 
Q 2509 2491 2742 2702 
Q 2975 2913 2975 3322 
Q 2975 3731 2742 3939 
Q 2509 4147 2053 4147 
L 1259 4147 
z
" transform="scale(0.015625)"/>
      <path id="DejaVuSans-44" d="M 1259 4147 
L 1259 519 
L 2022 519 
Q 2988 519 3436 956 
Q 3884 1394 3884 2338 
Q 3884 3275 3436 3711 
Q 2988 4147 2022 4147 
L 1259 4147 
z
M 628 4666 
L 1925 4666 
Q 3281 4666 3915 4102 
Q 4550 3538 4550 2338 
Q 4550 1131 3912 565 
Q 3275 0 1925 0 
L 628 0 
L 628 4666 
z
" transform="scale(0.015625)"/>
      <path id="DejaVuSans-2d" d="M 313 2009 
L 1997 2009 
L 1997 1497 
L 313 1497 
L 313 2009 
z
" transform="scale(0.015625)"/>
      <path id="DejaVuSans-74" d="M 1172 4494 
L 1172 3500 
L 2356 3500 
L 2356 3053 
L 1172 3053 
L 1172 1153 
Q 1172 725 1289 603 
Q 1406 481 1766 481 
L 2356 481 
L 2356 0 
L 1766 0 
Q 1100 0 847 248 
Q 594 497 594 1153 
L 594 3053 
L 172 3053 
L 172 3500 
L 594 3500 
L 594 4494 
L 1172 4494 
z
" transform="scale(0.015625)"/>
      <path id="DejaVuSans-5f" d="M 3263 -1063 
L 3263 -1509 
L -63 -1509 
L -63 -1063 
L 3263 -1063 
z
" transform="scale(0.015625)"/>
      <path id="DejaVuSans-70" d="M 1159 525 
L 1159 -1331 
L 581 -1331 
L 581 3500 
L 1159 3500 
L 1159 2969 
Q 1341 3281 1617 3432 
Q 1894 3584 2278 3584 
Q 2916 3584 3314 3078 
Q 3713 2572 3713 1747 
Q 3713 922 3314 415 
Q 2916 -91 2278 -91 
Q 1894 -91 1617 61 
Q 1341 213 1159 525 
z
M 3116 1747 
Q 3116 2381 2855 2742 
Q 2594 3103 2138 3103 
Q 1681 3103 1420 2742 
Q 1159 2381 1159 1747 
Q 1159 1113 1420 752 
Q 1681 391 2138 391 
Q 2594 391 2855 752 
Q 3116 1113 3116 1747 
z
" transform="scale(0.015625)"/>
      <path id="DejaVuSans-6f" d="M 1959 3097 
Q 1497 3097 1228 2736 
Q 959 2375 959 1747 
Q 959 1119 1226 758 
Q 1494 397 1959 397 
Q 2419 397 2687 759 
Q 2956 1122 2956 1747 
Q 2956 2369 2687 2733 
Q 2419 3097 1959 3097 
z
M 1959 3584 
Q 2709 3584 3137 3096 
Q 3566 2609 3566 1747 
Q 3566 888 3137 398 
Q 2709 -91 1959 -91 
Q 1206 -91 779 398 
Q 353 888 353 1747 
Q 353 2609 779 3096 
Q 1206 3584 1959 3584 
z
" transform="scale(0.015625)"/>
      <path id="DejaVuSans-62" d="M 3116 1747 
Q 3116 2381 2855 2742 
Q 2594 3103 2138 3103 
Q 1681 3103 1420 2742 
Q 1159 2381 1159 1747 
Q 1159 1113 1420 752 
Q 1681 391 2138 391 
Q 2594 391 2855 752 
Q 3116 1113 3116 1747 
z
M 1159 2969 
Q 1341 3281 1617 3432 
Q 1894 3584 2278 3584 
Q 2916 3584 3314 3078 
Q 3713 2572 3713 1747 
Q 3713 922 3314 415 
Q 2916 -91 2278 -91 
Q 1894 -91 1617 61 
Q 1341 213 1159 525 
L 1159 0 
L 581 0 
L 581 4863 
L 1159 4863 
L 1159 2969 
z
" transform="scale(0.015625)"/>
      <path id="DejaVuSans-53" d="M 3425 4513 
L 3425 3897 
Q 3066 4069 2747 4153 
Q 2428 4238 2131 4238 
Q 1616 4238 1336 4038 
Q 1056 3838 1056 3469 
Q 1056 3159 1242 3001 
Q 1428 2844 1947 2747 
L 2328 2669 
Q 3034 2534 3370 2195 
Q 3706 1856 3706 1288 
Q 3706 609 3251 259 
Q 2797 -91 1919 -91 
Q 1588 -91 1214 -16 
Q 841 59 441 206 
L 441 856 
Q 825 641 1194 531 
Q 1563 422 1919 422 
Q 2459 422 2753 634 
Q 3047 847 3047 1241 
Q 3047 1584 2836 1778 
Q 2625 1972 2144 2069 
L 1759 2144 
Q 1053 2284 737 2584 
Q 422 2884 422 3419 
Q 422 4038 858 4394 
Q 1294 4750 2059 4750 
Q 2388 4750 2728 4690 
Q 3069 4631 3425 4513 
z
" transform="scale(0.015625)"/>
      <path id="DejaVuSans-4c" d="M 628 4666 
L 1259 4666 
L 1259 531 
L 3531 531 
L 3531 0 
L 628 0 
L 628 4666 
z
" transform="scale(0.015625)"/>
      <path id="DejaVuSans-67" d="M 2906 1791 
Q 2906 2416 2648 2759 
Q 2391 3103 1925 3103 
Q 1463 3103 1205 2759 
Q 947 2416 947 1791 
Q 947 1169 1205 825 
Q 1463 481 1925 481 
Q 2391 481 2648 825 
Q 2906 1169 2906 1791 
z
M 3481 434 
Q 3481 -459 3084 -895 
Q 2688 -1331 1869 -1331 
Q 1566 -1331 1297 -1286 
Q 1028 -1241 775 -1147 
L 775 -588 
Q 1028 -725 1275 -790 
Q 1522 -856 1778 -856 
Q 2344 -856 2625 -561 
Q 2906 -266 2906 331 
L 2906 616 
Q 2728 306 2450 153 
Q 2172 0 1784 0 
Q 1141 0 747 490 
Q 353 981 353 1791 
Q 353 2603 747 3093 
Q 1141 3584 1784 3584 
Q 2172 3584 2450 3431 
Q 2728 3278 2906 2969 
L 2906 3500 
L 3481 3500 
L 3481 434 
z
" transform="scale(0.015625)"/>
      <path id="DejaVuSans-64" d="M 2906 2969 
L 2906 4863 
L 3481 4863 
L 3481 0 
L 2906 0 
L 2906 525 
Q 2725 213 2448 61 
Q 2172 -91 1784 -91 
Q 1150 -91 751 415 
Q 353 922 353 1747 
Q 353 2572 751 3078 
Q 1150 3584 1784 3584 
Q 2172 3584 2448 3432 
Q 2725 3281 2906 2969 
z
M 947 1747 
Q 947 1113 1208 752 
Q 1469 391 1925 391 
Q 2381 391 2643 752 
Q 2906 1113 2906 1747 
Q 2906 2381 2643 2742 
Q 2381 3103 1925 3103 
Q 1469 3103 1208 2742 
Q 947 2381 947 1747 
z
" transform="scale(0.015625)"/>
      <path id="DejaVuSans-33" d="M 2597 2516 
Q 3050 2419 3304 2112 
Q 3559 1806 3559 1356 
Q 3559 666 3084 287 
Q 2609 -91 1734 -91 
Q 1441 -91 1130 -33 
Q 819 25 488 141 
L 488 750 
Q 750 597 1062 519 
Q 1375 441 1716 441 
Q 2309 441 2620 675 
Q 2931 909 2931 1356 
Q 2931 1769 2642 2001 
Q 2353 2234 1838 2234 
L 1294 2234 
L 1294 2753 
L 1863 2753 
Q 2328 2753 2575 2939 
Q 2822 3125 2822 3475 
Q 2822 3834 2567 4026 
Q 2313 4219 1838 4219 
Q 1578 4219 1281 4162 
Q 984 4106 628 3988 
L 628 4550 
Q 988 4650 1302 4700 
Q 1616 4750 1894 4750 
Q 2613 4750 3031 4423 
Q 3450 4097 3450 3541 
Q 3450 3153 3228 2886 
Q 3006 2619 2597 2516 
z
" transform="scale(0.015625)"/>
     </defs>
     <use xlink:href="#DejaVuSans-52"/>
     <use xlink:href="#DejaVuSans-44" x="69.482422"/>
     <use xlink:href="#DejaVuSans-20" x="146.484375"/>
     <use xlink:href="#DejaVuSans-2d" x="178.271484"/>
     <use xlink:href="#DejaVuSans-20" x="214.355469"/>
     <use xlink:href="#DejaVuSans-78" x="246.142578"/>
     <use xlink:href="#DejaVuSans-74" x="305.322266"/>
     <use xlink:href="#DejaVuSans-72" x="344.53125"/>
     <use xlink:href="#DejaVuSans-61" x="385.644531"/>
     <use xlink:href="#DejaVuSans-63" x="446.923828"/>
     <use xlink:href="#DejaVuSans-74" x="501.904297"/>
     <use xlink:href="#DejaVuSans-5f" x="541.113281"/>
     <use xlink:href="#DejaVuSans-70" x="591.113281"/>
     <use xlink:href="#DejaVuSans-72" x="654.589844"/>
     <use xlink:href="#DejaVuSans-6f" x="693.453125"/>
     <use xlink:href="#DejaVuSans-62" x="754.634766"/>
     <use xlink:href="#DejaVuSans-5f" x="818.111328"/>
     <use xlink:href="#DejaVuSans-53" x="868.111328"/>
     <use xlink:href="#DejaVuSans-75" x="931.587891"/>
     <use xlink:href="#DejaVuSans-70" x="994.966797"/>
     <use xlink:href="#DejaVuSans-65" x="1058.443359"/>
     <use xlink:href="#DejaVuSans-72" x="1119.966797"/>
     <use xlink:href="#DejaVuSans-69" x="1161.080078"/>
     <use xlink:href="#DejaVuSans-6f" x="1188.863281"/>
     <use xlink:href="#DejaVuSans-72" x="1250.044922"/>
     <use xlink:href="#DejaVuSans-5f" x="1291.158203"/>
     <use xlink:href="#DejaVuSans-4c" x="1341.158203"/>
     <use xlink:href="#DejaVuSans-6f" x="1395.121094"/>
     <use xlink:href="#DejaVuSans-6e" x="1456.302734"/>
     <use xlink:href="#DejaVuSans-67" x="1519.681641"/>
     <use xlink:href="#DejaVuSans-69" x="1583.158203"/>
     <use xlink:href="#DejaVuSans-74" x="1610.941406"/>
     <use xlink:href="#DejaVuSans-75" x="1650.150391"/>
     <use xlink:href="#DejaVuSans-64" x="1713.529297"/>
     <use xlink:href="#DejaVuSans-69" x="1777.005859"/>
     <use xlink:href="#DejaVuSans-6e" x="1804.789062"/>
     <use xlink:href="#DejaVuSans-61" x="1868.167969"/>
     <use xlink:href="#DejaVuSans-6c" x="1929.447266"/>
     <use xlink:href="#DejaVuSans-5f" x="1957.230469"/>
     <use xlink:href="#DejaVuSans-46" x="2007.230469"/>
     <use xlink:href="#DejaVuSans-61" x="2055.625"/>
     <use xlink:href="#DejaVuSans-73" x="2116.904297"/>
     <use xlink:href="#DejaVuSans-63" x="2169.003906"/>
     <use xlink:href="#DejaVuSans-69" x="2223.984375"/>
     <use xlink:href="#DejaVuSans-63" x="2251.767578"/>
     <use xlink:href="#DejaVuSans-75" x="2306.748047"/>
     <use xlink:href="#DejaVuSans-6c" x="2370.126953"/>
     <use xlink:href="#DejaVuSans-75" x="2397.910156"/>
     <use xlink:href="#DejaVuSans-73" x="2461.289062"/>
     <use xlink:href="#DejaVuSans-5f" x="2513.388672"/>
     <use xlink:href="#DejaVuSans-33" x="2563.388672"/>
     <use xlink:href="#DejaVuSans-5f" x="2627.011719"/>
     <use xlink:href="#DejaVuSans-52" x="2677.011719"/>
    </g>
   </g>
   <g id="legend_1">
    <g id="patch_7">
     <path d="M 458.355438 146.666825 
L 556.211688 146.666825 
Q 558.211688 146.666825 558.211688 144.666825 
L 558.211688 55.929325 
Q 558.211688 53.929325 556.211688 53.929325 
L 458.355438 53.929325 
Q 456.355438 53.929325 456.355438 55.929325 
L 456.355438 144.666825 
Q 456.355438 146.666825 458.355438 146.666825 
z
" style="fill: #ffffff; opacity: 0.8; stroke: #cccccc; stroke-linejoin: miter"/>
    </g>
    <g id="line2d_17">
     <path d="M 460.355438 62.027762 
L 470.355438 62.027762 
L 480.355438 62.027762 
" style="fill: none; stroke: #1f77b4; stroke-width: 1.5; stroke-linecap: square"/>
    </g>
    <g id="text_14">
     <!-- 20_06_02_E3 -->
     <g transform="translate(488.355438 65.527762) scale(0.1 -0.1)">
      <defs>
       <path id="DejaVuSans-45" d="M 628 4666 
L 3578 4666 
L 3578 4134 
L 1259 4134 
L 1259 2753 
L 3481 2753 
L 3481 2222 
L 1259 2222 
L 1259 531 
L 3634 531 
L 3634 0 
L 628 0 
L 628 4666 
z
" transform="scale(0.015625)"/>
      </defs>
      <use xlink:href="#DejaVuSans-32"/>
      <use xlink:href="#DejaVuSans-30" x="63.623047"/>
      <use xlink:href="#DejaVuSans-5f" x="127.246094"/>
      <use xlink:href="#DejaVuSans-30" x="177.246094"/>
      <use xlink:href="#DejaVuSans-36" x="240.869141"/>
      <use xlink:href="#DejaVuSans-5f" x="304.492188"/>
      <use xlink:href="#DejaVuSans-30" x="354.492188"/>
      <use xlink:href="#DejaVuSans-32" x="418.115234"/>
      <use xlink:href="#DejaVuSans-5f" x="481.738281"/>
      <use xlink:href="#DejaVuSans-45" x="531.738281"/>
      <use xlink:href="#DejaVuSans-33" x="594.921875"/>
     </g>
    </g>
    <g id="line2d_18">
     <path d="M 460.355438 76.984013 
L 470.355438 76.984013 
L 480.355438 76.984013 
" style="fill: none; stroke: #ff7f0e; stroke-width: 1.5; stroke-linecap: square"/>
    </g>
    <g id="text_15">
     <!-- 20_05_01_E3 -->
     <g transform="translate(488.355438 80.484013) scale(0.1 -0.1)">
      <use xlink:href="#DejaVuSans-32"/>
      <use xlink:href="#DejaVuSans-30" x="63.623047"/>
      <use xlink:href="#DejaVuSans-5f" x="127.246094"/>
      <use xlink:href="#DejaVuSans-30" x="177.246094"/>
      <use xlink:href="#DejaVuSans-35" x="240.869141"/>
      <use xlink:href="#DejaVuSans-5f" x="304.492188"/>
      <use xlink:href="#DejaVuSans-30" x="354.492188"/>
      <use xlink:href="#DejaVuSans-31" x="418.115234"/>
      <use xlink:href="#DejaVuSans-5f" x="481.738281"/>
      <use xlink:href="#DejaVuSans-45" x="531.738281"/>
      <use xlink:href="#DejaVuSans-33" x="594.921875"/>
     </g>
    </g>
    <g id="line2d_19">
     <path d="M 460.355438 91.940262 
L 470.355438 91.940262 
L 480.355438 91.940262 
" style="fill: none; stroke: #2ca02c; stroke-width: 1.5; stroke-linecap: square"/>
    </g>
    <g id="text_16">
     <!-- 20_02_02_E3 -->
     <g transform="translate(488.355438 95.440262) scale(0.1 -0.1)">
      <use xlink:href="#DejaVuSans-32"/>
      <use xlink:href="#DejaVuSans-30" x="63.623047"/>
      <use xlink:href="#DejaVuSans-5f" x="127.246094"/>
      <use xlink:href="#DejaVuSans-30" x="177.246094"/>
      <use xlink:href="#DejaVuSans-32" x="240.869141"/>
      <use xlink:href="#DejaVuSans-5f" x="304.492188"/>
      <use xlink:href="#DejaVuSans-30" x="354.492188"/>
      <use xlink:href="#DejaVuSans-32" x="418.115234"/>
      <use xlink:href="#DejaVuSans-5f" x="481.738281"/>
      <use xlink:href="#DejaVuSans-45" x="531.738281"/>
      <use xlink:href="#DejaVuSans-33" x="594.921875"/>
     </g>
    </g>
    <g id="line2d_20">
     <path d="M 460.355438 106.896513 
L 470.355438 106.896513 
L 480.355438 106.896513 
" style="fill: none; stroke: #d62728; stroke-width: 1.5; stroke-linecap: square"/>
    </g>
    <g id="text_17">
     <!-- 20_10_02_E3 -->
     <g transform="translate(488.355438 110.396513) scale(0.1 -0.1)">
      <use xlink:href="#DejaVuSans-32"/>
      <use xlink:href="#DejaVuSans-30" x="63.623047"/>
      <use xlink:href="#DejaVuSans-5f" x="127.246094"/>
      <use xlink:href="#DejaVuSans-31" x="177.246094"/>
      <use xlink:href="#DejaVuSans-30" x="240.869141"/>
      <use xlink:href="#DejaVuSans-5f" x="304.492188"/>
      <use xlink:href="#DejaVuSans-30" x="354.492188"/>
      <use xlink:href="#DejaVuSans-32" x="418.115234"/>
      <use xlink:href="#DejaVuSans-5f" x="481.738281"/>
      <use xlink:href="#DejaVuSans-45" x="531.738281"/>
      <use xlink:href="#DejaVuSans-33" x="594.921875"/>
     </g>
    </g>
    <g id="line2d_21">
     <path d="M 460.355438 121.852762 
L 470.355438 121.852762 
L 480.355438 121.852762 
" style="fill: none; stroke: #9467bd; stroke-width: 1.5; stroke-linecap: square"/>
    </g>
    <g id="text_18">
     <!-- 20_08_02_E3 -->
     <g transform="translate(488.355438 125.352762) scale(0.1 -0.1)">
      <defs>
       <path id="DejaVuSans-38" d="M 2034 2216 
Q 1584 2216 1326 1975 
Q 1069 1734 1069 1313 
Q 1069 891 1326 650 
Q 1584 409 2034 409 
Q 2484 409 2743 651 
Q 3003 894 3003 1313 
Q 3003 1734 2745 1975 
Q 2488 2216 2034 2216 
z
M 1403 2484 
Q 997 2584 770 2862 
Q 544 3141 544 3541 
Q 544 4100 942 4425 
Q 1341 4750 2034 4750 
Q 2731 4750 3128 4425 
Q 3525 4100 3525 3541 
Q 3525 3141 3298 2862 
Q 3072 2584 2669 2484 
Q 3125 2378 3379 2068 
Q 3634 1759 3634 1313 
Q 3634 634 3220 271 
Q 2806 -91 2034 -91 
Q 1263 -91 848 271 
Q 434 634 434 1313 
Q 434 1759 690 2068 
Q 947 2378 1403 2484 
z
M 1172 3481 
Q 1172 3119 1398 2916 
Q 1625 2713 2034 2713 
Q 2441 2713 2670 2916 
Q 2900 3119 2900 3481 
Q 2900 3844 2670 4047 
Q 2441 4250 2034 4250 
Q 1625 4250 1398 4047 
Q 1172 3844 1172 3481 
z
" transform="scale(0.015625)"/>
      </defs>
      <use xlink:href="#DejaVuSans-32"/>
      <use xlink:href="#DejaVuSans-30" x="63.623047"/>
      <use xlink:href="#DejaVuSans-5f" x="127.246094"/>
      <use xlink:href="#DejaVuSans-30" x="177.246094"/>
      <use xlink:href="#DejaVuSans-38" x="240.869141"/>
      <use xlink:href="#DejaVuSans-5f" x="304.492188"/>
      <use xlink:href="#DejaVuSans-30" x="354.492188"/>
      <use xlink:href="#DejaVuSans-32" x="418.115234"/>
      <use xlink:href="#DejaVuSans-5f" x="481.738281"/>
      <use xlink:href="#DejaVuSans-45" x="531.738281"/>
      <use xlink:href="#DejaVuSans-33" x="594.921875"/>
     </g>
    </g>
    <g id="line2d_22">
     <path d="M 460.355438 136.809012 
L 470.355438 136.809012 
L 480.355438 136.809012 
" style="fill: none; stroke: #8c564b; stroke-width: 1.5; stroke-linecap: square"/>
    </g>
    <g id="text_19">
     <!-- 20_11_02_E3 -->
     <g transform="translate(488.355438 140.309012) scale(0.1 -0.1)">
      <use xlink:href="#DejaVuSans-32"/>
      <use xlink:href="#DejaVuSans-30" x="63.623047"/>
      <use xlink:href="#DejaVuSans-5f" x="127.246094"/>
      <use xlink:href="#DejaVuSans-31" x="177.246094"/>
      <use xlink:href="#DejaVuSans-31" x="240.869141"/>
      <use xlink:href="#DejaVuSans-5f" x="304.492188"/>
      <use xlink:href="#DejaVuSans-30" x="354.492188"/>
      <use xlink:href="#DejaVuSans-32" x="418.115234"/>
      <use xlink:href="#DejaVuSans-5f" x="481.738281"/>
      <use xlink:href="#DejaVuSans-45" x="531.738281"/>
      <use xlink:href="#DejaVuSans-33" x="594.921875"/>
     </g>
    </g>
   </g>
  </g>
 </g>
 <defs>
  <clipPath id="pd1c5857393">
   <rect x="58.523438" y="22.318125" width="357.12" height="266.112"/>
  </clipPath>
 </defs>
</svg>
