<?xml version="1.0" encoding="utf-8" standalone="no"?>
<!DOCTYPE svg PUBLIC "-//W3C//DTD SVG 1.1//EN"
  "http://www.w3.org/Graphics/SVG/1.1/DTD/svg11.dtd">
<svg xmlns:xlink="http://www.w3.org/1999/xlink" width="460.8pt" height="345.6pt" viewBox="0 0 460.8 345.6" xmlns="http://www.w3.org/2000/svg" version="1.1">
 <metadata>
  <rdf:RDF xmlns:dc="http://purl.org/dc/elements/1.1/" xmlns:cc="http://creativecommons.org/ns#" xmlns:rdf="http://www.w3.org/1999/02/22-rdf-syntax-ns#">
   <cc:Work>
    <dc:type rdf:resource="http://purl.org/dc/dcmitype/StillImage"/>
    <dc:date>2023-02-09T18:49:13.605199</dc:date>
    <dc:format>image/svg+xml</dc:format>
    <dc:creator>
     <cc:Agent>
      <dc:title>Matplotlib v3.6.2, https://matplotlib.org/</dc:title>
     </cc:Agent>
    </dc:creator>
   </cc:Work>
  </rdf:RDF>
 </metadata>
 <defs>
  <style type="text/css">*{stroke-linejoin: round; stroke-linecap: butt}</style>
 </defs>
 <g id="figure_1">
  <g id="patch_1">
   <path d="M 0 345.6 
L 460.8 345.6 
L 460.8 0 
L 0 0 
z
" style="fill: #ffffff"/>
  </g>
  <g id="axes_1">
   <g id="patch_2">
    <path d="M 57.6 307.584 
L 414.72 307.584 
L 414.72 41.472 
L 57.6 41.472 
z
" style="fill: #ffffff"/>
   </g>
   <g id="PolyCollection_1">
    <path d="M 73.832727 286.578643 
L 73.832727 295.488 
L 74.176598 295.488 
L 74.520469 295.488 
L 74.864339 295.488 
L 75.20821 295.488 
L 75.552081 295.488 
L 75.895951 295.488 
L 76.239822 295.488 
L 76.583693 295.488 
L 76.927563 295.488 
L 77.271434 295.488 
L 77.615305 295.488 
L 77.959175 295.488 
L 78.303046 295.488 
L 78.646917 295.488 
L 78.990787 295.488 
L 79.334658 295.488 
L 79.678529 295.488 
L 80.0224 295.488 
L 80.36627 295.488 
L 80.710141 295.488 
L 81.054012 295.488 
L 81.397882 295.488 
L 81.741753 295.488 
L 82.085624 295.488 
L 82.429494 295.488 
L 82.773365 295.488 
L 83.117236 295.488 
L 83.461106 295.488 
L 83.804977 295.488 
L 84.148848 295.488 
L 84.492718 295.488 
L 84.836589 295.488 
L 85.18046 295.488 
L 85.52433 295.488 
L 85.868201 295.488 
L 86.212072 295.488 
L 86.555942 295.488 
L 86.899813 295.488 
L 87.243684 295.488 
L 87.587555 295.488 
L 87.931425 295.488 
L 88.275296 295.488 
L 88.619167 295.488 
L 88.963037 295.488 
L 89.306908 295.488 
L 89.650779 295.488 
L 89.994649 295.488 
L 90.33852 295.488 
L 90.682391 295.488 
L 91.026261 295.488 
L 91.370132 295.488 
L 91.714003 295.488 
L 92.057873 295.488 
L 92.401744 295.488 
L 92.745615 295.488 
L 93.089485 295.488 
L 93.433356 295.488 
L 93.777227 295.488 
L 94.121097 295.488 
L 94.464968 295.488 
L 94.808839 295.488 
L 95.15271 295.488 
L 95.49658 295.488 
L 95.840451 295.488 
L 96.184322 295.488 
L 96.528192 295.488 
L 96.872063 295.488 
L 97.215934 295.488 
L 97.559804 295.488 
L 97.903675 295.488 
L 98.247546 295.488 
L 98.591416 295.488 
L 98.935287 295.488 
L 99.279158 295.488 
L 99.623028 295.488 
L 99.966899 295.488 
L 100.31077 295.488 
L 100.65464 295.488 
L 100.998511 295.488 
L 101.342382 295.488 
L 101.686252 295.488 
L 102.030123 295.488 
L 102.373994 295.488 
L 102.717865 295.488 
L 103.061735 295.488 
L 103.405606 295.488 
L 103.749477 295.488 
L 104.093347 295.488 
L 104.437218 295.488 
L 104.781089 295.488 
L 105.124959 295.488 
L 105.46883 295.488 
L 105.812701 295.488 
L 106.156571 295.488 
L 106.500442 295.488 
L 106.844313 295.488 
L 107.188183 295.488 
L 107.532054 295.488 
L 107.875925 295.488 
L 108.219795 295.488 
L 108.563666 295.488 
L 108.907537 295.488 
L 109.251407 295.488 
L 109.595278 295.488 
L 109.939149 295.488 
L 110.28302 295.488 
L 110.62689 295.488 
L 110.970761 295.488 
L 111.314632 295.488 
L 111.658502 295.488 
L 112.002373 295.488 
L 112.346244 295.488 
L 112.690114 295.488 
L 113.033985 295.488 
L 113.377856 295.488 
L 113.721726 295.488 
L 114.065597 295.488 
L 114.409468 295.488 
L 114.753338 295.488 
L 115.097209 295.488 
L 115.44108 295.488 
L 115.78495 295.488 
L 116.128821 295.488 
L 116.472692 295.488 
L 116.816562 295.488 
L 117.160433 295.488 
L 117.504304 295.488 
L 117.848175 295.488 
L 118.192045 295.488 
L 118.535916 295.488 
L 118.879787 295.488 
L 119.223657 295.488 
L 119.567528 295.488 
L 119.911399 295.488 
L 120.255269 295.488 
L 120.59914 295.488 
L 120.943011 295.488 
L 121.286881 295.488 
L 121.630752 295.488 
L 121.974623 295.488 
L 122.318493 295.488 
L 122.662364 295.488 
L 123.006235 295.488 
L 123.350105 295.488 
L 123.693976 295.488 
L 124.037847 295.488 
L 124.381717 295.488 
L 124.725588 295.488 
L 125.069459 295.488 
L 125.41333 295.488 
L 125.7572 295.488 
L 126.101071 295.488 
L 126.444942 295.488 
L 126.788812 295.488 
L 127.132683 295.488 
L 127.476554 295.488 
L 127.820424 295.488 
L 128.164295 295.488 
L 128.508166 295.488 
L 128.852036 295.488 
L 129.195907 295.488 
L 129.539778 295.488 
L 129.883648 295.488 
L 130.227519 295.488 
L 130.57139 295.488 
L 130.91526 295.488 
L 131.259131 295.488 
L 131.603002 295.488 
L 131.946872 295.488 
L 132.290743 295.488 
L 132.634614 295.488 
L 132.978485 295.488 
L 133.322355 295.488 
L 133.666226 295.488 
L 134.010097 295.488 
L 134.353967 295.488 
L 134.697838 295.488 
L 135.041709 295.488 
L 135.385579 295.488 
L 135.72945 295.488 
L 136.073321 295.488 
L 136.417191 295.488 
L 136.761062 295.488 
L 137.104933 295.488 
L 137.448803 295.488 
L 137.792674 295.488 
L 138.136545 295.488 
L 138.480415 295.488 
L 138.824286 295.488 
L 139.168157 295.488 
L 139.512027 295.488 
L 139.855898 295.488 
L 140.199769 295.488 
L 140.54364 295.488 
L 140.88751 295.488 
L 141.231381 295.488 
L 141.575252 295.488 
L 141.919122 295.488 
L 142.262993 295.488 
L 142.606864 295.488 
L 142.950734 295.488 
L 143.294605 295.488 
L 143.638476 295.488 
L 143.982346 295.488 
L 144.326217 295.488 
L 144.670088 295.488 
L 145.013958 295.488 
L 145.357829 295.488 
L 145.7017 295.488 
L 146.04557 295.488 
L 146.389441 295.488 
L 146.733312 295.488 
L 147.077182 295.488 
L 147.421053 295.488 
L 147.764924 295.488 
L 148.108795 295.488 
L 148.452665 295.488 
L 148.796536 295.488 
L 149.140407 295.488 
L 149.484277 295.488 
L 149.828148 295.488 
L 150.172019 295.488 
L 150.515889 295.488 
L 150.85976 295.488 
L 151.203631 295.488 
L 151.547501 295.488 
L 151.891372 295.488 
L 152.235243 295.488 
L 152.579113 295.488 
L 152.922984 295.488 
L 153.266855 295.488 
L 153.610725 295.488 
L 153.954596 295.488 
L 154.298467 295.488 
L 154.642337 295.488 
L 154.986208 295.488 
L 155.330079 295.488 
L 155.67395 295.488 
L 156.01782 295.488 
L 156.361691 295.488 
L 156.705562 295.488 
L 157.049432 295.488 
L 157.393303 295.488 
L 157.737174 295.488 
L 158.081044 295.488 
L 158.424915 295.488 
L 158.768786 295.488 
L 159.112656 295.488 
L 159.456527 295.488 
L 159.800398 295.488 
L 160.144268 295.488 
L 160.488139 295.488 
L 160.83201 295.488 
L 161.17588 295.488 
L 161.519751 295.488 
L 161.863622 295.488 
L 162.207492 295.488 
L 162.551363 295.488 
L 162.895234 295.488 
L 163.239105 295.488 
L 163.582975 295.488 
L 163.926846 295.488 
L 164.270717 295.488 
L 164.614587 295.488 
L 164.958458 295.488 
L 165.302329 295.488 
L 165.646199 295.488 
L 165.99007 295.488 
L 166.333941 295.488 
L 166.677811 295.488 
L 167.021682 295.488 
L 167.365553 295.488 
L 167.709423 295.488 
L 168.053294 295.488 
L 168.397165 295.488 
L 168.741035 295.488 
L 169.084906 295.488 
L 169.428777 295.488 
L 169.772647 295.488 
L 170.116518 295.488 
L 170.460389 295.488 
L 170.80426 295.488 
L 171.14813 295.488 
L 171.492001 295.488 
L 171.835872 295.488 
L 172.179742 295.488 
L 172.523613 295.488 
L 172.867484 295.488 
L 173.211354 295.488 
L 173.555225 295.488 
L 173.899096 295.488 
L 174.242966 295.488 
L 174.586837 295.488 
L 174.930708 295.488 
L 175.274578 295.488 
L 175.618449 295.488 
L 175.96232 295.488 
L 176.30619 295.488 
L 176.650061 295.488 
L 176.993932 295.488 
L 177.337802 295.488 
L 177.681673 295.488 
L 177.681673 295.359639 
L 177.681673 295.359639 
L 177.337802 295.35173 
L 176.993932 295.346698 
L 176.650061 295.344101 
L 176.30619 295.343065 
L 175.96232 295.342444 
L 175.618449 295.341067 
L 175.274578 295.338006 
L 174.930708 295.332809 
L 174.586837 295.32564 
L 174.242966 295.317293 
L 173.899096 295.309058 
L 173.555225 295.302483 
L 173.211354 295.299069 
L 172.867484 295.299971 
L 172.523613 295.305779 
L 172.179742 295.316415 
L 171.835872 295.331164 
L 171.492001 295.348829 
L 171.14813 295.367964 
L 170.80426 295.387122 
L 170.460389 295.405073 
L 170.116518 295.420949 
L 169.772647 295.434294 
L 169.428777 295.445039 
L 169.084906 295.45341 
L 168.741035 295.459815 
L 168.397165 295.464726 
L 168.053294 295.468584 
L 167.709423 295.471745 
L 167.365553 295.474454 
L 167.021682 295.476853 
L 166.677811 295.479003 
L 166.333941 295.480914 
L 165.99007 295.482574 
L 165.646199 295.483971 
L 165.302329 295.485104 
L 164.958458 295.485987 
L 164.614587 295.486648 
L 164.270717 295.487123 
L 163.926846 295.487451 
L 163.582975 295.487668 
L 163.239105 295.487807 
L 162.895234 295.487891 
L 162.551363 295.487941 
L 162.207492 295.487969 
L 161.863622 295.487984 
L 161.519751 295.487992 
L 161.17588 295.487996 
L 160.83201 295.487998 
L 160.488139 295.487999 
L 160.144268 295.488 
L 159.800398 295.488 
L 159.456527 295.488 
L 159.112656 295.488 
L 158.768786 295.488 
L 158.424915 295.488 
L 158.081044 295.488 
L 157.737174 295.488 
L 157.393303 295.488 
L 157.049432 295.488 
L 156.705562 295.488 
L 156.361691 295.488 
L 156.01782 295.488 
L 155.67395 295.488 
L 155.330079 295.488 
L 154.986208 295.488 
L 154.642337 295.488 
L 154.298467 295.488 
L 153.954596 295.488 
L 153.610725 295.488 
L 153.266855 295.488 
L 152.922984 295.488 
L 152.579113 295.488 
L 152.235243 295.488 
L 151.891372 295.488 
L 151.547501 295.488 
L 151.203631 295.488 
L 150.85976 295.488 
L 150.515889 295.488 
L 150.172019 295.488 
L 149.828148 295.488 
L 149.484277 295.488 
L 149.140407 295.488 
L 148.796536 295.487999 
L 148.452665 295.487999 
L 148.108795 295.487998 
L 147.764924 295.487997 
L 147.421053 295.487995 
L 147.077182 295.487993 
L 146.733312 295.487989 
L 146.389441 295.487984 
L 146.04557 295.487977 
L 145.7017 295.487969 
L 145.357829 295.487959 
L 145.013958 295.487948 
L 144.670088 295.487936 
L 144.326217 295.487925 
L 143.982346 295.487914 
L 143.638476 295.487906 
L 143.294605 295.4879 
L 142.950734 295.487898 
L 142.606864 295.487899 
L 142.262993 295.487904 
L 141.919122 295.487911 
L 141.575252 295.487921 
L 141.231381 295.487932 
L 140.88751 295.487944 
L 140.54364 295.487955 
L 140.199769 295.487964 
L 139.855898 295.487972 
L 139.512027 295.487977 
L 139.168157 295.48798 
L 138.824286 295.487979 
L 138.480415 295.487975 
L 138.136545 295.487968 
L 137.792674 295.487956 
L 137.448803 295.487939 
L 137.104933 295.487918 
L 136.761062 295.487893 
L 136.417191 295.487865 
L 136.073321 295.487835 
L 135.72945 295.487806 
L 135.385579 295.48778 
L 135.041709 295.487758 
L 134.697838 295.487744 
L 134.353967 295.487739 
L 134.010097 295.487743 
L 133.666226 295.487755 
L 133.322355 295.487776 
L 132.978485 295.487801 
L 132.634614 295.48783 
L 132.290743 295.48786 
L 131.946872 295.487889 
L 131.603002 295.487915 
L 131.259131 295.487937 
L 130.91526 295.487955 
L 130.57139 295.487969 
L 130.227519 295.487979 
L 129.883648 295.487987 
L 129.539778 295.487992 
L 129.195907 295.487995 
L 128.852036 295.487997 
L 128.508166 295.487998 
L 128.164295 295.487999 
L 127.820424 295.488 
L 127.476554 295.488 
L 127.132683 295.488 
L 126.788812 295.488 
L 126.444942 295.488 
L 126.101071 295.488 
L 125.7572 295.488 
L 125.41333 295.488 
L 125.069459 295.488 
L 124.725588 295.488 
L 124.381717 295.488 
L 124.037847 295.488 
L 123.693976 295.488 
L 123.350105 295.488 
L 123.006235 295.487999 
L 122.662364 295.487999 
L 122.318493 295.487998 
L 121.974623 295.487997 
L 121.630752 295.487995 
L 121.286881 295.487992 
L 120.943011 295.487989 
L 120.59914 295.487984 
L 120.255269 295.487977 
L 119.911399 295.487969 
L 119.567528 295.487959 
L 119.223657 295.487949 
L 118.879787 295.487938 
L 118.535916 295.487926 
L 118.192045 295.487915 
L 117.848175 295.487902 
L 117.504304 295.487884 
L 117.160433 295.487851 
L 116.816562 295.487778 
L 116.472692 295.487616 
L 116.128821 295.487263 
L 115.78495 295.486521 
L 115.44108 295.485029 
L 115.097209 295.482143 
L 114.753338 295.47678 
L 114.409468 295.467201 
L 114.065597 295.450752 
L 113.721726 295.423601 
L 113.377856 295.380539 
L 113.033985 295.314953 
L 112.690114 295.219078 
L 112.346244 295.08468 
L 112.002373 294.904187 
L 111.658502 294.672239 
L 111.314632 294.387433 
L 110.970761 294.053859 
L 110.62689 293.681948 
L 110.28302 293.288092 
L 109.939149 292.892731 
L 109.595278 292.516895 
L 109.251407 292.177667 
L 108.907537 291.883492 
L 108.563666 291.630531 
L 108.219795 291.401285 
L 107.875925 291.166353 
L 107.532054 290.889496 
L 107.188183 290.535302 
L 106.844313 290.077898 
L 106.500442 289.508569 
L 106.156571 288.840042 
L 105.812701 288.105725 
L 105.46883 287.353238 
L 105.124959 286.633064 
L 104.781089 285.984582 
L 104.437218 285.422869 
L 104.093347 284.929993 
L 103.749477 284.4539 
L 103.405606 283.916423 
L 103.061735 283.229733 
L 102.717865 282.318167 
L 102.373994 281.140498 
L 102.030123 279.706864 
L 101.686252 278.085181 
L 101.342382 276.393926 
L 100.998511 274.781355 
L 100.65464 273.394827 
L 100.31077 272.346903 
L 99.966899 271.686516 
L 99.623028 271.38303 
L 99.279158 271.328412 
L 98.935287 271.358511 
L 98.591416 271.289666 
L 98.247546 270.962674 
L 97.903675 270.283835 
L 97.559804 269.252925 
L 97.215934 267.970701 
L 96.872063 266.623275 
L 96.528192 265.446263 
L 96.184322 264.676619 
L 95.840451 264.503142 
L 95.49658 265.026988 
L 95.15271 266.240842 
L 94.808839 268.030566 
L 94.464968 270.19722 
L 94.121097 272.492139 
L 93.777227 274.654454 
L 93.433356 276.439992 
L 93.089485 277.632992 
L 92.745615 278.036821 
L 92.401744 277.446032 
L 92.057873 275.608247 
L 91.714003 272.189369 
L 91.370132 266.758184 
L 91.026261 258.805521 
L 90.682391 247.807871 
L 90.33852 233.33574 
L 89.994649 215.194024 
L 89.650779 193.567956 
L 89.306908 169.137753 
L 88.963037 143.122283 
L 88.619167 117.220496 
L 88.275296 93.439284 
L 87.931425 73.824548 
L 87.587555 60.14115 
L 87.243684 53.568 
L 86.899813 54.478972 
L 86.555942 62.365224 
L 86.212072 75.922773 
L 85.868201 93.289443 
L 85.52433 112.379009 
L 85.18046 131.238141 
L 84.836589 148.349374 
L 84.492718 162.820528 
L 84.148848 174.431783 
L 83.804977 183.546583 
L 83.461106 190.922346 
L 83.117236 197.474706 
L 82.773365 204.051827 
L 82.429494 211.264593 
L 82.085624 219.398717 
L 81.741753 228.412166 
L 81.397882 238.001662 
L 81.054012 247.709773 
L 80.710141 257.040859 
L 80.36627 265.559128 
L 80.0224 272.952297 
L 79.678529 279.05614 
L 79.334658 283.845224 
L 78.990787 287.401239 
L 78.646917 289.872074 
L 78.303046 291.432935 
L 77.959175 292.256922 
L 77.615305 292.498119 
L 77.271434 292.286519 
L 76.927563 291.731705 
L 76.583693 290.931054 
L 76.239822 289.978285 
L 75.895951 288.969015 
L 75.552081 288.001407 
L 75.20821 287.171573 
L 74.864339 286.564999 
L 74.520469 286.246387 
L 74.176598 286.250789 
L 73.832727 286.578643 
z
" clip-path="url(#pe77fcd1557)" style="fill: #1f77b4; fill-opacity: 0.25"/>
   </g>
   <g id="PolyCollection_2">
    <path d="M 73.832727 291.590585 
L 73.832727 295.488 
L 74.907742 295.488 
L 75.982757 295.488 
L 77.057772 295.488 
L 78.132787 295.488 
L 79.207803 295.488 
L 80.282818 295.488 
L 81.357833 295.488 
L 82.432848 295.488 
L 83.507863 295.488 
L 84.582878 295.488 
L 85.657893 295.488 
L 86.732908 295.488 
L 87.807923 295.488 
L 88.882938 295.488 
L 89.957953 295.488 
L 91.032968 295.488 
L 92.107983 295.488 
L 93.182998 295.488 
L 94.258013 295.488 
L 95.333028 295.488 
L 96.408043 295.488 
L 97.483058 295.488 
L 98.558073 295.488 
L 99.633089 295.488 
L 100.708104 295.488 
L 101.783119 295.488 
L 102.858134 295.488 
L 103.933149 295.488 
L 105.008164 295.488 
L 106.083179 295.488 
L 107.158194 295.488 
L 108.233209 295.488 
L 109.308224 295.488 
L 110.383239 295.488 
L 111.458254 295.488 
L 112.533269 295.488 
L 113.608284 295.488 
L 114.683299 295.488 
L 115.758314 295.488 
L 116.833329 295.488 
L 117.908344 295.488 
L 118.983359 295.488 
L 120.058374 295.488 
L 121.13339 295.488 
L 122.208405 295.488 
L 123.28342 295.488 
L 124.358435 295.488 
L 125.43345 295.488 
L 126.508465 295.488 
L 127.58348 295.488 
L 128.658495 295.488 
L 129.73351 295.488 
L 130.808525 295.488 
L 131.88354 295.488 
L 132.958555 295.488 
L 134.03357 295.488 
L 135.108585 295.488 
L 136.1836 295.488 
L 137.258615 295.488 
L 138.33363 295.488 
L 139.408645 295.488 
L 140.48366 295.488 
L 141.558675 295.488 
L 142.633691 295.488 
L 143.708706 295.488 
L 144.783721 295.488 
L 145.858736 295.488 
L 146.933751 295.488 
L 148.008766 295.488 
L 149.083781 295.488 
L 150.158796 295.488 
L 151.233811 295.488 
L 152.308826 295.488 
L 153.383841 295.488 
L 154.458856 295.488 
L 155.533871 295.488 
L 156.608886 295.488 
L 157.683901 295.488 
L 158.758916 295.488 
L 159.833931 295.488 
L 160.908946 295.488 
L 161.983961 295.488 
L 163.058977 295.488 
L 164.133992 295.488 
L 165.209007 295.488 
L 166.284022 295.488 
L 167.359037 295.488 
L 168.434052 295.488 
L 169.509067 295.488 
L 170.584082 295.488 
L 171.659097 295.488 
L 172.734112 295.488 
L 173.809127 295.488 
L 174.884142 295.488 
L 175.959157 295.488 
L 177.034172 295.488 
L 178.109187 295.488 
L 179.184202 295.488 
L 180.259217 295.488 
L 181.334232 295.488 
L 182.409247 295.488 
L 183.484262 295.488 
L 184.559278 295.488 
L 185.634293 295.488 
L 186.709308 295.488 
L 187.784323 295.488 
L 188.859338 295.488 
L 189.934353 295.488 
L 191.009368 295.488 
L 192.084383 295.488 
L 193.159398 295.488 
L 194.234413 295.488 
L 195.309428 295.488 
L 196.384443 295.488 
L 197.459458 295.488 
L 198.534473 295.488 
L 199.609488 295.488 
L 200.684503 295.488 
L 201.759518 295.488 
L 202.834533 295.488 
L 203.909548 295.488 
L 204.984564 295.488 
L 206.059579 295.488 
L 207.134594 295.488 
L 208.209609 295.488 
L 209.284624 295.488 
L 210.359639 295.488 
L 211.434654 295.488 
L 212.509669 295.488 
L 213.584684 295.488 
L 214.659699 295.488 
L 215.734714 295.488 
L 216.809729 295.488 
L 217.884744 295.488 
L 218.959759 295.488 
L 220.034774 295.488 
L 221.109789 295.488 
L 222.184804 295.488 
L 223.259819 295.488 
L 224.334834 295.488 
L 225.409849 295.488 
L 226.484865 295.488 
L 227.55988 295.488 
L 228.634895 295.488 
L 229.70991 295.488 
L 230.784925 295.488 
L 231.85994 295.488 
L 232.934955 295.488 
L 234.00997 295.488 
L 235.084985 295.488 
L 236.16 295.488 
L 237.235015 295.488 
L 238.31003 295.488 
L 239.385045 295.488 
L 240.46006 295.488 
L 241.535075 295.488 
L 242.61009 295.488 
L 243.685105 295.488 
L 244.76012 295.488 
L 245.835135 295.488 
L 246.910151 295.488 
L 247.985166 295.488 
L 249.060181 295.488 
L 250.135196 295.488 
L 251.210211 295.488 
L 252.285226 295.488 
L 253.360241 295.488 
L 254.435256 295.488 
L 255.510271 295.488 
L 256.585286 295.488 
L 257.660301 295.488 
L 258.735316 295.488 
L 259.810331 295.488 
L 260.885346 295.488 
L 261.960361 295.488 
L 263.035376 295.488 
L 264.110391 295.488 
L 265.185406 295.488 
L 266.260421 295.488 
L 267.335436 295.488 
L 268.410452 295.488 
L 269.485467 295.488 
L 270.560482 295.488 
L 271.635497 295.488 
L 272.710512 295.488 
L 273.785527 295.488 
L 274.860542 295.488 
L 275.935557 295.488 
L 277.010572 295.488 
L 278.085587 295.488 
L 279.160602 295.488 
L 280.235617 295.488 
L 281.310632 295.488 
L 282.385647 295.488 
L 283.460662 295.488 
L 284.535677 295.488 
L 285.610692 295.488 
L 286.685707 295.488 
L 287.760722 295.488 
L 288.835738 295.488 
L 289.910753 295.488 
L 290.985768 295.488 
L 292.060783 295.488 
L 293.135798 295.488 
L 294.210813 295.488 
L 295.285828 295.488 
L 296.360843 295.488 
L 297.435858 295.488 
L 298.510873 295.488 
L 299.585888 295.488 
L 300.660903 295.488 
L 301.735918 295.488 
L 302.810933 295.488 
L 303.885948 295.488 
L 304.960963 295.488 
L 306.035978 295.488 
L 307.110993 295.488 
L 308.186008 295.488 
L 309.261023 295.488 
L 310.336039 295.488 
L 311.411054 295.488 
L 312.486069 295.488 
L 313.561084 295.488 
L 314.636099 295.488 
L 315.711114 295.488 
L 316.786129 295.488 
L 317.861144 295.488 
L 318.936159 295.488 
L 320.011174 295.488 
L 321.086189 295.488 
L 322.161204 295.488 
L 323.236219 295.488 
L 324.311234 295.488 
L 325.386249 295.488 
L 326.461264 295.488 
L 327.536279 295.488 
L 328.611294 295.488 
L 329.686309 295.488 
L 330.761325 295.488 
L 331.83634 295.488 
L 332.911355 295.488 
L 333.98637 295.488 
L 335.061385 295.488 
L 336.1364 295.488 
L 337.211415 295.488 
L 338.28643 295.488 
L 339.361445 295.488 
L 340.43646 295.488 
L 341.511475 295.488 
L 342.58649 295.488 
L 343.661505 295.488 
L 344.73652 295.488 
L 345.811535 295.488 
L 346.88655 295.488 
L 347.961565 295.488 
L 349.03658 295.488 
L 350.111595 295.488 
L 351.18661 295.488 
L 352.261626 295.488 
L 353.336641 295.488 
L 354.411656 295.488 
L 355.486671 295.488 
L 356.561686 295.488 
L 357.636701 295.488 
L 358.711716 295.488 
L 359.786731 295.488 
L 360.861746 295.488 
L 361.936761 295.488 
L 363.011776 295.488 
L 364.086791 295.488 
L 365.161806 295.488 
L 366.236821 295.488 
L 367.311836 295.488 
L 368.386851 295.488 
L 369.461866 295.488 
L 370.536881 295.488 
L 371.611896 295.488 
L 372.686911 295.488 
L 373.761927 295.488 
L 374.836942 295.488 
L 375.911957 295.488 
L 376.986972 295.488 
L 378.061987 295.488 
L 379.137002 295.488 
L 380.212017 295.488 
L 381.287032 295.488 
L 382.362047 295.488 
L 383.437062 295.488 
L 384.512077 295.488 
L 385.587092 295.488 
L 386.662107 295.488 
L 387.737122 295.488 
L 388.812137 295.488 
L 389.887152 295.488 
L 390.962167 295.488 
L 392.037182 295.488 
L 393.112197 295.488 
L 394.187213 295.488 
L 395.262228 295.488 
L 396.337243 295.488 
L 397.412258 295.488 
L 398.487273 295.488 
L 398.487273 295.409263 
L 398.487273 295.409263 
L 397.412258 295.406074 
L 396.337243 295.405583 
L 395.262228 295.407751 
L 394.187213 295.412247 
L 393.112197 295.418502 
L 392.037182 295.425813 
L 390.962167 295.433453 
L 389.887152 295.440788 
L 388.812137 295.447351 
L 387.737122 295.452885 
L 386.662107 295.457332 
L 385.587092 295.460797 
L 384.512077 295.463479 
L 383.437062 295.465606 
L 382.362047 295.467376 
L 381.287032 295.468927 
L 380.212017 295.470319 
L 379.137002 295.471551 
L 378.061987 295.472585 
L 376.986972 295.473377 
L 375.911957 295.473907 
L 374.836942 295.474194 
L 373.761927 295.474302 
L 372.686911 295.474329 
L 371.611896 295.474387 
L 370.536881 295.474579 
L 369.461866 295.474979 
L 368.386851 295.475619 
L 367.311836 295.476484 
L 366.236821 295.477519 
L 365.161806 295.478643 
L 364.086791 295.479768 
L 363.011776 295.480816 
L 361.936761 295.481731 
L 360.861746 295.482485 
L 359.786731 295.483078 
L 358.711716 295.483531 
L 357.636701 295.483875 
L 356.561686 295.484145 
L 355.486671 295.484367 
L 354.411656 295.484556 
L 353.336641 295.484714 
L 352.261626 295.484835 
L 351.18661 295.484911 
L 350.111595 295.484933 
L 349.03658 295.484901 
L 347.961565 295.484824 
L 346.88655 295.484721 
L 345.811535 295.484615 
L 344.73652 295.48453 
L 343.661505 295.484485 
L 342.58649 295.48449 
L 341.511475 295.484542 
L 340.43646 295.484628 
L 339.361445 295.484727 
L 338.28643 295.484815 
L 337.211415 295.48487 
L 336.1364 295.484879 
L 335.061385 295.484839 
L 333.98637 295.484759 
L 332.911355 295.484655 
L 331.83634 295.484545 
L 330.761325 295.484446 
L 329.686309 295.484366 
L 328.611294 295.484301 
L 327.536279 295.484238 
L 326.461264 295.484154 
L 325.386249 295.484024 
L 324.311234 295.483829 
L 323.236219 295.483562 
L 322.161204 295.483233 
L 321.086189 295.482868 
L 320.011174 295.482509 
L 318.936159 295.482209 
L 317.861144 295.482017 
L 316.786129 295.481973 
L 315.711114 295.482102 
L 314.636099 295.482405 
L 313.561084 295.482863 
L 312.486069 295.48344 
L 311.411054 295.484088 
L 310.336039 295.484756 
L 309.261023 295.485397 
L 308.186008 295.485973 
L 307.110993 295.486457 
L 306.035978 295.486831 
L 304.960963 295.487088 
L 303.885948 295.487225 
L 302.810933 295.48724 
L 301.735918 295.487132 
L 300.660903 295.486901 
L 299.585888 295.486547 
L 298.510873 295.486075 
L 297.435858 295.485497 
L 296.360843 295.484837 
L 295.285828 295.48413 
L 294.210813 295.483424 
L 293.135798 295.482771 
L 292.060783 295.482224 
L 290.985768 295.48183 
L 289.910753 295.481618 
L 288.835738 295.481597 
L 287.760722 295.48175 
L 286.685707 295.482042 
L 285.610692 295.482423 
L 284.535677 295.482837 
L 283.460662 295.483233 
L 282.385647 295.483572 
L 281.310632 295.483832 
L 280.235617 295.484008 
L 279.160602 295.484111 
L 278.085587 295.484155 
L 277.010572 295.484159 
L 275.935557 295.48413 
L 274.860542 295.484068 
L 273.785527 295.483961 
L 272.710512 295.483787 
L 271.635497 295.483527 
L 270.560482 295.483166 
L 269.485467 295.482706 
L 268.410452 295.482165 
L 267.335436 295.481578 
L 266.260421 295.480994 
L 265.185406 295.48046 
L 264.110391 295.480019 
L 263.035376 295.479689 
L 261.960361 295.479464 
L 260.885346 295.47931 
L 259.810331 295.479169 
L 258.735316 295.478976 
L 257.660301 295.478672 
L 256.585286 295.478222 
L 255.510271 295.477627 
L 254.435256 295.476926 
L 253.360241 295.476198 
L 252.285226 295.475546 
L 251.210211 295.475077 
L 250.135196 295.474885 
L 249.060181 295.475031 
L 247.985166 295.47553 
L 246.910151 295.476352 
L 245.835135 295.477427 
L 244.76012 295.478657 
L 243.685105 295.479937 
L 242.61009 295.481167 
L 241.535075 295.482268 
L 240.46006 295.483186 
L 239.385045 295.483894 
L 238.31003 295.484381 
L 237.235015 295.48465 
L 236.16 295.484702 
L 235.084985 295.484536 
L 234.00997 295.484145 
L 232.934955 295.483515 
L 231.85994 295.482641 
L 230.784925 295.481527 
L 229.70991 295.480204 
L 228.634895 295.478729 
L 227.55988 295.477191 
L 226.484865 295.475694 
L 225.409849 295.474353 
L 224.334834 295.473262 
L 223.259819 295.472484 
L 222.184804 295.472032 
L 221.109789 295.47186 
L 220.034774 295.471875 
L 218.959759 295.471951 
L 217.884744 295.471957 
L 216.809729 295.471781 
L 215.734714 295.471362 
L 214.659699 295.470694 
L 213.584684 295.469832 
L 212.509669 295.46887 
L 211.434654 295.467915 
L 210.359639 295.467055 
L 209.284624 295.466325 
L 208.209609 295.465696 
L 207.134594 295.465067 
L 206.059579 295.46429 
L 204.984564 295.463204 
L 203.909548 295.461683 
L 202.834533 295.459671 
L 201.759518 295.457221 
L 200.684503 295.454492 
L 199.609488 295.451738 
L 198.534473 295.449256 
L 197.459458 295.447334 
L 196.384443 295.446184 
L 195.309428 295.445896 
L 194.234413 295.446417 
L 193.159398 295.447555 
L 192.084383 295.449027 
L 191.009368 295.450511 
L 189.934353 295.451724 
L 188.859338 295.452476 
L 187.784323 295.452712 
L 186.709308 295.452517 
L 185.634293 295.452088 
L 184.559278 295.451684 
L 183.484262 295.451563 
L 182.409247 295.451917 
L 181.334232 295.452836 
L 180.259217 295.454283 
L 179.184202 295.456112 
L 178.109187 295.458105 
L 177.034172 295.460019 
L 175.959157 295.461644 
L 174.884142 295.462834 
L 173.809127 295.463532 
L 172.734112 295.463758 
L 171.659097 295.463579 
L 170.584082 295.463068 
L 169.509067 295.462262 
L 168.434052 295.461127 
L 167.359037 295.459553 
L 166.284022 295.457371 
L 165.209007 295.454397 
L 164.133992 295.450495 
L 163.058977 295.445637 
L 161.983961 295.439952 
L 160.908946 295.433742 
L 159.833931 295.427458 
L 158.758916 295.421633 
L 157.683901 295.416787 
L 156.608886 295.41332 
L 155.533871 295.411426 
L 154.458856 295.411035 
L 153.383841 295.411822 
L 152.308826 295.413269 
L 151.233811 295.414773 
L 150.158796 295.415781 
L 149.083781 295.415917 
L 148.008766 295.415069 
L 146.933751 295.413422 
L 145.858736 295.411424 
L 144.783721 295.40969 
L 143.708706 295.408874 
L 142.633691 295.409532 
L 141.558675 295.412 
L 140.48366 295.416321 
L 139.408645 295.422211 
L 138.33363 295.42906 
L 137.258615 295.435938 
L 136.1836 295.441583 
L 135.108585 295.444305 
L 134.03357 295.441818 
L 132.958555 295.430968 
L 131.88354 295.407412 
L 130.808525 295.365322 
L 129.73351 295.297239 
L 128.658495 295.194246 
L 127.58348 295.046623 
L 126.508465 294.845096 
L 125.43345 294.582676 
L 124.358435 294.25691 
L 123.28342 293.872154 
L 122.208405 293.441316 
L 121.13339 292.986455 
L 120.058374 292.537747 
L 118.983359 292.130617 
L 117.908344 291.801305 
L 116.833329 291.581542 
L 115.758314 291.493362 
L 114.683299 291.545112 
L 113.608284 291.729416 
L 112.533269 292.023309 
L 111.458254 292.390036 
L 110.383239 292.781375 
L 109.308224 293.138964 
L 108.233209 293.393115 
L 107.158194 293.458121 
L 106.083179 293.223968 
L 105.008164 292.545784 
L 103.933149 291.233881 
L 102.858134 289.048851 
L 101.783119 285.70718 
L 100.708104 280.902745 
L 99.633089 274.347667 
L 98.558073 265.832019 
L 97.483058 255.295991 
L 96.408043 242.901617 
L 95.333028 229.086033 
L 94.258013 214.576853 
L 93.182998 200.354554 
L 92.107983 187.556951 
L 91.032968 177.335175 
L 89.957953 170.685059 
L 88.882938 168.287773 
L 87.807923 170.394985 
L 86.732908 176.785401 
L 85.657893 186.803066 
L 84.582878 199.468289 
L 83.507863 213.635232 
L 82.432848 228.161154 
L 81.357833 242.053089 
L 80.282818 254.567226 
L 79.207803 265.250596 
L 78.132787 273.929076 
L 77.057772 280.656278 
L 75.982757 285.642495 
L 74.907742 289.18182 
L 73.832727 291.590585 
z
" clip-path="url(#pe77fcd1557)" style="fill: #ff7f0e; fill-opacity: 0.25"/>
   </g>
   <g id="PolyCollection_3">
    <path d="M 73.832727 286.849034 
L 73.832727 295.488 
L 74.281581 295.488 
L 74.730435 295.488 
L 75.179288 295.488 
L 75.628142 295.488 
L 76.076995 295.488 
L 76.525849 295.488 
L 76.974703 295.488 
L 77.423556 295.488 
L 77.87241 295.488 
L 78.321264 295.488 
L 78.770117 295.488 
L 79.218971 295.488 
L 79.667825 295.488 
L 80.116678 295.488 
L 80.565532 295.488 
L 81.014385 295.488 
L 81.463239 295.488 
L 81.912093 295.488 
L 82.360946 295.488 
L 82.8098 295.488 
L 83.258654 295.488 
L 83.707507 295.488 
L 84.156361 295.488 
L 84.605215 295.488 
L 85.054068 295.488 
L 85.502922 295.488 
L 85.951776 295.488 
L 86.400629 295.488 
L 86.849483 295.488 
L 87.298336 295.488 
L 87.74719 295.488 
L 88.196044 295.488 
L 88.644897 295.488 
L 89.093751 295.488 
L 89.542605 295.488 
L 89.991458 295.488 
L 90.440312 295.488 
L 90.889166 295.488 
L 91.338019 295.488 
L 91.786873 295.488 
L 92.235726 295.488 
L 92.68458 295.488 
L 93.133434 295.488 
L 93.582287 295.488 
L 94.031141 295.488 
L 94.479995 295.488 
L 94.928848 295.488 
L 95.377702 295.488 
L 95.826556 295.488 
L 96.275409 295.488 
L 96.724263 295.488 
L 97.173116 295.488 
L 97.62197 295.488 
L 98.070824 295.488 
L 98.519677 295.488 
L 98.968531 295.488 
L 99.417385 295.488 
L 99.866238 295.488 
L 100.315092 295.488 
L 100.763946 295.488 
L 101.212799 295.488 
L 101.661653 295.488 
L 102.110506 295.488 
L 102.55936 295.488 
L 103.008214 295.488 
L 103.457067 295.488 
L 103.905921 295.488 
L 104.354775 295.488 
L 104.803628 295.488 
L 105.252482 295.488 
L 105.701336 295.488 
L 106.150189 295.488 
L 106.599043 295.488 
L 107.047896 295.488 
L 107.49675 295.488 
L 107.945604 295.488 
L 108.394457 295.488 
L 108.843311 295.488 
L 109.292165 295.488 
L 109.741018 295.488 
L 110.189872 295.488 
L 110.638726 295.488 
L 111.087579 295.488 
L 111.536433 295.488 
L 111.985287 295.488 
L 112.43414 295.488 
L 112.882994 295.488 
L 113.331847 295.488 
L 113.780701 295.488 
L 114.229555 295.488 
L 114.678408 295.488 
L 115.127262 295.488 
L 115.576116 295.488 
L 116.024969 295.488 
L 116.473823 295.488 
L 116.922677 295.488 
L 117.37153 295.488 
L 117.820384 295.488 
L 118.269237 295.488 
L 118.718091 295.488 
L 119.166945 295.488 
L 119.615798 295.488 
L 120.064652 295.488 
L 120.513506 295.488 
L 120.962359 295.488 
L 121.411213 295.488 
L 121.860067 295.488 
L 122.30892 295.488 
L 122.757774 295.488 
L 123.206627 295.488 
L 123.655481 295.488 
L 124.104335 295.488 
L 124.553188 295.488 
L 125.002042 295.488 
L 125.450896 295.488 
L 125.899749 295.488 
L 126.348603 295.488 
L 126.797457 295.488 
L 127.24631 295.488 
L 127.695164 295.488 
L 128.144017 295.488 
L 128.592871 295.488 
L 129.041725 295.488 
L 129.490578 295.488 
L 129.939432 295.488 
L 130.388286 295.488 
L 130.837139 295.488 
L 131.285993 295.488 
L 131.734847 295.488 
L 132.1837 295.488 
L 132.632554 295.488 
L 133.081408 295.488 
L 133.530261 295.488 
L 133.979115 295.488 
L 134.427968 295.488 
L 134.876822 295.488 
L 135.325676 295.488 
L 135.774529 295.488 
L 136.223383 295.488 
L 136.672237 295.488 
L 137.12109 295.488 
L 137.569944 295.488 
L 138.018798 295.488 
L 138.467651 295.488 
L 138.916505 295.488 
L 139.365358 295.488 
L 139.814212 295.488 
L 140.263066 295.488 
L 140.711919 295.488 
L 141.160773 295.488 
L 141.609627 295.488 
L 142.05848 295.488 
L 142.507334 295.488 
L 142.956188 295.488 
L 143.405041 295.488 
L 143.853895 295.488 
L 144.302748 295.488 
L 144.751602 295.488 
L 145.200456 295.488 
L 145.649309 295.488 
L 146.098163 295.488 
L 146.547017 295.488 
L 146.99587 295.488 
L 147.444724 295.488 
L 147.893578 295.488 
L 148.342431 295.488 
L 148.791285 295.488 
L 149.240138 295.488 
L 149.688992 295.488 
L 150.137846 295.488 
L 150.586699 295.488 
L 151.035553 295.488 
L 151.484407 295.488 
L 151.93326 295.488 
L 152.382114 295.488 
L 152.830968 295.488 
L 153.279821 295.488 
L 153.728675 295.488 
L 154.177529 295.488 
L 154.626382 295.488 
L 155.075236 295.488 
L 155.524089 295.488 
L 155.972943 295.488 
L 156.421797 295.488 
L 156.87065 295.488 
L 157.319504 295.488 
L 157.768358 295.488 
L 158.217211 295.488 
L 158.666065 295.488 
L 159.114919 295.488 
L 159.563772 295.488 
L 160.012626 295.488 
L 160.461479 295.488 
L 160.910333 295.488 
L 161.359187 295.488 
L 161.80804 295.488 
L 162.256894 295.488 
L 162.705748 295.488 
L 163.154601 295.488 
L 163.603455 295.488 
L 164.052309 295.488 
L 164.501162 295.488 
L 164.950016 295.488 
L 165.398869 295.488 
L 165.847723 295.488 
L 166.296577 295.488 
L 166.74543 295.488 
L 167.194284 295.488 
L 167.643138 295.488 
L 168.091991 295.488 
L 168.540845 295.488 
L 168.989699 295.488 
L 169.438552 295.488 
L 169.887406 295.488 
L 170.336259 295.488 
L 170.785113 295.488 
L 171.233967 295.488 
L 171.68282 295.488 
L 172.131674 295.488 
L 172.580528 295.488 
L 173.029381 295.488 
L 173.478235 295.488 
L 173.927089 295.488 
L 174.375942 295.488 
L 174.824796 295.488 
L 175.27365 295.488 
L 175.722503 295.488 
L 176.171357 295.488 
L 176.62021 295.488 
L 177.069064 295.488 
L 177.517918 295.488 
L 177.966771 295.488 
L 178.415625 295.488 
L 178.864479 295.488 
L 179.313332 295.488 
L 179.762186 295.488 
L 180.21104 295.488 
L 180.659893 295.488 
L 181.108747 295.488 
L 181.5576 295.488 
L 182.006454 295.488 
L 182.455308 295.488 
L 182.904161 295.488 
L 183.353015 295.488 
L 183.801869 295.488 
L 184.250722 295.488 
L 184.699576 295.488 
L 185.14843 295.488 
L 185.597283 295.488 
L 186.046137 295.488 
L 186.49499 295.488 
L 186.943844 295.488 
L 187.392698 295.488 
L 187.841551 295.488 
L 188.290405 295.488 
L 188.739259 295.488 
L 189.188112 295.488 
L 189.636966 295.488 
L 190.08582 295.488 
L 190.534673 295.488 
L 190.983527 295.488 
L 191.43238 295.488 
L 191.881234 295.488 
L 192.330088 295.488 
L 192.778941 295.488 
L 193.227795 295.488 
L 193.676649 295.488 
L 194.125502 295.488 
L 194.574356 295.488 
L 195.02321 295.488 
L 195.472063 295.488 
L 195.920917 295.488 
L 196.36977 295.488 
L 196.818624 295.488 
L 197.267478 295.488 
L 197.716331 295.488 
L 198.165185 295.488 
L 198.614039 295.488 
L 199.062892 295.488 
L 199.511746 295.488 
L 199.9606 295.488 
L 200.409453 295.488 
L 200.858307 295.488 
L 201.307161 295.488 
L 201.756014 295.488 
L 202.204868 295.488 
L 202.653721 295.488 
L 203.102575 295.488 
L 203.551429 295.488 
L 204.000282 295.488 
L 204.449136 295.488 
L 204.89799 295.488 
L 205.346843 295.488 
L 205.795697 295.488 
L 206.244551 295.488 
L 206.693404 295.488 
L 207.142258 295.488 
L 207.591111 295.488 
L 208.039965 295.488 
L 208.488819 295.488 
L 208.937672 295.488 
L 209.386526 295.488 
L 209.386526 295.276401 
L 209.386526 295.276401 
L 208.937672 295.268625 
L 208.488819 295.268545 
L 208.039965 295.27617 
L 207.591111 295.290703 
L 207.142258 295.310682 
L 206.693404 295.334216 
L 206.244551 295.359276 
L 205.795697 295.383971 
L 205.346843 295.406759 
L 204.89799 295.426563 
L 204.449136 295.442783 
L 204.000282 295.455233 
L 203.551429 295.464026 
L 203.102575 295.469446 
L 202.653721 295.471843 
L 202.204868 295.47156 
L 201.756014 295.468909 
L 201.307161 295.464189 
L 200.858307 295.45772 
L 200.409453 295.449896 
L 199.9606 295.441216 
L 199.511746 295.43229 
L 199.062892 295.423808 
L 198.614039 295.416466 
L 198.165185 295.410876 
L 197.716331 295.407464 
L 197.267478 295.406393 
L 196.818624 295.407534 
L 196.36977 295.410479 
L 195.920917 295.414621 
L 195.472063 295.419267 
L 195.02321 295.423765 
L 194.574356 295.42762 
L 194.125502 295.430569 
L 193.676649 295.432605 
L 193.227795 295.433941 
L 192.778941 295.434933 
L 192.330088 295.435982 
L 191.881234 295.43743 
L 191.43238 295.439489 
L 190.983527 295.442201 
L 190.534673 295.445443 
L 190.08582 295.448973 
L 189.636966 295.452496 
L 189.188112 295.455731 
L 188.739259 295.458479 
L 188.290405 295.460646 
L 187.841551 295.462257 
L 187.392698 295.463426 
L 186.943844 295.464318 
L 186.49499 295.4651 
L 186.046137 295.465898 
L 185.597283 295.466769 
L 185.14843 295.467699 
L 184.699576 295.46861 
L 184.250722 295.469393 
L 183.801869 295.469935 
L 183.353015 295.470151 
L 182.904161 295.469997 
L 182.455308 295.46947 
L 182.006454 295.468586 
L 181.5576 295.467352 
L 181.108747 295.465729 
L 180.659893 295.46361 
L 180.21104 295.46081 
L 179.762186 295.457088 
L 179.313332 295.452194 
L 178.864479 295.445938 
L 178.415625 295.43827 
L 177.966771 295.429346 
L 177.517918 295.419568 
L 177.069064 295.409569 
L 176.62021 295.400151 
L 176.171357 295.392174 
L 175.722503 295.386412 
L 175.27365 295.383412 
L 174.824796 295.383393 
L 174.375942 295.386194 
L 173.927089 295.391308 
L 173.478235 295.397972 
L 173.029381 295.405312 
L 172.580528 295.412505 
L 172.131674 295.418911 
L 171.68282 295.424165 
L 171.233967 295.428198 
L 170.785113 295.4312 
L 170.336259 295.433531 
L 169.887406 295.435606 
L 169.438552 295.437791 
L 168.989699 295.44032 
L 168.540845 295.443256 
L 168.091991 295.446505 
L 167.643138 295.449855 
L 167.194284 295.453044 
L 166.74543 295.455834 
L 166.296577 295.458059 
L 165.847723 295.459654 
L 165.398869 295.460654 
L 164.950016 295.461159 
L 164.501162 295.461288 
L 164.052309 295.461133 
L 163.603455 295.460718 
L 163.154601 295.459989 
L 162.705748 295.458822 
L 162.256894 295.457069 
L 161.80804 295.454603 
L 161.359187 295.451383 
L 160.910333 295.447488 
L 160.461479 295.443136 
L 160.012626 295.438661 
L 159.563772 295.434461 
L 159.114919 295.430914 
L 158.666065 295.428297 
L 158.217211 295.426716 
L 157.768358 295.426067 
L 157.319504 295.426049 
L 156.87065 295.426226 
L 156.421797 295.426116 
L 155.972943 295.425308 
L 155.524089 295.423556 
L 155.075236 295.420843 
L 154.626382 295.417384 
L 154.177529 295.413578 
L 153.728675 295.4099 
L 153.279821 295.406775 
L 152.830968 295.404459 
L 152.382114 295.40295 
L 151.93326 295.401972 
L 151.484407 295.401023 
L 151.035553 295.399494 
L 150.586699 295.396818 
L 150.137846 295.392627 
L 149.688992 295.386866 
L 149.240138 295.379831 
L 148.791285 295.372121 
L 148.342431 295.364505 
L 147.893578 295.35773 
L 147.444724 295.352314 
L 146.99587 295.348395 
L 146.547017 295.345648 
L 146.098163 295.343332 
L 145.649309 295.34045 
L 145.200456 295.335989 
L 144.751602 295.329204 
L 144.302748 295.319858 
L 143.853895 295.308367 
L 143.405041 295.295808 
L 142.956188 295.283773 
L 142.507334 295.274101 
L 142.05848 295.268533 
L 141.609627 295.268388 
L 141.160773 295.274308 
L 140.711919 295.286153 
L 140.263066 295.303035 
L 139.814212 295.323508 
L 139.365358 295.345832 
L 138.916505 295.368274 
L 138.467651 295.389358 
L 138.018798 295.408038 
L 137.569944 295.42376 
L 137.12109 295.436428 
L 136.672237 295.446302 
L 136.223383 295.453857 
L 135.774529 295.459641 
L 135.325676 295.464168 
L 134.876822 295.467841 
L 134.427968 295.47092 
L 133.979115 295.473518 
L 133.530261 295.475611 
L 133.081408 295.477053 
L 132.632554 295.47757 
L 132.1837 295.476738 
L 131.734847 295.473951 
L 131.285993 295.468369 
L 130.837139 295.458892 
L 130.388286 295.444169 
L 129.939432 295.422674 
L 129.490578 295.392878 
L 129.041725 295.353506 
L 128.592871 295.303876 
L 128.144017 295.244238 
L 127.695164 295.176049 
L 127.24631 295.102066 
L 126.797457 295.026173 
L 126.348603 294.952907 
L 125.899749 294.886711 
L 125.450896 294.831036 
L 125.002042 294.787493 
L 124.553188 294.755274 
L 124.104335 294.731043 
L 123.655481 294.709393 
L 123.206627 294.683846 
L 122.757774 294.648184 
L 122.30892 294.597826 
L 121.860067 294.530851 
L 121.411213 294.44836 
L 120.962359 294.353959 
L 120.513506 294.252384 
L 120.064652 294.147517 
L 119.615798 294.040274 
L 119.166945 293.926951 
L 118.718091 293.798619 
L 118.269237 293.641974 
L 117.820384 293.441719 
L 117.37153 293.184128 
L 116.922677 292.861051 
L 116.473823 292.473291 
L 116.024969 292.03227 
L 115.576116 291.559092 
L 115.127262 291.080701 
L 114.678408 290.62355 
L 114.229555 290.206034 
L 113.780701 289.83152 
L 113.331847 289.484046 
L 112.882994 289.128427 
L 112.43414 288.715628 
L 111.985287 288.193009 
L 111.536433 287.517624 
L 111.087579 286.669659 
L 110.638726 285.662529 
L 110.189872 284.546509 
L 109.741018 283.403975 
L 109.292165 282.336283 
L 108.843311 281.444485 
L 108.394457 280.807971 
L 107.945604 280.466104 
L 107.49675 280.407631 
L 107.047896 280.57107 
L 106.599043 280.856682 
L 106.150189 281.14778 
L 105.701336 281.336635 
L 105.252482 281.348941 
L 104.803628 281.160962 
L 104.354775 280.805134 
L 103.905921 280.362673 
L 103.457067 279.944845 
L 103.008214 279.667358 
L 102.55936 279.623956 
L 102.110506 279.865459 
L 101.661653 280.389031 
L 101.212799 281.139861 
L 100.763946 282.024317 
L 100.315092 282.930833 
L 99.866238 283.753033 
L 99.417385 284.409256 
L 98.968531 284.853802 
L 98.519677 285.077495 
L 98.070824 285.097924 
L 97.62197 284.942412 
L 97.173116 284.628615 
L 96.724263 284.148379 
L 96.275409 283.459792 
L 95.826556 282.490377 
L 95.377702 281.151444 
L 94.928848 279.360224 
L 94.479995 277.063437 
L 94.031141 274.254086 
L 93.582287 270.973365 
L 93.133434 267.292054 
L 92.68458 263.270651 
L 92.235726 258.904016 
L 91.786873 254.063184 
L 91.338019 248.452272 
L 90.889166 241.600077 
L 90.440312 232.902387 
L 89.991458 221.72167 
L 89.542605 207.536678 
L 89.093751 190.1183 
L 88.644897 169.694101 
L 88.196044 147.057167 
L 87.74719 123.579064 
L 87.298336 101.103446 
L 86.849483 81.723475 
L 86.400629 67.476629 
L 85.951776 60.015733 
L 85.502922 60.326677 
L 85.054068 68.556379 
L 84.605215 83.989795 
L 84.156361 105.179041 
L 83.707507 130.191624 
L 83.258654 156.918916 
L 82.8098 183.377532 
L 82.360946 207.945871 
L 81.912093 229.501109 
L 81.463239 247.449806 
L 81.014385 261.669666 
L 80.565532 272.394811 
L 80.116678 280.080568 
L 79.667825 285.278037 
L 79.218971 288.537695 
L 78.770117 290.349349 
L 78.321264 291.116013 
L 77.87241 291.153419 
L 77.423556 290.704665 
L 76.974703 289.960256 
L 76.525849 289.076221 
L 76.076995 288.186001 
L 75.628142 287.404829 
L 75.179288 286.827721 
L 74.730435 286.52379 
L 74.281581 286.530236 
L 73.832727 286.849034 
z
" clip-path="url(#pe77fcd1557)" style="fill: #2ca02c; fill-opacity: 0.25"/>
   </g>
   <g id="PolyCollection_4">
    <path d="M 73.832727 290.169153 
L 73.832727 295.488 
L 74.641251 295.488 
L 75.449774 295.488 
L 76.258298 295.488 
L 77.066821 295.488 
L 77.875344 295.488 
L 78.683868 295.488 
L 79.492391 295.488 
L 80.300915 295.488 
L 81.109438 295.488 
L 81.917961 295.488 
L 82.726485 295.488 
L 83.535008 295.488 
L 84.343532 295.488 
L 85.152055 295.488 
L 85.960579 295.488 
L 86.769102 295.488 
L 87.577625 295.488 
L 88.386149 295.488 
L 89.194672 295.488 
L 90.003196 295.488 
L 90.811719 295.488 
L 91.620242 295.488 
L 92.428766 295.488 
L 93.237289 295.488 
L 94.045813 295.488 
L 94.854336 295.488 
L 95.66286 295.488 
L 96.471383 295.488 
L 97.279906 295.488 
L 98.08843 295.488 
L 98.896953 295.488 
L 99.705477 295.488 
L 100.514 295.488 
L 101.322524 295.488 
L 102.131047 295.488 
L 102.93957 295.488 
L 103.748094 295.488 
L 104.556617 295.488 
L 105.365141 295.488 
L 106.173664 295.488 
L 106.982187 295.488 
L 107.790711 295.488 
L 108.599234 295.488 
L 109.407758 295.488 
L 110.216281 295.488 
L 111.024805 295.488 
L 111.833328 295.488 
L 112.641851 295.488 
L 113.450375 295.488 
L 114.258898 295.488 
L 115.067422 295.488 
L 115.875945 295.488 
L 116.684468 295.488 
L 117.492992 295.488 
L 118.301515 295.488 
L 119.110039 295.488 
L 119.918562 295.488 
L 120.727086 295.488 
L 121.535609 295.488 
L 122.344132 295.488 
L 123.152656 295.488 
L 123.961179 295.488 
L 124.769703 295.488 
L 125.578226 295.488 
L 126.38675 295.488 
L 127.195273 295.488 
L 128.003796 295.488 
L 128.81232 295.488 
L 129.620843 295.488 
L 130.429367 295.488 
L 131.23789 295.488 
L 132.046413 295.488 
L 132.854937 295.488 
L 133.66346 295.488 
L 134.471984 295.488 
L 135.280507 295.488 
L 136.089031 295.488 
L 136.897554 295.488 
L 137.706077 295.488 
L 138.514601 295.488 
L 139.323124 295.488 
L 140.131648 295.488 
L 140.940171 295.488 
L 141.748694 295.488 
L 142.557218 295.488 
L 143.365741 295.488 
L 144.174265 295.488 
L 144.982788 295.488 
L 145.791312 295.488 
L 146.599835 295.488 
L 147.408358 295.488 
L 148.216882 295.488 
L 149.025405 295.488 
L 149.833929 295.488 
L 150.642452 295.488 
L 151.450975 295.488 
L 152.259499 295.488 
L 153.068022 295.488 
L 153.876546 295.488 
L 154.685069 295.488 
L 155.493593 295.488 
L 156.302116 295.488 
L 157.110639 295.488 
L 157.919163 295.488 
L 158.727686 295.488 
L 159.53621 295.488 
L 160.344733 295.488 
L 161.153257 295.488 
L 161.96178 295.488 
L 162.770303 295.488 
L 163.578827 295.488 
L 164.38735 295.488 
L 165.195874 295.488 
L 166.004397 295.488 
L 166.81292 295.488 
L 167.621444 295.488 
L 168.429967 295.488 
L 169.238491 295.488 
L 170.047014 295.488 
L 170.855538 295.488 
L 171.664061 295.488 
L 172.472584 295.488 
L 173.281108 295.488 
L 174.089631 295.488 
L 174.898155 295.488 
L 175.706678 295.488 
L 176.515201 295.488 
L 177.323725 295.488 
L 178.132248 295.488 
L 178.940772 295.488 
L 179.749295 295.488 
L 180.557819 295.488 
L 181.366342 295.488 
L 182.174865 295.488 
L 182.983389 295.488 
L 183.791912 295.488 
L 184.600436 295.488 
L 185.408959 295.488 
L 186.217483 295.488 
L 187.026006 295.488 
L 187.834529 295.488 
L 188.643053 295.488 
L 189.451576 295.488 
L 190.2601 295.488 
L 191.068623 295.488 
L 191.877146 295.488 
L 192.68567 295.488 
L 193.494193 295.488 
L 194.302717 295.488 
L 195.11124 295.488 
L 195.919764 295.488 
L 196.728287 295.488 
L 197.53681 295.488 
L 198.345334 295.488 
L 199.153857 295.488 
L 199.962381 295.488 
L 200.770904 295.488 
L 201.579427 295.488 
L 202.387951 295.488 
L 203.196474 295.488 
L 204.004998 295.488 
L 204.813521 295.488 
L 205.622045 295.488 
L 206.430568 295.488 
L 207.239091 295.488 
L 208.047615 295.488 
L 208.856138 295.488 
L 209.664662 295.488 
L 210.473185 295.488 
L 211.281709 295.488 
L 212.090232 295.488 
L 212.898755 295.488 
L 213.707279 295.488 
L 214.515802 295.488 
L 215.324326 295.488 
L 216.132849 295.488 
L 216.941372 295.488 
L 217.749896 295.488 
L 218.558419 295.488 
L 219.366943 295.488 
L 220.175466 295.488 
L 220.98399 295.488 
L 221.792513 295.488 
L 222.601036 295.488 
L 223.40956 295.488 
L 224.218083 295.488 
L 225.026607 295.488 
L 225.83513 295.488 
L 226.643653 295.488 
L 227.452177 295.488 
L 228.2607 295.488 
L 229.069224 295.488 
L 229.877747 295.488 
L 230.686271 295.488 
L 231.494794 295.488 
L 232.303317 295.488 
L 233.111841 295.488 
L 233.920364 295.488 
L 234.728888 295.488 
L 235.537411 295.488 
L 236.345934 295.488 
L 237.154458 295.488 
L 237.962981 295.488 
L 238.771505 295.488 
L 239.580028 295.488 
L 240.388552 295.488 
L 241.197075 295.488 
L 242.005598 295.488 
L 242.814122 295.488 
L 243.622645 295.488 
L 244.431169 295.488 
L 245.239692 295.488 
L 246.048216 295.488 
L 246.856739 295.488 
L 247.665262 295.488 
L 248.473786 295.488 
L 249.282309 295.488 
L 250.090833 295.488 
L 250.899356 295.488 
L 251.707879 295.488 
L 252.516403 295.488 
L 253.324926 295.488 
L 254.13345 295.488 
L 254.941973 295.488 
L 255.750497 295.488 
L 256.55902 295.488 
L 257.367543 295.488 
L 258.176067 295.488 
L 258.98459 295.488 
L 259.793114 295.488 
L 260.601637 295.488 
L 261.41016 295.488 
L 262.218684 295.488 
L 263.027207 295.488 
L 263.835731 295.488 
L 264.644254 295.488 
L 265.452778 295.488 
L 266.261301 295.488 
L 267.069824 295.488 
L 267.878348 295.488 
L 268.686871 295.488 
L 269.495395 295.488 
L 270.303918 295.488 
L 271.112442 295.488 
L 271.920965 295.488 
L 272.729488 295.488 
L 273.538012 295.488 
L 274.346535 295.488 
L 275.155059 295.488 
L 275.963582 295.488 
L 276.772105 295.488 
L 277.580629 295.488 
L 278.389152 295.488 
L 279.197676 295.488 
L 280.006199 295.488 
L 280.814723 295.488 
L 281.623246 295.488 
L 282.431769 295.488 
L 283.240293 295.488 
L 284.048816 295.488 
L 284.85734 295.488 
L 285.665863 295.488 
L 286.474386 295.488 
L 287.28291 295.488 
L 288.091433 295.488 
L 288.899957 295.488 
L 289.70848 295.488 
L 290.517004 295.488 
L 291.325527 295.488 
L 292.13405 295.488 
L 292.942574 295.488 
L 293.751097 295.488 
L 294.559621 295.488 
L 295.368144 295.488 
L 296.176667 295.488 
L 296.985191 295.488 
L 297.793714 295.488 
L 298.602238 295.488 
L 299.410761 295.488 
L 300.219285 295.488 
L 301.027808 295.488 
L 301.836331 295.488 
L 302.644855 295.488 
L 303.453378 295.488 
L 304.261902 295.488 
L 305.070425 295.488 
L 305.878949 295.488 
L 306.687472 295.488 
L 307.495995 295.488 
L 308.304519 295.488 
L 309.113042 295.488 
L 309.921566 295.488 
L 310.730089 295.488 
L 311.538612 295.488 
L 312.347136 295.488 
L 313.155659 295.488 
L 313.964183 295.488 
L 314.772706 295.488 
L 315.58123 295.488 
L 316.389753 295.488 
L 317.198276 295.488 
L 318.0068 295.488 
L 318.0068 295.142373 
L 318.0068 295.142373 
L 317.198276 295.129657 
L 316.389753 295.129507 
L 315.58123 295.141934 
L 314.772706 295.165639 
L 313.964183 295.198235 
L 313.155659 295.236645 
L 312.347136 295.277573 
L 311.538612 295.317965 
L 310.730089 295.355358 
L 309.921566 295.388077 
L 309.113042 295.415271 
L 308.304519 295.436811 
L 307.495995 295.45311 
L 306.687472 295.46491 
L 305.878949 295.473092 
L 305.070425 295.478526 
L 304.261902 295.481975 
L 303.453378 295.484056 
L 302.644855 295.485233 
L 301.836331 295.485837 
L 301.027808 295.486091 
L 300.219285 295.486144 
L 299.410761 295.486095 
L 298.602238 295.486006 
L 297.793714 295.485919 
L 296.985191 295.485857 
L 296.176667 295.485831 
L 295.368144 295.485841 
L 294.559621 295.485878 
L 293.751097 295.485928 
L 292.942574 295.485974 
L 292.13405 295.486002 
L 291.325527 295.486003 
L 290.517004 295.485976 
L 289.70848 295.485925 
L 288.899957 295.485864 
L 288.091433 295.485807 
L 287.28291 295.485768 
L 286.474386 295.485757 
L 285.665863 295.485776 
L 284.85734 295.48582 
L 284.048816 295.485876 
L 283.240293 295.485928 
L 282.431769 295.485954 
L 281.623246 295.485934 
L 280.814723 295.485847 
L 280.006199 295.485668 
L 279.197676 295.485366 
L 278.389152 295.484898 
L 277.580629 295.484197 
L 276.772105 295.483176 
L 275.963582 295.481726 
L 275.155059 295.479721 
L 274.346535 295.477044 
L 273.538012 295.473609 
L 272.729488 295.469392 
L 271.920965 295.464463 
L 271.112442 295.459009 
L 270.303918 295.453328 
L 269.495395 295.44782 
L 268.686871 295.442932 
L 267.878348 295.439102 
L 267.069824 295.436686 
L 266.261301 295.435897 
L 265.452778 295.436768 
L 264.644254 295.439139 
L 263.835731 295.442693 
L 263.027207 295.447006 
L 262.218684 295.451623 
L 261.41016 295.456131 
L 260.601637 295.460215 
L 259.793114 295.463693 
L 258.98459 295.466516 
L 258.176067 295.468748 
L 257.367543 295.470527 
L 256.55902 295.472017 
L 255.750497 295.473371 
L 254.941973 295.474698 
L 254.13345 295.476054 
L 253.324926 295.477443 
L 252.516403 295.47883 
L 251.707879 295.480157 
L 250.899356 295.481368 
L 250.090833 295.48242 
L 249.282309 295.483291 
L 248.473786 295.483983 
L 247.665262 295.484514 
L 246.856739 295.484917 
L 246.048216 295.485222 
L 245.239692 295.485458 
L 244.431169 295.485645 
L 243.622645 295.48579 
L 242.814122 295.485898 
L 242.005598 295.485965 
L 241.197075 295.485991 
L 240.388552 295.485979 
L 239.580028 295.485934 
L 238.771505 295.48587 
L 237.962981 295.485799 
L 237.154458 295.485737 
L 236.345934 295.48569 
L 235.537411 295.485662 
L 234.728888 295.485648 
L 233.920364 295.485634 
L 233.111841 295.485605 
L 232.303317 295.485545 
L 231.494794 295.485443 
L 230.686271 295.485293 
L 229.877747 295.4851 
L 229.069224 295.484873 
L 228.2607 295.484624 
L 227.452177 295.484363 
L 226.643653 295.484091 
L 225.83513 295.483795 
L 225.026607 295.483451 
L 224.218083 295.483023 
L 223.40956 295.482473 
L 222.601036 295.481768 
L 221.792513 295.480897 
L 220.98399 295.479874 
L 220.175466 295.478746 
L 219.366943 295.477591 
L 218.558419 295.47651 
L 217.749896 295.475608 
L 216.941372 295.47498 
L 216.132849 295.474689 
L 215.324326 295.474755 
L 214.515802 295.475152 
L 213.707279 295.475809 
L 212.898755 295.476626 
L 212.090232 295.477493 
L 211.281709 295.478308 
L 210.473185 295.478992 
L 209.664662 295.4795 
L 208.856138 295.47982 
L 208.047615 295.479962 
L 207.239091 295.479948 
L 206.430568 295.479794 
L 205.622045 295.479497 
L 204.813521 295.479032 
L 204.004998 295.478351 
L 203.196474 295.4774 
L 202.387951 295.476136 
L 201.579427 295.474548 
L 200.770904 295.472675 
L 199.962381 295.470616 
L 199.153857 295.468526 
L 198.345334 295.466599 
L 197.53681 295.465041 
L 196.728287 295.464034 
L 195.919764 295.463703 
L 195.11124 295.464096 
L 194.302717 295.465171 
L 193.494193 295.466807 
L 192.68567 295.468826 
L 191.877146 295.471025 
L 191.068623 295.473209 
L 190.2601 295.475224 
L 189.451576 295.476967 
L 188.643053 295.478399 
L 187.834529 295.479534 
L 187.026006 295.480422 
L 186.217483 295.481133 
L 185.408959 295.481733 
L 184.600436 295.482277 
L 183.791912 295.482794 
L 182.983389 295.483294 
L 182.174865 295.483769 
L 181.366342 295.484201 
L 180.557819 295.484574 
L 179.749295 295.484874 
L 178.940772 295.485101 
L 178.132248 295.48526 
L 177.323725 295.485367 
L 176.515201 295.485437 
L 175.706678 295.485482 
L 174.898155 295.485511 
L 174.089631 295.48552 
L 173.281108 295.485502 
L 172.472584 295.485445 
L 171.664061 295.485337 
L 170.855538 295.485168 
L 170.047014 295.484936 
L 169.238491 295.484645 
L 168.429967 295.484298 
L 167.621444 295.483897 
L 166.81292 295.483434 
L 166.004397 295.482883 
L 165.195874 295.4822 
L 164.38735 295.481324 
L 163.578827 295.480187 
L 162.770303 295.478726 
L 161.96178 295.476909 
L 161.153257 295.474743 
L 160.344733 295.472296 
L 159.53621 295.469698 
L 158.727686 295.467131 
L 157.919163 295.464808 
L 157.110639 295.462938 
L 156.302116 295.461692 
L 155.493593 295.46117 
L 154.685069 295.461377 
L 153.876546 295.462225 
L 153.068022 295.463545 
L 152.259499 295.465115 
L 151.450975 295.466703 
L 150.642452 295.468104 
L 149.833929 295.46916 
L 149.025405 295.469775 
L 148.216882 295.469899 
L 147.408358 295.469507 
L 146.599835 295.468561 
L 145.791312 295.466975 
L 144.982788 295.464603 
L 144.174265 295.461238 
L 143.365741 295.45665 
L 142.557218 295.450639 
L 141.748694 295.443114 
L 140.940171 295.434164 
L 140.131648 295.424113 
L 139.323124 295.41353 
L 138.514601 295.403195 
L 137.706077 295.394002 
L 136.897554 295.386829 
L 136.089031 295.382393 
L 135.280507 295.38112 
L 134.471984 295.383062 
L 133.66346 295.38789 
L 132.854937 295.39495 
L 132.046413 295.403386 
L 131.23789 295.412292 
L 130.429367 295.420859 
L 129.620843 295.428497 
L 128.81232 295.434896 
L 128.003796 295.440022 
L 127.195273 295.444071 
L 126.38675 295.447371 
L 125.578226 295.450284 
L 124.769703 295.453106 
L 123.961179 295.455987 
L 123.152656 295.458869 
L 122.344132 295.461426 
L 121.535609 295.462987 
L 120.727086 295.462397 
L 119.918562 295.457801 
L 119.110039 295.446318 
L 118.301515 295.423615 
L 117.492992 295.383434 
L 116.684468 295.317183 
L 115.875945 295.213755 
L 115.067422 295.059822 
L 114.258898 294.840813 
L 113.450375 294.542734 
L 112.641851 294.154815 
L 111.833328 293.672693 
L 111.024805 293.101532 
L 110.216281 292.458241 
L 109.407758 291.771871 
L 108.599234 291.081457 
L 107.790711 290.431087 
L 106.982187 289.862666 
L 106.173664 289.407651 
L 105.365141 289.079531 
L 104.556617 288.869 
L 103.748094 288.743254 
L 102.93957 288.64988 
L 102.131047 288.524394 
L 101.322524 288.299153 
L 100.514 287.910355 
L 99.705477 287.299599 
L 98.896953 286.407267 
L 98.08843 285.156831 
L 97.279906 283.431949 
L 96.471383 281.051501 
L 95.66286 277.750744 
L 94.854336 273.178635 
L 94.045813 266.920981 
L 93.237289 258.555612 
L 92.428766 247.738976 
L 91.620242 234.314192 
L 90.811719 218.420754 
L 90.003196 200.578711 
L 89.194672 181.718659 
L 88.386149 163.135614 
L 87.577625 146.359793 
L 86.769102 132.95783 
L 85.960579 124.298254 
L 85.152055 121.328806 
L 84.343532 124.414869 
L 83.535008 133.276357 
L 82.726485 147.037548 
L 81.917961 164.377277 
L 81.109438 183.743778 
L 80.300915 203.586037 
L 79.492391 222.554636 
L 78.683868 239.638109 
L 77.875344 254.22047 
L 77.066821 266.065352 
L 76.258298 275.246612 
L 75.449774 282.051601 
L 74.641251 286.881852 
L 73.832727 290.169153 
z
" clip-path="url(#pe77fcd1557)" style="fill: #d62728; fill-opacity: 0.25"/>
   </g>
   <g id="matplotlib.axis_1">
    <g id="xtick_1">
     <g id="line2d_1">
      <path d="M 73.832727 307.584 
L 73.832727 41.472 
" clip-path="url(#pe77fcd1557)" style="fill: none; stroke-dasharray: 1.85,0.8; stroke-dashoffset: 0; stroke: #b0b0b0; stroke-width: 0.5"/>
     </g>
     <g id="line2d_2">
      <defs>
       <path id="m723a0d5b02" d="M 0 0 
L 0 3.5 
" style="stroke: #000000; stroke-width: 0.8"/>
      </defs>
      <g>
       <use xlink:href="#m723a0d5b02" x="73.832727" y="307.584" style="stroke: #000000; stroke-width: 0.8"/>
      </g>
     </g>
     <g id="text_1">
      <!-- 0.0000 -->
      <g transform="translate(56.337415 322.182437) scale(0.1 -0.1)">
       <defs>
        <path id="DejaVuSans-30" d="M 2034 4250 
Q 1547 4250 1301 3770 
Q 1056 3291 1056 2328 
Q 1056 1369 1301 889 
Q 1547 409 2034 409 
Q 2525 409 2770 889 
Q 3016 1369 3016 2328 
Q 3016 3291 2770 3770 
Q 2525 4250 2034 4250 
z
M 2034 4750 
Q 2819 4750 3233 4129 
Q 3647 3509 3647 2328 
Q 3647 1150 3233 529 
Q 2819 -91 2034 -91 
Q 1250 -91 836 529 
Q 422 1150 422 2328 
Q 422 3509 836 4129 
Q 1250 4750 2034 4750 
z
" transform="scale(0.015625)"/>
        <path id="DejaVuSans-2e" d="M 684 794 
L 1344 794 
L 1344 0 
L 684 0 
L 684 794 
z
" transform="scale(0.015625)"/>
       </defs>
       <use xlink:href="#DejaVuSans-30"/>
       <use xlink:href="#DejaVuSans-2e" x="63.623047"/>
       <use xlink:href="#DejaVuSans-30" x="95.410156"/>
       <use xlink:href="#DejaVuSans-30" x="159.033203"/>
       <use xlink:href="#DejaVuSans-30" x="222.65625"/>
       <use xlink:href="#DejaVuSans-30" x="286.279297"/>
      </g>
     </g>
    </g>
    <g id="xtick_2">
     <g id="line2d_3">
      <path d="M 116.942648 307.584 
L 116.942648 41.472 
" clip-path="url(#pe77fcd1557)" style="fill: none; stroke-dasharray: 1.85,0.8; stroke-dashoffset: 0; stroke: #b0b0b0; stroke-width: 0.5"/>
     </g>
     <g id="line2d_4">
      <g>
       <use xlink:href="#m723a0d5b02" x="116.942648" y="307.584" style="stroke: #000000; stroke-width: 0.8"/>
      </g>
     </g>
     <g id="text_2">
      <!-- 0.0025 -->
      <g transform="translate(99.447335 322.182437) scale(0.1 -0.1)">
       <defs>
        <path id="DejaVuSans-32" d="M 1228 531 
L 3431 531 
L 3431 0 
L 469 0 
L 469 531 
Q 828 903 1448 1529 
Q 2069 2156 2228 2338 
Q 2531 2678 2651 2914 
Q 2772 3150 2772 3378 
Q 2772 3750 2511 3984 
Q 2250 4219 1831 4219 
Q 1534 4219 1204 4116 
Q 875 4013 500 3803 
L 500 4441 
Q 881 4594 1212 4672 
Q 1544 4750 1819 4750 
Q 2544 4750 2975 4387 
Q 3406 4025 3406 3419 
Q 3406 3131 3298 2873 
Q 3191 2616 2906 2266 
Q 2828 2175 2409 1742 
Q 1991 1309 1228 531 
z
" transform="scale(0.015625)"/>
        <path id="DejaVuSans-35" d="M 691 4666 
L 3169 4666 
L 3169 4134 
L 1269 4134 
L 1269 2991 
Q 1406 3038 1543 3061 
Q 1681 3084 1819 3084 
Q 2600 3084 3056 2656 
Q 3513 2228 3513 1497 
Q 3513 744 3044 326 
Q 2575 -91 1722 -91 
Q 1428 -91 1123 -41 
Q 819 9 494 109 
L 494 744 
Q 775 591 1075 516 
Q 1375 441 1709 441 
Q 2250 441 2565 725 
Q 2881 1009 2881 1497 
Q 2881 1984 2565 2268 
Q 2250 2553 1709 2553 
Q 1456 2553 1204 2497 
Q 953 2441 691 2322 
L 691 4666 
z
" transform="scale(0.015625)"/>
       </defs>
       <use xlink:href="#DejaVuSans-30"/>
       <use xlink:href="#DejaVuSans-2e" x="63.623047"/>
       <use xlink:href="#DejaVuSans-30" x="95.410156"/>
       <use xlink:href="#DejaVuSans-30" x="159.033203"/>
       <use xlink:href="#DejaVuSans-32" x="222.65625"/>
       <use xlink:href="#DejaVuSans-35" x="286.279297"/>
      </g>
     </g>
    </g>
    <g id="xtick_3">
     <g id="line2d_5">
      <path d="M 160.052568 307.584 
L 160.052568 41.472 
" clip-path="url(#pe77fcd1557)" style="fill: none; stroke-dasharray: 1.85,0.8; stroke-dashoffset: 0; stroke: #b0b0b0; stroke-width: 0.5"/>
     </g>
     <g id="line2d_6">
      <g>
       <use xlink:href="#m723a0d5b02" x="160.052568" y="307.584" style="stroke: #000000; stroke-width: 0.8"/>
      </g>
     </g>
     <g id="text_3">
      <!-- 0.0050 -->
      <g transform="translate(142.557256 322.182437) scale(0.1 -0.1)">
       <use xlink:href="#DejaVuSans-30"/>
       <use xlink:href="#DejaVuSans-2e" x="63.623047"/>
       <use xlink:href="#DejaVuSans-30" x="95.410156"/>
       <use xlink:href="#DejaVuSans-30" x="159.033203"/>
       <use xlink:href="#DejaVuSans-35" x="222.65625"/>
       <use xlink:href="#DejaVuSans-30" x="286.279297"/>
      </g>
     </g>
    </g>
    <g id="xtick_4">
     <g id="line2d_7">
      <path d="M 203.162489 307.584 
L 203.162489 41.472 
" clip-path="url(#pe77fcd1557)" style="fill: none; stroke-dasharray: 1.85,0.8; stroke-dashoffset: 0; stroke: #b0b0b0; stroke-width: 0.5"/>
     </g>
     <g id="line2d_8">
      <g>
       <use xlink:href="#m723a0d5b02" x="203.162489" y="307.584" style="stroke: #000000; stroke-width: 0.8"/>
      </g>
     </g>
     <g id="text_4">
      <!-- 0.0075 -->
      <g transform="translate(185.667176 322.182437) scale(0.1 -0.1)">
       <defs>
        <path id="DejaVuSans-37" d="M 525 4666 
L 3525 4666 
L 3525 4397 
L 1831 0 
L 1172 0 
L 2766 4134 
L 525 4134 
L 525 4666 
z
" transform="scale(0.015625)"/>
       </defs>
       <use xlink:href="#DejaVuSans-30"/>
       <use xlink:href="#DejaVuSans-2e" x="63.623047"/>
       <use xlink:href="#DejaVuSans-30" x="95.410156"/>
       <use xlink:href="#DejaVuSans-30" x="159.033203"/>
       <use xlink:href="#DejaVuSans-37" x="222.65625"/>
       <use xlink:href="#DejaVuSans-35" x="286.279297"/>
      </g>
     </g>
    </g>
    <g id="xtick_5">
     <g id="line2d_9">
      <path d="M 246.27241 307.584 
L 246.27241 41.472 
" clip-path="url(#pe77fcd1557)" style="fill: none; stroke-dasharray: 1.85,0.8; stroke-dashoffset: 0; stroke: #b0b0b0; stroke-width: 0.5"/>
     </g>
     <g id="line2d_10">
      <g>
       <use xlink:href="#m723a0d5b02" x="246.27241" y="307.584" style="stroke: #000000; stroke-width: 0.8"/>
      </g>
     </g>
     <g id="text_5">
      <!-- 0.0100 -->
      <g transform="translate(228.777097 322.182437) scale(0.1 -0.1)">
       <defs>
        <path id="DejaVuSans-31" d="M 794 531 
L 1825 531 
L 1825 4091 
L 703 3866 
L 703 4441 
L 1819 4666 
L 2450 4666 
L 2450 531 
L 3481 531 
L 3481 0 
L 794 0 
L 794 531 
z
" transform="scale(0.015625)"/>
       </defs>
       <use xlink:href="#DejaVuSans-30"/>
       <use xlink:href="#DejaVuSans-2e" x="63.623047"/>
       <use xlink:href="#DejaVuSans-30" x="95.410156"/>
       <use xlink:href="#DejaVuSans-31" x="159.033203"/>
       <use xlink:href="#DejaVuSans-30" x="222.65625"/>
       <use xlink:href="#DejaVuSans-30" x="286.279297"/>
      </g>
     </g>
    </g>
    <g id="xtick_6">
     <g id="line2d_11">
      <path d="M 289.38233 307.584 
L 289.38233 41.472 
" clip-path="url(#pe77fcd1557)" style="fill: none; stroke-dasharray: 1.85,0.8; stroke-dashoffset: 0; stroke: #b0b0b0; stroke-width: 0.5"/>
     </g>
     <g id="line2d_12">
      <g>
       <use xlink:href="#m723a0d5b02" x="289.38233" y="307.584" style="stroke: #000000; stroke-width: 0.8"/>
      </g>
     </g>
     <g id="text_6">
      <!-- 0.0125 -->
      <g transform="translate(271.887018 322.182437) scale(0.1 -0.1)">
       <use xlink:href="#DejaVuSans-30"/>
       <use xlink:href="#DejaVuSans-2e" x="63.623047"/>
       <use xlink:href="#DejaVuSans-30" x="95.410156"/>
       <use xlink:href="#DejaVuSans-31" x="159.033203"/>
       <use xlink:href="#DejaVuSans-32" x="222.65625"/>
       <use xlink:href="#DejaVuSans-35" x="286.279297"/>
      </g>
     </g>
    </g>
    <g id="xtick_7">
     <g id="line2d_13">
      <path d="M 332.492251 307.584 
L 332.492251 41.472 
" clip-path="url(#pe77fcd1557)" style="fill: none; stroke-dasharray: 1.85,0.8; stroke-dashoffset: 0; stroke: #b0b0b0; stroke-width: 0.5"/>
     </g>
     <g id="line2d_14">
      <g>
       <use xlink:href="#m723a0d5b02" x="332.492251" y="307.584" style="stroke: #000000; stroke-width: 0.8"/>
      </g>
     </g>
     <g id="text_7">
      <!-- 0.0150 -->
      <g transform="translate(314.996938 322.182437) scale(0.1 -0.1)">
       <use xlink:href="#DejaVuSans-30"/>
       <use xlink:href="#DejaVuSans-2e" x="63.623047"/>
       <use xlink:href="#DejaVuSans-30" x="95.410156"/>
       <use xlink:href="#DejaVuSans-31" x="159.033203"/>
       <use xlink:href="#DejaVuSans-35" x="222.65625"/>
       <use xlink:href="#DejaVuSans-30" x="286.279297"/>
      </g>
     </g>
    </g>
    <g id="xtick_8">
     <g id="line2d_15">
      <path d="M 375.602171 307.584 
L 375.602171 41.472 
" clip-path="url(#pe77fcd1557)" style="fill: none; stroke-dasharray: 1.85,0.8; stroke-dashoffset: 0; stroke: #b0b0b0; stroke-width: 0.5"/>
     </g>
     <g id="line2d_16">
      <g>
       <use xlink:href="#m723a0d5b02" x="375.602171" y="307.584" style="stroke: #000000; stroke-width: 0.8"/>
      </g>
     </g>
     <g id="text_8">
      <!-- 0.0175 -->
      <g transform="translate(358.106859 322.182437) scale(0.1 -0.1)">
       <use xlink:href="#DejaVuSans-30"/>
       <use xlink:href="#DejaVuSans-2e" x="63.623047"/>
       <use xlink:href="#DejaVuSans-30" x="95.410156"/>
       <use xlink:href="#DejaVuSans-31" x="159.033203"/>
       <use xlink:href="#DejaVuSans-37" x="222.65625"/>
       <use xlink:href="#DejaVuSans-35" x="286.279297"/>
      </g>
     </g>
    </g>
    <g id="text_9">
     <!-- Pixel values -->
     <g transform="translate(206.748281 335.860562) scale(0.1 -0.1)">
      <defs>
       <path id="DejaVuSans-50" d="M 1259 4147 
L 1259 2394 
L 2053 2394 
Q 2494 2394 2734 2622 
Q 2975 2850 2975 3272 
Q 2975 3691 2734 3919 
Q 2494 4147 2053 4147 
L 1259 4147 
z
M 628 4666 
L 2053 4666 
Q 2838 4666 3239 4311 
Q 3641 3956 3641 3272 
Q 3641 2581 3239 2228 
Q 2838 1875 2053 1875 
L 1259 1875 
L 1259 0 
L 628 0 
L 628 4666 
z
" transform="scale(0.015625)"/>
       <path id="DejaVuSans-69" d="M 603 3500 
L 1178 3500 
L 1178 0 
L 603 0 
L 603 3500 
z
M 603 4863 
L 1178 4863 
L 1178 4134 
L 603 4134 
L 603 4863 
z
" transform="scale(0.015625)"/>
       <path id="DejaVuSans-78" d="M 3513 3500 
L 2247 1797 
L 3578 0 
L 2900 0 
L 1881 1375 
L 863 0 
L 184 0 
L 1544 1831 
L 300 3500 
L 978 3500 
L 1906 2253 
L 2834 3500 
L 3513 3500 
z
" transform="scale(0.015625)"/>
       <path id="DejaVuSans-65" d="M 3597 1894 
L 3597 1613 
L 953 1613 
Q 991 1019 1311 708 
Q 1631 397 2203 397 
Q 2534 397 2845 478 
Q 3156 559 3463 722 
L 3463 178 
Q 3153 47 2828 -22 
Q 2503 -91 2169 -91 
Q 1331 -91 842 396 
Q 353 884 353 1716 
Q 353 2575 817 3079 
Q 1281 3584 2069 3584 
Q 2775 3584 3186 3129 
Q 3597 2675 3597 1894 
z
M 3022 2063 
Q 3016 2534 2758 2815 
Q 2500 3097 2075 3097 
Q 1594 3097 1305 2825 
Q 1016 2553 972 2059 
L 3022 2063 
z
" transform="scale(0.015625)"/>
       <path id="DejaVuSans-6c" d="M 603 4863 
L 1178 4863 
L 1178 0 
L 603 0 
L 603 4863 
z
" transform="scale(0.015625)"/>
       <path id="DejaVuSans-20" transform="scale(0.015625)"/>
       <path id="DejaVuSans-76" d="M 191 3500 
L 800 3500 
L 1894 563 
L 2988 3500 
L 3597 3500 
L 2284 0 
L 1503 0 
L 191 3500 
z
" transform="scale(0.015625)"/>
       <path id="DejaVuSans-61" d="M 2194 1759 
Q 1497 1759 1228 1600 
Q 959 1441 959 1056 
Q 959 750 1161 570 
Q 1363 391 1709 391 
Q 2188 391 2477 730 
Q 2766 1069 2766 1631 
L 2766 1759 
L 2194 1759 
z
M 3341 1997 
L 3341 0 
L 2766 0 
L 2766 531 
Q 2569 213 2275 61 
Q 1981 -91 1556 -91 
Q 1019 -91 701 211 
Q 384 513 384 1019 
Q 384 1609 779 1909 
Q 1175 2209 1959 2209 
L 2766 2209 
L 2766 2266 
Q 2766 2663 2505 2880 
Q 2244 3097 1772 3097 
Q 1472 3097 1187 3025 
Q 903 2953 641 2809 
L 641 3341 
Q 956 3463 1253 3523 
Q 1550 3584 1831 3584 
Q 2591 3584 2966 3190 
Q 3341 2797 3341 1997 
z
" transform="scale(0.015625)"/>
       <path id="DejaVuSans-75" d="M 544 1381 
L 544 3500 
L 1119 3500 
L 1119 1403 
Q 1119 906 1312 657 
Q 1506 409 1894 409 
Q 2359 409 2629 706 
Q 2900 1003 2900 1516 
L 2900 3500 
L 3475 3500 
L 3475 0 
L 2900 0 
L 2900 538 
Q 2691 219 2414 64 
Q 2138 -91 1772 -91 
Q 1169 -91 856 284 
Q 544 659 544 1381 
z
M 1991 3584 
L 1991 3584 
z
" transform="scale(0.015625)"/>
       <path id="DejaVuSans-73" d="M 2834 3397 
L 2834 2853 
Q 2591 2978 2328 3040 
Q 2066 3103 1784 3103 
Q 1356 3103 1142 2972 
Q 928 2841 928 2578 
Q 928 2378 1081 2264 
Q 1234 2150 1697 2047 
L 1894 2003 
Q 2506 1872 2764 1633 
Q 3022 1394 3022 966 
Q 3022 478 2636 193 
Q 2250 -91 1575 -91 
Q 1294 -91 989 -36 
Q 684 19 347 128 
L 347 722 
Q 666 556 975 473 
Q 1284 391 1588 391 
Q 1994 391 2212 530 
Q 2431 669 2431 922 
Q 2431 1156 2273 1281 
Q 2116 1406 1581 1522 
L 1381 1569 
Q 847 1681 609 1914 
Q 372 2147 372 2553 
Q 372 3047 722 3315 
Q 1072 3584 1716 3584 
Q 2034 3584 2315 3537 
Q 2597 3491 2834 3397 
z
" transform="scale(0.015625)"/>
      </defs>
      <use xlink:href="#DejaVuSans-50"/>
      <use xlink:href="#DejaVuSans-69" x="58.052734"/>
      <use xlink:href="#DejaVuSans-78" x="85.835938"/>
      <use xlink:href="#DejaVuSans-65" x="141.890625"/>
      <use xlink:href="#DejaVuSans-6c" x="203.414062"/>
      <use xlink:href="#DejaVuSans-20" x="231.197266"/>
      <use xlink:href="#DejaVuSans-76" x="262.984375"/>
      <use xlink:href="#DejaVuSans-61" x="322.164062"/>
      <use xlink:href="#DejaVuSans-6c" x="383.443359"/>
      <use xlink:href="#DejaVuSans-75" x="411.226562"/>
      <use xlink:href="#DejaVuSans-65" x="474.605469"/>
      <use xlink:href="#DejaVuSans-73" x="536.128906"/>
     </g>
    </g>
   </g>
   <g id="matplotlib.axis_2">
    <g id="ytick_1">
     <g id="line2d_17">
      <path d="M 57.6 295.488 
L 414.72 295.488 
" clip-path="url(#pe77fcd1557)" style="fill: none; stroke-dasharray: 1.85,0.8; stroke-dashoffset: 0; stroke: #b0b0b0; stroke-width: 0.5"/>
     </g>
     <g id="line2d_18">
      <defs>
       <path id="meac4779dc9" d="M 0 0 
L -3.5 0 
" style="stroke: #000000; stroke-width: 0.8"/>
      </defs>
      <g>
       <use xlink:href="#meac4779dc9" x="57.6" y="295.488" style="stroke: #000000; stroke-width: 0.8"/>
      </g>
     </g>
     <g id="text_10">
      <!-- 0 -->
      <g transform="translate(44.2375 299.287219) scale(0.1 -0.1)">
       <use xlink:href="#DejaVuSans-30"/>
      </g>
     </g>
    </g>
    <g id="ytick_2">
     <g id="line2d_19">
      <path d="M 57.6 244.399228 
L 414.72 244.399228 
" clip-path="url(#pe77fcd1557)" style="fill: none; stroke-dasharray: 1.85,0.8; stroke-dashoffset: 0; stroke: #b0b0b0; stroke-width: 0.5"/>
     </g>
     <g id="line2d_20">
      <g>
       <use xlink:href="#meac4779dc9" x="57.6" y="244.399228" style="stroke: #000000; stroke-width: 0.8"/>
      </g>
     </g>
     <g id="text_11">
      <!-- 5 -->
      <g transform="translate(44.2375 248.198446) scale(0.1 -0.1)">
       <use xlink:href="#DejaVuSans-35"/>
      </g>
     </g>
    </g>
    <g id="ytick_3">
     <g id="line2d_21">
      <path d="M 57.6 193.310455 
L 414.72 193.310455 
" clip-path="url(#pe77fcd1557)" style="fill: none; stroke-dasharray: 1.85,0.8; stroke-dashoffset: 0; stroke: #b0b0b0; stroke-width: 0.5"/>
     </g>
     <g id="line2d_22">
      <g>
       <use xlink:href="#meac4779dc9" x="57.6" y="193.310455" style="stroke: #000000; stroke-width: 0.8"/>
      </g>
     </g>
     <g id="text_12">
      <!-- 10 -->
      <g transform="translate(37.875 197.109674) scale(0.1 -0.1)">
       <use xlink:href="#DejaVuSans-31"/>
       <use xlink:href="#DejaVuSans-30" x="63.623047"/>
      </g>
     </g>
    </g>
    <g id="ytick_4">
     <g id="line2d_23">
      <path d="M 57.6 142.221683 
L 414.72 142.221683 
" clip-path="url(#pe77fcd1557)" style="fill: none; stroke-dasharray: 1.85,0.8; stroke-dashoffset: 0; stroke: #b0b0b0; stroke-width: 0.5"/>
     </g>
     <g id="line2d_24">
      <g>
       <use xlink:href="#meac4779dc9" x="57.6" y="142.221683" style="stroke: #000000; stroke-width: 0.8"/>
      </g>
     </g>
     <g id="text_13">
      <!-- 15 -->
      <g transform="translate(37.875 146.020901) scale(0.1 -0.1)">
       <use xlink:href="#DejaVuSans-31"/>
       <use xlink:href="#DejaVuSans-35" x="63.623047"/>
      </g>
     </g>
    </g>
    <g id="ytick_5">
     <g id="line2d_25">
      <path d="M 57.6 91.13291 
L 414.72 91.13291 
" clip-path="url(#pe77fcd1557)" style="fill: none; stroke-dasharray: 1.85,0.8; stroke-dashoffset: 0; stroke: #b0b0b0; stroke-width: 0.5"/>
     </g>
     <g id="line2d_26">
      <g>
       <use xlink:href="#meac4779dc9" x="57.6" y="91.13291" style="stroke: #000000; stroke-width: 0.8"/>
      </g>
     </g>
     <g id="text_14">
      <!-- 20 -->
      <g transform="translate(37.875 94.932129) scale(0.1 -0.1)">
       <use xlink:href="#DejaVuSans-32"/>
       <use xlink:href="#DejaVuSans-30" x="63.623047"/>
      </g>
     </g>
    </g>
    <g id="text_15">
     <!-- Frequency -->
     <g transform="translate(31.795312 200.357687) rotate(-90) scale(0.1 -0.1)">
      <defs>
       <path id="DejaVuSans-46" d="M 628 4666 
L 3309 4666 
L 3309 4134 
L 1259 4134 
L 1259 2759 
L 3109 2759 
L 3109 2228 
L 1259 2228 
L 1259 0 
L 628 0 
L 628 4666 
z
" transform="scale(0.015625)"/>
       <path id="DejaVuSans-72" d="M 2631 2963 
Q 2534 3019 2420 3045 
Q 2306 3072 2169 3072 
Q 1681 3072 1420 2755 
Q 1159 2438 1159 1844 
L 1159 0 
L 581 0 
L 581 3500 
L 1159 3500 
L 1159 2956 
Q 1341 3275 1631 3429 
Q 1922 3584 2338 3584 
Q 2397 3584 2469 3576 
Q 2541 3569 2628 3553 
L 2631 2963 
z
" transform="scale(0.015625)"/>
       <path id="DejaVuSans-71" d="M 947 1747 
Q 947 1113 1208 752 
Q 1469 391 1925 391 
Q 2381 391 2643 752 
Q 2906 1113 2906 1747 
Q 2906 2381 2643 2742 
Q 2381 3103 1925 3103 
Q 1469 3103 1208 2742 
Q 947 2381 947 1747 
z
M 2906 525 
Q 2725 213 2448 61 
Q 2172 -91 1784 -91 
Q 1150 -91 751 415 
Q 353 922 353 1747 
Q 353 2572 751 3078 
Q 1150 3584 1784 3584 
Q 2172 3584 2448 3432 
Q 2725 3281 2906 2969 
L 2906 3500 
L 3481 3500 
L 3481 -1331 
L 2906 -1331 
L 2906 525 
z
" transform="scale(0.015625)"/>
       <path id="DejaVuSans-6e" d="M 3513 2113 
L 3513 0 
L 2938 0 
L 2938 2094 
Q 2938 2591 2744 2837 
Q 2550 3084 2163 3084 
Q 1697 3084 1428 2787 
Q 1159 2491 1159 1978 
L 1159 0 
L 581 0 
L 581 3500 
L 1159 3500 
L 1159 2956 
Q 1366 3272 1645 3428 
Q 1925 3584 2291 3584 
Q 2894 3584 3203 3211 
Q 3513 2838 3513 2113 
z
" transform="scale(0.015625)"/>
       <path id="DejaVuSans-63" d="M 3122 3366 
L 3122 2828 
Q 2878 2963 2633 3030 
Q 2388 3097 2138 3097 
Q 1578 3097 1268 2742 
Q 959 2388 959 1747 
Q 959 1106 1268 751 
Q 1578 397 2138 397 
Q 2388 397 2633 464 
Q 2878 531 3122 666 
L 3122 134 
Q 2881 22 2623 -34 
Q 2366 -91 2075 -91 
Q 1284 -91 818 406 
Q 353 903 353 1747 
Q 353 2603 823 3093 
Q 1294 3584 2113 3584 
Q 2378 3584 2631 3529 
Q 2884 3475 3122 3366 
z
" transform="scale(0.015625)"/>
       <path id="DejaVuSans-79" d="M 2059 -325 
Q 1816 -950 1584 -1140 
Q 1353 -1331 966 -1331 
L 506 -1331 
L 506 -850 
L 844 -850 
Q 1081 -850 1212 -737 
Q 1344 -625 1503 -206 
L 1606 56 
L 191 3500 
L 800 3500 
L 1894 763 
L 2988 3500 
L 3597 3500 
L 2059 -325 
z
" transform="scale(0.015625)"/>
      </defs>
      <use xlink:href="#DejaVuSans-46"/>
      <use xlink:href="#DejaVuSans-72" x="50.269531"/>
      <use xlink:href="#DejaVuSans-65" x="89.132812"/>
      <use xlink:href="#DejaVuSans-71" x="150.65625"/>
      <use xlink:href="#DejaVuSans-75" x="214.132812"/>
      <use xlink:href="#DejaVuSans-65" x="277.511719"/>
      <use xlink:href="#DejaVuSans-6e" x="339.035156"/>
      <use xlink:href="#DejaVuSans-63" x="402.414062"/>
      <use xlink:href="#DejaVuSans-79" x="457.394531"/>
     </g>
    </g>
   </g>
   <g id="line2d_27">
    <path d="M 73.832727 286.578643 
L 74.176598 286.250789 
L 74.520469 286.246387 
L 74.864339 286.564999 
L 75.552081 288.001407 
L 76.927563 291.731705 
L 77.271434 292.286519 
L 77.615305 292.498119 
L 77.959175 292.256922 
L 78.303046 291.432935 
L 78.646917 289.872074 
L 78.990787 287.401239 
L 79.334658 283.845224 
L 80.0224 272.952297 
L 80.710141 257.040859 
L 82.773365 204.051827 
L 83.804977 183.546583 
L 84.492718 162.820528 
L 85.18046 131.238141 
L 86.212072 75.922773 
L 86.555942 62.365224 
L 86.899813 54.478972 
L 87.243684 53.568 
L 87.587555 60.14115 
L 87.931425 73.824548 
L 88.619167 117.220496 
L 89.994649 215.194024 
L 90.682391 247.807871 
L 91.370132 266.758184 
L 91.714003 272.189369 
L 92.057873 275.608247 
L 92.401744 277.446032 
L 92.745615 278.036821 
L 93.089485 277.632992 
L 93.433356 276.439992 
L 94.121097 272.492139 
L 95.15271 266.240842 
L 95.49658 265.026988 
L 95.840451 264.503142 
L 96.184322 264.676619 
L 96.528192 265.446263 
L 98.247546 270.962674 
L 98.591416 271.289666 
L 99.623028 271.38303 
L 99.966899 271.686516 
L 100.31077 272.346903 
L 100.998511 274.781355 
L 102.717865 282.318167 
L 103.405606 283.916423 
L 105.124959 286.633064 
L 106.844313 290.077898 
L 107.532054 290.889496 
L 109.939149 292.892731 
L 111.314632 294.387433 
L 112.002373 294.904187 
L 112.690114 295.219078 
L 113.721726 295.423601 
L 115.78495 295.486521 
L 165.646199 295.483971 
L 171.14813 295.367964 
L 173.899096 295.309058 
L 177.681673 295.359639 
L 177.681673 295.359639 
" clip-path="url(#pe77fcd1557)" style="fill: none; stroke: #1f77b4; stroke-width: 1.5; stroke-linecap: square"/>
   </g>
   <g id="line2d_28">
    <path d="M 73.832727 291.590585 
L 74.907742 289.18182 
L 75.982757 285.642495 
L 77.057772 280.656278 
L 78.132787 273.929076 
L 79.207803 265.250596 
L 80.282818 254.567226 
L 81.357833 242.053089 
L 85.657893 186.803066 
L 86.732908 176.785401 
L 87.807923 170.394985 
L 88.882938 168.287773 
L 89.957953 170.685059 
L 91.032968 177.335175 
L 92.107983 187.556951 
L 93.182998 200.354554 
L 96.408043 242.901617 
L 97.483058 255.295991 
L 98.558073 265.832019 
L 99.633089 274.347667 
L 100.708104 280.902745 
L 101.783119 285.70718 
L 102.858134 289.048851 
L 103.933149 291.233881 
L 105.008164 292.545784 
L 106.083179 293.223968 
L 107.158194 293.458121 
L 108.233209 293.393115 
L 110.383239 292.781375 
L 112.533269 292.023309 
L 114.683299 291.545112 
L 115.758314 291.493362 
L 116.833329 291.581542 
L 118.983359 292.130617 
L 125.43345 294.582676 
L 127.58348 295.046623 
L 129.73351 295.297239 
L 132.958555 295.430968 
L 141.558675 295.412 
L 168.434052 295.461127 
L 295.285828 295.48413 
L 389.887152 295.440788 
L 398.487273 295.409263 
L 398.487273 295.409263 
" clip-path="url(#pe77fcd1557)" style="fill: none; stroke: #ff7f0e; stroke-width: 1.5; stroke-linecap: square"/>
   </g>
   <g id="line2d_29">
    <path d="M 73.832727 286.849034 
L 74.281581 286.530236 
L 74.730435 286.52379 
L 75.179288 286.827721 
L 75.628142 287.404829 
L 77.87241 291.153419 
L 78.321264 291.116013 
L 78.770117 290.349349 
L 79.218971 288.537695 
L 79.667825 285.278037 
L 80.116678 280.080568 
L 80.565532 272.394811 
L 81.014385 261.669666 
L 81.463239 247.449806 
L 82.360946 207.945871 
L 84.605215 83.989795 
L 85.054068 68.556379 
L 85.502922 60.326677 
L 85.951776 60.015733 
L 86.400629 67.476629 
L 86.849483 81.723475 
L 87.74719 123.579064 
L 89.093751 190.1183 
L 89.991458 221.72167 
L 90.889166 241.600077 
L 91.786873 254.063184 
L 92.68458 263.270651 
L 93.582287 270.973365 
L 94.479995 277.063437 
L 95.377702 281.151444 
L 95.826556 282.490377 
L 96.275409 283.459792 
L 96.724263 284.148379 
L 97.173116 284.628615 
L 97.62197 284.942412 
L 98.070824 285.097924 
L 98.519677 285.077495 
L 98.968531 284.853802 
L 99.417385 284.409256 
L 100.315092 282.930833 
L 101.661653 280.389031 
L 102.110506 279.865459 
L 102.55936 279.623956 
L 103.008214 279.667358 
L 103.457067 279.944845 
L 104.803628 281.160962 
L 105.252482 281.348941 
L 105.701336 281.336635 
L 106.599043 280.856682 
L 107.49675 280.407631 
L 107.945604 280.466104 
L 108.394457 280.807971 
L 108.843311 281.444485 
L 109.741018 283.403975 
L 111.087579 286.669659 
L 111.985287 288.193009 
L 112.882994 289.128427 
L 114.678408 290.62355 
L 116.922677 292.861051 
L 117.820384 293.441719 
L 119.166945 293.926951 
L 121.860067 294.530851 
L 123.655481 294.709393 
L 125.899749 294.886711 
L 130.388286 295.444169 
L 134.427968 295.47092 
L 139.814212 295.323508 
L 142.956188 295.283773 
L 151.035553 295.399494 
L 193.227795 295.433941 
L 207.591111 295.290703 
L 209.386526 295.276401 
L 209.386526 295.276401 
" clip-path="url(#pe77fcd1557)" style="fill: none; stroke: #2ca02c; stroke-width: 1.5; stroke-linecap: square"/>
   </g>
   <g id="line2d_30">
    <path d="M 73.832727 290.169153 
L 74.641251 286.881852 
L 75.449774 282.051601 
L 76.258298 275.246612 
L 77.066821 266.065352 
L 77.875344 254.22047 
L 78.683868 239.638109 
L 80.300915 203.586037 
L 81.917961 164.377277 
L 82.726485 147.037548 
L 83.535008 133.276357 
L 84.343532 124.414869 
L 85.152055 121.328806 
L 85.960579 124.298254 
L 86.769102 132.95783 
L 87.577625 146.359793 
L 89.194672 181.718659 
L 90.811719 218.420754 
L 91.620242 234.314192 
L 92.428766 247.738976 
L 93.237289 258.555612 
L 94.045813 266.920981 
L 94.854336 273.178635 
L 95.66286 277.750744 
L 96.471383 281.051501 
L 97.279906 283.431949 
L 98.08843 285.156831 
L 98.896953 286.407267 
L 99.705477 287.299599 
L 100.514 287.910355 
L 101.322524 288.299153 
L 102.93957 288.64988 
L 104.556617 288.869 
L 105.365141 289.079531 
L 106.173664 289.407651 
L 107.790711 290.431087 
L 111.833328 293.672693 
L 113.450375 294.542734 
L 115.067422 295.059822 
L 116.684468 295.317183 
L 119.110039 295.446318 
L 126.38675 295.447371 
L 147.408358 295.469507 
L 308.304519 295.436811 
L 318.0068 295.142373 
L 318.0068 295.142373 
" clip-path="url(#pe77fcd1557)" style="fill: none; stroke: #d62728; stroke-width: 1.5; stroke-linecap: square"/>
   </g>
   <g id="patch_3">
    <path d="M 57.6 307.584 
L 57.6 41.472 
" style="fill: none; stroke: #000000; stroke-width: 0.8; stroke-linejoin: miter; stroke-linecap: square"/>
   </g>
   <g id="patch_4">
    <path d="M 414.72 307.584 
L 414.72 41.472 
" style="fill: none; stroke: #000000; stroke-width: 0.8; stroke-linejoin: miter; stroke-linecap: square"/>
   </g>
   <g id="patch_5">
    <path d="M 57.6 307.584 
L 414.72 307.584 
" style="fill: none; stroke: #000000; stroke-width: 0.8; stroke-linejoin: miter; stroke-linecap: square"/>
   </g>
   <g id="patch_6">
    <path d="M 57.6 41.472 
L 414.72 41.472 
" style="fill: none; stroke: #000000; stroke-width: 0.8; stroke-linejoin: miter; stroke-linecap: square"/>
   </g>
   <g id="text_16">
    <!-- AD - xtract_prob_Frontal_Aslant_Tract_R -->
    <g transform="translate(117.149062 35.472) scale(0.12 -0.12)">
     <defs>
      <path id="DejaVuSans-41" d="M 2188 4044 
L 1331 1722 
L 3047 1722 
L 2188 4044 
z
M 1831 4666 
L 2547 4666 
L 4325 0 
L 3669 0 
L 3244 1197 
L 1141 1197 
L 716 0 
L 50 0 
L 1831 4666 
z
" transform="scale(0.015625)"/>
      <path id="DejaVuSans-44" d="M 1259 4147 
L 1259 519 
L 2022 519 
Q 2988 519 3436 956 
Q 3884 1394 3884 2338 
Q 3884 3275 3436 3711 
Q 2988 4147 2022 4147 
L 1259 4147 
z
M 628 4666 
L 1925 4666 
Q 3281 4666 3915 4102 
Q 4550 3538 4550 2338 
Q 4550 1131 3912 565 
Q 3275 0 1925 0 
L 628 0 
L 628 4666 
z
" transform="scale(0.015625)"/>
      <path id="DejaVuSans-2d" d="M 313 2009 
L 1997 2009 
L 1997 1497 
L 313 1497 
L 313 2009 
z
" transform="scale(0.015625)"/>
      <path id="DejaVuSans-74" d="M 1172 4494 
L 1172 3500 
L 2356 3500 
L 2356 3053 
L 1172 3053 
L 1172 1153 
Q 1172 725 1289 603 
Q 1406 481 1766 481 
L 2356 481 
L 2356 0 
L 1766 0 
Q 1100 0 847 248 
Q 594 497 594 1153 
L 594 3053 
L 172 3053 
L 172 3500 
L 594 3500 
L 594 4494 
L 1172 4494 
z
" transform="scale(0.015625)"/>
      <path id="DejaVuSans-5f" d="M 3263 -1063 
L 3263 -1509 
L -63 -1509 
L -63 -1063 
L 3263 -1063 
z
" transform="scale(0.015625)"/>
      <path id="DejaVuSans-70" d="M 1159 525 
L 1159 -1331 
L 581 -1331 
L 581 3500 
L 1159 3500 
L 1159 2969 
Q 1341 3281 1617 3432 
Q 1894 3584 2278 3584 
Q 2916 3584 3314 3078 
Q 3713 2572 3713 1747 
Q 3713 922 3314 415 
Q 2916 -91 2278 -91 
Q 1894 -91 1617 61 
Q 1341 213 1159 525 
z
M 3116 1747 
Q 3116 2381 2855 2742 
Q 2594 3103 2138 3103 
Q 1681 3103 1420 2742 
Q 1159 2381 1159 1747 
Q 1159 1113 1420 752 
Q 1681 391 2138 391 
Q 2594 391 2855 752 
Q 3116 1113 3116 1747 
z
" transform="scale(0.015625)"/>
      <path id="DejaVuSans-6f" d="M 1959 3097 
Q 1497 3097 1228 2736 
Q 959 2375 959 1747 
Q 959 1119 1226 758 
Q 1494 397 1959 397 
Q 2419 397 2687 759 
Q 2956 1122 2956 1747 
Q 2956 2369 2687 2733 
Q 2419 3097 1959 3097 
z
M 1959 3584 
Q 2709 3584 3137 3096 
Q 3566 2609 3566 1747 
Q 3566 888 3137 398 
Q 2709 -91 1959 -91 
Q 1206 -91 779 398 
Q 353 888 353 1747 
Q 353 2609 779 3096 
Q 1206 3584 1959 3584 
z
" transform="scale(0.015625)"/>
      <path id="DejaVuSans-62" d="M 3116 1747 
Q 3116 2381 2855 2742 
Q 2594 3103 2138 3103 
Q 1681 3103 1420 2742 
Q 1159 2381 1159 1747 
Q 1159 1113 1420 752 
Q 1681 391 2138 391 
Q 2594 391 2855 752 
Q 3116 1113 3116 1747 
z
M 1159 2969 
Q 1341 3281 1617 3432 
Q 1894 3584 2278 3584 
Q 2916 3584 3314 3078 
Q 3713 2572 3713 1747 
Q 3713 922 3314 415 
Q 2916 -91 2278 -91 
Q 1894 -91 1617 61 
Q 1341 213 1159 525 
L 1159 0 
L 581 0 
L 581 4863 
L 1159 4863 
L 1159 2969 
z
" transform="scale(0.015625)"/>
      <path id="DejaVuSans-54" d="M -19 4666 
L 3928 4666 
L 3928 4134 
L 2272 4134 
L 2272 0 
L 1638 0 
L 1638 4134 
L -19 4134 
L -19 4666 
z
" transform="scale(0.015625)"/>
      <path id="DejaVuSans-52" d="M 2841 2188 
Q 3044 2119 3236 1894 
Q 3428 1669 3622 1275 
L 4263 0 
L 3584 0 
L 2988 1197 
Q 2756 1666 2539 1819 
Q 2322 1972 1947 1972 
L 1259 1972 
L 1259 0 
L 628 0 
L 628 4666 
L 2053 4666 
Q 2853 4666 3247 4331 
Q 3641 3997 3641 3322 
Q 3641 2881 3436 2590 
Q 3231 2300 2841 2188 
z
M 1259 4147 
L 1259 2491 
L 2053 2491 
Q 2509 2491 2742 2702 
Q 2975 2913 2975 3322 
Q 2975 3731 2742 3939 
Q 2509 4147 2053 4147 
L 1259 4147 
z
" transform="scale(0.015625)"/>
     </defs>
     <use xlink:href="#DejaVuSans-41"/>
     <use xlink:href="#DejaVuSans-44" x="68.408203"/>
     <use xlink:href="#DejaVuSans-20" x="145.410156"/>
     <use xlink:href="#DejaVuSans-2d" x="177.197266"/>
     <use xlink:href="#DejaVuSans-20" x="213.28125"/>
     <use xlink:href="#DejaVuSans-78" x="245.068359"/>
     <use xlink:href="#DejaVuSans-74" x="304.248047"/>
     <use xlink:href="#DejaVuSans-72" x="343.457031"/>
     <use xlink:href="#DejaVuSans-61" x="384.570312"/>
     <use xlink:href="#DejaVuSans-63" x="445.849609"/>
     <use xlink:href="#DejaVuSans-74" x="500.830078"/>
     <use xlink:href="#DejaVuSans-5f" x="540.039062"/>
     <use xlink:href="#DejaVuSans-70" x="590.039062"/>
     <use xlink:href="#DejaVuSans-72" x="653.515625"/>
     <use xlink:href="#DejaVuSans-6f" x="692.378906"/>
     <use xlink:href="#DejaVuSans-62" x="753.560547"/>
     <use xlink:href="#DejaVuSans-5f" x="817.037109"/>
     <use xlink:href="#DejaVuSans-46" x="867.037109"/>
     <use xlink:href="#DejaVuSans-72" x="917.306641"/>
     <use xlink:href="#DejaVuSans-6f" x="956.169922"/>
     <use xlink:href="#DejaVuSans-6e" x="1017.351562"/>
     <use xlink:href="#DejaVuSans-74" x="1080.730469"/>
     <use xlink:href="#DejaVuSans-61" x="1119.939453"/>
     <use xlink:href="#DejaVuSans-6c" x="1181.21875"/>
     <use xlink:href="#DejaVuSans-5f" x="1209.001953"/>
     <use xlink:href="#DejaVuSans-41" x="1259.001953"/>
     <use xlink:href="#DejaVuSans-73" x="1327.410156"/>
     <use xlink:href="#DejaVuSans-6c" x="1379.509766"/>
     <use xlink:href="#DejaVuSans-61" x="1407.292969"/>
     <use xlink:href="#DejaVuSans-6e" x="1468.572266"/>
     <use xlink:href="#DejaVuSans-74" x="1531.951172"/>
     <use xlink:href="#DejaVuSans-5f" x="1571.160156"/>
     <use xlink:href="#DejaVuSans-54" x="1621.160156"/>
     <use xlink:href="#DejaVuSans-72" x="1667.494141"/>
     <use xlink:href="#DejaVuSans-61" x="1708.607422"/>
     <use xlink:href="#DejaVuSans-63" x="1769.886719"/>
     <use xlink:href="#DejaVuSans-74" x="1824.867188"/>
     <use xlink:href="#DejaVuSans-5f" x="1864.076172"/>
     <use xlink:href="#DejaVuSans-52" x="1914.076172"/>
    </g>
   </g>
   <g id="legend_1">
    <g id="patch_7">
     <path d="M 190.72 109.297 
L 407.72 109.297 
Q 409.72 109.297 409.72 107.297 
L 409.72 48.472 
Q 409.72 46.472 407.72 46.472 
L 190.72 46.472 
Q 188.72 46.472 188.72 48.472 
L 188.72 107.297 
Q 188.72 109.297 190.72 109.297 
z
" style="fill: #ffffff; opacity: 0.8; stroke: #cccccc; stroke-linejoin: miter"/>
    </g>
    <g id="line2d_31">
     <path d="M 192.72 54.570437 
L 202.72 54.570437 
L 212.72 54.570437 
" style="fill: none; stroke: #1f77b4; stroke-width: 1.5; stroke-linecap: square"/>
    </g>
    <g id="text_17">
     <!-- 20_01_01_E0[1.0] -->
     <g transform="translate(220.72 58.070437) scale(0.1 -0.1)">
      <defs>
       <path id="DejaVuSans-45" d="M 628 4666 
L 3578 4666 
L 3578 4134 
L 1259 4134 
L 1259 2753 
L 3481 2753 
L 3481 2222 
L 1259 2222 
L 1259 531 
L 3634 531 
L 3634 0 
L 628 0 
L 628 4666 
z
" transform="scale(0.015625)"/>
       <path id="DejaVuSans-5b" d="M 550 4863 
L 1875 4863 
L 1875 4416 
L 1125 4416 
L 1125 -397 
L 1875 -397 
L 1875 -844 
L 550 -844 
L 550 4863 
z
" transform="scale(0.015625)"/>
       <path id="DejaVuSans-5d" d="M 1947 4863 
L 1947 -844 
L 622 -844 
L 622 -397 
L 1369 -397 
L 1369 4416 
L 622 4416 
L 622 4863 
L 1947 4863 
z
" transform="scale(0.015625)"/>
      </defs>
      <use xlink:href="#DejaVuSans-32"/>
      <use xlink:href="#DejaVuSans-30" x="63.623047"/>
      <use xlink:href="#DejaVuSans-5f" x="127.246094"/>
      <use xlink:href="#DejaVuSans-30" x="177.246094"/>
      <use xlink:href="#DejaVuSans-31" x="240.869141"/>
      <use xlink:href="#DejaVuSans-5f" x="304.492188"/>
      <use xlink:href="#DejaVuSans-30" x="354.492188"/>
      <use xlink:href="#DejaVuSans-31" x="418.115234"/>
      <use xlink:href="#DejaVuSans-5f" x="481.738281"/>
      <use xlink:href="#DejaVuSans-45" x="531.738281"/>
      <use xlink:href="#DejaVuSans-30" x="594.921875"/>
      <use xlink:href="#DejaVuSans-5b" x="658.544922"/>
      <use xlink:href="#DejaVuSans-31" x="697.558594"/>
      <use xlink:href="#DejaVuSans-2e" x="761.181641"/>
      <use xlink:href="#DejaVuSans-30" x="792.96875"/>
      <use xlink:href="#DejaVuSans-5d" x="856.591797"/>
     </g>
    </g>
    <g id="line2d_32">
     <path d="M 192.72 69.526687 
L 202.72 69.526687 
L 212.72 69.526687 
" style="fill: none; stroke: #ff7f0e; stroke-width: 1.5; stroke-linecap: square"/>
    </g>
    <g id="text_18">
     <!-- 20_01_01_E1[1.0] -->
     <g transform="translate(220.72 73.026687) scale(0.1 -0.1)">
      <use xlink:href="#DejaVuSans-32"/>
      <use xlink:href="#DejaVuSans-30" x="63.623047"/>
      <use xlink:href="#DejaVuSans-5f" x="127.246094"/>
      <use xlink:href="#DejaVuSans-30" x="177.246094"/>
      <use xlink:href="#DejaVuSans-31" x="240.869141"/>
      <use xlink:href="#DejaVuSans-5f" x="304.492188"/>
      <use xlink:href="#DejaVuSans-30" x="354.492188"/>
      <use xlink:href="#DejaVuSans-31" x="418.115234"/>
      <use xlink:href="#DejaVuSans-5f" x="481.738281"/>
      <use xlink:href="#DejaVuSans-45" x="531.738281"/>
      <use xlink:href="#DejaVuSans-31" x="594.921875"/>
      <use xlink:href="#DejaVuSans-5b" x="658.544922"/>
      <use xlink:href="#DejaVuSans-31" x="697.558594"/>
      <use xlink:href="#DejaVuSans-2e" x="761.181641"/>
      <use xlink:href="#DejaVuSans-30" x="792.96875"/>
      <use xlink:href="#DejaVuSans-5d" x="856.591797"/>
     </g>
    </g>
    <g id="line2d_33">
     <path d="M 192.72 84.482937 
L 202.72 84.482937 
L 212.72 84.482937 
" style="fill: none; stroke: #2ca02c; stroke-width: 1.5; stroke-linecap: square"/>
    </g>
    <g id="text_19">
     <!-- 20_01_01_E2[1.0000000000000002] -->
     <g transform="translate(220.72 87.982937) scale(0.1 -0.1)">
      <use xlink:href="#DejaVuSans-32"/>
      <use xlink:href="#DejaVuSans-30" x="63.623047"/>
      <use xlink:href="#DejaVuSans-5f" x="127.246094"/>
      <use xlink:href="#DejaVuSans-30" x="177.246094"/>
      <use xlink:href="#DejaVuSans-31" x="240.869141"/>
      <use xlink:href="#DejaVuSans-5f" x="304.492188"/>
      <use xlink:href="#DejaVuSans-30" x="354.492188"/>
      <use xlink:href="#DejaVuSans-31" x="418.115234"/>
      <use xlink:href="#DejaVuSans-5f" x="481.738281"/>
      <use xlink:href="#DejaVuSans-45" x="531.738281"/>
      <use xlink:href="#DejaVuSans-32" x="594.921875"/>
      <use xlink:href="#DejaVuSans-5b" x="658.544922"/>
      <use xlink:href="#DejaVuSans-31" x="697.558594"/>
      <use xlink:href="#DejaVuSans-2e" x="761.181641"/>
      <use xlink:href="#DejaVuSans-30" x="792.96875"/>
      <use xlink:href="#DejaVuSans-30" x="856.591797"/>
      <use xlink:href="#DejaVuSans-30" x="920.214844"/>
      <use xlink:href="#DejaVuSans-30" x="983.837891"/>
      <use xlink:href="#DejaVuSans-30" x="1047.460938"/>
      <use xlink:href="#DejaVuSans-30" x="1111.083984"/>
      <use xlink:href="#DejaVuSans-30" x="1174.707031"/>
      <use xlink:href="#DejaVuSans-30" x="1238.330078"/>
      <use xlink:href="#DejaVuSans-30" x="1301.953125"/>
      <use xlink:href="#DejaVuSans-30" x="1365.576172"/>
      <use xlink:href="#DejaVuSans-30" x="1429.199219"/>
      <use xlink:href="#DejaVuSans-30" x="1492.822266"/>
      <use xlink:href="#DejaVuSans-30" x="1556.445312"/>
      <use xlink:href="#DejaVuSans-30" x="1620.068359"/>
      <use xlink:href="#DejaVuSans-30" x="1683.691406"/>
      <use xlink:href="#DejaVuSans-32" x="1747.314453"/>
      <use xlink:href="#DejaVuSans-5d" x="1810.9375"/>
     </g>
    </g>
    <g id="line2d_34">
     <path d="M 192.72 99.439187 
L 202.72 99.439187 
L 212.72 99.439187 
" style="fill: none; stroke: #d62728; stroke-width: 1.5; stroke-linecap: square"/>
    </g>
    <g id="text_20">
     <!-- 20_11_02_E1[1.0000000000000002] -->
     <g transform="translate(220.72 102.939187) scale(0.1 -0.1)">
      <use xlink:href="#DejaVuSans-32"/>
      <use xlink:href="#DejaVuSans-30" x="63.623047"/>
      <use xlink:href="#DejaVuSans-5f" x="127.246094"/>
      <use xlink:href="#DejaVuSans-31" x="177.246094"/>
      <use xlink:href="#DejaVuSans-31" x="240.869141"/>
      <use xlink:href="#DejaVuSans-5f" x="304.492188"/>
      <use xlink:href="#DejaVuSans-30" x="354.492188"/>
      <use xlink:href="#DejaVuSans-32" x="418.115234"/>
      <use xlink:href="#DejaVuSans-5f" x="481.738281"/>
      <use xlink:href="#DejaVuSans-45" x="531.738281"/>
      <use xlink:href="#DejaVuSans-31" x="594.921875"/>
      <use xlink:href="#DejaVuSans-5b" x="658.544922"/>
      <use xlink:href="#DejaVuSans-31" x="697.558594"/>
      <use xlink:href="#DejaVuSans-2e" x="761.181641"/>
      <use xlink:href="#DejaVuSans-30" x="792.96875"/>
      <use xlink:href="#DejaVuSans-30" x="856.591797"/>
      <use xlink:href="#DejaVuSans-30" x="920.214844"/>
      <use xlink:href="#DejaVuSans-30" x="983.837891"/>
      <use xlink:href="#DejaVuSans-30" x="1047.460938"/>
      <use xlink:href="#DejaVuSans-30" x="1111.083984"/>
      <use xlink:href="#DejaVuSans-30" x="1174.707031"/>
      <use xlink:href="#DejaVuSans-30" x="1238.330078"/>
      <use xlink:href="#DejaVuSans-30" x="1301.953125"/>
      <use xlink:href="#DejaVuSans-30" x="1365.576172"/>
      <use xlink:href="#DejaVuSans-30" x="1429.199219"/>
      <use xlink:href="#DejaVuSans-30" x="1492.822266"/>
      <use xlink:href="#DejaVuSans-30" x="1556.445312"/>
      <use xlink:href="#DejaVuSans-30" x="1620.068359"/>
      <use xlink:href="#DejaVuSans-30" x="1683.691406"/>
      <use xlink:href="#DejaVuSans-32" x="1747.314453"/>
      <use xlink:href="#DejaVuSans-5d" x="1810.9375"/>
     </g>
    </g>
   </g>
  </g>
 </g>
 <defs>
  <clipPath id="pe77fcd1557">
   <rect x="57.6" y="41.472" width="357.12" height="266.112"/>
  </clipPath>
 </defs>
</svg>
