<?xml version="1.0" encoding="utf-8" standalone="no"?>
<!DOCTYPE svg PUBLIC "-//W3C//DTD SVG 1.1//EN"
  "http://www.w3.org/Graphics/SVG/1.1/DTD/svg11.dtd">
<svg xmlns:xlink="http://www.w3.org/1999/xlink" width="563.3945pt" height="325.986375pt" viewBox="0 0 563.3945 325.986375" xmlns="http://www.w3.org/2000/svg" version="1.1">
 <metadata>
  <rdf:RDF xmlns:dc="http://purl.org/dc/elements/1.1/" xmlns:cc="http://creativecommons.org/ns#" xmlns:rdf="http://www.w3.org/1999/02/22-rdf-syntax-ns#">
   <cc:Work>
    <dc:type rdf:resource="http://purl.org/dc/dcmitype/StillImage"/>
    <dc:date>2023-02-07T23:00:02.874202</dc:date>
    <dc:format>image/svg+xml</dc:format>
    <dc:creator>
     <cc:Agent>
      <dc:title>Matplotlib v3.6.2, https://matplotlib.org/</dc:title>
     </cc:Agent>
    </dc:creator>
   </cc:Work>
  </rdf:RDF>
 </metadata>
 <defs>
  <style type="text/css">*{stroke-linejoin: round; stroke-linecap: butt}</style>
 </defs>
 <g id="figure_1">
  <g id="patch_1">
   <path d="M 0 325.986375 
L 563.3945 325.986375 
L 563.3945 0 
L 0 0 
z
" style="fill: #ffffff"/>
  </g>
  <g id="axes_1">
   <g id="patch_2">
    <path d="M 56.50625 288.430125 
L 413.62625 288.430125 
L 413.62625 22.318125 
L 56.50625 22.318125 
z
" style="fill: #ffffff"/>
   </g>
   <g id="PolyCollection_1">
    <path d="M 72.738977 197.681536 
L 72.738977 255.444958 
L 74.709271 255.444958 
L 76.679565 255.444958 
L 78.649859 255.444958 
L 80.620152 255.444958 
L 82.590446 255.444958 
L 84.56074 255.444958 
L 86.531034 255.444958 
L 88.501327 255.444958 
L 90.471621 255.444958 
L 92.441915 255.444958 
L 94.412209 255.444958 
L 96.382503 255.444958 
L 98.352796 255.444958 
L 100.32309 255.444958 
L 102.293384 255.444958 
L 104.263678 255.444958 
L 106.233971 255.444958 
L 108.204265 255.444958 
L 110.174559 255.444958 
L 112.144853 255.444958 
L 114.115147 255.444958 
L 116.08544 255.444958 
L 118.055734 255.444958 
L 120.026028 255.444958 
L 121.996322 255.444958 
L 123.966615 255.444958 
L 125.936909 255.444958 
L 127.907203 255.444958 
L 129.877497 255.444958 
L 131.847791 255.444958 
L 133.818084 255.444958 
L 135.788378 255.444958 
L 137.758672 255.444958 
L 139.728966 255.444958 
L 141.699259 255.444958 
L 143.669553 255.444958 
L 145.639847 255.444958 
L 147.610141 255.444958 
L 149.580435 255.444958 
L 151.550728 255.444958 
L 153.521022 255.444958 
L 155.491316 255.444958 
L 157.46161 255.444958 
L 159.431903 255.444958 
L 161.402197 255.444958 
L 163.372491 255.444958 
L 165.342785 255.444958 
L 167.313078 255.444958 
L 169.283372 255.444958 
L 171.253666 255.444958 
L 173.22396 255.444958 
L 175.194254 255.444958 
L 177.164547 255.444958 
L 179.134841 255.444958 
L 181.105135 255.444958 
L 183.075429 255.444958 
L 185.045722 255.444958 
L 187.016016 255.444958 
L 188.98631 255.444958 
L 190.956604 255.444958 
L 192.926898 255.444958 
L 194.897191 255.444958 
L 196.867485 255.444958 
L 198.837779 255.444958 
L 200.808073 255.444958 
L 202.778366 255.444958 
L 204.74866 255.444958 
L 206.718954 255.444958 
L 208.689248 255.444958 
L 210.659542 255.444958 
L 212.629835 255.444958 
L 214.600129 255.444958 
L 216.570423 255.444958 
L 218.540717 255.444958 
L 220.51101 255.444958 
L 222.481304 255.444958 
L 224.451598 255.444958 
L 226.421892 255.444958 
L 228.392186 255.444958 
L 230.362479 255.444958 
L 232.332773 255.444958 
L 234.303067 255.444958 
L 236.273361 255.444958 
L 238.243654 255.444958 
L 240.213948 255.444958 
L 242.184242 255.444958 
L 244.154536 255.444958 
L 246.124829 255.444958 
L 248.095123 255.444958 
L 250.065417 255.444958 
L 252.035711 255.444958 
L 254.006005 255.444958 
L 255.976298 255.444958 
L 257.946592 255.444958 
L 259.916886 255.444958 
L 261.88718 255.444958 
L 263.857473 255.444958 
L 265.827767 255.444958 
L 267.798061 255.444958 
L 267.798061 254.805951 
L 267.798061 254.805951 
L 265.827767 255.432956 
L 263.857473 255.777816 
L 261.88718 255.908736 
L 259.916886 255.887926 
L 257.946592 255.769892 
L 255.976298 255.600477 
L 254.006005 255.416522 
L 252.035711 255.24601 
L 250.065417 255.108572 
L 248.095123 255.016271 
L 246.124829 254.974568 
L 244.154536 254.983392 
L 242.184242 255.038264 
L 240.213948 255.131415 
L 238.243654 255.252858 
L 236.273361 255.391384 
L 234.303067 255.535454 
L 232.332773 255.673971 
L 230.362479 255.796915 
L 228.392186 255.895854 
L 226.421892 255.964297 
L 224.451598 255.99793 
L 222.481304 255.994712 
L 220.51101 255.95486 
L 218.540717 255.880725 
L 216.570423 255.776579 
L 214.600129 255.648325 
L 212.629835 255.503149 
L 210.659542 255.349133 
L 208.689248 255.194834 
L 206.718954 255.04887 
L 204.74866 254.919498 
L 202.778366 254.814225 
L 200.808073 254.739453 
L 198.837779 254.700169 
L 196.867485 254.6997 
L 194.897191 254.73953 
L 192.926898 254.819194 
L 190.956604 254.936248 
L 188.98631 255.08632 
L 187.016016 255.263241 
L 185.045722 255.459252 
L 183.075429 255.665282 
L 181.105135 255.871295 
L 179.134841 256.066687 
L 177.164547 256.240732 
L 175.194254 256.383058 
L 173.22396 256.484137 
L 171.253666 255.444541 
L 169.283372 255.443311 
L 167.313078 258.598892 
L 165.342785 257.641661 
L 163.372491 256.539752 
L 161.402197 255.340599 
L 159.431903 254.098185 
L 157.46161 252.871094 
L 155.491316 251.720277 
L 153.521022 250.706611 
L 151.550728 249.888286 
L 149.580435 249.318121 
L 147.610141 249.040864 
L 145.639847 249.090568 
L 143.669553 249.488136 
L 141.699259 250.239116 
L 139.728966 251.331838 
L 137.758672 252.735986 
L 135.788378 254.401691 
L 133.818084 256.259224 
L 131.847791 258.219361 
L 129.877497 260.174495 
L 127.907203 262.000539 
L 125.936909 263.559651 
L 123.966615 264.703815 
L 121.996322 265.279274 
L 120.026028 265.131772 
L 118.055734 264.112577 
L 116.08544 262.085186 
L 114.115147 258.932598 
L 112.144853 254.565 
L 110.174559 248.927665 
L 108.204265 242.00882 
L 106.233971 233.847194 
L 104.263678 224.538883 
L 102.293384 214.243136 
L 100.32309 203.186589 
L 98.352796 191.665393 
L 96.382503 180.044638 
L 94.412209 168.754363 
L 92.441915 158.28139 
L 90.471621 149.156096 
L 88.501327 141.93318 
L 86.531034 137.165339 
L 84.56074 135.368706 
L 82.590446 136.978749 
L 80.620152 142.295235 
L 78.649859 151.414731 
L 76.679565 164.148984 
L 74.709271 179.927379 
L 72.738977 197.681536 
z
" clip-path="url(#p51fa1a6b91)" style="fill: #1f77b4; fill-opacity: 0.166667"/>
   </g>
   <g id="PolyCollection_2">
    <path d="M 72.738977 231.949382 
L 72.738977 255.444958 
L 74.773597 255.444958 
L 76.808217 255.444958 
L 78.842837 255.444958 
L 80.877457 255.444958 
L 82.912077 255.444958 
L 84.946697 255.444958 
L 86.981317 255.444958 
L 89.015937 255.444958 
L 91.050557 255.444958 
L 93.085177 255.444958 
L 95.119797 255.444958 
L 97.154417 255.444958 
L 99.189037 255.444958 
L 101.223657 255.444958 
L 103.258277 255.444958 
L 105.292897 255.444958 
L 107.327517 255.444958 
L 109.362137 255.444958 
L 111.396757 255.444958 
L 113.431377 255.444958 
L 115.465997 255.444958 
L 117.500617 255.444958 
L 119.535237 255.444958 
L 121.569857 255.444958 
L 123.604477 255.444958 
L 125.639097 255.444958 
L 127.673717 255.444958 
L 129.708337 255.444958 
L 131.742957 255.444958 
L 133.777577 255.444958 
L 135.812197 255.444958 
L 137.846817 255.444958 
L 139.881437 255.444958 
L 141.916057 255.444958 
L 143.950677 255.444958 
L 145.985297 255.444958 
L 148.019917 255.444958 
L 150.054537 255.444958 
L 152.089157 255.444958 
L 154.123777 255.444958 
L 156.158398 255.444958 
L 158.193018 255.444958 
L 160.227638 255.444958 
L 162.262258 255.444958 
L 164.296878 255.444958 
L 166.331498 255.444958 
L 168.366118 255.444958 
L 170.400738 255.444958 
L 172.435358 255.444958 
L 174.469978 255.444958 
L 176.504598 255.444958 
L 178.539218 255.444958 
L 180.573838 255.444958 
L 182.608458 255.444958 
L 184.643078 255.444958 
L 186.677698 255.444958 
L 188.712318 255.444958 
L 190.746938 255.444958 
L 192.781558 255.444958 
L 194.816178 255.444958 
L 196.850798 255.444958 
L 198.885418 255.444958 
L 200.920038 255.444958 
L 202.954658 255.444958 
L 204.989278 255.444958 
L 207.023898 255.444958 
L 209.058518 255.444958 
L 211.093138 255.444958 
L 213.127758 255.444958 
L 215.162378 255.444958 
L 217.196998 255.444958 
L 219.231618 255.444958 
L 221.266238 255.444958 
L 223.300858 255.444958 
L 225.335478 255.444958 
L 227.370098 255.444958 
L 229.404718 255.444958 
L 231.439338 255.444958 
L 233.473958 255.444958 
L 235.508578 255.444958 
L 237.543198 255.444958 
L 239.577818 255.444958 
L 241.612438 255.444958 
L 243.647058 255.444958 
L 245.681678 255.444958 
L 247.716298 255.444958 
L 249.750918 255.444958 
L 251.785538 255.444958 
L 253.820158 255.444958 
L 255.854778 255.444958 
L 257.889398 255.444958 
L 259.924018 255.444958 
L 261.958638 255.444958 
L 263.993258 255.444958 
L 266.027878 255.444958 
L 268.062498 255.444958 
L 270.097118 255.444958 
L 272.131738 255.444958 
L 274.166358 255.444958 
L 274.166358 266.483141 
L 274.166358 266.483141 
L 272.131738 252.594307 
L 270.097118 247.309166 
L 268.062498 247.191673 
L 266.027878 249.780587 
L 263.993258 253.385103 
L 261.958638 256.912419 
L 259.924018 259.723587 
L 257.889398 261.514283 
L 255.854778 262.217381 
L 253.820158 261.924543 
L 251.785538 260.824222 
L 249.750918 259.153749 
L 247.716298 257.163394 
L 245.681678 255.090491 
L 243.647058 253.141917 
L 241.612438 251.483414 
L 239.577818 250.234392 
L 237.543198 249.467028 
L 235.508578 249.208631 
L 233.473958 249.44637 
L 231.439338 250.133584 
L 229.404718 251.197046 
L 227.370098 252.544619 
L 225.335478 254.072861 
L 223.300858 255.674242 
L 221.266238 257.243682 
L 219.231618 258.684219 
L 217.196998 259.911674 
L 215.162378 260.858231 
L 213.127758 261.474905 
L 211.093138 261.732919 
L 209.058518 261.624032 
L 207.023898 261.159905 
L 204.989278 260.370614 
L 202.954658 259.30242 
L 200.920038 258.01495 
L 198.885418 256.577928 
L 196.850798 255.067599 
L 194.816178 253.563008 
L 192.781558 252.142271 
L 190.746938 250.878981 
L 188.712318 249.838878 
L 186.677698 249.076899 
L 184.643078 248.6347 
L 182.608458 248.538755 
L 180.573838 248.799073 
L 178.539218 249.40859 
L 176.504598 250.343262 
L 174.469978 255.4468 
L 172.435358 255.445116 
L 170.400738 256.524178 
L 168.366118 257.142952 
L 166.331498 257.696953 
L 164.296878 258.151859 
L 162.262258 258.476417 
L 160.227638 258.644191 
L 158.193018 258.635227 
L 156.158398 258.437565 
L 154.123777 258.048516 
L 152.089157 257.475639 
L 150.054537 256.737346 
L 148.019917 255.863052 
L 145.985297 254.892837 
L 143.950677 253.876534 
L 141.916057 252.872231 
L 139.881437 251.944141 
L 137.846817 251.159837 
L 135.812197 250.586859 
L 133.777577 250.288723 
L 131.742957 250.320404 
L 129.708337 250.723357 
L 127.673717 251.520224 
L 125.639097 252.709371 
L 123.604477 254.259464 
L 121.569857 256.104323 
L 119.535237 258.138366 
L 117.500617 260.212979 
L 115.465997 262.134232 
L 113.431377 263.662418 
L 111.396757 264.513953 
L 109.362137 264.366262 
L 107.327517 262.866347 
L 105.292897 259.643822 
L 103.258277 254.329292 
L 101.223657 246.579043 
L 99.189037 236.107123 
L 97.154417 222.725987 
L 95.119797 206.397031 
L 93.085177 187.292394 
L 91.050557 165.86962 
L 89.015937 142.960835 
L 86.981317 119.878276 
L 84.946697 98.538156 
L 82.912077 81.604977 
L 80.877457 72.658615 
L 78.842837 76.386621 
L 76.808217 98.804407 
L 74.773597 147.506139 
L 72.738977 231.949382 
z
" clip-path="url(#p51fa1a6b91)" style="fill: #ff7f0e; fill-opacity: 0.166667"/>
   </g>
   <g id="PolyCollection_3">
    <path d="M 72.738977 189.578676 
L 72.738977 255.444958 
L 74.344358 255.444958 
L 75.949739 255.444958 
L 77.55512 255.444958 
L 79.160501 255.444958 
L 80.765882 255.444958 
L 82.371263 255.444958 
L 83.976644 255.444958 
L 85.582025 255.444958 
L 87.187406 255.444958 
L 88.792787 255.444958 
L 90.398168 255.444958 
L 92.00355 255.444958 
L 93.608931 255.444958 
L 95.214312 255.444958 
L 96.819693 255.444958 
L 98.425074 255.444958 
L 100.030455 255.444958 
L 101.635836 255.444958 
L 103.241217 255.444958 
L 104.846598 255.444958 
L 106.451979 255.444958 
L 108.05736 255.444958 
L 109.662741 255.444958 
L 111.268122 255.444958 
L 112.873503 255.444958 
L 114.478884 255.444958 
L 116.084265 255.444958 
L 117.689646 255.444958 
L 119.295027 255.444958 
L 120.900408 255.444958 
L 122.505789 255.444958 
L 124.11117 255.444958 
L 125.716551 255.444958 
L 127.321932 255.444958 
L 128.927313 255.444958 
L 130.532694 255.444958 
L 132.138075 255.444958 
L 133.743456 255.444958 
L 135.348837 255.444958 
L 136.954218 255.444958 
L 138.559599 255.444958 
L 140.16498 255.444958 
L 141.770361 255.444958 
L 143.375742 255.444958 
L 144.981123 255.444958 
L 146.586504 255.444958 
L 148.191885 255.444958 
L 149.797266 255.444958 
L 151.402647 255.444958 
L 153.008028 255.444958 
L 154.613409 255.444958 
L 156.21879 255.444958 
L 157.824171 255.444958 
L 159.429552 255.444958 
L 161.034933 255.444958 
L 162.640314 255.444958 
L 164.245695 255.444958 
L 165.851076 255.444958 
L 167.456457 255.444958 
L 169.061838 255.444958 
L 170.667219 255.444958 
L 172.272601 255.444958 
L 173.877982 255.444958 
L 175.483363 255.444958 
L 177.088744 255.444958 
L 178.694125 255.444958 
L 180.299506 255.444958 
L 181.904887 255.444958 
L 183.510268 255.444958 
L 185.115649 255.444958 
L 186.72103 255.444958 
L 188.326411 255.444958 
L 189.931792 255.444958 
L 191.537173 255.444958 
L 193.142554 255.444958 
L 194.747935 255.444958 
L 196.353316 255.444958 
L 197.958697 255.444958 
L 199.564078 255.444958 
L 201.169459 255.444958 
L 202.77484 255.444958 
L 204.380221 255.444958 
L 205.985602 255.444958 
L 207.590983 255.444958 
L 209.196364 255.444958 
L 210.801745 255.444958 
L 212.407126 255.444958 
L 214.012507 255.444958 
L 215.617888 255.444958 
L 217.223269 255.444958 
L 218.82865 255.444958 
L 220.434031 255.444958 
L 222.039412 255.444958 
L 223.644793 255.444958 
L 225.250174 255.444958 
L 226.855555 255.444958 
L 228.460936 255.444958 
L 230.066317 255.444958 
L 231.671698 255.444958 
L 231.671698 253.463601 
L 231.671698 253.463601 
L 230.066317 255.825497 
L 228.460936 256.793622 
L 226.855555 256.896245 
L 225.250174 256.520285 
L 223.644793 255.939031 
L 222.039412 255.335847 
L 220.434031 254.82429 
L 218.82865 254.465031 
L 217.223269 254.279939 
L 215.617888 254.263655 
L 214.012507 254.392965 
L 212.407126 254.634262 
L 210.801745 254.949337 
L 209.196364 255.299756 
L 207.590983 255.650012 
L 205.985602 255.969676 
L 204.380221 256.234686 
L 202.77484 256.427965 
L 201.169459 256.539487 
L 199.564078 256.565913 
L 197.958697 256.509924 
L 196.353316 256.379324 
L 194.747935 256.186013 
L 193.142554 255.944887 
L 191.537173 255.67273 
L 189.931792 255.387141 
L 188.326411 255.10555 
L 186.72103 254.844321 
L 185.115649 254.618006 
L 183.510268 254.438731 
L 181.904887 254.315734 
L 180.299506 254.255069 
L 178.694125 254.259456 
L 177.088744 254.328278 
L 175.483363 254.457726 
L 173.877982 254.641053 
L 172.272601 254.86895 
L 170.667219 255.130009 
L 169.061838 255.41125 
L 167.456457 255.69871 
L 165.851076 255.97806 
L 164.245695 256.235222 
L 162.640314 256.456987 
L 161.034933 256.631595 
L 159.429552 256.749267 
L 157.824171 256.802664 
L 156.21879 256.787273 
L 154.613409 256.701681 
L 153.008028 255.444459 
L 151.402647 255.443428 
L 149.797266 258.045251 
L 148.191885 256.995262 
L 146.586504 255.836149 
L 144.981123 254.622505 
L 143.375742 253.413707 
L 141.770361 252.271479 
L 140.16498 251.25722 
L 138.559599 250.429182 
L 136.954218 249.839566 
L 135.348837 249.531653 
L 133.743456 249.537049 
L 132.138075 249.873149 
L 130.532694 250.540933 
L 128.927313 251.523182 
L 127.321932 252.783227 
L 125.716551 254.264323 
L 124.11117 255.889726 
L 122.505789 257.563566 
L 120.900408 259.172562 
L 119.295027 260.588629 
L 117.689646 261.672407 
L 116.084265 262.277695 
L 114.478884 262.256783 
L 112.873503 261.466589 
L 111.268122 259.775531 
L 109.662741 257.070971 
L 108.05736 253.267052 
L 106.451979 248.312685 
L 104.846598 242.199398 
L 103.241217 234.968673 
L 101.635836 226.718363 
L 100.030455 217.607684 
L 98.425074 207.860201 
L 96.819693 197.764156 
L 95.214312 187.66938 
L 93.608931 177.979935 
L 92.00355 169.141543 
L 90.398168 161.622717 
L 88.792787 155.88844 
L 87.187406 152.365044 
L 85.582025 151.394883 
L 83.976644 153.179192 
L 82.371263 157.70741 
L 80.765882 164.671085 
L 79.160501 173.360292 
L 77.55512 182.540357 
L 75.949739 190.306461 
L 74.344358 193.913539 
L 72.738977 189.578676 
z
" clip-path="url(#p51fa1a6b91)" style="fill: #2ca02c; fill-opacity: 0.166667"/>
   </g>
   <g id="PolyCollection_4">
    <path d="M 72.738977 175.351575 
L 72.738977 255.444958 
L 76.018316 255.444958 
L 79.297655 255.444958 
L 82.576994 255.444958 
L 85.856333 255.444958 
L 89.135671 255.444958 
L 92.41501 255.444958 
L 95.694349 255.444958 
L 98.973688 255.444958 
L 102.253027 255.444958 
L 105.532366 255.444958 
L 108.811705 255.444958 
L 112.091043 255.444958 
L 115.370382 255.444958 
L 118.649721 255.444958 
L 121.92906 255.444958 
L 125.208399 255.444958 
L 128.487738 255.444958 
L 131.767076 255.444958 
L 135.046415 255.444958 
L 138.325754 255.444958 
L 141.605093 255.444958 
L 144.884432 255.444958 
L 148.163771 255.444958 
L 151.44311 255.444958 
L 154.722448 255.444958 
L 158.001787 255.444958 
L 161.281126 255.444958 
L 164.560465 255.444958 
L 167.839804 255.444958 
L 171.119143 255.444958 
L 174.398481 255.444958 
L 177.67782 255.444958 
L 180.957159 255.444958 
L 184.236498 255.444958 
L 187.515837 255.444958 
L 190.795176 255.444958 
L 194.074514 255.444958 
L 197.353853 255.444958 
L 200.633192 255.444958 
L 203.912531 255.444958 
L 207.19187 255.444958 
L 210.471209 255.444958 
L 213.750548 255.444958 
L 217.029886 255.444958 
L 220.309225 255.444958 
L 223.588564 255.444958 
L 226.867903 255.444958 
L 230.147242 255.444958 
L 233.426581 255.444958 
L 236.705919 255.444958 
L 239.985258 255.444958 
L 243.264597 255.444958 
L 246.543936 255.444958 
L 249.823275 255.444958 
L 253.102614 255.444958 
L 256.381952 255.444958 
L 259.661291 255.444958 
L 262.94063 255.444958 
L 266.219969 255.444958 
L 269.499308 255.444958 
L 272.778647 255.444958 
L 276.057986 255.444958 
L 279.337324 255.444958 
L 282.616663 255.444958 
L 285.896002 255.444958 
L 289.175341 255.444958 
L 292.45468 255.444958 
L 295.734019 255.444958 
L 299.013357 255.444958 
L 302.292696 255.444958 
L 305.572035 255.444958 
L 308.851374 255.444958 
L 312.130713 255.444958 
L 315.410052 255.444958 
L 318.68939 255.444958 
L 321.968729 255.444958 
L 325.248068 255.444958 
L 328.527407 255.444958 
L 331.806746 255.444958 
L 335.086085 255.444958 
L 338.365424 255.444958 
L 341.644762 255.444958 
L 344.924101 255.444958 
L 348.20344 255.444958 
L 351.482779 255.444958 
L 354.762118 255.444958 
L 358.041457 255.444958 
L 361.320795 255.444958 
L 364.600134 255.444958 
L 367.879473 255.444958 
L 371.158812 255.444958 
L 374.438151 255.444958 
L 377.71749 255.444958 
L 380.996829 255.444958 
L 384.276167 255.444958 
L 387.555506 255.444958 
L 390.834845 255.444958 
L 394.114184 255.444958 
L 397.393523 255.444958 
L 397.393523 271.283152 
L 397.393523 271.283152 
L 394.114184 251.676815 
L 390.834845 244.012752 
L 387.555506 243.602797 
L 384.276167 247.065832 
L 380.996829 252.058568 
L 377.71749 257.047642 
L 374.438151 261.118405 
L 371.158812 263.816096 
L 367.879473 265.015467 
L 364.600134 264.815257 
L 361.320795 263.454212 
L 358.041457 261.245659 
L 354.762118 258.527915 
L 351.482779 255.62807 
L 348.20344 252.836947 
L 344.924101 250.393263 
L 341.644762 248.475232 
L 338.365424 247.198068 
L 335.086085 246.616014 
L 331.806746 246.727733 
L 328.527407 247.484019 
L 325.248068 248.796981 
L 321.968729 250.549945 
L 318.68939 252.6075 
L 315.410052 254.825173 
L 312.130713 257.058375 
L 308.851374 259.17031 
L 305.572035 261.038657 
L 302.292696 262.560901 
L 299.013357 263.658231 
L 295.734019 264.278023 
L 292.45468 264.39494 
L 289.175341 264.01073 
L 285.896002 263.152855 
L 282.616663 261.872084 
L 279.337324 260.239213 
L 276.057986 258.341109 
L 272.778647 256.276239 
L 269.499308 254.1499 
L 266.219969 252.069316 
L 262.94063 250.138804 
L 259.661291 248.455162 
L 256.381952 247.103452 
L 253.102614 246.153308 
L 249.823275 245.655896 
L 246.543936 245.64163 
L 243.264597 246.118702 
L 239.985258 247.072498 
L 236.705919 255.4479 
L 233.426581 255.447249 
L 230.147242 252.167022 
L 226.867903 254.05381 
L 223.588564 256.063337 
L 220.309225 258.097776 
L 217.029886 260.05455 
L 213.750548 261.830807 
L 210.471209 263.328118 
L 207.19187 264.457246 
L 203.912531 265.142806 
L 200.633192 265.327639 
L 197.353853 264.976713 
L 194.074514 264.080359 
L 190.795176 262.656662 
L 187.515837 260.752833 
L 184.236498 258.445396 
L 180.957159 255.839053 
L 177.67782 253.064106 
L 174.398481 250.272365 
L 171.119143 247.631483 
L 167.839804 245.317734 
L 164.560465 243.507293 
L 161.281126 242.366129 
L 158.001787 242.038716 
L 154.722448 242.635837 
L 151.44311 244.221833 
L 148.163771 246.801777 
L 144.884432 250.309141 
L 141.605093 254.594651 
L 138.325754 259.41716 
L 135.046415 264.43751 
L 131.767076 269.216513 
L 128.487738 273.218338 
L 125.208399 275.820788 
L 121.92906 276.334125 
L 118.649721 274.030329 
L 115.370382 268.184873 
L 112.091043 258.13336 
L 108.811705 243.345587 
L 105.532366 223.519893 
L 102.253027 198.70091 
L 98.973688 169.424135 
L 95.694349 136.891073 
L 92.41501 103.178989 
L 89.135671 71.489703 
L 85.856333 46.442188 
L 82.576994 34.414125 
L 79.297655 43.937984 
L 76.018316 86.157586 
L 72.738977 175.351575 
z
" clip-path="url(#p51fa1a6b91)" style="fill: #d62728; fill-opacity: 0.166667"/>
   </g>
   <g id="PolyCollection_5">
    <path d="M 72.738977 226.746404 
L 72.738977 255.444958 
L 74.352248 255.444958 
L 75.965519 255.444958 
L 77.578791 255.444958 
L 79.192062 255.444958 
L 80.805333 255.444958 
L 82.418604 255.444958 
L 84.031875 255.444958 
L 85.645146 255.444958 
L 87.258417 255.444958 
L 88.871688 255.444958 
L 90.484959 255.444958 
L 92.09823 255.444958 
L 93.711501 255.444958 
L 95.324773 255.444958 
L 96.938044 255.444958 
L 98.551315 255.444958 
L 100.164586 255.444958 
L 101.777857 255.444958 
L 103.391128 255.444958 
L 105.004399 255.444958 
L 106.61767 255.444958 
L 108.230941 255.444958 
L 109.844212 255.444958 
L 111.457484 255.444958 
L 113.070755 255.444958 
L 114.684026 255.444958 
L 116.297297 255.444958 
L 117.910568 255.444958 
L 119.523839 255.444958 
L 121.13711 255.444958 
L 122.750381 255.444958 
L 124.363652 255.444958 
L 125.976923 255.444958 
L 127.590194 255.444958 
L 129.203466 255.444958 
L 130.816737 255.444958 
L 132.430008 255.444958 
L 134.043279 255.444958 
L 135.65655 255.444958 
L 137.269821 255.444958 
L 138.883092 255.444958 
L 140.496363 255.444958 
L 142.109634 255.444958 
L 143.722905 255.444958 
L 145.336176 255.444958 
L 146.949448 255.444958 
L 148.562719 255.444958 
L 150.17599 255.444958 
L 151.789261 255.444958 
L 153.402532 255.444958 
L 155.015803 255.444958 
L 156.629074 255.444958 
L 158.242345 255.444958 
L 159.855616 255.444958 
L 161.468887 255.444958 
L 163.082158 255.444958 
L 164.69543 255.444958 
L 166.308701 255.444958 
L 167.921972 255.444958 
L 169.535243 255.444958 
L 171.148514 255.444958 
L 172.761785 255.444958 
L 174.375056 255.444958 
L 175.988327 255.444958 
L 177.601598 255.444958 
L 179.214869 255.444958 
L 180.82814 255.444958 
L 182.441412 255.444958 
L 184.054683 255.444958 
L 185.667954 255.444958 
L 187.281225 255.444958 
L 188.894496 255.444958 
L 190.507767 255.444958 
L 192.121038 255.444958 
L 193.734309 255.444958 
L 195.34758 255.444958 
L 196.960851 255.444958 
L 198.574123 255.444958 
L 200.187394 255.444958 
L 201.800665 255.444958 
L 203.413936 255.444958 
L 205.027207 255.444958 
L 206.640478 255.444958 
L 208.253749 255.444958 
L 209.86702 255.444958 
L 211.480291 255.444958 
L 213.093562 255.444958 
L 214.706833 255.444958 
L 216.320105 255.444958 
L 217.933376 255.444958 
L 219.546647 255.444958 
L 221.159918 255.444958 
L 222.773189 255.444958 
L 224.38646 255.444958 
L 225.999731 255.444958 
L 227.613002 255.444958 
L 229.226273 255.444958 
L 230.839544 255.444958 
L 232.452815 255.444958 
L 232.452815 256.943528 
L 232.452815 256.943528 
L 230.839544 254.82133 
L 229.226273 254.154403 
L 227.613002 254.304677 
L 225.999731 254.83156 
L 224.38646 255.447011 
L 222.773189 255.978199 
L 221.159918 256.336809 
L 219.546647 256.49414 
L 217.933376 256.461229 
L 216.320105 256.273267 
L 214.706833 255.977702 
L 213.093562 255.625419 
L 211.480291 255.264511 
L 209.86702 254.936156 
L 208.253749 254.672214 
L 206.640478 254.494174 
L 205.027207 254.413132 
L 203.413936 254.43055 
L 201.800665 254.539539 
L 200.187394 254.726488 
L 198.574123 254.972865 
L 196.960851 255.257059 
L 195.34758 255.55616 
L 193.734309 255.84758 
L 192.121038 256.11048 
L 190.507767 256.326925 
L 188.894496 256.482783 
L 187.281225 256.568325 
L 185.667954 256.578542 
L 184.054683 256.513198 
L 182.441412 256.376632 
L 180.82814 256.177336 
L 179.214869 255.927357 
L 177.601598 255.641545 
L 175.988327 255.336703 
L 174.375056 255.030661 
L 172.761785 254.741338 
L 171.148514 254.485814 
L 169.535243 254.279458 
L 167.921972 254.135145 
L 166.308701 254.062587 
L 164.69543 254.067816 
L 163.082158 254.152825 
L 161.468887 254.31539 
L 159.855616 254.549082 
L 158.242345 254.843465 
L 156.629074 255.184485 
L 155.015803 255.555035 
L 153.402532 255.444934 
L 151.789261 255.443433 
L 150.17599 258.993007 
L 148.562719 258.296784 
L 146.949448 257.436762 
L 145.336176 256.446449 
L 143.722905 255.366605 
L 142.109634 254.243949 
L 140.496363 253.129578 
L 138.883092 252.077136 
L 137.269821 251.140771 
L 135.65655 250.372913 
L 134.043279 249.821955 
L 132.430008 249.52986 
L 130.816737 249.529787 
L 129.203466 249.843793 
L 127.590194 250.480681 
L 125.976923 251.43408 
L 124.363652 252.680824 
L 122.750381 254.179718 
L 121.13711 255.870761 
L 119.523839 257.674909 
L 117.910568 259.494445 
L 116.297297 261.214025 
L 114.684026 262.702472 
L 113.070755 263.815347 
L 111.457484 264.398373 
L 109.844212 264.291708 
L 108.230941 263.335119 
L 106.61767 261.374029 
L 105.004399 258.26644 
L 103.391128 253.890679 
L 101.777857 248.153925 
L 100.164586 241.001405 
L 98.551315 232.426172 
L 96.938044 222.479299 
L 95.324773 211.28032 
L 93.711501 199.027698 
L 92.09823 186.009072 
L 90.484959 172.610968 
L 88.871688 159.327659 
L 87.258417 146.768747 
L 85.645146 135.665051 
L 84.031875 126.872279 
L 82.418604 121.371938 
L 80.805333 120.268844 
L 79.192062 124.784554 
L 77.578791 136.245943 
L 75.965519 156.068107 
L 74.352248 185.730654 
L 72.738977 226.746404 
z
" clip-path="url(#p51fa1a6b91)" style="fill: #9467bd; fill-opacity: 0.166667"/>
   </g>
   <g id="PolyCollection_6">
    <path d="M 72.738977 205.285667 
L 72.738977 255.444958 
L 75.421472 255.444958 
L 78.103967 255.444958 
L 80.786461 255.444958 
L 83.468956 255.444958 
L 86.15145 255.444958 
L 88.833945 255.444958 
L 91.51644 255.444958 
L 94.198934 255.444958 
L 96.881429 255.444958 
L 99.563924 255.444958 
L 102.246418 255.444958 
L 104.928913 255.444958 
L 107.611408 255.444958 
L 110.293902 255.444958 
L 112.976397 255.444958 
L 115.658892 255.444958 
L 118.341386 255.444958 
L 121.023881 255.444958 
L 123.706376 255.444958 
L 126.38887 255.444958 
L 129.071365 255.444958 
L 131.753859 255.444958 
L 134.436354 255.444958 
L 137.118849 255.444958 
L 139.801343 255.444958 
L 142.483838 255.444958 
L 145.166333 255.444958 
L 147.848827 255.444958 
L 150.531322 255.444958 
L 153.213817 255.444958 
L 155.896311 255.444958 
L 158.578806 255.444958 
L 161.261301 255.444958 
L 163.943795 255.444958 
L 166.62629 255.444958 
L 169.308784 255.444958 
L 171.991279 255.444958 
L 174.673774 255.444958 
L 177.356268 255.444958 
L 180.038763 255.444958 
L 182.721258 255.444958 
L 185.403752 255.444958 
L 188.086247 255.444958 
L 190.768742 255.444958 
L 193.451236 255.444958 
L 196.133731 255.444958 
L 198.816226 255.444958 
L 201.49872 255.444958 
L 204.181215 255.444958 
L 206.863709 255.444958 
L 209.546204 255.444958 
L 212.228699 255.444958 
L 214.911193 255.444958 
L 217.593688 255.444958 
L 220.276183 255.444958 
L 222.958677 255.444958 
L 225.641172 255.444958 
L 228.323667 255.444958 
L 231.006161 255.444958 
L 233.688656 255.444958 
L 236.371151 255.444958 
L 239.053645 255.444958 
L 241.73614 255.444958 
L 244.418634 255.444958 
L 247.101129 255.444958 
L 249.783624 255.444958 
L 252.466118 255.444958 
L 255.148613 255.444958 
L 257.831108 255.444958 
L 260.513602 255.444958 
L 263.196097 255.444958 
L 265.878592 255.444958 
L 268.561086 255.444958 
L 271.243581 255.444958 
L 273.926076 255.444958 
L 276.60857 255.444958 
L 279.291065 255.444958 
L 281.973559 255.444958 
L 284.656054 255.444958 
L 287.338549 255.444958 
L 290.021043 255.444958 
L 292.703538 255.444958 
L 295.386033 255.444958 
L 298.068527 255.444958 
L 300.751022 255.444958 
L 303.433517 255.444958 
L 306.116011 255.444958 
L 308.798506 255.444958 
L 311.481001 255.444958 
L 314.163495 255.444958 
L 316.84599 255.444958 
L 319.528485 255.444958 
L 322.210979 255.444958 
L 324.893474 255.444958 
L 327.575968 255.444958 
L 330.258463 255.444958 
L 332.940958 255.444958 
L 335.623452 255.444958 
L 338.305947 255.444958 
L 338.305947 269.933005 
L 338.305947 269.933005 
L 335.623452 251.92222 
L 332.940958 244.929174 
L 330.258463 244.609221 
L 327.575968 247.834672 
L 324.893474 252.442897 
L 322.210979 257.023299 
L 319.528485 260.738759 
L 316.84599 263.177494 
L 314.163495 264.231614 
L 311.481001 263.998972 
L 308.798506 262.705199 
L 306.116011 260.643093 
L 303.433517 258.126809 
L 300.751022 255.458528 
L 298.068527 252.905542 
L 295.386033 250.685892 
L 292.703538 248.960913 
L 290.021043 247.833235 
L 287.338549 247.348961 
L 284.656054 247.50292 
L 281.973559 248.24604 
L 279.291065 249.49402 
L 276.60857 251.136649 
L 273.926076 253.047184 
L 271.243581 255.091353 
L 268.561086 257.135628 
L 265.878592 259.05451 
L 263.196097 260.736634 
L 260.513602 262.089586 
L 257.831108 263.043385 
L 255.148613 263.55263 
L 252.466118 263.597345 
L 249.783624 263.182636 
L 247.101129 262.337251 
L 244.418634 261.11119 
L 241.73614 259.572535 
L 239.053645 257.803655 
L 236.371151 255.896969 
L 233.688656 253.950456 
L 231.006161 252.063074 
L 228.323667 250.330271 
L 225.641172 248.839736 
L 222.958677 247.667549 
L 220.276183 246.874851 
L 217.593688 246.505144 
L 214.911193 246.582315 
L 212.228699 247.109448 
L 209.546204 248.068466 
L 206.863709 255.447566 
L 204.181215 255.44655 
L 201.49872 253.602936 
L 198.816226 255.078971 
L 196.133731 256.61537 
L 193.451236 258.134745 
L 190.768742 259.5576 
L 188.086247 260.805941 
L 185.403752 261.80701 
L 182.721258 262.496999 
L 180.038763 262.824619 
L 177.356268 262.754366 
L 174.673774 262.269336 
L 171.991279 261.373438 
L 169.308784 260.09286 
L 166.62629 258.476663 
L 163.943795 256.596355 
L 161.261301 254.544374 
L 158.578806 252.431372 
L 155.896311 250.382267 
L 153.213817 248.531031 
L 150.531322 247.014256 
L 147.848827 245.963555 
L 145.166333 245.496933 
L 142.483838 245.709311 
L 139.801343 246.662471 
L 137.118849 248.374734 
L 134.436354 250.81082 
L 131.753859 253.872376 
L 129.071365 257.389801 
L 126.38887 261.116095 
L 123.706376 264.723571 
L 121.023881 267.804417 
L 118.341386 269.87622 
L 115.658892 270.393733 
L 112.976397 268.768302 
L 110.293902 264.396576 
L 107.611408 256.70028 
L 104.928913 245.17904 
L 102.246418 229.478463 
L 99.563924 209.475878 
L 96.881429 185.3864 
L 94.198934 157.892213 
L 91.51644 128.298219 
L 88.833945 98.717507 
L 86.15145 72.290345 
L 83.468956 53.440732 
L 80.786461 48.174838 
L 78.103967 64.426025 
L 75.421472 112.451453 
L 72.738977 205.285667 
z
" clip-path="url(#p51fa1a6b91)" style="fill: #8c564b; fill-opacity: 0.166667"/>
   </g>
   <g id="matplotlib.axis_1">
    <g id="xtick_1">
     <g id="line2d_1">
      <defs>
       <path id="m7aa55b2952" d="M 0 0 
L 0 3.5 
" style="stroke: #000000; stroke-width: 0.8"/>
      </defs>
      <g>
       <use xlink:href="#m7aa55b2952" x="72.738977" y="288.430125" style="stroke: #000000; stroke-width: 0.8"/>
      </g>
     </g>
     <g id="text_1">
      <!-- 0.0000 -->
      <g transform="translate(55.243665 303.028562) scale(0.1 -0.1)">
       <defs>
        <path id="DejaVuSans-30" d="M 2034 4250 
Q 1547 4250 1301 3770 
Q 1056 3291 1056 2328 
Q 1056 1369 1301 889 
Q 1547 409 2034 409 
Q 2525 409 2770 889 
Q 3016 1369 3016 2328 
Q 3016 3291 2770 3770 
Q 2525 4250 2034 4250 
z
M 2034 4750 
Q 2819 4750 3233 4129 
Q 3647 3509 3647 2328 
Q 3647 1150 3233 529 
Q 2819 -91 2034 -91 
Q 1250 -91 836 529 
Q 422 1150 422 2328 
Q 422 3509 836 4129 
Q 1250 4750 2034 4750 
z
" transform="scale(0.015625)"/>
        <path id="DejaVuSans-2e" d="M 684 794 
L 1344 794 
L 1344 0 
L 684 0 
L 684 794 
z
" transform="scale(0.015625)"/>
       </defs>
       <use xlink:href="#DejaVuSans-30"/>
       <use xlink:href="#DejaVuSans-2e" x="63.623047"/>
       <use xlink:href="#DejaVuSans-30" x="95.410156"/>
       <use xlink:href="#DejaVuSans-30" x="159.033203"/>
       <use xlink:href="#DejaVuSans-30" x="222.65625"/>
       <use xlink:href="#DejaVuSans-30" x="286.279297"/>
      </g>
     </g>
    </g>
    <g id="xtick_2">
     <g id="line2d_2">
      <g>
       <use xlink:href="#m7aa55b2952" x="117.927271" y="288.430125" style="stroke: #000000; stroke-width: 0.8"/>
      </g>
     </g>
     <g id="text_2">
      <!-- 0.0025 -->
      <g transform="translate(100.431958 303.028562) scale(0.1 -0.1)">
       <defs>
        <path id="DejaVuSans-32" d="M 1228 531 
L 3431 531 
L 3431 0 
L 469 0 
L 469 531 
Q 828 903 1448 1529 
Q 2069 2156 2228 2338 
Q 2531 2678 2651 2914 
Q 2772 3150 2772 3378 
Q 2772 3750 2511 3984 
Q 2250 4219 1831 4219 
Q 1534 4219 1204 4116 
Q 875 4013 500 3803 
L 500 4441 
Q 881 4594 1212 4672 
Q 1544 4750 1819 4750 
Q 2544 4750 2975 4387 
Q 3406 4025 3406 3419 
Q 3406 3131 3298 2873 
Q 3191 2616 2906 2266 
Q 2828 2175 2409 1742 
Q 1991 1309 1228 531 
z
" transform="scale(0.015625)"/>
        <path id="DejaVuSans-35" d="M 691 4666 
L 3169 4666 
L 3169 4134 
L 1269 4134 
L 1269 2991 
Q 1406 3038 1543 3061 
Q 1681 3084 1819 3084 
Q 2600 3084 3056 2656 
Q 3513 2228 3513 1497 
Q 3513 744 3044 326 
Q 2575 -91 1722 -91 
Q 1428 -91 1123 -41 
Q 819 9 494 109 
L 494 744 
Q 775 591 1075 516 
Q 1375 441 1709 441 
Q 2250 441 2565 725 
Q 2881 1009 2881 1497 
Q 2881 1984 2565 2268 
Q 2250 2553 1709 2553 
Q 1456 2553 1204 2497 
Q 953 2441 691 2322 
L 691 4666 
z
" transform="scale(0.015625)"/>
       </defs>
       <use xlink:href="#DejaVuSans-30"/>
       <use xlink:href="#DejaVuSans-2e" x="63.623047"/>
       <use xlink:href="#DejaVuSans-30" x="95.410156"/>
       <use xlink:href="#DejaVuSans-30" x="159.033203"/>
       <use xlink:href="#DejaVuSans-32" x="222.65625"/>
       <use xlink:href="#DejaVuSans-35" x="286.279297"/>
      </g>
     </g>
    </g>
    <g id="xtick_3">
     <g id="line2d_3">
      <g>
       <use xlink:href="#m7aa55b2952" x="163.115564" y="288.430125" style="stroke: #000000; stroke-width: 0.8"/>
      </g>
     </g>
     <g id="text_3">
      <!-- 0.0050 -->
      <g transform="translate(145.620251 303.028562) scale(0.1 -0.1)">
       <use xlink:href="#DejaVuSans-30"/>
       <use xlink:href="#DejaVuSans-2e" x="63.623047"/>
       <use xlink:href="#DejaVuSans-30" x="95.410156"/>
       <use xlink:href="#DejaVuSans-30" x="159.033203"/>
       <use xlink:href="#DejaVuSans-35" x="222.65625"/>
       <use xlink:href="#DejaVuSans-30" x="286.279297"/>
      </g>
     </g>
    </g>
    <g id="xtick_4">
     <g id="line2d_4">
      <g>
       <use xlink:href="#m7aa55b2952" x="208.303857" y="288.430125" style="stroke: #000000; stroke-width: 0.8"/>
      </g>
     </g>
     <g id="text_4">
      <!-- 0.0075 -->
      <g transform="translate(190.808545 303.028562) scale(0.1 -0.1)">
       <defs>
        <path id="DejaVuSans-37" d="M 525 4666 
L 3525 4666 
L 3525 4397 
L 1831 0 
L 1172 0 
L 2766 4134 
L 525 4134 
L 525 4666 
z
" transform="scale(0.015625)"/>
       </defs>
       <use xlink:href="#DejaVuSans-30"/>
       <use xlink:href="#DejaVuSans-2e" x="63.623047"/>
       <use xlink:href="#DejaVuSans-30" x="95.410156"/>
       <use xlink:href="#DejaVuSans-30" x="159.033203"/>
       <use xlink:href="#DejaVuSans-37" x="222.65625"/>
       <use xlink:href="#DejaVuSans-35" x="286.279297"/>
      </g>
     </g>
    </g>
    <g id="xtick_5">
     <g id="line2d_5">
      <g>
       <use xlink:href="#m7aa55b2952" x="253.49215" y="288.430125" style="stroke: #000000; stroke-width: 0.8"/>
      </g>
     </g>
     <g id="text_5">
      <!-- 0.0100 -->
      <g transform="translate(235.996838 303.028562) scale(0.1 -0.1)">
       <defs>
        <path id="DejaVuSans-31" d="M 794 531 
L 1825 531 
L 1825 4091 
L 703 3866 
L 703 4441 
L 1819 4666 
L 2450 4666 
L 2450 531 
L 3481 531 
L 3481 0 
L 794 0 
L 794 531 
z
" transform="scale(0.015625)"/>
       </defs>
       <use xlink:href="#DejaVuSans-30"/>
       <use xlink:href="#DejaVuSans-2e" x="63.623047"/>
       <use xlink:href="#DejaVuSans-30" x="95.410156"/>
       <use xlink:href="#DejaVuSans-31" x="159.033203"/>
       <use xlink:href="#DejaVuSans-30" x="222.65625"/>
       <use xlink:href="#DejaVuSans-30" x="286.279297"/>
      </g>
     </g>
    </g>
    <g id="xtick_6">
     <g id="line2d_6">
      <g>
       <use xlink:href="#m7aa55b2952" x="298.680443" y="288.430125" style="stroke: #000000; stroke-width: 0.8"/>
      </g>
     </g>
     <g id="text_6">
      <!-- 0.0125 -->
      <g transform="translate(281.185131 303.028562) scale(0.1 -0.1)">
       <use xlink:href="#DejaVuSans-30"/>
       <use xlink:href="#DejaVuSans-2e" x="63.623047"/>
       <use xlink:href="#DejaVuSans-30" x="95.410156"/>
       <use xlink:href="#DejaVuSans-31" x="159.033203"/>
       <use xlink:href="#DejaVuSans-32" x="222.65625"/>
       <use xlink:href="#DejaVuSans-35" x="286.279297"/>
      </g>
     </g>
    </g>
    <g id="xtick_7">
     <g id="line2d_7">
      <g>
       <use xlink:href="#m7aa55b2952" x="343.868737" y="288.430125" style="stroke: #000000; stroke-width: 0.8"/>
      </g>
     </g>
     <g id="text_7">
      <!-- 0.0150 -->
      <g transform="translate(326.373424 303.028562) scale(0.1 -0.1)">
       <use xlink:href="#DejaVuSans-30"/>
       <use xlink:href="#DejaVuSans-2e" x="63.623047"/>
       <use xlink:href="#DejaVuSans-30" x="95.410156"/>
       <use xlink:href="#DejaVuSans-31" x="159.033203"/>
       <use xlink:href="#DejaVuSans-35" x="222.65625"/>
       <use xlink:href="#DejaVuSans-30" x="286.279297"/>
      </g>
     </g>
    </g>
    <g id="xtick_8">
     <g id="line2d_8">
      <g>
       <use xlink:href="#m7aa55b2952" x="389.05703" y="288.430125" style="stroke: #000000; stroke-width: 0.8"/>
      </g>
     </g>
     <g id="text_8">
      <!-- 0.0175 -->
      <g transform="translate(371.561717 303.028562) scale(0.1 -0.1)">
       <use xlink:href="#DejaVuSans-30"/>
       <use xlink:href="#DejaVuSans-2e" x="63.623047"/>
       <use xlink:href="#DejaVuSans-30" x="95.410156"/>
       <use xlink:href="#DejaVuSans-31" x="159.033203"/>
       <use xlink:href="#DejaVuSans-37" x="222.65625"/>
       <use xlink:href="#DejaVuSans-35" x="286.279297"/>
      </g>
     </g>
    </g>
    <g id="text_9">
     <!-- Pixel values -->
     <g transform="translate(205.654531 316.706687) scale(0.1 -0.1)">
      <defs>
       <path id="DejaVuSans-50" d="M 1259 4147 
L 1259 2394 
L 2053 2394 
Q 2494 2394 2734 2622 
Q 2975 2850 2975 3272 
Q 2975 3691 2734 3919 
Q 2494 4147 2053 4147 
L 1259 4147 
z
M 628 4666 
L 2053 4666 
Q 2838 4666 3239 4311 
Q 3641 3956 3641 3272 
Q 3641 2581 3239 2228 
Q 2838 1875 2053 1875 
L 1259 1875 
L 1259 0 
L 628 0 
L 628 4666 
z
" transform="scale(0.015625)"/>
       <path id="DejaVuSans-69" d="M 603 3500 
L 1178 3500 
L 1178 0 
L 603 0 
L 603 3500 
z
M 603 4863 
L 1178 4863 
L 1178 4134 
L 603 4134 
L 603 4863 
z
" transform="scale(0.015625)"/>
       <path id="DejaVuSans-78" d="M 3513 3500 
L 2247 1797 
L 3578 0 
L 2900 0 
L 1881 1375 
L 863 0 
L 184 0 
L 1544 1831 
L 300 3500 
L 978 3500 
L 1906 2253 
L 2834 3500 
L 3513 3500 
z
" transform="scale(0.015625)"/>
       <path id="DejaVuSans-65" d="M 3597 1894 
L 3597 1613 
L 953 1613 
Q 991 1019 1311 708 
Q 1631 397 2203 397 
Q 2534 397 2845 478 
Q 3156 559 3463 722 
L 3463 178 
Q 3153 47 2828 -22 
Q 2503 -91 2169 -91 
Q 1331 -91 842 396 
Q 353 884 353 1716 
Q 353 2575 817 3079 
Q 1281 3584 2069 3584 
Q 2775 3584 3186 3129 
Q 3597 2675 3597 1894 
z
M 3022 2063 
Q 3016 2534 2758 2815 
Q 2500 3097 2075 3097 
Q 1594 3097 1305 2825 
Q 1016 2553 972 2059 
L 3022 2063 
z
" transform="scale(0.015625)"/>
       <path id="DejaVuSans-6c" d="M 603 4863 
L 1178 4863 
L 1178 0 
L 603 0 
L 603 4863 
z
" transform="scale(0.015625)"/>
       <path id="DejaVuSans-20" transform="scale(0.015625)"/>
       <path id="DejaVuSans-76" d="M 191 3500 
L 800 3500 
L 1894 563 
L 2988 3500 
L 3597 3500 
L 2284 0 
L 1503 0 
L 191 3500 
z
" transform="scale(0.015625)"/>
       <path id="DejaVuSans-61" d="M 2194 1759 
Q 1497 1759 1228 1600 
Q 959 1441 959 1056 
Q 959 750 1161 570 
Q 1363 391 1709 391 
Q 2188 391 2477 730 
Q 2766 1069 2766 1631 
L 2766 1759 
L 2194 1759 
z
M 3341 1997 
L 3341 0 
L 2766 0 
L 2766 531 
Q 2569 213 2275 61 
Q 1981 -91 1556 -91 
Q 1019 -91 701 211 
Q 384 513 384 1019 
Q 384 1609 779 1909 
Q 1175 2209 1959 2209 
L 2766 2209 
L 2766 2266 
Q 2766 2663 2505 2880 
Q 2244 3097 1772 3097 
Q 1472 3097 1187 3025 
Q 903 2953 641 2809 
L 641 3341 
Q 956 3463 1253 3523 
Q 1550 3584 1831 3584 
Q 2591 3584 2966 3190 
Q 3341 2797 3341 1997 
z
" transform="scale(0.015625)"/>
       <path id="DejaVuSans-75" d="M 544 1381 
L 544 3500 
L 1119 3500 
L 1119 1403 
Q 1119 906 1312 657 
Q 1506 409 1894 409 
Q 2359 409 2629 706 
Q 2900 1003 2900 1516 
L 2900 3500 
L 3475 3500 
L 3475 0 
L 2900 0 
L 2900 538 
Q 2691 219 2414 64 
Q 2138 -91 1772 -91 
Q 1169 -91 856 284 
Q 544 659 544 1381 
z
M 1991 3584 
L 1991 3584 
z
" transform="scale(0.015625)"/>
       <path id="DejaVuSans-73" d="M 2834 3397 
L 2834 2853 
Q 2591 2978 2328 3040 
Q 2066 3103 1784 3103 
Q 1356 3103 1142 2972 
Q 928 2841 928 2578 
Q 928 2378 1081 2264 
Q 1234 2150 1697 2047 
L 1894 2003 
Q 2506 1872 2764 1633 
Q 3022 1394 3022 966 
Q 3022 478 2636 193 
Q 2250 -91 1575 -91 
Q 1294 -91 989 -36 
Q 684 19 347 128 
L 347 722 
Q 666 556 975 473 
Q 1284 391 1588 391 
Q 1994 391 2212 530 
Q 2431 669 2431 922 
Q 2431 1156 2273 1281 
Q 2116 1406 1581 1522 
L 1381 1569 
Q 847 1681 609 1914 
Q 372 2147 372 2553 
Q 372 3047 722 3315 
Q 1072 3584 1716 3584 
Q 2034 3584 2315 3537 
Q 2597 3491 2834 3397 
z
" transform="scale(0.015625)"/>
      </defs>
      <use xlink:href="#DejaVuSans-50"/>
      <use xlink:href="#DejaVuSans-69" x="58.052734"/>
      <use xlink:href="#DejaVuSans-78" x="85.835938"/>
      <use xlink:href="#DejaVuSans-65" x="141.890625"/>
      <use xlink:href="#DejaVuSans-6c" x="203.414062"/>
      <use xlink:href="#DejaVuSans-20" x="231.197266"/>
      <use xlink:href="#DejaVuSans-76" x="262.984375"/>
      <use xlink:href="#DejaVuSans-61" x="322.164062"/>
      <use xlink:href="#DejaVuSans-6c" x="383.443359"/>
      <use xlink:href="#DejaVuSans-75" x="411.226562"/>
      <use xlink:href="#DejaVuSans-65" x="474.605469"/>
      <use xlink:href="#DejaVuSans-73" x="536.128906"/>
     </g>
    </g>
   </g>
   <g id="matplotlib.axis_2">
    <g id="ytick_1">
     <g id="line2d_9">
      <defs>
       <path id="maf01cfb370" d="M 0 0 
L -3.5 0 
" style="stroke: #000000; stroke-width: 0.8"/>
      </defs>
      <g>
       <use xlink:href="#maf01cfb370" x="56.50625" y="255.444958" style="stroke: #000000; stroke-width: 0.8"/>
      </g>
     </g>
     <g id="text_10">
      <!-- 0.000 -->
      <g transform="translate(20.878125 259.244176) scale(0.1 -0.1)">
       <use xlink:href="#DejaVuSans-30"/>
       <use xlink:href="#DejaVuSans-2e" x="63.623047"/>
       <use xlink:href="#DejaVuSans-30" x="95.410156"/>
       <use xlink:href="#DejaVuSans-30" x="159.033203"/>
       <use xlink:href="#DejaVuSans-30" x="222.65625"/>
      </g>
     </g>
    </g>
    <g id="ytick_2">
     <g id="line2d_10">
      <g>
       <use xlink:href="#maf01cfb370" x="56.50625" y="218.701761" style="stroke: #000000; stroke-width: 0.8"/>
      </g>
     </g>
     <g id="text_11">
      <!-- 0.025 -->
      <g transform="translate(20.878125 222.500979) scale(0.1 -0.1)">
       <use xlink:href="#DejaVuSans-30"/>
       <use xlink:href="#DejaVuSans-2e" x="63.623047"/>
       <use xlink:href="#DejaVuSans-30" x="95.410156"/>
       <use xlink:href="#DejaVuSans-32" x="159.033203"/>
       <use xlink:href="#DejaVuSans-35" x="222.65625"/>
      </g>
     </g>
    </g>
    <g id="ytick_3">
     <g id="line2d_11">
      <g>
       <use xlink:href="#maf01cfb370" x="56.50625" y="181.958564" style="stroke: #000000; stroke-width: 0.8"/>
      </g>
     </g>
     <g id="text_12">
      <!-- 0.050 -->
      <g transform="translate(20.878125 185.757783) scale(0.1 -0.1)">
       <use xlink:href="#DejaVuSans-30"/>
       <use xlink:href="#DejaVuSans-2e" x="63.623047"/>
       <use xlink:href="#DejaVuSans-30" x="95.410156"/>
       <use xlink:href="#DejaVuSans-35" x="159.033203"/>
       <use xlink:href="#DejaVuSans-30" x="222.65625"/>
      </g>
     </g>
    </g>
    <g id="ytick_4">
     <g id="line2d_12">
      <g>
       <use xlink:href="#maf01cfb370" x="56.50625" y="145.215367" style="stroke: #000000; stroke-width: 0.8"/>
      </g>
     </g>
     <g id="text_13">
      <!-- 0.075 -->
      <g transform="translate(20.878125 149.014586) scale(0.1 -0.1)">
       <use xlink:href="#DejaVuSans-30"/>
       <use xlink:href="#DejaVuSans-2e" x="63.623047"/>
       <use xlink:href="#DejaVuSans-30" x="95.410156"/>
       <use xlink:href="#DejaVuSans-37" x="159.033203"/>
       <use xlink:href="#DejaVuSans-35" x="222.65625"/>
      </g>
     </g>
    </g>
    <g id="ytick_5">
     <g id="line2d_13">
      <g>
       <use xlink:href="#maf01cfb370" x="56.50625" y="108.47217" style="stroke: #000000; stroke-width: 0.8"/>
      </g>
     </g>
     <g id="text_14">
      <!-- 0.100 -->
      <g transform="translate(20.878125 112.271389) scale(0.1 -0.1)">
       <use xlink:href="#DejaVuSans-30"/>
       <use xlink:href="#DejaVuSans-2e" x="63.623047"/>
       <use xlink:href="#DejaVuSans-31" x="95.410156"/>
       <use xlink:href="#DejaVuSans-30" x="159.033203"/>
       <use xlink:href="#DejaVuSans-30" x="222.65625"/>
      </g>
     </g>
    </g>
    <g id="ytick_6">
     <g id="line2d_14">
      <g>
       <use xlink:href="#maf01cfb370" x="56.50625" y="71.728973" style="stroke: #000000; stroke-width: 0.8"/>
      </g>
     </g>
     <g id="text_15">
      <!-- 0.125 -->
      <g transform="translate(20.878125 75.528192) scale(0.1 -0.1)">
       <use xlink:href="#DejaVuSans-30"/>
       <use xlink:href="#DejaVuSans-2e" x="63.623047"/>
       <use xlink:href="#DejaVuSans-31" x="95.410156"/>
       <use xlink:href="#DejaVuSans-32" x="159.033203"/>
       <use xlink:href="#DejaVuSans-35" x="222.65625"/>
      </g>
     </g>
    </g>
    <g id="ytick_7">
     <g id="line2d_15">
      <g>
       <use xlink:href="#maf01cfb370" x="56.50625" y="34.985776" style="stroke: #000000; stroke-width: 0.8"/>
      </g>
     </g>
     <g id="text_16">
      <!-- 0.150 -->
      <g transform="translate(20.878125 38.784995) scale(0.1 -0.1)">
       <use xlink:href="#DejaVuSans-30"/>
       <use xlink:href="#DejaVuSans-2e" x="63.623047"/>
       <use xlink:href="#DejaVuSans-31" x="95.410156"/>
       <use xlink:href="#DejaVuSans-35" x="159.033203"/>
       <use xlink:href="#DejaVuSans-30" x="222.65625"/>
      </g>
     </g>
    </g>
    <g id="text_17">
     <!-- Frequency -->
     <g transform="translate(14.798437 181.203812) rotate(-90) scale(0.1 -0.1)">
      <defs>
       <path id="DejaVuSans-46" d="M 628 4666 
L 3309 4666 
L 3309 4134 
L 1259 4134 
L 1259 2759 
L 3109 2759 
L 3109 2228 
L 1259 2228 
L 1259 0 
L 628 0 
L 628 4666 
z
" transform="scale(0.015625)"/>
       <path id="DejaVuSans-72" d="M 2631 2963 
Q 2534 3019 2420 3045 
Q 2306 3072 2169 3072 
Q 1681 3072 1420 2755 
Q 1159 2438 1159 1844 
L 1159 0 
L 581 0 
L 581 3500 
L 1159 3500 
L 1159 2956 
Q 1341 3275 1631 3429 
Q 1922 3584 2338 3584 
Q 2397 3584 2469 3576 
Q 2541 3569 2628 3553 
L 2631 2963 
z
" transform="scale(0.015625)"/>
       <path id="DejaVuSans-71" d="M 947 1747 
Q 947 1113 1208 752 
Q 1469 391 1925 391 
Q 2381 391 2643 752 
Q 2906 1113 2906 1747 
Q 2906 2381 2643 2742 
Q 2381 3103 1925 3103 
Q 1469 3103 1208 2742 
Q 947 2381 947 1747 
z
M 2906 525 
Q 2725 213 2448 61 
Q 2172 -91 1784 -91 
Q 1150 -91 751 415 
Q 353 922 353 1747 
Q 353 2572 751 3078 
Q 1150 3584 1784 3584 
Q 2172 3584 2448 3432 
Q 2725 3281 2906 2969 
L 2906 3500 
L 3481 3500 
L 3481 -1331 
L 2906 -1331 
L 2906 525 
z
" transform="scale(0.015625)"/>
       <path id="DejaVuSans-6e" d="M 3513 2113 
L 3513 0 
L 2938 0 
L 2938 2094 
Q 2938 2591 2744 2837 
Q 2550 3084 2163 3084 
Q 1697 3084 1428 2787 
Q 1159 2491 1159 1978 
L 1159 0 
L 581 0 
L 581 3500 
L 1159 3500 
L 1159 2956 
Q 1366 3272 1645 3428 
Q 1925 3584 2291 3584 
Q 2894 3584 3203 3211 
Q 3513 2838 3513 2113 
z
" transform="scale(0.015625)"/>
       <path id="DejaVuSans-63" d="M 3122 3366 
L 3122 2828 
Q 2878 2963 2633 3030 
Q 2388 3097 2138 3097 
Q 1578 3097 1268 2742 
Q 959 2388 959 1747 
Q 959 1106 1268 751 
Q 1578 397 2138 397 
Q 2388 397 2633 464 
Q 2878 531 3122 666 
L 3122 134 
Q 2881 22 2623 -34 
Q 2366 -91 2075 -91 
Q 1284 -91 818 406 
Q 353 903 353 1747 
Q 353 2603 823 3093 
Q 1294 3584 2113 3584 
Q 2378 3584 2631 3529 
Q 2884 3475 3122 3366 
z
" transform="scale(0.015625)"/>
       <path id="DejaVuSans-79" d="M 2059 -325 
Q 1816 -950 1584 -1140 
Q 1353 -1331 966 -1331 
L 506 -1331 
L 506 -850 
L 844 -850 
Q 1081 -850 1212 -737 
Q 1344 -625 1503 -206 
L 1606 56 
L 191 3500 
L 800 3500 
L 1894 763 
L 2988 3500 
L 3597 3500 
L 2059 -325 
z
" transform="scale(0.015625)"/>
      </defs>
      <use xlink:href="#DejaVuSans-46"/>
      <use xlink:href="#DejaVuSans-72" x="50.269531"/>
      <use xlink:href="#DejaVuSans-65" x="89.132812"/>
      <use xlink:href="#DejaVuSans-71" x="150.65625"/>
      <use xlink:href="#DejaVuSans-75" x="214.132812"/>
      <use xlink:href="#DejaVuSans-65" x="277.511719"/>
      <use xlink:href="#DejaVuSans-6e" x="339.035156"/>
      <use xlink:href="#DejaVuSans-63" x="402.414062"/>
      <use xlink:href="#DejaVuSans-79" x="457.394531"/>
     </g>
    </g>
   </g>
   <g id="line2d_16">
    <path d="M 72.738977 197.681536 
L 74.709271 179.927379 
L 76.679565 164.148984 
L 78.649859 151.414731 
L 80.620152 142.295235 
L 82.590446 136.978749 
L 84.56074 135.368706 
L 86.531034 137.165339 
L 88.501327 141.93318 
L 90.471621 149.156096 
L 92.441915 158.28139 
L 94.412209 168.754363 
L 96.382503 180.044638 
L 98.352796 191.665393 
L 100.32309 203.186589 
L 102.293384 214.243136 
L 104.263678 224.538883 
L 106.233971 233.847194 
L 108.204265 242.00882 
L 110.174559 248.927665 
L 112.144853 254.565 
L 114.115147 258.932598 
L 116.08544 262.085186 
L 118.055734 264.112577 
L 120.026028 265.131772 
L 121.996322 265.279274 
L 123.966615 264.703815 
L 125.936909 263.559651 
L 127.907203 262.000539 
L 129.877497 260.174495 
L 131.847791 258.219361 
L 133.818084 256.259224 
L 135.788378 254.401691 
L 137.758672 252.735986 
L 139.728966 251.331838 
L 141.699259 250.239116 
L 143.669553 249.488136 
L 145.639847 249.090568 
L 147.610141 249.040864 
L 149.580435 249.318121 
L 151.550728 249.888286 
L 153.521022 250.706611 
L 155.491316 251.720277 
L 157.46161 252.871094 
L 159.431903 254.098185 
L 161.402197 255.340599 
L 163.372491 256.539752 
L 165.342785 257.641661 
L 167.313078 258.598892 
L 169.283372 255.443311 
L 171.253666 255.444541 
L 173.22396 256.484137 
L 175.194254 256.383058 
L 177.164547 256.240732 
L 179.134841 256.066687 
L 181.105135 255.871295 
L 183.075429 255.665282 
L 185.045722 255.459252 
L 187.016016 255.263241 
L 188.98631 255.08632 
L 190.956604 254.936248 
L 192.926898 254.819194 
L 194.897191 254.73953 
L 196.867485 254.6997 
L 198.837779 254.700169 
L 200.808073 254.739453 
L 202.778366 254.814225 
L 204.74866 254.919498 
L 206.718954 255.04887 
L 208.689248 255.194834 
L 210.659542 255.349133 
L 212.629835 255.503149 
L 214.600129 255.648325 
L 216.570423 255.776579 
L 218.540717 255.880725 
L 220.51101 255.95486 
L 222.481304 255.994712 
L 224.451598 255.99793 
L 226.421892 255.964297 
L 228.392186 255.895854 
L 230.362479 255.796915 
L 232.332773 255.673971 
L 234.303067 255.535454 
L 236.273361 255.391384 
L 238.243654 255.252858 
L 240.213948 255.131415 
L 242.184242 255.038264 
L 244.154536 254.983392 
L 246.124829 254.974568 
L 248.095123 255.016271 
L 250.065417 255.108572 
L 252.035711 255.24601 
L 254.006005 255.416522 
L 255.976298 255.600477 
L 257.946592 255.769892 
L 259.916886 255.887926 
L 261.88718 255.908736 
L 263.857473 255.777816 
L 265.827767 255.432956 
L 267.798061 254.805951 
" clip-path="url(#p51fa1a6b91)" style="fill: none; stroke: #1f77b4; stroke-width: 1.5; stroke-linecap: square"/>
   </g>
   <g id="line2d_17">
    <path d="M 72.738977 231.949382 
L 74.773597 147.506139 
L 76.808217 98.804407 
L 78.842837 76.386621 
L 80.877457 72.658615 
L 82.912077 81.604977 
L 84.946697 98.538156 
L 86.981317 119.878276 
L 89.015937 142.960835 
L 91.050557 165.86962 
L 93.085177 187.292394 
L 95.119797 206.397031 
L 97.154417 222.725987 
L 99.189037 236.107123 
L 101.223657 246.579043 
L 103.258277 254.329292 
L 105.292897 259.643822 
L 107.327517 262.866347 
L 109.362137 264.366262 
L 111.396757 264.513953 
L 113.431377 263.662418 
L 115.465997 262.134232 
L 117.500617 260.212979 
L 119.535237 258.138366 
L 121.569857 256.104323 
L 123.604477 254.259464 
L 125.639097 252.709371 
L 127.673717 251.520224 
L 129.708337 250.723357 
L 131.742957 250.320404 
L 133.777577 250.288723 
L 135.812197 250.586859 
L 137.846817 251.159837 
L 139.881437 251.944141 
L 141.916057 252.872231 
L 143.950677 253.876534 
L 145.985297 254.892837 
L 148.019917 255.863052 
L 150.054537 256.737346 
L 152.089157 257.475639 
L 154.123777 258.048516 
L 156.158398 258.437565 
L 158.193018 258.635227 
L 160.227638 258.644191 
L 162.262258 258.476417 
L 164.296878 258.151859 
L 166.331498 257.696953 
L 168.366118 257.142952 
L 170.400738 256.524178 
L 172.435358 255.445116 
L 174.469978 255.4468 
L 176.504598 250.343262 
L 178.539218 249.40859 
L 180.573838 248.799073 
L 182.608458 248.538755 
L 184.643078 248.6347 
L 186.677698 249.076899 
L 188.712318 249.838878 
L 190.746938 250.878981 
L 192.781558 252.142271 
L 194.816178 253.563008 
L 196.850798 255.067599 
L 198.885418 256.577928 
L 200.920038 258.01495 
L 202.954658 259.30242 
L 204.989278 260.370614 
L 207.023898 261.159905 
L 209.058518 261.624032 
L 211.093138 261.732919 
L 213.127758 261.474905 
L 215.162378 260.858231 
L 217.196998 259.911674 
L 219.231618 258.684219 
L 221.266238 257.243682 
L 223.300858 255.674242 
L 225.335478 254.072861 
L 227.370098 252.544619 
L 229.404718 251.197046 
L 231.439338 250.133584 
L 233.473958 249.44637 
L 235.508578 249.208631 
L 237.543198 249.467028 
L 239.577818 250.234392 
L 241.612438 251.483414 
L 243.647058 253.141917 
L 245.681678 255.090491 
L 247.716298 257.163394 
L 249.750918 259.153749 
L 251.785538 260.824222 
L 253.820158 261.924543 
L 255.854778 262.217381 
L 257.889398 261.514283 
L 259.924018 259.723587 
L 261.958638 256.912419 
L 263.993258 253.385103 
L 266.027878 249.780587 
L 268.062498 247.191673 
L 270.097118 247.309166 
L 272.131738 252.594307 
L 274.166358 266.483141 
" clip-path="url(#p51fa1a6b91)" style="fill: none; stroke: #ff7f0e; stroke-width: 1.5; stroke-linecap: square"/>
   </g>
   <g id="line2d_18">
    <path d="M 72.738977 189.578676 
L 74.344358 193.913539 
L 75.949739 190.306461 
L 77.55512 182.540357 
L 79.160501 173.360292 
L 80.765882 164.671085 
L 82.371263 157.70741 
L 83.976644 153.179192 
L 85.582025 151.394883 
L 87.187406 152.365044 
L 88.792787 155.88844 
L 90.398168 161.622717 
L 92.00355 169.141543 
L 93.608931 177.979935 
L 95.214312 187.66938 
L 96.819693 197.764156 
L 98.425074 207.860201 
L 100.030455 217.607684 
L 101.635836 226.718363 
L 103.241217 234.968673 
L 104.846598 242.199398 
L 106.451979 248.312685 
L 108.05736 253.267052 
L 109.662741 257.070971 
L 111.268122 259.775531 
L 112.873503 261.466589 
L 114.478884 262.256783 
L 116.084265 262.277695 
L 117.689646 261.672407 
L 119.295027 260.588629 
L 120.900408 259.172562 
L 122.505789 257.563566 
L 124.11117 255.889726 
L 125.716551 254.264323 
L 127.321932 252.783227 
L 128.927313 251.523182 
L 130.532694 250.540933 
L 132.138075 249.873149 
L 133.743456 249.537049 
L 135.348837 249.531653 
L 136.954218 249.839566 
L 138.559599 250.429182 
L 140.16498 251.25722 
L 141.770361 252.271479 
L 143.375742 253.413707 
L 144.981123 254.622505 
L 146.586504 255.836149 
L 148.191885 256.995262 
L 149.797266 258.045251 
L 151.402647 255.443428 
L 153.008028 255.444459 
L 154.613409 256.701681 
L 156.21879 256.787273 
L 157.824171 256.802664 
L 159.429552 256.749267 
L 161.034933 256.631595 
L 162.640314 256.456987 
L 164.245695 256.235222 
L 165.851076 255.97806 
L 167.456457 255.69871 
L 169.061838 255.41125 
L 170.667219 255.130009 
L 172.272601 254.86895 
L 173.877982 254.641053 
L 175.483363 254.457726 
L 177.088744 254.328278 
L 178.694125 254.259456 
L 180.299506 254.255069 
L 181.904887 254.315734 
L 183.510268 254.438731 
L 185.115649 254.618006 
L 186.72103 254.844321 
L 188.326411 255.10555 
L 189.931792 255.387141 
L 191.537173 255.67273 
L 193.142554 255.944887 
L 194.747935 256.186013 
L 196.353316 256.379324 
L 197.958697 256.509924 
L 199.564078 256.565913 
L 201.169459 256.539487 
L 202.77484 256.427965 
L 204.380221 256.234686 
L 205.985602 255.969676 
L 207.590983 255.650012 
L 209.196364 255.299756 
L 210.801745 254.949337 
L 212.407126 254.634262 
L 214.012507 254.392965 
L 215.617888 254.263655 
L 217.223269 254.279939 
L 218.82865 254.465031 
L 220.434031 254.82429 
L 222.039412 255.335847 
L 223.644793 255.939031 
L 225.250174 256.520285 
L 226.855555 256.896245 
L 228.460936 256.793622 
L 230.066317 255.825497 
L 231.671698 253.463601 
" clip-path="url(#p51fa1a6b91)" style="fill: none; stroke: #2ca02c; stroke-width: 1.5; stroke-linecap: square"/>
   </g>
   <g id="line2d_19">
    <path d="M 72.738977 175.351575 
L 76.018316 86.157586 
L 79.297655 43.937984 
L 82.576994 34.414125 
L 85.856333 46.442188 
L 89.135671 71.489703 
L 92.41501 103.178989 
L 95.694349 136.891073 
L 98.973688 169.424135 
L 102.253027 198.70091 
L 105.532366 223.519893 
L 108.811705 243.345587 
L 112.091043 258.13336 
L 115.370382 268.184873 
L 118.649721 274.030329 
L 121.92906 276.334125 
L 125.208399 275.820788 
L 128.487738 273.218338 
L 131.767076 269.216513 
L 135.046415 264.43751 
L 138.325754 259.41716 
L 141.605093 254.594651 
L 144.884432 250.309141 
L 148.163771 246.801777 
L 151.44311 244.221833 
L 154.722448 242.635837 
L 158.001787 242.038716 
L 161.281126 242.366129 
L 164.560465 243.507293 
L 167.839804 245.317734 
L 171.119143 247.631483 
L 174.398481 250.272365 
L 177.67782 253.064106 
L 180.957159 255.839053 
L 184.236498 258.445396 
L 187.515837 260.752833 
L 190.795176 262.656662 
L 194.074514 264.080359 
L 197.353853 264.976713 
L 200.633192 265.327639 
L 203.912531 265.142806 
L 207.19187 264.457246 
L 210.471209 263.328118 
L 213.750548 261.830807 
L 217.029886 260.05455 
L 220.309225 258.097776 
L 223.588564 256.063337 
L 226.867903 254.05381 
L 230.147242 252.167022 
L 233.426581 255.447249 
L 236.705919 255.4479 
L 239.985258 247.072498 
L 243.264597 246.118702 
L 246.543936 245.64163 
L 249.823275 245.655896 
L 253.102614 246.153308 
L 256.381952 247.103452 
L 259.661291 248.455162 
L 262.94063 250.138804 
L 266.219969 252.069316 
L 269.499308 254.1499 
L 272.778647 256.276239 
L 276.057986 258.341109 
L 279.337324 260.239213 
L 282.616663 261.872084 
L 285.896002 263.152855 
L 289.175341 264.01073 
L 292.45468 264.39494 
L 295.734019 264.278023 
L 299.013357 263.658231 
L 302.292696 262.560901 
L 305.572035 261.038657 
L 308.851374 259.17031 
L 312.130713 257.058375 
L 315.410052 254.825173 
L 318.68939 252.6075 
L 321.968729 250.549945 
L 325.248068 248.796981 
L 328.527407 247.484019 
L 331.806746 246.727733 
L 335.086085 246.616014 
L 338.365424 247.198068 
L 341.644762 248.475232 
L 344.924101 250.393263 
L 348.20344 252.836947 
L 351.482779 255.62807 
L 354.762118 258.527915 
L 358.041457 261.245659 
L 361.320795 263.454212 
L 364.600134 264.815257 
L 367.879473 265.015467 
L 371.158812 263.816096 
L 374.438151 261.118405 
L 377.71749 257.047642 
L 380.996829 252.058568 
L 384.276167 247.065832 
L 387.555506 243.602797 
L 390.834845 244.012752 
L 394.114184 251.676815 
L 397.393523 271.283152 
" clip-path="url(#p51fa1a6b91)" style="fill: none; stroke: #d62728; stroke-width: 1.5; stroke-linecap: square"/>
   </g>
   <g id="line2d_20">
    <path d="M 72.738977 226.746404 
L 74.352248 185.730654 
L 75.965519 156.068107 
L 77.578791 136.245943 
L 79.192062 124.784554 
L 80.805333 120.268844 
L 82.418604 121.371938 
L 84.031875 126.872279 
L 85.645146 135.665051 
L 87.258417 146.768747 
L 88.871688 159.327659 
L 90.484959 172.610968 
L 92.09823 186.009072 
L 93.711501 199.027698 
L 95.324773 211.28032 
L 96.938044 222.479299 
L 98.551315 232.426172 
L 100.164586 241.001405 
L 101.777857 248.153925 
L 103.391128 253.890679 
L 105.004399 258.26644 
L 106.61767 261.374029 
L 108.230941 263.335119 
L 109.844212 264.291708 
L 111.457484 264.398373 
L 113.070755 263.815347 
L 114.684026 262.702472 
L 116.297297 261.214025 
L 117.910568 259.494445 
L 119.523839 257.674909 
L 121.13711 255.870761 
L 122.750381 254.179718 
L 124.363652 252.680824 
L 125.976923 251.43408 
L 127.590194 250.480681 
L 129.203466 249.843793 
L 130.816737 249.529787 
L 132.430008 249.52986 
L 134.043279 249.821955 
L 135.65655 250.372913 
L 137.269821 251.140771 
L 138.883092 252.077136 
L 140.496363 253.129578 
L 142.109634 254.243949 
L 143.722905 255.366605 
L 145.336176 256.446449 
L 146.949448 257.436762 
L 148.562719 258.296784 
L 150.17599 258.993007 
L 151.789261 255.443433 
L 153.402532 255.444934 
L 155.015803 255.555035 
L 156.629074 255.184485 
L 158.242345 254.843465 
L 159.855616 254.549082 
L 161.468887 254.31539 
L 163.082158 254.152825 
L 164.69543 254.067816 
L 166.308701 254.062587 
L 167.921972 254.135145 
L 169.535243 254.279458 
L 171.148514 254.485814 
L 172.761785 254.741338 
L 174.375056 255.030661 
L 175.988327 255.336703 
L 177.601598 255.641545 
L 179.214869 255.927357 
L 180.82814 256.177336 
L 182.441412 256.376632 
L 184.054683 256.513198 
L 185.667954 256.578542 
L 187.281225 256.568325 
L 188.894496 256.482783 
L 190.507767 256.326925 
L 192.121038 256.11048 
L 193.734309 255.84758 
L 195.34758 255.55616 
L 196.960851 255.257059 
L 198.574123 254.972865 
L 200.187394 254.726488 
L 201.800665 254.539539 
L 203.413936 254.43055 
L 205.027207 254.413132 
L 206.640478 254.494174 
L 208.253749 254.672214 
L 209.86702 254.936156 
L 211.480291 255.264511 
L 213.093562 255.625419 
L 214.706833 255.977702 
L 216.320105 256.273267 
L 217.933376 256.461229 
L 219.546647 256.49414 
L 221.159918 256.336809 
L 222.773189 255.978199 
L 224.38646 255.447011 
L 225.999731 254.83156 
L 227.613002 254.304677 
L 229.226273 254.154403 
L 230.839544 254.82133 
L 232.452815 256.943528 
" clip-path="url(#p51fa1a6b91)" style="fill: none; stroke: #9467bd; stroke-width: 1.5; stroke-linecap: square"/>
   </g>
   <g id="line2d_21">
    <path d="M 72.738977 205.285667 
L 75.421472 112.451453 
L 78.103967 64.426025 
L 80.786461 48.174838 
L 83.468956 53.440732 
L 86.15145 72.290345 
L 88.833945 98.717507 
L 91.51644 128.298219 
L 94.198934 157.892213 
L 96.881429 185.3864 
L 99.563924 209.475878 
L 102.246418 229.478463 
L 104.928913 245.17904 
L 107.611408 256.70028 
L 110.293902 264.396576 
L 112.976397 268.768302 
L 115.658892 270.393733 
L 118.341386 269.87622 
L 121.023881 267.804417 
L 123.706376 264.723571 
L 126.38887 261.116095 
L 129.071365 257.389801 
L 131.753859 253.872376 
L 134.436354 250.81082 
L 137.118849 248.374734 
L 139.801343 246.662471 
L 142.483838 245.709311 
L 145.166333 245.496933 
L 147.848827 245.963555 
L 150.531322 247.014256 
L 153.213817 248.531031 
L 155.896311 250.382267 
L 158.578806 252.431372 
L 161.261301 254.544374 
L 163.943795 256.596355 
L 166.62629 258.476663 
L 169.308784 260.09286 
L 171.991279 261.373438 
L 174.673774 262.269336 
L 177.356268 262.754366 
L 180.038763 262.824619 
L 182.721258 262.496999 
L 185.403752 261.80701 
L 188.086247 260.805941 
L 190.768742 259.5576 
L 193.451236 258.134745 
L 196.133731 256.61537 
L 198.816226 255.078971 
L 201.49872 253.602936 
L 204.181215 255.44655 
L 206.863709 255.447566 
L 209.546204 248.068466 
L 212.228699 247.109448 
L 214.911193 246.582315 
L 217.593688 246.505144 
L 220.276183 246.874851 
L 222.958677 247.667549 
L 225.641172 248.839736 
L 228.323667 250.330271 
L 231.006161 252.063074 
L 233.688656 253.950456 
L 236.371151 255.896969 
L 239.053645 257.803655 
L 241.73614 259.572535 
L 244.418634 261.11119 
L 247.101129 262.337251 
L 249.783624 263.182636 
L 252.466118 263.597345 
L 255.148613 263.55263 
L 257.831108 263.043385 
L 260.513602 262.089586 
L 263.196097 260.736634 
L 265.878592 259.05451 
L 268.561086 257.135628 
L 271.243581 255.091353 
L 273.926076 253.047184 
L 276.60857 251.136649 
L 279.291065 249.49402 
L 281.973559 248.24604 
L 284.656054 247.50292 
L 287.338549 247.348961 
L 290.021043 247.833235 
L 292.703538 248.960913 
L 295.386033 250.685892 
L 298.068527 252.905542 
L 300.751022 255.458528 
L 303.433517 258.126809 
L 306.116011 260.643093 
L 308.798506 262.705199 
L 311.481001 263.998972 
L 314.163495 264.231614 
L 316.84599 263.177494 
L 319.528485 260.738759 
L 322.210979 257.023299 
L 324.893474 252.442897 
L 327.575968 247.834672 
L 330.258463 244.609221 
L 332.940958 244.929174 
L 335.623452 251.92222 
L 338.305947 269.933005 
" clip-path="url(#p51fa1a6b91)" style="fill: none; stroke: #8c564b; stroke-width: 1.5; stroke-linecap: square"/>
   </g>
   <g id="patch_3">
    <path d="M 56.50625 288.430125 
L 56.50625 22.318125 
" style="fill: none; stroke: #000000; stroke-width: 0.8; stroke-linejoin: miter; stroke-linecap: square"/>
   </g>
   <g id="patch_4">
    <path d="M 413.62625 288.430125 
L 413.62625 22.318125 
" style="fill: none; stroke: #000000; stroke-width: 0.8; stroke-linejoin: miter; stroke-linecap: square"/>
   </g>
   <g id="patch_5">
    <path d="M 56.50625 288.430125 
L 413.62625 288.430125 
" style="fill: none; stroke: #000000; stroke-width: 0.8; stroke-linejoin: miter; stroke-linecap: square"/>
   </g>
   <g id="patch_6">
    <path d="M 56.50625 22.318125 
L 413.62625 22.318125 
" style="fill: none; stroke: #000000; stroke-width: 0.8; stroke-linejoin: miter; stroke-linecap: square"/>
   </g>
   <g id="text_18">
    <!-- MD - mni_prob_Frontal_Lobe -->
    <g transform="translate(150.42875 16.318125) scale(0.12 -0.12)">
     <defs>
      <path id="DejaVuSans-4d" d="M 628 4666 
L 1569 4666 
L 2759 1491 
L 3956 4666 
L 4897 4666 
L 4897 0 
L 4281 0 
L 4281 4097 
L 3078 897 
L 2444 897 
L 1241 4097 
L 1241 0 
L 628 0 
L 628 4666 
z
" transform="scale(0.015625)"/>
      <path id="DejaVuSans-44" d="M 1259 4147 
L 1259 519 
L 2022 519 
Q 2988 519 3436 956 
Q 3884 1394 3884 2338 
Q 3884 3275 3436 3711 
Q 2988 4147 2022 4147 
L 1259 4147 
z
M 628 4666 
L 1925 4666 
Q 3281 4666 3915 4102 
Q 4550 3538 4550 2338 
Q 4550 1131 3912 565 
Q 3275 0 1925 0 
L 628 0 
L 628 4666 
z
" transform="scale(0.015625)"/>
      <path id="DejaVuSans-2d" d="M 313 2009 
L 1997 2009 
L 1997 1497 
L 313 1497 
L 313 2009 
z
" transform="scale(0.015625)"/>
      <path id="DejaVuSans-6d" d="M 3328 2828 
Q 3544 3216 3844 3400 
Q 4144 3584 4550 3584 
Q 5097 3584 5394 3201 
Q 5691 2819 5691 2113 
L 5691 0 
L 5113 0 
L 5113 2094 
Q 5113 2597 4934 2840 
Q 4756 3084 4391 3084 
Q 3944 3084 3684 2787 
Q 3425 2491 3425 1978 
L 3425 0 
L 2847 0 
L 2847 2094 
Q 2847 2600 2669 2842 
Q 2491 3084 2119 3084 
Q 1678 3084 1418 2786 
Q 1159 2488 1159 1978 
L 1159 0 
L 581 0 
L 581 3500 
L 1159 3500 
L 1159 2956 
Q 1356 3278 1631 3431 
Q 1906 3584 2284 3584 
Q 2666 3584 2933 3390 
Q 3200 3197 3328 2828 
z
" transform="scale(0.015625)"/>
      <path id="DejaVuSans-5f" d="M 3263 -1063 
L 3263 -1509 
L -63 -1509 
L -63 -1063 
L 3263 -1063 
z
" transform="scale(0.015625)"/>
      <path id="DejaVuSans-70" d="M 1159 525 
L 1159 -1331 
L 581 -1331 
L 581 3500 
L 1159 3500 
L 1159 2969 
Q 1341 3281 1617 3432 
Q 1894 3584 2278 3584 
Q 2916 3584 3314 3078 
Q 3713 2572 3713 1747 
Q 3713 922 3314 415 
Q 2916 -91 2278 -91 
Q 1894 -91 1617 61 
Q 1341 213 1159 525 
z
M 3116 1747 
Q 3116 2381 2855 2742 
Q 2594 3103 2138 3103 
Q 1681 3103 1420 2742 
Q 1159 2381 1159 1747 
Q 1159 1113 1420 752 
Q 1681 391 2138 391 
Q 2594 391 2855 752 
Q 3116 1113 3116 1747 
z
" transform="scale(0.015625)"/>
      <path id="DejaVuSans-6f" d="M 1959 3097 
Q 1497 3097 1228 2736 
Q 959 2375 959 1747 
Q 959 1119 1226 758 
Q 1494 397 1959 397 
Q 2419 397 2687 759 
Q 2956 1122 2956 1747 
Q 2956 2369 2687 2733 
Q 2419 3097 1959 3097 
z
M 1959 3584 
Q 2709 3584 3137 3096 
Q 3566 2609 3566 1747 
Q 3566 888 3137 398 
Q 2709 -91 1959 -91 
Q 1206 -91 779 398 
Q 353 888 353 1747 
Q 353 2609 779 3096 
Q 1206 3584 1959 3584 
z
" transform="scale(0.015625)"/>
      <path id="DejaVuSans-62" d="M 3116 1747 
Q 3116 2381 2855 2742 
Q 2594 3103 2138 3103 
Q 1681 3103 1420 2742 
Q 1159 2381 1159 1747 
Q 1159 1113 1420 752 
Q 1681 391 2138 391 
Q 2594 391 2855 752 
Q 3116 1113 3116 1747 
z
M 1159 2969 
Q 1341 3281 1617 3432 
Q 1894 3584 2278 3584 
Q 2916 3584 3314 3078 
Q 3713 2572 3713 1747 
Q 3713 922 3314 415 
Q 2916 -91 2278 -91 
Q 1894 -91 1617 61 
Q 1341 213 1159 525 
L 1159 0 
L 581 0 
L 581 4863 
L 1159 4863 
L 1159 2969 
z
" transform="scale(0.015625)"/>
      <path id="DejaVuSans-74" d="M 1172 4494 
L 1172 3500 
L 2356 3500 
L 2356 3053 
L 1172 3053 
L 1172 1153 
Q 1172 725 1289 603 
Q 1406 481 1766 481 
L 2356 481 
L 2356 0 
L 1766 0 
Q 1100 0 847 248 
Q 594 497 594 1153 
L 594 3053 
L 172 3053 
L 172 3500 
L 594 3500 
L 594 4494 
L 1172 4494 
z
" transform="scale(0.015625)"/>
      <path id="DejaVuSans-4c" d="M 628 4666 
L 1259 4666 
L 1259 531 
L 3531 531 
L 3531 0 
L 628 0 
L 628 4666 
z
" transform="scale(0.015625)"/>
     </defs>
     <use xlink:href="#DejaVuSans-4d"/>
     <use xlink:href="#DejaVuSans-44" x="86.279297"/>
     <use xlink:href="#DejaVuSans-20" x="163.28125"/>
     <use xlink:href="#DejaVuSans-2d" x="195.068359"/>
     <use xlink:href="#DejaVuSans-20" x="231.152344"/>
     <use xlink:href="#DejaVuSans-6d" x="262.939453"/>
     <use xlink:href="#DejaVuSans-6e" x="360.351562"/>
     <use xlink:href="#DejaVuSans-69" x="423.730469"/>
     <use xlink:href="#DejaVuSans-5f" x="451.513672"/>
     <use xlink:href="#DejaVuSans-70" x="501.513672"/>
     <use xlink:href="#DejaVuSans-72" x="564.990234"/>
     <use xlink:href="#DejaVuSans-6f" x="603.853516"/>
     <use xlink:href="#DejaVuSans-62" x="665.035156"/>
     <use xlink:href="#DejaVuSans-5f" x="728.511719"/>
     <use xlink:href="#DejaVuSans-46" x="778.511719"/>
     <use xlink:href="#DejaVuSans-72" x="828.78125"/>
     <use xlink:href="#DejaVuSans-6f" x="867.644531"/>
     <use xlink:href="#DejaVuSans-6e" x="928.826172"/>
     <use xlink:href="#DejaVuSans-74" x="992.205078"/>
     <use xlink:href="#DejaVuSans-61" x="1031.414062"/>
     <use xlink:href="#DejaVuSans-6c" x="1092.693359"/>
     <use xlink:href="#DejaVuSans-5f" x="1120.476562"/>
     <use xlink:href="#DejaVuSans-4c" x="1170.476562"/>
     <use xlink:href="#DejaVuSans-6f" x="1224.439453"/>
     <use xlink:href="#DejaVuSans-62" x="1285.621094"/>
     <use xlink:href="#DejaVuSans-65" x="1349.097656"/>
    </g>
   </g>
   <g id="legend_1">
    <g id="patch_7">
     <path d="M 456.33825 146.666825 
L 554.1945 146.666825 
Q 556.1945 146.666825 556.1945 144.666825 
L 556.1945 55.929325 
Q 556.1945 53.929325 554.1945 53.929325 
L 456.33825 53.929325 
Q 454.33825 53.929325 454.33825 55.929325 
L 454.33825 144.666825 
Q 454.33825 146.666825 456.33825 146.666825 
z
" style="fill: #ffffff; opacity: 0.8; stroke: #cccccc; stroke-linejoin: miter"/>
    </g>
    <g id="line2d_22">
     <path d="M 458.33825 62.027762 
L 468.33825 62.027762 
L 478.33825 62.027762 
" style="fill: none; stroke: #1f77b4; stroke-width: 1.5; stroke-linecap: square"/>
    </g>
    <g id="text_19">
     <!-- 20_06_02_E3 -->
     <g transform="translate(486.33825 65.527762) scale(0.1 -0.1)">
      <defs>
       <path id="DejaVuSans-36" d="M 2113 2584 
Q 1688 2584 1439 2293 
Q 1191 2003 1191 1497 
Q 1191 994 1439 701 
Q 1688 409 2113 409 
Q 2538 409 2786 701 
Q 3034 994 3034 1497 
Q 3034 2003 2786 2293 
Q 2538 2584 2113 2584 
z
M 3366 4563 
L 3366 3988 
Q 3128 4100 2886 4159 
Q 2644 4219 2406 4219 
Q 1781 4219 1451 3797 
Q 1122 3375 1075 2522 
Q 1259 2794 1537 2939 
Q 1816 3084 2150 3084 
Q 2853 3084 3261 2657 
Q 3669 2231 3669 1497 
Q 3669 778 3244 343 
Q 2819 -91 2113 -91 
Q 1303 -91 875 529 
Q 447 1150 447 2328 
Q 447 3434 972 4092 
Q 1497 4750 2381 4750 
Q 2619 4750 2861 4703 
Q 3103 4656 3366 4563 
z
" transform="scale(0.015625)"/>
       <path id="DejaVuSans-45" d="M 628 4666 
L 3578 4666 
L 3578 4134 
L 1259 4134 
L 1259 2753 
L 3481 2753 
L 3481 2222 
L 1259 2222 
L 1259 531 
L 3634 531 
L 3634 0 
L 628 0 
L 628 4666 
z
" transform="scale(0.015625)"/>
       <path id="DejaVuSans-33" d="M 2597 2516 
Q 3050 2419 3304 2112 
Q 3559 1806 3559 1356 
Q 3559 666 3084 287 
Q 2609 -91 1734 -91 
Q 1441 -91 1130 -33 
Q 819 25 488 141 
L 488 750 
Q 750 597 1062 519 
Q 1375 441 1716 441 
Q 2309 441 2620 675 
Q 2931 909 2931 1356 
Q 2931 1769 2642 2001 
Q 2353 2234 1838 2234 
L 1294 2234 
L 1294 2753 
L 1863 2753 
Q 2328 2753 2575 2939 
Q 2822 3125 2822 3475 
Q 2822 3834 2567 4026 
Q 2313 4219 1838 4219 
Q 1578 4219 1281 4162 
Q 984 4106 628 3988 
L 628 4550 
Q 988 4650 1302 4700 
Q 1616 4750 1894 4750 
Q 2613 4750 3031 4423 
Q 3450 4097 3450 3541 
Q 3450 3153 3228 2886 
Q 3006 2619 2597 2516 
z
" transform="scale(0.015625)"/>
      </defs>
      <use xlink:href="#DejaVuSans-32"/>
      <use xlink:href="#DejaVuSans-30" x="63.623047"/>
      <use xlink:href="#DejaVuSans-5f" x="127.246094"/>
      <use xlink:href="#DejaVuSans-30" x="177.246094"/>
      <use xlink:href="#DejaVuSans-36" x="240.869141"/>
      <use xlink:href="#DejaVuSans-5f" x="304.492188"/>
      <use xlink:href="#DejaVuSans-30" x="354.492188"/>
      <use xlink:href="#DejaVuSans-32" x="418.115234"/>
      <use xlink:href="#DejaVuSans-5f" x="481.738281"/>
      <use xlink:href="#DejaVuSans-45" x="531.738281"/>
      <use xlink:href="#DejaVuSans-33" x="594.921875"/>
     </g>
    </g>
    <g id="line2d_23">
     <path d="M 458.33825 76.984013 
L 468.33825 76.984013 
L 478.33825 76.984013 
" style="fill: none; stroke: #ff7f0e; stroke-width: 1.5; stroke-linecap: square"/>
    </g>
    <g id="text_20">
     <!-- 20_05_01_E3 -->
     <g transform="translate(486.33825 80.484013) scale(0.1 -0.1)">
      <use xlink:href="#DejaVuSans-32"/>
      <use xlink:href="#DejaVuSans-30" x="63.623047"/>
      <use xlink:href="#DejaVuSans-5f" x="127.246094"/>
      <use xlink:href="#DejaVuSans-30" x="177.246094"/>
      <use xlink:href="#DejaVuSans-35" x="240.869141"/>
      <use xlink:href="#DejaVuSans-5f" x="304.492188"/>
      <use xlink:href="#DejaVuSans-30" x="354.492188"/>
      <use xlink:href="#DejaVuSans-31" x="418.115234"/>
      <use xlink:href="#DejaVuSans-5f" x="481.738281"/>
      <use xlink:href="#DejaVuSans-45" x="531.738281"/>
      <use xlink:href="#DejaVuSans-33" x="594.921875"/>
     </g>
    </g>
    <g id="line2d_24">
     <path d="M 458.33825 91.940262 
L 468.33825 91.940262 
L 478.33825 91.940262 
" style="fill: none; stroke: #2ca02c; stroke-width: 1.5; stroke-linecap: square"/>
    </g>
    <g id="text_21">
     <!-- 20_02_02_E3 -->
     <g transform="translate(486.33825 95.440262) scale(0.1 -0.1)">
      <use xlink:href="#DejaVuSans-32"/>
      <use xlink:href="#DejaVuSans-30" x="63.623047"/>
      <use xlink:href="#DejaVuSans-5f" x="127.246094"/>
      <use xlink:href="#DejaVuSans-30" x="177.246094"/>
      <use xlink:href="#DejaVuSans-32" x="240.869141"/>
      <use xlink:href="#DejaVuSans-5f" x="304.492188"/>
      <use xlink:href="#DejaVuSans-30" x="354.492188"/>
      <use xlink:href="#DejaVuSans-32" x="418.115234"/>
      <use xlink:href="#DejaVuSans-5f" x="481.738281"/>
      <use xlink:href="#DejaVuSans-45" x="531.738281"/>
      <use xlink:href="#DejaVuSans-33" x="594.921875"/>
     </g>
    </g>
    <g id="line2d_25">
     <path d="M 458.33825 106.896513 
L 468.33825 106.896513 
L 478.33825 106.896513 
" style="fill: none; stroke: #d62728; stroke-width: 1.5; stroke-linecap: square"/>
    </g>
    <g id="text_22">
     <!-- 20_10_02_E3 -->
     <g transform="translate(486.33825 110.396513) scale(0.1 -0.1)">
      <use xlink:href="#DejaVuSans-32"/>
      <use xlink:href="#DejaVuSans-30" x="63.623047"/>
      <use xlink:href="#DejaVuSans-5f" x="127.246094"/>
      <use xlink:href="#DejaVuSans-31" x="177.246094"/>
      <use xlink:href="#DejaVuSans-30" x="240.869141"/>
      <use xlink:href="#DejaVuSans-5f" x="304.492188"/>
      <use xlink:href="#DejaVuSans-30" x="354.492188"/>
      <use xlink:href="#DejaVuSans-32" x="418.115234"/>
      <use xlink:href="#DejaVuSans-5f" x="481.738281"/>
      <use xlink:href="#DejaVuSans-45" x="531.738281"/>
      <use xlink:href="#DejaVuSans-33" x="594.921875"/>
     </g>
    </g>
    <g id="line2d_26">
     <path d="M 458.33825 121.852762 
L 468.33825 121.852762 
L 478.33825 121.852762 
" style="fill: none; stroke: #9467bd; stroke-width: 1.5; stroke-linecap: square"/>
    </g>
    <g id="text_23">
     <!-- 20_08_02_E3 -->
     <g transform="translate(486.33825 125.352762) scale(0.1 -0.1)">
      <defs>
       <path id="DejaVuSans-38" d="M 2034 2216 
Q 1584 2216 1326 1975 
Q 1069 1734 1069 1313 
Q 1069 891 1326 650 
Q 1584 409 2034 409 
Q 2484 409 2743 651 
Q 3003 894 3003 1313 
Q 3003 1734 2745 1975 
Q 2488 2216 2034 2216 
z
M 1403 2484 
Q 997 2584 770 2862 
Q 544 3141 544 3541 
Q 544 4100 942 4425 
Q 1341 4750 2034 4750 
Q 2731 4750 3128 4425 
Q 3525 4100 3525 3541 
Q 3525 3141 3298 2862 
Q 3072 2584 2669 2484 
Q 3125 2378 3379 2068 
Q 3634 1759 3634 1313 
Q 3634 634 3220 271 
Q 2806 -91 2034 -91 
Q 1263 -91 848 271 
Q 434 634 434 1313 
Q 434 1759 690 2068 
Q 947 2378 1403 2484 
z
M 1172 3481 
Q 1172 3119 1398 2916 
Q 1625 2713 2034 2713 
Q 2441 2713 2670 2916 
Q 2900 3119 2900 3481 
Q 2900 3844 2670 4047 
Q 2441 4250 2034 4250 
Q 1625 4250 1398 4047 
Q 1172 3844 1172 3481 
z
" transform="scale(0.015625)"/>
      </defs>
      <use xlink:href="#DejaVuSans-32"/>
      <use xlink:href="#DejaVuSans-30" x="63.623047"/>
      <use xlink:href="#DejaVuSans-5f" x="127.246094"/>
      <use xlink:href="#DejaVuSans-30" x="177.246094"/>
      <use xlink:href="#DejaVuSans-38" x="240.869141"/>
      <use xlink:href="#DejaVuSans-5f" x="304.492188"/>
      <use xlink:href="#DejaVuSans-30" x="354.492188"/>
      <use xlink:href="#DejaVuSans-32" x="418.115234"/>
      <use xlink:href="#DejaVuSans-5f" x="481.738281"/>
      <use xlink:href="#DejaVuSans-45" x="531.738281"/>
      <use xlink:href="#DejaVuSans-33" x="594.921875"/>
     </g>
    </g>
    <g id="line2d_27">
     <path d="M 458.33825 136.809012 
L 468.33825 136.809012 
L 478.33825 136.809012 
" style="fill: none; stroke: #8c564b; stroke-width: 1.5; stroke-linecap: square"/>
    </g>
    <g id="text_24">
     <!-- 20_11_02_E3 -->
     <g transform="translate(486.33825 140.309012) scale(0.1 -0.1)">
      <use xlink:href="#DejaVuSans-32"/>
      <use xlink:href="#DejaVuSans-30" x="63.623047"/>
      <use xlink:href="#DejaVuSans-5f" x="127.246094"/>
      <use xlink:href="#DejaVuSans-31" x="177.246094"/>
      <use xlink:href="#DejaVuSans-31" x="240.869141"/>
      <use xlink:href="#DejaVuSans-5f" x="304.492188"/>
      <use xlink:href="#DejaVuSans-30" x="354.492188"/>
      <use xlink:href="#DejaVuSans-32" x="418.115234"/>
      <use xlink:href="#DejaVuSans-5f" x="481.738281"/>
      <use xlink:href="#DejaVuSans-45" x="531.738281"/>
      <use xlink:href="#DejaVuSans-33" x="594.921875"/>
     </g>
    </g>
   </g>
  </g>
 </g>
 <defs>
  <clipPath id="p51fa1a6b91">
   <rect x="56.50625" y="22.318125" width="357.12" height="266.112"/>
  </clipPath>
 </defs>
</svg>
