<?xml version="1.0" encoding="utf-8" standalone="no"?>
<!DOCTYPE svg PUBLIC "-//W3C//DTD SVG 1.1//EN"
  "http://www.w3.org/Graphics/SVG/1.1/DTD/svg11.dtd">
<svg xmlns:xlink="http://www.w3.org/1999/xlink" width="563.3945pt" height="325.986375pt" viewBox="0 0 563.3945 325.986375" xmlns="http://www.w3.org/2000/svg" version="1.1">
 <metadata>
  <rdf:RDF xmlns:dc="http://purl.org/dc/elements/1.1/" xmlns:cc="http://creativecommons.org/ns#" xmlns:rdf="http://www.w3.org/1999/02/22-rdf-syntax-ns#">
   <cc:Work>
    <dc:type rdf:resource="http://purl.org/dc/dcmitype/StillImage"/>
    <dc:date>2023-02-07T22:59:56.980931</dc:date>
    <dc:format>image/svg+xml</dc:format>
    <dc:creator>
     <cc:Agent>
      <dc:title>Matplotlib v3.6.2, https://matplotlib.org/</dc:title>
     </cc:Agent>
    </dc:creator>
   </cc:Work>
  </rdf:RDF>
 </metadata>
 <defs>
  <style type="text/css">*{stroke-linejoin: round; stroke-linecap: butt}</style>
 </defs>
 <g id="figure_1">
  <g id="patch_1">
   <path d="M 0 325.986375 
L 563.3945 325.986375 
L 563.3945 0 
L 0 0 
z
" style="fill: #ffffff"/>
  </g>
  <g id="axes_1">
   <g id="patch_2">
    <path d="M 56.50625 288.430125 
L 413.62625 288.430125 
L 413.62625 22.318125 
L 56.50625 22.318125 
z
" style="fill: #ffffff"/>
   </g>
   <g id="PolyCollection_1">
    <path d="M 72.738977 266.372972 
L 72.738977 260.383498 
L 76.018316 260.383498 
L 79.297655 260.383498 
L 82.576994 260.383498 
L 85.856333 260.383498 
L 89.135671 260.383498 
L 92.41501 260.383498 
L 95.694349 260.383498 
L 98.973688 260.383498 
L 102.253027 260.383498 
L 105.532366 260.383498 
L 108.811705 260.383498 
L 112.091043 260.383498 
L 115.370382 260.383498 
L 118.649721 260.383498 
L 121.92906 260.383498 
L 125.208399 260.383498 
L 128.487738 260.383498 
L 131.767076 260.383498 
L 135.046415 260.383498 
L 138.325754 260.383498 
L 141.605093 260.383498 
L 144.884432 260.383498 
L 148.163771 260.383498 
L 151.44311 260.383498 
L 154.722448 260.383498 
L 158.001787 260.383498 
L 161.281126 260.383498 
L 164.560465 260.383498 
L 167.839804 260.383498 
L 171.119143 260.383498 
L 174.398481 260.383498 
L 177.67782 260.383498 
L 180.957159 260.383498 
L 184.236498 260.383498 
L 187.515837 260.383498 
L 190.795176 260.383498 
L 194.074514 260.383498 
L 197.353853 260.383498 
L 200.633192 260.383498 
L 203.912531 260.383498 
L 207.19187 260.383498 
L 210.471209 260.383498 
L 213.750548 260.383498 
L 217.029886 260.383498 
L 220.309225 260.383498 
L 223.588564 260.383498 
L 226.867903 260.383498 
L 230.147242 260.383498 
L 233.426581 260.383498 
L 236.705919 260.383498 
L 239.985258 260.383498 
L 243.264597 260.383498 
L 246.543936 260.383498 
L 249.823275 260.383498 
L 253.102614 260.383498 
L 256.381952 260.383498 
L 259.661291 260.383498 
L 262.94063 260.383498 
L 266.219969 260.383498 
L 269.499308 260.383498 
L 272.778647 260.383498 
L 276.057986 260.383498 
L 279.337324 260.383498 
L 282.616663 260.383498 
L 285.896002 260.383498 
L 289.175341 260.383498 
L 292.45468 260.383498 
L 295.734019 260.383498 
L 299.013357 260.383498 
L 302.292696 260.383498 
L 305.572035 260.383498 
L 308.851374 260.383498 
L 312.130713 260.383498 
L 315.410052 260.383498 
L 318.68939 260.383498 
L 321.968729 260.383498 
L 325.248068 260.383498 
L 328.527407 260.383498 
L 331.806746 260.383498 
L 335.086085 260.383498 
L 338.365424 260.383498 
L 341.644762 260.383498 
L 344.924101 260.383498 
L 348.20344 260.383498 
L 351.482779 260.383498 
L 354.762118 260.383498 
L 358.041457 260.383498 
L 361.320795 260.383498 
L 364.600134 260.383498 
L 367.879473 260.383498 
L 371.158812 260.383498 
L 374.438151 260.383498 
L 377.71749 260.383498 
L 380.996829 260.383498 
L 384.276167 260.383498 
L 387.555506 260.383498 
L 390.834845 260.383498 
L 394.114184 260.383498 
L 397.393523 260.383498 
L 397.393523 164.012286 
L 397.393523 164.012286 
L 394.114184 207.406881 
L 390.834845 236.346622 
L 387.555506 254.373665 
L 384.276167 264.379393 
L 380.996829 268.695079 
L 377.71749 269.172704 
L 374.438151 267.256766 
L 371.158812 264.047885 
L 367.879473 260.358933 
L 364.600134 256.76439 
L 361.320795 253.643548 
L 358.041457 251.218174 
L 354.762118 249.585154 
L 351.482779 248.744656 
L 348.20344 248.624242 
L 344.924101 249.099386 
L 341.644762 250.010773 
L 338.365424 251.178746 
L 335.086085 252.415224 
L 331.806746 253.533393 
L 328.527407 254.355443 
L 325.248068 254.718589 
L 321.968729 254.479606 
L 318.68939 253.518072 
L 315.410052 251.738501 
L 312.130713 249.071527 
L 308.851374 245.47428 
L 305.572035 240.930077 
L 302.292696 235.447557 
L 299.013357 229.059334 
L 295.734019 221.820282 
L 292.45468 213.805504 
L 289.175341 205.108079 
L 285.896002 195.836617 
L 282.616663 186.112699 
L 279.337324 176.068228 
L 276.057986 165.842742 
L 272.778647 155.580714 
L 269.499308 145.428883 
L 266.219969 135.53362 
L 262.94063 126.038382 
L 259.661291 117.081247 
L 256.381952 108.79257 
L 253.102614 101.292775 
L 249.823275 94.690289 
L 246.543936 89.079653 
L 243.264597 84.539813 
L 239.985258 81.132614 
L 236.705919 260.360505 
L 233.426581 260.361106 
L 230.147242 75.751634 
L 226.867903 76.895661 
L 223.588564 79.312028 
L 220.309225 82.944254 
L 217.029886 87.709577 
L 213.750548 93.499821 
L 210.471209 100.182822 
L 207.19187 107.604404 
L 203.912531 115.590894 
L 200.633192 123.952165 
L 197.353853 132.485174 
L 194.074514 140.977961 
L 190.795176 149.21405 
L 187.515837 156.977221 
L 184.236498 164.056562 
L 180.957159 170.251746 
L 177.67782 175.378437 
L 174.398481 179.273736 
L 171.119143 181.801566 
L 167.839804 182.857885 
L 164.560465 182.375595 
L 161.281126 180.329035 
L 158.001787 176.737912 
L 154.722448 171.670512 
L 151.44311 165.246063 
L 148.163771 157.636062 
L 144.884432 149.064412 
L 141.605093 139.806195 
L 138.325754 130.184883 
L 135.046415 120.567826 
L 131.767076 111.359798 
L 128.487738 102.994421 
L 125.208399 95.923265 
L 121.92906 90.602408 
L 118.649721 87.476265 
L 115.370382 86.958474 
L 112.091043 89.40962 
L 108.811705 95.111606 
L 105.532366 104.238445 
L 102.253027 116.823283 
L 98.973688 132.721437 
L 95.694349 151.569258 
L 92.41501 172.738622 
L 89.135671 195.286851 
L 85.856333 217.901902 
L 82.576994 238.84263 
L 79.297655 255.87397 
L 76.018316 266.196892 
L 72.738977 266.372972 
z
" clip-path="url(#pd84e61d5ab)" style="fill: #1f77b4; fill-opacity: 0.166667"/>
   </g>
   <g id="PolyCollection_2">
    <path d="M 72.738977 247.393046 
L 72.738977 260.383498 
L 76.018316 260.383498 
L 79.297655 260.383498 
L 82.576994 260.383498 
L 85.856333 260.383498 
L 89.135671 260.383498 
L 92.41501 260.383498 
L 95.694349 260.383498 
L 98.973688 260.383498 
L 102.253027 260.383498 
L 105.532366 260.383498 
L 108.811705 260.383498 
L 112.091043 260.383498 
L 115.370382 260.383498 
L 118.649721 260.383498 
L 121.92906 260.383498 
L 125.208399 260.383498 
L 128.487738 260.383498 
L 131.767076 260.383498 
L 135.046415 260.383498 
L 138.325754 260.383498 
L 141.605093 260.383498 
L 144.884432 260.383498 
L 148.163771 260.383498 
L 151.44311 260.383498 
L 154.722448 260.383498 
L 158.001787 260.383498 
L 161.281126 260.383498 
L 164.560465 260.383498 
L 167.839804 260.383498 
L 171.119143 260.383498 
L 174.398481 260.383498 
L 177.67782 260.383498 
L 180.957159 260.383498 
L 184.236498 260.383498 
L 187.515837 260.383498 
L 190.795176 260.383498 
L 194.074514 260.383498 
L 197.353853 260.383498 
L 200.633192 260.383498 
L 203.912531 260.383498 
L 207.19187 260.383498 
L 210.471209 260.383498 
L 213.750548 260.383498 
L 217.029886 260.383498 
L 220.309225 260.383498 
L 223.588564 260.383498 
L 226.867903 260.383498 
L 230.147242 260.383498 
L 233.426581 260.383498 
L 236.705919 260.383498 
L 239.985258 260.383498 
L 243.264597 260.383498 
L 246.543936 260.383498 
L 249.823275 260.383498 
L 253.102614 260.383498 
L 256.381952 260.383498 
L 259.661291 260.383498 
L 262.94063 260.383498 
L 266.219969 260.383498 
L 269.499308 260.383498 
L 272.778647 260.383498 
L 276.057986 260.383498 
L 279.337324 260.383498 
L 282.616663 260.383498 
L 285.896002 260.383498 
L 289.175341 260.383498 
L 292.45468 260.383498 
L 295.734019 260.383498 
L 299.013357 260.383498 
L 302.292696 260.383498 
L 305.572035 260.383498 
L 308.851374 260.383498 
L 312.130713 260.383498 
L 315.410052 260.383498 
L 318.68939 260.383498 
L 321.968729 260.383498 
L 325.248068 260.383498 
L 328.527407 260.383498 
L 331.806746 260.383498 
L 335.086085 260.383498 
L 338.365424 260.383498 
L 341.644762 260.383498 
L 344.924101 260.383498 
L 348.20344 260.383498 
L 351.482779 260.383498 
L 354.762118 260.383498 
L 358.041457 260.383498 
L 361.320795 260.383498 
L 364.600134 260.383498 
L 367.879473 260.383498 
L 371.158812 260.383498 
L 374.438151 260.383498 
L 377.71749 260.383498 
L 380.996829 260.383498 
L 384.276167 260.383498 
L 387.555506 260.383498 
L 390.834845 260.383498 
L 394.114184 260.383498 
L 397.393523 260.383498 
L 397.393523 174.336614 
L 397.393523 174.336614 
L 394.114184 220.027353 
L 390.834845 245.981402 
L 387.555506 259.049339 
L 384.276167 264.228842 
L 380.996829 265.035905 
L 377.71749 263.821392 
L 374.438151 262.038756 
L 371.158812 260.468336 
L 367.879473 259.403241 
L 364.600134 258.801394 
L 361.320795 258.407989 
L 358.041457 257.852204 
L 354.762118 256.721727 
L 351.482779 254.618279 
L 348.20344 251.197071 
L 344.924101 246.192795 
L 341.644762 239.434528 
L 338.365424 230.851637 
L 335.086085 220.472566 
L 331.806746 208.418152 
L 328.527407 194.890902 
L 325.248068 180.161504 
L 321.968729 164.553626 
L 318.68939 148.427929 
L 315.410052 132.166045 
L 312.130713 116.15515 
L 308.851374 100.77362 
L 305.572035 86.378165 
L 302.292696 73.292704 
L 299.013357 61.799183 
L 295.734019 52.130437 
L 292.45468 44.465127 
L 289.175341 38.924724 
L 285.896002 35.572461 
L 282.616663 34.414125 
L 279.337324 35.400524 
L 276.057986 38.431432 
L 272.778647 43.360806 
L 269.499308 50.003032 
L 266.219969 58.139971 
L 262.94063 67.528557 
L 259.661291 77.908696 
L 256.381952 89.011248 
L 253.102614 100.565861 
L 249.823275 112.308435 
L 246.543936 123.988049 
L 243.264597 135.373167 
L 239.985258 146.25698 
L 236.705919 260.353104 
L 233.426581 260.354706 
L 230.147242 171.823497 
L 226.867903 179.341796 
L 223.588564 185.933541 
L 220.309225 191.581982 
L 217.029886 196.296653 
L 213.750548 200.110766 
L 210.471209 203.077946 
L 207.19187 205.268418 
L 203.912531 206.764778 
L 200.633192 207.657471 
L 197.353853 208.040153 
L 194.074514 208.005067 
L 190.795176 207.63863 
L 187.515837 207.017368 
L 184.236498 206.204393 
L 180.957159 205.246557 
L 177.67782 204.17246 
L 174.398481 202.991421 
L 171.119143 201.693549 
L 167.839804 200.250992 
L 164.560465 198.620432 
L 161.281126 196.746842 
L 158.001787 194.568493 
L 154.722448 192.023132 
L 151.44311 189.055218 
L 148.163771 185.624011 
L 144.884432 181.712267 
L 141.605093 177.335182 
L 138.325754 172.549183 
L 135.046415 167.460007 
L 131.767076 162.229469 
L 128.487738 157.080167 
L 125.208399 152.297245 
L 121.92906 148.226234 
L 118.649721 145.265818 
L 115.370382 143.854226 
L 112.091043 144.447797 
L 108.811705 147.490073 
L 105.532366 153.369604 
L 102.253027 162.364435 
L 98.973688 174.571051 
L 95.694349 189.815313 
L 92.41501 207.542709 
L 89.135671 226.684961 
L 85.856333 245.499804 
L 82.576994 261.38045 
L 79.297655 270.630966 
L 76.018316 268.203515 
L 72.738977 247.393046 
z
" clip-path="url(#pd84e61d5ab)" style="fill: #ff7f0e; fill-opacity: 0.166667"/>
   </g>
   <g id="PolyCollection_3">
    <path d="M 72.738977 274.322295 
L 72.738977 260.383498 
L 76.018316 260.383498 
L 79.297655 260.383498 
L 82.576994 260.383498 
L 85.856333 260.383498 
L 89.135671 260.383498 
L 92.41501 260.383498 
L 95.694349 260.383498 
L 98.973688 260.383498 
L 102.253027 260.383498 
L 105.532366 260.383498 
L 108.811705 260.383498 
L 112.091043 260.383498 
L 115.370382 260.383498 
L 118.649721 260.383498 
L 121.92906 260.383498 
L 125.208399 260.383498 
L 128.487738 260.383498 
L 131.767076 260.383498 
L 135.046415 260.383498 
L 138.325754 260.383498 
L 141.605093 260.383498 
L 144.884432 260.383498 
L 148.163771 260.383498 
L 151.44311 260.383498 
L 154.722448 260.383498 
L 158.001787 260.383498 
L 161.281126 260.383498 
L 164.560465 260.383498 
L 167.839804 260.383498 
L 171.119143 260.383498 
L 174.398481 260.383498 
L 177.67782 260.383498 
L 180.957159 260.383498 
L 184.236498 260.383498 
L 187.515837 260.383498 
L 190.795176 260.383498 
L 194.074514 260.383498 
L 197.353853 260.383498 
L 200.633192 260.383498 
L 203.912531 260.383498 
L 207.19187 260.383498 
L 210.471209 260.383498 
L 213.750548 260.383498 
L 217.029886 260.383498 
L 220.309225 260.383498 
L 223.588564 260.383498 
L 226.867903 260.383498 
L 230.147242 260.383498 
L 233.426581 260.383498 
L 236.705919 260.383498 
L 239.985258 260.383498 
L 243.264597 260.383498 
L 246.543936 260.383498 
L 249.823275 260.383498 
L 253.102614 260.383498 
L 256.381952 260.383498 
L 259.661291 260.383498 
L 262.94063 260.383498 
L 266.219969 260.383498 
L 269.499308 260.383498 
L 272.778647 260.383498 
L 276.057986 260.383498 
L 279.337324 260.383498 
L 282.616663 260.383498 
L 285.896002 260.383498 
L 289.175341 260.383498 
L 292.45468 260.383498 
L 295.734019 260.383498 
L 299.013357 260.383498 
L 302.292696 260.383498 
L 305.572035 260.383498 
L 308.851374 260.383498 
L 312.130713 260.383498 
L 315.410052 260.383498 
L 318.68939 260.383498 
L 321.968729 260.383498 
L 325.248068 260.383498 
L 328.527407 260.383498 
L 331.806746 260.383498 
L 335.086085 260.383498 
L 338.365424 260.383498 
L 341.644762 260.383498 
L 344.924101 260.383498 
L 348.20344 260.383498 
L 351.482779 260.383498 
L 354.762118 260.383498 
L 358.041457 260.383498 
L 361.320795 260.383498 
L 364.600134 260.383498 
L 367.879473 260.383498 
L 371.158812 260.383498 
L 374.438151 260.383498 
L 377.71749 260.383498 
L 380.996829 260.383498 
L 384.276167 260.383498 
L 387.555506 260.383498 
L 390.834845 260.383498 
L 394.114184 260.383498 
L 397.393523 260.383498 
L 397.393523 156.309799 
L 397.393523 156.309799 
L 394.114184 199.119376 
L 390.834845 230.151613 
L 387.555506 251.665334 
L 384.276167 265.540542 
L 380.996829 273.335081 
L 377.71749 276.334125 
L 374.438151 275.593204 
L 371.158812 271.975451 
L 367.879473 266.183675 
L 364.600134 258.78783 
L 361.320795 250.248413 
L 358.041457 240.936254 
L 354.762118 231.14916 
L 351.482779 221.125784 
L 348.20344 211.05711 
L 344.924101 201.09587 
L 341.644762 191.364186 
L 338.365424 181.959714 
L 335.086085 172.960521 
L 331.806746 164.428904 
L 328.527407 156.414349 
L 325.248068 148.955776 
L 321.968729 142.083233 
L 318.68939 135.819146 
L 315.410052 130.179232 
L 312.130713 125.173172 
L 308.851374 120.805113 
L 305.572035 117.074051 
L 302.292696 113.974158 
L 299.013357 111.495077 
L 295.734019 109.622216 
L 292.45468 108.337071 
L 289.175341 107.617561 
L 285.896002 107.438418 
L 282.616663 107.771604 
L 279.337324 108.586755 
L 276.057986 109.851659 
L 272.778647 111.532743 
L 269.499308 113.595561 
L 266.219969 116.005271 
L 262.94063 118.727094 
L 259.661291 121.726722 
L 256.381952 124.970693 
L 253.102614 128.426689 
L 249.823275 132.06377 
L 246.543936 135.852535 
L 243.264597 139.765183 
L 239.985258 143.775504 
L 236.705919 260.361332 
L 233.426581 260.36276 
L 230.147242 153.463654 
L 226.867903 157.263744 
L 223.588564 161.195937 
L 220.309225 165.246549 
L 217.029886 169.394423 
L 213.750548 173.610464 
L 210.471209 177.857447 
L 207.19187 182.090115 
L 203.912531 186.255566 
L 200.633192 190.293937 
L 197.353853 194.139393 
L 194.074514 197.721388 
L 190.795176 200.966211 
L 187.515837 203.798773 
L 184.236498 206.144622 
L 180.957159 207.932143 
L 177.67782 209.094912 
L 174.398481 209.574154 
L 171.119143 209.321254 
L 167.839804 208.30027 
L 164.560465 206.490387 
L 161.281126 203.88824 
L 158.001787 200.510054 
L 154.722448 196.393509 
L 151.44311 191.599279 
L 148.163771 186.212146 
L 144.884432 180.34163 
L 141.605093 174.12205 
L 138.325754 167.711931 
L 135.046415 161.292696 
L 131.767076 155.066559 
L 128.487738 149.253537 
L 125.208399 144.087542 
L 121.92906 139.811457 
L 118.649721 136.67116 
L 115.370382 134.908443 
L 112.091043 134.752776 
L 108.811705 136.411899 
L 105.532366 140.061205 
L 102.253027 145.831922 
L 98.973688 153.798085 
L 95.694349 163.962334 
L 92.41501 176.240562 
L 89.135671 190.445482 
L 85.856333 206.269174 
L 82.576994 223.264735 
L 79.297655 240.827121 
L 76.018316 258.173362 
L 72.738977 274.322295 
z
" clip-path="url(#pd84e61d5ab)" style="fill: #2ca02c; fill-opacity: 0.166667"/>
   </g>
   <g id="PolyCollection_4">
    <path d="M 72.738977 267.801983 
L 72.738977 260.383498 
L 76.018316 260.383498 
L 79.297655 260.383498 
L 82.576993 260.383498 
L 85.856332 260.383498 
L 89.135671 260.383498 
L 92.415009 260.383498 
L 95.694348 260.383498 
L 98.973686 260.383498 
L 102.253025 260.383498 
L 105.532364 260.383498 
L 108.811702 260.383498 
L 112.091041 260.383498 
L 115.37038 260.383498 
L 118.649718 260.383498 
L 121.929057 260.383498 
L 125.208396 260.383498 
L 128.487734 260.383498 
L 131.767073 260.383498 
L 135.046412 260.383498 
L 138.32575 260.383498 
L 141.605089 260.383498 
L 144.884428 260.383498 
L 148.163766 260.383498 
L 151.443105 260.383498 
L 154.722443 260.383498 
L 158.001782 260.383498 
L 161.281121 260.383498 
L 164.560459 260.383498 
L 167.839798 260.383498 
L 171.119137 260.383498 
L 174.398475 260.383498 
L 177.677814 260.383498 
L 180.957153 260.383498 
L 184.236491 260.383498 
L 187.51583 260.383498 
L 190.795169 260.383498 
L 194.074507 260.383498 
L 197.353846 260.383498 
L 200.633185 260.383498 
L 203.912523 260.383498 
L 207.191862 260.383498 
L 210.4712 260.383498 
L 213.750539 260.383498 
L 217.029878 260.383498 
L 220.309216 260.383498 
L 223.588555 260.383498 
L 226.867894 260.383498 
L 230.147232 260.383498 
L 233.426571 260.383498 
L 236.70591 260.383498 
L 239.985248 260.383498 
L 243.264587 260.383498 
L 246.543926 260.383498 
L 249.823264 260.383498 
L 253.102603 260.383498 
L 256.381942 260.383498 
L 259.66128 260.383498 
L 262.940619 260.383498 
L 266.219957 260.383498 
L 269.499296 260.383498 
L 272.778635 260.383498 
L 276.057973 260.383498 
L 279.337312 260.383498 
L 282.616651 260.383498 
L 285.895989 260.383498 
L 289.175328 260.383498 
L 292.454667 260.383498 
L 295.734005 260.383498 
L 299.013344 260.383498 
L 302.292683 260.383498 
L 305.572021 260.383498 
L 308.85136 260.383498 
L 312.130699 260.383498 
L 315.410037 260.383498 
L 318.689376 260.383498 
L 321.968714 260.383498 
L 325.248053 260.383498 
L 328.527392 260.383498 
L 331.80673 260.383498 
L 335.086069 260.383498 
L 338.365408 260.383498 
L 341.644746 260.383498 
L 344.924085 260.383498 
L 348.203424 260.383498 
L 351.482762 260.383498 
L 354.762101 260.383498 
L 358.04144 260.383498 
L 361.320778 260.383498 
L 364.600117 260.383498 
L 367.879456 260.383498 
L 371.158794 260.383498 
L 374.438133 260.383498 
L 377.717471 260.383498 
L 380.99681 260.383498 
L 384.276149 260.383498 
L 387.555487 260.383498 
L 390.834826 260.383498 
L 394.114165 260.383498 
L 397.393503 260.383498 
L 397.393503 180.257588 
L 397.393503 180.257588 
L 394.114165 219.363825 
L 390.834826 244.727181 
L 387.555487 259.897347 
L 384.276149 267.710575 
L 380.99681 270.401558 
L 377.717471 269.701523 
L 374.438133 266.923872 
L 371.158794 263.03858 
L 367.879456 258.736497 
L 364.600117 254.484591 
L 361.320778 250.573121 
L 358.04144 247.155612 
L 354.762101 244.282475 
L 351.482762 241.929008 
L 348.203424 240.018474 
L 344.924085 238.440889 
L 341.644746 237.068075 
L 338.365408 235.765509 
L 335.086069 234.401419 
L 331.80673 232.853556 
L 328.527392 231.014004 
L 325.248053 228.792369 
L 321.968714 226.117633 
L 318.689376 222.938927 
L 315.410037 219.225461 
L 312.130699 214.965791 
L 308.85136 210.166589 
L 305.572021 204.851074 
L 302.292683 199.0572 
L 299.013344 192.835711 
L 295.734005 186.24814 
L 292.454667 179.364813 
L 289.175328 172.262905 
L 285.895989 165.024585 
L 282.616651 157.73527 
L 279.337312 150.482015 
L 276.057973 143.352019 
L 272.778635 136.431286 
L 269.499296 129.803401 
L 266.219957 123.548433 
L 262.940619 117.74195 
L 259.66128 112.454135 
L 256.381942 107.74898 
L 253.102603 103.683565 
L 249.823264 100.307392 
L 246.543926 97.661775 
L 243.264587 95.779276 
L 239.985248 94.683177 
L 236.70591 260.359111 
L 233.426571 260.359614 
L 230.147232 94.678089 
L 226.867894 96.559803 
L 223.588555 99.273188 
L 220.309216 102.781442 
L 217.029878 107.032362 
L 213.750539 111.958386 
L 210.4712 117.476921 
L 207.191862 123.490983 
L 203.912523 129.89016 
L 200.633185 136.551916 
L 197.353846 143.343246 
L 194.074507 150.122678 
L 190.795169 156.742638 
L 187.51583 163.052156 
L 184.236491 168.899902 
L 180.957153 174.13754 
L 177.677814 178.623357 
L 174.398475 182.226139 
L 171.119137 184.829233 
L 167.839798 186.334744 
L 164.560459 186.667785 
L 161.281121 185.780696 
L 158.001782 183.657141 
L 154.722443 180.315939 
L 151.443105 175.814529 
L 148.163766 170.251896 
L 144.884428 163.770792 
L 141.605089 156.559064 
L 138.32575 148.84988 
L 135.046412 140.920611 
L 131.767073 133.090115 
L 128.487734 125.71414 
L 125.208396 119.178532 
L 121.929057 113.889905 
L 118.649718 110.263417 
L 115.37038 108.707231 
L 112.091041 109.603251 
L 108.811702 113.283639 
L 105.532364 120.002635 
L 102.253025 129.903116 
L 98.973686 142.977328 
L 95.694348 159.021152 
L 92.415009 177.581261 
L 89.135671 197.894435 
L 85.856332 218.818285 
L 82.576993 238.752588 
L 79.297655 255.550361 
L 76.018316 266.417782 
L 72.738977 267.801983 
z
" clip-path="url(#pd84e61d5ab)" style="fill: #d62728; fill-opacity: 0.166667"/>
   </g>
   <g id="PolyCollection_5">
    <path d="M 72.738977 259.715953 
L 72.738977 260.383498 
L 76.018316 260.383498 
L 79.297655 260.383498 
L 82.576993 260.383498 
L 85.856332 260.383498 
L 89.135671 260.383498 
L 92.415009 260.383498 
L 95.694348 260.383498 
L 98.973686 260.383498 
L 102.253025 260.383498 
L 105.532364 260.383498 
L 108.811702 260.383498 
L 112.091041 260.383498 
L 115.37038 260.383498 
L 118.649718 260.383498 
L 121.929057 260.383498 
L 125.208396 260.383498 
L 128.487734 260.383498 
L 131.767073 260.383498 
L 135.046412 260.383498 
L 138.32575 260.383498 
L 141.605089 260.383498 
L 144.884428 260.383498 
L 148.163766 260.383498 
L 151.443105 260.383498 
L 154.722443 260.383498 
L 158.001782 260.383498 
L 161.281121 260.383498 
L 164.560459 260.383498 
L 167.839798 260.383498 
L 171.119137 260.383498 
L 174.398475 260.383498 
L 177.677814 260.383498 
L 180.957153 260.383498 
L 184.236491 260.383498 
L 187.51583 260.383498 
L 190.795169 260.383498 
L 194.074507 260.383498 
L 197.353846 260.383498 
L 200.633185 260.383498 
L 203.912523 260.383498 
L 207.191862 260.383498 
L 210.4712 260.383498 
L 213.750539 260.383498 
L 217.029878 260.383498 
L 220.309216 260.383498 
L 223.588555 260.383498 
L 226.867894 260.383498 
L 230.147232 260.383498 
L 233.426571 260.383498 
L 236.70591 260.383498 
L 239.985248 260.383498 
L 243.264587 260.383498 
L 246.543926 260.383498 
L 249.823264 260.383498 
L 253.102603 260.383498 
L 256.381942 260.383498 
L 259.66128 260.383498 
L 262.940619 260.383498 
L 266.219957 260.383498 
L 269.499296 260.383498 
L 272.778635 260.383498 
L 276.057973 260.383498 
L 279.337312 260.383498 
L 282.616651 260.383498 
L 285.895989 260.383498 
L 289.175328 260.383498 
L 292.454667 260.383498 
L 295.734005 260.383498 
L 299.013344 260.383498 
L 302.292683 260.383498 
L 305.572021 260.383498 
L 308.85136 260.383498 
L 312.130699 260.383498 
L 315.410037 260.383498 
L 318.689376 260.383498 
L 321.968714 260.383498 
L 325.248053 260.383498 
L 328.527392 260.383498 
L 331.80673 260.383498 
L 335.086069 260.383498 
L 338.365408 260.383498 
L 341.644746 260.383498 
L 344.924085 260.383498 
L 348.203424 260.383498 
L 351.482762 260.383498 
L 354.762101 260.383498 
L 358.04144 260.383498 
L 361.320778 260.383498 
L 364.600117 260.383498 
L 367.879456 260.383498 
L 371.158794 260.383498 
L 374.438133 260.383498 
L 377.717471 260.383498 
L 380.99681 260.383498 
L 384.276149 260.383498 
L 387.555487 260.383498 
L 390.834826 260.383498 
L 394.114165 260.383498 
L 397.393503 260.383498 
L 397.393503 194.630398 
L 397.393503 194.630398 
L 394.114165 214.161289 
L 390.834826 231.101482 
L 387.555487 245.072397 
L 384.276149 255.932677 
L 380.99681 263.721526 
L 377.717471 268.610664 
L 374.438133 270.864005 
L 371.158794 270.80424 
L 367.879456 268.785545 
L 364.600117 265.171694 
L 361.320778 260.318932 
L 358.04144 254.562975 
L 354.762101 248.209601 
L 351.482762 241.5283 
L 348.203424 234.748514 
L 344.924085 228.058058 
L 341.644746 221.603306 
L 338.365408 215.490825 
L 335.086069 209.790113 
L 331.80673 204.537186 
L 328.527392 199.738753 
L 325.248053 195.376771 
L 321.968714 191.413181 
L 318.689376 187.794672 
L 315.410037 184.457333 
L 312.130699 181.331073 
L 308.85136 178.343718 
L 305.572021 175.424723 
L 302.292683 172.508416 
L 299.013344 169.536764 
L 295.734005 166.461613 
L 292.454667 163.246411 
L 289.175328 159.867394 
L 285.895989 156.314269 
L 282.616651 152.590395 
L 279.337312 148.712508 
L 276.057973 144.710015 
L 272.778635 140.623913 
L 269.499296 136.505362 
L 266.219957 132.413985 
L 262.940619 128.415929 
L 259.66128 124.581761 
L 256.381942 120.984242 
L 253.102603 117.696044 
L 249.823264 114.787462 
L 246.543926 112.324184 
L 243.264587 110.365159 
L 239.985248 108.960621 
L 236.70591 260.359833 
L 233.426571 260.360995 
L 230.147232 105.496753 
L 226.867894 106.441594 
L 223.588555 108.161595 
L 220.309216 110.624484 
L 217.029878 113.77614 
L 213.750539 117.541565 
L 210.4712 121.826511 
L 207.191862 126.51973 
L 203.912523 131.495792 
L 200.633185 136.618433 
L 197.353846 141.744346 
L 194.074507 146.72734 
L 190.795169 151.422769 
L 187.51583 155.692125 
L 184.236491 159.407681 
L 180.957153 162.457066 
L 177.677814 164.747629 
L 174.398475 166.210488 
L 171.119137 166.804102 
L 167.839798 166.517258 
L 164.560459 165.371329 
L 161.281121 163.421692 
L 158.001782 160.758192 
L 154.722443 157.504546 
L 151.443105 153.816614 
L 148.163766 149.879462 
L 144.884428 145.903185 
L 141.605089 142.117469 
L 138.32575 138.764918 
L 135.046412 136.093185 
L 131.767073 134.346013 
L 128.487734 133.753315 
L 125.208396 134.520485 
L 121.929057 136.81717 
L 118.649718 140.765823 
L 115.37038 146.430386 
L 112.091041 153.805546 
L 108.811702 162.807078 
L 105.532364 173.263876 
L 102.253025 184.912345 
L 98.973686 197.393951 
L 95.694348 210.256798 
L 92.415009 222.962227 
L 89.135671 234.897552 
L 85.856332 245.396149 
L 82.576993 253.766271 
L 79.297655 259.330081 
L 76.018316 261.474538 
L 72.738977 259.715953 
z
" clip-path="url(#pd84e61d5ab)" style="fill: #9467bd; fill-opacity: 0.166667"/>
   </g>
   <g id="PolyCollection_6">
    <path d="M 72.738977 256.392694 
L 72.738977 260.383498 
L 76.018316 260.383498 
L 79.297655 260.383498 
L 82.576993 260.383498 
L 85.856332 260.383498 
L 89.135671 260.383498 
L 92.415009 260.383498 
L 95.694348 260.383498 
L 98.973686 260.383498 
L 102.253025 260.383498 
L 105.532364 260.383498 
L 108.811702 260.383498 
L 112.091041 260.383498 
L 115.37038 260.383498 
L 118.649718 260.383498 
L 121.929057 260.383498 
L 125.208396 260.383498 
L 128.487734 260.383498 
L 131.767073 260.383498 
L 135.046412 260.383498 
L 138.32575 260.383498 
L 141.605089 260.383498 
L 144.884428 260.383498 
L 148.163766 260.383498 
L 151.443105 260.383498 
L 154.722443 260.383498 
L 158.001782 260.383498 
L 161.281121 260.383498 
L 164.560459 260.383498 
L 167.839798 260.383498 
L 171.119137 260.383498 
L 174.398475 260.383498 
L 177.677814 260.383498 
L 180.957153 260.383498 
L 184.236491 260.383498 
L 187.51583 260.383498 
L 190.795169 260.383498 
L 194.074507 260.383498 
L 197.353846 260.383498 
L 200.633185 260.383498 
L 203.912523 260.383498 
L 207.191862 260.383498 
L 210.4712 260.383498 
L 213.750539 260.383498 
L 217.029878 260.383498 
L 220.309216 260.383498 
L 223.588555 260.383498 
L 226.867894 260.383498 
L 230.147232 260.383498 
L 233.426571 260.383498 
L 236.70591 260.383498 
L 239.985248 260.383498 
L 243.264587 260.383498 
L 246.543926 260.383498 
L 249.823264 260.383498 
L 253.102603 260.383498 
L 256.381942 260.383498 
L 259.66128 260.383498 
L 262.940619 260.383498 
L 266.219957 260.383498 
L 269.499296 260.383498 
L 272.778635 260.383498 
L 276.057973 260.383498 
L 279.337312 260.383498 
L 282.616651 260.383498 
L 285.895989 260.383498 
L 289.175328 260.383498 
L 292.454667 260.383498 
L 295.734005 260.383498 
L 299.013344 260.383498 
L 302.292683 260.383498 
L 305.572021 260.383498 
L 308.85136 260.383498 
L 312.130699 260.383498 
L 315.410037 260.383498 
L 318.689376 260.383498 
L 321.968714 260.383498 
L 325.248053 260.383498 
L 328.527392 260.383498 
L 331.80673 260.383498 
L 335.086069 260.383498 
L 338.365408 260.383498 
L 341.644746 260.383498 
L 344.924085 260.383498 
L 348.203424 260.383498 
L 351.482762 260.383498 
L 354.762101 260.383498 
L 358.04144 260.383498 
L 361.320778 260.383498 
L 364.600117 260.383498 
L 367.879456 260.383498 
L 371.158794 260.383498 
L 374.438133 260.383498 
L 377.717471 260.383498 
L 380.99681 260.383498 
L 384.276149 260.383498 
L 387.555487 260.383498 
L 390.834826 260.383498 
L 394.114165 260.383498 
L 397.393503 260.383498 
L 397.393503 197.403647 
L 397.393503 197.403647 
L 394.114165 240.48948 
L 390.834826 262.70822 
L 387.555487 271.392144 
L 384.276149 271.963908 
L 380.99681 268.302169 
L 377.717471 263.055507 
L 374.438133 257.909999 
L 371.158794 253.815384 
L 367.879456 251.174412 
L 364.600117 249.999602 
L 361.320778 250.041323 
L 358.04144 250.890754 
L 354.762101 252.061034 
L 351.482762 253.049559 
L 348.203424 253.384191 
L 344.924085 252.655798 
L 341.644746 250.539398 
L 338.365408 246.805871 
L 335.086069 241.326039 
L 331.80673 234.068709 
L 328.527392 225.094052 
L 325.248053 214.543576 
L 321.968714 202.627727 
L 318.689376 189.612056 
L 315.410037 175.802701 
L 312.130699 161.531864 
L 308.85136 147.143774 
L 305.572021 132.9816 
L 302.292683 119.375608 
L 299.013344 106.632824 
L 295.734005 95.028355 
L 292.454667 84.798468 
L 289.175328 76.135447 
L 285.895989 69.18422 
L 282.616651 64.040691 
L 279.337312 60.751657 
L 276.057973 59.316195 
L 272.778635 59.688337 
L 269.499296 61.780883 
L 266.219957 65.470126 
L 262.940619 70.601316 
L 259.66128 76.994645 
L 256.381942 84.451559 
L 253.102603 92.761195 
L 249.823264 101.706756 
L 246.543926 111.071658 
L 243.264587 120.645278 
L 239.985248 130.228172 
L 236.70591 260.355239 
L 233.426571 260.355591 
L 230.147232 157.005321 
L 226.867894 165.047396 
L 223.588555 172.414411 
L 220.309216 179.03818 
L 217.029878 184.875421 
L 213.750539 189.906473 
L 210.4712 194.133258 
L 207.191862 197.576595 
L 203.912523 200.272963 
L 200.633185 202.27084 
L 197.353846 203.626761 
L 194.074507 204.401241 
L 190.795169 204.654741 
L 187.51583 204.44382 
L 184.236491 203.81767 
L 180.957153 202.815186 
L 177.677814 201.462739 
L 174.398475 199.772802 
L 171.119137 197.743565 
L 167.839798 195.359642 
L 164.560459 192.59397 
L 161.281121 189.410932 
L 158.001782 185.770712 
L 154.722443 181.634861 
L 151.443105 176.972939 
L 148.163766 171.770115 
L 144.884428 166.035443 
L 141.605089 159.810549 
L 138.32575 153.178273 
L 135.046412 146.270805 
L 131.767073 139.276676 
L 128.487734 132.445877 
L 125.208396 126.092247 
L 121.929057 120.592132 
L 118.649718 116.378148 
L 115.37038 113.926748 
L 112.091041 113.738087 
L 108.811702 116.306515 
L 105.532364 122.079822 
L 102.253025 131.405135 
L 98.973686 144.459153 
L 95.694348 161.16017 
L 92.415009 181.059059 
L 89.135671 203.206161 
L 85.856332 225.990679 
L 82.576993 246.94896 
L 79.297655 262.537649 
L 76.018316 267.867429 
L 72.738977 256.392694 
z
" clip-path="url(#pd84e61d5ab)" style="fill: #8c564b; fill-opacity: 0.166667"/>
   </g>
   <g id="matplotlib.axis_1">
    <g id="xtick_1">
     <g id="line2d_1">
      <defs>
       <path id="me72addc774" d="M 0 0 
L 0 3.5 
" style="stroke: #000000; stroke-width: 0.8"/>
      </defs>
      <g>
       <use xlink:href="#me72addc774" x="72.738977" y="288.430125" style="stroke: #000000; stroke-width: 0.8"/>
      </g>
     </g>
     <g id="text_1">
      <!-- 0.0 -->
      <g transform="translate(64.787415 303.028562) scale(0.1 -0.1)">
       <defs>
        <path id="DejaVuSans-30" d="M 2034 4250 
Q 1547 4250 1301 3770 
Q 1056 3291 1056 2328 
Q 1056 1369 1301 889 
Q 1547 409 2034 409 
Q 2525 409 2770 889 
Q 3016 1369 3016 2328 
Q 3016 3291 2770 3770 
Q 2525 4250 2034 4250 
z
M 2034 4750 
Q 2819 4750 3233 4129 
Q 3647 3509 3647 2328 
Q 3647 1150 3233 529 
Q 2819 -91 2034 -91 
Q 1250 -91 836 529 
Q 422 1150 422 2328 
Q 422 3509 836 4129 
Q 1250 4750 2034 4750 
z
" transform="scale(0.015625)"/>
        <path id="DejaVuSans-2e" d="M 684 794 
L 1344 794 
L 1344 0 
L 684 0 
L 684 794 
z
" transform="scale(0.015625)"/>
       </defs>
       <use xlink:href="#DejaVuSans-30"/>
       <use xlink:href="#DejaVuSans-2e" x="63.623047"/>
       <use xlink:href="#DejaVuSans-30" x="95.410156"/>
      </g>
     </g>
    </g>
    <g id="xtick_2">
     <g id="line2d_2">
      <g>
       <use xlink:href="#me72addc774" x="138.325754" y="288.430125" style="stroke: #000000; stroke-width: 0.8"/>
      </g>
     </g>
     <g id="text_2">
      <!-- 0.2 -->
      <g transform="translate(130.374192 303.028562) scale(0.1 -0.1)">
       <defs>
        <path id="DejaVuSans-32" d="M 1228 531 
L 3431 531 
L 3431 0 
L 469 0 
L 469 531 
Q 828 903 1448 1529 
Q 2069 2156 2228 2338 
Q 2531 2678 2651 2914 
Q 2772 3150 2772 3378 
Q 2772 3750 2511 3984 
Q 2250 4219 1831 4219 
Q 1534 4219 1204 4116 
Q 875 4013 500 3803 
L 500 4441 
Q 881 4594 1212 4672 
Q 1544 4750 1819 4750 
Q 2544 4750 2975 4387 
Q 3406 4025 3406 3419 
Q 3406 3131 3298 2873 
Q 3191 2616 2906 2266 
Q 2828 2175 2409 1742 
Q 1991 1309 1228 531 
z
" transform="scale(0.015625)"/>
       </defs>
       <use xlink:href="#DejaVuSans-30"/>
       <use xlink:href="#DejaVuSans-2e" x="63.623047"/>
       <use xlink:href="#DejaVuSans-32" x="95.410156"/>
      </g>
     </g>
    </g>
    <g id="xtick_3">
     <g id="line2d_3">
      <g>
       <use xlink:href="#me72addc774" x="203.912531" y="288.430125" style="stroke: #000000; stroke-width: 0.8"/>
      </g>
     </g>
     <g id="text_3">
      <!-- 0.4 -->
      <g transform="translate(195.960968 303.028562) scale(0.1 -0.1)">
       <defs>
        <path id="DejaVuSans-34" d="M 2419 4116 
L 825 1625 
L 2419 1625 
L 2419 4116 
z
M 2253 4666 
L 3047 4666 
L 3047 1625 
L 3713 1625 
L 3713 1100 
L 3047 1100 
L 3047 0 
L 2419 0 
L 2419 1100 
L 313 1100 
L 313 1709 
L 2253 4666 
z
" transform="scale(0.015625)"/>
       </defs>
       <use xlink:href="#DejaVuSans-30"/>
       <use xlink:href="#DejaVuSans-2e" x="63.623047"/>
       <use xlink:href="#DejaVuSans-34" x="95.410156"/>
      </g>
     </g>
    </g>
    <g id="xtick_4">
     <g id="line2d_4">
      <g>
       <use xlink:href="#me72addc774" x="269.499308" y="288.430125" style="stroke: #000000; stroke-width: 0.8"/>
      </g>
     </g>
     <g id="text_4">
      <!-- 0.6 -->
      <g transform="translate(261.547745 303.028562) scale(0.1 -0.1)">
       <defs>
        <path id="DejaVuSans-36" d="M 2113 2584 
Q 1688 2584 1439 2293 
Q 1191 2003 1191 1497 
Q 1191 994 1439 701 
Q 1688 409 2113 409 
Q 2538 409 2786 701 
Q 3034 994 3034 1497 
Q 3034 2003 2786 2293 
Q 2538 2584 2113 2584 
z
M 3366 4563 
L 3366 3988 
Q 3128 4100 2886 4159 
Q 2644 4219 2406 4219 
Q 1781 4219 1451 3797 
Q 1122 3375 1075 2522 
Q 1259 2794 1537 2939 
Q 1816 3084 2150 3084 
Q 2853 3084 3261 2657 
Q 3669 2231 3669 1497 
Q 3669 778 3244 343 
Q 2819 -91 2113 -91 
Q 1303 -91 875 529 
Q 447 1150 447 2328 
Q 447 3434 972 4092 
Q 1497 4750 2381 4750 
Q 2619 4750 2861 4703 
Q 3103 4656 3366 4563 
z
" transform="scale(0.015625)"/>
       </defs>
       <use xlink:href="#DejaVuSans-30"/>
       <use xlink:href="#DejaVuSans-2e" x="63.623047"/>
       <use xlink:href="#DejaVuSans-36" x="95.410156"/>
      </g>
     </g>
    </g>
    <g id="xtick_5">
     <g id="line2d_5">
      <g>
       <use xlink:href="#me72addc774" x="335.086085" y="288.430125" style="stroke: #000000; stroke-width: 0.8"/>
      </g>
     </g>
     <g id="text_5">
      <!-- 0.8 -->
      <g transform="translate(327.134522 303.028562) scale(0.1 -0.1)">
       <defs>
        <path id="DejaVuSans-38" d="M 2034 2216 
Q 1584 2216 1326 1975 
Q 1069 1734 1069 1313 
Q 1069 891 1326 650 
Q 1584 409 2034 409 
Q 2484 409 2743 651 
Q 3003 894 3003 1313 
Q 3003 1734 2745 1975 
Q 2488 2216 2034 2216 
z
M 1403 2484 
Q 997 2584 770 2862 
Q 544 3141 544 3541 
Q 544 4100 942 4425 
Q 1341 4750 2034 4750 
Q 2731 4750 3128 4425 
Q 3525 4100 3525 3541 
Q 3525 3141 3298 2862 
Q 3072 2584 2669 2484 
Q 3125 2378 3379 2068 
Q 3634 1759 3634 1313 
Q 3634 634 3220 271 
Q 2806 -91 2034 -91 
Q 1263 -91 848 271 
Q 434 634 434 1313 
Q 434 1759 690 2068 
Q 947 2378 1403 2484 
z
M 1172 3481 
Q 1172 3119 1398 2916 
Q 1625 2713 2034 2713 
Q 2441 2713 2670 2916 
Q 2900 3119 2900 3481 
Q 2900 3844 2670 4047 
Q 2441 4250 2034 4250 
Q 1625 4250 1398 4047 
Q 1172 3844 1172 3481 
z
" transform="scale(0.015625)"/>
       </defs>
       <use xlink:href="#DejaVuSans-30"/>
       <use xlink:href="#DejaVuSans-2e" x="63.623047"/>
       <use xlink:href="#DejaVuSans-38" x="95.410156"/>
      </g>
     </g>
    </g>
    <g id="xtick_6">
     <g id="line2d_6">
      <g>
       <use xlink:href="#me72addc774" x="400.672862" y="288.430125" style="stroke: #000000; stroke-width: 0.8"/>
      </g>
     </g>
     <g id="text_6">
      <!-- 1.0 -->
      <g transform="translate(392.721299 303.028562) scale(0.1 -0.1)">
       <defs>
        <path id="DejaVuSans-31" d="M 794 531 
L 1825 531 
L 1825 4091 
L 703 3866 
L 703 4441 
L 1819 4666 
L 2450 4666 
L 2450 531 
L 3481 531 
L 3481 0 
L 794 0 
L 794 531 
z
" transform="scale(0.015625)"/>
       </defs>
       <use xlink:href="#DejaVuSans-31"/>
       <use xlink:href="#DejaVuSans-2e" x="63.623047"/>
       <use xlink:href="#DejaVuSans-30" x="95.410156"/>
      </g>
     </g>
    </g>
    <g id="text_7">
     <!-- Pixel values -->
     <g transform="translate(205.654531 316.706687) scale(0.1 -0.1)">
      <defs>
       <path id="DejaVuSans-50" d="M 1259 4147 
L 1259 2394 
L 2053 2394 
Q 2494 2394 2734 2622 
Q 2975 2850 2975 3272 
Q 2975 3691 2734 3919 
Q 2494 4147 2053 4147 
L 1259 4147 
z
M 628 4666 
L 2053 4666 
Q 2838 4666 3239 4311 
Q 3641 3956 3641 3272 
Q 3641 2581 3239 2228 
Q 2838 1875 2053 1875 
L 1259 1875 
L 1259 0 
L 628 0 
L 628 4666 
z
" transform="scale(0.015625)"/>
       <path id="DejaVuSans-69" d="M 603 3500 
L 1178 3500 
L 1178 0 
L 603 0 
L 603 3500 
z
M 603 4863 
L 1178 4863 
L 1178 4134 
L 603 4134 
L 603 4863 
z
" transform="scale(0.015625)"/>
       <path id="DejaVuSans-78" d="M 3513 3500 
L 2247 1797 
L 3578 0 
L 2900 0 
L 1881 1375 
L 863 0 
L 184 0 
L 1544 1831 
L 300 3500 
L 978 3500 
L 1906 2253 
L 2834 3500 
L 3513 3500 
z
" transform="scale(0.015625)"/>
       <path id="DejaVuSans-65" d="M 3597 1894 
L 3597 1613 
L 953 1613 
Q 991 1019 1311 708 
Q 1631 397 2203 397 
Q 2534 397 2845 478 
Q 3156 559 3463 722 
L 3463 178 
Q 3153 47 2828 -22 
Q 2503 -91 2169 -91 
Q 1331 -91 842 396 
Q 353 884 353 1716 
Q 353 2575 817 3079 
Q 1281 3584 2069 3584 
Q 2775 3584 3186 3129 
Q 3597 2675 3597 1894 
z
M 3022 2063 
Q 3016 2534 2758 2815 
Q 2500 3097 2075 3097 
Q 1594 3097 1305 2825 
Q 1016 2553 972 2059 
L 3022 2063 
z
" transform="scale(0.015625)"/>
       <path id="DejaVuSans-6c" d="M 603 4863 
L 1178 4863 
L 1178 0 
L 603 0 
L 603 4863 
z
" transform="scale(0.015625)"/>
       <path id="DejaVuSans-20" transform="scale(0.015625)"/>
       <path id="DejaVuSans-76" d="M 191 3500 
L 800 3500 
L 1894 563 
L 2988 3500 
L 3597 3500 
L 2284 0 
L 1503 0 
L 191 3500 
z
" transform="scale(0.015625)"/>
       <path id="DejaVuSans-61" d="M 2194 1759 
Q 1497 1759 1228 1600 
Q 959 1441 959 1056 
Q 959 750 1161 570 
Q 1363 391 1709 391 
Q 2188 391 2477 730 
Q 2766 1069 2766 1631 
L 2766 1759 
L 2194 1759 
z
M 3341 1997 
L 3341 0 
L 2766 0 
L 2766 531 
Q 2569 213 2275 61 
Q 1981 -91 1556 -91 
Q 1019 -91 701 211 
Q 384 513 384 1019 
Q 384 1609 779 1909 
Q 1175 2209 1959 2209 
L 2766 2209 
L 2766 2266 
Q 2766 2663 2505 2880 
Q 2244 3097 1772 3097 
Q 1472 3097 1187 3025 
Q 903 2953 641 2809 
L 641 3341 
Q 956 3463 1253 3523 
Q 1550 3584 1831 3584 
Q 2591 3584 2966 3190 
Q 3341 2797 3341 1997 
z
" transform="scale(0.015625)"/>
       <path id="DejaVuSans-75" d="M 544 1381 
L 544 3500 
L 1119 3500 
L 1119 1403 
Q 1119 906 1312 657 
Q 1506 409 1894 409 
Q 2359 409 2629 706 
Q 2900 1003 2900 1516 
L 2900 3500 
L 3475 3500 
L 3475 0 
L 2900 0 
L 2900 538 
Q 2691 219 2414 64 
Q 2138 -91 1772 -91 
Q 1169 -91 856 284 
Q 544 659 544 1381 
z
M 1991 3584 
L 1991 3584 
z
" transform="scale(0.015625)"/>
       <path id="DejaVuSans-73" d="M 2834 3397 
L 2834 2853 
Q 2591 2978 2328 3040 
Q 2066 3103 1784 3103 
Q 1356 3103 1142 2972 
Q 928 2841 928 2578 
Q 928 2378 1081 2264 
Q 1234 2150 1697 2047 
L 1894 2003 
Q 2506 1872 2764 1633 
Q 3022 1394 3022 966 
Q 3022 478 2636 193 
Q 2250 -91 1575 -91 
Q 1294 -91 989 -36 
Q 684 19 347 128 
L 347 722 
Q 666 556 975 473 
Q 1284 391 1588 391 
Q 1994 391 2212 530 
Q 2431 669 2431 922 
Q 2431 1156 2273 1281 
Q 2116 1406 1581 1522 
L 1381 1569 
Q 847 1681 609 1914 
Q 372 2147 372 2553 
Q 372 3047 722 3315 
Q 1072 3584 1716 3584 
Q 2034 3584 2315 3537 
Q 2597 3491 2834 3397 
z
" transform="scale(0.015625)"/>
      </defs>
      <use xlink:href="#DejaVuSans-50"/>
      <use xlink:href="#DejaVuSans-69" x="58.052734"/>
      <use xlink:href="#DejaVuSans-78" x="85.835938"/>
      <use xlink:href="#DejaVuSans-65" x="141.890625"/>
      <use xlink:href="#DejaVuSans-6c" x="203.414062"/>
      <use xlink:href="#DejaVuSans-20" x="231.197266"/>
      <use xlink:href="#DejaVuSans-76" x="262.984375"/>
      <use xlink:href="#DejaVuSans-61" x="322.164062"/>
      <use xlink:href="#DejaVuSans-6c" x="383.443359"/>
      <use xlink:href="#DejaVuSans-75" x="411.226562"/>
      <use xlink:href="#DejaVuSans-65" x="474.605469"/>
      <use xlink:href="#DejaVuSans-73" x="536.128906"/>
     </g>
    </g>
   </g>
   <g id="matplotlib.axis_2">
    <g id="ytick_1">
     <g id="line2d_7">
      <defs>
       <path id="m9dc518faf0" d="M 0 0 
L -3.5 0 
" style="stroke: #000000; stroke-width: 0.8"/>
      </defs>
      <g>
       <use xlink:href="#m9dc518faf0" x="56.50625" y="260.383498" style="stroke: #000000; stroke-width: 0.8"/>
      </g>
     </g>
     <g id="text_8">
      <!-- 0.000 -->
      <g transform="translate(20.878125 264.182716) scale(0.1 -0.1)">
       <use xlink:href="#DejaVuSans-30"/>
       <use xlink:href="#DejaVuSans-2e" x="63.623047"/>
       <use xlink:href="#DejaVuSans-30" x="95.410156"/>
       <use xlink:href="#DejaVuSans-30" x="159.033203"/>
       <use xlink:href="#DejaVuSans-30" x="222.65625"/>
      </g>
     </g>
    </g>
    <g id="ytick_2">
     <g id="line2d_8">
      <g>
       <use xlink:href="#m9dc518faf0" x="56.50625" y="217.624937" style="stroke: #000000; stroke-width: 0.8"/>
      </g>
     </g>
     <g id="text_9">
      <!-- 0.005 -->
      <g transform="translate(20.878125 221.424155) scale(0.1 -0.1)">
       <defs>
        <path id="DejaVuSans-35" d="M 691 4666 
L 3169 4666 
L 3169 4134 
L 1269 4134 
L 1269 2991 
Q 1406 3038 1543 3061 
Q 1681 3084 1819 3084 
Q 2600 3084 3056 2656 
Q 3513 2228 3513 1497 
Q 3513 744 3044 326 
Q 2575 -91 1722 -91 
Q 1428 -91 1123 -41 
Q 819 9 494 109 
L 494 744 
Q 775 591 1075 516 
Q 1375 441 1709 441 
Q 2250 441 2565 725 
Q 2881 1009 2881 1497 
Q 2881 1984 2565 2268 
Q 2250 2553 1709 2553 
Q 1456 2553 1204 2497 
Q 953 2441 691 2322 
L 691 4666 
z
" transform="scale(0.015625)"/>
       </defs>
       <use xlink:href="#DejaVuSans-30"/>
       <use xlink:href="#DejaVuSans-2e" x="63.623047"/>
       <use xlink:href="#DejaVuSans-30" x="95.410156"/>
       <use xlink:href="#DejaVuSans-30" x="159.033203"/>
       <use xlink:href="#DejaVuSans-35" x="222.65625"/>
      </g>
     </g>
    </g>
    <g id="ytick_3">
     <g id="line2d_9">
      <g>
       <use xlink:href="#m9dc518faf0" x="56.50625" y="174.866375" style="stroke: #000000; stroke-width: 0.8"/>
      </g>
     </g>
     <g id="text_10">
      <!-- 0.010 -->
      <g transform="translate(20.878125 178.665594) scale(0.1 -0.1)">
       <use xlink:href="#DejaVuSans-30"/>
       <use xlink:href="#DejaVuSans-2e" x="63.623047"/>
       <use xlink:href="#DejaVuSans-30" x="95.410156"/>
       <use xlink:href="#DejaVuSans-31" x="159.033203"/>
       <use xlink:href="#DejaVuSans-30" x="222.65625"/>
      </g>
     </g>
    </g>
    <g id="ytick_4">
     <g id="line2d_10">
      <g>
       <use xlink:href="#m9dc518faf0" x="56.50625" y="132.107814" style="stroke: #000000; stroke-width: 0.8"/>
      </g>
     </g>
     <g id="text_11">
      <!-- 0.015 -->
      <g transform="translate(20.878125 135.907033) scale(0.1 -0.1)">
       <use xlink:href="#DejaVuSans-30"/>
       <use xlink:href="#DejaVuSans-2e" x="63.623047"/>
       <use xlink:href="#DejaVuSans-30" x="95.410156"/>
       <use xlink:href="#DejaVuSans-31" x="159.033203"/>
       <use xlink:href="#DejaVuSans-35" x="222.65625"/>
      </g>
     </g>
    </g>
    <g id="ytick_5">
     <g id="line2d_11">
      <g>
       <use xlink:href="#m9dc518faf0" x="56.50625" y="89.349253" style="stroke: #000000; stroke-width: 0.8"/>
      </g>
     </g>
     <g id="text_12">
      <!-- 0.020 -->
      <g transform="translate(20.878125 93.148472) scale(0.1 -0.1)">
       <use xlink:href="#DejaVuSans-30"/>
       <use xlink:href="#DejaVuSans-2e" x="63.623047"/>
       <use xlink:href="#DejaVuSans-30" x="95.410156"/>
       <use xlink:href="#DejaVuSans-32" x="159.033203"/>
       <use xlink:href="#DejaVuSans-30" x="222.65625"/>
      </g>
     </g>
    </g>
    <g id="ytick_6">
     <g id="line2d_12">
      <g>
       <use xlink:href="#m9dc518faf0" x="56.50625" y="46.590692" style="stroke: #000000; stroke-width: 0.8"/>
      </g>
     </g>
     <g id="text_13">
      <!-- 0.025 -->
      <g transform="translate(20.878125 50.389911) scale(0.1 -0.1)">
       <use xlink:href="#DejaVuSans-30"/>
       <use xlink:href="#DejaVuSans-2e" x="63.623047"/>
       <use xlink:href="#DejaVuSans-30" x="95.410156"/>
       <use xlink:href="#DejaVuSans-32" x="159.033203"/>
       <use xlink:href="#DejaVuSans-35" x="222.65625"/>
      </g>
     </g>
    </g>
    <g id="text_14">
     <!-- Frequency -->
     <g transform="translate(14.798437 181.203812) rotate(-90) scale(0.1 -0.1)">
      <defs>
       <path id="DejaVuSans-46" d="M 628 4666 
L 3309 4666 
L 3309 4134 
L 1259 4134 
L 1259 2759 
L 3109 2759 
L 3109 2228 
L 1259 2228 
L 1259 0 
L 628 0 
L 628 4666 
z
" transform="scale(0.015625)"/>
       <path id="DejaVuSans-72" d="M 2631 2963 
Q 2534 3019 2420 3045 
Q 2306 3072 2169 3072 
Q 1681 3072 1420 2755 
Q 1159 2438 1159 1844 
L 1159 0 
L 581 0 
L 581 3500 
L 1159 3500 
L 1159 2956 
Q 1341 3275 1631 3429 
Q 1922 3584 2338 3584 
Q 2397 3584 2469 3576 
Q 2541 3569 2628 3553 
L 2631 2963 
z
" transform="scale(0.015625)"/>
       <path id="DejaVuSans-71" d="M 947 1747 
Q 947 1113 1208 752 
Q 1469 391 1925 391 
Q 2381 391 2643 752 
Q 2906 1113 2906 1747 
Q 2906 2381 2643 2742 
Q 2381 3103 1925 3103 
Q 1469 3103 1208 2742 
Q 947 2381 947 1747 
z
M 2906 525 
Q 2725 213 2448 61 
Q 2172 -91 1784 -91 
Q 1150 -91 751 415 
Q 353 922 353 1747 
Q 353 2572 751 3078 
Q 1150 3584 1784 3584 
Q 2172 3584 2448 3432 
Q 2725 3281 2906 2969 
L 2906 3500 
L 3481 3500 
L 3481 -1331 
L 2906 -1331 
L 2906 525 
z
" transform="scale(0.015625)"/>
       <path id="DejaVuSans-6e" d="M 3513 2113 
L 3513 0 
L 2938 0 
L 2938 2094 
Q 2938 2591 2744 2837 
Q 2550 3084 2163 3084 
Q 1697 3084 1428 2787 
Q 1159 2491 1159 1978 
L 1159 0 
L 581 0 
L 581 3500 
L 1159 3500 
L 1159 2956 
Q 1366 3272 1645 3428 
Q 1925 3584 2291 3584 
Q 2894 3584 3203 3211 
Q 3513 2838 3513 2113 
z
" transform="scale(0.015625)"/>
       <path id="DejaVuSans-63" d="M 3122 3366 
L 3122 2828 
Q 2878 2963 2633 3030 
Q 2388 3097 2138 3097 
Q 1578 3097 1268 2742 
Q 959 2388 959 1747 
Q 959 1106 1268 751 
Q 1578 397 2138 397 
Q 2388 397 2633 464 
Q 2878 531 3122 666 
L 3122 134 
Q 2881 22 2623 -34 
Q 2366 -91 2075 -91 
Q 1284 -91 818 406 
Q 353 903 353 1747 
Q 353 2603 823 3093 
Q 1294 3584 2113 3584 
Q 2378 3584 2631 3529 
Q 2884 3475 3122 3366 
z
" transform="scale(0.015625)"/>
       <path id="DejaVuSans-79" d="M 2059 -325 
Q 1816 -950 1584 -1140 
Q 1353 -1331 966 -1331 
L 506 -1331 
L 506 -850 
L 844 -850 
Q 1081 -850 1212 -737 
Q 1344 -625 1503 -206 
L 1606 56 
L 191 3500 
L 800 3500 
L 1894 763 
L 2988 3500 
L 3597 3500 
L 2059 -325 
z
" transform="scale(0.015625)"/>
      </defs>
      <use xlink:href="#DejaVuSans-46"/>
      <use xlink:href="#DejaVuSans-72" x="50.269531"/>
      <use xlink:href="#DejaVuSans-65" x="89.132812"/>
      <use xlink:href="#DejaVuSans-71" x="150.65625"/>
      <use xlink:href="#DejaVuSans-75" x="214.132812"/>
      <use xlink:href="#DejaVuSans-65" x="277.511719"/>
      <use xlink:href="#DejaVuSans-6e" x="339.035156"/>
      <use xlink:href="#DejaVuSans-63" x="402.414062"/>
      <use xlink:href="#DejaVuSans-79" x="457.394531"/>
     </g>
    </g>
   </g>
   <g id="line2d_13">
    <path d="M 72.738977 266.372972 
L 76.018316 266.196892 
L 79.297655 255.87397 
L 82.576994 238.84263 
L 85.856333 217.901902 
L 89.135671 195.286851 
L 92.41501 172.738622 
L 95.694349 151.569258 
L 98.973688 132.721437 
L 102.253027 116.823283 
L 105.532366 104.238445 
L 108.811705 95.111606 
L 112.091043 89.40962 
L 115.370382 86.958474 
L 118.649721 87.476265 
L 121.92906 90.602408 
L 125.208399 95.923265 
L 128.487738 102.994421 
L 131.767076 111.359798 
L 135.046415 120.567826 
L 138.325754 130.184883 
L 141.605093 139.806195 
L 144.884432 149.064412 
L 148.163771 157.636062 
L 151.44311 165.246063 
L 154.722448 171.670512 
L 158.001787 176.737912 
L 161.281126 180.329035 
L 164.560465 182.375595 
L 167.839804 182.857885 
L 171.119143 181.801566 
L 174.398481 179.273736 
L 177.67782 175.378437 
L 180.957159 170.251746 
L 184.236498 164.056562 
L 187.515837 156.977221 
L 190.795176 149.21405 
L 194.074514 140.977961 
L 197.353853 132.485174 
L 200.633192 123.952165 
L 203.912531 115.590894 
L 207.19187 107.604404 
L 210.471209 100.182822 
L 213.750548 93.499821 
L 217.029886 87.709577 
L 220.309225 82.944254 
L 223.588564 79.312028 
L 226.867903 76.895661 
L 230.147242 75.751634 
L 233.426581 260.361106 
L 236.705919 260.360505 
L 239.985258 81.132614 
L 243.264597 84.539813 
L 246.543936 89.079653 
L 249.823275 94.690289 
L 253.102614 101.292775 
L 256.381952 108.79257 
L 259.661291 117.081247 
L 262.94063 126.038382 
L 266.219969 135.53362 
L 269.499308 145.428883 
L 272.778647 155.580714 
L 276.057986 165.842742 
L 279.337324 176.068228 
L 282.616663 186.112699 
L 285.896002 195.836617 
L 289.175341 205.108079 
L 292.45468 213.805504 
L 295.734019 221.820282 
L 299.013357 229.059334 
L 302.292696 235.447557 
L 305.572035 240.930077 
L 308.851374 245.47428 
L 312.130713 249.071527 
L 315.410052 251.738501 
L 318.68939 253.518072 
L 321.968729 254.479606 
L 325.248068 254.718589 
L 328.527407 254.355443 
L 331.806746 253.533393 
L 335.086085 252.415224 
L 338.365424 251.178746 
L 341.644762 250.010773 
L 344.924101 249.099386 
L 348.20344 248.624242 
L 351.482779 248.744656 
L 354.762118 249.585154 
L 358.041457 251.218174 
L 361.320795 253.643548 
L 364.600134 256.76439 
L 367.879473 260.358933 
L 371.158812 264.047885 
L 374.438151 267.256766 
L 377.71749 269.172704 
L 380.996829 268.695079 
L 384.276167 264.379393 
L 387.555506 254.373665 
L 390.834845 236.346622 
L 394.114184 207.406881 
L 397.393523 164.012286 
" clip-path="url(#pd84e61d5ab)" style="fill: none; stroke: #1f77b4; stroke-width: 1.5; stroke-linecap: square"/>
   </g>
   <g id="line2d_14">
    <path d="M 72.738977 247.393046 
L 76.018316 268.203515 
L 79.297655 270.630966 
L 82.576994 261.38045 
L 85.856333 245.499804 
L 89.135671 226.684961 
L 92.41501 207.542709 
L 95.694349 189.815313 
L 98.973688 174.571051 
L 102.253027 162.364435 
L 105.532366 153.369604 
L 108.811705 147.490073 
L 112.091043 144.447797 
L 115.370382 143.854226 
L 118.649721 145.265818 
L 121.92906 148.226234 
L 125.208399 152.297245 
L 128.487738 157.080167 
L 131.767076 162.229469 
L 135.046415 167.460007 
L 138.325754 172.549183 
L 141.605093 177.335182 
L 144.884432 181.712267 
L 148.163771 185.624011 
L 151.44311 189.055218 
L 154.722448 192.023132 
L 158.001787 194.568493 
L 161.281126 196.746842 
L 164.560465 198.620432 
L 167.839804 200.250992 
L 171.119143 201.693549 
L 174.398481 202.991421 
L 177.67782 204.17246 
L 180.957159 205.246557 
L 184.236498 206.204393 
L 187.515837 207.017368 
L 190.795176 207.63863 
L 194.074514 208.005067 
L 197.353853 208.040153 
L 200.633192 207.657471 
L 203.912531 206.764778 
L 207.19187 205.268418 
L 210.471209 203.077946 
L 213.750548 200.110766 
L 217.029886 196.296653 
L 220.309225 191.581982 
L 223.588564 185.933541 
L 226.867903 179.341796 
L 230.147242 171.823497 
L 233.426581 260.354706 
L 236.705919 260.353104 
L 239.985258 146.25698 
L 243.264597 135.373167 
L 246.543936 123.988049 
L 249.823275 112.308435 
L 253.102614 100.565861 
L 256.381952 89.011248 
L 259.661291 77.908696 
L 262.94063 67.528557 
L 266.219969 58.139971 
L 269.499308 50.003032 
L 272.778647 43.360806 
L 276.057986 38.431432 
L 279.337324 35.400524 
L 282.616663 34.414125 
L 285.896002 35.572461 
L 289.175341 38.924724 
L 292.45468 44.465127 
L 295.734019 52.130437 
L 299.013357 61.799183 
L 302.292696 73.292704 
L 305.572035 86.378165 
L 308.851374 100.77362 
L 312.130713 116.15515 
L 315.410052 132.166045 
L 318.68939 148.427929 
L 321.968729 164.553626 
L 325.248068 180.161504 
L 328.527407 194.890902 
L 331.806746 208.418152 
L 335.086085 220.472566 
L 338.365424 230.851637 
L 341.644762 239.434528 
L 344.924101 246.192795 
L 348.20344 251.197071 
L 351.482779 254.618279 
L 354.762118 256.721727 
L 358.041457 257.852204 
L 361.320795 258.407989 
L 364.600134 258.801394 
L 367.879473 259.403241 
L 371.158812 260.468336 
L 374.438151 262.038756 
L 377.71749 263.821392 
L 380.996829 265.035905 
L 384.276167 264.228842 
L 387.555506 259.049339 
L 390.834845 245.981402 
L 394.114184 220.027353 
L 397.393523 174.336614 
" clip-path="url(#pd84e61d5ab)" style="fill: none; stroke: #ff7f0e; stroke-width: 1.5; stroke-linecap: square"/>
   </g>
   <g id="line2d_15">
    <path d="M 72.738977 274.322295 
L 76.018316 258.173362 
L 79.297655 240.827121 
L 82.576994 223.264735 
L 85.856333 206.269174 
L 89.135671 190.445482 
L 92.41501 176.240562 
L 95.694349 163.962334 
L 98.973688 153.798085 
L 102.253027 145.831922 
L 105.532366 140.061205 
L 108.811705 136.411899 
L 112.091043 134.752776 
L 115.370382 134.908443 
L 118.649721 136.67116 
L 121.92906 139.811457 
L 125.208399 144.087542 
L 128.487738 149.253537 
L 131.767076 155.066559 
L 135.046415 161.292696 
L 138.325754 167.711931 
L 141.605093 174.12205 
L 144.884432 180.34163 
L 148.163771 186.212146 
L 151.44311 191.599279 
L 154.722448 196.393509 
L 158.001787 200.510054 
L 161.281126 203.88824 
L 164.560465 206.490387 
L 167.839804 208.30027 
L 171.119143 209.321254 
L 174.398481 209.574154 
L 177.67782 209.094912 
L 180.957159 207.932143 
L 184.236498 206.144622 
L 187.515837 203.798773 
L 190.795176 200.966211 
L 194.074514 197.721388 
L 197.353853 194.139393 
L 200.633192 190.293937 
L 203.912531 186.255566 
L 207.19187 182.090115 
L 210.471209 177.857447 
L 213.750548 173.610464 
L 217.029886 169.394423 
L 220.309225 165.246549 
L 223.588564 161.195937 
L 226.867903 157.263744 
L 230.147242 153.463654 
L 233.426581 260.36276 
L 236.705919 260.361332 
L 239.985258 143.775504 
L 243.264597 139.765183 
L 246.543936 135.852535 
L 249.823275 132.06377 
L 253.102614 128.426689 
L 256.381952 124.970693 
L 259.661291 121.726722 
L 262.94063 118.727094 
L 266.219969 116.005271 
L 269.499308 113.595561 
L 272.778647 111.532743 
L 276.057986 109.851659 
L 279.337324 108.586755 
L 282.616663 107.771604 
L 285.896002 107.438418 
L 289.175341 107.617561 
L 292.45468 108.337071 
L 295.734019 109.622216 
L 299.013357 111.495077 
L 302.292696 113.974158 
L 305.572035 117.074051 
L 308.851374 120.805113 
L 312.130713 125.173172 
L 315.410052 130.179232 
L 318.68939 135.819146 
L 321.968729 142.083233 
L 325.248068 148.955776 
L 328.527407 156.414349 
L 331.806746 164.428904 
L 335.086085 172.960521 
L 338.365424 181.959714 
L 341.644762 191.364186 
L 344.924101 201.09587 
L 348.20344 211.05711 
L 351.482779 221.125784 
L 354.762118 231.14916 
L 358.041457 240.936254 
L 361.320795 250.248413 
L 364.600134 258.78783 
L 367.879473 266.183675 
L 371.158812 271.975451 
L 374.438151 275.593204 
L 377.71749 276.334125 
L 380.996829 273.335081 
L 384.276167 265.540542 
L 387.555506 251.665334 
L 390.834845 230.151613 
L 394.114184 199.119376 
L 397.393523 156.309799 
" clip-path="url(#pd84e61d5ab)" style="fill: none; stroke: #2ca02c; stroke-width: 1.5; stroke-linecap: square"/>
   </g>
   <g id="line2d_16">
    <path d="M 72.738977 267.801983 
L 76.018316 266.417782 
L 79.297655 255.550361 
L 82.576993 238.752588 
L 85.856332 218.818285 
L 89.135671 197.894435 
L 92.415009 177.581261 
L 95.694348 159.021152 
L 98.973686 142.977328 
L 102.253025 129.903116 
L 105.532364 120.002635 
L 108.811702 113.283639 
L 112.091041 109.603251 
L 115.37038 108.707231 
L 118.649718 110.263417 
L 121.929057 113.889905 
L 125.208396 119.178532 
L 128.487734 125.71414 
L 131.767073 133.090115 
L 135.046412 140.920611 
L 138.32575 148.84988 
L 141.605089 156.559064 
L 144.884428 163.770792 
L 148.163766 170.251896 
L 151.443105 175.814529 
L 154.722443 180.315939 
L 158.001782 183.657141 
L 161.281121 185.780696 
L 164.560459 186.667785 
L 167.839798 186.334744 
L 171.119137 184.829233 
L 174.398475 182.226139 
L 177.677814 178.623357 
L 180.957153 174.13754 
L 184.236491 168.899902 
L 187.51583 163.052156 
L 190.795169 156.742638 
L 194.074507 150.122678 
L 197.353846 143.343246 
L 200.633185 136.551916 
L 203.912523 129.89016 
L 207.191862 123.490983 
L 210.4712 117.476921 
L 213.750539 111.958386 
L 217.029878 107.032362 
L 220.309216 102.781442 
L 223.588555 99.273188 
L 226.867894 96.559803 
L 230.147232 94.678089 
L 233.426571 260.359614 
L 236.70591 260.359111 
L 239.985248 94.683177 
L 243.264587 95.779276 
L 246.543926 97.661775 
L 249.823264 100.307392 
L 253.102603 103.683565 
L 256.381942 107.74898 
L 259.66128 112.454135 
L 262.940619 117.74195 
L 266.219957 123.548433 
L 269.499296 129.803401 
L 272.778635 136.431286 
L 276.057973 143.352019 
L 279.337312 150.482015 
L 282.616651 157.73527 
L 285.895989 165.024585 
L 289.175328 172.262905 
L 292.454667 179.364813 
L 295.734005 186.24814 
L 299.013344 192.835711 
L 302.292683 199.0572 
L 305.572021 204.851074 
L 308.85136 210.166589 
L 312.130699 214.965791 
L 315.410037 219.225461 
L 318.689376 222.938927 
L 321.968714 226.117633 
L 325.248053 228.792369 
L 328.527392 231.014004 
L 331.80673 232.853556 
L 335.086069 234.401419 
L 338.365408 235.765509 
L 341.644746 237.068075 
L 344.924085 238.440889 
L 348.203424 240.018474 
L 351.482762 241.929008 
L 354.762101 244.282475 
L 358.04144 247.155612 
L 361.320778 250.573121 
L 364.600117 254.484591 
L 367.879456 258.736497 
L 371.158794 263.03858 
L 374.438133 266.923872 
L 377.717471 269.701523 
L 380.99681 270.401558 
L 384.276149 267.710575 
L 387.555487 259.897347 
L 390.834826 244.727181 
L 394.114165 219.363825 
L 397.393503 180.257588 
" clip-path="url(#pd84e61d5ab)" style="fill: none; stroke: #d62728; stroke-width: 1.5; stroke-linecap: square"/>
   </g>
   <g id="line2d_17">
    <path d="M 72.738977 259.715953 
L 76.018316 261.474538 
L 79.297655 259.330081 
L 82.576993 253.766271 
L 85.856332 245.396149 
L 89.135671 234.897552 
L 92.415009 222.962227 
L 95.694348 210.256798 
L 98.973686 197.393951 
L 102.253025 184.912345 
L 105.532364 173.263876 
L 108.811702 162.807078 
L 112.091041 153.805546 
L 115.37038 146.430386 
L 118.649718 140.765823 
L 121.929057 136.81717 
L 125.208396 134.520485 
L 128.487734 133.753315 
L 131.767073 134.346013 
L 135.046412 136.093185 
L 138.32575 138.764918 
L 141.605089 142.117469 
L 144.884428 145.903185 
L 148.163766 149.879462 
L 151.443105 153.816614 
L 154.722443 157.504546 
L 158.001782 160.758192 
L 161.281121 163.421692 
L 164.560459 165.371329 
L 167.839798 166.517258 
L 171.119137 166.804102 
L 174.398475 166.210488 
L 177.677814 164.747629 
L 180.957153 162.457066 
L 184.236491 159.407681 
L 187.51583 155.692125 
L 190.795169 151.422769 
L 194.074507 146.72734 
L 197.353846 141.744346 
L 200.633185 136.618433 
L 203.912523 131.495792 
L 207.191862 126.51973 
L 210.4712 121.826511 
L 213.750539 117.541565 
L 217.029878 113.77614 
L 220.309216 110.624484 
L 223.588555 108.161595 
L 226.867894 106.441594 
L 230.147232 105.496753 
L 233.426571 260.360995 
L 236.70591 260.359833 
L 239.985248 108.960621 
L 243.264587 110.365159 
L 246.543926 112.324184 
L 249.823264 114.787462 
L 253.102603 117.696044 
L 256.381942 120.984242 
L 259.66128 124.581761 
L 262.940619 128.415929 
L 266.219957 132.413985 
L 269.499296 136.505362 
L 272.778635 140.623913 
L 276.057973 144.710015 
L 279.337312 148.712508 
L 282.616651 152.590395 
L 285.895989 156.314269 
L 289.175328 159.867394 
L 292.454667 163.246411 
L 295.734005 166.461613 
L 299.013344 169.536764 
L 302.292683 172.508416 
L 305.572021 175.424723 
L 308.85136 178.343718 
L 312.130699 181.331073 
L 315.410037 184.457333 
L 318.689376 187.794672 
L 321.968714 191.413181 
L 325.248053 195.376771 
L 328.527392 199.738753 
L 331.80673 204.537186 
L 335.086069 209.790113 
L 338.365408 215.490825 
L 341.644746 221.603306 
L 344.924085 228.058058 
L 348.203424 234.748514 
L 351.482762 241.5283 
L 354.762101 248.209601 
L 358.04144 254.562975 
L 361.320778 260.318932 
L 364.600117 265.171694 
L 367.879456 268.785545 
L 371.158794 270.80424 
L 374.438133 270.864005 
L 377.717471 268.610664 
L 380.99681 263.721526 
L 384.276149 255.932677 
L 387.555487 245.072397 
L 390.834826 231.101482 
L 394.114165 214.161289 
L 397.393503 194.630398 
" clip-path="url(#pd84e61d5ab)" style="fill: none; stroke: #9467bd; stroke-width: 1.5; stroke-linecap: square"/>
   </g>
   <g id="line2d_18">
    <path d="M 72.738977 256.392694 
L 76.018316 267.867429 
L 79.297655 262.537649 
L 82.576993 246.94896 
L 85.856332 225.990679 
L 89.135671 203.206161 
L 92.415009 181.059059 
L 95.694348 161.16017 
L 98.973686 144.459153 
L 102.253025 131.405135 
L 105.532364 122.079822 
L 108.811702 116.306515 
L 112.091041 113.738087 
L 115.37038 113.926748 
L 118.649718 116.378148 
L 121.929057 120.592132 
L 125.208396 126.092247 
L 128.487734 132.445877 
L 131.767073 139.276676 
L 135.046412 146.270805 
L 138.32575 153.178273 
L 141.605089 159.810549 
L 144.884428 166.035443 
L 148.163766 171.770115 
L 151.443105 176.972939 
L 154.722443 181.634861 
L 158.001782 185.770712 
L 161.281121 189.410932 
L 164.560459 192.59397 
L 167.839798 195.359642 
L 171.119137 197.743565 
L 174.398475 199.772802 
L 177.677814 201.462739 
L 180.957153 202.815186 
L 184.236491 203.81767 
L 187.51583 204.44382 
L 190.795169 204.654741 
L 194.074507 204.401241 
L 197.353846 203.626761 
L 200.633185 202.27084 
L 203.912523 200.272963 
L 207.191862 197.576595 
L 210.4712 194.133258 
L 213.750539 189.906473 
L 217.029878 184.875421 
L 220.309216 179.03818 
L 223.588555 172.414411 
L 226.867894 165.047396 
L 230.147232 157.005321 
L 233.426571 260.355591 
L 236.70591 260.355239 
L 239.985248 130.228172 
L 243.264587 120.645278 
L 246.543926 111.071658 
L 249.823264 101.706756 
L 253.102603 92.761195 
L 256.381942 84.451559 
L 259.66128 76.994645 
L 262.940619 70.601316 
L 266.219957 65.470126 
L 269.499296 61.780883 
L 272.778635 59.688337 
L 276.057973 59.316195 
L 279.337312 60.751657 
L 282.616651 64.040691 
L 285.895989 69.18422 
L 289.175328 76.135447 
L 292.454667 84.798468 
L 295.734005 95.028355 
L 299.013344 106.632824 
L 302.292683 119.375608 
L 305.572021 132.9816 
L 308.85136 147.143774 
L 312.130699 161.531864 
L 315.410037 175.802701 
L 318.689376 189.612056 
L 321.968714 202.627727 
L 325.248053 214.543576 
L 328.527392 225.094052 
L 331.80673 234.068709 
L 335.086069 241.326039 
L 338.365408 246.805871 
L 341.644746 250.539398 
L 344.924085 252.655798 
L 348.203424 253.384191 
L 351.482762 253.049559 
L 354.762101 252.061034 
L 358.04144 250.890754 
L 361.320778 250.041323 
L 364.600117 249.999602 
L 367.879456 251.174412 
L 371.158794 253.815384 
L 374.438133 257.909999 
L 377.717471 263.055507 
L 380.99681 268.302169 
L 384.276149 271.963908 
L 387.555487 271.392144 
L 390.834826 262.70822 
L 394.114165 240.48948 
L 397.393503 197.403647 
" clip-path="url(#pd84e61d5ab)" style="fill: none; stroke: #8c564b; stroke-width: 1.5; stroke-linecap: square"/>
   </g>
   <g id="patch_3">
    <path d="M 56.50625 288.430125 
L 56.50625 22.318125 
" style="fill: none; stroke: #000000; stroke-width: 0.8; stroke-linejoin: miter; stroke-linecap: square"/>
   </g>
   <g id="patch_4">
    <path d="M 413.62625 288.430125 
L 413.62625 22.318125 
" style="fill: none; stroke: #000000; stroke-width: 0.8; stroke-linejoin: miter; stroke-linecap: square"/>
   </g>
   <g id="patch_5">
    <path d="M 56.50625 288.430125 
L 413.62625 288.430125 
" style="fill: none; stroke: #000000; stroke-width: 0.8; stroke-linejoin: miter; stroke-linecap: square"/>
   </g>
   <g id="patch_6">
    <path d="M 56.50625 22.318125 
L 413.62625 22.318125 
" style="fill: none; stroke: #000000; stroke-width: 0.8; stroke-linejoin: miter; stroke-linecap: square"/>
   </g>
   <g id="text_15">
    <!-- FA - xtract_prob_Superior_Longitudinal_Fasciculus_1_R -->
    <g transform="translate(72.0575 16.318125) scale(0.12 -0.12)">
     <defs>
      <path id="DejaVuSans-41" d="M 2188 4044 
L 1331 1722 
L 3047 1722 
L 2188 4044 
z
M 1831 4666 
L 2547 4666 
L 4325 0 
L 3669 0 
L 3244 1197 
L 1141 1197 
L 716 0 
L 50 0 
L 1831 4666 
z
" transform="scale(0.015625)"/>
      <path id="DejaVuSans-2d" d="M 313 2009 
L 1997 2009 
L 1997 1497 
L 313 1497 
L 313 2009 
z
" transform="scale(0.015625)"/>
      <path id="DejaVuSans-74" d="M 1172 4494 
L 1172 3500 
L 2356 3500 
L 2356 3053 
L 1172 3053 
L 1172 1153 
Q 1172 725 1289 603 
Q 1406 481 1766 481 
L 2356 481 
L 2356 0 
L 1766 0 
Q 1100 0 847 248 
Q 594 497 594 1153 
L 594 3053 
L 172 3053 
L 172 3500 
L 594 3500 
L 594 4494 
L 1172 4494 
z
" transform="scale(0.015625)"/>
      <path id="DejaVuSans-5f" d="M 3263 -1063 
L 3263 -1509 
L -63 -1509 
L -63 -1063 
L 3263 -1063 
z
" transform="scale(0.015625)"/>
      <path id="DejaVuSans-70" d="M 1159 525 
L 1159 -1331 
L 581 -1331 
L 581 3500 
L 1159 3500 
L 1159 2969 
Q 1341 3281 1617 3432 
Q 1894 3584 2278 3584 
Q 2916 3584 3314 3078 
Q 3713 2572 3713 1747 
Q 3713 922 3314 415 
Q 2916 -91 2278 -91 
Q 1894 -91 1617 61 
Q 1341 213 1159 525 
z
M 3116 1747 
Q 3116 2381 2855 2742 
Q 2594 3103 2138 3103 
Q 1681 3103 1420 2742 
Q 1159 2381 1159 1747 
Q 1159 1113 1420 752 
Q 1681 391 2138 391 
Q 2594 391 2855 752 
Q 3116 1113 3116 1747 
z
" transform="scale(0.015625)"/>
      <path id="DejaVuSans-6f" d="M 1959 3097 
Q 1497 3097 1228 2736 
Q 959 2375 959 1747 
Q 959 1119 1226 758 
Q 1494 397 1959 397 
Q 2419 397 2687 759 
Q 2956 1122 2956 1747 
Q 2956 2369 2687 2733 
Q 2419 3097 1959 3097 
z
M 1959 3584 
Q 2709 3584 3137 3096 
Q 3566 2609 3566 1747 
Q 3566 888 3137 398 
Q 2709 -91 1959 -91 
Q 1206 -91 779 398 
Q 353 888 353 1747 
Q 353 2609 779 3096 
Q 1206 3584 1959 3584 
z
" transform="scale(0.015625)"/>
      <path id="DejaVuSans-62" d="M 3116 1747 
Q 3116 2381 2855 2742 
Q 2594 3103 2138 3103 
Q 1681 3103 1420 2742 
Q 1159 2381 1159 1747 
Q 1159 1113 1420 752 
Q 1681 391 2138 391 
Q 2594 391 2855 752 
Q 3116 1113 3116 1747 
z
M 1159 2969 
Q 1341 3281 1617 3432 
Q 1894 3584 2278 3584 
Q 2916 3584 3314 3078 
Q 3713 2572 3713 1747 
Q 3713 922 3314 415 
Q 2916 -91 2278 -91 
Q 1894 -91 1617 61 
Q 1341 213 1159 525 
L 1159 0 
L 581 0 
L 581 4863 
L 1159 4863 
L 1159 2969 
z
" transform="scale(0.015625)"/>
      <path id="DejaVuSans-53" d="M 3425 4513 
L 3425 3897 
Q 3066 4069 2747 4153 
Q 2428 4238 2131 4238 
Q 1616 4238 1336 4038 
Q 1056 3838 1056 3469 
Q 1056 3159 1242 3001 
Q 1428 2844 1947 2747 
L 2328 2669 
Q 3034 2534 3370 2195 
Q 3706 1856 3706 1288 
Q 3706 609 3251 259 
Q 2797 -91 1919 -91 
Q 1588 -91 1214 -16 
Q 841 59 441 206 
L 441 856 
Q 825 641 1194 531 
Q 1563 422 1919 422 
Q 2459 422 2753 634 
Q 3047 847 3047 1241 
Q 3047 1584 2836 1778 
Q 2625 1972 2144 2069 
L 1759 2144 
Q 1053 2284 737 2584 
Q 422 2884 422 3419 
Q 422 4038 858 4394 
Q 1294 4750 2059 4750 
Q 2388 4750 2728 4690 
Q 3069 4631 3425 4513 
z
" transform="scale(0.015625)"/>
      <path id="DejaVuSans-4c" d="M 628 4666 
L 1259 4666 
L 1259 531 
L 3531 531 
L 3531 0 
L 628 0 
L 628 4666 
z
" transform="scale(0.015625)"/>
      <path id="DejaVuSans-67" d="M 2906 1791 
Q 2906 2416 2648 2759 
Q 2391 3103 1925 3103 
Q 1463 3103 1205 2759 
Q 947 2416 947 1791 
Q 947 1169 1205 825 
Q 1463 481 1925 481 
Q 2391 481 2648 825 
Q 2906 1169 2906 1791 
z
M 3481 434 
Q 3481 -459 3084 -895 
Q 2688 -1331 1869 -1331 
Q 1566 -1331 1297 -1286 
Q 1028 -1241 775 -1147 
L 775 -588 
Q 1028 -725 1275 -790 
Q 1522 -856 1778 -856 
Q 2344 -856 2625 -561 
Q 2906 -266 2906 331 
L 2906 616 
Q 2728 306 2450 153 
Q 2172 0 1784 0 
Q 1141 0 747 490 
Q 353 981 353 1791 
Q 353 2603 747 3093 
Q 1141 3584 1784 3584 
Q 2172 3584 2450 3431 
Q 2728 3278 2906 2969 
L 2906 3500 
L 3481 3500 
L 3481 434 
z
" transform="scale(0.015625)"/>
      <path id="DejaVuSans-64" d="M 2906 2969 
L 2906 4863 
L 3481 4863 
L 3481 0 
L 2906 0 
L 2906 525 
Q 2725 213 2448 61 
Q 2172 -91 1784 -91 
Q 1150 -91 751 415 
Q 353 922 353 1747 
Q 353 2572 751 3078 
Q 1150 3584 1784 3584 
Q 2172 3584 2448 3432 
Q 2725 3281 2906 2969 
z
M 947 1747 
Q 947 1113 1208 752 
Q 1469 391 1925 391 
Q 2381 391 2643 752 
Q 2906 1113 2906 1747 
Q 2906 2381 2643 2742 
Q 2381 3103 1925 3103 
Q 1469 3103 1208 2742 
Q 947 2381 947 1747 
z
" transform="scale(0.015625)"/>
      <path id="DejaVuSans-52" d="M 2841 2188 
Q 3044 2119 3236 1894 
Q 3428 1669 3622 1275 
L 4263 0 
L 3584 0 
L 2988 1197 
Q 2756 1666 2539 1819 
Q 2322 1972 1947 1972 
L 1259 1972 
L 1259 0 
L 628 0 
L 628 4666 
L 2053 4666 
Q 2853 4666 3247 4331 
Q 3641 3997 3641 3322 
Q 3641 2881 3436 2590 
Q 3231 2300 2841 2188 
z
M 1259 4147 
L 1259 2491 
L 2053 2491 
Q 2509 2491 2742 2702 
Q 2975 2913 2975 3322 
Q 2975 3731 2742 3939 
Q 2509 4147 2053 4147 
L 1259 4147 
z
" transform="scale(0.015625)"/>
     </defs>
     <use xlink:href="#DejaVuSans-46"/>
     <use xlink:href="#DejaVuSans-41" x="48.394531"/>
     <use xlink:href="#DejaVuSans-20" x="116.802734"/>
     <use xlink:href="#DejaVuSans-2d" x="148.589844"/>
     <use xlink:href="#DejaVuSans-20" x="184.673828"/>
     <use xlink:href="#DejaVuSans-78" x="216.460938"/>
     <use xlink:href="#DejaVuSans-74" x="275.640625"/>
     <use xlink:href="#DejaVuSans-72" x="314.849609"/>
     <use xlink:href="#DejaVuSans-61" x="355.962891"/>
     <use xlink:href="#DejaVuSans-63" x="417.242188"/>
     <use xlink:href="#DejaVuSans-74" x="472.222656"/>
     <use xlink:href="#DejaVuSans-5f" x="511.431641"/>
     <use xlink:href="#DejaVuSans-70" x="561.431641"/>
     <use xlink:href="#DejaVuSans-72" x="624.908203"/>
     <use xlink:href="#DejaVuSans-6f" x="663.771484"/>
     <use xlink:href="#DejaVuSans-62" x="724.953125"/>
     <use xlink:href="#DejaVuSans-5f" x="788.429688"/>
     <use xlink:href="#DejaVuSans-53" x="838.429688"/>
     <use xlink:href="#DejaVuSans-75" x="901.90625"/>
     <use xlink:href="#DejaVuSans-70" x="965.285156"/>
     <use xlink:href="#DejaVuSans-65" x="1028.761719"/>
     <use xlink:href="#DejaVuSans-72" x="1090.285156"/>
     <use xlink:href="#DejaVuSans-69" x="1131.398438"/>
     <use xlink:href="#DejaVuSans-6f" x="1159.181641"/>
     <use xlink:href="#DejaVuSans-72" x="1220.363281"/>
     <use xlink:href="#DejaVuSans-5f" x="1261.476562"/>
     <use xlink:href="#DejaVuSans-4c" x="1311.476562"/>
     <use xlink:href="#DejaVuSans-6f" x="1365.439453"/>
     <use xlink:href="#DejaVuSans-6e" x="1426.621094"/>
     <use xlink:href="#DejaVuSans-67" x="1490"/>
     <use xlink:href="#DejaVuSans-69" x="1553.476562"/>
     <use xlink:href="#DejaVuSans-74" x="1581.259766"/>
     <use xlink:href="#DejaVuSans-75" x="1620.46875"/>
     <use xlink:href="#DejaVuSans-64" x="1683.847656"/>
     <use xlink:href="#DejaVuSans-69" x="1747.324219"/>
     <use xlink:href="#DejaVuSans-6e" x="1775.107422"/>
     <use xlink:href="#DejaVuSans-61" x="1838.486328"/>
     <use xlink:href="#DejaVuSans-6c" x="1899.765625"/>
     <use xlink:href="#DejaVuSans-5f" x="1927.548828"/>
     <use xlink:href="#DejaVuSans-46" x="1977.548828"/>
     <use xlink:href="#DejaVuSans-61" x="2025.943359"/>
     <use xlink:href="#DejaVuSans-73" x="2087.222656"/>
     <use xlink:href="#DejaVuSans-63" x="2139.322266"/>
     <use xlink:href="#DejaVuSans-69" x="2194.302734"/>
     <use xlink:href="#DejaVuSans-63" x="2222.085938"/>
     <use xlink:href="#DejaVuSans-75" x="2277.066406"/>
     <use xlink:href="#DejaVuSans-6c" x="2340.445312"/>
     <use xlink:href="#DejaVuSans-75" x="2368.228516"/>
     <use xlink:href="#DejaVuSans-73" x="2431.607422"/>
     <use xlink:href="#DejaVuSans-5f" x="2483.707031"/>
     <use xlink:href="#DejaVuSans-31" x="2533.707031"/>
     <use xlink:href="#DejaVuSans-5f" x="2597.330078"/>
     <use xlink:href="#DejaVuSans-52" x="2647.330078"/>
    </g>
   </g>
   <g id="legend_1">
    <g id="patch_7">
     <path d="M 456.33825 146.666825 
L 554.1945 146.666825 
Q 556.1945 146.666825 556.1945 144.666825 
L 556.1945 55.929325 
Q 556.1945 53.929325 554.1945 53.929325 
L 456.33825 53.929325 
Q 454.33825 53.929325 454.33825 55.929325 
L 454.33825 144.666825 
Q 454.33825 146.666825 456.33825 146.666825 
z
" style="fill: #ffffff; opacity: 0.8; stroke: #cccccc; stroke-linejoin: miter"/>
    </g>
    <g id="line2d_19">
     <path d="M 458.33825 62.027762 
L 468.33825 62.027762 
L 478.33825 62.027762 
" style="fill: none; stroke: #1f77b4; stroke-width: 1.5; stroke-linecap: square"/>
    </g>
    <g id="text_16">
     <!-- 20_06_02_E3 -->
     <g transform="translate(486.33825 65.527762) scale(0.1 -0.1)">
      <defs>
       <path id="DejaVuSans-45" d="M 628 4666 
L 3578 4666 
L 3578 4134 
L 1259 4134 
L 1259 2753 
L 3481 2753 
L 3481 2222 
L 1259 2222 
L 1259 531 
L 3634 531 
L 3634 0 
L 628 0 
L 628 4666 
z
" transform="scale(0.015625)"/>
       <path id="DejaVuSans-33" d="M 2597 2516 
Q 3050 2419 3304 2112 
Q 3559 1806 3559 1356 
Q 3559 666 3084 287 
Q 2609 -91 1734 -91 
Q 1441 -91 1130 -33 
Q 819 25 488 141 
L 488 750 
Q 750 597 1062 519 
Q 1375 441 1716 441 
Q 2309 441 2620 675 
Q 2931 909 2931 1356 
Q 2931 1769 2642 2001 
Q 2353 2234 1838 2234 
L 1294 2234 
L 1294 2753 
L 1863 2753 
Q 2328 2753 2575 2939 
Q 2822 3125 2822 3475 
Q 2822 3834 2567 4026 
Q 2313 4219 1838 4219 
Q 1578 4219 1281 4162 
Q 984 4106 628 3988 
L 628 4550 
Q 988 4650 1302 4700 
Q 1616 4750 1894 4750 
Q 2613 4750 3031 4423 
Q 3450 4097 3450 3541 
Q 3450 3153 3228 2886 
Q 3006 2619 2597 2516 
z
" transform="scale(0.015625)"/>
      </defs>
      <use xlink:href="#DejaVuSans-32"/>
      <use xlink:href="#DejaVuSans-30" x="63.623047"/>
      <use xlink:href="#DejaVuSans-5f" x="127.246094"/>
      <use xlink:href="#DejaVuSans-30" x="177.246094"/>
      <use xlink:href="#DejaVuSans-36" x="240.869141"/>
      <use xlink:href="#DejaVuSans-5f" x="304.492188"/>
      <use xlink:href="#DejaVuSans-30" x="354.492188"/>
      <use xlink:href="#DejaVuSans-32" x="418.115234"/>
      <use xlink:href="#DejaVuSans-5f" x="481.738281"/>
      <use xlink:href="#DejaVuSans-45" x="531.738281"/>
      <use xlink:href="#DejaVuSans-33" x="594.921875"/>
     </g>
    </g>
    <g id="line2d_20">
     <path d="M 458.33825 76.984013 
L 468.33825 76.984013 
L 478.33825 76.984013 
" style="fill: none; stroke: #ff7f0e; stroke-width: 1.5; stroke-linecap: square"/>
    </g>
    <g id="text_17">
     <!-- 20_05_01_E3 -->
     <g transform="translate(486.33825 80.484013) scale(0.1 -0.1)">
      <use xlink:href="#DejaVuSans-32"/>
      <use xlink:href="#DejaVuSans-30" x="63.623047"/>
      <use xlink:href="#DejaVuSans-5f" x="127.246094"/>
      <use xlink:href="#DejaVuSans-30" x="177.246094"/>
      <use xlink:href="#DejaVuSans-35" x="240.869141"/>
      <use xlink:href="#DejaVuSans-5f" x="304.492188"/>
      <use xlink:href="#DejaVuSans-30" x="354.492188"/>
      <use xlink:href="#DejaVuSans-31" x="418.115234"/>
      <use xlink:href="#DejaVuSans-5f" x="481.738281"/>
      <use xlink:href="#DejaVuSans-45" x="531.738281"/>
      <use xlink:href="#DejaVuSans-33" x="594.921875"/>
     </g>
    </g>
    <g id="line2d_21">
     <path d="M 458.33825 91.940262 
L 468.33825 91.940262 
L 478.33825 91.940262 
" style="fill: none; stroke: #2ca02c; stroke-width: 1.5; stroke-linecap: square"/>
    </g>
    <g id="text_18">
     <!-- 20_02_02_E3 -->
     <g transform="translate(486.33825 95.440262) scale(0.1 -0.1)">
      <use xlink:href="#DejaVuSans-32"/>
      <use xlink:href="#DejaVuSans-30" x="63.623047"/>
      <use xlink:href="#DejaVuSans-5f" x="127.246094"/>
      <use xlink:href="#DejaVuSans-30" x="177.246094"/>
      <use xlink:href="#DejaVuSans-32" x="240.869141"/>
      <use xlink:href="#DejaVuSans-5f" x="304.492188"/>
      <use xlink:href="#DejaVuSans-30" x="354.492188"/>
      <use xlink:href="#DejaVuSans-32" x="418.115234"/>
      <use xlink:href="#DejaVuSans-5f" x="481.738281"/>
      <use xlink:href="#DejaVuSans-45" x="531.738281"/>
      <use xlink:href="#DejaVuSans-33" x="594.921875"/>
     </g>
    </g>
    <g id="line2d_22">
     <path d="M 458.33825 106.896513 
L 468.33825 106.896513 
L 478.33825 106.896513 
" style="fill: none; stroke: #d62728; stroke-width: 1.5; stroke-linecap: square"/>
    </g>
    <g id="text_19">
     <!-- 20_10_02_E3 -->
     <g transform="translate(486.33825 110.396513) scale(0.1 -0.1)">
      <use xlink:href="#DejaVuSans-32"/>
      <use xlink:href="#DejaVuSans-30" x="63.623047"/>
      <use xlink:href="#DejaVuSans-5f" x="127.246094"/>
      <use xlink:href="#DejaVuSans-31" x="177.246094"/>
      <use xlink:href="#DejaVuSans-30" x="240.869141"/>
      <use xlink:href="#DejaVuSans-5f" x="304.492188"/>
      <use xlink:href="#DejaVuSans-30" x="354.492188"/>
      <use xlink:href="#DejaVuSans-32" x="418.115234"/>
      <use xlink:href="#DejaVuSans-5f" x="481.738281"/>
      <use xlink:href="#DejaVuSans-45" x="531.738281"/>
      <use xlink:href="#DejaVuSans-33" x="594.921875"/>
     </g>
    </g>
    <g id="line2d_23">
     <path d="M 458.33825 121.852762 
L 468.33825 121.852762 
L 478.33825 121.852762 
" style="fill: none; stroke: #9467bd; stroke-width: 1.5; stroke-linecap: square"/>
    </g>
    <g id="text_20">
     <!-- 20_08_02_E3 -->
     <g transform="translate(486.33825 125.352762) scale(0.1 -0.1)">
      <use xlink:href="#DejaVuSans-32"/>
      <use xlink:href="#DejaVuSans-30" x="63.623047"/>
      <use xlink:href="#DejaVuSans-5f" x="127.246094"/>
      <use xlink:href="#DejaVuSans-30" x="177.246094"/>
      <use xlink:href="#DejaVuSans-38" x="240.869141"/>
      <use xlink:href="#DejaVuSans-5f" x="304.492188"/>
      <use xlink:href="#DejaVuSans-30" x="354.492188"/>
      <use xlink:href="#DejaVuSans-32" x="418.115234"/>
      <use xlink:href="#DejaVuSans-5f" x="481.738281"/>
      <use xlink:href="#DejaVuSans-45" x="531.738281"/>
      <use xlink:href="#DejaVuSans-33" x="594.921875"/>
     </g>
    </g>
    <g id="line2d_24">
     <path d="M 458.33825 136.809012 
L 468.33825 136.809012 
L 478.33825 136.809012 
" style="fill: none; stroke: #8c564b; stroke-width: 1.5; stroke-linecap: square"/>
    </g>
    <g id="text_21">
     <!-- 20_11_02_E3 -->
     <g transform="translate(486.33825 140.309012) scale(0.1 -0.1)">
      <use xlink:href="#DejaVuSans-32"/>
      <use xlink:href="#DejaVuSans-30" x="63.623047"/>
      <use xlink:href="#DejaVuSans-5f" x="127.246094"/>
      <use xlink:href="#DejaVuSans-31" x="177.246094"/>
      <use xlink:href="#DejaVuSans-31" x="240.869141"/>
      <use xlink:href="#DejaVuSans-5f" x="304.492188"/>
      <use xlink:href="#DejaVuSans-30" x="354.492188"/>
      <use xlink:href="#DejaVuSans-32" x="418.115234"/>
      <use xlink:href="#DejaVuSans-5f" x="481.738281"/>
      <use xlink:href="#DejaVuSans-45" x="531.738281"/>
      <use xlink:href="#DejaVuSans-33" x="594.921875"/>
     </g>
    </g>
   </g>
  </g>
 </g>
 <defs>
  <clipPath id="pd84e61d5ab">
   <rect x="56.50625" y="22.318125" width="357.12" height="266.112"/>
  </clipPath>
 </defs>
</svg>
