<?xml version="1.0" encoding="utf-8" standalone="no"?>
<!DOCTYPE svg PUBLIC "-//W3C//DTD SVG 1.1//EN"
  "http://www.w3.org/Graphics/SVG/1.1/DTD/svg11.dtd">
<svg xmlns:xlink="http://www.w3.org/1999/xlink" width="565.411687pt" height="325.986375pt" viewBox="0 0 565.411687 325.986375" xmlns="http://www.w3.org/2000/svg" version="1.1">
 <metadata>
  <rdf:RDF xmlns:dc="http://purl.org/dc/elements/1.1/" xmlns:cc="http://creativecommons.org/ns#" xmlns:rdf="http://www.w3.org/1999/02/22-rdf-syntax-ns#">
   <cc:Work>
    <dc:type rdf:resource="http://purl.org/dc/dcmitype/StillImage"/>
    <dc:date>2023-02-07T23:00:01.013493</dc:date>
    <dc:format>image/svg+xml</dc:format>
    <dc:creator>
     <cc:Agent>
      <dc:title>Matplotlib v3.6.2, https://matplotlib.org/</dc:title>
     </cc:Agent>
    </dc:creator>
   </cc:Work>
  </rdf:RDF>
 </metadata>
 <defs>
  <style type="text/css">*{stroke-linejoin: round; stroke-linecap: butt}</style>
 </defs>
 <g id="figure_1">
  <g id="patch_1">
   <path d="M 0 325.986375 
L 565.411687 325.986375 
L 565.411687 0 
L 0 0 
z
" style="fill: #ffffff"/>
  </g>
  <g id="axes_1">
   <g id="patch_2">
    <path d="M 58.523438 288.430125 
L 415.643438 288.430125 
L 415.643438 22.318125 
L 58.523438 22.318125 
z
" style="fill: #ffffff"/>
   </g>
   <g id="PolyCollection_1">
    <path d="M 74.756165 191.294899 
L 74.756165 241.103686 
L 77.707314 241.103686 
L 80.658463 241.103686 
L 83.609612 241.103686 
L 86.560761 241.103686 
L 89.51191 241.103686 
L 92.463059 241.103686 
L 95.414208 241.103686 
L 98.365358 241.103686 
L 101.316507 241.103686 
L 104.267656 241.103686 
L 107.218805 241.103686 
L 110.169954 241.103686 
L 113.121103 241.103686 
L 116.072252 241.103686 
L 119.023401 241.103686 
L 121.97455 241.103686 
L 124.925699 241.103686 
L 127.876848 241.103686 
L 130.827998 241.103686 
L 133.779147 241.103686 
L 136.730296 241.103686 
L 139.681445 241.103686 
L 142.632594 241.103686 
L 145.583743 241.103686 
L 148.534892 241.103686 
L 151.486041 241.103686 
L 154.43719 241.103686 
L 157.388339 241.103686 
L 160.339489 241.103686 
L 163.290638 241.103686 
L 166.241787 241.103686 
L 169.192936 241.103686 
L 172.144085 241.103686 
L 175.095234 241.103686 
L 178.046383 241.103686 
L 180.997532 241.103686 
L 183.948681 241.103686 
L 186.89983 241.103686 
L 189.850979 241.103686 
L 192.802129 241.103686 
L 195.753278 241.103686 
L 198.704427 241.103686 
L 201.655576 241.103686 
L 204.606725 241.103686 
L 207.557874 241.103686 
L 210.509023 241.103686 
L 213.460172 241.103686 
L 216.411321 241.103686 
L 219.36247 241.103686 
L 222.31362 241.103686 
L 225.264769 241.103686 
L 228.215918 241.103686 
L 231.167067 241.103686 
L 234.118216 241.103686 
L 237.069365 241.103686 
L 240.020514 241.103686 
L 242.971663 241.103686 
L 245.922812 241.103686 
L 248.873961 241.103686 
L 251.82511 241.103686 
L 254.77626 241.103686 
L 257.727409 241.103686 
L 260.678558 241.103686 
L 263.629707 241.103686 
L 266.580856 241.103686 
L 269.532005 241.103686 
L 272.483154 241.103686 
L 275.434303 241.103686 
L 278.385452 241.103686 
L 281.336601 241.103686 
L 284.28775 241.103686 
L 287.2389 241.103686 
L 290.190049 241.103686 
L 293.141198 241.103686 
L 296.092347 241.103686 
L 299.043496 241.103686 
L 301.994645 241.103686 
L 304.945794 241.103686 
L 307.896943 241.103686 
L 310.848092 241.103686 
L 313.799241 241.103686 
L 316.750391 241.103686 
L 319.70154 241.103686 
L 322.652689 241.103686 
L 325.603838 241.103686 
L 328.554987 241.103686 
L 331.506136 241.103686 
L 334.457285 241.103686 
L 337.408434 241.103686 
L 340.359583 241.103686 
L 343.310732 241.103686 
L 346.261881 241.103686 
L 349.213031 241.103686 
L 352.16418 241.103686 
L 355.115329 241.103686 
L 358.066478 241.103686 
L 361.017627 241.103686 
L 363.968776 241.103686 
L 366.919925 241.103686 
L 366.919925 211.865194 
L 366.919925 211.865194 
L 363.968776 247.037094 
L 361.017627 261.019828 
L 358.066478 262.058994 
L 355.115329 256.122611 
L 352.16418 247.365278 
L 349.213031 238.52195 
L 346.261881 231.239139 
L 343.310732 226.350759 
L 340.359583 224.105234 
L 337.408434 224.349962 
L 334.457285 226.678699 
L 331.506136 230.546929 
L 328.554987 235.359838 
L 325.603838 240.537048 
L 322.652689 245.557886 
L 319.70154 249.99053 
L 316.750391 253.508057 
L 313.799241 255.894036 
L 310.848092 257.040025 
L 307.896943 256.936997 
L 304.945794 255.662487 
L 301.994645 253.364962 
L 299.043496 250.246695 
L 296.092347 246.546222 
L 293.141198 242.521226 
L 290.190049 238.432568 
L 287.2389 234.529964 
L 284.28775 231.039712 
L 281.336601 228.154711 
L 278.385452 226.026912 
L 275.434303 224.762241 
L 272.483154 224.417946 
L 269.532005 225.00225 
L 266.580856 226.476124 
L 263.629707 228.75695 
L 260.678558 231.72381 
L 257.727409 235.224104 
L 254.77626 239.081173 
L 251.82511 243.102619 
L 248.873961 247.088992 
L 245.922812 250.84251 
L 242.971663 254.175544 
L 240.020514 256.918545 
L 237.069365 258.927176 
L 234.118216 260.088424 
L 231.167067 260.325475 
L 228.215918 259.601221 
L 225.264769 257.920262 
L 222.31362 241.097175 
L 219.36247 241.09772 
L 216.411321 248.81892 
L 213.460172 244.569509 
L 210.509023 239.908531 
L 207.557874 235.031111 
L 204.606725 230.148655 
L 201.655576 225.480343 
L 198.704427 221.243906 
L 195.753278 217.645955 
L 192.802129 214.872166 
L 189.850979 213.077653 
L 186.89983 212.377876 
L 183.948681 212.840433 
L 180.997532 214.478095 
L 178.046383 217.24344 
L 175.095234 221.02542 
L 172.144085 225.648175 
L 169.192936 230.872374 
L 166.241787 236.399323 
L 163.290638 241.878008 
L 160.339489 246.915196 
L 157.388339 251.088607 
L 154.43719 253.963099 
L 151.486041 255.109685 
L 148.534892 254.12707 
L 145.583743 250.665278 
L 142.632594 244.450751 
L 139.681445 235.312143 
L 136.730296 223.205851 
L 133.779147 208.240082 
L 130.827998 190.696041 
L 127.876848 171.044595 
L 124.925699 149.956444 
L 121.97455 128.303585 
L 119.023401 107.149515 
L 116.072252 87.725281 
L 113.121103 71.38813 
L 110.169954 59.559119 
L 107.218805 53.635635 
L 104.267656 54.874328 
L 101.316507 64.239522 
L 98.365358 82.211637 
L 95.414208 108.549677 
L 92.463059 142.001255 
L 89.51191 179.953073 
L 86.560761 218.014159 
L 83.609612 249.52352 
L 80.658463 264.97321 
L 77.707314 251.337098 
L 74.756165 191.294899 
z
" clip-path="url(#pbda04128fd)" style="fill: #1f77b4; fill-opacity: 0.166667"/>
   </g>
   <g id="PolyCollection_2">
    <path d="M 74.756165 276.334125 
L 74.756165 241.103686 
L 78.035504 241.103686 
L 81.314842 241.103686 
L 84.594181 241.103686 
L 87.87352 241.103686 
L 91.152859 241.103686 
L 94.432198 241.103686 
L 97.711537 241.103686 
L 100.990876 241.103686 
L 104.270214 241.103686 
L 107.549553 241.103686 
L 110.828892 241.103686 
L 114.108231 241.103686 
L 117.38757 241.103686 
L 120.666909 241.103686 
L 123.946247 241.103686 
L 127.225586 241.103686 
L 130.504925 241.103686 
L 133.784264 241.103686 
L 137.063603 241.103686 
L 140.342942 241.103686 
L 143.62228 241.103686 
L 146.901619 241.103686 
L 150.180958 241.103686 
L 153.460297 241.103686 
L 156.739636 241.103686 
L 160.018975 241.103686 
L 163.298314 241.103686 
L 166.577652 241.103686 
L 169.856991 241.103686 
L 173.13633 241.103686 
L 176.415669 241.103686 
L 179.695008 241.103686 
L 182.974347 241.103686 
L 186.253685 241.103686 
L 189.533024 241.103686 
L 192.812363 241.103686 
L 196.091702 241.103686 
L 199.371041 241.103686 
L 202.65038 241.103686 
L 205.929718 241.103686 
L 209.209057 241.103686 
L 212.488396 241.103686 
L 215.767735 241.103686 
L 219.047074 241.103686 
L 222.326413 241.103686 
L 225.605752 241.103686 
L 228.88509 241.103686 
L 232.164429 241.103686 
L 235.443768 241.103686 
L 238.723107 241.103686 
L 242.002446 241.103686 
L 245.281785 241.103686 
L 248.561123 241.103686 
L 251.840462 241.103686 
L 255.119801 241.103686 
L 258.39914 241.103686 
L 261.678479 241.103686 
L 264.957818 241.103686 
L 268.237157 241.103686 
L 271.516495 241.103686 
L 274.795834 241.103686 
L 278.075173 241.103686 
L 281.354512 241.103686 
L 284.633851 241.103686 
L 287.91319 241.103686 
L 291.192528 241.103686 
L 294.471867 241.103686 
L 297.751206 241.103686 
L 301.030545 241.103686 
L 304.309884 241.103686 
L 307.589223 241.103686 
L 310.868561 241.103686 
L 314.1479 241.103686 
L 317.427239 241.103686 
L 320.706578 241.103686 
L 323.985917 241.103686 
L 327.265256 241.103686 
L 330.544595 241.103686 
L 333.823933 241.103686 
L 337.103272 241.103686 
L 340.382611 241.103686 
L 343.66195 241.103686 
L 346.941289 241.103686 
L 350.220628 241.103686 
L 353.499966 241.103686 
L 356.779305 241.103686 
L 360.058644 241.103686 
L 363.337983 241.103686 
L 366.617322 241.103686 
L 369.896661 241.103686 
L 373.175999 241.103686 
L 376.455338 241.103686 
L 379.734677 241.103686 
L 383.014016 241.103686 
L 386.293355 241.103686 
L 389.572694 241.103686 
L 392.852033 241.103686 
L 396.131371 241.103686 
L 399.41071 241.103686 
L 399.41071 221.420122 
L 399.41071 221.420122 
L 396.131371 244.661155 
L 392.852033 254.318832 
L 389.572694 255.500613 
L 386.293355 251.954288 
L 383.014016 246.334423 
L 379.734677 240.430045 
L 376.455338 235.357692 
L 373.175999 231.723631 
L 369.896661 229.758775 
L 366.617322 229.429527 
L 363.337983 230.527551 
L 360.058644 232.741192 
L 356.779305 235.71104 
L 353.499966 239.071914 
L 350.220628 242.483317 
L 346.941289 245.650231 
L 343.66195 248.335911 
L 340.382611 250.368175 
L 337.103272 251.640527 
L 333.823933 252.109258 
L 330.544595 251.78758 
L 327.265256 250.737669 
L 323.985917 249.061372 
L 320.706578 246.890258 
L 317.427239 244.375516 
L 314.1479 241.678184 
L 310.868561 238.960031 
L 307.589223 236.375385 
L 304.309884 234.06411 
L 301.030545 232.145846 
L 297.751206 230.715613 
L 294.471867 229.840788 
L 291.192528 229.559444 
L 287.91319 229.879987 
L 284.633851 230.781998 
L 281.354512 232.218176 
L 278.075173 234.117228 
L 274.795834 236.387558 
L 271.516495 238.921588 
L 268.237157 241.600543 
L 264.957818 244.299509 
L 261.678479 246.892615 
L 258.39914 249.258136 
L 255.119801 251.283393 
L 251.840462 252.869264 
L 248.561123 253.93419 
L 245.281785 254.417555 
L 242.002446 254.282322 
L 238.723107 241.09917 
L 235.443768 241.097511 
L 232.164429 253.94676 
L 228.88509 250.542051 
L 225.605752 246.55441 
L 222.326413 242.147314 
L 219.047074 237.508279 
L 215.767735 232.841965 
L 212.488396 228.362342 
L 209.209057 224.284122 
L 205.929718 220.813693 
L 202.65038 218.139836 
L 199.371041 216.424501 
L 196.091702 215.793959 
L 192.812363 216.330637 
L 189.533024 218.065967 
L 186.253685 220.974576 
L 182.974347 224.970106 
L 179.695008 229.902994 
L 176.415669 235.560456 
L 173.13633 241.668927 
L 169.856991 247.899151 
L 166.577652 253.874047 
L 163.298314 259.179454 
L 160.018975 263.377724 
L 156.739636 266.024099 
L 153.460297 266.685668 
L 150.180958 264.962612 
L 146.901619 260.511301 
L 143.62228 253.068667 
L 140.342942 242.477143 
L 137.063603 228.709244 
L 133.784264 211.890711 
L 130.504925 192.320934 
L 127.225586 170.489115 
L 123.946247 147.084435 
L 120.666909 122.998197 
L 117.38757 99.315651 
L 114.108231 77.294921 
L 110.828892 58.33011 
L 107.549553 43.895341 
L 104.270214 35.466136 
L 100.990876 34.414125 
L 97.711537 41.870703 
L 94.432198 58.554807 
L 91.152859 84.559545 
L 87.87352 119.091912 
L 84.594181 160.159363 
L 81.314842 204.196439 
L 78.035504 245.624143 
L 74.756165 276.334125 
z
" clip-path="url(#pbda04128fd)" style="fill: #ff7f0e; fill-opacity: 0.166667"/>
   </g>
   <g id="PolyCollection_3">
    <path d="M 74.756165 184.458945 
L 74.756165 241.103686 
L 77.707901 241.103686 
L 80.659638 241.103686 
L 83.611374 241.103686 
L 86.563111 241.103686 
L 89.514847 241.103686 
L 92.466584 241.103686 
L 95.41832 241.103686 
L 98.370057 241.103686 
L 101.321793 241.103686 
L 104.27353 241.103686 
L 107.225266 241.103686 
L 110.177003 241.103686 
L 113.128739 241.103686 
L 116.080476 241.103686 
L 119.032212 241.103686 
L 121.983949 241.103686 
L 124.935685 241.103686 
L 127.887422 241.103686 
L 130.839158 241.103686 
L 133.790895 241.103686 
L 136.742631 241.103686 
L 139.694368 241.103686 
L 142.646104 241.103686 
L 145.597841 241.103686 
L 148.549577 241.103686 
L 151.501314 241.103686 
L 154.45305 241.103686 
L 157.404787 241.103686 
L 160.356523 241.103686 
L 163.30826 241.103686 
L 166.259996 241.103686 
L 169.211732 241.103686 
L 172.163469 241.103686 
L 175.115205 241.103686 
L 178.066942 241.103686 
L 181.018678 241.103686 
L 183.970415 241.103686 
L 186.922151 241.103686 
L 189.873888 241.103686 
L 192.825624 241.103686 
L 195.777361 241.103686 
L 198.729097 241.103686 
L 201.680834 241.103686 
L 204.63257 241.103686 
L 207.584307 241.103686 
L 210.536043 241.103686 
L 213.48778 241.103686 
L 216.439516 241.103686 
L 219.391253 241.103686 
L 222.342989 241.103686 
L 225.294726 241.103686 
L 228.246462 241.103686 
L 231.198199 241.103686 
L 234.149935 241.103686 
L 237.101672 241.103686 
L 240.053408 241.103686 
L 243.005145 241.103686 
L 245.956881 241.103686 
L 248.908618 241.103686 
L 251.860354 241.103686 
L 254.812091 241.103686 
L 257.763827 241.103686 
L 260.715564 241.103686 
L 263.6673 241.103686 
L 266.619037 241.103686 
L 269.570773 241.103686 
L 272.52251 241.103686 
L 275.474246 241.103686 
L 278.425983 241.103686 
L 281.377719 241.103686 
L 284.329456 241.103686 
L 287.281192 241.103686 
L 290.232929 241.103686 
L 293.184665 241.103686 
L 296.136402 241.103686 
L 299.088138 241.103686 
L 302.039875 241.103686 
L 304.991611 241.103686 
L 307.943348 241.103686 
L 310.895084 241.103686 
L 313.846821 241.103686 
L 316.798557 241.103686 
L 319.750294 241.103686 
L 322.70203 241.103686 
L 325.653767 241.103686 
L 328.605503 241.103686 
L 331.55724 241.103686 
L 334.508976 241.103686 
L 337.460712 241.103686 
L 340.412449 241.103686 
L 343.364185 241.103686 
L 346.315922 241.103686 
L 349.267658 241.103686 
L 352.219395 241.103686 
L 355.171131 241.103686 
L 358.122868 241.103686 
L 361.074604 241.103686 
L 364.026341 241.103686 
L 366.978077 241.103686 
L 366.978077 212.21633 
L 366.978077 212.21633 
L 364.026341 247.530532 
L 361.074604 261.571949 
L 358.122868 262.589646 
L 355.171131 256.564998 
L 352.219395 247.671321 
L 349.267658 238.664223 
L 346.315922 231.210311 
L 343.364185 226.16131 
L 340.412449 223.78009 
L 337.460712 223.924558 
L 334.508976 226.194875 
L 331.55724 230.048972 
L 328.605503 234.890903 
L 325.653767 240.136109 
L 322.70203 245.257318 
L 319.750294 249.814367 
L 316.798557 253.470934 
L 313.846821 256.000784 
L 310.895084 257.285861 
L 307.943348 257.308245 
L 304.991611 256.137731 
L 302.039875 253.916537 
L 299.088138 250.842425 
L 296.136402 247.151286 
L 293.184665 243.100078 
L 290.232929 238.950805 
L 287.281192 234.956066 
L 284.329456 231.346584 
L 281.377719 228.320971 
L 278.425983 226.037873 
L 275.474246 224.610562 
L 272.52251 224.103936 
L 269.570773 224.533809 
L 266.619037 225.868342 
L 263.6673 228.031383 
L 260.715564 230.907463 
L 257.763827 234.348157 
L 254.812091 238.179524 
L 251.860354 242.210278 
L 248.908618 246.240396 
L 245.956881 250.069845 
L 243.005145 253.507117 
L 240.053408 256.377288 
L 237.101672 258.529353 
L 234.149935 259.84259 
L 231.198199 260.231758 
L 228.246462 259.650958 
L 225.294726 258.096046 
L 222.342989 241.096854 
L 219.391253 241.096545 
L 216.439516 250.650162 
L 213.48778 245.838462 
L 210.536043 240.511227 
L 207.584307 234.892406 
L 204.63257 229.227328 
L 201.680834 223.773113 
L 198.729097 218.788182 
L 195.777361 214.521155 
L 192.825624 211.199495 
L 189.873888 209.018256 
L 186.922151 208.129328 
L 183.970415 208.631584 
L 181.018678 210.562343 
L 178.066942 213.890547 
L 175.115205 218.51204 
L 172.163469 224.247338 
L 169.211732 230.842192 
L 166.259996 237.971252 
L 163.30826 245.245051 
L 160.356523 252.220444 
L 157.404787 258.414582 
L 154.45305 263.322361 
L 151.501314 266.437185 
L 148.549577 267.274738 
L 145.597841 265.399312 
L 142.646104 260.452038 
L 139.694368 252.180219 
L 136.742631 240.466694 
L 133.790895 225.357976 
L 130.839158 207.08962 
L 127.887422 186.107009 
L 124.935685 163.079436 
L 121.983949 138.905042 
L 119.032212 114.703816 
L 116.080476 91.795467 
L 113.128739 71.658598 
L 110.177003 55.867173 
L 107.225266 45.999787 
L 104.27353 43.516789 
L 101.321793 49.59977 
L 98.370057 64.947382 
L 95.41832 89.520869 
L 92.466584 122.232085 
L 89.514847 160.56613 
L 86.563111 200.130019 
L 83.611374 234.118146 
L 80.659638 252.684494 
L 77.707901 242.210787 
L 74.756165 184.458945 
z
" clip-path="url(#pbda04128fd)" style="fill: #2ca02c; fill-opacity: 0.166667"/>
   </g>
   <g id="PolyCollection_4">
    <path d="M 74.756165 190.450158 
L 74.756165 241.103686 
L 77.779671 241.103686 
L 80.803177 241.103686 
L 83.826682 241.103686 
L 86.850188 241.103686 
L 89.873694 241.103686 
L 92.8972 241.103686 
L 95.920706 241.103686 
L 98.944212 241.103686 
L 101.967718 241.103686 
L 104.991224 241.103686 
L 108.014729 241.103686 
L 111.038235 241.103686 
L 114.061741 241.103686 
L 117.085247 241.103686 
L 120.108753 241.103686 
L 123.132259 241.103686 
L 126.155765 241.103686 
L 129.179271 241.103686 
L 132.202776 241.103686 
L 135.226282 241.103686 
L 138.249788 241.103686 
L 141.273294 241.103686 
L 144.2968 241.103686 
L 147.320306 241.103686 
L 150.343812 241.103686 
L 153.367318 241.103686 
L 156.390823 241.103686 
L 159.414329 241.103686 
L 162.437835 241.103686 
L 165.461341 241.103686 
L 168.484847 241.103686 
L 171.508353 241.103686 
L 174.531859 241.103686 
L 177.555365 241.103686 
L 180.578871 241.103686 
L 183.602376 241.103686 
L 186.625882 241.103686 
L 189.649388 241.103686 
L 192.672894 241.103686 
L 195.6964 241.103686 
L 198.719906 241.103686 
L 201.743412 241.103686 
L 204.766918 241.103686 
L 207.790423 241.103686 
L 210.813929 241.103686 
L 213.837435 241.103686 
L 216.860941 241.103686 
L 219.884447 241.103686 
L 222.907953 241.103686 
L 225.931459 241.103686 
L 228.954965 241.103686 
L 231.97847 241.103686 
L 235.001976 241.103686 
L 238.025482 241.103686 
L 241.048988 241.103686 
L 244.072494 241.103686 
L 247.096 241.103686 
L 250.119506 241.103686 
L 253.143012 241.103686 
L 256.166517 241.103686 
L 259.190023 241.103686 
L 262.213529 241.103686 
L 265.237035 241.103686 
L 268.260541 241.103686 
L 271.284047 241.103686 
L 274.307553 241.103686 
L 277.331059 241.103686 
L 280.354564 241.103686 
L 283.37807 241.103686 
L 286.401576 241.103686 
L 289.425082 241.103686 
L 292.448588 241.103686 
L 295.472094 241.103686 
L 298.4956 241.103686 
L 301.519106 241.103686 
L 304.542612 241.103686 
L 307.566117 241.103686 
L 310.589623 241.103686 
L 313.613129 241.103686 
L 316.636635 241.103686 
L 319.660141 241.103686 
L 322.683647 241.103686 
L 325.707153 241.103686 
L 328.730659 241.103686 
L 331.754164 241.103686 
L 334.77767 241.103686 
L 337.801176 241.103686 
L 340.824682 241.103686 
L 343.848188 241.103686 
L 346.871694 241.103686 
L 349.8952 241.103686 
L 352.918706 241.103686 
L 355.942211 241.103686 
L 358.965717 241.103686 
L 361.989223 241.103686 
L 365.012729 241.103686 
L 368.036235 241.103686 
L 371.059741 241.103686 
L 374.083247 241.103686 
L 374.083247 212.574189 
L 374.083247 212.574189 
L 371.059741 247.642468 
L 368.036235 261.485903 
L 365.012729 262.37419 
L 361.989223 256.292338 
L 358.965717 247.406198 
L 355.942211 238.457428 
L 352.918706 231.095714 
L 349.8952 226.155471 
L 346.871694 223.883687 
L 343.848188 224.124986 
L 340.824682 226.46951 
L 337.801176 230.368687 
L 334.77767 235.223523 
L 331.754164 240.449578 
L 328.730659 245.52241 
L 325.707153 250.00685 
L 322.683647 253.573128 
L 319.660141 256.002507 
L 316.636635 257.184789 
L 313.613129 257.10973 
L 310.589623 255.854152 
L 307.566117 253.566268 
L 304.542612 250.448498 
L 301.519106 246.73986 
L 298.4956 242.6988 
L 295.472094 238.587147 
L 292.448588 234.655739 
L 289.425082 231.132085 
L 286.401576 228.210341 
L 283.37807 226.043709 
L 280.354564 224.739332 
L 277.331059 224.355612 
L 274.307553 224.901843 
L 271.284047 226.33997 
L 268.260541 228.588256 
L 265.237035 231.526572 
L 262.213529 235.003023 
L 259.190023 238.841589 
L 256.166517 242.850466 
L 253.143012 246.830773 
L 250.119506 250.585299 
L 247.096 253.927011 
L 244.072494 256.687001 
L 241.048988 258.72165 
L 238.025482 259.918744 
L 235.001976 260.202369 
L 231.97847 259.536421 
L 228.954965 257.926606 
L 225.931459 241.097368 
L 222.907953 241.097619 
L 219.884447 249.739677 
L 216.860941 245.407842 
L 213.837435 240.658713 
L 210.813929 235.699929 
L 207.790423 230.756205 
L 204.766918 226.060228 
L 201.743412 221.842788 
L 198.719906 218.322424 
L 195.6964 215.694931 
L 192.672894 214.123067 
L 189.649388 213.726831 
L 186.625882 214.574706 
L 183.602376 216.676224 
L 180.578871 219.976257 
L 177.555365 224.351383 
L 174.531859 229.60866 
L 171.508353 235.487118 
L 168.484847 241.662216 
L 165.461341 247.753453 
L 162.437835 253.335258 
L 159.414329 257.951176 
L 156.390823 261.131287 
L 153.367318 262.412666 
L 150.343812 261.362547 
L 147.320306 257.603732 
L 144.2968 250.841574 
L 141.273294 240.891719 
L 138.249788 227.707561 
L 135.226282 211.406128 
L 132.202776 192.290893 
L 129.179271 170.869727 
L 126.155765 147.865891 
L 123.132259 124.21971 
L 120.108753 101.07815 
L 117.085247 79.769243 
L 114.061741 61.757842 
L 111.038235 48.578826 
L 108.014729 41.743394 
L 104.991224 42.613643 
L 101.967718 52.240127 
L 98.944212 71.156536 
L 95.920706 99.125116 
L 92.8972 134.825842 
L 89.873694 175.481739 
L 86.850188 216.412089 
L 83.826682 250.504602 
L 80.803177 267.596868 
L 77.779671 253.756699 
L 74.756165 190.450158 
z
" clip-path="url(#pbda04128fd)" style="fill: #d62728; fill-opacity: 0.166667"/>
   </g>
   <g id="PolyCollection_5">
    <path d="M 74.756165 181.859875 
L 74.756165 241.103686 
L 76.468917 241.103686 
L 78.181668 241.103686 
L 79.89442 241.103686 
L 81.607172 241.103686 
L 83.319924 241.103686 
L 85.032675 241.103686 
L 86.745427 241.103686 
L 88.458179 241.103686 
L 90.170931 241.103686 
L 91.883682 241.103686 
L 93.596434 241.103686 
L 95.309186 241.103686 
L 97.021938 241.103686 
L 98.734689 241.103686 
L 100.447441 241.103686 
L 102.160193 241.103686 
L 103.872945 241.103686 
L 105.585696 241.103686 
L 107.298448 241.103686 
L 109.0112 241.103686 
L 110.723952 241.103686 
L 112.436703 241.103686 
L 114.149455 241.103686 
L 115.862207 241.103686 
L 117.574959 241.103686 
L 119.28771 241.103686 
L 121.000462 241.103686 
L 122.713214 241.103686 
L 124.425966 241.103686 
L 126.138717 241.103686 
L 127.851469 241.103686 
L 129.564221 241.103686 
L 131.276973 241.103686 
L 132.989724 241.103686 
L 134.702476 241.103686 
L 136.415228 241.103686 
L 138.12798 241.103686 
L 139.840731 241.103686 
L 141.553483 241.103686 
L 143.266235 241.103686 
L 144.978987 241.103686 
L 146.691738 241.103686 
L 148.40449 241.103686 
L 150.117242 241.103686 
L 151.829994 241.103686 
L 153.542745 241.103686 
L 155.255497 241.103686 
L 156.968249 241.103686 
L 158.681001 241.103686 
L 160.393752 241.103686 
L 162.106504 241.103686 
L 163.819256 241.103686 
L 165.532008 241.103686 
L 167.244759 241.103686 
L 168.957511 241.103686 
L 170.670263 241.103686 
L 172.383015 241.103686 
L 174.095766 241.103686 
L 175.808518 241.103686 
L 177.52127 241.103686 
L 179.234022 241.103686 
L 180.946773 241.103686 
L 182.659525 241.103686 
L 184.372277 241.103686 
L 186.085029 241.103686 
L 187.79778 241.103686 
L 189.510532 241.103686 
L 191.223284 241.103686 
L 192.936036 241.103686 
L 194.648787 241.103686 
L 196.361539 241.103686 
L 198.074291 241.103686 
L 199.787043 241.103686 
L 201.499794 241.103686 
L 203.212546 241.103686 
L 204.925298 241.103686 
L 206.63805 241.103686 
L 208.350801 241.103686 
L 210.063553 241.103686 
L 211.776305 241.103686 
L 213.489057 241.103686 
L 215.201808 241.103686 
L 216.91456 241.103686 
L 218.627312 241.103686 
L 220.340064 241.103686 
L 222.052815 241.103686 
L 223.765567 241.103686 
L 225.478319 241.103686 
L 227.191071 241.103686 
L 228.903822 241.103686 
L 230.616574 241.103686 
L 232.329326 241.103686 
L 234.042078 241.103686 
L 235.754829 241.103686 
L 237.467581 241.103686 
L 239.180333 241.103686 
L 240.893085 241.103686 
L 242.605836 241.103686 
L 244.318588 241.103686 
L 244.318588 251.955638 
L 244.318588 251.955638 
L 242.605836 239.048509 
L 240.893085 233.574998 
L 239.180333 232.804141 
L 237.467581 234.709961 
L 235.754829 237.83864 
L 234.042078 241.194087 
L 232.329326 244.140042 
L 230.616574 246.317032 
L 228.903822 247.572574 
L 227.191071 247.903152 
L 225.478319 247.406614 
L 223.765567 246.243715 
L 222.052815 244.607664 
L 220.340064 242.700598 
L 218.627312 240.71602 
L 216.91456 238.826306 
L 215.201808 237.17449 
L 213.489057 235.869581 
L 211.776305 234.984776 
L 210.063553 234.557976 
L 208.350801 234.594083 
L 206.63805 235.068619 
L 204.925298 235.932275 
L 203.212546 237.116028 
L 201.499794 238.536529 
L 199.787043 240.101524 
L 198.074291 241.715076 
L 196.361539 243.282433 
L 194.648787 244.714403 
L 192.936036 245.931133 
L 191.223284 246.865227 
L 189.510532 247.464143 
L 187.79778 247.691877 
L 186.085029 247.529902 
L 184.372277 246.977414 
L 182.659525 246.0509 
L 180.946773 244.783093 
L 179.234022 243.221364 
L 177.52127 241.425647 
L 175.808518 239.465946 
L 174.095766 237.419534 
L 172.383015 235.367928 
L 170.670263 233.393727 
L 168.957511 231.577401 
L 167.244759 229.994138 
L 165.532008 228.710816 
L 163.819256 227.783197 
L 162.106504 227.253415 
L 160.393752 241.105808 
L 158.681001 241.1065 
L 156.968249 226.640159 
L 155.255497 228.090982 
L 153.542745 229.959053 
L 151.829994 232.158233 
L 150.117242 234.581269 
L 148.40449 237.102346 
L 146.691738 239.580345 
L 144.978987 241.862746 
L 143.266235 243.790112 
L 141.553483 245.201053 
L 139.840731 245.937564 
L 138.12798 245.850624 
L 136.415228 244.805917 
L 134.702476 242.689526 
L 132.989724 239.413466 
L 131.276973 234.920864 
L 129.564221 229.190656 
L 127.851469 222.241598 
L 126.138717 214.135451 
L 124.425966 204.979157 
L 122.713214 194.925845 
L 121.000462 184.174535 
L 119.28771 172.96838 
L 117.574959 161.591336 
L 115.862207 150.363159 
L 114.149455 139.632644 
L 112.436703 129.769074 
L 110.723952 121.151844 
L 109.0112 114.158302 
L 107.298448 109.14986 
L 105.585696 106.456503 
L 103.872945 106.359852 
L 102.160193 109.075024 
L 100.447441 114.731563 
L 98.734689 123.353834 
L 97.021938 134.841295 
L 95.309186 148.949198 
L 93.596434 165.270316 
L 91.883682 183.21843 
L 90.170931 202.014386 
L 88.458179 220.675653 
L 86.745427 238.010447 
L 85.032675 252.617585 
L 83.319924 262.893401 
L 81.607172 267.047167 
L 79.89442 263.126649 
L 78.181668 249.055554 
L 76.468917 222.684821 
L 74.756165 181.859875 
z
" clip-path="url(#pbda04128fd)" style="fill: #9467bd; fill-opacity: 0.166667"/>
   </g>
   <g id="PolyCollection_6">
    <path d="M 74.756165 240.254341 
L 74.756165 241.103686 
L 76.114617 241.103686 
L 77.47307 241.103686 
L 78.831522 241.103686 
L 80.189975 241.103686 
L 81.548427 241.103686 
L 82.90688 241.103686 
L 84.265333 241.103686 
L 85.623785 241.103686 
L 86.982238 241.103686 
L 88.34069 241.103686 
L 89.699143 241.103686 
L 91.057595 241.103686 
L 92.416048 241.103686 
L 93.7745 241.103686 
L 95.132953 241.103686 
L 96.491405 241.103686 
L 97.849858 241.103686 
L 99.20831 241.103686 
L 100.566763 241.103686 
L 101.925215 241.103686 
L 103.283668 241.103686 
L 104.642121 241.103686 
L 106.000573 241.103686 
L 107.359026 241.103686 
L 108.717478 241.103686 
L 110.075931 241.103686 
L 111.434383 241.103686 
L 112.792836 241.103686 
L 114.151288 241.103686 
L 115.509741 241.103686 
L 116.868193 241.103686 
L 118.226646 241.103686 
L 119.585098 241.103686 
L 120.943551 241.103686 
L 122.302004 241.103686 
L 123.660456 241.103686 
L 125.018909 241.103686 
L 126.377361 241.103686 
L 127.735814 241.103686 
L 129.094266 241.103686 
L 130.452719 241.103686 
L 131.811171 241.103686 
L 133.169624 241.103686 
L 134.528076 241.103686 
L 135.886529 241.103686 
L 137.244981 241.103686 
L 138.603434 241.103686 
L 139.961886 241.103686 
L 141.320339 241.103686 
L 142.678792 241.103686 
L 144.037244 241.103686 
L 145.395697 241.103686 
L 146.754149 241.103686 
L 148.112602 241.103686 
L 149.471054 241.103686 
L 150.829507 241.103686 
L 152.187959 241.103686 
L 153.546412 241.103686 
L 154.904864 241.103686 
L 156.263317 241.103686 
L 157.621769 241.103686 
L 158.980222 241.103686 
L 160.338675 241.103686 
L 161.697127 241.103686 
L 163.05558 241.103686 
L 164.414032 241.103686 
L 165.772485 241.103686 
L 167.130937 241.103686 
L 168.48939 241.103686 
L 169.847842 241.103686 
L 171.206295 241.103686 
L 172.564747 241.103686 
L 173.9232 241.103686 
L 175.281652 241.103686 
L 176.640105 241.103686 
L 177.998557 241.103686 
L 179.35701 241.103686 
L 180.715463 241.103686 
L 182.073915 241.103686 
L 183.432368 241.103686 
L 184.79082 241.103686 
L 186.149273 241.103686 
L 187.507725 241.103686 
L 188.866178 241.103686 
L 190.22463 241.103686 
L 191.583083 241.103686 
L 192.941535 241.103686 
L 194.299988 241.103686 
L 195.65844 241.103686 
L 197.016893 241.103686 
L 198.375346 241.103686 
L 199.733798 241.103686 
L 201.092251 241.103686 
L 202.450703 241.103686 
L 203.809156 241.103686 
L 205.167608 241.103686 
L 206.526061 241.103686 
L 207.884513 241.103686 
L 209.242966 241.103686 
L 209.242966 264.818494 
L 209.242966 264.818494 
L 207.884513 235.160961 
L 206.526061 223.542969 
L 205.167608 222.930916 
L 203.809156 228.228759 
L 202.450703 235.885057 
L 201.092251 243.559177 
L 199.733798 249.840184 
L 198.375346 254.012379 
L 197.016893 255.861966 
L 195.65844 255.519761 
L 194.299988 253.335282 
L 192.941535 249.777985 
L 191.583083 245.361754 
L 190.22463 240.589183 
L 188.866178 235.912448 
L 187.507725 231.707962 
L 186.149273 228.262267 
L 184.79082 225.766906 
L 183.432368 224.320306 
L 182.073915 223.93491 
L 180.715463 224.548069 
L 179.35701 226.035386 
L 177.998557 228.22542 
L 176.640105 230.914819 
L 175.281652 233.883146 
L 173.9232 236.906774 
L 172.564747 239.771413 
L 171.206295 242.282893 
L 169.847842 244.276003 
L 168.48939 245.621229 
L 167.130937 246.229358 
L 165.772485 246.053963 
L 164.414032 245.091872 
L 163.05558 243.381746 
L 161.697127 241.000982 
L 160.338675 238.061132 
L 158.980222 234.702104 
L 157.621769 231.085416 
L 156.263317 227.386762 
L 154.904864 223.788178 
L 153.546412 220.470097 
L 152.187959 217.603536 
L 150.829507 215.342687 
L 149.471054 213.818148 
L 148.112602 213.130984 
L 146.754149 213.347832 
L 145.395697 214.497175 
L 144.037244 216.566926 
L 142.678792 241.108135 
L 141.320339 241.10758 
L 139.961886 226.586638 
L 138.603434 231.089482 
L 137.244981 235.916945 
L 135.886529 240.852662 
L 134.528076 245.659055 
L 133.169624 250.085045 
L 131.811171 253.874634 
L 130.452719 256.776135 
L 129.094266 258.551791 
L 127.735814 258.987522 
L 126.377361 257.9025 
L 125.018909 255.158242 
L 123.660456 250.666916 
L 122.302004 244.398531 
L 120.943551 236.386702 
L 119.585098 226.732688 
L 118.226646 215.607414 
L 116.868193 203.251225 
L 115.509741 189.971157 
L 114.151288 176.135543 
L 112.792836 162.165841 
L 111.434383 148.52564 
L 110.075931 135.706872 
L 108.717478 124.213341 
L 107.359026 114.541803 
L 106.000573 107.16093 
L 104.642121 102.488635 
L 103.283668 100.868349 
L 101.925215 102.545051 
L 100.566763 107.641965 
L 99.20831 116.139086 
L 97.849858 127.854847 
L 96.491405 142.43252 
L 95.132953 159.333131 
L 93.7745 177.836961 
L 92.416048 197.055985 
L 91.057595 215.959867 
L 89.699143 233.418479 
L 88.34069 248.264239 
L 86.982238 259.377911 
L 85.623785 265.801902 
L 84.265333 266.885489 
L 82.90688 262.466841 
L 81.548427 253.097133 
L 80.189975 240.312543 
L 78.831522 226.960399 
L 77.47307 217.586281 
L 76.114617 218.889424 
L 74.756165 240.254341 
z
" clip-path="url(#pbda04128fd)" style="fill: #8c564b; fill-opacity: 0.166667"/>
   </g>
   <g id="matplotlib.axis_1">
    <g id="xtick_1">
     <g id="line2d_1">
      <defs>
       <path id="ma6c2121947" d="M 0 0 
L 0 3.5 
" style="stroke: #000000; stroke-width: 0.8"/>
      </defs>
      <g>
       <use xlink:href="#ma6c2121947" x="74.756165" y="288.430125" style="stroke: #000000; stroke-width: 0.8"/>
      </g>
     </g>
     <g id="text_1">
      <!-- 0.000 -->
      <g transform="translate(60.442102 303.028562) scale(0.1 -0.1)">
       <defs>
        <path id="DejaVuSans-30" d="M 2034 4250 
Q 1547 4250 1301 3770 
Q 1056 3291 1056 2328 
Q 1056 1369 1301 889 
Q 1547 409 2034 409 
Q 2525 409 2770 889 
Q 3016 1369 3016 2328 
Q 3016 3291 2770 3770 
Q 2525 4250 2034 4250 
z
M 2034 4750 
Q 2819 4750 3233 4129 
Q 3647 3509 3647 2328 
Q 3647 1150 3233 529 
Q 2819 -91 2034 -91 
Q 1250 -91 836 529 
Q 422 1150 422 2328 
Q 422 3509 836 4129 
Q 1250 4750 2034 4750 
z
" transform="scale(0.015625)"/>
        <path id="DejaVuSans-2e" d="M 684 794 
L 1344 794 
L 1344 0 
L 684 0 
L 684 794 
z
" transform="scale(0.015625)"/>
       </defs>
       <use xlink:href="#DejaVuSans-30"/>
       <use xlink:href="#DejaVuSans-2e" x="63.623047"/>
       <use xlink:href="#DejaVuSans-30" x="95.410156"/>
       <use xlink:href="#DejaVuSans-30" x="159.033203"/>
       <use xlink:href="#DejaVuSans-30" x="222.65625"/>
      </g>
     </g>
    </g>
    <g id="xtick_2">
     <g id="line2d_2">
      <g>
       <use xlink:href="#ma6c2121947" x="137.544836" y="288.430125" style="stroke: #000000; stroke-width: 0.8"/>
      </g>
     </g>
     <g id="text_2">
      <!-- 0.001 -->
      <g transform="translate(123.230774 303.028562) scale(0.1 -0.1)">
       <defs>
        <path id="DejaVuSans-31" d="M 794 531 
L 1825 531 
L 1825 4091 
L 703 3866 
L 703 4441 
L 1819 4666 
L 2450 4666 
L 2450 531 
L 3481 531 
L 3481 0 
L 794 0 
L 794 531 
z
" transform="scale(0.015625)"/>
       </defs>
       <use xlink:href="#DejaVuSans-30"/>
       <use xlink:href="#DejaVuSans-2e" x="63.623047"/>
       <use xlink:href="#DejaVuSans-30" x="95.410156"/>
       <use xlink:href="#DejaVuSans-30" x="159.033203"/>
       <use xlink:href="#DejaVuSans-31" x="222.65625"/>
      </g>
     </g>
    </g>
    <g id="xtick_3">
     <g id="line2d_3">
      <g>
       <use xlink:href="#ma6c2121947" x="200.333508" y="288.430125" style="stroke: #000000; stroke-width: 0.8"/>
      </g>
     </g>
     <g id="text_3">
      <!-- 0.002 -->
      <g transform="translate(186.019445 303.028562) scale(0.1 -0.1)">
       <defs>
        <path id="DejaVuSans-32" d="M 1228 531 
L 3431 531 
L 3431 0 
L 469 0 
L 469 531 
Q 828 903 1448 1529 
Q 2069 2156 2228 2338 
Q 2531 2678 2651 2914 
Q 2772 3150 2772 3378 
Q 2772 3750 2511 3984 
Q 2250 4219 1831 4219 
Q 1534 4219 1204 4116 
Q 875 4013 500 3803 
L 500 4441 
Q 881 4594 1212 4672 
Q 1544 4750 1819 4750 
Q 2544 4750 2975 4387 
Q 3406 4025 3406 3419 
Q 3406 3131 3298 2873 
Q 3191 2616 2906 2266 
Q 2828 2175 2409 1742 
Q 1991 1309 1228 531 
z
" transform="scale(0.015625)"/>
       </defs>
       <use xlink:href="#DejaVuSans-30"/>
       <use xlink:href="#DejaVuSans-2e" x="63.623047"/>
       <use xlink:href="#DejaVuSans-30" x="95.410156"/>
       <use xlink:href="#DejaVuSans-30" x="159.033203"/>
       <use xlink:href="#DejaVuSans-32" x="222.65625"/>
      </g>
     </g>
    </g>
    <g id="xtick_4">
     <g id="line2d_4">
      <g>
       <use xlink:href="#ma6c2121947" x="263.122179" y="288.430125" style="stroke: #000000; stroke-width: 0.8"/>
      </g>
     </g>
     <g id="text_4">
      <!-- 0.003 -->
      <g transform="translate(248.808117 303.028562) scale(0.1 -0.1)">
       <defs>
        <path id="DejaVuSans-33" d="M 2597 2516 
Q 3050 2419 3304 2112 
Q 3559 1806 3559 1356 
Q 3559 666 3084 287 
Q 2609 -91 1734 -91 
Q 1441 -91 1130 -33 
Q 819 25 488 141 
L 488 750 
Q 750 597 1062 519 
Q 1375 441 1716 441 
Q 2309 441 2620 675 
Q 2931 909 2931 1356 
Q 2931 1769 2642 2001 
Q 2353 2234 1838 2234 
L 1294 2234 
L 1294 2753 
L 1863 2753 
Q 2328 2753 2575 2939 
Q 2822 3125 2822 3475 
Q 2822 3834 2567 4026 
Q 2313 4219 1838 4219 
Q 1578 4219 1281 4162 
Q 984 4106 628 3988 
L 628 4550 
Q 988 4650 1302 4700 
Q 1616 4750 1894 4750 
Q 2613 4750 3031 4423 
Q 3450 4097 3450 3541 
Q 3450 3153 3228 2886 
Q 3006 2619 2597 2516 
z
" transform="scale(0.015625)"/>
       </defs>
       <use xlink:href="#DejaVuSans-30"/>
       <use xlink:href="#DejaVuSans-2e" x="63.623047"/>
       <use xlink:href="#DejaVuSans-30" x="95.410156"/>
       <use xlink:href="#DejaVuSans-30" x="159.033203"/>
       <use xlink:href="#DejaVuSans-33" x="222.65625"/>
      </g>
     </g>
    </g>
    <g id="xtick_5">
     <g id="line2d_5">
      <g>
       <use xlink:href="#ma6c2121947" x="325.910851" y="288.430125" style="stroke: #000000; stroke-width: 0.8"/>
      </g>
     </g>
     <g id="text_5">
      <!-- 0.004 -->
      <g transform="translate(311.596788 303.028562) scale(0.1 -0.1)">
       <defs>
        <path id="DejaVuSans-34" d="M 2419 4116 
L 825 1625 
L 2419 1625 
L 2419 4116 
z
M 2253 4666 
L 3047 4666 
L 3047 1625 
L 3713 1625 
L 3713 1100 
L 3047 1100 
L 3047 0 
L 2419 0 
L 2419 1100 
L 313 1100 
L 313 1709 
L 2253 4666 
z
" transform="scale(0.015625)"/>
       </defs>
       <use xlink:href="#DejaVuSans-30"/>
       <use xlink:href="#DejaVuSans-2e" x="63.623047"/>
       <use xlink:href="#DejaVuSans-30" x="95.410156"/>
       <use xlink:href="#DejaVuSans-30" x="159.033203"/>
       <use xlink:href="#DejaVuSans-34" x="222.65625"/>
      </g>
     </g>
    </g>
    <g id="xtick_6">
     <g id="line2d_6">
      <g>
       <use xlink:href="#ma6c2121947" x="388.699522" y="288.430125" style="stroke: #000000; stroke-width: 0.8"/>
      </g>
     </g>
     <g id="text_6">
      <!-- 0.005 -->
      <g transform="translate(374.38546 303.028562) scale(0.1 -0.1)">
       <defs>
        <path id="DejaVuSans-35" d="M 691 4666 
L 3169 4666 
L 3169 4134 
L 1269 4134 
L 1269 2991 
Q 1406 3038 1543 3061 
Q 1681 3084 1819 3084 
Q 2600 3084 3056 2656 
Q 3513 2228 3513 1497 
Q 3513 744 3044 326 
Q 2575 -91 1722 -91 
Q 1428 -91 1123 -41 
Q 819 9 494 109 
L 494 744 
Q 775 591 1075 516 
Q 1375 441 1709 441 
Q 2250 441 2565 725 
Q 2881 1009 2881 1497 
Q 2881 1984 2565 2268 
Q 2250 2553 1709 2553 
Q 1456 2553 1204 2497 
Q 953 2441 691 2322 
L 691 4666 
z
" transform="scale(0.015625)"/>
       </defs>
       <use xlink:href="#DejaVuSans-30"/>
       <use xlink:href="#DejaVuSans-2e" x="63.623047"/>
       <use xlink:href="#DejaVuSans-30" x="95.410156"/>
       <use xlink:href="#DejaVuSans-30" x="159.033203"/>
       <use xlink:href="#DejaVuSans-35" x="222.65625"/>
      </g>
     </g>
    </g>
    <g id="text_7">
     <!-- Pixel values -->
     <g transform="translate(207.671719 316.706687) scale(0.1 -0.1)">
      <defs>
       <path id="DejaVuSans-50" d="M 1259 4147 
L 1259 2394 
L 2053 2394 
Q 2494 2394 2734 2622 
Q 2975 2850 2975 3272 
Q 2975 3691 2734 3919 
Q 2494 4147 2053 4147 
L 1259 4147 
z
M 628 4666 
L 2053 4666 
Q 2838 4666 3239 4311 
Q 3641 3956 3641 3272 
Q 3641 2581 3239 2228 
Q 2838 1875 2053 1875 
L 1259 1875 
L 1259 0 
L 628 0 
L 628 4666 
z
" transform="scale(0.015625)"/>
       <path id="DejaVuSans-69" d="M 603 3500 
L 1178 3500 
L 1178 0 
L 603 0 
L 603 3500 
z
M 603 4863 
L 1178 4863 
L 1178 4134 
L 603 4134 
L 603 4863 
z
" transform="scale(0.015625)"/>
       <path id="DejaVuSans-78" d="M 3513 3500 
L 2247 1797 
L 3578 0 
L 2900 0 
L 1881 1375 
L 863 0 
L 184 0 
L 1544 1831 
L 300 3500 
L 978 3500 
L 1906 2253 
L 2834 3500 
L 3513 3500 
z
" transform="scale(0.015625)"/>
       <path id="DejaVuSans-65" d="M 3597 1894 
L 3597 1613 
L 953 1613 
Q 991 1019 1311 708 
Q 1631 397 2203 397 
Q 2534 397 2845 478 
Q 3156 559 3463 722 
L 3463 178 
Q 3153 47 2828 -22 
Q 2503 -91 2169 -91 
Q 1331 -91 842 396 
Q 353 884 353 1716 
Q 353 2575 817 3079 
Q 1281 3584 2069 3584 
Q 2775 3584 3186 3129 
Q 3597 2675 3597 1894 
z
M 3022 2063 
Q 3016 2534 2758 2815 
Q 2500 3097 2075 3097 
Q 1594 3097 1305 2825 
Q 1016 2553 972 2059 
L 3022 2063 
z
" transform="scale(0.015625)"/>
       <path id="DejaVuSans-6c" d="M 603 4863 
L 1178 4863 
L 1178 0 
L 603 0 
L 603 4863 
z
" transform="scale(0.015625)"/>
       <path id="DejaVuSans-20" transform="scale(0.015625)"/>
       <path id="DejaVuSans-76" d="M 191 3500 
L 800 3500 
L 1894 563 
L 2988 3500 
L 3597 3500 
L 2284 0 
L 1503 0 
L 191 3500 
z
" transform="scale(0.015625)"/>
       <path id="DejaVuSans-61" d="M 2194 1759 
Q 1497 1759 1228 1600 
Q 959 1441 959 1056 
Q 959 750 1161 570 
Q 1363 391 1709 391 
Q 2188 391 2477 730 
Q 2766 1069 2766 1631 
L 2766 1759 
L 2194 1759 
z
M 3341 1997 
L 3341 0 
L 2766 0 
L 2766 531 
Q 2569 213 2275 61 
Q 1981 -91 1556 -91 
Q 1019 -91 701 211 
Q 384 513 384 1019 
Q 384 1609 779 1909 
Q 1175 2209 1959 2209 
L 2766 2209 
L 2766 2266 
Q 2766 2663 2505 2880 
Q 2244 3097 1772 3097 
Q 1472 3097 1187 3025 
Q 903 2953 641 2809 
L 641 3341 
Q 956 3463 1253 3523 
Q 1550 3584 1831 3584 
Q 2591 3584 2966 3190 
Q 3341 2797 3341 1997 
z
" transform="scale(0.015625)"/>
       <path id="DejaVuSans-75" d="M 544 1381 
L 544 3500 
L 1119 3500 
L 1119 1403 
Q 1119 906 1312 657 
Q 1506 409 1894 409 
Q 2359 409 2629 706 
Q 2900 1003 2900 1516 
L 2900 3500 
L 3475 3500 
L 3475 0 
L 2900 0 
L 2900 538 
Q 2691 219 2414 64 
Q 2138 -91 1772 -91 
Q 1169 -91 856 284 
Q 544 659 544 1381 
z
M 1991 3584 
L 1991 3584 
z
" transform="scale(0.015625)"/>
       <path id="DejaVuSans-73" d="M 2834 3397 
L 2834 2853 
Q 2591 2978 2328 3040 
Q 2066 3103 1784 3103 
Q 1356 3103 1142 2972 
Q 928 2841 928 2578 
Q 928 2378 1081 2264 
Q 1234 2150 1697 2047 
L 1894 2003 
Q 2506 1872 2764 1633 
Q 3022 1394 3022 966 
Q 3022 478 2636 193 
Q 2250 -91 1575 -91 
Q 1294 -91 989 -36 
Q 684 19 347 128 
L 347 722 
Q 666 556 975 473 
Q 1284 391 1588 391 
Q 1994 391 2212 530 
Q 2431 669 2431 922 
Q 2431 1156 2273 1281 
Q 2116 1406 1581 1522 
L 1381 1569 
Q 847 1681 609 1914 
Q 372 2147 372 2553 
Q 372 3047 722 3315 
Q 1072 3584 1716 3584 
Q 2034 3584 2315 3537 
Q 2597 3491 2834 3397 
z
" transform="scale(0.015625)"/>
      </defs>
      <use xlink:href="#DejaVuSans-50"/>
      <use xlink:href="#DejaVuSans-69" x="58.052734"/>
      <use xlink:href="#DejaVuSans-78" x="85.835938"/>
      <use xlink:href="#DejaVuSans-65" x="141.890625"/>
      <use xlink:href="#DejaVuSans-6c" x="203.414062"/>
      <use xlink:href="#DejaVuSans-20" x="231.197266"/>
      <use xlink:href="#DejaVuSans-76" x="262.984375"/>
      <use xlink:href="#DejaVuSans-61" x="322.164062"/>
      <use xlink:href="#DejaVuSans-6c" x="383.443359"/>
      <use xlink:href="#DejaVuSans-75" x="411.226562"/>
      <use xlink:href="#DejaVuSans-65" x="474.605469"/>
      <use xlink:href="#DejaVuSans-73" x="536.128906"/>
     </g>
    </g>
   </g>
   <g id="matplotlib.axis_2">
    <g id="ytick_1">
     <g id="line2d_7">
      <defs>
       <path id="m4692d59801" d="M 0 0 
L -3.5 0 
" style="stroke: #000000; stroke-width: 0.8"/>
      </defs>
      <g>
       <use xlink:href="#m4692d59801" x="58.523438" y="284.842105" style="stroke: #000000; stroke-width: 0.8"/>
      </g>
     </g>
     <g id="text_8">
      <!-- −0.02 -->
      <g transform="translate(20.878125 288.641324) scale(0.1 -0.1)">
       <defs>
        <path id="DejaVuSans-2212" d="M 678 2272 
L 4684 2272 
L 4684 1741 
L 678 1741 
L 678 2272 
z
" transform="scale(0.015625)"/>
       </defs>
       <use xlink:href="#DejaVuSans-2212"/>
       <use xlink:href="#DejaVuSans-30" x="83.789062"/>
       <use xlink:href="#DejaVuSans-2e" x="147.412109"/>
       <use xlink:href="#DejaVuSans-30" x="179.199219"/>
       <use xlink:href="#DejaVuSans-32" x="242.822266"/>
      </g>
     </g>
    </g>
    <g id="ytick_2">
     <g id="line2d_8">
      <g>
       <use xlink:href="#m4692d59801" x="58.523438" y="241.103686" style="stroke: #000000; stroke-width: 0.8"/>
      </g>
     </g>
     <g id="text_9">
      <!-- 0.00 -->
      <g transform="translate(29.257813 244.902904) scale(0.1 -0.1)">
       <use xlink:href="#DejaVuSans-30"/>
       <use xlink:href="#DejaVuSans-2e" x="63.623047"/>
       <use xlink:href="#DejaVuSans-30" x="95.410156"/>
       <use xlink:href="#DejaVuSans-30" x="159.033203"/>
      </g>
     </g>
    </g>
    <g id="ytick_3">
     <g id="line2d_9">
      <g>
       <use xlink:href="#m4692d59801" x="58.523438" y="197.365266" style="stroke: #000000; stroke-width: 0.8"/>
      </g>
     </g>
     <g id="text_10">
      <!-- 0.02 -->
      <g transform="translate(29.257813 201.164485) scale(0.1 -0.1)">
       <use xlink:href="#DejaVuSans-30"/>
       <use xlink:href="#DejaVuSans-2e" x="63.623047"/>
       <use xlink:href="#DejaVuSans-30" x="95.410156"/>
       <use xlink:href="#DejaVuSans-32" x="159.033203"/>
      </g>
     </g>
    </g>
    <g id="ytick_4">
     <g id="line2d_10">
      <g>
       <use xlink:href="#m4692d59801" x="58.523438" y="153.626847" style="stroke: #000000; stroke-width: 0.8"/>
      </g>
     </g>
     <g id="text_11">
      <!-- 0.04 -->
      <g transform="translate(29.257813 157.426065) scale(0.1 -0.1)">
       <use xlink:href="#DejaVuSans-30"/>
       <use xlink:href="#DejaVuSans-2e" x="63.623047"/>
       <use xlink:href="#DejaVuSans-30" x="95.410156"/>
       <use xlink:href="#DejaVuSans-34" x="159.033203"/>
      </g>
     </g>
    </g>
    <g id="ytick_5">
     <g id="line2d_11">
      <g>
       <use xlink:href="#m4692d59801" x="58.523438" y="109.888427" style="stroke: #000000; stroke-width: 0.8"/>
      </g>
     </g>
     <g id="text_12">
      <!-- 0.06 -->
      <g transform="translate(29.257813 113.687646) scale(0.1 -0.1)">
       <defs>
        <path id="DejaVuSans-36" d="M 2113 2584 
Q 1688 2584 1439 2293 
Q 1191 2003 1191 1497 
Q 1191 994 1439 701 
Q 1688 409 2113 409 
Q 2538 409 2786 701 
Q 3034 994 3034 1497 
Q 3034 2003 2786 2293 
Q 2538 2584 2113 2584 
z
M 3366 4563 
L 3366 3988 
Q 3128 4100 2886 4159 
Q 2644 4219 2406 4219 
Q 1781 4219 1451 3797 
Q 1122 3375 1075 2522 
Q 1259 2794 1537 2939 
Q 1816 3084 2150 3084 
Q 2853 3084 3261 2657 
Q 3669 2231 3669 1497 
Q 3669 778 3244 343 
Q 2819 -91 2113 -91 
Q 1303 -91 875 529 
Q 447 1150 447 2328 
Q 447 3434 972 4092 
Q 1497 4750 2381 4750 
Q 2619 4750 2861 4703 
Q 3103 4656 3366 4563 
z
" transform="scale(0.015625)"/>
       </defs>
       <use xlink:href="#DejaVuSans-30"/>
       <use xlink:href="#DejaVuSans-2e" x="63.623047"/>
       <use xlink:href="#DejaVuSans-30" x="95.410156"/>
       <use xlink:href="#DejaVuSans-36" x="159.033203"/>
      </g>
     </g>
    </g>
    <g id="ytick_6">
     <g id="line2d_12">
      <g>
       <use xlink:href="#m4692d59801" x="58.523438" y="66.150008" style="stroke: #000000; stroke-width: 0.8"/>
      </g>
     </g>
     <g id="text_13">
      <!-- 0.08 -->
      <g transform="translate(29.257813 69.949227) scale(0.1 -0.1)">
       <defs>
        <path id="DejaVuSans-38" d="M 2034 2216 
Q 1584 2216 1326 1975 
Q 1069 1734 1069 1313 
Q 1069 891 1326 650 
Q 1584 409 2034 409 
Q 2484 409 2743 651 
Q 3003 894 3003 1313 
Q 3003 1734 2745 1975 
Q 2488 2216 2034 2216 
z
M 1403 2484 
Q 997 2584 770 2862 
Q 544 3141 544 3541 
Q 544 4100 942 4425 
Q 1341 4750 2034 4750 
Q 2731 4750 3128 4425 
Q 3525 4100 3525 3541 
Q 3525 3141 3298 2862 
Q 3072 2584 2669 2484 
Q 3125 2378 3379 2068 
Q 3634 1759 3634 1313 
Q 3634 634 3220 271 
Q 2806 -91 2034 -91 
Q 1263 -91 848 271 
Q 434 634 434 1313 
Q 434 1759 690 2068 
Q 947 2378 1403 2484 
z
M 1172 3481 
Q 1172 3119 1398 2916 
Q 1625 2713 2034 2713 
Q 2441 2713 2670 2916 
Q 2900 3119 2900 3481 
Q 2900 3844 2670 4047 
Q 2441 4250 2034 4250 
Q 1625 4250 1398 4047 
Q 1172 3844 1172 3481 
z
" transform="scale(0.015625)"/>
       </defs>
       <use xlink:href="#DejaVuSans-30"/>
       <use xlink:href="#DejaVuSans-2e" x="63.623047"/>
       <use xlink:href="#DejaVuSans-30" x="95.410156"/>
       <use xlink:href="#DejaVuSans-38" x="159.033203"/>
      </g>
     </g>
    </g>
    <g id="ytick_7">
     <g id="line2d_13">
      <g>
       <use xlink:href="#m4692d59801" x="58.523438" y="22.411588" style="stroke: #000000; stroke-width: 0.8"/>
      </g>
     </g>
     <g id="text_14">
      <!-- 0.10 -->
      <g transform="translate(29.257813 26.210807) scale(0.1 -0.1)">
       <use xlink:href="#DejaVuSans-30"/>
       <use xlink:href="#DejaVuSans-2e" x="63.623047"/>
       <use xlink:href="#DejaVuSans-31" x="95.410156"/>
       <use xlink:href="#DejaVuSans-30" x="159.033203"/>
      </g>
     </g>
    </g>
    <g id="text_15">
     <!-- Frequency -->
     <g transform="translate(14.798438 181.203812) rotate(-90) scale(0.1 -0.1)">
      <defs>
       <path id="DejaVuSans-46" d="M 628 4666 
L 3309 4666 
L 3309 4134 
L 1259 4134 
L 1259 2759 
L 3109 2759 
L 3109 2228 
L 1259 2228 
L 1259 0 
L 628 0 
L 628 4666 
z
" transform="scale(0.015625)"/>
       <path id="DejaVuSans-72" d="M 2631 2963 
Q 2534 3019 2420 3045 
Q 2306 3072 2169 3072 
Q 1681 3072 1420 2755 
Q 1159 2438 1159 1844 
L 1159 0 
L 581 0 
L 581 3500 
L 1159 3500 
L 1159 2956 
Q 1341 3275 1631 3429 
Q 1922 3584 2338 3584 
Q 2397 3584 2469 3576 
Q 2541 3569 2628 3553 
L 2631 2963 
z
" transform="scale(0.015625)"/>
       <path id="DejaVuSans-71" d="M 947 1747 
Q 947 1113 1208 752 
Q 1469 391 1925 391 
Q 2381 391 2643 752 
Q 2906 1113 2906 1747 
Q 2906 2381 2643 2742 
Q 2381 3103 1925 3103 
Q 1469 3103 1208 2742 
Q 947 2381 947 1747 
z
M 2906 525 
Q 2725 213 2448 61 
Q 2172 -91 1784 -91 
Q 1150 -91 751 415 
Q 353 922 353 1747 
Q 353 2572 751 3078 
Q 1150 3584 1784 3584 
Q 2172 3584 2448 3432 
Q 2725 3281 2906 2969 
L 2906 3500 
L 3481 3500 
L 3481 -1331 
L 2906 -1331 
L 2906 525 
z
" transform="scale(0.015625)"/>
       <path id="DejaVuSans-6e" d="M 3513 2113 
L 3513 0 
L 2938 0 
L 2938 2094 
Q 2938 2591 2744 2837 
Q 2550 3084 2163 3084 
Q 1697 3084 1428 2787 
Q 1159 2491 1159 1978 
L 1159 0 
L 581 0 
L 581 3500 
L 1159 3500 
L 1159 2956 
Q 1366 3272 1645 3428 
Q 1925 3584 2291 3584 
Q 2894 3584 3203 3211 
Q 3513 2838 3513 2113 
z
" transform="scale(0.015625)"/>
       <path id="DejaVuSans-63" d="M 3122 3366 
L 3122 2828 
Q 2878 2963 2633 3030 
Q 2388 3097 2138 3097 
Q 1578 3097 1268 2742 
Q 959 2388 959 1747 
Q 959 1106 1268 751 
Q 1578 397 2138 397 
Q 2388 397 2633 464 
Q 2878 531 3122 666 
L 3122 134 
Q 2881 22 2623 -34 
Q 2366 -91 2075 -91 
Q 1284 -91 818 406 
Q 353 903 353 1747 
Q 353 2603 823 3093 
Q 1294 3584 2113 3584 
Q 2378 3584 2631 3529 
Q 2884 3475 3122 3366 
z
" transform="scale(0.015625)"/>
       <path id="DejaVuSans-79" d="M 2059 -325 
Q 1816 -950 1584 -1140 
Q 1353 -1331 966 -1331 
L 506 -1331 
L 506 -850 
L 844 -850 
Q 1081 -850 1212 -737 
Q 1344 -625 1503 -206 
L 1606 56 
L 191 3500 
L 800 3500 
L 1894 763 
L 2988 3500 
L 3597 3500 
L 2059 -325 
z
" transform="scale(0.015625)"/>
      </defs>
      <use xlink:href="#DejaVuSans-46"/>
      <use xlink:href="#DejaVuSans-72" x="50.269531"/>
      <use xlink:href="#DejaVuSans-65" x="89.132812"/>
      <use xlink:href="#DejaVuSans-71" x="150.65625"/>
      <use xlink:href="#DejaVuSans-75" x="214.132812"/>
      <use xlink:href="#DejaVuSans-65" x="277.511719"/>
      <use xlink:href="#DejaVuSans-6e" x="339.035156"/>
      <use xlink:href="#DejaVuSans-63" x="402.414062"/>
      <use xlink:href="#DejaVuSans-79" x="457.394531"/>
     </g>
    </g>
   </g>
   <g id="line2d_14">
    <path d="M 74.756165 191.294899 
L 77.707314 251.337098 
L 80.658463 264.97321 
L 83.609612 249.52352 
L 86.560761 218.014159 
L 89.51191 179.953073 
L 92.463059 142.001255 
L 95.414208 108.549677 
L 98.365358 82.211637 
L 101.316507 64.239522 
L 104.267656 54.874328 
L 107.218805 53.635635 
L 110.169954 59.559119 
L 113.121103 71.38813 
L 116.072252 87.725281 
L 119.023401 107.149515 
L 121.97455 128.303585 
L 124.925699 149.956444 
L 127.876848 171.044595 
L 130.827998 190.696041 
L 133.779147 208.240082 
L 136.730296 223.205851 
L 139.681445 235.312143 
L 142.632594 244.450751 
L 145.583743 250.665278 
L 148.534892 254.12707 
L 151.486041 255.109685 
L 154.43719 253.963099 
L 157.388339 251.088607 
L 160.339489 246.915196 
L 163.290638 241.878008 
L 166.241787 236.399323 
L 169.192936 230.872374 
L 172.144085 225.648175 
L 175.095234 221.02542 
L 178.046383 217.24344 
L 180.997532 214.478095 
L 183.948681 212.840433 
L 186.89983 212.377876 
L 189.850979 213.077653 
L 192.802129 214.872166 
L 195.753278 217.645955 
L 198.704427 221.243906 
L 201.655576 225.480343 
L 204.606725 230.148655 
L 207.557874 235.031111 
L 210.509023 239.908531 
L 213.460172 244.569509 
L 216.411321 248.81892 
L 219.36247 241.09772 
L 222.31362 241.097175 
L 225.264769 257.920262 
L 228.215918 259.601221 
L 231.167067 260.325475 
L 234.118216 260.088424 
L 237.069365 258.927176 
L 240.020514 256.918545 
L 242.971663 254.175544 
L 245.922812 250.84251 
L 248.873961 247.088992 
L 251.82511 243.102619 
L 254.77626 239.081173 
L 257.727409 235.224104 
L 260.678558 231.72381 
L 263.629707 228.75695 
L 266.580856 226.476124 
L 269.532005 225.00225 
L 272.483154 224.417946 
L 275.434303 224.762241 
L 278.385452 226.026912 
L 281.336601 228.154711 
L 284.28775 231.039712 
L 287.2389 234.529964 
L 290.190049 238.432568 
L 293.141198 242.521226 
L 296.092347 246.546222 
L 299.043496 250.246695 
L 301.994645 253.364962 
L 304.945794 255.662487 
L 307.896943 256.936997 
L 310.848092 257.040025 
L 313.799241 255.894036 
L 316.750391 253.508057 
L 319.70154 249.99053 
L 322.652689 245.557886 
L 325.603838 240.537048 
L 328.554987 235.359838 
L 331.506136 230.546929 
L 334.457285 226.678699 
L 337.408434 224.349962 
L 340.359583 224.105234 
L 343.310732 226.350759 
L 346.261881 231.239139 
L 349.213031 238.52195 
L 352.16418 247.365278 
L 355.115329 256.122611 
L 358.066478 262.058994 
L 361.017627 261.019828 
L 363.968776 247.037094 
L 366.919925 211.865194 
" clip-path="url(#pbda04128fd)" style="fill: none; stroke: #1f77b4; stroke-width: 1.5; stroke-linecap: square"/>
   </g>
   <g id="line2d_15">
    <path d="M 74.756165 276.334125 
L 78.035504 245.624143 
L 81.314842 204.196439 
L 84.594181 160.159363 
L 87.87352 119.091912 
L 91.152859 84.559545 
L 94.432198 58.554807 
L 97.711537 41.870703 
L 100.990876 34.414125 
L 104.270214 35.466136 
L 107.549553 43.895341 
L 110.828892 58.33011 
L 114.108231 77.294921 
L 117.38757 99.315651 
L 120.666909 122.998197 
L 123.946247 147.084435 
L 127.225586 170.489115 
L 130.504925 192.320934 
L 133.784264 211.890711 
L 137.063603 228.709244 
L 140.342942 242.477143 
L 143.62228 253.068667 
L 146.901619 260.511301 
L 150.180958 264.962612 
L 153.460297 266.685668 
L 156.739636 266.024099 
L 160.018975 263.377724 
L 163.298314 259.179454 
L 166.577652 253.874047 
L 169.856991 247.899151 
L 173.13633 241.668927 
L 176.415669 235.560456 
L 179.695008 229.902994 
L 182.974347 224.970106 
L 186.253685 220.974576 
L 189.533024 218.065967 
L 192.812363 216.330637 
L 196.091702 215.793959 
L 199.371041 216.424501 
L 202.65038 218.139836 
L 205.929718 220.813693 
L 209.209057 224.284122 
L 212.488396 228.362342 
L 215.767735 232.841965 
L 219.047074 237.508279 
L 222.326413 242.147314 
L 225.605752 246.55441 
L 228.88509 250.542051 
L 232.164429 253.94676 
L 235.443768 241.097511 
L 238.723107 241.09917 
L 242.002446 254.282322 
L 245.281785 254.417555 
L 248.561123 253.93419 
L 251.840462 252.869264 
L 255.119801 251.283393 
L 258.39914 249.258136 
L 261.678479 246.892615 
L 264.957818 244.299509 
L 268.237157 241.600543 
L 271.516495 238.921588 
L 274.795834 236.387558 
L 278.075173 234.117228 
L 281.354512 232.218176 
L 284.633851 230.781998 
L 287.91319 229.879987 
L 291.192528 229.559444 
L 294.471867 229.840788 
L 297.751206 230.715613 
L 301.030545 232.145846 
L 304.309884 234.06411 
L 307.589223 236.375385 
L 310.868561 238.960031 
L 314.1479 241.678184 
L 317.427239 244.375516 
L 320.706578 246.890258 
L 323.985917 249.061372 
L 327.265256 250.737669 
L 330.544595 251.78758 
L 333.823933 252.109258 
L 337.103272 251.640527 
L 340.382611 250.368175 
L 343.66195 248.335911 
L 346.941289 245.650231 
L 350.220628 242.483317 
L 353.499966 239.071914 
L 356.779305 235.71104 
L 360.058644 232.741192 
L 363.337983 230.527551 
L 366.617322 229.429527 
L 369.896661 229.758775 
L 373.175999 231.723631 
L 376.455338 235.357692 
L 379.734677 240.430045 
L 383.014016 246.334423 
L 386.293355 251.954288 
L 389.572694 255.500613 
L 392.852033 254.318832 
L 396.131371 244.661155 
L 399.41071 221.420122 
" clip-path="url(#pbda04128fd)" style="fill: none; stroke: #ff7f0e; stroke-width: 1.5; stroke-linecap: square"/>
   </g>
   <g id="line2d_16">
    <path d="M 74.756165 184.458945 
L 77.707901 242.210787 
L 80.659638 252.684494 
L 83.611374 234.118146 
L 86.563111 200.130019 
L 89.514847 160.56613 
L 92.466584 122.232085 
L 95.41832 89.520869 
L 98.370057 64.947382 
L 101.321793 49.59977 
L 104.27353 43.516789 
L 107.225266 45.999787 
L 110.177003 55.867173 
L 113.128739 71.658598 
L 116.080476 91.795467 
L 119.032212 114.703816 
L 121.983949 138.905042 
L 124.935685 163.079436 
L 127.887422 186.107009 
L 130.839158 207.08962 
L 133.790895 225.357976 
L 136.742631 240.466694 
L 139.694368 252.180219 
L 142.646104 260.452038 
L 145.597841 265.399312 
L 148.549577 267.274738 
L 151.501314 266.437185 
L 154.45305 263.322361 
L 157.404787 258.414582 
L 160.356523 252.220444 
L 163.30826 245.245051 
L 166.259996 237.971252 
L 169.211732 230.842192 
L 172.163469 224.247338 
L 175.115205 218.51204 
L 178.066942 213.890547 
L 181.018678 210.562343 
L 183.970415 208.631584 
L 186.922151 208.129328 
L 189.873888 209.018256 
L 192.825624 211.199495 
L 195.777361 214.521155 
L 198.729097 218.788182 
L 201.680834 223.773113 
L 204.63257 229.227328 
L 207.584307 234.892406 
L 210.536043 240.511227 
L 213.48778 245.838462 
L 216.439516 250.650162 
L 219.391253 241.096545 
L 222.342989 241.096854 
L 225.294726 258.096046 
L 228.246462 259.650958 
L 231.198199 260.231758 
L 234.149935 259.84259 
L 237.101672 258.529353 
L 240.053408 256.377288 
L 243.005145 253.507117 
L 245.956881 250.069845 
L 248.908618 246.240396 
L 251.860354 242.210278 
L 254.812091 238.179524 
L 257.763827 234.348157 
L 260.715564 230.907463 
L 263.6673 228.031383 
L 266.619037 225.868342 
L 269.570773 224.533809 
L 272.52251 224.103936 
L 275.474246 224.610562 
L 278.425983 226.037873 
L 281.377719 228.320971 
L 284.329456 231.346584 
L 287.281192 234.956066 
L 290.232929 238.950805 
L 293.184665 243.100078 
L 296.136402 247.151286 
L 299.088138 250.842425 
L 302.039875 253.916537 
L 304.991611 256.137731 
L 307.943348 257.308245 
L 310.895084 257.285861 
L 313.846821 256.000784 
L 316.798557 253.470934 
L 319.750294 249.814367 
L 322.70203 245.257318 
L 325.653767 240.136109 
L 328.605503 234.890903 
L 331.55724 230.048972 
L 334.508976 226.194875 
L 337.460712 223.924558 
L 340.412449 223.78009 
L 343.364185 226.16131 
L 346.315922 231.210311 
L 349.267658 238.664223 
L 352.219395 247.671321 
L 355.171131 256.564998 
L 358.122868 262.589646 
L 361.074604 261.571949 
L 364.026341 247.530532 
L 366.978077 212.21633 
" clip-path="url(#pbda04128fd)" style="fill: none; stroke: #2ca02c; stroke-width: 1.5; stroke-linecap: square"/>
   </g>
   <g id="line2d_17">
    <path d="M 74.756165 190.450158 
L 77.779671 253.756699 
L 80.803177 267.596868 
L 83.826682 250.504602 
L 86.850188 216.412089 
L 89.873694 175.481739 
L 92.8972 134.825842 
L 95.920706 99.125116 
L 98.944212 71.156536 
L 101.967718 52.240127 
L 104.991224 42.613643 
L 108.014729 41.743394 
L 111.038235 48.578826 
L 114.061741 61.757842 
L 117.085247 79.769243 
L 120.108753 101.07815 
L 123.132259 124.21971 
L 126.155765 147.865891 
L 129.179271 170.869727 
L 132.202776 192.290893 
L 135.226282 211.406128 
L 138.249788 227.707561 
L 141.273294 240.891719 
L 144.2968 250.841574 
L 147.320306 257.603732 
L 150.343812 261.362547 
L 153.367318 262.412666 
L 156.390823 261.131287 
L 159.414329 257.951176 
L 162.437835 253.335258 
L 165.461341 247.753453 
L 168.484847 241.662216 
L 171.508353 235.487118 
L 174.531859 229.60866 
L 177.555365 224.351383 
L 180.578871 219.976257 
L 183.602376 216.676224 
L 186.625882 214.574706 
L 189.649388 213.726831 
L 192.672894 214.123067 
L 195.6964 215.694931 
L 198.719906 218.322424 
L 201.743412 221.842788 
L 204.766918 226.060228 
L 207.790423 230.756205 
L 210.813929 235.699929 
L 213.837435 240.658713 
L 216.860941 245.407842 
L 219.884447 249.739677 
L 222.907953 241.097619 
L 225.931459 241.097368 
L 228.954965 257.926606 
L 231.97847 259.536421 
L 235.001976 260.202369 
L 238.025482 259.918744 
L 241.048988 258.72165 
L 244.072494 256.687001 
L 247.096 253.927011 
L 250.119506 250.585299 
L 253.143012 246.830773 
L 256.166517 242.850466 
L 259.190023 238.841589 
L 262.213529 235.003023 
L 265.237035 231.526572 
L 268.260541 228.588256 
L 271.284047 226.33997 
L 274.307553 224.901843 
L 277.331059 224.355612 
L 280.354564 224.739332 
L 283.37807 226.043709 
L 286.401576 228.210341 
L 289.425082 231.132085 
L 292.448588 234.655739 
L 295.472094 238.587147 
L 298.4956 242.6988 
L 301.519106 246.73986 
L 304.542612 250.448498 
L 307.566117 253.566268 
L 310.589623 255.854152 
L 313.613129 257.10973 
L 316.636635 257.184789 
L 319.660141 256.002507 
L 322.683647 253.573128 
L 325.707153 250.00685 
L 328.730659 245.52241 
L 331.754164 240.449578 
L 334.77767 235.223523 
L 337.801176 230.368687 
L 340.824682 226.46951 
L 343.848188 224.124986 
L 346.871694 223.883687 
L 349.8952 226.155471 
L 352.918706 231.095714 
L 355.942211 238.457428 
L 358.965717 247.406198 
L 361.989223 256.292338 
L 365.012729 262.37419 
L 368.036235 261.485903 
L 371.059741 247.642468 
L 374.083247 212.574189 
" clip-path="url(#pbda04128fd)" style="fill: none; stroke: #d62728; stroke-width: 1.5; stroke-linecap: square"/>
   </g>
   <g id="line2d_18">
    <path d="M 74.756165 181.859875 
L 76.468917 222.684821 
L 78.181668 249.055554 
L 79.89442 263.126649 
L 81.607172 267.047167 
L 83.319924 262.893401 
L 85.032675 252.617585 
L 86.745427 238.010447 
L 88.458179 220.675653 
L 90.170931 202.014386 
L 91.883682 183.21843 
L 93.596434 165.270316 
L 95.309186 148.949198 
L 97.021938 134.841295 
L 98.734689 123.353834 
L 100.447441 114.731563 
L 102.160193 109.075024 
L 103.872945 106.359852 
L 105.585696 106.456503 
L 107.298448 109.14986 
L 109.0112 114.158302 
L 110.723952 121.151844 
L 112.436703 129.769074 
L 114.149455 139.632644 
L 115.862207 150.363159 
L 117.574959 161.591336 
L 119.28771 172.96838 
L 121.000462 184.174535 
L 122.713214 194.925845 
L 124.425966 204.979157 
L 126.138717 214.135451 
L 127.851469 222.241598 
L 129.564221 229.190656 
L 131.276973 234.920864 
L 132.989724 239.413466 
L 134.702476 242.689526 
L 136.415228 244.805917 
L 138.12798 245.850624 
L 139.840731 245.937564 
L 141.553483 245.201053 
L 143.266235 243.790112 
L 144.978987 241.862746 
L 146.691738 239.580345 
L 148.40449 237.102346 
L 150.117242 234.581269 
L 151.829994 232.158233 
L 153.542745 229.959053 
L 155.255497 228.090982 
L 156.968249 226.640159 
L 158.681001 241.1065 
L 160.393752 241.105808 
L 162.106504 227.253415 
L 163.819256 227.783197 
L 165.532008 228.710816 
L 167.244759 229.994138 
L 168.957511 231.577401 
L 170.670263 233.393727 
L 172.383015 235.367928 
L 174.095766 237.419534 
L 175.808518 239.465946 
L 177.52127 241.425647 
L 179.234022 243.221364 
L 180.946773 244.783093 
L 182.659525 246.0509 
L 184.372277 246.977414 
L 186.085029 247.529902 
L 187.79778 247.691877 
L 189.510532 247.464143 
L 191.223284 246.865227 
L 192.936036 245.931133 
L 194.648787 244.714403 
L 196.361539 243.282433 
L 198.074291 241.715076 
L 199.787043 240.101524 
L 201.499794 238.536529 
L 203.212546 237.116028 
L 204.925298 235.932275 
L 206.63805 235.068619 
L 208.350801 234.594083 
L 210.063553 234.557976 
L 211.776305 234.984776 
L 213.489057 235.869581 
L 215.201808 237.17449 
L 216.91456 238.826306 
L 218.627312 240.71602 
L 220.340064 242.700598 
L 222.052815 244.607664 
L 223.765567 246.243715 
L 225.478319 247.406614 
L 227.191071 247.903152 
L 228.903822 247.572574 
L 230.616574 246.317032 
L 232.329326 244.140042 
L 234.042078 241.194087 
L 235.754829 237.83864 
L 237.467581 234.709961 
L 239.180333 232.804141 
L 240.893085 233.574998 
L 242.605836 239.048509 
L 244.318588 251.955638 
" clip-path="url(#pbda04128fd)" style="fill: none; stroke: #9467bd; stroke-width: 1.5; stroke-linecap: square"/>
   </g>
   <g id="line2d_19">
    <path d="M 74.756165 240.254341 
L 76.114617 218.889424 
L 77.47307 217.586281 
L 78.831522 226.960399 
L 80.189975 240.312543 
L 81.548427 253.097133 
L 82.90688 262.466841 
L 84.265333 266.885489 
L 85.623785 265.801902 
L 86.982238 259.377911 
L 88.34069 248.264239 
L 89.699143 233.418479 
L 91.057595 215.959867 
L 92.416048 197.055985 
L 93.7745 177.836961 
L 95.132953 159.333131 
L 96.491405 142.43252 
L 97.849858 127.854847 
L 99.20831 116.139086 
L 100.566763 107.641965 
L 101.925215 102.545051 
L 103.283668 100.868349 
L 104.642121 102.488635 
L 106.000573 107.16093 
L 107.359026 114.541803 
L 108.717478 124.213341 
L 110.075931 135.706872 
L 111.434383 148.52564 
L 112.792836 162.165841 
L 114.151288 176.135543 
L 115.509741 189.971157 
L 116.868193 203.251225 
L 118.226646 215.607414 
L 119.585098 226.732688 
L 120.943551 236.386702 
L 122.302004 244.398531 
L 123.660456 250.666916 
L 125.018909 255.158242 
L 126.377361 257.9025 
L 127.735814 258.987522 
L 129.094266 258.551791 
L 130.452719 256.776135 
L 131.811171 253.874634 
L 133.169624 250.085045 
L 134.528076 245.659055 
L 135.886529 240.852662 
L 137.244981 235.916945 
L 138.603434 231.089482 
L 139.961886 226.586638 
L 141.320339 241.10758 
L 142.678792 241.108135 
L 144.037244 216.566926 
L 145.395697 214.497175 
L 146.754149 213.347832 
L 148.112602 213.130984 
L 149.471054 213.818148 
L 150.829507 215.342687 
L 152.187959 217.603536 
L 153.546412 220.470097 
L 154.904864 223.788178 
L 156.263317 227.386762 
L 157.621769 231.085416 
L 158.980222 234.702104 
L 160.338675 238.061132 
L 161.697127 241.000982 
L 163.05558 243.381746 
L 164.414032 245.091872 
L 165.772485 246.053963 
L 167.130937 246.229358 
L 168.48939 245.621229 
L 169.847842 244.276003 
L 171.206295 242.282893 
L 172.564747 239.771413 
L 173.9232 236.906774 
L 175.281652 233.883146 
L 176.640105 230.914819 
L 177.998557 228.22542 
L 179.35701 226.035386 
L 180.715463 224.548069 
L 182.073915 223.93491 
L 183.432368 224.320306 
L 184.79082 225.766906 
L 186.149273 228.262267 
L 187.507725 231.707962 
L 188.866178 235.912448 
L 190.22463 240.589183 
L 191.583083 245.361754 
L 192.941535 249.777985 
L 194.299988 253.335282 
L 195.65844 255.519761 
L 197.016893 255.861966 
L 198.375346 254.012379 
L 199.733798 249.840184 
L 201.092251 243.559177 
L 202.450703 235.885057 
L 203.809156 228.228759 
L 205.167608 222.930916 
L 206.526061 223.542969 
L 207.884513 235.160961 
L 209.242966 264.818494 
" clip-path="url(#pbda04128fd)" style="fill: none; stroke: #8c564b; stroke-width: 1.5; stroke-linecap: square"/>
   </g>
   <g id="patch_3">
    <path d="M 58.523438 288.430125 
L 58.523438 22.318125 
" style="fill: none; stroke: #000000; stroke-width: 0.8; stroke-linejoin: miter; stroke-linecap: square"/>
   </g>
   <g id="patch_4">
    <path d="M 415.643438 288.430125 
L 415.643438 22.318125 
" style="fill: none; stroke: #000000; stroke-width: 0.8; stroke-linejoin: miter; stroke-linecap: square"/>
   </g>
   <g id="patch_5">
    <path d="M 58.523438 288.430125 
L 415.643438 288.430125 
" style="fill: none; stroke: #000000; stroke-width: 0.8; stroke-linejoin: miter; stroke-linecap: square"/>
   </g>
   <g id="patch_6">
    <path d="M 58.523438 22.318125 
L 415.643438 22.318125 
" style="fill: none; stroke: #000000; stroke-width: 0.8; stroke-linejoin: miter; stroke-linecap: square"/>
   </g>
   <g id="text_16">
    <!-- MD - xtract_prob_Superior_Longitudinal_Fasciculus_1_R -->
    <g transform="translate(71.285625 16.318125) scale(0.12 -0.12)">
     <defs>
      <path id="DejaVuSans-4d" d="M 628 4666 
L 1569 4666 
L 2759 1491 
L 3956 4666 
L 4897 4666 
L 4897 0 
L 4281 0 
L 4281 4097 
L 3078 897 
L 2444 897 
L 1241 4097 
L 1241 0 
L 628 0 
L 628 4666 
z
" transform="scale(0.015625)"/>
      <path id="DejaVuSans-44" d="M 1259 4147 
L 1259 519 
L 2022 519 
Q 2988 519 3436 956 
Q 3884 1394 3884 2338 
Q 3884 3275 3436 3711 
Q 2988 4147 2022 4147 
L 1259 4147 
z
M 628 4666 
L 1925 4666 
Q 3281 4666 3915 4102 
Q 4550 3538 4550 2338 
Q 4550 1131 3912 565 
Q 3275 0 1925 0 
L 628 0 
L 628 4666 
z
" transform="scale(0.015625)"/>
      <path id="DejaVuSans-2d" d="M 313 2009 
L 1997 2009 
L 1997 1497 
L 313 1497 
L 313 2009 
z
" transform="scale(0.015625)"/>
      <path id="DejaVuSans-74" d="M 1172 4494 
L 1172 3500 
L 2356 3500 
L 2356 3053 
L 1172 3053 
L 1172 1153 
Q 1172 725 1289 603 
Q 1406 481 1766 481 
L 2356 481 
L 2356 0 
L 1766 0 
Q 1100 0 847 248 
Q 594 497 594 1153 
L 594 3053 
L 172 3053 
L 172 3500 
L 594 3500 
L 594 4494 
L 1172 4494 
z
" transform="scale(0.015625)"/>
      <path id="DejaVuSans-5f" d="M 3263 -1063 
L 3263 -1509 
L -63 -1509 
L -63 -1063 
L 3263 -1063 
z
" transform="scale(0.015625)"/>
      <path id="DejaVuSans-70" d="M 1159 525 
L 1159 -1331 
L 581 -1331 
L 581 3500 
L 1159 3500 
L 1159 2969 
Q 1341 3281 1617 3432 
Q 1894 3584 2278 3584 
Q 2916 3584 3314 3078 
Q 3713 2572 3713 1747 
Q 3713 922 3314 415 
Q 2916 -91 2278 -91 
Q 1894 -91 1617 61 
Q 1341 213 1159 525 
z
M 3116 1747 
Q 3116 2381 2855 2742 
Q 2594 3103 2138 3103 
Q 1681 3103 1420 2742 
Q 1159 2381 1159 1747 
Q 1159 1113 1420 752 
Q 1681 391 2138 391 
Q 2594 391 2855 752 
Q 3116 1113 3116 1747 
z
" transform="scale(0.015625)"/>
      <path id="DejaVuSans-6f" d="M 1959 3097 
Q 1497 3097 1228 2736 
Q 959 2375 959 1747 
Q 959 1119 1226 758 
Q 1494 397 1959 397 
Q 2419 397 2687 759 
Q 2956 1122 2956 1747 
Q 2956 2369 2687 2733 
Q 2419 3097 1959 3097 
z
M 1959 3584 
Q 2709 3584 3137 3096 
Q 3566 2609 3566 1747 
Q 3566 888 3137 398 
Q 2709 -91 1959 -91 
Q 1206 -91 779 398 
Q 353 888 353 1747 
Q 353 2609 779 3096 
Q 1206 3584 1959 3584 
z
" transform="scale(0.015625)"/>
      <path id="DejaVuSans-62" d="M 3116 1747 
Q 3116 2381 2855 2742 
Q 2594 3103 2138 3103 
Q 1681 3103 1420 2742 
Q 1159 2381 1159 1747 
Q 1159 1113 1420 752 
Q 1681 391 2138 391 
Q 2594 391 2855 752 
Q 3116 1113 3116 1747 
z
M 1159 2969 
Q 1341 3281 1617 3432 
Q 1894 3584 2278 3584 
Q 2916 3584 3314 3078 
Q 3713 2572 3713 1747 
Q 3713 922 3314 415 
Q 2916 -91 2278 -91 
Q 1894 -91 1617 61 
Q 1341 213 1159 525 
L 1159 0 
L 581 0 
L 581 4863 
L 1159 4863 
L 1159 2969 
z
" transform="scale(0.015625)"/>
      <path id="DejaVuSans-53" d="M 3425 4513 
L 3425 3897 
Q 3066 4069 2747 4153 
Q 2428 4238 2131 4238 
Q 1616 4238 1336 4038 
Q 1056 3838 1056 3469 
Q 1056 3159 1242 3001 
Q 1428 2844 1947 2747 
L 2328 2669 
Q 3034 2534 3370 2195 
Q 3706 1856 3706 1288 
Q 3706 609 3251 259 
Q 2797 -91 1919 -91 
Q 1588 -91 1214 -16 
Q 841 59 441 206 
L 441 856 
Q 825 641 1194 531 
Q 1563 422 1919 422 
Q 2459 422 2753 634 
Q 3047 847 3047 1241 
Q 3047 1584 2836 1778 
Q 2625 1972 2144 2069 
L 1759 2144 
Q 1053 2284 737 2584 
Q 422 2884 422 3419 
Q 422 4038 858 4394 
Q 1294 4750 2059 4750 
Q 2388 4750 2728 4690 
Q 3069 4631 3425 4513 
z
" transform="scale(0.015625)"/>
      <path id="DejaVuSans-4c" d="M 628 4666 
L 1259 4666 
L 1259 531 
L 3531 531 
L 3531 0 
L 628 0 
L 628 4666 
z
" transform="scale(0.015625)"/>
      <path id="DejaVuSans-67" d="M 2906 1791 
Q 2906 2416 2648 2759 
Q 2391 3103 1925 3103 
Q 1463 3103 1205 2759 
Q 947 2416 947 1791 
Q 947 1169 1205 825 
Q 1463 481 1925 481 
Q 2391 481 2648 825 
Q 2906 1169 2906 1791 
z
M 3481 434 
Q 3481 -459 3084 -895 
Q 2688 -1331 1869 -1331 
Q 1566 -1331 1297 -1286 
Q 1028 -1241 775 -1147 
L 775 -588 
Q 1028 -725 1275 -790 
Q 1522 -856 1778 -856 
Q 2344 -856 2625 -561 
Q 2906 -266 2906 331 
L 2906 616 
Q 2728 306 2450 153 
Q 2172 0 1784 0 
Q 1141 0 747 490 
Q 353 981 353 1791 
Q 353 2603 747 3093 
Q 1141 3584 1784 3584 
Q 2172 3584 2450 3431 
Q 2728 3278 2906 2969 
L 2906 3500 
L 3481 3500 
L 3481 434 
z
" transform="scale(0.015625)"/>
      <path id="DejaVuSans-64" d="M 2906 2969 
L 2906 4863 
L 3481 4863 
L 3481 0 
L 2906 0 
L 2906 525 
Q 2725 213 2448 61 
Q 2172 -91 1784 -91 
Q 1150 -91 751 415 
Q 353 922 353 1747 
Q 353 2572 751 3078 
Q 1150 3584 1784 3584 
Q 2172 3584 2448 3432 
Q 2725 3281 2906 2969 
z
M 947 1747 
Q 947 1113 1208 752 
Q 1469 391 1925 391 
Q 2381 391 2643 752 
Q 2906 1113 2906 1747 
Q 2906 2381 2643 2742 
Q 2381 3103 1925 3103 
Q 1469 3103 1208 2742 
Q 947 2381 947 1747 
z
" transform="scale(0.015625)"/>
      <path id="DejaVuSans-52" d="M 2841 2188 
Q 3044 2119 3236 1894 
Q 3428 1669 3622 1275 
L 4263 0 
L 3584 0 
L 2988 1197 
Q 2756 1666 2539 1819 
Q 2322 1972 1947 1972 
L 1259 1972 
L 1259 0 
L 628 0 
L 628 4666 
L 2053 4666 
Q 2853 4666 3247 4331 
Q 3641 3997 3641 3322 
Q 3641 2881 3436 2590 
Q 3231 2300 2841 2188 
z
M 1259 4147 
L 1259 2491 
L 2053 2491 
Q 2509 2491 2742 2702 
Q 2975 2913 2975 3322 
Q 2975 3731 2742 3939 
Q 2509 4147 2053 4147 
L 1259 4147 
z
" transform="scale(0.015625)"/>
     </defs>
     <use xlink:href="#DejaVuSans-4d"/>
     <use xlink:href="#DejaVuSans-44" x="86.279297"/>
     <use xlink:href="#DejaVuSans-20" x="163.28125"/>
     <use xlink:href="#DejaVuSans-2d" x="195.068359"/>
     <use xlink:href="#DejaVuSans-20" x="231.152344"/>
     <use xlink:href="#DejaVuSans-78" x="262.939453"/>
     <use xlink:href="#DejaVuSans-74" x="322.119141"/>
     <use xlink:href="#DejaVuSans-72" x="361.328125"/>
     <use xlink:href="#DejaVuSans-61" x="402.441406"/>
     <use xlink:href="#DejaVuSans-63" x="463.720703"/>
     <use xlink:href="#DejaVuSans-74" x="518.701172"/>
     <use xlink:href="#DejaVuSans-5f" x="557.910156"/>
     <use xlink:href="#DejaVuSans-70" x="607.910156"/>
     <use xlink:href="#DejaVuSans-72" x="671.386719"/>
     <use xlink:href="#DejaVuSans-6f" x="710.25"/>
     <use xlink:href="#DejaVuSans-62" x="771.431641"/>
     <use xlink:href="#DejaVuSans-5f" x="834.908203"/>
     <use xlink:href="#DejaVuSans-53" x="884.908203"/>
     <use xlink:href="#DejaVuSans-75" x="948.384766"/>
     <use xlink:href="#DejaVuSans-70" x="1011.763672"/>
     <use xlink:href="#DejaVuSans-65" x="1075.240234"/>
     <use xlink:href="#DejaVuSans-72" x="1136.763672"/>
     <use xlink:href="#DejaVuSans-69" x="1177.876953"/>
     <use xlink:href="#DejaVuSans-6f" x="1205.660156"/>
     <use xlink:href="#DejaVuSans-72" x="1266.841797"/>
     <use xlink:href="#DejaVuSans-5f" x="1307.955078"/>
     <use xlink:href="#DejaVuSans-4c" x="1357.955078"/>
     <use xlink:href="#DejaVuSans-6f" x="1411.917969"/>
     <use xlink:href="#DejaVuSans-6e" x="1473.099609"/>
     <use xlink:href="#DejaVuSans-67" x="1536.478516"/>
     <use xlink:href="#DejaVuSans-69" x="1599.955078"/>
     <use xlink:href="#DejaVuSans-74" x="1627.738281"/>
     <use xlink:href="#DejaVuSans-75" x="1666.947266"/>
     <use xlink:href="#DejaVuSans-64" x="1730.326172"/>
     <use xlink:href="#DejaVuSans-69" x="1793.802734"/>
     <use xlink:href="#DejaVuSans-6e" x="1821.585938"/>
     <use xlink:href="#DejaVuSans-61" x="1884.964844"/>
     <use xlink:href="#DejaVuSans-6c" x="1946.244141"/>
     <use xlink:href="#DejaVuSans-5f" x="1974.027344"/>
     <use xlink:href="#DejaVuSans-46" x="2024.027344"/>
     <use xlink:href="#DejaVuSans-61" x="2072.421875"/>
     <use xlink:href="#DejaVuSans-73" x="2133.701172"/>
     <use xlink:href="#DejaVuSans-63" x="2185.800781"/>
     <use xlink:href="#DejaVuSans-69" x="2240.78125"/>
     <use xlink:href="#DejaVuSans-63" x="2268.564453"/>
     <use xlink:href="#DejaVuSans-75" x="2323.544922"/>
     <use xlink:href="#DejaVuSans-6c" x="2386.923828"/>
     <use xlink:href="#DejaVuSans-75" x="2414.707031"/>
     <use xlink:href="#DejaVuSans-73" x="2478.085938"/>
     <use xlink:href="#DejaVuSans-5f" x="2530.185547"/>
     <use xlink:href="#DejaVuSans-31" x="2580.185547"/>
     <use xlink:href="#DejaVuSans-5f" x="2643.808594"/>
     <use xlink:href="#DejaVuSans-52" x="2693.808594"/>
    </g>
   </g>
   <g id="legend_1">
    <g id="patch_7">
     <path d="M 458.355438 146.666825 
L 556.211688 146.666825 
Q 558.211688 146.666825 558.211688 144.666825 
L 558.211688 55.929325 
Q 558.211688 53.929325 556.211688 53.929325 
L 458.355438 53.929325 
Q 456.355438 53.929325 456.355438 55.929325 
L 456.355438 144.666825 
Q 456.355438 146.666825 458.355438 146.666825 
z
" style="fill: #ffffff; opacity: 0.8; stroke: #cccccc; stroke-linejoin: miter"/>
    </g>
    <g id="line2d_20">
     <path d="M 460.355438 62.027762 
L 470.355438 62.027762 
L 480.355438 62.027762 
" style="fill: none; stroke: #1f77b4; stroke-width: 1.5; stroke-linecap: square"/>
    </g>
    <g id="text_17">
     <!-- 20_06_02_E3 -->
     <g transform="translate(488.355438 65.527762) scale(0.1 -0.1)">
      <defs>
       <path id="DejaVuSans-45" d="M 628 4666 
L 3578 4666 
L 3578 4134 
L 1259 4134 
L 1259 2753 
L 3481 2753 
L 3481 2222 
L 1259 2222 
L 1259 531 
L 3634 531 
L 3634 0 
L 628 0 
L 628 4666 
z
" transform="scale(0.015625)"/>
      </defs>
      <use xlink:href="#DejaVuSans-32"/>
      <use xlink:href="#DejaVuSans-30" x="63.623047"/>
      <use xlink:href="#DejaVuSans-5f" x="127.246094"/>
      <use xlink:href="#DejaVuSans-30" x="177.246094"/>
      <use xlink:href="#DejaVuSans-36" x="240.869141"/>
      <use xlink:href="#DejaVuSans-5f" x="304.492188"/>
      <use xlink:href="#DejaVuSans-30" x="354.492188"/>
      <use xlink:href="#DejaVuSans-32" x="418.115234"/>
      <use xlink:href="#DejaVuSans-5f" x="481.738281"/>
      <use xlink:href="#DejaVuSans-45" x="531.738281"/>
      <use xlink:href="#DejaVuSans-33" x="594.921875"/>
     </g>
    </g>
    <g id="line2d_21">
     <path d="M 460.355438 76.984013 
L 470.355438 76.984013 
L 480.355438 76.984013 
" style="fill: none; stroke: #ff7f0e; stroke-width: 1.5; stroke-linecap: square"/>
    </g>
    <g id="text_18">
     <!-- 20_05_01_E3 -->
     <g transform="translate(488.355438 80.484013) scale(0.1 -0.1)">
      <use xlink:href="#DejaVuSans-32"/>
      <use xlink:href="#DejaVuSans-30" x="63.623047"/>
      <use xlink:href="#DejaVuSans-5f" x="127.246094"/>
      <use xlink:href="#DejaVuSans-30" x="177.246094"/>
      <use xlink:href="#DejaVuSans-35" x="240.869141"/>
      <use xlink:href="#DejaVuSans-5f" x="304.492188"/>
      <use xlink:href="#DejaVuSans-30" x="354.492188"/>
      <use xlink:href="#DejaVuSans-31" x="418.115234"/>
      <use xlink:href="#DejaVuSans-5f" x="481.738281"/>
      <use xlink:href="#DejaVuSans-45" x="531.738281"/>
      <use xlink:href="#DejaVuSans-33" x="594.921875"/>
     </g>
    </g>
    <g id="line2d_22">
     <path d="M 460.355438 91.940262 
L 470.355438 91.940262 
L 480.355438 91.940262 
" style="fill: none; stroke: #2ca02c; stroke-width: 1.5; stroke-linecap: square"/>
    </g>
    <g id="text_19">
     <!-- 20_02_02_E3 -->
     <g transform="translate(488.355438 95.440262) scale(0.1 -0.1)">
      <use xlink:href="#DejaVuSans-32"/>
      <use xlink:href="#DejaVuSans-30" x="63.623047"/>
      <use xlink:href="#DejaVuSans-5f" x="127.246094"/>
      <use xlink:href="#DejaVuSans-30" x="177.246094"/>
      <use xlink:href="#DejaVuSans-32" x="240.869141"/>
      <use xlink:href="#DejaVuSans-5f" x="304.492188"/>
      <use xlink:href="#DejaVuSans-30" x="354.492188"/>
      <use xlink:href="#DejaVuSans-32" x="418.115234"/>
      <use xlink:href="#DejaVuSans-5f" x="481.738281"/>
      <use xlink:href="#DejaVuSans-45" x="531.738281"/>
      <use xlink:href="#DejaVuSans-33" x="594.921875"/>
     </g>
    </g>
    <g id="line2d_23">
     <path d="M 460.355438 106.896513 
L 470.355438 106.896513 
L 480.355438 106.896513 
" style="fill: none; stroke: #d62728; stroke-width: 1.5; stroke-linecap: square"/>
    </g>
    <g id="text_20">
     <!-- 20_10_02_E3 -->
     <g transform="translate(488.355438 110.396513) scale(0.1 -0.1)">
      <use xlink:href="#DejaVuSans-32"/>
      <use xlink:href="#DejaVuSans-30" x="63.623047"/>
      <use xlink:href="#DejaVuSans-5f" x="127.246094"/>
      <use xlink:href="#DejaVuSans-31" x="177.246094"/>
      <use xlink:href="#DejaVuSans-30" x="240.869141"/>
      <use xlink:href="#DejaVuSans-5f" x="304.492188"/>
      <use xlink:href="#DejaVuSans-30" x="354.492188"/>
      <use xlink:href="#DejaVuSans-32" x="418.115234"/>
      <use xlink:href="#DejaVuSans-5f" x="481.738281"/>
      <use xlink:href="#DejaVuSans-45" x="531.738281"/>
      <use xlink:href="#DejaVuSans-33" x="594.921875"/>
     </g>
    </g>
    <g id="line2d_24">
     <path d="M 460.355438 121.852762 
L 470.355438 121.852762 
L 480.355438 121.852762 
" style="fill: none; stroke: #9467bd; stroke-width: 1.5; stroke-linecap: square"/>
    </g>
    <g id="text_21">
     <!-- 20_08_02_E3 -->
     <g transform="translate(488.355438 125.352762) scale(0.1 -0.1)">
      <use xlink:href="#DejaVuSans-32"/>
      <use xlink:href="#DejaVuSans-30" x="63.623047"/>
      <use xlink:href="#DejaVuSans-5f" x="127.246094"/>
      <use xlink:href="#DejaVuSans-30" x="177.246094"/>
      <use xlink:href="#DejaVuSans-38" x="240.869141"/>
      <use xlink:href="#DejaVuSans-5f" x="304.492188"/>
      <use xlink:href="#DejaVuSans-30" x="354.492188"/>
      <use xlink:href="#DejaVuSans-32" x="418.115234"/>
      <use xlink:href="#DejaVuSans-5f" x="481.738281"/>
      <use xlink:href="#DejaVuSans-45" x="531.738281"/>
      <use xlink:href="#DejaVuSans-33" x="594.921875"/>
     </g>
    </g>
    <g id="line2d_25">
     <path d="M 460.355438 136.809012 
L 470.355438 136.809012 
L 480.355438 136.809012 
" style="fill: none; stroke: #8c564b; stroke-width: 1.5; stroke-linecap: square"/>
    </g>
    <g id="text_22">
     <!-- 20_11_02_E3 -->
     <g transform="translate(488.355438 140.309012) scale(0.1 -0.1)">
      <use xlink:href="#DejaVuSans-32"/>
      <use xlink:href="#DejaVuSans-30" x="63.623047"/>
      <use xlink:href="#DejaVuSans-5f" x="127.246094"/>
      <use xlink:href="#DejaVuSans-31" x="177.246094"/>
      <use xlink:href="#DejaVuSans-31" x="240.869141"/>
      <use xlink:href="#DejaVuSans-5f" x="304.492188"/>
      <use xlink:href="#DejaVuSans-30" x="354.492188"/>
      <use xlink:href="#DejaVuSans-32" x="418.115234"/>
      <use xlink:href="#DejaVuSans-5f" x="481.738281"/>
      <use xlink:href="#DejaVuSans-45" x="531.738281"/>
      <use xlink:href="#DejaVuSans-33" x="594.921875"/>
     </g>
    </g>
   </g>
  </g>
 </g>
 <defs>
  <clipPath id="pbda04128fd">
   <rect x="58.523438" y="22.318125" width="357.12" height="266.112"/>
  </clipPath>
 </defs>
</svg>
