<?xml version="1.0" encoding="utf-8" standalone="no"?>
<!DOCTYPE svg PUBLIC "-//W3C//DTD SVG 1.1//EN"
  "http://www.w3.org/Graphics/SVG/1.1/DTD/svg11.dtd">
<svg xmlns:xlink="http://www.w3.org/1999/xlink" width="565.411687pt" height="325.986375pt" viewBox="0 0 565.411687 325.986375" xmlns="http://www.w3.org/2000/svg" version="1.1">
 <metadata>
  <rdf:RDF xmlns:dc="http://purl.org/dc/elements/1.1/" xmlns:cc="http://creativecommons.org/ns#" xmlns:rdf="http://www.w3.org/1999/02/22-rdf-syntax-ns#">
   <cc:Work>
    <dc:type rdf:resource="http://purl.org/dc/dcmitype/StillImage"/>
    <dc:date>2023-02-07T23:00:09.519200</dc:date>
    <dc:format>image/svg+xml</dc:format>
    <dc:creator>
     <cc:Agent>
      <dc:title>Matplotlib v3.6.2, https://matplotlib.org/</dc:title>
     </cc:Agent>
    </dc:creator>
   </cc:Work>
  </rdf:RDF>
 </metadata>
 <defs>
  <style type="text/css">*{stroke-linejoin: round; stroke-linecap: butt}</style>
 </defs>
 <g id="figure_1">
  <g id="patch_1">
   <path d="M 0 325.986375 
L 565.411687 325.986375 
L 565.411687 0 
L 0 0 
z
" style="fill: #ffffff"/>
  </g>
  <g id="axes_1">
   <g id="patch_2">
    <path d="M 58.523438 288.430125 
L 415.643438 288.430125 
L 415.643438 22.318125 
L 58.523438 22.318125 
z
" style="fill: #ffffff"/>
   </g>
   <g id="PolyCollection_1">
    <path d="M 74.756165 164.796209 
L 74.756165 234.880407 
L 77.365866 234.880407 
L 79.975567 234.880407 
L 82.585268 234.880407 
L 85.194969 234.880407 
L 87.80467 234.880407 
L 90.414371 234.880407 
L 93.024073 234.880407 
L 95.633774 234.880407 
L 98.243475 234.880407 
L 100.853176 234.880407 
L 103.462877 234.880407 
L 106.072578 234.880407 
L 108.682279 234.880407 
L 111.29198 234.880407 
L 113.901681 234.880407 
L 116.511383 234.880407 
L 119.121084 234.880407 
L 121.730785 234.880407 
L 124.340486 234.880407 
L 126.950187 234.880407 
L 129.559888 234.880407 
L 132.169589 234.880407 
L 134.77929 234.880407 
L 137.388991 234.880407 
L 139.998693 234.880407 
L 142.608394 234.880407 
L 145.218095 234.880407 
L 147.827796 234.880407 
L 150.437497 234.880407 
L 153.047198 234.880407 
L 155.656899 234.880407 
L 158.2666 234.880407 
L 160.876301 234.880407 
L 163.486003 234.880407 
L 166.095704 234.880407 
L 168.705405 234.880407 
L 171.315106 234.880407 
L 173.924807 234.880407 
L 176.534508 234.880407 
L 179.144209 234.880407 
L 181.75391 234.880407 
L 184.363611 234.880407 
L 186.973313 234.880407 
L 189.583014 234.880407 
L 192.192715 234.880407 
L 194.802416 234.880407 
L 197.412117 234.880407 
L 200.021818 234.880407 
L 202.631519 234.880407 
L 205.24122 234.880407 
L 207.850921 234.880407 
L 210.460623 234.880407 
L 213.070324 234.880407 
L 215.680025 234.880407 
L 218.289726 234.880407 
L 220.899427 234.880407 
L 223.509128 234.880407 
L 226.118829 234.880407 
L 228.72853 234.880407 
L 231.338231 234.880407 
L 233.947933 234.880407 
L 236.557634 234.880407 
L 239.167335 234.880407 
L 241.777036 234.880407 
L 244.386737 234.880407 
L 246.996438 234.880407 
L 249.606139 234.880407 
L 252.21584 234.880407 
L 254.825541 234.880407 
L 257.435243 234.880407 
L 260.044944 234.880407 
L 262.654645 234.880407 
L 265.264346 234.880407 
L 267.874047 234.880407 
L 270.483748 234.880407 
L 273.093449 234.880407 
L 275.70315 234.880407 
L 278.312851 234.880407 
L 280.922553 234.880407 
L 283.532254 234.880407 
L 286.141955 234.880407 
L 288.751656 234.880407 
L 291.361357 234.880407 
L 293.971058 234.880407 
L 296.580759 234.880407 
L 299.19046 234.880407 
L 301.800161 234.880407 
L 304.409863 234.880407 
L 307.019564 234.880407 
L 309.629265 234.880407 
L 312.238966 234.880407 
L 314.848667 234.880407 
L 317.458368 234.880407 
L 320.068069 234.880407 
L 322.67777 234.880407 
L 325.287471 234.880407 
L 327.897173 234.880407 
L 330.506874 234.880407 
L 333.116575 234.880407 
L 333.116575 248.981142 
L 333.116575 248.981142 
L 330.506874 232.076452 
L 327.897173 225.077752 
L 325.287471 224.260594 
L 322.67777 226.884941 
L 320.068069 231.00416 
L 317.458368 235.301473 
L 314.848667 238.950976 
L 312.238966 241.500577 
L 309.629265 242.774375 
L 307.019564 242.792216 
L 304.409863 241.704331 
L 301.800161 239.73913 
L 299.19046 237.162394 
L 296.580759 234.246269 
L 293.971058 231.24659 
L 291.361357 228.387236 
L 288.751656 225.850312 
L 286.141955 223.771099 
L 283.532254 222.236827 
L 280.922553 221.288423 
L 278.312851 220.924498 
L 275.70315 221.106936 
L 273.093449 221.767515 
L 270.483748 222.815088 
L 267.874047 224.14294 
L 265.264346 225.635967 
L 262.654645 227.177426 
L 260.044944 228.655043 
L 257.435243 229.966322 
L 254.825541 231.022944 
L 252.21584 231.754198 
L 249.606139 232.109401 
L 246.996438 232.059323 
L 244.386737 231.596643 
L 241.777036 230.735498 
L 239.167335 229.510192 
L 236.557634 227.973175 
L 233.947933 226.192379 
L 231.338231 224.24805 
L 228.72853 222.229175 
L 226.118829 220.229654 
L 223.509128 218.344324 
L 220.899427 216.664979 
L 218.289726 215.276492 
L 215.680025 214.253162 
L 213.070324 213.655395 
L 210.460623 213.526809 
L 207.850921 213.891856 
L 205.24122 234.881803 
L 202.631519 234.882022 
L 200.021818 216.790758 
L 197.412117 218.962446 
L 194.802416 221.477845 
L 192.192715 224.228358 
L 189.583014 227.085726 
L 186.973313 229.905393 
L 184.363611 232.530571 
L 181.75391 234.796922 
L 179.144209 236.537761 
L 176.534508 237.589659 
L 173.924807 237.798308 
L 171.315106 237.024516 
L 168.705405 235.150152 
L 166.095704 232.083898 
L 163.486003 227.766603 
L 160.876301 222.176095 
L 158.2666 215.331233 
L 155.656899 207.295052 
L 153.047198 198.176809 
L 150.437497 188.132775 
L 147.827796 177.365616 
L 145.218095 166.122241 
L 142.608394 154.689992 
L 139.998693 143.391112 
L 137.388991 132.57542 
L 134.77929 122.611199 
L 132.169589 113.874313 
L 129.559888 106.735641 
L 126.950187 101.546959 
L 124.340486 98.625471 
L 121.730785 98.237247 
L 119.121084 100.57992 
L 116.511383 105.765052 
L 113.901681 113.800694 
L 111.29198 124.574746 
L 108.682279 137.839832 
L 106.072578 153.200528 
L 103.462877 170.103888 
L 100.853176 187.834365 
L 98.243475 205.51434 
L 95.633774 222.111643 
L 93.024073 236.455595 
L 90.414371 247.263281 
L 87.80467 253.177936 
L 85.194969 252.821504 
L 82.585268 244.863667 
L 79.975567 228.109802 
L 77.365866 201.61059 
L 74.756165 164.796209 
z
" clip-path="url(#p85039d4ae2)" style="fill: #1f77b4; fill-opacity: 0.166667"/>
   </g>
   <g id="PolyCollection_2">
    <path d="M 74.756165 176.128877 
L 74.756165 234.880407 
L 77.890534 234.880407 
L 81.024903 234.880407 
L 84.159272 234.880407 
L 87.293641 234.880407 
L 90.428009 234.880407 
L 93.562378 234.880407 
L 96.696747 234.880407 
L 99.831116 234.880407 
L 102.965485 234.880407 
L 106.099854 234.880407 
L 109.234223 234.880407 
L 112.368592 234.880407 
L 115.502961 234.880407 
L 118.63733 234.880407 
L 121.771699 234.880407 
L 124.906068 234.880407 
L 128.040437 234.880407 
L 131.174806 234.880407 
L 134.309175 234.880407 
L 137.443543 234.880407 
L 140.577912 234.880407 
L 143.712281 234.880407 
L 146.84665 234.880407 
L 149.981019 234.880407 
L 153.115388 234.880407 
L 156.249757 234.880407 
L 159.384126 234.880407 
L 162.518495 234.880407 
L 165.652864 234.880407 
L 168.787233 234.880407 
L 171.921602 234.880407 
L 175.055971 234.880407 
L 178.19034 234.880407 
L 181.324709 234.880407 
L 184.459077 234.880407 
L 187.593446 234.880407 
L 190.727815 234.880407 
L 193.862184 234.880407 
L 196.996553 234.880407 
L 200.130922 234.880407 
L 203.265291 234.880407 
L 206.39966 234.880407 
L 209.534029 234.880407 
L 212.668398 234.880407 
L 215.802767 234.880407 
L 218.937136 234.880407 
L 222.071505 234.880407 
L 225.205874 234.880407 
L 228.340243 234.880407 
L 231.474611 234.880407 
L 234.60898 234.880407 
L 237.743349 234.880407 
L 240.877718 234.880407 
L 244.012087 234.880407 
L 247.146456 234.880407 
L 250.280825 234.880407 
L 253.415194 234.880407 
L 256.549563 234.880407 
L 259.683932 234.880407 
L 262.818301 234.880407 
L 265.95267 234.880407 
L 269.087039 234.880407 
L 272.221408 234.880407 
L 275.355777 234.880407 
L 278.490145 234.880407 
L 281.624514 234.880407 
L 284.758883 234.880407 
L 287.893252 234.880407 
L 291.027621 234.880407 
L 294.16199 234.880407 
L 297.296359 234.880407 
L 300.430728 234.880407 
L 303.565097 234.880407 
L 306.699466 234.880407 
L 309.833835 234.880407 
L 312.968204 234.880407 
L 316.102573 234.880407 
L 319.236942 234.880407 
L 322.371311 234.880407 
L 325.505679 234.880407 
L 328.640048 234.880407 
L 331.774417 234.880407 
L 334.908786 234.880407 
L 338.043155 234.880407 
L 341.177524 234.880407 
L 344.311893 234.880407 
L 347.446262 234.880407 
L 350.580631 234.880407 
L 353.715 234.880407 
L 356.849369 234.880407 
L 359.983738 234.880407 
L 363.118107 234.880407 
L 366.252476 234.880407 
L 369.386845 234.880407 
L 372.521213 234.880407 
L 375.655582 234.880407 
L 378.789951 234.880407 
L 381.92432 234.880407 
L 385.058689 234.880407 
L 385.058689 212.607729 
L 385.058689 212.607729 
L 381.92432 240.109912 
L 378.789951 250.857175 
L 375.655582 251.42223 
L 372.521213 246.548489 
L 369.386845 239.525697 
L 366.252476 232.508161 
L 363.118107 226.78201 
L 359.983738 222.987398 
L 356.849369 221.301093 
L 353.715 221.584435 
L 350.580631 223.501231 
L 347.446262 226.609738 
L 344.311893 230.43249 
L 341.177524 234.507404 
L 338.043155 238.423196 
L 334.908786 241.841884 
L 331.774417 244.510795 
L 328.640048 246.266268 
L 325.505679 247.030924 
L 322.371311 246.806186 
L 319.236942 245.661466 
L 316.102573 243.721246 
L 312.968204 241.151078 
L 309.833835 238.143366 
L 306.699466 234.903607 
L 303.565097 231.637653 
L 300.430728 228.54039 
L 297.296359 225.786148 
L 294.16199 223.521011 
L 291.027621 221.857145 
L 287.893252 220.869142 
L 284.758883 220.592336 
L 281.624514 221.022983 
L 278.490145 222.120133 
L 275.355777 223.809003 
L 272.221408 225.985622 
L 269.087039 228.522492 
L 265.95267 231.275017 
L 262.818301 234.088406 
L 259.683932 236.804804 
L 256.549563 239.270387 
L 253.415194 241.342155 
L 250.280825 242.894218 
L 247.146456 243.823343 
L 244.012087 244.053597 
L 240.877718 243.539924 
L 237.743349 242.270541 
L 234.60898 240.268057 
L 231.474611 234.874255 
L 228.340243 234.874365 
L 225.205874 232.171791 
L 222.071505 228.130247 
L 218.937136 223.850445 
L 215.802767 219.516285 
L 212.668398 215.322445 
L 209.534029 211.466267 
L 206.39966 208.139073 
L 203.265291 205.517194 
L 200.130922 203.752978 
L 196.996553 202.96611 
L 193.862184 203.23555 
L 190.727815 204.592429 
L 187.593446 207.014237 
L 184.459077 210.420616 
L 181.324709 214.67107 
L 178.19034 219.564881 
L 175.055971 224.843466 
L 171.921602 230.195382 
L 168.787233 235.264133 
L 165.652864 239.65884 
L 162.518495 242.967785 
L 159.384126 244.774728 
L 156.249757 244.677795 
L 153.115388 242.31061 
L 149.981019 237.365214 
L 146.84665 229.616158 
L 143.712281 218.944984 
L 140.577912 205.364138 
L 137.443543 189.039137 
L 134.309175 170.307603 
L 131.174806 149.693533 
L 128.040437 127.914924 
L 124.906068 105.882565 
L 121.771699 84.687547 
L 118.63733 65.574681 
L 115.502961 49.898699 
L 112.368592 39.059725 
L 109.234223 34.414125 
L 106.099854 37.156424 
L 102.965485 48.167536 
L 99.831116 67.824096 
L 96.696747 95.763183 
L 93.562378 130.596202 
L 90.428009 169.565164 
L 87.293641 208.134002 
L 84.159272 239.506986 
L 81.024903 254.065647 
L 77.890534 238.714963 
L 74.756165 176.128877 
z
" clip-path="url(#p85039d4ae2)" style="fill: #ff7f0e; fill-opacity: 0.166667"/>
   </g>
   <g id="PolyCollection_3">
    <path d="M 74.756165 130.226014 
L 74.756165 234.880407 
L 77.681379 234.880407 
L 80.606592 234.880407 
L 83.531806 234.880407 
L 86.45702 234.880407 
L 89.382233 234.880407 
L 92.307447 234.880407 
L 95.232661 234.880407 
L 98.157875 234.880407 
L 101.083088 234.880407 
L 104.008302 234.880407 
L 106.933516 234.880407 
L 109.85873 234.880407 
L 112.783943 234.880407 
L 115.709157 234.880407 
L 118.634371 234.880407 
L 121.559585 234.880407 
L 124.484798 234.880407 
L 127.410012 234.880407 
L 130.335226 234.880407 
L 133.26044 234.880407 
L 136.185653 234.880407 
L 139.110867 234.880407 
L 142.036081 234.880407 
L 144.961295 234.880407 
L 147.886508 234.880407 
L 150.811722 234.880407 
L 153.736936 234.880407 
L 156.66215 234.880407 
L 159.587363 234.880407 
L 162.512577 234.880407 
L 165.437791 234.880407 
L 168.363005 234.880407 
L 171.288218 234.880407 
L 174.213432 234.880407 
L 177.138646 234.880407 
L 180.06386 234.880407 
L 182.989073 234.880407 
L 185.914287 234.880407 
L 188.839501 234.880407 
L 191.764715 234.880407 
L 194.689928 234.880407 
L 197.615142 234.880407 
L 200.540356 234.880407 
L 203.46557 234.880407 
L 206.390783 234.880407 
L 209.315997 234.880407 
L 212.241211 234.880407 
L 215.166424 234.880407 
L 218.091638 234.880407 
L 221.016852 234.880407 
L 223.942066 234.880407 
L 226.867279 234.880407 
L 229.792493 234.880407 
L 232.717707 234.880407 
L 235.642921 234.880407 
L 238.568134 234.880407 
L 241.493348 234.880407 
L 244.418562 234.880407 
L 247.343776 234.880407 
L 250.268989 234.880407 
L 253.194203 234.880407 
L 256.119417 234.880407 
L 259.044631 234.880407 
L 261.969844 234.880407 
L 264.895058 234.880407 
L 267.820272 234.880407 
L 270.745486 234.880407 
L 273.670699 234.880407 
L 276.595913 234.880407 
L 279.521127 234.880407 
L 282.446341 234.880407 
L 285.371554 234.880407 
L 288.296768 234.880407 
L 291.221982 234.880407 
L 294.147196 234.880407 
L 297.072409 234.880407 
L 299.997623 234.880407 
L 302.922837 234.880407 
L 305.848051 234.880407 
L 308.773264 234.880407 
L 311.698478 234.880407 
L 314.623692 234.880407 
L 317.548906 234.880407 
L 320.474119 234.880407 
L 323.399333 234.880407 
L 326.324547 234.880407 
L 329.249761 234.880407 
L 332.174974 234.880407 
L 335.100188 234.880407 
L 338.025402 234.880407 
L 340.950616 234.880407 
L 343.875829 234.880407 
L 346.801043 234.880407 
L 349.726257 234.880407 
L 352.65147 234.880407 
L 355.576684 234.880407 
L 358.501898 234.880407 
L 361.427112 234.880407 
L 364.352325 234.880407 
L 364.352325 220.990198 
L 364.352325 220.990198 
L 361.427112 238.129248 
L 358.501898 244.756077 
L 355.576684 245.026093 
L 352.65147 241.923482 
L 349.726257 237.505316 
L 346.801043 233.107768 
L 343.875829 229.518718 
L 340.950616 227.120756 
L 338.025402 226.008183 
L 335.100188 226.081389 
L 332.174974 227.121606 
L 329.249761 228.84884 
L 326.324547 230.965463 
L 323.399333 233.187725 
L 320.474119 235.267229 
L 317.548906 237.00416 
L 314.623692 238.253884 
L 311.698478 238.928342 
L 308.773264 238.993455 
L 305.848051 238.463653 
L 302.922837 237.394414 
L 299.997623 235.873623 
L 297.072409 234.012408 
L 294.147196 231.935966 
L 291.221982 229.774845 
L 288.296768 227.65699 
L 285.371554 225.700813 
L 282.446341 224.009454 
L 279.521127 222.66634 
L 276.595913 221.73207 
L 273.670699 221.242631 
L 270.745486 221.208884 
L 267.820272 221.617217 
L 264.895058 222.431273 
L 261.969844 223.594573 
L 259.044631 225.033894 
L 256.119417 226.663232 
L 253.194203 228.388146 
L 250.268989 230.110329 
L 247.343776 231.732213 
L 244.418562 233.161438 
L 241.493348 234.315032 
L 238.568134 235.123152 
L 235.642921 235.532253 
L 232.717707 235.507587 
L 229.792493 235.034936 
L 226.867279 234.121516 
L 223.942066 232.796015 
L 221.016852 234.876281 
L 218.091638 234.876421 
L 215.166424 228.015128 
L 212.241211 225.674698 
L 209.315997 223.274262 
L 206.390783 220.929746 
L 203.46557 218.758912 
L 200.540356 216.875722 
L 197.615142 215.384485 
L 194.689928 214.373983 
L 191.764715 213.911789 
L 188.839501 214.038993 
L 185.914287 214.765566 
L 182.989073 216.06659 
L 180.06386 217.879568 
L 177.138646 220.103033 
L 174.213432 222.596653 
L 171.288218 225.182988 
L 168.363005 227.651063 
L 165.437791 229.76183 
L 162.512577 231.255605 
L 159.587363 231.861452 
L 156.66215 231.308469 
L 153.736936 229.338824 
L 150.811722 225.722326 
L 147.886508 220.272213 
L 144.961295 212.861729 
L 142.036081 203.440951 
L 139.110867 192.053205 
L 136.185653 178.850247 
L 133.26044 164.105257 
L 130.335226 148.222506 
L 127.410012 131.742386 
L 124.484798 115.340291 
L 121.559585 99.817635 
L 118.634371 86.083056 
L 115.709157 75.121626 
L 112.783943 67.949618 
L 109.85873 65.552119 
L 106.933516 68.800473 
L 104.008302 78.346249 
L 101.083088 94.488083 
L 98.157875 117.007398 
L 95.232661 144.96868 
L 92.307447 176.479532 
L 89.382233 208.405413 
L 86.45702 236.033459 
L 83.531806 252.679414 
L 80.606592 249.23118 
L 77.681379 213.622028 
L 74.756165 130.226014 
z
" clip-path="url(#p85039d4ae2)" style="fill: #2ca02c; fill-opacity: 0.166667"/>
   </g>
   <g id="PolyCollection_4">
    <path d="M 74.756165 136.091177 
L 74.756165 234.880407 
L 78.035504 234.880407 
L 81.314842 234.880407 
L 84.594181 234.880407 
L 87.87352 234.880407 
L 91.152859 234.880407 
L 94.432198 234.880407 
L 97.711537 234.880407 
L 100.990876 234.880407 
L 104.270214 234.880407 
L 107.549553 234.880407 
L 110.828892 234.880407 
L 114.108231 234.880407 
L 117.38757 234.880407 
L 120.666909 234.880407 
L 123.946247 234.880407 
L 127.225586 234.880407 
L 130.504925 234.880407 
L 133.784264 234.880407 
L 137.063603 234.880407 
L 140.342942 234.880407 
L 143.62228 234.880407 
L 146.901619 234.880407 
L 150.180958 234.880407 
L 153.460297 234.880407 
L 156.739636 234.880407 
L 160.018975 234.880407 
L 163.298314 234.880407 
L 166.577652 234.880407 
L 169.856991 234.880407 
L 173.13633 234.880407 
L 176.415669 234.880407 
L 179.695008 234.880407 
L 182.974347 234.880407 
L 186.253685 234.880407 
L 189.533024 234.880407 
L 192.812363 234.880407 
L 196.091702 234.880407 
L 199.371041 234.880407 
L 202.65038 234.880407 
L 205.929718 234.880407 
L 209.209057 234.880407 
L 212.488396 234.880407 
L 215.767735 234.880407 
L 219.047074 234.880407 
L 222.326413 234.880407 
L 225.605752 234.880407 
L 228.88509 234.880407 
L 232.164429 234.880407 
L 235.443768 234.880407 
L 238.723107 234.880407 
L 242.002446 234.880407 
L 245.281785 234.880407 
L 248.561123 234.880407 
L 251.840462 234.880407 
L 255.119801 234.880407 
L 258.39914 234.880407 
L 261.678479 234.880407 
L 264.957818 234.880407 
L 268.237157 234.880407 
L 271.516495 234.880407 
L 274.795834 234.880407 
L 278.075173 234.880407 
L 281.354512 234.880407 
L 284.633851 234.880407 
L 287.91319 234.880407 
L 291.192528 234.880407 
L 294.471867 234.880407 
L 297.751206 234.880407 
L 301.030545 234.880407 
L 304.309884 234.880407 
L 307.589223 234.880407 
L 310.868561 234.880407 
L 314.1479 234.880407 
L 317.427239 234.880407 
L 320.706578 234.880407 
L 323.985917 234.880407 
L 327.265256 234.880407 
L 330.544595 234.880407 
L 333.823933 234.880407 
L 337.103272 234.880407 
L 340.382611 234.880407 
L 343.66195 234.880407 
L 346.941289 234.880407 
L 350.220628 234.880407 
L 353.499966 234.880407 
L 356.779305 234.880407 
L 360.058644 234.880407 
L 363.337983 234.880407 
L 366.617322 234.880407 
L 369.896661 234.880407 
L 373.175999 234.880407 
L 376.455338 234.880407 
L 379.734677 234.880407 
L 383.014016 234.880407 
L 386.293355 234.880407 
L 389.572694 234.880407 
L 392.852033 234.880407 
L 396.131371 234.880407 
L 399.41071 234.880407 
L 399.41071 225.845372 
L 399.41071 225.845372 
L 396.131371 237.694671 
L 392.852033 241.901625 
L 389.572694 241.628653 
L 386.293355 239.112357 
L 383.014016 235.863098 
L 379.734677 232.832595 
L 376.455338 230.553303 
L 373.175999 229.252997 
L 369.896661 228.947725 
L 366.617322 229.51599 
L 363.337983 230.756783 
L 360.058644 232.433837 
L 356.779305 234.30823 
L 353.499966 236.161265 
L 350.220628 237.809343 
L 346.941289 239.112341 
L 343.66195 239.976864 
L 340.382611 240.355524 
L 337.103272 240.24329 
L 333.823933 239.67179 
L 330.544595 238.702299 
L 327.265256 237.418069 
L 323.985917 235.916493 
L 320.706578 234.301544 
L 317.427239 232.676795 
L 314.1479 231.139281 
L 310.868561 229.774365 
L 307.589223 228.65172 
L 304.309884 227.822468 
L 301.030545 227.317489 
L 297.751206 227.146847 
L 294.471867 227.30026 
L 291.192528 227.748521 
L 287.91319 228.445715 
L 284.633851 229.332123 
L 281.354512 230.337626 
L 278.075173 231.385471 
L 274.795834 232.396223 
L 271.516495 233.291746 
L 268.237157 233.99906 
L 264.957818 234.453932 
L 261.678479 234.604055 
L 258.39914 234.411729 
L 255.119801 233.855911 
L 251.840462 232.933578 
L 248.561123 231.660347 
L 245.281785 230.070303 
L 242.002446 228.215034 
L 238.723107 234.877303 
L 235.443768 234.878217 
L 232.164429 221.437987 
L 228.88509 219.714283 
L 225.605752 218.166644 
L 222.326413 216.872849 
L 219.047074 215.903141 
L 215.767735 215.316044 
L 212.488396 215.154271 
L 209.209057 215.440894 
L 205.929718 216.175924 
L 202.65038 217.333469 
L 199.371041 218.859632 
L 196.091702 220.671295 
L 192.812363 222.655952 
L 189.533024 224.672709 
L 186.253685 226.554574 
L 182.974347 228.112116 
L 179.695008 229.138568 
L 176.415669 229.416381 
L 173.13633 228.725231 
L 169.856991 226.85139 
L 166.577652 223.598358 
L 163.298314 218.798572 
L 160.018975 212.325924 
L 156.739636 204.108769 
L 153.460297 194.14301 
L 150.180958 182.504728 
L 146.901619 169.361771 
L 143.62228 154.983541 
L 140.342942 139.748166 
L 137.063603 124.146041 
L 133.784264 108.778639 
L 130.504925 94.351302 
L 127.225586 81.658588 
L 123.946247 71.560533 
L 120.666909 64.948066 
L 117.38757 62.695539 
L 114.108231 65.598204 
L 110.828892 74.292172 
L 107.549553 89.154215 
L 104.270214 110.178485 
L 100.990876 136.82698 
L 97.711537 167.850303 
L 94.432198 201.074976 
L 91.152859 233.153273 
L 87.87352 259.271192 
L 84.594181 272.809884 
L 81.314842 264.955493 
L 78.035504 224.251982 
L 74.756165 136.091177 
z
" clip-path="url(#p85039d4ae2)" style="fill: #d62728; fill-opacity: 0.166667"/>
   </g>
   <g id="PolyCollection_5">
    <path d="M 74.756165 159.674281 
L 74.756165 234.880407 
L 77.146571 234.880407 
L 79.536977 234.880407 
L 81.927383 234.880407 
L 84.317789 234.880407 
L 86.708195 234.880407 
L 89.098601 234.880407 
L 91.489007 234.880407 
L 93.879413 234.880407 
L 96.269819 234.880407 
L 98.660225 234.880407 
L 101.050631 234.880407 
L 103.441037 234.880407 
L 105.831443 234.880407 
L 108.221849 234.880407 
L 110.612255 234.880407 
L 113.002661 234.880407 
L 115.393067 234.880407 
L 117.783473 234.880407 
L 120.173879 234.880407 
L 122.564285 234.880407 
L 124.954691 234.880407 
L 127.345097 234.880407 
L 129.735503 234.880407 
L 132.125909 234.880407 
L 134.516315 234.880407 
L 136.906721 234.880407 
L 139.297127 234.880407 
L 141.687533 234.880407 
L 144.077939 234.880407 
L 146.468345 234.880407 
L 148.858751 234.880407 
L 151.249157 234.880407 
L 153.639563 234.880407 
L 156.029969 234.880407 
L 158.420375 234.880407 
L 160.810781 234.880407 
L 163.201187 234.880407 
L 165.591593 234.880407 
L 167.981999 234.880407 
L 170.372405 234.880407 
L 172.762811 234.880407 
L 175.153217 234.880407 
L 177.543623 234.880407 
L 179.934029 234.880407 
L 182.324435 234.880407 
L 184.714842 234.880407 
L 187.105248 234.880407 
L 189.495654 234.880407 
L 191.88606 234.880407 
L 194.276466 234.880407 
L 196.666872 234.880407 
L 199.057278 234.880407 
L 201.447684 234.880407 
L 203.83809 234.880407 
L 206.228496 234.880407 
L 208.618902 234.880407 
L 211.009308 234.880407 
L 213.399714 234.880407 
L 215.79012 234.880407 
L 218.180526 234.880407 
L 220.570932 234.880407 
L 222.961338 234.880407 
L 225.351744 234.880407 
L 227.74215 234.880407 
L 230.132556 234.880407 
L 232.522962 234.880407 
L 234.913368 234.880407 
L 237.303774 234.880407 
L 239.69418 234.880407 
L 242.084586 234.880407 
L 244.474992 234.880407 
L 246.865398 234.880407 
L 249.255804 234.880407 
L 251.64621 234.880407 
L 254.036616 234.880407 
L 256.427022 234.880407 
L 258.817428 234.880407 
L 261.207834 234.880407 
L 263.59824 234.880407 
L 265.988646 234.880407 
L 268.379052 234.880407 
L 270.769458 234.880407 
L 273.159864 234.880407 
L 275.55027 234.880407 
L 277.940676 234.880407 
L 280.331082 234.880407 
L 282.721488 234.880407 
L 285.111894 234.880407 
L 287.5023 234.880407 
L 289.892706 234.880407 
L 292.283112 234.880407 
L 294.673518 234.880407 
L 297.063924 234.880407 
L 299.45433 234.880407 
L 301.844736 234.880407 
L 304.235142 234.880407 
L 306.625548 234.880407 
L 309.015954 234.880407 
L 311.40636 234.880407 
L 311.40636 237.190415 
L 311.40636 237.190415 
L 309.015954 234.441271 
L 306.625548 233.060773 
L 304.235142 232.619168 
L 301.844736 232.77526 
L 299.45433 233.264782 
L 297.063924 233.889505 
L 294.673518 234.507137 
L 292.283112 235.022007 
L 289.892706 235.376587 
L 287.5023 235.543808 
L 285.111894 235.52021 
L 282.721488 235.319873 
L 280.331082 234.969131 
L 277.940676 234.50202 
L 275.55027 233.956454 
L 273.159864 233.371049 
L 270.769458 232.782594 
L 268.379052 232.224087 
L 265.988646 231.723312 
L 263.59824 231.30189 
L 261.207834 230.974762 
L 258.817428 230.750041 
L 256.427022 230.629196 
L 254.036616 230.607497 
L 251.64621 230.674689 
L 249.255804 230.815829 
L 246.865398 231.012251 
L 244.474992 231.242613 
L 242.084586 231.483973 
L 239.69418 231.712872 
L 237.303774 231.906379 
L 234.913368 232.043058 
L 232.522962 232.103855 
L 230.132556 232.07285 
L 227.74215 231.937875 
L 225.351744 231.69098 
L 222.961338 231.328726 
L 220.570932 230.852309 
L 218.180526 230.267504 
L 215.79012 229.58444 
L 213.399714 228.8172 
L 211.009308 227.983266 
L 208.618902 227.102818 
L 206.228496 226.197907 
L 203.83809 225.291511 
L 201.447684 224.406524 
L 199.057278 223.564669 
L 196.666872 222.785397 
L 194.276466 234.878854 
L 191.88606 234.879002 
L 189.495654 220.530869 
L 187.105248 220.196452 
L 184.714842 219.970602 
L 182.324435 219.833417 
L 179.934029 219.756087 
L 177.543623 219.700988 
L 175.153217 219.622066 
L 172.762811 219.465537 
L 170.372405 219.1709 
L 167.981999 218.672284 
L 165.591593 217.900112 
L 163.201187 216.783087 
L 160.810781 215.250471 
L 158.420375 213.234643 
L 156.029969 210.673896 
L 153.639563 207.515434 
L 151.249157 203.718512 
L 148.858751 199.257661 
L 146.468345 194.125907 
L 144.077939 188.337922 
L 141.687533 181.932978 
L 139.297127 174.977607 
L 136.906721 167.567833 
L 134.516315 159.830828 
L 132.125909 151.925839 
L 129.735503 144.044203 
L 127.345097 136.408261 
L 124.954691 129.268949 
L 122.564285 122.901854 
L 120.173879 117.601464 
L 117.783473 113.673356 
L 115.393067 111.424018 
L 113.002661 111.148008 
L 110.612255 113.112092 
L 108.221849 117.53602 
L 105.831443 124.569548 
L 103.441037 134.265291 
L 101.050631 146.546983 
L 98.660225 161.172678 
L 96.269819 177.692393 
L 93.879413 195.399689 
L 91.489007 213.276636 
L 89.098601 229.931581 
L 86.708195 243.529117 
L 84.317789 251.711608 
L 81.927383 251.511599 
L 79.536977 239.2544 
L 77.146571 210.450107 
L 74.756165 159.674281 
z
" clip-path="url(#p85039d4ae2)" style="fill: #9467bd; fill-opacity: 0.166667"/>
   </g>
   <g id="PolyCollection_6">
    <path d="M 74.756165 160.52455 
L 74.756165 234.880407 
L 77.345379 234.880407 
L 79.934594 234.880407 
L 82.523808 234.880407 
L 85.113023 234.880407 
L 87.702237 234.880407 
L 90.291451 234.880407 
L 92.880666 234.880407 
L 95.46988 234.880407 
L 98.059095 234.880407 
L 100.648309 234.880407 
L 103.237524 234.880407 
L 105.826738 234.880407 
L 108.415953 234.880407 
L 111.005167 234.880407 
L 113.594381 234.880407 
L 116.183596 234.880407 
L 118.77281 234.880407 
L 121.362025 234.880407 
L 123.951239 234.880407 
L 126.540454 234.880407 
L 129.129668 234.880407 
L 131.718883 234.880407 
L 134.308097 234.880407 
L 136.897312 234.880407 
L 139.486526 234.880407 
L 142.07574 234.880407 
L 144.664955 234.880407 
L 147.254169 234.880407 
L 149.843384 234.880407 
L 152.432598 234.880407 
L 155.021813 234.880407 
L 157.611027 234.880407 
L 160.200242 234.880407 
L 162.789456 234.880407 
L 165.37867 234.880407 
L 167.967885 234.880407 
L 170.557099 234.880407 
L 173.146314 234.880407 
L 175.735528 234.880407 
L 178.324743 234.880407 
L 180.913957 234.880407 
L 183.503172 234.880407 
L 186.092386 234.880407 
L 188.6816 234.880407 
L 191.270815 234.880407 
L 193.860029 234.880407 
L 196.449244 234.880407 
L 199.038458 234.880407 
L 201.627673 234.880407 
L 204.216887 234.880407 
L 206.806102 234.880407 
L 209.395316 234.880407 
L 211.98453 234.880407 
L 214.573745 234.880407 
L 217.162959 234.880407 
L 219.752174 234.880407 
L 222.341388 234.880407 
L 224.930603 234.880407 
L 227.519817 234.880407 
L 230.109032 234.880407 
L 232.698246 234.880407 
L 235.28746 234.880407 
L 237.876675 234.880407 
L 240.465889 234.880407 
L 243.055104 234.880407 
L 245.644318 234.880407 
L 248.233533 234.880407 
L 250.822747 234.880407 
L 253.411962 234.880407 
L 256.001176 234.880407 
L 258.590391 234.880407 
L 261.179605 234.880407 
L 263.768819 234.880407 
L 266.358034 234.880407 
L 268.947248 234.880407 
L 271.536463 234.880407 
L 274.125677 234.880407 
L 276.714892 234.880407 
L 279.304106 234.880407 
L 281.893321 234.880407 
L 284.482535 234.880407 
L 287.071749 234.880407 
L 289.660964 234.880407 
L 292.250178 234.880407 
L 294.839393 234.880407 
L 297.428607 234.880407 
L 300.017822 234.880407 
L 302.607036 234.880407 
L 305.196251 234.880407 
L 307.785465 234.880407 
L 310.374679 234.880407 
L 312.963894 234.880407 
L 315.553108 234.880407 
L 318.142323 234.880407 
L 320.731537 234.880407 
L 323.320752 234.880407 
L 325.909966 234.880407 
L 328.499181 234.880407 
L 331.088395 234.880407 
L 331.088395 228.735398 
L 331.088395 228.735398 
L 328.499181 237.110498 
L 325.909966 239.853278 
L 323.320752 239.382474 
L 320.731537 237.38456 
L 318.142323 234.975669 
L 315.553108 232.837059 
L 312.963894 231.327303 
L 310.374679 230.574068 
L 307.785465 230.548116 
L 305.196251 231.12194 
L 302.607036 232.115211 
L 300.017822 233.329018 
L 297.428607 234.570664 
L 294.839393 235.670628 
L 292.250178 236.493114 
L 289.660964 236.941438 
L 287.071749 236.959366 
L 284.482535 236.529386 
L 281.893321 235.668733 
L 279.304106 234.423909 
L 276.714892 232.864286 
L 274.125677 231.075315 
L 271.536463 229.151758 
L 268.947248 227.191252 
L 266.358034 225.288495 
L 263.768819 223.530208 
L 261.179605 221.991016 
L 258.590391 220.730322 
L 256.001176 219.790194 
L 253.411962 219.194251 
L 250.822747 218.947501 
L 248.233533 219.037063 
L 245.644318 219.433659 
L 243.055104 220.093771 
L 240.465889 220.96233 
L 237.876675 221.975804 
L 235.28746 223.065538 
L 232.698246 224.161209 
L 230.109032 225.194261 
L 227.519817 226.101181 
L 224.930603 226.826511 
L 222.341388 227.325462 
L 219.752174 227.566066 
L 217.162959 227.530759 
L 214.573745 227.217356 
L 211.98453 226.639363 
L 209.395316 225.825606 
L 206.806102 224.819183 
L 204.216887 234.877328 
L 201.627673 234.878485 
L 199.038458 220.3778 
L 196.449244 219.76884 
L 193.860029 219.345551 
L 191.270815 219.155735 
L 188.6816 219.238104 
L 186.092386 219.619179 
L 183.503172 220.310369 
L 180.913957 221.305369 
L 178.324743 222.577974 
L 175.735528 224.080458 
L 173.146314 225.742612 
L 170.557099 227.471579 
L 167.967885 229.152559 
L 165.37867 230.650503 
L 162.789456 231.812845 
L 160.200242 232.473334 
L 157.611027 232.456992 
L 155.021813 231.586187 
L 152.432598 229.687783 
L 149.843384 226.601298 
L 147.254169 222.187929 
L 144.664955 216.340279 
L 142.07574 208.992561 
L 139.486526 200.130968 
L 136.897312 189.803866 
L 134.308097 178.131362 
L 131.718883 165.31373 
L 129.129668 151.638099 
L 126.540454 137.482681 
L 123.951239 123.317757 
L 121.362025 109.702484 
L 118.77281 97.276507 
L 116.183596 86.745197 
L 113.594381 78.857236 
L 111.005167 74.373097 
L 108.415953 74.022829 
L 105.826738 78.451399 
L 103.237524 88.149656 
L 100.648309 103.368825 
L 98.059095 124.01622 
L 95.46988 149.529694 
L 92.880666 178.728105 
L 90.291451 209.63489 
L 87.702237 239.271561 
L 85.113023 263.417752 
L 82.523808 276.334125 
L 79.934594 270.444249 
L 77.345379 235.971218 
L 74.756165 160.52455 
z
" clip-path="url(#p85039d4ae2)" style="fill: #8c564b; fill-opacity: 0.166667"/>
   </g>
   <g id="matplotlib.axis_1">
    <g id="xtick_1">
     <g id="line2d_1">
      <defs>
       <path id="mcd7b71e44e" d="M 0 0 
L 0 3.5 
" style="stroke: #000000; stroke-width: 0.8"/>
      </defs>
      <g>
       <use xlink:href="#mcd7b71e44e" x="74.756165" y="288.430125" style="stroke: #000000; stroke-width: 0.8"/>
      </g>
     </g>
     <g id="text_1">
      <!-- 0.0000 -->
      <g transform="translate(57.260852 303.028562) scale(0.1 -0.1)">
       <defs>
        <path id="DejaVuSans-30" d="M 2034 4250 
Q 1547 4250 1301 3770 
Q 1056 3291 1056 2328 
Q 1056 1369 1301 889 
Q 1547 409 2034 409 
Q 2525 409 2770 889 
Q 3016 1369 3016 2328 
Q 3016 3291 2770 3770 
Q 2525 4250 2034 4250 
z
M 2034 4750 
Q 2819 4750 3233 4129 
Q 3647 3509 3647 2328 
Q 3647 1150 3233 529 
Q 2819 -91 2034 -91 
Q 1250 -91 836 529 
Q 422 1150 422 2328 
Q 422 3509 836 4129 
Q 1250 4750 2034 4750 
z
" transform="scale(0.015625)"/>
        <path id="DejaVuSans-2e" d="M 684 794 
L 1344 794 
L 1344 0 
L 684 0 
L 684 794 
z
" transform="scale(0.015625)"/>
       </defs>
       <use xlink:href="#DejaVuSans-30"/>
       <use xlink:href="#DejaVuSans-2e" x="63.623047"/>
       <use xlink:href="#DejaVuSans-30" x="95.410156"/>
       <use xlink:href="#DejaVuSans-30" x="159.033203"/>
       <use xlink:href="#DejaVuSans-30" x="222.65625"/>
       <use xlink:href="#DejaVuSans-30" x="286.279297"/>
      </g>
     </g>
    </g>
    <g id="xtick_2">
     <g id="line2d_2">
      <g>
       <use xlink:href="#mcd7b71e44e" x="140.081682" y="288.430125" style="stroke: #000000; stroke-width: 0.8"/>
      </g>
     </g>
     <g id="text_2">
      <!-- 0.0005 -->
      <g transform="translate(122.586369 303.028562) scale(0.1 -0.1)">
       <defs>
        <path id="DejaVuSans-35" d="M 691 4666 
L 3169 4666 
L 3169 4134 
L 1269 4134 
L 1269 2991 
Q 1406 3038 1543 3061 
Q 1681 3084 1819 3084 
Q 2600 3084 3056 2656 
Q 3513 2228 3513 1497 
Q 3513 744 3044 326 
Q 2575 -91 1722 -91 
Q 1428 -91 1123 -41 
Q 819 9 494 109 
L 494 744 
Q 775 591 1075 516 
Q 1375 441 1709 441 
Q 2250 441 2565 725 
Q 2881 1009 2881 1497 
Q 2881 1984 2565 2268 
Q 2250 2553 1709 2553 
Q 1456 2553 1204 2497 
Q 953 2441 691 2322 
L 691 4666 
z
" transform="scale(0.015625)"/>
       </defs>
       <use xlink:href="#DejaVuSans-30"/>
       <use xlink:href="#DejaVuSans-2e" x="63.623047"/>
       <use xlink:href="#DejaVuSans-30" x="95.410156"/>
       <use xlink:href="#DejaVuSans-30" x="159.033203"/>
       <use xlink:href="#DejaVuSans-30" x="222.65625"/>
       <use xlink:href="#DejaVuSans-35" x="286.279297"/>
      </g>
     </g>
    </g>
    <g id="xtick_3">
     <g id="line2d_3">
      <g>
       <use xlink:href="#mcd7b71e44e" x="205.407198" y="288.430125" style="stroke: #000000; stroke-width: 0.8"/>
      </g>
     </g>
     <g id="text_3">
      <!-- 0.0010 -->
      <g transform="translate(187.911886 303.028562) scale(0.1 -0.1)">
       <defs>
        <path id="DejaVuSans-31" d="M 794 531 
L 1825 531 
L 1825 4091 
L 703 3866 
L 703 4441 
L 1819 4666 
L 2450 4666 
L 2450 531 
L 3481 531 
L 3481 0 
L 794 0 
L 794 531 
z
" transform="scale(0.015625)"/>
       </defs>
       <use xlink:href="#DejaVuSans-30"/>
       <use xlink:href="#DejaVuSans-2e" x="63.623047"/>
       <use xlink:href="#DejaVuSans-30" x="95.410156"/>
       <use xlink:href="#DejaVuSans-30" x="159.033203"/>
       <use xlink:href="#DejaVuSans-31" x="222.65625"/>
       <use xlink:href="#DejaVuSans-30" x="286.279297"/>
      </g>
     </g>
    </g>
    <g id="xtick_4">
     <g id="line2d_4">
      <g>
       <use xlink:href="#mcd7b71e44e" x="270.732715" y="288.430125" style="stroke: #000000; stroke-width: 0.8"/>
      </g>
     </g>
     <g id="text_4">
      <!-- 0.0015 -->
      <g transform="translate(253.237403 303.028562) scale(0.1 -0.1)">
       <use xlink:href="#DejaVuSans-30"/>
       <use xlink:href="#DejaVuSans-2e" x="63.623047"/>
       <use xlink:href="#DejaVuSans-30" x="95.410156"/>
       <use xlink:href="#DejaVuSans-30" x="159.033203"/>
       <use xlink:href="#DejaVuSans-31" x="222.65625"/>
       <use xlink:href="#DejaVuSans-35" x="286.279297"/>
      </g>
     </g>
    </g>
    <g id="xtick_5">
     <g id="line2d_5">
      <g>
       <use xlink:href="#mcd7b71e44e" x="336.058232" y="288.430125" style="stroke: #000000; stroke-width: 0.8"/>
      </g>
     </g>
     <g id="text_5">
      <!-- 0.0020 -->
      <g transform="translate(318.56292 303.028562) scale(0.1 -0.1)">
       <defs>
        <path id="DejaVuSans-32" d="M 1228 531 
L 3431 531 
L 3431 0 
L 469 0 
L 469 531 
Q 828 903 1448 1529 
Q 2069 2156 2228 2338 
Q 2531 2678 2651 2914 
Q 2772 3150 2772 3378 
Q 2772 3750 2511 3984 
Q 2250 4219 1831 4219 
Q 1534 4219 1204 4116 
Q 875 4013 500 3803 
L 500 4441 
Q 881 4594 1212 4672 
Q 1544 4750 1819 4750 
Q 2544 4750 2975 4387 
Q 3406 4025 3406 3419 
Q 3406 3131 3298 2873 
Q 3191 2616 2906 2266 
Q 2828 2175 2409 1742 
Q 1991 1309 1228 531 
z
" transform="scale(0.015625)"/>
       </defs>
       <use xlink:href="#DejaVuSans-30"/>
       <use xlink:href="#DejaVuSans-2e" x="63.623047"/>
       <use xlink:href="#DejaVuSans-30" x="95.410156"/>
       <use xlink:href="#DejaVuSans-30" x="159.033203"/>
       <use xlink:href="#DejaVuSans-32" x="222.65625"/>
       <use xlink:href="#DejaVuSans-30" x="286.279297"/>
      </g>
     </g>
    </g>
    <g id="xtick_6">
     <g id="line2d_6">
      <g>
       <use xlink:href="#mcd7b71e44e" x="401.383749" y="288.430125" style="stroke: #000000; stroke-width: 0.8"/>
      </g>
     </g>
     <g id="text_6">
      <!-- 0.0025 -->
      <g transform="translate(383.888437 303.028562) scale(0.1 -0.1)">
       <use xlink:href="#DejaVuSans-30"/>
       <use xlink:href="#DejaVuSans-2e" x="63.623047"/>
       <use xlink:href="#DejaVuSans-30" x="95.410156"/>
       <use xlink:href="#DejaVuSans-30" x="159.033203"/>
       <use xlink:href="#DejaVuSans-32" x="222.65625"/>
       <use xlink:href="#DejaVuSans-35" x="286.279297"/>
      </g>
     </g>
    </g>
    <g id="text_7">
     <!-- Pixel values -->
     <g transform="translate(207.671719 316.706687) scale(0.1 -0.1)">
      <defs>
       <path id="DejaVuSans-50" d="M 1259 4147 
L 1259 2394 
L 2053 2394 
Q 2494 2394 2734 2622 
Q 2975 2850 2975 3272 
Q 2975 3691 2734 3919 
Q 2494 4147 2053 4147 
L 1259 4147 
z
M 628 4666 
L 2053 4666 
Q 2838 4666 3239 4311 
Q 3641 3956 3641 3272 
Q 3641 2581 3239 2228 
Q 2838 1875 2053 1875 
L 1259 1875 
L 1259 0 
L 628 0 
L 628 4666 
z
" transform="scale(0.015625)"/>
       <path id="DejaVuSans-69" d="M 603 3500 
L 1178 3500 
L 1178 0 
L 603 0 
L 603 3500 
z
M 603 4863 
L 1178 4863 
L 1178 4134 
L 603 4134 
L 603 4863 
z
" transform="scale(0.015625)"/>
       <path id="DejaVuSans-78" d="M 3513 3500 
L 2247 1797 
L 3578 0 
L 2900 0 
L 1881 1375 
L 863 0 
L 184 0 
L 1544 1831 
L 300 3500 
L 978 3500 
L 1906 2253 
L 2834 3500 
L 3513 3500 
z
" transform="scale(0.015625)"/>
       <path id="DejaVuSans-65" d="M 3597 1894 
L 3597 1613 
L 953 1613 
Q 991 1019 1311 708 
Q 1631 397 2203 397 
Q 2534 397 2845 478 
Q 3156 559 3463 722 
L 3463 178 
Q 3153 47 2828 -22 
Q 2503 -91 2169 -91 
Q 1331 -91 842 396 
Q 353 884 353 1716 
Q 353 2575 817 3079 
Q 1281 3584 2069 3584 
Q 2775 3584 3186 3129 
Q 3597 2675 3597 1894 
z
M 3022 2063 
Q 3016 2534 2758 2815 
Q 2500 3097 2075 3097 
Q 1594 3097 1305 2825 
Q 1016 2553 972 2059 
L 3022 2063 
z
" transform="scale(0.015625)"/>
       <path id="DejaVuSans-6c" d="M 603 4863 
L 1178 4863 
L 1178 0 
L 603 0 
L 603 4863 
z
" transform="scale(0.015625)"/>
       <path id="DejaVuSans-20" transform="scale(0.015625)"/>
       <path id="DejaVuSans-76" d="M 191 3500 
L 800 3500 
L 1894 563 
L 2988 3500 
L 3597 3500 
L 2284 0 
L 1503 0 
L 191 3500 
z
" transform="scale(0.015625)"/>
       <path id="DejaVuSans-61" d="M 2194 1759 
Q 1497 1759 1228 1600 
Q 959 1441 959 1056 
Q 959 750 1161 570 
Q 1363 391 1709 391 
Q 2188 391 2477 730 
Q 2766 1069 2766 1631 
L 2766 1759 
L 2194 1759 
z
M 3341 1997 
L 3341 0 
L 2766 0 
L 2766 531 
Q 2569 213 2275 61 
Q 1981 -91 1556 -91 
Q 1019 -91 701 211 
Q 384 513 384 1019 
Q 384 1609 779 1909 
Q 1175 2209 1959 2209 
L 2766 2209 
L 2766 2266 
Q 2766 2663 2505 2880 
Q 2244 3097 1772 3097 
Q 1472 3097 1187 3025 
Q 903 2953 641 2809 
L 641 3341 
Q 956 3463 1253 3523 
Q 1550 3584 1831 3584 
Q 2591 3584 2966 3190 
Q 3341 2797 3341 1997 
z
" transform="scale(0.015625)"/>
       <path id="DejaVuSans-75" d="M 544 1381 
L 544 3500 
L 1119 3500 
L 1119 1403 
Q 1119 906 1312 657 
Q 1506 409 1894 409 
Q 2359 409 2629 706 
Q 2900 1003 2900 1516 
L 2900 3500 
L 3475 3500 
L 3475 0 
L 2900 0 
L 2900 538 
Q 2691 219 2414 64 
Q 2138 -91 1772 -91 
Q 1169 -91 856 284 
Q 544 659 544 1381 
z
M 1991 3584 
L 1991 3584 
z
" transform="scale(0.015625)"/>
       <path id="DejaVuSans-73" d="M 2834 3397 
L 2834 2853 
Q 2591 2978 2328 3040 
Q 2066 3103 1784 3103 
Q 1356 3103 1142 2972 
Q 928 2841 928 2578 
Q 928 2378 1081 2264 
Q 1234 2150 1697 2047 
L 1894 2003 
Q 2506 1872 2764 1633 
Q 3022 1394 3022 966 
Q 3022 478 2636 193 
Q 2250 -91 1575 -91 
Q 1294 -91 989 -36 
Q 684 19 347 128 
L 347 722 
Q 666 556 975 473 
Q 1284 391 1588 391 
Q 1994 391 2212 530 
Q 2431 669 2431 922 
Q 2431 1156 2273 1281 
Q 2116 1406 1581 1522 
L 1381 1569 
Q 847 1681 609 1914 
Q 372 2147 372 2553 
Q 372 3047 722 3315 
Q 1072 3584 1716 3584 
Q 2034 3584 2315 3537 
Q 2597 3491 2834 3397 
z
" transform="scale(0.015625)"/>
      </defs>
      <use xlink:href="#DejaVuSans-50"/>
      <use xlink:href="#DejaVuSans-69" x="58.052734"/>
      <use xlink:href="#DejaVuSans-78" x="85.835938"/>
      <use xlink:href="#DejaVuSans-65" x="141.890625"/>
      <use xlink:href="#DejaVuSans-6c" x="203.414062"/>
      <use xlink:href="#DejaVuSans-20" x="231.197266"/>
      <use xlink:href="#DejaVuSans-76" x="262.984375"/>
      <use xlink:href="#DejaVuSans-61" x="322.164062"/>
      <use xlink:href="#DejaVuSans-6c" x="383.443359"/>
      <use xlink:href="#DejaVuSans-75" x="411.226562"/>
      <use xlink:href="#DejaVuSans-65" x="474.605469"/>
      <use xlink:href="#DejaVuSans-73" x="536.128906"/>
     </g>
    </g>
   </g>
   <g id="matplotlib.axis_2">
    <g id="ytick_1">
     <g id="line2d_7">
      <defs>
       <path id="mf6b89cc1cf" d="M 0 0 
L -3.5 0 
" style="stroke: #000000; stroke-width: 0.8"/>
      </defs>
      <g>
       <use xlink:href="#mf6b89cc1cf" x="58.523438" y="287.809597" style="stroke: #000000; stroke-width: 0.8"/>
      </g>
     </g>
     <g id="text_8">
      <!-- −0.02 -->
      <g transform="translate(20.878125 291.608816) scale(0.1 -0.1)">
       <defs>
        <path id="DejaVuSans-2212" d="M 678 2272 
L 4684 2272 
L 4684 1741 
L 678 1741 
L 678 2272 
z
" transform="scale(0.015625)"/>
       </defs>
       <use xlink:href="#DejaVuSans-2212"/>
       <use xlink:href="#DejaVuSans-30" x="83.789062"/>
       <use xlink:href="#DejaVuSans-2e" x="147.412109"/>
       <use xlink:href="#DejaVuSans-30" x="179.199219"/>
       <use xlink:href="#DejaVuSans-32" x="242.822266"/>
      </g>
     </g>
    </g>
    <g id="ytick_2">
     <g id="line2d_8">
      <g>
       <use xlink:href="#mf6b89cc1cf" x="58.523438" y="234.880407" style="stroke: #000000; stroke-width: 0.8"/>
      </g>
     </g>
     <g id="text_9">
      <!-- 0.00 -->
      <g transform="translate(29.257813 238.679626) scale(0.1 -0.1)">
       <use xlink:href="#DejaVuSans-30"/>
       <use xlink:href="#DejaVuSans-2e" x="63.623047"/>
       <use xlink:href="#DejaVuSans-30" x="95.410156"/>
       <use xlink:href="#DejaVuSans-30" x="159.033203"/>
      </g>
     </g>
    </g>
    <g id="ytick_3">
     <g id="line2d_9">
      <g>
       <use xlink:href="#mf6b89cc1cf" x="58.523438" y="181.951217" style="stroke: #000000; stroke-width: 0.8"/>
      </g>
     </g>
     <g id="text_10">
      <!-- 0.02 -->
      <g transform="translate(29.257813 185.750436) scale(0.1 -0.1)">
       <use xlink:href="#DejaVuSans-30"/>
       <use xlink:href="#DejaVuSans-2e" x="63.623047"/>
       <use xlink:href="#DejaVuSans-30" x="95.410156"/>
       <use xlink:href="#DejaVuSans-32" x="159.033203"/>
      </g>
     </g>
    </g>
    <g id="ytick_4">
     <g id="line2d_10">
      <g>
       <use xlink:href="#mf6b89cc1cf" x="58.523438" y="129.022027" style="stroke: #000000; stroke-width: 0.8"/>
      </g>
     </g>
     <g id="text_11">
      <!-- 0.04 -->
      <g transform="translate(29.257813 132.821246) scale(0.1 -0.1)">
       <defs>
        <path id="DejaVuSans-34" d="M 2419 4116 
L 825 1625 
L 2419 1625 
L 2419 4116 
z
M 2253 4666 
L 3047 4666 
L 3047 1625 
L 3713 1625 
L 3713 1100 
L 3047 1100 
L 3047 0 
L 2419 0 
L 2419 1100 
L 313 1100 
L 313 1709 
L 2253 4666 
z
" transform="scale(0.015625)"/>
       </defs>
       <use xlink:href="#DejaVuSans-30"/>
       <use xlink:href="#DejaVuSans-2e" x="63.623047"/>
       <use xlink:href="#DejaVuSans-30" x="95.410156"/>
       <use xlink:href="#DejaVuSans-34" x="159.033203"/>
      </g>
     </g>
    </g>
    <g id="ytick_5">
     <g id="line2d_11">
      <g>
       <use xlink:href="#mf6b89cc1cf" x="58.523438" y="76.092837" style="stroke: #000000; stroke-width: 0.8"/>
      </g>
     </g>
     <g id="text_12">
      <!-- 0.06 -->
      <g transform="translate(29.257813 79.892056) scale(0.1 -0.1)">
       <defs>
        <path id="DejaVuSans-36" d="M 2113 2584 
Q 1688 2584 1439 2293 
Q 1191 2003 1191 1497 
Q 1191 994 1439 701 
Q 1688 409 2113 409 
Q 2538 409 2786 701 
Q 3034 994 3034 1497 
Q 3034 2003 2786 2293 
Q 2538 2584 2113 2584 
z
M 3366 4563 
L 3366 3988 
Q 3128 4100 2886 4159 
Q 2644 4219 2406 4219 
Q 1781 4219 1451 3797 
Q 1122 3375 1075 2522 
Q 1259 2794 1537 2939 
Q 1816 3084 2150 3084 
Q 2853 3084 3261 2657 
Q 3669 2231 3669 1497 
Q 3669 778 3244 343 
Q 2819 -91 2113 -91 
Q 1303 -91 875 529 
Q 447 1150 447 2328 
Q 447 3434 972 4092 
Q 1497 4750 2381 4750 
Q 2619 4750 2861 4703 
Q 3103 4656 3366 4563 
z
" transform="scale(0.015625)"/>
       </defs>
       <use xlink:href="#DejaVuSans-30"/>
       <use xlink:href="#DejaVuSans-2e" x="63.623047"/>
       <use xlink:href="#DejaVuSans-30" x="95.410156"/>
       <use xlink:href="#DejaVuSans-36" x="159.033203"/>
      </g>
     </g>
    </g>
    <g id="ytick_6">
     <g id="line2d_12">
      <g>
       <use xlink:href="#mf6b89cc1cf" x="58.523438" y="23.163647" style="stroke: #000000; stroke-width: 0.8"/>
      </g>
     </g>
     <g id="text_13">
      <!-- 0.08 -->
      <g transform="translate(29.257813 26.962866) scale(0.1 -0.1)">
       <defs>
        <path id="DejaVuSans-38" d="M 2034 2216 
Q 1584 2216 1326 1975 
Q 1069 1734 1069 1313 
Q 1069 891 1326 650 
Q 1584 409 2034 409 
Q 2484 409 2743 651 
Q 3003 894 3003 1313 
Q 3003 1734 2745 1975 
Q 2488 2216 2034 2216 
z
M 1403 2484 
Q 997 2584 770 2862 
Q 544 3141 544 3541 
Q 544 4100 942 4425 
Q 1341 4750 2034 4750 
Q 2731 4750 3128 4425 
Q 3525 4100 3525 3541 
Q 3525 3141 3298 2862 
Q 3072 2584 2669 2484 
Q 3125 2378 3379 2068 
Q 3634 1759 3634 1313 
Q 3634 634 3220 271 
Q 2806 -91 2034 -91 
Q 1263 -91 848 271 
Q 434 634 434 1313 
Q 434 1759 690 2068 
Q 947 2378 1403 2484 
z
M 1172 3481 
Q 1172 3119 1398 2916 
Q 1625 2713 2034 2713 
Q 2441 2713 2670 2916 
Q 2900 3119 2900 3481 
Q 2900 3844 2670 4047 
Q 2441 4250 2034 4250 
Q 1625 4250 1398 4047 
Q 1172 3844 1172 3481 
z
" transform="scale(0.015625)"/>
       </defs>
       <use xlink:href="#DejaVuSans-30"/>
       <use xlink:href="#DejaVuSans-2e" x="63.623047"/>
       <use xlink:href="#DejaVuSans-30" x="95.410156"/>
       <use xlink:href="#DejaVuSans-38" x="159.033203"/>
      </g>
     </g>
    </g>
    <g id="text_14">
     <!-- Frequency -->
     <g transform="translate(14.798438 181.203812) rotate(-90) scale(0.1 -0.1)">
      <defs>
       <path id="DejaVuSans-46" d="M 628 4666 
L 3309 4666 
L 3309 4134 
L 1259 4134 
L 1259 2759 
L 3109 2759 
L 3109 2228 
L 1259 2228 
L 1259 0 
L 628 0 
L 628 4666 
z
" transform="scale(0.015625)"/>
       <path id="DejaVuSans-72" d="M 2631 2963 
Q 2534 3019 2420 3045 
Q 2306 3072 2169 3072 
Q 1681 3072 1420 2755 
Q 1159 2438 1159 1844 
L 1159 0 
L 581 0 
L 581 3500 
L 1159 3500 
L 1159 2956 
Q 1341 3275 1631 3429 
Q 1922 3584 2338 3584 
Q 2397 3584 2469 3576 
Q 2541 3569 2628 3553 
L 2631 2963 
z
" transform="scale(0.015625)"/>
       <path id="DejaVuSans-71" d="M 947 1747 
Q 947 1113 1208 752 
Q 1469 391 1925 391 
Q 2381 391 2643 752 
Q 2906 1113 2906 1747 
Q 2906 2381 2643 2742 
Q 2381 3103 1925 3103 
Q 1469 3103 1208 2742 
Q 947 2381 947 1747 
z
M 2906 525 
Q 2725 213 2448 61 
Q 2172 -91 1784 -91 
Q 1150 -91 751 415 
Q 353 922 353 1747 
Q 353 2572 751 3078 
Q 1150 3584 1784 3584 
Q 2172 3584 2448 3432 
Q 2725 3281 2906 2969 
L 2906 3500 
L 3481 3500 
L 3481 -1331 
L 2906 -1331 
L 2906 525 
z
" transform="scale(0.015625)"/>
       <path id="DejaVuSans-6e" d="M 3513 2113 
L 3513 0 
L 2938 0 
L 2938 2094 
Q 2938 2591 2744 2837 
Q 2550 3084 2163 3084 
Q 1697 3084 1428 2787 
Q 1159 2491 1159 1978 
L 1159 0 
L 581 0 
L 581 3500 
L 1159 3500 
L 1159 2956 
Q 1366 3272 1645 3428 
Q 1925 3584 2291 3584 
Q 2894 3584 3203 3211 
Q 3513 2838 3513 2113 
z
" transform="scale(0.015625)"/>
       <path id="DejaVuSans-63" d="M 3122 3366 
L 3122 2828 
Q 2878 2963 2633 3030 
Q 2388 3097 2138 3097 
Q 1578 3097 1268 2742 
Q 959 2388 959 1747 
Q 959 1106 1268 751 
Q 1578 397 2138 397 
Q 2388 397 2633 464 
Q 2878 531 3122 666 
L 3122 134 
Q 2881 22 2623 -34 
Q 2366 -91 2075 -91 
Q 1284 -91 818 406 
Q 353 903 353 1747 
Q 353 2603 823 3093 
Q 1294 3584 2113 3584 
Q 2378 3584 2631 3529 
Q 2884 3475 3122 3366 
z
" transform="scale(0.015625)"/>
       <path id="DejaVuSans-79" d="M 2059 -325 
Q 1816 -950 1584 -1140 
Q 1353 -1331 966 -1331 
L 506 -1331 
L 506 -850 
L 844 -850 
Q 1081 -850 1212 -737 
Q 1344 -625 1503 -206 
L 1606 56 
L 191 3500 
L 800 3500 
L 1894 763 
L 2988 3500 
L 3597 3500 
L 2059 -325 
z
" transform="scale(0.015625)"/>
      </defs>
      <use xlink:href="#DejaVuSans-46"/>
      <use xlink:href="#DejaVuSans-72" x="50.269531"/>
      <use xlink:href="#DejaVuSans-65" x="89.132812"/>
      <use xlink:href="#DejaVuSans-71" x="150.65625"/>
      <use xlink:href="#DejaVuSans-75" x="214.132812"/>
      <use xlink:href="#DejaVuSans-65" x="277.511719"/>
      <use xlink:href="#DejaVuSans-6e" x="339.035156"/>
      <use xlink:href="#DejaVuSans-63" x="402.414062"/>
      <use xlink:href="#DejaVuSans-79" x="457.394531"/>
     </g>
    </g>
   </g>
   <g id="line2d_13">
    <path d="M 74.756165 164.796209 
L 77.365866 201.61059 
L 79.975567 228.109802 
L 82.585268 244.863667 
L 85.194969 252.821504 
L 87.80467 253.177936 
L 90.414371 247.263281 
L 93.024073 236.455595 
L 95.633774 222.111643 
L 98.243475 205.51434 
L 100.853176 187.834365 
L 103.462877 170.103888 
L 106.072578 153.200528 
L 108.682279 137.839832 
L 111.29198 124.574746 
L 113.901681 113.800694 
L 116.511383 105.765052 
L 119.121084 100.57992 
L 121.730785 98.237247 
L 124.340486 98.625471 
L 126.950187 101.546959 
L 129.559888 106.735641 
L 132.169589 113.874313 
L 134.77929 122.611199 
L 137.388991 132.57542 
L 139.998693 143.391112 
L 142.608394 154.689992 
L 145.218095 166.122241 
L 147.827796 177.365616 
L 150.437497 188.132775 
L 153.047198 198.176809 
L 155.656899 207.295052 
L 158.2666 215.331233 
L 160.876301 222.176095 
L 163.486003 227.766603 
L 166.095704 232.083898 
L 168.705405 235.150152 
L 171.315106 237.024516 
L 173.924807 237.798308 
L 176.534508 237.589659 
L 179.144209 236.537761 
L 181.75391 234.796922 
L 184.363611 232.530571 
L 186.973313 229.905393 
L 189.583014 227.085726 
L 192.192715 224.228358 
L 194.802416 221.477845 
L 197.412117 218.962446 
L 200.021818 216.790758 
L 202.631519 234.882022 
L 205.24122 234.881803 
L 207.850921 213.891856 
L 210.460623 213.526809 
L 213.070324 213.655395 
L 215.680025 214.253162 
L 218.289726 215.276492 
L 220.899427 216.664979 
L 223.509128 218.344324 
L 226.118829 220.229654 
L 228.72853 222.229175 
L 231.338231 224.24805 
L 233.947933 226.192379 
L 236.557634 227.973175 
L 239.167335 229.510192 
L 241.777036 230.735498 
L 244.386737 231.596643 
L 246.996438 232.059323 
L 249.606139 232.109401 
L 252.21584 231.754198 
L 254.825541 231.022944 
L 257.435243 229.966322 
L 260.044944 228.655043 
L 262.654645 227.177426 
L 265.264346 225.635967 
L 267.874047 224.14294 
L 270.483748 222.815088 
L 273.093449 221.767515 
L 275.70315 221.106936 
L 278.312851 220.924498 
L 280.922553 221.288423 
L 283.532254 222.236827 
L 286.141955 223.771099 
L 288.751656 225.850312 
L 291.361357 228.387236 
L 293.971058 231.24659 
L 296.580759 234.246269 
L 299.19046 237.162394 
L 301.800161 239.73913 
L 304.409863 241.704331 
L 307.019564 242.792216 
L 309.629265 242.774375 
L 312.238966 241.500577 
L 314.848667 238.950976 
L 317.458368 235.301473 
L 320.068069 231.00416 
L 322.67777 226.884941 
L 325.287471 224.260594 
L 327.897173 225.077752 
L 330.506874 232.076452 
L 333.116575 248.981142 
" clip-path="url(#p85039d4ae2)" style="fill: none; stroke: #1f77b4; stroke-width: 1.5; stroke-linecap: square"/>
   </g>
   <g id="line2d_14">
    <path d="M 74.756165 176.128877 
L 77.890534 238.714963 
L 81.024903 254.065647 
L 84.159272 239.506986 
L 87.293641 208.134002 
L 90.428009 169.565164 
L 93.562378 130.596202 
L 96.696747 95.763183 
L 99.831116 67.824096 
L 102.965485 48.167536 
L 106.099854 37.156424 
L 109.234223 34.414125 
L 112.368592 39.059725 
L 115.502961 49.898699 
L 118.63733 65.574681 
L 121.771699 84.687547 
L 124.906068 105.882565 
L 128.040437 127.914924 
L 131.174806 149.693533 
L 134.309175 170.307603 
L 137.443543 189.039137 
L 140.577912 205.364138 
L 143.712281 218.944984 
L 146.84665 229.616158 
L 149.981019 237.365214 
L 153.115388 242.31061 
L 156.249757 244.677795 
L 159.384126 244.774728 
L 162.518495 242.967785 
L 165.652864 239.65884 
L 168.787233 235.264133 
L 171.921602 230.195382 
L 175.055971 224.843466 
L 178.19034 219.564881 
L 181.324709 214.67107 
L 184.459077 210.420616 
L 187.593446 207.014237 
L 190.727815 204.592429 
L 193.862184 203.23555 
L 196.996553 202.96611 
L 200.130922 203.752978 
L 203.265291 205.517194 
L 206.39966 208.139073 
L 209.534029 211.466267 
L 212.668398 215.322445 
L 215.802767 219.516285 
L 218.937136 223.850445 
L 222.071505 228.130247 
L 225.205874 232.171791 
L 228.340243 234.874365 
L 231.474611 234.874255 
L 234.60898 240.268057 
L 237.743349 242.270541 
L 240.877718 243.539924 
L 244.012087 244.053597 
L 247.146456 243.823343 
L 250.280825 242.894218 
L 253.415194 241.342155 
L 256.549563 239.270387 
L 259.683932 236.804804 
L 262.818301 234.088406 
L 265.95267 231.275017 
L 269.087039 228.522492 
L 272.221408 225.985622 
L 275.355777 223.809003 
L 278.490145 222.120133 
L 281.624514 221.022983 
L 284.758883 220.592336 
L 287.893252 220.869142 
L 291.027621 221.857145 
L 294.16199 223.521011 
L 297.296359 225.786148 
L 300.430728 228.54039 
L 303.565097 231.637653 
L 306.699466 234.903607 
L 309.833835 238.143366 
L 312.968204 241.151078 
L 316.102573 243.721246 
L 319.236942 245.661466 
L 322.371311 246.806186 
L 325.505679 247.030924 
L 328.640048 246.266268 
L 331.774417 244.510795 
L 334.908786 241.841884 
L 338.043155 238.423196 
L 341.177524 234.507404 
L 344.311893 230.43249 
L 347.446262 226.609738 
L 350.580631 223.501231 
L 353.715 221.584435 
L 356.849369 221.301093 
L 359.983738 222.987398 
L 363.118107 226.78201 
L 366.252476 232.508161 
L 369.386845 239.525697 
L 372.521213 246.548489 
L 375.655582 251.42223 
L 378.789951 250.857175 
L 381.92432 240.109912 
L 385.058689 212.607729 
" clip-path="url(#p85039d4ae2)" style="fill: none; stroke: #ff7f0e; stroke-width: 1.5; stroke-linecap: square"/>
   </g>
   <g id="line2d_15">
    <path d="M 74.756165 130.226014 
L 77.681379 213.622028 
L 80.606592 249.23118 
L 83.531806 252.679414 
L 86.45702 236.033459 
L 89.382233 208.405413 
L 92.307447 176.479532 
L 95.232661 144.96868 
L 98.157875 117.007398 
L 101.083088 94.488083 
L 104.008302 78.346249 
L 106.933516 68.800473 
L 109.85873 65.552119 
L 112.783943 67.949618 
L 115.709157 75.121626 
L 118.634371 86.083056 
L 121.559585 99.817635 
L 124.484798 115.340291 
L 127.410012 131.742386 
L 130.335226 148.222506 
L 133.26044 164.105257 
L 136.185653 178.850247 
L 139.110867 192.053205 
L 142.036081 203.440951 
L 144.961295 212.861729 
L 147.886508 220.272213 
L 150.811722 225.722326 
L 153.736936 229.338824 
L 156.66215 231.308469 
L 159.587363 231.861452 
L 162.512577 231.255605 
L 165.437791 229.76183 
L 168.363005 227.651063 
L 171.288218 225.182988 
L 174.213432 222.596653 
L 177.138646 220.103033 
L 180.06386 217.879568 
L 182.989073 216.06659 
L 185.914287 214.765566 
L 188.839501 214.038993 
L 191.764715 213.911789 
L 194.689928 214.373983 
L 197.615142 215.384485 
L 200.540356 216.875722 
L 203.46557 218.758912 
L 206.390783 220.929746 
L 209.315997 223.274262 
L 212.241211 225.674698 
L 215.166424 228.015128 
L 218.091638 234.876421 
L 221.016852 234.876281 
L 223.942066 232.796015 
L 226.867279 234.121516 
L 229.792493 235.034936 
L 232.717707 235.507587 
L 235.642921 235.532253 
L 238.568134 235.123152 
L 241.493348 234.315032 
L 244.418562 233.161438 
L 247.343776 231.732213 
L 250.268989 230.110329 
L 253.194203 228.388146 
L 256.119417 226.663232 
L 259.044631 225.033894 
L 261.969844 223.594573 
L 264.895058 222.431273 
L 267.820272 221.617217 
L 270.745486 221.208884 
L 273.670699 221.242631 
L 276.595913 221.73207 
L 279.521127 222.66634 
L 282.446341 224.009454 
L 285.371554 225.700813 
L 288.296768 227.65699 
L 291.221982 229.774845 
L 294.147196 231.935966 
L 297.072409 234.012408 
L 299.997623 235.873623 
L 302.922837 237.394414 
L 305.848051 238.463653 
L 308.773264 238.993455 
L 311.698478 238.928342 
L 314.623692 238.253884 
L 317.548906 237.00416 
L 320.474119 235.267229 
L 323.399333 233.187725 
L 326.324547 230.965463 
L 329.249761 228.84884 
L 332.174974 227.121606 
L 335.100188 226.081389 
L 338.025402 226.008183 
L 340.950616 227.120756 
L 343.875829 229.518718 
L 346.801043 233.107768 
L 349.726257 237.505316 
L 352.65147 241.923482 
L 355.576684 245.026093 
L 358.501898 244.756077 
L 361.427112 238.129248 
L 364.352325 220.990198 
" clip-path="url(#p85039d4ae2)" style="fill: none; stroke: #2ca02c; stroke-width: 1.5; stroke-linecap: square"/>
   </g>
   <g id="line2d_16">
    <path d="M 74.756165 136.091177 
L 78.035504 224.251982 
L 81.314842 264.955493 
L 84.594181 272.809884 
L 87.87352 259.271192 
L 91.152859 233.153273 
L 94.432198 201.074976 
L 97.711537 167.850303 
L 100.990876 136.82698 
L 104.270214 110.178485 
L 107.549553 89.154215 
L 110.828892 74.292172 
L 114.108231 65.598204 
L 117.38757 62.695539 
L 120.666909 64.948066 
L 123.946247 71.560533 
L 127.225586 81.658588 
L 130.504925 94.351302 
L 133.784264 108.778639 
L 137.063603 124.146041 
L 140.342942 139.748166 
L 143.62228 154.983541 
L 146.901619 169.361771 
L 150.180958 182.504728 
L 153.460297 194.14301 
L 156.739636 204.108769 
L 160.018975 212.325924 
L 163.298314 218.798572 
L 166.577652 223.598358 
L 169.856991 226.85139 
L 173.13633 228.725231 
L 176.415669 229.416381 
L 179.695008 229.138568 
L 182.974347 228.112116 
L 186.253685 226.554574 
L 189.533024 224.672709 
L 192.812363 222.655952 
L 196.091702 220.671295 
L 199.371041 218.859632 
L 202.65038 217.333469 
L 205.929718 216.175924 
L 209.209057 215.440894 
L 212.488396 215.154271 
L 215.767735 215.316044 
L 219.047074 215.903141 
L 222.326413 216.872849 
L 225.605752 218.166644 
L 228.88509 219.714283 
L 232.164429 221.437987 
L 235.443768 234.878217 
L 238.723107 234.877303 
L 242.002446 228.215034 
L 245.281785 230.070303 
L 248.561123 231.660347 
L 251.840462 232.933578 
L 255.119801 233.855911 
L 258.39914 234.411729 
L 261.678479 234.604055 
L 264.957818 234.453932 
L 268.237157 233.99906 
L 271.516495 233.291746 
L 274.795834 232.396223 
L 278.075173 231.385471 
L 281.354512 230.337626 
L 284.633851 229.332123 
L 287.91319 228.445715 
L 291.192528 227.748521 
L 294.471867 227.30026 
L 297.751206 227.146847 
L 301.030545 227.317489 
L 304.309884 227.822468 
L 307.589223 228.65172 
L 310.868561 229.774365 
L 314.1479 231.139281 
L 317.427239 232.676795 
L 320.706578 234.301544 
L 323.985917 235.916493 
L 327.265256 237.418069 
L 330.544595 238.702299 
L 333.823933 239.67179 
L 337.103272 240.24329 
L 340.382611 240.355524 
L 343.66195 239.976864 
L 346.941289 239.112341 
L 350.220628 237.809343 
L 353.499966 236.161265 
L 356.779305 234.30823 
L 360.058644 232.433837 
L 363.337983 230.756783 
L 366.617322 229.51599 
L 369.896661 228.947725 
L 373.175999 229.252997 
L 376.455338 230.553303 
L 379.734677 232.832595 
L 383.014016 235.863098 
L 386.293355 239.112357 
L 389.572694 241.628653 
L 392.852033 241.901625 
L 396.131371 237.694671 
L 399.41071 225.845372 
" clip-path="url(#p85039d4ae2)" style="fill: none; stroke: #d62728; stroke-width: 1.5; stroke-linecap: square"/>
   </g>
   <g id="line2d_17">
    <path d="M 74.756165 159.674281 
L 77.146571 210.450107 
L 79.536977 239.2544 
L 81.927383 251.511599 
L 84.317789 251.711608 
L 86.708195 243.529117 
L 89.098601 229.931581 
L 91.489007 213.276636 
L 93.879413 195.399689 
L 96.269819 177.692393 
L 98.660225 161.172678 
L 101.050631 146.546983 
L 103.441037 134.265291 
L 105.831443 124.569548 
L 108.221849 117.53602 
L 110.612255 113.112092 
L 113.002661 111.148008 
L 115.393067 111.424018 
L 117.783473 113.673356 
L 120.173879 117.601464 
L 122.564285 122.901854 
L 124.954691 129.268949 
L 127.345097 136.408261 
L 129.735503 144.044203 
L 132.125909 151.925839 
L 134.516315 159.830828 
L 136.906721 167.567833 
L 139.297127 174.977607 
L 141.687533 181.932978 
L 144.077939 188.337922 
L 146.468345 194.125907 
L 148.858751 199.257661 
L 151.249157 203.718512 
L 153.639563 207.515434 
L 156.029969 210.673896 
L 158.420375 213.234643 
L 160.810781 215.250471 
L 163.201187 216.783087 
L 165.591593 217.900112 
L 167.981999 218.672284 
L 170.372405 219.1709 
L 172.762811 219.465537 
L 175.153217 219.622066 
L 177.543623 219.700988 
L 179.934029 219.756087 
L 182.324435 219.833417 
L 184.714842 219.970602 
L 187.105248 220.196452 
L 189.495654 220.530869 
L 191.88606 234.879002 
L 194.276466 234.878854 
L 196.666872 222.785397 
L 199.057278 223.564669 
L 201.447684 224.406524 
L 203.83809 225.291511 
L 206.228496 226.197907 
L 208.618902 227.102818 
L 211.009308 227.983266 
L 213.399714 228.8172 
L 215.79012 229.58444 
L 218.180526 230.267504 
L 220.570932 230.852309 
L 222.961338 231.328726 
L 225.351744 231.69098 
L 227.74215 231.937875 
L 230.132556 232.07285 
L 232.522962 232.103855 
L 234.913368 232.043058 
L 237.303774 231.906379 
L 239.69418 231.712872 
L 242.084586 231.483973 
L 244.474992 231.242613 
L 246.865398 231.012251 
L 249.255804 230.815829 
L 251.64621 230.674689 
L 254.036616 230.607497 
L 256.427022 230.629196 
L 258.817428 230.750041 
L 261.207834 230.974762 
L 263.59824 231.30189 
L 265.988646 231.723312 
L 268.379052 232.224087 
L 270.769458 232.782594 
L 273.159864 233.371049 
L 275.55027 233.956454 
L 277.940676 234.50202 
L 280.331082 234.969131 
L 282.721488 235.319873 
L 285.111894 235.52021 
L 287.5023 235.543808 
L 289.892706 235.376587 
L 292.283112 235.022007 
L 294.673518 234.507137 
L 297.063924 233.889505 
L 299.45433 233.264782 
L 301.844736 232.77526 
L 304.235142 232.619168 
L 306.625548 233.060773 
L 309.015954 234.441271 
L 311.40636 237.190415 
" clip-path="url(#p85039d4ae2)" style="fill: none; stroke: #9467bd; stroke-width: 1.5; stroke-linecap: square"/>
   </g>
   <g id="line2d_18">
    <path d="M 74.756165 160.52455 
L 77.345379 235.971218 
L 79.934594 270.444249 
L 82.523808 276.334125 
L 85.113023 263.417752 
L 87.702237 239.271561 
L 90.291451 209.63489 
L 92.880666 178.728105 
L 95.46988 149.529694 
L 98.059095 124.01622 
L 100.648309 103.368825 
L 103.237524 88.149656 
L 105.826738 78.451399 
L 108.415953 74.022829 
L 111.005167 74.373097 
L 113.594381 78.857236 
L 116.183596 86.745197 
L 118.77281 97.276507 
L 121.362025 109.702484 
L 123.951239 123.317757 
L 126.540454 137.482681 
L 129.129668 151.638099 
L 131.718883 165.31373 
L 134.308097 178.131362 
L 136.897312 189.803866 
L 139.486526 200.130968 
L 142.07574 208.992561 
L 144.664955 216.340279 
L 147.254169 222.187929 
L 149.843384 226.601298 
L 152.432598 229.687783 
L 155.021813 231.586187 
L 157.611027 232.456992 
L 160.200242 232.473334 
L 162.789456 231.812845 
L 165.37867 230.650503 
L 167.967885 229.152559 
L 170.557099 227.471579 
L 173.146314 225.742612 
L 175.735528 224.080458 
L 178.324743 222.577974 
L 180.913957 221.305369 
L 183.503172 220.310369 
L 186.092386 219.619179 
L 188.6816 219.238104 
L 191.270815 219.155735 
L 193.860029 219.345551 
L 196.449244 219.76884 
L 199.038458 220.3778 
L 201.627673 234.878485 
L 204.216887 234.877328 
L 206.806102 224.819183 
L 209.395316 225.825606 
L 211.98453 226.639363 
L 214.573745 227.217356 
L 217.162959 227.530759 
L 219.752174 227.566066 
L 222.341388 227.325462 
L 224.930603 226.826511 
L 227.519817 226.101181 
L 230.109032 225.194261 
L 232.698246 224.161209 
L 235.28746 223.065538 
L 237.876675 221.975804 
L 240.465889 220.96233 
L 243.055104 220.093771 
L 245.644318 219.433659 
L 248.233533 219.037063 
L 250.822747 218.947501 
L 253.411962 219.194251 
L 256.001176 219.790194 
L 258.590391 220.730322 
L 261.179605 221.991016 
L 263.768819 223.530208 
L 266.358034 225.288495 
L 268.947248 227.191252 
L 271.536463 229.151758 
L 274.125677 231.075315 
L 276.714892 232.864286 
L 279.304106 234.423909 
L 281.893321 235.668733 
L 284.482535 236.529386 
L 287.071749 236.959366 
L 289.660964 236.941438 
L 292.250178 236.493114 
L 294.839393 235.670628 
L 297.428607 234.570664 
L 300.017822 233.329018 
L 302.607036 232.115211 
L 305.196251 231.12194 
L 307.785465 230.548116 
L 310.374679 230.574068 
L 312.963894 231.327303 
L 315.553108 232.837059 
L 318.142323 234.975669 
L 320.731537 237.38456 
L 323.320752 239.382474 
L 325.909966 239.853278 
L 328.499181 237.110498 
L 331.088395 228.735398 
" clip-path="url(#p85039d4ae2)" style="fill: none; stroke: #8c564b; stroke-width: 1.5; stroke-linecap: square"/>
   </g>
   <g id="patch_3">
    <path d="M 58.523438 288.430125 
L 58.523438 22.318125 
" style="fill: none; stroke: #000000; stroke-width: 0.8; stroke-linejoin: miter; stroke-linecap: square"/>
   </g>
   <g id="patch_4">
    <path d="M 415.643438 288.430125 
L 415.643438 22.318125 
" style="fill: none; stroke: #000000; stroke-width: 0.8; stroke-linejoin: miter; stroke-linecap: square"/>
   </g>
   <g id="patch_5">
    <path d="M 58.523438 288.430125 
L 415.643438 288.430125 
" style="fill: none; stroke: #000000; stroke-width: 0.8; stroke-linejoin: miter; stroke-linecap: square"/>
   </g>
   <g id="patch_6">
    <path d="M 58.523438 22.318125 
L 415.643438 22.318125 
" style="fill: none; stroke: #000000; stroke-width: 0.8; stroke-linejoin: miter; stroke-linecap: square"/>
   </g>
   <g id="text_15">
    <!-- RD - xtract_prob_Superior_Longitudinal_Fasciculus_1_R -->
    <g transform="translate(72.293438 16.318125) scale(0.12 -0.12)">
     <defs>
      <path id="DejaVuSans-52" d="M 2841 2188 
Q 3044 2119 3236 1894 
Q 3428 1669 3622 1275 
L 4263 0 
L 3584 0 
L 2988 1197 
Q 2756 1666 2539 1819 
Q 2322 1972 1947 1972 
L 1259 1972 
L 1259 0 
L 628 0 
L 628 4666 
L 2053 4666 
Q 2853 4666 3247 4331 
Q 3641 3997 3641 3322 
Q 3641 2881 3436 2590 
Q 3231 2300 2841 2188 
z
M 1259 4147 
L 1259 2491 
L 2053 2491 
Q 2509 2491 2742 2702 
Q 2975 2913 2975 3322 
Q 2975 3731 2742 3939 
Q 2509 4147 2053 4147 
L 1259 4147 
z
" transform="scale(0.015625)"/>
      <path id="DejaVuSans-44" d="M 1259 4147 
L 1259 519 
L 2022 519 
Q 2988 519 3436 956 
Q 3884 1394 3884 2338 
Q 3884 3275 3436 3711 
Q 2988 4147 2022 4147 
L 1259 4147 
z
M 628 4666 
L 1925 4666 
Q 3281 4666 3915 4102 
Q 4550 3538 4550 2338 
Q 4550 1131 3912 565 
Q 3275 0 1925 0 
L 628 0 
L 628 4666 
z
" transform="scale(0.015625)"/>
      <path id="DejaVuSans-2d" d="M 313 2009 
L 1997 2009 
L 1997 1497 
L 313 1497 
L 313 2009 
z
" transform="scale(0.015625)"/>
      <path id="DejaVuSans-74" d="M 1172 4494 
L 1172 3500 
L 2356 3500 
L 2356 3053 
L 1172 3053 
L 1172 1153 
Q 1172 725 1289 603 
Q 1406 481 1766 481 
L 2356 481 
L 2356 0 
L 1766 0 
Q 1100 0 847 248 
Q 594 497 594 1153 
L 594 3053 
L 172 3053 
L 172 3500 
L 594 3500 
L 594 4494 
L 1172 4494 
z
" transform="scale(0.015625)"/>
      <path id="DejaVuSans-5f" d="M 3263 -1063 
L 3263 -1509 
L -63 -1509 
L -63 -1063 
L 3263 -1063 
z
" transform="scale(0.015625)"/>
      <path id="DejaVuSans-70" d="M 1159 525 
L 1159 -1331 
L 581 -1331 
L 581 3500 
L 1159 3500 
L 1159 2969 
Q 1341 3281 1617 3432 
Q 1894 3584 2278 3584 
Q 2916 3584 3314 3078 
Q 3713 2572 3713 1747 
Q 3713 922 3314 415 
Q 2916 -91 2278 -91 
Q 1894 -91 1617 61 
Q 1341 213 1159 525 
z
M 3116 1747 
Q 3116 2381 2855 2742 
Q 2594 3103 2138 3103 
Q 1681 3103 1420 2742 
Q 1159 2381 1159 1747 
Q 1159 1113 1420 752 
Q 1681 391 2138 391 
Q 2594 391 2855 752 
Q 3116 1113 3116 1747 
z
" transform="scale(0.015625)"/>
      <path id="DejaVuSans-6f" d="M 1959 3097 
Q 1497 3097 1228 2736 
Q 959 2375 959 1747 
Q 959 1119 1226 758 
Q 1494 397 1959 397 
Q 2419 397 2687 759 
Q 2956 1122 2956 1747 
Q 2956 2369 2687 2733 
Q 2419 3097 1959 3097 
z
M 1959 3584 
Q 2709 3584 3137 3096 
Q 3566 2609 3566 1747 
Q 3566 888 3137 398 
Q 2709 -91 1959 -91 
Q 1206 -91 779 398 
Q 353 888 353 1747 
Q 353 2609 779 3096 
Q 1206 3584 1959 3584 
z
" transform="scale(0.015625)"/>
      <path id="DejaVuSans-62" d="M 3116 1747 
Q 3116 2381 2855 2742 
Q 2594 3103 2138 3103 
Q 1681 3103 1420 2742 
Q 1159 2381 1159 1747 
Q 1159 1113 1420 752 
Q 1681 391 2138 391 
Q 2594 391 2855 752 
Q 3116 1113 3116 1747 
z
M 1159 2969 
Q 1341 3281 1617 3432 
Q 1894 3584 2278 3584 
Q 2916 3584 3314 3078 
Q 3713 2572 3713 1747 
Q 3713 922 3314 415 
Q 2916 -91 2278 -91 
Q 1894 -91 1617 61 
Q 1341 213 1159 525 
L 1159 0 
L 581 0 
L 581 4863 
L 1159 4863 
L 1159 2969 
z
" transform="scale(0.015625)"/>
      <path id="DejaVuSans-53" d="M 3425 4513 
L 3425 3897 
Q 3066 4069 2747 4153 
Q 2428 4238 2131 4238 
Q 1616 4238 1336 4038 
Q 1056 3838 1056 3469 
Q 1056 3159 1242 3001 
Q 1428 2844 1947 2747 
L 2328 2669 
Q 3034 2534 3370 2195 
Q 3706 1856 3706 1288 
Q 3706 609 3251 259 
Q 2797 -91 1919 -91 
Q 1588 -91 1214 -16 
Q 841 59 441 206 
L 441 856 
Q 825 641 1194 531 
Q 1563 422 1919 422 
Q 2459 422 2753 634 
Q 3047 847 3047 1241 
Q 3047 1584 2836 1778 
Q 2625 1972 2144 2069 
L 1759 2144 
Q 1053 2284 737 2584 
Q 422 2884 422 3419 
Q 422 4038 858 4394 
Q 1294 4750 2059 4750 
Q 2388 4750 2728 4690 
Q 3069 4631 3425 4513 
z
" transform="scale(0.015625)"/>
      <path id="DejaVuSans-4c" d="M 628 4666 
L 1259 4666 
L 1259 531 
L 3531 531 
L 3531 0 
L 628 0 
L 628 4666 
z
" transform="scale(0.015625)"/>
      <path id="DejaVuSans-67" d="M 2906 1791 
Q 2906 2416 2648 2759 
Q 2391 3103 1925 3103 
Q 1463 3103 1205 2759 
Q 947 2416 947 1791 
Q 947 1169 1205 825 
Q 1463 481 1925 481 
Q 2391 481 2648 825 
Q 2906 1169 2906 1791 
z
M 3481 434 
Q 3481 -459 3084 -895 
Q 2688 -1331 1869 -1331 
Q 1566 -1331 1297 -1286 
Q 1028 -1241 775 -1147 
L 775 -588 
Q 1028 -725 1275 -790 
Q 1522 -856 1778 -856 
Q 2344 -856 2625 -561 
Q 2906 -266 2906 331 
L 2906 616 
Q 2728 306 2450 153 
Q 2172 0 1784 0 
Q 1141 0 747 490 
Q 353 981 353 1791 
Q 353 2603 747 3093 
Q 1141 3584 1784 3584 
Q 2172 3584 2450 3431 
Q 2728 3278 2906 2969 
L 2906 3500 
L 3481 3500 
L 3481 434 
z
" transform="scale(0.015625)"/>
      <path id="DejaVuSans-64" d="M 2906 2969 
L 2906 4863 
L 3481 4863 
L 3481 0 
L 2906 0 
L 2906 525 
Q 2725 213 2448 61 
Q 2172 -91 1784 -91 
Q 1150 -91 751 415 
Q 353 922 353 1747 
Q 353 2572 751 3078 
Q 1150 3584 1784 3584 
Q 2172 3584 2448 3432 
Q 2725 3281 2906 2969 
z
M 947 1747 
Q 947 1113 1208 752 
Q 1469 391 1925 391 
Q 2381 391 2643 752 
Q 2906 1113 2906 1747 
Q 2906 2381 2643 2742 
Q 2381 3103 1925 3103 
Q 1469 3103 1208 2742 
Q 947 2381 947 1747 
z
" transform="scale(0.015625)"/>
     </defs>
     <use xlink:href="#DejaVuSans-52"/>
     <use xlink:href="#DejaVuSans-44" x="69.482422"/>
     <use xlink:href="#DejaVuSans-20" x="146.484375"/>
     <use xlink:href="#DejaVuSans-2d" x="178.271484"/>
     <use xlink:href="#DejaVuSans-20" x="214.355469"/>
     <use xlink:href="#DejaVuSans-78" x="246.142578"/>
     <use xlink:href="#DejaVuSans-74" x="305.322266"/>
     <use xlink:href="#DejaVuSans-72" x="344.53125"/>
     <use xlink:href="#DejaVuSans-61" x="385.644531"/>
     <use xlink:href="#DejaVuSans-63" x="446.923828"/>
     <use xlink:href="#DejaVuSans-74" x="501.904297"/>
     <use xlink:href="#DejaVuSans-5f" x="541.113281"/>
     <use xlink:href="#DejaVuSans-70" x="591.113281"/>
     <use xlink:href="#DejaVuSans-72" x="654.589844"/>
     <use xlink:href="#DejaVuSans-6f" x="693.453125"/>
     <use xlink:href="#DejaVuSans-62" x="754.634766"/>
     <use xlink:href="#DejaVuSans-5f" x="818.111328"/>
     <use xlink:href="#DejaVuSans-53" x="868.111328"/>
     <use xlink:href="#DejaVuSans-75" x="931.587891"/>
     <use xlink:href="#DejaVuSans-70" x="994.966797"/>
     <use xlink:href="#DejaVuSans-65" x="1058.443359"/>
     <use xlink:href="#DejaVuSans-72" x="1119.966797"/>
     <use xlink:href="#DejaVuSans-69" x="1161.080078"/>
     <use xlink:href="#DejaVuSans-6f" x="1188.863281"/>
     <use xlink:href="#DejaVuSans-72" x="1250.044922"/>
     <use xlink:href="#DejaVuSans-5f" x="1291.158203"/>
     <use xlink:href="#DejaVuSans-4c" x="1341.158203"/>
     <use xlink:href="#DejaVuSans-6f" x="1395.121094"/>
     <use xlink:href="#DejaVuSans-6e" x="1456.302734"/>
     <use xlink:href="#DejaVuSans-67" x="1519.681641"/>
     <use xlink:href="#DejaVuSans-69" x="1583.158203"/>
     <use xlink:href="#DejaVuSans-74" x="1610.941406"/>
     <use xlink:href="#DejaVuSans-75" x="1650.150391"/>
     <use xlink:href="#DejaVuSans-64" x="1713.529297"/>
     <use xlink:href="#DejaVuSans-69" x="1777.005859"/>
     <use xlink:href="#DejaVuSans-6e" x="1804.789062"/>
     <use xlink:href="#DejaVuSans-61" x="1868.167969"/>
     <use xlink:href="#DejaVuSans-6c" x="1929.447266"/>
     <use xlink:href="#DejaVuSans-5f" x="1957.230469"/>
     <use xlink:href="#DejaVuSans-46" x="2007.230469"/>
     <use xlink:href="#DejaVuSans-61" x="2055.625"/>
     <use xlink:href="#DejaVuSans-73" x="2116.904297"/>
     <use xlink:href="#DejaVuSans-63" x="2169.003906"/>
     <use xlink:href="#DejaVuSans-69" x="2223.984375"/>
     <use xlink:href="#DejaVuSans-63" x="2251.767578"/>
     <use xlink:href="#DejaVuSans-75" x="2306.748047"/>
     <use xlink:href="#DejaVuSans-6c" x="2370.126953"/>
     <use xlink:href="#DejaVuSans-75" x="2397.910156"/>
     <use xlink:href="#DejaVuSans-73" x="2461.289062"/>
     <use xlink:href="#DejaVuSans-5f" x="2513.388672"/>
     <use xlink:href="#DejaVuSans-31" x="2563.388672"/>
     <use xlink:href="#DejaVuSans-5f" x="2627.011719"/>
     <use xlink:href="#DejaVuSans-52" x="2677.011719"/>
    </g>
   </g>
   <g id="legend_1">
    <g id="patch_7">
     <path d="M 458.355438 146.666825 
L 556.211688 146.666825 
Q 558.211688 146.666825 558.211688 144.666825 
L 558.211688 55.929325 
Q 558.211688 53.929325 556.211688 53.929325 
L 458.355438 53.929325 
Q 456.355438 53.929325 456.355438 55.929325 
L 456.355438 144.666825 
Q 456.355438 146.666825 458.355438 146.666825 
z
" style="fill: #ffffff; opacity: 0.8; stroke: #cccccc; stroke-linejoin: miter"/>
    </g>
    <g id="line2d_19">
     <path d="M 460.355438 62.027762 
L 470.355438 62.027762 
L 480.355438 62.027762 
" style="fill: none; stroke: #1f77b4; stroke-width: 1.5; stroke-linecap: square"/>
    </g>
    <g id="text_16">
     <!-- 20_06_02_E3 -->
     <g transform="translate(488.355438 65.527762) scale(0.1 -0.1)">
      <defs>
       <path id="DejaVuSans-45" d="M 628 4666 
L 3578 4666 
L 3578 4134 
L 1259 4134 
L 1259 2753 
L 3481 2753 
L 3481 2222 
L 1259 2222 
L 1259 531 
L 3634 531 
L 3634 0 
L 628 0 
L 628 4666 
z
" transform="scale(0.015625)"/>
       <path id="DejaVuSans-33" d="M 2597 2516 
Q 3050 2419 3304 2112 
Q 3559 1806 3559 1356 
Q 3559 666 3084 287 
Q 2609 -91 1734 -91 
Q 1441 -91 1130 -33 
Q 819 25 488 141 
L 488 750 
Q 750 597 1062 519 
Q 1375 441 1716 441 
Q 2309 441 2620 675 
Q 2931 909 2931 1356 
Q 2931 1769 2642 2001 
Q 2353 2234 1838 2234 
L 1294 2234 
L 1294 2753 
L 1863 2753 
Q 2328 2753 2575 2939 
Q 2822 3125 2822 3475 
Q 2822 3834 2567 4026 
Q 2313 4219 1838 4219 
Q 1578 4219 1281 4162 
Q 984 4106 628 3988 
L 628 4550 
Q 988 4650 1302 4700 
Q 1616 4750 1894 4750 
Q 2613 4750 3031 4423 
Q 3450 4097 3450 3541 
Q 3450 3153 3228 2886 
Q 3006 2619 2597 2516 
z
" transform="scale(0.015625)"/>
      </defs>
      <use xlink:href="#DejaVuSans-32"/>
      <use xlink:href="#DejaVuSans-30" x="63.623047"/>
      <use xlink:href="#DejaVuSans-5f" x="127.246094"/>
      <use xlink:href="#DejaVuSans-30" x="177.246094"/>
      <use xlink:href="#DejaVuSans-36" x="240.869141"/>
      <use xlink:href="#DejaVuSans-5f" x="304.492188"/>
      <use xlink:href="#DejaVuSans-30" x="354.492188"/>
      <use xlink:href="#DejaVuSans-32" x="418.115234"/>
      <use xlink:href="#DejaVuSans-5f" x="481.738281"/>
      <use xlink:href="#DejaVuSans-45" x="531.738281"/>
      <use xlink:href="#DejaVuSans-33" x="594.921875"/>
     </g>
    </g>
    <g id="line2d_20">
     <path d="M 460.355438 76.984013 
L 470.355438 76.984013 
L 480.355438 76.984013 
" style="fill: none; stroke: #ff7f0e; stroke-width: 1.5; stroke-linecap: square"/>
    </g>
    <g id="text_17">
     <!-- 20_05_01_E3 -->
     <g transform="translate(488.355438 80.484013) scale(0.1 -0.1)">
      <use xlink:href="#DejaVuSans-32"/>
      <use xlink:href="#DejaVuSans-30" x="63.623047"/>
      <use xlink:href="#DejaVuSans-5f" x="127.246094"/>
      <use xlink:href="#DejaVuSans-30" x="177.246094"/>
      <use xlink:href="#DejaVuSans-35" x="240.869141"/>
      <use xlink:href="#DejaVuSans-5f" x="304.492188"/>
      <use xlink:href="#DejaVuSans-30" x="354.492188"/>
      <use xlink:href="#DejaVuSans-31" x="418.115234"/>
      <use xlink:href="#DejaVuSans-5f" x="481.738281"/>
      <use xlink:href="#DejaVuSans-45" x="531.738281"/>
      <use xlink:href="#DejaVuSans-33" x="594.921875"/>
     </g>
    </g>
    <g id="line2d_21">
     <path d="M 460.355438 91.940262 
L 470.355438 91.940262 
L 480.355438 91.940262 
" style="fill: none; stroke: #2ca02c; stroke-width: 1.5; stroke-linecap: square"/>
    </g>
    <g id="text_18">
     <!-- 20_02_02_E3 -->
     <g transform="translate(488.355438 95.440262) scale(0.1 -0.1)">
      <use xlink:href="#DejaVuSans-32"/>
      <use xlink:href="#DejaVuSans-30" x="63.623047"/>
      <use xlink:href="#DejaVuSans-5f" x="127.246094"/>
      <use xlink:href="#DejaVuSans-30" x="177.246094"/>
      <use xlink:href="#DejaVuSans-32" x="240.869141"/>
      <use xlink:href="#DejaVuSans-5f" x="304.492188"/>
      <use xlink:href="#DejaVuSans-30" x="354.492188"/>
      <use xlink:href="#DejaVuSans-32" x="418.115234"/>
      <use xlink:href="#DejaVuSans-5f" x="481.738281"/>
      <use xlink:href="#DejaVuSans-45" x="531.738281"/>
      <use xlink:href="#DejaVuSans-33" x="594.921875"/>
     </g>
    </g>
    <g id="line2d_22">
     <path d="M 460.355438 106.896513 
L 470.355438 106.896513 
L 480.355438 106.896513 
" style="fill: none; stroke: #d62728; stroke-width: 1.5; stroke-linecap: square"/>
    </g>
    <g id="text_19">
     <!-- 20_10_02_E3 -->
     <g transform="translate(488.355438 110.396513) scale(0.1 -0.1)">
      <use xlink:href="#DejaVuSans-32"/>
      <use xlink:href="#DejaVuSans-30" x="63.623047"/>
      <use xlink:href="#DejaVuSans-5f" x="127.246094"/>
      <use xlink:href="#DejaVuSans-31" x="177.246094"/>
      <use xlink:href="#DejaVuSans-30" x="240.869141"/>
      <use xlink:href="#DejaVuSans-5f" x="304.492188"/>
      <use xlink:href="#DejaVuSans-30" x="354.492188"/>
      <use xlink:href="#DejaVuSans-32" x="418.115234"/>
      <use xlink:href="#DejaVuSans-5f" x="481.738281"/>
      <use xlink:href="#DejaVuSans-45" x="531.738281"/>
      <use xlink:href="#DejaVuSans-33" x="594.921875"/>
     </g>
    </g>
    <g id="line2d_23">
     <path d="M 460.355438 121.852762 
L 470.355438 121.852762 
L 480.355438 121.852762 
" style="fill: none; stroke: #9467bd; stroke-width: 1.5; stroke-linecap: square"/>
    </g>
    <g id="text_20">
     <!-- 20_08_02_E3 -->
     <g transform="translate(488.355438 125.352762) scale(0.1 -0.1)">
      <use xlink:href="#DejaVuSans-32"/>
      <use xlink:href="#DejaVuSans-30" x="63.623047"/>
      <use xlink:href="#DejaVuSans-5f" x="127.246094"/>
      <use xlink:href="#DejaVuSans-30" x="177.246094"/>
      <use xlink:href="#DejaVuSans-38" x="240.869141"/>
      <use xlink:href="#DejaVuSans-5f" x="304.492188"/>
      <use xlink:href="#DejaVuSans-30" x="354.492188"/>
      <use xlink:href="#DejaVuSans-32" x="418.115234"/>
      <use xlink:href="#DejaVuSans-5f" x="481.738281"/>
      <use xlink:href="#DejaVuSans-45" x="531.738281"/>
      <use xlink:href="#DejaVuSans-33" x="594.921875"/>
     </g>
    </g>
    <g id="line2d_24">
     <path d="M 460.355438 136.809012 
L 470.355438 136.809012 
L 480.355438 136.809012 
" style="fill: none; stroke: #8c564b; stroke-width: 1.5; stroke-linecap: square"/>
    </g>
    <g id="text_21">
     <!-- 20_11_02_E3 -->
     <g transform="translate(488.355438 140.309012) scale(0.1 -0.1)">
      <use xlink:href="#DejaVuSans-32"/>
      <use xlink:href="#DejaVuSans-30" x="63.623047"/>
      <use xlink:href="#DejaVuSans-5f" x="127.246094"/>
      <use xlink:href="#DejaVuSans-31" x="177.246094"/>
      <use xlink:href="#DejaVuSans-31" x="240.869141"/>
      <use xlink:href="#DejaVuSans-5f" x="304.492188"/>
      <use xlink:href="#DejaVuSans-30" x="354.492188"/>
      <use xlink:href="#DejaVuSans-32" x="418.115234"/>
      <use xlink:href="#DejaVuSans-5f" x="481.738281"/>
      <use xlink:href="#DejaVuSans-45" x="531.738281"/>
      <use xlink:href="#DejaVuSans-33" x="594.921875"/>
     </g>
    </g>
   </g>
  </g>
 </g>
 <defs>
  <clipPath id="p85039d4ae2">
   <rect x="58.523438" y="22.318125" width="357.12" height="266.112"/>
  </clipPath>
 </defs>
</svg>
