<?xml version="1.0" encoding="utf-8" standalone="no"?>
<!DOCTYPE svg PUBLIC "-//W3C//DTD SVG 1.1//EN"
  "http://www.w3.org/Graphics/SVG/1.1/DTD/svg11.dtd">
<svg xmlns:xlink="http://www.w3.org/1999/xlink" width="557.032pt" height="325.986375pt" viewBox="0 0 557.032 325.986375" xmlns="http://www.w3.org/2000/svg" version="1.1">
 <metadata>
  <rdf:RDF xmlns:dc="http://purl.org/dc/elements/1.1/" xmlns:cc="http://creativecommons.org/ns#" xmlns:rdf="http://www.w3.org/1999/02/22-rdf-syntax-ns#">
   <cc:Work>
    <dc:type rdf:resource="http://purl.org/dc/dcmitype/StillImage"/>
    <dc:date>2023-02-07T23:00:11.927948</dc:date>
    <dc:format>image/svg+xml</dc:format>
    <dc:creator>
     <cc:Agent>
      <dc:title>Matplotlib v3.6.2, https://matplotlib.org/</dc:title>
     </cc:Agent>
    </dc:creator>
   </cc:Work>
  </rdf:RDF>
 </metadata>
 <defs>
  <style type="text/css">*{stroke-linejoin: round; stroke-linecap: butt}</style>
 </defs>
 <g id="figure_1">
  <g id="patch_1">
   <path d="M 0 325.986375 
L 557.032 325.986375 
L 557.032 0 
L 0 0 
z
" style="fill: #ffffff"/>
  </g>
  <g id="axes_1">
   <g id="patch_2">
    <path d="M 50.14375 288.430125 
L 407.26375 288.430125 
L 407.26375 22.318125 
L 50.14375 22.318125 
z
" style="fill: #ffffff"/>
   </g>
   <g id="PolyCollection_1">
    <path d="M 66.376477 259.394218 
L 66.376477 259.498015 
L 69.078132 259.498015 
L 71.779787 259.498015 
L 74.481441 259.498015 
L 77.183096 259.498015 
L 79.88475 259.498015 
L 82.586405 259.498015 
L 85.28806 259.498015 
L 87.989714 259.498015 
L 90.691369 259.498015 
L 93.393024 259.498015 
L 96.094678 259.498015 
L 98.796333 259.498015 
L 101.497987 259.498015 
L 104.199642 259.498015 
L 106.901297 259.498015 
L 109.602951 259.498015 
L 112.304606 259.498015 
L 115.00626 259.498015 
L 117.707915 259.498015 
L 120.40957 259.498015 
L 123.111224 259.498015 
L 125.812879 259.498015 
L 128.514534 259.498015 
L 131.216188 259.498015 
L 133.917843 259.498015 
L 136.619497 259.498015 
L 139.321152 259.498015 
L 142.022807 259.498015 
L 144.724461 259.498015 
L 147.426116 259.498015 
L 150.127771 259.498015 
L 152.829425 259.498015 
L 155.53108 259.498015 
L 158.232734 259.498015 
L 160.934389 259.498015 
L 163.636044 259.498015 
L 166.337698 259.498015 
L 169.039353 259.498015 
L 171.741008 259.498015 
L 174.442662 259.498015 
L 177.144317 259.498015 
L 179.845971 259.498015 
L 182.547626 259.498015 
L 185.249281 259.498015 
L 187.950935 259.498015 
L 190.65259 259.498015 
L 193.354245 259.498015 
L 196.055899 259.498015 
L 198.757554 259.498015 
L 201.459208 259.498015 
L 204.160863 259.498015 
L 206.862518 259.498015 
L 209.564172 259.498015 
L 212.265827 259.498015 
L 214.967482 259.498015 
L 217.669136 259.498015 
L 220.370791 259.498015 
L 223.072445 259.498015 
L 225.7741 259.498015 
L 228.475755 259.498015 
L 231.177409 259.498015 
L 233.879064 259.498015 
L 236.580719 259.498015 
L 239.282373 259.498015 
L 241.984028 259.498015 
L 244.685682 259.498015 
L 247.387337 259.498015 
L 250.088992 259.498015 
L 252.790646 259.498015 
L 255.492301 259.498015 
L 258.193955 259.498015 
L 260.89561 259.498015 
L 263.597265 259.498015 
L 266.298919 259.498015 
L 269.000574 259.498015 
L 271.702229 259.498015 
L 274.403883 259.498015 
L 277.105538 259.498015 
L 279.807192 259.498015 
L 282.508847 259.498015 
L 285.210502 259.498015 
L 287.912156 259.498015 
L 290.613811 259.498015 
L 293.315466 259.498015 
L 296.01712 259.498015 
L 298.718775 259.498015 
L 301.420429 259.498015 
L 304.122084 259.498015 
L 306.823739 259.498015 
L 309.525393 259.498015 
L 312.227048 259.498015 
L 314.928703 259.498015 
L 317.630357 259.498015 
L 320.332012 259.498015 
L 323.033666 259.498015 
L 325.735321 259.498015 
L 328.436976 259.498015 
L 331.13863 259.498015 
L 333.840285 259.498015 
L 333.840285 257.655711 
L 333.840285 257.655711 
L 331.13863 259.840013 
L 328.436976 260.718129 
L 325.735321 260.806401 
L 323.033666 260.465981 
L 320.332012 259.937257 
L 317.630357 259.368637 
L 314.928703 258.84037 
L 312.227048 258.383997 
L 309.525393 257.998009 
L 306.823739 257.660212 
L 304.122084 257.337272 
L 301.420429 256.991857 
L 298.718775 256.587762 
L 296.01712 256.093354 
L 293.315466 255.483655 
L 290.613811 254.741319 
L 287.912156 253.856763 
L 285.210502 252.827644 
L 282.508847 251.657881 
L 279.807192 250.356375 
L 277.105538 248.935552 
L 274.403883 247.409857 
L 271.702229 245.794276 
L 269.000574 244.102975 
L 266.298919 242.348093 
L 263.597265 240.538747 
L 260.89561 238.680279 
L 258.193955 236.773739 
L 255.492301 234.81564 
L 252.790646 232.797954 
L 250.088992 230.708357 
L 247.387337 228.530689 
L 244.685682 226.245624 
L 241.984028 223.831493 
L 239.282373 221.265259 
L 236.580719 218.523592 
L 233.879064 215.584003 
L 231.177409 212.426022 
L 228.475755 209.032358 
L 225.7741 205.390028 
L 223.072445 201.491403 
L 220.370791 197.335153 
L 217.669136 192.927052 
L 214.967482 188.280624 
L 212.265827 183.417608 
L 209.564172 178.368213 
L 206.862518 173.171168 
L 204.160863 167.873539 
L 201.459208 259.478613 
L 198.757554 259.478282 
L 196.055899 152.07191 
L 193.354245 146.997672 
L 190.65259 142.155328 
L 187.950935 137.625711 
L 185.249281 133.490957 
L 182.547626 129.832776 
L 179.845971 126.7306 
L 177.144317 124.259686 
L 174.442662 122.489175 
L 171.741008 121.480187 
L 169.039353 121.283962 
L 166.337698 121.940126 
L 163.636044 123.475105 
L 160.934389 125.900749 
L 158.232734 129.213212 
L 155.53108 133.392124 
L 152.829425 138.400113 
L 150.127771 144.182696 
L 147.426116 150.668601 
L 144.724461 157.770511 
L 142.022807 165.386293 
L 139.321152 173.400686 
L 136.619497 181.687469 
L 133.917843 190.112107 
L 131.216188 198.534824 
L 128.514534 206.814101 
L 125.812879 214.81051 
L 123.111224 222.390839 
L 120.40957 229.432407 
L 117.707915 235.827442 
L 115.00626 241.487412 
L 112.304606 246.347116 
L 109.602951 250.368365 
L 106.901297 253.543021 
L 104.199642 255.895149 
L 101.497987 257.48198 
L 98.796333 258.393378 
L 96.094678 258.74943 
L 93.393024 258.695773 
L 90.691369 258.396183 
L 87.989714 258.02195 
L 85.28806 257.737488 
L 82.586405 257.681571 
L 79.88475 257.943554 
L 77.183096 258.53386 
L 74.481441 259.34796 
L 71.779787 260.123016 
L 69.078132 260.38627 
L 66.376477 259.394218 
z
" clip-path="url(#pe729464c1f)" style="fill: #1f77b4; fill-opacity: 0.166667"/>
   </g>
   <g id="PolyCollection_2">
    <path d="M 66.376477 260.72393 
L 66.376477 259.498015 
L 68.165727 259.498015 
L 69.954976 259.498015 
L 71.744226 259.498015 
L 73.533475 259.498015 
L 75.322725 259.498015 
L 77.111974 259.498015 
L 78.901224 259.498015 
L 80.690473 259.498015 
L 82.479723 259.498015 
L 84.268972 259.498015 
L 86.058222 259.498015 
L 87.847471 259.498015 
L 89.636721 259.498015 
L 91.42597 259.498015 
L 93.21522 259.498015 
L 95.00447 259.498015 
L 96.793719 259.498015 
L 98.582969 259.498015 
L 100.372218 259.498015 
L 102.161468 259.498015 
L 103.950717 259.498015 
L 105.739967 259.498015 
L 107.529216 259.498015 
L 109.318466 259.498015 
L 111.107715 259.498015 
L 112.896965 259.498015 
L 114.686214 259.498015 
L 116.475464 259.498015 
L 118.264713 259.498015 
L 120.053963 259.498015 
L 121.843212 259.498015 
L 123.632462 259.498015 
L 125.421711 259.498015 
L 127.210961 259.498015 
L 129.00021 259.498015 
L 130.78946 259.498015 
L 132.578709 259.498015 
L 134.367959 259.498015 
L 136.157208 259.498015 
L 137.946458 259.498015 
L 139.735707 259.498015 
L 141.524957 259.498015 
L 143.314206 259.498015 
L 145.103456 259.498015 
L 146.892705 259.498015 
L 148.681955 259.498015 
L 150.471204 259.498015 
L 152.260454 259.498015 
L 154.049704 259.498015 
L 155.838953 259.498015 
L 157.628203 259.498015 
L 159.417452 259.498015 
L 161.206702 259.498015 
L 162.995951 259.498015 
L 164.785201 259.498015 
L 166.57445 259.498015 
L 168.3637 259.498015 
L 170.152949 259.498015 
L 171.942199 259.498015 
L 173.731448 259.498015 
L 175.520698 259.498015 
L 177.309947 259.498015 
L 179.099197 259.498015 
L 180.888446 259.498015 
L 182.677696 259.498015 
L 184.466945 259.498015 
L 186.256195 259.498015 
L 188.045444 259.498015 
L 189.834694 259.498015 
L 191.623943 259.498015 
L 193.413193 259.498015 
L 195.202442 259.498015 
L 196.991692 259.498015 
L 198.780941 259.498015 
L 200.570191 259.498015 
L 202.35944 259.498015 
L 204.14869 259.498015 
L 205.937939 259.498015 
L 207.727189 259.498015 
L 209.516438 259.498015 
L 211.305688 259.498015 
L 213.094938 259.498015 
L 214.884187 259.498015 
L 216.673437 259.498015 
L 218.462686 259.498015 
L 220.251936 259.498015 
L 222.041185 259.498015 
L 223.830435 259.498015 
L 225.619684 259.498015 
L 227.408934 259.498015 
L 229.198183 259.498015 
L 230.987433 259.498015 
L 232.776682 259.498015 
L 234.565932 259.498015 
L 236.355181 259.498015 
L 238.144431 259.498015 
L 239.93368 259.498015 
L 241.72293 259.498015 
L 243.512179 259.498015 
L 243.512179 237.256303 
L 243.512179 237.256303 
L 241.72293 265.004803 
L 239.93368 275.83558 
L 238.144431 276.334125 
L 236.355181 271.284777 
L 234.565932 264.030374 
L 232.776682 256.779031 
L 230.987433 250.863672 
L 229.198183 246.959546 
L 227.408934 245.264537 
L 225.619684 245.646711 
L 223.830435 247.763199 
L 222.041185 251.154137 
L 220.251936 255.315102 
L 218.462686 259.751141 
L 216.673437 264.015224 
L 214.884187 267.733668 
L 213.094938 270.620811 
L 211.305688 272.485002 
L 209.516438 273.227705 
L 207.727189 272.837339 
L 205.937939 271.379245 
L 204.14869 268.98302 
L 202.35944 265.828244 
L 200.570191 262.129508 
L 198.780941 258.121471 
L 196.991692 254.044565 
L 195.202442 250.131821 
L 193.413193 246.5972 
L 191.623943 243.625683 
L 189.834694 241.365317 
L 188.045444 239.921307 
L 186.256195 239.352176 
L 184.466945 239.66797 
L 182.677696 240.830409 
L 180.888446 242.754854 
L 179.099197 245.313918 
L 177.309947 248.342518 
L 175.520698 251.644141 
L 173.731448 254.998086 
L 171.942199 258.167426 
L 170.152949 260.907441 
L 168.3637 262.974252 
L 166.57445 264.133422 
L 164.785201 264.168269 
L 162.995951 262.887679 
L 161.206702 260.133202 
L 159.417452 255.785242 
L 157.628203 249.768193 
L 155.838953 259.475413 
L 154.049704 259.473833 
L 152.260454 223.160287 
L 150.471204 210.756868 
L 148.681955 196.979141 
L 146.892705 182.052113 
L 145.103456 166.24671 
L 143.314206 149.873777 
L 141.524957 133.276752 
L 139.735707 116.823176 
L 137.946458 100.89523 
L 136.157208 85.8795 
L 134.367959 72.156221 
L 132.578709 60.088253 
L 130.78946 50.010091 
L 129.00021 42.217175 
L 127.210961 36.955828 
L 125.421711 34.414125 
L 123.632462 34.713995 
L 121.843212 37.904852 
L 120.053963 43.95905 
L 118.264713 52.769403 
L 116.475464 64.149016 
L 114.686214 77.833602 
L 112.896965 93.486433 
L 111.107715 110.706011 
L 109.318466 129.036463 
L 107.529216 147.980612 
L 105.739967 167.015566 
L 103.950717 185.610576 
L 102.161468 203.246802 
L 100.372218 219.438495 
L 98.582969 233.754983 
L 96.793719 245.842675 
L 95.00447 255.446154 
L 93.21522 262.427238 
L 91.42597 266.780701 
L 89.636721 268.645143 
L 87.847471 268.307249 
L 86.058222 266.197479 
L 84.268972 262.874931 
L 82.479723 258.998864 
L 80.690473 255.284093 
L 78.901224 252.437108 
L 77.111974 251.069502 
L 75.322725 251.584895 
L 73.533475 254.035192 
L 71.744226 257.941637 
L 69.954976 262.075684 
L 68.165727 264.194312 
L 66.376477 260.72393 
z
" clip-path="url(#pe729464c1f)" style="fill: #ff7f0e; fill-opacity: 0.166667"/>
   </g>
   <g id="PolyCollection_3">
    <path d="M 66.376477 262.893033 
L 66.376477 259.498015 
L 68.497127 259.498015 
L 70.617776 259.498015 
L 72.738425 259.498015 
L 74.859074 259.498015 
L 76.979724 259.498015 
L 79.100373 259.498015 
L 81.221022 259.498015 
L 83.341672 259.498015 
L 85.462321 259.498015 
L 87.58297 259.498015 
L 89.70362 259.498015 
L 91.824269 259.498015 
L 93.944918 259.498015 
L 96.065568 259.498015 
L 98.186217 259.498015 
L 100.306866 259.498015 
L 102.427515 259.498015 
L 104.548165 259.498015 
L 106.668814 259.498015 
L 108.789463 259.498015 
L 110.910113 259.498015 
L 113.030762 259.498015 
L 115.151411 259.498015 
L 117.272061 259.498015 
L 119.39271 259.498015 
L 121.513359 259.498015 
L 123.634009 259.498015 
L 125.754658 259.498015 
L 127.875307 259.498015 
L 129.995956 259.498015 
L 132.116606 259.498015 
L 134.237255 259.498015 
L 136.357904 259.498015 
L 138.478554 259.498015 
L 140.599203 259.498015 
L 142.719852 259.498015 
L 144.840502 259.498015 
L 146.961151 259.498015 
L 149.0818 259.498015 
L 151.20245 259.498015 
L 153.323099 259.498015 
L 155.443748 259.498015 
L 157.564397 259.498015 
L 159.685047 259.498015 
L 161.805696 259.498015 
L 163.926345 259.498015 
L 166.046995 259.498015 
L 168.167644 259.498015 
L 170.288293 259.498015 
L 172.408943 259.498015 
L 174.529592 259.498015 
L 176.650241 259.498015 
L 178.770891 259.498015 
L 180.89154 259.498015 
L 183.012189 259.498015 
L 185.132838 259.498015 
L 187.253488 259.498015 
L 189.374137 259.498015 
L 191.494786 259.498015 
L 193.615436 259.498015 
L 195.736085 259.498015 
L 197.856734 259.498015 
L 199.977384 259.498015 
L 202.098033 259.498015 
L 204.218682 259.498015 
L 206.339332 259.498015 
L 208.459981 259.498015 
L 210.58063 259.498015 
L 212.701279 259.498015 
L 214.821929 259.498015 
L 216.942578 259.498015 
L 219.063227 259.498015 
L 221.183877 259.498015 
L 223.304526 259.498015 
L 225.425175 259.498015 
L 227.545825 259.498015 
L 229.666474 259.498015 
L 231.787123 259.498015 
L 233.907772 259.498015 
L 236.028422 259.498015 
L 238.149071 259.498015 
L 240.26972 259.498015 
L 242.39037 259.498015 
L 244.511019 259.498015 
L 246.631668 259.498015 
L 248.752318 259.498015 
L 250.872967 259.498015 
L 252.993616 259.498015 
L 255.114266 259.498015 
L 257.234915 259.498015 
L 259.355564 259.498015 
L 261.476213 259.498015 
L 263.596863 259.498015 
L 265.717512 259.498015 
L 267.838161 259.498015 
L 269.958811 259.498015 
L 272.07946 259.498015 
L 274.200109 259.498015 
L 276.320759 259.498015 
L 276.320759 239.798281 
L 276.320759 239.798281 
L 274.200109 264.006882 
L 272.07946 273.624969 
L 269.958811 274.265095 
L 267.838161 270.019326 
L 265.717512 263.760022 
L 263.596863 257.396833 
L 261.476213 252.094525 
L 259.355564 248.455913 
L 257.234915 246.673862 
L 255.114266 246.656014 
L 252.993616 248.125581 
L 250.872967 250.701312 
L 248.752318 253.959429 
L 246.631668 257.480127 
L 244.511019 260.880943 
L 242.39037 263.839134 
L 240.26972 266.104931 
L 238.149071 267.507406 
L 236.028422 267.954434 
L 233.907772 267.42811 
L 231.787123 265.976795 
L 229.666474 263.704812 
L 227.545825 260.760674 
L 225.425175 257.324608 
L 223.304526 253.595989 
L 221.183877 249.781224 
L 219.063227 246.08248 
L 216.942578 242.687608 
L 214.821929 239.761481 
L 212.701279 237.438927 
L 210.58063 235.819339 
L 208.459981 234.963018 
L 206.339332 234.889215 
L 204.218682 235.575825 
L 202.098033 236.960624 
L 199.977384 238.943917 
L 197.856734 241.392449 
L 195.736085 244.14438 
L 193.615436 247.015153 
L 191.494786 249.804024 
L 189.374137 252.301067 
L 187.253488 254.294428 
L 185.132838 255.577621 
L 183.012189 255.956672 
L 180.89154 255.256913 
L 178.770891 253.32925 
L 176.650241 250.055736 
L 174.529592 245.354325 
L 172.408943 259.477157 
L 170.288293 259.47555 
L 168.167644 223.949937 
L 166.046995 213.529099 
L 163.926345 201.827882 
L 161.805696 189.025306 
L 159.685047 175.342245 
L 157.564397 161.03673 
L 155.443748 146.398095 
L 153.323099 131.740047 
L 151.20245 117.392834 
L 149.0818 103.694667 
L 146.961151 90.982599 
L 144.840502 79.583083 
L 142.719852 69.802417 
L 140.599203 61.917364 
L 138.478554 56.166158 
L 136.357904 52.740198 
L 134.237255 51.77666 
L 132.116606 53.352311 
L 129.995956 57.478754 
L 127.875307 64.099345 
L 125.754658 73.087986 
L 123.634009 84.249974 
L 121.513359 97.325052 
L 119.39271 111.992749 
L 117.272061 127.880072 
L 115.151411 144.571509 
L 113.030762 161.621281 
L 110.910113 178.567663 
L 108.789463 194.949127 
L 106.668814 210.321945 
L 104.548165 224.278801 
L 102.427515 236.467815 
L 100.306866 246.611275 
L 98.186217 254.523212 
L 96.065568 260.124799 
L 93.944918 263.456401 
L 91.824269 264.684896 
L 89.70362 264.104721 
L 87.58297 262.130867 
L 85.462321 259.281828 
L 83.341672 256.150282 
L 81.221022 253.359016 
L 79.100373 251.499348 
L 76.979724 251.049008 
L 74.859074 252.266148 
L 72.738425 255.055826 
L 70.617776 258.804976 
L 68.497127 262.181541 
L 66.376477 262.893033 
z
" clip-path="url(#pe729464c1f)" style="fill: #2ca02c; fill-opacity: 0.166667"/>
   </g>
   <g id="PolyCollection_4">
    <path d="M 66.376477 271.35412 
L 66.376477 259.498015 
L 69.655816 259.498015 
L 72.935155 259.498015 
L 76.214494 259.498015 
L 79.493833 259.498015 
L 82.773171 259.498015 
L 86.05251 259.498015 
L 89.331849 259.498015 
L 92.611188 259.498015 
L 95.890527 259.498015 
L 99.169866 259.498015 
L 102.449205 259.498015 
L 105.728543 259.498015 
L 109.007882 259.498015 
L 112.287221 259.498015 
L 115.56656 259.498015 
L 118.845899 259.498015 
L 122.125238 259.498015 
L 125.404576 259.498015 
L 128.683915 259.498015 
L 131.963254 259.498015 
L 135.242593 259.498015 
L 138.521932 259.498015 
L 141.801271 259.498015 
L 145.08061 259.498015 
L 148.359948 259.498015 
L 151.639287 259.498015 
L 154.918626 259.498015 
L 158.197965 259.498015 
L 161.477304 259.498015 
L 164.756643 259.498015 
L 168.035981 259.498015 
L 171.31532 259.498015 
L 174.594659 259.498015 
L 177.873998 259.498015 
L 181.153337 259.498015 
L 184.432676 259.498015 
L 187.712014 259.498015 
L 190.991353 259.498015 
L 194.270692 259.498015 
L 197.550031 259.498015 
L 200.82937 259.498015 
L 204.108709 259.498015 
L 207.388048 259.498015 
L 210.667386 259.498015 
L 213.946725 259.498015 
L 217.226064 259.498015 
L 220.505403 259.498015 
L 223.784742 259.498015 
L 227.064081 259.498015 
L 230.343419 259.498015 
L 233.622758 259.498015 
L 236.902097 259.498015 
L 240.181436 259.498015 
L 243.460775 259.498015 
L 246.740114 259.498015 
L 250.019452 259.498015 
L 253.298791 259.498015 
L 256.57813 259.498015 
L 259.857469 259.498015 
L 263.136808 259.498015 
L 266.416147 259.498015 
L 269.695486 259.498015 
L 272.974824 259.498015 
L 276.254163 259.498015 
L 279.533502 259.498015 
L 282.812841 259.498015 
L 286.09218 259.498015 
L 289.371519 259.498015 
L 292.650857 259.498015 
L 295.930196 259.498015 
L 299.209535 259.498015 
L 302.488874 259.498015 
L 305.768213 259.498015 
L 309.047552 259.498015 
L 312.32689 259.498015 
L 315.606229 259.498015 
L 318.885568 259.498015 
L 322.164907 259.498015 
L 325.444246 259.498015 
L 328.723585 259.498015 
L 332.002924 259.498015 
L 335.282262 259.498015 
L 338.561601 259.498015 
L 341.84094 259.498015 
L 345.120279 259.498015 
L 348.399618 259.498015 
L 351.678957 259.498015 
L 354.958295 259.498015 
L 358.237634 259.498015 
L 361.516973 259.498015 
L 364.796312 259.498015 
L 368.075651 259.498015 
L 371.35499 259.498015 
L 374.634329 259.498015 
L 377.913667 259.498015 
L 381.193006 259.498015 
L 384.472345 259.498015 
L 387.751684 259.498015 
L 391.031023 259.498015 
L 391.031023 242.270172 
L 391.031023 242.270172 
L 387.751684 260.252166 
L 384.472345 268.079134 
L 381.193006 269.389054 
L 377.913667 266.92443 
L 374.634329 262.688283 
L 371.35499 258.080682 
L 368.075651 254.017545 
L 364.796312 251.033293 
L 361.516973 249.36889 
L 358.237634 249.046671 
L 354.958295 249.933299 
L 351.678957 251.792079 
L 348.399618 254.325805 
L 345.120279 257.211194 
L 341.84094 260.125939 
L 338.561601 262.769272 
L 335.282262 264.876936 
L 332.002924 266.23131 
L 328.723585 266.667453 
L 325.444246 266.075695 
L 322.164907 264.401403 
L 318.885568 261.642455 
L 315.606229 257.844919 
L 312.32689 253.097381 
L 309.047552 247.524314 
L 305.768213 241.278839 
L 302.488874 234.535182 
L 299.209535 227.481092 
L 295.930196 220.310447 
L 292.650857 213.21624 
L 289.371519 206.384103 
L 286.09218 199.986492 
L 282.812841 194.177634 
L 279.533502 189.08931 
L 276.254163 184.827506 
L 272.974824 181.469978 
L 269.695486 179.064716 
L 266.416147 177.629294 
L 263.136808 177.15109 
L 259.857469 177.5883 
L 256.57813 178.871721 
L 253.298791 180.907206 
L 250.019452 183.578718 
L 246.740114 186.751904 
L 243.460775 190.278081 
L 240.181436 193.998553 
L 236.902097 197.749136 
L 233.622758 201.364805 
L 230.343419 259.481828 
L 227.064081 259.480182 
L 223.784742 211.301932 
L 220.505403 212.702352 
L 217.226064 213.218033 
L 213.946725 212.782058 
L 210.667386 211.35712 
L 207.388048 208.937001 
L 204.108709 205.547282 
L 200.82937 201.245222 
L 197.550031 196.118845 
L 194.270692 190.285205 
L 190.991353 183.887858 
L 187.712014 177.0936 
L 184.432676 170.088483 
L 181.153337 163.073226 
L 177.873998 156.258053 
L 174.594659 149.857097 
L 171.31532 144.08245 
L 168.035981 139.138001 
L 164.756643 135.213185 
L 161.477304 132.47679 
L 158.197965 131.070974 
L 154.918626 131.105664 
L 151.639287 132.653484 
L 148.359948 135.745402 
L 145.08061 140.367267 
L 141.801271 146.457396 
L 138.521932 153.905408 
L 135.242593 162.552454 
L 131.963254 172.193017 
L 128.683915 182.578432 
L 125.404576 193.422271 
L 122.125238 204.407716 
L 118.845899 215.197041 
L 115.56656 225.443274 
L 112.287221 234.804127 
L 109.007882 242.958219 
L 105.728543 249.623599 
L 102.449205 254.578549 
L 99.169866 257.684597 
L 95.890527 258.911629 
L 92.611188 258.364952 
L 89.331849 256.314097 
L 86.05251 253.223097 
L 82.773171 249.781932 
L 79.493833 246.938734 
L 76.214494 245.932317 
L 72.935155 248.324484 
L 69.655816 256.031513 
L 66.376477 271.35412 
z
" clip-path="url(#pe729464c1f)" style="fill: #d62728; fill-opacity: 0.166667"/>
   </g>
   <g id="PolyCollection_5">
    <path d="M 66.376477 257.443737 
L 66.376477 259.498015 
L 68.857109 259.498015 
L 71.337741 259.498015 
L 73.818373 259.498015 
L 76.299004 259.498015 
L 78.779636 259.498015 
L 81.260268 259.498015 
L 83.7409 259.498015 
L 86.221531 259.498015 
L 88.702163 259.498015 
L 91.182795 259.498015 
L 93.663427 259.498015 
L 96.144058 259.498015 
L 98.62469 259.498015 
L 101.105322 259.498015 
L 103.585954 259.498015 
L 106.066585 259.498015 
L 108.547217 259.498015 
L 111.027849 259.498015 
L 113.508481 259.498015 
L 115.989112 259.498015 
L 118.469744 259.498015 
L 120.950376 259.498015 
L 123.431008 259.498015 
L 125.911639 259.498015 
L 128.392271 259.498015 
L 130.872903 259.498015 
L 133.353535 259.498015 
L 135.834166 259.498015 
L 138.314798 259.498015 
L 140.79543 259.498015 
L 143.276062 259.498015 
L 145.756693 259.498015 
L 148.237325 259.498015 
L 150.717957 259.498015 
L 153.198589 259.498015 
L 155.67922 259.498015 
L 158.159852 259.498015 
L 160.640484 259.498015 
L 163.121116 259.498015 
L 165.601748 259.498015 
L 168.082379 259.498015 
L 170.563011 259.498015 
L 173.043643 259.498015 
L 175.524275 259.498015 
L 178.004906 259.498015 
L 180.485538 259.498015 
L 182.96617 259.498015 
L 185.446802 259.498015 
L 187.927433 259.498015 
L 190.408065 259.498015 
L 192.888697 259.498015 
L 195.369329 259.498015 
L 197.84996 259.498015 
L 200.330592 259.498015 
L 202.811224 259.498015 
L 205.291856 259.498015 
L 207.772487 259.498015 
L 210.253119 259.498015 
L 212.733751 259.498015 
L 215.214383 259.498015 
L 217.695014 259.498015 
L 220.175646 259.498015 
L 222.656278 259.498015 
L 225.13691 259.498015 
L 227.617541 259.498015 
L 230.098173 259.498015 
L 232.578805 259.498015 
L 235.059437 259.498015 
L 237.540068 259.498015 
L 240.0207 259.498015 
L 242.501332 259.498015 
L 244.981964 259.498015 
L 247.462595 259.498015 
L 249.943227 259.498015 
L 252.423859 259.498015 
L 254.904491 259.498015 
L 257.385123 259.498015 
L 259.865754 259.498015 
L 262.346386 259.498015 
L 264.827018 259.498015 
L 267.30765 259.498015 
L 269.788281 259.498015 
L 272.268913 259.498015 
L 274.749545 259.498015 
L 277.230177 259.498015 
L 279.710808 259.498015 
L 282.19144 259.498015 
L 284.672072 259.498015 
L 287.152704 259.498015 
L 289.633335 259.498015 
L 292.113967 259.498015 
L 294.594599 259.498015 
L 297.075231 259.498015 
L 299.555862 259.498015 
L 302.036494 259.498015 
L 304.517126 259.498015 
L 306.997758 259.498015 
L 309.478389 259.498015 
L 311.959021 259.498015 
L 311.959021 264.268091 
L 311.959021 264.268091 
L 309.478389 257.585094 
L 306.997758 255.212727 
L 304.517126 255.341056 
L 302.036494 256.68791 
L 299.555862 258.387282 
L 297.075231 259.89496 
L 294.594599 260.909478 
L 292.113967 261.306604 
L 289.633335 261.085755 
L 287.152704 260.326815 
L 284.672072 259.156021 
L 282.19144 257.719633 
L 279.710808 256.16428 
L 277.230177 254.622931 
L 274.749545 253.205574 
L 272.268913 251.993771 
L 269.788281 251.038337 
L 267.30765 250.359494 
L 264.827018 249.948906 
L 262.346386 249.773104 
L 259.865754 249.777844 
L 257.385123 249.893031 
L 254.904491 250.037887 
L 252.423859 250.126105 
L 249.943227 250.070757 
L 247.462595 249.788807 
L 244.981964 249.205078 
L 242.501332 248.255596 
L 240.0207 246.89024 
L 237.540068 245.074667 
L 235.059437 242.791517 
L 232.578805 240.0409 
L 230.098173 236.840207 
L 227.617541 233.223297 
L 225.13691 229.239126 
L 222.656278 224.949885 
L 220.175646 220.428741 
L 217.695014 215.757257 
L 215.214383 211.022591 
L 212.733751 206.314562 
L 210.253119 201.722673 
L 207.772487 197.333188 
L 205.291856 193.226329 
L 202.811224 189.473692 
L 200.330592 186.135938 
L 197.84996 183.260828 
L 195.369329 180.881657 
L 192.888697 179.016124 
L 190.408065 259.487187 
L 187.927433 259.486804 
L 185.446802 176.06559 
L 182.96617 176.114453 
L 180.485538 176.544599 
L 178.004906 177.282325 
L 175.524275 178.243206 
L 173.043643 179.334788 
L 170.563011 180.459628 
L 168.082379 181.518614 
L 165.601748 182.414472 
L 163.121116 183.055383 
L 160.640484 183.358604 
L 158.159852 183.253984 
L 155.67922 182.687279 
L 153.198589 181.623151 
L 150.717957 180.047732 
L 148.237325 177.970665 
L 145.756693 175.4265 
L 143.276062 172.475358 
L 140.79543 169.202783 
L 138.314798 165.718693 
L 135.834166 162.15539 
L 133.353535 158.664587 
L 130.872903 155.413434 
L 128.392271 152.579557 
L 125.911639 150.34516 
L 123.431008 148.89026 
L 120.950376 148.385177 
L 118.469744 148.982434 
L 115.989112 150.808278 
L 113.508481 153.954087 
L 111.027849 158.467969 
L 108.547217 164.346939 
L 106.066585 171.530135 
L 103.585954 179.893566 
L 101.105322 189.247018 
L 98.62469 199.333799 
L 96.144058 209.83408 
L 93.663427 220.372735 
L 91.182795 230.532628 
L 88.702163 239.874456 
L 86.221531 247.964337 
L 83.7409 254.410473 
L 81.260268 258.910347 
L 78.779636 261.310051 
L 76.299004 261.67748 
L 73.818373 260.391285 
L 71.337741 258.247649 
L 68.857109 256.587094 
L 66.376477 257.443737 
z
" clip-path="url(#pe729464c1f)" style="fill: #9467bd; fill-opacity: 0.166667"/>
   </g>
   <g id="PolyCollection_6">
    <path d="M 66.376477 255.520307 
L 66.376477 259.498015 
L 68.226865 259.498015 
L 70.077252 259.498015 
L 71.927639 259.498015 
L 73.778026 259.498015 
L 75.628413 259.498015 
L 77.478801 259.498015 
L 79.329188 259.498015 
L 81.179575 259.498015 
L 83.029962 259.498015 
L 84.88035 259.498015 
L 86.730737 259.498015 
L 88.581124 259.498015 
L 90.431511 259.498015 
L 92.281899 259.498015 
L 94.132286 259.498015 
L 95.982673 259.498015 
L 97.83306 259.498015 
L 99.683448 259.498015 
L 101.533835 259.498015 
L 103.384222 259.498015 
L 105.234609 259.498015 
L 107.084997 259.498015 
L 108.935384 259.498015 
L 110.785771 259.498015 
L 112.636158 259.498015 
L 114.486545 259.498015 
L 116.336933 259.498015 
L 118.18732 259.498015 
L 120.037707 259.498015 
L 121.888094 259.498015 
L 123.738482 259.498015 
L 125.588869 259.498015 
L 127.439256 259.498015 
L 129.289643 259.498015 
L 131.140031 259.498015 
L 132.990418 259.498015 
L 134.840805 259.498015 
L 136.691192 259.498015 
L 138.54158 259.498015 
L 140.391967 259.498015 
L 142.242354 259.498015 
L 144.092741 259.498015 
L 145.943129 259.498015 
L 147.793516 259.498015 
L 149.643903 259.498015 
L 151.49429 259.498015 
L 153.344678 259.498015 
L 155.195065 259.498015 
L 157.045452 259.498015 
L 158.895839 259.498015 
L 160.746226 259.498015 
L 162.596614 259.498015 
L 164.447001 259.498015 
L 166.297388 259.498015 
L 168.147775 259.498015 
L 169.998163 259.498015 
L 171.84855 259.498015 
L 173.698937 259.498015 
L 175.549324 259.498015 
L 177.399712 259.498015 
L 179.250099 259.498015 
L 181.100486 259.498015 
L 182.950873 259.498015 
L 184.801261 259.498015 
L 186.651648 259.498015 
L 188.502035 259.498015 
L 190.352422 259.498015 
L 192.20281 259.498015 
L 194.053197 259.498015 
L 195.903584 259.498015 
L 197.753971 259.498015 
L 199.604359 259.498015 
L 201.454746 259.498015 
L 203.305133 259.498015 
L 205.15552 259.498015 
L 207.005907 259.498015 
L 208.856295 259.498015 
L 210.706682 259.498015 
L 212.557069 259.498015 
L 214.407456 259.498015 
L 216.257844 259.498015 
L 218.108231 259.498015 
L 219.958618 259.498015 
L 221.809005 259.498015 
L 223.659393 259.498015 
L 225.50978 259.498015 
L 227.360167 259.498015 
L 229.210554 259.498015 
L 231.060942 259.498015 
L 232.911329 259.498015 
L 234.761716 259.498015 
L 236.612103 259.498015 
L 238.462491 259.498015 
L 240.312878 259.498015 
L 242.163265 259.498015 
L 244.013652 259.498015 
L 245.864039 259.498015 
L 247.714427 259.498015 
L 249.564814 259.498015 
L 249.564814 238.465214 
L 249.564814 238.465214 
L 247.714427 264.984292 
L 245.864039 275.159852 
L 244.013652 275.423669 
L 242.163265 270.429494 
L 240.312878 263.41134 
L 238.462491 256.48866 
L 236.612103 250.924103 
L 234.761716 247.339142 
L 232.911329 245.892451 
L 231.060942 246.425523 
L 229.210554 248.579656 
L 227.360167 251.888078 
L 225.50978 255.84667 
L 223.659393 259.966403 
L 221.809005 263.810345 
L 219.958618 267.017788 
L 218.108231 269.317788 
L 216.257844 270.534177 
L 214.407456 270.58386 
L 212.557069 269.469995 
L 210.706682 267.271467 
L 208.856295 264.129855 
L 207.005907 260.234938 
L 205.15552 255.809615 
L 203.305133 251.094969 
L 201.454746 246.336063 
L 199.604359 241.768943 
L 197.753971 237.609205 
L 195.903584 234.042372 
L 194.053197 231.216256 
L 192.20281 229.23539 
L 190.352422 228.15753 
L 188.502035 227.992192 
L 186.651648 228.701117 
L 184.801261 230.200522 
L 182.950873 232.364944 
L 181.100486 235.032492 
L 179.250099 238.011237 
L 177.399712 241.086534 
L 175.549324 244.02899 
L 173.698937 246.602825 
L 171.84855 248.574393 
L 169.998163 249.72057 
L 168.147775 249.83682 
L 166.297388 248.744682 
L 164.447001 246.298491 
L 162.596614 242.391153 
L 160.746226 236.958824 
L 158.895839 259.474836 
L 157.045452 259.473645 
L 155.195065 212.801225 
L 153.344678 201.715374 
L 151.49429 189.441369 
L 149.643903 176.19745 
L 147.793516 162.243343 
L 145.943129 147.874132 
L 144.092741 133.412926 
L 142.242354 119.202457 
L 140.391967 105.595822 
L 138.54158 92.946575 
L 136.691192 81.59841 
L 134.840805 71.874711 
L 132.990418 64.068235 
L 131.140031 58.431221 
L 129.289643 55.166231 
L 127.439256 54.418014 
L 125.588869 56.266684 
L 123.738482 60.72251 
L 121.888094 67.722555 
L 120.037707 77.129431 
L 118.18732 88.732344 
L 116.336933 102.250614 
L 114.486545 117.339754 
L 112.636158 133.600181 
L 110.785771 150.588505 
L 108.935384 167.831312 
L 107.084997 184.841232 
L 105.234609 201.134981 
L 103.384222 216.252973 
L 101.533835 229.779937 
L 99.683448 241.365847 
L 97.83306 250.746336 
L 95.982673 257.761557 
L 94.132286 262.372299 
L 92.281899 264.671963 
L 90.431511 264.892785 
L 88.581124 263.404453 
L 86.730737 260.70305 
L 84.88035 257.387942 
L 83.029962 254.124011 
L 81.179575 251.586279 
L 79.329188 250.383677 
L 77.478801 250.958395 
L 75.628413 253.456848 
L 73.778026 257.567966 
L 71.927639 262.324083 
L 70.077252 265.859325 
L 68.226865 265.1199 
L 66.376477 255.520307 
z
" clip-path="url(#pe729464c1f)" style="fill: #8c564b; fill-opacity: 0.166667"/>
   </g>
   <g id="matplotlib.axis_1">
    <g id="xtick_1">
     <g id="line2d_1">
      <defs>
       <path id="md497fc2bba" d="M 0 0 
L 0 3.5 
" style="stroke: #000000; stroke-width: 0.8"/>
      </defs>
      <g>
       <use xlink:href="#md497fc2bba" x="66.376477" y="288.430125" style="stroke: #000000; stroke-width: 0.8"/>
      </g>
     </g>
     <g id="text_1">
      <!-- 0.0000 -->
      <g transform="translate(48.881165 303.028562) scale(0.1 -0.1)">
       <defs>
        <path id="DejaVuSans-30" d="M 2034 4250 
Q 1547 4250 1301 3770 
Q 1056 3291 1056 2328 
Q 1056 1369 1301 889 
Q 1547 409 2034 409 
Q 2525 409 2770 889 
Q 3016 1369 3016 2328 
Q 3016 3291 2770 3770 
Q 2525 4250 2034 4250 
z
M 2034 4750 
Q 2819 4750 3233 4129 
Q 3647 3509 3647 2328 
Q 3647 1150 3233 529 
Q 2819 -91 2034 -91 
Q 1250 -91 836 529 
Q 422 1150 422 2328 
Q 422 3509 836 4129 
Q 1250 4750 2034 4750 
z
" transform="scale(0.015625)"/>
        <path id="DejaVuSans-2e" d="M 684 794 
L 1344 794 
L 1344 0 
L 684 0 
L 684 794 
z
" transform="scale(0.015625)"/>
       </defs>
       <use xlink:href="#DejaVuSans-30"/>
       <use xlink:href="#DejaVuSans-2e" x="63.623047"/>
       <use xlink:href="#DejaVuSans-30" x="95.410156"/>
       <use xlink:href="#DejaVuSans-30" x="159.033203"/>
       <use xlink:href="#DejaVuSans-30" x="222.65625"/>
       <use xlink:href="#DejaVuSans-30" x="286.279297"/>
      </g>
     </g>
    </g>
    <g id="xtick_2">
     <g id="line2d_2">
      <g>
       <use xlink:href="#md497fc2bba" x="107.826529" y="288.430125" style="stroke: #000000; stroke-width: 0.8"/>
      </g>
     </g>
     <g id="text_2">
      <!-- 0.0002 -->
      <g transform="translate(90.331217 303.028562) scale(0.1 -0.1)">
       <defs>
        <path id="DejaVuSans-32" d="M 1228 531 
L 3431 531 
L 3431 0 
L 469 0 
L 469 531 
Q 828 903 1448 1529 
Q 2069 2156 2228 2338 
Q 2531 2678 2651 2914 
Q 2772 3150 2772 3378 
Q 2772 3750 2511 3984 
Q 2250 4219 1831 4219 
Q 1534 4219 1204 4116 
Q 875 4013 500 3803 
L 500 4441 
Q 881 4594 1212 4672 
Q 1544 4750 1819 4750 
Q 2544 4750 2975 4387 
Q 3406 4025 3406 3419 
Q 3406 3131 3298 2873 
Q 3191 2616 2906 2266 
Q 2828 2175 2409 1742 
Q 1991 1309 1228 531 
z
" transform="scale(0.015625)"/>
       </defs>
       <use xlink:href="#DejaVuSans-30"/>
       <use xlink:href="#DejaVuSans-2e" x="63.623047"/>
       <use xlink:href="#DejaVuSans-30" x="95.410156"/>
       <use xlink:href="#DejaVuSans-30" x="159.033203"/>
       <use xlink:href="#DejaVuSans-30" x="222.65625"/>
       <use xlink:href="#DejaVuSans-32" x="286.279297"/>
      </g>
     </g>
    </g>
    <g id="xtick_3">
     <g id="line2d_3">
      <g>
       <use xlink:href="#md497fc2bba" x="149.276581" y="288.430125" style="stroke: #000000; stroke-width: 0.8"/>
      </g>
     </g>
     <g id="text_3">
      <!-- 0.0004 -->
      <g transform="translate(131.781269 303.028562) scale(0.1 -0.1)">
       <defs>
        <path id="DejaVuSans-34" d="M 2419 4116 
L 825 1625 
L 2419 1625 
L 2419 4116 
z
M 2253 4666 
L 3047 4666 
L 3047 1625 
L 3713 1625 
L 3713 1100 
L 3047 1100 
L 3047 0 
L 2419 0 
L 2419 1100 
L 313 1100 
L 313 1709 
L 2253 4666 
z
" transform="scale(0.015625)"/>
       </defs>
       <use xlink:href="#DejaVuSans-30"/>
       <use xlink:href="#DejaVuSans-2e" x="63.623047"/>
       <use xlink:href="#DejaVuSans-30" x="95.410156"/>
       <use xlink:href="#DejaVuSans-30" x="159.033203"/>
       <use xlink:href="#DejaVuSans-30" x="222.65625"/>
       <use xlink:href="#DejaVuSans-34" x="286.279297"/>
      </g>
     </g>
    </g>
    <g id="xtick_4">
     <g id="line2d_4">
      <g>
       <use xlink:href="#md497fc2bba" x="190.726633" y="288.430125" style="stroke: #000000; stroke-width: 0.8"/>
      </g>
     </g>
     <g id="text_4">
      <!-- 0.0006 -->
      <g transform="translate(173.231321 303.028562) scale(0.1 -0.1)">
       <defs>
        <path id="DejaVuSans-36" d="M 2113 2584 
Q 1688 2584 1439 2293 
Q 1191 2003 1191 1497 
Q 1191 994 1439 701 
Q 1688 409 2113 409 
Q 2538 409 2786 701 
Q 3034 994 3034 1497 
Q 3034 2003 2786 2293 
Q 2538 2584 2113 2584 
z
M 3366 4563 
L 3366 3988 
Q 3128 4100 2886 4159 
Q 2644 4219 2406 4219 
Q 1781 4219 1451 3797 
Q 1122 3375 1075 2522 
Q 1259 2794 1537 2939 
Q 1816 3084 2150 3084 
Q 2853 3084 3261 2657 
Q 3669 2231 3669 1497 
Q 3669 778 3244 343 
Q 2819 -91 2113 -91 
Q 1303 -91 875 529 
Q 447 1150 447 2328 
Q 447 3434 972 4092 
Q 1497 4750 2381 4750 
Q 2619 4750 2861 4703 
Q 3103 4656 3366 4563 
z
" transform="scale(0.015625)"/>
       </defs>
       <use xlink:href="#DejaVuSans-30"/>
       <use xlink:href="#DejaVuSans-2e" x="63.623047"/>
       <use xlink:href="#DejaVuSans-30" x="95.410156"/>
       <use xlink:href="#DejaVuSans-30" x="159.033203"/>
       <use xlink:href="#DejaVuSans-30" x="222.65625"/>
       <use xlink:href="#DejaVuSans-36" x="286.279297"/>
      </g>
     </g>
    </g>
    <g id="xtick_5">
     <g id="line2d_5">
      <g>
       <use xlink:href="#md497fc2bba" x="232.176686" y="288.430125" style="stroke: #000000; stroke-width: 0.8"/>
      </g>
     </g>
     <g id="text_5">
      <!-- 0.0008 -->
      <g transform="translate(214.681373 303.028562) scale(0.1 -0.1)">
       <defs>
        <path id="DejaVuSans-38" d="M 2034 2216 
Q 1584 2216 1326 1975 
Q 1069 1734 1069 1313 
Q 1069 891 1326 650 
Q 1584 409 2034 409 
Q 2484 409 2743 651 
Q 3003 894 3003 1313 
Q 3003 1734 2745 1975 
Q 2488 2216 2034 2216 
z
M 1403 2484 
Q 997 2584 770 2862 
Q 544 3141 544 3541 
Q 544 4100 942 4425 
Q 1341 4750 2034 4750 
Q 2731 4750 3128 4425 
Q 3525 4100 3525 3541 
Q 3525 3141 3298 2862 
Q 3072 2584 2669 2484 
Q 3125 2378 3379 2068 
Q 3634 1759 3634 1313 
Q 3634 634 3220 271 
Q 2806 -91 2034 -91 
Q 1263 -91 848 271 
Q 434 634 434 1313 
Q 434 1759 690 2068 
Q 947 2378 1403 2484 
z
M 1172 3481 
Q 1172 3119 1398 2916 
Q 1625 2713 2034 2713 
Q 2441 2713 2670 2916 
Q 2900 3119 2900 3481 
Q 2900 3844 2670 4047 
Q 2441 4250 2034 4250 
Q 1625 4250 1398 4047 
Q 1172 3844 1172 3481 
z
" transform="scale(0.015625)"/>
       </defs>
       <use xlink:href="#DejaVuSans-30"/>
       <use xlink:href="#DejaVuSans-2e" x="63.623047"/>
       <use xlink:href="#DejaVuSans-30" x="95.410156"/>
       <use xlink:href="#DejaVuSans-30" x="159.033203"/>
       <use xlink:href="#DejaVuSans-30" x="222.65625"/>
       <use xlink:href="#DejaVuSans-38" x="286.279297"/>
      </g>
     </g>
    </g>
    <g id="xtick_6">
     <g id="line2d_6">
      <g>
       <use xlink:href="#md497fc2bba" x="273.626738" y="288.430125" style="stroke: #000000; stroke-width: 0.8"/>
      </g>
     </g>
     <g id="text_6">
      <!-- 0.0010 -->
      <g transform="translate(256.131425 303.028562) scale(0.1 -0.1)">
       <defs>
        <path id="DejaVuSans-31" d="M 794 531 
L 1825 531 
L 1825 4091 
L 703 3866 
L 703 4441 
L 1819 4666 
L 2450 4666 
L 2450 531 
L 3481 531 
L 3481 0 
L 794 0 
L 794 531 
z
" transform="scale(0.015625)"/>
       </defs>
       <use xlink:href="#DejaVuSans-30"/>
       <use xlink:href="#DejaVuSans-2e" x="63.623047"/>
       <use xlink:href="#DejaVuSans-30" x="95.410156"/>
       <use xlink:href="#DejaVuSans-30" x="159.033203"/>
       <use xlink:href="#DejaVuSans-31" x="222.65625"/>
       <use xlink:href="#DejaVuSans-30" x="286.279297"/>
      </g>
     </g>
    </g>
    <g id="xtick_7">
     <g id="line2d_7">
      <g>
       <use xlink:href="#md497fc2bba" x="315.07679" y="288.430125" style="stroke: #000000; stroke-width: 0.8"/>
      </g>
     </g>
     <g id="text_7">
      <!-- 0.0012 -->
      <g transform="translate(297.581477 303.028562) scale(0.1 -0.1)">
       <use xlink:href="#DejaVuSans-30"/>
       <use xlink:href="#DejaVuSans-2e" x="63.623047"/>
       <use xlink:href="#DejaVuSans-30" x="95.410156"/>
       <use xlink:href="#DejaVuSans-30" x="159.033203"/>
       <use xlink:href="#DejaVuSans-31" x="222.65625"/>
       <use xlink:href="#DejaVuSans-32" x="286.279297"/>
      </g>
     </g>
    </g>
    <g id="xtick_8">
     <g id="line2d_8">
      <g>
       <use xlink:href="#md497fc2bba" x="356.526842" y="288.430125" style="stroke: #000000; stroke-width: 0.8"/>
      </g>
     </g>
     <g id="text_8">
      <!-- 0.0014 -->
      <g transform="translate(339.031529 303.028562) scale(0.1 -0.1)">
       <use xlink:href="#DejaVuSans-30"/>
       <use xlink:href="#DejaVuSans-2e" x="63.623047"/>
       <use xlink:href="#DejaVuSans-30" x="95.410156"/>
       <use xlink:href="#DejaVuSans-30" x="159.033203"/>
       <use xlink:href="#DejaVuSans-31" x="222.65625"/>
       <use xlink:href="#DejaVuSans-34" x="286.279297"/>
      </g>
     </g>
    </g>
    <g id="xtick_9">
     <g id="line2d_9">
      <g>
       <use xlink:href="#md497fc2bba" x="397.976894" y="288.430125" style="stroke: #000000; stroke-width: 0.8"/>
      </g>
     </g>
     <g id="text_9">
      <!-- 0.0016 -->
      <g transform="translate(380.481581 303.028562) scale(0.1 -0.1)">
       <use xlink:href="#DejaVuSans-30"/>
       <use xlink:href="#DejaVuSans-2e" x="63.623047"/>
       <use xlink:href="#DejaVuSans-30" x="95.410156"/>
       <use xlink:href="#DejaVuSans-30" x="159.033203"/>
       <use xlink:href="#DejaVuSans-31" x="222.65625"/>
       <use xlink:href="#DejaVuSans-36" x="286.279297"/>
      </g>
     </g>
    </g>
    <g id="text_10">
     <!-- Pixel values -->
     <g transform="translate(199.292031 316.706687) scale(0.1 -0.1)">
      <defs>
       <path id="DejaVuSans-50" d="M 1259 4147 
L 1259 2394 
L 2053 2394 
Q 2494 2394 2734 2622 
Q 2975 2850 2975 3272 
Q 2975 3691 2734 3919 
Q 2494 4147 2053 4147 
L 1259 4147 
z
M 628 4666 
L 2053 4666 
Q 2838 4666 3239 4311 
Q 3641 3956 3641 3272 
Q 3641 2581 3239 2228 
Q 2838 1875 2053 1875 
L 1259 1875 
L 1259 0 
L 628 0 
L 628 4666 
z
" transform="scale(0.015625)"/>
       <path id="DejaVuSans-69" d="M 603 3500 
L 1178 3500 
L 1178 0 
L 603 0 
L 603 3500 
z
M 603 4863 
L 1178 4863 
L 1178 4134 
L 603 4134 
L 603 4863 
z
" transform="scale(0.015625)"/>
       <path id="DejaVuSans-78" d="M 3513 3500 
L 2247 1797 
L 3578 0 
L 2900 0 
L 1881 1375 
L 863 0 
L 184 0 
L 1544 1831 
L 300 3500 
L 978 3500 
L 1906 2253 
L 2834 3500 
L 3513 3500 
z
" transform="scale(0.015625)"/>
       <path id="DejaVuSans-65" d="M 3597 1894 
L 3597 1613 
L 953 1613 
Q 991 1019 1311 708 
Q 1631 397 2203 397 
Q 2534 397 2845 478 
Q 3156 559 3463 722 
L 3463 178 
Q 3153 47 2828 -22 
Q 2503 -91 2169 -91 
Q 1331 -91 842 396 
Q 353 884 353 1716 
Q 353 2575 817 3079 
Q 1281 3584 2069 3584 
Q 2775 3584 3186 3129 
Q 3597 2675 3597 1894 
z
M 3022 2063 
Q 3016 2534 2758 2815 
Q 2500 3097 2075 3097 
Q 1594 3097 1305 2825 
Q 1016 2553 972 2059 
L 3022 2063 
z
" transform="scale(0.015625)"/>
       <path id="DejaVuSans-6c" d="M 603 4863 
L 1178 4863 
L 1178 0 
L 603 0 
L 603 4863 
z
" transform="scale(0.015625)"/>
       <path id="DejaVuSans-20" transform="scale(0.015625)"/>
       <path id="DejaVuSans-76" d="M 191 3500 
L 800 3500 
L 1894 563 
L 2988 3500 
L 3597 3500 
L 2284 0 
L 1503 0 
L 191 3500 
z
" transform="scale(0.015625)"/>
       <path id="DejaVuSans-61" d="M 2194 1759 
Q 1497 1759 1228 1600 
Q 959 1441 959 1056 
Q 959 750 1161 570 
Q 1363 391 1709 391 
Q 2188 391 2477 730 
Q 2766 1069 2766 1631 
L 2766 1759 
L 2194 1759 
z
M 3341 1997 
L 3341 0 
L 2766 0 
L 2766 531 
Q 2569 213 2275 61 
Q 1981 -91 1556 -91 
Q 1019 -91 701 211 
Q 384 513 384 1019 
Q 384 1609 779 1909 
Q 1175 2209 1959 2209 
L 2766 2209 
L 2766 2266 
Q 2766 2663 2505 2880 
Q 2244 3097 1772 3097 
Q 1472 3097 1187 3025 
Q 903 2953 641 2809 
L 641 3341 
Q 956 3463 1253 3523 
Q 1550 3584 1831 3584 
Q 2591 3584 2966 3190 
Q 3341 2797 3341 1997 
z
" transform="scale(0.015625)"/>
       <path id="DejaVuSans-75" d="M 544 1381 
L 544 3500 
L 1119 3500 
L 1119 1403 
Q 1119 906 1312 657 
Q 1506 409 1894 409 
Q 2359 409 2629 706 
Q 2900 1003 2900 1516 
L 2900 3500 
L 3475 3500 
L 3475 0 
L 2900 0 
L 2900 538 
Q 2691 219 2414 64 
Q 2138 -91 1772 -91 
Q 1169 -91 856 284 
Q 544 659 544 1381 
z
M 1991 3584 
L 1991 3584 
z
" transform="scale(0.015625)"/>
       <path id="DejaVuSans-73" d="M 2834 3397 
L 2834 2853 
Q 2591 2978 2328 3040 
Q 2066 3103 1784 3103 
Q 1356 3103 1142 2972 
Q 928 2841 928 2578 
Q 928 2378 1081 2264 
Q 1234 2150 1697 2047 
L 1894 2003 
Q 2506 1872 2764 1633 
Q 3022 1394 3022 966 
Q 3022 478 2636 193 
Q 2250 -91 1575 -91 
Q 1294 -91 989 -36 
Q 684 19 347 128 
L 347 722 
Q 666 556 975 473 
Q 1284 391 1588 391 
Q 1994 391 2212 530 
Q 2431 669 2431 922 
Q 2431 1156 2273 1281 
Q 2116 1406 1581 1522 
L 1381 1569 
Q 847 1681 609 1914 
Q 372 2147 372 2553 
Q 372 3047 722 3315 
Q 1072 3584 1716 3584 
Q 2034 3584 2315 3537 
Q 2597 3491 2834 3397 
z
" transform="scale(0.015625)"/>
      </defs>
      <use xlink:href="#DejaVuSans-50"/>
      <use xlink:href="#DejaVuSans-69" x="58.052734"/>
      <use xlink:href="#DejaVuSans-78" x="85.835938"/>
      <use xlink:href="#DejaVuSans-65" x="141.890625"/>
      <use xlink:href="#DejaVuSans-6c" x="203.414062"/>
      <use xlink:href="#DejaVuSans-20" x="231.197266"/>
      <use xlink:href="#DejaVuSans-76" x="262.984375"/>
      <use xlink:href="#DejaVuSans-61" x="322.164062"/>
      <use xlink:href="#DejaVuSans-6c" x="383.443359"/>
      <use xlink:href="#DejaVuSans-75" x="411.226562"/>
      <use xlink:href="#DejaVuSans-65" x="474.605469"/>
      <use xlink:href="#DejaVuSans-73" x="536.128906"/>
     </g>
    </g>
   </g>
   <g id="matplotlib.axis_2">
    <g id="ytick_1">
     <g id="line2d_10">
      <defs>
       <path id="ma3c0b03d24" d="M 0 0 
L -3.5 0 
" style="stroke: #000000; stroke-width: 0.8"/>
      </defs>
      <g>
       <use xlink:href="#ma3c0b03d24" x="50.14375" y="259.498015" style="stroke: #000000; stroke-width: 0.8"/>
      </g>
     </g>
     <g id="text_11">
      <!-- 0.00 -->
      <g transform="translate(20.878125 263.297234) scale(0.1 -0.1)">
       <use xlink:href="#DejaVuSans-30"/>
       <use xlink:href="#DejaVuSans-2e" x="63.623047"/>
       <use xlink:href="#DejaVuSans-30" x="95.410156"/>
       <use xlink:href="#DejaVuSans-30" x="159.033203"/>
      </g>
     </g>
    </g>
    <g id="ytick_2">
     <g id="line2d_11">
      <g>
       <use xlink:href="#ma3c0b03d24" x="50.14375" y="213.739254" style="stroke: #000000; stroke-width: 0.8"/>
      </g>
     </g>
     <g id="text_12">
      <!-- 0.01 -->
      <g transform="translate(20.878125 217.538473) scale(0.1 -0.1)">
       <use xlink:href="#DejaVuSans-30"/>
       <use xlink:href="#DejaVuSans-2e" x="63.623047"/>
       <use xlink:href="#DejaVuSans-30" x="95.410156"/>
       <use xlink:href="#DejaVuSans-31" x="159.033203"/>
      </g>
     </g>
    </g>
    <g id="ytick_3">
     <g id="line2d_12">
      <g>
       <use xlink:href="#ma3c0b03d24" x="50.14375" y="167.980494" style="stroke: #000000; stroke-width: 0.8"/>
      </g>
     </g>
     <g id="text_13">
      <!-- 0.02 -->
      <g transform="translate(20.878125 171.779712) scale(0.1 -0.1)">
       <use xlink:href="#DejaVuSans-30"/>
       <use xlink:href="#DejaVuSans-2e" x="63.623047"/>
       <use xlink:href="#DejaVuSans-30" x="95.410156"/>
       <use xlink:href="#DejaVuSans-32" x="159.033203"/>
      </g>
     </g>
    </g>
    <g id="ytick_4">
     <g id="line2d_13">
      <g>
       <use xlink:href="#ma3c0b03d24" x="50.14375" y="122.221733" style="stroke: #000000; stroke-width: 0.8"/>
      </g>
     </g>
     <g id="text_14">
      <!-- 0.03 -->
      <g transform="translate(20.878125 126.020952) scale(0.1 -0.1)">
       <defs>
        <path id="DejaVuSans-33" d="M 2597 2516 
Q 3050 2419 3304 2112 
Q 3559 1806 3559 1356 
Q 3559 666 3084 287 
Q 2609 -91 1734 -91 
Q 1441 -91 1130 -33 
Q 819 25 488 141 
L 488 750 
Q 750 597 1062 519 
Q 1375 441 1716 441 
Q 2309 441 2620 675 
Q 2931 909 2931 1356 
Q 2931 1769 2642 2001 
Q 2353 2234 1838 2234 
L 1294 2234 
L 1294 2753 
L 1863 2753 
Q 2328 2753 2575 2939 
Q 2822 3125 2822 3475 
Q 2822 3834 2567 4026 
Q 2313 4219 1838 4219 
Q 1578 4219 1281 4162 
Q 984 4106 628 3988 
L 628 4550 
Q 988 4650 1302 4700 
Q 1616 4750 1894 4750 
Q 2613 4750 3031 4423 
Q 3450 4097 3450 3541 
Q 3450 3153 3228 2886 
Q 3006 2619 2597 2516 
z
" transform="scale(0.015625)"/>
       </defs>
       <use xlink:href="#DejaVuSans-30"/>
       <use xlink:href="#DejaVuSans-2e" x="63.623047"/>
       <use xlink:href="#DejaVuSans-30" x="95.410156"/>
       <use xlink:href="#DejaVuSans-33" x="159.033203"/>
      </g>
     </g>
    </g>
    <g id="ytick_5">
     <g id="line2d_14">
      <g>
       <use xlink:href="#ma3c0b03d24" x="50.14375" y="76.462973" style="stroke: #000000; stroke-width: 0.8"/>
      </g>
     </g>
     <g id="text_15">
      <!-- 0.04 -->
      <g transform="translate(20.878125 80.262191) scale(0.1 -0.1)">
       <use xlink:href="#DejaVuSans-30"/>
       <use xlink:href="#DejaVuSans-2e" x="63.623047"/>
       <use xlink:href="#DejaVuSans-30" x="95.410156"/>
       <use xlink:href="#DejaVuSans-34" x="159.033203"/>
      </g>
     </g>
    </g>
    <g id="ytick_6">
     <g id="line2d_15">
      <g>
       <use xlink:href="#ma3c0b03d24" x="50.14375" y="30.704212" style="stroke: #000000; stroke-width: 0.8"/>
      </g>
     </g>
     <g id="text_16">
      <!-- 0.05 -->
      <g transform="translate(20.878125 34.503431) scale(0.1 -0.1)">
       <defs>
        <path id="DejaVuSans-35" d="M 691 4666 
L 3169 4666 
L 3169 4134 
L 1269 4134 
L 1269 2991 
Q 1406 3038 1543 3061 
Q 1681 3084 1819 3084 
Q 2600 3084 3056 2656 
Q 3513 2228 3513 1497 
Q 3513 744 3044 326 
Q 2575 -91 1722 -91 
Q 1428 -91 1123 -41 
Q 819 9 494 109 
L 494 744 
Q 775 591 1075 516 
Q 1375 441 1709 441 
Q 2250 441 2565 725 
Q 2881 1009 2881 1497 
Q 2881 1984 2565 2268 
Q 2250 2553 1709 2553 
Q 1456 2553 1204 2497 
Q 953 2441 691 2322 
L 691 4666 
z
" transform="scale(0.015625)"/>
       </defs>
       <use xlink:href="#DejaVuSans-30"/>
       <use xlink:href="#DejaVuSans-2e" x="63.623047"/>
       <use xlink:href="#DejaVuSans-30" x="95.410156"/>
       <use xlink:href="#DejaVuSans-35" x="159.033203"/>
      </g>
     </g>
    </g>
    <g id="text_17">
     <!-- Frequency -->
     <g transform="translate(14.798438 181.203812) rotate(-90) scale(0.1 -0.1)">
      <defs>
       <path id="DejaVuSans-46" d="M 628 4666 
L 3309 4666 
L 3309 4134 
L 1259 4134 
L 1259 2759 
L 3109 2759 
L 3109 2228 
L 1259 2228 
L 1259 0 
L 628 0 
L 628 4666 
z
" transform="scale(0.015625)"/>
       <path id="DejaVuSans-72" d="M 2631 2963 
Q 2534 3019 2420 3045 
Q 2306 3072 2169 3072 
Q 1681 3072 1420 2755 
Q 1159 2438 1159 1844 
L 1159 0 
L 581 0 
L 581 3500 
L 1159 3500 
L 1159 2956 
Q 1341 3275 1631 3429 
Q 1922 3584 2338 3584 
Q 2397 3584 2469 3576 
Q 2541 3569 2628 3553 
L 2631 2963 
z
" transform="scale(0.015625)"/>
       <path id="DejaVuSans-71" d="M 947 1747 
Q 947 1113 1208 752 
Q 1469 391 1925 391 
Q 2381 391 2643 752 
Q 2906 1113 2906 1747 
Q 2906 2381 2643 2742 
Q 2381 3103 1925 3103 
Q 1469 3103 1208 2742 
Q 947 2381 947 1747 
z
M 2906 525 
Q 2725 213 2448 61 
Q 2172 -91 1784 -91 
Q 1150 -91 751 415 
Q 353 922 353 1747 
Q 353 2572 751 3078 
Q 1150 3584 1784 3584 
Q 2172 3584 2448 3432 
Q 2725 3281 2906 2969 
L 2906 3500 
L 3481 3500 
L 3481 -1331 
L 2906 -1331 
L 2906 525 
z
" transform="scale(0.015625)"/>
       <path id="DejaVuSans-6e" d="M 3513 2113 
L 3513 0 
L 2938 0 
L 2938 2094 
Q 2938 2591 2744 2837 
Q 2550 3084 2163 3084 
Q 1697 3084 1428 2787 
Q 1159 2491 1159 1978 
L 1159 0 
L 581 0 
L 581 3500 
L 1159 3500 
L 1159 2956 
Q 1366 3272 1645 3428 
Q 1925 3584 2291 3584 
Q 2894 3584 3203 3211 
Q 3513 2838 3513 2113 
z
" transform="scale(0.015625)"/>
       <path id="DejaVuSans-63" d="M 3122 3366 
L 3122 2828 
Q 2878 2963 2633 3030 
Q 2388 3097 2138 3097 
Q 1578 3097 1268 2742 
Q 959 2388 959 1747 
Q 959 1106 1268 751 
Q 1578 397 2138 397 
Q 2388 397 2633 464 
Q 2878 531 3122 666 
L 3122 134 
Q 2881 22 2623 -34 
Q 2366 -91 2075 -91 
Q 1284 -91 818 406 
Q 353 903 353 1747 
Q 353 2603 823 3093 
Q 1294 3584 2113 3584 
Q 2378 3584 2631 3529 
Q 2884 3475 3122 3366 
z
" transform="scale(0.015625)"/>
       <path id="DejaVuSans-79" d="M 2059 -325 
Q 1816 -950 1584 -1140 
Q 1353 -1331 966 -1331 
L 506 -1331 
L 506 -850 
L 844 -850 
Q 1081 -850 1212 -737 
Q 1344 -625 1503 -206 
L 1606 56 
L 191 3500 
L 800 3500 
L 1894 763 
L 2988 3500 
L 3597 3500 
L 2059 -325 
z
" transform="scale(0.015625)"/>
      </defs>
      <use xlink:href="#DejaVuSans-46"/>
      <use xlink:href="#DejaVuSans-72" x="50.269531"/>
      <use xlink:href="#DejaVuSans-65" x="89.132812"/>
      <use xlink:href="#DejaVuSans-71" x="150.65625"/>
      <use xlink:href="#DejaVuSans-75" x="214.132812"/>
      <use xlink:href="#DejaVuSans-65" x="277.511719"/>
      <use xlink:href="#DejaVuSans-6e" x="339.035156"/>
      <use xlink:href="#DejaVuSans-63" x="402.414062"/>
      <use xlink:href="#DejaVuSans-79" x="457.394531"/>
     </g>
    </g>
   </g>
   <g id="line2d_16">
    <path d="M 66.376477 259.394218 
L 69.078132 260.38627 
L 71.779787 260.123016 
L 74.481441 259.34796 
L 77.183096 258.53386 
L 79.88475 257.943554 
L 82.586405 257.681571 
L 85.28806 257.737488 
L 87.989714 258.02195 
L 90.691369 258.396183 
L 93.393024 258.695773 
L 96.094678 258.74943 
L 98.796333 258.393378 
L 101.497987 257.48198 
L 104.199642 255.895149 
L 106.901297 253.543021 
L 109.602951 250.368365 
L 112.304606 246.347116 
L 115.00626 241.487412 
L 117.707915 235.827442 
L 120.40957 229.432407 
L 123.111224 222.390839 
L 125.812879 214.81051 
L 128.514534 206.814101 
L 131.216188 198.534824 
L 133.917843 190.112107 
L 136.619497 181.687469 
L 139.321152 173.400686 
L 142.022807 165.386293 
L 144.724461 157.770511 
L 147.426116 150.668601 
L 150.127771 144.182696 
L 152.829425 138.400113 
L 155.53108 133.392124 
L 158.232734 129.213212 
L 160.934389 125.900749 
L 163.636044 123.475105 
L 166.337698 121.940126 
L 169.039353 121.283962 
L 171.741008 121.480187 
L 174.442662 122.489175 
L 177.144317 124.259686 
L 179.845971 126.7306 
L 182.547626 129.832776 
L 185.249281 133.490957 
L 187.950935 137.625711 
L 190.65259 142.155328 
L 193.354245 146.997672 
L 196.055899 152.07191 
L 198.757554 259.478282 
L 201.459208 259.478613 
L 204.160863 167.873539 
L 206.862518 173.171168 
L 209.564172 178.368213 
L 212.265827 183.417608 
L 214.967482 188.280624 
L 217.669136 192.927052 
L 220.370791 197.335153 
L 223.072445 201.491403 
L 225.7741 205.390028 
L 228.475755 209.032358 
L 231.177409 212.426022 
L 233.879064 215.584003 
L 236.580719 218.523592 
L 239.282373 221.265259 
L 241.984028 223.831493 
L 244.685682 226.245624 
L 247.387337 228.530689 
L 250.088992 230.708357 
L 252.790646 232.797954 
L 255.492301 234.81564 
L 258.193955 236.773739 
L 260.89561 238.680279 
L 263.597265 240.538747 
L 266.298919 242.348093 
L 269.000574 244.102975 
L 271.702229 245.794276 
L 274.403883 247.409857 
L 277.105538 248.935552 
L 279.807192 250.356375 
L 282.508847 251.657881 
L 285.210502 252.827644 
L 287.912156 253.856763 
L 290.613811 254.741319 
L 293.315466 255.483655 
L 296.01712 256.093354 
L 298.718775 256.587762 
L 301.420429 256.991857 
L 304.122084 257.337272 
L 306.823739 257.660212 
L 309.525393 257.998009 
L 312.227048 258.383997 
L 314.928703 258.84037 
L 317.630357 259.368637 
L 320.332012 259.937257 
L 323.033666 260.465981 
L 325.735321 260.806401 
L 328.436976 260.718129 
L 331.13863 259.840013 
L 333.840285 257.655711 
" clip-path="url(#pe729464c1f)" style="fill: none; stroke: #1f77b4; stroke-width: 1.5; stroke-linecap: square"/>
   </g>
   <g id="line2d_17">
    <path d="M 66.376477 260.72393 
L 68.165727 264.194312 
L 69.954976 262.075684 
L 71.744226 257.941637 
L 73.533475 254.035192 
L 75.322725 251.584895 
L 77.111974 251.069502 
L 78.901224 252.437108 
L 80.690473 255.284093 
L 82.479723 258.998864 
L 84.268972 262.874931 
L 86.058222 266.197479 
L 87.847471 268.307249 
L 89.636721 268.645143 
L 91.42597 266.780701 
L 93.21522 262.427238 
L 95.00447 255.446154 
L 96.793719 245.842675 
L 98.582969 233.754983 
L 100.372218 219.438495 
L 102.161468 203.246802 
L 103.950717 185.610576 
L 105.739967 167.015566 
L 107.529216 147.980612 
L 109.318466 129.036463 
L 111.107715 110.706011 
L 112.896965 93.486433 
L 114.686214 77.833602 
L 116.475464 64.149016 
L 118.264713 52.769403 
L 120.053963 43.95905 
L 121.843212 37.904852 
L 123.632462 34.713995 
L 125.421711 34.414125 
L 127.210961 36.955828 
L 129.00021 42.217175 
L 130.78946 50.010091 
L 132.578709 60.088253 
L 134.367959 72.156221 
L 136.157208 85.8795 
L 137.946458 100.89523 
L 139.735707 116.823176 
L 141.524957 133.276752 
L 143.314206 149.873777 
L 145.103456 166.24671 
L 146.892705 182.052113 
L 148.681955 196.979141 
L 150.471204 210.756868 
L 152.260454 223.160287 
L 154.049704 259.473833 
L 155.838953 259.475413 
L 157.628203 249.768193 
L 159.417452 255.785242 
L 161.206702 260.133202 
L 162.995951 262.887679 
L 164.785201 264.168269 
L 166.57445 264.133422 
L 168.3637 262.974252 
L 170.152949 260.907441 
L 171.942199 258.167426 
L 173.731448 254.998086 
L 175.520698 251.644141 
L 177.309947 248.342518 
L 179.099197 245.313918 
L 180.888446 242.754854 
L 182.677696 240.830409 
L 184.466945 239.66797 
L 186.256195 239.352176 
L 188.045444 239.921307 
L 189.834694 241.365317 
L 191.623943 243.625683 
L 193.413193 246.5972 
L 195.202442 250.131821 
L 196.991692 254.044565 
L 198.780941 258.121471 
L 200.570191 262.129508 
L 202.35944 265.828244 
L 204.14869 268.98302 
L 205.937939 271.379245 
L 207.727189 272.837339 
L 209.516438 273.227705 
L 211.305688 272.485002 
L 213.094938 270.620811 
L 214.884187 267.733668 
L 216.673437 264.015224 
L 218.462686 259.751141 
L 220.251936 255.315102 
L 222.041185 251.154137 
L 223.830435 247.763199 
L 225.619684 245.646711 
L 227.408934 245.264537 
L 229.198183 246.959546 
L 230.987433 250.863672 
L 232.776682 256.779031 
L 234.565932 264.030374 
L 236.355181 271.284777 
L 238.144431 276.334125 
L 239.93368 275.83558 
L 241.72293 265.004803 
L 243.512179 237.256303 
" clip-path="url(#pe729464c1f)" style="fill: none; stroke: #ff7f0e; stroke-width: 1.5; stroke-linecap: square"/>
   </g>
   <g id="line2d_18">
    <path d="M 66.376477 262.893033 
L 68.497127 262.181541 
L 70.617776 258.804976 
L 72.738425 255.055826 
L 74.859074 252.266148 
L 76.979724 251.049008 
L 79.100373 251.499348 
L 81.221022 253.359016 
L 83.341672 256.150282 
L 85.462321 259.281828 
L 87.58297 262.130867 
L 89.70362 264.104721 
L 91.824269 264.684896 
L 93.944918 263.456401 
L 96.065568 260.124799 
L 98.186217 254.523212 
L 100.306866 246.611275 
L 102.427515 236.467815 
L 104.548165 224.278801 
L 106.668814 210.321945 
L 108.789463 194.949127 
L 110.910113 178.567663 
L 113.030762 161.621281 
L 115.151411 144.571509 
L 117.272061 127.880072 
L 119.39271 111.992749 
L 121.513359 97.325052 
L 123.634009 84.249974 
L 125.754658 73.087986 
L 127.875307 64.099345 
L 129.995956 57.478754 
L 132.116606 53.352311 
L 134.237255 51.77666 
L 136.357904 52.740198 
L 138.478554 56.166158 
L 140.599203 61.917364 
L 142.719852 69.802417 
L 144.840502 79.583083 
L 146.961151 90.982599 
L 149.0818 103.694667 
L 151.20245 117.392834 
L 153.323099 131.740047 
L 155.443748 146.398095 
L 157.564397 161.03673 
L 159.685047 175.342245 
L 161.805696 189.025306 
L 163.926345 201.827882 
L 166.046995 213.529099 
L 168.167644 223.949937 
L 170.288293 259.47555 
L 172.408943 259.477157 
L 174.529592 245.354325 
L 176.650241 250.055736 
L 178.770891 253.32925 
L 180.89154 255.256913 
L 183.012189 255.956672 
L 185.132838 255.577621 
L 187.253488 254.294428 
L 189.374137 252.301067 
L 191.494786 249.804024 
L 193.615436 247.015153 
L 195.736085 244.14438 
L 197.856734 241.392449 
L 199.977384 238.943917 
L 202.098033 236.960624 
L 204.218682 235.575825 
L 206.339332 234.889215 
L 208.459981 234.963018 
L 210.58063 235.819339 
L 212.701279 237.438927 
L 214.821929 239.761481 
L 216.942578 242.687608 
L 219.063227 246.08248 
L 221.183877 249.781224 
L 223.304526 253.595989 
L 225.425175 257.324608 
L 227.545825 260.760674 
L 229.666474 263.704812 
L 231.787123 265.976795 
L 233.907772 267.42811 
L 236.028422 267.954434 
L 238.149071 267.507406 
L 240.26972 266.104931 
L 242.39037 263.839134 
L 244.511019 260.880943 
L 246.631668 257.480127 
L 248.752318 253.959429 
L 250.872967 250.701312 
L 252.993616 248.125581 
L 255.114266 246.656014 
L 257.234915 246.673862 
L 259.355564 248.455913 
L 261.476213 252.094525 
L 263.596863 257.396833 
L 265.717512 263.760022 
L 267.838161 270.019326 
L 269.958811 274.265095 
L 272.07946 273.624969 
L 274.200109 264.006882 
L 276.320759 239.798281 
" clip-path="url(#pe729464c1f)" style="fill: none; stroke: #2ca02c; stroke-width: 1.5; stroke-linecap: square"/>
   </g>
   <g id="line2d_19">
    <path d="M 66.376477 271.35412 
L 69.655816 256.031513 
L 72.935155 248.324484 
L 76.214494 245.932317 
L 79.493833 246.938734 
L 82.773171 249.781932 
L 86.05251 253.223097 
L 89.331849 256.314097 
L 92.611188 258.364952 
L 95.890527 258.911629 
L 99.169866 257.684597 
L 102.449205 254.578549 
L 105.728543 249.623599 
L 109.007882 242.958219 
L 112.287221 234.804127 
L 115.56656 225.443274 
L 118.845899 215.197041 
L 122.125238 204.407716 
L 125.404576 193.422271 
L 128.683915 182.578432 
L 131.963254 172.193017 
L 135.242593 162.552454 
L 138.521932 153.905408 
L 141.801271 146.457396 
L 145.08061 140.367267 
L 148.359948 135.745402 
L 151.639287 132.653484 
L 154.918626 131.105664 
L 158.197965 131.070974 
L 161.477304 132.47679 
L 164.756643 135.213185 
L 168.035981 139.138001 
L 171.31532 144.08245 
L 174.594659 149.857097 
L 177.873998 156.258053 
L 181.153337 163.073226 
L 184.432676 170.088483 
L 187.712014 177.0936 
L 190.991353 183.887858 
L 194.270692 190.285205 
L 197.550031 196.118845 
L 200.82937 201.245222 
L 204.108709 205.547282 
L 207.388048 208.937001 
L 210.667386 211.35712 
L 213.946725 212.782058 
L 217.226064 213.218033 
L 220.505403 212.702352 
L 223.784742 211.301932 
L 227.064081 259.480182 
L 230.343419 259.481828 
L 233.622758 201.364805 
L 236.902097 197.749136 
L 240.181436 193.998553 
L 243.460775 190.278081 
L 246.740114 186.751904 
L 250.019452 183.578718 
L 253.298791 180.907206 
L 256.57813 178.871721 
L 259.857469 177.5883 
L 263.136808 177.15109 
L 266.416147 177.629294 
L 269.695486 179.064716 
L 272.974824 181.469978 
L 276.254163 184.827506 
L 279.533502 189.08931 
L 282.812841 194.177634 
L 286.09218 199.986492 
L 289.371519 206.384103 
L 292.650857 213.21624 
L 295.930196 220.310447 
L 299.209535 227.481092 
L 302.488874 234.535182 
L 305.768213 241.278839 
L 309.047552 247.524314 
L 312.32689 253.097381 
L 315.606229 257.844919 
L 318.885568 261.642455 
L 322.164907 264.401403 
L 325.444246 266.075695 
L 328.723585 266.667453 
L 332.002924 266.23131 
L 335.282262 264.876936 
L 338.561601 262.769272 
L 341.84094 260.125939 
L 345.120279 257.211194 
L 348.399618 254.325805 
L 351.678957 251.792079 
L 354.958295 249.933299 
L 358.237634 249.046671 
L 361.516973 249.36889 
L 364.796312 251.033293 
L 368.075651 254.017545 
L 371.35499 258.080682 
L 374.634329 262.688283 
L 377.913667 266.92443 
L 381.193006 269.389054 
L 384.472345 268.079134 
L 387.751684 260.252166 
L 391.031023 242.270172 
" clip-path="url(#pe729464c1f)" style="fill: none; stroke: #d62728; stroke-width: 1.5; stroke-linecap: square"/>
   </g>
   <g id="line2d_20">
    <path d="M 66.376477 257.443737 
L 68.857109 256.587094 
L 71.337741 258.247649 
L 73.818373 260.391285 
L 76.299004 261.67748 
L 78.779636 261.310051 
L 81.260268 258.910347 
L 83.7409 254.410473 
L 86.221531 247.964337 
L 88.702163 239.874456 
L 91.182795 230.532628 
L 93.663427 220.372735 
L 96.144058 209.83408 
L 98.62469 199.333799 
L 101.105322 189.247018 
L 103.585954 179.893566 
L 106.066585 171.530135 
L 108.547217 164.346939 
L 111.027849 158.467969 
L 113.508481 153.954087 
L 115.989112 150.808278 
L 118.469744 148.982434 
L 120.950376 148.385177 
L 123.431008 148.89026 
L 125.911639 150.34516 
L 128.392271 152.579557 
L 130.872903 155.413434 
L 133.353535 158.664587 
L 135.834166 162.15539 
L 138.314798 165.718693 
L 140.79543 169.202783 
L 143.276062 172.475358 
L 145.756693 175.4265 
L 148.237325 177.970665 
L 150.717957 180.047732 
L 153.198589 181.623151 
L 155.67922 182.687279 
L 158.159852 183.253984 
L 160.640484 183.358604 
L 163.121116 183.055383 
L 165.601748 182.414472 
L 168.082379 181.518614 
L 170.563011 180.459628 
L 173.043643 179.334788 
L 175.524275 178.243206 
L 178.004906 177.282325 
L 180.485538 176.544599 
L 182.96617 176.114453 
L 185.446802 176.06559 
L 187.927433 259.486804 
L 190.408065 259.487187 
L 192.888697 179.016124 
L 195.369329 180.881657 
L 197.84996 183.260828 
L 200.330592 186.135938 
L 202.811224 189.473692 
L 205.291856 193.226329 
L 207.772487 197.333188 
L 210.253119 201.722673 
L 212.733751 206.314562 
L 215.214383 211.022591 
L 217.695014 215.757257 
L 220.175646 220.428741 
L 222.656278 224.949885 
L 225.13691 229.239126 
L 227.617541 233.223297 
L 230.098173 236.840207 
L 232.578805 240.0409 
L 235.059437 242.791517 
L 237.540068 245.074667 
L 240.0207 246.89024 
L 242.501332 248.255596 
L 244.981964 249.205078 
L 247.462595 249.788807 
L 249.943227 250.070757 
L 252.423859 250.126105 
L 254.904491 250.037887 
L 257.385123 249.893031 
L 259.865754 249.777844 
L 262.346386 249.773104 
L 264.827018 249.948906 
L 267.30765 250.359494 
L 269.788281 251.038337 
L 272.268913 251.993771 
L 274.749545 253.205574 
L 277.230177 254.622931 
L 279.710808 256.16428 
L 282.19144 257.719633 
L 284.672072 259.156021 
L 287.152704 260.326815 
L 289.633335 261.085755 
L 292.113967 261.306604 
L 294.594599 260.909478 
L 297.075231 259.89496 
L 299.555862 258.387282 
L 302.036494 256.68791 
L 304.517126 255.341056 
L 306.997758 255.212727 
L 309.478389 257.585094 
L 311.959021 264.268091 
" clip-path="url(#pe729464c1f)" style="fill: none; stroke: #9467bd; stroke-width: 1.5; stroke-linecap: square"/>
   </g>
   <g id="line2d_21">
    <path d="M 66.376477 255.520307 
L 68.226865 265.1199 
L 70.077252 265.859325 
L 71.927639 262.324083 
L 73.778026 257.567966 
L 75.628413 253.456848 
L 77.478801 250.958395 
L 79.329188 250.383677 
L 81.179575 251.586279 
L 83.029962 254.124011 
L 84.88035 257.387942 
L 86.730737 260.70305 
L 88.581124 263.404453 
L 90.431511 264.892785 
L 92.281899 264.671963 
L 94.132286 262.372299 
L 95.982673 257.761557 
L 97.83306 250.746336 
L 99.683448 241.365847 
L 101.533835 229.779937 
L 103.384222 216.252973 
L 105.234609 201.134981 
L 107.084997 184.841232 
L 108.935384 167.831312 
L 110.785771 150.588505 
L 112.636158 133.600181 
L 114.486545 117.339754 
L 116.336933 102.250614 
L 118.18732 88.732344 
L 120.037707 77.129431 
L 121.888094 67.722555 
L 123.738482 60.72251 
L 125.588869 56.266684 
L 127.439256 54.418014 
L 129.289643 55.166231 
L 131.140031 58.431221 
L 132.990418 64.068235 
L 134.840805 71.874711 
L 136.691192 81.59841 
L 138.54158 92.946575 
L 140.391967 105.595822 
L 142.242354 119.202457 
L 144.092741 133.412926 
L 145.943129 147.874132 
L 147.793516 162.243343 
L 149.643903 176.19745 
L 151.49429 189.441369 
L 153.344678 201.715374 
L 155.195065 212.801225 
L 157.045452 259.473645 
L 158.895839 259.474836 
L 160.746226 236.958824 
L 162.596614 242.391153 
L 164.447001 246.298491 
L 166.297388 248.744682 
L 168.147775 249.83682 
L 169.998163 249.72057 
L 171.84855 248.574393 
L 173.698937 246.602825 
L 175.549324 244.02899 
L 177.399712 241.086534 
L 179.250099 238.011237 
L 181.100486 235.032492 
L 182.950873 232.364944 
L 184.801261 230.200522 
L 186.651648 228.701117 
L 188.502035 227.992192 
L 190.352422 228.15753 
L 192.20281 229.23539 
L 194.053197 231.216256 
L 195.903584 234.042372 
L 197.753971 237.609205 
L 199.604359 241.768943 
L 201.454746 246.336063 
L 203.305133 251.094969 
L 205.15552 255.809615 
L 207.005907 260.234938 
L 208.856295 264.129855 
L 210.706682 267.271467 
L 212.557069 269.469995 
L 214.407456 270.58386 
L 216.257844 270.534177 
L 218.108231 269.317788 
L 219.958618 267.017788 
L 221.809005 263.810345 
L 223.659393 259.966403 
L 225.50978 255.84667 
L 227.360167 251.888078 
L 229.210554 248.579656 
L 231.060942 246.425523 
L 232.911329 245.892451 
L 234.761716 247.339142 
L 236.612103 250.924103 
L 238.462491 256.48866 
L 240.312878 263.41134 
L 242.163265 270.429494 
L 244.013652 275.423669 
L 245.864039 275.159852 
L 247.714427 264.984292 
L 249.564814 238.465214 
" clip-path="url(#pe729464c1f)" style="fill: none; stroke: #8c564b; stroke-width: 1.5; stroke-linecap: square"/>
   </g>
   <g id="patch_3">
    <path d="M 50.14375 288.430125 
L 50.14375 22.318125 
" style="fill: none; stroke: #000000; stroke-width: 0.8; stroke-linejoin: miter; stroke-linecap: square"/>
   </g>
   <g id="patch_4">
    <path d="M 407.26375 288.430125 
L 407.26375 22.318125 
" style="fill: none; stroke: #000000; stroke-width: 0.8; stroke-linejoin: miter; stroke-linecap: square"/>
   </g>
   <g id="patch_5">
    <path d="M 50.14375 288.430125 
L 407.26375 288.430125 
" style="fill: none; stroke: #000000; stroke-width: 0.8; stroke-linejoin: miter; stroke-linecap: square"/>
   </g>
   <g id="patch_6">
    <path d="M 50.14375 22.318125 
L 407.26375 22.318125 
" style="fill: none; stroke: #000000; stroke-width: 0.8; stroke-linejoin: miter; stroke-linecap: square"/>
   </g>
   <g id="text_18">
    <!-- RD - harvardoxford-subcortical_prob_Right_Thalamus -->
    <g transform="translate(68.920938 16.318125) scale(0.12 -0.12)">
     <defs>
      <path id="DejaVuSans-52" d="M 2841 2188 
Q 3044 2119 3236 1894 
Q 3428 1669 3622 1275 
L 4263 0 
L 3584 0 
L 2988 1197 
Q 2756 1666 2539 1819 
Q 2322 1972 1947 1972 
L 1259 1972 
L 1259 0 
L 628 0 
L 628 4666 
L 2053 4666 
Q 2853 4666 3247 4331 
Q 3641 3997 3641 3322 
Q 3641 2881 3436 2590 
Q 3231 2300 2841 2188 
z
M 1259 4147 
L 1259 2491 
L 2053 2491 
Q 2509 2491 2742 2702 
Q 2975 2913 2975 3322 
Q 2975 3731 2742 3939 
Q 2509 4147 2053 4147 
L 1259 4147 
z
" transform="scale(0.015625)"/>
      <path id="DejaVuSans-44" d="M 1259 4147 
L 1259 519 
L 2022 519 
Q 2988 519 3436 956 
Q 3884 1394 3884 2338 
Q 3884 3275 3436 3711 
Q 2988 4147 2022 4147 
L 1259 4147 
z
M 628 4666 
L 1925 4666 
Q 3281 4666 3915 4102 
Q 4550 3538 4550 2338 
Q 4550 1131 3912 565 
Q 3275 0 1925 0 
L 628 0 
L 628 4666 
z
" transform="scale(0.015625)"/>
      <path id="DejaVuSans-2d" d="M 313 2009 
L 1997 2009 
L 1997 1497 
L 313 1497 
L 313 2009 
z
" transform="scale(0.015625)"/>
      <path id="DejaVuSans-68" d="M 3513 2113 
L 3513 0 
L 2938 0 
L 2938 2094 
Q 2938 2591 2744 2837 
Q 2550 3084 2163 3084 
Q 1697 3084 1428 2787 
Q 1159 2491 1159 1978 
L 1159 0 
L 581 0 
L 581 4863 
L 1159 4863 
L 1159 2956 
Q 1366 3272 1645 3428 
Q 1925 3584 2291 3584 
Q 2894 3584 3203 3211 
Q 3513 2838 3513 2113 
z
" transform="scale(0.015625)"/>
      <path id="DejaVuSans-64" d="M 2906 2969 
L 2906 4863 
L 3481 4863 
L 3481 0 
L 2906 0 
L 2906 525 
Q 2725 213 2448 61 
Q 2172 -91 1784 -91 
Q 1150 -91 751 415 
Q 353 922 353 1747 
Q 353 2572 751 3078 
Q 1150 3584 1784 3584 
Q 2172 3584 2448 3432 
Q 2725 3281 2906 2969 
z
M 947 1747 
Q 947 1113 1208 752 
Q 1469 391 1925 391 
Q 2381 391 2643 752 
Q 2906 1113 2906 1747 
Q 2906 2381 2643 2742 
Q 2381 3103 1925 3103 
Q 1469 3103 1208 2742 
Q 947 2381 947 1747 
z
" transform="scale(0.015625)"/>
      <path id="DejaVuSans-6f" d="M 1959 3097 
Q 1497 3097 1228 2736 
Q 959 2375 959 1747 
Q 959 1119 1226 758 
Q 1494 397 1959 397 
Q 2419 397 2687 759 
Q 2956 1122 2956 1747 
Q 2956 2369 2687 2733 
Q 2419 3097 1959 3097 
z
M 1959 3584 
Q 2709 3584 3137 3096 
Q 3566 2609 3566 1747 
Q 3566 888 3137 398 
Q 2709 -91 1959 -91 
Q 1206 -91 779 398 
Q 353 888 353 1747 
Q 353 2609 779 3096 
Q 1206 3584 1959 3584 
z
" transform="scale(0.015625)"/>
      <path id="DejaVuSans-66" d="M 2375 4863 
L 2375 4384 
L 1825 4384 
Q 1516 4384 1395 4259 
Q 1275 4134 1275 3809 
L 1275 3500 
L 2222 3500 
L 2222 3053 
L 1275 3053 
L 1275 0 
L 697 0 
L 697 3053 
L 147 3053 
L 147 3500 
L 697 3500 
L 697 3744 
Q 697 4328 969 4595 
Q 1241 4863 1831 4863 
L 2375 4863 
z
" transform="scale(0.015625)"/>
      <path id="DejaVuSans-62" d="M 3116 1747 
Q 3116 2381 2855 2742 
Q 2594 3103 2138 3103 
Q 1681 3103 1420 2742 
Q 1159 2381 1159 1747 
Q 1159 1113 1420 752 
Q 1681 391 2138 391 
Q 2594 391 2855 752 
Q 3116 1113 3116 1747 
z
M 1159 2969 
Q 1341 3281 1617 3432 
Q 1894 3584 2278 3584 
Q 2916 3584 3314 3078 
Q 3713 2572 3713 1747 
Q 3713 922 3314 415 
Q 2916 -91 2278 -91 
Q 1894 -91 1617 61 
Q 1341 213 1159 525 
L 1159 0 
L 581 0 
L 581 4863 
L 1159 4863 
L 1159 2969 
z
" transform="scale(0.015625)"/>
      <path id="DejaVuSans-74" d="M 1172 4494 
L 1172 3500 
L 2356 3500 
L 2356 3053 
L 1172 3053 
L 1172 1153 
Q 1172 725 1289 603 
Q 1406 481 1766 481 
L 2356 481 
L 2356 0 
L 1766 0 
Q 1100 0 847 248 
Q 594 497 594 1153 
L 594 3053 
L 172 3053 
L 172 3500 
L 594 3500 
L 594 4494 
L 1172 4494 
z
" transform="scale(0.015625)"/>
      <path id="DejaVuSans-5f" d="M 3263 -1063 
L 3263 -1509 
L -63 -1509 
L -63 -1063 
L 3263 -1063 
z
" transform="scale(0.015625)"/>
      <path id="DejaVuSans-70" d="M 1159 525 
L 1159 -1331 
L 581 -1331 
L 581 3500 
L 1159 3500 
L 1159 2969 
Q 1341 3281 1617 3432 
Q 1894 3584 2278 3584 
Q 2916 3584 3314 3078 
Q 3713 2572 3713 1747 
Q 3713 922 3314 415 
Q 2916 -91 2278 -91 
Q 1894 -91 1617 61 
Q 1341 213 1159 525 
z
M 3116 1747 
Q 3116 2381 2855 2742 
Q 2594 3103 2138 3103 
Q 1681 3103 1420 2742 
Q 1159 2381 1159 1747 
Q 1159 1113 1420 752 
Q 1681 391 2138 391 
Q 2594 391 2855 752 
Q 3116 1113 3116 1747 
z
" transform="scale(0.015625)"/>
      <path id="DejaVuSans-67" d="M 2906 1791 
Q 2906 2416 2648 2759 
Q 2391 3103 1925 3103 
Q 1463 3103 1205 2759 
Q 947 2416 947 1791 
Q 947 1169 1205 825 
Q 1463 481 1925 481 
Q 2391 481 2648 825 
Q 2906 1169 2906 1791 
z
M 3481 434 
Q 3481 -459 3084 -895 
Q 2688 -1331 1869 -1331 
Q 1566 -1331 1297 -1286 
Q 1028 -1241 775 -1147 
L 775 -588 
Q 1028 -725 1275 -790 
Q 1522 -856 1778 -856 
Q 2344 -856 2625 -561 
Q 2906 -266 2906 331 
L 2906 616 
Q 2728 306 2450 153 
Q 2172 0 1784 0 
Q 1141 0 747 490 
Q 353 981 353 1791 
Q 353 2603 747 3093 
Q 1141 3584 1784 3584 
Q 2172 3584 2450 3431 
Q 2728 3278 2906 2969 
L 2906 3500 
L 3481 3500 
L 3481 434 
z
" transform="scale(0.015625)"/>
      <path id="DejaVuSans-54" d="M -19 4666 
L 3928 4666 
L 3928 4134 
L 2272 4134 
L 2272 0 
L 1638 0 
L 1638 4134 
L -19 4134 
L -19 4666 
z
" transform="scale(0.015625)"/>
      <path id="DejaVuSans-6d" d="M 3328 2828 
Q 3544 3216 3844 3400 
Q 4144 3584 4550 3584 
Q 5097 3584 5394 3201 
Q 5691 2819 5691 2113 
L 5691 0 
L 5113 0 
L 5113 2094 
Q 5113 2597 4934 2840 
Q 4756 3084 4391 3084 
Q 3944 3084 3684 2787 
Q 3425 2491 3425 1978 
L 3425 0 
L 2847 0 
L 2847 2094 
Q 2847 2600 2669 2842 
Q 2491 3084 2119 3084 
Q 1678 3084 1418 2786 
Q 1159 2488 1159 1978 
L 1159 0 
L 581 0 
L 581 3500 
L 1159 3500 
L 1159 2956 
Q 1356 3278 1631 3431 
Q 1906 3584 2284 3584 
Q 2666 3584 2933 3390 
Q 3200 3197 3328 2828 
z
" transform="scale(0.015625)"/>
     </defs>
     <use xlink:href="#DejaVuSans-52"/>
     <use xlink:href="#DejaVuSans-44" x="69.482422"/>
     <use xlink:href="#DejaVuSans-20" x="146.484375"/>
     <use xlink:href="#DejaVuSans-2d" x="178.271484"/>
     <use xlink:href="#DejaVuSans-20" x="214.355469"/>
     <use xlink:href="#DejaVuSans-68" x="246.142578"/>
     <use xlink:href="#DejaVuSans-61" x="309.521484"/>
     <use xlink:href="#DejaVuSans-72" x="370.800781"/>
     <use xlink:href="#DejaVuSans-76" x="411.914062"/>
     <use xlink:href="#DejaVuSans-61" x="471.09375"/>
     <use xlink:href="#DejaVuSans-72" x="532.373047"/>
     <use xlink:href="#DejaVuSans-64" x="571.736328"/>
     <use xlink:href="#DejaVuSans-6f" x="635.212891"/>
     <use xlink:href="#DejaVuSans-78" x="693.269531"/>
     <use xlink:href="#DejaVuSans-66" x="752.449219"/>
     <use xlink:href="#DejaVuSans-6f" x="787.654297"/>
     <use xlink:href="#DejaVuSans-72" x="848.835938"/>
     <use xlink:href="#DejaVuSans-64" x="888.199219"/>
     <use xlink:href="#DejaVuSans-2d" x="951.675781"/>
     <use xlink:href="#DejaVuSans-73" x="987.759766"/>
     <use xlink:href="#DejaVuSans-75" x="1039.859375"/>
     <use xlink:href="#DejaVuSans-62" x="1103.238281"/>
     <use xlink:href="#DejaVuSans-63" x="1166.714844"/>
     <use xlink:href="#DejaVuSans-6f" x="1221.695312"/>
     <use xlink:href="#DejaVuSans-72" x="1282.876953"/>
     <use xlink:href="#DejaVuSans-74" x="1323.990234"/>
     <use xlink:href="#DejaVuSans-69" x="1363.199219"/>
     <use xlink:href="#DejaVuSans-63" x="1390.982422"/>
     <use xlink:href="#DejaVuSans-61" x="1445.962891"/>
     <use xlink:href="#DejaVuSans-6c" x="1507.242188"/>
     <use xlink:href="#DejaVuSans-5f" x="1535.025391"/>
     <use xlink:href="#DejaVuSans-70" x="1585.025391"/>
     <use xlink:href="#DejaVuSans-72" x="1648.501953"/>
     <use xlink:href="#DejaVuSans-6f" x="1687.365234"/>
     <use xlink:href="#DejaVuSans-62" x="1748.546875"/>
     <use xlink:href="#DejaVuSans-5f" x="1812.023438"/>
     <use xlink:href="#DejaVuSans-52" x="1862.023438"/>
     <use xlink:href="#DejaVuSans-69" x="1931.505859"/>
     <use xlink:href="#DejaVuSans-67" x="1959.289062"/>
     <use xlink:href="#DejaVuSans-68" x="2022.765625"/>
     <use xlink:href="#DejaVuSans-74" x="2086.144531"/>
     <use xlink:href="#DejaVuSans-5f" x="2125.353516"/>
     <use xlink:href="#DejaVuSans-54" x="2175.353516"/>
     <use xlink:href="#DejaVuSans-68" x="2236.4375"/>
     <use xlink:href="#DejaVuSans-61" x="2299.816406"/>
     <use xlink:href="#DejaVuSans-6c" x="2361.095703"/>
     <use xlink:href="#DejaVuSans-61" x="2388.878906"/>
     <use xlink:href="#DejaVuSans-6d" x="2450.158203"/>
     <use xlink:href="#DejaVuSans-75" x="2547.570312"/>
     <use xlink:href="#DejaVuSans-73" x="2610.949219"/>
    </g>
   </g>
   <g id="legend_1">
    <g id="patch_7">
     <path d="M 449.97575 146.666825 
L 547.832 146.666825 
Q 549.832 146.666825 549.832 144.666825 
L 549.832 55.929325 
Q 549.832 53.929325 547.832 53.929325 
L 449.97575 53.929325 
Q 447.97575 53.929325 447.97575 55.929325 
L 447.97575 144.666825 
Q 447.97575 146.666825 449.97575 146.666825 
z
" style="fill: #ffffff; opacity: 0.8; stroke: #cccccc; stroke-linejoin: miter"/>
    </g>
    <g id="line2d_22">
     <path d="M 451.97575 62.027762 
L 461.97575 62.027762 
L 471.97575 62.027762 
" style="fill: none; stroke: #1f77b4; stroke-width: 1.5; stroke-linecap: square"/>
    </g>
    <g id="text_19">
     <!-- 20_06_02_E3 -->
     <g transform="translate(479.97575 65.527762) scale(0.1 -0.1)">
      <defs>
       <path id="DejaVuSans-45" d="M 628 4666 
L 3578 4666 
L 3578 4134 
L 1259 4134 
L 1259 2753 
L 3481 2753 
L 3481 2222 
L 1259 2222 
L 1259 531 
L 3634 531 
L 3634 0 
L 628 0 
L 628 4666 
z
" transform="scale(0.015625)"/>
      </defs>
      <use xlink:href="#DejaVuSans-32"/>
      <use xlink:href="#DejaVuSans-30" x="63.623047"/>
      <use xlink:href="#DejaVuSans-5f" x="127.246094"/>
      <use xlink:href="#DejaVuSans-30" x="177.246094"/>
      <use xlink:href="#DejaVuSans-36" x="240.869141"/>
      <use xlink:href="#DejaVuSans-5f" x="304.492188"/>
      <use xlink:href="#DejaVuSans-30" x="354.492188"/>
      <use xlink:href="#DejaVuSans-32" x="418.115234"/>
      <use xlink:href="#DejaVuSans-5f" x="481.738281"/>
      <use xlink:href="#DejaVuSans-45" x="531.738281"/>
      <use xlink:href="#DejaVuSans-33" x="594.921875"/>
     </g>
    </g>
    <g id="line2d_23">
     <path d="M 451.97575 76.984013 
L 461.97575 76.984013 
L 471.97575 76.984013 
" style="fill: none; stroke: #ff7f0e; stroke-width: 1.5; stroke-linecap: square"/>
    </g>
    <g id="text_20">
     <!-- 20_05_01_E3 -->
     <g transform="translate(479.97575 80.484013) scale(0.1 -0.1)">
      <use xlink:href="#DejaVuSans-32"/>
      <use xlink:href="#DejaVuSans-30" x="63.623047"/>
      <use xlink:href="#DejaVuSans-5f" x="127.246094"/>
      <use xlink:href="#DejaVuSans-30" x="177.246094"/>
      <use xlink:href="#DejaVuSans-35" x="240.869141"/>
      <use xlink:href="#DejaVuSans-5f" x="304.492188"/>
      <use xlink:href="#DejaVuSans-30" x="354.492188"/>
      <use xlink:href="#DejaVuSans-31" x="418.115234"/>
      <use xlink:href="#DejaVuSans-5f" x="481.738281"/>
      <use xlink:href="#DejaVuSans-45" x="531.738281"/>
      <use xlink:href="#DejaVuSans-33" x="594.921875"/>
     </g>
    </g>
    <g id="line2d_24">
     <path d="M 451.97575 91.940262 
L 461.97575 91.940262 
L 471.97575 91.940262 
" style="fill: none; stroke: #2ca02c; stroke-width: 1.5; stroke-linecap: square"/>
    </g>
    <g id="text_21">
     <!-- 20_02_02_E3 -->
     <g transform="translate(479.97575 95.440262) scale(0.1 -0.1)">
      <use xlink:href="#DejaVuSans-32"/>
      <use xlink:href="#DejaVuSans-30" x="63.623047"/>
      <use xlink:href="#DejaVuSans-5f" x="127.246094"/>
      <use xlink:href="#DejaVuSans-30" x="177.246094"/>
      <use xlink:href="#DejaVuSans-32" x="240.869141"/>
      <use xlink:href="#DejaVuSans-5f" x="304.492188"/>
      <use xlink:href="#DejaVuSans-30" x="354.492188"/>
      <use xlink:href="#DejaVuSans-32" x="418.115234"/>
      <use xlink:href="#DejaVuSans-5f" x="481.738281"/>
      <use xlink:href="#DejaVuSans-45" x="531.738281"/>
      <use xlink:href="#DejaVuSans-33" x="594.921875"/>
     </g>
    </g>
    <g id="line2d_25">
     <path d="M 451.97575 106.896513 
L 461.97575 106.896513 
L 471.97575 106.896513 
" style="fill: none; stroke: #d62728; stroke-width: 1.5; stroke-linecap: square"/>
    </g>
    <g id="text_22">
     <!-- 20_10_02_E3 -->
     <g transform="translate(479.97575 110.396513) scale(0.1 -0.1)">
      <use xlink:href="#DejaVuSans-32"/>
      <use xlink:href="#DejaVuSans-30" x="63.623047"/>
      <use xlink:href="#DejaVuSans-5f" x="127.246094"/>
      <use xlink:href="#DejaVuSans-31" x="177.246094"/>
      <use xlink:href="#DejaVuSans-30" x="240.869141"/>
      <use xlink:href="#DejaVuSans-5f" x="304.492188"/>
      <use xlink:href="#DejaVuSans-30" x="354.492188"/>
      <use xlink:href="#DejaVuSans-32" x="418.115234"/>
      <use xlink:href="#DejaVuSans-5f" x="481.738281"/>
      <use xlink:href="#DejaVuSans-45" x="531.738281"/>
      <use xlink:href="#DejaVuSans-33" x="594.921875"/>
     </g>
    </g>
    <g id="line2d_26">
     <path d="M 451.97575 121.852762 
L 461.97575 121.852762 
L 471.97575 121.852762 
" style="fill: none; stroke: #9467bd; stroke-width: 1.5; stroke-linecap: square"/>
    </g>
    <g id="text_23">
     <!-- 20_08_02_E3 -->
     <g transform="translate(479.97575 125.352762) scale(0.1 -0.1)">
      <use xlink:href="#DejaVuSans-32"/>
      <use xlink:href="#DejaVuSans-30" x="63.623047"/>
      <use xlink:href="#DejaVuSans-5f" x="127.246094"/>
      <use xlink:href="#DejaVuSans-30" x="177.246094"/>
      <use xlink:href="#DejaVuSans-38" x="240.869141"/>
      <use xlink:href="#DejaVuSans-5f" x="304.492188"/>
      <use xlink:href="#DejaVuSans-30" x="354.492188"/>
      <use xlink:href="#DejaVuSans-32" x="418.115234"/>
      <use xlink:href="#DejaVuSans-5f" x="481.738281"/>
      <use xlink:href="#DejaVuSans-45" x="531.738281"/>
      <use xlink:href="#DejaVuSans-33" x="594.921875"/>
     </g>
    </g>
    <g id="line2d_27">
     <path d="M 451.97575 136.809012 
L 461.97575 136.809012 
L 471.97575 136.809012 
" style="fill: none; stroke: #8c564b; stroke-width: 1.5; stroke-linecap: square"/>
    </g>
    <g id="text_24">
     <!-- 20_11_02_E3 -->
     <g transform="translate(479.97575 140.309012) scale(0.1 -0.1)">
      <use xlink:href="#DejaVuSans-32"/>
      <use xlink:href="#DejaVuSans-30" x="63.623047"/>
      <use xlink:href="#DejaVuSans-5f" x="127.246094"/>
      <use xlink:href="#DejaVuSans-31" x="177.246094"/>
      <use xlink:href="#DejaVuSans-31" x="240.869141"/>
      <use xlink:href="#DejaVuSans-5f" x="304.492188"/>
      <use xlink:href="#DejaVuSans-30" x="354.492188"/>
      <use xlink:href="#DejaVuSans-32" x="418.115234"/>
      <use xlink:href="#DejaVuSans-5f" x="481.738281"/>
      <use xlink:href="#DejaVuSans-45" x="531.738281"/>
      <use xlink:href="#DejaVuSans-33" x="594.921875"/>
     </g>
    </g>
   </g>
  </g>
 </g>
 <defs>
  <clipPath id="pe729464c1f">
   <rect x="50.14375" y="22.318125" width="357.12" height="266.112"/>
  </clipPath>
 </defs>
</svg>
