<?xml version="1.0" encoding="utf-8" standalone="no"?>
<!DOCTYPE svg PUBLIC "-//W3C//DTD SVG 1.1//EN"
  "http://www.w3.org/Graphics/SVG/1.1/DTD/svg11.dtd">
<svg xmlns:xlink="http://www.w3.org/1999/xlink" width="563.3945pt" height="325.986375pt" viewBox="0 0 563.3945 325.986375" xmlns="http://www.w3.org/2000/svg" version="1.1">
 <metadata>
  <rdf:RDF xmlns:dc="http://purl.org/dc/elements/1.1/" xmlns:cc="http://creativecommons.org/ns#" xmlns:rdf="http://www.w3.org/1999/02/22-rdf-syntax-ns#">
   <cc:Work>
    <dc:type rdf:resource="http://purl.org/dc/dcmitype/StillImage"/>
    <dc:date>2023-02-07T22:59:55.644316</dc:date>
    <dc:format>image/svg+xml</dc:format>
    <dc:creator>
     <cc:Agent>
      <dc:title>Matplotlib v3.6.2, https://matplotlib.org/</dc:title>
     </cc:Agent>
    </dc:creator>
   </cc:Work>
  </rdf:RDF>
 </metadata>
 <defs>
  <style type="text/css">*{stroke-linejoin: round; stroke-linecap: butt}</style>
 </defs>
 <g id="figure_1">
  <g id="patch_1">
   <path d="M 0 325.986375 
L 563.3945 325.986375 
L 563.3945 0 
L 0 0 
z
" style="fill: #ffffff"/>
  </g>
  <g id="axes_1">
   <g id="patch_2">
    <path d="M 56.50625 288.430125 
L 413.62625 288.430125 
L 413.62625 22.318125 
L 56.50625 22.318125 
z
" style="fill: #ffffff"/>
   </g>
   <g id="PolyCollection_1">
    <path d="M 72.738977 258.939639 
L 72.738977 263.4077 
L 76.018316 263.4077 
L 79.297655 263.4077 
L 82.576993 263.4077 
L 85.856332 263.4077 
L 89.135671 263.4077 
L 92.415009 263.4077 
L 95.694348 263.4077 
L 98.973686 263.4077 
L 102.253025 263.4077 
L 105.532364 263.4077 
L 108.811702 263.4077 
L 112.091041 263.4077 
L 115.37038 263.4077 
L 118.649718 263.4077 
L 121.929057 263.4077 
L 125.208396 263.4077 
L 128.487734 263.4077 
L 131.767073 263.4077 
L 135.046412 263.4077 
L 138.32575 263.4077 
L 141.605089 263.4077 
L 144.884428 263.4077 
L 148.163766 263.4077 
L 151.443105 263.4077 
L 154.722443 263.4077 
L 158.001782 263.4077 
L 161.281121 263.4077 
L 164.560459 263.4077 
L 167.839798 263.4077 
L 171.119137 263.4077 
L 174.398475 263.4077 
L 177.677814 263.4077 
L 180.957153 263.4077 
L 184.236491 263.4077 
L 187.51583 263.4077 
L 190.795169 263.4077 
L 194.074507 263.4077 
L 197.353846 263.4077 
L 200.633185 263.4077 
L 203.912523 263.4077 
L 207.191862 263.4077 
L 210.4712 263.4077 
L 213.750539 263.4077 
L 217.029878 263.4077 
L 220.309216 263.4077 
L 223.588555 263.4077 
L 226.867894 263.4077 
L 230.147232 263.4077 
L 233.426571 263.4077 
L 236.70591 263.4077 
L 239.985248 263.4077 
L 243.264587 263.4077 
L 246.543926 263.4077 
L 249.823264 263.4077 
L 253.102603 263.4077 
L 256.381942 263.4077 
L 259.66128 263.4077 
L 262.940619 263.4077 
L 266.219957 263.4077 
L 269.499296 263.4077 
L 272.778635 263.4077 
L 276.057973 263.4077 
L 279.337312 263.4077 
L 282.616651 263.4077 
L 285.895989 263.4077 
L 289.175328 263.4077 
L 292.454667 263.4077 
L 295.734005 263.4077 
L 299.013344 263.4077 
L 302.292683 263.4077 
L 305.572021 263.4077 
L 308.85136 263.4077 
L 312.130699 263.4077 
L 315.410037 263.4077 
L 318.689376 263.4077 
L 321.968714 263.4077 
L 325.248053 263.4077 
L 328.527392 263.4077 
L 331.80673 263.4077 
L 335.086069 263.4077 
L 338.365408 263.4077 
L 341.644746 263.4077 
L 344.924085 263.4077 
L 348.203424 263.4077 
L 351.482762 263.4077 
L 354.762101 263.4077 
L 358.04144 263.4077 
L 361.320778 263.4077 
L 364.600117 263.4077 
L 367.879456 263.4077 
L 371.158794 263.4077 
L 374.438133 263.4077 
L 377.717471 263.4077 
L 380.99681 263.4077 
L 384.276149 263.4077 
L 387.555487 263.4077 
L 390.834826 263.4077 
L 394.114165 263.4077 
L 397.393503 263.4077 
L 397.393503 225.659932 
L 397.393503 225.659932 
L 394.114165 257.750399 
L 390.834826 272.916317 
L 387.555487 276.334125 
L 384.276149 272.008007 
L 380.99681 262.97365 
L 377.717471 251.474824 
L 374.438133 239.115503 
L 371.158794 226.990048 
L 367.879456 215.79381 
L 364.600117 205.916305 
L 361.320778 197.518958 
L 358.04144 190.599263 
L 354.762101 185.043036 
L 351.482762 180.666304 
L 348.203424 177.248235 
L 344.924085 174.556386 
L 341.644746 172.36542 
L 338.365408 170.470341 
L 335.086069 168.695161 
L 331.80673 166.89786 
L 328.527392 164.972341 
L 325.248053 162.848061 
L 321.968714 160.48789 
L 318.689376 157.884688 
L 315.410037 155.057031 
L 312.130699 152.044442 
L 308.85136 148.902413 
L 305.572021 145.697483 
L 302.292683 142.502541 
L 299.013344 139.392536 
L 295.734005 136.440674 
L 292.454667 133.715196 
L 289.175328 131.276781 
L 285.895989 129.176579 
L 282.616651 127.454885 
L 279.337312 126.14041 
L 276.057973 125.250117 
L 272.778635 124.789573 
L 269.499296 124.753727 
L 266.219957 125.128068 
L 262.940619 125.890067 
L 259.66128 127.010828 
L 256.381942 128.456871 
L 253.102603 130.191955 
L 249.823264 132.178886 
L 246.543926 134.381219 
L 243.264587 136.764809 
L 239.985248 139.299135 
L 236.70591 263.384353 
L 233.426571 263.384712 
L 230.147232 147.767886 
L 226.867894 150.786062 
L 223.588555 153.87125 
L 220.309216 157.023118 
L 217.029878 160.246321 
L 213.750539 163.54944 
L 210.4712 166.943662 
L 207.191862 170.441244 
L 203.912523 174.053816 
L 200.633185 177.790594 
L 197.353846 181.65657 
L 194.074507 185.65076 
L 190.795169 189.764593 
L 187.51583 193.980522 
L 184.236491 198.270939 
L 180.957153 202.597492 
L 177.677814 206.910846 
L 174.398475 211.151003 
L 171.119137 215.248203 
L 167.839798 219.124469 
L 164.560459 222.695828 
L 161.281121 225.875209 
L 158.001782 228.576012 
L 154.722443 230.7163 
L 151.443105 232.223549 
L 148.163766 233.039846 
L 144.884428 233.127383 
L 141.605089 232.474055 
L 138.32575 231.098927 
L 135.046412 229.057266 
L 131.767073 226.444779 
L 128.487734 223.400652 
L 125.208396 220.108866 
L 121.929057 216.797262 
L 118.649718 213.733664 
L 115.37038 211.218343 
L 112.091041 209.571985 
L 108.811702 209.118205 
L 105.532364 210.159596 
L 102.253025 212.946105 
L 98.973686 217.634498 
L 95.694348 224.237461 
L 92.415009 232.560804 
L 89.135671 242.127058 
L 85.856332 252.083625 
L 82.576993 261.093447 
L 79.297655 267.206023 
L 76.018316 267.70641 
L 72.738977 258.939639 
z
" clip-path="url(#pb8d1868b09)" style="fill: #1f77b4; fill-opacity: 0.166667"/>
   </g>
   <g id="PolyCollection_2">
    <path d="M 72.738977 268.232209 
L 72.738977 263.4077 
L 76.018316 263.4077 
L 79.297655 263.4077 
L 82.576993 263.4077 
L 85.856332 263.4077 
L 89.135671 263.4077 
L 92.415009 263.4077 
L 95.694348 263.4077 
L 98.973686 263.4077 
L 102.253025 263.4077 
L 105.532364 263.4077 
L 108.811702 263.4077 
L 112.091041 263.4077 
L 115.37038 263.4077 
L 118.649718 263.4077 
L 121.929057 263.4077 
L 125.208396 263.4077 
L 128.487734 263.4077 
L 131.767073 263.4077 
L 135.046412 263.4077 
L 138.32575 263.4077 
L 141.605089 263.4077 
L 144.884428 263.4077 
L 148.163766 263.4077 
L 151.443105 263.4077 
L 154.722443 263.4077 
L 158.001782 263.4077 
L 161.281121 263.4077 
L 164.560459 263.4077 
L 167.839798 263.4077 
L 171.119137 263.4077 
L 174.398475 263.4077 
L 177.677814 263.4077 
L 180.957153 263.4077 
L 184.236491 263.4077 
L 187.51583 263.4077 
L 190.795169 263.4077 
L 194.074507 263.4077 
L 197.353846 263.4077 
L 200.633185 263.4077 
L 203.912523 263.4077 
L 207.191862 263.4077 
L 210.4712 263.4077 
L 213.750539 263.4077 
L 217.029878 263.4077 
L 220.309216 263.4077 
L 223.588555 263.4077 
L 226.867894 263.4077 
L 230.147232 263.4077 
L 233.426571 263.4077 
L 236.70591 263.4077 
L 239.985248 263.4077 
L 243.264587 263.4077 
L 246.543926 263.4077 
L 249.823264 263.4077 
L 253.102603 263.4077 
L 256.381942 263.4077 
L 259.66128 263.4077 
L 262.940619 263.4077 
L 266.219957 263.4077 
L 269.499296 263.4077 
L 272.778635 263.4077 
L 276.057973 263.4077 
L 279.337312 263.4077 
L 282.616651 263.4077 
L 285.895989 263.4077 
L 289.175328 263.4077 
L 292.454667 263.4077 
L 295.734005 263.4077 
L 299.013344 263.4077 
L 302.292683 263.4077 
L 305.572021 263.4077 
L 308.85136 263.4077 
L 312.130699 263.4077 
L 315.410037 263.4077 
L 318.689376 263.4077 
L 321.968714 263.4077 
L 325.248053 263.4077 
L 328.527392 263.4077 
L 331.80673 263.4077 
L 335.086069 263.4077 
L 338.365408 263.4077 
L 341.644746 263.4077 
L 344.924085 263.4077 
L 348.203424 263.4077 
L 351.482762 263.4077 
L 354.762101 263.4077 
L 358.04144 263.4077 
L 361.320778 263.4077 
L 364.600117 263.4077 
L 367.879456 263.4077 
L 371.158794 263.4077 
L 374.438133 263.4077 
L 377.717471 263.4077 
L 380.99681 263.4077 
L 384.276149 263.4077 
L 387.555487 263.4077 
L 390.834826 263.4077 
L 394.114165 263.4077 
L 397.393503 263.4077 
L 397.393503 235.111721 
L 397.393503 235.111721 
L 394.114165 258.240488 
L 390.834826 269.999308 
L 387.555487 273.458116 
L 384.276149 271.057399 
L 380.99681 264.708371 
L 377.717471 255.880952 
L 374.438133 245.680667 
L 371.158794 234.915501 
L 367.879456 224.153661 
L 364.600117 213.773155 
L 361.320778 204.004026 
L 358.04144 194.964019 
L 354.762101 186.68839 
L 351.482762 179.154547 
L 348.203424 172.302116 
L 344.924085 166.049016 
L 341.644746 160.304048 
L 338.365408 154.97648 
L 335.086069 149.983064 
L 331.80673 145.252869 
L 328.527392 140.730296 
L 325.248053 136.376581 
L 321.968714 132.170089 
L 318.689376 128.10564 
L 315.410037 124.193104 
L 312.130699 120.455448 
L 308.85136 116.926428 
L 305.572021 113.648061 
L 302.292683 110.667998 
L 299.013344 108.03693 
L 295.734005 105.806085 
L 292.454667 104.0249 
L 289.175328 102.738937 
L 285.895989 101.988049 
L 282.616651 101.804864 
L 279.337312 102.213571 
L 276.057973 103.229036 
L 272.778635 104.856237 
L 269.499296 107.090009 
L 266.219957 109.91508 
L 262.940619 113.306388 
L 259.66128 117.229634 
L 256.381942 121.64206 
L 253.102603 126.493409 
L 249.823264 131.72703 
L 246.543926 137.281107 
L 243.264587 143.089964 
L 239.985248 149.085412 
L 236.70591 263.386389 
L 233.426571 263.386573 
L 230.147232 168.220126 
L 226.867894 174.235862 
L 223.588555 180.070324 
L 220.309216 185.671122 
L 217.029878 190.993074 
L 213.750539 195.998661 
L 210.4712 200.658249 
L 207.191862 204.950087 
L 203.912523 208.860103 
L 200.633185 212.381499 
L 197.353846 215.514168 
L 194.074507 218.263972 
L 190.795169 220.641893 
L 187.51583 222.663108 
L 184.236491 224.346016 
L 180.957153 225.711253 
L 177.677814 226.780757 
L 174.398475 227.576895 
L 171.119137 228.121712 
L 167.839798 228.436343 
L 164.560459 228.540609 
L 161.281121 228.452832 
L 158.001782 228.189907 
L 154.722443 227.767626 
L 151.443105 227.201279 
L 148.163766 226.50651 
L 144.884428 225.70043 
L 141.605089 224.802932 
L 138.32575 223.838179 
L 135.046412 222.836171 
L 131.767073 221.834321 
L 128.487734 220.878909 
L 125.208396 220.026269 
L 121.929057 219.343549 
L 118.649718 218.908822 
L 115.37038 218.810321 
L 112.091041 219.144512 
L 108.811702 220.012684 
L 105.532364 221.515704 
L 102.253025 223.74651 
L 98.973686 226.779899 
L 95.694348 230.659074 
L 92.415009 235.378405 
L 89.135671 240.861741 
L 85.856332 246.935602 
L 82.576993 253.296463 
L 79.297655 259.471309 
L 76.018316 264.770537 
L 72.738977 268.232209 
z
" clip-path="url(#pb8d1868b09)" style="fill: #ff7f0e; fill-opacity: 0.166667"/>
   </g>
   <g id="PolyCollection_3">
    <path d="M 72.738977 257.49339 
L 72.738977 263.4077 
L 76.018316 263.4077 
L 79.297654 263.4077 
L 82.576993 263.4077 
L 85.856331 263.4077 
L 89.13567 263.4077 
L 92.415008 263.4077 
L 95.694346 263.4077 
L 98.973685 263.4077 
L 102.253023 263.4077 
L 105.532362 263.4077 
L 108.8117 263.4077 
L 112.091039 263.4077 
L 115.370377 263.4077 
L 118.649716 263.4077 
L 121.929054 263.4077 
L 125.208393 263.4077 
L 128.487731 263.4077 
L 131.767069 263.4077 
L 135.046408 263.4077 
L 138.325746 263.4077 
L 141.605085 263.4077 
L 144.884423 263.4077 
L 148.163762 263.4077 
L 151.4431 263.4077 
L 154.722439 263.4077 
L 158.001777 263.4077 
L 161.281115 263.4077 
L 164.560454 263.4077 
L 167.839792 263.4077 
L 171.119131 263.4077 
L 174.398469 263.4077 
L 177.677808 263.4077 
L 180.957146 263.4077 
L 184.236485 263.4077 
L 187.515823 263.4077 
L 190.795162 263.4077 
L 194.0745 263.4077 
L 197.353838 263.4077 
L 200.633177 263.4077 
L 203.912515 263.4077 
L 207.191854 263.4077 
L 210.471192 263.4077 
L 213.750531 263.4077 
L 217.029869 263.4077 
L 220.309208 263.4077 
L 223.588546 263.4077 
L 226.867885 263.4077 
L 230.147223 263.4077 
L 233.426561 263.4077 
L 236.7059 263.4077 
L 239.985238 263.4077 
L 243.264577 263.4077 
L 246.543915 263.4077 
L 249.823254 263.4077 
L 253.102592 263.4077 
L 256.381931 263.4077 
L 259.661269 263.4077 
L 262.940607 263.4077 
L 266.219946 263.4077 
L 269.499284 263.4077 
L 272.778623 263.4077 
L 276.057961 263.4077 
L 279.3373 263.4077 
L 282.616638 263.4077 
L 285.895977 263.4077 
L 289.175315 263.4077 
L 292.454654 263.4077 
L 295.733992 263.4077 
L 299.01333 263.4077 
L 302.292669 263.4077 
L 305.572007 263.4077 
L 308.851346 263.4077 
L 312.130684 263.4077 
L 315.410023 263.4077 
L 318.689361 263.4077 
L 321.9687 263.4077 
L 325.248038 263.4077 
L 328.527377 263.4077 
L 331.806715 263.4077 
L 335.086053 263.4077 
L 338.365392 263.4077 
L 341.64473 263.4077 
L 344.924069 263.4077 
L 348.203407 263.4077 
L 351.482746 263.4077 
L 354.762084 263.4077 
L 358.041423 263.4077 
L 361.320761 263.4077 
L 364.6001 263.4077 
L 367.879438 263.4077 
L 371.158776 263.4077 
L 374.438115 263.4077 
L 377.717453 263.4077 
L 380.996792 263.4077 
L 384.27613 263.4077 
L 387.555469 263.4077 
L 390.834807 263.4077 
L 394.114146 263.4077 
L 397.393484 263.4077 
L 397.393484 204.277024 
L 397.393484 204.277024 
L 394.114146 233.97268 
L 390.834807 252.66127 
L 387.555469 263.473589 
L 384.27613 268.838381 
L 380.996792 270.607206 
L 377.717453 270.161829 
L 374.438115 268.506013 
L 371.158776 266.343419 
L 367.879438 264.14322 
L 364.6001 262.194866 
L 361.320761 260.653352 
L 358.041423 259.576186 
L 354.762084 258.953183 
L 351.482746 258.730082 
L 348.203407 258.826895 
L 344.924069 259.151801 
L 341.64473 259.61132 
L 338.365392 260.117414 
L 335.086053 260.592094 
L 331.806715 260.970028 
L 328.527377 261.199609 
L 325.248038 261.242845 
L 321.9687 261.074413 
L 318.689361 260.680141 
L 315.410023 260.055158 
L 312.130684 259.201893 
L 308.851346 258.128072 
L 305.572007 256.844839 
L 302.292669 255.365073 
L 299.01333 253.701973 
L 295.733992 251.867934 
L 292.454654 249.873749 
L 289.175315 247.728104 
L 285.895977 245.437389 
L 282.616638 243.005761 
L 279.3373 240.435451 
L 276.057961 237.727248 
L 272.778623 234.881139 
L 269.499284 231.897024 
L 266.219946 228.775479 
L 262.940607 225.51851 
L 259.661269 222.130248 
L 256.381931 218.617538 
L 253.102592 214.990402 
L 249.823254 211.262317 
L 246.543915 207.450307 
L 243.264577 203.574823 
L 239.985238 199.65939 
L 236.7059 263.394187 
L 233.426561 263.394368 
L 230.147223 186.237523 
L 226.867885 182.442653 
L 223.588546 178.83155 
L 220.309208 175.422058 
L 217.029869 172.223609 
L 213.750531 169.236219 
L 210.471192 166.449687 
L 207.191854 163.84307 
L 203.912515 161.384446 
L 200.633177 159.031036 
L 197.353838 156.729706 
L 194.0745 154.417885 
L 190.795162 152.024927 
L 187.515823 149.473929 
L 184.236485 146.684032 
L 180.957146 143.57317 
L 177.677808 140.061294 
L 174.398469 136.074009 
L 171.119131 131.546602 
L 167.839792 126.428384 
L 164.560454 120.687283 
L 161.281115 114.31457 
L 158.001777 107.329598 
L 154.722439 99.78441 
L 151.4431 91.768026 
L 148.163762 83.410208 
L 144.884423 74.884457 
L 141.605085 66.409966 
L 138.325746 58.252223 
L 135.046408 50.721899 
L 131.767069 44.171628 
L 128.487731 38.990247 
L 125.208393 35.593994 
L 121.929054 34.414125 
L 118.649716 35.880362 
L 115.370377 40.399515 
L 112.091039 48.328563 
L 108.8117 59.941427 
L 105.532362 75.38858 
L 102.253023 94.648597 
L 98.973685 117.470642 
L 95.694346 143.306844 
L 92.415008 171.233412 
L 89.13567 199.859256 
L 85.856331 227.22081 
L 82.576993 250.661645 
L 79.297654 266.695356 
L 76.018316 270.850149 
L 72.738977 257.49339 
z
" clip-path="url(#pb8d1868b09)" style="fill: #2ca02c; fill-opacity: 0.166667"/>
   </g>
   <g id="PolyCollection_4">
    <path d="M 72.738977 270.733708 
L 72.738977 263.4077 
L 76.018316 263.4077 
L 79.297655 263.4077 
L 82.576994 263.4077 
L 85.856333 263.4077 
L 89.135671 263.4077 
L 92.41501 263.4077 
L 95.694349 263.4077 
L 98.973688 263.4077 
L 102.253027 263.4077 
L 105.532366 263.4077 
L 108.811705 263.4077 
L 112.091043 263.4077 
L 115.370382 263.4077 
L 118.649721 263.4077 
L 121.92906 263.4077 
L 125.208399 263.4077 
L 128.487738 263.4077 
L 131.767076 263.4077 
L 135.046415 263.4077 
L 138.325754 263.4077 
L 141.605093 263.4077 
L 144.884432 263.4077 
L 148.163771 263.4077 
L 151.44311 263.4077 
L 154.722448 263.4077 
L 158.001787 263.4077 
L 161.281126 263.4077 
L 164.560465 263.4077 
L 167.839804 263.4077 
L 171.119143 263.4077 
L 174.398481 263.4077 
L 177.67782 263.4077 
L 180.957159 263.4077 
L 184.236498 263.4077 
L 187.515837 263.4077 
L 190.795176 263.4077 
L 194.074514 263.4077 
L 197.353853 263.4077 
L 200.633192 263.4077 
L 203.912531 263.4077 
L 207.19187 263.4077 
L 210.471209 263.4077 
L 213.750548 263.4077 
L 217.029886 263.4077 
L 220.309225 263.4077 
L 223.588564 263.4077 
L 226.867903 263.4077 
L 230.147242 263.4077 
L 233.426581 263.4077 
L 236.705919 263.4077 
L 239.985258 263.4077 
L 243.264597 263.4077 
L 246.543936 263.4077 
L 249.823275 263.4077 
L 253.102614 263.4077 
L 256.381952 263.4077 
L 259.661291 263.4077 
L 262.94063 263.4077 
L 266.219969 263.4077 
L 269.499308 263.4077 
L 272.778647 263.4077 
L 276.057986 263.4077 
L 279.337324 263.4077 
L 282.616663 263.4077 
L 285.896002 263.4077 
L 289.175341 263.4077 
L 292.45468 263.4077 
L 295.734019 263.4077 
L 299.013357 263.4077 
L 302.292696 263.4077 
L 305.572035 263.4077 
L 308.851374 263.4077 
L 312.130713 263.4077 
L 315.410052 263.4077 
L 318.68939 263.4077 
L 321.968729 263.4077 
L 325.248068 263.4077 
L 328.527407 263.4077 
L 331.806746 263.4077 
L 335.086085 263.4077 
L 338.365424 263.4077 
L 341.644762 263.4077 
L 344.924101 263.4077 
L 348.20344 263.4077 
L 351.482779 263.4077 
L 354.762118 263.4077 
L 358.041457 263.4077 
L 361.320795 263.4077 
L 364.600134 263.4077 
L 367.879473 263.4077 
L 371.158812 263.4077 
L 374.438151 263.4077 
L 377.71749 263.4077 
L 380.996829 263.4077 
L 384.276167 263.4077 
L 387.555506 263.4077 
L 390.834845 263.4077 
L 394.114184 263.4077 
L 397.393523 263.4077 
L 397.393523 232.940251 
L 397.393523 232.940251 
L 394.114184 238.675287 
L 390.834845 248.435812 
L 387.555506 258.748163 
L 384.276167 267.272045 
L 380.996829 272.567685 
L 377.71749 273.896536 
L 374.438151 271.052068 
L 371.158812 264.217448 
L 367.879473 253.847145 
L 364.600134 240.569697 
L 361.320795 225.109122 
L 358.041457 208.222635 
L 354.762118 190.652534 
L 351.482779 173.090304 
L 348.20344 156.151149 
L 344.924101 140.357349 
L 341.644762 126.128968 
L 338.365424 113.780608 
L 335.086085 103.523023 
L 331.806746 95.468552 
L 328.527407 89.639443 
L 325.248068 85.978252 
L 321.968729 84.359611 
L 318.68939 84.60276 
L 315.410052 86.484317 
L 312.130713 89.750861 
L 308.851374 94.130957 
L 305.572035 99.346359 
L 302.292696 105.122142 
L 299.013357 111.195629 
L 295.734019 117.323972 
L 292.45468 123.29035 
L 289.175341 128.908746 
L 285.896002 134.027325 
L 282.616663 138.530452 
L 279.337324 142.339432 
L 276.057986 145.412062 
L 272.778647 147.741107 
L 269.499308 149.35184 
L 266.219969 150.298771 
L 262.94063 150.661714 
L 259.661291 150.541357 
L 256.381952 150.054465 
L 253.102614 149.328878 
L 249.823275 148.498447 
L 246.543936 147.698046 
L 243.264597 147.05878 
L 239.985258 146.703525 
L 236.705919 263.389718 
L 233.426581 263.390967 
L 230.147242 147.434276 
L 226.867903 148.982254 
L 223.588564 151.23606 
L 220.309225 154.209427 
L 217.029886 157.890169 
L 213.750548 162.240746 
L 210.471209 167.199631 
L 207.19187 172.683439 
L 203.912531 178.589739 
L 200.633192 184.800494 
L 197.353853 191.18602 
L 194.074514 197.609356 
L 190.795176 203.930926 
L 187.515837 210.013363 
L 184.236498 215.726346 
L 180.957159 220.951306 
L 177.67782 225.585851 
L 174.398481 229.547753 
L 171.119143 232.778356 
L 167.839804 235.24526 
L 164.560465 236.944151 
L 161.281126 237.899656 
L 158.001787 238.165136 
L 154.722448 237.821342 
L 151.44311 236.973881 
L 148.163771 235.749495 
L 144.884432 234.291181 
L 141.605093 232.752218 
L 138.325754 231.289248 
L 135.046415 230.054576 
L 131.767076 229.187951 
L 128.487738 228.80815 
L 125.208399 229.004758 
L 121.92906 229.830635 
L 118.649721 231.295645 
L 115.370382 233.362337 
L 112.091043 235.94435 
L 108.811705 238.908472 
L 105.532366 242.08137 
L 102.253027 245.262174 
L 98.973688 248.242215 
L 95.694349 250.833413 
L 92.41501 252.906919 
L 89.135671 254.44384 
L 85.856333 255.600038 
L 82.576994 256.787183 
L 79.297655 258.772462 
L 76.018316 262.799552 
L 72.738977 270.733708 
z
" clip-path="url(#pb8d1868b09)" style="fill: #d62728; fill-opacity: 0.166667"/>
   </g>
   <g id="PolyCollection_5">
    <path d="M 72.738977 263.228241 
L 72.738977 263.4077 
L 76.018316 263.4077 
L 79.297655 263.4077 
L 82.576993 263.4077 
L 85.856332 263.4077 
L 89.135671 263.4077 
L 92.415009 263.4077 
L 95.694348 263.4077 
L 98.973686 263.4077 
L 102.253025 263.4077 
L 105.532364 263.4077 
L 108.811702 263.4077 
L 112.091041 263.4077 
L 115.37038 263.4077 
L 118.649718 263.4077 
L 121.929057 263.4077 
L 125.208396 263.4077 
L 128.487734 263.4077 
L 131.767073 263.4077 
L 135.046412 263.4077 
L 138.32575 263.4077 
L 141.605089 263.4077 
L 144.884428 263.4077 
L 148.163766 263.4077 
L 151.443105 263.4077 
L 154.722443 263.4077 
L 158.001782 263.4077 
L 161.281121 263.4077 
L 164.560459 263.4077 
L 167.839798 263.4077 
L 171.119137 263.4077 
L 174.398475 263.4077 
L 177.677814 263.4077 
L 180.957153 263.4077 
L 184.236491 263.4077 
L 187.51583 263.4077 
L 190.795169 263.4077 
L 194.074507 263.4077 
L 197.353846 263.4077 
L 200.633185 263.4077 
L 203.912523 263.4077 
L 207.191862 263.4077 
L 210.4712 263.4077 
L 213.750539 263.4077 
L 217.029878 263.4077 
L 220.309216 263.4077 
L 223.588555 263.4077 
L 226.867894 263.4077 
L 230.147232 263.4077 
L 233.426571 263.4077 
L 236.70591 263.4077 
L 239.985248 263.4077 
L 243.264587 263.4077 
L 246.543926 263.4077 
L 249.823264 263.4077 
L 253.102603 263.4077 
L 256.381942 263.4077 
L 259.66128 263.4077 
L 262.940619 263.4077 
L 266.219957 263.4077 
L 269.499296 263.4077 
L 272.778635 263.4077 
L 276.057973 263.4077 
L 279.337312 263.4077 
L 282.616651 263.4077 
L 285.895989 263.4077 
L 289.175328 263.4077 
L 292.454667 263.4077 
L 295.734005 263.4077 
L 299.013344 263.4077 
L 302.292683 263.4077 
L 305.572021 263.4077 
L 308.85136 263.4077 
L 312.130699 263.4077 
L 315.410037 263.4077 
L 318.689376 263.4077 
L 321.968714 263.4077 
L 325.248053 263.4077 
L 328.527392 263.4077 
L 331.80673 263.4077 
L 335.086069 263.4077 
L 338.365408 263.4077 
L 341.644746 263.4077 
L 344.924085 263.4077 
L 348.203424 263.4077 
L 351.482762 263.4077 
L 354.762101 263.4077 
L 358.04144 263.4077 
L 361.320778 263.4077 
L 364.600117 263.4077 
L 367.879456 263.4077 
L 371.158794 263.4077 
L 374.438133 263.4077 
L 377.717471 263.4077 
L 380.99681 263.4077 
L 384.276149 263.4077 
L 387.555487 263.4077 
L 390.834826 263.4077 
L 394.114165 263.4077 
L 397.393503 263.4077 
L 397.393503 242.92216 
L 397.393503 242.92216 
L 394.114165 259.874502 
L 390.834826 270.399026 
L 387.555487 275.183925 
L 384.276149 274.95531 
L 380.99681 270.451851 
L 377.717471 262.404059 
L 374.438133 251.517719 
L 371.158794 238.460965 
L 367.879456 223.854572 
L 364.600117 208.265036 
L 361.320778 192.200067 
L 358.04144 176.106155 
L 354.762101 160.367876 
L 351.482762 145.308664 
L 348.203424 131.192777 
L 344.924085 118.228225 
L 341.644746 106.570441 
L 338.365408 96.326515 
L 335.086069 87.559814 
L 331.80673 80.294843 
L 328.527392 74.522217 
L 325.248053 70.203636 
L 321.968714 67.276753 
L 318.689376 65.65988 
L 315.410037 65.256441 
L 312.130699 65.95913 
L 308.85136 67.653732 
L 305.572021 70.222582 
L 302.292683 73.547625 
L 299.013344 77.513087 
L 295.734005 82.007732 
L 292.454667 86.926729 
L 289.175328 92.173121 
L 285.895989 97.658929 
L 282.616651 103.305891 
L 279.337312 109.045884 
L 276.057973 114.82103 
L 272.778635 120.58354 
L 269.499296 126.295315 
L 266.219957 131.927338 
L 262.940619 137.458898 
L 259.66128 142.876668 
L 256.381942 148.173689 
L 253.102603 153.348276 
L 249.823264 158.402891 
L 246.543926 163.343002 
L 243.264587 168.175977 
L 239.985248 172.910011 
L 236.70591 263.389407 
L 233.426571 263.390163 
L 230.147232 187.228799 
L 226.867894 191.668905 
L 223.588555 195.998957 
L 220.309216 200.215603 
L 217.029878 204.313455 
L 213.750539 208.284971 
L 210.4712 212.120415 
L 207.191862 215.80794 
L 203.912523 219.333757 
L 200.633185 222.682405 
L 197.353846 225.837118 
L 194.074507 228.780276 
L 190.795169 231.493931 
L 187.51583 233.960407 
L 184.236491 236.162958 
L 180.957153 238.086466 
L 177.677814 239.718177 
L 174.398475 241.048443 
L 171.119137 242.07147 
L 167.839798 242.786035 
L 164.560459 243.196168 
L 161.281121 243.311768 
L 158.001782 243.149127 
L 154.722443 242.731345 
L 151.443105 242.088608 
L 148.163766 241.258299 
L 144.884428 240.284917 
L 141.605089 239.219768 
L 138.32575 238.120416 
L 135.046412 237.049834 
L 131.767073 236.075253 
L 128.487734 235.266657 
L 125.208396 234.694898 
L 121.929057 234.429393 
L 118.649718 234.53538 
L 115.37038 235.070685 
L 112.091041 236.08197 
L 108.811702 237.600437 
L 105.532364 239.636938 
L 102.253025 242.176468 
L 98.973686 245.172003 
L 95.694348 248.537651 
L 92.415009 252.141083 
L 89.135671 255.795208 
L 85.856332 259.24907 
L 82.576993 262.177929 
L 79.297655 264.172501 
L 76.018316 264.727324 
L 72.738977 263.228241 
z
" clip-path="url(#pb8d1868b09)" style="fill: #9467bd; fill-opacity: 0.166667"/>
   </g>
   <g id="PolyCollection_6">
    <path d="M 72.738977 261.315615 
L 72.738977 263.4077 
L 75.725104 263.4077 
L 78.71123 263.4077 
L 81.697357 263.4077 
L 84.683483 263.4077 
L 87.66961 263.4077 
L 90.655736 263.4077 
L 93.641863 263.4077 
L 96.627989 263.4077 
L 99.614116 263.4077 
L 102.600242 263.4077 
L 105.586369 263.4077 
L 108.572495 263.4077 
L 111.558622 263.4077 
L 114.544748 263.4077 
L 117.530875 263.4077 
L 120.517001 263.4077 
L 123.503128 263.4077 
L 126.489254 263.4077 
L 129.475381 263.4077 
L 132.461507 263.4077 
L 135.447634 263.4077 
L 138.43376 263.4077 
L 141.419887 263.4077 
L 144.406013 263.4077 
L 147.392139 263.4077 
L 150.378266 263.4077 
L 153.364392 263.4077 
L 156.350519 263.4077 
L 159.336645 263.4077 
L 162.322772 263.4077 
L 165.308898 263.4077 
L 168.295025 263.4077 
L 171.281151 263.4077 
L 174.267278 263.4077 
L 177.253404 263.4077 
L 180.239531 263.4077 
L 183.225657 263.4077 
L 186.211784 263.4077 
L 189.19791 263.4077 
L 192.184037 263.4077 
L 195.170163 263.4077 
L 198.15629 263.4077 
L 201.142416 263.4077 
L 204.128543 263.4077 
L 207.114669 263.4077 
L 210.100796 263.4077 
L 213.086922 263.4077 
L 216.073049 263.4077 
L 219.059175 263.4077 
L 222.045302 263.4077 
L 225.031428 263.4077 
L 228.017555 263.4077 
L 231.003681 263.4077 
L 233.989808 263.4077 
L 236.975934 263.4077 
L 239.962061 263.4077 
L 242.948187 263.4077 
L 245.934314 263.4077 
L 248.92044 263.4077 
L 251.906567 263.4077 
L 254.892693 263.4077 
L 257.87882 263.4077 
L 260.864946 263.4077 
L 263.851073 263.4077 
L 266.837199 263.4077 
L 269.823326 263.4077 
L 272.809452 263.4077 
L 275.795578 263.4077 
L 278.781705 263.4077 
L 281.767831 263.4077 
L 284.753958 263.4077 
L 287.740084 263.4077 
L 290.726211 263.4077 
L 293.712337 263.4077 
L 296.698464 263.4077 
L 299.68459 263.4077 
L 302.670717 263.4077 
L 305.656843 263.4077 
L 308.64297 263.4077 
L 311.629096 263.4077 
L 314.615223 263.4077 
L 317.601349 263.4077 
L 320.587476 263.4077 
L 323.573602 263.4077 
L 326.559729 263.4077 
L 329.545855 263.4077 
L 332.531982 263.4077 
L 335.518108 263.4077 
L 338.504235 263.4077 
L 341.490361 263.4077 
L 344.476488 263.4077 
L 347.462614 263.4077 
L 350.448741 263.4077 
L 353.434867 263.4077 
L 356.420994 263.4077 
L 359.40712 263.4077 
L 362.393247 263.4077 
L 365.379373 263.4077 
L 368.3655 263.4077 
L 368.3655 232.178393 
L 368.3655 232.178393 
L 365.379373 257.581333 
L 362.393247 269.214518 
L 359.40712 270.873384 
L 356.420994 265.583198 
L 353.434867 255.719554 
L 350.448741 243.114416 
L 347.462614 229.148986 
L 344.476488 214.834637 
L 341.490361 200.883035 
L 338.504235 187.766516 
L 335.518108 175.769698 
L 332.531982 165.033251 
L 329.545855 155.590677 
L 326.559729 147.398879 
L 323.573602 140.363251 
L 320.587476 134.357952 
L 317.601349 129.241987 
L 314.615223 124.871637 
L 311.629096 121.109774 
L 308.64297 117.832504 
L 305.656843 114.93357 
L 302.670717 112.326894 
L 299.68459 109.947592 
L 296.698464 107.75177 
L 293.712337 105.715373 
L 290.726211 103.832308 
L 287.740084 102.112075 
L 284.753958 100.577051 
L 281.767831 99.259614 
L 278.781705 98.199207 
L 275.795578 97.439473 
L 272.809452 97.025531 
L 269.823326 97.00147 
L 266.837199 97.408119 
L 263.851073 98.281115 
L 260.864946 99.649309 
L 257.87882 101.533518 
L 254.892693 103.945616 
L 251.906567 106.887976 
L 248.92044 110.353231 
L 245.934314 114.32434 
L 242.948187 118.774936 
L 239.962061 123.669922 
L 236.975934 128.966284 
L 233.989808 134.614079 
L 231.003681 140.557574 
L 228.017555 146.736483 
L 225.031428 153.087283 
L 222.045302 263.387181 
L 219.059175 263.387654 
L 216.073049 172.834267 
L 213.086922 179.269803 
L 210.100796 185.539562 
L 207.114669 191.586454 
L 204.128543 197.359342 
L 201.142416 202.813828 
L 198.15629 207.912838 
L 195.170163 212.627031 
L 192.184037 216.934992 
L 189.19791 220.823253 
L 186.211784 224.286113 
L 183.225657 227.325303 
L 180.239531 229.949481 
L 177.253404 232.173611 
L 174.267278 234.018221 
L 171.281151 235.508584 
L 168.295025 236.673851 
L 165.308898 237.546155 
L 162.322772 238.159731 
L 159.336645 238.550071 
L 156.350519 238.753152 
L 153.364392 238.80476 
L 150.378266 238.739936 
L 147.392139 238.59256 
L 144.406013 238.395091 
L 141.419887 238.178464 
L 138.43376 237.972139 
L 135.447634 237.804306 
L 132.461507 237.70219 
L 129.475381 237.692451 
L 126.489254 237.801596 
L 123.503128 238.056356 
L 120.517001 238.483916 
L 117.530875 239.111903 
L 114.544748 239.967984 
L 111.558622 241.078928 
L 108.572495 242.468923 
L 105.586369 244.156956 
L 102.600242 246.152979 
L 99.614116 248.452593 
L 96.627989 251.029921 
L 93.641863 253.828303 
L 90.655736 256.748409 
L 87.66961 259.633323 
L 84.683483 262.250087 
L 81.697357 264.267153 
L 78.71123 265.227151 
L 75.725104 264.514278 
L 72.738977 261.315615 
z
" clip-path="url(#pb8d1868b09)" style="fill: #8c564b; fill-opacity: 0.166667"/>
   </g>
   <g id="matplotlib.axis_1">
    <g id="xtick_1">
     <g id="line2d_1">
      <defs>
       <path id="m39ec8c88bd" d="M 0 0 
L 0 3.5 
" style="stroke: #000000; stroke-width: 0.8"/>
      </defs>
      <g>
       <use xlink:href="#m39ec8c88bd" x="72.738977" y="288.430125" style="stroke: #000000; stroke-width: 0.8"/>
      </g>
     </g>
     <g id="text_1">
      <!-- 0.0 -->
      <g transform="translate(64.787415 303.028562) scale(0.1 -0.1)">
       <defs>
        <path id="DejaVuSans-30" d="M 2034 4250 
Q 1547 4250 1301 3770 
Q 1056 3291 1056 2328 
Q 1056 1369 1301 889 
Q 1547 409 2034 409 
Q 2525 409 2770 889 
Q 3016 1369 3016 2328 
Q 3016 3291 2770 3770 
Q 2525 4250 2034 4250 
z
M 2034 4750 
Q 2819 4750 3233 4129 
Q 3647 3509 3647 2328 
Q 3647 1150 3233 529 
Q 2819 -91 2034 -91 
Q 1250 -91 836 529 
Q 422 1150 422 2328 
Q 422 3509 836 4129 
Q 1250 4750 2034 4750 
z
" transform="scale(0.015625)"/>
        <path id="DejaVuSans-2e" d="M 684 794 
L 1344 794 
L 1344 0 
L 684 0 
L 684 794 
z
" transform="scale(0.015625)"/>
       </defs>
       <use xlink:href="#DejaVuSans-30"/>
       <use xlink:href="#DejaVuSans-2e" x="63.623047"/>
       <use xlink:href="#DejaVuSans-30" x="95.410156"/>
      </g>
     </g>
    </g>
    <g id="xtick_2">
     <g id="line2d_2">
      <g>
       <use xlink:href="#m39ec8c88bd" x="138.325754" y="288.430125" style="stroke: #000000; stroke-width: 0.8"/>
      </g>
     </g>
     <g id="text_2">
      <!-- 0.2 -->
      <g transform="translate(130.374192 303.028562) scale(0.1 -0.1)">
       <defs>
        <path id="DejaVuSans-32" d="M 1228 531 
L 3431 531 
L 3431 0 
L 469 0 
L 469 531 
Q 828 903 1448 1529 
Q 2069 2156 2228 2338 
Q 2531 2678 2651 2914 
Q 2772 3150 2772 3378 
Q 2772 3750 2511 3984 
Q 2250 4219 1831 4219 
Q 1534 4219 1204 4116 
Q 875 4013 500 3803 
L 500 4441 
Q 881 4594 1212 4672 
Q 1544 4750 1819 4750 
Q 2544 4750 2975 4387 
Q 3406 4025 3406 3419 
Q 3406 3131 3298 2873 
Q 3191 2616 2906 2266 
Q 2828 2175 2409 1742 
Q 1991 1309 1228 531 
z
" transform="scale(0.015625)"/>
       </defs>
       <use xlink:href="#DejaVuSans-30"/>
       <use xlink:href="#DejaVuSans-2e" x="63.623047"/>
       <use xlink:href="#DejaVuSans-32" x="95.410156"/>
      </g>
     </g>
    </g>
    <g id="xtick_3">
     <g id="line2d_3">
      <g>
       <use xlink:href="#m39ec8c88bd" x="203.912531" y="288.430125" style="stroke: #000000; stroke-width: 0.8"/>
      </g>
     </g>
     <g id="text_3">
      <!-- 0.4 -->
      <g transform="translate(195.960968 303.028562) scale(0.1 -0.1)">
       <defs>
        <path id="DejaVuSans-34" d="M 2419 4116 
L 825 1625 
L 2419 1625 
L 2419 4116 
z
M 2253 4666 
L 3047 4666 
L 3047 1625 
L 3713 1625 
L 3713 1100 
L 3047 1100 
L 3047 0 
L 2419 0 
L 2419 1100 
L 313 1100 
L 313 1709 
L 2253 4666 
z
" transform="scale(0.015625)"/>
       </defs>
       <use xlink:href="#DejaVuSans-30"/>
       <use xlink:href="#DejaVuSans-2e" x="63.623047"/>
       <use xlink:href="#DejaVuSans-34" x="95.410156"/>
      </g>
     </g>
    </g>
    <g id="xtick_4">
     <g id="line2d_4">
      <g>
       <use xlink:href="#m39ec8c88bd" x="269.499308" y="288.430125" style="stroke: #000000; stroke-width: 0.8"/>
      </g>
     </g>
     <g id="text_4">
      <!-- 0.6 -->
      <g transform="translate(261.547745 303.028562) scale(0.1 -0.1)">
       <defs>
        <path id="DejaVuSans-36" d="M 2113 2584 
Q 1688 2584 1439 2293 
Q 1191 2003 1191 1497 
Q 1191 994 1439 701 
Q 1688 409 2113 409 
Q 2538 409 2786 701 
Q 3034 994 3034 1497 
Q 3034 2003 2786 2293 
Q 2538 2584 2113 2584 
z
M 3366 4563 
L 3366 3988 
Q 3128 4100 2886 4159 
Q 2644 4219 2406 4219 
Q 1781 4219 1451 3797 
Q 1122 3375 1075 2522 
Q 1259 2794 1537 2939 
Q 1816 3084 2150 3084 
Q 2853 3084 3261 2657 
Q 3669 2231 3669 1497 
Q 3669 778 3244 343 
Q 2819 -91 2113 -91 
Q 1303 -91 875 529 
Q 447 1150 447 2328 
Q 447 3434 972 4092 
Q 1497 4750 2381 4750 
Q 2619 4750 2861 4703 
Q 3103 4656 3366 4563 
z
" transform="scale(0.015625)"/>
       </defs>
       <use xlink:href="#DejaVuSans-30"/>
       <use xlink:href="#DejaVuSans-2e" x="63.623047"/>
       <use xlink:href="#DejaVuSans-36" x="95.410156"/>
      </g>
     </g>
    </g>
    <g id="xtick_5">
     <g id="line2d_5">
      <g>
       <use xlink:href="#m39ec8c88bd" x="335.086085" y="288.430125" style="stroke: #000000; stroke-width: 0.8"/>
      </g>
     </g>
     <g id="text_5">
      <!-- 0.8 -->
      <g transform="translate(327.134522 303.028562) scale(0.1 -0.1)">
       <defs>
        <path id="DejaVuSans-38" d="M 2034 2216 
Q 1584 2216 1326 1975 
Q 1069 1734 1069 1313 
Q 1069 891 1326 650 
Q 1584 409 2034 409 
Q 2484 409 2743 651 
Q 3003 894 3003 1313 
Q 3003 1734 2745 1975 
Q 2488 2216 2034 2216 
z
M 1403 2484 
Q 997 2584 770 2862 
Q 544 3141 544 3541 
Q 544 4100 942 4425 
Q 1341 4750 2034 4750 
Q 2731 4750 3128 4425 
Q 3525 4100 3525 3541 
Q 3525 3141 3298 2862 
Q 3072 2584 2669 2484 
Q 3125 2378 3379 2068 
Q 3634 1759 3634 1313 
Q 3634 634 3220 271 
Q 2806 -91 2034 -91 
Q 1263 -91 848 271 
Q 434 634 434 1313 
Q 434 1759 690 2068 
Q 947 2378 1403 2484 
z
M 1172 3481 
Q 1172 3119 1398 2916 
Q 1625 2713 2034 2713 
Q 2441 2713 2670 2916 
Q 2900 3119 2900 3481 
Q 2900 3844 2670 4047 
Q 2441 4250 2034 4250 
Q 1625 4250 1398 4047 
Q 1172 3844 1172 3481 
z
" transform="scale(0.015625)"/>
       </defs>
       <use xlink:href="#DejaVuSans-30"/>
       <use xlink:href="#DejaVuSans-2e" x="63.623047"/>
       <use xlink:href="#DejaVuSans-38" x="95.410156"/>
      </g>
     </g>
    </g>
    <g id="xtick_6">
     <g id="line2d_6">
      <g>
       <use xlink:href="#m39ec8c88bd" x="400.672862" y="288.430125" style="stroke: #000000; stroke-width: 0.8"/>
      </g>
     </g>
     <g id="text_6">
      <!-- 1.0 -->
      <g transform="translate(392.721299 303.028562) scale(0.1 -0.1)">
       <defs>
        <path id="DejaVuSans-31" d="M 794 531 
L 1825 531 
L 1825 4091 
L 703 3866 
L 703 4441 
L 1819 4666 
L 2450 4666 
L 2450 531 
L 3481 531 
L 3481 0 
L 794 0 
L 794 531 
z
" transform="scale(0.015625)"/>
       </defs>
       <use xlink:href="#DejaVuSans-31"/>
       <use xlink:href="#DejaVuSans-2e" x="63.623047"/>
       <use xlink:href="#DejaVuSans-30" x="95.410156"/>
      </g>
     </g>
    </g>
    <g id="text_7">
     <!-- Pixel values -->
     <g transform="translate(205.654531 316.706687) scale(0.1 -0.1)">
      <defs>
       <path id="DejaVuSans-50" d="M 1259 4147 
L 1259 2394 
L 2053 2394 
Q 2494 2394 2734 2622 
Q 2975 2850 2975 3272 
Q 2975 3691 2734 3919 
Q 2494 4147 2053 4147 
L 1259 4147 
z
M 628 4666 
L 2053 4666 
Q 2838 4666 3239 4311 
Q 3641 3956 3641 3272 
Q 3641 2581 3239 2228 
Q 2838 1875 2053 1875 
L 1259 1875 
L 1259 0 
L 628 0 
L 628 4666 
z
" transform="scale(0.015625)"/>
       <path id="DejaVuSans-69" d="M 603 3500 
L 1178 3500 
L 1178 0 
L 603 0 
L 603 3500 
z
M 603 4863 
L 1178 4863 
L 1178 4134 
L 603 4134 
L 603 4863 
z
" transform="scale(0.015625)"/>
       <path id="DejaVuSans-78" d="M 3513 3500 
L 2247 1797 
L 3578 0 
L 2900 0 
L 1881 1375 
L 863 0 
L 184 0 
L 1544 1831 
L 300 3500 
L 978 3500 
L 1906 2253 
L 2834 3500 
L 3513 3500 
z
" transform="scale(0.015625)"/>
       <path id="DejaVuSans-65" d="M 3597 1894 
L 3597 1613 
L 953 1613 
Q 991 1019 1311 708 
Q 1631 397 2203 397 
Q 2534 397 2845 478 
Q 3156 559 3463 722 
L 3463 178 
Q 3153 47 2828 -22 
Q 2503 -91 2169 -91 
Q 1331 -91 842 396 
Q 353 884 353 1716 
Q 353 2575 817 3079 
Q 1281 3584 2069 3584 
Q 2775 3584 3186 3129 
Q 3597 2675 3597 1894 
z
M 3022 2063 
Q 3016 2534 2758 2815 
Q 2500 3097 2075 3097 
Q 1594 3097 1305 2825 
Q 1016 2553 972 2059 
L 3022 2063 
z
" transform="scale(0.015625)"/>
       <path id="DejaVuSans-6c" d="M 603 4863 
L 1178 4863 
L 1178 0 
L 603 0 
L 603 4863 
z
" transform="scale(0.015625)"/>
       <path id="DejaVuSans-20" transform="scale(0.015625)"/>
       <path id="DejaVuSans-76" d="M 191 3500 
L 800 3500 
L 1894 563 
L 2988 3500 
L 3597 3500 
L 2284 0 
L 1503 0 
L 191 3500 
z
" transform="scale(0.015625)"/>
       <path id="DejaVuSans-61" d="M 2194 1759 
Q 1497 1759 1228 1600 
Q 959 1441 959 1056 
Q 959 750 1161 570 
Q 1363 391 1709 391 
Q 2188 391 2477 730 
Q 2766 1069 2766 1631 
L 2766 1759 
L 2194 1759 
z
M 3341 1997 
L 3341 0 
L 2766 0 
L 2766 531 
Q 2569 213 2275 61 
Q 1981 -91 1556 -91 
Q 1019 -91 701 211 
Q 384 513 384 1019 
Q 384 1609 779 1909 
Q 1175 2209 1959 2209 
L 2766 2209 
L 2766 2266 
Q 2766 2663 2505 2880 
Q 2244 3097 1772 3097 
Q 1472 3097 1187 3025 
Q 903 2953 641 2809 
L 641 3341 
Q 956 3463 1253 3523 
Q 1550 3584 1831 3584 
Q 2591 3584 2966 3190 
Q 3341 2797 3341 1997 
z
" transform="scale(0.015625)"/>
       <path id="DejaVuSans-75" d="M 544 1381 
L 544 3500 
L 1119 3500 
L 1119 1403 
Q 1119 906 1312 657 
Q 1506 409 1894 409 
Q 2359 409 2629 706 
Q 2900 1003 2900 1516 
L 2900 3500 
L 3475 3500 
L 3475 0 
L 2900 0 
L 2900 538 
Q 2691 219 2414 64 
Q 2138 -91 1772 -91 
Q 1169 -91 856 284 
Q 544 659 544 1381 
z
M 1991 3584 
L 1991 3584 
z
" transform="scale(0.015625)"/>
       <path id="DejaVuSans-73" d="M 2834 3397 
L 2834 2853 
Q 2591 2978 2328 3040 
Q 2066 3103 1784 3103 
Q 1356 3103 1142 2972 
Q 928 2841 928 2578 
Q 928 2378 1081 2264 
Q 1234 2150 1697 2047 
L 1894 2003 
Q 2506 1872 2764 1633 
Q 3022 1394 3022 966 
Q 3022 478 2636 193 
Q 2250 -91 1575 -91 
Q 1294 -91 989 -36 
Q 684 19 347 128 
L 347 722 
Q 666 556 975 473 
Q 1284 391 1588 391 
Q 1994 391 2212 530 
Q 2431 669 2431 922 
Q 2431 1156 2273 1281 
Q 2116 1406 1581 1522 
L 1381 1569 
Q 847 1681 609 1914 
Q 372 2147 372 2553 
Q 372 3047 722 3315 
Q 1072 3584 1716 3584 
Q 2034 3584 2315 3537 
Q 2597 3491 2834 3397 
z
" transform="scale(0.015625)"/>
      </defs>
      <use xlink:href="#DejaVuSans-50"/>
      <use xlink:href="#DejaVuSans-69" x="58.052734"/>
      <use xlink:href="#DejaVuSans-78" x="85.835938"/>
      <use xlink:href="#DejaVuSans-65" x="141.890625"/>
      <use xlink:href="#DejaVuSans-6c" x="203.414062"/>
      <use xlink:href="#DejaVuSans-20" x="231.197266"/>
      <use xlink:href="#DejaVuSans-76" x="262.984375"/>
      <use xlink:href="#DejaVuSans-61" x="322.164062"/>
      <use xlink:href="#DejaVuSans-6c" x="383.443359"/>
      <use xlink:href="#DejaVuSans-75" x="411.226562"/>
      <use xlink:href="#DejaVuSans-65" x="474.605469"/>
      <use xlink:href="#DejaVuSans-73" x="536.128906"/>
     </g>
    </g>
   </g>
   <g id="matplotlib.axis_2">
    <g id="ytick_1">
     <g id="line2d_7">
      <defs>
       <path id="meb98576239" d="M 0 0 
L -3.5 0 
" style="stroke: #000000; stroke-width: 0.8"/>
      </defs>
      <g>
       <use xlink:href="#meb98576239" x="56.50625" y="263.4077" style="stroke: #000000; stroke-width: 0.8"/>
      </g>
     </g>
     <g id="text_8">
      <!-- 0.000 -->
      <g transform="translate(20.878125 267.206918) scale(0.1 -0.1)">
       <use xlink:href="#DejaVuSans-30"/>
       <use xlink:href="#DejaVuSans-2e" x="63.623047"/>
       <use xlink:href="#DejaVuSans-30" x="95.410156"/>
       <use xlink:href="#DejaVuSans-30" x="159.033203"/>
       <use xlink:href="#DejaVuSans-30" x="222.65625"/>
      </g>
     </g>
    </g>
    <g id="ytick_2">
     <g id="line2d_8">
      <g>
       <use xlink:href="#meb98576239" x="56.50625" y="226.436494" style="stroke: #000000; stroke-width: 0.8"/>
      </g>
     </g>
     <g id="text_9">
      <!-- 0.005 -->
      <g transform="translate(20.878125 230.235713) scale(0.1 -0.1)">
       <defs>
        <path id="DejaVuSans-35" d="M 691 4666 
L 3169 4666 
L 3169 4134 
L 1269 4134 
L 1269 2991 
Q 1406 3038 1543 3061 
Q 1681 3084 1819 3084 
Q 2600 3084 3056 2656 
Q 3513 2228 3513 1497 
Q 3513 744 3044 326 
Q 2575 -91 1722 -91 
Q 1428 -91 1123 -41 
Q 819 9 494 109 
L 494 744 
Q 775 591 1075 516 
Q 1375 441 1709 441 
Q 2250 441 2565 725 
Q 2881 1009 2881 1497 
Q 2881 1984 2565 2268 
Q 2250 2553 1709 2553 
Q 1456 2553 1204 2497 
Q 953 2441 691 2322 
L 691 4666 
z
" transform="scale(0.015625)"/>
       </defs>
       <use xlink:href="#DejaVuSans-30"/>
       <use xlink:href="#DejaVuSans-2e" x="63.623047"/>
       <use xlink:href="#DejaVuSans-30" x="95.410156"/>
       <use xlink:href="#DejaVuSans-30" x="159.033203"/>
       <use xlink:href="#DejaVuSans-35" x="222.65625"/>
      </g>
     </g>
    </g>
    <g id="ytick_3">
     <g id="line2d_9">
      <g>
       <use xlink:href="#meb98576239" x="56.50625" y="189.465289" style="stroke: #000000; stroke-width: 0.8"/>
      </g>
     </g>
     <g id="text_10">
      <!-- 0.010 -->
      <g transform="translate(20.878125 193.264508) scale(0.1 -0.1)">
       <use xlink:href="#DejaVuSans-30"/>
       <use xlink:href="#DejaVuSans-2e" x="63.623047"/>
       <use xlink:href="#DejaVuSans-30" x="95.410156"/>
       <use xlink:href="#DejaVuSans-31" x="159.033203"/>
       <use xlink:href="#DejaVuSans-30" x="222.65625"/>
      </g>
     </g>
    </g>
    <g id="ytick_4">
     <g id="line2d_10">
      <g>
       <use xlink:href="#meb98576239" x="56.50625" y="152.494084" style="stroke: #000000; stroke-width: 0.8"/>
      </g>
     </g>
     <g id="text_11">
      <!-- 0.015 -->
      <g transform="translate(20.878125 156.293303) scale(0.1 -0.1)">
       <use xlink:href="#DejaVuSans-30"/>
       <use xlink:href="#DejaVuSans-2e" x="63.623047"/>
       <use xlink:href="#DejaVuSans-30" x="95.410156"/>
       <use xlink:href="#DejaVuSans-31" x="159.033203"/>
       <use xlink:href="#DejaVuSans-35" x="222.65625"/>
      </g>
     </g>
    </g>
    <g id="ytick_5">
     <g id="line2d_11">
      <g>
       <use xlink:href="#meb98576239" x="56.50625" y="115.522878" style="stroke: #000000; stroke-width: 0.8"/>
      </g>
     </g>
     <g id="text_12">
      <!-- 0.020 -->
      <g transform="translate(20.878125 119.322097) scale(0.1 -0.1)">
       <use xlink:href="#DejaVuSans-30"/>
       <use xlink:href="#DejaVuSans-2e" x="63.623047"/>
       <use xlink:href="#DejaVuSans-30" x="95.410156"/>
       <use xlink:href="#DejaVuSans-32" x="159.033203"/>
       <use xlink:href="#DejaVuSans-30" x="222.65625"/>
      </g>
     </g>
    </g>
    <g id="ytick_6">
     <g id="line2d_12">
      <g>
       <use xlink:href="#meb98576239" x="56.50625" y="78.551673" style="stroke: #000000; stroke-width: 0.8"/>
      </g>
     </g>
     <g id="text_13">
      <!-- 0.025 -->
      <g transform="translate(20.878125 82.350892) scale(0.1 -0.1)">
       <use xlink:href="#DejaVuSans-30"/>
       <use xlink:href="#DejaVuSans-2e" x="63.623047"/>
       <use xlink:href="#DejaVuSans-30" x="95.410156"/>
       <use xlink:href="#DejaVuSans-32" x="159.033203"/>
       <use xlink:href="#DejaVuSans-35" x="222.65625"/>
      </g>
     </g>
    </g>
    <g id="ytick_7">
     <g id="line2d_13">
      <g>
       <use xlink:href="#meb98576239" x="56.50625" y="41.580468" style="stroke: #000000; stroke-width: 0.8"/>
      </g>
     </g>
     <g id="text_14">
      <!-- 0.030 -->
      <g transform="translate(20.878125 45.379687) scale(0.1 -0.1)">
       <defs>
        <path id="DejaVuSans-33" d="M 2597 2516 
Q 3050 2419 3304 2112 
Q 3559 1806 3559 1356 
Q 3559 666 3084 287 
Q 2609 -91 1734 -91 
Q 1441 -91 1130 -33 
Q 819 25 488 141 
L 488 750 
Q 750 597 1062 519 
Q 1375 441 1716 441 
Q 2309 441 2620 675 
Q 2931 909 2931 1356 
Q 2931 1769 2642 2001 
Q 2353 2234 1838 2234 
L 1294 2234 
L 1294 2753 
L 1863 2753 
Q 2328 2753 2575 2939 
Q 2822 3125 2822 3475 
Q 2822 3834 2567 4026 
Q 2313 4219 1838 4219 
Q 1578 4219 1281 4162 
Q 984 4106 628 3988 
L 628 4550 
Q 988 4650 1302 4700 
Q 1616 4750 1894 4750 
Q 2613 4750 3031 4423 
Q 3450 4097 3450 3541 
Q 3450 3153 3228 2886 
Q 3006 2619 2597 2516 
z
" transform="scale(0.015625)"/>
       </defs>
       <use xlink:href="#DejaVuSans-30"/>
       <use xlink:href="#DejaVuSans-2e" x="63.623047"/>
       <use xlink:href="#DejaVuSans-30" x="95.410156"/>
       <use xlink:href="#DejaVuSans-33" x="159.033203"/>
       <use xlink:href="#DejaVuSans-30" x="222.65625"/>
      </g>
     </g>
    </g>
    <g id="text_15">
     <!-- Frequency -->
     <g transform="translate(14.798437 181.203812) rotate(-90) scale(0.1 -0.1)">
      <defs>
       <path id="DejaVuSans-46" d="M 628 4666 
L 3309 4666 
L 3309 4134 
L 1259 4134 
L 1259 2759 
L 3109 2759 
L 3109 2228 
L 1259 2228 
L 1259 0 
L 628 0 
L 628 4666 
z
" transform="scale(0.015625)"/>
       <path id="DejaVuSans-72" d="M 2631 2963 
Q 2534 3019 2420 3045 
Q 2306 3072 2169 3072 
Q 1681 3072 1420 2755 
Q 1159 2438 1159 1844 
L 1159 0 
L 581 0 
L 581 3500 
L 1159 3500 
L 1159 2956 
Q 1341 3275 1631 3429 
Q 1922 3584 2338 3584 
Q 2397 3584 2469 3576 
Q 2541 3569 2628 3553 
L 2631 2963 
z
" transform="scale(0.015625)"/>
       <path id="DejaVuSans-71" d="M 947 1747 
Q 947 1113 1208 752 
Q 1469 391 1925 391 
Q 2381 391 2643 752 
Q 2906 1113 2906 1747 
Q 2906 2381 2643 2742 
Q 2381 3103 1925 3103 
Q 1469 3103 1208 2742 
Q 947 2381 947 1747 
z
M 2906 525 
Q 2725 213 2448 61 
Q 2172 -91 1784 -91 
Q 1150 -91 751 415 
Q 353 922 353 1747 
Q 353 2572 751 3078 
Q 1150 3584 1784 3584 
Q 2172 3584 2448 3432 
Q 2725 3281 2906 2969 
L 2906 3500 
L 3481 3500 
L 3481 -1331 
L 2906 -1331 
L 2906 525 
z
" transform="scale(0.015625)"/>
       <path id="DejaVuSans-6e" d="M 3513 2113 
L 3513 0 
L 2938 0 
L 2938 2094 
Q 2938 2591 2744 2837 
Q 2550 3084 2163 3084 
Q 1697 3084 1428 2787 
Q 1159 2491 1159 1978 
L 1159 0 
L 581 0 
L 581 3500 
L 1159 3500 
L 1159 2956 
Q 1366 3272 1645 3428 
Q 1925 3584 2291 3584 
Q 2894 3584 3203 3211 
Q 3513 2838 3513 2113 
z
" transform="scale(0.015625)"/>
       <path id="DejaVuSans-63" d="M 3122 3366 
L 3122 2828 
Q 2878 2963 2633 3030 
Q 2388 3097 2138 3097 
Q 1578 3097 1268 2742 
Q 959 2388 959 1747 
Q 959 1106 1268 751 
Q 1578 397 2138 397 
Q 2388 397 2633 464 
Q 2878 531 3122 666 
L 3122 134 
Q 2881 22 2623 -34 
Q 2366 -91 2075 -91 
Q 1284 -91 818 406 
Q 353 903 353 1747 
Q 353 2603 823 3093 
Q 1294 3584 2113 3584 
Q 2378 3584 2631 3529 
Q 2884 3475 3122 3366 
z
" transform="scale(0.015625)"/>
       <path id="DejaVuSans-79" d="M 2059 -325 
Q 1816 -950 1584 -1140 
Q 1353 -1331 966 -1331 
L 506 -1331 
L 506 -850 
L 844 -850 
Q 1081 -850 1212 -737 
Q 1344 -625 1503 -206 
L 1606 56 
L 191 3500 
L 800 3500 
L 1894 763 
L 2988 3500 
L 3597 3500 
L 2059 -325 
z
" transform="scale(0.015625)"/>
      </defs>
      <use xlink:href="#DejaVuSans-46"/>
      <use xlink:href="#DejaVuSans-72" x="50.269531"/>
      <use xlink:href="#DejaVuSans-65" x="89.132812"/>
      <use xlink:href="#DejaVuSans-71" x="150.65625"/>
      <use xlink:href="#DejaVuSans-75" x="214.132812"/>
      <use xlink:href="#DejaVuSans-65" x="277.511719"/>
      <use xlink:href="#DejaVuSans-6e" x="339.035156"/>
      <use xlink:href="#DejaVuSans-63" x="402.414062"/>
      <use xlink:href="#DejaVuSans-79" x="457.394531"/>
     </g>
    </g>
   </g>
   <g id="line2d_14">
    <path d="M 72.738977 258.939639 
L 76.018316 267.70641 
L 79.297655 267.206023 
L 82.576993 261.093447 
L 85.856332 252.083625 
L 89.135671 242.127058 
L 92.415009 232.560804 
L 95.694348 224.237461 
L 98.973686 217.634498 
L 102.253025 212.946105 
L 105.532364 210.159596 
L 108.811702 209.118205 
L 112.091041 209.571985 
L 115.37038 211.218343 
L 118.649718 213.733664 
L 121.929057 216.797262 
L 125.208396 220.108866 
L 128.487734 223.400652 
L 131.767073 226.444779 
L 135.046412 229.057266 
L 138.32575 231.098927 
L 141.605089 232.474055 
L 144.884428 233.127383 
L 148.163766 233.039846 
L 151.443105 232.223549 
L 154.722443 230.7163 
L 158.001782 228.576012 
L 161.281121 225.875209 
L 164.560459 222.695828 
L 167.839798 219.124469 
L 171.119137 215.248203 
L 174.398475 211.151003 
L 177.677814 206.910846 
L 180.957153 202.597492 
L 184.236491 198.270939 
L 187.51583 193.980522 
L 190.795169 189.764593 
L 194.074507 185.65076 
L 197.353846 181.65657 
L 200.633185 177.790594 
L 203.912523 174.053816 
L 207.191862 170.441244 
L 210.4712 166.943662 
L 213.750539 163.54944 
L 217.029878 160.246321 
L 220.309216 157.023118 
L 223.588555 153.87125 
L 226.867894 150.786062 
L 230.147232 147.767886 
L 233.426571 263.384712 
L 236.70591 263.384353 
L 239.985248 139.299135 
L 243.264587 136.764809 
L 246.543926 134.381219 
L 249.823264 132.178886 
L 253.102603 130.191955 
L 256.381942 128.456871 
L 259.66128 127.010828 
L 262.940619 125.890067 
L 266.219957 125.128068 
L 269.499296 124.753727 
L 272.778635 124.789573 
L 276.057973 125.250117 
L 279.337312 126.14041 
L 282.616651 127.454885 
L 285.895989 129.176579 
L 289.175328 131.276781 
L 292.454667 133.715196 
L 295.734005 136.440674 
L 299.013344 139.392536 
L 302.292683 142.502541 
L 305.572021 145.697483 
L 308.85136 148.902413 
L 312.130699 152.044442 
L 315.410037 155.057031 
L 318.689376 157.884688 
L 321.968714 160.48789 
L 325.248053 162.848061 
L 328.527392 164.972341 
L 331.80673 166.89786 
L 335.086069 168.695161 
L 338.365408 170.470341 
L 341.644746 172.36542 
L 344.924085 174.556386 
L 348.203424 177.248235 
L 351.482762 180.666304 
L 354.762101 185.043036 
L 358.04144 190.599263 
L 361.320778 197.518958 
L 364.600117 205.916305 
L 367.879456 215.79381 
L 371.158794 226.990048 
L 374.438133 239.115503 
L 377.717471 251.474824 
L 380.99681 262.97365 
L 384.276149 272.008007 
L 387.555487 276.334125 
L 390.834826 272.916317 
L 394.114165 257.750399 
L 397.393503 225.659932 
" clip-path="url(#pb8d1868b09)" style="fill: none; stroke: #1f77b4; stroke-width: 1.5; stroke-linecap: square"/>
   </g>
   <g id="line2d_15">
    <path d="M 72.738977 268.232209 
L 76.018316 264.770537 
L 79.297655 259.471309 
L 82.576993 253.296463 
L 85.856332 246.935602 
L 89.135671 240.861741 
L 92.415009 235.378405 
L 95.694348 230.659074 
L 98.973686 226.779899 
L 102.253025 223.74651 
L 105.532364 221.515704 
L 108.811702 220.012684 
L 112.091041 219.144512 
L 115.37038 218.810321 
L 118.649718 218.908822 
L 121.929057 219.343549 
L 125.208396 220.026269 
L 128.487734 220.878909 
L 131.767073 221.834321 
L 135.046412 222.836171 
L 138.32575 223.838179 
L 141.605089 224.802932 
L 144.884428 225.70043 
L 148.163766 226.50651 
L 151.443105 227.201279 
L 154.722443 227.767626 
L 158.001782 228.189907 
L 161.281121 228.452832 
L 164.560459 228.540609 
L 167.839798 228.436343 
L 171.119137 228.121712 
L 174.398475 227.576895 
L 177.677814 226.780757 
L 180.957153 225.711253 
L 184.236491 224.346016 
L 187.51583 222.663108 
L 190.795169 220.641893 
L 194.074507 218.263972 
L 197.353846 215.514168 
L 200.633185 212.381499 
L 203.912523 208.860103 
L 207.191862 204.950087 
L 210.4712 200.658249 
L 213.750539 195.998661 
L 217.029878 190.993074 
L 220.309216 185.671122 
L 223.588555 180.070324 
L 226.867894 174.235862 
L 230.147232 168.220126 
L 233.426571 263.386573 
L 236.70591 263.386389 
L 239.985248 149.085412 
L 243.264587 143.089964 
L 246.543926 137.281107 
L 249.823264 131.72703 
L 253.102603 126.493409 
L 256.381942 121.64206 
L 259.66128 117.229634 
L 262.940619 113.306388 
L 266.219957 109.91508 
L 269.499296 107.090009 
L 272.778635 104.856237 
L 276.057973 103.229036 
L 279.337312 102.213571 
L 282.616651 101.804864 
L 285.895989 101.988049 
L 289.175328 102.738937 
L 292.454667 104.0249 
L 295.734005 105.806085 
L 299.013344 108.03693 
L 302.292683 110.667998 
L 305.572021 113.648061 
L 308.85136 116.926428 
L 312.130699 120.455448 
L 315.410037 124.193104 
L 318.689376 128.10564 
L 321.968714 132.170089 
L 325.248053 136.376581 
L 328.527392 140.730296 
L 331.80673 145.252869 
L 335.086069 149.983064 
L 338.365408 154.97648 
L 341.644746 160.304048 
L 344.924085 166.049016 
L 348.203424 172.302116 
L 351.482762 179.154547 
L 354.762101 186.68839 
L 358.04144 194.964019 
L 361.320778 204.004026 
L 364.600117 213.773155 
L 367.879456 224.153661 
L 371.158794 234.915501 
L 374.438133 245.680667 
L 377.717471 255.880952 
L 380.99681 264.708371 
L 384.276149 271.057399 
L 387.555487 273.458116 
L 390.834826 269.999308 
L 394.114165 258.240488 
L 397.393503 235.111721 
" clip-path="url(#pb8d1868b09)" style="fill: none; stroke: #ff7f0e; stroke-width: 1.5; stroke-linecap: square"/>
   </g>
   <g id="line2d_16">
    <path d="M 72.738977 257.49339 
L 76.018316 270.850149 
L 79.297654 266.695356 
L 82.576993 250.661645 
L 85.856331 227.22081 
L 89.13567 199.859256 
L 92.415008 171.233412 
L 95.694346 143.306844 
L 98.973685 117.470642 
L 102.253023 94.648597 
L 105.532362 75.38858 
L 108.8117 59.941427 
L 112.091039 48.328563 
L 115.370377 40.399515 
L 118.649716 35.880362 
L 121.929054 34.414125 
L 125.208393 35.593994 
L 128.487731 38.990247 
L 131.767069 44.171628 
L 135.046408 50.721899 
L 138.325746 58.252223 
L 141.605085 66.409966 
L 144.884423 74.884457 
L 148.163762 83.410208 
L 151.4431 91.768026 
L 154.722439 99.78441 
L 158.001777 107.329598 
L 161.281115 114.31457 
L 164.560454 120.687283 
L 167.839792 126.428384 
L 171.119131 131.546602 
L 174.398469 136.074009 
L 177.677808 140.061294 
L 180.957146 143.57317 
L 184.236485 146.684032 
L 187.515823 149.473929 
L 190.795162 152.024927 
L 194.0745 154.417885 
L 197.353838 156.729706 
L 200.633177 159.031036 
L 203.912515 161.384446 
L 207.191854 163.84307 
L 210.471192 166.449687 
L 213.750531 169.236219 
L 217.029869 172.223609 
L 220.309208 175.422058 
L 223.588546 178.83155 
L 226.867885 182.442653 
L 230.147223 186.237523 
L 233.426561 263.394368 
L 236.7059 263.394187 
L 239.985238 199.65939 
L 243.264577 203.574823 
L 246.543915 207.450307 
L 249.823254 211.262317 
L 253.102592 214.990402 
L 256.381931 218.617538 
L 259.661269 222.130248 
L 262.940607 225.51851 
L 266.219946 228.775479 
L 269.499284 231.897024 
L 272.778623 234.881139 
L 276.057961 237.727248 
L 279.3373 240.435451 
L 282.616638 243.005761 
L 285.895977 245.437389 
L 289.175315 247.728104 
L 292.454654 249.873749 
L 295.733992 251.867934 
L 299.01333 253.701973 
L 302.292669 255.365073 
L 305.572007 256.844839 
L 308.851346 258.128072 
L 312.130684 259.201893 
L 315.410023 260.055158 
L 318.689361 260.680141 
L 321.9687 261.074413 
L 325.248038 261.242845 
L 328.527377 261.199609 
L 331.806715 260.970028 
L 335.086053 260.592094 
L 338.365392 260.117414 
L 341.64473 259.61132 
L 344.924069 259.151801 
L 348.203407 258.826895 
L 351.482746 258.730082 
L 354.762084 258.953183 
L 358.041423 259.576186 
L 361.320761 260.653352 
L 364.6001 262.194866 
L 367.879438 264.14322 
L 371.158776 266.343419 
L 374.438115 268.506013 
L 377.717453 270.161829 
L 380.996792 270.607206 
L 384.27613 268.838381 
L 387.555469 263.473589 
L 390.834807 252.66127 
L 394.114146 233.97268 
L 397.393484 204.277024 
" clip-path="url(#pb8d1868b09)" style="fill: none; stroke: #2ca02c; stroke-width: 1.5; stroke-linecap: square"/>
   </g>
   <g id="line2d_17">
    <path d="M 72.738977 270.733708 
L 76.018316 262.799552 
L 79.297655 258.772462 
L 82.576994 256.787183 
L 85.856333 255.600038 
L 89.135671 254.44384 
L 92.41501 252.906919 
L 95.694349 250.833413 
L 98.973688 248.242215 
L 102.253027 245.262174 
L 105.532366 242.08137 
L 108.811705 238.908472 
L 112.091043 235.94435 
L 115.370382 233.362337 
L 118.649721 231.295645 
L 121.92906 229.830635 
L 125.208399 229.004758 
L 128.487738 228.80815 
L 131.767076 229.187951 
L 135.046415 230.054576 
L 138.325754 231.289248 
L 141.605093 232.752218 
L 144.884432 234.291181 
L 148.163771 235.749495 
L 151.44311 236.973881 
L 154.722448 237.821342 
L 158.001787 238.165136 
L 161.281126 237.899656 
L 164.560465 236.944151 
L 167.839804 235.24526 
L 171.119143 232.778356 
L 174.398481 229.547753 
L 177.67782 225.585851 
L 180.957159 220.951306 
L 184.236498 215.726346 
L 187.515837 210.013363 
L 190.795176 203.930926 
L 194.074514 197.609356 
L 197.353853 191.18602 
L 200.633192 184.800494 
L 203.912531 178.589739 
L 207.19187 172.683439 
L 210.471209 167.199631 
L 213.750548 162.240746 
L 217.029886 157.890169 
L 220.309225 154.209427 
L 223.588564 151.23606 
L 226.867903 148.982254 
L 230.147242 147.434276 
L 233.426581 263.390967 
L 236.705919 263.389718 
L 239.985258 146.703525 
L 243.264597 147.05878 
L 246.543936 147.698046 
L 249.823275 148.498447 
L 253.102614 149.328878 
L 256.381952 150.054465 
L 259.661291 150.541357 
L 262.94063 150.661714 
L 266.219969 150.298771 
L 269.499308 149.35184 
L 272.778647 147.741107 
L 276.057986 145.412062 
L 279.337324 142.339432 
L 282.616663 138.530452 
L 285.896002 134.027325 
L 289.175341 128.908746 
L 292.45468 123.29035 
L 295.734019 117.323972 
L 299.013357 111.195629 
L 302.292696 105.122142 
L 305.572035 99.346359 
L 308.851374 94.130957 
L 312.130713 89.750861 
L 315.410052 86.484317 
L 318.68939 84.60276 
L 321.968729 84.359611 
L 325.248068 85.978252 
L 328.527407 89.639443 
L 331.806746 95.468552 
L 335.086085 103.523023 
L 338.365424 113.780608 
L 341.644762 126.128968 
L 344.924101 140.357349 
L 348.20344 156.151149 
L 351.482779 173.090304 
L 354.762118 190.652534 
L 358.041457 208.222635 
L 361.320795 225.109122 
L 364.600134 240.569697 
L 367.879473 253.847145 
L 371.158812 264.217448 
L 374.438151 271.052068 
L 377.71749 273.896536 
L 380.996829 272.567685 
L 384.276167 267.272045 
L 387.555506 258.748163 
L 390.834845 248.435812 
L 394.114184 238.675287 
L 397.393523 232.940251 
" clip-path="url(#pb8d1868b09)" style="fill: none; stroke: #d62728; stroke-width: 1.5; stroke-linecap: square"/>
   </g>
   <g id="line2d_18">
    <path d="M 72.738977 263.228241 
L 76.018316 264.727324 
L 79.297655 264.172501 
L 82.576993 262.177929 
L 85.856332 259.24907 
L 89.135671 255.795208 
L 92.415009 252.141083 
L 95.694348 248.537651 
L 98.973686 245.172003 
L 102.253025 242.176468 
L 105.532364 239.636938 
L 108.811702 237.600437 
L 112.091041 236.08197 
L 115.37038 235.070685 
L 118.649718 234.53538 
L 121.929057 234.429393 
L 125.208396 234.694898 
L 128.487734 235.266657 
L 131.767073 236.075253 
L 135.046412 237.049834 
L 138.32575 238.120416 
L 141.605089 239.219768 
L 144.884428 240.284917 
L 148.163766 241.258299 
L 151.443105 242.088608 
L 154.722443 242.731345 
L 158.001782 243.149127 
L 161.281121 243.311768 
L 164.560459 243.196168 
L 167.839798 242.786035 
L 171.119137 242.07147 
L 174.398475 241.048443 
L 177.677814 239.718177 
L 180.957153 238.086466 
L 184.236491 236.162958 
L 187.51583 233.960407 
L 190.795169 231.493931 
L 194.074507 228.780276 
L 197.353846 225.837118 
L 200.633185 222.682405 
L 203.912523 219.333757 
L 207.191862 215.80794 
L 210.4712 212.120415 
L 213.750539 208.284971 
L 217.029878 204.313455 
L 220.309216 200.215603 
L 223.588555 195.998957 
L 226.867894 191.668905 
L 230.147232 187.228799 
L 233.426571 263.390163 
L 236.70591 263.389407 
L 239.985248 172.910011 
L 243.264587 168.175977 
L 246.543926 163.343002 
L 249.823264 158.402891 
L 253.102603 153.348276 
L 256.381942 148.173689 
L 259.66128 142.876668 
L 262.940619 137.458898 
L 266.219957 131.927338 
L 269.499296 126.295315 
L 272.778635 120.58354 
L 276.057973 114.82103 
L 279.337312 109.045884 
L 282.616651 103.305891 
L 285.895989 97.658929 
L 289.175328 92.173121 
L 292.454667 86.926729 
L 295.734005 82.007732 
L 299.013344 77.513087 
L 302.292683 73.547625 
L 305.572021 70.222582 
L 308.85136 67.653732 
L 312.130699 65.95913 
L 315.410037 65.256441 
L 318.689376 65.65988 
L 321.968714 67.276753 
L 325.248053 70.203636 
L 328.527392 74.522217 
L 331.80673 80.294843 
L 335.086069 87.559814 
L 338.365408 96.326515 
L 341.644746 106.570441 
L 344.924085 118.228225 
L 348.203424 131.192777 
L 351.482762 145.308664 
L 354.762101 160.367876 
L 358.04144 176.106155 
L 361.320778 192.200067 
L 364.600117 208.265036 
L 367.879456 223.854572 
L 371.158794 238.460965 
L 374.438133 251.517719 
L 377.717471 262.404059 
L 380.99681 270.451851 
L 384.276149 274.95531 
L 387.555487 275.183925 
L 390.834826 270.399026 
L 394.114165 259.874502 
L 397.393503 242.92216 
" clip-path="url(#pb8d1868b09)" style="fill: none; stroke: #9467bd; stroke-width: 1.5; stroke-linecap: square"/>
   </g>
   <g id="line2d_19">
    <path d="M 72.738977 261.315615 
L 75.725104 264.514278 
L 78.71123 265.227151 
L 81.697357 264.267153 
L 84.683483 262.250087 
L 87.66961 259.633323 
L 90.655736 256.748409 
L 93.641863 253.828303 
L 96.627989 251.029921 
L 99.614116 248.452593 
L 102.600242 246.152979 
L 105.586369 244.156956 
L 108.572495 242.468923 
L 111.558622 241.078928 
L 114.544748 239.967984 
L 117.530875 239.111903 
L 120.517001 238.483916 
L 123.503128 238.056356 
L 126.489254 237.801596 
L 129.475381 237.692451 
L 132.461507 237.70219 
L 135.447634 237.804306 
L 138.43376 237.972139 
L 141.419887 238.178464 
L 144.406013 238.395091 
L 147.392139 238.59256 
L 150.378266 238.739936 
L 153.364392 238.80476 
L 156.350519 238.753152 
L 159.336645 238.550071 
L 162.322772 238.159731 
L 165.308898 237.546155 
L 168.295025 236.673851 
L 171.281151 235.508584 
L 174.267278 234.018221 
L 177.253404 232.173611 
L 180.239531 229.949481 
L 183.225657 227.325303 
L 186.211784 224.286113 
L 189.19791 220.823253 
L 192.184037 216.934992 
L 195.170163 212.627031 
L 198.15629 207.912838 
L 201.142416 202.813828 
L 204.128543 197.359342 
L 207.114669 191.586454 
L 210.100796 185.539562 
L 213.086922 179.269803 
L 216.073049 172.834267 
L 219.059175 263.387654 
L 222.045302 263.387181 
L 225.031428 153.087283 
L 228.017555 146.736483 
L 231.003681 140.557574 
L 233.989808 134.614079 
L 236.975934 128.966284 
L 239.962061 123.669922 
L 242.948187 118.774936 
L 245.934314 114.32434 
L 248.92044 110.353231 
L 251.906567 106.887976 
L 254.892693 103.945616 
L 257.87882 101.533518 
L 260.864946 99.649309 
L 263.851073 98.281115 
L 266.837199 97.408119 
L 269.823326 97.00147 
L 272.809452 97.025531 
L 275.795578 97.439473 
L 278.781705 98.199207 
L 281.767831 99.259614 
L 284.753958 100.577051 
L 287.740084 102.112075 
L 290.726211 103.832308 
L 293.712337 105.715373 
L 296.698464 107.75177 
L 299.68459 109.947592 
L 302.670717 112.326894 
L 305.656843 114.93357 
L 308.64297 117.832504 
L 311.629096 121.109774 
L 314.615223 124.871637 
L 317.601349 129.241987 
L 320.587476 134.357952 
L 323.573602 140.363251 
L 326.559729 147.398879 
L 329.545855 155.590677 
L 332.531982 165.033251 
L 335.518108 175.769698 
L 338.504235 187.766516 
L 341.490361 200.883035 
L 344.476488 214.834637 
L 347.462614 229.148986 
L 350.448741 243.114416 
L 353.434867 255.719554 
L 356.420994 265.583198 
L 359.40712 270.873384 
L 362.393247 269.214518 
L 365.379373 257.581333 
L 368.3655 232.178393 
" clip-path="url(#pb8d1868b09)" style="fill: none; stroke: #8c564b; stroke-width: 1.5; stroke-linecap: square"/>
   </g>
   <g id="patch_3">
    <path d="M 56.50625 288.430125 
L 56.50625 22.318125 
" style="fill: none; stroke: #000000; stroke-width: 0.8; stroke-linejoin: miter; stroke-linecap: square"/>
   </g>
   <g id="patch_4">
    <path d="M 413.62625 288.430125 
L 413.62625 22.318125 
" style="fill: none; stroke: #000000; stroke-width: 0.8; stroke-linejoin: miter; stroke-linecap: square"/>
   </g>
   <g id="patch_5">
    <path d="M 56.50625 288.430125 
L 413.62625 288.430125 
" style="fill: none; stroke: #000000; stroke-width: 0.8; stroke-linejoin: miter; stroke-linecap: square"/>
   </g>
   <g id="patch_6">
    <path d="M 56.50625 22.318125 
L 413.62625 22.318125 
" style="fill: none; stroke: #000000; stroke-width: 0.8; stroke-linejoin: miter; stroke-linecap: square"/>
   </g>
   <g id="text_16">
    <!-- FA - xtract_prob_Corticospinal_Tract_L -->
    <g transform="translate(121.77875 16.318125) scale(0.12 -0.12)">
     <defs>
      <path id="DejaVuSans-41" d="M 2188 4044 
L 1331 1722 
L 3047 1722 
L 2188 4044 
z
M 1831 4666 
L 2547 4666 
L 4325 0 
L 3669 0 
L 3244 1197 
L 1141 1197 
L 716 0 
L 50 0 
L 1831 4666 
z
" transform="scale(0.015625)"/>
      <path id="DejaVuSans-2d" d="M 313 2009 
L 1997 2009 
L 1997 1497 
L 313 1497 
L 313 2009 
z
" transform="scale(0.015625)"/>
      <path id="DejaVuSans-74" d="M 1172 4494 
L 1172 3500 
L 2356 3500 
L 2356 3053 
L 1172 3053 
L 1172 1153 
Q 1172 725 1289 603 
Q 1406 481 1766 481 
L 2356 481 
L 2356 0 
L 1766 0 
Q 1100 0 847 248 
Q 594 497 594 1153 
L 594 3053 
L 172 3053 
L 172 3500 
L 594 3500 
L 594 4494 
L 1172 4494 
z
" transform="scale(0.015625)"/>
      <path id="DejaVuSans-5f" d="M 3263 -1063 
L 3263 -1509 
L -63 -1509 
L -63 -1063 
L 3263 -1063 
z
" transform="scale(0.015625)"/>
      <path id="DejaVuSans-70" d="M 1159 525 
L 1159 -1331 
L 581 -1331 
L 581 3500 
L 1159 3500 
L 1159 2969 
Q 1341 3281 1617 3432 
Q 1894 3584 2278 3584 
Q 2916 3584 3314 3078 
Q 3713 2572 3713 1747 
Q 3713 922 3314 415 
Q 2916 -91 2278 -91 
Q 1894 -91 1617 61 
Q 1341 213 1159 525 
z
M 3116 1747 
Q 3116 2381 2855 2742 
Q 2594 3103 2138 3103 
Q 1681 3103 1420 2742 
Q 1159 2381 1159 1747 
Q 1159 1113 1420 752 
Q 1681 391 2138 391 
Q 2594 391 2855 752 
Q 3116 1113 3116 1747 
z
" transform="scale(0.015625)"/>
      <path id="DejaVuSans-6f" d="M 1959 3097 
Q 1497 3097 1228 2736 
Q 959 2375 959 1747 
Q 959 1119 1226 758 
Q 1494 397 1959 397 
Q 2419 397 2687 759 
Q 2956 1122 2956 1747 
Q 2956 2369 2687 2733 
Q 2419 3097 1959 3097 
z
M 1959 3584 
Q 2709 3584 3137 3096 
Q 3566 2609 3566 1747 
Q 3566 888 3137 398 
Q 2709 -91 1959 -91 
Q 1206 -91 779 398 
Q 353 888 353 1747 
Q 353 2609 779 3096 
Q 1206 3584 1959 3584 
z
" transform="scale(0.015625)"/>
      <path id="DejaVuSans-62" d="M 3116 1747 
Q 3116 2381 2855 2742 
Q 2594 3103 2138 3103 
Q 1681 3103 1420 2742 
Q 1159 2381 1159 1747 
Q 1159 1113 1420 752 
Q 1681 391 2138 391 
Q 2594 391 2855 752 
Q 3116 1113 3116 1747 
z
M 1159 2969 
Q 1341 3281 1617 3432 
Q 1894 3584 2278 3584 
Q 2916 3584 3314 3078 
Q 3713 2572 3713 1747 
Q 3713 922 3314 415 
Q 2916 -91 2278 -91 
Q 1894 -91 1617 61 
Q 1341 213 1159 525 
L 1159 0 
L 581 0 
L 581 4863 
L 1159 4863 
L 1159 2969 
z
" transform="scale(0.015625)"/>
      <path id="DejaVuSans-43" d="M 4122 4306 
L 4122 3641 
Q 3803 3938 3442 4084 
Q 3081 4231 2675 4231 
Q 1875 4231 1450 3742 
Q 1025 3253 1025 2328 
Q 1025 1406 1450 917 
Q 1875 428 2675 428 
Q 3081 428 3442 575 
Q 3803 722 4122 1019 
L 4122 359 
Q 3791 134 3420 21 
Q 3050 -91 2638 -91 
Q 1578 -91 968 557 
Q 359 1206 359 2328 
Q 359 3453 968 4101 
Q 1578 4750 2638 4750 
Q 3056 4750 3426 4639 
Q 3797 4528 4122 4306 
z
" transform="scale(0.015625)"/>
      <path id="DejaVuSans-54" d="M -19 4666 
L 3928 4666 
L 3928 4134 
L 2272 4134 
L 2272 0 
L 1638 0 
L 1638 4134 
L -19 4134 
L -19 4666 
z
" transform="scale(0.015625)"/>
      <path id="DejaVuSans-4c" d="M 628 4666 
L 1259 4666 
L 1259 531 
L 3531 531 
L 3531 0 
L 628 0 
L 628 4666 
z
" transform="scale(0.015625)"/>
     </defs>
     <use xlink:href="#DejaVuSans-46"/>
     <use xlink:href="#DejaVuSans-41" x="48.394531"/>
     <use xlink:href="#DejaVuSans-20" x="116.802734"/>
     <use xlink:href="#DejaVuSans-2d" x="148.589844"/>
     <use xlink:href="#DejaVuSans-20" x="184.673828"/>
     <use xlink:href="#DejaVuSans-78" x="216.460938"/>
     <use xlink:href="#DejaVuSans-74" x="275.640625"/>
     <use xlink:href="#DejaVuSans-72" x="314.849609"/>
     <use xlink:href="#DejaVuSans-61" x="355.962891"/>
     <use xlink:href="#DejaVuSans-63" x="417.242188"/>
     <use xlink:href="#DejaVuSans-74" x="472.222656"/>
     <use xlink:href="#DejaVuSans-5f" x="511.431641"/>
     <use xlink:href="#DejaVuSans-70" x="561.431641"/>
     <use xlink:href="#DejaVuSans-72" x="624.908203"/>
     <use xlink:href="#DejaVuSans-6f" x="663.771484"/>
     <use xlink:href="#DejaVuSans-62" x="724.953125"/>
     <use xlink:href="#DejaVuSans-5f" x="788.429688"/>
     <use xlink:href="#DejaVuSans-43" x="838.429688"/>
     <use xlink:href="#DejaVuSans-6f" x="908.253906"/>
     <use xlink:href="#DejaVuSans-72" x="969.435547"/>
     <use xlink:href="#DejaVuSans-74" x="1010.548828"/>
     <use xlink:href="#DejaVuSans-69" x="1049.757812"/>
     <use xlink:href="#DejaVuSans-63" x="1077.541016"/>
     <use xlink:href="#DejaVuSans-6f" x="1132.521484"/>
     <use xlink:href="#DejaVuSans-73" x="1193.703125"/>
     <use xlink:href="#DejaVuSans-70" x="1245.802734"/>
     <use xlink:href="#DejaVuSans-69" x="1309.279297"/>
     <use xlink:href="#DejaVuSans-6e" x="1337.0625"/>
     <use xlink:href="#DejaVuSans-61" x="1400.441406"/>
     <use xlink:href="#DejaVuSans-6c" x="1461.720703"/>
     <use xlink:href="#DejaVuSans-5f" x="1489.503906"/>
     <use xlink:href="#DejaVuSans-54" x="1539.503906"/>
     <use xlink:href="#DejaVuSans-72" x="1585.837891"/>
     <use xlink:href="#DejaVuSans-61" x="1626.951172"/>
     <use xlink:href="#DejaVuSans-63" x="1688.230469"/>
     <use xlink:href="#DejaVuSans-74" x="1743.210938"/>
     <use xlink:href="#DejaVuSans-5f" x="1782.419922"/>
     <use xlink:href="#DejaVuSans-4c" x="1832.419922"/>
    </g>
   </g>
   <g id="legend_1">
    <g id="patch_7">
     <path d="M 456.33825 146.666825 
L 554.1945 146.666825 
Q 556.1945 146.666825 556.1945 144.666825 
L 556.1945 55.929325 
Q 556.1945 53.929325 554.1945 53.929325 
L 456.33825 53.929325 
Q 454.33825 53.929325 454.33825 55.929325 
L 454.33825 144.666825 
Q 454.33825 146.666825 456.33825 146.666825 
z
" style="fill: #ffffff; opacity: 0.8; stroke: #cccccc; stroke-linejoin: miter"/>
    </g>
    <g id="line2d_20">
     <path d="M 458.33825 62.027762 
L 468.33825 62.027762 
L 478.33825 62.027762 
" style="fill: none; stroke: #1f77b4; stroke-width: 1.5; stroke-linecap: square"/>
    </g>
    <g id="text_17">
     <!-- 20_06_02_E3 -->
     <g transform="translate(486.33825 65.527762) scale(0.1 -0.1)">
      <defs>
       <path id="DejaVuSans-45" d="M 628 4666 
L 3578 4666 
L 3578 4134 
L 1259 4134 
L 1259 2753 
L 3481 2753 
L 3481 2222 
L 1259 2222 
L 1259 531 
L 3634 531 
L 3634 0 
L 628 0 
L 628 4666 
z
" transform="scale(0.015625)"/>
      </defs>
      <use xlink:href="#DejaVuSans-32"/>
      <use xlink:href="#DejaVuSans-30" x="63.623047"/>
      <use xlink:href="#DejaVuSans-5f" x="127.246094"/>
      <use xlink:href="#DejaVuSans-30" x="177.246094"/>
      <use xlink:href="#DejaVuSans-36" x="240.869141"/>
      <use xlink:href="#DejaVuSans-5f" x="304.492188"/>
      <use xlink:href="#DejaVuSans-30" x="354.492188"/>
      <use xlink:href="#DejaVuSans-32" x="418.115234"/>
      <use xlink:href="#DejaVuSans-5f" x="481.738281"/>
      <use xlink:href="#DejaVuSans-45" x="531.738281"/>
      <use xlink:href="#DejaVuSans-33" x="594.921875"/>
     </g>
    </g>
    <g id="line2d_21">
     <path d="M 458.33825 76.984013 
L 468.33825 76.984013 
L 478.33825 76.984013 
" style="fill: none; stroke: #ff7f0e; stroke-width: 1.5; stroke-linecap: square"/>
    </g>
    <g id="text_18">
     <!-- 20_05_01_E3 -->
     <g transform="translate(486.33825 80.484013) scale(0.1 -0.1)">
      <use xlink:href="#DejaVuSans-32"/>
      <use xlink:href="#DejaVuSans-30" x="63.623047"/>
      <use xlink:href="#DejaVuSans-5f" x="127.246094"/>
      <use xlink:href="#DejaVuSans-30" x="177.246094"/>
      <use xlink:href="#DejaVuSans-35" x="240.869141"/>
      <use xlink:href="#DejaVuSans-5f" x="304.492188"/>
      <use xlink:href="#DejaVuSans-30" x="354.492188"/>
      <use xlink:href="#DejaVuSans-31" x="418.115234"/>
      <use xlink:href="#DejaVuSans-5f" x="481.738281"/>
      <use xlink:href="#DejaVuSans-45" x="531.738281"/>
      <use xlink:href="#DejaVuSans-33" x="594.921875"/>
     </g>
    </g>
    <g id="line2d_22">
     <path d="M 458.33825 91.940262 
L 468.33825 91.940262 
L 478.33825 91.940262 
" style="fill: none; stroke: #2ca02c; stroke-width: 1.5; stroke-linecap: square"/>
    </g>
    <g id="text_19">
     <!-- 20_02_02_E3 -->
     <g transform="translate(486.33825 95.440262) scale(0.1 -0.1)">
      <use xlink:href="#DejaVuSans-32"/>
      <use xlink:href="#DejaVuSans-30" x="63.623047"/>
      <use xlink:href="#DejaVuSans-5f" x="127.246094"/>
      <use xlink:href="#DejaVuSans-30" x="177.246094"/>
      <use xlink:href="#DejaVuSans-32" x="240.869141"/>
      <use xlink:href="#DejaVuSans-5f" x="304.492188"/>
      <use xlink:href="#DejaVuSans-30" x="354.492188"/>
      <use xlink:href="#DejaVuSans-32" x="418.115234"/>
      <use xlink:href="#DejaVuSans-5f" x="481.738281"/>
      <use xlink:href="#DejaVuSans-45" x="531.738281"/>
      <use xlink:href="#DejaVuSans-33" x="594.921875"/>
     </g>
    </g>
    <g id="line2d_23">
     <path d="M 458.33825 106.896513 
L 468.33825 106.896513 
L 478.33825 106.896513 
" style="fill: none; stroke: #d62728; stroke-width: 1.5; stroke-linecap: square"/>
    </g>
    <g id="text_20">
     <!-- 20_10_02_E3 -->
     <g transform="translate(486.33825 110.396513) scale(0.1 -0.1)">
      <use xlink:href="#DejaVuSans-32"/>
      <use xlink:href="#DejaVuSans-30" x="63.623047"/>
      <use xlink:href="#DejaVuSans-5f" x="127.246094"/>
      <use xlink:href="#DejaVuSans-31" x="177.246094"/>
      <use xlink:href="#DejaVuSans-30" x="240.869141"/>
      <use xlink:href="#DejaVuSans-5f" x="304.492188"/>
      <use xlink:href="#DejaVuSans-30" x="354.492188"/>
      <use xlink:href="#DejaVuSans-32" x="418.115234"/>
      <use xlink:href="#DejaVuSans-5f" x="481.738281"/>
      <use xlink:href="#DejaVuSans-45" x="531.738281"/>
      <use xlink:href="#DejaVuSans-33" x="594.921875"/>
     </g>
    </g>
    <g id="line2d_24">
     <path d="M 458.33825 121.852762 
L 468.33825 121.852762 
L 478.33825 121.852762 
" style="fill: none; stroke: #9467bd; stroke-width: 1.5; stroke-linecap: square"/>
    </g>
    <g id="text_21">
     <!-- 20_08_02_E3 -->
     <g transform="translate(486.33825 125.352762) scale(0.1 -0.1)">
      <use xlink:href="#DejaVuSans-32"/>
      <use xlink:href="#DejaVuSans-30" x="63.623047"/>
      <use xlink:href="#DejaVuSans-5f" x="127.246094"/>
      <use xlink:href="#DejaVuSans-30" x="177.246094"/>
      <use xlink:href="#DejaVuSans-38" x="240.869141"/>
      <use xlink:href="#DejaVuSans-5f" x="304.492188"/>
      <use xlink:href="#DejaVuSans-30" x="354.492188"/>
      <use xlink:href="#DejaVuSans-32" x="418.115234"/>
      <use xlink:href="#DejaVuSans-5f" x="481.738281"/>
      <use xlink:href="#DejaVuSans-45" x="531.738281"/>
      <use xlink:href="#DejaVuSans-33" x="594.921875"/>
     </g>
    </g>
    <g id="line2d_25">
     <path d="M 458.33825 136.809012 
L 468.33825 136.809012 
L 478.33825 136.809012 
" style="fill: none; stroke: #8c564b; stroke-width: 1.5; stroke-linecap: square"/>
    </g>
    <g id="text_22">
     <!-- 20_11_02_E3 -->
     <g transform="translate(486.33825 140.309012) scale(0.1 -0.1)">
      <use xlink:href="#DejaVuSans-32"/>
      <use xlink:href="#DejaVuSans-30" x="63.623047"/>
      <use xlink:href="#DejaVuSans-5f" x="127.246094"/>
      <use xlink:href="#DejaVuSans-31" x="177.246094"/>
      <use xlink:href="#DejaVuSans-31" x="240.869141"/>
      <use xlink:href="#DejaVuSans-5f" x="304.492188"/>
      <use xlink:href="#DejaVuSans-30" x="354.492188"/>
      <use xlink:href="#DejaVuSans-32" x="418.115234"/>
      <use xlink:href="#DejaVuSans-5f" x="481.738281"/>
      <use xlink:href="#DejaVuSans-45" x="531.738281"/>
      <use xlink:href="#DejaVuSans-33" x="594.921875"/>
     </g>
    </g>
   </g>
  </g>
 </g>
 <defs>
  <clipPath id="pb8d1868b09">
   <rect x="56.50625" y="22.318125" width="357.12" height="266.112"/>
  </clipPath>
 </defs>
</svg>
