<?xml version="1.0" encoding="utf-8" standalone="no"?>
<!DOCTYPE svg PUBLIC "-//W3C//DTD SVG 1.1//EN"
  "http://www.w3.org/Graphics/SVG/1.1/DTD/svg11.dtd">
<svg xmlns:xlink="http://www.w3.org/1999/xlink" width="565.411687pt" height="325.986375pt" viewBox="0 0 565.411687 325.986375" xmlns="http://www.w3.org/2000/svg" version="1.1">
 <metadata>
  <rdf:RDF xmlns:dc="http://purl.org/dc/elements/1.1/" xmlns:cc="http://creativecommons.org/ns#" xmlns:rdf="http://www.w3.org/1999/02/22-rdf-syntax-ns#">
   <cc:Work>
    <dc:type rdf:resource="http://purl.org/dc/dcmitype/StillImage"/>
    <dc:date>2023-02-07T23:00:05.423879</dc:date>
    <dc:format>image/svg+xml</dc:format>
    <dc:creator>
     <cc:Agent>
      <dc:title>Matplotlib v3.6.2, https://matplotlib.org/</dc:title>
     </cc:Agent>
    </dc:creator>
   </cc:Work>
  </rdf:RDF>
 </metadata>
 <defs>
  <style type="text/css">*{stroke-linejoin: round; stroke-linecap: butt}</style>
 </defs>
 <g id="figure_1">
  <g id="patch_1">
   <path d="M 0 325.986375 
L 565.411687 325.986375 
L 565.411687 0 
L 0 0 
z
" style="fill: #ffffff"/>
  </g>
  <g id="axes_1">
   <g id="patch_2">
    <path d="M 58.523438 288.430125 
L 415.643438 288.430125 
L 415.643438 22.318125 
L 58.523438 22.318125 
z
" style="fill: #ffffff"/>
   </g>
   <g id="PolyCollection_1">
    <path d="M 74.756165 276.334125 
L 74.756165 232.40237 
L 76.962029 232.40237 
L 79.167892 232.40237 
L 81.373756 232.40237 
L 83.57962 232.40237 
L 85.785484 232.40237 
L 87.991348 232.40237 
L 90.197212 232.40237 
L 92.403076 232.40237 
L 94.608939 232.40237 
L 96.814803 232.40237 
L 99.020667 232.40237 
L 101.226531 232.40237 
L 103.432395 232.40237 
L 105.638259 232.40237 
L 107.844122 232.40237 
L 110.049986 232.40237 
L 112.25585 232.40237 
L 114.461714 232.40237 
L 116.667578 232.40237 
L 118.873442 232.40237 
L 121.079306 232.40237 
L 123.285169 232.40237 
L 125.491033 232.40237 
L 127.696897 232.40237 
L 129.902761 232.40237 
L 132.108625 232.40237 
L 134.314489 232.40237 
L 136.520352 232.40237 
L 138.726216 232.40237 
L 140.93208 232.40237 
L 143.137944 232.40237 
L 145.343808 232.40237 
L 147.549672 232.40237 
L 149.755536 232.40237 
L 151.961399 232.40237 
L 154.167263 232.40237 
L 156.373127 232.40237 
L 158.578991 232.40237 
L 160.784855 232.40237 
L 162.990719 232.40237 
L 165.196582 232.40237 
L 167.402446 232.40237 
L 169.60831 232.40237 
L 171.814174 232.40237 
L 174.020038 232.40237 
L 176.225902 232.40237 
L 178.431766 232.40237 
L 180.637629 232.40237 
L 182.843493 232.40237 
L 185.049357 232.40237 
L 187.255221 232.40237 
L 189.461085 232.40237 
L 191.666949 232.40237 
L 193.872812 232.40237 
L 196.078676 232.40237 
L 198.28454 232.40237 
L 200.490404 232.40237 
L 202.696268 232.40237 
L 204.902132 232.40237 
L 207.107996 232.40237 
L 209.313859 232.40237 
L 211.519723 232.40237 
L 213.725587 232.40237 
L 215.931451 232.40237 
L 218.137315 232.40237 
L 220.343179 232.40237 
L 222.549042 232.40237 
L 224.754906 232.40237 
L 226.96077 232.40237 
L 229.166634 232.40237 
L 231.372498 232.40237 
L 233.578362 232.40237 
L 235.784226 232.40237 
L 237.990089 232.40237 
L 240.195953 232.40237 
L 242.401817 232.40237 
L 244.607681 232.40237 
L 246.813545 232.40237 
L 249.019409 232.40237 
L 251.225272 232.40237 
L 253.431136 232.40237 
L 255.637 232.40237 
L 257.842864 232.40237 
L 260.048728 232.40237 
L 262.254592 232.40237 
L 264.460456 232.40237 
L 266.666319 232.40237 
L 268.872183 232.40237 
L 271.078047 232.40237 
L 273.283911 232.40237 
L 275.489775 232.40237 
L 277.695639 232.40237 
L 279.901502 232.40237 
L 282.107366 232.40237 
L 284.31323 232.40237 
L 286.519094 232.40237 
L 288.724958 232.40237 
L 290.930822 232.40237 
L 293.136685 232.40237 
L 293.136685 236.493017 
L 293.136685 236.493017 
L 290.930822 230.793672 
L 288.724958 228.809396 
L 286.519094 228.990777 
L 284.31323 230.245953 
L 282.107366 231.840989 
L 279.901502 233.316401 
L 277.695639 234.417895 
L 275.489775 235.039575 
L 273.283911 235.178011 
L 271.078047 234.895711 
L 268.872183 234.292657 
L 266.666319 233.484723 
L 264.460456 232.587865 
L 262.254592 231.707144 
L 260.048728 230.929692 
L 257.842864 230.320866 
L 255.637 229.922912 
L 253.431136 229.755552 
L 251.225272 229.817972 
L 249.019409 230.091791 
L 246.813545 230.544615 
L 244.607681 231.133895 
L 242.401817 231.810808 
L 240.195953 232.523977 
L 237.990089 233.222865 
L 235.784226 233.860733 
L 233.578362 234.397072 
L 231.372498 234.79948 
L 229.166634 235.044948 
L 226.96077 235.120571 
L 224.754906 235.023712 
L 222.549042 234.761648 
L 220.343179 234.350775 
L 218.137315 233.81542 
L 215.931451 233.186344 
L 213.725587 232.499022 
L 211.519723 231.79176 
L 209.313859 231.103751 
L 207.107996 230.473144 
L 204.902132 229.935191 
L 202.696268 229.520557 
L 200.490404 229.253841 
L 198.28454 229.152366 
L 196.078676 229.225293 
L 193.872812 229.473068 
L 191.666949 229.887251 
L 189.461085 230.450716 
L 187.255221 231.138232 
L 185.049357 232.402883 
L 182.843493 232.401503 
L 180.637629 235.387605 
L 178.431766 235.346482 
L 176.225902 235.158818 
L 174.020038 234.823526 
L 171.814174 234.345945 
L 169.60831 233.73814 
L 167.402446 233.018986 
L 165.196582 232.214006 
L 162.990719 231.354955 
L 160.784855 230.479118 
L 158.578991 229.62832 
L 156.373127 228.847643 
L 154.167263 228.183855 
L 151.961399 227.683551 
L 149.755536 227.391034 
L 147.549672 227.345965 
L 145.343808 227.580817 
L 143.137944 228.118179 
L 140.93208 228.967996 
L 138.726216 230.124794 
L 136.520352 231.565007 
L 134.314489 233.244509 
L 132.108625 235.096473 
L 129.902761 237.02971 
L 127.696897 238.927665 
L 125.491033 240.648233 
L 123.285169 242.02464 
L 121.079306 242.867602 
L 118.873442 242.96903 
L 116.667578 242.107587 
L 114.461714 240.056397 
L 112.25585 236.59326 
L 110.049986 231.513776 
L 107.844122 224.647761 
L 105.638259 215.879443 
L 103.432395 205.171898 
L 101.226531 192.596276 
L 99.020667 178.366373 
L 96.814803 162.879178 
L 94.608939 146.762028 
L 92.403076 130.927102 
L 90.197212 116.633991 
L 87.991348 105.561146 
L 85.785484 99.887067 
L 83.57962 102.382147 
L 81.373756 116.51212 
L 79.167892 146.554158 
L 76.962029 197.726693 
L 74.756165 276.334125 
z
" clip-path="url(#pf80084ea3c)" style="fill: #1f77b4; fill-opacity: 0.166667"/>
   </g>
   <g id="PolyCollection_2">
    <path d="M 74.756165 238.000605 
L 74.756165 232.40237 
L 75.165847 232.40237 
L 75.57553 232.40237 
L 75.985212 232.40237 
L 76.394894 232.40237 
L 76.804577 232.40237 
L 77.214259 232.40237 
L 77.623941 232.40237 
L 78.033624 232.40237 
L 78.443306 232.40237 
L 78.852988 232.40237 
L 79.262671 232.40237 
L 79.672353 232.40237 
L 80.082036 232.40237 
L 80.491718 232.40237 
L 80.9014 232.40237 
L 81.311083 232.40237 
L 81.720765 232.40237 
L 82.130447 232.40237 
L 82.54013 232.40237 
L 82.949812 232.40237 
L 83.359495 232.40237 
L 83.769177 232.40237 
L 84.178859 232.40237 
L 84.588542 232.40237 
L 84.998224 232.40237 
L 85.407906 232.40237 
L 85.817589 232.40237 
L 86.227271 232.40237 
L 86.636954 232.40237 
L 87.046636 232.40237 
L 87.456318 232.40237 
L 87.866001 232.40237 
L 88.275683 232.40237 
L 88.685365 232.40237 
L 89.095048 232.40237 
L 89.50473 232.40237 
L 89.914413 232.40237 
L 90.324095 232.40237 
L 90.733777 232.40237 
L 91.14346 232.40237 
L 91.553142 232.40237 
L 91.962824 232.40237 
L 92.372507 232.40237 
L 92.782189 232.40237 
L 93.191871 232.40237 
L 93.601554 232.40237 
L 94.011236 232.40237 
L 94.420919 232.40237 
L 94.830601 232.40237 
L 95.240283 232.40237 
L 95.649966 232.40237 
L 96.059648 232.40237 
L 96.46933 232.40237 
L 96.879013 232.40237 
L 97.288695 232.40237 
L 97.698378 232.40237 
L 98.10806 232.40237 
L 98.517742 232.40237 
L 98.927425 232.40237 
L 99.337107 232.40237 
L 99.746789 232.40237 
L 100.156472 232.40237 
L 100.566154 232.40237 
L 100.975837 232.40237 
L 101.385519 232.40237 
L 101.795201 232.40237 
L 102.204884 232.40237 
L 102.614566 232.40237 
L 103.024248 232.40237 
L 103.433931 232.40237 
L 103.843613 232.40237 
L 104.253296 232.40237 
L 104.662978 232.40237 
L 105.07266 232.40237 
L 105.482343 232.40237 
L 105.892025 232.40237 
L 106.301707 232.40237 
L 106.71139 232.40237 
L 107.121072 232.40237 
L 107.530754 232.40237 
L 107.940437 232.40237 
L 108.350119 232.40237 
L 108.759802 232.40237 
L 109.169484 232.40237 
L 109.579166 232.40237 
L 109.988849 232.40237 
L 110.398531 232.40237 
L 110.808213 232.40237 
L 111.217896 232.40237 
L 111.627578 232.40237 
L 112.037261 232.40237 
L 112.446943 232.40237 
L 112.856625 232.40237 
L 113.266308 232.40237 
L 113.67599 232.40237 
L 114.085672 232.40237 
L 114.495355 232.40237 
L 114.905037 232.40237 
L 115.31472 232.40237 
L 115.31472 237.857532 
L 115.31472 237.857532 
L 114.905037 230.59653 
L 114.495355 227.986681 
L 114.085672 228.122071 
L 113.67599 229.647812 
L 113.266308 231.64306 
L 112.856625 233.52243 
L 112.446943 234.953692 
L 112.037261 235.789808 
L 111.627578 236.013538 
L 111.217896 235.692981 
L 110.808213 234.946575 
L 110.398531 233.916193 
L 109.988849 232.747134 
L 109.579166 231.573883 
L 109.169484 230.510676 
L 108.759802 229.645969 
L 108.350119 229.040046 
L 107.940437 228.72506 
L 107.530754 228.706918 
L 107.121072 228.968479 
L 106.71139 229.473627 
L 106.301707 230.171822 
L 105.892025 231.002839 
L 105.482343 231.901408 
L 105.07266 232.801578 
L 104.662978 233.640619 
L 104.253296 234.36237 
L 103.843613 234.919938 
L 103.433931 235.277714 
L 103.024248 235.412694 
L 102.614566 235.315105 
L 102.204884 234.988379 
L 101.795201 234.448525 
L 101.385519 233.72296 
L 100.975837 232.848881 
L 100.566154 231.871264 
L 100.156472 230.840579 
L 99.746789 229.810312 
L 99.337107 228.834403 
L 98.927425 227.964675 
L 98.517742 227.248357 
L 98.10806 226.725783 
L 97.698378 226.428335 
L 97.288695 226.376714 
L 96.879013 226.579581 
L 96.46933 227.032632 
L 96.059648 227.718124 
L 95.649966 228.604898 
L 95.240283 232.402975 
L 94.830601 232.402313 
L 94.420919 232.083103 
L 94.011236 233.012628 
L 93.601554 233.821661 
L 93.191871 234.435224 
L 92.782189 234.77769 
L 92.372507 234.775569 
L 91.962824 234.360436 
L 91.553142 233.471904 
L 91.14346 232.060553 
L 90.733777 230.090727 
L 90.324095 227.543107 
L 89.914413 224.416954 
L 89.50473 220.73193 
L 89.095048 216.529401 
L 88.685365 211.873138 
L 88.275683 206.849323 
L 87.866001 201.5658 
L 87.456318 196.150501 
L 87.046636 190.74901 
L 86.636954 185.521233 
L 86.227271 180.637188 
L 85.817589 176.271909 
L 85.407906 172.59955 
L 84.998224 169.786745 
L 84.588542 167.985372 
L 84.178859 167.324868 
L 83.769177 167.904311 
L 83.359495 169.784535 
L 82.949812 172.980588 
L 82.54013 177.454911 
L 82.130447 183.111681 
L 81.720765 189.792825 
L 81.311083 197.2763 
L 80.9014 205.277301 
L 80.491718 213.453155 
L 80.082036 221.412754 
L 79.672353 228.731464 
L 79.262671 234.972582 
L 78.852988 239.716484 
L 78.443306 242.598767 
L 78.033624 243.358783 
L 77.623941 241.900113 
L 77.214259 238.364651 
L 76.804577 233.222145 
L 76.394894 227.377154 
L 75.985212 222.295582 
L 75.57553 220.153093 
L 75.165847 224.007898 
L 74.756165 238.000605 
z
" clip-path="url(#pf80084ea3c)" style="fill: #ff7f0e; fill-opacity: 0.166667"/>
   </g>
   <g id="PolyCollection_3">
    <path d="M 74.756165 213.433704 
L 74.756165 232.40237 
L 75.300195 232.40237 
L 75.844225 232.40237 
L 76.388256 232.40237 
L 76.932286 232.40237 
L 77.476316 232.40237 
L 78.020347 232.40237 
L 78.564377 232.40237 
L 79.108407 232.40237 
L 79.652437 232.40237 
L 80.196468 232.40237 
L 80.740498 232.40237 
L 81.284528 232.40237 
L 81.828559 232.40237 
L 82.372589 232.40237 
L 82.916619 232.40237 
L 83.460649 232.40237 
L 84.00468 232.40237 
L 84.54871 232.40237 
L 85.09274 232.40237 
L 85.636771 232.40237 
L 86.180801 232.40237 
L 86.724831 232.40237 
L 87.268861 232.40237 
L 87.812892 232.40237 
L 88.356922 232.40237 
L 88.900952 232.40237 
L 89.444983 232.40237 
L 89.989013 232.40237 
L 90.533043 232.40237 
L 91.077073 232.40237 
L 91.621104 232.40237 
L 92.165134 232.40237 
L 92.709164 232.40237 
L 93.253195 232.40237 
L 93.797225 232.40237 
L 94.341255 232.40237 
L 94.885285 232.40237 
L 95.429316 232.40237 
L 95.973346 232.40237 
L 96.517376 232.40237 
L 97.061407 232.40237 
L 97.605437 232.40237 
L 98.149467 232.40237 
L 98.693497 232.40237 
L 99.237528 232.40237 
L 99.781558 232.40237 
L 100.325588 232.40237 
L 100.869619 232.40237 
L 101.413649 232.40237 
L 101.957679 232.40237 
L 102.501709 232.40237 
L 103.04574 232.40237 
L 103.58977 232.40237 
L 104.1338 232.40237 
L 104.677831 232.40237 
L 105.221861 232.40237 
L 105.765891 232.40237 
L 106.309922 232.40237 
L 106.853952 232.40237 
L 107.397982 232.40237 
L 107.942012 232.40237 
L 108.486043 232.40237 
L 109.030073 232.40237 
L 109.574103 232.40237 
L 110.118134 232.40237 
L 110.662164 232.40237 
L 111.206194 232.40237 
L 111.750224 232.40237 
L 112.294255 232.40237 
L 112.838285 232.40237 
L 113.382315 232.40237 
L 113.926346 232.40237 
L 114.470376 232.40237 
L 115.014406 232.40237 
L 115.558436 232.40237 
L 116.102467 232.40237 
L 116.646497 232.40237 
L 117.190527 232.40237 
L 117.734558 232.40237 
L 118.278588 232.40237 
L 118.822618 232.40237 
L 119.366648 232.40237 
L 119.910679 232.40237 
L 120.454709 232.40237 
L 120.998739 232.40237 
L 121.54277 232.40237 
L 122.0868 232.40237 
L 122.63083 232.40237 
L 123.17486 232.40237 
L 123.718891 232.40237 
L 124.262921 232.40237 
L 124.806951 232.40237 
L 125.350982 232.40237 
L 125.895012 232.40237 
L 126.439042 232.40237 
L 126.983072 232.40237 
L 127.527103 232.40237 
L 128.071133 232.40237 
L 128.615163 232.40237 
L 128.615163 241.052043 
L 128.615163 241.052043 
L 128.071133 230.597011 
L 127.527103 226.327243 
L 126.983072 225.897172 
L 126.439042 227.589188 
L 125.895012 230.190235 
L 125.350982 232.886347 
L 124.806951 235.173242 
L 124.262921 236.781204 
L 123.718891 237.612625 
L 123.17486 237.690703 
L 122.63083 237.117932 
L 122.0868 236.04309 
L 121.54277 234.635603 
L 120.998739 233.066203 
L 120.454709 231.492947 
L 119.910679 230.05172 
L 119.366648 228.850452 
L 118.822618 227.966362 
L 118.278588 227.445596 
L 117.734558 227.304733 
L 117.190527 227.533668 
L 116.646497 228.099456 
L 116.102467 228.950774 
L 115.558436 230.022685 
L 115.014406 231.241447 
L 114.470376 232.529173 
L 113.926346 233.808166 
L 113.382315 235.004795 
L 112.838285 236.052834 
L 112.294255 236.896179 
L 111.750224 237.49092 
L 111.206194 237.80676 
L 110.662164 237.827768 
L 110.118134 237.552515 
L 109.574103 236.993626 
L 109.030073 236.176799 
L 108.486043 235.139364 
L 107.942012 233.928448 
L 107.397982 232.598829 
L 106.853952 231.210555 
L 106.309922 229.826425 
L 105.765891 228.509393 
L 105.221861 227.320002 
L 104.677831 226.313905 
L 104.1338 225.539558 
L 103.58977 225.036151 
L 103.04574 224.831829 
L 102.501709 224.942272 
L 101.957679 232.404431 
L 101.413649 232.404614 
L 100.869619 226.309136 
L 100.325588 227.626633 
L 99.781558 229.168471 
L 99.237528 230.863872 
L 98.693497 232.63001 
L 98.149467 234.374376 
L 97.605437 235.997575 
L 97.061407 237.396483 
L 96.517376 238.467711 
L 95.973346 239.111257 
L 95.429316 239.234282 
L 94.885285 238.754898 
L 94.341255 237.605845 
L 93.797225 235.737966 
L 93.253195 233.123349 
L 92.709164 229.758022 
L 92.165134 225.66409 
L 91.621104 220.891199 
L 91.077073 215.517228 
L 90.533043 209.648101 
L 89.989013 203.416665 
L 89.444983 196.980541 
L 88.900952 190.518921 
L 88.356922 184.228279 
L 87.812892 178.31701 
L 87.268861 172.999028 
L 86.724831 168.486395 
L 86.180801 164.981099 
L 85.636771 162.666124 
L 85.09274 161.696036 
L 84.54871 162.187323 
L 84.00468 164.208835 
L 83.460649 167.772672 
L 82.916619 172.826009 
L 82.372589 179.244366 
L 81.828559 186.826937 
L 81.284528 195.294688 
L 80.740498 204.292 
L 80.196468 213.39277 
L 79.652437 222.111957 
L 79.108407 229.923697 
L 78.564377 236.287216 
L 78.020347 240.681923 
L 77.476316 242.653157 
L 76.932286 241.870264 
L 76.388256 238.198776 
L 75.844225 231.788659 
L 75.300195 223.180754 
L 74.756165 213.433704 
z
" clip-path="url(#pf80084ea3c)" style="fill: #2ca02c; fill-opacity: 0.166667"/>
   </g>
   <g id="PolyCollection_4">
    <path d="M 74.756165 239.066018 
L 74.756165 232.40237 
L 75.222171 232.40237 
L 75.688178 232.40237 
L 76.154185 232.40237 
L 76.620191 232.40237 
L 77.086198 232.40237 
L 77.552205 232.40237 
L 78.018211 232.40237 
L 78.484218 232.40237 
L 78.950224 232.40237 
L 79.416231 232.40237 
L 79.882238 232.40237 
L 80.348244 232.40237 
L 80.814251 232.40237 
L 81.280258 232.40237 
L 81.746264 232.40237 
L 82.212271 232.40237 
L 82.678278 232.40237 
L 83.144284 232.40237 
L 83.610291 232.40237 
L 84.076297 232.40237 
L 84.542304 232.40237 
L 85.008311 232.40237 
L 85.474317 232.40237 
L 85.940324 232.40237 
L 86.406331 232.40237 
L 86.872337 232.40237 
L 87.338344 232.40237 
L 87.804351 232.40237 
L 88.270357 232.40237 
L 88.736364 232.40237 
L 89.20237 232.40237 
L 89.668377 232.40237 
L 90.134384 232.40237 
L 90.60039 232.40237 
L 91.066397 232.40237 
L 91.532404 232.40237 
L 91.99841 232.40237 
L 92.464417 232.40237 
L 92.930424 232.40237 
L 93.39643 232.40237 
L 93.862437 232.40237 
L 94.328443 232.40237 
L 94.79445 232.40237 
L 95.260457 232.40237 
L 95.726463 232.40237 
L 96.19247 232.40237 
L 96.658477 232.40237 
L 97.124483 232.40237 
L 97.59049 232.40237 
L 98.056497 232.40237 
L 98.522503 232.40237 
L 98.98851 232.40237 
L 99.454516 232.40237 
L 99.920523 232.40237 
L 100.38653 232.40237 
L 100.852536 232.40237 
L 101.318543 232.40237 
L 101.78455 232.40237 
L 102.250556 232.40237 
L 102.716563 232.40237 
L 103.18257 232.40237 
L 103.648576 232.40237 
L 104.114583 232.40237 
L 104.580589 232.40237 
L 105.046596 232.40237 
L 105.512603 232.40237 
L 105.978609 232.40237 
L 106.444616 232.40237 
L 106.910623 232.40237 
L 107.376629 232.40237 
L 107.842636 232.40237 
L 108.308642 232.40237 
L 108.774649 232.40237 
L 109.240656 232.40237 
L 109.706662 232.40237 
L 110.172669 232.40237 
L 110.638676 232.40237 
L 111.104682 232.40237 
L 111.570689 232.40237 
L 112.036696 232.40237 
L 112.502702 232.40237 
L 112.968709 232.40237 
L 113.434715 232.40237 
L 113.900722 232.40237 
L 114.366729 232.40237 
L 114.832735 232.40237 
L 115.298742 232.40237 
L 115.764749 232.40237 
L 116.230755 232.40237 
L 116.696762 232.40237 
L 117.162769 232.40237 
L 117.628775 232.40237 
L 118.094782 232.40237 
L 118.560788 232.40237 
L 119.026795 232.40237 
L 119.492802 232.40237 
L 119.958808 232.40237 
L 120.424815 232.40237 
L 120.890822 232.40237 
L 120.890822 238.402227 
L 120.890822 238.402227 
L 120.424815 230.461273 
L 119.958808 227.556372 
L 119.492802 227.640848 
L 119.026795 229.254729 
L 118.560788 231.401281 
L 118.094782 233.442791 
L 117.628775 235.013395 
L 117.162769 235.946959 
L 116.696762 236.218147 
L 116.230755 235.894995 
L 115.764749 235.101437 
L 115.298742 233.988384 
L 114.832735 232.71208 
L 114.366729 231.418583 
L 113.900722 230.233345 
L 113.434715 229.254959 
L 112.968709 228.552263 
L 112.502702 228.164073 
L 112.036696 228.100905 
L 111.570689 228.348154 
L 111.104682 228.870237 
L 110.638676 229.615306 
L 110.172669 230.520198 
L 109.706662 231.515345 
L 109.240656 232.529417 
L 108.774649 233.493525 
L 108.308642 234.344876 
L 107.842636 235.02976 
L 107.376629 235.505851 
L 106.910623 235.743771 
L 106.444616 235.727953 
L 105.978609 235.456802 
L 105.512603 234.942227 
L 105.046596 234.208598 
L 104.580589 233.291196 
L 104.114583 232.234264 
L 103.648576 231.088734 
L 103.18257 229.909725 
L 102.716563 228.753927 
L 102.250556 227.676947 
L 101.78455 226.730721 
L 101.318543 225.961082 
L 100.852536 225.405552 
L 100.38653 225.091448 
L 99.920523 225.034349 
L 99.454516 225.236984 
L 98.98851 225.688581 
L 98.522503 226.364703 
L 98.056497 232.402887 
L 97.59049 232.402295 
L 97.124483 229.317169 
L 96.658477 230.202635 
L 96.19247 231.019274 
L 95.726463 231.693081 
L 95.260457 232.148062 
L 94.79445 232.30903 
L 94.328443 232.10458 
L 93.862437 231.470131 
L 93.39643 230.35097 
L 92.930424 228.705186 
L 92.464417 226.506403 
L 91.99841 223.746212 
L 91.532404 220.436194 
L 91.066397 216.609446 
L 90.60039 212.321496 
L 90.134384 207.650546 
L 89.668377 202.696937 
L 89.20237 197.581792 
L 88.736364 192.444774 
L 88.270357 187.440929 
L 87.804351 182.736621 
L 87.338344 178.504551 
L 86.872337 174.917927 
L 86.406331 172.143865 
L 85.940324 170.336128 
L 85.474317 169.627382 
L 85.008311 170.121167 
L 84.542304 171.883849 
L 84.076297 174.936869 
L 83.610291 179.249676 
L 83.144284 184.73378 
L 82.678278 191.238456 
L 82.212271 198.548693 
L 81.746264 206.386073 
L 81.280258 214.413345 
L 80.814251 222.243581 
L 80.348244 229.454867 
L 79.882238 235.611631 
L 79.416231 240.293782 
L 78.950224 243.135012 
L 78.484218 243.871685 
L 78.018211 242.403922 
L 77.552205 238.870603 
L 77.086198 233.740189 
L 76.620191 227.919396 
L 76.154185 222.881952 
L 75.688178 220.819821 
L 75.222171 224.819479 
L 74.756165 239.066018 
z
" clip-path="url(#pf80084ea3c)" style="fill: #d62728; fill-opacity: 0.166667"/>
   </g>
   <g id="PolyCollection_5">
    <path d="M 74.756165 204.039836 
L 74.756165 232.40237 
L 75.639053 232.40237 
L 76.521942 232.40237 
L 77.404831 232.40237 
L 78.287719 232.40237 
L 79.170608 232.40237 
L 80.053496 232.40237 
L 80.936385 232.40237 
L 81.819273 232.40237 
L 82.702162 232.40237 
L 83.585051 232.40237 
L 84.467939 232.40237 
L 85.350828 232.40237 
L 86.233716 232.40237 
L 87.116605 232.40237 
L 87.999494 232.40237 
L 88.882382 232.40237 
L 89.765271 232.40237 
L 90.648159 232.40237 
L 91.531048 232.40237 
L 92.413936 232.40237 
L 93.296825 232.40237 
L 94.179714 232.40237 
L 95.062602 232.40237 
L 95.945491 232.40237 
L 96.828379 232.40237 
L 97.711268 232.40237 
L 98.594157 232.40237 
L 99.477045 232.40237 
L 100.359934 232.40237 
L 101.242822 232.40237 
L 102.125711 232.40237 
L 103.0086 232.40237 
L 103.891488 232.40237 
L 104.774377 232.40237 
L 105.657265 232.40237 
L 106.540154 232.40237 
L 107.423042 232.40237 
L 108.305931 232.40237 
L 109.18882 232.40237 
L 110.071708 232.40237 
L 110.954597 232.40237 
L 111.837485 232.40237 
L 112.720374 232.40237 
L 113.603263 232.40237 
L 114.486151 232.40237 
L 115.36904 232.40237 
L 116.251928 232.40237 
L 117.134817 232.40237 
L 118.017705 232.40237 
L 118.900594 232.40237 
L 119.783483 232.40237 
L 120.666371 232.40237 
L 121.54926 232.40237 
L 122.432148 232.40237 
L 123.315037 232.40237 
L 124.197926 232.40237 
L 125.080814 232.40237 
L 125.963703 232.40237 
L 126.846591 232.40237 
L 127.72948 232.40237 
L 128.612369 232.40237 
L 129.495257 232.40237 
L 130.378146 232.40237 
L 131.261034 232.40237 
L 132.143923 232.40237 
L 133.026811 232.40237 
L 133.9097 232.40237 
L 134.792589 232.40237 
L 135.675477 232.40237 
L 136.558366 232.40237 
L 137.441254 232.40237 
L 138.324143 232.40237 
L 139.207032 232.40237 
L 140.08992 232.40237 
L 140.972809 232.40237 
L 141.855697 232.40237 
L 142.738586 232.40237 
L 143.621474 232.40237 
L 144.504363 232.40237 
L 145.387252 232.40237 
L 146.27014 232.40237 
L 147.153029 232.40237 
L 148.035917 232.40237 
L 148.918806 232.40237 
L 149.801695 232.40237 
L 150.684583 232.40237 
L 151.567472 232.40237 
L 152.45036 232.40237 
L 153.333249 232.40237 
L 154.216138 232.40237 
L 155.099026 232.40237 
L 155.981915 232.40237 
L 156.864803 232.40237 
L 157.747692 232.40237 
L 158.63058 232.40237 
L 159.513469 232.40237 
L 160.396358 232.40237 
L 161.279246 232.40237 
L 162.162135 232.40237 
L 162.162135 237.604677 
L 162.162135 237.604677 
L 161.279246 231.302102 
L 160.396358 228.697301 
L 159.513469 228.406615 
L 158.63058 229.410162 
L 157.747692 230.981999 
L 156.864803 232.630154 
L 155.981915 234.045498 
L 155.099026 235.058555 
L 154.216138 235.603349 
L 153.333249 235.687505 
L 152.45036 235.367858 
L 151.567472 234.730881 
L 150.684583 233.877314 
L 149.801695 232.910409 
L 148.918806 231.927278 
L 148.035917 231.012864 
L 147.153029 230.236108 
L 146.27014 229.647913 
L 145.387252 229.280574 
L 144.504363 229.148357 
L 143.621474 229.24895 
L 142.738586 229.565553 
L 141.855697 230.069392 
L 140.972809 230.722482 
L 140.08992 231.480483 
L 139.207032 232.295518 
L 138.324143 233.118859 
L 137.441254 233.90338 
L 136.558366 234.605727 
L 135.675477 235.188155 
L 134.792589 235.619989 
L 133.9097 235.878711 
L 133.026811 235.95065 
L 132.143923 235.831296 
L 131.261034 235.525244 
L 130.378146 235.045796 
L 129.495257 234.414257 
L 128.612369 233.658955 
L 127.72948 232.814028 
L 126.846591 231.918025 
L 125.963703 231.012372 
L 125.080814 230.139742 
L 124.197926 229.34238 
L 123.315037 228.660444 
L 122.432148 228.13039 
L 121.54926 227.783454 
L 120.666371 227.64428 
L 119.783483 227.729719 
L 118.900594 232.404129 
L 118.017705 232.404373 
L 117.134817 228.76715 
L 116.251928 229.8172 
L 115.36904 231.061815 
L 114.486151 232.454114 
L 113.603263 233.93703 
L 112.720374 235.444612 
L 111.837485 236.903662 
L 110.954597 238.235689 
L 110.071708 239.359126 
L 109.18882 240.191776 
L 108.305931 240.653439 
L 107.423042 240.668645 
L 106.540154 240.169456 
L 105.657265 239.098236 
L 104.774377 237.410339 
L 103.891488 235.076633 
L 103.0086 232.085769 
L 102.125711 228.446131 
L 101.242822 224.187377 
L 100.359934 219.361492 
L 99.477045 214.043288 
L 98.594157 208.33026 
L 97.711268 202.341759 
L 96.828379 196.217398 
L 95.945491 190.114672 
L 95.062602 184.205733 
L 94.179714 178.67331 
L 93.296825 173.705777 
L 92.413936 169.491361 
L 91.531048 166.211553 
L 90.648159 164.033753 
L 89.765271 163.103249 
L 88.882382 163.534643 
L 87.999494 165.402856 
L 87.116605 168.7339 
L 86.233716 173.495635 
L 85.350828 179.588752 
L 84.467939 186.838305 
L 83.585051 194.986112 
L 82.702162 203.68444 
L 81.819273 212.491422 
L 80.936385 220.868708 
L 80.053496 228.181921 
L 79.170608 233.704555 
L 78.287719 236.626012 
L 77.404831 236.064567 
L 76.521942 231.08609 
L 75.639053 220.729484 
L 74.756165 204.039836 
z
" clip-path="url(#pf80084ea3c)" style="fill: #9467bd; fill-opacity: 0.166667"/>
   </g>
   <g id="PolyCollection_6">
    <path d="M 74.756165 165.452499 
L 74.756165 232.40237 
L 78.035504 232.40237 
L 81.314842 232.40237 
L 84.594181 232.40237 
L 87.87352 232.40237 
L 91.152859 232.40237 
L 94.432198 232.40237 
L 97.711537 232.40237 
L 100.990876 232.40237 
L 104.270214 232.40237 
L 107.549553 232.40237 
L 110.828892 232.40237 
L 114.108231 232.40237 
L 117.38757 232.40237 
L 120.666909 232.40237 
L 123.946247 232.40237 
L 127.225586 232.40237 
L 130.504925 232.40237 
L 133.784264 232.40237 
L 137.063603 232.40237 
L 140.342942 232.40237 
L 143.62228 232.40237 
L 146.901619 232.40237 
L 150.180958 232.40237 
L 153.460297 232.40237 
L 156.739636 232.40237 
L 160.018975 232.40237 
L 163.298314 232.40237 
L 166.577652 232.40237 
L 169.856991 232.40237 
L 173.13633 232.40237 
L 176.415669 232.40237 
L 179.695008 232.40237 
L 182.974347 232.40237 
L 186.253685 232.40237 
L 189.533024 232.40237 
L 192.812363 232.40237 
L 196.091702 232.40237 
L 199.371041 232.40237 
L 202.65038 232.40237 
L 205.929718 232.40237 
L 209.209057 232.40237 
L 212.488396 232.40237 
L 215.767735 232.40237 
L 219.047074 232.40237 
L 222.326413 232.40237 
L 225.605752 232.40237 
L 228.88509 232.40237 
L 232.164429 232.40237 
L 235.443768 232.40237 
L 238.723107 232.40237 
L 242.002446 232.40237 
L 245.281785 232.40237 
L 248.561123 232.40237 
L 251.840462 232.40237 
L 255.119801 232.40237 
L 258.39914 232.40237 
L 261.678479 232.40237 
L 264.957818 232.40237 
L 268.237157 232.40237 
L 271.516495 232.40237 
L 274.795834 232.40237 
L 278.075173 232.40237 
L 281.354512 232.40237 
L 284.633851 232.40237 
L 287.91319 232.40237 
L 291.192528 232.40237 
L 294.471867 232.40237 
L 297.751206 232.40237 
L 301.030545 232.40237 
L 304.309884 232.40237 
L 307.589223 232.40237 
L 310.868561 232.40237 
L 314.1479 232.40237 
L 317.427239 232.40237 
L 320.706578 232.40237 
L 323.985917 232.40237 
L 327.265256 232.40237 
L 330.544595 232.40237 
L 333.823933 232.40237 
L 337.103272 232.40237 
L 340.382611 232.40237 
L 343.66195 232.40237 
L 346.941289 232.40237 
L 350.220628 232.40237 
L 353.499966 232.40237 
L 356.779305 232.40237 
L 360.058644 232.40237 
L 363.337983 232.40237 
L 366.617322 232.40237 
L 369.896661 232.40237 
L 373.175999 232.40237 
L 376.455338 232.40237 
L 379.734677 232.40237 
L 383.014016 232.40237 
L 386.293355 232.40237 
L 389.572694 232.40237 
L 392.852033 232.40237 
L 396.131371 232.40237 
L 399.41071 232.40237 
L 399.41071 247.664194 
L 399.41071 247.664194 
L 396.131371 228.958203 
L 392.852033 221.480884 
L 389.572694 220.894126 
L 386.293355 224.049091 
L 383.014016 228.745502 
L 379.734677 233.527218 
L 376.455338 237.510095 
L 373.175999 240.238418 
L 369.896661 241.56651 
L 366.617322 241.562391 
L 363.337983 240.430629 
L 360.058644 238.451762 
L 356.779305 235.935944 
L 353.499966 233.188651 
L 350.220628 230.486516 
L 346.941289 228.061571 
L 343.66195 226.09233 
L 340.382611 224.700352 
L 337.103272 223.951077 
L 333.823933 223.857857 
L 330.544595 224.388296 
L 327.265256 225.472085 
L 323.985917 227.009683 
L 320.706578 228.881284 
L 317.427239 230.955611 
L 314.1479 233.098189 
L 310.868561 235.178804 
L 307.589223 237.07795 
L 304.309884 238.69213 
L 301.030545 239.937928 
L 297.751206 240.754825 
L 294.471867 241.106789 
L 291.192528 240.982671 
L 287.91319 240.395523 
L 284.633851 239.380929 
L 281.354512 237.994498 
L 278.075173 236.308651 
L 274.795834 234.408874 
L 271.516495 232.389597 
L 268.237157 230.349849 
L 264.957818 228.388878 
L 261.678479 226.601852 
L 258.39914 225.075829 
L 255.119801 223.886087 
L 251.840462 223.092966 
L 248.561123 222.739296 
L 245.281785 222.848509 
L 242.002446 223.423487 
L 238.723107 232.405433 
L 235.443768 232.406591 
L 232.164429 224.557503 
L 228.88509 227.402516 
L 225.605752 230.569859 
L 222.326413 233.914827 
L 219.047074 237.279745 
L 215.767735 240.500379 
L 212.488396 243.412882 
L 209.209057 245.861052 
L 205.929718 247.703657 
L 202.65038 248.821573 
L 199.371041 249.124458 
L 196.091702 248.556692 
L 192.812363 247.102303 
L 189.533024 244.788605 
L 186.253685 241.688294 
L 182.974347 237.919774 
L 179.695008 233.645498 
L 176.415669 229.068165 
L 173.13633 224.424665 
L 169.856991 219.977698 
L 166.577652 216.005102 
L 163.298314 212.786977 
L 160.018975 210.590794 
L 156.739636 209.65479 
L 153.460297 210.170062 
L 150.180958 212.261916 
L 146.901619 215.971162 
L 143.62228 221.236215 
L 140.342942 227.877047 
L 137.063603 235.582216 
L 133.784264 243.900416 
L 130.504925 252.238222 
L 127.225586 259.86595 
L 123.946247 265.933799 
L 120.666909 269.500761 
L 117.38757 269.579052 
L 114.108231 265.197155 
L 110.828892 255.484924 
L 107.549553 239.784526 
L 104.270214 217.791431 
L 100.990876 189.730032 
L 97.711537 156.568925 
L 94.432198 120.281342 
L 91.152859 84.156696 
L 87.87352 53.169708 
L 84.594181 34.414125 
L 81.314842 37.608581 
L 78.035504 75.682743 
L 74.756165 165.452499 
z
" clip-path="url(#pf80084ea3c)" style="fill: #8c564b; fill-opacity: 0.166667"/>
   </g>
   <g id="matplotlib.axis_1">
    <g id="xtick_1">
     <g id="line2d_1">
      <defs>
       <path id="m857dc5086e" d="M 0 0 
L 0 3.5 
" style="stroke: #000000; stroke-width: 0.8"/>
      </defs>
      <g>
       <use xlink:href="#m857dc5086e" x="74.756165" y="288.430125" style="stroke: #000000; stroke-width: 0.8"/>
      </g>
     </g>
     <g id="text_1">
      <!-- 0.000 -->
      <g transform="translate(60.442102 303.028562) scale(0.1 -0.1)">
       <defs>
        <path id="DejaVuSans-30" d="M 2034 4250 
Q 1547 4250 1301 3770 
Q 1056 3291 1056 2328 
Q 1056 1369 1301 889 
Q 1547 409 2034 409 
Q 2525 409 2770 889 
Q 3016 1369 3016 2328 
Q 3016 3291 2770 3770 
Q 2525 4250 2034 4250 
z
M 2034 4750 
Q 2819 4750 3233 4129 
Q 3647 3509 3647 2328 
Q 3647 1150 3233 529 
Q 2819 -91 2034 -91 
Q 1250 -91 836 529 
Q 422 1150 422 2328 
Q 422 3509 836 4129 
Q 1250 4750 2034 4750 
z
" transform="scale(0.015625)"/>
        <path id="DejaVuSans-2e" d="M 684 794 
L 1344 794 
L 1344 0 
L 684 0 
L 684 794 
z
" transform="scale(0.015625)"/>
       </defs>
       <use xlink:href="#DejaVuSans-30"/>
       <use xlink:href="#DejaVuSans-2e" x="63.623047"/>
       <use xlink:href="#DejaVuSans-30" x="95.410156"/>
       <use xlink:href="#DejaVuSans-30" x="159.033203"/>
       <use xlink:href="#DejaVuSans-30" x="222.65625"/>
      </g>
     </g>
    </g>
    <g id="xtick_2">
     <g id="line2d_2">
      <g>
       <use xlink:href="#m857dc5086e" x="144.842835" y="288.430125" style="stroke: #000000; stroke-width: 0.8"/>
      </g>
     </g>
     <g id="text_2">
      <!-- 0.005 -->
      <g transform="translate(130.528772 303.028562) scale(0.1 -0.1)">
       <defs>
        <path id="DejaVuSans-35" d="M 691 4666 
L 3169 4666 
L 3169 4134 
L 1269 4134 
L 1269 2991 
Q 1406 3038 1543 3061 
Q 1681 3084 1819 3084 
Q 2600 3084 3056 2656 
Q 3513 2228 3513 1497 
Q 3513 744 3044 326 
Q 2575 -91 1722 -91 
Q 1428 -91 1123 -41 
Q 819 9 494 109 
L 494 744 
Q 775 591 1075 516 
Q 1375 441 1709 441 
Q 2250 441 2565 725 
Q 2881 1009 2881 1497 
Q 2881 1984 2565 2268 
Q 2250 2553 1709 2553 
Q 1456 2553 1204 2497 
Q 953 2441 691 2322 
L 691 4666 
z
" transform="scale(0.015625)"/>
       </defs>
       <use xlink:href="#DejaVuSans-30"/>
       <use xlink:href="#DejaVuSans-2e" x="63.623047"/>
       <use xlink:href="#DejaVuSans-30" x="95.410156"/>
       <use xlink:href="#DejaVuSans-30" x="159.033203"/>
       <use xlink:href="#DejaVuSans-35" x="222.65625"/>
      </g>
     </g>
    </g>
    <g id="xtick_3">
     <g id="line2d_3">
      <g>
       <use xlink:href="#m857dc5086e" x="214.929505" y="288.430125" style="stroke: #000000; stroke-width: 0.8"/>
      </g>
     </g>
     <g id="text_3">
      <!-- 0.010 -->
      <g transform="translate(200.615442 303.028562) scale(0.1 -0.1)">
       <defs>
        <path id="DejaVuSans-31" d="M 794 531 
L 1825 531 
L 1825 4091 
L 703 3866 
L 703 4441 
L 1819 4666 
L 2450 4666 
L 2450 531 
L 3481 531 
L 3481 0 
L 794 0 
L 794 531 
z
" transform="scale(0.015625)"/>
       </defs>
       <use xlink:href="#DejaVuSans-30"/>
       <use xlink:href="#DejaVuSans-2e" x="63.623047"/>
       <use xlink:href="#DejaVuSans-30" x="95.410156"/>
       <use xlink:href="#DejaVuSans-31" x="159.033203"/>
       <use xlink:href="#DejaVuSans-30" x="222.65625"/>
      </g>
     </g>
    </g>
    <g id="xtick_4">
     <g id="line2d_4">
      <g>
       <use xlink:href="#m857dc5086e" x="285.016175" y="288.430125" style="stroke: #000000; stroke-width: 0.8"/>
      </g>
     </g>
     <g id="text_4">
      <!-- 0.015 -->
      <g transform="translate(270.702112 303.028562) scale(0.1 -0.1)">
       <use xlink:href="#DejaVuSans-30"/>
       <use xlink:href="#DejaVuSans-2e" x="63.623047"/>
       <use xlink:href="#DejaVuSans-30" x="95.410156"/>
       <use xlink:href="#DejaVuSans-31" x="159.033203"/>
       <use xlink:href="#DejaVuSans-35" x="222.65625"/>
      </g>
     </g>
    </g>
    <g id="xtick_5">
     <g id="line2d_5">
      <g>
       <use xlink:href="#m857dc5086e" x="355.102845" y="288.430125" style="stroke: #000000; stroke-width: 0.8"/>
      </g>
     </g>
     <g id="text_5">
      <!-- 0.020 -->
      <g transform="translate(340.788782 303.028562) scale(0.1 -0.1)">
       <defs>
        <path id="DejaVuSans-32" d="M 1228 531 
L 3431 531 
L 3431 0 
L 469 0 
L 469 531 
Q 828 903 1448 1529 
Q 2069 2156 2228 2338 
Q 2531 2678 2651 2914 
Q 2772 3150 2772 3378 
Q 2772 3750 2511 3984 
Q 2250 4219 1831 4219 
Q 1534 4219 1204 4116 
Q 875 4013 500 3803 
L 500 4441 
Q 881 4594 1212 4672 
Q 1544 4750 1819 4750 
Q 2544 4750 2975 4387 
Q 3406 4025 3406 3419 
Q 3406 3131 3298 2873 
Q 3191 2616 2906 2266 
Q 2828 2175 2409 1742 
Q 1991 1309 1228 531 
z
" transform="scale(0.015625)"/>
       </defs>
       <use xlink:href="#DejaVuSans-30"/>
       <use xlink:href="#DejaVuSans-2e" x="63.623047"/>
       <use xlink:href="#DejaVuSans-30" x="95.410156"/>
       <use xlink:href="#DejaVuSans-32" x="159.033203"/>
       <use xlink:href="#DejaVuSans-30" x="222.65625"/>
      </g>
     </g>
    </g>
    <g id="text_6">
     <!-- Pixel values -->
     <g transform="translate(207.671719 316.706687) scale(0.1 -0.1)">
      <defs>
       <path id="DejaVuSans-50" d="M 1259 4147 
L 1259 2394 
L 2053 2394 
Q 2494 2394 2734 2622 
Q 2975 2850 2975 3272 
Q 2975 3691 2734 3919 
Q 2494 4147 2053 4147 
L 1259 4147 
z
M 628 4666 
L 2053 4666 
Q 2838 4666 3239 4311 
Q 3641 3956 3641 3272 
Q 3641 2581 3239 2228 
Q 2838 1875 2053 1875 
L 1259 1875 
L 1259 0 
L 628 0 
L 628 4666 
z
" transform="scale(0.015625)"/>
       <path id="DejaVuSans-69" d="M 603 3500 
L 1178 3500 
L 1178 0 
L 603 0 
L 603 3500 
z
M 603 4863 
L 1178 4863 
L 1178 4134 
L 603 4134 
L 603 4863 
z
" transform="scale(0.015625)"/>
       <path id="DejaVuSans-78" d="M 3513 3500 
L 2247 1797 
L 3578 0 
L 2900 0 
L 1881 1375 
L 863 0 
L 184 0 
L 1544 1831 
L 300 3500 
L 978 3500 
L 1906 2253 
L 2834 3500 
L 3513 3500 
z
" transform="scale(0.015625)"/>
       <path id="DejaVuSans-65" d="M 3597 1894 
L 3597 1613 
L 953 1613 
Q 991 1019 1311 708 
Q 1631 397 2203 397 
Q 2534 397 2845 478 
Q 3156 559 3463 722 
L 3463 178 
Q 3153 47 2828 -22 
Q 2503 -91 2169 -91 
Q 1331 -91 842 396 
Q 353 884 353 1716 
Q 353 2575 817 3079 
Q 1281 3584 2069 3584 
Q 2775 3584 3186 3129 
Q 3597 2675 3597 1894 
z
M 3022 2063 
Q 3016 2534 2758 2815 
Q 2500 3097 2075 3097 
Q 1594 3097 1305 2825 
Q 1016 2553 972 2059 
L 3022 2063 
z
" transform="scale(0.015625)"/>
       <path id="DejaVuSans-6c" d="M 603 4863 
L 1178 4863 
L 1178 0 
L 603 0 
L 603 4863 
z
" transform="scale(0.015625)"/>
       <path id="DejaVuSans-20" transform="scale(0.015625)"/>
       <path id="DejaVuSans-76" d="M 191 3500 
L 800 3500 
L 1894 563 
L 2988 3500 
L 3597 3500 
L 2284 0 
L 1503 0 
L 191 3500 
z
" transform="scale(0.015625)"/>
       <path id="DejaVuSans-61" d="M 2194 1759 
Q 1497 1759 1228 1600 
Q 959 1441 959 1056 
Q 959 750 1161 570 
Q 1363 391 1709 391 
Q 2188 391 2477 730 
Q 2766 1069 2766 1631 
L 2766 1759 
L 2194 1759 
z
M 3341 1997 
L 3341 0 
L 2766 0 
L 2766 531 
Q 2569 213 2275 61 
Q 1981 -91 1556 -91 
Q 1019 -91 701 211 
Q 384 513 384 1019 
Q 384 1609 779 1909 
Q 1175 2209 1959 2209 
L 2766 2209 
L 2766 2266 
Q 2766 2663 2505 2880 
Q 2244 3097 1772 3097 
Q 1472 3097 1187 3025 
Q 903 2953 641 2809 
L 641 3341 
Q 956 3463 1253 3523 
Q 1550 3584 1831 3584 
Q 2591 3584 2966 3190 
Q 3341 2797 3341 1997 
z
" transform="scale(0.015625)"/>
       <path id="DejaVuSans-75" d="M 544 1381 
L 544 3500 
L 1119 3500 
L 1119 1403 
Q 1119 906 1312 657 
Q 1506 409 1894 409 
Q 2359 409 2629 706 
Q 2900 1003 2900 1516 
L 2900 3500 
L 3475 3500 
L 3475 0 
L 2900 0 
L 2900 538 
Q 2691 219 2414 64 
Q 2138 -91 1772 -91 
Q 1169 -91 856 284 
Q 544 659 544 1381 
z
M 1991 3584 
L 1991 3584 
z
" transform="scale(0.015625)"/>
       <path id="DejaVuSans-73" d="M 2834 3397 
L 2834 2853 
Q 2591 2978 2328 3040 
Q 2066 3103 1784 3103 
Q 1356 3103 1142 2972 
Q 928 2841 928 2578 
Q 928 2378 1081 2264 
Q 1234 2150 1697 2047 
L 1894 2003 
Q 2506 1872 2764 1633 
Q 3022 1394 3022 966 
Q 3022 478 2636 193 
Q 2250 -91 1575 -91 
Q 1294 -91 989 -36 
Q 684 19 347 128 
L 347 722 
Q 666 556 975 473 
Q 1284 391 1588 391 
Q 1994 391 2212 530 
Q 2431 669 2431 922 
Q 2431 1156 2273 1281 
Q 2116 1406 1581 1522 
L 1381 1569 
Q 847 1681 609 1914 
Q 372 2147 372 2553 
Q 372 3047 722 3315 
Q 1072 3584 1716 3584 
Q 2034 3584 2315 3537 
Q 2597 3491 2834 3397 
z
" transform="scale(0.015625)"/>
      </defs>
      <use xlink:href="#DejaVuSans-50"/>
      <use xlink:href="#DejaVuSans-69" x="58.052734"/>
      <use xlink:href="#DejaVuSans-78" x="85.835938"/>
      <use xlink:href="#DejaVuSans-65" x="141.890625"/>
      <use xlink:href="#DejaVuSans-6c" x="203.414062"/>
      <use xlink:href="#DejaVuSans-20" x="231.197266"/>
      <use xlink:href="#DejaVuSans-76" x="262.984375"/>
      <use xlink:href="#DejaVuSans-61" x="322.164062"/>
      <use xlink:href="#DejaVuSans-6c" x="383.443359"/>
      <use xlink:href="#DejaVuSans-75" x="411.226562"/>
      <use xlink:href="#DejaVuSans-65" x="474.605469"/>
      <use xlink:href="#DejaVuSans-73" x="536.128906"/>
     </g>
    </g>
   </g>
   <g id="matplotlib.axis_2">
    <g id="ytick_1">
     <g id="line2d_6">
      <defs>
       <path id="m4490775902" d="M 0 0 
L -3.5 0 
" style="stroke: #000000; stroke-width: 0.8"/>
      </defs>
      <g>
       <use xlink:href="#m4490775902" x="58.523438" y="285.196059" style="stroke: #000000; stroke-width: 0.8"/>
      </g>
     </g>
     <g id="text_7">
      <!-- −0.05 -->
      <g transform="translate(20.878125 288.995277) scale(0.1 -0.1)">
       <defs>
        <path id="DejaVuSans-2212" d="M 678 2272 
L 4684 2272 
L 4684 1741 
L 678 1741 
L 678 2272 
z
" transform="scale(0.015625)"/>
       </defs>
       <use xlink:href="#DejaVuSans-2212"/>
       <use xlink:href="#DejaVuSans-30" x="83.789062"/>
       <use xlink:href="#DejaVuSans-2e" x="147.412109"/>
       <use xlink:href="#DejaVuSans-30" x="179.199219"/>
       <use xlink:href="#DejaVuSans-35" x="242.822266"/>
      </g>
     </g>
    </g>
    <g id="ytick_2">
     <g id="line2d_7">
      <g>
       <use xlink:href="#m4490775902" x="58.523438" y="232.40237" style="stroke: #000000; stroke-width: 0.8"/>
      </g>
     </g>
     <g id="text_8">
      <!-- 0.00 -->
      <g transform="translate(29.257813 236.201589) scale(0.1 -0.1)">
       <use xlink:href="#DejaVuSans-30"/>
       <use xlink:href="#DejaVuSans-2e" x="63.623047"/>
       <use xlink:href="#DejaVuSans-30" x="95.410156"/>
       <use xlink:href="#DejaVuSans-30" x="159.033203"/>
      </g>
     </g>
    </g>
    <g id="ytick_3">
     <g id="line2d_8">
      <g>
       <use xlink:href="#m4490775902" x="58.523438" y="179.608682" style="stroke: #000000; stroke-width: 0.8"/>
      </g>
     </g>
     <g id="text_9">
      <!-- 0.05 -->
      <g transform="translate(29.257813 183.4079) scale(0.1 -0.1)">
       <use xlink:href="#DejaVuSans-30"/>
       <use xlink:href="#DejaVuSans-2e" x="63.623047"/>
       <use xlink:href="#DejaVuSans-30" x="95.410156"/>
       <use xlink:href="#DejaVuSans-35" x="159.033203"/>
      </g>
     </g>
    </g>
    <g id="ytick_4">
     <g id="line2d_9">
      <g>
       <use xlink:href="#m4490775902" x="58.523438" y="126.814993" style="stroke: #000000; stroke-width: 0.8"/>
      </g>
     </g>
     <g id="text_10">
      <!-- 0.10 -->
      <g transform="translate(29.257813 130.614212) scale(0.1 -0.1)">
       <use xlink:href="#DejaVuSans-30"/>
       <use xlink:href="#DejaVuSans-2e" x="63.623047"/>
       <use xlink:href="#DejaVuSans-31" x="95.410156"/>
       <use xlink:href="#DejaVuSans-30" x="159.033203"/>
      </g>
     </g>
    </g>
    <g id="ytick_5">
     <g id="line2d_10">
      <g>
       <use xlink:href="#m4490775902" x="58.523438" y="74.021305" style="stroke: #000000; stroke-width: 0.8"/>
      </g>
     </g>
     <g id="text_11">
      <!-- 0.15 -->
      <g transform="translate(29.257813 77.820523) scale(0.1 -0.1)">
       <use xlink:href="#DejaVuSans-30"/>
       <use xlink:href="#DejaVuSans-2e" x="63.623047"/>
       <use xlink:href="#DejaVuSans-31" x="95.410156"/>
       <use xlink:href="#DejaVuSans-35" x="159.033203"/>
      </g>
     </g>
    </g>
    <g id="text_12">
     <!-- Frequency -->
     <g transform="translate(14.798438 181.203812) rotate(-90) scale(0.1 -0.1)">
      <defs>
       <path id="DejaVuSans-46" d="M 628 4666 
L 3309 4666 
L 3309 4134 
L 1259 4134 
L 1259 2759 
L 3109 2759 
L 3109 2228 
L 1259 2228 
L 1259 0 
L 628 0 
L 628 4666 
z
" transform="scale(0.015625)"/>
       <path id="DejaVuSans-72" d="M 2631 2963 
Q 2534 3019 2420 3045 
Q 2306 3072 2169 3072 
Q 1681 3072 1420 2755 
Q 1159 2438 1159 1844 
L 1159 0 
L 581 0 
L 581 3500 
L 1159 3500 
L 1159 2956 
Q 1341 3275 1631 3429 
Q 1922 3584 2338 3584 
Q 2397 3584 2469 3576 
Q 2541 3569 2628 3553 
L 2631 2963 
z
" transform="scale(0.015625)"/>
       <path id="DejaVuSans-71" d="M 947 1747 
Q 947 1113 1208 752 
Q 1469 391 1925 391 
Q 2381 391 2643 752 
Q 2906 1113 2906 1747 
Q 2906 2381 2643 2742 
Q 2381 3103 1925 3103 
Q 1469 3103 1208 2742 
Q 947 2381 947 1747 
z
M 2906 525 
Q 2725 213 2448 61 
Q 2172 -91 1784 -91 
Q 1150 -91 751 415 
Q 353 922 353 1747 
Q 353 2572 751 3078 
Q 1150 3584 1784 3584 
Q 2172 3584 2448 3432 
Q 2725 3281 2906 2969 
L 2906 3500 
L 3481 3500 
L 3481 -1331 
L 2906 -1331 
L 2906 525 
z
" transform="scale(0.015625)"/>
       <path id="DejaVuSans-6e" d="M 3513 2113 
L 3513 0 
L 2938 0 
L 2938 2094 
Q 2938 2591 2744 2837 
Q 2550 3084 2163 3084 
Q 1697 3084 1428 2787 
Q 1159 2491 1159 1978 
L 1159 0 
L 581 0 
L 581 3500 
L 1159 3500 
L 1159 2956 
Q 1366 3272 1645 3428 
Q 1925 3584 2291 3584 
Q 2894 3584 3203 3211 
Q 3513 2838 3513 2113 
z
" transform="scale(0.015625)"/>
       <path id="DejaVuSans-63" d="M 3122 3366 
L 3122 2828 
Q 2878 2963 2633 3030 
Q 2388 3097 2138 3097 
Q 1578 3097 1268 2742 
Q 959 2388 959 1747 
Q 959 1106 1268 751 
Q 1578 397 2138 397 
Q 2388 397 2633 464 
Q 2878 531 3122 666 
L 3122 134 
Q 2881 22 2623 -34 
Q 2366 -91 2075 -91 
Q 1284 -91 818 406 
Q 353 903 353 1747 
Q 353 2603 823 3093 
Q 1294 3584 2113 3584 
Q 2378 3584 2631 3529 
Q 2884 3475 3122 3366 
z
" transform="scale(0.015625)"/>
       <path id="DejaVuSans-79" d="M 2059 -325 
Q 1816 -950 1584 -1140 
Q 1353 -1331 966 -1331 
L 506 -1331 
L 506 -850 
L 844 -850 
Q 1081 -850 1212 -737 
Q 1344 -625 1503 -206 
L 1606 56 
L 191 3500 
L 800 3500 
L 1894 763 
L 2988 3500 
L 3597 3500 
L 2059 -325 
z
" transform="scale(0.015625)"/>
      </defs>
      <use xlink:href="#DejaVuSans-46"/>
      <use xlink:href="#DejaVuSans-72" x="50.269531"/>
      <use xlink:href="#DejaVuSans-65" x="89.132812"/>
      <use xlink:href="#DejaVuSans-71" x="150.65625"/>
      <use xlink:href="#DejaVuSans-75" x="214.132812"/>
      <use xlink:href="#DejaVuSans-65" x="277.511719"/>
      <use xlink:href="#DejaVuSans-6e" x="339.035156"/>
      <use xlink:href="#DejaVuSans-63" x="402.414062"/>
      <use xlink:href="#DejaVuSans-79" x="457.394531"/>
     </g>
    </g>
   </g>
   <g id="line2d_11">
    <path d="M 74.756165 276.334125 
L 76.962029 197.726693 
L 79.167892 146.554158 
L 81.373756 116.51212 
L 83.57962 102.382147 
L 85.785484 99.887067 
L 87.991348 105.561146 
L 90.197212 116.633991 
L 92.403076 130.927102 
L 94.608939 146.762028 
L 96.814803 162.879178 
L 99.020667 178.366373 
L 101.226531 192.596276 
L 103.432395 205.171898 
L 105.638259 215.879443 
L 107.844122 224.647761 
L 110.049986 231.513776 
L 112.25585 236.59326 
L 114.461714 240.056397 
L 116.667578 242.107587 
L 118.873442 242.96903 
L 121.079306 242.867602 
L 123.285169 242.02464 
L 125.491033 240.648233 
L 127.696897 238.927665 
L 129.902761 237.02971 
L 132.108625 235.096473 
L 134.314489 233.244509 
L 136.520352 231.565007 
L 138.726216 230.124794 
L 140.93208 228.967996 
L 143.137944 228.118179 
L 145.343808 227.580817 
L 147.549672 227.345965 
L 149.755536 227.391034 
L 151.961399 227.683551 
L 154.167263 228.183855 
L 156.373127 228.847643 
L 158.578991 229.62832 
L 160.784855 230.479118 
L 162.990719 231.354955 
L 165.196582 232.214006 
L 167.402446 233.018986 
L 169.60831 233.73814 
L 171.814174 234.345945 
L 174.020038 234.823526 
L 176.225902 235.158818 
L 178.431766 235.346482 
L 180.637629 235.387605 
L 182.843493 232.401503 
L 185.049357 232.402883 
L 187.255221 231.138232 
L 189.461085 230.450716 
L 191.666949 229.887251 
L 193.872812 229.473068 
L 196.078676 229.225293 
L 198.28454 229.152366 
L 200.490404 229.253841 
L 202.696268 229.520557 
L 204.902132 229.935191 
L 207.107996 230.473144 
L 209.313859 231.103751 
L 211.519723 231.79176 
L 213.725587 232.499022 
L 215.931451 233.186344 
L 218.137315 233.81542 
L 220.343179 234.350775 
L 222.549042 234.761648 
L 224.754906 235.023712 
L 226.96077 235.120571 
L 229.166634 235.044948 
L 231.372498 234.79948 
L 233.578362 234.397072 
L 235.784226 233.860733 
L 237.990089 233.222865 
L 240.195953 232.523977 
L 242.401817 231.810808 
L 244.607681 231.133895 
L 246.813545 230.544615 
L 249.019409 230.091791 
L 251.225272 229.817972 
L 253.431136 229.755552 
L 255.637 229.922912 
L 257.842864 230.320866 
L 260.048728 230.929692 
L 262.254592 231.707144 
L 264.460456 232.587865 
L 266.666319 233.484723 
L 268.872183 234.292657 
L 271.078047 234.895711 
L 273.283911 235.178011 
L 275.489775 235.039575 
L 277.695639 234.417895 
L 279.901502 233.316401 
L 282.107366 231.840989 
L 284.31323 230.245953 
L 286.519094 228.990777 
L 288.724958 228.809396 
L 290.930822 230.793672 
L 293.136685 236.493017 
" clip-path="url(#pf80084ea3c)" style="fill: none; stroke: #1f77b4; stroke-width: 1.5; stroke-linecap: square"/>
   </g>
   <g id="line2d_12">
    <path d="M 74.756165 238.000605 
L 75.165847 224.007898 
L 75.57553 220.153093 
L 75.985212 222.295582 
L 76.394894 227.377154 
L 76.804577 233.222145 
L 77.214259 238.364651 
L 77.623941 241.900113 
L 78.033624 243.358783 
L 78.443306 242.598767 
L 78.852988 239.716484 
L 79.262671 234.972582 
L 79.672353 228.731464 
L 80.082036 221.412754 
L 80.491718 213.453155 
L 80.9014 205.277301 
L 81.311083 197.2763 
L 81.720765 189.792825 
L 82.130447 183.111681 
L 82.54013 177.454911 
L 82.949812 172.980588 
L 83.359495 169.784535 
L 83.769177 167.904311 
L 84.178859 167.324868 
L 84.588542 167.985372 
L 84.998224 169.786745 
L 85.407906 172.59955 
L 85.817589 176.271909 
L 86.227271 180.637188 
L 86.636954 185.521233 
L 87.046636 190.74901 
L 87.456318 196.150501 
L 87.866001 201.5658 
L 88.275683 206.849323 
L 88.685365 211.873138 
L 89.095048 216.529401 
L 89.50473 220.73193 
L 89.914413 224.416954 
L 90.324095 227.543107 
L 90.733777 230.090727 
L 91.14346 232.060553 
L 91.553142 233.471904 
L 91.962824 234.360436 
L 92.372507 234.775569 
L 92.782189 234.77769 
L 93.191871 234.435224 
L 93.601554 233.821661 
L 94.011236 233.012628 
L 94.420919 232.083103 
L 94.830601 232.402313 
L 95.240283 232.402975 
L 95.649966 228.604898 
L 96.059648 227.718124 
L 96.46933 227.032632 
L 96.879013 226.579581 
L 97.288695 226.376714 
L 97.698378 226.428335 
L 98.10806 226.725783 
L 98.517742 227.248357 
L 98.927425 227.964675 
L 99.337107 228.834403 
L 99.746789 229.810312 
L 100.156472 230.840579 
L 100.566154 231.871264 
L 100.975837 232.848881 
L 101.385519 233.72296 
L 101.795201 234.448525 
L 102.204884 234.988379 
L 102.614566 235.315105 
L 103.024248 235.412694 
L 103.433931 235.277714 
L 103.843613 234.919938 
L 104.253296 234.36237 
L 104.662978 233.640619 
L 105.07266 232.801578 
L 105.482343 231.901408 
L 105.892025 231.002839 
L 106.301707 230.171822 
L 106.71139 229.473627 
L 107.121072 228.968479 
L 107.530754 228.706918 
L 107.940437 228.72506 
L 108.350119 229.040046 
L 108.759802 229.645969 
L 109.169484 230.510676 
L 109.579166 231.573883 
L 109.988849 232.747134 
L 110.398531 233.916193 
L 110.808213 234.946575 
L 111.217896 235.692981 
L 111.627578 236.013538 
L 112.037261 235.789808 
L 112.446943 234.953692 
L 112.856625 233.52243 
L 113.266308 231.64306 
L 113.67599 229.647812 
L 114.085672 228.122071 
L 114.495355 227.986681 
L 114.905037 230.59653 
L 115.31472 237.857532 
" clip-path="url(#pf80084ea3c)" style="fill: none; stroke: #ff7f0e; stroke-width: 1.5; stroke-linecap: square"/>
   </g>
   <g id="line2d_13">
    <path d="M 74.756165 213.433704 
L 75.300195 223.180754 
L 75.844225 231.788659 
L 76.388256 238.198776 
L 76.932286 241.870264 
L 77.476316 242.653157 
L 78.020347 240.681923 
L 78.564377 236.287216 
L 79.108407 229.923697 
L 79.652437 222.111957 
L 80.196468 213.39277 
L 80.740498 204.292 
L 81.284528 195.294688 
L 81.828559 186.826937 
L 82.372589 179.244366 
L 82.916619 172.826009 
L 83.460649 167.772672 
L 84.00468 164.208835 
L 84.54871 162.187323 
L 85.09274 161.696036 
L 85.636771 162.666124 
L 86.180801 164.981099 
L 86.724831 168.486395 
L 87.268861 172.999028 
L 87.812892 178.31701 
L 88.356922 184.228279 
L 88.900952 190.518921 
L 89.444983 196.980541 
L 89.989013 203.416665 
L 90.533043 209.648101 
L 91.077073 215.517228 
L 91.621104 220.891199 
L 92.165134 225.66409 
L 92.709164 229.758022 
L 93.253195 233.123349 
L 93.797225 235.737966 
L 94.341255 237.605845 
L 94.885285 238.754898 
L 95.429316 239.234282 
L 95.973346 239.111257 
L 96.517376 238.467711 
L 97.061407 237.396483 
L 97.605437 235.997575 
L 98.149467 234.374376 
L 98.693497 232.63001 
L 99.237528 230.863872 
L 99.781558 229.168471 
L 100.325588 227.626633 
L 100.869619 226.309136 
L 101.413649 232.404614 
L 101.957679 232.404431 
L 102.501709 224.942272 
L 103.04574 224.831829 
L 103.58977 225.036151 
L 104.1338 225.539558 
L 104.677831 226.313905 
L 105.221861 227.320002 
L 105.765891 228.509393 
L 106.309922 229.826425 
L 106.853952 231.210555 
L 107.397982 232.598829 
L 107.942012 233.928448 
L 108.486043 235.139364 
L 109.030073 236.176799 
L 109.574103 236.993626 
L 110.118134 237.552515 
L 110.662164 237.827768 
L 111.206194 237.80676 
L 111.750224 237.49092 
L 112.294255 236.896179 
L 112.838285 236.052834 
L 113.382315 235.004795 
L 113.926346 233.808166 
L 114.470376 232.529173 
L 115.014406 231.241447 
L 115.558436 230.022685 
L 116.102467 228.950774 
L 116.646497 228.099456 
L 117.190527 227.533668 
L 117.734558 227.304733 
L 118.278588 227.445596 
L 118.822618 227.966362 
L 119.366648 228.850452 
L 119.910679 230.05172 
L 120.454709 231.492947 
L 120.998739 233.066203 
L 121.54277 234.635603 
L 122.0868 236.04309 
L 122.63083 237.117932 
L 123.17486 237.690703 
L 123.718891 237.612625 
L 124.262921 236.781204 
L 124.806951 235.173242 
L 125.350982 232.886347 
L 125.895012 230.190235 
L 126.439042 227.589188 
L 126.983072 225.897172 
L 127.527103 226.327243 
L 128.071133 230.597011 
L 128.615163 241.052043 
" clip-path="url(#pf80084ea3c)" style="fill: none; stroke: #2ca02c; stroke-width: 1.5; stroke-linecap: square"/>
   </g>
   <g id="line2d_14">
    <path d="M 74.756165 239.066018 
L 75.222171 224.819479 
L 75.688178 220.819821 
L 76.154185 222.881952 
L 76.620191 227.919396 
L 77.086198 233.740189 
L 77.552205 238.870603 
L 78.018211 242.403922 
L 78.484218 243.871685 
L 78.950224 243.135012 
L 79.416231 240.293782 
L 79.882238 235.611631 
L 80.348244 229.454867 
L 80.814251 222.243581 
L 81.280258 214.413345 
L 81.746264 206.386073 
L 82.212271 198.548693 
L 82.678278 191.238456 
L 83.144284 184.73378 
L 83.610291 179.249676 
L 84.076297 174.936869 
L 84.542304 171.883849 
L 85.008311 170.121167 
L 85.474317 169.627382 
L 85.940324 170.336128 
L 86.406331 172.143865 
L 86.872337 174.917927 
L 87.338344 178.504551 
L 87.804351 182.736621 
L 88.270357 187.440929 
L 88.736364 192.444774 
L 89.20237 197.581792 
L 89.668377 202.696937 
L 90.134384 207.650546 
L 90.60039 212.321496 
L 91.066397 216.609446 
L 91.532404 220.436194 
L 91.99841 223.746212 
L 92.464417 226.506403 
L 92.930424 228.705186 
L 93.39643 230.35097 
L 93.862437 231.470131 
L 94.328443 232.10458 
L 94.79445 232.30903 
L 95.260457 232.148062 
L 95.726463 231.693081 
L 96.19247 231.019274 
L 96.658477 230.202635 
L 97.124483 229.317169 
L 97.59049 232.402295 
L 98.056497 232.402887 
L 98.522503 226.364703 
L 98.98851 225.688581 
L 99.454516 225.236984 
L 99.920523 225.034349 
L 100.38653 225.091448 
L 100.852536 225.405552 
L 101.318543 225.961082 
L 101.78455 226.730721 
L 102.250556 227.676947 
L 102.716563 228.753927 
L 103.18257 229.909725 
L 103.648576 231.088734 
L 104.114583 232.234264 
L 104.580589 233.291196 
L 105.046596 234.208598 
L 105.512603 234.942227 
L 105.978609 235.456802 
L 106.444616 235.727953 
L 106.910623 235.743771 
L 107.376629 235.505851 
L 107.842636 235.02976 
L 108.308642 234.344876 
L 108.774649 233.493525 
L 109.240656 232.529417 
L 109.706662 231.515345 
L 110.172669 230.520198 
L 110.638676 229.615306 
L 111.104682 228.870237 
L 111.570689 228.348154 
L 112.036696 228.100905 
L 112.502702 228.164073 
L 112.968709 228.552263 
L 113.434715 229.254959 
L 113.900722 230.233345 
L 114.366729 231.418583 
L 114.832735 232.71208 
L 115.298742 233.988384 
L 115.764749 235.101437 
L 116.230755 235.894995 
L 116.696762 236.218147 
L 117.162769 235.946959 
L 117.628775 235.013395 
L 118.094782 233.442791 
L 118.560788 231.401281 
L 119.026795 229.254729 
L 119.492802 227.640848 
L 119.958808 227.556372 
L 120.424815 230.461273 
L 120.890822 238.402227 
" clip-path="url(#pf80084ea3c)" style="fill: none; stroke: #d62728; stroke-width: 1.5; stroke-linecap: square"/>
   </g>
   <g id="line2d_15">
    <path d="M 74.756165 204.039836 
L 75.639053 220.729484 
L 76.521942 231.08609 
L 77.404831 236.064567 
L 78.287719 236.626012 
L 79.170608 233.704555 
L 80.053496 228.181921 
L 80.936385 220.868708 
L 81.819273 212.491422 
L 82.702162 203.68444 
L 83.585051 194.986112 
L 84.467939 186.838305 
L 85.350828 179.588752 
L 86.233716 173.495635 
L 87.116605 168.7339 
L 87.999494 165.402856 
L 88.882382 163.534643 
L 89.765271 163.103249 
L 90.648159 164.033753 
L 91.531048 166.211553 
L 92.413936 169.491361 
L 93.296825 173.705777 
L 94.179714 178.67331 
L 95.062602 184.205733 
L 95.945491 190.114672 
L 96.828379 196.217398 
L 97.711268 202.341759 
L 98.594157 208.33026 
L 99.477045 214.043288 
L 100.359934 219.361492 
L 101.242822 224.187377 
L 102.125711 228.446131 
L 103.0086 232.085769 
L 103.891488 235.076633 
L 104.774377 237.410339 
L 105.657265 239.098236 
L 106.540154 240.169456 
L 107.423042 240.668645 
L 108.305931 240.653439 
L 109.18882 240.191776 
L 110.071708 239.359126 
L 110.954597 238.235689 
L 111.837485 236.903662 
L 112.720374 235.444612 
L 113.603263 233.93703 
L 114.486151 232.454114 
L 115.36904 231.061815 
L 116.251928 229.8172 
L 117.134817 228.76715 
L 118.017705 232.404373 
L 118.900594 232.404129 
L 119.783483 227.729719 
L 120.666371 227.64428 
L 121.54926 227.783454 
L 122.432148 228.13039 
L 123.315037 228.660444 
L 124.197926 229.34238 
L 125.080814 230.139742 
L 125.963703 231.012372 
L 126.846591 231.918025 
L 127.72948 232.814028 
L 128.612369 233.658955 
L 129.495257 234.414257 
L 130.378146 235.045796 
L 131.261034 235.525244 
L 132.143923 235.831296 
L 133.026811 235.95065 
L 133.9097 235.878711 
L 134.792589 235.619989 
L 135.675477 235.188155 
L 136.558366 234.605727 
L 137.441254 233.90338 
L 138.324143 233.118859 
L 139.207032 232.295518 
L 140.08992 231.480483 
L 140.972809 230.722482 
L 141.855697 230.069392 
L 142.738586 229.565553 
L 143.621474 229.24895 
L 144.504363 229.148357 
L 145.387252 229.280574 
L 146.27014 229.647913 
L 147.153029 230.236108 
L 148.035917 231.012864 
L 148.918806 231.927278 
L 149.801695 232.910409 
L 150.684583 233.877314 
L 151.567472 234.730881 
L 152.45036 235.367858 
L 153.333249 235.687505 
L 154.216138 235.603349 
L 155.099026 235.058555 
L 155.981915 234.045498 
L 156.864803 232.630154 
L 157.747692 230.981999 
L 158.63058 229.410162 
L 159.513469 228.406615 
L 160.396358 228.697301 
L 161.279246 231.302102 
L 162.162135 237.604677 
" clip-path="url(#pf80084ea3c)" style="fill: none; stroke: #9467bd; stroke-width: 1.5; stroke-linecap: square"/>
   </g>
   <g id="line2d_16">
    <path d="M 74.756165 165.452499 
L 78.035504 75.682743 
L 81.314842 37.608581 
L 84.594181 34.414125 
L 87.87352 53.169708 
L 91.152859 84.156696 
L 94.432198 120.281342 
L 97.711537 156.568925 
L 100.990876 189.730032 
L 104.270214 217.791431 
L 107.549553 239.784526 
L 110.828892 255.484924 
L 114.108231 265.197155 
L 117.38757 269.579052 
L 120.666909 269.500761 
L 123.946247 265.933799 
L 127.225586 259.86595 
L 130.504925 252.238222 
L 133.784264 243.900416 
L 137.063603 235.582216 
L 140.342942 227.877047 
L 143.62228 221.236215 
L 146.901619 215.971162 
L 150.180958 212.261916 
L 153.460297 210.170062 
L 156.739636 209.65479 
L 160.018975 210.590794 
L 163.298314 212.786977 
L 166.577652 216.005102 
L 169.856991 219.977698 
L 173.13633 224.424665 
L 176.415669 229.068165 
L 179.695008 233.645498 
L 182.974347 237.919774 
L 186.253685 241.688294 
L 189.533024 244.788605 
L 192.812363 247.102303 
L 196.091702 248.556692 
L 199.371041 249.124458 
L 202.65038 248.821573 
L 205.929718 247.703657 
L 209.209057 245.861052 
L 212.488396 243.412882 
L 215.767735 240.500379 
L 219.047074 237.279745 
L 222.326413 233.914827 
L 225.605752 230.569859 
L 228.88509 227.402516 
L 232.164429 224.557503 
L 235.443768 232.406591 
L 238.723107 232.405433 
L 242.002446 223.423487 
L 245.281785 222.848509 
L 248.561123 222.739296 
L 251.840462 223.092966 
L 255.119801 223.886087 
L 258.39914 225.075829 
L 261.678479 226.601852 
L 264.957818 228.388878 
L 268.237157 230.349849 
L 271.516495 232.389597 
L 274.795834 234.408874 
L 278.075173 236.308651 
L 281.354512 237.994498 
L 284.633851 239.380929 
L 287.91319 240.395523 
L 291.192528 240.982671 
L 294.471867 241.106789 
L 297.751206 240.754825 
L 301.030545 239.937928 
L 304.309884 238.69213 
L 307.589223 237.07795 
L 310.868561 235.178804 
L 314.1479 233.098189 
L 317.427239 230.955611 
L 320.706578 228.881284 
L 323.985917 227.009683 
L 327.265256 225.472085 
L 330.544595 224.388296 
L 333.823933 223.857857 
L 337.103272 223.951077 
L 340.382611 224.700352 
L 343.66195 226.09233 
L 346.941289 228.061571 
L 350.220628 230.486516 
L 353.499966 233.188651 
L 356.779305 235.935944 
L 360.058644 238.451762 
L 363.337983 240.430629 
L 366.617322 241.562391 
L 369.896661 241.56651 
L 373.175999 240.238418 
L 376.455338 237.510095 
L 379.734677 233.527218 
L 383.014016 228.745502 
L 386.293355 224.049091 
L 389.572694 220.894126 
L 392.852033 221.480884 
L 396.131371 228.958203 
L 399.41071 247.664194 
" clip-path="url(#pf80084ea3c)" style="fill: none; stroke: #8c564b; stroke-width: 1.5; stroke-linecap: square"/>
   </g>
   <g id="patch_3">
    <path d="M 58.523438 288.430125 
L 58.523438 22.318125 
" style="fill: none; stroke: #000000; stroke-width: 0.8; stroke-linejoin: miter; stroke-linecap: square"/>
   </g>
   <g id="patch_4">
    <path d="M 415.643438 288.430125 
L 415.643438 22.318125 
" style="fill: none; stroke: #000000; stroke-width: 0.8; stroke-linejoin: miter; stroke-linecap: square"/>
   </g>
   <g id="patch_5">
    <path d="M 58.523438 288.430125 
L 415.643438 288.430125 
" style="fill: none; stroke: #000000; stroke-width: 0.8; stroke-linejoin: miter; stroke-linecap: square"/>
   </g>
   <g id="patch_6">
    <path d="M 58.523438 22.318125 
L 415.643438 22.318125 
" style="fill: none; stroke: #000000; stroke-width: 0.8; stroke-linejoin: miter; stroke-linecap: square"/>
   </g>
   <g id="text_13">
    <!-- AD - xtract_prob_Superior_Longitudinal_Fasciculus_2_R -->
    <g transform="translate(72.358125 16.318125) scale(0.12 -0.12)">
     <defs>
      <path id="DejaVuSans-41" d="M 2188 4044 
L 1331 1722 
L 3047 1722 
L 2188 4044 
z
M 1831 4666 
L 2547 4666 
L 4325 0 
L 3669 0 
L 3244 1197 
L 1141 1197 
L 716 0 
L 50 0 
L 1831 4666 
z
" transform="scale(0.015625)"/>
      <path id="DejaVuSans-44" d="M 1259 4147 
L 1259 519 
L 2022 519 
Q 2988 519 3436 956 
Q 3884 1394 3884 2338 
Q 3884 3275 3436 3711 
Q 2988 4147 2022 4147 
L 1259 4147 
z
M 628 4666 
L 1925 4666 
Q 3281 4666 3915 4102 
Q 4550 3538 4550 2338 
Q 4550 1131 3912 565 
Q 3275 0 1925 0 
L 628 0 
L 628 4666 
z
" transform="scale(0.015625)"/>
      <path id="DejaVuSans-2d" d="M 313 2009 
L 1997 2009 
L 1997 1497 
L 313 1497 
L 313 2009 
z
" transform="scale(0.015625)"/>
      <path id="DejaVuSans-74" d="M 1172 4494 
L 1172 3500 
L 2356 3500 
L 2356 3053 
L 1172 3053 
L 1172 1153 
Q 1172 725 1289 603 
Q 1406 481 1766 481 
L 2356 481 
L 2356 0 
L 1766 0 
Q 1100 0 847 248 
Q 594 497 594 1153 
L 594 3053 
L 172 3053 
L 172 3500 
L 594 3500 
L 594 4494 
L 1172 4494 
z
" transform="scale(0.015625)"/>
      <path id="DejaVuSans-5f" d="M 3263 -1063 
L 3263 -1509 
L -63 -1509 
L -63 -1063 
L 3263 -1063 
z
" transform="scale(0.015625)"/>
      <path id="DejaVuSans-70" d="M 1159 525 
L 1159 -1331 
L 581 -1331 
L 581 3500 
L 1159 3500 
L 1159 2969 
Q 1341 3281 1617 3432 
Q 1894 3584 2278 3584 
Q 2916 3584 3314 3078 
Q 3713 2572 3713 1747 
Q 3713 922 3314 415 
Q 2916 -91 2278 -91 
Q 1894 -91 1617 61 
Q 1341 213 1159 525 
z
M 3116 1747 
Q 3116 2381 2855 2742 
Q 2594 3103 2138 3103 
Q 1681 3103 1420 2742 
Q 1159 2381 1159 1747 
Q 1159 1113 1420 752 
Q 1681 391 2138 391 
Q 2594 391 2855 752 
Q 3116 1113 3116 1747 
z
" transform="scale(0.015625)"/>
      <path id="DejaVuSans-6f" d="M 1959 3097 
Q 1497 3097 1228 2736 
Q 959 2375 959 1747 
Q 959 1119 1226 758 
Q 1494 397 1959 397 
Q 2419 397 2687 759 
Q 2956 1122 2956 1747 
Q 2956 2369 2687 2733 
Q 2419 3097 1959 3097 
z
M 1959 3584 
Q 2709 3584 3137 3096 
Q 3566 2609 3566 1747 
Q 3566 888 3137 398 
Q 2709 -91 1959 -91 
Q 1206 -91 779 398 
Q 353 888 353 1747 
Q 353 2609 779 3096 
Q 1206 3584 1959 3584 
z
" transform="scale(0.015625)"/>
      <path id="DejaVuSans-62" d="M 3116 1747 
Q 3116 2381 2855 2742 
Q 2594 3103 2138 3103 
Q 1681 3103 1420 2742 
Q 1159 2381 1159 1747 
Q 1159 1113 1420 752 
Q 1681 391 2138 391 
Q 2594 391 2855 752 
Q 3116 1113 3116 1747 
z
M 1159 2969 
Q 1341 3281 1617 3432 
Q 1894 3584 2278 3584 
Q 2916 3584 3314 3078 
Q 3713 2572 3713 1747 
Q 3713 922 3314 415 
Q 2916 -91 2278 -91 
Q 1894 -91 1617 61 
Q 1341 213 1159 525 
L 1159 0 
L 581 0 
L 581 4863 
L 1159 4863 
L 1159 2969 
z
" transform="scale(0.015625)"/>
      <path id="DejaVuSans-53" d="M 3425 4513 
L 3425 3897 
Q 3066 4069 2747 4153 
Q 2428 4238 2131 4238 
Q 1616 4238 1336 4038 
Q 1056 3838 1056 3469 
Q 1056 3159 1242 3001 
Q 1428 2844 1947 2747 
L 2328 2669 
Q 3034 2534 3370 2195 
Q 3706 1856 3706 1288 
Q 3706 609 3251 259 
Q 2797 -91 1919 -91 
Q 1588 -91 1214 -16 
Q 841 59 441 206 
L 441 856 
Q 825 641 1194 531 
Q 1563 422 1919 422 
Q 2459 422 2753 634 
Q 3047 847 3047 1241 
Q 3047 1584 2836 1778 
Q 2625 1972 2144 2069 
L 1759 2144 
Q 1053 2284 737 2584 
Q 422 2884 422 3419 
Q 422 4038 858 4394 
Q 1294 4750 2059 4750 
Q 2388 4750 2728 4690 
Q 3069 4631 3425 4513 
z
" transform="scale(0.015625)"/>
      <path id="DejaVuSans-4c" d="M 628 4666 
L 1259 4666 
L 1259 531 
L 3531 531 
L 3531 0 
L 628 0 
L 628 4666 
z
" transform="scale(0.015625)"/>
      <path id="DejaVuSans-67" d="M 2906 1791 
Q 2906 2416 2648 2759 
Q 2391 3103 1925 3103 
Q 1463 3103 1205 2759 
Q 947 2416 947 1791 
Q 947 1169 1205 825 
Q 1463 481 1925 481 
Q 2391 481 2648 825 
Q 2906 1169 2906 1791 
z
M 3481 434 
Q 3481 -459 3084 -895 
Q 2688 -1331 1869 -1331 
Q 1566 -1331 1297 -1286 
Q 1028 -1241 775 -1147 
L 775 -588 
Q 1028 -725 1275 -790 
Q 1522 -856 1778 -856 
Q 2344 -856 2625 -561 
Q 2906 -266 2906 331 
L 2906 616 
Q 2728 306 2450 153 
Q 2172 0 1784 0 
Q 1141 0 747 490 
Q 353 981 353 1791 
Q 353 2603 747 3093 
Q 1141 3584 1784 3584 
Q 2172 3584 2450 3431 
Q 2728 3278 2906 2969 
L 2906 3500 
L 3481 3500 
L 3481 434 
z
" transform="scale(0.015625)"/>
      <path id="DejaVuSans-64" d="M 2906 2969 
L 2906 4863 
L 3481 4863 
L 3481 0 
L 2906 0 
L 2906 525 
Q 2725 213 2448 61 
Q 2172 -91 1784 -91 
Q 1150 -91 751 415 
Q 353 922 353 1747 
Q 353 2572 751 3078 
Q 1150 3584 1784 3584 
Q 2172 3584 2448 3432 
Q 2725 3281 2906 2969 
z
M 947 1747 
Q 947 1113 1208 752 
Q 1469 391 1925 391 
Q 2381 391 2643 752 
Q 2906 1113 2906 1747 
Q 2906 2381 2643 2742 
Q 2381 3103 1925 3103 
Q 1469 3103 1208 2742 
Q 947 2381 947 1747 
z
" transform="scale(0.015625)"/>
      <path id="DejaVuSans-52" d="M 2841 2188 
Q 3044 2119 3236 1894 
Q 3428 1669 3622 1275 
L 4263 0 
L 3584 0 
L 2988 1197 
Q 2756 1666 2539 1819 
Q 2322 1972 1947 1972 
L 1259 1972 
L 1259 0 
L 628 0 
L 628 4666 
L 2053 4666 
Q 2853 4666 3247 4331 
Q 3641 3997 3641 3322 
Q 3641 2881 3436 2590 
Q 3231 2300 2841 2188 
z
M 1259 4147 
L 1259 2491 
L 2053 2491 
Q 2509 2491 2742 2702 
Q 2975 2913 2975 3322 
Q 2975 3731 2742 3939 
Q 2509 4147 2053 4147 
L 1259 4147 
z
" transform="scale(0.015625)"/>
     </defs>
     <use xlink:href="#DejaVuSans-41"/>
     <use xlink:href="#DejaVuSans-44" x="68.408203"/>
     <use xlink:href="#DejaVuSans-20" x="145.410156"/>
     <use xlink:href="#DejaVuSans-2d" x="177.197266"/>
     <use xlink:href="#DejaVuSans-20" x="213.28125"/>
     <use xlink:href="#DejaVuSans-78" x="245.068359"/>
     <use xlink:href="#DejaVuSans-74" x="304.248047"/>
     <use xlink:href="#DejaVuSans-72" x="343.457031"/>
     <use xlink:href="#DejaVuSans-61" x="384.570312"/>
     <use xlink:href="#DejaVuSans-63" x="445.849609"/>
     <use xlink:href="#DejaVuSans-74" x="500.830078"/>
     <use xlink:href="#DejaVuSans-5f" x="540.039062"/>
     <use xlink:href="#DejaVuSans-70" x="590.039062"/>
     <use xlink:href="#DejaVuSans-72" x="653.515625"/>
     <use xlink:href="#DejaVuSans-6f" x="692.378906"/>
     <use xlink:href="#DejaVuSans-62" x="753.560547"/>
     <use xlink:href="#DejaVuSans-5f" x="817.037109"/>
     <use xlink:href="#DejaVuSans-53" x="867.037109"/>
     <use xlink:href="#DejaVuSans-75" x="930.513672"/>
     <use xlink:href="#DejaVuSans-70" x="993.892578"/>
     <use xlink:href="#DejaVuSans-65" x="1057.369141"/>
     <use xlink:href="#DejaVuSans-72" x="1118.892578"/>
     <use xlink:href="#DejaVuSans-69" x="1160.005859"/>
     <use xlink:href="#DejaVuSans-6f" x="1187.789062"/>
     <use xlink:href="#DejaVuSans-72" x="1248.970703"/>
     <use xlink:href="#DejaVuSans-5f" x="1290.083984"/>
     <use xlink:href="#DejaVuSans-4c" x="1340.083984"/>
     <use xlink:href="#DejaVuSans-6f" x="1394.046875"/>
     <use xlink:href="#DejaVuSans-6e" x="1455.228516"/>
     <use xlink:href="#DejaVuSans-67" x="1518.607422"/>
     <use xlink:href="#DejaVuSans-69" x="1582.083984"/>
     <use xlink:href="#DejaVuSans-74" x="1609.867188"/>
     <use xlink:href="#DejaVuSans-75" x="1649.076172"/>
     <use xlink:href="#DejaVuSans-64" x="1712.455078"/>
     <use xlink:href="#DejaVuSans-69" x="1775.931641"/>
     <use xlink:href="#DejaVuSans-6e" x="1803.714844"/>
     <use xlink:href="#DejaVuSans-61" x="1867.09375"/>
     <use xlink:href="#DejaVuSans-6c" x="1928.373047"/>
     <use xlink:href="#DejaVuSans-5f" x="1956.15625"/>
     <use xlink:href="#DejaVuSans-46" x="2006.15625"/>
     <use xlink:href="#DejaVuSans-61" x="2054.550781"/>
     <use xlink:href="#DejaVuSans-73" x="2115.830078"/>
     <use xlink:href="#DejaVuSans-63" x="2167.929688"/>
     <use xlink:href="#DejaVuSans-69" x="2222.910156"/>
     <use xlink:href="#DejaVuSans-63" x="2250.693359"/>
     <use xlink:href="#DejaVuSans-75" x="2305.673828"/>
     <use xlink:href="#DejaVuSans-6c" x="2369.052734"/>
     <use xlink:href="#DejaVuSans-75" x="2396.835938"/>
     <use xlink:href="#DejaVuSans-73" x="2460.214844"/>
     <use xlink:href="#DejaVuSans-5f" x="2512.314453"/>
     <use xlink:href="#DejaVuSans-32" x="2562.314453"/>
     <use xlink:href="#DejaVuSans-5f" x="2625.9375"/>
     <use xlink:href="#DejaVuSans-52" x="2675.9375"/>
    </g>
   </g>
   <g id="legend_1">
    <g id="patch_7">
     <path d="M 458.355438 146.666825 
L 556.211688 146.666825 
Q 558.211688 146.666825 558.211688 144.666825 
L 558.211688 55.929325 
Q 558.211688 53.929325 556.211688 53.929325 
L 458.355438 53.929325 
Q 456.355438 53.929325 456.355438 55.929325 
L 456.355438 144.666825 
Q 456.355438 146.666825 458.355438 146.666825 
z
" style="fill: #ffffff; opacity: 0.8; stroke: #cccccc; stroke-linejoin: miter"/>
    </g>
    <g id="line2d_17">
     <path d="M 460.355438 62.027762 
L 470.355438 62.027762 
L 480.355438 62.027762 
" style="fill: none; stroke: #1f77b4; stroke-width: 1.5; stroke-linecap: square"/>
    </g>
    <g id="text_14">
     <!-- 20_06_02_E3 -->
     <g transform="translate(488.355438 65.527762) scale(0.1 -0.1)">
      <defs>
       <path id="DejaVuSans-36" d="M 2113 2584 
Q 1688 2584 1439 2293 
Q 1191 2003 1191 1497 
Q 1191 994 1439 701 
Q 1688 409 2113 409 
Q 2538 409 2786 701 
Q 3034 994 3034 1497 
Q 3034 2003 2786 2293 
Q 2538 2584 2113 2584 
z
M 3366 4563 
L 3366 3988 
Q 3128 4100 2886 4159 
Q 2644 4219 2406 4219 
Q 1781 4219 1451 3797 
Q 1122 3375 1075 2522 
Q 1259 2794 1537 2939 
Q 1816 3084 2150 3084 
Q 2853 3084 3261 2657 
Q 3669 2231 3669 1497 
Q 3669 778 3244 343 
Q 2819 -91 2113 -91 
Q 1303 -91 875 529 
Q 447 1150 447 2328 
Q 447 3434 972 4092 
Q 1497 4750 2381 4750 
Q 2619 4750 2861 4703 
Q 3103 4656 3366 4563 
z
" transform="scale(0.015625)"/>
       <path id="DejaVuSans-45" d="M 628 4666 
L 3578 4666 
L 3578 4134 
L 1259 4134 
L 1259 2753 
L 3481 2753 
L 3481 2222 
L 1259 2222 
L 1259 531 
L 3634 531 
L 3634 0 
L 628 0 
L 628 4666 
z
" transform="scale(0.015625)"/>
       <path id="DejaVuSans-33" d="M 2597 2516 
Q 3050 2419 3304 2112 
Q 3559 1806 3559 1356 
Q 3559 666 3084 287 
Q 2609 -91 1734 -91 
Q 1441 -91 1130 -33 
Q 819 25 488 141 
L 488 750 
Q 750 597 1062 519 
Q 1375 441 1716 441 
Q 2309 441 2620 675 
Q 2931 909 2931 1356 
Q 2931 1769 2642 2001 
Q 2353 2234 1838 2234 
L 1294 2234 
L 1294 2753 
L 1863 2753 
Q 2328 2753 2575 2939 
Q 2822 3125 2822 3475 
Q 2822 3834 2567 4026 
Q 2313 4219 1838 4219 
Q 1578 4219 1281 4162 
Q 984 4106 628 3988 
L 628 4550 
Q 988 4650 1302 4700 
Q 1616 4750 1894 4750 
Q 2613 4750 3031 4423 
Q 3450 4097 3450 3541 
Q 3450 3153 3228 2886 
Q 3006 2619 2597 2516 
z
" transform="scale(0.015625)"/>
      </defs>
      <use xlink:href="#DejaVuSans-32"/>
      <use xlink:href="#DejaVuSans-30" x="63.623047"/>
      <use xlink:href="#DejaVuSans-5f" x="127.246094"/>
      <use xlink:href="#DejaVuSans-30" x="177.246094"/>
      <use xlink:href="#DejaVuSans-36" x="240.869141"/>
      <use xlink:href="#DejaVuSans-5f" x="304.492188"/>
      <use xlink:href="#DejaVuSans-30" x="354.492188"/>
      <use xlink:href="#DejaVuSans-32" x="418.115234"/>
      <use xlink:href="#DejaVuSans-5f" x="481.738281"/>
      <use xlink:href="#DejaVuSans-45" x="531.738281"/>
      <use xlink:href="#DejaVuSans-33" x="594.921875"/>
     </g>
    </g>
    <g id="line2d_18">
     <path d="M 460.355438 76.984013 
L 470.355438 76.984013 
L 480.355438 76.984013 
" style="fill: none; stroke: #ff7f0e; stroke-width: 1.5; stroke-linecap: square"/>
    </g>
    <g id="text_15">
     <!-- 20_05_01_E3 -->
     <g transform="translate(488.355438 80.484013) scale(0.1 -0.1)">
      <use xlink:href="#DejaVuSans-32"/>
      <use xlink:href="#DejaVuSans-30" x="63.623047"/>
      <use xlink:href="#DejaVuSans-5f" x="127.246094"/>
      <use xlink:href="#DejaVuSans-30" x="177.246094"/>
      <use xlink:href="#DejaVuSans-35" x="240.869141"/>
      <use xlink:href="#DejaVuSans-5f" x="304.492188"/>
      <use xlink:href="#DejaVuSans-30" x="354.492188"/>
      <use xlink:href="#DejaVuSans-31" x="418.115234"/>
      <use xlink:href="#DejaVuSans-5f" x="481.738281"/>
      <use xlink:href="#DejaVuSans-45" x="531.738281"/>
      <use xlink:href="#DejaVuSans-33" x="594.921875"/>
     </g>
    </g>
    <g id="line2d_19">
     <path d="M 460.355438 91.940262 
L 470.355438 91.940262 
L 480.355438 91.940262 
" style="fill: none; stroke: #2ca02c; stroke-width: 1.5; stroke-linecap: square"/>
    </g>
    <g id="text_16">
     <!-- 20_02_02_E3 -->
     <g transform="translate(488.355438 95.440262) scale(0.1 -0.1)">
      <use xlink:href="#DejaVuSans-32"/>
      <use xlink:href="#DejaVuSans-30" x="63.623047"/>
      <use xlink:href="#DejaVuSans-5f" x="127.246094"/>
      <use xlink:href="#DejaVuSans-30" x="177.246094"/>
      <use xlink:href="#DejaVuSans-32" x="240.869141"/>
      <use xlink:href="#DejaVuSans-5f" x="304.492188"/>
      <use xlink:href="#DejaVuSans-30" x="354.492188"/>
      <use xlink:href="#DejaVuSans-32" x="418.115234"/>
      <use xlink:href="#DejaVuSans-5f" x="481.738281"/>
      <use xlink:href="#DejaVuSans-45" x="531.738281"/>
      <use xlink:href="#DejaVuSans-33" x="594.921875"/>
     </g>
    </g>
    <g id="line2d_20">
     <path d="M 460.355438 106.896513 
L 470.355438 106.896513 
L 480.355438 106.896513 
" style="fill: none; stroke: #d62728; stroke-width: 1.5; stroke-linecap: square"/>
    </g>
    <g id="text_17">
     <!-- 20_10_02_E3 -->
     <g transform="translate(488.355438 110.396513) scale(0.1 -0.1)">
      <use xlink:href="#DejaVuSans-32"/>
      <use xlink:href="#DejaVuSans-30" x="63.623047"/>
      <use xlink:href="#DejaVuSans-5f" x="127.246094"/>
      <use xlink:href="#DejaVuSans-31" x="177.246094"/>
      <use xlink:href="#DejaVuSans-30" x="240.869141"/>
      <use xlink:href="#DejaVuSans-5f" x="304.492188"/>
      <use xlink:href="#DejaVuSans-30" x="354.492188"/>
      <use xlink:href="#DejaVuSans-32" x="418.115234"/>
      <use xlink:href="#DejaVuSans-5f" x="481.738281"/>
      <use xlink:href="#DejaVuSans-45" x="531.738281"/>
      <use xlink:href="#DejaVuSans-33" x="594.921875"/>
     </g>
    </g>
    <g id="line2d_21">
     <path d="M 460.355438 121.852762 
L 470.355438 121.852762 
L 480.355438 121.852762 
" style="fill: none; stroke: #9467bd; stroke-width: 1.5; stroke-linecap: square"/>
    </g>
    <g id="text_18">
     <!-- 20_08_02_E3 -->
     <g transform="translate(488.355438 125.352762) scale(0.1 -0.1)">
      <defs>
       <path id="DejaVuSans-38" d="M 2034 2216 
Q 1584 2216 1326 1975 
Q 1069 1734 1069 1313 
Q 1069 891 1326 650 
Q 1584 409 2034 409 
Q 2484 409 2743 651 
Q 3003 894 3003 1313 
Q 3003 1734 2745 1975 
Q 2488 2216 2034 2216 
z
M 1403 2484 
Q 997 2584 770 2862 
Q 544 3141 544 3541 
Q 544 4100 942 4425 
Q 1341 4750 2034 4750 
Q 2731 4750 3128 4425 
Q 3525 4100 3525 3541 
Q 3525 3141 3298 2862 
Q 3072 2584 2669 2484 
Q 3125 2378 3379 2068 
Q 3634 1759 3634 1313 
Q 3634 634 3220 271 
Q 2806 -91 2034 -91 
Q 1263 -91 848 271 
Q 434 634 434 1313 
Q 434 1759 690 2068 
Q 947 2378 1403 2484 
z
M 1172 3481 
Q 1172 3119 1398 2916 
Q 1625 2713 2034 2713 
Q 2441 2713 2670 2916 
Q 2900 3119 2900 3481 
Q 2900 3844 2670 4047 
Q 2441 4250 2034 4250 
Q 1625 4250 1398 4047 
Q 1172 3844 1172 3481 
z
" transform="scale(0.015625)"/>
      </defs>
      <use xlink:href="#DejaVuSans-32"/>
      <use xlink:href="#DejaVuSans-30" x="63.623047"/>
      <use xlink:href="#DejaVuSans-5f" x="127.246094"/>
      <use xlink:href="#DejaVuSans-30" x="177.246094"/>
      <use xlink:href="#DejaVuSans-38" x="240.869141"/>
      <use xlink:href="#DejaVuSans-5f" x="304.492188"/>
      <use xlink:href="#DejaVuSans-30" x="354.492188"/>
      <use xlink:href="#DejaVuSans-32" x="418.115234"/>
      <use xlink:href="#DejaVuSans-5f" x="481.738281"/>
      <use xlink:href="#DejaVuSans-45" x="531.738281"/>
      <use xlink:href="#DejaVuSans-33" x="594.921875"/>
     </g>
    </g>
    <g id="line2d_22">
     <path d="M 460.355438 136.809012 
L 470.355438 136.809012 
L 480.355438 136.809012 
" style="fill: none; stroke: #8c564b; stroke-width: 1.5; stroke-linecap: square"/>
    </g>
    <g id="text_19">
     <!-- 20_11_02_E3 -->
     <g transform="translate(488.355438 140.309012) scale(0.1 -0.1)">
      <use xlink:href="#DejaVuSans-32"/>
      <use xlink:href="#DejaVuSans-30" x="63.623047"/>
      <use xlink:href="#DejaVuSans-5f" x="127.246094"/>
      <use xlink:href="#DejaVuSans-31" x="177.246094"/>
      <use xlink:href="#DejaVuSans-31" x="240.869141"/>
      <use xlink:href="#DejaVuSans-5f" x="304.492188"/>
      <use xlink:href="#DejaVuSans-30" x="354.492188"/>
      <use xlink:href="#DejaVuSans-32" x="418.115234"/>
      <use xlink:href="#DejaVuSans-5f" x="481.738281"/>
      <use xlink:href="#DejaVuSans-45" x="531.738281"/>
      <use xlink:href="#DejaVuSans-33" x="594.921875"/>
     </g>
    </g>
   </g>
  </g>
 </g>
 <defs>
  <clipPath id="pf80084ea3c">
   <rect x="58.523438" y="22.318125" width="357.12" height="266.112"/>
  </clipPath>
 </defs>
</svg>
