<?xml version="1.0" encoding="utf-8" standalone="no"?>
<!DOCTYPE svg PUBLIC "-//W3C//DTD SVG 1.1//EN"
  "http://www.w3.org/Graphics/SVG/1.1/DTD/svg11.dtd">
<svg xmlns:xlink="http://www.w3.org/1999/xlink" width="557.032pt" height="325.986375pt" viewBox="0 0 557.032 325.986375" xmlns="http://www.w3.org/2000/svg" version="1.1">
 <metadata>
  <rdf:RDF xmlns:dc="http://purl.org/dc/elements/1.1/" xmlns:cc="http://creativecommons.org/ns#" xmlns:rdf="http://www.w3.org/1999/02/22-rdf-syntax-ns#">
   <cc:Work>
    <dc:type rdf:resource="http://purl.org/dc/dcmitype/StillImage"/>
    <dc:date>2023-02-07T22:59:57.199106</dc:date>
    <dc:format>image/svg+xml</dc:format>
    <dc:creator>
     <cc:Agent>
      <dc:title>Matplotlib v3.6.2, https://matplotlib.org/</dc:title>
     </cc:Agent>
    </dc:creator>
   </cc:Work>
  </rdf:RDF>
 </metadata>
 <defs>
  <style type="text/css">*{stroke-linejoin: round; stroke-linecap: butt}</style>
 </defs>
 <g id="figure_1">
  <g id="patch_1">
   <path d="M 0 325.986375 
L 557.032 325.986375 
L 557.032 0 
L 0 0 
z
" style="fill: #ffffff"/>
  </g>
  <g id="axes_1">
   <g id="patch_2">
    <path d="M 50.14375 288.430125 
L 407.26375 288.430125 
L 407.26375 22.318125 
L 50.14375 22.318125 
z
" style="fill: #ffffff"/>
   </g>
   <g id="PolyCollection_1">
    <path d="M 66.376477 268.733108 
L 66.376477 260.943072 
L 69.655816 260.943072 
L 72.935155 260.943072 
L 76.214494 260.943072 
L 79.493833 260.943072 
L 82.773171 260.943072 
L 86.05251 260.943072 
L 89.331849 260.943072 
L 92.611188 260.943072 
L 95.890527 260.943072 
L 99.169866 260.943072 
L 102.449205 260.943072 
L 105.728543 260.943072 
L 109.007882 260.943072 
L 112.287221 260.943072 
L 115.56656 260.943072 
L 118.845899 260.943072 
L 122.125238 260.943072 
L 125.404576 260.943072 
L 128.683915 260.943072 
L 131.963254 260.943072 
L 135.242593 260.943072 
L 138.521932 260.943072 
L 141.801271 260.943072 
L 145.08061 260.943072 
L 148.359948 260.943072 
L 151.639287 260.943072 
L 154.918626 260.943072 
L 158.197965 260.943072 
L 161.477304 260.943072 
L 164.756643 260.943072 
L 168.035981 260.943072 
L 171.31532 260.943072 
L 174.594659 260.943072 
L 177.873998 260.943072 
L 181.153337 260.943072 
L 184.432676 260.943072 
L 187.712014 260.943072 
L 190.991353 260.943072 
L 194.270692 260.943072 
L 197.550031 260.943072 
L 200.82937 260.943072 
L 204.108709 260.943072 
L 207.388048 260.943072 
L 210.667386 260.943072 
L 213.946725 260.943072 
L 217.226064 260.943072 
L 220.505403 260.943072 
L 223.784742 260.943072 
L 227.064081 260.943072 
L 230.343419 260.943072 
L 233.622758 260.943072 
L 236.902097 260.943072 
L 240.181436 260.943072 
L 243.460775 260.943072 
L 246.740114 260.943072 
L 250.019452 260.943072 
L 253.298791 260.943072 
L 256.57813 260.943072 
L 259.857469 260.943072 
L 263.136808 260.943072 
L 266.416147 260.943072 
L 269.695486 260.943072 
L 272.974824 260.943072 
L 276.254163 260.943072 
L 279.533502 260.943072 
L 282.812841 260.943072 
L 286.09218 260.943072 
L 289.371519 260.943072 
L 292.650857 260.943072 
L 295.930196 260.943072 
L 299.209535 260.943072 
L 302.488874 260.943072 
L 305.768213 260.943072 
L 309.047552 260.943072 
L 312.32689 260.943072 
L 315.606229 260.943072 
L 318.885568 260.943072 
L 322.164907 260.943072 
L 325.444246 260.943072 
L 328.723585 260.943072 
L 332.002924 260.943072 
L 335.282262 260.943072 
L 338.561601 260.943072 
L 341.84094 260.943072 
L 345.120279 260.943072 
L 348.399618 260.943072 
L 351.678957 260.943072 
L 354.958295 260.943072 
L 358.237634 260.943072 
L 361.516973 260.943072 
L 364.796312 260.943072 
L 368.075651 260.943072 
L 371.35499 260.943072 
L 374.634329 260.943072 
L 377.913667 260.943072 
L 381.193006 260.943072 
L 384.472345 260.943072 
L 387.751684 260.943072 
L 391.031023 260.943072 
L 391.031023 220.034894 
L 391.031023 220.034894 
L 387.751684 243.123967 
L 384.472345 256.40748 
L 381.193006 263.004162 
L 377.913667 265.274441 
L 374.634329 264.962294 
L 371.35499 263.316835 
L 368.075651 261.195792 
L 364.796312 259.152872 
L 361.516973 257.510848 
L 358.237634 256.422068 
L 354.958295 255.91793 
L 351.678957 255.948748 
L 348.399618 256.415311 
L 345.120279 257.193298 
L 341.84094 258.151627 
L 338.561601 259.165689 
L 335.282262 260.126339 
L 332.002924 260.9454 
L 328.723585 261.558374 
L 325.444246 261.924947 
L 322.164907 262.027831 
L 318.885568 261.870383 
L 315.606229 261.4734 
L 312.32689 260.87142 
L 309.047552 260.108802 
L 305.768213 259.235823 
L 302.488874 258.304957 
L 299.209535 257.367492 
L 295.930196 256.470571 
L 292.650857 255.654756 
L 289.371519 254.95212 
L 286.09218 254.384918 
L 282.812841 253.964804 
L 279.533502 253.692596 
L 276.254163 253.558525 
L 272.974824 253.542937 
L 269.695486 253.617372 
L 266.416147 253.74596 
L 263.136808 253.887061 
L 259.857469 253.995074 
L 256.57813 254.02233 
L 253.298791 253.921011 
L 250.019452 253.645011 
L 246.740114 253.151688 
L 243.460775 252.403424 
L 240.181436 251.368972 
L 236.902097 250.024516 
L 233.622758 248.354436 
L 230.343419 260.936355 
L 227.064081 260.936021 
L 223.784742 241.140521 
L 220.505403 238.045343 
L 217.226064 234.687636 
L 213.946725 231.103282 
L 210.667386 227.331562 
L 207.388048 223.413283 
L 204.108709 219.388776 
L 200.82937 215.29584 
L 197.550031 211.167711 
L 194.270692 207.03113 
L 190.991353 202.904602 
L 187.712014 198.796924 
L 184.432676 194.706065 
L 181.153337 190.618488 
L 177.873998 186.508986 
L 174.594659 182.341099 
L 171.31532 178.068175 
L 168.035981 173.635116 
L 164.756643 168.98085 
L 161.477304 164.041524 
L 158.197965 158.754425 
L 154.918626 153.062573 
L 151.639287 146.919937 
L 148.359948 140.297158 
L 145.08061 133.187652 
L 141.801271 125.613908 
L 138.521932 117.633752 
L 135.242593 109.346309 
L 131.963254 100.897317 
L 128.683915 92.483414 
L 125.404576 84.354928 
L 122.125238 76.816639 
L 118.845899 70.225921 
L 115.56656 64.987553 
L 112.287221 61.544444 
L 109.007882 60.363384 
L 105.728543 61.914858 
L 102.449205 66.645848 
L 99.169866 74.944422 
L 95.890527 87.094812 
L 92.611188 103.221533 
L 89.331849 123.220977 
L 86.05251 146.678772 
L 82.773171 172.771041 
L 79.493833 200.147539 
L 76.214494 226.79451 
L 72.935155 249.874876 
L 69.655816 265.543261 
L 66.376477 268.733108 
z
" clip-path="url(#p6fc1b5a364)" style="fill: #1f77b4; fill-opacity: 0.166667"/>
   </g>
   <g id="PolyCollection_2">
    <path d="M 66.376477 262.260529 
L 66.376477 260.943072 
L 69.655816 260.943072 
L 72.935154 260.943072 
L 76.214493 260.943072 
L 79.493831 260.943072 
L 82.77317 260.943072 
L 86.052508 260.943072 
L 89.331846 260.943072 
L 92.611185 260.943072 
L 95.890523 260.943072 
L 99.169862 260.943072 
L 102.4492 260.943072 
L 105.728539 260.943072 
L 109.007877 260.943072 
L 112.287216 260.943072 
L 115.566554 260.943072 
L 118.845893 260.943072 
L 122.125231 260.943072 
L 125.404569 260.943072 
L 128.683908 260.943072 
L 131.963246 260.943072 
L 135.242585 260.943072 
L 138.521923 260.943072 
L 141.801262 260.943072 
L 145.0806 260.943072 
L 148.359939 260.943072 
L 151.639277 260.943072 
L 154.918615 260.943072 
L 158.197954 260.943072 
L 161.477292 260.943072 
L 164.756631 260.943072 
L 168.035969 260.943072 
L 171.315308 260.943072 
L 174.594646 260.943072 
L 177.873985 260.943072 
L 181.153323 260.943072 
L 184.432662 260.943072 
L 187.712 260.943072 
L 190.991338 260.943072 
L 194.270677 260.943072 
L 197.550015 260.943072 
L 200.829354 260.943072 
L 204.108692 260.943072 
L 207.388031 260.943072 
L 210.667369 260.943072 
L 213.946708 260.943072 
L 217.226046 260.943072 
L 220.505385 260.943072 
L 223.784723 260.943072 
L 227.064061 260.943072 
L 230.3434 260.943072 
L 233.622738 260.943072 
L 236.902077 260.943072 
L 240.181415 260.943072 
L 243.460754 260.943072 
L 246.740092 260.943072 
L 250.019431 260.943072 
L 253.298769 260.943072 
L 256.578107 260.943072 
L 259.857446 260.943072 
L 263.136784 260.943072 
L 266.416123 260.943072 
L 269.695461 260.943072 
L 272.9748 260.943072 
L 276.254138 260.943072 
L 279.533477 260.943072 
L 282.812815 260.943072 
L 286.092154 260.943072 
L 289.371492 260.943072 
L 292.65083 260.943072 
L 295.930169 260.943072 
L 299.209507 260.943072 
L 302.488846 260.943072 
L 305.768184 260.943072 
L 309.047523 260.943072 
L 312.326861 260.943072 
L 315.6062 260.943072 
L 318.885538 260.943072 
L 322.164877 260.943072 
L 325.444215 260.943072 
L 328.723553 260.943072 
L 332.002892 260.943072 
L 335.28223 260.943072 
L 338.561569 260.943072 
L 341.840907 260.943072 
L 345.120246 260.943072 
L 348.399584 260.943072 
L 351.678923 260.943072 
L 354.958261 260.943072 
L 358.2376 260.943072 
L 361.516938 260.943072 
L 364.796276 260.943072 
L 368.075615 260.943072 
L 371.354953 260.943072 
L 374.634292 260.943072 
L 377.91363 260.943072 
L 381.192969 260.943072 
L 384.472307 260.943072 
L 387.751646 260.943072 
L 391.030984 260.943072 
L 391.030984 244.266258 
L 391.030984 244.266258 
L 387.751646 250.217254 
L 384.472307 254.793075 
L 381.192969 258.245661 
L 377.91363 260.766298 
L 374.634292 262.498577 
L 371.354953 263.549246 
L 368.075615 263.997218 
L 364.796276 263.90096 
L 361.516938 263.304481 
L 358.2376 262.24209 
L 354.958261 260.742124 
L 351.678923 258.829778 
L 348.399584 256.529196 
L 345.120246 253.864929 
L 341.840907 250.862892 
L 338.561569 247.550906 
L 335.28223 243.958913 
L 332.002892 240.118939 
L 328.723553 236.064879 
L 325.444215 231.832144 
L 322.164877 227.457233 
L 318.885538 222.977253 
L 315.6062 218.429436 
L 312.326861 213.85066 
L 309.047523 209.277012 
L 305.768184 204.743386 
L 302.488846 200.283145 
L 299.209507 195.927845 
L 295.930169 191.707014 
L 292.65083 187.648001 
L 289.371492 183.775882 
L 286.092154 180.113417 
L 282.812815 176.681056 
L 279.533477 173.496984 
L 276.254138 170.577193 
L 272.9748 167.935579 
L 269.695461 165.584048 
L 266.416123 163.532623 
L 263.136784 161.789551 
L 259.857446 160.361392 
L 256.578107 159.253088 
L 253.298769 158.468011 
L 250.019431 158.007974 
L 246.740092 157.873216 
L 243.460754 158.062349 
L 240.181415 158.572271 
L 236.902077 159.398053 
L 233.622738 160.532783 
L 230.3434 260.926363 
L 227.064061 260.926769 
L 223.784723 165.050456 
L 220.505385 167.251674 
L 217.226046 169.725417 
L 213.946708 172.449474 
L 210.667369 175.396851 
L 207.388031 178.535746 
L 204.108692 181.829642 
L 200.829354 185.237529 
L 197.550015 188.714265 
L 194.270677 192.211075 
L 190.991338 195.676203 
L 187.712 199.0557 
L 184.432662 202.294363 
L 181.153323 205.336809 
L 177.873985 208.128681 
L 174.594646 210.617964 
L 171.315308 212.756408 
L 168.035969 214.501029 
L 164.756631 215.815662 
L 161.477292 216.672539 
L 158.197954 217.053866 
L 154.918615 216.95334 
L 151.639277 216.377586 
L 148.359939 215.347436 
L 145.0806 213.899023 
L 141.801262 212.084609 
L 138.521923 209.973078 
L 135.242585 207.650036 
L 131.963246 205.217413 
L 128.683908 202.792504 
L 125.404569 200.506331 
L 122.125231 198.501235 
L 118.845893 196.927583 
L 115.566554 195.939477 
L 112.287216 195.689328 
L 109.007877 196.321169 
L 105.728539 197.962554 
L 102.4492 200.714903 
L 99.169862 204.642116 
L 95.890523 209.757295 
L 92.611185 216.007393 
L 89.331846 223.255586 
L 86.052508 231.261191 
L 82.77317 239.656893 
L 79.493831 247.92308 
L 76.214493 255.359038 
L 72.935154 261.05078 
L 69.655816 263.835232 
L 66.376477 262.260529 
z
" clip-path="url(#p6fc1b5a364)" style="fill: #ff7f0e; fill-opacity: 0.166667"/>
   </g>
   <g id="PolyCollection_3">
    <path d="M 66.376477 260.083678 
L 66.376477 260.943072 
L 69.655816 260.943072 
L 72.935154 260.943072 
L 76.214493 260.943072 
L 79.493831 260.943072 
L 82.77317 260.943072 
L 86.052508 260.943072 
L 89.331846 260.943072 
L 92.611185 260.943072 
L 95.890523 260.943072 
L 99.169862 260.943072 
L 102.4492 260.943072 
L 105.728539 260.943072 
L 109.007877 260.943072 
L 112.287216 260.943072 
L 115.566554 260.943072 
L 118.845893 260.943072 
L 122.125231 260.943072 
L 125.404569 260.943072 
L 128.683908 260.943072 
L 131.963246 260.943072 
L 135.242585 260.943072 
L 138.521923 260.943072 
L 141.801262 260.943072 
L 145.0806 260.943072 
L 148.359939 260.943072 
L 151.639277 260.943072 
L 154.918615 260.943072 
L 158.197954 260.943072 
L 161.477292 260.943072 
L 164.756631 260.943072 
L 168.035969 260.943072 
L 171.315308 260.943072 
L 174.594646 260.943072 
L 177.873985 260.943072 
L 181.153323 260.943072 
L 184.432662 260.943072 
L 187.712 260.943072 
L 190.991338 260.943072 
L 194.270677 260.943072 
L 197.550015 260.943072 
L 200.829354 260.943072 
L 204.108692 260.943072 
L 207.388031 260.943072 
L 210.667369 260.943072 
L 213.946708 260.943072 
L 217.226046 260.943072 
L 220.505385 260.943072 
L 223.784723 260.943072 
L 227.064061 260.943072 
L 230.3434 260.943072 
L 233.622738 260.943072 
L 236.902077 260.943072 
L 240.181415 260.943072 
L 243.460754 260.943072 
L 246.740092 260.943072 
L 250.019431 260.943072 
L 253.298769 260.943072 
L 256.578107 260.943072 
L 259.857446 260.943072 
L 263.136784 260.943072 
L 266.416123 260.943072 
L 269.695461 260.943072 
L 272.9748 260.943072 
L 276.254138 260.943072 
L 279.533477 260.943072 
L 282.812815 260.943072 
L 286.092154 260.943072 
L 289.371492 260.943072 
L 292.65083 260.943072 
L 295.930169 260.943072 
L 299.209507 260.943072 
L 302.488846 260.943072 
L 305.768184 260.943072 
L 309.047523 260.943072 
L 312.326861 260.943072 
L 315.6062 260.943072 
L 318.885538 260.943072 
L 322.164877 260.943072 
L 325.444215 260.943072 
L 328.723553 260.943072 
L 332.002892 260.943072 
L 335.28223 260.943072 
L 338.561569 260.943072 
L 341.840907 260.943072 
L 345.120246 260.943072 
L 348.399584 260.943072 
L 351.678923 260.943072 
L 354.958261 260.943072 
L 358.2376 260.943072 
L 361.516938 260.943072 
L 364.796276 260.943072 
L 368.075615 260.943072 
L 371.354953 260.943072 
L 374.634292 260.943072 
L 377.91363 260.943072 
L 381.192969 260.943072 
L 384.472307 260.943072 
L 387.751646 260.943072 
L 391.030984 260.943072 
L 391.030984 215.433447 
L 391.030984 215.433447 
L 387.751646 235.920462 
L 384.472307 249.818916 
L 381.192969 258.631117 
L 377.91363 263.597706 
L 374.634292 265.732007 
L 371.354953 265.850937 
L 368.075615 264.602761 
L 364.796276 262.491932 
L 361.516938 259.901254 
L 358.2376 257.111588 
L 354.958261 254.31931 
L 351.678923 251.6517 
L 348.399584 249.180467 
L 345.120246 246.933544 
L 341.840907 244.905339 
L 338.561569 243.065569 
L 335.28223 241.366811 
L 332.002892 239.750904 
L 328.723553 238.15431 
L 325.444215 236.512542 
L 322.164877 234.763753 
L 318.885538 232.85159 
L 315.6062 230.727374 
L 312.326861 228.351703 
L 309.047523 225.695542 
L 305.768184 222.740854 
L 302.488846 219.480847 
L 299.209507 215.919879 
L 295.930169 212.073082 
L 292.65083 207.965727 
L 289.371492 203.632408 
L 286.092154 199.116039 
L 282.812815 194.466739 
L 279.533477 189.740603 
L 276.254138 184.99841 
L 272.9748 180.30428 
L 269.695461 175.724311 
L 266.416123 171.325216 
L 263.136784 167.172973 
L 259.857446 163.331518 
L 256.578107 159.861489 
L 253.298769 156.819031 
L 250.019431 154.254692 
L 246.740092 152.212406 
L 243.460754 150.728588 
L 240.181415 149.831331 
L 236.902077 149.539747 
L 233.622738 149.863427 
L 230.3434 260.927707 
L 227.064061 260.928162 
L 223.784723 153.41869 
L 220.505385 156.057767 
L 217.226046 159.26384 
L 213.946708 162.985088 
L 210.667369 167.15821 
L 207.388031 171.709334 
L 204.108692 176.555193 
L 200.829354 181.604546 
L 197.550015 186.759832 
L 194.270677 191.91904 
L 190.991338 196.977764 
L 187.712 201.831411 
L 184.432662 206.37754 
L 181.153323 210.518283 
L 177.873985 214.162812 
L 174.594646 217.229806 
L 171.315308 219.649866 
L 168.035969 221.367836 
L 164.756631 222.344962 
L 161.477292 222.560844 
L 158.197954 222.015122 
L 154.918615 220.728829 
L 151.639277 218.745352 
L 148.359939 216.130953 
L 145.0806 212.974764 
L 141.801262 209.388224 
L 138.521923 205.503874 
L 135.242585 201.473471 
L 131.963246 197.465355 
L 128.683908 193.661026 
L 125.404569 190.250874 
L 122.125231 187.429036 
L 118.845893 185.387322 
L 115.566554 184.308196 
L 112.287216 184.356793 
L 109.007877 185.671932 
L 105.728539 188.356158 
L 102.4492 192.464782 
L 99.169862 197.993963 
L 95.890523 204.867848 
L 92.611185 212.92481 
L 89.331846 221.902853 
L 86.052508 231.424252 
L 82.77317 240.979511 
L 79.493831 249.910757 
L 76.214493 257.394696 
L 72.935154 262.425275 
L 69.655816 263.796224 
L 66.376477 260.083678 
z
" clip-path="url(#p6fc1b5a364)" style="fill: #2ca02c; fill-opacity: 0.166667"/>
   </g>
   <g id="PolyCollection_4">
    <path d="M 66.376477 253.409572 
L 66.376477 260.943072 
L 69.655816 260.943072 
L 72.935154 260.943072 
L 76.214493 260.943072 
L 79.493831 260.943072 
L 82.77317 260.943072 
L 86.052508 260.943072 
L 89.331846 260.943072 
L 92.611185 260.943072 
L 95.890523 260.943072 
L 99.169862 260.943072 
L 102.4492 260.943072 
L 105.728539 260.943072 
L 109.007877 260.943072 
L 112.287216 260.943072 
L 115.566554 260.943072 
L 118.845893 260.943072 
L 122.125231 260.943072 
L 125.404569 260.943072 
L 128.683908 260.943072 
L 131.963246 260.943072 
L 135.242585 260.943072 
L 138.521923 260.943072 
L 141.801262 260.943072 
L 145.0806 260.943072 
L 148.359939 260.943072 
L 151.639277 260.943072 
L 154.918615 260.943072 
L 158.197954 260.943072 
L 161.477292 260.943072 
L 164.756631 260.943072 
L 168.035969 260.943072 
L 171.315308 260.943072 
L 174.594646 260.943072 
L 177.873985 260.943072 
L 181.153323 260.943072 
L 184.432662 260.943072 
L 187.712 260.943072 
L 190.991338 260.943072 
L 194.270677 260.943072 
L 197.550015 260.943072 
L 200.829354 260.943072 
L 204.108692 260.943072 
L 207.388031 260.943072 
L 210.667369 260.943072 
L 213.946708 260.943072 
L 217.226046 260.943072 
L 220.505385 260.943072 
L 223.784723 260.943072 
L 227.064061 260.943072 
L 230.3434 260.943072 
L 233.622738 260.943072 
L 236.902077 260.943072 
L 240.181415 260.943072 
L 243.460754 260.943072 
L 246.740092 260.943072 
L 250.019431 260.943072 
L 253.298769 260.943072 
L 256.578107 260.943072 
L 259.857446 260.943072 
L 263.136784 260.943072 
L 266.416123 260.943072 
L 269.695461 260.943072 
L 272.9748 260.943072 
L 276.254138 260.943072 
L 279.533477 260.943072 
L 282.812815 260.943072 
L 286.092154 260.943072 
L 289.371492 260.943072 
L 292.65083 260.943072 
L 295.930169 260.943072 
L 299.209507 260.943072 
L 302.488846 260.943072 
L 305.768184 260.943072 
L 309.047523 260.943072 
L 312.326861 260.943072 
L 315.6062 260.943072 
L 318.885538 260.943072 
L 322.164877 260.943072 
L 325.444215 260.943072 
L 328.723553 260.943072 
L 332.002892 260.943072 
L 335.28223 260.943072 
L 338.561569 260.943072 
L 341.840907 260.943072 
L 345.120246 260.943072 
L 348.399584 260.943072 
L 351.678923 260.943072 
L 354.958261 260.943072 
L 358.2376 260.943072 
L 361.516938 260.943072 
L 364.796276 260.943072 
L 368.075615 260.943072 
L 371.354953 260.943072 
L 374.634292 260.943072 
L 377.91363 260.943072 
L 381.192969 260.943072 
L 384.472307 260.943072 
L 387.751646 260.943072 
L 391.030984 260.943072 
L 391.030984 237.209086 
L 391.030984 237.209086 
L 387.751646 250.710466 
L 384.472307 258.30675 
L 381.192969 261.98611 
L 377.91363 263.218977 
L 374.634292 263.061367 
L 371.354953 262.242493 
L 368.075615 261.238453 
L 364.796276 260.333614 
L 361.516938 259.671194 
L 358.2376 259.294415 
L 354.958261 259.179482 
L 351.678923 259.261506 
L 348.399584 259.454437 
L 345.120246 259.665895 
L 341.840907 259.807764 
L 338.561569 259.803284 
L 335.28223 259.591294 
L 332.002892 259.128225 
L 328.723553 258.388346 
L 325.444215 257.362703 
L 322.164877 256.057143 
L 318.885538 254.489743 
L 315.6062 252.687912 
L 312.326861 250.685396 
L 309.047523 248.51936 
L 305.768184 246.227698 
L 302.488846 243.846658 
L 299.209507 241.408878 
L 295.930169 238.941856 
L 292.65083 236.466892 
L 289.371492 233.998492 
L 286.092154 231.544222 
L 282.812815 229.104969 
L 279.533477 226.675582 
L 276.254138 224.245816 
L 272.9748 221.801534 
L 269.695461 219.326093 
L 266.416123 216.801857 
L 263.136784 214.211744 
L 259.857446 211.540767 
L 256.578107 208.777491 
L 253.298769 205.915344 
L 250.019431 202.953732 
L 246.740092 199.898921 
L 243.460754 196.764619 
L 240.181415 193.572268 
L 236.902077 190.350988 
L 233.622738 187.137185 
L 230.3434 260.928646 
L 227.064061 260.928919 
L 223.784723 177.323522 
L 220.505385 174.704293 
L 217.226046 172.378857 
L 213.946708 170.395343 
L 210.667369 168.796732 
L 207.388031 167.618876 
L 204.108692 166.888574 
L 200.829354 166.621775 
L 197.550015 166.821971 
L 194.270677 167.478854 
L 190.991338 168.567308 
L 187.712 170.046784 
L 184.432662 171.861156 
L 181.153323 173.939074 
L 177.873985 176.194899 
L 174.594646 178.530241 
L 171.315308 180.836131 
L 168.035969 182.995852 
L 164.756631 184.888416 
L 161.477292 186.392674 
L 158.197954 187.392016 
L 154.918615 187.779594 
L 151.639277 187.463974 
L 148.359939 186.375099 
L 145.0806 184.470397 
L 141.801262 181.74085 
L 138.521923 178.216784 
L 135.242585 173.9731 
L 131.963246 169.133634 
L 128.683908 163.87425 
L 125.404569 158.424255 
L 122.125231 153.065627 
L 118.845893 148.129515 
L 115.566554 143.989386 
L 112.287216 141.05012 
L 109.007877 139.732286 
L 105.728539 140.450753 
L 102.4492 143.586685 
L 99.169862 149.451903 
L 95.890523 158.244477 
L 92.611185 169.994335 
L 89.331846 184.497542 
L 86.052508 201.237809 
L 82.77317 219.293675 
L 79.493831 237.22966 
L 76.214493 252.969586 
L 72.935154 263.650111 
L 69.655816 265.452383 
L 66.376477 253.409572 
z
" clip-path="url(#p6fc1b5a364)" style="fill: #d62728; fill-opacity: 0.166667"/>
   </g>
   <g id="PolyCollection_5">
    <path d="M 66.376477 276.334125 
L 66.376477 260.943072 
L 69.655816 260.943072 
L 72.935155 260.943072 
L 76.214493 260.943072 
L 79.493832 260.943072 
L 82.773171 260.943072 
L 86.052509 260.943072 
L 89.331848 260.943072 
L 92.611186 260.943072 
L 95.890525 260.943072 
L 99.169864 260.943072 
L 102.449202 260.943072 
L 105.728541 260.943072 
L 109.00788 260.943072 
L 112.287218 260.943072 
L 115.566557 260.943072 
L 118.845896 260.943072 
L 122.125234 260.943072 
L 125.404573 260.943072 
L 128.683912 260.943072 
L 131.96325 260.943072 
L 135.242589 260.943072 
L 138.521928 260.943072 
L 141.801266 260.943072 
L 145.080605 260.943072 
L 148.359943 260.943072 
L 151.639282 260.943072 
L 154.918621 260.943072 
L 158.197959 260.943072 
L 161.477298 260.943072 
L 164.756637 260.943072 
L 168.035975 260.943072 
L 171.315314 260.943072 
L 174.594653 260.943072 
L 177.873991 260.943072 
L 181.15333 260.943072 
L 184.432669 260.943072 
L 187.712007 260.943072 
L 190.991346 260.943072 
L 194.270685 260.943072 
L 197.550023 260.943072 
L 200.829362 260.943072 
L 204.1087 260.943072 
L 207.388039 260.943072 
L 210.667378 260.943072 
L 213.946716 260.943072 
L 217.226055 260.943072 
L 220.505394 260.943072 
L 223.784732 260.943072 
L 227.064071 260.943072 
L 230.34341 260.943072 
L 233.622748 260.943072 
L 236.902087 260.943072 
L 240.181426 260.943072 
L 243.460764 260.943072 
L 246.740103 260.943072 
L 250.019442 260.943072 
L 253.29878 260.943072 
L 256.578119 260.943072 
L 259.857457 260.943072 
L 263.136796 260.943072 
L 266.416135 260.943072 
L 269.695473 260.943072 
L 272.974812 260.943072 
L 276.254151 260.943072 
L 279.533489 260.943072 
L 282.812828 260.943072 
L 286.092167 260.943072 
L 289.371505 260.943072 
L 292.650844 260.943072 
L 295.930183 260.943072 
L 299.209521 260.943072 
L 302.48886 260.943072 
L 305.768199 260.943072 
L 309.047537 260.943072 
L 312.326876 260.943072 
L 315.606214 260.943072 
L 318.885553 260.943072 
L 322.164892 260.943072 
L 325.44423 260.943072 
L 328.723569 260.943072 
L 332.002908 260.943072 
L 335.282246 260.943072 
L 338.561585 260.943072 
L 341.840924 260.943072 
L 345.120262 260.943072 
L 348.399601 260.943072 
L 351.67894 260.943072 
L 354.958278 260.943072 
L 358.237617 260.943072 
L 361.516956 260.943072 
L 364.796294 260.943072 
L 368.075633 260.943072 
L 371.354971 260.943072 
L 374.63431 260.943072 
L 377.913649 260.943072 
L 381.192987 260.943072 
L 384.472326 260.943072 
L 387.751665 260.943072 
L 391.031003 260.943072 
L 391.031003 171.963721 
L 391.031003 171.963721 
L 387.751665 221.085715 
L 384.472326 249.718578 
L 381.192987 264.295948 
L 377.913649 269.702862 
L 374.63431 269.563187 
L 371.354971 266.486255 
L 368.075633 262.277006 
L 364.796294 258.113643 
L 361.516956 254.696479 
L 358.237617 252.371375 
L 354.958278 251.230873 
L 351.67894 251.195893 
L 348.399601 252.08058 
L 345.120262 253.642678 
L 341.840924 255.621572 
L 338.561585 257.765929 
L 335.282246 259.852676 
L 332.002908 261.698866 
L 328.723569 263.167809 
L 325.44423 264.170683 
L 322.164892 264.664685 
L 318.885553 264.648656 
L 315.606214 264.156962 
L 312.326876 263.252319 
L 309.047537 262.018112 
L 305.768199 260.550685 
L 302.48886 258.951965 
L 299.209521 257.322723 
L 295.930183 255.756665 
L 292.650844 254.335531 
L 289.371505 253.125265 
L 286.092167 252.173318 
L 282.812828 251.507056 
L 279.533489 251.133251 
L 276.254151 251.038563 
L 272.974812 251.190921 
L 269.695473 251.541678 
L 266.416135 252.02841 
L 263.136796 252.578201 
L 259.857457 253.111273 
L 256.578119 253.544807 
L 253.29878 253.796801 
L 250.019442 253.789815 
L 246.740103 253.454489 
L 243.460764 252.73268 
L 240.181426 251.580136 
L 236.902087 249.968598 
L 233.622748 247.887267 
L 230.34341 260.93494 
L 227.064071 260.934981 
L 223.784732 238.243635 
L 220.505394 234.247452 
L 217.226055 230.037114 
L 213.946716 225.707542 
L 210.667378 221.359228 
L 207.388039 217.094075 
L 204.1087 213.010947 
L 200.829362 209.201073 
L 197.550023 205.743443 
L 194.270685 202.700367 
L 190.991346 200.113352 
L 187.712007 197.999484 
L 184.432669 196.348462 
L 181.15333 195.12048 
L 177.873991 194.245093 
L 174.594653 193.621235 
L 171.315314 193.1185 
L 168.035975 192.579814 
L 164.756637 191.825571 
L 161.477298 190.659274 
L 158.197959 188.874704 
L 154.918621 186.264565 
L 151.639282 182.630522 
L 148.359943 177.794469 
L 145.080605 171.610829 
L 141.801266 163.979559 
L 138.521928 154.859508 
L 135.242589 144.281639 
L 131.96325 132.361545 
L 128.683912 119.310585 
L 125.404573 105.444813 
L 122.125234 91.190788 
L 118.845896 77.087178 
L 115.566557 63.780935 
L 112.287218 52.016655 
L 109.00788 42.617564 
L 105.728541 36.456381 
L 102.449202 34.414125 
L 99.169864 37.324715 
L 95.890525 45.902989 
L 92.611186 60.653547 
L 89.331848 81.757564 
L 86.052509 108.934461 
L 82.773171 141.275056 
L 79.493832 177.042517 
L 76.214493 213.437147 
L 72.935155 246.320697 
L 69.655816 269.895599 
L 66.376477 276.334125 
z
" clip-path="url(#p6fc1b5a364)" style="fill: #9467bd; fill-opacity: 0.166667"/>
   </g>
   <g id="PolyCollection_6">
    <path d="M 66.376477 262.854669 
L 66.376477 260.943072 
L 69.655816 260.943072 
L 72.935155 260.943072 
L 76.214494 260.943072 
L 79.493833 260.943072 
L 82.773171 260.943072 
L 86.05251 260.943072 
L 89.331849 260.943072 
L 92.611188 260.943072 
L 95.890527 260.943072 
L 99.169866 260.943072 
L 102.449205 260.943072 
L 105.728543 260.943072 
L 109.007882 260.943072 
L 112.287221 260.943072 
L 115.56656 260.943072 
L 118.845899 260.943072 
L 122.125238 260.943072 
L 125.404576 260.943072 
L 128.683915 260.943072 
L 131.963254 260.943072 
L 135.242593 260.943072 
L 138.521932 260.943072 
L 141.801271 260.943072 
L 145.08061 260.943072 
L 148.359948 260.943072 
L 151.639287 260.943072 
L 154.918626 260.943072 
L 158.197965 260.943072 
L 161.477304 260.943072 
L 164.756643 260.943072 
L 168.035981 260.943072 
L 171.31532 260.943072 
L 174.594659 260.943072 
L 177.873998 260.943072 
L 181.153337 260.943072 
L 184.432676 260.943072 
L 187.712014 260.943072 
L 190.991353 260.943072 
L 194.270692 260.943072 
L 197.550031 260.943072 
L 200.82937 260.943072 
L 204.108709 260.943072 
L 207.388048 260.943072 
L 210.667386 260.943072 
L 213.946725 260.943072 
L 217.226064 260.943072 
L 220.505403 260.943072 
L 223.784742 260.943072 
L 227.064081 260.943072 
L 230.343419 260.943072 
L 233.622758 260.943072 
L 236.902097 260.943072 
L 240.181436 260.943072 
L 243.460775 260.943072 
L 246.740114 260.943072 
L 250.019452 260.943072 
L 253.298791 260.943072 
L 256.57813 260.943072 
L 259.857469 260.943072 
L 263.136808 260.943072 
L 266.416147 260.943072 
L 269.695486 260.943072 
L 272.974824 260.943072 
L 276.254163 260.943072 
L 279.533502 260.943072 
L 282.812841 260.943072 
L 286.09218 260.943072 
L 289.371519 260.943072 
L 292.650857 260.943072 
L 295.930196 260.943072 
L 299.209535 260.943072 
L 302.488874 260.943072 
L 305.768213 260.943072 
L 309.047552 260.943072 
L 312.32689 260.943072 
L 315.606229 260.943072 
L 318.885568 260.943072 
L 322.164907 260.943072 
L 325.444246 260.943072 
L 328.723585 260.943072 
L 332.002924 260.943072 
L 335.282262 260.943072 
L 338.561601 260.943072 
L 341.84094 260.943072 
L 345.120279 260.943072 
L 348.399618 260.943072 
L 351.678957 260.943072 
L 354.958295 260.943072 
L 358.237634 260.943072 
L 361.516973 260.943072 
L 364.796312 260.943072 
L 368.075651 260.943072 
L 371.35499 260.943072 
L 374.634329 260.943072 
L 377.913667 260.943072 
L 381.193006 260.943072 
L 384.472345 260.943072 
L 387.751684 260.943072 
L 391.031023 260.943072 
L 391.031023 241.108874 
L 391.031023 241.108874 
L 387.751684 247.840971 
L 384.472345 253.52975 
L 381.193006 258.041962 
L 377.913667 261.353789 
L 374.634329 263.519625 
L 371.35499 264.646329 
L 368.075651 264.872338 
L 364.796312 264.351035 
L 361.516973 263.237827 
L 358.237634 261.680443 
L 354.958295 259.811979 
L 351.678957 257.746284 
L 348.399618 255.575305 
L 345.120279 253.368045 
L 341.84094 251.170829 
L 338.561601 249.008598 
L 335.282262 246.886989 
L 332.002924 244.794981 
L 328.723585 242.707918 
L 325.444246 240.590738 
L 322.164907 238.401276 
L 318.885568 236.093509 
L 315.606229 233.620659 
L 312.32689 230.93805 
L 309.047552 228.005675 
L 305.768213 224.790411 
L 302.488874 221.267862 
L 299.209535 217.423787 
L 295.930196 213.255125 
L 292.650857 208.770601 
L 289.371519 203.990939 
L 286.09218 198.94868 
L 282.812841 193.687648 
L 279.533502 188.262082 
L 276.254163 182.735477 
L 272.974824 177.179171 
L 269.695486 171.670715 
L 266.416147 166.292082 
L 263.136808 161.127747 
L 259.857469 156.262695 
L 256.57813 151.7804 
L 253.298791 147.760812 
L 250.019452 144.278411 
L 246.740114 141.400356 
L 243.460775 139.184772 
L 240.181436 137.679219 
L 236.902097 136.919356 
L 233.622758 136.927852 
L 230.343419 260.926968 
L 227.064081 260.927261 
L 223.784742 140.951603 
L 220.505403 143.913632 
L 217.226064 147.577306 
L 213.946725 151.880892 
L 210.667386 156.748463 
L 207.388048 162.091203 
L 204.108709 167.809025 
L 200.82937 173.792521 
L 197.550031 179.925172 
L 194.270692 186.085815 
L 190.991353 192.151302 
L 187.712014 197.999307 
L 184.432676 203.511238 
L 181.153337 208.57518 
L 177.873998 213.088821 
L 174.594659 216.962283 
L 171.31532 220.120807 
L 168.035981 222.507205 
L 164.756643 224.084028 
L 161.477304 224.835366 
L 158.197965 224.768233 
L 154.918626 223.913444 
L 151.639287 222.325964 
L 148.359948 220.084639 
L 145.08061 217.291286 
L 141.801271 214.069093 
L 138.521932 210.56031 
L 135.242593 206.923201 
L 131.963254 203.328274 
L 128.683915 199.953782 
L 125.404576 196.980543 
L 122.125238 194.586107 
L 118.845899 192.93837 
L 115.56656 192.188693 
L 112.287221 192.464677 
L 109.007882 193.862722 
L 105.728543 196.440547 
L 102.449205 200.209895 
L 99.169866 205.129649 
L 95.890527 211.099654 
L 92.611188 217.955558 
L 89.331849 225.465046 
L 86.05251 233.325866 
L 82.773171 241.166118 
L 79.493833 248.547305 
L 76.214494 254.970725 
L 72.935155 259.887811 
L 69.655816 262.715114 
L 66.376477 262.854669 
z
" clip-path="url(#p6fc1b5a364)" style="fill: #8c564b; fill-opacity: 0.166667"/>
   </g>
   <g id="matplotlib.axis_1">
    <g id="xtick_1">
     <g id="line2d_1">
      <defs>
       <path id="m0815c7bd82" d="M 0 0 
L 0 3.5 
" style="stroke: #000000; stroke-width: 0.8"/>
      </defs>
      <g>
       <use xlink:href="#m0815c7bd82" x="66.376477" y="288.430125" style="stroke: #000000; stroke-width: 0.8"/>
      </g>
     </g>
     <g id="text_1">
      <!-- 0.0 -->
      <g transform="translate(58.424915 303.028562) scale(0.1 -0.1)">
       <defs>
        <path id="DejaVuSans-30" d="M 2034 4250 
Q 1547 4250 1301 3770 
Q 1056 3291 1056 2328 
Q 1056 1369 1301 889 
Q 1547 409 2034 409 
Q 2525 409 2770 889 
Q 3016 1369 3016 2328 
Q 3016 3291 2770 3770 
Q 2525 4250 2034 4250 
z
M 2034 4750 
Q 2819 4750 3233 4129 
Q 3647 3509 3647 2328 
Q 3647 1150 3233 529 
Q 2819 -91 2034 -91 
Q 1250 -91 836 529 
Q 422 1150 422 2328 
Q 422 3509 836 4129 
Q 1250 4750 2034 4750 
z
" transform="scale(0.015625)"/>
        <path id="DejaVuSans-2e" d="M 684 794 
L 1344 794 
L 1344 0 
L 684 0 
L 684 794 
z
" transform="scale(0.015625)"/>
       </defs>
       <use xlink:href="#DejaVuSans-30"/>
       <use xlink:href="#DejaVuSans-2e" x="63.623047"/>
       <use xlink:href="#DejaVuSans-30" x="95.410156"/>
      </g>
     </g>
    </g>
    <g id="xtick_2">
     <g id="line2d_2">
      <g>
       <use xlink:href="#m0815c7bd82" x="131.963254" y="288.430125" style="stroke: #000000; stroke-width: 0.8"/>
      </g>
     </g>
     <g id="text_2">
      <!-- 0.2 -->
      <g transform="translate(124.011692 303.028562) scale(0.1 -0.1)">
       <defs>
        <path id="DejaVuSans-32" d="M 1228 531 
L 3431 531 
L 3431 0 
L 469 0 
L 469 531 
Q 828 903 1448 1529 
Q 2069 2156 2228 2338 
Q 2531 2678 2651 2914 
Q 2772 3150 2772 3378 
Q 2772 3750 2511 3984 
Q 2250 4219 1831 4219 
Q 1534 4219 1204 4116 
Q 875 4013 500 3803 
L 500 4441 
Q 881 4594 1212 4672 
Q 1544 4750 1819 4750 
Q 2544 4750 2975 4387 
Q 3406 4025 3406 3419 
Q 3406 3131 3298 2873 
Q 3191 2616 2906 2266 
Q 2828 2175 2409 1742 
Q 1991 1309 1228 531 
z
" transform="scale(0.015625)"/>
       </defs>
       <use xlink:href="#DejaVuSans-30"/>
       <use xlink:href="#DejaVuSans-2e" x="63.623047"/>
       <use xlink:href="#DejaVuSans-32" x="95.410156"/>
      </g>
     </g>
    </g>
    <g id="xtick_3">
     <g id="line2d_3">
      <g>
       <use xlink:href="#m0815c7bd82" x="197.550031" y="288.430125" style="stroke: #000000; stroke-width: 0.8"/>
      </g>
     </g>
     <g id="text_3">
      <!-- 0.4 -->
      <g transform="translate(189.598468 303.028562) scale(0.1 -0.1)">
       <defs>
        <path id="DejaVuSans-34" d="M 2419 4116 
L 825 1625 
L 2419 1625 
L 2419 4116 
z
M 2253 4666 
L 3047 4666 
L 3047 1625 
L 3713 1625 
L 3713 1100 
L 3047 1100 
L 3047 0 
L 2419 0 
L 2419 1100 
L 313 1100 
L 313 1709 
L 2253 4666 
z
" transform="scale(0.015625)"/>
       </defs>
       <use xlink:href="#DejaVuSans-30"/>
       <use xlink:href="#DejaVuSans-2e" x="63.623047"/>
       <use xlink:href="#DejaVuSans-34" x="95.410156"/>
      </g>
     </g>
    </g>
    <g id="xtick_4">
     <g id="line2d_4">
      <g>
       <use xlink:href="#m0815c7bd82" x="263.136808" y="288.430125" style="stroke: #000000; stroke-width: 0.8"/>
      </g>
     </g>
     <g id="text_4">
      <!-- 0.6 -->
      <g transform="translate(255.185245 303.028562) scale(0.1 -0.1)">
       <defs>
        <path id="DejaVuSans-36" d="M 2113 2584 
Q 1688 2584 1439 2293 
Q 1191 2003 1191 1497 
Q 1191 994 1439 701 
Q 1688 409 2113 409 
Q 2538 409 2786 701 
Q 3034 994 3034 1497 
Q 3034 2003 2786 2293 
Q 2538 2584 2113 2584 
z
M 3366 4563 
L 3366 3988 
Q 3128 4100 2886 4159 
Q 2644 4219 2406 4219 
Q 1781 4219 1451 3797 
Q 1122 3375 1075 2522 
Q 1259 2794 1537 2939 
Q 1816 3084 2150 3084 
Q 2853 3084 3261 2657 
Q 3669 2231 3669 1497 
Q 3669 778 3244 343 
Q 2819 -91 2113 -91 
Q 1303 -91 875 529 
Q 447 1150 447 2328 
Q 447 3434 972 4092 
Q 1497 4750 2381 4750 
Q 2619 4750 2861 4703 
Q 3103 4656 3366 4563 
z
" transform="scale(0.015625)"/>
       </defs>
       <use xlink:href="#DejaVuSans-30"/>
       <use xlink:href="#DejaVuSans-2e" x="63.623047"/>
       <use xlink:href="#DejaVuSans-36" x="95.410156"/>
      </g>
     </g>
    </g>
    <g id="xtick_5">
     <g id="line2d_5">
      <g>
       <use xlink:href="#m0815c7bd82" x="328.723585" y="288.430125" style="stroke: #000000; stroke-width: 0.8"/>
      </g>
     </g>
     <g id="text_5">
      <!-- 0.8 -->
      <g transform="translate(320.772022 303.028562) scale(0.1 -0.1)">
       <defs>
        <path id="DejaVuSans-38" d="M 2034 2216 
Q 1584 2216 1326 1975 
Q 1069 1734 1069 1313 
Q 1069 891 1326 650 
Q 1584 409 2034 409 
Q 2484 409 2743 651 
Q 3003 894 3003 1313 
Q 3003 1734 2745 1975 
Q 2488 2216 2034 2216 
z
M 1403 2484 
Q 997 2584 770 2862 
Q 544 3141 544 3541 
Q 544 4100 942 4425 
Q 1341 4750 2034 4750 
Q 2731 4750 3128 4425 
Q 3525 4100 3525 3541 
Q 3525 3141 3298 2862 
Q 3072 2584 2669 2484 
Q 3125 2378 3379 2068 
Q 3634 1759 3634 1313 
Q 3634 634 3220 271 
Q 2806 -91 2034 -91 
Q 1263 -91 848 271 
Q 434 634 434 1313 
Q 434 1759 690 2068 
Q 947 2378 1403 2484 
z
M 1172 3481 
Q 1172 3119 1398 2916 
Q 1625 2713 2034 2713 
Q 2441 2713 2670 2916 
Q 2900 3119 2900 3481 
Q 2900 3844 2670 4047 
Q 2441 4250 2034 4250 
Q 1625 4250 1398 4047 
Q 1172 3844 1172 3481 
z
" transform="scale(0.015625)"/>
       </defs>
       <use xlink:href="#DejaVuSans-30"/>
       <use xlink:href="#DejaVuSans-2e" x="63.623047"/>
       <use xlink:href="#DejaVuSans-38" x="95.410156"/>
      </g>
     </g>
    </g>
    <g id="xtick_6">
     <g id="line2d_6">
      <g>
       <use xlink:href="#m0815c7bd82" x="394.310362" y="288.430125" style="stroke: #000000; stroke-width: 0.8"/>
      </g>
     </g>
     <g id="text_6">
      <!-- 1.0 -->
      <g transform="translate(386.358799 303.028562) scale(0.1 -0.1)">
       <defs>
        <path id="DejaVuSans-31" d="M 794 531 
L 1825 531 
L 1825 4091 
L 703 3866 
L 703 4441 
L 1819 4666 
L 2450 4666 
L 2450 531 
L 3481 531 
L 3481 0 
L 794 0 
L 794 531 
z
" transform="scale(0.015625)"/>
       </defs>
       <use xlink:href="#DejaVuSans-31"/>
       <use xlink:href="#DejaVuSans-2e" x="63.623047"/>
       <use xlink:href="#DejaVuSans-30" x="95.410156"/>
      </g>
     </g>
    </g>
    <g id="text_7">
     <!-- Pixel values -->
     <g transform="translate(199.292031 316.706687) scale(0.1 -0.1)">
      <defs>
       <path id="DejaVuSans-50" d="M 1259 4147 
L 1259 2394 
L 2053 2394 
Q 2494 2394 2734 2622 
Q 2975 2850 2975 3272 
Q 2975 3691 2734 3919 
Q 2494 4147 2053 4147 
L 1259 4147 
z
M 628 4666 
L 2053 4666 
Q 2838 4666 3239 4311 
Q 3641 3956 3641 3272 
Q 3641 2581 3239 2228 
Q 2838 1875 2053 1875 
L 1259 1875 
L 1259 0 
L 628 0 
L 628 4666 
z
" transform="scale(0.015625)"/>
       <path id="DejaVuSans-69" d="M 603 3500 
L 1178 3500 
L 1178 0 
L 603 0 
L 603 3500 
z
M 603 4863 
L 1178 4863 
L 1178 4134 
L 603 4134 
L 603 4863 
z
" transform="scale(0.015625)"/>
       <path id="DejaVuSans-78" d="M 3513 3500 
L 2247 1797 
L 3578 0 
L 2900 0 
L 1881 1375 
L 863 0 
L 184 0 
L 1544 1831 
L 300 3500 
L 978 3500 
L 1906 2253 
L 2834 3500 
L 3513 3500 
z
" transform="scale(0.015625)"/>
       <path id="DejaVuSans-65" d="M 3597 1894 
L 3597 1613 
L 953 1613 
Q 991 1019 1311 708 
Q 1631 397 2203 397 
Q 2534 397 2845 478 
Q 3156 559 3463 722 
L 3463 178 
Q 3153 47 2828 -22 
Q 2503 -91 2169 -91 
Q 1331 -91 842 396 
Q 353 884 353 1716 
Q 353 2575 817 3079 
Q 1281 3584 2069 3584 
Q 2775 3584 3186 3129 
Q 3597 2675 3597 1894 
z
M 3022 2063 
Q 3016 2534 2758 2815 
Q 2500 3097 2075 3097 
Q 1594 3097 1305 2825 
Q 1016 2553 972 2059 
L 3022 2063 
z
" transform="scale(0.015625)"/>
       <path id="DejaVuSans-6c" d="M 603 4863 
L 1178 4863 
L 1178 0 
L 603 0 
L 603 4863 
z
" transform="scale(0.015625)"/>
       <path id="DejaVuSans-20" transform="scale(0.015625)"/>
       <path id="DejaVuSans-76" d="M 191 3500 
L 800 3500 
L 1894 563 
L 2988 3500 
L 3597 3500 
L 2284 0 
L 1503 0 
L 191 3500 
z
" transform="scale(0.015625)"/>
       <path id="DejaVuSans-61" d="M 2194 1759 
Q 1497 1759 1228 1600 
Q 959 1441 959 1056 
Q 959 750 1161 570 
Q 1363 391 1709 391 
Q 2188 391 2477 730 
Q 2766 1069 2766 1631 
L 2766 1759 
L 2194 1759 
z
M 3341 1997 
L 3341 0 
L 2766 0 
L 2766 531 
Q 2569 213 2275 61 
Q 1981 -91 1556 -91 
Q 1019 -91 701 211 
Q 384 513 384 1019 
Q 384 1609 779 1909 
Q 1175 2209 1959 2209 
L 2766 2209 
L 2766 2266 
Q 2766 2663 2505 2880 
Q 2244 3097 1772 3097 
Q 1472 3097 1187 3025 
Q 903 2953 641 2809 
L 641 3341 
Q 956 3463 1253 3523 
Q 1550 3584 1831 3584 
Q 2591 3584 2966 3190 
Q 3341 2797 3341 1997 
z
" transform="scale(0.015625)"/>
       <path id="DejaVuSans-75" d="M 544 1381 
L 544 3500 
L 1119 3500 
L 1119 1403 
Q 1119 906 1312 657 
Q 1506 409 1894 409 
Q 2359 409 2629 706 
Q 2900 1003 2900 1516 
L 2900 3500 
L 3475 3500 
L 3475 0 
L 2900 0 
L 2900 538 
Q 2691 219 2414 64 
Q 2138 -91 1772 -91 
Q 1169 -91 856 284 
Q 544 659 544 1381 
z
M 1991 3584 
L 1991 3584 
z
" transform="scale(0.015625)"/>
       <path id="DejaVuSans-73" d="M 2834 3397 
L 2834 2853 
Q 2591 2978 2328 3040 
Q 2066 3103 1784 3103 
Q 1356 3103 1142 2972 
Q 928 2841 928 2578 
Q 928 2378 1081 2264 
Q 1234 2150 1697 2047 
L 1894 2003 
Q 2506 1872 2764 1633 
Q 3022 1394 3022 966 
Q 3022 478 2636 193 
Q 2250 -91 1575 -91 
Q 1294 -91 989 -36 
Q 684 19 347 128 
L 347 722 
Q 666 556 975 473 
Q 1284 391 1588 391 
Q 1994 391 2212 530 
Q 2431 669 2431 922 
Q 2431 1156 2273 1281 
Q 2116 1406 1581 1522 
L 1381 1569 
Q 847 1681 609 1914 
Q 372 2147 372 2553 
Q 372 3047 722 3315 
Q 1072 3584 1716 3584 
Q 2034 3584 2315 3537 
Q 2597 3491 2834 3397 
z
" transform="scale(0.015625)"/>
      </defs>
      <use xlink:href="#DejaVuSans-50"/>
      <use xlink:href="#DejaVuSans-69" x="58.052734"/>
      <use xlink:href="#DejaVuSans-78" x="85.835938"/>
      <use xlink:href="#DejaVuSans-65" x="141.890625"/>
      <use xlink:href="#DejaVuSans-6c" x="203.414062"/>
      <use xlink:href="#DejaVuSans-20" x="231.197266"/>
      <use xlink:href="#DejaVuSans-76" x="262.984375"/>
      <use xlink:href="#DejaVuSans-61" x="322.164062"/>
      <use xlink:href="#DejaVuSans-6c" x="383.443359"/>
      <use xlink:href="#DejaVuSans-75" x="411.226562"/>
      <use xlink:href="#DejaVuSans-65" x="474.605469"/>
      <use xlink:href="#DejaVuSans-73" x="536.128906"/>
     </g>
    </g>
   </g>
   <g id="matplotlib.axis_2">
    <g id="ytick_1">
     <g id="line2d_7">
      <defs>
       <path id="m723f53fae5" d="M 0 0 
L -3.5 0 
" style="stroke: #000000; stroke-width: 0.8"/>
      </defs>
      <g>
       <use xlink:href="#m723f53fae5" x="50.14375" y="260.943072" style="stroke: #000000; stroke-width: 0.8"/>
      </g>
     </g>
     <g id="text_8">
      <!-- 0.00 -->
      <g transform="translate(20.878125 264.74229) scale(0.1 -0.1)">
       <use xlink:href="#DejaVuSans-30"/>
       <use xlink:href="#DejaVuSans-2e" x="63.623047"/>
       <use xlink:href="#DejaVuSans-30" x="95.410156"/>
       <use xlink:href="#DejaVuSans-30" x="159.033203"/>
      </g>
     </g>
    </g>
    <g id="ytick_2">
     <g id="line2d_8">
      <g>
       <use xlink:href="#m723f53fae5" x="50.14375" y="208.743032" style="stroke: #000000; stroke-width: 0.8"/>
      </g>
     </g>
     <g id="text_9">
      <!-- 0.01 -->
      <g transform="translate(20.878125 212.542251) scale(0.1 -0.1)">
       <use xlink:href="#DejaVuSans-30"/>
       <use xlink:href="#DejaVuSans-2e" x="63.623047"/>
       <use xlink:href="#DejaVuSans-30" x="95.410156"/>
       <use xlink:href="#DejaVuSans-31" x="159.033203"/>
      </g>
     </g>
    </g>
    <g id="ytick_3">
     <g id="line2d_9">
      <g>
       <use xlink:href="#m723f53fae5" x="50.14375" y="156.542992" style="stroke: #000000; stroke-width: 0.8"/>
      </g>
     </g>
     <g id="text_10">
      <!-- 0.02 -->
      <g transform="translate(20.878125 160.342211) scale(0.1 -0.1)">
       <use xlink:href="#DejaVuSans-30"/>
       <use xlink:href="#DejaVuSans-2e" x="63.623047"/>
       <use xlink:href="#DejaVuSans-30" x="95.410156"/>
       <use xlink:href="#DejaVuSans-32" x="159.033203"/>
      </g>
     </g>
    </g>
    <g id="ytick_4">
     <g id="line2d_10">
      <g>
       <use xlink:href="#m723f53fae5" x="50.14375" y="104.342953" style="stroke: #000000; stroke-width: 0.8"/>
      </g>
     </g>
     <g id="text_11">
      <!-- 0.03 -->
      <g transform="translate(20.878125 108.142172) scale(0.1 -0.1)">
       <defs>
        <path id="DejaVuSans-33" d="M 2597 2516 
Q 3050 2419 3304 2112 
Q 3559 1806 3559 1356 
Q 3559 666 3084 287 
Q 2609 -91 1734 -91 
Q 1441 -91 1130 -33 
Q 819 25 488 141 
L 488 750 
Q 750 597 1062 519 
Q 1375 441 1716 441 
Q 2309 441 2620 675 
Q 2931 909 2931 1356 
Q 2931 1769 2642 2001 
Q 2353 2234 1838 2234 
L 1294 2234 
L 1294 2753 
L 1863 2753 
Q 2328 2753 2575 2939 
Q 2822 3125 2822 3475 
Q 2822 3834 2567 4026 
Q 2313 4219 1838 4219 
Q 1578 4219 1281 4162 
Q 984 4106 628 3988 
L 628 4550 
Q 988 4650 1302 4700 
Q 1616 4750 1894 4750 
Q 2613 4750 3031 4423 
Q 3450 4097 3450 3541 
Q 3450 3153 3228 2886 
Q 3006 2619 2597 2516 
z
" transform="scale(0.015625)"/>
       </defs>
       <use xlink:href="#DejaVuSans-30"/>
       <use xlink:href="#DejaVuSans-2e" x="63.623047"/>
       <use xlink:href="#DejaVuSans-30" x="95.410156"/>
       <use xlink:href="#DejaVuSans-33" x="159.033203"/>
      </g>
     </g>
    </g>
    <g id="ytick_5">
     <g id="line2d_11">
      <g>
       <use xlink:href="#m723f53fae5" x="50.14375" y="52.142913" style="stroke: #000000; stroke-width: 0.8"/>
      </g>
     </g>
     <g id="text_12">
      <!-- 0.04 -->
      <g transform="translate(20.878125 55.942132) scale(0.1 -0.1)">
       <use xlink:href="#DejaVuSans-30"/>
       <use xlink:href="#DejaVuSans-2e" x="63.623047"/>
       <use xlink:href="#DejaVuSans-30" x="95.410156"/>
       <use xlink:href="#DejaVuSans-34" x="159.033203"/>
      </g>
     </g>
    </g>
    <g id="text_13">
     <!-- Frequency -->
     <g transform="translate(14.798438 181.203812) rotate(-90) scale(0.1 -0.1)">
      <defs>
       <path id="DejaVuSans-46" d="M 628 4666 
L 3309 4666 
L 3309 4134 
L 1259 4134 
L 1259 2759 
L 3109 2759 
L 3109 2228 
L 1259 2228 
L 1259 0 
L 628 0 
L 628 4666 
z
" transform="scale(0.015625)"/>
       <path id="DejaVuSans-72" d="M 2631 2963 
Q 2534 3019 2420 3045 
Q 2306 3072 2169 3072 
Q 1681 3072 1420 2755 
Q 1159 2438 1159 1844 
L 1159 0 
L 581 0 
L 581 3500 
L 1159 3500 
L 1159 2956 
Q 1341 3275 1631 3429 
Q 1922 3584 2338 3584 
Q 2397 3584 2469 3576 
Q 2541 3569 2628 3553 
L 2631 2963 
z
" transform="scale(0.015625)"/>
       <path id="DejaVuSans-71" d="M 947 1747 
Q 947 1113 1208 752 
Q 1469 391 1925 391 
Q 2381 391 2643 752 
Q 2906 1113 2906 1747 
Q 2906 2381 2643 2742 
Q 2381 3103 1925 3103 
Q 1469 3103 1208 2742 
Q 947 2381 947 1747 
z
M 2906 525 
Q 2725 213 2448 61 
Q 2172 -91 1784 -91 
Q 1150 -91 751 415 
Q 353 922 353 1747 
Q 353 2572 751 3078 
Q 1150 3584 1784 3584 
Q 2172 3584 2448 3432 
Q 2725 3281 2906 2969 
L 2906 3500 
L 3481 3500 
L 3481 -1331 
L 2906 -1331 
L 2906 525 
z
" transform="scale(0.015625)"/>
       <path id="DejaVuSans-6e" d="M 3513 2113 
L 3513 0 
L 2938 0 
L 2938 2094 
Q 2938 2591 2744 2837 
Q 2550 3084 2163 3084 
Q 1697 3084 1428 2787 
Q 1159 2491 1159 1978 
L 1159 0 
L 581 0 
L 581 3500 
L 1159 3500 
L 1159 2956 
Q 1366 3272 1645 3428 
Q 1925 3584 2291 3584 
Q 2894 3584 3203 3211 
Q 3513 2838 3513 2113 
z
" transform="scale(0.015625)"/>
       <path id="DejaVuSans-63" d="M 3122 3366 
L 3122 2828 
Q 2878 2963 2633 3030 
Q 2388 3097 2138 3097 
Q 1578 3097 1268 2742 
Q 959 2388 959 1747 
Q 959 1106 1268 751 
Q 1578 397 2138 397 
Q 2388 397 2633 464 
Q 2878 531 3122 666 
L 3122 134 
Q 2881 22 2623 -34 
Q 2366 -91 2075 -91 
Q 1284 -91 818 406 
Q 353 903 353 1747 
Q 353 2603 823 3093 
Q 1294 3584 2113 3584 
Q 2378 3584 2631 3529 
Q 2884 3475 3122 3366 
z
" transform="scale(0.015625)"/>
       <path id="DejaVuSans-79" d="M 2059 -325 
Q 1816 -950 1584 -1140 
Q 1353 -1331 966 -1331 
L 506 -1331 
L 506 -850 
L 844 -850 
Q 1081 -850 1212 -737 
Q 1344 -625 1503 -206 
L 1606 56 
L 191 3500 
L 800 3500 
L 1894 763 
L 2988 3500 
L 3597 3500 
L 2059 -325 
z
" transform="scale(0.015625)"/>
      </defs>
      <use xlink:href="#DejaVuSans-46"/>
      <use xlink:href="#DejaVuSans-72" x="50.269531"/>
      <use xlink:href="#DejaVuSans-65" x="89.132812"/>
      <use xlink:href="#DejaVuSans-71" x="150.65625"/>
      <use xlink:href="#DejaVuSans-75" x="214.132812"/>
      <use xlink:href="#DejaVuSans-65" x="277.511719"/>
      <use xlink:href="#DejaVuSans-6e" x="339.035156"/>
      <use xlink:href="#DejaVuSans-63" x="402.414062"/>
      <use xlink:href="#DejaVuSans-79" x="457.394531"/>
     </g>
    </g>
   </g>
   <g id="line2d_12">
    <path d="M 66.376477 268.733108 
L 69.655816 265.543261 
L 72.935155 249.874876 
L 76.214494 226.79451 
L 79.493833 200.147539 
L 82.773171 172.771041 
L 86.05251 146.678772 
L 89.331849 123.220977 
L 92.611188 103.221533 
L 95.890527 87.094812 
L 99.169866 74.944422 
L 102.449205 66.645848 
L 105.728543 61.914858 
L 109.007882 60.363384 
L 112.287221 61.544444 
L 115.56656 64.987553 
L 118.845899 70.225921 
L 122.125238 76.816639 
L 125.404576 84.354928 
L 128.683915 92.483414 
L 131.963254 100.897317 
L 135.242593 109.346309 
L 138.521932 117.633752 
L 141.801271 125.613908 
L 145.08061 133.187652 
L 148.359948 140.297158 
L 151.639287 146.919937 
L 154.918626 153.062573 
L 158.197965 158.754425 
L 161.477304 164.041524 
L 164.756643 168.98085 
L 168.035981 173.635116 
L 171.31532 178.068175 
L 174.594659 182.341099 
L 177.873998 186.508986 
L 181.153337 190.618488 
L 184.432676 194.706065 
L 187.712014 198.796924 
L 190.991353 202.904602 
L 194.270692 207.03113 
L 197.550031 211.167711 
L 200.82937 215.29584 
L 204.108709 219.388776 
L 207.388048 223.413283 
L 210.667386 227.331562 
L 213.946725 231.103282 
L 217.226064 234.687636 
L 220.505403 238.045343 
L 223.784742 241.140521 
L 227.064081 260.936021 
L 230.343419 260.936355 
L 233.622758 248.354436 
L 236.902097 250.024516 
L 240.181436 251.368972 
L 243.460775 252.403424 
L 246.740114 253.151688 
L 250.019452 253.645011 
L 253.298791 253.921011 
L 256.57813 254.02233 
L 259.857469 253.995074 
L 263.136808 253.887061 
L 266.416147 253.74596 
L 269.695486 253.617372 
L 272.974824 253.542937 
L 276.254163 253.558525 
L 279.533502 253.692596 
L 282.812841 253.964804 
L 286.09218 254.384918 
L 289.371519 254.95212 
L 292.650857 255.654756 
L 295.930196 256.470571 
L 299.209535 257.367492 
L 302.488874 258.304957 
L 305.768213 259.235823 
L 309.047552 260.108802 
L 312.32689 260.87142 
L 315.606229 261.4734 
L 318.885568 261.870383 
L 322.164907 262.027831 
L 325.444246 261.924947 
L 328.723585 261.558374 
L 332.002924 260.9454 
L 335.282262 260.126339 
L 338.561601 259.165689 
L 341.84094 258.151627 
L 345.120279 257.193298 
L 348.399618 256.415311 
L 351.678957 255.948748 
L 354.958295 255.91793 
L 358.237634 256.422068 
L 361.516973 257.510848 
L 364.796312 259.152872 
L 368.075651 261.195792 
L 371.35499 263.316835 
L 374.634329 264.962294 
L 377.913667 265.274441 
L 381.193006 263.004162 
L 384.472345 256.40748 
L 387.751684 243.123967 
L 391.031023 220.034894 
" clip-path="url(#p6fc1b5a364)" style="fill: none; stroke: #1f77b4; stroke-width: 1.5; stroke-linecap: square"/>
   </g>
   <g id="line2d_13">
    <path d="M 66.376477 262.260529 
L 69.655816 263.835232 
L 72.935154 261.05078 
L 76.214493 255.359038 
L 79.493831 247.92308 
L 82.77317 239.656893 
L 86.052508 231.261191 
L 89.331846 223.255586 
L 92.611185 216.007393 
L 95.890523 209.757295 
L 99.169862 204.642116 
L 102.4492 200.714903 
L 105.728539 197.962554 
L 109.007877 196.321169 
L 112.287216 195.689328 
L 115.566554 195.939477 
L 118.845893 196.927583 
L 122.125231 198.501235 
L 125.404569 200.506331 
L 128.683908 202.792504 
L 131.963246 205.217413 
L 135.242585 207.650036 
L 138.521923 209.973078 
L 141.801262 212.084609 
L 145.0806 213.899023 
L 148.359939 215.347436 
L 151.639277 216.377586 
L 154.918615 216.95334 
L 158.197954 217.053866 
L 161.477292 216.672539 
L 164.756631 215.815662 
L 168.035969 214.501029 
L 171.315308 212.756408 
L 174.594646 210.617964 
L 177.873985 208.128681 
L 181.153323 205.336809 
L 184.432662 202.294363 
L 187.712 199.0557 
L 190.991338 195.676203 
L 194.270677 192.211075 
L 197.550015 188.714265 
L 200.829354 185.237529 
L 204.108692 181.829642 
L 207.388031 178.535746 
L 210.667369 175.396851 
L 213.946708 172.449474 
L 217.226046 169.725417 
L 220.505385 167.251674 
L 223.784723 165.050456 
L 227.064061 260.926769 
L 230.3434 260.926363 
L 233.622738 160.532783 
L 236.902077 159.398053 
L 240.181415 158.572271 
L 243.460754 158.062349 
L 246.740092 157.873216 
L 250.019431 158.007974 
L 253.298769 158.468011 
L 256.578107 159.253088 
L 259.857446 160.361392 
L 263.136784 161.789551 
L 266.416123 163.532623 
L 269.695461 165.584048 
L 272.9748 167.935579 
L 276.254138 170.577193 
L 279.533477 173.496984 
L 282.812815 176.681056 
L 286.092154 180.113417 
L 289.371492 183.775882 
L 292.65083 187.648001 
L 295.930169 191.707014 
L 299.209507 195.927845 
L 302.488846 200.283145 
L 305.768184 204.743386 
L 309.047523 209.277012 
L 312.326861 213.85066 
L 315.6062 218.429436 
L 318.885538 222.977253 
L 322.164877 227.457233 
L 325.444215 231.832144 
L 328.723553 236.064879 
L 332.002892 240.118939 
L 335.28223 243.958913 
L 338.561569 247.550906 
L 341.840907 250.862892 
L 345.120246 253.864929 
L 348.399584 256.529196 
L 351.678923 258.829778 
L 354.958261 260.742124 
L 358.2376 262.24209 
L 361.516938 263.304481 
L 364.796276 263.90096 
L 368.075615 263.997218 
L 371.354953 263.549246 
L 374.634292 262.498577 
L 377.91363 260.766298 
L 381.192969 258.245661 
L 384.472307 254.793075 
L 387.751646 250.217254 
L 391.030984 244.266258 
" clip-path="url(#p6fc1b5a364)" style="fill: none; stroke: #ff7f0e; stroke-width: 1.5; stroke-linecap: square"/>
   </g>
   <g id="line2d_14">
    <path d="M 66.376477 260.083678 
L 69.655816 263.796224 
L 72.935154 262.425275 
L 76.214493 257.394696 
L 79.493831 249.910757 
L 82.77317 240.979511 
L 86.052508 231.424252 
L 89.331846 221.902853 
L 92.611185 212.92481 
L 95.890523 204.867848 
L 99.169862 197.993963 
L 102.4492 192.464782 
L 105.728539 188.356158 
L 109.007877 185.671932 
L 112.287216 184.356793 
L 115.566554 184.308196 
L 118.845893 185.387322 
L 122.125231 187.429036 
L 125.404569 190.250874 
L 128.683908 193.661026 
L 131.963246 197.465355 
L 135.242585 201.473471 
L 138.521923 205.503874 
L 141.801262 209.388224 
L 145.0806 212.974764 
L 148.359939 216.130953 
L 151.639277 218.745352 
L 154.918615 220.728829 
L 158.197954 222.015122 
L 161.477292 222.560844 
L 164.756631 222.344962 
L 168.035969 221.367836 
L 171.315308 219.649866 
L 174.594646 217.229806 
L 177.873985 214.162812 
L 181.153323 210.518283 
L 184.432662 206.37754 
L 187.712 201.831411 
L 190.991338 196.977764 
L 194.270677 191.91904 
L 197.550015 186.759832 
L 200.829354 181.604546 
L 204.108692 176.555193 
L 207.388031 171.709334 
L 210.667369 167.15821 
L 213.946708 162.985088 
L 217.226046 159.26384 
L 220.505385 156.057767 
L 223.784723 153.41869 
L 227.064061 260.928162 
L 230.3434 260.927707 
L 233.622738 149.863427 
L 236.902077 149.539747 
L 240.181415 149.831331 
L 243.460754 150.728588 
L 246.740092 152.212406 
L 250.019431 154.254692 
L 253.298769 156.819031 
L 256.578107 159.861489 
L 259.857446 163.331518 
L 263.136784 167.172973 
L 266.416123 171.325216 
L 269.695461 175.724311 
L 272.9748 180.30428 
L 276.254138 184.99841 
L 279.533477 189.740603 
L 282.812815 194.466739 
L 286.092154 199.116039 
L 289.371492 203.632408 
L 292.65083 207.965727 
L 295.930169 212.073082 
L 299.209507 215.919879 
L 302.488846 219.480847 
L 305.768184 222.740854 
L 309.047523 225.695542 
L 312.326861 228.351703 
L 315.6062 230.727374 
L 318.885538 232.85159 
L 322.164877 234.763753 
L 325.444215 236.512542 
L 328.723553 238.15431 
L 332.002892 239.750904 
L 335.28223 241.366811 
L 338.561569 243.065569 
L 341.840907 244.905339 
L 345.120246 246.933544 
L 348.399584 249.180467 
L 351.678923 251.6517 
L 354.958261 254.31931 
L 358.2376 257.111588 
L 361.516938 259.901254 
L 364.796276 262.491932 
L 368.075615 264.602761 
L 371.354953 265.850937 
L 374.634292 265.732007 
L 377.91363 263.597706 
L 381.192969 258.631117 
L 384.472307 249.818916 
L 387.751646 235.920462 
L 391.030984 215.433447 
" clip-path="url(#p6fc1b5a364)" style="fill: none; stroke: #2ca02c; stroke-width: 1.5; stroke-linecap: square"/>
   </g>
   <g id="line2d_15">
    <path d="M 66.376477 253.409572 
L 69.655816 265.452383 
L 72.935154 263.650111 
L 76.214493 252.969586 
L 79.493831 237.22966 
L 82.77317 219.293675 
L 86.052508 201.237809 
L 89.331846 184.497542 
L 92.611185 169.994335 
L 95.890523 158.244477 
L 99.169862 149.451903 
L 102.4492 143.586685 
L 105.728539 140.450753 
L 109.007877 139.732286 
L 112.287216 141.05012 
L 115.566554 143.989386 
L 118.845893 148.129515 
L 122.125231 153.065627 
L 125.404569 158.424255 
L 128.683908 163.87425 
L 131.963246 169.133634 
L 135.242585 173.9731 
L 138.521923 178.216784 
L 141.801262 181.74085 
L 145.0806 184.470397 
L 148.359939 186.375099 
L 151.639277 187.463974 
L 154.918615 187.779594 
L 158.197954 187.392016 
L 161.477292 186.392674 
L 164.756631 184.888416 
L 168.035969 182.995852 
L 171.315308 180.836131 
L 174.594646 178.530241 
L 177.873985 176.194899 
L 181.153323 173.939074 
L 184.432662 171.861156 
L 187.712 170.046784 
L 190.991338 168.567308 
L 194.270677 167.478854 
L 197.550015 166.821971 
L 200.829354 166.621775 
L 204.108692 166.888574 
L 207.388031 167.618876 
L 210.667369 168.796732 
L 213.946708 170.395343 
L 217.226046 172.378857 
L 220.505385 174.704293 
L 223.784723 177.323522 
L 227.064061 260.928919 
L 230.3434 260.928646 
L 233.622738 187.137185 
L 236.902077 190.350988 
L 240.181415 193.572268 
L 243.460754 196.764619 
L 246.740092 199.898921 
L 250.019431 202.953732 
L 253.298769 205.915344 
L 256.578107 208.777491 
L 259.857446 211.540767 
L 263.136784 214.211744 
L 266.416123 216.801857 
L 269.695461 219.326093 
L 272.9748 221.801534 
L 276.254138 224.245816 
L 279.533477 226.675582 
L 282.812815 229.104969 
L 286.092154 231.544222 
L 289.371492 233.998492 
L 292.65083 236.466892 
L 295.930169 238.941856 
L 299.209507 241.408878 
L 302.488846 243.846658 
L 305.768184 246.227698 
L 309.047523 248.51936 
L 312.326861 250.685396 
L 315.6062 252.687912 
L 318.885538 254.489743 
L 322.164877 256.057143 
L 325.444215 257.362703 
L 328.723553 258.388346 
L 332.002892 259.128225 
L 335.28223 259.591294 
L 338.561569 259.803284 
L 341.840907 259.807764 
L 345.120246 259.665895 
L 348.399584 259.454437 
L 351.678923 259.261506 
L 354.958261 259.179482 
L 358.2376 259.294415 
L 361.516938 259.671194 
L 364.796276 260.333614 
L 368.075615 261.238453 
L 371.354953 262.242493 
L 374.634292 263.061367 
L 377.91363 263.218977 
L 381.192969 261.98611 
L 384.472307 258.30675 
L 387.751646 250.710466 
L 391.030984 237.209086 
" clip-path="url(#p6fc1b5a364)" style="fill: none; stroke: #d62728; stroke-width: 1.5; stroke-linecap: square"/>
   </g>
   <g id="line2d_16">
    <path d="M 66.376477 276.334125 
L 69.655816 269.895599 
L 72.935155 246.320697 
L 76.214493 213.437147 
L 79.493832 177.042517 
L 82.773171 141.275056 
L 86.052509 108.934461 
L 89.331848 81.757564 
L 92.611186 60.653547 
L 95.890525 45.902989 
L 99.169864 37.324715 
L 102.449202 34.414125 
L 105.728541 36.456381 
L 109.00788 42.617564 
L 112.287218 52.016655 
L 115.566557 63.780935 
L 118.845896 77.087178 
L 122.125234 91.190788 
L 125.404573 105.444813 
L 128.683912 119.310585 
L 131.96325 132.361545 
L 135.242589 144.281639 
L 138.521928 154.859508 
L 141.801266 163.979559 
L 145.080605 171.610829 
L 148.359943 177.794469 
L 151.639282 182.630522 
L 154.918621 186.264565 
L 158.197959 188.874704 
L 161.477298 190.659274 
L 164.756637 191.825571 
L 168.035975 192.579814 
L 171.315314 193.1185 
L 174.594653 193.621235 
L 177.873991 194.245093 
L 181.15333 195.12048 
L 184.432669 196.348462 
L 187.712007 197.999484 
L 190.991346 200.113352 
L 194.270685 202.700367 
L 197.550023 205.743443 
L 200.829362 209.201073 
L 204.1087 213.010947 
L 207.388039 217.094075 
L 210.667378 221.359228 
L 213.946716 225.707542 
L 217.226055 230.037114 
L 220.505394 234.247452 
L 223.784732 238.243635 
L 227.064071 260.934981 
L 230.34341 260.93494 
L 233.622748 247.887267 
L 236.902087 249.968598 
L 240.181426 251.580136 
L 243.460764 252.73268 
L 246.740103 253.454489 
L 250.019442 253.789815 
L 253.29878 253.796801 
L 256.578119 253.544807 
L 259.857457 253.111273 
L 263.136796 252.578201 
L 266.416135 252.02841 
L 269.695473 251.541678 
L 272.974812 251.190921 
L 276.254151 251.038563 
L 279.533489 251.133251 
L 282.812828 251.507056 
L 286.092167 252.173318 
L 289.371505 253.125265 
L 292.650844 254.335531 
L 295.930183 255.756665 
L 299.209521 257.322723 
L 302.48886 258.951965 
L 305.768199 260.550685 
L 309.047537 262.018112 
L 312.326876 263.252319 
L 315.606214 264.156962 
L 318.885553 264.648656 
L 322.164892 264.664685 
L 325.44423 264.170683 
L 328.723569 263.167809 
L 332.002908 261.698866 
L 335.282246 259.852676 
L 338.561585 257.765929 
L 341.840924 255.621572 
L 345.120262 253.642678 
L 348.399601 252.08058 
L 351.67894 251.195893 
L 354.958278 251.230873 
L 358.237617 252.371375 
L 361.516956 254.696479 
L 364.796294 258.113643 
L 368.075633 262.277006 
L 371.354971 266.486255 
L 374.63431 269.563187 
L 377.913649 269.702862 
L 381.192987 264.295948 
L 384.472326 249.718578 
L 387.751665 221.085715 
L 391.031003 171.963721 
" clip-path="url(#p6fc1b5a364)" style="fill: none; stroke: #9467bd; stroke-width: 1.5; stroke-linecap: square"/>
   </g>
   <g id="line2d_17">
    <path d="M 66.376477 262.854669 
L 69.655816 262.715114 
L 72.935155 259.887811 
L 76.214494 254.970725 
L 79.493833 248.547305 
L 82.773171 241.166118 
L 86.05251 233.325866 
L 89.331849 225.465046 
L 92.611188 217.955558 
L 95.890527 211.099654 
L 99.169866 205.129649 
L 102.449205 200.209895 
L 105.728543 196.440547 
L 109.007882 193.862722 
L 112.287221 192.464677 
L 115.56656 192.188693 
L 118.845899 192.93837 
L 122.125238 194.586107 
L 125.404576 196.980543 
L 128.683915 199.953782 
L 131.963254 203.328274 
L 135.242593 206.923201 
L 138.521932 210.56031 
L 141.801271 214.069093 
L 145.08061 217.291286 
L 148.359948 220.084639 
L 151.639287 222.325964 
L 154.918626 223.913444 
L 158.197965 224.768233 
L 161.477304 224.835366 
L 164.756643 224.084028 
L 168.035981 222.507205 
L 171.31532 220.120807 
L 174.594659 216.962283 
L 177.873998 213.088821 
L 181.153337 208.57518 
L 184.432676 203.511238 
L 187.712014 197.999307 
L 190.991353 192.151302 
L 194.270692 186.085815 
L 197.550031 179.925172 
L 200.82937 173.792521 
L 204.108709 167.809025 
L 207.388048 162.091203 
L 210.667386 156.748463 
L 213.946725 151.880892 
L 217.226064 147.577306 
L 220.505403 143.913632 
L 223.784742 140.951603 
L 227.064081 260.927261 
L 230.343419 260.926968 
L 233.622758 136.927852 
L 236.902097 136.919356 
L 240.181436 137.679219 
L 243.460775 139.184772 
L 246.740114 141.400356 
L 250.019452 144.278411 
L 253.298791 147.760812 
L 256.57813 151.7804 
L 259.857469 156.262695 
L 263.136808 161.127747 
L 266.416147 166.292082 
L 269.695486 171.670715 
L 272.974824 177.179171 
L 276.254163 182.735477 
L 279.533502 188.262082 
L 282.812841 193.687648 
L 286.09218 198.94868 
L 289.371519 203.990939 
L 292.650857 208.770601 
L 295.930196 213.255125 
L 299.209535 217.423787 
L 302.488874 221.267862 
L 305.768213 224.790411 
L 309.047552 228.005675 
L 312.32689 230.93805 
L 315.606229 233.620659 
L 318.885568 236.093509 
L 322.164907 238.401276 
L 325.444246 240.590738 
L 328.723585 242.707918 
L 332.002924 244.794981 
L 335.282262 246.886989 
L 338.561601 249.008598 
L 341.84094 251.170829 
L 345.120279 253.368045 
L 348.399618 255.575305 
L 351.678957 257.746284 
L 354.958295 259.811979 
L 358.237634 261.680443 
L 361.516973 263.237827 
L 364.796312 264.351035 
L 368.075651 264.872338 
L 371.35499 264.646329 
L 374.634329 263.519625 
L 377.913667 261.353789 
L 381.193006 258.041962 
L 384.472345 253.52975 
L 387.751684 247.840971 
L 391.031023 241.108874 
" clip-path="url(#p6fc1b5a364)" style="fill: none; stroke: #8c564b; stroke-width: 1.5; stroke-linecap: square"/>
   </g>
   <g id="patch_3">
    <path d="M 50.14375 288.430125 
L 50.14375 22.318125 
" style="fill: none; stroke: #000000; stroke-width: 0.8; stroke-linejoin: miter; stroke-linecap: square"/>
   </g>
   <g id="patch_4">
    <path d="M 407.26375 288.430125 
L 407.26375 22.318125 
" style="fill: none; stroke: #000000; stroke-width: 0.8; stroke-linejoin: miter; stroke-linecap: square"/>
   </g>
   <g id="patch_5">
    <path d="M 50.14375 288.430125 
L 407.26375 288.430125 
" style="fill: none; stroke: #000000; stroke-width: 0.8; stroke-linejoin: miter; stroke-linecap: square"/>
   </g>
   <g id="patch_6">
    <path d="M 50.14375 22.318125 
L 407.26375 22.318125 
" style="fill: none; stroke: #000000; stroke-width: 0.8; stroke-linejoin: miter; stroke-linecap: square"/>
   </g>
   <g id="text_14">
    <!-- FA - xtract_prob_Superior_Longitudinal_Fasciculus_2_R -->
    <g transform="translate(65.695 16.318125) scale(0.12 -0.12)">
     <defs>
      <path id="DejaVuSans-41" d="M 2188 4044 
L 1331 1722 
L 3047 1722 
L 2188 4044 
z
M 1831 4666 
L 2547 4666 
L 4325 0 
L 3669 0 
L 3244 1197 
L 1141 1197 
L 716 0 
L 50 0 
L 1831 4666 
z
" transform="scale(0.015625)"/>
      <path id="DejaVuSans-2d" d="M 313 2009 
L 1997 2009 
L 1997 1497 
L 313 1497 
L 313 2009 
z
" transform="scale(0.015625)"/>
      <path id="DejaVuSans-74" d="M 1172 4494 
L 1172 3500 
L 2356 3500 
L 2356 3053 
L 1172 3053 
L 1172 1153 
Q 1172 725 1289 603 
Q 1406 481 1766 481 
L 2356 481 
L 2356 0 
L 1766 0 
Q 1100 0 847 248 
Q 594 497 594 1153 
L 594 3053 
L 172 3053 
L 172 3500 
L 594 3500 
L 594 4494 
L 1172 4494 
z
" transform="scale(0.015625)"/>
      <path id="DejaVuSans-5f" d="M 3263 -1063 
L 3263 -1509 
L -63 -1509 
L -63 -1063 
L 3263 -1063 
z
" transform="scale(0.015625)"/>
      <path id="DejaVuSans-70" d="M 1159 525 
L 1159 -1331 
L 581 -1331 
L 581 3500 
L 1159 3500 
L 1159 2969 
Q 1341 3281 1617 3432 
Q 1894 3584 2278 3584 
Q 2916 3584 3314 3078 
Q 3713 2572 3713 1747 
Q 3713 922 3314 415 
Q 2916 -91 2278 -91 
Q 1894 -91 1617 61 
Q 1341 213 1159 525 
z
M 3116 1747 
Q 3116 2381 2855 2742 
Q 2594 3103 2138 3103 
Q 1681 3103 1420 2742 
Q 1159 2381 1159 1747 
Q 1159 1113 1420 752 
Q 1681 391 2138 391 
Q 2594 391 2855 752 
Q 3116 1113 3116 1747 
z
" transform="scale(0.015625)"/>
      <path id="DejaVuSans-6f" d="M 1959 3097 
Q 1497 3097 1228 2736 
Q 959 2375 959 1747 
Q 959 1119 1226 758 
Q 1494 397 1959 397 
Q 2419 397 2687 759 
Q 2956 1122 2956 1747 
Q 2956 2369 2687 2733 
Q 2419 3097 1959 3097 
z
M 1959 3584 
Q 2709 3584 3137 3096 
Q 3566 2609 3566 1747 
Q 3566 888 3137 398 
Q 2709 -91 1959 -91 
Q 1206 -91 779 398 
Q 353 888 353 1747 
Q 353 2609 779 3096 
Q 1206 3584 1959 3584 
z
" transform="scale(0.015625)"/>
      <path id="DejaVuSans-62" d="M 3116 1747 
Q 3116 2381 2855 2742 
Q 2594 3103 2138 3103 
Q 1681 3103 1420 2742 
Q 1159 2381 1159 1747 
Q 1159 1113 1420 752 
Q 1681 391 2138 391 
Q 2594 391 2855 752 
Q 3116 1113 3116 1747 
z
M 1159 2969 
Q 1341 3281 1617 3432 
Q 1894 3584 2278 3584 
Q 2916 3584 3314 3078 
Q 3713 2572 3713 1747 
Q 3713 922 3314 415 
Q 2916 -91 2278 -91 
Q 1894 -91 1617 61 
Q 1341 213 1159 525 
L 1159 0 
L 581 0 
L 581 4863 
L 1159 4863 
L 1159 2969 
z
" transform="scale(0.015625)"/>
      <path id="DejaVuSans-53" d="M 3425 4513 
L 3425 3897 
Q 3066 4069 2747 4153 
Q 2428 4238 2131 4238 
Q 1616 4238 1336 4038 
Q 1056 3838 1056 3469 
Q 1056 3159 1242 3001 
Q 1428 2844 1947 2747 
L 2328 2669 
Q 3034 2534 3370 2195 
Q 3706 1856 3706 1288 
Q 3706 609 3251 259 
Q 2797 -91 1919 -91 
Q 1588 -91 1214 -16 
Q 841 59 441 206 
L 441 856 
Q 825 641 1194 531 
Q 1563 422 1919 422 
Q 2459 422 2753 634 
Q 3047 847 3047 1241 
Q 3047 1584 2836 1778 
Q 2625 1972 2144 2069 
L 1759 2144 
Q 1053 2284 737 2584 
Q 422 2884 422 3419 
Q 422 4038 858 4394 
Q 1294 4750 2059 4750 
Q 2388 4750 2728 4690 
Q 3069 4631 3425 4513 
z
" transform="scale(0.015625)"/>
      <path id="DejaVuSans-4c" d="M 628 4666 
L 1259 4666 
L 1259 531 
L 3531 531 
L 3531 0 
L 628 0 
L 628 4666 
z
" transform="scale(0.015625)"/>
      <path id="DejaVuSans-67" d="M 2906 1791 
Q 2906 2416 2648 2759 
Q 2391 3103 1925 3103 
Q 1463 3103 1205 2759 
Q 947 2416 947 1791 
Q 947 1169 1205 825 
Q 1463 481 1925 481 
Q 2391 481 2648 825 
Q 2906 1169 2906 1791 
z
M 3481 434 
Q 3481 -459 3084 -895 
Q 2688 -1331 1869 -1331 
Q 1566 -1331 1297 -1286 
Q 1028 -1241 775 -1147 
L 775 -588 
Q 1028 -725 1275 -790 
Q 1522 -856 1778 -856 
Q 2344 -856 2625 -561 
Q 2906 -266 2906 331 
L 2906 616 
Q 2728 306 2450 153 
Q 2172 0 1784 0 
Q 1141 0 747 490 
Q 353 981 353 1791 
Q 353 2603 747 3093 
Q 1141 3584 1784 3584 
Q 2172 3584 2450 3431 
Q 2728 3278 2906 2969 
L 2906 3500 
L 3481 3500 
L 3481 434 
z
" transform="scale(0.015625)"/>
      <path id="DejaVuSans-64" d="M 2906 2969 
L 2906 4863 
L 3481 4863 
L 3481 0 
L 2906 0 
L 2906 525 
Q 2725 213 2448 61 
Q 2172 -91 1784 -91 
Q 1150 -91 751 415 
Q 353 922 353 1747 
Q 353 2572 751 3078 
Q 1150 3584 1784 3584 
Q 2172 3584 2448 3432 
Q 2725 3281 2906 2969 
z
M 947 1747 
Q 947 1113 1208 752 
Q 1469 391 1925 391 
Q 2381 391 2643 752 
Q 2906 1113 2906 1747 
Q 2906 2381 2643 2742 
Q 2381 3103 1925 3103 
Q 1469 3103 1208 2742 
Q 947 2381 947 1747 
z
" transform="scale(0.015625)"/>
      <path id="DejaVuSans-52" d="M 2841 2188 
Q 3044 2119 3236 1894 
Q 3428 1669 3622 1275 
L 4263 0 
L 3584 0 
L 2988 1197 
Q 2756 1666 2539 1819 
Q 2322 1972 1947 1972 
L 1259 1972 
L 1259 0 
L 628 0 
L 628 4666 
L 2053 4666 
Q 2853 4666 3247 4331 
Q 3641 3997 3641 3322 
Q 3641 2881 3436 2590 
Q 3231 2300 2841 2188 
z
M 1259 4147 
L 1259 2491 
L 2053 2491 
Q 2509 2491 2742 2702 
Q 2975 2913 2975 3322 
Q 2975 3731 2742 3939 
Q 2509 4147 2053 4147 
L 1259 4147 
z
" transform="scale(0.015625)"/>
     </defs>
     <use xlink:href="#DejaVuSans-46"/>
     <use xlink:href="#DejaVuSans-41" x="48.394531"/>
     <use xlink:href="#DejaVuSans-20" x="116.802734"/>
     <use xlink:href="#DejaVuSans-2d" x="148.589844"/>
     <use xlink:href="#DejaVuSans-20" x="184.673828"/>
     <use xlink:href="#DejaVuSans-78" x="216.460938"/>
     <use xlink:href="#DejaVuSans-74" x="275.640625"/>
     <use xlink:href="#DejaVuSans-72" x="314.849609"/>
     <use xlink:href="#DejaVuSans-61" x="355.962891"/>
     <use xlink:href="#DejaVuSans-63" x="417.242188"/>
     <use xlink:href="#DejaVuSans-74" x="472.222656"/>
     <use xlink:href="#DejaVuSans-5f" x="511.431641"/>
     <use xlink:href="#DejaVuSans-70" x="561.431641"/>
     <use xlink:href="#DejaVuSans-72" x="624.908203"/>
     <use xlink:href="#DejaVuSans-6f" x="663.771484"/>
     <use xlink:href="#DejaVuSans-62" x="724.953125"/>
     <use xlink:href="#DejaVuSans-5f" x="788.429688"/>
     <use xlink:href="#DejaVuSans-53" x="838.429688"/>
     <use xlink:href="#DejaVuSans-75" x="901.90625"/>
     <use xlink:href="#DejaVuSans-70" x="965.285156"/>
     <use xlink:href="#DejaVuSans-65" x="1028.761719"/>
     <use xlink:href="#DejaVuSans-72" x="1090.285156"/>
     <use xlink:href="#DejaVuSans-69" x="1131.398438"/>
     <use xlink:href="#DejaVuSans-6f" x="1159.181641"/>
     <use xlink:href="#DejaVuSans-72" x="1220.363281"/>
     <use xlink:href="#DejaVuSans-5f" x="1261.476562"/>
     <use xlink:href="#DejaVuSans-4c" x="1311.476562"/>
     <use xlink:href="#DejaVuSans-6f" x="1365.439453"/>
     <use xlink:href="#DejaVuSans-6e" x="1426.621094"/>
     <use xlink:href="#DejaVuSans-67" x="1490"/>
     <use xlink:href="#DejaVuSans-69" x="1553.476562"/>
     <use xlink:href="#DejaVuSans-74" x="1581.259766"/>
     <use xlink:href="#DejaVuSans-75" x="1620.46875"/>
     <use xlink:href="#DejaVuSans-64" x="1683.847656"/>
     <use xlink:href="#DejaVuSans-69" x="1747.324219"/>
     <use xlink:href="#DejaVuSans-6e" x="1775.107422"/>
     <use xlink:href="#DejaVuSans-61" x="1838.486328"/>
     <use xlink:href="#DejaVuSans-6c" x="1899.765625"/>
     <use xlink:href="#DejaVuSans-5f" x="1927.548828"/>
     <use xlink:href="#DejaVuSans-46" x="1977.548828"/>
     <use xlink:href="#DejaVuSans-61" x="2025.943359"/>
     <use xlink:href="#DejaVuSans-73" x="2087.222656"/>
     <use xlink:href="#DejaVuSans-63" x="2139.322266"/>
     <use xlink:href="#DejaVuSans-69" x="2194.302734"/>
     <use xlink:href="#DejaVuSans-63" x="2222.085938"/>
     <use xlink:href="#DejaVuSans-75" x="2277.066406"/>
     <use xlink:href="#DejaVuSans-6c" x="2340.445312"/>
     <use xlink:href="#DejaVuSans-75" x="2368.228516"/>
     <use xlink:href="#DejaVuSans-73" x="2431.607422"/>
     <use xlink:href="#DejaVuSans-5f" x="2483.707031"/>
     <use xlink:href="#DejaVuSans-32" x="2533.707031"/>
     <use xlink:href="#DejaVuSans-5f" x="2597.330078"/>
     <use xlink:href="#DejaVuSans-52" x="2647.330078"/>
    </g>
   </g>
   <g id="legend_1">
    <g id="patch_7">
     <path d="M 449.97575 146.666825 
L 547.832 146.666825 
Q 549.832 146.666825 549.832 144.666825 
L 549.832 55.929325 
Q 549.832 53.929325 547.832 53.929325 
L 449.97575 53.929325 
Q 447.97575 53.929325 447.97575 55.929325 
L 447.97575 144.666825 
Q 447.97575 146.666825 449.97575 146.666825 
z
" style="fill: #ffffff; opacity: 0.8; stroke: #cccccc; stroke-linejoin: miter"/>
    </g>
    <g id="line2d_18">
     <path d="M 451.97575 62.027762 
L 461.97575 62.027762 
L 471.97575 62.027762 
" style="fill: none; stroke: #1f77b4; stroke-width: 1.5; stroke-linecap: square"/>
    </g>
    <g id="text_15">
     <!-- 20_06_02_E3 -->
     <g transform="translate(479.97575 65.527762) scale(0.1 -0.1)">
      <defs>
       <path id="DejaVuSans-45" d="M 628 4666 
L 3578 4666 
L 3578 4134 
L 1259 4134 
L 1259 2753 
L 3481 2753 
L 3481 2222 
L 1259 2222 
L 1259 531 
L 3634 531 
L 3634 0 
L 628 0 
L 628 4666 
z
" transform="scale(0.015625)"/>
      </defs>
      <use xlink:href="#DejaVuSans-32"/>
      <use xlink:href="#DejaVuSans-30" x="63.623047"/>
      <use xlink:href="#DejaVuSans-5f" x="127.246094"/>
      <use xlink:href="#DejaVuSans-30" x="177.246094"/>
      <use xlink:href="#DejaVuSans-36" x="240.869141"/>
      <use xlink:href="#DejaVuSans-5f" x="304.492188"/>
      <use xlink:href="#DejaVuSans-30" x="354.492188"/>
      <use xlink:href="#DejaVuSans-32" x="418.115234"/>
      <use xlink:href="#DejaVuSans-5f" x="481.738281"/>
      <use xlink:href="#DejaVuSans-45" x="531.738281"/>
      <use xlink:href="#DejaVuSans-33" x="594.921875"/>
     </g>
    </g>
    <g id="line2d_19">
     <path d="M 451.97575 76.984013 
L 461.97575 76.984013 
L 471.97575 76.984013 
" style="fill: none; stroke: #ff7f0e; stroke-width: 1.5; stroke-linecap: square"/>
    </g>
    <g id="text_16">
     <!-- 20_05_01_E3 -->
     <g transform="translate(479.97575 80.484013) scale(0.1 -0.1)">
      <defs>
       <path id="DejaVuSans-35" d="M 691 4666 
L 3169 4666 
L 3169 4134 
L 1269 4134 
L 1269 2991 
Q 1406 3038 1543 3061 
Q 1681 3084 1819 3084 
Q 2600 3084 3056 2656 
Q 3513 2228 3513 1497 
Q 3513 744 3044 326 
Q 2575 -91 1722 -91 
Q 1428 -91 1123 -41 
Q 819 9 494 109 
L 494 744 
Q 775 591 1075 516 
Q 1375 441 1709 441 
Q 2250 441 2565 725 
Q 2881 1009 2881 1497 
Q 2881 1984 2565 2268 
Q 2250 2553 1709 2553 
Q 1456 2553 1204 2497 
Q 953 2441 691 2322 
L 691 4666 
z
" transform="scale(0.015625)"/>
      </defs>
      <use xlink:href="#DejaVuSans-32"/>
      <use xlink:href="#DejaVuSans-30" x="63.623047"/>
      <use xlink:href="#DejaVuSans-5f" x="127.246094"/>
      <use xlink:href="#DejaVuSans-30" x="177.246094"/>
      <use xlink:href="#DejaVuSans-35" x="240.869141"/>
      <use xlink:href="#DejaVuSans-5f" x="304.492188"/>
      <use xlink:href="#DejaVuSans-30" x="354.492188"/>
      <use xlink:href="#DejaVuSans-31" x="418.115234"/>
      <use xlink:href="#DejaVuSans-5f" x="481.738281"/>
      <use xlink:href="#DejaVuSans-45" x="531.738281"/>
      <use xlink:href="#DejaVuSans-33" x="594.921875"/>
     </g>
    </g>
    <g id="line2d_20">
     <path d="M 451.97575 91.940262 
L 461.97575 91.940262 
L 471.97575 91.940262 
" style="fill: none; stroke: #2ca02c; stroke-width: 1.5; stroke-linecap: square"/>
    </g>
    <g id="text_17">
     <!-- 20_02_02_E3 -->
     <g transform="translate(479.97575 95.440262) scale(0.1 -0.1)">
      <use xlink:href="#DejaVuSans-32"/>
      <use xlink:href="#DejaVuSans-30" x="63.623047"/>
      <use xlink:href="#DejaVuSans-5f" x="127.246094"/>
      <use xlink:href="#DejaVuSans-30" x="177.246094"/>
      <use xlink:href="#DejaVuSans-32" x="240.869141"/>
      <use xlink:href="#DejaVuSans-5f" x="304.492188"/>
      <use xlink:href="#DejaVuSans-30" x="354.492188"/>
      <use xlink:href="#DejaVuSans-32" x="418.115234"/>
      <use xlink:href="#DejaVuSans-5f" x="481.738281"/>
      <use xlink:href="#DejaVuSans-45" x="531.738281"/>
      <use xlink:href="#DejaVuSans-33" x="594.921875"/>
     </g>
    </g>
    <g id="line2d_21">
     <path d="M 451.97575 106.896513 
L 461.97575 106.896513 
L 471.97575 106.896513 
" style="fill: none; stroke: #d62728; stroke-width: 1.5; stroke-linecap: square"/>
    </g>
    <g id="text_18">
     <!-- 20_10_02_E3 -->
     <g transform="translate(479.97575 110.396513) scale(0.1 -0.1)">
      <use xlink:href="#DejaVuSans-32"/>
      <use xlink:href="#DejaVuSans-30" x="63.623047"/>
      <use xlink:href="#DejaVuSans-5f" x="127.246094"/>
      <use xlink:href="#DejaVuSans-31" x="177.246094"/>
      <use xlink:href="#DejaVuSans-30" x="240.869141"/>
      <use xlink:href="#DejaVuSans-5f" x="304.492188"/>
      <use xlink:href="#DejaVuSans-30" x="354.492188"/>
      <use xlink:href="#DejaVuSans-32" x="418.115234"/>
      <use xlink:href="#DejaVuSans-5f" x="481.738281"/>
      <use xlink:href="#DejaVuSans-45" x="531.738281"/>
      <use xlink:href="#DejaVuSans-33" x="594.921875"/>
     </g>
    </g>
    <g id="line2d_22">
     <path d="M 451.97575 121.852762 
L 461.97575 121.852762 
L 471.97575 121.852762 
" style="fill: none; stroke: #9467bd; stroke-width: 1.5; stroke-linecap: square"/>
    </g>
    <g id="text_19">
     <!-- 20_08_02_E3 -->
     <g transform="translate(479.97575 125.352762) scale(0.1 -0.1)">
      <use xlink:href="#DejaVuSans-32"/>
      <use xlink:href="#DejaVuSans-30" x="63.623047"/>
      <use xlink:href="#DejaVuSans-5f" x="127.246094"/>
      <use xlink:href="#DejaVuSans-30" x="177.246094"/>
      <use xlink:href="#DejaVuSans-38" x="240.869141"/>
      <use xlink:href="#DejaVuSans-5f" x="304.492188"/>
      <use xlink:href="#DejaVuSans-30" x="354.492188"/>
      <use xlink:href="#DejaVuSans-32" x="418.115234"/>
      <use xlink:href="#DejaVuSans-5f" x="481.738281"/>
      <use xlink:href="#DejaVuSans-45" x="531.738281"/>
      <use xlink:href="#DejaVuSans-33" x="594.921875"/>
     </g>
    </g>
    <g id="line2d_23">
     <path d="M 451.97575 136.809012 
L 461.97575 136.809012 
L 471.97575 136.809012 
" style="fill: none; stroke: #8c564b; stroke-width: 1.5; stroke-linecap: square"/>
    </g>
    <g id="text_20">
     <!-- 20_11_02_E3 -->
     <g transform="translate(479.97575 140.309012) scale(0.1 -0.1)">
      <use xlink:href="#DejaVuSans-32"/>
      <use xlink:href="#DejaVuSans-30" x="63.623047"/>
      <use xlink:href="#DejaVuSans-5f" x="127.246094"/>
      <use xlink:href="#DejaVuSans-31" x="177.246094"/>
      <use xlink:href="#DejaVuSans-31" x="240.869141"/>
      <use xlink:href="#DejaVuSans-5f" x="304.492188"/>
      <use xlink:href="#DejaVuSans-30" x="354.492188"/>
      <use xlink:href="#DejaVuSans-32" x="418.115234"/>
      <use xlink:href="#DejaVuSans-5f" x="481.738281"/>
      <use xlink:href="#DejaVuSans-45" x="531.738281"/>
      <use xlink:href="#DejaVuSans-33" x="594.921875"/>
     </g>
    </g>
   </g>
  </g>
 </g>
 <defs>
  <clipPath id="p6fc1b5a364">
   <rect x="50.14375" y="22.318125" width="357.12" height="266.112"/>
  </clipPath>
 </defs>
</svg>
