<?xml version="1.0" encoding="utf-8" standalone="no"?>
<!DOCTYPE svg PUBLIC "-//W3C//DTD SVG 1.1//EN"
  "http://www.w3.org/Graphics/SVG/1.1/DTD/svg11.dtd">
<svg xmlns:xlink="http://www.w3.org/1999/xlink" width="565.411687pt" height="325.986375pt" viewBox="0 0 565.411687 325.986375" xmlns="http://www.w3.org/2000/svg" version="1.1">
 <metadata>
  <rdf:RDF xmlns:dc="http://purl.org/dc/elements/1.1/" xmlns:cc="http://creativecommons.org/ns#" xmlns:rdf="http://www.w3.org/1999/02/22-rdf-syntax-ns#">
   <cc:Work>
    <dc:type rdf:resource="http://purl.org/dc/dcmitype/StillImage"/>
    <dc:date>2023-02-07T23:00:01.231945</dc:date>
    <dc:format>image/svg+xml</dc:format>
    <dc:creator>
     <cc:Agent>
      <dc:title>Matplotlib v3.6.2, https://matplotlib.org/</dc:title>
     </cc:Agent>
    </dc:creator>
   </cc:Work>
  </rdf:RDF>
 </metadata>
 <defs>
  <style type="text/css">*{stroke-linejoin: round; stroke-linecap: butt}</style>
 </defs>
 <g id="figure_1">
  <g id="patch_1">
   <path d="M 0 325.986375 
L 565.411687 325.986375 
L 565.411687 0 
L 0 0 
z
" style="fill: #ffffff"/>
  </g>
  <g id="axes_1">
   <g id="patch_2">
    <path d="M 58.523438 288.430125 
L 415.643438 288.430125 
L 415.643438 22.318125 
L 58.523438 22.318125 
z
" style="fill: #ffffff"/>
   </g>
   <g id="PolyCollection_1">
    <path d="M 74.756165 191.878764 
L 74.756165 209.993857 
L 76.813414 209.993857 
L 78.870663 209.993857 
L 80.927912 209.993857 
L 82.985162 209.993857 
L 85.042411 209.993857 
L 87.09966 209.993857 
L 89.156909 209.993857 
L 91.214158 209.993857 
L 93.271408 209.993857 
L 95.328657 209.993857 
L 97.385906 209.993857 
L 99.443155 209.993857 
L 101.500405 209.993857 
L 103.557654 209.993857 
L 105.614903 209.993857 
L 107.672152 209.993857 
L 109.729401 209.993857 
L 111.786651 209.993857 
L 113.8439 209.993857 
L 115.901149 209.993857 
L 117.958398 209.993857 
L 120.015647 209.993857 
L 122.072897 209.993857 
L 124.130146 209.993857 
L 126.187395 209.993857 
L 128.244644 209.993857 
L 130.301893 209.993857 
L 132.359143 209.993857 
L 134.416392 209.993857 
L 136.473641 209.993857 
L 138.53089 209.993857 
L 140.58814 209.993857 
L 142.645389 209.993857 
L 144.702638 209.993857 
L 146.759887 209.993857 
L 148.817136 209.993857 
L 150.874386 209.993857 
L 152.931635 209.993857 
L 154.988884 209.993857 
L 157.046133 209.993857 
L 159.103382 209.993857 
L 161.160632 209.993857 
L 163.217881 209.993857 
L 165.27513 209.993857 
L 167.332379 209.993857 
L 169.389628 209.993857 
L 171.446878 209.993857 
L 173.504127 209.993857 
L 175.561376 209.993857 
L 177.618625 209.993857 
L 179.675875 209.993857 
L 181.733124 209.993857 
L 183.790373 209.993857 
L 185.847622 209.993857 
L 187.904871 209.993857 
L 189.962121 209.993857 
L 192.01937 209.993857 
L 194.076619 209.993857 
L 196.133868 209.993857 
L 198.191117 209.993857 
L 200.248367 209.993857 
L 202.305616 209.993857 
L 204.362865 209.993857 
L 206.420114 209.993857 
L 208.477363 209.993857 
L 210.534613 209.993857 
L 212.591862 209.993857 
L 214.649111 209.993857 
L 216.70636 209.993857 
L 218.76361 209.993857 
L 220.820859 209.993857 
L 222.878108 209.993857 
L 224.935357 209.993857 
L 226.992606 209.993857 
L 229.049856 209.993857 
L 231.107105 209.993857 
L 233.164354 209.993857 
L 235.221603 209.993857 
L 237.278852 209.993857 
L 239.336102 209.993857 
L 241.393351 209.993857 
L 243.4506 209.993857 
L 245.507849 209.993857 
L 247.565098 209.993857 
L 249.622348 209.993857 
L 251.679597 209.993857 
L 253.736846 209.993857 
L 255.794095 209.993857 
L 257.851345 209.993857 
L 259.908594 209.993857 
L 261.965843 209.993857 
L 264.023092 209.993857 
L 266.080341 209.993857 
L 268.137591 209.993857 
L 270.19484 209.993857 
L 272.252089 209.993857 
L 274.309338 209.993857 
L 276.366587 209.993857 
L 278.423837 209.993857 
L 278.423837 207.606249 
L 278.423837 207.606249 
L 276.366587 210.29119 
L 274.309338 211.347577 
L 272.252089 211.423042 
L 270.19484 210.980674 
L 268.137591 210.338139 
L 266.080341 209.700583 
L 264.023092 209.188047 
L 261.965843 208.858059 
L 259.908594 208.724024 
L 257.851345 208.769949 
L 255.794095 208.962037 
L 253.736846 209.257582 
L 251.679597 209.611607 
L 249.622348 209.981585 
L 247.565098 210.330607 
L 245.507849 210.629263 
L 243.4506 210.856522 
L 241.393351 210.999817 
L 239.336102 211.054549 
L 237.278852 211.023167 
L 235.221603 210.913982 
L 233.164354 210.739827 
L 231.107105 210.516664 
L 229.049856 210.262225 
L 226.992606 209.994743 
L 224.935357 209.73182 
L 222.878108 209.489474 
L 220.820859 209.281375 
L 218.76361 209.118291 
L 216.70636 209.007731 
L 214.649111 208.953793 
L 212.591862 208.957191 
L 210.534613 209.01545 
L 208.477363 209.123245 
L 206.420114 209.272846 
L 204.362865 209.454663 
L 202.305616 209.657844 
L 200.248367 209.870896 
L 198.191117 210.082317 
L 196.133868 210.281197 
L 194.076619 210.45776 
L 192.01937 210.603844 
L 189.962121 210.713276 
L 187.904871 210.782142 
L 185.847622 210.808932 
L 183.790373 210.794557 
L 181.733124 210.742227 
L 179.675875 210.657206 
L 177.618625 209.993767 
L 175.561376 209.993938 
L 173.504127 210.147758 
L 171.446878 210.114244 
L 169.389628 210.091735 
L 167.332379 210.081291 
L 165.27513 210.08141 
L 163.217881 210.087462 
L 161.160632 210.091182 
L 159.103382 210.080251 
L 157.046133 210.037996 
L 154.988884 209.94323 
L 152.931635 209.770268 
L 150.874386 209.489134 
L 148.817136 209.065985 
L 146.759887 208.463775 
L 144.702638 207.64317 
L 142.645389 206.563715 
L 140.58814 205.18527 
L 138.53089 203.4697 
L 136.473641 201.382805 
L 134.416392 198.896469 
L 132.359143 195.990987 
L 130.301893 192.657528 
L 128.244644 188.900666 
L 126.187395 184.7409 
L 124.130146 180.217073 
L 122.072897 175.388565 
L 120.015647 170.337137 
L 117.958398 165.168254 
L 115.901149 160.011721 
L 113.8439 155.02141 
L 111.786651 150.373847 
L 109.729401 146.265404 
L 107.672152 142.907778 
L 105.614903 140.521444 
L 103.557654 139.326705 
L 101.500405 139.531935 
L 99.443155 141.318573 
L 97.385906 144.822366 
L 95.328657 150.110345 
L 93.271408 157.152934 
L 91.214158 165.790569 
L 89.156909 175.694136 
L 87.09966 186.318491 
L 85.042411 196.848261 
L 82.985162 206.135057 
L 80.927912 212.625192 
L 78.870663 214.276896 
L 76.813414 208.465972 
L 74.756165 191.878764 
z
" clip-path="url(#p336778ecb3)" style="fill: #1f77b4; fill-opacity: 0.166667"/>
   </g>
   <g id="PolyCollection_2">
    <path d="M 74.756165 199.363969 
L 74.756165 209.993857 
L 75.577925 209.993857 
L 76.399685 209.993857 
L 77.221446 209.993857 
L 78.043206 209.993857 
L 78.864966 209.993857 
L 79.686727 209.993857 
L 80.508487 209.993857 
L 81.330247 209.993857 
L 82.152008 209.993857 
L 82.973768 209.993857 
L 83.795528 209.993857 
L 84.617289 209.993857 
L 85.439049 209.993857 
L 86.260809 209.993857 
L 87.08257 209.993857 
L 87.90433 209.993857 
L 88.72609 209.993857 
L 89.547851 209.993857 
L 90.369611 209.993857 
L 91.191371 209.993857 
L 92.013132 209.993857 
L 92.834892 209.993857 
L 93.656652 209.993857 
L 94.478413 209.993857 
L 95.300173 209.993857 
L 96.121933 209.993857 
L 96.943694 209.993857 
L 97.765454 209.993857 
L 98.587214 209.993857 
L 99.408975 209.993857 
L 100.230735 209.993857 
L 101.052495 209.993857 
L 101.874256 209.993857 
L 102.696016 209.993857 
L 103.517776 209.993857 
L 104.339537 209.993857 
L 105.161297 209.993857 
L 105.983057 209.993857 
L 106.804818 209.993857 
L 107.626578 209.993857 
L 108.448338 209.993857 
L 109.270099 209.993857 
L 110.091859 209.993857 
L 110.913619 209.993857 
L 111.73538 209.993857 
L 112.55714 209.993857 
L 113.3789 209.993857 
L 114.200661 209.993857 
L 115.022421 209.993857 
L 115.844181 209.993857 
L 116.665942 209.993857 
L 117.487702 209.993857 
L 118.309462 209.993857 
L 119.131223 209.993857 
L 119.952983 209.993857 
L 120.774743 209.993857 
L 121.596504 209.993857 
L 122.418264 209.993857 
L 123.240024 209.993857 
L 124.061785 209.993857 
L 124.883545 209.993857 
L 125.705305 209.993857 
L 126.527066 209.993857 
L 127.348826 209.993857 
L 128.170586 209.993857 
L 128.992346 209.993857 
L 129.814107 209.993857 
L 130.635867 209.993857 
L 131.457627 209.993857 
L 132.279388 209.993857 
L 133.101148 209.993857 
L 133.922908 209.993857 
L 134.744669 209.993857 
L 135.566429 209.993857 
L 136.388189 209.993857 
L 137.20995 209.993857 
L 138.03171 209.993857 
L 138.85347 209.993857 
L 139.675231 209.993857 
L 140.496991 209.993857 
L 141.318751 209.993857 
L 142.140512 209.993857 
L 142.962272 209.993857 
L 143.784032 209.993857 
L 144.605793 209.993857 
L 145.427553 209.993857 
L 146.249313 209.993857 
L 147.071074 209.993857 
L 147.892834 209.993857 
L 148.714594 209.993857 
L 149.536355 209.993857 
L 150.358115 209.993857 
L 151.179875 209.993857 
L 152.001636 209.993857 
L 152.823396 209.993857 
L 153.645156 209.993857 
L 154.466917 209.993857 
L 155.288677 209.993857 
L 156.110437 209.993857 
L 156.110437 221.842411 
L 156.110437 221.842411 
L 155.288677 207.101082 
L 154.466917 201.211428 
L 153.645156 200.767106 
L 152.823396 203.286923 
L 152.001636 207.030263 
L 151.179875 210.839805 
L 150.358115 214.008585 
L 149.536355 216.168683 
L 148.714594 217.199024 
L 147.892834 217.149981 
L 147.071074 216.18266 
L 146.249313 214.520927 
L 145.427553 212.414411 
L 144.605793 210.11087 
L 143.784032 207.836475 
L 142.962272 205.782691 
L 142.140512 204.098591 
L 141.318751 202.887555 
L 140.496991 202.207416 
L 139.675231 202.073256 
L 138.85347 202.462118 
L 138.03171 203.319038 
L 137.20995 204.563857 
L 136.388189 206.098379 
L 135.566429 207.813497 
L 134.744669 209.596 
L 133.922908 211.334815 
L 133.101148 212.92651 
L 132.279388 214.279935 
L 131.457627 215.319916 
L 130.635867 215.989954 
L 129.814107 216.253943 
L 128.992346 216.096918 
L 128.170586 215.524886 
L 127.348826 214.563824 
L 126.527066 213.257927 
L 125.705305 211.66721 
L 124.883545 209.864594 
L 124.061785 207.932579 
L 123.240024 205.959647 
L 122.418264 204.036512 
L 121.596504 202.252345 
L 120.774743 200.691097 
L 119.952983 199.428027 
L 119.131223 198.526547 
L 118.309462 198.03547 
L 117.487702 197.986752 
L 116.665942 198.393785 
L 115.844181 209.996516 
L 115.022421 209.996561 
L 114.200661 201.338759 
L 113.3789 203.291652 
L 112.55714 205.517351 
L 111.73538 207.916108 
L 110.913619 210.373776 
L 110.091859 212.765299 
L 109.270099 214.958738 
L 108.448338 216.819723 
L 107.626578 218.216226 
L 106.804818 219.023529 
L 105.983057 219.129235 
L 105.161297 218.438202 
L 104.339537 216.877209 
L 103.517776 214.399234 
L 102.696016 210.987151 
L 101.874256 206.656712 
L 101.052495 201.458651 
L 100.230735 195.479771 
L 99.408975 188.842883 
L 98.587214 181.705495 
L 97.765454 174.257149 
L 96.943694 166.715367 
L 96.121933 159.320156 
L 95.300173 152.327108 
L 94.478413 145.99913 
L 93.656652 140.596924 
L 92.834892 136.36838 
L 92.013132 133.5371 
L 91.191371 132.290364 
L 90.369611 132.766894 
L 89.547851 135.044894 
L 88.72609 139.13091 
L 87.90433 144.950154 
L 87.08257 152.339071 
L 86.260809 161.04101 
L 85.439049 170.706017 
L 84.617289 180.895881 
L 83.795528 191.095726 
L 82.973768 200.733575 
L 82.152008 209.209504 
L 81.330247 215.936154 
L 80.508487 220.392568 
L 79.686727 222.193503 
L 78.864966 221.176597 
L 78.043206 217.509955 
L 77.221446 211.822981 
L 76.399685 205.363501 
L 75.577925 200.18449 
L 74.756165 199.363969 
z
" clip-path="url(#p336778ecb3)" style="fill: #ff7f0e; fill-opacity: 0.166667"/>
   </g>
   <g id="PolyCollection_3">
    <path d="M 74.756165 211.098276 
L 74.756165 209.993857 
L 75.522365 209.993857 
L 76.288566 209.993857 
L 77.054766 209.993857 
L 77.820967 209.993857 
L 78.587167 209.993857 
L 79.353368 209.993857 
L 80.119568 209.993857 
L 80.885769 209.993857 
L 81.651969 209.993857 
L 82.41817 209.993857 
L 83.18437 209.993857 
L 83.950571 209.993857 
L 84.716772 209.993857 
L 85.482972 209.993857 
L 86.249173 209.993857 
L 87.015373 209.993857 
L 87.781574 209.993857 
L 88.547774 209.993857 
L 89.313975 209.993857 
L 90.080175 209.993857 
L 90.846376 209.993857 
L 91.612576 209.993857 
L 92.378777 209.993857 
L 93.144977 209.993857 
L 93.911178 209.993857 
L 94.677378 209.993857 
L 95.443579 209.993857 
L 96.209779 209.993857 
L 96.97598 209.993857 
L 97.74218 209.993857 
L 98.508381 209.993857 
L 99.274581 209.993857 
L 100.040782 209.993857 
L 100.806982 209.993857 
L 101.573183 209.993857 
L 102.339383 209.993857 
L 103.105584 209.993857 
L 103.871785 209.993857 
L 104.637985 209.993857 
L 105.404186 209.993857 
L 106.170386 209.993857 
L 106.936587 209.993857 
L 107.702787 209.993857 
L 108.468988 209.993857 
L 109.235188 209.993857 
L 110.001389 209.993857 
L 110.767589 209.993857 
L 111.53379 209.993857 
L 112.29999 209.993857 
L 113.066191 209.993857 
L 113.832391 209.993857 
L 114.598592 209.993857 
L 115.364792 209.993857 
L 116.130993 209.993857 
L 116.897193 209.993857 
L 117.663394 209.993857 
L 118.429594 209.993857 
L 119.195795 209.993857 
L 119.961995 209.993857 
L 120.728196 209.993857 
L 121.494396 209.993857 
L 122.260597 209.993857 
L 123.026798 209.993857 
L 123.792998 209.993857 
L 124.559199 209.993857 
L 125.325399 209.993857 
L 126.0916 209.993857 
L 126.8578 209.993857 
L 127.624001 209.993857 
L 128.390201 209.993857 
L 129.156402 209.993857 
L 129.922602 209.993857 
L 130.688803 209.993857 
L 131.455003 209.993857 
L 132.221204 209.993857 
L 132.987404 209.993857 
L 133.753605 209.993857 
L 134.519805 209.993857 
L 135.286006 209.993857 
L 136.052206 209.993857 
L 136.818407 209.993857 
L 137.584607 209.993857 
L 138.350808 209.993857 
L 139.117008 209.993857 
L 139.883209 209.993857 
L 140.649409 209.993857 
L 141.41561 209.993857 
L 142.18181 209.993857 
L 142.948011 209.993857 
L 143.714212 209.993857 
L 144.480412 209.993857 
L 145.246613 209.993857 
L 146.012813 209.993857 
L 146.779014 209.993857 
L 147.545214 209.993857 
L 148.311415 209.993857 
L 149.077615 209.993857 
L 149.843816 209.993857 
L 150.610016 209.993857 
L 150.610016 220.451113 
L 150.610016 220.451113 
L 149.843816 207.079484 
L 149.077615 202.028903 
L 148.311415 201.979633 
L 147.545214 204.54665 
L 146.779014 208.086217 
L 146.012813 211.53213 
L 145.246613 214.258331 
L 144.480412 215.964801 
L 143.714212 216.583943 
L 142.948011 216.204844 
L 142.18181 215.013085 
L 141.41561 213.243913 
L 140.649409 211.146859 
L 139.883209 208.959999 
L 139.117008 206.892304 
L 138.350808 205.112632 
L 137.584607 203.744102 
L 136.818407 202.862731 
L 136.052206 202.499344 
L 135.286006 202.6439 
L 134.519805 203.251489 
L 133.753605 204.24937 
L 132.987404 205.544509 
L 132.221204 207.031192 
L 131.455003 208.598327 
L 130.688803 210.136186 
L 129.922602 211.542341 
L 129.156402 212.72667 
L 128.390201 213.61532 
L 127.624001 214.153581 
L 126.8578 214.307677 
L 126.0916 214.065482 
L 125.325399 213.436245 
L 124.559199 212.4494 
L 123.792998 211.152563 
L 123.026798 209.608856 
L 122.260597 207.89367 
L 121.494396 206.091032 
L 120.728196 204.289694 
L 119.961995 202.579122 
L 119.195795 201.045488 
L 118.429594 199.767839 
L 117.663394 198.814533 
L 116.897193 198.240079 
L 116.130993 198.082482 
L 115.364792 198.36116 
L 114.598592 199.075521 
L 113.832391 200.204244 
L 113.066191 209.995728 
L 112.29999 209.99509 
L 111.53379 205.462206 
L 110.767589 207.365092 
L 110.001389 209.303998 
L 109.235188 211.170627 
L 108.468988 212.850079 
L 107.702787 214.224825 
L 106.936587 215.179014 
L 106.170386 215.602985 
L 105.404186 215.397868 
L 104.637985 214.480126 
L 103.871785 212.785905 
L 103.105584 210.275024 
L 102.339383 206.934474 
L 101.573183 202.781259 
L 100.806982 197.864436 
L 100.040782 192.266228 
L 99.274581 186.102059 
L 98.508381 179.519429 
L 97.74218 172.695515 
L 96.97598 165.833457 
L 96.209779 159.157278 
L 95.443579 152.905452 
L 94.677378 147.323166 
L 93.911178 142.65336 
L 93.144977 139.126706 
L 92.378777 136.950715 
L 91.612576 136.298269 
L 90.846376 137.295898 
L 90.080175 140.012264 
L 89.313975 144.447339 
L 88.547774 150.522916 
L 87.781574 158.075157 
L 87.015373 166.850017 
L 86.249173 176.502506 
L 85.482972 186.600856 
L 84.716772 196.636839 
L 83.950571 206.04359 
L 83.18437 214.222495 
L 82.41817 220.580813 
L 81.651969 224.581952 
L 80.885769 225.81044 
L 80.119568 224.05388 
L 79.353368 219.404379 
L 78.587167 212.382147 
L 77.820967 204.084216 
L 77.054766 196.361475 
L 76.288566 192.027467 
L 75.522365 195.102671 
L 74.756165 211.098276 
z
" clip-path="url(#p336778ecb3)" style="fill: #2ca02c; fill-opacity: 0.166667"/>
   </g>
   <g id="PolyCollection_4">
    <path d="M 74.756165 212.936308 
L 74.756165 209.993857 
L 75.671545 209.993857 
L 76.586924 209.993857 
L 77.502304 209.993857 
L 78.417684 209.993857 
L 79.333064 209.993857 
L 80.248444 209.993857 
L 81.163823 209.993857 
L 82.079203 209.993857 
L 82.994583 209.993857 
L 83.909963 209.993857 
L 84.825343 209.993857 
L 85.740722 209.993857 
L 86.656102 209.993857 
L 87.571482 209.993857 
L 88.486862 209.993857 
L 89.402241 209.993857 
L 90.317621 209.993857 
L 91.233001 209.993857 
L 92.148381 209.993857 
L 93.063761 209.993857 
L 93.97914 209.993857 
L 94.89452 209.993857 
L 95.8099 209.993857 
L 96.72528 209.993857 
L 97.64066 209.993857 
L 98.556039 209.993857 
L 99.471419 209.993857 
L 100.386799 209.993857 
L 101.302179 209.993857 
L 102.217559 209.993857 
L 103.132938 209.993857 
L 104.048318 209.993857 
L 104.963698 209.993857 
L 105.879078 209.993857 
L 106.794458 209.993857 
L 107.709837 209.993857 
L 108.625217 209.993857 
L 109.540597 209.993857 
L 110.455977 209.993857 
L 111.371357 209.993857 
L 112.286736 209.993857 
L 113.202116 209.993857 
L 114.117496 209.993857 
L 115.032876 209.993857 
L 115.948256 209.993857 
L 116.863635 209.993857 
L 117.779015 209.993857 
L 118.694395 209.993857 
L 119.609775 209.993857 
L 120.525155 209.993857 
L 121.440534 209.993857 
L 122.355914 209.993857 
L 123.271294 209.993857 
L 124.186674 209.993857 
L 125.102053 209.993857 
L 126.017433 209.993857 
L 126.932813 209.993857 
L 127.848193 209.993857 
L 128.763573 209.993857 
L 129.678952 209.993857 
L 130.594332 209.993857 
L 131.509712 209.993857 
L 132.425092 209.993857 
L 133.340472 209.993857 
L 134.255851 209.993857 
L 135.171231 209.993857 
L 136.086611 209.993857 
L 137.001991 209.993857 
L 137.917371 209.993857 
L 138.83275 209.993857 
L 139.74813 209.993857 
L 140.66351 209.993857 
L 141.57889 209.993857 
L 142.49427 209.993857 
L 143.409649 209.993857 
L 144.325029 209.993857 
L 145.240409 209.993857 
L 146.155789 209.993857 
L 147.071169 209.993857 
L 147.986548 209.993857 
L 148.901928 209.993857 
L 149.817308 209.993857 
L 150.732688 209.993857 
L 151.648068 209.993857 
L 152.563447 209.993857 
L 153.478827 209.993857 
L 154.394207 209.993857 
L 155.309587 209.993857 
L 156.224967 209.993857 
L 157.140346 209.993857 
L 158.055726 209.993857 
L 158.971106 209.993857 
L 159.886486 209.993857 
L 160.801866 209.993857 
L 161.717245 209.993857 
L 162.632625 209.993857 
L 163.548005 209.993857 
L 164.463385 209.993857 
L 165.378764 209.993857 
L 165.378764 219.685166 
L 165.378764 219.685166 
L 164.463385 207.298798 
L 163.548005 202.564855 
L 162.632625 202.456941 
L 161.717245 204.793139 
L 160.801866 208.062909 
L 159.886486 211.280281 
L 158.971106 213.860424 
L 158.055726 215.516919 
L 157.140346 216.177247 
L 156.224967 215.914217 
L 155.309587 214.891274 
L 154.394207 213.319773 
L 153.478827 211.426497 
L 152.563447 209.429875 
L 151.648068 207.523471 
L 150.732688 205.865501 
L 149.817308 204.573244 
L 148.901928 203.721346 
L 147.986548 203.343147 
L 147.071169 203.434255 
L 146.155789 203.957701 
L 145.240409 204.850112 
L 144.325029 206.028407 
L 143.409649 207.396626 
L 142.49427 208.852564 
L 141.57889 210.293934 
L 140.66351 211.623876 
L 139.74813 212.755668 
L 138.83275 213.616526 
L 137.917371 214.150457 
L 137.001991 214.320145 
L 136.086611 214.107883 
L 135.171231 213.51561 
L 134.255851 212.564106 
L 133.340472 211.291451 
L 132.425092 209.750829 
L 131.509712 208.007821 
L 130.594332 206.137283 
L 129.678952 204.219939 
L 128.763573 202.338836 
L 127.848193 200.575752 
L 126.932813 199.007709 
L 126.017433 197.703684 
L 125.102053 196.721622 
L 124.186674 196.105864 
L 123.271294 195.885036 
L 122.355914 196.070503 
L 121.440534 196.655409 
L 120.525155 209.995129 
L 119.609775 209.994745 
L 118.694395 200.134124 
L 117.779015 201.721487 
L 116.863635 203.433655 
L 115.948256 205.176341 
L 115.032876 206.846826 
L 114.117496 208.337443 
L 113.202116 209.539401 
L 112.286736 210.34687 
L 111.371357 210.661208 
L 110.455977 210.395203 
L 109.540597 209.477211 
L 108.625217 207.855035 
L 107.709837 205.499429 
L 106.794458 202.407065 
L 105.879078 198.602839 
L 104.963698 194.141381 
L 104.048318 189.107651 
L 103.132938 183.616498 
L 102.217559 177.811113 
L 101.302179 171.860294 
L 100.386799 165.95447 
L 99.471419 160.300496 
L 98.556039 155.115224 
L 97.64066 150.617919 
L 96.72528 147.021636 
L 95.8099 144.523724 
L 94.89452 143.295669 
L 93.97914 143.472587 
L 93.063761 145.142707 
L 92.148381 148.337288 
L 91.233001 153.021513 
L 90.317621 159.086948 
L 89.402241 166.346317 
L 88.486862 174.531392 
L 87.571482 183.294966 
L 86.656102 192.217959 
L 85.740722 200.82288 
L 84.825343 208.594965 
L 83.909963 215.012513 
L 82.994583 219.588064 
L 82.079203 221.922245 
L 81.163823 221.772307 
L 80.248444 219.137537 
L 79.333064 214.363957 
L 78.417684 208.270909 
L 77.502304 202.302384 
L 76.586924 198.706132 
L 75.671545 200.743894 
L 74.756165 212.936308 
z
" clip-path="url(#p336778ecb3)" style="fill: #d62728; fill-opacity: 0.166667"/>
   </g>
   <g id="PolyCollection_5">
    <path d="M 74.756165 194.774208 
L 74.756165 209.993857 
L 75.558493 209.993857 
L 76.360821 209.993857 
L 77.163149 209.993857 
L 77.965477 209.993857 
L 78.767805 209.993857 
L 79.570133 209.993857 
L 80.372461 209.993857 
L 81.174789 209.993857 
L 81.977117 209.993857 
L 82.779445 209.993857 
L 83.581772 209.993857 
L 84.3841 209.993857 
L 85.186428 209.993857 
L 85.988756 209.993857 
L 86.791084 209.993857 
L 87.593412 209.993857 
L 88.39574 209.993857 
L 89.198068 209.993857 
L 90.000396 209.993857 
L 90.802724 209.993857 
L 91.605052 209.993857 
L 92.40738 209.993857 
L 93.209708 209.993857 
L 94.012036 209.993857 
L 94.814364 209.993857 
L 95.616692 209.993857 
L 96.41902 209.993857 
L 97.221348 209.993857 
L 98.023676 209.993857 
L 98.826004 209.993857 
L 99.628332 209.993857 
L 100.43066 209.993857 
L 101.232988 209.993857 
L 102.035316 209.993857 
L 102.837644 209.993857 
L 103.639972 209.993857 
L 104.4423 209.993857 
L 105.244628 209.993857 
L 106.046956 209.993857 
L 106.849284 209.993857 
L 107.651612 209.993857 
L 108.45394 209.993857 
L 109.256268 209.993857 
L 110.058596 209.993857 
L 110.860924 209.993857 
L 111.663252 209.993857 
L 112.46558 209.993857 
L 113.267907 209.993857 
L 114.070235 209.993857 
L 114.872563 209.993857 
L 115.674891 209.993857 
L 116.477219 209.993857 
L 117.279547 209.993857 
L 118.081875 209.993857 
L 118.884203 209.993857 
L 119.686531 209.993857 
L 120.488859 209.993857 
L 121.291187 209.993857 
L 122.093515 209.993857 
L 122.895843 209.993857 
L 123.698171 209.993857 
L 124.500499 209.993857 
L 125.302827 209.993857 
L 126.105155 209.993857 
L 126.907483 209.993857 
L 127.709811 209.993857 
L 128.512139 209.993857 
L 129.314467 209.993857 
L 130.116795 209.993857 
L 130.919123 209.993857 
L 131.721451 209.993857 
L 132.523779 209.993857 
L 133.326107 209.993857 
L 134.128435 209.993857 
L 134.930763 209.993857 
L 135.733091 209.993857 
L 136.535419 209.993857 
L 137.337747 209.993857 
L 138.140075 209.993857 
L 138.942403 209.993857 
L 139.744731 209.993857 
L 140.547059 209.993857 
L 141.349387 209.993857 
L 142.151715 209.993857 
L 142.954043 209.993857 
L 143.75637 209.993857 
L 144.558698 209.993857 
L 145.361026 209.993857 
L 146.163354 209.993857 
L 146.965682 209.993857 
L 147.76801 209.993857 
L 148.570338 209.993857 
L 149.372666 209.993857 
L 150.174994 209.993857 
L 150.977322 209.993857 
L 151.77965 209.993857 
L 152.581978 209.993857 
L 153.384306 209.993857 
L 154.186634 209.993857 
L 154.186634 206.936702 
L 154.186634 206.936702 
L 153.384306 210.194837 
L 152.581978 211.802665 
L 151.77965 212.264358 
L 150.977322 211.984827 
L 150.174994 211.282127 
L 149.372666 210.399015 
L 148.570338 209.513661 
L 147.76801 208.749504 
L 146.965682 208.184286 
L 146.163354 207.858253 
L 145.361026 207.781578 
L 144.558698 207.940994 
L 143.75637 208.305692 
L 142.954043 208.832506 
L 142.151715 209.470415 
L 141.349387 210.164403 
L 140.547059 210.858714 
L 139.744731 211.499541 
L 138.942403 212.037183 
L 138.140075 212.427729 
L 137.337747 212.634287 
L 136.535419 212.627815 
L 135.733091 212.387595 
L 134.930763 211.901383 
L 134.128435 211.165279 
L 133.326107 210.183364 
L 132.523779 208.96713 
L 131.721451 207.534742 
L 130.919123 205.91018 
L 130.116795 204.122278 
L 129.314467 202.203699 
L 128.512139 200.189878 
L 127.709811 198.117951 
L 126.907483 196.025714 
L 126.105155 193.950608 
L 125.302827 191.928773 
L 124.500499 189.994176 
L 123.698171 188.17784 
L 122.895843 186.507164 
L 122.093515 185.005379 
L 121.291187 183.69111 
L 120.488859 182.578075 
L 119.686531 181.674914 
L 118.884203 180.985147 
L 118.081875 180.507262 
L 117.279547 180.234923 
L 116.477219 180.157302 
L 115.674891 180.259506 
L 114.872563 209.989499 
L 114.070235 209.9891 
L 113.267907 181.894241 
L 112.46558 182.41166 
L 111.663252 182.9746 
L 110.860924 183.562815 
L 110.058596 184.15776 
L 109.256268 184.743104 
L 108.45394 185.305156 
L 107.651612 185.833222 
L 106.849284 186.319863 
L 106.046956 186.761068 
L 105.244628 187.156318 
L 104.4423 187.508555 
L 103.639972 187.824043 
L 102.837644 188.112133 
L 102.035316 188.384924 
L 101.232988 188.656836 
L 100.43066 188.944093 
L 99.628332 189.264132 
L 98.826004 189.634947 
L 98.023676 190.074374 
L 97.221348 190.599341 
L 96.41902 191.225101 
L 95.616692 191.964448 
L 94.814364 192.826961 
L 94.012036 193.818273 
L 93.209708 194.939403 
L 92.40738 196.186168 
L 91.605052 197.548694 
L 90.802724 199.011064 
L 90.000396 200.55111 
L 89.198068 202.14039 
L 88.39574 203.744369 
L 87.593412 205.322825 
L 86.791084 206.83051 
L 85.988756 208.218091 
L 85.186428 209.433386 
L 84.3841 210.422928 
L 83.581772 211.13386 
L 82.779445 211.516201 
L 81.977117 211.525473 
L 81.174789 211.125723 
L 80.372461 210.292935 
L 79.570133 209.018844 
L 78.767805 207.315156 
L 77.965477 205.218159 
L 77.163149 202.793735 
L 76.360821 200.142743 
L 75.558493 197.406771 
L 74.756165 194.774208 
z
" clip-path="url(#p336778ecb3)" style="fill: #9467bd; fill-opacity: 0.166667"/>
   </g>
   <g id="PolyCollection_6">
    <path d="M 74.756165 276.334125 
L 74.756165 209.993857 
L 78.035504 209.993857 
L 81.314842 209.993857 
L 84.594181 209.993857 
L 87.87352 209.993857 
L 91.152859 209.993857 
L 94.432198 209.993857 
L 97.711537 209.993857 
L 100.990876 209.993857 
L 104.270214 209.993857 
L 107.549553 209.993857 
L 110.828892 209.993857 
L 114.108231 209.993857 
L 117.38757 209.993857 
L 120.666909 209.993857 
L 123.946247 209.993857 
L 127.225586 209.993857 
L 130.504925 209.993857 
L 133.784264 209.993857 
L 137.063603 209.993857 
L 140.342942 209.993857 
L 143.62228 209.993857 
L 146.901619 209.993857 
L 150.180958 209.993857 
L 153.460297 209.993857 
L 156.739636 209.993857 
L 160.018975 209.993857 
L 163.298314 209.993857 
L 166.577652 209.993857 
L 169.856991 209.993857 
L 173.13633 209.993857 
L 176.415669 209.993857 
L 179.695008 209.993857 
L 182.974347 209.993857 
L 186.253685 209.993857 
L 189.533024 209.993857 
L 192.812363 209.993857 
L 196.091702 209.993857 
L 199.371041 209.993857 
L 202.65038 209.993857 
L 205.929718 209.993857 
L 209.209057 209.993857 
L 212.488396 209.993857 
L 215.767735 209.993857 
L 219.047074 209.993857 
L 222.326413 209.993857 
L 225.605752 209.993857 
L 228.88509 209.993857 
L 232.164429 209.993857 
L 235.443768 209.993857 
L 238.723107 209.993857 
L 242.002446 209.993857 
L 245.281785 209.993857 
L 248.561123 209.993857 
L 251.840462 209.993857 
L 255.119801 209.993857 
L 258.39914 209.993857 
L 261.678479 209.993857 
L 264.957818 209.993857 
L 268.237157 209.993857 
L 271.516495 209.993857 
L 274.795834 209.993857 
L 278.075173 209.993857 
L 281.354512 209.993857 
L 284.633851 209.993857 
L 287.91319 209.993857 
L 291.192528 209.993857 
L 294.471867 209.993857 
L 297.751206 209.993857 
L 301.030545 209.993857 
L 304.309884 209.993857 
L 307.589223 209.993857 
L 310.868561 209.993857 
L 314.1479 209.993857 
L 317.427239 209.993857 
L 320.706578 209.993857 
L 323.985917 209.993857 
L 327.265256 209.993857 
L 330.544595 209.993857 
L 333.823933 209.993857 
L 337.103272 209.993857 
L 340.382611 209.993857 
L 343.66195 209.993857 
L 346.941289 209.993857 
L 350.220628 209.993857 
L 353.499966 209.993857 
L 356.779305 209.993857 
L 360.058644 209.993857 
L 363.337983 209.993857 
L 366.617322 209.993857 
L 369.896661 209.993857 
L 373.175999 209.993857 
L 376.455338 209.993857 
L 379.734677 209.993857 
L 383.014016 209.993857 
L 386.293355 209.993857 
L 389.572694 209.993857 
L 392.852033 209.993857 
L 396.131371 209.993857 
L 399.41071 209.993857 
L 399.41071 227.079827 
L 399.41071 227.079827 
L 396.131371 205.637731 
L 392.852033 197.38001 
L 389.572694 197.086635 
L 386.293355 201.004844 
L 383.014016 206.54448 
L 379.734677 212.020475 
L 376.455338 216.437132 
L 373.175999 219.309276 
L 369.896661 220.515747 
L 366.617322 220.181111 
L 363.337983 218.581791 
L 360.058644 216.0732 
L 356.779305 213.034767 
L 353.499966 209.830033 
L 350.220628 206.779323 
L 346.941289 204.142726 
L 343.66195 202.111393 
L 340.382611 200.8054 
L 337.103272 200.276606 
L 333.823933 200.515205 
L 330.544595 201.458781 
L 327.265256 203.002916 
L 323.985917 205.012521 
L 320.706578 207.333215 
L 317.427239 209.802215 
L 314.1479 212.258314 
L 310.868561 214.550639 
L 307.589223 216.545959 
L 304.309884 218.134427 
L 301.030545 219.233688 
L 297.751206 219.791363 
L 294.471867 219.785968 
L 291.192528 219.226375 
L 287.91319 218.149971 
L 284.633851 216.61966 
L 281.354512 214.719942 
L 278.075173 212.552238 
L 274.795834 210.229705 
L 271.516495 207.871757 
L 268.237157 205.598489 
L 264.957818 203.525234 
L 261.678479 201.757433 
L 258.39914 200.385994 
L 255.119801 199.483304 
L 251.840462 199.100018 
L 248.561123 199.262739 
L 245.281785 199.972653 
L 242.002446 201.20519 
L 238.723107 209.996993 
L 235.443768 209.995229 
L 232.164429 209.024745 
L 228.88509 210.49106 
L 225.605752 211.980945 
L 222.326413 213.417907 
L 219.047074 214.724791 
L 215.767735 215.82734 
L 212.488396 216.657838 
L 209.209057 217.158672 
L 205.929718 217.285709 
L 202.65038 217.011313 
L 199.371041 216.326873 
L 196.091702 215.24469 
L 192.812363 213.799086 
L 189.533024 212.046614 
L 186.253685 210.06525 
L 182.974347 207.952476 
L 179.695008 205.822191 
L 176.415669 203.800406 
L 173.13633 202.019742 
L 169.856991 200.612742 
L 166.577652 199.704131 
L 163.298314 199.402132 
L 160.018975 199.789085 
L 156.739636 200.911627 
L 153.460297 202.770815 
L 150.180958 205.31262 
L 146.901619 208.41936 
L 143.62228 211.9027 
L 140.342942 215.498994 
L 137.063603 218.867842 
L 133.784264 221.5949 
L 130.504925 223.20007 
L 127.225586 223.152419 
L 123.946247 220.893272 
L 120.666909 215.869157 
L 117.38757 207.576415 
L 114.108231 195.619537 
L 110.828892 179.785446 
L 107.549553 160.136221 
L 104.270214 137.122938 
L 100.990876 111.723612 
L 97.711537 85.608415 
L 94.432198 61.3357 
L 91.152859 42.582574 
L 87.87352 34.414125 
L 84.594181 43.595691 
L 81.314842 78.952911 
L 78.035504 151.784631 
L 74.756165 276.334125 
z
" clip-path="url(#p336778ecb3)" style="fill: #8c564b; fill-opacity: 0.166667"/>
   </g>
   <g id="matplotlib.axis_1">
    <g id="xtick_1">
     <g id="line2d_1">
      <defs>
       <path id="m10faef776f" d="M 0 0 
L 0 3.5 
" style="stroke: #000000; stroke-width: 0.8"/>
      </defs>
      <g>
       <use xlink:href="#m10faef776f" x="74.756165" y="288.430125" style="stroke: #000000; stroke-width: 0.8"/>
      </g>
     </g>
     <g id="text_1">
      <!-- 0.000 -->
      <g transform="translate(60.442102 303.028562) scale(0.1 -0.1)">
       <defs>
        <path id="DejaVuSans-30" d="M 2034 4250 
Q 1547 4250 1301 3770 
Q 1056 3291 1056 2328 
Q 1056 1369 1301 889 
Q 1547 409 2034 409 
Q 2525 409 2770 889 
Q 3016 1369 3016 2328 
Q 3016 3291 2770 3770 
Q 2525 4250 2034 4250 
z
M 2034 4750 
Q 2819 4750 3233 4129 
Q 3647 3509 3647 2328 
Q 3647 1150 3233 529 
Q 2819 -91 2034 -91 
Q 1250 -91 836 529 
Q 422 1150 422 2328 
Q 422 3509 836 4129 
Q 1250 4750 2034 4750 
z
" transform="scale(0.015625)"/>
        <path id="DejaVuSans-2e" d="M 684 794 
L 1344 794 
L 1344 0 
L 684 0 
L 684 794 
z
" transform="scale(0.015625)"/>
       </defs>
       <use xlink:href="#DejaVuSans-30"/>
       <use xlink:href="#DejaVuSans-2e" x="63.623047"/>
       <use xlink:href="#DejaVuSans-30" x="95.410156"/>
       <use xlink:href="#DejaVuSans-30" x="159.033203"/>
       <use xlink:href="#DejaVuSans-30" x="222.65625"/>
      </g>
     </g>
    </g>
    <g id="xtick_2">
     <g id="line2d_2">
      <g>
       <use xlink:href="#m10faef776f" x="151.185956" y="288.430125" style="stroke: #000000; stroke-width: 0.8"/>
      </g>
     </g>
     <g id="text_2">
      <!-- 0.002 -->
      <g transform="translate(136.871893 303.028562) scale(0.1 -0.1)">
       <defs>
        <path id="DejaVuSans-32" d="M 1228 531 
L 3431 531 
L 3431 0 
L 469 0 
L 469 531 
Q 828 903 1448 1529 
Q 2069 2156 2228 2338 
Q 2531 2678 2651 2914 
Q 2772 3150 2772 3378 
Q 2772 3750 2511 3984 
Q 2250 4219 1831 4219 
Q 1534 4219 1204 4116 
Q 875 4013 500 3803 
L 500 4441 
Q 881 4594 1212 4672 
Q 1544 4750 1819 4750 
Q 2544 4750 2975 4387 
Q 3406 4025 3406 3419 
Q 3406 3131 3298 2873 
Q 3191 2616 2906 2266 
Q 2828 2175 2409 1742 
Q 1991 1309 1228 531 
z
" transform="scale(0.015625)"/>
       </defs>
       <use xlink:href="#DejaVuSans-30"/>
       <use xlink:href="#DejaVuSans-2e" x="63.623047"/>
       <use xlink:href="#DejaVuSans-30" x="95.410156"/>
       <use xlink:href="#DejaVuSans-30" x="159.033203"/>
       <use xlink:href="#DejaVuSans-32" x="222.65625"/>
      </g>
     </g>
    </g>
    <g id="xtick_3">
     <g id="line2d_3">
      <g>
       <use xlink:href="#m10faef776f" x="227.615747" y="288.430125" style="stroke: #000000; stroke-width: 0.8"/>
      </g>
     </g>
     <g id="text_3">
      <!-- 0.004 -->
      <g transform="translate(213.301684 303.028562) scale(0.1 -0.1)">
       <defs>
        <path id="DejaVuSans-34" d="M 2419 4116 
L 825 1625 
L 2419 1625 
L 2419 4116 
z
M 2253 4666 
L 3047 4666 
L 3047 1625 
L 3713 1625 
L 3713 1100 
L 3047 1100 
L 3047 0 
L 2419 0 
L 2419 1100 
L 313 1100 
L 313 1709 
L 2253 4666 
z
" transform="scale(0.015625)"/>
       </defs>
       <use xlink:href="#DejaVuSans-30"/>
       <use xlink:href="#DejaVuSans-2e" x="63.623047"/>
       <use xlink:href="#DejaVuSans-30" x="95.410156"/>
       <use xlink:href="#DejaVuSans-30" x="159.033203"/>
       <use xlink:href="#DejaVuSans-34" x="222.65625"/>
      </g>
     </g>
    </g>
    <g id="xtick_4">
     <g id="line2d_4">
      <g>
       <use xlink:href="#m10faef776f" x="304.045538" y="288.430125" style="stroke: #000000; stroke-width: 0.8"/>
      </g>
     </g>
     <g id="text_4">
      <!-- 0.006 -->
      <g transform="translate(289.731475 303.028562) scale(0.1 -0.1)">
       <defs>
        <path id="DejaVuSans-36" d="M 2113 2584 
Q 1688 2584 1439 2293 
Q 1191 2003 1191 1497 
Q 1191 994 1439 701 
Q 1688 409 2113 409 
Q 2538 409 2786 701 
Q 3034 994 3034 1497 
Q 3034 2003 2786 2293 
Q 2538 2584 2113 2584 
z
M 3366 4563 
L 3366 3988 
Q 3128 4100 2886 4159 
Q 2644 4219 2406 4219 
Q 1781 4219 1451 3797 
Q 1122 3375 1075 2522 
Q 1259 2794 1537 2939 
Q 1816 3084 2150 3084 
Q 2853 3084 3261 2657 
Q 3669 2231 3669 1497 
Q 3669 778 3244 343 
Q 2819 -91 2113 -91 
Q 1303 -91 875 529 
Q 447 1150 447 2328 
Q 447 3434 972 4092 
Q 1497 4750 2381 4750 
Q 2619 4750 2861 4703 
Q 3103 4656 3366 4563 
z
" transform="scale(0.015625)"/>
       </defs>
       <use xlink:href="#DejaVuSans-30"/>
       <use xlink:href="#DejaVuSans-2e" x="63.623047"/>
       <use xlink:href="#DejaVuSans-30" x="95.410156"/>
       <use xlink:href="#DejaVuSans-30" x="159.033203"/>
       <use xlink:href="#DejaVuSans-36" x="222.65625"/>
      </g>
     </g>
    </g>
    <g id="xtick_5">
     <g id="line2d_5">
      <g>
       <use xlink:href="#m10faef776f" x="380.475329" y="288.430125" style="stroke: #000000; stroke-width: 0.8"/>
      </g>
     </g>
     <g id="text_5">
      <!-- 0.008 -->
      <g transform="translate(366.161266 303.028562) scale(0.1 -0.1)">
       <defs>
        <path id="DejaVuSans-38" d="M 2034 2216 
Q 1584 2216 1326 1975 
Q 1069 1734 1069 1313 
Q 1069 891 1326 650 
Q 1584 409 2034 409 
Q 2484 409 2743 651 
Q 3003 894 3003 1313 
Q 3003 1734 2745 1975 
Q 2488 2216 2034 2216 
z
M 1403 2484 
Q 997 2584 770 2862 
Q 544 3141 544 3541 
Q 544 4100 942 4425 
Q 1341 4750 2034 4750 
Q 2731 4750 3128 4425 
Q 3525 4100 3525 3541 
Q 3525 3141 3298 2862 
Q 3072 2584 2669 2484 
Q 3125 2378 3379 2068 
Q 3634 1759 3634 1313 
Q 3634 634 3220 271 
Q 2806 -91 2034 -91 
Q 1263 -91 848 271 
Q 434 634 434 1313 
Q 434 1759 690 2068 
Q 947 2378 1403 2484 
z
M 1172 3481 
Q 1172 3119 1398 2916 
Q 1625 2713 2034 2713 
Q 2441 2713 2670 2916 
Q 2900 3119 2900 3481 
Q 2900 3844 2670 4047 
Q 2441 4250 2034 4250 
Q 1625 4250 1398 4047 
Q 1172 3844 1172 3481 
z
" transform="scale(0.015625)"/>
       </defs>
       <use xlink:href="#DejaVuSans-30"/>
       <use xlink:href="#DejaVuSans-2e" x="63.623047"/>
       <use xlink:href="#DejaVuSans-30" x="95.410156"/>
       <use xlink:href="#DejaVuSans-30" x="159.033203"/>
       <use xlink:href="#DejaVuSans-38" x="222.65625"/>
      </g>
     </g>
    </g>
    <g id="text_6">
     <!-- Pixel values -->
     <g transform="translate(207.671719 316.706687) scale(0.1 -0.1)">
      <defs>
       <path id="DejaVuSans-50" d="M 1259 4147 
L 1259 2394 
L 2053 2394 
Q 2494 2394 2734 2622 
Q 2975 2850 2975 3272 
Q 2975 3691 2734 3919 
Q 2494 4147 2053 4147 
L 1259 4147 
z
M 628 4666 
L 2053 4666 
Q 2838 4666 3239 4311 
Q 3641 3956 3641 3272 
Q 3641 2581 3239 2228 
Q 2838 1875 2053 1875 
L 1259 1875 
L 1259 0 
L 628 0 
L 628 4666 
z
" transform="scale(0.015625)"/>
       <path id="DejaVuSans-69" d="M 603 3500 
L 1178 3500 
L 1178 0 
L 603 0 
L 603 3500 
z
M 603 4863 
L 1178 4863 
L 1178 4134 
L 603 4134 
L 603 4863 
z
" transform="scale(0.015625)"/>
       <path id="DejaVuSans-78" d="M 3513 3500 
L 2247 1797 
L 3578 0 
L 2900 0 
L 1881 1375 
L 863 0 
L 184 0 
L 1544 1831 
L 300 3500 
L 978 3500 
L 1906 2253 
L 2834 3500 
L 3513 3500 
z
" transform="scale(0.015625)"/>
       <path id="DejaVuSans-65" d="M 3597 1894 
L 3597 1613 
L 953 1613 
Q 991 1019 1311 708 
Q 1631 397 2203 397 
Q 2534 397 2845 478 
Q 3156 559 3463 722 
L 3463 178 
Q 3153 47 2828 -22 
Q 2503 -91 2169 -91 
Q 1331 -91 842 396 
Q 353 884 353 1716 
Q 353 2575 817 3079 
Q 1281 3584 2069 3584 
Q 2775 3584 3186 3129 
Q 3597 2675 3597 1894 
z
M 3022 2063 
Q 3016 2534 2758 2815 
Q 2500 3097 2075 3097 
Q 1594 3097 1305 2825 
Q 1016 2553 972 2059 
L 3022 2063 
z
" transform="scale(0.015625)"/>
       <path id="DejaVuSans-6c" d="M 603 4863 
L 1178 4863 
L 1178 0 
L 603 0 
L 603 4863 
z
" transform="scale(0.015625)"/>
       <path id="DejaVuSans-20" transform="scale(0.015625)"/>
       <path id="DejaVuSans-76" d="M 191 3500 
L 800 3500 
L 1894 563 
L 2988 3500 
L 3597 3500 
L 2284 0 
L 1503 0 
L 191 3500 
z
" transform="scale(0.015625)"/>
       <path id="DejaVuSans-61" d="M 2194 1759 
Q 1497 1759 1228 1600 
Q 959 1441 959 1056 
Q 959 750 1161 570 
Q 1363 391 1709 391 
Q 2188 391 2477 730 
Q 2766 1069 2766 1631 
L 2766 1759 
L 2194 1759 
z
M 3341 1997 
L 3341 0 
L 2766 0 
L 2766 531 
Q 2569 213 2275 61 
Q 1981 -91 1556 -91 
Q 1019 -91 701 211 
Q 384 513 384 1019 
Q 384 1609 779 1909 
Q 1175 2209 1959 2209 
L 2766 2209 
L 2766 2266 
Q 2766 2663 2505 2880 
Q 2244 3097 1772 3097 
Q 1472 3097 1187 3025 
Q 903 2953 641 2809 
L 641 3341 
Q 956 3463 1253 3523 
Q 1550 3584 1831 3584 
Q 2591 3584 2966 3190 
Q 3341 2797 3341 1997 
z
" transform="scale(0.015625)"/>
       <path id="DejaVuSans-75" d="M 544 1381 
L 544 3500 
L 1119 3500 
L 1119 1403 
Q 1119 906 1312 657 
Q 1506 409 1894 409 
Q 2359 409 2629 706 
Q 2900 1003 2900 1516 
L 2900 3500 
L 3475 3500 
L 3475 0 
L 2900 0 
L 2900 538 
Q 2691 219 2414 64 
Q 2138 -91 1772 -91 
Q 1169 -91 856 284 
Q 544 659 544 1381 
z
M 1991 3584 
L 1991 3584 
z
" transform="scale(0.015625)"/>
       <path id="DejaVuSans-73" d="M 2834 3397 
L 2834 2853 
Q 2591 2978 2328 3040 
Q 2066 3103 1784 3103 
Q 1356 3103 1142 2972 
Q 928 2841 928 2578 
Q 928 2378 1081 2264 
Q 1234 2150 1697 2047 
L 1894 2003 
Q 2506 1872 2764 1633 
Q 3022 1394 3022 966 
Q 3022 478 2636 193 
Q 2250 -91 1575 -91 
Q 1294 -91 989 -36 
Q 684 19 347 128 
L 347 722 
Q 666 556 975 473 
Q 1284 391 1588 391 
Q 1994 391 2212 530 
Q 2431 669 2431 922 
Q 2431 1156 2273 1281 
Q 2116 1406 1581 1522 
L 1381 1569 
Q 847 1681 609 1914 
Q 372 2147 372 2553 
Q 372 3047 722 3315 
Q 1072 3584 1716 3584 
Q 2034 3584 2315 3537 
Q 2597 3491 2834 3397 
z
" transform="scale(0.015625)"/>
      </defs>
      <use xlink:href="#DejaVuSans-50"/>
      <use xlink:href="#DejaVuSans-69" x="58.052734"/>
      <use xlink:href="#DejaVuSans-78" x="85.835938"/>
      <use xlink:href="#DejaVuSans-65" x="141.890625"/>
      <use xlink:href="#DejaVuSans-6c" x="203.414062"/>
      <use xlink:href="#DejaVuSans-20" x="231.197266"/>
      <use xlink:href="#DejaVuSans-76" x="262.984375"/>
      <use xlink:href="#DejaVuSans-61" x="322.164062"/>
      <use xlink:href="#DejaVuSans-6c" x="383.443359"/>
      <use xlink:href="#DejaVuSans-75" x="411.226562"/>
      <use xlink:href="#DejaVuSans-65" x="474.605469"/>
      <use xlink:href="#DejaVuSans-73" x="536.128906"/>
     </g>
    </g>
   </g>
   <g id="matplotlib.axis_2">
    <g id="ytick_1">
     <g id="line2d_6">
      <defs>
       <path id="m456677eb36" d="M 0 0 
L -3.5 0 
" style="stroke: #000000; stroke-width: 0.8"/>
      </defs>
      <g>
       <use xlink:href="#m456677eb36" x="58.523438" y="267.583882" style="stroke: #000000; stroke-width: 0.8"/>
      </g>
     </g>
     <g id="text_7">
      <!-- −0.05 -->
      <g transform="translate(20.878125 271.383101) scale(0.1 -0.1)">
       <defs>
        <path id="DejaVuSans-2212" d="M 678 2272 
L 4684 2272 
L 4684 1741 
L 678 1741 
L 678 2272 
z
" transform="scale(0.015625)"/>
        <path id="DejaVuSans-35" d="M 691 4666 
L 3169 4666 
L 3169 4134 
L 1269 4134 
L 1269 2991 
Q 1406 3038 1543 3061 
Q 1681 3084 1819 3084 
Q 2600 3084 3056 2656 
Q 3513 2228 3513 1497 
Q 3513 744 3044 326 
Q 2575 -91 1722 -91 
Q 1428 -91 1123 -41 
Q 819 9 494 109 
L 494 744 
Q 775 591 1075 516 
Q 1375 441 1709 441 
Q 2250 441 2565 725 
Q 2881 1009 2881 1497 
Q 2881 1984 2565 2268 
Q 2250 2553 1709 2553 
Q 1456 2553 1204 2497 
Q 953 2441 691 2322 
L 691 4666 
z
" transform="scale(0.015625)"/>
       </defs>
       <use xlink:href="#DejaVuSans-2212"/>
       <use xlink:href="#DejaVuSans-30" x="83.789062"/>
       <use xlink:href="#DejaVuSans-2e" x="147.412109"/>
       <use xlink:href="#DejaVuSans-30" x="179.199219"/>
       <use xlink:href="#DejaVuSans-35" x="242.822266"/>
      </g>
     </g>
    </g>
    <g id="ytick_2">
     <g id="line2d_7">
      <g>
       <use xlink:href="#m456677eb36" x="58.523438" y="209.993857" style="stroke: #000000; stroke-width: 0.8"/>
      </g>
     </g>
     <g id="text_8">
      <!-- 0.00 -->
      <g transform="translate(29.257813 213.793076) scale(0.1 -0.1)">
       <use xlink:href="#DejaVuSans-30"/>
       <use xlink:href="#DejaVuSans-2e" x="63.623047"/>
       <use xlink:href="#DejaVuSans-30" x="95.410156"/>
       <use xlink:href="#DejaVuSans-30" x="159.033203"/>
      </g>
     </g>
    </g>
    <g id="ytick_3">
     <g id="line2d_8">
      <g>
       <use xlink:href="#m456677eb36" x="58.523438" y="152.403832" style="stroke: #000000; stroke-width: 0.8"/>
      </g>
     </g>
     <g id="text_9">
      <!-- 0.05 -->
      <g transform="translate(29.257813 156.20305) scale(0.1 -0.1)">
       <use xlink:href="#DejaVuSans-30"/>
       <use xlink:href="#DejaVuSans-2e" x="63.623047"/>
       <use xlink:href="#DejaVuSans-30" x="95.410156"/>
       <use xlink:href="#DejaVuSans-35" x="159.033203"/>
      </g>
     </g>
    </g>
    <g id="ytick_4">
     <g id="line2d_9">
      <g>
       <use xlink:href="#m456677eb36" x="58.523438" y="94.813806" style="stroke: #000000; stroke-width: 0.8"/>
      </g>
     </g>
     <g id="text_10">
      <!-- 0.10 -->
      <g transform="translate(29.257813 98.613025) scale(0.1 -0.1)">
       <defs>
        <path id="DejaVuSans-31" d="M 794 531 
L 1825 531 
L 1825 4091 
L 703 3866 
L 703 4441 
L 1819 4666 
L 2450 4666 
L 2450 531 
L 3481 531 
L 3481 0 
L 794 0 
L 794 531 
z
" transform="scale(0.015625)"/>
       </defs>
       <use xlink:href="#DejaVuSans-30"/>
       <use xlink:href="#DejaVuSans-2e" x="63.623047"/>
       <use xlink:href="#DejaVuSans-31" x="95.410156"/>
       <use xlink:href="#DejaVuSans-30" x="159.033203"/>
      </g>
     </g>
    </g>
    <g id="ytick_5">
     <g id="line2d_10">
      <g>
       <use xlink:href="#m456677eb36" x="58.523438" y="37.223781" style="stroke: #000000; stroke-width: 0.8"/>
      </g>
     </g>
     <g id="text_11">
      <!-- 0.15 -->
      <g transform="translate(29.257813 41.022999) scale(0.1 -0.1)">
       <use xlink:href="#DejaVuSans-30"/>
       <use xlink:href="#DejaVuSans-2e" x="63.623047"/>
       <use xlink:href="#DejaVuSans-31" x="95.410156"/>
       <use xlink:href="#DejaVuSans-35" x="159.033203"/>
      </g>
     </g>
    </g>
    <g id="text_12">
     <!-- Frequency -->
     <g transform="translate(14.798438 181.203812) rotate(-90) scale(0.1 -0.1)">
      <defs>
       <path id="DejaVuSans-46" d="M 628 4666 
L 3309 4666 
L 3309 4134 
L 1259 4134 
L 1259 2759 
L 3109 2759 
L 3109 2228 
L 1259 2228 
L 1259 0 
L 628 0 
L 628 4666 
z
" transform="scale(0.015625)"/>
       <path id="DejaVuSans-72" d="M 2631 2963 
Q 2534 3019 2420 3045 
Q 2306 3072 2169 3072 
Q 1681 3072 1420 2755 
Q 1159 2438 1159 1844 
L 1159 0 
L 581 0 
L 581 3500 
L 1159 3500 
L 1159 2956 
Q 1341 3275 1631 3429 
Q 1922 3584 2338 3584 
Q 2397 3584 2469 3576 
Q 2541 3569 2628 3553 
L 2631 2963 
z
" transform="scale(0.015625)"/>
       <path id="DejaVuSans-71" d="M 947 1747 
Q 947 1113 1208 752 
Q 1469 391 1925 391 
Q 2381 391 2643 752 
Q 2906 1113 2906 1747 
Q 2906 2381 2643 2742 
Q 2381 3103 1925 3103 
Q 1469 3103 1208 2742 
Q 947 2381 947 1747 
z
M 2906 525 
Q 2725 213 2448 61 
Q 2172 -91 1784 -91 
Q 1150 -91 751 415 
Q 353 922 353 1747 
Q 353 2572 751 3078 
Q 1150 3584 1784 3584 
Q 2172 3584 2448 3432 
Q 2725 3281 2906 2969 
L 2906 3500 
L 3481 3500 
L 3481 -1331 
L 2906 -1331 
L 2906 525 
z
" transform="scale(0.015625)"/>
       <path id="DejaVuSans-6e" d="M 3513 2113 
L 3513 0 
L 2938 0 
L 2938 2094 
Q 2938 2591 2744 2837 
Q 2550 3084 2163 3084 
Q 1697 3084 1428 2787 
Q 1159 2491 1159 1978 
L 1159 0 
L 581 0 
L 581 3500 
L 1159 3500 
L 1159 2956 
Q 1366 3272 1645 3428 
Q 1925 3584 2291 3584 
Q 2894 3584 3203 3211 
Q 3513 2838 3513 2113 
z
" transform="scale(0.015625)"/>
       <path id="DejaVuSans-63" d="M 3122 3366 
L 3122 2828 
Q 2878 2963 2633 3030 
Q 2388 3097 2138 3097 
Q 1578 3097 1268 2742 
Q 959 2388 959 1747 
Q 959 1106 1268 751 
Q 1578 397 2138 397 
Q 2388 397 2633 464 
Q 2878 531 3122 666 
L 3122 134 
Q 2881 22 2623 -34 
Q 2366 -91 2075 -91 
Q 1284 -91 818 406 
Q 353 903 353 1747 
Q 353 2603 823 3093 
Q 1294 3584 2113 3584 
Q 2378 3584 2631 3529 
Q 2884 3475 3122 3366 
z
" transform="scale(0.015625)"/>
       <path id="DejaVuSans-79" d="M 2059 -325 
Q 1816 -950 1584 -1140 
Q 1353 -1331 966 -1331 
L 506 -1331 
L 506 -850 
L 844 -850 
Q 1081 -850 1212 -737 
Q 1344 -625 1503 -206 
L 1606 56 
L 191 3500 
L 800 3500 
L 1894 763 
L 2988 3500 
L 3597 3500 
L 2059 -325 
z
" transform="scale(0.015625)"/>
      </defs>
      <use xlink:href="#DejaVuSans-46"/>
      <use xlink:href="#DejaVuSans-72" x="50.269531"/>
      <use xlink:href="#DejaVuSans-65" x="89.132812"/>
      <use xlink:href="#DejaVuSans-71" x="150.65625"/>
      <use xlink:href="#DejaVuSans-75" x="214.132812"/>
      <use xlink:href="#DejaVuSans-65" x="277.511719"/>
      <use xlink:href="#DejaVuSans-6e" x="339.035156"/>
      <use xlink:href="#DejaVuSans-63" x="402.414062"/>
      <use xlink:href="#DejaVuSans-79" x="457.394531"/>
     </g>
    </g>
   </g>
   <g id="line2d_11">
    <path d="M 74.756165 191.878764 
L 76.813414 208.465972 
L 78.870663 214.276896 
L 80.927912 212.625192 
L 82.985162 206.135057 
L 85.042411 196.848261 
L 87.09966 186.318491 
L 89.156909 175.694136 
L 91.214158 165.790569 
L 93.271408 157.152934 
L 95.328657 150.110345 
L 97.385906 144.822366 
L 99.443155 141.318573 
L 101.500405 139.531935 
L 103.557654 139.326705 
L 105.614903 140.521444 
L 107.672152 142.907778 
L 109.729401 146.265404 
L 111.786651 150.373847 
L 113.8439 155.02141 
L 115.901149 160.011721 
L 117.958398 165.168254 
L 120.015647 170.337137 
L 122.072897 175.388565 
L 124.130146 180.217073 
L 126.187395 184.7409 
L 128.244644 188.900666 
L 130.301893 192.657528 
L 132.359143 195.990987 
L 134.416392 198.896469 
L 136.473641 201.382805 
L 138.53089 203.4697 
L 140.58814 205.18527 
L 142.645389 206.563715 
L 144.702638 207.64317 
L 146.759887 208.463775 
L 148.817136 209.065985 
L 150.874386 209.489134 
L 152.931635 209.770268 
L 154.988884 209.94323 
L 157.046133 210.037996 
L 159.103382 210.080251 
L 161.160632 210.091182 
L 163.217881 210.087462 
L 165.27513 210.08141 
L 167.332379 210.081291 
L 169.389628 210.091735 
L 171.446878 210.114244 
L 173.504127 210.147758 
L 175.561376 209.993938 
L 177.618625 209.993767 
L 179.675875 210.657206 
L 181.733124 210.742227 
L 183.790373 210.794557 
L 185.847622 210.808932 
L 187.904871 210.782142 
L 189.962121 210.713276 
L 192.01937 210.603844 
L 194.076619 210.45776 
L 196.133868 210.281197 
L 198.191117 210.082317 
L 200.248367 209.870896 
L 202.305616 209.657844 
L 204.362865 209.454663 
L 206.420114 209.272846 
L 208.477363 209.123245 
L 210.534613 209.01545 
L 212.591862 208.957191 
L 214.649111 208.953793 
L 216.70636 209.007731 
L 218.76361 209.118291 
L 220.820859 209.281375 
L 222.878108 209.489474 
L 224.935357 209.73182 
L 226.992606 209.994743 
L 229.049856 210.262225 
L 231.107105 210.516664 
L 233.164354 210.739827 
L 235.221603 210.913982 
L 237.278852 211.023167 
L 239.336102 211.054549 
L 241.393351 210.999817 
L 243.4506 210.856522 
L 245.507849 210.629263 
L 247.565098 210.330607 
L 249.622348 209.981585 
L 251.679597 209.611607 
L 253.736846 209.257582 
L 255.794095 208.962037 
L 257.851345 208.769949 
L 259.908594 208.724024 
L 261.965843 208.858059 
L 264.023092 209.188047 
L 266.080341 209.700583 
L 268.137591 210.338139 
L 270.19484 210.980674 
L 272.252089 211.423042 
L 274.309338 211.347577 
L 276.366587 210.29119 
L 278.423837 207.606249 
" clip-path="url(#p336778ecb3)" style="fill: none; stroke: #1f77b4; stroke-width: 1.5; stroke-linecap: square"/>
   </g>
   <g id="line2d_12">
    <path d="M 74.756165 199.363969 
L 75.577925 200.18449 
L 76.399685 205.363501 
L 77.221446 211.822981 
L 78.043206 217.509955 
L 78.864966 221.176597 
L 79.686727 222.193503 
L 80.508487 220.392568 
L 81.330247 215.936154 
L 82.152008 209.209504 
L 82.973768 200.733575 
L 83.795528 191.095726 
L 84.617289 180.895881 
L 85.439049 170.706017 
L 86.260809 161.04101 
L 87.08257 152.339071 
L 87.90433 144.950154 
L 88.72609 139.13091 
L 89.547851 135.044894 
L 90.369611 132.766894 
L 91.191371 132.290364 
L 92.013132 133.5371 
L 92.834892 136.36838 
L 93.656652 140.596924 
L 94.478413 145.99913 
L 95.300173 152.327108 
L 96.121933 159.320156 
L 96.943694 166.715367 
L 97.765454 174.257149 
L 98.587214 181.705495 
L 99.408975 188.842883 
L 100.230735 195.479771 
L 101.052495 201.458651 
L 101.874256 206.656712 
L 102.696016 210.987151 
L 103.517776 214.399234 
L 104.339537 216.877209 
L 105.161297 218.438202 
L 105.983057 219.129235 
L 106.804818 219.023529 
L 107.626578 218.216226 
L 108.448338 216.819723 
L 109.270099 214.958738 
L 110.091859 212.765299 
L 110.913619 210.373776 
L 111.73538 207.916108 
L 112.55714 205.517351 
L 113.3789 203.291652 
L 114.200661 201.338759 
L 115.022421 209.996561 
L 115.844181 209.996516 
L 116.665942 198.393785 
L 117.487702 197.986752 
L 118.309462 198.03547 
L 119.131223 198.526547 
L 119.952983 199.428027 
L 120.774743 200.691097 
L 121.596504 202.252345 
L 122.418264 204.036512 
L 123.240024 205.959647 
L 124.061785 207.932579 
L 124.883545 209.864594 
L 125.705305 211.66721 
L 126.527066 213.257927 
L 127.348826 214.563824 
L 128.170586 215.524886 
L 128.992346 216.096918 
L 129.814107 216.253943 
L 130.635867 215.989954 
L 131.457627 215.319916 
L 132.279388 214.279935 
L 133.101148 212.92651 
L 133.922908 211.334815 
L 134.744669 209.596 
L 135.566429 207.813497 
L 136.388189 206.098379 
L 137.20995 204.563857 
L 138.03171 203.319038 
L 138.85347 202.462118 
L 139.675231 202.073256 
L 140.496991 202.207416 
L 141.318751 202.887555 
L 142.140512 204.098591 
L 142.962272 205.782691 
L 143.784032 207.836475 
L 144.605793 210.11087 
L 145.427553 212.414411 
L 146.249313 214.520927 
L 147.071074 216.18266 
L 147.892834 217.149981 
L 148.714594 217.199024 
L 149.536355 216.168683 
L 150.358115 214.008585 
L 151.179875 210.839805 
L 152.001636 207.030263 
L 152.823396 203.286923 
L 153.645156 200.767106 
L 154.466917 201.211428 
L 155.288677 207.101082 
L 156.110437 221.842411 
" clip-path="url(#p336778ecb3)" style="fill: none; stroke: #ff7f0e; stroke-width: 1.5; stroke-linecap: square"/>
   </g>
   <g id="line2d_13">
    <path d="M 74.756165 211.098276 
L 75.522365 195.102671 
L 76.288566 192.027467 
L 77.054766 196.361475 
L 77.820967 204.084216 
L 78.587167 212.382147 
L 79.353368 219.404379 
L 80.119568 224.05388 
L 80.885769 225.81044 
L 81.651969 224.581952 
L 82.41817 220.580813 
L 83.18437 214.222495 
L 83.950571 206.04359 
L 84.716772 196.636839 
L 85.482972 186.600856 
L 86.249173 176.502506 
L 87.015373 166.850017 
L 87.781574 158.075157 
L 88.547774 150.522916 
L 89.313975 144.447339 
L 90.080175 140.012264 
L 90.846376 137.295898 
L 91.612576 136.298269 
L 92.378777 136.950715 
L 93.144977 139.126706 
L 93.911178 142.65336 
L 94.677378 147.323166 
L 95.443579 152.905452 
L 96.209779 159.157278 
L 96.97598 165.833457 
L 97.74218 172.695515 
L 98.508381 179.519429 
L 99.274581 186.102059 
L 100.040782 192.266228 
L 100.806982 197.864436 
L 101.573183 202.781259 
L 102.339383 206.934474 
L 103.105584 210.275024 
L 103.871785 212.785905 
L 104.637985 214.480126 
L 105.404186 215.397868 
L 106.170386 215.602985 
L 106.936587 215.179014 
L 107.702787 214.224825 
L 108.468988 212.850079 
L 109.235188 211.170627 
L 110.001389 209.303998 
L 110.767589 207.365092 
L 111.53379 205.462206 
L 112.29999 209.99509 
L 113.066191 209.995728 
L 113.832391 200.204244 
L 114.598592 199.075521 
L 115.364792 198.36116 
L 116.130993 198.082482 
L 116.897193 198.240079 
L 117.663394 198.814533 
L 118.429594 199.767839 
L 119.195795 201.045488 
L 119.961995 202.579122 
L 120.728196 204.289694 
L 121.494396 206.091032 
L 122.260597 207.89367 
L 123.026798 209.608856 
L 123.792998 211.152563 
L 124.559199 212.4494 
L 125.325399 213.436245 
L 126.0916 214.065482 
L 126.8578 214.307677 
L 127.624001 214.153581 
L 128.390201 213.61532 
L 129.156402 212.72667 
L 129.922602 211.542341 
L 130.688803 210.136186 
L 131.455003 208.598327 
L 132.221204 207.031192 
L 132.987404 205.544509 
L 133.753605 204.24937 
L 134.519805 203.251489 
L 135.286006 202.6439 
L 136.052206 202.499344 
L 136.818407 202.862731 
L 137.584607 203.744102 
L 138.350808 205.112632 
L 139.117008 206.892304 
L 139.883209 208.959999 
L 140.649409 211.146859 
L 141.41561 213.243913 
L 142.18181 215.013085 
L 142.948011 216.204844 
L 143.714212 216.583943 
L 144.480412 215.964801 
L 145.246613 214.258331 
L 146.012813 211.53213 
L 146.779014 208.086217 
L 147.545214 204.54665 
L 148.311415 201.979633 
L 149.077615 202.028903 
L 149.843816 207.079484 
L 150.610016 220.451113 
" clip-path="url(#p336778ecb3)" style="fill: none; stroke: #2ca02c; stroke-width: 1.5; stroke-linecap: square"/>
   </g>
   <g id="line2d_14">
    <path d="M 74.756165 212.936308 
L 75.671545 200.743894 
L 76.586924 198.706132 
L 77.502304 202.302384 
L 78.417684 208.270909 
L 79.333064 214.363957 
L 80.248444 219.137537 
L 81.163823 221.772307 
L 82.079203 221.922245 
L 82.994583 219.588064 
L 83.909963 215.012513 
L 84.825343 208.594965 
L 85.740722 200.82288 
L 86.656102 192.217959 
L 87.571482 183.294966 
L 88.486862 174.531392 
L 89.402241 166.346317 
L 90.317621 159.086948 
L 91.233001 153.021513 
L 92.148381 148.337288 
L 93.063761 145.142707 
L 93.97914 143.472587 
L 94.89452 143.295669 
L 95.8099 144.523724 
L 96.72528 147.021636 
L 97.64066 150.617919 
L 98.556039 155.115224 
L 99.471419 160.300496 
L 100.386799 165.95447 
L 101.302179 171.860294 
L 102.217559 177.811113 
L 103.132938 183.616498 
L 104.048318 189.107651 
L 104.963698 194.141381 
L 105.879078 198.602839 
L 106.794458 202.407065 
L 107.709837 205.499429 
L 108.625217 207.855035 
L 109.540597 209.477211 
L 110.455977 210.395203 
L 111.371357 210.661208 
L 112.286736 210.34687 
L 113.202116 209.539401 
L 114.117496 208.337443 
L 115.032876 206.846826 
L 115.948256 205.176341 
L 116.863635 203.433655 
L 117.779015 201.721487 
L 118.694395 200.134124 
L 119.609775 209.994745 
L 120.525155 209.995129 
L 121.440534 196.655409 
L 122.355914 196.070503 
L 123.271294 195.885036 
L 124.186674 196.105864 
L 125.102053 196.721622 
L 126.017433 197.703684 
L 126.932813 199.007709 
L 127.848193 200.575752 
L 128.763573 202.338836 
L 129.678952 204.219939 
L 130.594332 206.137283 
L 131.509712 208.007821 
L 132.425092 209.750829 
L 133.340472 211.291451 
L 134.255851 212.564106 
L 135.171231 213.51561 
L 136.086611 214.107883 
L 137.001991 214.320145 
L 137.917371 214.150457 
L 138.83275 213.616526 
L 139.74813 212.755668 
L 140.66351 211.623876 
L 141.57889 210.293934 
L 142.49427 208.852564 
L 143.409649 207.396626 
L 144.325029 206.028407 
L 145.240409 204.850112 
L 146.155789 203.957701 
L 147.071169 203.434255 
L 147.986548 203.343147 
L 148.901928 203.721346 
L 149.817308 204.573244 
L 150.732688 205.865501 
L 151.648068 207.523471 
L 152.563447 209.429875 
L 153.478827 211.426497 
L 154.394207 213.319773 
L 155.309587 214.891274 
L 156.224967 215.914217 
L 157.140346 216.177247 
L 158.055726 215.516919 
L 158.971106 213.860424 
L 159.886486 211.280281 
L 160.801866 208.062909 
L 161.717245 204.793139 
L 162.632625 202.456941 
L 163.548005 202.564855 
L 164.463385 207.298798 
L 165.378764 219.685166 
" clip-path="url(#p336778ecb3)" style="fill: none; stroke: #d62728; stroke-width: 1.5; stroke-linecap: square"/>
   </g>
   <g id="line2d_15">
    <path d="M 74.756165 194.774208 
L 75.558493 197.406771 
L 76.360821 200.142743 
L 77.163149 202.793735 
L 77.965477 205.218159 
L 78.767805 207.315156 
L 79.570133 209.018844 
L 80.372461 210.292935 
L 81.174789 211.125723 
L 81.977117 211.525473 
L 82.779445 211.516201 
L 83.581772 211.13386 
L 84.3841 210.422928 
L 85.186428 209.433386 
L 85.988756 208.218091 
L 86.791084 206.83051 
L 87.593412 205.322825 
L 88.39574 203.744369 
L 89.198068 202.14039 
L 90.000396 200.55111 
L 90.802724 199.011064 
L 91.605052 197.548694 
L 92.40738 196.186168 
L 93.209708 194.939403 
L 94.012036 193.818273 
L 94.814364 192.826961 
L 95.616692 191.964448 
L 96.41902 191.225101 
L 97.221348 190.599341 
L 98.023676 190.074374 
L 98.826004 189.634947 
L 99.628332 189.264132 
L 100.43066 188.944093 
L 101.232988 188.656836 
L 102.035316 188.384924 
L 102.837644 188.112133 
L 103.639972 187.824043 
L 104.4423 187.508555 
L 105.244628 187.156318 
L 106.046956 186.761068 
L 106.849284 186.319863 
L 107.651612 185.833222 
L 108.45394 185.305156 
L 109.256268 184.743104 
L 110.058596 184.15776 
L 110.860924 183.562815 
L 111.663252 182.9746 
L 112.46558 182.41166 
L 113.267907 181.894241 
L 114.070235 209.9891 
L 114.872563 209.989499 
L 115.674891 180.259506 
L 116.477219 180.157302 
L 117.279547 180.234923 
L 118.081875 180.507262 
L 118.884203 180.985147 
L 119.686531 181.674914 
L 120.488859 182.578075 
L 121.291187 183.69111 
L 122.093515 185.005379 
L 122.895843 186.507164 
L 123.698171 188.17784 
L 124.500499 189.994176 
L 125.302827 191.928773 
L 126.105155 193.950608 
L 126.907483 196.025714 
L 127.709811 198.117951 
L 128.512139 200.189878 
L 129.314467 202.203699 
L 130.116795 204.122278 
L 130.919123 205.91018 
L 131.721451 207.534742 
L 132.523779 208.96713 
L 133.326107 210.183364 
L 134.128435 211.165279 
L 134.930763 211.901383 
L 135.733091 212.387595 
L 136.535419 212.627815 
L 137.337747 212.634287 
L 138.140075 212.427729 
L 138.942403 212.037183 
L 139.744731 211.499541 
L 140.547059 210.858714 
L 141.349387 210.164403 
L 142.151715 209.470415 
L 142.954043 208.832506 
L 143.75637 208.305692 
L 144.558698 207.940994 
L 145.361026 207.781578 
L 146.163354 207.858253 
L 146.965682 208.184286 
L 147.76801 208.749504 
L 148.570338 209.513661 
L 149.372666 210.399015 
L 150.174994 211.282127 
L 150.977322 211.984827 
L 151.77965 212.264358 
L 152.581978 211.802665 
L 153.384306 210.194837 
L 154.186634 206.936702 
" clip-path="url(#p336778ecb3)" style="fill: none; stroke: #9467bd; stroke-width: 1.5; stroke-linecap: square"/>
   </g>
   <g id="line2d_16">
    <path d="M 74.756165 276.334125 
L 78.035504 151.784631 
L 81.314842 78.952911 
L 84.594181 43.595691 
L 87.87352 34.414125 
L 91.152859 42.582574 
L 94.432198 61.3357 
L 97.711537 85.608415 
L 100.990876 111.723612 
L 104.270214 137.122938 
L 107.549553 160.136221 
L 110.828892 179.785446 
L 114.108231 195.619537 
L 117.38757 207.576415 
L 120.666909 215.869157 
L 123.946247 220.893272 
L 127.225586 223.152419 
L 130.504925 223.20007 
L 133.784264 221.5949 
L 137.063603 218.867842 
L 140.342942 215.498994 
L 143.62228 211.9027 
L 146.901619 208.41936 
L 150.180958 205.31262 
L 153.460297 202.770815 
L 156.739636 200.911627 
L 160.018975 199.789085 
L 163.298314 199.402132 
L 166.577652 199.704131 
L 169.856991 200.612742 
L 173.13633 202.019742 
L 176.415669 203.800406 
L 179.695008 205.822191 
L 182.974347 207.952476 
L 186.253685 210.06525 
L 189.533024 212.046614 
L 192.812363 213.799086 
L 196.091702 215.24469 
L 199.371041 216.326873 
L 202.65038 217.011313 
L 205.929718 217.285709 
L 209.209057 217.158672 
L 212.488396 216.657838 
L 215.767735 215.82734 
L 219.047074 214.724791 
L 222.326413 213.417907 
L 225.605752 211.980945 
L 228.88509 210.49106 
L 232.164429 209.024745 
L 235.443768 209.995229 
L 238.723107 209.996993 
L 242.002446 201.20519 
L 245.281785 199.972653 
L 248.561123 199.262739 
L 251.840462 199.100018 
L 255.119801 199.483304 
L 258.39914 200.385994 
L 261.678479 201.757433 
L 264.957818 203.525234 
L 268.237157 205.598489 
L 271.516495 207.871757 
L 274.795834 210.229705 
L 278.075173 212.552238 
L 281.354512 214.719942 
L 284.633851 216.61966 
L 287.91319 218.149971 
L 291.192528 219.226375 
L 294.471867 219.785968 
L 297.751206 219.791363 
L 301.030545 219.233688 
L 304.309884 218.134427 
L 307.589223 216.545959 
L 310.868561 214.550639 
L 314.1479 212.258314 
L 317.427239 209.802215 
L 320.706578 207.333215 
L 323.985917 205.012521 
L 327.265256 203.002916 
L 330.544595 201.458781 
L 333.823933 200.515205 
L 337.103272 200.276606 
L 340.382611 200.8054 
L 343.66195 202.111393 
L 346.941289 204.142726 
L 350.220628 206.779323 
L 353.499966 209.830033 
L 356.779305 213.034767 
L 360.058644 216.0732 
L 363.337983 218.581791 
L 366.617322 220.181111 
L 369.896661 220.515747 
L 373.175999 219.309276 
L 376.455338 216.437132 
L 379.734677 212.020475 
L 383.014016 206.54448 
L 386.293355 201.004844 
L 389.572694 197.086635 
L 392.852033 197.38001 
L 396.131371 205.637731 
L 399.41071 227.079827 
" clip-path="url(#p336778ecb3)" style="fill: none; stroke: #8c564b; stroke-width: 1.5; stroke-linecap: square"/>
   </g>
   <g id="patch_3">
    <path d="M 58.523438 288.430125 
L 58.523438 22.318125 
" style="fill: none; stroke: #000000; stroke-width: 0.8; stroke-linejoin: miter; stroke-linecap: square"/>
   </g>
   <g id="patch_4">
    <path d="M 415.643438 288.430125 
L 415.643438 22.318125 
" style="fill: none; stroke: #000000; stroke-width: 0.8; stroke-linejoin: miter; stroke-linecap: square"/>
   </g>
   <g id="patch_5">
    <path d="M 58.523438 288.430125 
L 415.643438 288.430125 
" style="fill: none; stroke: #000000; stroke-width: 0.8; stroke-linejoin: miter; stroke-linecap: square"/>
   </g>
   <g id="patch_6">
    <path d="M 58.523438 22.318125 
L 415.643438 22.318125 
" style="fill: none; stroke: #000000; stroke-width: 0.8; stroke-linejoin: miter; stroke-linecap: square"/>
   </g>
   <g id="text_13">
    <!-- MD - xtract_prob_Superior_Longitudinal_Fasciculus_2_R -->
    <g transform="translate(71.285625 16.318125) scale(0.12 -0.12)">
     <defs>
      <path id="DejaVuSans-4d" d="M 628 4666 
L 1569 4666 
L 2759 1491 
L 3956 4666 
L 4897 4666 
L 4897 0 
L 4281 0 
L 4281 4097 
L 3078 897 
L 2444 897 
L 1241 4097 
L 1241 0 
L 628 0 
L 628 4666 
z
" transform="scale(0.015625)"/>
      <path id="DejaVuSans-44" d="M 1259 4147 
L 1259 519 
L 2022 519 
Q 2988 519 3436 956 
Q 3884 1394 3884 2338 
Q 3884 3275 3436 3711 
Q 2988 4147 2022 4147 
L 1259 4147 
z
M 628 4666 
L 1925 4666 
Q 3281 4666 3915 4102 
Q 4550 3538 4550 2338 
Q 4550 1131 3912 565 
Q 3275 0 1925 0 
L 628 0 
L 628 4666 
z
" transform="scale(0.015625)"/>
      <path id="DejaVuSans-2d" d="M 313 2009 
L 1997 2009 
L 1997 1497 
L 313 1497 
L 313 2009 
z
" transform="scale(0.015625)"/>
      <path id="DejaVuSans-74" d="M 1172 4494 
L 1172 3500 
L 2356 3500 
L 2356 3053 
L 1172 3053 
L 1172 1153 
Q 1172 725 1289 603 
Q 1406 481 1766 481 
L 2356 481 
L 2356 0 
L 1766 0 
Q 1100 0 847 248 
Q 594 497 594 1153 
L 594 3053 
L 172 3053 
L 172 3500 
L 594 3500 
L 594 4494 
L 1172 4494 
z
" transform="scale(0.015625)"/>
      <path id="DejaVuSans-5f" d="M 3263 -1063 
L 3263 -1509 
L -63 -1509 
L -63 -1063 
L 3263 -1063 
z
" transform="scale(0.015625)"/>
      <path id="DejaVuSans-70" d="M 1159 525 
L 1159 -1331 
L 581 -1331 
L 581 3500 
L 1159 3500 
L 1159 2969 
Q 1341 3281 1617 3432 
Q 1894 3584 2278 3584 
Q 2916 3584 3314 3078 
Q 3713 2572 3713 1747 
Q 3713 922 3314 415 
Q 2916 -91 2278 -91 
Q 1894 -91 1617 61 
Q 1341 213 1159 525 
z
M 3116 1747 
Q 3116 2381 2855 2742 
Q 2594 3103 2138 3103 
Q 1681 3103 1420 2742 
Q 1159 2381 1159 1747 
Q 1159 1113 1420 752 
Q 1681 391 2138 391 
Q 2594 391 2855 752 
Q 3116 1113 3116 1747 
z
" transform="scale(0.015625)"/>
      <path id="DejaVuSans-6f" d="M 1959 3097 
Q 1497 3097 1228 2736 
Q 959 2375 959 1747 
Q 959 1119 1226 758 
Q 1494 397 1959 397 
Q 2419 397 2687 759 
Q 2956 1122 2956 1747 
Q 2956 2369 2687 2733 
Q 2419 3097 1959 3097 
z
M 1959 3584 
Q 2709 3584 3137 3096 
Q 3566 2609 3566 1747 
Q 3566 888 3137 398 
Q 2709 -91 1959 -91 
Q 1206 -91 779 398 
Q 353 888 353 1747 
Q 353 2609 779 3096 
Q 1206 3584 1959 3584 
z
" transform="scale(0.015625)"/>
      <path id="DejaVuSans-62" d="M 3116 1747 
Q 3116 2381 2855 2742 
Q 2594 3103 2138 3103 
Q 1681 3103 1420 2742 
Q 1159 2381 1159 1747 
Q 1159 1113 1420 752 
Q 1681 391 2138 391 
Q 2594 391 2855 752 
Q 3116 1113 3116 1747 
z
M 1159 2969 
Q 1341 3281 1617 3432 
Q 1894 3584 2278 3584 
Q 2916 3584 3314 3078 
Q 3713 2572 3713 1747 
Q 3713 922 3314 415 
Q 2916 -91 2278 -91 
Q 1894 -91 1617 61 
Q 1341 213 1159 525 
L 1159 0 
L 581 0 
L 581 4863 
L 1159 4863 
L 1159 2969 
z
" transform="scale(0.015625)"/>
      <path id="DejaVuSans-53" d="M 3425 4513 
L 3425 3897 
Q 3066 4069 2747 4153 
Q 2428 4238 2131 4238 
Q 1616 4238 1336 4038 
Q 1056 3838 1056 3469 
Q 1056 3159 1242 3001 
Q 1428 2844 1947 2747 
L 2328 2669 
Q 3034 2534 3370 2195 
Q 3706 1856 3706 1288 
Q 3706 609 3251 259 
Q 2797 -91 1919 -91 
Q 1588 -91 1214 -16 
Q 841 59 441 206 
L 441 856 
Q 825 641 1194 531 
Q 1563 422 1919 422 
Q 2459 422 2753 634 
Q 3047 847 3047 1241 
Q 3047 1584 2836 1778 
Q 2625 1972 2144 2069 
L 1759 2144 
Q 1053 2284 737 2584 
Q 422 2884 422 3419 
Q 422 4038 858 4394 
Q 1294 4750 2059 4750 
Q 2388 4750 2728 4690 
Q 3069 4631 3425 4513 
z
" transform="scale(0.015625)"/>
      <path id="DejaVuSans-4c" d="M 628 4666 
L 1259 4666 
L 1259 531 
L 3531 531 
L 3531 0 
L 628 0 
L 628 4666 
z
" transform="scale(0.015625)"/>
      <path id="DejaVuSans-67" d="M 2906 1791 
Q 2906 2416 2648 2759 
Q 2391 3103 1925 3103 
Q 1463 3103 1205 2759 
Q 947 2416 947 1791 
Q 947 1169 1205 825 
Q 1463 481 1925 481 
Q 2391 481 2648 825 
Q 2906 1169 2906 1791 
z
M 3481 434 
Q 3481 -459 3084 -895 
Q 2688 -1331 1869 -1331 
Q 1566 -1331 1297 -1286 
Q 1028 -1241 775 -1147 
L 775 -588 
Q 1028 -725 1275 -790 
Q 1522 -856 1778 -856 
Q 2344 -856 2625 -561 
Q 2906 -266 2906 331 
L 2906 616 
Q 2728 306 2450 153 
Q 2172 0 1784 0 
Q 1141 0 747 490 
Q 353 981 353 1791 
Q 353 2603 747 3093 
Q 1141 3584 1784 3584 
Q 2172 3584 2450 3431 
Q 2728 3278 2906 2969 
L 2906 3500 
L 3481 3500 
L 3481 434 
z
" transform="scale(0.015625)"/>
      <path id="DejaVuSans-64" d="M 2906 2969 
L 2906 4863 
L 3481 4863 
L 3481 0 
L 2906 0 
L 2906 525 
Q 2725 213 2448 61 
Q 2172 -91 1784 -91 
Q 1150 -91 751 415 
Q 353 922 353 1747 
Q 353 2572 751 3078 
Q 1150 3584 1784 3584 
Q 2172 3584 2448 3432 
Q 2725 3281 2906 2969 
z
M 947 1747 
Q 947 1113 1208 752 
Q 1469 391 1925 391 
Q 2381 391 2643 752 
Q 2906 1113 2906 1747 
Q 2906 2381 2643 2742 
Q 2381 3103 1925 3103 
Q 1469 3103 1208 2742 
Q 947 2381 947 1747 
z
" transform="scale(0.015625)"/>
      <path id="DejaVuSans-52" d="M 2841 2188 
Q 3044 2119 3236 1894 
Q 3428 1669 3622 1275 
L 4263 0 
L 3584 0 
L 2988 1197 
Q 2756 1666 2539 1819 
Q 2322 1972 1947 1972 
L 1259 1972 
L 1259 0 
L 628 0 
L 628 4666 
L 2053 4666 
Q 2853 4666 3247 4331 
Q 3641 3997 3641 3322 
Q 3641 2881 3436 2590 
Q 3231 2300 2841 2188 
z
M 1259 4147 
L 1259 2491 
L 2053 2491 
Q 2509 2491 2742 2702 
Q 2975 2913 2975 3322 
Q 2975 3731 2742 3939 
Q 2509 4147 2053 4147 
L 1259 4147 
z
" transform="scale(0.015625)"/>
     </defs>
     <use xlink:href="#DejaVuSans-4d"/>
     <use xlink:href="#DejaVuSans-44" x="86.279297"/>
     <use xlink:href="#DejaVuSans-20" x="163.28125"/>
     <use xlink:href="#DejaVuSans-2d" x="195.068359"/>
     <use xlink:href="#DejaVuSans-20" x="231.152344"/>
     <use xlink:href="#DejaVuSans-78" x="262.939453"/>
     <use xlink:href="#DejaVuSans-74" x="322.119141"/>
     <use xlink:href="#DejaVuSans-72" x="361.328125"/>
     <use xlink:href="#DejaVuSans-61" x="402.441406"/>
     <use xlink:href="#DejaVuSans-63" x="463.720703"/>
     <use xlink:href="#DejaVuSans-74" x="518.701172"/>
     <use xlink:href="#DejaVuSans-5f" x="557.910156"/>
     <use xlink:href="#DejaVuSans-70" x="607.910156"/>
     <use xlink:href="#DejaVuSans-72" x="671.386719"/>
     <use xlink:href="#DejaVuSans-6f" x="710.25"/>
     <use xlink:href="#DejaVuSans-62" x="771.431641"/>
     <use xlink:href="#DejaVuSans-5f" x="834.908203"/>
     <use xlink:href="#DejaVuSans-53" x="884.908203"/>
     <use xlink:href="#DejaVuSans-75" x="948.384766"/>
     <use xlink:href="#DejaVuSans-70" x="1011.763672"/>
     <use xlink:href="#DejaVuSans-65" x="1075.240234"/>
     <use xlink:href="#DejaVuSans-72" x="1136.763672"/>
     <use xlink:href="#DejaVuSans-69" x="1177.876953"/>
     <use xlink:href="#DejaVuSans-6f" x="1205.660156"/>
     <use xlink:href="#DejaVuSans-72" x="1266.841797"/>
     <use xlink:href="#DejaVuSans-5f" x="1307.955078"/>
     <use xlink:href="#DejaVuSans-4c" x="1357.955078"/>
     <use xlink:href="#DejaVuSans-6f" x="1411.917969"/>
     <use xlink:href="#DejaVuSans-6e" x="1473.099609"/>
     <use xlink:href="#DejaVuSans-67" x="1536.478516"/>
     <use xlink:href="#DejaVuSans-69" x="1599.955078"/>
     <use xlink:href="#DejaVuSans-74" x="1627.738281"/>
     <use xlink:href="#DejaVuSans-75" x="1666.947266"/>
     <use xlink:href="#DejaVuSans-64" x="1730.326172"/>
     <use xlink:href="#DejaVuSans-69" x="1793.802734"/>
     <use xlink:href="#DejaVuSans-6e" x="1821.585938"/>
     <use xlink:href="#DejaVuSans-61" x="1884.964844"/>
     <use xlink:href="#DejaVuSans-6c" x="1946.244141"/>
     <use xlink:href="#DejaVuSans-5f" x="1974.027344"/>
     <use xlink:href="#DejaVuSans-46" x="2024.027344"/>
     <use xlink:href="#DejaVuSans-61" x="2072.421875"/>
     <use xlink:href="#DejaVuSans-73" x="2133.701172"/>
     <use xlink:href="#DejaVuSans-63" x="2185.800781"/>
     <use xlink:href="#DejaVuSans-69" x="2240.78125"/>
     <use xlink:href="#DejaVuSans-63" x="2268.564453"/>
     <use xlink:href="#DejaVuSans-75" x="2323.544922"/>
     <use xlink:href="#DejaVuSans-6c" x="2386.923828"/>
     <use xlink:href="#DejaVuSans-75" x="2414.707031"/>
     <use xlink:href="#DejaVuSans-73" x="2478.085938"/>
     <use xlink:href="#DejaVuSans-5f" x="2530.185547"/>
     <use xlink:href="#DejaVuSans-32" x="2580.185547"/>
     <use xlink:href="#DejaVuSans-5f" x="2643.808594"/>
     <use xlink:href="#DejaVuSans-52" x="2693.808594"/>
    </g>
   </g>
   <g id="legend_1">
    <g id="patch_7">
     <path d="M 458.355438 146.666825 
L 556.211688 146.666825 
Q 558.211688 146.666825 558.211688 144.666825 
L 558.211688 55.929325 
Q 558.211688 53.929325 556.211688 53.929325 
L 458.355438 53.929325 
Q 456.355438 53.929325 456.355438 55.929325 
L 456.355438 144.666825 
Q 456.355438 146.666825 458.355438 146.666825 
z
" style="fill: #ffffff; opacity: 0.8; stroke: #cccccc; stroke-linejoin: miter"/>
    </g>
    <g id="line2d_17">
     <path d="M 460.355438 62.027762 
L 470.355438 62.027762 
L 480.355438 62.027762 
" style="fill: none; stroke: #1f77b4; stroke-width: 1.5; stroke-linecap: square"/>
    </g>
    <g id="text_14">
     <!-- 20_06_02_E3 -->
     <g transform="translate(488.355438 65.527762) scale(0.1 -0.1)">
      <defs>
       <path id="DejaVuSans-45" d="M 628 4666 
L 3578 4666 
L 3578 4134 
L 1259 4134 
L 1259 2753 
L 3481 2753 
L 3481 2222 
L 1259 2222 
L 1259 531 
L 3634 531 
L 3634 0 
L 628 0 
L 628 4666 
z
" transform="scale(0.015625)"/>
       <path id="DejaVuSans-33" d="M 2597 2516 
Q 3050 2419 3304 2112 
Q 3559 1806 3559 1356 
Q 3559 666 3084 287 
Q 2609 -91 1734 -91 
Q 1441 -91 1130 -33 
Q 819 25 488 141 
L 488 750 
Q 750 597 1062 519 
Q 1375 441 1716 441 
Q 2309 441 2620 675 
Q 2931 909 2931 1356 
Q 2931 1769 2642 2001 
Q 2353 2234 1838 2234 
L 1294 2234 
L 1294 2753 
L 1863 2753 
Q 2328 2753 2575 2939 
Q 2822 3125 2822 3475 
Q 2822 3834 2567 4026 
Q 2313 4219 1838 4219 
Q 1578 4219 1281 4162 
Q 984 4106 628 3988 
L 628 4550 
Q 988 4650 1302 4700 
Q 1616 4750 1894 4750 
Q 2613 4750 3031 4423 
Q 3450 4097 3450 3541 
Q 3450 3153 3228 2886 
Q 3006 2619 2597 2516 
z
" transform="scale(0.015625)"/>
      </defs>
      <use xlink:href="#DejaVuSans-32"/>
      <use xlink:href="#DejaVuSans-30" x="63.623047"/>
      <use xlink:href="#DejaVuSans-5f" x="127.246094"/>
      <use xlink:href="#DejaVuSans-30" x="177.246094"/>
      <use xlink:href="#DejaVuSans-36" x="240.869141"/>
      <use xlink:href="#DejaVuSans-5f" x="304.492188"/>
      <use xlink:href="#DejaVuSans-30" x="354.492188"/>
      <use xlink:href="#DejaVuSans-32" x="418.115234"/>
      <use xlink:href="#DejaVuSans-5f" x="481.738281"/>
      <use xlink:href="#DejaVuSans-45" x="531.738281"/>
      <use xlink:href="#DejaVuSans-33" x="594.921875"/>
     </g>
    </g>
    <g id="line2d_18">
     <path d="M 460.355438 76.984013 
L 470.355438 76.984013 
L 480.355438 76.984013 
" style="fill: none; stroke: #ff7f0e; stroke-width: 1.5; stroke-linecap: square"/>
    </g>
    <g id="text_15">
     <!-- 20_05_01_E3 -->
     <g transform="translate(488.355438 80.484013) scale(0.1 -0.1)">
      <use xlink:href="#DejaVuSans-32"/>
      <use xlink:href="#DejaVuSans-30" x="63.623047"/>
      <use xlink:href="#DejaVuSans-5f" x="127.246094"/>
      <use xlink:href="#DejaVuSans-30" x="177.246094"/>
      <use xlink:href="#DejaVuSans-35" x="240.869141"/>
      <use xlink:href="#DejaVuSans-5f" x="304.492188"/>
      <use xlink:href="#DejaVuSans-30" x="354.492188"/>
      <use xlink:href="#DejaVuSans-31" x="418.115234"/>
      <use xlink:href="#DejaVuSans-5f" x="481.738281"/>
      <use xlink:href="#DejaVuSans-45" x="531.738281"/>
      <use xlink:href="#DejaVuSans-33" x="594.921875"/>
     </g>
    </g>
    <g id="line2d_19">
     <path d="M 460.355438 91.940262 
L 470.355438 91.940262 
L 480.355438 91.940262 
" style="fill: none; stroke: #2ca02c; stroke-width: 1.5; stroke-linecap: square"/>
    </g>
    <g id="text_16">
     <!-- 20_02_02_E3 -->
     <g transform="translate(488.355438 95.440262) scale(0.1 -0.1)">
      <use xlink:href="#DejaVuSans-32"/>
      <use xlink:href="#DejaVuSans-30" x="63.623047"/>
      <use xlink:href="#DejaVuSans-5f" x="127.246094"/>
      <use xlink:href="#DejaVuSans-30" x="177.246094"/>
      <use xlink:href="#DejaVuSans-32" x="240.869141"/>
      <use xlink:href="#DejaVuSans-5f" x="304.492188"/>
      <use xlink:href="#DejaVuSans-30" x="354.492188"/>
      <use xlink:href="#DejaVuSans-32" x="418.115234"/>
      <use xlink:href="#DejaVuSans-5f" x="481.738281"/>
      <use xlink:href="#DejaVuSans-45" x="531.738281"/>
      <use xlink:href="#DejaVuSans-33" x="594.921875"/>
     </g>
    </g>
    <g id="line2d_20">
     <path d="M 460.355438 106.896513 
L 470.355438 106.896513 
L 480.355438 106.896513 
" style="fill: none; stroke: #d62728; stroke-width: 1.5; stroke-linecap: square"/>
    </g>
    <g id="text_17">
     <!-- 20_10_02_E3 -->
     <g transform="translate(488.355438 110.396513) scale(0.1 -0.1)">
      <use xlink:href="#DejaVuSans-32"/>
      <use xlink:href="#DejaVuSans-30" x="63.623047"/>
      <use xlink:href="#DejaVuSans-5f" x="127.246094"/>
      <use xlink:href="#DejaVuSans-31" x="177.246094"/>
      <use xlink:href="#DejaVuSans-30" x="240.869141"/>
      <use xlink:href="#DejaVuSans-5f" x="304.492188"/>
      <use xlink:href="#DejaVuSans-30" x="354.492188"/>
      <use xlink:href="#DejaVuSans-32" x="418.115234"/>
      <use xlink:href="#DejaVuSans-5f" x="481.738281"/>
      <use xlink:href="#DejaVuSans-45" x="531.738281"/>
      <use xlink:href="#DejaVuSans-33" x="594.921875"/>
     </g>
    </g>
    <g id="line2d_21">
     <path d="M 460.355438 121.852762 
L 470.355438 121.852762 
L 480.355438 121.852762 
" style="fill: none; stroke: #9467bd; stroke-width: 1.5; stroke-linecap: square"/>
    </g>
    <g id="text_18">
     <!-- 20_08_02_E3 -->
     <g transform="translate(488.355438 125.352762) scale(0.1 -0.1)">
      <use xlink:href="#DejaVuSans-32"/>
      <use xlink:href="#DejaVuSans-30" x="63.623047"/>
      <use xlink:href="#DejaVuSans-5f" x="127.246094"/>
      <use xlink:href="#DejaVuSans-30" x="177.246094"/>
      <use xlink:href="#DejaVuSans-38" x="240.869141"/>
      <use xlink:href="#DejaVuSans-5f" x="304.492188"/>
      <use xlink:href="#DejaVuSans-30" x="354.492188"/>
      <use xlink:href="#DejaVuSans-32" x="418.115234"/>
      <use xlink:href="#DejaVuSans-5f" x="481.738281"/>
      <use xlink:href="#DejaVuSans-45" x="531.738281"/>
      <use xlink:href="#DejaVuSans-33" x="594.921875"/>
     </g>
    </g>
    <g id="line2d_22">
     <path d="M 460.355438 136.809012 
L 470.355438 136.809012 
L 480.355438 136.809012 
" style="fill: none; stroke: #8c564b; stroke-width: 1.5; stroke-linecap: square"/>
    </g>
    <g id="text_19">
     <!-- 20_11_02_E3 -->
     <g transform="translate(488.355438 140.309012) scale(0.1 -0.1)">
      <use xlink:href="#DejaVuSans-32"/>
      <use xlink:href="#DejaVuSans-30" x="63.623047"/>
      <use xlink:href="#DejaVuSans-5f" x="127.246094"/>
      <use xlink:href="#DejaVuSans-31" x="177.246094"/>
      <use xlink:href="#DejaVuSans-31" x="240.869141"/>
      <use xlink:href="#DejaVuSans-5f" x="304.492188"/>
      <use xlink:href="#DejaVuSans-30" x="354.492188"/>
      <use xlink:href="#DejaVuSans-32" x="418.115234"/>
      <use xlink:href="#DejaVuSans-5f" x="481.738281"/>
      <use xlink:href="#DejaVuSans-45" x="531.738281"/>
      <use xlink:href="#DejaVuSans-33" x="594.921875"/>
     </g>
    </g>
   </g>
  </g>
 </g>
 <defs>
  <clipPath id="p336778ecb3">
   <rect x="58.523438" y="22.318125" width="357.12" height="266.112"/>
  </clipPath>
 </defs>
</svg>
