<?xml version="1.0" encoding="utf-8" standalone="no"?>
<!DOCTYPE svg PUBLIC "-//W3C//DTD SVG 1.1//EN"
  "http://www.w3.org/Graphics/SVG/1.1/DTD/svg11.dtd">
<svg xmlns:xlink="http://www.w3.org/1999/xlink" width="557.032pt" height="325.986375pt" viewBox="0 0 557.032 325.986375" xmlns="http://www.w3.org/2000/svg" version="1.1">
 <metadata>
  <rdf:RDF xmlns:dc="http://purl.org/dc/elements/1.1/" xmlns:cc="http://creativecommons.org/ns#" xmlns:rdf="http://www.w3.org/1999/02/22-rdf-syntax-ns#">
   <cc:Work>
    <dc:type rdf:resource="http://purl.org/dc/dcmitype/StillImage"/>
    <dc:date>2023-02-07T22:59:58.959209</dc:date>
    <dc:format>image/svg+xml</dc:format>
    <dc:creator>
     <cc:Agent>
      <dc:title>Matplotlib v3.6.2, https://matplotlib.org/</dc:title>
     </cc:Agent>
    </dc:creator>
   </cc:Work>
  </rdf:RDF>
 </metadata>
 <defs>
  <style type="text/css">*{stroke-linejoin: round; stroke-linecap: butt}</style>
 </defs>
 <g id="figure_1">
  <g id="patch_1">
   <path d="M 0 325.986375 
L 557.032 325.986375 
L 557.032 0 
L 0 0 
z
" style="fill: #ffffff"/>
  </g>
  <g id="axes_1">
   <g id="patch_2">
    <path d="M 50.14375 288.430125 
L 407.26375 288.430125 
L 407.26375 22.318125 
L 50.14375 22.318125 
z
" style="fill: #ffffff"/>
   </g>
   <g id="PolyCollection_1">
    <path d="M 66.376477 265.837053 
L 66.376477 266.405968 
L 69.655816 266.405968 
L 72.935155 266.405968 
L 76.214494 266.405968 
L 79.493833 266.405968 
L 82.773171 266.405968 
L 86.05251 266.405968 
L 89.331849 266.405968 
L 92.611188 266.405968 
L 95.890527 266.405968 
L 99.169866 266.405968 
L 102.449205 266.405968 
L 105.728543 266.405968 
L 109.007882 266.405968 
L 112.287221 266.405968 
L 115.56656 266.405968 
L 118.845899 266.405968 
L 122.125238 266.405968 
L 125.404576 266.405968 
L 128.683915 266.405968 
L 131.963254 266.405968 
L 135.242593 266.405968 
L 138.521932 266.405968 
L 141.801271 266.405968 
L 145.08061 266.405968 
L 148.359948 266.405968 
L 151.639287 266.405968 
L 154.918626 266.405968 
L 158.197965 266.405968 
L 161.477304 266.405968 
L 164.756643 266.405968 
L 168.035981 266.405968 
L 171.31532 266.405968 
L 174.594659 266.405968 
L 177.873998 266.405968 
L 181.153337 266.405968 
L 184.432676 266.405968 
L 187.712014 266.405968 
L 190.991353 266.405968 
L 194.270692 266.405968 
L 197.550031 266.405968 
L 200.82937 266.405968 
L 204.108709 266.405968 
L 207.388048 266.405968 
L 210.667386 266.405968 
L 213.946725 266.405968 
L 217.226064 266.405968 
L 220.505403 266.405968 
L 223.784742 266.405968 
L 227.064081 266.405968 
L 230.343419 266.405968 
L 233.622758 266.405968 
L 236.902097 266.405968 
L 240.181436 266.405968 
L 243.460775 266.405968 
L 246.740114 266.405968 
L 250.019452 266.405968 
L 253.298791 266.405968 
L 256.57813 266.405968 
L 259.857469 266.405968 
L 263.136808 266.405968 
L 266.416147 266.405968 
L 269.695486 266.405968 
L 272.974824 266.405968 
L 276.254163 266.405968 
L 279.533502 266.405968 
L 282.812841 266.405968 
L 286.09218 266.405968 
L 289.371519 266.405968 
L 292.650857 266.405968 
L 295.930196 266.405968 
L 299.209535 266.405968 
L 302.488874 266.405968 
L 305.768213 266.405968 
L 309.047552 266.405968 
L 312.32689 266.405968 
L 315.606229 266.405968 
L 318.885568 266.405968 
L 322.164907 266.405968 
L 325.444246 266.405968 
L 328.723585 266.405968 
L 332.002924 266.405968 
L 335.282262 266.405968 
L 338.561601 266.405968 
L 341.84094 266.405968 
L 345.120279 266.405968 
L 348.399618 266.405968 
L 351.678957 266.405968 
L 354.958295 266.405968 
L 358.237634 266.405968 
L 361.516973 266.405968 
L 364.796312 266.405968 
L 368.075651 266.405968 
L 371.35499 266.405968 
L 374.634329 266.405968 
L 377.913667 266.405968 
L 381.193006 266.405968 
L 384.472345 266.405968 
L 387.751684 266.405968 
L 391.031023 266.405968 
L 391.031023 173.59717 
L 391.031023 173.59717 
L 387.751684 220.546299 
L 384.472345 249.233997 
L 381.193006 265.067066 
L 377.913667 272.206175 
L 374.634329 273.790296 
L 371.35499 272.129852 
L 368.075651 268.871878 
L 364.796312 265.140212 
L 361.516973 261.653536 
L 358.237634 258.82384 
L 354.958295 256.837672 
L 351.678957 255.722361 
L 348.399618 255.399174 
L 345.120279 255.725222 
L 341.84094 256.525733 
L 338.561601 257.618171 
L 335.282262 258.829531 
L 332.002924 260.007972 
L 328.723585 261.029855 
L 325.444246 261.803105 
L 322.164907 262.267717 
L 318.885568 262.394108 
L 315.606229 262.179923 
L 312.32689 261.645823 
L 309.047552 260.830682 
L 305.768213 259.786562 
L 302.488874 258.573749 
L 299.209535 257.256086 
L 295.930196 255.89678 
L 292.650857 254.554794 
L 289.371519 253.281917 
L 286.09218 252.120548 
L 282.812841 251.102201 
L 279.533502 250.246716 
L 276.254163 249.562125 
L 272.974824 249.045113 
L 269.695486 248.682004 
L 266.416147 248.450172 
L 263.136808 248.319782 
L 259.857469 248.255775 
L 256.57813 248.219973 
L 253.298791 248.173229 
L 250.019452 248.077504 
L 246.740114 247.897807 
L 243.460775 247.603897 
L 240.181436 247.171691 
L 236.902097 246.58432 
L 233.622758 245.832787 
L 230.343419 266.399824 
L 227.064081 266.400512 
L 223.784742 240.53406 
L 220.505403 239.093277 
L 217.226064 237.66385 
L 213.946725 236.271769 
L 210.667386 234.938816 
L 207.388048 233.680575 
L 204.108709 232.504493 
L 200.82937 231.408091 
L 197.550031 230.377376 
L 194.270692 229.385574 
L 190.991353 228.392228 
L 187.712014 227.342783 
L 184.432676 226.16869 
L 181.153337 224.788142 
L 177.873998 223.107469 
L 174.594659 221.023257 
L 171.31532 218.425224 
L 168.035981 215.199866 
L 164.756643 211.234869 
L 161.477304 206.424262 
L 158.197965 200.674256 
L 154.918626 193.909677 
L 151.639287 186.080878 
L 148.359948 177.170965 
L 145.08061 167.203142 
L 141.801271 156.247908 
L 138.521932 144.429827 
L 135.242593 131.933492 
L 131.963254 119.008273 
L 128.683915 105.971363 
L 125.404576 93.208567 
L 122.125238 81.172185 
L 118.845899 70.3753 
L 115.56656 61.381641 
L 112.287221 54.790139 
L 109.007882 51.213178 
L 105.728543 51.247432 
L 102.449205 55.436077 
L 99.169866 64.221054 
L 95.890527 77.883907 
L 92.611188 96.473619 
L 89.331849 119.719724 
L 86.05251 146.928793 
L 82.773171 176.862301 
L 79.493833 207.593657 
L 76.214494 236.342054 
L 72.935155 259.280605 
L 69.655816 271.316039 
L 66.376477 265.837053 
z
" clip-path="url(#pf8e5d8ee29)" style="fill: #1f77b4; fill-opacity: 0.166667"/>
   </g>
   <g id="PolyCollection_2">
    <path d="M 66.376477 256.685225 
L 66.376477 266.405968 
L 69.655816 266.405968 
L 72.935155 266.405968 
L 76.214494 266.405968 
L 79.493833 266.405968 
L 82.773171 266.405968 
L 86.05251 266.405968 
L 89.331849 266.405968 
L 92.611188 266.405968 
L 95.890527 266.405968 
L 99.169866 266.405968 
L 102.449205 266.405968 
L 105.728543 266.405968 
L 109.007882 266.405968 
L 112.287221 266.405968 
L 115.56656 266.405968 
L 118.845899 266.405968 
L 122.125238 266.405968 
L 125.404576 266.405968 
L 128.683915 266.405968 
L 131.963254 266.405968 
L 135.242593 266.405968 
L 138.521932 266.405968 
L 141.801271 266.405968 
L 145.08061 266.405968 
L 148.359948 266.405968 
L 151.639287 266.405968 
L 154.918626 266.405968 
L 158.197965 266.405968 
L 161.477304 266.405968 
L 164.756643 266.405968 
L 168.035981 266.405968 
L 171.31532 266.405968 
L 174.594659 266.405968 
L 177.873998 266.405968 
L 181.153337 266.405968 
L 184.432676 266.405968 
L 187.712014 266.405968 
L 190.991353 266.405968 
L 194.270692 266.405968 
L 197.550031 266.405968 
L 200.82937 266.405968 
L 204.108709 266.405968 
L 207.388048 266.405968 
L 210.667386 266.405968 
L 213.946725 266.405968 
L 217.226064 266.405968 
L 220.505403 266.405968 
L 223.784742 266.405968 
L 227.064081 266.405968 
L 230.343419 266.405968 
L 233.622758 266.405968 
L 236.902097 266.405968 
L 240.181436 266.405968 
L 243.460775 266.405968 
L 246.740114 266.405968 
L 250.019452 266.405968 
L 253.298791 266.405968 
L 256.57813 266.405968 
L 259.857469 266.405968 
L 263.136808 266.405968 
L 266.416147 266.405968 
L 269.695486 266.405968 
L 272.974824 266.405968 
L 276.254163 266.405968 
L 279.533502 266.405968 
L 282.812841 266.405968 
L 286.09218 266.405968 
L 289.371519 266.405968 
L 292.650857 266.405968 
L 295.930196 266.405968 
L 299.209535 266.405968 
L 302.488874 266.405968 
L 305.768213 266.405968 
L 309.047552 266.405968 
L 312.32689 266.405968 
L 315.606229 266.405968 
L 318.885568 266.405968 
L 322.164907 266.405968 
L 325.444246 266.405968 
L 328.723585 266.405968 
L 332.002924 266.405968 
L 335.282262 266.405968 
L 338.561601 266.405968 
L 341.84094 266.405968 
L 345.120279 266.405968 
L 348.399618 266.405968 
L 351.678957 266.405968 
L 354.958295 266.405968 
L 358.237634 266.405968 
L 361.516973 266.405968 
L 364.796312 266.405968 
L 368.075651 266.405968 
L 371.35499 266.405968 
L 374.634329 266.405968 
L 377.913667 266.405968 
L 381.193006 266.405968 
L 384.472345 266.405968 
L 387.751684 266.405968 
L 391.031023 266.405968 
L 391.031023 209.268494 
L 391.031023 209.268494 
L 387.751684 240.716224 
L 384.472345 259.06555 
L 381.193006 268.432341 
L 377.913667 271.931457 
L 374.634329 271.865547 
L 371.35499 269.88649 
L 368.075651 267.132443 
L 364.796312 264.343224 
L 361.516973 261.956571 
L 358.237634 260.187585 
L 354.958295 259.093475 
L 351.678957 258.625549 
L 348.399618 258.670197 
L 345.120279 259.080481 
L 341.84094 259.699752 
L 338.561601 260.378593 
L 335.282262 260.986251 
L 332.002924 261.417572 
L 328.723585 261.596355 
L 325.444246 261.475914 
L 322.164907 261.037546 
L 318.885568 260.287493 
L 315.606229 259.252915 
L 312.32689 257.977288 
L 309.047552 256.515592 
L 305.768213 254.929565 
L 302.488874 253.283254 
L 299.209535 251.63902 
L 295.930196 250.054134 
L 292.650857 248.578029 
L 289.371519 247.250258 
L 286.09218 246.099144 
L 282.812841 245.141138 
L 279.533502 244.380801 
L 276.254163 243.811375 
L 272.974824 243.415862 
L 269.695486 243.168503 
L 266.416147 243.036601 
L 263.136808 242.982539 
L 259.857469 242.965947 
L 256.57813 242.94587 
L 253.298791 242.882881 
L 250.019452 242.741031 
L 246.740114 242.489569 
L 243.460775 242.10435 
L 240.181436 241.568895 
L 236.902097 240.875041 
L 233.622758 240.023161 
L 230.343419 266.398919 
L 227.064081 266.399499 
L 223.784742 235.295816 
L 220.505403 234.056808 
L 217.226064 232.832941 
L 213.946725 231.648397 
L 210.667386 230.523081 
L 207.388048 229.470563 
L 204.108709 228.496103 
L 200.82937 227.594809 
L 197.550031 226.750044 
L 194.270692 225.932151 
L 190.991353 225.097593 
L 187.712014 224.188594 
L 184.432676 223.133354 
L 181.153337 221.84692 
L 177.873998 220.232767 
L 174.594659 218.185142 
L 171.31532 215.592207 
L 168.035981 212.339987 
L 164.756643 208.317117 
L 161.477304 203.420357 
L 158.197965 197.560799 
L 154.918626 190.670671 
L 151.639287 182.710594 
L 148.359948 173.67712 
L 145.08061 163.610302 
L 141.801271 152.601036 
L 138.521932 140.797812 
L 135.242593 128.412498 
L 131.963254 115.724664 
L 128.683915 103.083913 
L 125.404576 90.90961 
L 122.125238 79.687278 
L 118.845899 69.960889 
L 115.56656 62.320138 
L 112.287221 57.381726 
L 109.007882 55.76352 
L 105.728543 58.050387 
L 102.449205 64.750354 
L 99.169866 76.239605 
L 95.890527 92.694721 
L 92.611188 114.010385 
L 89.331849 139.700653 
L 86.05251 168.781708 
L 82.773171 199.633861 
L 79.493833 229.840382 
L 76.214494 256.000541 
L 72.935155 273.514086 
L 69.655816 276.334125 
L 66.376477 256.685225 
z
" clip-path="url(#pf8e5d8ee29)" style="fill: #ff7f0e; fill-opacity: 0.166667"/>
   </g>
   <g id="PolyCollection_3">
    <path d="M 66.376477 264.062729 
L 66.376477 266.405968 
L 69.655816 266.405968 
L 72.935155 266.405968 
L 76.214494 266.405968 
L 79.493833 266.405968 
L 82.773171 266.405968 
L 86.05251 266.405968 
L 89.331849 266.405968 
L 92.611188 266.405968 
L 95.890527 266.405968 
L 99.169866 266.405968 
L 102.449205 266.405968 
L 105.728543 266.405968 
L 109.007882 266.405968 
L 112.287221 266.405968 
L 115.56656 266.405968 
L 118.845899 266.405968 
L 122.125238 266.405968 
L 125.404576 266.405968 
L 128.683915 266.405968 
L 131.963254 266.405968 
L 135.242593 266.405968 
L 138.521932 266.405968 
L 141.801271 266.405968 
L 145.08061 266.405968 
L 148.359948 266.405968 
L 151.639287 266.405968 
L 154.918626 266.405968 
L 158.197965 266.405968 
L 161.477304 266.405968 
L 164.756643 266.405968 
L 168.035981 266.405968 
L 171.31532 266.405968 
L 174.594659 266.405968 
L 177.873998 266.405968 
L 181.153337 266.405968 
L 184.432676 266.405968 
L 187.712014 266.405968 
L 190.991353 266.405968 
L 194.270692 266.405968 
L 197.550031 266.405968 
L 200.82937 266.405968 
L 204.108709 266.405968 
L 207.388048 266.405968 
L 210.667386 266.405968 
L 213.946725 266.405968 
L 217.226064 266.405968 
L 220.505403 266.405968 
L 223.784742 266.405968 
L 227.064081 266.405968 
L 230.343419 266.405968 
L 233.622758 266.405968 
L 236.902097 266.405968 
L 240.181436 266.405968 
L 243.460775 266.405968 
L 246.740114 266.405968 
L 250.019452 266.405968 
L 253.298791 266.405968 
L 256.57813 266.405968 
L 259.857469 266.405968 
L 263.136808 266.405968 
L 266.416147 266.405968 
L 269.695486 266.405968 
L 272.974824 266.405968 
L 276.254163 266.405968 
L 279.533502 266.405968 
L 282.812841 266.405968 
L 286.09218 266.405968 
L 289.371519 266.405968 
L 292.650857 266.405968 
L 295.930196 266.405968 
L 299.209535 266.405968 
L 302.488874 266.405968 
L 305.768213 266.405968 
L 309.047552 266.405968 
L 312.32689 266.405968 
L 315.606229 266.405968 
L 318.885568 266.405968 
L 322.164907 266.405968 
L 325.444246 266.405968 
L 328.723585 266.405968 
L 332.002924 266.405968 
L 335.282262 266.405968 
L 338.561601 266.405968 
L 341.84094 266.405968 
L 345.120279 266.405968 
L 348.399618 266.405968 
L 351.678957 266.405968 
L 354.958295 266.405968 
L 358.237634 266.405968 
L 361.516973 266.405968 
L 364.796312 266.405968 
L 368.075651 266.405968 
L 371.35499 266.405968 
L 374.634329 266.405968 
L 377.913667 266.405968 
L 381.193006 266.405968 
L 384.472345 266.405968 
L 387.751684 266.405968 
L 391.031023 266.405968 
L 391.031023 168.823783 
L 391.031023 168.823783 
L 387.751684 220.514211 
L 384.472345 251.376064 
L 381.193006 267.765118 
L 377.913667 274.536067 
L 374.634329 275.31816 
L 371.35499 272.751854 
L 368.075651 268.69062 
L 364.796312 264.371717 
L 361.516973 260.559475 
L 358.237634 257.664307 
L 354.958295 255.840453 
L 351.678957 255.065161 
L 348.399618 255.20179 
L 345.120279 256.049102 
L 341.84094 257.378767 
L 338.561601 258.962936 
L 335.282262 260.593522 
L 332.002924 262.09467 
L 328.723585 263.329713 
L 325.444246 264.203781 
L 322.164907 264.663049 
L 318.885568 264.691523 
L 315.606229 264.306094 
L 312.32689 263.550509 
L 309.047552 262.488784 
L 305.768213 261.198504 
L 302.488874 259.764356 
L 299.209535 258.272162 
L 295.930196 256.803634 
L 292.650857 255.431961 
L 289.371519 254.218349 
L 286.09218 253.209514 
L 282.812841 252.436163 
L 279.533502 251.912386 
L 276.254163 251.635922 
L 272.974824 251.589188 
L 269.695486 251.740971 
L 266.416147 252.048663 
L 263.136808 252.460895 
L 259.857469 252.920455 
L 256.57813 253.367334 
L 253.298791 253.741784 
L 250.019452 253.987256 
L 246.740114 254.053104 
L 243.460775 253.896943 
L 240.181436 253.48659 
L 236.902097 252.801492 
L 233.622758 251.8336 
L 230.343419 266.399796 
L 227.064081 266.400539 
L 223.784742 245.353368 
L 220.505403 243.353602 
L 217.226064 241.310348 
L 213.946725 239.272311 
L 210.667386 237.285817 
L 207.388048 235.391874 
L 204.108709 233.623218 
L 200.82937 232.001446 
L 197.550031 230.534356 
L 194.270692 229.213603 
L 190.991353 228.012811 
L 187.712014 226.886232 
L 184.432676 225.768098 
L 181.153337 224.572751 
L 177.873998 223.195659 
L 174.594659 221.515399 
L 171.31532 219.396667 
L 168.035981 216.694373 
L 164.756643 213.258809 
L 161.477304 208.9419 
L 158.197965 203.604474 
L 154.918626 197.124457 
L 151.639287 189.405849 
L 148.359948 180.388301 
L 145.08061 170.057022 
L 141.801271 158.452716 
L 138.521932 145.68115 
L 135.242593 131.921903 
L 131.963254 117.435724 
L 128.683915 102.569886 
L 125.404576 87.760771 
L 122.125238 73.532862 
L 118.845899 60.49317 
L 115.56656 49.320014 
L 112.287221 40.74495 
L 109.007882 35.526492 
L 105.728543 34.414125 
L 102.449205 38.100954 
L 99.169866 47.163175 
L 95.890527 61.984354 
L 92.611188 82.662345 
L 89.331849 108.896467 
L 86.05251 139.852337 
L 82.773171 174.001584 
L 79.493833 208.933397 
L 76.214494 241.13465 
L 72.935155 265.735078 
L 69.655816 276.213744 
L 66.376477 264.062729 
z
" clip-path="url(#pf8e5d8ee29)" style="fill: #2ca02c; fill-opacity: 0.166667"/>
   </g>
   <g id="PolyCollection_4">
    <path d="M 66.376477 256.850553 
L 66.376477 266.405968 
L 69.655816 266.405968 
L 72.935155 266.405968 
L 76.214494 266.405968 
L 79.493833 266.405968 
L 82.773171 266.405968 
L 86.05251 266.405968 
L 89.331849 266.405968 
L 92.611188 266.405968 
L 95.890527 266.405968 
L 99.169866 266.405968 
L 102.449205 266.405968 
L 105.728543 266.405968 
L 109.007882 266.405968 
L 112.287221 266.405968 
L 115.56656 266.405968 
L 118.845899 266.405968 
L 122.125238 266.405968 
L 125.404576 266.405968 
L 128.683915 266.405968 
L 131.963254 266.405968 
L 135.242593 266.405968 
L 138.521932 266.405968 
L 141.801271 266.405968 
L 145.08061 266.405968 
L 148.359948 266.405968 
L 151.639287 266.405968 
L 154.918626 266.405968 
L 158.197965 266.405968 
L 161.477304 266.405968 
L 164.756643 266.405968 
L 168.035981 266.405968 
L 171.31532 266.405968 
L 174.594659 266.405968 
L 177.873998 266.405968 
L 181.153337 266.405968 
L 184.432676 266.405968 
L 187.712014 266.405968 
L 190.991353 266.405968 
L 194.270692 266.405968 
L 197.550031 266.405968 
L 200.82937 266.405968 
L 204.108709 266.405968 
L 207.388048 266.405968 
L 210.667386 266.405968 
L 213.946725 266.405968 
L 217.226064 266.405968 
L 220.505403 266.405968 
L 223.784742 266.405968 
L 227.064081 266.405968 
L 230.343419 266.405968 
L 233.622758 266.405968 
L 236.902097 266.405968 
L 240.181436 266.405968 
L 243.460775 266.405968 
L 246.740114 266.405968 
L 250.019452 266.405968 
L 253.298791 266.405968 
L 256.57813 266.405968 
L 259.857469 266.405968 
L 263.136808 266.405968 
L 266.416147 266.405968 
L 269.695486 266.405968 
L 272.974824 266.405968 
L 276.254163 266.405968 
L 279.533502 266.405968 
L 282.812841 266.405968 
L 286.09218 266.405968 
L 289.371519 266.405968 
L 292.650857 266.405968 
L 295.930196 266.405968 
L 299.209535 266.405968 
L 302.488874 266.405968 
L 305.768213 266.405968 
L 309.047552 266.405968 
L 312.32689 266.405968 
L 315.606229 266.405968 
L 318.885568 266.405968 
L 322.164907 266.405968 
L 325.444246 266.405968 
L 328.723585 266.405968 
L 332.002924 266.405968 
L 335.282262 266.405968 
L 338.561601 266.405968 
L 341.84094 266.405968 
L 345.120279 266.405968 
L 348.399618 266.405968 
L 351.678957 266.405968 
L 354.958295 266.405968 
L 358.237634 266.405968 
L 361.516973 266.405968 
L 364.796312 266.405968 
L 368.075651 266.405968 
L 371.35499 266.405968 
L 374.634329 266.405968 
L 377.913667 266.405968 
L 381.193006 266.405968 
L 384.472345 266.405968 
L 387.751684 266.405968 
L 391.031023 266.405968 
L 391.031023 209.480161 
L 391.031023 209.480161 
L 387.751684 239.899332 
L 384.472345 257.769496 
L 381.193006 267.02794 
L 377.913667 270.653601 
L 374.634329 270.848448 
L 371.35499 269.192437 
L 368.075651 266.774916 
L 364.796312 264.30515 
L 361.516973 262.204415 
L 358.237634 260.6819 
L 354.958295 259.796485 
L 351.678957 259.506258 
L 348.399618 259.70749 
L 345.120279 260.264593 
L 341.84094 261.032471 
L 338.561601 261.872495 
L 335.282262 262.663228 
L 332.002924 263.306882 
L 328.723585 263.732384 
L 325.444246 263.895817 
L 322.164907 263.778884 
L 318.885568 263.385987 
L 315.606229 262.740394 
L 312.32689 261.879889 
L 309.047552 260.852264 
L 305.768213 259.710901 
L 302.488874 258.510657 
L 299.209535 257.304222 
L 295.930196 256.139044 
L 292.650857 255.054899 
L 289.371519 254.082133 
L 286.09218 253.240588 
L 282.812841 252.539173 
L 279.533502 251.976043 
L 276.254163 251.539316 
L 272.974824 251.20826 
L 269.695486 250.954844 
L 266.416147 250.745582 
L 263.136808 250.54355 
L 259.857469 250.310496 
L 256.57813 250.008939 
L 253.298791 249.604163 
L 250.019452 249.066039 
L 246.740114 248.370575 
L 243.460775 247.501158 
L 240.181436 246.449417 
L 236.902097 245.215672 
L 233.622758 243.808948 
L 230.343419 266.399594 
L 227.064081 266.400171 
L 223.784742 237.352241 
L 220.505403 235.575912 
L 217.226064 233.841762 
L 213.946725 232.179626 
L 210.667386 230.613849 
L 207.388048 229.161142 
L 204.108709 227.828531 
L 200.82937 226.611501 
L 197.550031 225.492401 
L 194.270692 224.439218 
L 190.991353 223.404799 
L 187.712014 222.326601 
L 184.432676 221.12706 
L 181.153337 219.714635 
L 177.873998 217.985602 
L 174.594659 215.826627 
L 171.31532 213.118155 
L 168.035981 209.738632 
L 164.756643 205.569524 
L 161.477304 200.501108 
L 158.197965 194.438964 
L 154.918626 187.311037 
L 151.639287 179.075155 
L 148.359948 169.726783 
L 145.08061 159.306797 
L 141.801271 147.908973 
L 138.521932 135.686853 
L 135.242593 122.859574 
L 131.963254 109.716182 
L 128.683915 96.617884 
L 125.404576 83.997605 
L 122.125238 72.356147 
L 118.845899 62.254131 
L 115.56656 54.298841 
L 112.287221 49.12496 
L 109.007882 47.368083 
L 105.728543 49.629799 
L 102.449205 56.432969 
L 99.169866 68.16575 
L 95.890527 85.012737 
L 92.611188 106.871459 
L 89.331849 133.252346 
L 86.05251 163.160072 
L 82.773171 194.95406 
L 79.493833 226.185728 
L 76.214494 253.409902 
L 72.935155 271.967581 
L 69.655816 275.737113 
L 66.376477 256.850553 
z
" clip-path="url(#pf8e5d8ee29)" style="fill: #d62728; fill-opacity: 0.166667"/>
   </g>
   <g id="PolyCollection_5">
    <path d="M 66.376477 273.214632 
L 66.376477 266.405968 
L 69.655816 266.405968 
L 72.935155 266.405968 
L 76.214494 266.405968 
L 79.493833 266.405968 
L 82.773171 266.405968 
L 86.05251 266.405968 
L 89.331849 266.405968 
L 92.611188 266.405968 
L 95.890527 266.405968 
L 99.169866 266.405968 
L 102.449205 266.405968 
L 105.728543 266.405968 
L 109.007882 266.405968 
L 112.287221 266.405968 
L 115.56656 266.405968 
L 118.845899 266.405968 
L 122.125238 266.405968 
L 125.404576 266.405968 
L 128.683915 266.405968 
L 131.963254 266.405968 
L 135.242593 266.405968 
L 138.521932 266.405968 
L 141.801271 266.405968 
L 145.08061 266.405968 
L 148.359948 266.405968 
L 151.639287 266.405968 
L 154.918626 266.405968 
L 158.197965 266.405968 
L 161.477304 266.405968 
L 164.756643 266.405968 
L 168.035981 266.405968 
L 171.31532 266.405968 
L 174.594659 266.405968 
L 177.873998 266.405968 
L 181.153337 266.405968 
L 184.432676 266.405968 
L 187.712014 266.405968 
L 190.991353 266.405968 
L 194.270692 266.405968 
L 197.550031 266.405968 
L 200.82937 266.405968 
L 204.108709 266.405968 
L 207.388048 266.405968 
L 210.667386 266.405968 
L 213.946725 266.405968 
L 217.226064 266.405968 
L 220.505403 266.405968 
L 223.784742 266.405968 
L 227.064081 266.405968 
L 230.343419 266.405968 
L 233.622758 266.405968 
L 236.902097 266.405968 
L 240.181436 266.405968 
L 243.460775 266.405968 
L 246.740114 266.405968 
L 250.019452 266.405968 
L 253.298791 266.405968 
L 256.57813 266.405968 
L 259.857469 266.405968 
L 263.136808 266.405968 
L 266.416147 266.405968 
L 269.695486 266.405968 
L 272.974824 266.405968 
L 276.254163 266.405968 
L 279.533502 266.405968 
L 282.812841 266.405968 
L 286.09218 266.405968 
L 289.371519 266.405968 
L 292.650857 266.405968 
L 295.930196 266.405968 
L 299.209535 266.405968 
L 302.488874 266.405968 
L 305.768213 266.405968 
L 309.047552 266.405968 
L 312.32689 266.405968 
L 315.606229 266.405968 
L 318.885568 266.405968 
L 322.164907 266.405968 
L 325.444246 266.405968 
L 328.723585 266.405968 
L 332.002924 266.405968 
L 335.282262 266.405968 
L 338.561601 266.405968 
L 341.84094 266.405968 
L 345.120279 266.405968 
L 348.399618 266.405968 
L 351.678957 266.405968 
L 354.958295 266.405968 
L 358.237634 266.405968 
L 361.516973 266.405968 
L 364.796312 266.405968 
L 368.075651 266.405968 
L 371.35499 266.405968 
L 374.634329 266.405968 
L 377.913667 266.405968 
L 381.193006 266.405968 
L 384.472345 266.405968 
L 387.751684 266.405968 
L 391.031023 266.405968 
L 391.031023 168.065199 
L 391.031023 168.065199 
L 387.751684 218.77892 
L 384.472345 249.556148 
L 381.193006 266.342172 
L 377.913667 273.705426 
L 374.634329 275.086107 
L 371.35499 273.010144 
L 368.075651 269.272126 
L 364.796312 265.090568 
L 361.516973 261.238605 
L 358.237634 258.152976 
L 354.958295 256.023916 
L 351.678957 254.868363 
L 348.399618 254.58868 
L 345.120279 255.018868 
L 341.84094 255.960107 
L 338.561601 257.207233 
L 335.282262 258.567632 
L 332.002924 259.873867 
L 328.723585 260.991196 
L 325.444246 261.821013 
L 322.164907 262.301131 
L 318.885568 262.403678 
L 315.606229 262.131294 
L 312.32689 261.51221 
L 309.047552 260.594691 
L 305.768213 259.441253 
L 302.488874 258.12297 
L 299.209535 256.714139 
L 295.930196 255.287496 
L 292.650857 253.910111 
L 289.371519 252.640072 
L 286.09218 251.523988 
L 282.812841 250.595321 
L 279.533502 249.873542 
L 276.254163 249.364037 
L 272.974824 249.058715 
L 269.695486 248.937213 
L 266.416147 248.968606 
L 263.136808 249.113512 
L 259.857469 249.326477 
L 256.57813 249.558523 
L 253.298791 249.759743 
L 250.019452 249.881843 
L 246.740114 249.880512 
L 243.460775 249.717549 
L 240.181436 249.362638 
L 236.902097 248.794731 
L 233.622758 248.002965 
L 230.343419 266.399605 
L 227.064081 266.400181 
L 223.784742 242.509487 
L 220.505403 240.716228 
L 217.226064 238.893331 
L 213.946725 237.085299 
L 210.667386 235.334685 
L 207.388048 233.679447 
L 204.108709 232.150261 
L 200.82937 230.767908 
L 197.550031 229.540813 
L 194.270692 228.462861 
L 190.991353 227.511587 
L 187.712014 226.646855 
L 184.432676 225.810116 
L 181.153337 224.92437 
L 177.873998 223.894883 
L 174.594659 222.61078 
L 171.31532 220.947544 
L 168.035981 218.770477 
L 164.756643 215.939148 
L 161.477304 212.312817 
L 158.197965 207.756798 
L 154.918626 202.149693 
L 151.639287 195.391385 
L 148.359948 187.411627 
L 145.08061 178.17903 
L 141.801271 167.710179 
L 138.521932 156.078563 
L 135.242593 143.422918 
L 131.963254 129.954532 
L 128.683915 115.962967 
L 125.404576 101.819568 
L 122.125238 87.978052 
L 118.845899 74.971344 
L 115.56656 63.403764 
L 112.287221 53.937499 
L 109.007882 47.272235 
L 105.728543 44.116652 
L 102.449205 45.150359 
L 99.169866 50.974723 
L 95.890527 62.050869 
L 92.611188 78.622973 
L 89.331849 100.624809 
L 86.05251 127.567334 
L 82.773171 158.404891 
L 79.493833 191.377424 
L 76.214494 223.825906 
L 72.935155 251.97793 
L 69.655816 270.700233 
L 66.376477 273.214632 
z
" clip-path="url(#pf8e5d8ee29)" style="fill: #9467bd; fill-opacity: 0.166667"/>
   </g>
   <g id="PolyCollection_6">
    <path d="M 66.376477 258.062074 
L 66.376477 266.405968 
L 69.655816 266.405968 
L 72.935155 266.405968 
L 76.214494 266.405968 
L 79.493833 266.405968 
L 82.773171 266.405968 
L 86.05251 266.405968 
L 89.331849 266.405968 
L 92.611188 266.405968 
L 95.890527 266.405968 
L 99.169866 266.405968 
L 102.449205 266.405968 
L 105.728543 266.405968 
L 109.007882 266.405968 
L 112.287221 266.405968 
L 115.56656 266.405968 
L 118.845899 266.405968 
L 122.125238 266.405968 
L 125.404576 266.405968 
L 128.683915 266.405968 
L 131.963254 266.405968 
L 135.242593 266.405968 
L 138.521932 266.405968 
L 141.801271 266.405968 
L 145.08061 266.405968 
L 148.359948 266.405968 
L 151.639287 266.405968 
L 154.918626 266.405968 
L 158.197965 266.405968 
L 161.477304 266.405968 
L 164.756643 266.405968 
L 168.035981 266.405968 
L 171.31532 266.405968 
L 174.594659 266.405968 
L 177.873998 266.405968 
L 181.153337 266.405968 
L 184.432676 266.405968 
L 187.712014 266.405968 
L 190.991353 266.405968 
L 194.270692 266.405968 
L 197.550031 266.405968 
L 200.82937 266.405968 
L 204.108709 266.405968 
L 207.388048 266.405968 
L 210.667386 266.405968 
L 213.946725 266.405968 
L 217.226064 266.405968 
L 220.505403 266.405968 
L 223.784742 266.405968 
L 227.064081 266.405968 
L 230.343419 266.405968 
L 233.622758 266.405968 
L 236.902097 266.405968 
L 240.181436 266.405968 
L 243.460775 266.405968 
L 246.740114 266.405968 
L 250.019452 266.405968 
L 253.298791 266.405968 
L 256.57813 266.405968 
L 259.857469 266.405968 
L 263.136808 266.405968 
L 266.416147 266.405968 
L 269.695486 266.405968 
L 272.974824 266.405968 
L 276.254163 266.405968 
L 279.533502 266.405968 
L 282.812841 266.405968 
L 286.09218 266.405968 
L 289.371519 266.405968 
L 292.650857 266.405968 
L 295.930196 266.405968 
L 299.209535 266.405968 
L 302.488874 266.405968 
L 305.768213 266.405968 
L 309.047552 266.405968 
L 312.32689 266.405968 
L 315.606229 266.405968 
L 318.885568 266.405968 
L 322.164907 266.405968 
L 325.444246 266.405968 
L 328.723585 266.405968 
L 332.002924 266.405968 
L 335.282262 266.405968 
L 338.561601 266.405968 
L 341.84094 266.405968 
L 345.120279 266.405968 
L 348.399618 266.405968 
L 351.678957 266.405968 
L 354.958295 266.405968 
L 358.237634 266.405968 
L 361.516973 266.405968 
L 364.796312 266.405968 
L 368.075651 266.405968 
L 371.35499 266.405968 
L 374.634329 266.405968 
L 377.913667 266.405968 
L 381.193006 266.405968 
L 384.472345 266.405968 
L 387.751684 266.405968 
L 391.031023 266.405968 
L 391.031023 214.012615 
L 391.031023 214.012615 
L 387.751684 241.596271 
L 384.472345 257.935357 
L 381.193006 266.49268 
L 377.913667 269.905903 
L 374.634329 270.140606 
L 371.35499 268.621403 
L 368.075651 266.343483 
L 364.796312 263.966778 
L 361.516973 261.894737 
L 358.237634 260.339591 
L 354.958295 259.375772 
L 351.678957 258.983039 
L 348.399618 259.080728 
L 345.120279 259.554374 
L 341.84094 260.275879 
L 338.561601 261.118244 
L 335.282262 261.965786 
L 332.002924 262.720677 
L 328.723585 263.306513 
L 325.444246 263.669559 
L 322.164907 263.778221 
L 318.885568 263.621232 
L 315.606229 263.204944 
L 312.32689 262.550085 
L 309.047552 261.68826 
L 305.768213 260.658424 
L 302.488874 259.503515 
L 299.209535 258.267392 
L 295.930196 256.992157 
L 292.650857 255.715962 
L 289.371519 254.4713 
L 286.09218 253.283827 
L 282.812841 252.171675 
L 279.533502 251.145243 
L 276.254163 250.207419 
L 272.974824 249.354172 
L 269.695486 248.575459 
L 266.416147 247.856367 
L 263.136808 247.178424 
L 259.857469 246.521004 
L 256.57813 245.862745 
L 253.298791 245.18293 
L 250.019452 244.462742 
L 246.740114 243.68636 
L 243.460775 242.841827 
L 240.181436 241.921661 
L 236.902097 240.923182 
L 233.622758 239.848523 
L 230.343419 266.399699 
L 227.064081 266.400138 
L 223.784742 234.935989 
L 220.505403 233.724399 
L 217.226064 232.563678 
L 213.946725 231.461383 
L 210.667386 230.419231 
L 207.388048 229.431746 
L 204.108709 228.485021 
L 200.82937 227.555681 
L 197.550031 226.610094 
L 194.270692 225.603895 
L 190.991353 224.481902 
L 187.712014 223.17846 
L 184.432676 221.618285 
L 181.153337 219.717837 
L 177.873998 217.387277 
L 174.594659 214.533015 
L 171.31532 211.060874 
L 168.035981 206.879851 
L 164.756643 201.906464 
L 161.477304 196.069627 
L 158.197965 189.315979 
L 154.918626 181.615587 
L 151.639287 172.967863 
L 148.359948 163.407552 
L 145.08061 153.010576 
L 141.801271 141.8995 
L 138.521932 130.248312 
L 135.242593 118.286198 
L 131.963254 106.299904 
L 128.683915 94.634247 
L 125.404576 83.690255 
L 122.125238 73.920368 
L 118.845899 65.820042 
L 115.56656 59.915043 
L 112.287221 56.74363 
L 109.007882 56.832727 
L 105.728543 60.667125 
L 102.449205 68.650623 
L 99.169866 81.05796 
L 95.890527 97.976227 
L 92.611188 119.234404 
L 89.331849 144.319486 
L 86.05251 172.277584 
L 82.773171 201.59824 
L 79.493833 230.080049 
L 76.214494 254.675567 
L 72.935155 271.313308 
L 69.655816 274.694497 
L 66.376477 258.062074 
z
" clip-path="url(#pf8e5d8ee29)" style="fill: #8c564b; fill-opacity: 0.166667"/>
   </g>
   <g id="matplotlib.axis_1">
    <g id="xtick_1">
     <g id="line2d_1">
      <defs>
       <path id="m4daa93eb87" d="M 0 0 
L 0 3.5 
" style="stroke: #000000; stroke-width: 0.8"/>
      </defs>
      <g>
       <use xlink:href="#m4daa93eb87" x="66.376477" y="288.430125" style="stroke: #000000; stroke-width: 0.8"/>
      </g>
     </g>
     <g id="text_1">
      <!-- 0.0 -->
      <g transform="translate(58.424915 303.028562) scale(0.1 -0.1)">
       <defs>
        <path id="DejaVuSans-30" d="M 2034 4250 
Q 1547 4250 1301 3770 
Q 1056 3291 1056 2328 
Q 1056 1369 1301 889 
Q 1547 409 2034 409 
Q 2525 409 2770 889 
Q 3016 1369 3016 2328 
Q 3016 3291 2770 3770 
Q 2525 4250 2034 4250 
z
M 2034 4750 
Q 2819 4750 3233 4129 
Q 3647 3509 3647 2328 
Q 3647 1150 3233 529 
Q 2819 -91 2034 -91 
Q 1250 -91 836 529 
Q 422 1150 422 2328 
Q 422 3509 836 4129 
Q 1250 4750 2034 4750 
z
" transform="scale(0.015625)"/>
        <path id="DejaVuSans-2e" d="M 684 794 
L 1344 794 
L 1344 0 
L 684 0 
L 684 794 
z
" transform="scale(0.015625)"/>
       </defs>
       <use xlink:href="#DejaVuSans-30"/>
       <use xlink:href="#DejaVuSans-2e" x="63.623047"/>
       <use xlink:href="#DejaVuSans-30" x="95.410156"/>
      </g>
     </g>
    </g>
    <g id="xtick_2">
     <g id="line2d_2">
      <g>
       <use xlink:href="#m4daa93eb87" x="131.963254" y="288.430125" style="stroke: #000000; stroke-width: 0.8"/>
      </g>
     </g>
     <g id="text_2">
      <!-- 0.2 -->
      <g transform="translate(124.011692 303.028562) scale(0.1 -0.1)">
       <defs>
        <path id="DejaVuSans-32" d="M 1228 531 
L 3431 531 
L 3431 0 
L 469 0 
L 469 531 
Q 828 903 1448 1529 
Q 2069 2156 2228 2338 
Q 2531 2678 2651 2914 
Q 2772 3150 2772 3378 
Q 2772 3750 2511 3984 
Q 2250 4219 1831 4219 
Q 1534 4219 1204 4116 
Q 875 4013 500 3803 
L 500 4441 
Q 881 4594 1212 4672 
Q 1544 4750 1819 4750 
Q 2544 4750 2975 4387 
Q 3406 4025 3406 3419 
Q 3406 3131 3298 2873 
Q 3191 2616 2906 2266 
Q 2828 2175 2409 1742 
Q 1991 1309 1228 531 
z
" transform="scale(0.015625)"/>
       </defs>
       <use xlink:href="#DejaVuSans-30"/>
       <use xlink:href="#DejaVuSans-2e" x="63.623047"/>
       <use xlink:href="#DejaVuSans-32" x="95.410156"/>
      </g>
     </g>
    </g>
    <g id="xtick_3">
     <g id="line2d_3">
      <g>
       <use xlink:href="#m4daa93eb87" x="197.550031" y="288.430125" style="stroke: #000000; stroke-width: 0.8"/>
      </g>
     </g>
     <g id="text_3">
      <!-- 0.4 -->
      <g transform="translate(189.598468 303.028562) scale(0.1 -0.1)">
       <defs>
        <path id="DejaVuSans-34" d="M 2419 4116 
L 825 1625 
L 2419 1625 
L 2419 4116 
z
M 2253 4666 
L 3047 4666 
L 3047 1625 
L 3713 1625 
L 3713 1100 
L 3047 1100 
L 3047 0 
L 2419 0 
L 2419 1100 
L 313 1100 
L 313 1709 
L 2253 4666 
z
" transform="scale(0.015625)"/>
       </defs>
       <use xlink:href="#DejaVuSans-30"/>
       <use xlink:href="#DejaVuSans-2e" x="63.623047"/>
       <use xlink:href="#DejaVuSans-34" x="95.410156"/>
      </g>
     </g>
    </g>
    <g id="xtick_4">
     <g id="line2d_4">
      <g>
       <use xlink:href="#m4daa93eb87" x="263.136808" y="288.430125" style="stroke: #000000; stroke-width: 0.8"/>
      </g>
     </g>
     <g id="text_4">
      <!-- 0.6 -->
      <g transform="translate(255.185245 303.028562) scale(0.1 -0.1)">
       <defs>
        <path id="DejaVuSans-36" d="M 2113 2584 
Q 1688 2584 1439 2293 
Q 1191 2003 1191 1497 
Q 1191 994 1439 701 
Q 1688 409 2113 409 
Q 2538 409 2786 701 
Q 3034 994 3034 1497 
Q 3034 2003 2786 2293 
Q 2538 2584 2113 2584 
z
M 3366 4563 
L 3366 3988 
Q 3128 4100 2886 4159 
Q 2644 4219 2406 4219 
Q 1781 4219 1451 3797 
Q 1122 3375 1075 2522 
Q 1259 2794 1537 2939 
Q 1816 3084 2150 3084 
Q 2853 3084 3261 2657 
Q 3669 2231 3669 1497 
Q 3669 778 3244 343 
Q 2819 -91 2113 -91 
Q 1303 -91 875 529 
Q 447 1150 447 2328 
Q 447 3434 972 4092 
Q 1497 4750 2381 4750 
Q 2619 4750 2861 4703 
Q 3103 4656 3366 4563 
z
" transform="scale(0.015625)"/>
       </defs>
       <use xlink:href="#DejaVuSans-30"/>
       <use xlink:href="#DejaVuSans-2e" x="63.623047"/>
       <use xlink:href="#DejaVuSans-36" x="95.410156"/>
      </g>
     </g>
    </g>
    <g id="xtick_5">
     <g id="line2d_5">
      <g>
       <use xlink:href="#m4daa93eb87" x="328.723585" y="288.430125" style="stroke: #000000; stroke-width: 0.8"/>
      </g>
     </g>
     <g id="text_5">
      <!-- 0.8 -->
      <g transform="translate(320.772022 303.028562) scale(0.1 -0.1)">
       <defs>
        <path id="DejaVuSans-38" d="M 2034 2216 
Q 1584 2216 1326 1975 
Q 1069 1734 1069 1313 
Q 1069 891 1326 650 
Q 1584 409 2034 409 
Q 2484 409 2743 651 
Q 3003 894 3003 1313 
Q 3003 1734 2745 1975 
Q 2488 2216 2034 2216 
z
M 1403 2484 
Q 997 2584 770 2862 
Q 544 3141 544 3541 
Q 544 4100 942 4425 
Q 1341 4750 2034 4750 
Q 2731 4750 3128 4425 
Q 3525 4100 3525 3541 
Q 3525 3141 3298 2862 
Q 3072 2584 2669 2484 
Q 3125 2378 3379 2068 
Q 3634 1759 3634 1313 
Q 3634 634 3220 271 
Q 2806 -91 2034 -91 
Q 1263 -91 848 271 
Q 434 634 434 1313 
Q 434 1759 690 2068 
Q 947 2378 1403 2484 
z
M 1172 3481 
Q 1172 3119 1398 2916 
Q 1625 2713 2034 2713 
Q 2441 2713 2670 2916 
Q 2900 3119 2900 3481 
Q 2900 3844 2670 4047 
Q 2441 4250 2034 4250 
Q 1625 4250 1398 4047 
Q 1172 3844 1172 3481 
z
" transform="scale(0.015625)"/>
       </defs>
       <use xlink:href="#DejaVuSans-30"/>
       <use xlink:href="#DejaVuSans-2e" x="63.623047"/>
       <use xlink:href="#DejaVuSans-38" x="95.410156"/>
      </g>
     </g>
    </g>
    <g id="xtick_6">
     <g id="line2d_6">
      <g>
       <use xlink:href="#m4daa93eb87" x="394.310362" y="288.430125" style="stroke: #000000; stroke-width: 0.8"/>
      </g>
     </g>
     <g id="text_6">
      <!-- 1.0 -->
      <g transform="translate(386.358799 303.028562) scale(0.1 -0.1)">
       <defs>
        <path id="DejaVuSans-31" d="M 794 531 
L 1825 531 
L 1825 4091 
L 703 3866 
L 703 4441 
L 1819 4666 
L 2450 4666 
L 2450 531 
L 3481 531 
L 3481 0 
L 794 0 
L 794 531 
z
" transform="scale(0.015625)"/>
       </defs>
       <use xlink:href="#DejaVuSans-31"/>
       <use xlink:href="#DejaVuSans-2e" x="63.623047"/>
       <use xlink:href="#DejaVuSans-30" x="95.410156"/>
      </g>
     </g>
    </g>
    <g id="text_7">
     <!-- Pixel values -->
     <g transform="translate(199.292031 316.706687) scale(0.1 -0.1)">
      <defs>
       <path id="DejaVuSans-50" d="M 1259 4147 
L 1259 2394 
L 2053 2394 
Q 2494 2394 2734 2622 
Q 2975 2850 2975 3272 
Q 2975 3691 2734 3919 
Q 2494 4147 2053 4147 
L 1259 4147 
z
M 628 4666 
L 2053 4666 
Q 2838 4666 3239 4311 
Q 3641 3956 3641 3272 
Q 3641 2581 3239 2228 
Q 2838 1875 2053 1875 
L 1259 1875 
L 1259 0 
L 628 0 
L 628 4666 
z
" transform="scale(0.015625)"/>
       <path id="DejaVuSans-69" d="M 603 3500 
L 1178 3500 
L 1178 0 
L 603 0 
L 603 3500 
z
M 603 4863 
L 1178 4863 
L 1178 4134 
L 603 4134 
L 603 4863 
z
" transform="scale(0.015625)"/>
       <path id="DejaVuSans-78" d="M 3513 3500 
L 2247 1797 
L 3578 0 
L 2900 0 
L 1881 1375 
L 863 0 
L 184 0 
L 1544 1831 
L 300 3500 
L 978 3500 
L 1906 2253 
L 2834 3500 
L 3513 3500 
z
" transform="scale(0.015625)"/>
       <path id="DejaVuSans-65" d="M 3597 1894 
L 3597 1613 
L 953 1613 
Q 991 1019 1311 708 
Q 1631 397 2203 397 
Q 2534 397 2845 478 
Q 3156 559 3463 722 
L 3463 178 
Q 3153 47 2828 -22 
Q 2503 -91 2169 -91 
Q 1331 -91 842 396 
Q 353 884 353 1716 
Q 353 2575 817 3079 
Q 1281 3584 2069 3584 
Q 2775 3584 3186 3129 
Q 3597 2675 3597 1894 
z
M 3022 2063 
Q 3016 2534 2758 2815 
Q 2500 3097 2075 3097 
Q 1594 3097 1305 2825 
Q 1016 2553 972 2059 
L 3022 2063 
z
" transform="scale(0.015625)"/>
       <path id="DejaVuSans-6c" d="M 603 4863 
L 1178 4863 
L 1178 0 
L 603 0 
L 603 4863 
z
" transform="scale(0.015625)"/>
       <path id="DejaVuSans-20" transform="scale(0.015625)"/>
       <path id="DejaVuSans-76" d="M 191 3500 
L 800 3500 
L 1894 563 
L 2988 3500 
L 3597 3500 
L 2284 0 
L 1503 0 
L 191 3500 
z
" transform="scale(0.015625)"/>
       <path id="DejaVuSans-61" d="M 2194 1759 
Q 1497 1759 1228 1600 
Q 959 1441 959 1056 
Q 959 750 1161 570 
Q 1363 391 1709 391 
Q 2188 391 2477 730 
Q 2766 1069 2766 1631 
L 2766 1759 
L 2194 1759 
z
M 3341 1997 
L 3341 0 
L 2766 0 
L 2766 531 
Q 2569 213 2275 61 
Q 1981 -91 1556 -91 
Q 1019 -91 701 211 
Q 384 513 384 1019 
Q 384 1609 779 1909 
Q 1175 2209 1959 2209 
L 2766 2209 
L 2766 2266 
Q 2766 2663 2505 2880 
Q 2244 3097 1772 3097 
Q 1472 3097 1187 3025 
Q 903 2953 641 2809 
L 641 3341 
Q 956 3463 1253 3523 
Q 1550 3584 1831 3584 
Q 2591 3584 2966 3190 
Q 3341 2797 3341 1997 
z
" transform="scale(0.015625)"/>
       <path id="DejaVuSans-75" d="M 544 1381 
L 544 3500 
L 1119 3500 
L 1119 1403 
Q 1119 906 1312 657 
Q 1506 409 1894 409 
Q 2359 409 2629 706 
Q 2900 1003 2900 1516 
L 2900 3500 
L 3475 3500 
L 3475 0 
L 2900 0 
L 2900 538 
Q 2691 219 2414 64 
Q 2138 -91 1772 -91 
Q 1169 -91 856 284 
Q 544 659 544 1381 
z
M 1991 3584 
L 1991 3584 
z
" transform="scale(0.015625)"/>
       <path id="DejaVuSans-73" d="M 2834 3397 
L 2834 2853 
Q 2591 2978 2328 3040 
Q 2066 3103 1784 3103 
Q 1356 3103 1142 2972 
Q 928 2841 928 2578 
Q 928 2378 1081 2264 
Q 1234 2150 1697 2047 
L 1894 2003 
Q 2506 1872 2764 1633 
Q 3022 1394 3022 966 
Q 3022 478 2636 193 
Q 2250 -91 1575 -91 
Q 1294 -91 989 -36 
Q 684 19 347 128 
L 347 722 
Q 666 556 975 473 
Q 1284 391 1588 391 
Q 1994 391 2212 530 
Q 2431 669 2431 922 
Q 2431 1156 2273 1281 
Q 2116 1406 1581 1522 
L 1381 1569 
Q 847 1681 609 1914 
Q 372 2147 372 2553 
Q 372 3047 722 3315 
Q 1072 3584 1716 3584 
Q 2034 3584 2315 3537 
Q 2597 3491 2834 3397 
z
" transform="scale(0.015625)"/>
      </defs>
      <use xlink:href="#DejaVuSans-50"/>
      <use xlink:href="#DejaVuSans-69" x="58.052734"/>
      <use xlink:href="#DejaVuSans-78" x="85.835938"/>
      <use xlink:href="#DejaVuSans-65" x="141.890625"/>
      <use xlink:href="#DejaVuSans-6c" x="203.414062"/>
      <use xlink:href="#DejaVuSans-20" x="231.197266"/>
      <use xlink:href="#DejaVuSans-76" x="262.984375"/>
      <use xlink:href="#DejaVuSans-61" x="322.164062"/>
      <use xlink:href="#DejaVuSans-6c" x="383.443359"/>
      <use xlink:href="#DejaVuSans-75" x="411.226562"/>
      <use xlink:href="#DejaVuSans-65" x="474.605469"/>
      <use xlink:href="#DejaVuSans-73" x="536.128906"/>
     </g>
    </g>
   </g>
   <g id="matplotlib.axis_2">
    <g id="ytick_1">
     <g id="line2d_7">
      <defs>
       <path id="m7517159e92" d="M 0 0 
L -3.5 0 
" style="stroke: #000000; stroke-width: 0.8"/>
      </defs>
      <g>
       <use xlink:href="#m7517159e92" x="50.14375" y="266.405968" style="stroke: #000000; stroke-width: 0.8"/>
      </g>
     </g>
     <g id="text_8">
      <!-- 0.00 -->
      <g transform="translate(20.878125 270.205187) scale(0.1 -0.1)">
       <use xlink:href="#DejaVuSans-30"/>
       <use xlink:href="#DejaVuSans-2e" x="63.623047"/>
       <use xlink:href="#DejaVuSans-30" x="95.410156"/>
       <use xlink:href="#DejaVuSans-30" x="159.033203"/>
      </g>
     </g>
    </g>
    <g id="ytick_2">
     <g id="line2d_8">
      <g>
       <use xlink:href="#m7517159e92" x="50.14375" y="215.000923" style="stroke: #000000; stroke-width: 0.8"/>
      </g>
     </g>
     <g id="text_9">
      <!-- 0.01 -->
      <g transform="translate(20.878125 218.800142) scale(0.1 -0.1)">
       <use xlink:href="#DejaVuSans-30"/>
       <use xlink:href="#DejaVuSans-2e" x="63.623047"/>
       <use xlink:href="#DejaVuSans-30" x="95.410156"/>
       <use xlink:href="#DejaVuSans-31" x="159.033203"/>
      </g>
     </g>
    </g>
    <g id="ytick_3">
     <g id="line2d_9">
      <g>
       <use xlink:href="#m7517159e92" x="50.14375" y="163.595878" style="stroke: #000000; stroke-width: 0.8"/>
      </g>
     </g>
     <g id="text_10">
      <!-- 0.02 -->
      <g transform="translate(20.878125 167.395097) scale(0.1 -0.1)">
       <use xlink:href="#DejaVuSans-30"/>
       <use xlink:href="#DejaVuSans-2e" x="63.623047"/>
       <use xlink:href="#DejaVuSans-30" x="95.410156"/>
       <use xlink:href="#DejaVuSans-32" x="159.033203"/>
      </g>
     </g>
    </g>
    <g id="ytick_4">
     <g id="line2d_10">
      <g>
       <use xlink:href="#m7517159e92" x="50.14375" y="112.190833" style="stroke: #000000; stroke-width: 0.8"/>
      </g>
     </g>
     <g id="text_11">
      <!-- 0.03 -->
      <g transform="translate(20.878125 115.990051) scale(0.1 -0.1)">
       <defs>
        <path id="DejaVuSans-33" d="M 2597 2516 
Q 3050 2419 3304 2112 
Q 3559 1806 3559 1356 
Q 3559 666 3084 287 
Q 2609 -91 1734 -91 
Q 1441 -91 1130 -33 
Q 819 25 488 141 
L 488 750 
Q 750 597 1062 519 
Q 1375 441 1716 441 
Q 2309 441 2620 675 
Q 2931 909 2931 1356 
Q 2931 1769 2642 2001 
Q 2353 2234 1838 2234 
L 1294 2234 
L 1294 2753 
L 1863 2753 
Q 2328 2753 2575 2939 
Q 2822 3125 2822 3475 
Q 2822 3834 2567 4026 
Q 2313 4219 1838 4219 
Q 1578 4219 1281 4162 
Q 984 4106 628 3988 
L 628 4550 
Q 988 4650 1302 4700 
Q 1616 4750 1894 4750 
Q 2613 4750 3031 4423 
Q 3450 4097 3450 3541 
Q 3450 3153 3228 2886 
Q 3006 2619 2597 2516 
z
" transform="scale(0.015625)"/>
       </defs>
       <use xlink:href="#DejaVuSans-30"/>
       <use xlink:href="#DejaVuSans-2e" x="63.623047"/>
       <use xlink:href="#DejaVuSans-30" x="95.410156"/>
       <use xlink:href="#DejaVuSans-33" x="159.033203"/>
      </g>
     </g>
    </g>
    <g id="ytick_5">
     <g id="line2d_11">
      <g>
       <use xlink:href="#m7517159e92" x="50.14375" y="60.785787" style="stroke: #000000; stroke-width: 0.8"/>
      </g>
     </g>
     <g id="text_12">
      <!-- 0.04 -->
      <g transform="translate(20.878125 64.585006) scale(0.1 -0.1)">
       <use xlink:href="#DejaVuSans-30"/>
       <use xlink:href="#DejaVuSans-2e" x="63.623047"/>
       <use xlink:href="#DejaVuSans-30" x="95.410156"/>
       <use xlink:href="#DejaVuSans-34" x="159.033203"/>
      </g>
     </g>
    </g>
    <g id="text_13">
     <!-- Frequency -->
     <g transform="translate(14.798438 181.203812) rotate(-90) scale(0.1 -0.1)">
      <defs>
       <path id="DejaVuSans-46" d="M 628 4666 
L 3309 4666 
L 3309 4134 
L 1259 4134 
L 1259 2759 
L 3109 2759 
L 3109 2228 
L 1259 2228 
L 1259 0 
L 628 0 
L 628 4666 
z
" transform="scale(0.015625)"/>
       <path id="DejaVuSans-72" d="M 2631 2963 
Q 2534 3019 2420 3045 
Q 2306 3072 2169 3072 
Q 1681 3072 1420 2755 
Q 1159 2438 1159 1844 
L 1159 0 
L 581 0 
L 581 3500 
L 1159 3500 
L 1159 2956 
Q 1341 3275 1631 3429 
Q 1922 3584 2338 3584 
Q 2397 3584 2469 3576 
Q 2541 3569 2628 3553 
L 2631 2963 
z
" transform="scale(0.015625)"/>
       <path id="DejaVuSans-71" d="M 947 1747 
Q 947 1113 1208 752 
Q 1469 391 1925 391 
Q 2381 391 2643 752 
Q 2906 1113 2906 1747 
Q 2906 2381 2643 2742 
Q 2381 3103 1925 3103 
Q 1469 3103 1208 2742 
Q 947 2381 947 1747 
z
M 2906 525 
Q 2725 213 2448 61 
Q 2172 -91 1784 -91 
Q 1150 -91 751 415 
Q 353 922 353 1747 
Q 353 2572 751 3078 
Q 1150 3584 1784 3584 
Q 2172 3584 2448 3432 
Q 2725 3281 2906 2969 
L 2906 3500 
L 3481 3500 
L 3481 -1331 
L 2906 -1331 
L 2906 525 
z
" transform="scale(0.015625)"/>
       <path id="DejaVuSans-6e" d="M 3513 2113 
L 3513 0 
L 2938 0 
L 2938 2094 
Q 2938 2591 2744 2837 
Q 2550 3084 2163 3084 
Q 1697 3084 1428 2787 
Q 1159 2491 1159 1978 
L 1159 0 
L 581 0 
L 581 3500 
L 1159 3500 
L 1159 2956 
Q 1366 3272 1645 3428 
Q 1925 3584 2291 3584 
Q 2894 3584 3203 3211 
Q 3513 2838 3513 2113 
z
" transform="scale(0.015625)"/>
       <path id="DejaVuSans-63" d="M 3122 3366 
L 3122 2828 
Q 2878 2963 2633 3030 
Q 2388 3097 2138 3097 
Q 1578 3097 1268 2742 
Q 959 2388 959 1747 
Q 959 1106 1268 751 
Q 1578 397 2138 397 
Q 2388 397 2633 464 
Q 2878 531 3122 666 
L 3122 134 
Q 2881 22 2623 -34 
Q 2366 -91 2075 -91 
Q 1284 -91 818 406 
Q 353 903 353 1747 
Q 353 2603 823 3093 
Q 1294 3584 2113 3584 
Q 2378 3584 2631 3529 
Q 2884 3475 3122 3366 
z
" transform="scale(0.015625)"/>
       <path id="DejaVuSans-79" d="M 2059 -325 
Q 1816 -950 1584 -1140 
Q 1353 -1331 966 -1331 
L 506 -1331 
L 506 -850 
L 844 -850 
Q 1081 -850 1212 -737 
Q 1344 -625 1503 -206 
L 1606 56 
L 191 3500 
L 800 3500 
L 1894 763 
L 2988 3500 
L 3597 3500 
L 2059 -325 
z
" transform="scale(0.015625)"/>
      </defs>
      <use xlink:href="#DejaVuSans-46"/>
      <use xlink:href="#DejaVuSans-72" x="50.269531"/>
      <use xlink:href="#DejaVuSans-65" x="89.132812"/>
      <use xlink:href="#DejaVuSans-71" x="150.65625"/>
      <use xlink:href="#DejaVuSans-75" x="214.132812"/>
      <use xlink:href="#DejaVuSans-65" x="277.511719"/>
      <use xlink:href="#DejaVuSans-6e" x="339.035156"/>
      <use xlink:href="#DejaVuSans-63" x="402.414062"/>
      <use xlink:href="#DejaVuSans-79" x="457.394531"/>
     </g>
    </g>
   </g>
   <g id="line2d_12">
    <path d="M 66.376477 265.837053 
L 69.655816 271.316039 
L 72.935155 259.280605 
L 76.214494 236.342054 
L 79.493833 207.593657 
L 82.773171 176.862301 
L 86.05251 146.928793 
L 89.331849 119.719724 
L 92.611188 96.473619 
L 95.890527 77.883907 
L 99.169866 64.221054 
L 102.449205 55.436077 
L 105.728543 51.247432 
L 109.007882 51.213178 
L 112.287221 54.790139 
L 115.56656 61.381641 
L 118.845899 70.3753 
L 122.125238 81.172185 
L 125.404576 93.208567 
L 128.683915 105.971363 
L 131.963254 119.008273 
L 135.242593 131.933492 
L 138.521932 144.429827 
L 141.801271 156.247908 
L 145.08061 167.203142 
L 148.359948 177.170965 
L 151.639287 186.080878 
L 154.918626 193.909677 
L 158.197965 200.674256 
L 161.477304 206.424262 
L 164.756643 211.234869 
L 168.035981 215.199866 
L 171.31532 218.425224 
L 174.594659 221.023257 
L 177.873998 223.107469 
L 181.153337 224.788142 
L 184.432676 226.16869 
L 187.712014 227.342783 
L 190.991353 228.392228 
L 194.270692 229.385574 
L 197.550031 230.377376 
L 200.82937 231.408091 
L 204.108709 232.504493 
L 207.388048 233.680575 
L 210.667386 234.938816 
L 213.946725 236.271769 
L 217.226064 237.66385 
L 220.505403 239.093277 
L 223.784742 240.53406 
L 227.064081 266.400512 
L 230.343419 266.399824 
L 233.622758 245.832787 
L 236.902097 246.58432 
L 240.181436 247.171691 
L 243.460775 247.603897 
L 246.740114 247.897807 
L 250.019452 248.077504 
L 253.298791 248.173229 
L 256.57813 248.219973 
L 259.857469 248.255775 
L 263.136808 248.319782 
L 266.416147 248.450172 
L 269.695486 248.682004 
L 272.974824 249.045113 
L 276.254163 249.562125 
L 279.533502 250.246716 
L 282.812841 251.102201 
L 286.09218 252.120548 
L 289.371519 253.281917 
L 292.650857 254.554794 
L 295.930196 255.89678 
L 299.209535 257.256086 
L 302.488874 258.573749 
L 305.768213 259.786562 
L 309.047552 260.830682 
L 312.32689 261.645823 
L 315.606229 262.179923 
L 318.885568 262.394108 
L 322.164907 262.267717 
L 325.444246 261.803105 
L 328.723585 261.029855 
L 332.002924 260.007972 
L 335.282262 258.829531 
L 338.561601 257.618171 
L 341.84094 256.525733 
L 345.120279 255.725222 
L 348.399618 255.399174 
L 351.678957 255.722361 
L 354.958295 256.837672 
L 358.237634 258.82384 
L 361.516973 261.653536 
L 364.796312 265.140212 
L 368.075651 268.871878 
L 371.35499 272.129852 
L 374.634329 273.790296 
L 377.913667 272.206175 
L 381.193006 265.067066 
L 384.472345 249.233997 
L 387.751684 220.546299 
L 391.031023 173.59717 
" clip-path="url(#pf8e5d8ee29)" style="fill: none; stroke: #1f77b4; stroke-width: 1.5; stroke-linecap: square"/>
   </g>
   <g id="line2d_13">
    <path d="M 66.376477 256.685225 
L 69.655816 276.334125 
L 72.935155 273.514086 
L 76.214494 256.000541 
L 79.493833 229.840382 
L 82.773171 199.633861 
L 86.05251 168.781708 
L 89.331849 139.700653 
L 92.611188 114.010385 
L 95.890527 92.694721 
L 99.169866 76.239605 
L 102.449205 64.750354 
L 105.728543 58.050387 
L 109.007882 55.76352 
L 112.287221 57.381726 
L 115.56656 62.320138 
L 118.845899 69.960889 
L 122.125238 79.687278 
L 125.404576 90.90961 
L 128.683915 103.083913 
L 131.963254 115.724664 
L 135.242593 128.412498 
L 138.521932 140.797812 
L 141.801271 152.601036 
L 145.08061 163.610302 
L 148.359948 173.67712 
L 151.639287 182.710594 
L 154.918626 190.670671 
L 158.197965 197.560799 
L 161.477304 203.420357 
L 164.756643 208.317117 
L 168.035981 212.339987 
L 171.31532 215.592207 
L 174.594659 218.185142 
L 177.873998 220.232767 
L 181.153337 221.84692 
L 184.432676 223.133354 
L 187.712014 224.188594 
L 190.991353 225.097593 
L 194.270692 225.932151 
L 197.550031 226.750044 
L 200.82937 227.594809 
L 204.108709 228.496103 
L 207.388048 229.470563 
L 210.667386 230.523081 
L 213.946725 231.648397 
L 217.226064 232.832941 
L 220.505403 234.056808 
L 223.784742 235.295816 
L 227.064081 266.399499 
L 230.343419 266.398919 
L 233.622758 240.023161 
L 236.902097 240.875041 
L 240.181436 241.568895 
L 243.460775 242.10435 
L 246.740114 242.489569 
L 250.019452 242.741031 
L 253.298791 242.882881 
L 256.57813 242.94587 
L 259.857469 242.965947 
L 263.136808 242.982539 
L 266.416147 243.036601 
L 269.695486 243.168503 
L 272.974824 243.415862 
L 276.254163 243.811375 
L 279.533502 244.380801 
L 282.812841 245.141138 
L 286.09218 246.099144 
L 289.371519 247.250258 
L 292.650857 248.578029 
L 295.930196 250.054134 
L 299.209535 251.63902 
L 302.488874 253.283254 
L 305.768213 254.929565 
L 309.047552 256.515592 
L 312.32689 257.977288 
L 315.606229 259.252915 
L 318.885568 260.287493 
L 322.164907 261.037546 
L 325.444246 261.475914 
L 328.723585 261.596355 
L 332.002924 261.417572 
L 335.282262 260.986251 
L 338.561601 260.378593 
L 341.84094 259.699752 
L 345.120279 259.080481 
L 348.399618 258.670197 
L 351.678957 258.625549 
L 354.958295 259.093475 
L 358.237634 260.187585 
L 361.516973 261.956571 
L 364.796312 264.343224 
L 368.075651 267.132443 
L 371.35499 269.88649 
L 374.634329 271.865547 
L 377.913667 271.931457 
L 381.193006 268.432341 
L 384.472345 259.06555 
L 387.751684 240.716224 
L 391.031023 209.268494 
" clip-path="url(#pf8e5d8ee29)" style="fill: none; stroke: #ff7f0e; stroke-width: 1.5; stroke-linecap: square"/>
   </g>
   <g id="line2d_14">
    <path d="M 66.376477 264.062729 
L 69.655816 276.213744 
L 72.935155 265.735078 
L 76.214494 241.13465 
L 79.493833 208.933397 
L 82.773171 174.001584 
L 86.05251 139.852337 
L 89.331849 108.896467 
L 92.611188 82.662345 
L 95.890527 61.984354 
L 99.169866 47.163175 
L 102.449205 38.100954 
L 105.728543 34.414125 
L 109.007882 35.526492 
L 112.287221 40.74495 
L 115.56656 49.320014 
L 118.845899 60.49317 
L 122.125238 73.532862 
L 125.404576 87.760771 
L 128.683915 102.569886 
L 131.963254 117.435724 
L 135.242593 131.921903 
L 138.521932 145.68115 
L 141.801271 158.452716 
L 145.08061 170.057022 
L 148.359948 180.388301 
L 151.639287 189.405849 
L 154.918626 197.124457 
L 158.197965 203.604474 
L 161.477304 208.9419 
L 164.756643 213.258809 
L 168.035981 216.694373 
L 171.31532 219.396667 
L 174.594659 221.515399 
L 177.873998 223.195659 
L 181.153337 224.572751 
L 184.432676 225.768098 
L 187.712014 226.886232 
L 190.991353 228.012811 
L 194.270692 229.213603 
L 197.550031 230.534356 
L 200.82937 232.001446 
L 204.108709 233.623218 
L 207.388048 235.391874 
L 210.667386 237.285817 
L 213.946725 239.272311 
L 217.226064 241.310348 
L 220.505403 243.353602 
L 223.784742 245.353368 
L 227.064081 266.400539 
L 230.343419 266.399796 
L 233.622758 251.8336 
L 236.902097 252.801492 
L 240.181436 253.48659 
L 243.460775 253.896943 
L 246.740114 254.053104 
L 250.019452 253.987256 
L 253.298791 253.741784 
L 256.57813 253.367334 
L 259.857469 252.920455 
L 263.136808 252.460895 
L 266.416147 252.048663 
L 269.695486 251.740971 
L 272.974824 251.589188 
L 276.254163 251.635922 
L 279.533502 251.912386 
L 282.812841 252.436163 
L 286.09218 253.209514 
L 289.371519 254.218349 
L 292.650857 255.431961 
L 295.930196 256.803634 
L 299.209535 258.272162 
L 302.488874 259.764356 
L 305.768213 261.198504 
L 309.047552 262.488784 
L 312.32689 263.550509 
L 315.606229 264.306094 
L 318.885568 264.691523 
L 322.164907 264.663049 
L 325.444246 264.203781 
L 328.723585 263.329713 
L 332.002924 262.09467 
L 335.282262 260.593522 
L 338.561601 258.962936 
L 341.84094 257.378767 
L 345.120279 256.049102 
L 348.399618 255.20179 
L 351.678957 255.065161 
L 354.958295 255.840453 
L 358.237634 257.664307 
L 361.516973 260.559475 
L 364.796312 264.371717 
L 368.075651 268.69062 
L 371.35499 272.751854 
L 374.634329 275.31816 
L 377.913667 274.536067 
L 381.193006 267.765118 
L 384.472345 251.376064 
L 387.751684 220.514211 
L 391.031023 168.823783 
" clip-path="url(#pf8e5d8ee29)" style="fill: none; stroke: #2ca02c; stroke-width: 1.5; stroke-linecap: square"/>
   </g>
   <g id="line2d_15">
    <path d="M 66.376477 256.850553 
L 69.655816 275.737113 
L 72.935155 271.967581 
L 76.214494 253.409902 
L 79.493833 226.185728 
L 82.773171 194.95406 
L 86.05251 163.160072 
L 89.331849 133.252346 
L 92.611188 106.871459 
L 95.890527 85.012737 
L 99.169866 68.16575 
L 102.449205 56.432969 
L 105.728543 49.629799 
L 109.007882 47.368083 
L 112.287221 49.12496 
L 115.56656 54.298841 
L 118.845899 62.254131 
L 122.125238 72.356147 
L 125.404576 83.997605 
L 128.683915 96.617884 
L 131.963254 109.716182 
L 135.242593 122.859574 
L 138.521932 135.686853 
L 141.801271 147.908973 
L 145.08061 159.306797 
L 148.359948 169.726783 
L 151.639287 179.075155 
L 154.918626 187.311037 
L 158.197965 194.438964 
L 161.477304 200.501108 
L 164.756643 205.569524 
L 168.035981 209.738632 
L 171.31532 213.118155 
L 174.594659 215.826627 
L 177.873998 217.985602 
L 181.153337 219.714635 
L 184.432676 221.12706 
L 187.712014 222.326601 
L 190.991353 223.404799 
L 194.270692 224.439218 
L 197.550031 225.492401 
L 200.82937 226.611501 
L 204.108709 227.828531 
L 207.388048 229.161142 
L 210.667386 230.613849 
L 213.946725 232.179626 
L 217.226064 233.841762 
L 220.505403 235.575912 
L 223.784742 237.352241 
L 227.064081 266.400171 
L 230.343419 266.399594 
L 233.622758 243.808948 
L 236.902097 245.215672 
L 240.181436 246.449417 
L 243.460775 247.501158 
L 246.740114 248.370575 
L 250.019452 249.066039 
L 253.298791 249.604163 
L 256.57813 250.008939 
L 259.857469 250.310496 
L 263.136808 250.54355 
L 266.416147 250.745582 
L 269.695486 250.954844 
L 272.974824 251.20826 
L 276.254163 251.539316 
L 279.533502 251.976043 
L 282.812841 252.539173 
L 286.09218 253.240588 
L 289.371519 254.082133 
L 292.650857 255.054899 
L 295.930196 256.139044 
L 299.209535 257.304222 
L 302.488874 258.510657 
L 305.768213 259.710901 
L 309.047552 260.852264 
L 312.32689 261.879889 
L 315.606229 262.740394 
L 318.885568 263.385987 
L 322.164907 263.778884 
L 325.444246 263.895817 
L 328.723585 263.732384 
L 332.002924 263.306882 
L 335.282262 262.663228 
L 338.561601 261.872495 
L 341.84094 261.032471 
L 345.120279 260.264593 
L 348.399618 259.70749 
L 351.678957 259.506258 
L 354.958295 259.796485 
L 358.237634 260.6819 
L 361.516973 262.204415 
L 364.796312 264.30515 
L 368.075651 266.774916 
L 371.35499 269.192437 
L 374.634329 270.848448 
L 377.913667 270.653601 
L 381.193006 267.02794 
L 384.472345 257.769496 
L 387.751684 239.899332 
L 391.031023 209.480161 
" clip-path="url(#pf8e5d8ee29)" style="fill: none; stroke: #d62728; stroke-width: 1.5; stroke-linecap: square"/>
   </g>
   <g id="line2d_16">
    <path d="M 66.376477 273.214632 
L 69.655816 270.700233 
L 72.935155 251.97793 
L 76.214494 223.825906 
L 79.493833 191.377424 
L 82.773171 158.404891 
L 86.05251 127.567334 
L 89.331849 100.624809 
L 92.611188 78.622973 
L 95.890527 62.050869 
L 99.169866 50.974723 
L 102.449205 45.150359 
L 105.728543 44.116652 
L 109.007882 47.272235 
L 112.287221 53.937499 
L 115.56656 63.403764 
L 118.845899 74.971344 
L 122.125238 87.978052 
L 125.404576 101.819568 
L 128.683915 115.962967 
L 131.963254 129.954532 
L 135.242593 143.422918 
L 138.521932 156.078563 
L 141.801271 167.710179 
L 145.08061 178.17903 
L 148.359948 187.411627 
L 151.639287 195.391385 
L 154.918626 202.149693 
L 158.197965 207.756798 
L 161.477304 212.312817 
L 164.756643 215.939148 
L 168.035981 218.770477 
L 171.31532 220.947544 
L 174.594659 222.61078 
L 177.873998 223.894883 
L 181.153337 224.92437 
L 184.432676 225.810116 
L 187.712014 226.646855 
L 190.991353 227.511587 
L 194.270692 228.462861 
L 197.550031 229.540813 
L 200.82937 230.767908 
L 204.108709 232.150261 
L 207.388048 233.679447 
L 210.667386 235.334685 
L 213.946725 237.085299 
L 217.226064 238.893331 
L 220.505403 240.716228 
L 223.784742 242.509487 
L 227.064081 266.400181 
L 230.343419 266.399605 
L 233.622758 248.002965 
L 236.902097 248.794731 
L 240.181436 249.362638 
L 243.460775 249.717549 
L 246.740114 249.880512 
L 250.019452 249.881843 
L 253.298791 249.759743 
L 256.57813 249.558523 
L 259.857469 249.326477 
L 263.136808 249.113512 
L 266.416147 248.968606 
L 269.695486 248.937213 
L 272.974824 249.058715 
L 276.254163 249.364037 
L 279.533502 249.873542 
L 282.812841 250.595321 
L 286.09218 251.523988 
L 289.371519 252.640072 
L 292.650857 253.910111 
L 295.930196 255.287496 
L 299.209535 256.714139 
L 302.488874 258.12297 
L 305.768213 259.441253 
L 309.047552 260.594691 
L 312.32689 261.51221 
L 315.606229 262.131294 
L 318.885568 262.403678 
L 322.164907 262.301131 
L 325.444246 261.821013 
L 328.723585 260.991196 
L 332.002924 259.873867 
L 335.282262 258.567632 
L 338.561601 257.207233 
L 341.84094 255.960107 
L 345.120279 255.018868 
L 348.399618 254.58868 
L 351.678957 254.868363 
L 354.958295 256.023916 
L 358.237634 258.152976 
L 361.516973 261.238605 
L 364.796312 265.090568 
L 368.075651 269.272126 
L 371.35499 273.010144 
L 374.634329 275.086107 
L 377.913667 273.705426 
L 381.193006 266.342172 
L 384.472345 249.556148 
L 387.751684 218.77892 
L 391.031023 168.065199 
" clip-path="url(#pf8e5d8ee29)" style="fill: none; stroke: #9467bd; stroke-width: 1.5; stroke-linecap: square"/>
   </g>
   <g id="line2d_17">
    <path d="M 66.376477 258.062074 
L 69.655816 274.694497 
L 72.935155 271.313308 
L 76.214494 254.675567 
L 79.493833 230.080049 
L 82.773171 201.59824 
L 86.05251 172.277584 
L 89.331849 144.319486 
L 92.611188 119.234404 
L 95.890527 97.976227 
L 99.169866 81.05796 
L 102.449205 68.650623 
L 105.728543 60.667125 
L 109.007882 56.832727 
L 112.287221 56.74363 
L 115.56656 59.915043 
L 118.845899 65.820042 
L 122.125238 73.920368 
L 125.404576 83.690255 
L 128.683915 94.634247 
L 131.963254 106.299904 
L 135.242593 118.286198 
L 138.521932 130.248312 
L 141.801271 141.8995 
L 145.08061 153.010576 
L 148.359948 163.407552 
L 151.639287 172.967863 
L 154.918626 181.615587 
L 158.197965 189.315979 
L 161.477304 196.069627 
L 164.756643 201.906464 
L 168.035981 206.879851 
L 171.31532 211.060874 
L 174.594659 214.533015 
L 177.873998 217.387277 
L 181.153337 219.717837 
L 184.432676 221.618285 
L 187.712014 223.17846 
L 190.991353 224.481902 
L 194.270692 225.603895 
L 197.550031 226.610094 
L 200.82937 227.555681 
L 204.108709 228.485021 
L 207.388048 229.431746 
L 210.667386 230.419231 
L 213.946725 231.461383 
L 217.226064 232.563678 
L 220.505403 233.724399 
L 223.784742 234.935989 
L 227.064081 266.400138 
L 230.343419 266.399699 
L 233.622758 239.848523 
L 236.902097 240.923182 
L 240.181436 241.921661 
L 243.460775 242.841827 
L 246.740114 243.68636 
L 250.019452 244.462742 
L 253.298791 245.18293 
L 256.57813 245.862745 
L 259.857469 246.521004 
L 263.136808 247.178424 
L 266.416147 247.856367 
L 269.695486 248.575459 
L 272.974824 249.354172 
L 276.254163 250.207419 
L 279.533502 251.145243 
L 282.812841 252.171675 
L 286.09218 253.283827 
L 289.371519 254.4713 
L 292.650857 255.715962 
L 295.930196 256.992157 
L 299.209535 258.267392 
L 302.488874 259.503515 
L 305.768213 260.658424 
L 309.047552 261.68826 
L 312.32689 262.550085 
L 315.606229 263.204944 
L 318.885568 263.621232 
L 322.164907 263.778221 
L 325.444246 263.669559 
L 328.723585 263.306513 
L 332.002924 262.720677 
L 335.282262 261.965786 
L 338.561601 261.118244 
L 341.84094 260.275879 
L 345.120279 259.554374 
L 348.399618 259.080728 
L 351.678957 258.983039 
L 354.958295 259.375772 
L 358.237634 260.339591 
L 361.516973 261.894737 
L 364.796312 263.966778 
L 368.075651 266.343483 
L 371.35499 268.621403 
L 374.634329 270.140606 
L 377.913667 269.905903 
L 381.193006 266.49268 
L 384.472345 257.935357 
L 387.751684 241.596271 
L 391.031023 214.012615 
" clip-path="url(#pf8e5d8ee29)" style="fill: none; stroke: #8c564b; stroke-width: 1.5; stroke-linecap: square"/>
   </g>
   <g id="patch_3">
    <path d="M 50.14375 288.430125 
L 50.14375 22.318125 
" style="fill: none; stroke: #000000; stroke-width: 0.8; stroke-linejoin: miter; stroke-linecap: square"/>
   </g>
   <g id="patch_4">
    <path d="M 407.26375 288.430125 
L 407.26375 22.318125 
" style="fill: none; stroke: #000000; stroke-width: 0.8; stroke-linejoin: miter; stroke-linecap: square"/>
   </g>
   <g id="patch_5">
    <path d="M 50.14375 288.430125 
L 407.26375 288.430125 
" style="fill: none; stroke: #000000; stroke-width: 0.8; stroke-linejoin: miter; stroke-linecap: square"/>
   </g>
   <g id="patch_6">
    <path d="M 50.14375 22.318125 
L 407.26375 22.318125 
" style="fill: none; stroke: #000000; stroke-width: 0.8; stroke-linejoin: miter; stroke-linecap: square"/>
   </g>
   <g id="text_14">
    <!-- FA - mni_prob_Parietal_Lobe -->
    <g transform="translate(144.826563 16.318125) scale(0.12 -0.12)">
     <defs>
      <path id="DejaVuSans-41" d="M 2188 4044 
L 1331 1722 
L 3047 1722 
L 2188 4044 
z
M 1831 4666 
L 2547 4666 
L 4325 0 
L 3669 0 
L 3244 1197 
L 1141 1197 
L 716 0 
L 50 0 
L 1831 4666 
z
" transform="scale(0.015625)"/>
      <path id="DejaVuSans-2d" d="M 313 2009 
L 1997 2009 
L 1997 1497 
L 313 1497 
L 313 2009 
z
" transform="scale(0.015625)"/>
      <path id="DejaVuSans-6d" d="M 3328 2828 
Q 3544 3216 3844 3400 
Q 4144 3584 4550 3584 
Q 5097 3584 5394 3201 
Q 5691 2819 5691 2113 
L 5691 0 
L 5113 0 
L 5113 2094 
Q 5113 2597 4934 2840 
Q 4756 3084 4391 3084 
Q 3944 3084 3684 2787 
Q 3425 2491 3425 1978 
L 3425 0 
L 2847 0 
L 2847 2094 
Q 2847 2600 2669 2842 
Q 2491 3084 2119 3084 
Q 1678 3084 1418 2786 
Q 1159 2488 1159 1978 
L 1159 0 
L 581 0 
L 581 3500 
L 1159 3500 
L 1159 2956 
Q 1356 3278 1631 3431 
Q 1906 3584 2284 3584 
Q 2666 3584 2933 3390 
Q 3200 3197 3328 2828 
z
" transform="scale(0.015625)"/>
      <path id="DejaVuSans-5f" d="M 3263 -1063 
L 3263 -1509 
L -63 -1509 
L -63 -1063 
L 3263 -1063 
z
" transform="scale(0.015625)"/>
      <path id="DejaVuSans-70" d="M 1159 525 
L 1159 -1331 
L 581 -1331 
L 581 3500 
L 1159 3500 
L 1159 2969 
Q 1341 3281 1617 3432 
Q 1894 3584 2278 3584 
Q 2916 3584 3314 3078 
Q 3713 2572 3713 1747 
Q 3713 922 3314 415 
Q 2916 -91 2278 -91 
Q 1894 -91 1617 61 
Q 1341 213 1159 525 
z
M 3116 1747 
Q 3116 2381 2855 2742 
Q 2594 3103 2138 3103 
Q 1681 3103 1420 2742 
Q 1159 2381 1159 1747 
Q 1159 1113 1420 752 
Q 1681 391 2138 391 
Q 2594 391 2855 752 
Q 3116 1113 3116 1747 
z
" transform="scale(0.015625)"/>
      <path id="DejaVuSans-6f" d="M 1959 3097 
Q 1497 3097 1228 2736 
Q 959 2375 959 1747 
Q 959 1119 1226 758 
Q 1494 397 1959 397 
Q 2419 397 2687 759 
Q 2956 1122 2956 1747 
Q 2956 2369 2687 2733 
Q 2419 3097 1959 3097 
z
M 1959 3584 
Q 2709 3584 3137 3096 
Q 3566 2609 3566 1747 
Q 3566 888 3137 398 
Q 2709 -91 1959 -91 
Q 1206 -91 779 398 
Q 353 888 353 1747 
Q 353 2609 779 3096 
Q 1206 3584 1959 3584 
z
" transform="scale(0.015625)"/>
      <path id="DejaVuSans-62" d="M 3116 1747 
Q 3116 2381 2855 2742 
Q 2594 3103 2138 3103 
Q 1681 3103 1420 2742 
Q 1159 2381 1159 1747 
Q 1159 1113 1420 752 
Q 1681 391 2138 391 
Q 2594 391 2855 752 
Q 3116 1113 3116 1747 
z
M 1159 2969 
Q 1341 3281 1617 3432 
Q 1894 3584 2278 3584 
Q 2916 3584 3314 3078 
Q 3713 2572 3713 1747 
Q 3713 922 3314 415 
Q 2916 -91 2278 -91 
Q 1894 -91 1617 61 
Q 1341 213 1159 525 
L 1159 0 
L 581 0 
L 581 4863 
L 1159 4863 
L 1159 2969 
z
" transform="scale(0.015625)"/>
      <path id="DejaVuSans-74" d="M 1172 4494 
L 1172 3500 
L 2356 3500 
L 2356 3053 
L 1172 3053 
L 1172 1153 
Q 1172 725 1289 603 
Q 1406 481 1766 481 
L 2356 481 
L 2356 0 
L 1766 0 
Q 1100 0 847 248 
Q 594 497 594 1153 
L 594 3053 
L 172 3053 
L 172 3500 
L 594 3500 
L 594 4494 
L 1172 4494 
z
" transform="scale(0.015625)"/>
      <path id="DejaVuSans-4c" d="M 628 4666 
L 1259 4666 
L 1259 531 
L 3531 531 
L 3531 0 
L 628 0 
L 628 4666 
z
" transform="scale(0.015625)"/>
     </defs>
     <use xlink:href="#DejaVuSans-46"/>
     <use xlink:href="#DejaVuSans-41" x="48.394531"/>
     <use xlink:href="#DejaVuSans-20" x="116.802734"/>
     <use xlink:href="#DejaVuSans-2d" x="148.589844"/>
     <use xlink:href="#DejaVuSans-20" x="184.673828"/>
     <use xlink:href="#DejaVuSans-6d" x="216.460938"/>
     <use xlink:href="#DejaVuSans-6e" x="313.873047"/>
     <use xlink:href="#DejaVuSans-69" x="377.251953"/>
     <use xlink:href="#DejaVuSans-5f" x="405.035156"/>
     <use xlink:href="#DejaVuSans-70" x="455.035156"/>
     <use xlink:href="#DejaVuSans-72" x="518.511719"/>
     <use xlink:href="#DejaVuSans-6f" x="557.375"/>
     <use xlink:href="#DejaVuSans-62" x="618.556641"/>
     <use xlink:href="#DejaVuSans-5f" x="682.033203"/>
     <use xlink:href="#DejaVuSans-50" x="732.033203"/>
     <use xlink:href="#DejaVuSans-61" x="787.835938"/>
     <use xlink:href="#DejaVuSans-72" x="849.115234"/>
     <use xlink:href="#DejaVuSans-69" x="890.228516"/>
     <use xlink:href="#DejaVuSans-65" x="918.011719"/>
     <use xlink:href="#DejaVuSans-74" x="979.535156"/>
     <use xlink:href="#DejaVuSans-61" x="1018.744141"/>
     <use xlink:href="#DejaVuSans-6c" x="1080.023438"/>
     <use xlink:href="#DejaVuSans-5f" x="1107.806641"/>
     <use xlink:href="#DejaVuSans-4c" x="1157.806641"/>
     <use xlink:href="#DejaVuSans-6f" x="1211.769531"/>
     <use xlink:href="#DejaVuSans-62" x="1272.951172"/>
     <use xlink:href="#DejaVuSans-65" x="1336.427734"/>
    </g>
   </g>
   <g id="legend_1">
    <g id="patch_7">
     <path d="M 449.97575 146.666825 
L 547.832 146.666825 
Q 549.832 146.666825 549.832 144.666825 
L 549.832 55.929325 
Q 549.832 53.929325 547.832 53.929325 
L 449.97575 53.929325 
Q 447.97575 53.929325 447.97575 55.929325 
L 447.97575 144.666825 
Q 447.97575 146.666825 449.97575 146.666825 
z
" style="fill: #ffffff; opacity: 0.8; stroke: #cccccc; stroke-linejoin: miter"/>
    </g>
    <g id="line2d_18">
     <path d="M 451.97575 62.027762 
L 461.97575 62.027762 
L 471.97575 62.027762 
" style="fill: none; stroke: #1f77b4; stroke-width: 1.5; stroke-linecap: square"/>
    </g>
    <g id="text_15">
     <!-- 20_06_02_E3 -->
     <g transform="translate(479.97575 65.527762) scale(0.1 -0.1)">
      <defs>
       <path id="DejaVuSans-45" d="M 628 4666 
L 3578 4666 
L 3578 4134 
L 1259 4134 
L 1259 2753 
L 3481 2753 
L 3481 2222 
L 1259 2222 
L 1259 531 
L 3634 531 
L 3634 0 
L 628 0 
L 628 4666 
z
" transform="scale(0.015625)"/>
      </defs>
      <use xlink:href="#DejaVuSans-32"/>
      <use xlink:href="#DejaVuSans-30" x="63.623047"/>
      <use xlink:href="#DejaVuSans-5f" x="127.246094"/>
      <use xlink:href="#DejaVuSans-30" x="177.246094"/>
      <use xlink:href="#DejaVuSans-36" x="240.869141"/>
      <use xlink:href="#DejaVuSans-5f" x="304.492188"/>
      <use xlink:href="#DejaVuSans-30" x="354.492188"/>
      <use xlink:href="#DejaVuSans-32" x="418.115234"/>
      <use xlink:href="#DejaVuSans-5f" x="481.738281"/>
      <use xlink:href="#DejaVuSans-45" x="531.738281"/>
      <use xlink:href="#DejaVuSans-33" x="594.921875"/>
     </g>
    </g>
    <g id="line2d_19">
     <path d="M 451.97575 76.984013 
L 461.97575 76.984013 
L 471.97575 76.984013 
" style="fill: none; stroke: #ff7f0e; stroke-width: 1.5; stroke-linecap: square"/>
    </g>
    <g id="text_16">
     <!-- 20_05_01_E3 -->
     <g transform="translate(479.97575 80.484013) scale(0.1 -0.1)">
      <defs>
       <path id="DejaVuSans-35" d="M 691 4666 
L 3169 4666 
L 3169 4134 
L 1269 4134 
L 1269 2991 
Q 1406 3038 1543 3061 
Q 1681 3084 1819 3084 
Q 2600 3084 3056 2656 
Q 3513 2228 3513 1497 
Q 3513 744 3044 326 
Q 2575 -91 1722 -91 
Q 1428 -91 1123 -41 
Q 819 9 494 109 
L 494 744 
Q 775 591 1075 516 
Q 1375 441 1709 441 
Q 2250 441 2565 725 
Q 2881 1009 2881 1497 
Q 2881 1984 2565 2268 
Q 2250 2553 1709 2553 
Q 1456 2553 1204 2497 
Q 953 2441 691 2322 
L 691 4666 
z
" transform="scale(0.015625)"/>
      </defs>
      <use xlink:href="#DejaVuSans-32"/>
      <use xlink:href="#DejaVuSans-30" x="63.623047"/>
      <use xlink:href="#DejaVuSans-5f" x="127.246094"/>
      <use xlink:href="#DejaVuSans-30" x="177.246094"/>
      <use xlink:href="#DejaVuSans-35" x="240.869141"/>
      <use xlink:href="#DejaVuSans-5f" x="304.492188"/>
      <use xlink:href="#DejaVuSans-30" x="354.492188"/>
      <use xlink:href="#DejaVuSans-31" x="418.115234"/>
      <use xlink:href="#DejaVuSans-5f" x="481.738281"/>
      <use xlink:href="#DejaVuSans-45" x="531.738281"/>
      <use xlink:href="#DejaVuSans-33" x="594.921875"/>
     </g>
    </g>
    <g id="line2d_20">
     <path d="M 451.97575 91.940262 
L 461.97575 91.940262 
L 471.97575 91.940262 
" style="fill: none; stroke: #2ca02c; stroke-width: 1.5; stroke-linecap: square"/>
    </g>
    <g id="text_17">
     <!-- 20_02_02_E3 -->
     <g transform="translate(479.97575 95.440262) scale(0.1 -0.1)">
      <use xlink:href="#DejaVuSans-32"/>
      <use xlink:href="#DejaVuSans-30" x="63.623047"/>
      <use xlink:href="#DejaVuSans-5f" x="127.246094"/>
      <use xlink:href="#DejaVuSans-30" x="177.246094"/>
      <use xlink:href="#DejaVuSans-32" x="240.869141"/>
      <use xlink:href="#DejaVuSans-5f" x="304.492188"/>
      <use xlink:href="#DejaVuSans-30" x="354.492188"/>
      <use xlink:href="#DejaVuSans-32" x="418.115234"/>
      <use xlink:href="#DejaVuSans-5f" x="481.738281"/>
      <use xlink:href="#DejaVuSans-45" x="531.738281"/>
      <use xlink:href="#DejaVuSans-33" x="594.921875"/>
     </g>
    </g>
    <g id="line2d_21">
     <path d="M 451.97575 106.896513 
L 461.97575 106.896513 
L 471.97575 106.896513 
" style="fill: none; stroke: #d62728; stroke-width: 1.5; stroke-linecap: square"/>
    </g>
    <g id="text_18">
     <!-- 20_10_02_E3 -->
     <g transform="translate(479.97575 110.396513) scale(0.1 -0.1)">
      <use xlink:href="#DejaVuSans-32"/>
      <use xlink:href="#DejaVuSans-30" x="63.623047"/>
      <use xlink:href="#DejaVuSans-5f" x="127.246094"/>
      <use xlink:href="#DejaVuSans-31" x="177.246094"/>
      <use xlink:href="#DejaVuSans-30" x="240.869141"/>
      <use xlink:href="#DejaVuSans-5f" x="304.492188"/>
      <use xlink:href="#DejaVuSans-30" x="354.492188"/>
      <use xlink:href="#DejaVuSans-32" x="418.115234"/>
      <use xlink:href="#DejaVuSans-5f" x="481.738281"/>
      <use xlink:href="#DejaVuSans-45" x="531.738281"/>
      <use xlink:href="#DejaVuSans-33" x="594.921875"/>
     </g>
    </g>
    <g id="line2d_22">
     <path d="M 451.97575 121.852762 
L 461.97575 121.852762 
L 471.97575 121.852762 
" style="fill: none; stroke: #9467bd; stroke-width: 1.5; stroke-linecap: square"/>
    </g>
    <g id="text_19">
     <!-- 20_08_02_E3 -->
     <g transform="translate(479.97575 125.352762) scale(0.1 -0.1)">
      <use xlink:href="#DejaVuSans-32"/>
      <use xlink:href="#DejaVuSans-30" x="63.623047"/>
      <use xlink:href="#DejaVuSans-5f" x="127.246094"/>
      <use xlink:href="#DejaVuSans-30" x="177.246094"/>
      <use xlink:href="#DejaVuSans-38" x="240.869141"/>
      <use xlink:href="#DejaVuSans-5f" x="304.492188"/>
      <use xlink:href="#DejaVuSans-30" x="354.492188"/>
      <use xlink:href="#DejaVuSans-32" x="418.115234"/>
      <use xlink:href="#DejaVuSans-5f" x="481.738281"/>
      <use xlink:href="#DejaVuSans-45" x="531.738281"/>
      <use xlink:href="#DejaVuSans-33" x="594.921875"/>
     </g>
    </g>
    <g id="line2d_23">
     <path d="M 451.97575 136.809012 
L 461.97575 136.809012 
L 471.97575 136.809012 
" style="fill: none; stroke: #8c564b; stroke-width: 1.5; stroke-linecap: square"/>
    </g>
    <g id="text_20">
     <!-- 20_11_02_E3 -->
     <g transform="translate(479.97575 140.309012) scale(0.1 -0.1)">
      <use xlink:href="#DejaVuSans-32"/>
      <use xlink:href="#DejaVuSans-30" x="63.623047"/>
      <use xlink:href="#DejaVuSans-5f" x="127.246094"/>
      <use xlink:href="#DejaVuSans-31" x="177.246094"/>
      <use xlink:href="#DejaVuSans-31" x="240.869141"/>
      <use xlink:href="#DejaVuSans-5f" x="304.492188"/>
      <use xlink:href="#DejaVuSans-30" x="354.492188"/>
      <use xlink:href="#DejaVuSans-32" x="418.115234"/>
      <use xlink:href="#DejaVuSans-5f" x="481.738281"/>
      <use xlink:href="#DejaVuSans-45" x="531.738281"/>
      <use xlink:href="#DejaVuSans-33" x="594.921875"/>
     </g>
    </g>
   </g>
  </g>
 </g>
 <defs>
  <clipPath id="pf8e5d8ee29">
   <rect x="50.14375" y="22.318125" width="357.12" height="266.112"/>
  </clipPath>
 </defs>
</svg>
