<?xml version="1.0" encoding="utf-8" standalone="no"?>
<!DOCTYPE svg PUBLIC "-//W3C//DTD SVG 1.1//EN"
  "http://www.w3.org/Graphics/SVG/1.1/DTD/svg11.dtd">
<svg xmlns:xlink="http://www.w3.org/1999/xlink" width="557.032pt" height="325.986375pt" viewBox="0 0 557.032 325.986375" xmlns="http://www.w3.org/2000/svg" version="1.1">
 <metadata>
  <rdf:RDF xmlns:dc="http://purl.org/dc/elements/1.1/" xmlns:cc="http://creativecommons.org/ns#" xmlns:rdf="http://www.w3.org/1999/02/22-rdf-syntax-ns#">
   <cc:Work>
    <dc:type rdf:resource="http://purl.org/dc/dcmitype/StillImage"/>
    <dc:date>2023-02-07T23:00:03.110205</dc:date>
    <dc:format>image/svg+xml</dc:format>
    <dc:creator>
     <cc:Agent>
      <dc:title>Matplotlib v3.6.2, https://matplotlib.org/</dc:title>
     </cc:Agent>
    </dc:creator>
   </cc:Work>
  </rdf:RDF>
 </metadata>
 <defs>
  <style type="text/css">*{stroke-linejoin: round; stroke-linecap: butt}</style>
 </defs>
 <g id="figure_1">
  <g id="patch_1">
   <path d="M 0 325.986375 
L 557.032 325.986375 
L 557.032 0 
L 0 0 
z
" style="fill: #ffffff"/>
  </g>
  <g id="axes_1">
   <g id="patch_2">
    <path d="M 50.14375 288.430125 
L 407.26375 288.430125 
L 407.26375 22.318125 
L 50.14375 22.318125 
z
" style="fill: #ffffff"/>
   </g>
   <g id="PolyCollection_1">
    <path d="M 66.376477 125.131133 
L 66.376477 256.49846 
L 68.497297 256.49846 
L 70.618116 256.49846 
L 72.738935 256.49846 
L 74.859755 256.49846 
L 76.980574 256.49846 
L 79.101393 256.49846 
L 81.222213 256.49846 
L 83.343032 256.49846 
L 85.463851 256.49846 
L 87.584671 256.49846 
L 89.70549 256.49846 
L 91.826309 256.49846 
L 93.947129 256.49846 
L 96.067948 256.49846 
L 98.188767 256.49846 
L 100.309586 256.49846 
L 102.430406 256.49846 
L 104.551225 256.49846 
L 106.672044 256.49846 
L 108.792864 256.49846 
L 110.913683 256.49846 
L 113.034502 256.49846 
L 115.155322 256.49846 
L 117.276141 256.49846 
L 119.39696 256.49846 
L 121.51778 256.49846 
L 123.638599 256.49846 
L 125.759418 256.49846 
L 127.880238 256.49846 
L 130.001057 256.49846 
L 132.121876 256.49846 
L 134.242696 256.49846 
L 136.363515 256.49846 
L 138.484334 256.49846 
L 140.605154 256.49846 
L 142.725973 256.49846 
L 144.846792 256.49846 
L 146.967612 256.49846 
L 149.088431 256.49846 
L 151.20925 256.49846 
L 153.33007 256.49846 
L 155.450889 256.49846 
L 157.571708 256.49846 
L 159.692528 256.49846 
L 161.813347 256.49846 
L 163.934166 256.49846 
L 166.054986 256.49846 
L 168.175805 256.49846 
L 170.296624 256.49846 
L 172.417444 256.49846 
L 174.538263 256.49846 
L 176.659082 256.49846 
L 178.779902 256.49846 
L 180.900721 256.49846 
L 183.02154 256.49846 
L 185.14236 256.49846 
L 187.263179 256.49846 
L 189.383998 256.49846 
L 191.504818 256.49846 
L 193.625637 256.49846 
L 195.746456 256.49846 
L 197.867276 256.49846 
L 199.988095 256.49846 
L 202.108914 256.49846 
L 204.229734 256.49846 
L 206.350553 256.49846 
L 208.471372 256.49846 
L 210.592191 256.49846 
L 212.713011 256.49846 
L 214.83383 256.49846 
L 216.954649 256.49846 
L 219.075469 256.49846 
L 221.196288 256.49846 
L 223.317107 256.49846 
L 225.437927 256.49846 
L 227.558746 256.49846 
L 229.679565 256.49846 
L 231.800385 256.49846 
L 233.921204 256.49846 
L 236.042023 256.49846 
L 238.162843 256.49846 
L 240.283662 256.49846 
L 242.404481 256.49846 
L 244.525301 256.49846 
L 246.64612 256.49846 
L 248.766939 256.49846 
L 250.887759 256.49846 
L 253.008578 256.49846 
L 255.129397 256.49846 
L 257.250217 256.49846 
L 259.371036 256.49846 
L 261.491855 256.49846 
L 263.612675 256.49846 
L 265.733494 256.49846 
L 267.854313 256.49846 
L 269.975133 256.49846 
L 272.095952 256.49846 
L 274.216771 256.49846 
L 276.337591 256.49846 
L 276.337591 241.294019 
L 276.337591 241.294019 
L 274.216771 260.032009 
L 272.095952 267.384329 
L 269.975133 267.807799 
L 267.854313 264.521193 
L 265.733494 259.759142 
L 263.612675 254.987262 
L 261.491855 251.08282 
L 259.371036 248.484973 
L 257.250217 247.318238 
L 255.129397 247.49257 
L 253.008578 248.783148 
L 250.887759 250.892646 
L 248.766939 253.498567 
L 246.64612 256.287911 
L 244.525301 258.981275 
L 242.404481 261.34821 
L 240.283662 263.215508 
L 238.162843 264.469865 
L 236.042023 265.056202 
L 233.921204 264.972766 
L 231.800385 264.263973 
L 229.679565 263.01181 
L 227.558746 261.326498 
L 225.437927 259.336985 
L 223.317107 257.181731 
L 221.196288 255.000153 
L 219.075469 252.92502 
L 216.954649 251.075969 
L 214.83383 249.554297 
L 212.713011 248.43908 
L 210.592191 247.78463 
L 208.471372 247.61926 
L 206.350553 247.945275 
L 204.229734 248.740098 
L 202.108914 249.958372 
L 199.988095 251.534918 
L 197.867276 253.388356 
L 195.746456 255.425231 
L 193.625637 257.544463 
L 191.504818 259.64194 
L 189.383998 261.615088 
L 187.263179 263.367252 
L 185.14236 264.811736 
L 183.02154 265.875379 
L 180.900721 266.501526 
L 178.779902 266.652326 
L 176.659082 266.310252 
L 174.538263 265.478815 
L 172.417444 256.495213 
L 170.296624 256.4951 
L 168.175805 261.60486 
L 166.054986 259.204333 
L 163.934166 256.552963 
L 161.813347 253.754835 
L 159.692528 250.920584 
L 157.571708 248.162226 
L 155.450889 245.587666 
L 153.33007 243.295076 
L 151.20925 241.367318 
L 149.088431 239.86665 
L 146.967612 238.829908 
L 144.846792 238.264397 
L 142.725973 238.144708 
L 140.605154 238.410666 
L 138.484334 238.966606 
L 136.363515 239.682162 
L 134.242696 240.394698 
L 132.121876 240.913516 
L 130.001057 241.0259 
L 127.880238 240.505011 
L 125.759418 239.119606 
L 123.638599 236.645465 
L 121.51778 232.878336 
L 119.39696 227.648123 
L 117.276141 220.833938 
L 115.155322 212.379538 
L 113.034502 202.30852 
L 110.913683 190.738545 
L 108.792864 177.893689 
L 106.672044 164.113873 
L 104.551225 149.860143 
L 102.430406 135.714392 
L 100.309586 122.3719 
L 98.188767 110.624872 
L 96.067948 101.334894 
L 93.947129 95.392016 
L 91.826309 93.657861 
L 89.70549 96.889926 
L 87.584671 105.643909 
L 85.463851 120.150591 
L 83.343032 140.163472 
L 81.222213 164.773007 
L 79.101393 192.182911 
L 76.980574 219.443617 
L 74.859755 242.137551 
L 72.738935 254.010484 
L 70.618116 246.542717 
L 68.497297 208.453452 
L 66.376477 125.131133 
z
" clip-path="url(#pbbdf68f8bc)" style="fill: #1f77b4; fill-opacity: 0.166667"/>
   </g>
   <g id="PolyCollection_2">
    <path d="M 66.376477 276.334125 
L 66.376477 256.49846 
L 69.655816 256.49846 
L 72.935155 256.49846 
L 76.214494 256.49846 
L 79.493833 256.49846 
L 82.773171 256.49846 
L 86.05251 256.49846 
L 89.331849 256.49846 
L 92.611188 256.49846 
L 95.890527 256.49846 
L 99.169866 256.49846 
L 102.449205 256.49846 
L 105.728543 256.49846 
L 109.007882 256.49846 
L 112.287221 256.49846 
L 115.56656 256.49846 
L 118.845899 256.49846 
L 122.125238 256.49846 
L 125.404576 256.49846 
L 128.683915 256.49846 
L 131.963254 256.49846 
L 135.242593 256.49846 
L 138.521932 256.49846 
L 141.801271 256.49846 
L 145.08061 256.49846 
L 148.359948 256.49846 
L 151.639287 256.49846 
L 154.918626 256.49846 
L 158.197965 256.49846 
L 161.477304 256.49846 
L 164.756643 256.49846 
L 168.035981 256.49846 
L 171.31532 256.49846 
L 174.594659 256.49846 
L 177.873998 256.49846 
L 181.153337 256.49846 
L 184.432676 256.49846 
L 187.712014 256.49846 
L 190.991353 256.49846 
L 194.270692 256.49846 
L 197.550031 256.49846 
L 200.82937 256.49846 
L 204.108709 256.49846 
L 207.388048 256.49846 
L 210.667386 256.49846 
L 213.946725 256.49846 
L 217.226064 256.49846 
L 220.505403 256.49846 
L 223.784742 256.49846 
L 227.064081 256.49846 
L 230.343419 256.49846 
L 233.622758 256.49846 
L 236.902097 256.49846 
L 240.181436 256.49846 
L 243.460775 256.49846 
L 246.740114 256.49846 
L 250.019452 256.49846 
L 253.298791 256.49846 
L 256.57813 256.49846 
L 259.857469 256.49846 
L 263.136808 256.49846 
L 266.416147 256.49846 
L 269.695486 256.49846 
L 272.974824 256.49846 
L 276.254163 256.49846 
L 279.533502 256.49846 
L 282.812841 256.49846 
L 286.09218 256.49846 
L 289.371519 256.49846 
L 292.650857 256.49846 
L 295.930196 256.49846 
L 299.209535 256.49846 
L 302.488874 256.49846 
L 305.768213 256.49846 
L 309.047552 256.49846 
L 312.32689 256.49846 
L 315.606229 256.49846 
L 318.885568 256.49846 
L 322.164907 256.49846 
L 325.444246 256.49846 
L 328.723585 256.49846 
L 332.002924 256.49846 
L 335.282262 256.49846 
L 338.561601 256.49846 
L 341.84094 256.49846 
L 345.120279 256.49846 
L 348.399618 256.49846 
L 351.678957 256.49846 
L 354.958295 256.49846 
L 358.237634 256.49846 
L 361.516973 256.49846 
L 364.796312 256.49846 
L 368.075651 256.49846 
L 371.35499 256.49846 
L 374.634329 256.49846 
L 377.913667 256.49846 
L 381.193006 256.49846 
L 384.472345 256.49846 
L 387.751684 256.49846 
L 391.031023 256.49846 
L 391.031023 256.694815 
L 391.031023 256.694815 
L 387.751684 255.919386 
L 384.472345 255.945003 
L 381.193006 256.325156 
L 377.913667 256.775539 
L 374.634329 257.132659 
L 371.35499 257.320068 
L 368.075651 257.321192 
L 364.796312 257.157874 
L 361.516973 256.873773 
L 358.237634 256.521904 
L 354.958295 256.155619 
L 351.678957 255.822451 
L 348.399618 255.560284 
L 345.120279 255.395372 
L 341.84094 255.341804 
L 338.561601 255.402054 
L 335.282262 255.568307 
L 332.002924 255.8243 
L 328.723585 256.147456 
L 325.444246 256.511132 
L 322.164907 256.886833 
L 318.885568 257.246276 
L 315.606229 257.56322 
L 312.32689 257.814993 
L 309.047552 257.983692 
L 305.768213 258.057015 
L 302.488874 258.028747 
L 299.209535 257.898888 
L 295.930196 257.673462 
L 292.650857 257.364039 
L 289.371519 256.987 
L 286.09218 256.562602 
L 282.812841 256.113896 
L 279.533502 255.665532 
L 276.254163 255.242523 
L 272.974824 254.869008 
L 269.695486 254.56707 
L 266.416147 254.355648 
L 263.136808 254.249582 
L 259.857469 254.258844 
L 256.57813 254.387959 
L 253.298791 254.635652 
L 250.019452 254.994747 
L 246.740114 255.452297 
L 243.460775 255.98997 
L 240.181436 256.584675 
L 236.902097 257.209404 
L 233.622758 257.834278 
L 230.343419 256.49813 
L 227.064081 256.495639 
L 223.784742 263.413115 
L 220.505403 262.119916 
L 217.226064 260.521724 
L 213.946725 258.682121 
L 210.667386 256.677371 
L 207.388048 254.593722 
L 204.108709 252.524211 
L 200.82937 250.565023 
L 197.550031 248.811504 
L 194.270692 247.353919 
L 190.991353 246.273077 
L 187.712014 245.635946 
L 184.432676 245.491377 
L 181.153337 245.866099 
L 177.873998 246.761114 
L 174.594659 248.148641 
L 171.31532 249.969771 
L 168.035981 252.132963 
L 164.756643 254.513536 
L 161.477304 256.954274 
L 158.197965 259.267282 
L 154.918626 261.237188 
L 151.639287 262.625783 
L 148.359948 263.178153 
L 145.08061 262.630352 
L 141.801271 260.71861 
L 138.521932 257.190052 
L 135.242593 251.814841 
L 131.963254 244.399645 
L 128.683915 234.802232 
L 125.404576 222.946993 
L 122.125238 208.841064 
L 118.845899 192.590727 
L 115.56656 174.417621 
L 112.287221 154.674266 
L 109.007882 133.858276 
L 105.728543 112.62459 
L 102.449205 91.79488 
L 99.169866 72.363264 
L 95.890527 55.497265 
L 92.611188 42.532883 
L 89.331849 34.96249 
L 86.05251 34.414125 
L 82.773171 42.620612 
L 79.493833 61.37678 
L 76.214494 92.482886 
L 72.935155 137.672165 
L 69.655816 198.520268 
L 66.376477 276.334125 
z
" clip-path="url(#pbbdf68f8bc)" style="fill: #ff7f0e; fill-opacity: 0.166667"/>
   </g>
   <g id="PolyCollection_3">
    <path d="M 66.376477 184.643857 
L 66.376477 256.49846 
L 69.645197 256.49846 
L 72.913917 256.49846 
L 76.182637 256.49846 
L 79.451357 256.49846 
L 82.720076 256.49846 
L 85.988796 256.49846 
L 89.257516 256.49846 
L 92.526236 256.49846 
L 95.794956 256.49846 
L 99.063675 256.49846 
L 102.332395 256.49846 
L 105.601115 256.49846 
L 108.869835 256.49846 
L 112.138555 256.49846 
L 115.407274 256.49846 
L 118.675994 256.49846 
L 121.944714 256.49846 
L 125.213434 256.49846 
L 128.482154 256.49846 
L 131.750873 256.49846 
L 135.019593 256.49846 
L 138.288313 256.49846 
L 141.557033 256.49846 
L 144.825753 256.49846 
L 148.094472 256.49846 
L 151.363192 256.49846 
L 154.631912 256.49846 
L 157.900632 256.49846 
L 161.169352 256.49846 
L 164.438072 256.49846 
L 167.706791 256.49846 
L 170.975511 256.49846 
L 174.244231 256.49846 
L 177.512951 256.49846 
L 180.781671 256.49846 
L 184.05039 256.49846 
L 187.31911 256.49846 
L 190.58783 256.49846 
L 193.85655 256.49846 
L 197.12527 256.49846 
L 200.393989 256.49846 
L 203.662709 256.49846 
L 206.931429 256.49846 
L 210.200149 256.49846 
L 213.468869 256.49846 
L 216.737588 256.49846 
L 220.006308 256.49846 
L 223.275028 256.49846 
L 226.543748 256.49846 
L 229.812468 256.49846 
L 233.081187 256.49846 
L 236.349907 256.49846 
L 239.618627 256.49846 
L 242.887347 256.49846 
L 246.156067 256.49846 
L 249.424787 256.49846 
L 252.693506 256.49846 
L 255.962226 256.49846 
L 259.230946 256.49846 
L 262.499666 256.49846 
L 265.768386 256.49846 
L 269.037105 256.49846 
L 272.305825 256.49846 
L 275.574545 256.49846 
L 278.843265 256.49846 
L 282.111985 256.49846 
L 285.380704 256.49846 
L 288.649424 256.49846 
L 291.918144 256.49846 
L 295.186864 256.49846 
L 298.455584 256.49846 
L 301.724303 256.49846 
L 304.993023 256.49846 
L 308.261743 256.49846 
L 311.530463 256.49846 
L 314.799183 256.49846 
L 318.067902 256.49846 
L 321.336622 256.49846 
L 324.605342 256.49846 
L 327.874062 256.49846 
L 331.142782 256.49846 
L 334.411502 256.49846 
L 337.680221 256.49846 
L 340.948941 256.49846 
L 344.217661 256.49846 
L 347.486381 256.49846 
L 350.755101 256.49846 
L 354.02382 256.49846 
L 357.29254 256.49846 
L 360.56126 256.49846 
L 363.82998 256.49846 
L 367.0987 256.49846 
L 370.367419 256.49846 
L 373.636139 256.49846 
L 376.904859 256.49846 
L 380.173579 256.49846 
L 383.442299 256.49846 
L 386.711018 256.49846 
L 389.979738 256.49846 
L 389.979738 251.120119 
L 389.979738 251.120119 
L 386.711018 257.504072 
L 383.442299 260.157011 
L 380.173579 260.478896 
L 376.904859 259.498721 
L 373.636139 257.946611 
L 370.367419 256.315573 
L 367.0987 254.913977 
L 363.82998 253.909765 
L 360.56126 253.367312 
L 357.29254 253.277797 
L 354.02382 253.583868 
L 350.755101 254.199328 
L 347.486381 255.024511 
L 344.217661 255.957933 
L 340.948941 256.9048 
L 337.680221 257.78284 
L 334.411502 258.525934 
L 331.142782 259.085939 
L 327.874062 259.433055 
L 324.605342 259.555082 
L 321.336622 259.455815 
L 318.067902 259.152852 
L 314.799183 258.675007 
L 311.530463 258.059522 
L 308.261743 257.349224 
L 304.993023 256.589759 
L 301.724303 255.826996 
L 298.455584 255.104692 
L 295.186864 254.462471 
L 291.918144 253.934163 
L 288.649424 253.546515 
L 285.380704 253.318312 
L 282.111985 253.259869 
L 278.843265 253.372919 
L 275.574545 253.650838 
L 272.305825 254.079206 
L 269.037105 254.636645 
L 265.768386 255.2959 
L 262.499666 256.025119 
L 259.230946 256.789273 
L 255.962226 257.551672 
L 252.693506 258.275522 
L 249.424787 258.925472 
L 246.156067 259.469107 
L 242.887347 259.878327 
L 239.618627 260.130579 
L 236.349907 260.209903 
L 233.081187 260.107743 
L 229.812468 256.497141 
L 226.543748 256.495377 
L 223.275028 262.192664 
L 220.006308 260.222795 
L 216.737588 258.008607 
L 213.468869 255.651093 
L 210.200149 253.261817 
L 206.931429 250.958468 
L 203.662709 248.859922 
L 200.393989 247.080972 
L 197.12527 245.726855 
L 193.85655 244.887762 
L 190.58783 244.633507 
L 187.31911 245.008539 
L 184.05039 246.027492 
L 180.781671 247.671475 
L 177.512951 249.885275 
L 174.244231 252.575684 
L 170.975511 255.611085 
L 167.706791 258.82249 
L 164.438072 262.006123 
L 161.169352 264.927672 
L 157.900632 267.328263 
L 154.631912 268.932177 
L 151.363192 269.456287 
L 148.094472 268.621127 
L 144.825753 266.163432 
L 141.557033 261.849943 
L 138.288313 255.492158 
L 135.019593 246.961638 
L 131.750873 236.205366 
L 128.482154 223.260568 
L 125.213434 208.268254 
L 121.944714 191.484635 
L 118.675994 173.289422 
L 115.407274 154.189858 
L 112.138555 134.819178 
L 108.869835 115.928006 
L 105.601115 98.367039 
L 102.332395 83.059128 
L 99.063675 70.958693 
L 95.794956 62.996159 
L 92.526236 60.004875 
L 89.257516 62.62772 
L 85.988796 71.200338 
L 82.720076 85.607646 
L 79.451357 105.110004 
L 76.182637 128.135063 
L 72.913917 152.03105 
L 69.645197 172.77684 
L 66.376477 184.643857 
z
" clip-path="url(#pbbdf68f8bc)" style="fill: #2ca02c; fill-opacity: 0.166667"/>
   </g>
   <g id="PolyCollection_4">
    <path d="M 66.376477 239.751969 
L 66.376477 256.49846 
L 69.341043 256.49846 
L 72.305609 256.49846 
L 75.270175 256.49846 
L 78.234741 256.49846 
L 81.199307 256.49846 
L 84.163873 256.49846 
L 87.128439 256.49846 
L 90.093005 256.49846 
L 93.057571 256.49846 
L 96.022136 256.49846 
L 98.986702 256.49846 
L 101.951268 256.49846 
L 104.915834 256.49846 
L 107.8804 256.49846 
L 110.844966 256.49846 
L 113.809532 256.49846 
L 116.774098 256.49846 
L 119.738664 256.49846 
L 122.70323 256.49846 
L 125.667796 256.49846 
L 128.632362 256.49846 
L 131.596927 256.49846 
L 134.561493 256.49846 
L 137.526059 256.49846 
L 140.490625 256.49846 
L 143.455191 256.49846 
L 146.419757 256.49846 
L 149.384323 256.49846 
L 152.348889 256.49846 
L 155.313455 256.49846 
L 158.278021 256.49846 
L 161.242587 256.49846 
L 164.207153 256.49846 
L 167.171718 256.49846 
L 170.136284 256.49846 
L 173.10085 256.49846 
L 176.065416 256.49846 
L 179.029982 256.49846 
L 181.994548 256.49846 
L 184.959114 256.49846 
L 187.92368 256.49846 
L 190.888246 256.49846 
L 193.852812 256.49846 
L 196.817378 256.49846 
L 199.781944 256.49846 
L 202.746509 256.49846 
L 205.711075 256.49846 
L 208.675641 256.49846 
L 211.640207 256.49846 
L 214.604773 256.49846 
L 217.569339 256.49846 
L 220.533905 256.49846 
L 223.498471 256.49846 
L 226.463037 256.49846 
L 229.427603 256.49846 
L 232.392169 256.49846 
L 235.356735 256.49846 
L 238.3213 256.49846 
L 241.285866 256.49846 
L 244.250432 256.49846 
L 247.214998 256.49846 
L 250.179564 256.49846 
L 253.14413 256.49846 
L 256.108696 256.49846 
L 259.073262 256.49846 
L 262.037828 256.49846 
L 265.002394 256.49846 
L 267.96696 256.49846 
L 270.931526 256.49846 
L 273.896092 256.49846 
L 276.860657 256.49846 
L 279.825223 256.49846 
L 282.789789 256.49846 
L 285.754355 256.49846 
L 288.718921 256.49846 
L 291.683487 256.49846 
L 294.648053 256.49846 
L 297.612619 256.49846 
L 300.577185 256.49846 
L 303.541751 256.49846 
L 306.506317 256.49846 
L 309.470883 256.49846 
L 312.435448 256.49846 
L 315.400014 256.49846 
L 318.36458 256.49846 
L 321.329146 256.49846 
L 324.293712 256.49846 
L 327.258278 256.49846 
L 330.222844 256.49846 
L 333.18741 256.49846 
L 336.151976 256.49846 
L 339.116542 256.49846 
L 342.081108 256.49846 
L 345.045674 256.49846 
L 348.010239 256.49846 
L 350.974805 256.49846 
L 353.939371 256.49846 
L 356.903937 256.49846 
L 359.868503 256.49846 
L 359.868503 246.144855 
L 359.868503 246.144855 
L 356.903937 258.393997 
L 353.939371 263.505593 
L 350.974805 264.153014 
L 348.010239 262.301157 
L 345.045674 259.344533 
L 342.081108 256.225405 
L 339.116542 253.534075 
L 336.151976 251.593264 
L 333.18741 250.528386 
L 330.222844 250.325382 
L 327.258278 250.877638 
L 324.293712 252.023389 
L 321.329146 253.574892 
L 318.36458 255.340533 
L 315.400014 257.140934 
L 312.435448 258.820005 
L 309.470883 260.251826 
L 306.506317 261.344103 
L 303.541751 262.038908 
L 300.577185 262.311306 
L 297.612619 262.166383 
L 294.648053 261.635174 
L 291.683487 260.76986 
L 288.718921 259.638589 
L 285.754355 258.320205 
L 282.789789 256.899119 
L 279.825223 255.460508 
L 276.860657 254.085992 
L 273.896092 252.8499 
L 270.931526 251.816185 
L 267.96696 251.036059 
L 265.002394 250.546327 
L 262.037828 250.368455 
L 259.073262 250.508302 
L 256.108696 250.956513 
L 253.14413 251.689473 
L 250.179564 252.670788 
L 247.214998 253.853188 
L 244.250432 255.180773 
L 241.285866 256.591517 
L 238.3213 258.019933 
L 235.356735 259.399803 
L 232.392169 260.666889 
L 229.427603 261.76154 
L 226.463037 262.6311 
L 223.498471 263.232058 
L 220.533905 263.531866 
L 217.569339 263.510365 
L 214.604773 256.496144 
L 211.640207 256.494309 
L 208.675641 265.235975 
L 205.711075 262.817284 
L 202.746509 260.024419 
L 199.781944 256.978046 
L 196.817378 253.813953 
L 193.852812 250.677702 
L 190.888246 247.71865 
L 187.92368 245.083485 
L 184.959114 242.909488 
L 181.994548 241.317708 
L 179.029982 240.406292 
L 176.065416 240.244177 
L 173.10085 240.86542 
L 170.136284 242.264371 
L 167.171718 244.391956 
L 164.207153 247.153291 
L 161.242587 250.406838 
L 158.278021 253.965305 
L 155.313455 257.598456 
L 152.348889 261.037957 
L 149.384323 263.984345 
L 146.419757 266.11616 
L 143.455191 267.101204 
L 140.490625 266.609838 
L 137.526059 264.330138 
L 134.561493 259.984641 
L 131.596927 253.348311 
L 128.632362 244.267258 
L 125.667796 232.677582 
L 122.70323 218.623639 
L 119.738664 202.274805 
L 116.774098 183.93972 
L 113.809532 164.076777 
L 110.844966 143.299456 
L 107.8804 122.374879 
L 104.915834 102.213783 
L 101.951268 83.849825 
L 98.986702 68.405934 
L 96.022136 57.045132 
L 93.057571 50.902979 
L 90.093005 50.998492 
L 87.128439 58.120084 
L 84.163873 72.682731 
L 81.199307 94.55222 
L 78.234741 122.831979 
L 75.270175 155.607578 
L 72.305609 189.643607 
L 69.341043 220.027192 
L 66.376477 239.751969 
z
" clip-path="url(#pbbdf68f8bc)" style="fill: #d62728; fill-opacity: 0.166667"/>
   </g>
   <g id="PolyCollection_5">
    <path d="M 66.376477 139.188418 
L 66.376477 256.49846 
L 68.281094 256.49846 
L 70.185711 256.49846 
L 72.090327 256.49846 
L 73.994944 256.49846 
L 75.899561 256.49846 
L 77.804178 256.49846 
L 79.708794 256.49846 
L 81.613411 256.49846 
L 83.518028 256.49846 
L 85.422644 256.49846 
L 87.327261 256.49846 
L 89.231878 256.49846 
L 91.136494 256.49846 
L 93.041111 256.49846 
L 94.945728 256.49846 
L 96.850345 256.49846 
L 98.754961 256.49846 
L 100.659578 256.49846 
L 102.564195 256.49846 
L 104.468811 256.49846 
L 106.373428 256.49846 
L 108.278045 256.49846 
L 110.182662 256.49846 
L 112.087278 256.49846 
L 113.991895 256.49846 
L 115.896512 256.49846 
L 117.801128 256.49846 
L 119.705745 256.49846 
L 121.610362 256.49846 
L 123.514978 256.49846 
L 125.419595 256.49846 
L 127.324212 256.49846 
L 129.228829 256.49846 
L 131.133445 256.49846 
L 133.038062 256.49846 
L 134.942679 256.49846 
L 136.847295 256.49846 
L 138.751912 256.49846 
L 140.656529 256.49846 
L 142.561146 256.49846 
L 144.465762 256.49846 
L 146.370379 256.49846 
L 148.274996 256.49846 
L 150.179612 256.49846 
L 152.084229 256.49846 
L 153.988846 256.49846 
L 155.893462 256.49846 
L 157.798079 256.49846 
L 159.702696 256.49846 
L 161.607313 256.49846 
L 163.511929 256.49846 
L 165.416546 256.49846 
L 167.321163 256.49846 
L 169.225779 256.49846 
L 171.130396 256.49846 
L 173.035013 256.49846 
L 174.93963 256.49846 
L 176.844246 256.49846 
L 178.748863 256.49846 
L 180.65348 256.49846 
L 182.558096 256.49846 
L 184.462713 256.49846 
L 186.36733 256.49846 
L 188.271947 256.49846 
L 190.176563 256.49846 
L 192.08118 256.49846 
L 193.985797 256.49846 
L 195.890413 256.49846 
L 197.79503 256.49846 
L 199.699647 256.49846 
L 201.604263 256.49846 
L 203.50888 256.49846 
L 205.413497 256.49846 
L 207.318114 256.49846 
L 209.22273 256.49846 
L 211.127347 256.49846 
L 213.031964 256.49846 
L 214.93658 256.49846 
L 216.841197 256.49846 
L 218.745814 256.49846 
L 220.650431 256.49846 
L 222.555047 256.49846 
L 224.459664 256.49846 
L 226.364281 256.49846 
L 228.268897 256.49846 
L 230.173514 256.49846 
L 232.078131 256.49846 
L 233.982747 256.49846 
L 235.887364 256.49846 
L 237.791981 256.49846 
L 239.696598 256.49846 
L 241.601214 256.49846 
L 243.505831 256.49846 
L 245.410448 256.49846 
L 247.315064 256.49846 
L 249.219681 256.49846 
L 251.124298 256.49846 
L 253.028915 256.49846 
L 254.933531 256.49846 
L 254.933531 243.650465 
L 254.933531 243.650465 
L 253.028915 259.284673 
L 251.124298 265.548465 
L 249.219681 266.056324 
L 247.315064 263.434083 
L 245.410448 259.518466 
L 243.505831 255.526628 
L 241.601214 252.199022 
L 239.696598 249.918617 
L 237.791981 248.809295 
L 235.887364 248.815995 
L 233.982747 249.768965 
L 232.078131 251.434274 
L 230.173514 253.552541 
L 228.268897 255.867647 
L 226.364281 258.147031 
L 224.459664 260.195006 
L 222.555047 261.860368 
L 220.650431 263.03943 
L 218.745814 263.675498 
L 216.841197 263.755641 
L 214.93658 263.305539 
L 213.031964 262.383042 
L 211.127347 261.070999 
L 209.22273 259.46982 
L 207.318114 257.690151 
L 205.413497 255.845954 
L 203.50888 254.048238 
L 201.604263 252.399603 
L 199.699647 250.989721 
L 197.79503 249.891817 
L 195.890413 249.160176 
L 193.985797 248.828671 
L 192.08118 248.910258 
L 190.176563 249.397375 
L 188.271947 250.263161 
L 186.36733 251.463374 
L 184.462713 252.938901 
L 182.558096 254.618727 
L 180.65348 256.42323 
L 178.748863 258.267672 
L 176.844246 260.065757 
L 174.93963 261.733121 
L 173.035013 263.190652 
L 171.130396 264.367509 
L 169.225779 265.203773 
L 167.321163 265.652618 
L 165.416546 265.681957 
L 163.511929 265.275507 
L 161.607313 256.495276 
L 159.702696 256.494545 
L 157.798079 263.313756 
L 155.893462 260.975928 
L 153.988846 258.26988 
L 152.084229 255.28229 
L 150.179612 252.109661 
L 148.274996 248.854013 
L 146.370379 245.618193 
L 144.465762 242.500958 
L 142.561146 239.591994 
L 140.656529 236.967056 
L 138.751912 234.683423 
L 136.847295 232.775843 
L 134.942679 231.253189 
L 133.038062 230.095984 
L 131.133445 229.255002 
L 129.228829 228.651094 
L 127.324212 228.176376 
L 125.419595 227.696914 
L 123.514978 227.056963 
L 121.610362 226.084812 
L 119.705745 224.600222 
L 117.801128 222.423381 
L 115.896512 219.385246 
L 113.991895 215.339064 
L 112.087278 210.172766 
L 110.182662 203.821861 
L 108.278045 196.282321 
L 106.373428 187.622861 
L 104.468811 177.995875 
L 102.564195 167.646158 
L 100.659578 156.916393 
L 98.754961 146.248227 
L 96.850345 136.177573 
L 94.945728 127.322612 
L 93.041111 120.362729 
L 91.136494 116.006461 
L 89.231878 114.946237 
L 87.327261 117.797513 
L 85.422644 125.019603 
L 83.518028 136.815248 
L 81.613411 153.005678 
L 79.708794 172.877621 
L 77.804178 194.99836 
L 75.899561 216.994656 
L 73.994944 235.290931 
L 72.090327 244.801785 
L 70.185711 238.573496 
L 68.281094 207.368749 
L 66.376477 139.188418 
z
" clip-path="url(#pbbdf68f8bc)" style="fill: #9467bd; fill-opacity: 0.166667"/>
   </g>
   <g id="PolyCollection_6">
    <path d="M 66.376477 260.993545 
L 66.376477 256.49846 
L 69.308004 256.49846 
L 72.239531 256.49846 
L 75.171058 256.49846 
L 78.102585 256.49846 
L 81.034112 256.49846 
L 83.965639 256.49846 
L 86.897167 256.49846 
L 89.828694 256.49846 
L 92.760221 256.49846 
L 95.691748 256.49846 
L 98.623275 256.49846 
L 101.554802 256.49846 
L 104.486329 256.49846 
L 107.417856 256.49846 
L 110.349383 256.49846 
L 113.28091 256.49846 
L 116.212437 256.49846 
L 119.143964 256.49846 
L 122.075491 256.49846 
L 125.007018 256.49846 
L 127.938545 256.49846 
L 130.870072 256.49846 
L 133.801599 256.49846 
L 136.733126 256.49846 
L 139.664653 256.49846 
L 142.59618 256.49846 
L 145.527707 256.49846 
L 148.459234 256.49846 
L 151.390761 256.49846 
L 154.322288 256.49846 
L 157.253815 256.49846 
L 160.185342 256.49846 
L 163.11687 256.49846 
L 166.048397 256.49846 
L 168.979924 256.49846 
L 171.911451 256.49846 
L 174.842978 256.49846 
L 177.774505 256.49846 
L 180.706032 256.49846 
L 183.637559 256.49846 
L 186.569086 256.49846 
L 189.500613 256.49846 
L 192.43214 256.49846 
L 195.363667 256.49846 
L 198.295194 256.49846 
L 201.226721 256.49846 
L 204.158248 256.49846 
L 207.089775 256.49846 
L 210.021302 256.49846 
L 212.952829 256.49846 
L 215.884356 256.49846 
L 218.815883 256.49846 
L 221.74741 256.49846 
L 224.678937 256.49846 
L 227.610464 256.49846 
L 230.541991 256.49846 
L 233.473518 256.49846 
L 236.405045 256.49846 
L 239.336573 256.49846 
L 242.2681 256.49846 
L 245.199627 256.49846 
L 248.131154 256.49846 
L 251.062681 256.49846 
L 253.994208 256.49846 
L 256.925735 256.49846 
L 259.857262 256.49846 
L 262.788789 256.49846 
L 265.720316 256.49846 
L 268.651843 256.49846 
L 271.58337 256.49846 
L 274.514897 256.49846 
L 277.446424 256.49846 
L 280.377951 256.49846 
L 283.309478 256.49846 
L 286.241005 256.49846 
L 289.172532 256.49846 
L 292.104059 256.49846 
L 295.035586 256.49846 
L 297.967113 256.49846 
L 300.89864 256.49846 
L 303.830167 256.49846 
L 306.761694 256.49846 
L 309.693221 256.49846 
L 312.624748 256.49846 
L 315.556275 256.49846 
L 318.487803 256.49846 
L 321.41933 256.49846 
L 324.350857 256.49846 
L 327.282384 256.49846 
L 330.213911 256.49846 
L 333.145438 256.49846 
L 336.076965 256.49846 
L 339.008492 256.49846 
L 341.940019 256.49846 
L 344.871546 256.49846 
L 347.803073 256.49846 
L 350.7346 256.49846 
L 353.666127 256.49846 
L 356.597654 256.49846 
L 356.597654 252.502258 
L 356.597654 252.502258 
L 353.666127 256.848051 
L 350.7346 258.884101 
L 347.803073 259.384284 
L 344.871546 258.944347 
L 341.940019 258.010691 
L 339.008492 256.905988 
L 336.076965 255.851821 
L 333.145438 254.98858 
L 330.213911 254.392796 
L 327.282384 254.092128 
L 324.350857 254.078188 
L 321.41933 254.317384 
L 318.487803 254.759971 
L 315.556275 255.347471 
L 312.624748 256.018631 
L 309.693221 256.714075 
L 306.761694 257.379802 
L 303.830167 257.969666 
L 300.89864 258.446976 
L 297.967113 258.785347 
L 295.035586 258.96891 
L 292.104059 258.991997 
L 289.172532 258.858407 
L 286.241005 258.580343 
L 283.309478 258.177106 
L 280.377951 257.67363 
L 277.446424 257.098923 
L 274.514897 256.484486 
L 271.58337 255.862753 
L 268.651843 255.265615 
L 265.720316 254.723058 
L 262.788789 254.261956 
L 259.857262 253.905041 
L 256.925735 253.670079 
L 253.994208 253.569254 
L 251.062681 253.608777 
L 248.131154 253.788725 
L 245.199627 254.103091 
L 242.2681 254.54006 
L 239.336573 255.082479 
L 236.405045 255.708507 
L 233.473518 256.39243 
L 230.541991 257.105615 
L 227.610464 257.817562 
L 224.678937 258.497045 
L 221.74741 259.113285 
L 218.815883 259.63714 
L 215.884356 260.042261 
L 212.952829 256.497419 
L 210.021302 256.495328 
L 207.089775 263.980985 
L 204.158248 262.404862 
L 201.226721 260.50744 
L 198.295194 258.366806 
L 195.363667 256.073976 
L 192.43214 253.729462 
L 189.500613 251.439303 
L 186.569086 249.31067 
L 183.637559 247.447161 
L 180.706032 245.943912 
L 177.774505 244.882674 
L 174.842978 244.327009 
L 171.911451 244.317767 
L 168.979924 244.869017 
L 166.048397 245.964595 
L 163.11687 247.555442 
L 160.185342 249.557901 
L 157.253815 251.853118 
L 154.322288 254.287695 
L 151.390761 256.675732 
L 148.459234 258.802333 
L 145.527707 260.428685 
L 142.59618 261.298725 
L 139.664653 261.147423 
L 136.733126 259.710621 
L 133.801599 256.736362 
L 130.870072 251.99754 
L 127.938545 245.305676 
L 125.007018 236.525542 
L 122.075491 225.590261 
L 119.143964 212.51645 
L 116.212437 197.418875 
L 113.28091 180.523962 
L 110.349383 162.181431 
L 107.417856 142.873179 
L 104.486329 123.218419 
L 101.554802 103.973938 
L 98.623275 86.0282 
L 95.691748 70.38786 
L 92.760221 58.155075 
L 89.828694 50.493841 
L 86.897167 48.583389 
L 83.965639 53.556465 
L 81.034112 66.420113 
L 78.102585 87.95638 
L 75.171058 118.600082 
L 72.239531 158.290573 
L 69.308004 206.294154 
L 66.376477 260.993545 
z
" clip-path="url(#pbbdf68f8bc)" style="fill: #8c564b; fill-opacity: 0.166667"/>
   </g>
   <g id="matplotlib.axis_1">
    <g id="xtick_1">
     <g id="line2d_1">
      <defs>
       <path id="m1d0f35d966" d="M 0 0 
L 0 3.5 
" style="stroke: #000000; stroke-width: 0.8"/>
      </defs>
      <g>
       <use xlink:href="#m1d0f35d966" x="66.376477" y="288.430125" style="stroke: #000000; stroke-width: 0.8"/>
      </g>
     </g>
     <g id="text_1">
      <!-- 0.000 -->
      <g transform="translate(52.062415 303.028562) scale(0.1 -0.1)">
       <defs>
        <path id="DejaVuSans-30" d="M 2034 4250 
Q 1547 4250 1301 3770 
Q 1056 3291 1056 2328 
Q 1056 1369 1301 889 
Q 1547 409 2034 409 
Q 2525 409 2770 889 
Q 3016 1369 3016 2328 
Q 3016 3291 2770 3770 
Q 2525 4250 2034 4250 
z
M 2034 4750 
Q 2819 4750 3233 4129 
Q 3647 3509 3647 2328 
Q 3647 1150 3233 529 
Q 2819 -91 2034 -91 
Q 1250 -91 836 529 
Q 422 1150 422 2328 
Q 422 3509 836 4129 
Q 1250 4750 2034 4750 
z
" transform="scale(0.015625)"/>
        <path id="DejaVuSans-2e" d="M 684 794 
L 1344 794 
L 1344 0 
L 684 0 
L 684 794 
z
" transform="scale(0.015625)"/>
       </defs>
       <use xlink:href="#DejaVuSans-30"/>
       <use xlink:href="#DejaVuSans-2e" x="63.623047"/>
       <use xlink:href="#DejaVuSans-30" x="95.410156"/>
       <use xlink:href="#DejaVuSans-30" x="159.033203"/>
       <use xlink:href="#DejaVuSans-30" x="222.65625"/>
      </g>
     </g>
    </g>
    <g id="xtick_2">
     <g id="line2d_2">
      <g>
       <use xlink:href="#m1d0f35d966" x="109.669571" y="288.430125" style="stroke: #000000; stroke-width: 0.8"/>
      </g>
     </g>
     <g id="text_2">
      <!-- 0.001 -->
      <g transform="translate(95.355509 303.028562) scale(0.1 -0.1)">
       <defs>
        <path id="DejaVuSans-31" d="M 794 531 
L 1825 531 
L 1825 4091 
L 703 3866 
L 703 4441 
L 1819 4666 
L 2450 4666 
L 2450 531 
L 3481 531 
L 3481 0 
L 794 0 
L 794 531 
z
" transform="scale(0.015625)"/>
       </defs>
       <use xlink:href="#DejaVuSans-30"/>
       <use xlink:href="#DejaVuSans-2e" x="63.623047"/>
       <use xlink:href="#DejaVuSans-30" x="95.410156"/>
       <use xlink:href="#DejaVuSans-30" x="159.033203"/>
       <use xlink:href="#DejaVuSans-31" x="222.65625"/>
      </g>
     </g>
    </g>
    <g id="xtick_3">
     <g id="line2d_3">
      <g>
       <use xlink:href="#m1d0f35d966" x="152.962665" y="288.430125" style="stroke: #000000; stroke-width: 0.8"/>
      </g>
     </g>
     <g id="text_3">
      <!-- 0.002 -->
      <g transform="translate(138.648603 303.028562) scale(0.1 -0.1)">
       <defs>
        <path id="DejaVuSans-32" d="M 1228 531 
L 3431 531 
L 3431 0 
L 469 0 
L 469 531 
Q 828 903 1448 1529 
Q 2069 2156 2228 2338 
Q 2531 2678 2651 2914 
Q 2772 3150 2772 3378 
Q 2772 3750 2511 3984 
Q 2250 4219 1831 4219 
Q 1534 4219 1204 4116 
Q 875 4013 500 3803 
L 500 4441 
Q 881 4594 1212 4672 
Q 1544 4750 1819 4750 
Q 2544 4750 2975 4387 
Q 3406 4025 3406 3419 
Q 3406 3131 3298 2873 
Q 3191 2616 2906 2266 
Q 2828 2175 2409 1742 
Q 1991 1309 1228 531 
z
" transform="scale(0.015625)"/>
       </defs>
       <use xlink:href="#DejaVuSans-30"/>
       <use xlink:href="#DejaVuSans-2e" x="63.623047"/>
       <use xlink:href="#DejaVuSans-30" x="95.410156"/>
       <use xlink:href="#DejaVuSans-30" x="159.033203"/>
       <use xlink:href="#DejaVuSans-32" x="222.65625"/>
      </g>
     </g>
    </g>
    <g id="xtick_4">
     <g id="line2d_4">
      <g>
       <use xlink:href="#m1d0f35d966" x="196.255759" y="288.430125" style="stroke: #000000; stroke-width: 0.8"/>
      </g>
     </g>
     <g id="text_4">
      <!-- 0.003 -->
      <g transform="translate(181.941697 303.028562) scale(0.1 -0.1)">
       <defs>
        <path id="DejaVuSans-33" d="M 2597 2516 
Q 3050 2419 3304 2112 
Q 3559 1806 3559 1356 
Q 3559 666 3084 287 
Q 2609 -91 1734 -91 
Q 1441 -91 1130 -33 
Q 819 25 488 141 
L 488 750 
Q 750 597 1062 519 
Q 1375 441 1716 441 
Q 2309 441 2620 675 
Q 2931 909 2931 1356 
Q 2931 1769 2642 2001 
Q 2353 2234 1838 2234 
L 1294 2234 
L 1294 2753 
L 1863 2753 
Q 2328 2753 2575 2939 
Q 2822 3125 2822 3475 
Q 2822 3834 2567 4026 
Q 2313 4219 1838 4219 
Q 1578 4219 1281 4162 
Q 984 4106 628 3988 
L 628 4550 
Q 988 4650 1302 4700 
Q 1616 4750 1894 4750 
Q 2613 4750 3031 4423 
Q 3450 4097 3450 3541 
Q 3450 3153 3228 2886 
Q 3006 2619 2597 2516 
z
" transform="scale(0.015625)"/>
       </defs>
       <use xlink:href="#DejaVuSans-30"/>
       <use xlink:href="#DejaVuSans-2e" x="63.623047"/>
       <use xlink:href="#DejaVuSans-30" x="95.410156"/>
       <use xlink:href="#DejaVuSans-30" x="159.033203"/>
       <use xlink:href="#DejaVuSans-33" x="222.65625"/>
      </g>
     </g>
    </g>
    <g id="xtick_5">
     <g id="line2d_5">
      <g>
       <use xlink:href="#m1d0f35d966" x="239.548853" y="288.430125" style="stroke: #000000; stroke-width: 0.8"/>
      </g>
     </g>
     <g id="text_5">
      <!-- 0.004 -->
      <g transform="translate(225.234791 303.028562) scale(0.1 -0.1)">
       <defs>
        <path id="DejaVuSans-34" d="M 2419 4116 
L 825 1625 
L 2419 1625 
L 2419 4116 
z
M 2253 4666 
L 3047 4666 
L 3047 1625 
L 3713 1625 
L 3713 1100 
L 3047 1100 
L 3047 0 
L 2419 0 
L 2419 1100 
L 313 1100 
L 313 1709 
L 2253 4666 
z
" transform="scale(0.015625)"/>
       </defs>
       <use xlink:href="#DejaVuSans-30"/>
       <use xlink:href="#DejaVuSans-2e" x="63.623047"/>
       <use xlink:href="#DejaVuSans-30" x="95.410156"/>
       <use xlink:href="#DejaVuSans-30" x="159.033203"/>
       <use xlink:href="#DejaVuSans-34" x="222.65625"/>
      </g>
     </g>
    </g>
    <g id="xtick_6">
     <g id="line2d_6">
      <g>
       <use xlink:href="#m1d0f35d966" x="282.841947" y="288.430125" style="stroke: #000000; stroke-width: 0.8"/>
      </g>
     </g>
     <g id="text_6">
      <!-- 0.005 -->
      <g transform="translate(268.527884 303.028562) scale(0.1 -0.1)">
       <defs>
        <path id="DejaVuSans-35" d="M 691 4666 
L 3169 4666 
L 3169 4134 
L 1269 4134 
L 1269 2991 
Q 1406 3038 1543 3061 
Q 1681 3084 1819 3084 
Q 2600 3084 3056 2656 
Q 3513 2228 3513 1497 
Q 3513 744 3044 326 
Q 2575 -91 1722 -91 
Q 1428 -91 1123 -41 
Q 819 9 494 109 
L 494 744 
Q 775 591 1075 516 
Q 1375 441 1709 441 
Q 2250 441 2565 725 
Q 2881 1009 2881 1497 
Q 2881 1984 2565 2268 
Q 2250 2553 1709 2553 
Q 1456 2553 1204 2497 
Q 953 2441 691 2322 
L 691 4666 
z
" transform="scale(0.015625)"/>
       </defs>
       <use xlink:href="#DejaVuSans-30"/>
       <use xlink:href="#DejaVuSans-2e" x="63.623047"/>
       <use xlink:href="#DejaVuSans-30" x="95.410156"/>
       <use xlink:href="#DejaVuSans-30" x="159.033203"/>
       <use xlink:href="#DejaVuSans-35" x="222.65625"/>
      </g>
     </g>
    </g>
    <g id="xtick_7">
     <g id="line2d_7">
      <g>
       <use xlink:href="#m1d0f35d966" x="326.135041" y="288.430125" style="stroke: #000000; stroke-width: 0.8"/>
      </g>
     </g>
     <g id="text_7">
      <!-- 0.006 -->
      <g transform="translate(311.820978 303.028562) scale(0.1 -0.1)">
       <defs>
        <path id="DejaVuSans-36" d="M 2113 2584 
Q 1688 2584 1439 2293 
Q 1191 2003 1191 1497 
Q 1191 994 1439 701 
Q 1688 409 2113 409 
Q 2538 409 2786 701 
Q 3034 994 3034 1497 
Q 3034 2003 2786 2293 
Q 2538 2584 2113 2584 
z
M 3366 4563 
L 3366 3988 
Q 3128 4100 2886 4159 
Q 2644 4219 2406 4219 
Q 1781 4219 1451 3797 
Q 1122 3375 1075 2522 
Q 1259 2794 1537 2939 
Q 1816 3084 2150 3084 
Q 2853 3084 3261 2657 
Q 3669 2231 3669 1497 
Q 3669 778 3244 343 
Q 2819 -91 2113 -91 
Q 1303 -91 875 529 
Q 447 1150 447 2328 
Q 447 3434 972 4092 
Q 1497 4750 2381 4750 
Q 2619 4750 2861 4703 
Q 3103 4656 3366 4563 
z
" transform="scale(0.015625)"/>
       </defs>
       <use xlink:href="#DejaVuSans-30"/>
       <use xlink:href="#DejaVuSans-2e" x="63.623047"/>
       <use xlink:href="#DejaVuSans-30" x="95.410156"/>
       <use xlink:href="#DejaVuSans-30" x="159.033203"/>
       <use xlink:href="#DejaVuSans-36" x="222.65625"/>
      </g>
     </g>
    </g>
    <g id="xtick_8">
     <g id="line2d_8">
      <g>
       <use xlink:href="#m1d0f35d966" x="369.428135" y="288.430125" style="stroke: #000000; stroke-width: 0.8"/>
      </g>
     </g>
     <g id="text_8">
      <!-- 0.007 -->
      <g transform="translate(355.114072 303.028562) scale(0.1 -0.1)">
       <defs>
        <path id="DejaVuSans-37" d="M 525 4666 
L 3525 4666 
L 3525 4397 
L 1831 0 
L 1172 0 
L 2766 4134 
L 525 4134 
L 525 4666 
z
" transform="scale(0.015625)"/>
       </defs>
       <use xlink:href="#DejaVuSans-30"/>
       <use xlink:href="#DejaVuSans-2e" x="63.623047"/>
       <use xlink:href="#DejaVuSans-30" x="95.410156"/>
       <use xlink:href="#DejaVuSans-30" x="159.033203"/>
       <use xlink:href="#DejaVuSans-37" x="222.65625"/>
      </g>
     </g>
    </g>
    <g id="text_9">
     <!-- Pixel values -->
     <g transform="translate(199.292031 316.706687) scale(0.1 -0.1)">
      <defs>
       <path id="DejaVuSans-50" d="M 1259 4147 
L 1259 2394 
L 2053 2394 
Q 2494 2394 2734 2622 
Q 2975 2850 2975 3272 
Q 2975 3691 2734 3919 
Q 2494 4147 2053 4147 
L 1259 4147 
z
M 628 4666 
L 2053 4666 
Q 2838 4666 3239 4311 
Q 3641 3956 3641 3272 
Q 3641 2581 3239 2228 
Q 2838 1875 2053 1875 
L 1259 1875 
L 1259 0 
L 628 0 
L 628 4666 
z
" transform="scale(0.015625)"/>
       <path id="DejaVuSans-69" d="M 603 3500 
L 1178 3500 
L 1178 0 
L 603 0 
L 603 3500 
z
M 603 4863 
L 1178 4863 
L 1178 4134 
L 603 4134 
L 603 4863 
z
" transform="scale(0.015625)"/>
       <path id="DejaVuSans-78" d="M 3513 3500 
L 2247 1797 
L 3578 0 
L 2900 0 
L 1881 1375 
L 863 0 
L 184 0 
L 1544 1831 
L 300 3500 
L 978 3500 
L 1906 2253 
L 2834 3500 
L 3513 3500 
z
" transform="scale(0.015625)"/>
       <path id="DejaVuSans-65" d="M 3597 1894 
L 3597 1613 
L 953 1613 
Q 991 1019 1311 708 
Q 1631 397 2203 397 
Q 2534 397 2845 478 
Q 3156 559 3463 722 
L 3463 178 
Q 3153 47 2828 -22 
Q 2503 -91 2169 -91 
Q 1331 -91 842 396 
Q 353 884 353 1716 
Q 353 2575 817 3079 
Q 1281 3584 2069 3584 
Q 2775 3584 3186 3129 
Q 3597 2675 3597 1894 
z
M 3022 2063 
Q 3016 2534 2758 2815 
Q 2500 3097 2075 3097 
Q 1594 3097 1305 2825 
Q 1016 2553 972 2059 
L 3022 2063 
z
" transform="scale(0.015625)"/>
       <path id="DejaVuSans-6c" d="M 603 4863 
L 1178 4863 
L 1178 0 
L 603 0 
L 603 4863 
z
" transform="scale(0.015625)"/>
       <path id="DejaVuSans-20" transform="scale(0.015625)"/>
       <path id="DejaVuSans-76" d="M 191 3500 
L 800 3500 
L 1894 563 
L 2988 3500 
L 3597 3500 
L 2284 0 
L 1503 0 
L 191 3500 
z
" transform="scale(0.015625)"/>
       <path id="DejaVuSans-61" d="M 2194 1759 
Q 1497 1759 1228 1600 
Q 959 1441 959 1056 
Q 959 750 1161 570 
Q 1363 391 1709 391 
Q 2188 391 2477 730 
Q 2766 1069 2766 1631 
L 2766 1759 
L 2194 1759 
z
M 3341 1997 
L 3341 0 
L 2766 0 
L 2766 531 
Q 2569 213 2275 61 
Q 1981 -91 1556 -91 
Q 1019 -91 701 211 
Q 384 513 384 1019 
Q 384 1609 779 1909 
Q 1175 2209 1959 2209 
L 2766 2209 
L 2766 2266 
Q 2766 2663 2505 2880 
Q 2244 3097 1772 3097 
Q 1472 3097 1187 3025 
Q 903 2953 641 2809 
L 641 3341 
Q 956 3463 1253 3523 
Q 1550 3584 1831 3584 
Q 2591 3584 2966 3190 
Q 3341 2797 3341 1997 
z
" transform="scale(0.015625)"/>
       <path id="DejaVuSans-75" d="M 544 1381 
L 544 3500 
L 1119 3500 
L 1119 1403 
Q 1119 906 1312 657 
Q 1506 409 1894 409 
Q 2359 409 2629 706 
Q 2900 1003 2900 1516 
L 2900 3500 
L 3475 3500 
L 3475 0 
L 2900 0 
L 2900 538 
Q 2691 219 2414 64 
Q 2138 -91 1772 -91 
Q 1169 -91 856 284 
Q 544 659 544 1381 
z
M 1991 3584 
L 1991 3584 
z
" transform="scale(0.015625)"/>
       <path id="DejaVuSans-73" d="M 2834 3397 
L 2834 2853 
Q 2591 2978 2328 3040 
Q 2066 3103 1784 3103 
Q 1356 3103 1142 2972 
Q 928 2841 928 2578 
Q 928 2378 1081 2264 
Q 1234 2150 1697 2047 
L 1894 2003 
Q 2506 1872 2764 1633 
Q 3022 1394 3022 966 
Q 3022 478 2636 193 
Q 2250 -91 1575 -91 
Q 1294 -91 989 -36 
Q 684 19 347 128 
L 347 722 
Q 666 556 975 473 
Q 1284 391 1588 391 
Q 1994 391 2212 530 
Q 2431 669 2431 922 
Q 2431 1156 2273 1281 
Q 2116 1406 1581 1522 
L 1381 1569 
Q 847 1681 609 1914 
Q 372 2147 372 2553 
Q 372 3047 722 3315 
Q 1072 3584 1716 3584 
Q 2034 3584 2315 3537 
Q 2597 3491 2834 3397 
z
" transform="scale(0.015625)"/>
      </defs>
      <use xlink:href="#DejaVuSans-50"/>
      <use xlink:href="#DejaVuSans-69" x="58.052734"/>
      <use xlink:href="#DejaVuSans-78" x="85.835938"/>
      <use xlink:href="#DejaVuSans-65" x="141.890625"/>
      <use xlink:href="#DejaVuSans-6c" x="203.414062"/>
      <use xlink:href="#DejaVuSans-20" x="231.197266"/>
      <use xlink:href="#DejaVuSans-76" x="262.984375"/>
      <use xlink:href="#DejaVuSans-61" x="322.164062"/>
      <use xlink:href="#DejaVuSans-6c" x="383.443359"/>
      <use xlink:href="#DejaVuSans-75" x="411.226562"/>
      <use xlink:href="#DejaVuSans-65" x="474.605469"/>
      <use xlink:href="#DejaVuSans-73" x="536.128906"/>
     </g>
    </g>
   </g>
   <g id="matplotlib.axis_2">
    <g id="ytick_1">
     <g id="line2d_9">
      <defs>
       <path id="m4886f0e182" d="M 0 0 
L -3.5 0 
" style="stroke: #000000; stroke-width: 0.8"/>
      </defs>
      <g>
       <use xlink:href="#m4886f0e182" x="50.14375" y="256.49846" style="stroke: #000000; stroke-width: 0.8"/>
      </g>
     </g>
     <g id="text_10">
      <!-- 0.00 -->
      <g transform="translate(20.878125 260.297679) scale(0.1 -0.1)">
       <use xlink:href="#DejaVuSans-30"/>
       <use xlink:href="#DejaVuSans-2e" x="63.623047"/>
       <use xlink:href="#DejaVuSans-30" x="95.410156"/>
       <use xlink:href="#DejaVuSans-30" x="159.033203"/>
      </g>
     </g>
    </g>
    <g id="ytick_2">
     <g id="line2d_10">
      <g>
       <use xlink:href="#m4886f0e182" x="50.14375" y="204.511613" style="stroke: #000000; stroke-width: 0.8"/>
      </g>
     </g>
     <g id="text_11">
      <!-- 0.02 -->
      <g transform="translate(20.878125 208.310831) scale(0.1 -0.1)">
       <use xlink:href="#DejaVuSans-30"/>
       <use xlink:href="#DejaVuSans-2e" x="63.623047"/>
       <use xlink:href="#DejaVuSans-30" x="95.410156"/>
       <use xlink:href="#DejaVuSans-32" x="159.033203"/>
      </g>
     </g>
    </g>
    <g id="ytick_3">
     <g id="line2d_11">
      <g>
       <use xlink:href="#m4886f0e182" x="50.14375" y="152.524765" style="stroke: #000000; stroke-width: 0.8"/>
      </g>
     </g>
     <g id="text_12">
      <!-- 0.04 -->
      <g transform="translate(20.878125 156.323984) scale(0.1 -0.1)">
       <use xlink:href="#DejaVuSans-30"/>
       <use xlink:href="#DejaVuSans-2e" x="63.623047"/>
       <use xlink:href="#DejaVuSans-30" x="95.410156"/>
       <use xlink:href="#DejaVuSans-34" x="159.033203"/>
      </g>
     </g>
    </g>
    <g id="ytick_4">
     <g id="line2d_12">
      <g>
       <use xlink:href="#m4886f0e182" x="50.14375" y="100.537917" style="stroke: #000000; stroke-width: 0.8"/>
      </g>
     </g>
     <g id="text_13">
      <!-- 0.06 -->
      <g transform="translate(20.878125 104.337136) scale(0.1 -0.1)">
       <use xlink:href="#DejaVuSans-30"/>
       <use xlink:href="#DejaVuSans-2e" x="63.623047"/>
       <use xlink:href="#DejaVuSans-30" x="95.410156"/>
       <use xlink:href="#DejaVuSans-36" x="159.033203"/>
      </g>
     </g>
    </g>
    <g id="ytick_5">
     <g id="line2d_13">
      <g>
       <use xlink:href="#m4886f0e182" x="50.14375" y="48.551069" style="stroke: #000000; stroke-width: 0.8"/>
      </g>
     </g>
     <g id="text_14">
      <!-- 0.08 -->
      <g transform="translate(20.878125 52.350288) scale(0.1 -0.1)">
       <defs>
        <path id="DejaVuSans-38" d="M 2034 2216 
Q 1584 2216 1326 1975 
Q 1069 1734 1069 1313 
Q 1069 891 1326 650 
Q 1584 409 2034 409 
Q 2484 409 2743 651 
Q 3003 894 3003 1313 
Q 3003 1734 2745 1975 
Q 2488 2216 2034 2216 
z
M 1403 2484 
Q 997 2584 770 2862 
Q 544 3141 544 3541 
Q 544 4100 942 4425 
Q 1341 4750 2034 4750 
Q 2731 4750 3128 4425 
Q 3525 4100 3525 3541 
Q 3525 3141 3298 2862 
Q 3072 2584 2669 2484 
Q 3125 2378 3379 2068 
Q 3634 1759 3634 1313 
Q 3634 634 3220 271 
Q 2806 -91 2034 -91 
Q 1263 -91 848 271 
Q 434 634 434 1313 
Q 434 1759 690 2068 
Q 947 2378 1403 2484 
z
M 1172 3481 
Q 1172 3119 1398 2916 
Q 1625 2713 2034 2713 
Q 2441 2713 2670 2916 
Q 2900 3119 2900 3481 
Q 2900 3844 2670 4047 
Q 2441 4250 2034 4250 
Q 1625 4250 1398 4047 
Q 1172 3844 1172 3481 
z
" transform="scale(0.015625)"/>
       </defs>
       <use xlink:href="#DejaVuSans-30"/>
       <use xlink:href="#DejaVuSans-2e" x="63.623047"/>
       <use xlink:href="#DejaVuSans-30" x="95.410156"/>
       <use xlink:href="#DejaVuSans-38" x="159.033203"/>
      </g>
     </g>
    </g>
    <g id="text_15">
     <!-- Frequency -->
     <g transform="translate(14.798438 181.203812) rotate(-90) scale(0.1 -0.1)">
      <defs>
       <path id="DejaVuSans-46" d="M 628 4666 
L 3309 4666 
L 3309 4134 
L 1259 4134 
L 1259 2759 
L 3109 2759 
L 3109 2228 
L 1259 2228 
L 1259 0 
L 628 0 
L 628 4666 
z
" transform="scale(0.015625)"/>
       <path id="DejaVuSans-72" d="M 2631 2963 
Q 2534 3019 2420 3045 
Q 2306 3072 2169 3072 
Q 1681 3072 1420 2755 
Q 1159 2438 1159 1844 
L 1159 0 
L 581 0 
L 581 3500 
L 1159 3500 
L 1159 2956 
Q 1341 3275 1631 3429 
Q 1922 3584 2338 3584 
Q 2397 3584 2469 3576 
Q 2541 3569 2628 3553 
L 2631 2963 
z
" transform="scale(0.015625)"/>
       <path id="DejaVuSans-71" d="M 947 1747 
Q 947 1113 1208 752 
Q 1469 391 1925 391 
Q 2381 391 2643 752 
Q 2906 1113 2906 1747 
Q 2906 2381 2643 2742 
Q 2381 3103 1925 3103 
Q 1469 3103 1208 2742 
Q 947 2381 947 1747 
z
M 2906 525 
Q 2725 213 2448 61 
Q 2172 -91 1784 -91 
Q 1150 -91 751 415 
Q 353 922 353 1747 
Q 353 2572 751 3078 
Q 1150 3584 1784 3584 
Q 2172 3584 2448 3432 
Q 2725 3281 2906 2969 
L 2906 3500 
L 3481 3500 
L 3481 -1331 
L 2906 -1331 
L 2906 525 
z
" transform="scale(0.015625)"/>
       <path id="DejaVuSans-6e" d="M 3513 2113 
L 3513 0 
L 2938 0 
L 2938 2094 
Q 2938 2591 2744 2837 
Q 2550 3084 2163 3084 
Q 1697 3084 1428 2787 
Q 1159 2491 1159 1978 
L 1159 0 
L 581 0 
L 581 3500 
L 1159 3500 
L 1159 2956 
Q 1366 3272 1645 3428 
Q 1925 3584 2291 3584 
Q 2894 3584 3203 3211 
Q 3513 2838 3513 2113 
z
" transform="scale(0.015625)"/>
       <path id="DejaVuSans-63" d="M 3122 3366 
L 3122 2828 
Q 2878 2963 2633 3030 
Q 2388 3097 2138 3097 
Q 1578 3097 1268 2742 
Q 959 2388 959 1747 
Q 959 1106 1268 751 
Q 1578 397 2138 397 
Q 2388 397 2633 464 
Q 2878 531 3122 666 
L 3122 134 
Q 2881 22 2623 -34 
Q 2366 -91 2075 -91 
Q 1284 -91 818 406 
Q 353 903 353 1747 
Q 353 2603 823 3093 
Q 1294 3584 2113 3584 
Q 2378 3584 2631 3529 
Q 2884 3475 3122 3366 
z
" transform="scale(0.015625)"/>
       <path id="DejaVuSans-79" d="M 2059 -325 
Q 1816 -950 1584 -1140 
Q 1353 -1331 966 -1331 
L 506 -1331 
L 506 -850 
L 844 -850 
Q 1081 -850 1212 -737 
Q 1344 -625 1503 -206 
L 1606 56 
L 191 3500 
L 800 3500 
L 1894 763 
L 2988 3500 
L 3597 3500 
L 2059 -325 
z
" transform="scale(0.015625)"/>
      </defs>
      <use xlink:href="#DejaVuSans-46"/>
      <use xlink:href="#DejaVuSans-72" x="50.269531"/>
      <use xlink:href="#DejaVuSans-65" x="89.132812"/>
      <use xlink:href="#DejaVuSans-71" x="150.65625"/>
      <use xlink:href="#DejaVuSans-75" x="214.132812"/>
      <use xlink:href="#DejaVuSans-65" x="277.511719"/>
      <use xlink:href="#DejaVuSans-6e" x="339.035156"/>
      <use xlink:href="#DejaVuSans-63" x="402.414062"/>
      <use xlink:href="#DejaVuSans-79" x="457.394531"/>
     </g>
    </g>
   </g>
   <g id="line2d_14">
    <path d="M 66.376477 125.131133 
L 68.497297 208.453452 
L 70.618116 246.542717 
L 72.738935 254.010484 
L 74.859755 242.137551 
L 76.980574 219.443617 
L 79.101393 192.182911 
L 81.222213 164.773007 
L 83.343032 140.163472 
L 85.463851 120.150591 
L 87.584671 105.643909 
L 89.70549 96.889926 
L 91.826309 93.657861 
L 93.947129 95.392016 
L 96.067948 101.334894 
L 98.188767 110.624872 
L 100.309586 122.3719 
L 102.430406 135.714392 
L 104.551225 149.860143 
L 106.672044 164.113873 
L 108.792864 177.893689 
L 110.913683 190.738545 
L 113.034502 202.30852 
L 115.155322 212.379538 
L 117.276141 220.833938 
L 119.39696 227.648123 
L 121.51778 232.878336 
L 123.638599 236.645465 
L 125.759418 239.119606 
L 127.880238 240.505011 
L 130.001057 241.0259 
L 132.121876 240.913516 
L 134.242696 240.394698 
L 136.363515 239.682162 
L 138.484334 238.966606 
L 140.605154 238.410666 
L 142.725973 238.144708 
L 144.846792 238.264397 
L 146.967612 238.829908 
L 149.088431 239.86665 
L 151.20925 241.367318 
L 153.33007 243.295076 
L 155.450889 245.587666 
L 157.571708 248.162226 
L 159.692528 250.920584 
L 161.813347 253.754835 
L 163.934166 256.552963 
L 166.054986 259.204333 
L 168.175805 261.60486 
L 170.296624 256.4951 
L 172.417444 256.495213 
L 174.538263 265.478815 
L 176.659082 266.310252 
L 178.779902 266.652326 
L 180.900721 266.501526 
L 183.02154 265.875379 
L 185.14236 264.811736 
L 187.263179 263.367252 
L 189.383998 261.615088 
L 191.504818 259.64194 
L 193.625637 257.544463 
L 195.746456 255.425231 
L 197.867276 253.388356 
L 199.988095 251.534918 
L 202.108914 249.958372 
L 204.229734 248.740098 
L 206.350553 247.945275 
L 208.471372 247.61926 
L 210.592191 247.78463 
L 212.713011 248.43908 
L 214.83383 249.554297 
L 216.954649 251.075969 
L 219.075469 252.92502 
L 221.196288 255.000153 
L 223.317107 257.181731 
L 225.437927 259.336985 
L 227.558746 261.326498 
L 229.679565 263.01181 
L 231.800385 264.263973 
L 233.921204 264.972766 
L 236.042023 265.056202 
L 238.162843 264.469865 
L 240.283662 263.215508 
L 242.404481 261.34821 
L 244.525301 258.981275 
L 246.64612 256.287911 
L 248.766939 253.498567 
L 250.887759 250.892646 
L 253.008578 248.783148 
L 255.129397 247.49257 
L 257.250217 247.318238 
L 259.371036 248.484973 
L 261.491855 251.08282 
L 263.612675 254.987262 
L 265.733494 259.759142 
L 267.854313 264.521193 
L 269.975133 267.807799 
L 272.095952 267.384329 
L 274.216771 260.032009 
L 276.337591 241.294019 
" clip-path="url(#pbbdf68f8bc)" style="fill: none; stroke: #1f77b4; stroke-width: 1.5; stroke-linecap: square"/>
   </g>
   <g id="line2d_15">
    <path d="M 66.376477 276.334125 
L 69.655816 198.520268 
L 72.935155 137.672165 
L 76.214494 92.482886 
L 79.493833 61.37678 
L 82.773171 42.620612 
L 86.05251 34.414125 
L 89.331849 34.96249 
L 92.611188 42.532883 
L 95.890527 55.497265 
L 99.169866 72.363264 
L 102.449205 91.79488 
L 105.728543 112.62459 
L 109.007882 133.858276 
L 112.287221 154.674266 
L 115.56656 174.417621 
L 118.845899 192.590727 
L 122.125238 208.841064 
L 125.404576 222.946993 
L 128.683915 234.802232 
L 131.963254 244.399645 
L 135.242593 251.814841 
L 138.521932 257.190052 
L 141.801271 260.71861 
L 145.08061 262.630352 
L 148.359948 263.178153 
L 151.639287 262.625783 
L 154.918626 261.237188 
L 158.197965 259.267282 
L 161.477304 256.954274 
L 164.756643 254.513536 
L 168.035981 252.132963 
L 171.31532 249.969771 
L 174.594659 248.148641 
L 177.873998 246.761114 
L 181.153337 245.866099 
L 184.432676 245.491377 
L 187.712014 245.635946 
L 190.991353 246.273077 
L 194.270692 247.353919 
L 197.550031 248.811504 
L 200.82937 250.565023 
L 204.108709 252.524211 
L 207.388048 254.593722 
L 210.667386 256.677371 
L 213.946725 258.682121 
L 217.226064 260.521724 
L 220.505403 262.119916 
L 223.784742 263.413115 
L 227.064081 256.495639 
L 230.343419 256.49813 
L 233.622758 257.834278 
L 236.902097 257.209404 
L 240.181436 256.584675 
L 243.460775 255.98997 
L 246.740114 255.452297 
L 250.019452 254.994747 
L 253.298791 254.635652 
L 256.57813 254.387959 
L 259.857469 254.258844 
L 263.136808 254.249582 
L 266.416147 254.355648 
L 269.695486 254.56707 
L 272.974824 254.869008 
L 276.254163 255.242523 
L 279.533502 255.665532 
L 282.812841 256.113896 
L 286.09218 256.562602 
L 289.371519 256.987 
L 292.650857 257.364039 
L 295.930196 257.673462 
L 299.209535 257.898888 
L 302.488874 258.028747 
L 305.768213 258.057015 
L 309.047552 257.983692 
L 312.32689 257.814993 
L 315.606229 257.56322 
L 318.885568 257.246276 
L 322.164907 256.886833 
L 325.444246 256.511132 
L 328.723585 256.147456 
L 332.002924 255.8243 
L 335.282262 255.568307 
L 338.561601 255.402054 
L 341.84094 255.341804 
L 345.120279 255.395372 
L 348.399618 255.560284 
L 351.678957 255.822451 
L 354.958295 256.155619 
L 358.237634 256.521904 
L 361.516973 256.873773 
L 364.796312 257.157874 
L 368.075651 257.321192 
L 371.35499 257.320068 
L 374.634329 257.132659 
L 377.913667 256.775539 
L 381.193006 256.325156 
L 384.472345 255.945003 
L 387.751684 255.919386 
L 391.031023 256.694815 
" clip-path="url(#pbbdf68f8bc)" style="fill: none; stroke: #ff7f0e; stroke-width: 1.5; stroke-linecap: square"/>
   </g>
   <g id="line2d_16">
    <path d="M 66.376477 184.643857 
L 69.645197 172.77684 
L 72.913917 152.03105 
L 76.182637 128.135063 
L 79.451357 105.110004 
L 82.720076 85.607646 
L 85.988796 71.200338 
L 89.257516 62.62772 
L 92.526236 60.004875 
L 95.794956 62.996159 
L 99.063675 70.958693 
L 102.332395 83.059128 
L 105.601115 98.367039 
L 108.869835 115.928006 
L 112.138555 134.819178 
L 115.407274 154.189858 
L 118.675994 173.289422 
L 121.944714 191.484635 
L 125.213434 208.268254 
L 128.482154 223.260568 
L 131.750873 236.205366 
L 135.019593 246.961638 
L 138.288313 255.492158 
L 141.557033 261.849943 
L 144.825753 266.163432 
L 148.094472 268.621127 
L 151.363192 269.456287 
L 154.631912 268.932177 
L 157.900632 267.328263 
L 161.169352 264.927672 
L 164.438072 262.006123 
L 167.706791 258.82249 
L 170.975511 255.611085 
L 174.244231 252.575684 
L 177.512951 249.885275 
L 180.781671 247.671475 
L 184.05039 246.027492 
L 187.31911 245.008539 
L 190.58783 244.633507 
L 193.85655 244.887762 
L 197.12527 245.726855 
L 200.393989 247.080972 
L 203.662709 248.859922 
L 206.931429 250.958468 
L 210.200149 253.261817 
L 213.468869 255.651093 
L 216.737588 258.008607 
L 220.006308 260.222795 
L 223.275028 262.192664 
L 226.543748 256.495377 
L 229.812468 256.497141 
L 233.081187 260.107743 
L 236.349907 260.209903 
L 239.618627 260.130579 
L 242.887347 259.878327 
L 246.156067 259.469107 
L 249.424787 258.925472 
L 252.693506 258.275522 
L 255.962226 257.551672 
L 259.230946 256.789273 
L 262.499666 256.025119 
L 265.768386 255.2959 
L 269.037105 254.636645 
L 272.305825 254.079206 
L 275.574545 253.650838 
L 278.843265 253.372919 
L 282.111985 253.259869 
L 285.380704 253.318312 
L 288.649424 253.546515 
L 291.918144 253.934163 
L 295.186864 254.462471 
L 298.455584 255.104692 
L 301.724303 255.826996 
L 304.993023 256.589759 
L 308.261743 257.349224 
L 311.530463 258.059522 
L 314.799183 258.675007 
L 318.067902 259.152852 
L 321.336622 259.455815 
L 324.605342 259.555082 
L 327.874062 259.433055 
L 331.142782 259.085939 
L 334.411502 258.525934 
L 337.680221 257.78284 
L 340.948941 256.9048 
L 344.217661 255.957933 
L 347.486381 255.024511 
L 350.755101 254.199328 
L 354.02382 253.583868 
L 357.29254 253.277797 
L 360.56126 253.367312 
L 363.82998 253.909765 
L 367.0987 254.913977 
L 370.367419 256.315573 
L 373.636139 257.946611 
L 376.904859 259.498721 
L 380.173579 260.478896 
L 383.442299 260.157011 
L 386.711018 257.504072 
L 389.979738 251.120119 
" clip-path="url(#pbbdf68f8bc)" style="fill: none; stroke: #2ca02c; stroke-width: 1.5; stroke-linecap: square"/>
   </g>
   <g id="line2d_17">
    <path d="M 66.376477 239.751969 
L 69.341043 220.027192 
L 72.305609 189.643607 
L 75.270175 155.607578 
L 78.234741 122.831979 
L 81.199307 94.55222 
L 84.163873 72.682731 
L 87.128439 58.120084 
L 90.093005 50.998492 
L 93.057571 50.902979 
L 96.022136 57.045132 
L 98.986702 68.405934 
L 101.951268 83.849825 
L 104.915834 102.213783 
L 107.8804 122.374879 
L 110.844966 143.299456 
L 113.809532 164.076777 
L 116.774098 183.93972 
L 119.738664 202.274805 
L 122.70323 218.623639 
L 125.667796 232.677582 
L 128.632362 244.267258 
L 131.596927 253.348311 
L 134.561493 259.984641 
L 137.526059 264.330138 
L 140.490625 266.609838 
L 143.455191 267.101204 
L 146.419757 266.11616 
L 149.384323 263.984345 
L 152.348889 261.037957 
L 155.313455 257.598456 
L 158.278021 253.965305 
L 161.242587 250.406838 
L 164.207153 247.153291 
L 167.171718 244.391956 
L 170.136284 242.264371 
L 173.10085 240.86542 
L 176.065416 240.244177 
L 179.029982 240.406292 
L 181.994548 241.317708 
L 184.959114 242.909488 
L 187.92368 245.083485 
L 190.888246 247.71865 
L 193.852812 250.677702 
L 196.817378 253.813953 
L 199.781944 256.978046 
L 202.746509 260.024419 
L 205.711075 262.817284 
L 208.675641 265.235975 
L 211.640207 256.494309 
L 214.604773 256.496144 
L 217.569339 263.510365 
L 220.533905 263.531866 
L 223.498471 263.232058 
L 226.463037 262.6311 
L 229.427603 261.76154 
L 232.392169 260.666889 
L 235.356735 259.399803 
L 238.3213 258.019933 
L 241.285866 256.591517 
L 244.250432 255.180773 
L 247.214998 253.853188 
L 250.179564 252.670788 
L 253.14413 251.689473 
L 256.108696 250.956513 
L 259.073262 250.508302 
L 262.037828 250.368455 
L 265.002394 250.546327 
L 267.96696 251.036059 
L 270.931526 251.816185 
L 273.896092 252.8499 
L 276.860657 254.085992 
L 279.825223 255.460508 
L 282.789789 256.899119 
L 285.754355 258.320205 
L 288.718921 259.638589 
L 291.683487 260.76986 
L 294.648053 261.635174 
L 297.612619 262.166383 
L 300.577185 262.311306 
L 303.541751 262.038908 
L 306.506317 261.344103 
L 309.470883 260.251826 
L 312.435448 258.820005 
L 315.400014 257.140934 
L 318.36458 255.340533 
L 321.329146 253.574892 
L 324.293712 252.023389 
L 327.258278 250.877638 
L 330.222844 250.325382 
L 333.18741 250.528386 
L 336.151976 251.593264 
L 339.116542 253.534075 
L 342.081108 256.225405 
L 345.045674 259.344533 
L 348.010239 262.301157 
L 350.974805 264.153014 
L 353.939371 263.505593 
L 356.903937 258.393997 
L 359.868503 246.144855 
" clip-path="url(#pbbdf68f8bc)" style="fill: none; stroke: #d62728; stroke-width: 1.5; stroke-linecap: square"/>
   </g>
   <g id="line2d_18">
    <path d="M 66.376477 139.188418 
L 68.281094 207.368749 
L 70.185711 238.573496 
L 72.090327 244.801785 
L 73.994944 235.290931 
L 75.899561 216.994656 
L 77.804178 194.99836 
L 79.708794 172.877621 
L 81.613411 153.005678 
L 83.518028 136.815248 
L 85.422644 125.019603 
L 87.327261 117.797513 
L 89.231878 114.946237 
L 91.136494 116.006461 
L 93.041111 120.362729 
L 94.945728 127.322612 
L 96.850345 136.177573 
L 98.754961 146.248227 
L 100.659578 156.916393 
L 102.564195 167.646158 
L 104.468811 177.995875 
L 106.373428 187.622861 
L 108.278045 196.282321 
L 110.182662 203.821861 
L 112.087278 210.172766 
L 113.991895 215.339064 
L 115.896512 219.385246 
L 117.801128 222.423381 
L 119.705745 224.600222 
L 121.610362 226.084812 
L 123.514978 227.056963 
L 125.419595 227.696914 
L 127.324212 228.176376 
L 129.228829 228.651094 
L 131.133445 229.255002 
L 133.038062 230.095984 
L 134.942679 231.253189 
L 136.847295 232.775843 
L 138.751912 234.683423 
L 140.656529 236.967056 
L 142.561146 239.591994 
L 144.465762 242.500958 
L 146.370379 245.618193 
L 148.274996 248.854013 
L 150.179612 252.109661 
L 152.084229 255.28229 
L 153.988846 258.26988 
L 155.893462 260.975928 
L 157.798079 263.313756 
L 159.702696 256.494545 
L 161.607313 256.495276 
L 163.511929 265.275507 
L 165.416546 265.681957 
L 167.321163 265.652618 
L 169.225779 265.203773 
L 171.130396 264.367509 
L 173.035013 263.190652 
L 174.93963 261.733121 
L 176.844246 260.065757 
L 178.748863 258.267672 
L 180.65348 256.42323 
L 182.558096 254.618727 
L 184.462713 252.938901 
L 186.36733 251.463374 
L 188.271947 250.263161 
L 190.176563 249.397375 
L 192.08118 248.910258 
L 193.985797 248.828671 
L 195.890413 249.160176 
L 197.79503 249.891817 
L 199.699647 250.989721 
L 201.604263 252.399603 
L 203.50888 254.048238 
L 205.413497 255.845954 
L 207.318114 257.690151 
L 209.22273 259.46982 
L 211.127347 261.070999 
L 213.031964 262.383042 
L 214.93658 263.305539 
L 216.841197 263.755641 
L 218.745814 263.675498 
L 220.650431 263.03943 
L 222.555047 261.860368 
L 224.459664 260.195006 
L 226.364281 258.147031 
L 228.268897 255.867647 
L 230.173514 253.552541 
L 232.078131 251.434274 
L 233.982747 249.768965 
L 235.887364 248.815995 
L 237.791981 248.809295 
L 239.696598 249.918617 
L 241.601214 252.199022 
L 243.505831 255.526628 
L 245.410448 259.518466 
L 247.315064 263.434083 
L 249.219681 266.056324 
L 251.124298 265.548465 
L 253.028915 259.284673 
L 254.933531 243.650465 
" clip-path="url(#pbbdf68f8bc)" style="fill: none; stroke: #9467bd; stroke-width: 1.5; stroke-linecap: square"/>
   </g>
   <g id="line2d_19">
    <path d="M 66.376477 260.993545 
L 69.308004 206.294154 
L 72.239531 158.290573 
L 75.171058 118.600082 
L 78.102585 87.95638 
L 81.034112 66.420113 
L 83.965639 53.556465 
L 86.897167 48.583389 
L 89.828694 50.493841 
L 92.760221 58.155075 
L 95.691748 70.38786 
L 98.623275 86.0282 
L 101.554802 103.973938 
L 104.486329 123.218419 
L 107.417856 142.873179 
L 110.349383 162.181431 
L 113.28091 180.523962 
L 116.212437 197.418875 
L 119.143964 212.51645 
L 122.075491 225.590261 
L 125.007018 236.525542 
L 127.938545 245.305676 
L 130.870072 251.99754 
L 133.801599 256.736362 
L 136.733126 259.710621 
L 139.664653 261.147423 
L 142.59618 261.298725 
L 145.527707 260.428685 
L 148.459234 258.802333 
L 151.390761 256.675732 
L 154.322288 254.287695 
L 157.253815 251.853118 
L 160.185342 249.557901 
L 163.11687 247.555442 
L 166.048397 245.964595 
L 168.979924 244.869017 
L 171.911451 244.317767 
L 174.842978 244.327009 
L 177.774505 244.882674 
L 180.706032 245.943912 
L 183.637559 247.447161 
L 186.569086 249.31067 
L 189.500613 251.439303 
L 192.43214 253.729462 
L 195.363667 256.073976 
L 198.295194 258.366806 
L 201.226721 260.50744 
L 204.158248 262.404862 
L 207.089775 263.980985 
L 210.021302 256.495328 
L 212.952829 256.497419 
L 215.884356 260.042261 
L 218.815883 259.63714 
L 221.74741 259.113285 
L 224.678937 258.497045 
L 227.610464 257.817562 
L 230.541991 257.105615 
L 233.473518 256.39243 
L 236.405045 255.708507 
L 239.336573 255.082479 
L 242.2681 254.54006 
L 245.199627 254.103091 
L 248.131154 253.788725 
L 251.062681 253.608777 
L 253.994208 253.569254 
L 256.925735 253.670079 
L 259.857262 253.905041 
L 262.788789 254.261956 
L 265.720316 254.723058 
L 268.651843 255.265615 
L 271.58337 255.862753 
L 274.514897 256.484486 
L 277.446424 257.098923 
L 280.377951 257.67363 
L 283.309478 258.177106 
L 286.241005 258.580343 
L 289.172532 258.858407 
L 292.104059 258.991997 
L 295.035586 258.96891 
L 297.967113 258.785347 
L 300.89864 258.446976 
L 303.830167 257.969666 
L 306.761694 257.379802 
L 309.693221 256.714075 
L 312.624748 256.018631 
L 315.556275 255.347471 
L 318.487803 254.759971 
L 321.41933 254.317384 
L 324.350857 254.078188 
L 327.282384 254.092128 
L 330.213911 254.392796 
L 333.145438 254.98858 
L 336.076965 255.851821 
L 339.008492 256.905988 
L 341.940019 258.010691 
L 344.871546 258.944347 
L 347.803073 259.384284 
L 350.7346 258.884101 
L 353.666127 256.848051 
L 356.597654 252.502258 
" clip-path="url(#pbbdf68f8bc)" style="fill: none; stroke: #8c564b; stroke-width: 1.5; stroke-linecap: square"/>
   </g>
   <g id="patch_3">
    <path d="M 50.14375 288.430125 
L 50.14375 22.318125 
" style="fill: none; stroke: #000000; stroke-width: 0.8; stroke-linejoin: miter; stroke-linecap: square"/>
   </g>
   <g id="patch_4">
    <path d="M 407.26375 288.430125 
L 407.26375 22.318125 
" style="fill: none; stroke: #000000; stroke-width: 0.8; stroke-linejoin: miter; stroke-linecap: square"/>
   </g>
   <g id="patch_5">
    <path d="M 50.14375 288.430125 
L 407.26375 288.430125 
" style="fill: none; stroke: #000000; stroke-width: 0.8; stroke-linejoin: miter; stroke-linecap: square"/>
   </g>
   <g id="patch_6">
    <path d="M 50.14375 22.318125 
L 407.26375 22.318125 
" style="fill: none; stroke: #000000; stroke-width: 0.8; stroke-linejoin: miter; stroke-linecap: square"/>
   </g>
   <g id="text_16">
    <!-- MD - mni_prob_Parietal_Lobe -->
    <g transform="translate(142.0375 16.318125) scale(0.12 -0.12)">
     <defs>
      <path id="DejaVuSans-4d" d="M 628 4666 
L 1569 4666 
L 2759 1491 
L 3956 4666 
L 4897 4666 
L 4897 0 
L 4281 0 
L 4281 4097 
L 3078 897 
L 2444 897 
L 1241 4097 
L 1241 0 
L 628 0 
L 628 4666 
z
" transform="scale(0.015625)"/>
      <path id="DejaVuSans-44" d="M 1259 4147 
L 1259 519 
L 2022 519 
Q 2988 519 3436 956 
Q 3884 1394 3884 2338 
Q 3884 3275 3436 3711 
Q 2988 4147 2022 4147 
L 1259 4147 
z
M 628 4666 
L 1925 4666 
Q 3281 4666 3915 4102 
Q 4550 3538 4550 2338 
Q 4550 1131 3912 565 
Q 3275 0 1925 0 
L 628 0 
L 628 4666 
z
" transform="scale(0.015625)"/>
      <path id="DejaVuSans-2d" d="M 313 2009 
L 1997 2009 
L 1997 1497 
L 313 1497 
L 313 2009 
z
" transform="scale(0.015625)"/>
      <path id="DejaVuSans-6d" d="M 3328 2828 
Q 3544 3216 3844 3400 
Q 4144 3584 4550 3584 
Q 5097 3584 5394 3201 
Q 5691 2819 5691 2113 
L 5691 0 
L 5113 0 
L 5113 2094 
Q 5113 2597 4934 2840 
Q 4756 3084 4391 3084 
Q 3944 3084 3684 2787 
Q 3425 2491 3425 1978 
L 3425 0 
L 2847 0 
L 2847 2094 
Q 2847 2600 2669 2842 
Q 2491 3084 2119 3084 
Q 1678 3084 1418 2786 
Q 1159 2488 1159 1978 
L 1159 0 
L 581 0 
L 581 3500 
L 1159 3500 
L 1159 2956 
Q 1356 3278 1631 3431 
Q 1906 3584 2284 3584 
Q 2666 3584 2933 3390 
Q 3200 3197 3328 2828 
z
" transform="scale(0.015625)"/>
      <path id="DejaVuSans-5f" d="M 3263 -1063 
L 3263 -1509 
L -63 -1509 
L -63 -1063 
L 3263 -1063 
z
" transform="scale(0.015625)"/>
      <path id="DejaVuSans-70" d="M 1159 525 
L 1159 -1331 
L 581 -1331 
L 581 3500 
L 1159 3500 
L 1159 2969 
Q 1341 3281 1617 3432 
Q 1894 3584 2278 3584 
Q 2916 3584 3314 3078 
Q 3713 2572 3713 1747 
Q 3713 922 3314 415 
Q 2916 -91 2278 -91 
Q 1894 -91 1617 61 
Q 1341 213 1159 525 
z
M 3116 1747 
Q 3116 2381 2855 2742 
Q 2594 3103 2138 3103 
Q 1681 3103 1420 2742 
Q 1159 2381 1159 1747 
Q 1159 1113 1420 752 
Q 1681 391 2138 391 
Q 2594 391 2855 752 
Q 3116 1113 3116 1747 
z
" transform="scale(0.015625)"/>
      <path id="DejaVuSans-6f" d="M 1959 3097 
Q 1497 3097 1228 2736 
Q 959 2375 959 1747 
Q 959 1119 1226 758 
Q 1494 397 1959 397 
Q 2419 397 2687 759 
Q 2956 1122 2956 1747 
Q 2956 2369 2687 2733 
Q 2419 3097 1959 3097 
z
M 1959 3584 
Q 2709 3584 3137 3096 
Q 3566 2609 3566 1747 
Q 3566 888 3137 398 
Q 2709 -91 1959 -91 
Q 1206 -91 779 398 
Q 353 888 353 1747 
Q 353 2609 779 3096 
Q 1206 3584 1959 3584 
z
" transform="scale(0.015625)"/>
      <path id="DejaVuSans-62" d="M 3116 1747 
Q 3116 2381 2855 2742 
Q 2594 3103 2138 3103 
Q 1681 3103 1420 2742 
Q 1159 2381 1159 1747 
Q 1159 1113 1420 752 
Q 1681 391 2138 391 
Q 2594 391 2855 752 
Q 3116 1113 3116 1747 
z
M 1159 2969 
Q 1341 3281 1617 3432 
Q 1894 3584 2278 3584 
Q 2916 3584 3314 3078 
Q 3713 2572 3713 1747 
Q 3713 922 3314 415 
Q 2916 -91 2278 -91 
Q 1894 -91 1617 61 
Q 1341 213 1159 525 
L 1159 0 
L 581 0 
L 581 4863 
L 1159 4863 
L 1159 2969 
z
" transform="scale(0.015625)"/>
      <path id="DejaVuSans-74" d="M 1172 4494 
L 1172 3500 
L 2356 3500 
L 2356 3053 
L 1172 3053 
L 1172 1153 
Q 1172 725 1289 603 
Q 1406 481 1766 481 
L 2356 481 
L 2356 0 
L 1766 0 
Q 1100 0 847 248 
Q 594 497 594 1153 
L 594 3053 
L 172 3053 
L 172 3500 
L 594 3500 
L 594 4494 
L 1172 4494 
z
" transform="scale(0.015625)"/>
      <path id="DejaVuSans-4c" d="M 628 4666 
L 1259 4666 
L 1259 531 
L 3531 531 
L 3531 0 
L 628 0 
L 628 4666 
z
" transform="scale(0.015625)"/>
     </defs>
     <use xlink:href="#DejaVuSans-4d"/>
     <use xlink:href="#DejaVuSans-44" x="86.279297"/>
     <use xlink:href="#DejaVuSans-20" x="163.28125"/>
     <use xlink:href="#DejaVuSans-2d" x="195.068359"/>
     <use xlink:href="#DejaVuSans-20" x="231.152344"/>
     <use xlink:href="#DejaVuSans-6d" x="262.939453"/>
     <use xlink:href="#DejaVuSans-6e" x="360.351562"/>
     <use xlink:href="#DejaVuSans-69" x="423.730469"/>
     <use xlink:href="#DejaVuSans-5f" x="451.513672"/>
     <use xlink:href="#DejaVuSans-70" x="501.513672"/>
     <use xlink:href="#DejaVuSans-72" x="564.990234"/>
     <use xlink:href="#DejaVuSans-6f" x="603.853516"/>
     <use xlink:href="#DejaVuSans-62" x="665.035156"/>
     <use xlink:href="#DejaVuSans-5f" x="728.511719"/>
     <use xlink:href="#DejaVuSans-50" x="778.511719"/>
     <use xlink:href="#DejaVuSans-61" x="834.314453"/>
     <use xlink:href="#DejaVuSans-72" x="895.59375"/>
     <use xlink:href="#DejaVuSans-69" x="936.707031"/>
     <use xlink:href="#DejaVuSans-65" x="964.490234"/>
     <use xlink:href="#DejaVuSans-74" x="1026.013672"/>
     <use xlink:href="#DejaVuSans-61" x="1065.222656"/>
     <use xlink:href="#DejaVuSans-6c" x="1126.501953"/>
     <use xlink:href="#DejaVuSans-5f" x="1154.285156"/>
     <use xlink:href="#DejaVuSans-4c" x="1204.285156"/>
     <use xlink:href="#DejaVuSans-6f" x="1258.248047"/>
     <use xlink:href="#DejaVuSans-62" x="1319.429688"/>
     <use xlink:href="#DejaVuSans-65" x="1382.90625"/>
    </g>
   </g>
   <g id="legend_1">
    <g id="patch_7">
     <path d="M 449.97575 146.666825 
L 547.832 146.666825 
Q 549.832 146.666825 549.832 144.666825 
L 549.832 55.929325 
Q 549.832 53.929325 547.832 53.929325 
L 449.97575 53.929325 
Q 447.97575 53.929325 447.97575 55.929325 
L 447.97575 144.666825 
Q 447.97575 146.666825 449.97575 146.666825 
z
" style="fill: #ffffff; opacity: 0.8; stroke: #cccccc; stroke-linejoin: miter"/>
    </g>
    <g id="line2d_20">
     <path d="M 451.97575 62.027762 
L 461.97575 62.027762 
L 471.97575 62.027762 
" style="fill: none; stroke: #1f77b4; stroke-width: 1.5; stroke-linecap: square"/>
    </g>
    <g id="text_17">
     <!-- 20_06_02_E3 -->
     <g transform="translate(479.97575 65.527762) scale(0.1 -0.1)">
      <defs>
       <path id="DejaVuSans-45" d="M 628 4666 
L 3578 4666 
L 3578 4134 
L 1259 4134 
L 1259 2753 
L 3481 2753 
L 3481 2222 
L 1259 2222 
L 1259 531 
L 3634 531 
L 3634 0 
L 628 0 
L 628 4666 
z
" transform="scale(0.015625)"/>
      </defs>
      <use xlink:href="#DejaVuSans-32"/>
      <use xlink:href="#DejaVuSans-30" x="63.623047"/>
      <use xlink:href="#DejaVuSans-5f" x="127.246094"/>
      <use xlink:href="#DejaVuSans-30" x="177.246094"/>
      <use xlink:href="#DejaVuSans-36" x="240.869141"/>
      <use xlink:href="#DejaVuSans-5f" x="304.492188"/>
      <use xlink:href="#DejaVuSans-30" x="354.492188"/>
      <use xlink:href="#DejaVuSans-32" x="418.115234"/>
      <use xlink:href="#DejaVuSans-5f" x="481.738281"/>
      <use xlink:href="#DejaVuSans-45" x="531.738281"/>
      <use xlink:href="#DejaVuSans-33" x="594.921875"/>
     </g>
    </g>
    <g id="line2d_21">
     <path d="M 451.97575 76.984013 
L 461.97575 76.984013 
L 471.97575 76.984013 
" style="fill: none; stroke: #ff7f0e; stroke-width: 1.5; stroke-linecap: square"/>
    </g>
    <g id="text_18">
     <!-- 20_05_01_E3 -->
     <g transform="translate(479.97575 80.484013) scale(0.1 -0.1)">
      <use xlink:href="#DejaVuSans-32"/>
      <use xlink:href="#DejaVuSans-30" x="63.623047"/>
      <use xlink:href="#DejaVuSans-5f" x="127.246094"/>
      <use xlink:href="#DejaVuSans-30" x="177.246094"/>
      <use xlink:href="#DejaVuSans-35" x="240.869141"/>
      <use xlink:href="#DejaVuSans-5f" x="304.492188"/>
      <use xlink:href="#DejaVuSans-30" x="354.492188"/>
      <use xlink:href="#DejaVuSans-31" x="418.115234"/>
      <use xlink:href="#DejaVuSans-5f" x="481.738281"/>
      <use xlink:href="#DejaVuSans-45" x="531.738281"/>
      <use xlink:href="#DejaVuSans-33" x="594.921875"/>
     </g>
    </g>
    <g id="line2d_22">
     <path d="M 451.97575 91.940262 
L 461.97575 91.940262 
L 471.97575 91.940262 
" style="fill: none; stroke: #2ca02c; stroke-width: 1.5; stroke-linecap: square"/>
    </g>
    <g id="text_19">
     <!-- 20_02_02_E3 -->
     <g transform="translate(479.97575 95.440262) scale(0.1 -0.1)">
      <use xlink:href="#DejaVuSans-32"/>
      <use xlink:href="#DejaVuSans-30" x="63.623047"/>
      <use xlink:href="#DejaVuSans-5f" x="127.246094"/>
      <use xlink:href="#DejaVuSans-30" x="177.246094"/>
      <use xlink:href="#DejaVuSans-32" x="240.869141"/>
      <use xlink:href="#DejaVuSans-5f" x="304.492188"/>
      <use xlink:href="#DejaVuSans-30" x="354.492188"/>
      <use xlink:href="#DejaVuSans-32" x="418.115234"/>
      <use xlink:href="#DejaVuSans-5f" x="481.738281"/>
      <use xlink:href="#DejaVuSans-45" x="531.738281"/>
      <use xlink:href="#DejaVuSans-33" x="594.921875"/>
     </g>
    </g>
    <g id="line2d_23">
     <path d="M 451.97575 106.896513 
L 461.97575 106.896513 
L 471.97575 106.896513 
" style="fill: none; stroke: #d62728; stroke-width: 1.5; stroke-linecap: square"/>
    </g>
    <g id="text_20">
     <!-- 20_10_02_E3 -->
     <g transform="translate(479.97575 110.396513) scale(0.1 -0.1)">
      <use xlink:href="#DejaVuSans-32"/>
      <use xlink:href="#DejaVuSans-30" x="63.623047"/>
      <use xlink:href="#DejaVuSans-5f" x="127.246094"/>
      <use xlink:href="#DejaVuSans-31" x="177.246094"/>
      <use xlink:href="#DejaVuSans-30" x="240.869141"/>
      <use xlink:href="#DejaVuSans-5f" x="304.492188"/>
      <use xlink:href="#DejaVuSans-30" x="354.492188"/>
      <use xlink:href="#DejaVuSans-32" x="418.115234"/>
      <use xlink:href="#DejaVuSans-5f" x="481.738281"/>
      <use xlink:href="#DejaVuSans-45" x="531.738281"/>
      <use xlink:href="#DejaVuSans-33" x="594.921875"/>
     </g>
    </g>
    <g id="line2d_24">
     <path d="M 451.97575 121.852762 
L 461.97575 121.852762 
L 471.97575 121.852762 
" style="fill: none; stroke: #9467bd; stroke-width: 1.5; stroke-linecap: square"/>
    </g>
    <g id="text_21">
     <!-- 20_08_02_E3 -->
     <g transform="translate(479.97575 125.352762) scale(0.1 -0.1)">
      <use xlink:href="#DejaVuSans-32"/>
      <use xlink:href="#DejaVuSans-30" x="63.623047"/>
      <use xlink:href="#DejaVuSans-5f" x="127.246094"/>
      <use xlink:href="#DejaVuSans-30" x="177.246094"/>
      <use xlink:href="#DejaVuSans-38" x="240.869141"/>
      <use xlink:href="#DejaVuSans-5f" x="304.492188"/>
      <use xlink:href="#DejaVuSans-30" x="354.492188"/>
      <use xlink:href="#DejaVuSans-32" x="418.115234"/>
      <use xlink:href="#DejaVuSans-5f" x="481.738281"/>
      <use xlink:href="#DejaVuSans-45" x="531.738281"/>
      <use xlink:href="#DejaVuSans-33" x="594.921875"/>
     </g>
    </g>
    <g id="line2d_25">
     <path d="M 451.97575 136.809012 
L 461.97575 136.809012 
L 471.97575 136.809012 
" style="fill: none; stroke: #8c564b; stroke-width: 1.5; stroke-linecap: square"/>
    </g>
    <g id="text_22">
     <!-- 20_11_02_E3 -->
     <g transform="translate(479.97575 140.309012) scale(0.1 -0.1)">
      <use xlink:href="#DejaVuSans-32"/>
      <use xlink:href="#DejaVuSans-30" x="63.623047"/>
      <use xlink:href="#DejaVuSans-5f" x="127.246094"/>
      <use xlink:href="#DejaVuSans-31" x="177.246094"/>
      <use xlink:href="#DejaVuSans-31" x="240.869141"/>
      <use xlink:href="#DejaVuSans-5f" x="304.492188"/>
      <use xlink:href="#DejaVuSans-30" x="354.492188"/>
      <use xlink:href="#DejaVuSans-32" x="418.115234"/>
      <use xlink:href="#DejaVuSans-5f" x="481.738281"/>
      <use xlink:href="#DejaVuSans-45" x="531.738281"/>
      <use xlink:href="#DejaVuSans-33" x="594.921875"/>
     </g>
    </g>
   </g>
  </g>
 </g>
 <defs>
  <clipPath id="pbbdf68f8bc">
   <rect x="50.14375" y="22.318125" width="357.12" height="266.112"/>
  </clipPath>
 </defs>
</svg>
