<?xml version="1.0" encoding="utf-8" standalone="no"?>
<!DOCTYPE svg PUBLIC "-//W3C//DTD SVG 1.1//EN"
  "http://www.w3.org/Graphics/SVG/1.1/DTD/svg11.dtd">
<svg xmlns:xlink="http://www.w3.org/1999/xlink" width="557.032pt" height="325.986375pt" viewBox="0 0 557.032 325.986375" xmlns="http://www.w3.org/2000/svg" version="1.1">
 <metadata>
  <rdf:RDF xmlns:dc="http://purl.org/dc/elements/1.1/" xmlns:cc="http://creativecommons.org/ns#" xmlns:rdf="http://www.w3.org/1999/02/22-rdf-syntax-ns#">
   <cc:Work>
    <dc:type rdf:resource="http://purl.org/dc/dcmitype/StillImage"/>
    <dc:date>2023-02-07T23:00:06.794471</dc:date>
    <dc:format>image/svg+xml</dc:format>
    <dc:creator>
     <cc:Agent>
      <dc:title>Matplotlib v3.6.2, https://matplotlib.org/</dc:title>
     </cc:Agent>
    </dc:creator>
   </cc:Work>
  </rdf:RDF>
 </metadata>
 <defs>
  <style type="text/css">*{stroke-linejoin: round; stroke-linecap: butt}</style>
 </defs>
 <g id="figure_1">
  <g id="patch_1">
   <path d="M 0 325.986375 
L 557.032 325.986375 
L 557.032 0 
L 0 0 
z
" style="fill: #ffffff"/>
  </g>
  <g id="axes_1">
   <g id="patch_2">
    <path d="M 50.14375 288.430125 
L 407.26375 288.430125 
L 407.26375 22.318125 
L 50.14375 22.318125 
z
" style="fill: #ffffff"/>
   </g>
   <g id="PolyCollection_1">
    <path d="M 66.376477 263.970961 
L 66.376477 266.301826 
L 66.986771 266.301826 
L 67.597064 266.301826 
L 68.207357 266.301826 
L 68.81765 266.301826 
L 69.427944 266.301826 
L 70.038237 266.301826 
L 70.64853 266.301826 
L 71.258823 266.301826 
L 71.869117 266.301826 
L 72.47941 266.301826 
L 73.089703 266.301826 
L 73.699996 266.301826 
L 74.31029 266.301826 
L 74.920583 266.301826 
L 75.530876 266.301826 
L 76.141169 266.301826 
L 76.751463 266.301826 
L 77.361756 266.301826 
L 77.972049 266.301826 
L 78.582342 266.301826 
L 79.192636 266.301826 
L 79.802929 266.301826 
L 80.413222 266.301826 
L 81.023515 266.301826 
L 81.633809 266.301826 
L 82.244102 266.301826 
L 82.854395 266.301826 
L 83.464688 266.301826 
L 84.074982 266.301826 
L 84.685275 266.301826 
L 85.295568 266.301826 
L 85.905861 266.301826 
L 86.516155 266.301826 
L 87.126448 266.301826 
L 87.736741 266.301826 
L 88.347034 266.301826 
L 88.957328 266.301826 
L 89.567621 266.301826 
L 90.177914 266.301826 
L 90.788207 266.301826 
L 91.398501 266.301826 
L 92.008794 266.301826 
L 92.619087 266.301826 
L 93.22938 266.301826 
L 93.839674 266.301826 
L 94.449967 266.301826 
L 95.06026 266.301826 
L 95.670553 266.301826 
L 96.280847 266.301826 
L 96.89114 266.301826 
L 97.501433 266.301826 
L 98.111726 266.301826 
L 98.72202 266.301826 
L 99.332313 266.301826 
L 99.942606 266.301826 
L 100.552899 266.301826 
L 101.163193 266.301826 
L 101.773486 266.301826 
L 102.383779 266.301826 
L 102.994072 266.301826 
L 103.604366 266.301826 
L 104.214659 266.301826 
L 104.824952 266.301826 
L 105.435246 266.301826 
L 106.045539 266.301826 
L 106.655832 266.301826 
L 107.266125 266.301826 
L 107.876419 266.301826 
L 108.486712 266.301826 
L 109.097005 266.301826 
L 109.707298 266.301826 
L 110.317592 266.301826 
L 110.927885 266.301826 
L 111.538178 266.301826 
L 112.148471 266.301826 
L 112.758765 266.301826 
L 113.369058 266.301826 
L 113.979351 266.301826 
L 114.589644 266.301826 
L 115.199938 266.301826 
L 115.810231 266.301826 
L 116.420524 266.301826 
L 117.030817 266.301826 
L 117.641111 266.301826 
L 118.251404 266.301826 
L 118.861697 266.301826 
L 119.47199 266.301826 
L 120.082284 266.301826 
L 120.692577 266.301826 
L 121.30287 266.301826 
L 121.913163 266.301826 
L 122.523457 266.301826 
L 123.13375 266.301826 
L 123.744043 266.301826 
L 124.354336 266.301826 
L 124.96463 266.301826 
L 125.574923 266.301826 
L 126.185216 266.301826 
L 126.795509 266.301826 
L 126.795509 266.591661 
L 126.795509 266.591661 
L 126.185216 264.714432 
L 125.574923 264.219878 
L 124.96463 264.550503 
L 124.354336 265.291533 
L 123.744043 266.146058 
L 123.13375 266.913145 
L 122.523457 267.468702 
L 121.913163 267.748855 
L 121.30287 267.735621 
L 120.692577 267.444665 
L 120.082284 266.914965 
L 119.47199 266.200178 
L 118.861697 265.361551 
L 118.251404 264.462211 
L 117.641111 263.562672 
L 117.030817 262.717435 
L 116.420524 261.972523 
L 115.810231 261.363855 
L 115.199938 260.916319 
L 114.589644 260.643449 
L 113.979351 260.547611 
L 113.369058 260.620598 
L 112.758765 260.844555 
L 112.148471 261.193164 
L 111.538178 261.63301 
L 110.927885 262.125079 
L 110.317592 262.626318 
L 109.707298 263.091221 
L 109.097005 263.473398 
L 108.486712 263.727076 
L 107.876419 263.808512 
L 107.266125 263.677298 
L 106.655832 263.297516 
L 106.045539 262.63874 
L 105.435246 261.676871 
L 104.824952 260.394798 
L 104.214659 258.782864 
L 103.604366 256.839161 
L 102.994072 254.569634 
L 102.383779 251.988008 
L 101.773486 249.11555 
L 101.163193 245.980662 
L 100.552899 242.61833 
L 99.942606 239.069438 
L 99.332313 235.379964 
L 98.72202 231.600069 
L 98.111726 227.78311 
L 97.501433 223.984585 
L 96.89114 266.294022 
L 96.280847 266.294042 
L 95.670553 212.981797 
L 95.06026 209.839235 
L 94.449967 206.999592 
L 93.839674 204.506179 
L 93.22938 202.396387 
L 92.619087 200.700961 
L 92.008794 199.443406 
L 91.398501 198.639541 
L 90.788207 198.297215 
L 90.177914 198.416183 
L 89.567621 198.988145 
L 88.957328 199.996959 
L 88.347034 201.419016 
L 87.736741 203.223784 
L 87.126448 205.374494 
L 86.516155 207.828981 
L 85.905861 210.54065 
L 85.295568 213.459558 
L 84.685275 216.533589 
L 84.074982 219.709707 
L 83.464688 222.935251 
L 82.854395 226.159259 
L 82.244102 229.333776 
L 81.633809 232.415127 
L 81.023515 235.365114 
L 80.413222 238.152102 
L 79.802929 240.75195 
L 79.192636 243.148763 
L 78.582342 245.335405 
L 77.972049 247.313739 
L 77.361756 249.094553 
L 76.751463 250.697123 
L 76.141169 252.148369 
L 75.530876 253.481563 
L 74.920583 254.734541 
L 74.31029 255.947374 
L 73.699996 257.159462 
L 73.089703 258.406004 
L 72.47941 259.713806 
L 71.869117 261.096389 
L 71.258823 262.54837 
L 70.64853 264.03907 
L 70.038237 265.505338 
L 69.427944 266.843554 
L 68.81765 267.900808 
L 68.207357 268.465217 
L 67.597064 268.255403 
L 66.986771 266.909109 
L 66.376477 263.970961 
z
" clip-path="url(#pce39a1c7c6)" style="fill: #1f77b4; fill-opacity: 0.166667"/>
   </g>
   <g id="PolyCollection_2">
    <path d="M 66.376477 266.235033 
L 66.376477 266.301826 
L 66.780955 266.301826 
L 67.185433 266.301826 
L 67.58991 266.301826 
L 67.994388 266.301826 
L 68.398866 266.301826 
L 68.803343 266.301826 
L 69.207821 266.301826 
L 69.612299 266.301826 
L 70.016776 266.301826 
L 70.421254 266.301826 
L 70.825732 266.301826 
L 71.230209 266.301826 
L 71.634687 266.301826 
L 72.039165 266.301826 
L 72.443642 266.301826 
L 72.84812 266.301826 
L 73.252598 266.301826 
L 73.657076 266.301826 
L 74.061553 266.301826 
L 74.466031 266.301826 
L 74.870509 266.301826 
L 75.274986 266.301826 
L 75.679464 266.301826 
L 76.083942 266.301826 
L 76.488419 266.301826 
L 76.892897 266.301826 
L 77.297375 266.301826 
L 77.701852 266.301826 
L 78.10633 266.301826 
L 78.510808 266.301826 
L 78.915285 266.301826 
L 79.319763 266.301826 
L 79.724241 266.301826 
L 80.128718 266.301826 
L 80.533196 266.301826 
L 80.937674 266.301826 
L 81.342151 266.301826 
L 81.746629 266.301826 
L 82.151107 266.301826 
L 82.555584 266.301826 
L 82.960062 266.301826 
L 83.36454 266.301826 
L 83.769017 266.301826 
L 84.173495 266.301826 
L 84.577973 266.301826 
L 84.982451 266.301826 
L 85.386928 266.301826 
L 85.791406 266.301826 
L 86.195884 266.301826 
L 86.600361 266.301826 
L 87.004839 266.301826 
L 87.409317 266.301826 
L 87.813794 266.301826 
L 88.218272 266.301826 
L 88.62275 266.301826 
L 89.027227 266.301826 
L 89.431705 266.301826 
L 89.836183 266.301826 
L 90.24066 266.301826 
L 90.645138 266.301826 
L 91.049616 266.301826 
L 91.454093 266.301826 
L 91.858571 266.301826 
L 92.263049 266.301826 
L 92.667526 266.301826 
L 93.072004 266.301826 
L 93.476482 266.301826 
L 93.880959 266.301826 
L 94.285437 266.301826 
L 94.689915 266.301826 
L 95.094393 266.301826 
L 95.49887 266.301826 
L 95.903348 266.301826 
L 96.307826 266.301826 
L 96.712303 266.301826 
L 97.116781 266.301826 
L 97.521259 266.301826 
L 97.925736 266.301826 
L 98.330214 266.301826 
L 98.734692 266.301826 
L 99.139169 266.301826 
L 99.543647 266.301826 
L 99.948125 266.301826 
L 100.352602 266.301826 
L 100.75708 266.301826 
L 101.161558 266.301826 
L 101.566035 266.301826 
L 101.970513 266.301826 
L 102.374991 266.301826 
L 102.779468 266.301826 
L 103.183946 266.301826 
L 103.588424 266.301826 
L 103.992901 266.301826 
L 104.397379 266.301826 
L 104.801857 266.301826 
L 105.206334 266.301826 
L 105.610812 266.301826 
L 106.01529 266.301826 
L 106.419768 266.301826 
L 106.419768 266.878404 
L 106.419768 266.878404 
L 106.01529 265.579285 
L 105.610812 265.074518 
L 105.206334 265.042694 
L 104.801857 265.25552 
L 104.397379 265.557456 
L 103.992901 265.84859 
L 103.588424 266.070391 
L 103.183946 266.194004 
L 102.779468 266.210766 
L 102.374991 266.124674 
L 101.970513 265.946535 
L 101.566035 265.689553 
L 101.161558 265.36615 
L 100.75708 264.985818 
L 100.352602 264.553814 
L 99.948125 264.070569 
L 99.543647 263.531629 
L 99.139169 262.928035 
L 98.734692 262.247021 
L 98.330214 261.472924 
L 97.925736 260.588233 
L 97.521259 259.574707 
L 97.116781 258.414495 
L 96.712303 257.091206 
L 96.307826 255.590904 
L 95.903348 253.902976 
L 95.49887 252.02087 
L 95.094393 249.942666 
L 94.689915 247.671488 
L 94.285437 245.215742 
L 93.880959 242.589187 
L 93.476482 239.810838 
L 93.072004 236.904712 
L 92.667526 233.89944 
L 92.263049 230.827739 
L 91.858571 227.72578 
L 91.454093 224.632461 
L 91.049616 221.58861 
L 90.645138 218.636131 
L 90.24066 215.817124 
L 89.836183 213.17299 
L 89.431705 210.743549 
L 89.027227 208.566186 
L 88.62275 206.675044 
L 88.218272 205.100285 
L 87.813794 203.867426 
L 87.409317 202.996779 
L 87.004839 202.502982 
L 86.600361 266.293333 
L 86.195884 266.293384 
L 85.791406 203.228132 
L 85.386928 204.260727 
L 84.982451 205.656407 
L 84.577973 207.392863 
L 84.173495 209.442121 
L 83.769017 211.771095 
L 83.36454 214.342263 
L 82.960062 217.114441 
L 82.555584 220.043647 
L 82.151107 223.084043 
L 81.746629 226.188924 
L 81.342151 229.311739 
L 80.937674 232.407127 
L 80.533196 235.431933 
L 80.128718 238.346186 
L 79.724241 241.114024 
L 79.319763 243.704517 
L 78.915285 246.092393 
L 78.510808 248.258619 
L 78.10633 250.190833 
L 77.701852 251.8836 
L 77.297375 253.338477 
L 76.892897 254.563867 
L 76.488419 255.574671 
L 76.083942 256.391711 
L 75.679464 257.040938 
L 75.274986 257.552432 
L 74.870509 257.959206 
L 74.466031 258.295828 
L 74.061553 258.596904 
L 73.657076 258.89546 
L 73.252598 259.221266 
L 72.84812 259.599166 
L 72.443642 260.047503 
L 72.039165 260.576701 
L 71.634687 261.188138 
L 71.230209 261.873397 
L 70.825732 262.614062 
L 70.421254 263.382184 
L 70.016776 264.141615 
L 69.612299 264.850379 
L 69.207821 265.464324 
L 68.803343 265.942264 
L 68.398866 266.252896 
L 67.994388 266.383774 
L 67.58991 266.352646 
L 67.185433 266.221522 
L 66.780955 266.113822 
L 66.376477 266.235033 
z
" clip-path="url(#pce39a1c7c6)" style="fill: #ff7f0e; fill-opacity: 0.166667"/>
   </g>
   <g id="PolyCollection_3">
    <path d="M 66.376477 266.083112 
L 66.376477 266.301826 
L 66.804248 266.301826 
L 67.232019 266.301826 
L 67.65979 266.301826 
L 68.087561 266.301826 
L 68.515331 266.301826 
L 68.943102 266.301826 
L 69.370873 266.301826 
L 69.798644 266.301826 
L 70.226415 266.301826 
L 70.654186 266.301826 
L 71.081956 266.301826 
L 71.509727 266.301826 
L 71.937498 266.301826 
L 72.365269 266.301826 
L 72.79304 266.301826 
L 73.22081 266.301826 
L 73.648581 266.301826 
L 74.076352 266.301826 
L 74.504123 266.301826 
L 74.931894 266.301826 
L 75.359665 266.301826 
L 75.787435 266.301826 
L 76.215206 266.301826 
L 76.642977 266.301826 
L 77.070748 266.301826 
L 77.498519 266.301826 
L 77.926289 266.301826 
L 78.35406 266.301826 
L 78.781831 266.301826 
L 79.209602 266.301826 
L 79.637373 266.301826 
L 80.065144 266.301826 
L 80.492914 266.301826 
L 80.920685 266.301826 
L 81.348456 266.301826 
L 81.776227 266.301826 
L 82.203998 266.301826 
L 82.631769 266.301826 
L 83.059539 266.301826 
L 83.48731 266.301826 
L 83.915081 266.301826 
L 84.342852 266.301826 
L 84.770623 266.301826 
L 85.198393 266.301826 
L 85.626164 266.301826 
L 86.053935 266.301826 
L 86.481706 266.301826 
L 86.909477 266.301826 
L 87.337248 266.301826 
L 87.765018 266.301826 
L 88.192789 266.301826 
L 88.62056 266.301826 
L 89.048331 266.301826 
L 89.476102 266.301826 
L 89.903873 266.301826 
L 90.331643 266.301826 
L 90.759414 266.301826 
L 91.187185 266.301826 
L 91.614956 266.301826 
L 92.042727 266.301826 
L 92.470497 266.301826 
L 92.898268 266.301826 
L 93.326039 266.301826 
L 93.75381 266.301826 
L 94.181581 266.301826 
L 94.609352 266.301826 
L 95.037122 266.301826 
L 95.464893 266.301826 
L 95.892664 266.301826 
L 96.320435 266.301826 
L 96.748206 266.301826 
L 97.175977 266.301826 
L 97.603747 266.301826 
L 98.031518 266.301826 
L 98.459289 266.301826 
L 98.88706 266.301826 
L 99.314831 266.301826 
L 99.742601 266.301826 
L 100.170372 266.301826 
L 100.598143 266.301826 
L 101.025914 266.301826 
L 101.453685 266.301826 
L 101.881456 266.301826 
L 102.309226 266.301826 
L 102.736997 266.301826 
L 103.164768 266.301826 
L 103.592539 266.301826 
L 104.02031 266.301826 
L 104.448081 266.301826 
L 104.875851 266.301826 
L 105.303622 266.301826 
L 105.731393 266.301826 
L 106.159164 266.301826 
L 106.586935 266.301826 
L 107.014705 266.301826 
L 107.442476 266.301826 
L 107.870247 266.301826 
L 108.298018 266.301826 
L 108.725789 266.301826 
L 108.725789 266.675078 
L 108.725789 266.675078 
L 108.298018 265.888129 
L 107.870247 265.566871 
L 107.442476 265.509679 
L 107.014705 265.580259 
L 106.586935 265.6918 
L 106.159164 265.793827 
L 105.731393 265.861441 
L 105.303622 265.886657 
L 104.875851 265.871558 
L 104.448081 265.823035 
L 104.02031 265.748872 
L 103.592539 265.654985 
L 103.164768 265.543614 
L 102.736997 265.412323 
L 102.309226 265.253625 
L 101.881456 265.055137 
L 101.453685 264.800107 
L 101.025914 264.468244 
L 100.598143 264.036725 
L 100.170372 263.481331 
L 99.742601 262.777623 
L 99.314831 261.902113 
L 98.88706 260.833369 
L 98.459289 259.553038 
L 98.031518 258.046736 
L 97.603747 256.304793 
L 97.175977 254.322833 
L 96.748206 252.102191 
L 96.320435 249.650146 
L 95.892664 246.979982 
L 95.464893 244.110885 
L 95.037122 241.067674 
L 94.609352 237.880389 
L 94.181581 234.583745 
L 93.75381 231.216471 
L 93.326039 227.820547 
L 92.898268 224.440375 
L 92.470497 221.121877 
L 92.042727 217.911571 
L 91.614956 214.855624 
L 91.187185 211.998909 
L 90.759414 209.384092 
L 90.331643 207.050757 
L 89.903873 205.034594 
L 89.476102 203.366667 
L 89.048331 202.072765 
L 88.62056 201.172868 
L 88.192789 200.680718 
L 87.765018 266.293285 
L 87.337248 266.293301 
L 86.909477 201.639358 
L 86.481706 202.784003 
L 86.053935 204.308074 
L 85.626164 206.185951 
L 85.198393 208.386316 
L 84.770623 210.872757 
L 84.342852 213.604494 
L 83.915081 216.537201 
L 83.48731 219.623905 
L 83.059539 222.815958 
L 82.631769 226.06405 
L 82.203998 229.31925 
L 81.776227 232.534054 
L 81.348456 235.663415 
L 80.920685 238.665729 
L 80.492914 241.503759 
L 80.065144 244.145475 
L 79.637373 246.564779 
L 79.209602 248.7421 
L 78.781831 250.664837 
L 78.35406 252.327629 
L 77.926289 253.732441 
L 77.498519 254.888446 
L 77.070748 255.811701 
L 76.642977 256.5246 
L 76.215206 257.055124 
L 75.787435 257.435864 
L 75.359665 257.702855 
L 74.931894 257.894226 
L 74.504123 258.048687 
L 74.076352 258.2039 
L 73.648581 258.394769 
L 73.22081 258.651701 
L 72.79304 258.998912 
L 72.365269 259.452837 
L 71.937498 260.020759 
L 71.509727 260.699731 
L 71.081956 261.475929 
L 70.654186 262.324569 
L 70.226415 263.210517 
L 69.798644 264.089794 
L 69.370873 264.912133 
L 68.943102 265.624814 
L 68.515331 266.177999 
L 68.087561 266.531816 
L 67.65979 266.665477 
L 67.232019 266.58872 
L 66.804248 266.355902 
L 66.376477 266.083112 
z
" clip-path="url(#pce39a1c7c6)" style="fill: #2ca02c; fill-opacity: 0.166667"/>
   </g>
   <g id="PolyCollection_4">
    <path d="M 66.376477 225.324672 
L 66.376477 266.301826 
L 69.655816 266.301826 
L 72.935155 266.301826 
L 76.214494 266.301826 
L 79.493833 266.301826 
L 82.773171 266.301826 
L 86.05251 266.301826 
L 89.331849 266.301826 
L 92.611188 266.301826 
L 95.890527 266.301826 
L 99.169866 266.301826 
L 102.449205 266.301826 
L 105.728543 266.301826 
L 109.007882 266.301826 
L 112.287221 266.301826 
L 115.56656 266.301826 
L 118.845899 266.301826 
L 122.125238 266.301826 
L 125.404576 266.301826 
L 128.683915 266.301826 
L 131.963254 266.301826 
L 135.242593 266.301826 
L 138.521932 266.301826 
L 141.801271 266.301826 
L 145.08061 266.301826 
L 148.359948 266.301826 
L 151.639287 266.301826 
L 154.918626 266.301826 
L 158.197965 266.301826 
L 161.477304 266.301826 
L 164.756643 266.301826 
L 168.035981 266.301826 
L 171.31532 266.301826 
L 174.594659 266.301826 
L 177.873998 266.301826 
L 181.153337 266.301826 
L 184.432676 266.301826 
L 187.712014 266.301826 
L 190.991353 266.301826 
L 194.270692 266.301826 
L 197.550031 266.301826 
L 200.82937 266.301826 
L 204.108709 266.301826 
L 207.388048 266.301826 
L 210.667386 266.301826 
L 213.946725 266.301826 
L 217.226064 266.301826 
L 220.505403 266.301826 
L 223.784742 266.301826 
L 227.064081 266.301826 
L 230.343419 266.301826 
L 233.622758 266.301826 
L 236.902097 266.301826 
L 240.181436 266.301826 
L 243.460775 266.301826 
L 246.740114 266.301826 
L 250.019452 266.301826 
L 253.298791 266.301826 
L 256.57813 266.301826 
L 259.857469 266.301826 
L 263.136808 266.301826 
L 266.416147 266.301826 
L 269.695486 266.301826 
L 272.974824 266.301826 
L 276.254163 266.301826 
L 279.533502 266.301826 
L 282.812841 266.301826 
L 286.09218 266.301826 
L 289.371519 266.301826 
L 292.650857 266.301826 
L 295.930196 266.301826 
L 299.209535 266.301826 
L 302.488874 266.301826 
L 305.768213 266.301826 
L 309.047552 266.301826 
L 312.32689 266.301826 
L 315.606229 266.301826 
L 318.885568 266.301826 
L 322.164907 266.301826 
L 325.444246 266.301826 
L 328.723585 266.301826 
L 332.002924 266.301826 
L 335.282262 266.301826 
L 338.561601 266.301826 
L 341.84094 266.301826 
L 345.120279 266.301826 
L 348.399618 266.301826 
L 351.678957 266.301826 
L 354.958295 266.301826 
L 358.237634 266.301826 
L 361.516973 266.301826 
L 364.796312 266.301826 
L 368.075651 266.301826 
L 371.35499 266.301826 
L 374.634329 266.301826 
L 377.913667 266.301826 
L 381.193006 266.301826 
L 384.472345 266.301826 
L 387.751684 266.301826 
L 391.031023 266.301826 
L 391.031023 269.486524 
L 391.031023 269.486524 
L 387.751684 263.885952 
L 384.472345 262.140389 
L 381.193006 262.605536 
L 377.913667 264.128503 
L 374.634329 265.939997 
L 371.35499 267.564077 
L 368.075651 268.74337 
L 364.796312 269.377847 
L 361.516973 269.475393 
L 358.237634 269.112578 
L 354.958295 268.40418 
L 351.678957 267.480141 
L 348.399618 266.46879 
L 345.120279 265.485262 
L 341.84094 264.62418 
L 338.561601 263.955757 
L 335.282262 263.524592 
L 332.002924 263.350515 
L 328.723585 263.430928 
L 325.444246 263.744162 
L 322.164907 264.253456 
L 318.885568 264.911217 
L 315.606229 265.663298 
L 312.32689 266.453061 
L 309.047552 267.225073 
L 305.768213 267.928306 
L 302.488874 268.518756 
L 299.209535 268.961442 
L 295.930196 269.231758 
L 292.650857 269.316194 
L 289.371519 269.212458 
L 286.09218 268.929038 
L 282.812841 268.48429 
L 279.533502 267.905094 
L 276.254163 267.225197 
L 272.974824 266.483299 
L 269.695486 265.720999 
L 266.416147 264.98066 
L 263.136808 264.303318 
L 259.857469 263.726672 
L 256.57813 263.283274 
L 253.298791 262.99895 
L 250.019452 262.891531 
L 246.740114 262.969935 
L 243.460775 263.233629 
L 240.181436 263.672497 
L 236.902097 264.267128 
L 233.622758 264.989512 
L 230.343419 266.302305 
L 227.064081 266.301066 
L 223.784742 269.000946 
L 220.505403 269.081223 
L 217.226064 269.01714 
L 213.946725 268.8 
L 210.667386 268.427767 
L 207.388048 267.905782 
L 204.108709 267.24725 
L 200.82937 266.47346 
L 197.550031 265.613677 
L 194.270692 264.7047 
L 190.991353 263.790024 
L 187.712014 262.918609 
L 184.432676 262.143219 
L 181.153337 261.518342 
L 177.873998 261.097693 
L 174.594659 260.931309 
L 171.31532 261.062286 
L 168.035981 261.52321 
L 164.756643 262.332333 
L 161.477304 263.489621 
L 158.197965 264.972754 
L 154.918626 266.733251 
L 151.639287 268.69287 
L 148.359948 270.740496 
L 145.08061 272.729742 
L 141.801271 274.477545 
L 138.521932 275.764045 
L 135.242593 276.334125 
L 131.963254 275.900977 
L 128.683915 274.152155 
L 125.404576 270.758592 
L 122.125238 265.387137 
L 118.845899 257.717203 
L 115.56656 247.462186 
L 112.287221 234.396387 
L 109.007882 218.388211 
L 105.728543 199.440527 
L 102.449205 177.739085 
L 99.169866 153.710046 
L 95.890527 128.087675 
L 92.611188 101.9934 
L 89.331849 77.027498 
L 86.05251 55.374759 
L 82.773171 39.92559 
L 79.493833 34.414125 
L 76.214494 43.574988 
L 72.935155 73.320494 
L 69.655816 130.940182 
L 66.376477 225.324672 
z
" clip-path="url(#pce39a1c7c6)" style="fill: #d62728; fill-opacity: 0.166667"/>
   </g>
   <g id="PolyCollection_5">
    <path d="M 66.376477 263.094396 
L 66.376477 266.301826 
L 66.86707 266.301826 
L 67.357662 266.301826 
L 67.848255 266.301826 
L 68.338847 266.301826 
L 68.82944 266.301826 
L 69.320032 266.301826 
L 69.810625 266.301826 
L 70.301217 266.301826 
L 70.79181 266.301826 
L 71.282402 266.301826 
L 71.772995 266.301826 
L 72.263587 266.301826 
L 72.75418 266.301826 
L 73.244772 266.301826 
L 73.735365 266.301826 
L 74.225957 266.301826 
L 74.71655 266.301826 
L 75.207142 266.301826 
L 75.697735 266.301826 
L 76.188327 266.301826 
L 76.67892 266.301826 
L 77.169512 266.301826 
L 77.660105 266.301826 
L 78.150697 266.301826 
L 78.64129 266.301826 
L 79.131882 266.301826 
L 79.622474 266.301826 
L 80.113067 266.301826 
L 80.603659 266.301826 
L 81.094252 266.301826 
L 81.584844 266.301826 
L 82.075437 266.301826 
L 82.566029 266.301826 
L 83.056622 266.301826 
L 83.547214 266.301826 
L 84.037807 266.301826 
L 84.528399 266.301826 
L 85.018992 266.301826 
L 85.509584 266.301826 
L 86.000177 266.301826 
L 86.490769 266.301826 
L 86.981362 266.301826 
L 87.471954 266.301826 
L 87.962547 266.301826 
L 88.453139 266.301826 
L 88.943732 266.301826 
L 89.434324 266.301826 
L 89.924917 266.301826 
L 90.415509 266.301826 
L 90.906102 266.301826 
L 91.396694 266.301826 
L 91.887287 266.301826 
L 92.377879 266.301826 
L 92.868472 266.301826 
L 93.359064 266.301826 
L 93.849657 266.301826 
L 94.340249 266.301826 
L 94.830842 266.301826 
L 95.321434 266.301826 
L 95.812027 266.301826 
L 96.302619 266.301826 
L 96.793212 266.301826 
L 97.283804 266.301826 
L 97.774397 266.301826 
L 98.264989 266.301826 
L 98.755582 266.301826 
L 99.246174 266.301826 
L 99.736767 266.301826 
L 100.227359 266.301826 
L 100.717952 266.301826 
L 101.208544 266.301826 
L 101.699137 266.301826 
L 102.189729 266.301826 
L 102.680322 266.301826 
L 103.170914 266.301826 
L 103.661506 266.301826 
L 104.152099 266.301826 
L 104.642691 266.301826 
L 105.133284 266.301826 
L 105.623876 266.301826 
L 106.114469 266.301826 
L 106.605061 266.301826 
L 107.095654 266.301826 
L 107.586246 266.301826 
L 108.076839 266.301826 
L 108.567431 266.301826 
L 109.058024 266.301826 
L 109.548616 266.301826 
L 110.039209 266.301826 
L 110.529801 266.301826 
L 111.020394 266.301826 
L 111.510986 266.301826 
L 112.001579 266.301826 
L 112.492171 266.301826 
L 112.982764 266.301826 
L 113.473356 266.301826 
L 113.963949 266.301826 
L 114.454541 266.301826 
L 114.945134 266.301826 
L 114.945134 267.256586 
L 114.945134 267.256586 
L 114.454541 266.926097 
L 113.963949 266.181663 
L 113.473356 265.277711 
L 112.982764 264.361577 
L 112.492171 263.50107 
L 112.001579 262.707366 
L 111.510986 261.95375 
L 111.020394 261.190733 
L 110.529801 260.357996 
L 110.039209 259.393579 
L 109.548616 258.240702 
L 109.058024 256.852578 
L 108.567431 255.195523 
L 108.076839 253.250662 
L 107.586246 251.014483 
L 107.095654 248.498467 
L 106.605061 245.728015 
L 106.114469 242.740825 
L 105.623876 239.584907 
L 105.133284 236.316356 
L 104.642691 232.997004 
L 104.152099 229.692054 
L 103.661506 226.467772 
L 103.170914 223.389321 
L 102.680322 220.518771 
L 102.189729 217.913336 
L 101.699137 215.623875 
L 101.208544 213.693657 
L 100.717952 212.157424 
L 100.227359 211.040729 
L 99.736767 210.35957 
L 99.246174 210.12028 
L 98.755582 210.319687 
L 98.264989 210.945495 
L 97.774397 211.97688 
L 97.283804 213.385268 
L 96.793212 215.135266 
L 96.302619 217.185709 
L 95.812027 219.49081 
L 95.321434 222.001359 
L 94.830842 224.665957 
L 94.340249 227.432248 
L 93.849657 230.24813 
L 93.359064 233.062896 
L 92.868472 235.828315 
L 92.377879 238.499601 
L 91.887287 241.03627 
L 91.396694 243.402862 
L 90.906102 266.295088 
L 90.415509 266.295368 
L 89.924917 249.035502 
L 89.434324 250.527385 
L 88.943732 251.769837 
L 88.453139 252.761746 
L 87.962547 253.507447 
L 87.471954 254.016346 
L 86.981362 254.302444 
L 86.490769 254.383769 
L 86.000177 254.28173 
L 85.509584 254.020411 
L 85.018992 253.625827 
L 84.528399 253.125159 
L 84.037807 252.545981 
L 83.547214 251.915522 
L 83.056622 251.259955 
L 82.566029 250.603762 
L 82.075437 249.969167 
L 81.584844 249.375686 
L 81.094252 248.839781 
L 80.603659 248.374651 
L 80.113067 247.990166 
L 79.622474 247.692945 
L 79.131882 247.486593 
L 78.64129 247.372079 
L 78.150697 247.348259 
L 77.660105 247.412524 
L 77.169512 247.561544 
L 76.67892 247.792091 
L 76.188327 248.101886 
L 75.697735 248.490426 
L 75.207142 248.959731 
L 74.71655 249.514931 
L 74.225957 250.164608 
L 73.735365 250.920797 
L 73.244772 251.798522 
L 72.75418 252.814731 
L 72.263587 253.986496 
L 71.772995 255.328284 
L 71.282402 256.848134 
L 70.79181 258.542507 
L 70.301217 260.389596 
L 69.810625 262.340819 
L 69.320032 264.31023 
L 68.82944 266.161532 
L 68.338847 267.692344 
L 67.848255 268.615377 
L 67.357662 268.536104 
L 66.86707 266.926502 
L 66.376477 263.094396 
z
" clip-path="url(#pce39a1c7c6)" style="fill: #9467bd; fill-opacity: 0.166667"/>
   </g>
   <g id="PolyCollection_6">
    <path d="M 66.376477 266.458202 
L 66.376477 266.301826 
L 66.749521 266.301826 
L 67.122564 266.301826 
L 67.495608 266.301826 
L 67.868652 266.301826 
L 68.241695 266.301826 
L 68.614739 266.301826 
L 68.987783 266.301826 
L 69.360826 266.301826 
L 69.73387 266.301826 
L 70.106913 266.301826 
L 70.479957 266.301826 
L 70.853001 266.301826 
L 71.226044 266.301826 
L 71.599088 266.301826 
L 71.972131 266.301826 
L 72.345175 266.301826 
L 72.718219 266.301826 
L 73.091262 266.301826 
L 73.464306 266.301826 
L 73.837349 266.301826 
L 74.210393 266.301826 
L 74.583437 266.301826 
L 74.95648 266.301826 
L 75.329524 266.301826 
L 75.702567 266.301826 
L 76.075611 266.301826 
L 76.448655 266.301826 
L 76.821698 266.301826 
L 77.194742 266.301826 
L 77.567785 266.301826 
L 77.940829 266.301826 
L 78.313873 266.301826 
L 78.686916 266.301826 
L 79.05996 266.301826 
L 79.433004 266.301826 
L 79.806047 266.301826 
L 80.179091 266.301826 
L 80.552134 266.301826 
L 80.925178 266.301826 
L 81.298222 266.301826 
L 81.671265 266.301826 
L 82.044309 266.301826 
L 82.417352 266.301826 
L 82.790396 266.301826 
L 83.16344 266.301826 
L 83.536483 266.301826 
L 83.909527 266.301826 
L 84.28257 266.301826 
L 84.655614 266.301826 
L 85.028658 266.301826 
L 85.401701 266.301826 
L 85.774745 266.301826 
L 86.147788 266.301826 
L 86.520832 266.301826 
L 86.893876 266.301826 
L 87.266919 266.301826 
L 87.639963 266.301826 
L 88.013006 266.301826 
L 88.38605 266.301826 
L 88.759094 266.301826 
L 89.132137 266.301826 
L 89.505181 266.301826 
L 89.878225 266.301826 
L 90.251268 266.301826 
L 90.624312 266.301826 
L 90.997355 266.301826 
L 91.370399 266.301826 
L 91.743443 266.301826 
L 92.116486 266.301826 
L 92.48953 266.301826 
L 92.862573 266.301826 
L 93.235617 266.301826 
L 93.608661 266.301826 
L 93.981704 266.301826 
L 94.354748 266.301826 
L 94.727791 266.301826 
L 95.100835 266.301826 
L 95.473879 266.301826 
L 95.846922 266.301826 
L 96.219966 266.301826 
L 96.593009 266.301826 
L 96.966053 266.301826 
L 97.339097 266.301826 
L 97.71214 266.301826 
L 98.085184 266.301826 
L 98.458227 266.301826 
L 98.831271 266.301826 
L 99.204315 266.301826 
L 99.577358 266.301826 
L 99.950402 266.301826 
L 100.323445 266.301826 
L 100.696489 266.301826 
L 101.069533 266.301826 
L 101.442576 266.301826 
L 101.81562 266.301826 
L 102.188664 266.301826 
L 102.561707 266.301826 
L 102.934751 266.301826 
L 103.307794 266.301826 
L 103.307794 261.215424 
L 103.307794 261.215424 
L 102.934751 266.348546 
L 102.561707 267.995347 
L 102.188664 267.543126 
L 101.81562 266.00932 
L 101.442576 264.110318 
L 101.069533 262.321072 
L 100.696489 260.926383 
L 100.323445 260.064702 
L 99.950402 259.765199 
L 99.577358 259.97883 
L 99.204315 260.604056 
L 98.831271 261.507838 
L 98.458227 262.542465 
L 98.085184 263.558749 
L 97.71214 264.416054 
L 97.339097 264.989606 
L 96.966053 265.175488 
L 96.593009 264.893672 
L 96.219966 264.089427 
L 95.846922 262.733398 
L 95.473879 260.82062 
L 95.100835 258.368698 
L 94.727791 255.415384 
L 94.354748 252.015706 
L 93.981704 248.238832 
L 93.608661 244.164802 
L 93.235617 239.881233 
L 92.862573 235.480125 
L 92.48953 231.054813 
L 92.116486 226.697161 
L 91.743443 222.495033 
L 91.370399 218.53008 
L 90.997355 214.875876 
L 90.624312 211.596404 
L 90.251268 208.744915 
L 89.878225 206.363133 
L 89.505181 204.480819 
L 89.132137 203.115662 
L 88.759094 202.273475 
L 88.38605 201.948674 
L 88.013006 202.125004 
L 87.639963 202.776486 
L 87.266919 203.868537 
L 86.893876 205.359239 
L 86.520832 207.200714 
L 86.147788 209.340563 
L 85.774745 211.72335 
L 85.401701 214.292068 
L 85.028658 266.292692 
L 84.655614 266.292551 
L 84.28257 222.810561 
L 83.909527 225.581427 
L 83.536483 228.26362 
L 83.16344 230.81808 
L 82.790396 233.212628 
L 82.417352 235.422429 
L 82.044309 237.430238 
L 81.671265 239.226433 
L 81.298222 240.80883 
L 80.925178 242.182311 
L 80.552134 243.358247 
L 80.179091 244.353762 
L 79.806047 245.190846 
L 79.433004 245.89534 
L 79.05996 246.495833 
L 78.686916 247.02249 
L 78.313873 247.505854 
L 77.940829 247.97565 
L 77.567785 248.459634 
L 77.194742 248.982518 
L 76.821698 249.56501 
L 76.448655 250.223001 
L 76.075611 250.966934 
L 75.702567 251.801384 
L 75.329524 252.724869 
L 74.95648 253.72992 
L 74.583437 254.803411 
L 74.210393 255.927169 
L 73.837349 257.078845 
L 73.464306 258.233043 
L 73.091262 259.362671 
L 72.718219 260.440492 
L 72.345175 261.440792 
L 71.972131 262.341127 
L 71.599088 263.124041 
L 71.226044 263.77864 
L 70.853001 264.301925 
L 70.479957 264.699686 
L 70.106913 264.986821 
L 69.73387 265.186841 
L 69.360826 265.330352 
L 68.987783 265.452231 
L 68.614739 265.587198 
L 68.241695 265.763464 
L 67.868652 265.994059 
L 67.495608 266.265444 
L 67.122564 266.522945 
L 66.749521 266.652504 
L 66.376477 266.458202 
z
" clip-path="url(#pce39a1c7c6)" style="fill: #8c564b; fill-opacity: 0.166667"/>
   </g>
   <g id="matplotlib.axis_1">
    <g id="xtick_1">
     <g id="line2d_1">
      <defs>
       <path id="mf07f21e092" d="M 0 0 
L 0 3.5 
" style="stroke: #000000; stroke-width: 0.8"/>
      </defs>
      <g>
       <use xlink:href="#mf07f21e092" x="66.376477" y="288.430125" style="stroke: #000000; stroke-width: 0.8"/>
      </g>
     </g>
     <g id="text_1">
      <!-- 0.000 -->
      <g transform="translate(52.062415 303.028562) scale(0.1 -0.1)">
       <defs>
        <path id="DejaVuSans-30" d="M 2034 4250 
Q 1547 4250 1301 3770 
Q 1056 3291 1056 2328 
Q 1056 1369 1301 889 
Q 1547 409 2034 409 
Q 2525 409 2770 889 
Q 3016 1369 3016 2328 
Q 3016 3291 2770 3770 
Q 2525 4250 2034 4250 
z
M 2034 4750 
Q 2819 4750 3233 4129 
Q 3647 3509 3647 2328 
Q 3647 1150 3233 529 
Q 2819 -91 2034 -91 
Q 1250 -91 836 529 
Q 422 1150 422 2328 
Q 422 3509 836 4129 
Q 1250 4750 2034 4750 
z
" transform="scale(0.015625)"/>
        <path id="DejaVuSans-2e" d="M 684 794 
L 1344 794 
L 1344 0 
L 684 0 
L 684 794 
z
" transform="scale(0.015625)"/>
       </defs>
       <use xlink:href="#DejaVuSans-30"/>
       <use xlink:href="#DejaVuSans-2e" x="63.623047"/>
       <use xlink:href="#DejaVuSans-30" x="95.410156"/>
       <use xlink:href="#DejaVuSans-30" x="159.033203"/>
       <use xlink:href="#DejaVuSans-30" x="222.65625"/>
      </g>
     </g>
    </g>
    <g id="xtick_2">
     <g id="line2d_2">
      <g>
       <use xlink:href="#mf07f21e092" x="121.904719" y="288.430125" style="stroke: #000000; stroke-width: 0.8"/>
      </g>
     </g>
     <g id="text_2">
      <!-- 0.002 -->
      <g transform="translate(107.590657 303.028562) scale(0.1 -0.1)">
       <defs>
        <path id="DejaVuSans-32" d="M 1228 531 
L 3431 531 
L 3431 0 
L 469 0 
L 469 531 
Q 828 903 1448 1529 
Q 2069 2156 2228 2338 
Q 2531 2678 2651 2914 
Q 2772 3150 2772 3378 
Q 2772 3750 2511 3984 
Q 2250 4219 1831 4219 
Q 1534 4219 1204 4116 
Q 875 4013 500 3803 
L 500 4441 
Q 881 4594 1212 4672 
Q 1544 4750 1819 4750 
Q 2544 4750 2975 4387 
Q 3406 4025 3406 3419 
Q 3406 3131 3298 2873 
Q 3191 2616 2906 2266 
Q 2828 2175 2409 1742 
Q 1991 1309 1228 531 
z
" transform="scale(0.015625)"/>
       </defs>
       <use xlink:href="#DejaVuSans-30"/>
       <use xlink:href="#DejaVuSans-2e" x="63.623047"/>
       <use xlink:href="#DejaVuSans-30" x="95.410156"/>
       <use xlink:href="#DejaVuSans-30" x="159.033203"/>
       <use xlink:href="#DejaVuSans-32" x="222.65625"/>
      </g>
     </g>
    </g>
    <g id="xtick_3">
     <g id="line2d_3">
      <g>
       <use xlink:href="#mf07f21e092" x="177.432961" y="288.430125" style="stroke: #000000; stroke-width: 0.8"/>
      </g>
     </g>
     <g id="text_3">
      <!-- 0.004 -->
      <g transform="translate(163.118899 303.028562) scale(0.1 -0.1)">
       <defs>
        <path id="DejaVuSans-34" d="M 2419 4116 
L 825 1625 
L 2419 1625 
L 2419 4116 
z
M 2253 4666 
L 3047 4666 
L 3047 1625 
L 3713 1625 
L 3713 1100 
L 3047 1100 
L 3047 0 
L 2419 0 
L 2419 1100 
L 313 1100 
L 313 1709 
L 2253 4666 
z
" transform="scale(0.015625)"/>
       </defs>
       <use xlink:href="#DejaVuSans-30"/>
       <use xlink:href="#DejaVuSans-2e" x="63.623047"/>
       <use xlink:href="#DejaVuSans-30" x="95.410156"/>
       <use xlink:href="#DejaVuSans-30" x="159.033203"/>
       <use xlink:href="#DejaVuSans-34" x="222.65625"/>
      </g>
     </g>
    </g>
    <g id="xtick_4">
     <g id="line2d_4">
      <g>
       <use xlink:href="#mf07f21e092" x="232.961203" y="288.430125" style="stroke: #000000; stroke-width: 0.8"/>
      </g>
     </g>
     <g id="text_4">
      <!-- 0.006 -->
      <g transform="translate(218.647141 303.028562) scale(0.1 -0.1)">
       <defs>
        <path id="DejaVuSans-36" d="M 2113 2584 
Q 1688 2584 1439 2293 
Q 1191 2003 1191 1497 
Q 1191 994 1439 701 
Q 1688 409 2113 409 
Q 2538 409 2786 701 
Q 3034 994 3034 1497 
Q 3034 2003 2786 2293 
Q 2538 2584 2113 2584 
z
M 3366 4563 
L 3366 3988 
Q 3128 4100 2886 4159 
Q 2644 4219 2406 4219 
Q 1781 4219 1451 3797 
Q 1122 3375 1075 2522 
Q 1259 2794 1537 2939 
Q 1816 3084 2150 3084 
Q 2853 3084 3261 2657 
Q 3669 2231 3669 1497 
Q 3669 778 3244 343 
Q 2819 -91 2113 -91 
Q 1303 -91 875 529 
Q 447 1150 447 2328 
Q 447 3434 972 4092 
Q 1497 4750 2381 4750 
Q 2619 4750 2861 4703 
Q 3103 4656 3366 4563 
z
" transform="scale(0.015625)"/>
       </defs>
       <use xlink:href="#DejaVuSans-30"/>
       <use xlink:href="#DejaVuSans-2e" x="63.623047"/>
       <use xlink:href="#DejaVuSans-30" x="95.410156"/>
       <use xlink:href="#DejaVuSans-30" x="159.033203"/>
       <use xlink:href="#DejaVuSans-36" x="222.65625"/>
      </g>
     </g>
    </g>
    <g id="xtick_5">
     <g id="line2d_5">
      <g>
       <use xlink:href="#mf07f21e092" x="288.489445" y="288.430125" style="stroke: #000000; stroke-width: 0.8"/>
      </g>
     </g>
     <g id="text_5">
      <!-- 0.008 -->
      <g transform="translate(274.175383 303.028562) scale(0.1 -0.1)">
       <defs>
        <path id="DejaVuSans-38" d="M 2034 2216 
Q 1584 2216 1326 1975 
Q 1069 1734 1069 1313 
Q 1069 891 1326 650 
Q 1584 409 2034 409 
Q 2484 409 2743 651 
Q 3003 894 3003 1313 
Q 3003 1734 2745 1975 
Q 2488 2216 2034 2216 
z
M 1403 2484 
Q 997 2584 770 2862 
Q 544 3141 544 3541 
Q 544 4100 942 4425 
Q 1341 4750 2034 4750 
Q 2731 4750 3128 4425 
Q 3525 4100 3525 3541 
Q 3525 3141 3298 2862 
Q 3072 2584 2669 2484 
Q 3125 2378 3379 2068 
Q 3634 1759 3634 1313 
Q 3634 634 3220 271 
Q 2806 -91 2034 -91 
Q 1263 -91 848 271 
Q 434 634 434 1313 
Q 434 1759 690 2068 
Q 947 2378 1403 2484 
z
M 1172 3481 
Q 1172 3119 1398 2916 
Q 1625 2713 2034 2713 
Q 2441 2713 2670 2916 
Q 2900 3119 2900 3481 
Q 2900 3844 2670 4047 
Q 2441 4250 2034 4250 
Q 1625 4250 1398 4047 
Q 1172 3844 1172 3481 
z
" transform="scale(0.015625)"/>
       </defs>
       <use xlink:href="#DejaVuSans-30"/>
       <use xlink:href="#DejaVuSans-2e" x="63.623047"/>
       <use xlink:href="#DejaVuSans-30" x="95.410156"/>
       <use xlink:href="#DejaVuSans-30" x="159.033203"/>
       <use xlink:href="#DejaVuSans-38" x="222.65625"/>
      </g>
     </g>
    </g>
    <g id="xtick_6">
     <g id="line2d_6">
      <g>
       <use xlink:href="#mf07f21e092" x="344.017688" y="288.430125" style="stroke: #000000; stroke-width: 0.8"/>
      </g>
     </g>
     <g id="text_6">
      <!-- 0.010 -->
      <g transform="translate(329.703625 303.028562) scale(0.1 -0.1)">
       <defs>
        <path id="DejaVuSans-31" d="M 794 531 
L 1825 531 
L 1825 4091 
L 703 3866 
L 703 4441 
L 1819 4666 
L 2450 4666 
L 2450 531 
L 3481 531 
L 3481 0 
L 794 0 
L 794 531 
z
" transform="scale(0.015625)"/>
       </defs>
       <use xlink:href="#DejaVuSans-30"/>
       <use xlink:href="#DejaVuSans-2e" x="63.623047"/>
       <use xlink:href="#DejaVuSans-30" x="95.410156"/>
       <use xlink:href="#DejaVuSans-31" x="159.033203"/>
       <use xlink:href="#DejaVuSans-30" x="222.65625"/>
      </g>
     </g>
    </g>
    <g id="xtick_7">
     <g id="line2d_7">
      <g>
       <use xlink:href="#mf07f21e092" x="399.54593" y="288.430125" style="stroke: #000000; stroke-width: 0.8"/>
      </g>
     </g>
     <g id="text_7">
      <!-- 0.012 -->
      <g transform="translate(385.231867 303.028562) scale(0.1 -0.1)">
       <use xlink:href="#DejaVuSans-30"/>
       <use xlink:href="#DejaVuSans-2e" x="63.623047"/>
       <use xlink:href="#DejaVuSans-30" x="95.410156"/>
       <use xlink:href="#DejaVuSans-31" x="159.033203"/>
       <use xlink:href="#DejaVuSans-32" x="222.65625"/>
      </g>
     </g>
    </g>
    <g id="text_8">
     <!-- Pixel values -->
     <g transform="translate(199.292031 316.706687) scale(0.1 -0.1)">
      <defs>
       <path id="DejaVuSans-50" d="M 1259 4147 
L 1259 2394 
L 2053 2394 
Q 2494 2394 2734 2622 
Q 2975 2850 2975 3272 
Q 2975 3691 2734 3919 
Q 2494 4147 2053 4147 
L 1259 4147 
z
M 628 4666 
L 2053 4666 
Q 2838 4666 3239 4311 
Q 3641 3956 3641 3272 
Q 3641 2581 3239 2228 
Q 2838 1875 2053 1875 
L 1259 1875 
L 1259 0 
L 628 0 
L 628 4666 
z
" transform="scale(0.015625)"/>
       <path id="DejaVuSans-69" d="M 603 3500 
L 1178 3500 
L 1178 0 
L 603 0 
L 603 3500 
z
M 603 4863 
L 1178 4863 
L 1178 4134 
L 603 4134 
L 603 4863 
z
" transform="scale(0.015625)"/>
       <path id="DejaVuSans-78" d="M 3513 3500 
L 2247 1797 
L 3578 0 
L 2900 0 
L 1881 1375 
L 863 0 
L 184 0 
L 1544 1831 
L 300 3500 
L 978 3500 
L 1906 2253 
L 2834 3500 
L 3513 3500 
z
" transform="scale(0.015625)"/>
       <path id="DejaVuSans-65" d="M 3597 1894 
L 3597 1613 
L 953 1613 
Q 991 1019 1311 708 
Q 1631 397 2203 397 
Q 2534 397 2845 478 
Q 3156 559 3463 722 
L 3463 178 
Q 3153 47 2828 -22 
Q 2503 -91 2169 -91 
Q 1331 -91 842 396 
Q 353 884 353 1716 
Q 353 2575 817 3079 
Q 1281 3584 2069 3584 
Q 2775 3584 3186 3129 
Q 3597 2675 3597 1894 
z
M 3022 2063 
Q 3016 2534 2758 2815 
Q 2500 3097 2075 3097 
Q 1594 3097 1305 2825 
Q 1016 2553 972 2059 
L 3022 2063 
z
" transform="scale(0.015625)"/>
       <path id="DejaVuSans-6c" d="M 603 4863 
L 1178 4863 
L 1178 0 
L 603 0 
L 603 4863 
z
" transform="scale(0.015625)"/>
       <path id="DejaVuSans-20" transform="scale(0.015625)"/>
       <path id="DejaVuSans-76" d="M 191 3500 
L 800 3500 
L 1894 563 
L 2988 3500 
L 3597 3500 
L 2284 0 
L 1503 0 
L 191 3500 
z
" transform="scale(0.015625)"/>
       <path id="DejaVuSans-61" d="M 2194 1759 
Q 1497 1759 1228 1600 
Q 959 1441 959 1056 
Q 959 750 1161 570 
Q 1363 391 1709 391 
Q 2188 391 2477 730 
Q 2766 1069 2766 1631 
L 2766 1759 
L 2194 1759 
z
M 3341 1997 
L 3341 0 
L 2766 0 
L 2766 531 
Q 2569 213 2275 61 
Q 1981 -91 1556 -91 
Q 1019 -91 701 211 
Q 384 513 384 1019 
Q 384 1609 779 1909 
Q 1175 2209 1959 2209 
L 2766 2209 
L 2766 2266 
Q 2766 2663 2505 2880 
Q 2244 3097 1772 3097 
Q 1472 3097 1187 3025 
Q 903 2953 641 2809 
L 641 3341 
Q 956 3463 1253 3523 
Q 1550 3584 1831 3584 
Q 2591 3584 2966 3190 
Q 3341 2797 3341 1997 
z
" transform="scale(0.015625)"/>
       <path id="DejaVuSans-75" d="M 544 1381 
L 544 3500 
L 1119 3500 
L 1119 1403 
Q 1119 906 1312 657 
Q 1506 409 1894 409 
Q 2359 409 2629 706 
Q 2900 1003 2900 1516 
L 2900 3500 
L 3475 3500 
L 3475 0 
L 2900 0 
L 2900 538 
Q 2691 219 2414 64 
Q 2138 -91 1772 -91 
Q 1169 -91 856 284 
Q 544 659 544 1381 
z
M 1991 3584 
L 1991 3584 
z
" transform="scale(0.015625)"/>
       <path id="DejaVuSans-73" d="M 2834 3397 
L 2834 2853 
Q 2591 2978 2328 3040 
Q 2066 3103 1784 3103 
Q 1356 3103 1142 2972 
Q 928 2841 928 2578 
Q 928 2378 1081 2264 
Q 1234 2150 1697 2047 
L 1894 2003 
Q 2506 1872 2764 1633 
Q 3022 1394 3022 966 
Q 3022 478 2636 193 
Q 2250 -91 1575 -91 
Q 1294 -91 989 -36 
Q 684 19 347 128 
L 347 722 
Q 666 556 975 473 
Q 1284 391 1588 391 
Q 1994 391 2212 530 
Q 2431 669 2431 922 
Q 2431 1156 2273 1281 
Q 2116 1406 1581 1522 
L 1381 1569 
Q 847 1681 609 1914 
Q 372 2147 372 2553 
Q 372 3047 722 3315 
Q 1072 3584 1716 3584 
Q 2034 3584 2315 3537 
Q 2597 3491 2834 3397 
z
" transform="scale(0.015625)"/>
      </defs>
      <use xlink:href="#DejaVuSans-50"/>
      <use xlink:href="#DejaVuSans-69" x="58.052734"/>
      <use xlink:href="#DejaVuSans-78" x="85.835938"/>
      <use xlink:href="#DejaVuSans-65" x="141.890625"/>
      <use xlink:href="#DejaVuSans-6c" x="203.414062"/>
      <use xlink:href="#DejaVuSans-20" x="231.197266"/>
      <use xlink:href="#DejaVuSans-76" x="262.984375"/>
      <use xlink:href="#DejaVuSans-61" x="322.164062"/>
      <use xlink:href="#DejaVuSans-6c" x="383.443359"/>
      <use xlink:href="#DejaVuSans-75" x="411.226562"/>
      <use xlink:href="#DejaVuSans-65" x="474.605469"/>
      <use xlink:href="#DejaVuSans-73" x="536.128906"/>
     </g>
    </g>
   </g>
   <g id="matplotlib.axis_2">
    <g id="ytick_1">
     <g id="line2d_8">
      <defs>
       <path id="md05c389f76" d="M 0 0 
L -3.5 0 
" style="stroke: #000000; stroke-width: 0.8"/>
      </defs>
      <g>
       <use xlink:href="#md05c389f76" x="50.14375" y="266.301826" style="stroke: #000000; stroke-width: 0.8"/>
      </g>
     </g>
     <g id="text_9">
      <!-- 0.00 -->
      <g transform="translate(20.878125 270.101044) scale(0.1 -0.1)">
       <use xlink:href="#DejaVuSans-30"/>
       <use xlink:href="#DejaVuSans-2e" x="63.623047"/>
       <use xlink:href="#DejaVuSans-30" x="95.410156"/>
       <use xlink:href="#DejaVuSans-30" x="159.033203"/>
      </g>
     </g>
    </g>
    <g id="ytick_2">
     <g id="line2d_9">
      <g>
       <use xlink:href="#md05c389f76" x="50.14375" y="224.297109" style="stroke: #000000; stroke-width: 0.8"/>
      </g>
     </g>
     <g id="text_10">
      <!-- 0.02 -->
      <g transform="translate(20.878125 228.096328) scale(0.1 -0.1)">
       <use xlink:href="#DejaVuSans-30"/>
       <use xlink:href="#DejaVuSans-2e" x="63.623047"/>
       <use xlink:href="#DejaVuSans-30" x="95.410156"/>
       <use xlink:href="#DejaVuSans-32" x="159.033203"/>
      </g>
     </g>
    </g>
    <g id="ytick_3">
     <g id="line2d_10">
      <g>
       <use xlink:href="#md05c389f76" x="50.14375" y="182.292393" style="stroke: #000000; stroke-width: 0.8"/>
      </g>
     </g>
     <g id="text_11">
      <!-- 0.04 -->
      <g transform="translate(20.878125 186.091612) scale(0.1 -0.1)">
       <use xlink:href="#DejaVuSans-30"/>
       <use xlink:href="#DejaVuSans-2e" x="63.623047"/>
       <use xlink:href="#DejaVuSans-30" x="95.410156"/>
       <use xlink:href="#DejaVuSans-34" x="159.033203"/>
      </g>
     </g>
    </g>
    <g id="ytick_4">
     <g id="line2d_11">
      <g>
       <use xlink:href="#md05c389f76" x="50.14375" y="140.287677" style="stroke: #000000; stroke-width: 0.8"/>
      </g>
     </g>
     <g id="text_12">
      <!-- 0.06 -->
      <g transform="translate(20.878125 144.086895) scale(0.1 -0.1)">
       <use xlink:href="#DejaVuSans-30"/>
       <use xlink:href="#DejaVuSans-2e" x="63.623047"/>
       <use xlink:href="#DejaVuSans-30" x="95.410156"/>
       <use xlink:href="#DejaVuSans-36" x="159.033203"/>
      </g>
     </g>
    </g>
    <g id="ytick_5">
     <g id="line2d_12">
      <g>
       <use xlink:href="#md05c389f76" x="50.14375" y="98.28296" style="stroke: #000000; stroke-width: 0.8"/>
      </g>
     </g>
     <g id="text_13">
      <!-- 0.08 -->
      <g transform="translate(20.878125 102.082179) scale(0.1 -0.1)">
       <use xlink:href="#DejaVuSans-30"/>
       <use xlink:href="#DejaVuSans-2e" x="63.623047"/>
       <use xlink:href="#DejaVuSans-30" x="95.410156"/>
       <use xlink:href="#DejaVuSans-38" x="159.033203"/>
      </g>
     </g>
    </g>
    <g id="ytick_6">
     <g id="line2d_13">
      <g>
       <use xlink:href="#md05c389f76" x="50.14375" y="56.278244" style="stroke: #000000; stroke-width: 0.8"/>
      </g>
     </g>
     <g id="text_14">
      <!-- 0.10 -->
      <g transform="translate(20.878125 60.077463) scale(0.1 -0.1)">
       <use xlink:href="#DejaVuSans-30"/>
       <use xlink:href="#DejaVuSans-2e" x="63.623047"/>
       <use xlink:href="#DejaVuSans-31" x="95.410156"/>
       <use xlink:href="#DejaVuSans-30" x="159.033203"/>
      </g>
     </g>
    </g>
    <g id="text_15">
     <!-- Frequency -->
     <g transform="translate(14.798438 181.203812) rotate(-90) scale(0.1 -0.1)">
      <defs>
       <path id="DejaVuSans-46" d="M 628 4666 
L 3309 4666 
L 3309 4134 
L 1259 4134 
L 1259 2759 
L 3109 2759 
L 3109 2228 
L 1259 2228 
L 1259 0 
L 628 0 
L 628 4666 
z
" transform="scale(0.015625)"/>
       <path id="DejaVuSans-72" d="M 2631 2963 
Q 2534 3019 2420 3045 
Q 2306 3072 2169 3072 
Q 1681 3072 1420 2755 
Q 1159 2438 1159 1844 
L 1159 0 
L 581 0 
L 581 3500 
L 1159 3500 
L 1159 2956 
Q 1341 3275 1631 3429 
Q 1922 3584 2338 3584 
Q 2397 3584 2469 3576 
Q 2541 3569 2628 3553 
L 2631 2963 
z
" transform="scale(0.015625)"/>
       <path id="DejaVuSans-71" d="M 947 1747 
Q 947 1113 1208 752 
Q 1469 391 1925 391 
Q 2381 391 2643 752 
Q 2906 1113 2906 1747 
Q 2906 2381 2643 2742 
Q 2381 3103 1925 3103 
Q 1469 3103 1208 2742 
Q 947 2381 947 1747 
z
M 2906 525 
Q 2725 213 2448 61 
Q 2172 -91 1784 -91 
Q 1150 -91 751 415 
Q 353 922 353 1747 
Q 353 2572 751 3078 
Q 1150 3584 1784 3584 
Q 2172 3584 2448 3432 
Q 2725 3281 2906 2969 
L 2906 3500 
L 3481 3500 
L 3481 -1331 
L 2906 -1331 
L 2906 525 
z
" transform="scale(0.015625)"/>
       <path id="DejaVuSans-6e" d="M 3513 2113 
L 3513 0 
L 2938 0 
L 2938 2094 
Q 2938 2591 2744 2837 
Q 2550 3084 2163 3084 
Q 1697 3084 1428 2787 
Q 1159 2491 1159 1978 
L 1159 0 
L 581 0 
L 581 3500 
L 1159 3500 
L 1159 2956 
Q 1366 3272 1645 3428 
Q 1925 3584 2291 3584 
Q 2894 3584 3203 3211 
Q 3513 2838 3513 2113 
z
" transform="scale(0.015625)"/>
       <path id="DejaVuSans-63" d="M 3122 3366 
L 3122 2828 
Q 2878 2963 2633 3030 
Q 2388 3097 2138 3097 
Q 1578 3097 1268 2742 
Q 959 2388 959 1747 
Q 959 1106 1268 751 
Q 1578 397 2138 397 
Q 2388 397 2633 464 
Q 2878 531 3122 666 
L 3122 134 
Q 2881 22 2623 -34 
Q 2366 -91 2075 -91 
Q 1284 -91 818 406 
Q 353 903 353 1747 
Q 353 2603 823 3093 
Q 1294 3584 2113 3584 
Q 2378 3584 2631 3529 
Q 2884 3475 3122 3366 
z
" transform="scale(0.015625)"/>
       <path id="DejaVuSans-79" d="M 2059 -325 
Q 1816 -950 1584 -1140 
Q 1353 -1331 966 -1331 
L 506 -1331 
L 506 -850 
L 844 -850 
Q 1081 -850 1212 -737 
Q 1344 -625 1503 -206 
L 1606 56 
L 191 3500 
L 800 3500 
L 1894 763 
L 2988 3500 
L 3597 3500 
L 2059 -325 
z
" transform="scale(0.015625)"/>
      </defs>
      <use xlink:href="#DejaVuSans-46"/>
      <use xlink:href="#DejaVuSans-72" x="50.269531"/>
      <use xlink:href="#DejaVuSans-65" x="89.132812"/>
      <use xlink:href="#DejaVuSans-71" x="150.65625"/>
      <use xlink:href="#DejaVuSans-75" x="214.132812"/>
      <use xlink:href="#DejaVuSans-65" x="277.511719"/>
      <use xlink:href="#DejaVuSans-6e" x="339.035156"/>
      <use xlink:href="#DejaVuSans-63" x="402.414062"/>
      <use xlink:href="#DejaVuSans-79" x="457.394531"/>
     </g>
    </g>
   </g>
   <g id="line2d_14">
    <path d="M 66.376477 263.970961 
L 66.986771 266.909109 
L 67.597064 268.255403 
L 68.207357 268.465217 
L 68.81765 267.900808 
L 69.427944 266.843554 
L 70.038237 265.505338 
L 70.64853 264.03907 
L 71.258823 262.54837 
L 71.869117 261.096389 
L 72.47941 259.713806 
L 73.089703 258.406004 
L 73.699996 257.159462 
L 74.31029 255.947374 
L 74.920583 254.734541 
L 75.530876 253.481563 
L 76.141169 252.148369 
L 76.751463 250.697123 
L 77.361756 249.094553 
L 77.972049 247.313739 
L 78.582342 245.335405 
L 79.192636 243.148763 
L 79.802929 240.75195 
L 80.413222 238.152102 
L 81.023515 235.365114 
L 81.633809 232.415127 
L 82.244102 229.333776 
L 82.854395 226.159259 
L 83.464688 222.935251 
L 84.074982 219.709707 
L 84.685275 216.533589 
L 85.295568 213.459558 
L 85.905861 210.54065 
L 86.516155 207.828981 
L 87.126448 205.374494 
L 87.736741 203.223784 
L 88.347034 201.419016 
L 88.957328 199.996959 
L 89.567621 198.988145 
L 90.177914 198.416183 
L 90.788207 198.297215 
L 91.398501 198.639541 
L 92.008794 199.443406 
L 92.619087 200.700961 
L 93.22938 202.396387 
L 93.839674 204.506179 
L 94.449967 206.999592 
L 95.06026 209.839235 
L 95.670553 212.981797 
L 96.280847 266.294042 
L 96.89114 266.294022 
L 97.501433 223.984585 
L 98.111726 227.78311 
L 98.72202 231.600069 
L 99.332313 235.379964 
L 99.942606 239.069438 
L 100.552899 242.61833 
L 101.163193 245.980662 
L 101.773486 249.11555 
L 102.383779 251.988008 
L 102.994072 254.569634 
L 103.604366 256.839161 
L 104.214659 258.782864 
L 104.824952 260.394798 
L 105.435246 261.676871 
L 106.045539 262.63874 
L 106.655832 263.297516 
L 107.266125 263.677298 
L 107.876419 263.808512 
L 108.486712 263.727076 
L 109.097005 263.473398 
L 109.707298 263.091221 
L 110.317592 262.626318 
L 110.927885 262.125079 
L 111.538178 261.63301 
L 112.148471 261.193164 
L 112.758765 260.844555 
L 113.369058 260.620598 
L 113.979351 260.547611 
L 114.589644 260.643449 
L 115.199938 260.916319 
L 115.810231 261.363855 
L 116.420524 261.972523 
L 117.030817 262.717435 
L 117.641111 263.562672 
L 118.251404 264.462211 
L 118.861697 265.361551 
L 119.47199 266.200178 
L 120.082284 266.914965 
L 120.692577 267.444665 
L 121.30287 267.735621 
L 121.913163 267.748855 
L 122.523457 267.468702 
L 123.13375 266.913145 
L 123.744043 266.146058 
L 124.354336 265.291533 
L 124.96463 264.550503 
L 125.574923 264.219878 
L 126.185216 264.714432 
L 126.795509 266.591661 
" clip-path="url(#pce39a1c7c6)" style="fill: none; stroke: #1f77b4; stroke-width: 1.5; stroke-linecap: square"/>
   </g>
   <g id="line2d_15">
    <path d="M 66.376477 266.235033 
L 66.780955 266.113822 
L 67.185433 266.221522 
L 67.58991 266.352646 
L 67.994388 266.383774 
L 68.398866 266.252896 
L 68.803343 265.942264 
L 69.207821 265.464324 
L 69.612299 264.850379 
L 70.016776 264.141615 
L 70.421254 263.382184 
L 70.825732 262.614062 
L 71.230209 261.873397 
L 71.634687 261.188138 
L 72.039165 260.576701 
L 72.443642 260.047503 
L 72.84812 259.599166 
L 73.252598 259.221266 
L 73.657076 258.89546 
L 74.061553 258.596904 
L 74.466031 258.295828 
L 74.870509 257.959206 
L 75.274986 257.552432 
L 75.679464 257.040938 
L 76.083942 256.391711 
L 76.488419 255.574671 
L 76.892897 254.563867 
L 77.297375 253.338477 
L 77.701852 251.8836 
L 78.10633 250.190833 
L 78.510808 248.258619 
L 78.915285 246.092393 
L 79.319763 243.704517 
L 79.724241 241.114024 
L 80.128718 238.346186 
L 80.533196 235.431933 
L 80.937674 232.407127 
L 81.342151 229.311739 
L 81.746629 226.188924 
L 82.151107 223.084043 
L 82.555584 220.043647 
L 82.960062 217.114441 
L 83.36454 214.342263 
L 83.769017 211.771095 
L 84.173495 209.442121 
L 84.577973 207.392863 
L 84.982451 205.656407 
L 85.386928 204.260727 
L 85.791406 203.228132 
L 86.195884 266.293384 
L 86.600361 266.293333 
L 87.004839 202.502982 
L 87.409317 202.996779 
L 87.813794 203.867426 
L 88.218272 205.100285 
L 88.62275 206.675044 
L 89.027227 208.566186 
L 89.431705 210.743549 
L 89.836183 213.17299 
L 90.24066 215.817124 
L 90.645138 218.636131 
L 91.049616 221.58861 
L 91.454093 224.632461 
L 91.858571 227.72578 
L 92.263049 230.827739 
L 92.667526 233.89944 
L 93.072004 236.904712 
L 93.476482 239.810838 
L 93.880959 242.589187 
L 94.285437 245.215742 
L 94.689915 247.671488 
L 95.094393 249.942666 
L 95.49887 252.02087 
L 95.903348 253.902976 
L 96.307826 255.590904 
L 96.712303 257.091206 
L 97.116781 258.414495 
L 97.521259 259.574707 
L 97.925736 260.588233 
L 98.330214 261.472924 
L 98.734692 262.247021 
L 99.139169 262.928035 
L 99.543647 263.531629 
L 99.948125 264.070569 
L 100.352602 264.553814 
L 100.75708 264.985818 
L 101.161558 265.36615 
L 101.566035 265.689553 
L 101.970513 265.946535 
L 102.374991 266.124674 
L 102.779468 266.210766 
L 103.183946 266.194004 
L 103.588424 266.070391 
L 103.992901 265.84859 
L 104.397379 265.557456 
L 104.801857 265.25552 
L 105.206334 265.042694 
L 105.610812 265.074518 
L 106.01529 265.579285 
L 106.419768 266.878404 
" clip-path="url(#pce39a1c7c6)" style="fill: none; stroke: #ff7f0e; stroke-width: 1.5; stroke-linecap: square"/>
   </g>
   <g id="line2d_16">
    <path d="M 66.376477 266.083112 
L 66.804248 266.355902 
L 67.232019 266.58872 
L 67.65979 266.665477 
L 68.087561 266.531816 
L 68.515331 266.177999 
L 68.943102 265.624814 
L 69.370873 264.912133 
L 69.798644 264.089794 
L 70.226415 263.210517 
L 70.654186 262.324569 
L 71.081956 261.475929 
L 71.509727 260.699731 
L 71.937498 260.020759 
L 72.365269 259.452837 
L 72.79304 258.998912 
L 73.22081 258.651701 
L 73.648581 258.394769 
L 74.076352 258.2039 
L 74.504123 258.048687 
L 74.931894 257.894226 
L 75.359665 257.702855 
L 75.787435 257.435864 
L 76.215206 257.055124 
L 76.642977 256.5246 
L 77.070748 255.811701 
L 77.498519 254.888446 
L 77.926289 253.732441 
L 78.35406 252.327629 
L 78.781831 250.664837 
L 79.209602 248.7421 
L 79.637373 246.564779 
L 80.065144 244.145475 
L 80.492914 241.503759 
L 80.920685 238.665729 
L 81.348456 235.663415 
L 81.776227 232.534054 
L 82.203998 229.31925 
L 82.631769 226.06405 
L 83.059539 222.815958 
L 83.48731 219.623905 
L 83.915081 216.537201 
L 84.342852 213.604494 
L 84.770623 210.872757 
L 85.198393 208.386316 
L 85.626164 206.185951 
L 86.053935 204.308074 
L 86.481706 202.784003 
L 86.909477 201.639358 
L 87.337248 266.293301 
L 87.765018 266.293285 
L 88.192789 200.680718 
L 88.62056 201.172868 
L 89.048331 202.072765 
L 89.476102 203.366667 
L 89.903873 205.034594 
L 90.331643 207.050757 
L 90.759414 209.384092 
L 91.187185 211.998909 
L 91.614956 214.855624 
L 92.042727 217.911571 
L 92.470497 221.121877 
L 92.898268 224.440375 
L 93.326039 227.820547 
L 93.75381 231.216471 
L 94.181581 234.583745 
L 94.609352 237.880389 
L 95.037122 241.067674 
L 95.464893 244.110885 
L 95.892664 246.979982 
L 96.320435 249.650146 
L 96.748206 252.102191 
L 97.175977 254.322833 
L 97.603747 256.304793 
L 98.031518 258.046736 
L 98.459289 259.553038 
L 98.88706 260.833369 
L 99.314831 261.902113 
L 99.742601 262.777623 
L 100.170372 263.481331 
L 100.598143 264.036725 
L 101.025914 264.468244 
L 101.453685 264.800107 
L 101.881456 265.055137 
L 102.309226 265.253625 
L 102.736997 265.412323 
L 103.164768 265.543614 
L 103.592539 265.654985 
L 104.02031 265.748872 
L 104.448081 265.823035 
L 104.875851 265.871558 
L 105.303622 265.886657 
L 105.731393 265.861441 
L 106.159164 265.793827 
L 106.586935 265.6918 
L 107.014705 265.580259 
L 107.442476 265.509679 
L 107.870247 265.566871 
L 108.298018 265.888129 
L 108.725789 266.675078 
" clip-path="url(#pce39a1c7c6)" style="fill: none; stroke: #2ca02c; stroke-width: 1.5; stroke-linecap: square"/>
   </g>
   <g id="line2d_17">
    <path d="M 66.376477 225.324672 
L 69.655816 130.940182 
L 72.935155 73.320494 
L 76.214494 43.574988 
L 79.493833 34.414125 
L 82.773171 39.92559 
L 86.05251 55.374759 
L 89.331849 77.027498 
L 92.611188 101.9934 
L 95.890527 128.087675 
L 99.169866 153.710046 
L 102.449205 177.739085 
L 105.728543 199.440527 
L 109.007882 218.388211 
L 112.287221 234.396387 
L 115.56656 247.462186 
L 118.845899 257.717203 
L 122.125238 265.387137 
L 125.404576 270.758592 
L 128.683915 274.152155 
L 131.963254 275.900977 
L 135.242593 276.334125 
L 138.521932 275.764045 
L 141.801271 274.477545 
L 145.08061 272.729742 
L 148.359948 270.740496 
L 151.639287 268.69287 
L 154.918626 266.733251 
L 158.197965 264.972754 
L 161.477304 263.489621 
L 164.756643 262.332333 
L 168.035981 261.52321 
L 171.31532 261.062286 
L 174.594659 260.931309 
L 177.873998 261.097693 
L 181.153337 261.518342 
L 184.432676 262.143219 
L 187.712014 262.918609 
L 190.991353 263.790024 
L 194.270692 264.7047 
L 197.550031 265.613677 
L 200.82937 266.47346 
L 204.108709 267.24725 
L 207.388048 267.905782 
L 210.667386 268.427767 
L 213.946725 268.8 
L 217.226064 269.01714 
L 220.505403 269.081223 
L 223.784742 269.000946 
L 227.064081 266.301066 
L 230.343419 266.302305 
L 233.622758 264.989512 
L 236.902097 264.267128 
L 240.181436 263.672497 
L 243.460775 263.233629 
L 246.740114 262.969935 
L 250.019452 262.891531 
L 253.298791 262.99895 
L 256.57813 263.283274 
L 259.857469 263.726672 
L 263.136808 264.303318 
L 266.416147 264.98066 
L 269.695486 265.720999 
L 272.974824 266.483299 
L 276.254163 267.225197 
L 279.533502 267.905094 
L 282.812841 268.48429 
L 286.09218 268.929038 
L 289.371519 269.212458 
L 292.650857 269.316194 
L 295.930196 269.231758 
L 299.209535 268.961442 
L 302.488874 268.518756 
L 305.768213 267.928306 
L 309.047552 267.225073 
L 312.32689 266.453061 
L 315.606229 265.663298 
L 318.885568 264.911217 
L 322.164907 264.253456 
L 325.444246 263.744162 
L 328.723585 263.430928 
L 332.002924 263.350515 
L 335.282262 263.524592 
L 338.561601 263.955757 
L 341.84094 264.62418 
L 345.120279 265.485262 
L 348.399618 266.46879 
L 351.678957 267.480141 
L 354.958295 268.40418 
L 358.237634 269.112578 
L 361.516973 269.475393 
L 364.796312 269.377847 
L 368.075651 268.74337 
L 371.35499 267.564077 
L 374.634329 265.939997 
L 377.913667 264.128503 
L 381.193006 262.605536 
L 384.472345 262.140389 
L 387.751684 263.885952 
L 391.031023 269.486524 
" clip-path="url(#pce39a1c7c6)" style="fill: none; stroke: #d62728; stroke-width: 1.5; stroke-linecap: square"/>
   </g>
   <g id="line2d_18">
    <path d="M 66.376477 263.094396 
L 66.86707 266.926502 
L 67.357662 268.536104 
L 67.848255 268.615377 
L 68.338847 267.692344 
L 68.82944 266.161532 
L 69.320032 264.31023 
L 69.810625 262.340819 
L 70.301217 260.389596 
L 70.79181 258.542507 
L 71.282402 256.848134 
L 71.772995 255.328284 
L 72.263587 253.986496 
L 72.75418 252.814731 
L 73.244772 251.798522 
L 73.735365 250.920797 
L 74.225957 250.164608 
L 74.71655 249.514931 
L 75.207142 248.959731 
L 75.697735 248.490426 
L 76.188327 248.101886 
L 76.67892 247.792091 
L 77.169512 247.561544 
L 77.660105 247.412524 
L 78.150697 247.348259 
L 78.64129 247.372079 
L 79.131882 247.486593 
L 79.622474 247.692945 
L 80.113067 247.990166 
L 80.603659 248.374651 
L 81.094252 248.839781 
L 81.584844 249.375686 
L 82.075437 249.969167 
L 82.566029 250.603762 
L 83.056622 251.259955 
L 83.547214 251.915522 
L 84.037807 252.545981 
L 84.528399 253.125159 
L 85.018992 253.625827 
L 85.509584 254.020411 
L 86.000177 254.28173 
L 86.490769 254.383769 
L 86.981362 254.302444 
L 87.471954 254.016346 
L 87.962547 253.507447 
L 88.453139 252.761746 
L 88.943732 251.769837 
L 89.434324 250.527385 
L 89.924917 249.035502 
L 90.415509 266.295368 
L 90.906102 266.295088 
L 91.396694 243.402862 
L 91.887287 241.03627 
L 92.377879 238.499601 
L 92.868472 235.828315 
L 93.359064 233.062896 
L 93.849657 230.24813 
L 94.340249 227.432248 
L 94.830842 224.665957 
L 95.321434 222.001359 
L 95.812027 219.49081 
L 96.302619 217.185709 
L 96.793212 215.135266 
L 97.283804 213.385268 
L 97.774397 211.97688 
L 98.264989 210.945495 
L 98.755582 210.319687 
L 99.246174 210.12028 
L 99.736767 210.35957 
L 100.227359 211.040729 
L 100.717952 212.157424 
L 101.208544 213.693657 
L 101.699137 215.623875 
L 102.189729 217.913336 
L 102.680322 220.518771 
L 103.170914 223.389321 
L 103.661506 226.467772 
L 104.152099 229.692054 
L 104.642691 232.997004 
L 105.133284 236.316356 
L 105.623876 239.584907 
L 106.114469 242.740825 
L 106.605061 245.728015 
L 107.095654 248.498467 
L 107.586246 251.014483 
L 108.076839 253.250662 
L 108.567431 255.195523 
L 109.058024 256.852578 
L 109.548616 258.240702 
L 110.039209 259.393579 
L 110.529801 260.357996 
L 111.020394 261.190733 
L 111.510986 261.95375 
L 112.001579 262.707366 
L 112.492171 263.50107 
L 112.982764 264.361577 
L 113.473356 265.277711 
L 113.963949 266.181663 
L 114.454541 266.926097 
L 114.945134 267.256586 
" clip-path="url(#pce39a1c7c6)" style="fill: none; stroke: #9467bd; stroke-width: 1.5; stroke-linecap: square"/>
   </g>
   <g id="line2d_19">
    <path d="M 66.376477 266.458202 
L 66.749521 266.652504 
L 67.122564 266.522945 
L 67.495608 266.265444 
L 67.868652 265.994059 
L 68.241695 265.763464 
L 68.614739 265.587198 
L 68.987783 265.452231 
L 69.360826 265.330352 
L 69.73387 265.186841 
L 70.106913 264.986821 
L 70.479957 264.699686 
L 70.853001 264.301925 
L 71.226044 263.77864 
L 71.599088 263.124041 
L 71.972131 262.341127 
L 72.345175 261.440792 
L 72.718219 260.440492 
L 73.091262 259.362671 
L 73.464306 258.233043 
L 73.837349 257.078845 
L 74.210393 255.927169 
L 74.583437 254.803411 
L 74.95648 253.72992 
L 75.329524 252.724869 
L 75.702567 251.801384 
L 76.075611 250.966934 
L 76.448655 250.223001 
L 76.821698 249.56501 
L 77.194742 248.982518 
L 77.567785 248.459634 
L 77.940829 247.97565 
L 78.313873 247.505854 
L 78.686916 247.02249 
L 79.05996 246.495833 
L 79.433004 245.89534 
L 79.806047 245.190846 
L 80.179091 244.353762 
L 80.552134 243.358247 
L 80.925178 242.182311 
L 81.298222 240.80883 
L 81.671265 239.226433 
L 82.044309 237.430238 
L 82.417352 235.422429 
L 82.790396 233.212628 
L 83.16344 230.81808 
L 83.536483 228.26362 
L 83.909527 225.581427 
L 84.28257 222.810561 
L 84.655614 266.292551 
L 85.028658 266.292692 
L 85.401701 214.292068 
L 85.774745 211.72335 
L 86.147788 209.340563 
L 86.520832 207.200714 
L 86.893876 205.359239 
L 87.266919 203.868537 
L 87.639963 202.776486 
L 88.013006 202.125004 
L 88.38605 201.948674 
L 88.759094 202.273475 
L 89.132137 203.115662 
L 89.505181 204.480819 
L 89.878225 206.363133 
L 90.251268 208.744915 
L 90.624312 211.596404 
L 90.997355 214.875876 
L 91.370399 218.53008 
L 91.743443 222.495033 
L 92.116486 226.697161 
L 92.48953 231.054813 
L 92.862573 235.480125 
L 93.235617 239.881233 
L 93.608661 244.164802 
L 93.981704 248.238832 
L 94.354748 252.015706 
L 94.727791 255.415384 
L 95.100835 258.368698 
L 95.473879 260.82062 
L 95.846922 262.733398 
L 96.219966 264.089427 
L 96.593009 264.893672 
L 96.966053 265.175488 
L 97.339097 264.989606 
L 97.71214 264.416054 
L 98.085184 263.558749 
L 98.458227 262.542465 
L 98.831271 261.507838 
L 99.204315 260.604056 
L 99.577358 259.97883 
L 99.950402 259.765199 
L 100.323445 260.064702 
L 100.696489 260.926383 
L 101.069533 262.321072 
L 101.442576 264.110318 
L 101.81562 266.00932 
L 102.188664 267.543126 
L 102.561707 267.995347 
L 102.934751 266.348546 
L 103.307794 261.215424 
" clip-path="url(#pce39a1c7c6)" style="fill: none; stroke: #8c564b; stroke-width: 1.5; stroke-linecap: square"/>
   </g>
   <g id="patch_3">
    <path d="M 50.14375 288.430125 
L 50.14375 22.318125 
" style="fill: none; stroke: #000000; stroke-width: 0.8; stroke-linejoin: miter; stroke-linecap: square"/>
   </g>
   <g id="patch_4">
    <path d="M 407.26375 288.430125 
L 407.26375 22.318125 
" style="fill: none; stroke: #000000; stroke-width: 0.8; stroke-linejoin: miter; stroke-linecap: square"/>
   </g>
   <g id="patch_5">
    <path d="M 50.14375 288.430125 
L 407.26375 288.430125 
" style="fill: none; stroke: #000000; stroke-width: 0.8; stroke-linejoin: miter; stroke-linecap: square"/>
   </g>
   <g id="patch_6">
    <path d="M 50.14375 22.318125 
L 407.26375 22.318125 
" style="fill: none; stroke: #000000; stroke-width: 0.8; stroke-linejoin: miter; stroke-linecap: square"/>
   </g>
   <g id="text_16">
    <!-- AD - Cortico_Ponto_Cerebellum_Right -->
    <g transform="translate(116.600313 16.318125) scale(0.12 -0.12)">
     <defs>
      <path id="DejaVuSans-41" d="M 2188 4044 
L 1331 1722 
L 3047 1722 
L 2188 4044 
z
M 1831 4666 
L 2547 4666 
L 4325 0 
L 3669 0 
L 3244 1197 
L 1141 1197 
L 716 0 
L 50 0 
L 1831 4666 
z
" transform="scale(0.015625)"/>
      <path id="DejaVuSans-44" d="M 1259 4147 
L 1259 519 
L 2022 519 
Q 2988 519 3436 956 
Q 3884 1394 3884 2338 
Q 3884 3275 3436 3711 
Q 2988 4147 2022 4147 
L 1259 4147 
z
M 628 4666 
L 1925 4666 
Q 3281 4666 3915 4102 
Q 4550 3538 4550 2338 
Q 4550 1131 3912 565 
Q 3275 0 1925 0 
L 628 0 
L 628 4666 
z
" transform="scale(0.015625)"/>
      <path id="DejaVuSans-2d" d="M 313 2009 
L 1997 2009 
L 1997 1497 
L 313 1497 
L 313 2009 
z
" transform="scale(0.015625)"/>
      <path id="DejaVuSans-43" d="M 4122 4306 
L 4122 3641 
Q 3803 3938 3442 4084 
Q 3081 4231 2675 4231 
Q 1875 4231 1450 3742 
Q 1025 3253 1025 2328 
Q 1025 1406 1450 917 
Q 1875 428 2675 428 
Q 3081 428 3442 575 
Q 3803 722 4122 1019 
L 4122 359 
Q 3791 134 3420 21 
Q 3050 -91 2638 -91 
Q 1578 -91 968 557 
Q 359 1206 359 2328 
Q 359 3453 968 4101 
Q 1578 4750 2638 4750 
Q 3056 4750 3426 4639 
Q 3797 4528 4122 4306 
z
" transform="scale(0.015625)"/>
      <path id="DejaVuSans-6f" d="M 1959 3097 
Q 1497 3097 1228 2736 
Q 959 2375 959 1747 
Q 959 1119 1226 758 
Q 1494 397 1959 397 
Q 2419 397 2687 759 
Q 2956 1122 2956 1747 
Q 2956 2369 2687 2733 
Q 2419 3097 1959 3097 
z
M 1959 3584 
Q 2709 3584 3137 3096 
Q 3566 2609 3566 1747 
Q 3566 888 3137 398 
Q 2709 -91 1959 -91 
Q 1206 -91 779 398 
Q 353 888 353 1747 
Q 353 2609 779 3096 
Q 1206 3584 1959 3584 
z
" transform="scale(0.015625)"/>
      <path id="DejaVuSans-74" d="M 1172 4494 
L 1172 3500 
L 2356 3500 
L 2356 3053 
L 1172 3053 
L 1172 1153 
Q 1172 725 1289 603 
Q 1406 481 1766 481 
L 2356 481 
L 2356 0 
L 1766 0 
Q 1100 0 847 248 
Q 594 497 594 1153 
L 594 3053 
L 172 3053 
L 172 3500 
L 594 3500 
L 594 4494 
L 1172 4494 
z
" transform="scale(0.015625)"/>
      <path id="DejaVuSans-5f" d="M 3263 -1063 
L 3263 -1509 
L -63 -1509 
L -63 -1063 
L 3263 -1063 
z
" transform="scale(0.015625)"/>
      <path id="DejaVuSans-62" d="M 3116 1747 
Q 3116 2381 2855 2742 
Q 2594 3103 2138 3103 
Q 1681 3103 1420 2742 
Q 1159 2381 1159 1747 
Q 1159 1113 1420 752 
Q 1681 391 2138 391 
Q 2594 391 2855 752 
Q 3116 1113 3116 1747 
z
M 1159 2969 
Q 1341 3281 1617 3432 
Q 1894 3584 2278 3584 
Q 2916 3584 3314 3078 
Q 3713 2572 3713 1747 
Q 3713 922 3314 415 
Q 2916 -91 2278 -91 
Q 1894 -91 1617 61 
Q 1341 213 1159 525 
L 1159 0 
L 581 0 
L 581 4863 
L 1159 4863 
L 1159 2969 
z
" transform="scale(0.015625)"/>
      <path id="DejaVuSans-6d" d="M 3328 2828 
Q 3544 3216 3844 3400 
Q 4144 3584 4550 3584 
Q 5097 3584 5394 3201 
Q 5691 2819 5691 2113 
L 5691 0 
L 5113 0 
L 5113 2094 
Q 5113 2597 4934 2840 
Q 4756 3084 4391 3084 
Q 3944 3084 3684 2787 
Q 3425 2491 3425 1978 
L 3425 0 
L 2847 0 
L 2847 2094 
Q 2847 2600 2669 2842 
Q 2491 3084 2119 3084 
Q 1678 3084 1418 2786 
Q 1159 2488 1159 1978 
L 1159 0 
L 581 0 
L 581 3500 
L 1159 3500 
L 1159 2956 
Q 1356 3278 1631 3431 
Q 1906 3584 2284 3584 
Q 2666 3584 2933 3390 
Q 3200 3197 3328 2828 
z
" transform="scale(0.015625)"/>
      <path id="DejaVuSans-52" d="M 2841 2188 
Q 3044 2119 3236 1894 
Q 3428 1669 3622 1275 
L 4263 0 
L 3584 0 
L 2988 1197 
Q 2756 1666 2539 1819 
Q 2322 1972 1947 1972 
L 1259 1972 
L 1259 0 
L 628 0 
L 628 4666 
L 2053 4666 
Q 2853 4666 3247 4331 
Q 3641 3997 3641 3322 
Q 3641 2881 3436 2590 
Q 3231 2300 2841 2188 
z
M 1259 4147 
L 1259 2491 
L 2053 2491 
Q 2509 2491 2742 2702 
Q 2975 2913 2975 3322 
Q 2975 3731 2742 3939 
Q 2509 4147 2053 4147 
L 1259 4147 
z
" transform="scale(0.015625)"/>
      <path id="DejaVuSans-67" d="M 2906 1791 
Q 2906 2416 2648 2759 
Q 2391 3103 1925 3103 
Q 1463 3103 1205 2759 
Q 947 2416 947 1791 
Q 947 1169 1205 825 
Q 1463 481 1925 481 
Q 2391 481 2648 825 
Q 2906 1169 2906 1791 
z
M 3481 434 
Q 3481 -459 3084 -895 
Q 2688 -1331 1869 -1331 
Q 1566 -1331 1297 -1286 
Q 1028 -1241 775 -1147 
L 775 -588 
Q 1028 -725 1275 -790 
Q 1522 -856 1778 -856 
Q 2344 -856 2625 -561 
Q 2906 -266 2906 331 
L 2906 616 
Q 2728 306 2450 153 
Q 2172 0 1784 0 
Q 1141 0 747 490 
Q 353 981 353 1791 
Q 353 2603 747 3093 
Q 1141 3584 1784 3584 
Q 2172 3584 2450 3431 
Q 2728 3278 2906 2969 
L 2906 3500 
L 3481 3500 
L 3481 434 
z
" transform="scale(0.015625)"/>
      <path id="DejaVuSans-68" d="M 3513 2113 
L 3513 0 
L 2938 0 
L 2938 2094 
Q 2938 2591 2744 2837 
Q 2550 3084 2163 3084 
Q 1697 3084 1428 2787 
Q 1159 2491 1159 1978 
L 1159 0 
L 581 0 
L 581 4863 
L 1159 4863 
L 1159 2956 
Q 1366 3272 1645 3428 
Q 1925 3584 2291 3584 
Q 2894 3584 3203 3211 
Q 3513 2838 3513 2113 
z
" transform="scale(0.015625)"/>
     </defs>
     <use xlink:href="#DejaVuSans-41"/>
     <use xlink:href="#DejaVuSans-44" x="68.408203"/>
     <use xlink:href="#DejaVuSans-20" x="145.410156"/>
     <use xlink:href="#DejaVuSans-2d" x="177.197266"/>
     <use xlink:href="#DejaVuSans-20" x="213.28125"/>
     <use xlink:href="#DejaVuSans-43" x="245.068359"/>
     <use xlink:href="#DejaVuSans-6f" x="314.892578"/>
     <use xlink:href="#DejaVuSans-72" x="376.074219"/>
     <use xlink:href="#DejaVuSans-74" x="417.1875"/>
     <use xlink:href="#DejaVuSans-69" x="456.396484"/>
     <use xlink:href="#DejaVuSans-63" x="484.179688"/>
     <use xlink:href="#DejaVuSans-6f" x="539.160156"/>
     <use xlink:href="#DejaVuSans-5f" x="600.341797"/>
     <use xlink:href="#DejaVuSans-50" x="650.341797"/>
     <use xlink:href="#DejaVuSans-6f" x="707.019531"/>
     <use xlink:href="#DejaVuSans-6e" x="768.201172"/>
     <use xlink:href="#DejaVuSans-74" x="831.580078"/>
     <use xlink:href="#DejaVuSans-6f" x="870.789062"/>
     <use xlink:href="#DejaVuSans-5f" x="931.970703"/>
     <use xlink:href="#DejaVuSans-43" x="981.970703"/>
     <use xlink:href="#DejaVuSans-65" x="1051.794922"/>
     <use xlink:href="#DejaVuSans-72" x="1113.318359"/>
     <use xlink:href="#DejaVuSans-65" x="1152.181641"/>
     <use xlink:href="#DejaVuSans-62" x="1213.705078"/>
     <use xlink:href="#DejaVuSans-65" x="1277.181641"/>
     <use xlink:href="#DejaVuSans-6c" x="1338.705078"/>
     <use xlink:href="#DejaVuSans-6c" x="1366.488281"/>
     <use xlink:href="#DejaVuSans-75" x="1394.271484"/>
     <use xlink:href="#DejaVuSans-6d" x="1457.650391"/>
     <use xlink:href="#DejaVuSans-5f" x="1555.0625"/>
     <use xlink:href="#DejaVuSans-52" x="1605.0625"/>
     <use xlink:href="#DejaVuSans-69" x="1674.544922"/>
     <use xlink:href="#DejaVuSans-67" x="1702.328125"/>
     <use xlink:href="#DejaVuSans-68" x="1765.804688"/>
     <use xlink:href="#DejaVuSans-74" x="1829.183594"/>
    </g>
   </g>
   <g id="legend_1">
    <g id="patch_7">
     <path d="M 449.97575 146.666825 
L 547.832 146.666825 
Q 549.832 146.666825 549.832 144.666825 
L 549.832 55.929325 
Q 549.832 53.929325 547.832 53.929325 
L 449.97575 53.929325 
Q 447.97575 53.929325 447.97575 55.929325 
L 447.97575 144.666825 
Q 447.97575 146.666825 449.97575 146.666825 
z
" style="fill: #ffffff; opacity: 0.8; stroke: #cccccc; stroke-linejoin: miter"/>
    </g>
    <g id="line2d_20">
     <path d="M 451.97575 62.027762 
L 461.97575 62.027762 
L 471.97575 62.027762 
" style="fill: none; stroke: #1f77b4; stroke-width: 1.5; stroke-linecap: square"/>
    </g>
    <g id="text_17">
     <!-- 20_06_02_E3 -->
     <g transform="translate(479.97575 65.527762) scale(0.1 -0.1)">
      <defs>
       <path id="DejaVuSans-45" d="M 628 4666 
L 3578 4666 
L 3578 4134 
L 1259 4134 
L 1259 2753 
L 3481 2753 
L 3481 2222 
L 1259 2222 
L 1259 531 
L 3634 531 
L 3634 0 
L 628 0 
L 628 4666 
z
" transform="scale(0.015625)"/>
       <path id="DejaVuSans-33" d="M 2597 2516 
Q 3050 2419 3304 2112 
Q 3559 1806 3559 1356 
Q 3559 666 3084 287 
Q 2609 -91 1734 -91 
Q 1441 -91 1130 -33 
Q 819 25 488 141 
L 488 750 
Q 750 597 1062 519 
Q 1375 441 1716 441 
Q 2309 441 2620 675 
Q 2931 909 2931 1356 
Q 2931 1769 2642 2001 
Q 2353 2234 1838 2234 
L 1294 2234 
L 1294 2753 
L 1863 2753 
Q 2328 2753 2575 2939 
Q 2822 3125 2822 3475 
Q 2822 3834 2567 4026 
Q 2313 4219 1838 4219 
Q 1578 4219 1281 4162 
Q 984 4106 628 3988 
L 628 4550 
Q 988 4650 1302 4700 
Q 1616 4750 1894 4750 
Q 2613 4750 3031 4423 
Q 3450 4097 3450 3541 
Q 3450 3153 3228 2886 
Q 3006 2619 2597 2516 
z
" transform="scale(0.015625)"/>
      </defs>
      <use xlink:href="#DejaVuSans-32"/>
      <use xlink:href="#DejaVuSans-30" x="63.623047"/>
      <use xlink:href="#DejaVuSans-5f" x="127.246094"/>
      <use xlink:href="#DejaVuSans-30" x="177.246094"/>
      <use xlink:href="#DejaVuSans-36" x="240.869141"/>
      <use xlink:href="#DejaVuSans-5f" x="304.492188"/>
      <use xlink:href="#DejaVuSans-30" x="354.492188"/>
      <use xlink:href="#DejaVuSans-32" x="418.115234"/>
      <use xlink:href="#DejaVuSans-5f" x="481.738281"/>
      <use xlink:href="#DejaVuSans-45" x="531.738281"/>
      <use xlink:href="#DejaVuSans-33" x="594.921875"/>
     </g>
    </g>
    <g id="line2d_21">
     <path d="M 451.97575 76.984013 
L 461.97575 76.984013 
L 471.97575 76.984013 
" style="fill: none; stroke: #ff7f0e; stroke-width: 1.5; stroke-linecap: square"/>
    </g>
    <g id="text_18">
     <!-- 20_05_01_E3 -->
     <g transform="translate(479.97575 80.484013) scale(0.1 -0.1)">
      <defs>
       <path id="DejaVuSans-35" d="M 691 4666 
L 3169 4666 
L 3169 4134 
L 1269 4134 
L 1269 2991 
Q 1406 3038 1543 3061 
Q 1681 3084 1819 3084 
Q 2600 3084 3056 2656 
Q 3513 2228 3513 1497 
Q 3513 744 3044 326 
Q 2575 -91 1722 -91 
Q 1428 -91 1123 -41 
Q 819 9 494 109 
L 494 744 
Q 775 591 1075 516 
Q 1375 441 1709 441 
Q 2250 441 2565 725 
Q 2881 1009 2881 1497 
Q 2881 1984 2565 2268 
Q 2250 2553 1709 2553 
Q 1456 2553 1204 2497 
Q 953 2441 691 2322 
L 691 4666 
z
" transform="scale(0.015625)"/>
      </defs>
      <use xlink:href="#DejaVuSans-32"/>
      <use xlink:href="#DejaVuSans-30" x="63.623047"/>
      <use xlink:href="#DejaVuSans-5f" x="127.246094"/>
      <use xlink:href="#DejaVuSans-30" x="177.246094"/>
      <use xlink:href="#DejaVuSans-35" x="240.869141"/>
      <use xlink:href="#DejaVuSans-5f" x="304.492188"/>
      <use xlink:href="#DejaVuSans-30" x="354.492188"/>
      <use xlink:href="#DejaVuSans-31" x="418.115234"/>
      <use xlink:href="#DejaVuSans-5f" x="481.738281"/>
      <use xlink:href="#DejaVuSans-45" x="531.738281"/>
      <use xlink:href="#DejaVuSans-33" x="594.921875"/>
     </g>
    </g>
    <g id="line2d_22">
     <path d="M 451.97575 91.940262 
L 461.97575 91.940262 
L 471.97575 91.940262 
" style="fill: none; stroke: #2ca02c; stroke-width: 1.5; stroke-linecap: square"/>
    </g>
    <g id="text_19">
     <!-- 20_02_02_E3 -->
     <g transform="translate(479.97575 95.440262) scale(0.1 -0.1)">
      <use xlink:href="#DejaVuSans-32"/>
      <use xlink:href="#DejaVuSans-30" x="63.623047"/>
      <use xlink:href="#DejaVuSans-5f" x="127.246094"/>
      <use xlink:href="#DejaVuSans-30" x="177.246094"/>
      <use xlink:href="#DejaVuSans-32" x="240.869141"/>
      <use xlink:href="#DejaVuSans-5f" x="304.492188"/>
      <use xlink:href="#DejaVuSans-30" x="354.492188"/>
      <use xlink:href="#DejaVuSans-32" x="418.115234"/>
      <use xlink:href="#DejaVuSans-5f" x="481.738281"/>
      <use xlink:href="#DejaVuSans-45" x="531.738281"/>
      <use xlink:href="#DejaVuSans-33" x="594.921875"/>
     </g>
    </g>
    <g id="line2d_23">
     <path d="M 451.97575 106.896513 
L 461.97575 106.896513 
L 471.97575 106.896513 
" style="fill: none; stroke: #d62728; stroke-width: 1.5; stroke-linecap: square"/>
    </g>
    <g id="text_20">
     <!-- 20_10_02_E3 -->
     <g transform="translate(479.97575 110.396513) scale(0.1 -0.1)">
      <use xlink:href="#DejaVuSans-32"/>
      <use xlink:href="#DejaVuSans-30" x="63.623047"/>
      <use xlink:href="#DejaVuSans-5f" x="127.246094"/>
      <use xlink:href="#DejaVuSans-31" x="177.246094"/>
      <use xlink:href="#DejaVuSans-30" x="240.869141"/>
      <use xlink:href="#DejaVuSans-5f" x="304.492188"/>
      <use xlink:href="#DejaVuSans-30" x="354.492188"/>
      <use xlink:href="#DejaVuSans-32" x="418.115234"/>
      <use xlink:href="#DejaVuSans-5f" x="481.738281"/>
      <use xlink:href="#DejaVuSans-45" x="531.738281"/>
      <use xlink:href="#DejaVuSans-33" x="594.921875"/>
     </g>
    </g>
    <g id="line2d_24">
     <path d="M 451.97575 121.852762 
L 461.97575 121.852762 
L 471.97575 121.852762 
" style="fill: none; stroke: #9467bd; stroke-width: 1.5; stroke-linecap: square"/>
    </g>
    <g id="text_21">
     <!-- 20_08_02_E3 -->
     <g transform="translate(479.97575 125.352762) scale(0.1 -0.1)">
      <use xlink:href="#DejaVuSans-32"/>
      <use xlink:href="#DejaVuSans-30" x="63.623047"/>
      <use xlink:href="#DejaVuSans-5f" x="127.246094"/>
      <use xlink:href="#DejaVuSans-30" x="177.246094"/>
      <use xlink:href="#DejaVuSans-38" x="240.869141"/>
      <use xlink:href="#DejaVuSans-5f" x="304.492188"/>
      <use xlink:href="#DejaVuSans-30" x="354.492188"/>
      <use xlink:href="#DejaVuSans-32" x="418.115234"/>
      <use xlink:href="#DejaVuSans-5f" x="481.738281"/>
      <use xlink:href="#DejaVuSans-45" x="531.738281"/>
      <use xlink:href="#DejaVuSans-33" x="594.921875"/>
     </g>
    </g>
    <g id="line2d_25">
     <path d="M 451.97575 136.809012 
L 461.97575 136.809012 
L 471.97575 136.809012 
" style="fill: none; stroke: #8c564b; stroke-width: 1.5; stroke-linecap: square"/>
    </g>
    <g id="text_22">
     <!-- 20_11_02_E3 -->
     <g transform="translate(479.97575 140.309012) scale(0.1 -0.1)">
      <use xlink:href="#DejaVuSans-32"/>
      <use xlink:href="#DejaVuSans-30" x="63.623047"/>
      <use xlink:href="#DejaVuSans-5f" x="127.246094"/>
      <use xlink:href="#DejaVuSans-31" x="177.246094"/>
      <use xlink:href="#DejaVuSans-31" x="240.869141"/>
      <use xlink:href="#DejaVuSans-5f" x="304.492188"/>
      <use xlink:href="#DejaVuSans-30" x="354.492188"/>
      <use xlink:href="#DejaVuSans-32" x="418.115234"/>
      <use xlink:href="#DejaVuSans-5f" x="481.738281"/>
      <use xlink:href="#DejaVuSans-45" x="531.738281"/>
      <use xlink:href="#DejaVuSans-33" x="594.921875"/>
     </g>
    </g>
   </g>
  </g>
 </g>
 <defs>
  <clipPath id="pce39a1c7c6">
   <rect x="50.14375" y="22.318125" width="357.12" height="266.112"/>
  </clipPath>
 </defs>
</svg>
