<?xml version="1.0" encoding="utf-8" standalone="no"?>
<!DOCTYPE svg PUBLIC "-//W3C//DTD SVG 1.1//EN"
  "http://www.w3.org/Graphics/SVG/1.1/DTD/svg11.dtd">
<svg xmlns:xlink="http://www.w3.org/1999/xlink" width="563.3945pt" height="325.986375pt" viewBox="0 0 563.3945 325.986375" xmlns="http://www.w3.org/2000/svg" version="1.1">
 <metadata>
  <rdf:RDF xmlns:dc="http://purl.org/dc/elements/1.1/" xmlns:cc="http://creativecommons.org/ns#" xmlns:rdf="http://www.w3.org/1999/02/22-rdf-syntax-ns#">
   <cc:Work>
    <dc:type rdf:resource="http://purl.org/dc/dcmitype/StillImage"/>
    <dc:date>2023-02-07T22:59:58.534085</dc:date>
    <dc:format>image/svg+xml</dc:format>
    <dc:creator>
     <cc:Agent>
      <dc:title>Matplotlib v3.6.2, https://matplotlib.org/</dc:title>
     </cc:Agent>
    </dc:creator>
   </cc:Work>
  </rdf:RDF>
 </metadata>
 <defs>
  <style type="text/css">*{stroke-linejoin: round; stroke-linecap: butt}</style>
 </defs>
 <g id="figure_1">
  <g id="patch_1">
   <path d="M 0 325.986375 
L 563.3945 325.986375 
L 563.3945 0 
L 0 0 
z
" style="fill: #ffffff"/>
  </g>
  <g id="axes_1">
   <g id="patch_2">
    <path d="M 56.50625 288.430125 
L 413.62625 288.430125 
L 413.62625 22.318125 
L 56.50625 22.318125 
z
" style="fill: #ffffff"/>
   </g>
   <g id="PolyCollection_1">
    <path d="M 72.738977 260.21221 
L 72.738977 262.630514 
L 75.633342 262.630514 
L 78.527707 262.630514 
L 81.422071 262.630514 
L 84.316436 262.630514 
L 87.2108 262.630514 
L 90.105165 262.630514 
L 92.99953 262.630514 
L 95.893894 262.630514 
L 98.788259 262.630514 
L 101.682624 262.630514 
L 104.576988 262.630514 
L 107.471353 262.630514 
L 110.365717 262.630514 
L 113.260082 262.630514 
L 116.154447 262.630514 
L 119.048811 262.630514 
L 121.943176 262.630514 
L 124.837541 262.630514 
L 127.731905 262.630514 
L 130.62627 262.630514 
L 133.520634 262.630514 
L 136.414999 262.630514 
L 139.309364 262.630514 
L 142.203728 262.630514 
L 145.098093 262.630514 
L 147.992458 262.630514 
L 150.886822 262.630514 
L 153.781187 262.630514 
L 156.675551 262.630514 
L 159.569916 262.630514 
L 162.464281 262.630514 
L 165.358645 262.630514 
L 168.25301 262.630514 
L 171.147375 262.630514 
L 174.041739 262.630514 
L 176.936104 262.630514 
L 179.830468 262.630514 
L 182.724833 262.630514 
L 185.619198 262.630514 
L 188.513562 262.630514 
L 191.407927 262.630514 
L 194.302292 262.630514 
L 197.196656 262.630514 
L 200.091021 262.630514 
L 202.985385 262.630514 
L 205.87975 262.630514 
L 208.774115 262.630514 
L 211.668479 262.630514 
L 214.562844 262.630514 
L 217.457209 262.630514 
L 220.351573 262.630514 
L 223.245938 262.630514 
L 226.140302 262.630514 
L 229.034667 262.630514 
L 231.929032 262.630514 
L 234.823396 262.630514 
L 237.717761 262.630514 
L 240.612126 262.630514 
L 243.50649 262.630514 
L 246.400855 262.630514 
L 249.295219 262.630514 
L 252.189584 262.630514 
L 255.083949 262.630514 
L 257.978313 262.630514 
L 260.872678 262.630514 
L 263.767043 262.630514 
L 266.661407 262.630514 
L 269.555772 262.630514 
L 272.450137 262.630514 
L 275.344501 262.630514 
L 278.238866 262.630514 
L 281.13323 262.630514 
L 284.027595 262.630514 
L 286.92196 262.630514 
L 289.816324 262.630514 
L 292.710689 262.630514 
L 295.605054 262.630514 
L 298.499418 262.630514 
L 301.393783 262.630514 
L 304.288147 262.630514 
L 307.182512 262.630514 
L 310.076877 262.630514 
L 312.971241 262.630514 
L 315.865606 262.630514 
L 318.759971 262.630514 
L 321.654335 262.630514 
L 324.5487 262.630514 
L 327.443064 262.630514 
L 330.337429 262.630514 
L 333.231794 262.630514 
L 336.126158 262.630514 
L 339.020523 262.630514 
L 341.914888 262.630514 
L 344.809252 262.630514 
L 347.703617 262.630514 
L 350.597981 262.630514 
L 353.492346 262.630514 
L 356.386711 262.630514 
L 359.281075 262.630514 
L 359.281075 243.467424 
L 359.281075 243.467424 
L 356.386711 239.356591 
L 353.492346 233.493184 
L 350.597981 226.196403 
L 347.703617 217.800394 
L 344.809252 208.639493 
L 341.914888 199.036415 
L 339.020523 189.293046 
L 336.126158 179.683541 
L 333.231794 170.449434 
L 330.337429 161.796489 
L 327.443064 153.893068 
L 324.5487 146.869762 
L 321.654335 140.820101 
L 318.759971 135.802139 
L 315.865606 131.840757 
L 312.971241 128.930507 
L 310.076877 127.038873 
L 307.182512 126.109822 
L 304.288147 126.067515 
L 301.393783 126.820108 
L 298.499418 128.263522 
L 295.605054 130.285143 
L 292.710689 132.767346 
L 289.816324 135.590837 
L 286.92196 138.637718 
L 284.027595 141.794282 
L 281.13323 144.953485 
L 278.238866 148.017085 
L 275.344501 150.89743 
L 272.450137 153.5189 
L 269.555772 155.818987 
L 266.661407 157.749034 
L 263.767043 159.274631 
L 260.872678 160.375691 
L 257.978313 161.046216 
L 255.083949 161.293786 
L 252.189584 161.138783 
L 249.295219 160.613388 
L 246.400855 159.760368 
L 243.50649 158.631699 
L 240.612126 157.287039 
L 237.717761 155.792099 
L 234.823396 154.216933 
L 231.929032 152.634187 
L 229.034667 151.117333 
L 226.140302 149.738928 
L 223.245938 148.568919 
L 220.351573 147.67303 
L 217.457209 262.611589 
L 214.562844 262.61243 
L 211.668479 146.201405 
L 208.774115 146.912906 
L 205.87975 148.167267 
L 202.985385 149.976199 
L 200.091021 152.337876 
L 197.196656 155.236984 
L 194.302292 158.645088 
L 191.407927 162.521332 
L 188.513562 166.813439 
L 185.619198 171.459003 
L 182.724833 176.387045 
L 179.830468 181.519801 
L 176.936104 186.77471 
L 174.041739 192.066554 
L 171.147375 197.309709 
L 168.25301 202.420464 
L 165.358645 207.319336 
L 162.464281 211.933352 
L 159.569916 216.198212 
L 156.675551 220.060305 
L 153.781187 223.478488 
L 150.886822 226.425595 
L 147.992458 228.88961 
L 145.098093 230.874439 
L 142.203728 232.400258 
L 139.309364 233.50336 
L 136.414999 234.235491 
L 133.520634 234.662623 
L 130.62627 234.863157 
L 127.731905 234.92553 
L 124.837541 234.945246 
L 121.943176 235.021321 
L 119.048811 235.2522 
L 116.154447 235.731161 
L 113.260082 236.541307 
L 110.365717 237.750195 
L 107.471353 239.404247 
L 104.576988 241.52305 
L 101.682624 244.093716 
L 98.788259 247.0655 
L 95.893894 250.344878 
L 92.99953 253.791359 
L 90.105165 257.214302 
L 87.2108 260.371086 
L 84.316436 262.966988 
L 81.422071 264.657181 
L 78.527707 265.051325 
L 75.633342 263.721235 
L 72.738977 260.21221 
z
" clip-path="url(#p52add2d082)" style="fill: #1f77b4; fill-opacity: 0.166667"/>
   </g>
   <g id="PolyCollection_2">
    <path d="M 72.738977 272.235868 
L 72.738977 262.630514 
L 75.761305 262.630514 
L 78.783633 262.630514 
L 81.805961 262.630514 
L 84.828289 262.630514 
L 87.850617 262.630514 
L 90.872945 262.630514 
L 93.895273 262.630514 
L 96.917601 262.630514 
L 99.939929 262.630514 
L 102.962257 262.630514 
L 105.984585 262.630514 
L 109.006913 262.630514 
L 112.029241 262.630514 
L 115.051569 262.630514 
L 118.073897 262.630514 
L 121.096225 262.630514 
L 124.118552 262.630514 
L 127.14088 262.630514 
L 130.163208 262.630514 
L 133.185536 262.630514 
L 136.207864 262.630514 
L 139.230192 262.630514 
L 142.25252 262.630514 
L 145.274848 262.630514 
L 148.297176 262.630514 
L 151.319504 262.630514 
L 154.341832 262.630514 
L 157.36416 262.630514 
L 160.386488 262.630514 
L 163.408816 262.630514 
L 166.431144 262.630514 
L 169.453472 262.630514 
L 172.4758 262.630514 
L 175.498128 262.630514 
L 178.520456 262.630514 
L 181.542784 262.630514 
L 184.565112 262.630514 
L 187.587439 262.630514 
L 190.609767 262.630514 
L 193.632095 262.630514 
L 196.654423 262.630514 
L 199.676751 262.630514 
L 202.699079 262.630514 
L 205.721407 262.630514 
L 208.743735 262.630514 
L 211.766063 262.630514 
L 214.788391 262.630514 
L 217.810719 262.630514 
L 220.833047 262.630514 
L 223.855375 262.630514 
L 226.877703 262.630514 
L 229.900031 262.630514 
L 232.922359 262.630514 
L 235.944687 262.630514 
L 238.967015 262.630514 
L 241.989343 262.630514 
L 245.011671 262.630514 
L 248.033999 262.630514 
L 251.056326 262.630514 
L 254.078654 262.630514 
L 257.100982 262.630514 
L 260.12331 262.630514 
L 263.145638 262.630514 
L 266.167966 262.630514 
L 269.190294 262.630514 
L 272.212622 262.630514 
L 275.23495 262.630514 
L 278.257278 262.630514 
L 281.279606 262.630514 
L 284.301934 262.630514 
L 287.324262 262.630514 
L 290.34659 262.630514 
L 293.368918 262.630514 
L 296.391246 262.630514 
L 299.413574 262.630514 
L 302.435902 262.630514 
L 305.45823 262.630514 
L 308.480558 262.630514 
L 311.502886 262.630514 
L 314.525213 262.630514 
L 317.547541 262.630514 
L 320.569869 262.630514 
L 323.592197 262.630514 
L 326.614525 262.630514 
L 329.636853 262.630514 
L 332.659181 262.630514 
L 335.681509 262.630514 
L 338.703837 262.630514 
L 341.726165 262.630514 
L 344.748493 262.630514 
L 347.770821 262.630514 
L 350.793149 262.630514 
L 353.815477 262.630514 
L 356.837805 262.630514 
L 359.860133 262.630514 
L 362.882461 262.630514 
L 365.904789 262.630514 
L 368.927117 262.630514 
L 371.949445 262.630514 
L 371.949445 241.969276 
L 371.949445 241.969276 
L 368.927117 264.471491 
L 365.904789 275.208316 
L 362.882461 276.334125 
L 359.860133 269.836722 
L 356.837805 257.521105 
L 353.815477 241.000111 
L 350.793149 221.690892 
L 347.770821 200.816265 
L 344.748493 179.410044 
L 341.726165 158.325591 
L 338.703837 138.246862 
L 335.681509 119.701339 
L 332.659181 103.074271 
L 329.636853 88.623754 
L 326.614525 76.496209 
L 323.592197 66.741905 
L 320.569869 59.330199 
L 317.547541 54.164244 
L 314.525213 51.094941 
L 311.502886 49.933969 
L 308.480558 50.465757 
L 305.45823 52.458299 
L 302.435902 55.672747 
L 299.413574 59.87176 
L 296.391246 64.826573 
L 293.368918 70.32283 
L 290.34659 76.165191 
L 287.324262 82.180781 
L 284.301934 88.221541 
L 281.279606 94.165553 
L 278.257278 99.917447 
L 275.23495 105.407969 
L 272.212622 110.592821 
L 269.190294 115.450876 
L 266.167966 119.981887 
L 263.145638 124.20378 
L 260.12331 128.149654 
L 257.100982 131.864586 
L 254.078654 135.402342 
L 251.056326 138.822089 
L 248.033999 142.18519 
L 245.011671 145.552174 
L 241.989343 148.979943 
L 238.967015 152.519281 
L 235.944687 156.212718 
L 232.922359 160.092798 
L 229.900031 164.180768 
L 226.877703 168.485727 
L 223.855375 262.61467 
L 220.833047 262.614681 
L 217.810719 184.16955 
L 214.788391 189.11135 
L 211.766063 194.05773 
L 208.743735 198.960173 
L 205.721407 203.767634 
L 202.699079 208.428292 
L 199.676751 212.891352 
L 196.654423 217.10884 
L 193.632095 221.037357 
L 190.609767 224.639715 
L 187.587439 227.886436 
L 184.565112 230.757033 
L 181.542784 233.241053 
L 178.520456 235.33882 
L 175.498128 237.061857 
L 172.4758 238.432936 
L 169.453472 239.485751 
L 166.431144 240.264179 
L 163.408816 240.821125 
L 160.386488 241.216961 
L 157.36416 241.517558 
L 154.341832 241.791944 
L 151.319504 242.10963 
L 148.297176 242.537641 
L 145.274848 243.137352 
L 142.25252 243.961184 
L 139.230192 245.049297 
L 136.207864 246.426388 
L 133.185536 248.098756 
L 130.163208 250.051804 
L 127.14088 252.248185 
L 124.118552 254.626806 
L 121.096225 257.102963 
L 118.073897 259.569876 
L 115.051569 261.901955 
L 112.029241 263.960149 
L 109.006913 265.599754 
L 105.984585 266.681117 
L 102.962257 267.083698 
L 99.939929 266.72399 
L 96.917601 265.577856 
L 93.895273 263.707869 
L 90.872945 261.296294 
L 87.850617 258.684416 
L 84.828289 256.418939 
L 81.805961 255.306263 
L 78.783633 256.475484 
L 75.761305 261.451024 
L 72.738977 272.235868 
z
" clip-path="url(#p52add2d082)" style="fill: #ff7f0e; fill-opacity: 0.166667"/>
   </g>
   <g id="PolyCollection_3">
    <path d="M 72.738977 263.466403 
L 72.738977 262.630514 
L 75.76117 262.630514 
L 78.783363 262.630514 
L 81.805556 262.630514 
L 84.827749 262.630514 
L 87.849942 262.630514 
L 90.872135 262.630514 
L 93.894327 262.630514 
L 96.91652 262.630514 
L 99.938713 262.630514 
L 102.960906 262.630514 
L 105.983099 262.630514 
L 109.005292 262.630514 
L 112.027485 262.630514 
L 115.049678 262.630514 
L 118.071871 262.630514 
L 121.094063 262.630514 
L 124.116256 262.630514 
L 127.138449 262.630514 
L 130.160642 262.630514 
L 133.182835 262.630514 
L 136.205028 262.630514 
L 139.227221 262.630514 
L 142.249414 262.630514 
L 145.271607 262.630514 
L 148.293799 262.630514 
L 151.315992 262.630514 
L 154.338185 262.630514 
L 157.360378 262.630514 
L 160.382571 262.630514 
L 163.404764 262.630514 
L 166.426957 262.630514 
L 169.44915 262.630514 
L 172.471343 262.630514 
L 175.493535 262.630514 
L 178.515728 262.630514 
L 181.537921 262.630514 
L 184.560114 262.630514 
L 187.582307 262.630514 
L 190.6045 262.630514 
L 193.626693 262.630514 
L 196.648886 262.630514 
L 199.671079 262.630514 
L 202.693271 262.630514 
L 205.715464 262.630514 
L 208.737657 262.630514 
L 211.75985 262.630514 
L 214.782043 262.630514 
L 217.804236 262.630514 
L 220.826429 262.630514 
L 223.848622 262.630514 
L 226.870815 262.630514 
L 229.893007 262.630514 
L 232.9152 262.630514 
L 235.937393 262.630514 
L 238.959586 262.630514 
L 241.981779 262.630514 
L 245.003972 262.630514 
L 248.026165 262.630514 
L 251.048358 262.630514 
L 254.070551 262.630514 
L 257.092743 262.630514 
L 260.114936 262.630514 
L 263.137129 262.630514 
L 266.159322 262.630514 
L 269.181515 262.630514 
L 272.203708 262.630514 
L 275.225901 262.630514 
L 278.248094 262.630514 
L 281.270286 262.630514 
L 284.292479 262.630514 
L 287.314672 262.630514 
L 290.336865 262.630514 
L 293.359058 262.630514 
L 296.381251 262.630514 
L 299.403444 262.630514 
L 302.425637 262.630514 
L 305.44783 262.630514 
L 308.470022 262.630514 
L 311.492215 262.630514 
L 314.514408 262.630514 
L 317.536601 262.630514 
L 320.558794 262.630514 
L 323.580987 262.630514 
L 326.60318 262.630514 
L 329.625373 262.630514 
L 332.647566 262.630514 
L 335.669758 262.630514 
L 338.691951 262.630514 
L 341.714144 262.630514 
L 344.736337 262.630514 
L 347.75853 262.630514 
L 350.780723 262.630514 
L 353.802916 262.630514 
L 356.825109 262.630514 
L 359.847302 262.630514 
L 362.869494 262.630514 
L 365.891687 262.630514 
L 368.91388 262.630514 
L 371.936073 262.630514 
L 371.936073 247.616705 
L 371.936073 247.616705 
L 368.91388 262.708971 
L 365.891687 268.840971 
L 362.869494 267.371651 
L 359.847302 259.647023 
L 356.825109 246.965649 
L 353.802916 230.551939 
L 350.780723 211.536272 
L 347.75853 190.941048 
L 344.736337 169.671836 
L 341.714144 148.512877 
L 338.691951 128.126243 
L 335.669758 109.054026 
L 332.647566 91.722996 
L 329.625373 76.451218 
L 326.60318 63.456168 
L 323.580987 52.863947 
L 320.558794 44.719231 
L 317.536601 38.995641 
L 314.514408 35.606272 
L 311.492215 34.414125 
L 308.470022 35.24226 
L 305.44783 37.883502 
L 302.425637 42.109555 
L 299.403444 47.679433 
L 296.381251 54.347108 
L 293.359058 61.868334 
L 290.336865 70.006602 
L 287.314672 78.538208 
L 284.292479 87.25644 
L 281.270286 95.974893 
L 278.248094 104.529938 
L 275.225901 112.782397 
L 272.203708 120.618458 
L 269.181515 127.949897 
L 266.159322 134.713667 
L 263.137129 140.870922 
L 260.114936 146.405554 
L 257.092743 151.322309 
L 254.070551 155.64457 
L 251.048358 159.411864 
L 248.026165 162.677193 
L 245.003972 165.504236 
L 241.981779 167.964511 
L 238.959586 170.134557 
L 235.937393 172.093187 
L 232.9152 173.918886 
L 229.893007 175.687395 
L 226.870815 177.469522 
L 223.848622 262.615211 
L 220.826429 262.615998 
L 217.804236 183.862816 
L 214.782043 186.253743 
L 211.75985 188.863132 
L 208.737657 191.703972 
L 205.715464 194.77862 
L 202.693271 198.079146 
L 199.671079 201.587953 
L 196.648886 205.278661 
L 193.626693 209.117213 
L 190.6045 213.063182 
L 187.582307 217.071239 
L 184.560114 221.092743 
L 181.537921 225.077403 
L 178.515728 228.974979 
L 175.493535 232.736965 
L 172.471343 236.318208 
L 169.44915 239.678421 
L 166.426957 242.78353 
L 163.404764 245.60683 
L 160.382571 248.129885 
L 157.360378 250.343156 
L 154.338185 252.24631 
L 151.315992 253.848188 
L 148.293799 255.166416 
L 145.271607 256.226653 
L 142.249414 257.06147 
L 139.227221 257.708879 
L 136.205028 258.210543 
L 133.182835 258.609704 
L 130.160642 258.948894 
L 127.138449 259.267509 
L 124.116256 259.599338 
L 121.094063 259.970183 
L 118.071871 260.395703 
L 115.049678 260.879666 
L 112.027485 261.412803 
L 109.005292 261.972507 
L 105.983099 262.523626 
L 102.960906 263.020671 
L 99.938713 263.411758 
L 96.91652 263.644676 
L 93.894327 263.675496 
L 90.872135 263.480179 
L 87.849942 263.069714 
L 84.827749 262.509327 
L 81.805556 261.942389 
L 78.783363 261.619691 
L 75.76117 261.934818 
L 72.738977 263.466403 
z
" clip-path="url(#p52add2d082)" style="fill: #2ca02c; fill-opacity: 0.166667"/>
   </g>
   <g id="PolyCollection_4">
    <path d="M 72.738977 264.79021 
L 72.738977 262.630514 
L 76.018316 262.630514 
L 79.297655 262.630514 
L 82.576994 262.630514 
L 85.856333 262.630514 
L 89.135671 262.630514 
L 92.41501 262.630514 
L 95.694349 262.630514 
L 98.973688 262.630514 
L 102.253027 262.630514 
L 105.532366 262.630514 
L 108.811705 262.630514 
L 112.091043 262.630514 
L 115.370382 262.630514 
L 118.649721 262.630514 
L 121.92906 262.630514 
L 125.208399 262.630514 
L 128.487738 262.630514 
L 131.767076 262.630514 
L 135.046415 262.630514 
L 138.325754 262.630514 
L 141.605093 262.630514 
L 144.884432 262.630514 
L 148.163771 262.630514 
L 151.44311 262.630514 
L 154.722448 262.630514 
L 158.001787 262.630514 
L 161.281126 262.630514 
L 164.560465 262.630514 
L 167.839804 262.630514 
L 171.119143 262.630514 
L 174.398481 262.630514 
L 177.67782 262.630514 
L 180.957159 262.630514 
L 184.236498 262.630514 
L 187.515837 262.630514 
L 190.795176 262.630514 
L 194.074514 262.630514 
L 197.353853 262.630514 
L 200.633192 262.630514 
L 203.912531 262.630514 
L 207.19187 262.630514 
L 210.471209 262.630514 
L 213.750548 262.630514 
L 217.029886 262.630514 
L 220.309225 262.630514 
L 223.588564 262.630514 
L 226.867903 262.630514 
L 230.147242 262.630514 
L 233.426581 262.630514 
L 236.705919 262.630514 
L 239.985258 262.630514 
L 243.264597 262.630514 
L 246.543936 262.630514 
L 249.823275 262.630514 
L 253.102614 262.630514 
L 256.381952 262.630514 
L 259.661291 262.630514 
L 262.94063 262.630514 
L 266.219969 262.630514 
L 269.499308 262.630514 
L 272.778647 262.630514 
L 276.057986 262.630514 
L 279.337324 262.630514 
L 282.616663 262.630514 
L 285.896002 262.630514 
L 289.175341 262.630514 
L 292.45468 262.630514 
L 295.734019 262.630514 
L 299.013357 262.630514 
L 302.292696 262.630514 
L 305.572035 262.630514 
L 308.851374 262.630514 
L 312.130713 262.630514 
L 315.410052 262.630514 
L 318.68939 262.630514 
L 321.968729 262.630514 
L 325.248068 262.630514 
L 328.527407 262.630514 
L 331.806746 262.630514 
L 335.086085 262.630514 
L 338.365424 262.630514 
L 341.644762 262.630514 
L 344.924101 262.630514 
L 348.20344 262.630514 
L 351.482779 262.630514 
L 354.762118 262.630514 
L 358.041457 262.630514 
L 361.320795 262.630514 
L 364.600134 262.630514 
L 367.879473 262.630514 
L 371.158812 262.630514 
L 374.438151 262.630514 
L 377.71749 262.630514 
L 380.996829 262.630514 
L 384.276167 262.630514 
L 387.555506 262.630514 
L 390.834845 262.630514 
L 394.114184 262.630514 
L 397.393523 262.630514 
L 397.393523 118.413314 
L 397.393523 118.413314 
L 394.114184 183.657419 
L 390.834845 226.614461 
L 387.555506 252.888035 
L 384.276167 266.989193 
L 380.996829 272.502883 
L 377.71749 272.234668 
L 374.438151 268.339506 
L 371.158812 262.434241 
L 367.879473 255.695355 
L 364.600134 248.943432 
L 361.320795 242.715671 
L 358.041457 237.327692 
L 354.762118 232.925802 
L 351.482779 229.530767 
L 348.20344 227.074096 
L 344.924101 225.427725 
L 341.644762 224.427933 
L 338.365424 223.894259 
L 335.086085 223.644092 
L 331.806746 223.503573 
L 328.527407 223.315376 
L 325.248068 222.943866 
L 321.968729 222.278104 
L 318.68939 221.2331 
L 315.410052 219.749674 
L 312.130713 217.793239 
L 308.851374 215.351796 
L 305.572035 212.433358 
L 302.292696 209.063038 
L 299.013357 205.279934 
L 295.734019 201.134003 
L 292.45468 196.682995 
L 289.175341 191.989573 
L 285.896002 187.118675 
L 282.616663 182.13518 
L 279.337324 177.101892 
L 276.057986 172.077895 
L 272.778647 167.117251 
L 269.499308 162.268063 
L 266.219969 157.571866 
L 262.94063 153.063338 
L 259.661291 148.770302 
L 256.381952 144.71397 
L 253.102614 140.909408 
L 249.823275 137.366171 
L 246.543936 134.089076 
L 243.264597 131.079059 
L 239.985258 128.33409 
L 236.705919 262.605795 
L 233.426581 262.606697 
L 230.147242 117.59642 
L 226.867903 115.619182 
L 223.588564 114.09731 
L 220.309225 113.02699 
L 217.029886 112.396677 
L 213.750548 112.187863 
L 210.471209 112.376058 
L 207.19187 112.931956 
L 203.912531 113.822749 
L 200.633192 115.013549 
L 197.353853 116.468886 
L 194.074514 118.15422 
L 190.795176 120.037429 
L 187.515837 122.09022 
L 184.236498 124.289407 
L 180.957159 126.618012 
L 177.67782 129.066125 
L 174.398481 131.631501 
L 171.119143 134.319817 
L 167.839804 137.144586 
L 164.560465 140.126668 
L 161.281126 143.29338 
L 158.001787 146.67718 
L 154.722448 150.313932 
L 151.44311 154.240771 
L 148.163771 158.493593 
L 144.884432 163.104228 
L 141.605093 168.097374 
L 138.325754 173.487373 
L 135.046415 179.274963 
L 131.767076 185.444157 
L 128.487738 191.959413 
L 125.208399 198.76334 
L 121.92906 205.775158 
L 118.649721 212.890228 
L 115.370382 219.980972 
L 112.091043 226.899563 
L 108.811705 233.482821 
L 105.532366 239.559781 
L 102.253027 244.962479 
L 98.973688 249.540541 
L 95.694349 253.180249 
L 92.41501 255.828772 
L 89.135671 257.524401 
L 85.856333 258.433609 
L 82.576994 258.895916 
L 79.297655 259.477562 
L 76.018316 261.035116 
L 72.738977 264.79021 
z
" clip-path="url(#p52add2d082)" style="fill: #d62728; fill-opacity: 0.166667"/>
   </g>
   <g id="PolyCollection_5">
    <path d="M 72.738977 267.180555 
L 72.738977 262.630514 
L 75.82328 262.630514 
L 78.907582 262.630514 
L 81.991885 262.630514 
L 85.076187 262.630514 
L 88.16049 262.630514 
L 91.244792 262.630514 
L 94.329095 262.630514 
L 97.413397 262.630514 
L 100.4977 262.630514 
L 103.582002 262.630514 
L 106.666305 262.630514 
L 109.750607 262.630514 
L 112.83491 262.630514 
L 115.919212 262.630514 
L 119.003515 262.630514 
L 122.087817 262.630514 
L 125.17212 262.630514 
L 128.256422 262.630514 
L 131.340725 262.630514 
L 134.425027 262.630514 
L 137.50933 262.630514 
L 140.593632 262.630514 
L 143.677935 262.630514 
L 146.762237 262.630514 
L 149.84654 262.630514 
L 152.930842 262.630514 
L 156.015145 262.630514 
L 159.099447 262.630514 
L 162.18375 262.630514 
L 165.268052 262.630514 
L 168.352355 262.630514 
L 171.436657 262.630514 
L 174.52096 262.630514 
L 177.605262 262.630514 
L 180.689565 262.630514 
L 183.773867 262.630514 
L 186.85817 262.630514 
L 189.942472 262.630514 
L 193.026775 262.630514 
L 196.111077 262.630514 
L 199.19538 262.630514 
L 202.279682 262.630514 
L 205.363985 262.630514 
L 208.448287 262.630514 
L 211.53259 262.630514 
L 214.616892 262.630514 
L 217.701195 262.630514 
L 220.785497 262.630514 
L 223.8698 262.630514 
L 226.954102 262.630514 
L 230.038405 262.630514 
L 233.122707 262.630514 
L 236.20701 262.630514 
L 239.291312 262.630514 
L 242.375615 262.630514 
L 245.459917 262.630514 
L 248.54422 262.630514 
L 251.628522 262.630514 
L 254.712825 262.630514 
L 257.797127 262.630514 
L 260.88143 262.630514 
L 263.965732 262.630514 
L 267.050034 262.630514 
L 270.134337 262.630514 
L 273.218639 262.630514 
L 276.302942 262.630514 
L 279.387244 262.630514 
L 282.471547 262.630514 
L 285.555849 262.630514 
L 288.640152 262.630514 
L 291.724454 262.630514 
L 294.808757 262.630514 
L 297.893059 262.630514 
L 300.977362 262.630514 
L 304.061664 262.630514 
L 307.145967 262.630514 
L 310.230269 262.630514 
L 313.314572 262.630514 
L 316.398874 262.630514 
L 319.483177 262.630514 
L 322.567479 262.630514 
L 325.651782 262.630514 
L 328.736084 262.630514 
L 331.820387 262.630514 
L 334.904689 262.630514 
L 337.988992 262.630514 
L 341.073294 262.630514 
L 344.157597 262.630514 
L 347.241899 262.630514 
L 350.326202 262.630514 
L 353.410504 262.630514 
L 356.494807 262.630514 
L 359.579109 262.630514 
L 362.663412 262.630514 
L 365.747714 262.630514 
L 368.832017 262.630514 
L 371.916319 262.630514 
L 375.000622 262.630514 
L 378.084924 262.630514 
L 378.084924 269.908194 
L 378.084924 269.908194 
L 375.000622 234.948552 
L 371.916319 208.281226 
L 368.832017 188.348678 
L 365.747714 173.865832 
L 362.663412 163.774359 
L 359.579109 157.20354 
L 356.494807 153.436987 
L 353.410504 151.884556 
L 350.326202 152.058823 
L 347.241899 153.555571 
L 344.157597 156.037764 
L 341.073294 159.222538 
L 337.988992 162.870779 
L 334.904689 166.778907 
L 331.820387 170.772503 
L 328.736084 174.701482 
L 325.651782 178.436518 
L 322.567479 181.866489 
L 319.483177 184.896708 
L 316.398874 187.447764 
L 313.314572 189.454793 
L 310.230269 190.867064 
L 307.145967 191.647726 
L 304.061664 191.773653 
L 300.977362 191.235284 
L 297.893059 190.0364 
L 294.808757 188.193799 
L 291.724454 185.736821 
L 288.640152 182.706713 
L 285.555849 179.155818 
L 282.471547 175.146583 
L 279.387244 170.750399 
L 276.302942 166.046283 
L 273.218639 161.11942 
L 270.134337 156.059596 
L 267.050034 150.959537 
L 263.965732 145.913201 
L 260.88143 141.014034 
L 257.797127 136.353249 
L 254.712825 132.018134 
L 251.628522 128.090444 
L 248.54422 124.644894 
L 245.459917 121.747787 
L 242.375615 119.455804 
L 239.291312 117.814982 
L 236.20701 116.859894 
L 233.122707 116.613056 
L 230.038405 117.084564 
L 226.954102 262.609338 
L 223.8698 262.609981 
L 220.785497 121.022091 
L 217.701195 124.05888 
L 214.616892 127.774496 
L 211.53259 132.11259 
L 208.448287 137.004391 
L 205.363985 142.370282 
L 202.279682 148.121674 
L 199.19538 154.163153 
L 196.111077 160.394853 
L 193.026775 166.714977 
L 189.942472 173.022438 
L 186.85817 179.219531 
L 183.773867 185.214569 
L 180.689565 190.924415 
L 177.605262 196.276835 
L 174.52096 201.212589 
L 171.436657 205.68719 
L 168.352355 209.672263 
L 165.268052 213.15644 
L 162.18375 216.14572 
L 159.099447 218.663262 
L 156.015145 220.748567 
L 152.930842 222.456016 
L 149.84654 223.85278 
L 146.762237 225.016093 
L 143.677935 226.029943 
L 140.593632 226.981227 
L 137.50933 227.95547 
L 134.425027 229.032229 
L 131.340725 230.280339 
L 128.256422 231.753188 
L 125.17212 233.48428 
L 122.087817 235.483357 
L 119.003515 237.733415 
L 115.919212 240.189019 
L 112.83491 242.776348 
L 109.750607 245.395499 
L 106.666305 247.925624 
L 103.582002 250.233554 
L 100.4977 252.186638 
L 97.413397 253.670618 
L 94.329095 254.613429 
L 91.244792 255.015933 
L 88.16049 254.990661 
L 85.076187 254.809763 
L 81.991885 254.963485 
L 78.907582 256.230561 
L 75.82328 259.762093 
L 72.738977 267.180555 
z
" clip-path="url(#p52add2d082)" style="fill: #9467bd; fill-opacity: 0.166667"/>
   </g>
   <g id="PolyCollection_6">
    <path d="M 72.738977 260.416157 
L 72.738977 262.630514 
L 75.721383 262.630514 
L 78.703789 262.630514 
L 81.686194 262.630514 
L 84.6686 262.630514 
L 87.651005 262.630514 
L 90.633411 262.630514 
L 93.615817 262.630514 
L 96.598222 262.630514 
L 99.580628 262.630514 
L 102.563034 262.630514 
L 105.545439 262.630514 
L 108.527845 262.630514 
L 111.510251 262.630514 
L 114.492656 262.630514 
L 117.475062 262.630514 
L 120.457467 262.630514 
L 123.439873 262.630514 
L 126.422279 262.630514 
L 129.404684 262.630514 
L 132.38709 262.630514 
L 135.369496 262.630514 
L 138.351901 262.630514 
L 141.334307 262.630514 
L 144.316713 262.630514 
L 147.299118 262.630514 
L 150.281524 262.630514 
L 153.26393 262.630514 
L 156.246335 262.630514 
L 159.228741 262.630514 
L 162.211146 262.630514 
L 165.193552 262.630514 
L 168.175958 262.630514 
L 171.158363 262.630514 
L 174.140769 262.630514 
L 177.123175 262.630514 
L 180.10558 262.630514 
L 183.087986 262.630514 
L 186.070392 262.630514 
L 189.052797 262.630514 
L 192.035203 262.630514 
L 195.017608 262.630514 
L 198.000014 262.630514 
L 200.98242 262.630514 
L 203.964825 262.630514 
L 206.947231 262.630514 
L 209.929637 262.630514 
L 212.912042 262.630514 
L 215.894448 262.630514 
L 218.876854 262.630514 
L 221.859259 262.630514 
L 224.841665 262.630514 
L 227.82407 262.630514 
L 230.806476 262.630514 
L 233.788882 262.630514 
L 236.771287 262.630514 
L 239.753693 262.630514 
L 242.736099 262.630514 
L 245.718504 262.630514 
L 248.70091 262.630514 
L 251.683316 262.630514 
L 254.665721 262.630514 
L 257.648127 262.630514 
L 260.630533 262.630514 
L 263.612938 262.630514 
L 266.595344 262.630514 
L 269.577749 262.630514 
L 272.560155 262.630514 
L 275.542561 262.630514 
L 278.524966 262.630514 
L 281.507372 262.630514 
L 284.489778 262.630514 
L 287.472183 262.630514 
L 290.454589 262.630514 
L 293.436995 262.630514 
L 296.4194 262.630514 
L 299.401806 262.630514 
L 302.384211 262.630514 
L 305.366617 262.630514 
L 308.349023 262.630514 
L 311.331428 262.630514 
L 314.313834 262.630514 
L 317.29624 262.630514 
L 320.278645 262.630514 
L 323.261051 262.630514 
L 326.243457 262.630514 
L 329.225862 262.630514 
L 332.208268 262.630514 
L 335.190673 262.630514 
L 338.173079 262.630514 
L 341.155485 262.630514 
L 344.13789 262.630514 
L 347.120296 262.630514 
L 350.102702 262.630514 
L 353.085107 262.630514 
L 356.067513 262.630514 
L 359.049919 262.630514 
L 362.032324 262.630514 
L 365.01473 262.630514 
L 367.997136 262.630514 
L 367.997136 253.7315 
L 367.997136 253.7315 
L 365.01473 259.950406 
L 362.032324 260.21443 
L 359.049919 255.578796 
L 356.067513 247.007092 
L 353.085107 235.3732 
L 350.102702 221.463705 
L 347.120296 205.980745 
L 344.13789 189.545226 
L 341.155485 172.700364 
L 338.173079 155.915505 
L 335.190673 139.590154 
L 332.208268 124.058198 
L 329.225862 109.592252 
L 326.243457 96.408102 
L 323.261051 84.669207 
L 320.278645 74.491207 
L 317.29624 65.94643 
L 314.313834 59.068338 
L 311.331428 53.855908 
L 308.349023 50.277898 
L 305.366617 48.276996 
L 302.384211 47.773812 
L 299.401806 48.6707 
L 296.4194 50.855397 
L 293.436995 54.204455 
L 290.454589 58.58646 
L 287.472183 63.865021 
L 284.489778 69.901525 
L 281.507372 76.557654 
L 278.524966 83.697643 
L 275.542561 91.190304 
L 272.560155 98.910786 
L 269.577749 106.742091 
L 266.595344 114.576346 
L 263.612938 122.315827 
L 260.630533 129.87375 
L 257.648127 137.174834 
L 254.665721 144.15564 
L 251.683316 150.76471 
L 248.70091 156.9625 
L 245.718504 162.721132 
L 242.736099 168.023981 
L 239.753693 172.865096 
L 236.771287 177.248495 
L 233.788882 181.187325 
L 230.806476 184.702929 
L 227.82407 187.823816 
L 224.841665 190.584564 
L 221.859259 262.6133 
L 218.876854 262.614319 
L 215.894448 196.993293 
L 212.912042 198.769528 
L 209.929637 200.414321 
L 206.947231 201.972488 
L 203.964825 203.486644 
L 200.98242 204.996292 
L 198.000014 206.537021 
L 195.017608 208.139805 
L 192.035203 209.830429 
L 189.052797 211.629047 
L 186.070392 213.54987 
L 183.087986 215.600994 
L 180.10558 217.784379 
L 177.123175 220.095963 
L 174.140769 222.525925 
L 171.158363 225.05908 
L 168.175958 227.675412 
L 165.193552 230.350731 
L 162.211146 233.057436 
L 159.228741 235.765386 
L 156.246335 238.442856 
L 153.26393 241.057548 
L 150.281524 243.57766 
L 147.299118 245.972971 
L 144.316713 248.215916 
L 141.334307 250.282637 
L 138.351901 252.153963 
L 135.369496 253.816289 
L 132.38709 255.262322 
L 129.404684 256.491649 
L 126.422279 257.511084 
L 123.439873 258.334754 
L 120.457467 258.983869 
L 117.475062 259.486132 
L 114.492656 259.874729 
L 111.510251 260.186851 
L 108.527845 260.461679 
L 105.545439 260.737784 
L 102.563034 261.049865 
L 99.580628 261.424766 
L 96.598222 261.876702 
L 93.615817 262.401628 
L 90.633411 262.970665 
L 87.651005 263.522518 
L 84.6686 263.954807 
L 81.686194 264.114232 
L 78.703789 263.785477 
L 75.721383 262.678794 
L 72.738977 260.416157 
z
" clip-path="url(#p52add2d082)" style="fill: #8c564b; fill-opacity: 0.166667"/>
   </g>
   <g id="matplotlib.axis_1">
    <g id="xtick_1">
     <g id="line2d_1">
      <defs>
       <path id="mfd0cc4a484" d="M 0 0 
L 0 3.5 
" style="stroke: #000000; stroke-width: 0.8"/>
      </defs>
      <g>
       <use xlink:href="#mfd0cc4a484" x="72.738977" y="288.430125" style="stroke: #000000; stroke-width: 0.8"/>
      </g>
     </g>
     <g id="text_1">
      <!-- 0.0 -->
      <g transform="translate(64.787415 303.028562) scale(0.1 -0.1)">
       <defs>
        <path id="DejaVuSans-30" d="M 2034 4250 
Q 1547 4250 1301 3770 
Q 1056 3291 1056 2328 
Q 1056 1369 1301 889 
Q 1547 409 2034 409 
Q 2525 409 2770 889 
Q 3016 1369 3016 2328 
Q 3016 3291 2770 3770 
Q 2525 4250 2034 4250 
z
M 2034 4750 
Q 2819 4750 3233 4129 
Q 3647 3509 3647 2328 
Q 3647 1150 3233 529 
Q 2819 -91 2034 -91 
Q 1250 -91 836 529 
Q 422 1150 422 2328 
Q 422 3509 836 4129 
Q 1250 4750 2034 4750 
z
" transform="scale(0.015625)"/>
        <path id="DejaVuSans-2e" d="M 684 794 
L 1344 794 
L 1344 0 
L 684 0 
L 684 794 
z
" transform="scale(0.015625)"/>
       </defs>
       <use xlink:href="#DejaVuSans-30"/>
       <use xlink:href="#DejaVuSans-2e" x="63.623047"/>
       <use xlink:href="#DejaVuSans-30" x="95.410156"/>
      </g>
     </g>
    </g>
    <g id="xtick_2">
     <g id="line2d_2">
      <g>
       <use xlink:href="#mfd0cc4a484" x="138.325754" y="288.430125" style="stroke: #000000; stroke-width: 0.8"/>
      </g>
     </g>
     <g id="text_2">
      <!-- 0.2 -->
      <g transform="translate(130.374192 303.028562) scale(0.1 -0.1)">
       <defs>
        <path id="DejaVuSans-32" d="M 1228 531 
L 3431 531 
L 3431 0 
L 469 0 
L 469 531 
Q 828 903 1448 1529 
Q 2069 2156 2228 2338 
Q 2531 2678 2651 2914 
Q 2772 3150 2772 3378 
Q 2772 3750 2511 3984 
Q 2250 4219 1831 4219 
Q 1534 4219 1204 4116 
Q 875 4013 500 3803 
L 500 4441 
Q 881 4594 1212 4672 
Q 1544 4750 1819 4750 
Q 2544 4750 2975 4387 
Q 3406 4025 3406 3419 
Q 3406 3131 3298 2873 
Q 3191 2616 2906 2266 
Q 2828 2175 2409 1742 
Q 1991 1309 1228 531 
z
" transform="scale(0.015625)"/>
       </defs>
       <use xlink:href="#DejaVuSans-30"/>
       <use xlink:href="#DejaVuSans-2e" x="63.623047"/>
       <use xlink:href="#DejaVuSans-32" x="95.410156"/>
      </g>
     </g>
    </g>
    <g id="xtick_3">
     <g id="line2d_3">
      <g>
       <use xlink:href="#mfd0cc4a484" x="203.912531" y="288.430125" style="stroke: #000000; stroke-width: 0.8"/>
      </g>
     </g>
     <g id="text_3">
      <!-- 0.4 -->
      <g transform="translate(195.960968 303.028562) scale(0.1 -0.1)">
       <defs>
        <path id="DejaVuSans-34" d="M 2419 4116 
L 825 1625 
L 2419 1625 
L 2419 4116 
z
M 2253 4666 
L 3047 4666 
L 3047 1625 
L 3713 1625 
L 3713 1100 
L 3047 1100 
L 3047 0 
L 2419 0 
L 2419 1100 
L 313 1100 
L 313 1709 
L 2253 4666 
z
" transform="scale(0.015625)"/>
       </defs>
       <use xlink:href="#DejaVuSans-30"/>
       <use xlink:href="#DejaVuSans-2e" x="63.623047"/>
       <use xlink:href="#DejaVuSans-34" x="95.410156"/>
      </g>
     </g>
    </g>
    <g id="xtick_4">
     <g id="line2d_4">
      <g>
       <use xlink:href="#mfd0cc4a484" x="269.499308" y="288.430125" style="stroke: #000000; stroke-width: 0.8"/>
      </g>
     </g>
     <g id="text_4">
      <!-- 0.6 -->
      <g transform="translate(261.547745 303.028562) scale(0.1 -0.1)">
       <defs>
        <path id="DejaVuSans-36" d="M 2113 2584 
Q 1688 2584 1439 2293 
Q 1191 2003 1191 1497 
Q 1191 994 1439 701 
Q 1688 409 2113 409 
Q 2538 409 2786 701 
Q 3034 994 3034 1497 
Q 3034 2003 2786 2293 
Q 2538 2584 2113 2584 
z
M 3366 4563 
L 3366 3988 
Q 3128 4100 2886 4159 
Q 2644 4219 2406 4219 
Q 1781 4219 1451 3797 
Q 1122 3375 1075 2522 
Q 1259 2794 1537 2939 
Q 1816 3084 2150 3084 
Q 2853 3084 3261 2657 
Q 3669 2231 3669 1497 
Q 3669 778 3244 343 
Q 2819 -91 2113 -91 
Q 1303 -91 875 529 
Q 447 1150 447 2328 
Q 447 3434 972 4092 
Q 1497 4750 2381 4750 
Q 2619 4750 2861 4703 
Q 3103 4656 3366 4563 
z
" transform="scale(0.015625)"/>
       </defs>
       <use xlink:href="#DejaVuSans-30"/>
       <use xlink:href="#DejaVuSans-2e" x="63.623047"/>
       <use xlink:href="#DejaVuSans-36" x="95.410156"/>
      </g>
     </g>
    </g>
    <g id="xtick_5">
     <g id="line2d_5">
      <g>
       <use xlink:href="#mfd0cc4a484" x="335.086085" y="288.430125" style="stroke: #000000; stroke-width: 0.8"/>
      </g>
     </g>
     <g id="text_5">
      <!-- 0.8 -->
      <g transform="translate(327.134522 303.028562) scale(0.1 -0.1)">
       <defs>
        <path id="DejaVuSans-38" d="M 2034 2216 
Q 1584 2216 1326 1975 
Q 1069 1734 1069 1313 
Q 1069 891 1326 650 
Q 1584 409 2034 409 
Q 2484 409 2743 651 
Q 3003 894 3003 1313 
Q 3003 1734 2745 1975 
Q 2488 2216 2034 2216 
z
M 1403 2484 
Q 997 2584 770 2862 
Q 544 3141 544 3541 
Q 544 4100 942 4425 
Q 1341 4750 2034 4750 
Q 2731 4750 3128 4425 
Q 3525 4100 3525 3541 
Q 3525 3141 3298 2862 
Q 3072 2584 2669 2484 
Q 3125 2378 3379 2068 
Q 3634 1759 3634 1313 
Q 3634 634 3220 271 
Q 2806 -91 2034 -91 
Q 1263 -91 848 271 
Q 434 634 434 1313 
Q 434 1759 690 2068 
Q 947 2378 1403 2484 
z
M 1172 3481 
Q 1172 3119 1398 2916 
Q 1625 2713 2034 2713 
Q 2441 2713 2670 2916 
Q 2900 3119 2900 3481 
Q 2900 3844 2670 4047 
Q 2441 4250 2034 4250 
Q 1625 4250 1398 4047 
Q 1172 3844 1172 3481 
z
" transform="scale(0.015625)"/>
       </defs>
       <use xlink:href="#DejaVuSans-30"/>
       <use xlink:href="#DejaVuSans-2e" x="63.623047"/>
       <use xlink:href="#DejaVuSans-38" x="95.410156"/>
      </g>
     </g>
    </g>
    <g id="xtick_6">
     <g id="line2d_6">
      <g>
       <use xlink:href="#mfd0cc4a484" x="400.672862" y="288.430125" style="stroke: #000000; stroke-width: 0.8"/>
      </g>
     </g>
     <g id="text_6">
      <!-- 1.0 -->
      <g transform="translate(392.721299 303.028562) scale(0.1 -0.1)">
       <defs>
        <path id="DejaVuSans-31" d="M 794 531 
L 1825 531 
L 1825 4091 
L 703 3866 
L 703 4441 
L 1819 4666 
L 2450 4666 
L 2450 531 
L 3481 531 
L 3481 0 
L 794 0 
L 794 531 
z
" transform="scale(0.015625)"/>
       </defs>
       <use xlink:href="#DejaVuSans-31"/>
       <use xlink:href="#DejaVuSans-2e" x="63.623047"/>
       <use xlink:href="#DejaVuSans-30" x="95.410156"/>
      </g>
     </g>
    </g>
    <g id="text_7">
     <!-- Pixel values -->
     <g transform="translate(205.654531 316.706687) scale(0.1 -0.1)">
      <defs>
       <path id="DejaVuSans-50" d="M 1259 4147 
L 1259 2394 
L 2053 2394 
Q 2494 2394 2734 2622 
Q 2975 2850 2975 3272 
Q 2975 3691 2734 3919 
Q 2494 4147 2053 4147 
L 1259 4147 
z
M 628 4666 
L 2053 4666 
Q 2838 4666 3239 4311 
Q 3641 3956 3641 3272 
Q 3641 2581 3239 2228 
Q 2838 1875 2053 1875 
L 1259 1875 
L 1259 0 
L 628 0 
L 628 4666 
z
" transform="scale(0.015625)"/>
       <path id="DejaVuSans-69" d="M 603 3500 
L 1178 3500 
L 1178 0 
L 603 0 
L 603 3500 
z
M 603 4863 
L 1178 4863 
L 1178 4134 
L 603 4134 
L 603 4863 
z
" transform="scale(0.015625)"/>
       <path id="DejaVuSans-78" d="M 3513 3500 
L 2247 1797 
L 3578 0 
L 2900 0 
L 1881 1375 
L 863 0 
L 184 0 
L 1544 1831 
L 300 3500 
L 978 3500 
L 1906 2253 
L 2834 3500 
L 3513 3500 
z
" transform="scale(0.015625)"/>
       <path id="DejaVuSans-65" d="M 3597 1894 
L 3597 1613 
L 953 1613 
Q 991 1019 1311 708 
Q 1631 397 2203 397 
Q 2534 397 2845 478 
Q 3156 559 3463 722 
L 3463 178 
Q 3153 47 2828 -22 
Q 2503 -91 2169 -91 
Q 1331 -91 842 396 
Q 353 884 353 1716 
Q 353 2575 817 3079 
Q 1281 3584 2069 3584 
Q 2775 3584 3186 3129 
Q 3597 2675 3597 1894 
z
M 3022 2063 
Q 3016 2534 2758 2815 
Q 2500 3097 2075 3097 
Q 1594 3097 1305 2825 
Q 1016 2553 972 2059 
L 3022 2063 
z
" transform="scale(0.015625)"/>
       <path id="DejaVuSans-6c" d="M 603 4863 
L 1178 4863 
L 1178 0 
L 603 0 
L 603 4863 
z
" transform="scale(0.015625)"/>
       <path id="DejaVuSans-20" transform="scale(0.015625)"/>
       <path id="DejaVuSans-76" d="M 191 3500 
L 800 3500 
L 1894 563 
L 2988 3500 
L 3597 3500 
L 2284 0 
L 1503 0 
L 191 3500 
z
" transform="scale(0.015625)"/>
       <path id="DejaVuSans-61" d="M 2194 1759 
Q 1497 1759 1228 1600 
Q 959 1441 959 1056 
Q 959 750 1161 570 
Q 1363 391 1709 391 
Q 2188 391 2477 730 
Q 2766 1069 2766 1631 
L 2766 1759 
L 2194 1759 
z
M 3341 1997 
L 3341 0 
L 2766 0 
L 2766 531 
Q 2569 213 2275 61 
Q 1981 -91 1556 -91 
Q 1019 -91 701 211 
Q 384 513 384 1019 
Q 384 1609 779 1909 
Q 1175 2209 1959 2209 
L 2766 2209 
L 2766 2266 
Q 2766 2663 2505 2880 
Q 2244 3097 1772 3097 
Q 1472 3097 1187 3025 
Q 903 2953 641 2809 
L 641 3341 
Q 956 3463 1253 3523 
Q 1550 3584 1831 3584 
Q 2591 3584 2966 3190 
Q 3341 2797 3341 1997 
z
" transform="scale(0.015625)"/>
       <path id="DejaVuSans-75" d="M 544 1381 
L 544 3500 
L 1119 3500 
L 1119 1403 
Q 1119 906 1312 657 
Q 1506 409 1894 409 
Q 2359 409 2629 706 
Q 2900 1003 2900 1516 
L 2900 3500 
L 3475 3500 
L 3475 0 
L 2900 0 
L 2900 538 
Q 2691 219 2414 64 
Q 2138 -91 1772 -91 
Q 1169 -91 856 284 
Q 544 659 544 1381 
z
M 1991 3584 
L 1991 3584 
z
" transform="scale(0.015625)"/>
       <path id="DejaVuSans-73" d="M 2834 3397 
L 2834 2853 
Q 2591 2978 2328 3040 
Q 2066 3103 1784 3103 
Q 1356 3103 1142 2972 
Q 928 2841 928 2578 
Q 928 2378 1081 2264 
Q 1234 2150 1697 2047 
L 1894 2003 
Q 2506 1872 2764 1633 
Q 3022 1394 3022 966 
Q 3022 478 2636 193 
Q 2250 -91 1575 -91 
Q 1294 -91 989 -36 
Q 684 19 347 128 
L 347 722 
Q 666 556 975 473 
Q 1284 391 1588 391 
Q 1994 391 2212 530 
Q 2431 669 2431 922 
Q 2431 1156 2273 1281 
Q 2116 1406 1581 1522 
L 1381 1569 
Q 847 1681 609 1914 
Q 372 2147 372 2553 
Q 372 3047 722 3315 
Q 1072 3584 1716 3584 
Q 2034 3584 2315 3537 
Q 2597 3491 2834 3397 
z
" transform="scale(0.015625)"/>
      </defs>
      <use xlink:href="#DejaVuSans-50"/>
      <use xlink:href="#DejaVuSans-69" x="58.052734"/>
      <use xlink:href="#DejaVuSans-78" x="85.835938"/>
      <use xlink:href="#DejaVuSans-65" x="141.890625"/>
      <use xlink:href="#DejaVuSans-6c" x="203.414062"/>
      <use xlink:href="#DejaVuSans-20" x="231.197266"/>
      <use xlink:href="#DejaVuSans-76" x="262.984375"/>
      <use xlink:href="#DejaVuSans-61" x="322.164062"/>
      <use xlink:href="#DejaVuSans-6c" x="383.443359"/>
      <use xlink:href="#DejaVuSans-75" x="411.226562"/>
      <use xlink:href="#DejaVuSans-65" x="474.605469"/>
      <use xlink:href="#DejaVuSans-73" x="536.128906"/>
     </g>
    </g>
   </g>
   <g id="matplotlib.axis_2">
    <g id="ytick_1">
     <g id="line2d_7">
      <defs>
       <path id="m36abe24255" d="M 0 0 
L -3.5 0 
" style="stroke: #000000; stroke-width: 0.8"/>
      </defs>
      <g>
       <use xlink:href="#m36abe24255" x="56.50625" y="262.630514" style="stroke: #000000; stroke-width: 0.8"/>
      </g>
     </g>
     <g id="text_8">
      <!-- 0.000 -->
      <g transform="translate(20.878125 266.429733) scale(0.1 -0.1)">
       <use xlink:href="#DejaVuSans-30"/>
       <use xlink:href="#DejaVuSans-2e" x="63.623047"/>
       <use xlink:href="#DejaVuSans-30" x="95.410156"/>
       <use xlink:href="#DejaVuSans-30" x="159.033203"/>
       <use xlink:href="#DejaVuSans-30" x="222.65625"/>
      </g>
     </g>
    </g>
    <g id="ytick_2">
     <g id="line2d_8">
      <g>
       <use xlink:href="#m36abe24255" x="56.50625" y="224.898516" style="stroke: #000000; stroke-width: 0.8"/>
      </g>
     </g>
     <g id="text_9">
      <!-- 0.005 -->
      <g transform="translate(20.878125 228.697735) scale(0.1 -0.1)">
       <defs>
        <path id="DejaVuSans-35" d="M 691 4666 
L 3169 4666 
L 3169 4134 
L 1269 4134 
L 1269 2991 
Q 1406 3038 1543 3061 
Q 1681 3084 1819 3084 
Q 2600 3084 3056 2656 
Q 3513 2228 3513 1497 
Q 3513 744 3044 326 
Q 2575 -91 1722 -91 
Q 1428 -91 1123 -41 
Q 819 9 494 109 
L 494 744 
Q 775 591 1075 516 
Q 1375 441 1709 441 
Q 2250 441 2565 725 
Q 2881 1009 2881 1497 
Q 2881 1984 2565 2268 
Q 2250 2553 1709 2553 
Q 1456 2553 1204 2497 
Q 953 2441 691 2322 
L 691 4666 
z
" transform="scale(0.015625)"/>
       </defs>
       <use xlink:href="#DejaVuSans-30"/>
       <use xlink:href="#DejaVuSans-2e" x="63.623047"/>
       <use xlink:href="#DejaVuSans-30" x="95.410156"/>
       <use xlink:href="#DejaVuSans-30" x="159.033203"/>
       <use xlink:href="#DejaVuSans-35" x="222.65625"/>
      </g>
     </g>
    </g>
    <g id="ytick_3">
     <g id="line2d_9">
      <g>
       <use xlink:href="#m36abe24255" x="56.50625" y="187.166518" style="stroke: #000000; stroke-width: 0.8"/>
      </g>
     </g>
     <g id="text_10">
      <!-- 0.010 -->
      <g transform="translate(20.878125 190.965737) scale(0.1 -0.1)">
       <use xlink:href="#DejaVuSans-30"/>
       <use xlink:href="#DejaVuSans-2e" x="63.623047"/>
       <use xlink:href="#DejaVuSans-30" x="95.410156"/>
       <use xlink:href="#DejaVuSans-31" x="159.033203"/>
       <use xlink:href="#DejaVuSans-30" x="222.65625"/>
      </g>
     </g>
    </g>
    <g id="ytick_4">
     <g id="line2d_10">
      <g>
       <use xlink:href="#m36abe24255" x="56.50625" y="149.43452" style="stroke: #000000; stroke-width: 0.8"/>
      </g>
     </g>
     <g id="text_11">
      <!-- 0.015 -->
      <g transform="translate(20.878125 153.233739) scale(0.1 -0.1)">
       <use xlink:href="#DejaVuSans-30"/>
       <use xlink:href="#DejaVuSans-2e" x="63.623047"/>
       <use xlink:href="#DejaVuSans-30" x="95.410156"/>
       <use xlink:href="#DejaVuSans-31" x="159.033203"/>
       <use xlink:href="#DejaVuSans-35" x="222.65625"/>
      </g>
     </g>
    </g>
    <g id="ytick_5">
     <g id="line2d_11">
      <g>
       <use xlink:href="#m36abe24255" x="56.50625" y="111.702523" style="stroke: #000000; stroke-width: 0.8"/>
      </g>
     </g>
     <g id="text_12">
      <!-- 0.020 -->
      <g transform="translate(20.878125 115.501741) scale(0.1 -0.1)">
       <use xlink:href="#DejaVuSans-30"/>
       <use xlink:href="#DejaVuSans-2e" x="63.623047"/>
       <use xlink:href="#DejaVuSans-30" x="95.410156"/>
       <use xlink:href="#DejaVuSans-32" x="159.033203"/>
       <use xlink:href="#DejaVuSans-30" x="222.65625"/>
      </g>
     </g>
    </g>
    <g id="ytick_6">
     <g id="line2d_12">
      <g>
       <use xlink:href="#m36abe24255" x="56.50625" y="73.970525" style="stroke: #000000; stroke-width: 0.8"/>
      </g>
     </g>
     <g id="text_13">
      <!-- 0.025 -->
      <g transform="translate(20.878125 77.769743) scale(0.1 -0.1)">
       <use xlink:href="#DejaVuSans-30"/>
       <use xlink:href="#DejaVuSans-2e" x="63.623047"/>
       <use xlink:href="#DejaVuSans-30" x="95.410156"/>
       <use xlink:href="#DejaVuSans-32" x="159.033203"/>
       <use xlink:href="#DejaVuSans-35" x="222.65625"/>
      </g>
     </g>
    </g>
    <g id="ytick_7">
     <g id="line2d_13">
      <g>
       <use xlink:href="#m36abe24255" x="56.50625" y="36.238527" style="stroke: #000000; stroke-width: 0.8"/>
      </g>
     </g>
     <g id="text_14">
      <!-- 0.030 -->
      <g transform="translate(20.878125 40.037746) scale(0.1 -0.1)">
       <defs>
        <path id="DejaVuSans-33" d="M 2597 2516 
Q 3050 2419 3304 2112 
Q 3559 1806 3559 1356 
Q 3559 666 3084 287 
Q 2609 -91 1734 -91 
Q 1441 -91 1130 -33 
Q 819 25 488 141 
L 488 750 
Q 750 597 1062 519 
Q 1375 441 1716 441 
Q 2309 441 2620 675 
Q 2931 909 2931 1356 
Q 2931 1769 2642 2001 
Q 2353 2234 1838 2234 
L 1294 2234 
L 1294 2753 
L 1863 2753 
Q 2328 2753 2575 2939 
Q 2822 3125 2822 3475 
Q 2822 3834 2567 4026 
Q 2313 4219 1838 4219 
Q 1578 4219 1281 4162 
Q 984 4106 628 3988 
L 628 4550 
Q 988 4650 1302 4700 
Q 1616 4750 1894 4750 
Q 2613 4750 3031 4423 
Q 3450 4097 3450 3541 
Q 3450 3153 3228 2886 
Q 3006 2619 2597 2516 
z
" transform="scale(0.015625)"/>
       </defs>
       <use xlink:href="#DejaVuSans-30"/>
       <use xlink:href="#DejaVuSans-2e" x="63.623047"/>
       <use xlink:href="#DejaVuSans-30" x="95.410156"/>
       <use xlink:href="#DejaVuSans-33" x="159.033203"/>
       <use xlink:href="#DejaVuSans-30" x="222.65625"/>
      </g>
     </g>
    </g>
    <g id="text_15">
     <!-- Frequency -->
     <g transform="translate(14.798437 181.203812) rotate(-90) scale(0.1 -0.1)">
      <defs>
       <path id="DejaVuSans-46" d="M 628 4666 
L 3309 4666 
L 3309 4134 
L 1259 4134 
L 1259 2759 
L 3109 2759 
L 3109 2228 
L 1259 2228 
L 1259 0 
L 628 0 
L 628 4666 
z
" transform="scale(0.015625)"/>
       <path id="DejaVuSans-72" d="M 2631 2963 
Q 2534 3019 2420 3045 
Q 2306 3072 2169 3072 
Q 1681 3072 1420 2755 
Q 1159 2438 1159 1844 
L 1159 0 
L 581 0 
L 581 3500 
L 1159 3500 
L 1159 2956 
Q 1341 3275 1631 3429 
Q 1922 3584 2338 3584 
Q 2397 3584 2469 3576 
Q 2541 3569 2628 3553 
L 2631 2963 
z
" transform="scale(0.015625)"/>
       <path id="DejaVuSans-71" d="M 947 1747 
Q 947 1113 1208 752 
Q 1469 391 1925 391 
Q 2381 391 2643 752 
Q 2906 1113 2906 1747 
Q 2906 2381 2643 2742 
Q 2381 3103 1925 3103 
Q 1469 3103 1208 2742 
Q 947 2381 947 1747 
z
M 2906 525 
Q 2725 213 2448 61 
Q 2172 -91 1784 -91 
Q 1150 -91 751 415 
Q 353 922 353 1747 
Q 353 2572 751 3078 
Q 1150 3584 1784 3584 
Q 2172 3584 2448 3432 
Q 2725 3281 2906 2969 
L 2906 3500 
L 3481 3500 
L 3481 -1331 
L 2906 -1331 
L 2906 525 
z
" transform="scale(0.015625)"/>
       <path id="DejaVuSans-6e" d="M 3513 2113 
L 3513 0 
L 2938 0 
L 2938 2094 
Q 2938 2591 2744 2837 
Q 2550 3084 2163 3084 
Q 1697 3084 1428 2787 
Q 1159 2491 1159 1978 
L 1159 0 
L 581 0 
L 581 3500 
L 1159 3500 
L 1159 2956 
Q 1366 3272 1645 3428 
Q 1925 3584 2291 3584 
Q 2894 3584 3203 3211 
Q 3513 2838 3513 2113 
z
" transform="scale(0.015625)"/>
       <path id="DejaVuSans-63" d="M 3122 3366 
L 3122 2828 
Q 2878 2963 2633 3030 
Q 2388 3097 2138 3097 
Q 1578 3097 1268 2742 
Q 959 2388 959 1747 
Q 959 1106 1268 751 
Q 1578 397 2138 397 
Q 2388 397 2633 464 
Q 2878 531 3122 666 
L 3122 134 
Q 2881 22 2623 -34 
Q 2366 -91 2075 -91 
Q 1284 -91 818 406 
Q 353 903 353 1747 
Q 353 2603 823 3093 
Q 1294 3584 2113 3584 
Q 2378 3584 2631 3529 
Q 2884 3475 3122 3366 
z
" transform="scale(0.015625)"/>
       <path id="DejaVuSans-79" d="M 2059 -325 
Q 1816 -950 1584 -1140 
Q 1353 -1331 966 -1331 
L 506 -1331 
L 506 -850 
L 844 -850 
Q 1081 -850 1212 -737 
Q 1344 -625 1503 -206 
L 1606 56 
L 191 3500 
L 800 3500 
L 1894 763 
L 2988 3500 
L 3597 3500 
L 2059 -325 
z
" transform="scale(0.015625)"/>
      </defs>
      <use xlink:href="#DejaVuSans-46"/>
      <use xlink:href="#DejaVuSans-72" x="50.269531"/>
      <use xlink:href="#DejaVuSans-65" x="89.132812"/>
      <use xlink:href="#DejaVuSans-71" x="150.65625"/>
      <use xlink:href="#DejaVuSans-75" x="214.132812"/>
      <use xlink:href="#DejaVuSans-65" x="277.511719"/>
      <use xlink:href="#DejaVuSans-6e" x="339.035156"/>
      <use xlink:href="#DejaVuSans-63" x="402.414062"/>
      <use xlink:href="#DejaVuSans-79" x="457.394531"/>
     </g>
    </g>
   </g>
   <g id="line2d_14">
    <path d="M 72.738977 260.21221 
L 75.633342 263.721235 
L 78.527707 265.051325 
L 81.422071 264.657181 
L 84.316436 262.966988 
L 87.2108 260.371086 
L 90.105165 257.214302 
L 92.99953 253.791359 
L 95.893894 250.344878 
L 98.788259 247.0655 
L 101.682624 244.093716 
L 104.576988 241.52305 
L 107.471353 239.404247 
L 110.365717 237.750195 
L 113.260082 236.541307 
L 116.154447 235.731161 
L 119.048811 235.2522 
L 121.943176 235.021321 
L 124.837541 234.945246 
L 127.731905 234.92553 
L 130.62627 234.863157 
L 133.520634 234.662623 
L 136.414999 234.235491 
L 139.309364 233.50336 
L 142.203728 232.400258 
L 145.098093 230.874439 
L 147.992458 228.88961 
L 150.886822 226.425595 
L 153.781187 223.478488 
L 156.675551 220.060305 
L 159.569916 216.198212 
L 162.464281 211.933352 
L 165.358645 207.319336 
L 168.25301 202.420464 
L 171.147375 197.309709 
L 174.041739 192.066554 
L 176.936104 186.77471 
L 179.830468 181.519801 
L 182.724833 176.387045 
L 185.619198 171.459003 
L 188.513562 166.813439 
L 191.407927 162.521332 
L 194.302292 158.645088 
L 197.196656 155.236984 
L 200.091021 152.337876 
L 202.985385 149.976199 
L 205.87975 148.167267 
L 208.774115 146.912906 
L 211.668479 146.201405 
L 214.562844 262.61243 
L 217.457209 262.611589 
L 220.351573 147.67303 
L 223.245938 148.568919 
L 226.140302 149.738928 
L 229.034667 151.117333 
L 231.929032 152.634187 
L 234.823396 154.216933 
L 237.717761 155.792099 
L 240.612126 157.287039 
L 243.50649 158.631699 
L 246.400855 159.760368 
L 249.295219 160.613388 
L 252.189584 161.138783 
L 255.083949 161.293786 
L 257.978313 161.046216 
L 260.872678 160.375691 
L 263.767043 159.274631 
L 266.661407 157.749034 
L 269.555772 155.818987 
L 272.450137 153.5189 
L 275.344501 150.89743 
L 278.238866 148.017085 
L 281.13323 144.953485 
L 284.027595 141.794282 
L 286.92196 138.637718 
L 289.816324 135.590837 
L 292.710689 132.767346 
L 295.605054 130.285143 
L 298.499418 128.263522 
L 301.393783 126.820108 
L 304.288147 126.067515 
L 307.182512 126.109822 
L 310.076877 127.038873 
L 312.971241 128.930507 
L 315.865606 131.840757 
L 318.759971 135.802139 
L 321.654335 140.820101 
L 324.5487 146.869762 
L 327.443064 153.893068 
L 330.337429 161.796489 
L 333.231794 170.449434 
L 336.126158 179.683541 
L 339.020523 189.293046 
L 341.914888 199.036415 
L 344.809252 208.639493 
L 347.703617 217.800394 
L 350.597981 226.196403 
L 353.492346 233.493184 
L 356.386711 239.356591 
L 359.281075 243.467424 
" clip-path="url(#p52add2d082)" style="fill: none; stroke: #1f77b4; stroke-width: 1.5; stroke-linecap: square"/>
   </g>
   <g id="line2d_15">
    <path d="M 72.738977 272.235868 
L 75.761305 261.451024 
L 78.783633 256.475484 
L 81.805961 255.306263 
L 84.828289 256.418939 
L 87.850617 258.684416 
L 90.872945 261.296294 
L 93.895273 263.707869 
L 96.917601 265.577856 
L 99.939929 266.72399 
L 102.962257 267.083698 
L 105.984585 266.681117 
L 109.006913 265.599754 
L 112.029241 263.960149 
L 115.051569 261.901955 
L 118.073897 259.569876 
L 121.096225 257.102963 
L 124.118552 254.626806 
L 127.14088 252.248185 
L 130.163208 250.051804 
L 133.185536 248.098756 
L 136.207864 246.426388 
L 139.230192 245.049297 
L 142.25252 243.961184 
L 145.274848 243.137352 
L 148.297176 242.537641 
L 151.319504 242.10963 
L 154.341832 241.791944 
L 157.36416 241.517558 
L 160.386488 241.216961 
L 163.408816 240.821125 
L 166.431144 240.264179 
L 169.453472 239.485751 
L 172.4758 238.432936 
L 175.498128 237.061857 
L 178.520456 235.33882 
L 181.542784 233.241053 
L 184.565112 230.757033 
L 187.587439 227.886436 
L 190.609767 224.639715 
L 193.632095 221.037357 
L 196.654423 217.10884 
L 199.676751 212.891352 
L 202.699079 208.428292 
L 205.721407 203.767634 
L 208.743735 198.960173 
L 211.766063 194.05773 
L 214.788391 189.11135 
L 217.810719 184.16955 
L 220.833047 262.614681 
L 223.855375 262.61467 
L 226.877703 168.485727 
L 229.900031 164.180768 
L 232.922359 160.092798 
L 235.944687 156.212718 
L 238.967015 152.519281 
L 241.989343 148.979943 
L 245.011671 145.552174 
L 248.033999 142.18519 
L 251.056326 138.822089 
L 254.078654 135.402342 
L 257.100982 131.864586 
L 260.12331 128.149654 
L 263.145638 124.20378 
L 266.167966 119.981887 
L 269.190294 115.450876 
L 272.212622 110.592821 
L 275.23495 105.407969 
L 278.257278 99.917447 
L 281.279606 94.165553 
L 284.301934 88.221541 
L 287.324262 82.180781 
L 290.34659 76.165191 
L 293.368918 70.32283 
L 296.391246 64.826573 
L 299.413574 59.87176 
L 302.435902 55.672747 
L 305.45823 52.458299 
L 308.480558 50.465757 
L 311.502886 49.933969 
L 314.525213 51.094941 
L 317.547541 54.164244 
L 320.569869 59.330199 
L 323.592197 66.741905 
L 326.614525 76.496209 
L 329.636853 88.623754 
L 332.659181 103.074271 
L 335.681509 119.701339 
L 338.703837 138.246862 
L 341.726165 158.325591 
L 344.748493 179.410044 
L 347.770821 200.816265 
L 350.793149 221.690892 
L 353.815477 241.000111 
L 356.837805 257.521105 
L 359.860133 269.836722 
L 362.882461 276.334125 
L 365.904789 275.208316 
L 368.927117 264.471491 
L 371.949445 241.969276 
" clip-path="url(#p52add2d082)" style="fill: none; stroke: #ff7f0e; stroke-width: 1.5; stroke-linecap: square"/>
   </g>
   <g id="line2d_16">
    <path d="M 72.738977 263.466403 
L 75.76117 261.934818 
L 78.783363 261.619691 
L 81.805556 261.942389 
L 84.827749 262.509327 
L 87.849942 263.069714 
L 90.872135 263.480179 
L 93.894327 263.675496 
L 96.91652 263.644676 
L 99.938713 263.411758 
L 102.960906 263.020671 
L 105.983099 262.523626 
L 109.005292 261.972507 
L 112.027485 261.412803 
L 115.049678 260.879666 
L 118.071871 260.395703 
L 121.094063 259.970183 
L 124.116256 259.599338 
L 127.138449 259.267509 
L 130.160642 258.948894 
L 133.182835 258.609704 
L 136.205028 258.210543 
L 139.227221 257.708879 
L 142.249414 257.06147 
L 145.271607 256.226653 
L 148.293799 255.166416 
L 151.315992 253.848188 
L 154.338185 252.24631 
L 157.360378 250.343156 
L 160.382571 248.129885 
L 163.404764 245.60683 
L 166.426957 242.78353 
L 169.44915 239.678421 
L 172.471343 236.318208 
L 175.493535 232.736965 
L 178.515728 228.974979 
L 181.537921 225.077403 
L 184.560114 221.092743 
L 187.582307 217.071239 
L 190.6045 213.063182 
L 193.626693 209.117213 
L 196.648886 205.278661 
L 199.671079 201.587953 
L 202.693271 198.079146 
L 205.715464 194.77862 
L 208.737657 191.703972 
L 211.75985 188.863132 
L 214.782043 186.253743 
L 217.804236 183.862816 
L 220.826429 262.615998 
L 223.848622 262.615211 
L 226.870815 177.469522 
L 229.893007 175.687395 
L 232.9152 173.918886 
L 235.937393 172.093187 
L 238.959586 170.134557 
L 241.981779 167.964511 
L 245.003972 165.504236 
L 248.026165 162.677193 
L 251.048358 159.411864 
L 254.070551 155.64457 
L 257.092743 151.322309 
L 260.114936 146.405554 
L 263.137129 140.870922 
L 266.159322 134.713667 
L 269.181515 127.949897 
L 272.203708 120.618458 
L 275.225901 112.782397 
L 278.248094 104.529938 
L 281.270286 95.974893 
L 284.292479 87.25644 
L 287.314672 78.538208 
L 290.336865 70.006602 
L 293.359058 61.868334 
L 296.381251 54.347108 
L 299.403444 47.679433 
L 302.425637 42.109555 
L 305.44783 37.883502 
L 308.470022 35.24226 
L 311.492215 34.414125 
L 314.514408 35.606272 
L 317.536601 38.995641 
L 320.558794 44.719231 
L 323.580987 52.863947 
L 326.60318 63.456168 
L 329.625373 76.451218 
L 332.647566 91.722996 
L 335.669758 109.054026 
L 338.691951 128.126243 
L 341.714144 148.512877 
L 344.736337 169.671836 
L 347.75853 190.941048 
L 350.780723 211.536272 
L 353.802916 230.551939 
L 356.825109 246.965649 
L 359.847302 259.647023 
L 362.869494 267.371651 
L 365.891687 268.840971 
L 368.91388 262.708971 
L 371.936073 247.616705 
" clip-path="url(#p52add2d082)" style="fill: none; stroke: #2ca02c; stroke-width: 1.5; stroke-linecap: square"/>
   </g>
   <g id="line2d_17">
    <path d="M 72.738977 264.79021 
L 76.018316 261.035116 
L 79.297655 259.477562 
L 82.576994 258.895916 
L 85.856333 258.433609 
L 89.135671 257.524401 
L 92.41501 255.828772 
L 95.694349 253.180249 
L 98.973688 249.540541 
L 102.253027 244.962479 
L 105.532366 239.559781 
L 108.811705 233.482821 
L 112.091043 226.899563 
L 115.370382 219.980972 
L 118.649721 212.890228 
L 121.92906 205.775158 
L 125.208399 198.76334 
L 128.487738 191.959413 
L 131.767076 185.444157 
L 135.046415 179.274963 
L 138.325754 173.487373 
L 141.605093 168.097374 
L 144.884432 163.104228 
L 148.163771 158.493593 
L 151.44311 154.240771 
L 154.722448 150.313932 
L 158.001787 146.67718 
L 161.281126 143.29338 
L 164.560465 140.126668 
L 167.839804 137.144586 
L 171.119143 134.319817 
L 174.398481 131.631501 
L 177.67782 129.066125 
L 180.957159 126.618012 
L 184.236498 124.289407 
L 187.515837 122.09022 
L 190.795176 120.037429 
L 194.074514 118.15422 
L 197.353853 116.468886 
L 200.633192 115.013549 
L 203.912531 113.822749 
L 207.19187 112.931956 
L 210.471209 112.376058 
L 213.750548 112.187863 
L 217.029886 112.396677 
L 220.309225 113.02699 
L 223.588564 114.09731 
L 226.867903 115.619182 
L 230.147242 117.59642 
L 233.426581 262.606697 
L 236.705919 262.605795 
L 239.985258 128.33409 
L 243.264597 131.079059 
L 246.543936 134.089076 
L 249.823275 137.366171 
L 253.102614 140.909408 
L 256.381952 144.71397 
L 259.661291 148.770302 
L 262.94063 153.063338 
L 266.219969 157.571866 
L 269.499308 162.268063 
L 272.778647 167.117251 
L 276.057986 172.077895 
L 279.337324 177.101892 
L 282.616663 182.13518 
L 285.896002 187.118675 
L 289.175341 191.989573 
L 292.45468 196.682995 
L 295.734019 201.134003 
L 299.013357 205.279934 
L 302.292696 209.063038 
L 305.572035 212.433358 
L 308.851374 215.351796 
L 312.130713 217.793239 
L 315.410052 219.749674 
L 318.68939 221.2331 
L 321.968729 222.278104 
L 325.248068 222.943866 
L 328.527407 223.315376 
L 331.806746 223.503573 
L 335.086085 223.644092 
L 338.365424 223.894259 
L 341.644762 224.427933 
L 344.924101 225.427725 
L 348.20344 227.074096 
L 351.482779 229.530767 
L 354.762118 232.925802 
L 358.041457 237.327692 
L 361.320795 242.715671 
L 364.600134 248.943432 
L 367.879473 255.695355 
L 371.158812 262.434241 
L 374.438151 268.339506 
L 377.71749 272.234668 
L 380.996829 272.502883 
L 384.276167 266.989193 
L 387.555506 252.888035 
L 390.834845 226.614461 
L 394.114184 183.657419 
L 397.393523 118.413314 
" clip-path="url(#p52add2d082)" style="fill: none; stroke: #d62728; stroke-width: 1.5; stroke-linecap: square"/>
   </g>
   <g id="line2d_18">
    <path d="M 72.738977 267.180555 
L 75.82328 259.762093 
L 78.907582 256.230561 
L 81.991885 254.963485 
L 85.076187 254.809763 
L 88.16049 254.990661 
L 91.244792 255.015933 
L 94.329095 254.613429 
L 97.413397 253.670618 
L 100.4977 252.186638 
L 103.582002 250.233554 
L 106.666305 247.925624 
L 109.750607 245.395499 
L 112.83491 242.776348 
L 115.919212 240.189019 
L 119.003515 237.733415 
L 122.087817 235.483357 
L 125.17212 233.48428 
L 128.256422 231.753188 
L 131.340725 230.280339 
L 134.425027 229.032229 
L 137.50933 227.95547 
L 140.593632 226.981227 
L 143.677935 226.029943 
L 146.762237 225.016093 
L 149.84654 223.85278 
L 152.930842 222.456016 
L 156.015145 220.748567 
L 159.099447 218.663262 
L 162.18375 216.14572 
L 165.268052 213.15644 
L 168.352355 209.672263 
L 171.436657 205.68719 
L 174.52096 201.212589 
L 177.605262 196.276835 
L 180.689565 190.924415 
L 183.773867 185.214569 
L 186.85817 179.219531 
L 189.942472 173.022438 
L 193.026775 166.714977 
L 196.111077 160.394853 
L 199.19538 154.163153 
L 202.279682 148.121674 
L 205.363985 142.370282 
L 208.448287 137.004391 
L 211.53259 132.11259 
L 214.616892 127.774496 
L 217.701195 124.05888 
L 220.785497 121.022091 
L 223.8698 262.609981 
L 226.954102 262.609338 
L 230.038405 117.084564 
L 233.122707 116.613056 
L 236.20701 116.859894 
L 239.291312 117.814982 
L 242.375615 119.455804 
L 245.459917 121.747787 
L 248.54422 124.644894 
L 251.628522 128.090444 
L 254.712825 132.018134 
L 257.797127 136.353249 
L 260.88143 141.014034 
L 263.965732 145.913201 
L 267.050034 150.959537 
L 270.134337 156.059596 
L 273.218639 161.11942 
L 276.302942 166.046283 
L 279.387244 170.750399 
L 282.471547 175.146583 
L 285.555849 179.155818 
L 288.640152 182.706713 
L 291.724454 185.736821 
L 294.808757 188.193799 
L 297.893059 190.0364 
L 300.977362 191.235284 
L 304.061664 191.773653 
L 307.145967 191.647726 
L 310.230269 190.867064 
L 313.314572 189.454793 
L 316.398874 187.447764 
L 319.483177 184.896708 
L 322.567479 181.866489 
L 325.651782 178.436518 
L 328.736084 174.701482 
L 331.820387 170.772503 
L 334.904689 166.778907 
L 337.988992 162.870779 
L 341.073294 159.222538 
L 344.157597 156.037764 
L 347.241899 153.555571 
L 350.326202 152.058823 
L 353.410504 151.884556 
L 356.494807 153.436987 
L 359.579109 157.20354 
L 362.663412 163.774359 
L 365.747714 173.865832 
L 368.832017 188.348678 
L 371.916319 208.281226 
L 375.000622 234.948552 
L 378.084924 269.908194 
" clip-path="url(#p52add2d082)" style="fill: none; stroke: #9467bd; stroke-width: 1.5; stroke-linecap: square"/>
   </g>
   <g id="line2d_19">
    <path d="M 72.738977 260.416157 
L 75.721383 262.678794 
L 78.703789 263.785477 
L 81.686194 264.114232 
L 84.6686 263.954807 
L 87.651005 263.522518 
L 90.633411 262.970665 
L 93.615817 262.401628 
L 96.598222 261.876702 
L 99.580628 261.424766 
L 102.563034 261.049865 
L 105.545439 260.737784 
L 108.527845 260.461679 
L 111.510251 260.186851 
L 114.492656 259.874729 
L 117.475062 259.486132 
L 120.457467 258.983869 
L 123.439873 258.334754 
L 126.422279 257.511084 
L 129.404684 256.491649 
L 132.38709 255.262322 
L 135.369496 253.816289 
L 138.351901 252.153963 
L 141.334307 250.282637 
L 144.316713 248.215916 
L 147.299118 245.972971 
L 150.281524 243.57766 
L 153.26393 241.057548 
L 156.246335 238.442856 
L 159.228741 235.765386 
L 162.211146 233.057436 
L 165.193552 230.350731 
L 168.175958 227.675412 
L 171.158363 225.05908 
L 174.140769 222.525925 
L 177.123175 220.095963 
L 180.10558 217.784379 
L 183.087986 215.600994 
L 186.070392 213.54987 
L 189.052797 211.629047 
L 192.035203 209.830429 
L 195.017608 208.139805 
L 198.000014 206.537021 
L 200.98242 204.996292 
L 203.964825 203.486644 
L 206.947231 201.972488 
L 209.929637 200.414321 
L 212.912042 198.769528 
L 215.894448 196.993293 
L 218.876854 262.614319 
L 221.859259 262.6133 
L 224.841665 190.584564 
L 227.82407 187.823816 
L 230.806476 184.702929 
L 233.788882 181.187325 
L 236.771287 177.248495 
L 239.753693 172.865096 
L 242.736099 168.023981 
L 245.718504 162.721132 
L 248.70091 156.9625 
L 251.683316 150.76471 
L 254.665721 144.15564 
L 257.648127 137.174834 
L 260.630533 129.87375 
L 263.612938 122.315827 
L 266.595344 114.576346 
L 269.577749 106.742091 
L 272.560155 98.910786 
L 275.542561 91.190304 
L 278.524966 83.697643 
L 281.507372 76.557654 
L 284.489778 69.901525 
L 287.472183 63.865021 
L 290.454589 58.58646 
L 293.436995 54.204455 
L 296.4194 50.855397 
L 299.401806 48.6707 
L 302.384211 47.773812 
L 305.366617 48.276996 
L 308.349023 50.277898 
L 311.331428 53.855908 
L 314.313834 59.068338 
L 317.29624 65.94643 
L 320.278645 74.491207 
L 323.261051 84.669207 
L 326.243457 96.408102 
L 329.225862 109.592252 
L 332.208268 124.058198 
L 335.190673 139.590154 
L 338.173079 155.915505 
L 341.155485 172.700364 
L 344.13789 189.545226 
L 347.120296 205.980745 
L 350.102702 221.463705 
L 353.085107 235.3732 
L 356.067513 247.007092 
L 359.049919 255.578796 
L 362.032324 260.21443 
L 365.01473 259.950406 
L 367.997136 253.7315 
" clip-path="url(#p52add2d082)" style="fill: none; stroke: #8c564b; stroke-width: 1.5; stroke-linecap: square"/>
   </g>
   <g id="patch_3">
    <path d="M 56.50625 288.430125 
L 56.50625 22.318125 
" style="fill: none; stroke: #000000; stroke-width: 0.8; stroke-linejoin: miter; stroke-linecap: square"/>
   </g>
   <g id="patch_4">
    <path d="M 413.62625 288.430125 
L 413.62625 22.318125 
" style="fill: none; stroke: #000000; stroke-width: 0.8; stroke-linejoin: miter; stroke-linecap: square"/>
   </g>
   <g id="patch_5">
    <path d="M 56.50625 288.430125 
L 413.62625 288.430125 
" style="fill: none; stroke: #000000; stroke-width: 0.8; stroke-linejoin: miter; stroke-linecap: square"/>
   </g>
   <g id="patch_6">
    <path d="M 56.50625 22.318125 
L 413.62625 22.318125 
" style="fill: none; stroke: #000000; stroke-width: 0.8; stroke-linejoin: miter; stroke-linecap: square"/>
   </g>
   <g id="text_16">
    <!-- FA - Cortico_Ponto_Cerebellum_Right -->
    <g transform="translate(124.679375 16.318125) scale(0.12 -0.12)">
     <defs>
      <path id="DejaVuSans-41" d="M 2188 4044 
L 1331 1722 
L 3047 1722 
L 2188 4044 
z
M 1831 4666 
L 2547 4666 
L 4325 0 
L 3669 0 
L 3244 1197 
L 1141 1197 
L 716 0 
L 50 0 
L 1831 4666 
z
" transform="scale(0.015625)"/>
      <path id="DejaVuSans-2d" d="M 313 2009 
L 1997 2009 
L 1997 1497 
L 313 1497 
L 313 2009 
z
" transform="scale(0.015625)"/>
      <path id="DejaVuSans-43" d="M 4122 4306 
L 4122 3641 
Q 3803 3938 3442 4084 
Q 3081 4231 2675 4231 
Q 1875 4231 1450 3742 
Q 1025 3253 1025 2328 
Q 1025 1406 1450 917 
Q 1875 428 2675 428 
Q 3081 428 3442 575 
Q 3803 722 4122 1019 
L 4122 359 
Q 3791 134 3420 21 
Q 3050 -91 2638 -91 
Q 1578 -91 968 557 
Q 359 1206 359 2328 
Q 359 3453 968 4101 
Q 1578 4750 2638 4750 
Q 3056 4750 3426 4639 
Q 3797 4528 4122 4306 
z
" transform="scale(0.015625)"/>
      <path id="DejaVuSans-6f" d="M 1959 3097 
Q 1497 3097 1228 2736 
Q 959 2375 959 1747 
Q 959 1119 1226 758 
Q 1494 397 1959 397 
Q 2419 397 2687 759 
Q 2956 1122 2956 1747 
Q 2956 2369 2687 2733 
Q 2419 3097 1959 3097 
z
M 1959 3584 
Q 2709 3584 3137 3096 
Q 3566 2609 3566 1747 
Q 3566 888 3137 398 
Q 2709 -91 1959 -91 
Q 1206 -91 779 398 
Q 353 888 353 1747 
Q 353 2609 779 3096 
Q 1206 3584 1959 3584 
z
" transform="scale(0.015625)"/>
      <path id="DejaVuSans-74" d="M 1172 4494 
L 1172 3500 
L 2356 3500 
L 2356 3053 
L 1172 3053 
L 1172 1153 
Q 1172 725 1289 603 
Q 1406 481 1766 481 
L 2356 481 
L 2356 0 
L 1766 0 
Q 1100 0 847 248 
Q 594 497 594 1153 
L 594 3053 
L 172 3053 
L 172 3500 
L 594 3500 
L 594 4494 
L 1172 4494 
z
" transform="scale(0.015625)"/>
      <path id="DejaVuSans-5f" d="M 3263 -1063 
L 3263 -1509 
L -63 -1509 
L -63 -1063 
L 3263 -1063 
z
" transform="scale(0.015625)"/>
      <path id="DejaVuSans-62" d="M 3116 1747 
Q 3116 2381 2855 2742 
Q 2594 3103 2138 3103 
Q 1681 3103 1420 2742 
Q 1159 2381 1159 1747 
Q 1159 1113 1420 752 
Q 1681 391 2138 391 
Q 2594 391 2855 752 
Q 3116 1113 3116 1747 
z
M 1159 2969 
Q 1341 3281 1617 3432 
Q 1894 3584 2278 3584 
Q 2916 3584 3314 3078 
Q 3713 2572 3713 1747 
Q 3713 922 3314 415 
Q 2916 -91 2278 -91 
Q 1894 -91 1617 61 
Q 1341 213 1159 525 
L 1159 0 
L 581 0 
L 581 4863 
L 1159 4863 
L 1159 2969 
z
" transform="scale(0.015625)"/>
      <path id="DejaVuSans-6d" d="M 3328 2828 
Q 3544 3216 3844 3400 
Q 4144 3584 4550 3584 
Q 5097 3584 5394 3201 
Q 5691 2819 5691 2113 
L 5691 0 
L 5113 0 
L 5113 2094 
Q 5113 2597 4934 2840 
Q 4756 3084 4391 3084 
Q 3944 3084 3684 2787 
Q 3425 2491 3425 1978 
L 3425 0 
L 2847 0 
L 2847 2094 
Q 2847 2600 2669 2842 
Q 2491 3084 2119 3084 
Q 1678 3084 1418 2786 
Q 1159 2488 1159 1978 
L 1159 0 
L 581 0 
L 581 3500 
L 1159 3500 
L 1159 2956 
Q 1356 3278 1631 3431 
Q 1906 3584 2284 3584 
Q 2666 3584 2933 3390 
Q 3200 3197 3328 2828 
z
" transform="scale(0.015625)"/>
      <path id="DejaVuSans-52" d="M 2841 2188 
Q 3044 2119 3236 1894 
Q 3428 1669 3622 1275 
L 4263 0 
L 3584 0 
L 2988 1197 
Q 2756 1666 2539 1819 
Q 2322 1972 1947 1972 
L 1259 1972 
L 1259 0 
L 628 0 
L 628 4666 
L 2053 4666 
Q 2853 4666 3247 4331 
Q 3641 3997 3641 3322 
Q 3641 2881 3436 2590 
Q 3231 2300 2841 2188 
z
M 1259 4147 
L 1259 2491 
L 2053 2491 
Q 2509 2491 2742 2702 
Q 2975 2913 2975 3322 
Q 2975 3731 2742 3939 
Q 2509 4147 2053 4147 
L 1259 4147 
z
" transform="scale(0.015625)"/>
      <path id="DejaVuSans-67" d="M 2906 1791 
Q 2906 2416 2648 2759 
Q 2391 3103 1925 3103 
Q 1463 3103 1205 2759 
Q 947 2416 947 1791 
Q 947 1169 1205 825 
Q 1463 481 1925 481 
Q 2391 481 2648 825 
Q 2906 1169 2906 1791 
z
M 3481 434 
Q 3481 -459 3084 -895 
Q 2688 -1331 1869 -1331 
Q 1566 -1331 1297 -1286 
Q 1028 -1241 775 -1147 
L 775 -588 
Q 1028 -725 1275 -790 
Q 1522 -856 1778 -856 
Q 2344 -856 2625 -561 
Q 2906 -266 2906 331 
L 2906 616 
Q 2728 306 2450 153 
Q 2172 0 1784 0 
Q 1141 0 747 490 
Q 353 981 353 1791 
Q 353 2603 747 3093 
Q 1141 3584 1784 3584 
Q 2172 3584 2450 3431 
Q 2728 3278 2906 2969 
L 2906 3500 
L 3481 3500 
L 3481 434 
z
" transform="scale(0.015625)"/>
      <path id="DejaVuSans-68" d="M 3513 2113 
L 3513 0 
L 2938 0 
L 2938 2094 
Q 2938 2591 2744 2837 
Q 2550 3084 2163 3084 
Q 1697 3084 1428 2787 
Q 1159 2491 1159 1978 
L 1159 0 
L 581 0 
L 581 4863 
L 1159 4863 
L 1159 2956 
Q 1366 3272 1645 3428 
Q 1925 3584 2291 3584 
Q 2894 3584 3203 3211 
Q 3513 2838 3513 2113 
z
" transform="scale(0.015625)"/>
     </defs>
     <use xlink:href="#DejaVuSans-46"/>
     <use xlink:href="#DejaVuSans-41" x="48.394531"/>
     <use xlink:href="#DejaVuSans-20" x="116.802734"/>
     <use xlink:href="#DejaVuSans-2d" x="148.589844"/>
     <use xlink:href="#DejaVuSans-20" x="184.673828"/>
     <use xlink:href="#DejaVuSans-43" x="216.460938"/>
     <use xlink:href="#DejaVuSans-6f" x="286.285156"/>
     <use xlink:href="#DejaVuSans-72" x="347.466797"/>
     <use xlink:href="#DejaVuSans-74" x="388.580078"/>
     <use xlink:href="#DejaVuSans-69" x="427.789062"/>
     <use xlink:href="#DejaVuSans-63" x="455.572266"/>
     <use xlink:href="#DejaVuSans-6f" x="510.552734"/>
     <use xlink:href="#DejaVuSans-5f" x="571.734375"/>
     <use xlink:href="#DejaVuSans-50" x="621.734375"/>
     <use xlink:href="#DejaVuSans-6f" x="678.412109"/>
     <use xlink:href="#DejaVuSans-6e" x="739.59375"/>
     <use xlink:href="#DejaVuSans-74" x="802.972656"/>
     <use xlink:href="#DejaVuSans-6f" x="842.181641"/>
     <use xlink:href="#DejaVuSans-5f" x="903.363281"/>
     <use xlink:href="#DejaVuSans-43" x="953.363281"/>
     <use xlink:href="#DejaVuSans-65" x="1023.1875"/>
     <use xlink:href="#DejaVuSans-72" x="1084.710938"/>
     <use xlink:href="#DejaVuSans-65" x="1123.574219"/>
     <use xlink:href="#DejaVuSans-62" x="1185.097656"/>
     <use xlink:href="#DejaVuSans-65" x="1248.574219"/>
     <use xlink:href="#DejaVuSans-6c" x="1310.097656"/>
     <use xlink:href="#DejaVuSans-6c" x="1337.880859"/>
     <use xlink:href="#DejaVuSans-75" x="1365.664062"/>
     <use xlink:href="#DejaVuSans-6d" x="1429.042969"/>
     <use xlink:href="#DejaVuSans-5f" x="1526.455078"/>
     <use xlink:href="#DejaVuSans-52" x="1576.455078"/>
     <use xlink:href="#DejaVuSans-69" x="1645.9375"/>
     <use xlink:href="#DejaVuSans-67" x="1673.720703"/>
     <use xlink:href="#DejaVuSans-68" x="1737.197266"/>
     <use xlink:href="#DejaVuSans-74" x="1800.576172"/>
    </g>
   </g>
   <g id="legend_1">
    <g id="patch_7">
     <path d="M 456.33825 146.666825 
L 554.1945 146.666825 
Q 556.1945 146.666825 556.1945 144.666825 
L 556.1945 55.929325 
Q 556.1945 53.929325 554.1945 53.929325 
L 456.33825 53.929325 
Q 454.33825 53.929325 454.33825 55.929325 
L 454.33825 144.666825 
Q 454.33825 146.666825 456.33825 146.666825 
z
" style="fill: #ffffff; opacity: 0.8; stroke: #cccccc; stroke-linejoin: miter"/>
    </g>
    <g id="line2d_20">
     <path d="M 458.33825 62.027762 
L 468.33825 62.027762 
L 478.33825 62.027762 
" style="fill: none; stroke: #1f77b4; stroke-width: 1.5; stroke-linecap: square"/>
    </g>
    <g id="text_17">
     <!-- 20_06_02_E3 -->
     <g transform="translate(486.33825 65.527762) scale(0.1 -0.1)">
      <defs>
       <path id="DejaVuSans-45" d="M 628 4666 
L 3578 4666 
L 3578 4134 
L 1259 4134 
L 1259 2753 
L 3481 2753 
L 3481 2222 
L 1259 2222 
L 1259 531 
L 3634 531 
L 3634 0 
L 628 0 
L 628 4666 
z
" transform="scale(0.015625)"/>
      </defs>
      <use xlink:href="#DejaVuSans-32"/>
      <use xlink:href="#DejaVuSans-30" x="63.623047"/>
      <use xlink:href="#DejaVuSans-5f" x="127.246094"/>
      <use xlink:href="#DejaVuSans-30" x="177.246094"/>
      <use xlink:href="#DejaVuSans-36" x="240.869141"/>
      <use xlink:href="#DejaVuSans-5f" x="304.492188"/>
      <use xlink:href="#DejaVuSans-30" x="354.492188"/>
      <use xlink:href="#DejaVuSans-32" x="418.115234"/>
      <use xlink:href="#DejaVuSans-5f" x="481.738281"/>
      <use xlink:href="#DejaVuSans-45" x="531.738281"/>
      <use xlink:href="#DejaVuSans-33" x="594.921875"/>
     </g>
    </g>
    <g id="line2d_21">
     <path d="M 458.33825 76.984013 
L 468.33825 76.984013 
L 478.33825 76.984013 
" style="fill: none; stroke: #ff7f0e; stroke-width: 1.5; stroke-linecap: square"/>
    </g>
    <g id="text_18">
     <!-- 20_05_01_E3 -->
     <g transform="translate(486.33825 80.484013) scale(0.1 -0.1)">
      <use xlink:href="#DejaVuSans-32"/>
      <use xlink:href="#DejaVuSans-30" x="63.623047"/>
      <use xlink:href="#DejaVuSans-5f" x="127.246094"/>
      <use xlink:href="#DejaVuSans-30" x="177.246094"/>
      <use xlink:href="#DejaVuSans-35" x="240.869141"/>
      <use xlink:href="#DejaVuSans-5f" x="304.492188"/>
      <use xlink:href="#DejaVuSans-30" x="354.492188"/>
      <use xlink:href="#DejaVuSans-31" x="418.115234"/>
      <use xlink:href="#DejaVuSans-5f" x="481.738281"/>
      <use xlink:href="#DejaVuSans-45" x="531.738281"/>
      <use xlink:href="#DejaVuSans-33" x="594.921875"/>
     </g>
    </g>
    <g id="line2d_22">
     <path d="M 458.33825 91.940262 
L 468.33825 91.940262 
L 478.33825 91.940262 
" style="fill: none; stroke: #2ca02c; stroke-width: 1.5; stroke-linecap: square"/>
    </g>
    <g id="text_19">
     <!-- 20_02_02_E3 -->
     <g transform="translate(486.33825 95.440262) scale(0.1 -0.1)">
      <use xlink:href="#DejaVuSans-32"/>
      <use xlink:href="#DejaVuSans-30" x="63.623047"/>
      <use xlink:href="#DejaVuSans-5f" x="127.246094"/>
      <use xlink:href="#DejaVuSans-30" x="177.246094"/>
      <use xlink:href="#DejaVuSans-32" x="240.869141"/>
      <use xlink:href="#DejaVuSans-5f" x="304.492188"/>
      <use xlink:href="#DejaVuSans-30" x="354.492188"/>
      <use xlink:href="#DejaVuSans-32" x="418.115234"/>
      <use xlink:href="#DejaVuSans-5f" x="481.738281"/>
      <use xlink:href="#DejaVuSans-45" x="531.738281"/>
      <use xlink:href="#DejaVuSans-33" x="594.921875"/>
     </g>
    </g>
    <g id="line2d_23">
     <path d="M 458.33825 106.896513 
L 468.33825 106.896513 
L 478.33825 106.896513 
" style="fill: none; stroke: #d62728; stroke-width: 1.5; stroke-linecap: square"/>
    </g>
    <g id="text_20">
     <!-- 20_10_02_E3 -->
     <g transform="translate(486.33825 110.396513) scale(0.1 -0.1)">
      <use xlink:href="#DejaVuSans-32"/>
      <use xlink:href="#DejaVuSans-30" x="63.623047"/>
      <use xlink:href="#DejaVuSans-5f" x="127.246094"/>
      <use xlink:href="#DejaVuSans-31" x="177.246094"/>
      <use xlink:href="#DejaVuSans-30" x="240.869141"/>
      <use xlink:href="#DejaVuSans-5f" x="304.492188"/>
      <use xlink:href="#DejaVuSans-30" x="354.492188"/>
      <use xlink:href="#DejaVuSans-32" x="418.115234"/>
      <use xlink:href="#DejaVuSans-5f" x="481.738281"/>
      <use xlink:href="#DejaVuSans-45" x="531.738281"/>
      <use xlink:href="#DejaVuSans-33" x="594.921875"/>
     </g>
    </g>
    <g id="line2d_24">
     <path d="M 458.33825 121.852762 
L 468.33825 121.852762 
L 478.33825 121.852762 
" style="fill: none; stroke: #9467bd; stroke-width: 1.5; stroke-linecap: square"/>
    </g>
    <g id="text_21">
     <!-- 20_08_02_E3 -->
     <g transform="translate(486.33825 125.352762) scale(0.1 -0.1)">
      <use xlink:href="#DejaVuSans-32"/>
      <use xlink:href="#DejaVuSans-30" x="63.623047"/>
      <use xlink:href="#DejaVuSans-5f" x="127.246094"/>
      <use xlink:href="#DejaVuSans-30" x="177.246094"/>
      <use xlink:href="#DejaVuSans-38" x="240.869141"/>
      <use xlink:href="#DejaVuSans-5f" x="304.492188"/>
      <use xlink:href="#DejaVuSans-30" x="354.492188"/>
      <use xlink:href="#DejaVuSans-32" x="418.115234"/>
      <use xlink:href="#DejaVuSans-5f" x="481.738281"/>
      <use xlink:href="#DejaVuSans-45" x="531.738281"/>
      <use xlink:href="#DejaVuSans-33" x="594.921875"/>
     </g>
    </g>
    <g id="line2d_25">
     <path d="M 458.33825 136.809012 
L 468.33825 136.809012 
L 478.33825 136.809012 
" style="fill: none; stroke: #8c564b; stroke-width: 1.5; stroke-linecap: square"/>
    </g>
    <g id="text_22">
     <!-- 20_11_02_E3 -->
     <g transform="translate(486.33825 140.309012) scale(0.1 -0.1)">
      <use xlink:href="#DejaVuSans-32"/>
      <use xlink:href="#DejaVuSans-30" x="63.623047"/>
      <use xlink:href="#DejaVuSans-5f" x="127.246094"/>
      <use xlink:href="#DejaVuSans-31" x="177.246094"/>
      <use xlink:href="#DejaVuSans-31" x="240.869141"/>
      <use xlink:href="#DejaVuSans-5f" x="304.492188"/>
      <use xlink:href="#DejaVuSans-30" x="354.492188"/>
      <use xlink:href="#DejaVuSans-32" x="418.115234"/>
      <use xlink:href="#DejaVuSans-5f" x="481.738281"/>
      <use xlink:href="#DejaVuSans-45" x="531.738281"/>
      <use xlink:href="#DejaVuSans-33" x="594.921875"/>
     </g>
    </g>
   </g>
  </g>
 </g>
 <defs>
  <clipPath id="p52add2d082">
   <rect x="56.50625" y="22.318125" width="357.12" height="266.112"/>
  </clipPath>
 </defs>
</svg>
