<?xml version="1.0" encoding="utf-8" standalone="no"?>
<!DOCTYPE svg PUBLIC "-//W3C//DTD SVG 1.1//EN"
  "http://www.w3.org/Graphics/SVG/1.1/DTD/svg11.dtd">
<svg xmlns:xlink="http://www.w3.org/1999/xlink" width="565.411687pt" height="325.986375pt" viewBox="0 0 565.411687 325.986375" xmlns="http://www.w3.org/2000/svg" version="1.1">
 <metadata>
  <rdf:RDF xmlns:dc="http://purl.org/dc/elements/1.1/" xmlns:cc="http://creativecommons.org/ns#" xmlns:rdf="http://www.w3.org/1999/02/22-rdf-syntax-ns#">
   <cc:Work>
    <dc:type rdf:resource="http://purl.org/dc/dcmitype/StillImage"/>
    <dc:date>2023-02-07T23:00:02.628843</dc:date>
    <dc:format>image/svg+xml</dc:format>
    <dc:creator>
     <cc:Agent>
      <dc:title>Matplotlib v3.6.2, https://matplotlib.org/</dc:title>
     </cc:Agent>
    </dc:creator>
   </cc:Work>
  </rdf:RDF>
 </metadata>
 <defs>
  <style type="text/css">*{stroke-linejoin: round; stroke-linecap: butt}</style>
 </defs>
 <g id="figure_1">
  <g id="patch_1">
   <path d="M 0 325.986375 
L 565.411687 325.986375 
L 565.411687 0 
L 0 0 
z
" style="fill: #ffffff"/>
  </g>
  <g id="axes_1">
   <g id="patch_2">
    <path d="M 58.523438 288.430125 
L 415.643438 288.430125 
L 415.643438 22.318125 
L 58.523438 22.318125 
z
" style="fill: #ffffff"/>
   </g>
   <g id="PolyCollection_1">
    <path d="M 74.756165 270.596868 
L 74.756165 253.221387 
L 76.058356 253.221387 
L 77.360547 253.221387 
L 78.662739 253.221387 
L 79.96493 253.221387 
L 81.267121 253.221387 
L 82.569313 253.221387 
L 83.871504 253.221387 
L 85.173695 253.221387 
L 86.475887 253.221387 
L 87.778078 253.221387 
L 89.080269 253.221387 
L 90.382461 253.221387 
L 91.684652 253.221387 
L 92.986843 253.221387 
L 94.289035 253.221387 
L 95.591226 253.221387 
L 96.893417 253.221387 
L 98.195609 253.221387 
L 99.4978 253.221387 
L 100.799991 253.221387 
L 102.102183 253.221387 
L 103.404374 253.221387 
L 104.706565 253.221387 
L 106.008757 253.221387 
L 107.310948 253.221387 
L 108.613139 253.221387 
L 109.915331 253.221387 
L 111.217522 253.221387 
L 112.519713 253.221387 
L 113.821904 253.221387 
L 115.124096 253.221387 
L 116.426287 253.221387 
L 117.728478 253.221387 
L 119.03067 253.221387 
L 120.332861 253.221387 
L 121.635052 253.221387 
L 122.937244 253.221387 
L 124.239435 253.221387 
L 125.541626 253.221387 
L 126.843818 253.221387 
L 128.146009 253.221387 
L 129.4482 253.221387 
L 130.750392 253.221387 
L 132.052583 253.221387 
L 133.354774 253.221387 
L 134.656966 253.221387 
L 135.959157 253.221387 
L 137.261348 253.221387 
L 138.56354 253.221387 
L 139.865731 253.221387 
L 141.167922 253.221387 
L 142.470114 253.221387 
L 143.772305 253.221387 
L 145.074496 253.221387 
L 146.376688 253.221387 
L 147.678879 253.221387 
L 148.98107 253.221387 
L 150.283262 253.221387 
L 151.585453 253.221387 
L 152.887644 253.221387 
L 154.189836 253.221387 
L 155.492027 253.221387 
L 156.794218 253.221387 
L 158.096409 253.221387 
L 159.398601 253.221387 
L 160.700792 253.221387 
L 162.002983 253.221387 
L 163.305175 253.221387 
L 164.607366 253.221387 
L 165.909557 253.221387 
L 167.211749 253.221387 
L 168.51394 253.221387 
L 169.816131 253.221387 
L 171.118323 253.221387 
L 172.420514 253.221387 
L 173.722705 253.221387 
L 175.024897 253.221387 
L 176.327088 253.221387 
L 177.629279 253.221387 
L 178.931471 253.221387 
L 180.233662 253.221387 
L 181.535853 253.221387 
L 182.838045 253.221387 
L 184.140236 253.221387 
L 185.442427 253.221387 
L 186.744619 253.221387 
L 188.04681 253.221387 
L 189.349001 253.221387 
L 190.651193 253.221387 
L 191.953384 253.221387 
L 193.255575 253.221387 
L 194.557767 253.221387 
L 195.859958 253.221387 
L 197.162149 253.221387 
L 198.464341 253.221387 
L 199.766532 253.221387 
L 201.068723 253.221387 
L 202.370914 253.221387 
L 203.673106 253.221387 
L 203.673106 225.349979 
L 203.673106 225.349979 
L 202.370914 251.652498 
L 201.068723 263.444774 
L 199.766532 265.919237 
L 198.464341 262.951252 
L 197.162149 257.343876 
L 195.859958 251.039137 
L 194.557767 245.299129 
L 193.255575 240.860039 
L 191.953384 238.061935 
L 190.651193 236.957018 
L 189.349001 237.398772 
L 188.04681 239.114299 
L 186.744619 241.761943 
L 185.442427 244.976116 
L 184.140236 248.401093 
L 182.838045 251.715387 
L 181.535853 254.648159 
L 180.233662 256.988994 
L 178.931471 258.592224 
L 177.629279 259.376877 
L 176.327088 259.323191 
L 175.024897 258.466549 
L 173.722705 256.88956 
L 172.420514 254.712947 
L 171.118323 252.085779 
L 169.816131 249.175533 
L 168.51394 246.15837 
L 167.211749 243.209963 
L 165.909557 240.497117 
L 164.607366 238.170405 
L 163.305175 236.357942 
L 162.002983 235.160405 
L 160.700792 234.647359 
L 159.398601 234.854882 
L 158.096409 235.784487 
L 156.794218 237.403284 
L 155.492027 239.645297 
L 154.189836 242.413846 
L 152.887644 245.584875 
L 151.585453 249.011093 
L 150.283262 252.526785 
L 148.98107 255.953142 
L 147.678879 259.103965 
L 146.376688 261.79157 
L 145.074496 263.832753 
L 143.772305 265.054663 
L 142.470114 265.300428 
L 141.167922 264.434401 
L 139.865731 253.208408 
L 138.56354 253.206479 
L 137.261348 255.892877 
L 135.959157 249.604628 
L 134.656966 241.907402 
L 133.354774 232.881186 
L 132.052583 222.647805 
L 130.750392 211.369009 
L 129.4482 199.243449 
L 128.146009 186.502571 
L 126.843818 173.405523 
L 125.541626 160.233159 
L 124.239435 147.281264 
L 122.937244 134.853128 
L 121.635052 123.251646 
L 120.332861 112.771091 
L 119.03067 103.688782 
L 117.728478 96.256819 
L 116.426287 90.694109 
L 115.124096 87.178906 
L 113.821904 85.84207 
L 112.519713 86.761275 
L 111.217522 89.956376 
L 109.915331 95.386136 
L 108.613139 102.946518 
L 107.310948 112.470691 
L 106.008757 123.73092 
L 104.706565 136.442449 
L 103.404374 150.269461 
L 102.102183 164.833156 
L 100.799991 179.721948 
L 99.4978 194.503716 
L 98.195609 208.739992 
L 96.893417 222.001892 
L 95.591226 233.887528 
L 94.289035 244.04056 
L 92.986843 252.169424 
L 91.684652 258.066723 
L 90.382461 261.628112 
L 89.080269 262.869907 
L 87.778078 261.944537 
L 86.475887 259.152789 
L 85.173695 254.951675 
L 83.871504 249.95658 
L 82.569313 244.936185 
L 81.267121 240.798482 
L 79.96493 238.566007 
L 78.662739 239.338218 
L 77.360547 244.238724 
L 76.058356 254.344862 
L 74.756165 270.596868 
z
" clip-path="url(#p219177e5d1)" style="fill: #1f77b4; fill-opacity: 0.166667"/>
   </g>
   <g id="PolyCollection_2">
    <path d="M 74.756165 235.157123 
L 74.756165 253.221387 
L 75.714143 253.221387 
L 76.672122 253.221387 
L 77.6301 253.221387 
L 78.588079 253.221387 
L 79.546057 253.221387 
L 80.504036 253.221387 
L 81.462014 253.221387 
L 82.419993 253.221387 
L 83.377971 253.221387 
L 84.33595 253.221387 
L 85.293928 253.221387 
L 86.251907 253.221387 
L 87.209885 253.221387 
L 88.167864 253.221387 
L 89.125843 253.221387 
L 90.083821 253.221387 
L 91.0418 253.221387 
L 91.999778 253.221387 
L 92.957757 253.221387 
L 93.915735 253.221387 
L 94.873714 253.221387 
L 95.831692 253.221387 
L 96.789671 253.221387 
L 97.747649 253.221387 
L 98.705628 253.221387 
L 99.663606 253.221387 
L 100.621585 253.221387 
L 101.579563 253.221387 
L 102.537542 253.221387 
L 103.49552 253.221387 
L 104.453499 253.221387 
L 105.411477 253.221387 
L 106.369456 253.221387 
L 107.327434 253.221387 
L 108.285413 253.221387 
L 109.243391 253.221387 
L 110.20137 253.221387 
L 111.159348 253.221387 
L 112.117327 253.221387 
L 113.075305 253.221387 
L 114.033284 253.221387 
L 114.991262 253.221387 
L 115.949241 253.221387 
L 116.90722 253.221387 
L 117.865198 253.221387 
L 118.823177 253.221387 
L 119.781155 253.221387 
L 120.739134 253.221387 
L 121.697112 253.221387 
L 122.655091 253.221387 
L 123.613069 253.221387 
L 124.571048 253.221387 
L 125.529026 253.221387 
L 126.487005 253.221387 
L 127.444983 253.221387 
L 128.402962 253.221387 
L 129.36094 253.221387 
L 130.318919 253.221387 
L 131.276897 253.221387 
L 132.234876 253.221387 
L 133.192854 253.221387 
L 134.150833 253.221387 
L 135.108811 253.221387 
L 136.06679 253.221387 
L 137.024768 253.221387 
L 137.982747 253.221387 
L 138.940725 253.221387 
L 139.898704 253.221387 
L 140.856682 253.221387 
L 141.814661 253.221387 
L 142.772639 253.221387 
L 143.730618 253.221387 
L 144.688597 253.221387 
L 145.646575 253.221387 
L 146.604554 253.221387 
L 147.562532 253.221387 
L 148.520511 253.221387 
L 149.478489 253.221387 
L 150.436468 253.221387 
L 151.394446 253.221387 
L 152.352425 253.221387 
L 153.310403 253.221387 
L 154.268382 253.221387 
L 155.22636 253.221387 
L 156.184339 253.221387 
L 157.142317 253.221387 
L 158.100296 253.221387 
L 159.058274 253.221387 
L 160.016253 253.221387 
L 160.974231 253.221387 
L 161.93221 253.221387 
L 162.890188 253.221387 
L 163.848167 253.221387 
L 164.806145 253.221387 
L 165.764124 253.221387 
L 166.722102 253.221387 
L 167.680081 253.221387 
L 168.638059 253.221387 
L 169.596038 253.221387 
L 169.596038 232.223174 
L 169.596038 232.223174 
L 168.638059 258.19802 
L 167.680081 267.872113 
L 166.722102 267.811672 
L 165.764124 262.721694 
L 164.806145 255.831118 
L 163.848167 249.219337 
L 162.890188 244.090525 
L 161.93221 241.001764 
L 160.974231 240.05047 
L 160.016253 241.026177 
L 159.058274 243.531319 
L 158.100296 247.075223 
L 157.142317 251.145183 
L 156.184339 255.25808 
L 155.22636 258.995713 
L 154.268382 262.026659 
L 153.310403 264.117183 
L 152.352425 265.133456 
L 151.394446 265.03704 
L 150.436468 263.875389 
L 149.478489 261.768863 
L 148.520511 258.895543 
L 147.562532 255.474945 
L 146.604554 251.751548 
L 145.646575 247.978875 
L 144.688597 244.404741 
L 143.730618 241.258099 
L 142.772639 238.737853 
L 141.814661 237.003834 
L 140.856682 236.170079 
L 139.898704 236.300448 
L 138.940725 237.406546 
L 137.982747 239.447838 
L 137.024768 242.333819 
L 136.06679 245.928022 
L 135.108811 250.053632 
L 134.150833 254.500454 
L 133.192854 259.032941 
L 132.234876 263.398982 
L 131.276897 267.339185 
L 130.318919 270.596312 
L 129.36094 272.924625 
L 128.402962 274.098841 
L 127.444983 273.922443 
L 126.487005 272.235135 
L 125.529026 268.919207 
L 124.571048 263.90466 
L 123.613069 257.172926 
L 122.655091 253.202329 
L 121.697112 253.201876 
L 120.739134 227.834323 
L 119.781155 215.442394 
L 118.823177 201.997377 
L 117.865198 187.768135 
L 116.90722 173.059495 
L 115.949241 158.204495 
L 114.991262 143.555555 
L 114.033284 129.474754 
L 113.075305 116.323461 
L 112.117327 104.451574 
L 111.159348 94.186655 
L 110.20137 85.823249 
L 109.243391 79.612707 
L 108.285413 75.753819 
L 107.327434 74.384594 
L 106.369456 75.575464 
L 105.411477 79.324251 
L 104.453499 85.553135 
L 103.49552 94.107893 
L 102.537542 104.759611 
L 101.579563 117.209024 
L 100.621585 131.093596 
L 99.663606 145.997365 
L 98.705628 161.463522 
L 97.747649 177.00958 
L 96.789671 192.144898 
L 95.831692 206.390213 
L 94.873714 219.298697 
L 93.915735 230.477924 
L 92.957757 239.611963 
L 91.999778 246.482655 
L 91.0418 250.988945 
L 90.083821 253.162922 
L 89.125843 253.181038 
L 88.167864 251.368699 
L 87.209885 248.1962 
L 86.251907 244.263695 
L 85.293928 240.272615 
L 84.33595 236.980608 
L 83.377971 235.136803 
L 82.419993 235.393796 
L 81.462014 238.192428 
L 80.504036 243.615017 
L 79.546057 251.20231 
L 78.588079 259.728967 
L 77.6301 266.93197 
L 76.672122 269.185818 
L 75.714143 261.117934 
L 74.756165 235.157123 
z
" clip-path="url(#p219177e5d1)" style="fill: #ff7f0e; fill-opacity: 0.166667"/>
   </g>
   <g id="PolyCollection_3">
    <path d="M 74.756165 248.658316 
L 74.756165 253.221387 
L 75.783219 253.221387 
L 76.810274 253.221387 
L 77.837328 253.221387 
L 78.864382 253.221387 
L 79.891437 253.221387 
L 80.918491 253.221387 
L 81.945546 253.221387 
L 82.9726 253.221387 
L 83.999654 253.221387 
L 85.026709 253.221387 
L 86.053763 253.221387 
L 87.080818 253.221387 
L 88.107872 253.221387 
L 89.134926 253.221387 
L 90.161981 253.221387 
L 91.189035 253.221387 
L 92.216089 253.221387 
L 93.243144 253.221387 
L 94.270198 253.221387 
L 95.297253 253.221387 
L 96.324307 253.221387 
L 97.351361 253.221387 
L 98.378416 253.221387 
L 99.40547 253.221387 
L 100.432525 253.221387 
L 101.459579 253.221387 
L 102.486633 253.221387 
L 103.513688 253.221387 
L 104.540742 253.221387 
L 105.567797 253.221387 
L 106.594851 253.221387 
L 107.621905 253.221387 
L 108.64896 253.221387 
L 109.676014 253.221387 
L 110.703069 253.221387 
L 111.730123 253.221387 
L 112.757177 253.221387 
L 113.784232 253.221387 
L 114.811286 253.221387 
L 115.838341 253.221387 
L 116.865395 253.221387 
L 117.892449 253.221387 
L 118.919504 253.221387 
L 119.946558 253.221387 
L 120.973613 253.221387 
L 122.000667 253.221387 
L 123.027721 253.221387 
L 124.054776 253.221387 
L 125.08183 253.221387 
L 126.108885 253.221387 
L 127.135939 253.221387 
L 128.162993 253.221387 
L 129.190048 253.221387 
L 130.217102 253.221387 
L 131.244157 253.221387 
L 132.271211 253.221387 
L 133.298265 253.221387 
L 134.32532 253.221387 
L 135.352374 253.221387 
L 136.379429 253.221387 
L 137.406483 253.221387 
L 138.433537 253.221387 
L 139.460592 253.221387 
L 140.487646 253.221387 
L 141.5147 253.221387 
L 142.541755 253.221387 
L 143.568809 253.221387 
L 144.595864 253.221387 
L 145.622918 253.221387 
L 146.649972 253.221387 
L 147.677027 253.221387 
L 148.704081 253.221387 
L 149.731136 253.221387 
L 150.75819 253.221387 
L 151.785244 253.221387 
L 152.812299 253.221387 
L 153.839353 253.221387 
L 154.866408 253.221387 
L 155.893462 253.221387 
L 156.920516 253.221387 
L 157.947571 253.221387 
L 158.974625 253.221387 
L 160.00168 253.221387 
L 161.028734 253.221387 
L 162.055788 253.221387 
L 163.082843 253.221387 
L 164.109897 253.221387 
L 165.136952 253.221387 
L 166.164006 253.221387 
L 167.19106 253.221387 
L 168.218115 253.221387 
L 169.245169 253.221387 
L 170.272224 253.221387 
L 171.299278 253.221387 
L 172.326332 253.221387 
L 173.353387 253.221387 
L 174.380441 253.221387 
L 175.407496 253.221387 
L 176.43455 253.221387 
L 176.43455 226.838192 
L 176.43455 226.838192 
L 175.407496 259.403015 
L 174.380441 272.128616 
L 173.353387 272.735797 
L 172.326332 266.83294 
L 171.299278 258.338312 
L 170.272224 249.840144 
L 169.245169 242.901142 
L 168.218115 238.313591 
L 167.19106 236.310738 
L 166.164006 236.739705 
L 165.136952 239.200729 
L 164.109897 243.157158 
L 163.082843 248.020225 
L 162.055788 253.212253 
L 161.028734 258.211619 
L 160.00168 262.58247 
L 158.974625 265.991876 
L 157.947571 268.216833 
L 156.920516 269.143225 
L 155.893462 268.758659 
L 154.866408 267.140785 
L 153.839353 264.442546 
L 152.812299 260.87559 
L 151.785244 256.692848 
L 150.75819 252.171182 
L 149.731136 247.594772 
L 148.704081 243.239827 
L 147.677027 239.361037 
L 146.649972 236.180081 
L 145.622918 233.876389 
L 144.595864 232.580276 
L 143.568809 232.368475 
L 142.541755 233.262006 
L 141.5147 235.226307 
L 140.487646 238.173425 
L 139.460592 241.966103 
L 138.433537 246.423501 
L 137.406483 251.328293 
L 136.379429 256.434871 
L 135.352374 261.478343 
L 134.32532 266.184042 
L 133.298265 270.277258 
L 132.271211 273.492878 
L 131.244157 275.5847 
L 130.217102 276.334125 
L 129.190048 275.558024 
L 128.162993 273.115553 
L 127.135939 268.91374 
L 126.108885 253.202985 
L 125.08183 253.201698 
L 124.054776 247.151654 
L 123.027721 236.209364 
L 122.000667 223.77215 
L 120.973613 210.066615 
L 119.946558 195.367806 
L 118.919504 179.992538 
L 117.892449 164.291305 
L 116.865395 148.638966 
L 115.838341 133.424413 
L 114.811286 119.039471 
L 113.784232 105.867323 
L 112.757177 94.270726 
L 111.730123 84.580379 
L 110.703069 77.083736 
L 109.676014 72.014636 
L 108.64896 69.544073 
L 107.621905 69.772454 
L 106.594851 72.723654 
L 105.567797 78.341193 
L 104.540742 86.486776 
L 103.513688 96.941451 
L 102.486633 109.409559 
L 101.459579 123.525588 
L 100.432525 138.864002 
L 99.40547 154.951983 
L 98.378416 171.28499 
L 97.351361 187.344865 
L 96.324307 202.620162 
L 95.297253 216.628175 
L 94.270198 228.938043 
L 93.243144 239.194115 
L 92.216089 247.138586 
L 91.189035 252.632219 
L 90.161981 255.671757 
L 89.134926 256.402385 
L 88.107872 255.123372 
L 87.080818 252.284743 
L 86.053763 248.472533 
L 85.026709 244.379906 
L 83.999654 240.761052 
L 82.9726 238.364447 
L 81.945546 237.841708 
L 80.918491 239.627846 
L 79.891437 243.788341 
L 78.864382 249.828012 
L 77.837328 256.456187 
L 76.810274 261.302214 
L 75.783219 260.574821 
L 74.756165 248.658316 
z
" clip-path="url(#p219177e5d1)" style="fill: #2ca02c; fill-opacity: 0.166667"/>
   </g>
   <g id="PolyCollection_4">
    <path d="M 74.756165 148.031667 
L 74.756165 253.221387 
L 78.035504 253.221387 
L 81.314842 253.221387 
L 84.594181 253.221387 
L 87.87352 253.221387 
L 91.152859 253.221387 
L 94.432198 253.221387 
L 97.711537 253.221387 
L 100.990876 253.221387 
L 104.270214 253.221387 
L 107.549553 253.221387 
L 110.828892 253.221387 
L 114.108231 253.221387 
L 117.38757 253.221387 
L 120.666909 253.221387 
L 123.946247 253.221387 
L 127.225586 253.221387 
L 130.504925 253.221387 
L 133.784264 253.221387 
L 137.063603 253.221387 
L 140.342942 253.221387 
L 143.62228 253.221387 
L 146.901619 253.221387 
L 150.180958 253.221387 
L 153.460297 253.221387 
L 156.739636 253.221387 
L 160.018975 253.221387 
L 163.298314 253.221387 
L 166.577652 253.221387 
L 169.856991 253.221387 
L 173.13633 253.221387 
L 176.415669 253.221387 
L 179.695008 253.221387 
L 182.974347 253.221387 
L 186.253685 253.221387 
L 189.533024 253.221387 
L 192.812363 253.221387 
L 196.091702 253.221387 
L 199.371041 253.221387 
L 202.65038 253.221387 
L 205.929718 253.221387 
L 209.209057 253.221387 
L 212.488396 253.221387 
L 215.767735 253.221387 
L 219.047074 253.221387 
L 222.326413 253.221387 
L 225.605752 253.221387 
L 228.88509 253.221387 
L 232.164429 253.221387 
L 235.443768 253.221387 
L 238.723107 253.221387 
L 242.002446 253.221387 
L 245.281785 253.221387 
L 248.561123 253.221387 
L 251.840462 253.221387 
L 255.119801 253.221387 
L 258.39914 253.221387 
L 261.678479 253.221387 
L 264.957818 253.221387 
L 268.237157 253.221387 
L 271.516495 253.221387 
L 274.795834 253.221387 
L 278.075173 253.221387 
L 281.354512 253.221387 
L 284.633851 253.221387 
L 287.91319 253.221387 
L 291.192528 253.221387 
L 294.471867 253.221387 
L 297.751206 253.221387 
L 301.030545 253.221387 
L 304.309884 253.221387 
L 307.589223 253.221387 
L 310.868561 253.221387 
L 314.1479 253.221387 
L 317.427239 253.221387 
L 320.706578 253.221387 
L 323.985917 253.221387 
L 327.265256 253.221387 
L 330.544595 253.221387 
L 333.823933 253.221387 
L 337.103272 253.221387 
L 340.382611 253.221387 
L 343.66195 253.221387 
L 346.941289 253.221387 
L 350.220628 253.221387 
L 353.499966 253.221387 
L 356.779305 253.221387 
L 360.058644 253.221387 
L 363.337983 253.221387 
L 366.617322 253.221387 
L 369.896661 253.221387 
L 373.175999 253.221387 
L 376.455338 253.221387 
L 379.734677 253.221387 
L 383.014016 253.221387 
L 386.293355 253.221387 
L 389.572694 253.221387 
L 392.852033 253.221387 
L 396.131371 253.221387 
L 399.41071 253.221387 
L 399.41071 240.799368 
L 399.41071 240.799368 
L 396.131371 254.385923 
L 392.852033 259.868929 
L 389.572694 260.434741 
L 386.293355 258.37347 
L 383.014016 255.26566 
L 379.734677 252.139979 
L 376.455338 249.605223 
L 373.175999 247.959669 
L 369.896661 247.280558 
L 366.617322 247.49627 
L 363.337983 248.4435 
L 360.058644 249.91157 
L 356.779305 251.675776 
L 353.499966 253.521505 
L 350.220628 255.260672 
L 346.941289 256.741865 
L 343.66195 257.855412 
L 340.382611 258.534474 
L 337.103272 258.753104 
L 333.823933 258.522082 
L 330.544595 257.883263 
L 327.265256 256.903002 
L 323.985917 255.665194 
L 320.706578 254.264303 
L 317.427239 252.798744 
L 314.1479 251.364852 
L 310.868561 250.051628 
L 307.589223 248.936408 
L 304.309884 248.081509 
L 301.030545 247.531901 
L 297.751206 247.313889 
L 294.471867 247.434756 
L 291.192528 247.883315 
L 287.91319 248.631252 
L 284.633851 249.635168 
L 281.354512 250.839185 
L 278.075173 252.177987 
L 274.795834 253.580152 
L 271.516495 254.97164 
L 268.237157 256.279306 
L 264.957818 257.43429 
L 261.678479 258.375179 
L 258.39914 259.050816 
L 255.119801 259.422667 
L 251.840462 259.466654 
L 248.561123 259.174396 
L 245.281785 258.553795 
L 242.002446 257.628957 
L 238.723107 253.219625 
L 235.443768 253.219631 
L 232.164429 254.512763 
L 228.88509 252.736141 
L 225.605752 250.921279 
L 222.326413 249.161003 
L 219.047074 247.548428 
L 215.767735 246.172189 
L 212.488396 245.111518 
L 209.209057 244.431296 
L 205.929718 244.177287 
L 202.65038 244.371708 
L 199.371041 245.009351 
L 196.091702 246.054423 
L 192.812363 247.438306 
L 189.533024 249.058406 
L 186.253685 250.778266 
L 182.974347 252.429074 
L 179.695008 253.812709 
L 176.415669 254.706393 
L 173.13633 254.869026 
L 169.856991 254.049193 
L 166.577652 251.994822 
L 163.298314 248.464376 
L 160.018975 243.239413 
L 156.739636 236.138284 
L 153.460297 227.030619 
L 150.180958 215.852191 
L 146.901619 202.619633 
L 143.62228 187.444356 
L 140.342942 170.544918 
L 137.063603 152.256927 
L 133.784264 133.039452 
L 130.504925 113.476726 
L 127.225586 94.273772 
L 123.946247 76.244402 
L 120.666909 60.28983 
L 117.38757 47.365963 
L 114.108231 38.437167 
L 110.828892 34.414125 
L 107.549553 36.073106 
L 104.270214 43.95373 
L 100.990876 58.232034 
L 97.711537 78.565328 
L 94.432198 103.905057 
L 91.152859 132.273525 
L 87.87352 160.500017 
L 84.594181 183.911484 
L 81.314842 195.972597 
L 78.035504 187.869558 
L 74.756165 148.031667 
z
" clip-path="url(#p219177e5d1)" style="fill: #d62728; fill-opacity: 0.166667"/>
   </g>
   <g id="PolyCollection_5">
    <path d="M 74.756165 251.265537 
L 74.756165 253.221387 
L 75.810895 253.221387 
L 76.865625 253.221387 
L 77.920354 253.221387 
L 78.975084 253.221387 
L 80.029814 253.221387 
L 81.084544 253.221387 
L 82.139274 253.221387 
L 83.194004 253.221387 
L 84.248734 253.221387 
L 85.303464 253.221387 
L 86.358193 253.221387 
L 87.412923 253.221387 
L 88.467653 253.221387 
L 89.522383 253.221387 
L 90.577113 253.221387 
L 91.631843 253.221387 
L 92.686573 253.221387 
L 93.741303 253.221387 
L 94.796032 253.221387 
L 95.850762 253.221387 
L 96.905492 253.221387 
L 97.960222 253.221387 
L 99.014952 253.221387 
L 100.069682 253.221387 
L 101.124412 253.221387 
L 102.179142 253.221387 
L 103.233871 253.221387 
L 104.288601 253.221387 
L 105.343331 253.221387 
L 106.398061 253.221387 
L 107.452791 253.221387 
L 108.507521 253.221387 
L 109.562251 253.221387 
L 110.616981 253.221387 
L 111.67171 253.221387 
L 112.72644 253.221387 
L 113.78117 253.221387 
L 114.8359 253.221387 
L 115.89063 253.221387 
L 116.94536 253.221387 
L 118.00009 253.221387 
L 119.05482 253.221387 
L 120.109549 253.221387 
L 121.164279 253.221387 
L 122.219009 253.221387 
L 123.273739 253.221387 
L 124.328469 253.221387 
L 125.383199 253.221387 
L 126.437929 253.221387 
L 127.492659 253.221387 
L 128.547388 253.221387 
L 129.602118 253.221387 
L 130.656848 253.221387 
L 131.711578 253.221387 
L 132.766308 253.221387 
L 133.821038 253.221387 
L 134.875768 253.221387 
L 135.930498 253.221387 
L 136.985227 253.221387 
L 138.039957 253.221387 
L 139.094687 253.221387 
L 140.149417 253.221387 
L 141.204147 253.221387 
L 142.258877 253.221387 
L 143.313607 253.221387 
L 144.368337 253.221387 
L 145.423066 253.221387 
L 146.477796 253.221387 
L 147.532526 253.221387 
L 148.587256 253.221387 
L 149.641986 253.221387 
L 150.696716 253.221387 
L 151.751446 253.221387 
L 152.806175 253.221387 
L 153.860905 253.221387 
L 154.915635 253.221387 
L 155.970365 253.221387 
L 157.025095 253.221387 
L 158.079825 253.221387 
L 159.134555 253.221387 
L 160.189285 253.221387 
L 161.244014 253.221387 
L 162.298744 253.221387 
L 163.353474 253.221387 
L 164.408204 253.221387 
L 165.462934 253.221387 
L 166.517664 253.221387 
L 167.572394 253.221387 
L 168.627124 253.221387 
L 169.681853 253.221387 
L 170.736583 253.221387 
L 171.791313 253.221387 
L 172.846043 253.221387 
L 173.900773 253.221387 
L 174.955503 253.221387 
L 176.010233 253.221387 
L 177.064963 253.221387 
L 178.119692 253.221387 
L 179.174422 253.221387 
L 179.174422 258.320913 
L 179.174422 258.320913 
L 178.119692 252.149182 
L 177.064963 249.466387 
L 176.010233 249.023775 
L 174.955503 249.866971 
L 173.900773 251.285705 
L 172.846043 252.769937 
L 171.791313 253.971771 
L 170.736583 254.672612 
L 169.681853 254.755029 
L 168.627124 254.17885 
L 167.572394 252.961033 
L 166.517664 251.158893 
L 165.462934 248.856303 
L 164.408204 246.152512 
L 163.353474 243.153249 
L 162.298744 239.963816 
L 161.244014 236.683893 
L 160.189285 233.403813 
L 159.134555 230.202066 
L 158.079825 227.143843 
L 157.025095 224.280423 
L 155.970365 221.649244 
L 154.915635 219.27452 
L 153.860905 217.168253 
L 152.806175 215.331549 
L 151.751446 213.756129 
L 150.696716 212.425949 
L 149.641986 211.31886 
L 148.587256 210.408253 
L 147.532526 209.66463 
L 146.477796 209.057063 
L 145.423066 208.554522 
L 144.368337 208.12704 
L 143.313607 207.746694 
L 142.258877 207.388414 
L 141.204147 207.030597 
L 140.149417 206.65554 
L 139.094687 206.249696 
L 138.039957 205.803763 
L 136.985227 205.312622 
L 135.930498 204.775136 
L 134.875768 204.193835 
L 133.821038 203.574495 
L 132.766308 202.925646 
L 131.711578 202.258022 
L 130.656848 201.583964 
L 129.602118 200.916823 
L 128.547388 200.270349 
L 127.492659 253.211105 
L 126.437929 253.21128 
L 125.383199 198.186323 
L 124.328469 197.759706 
L 123.273739 197.430031 
L 122.219009 197.201428 
L 121.164279 197.074742 
L 120.109549 197.047598 
L 119.05482 197.114579 
L 118.00009 197.267552 
L 116.94536 197.496102 
L 115.89063 197.788076 
L 114.8359 198.130215 
L 113.78117 198.508864 
L 112.72644 198.910718 
L 111.67171 199.3236 
L 110.616981 199.737236 
L 109.562251 200.143995 
L 108.507521 200.53957 
L 107.452791 200.92357 
L 106.398061 201.299996 
L 105.343331 201.677561 
L 104.288601 202.069841 
L 103.233871 202.495234 
L 102.179142 202.976689 
L 101.124412 203.541203 
L 100.069682 204.219077 
L 99.014952 205.042914 
L 97.960222 206.046366 
L 96.905492 207.262654 
L 95.850762 208.722851 
L 94.796032 210.454 
L 93.741303 212.477072 
L 92.686573 214.804845 
L 91.631843 217.439775 
L 90.577113 220.371932 
L 89.522383 223.577126 
L 88.467653 227.015338 
L 87.412923 230.629612 
L 86.358193 234.345568 
L 85.303464 238.071737 
L 84.248734 241.700949 
L 83.194004 245.112997 
L 82.139274 248.178895 
L 81.084544 250.767002 
L 80.029814 252.751391 
L 78.975084 254.02283 
L 77.920354 254.502792 
L 76.865625 254.160976 
L 75.810895 253.036812 
L 74.756165 251.265537 
z
" clip-path="url(#p219177e5d1)" style="fill: #9467bd; fill-opacity: 0.166667"/>
   </g>
   <g id="PolyCollection_6">
    <path d="M 74.756165 231.48874 
L 74.756165 253.221387 
L 75.653737 253.221387 
L 76.55131 253.221387 
L 77.448883 253.221387 
L 78.346455 253.221387 
L 79.244028 253.221387 
L 80.1416 253.221387 
L 81.039173 253.221387 
L 81.936745 253.221387 
L 82.834318 253.221387 
L 83.731891 253.221387 
L 84.629463 253.221387 
L 85.527036 253.221387 
L 86.424608 253.221387 
L 87.322181 253.221387 
L 88.219753 253.221387 
L 89.117326 253.221387 
L 90.014899 253.221387 
L 90.912471 253.221387 
L 91.810044 253.221387 
L 92.707616 253.221387 
L 93.605189 253.221387 
L 94.502761 253.221387 
L 95.400334 253.221387 
L 96.297907 253.221387 
L 97.195479 253.221387 
L 98.093052 253.221387 
L 98.990624 253.221387 
L 99.888197 253.221387 
L 100.785769 253.221387 
L 101.683342 253.221387 
L 102.580915 253.221387 
L 103.478487 253.221387 
L 104.37606 253.221387 
L 105.273632 253.221387 
L 106.171205 253.221387 
L 107.068778 253.221387 
L 107.96635 253.221387 
L 108.863923 253.221387 
L 109.761495 253.221387 
L 110.659068 253.221387 
L 111.55664 253.221387 
L 112.454213 253.221387 
L 113.351786 253.221387 
L 114.249358 253.221387 
L 115.146931 253.221387 
L 116.044503 253.221387 
L 116.942076 253.221387 
L 117.839648 253.221387 
L 118.737221 253.221387 
L 119.634794 253.221387 
L 120.532366 253.221387 
L 121.429939 253.221387 
L 122.327511 253.221387 
L 123.225084 253.221387 
L 124.122656 253.221387 
L 125.020229 253.221387 
L 125.917802 253.221387 
L 126.815374 253.221387 
L 127.712947 253.221387 
L 128.610519 253.221387 
L 129.508092 253.221387 
L 130.405664 253.221387 
L 131.303237 253.221387 
L 132.20081 253.221387 
L 133.098382 253.221387 
L 133.995955 253.221387 
L 134.893527 253.221387 
L 135.7911 253.221387 
L 136.688673 253.221387 
L 137.586245 253.221387 
L 138.483818 253.221387 
L 139.38139 253.221387 
L 140.278963 253.221387 
L 141.176535 253.221387 
L 142.074108 253.221387 
L 142.971681 253.221387 
L 143.869253 253.221387 
L 144.766826 253.221387 
L 145.664398 253.221387 
L 146.561971 253.221387 
L 147.459543 253.221387 
L 148.357116 253.221387 
L 149.254689 253.221387 
L 150.152261 253.221387 
L 151.049834 253.221387 
L 151.947406 253.221387 
L 152.844979 253.221387 
L 153.742551 253.221387 
L 154.640124 253.221387 
L 155.537697 253.221387 
L 156.435269 253.221387 
L 157.332842 253.221387 
L 158.230414 253.221387 
L 159.127987 253.221387 
L 160.025559 253.221387 
L 160.923132 253.221387 
L 161.820705 253.221387 
L 162.718277 253.221387 
L 163.61585 253.221387 
L 163.61585 250.769694 
L 163.61585 250.769694 
L 162.718277 254.387311 
L 161.820705 254.850786 
L 160.923132 253.818702 
L 160.025559 252.369149 
L 159.127987 251.141494 
L 158.230414 250.453551 
L 157.332842 250.397151 
L 156.435269 250.914884 
L 155.537697 251.860536 
L 154.640124 253.045515 
L 153.742551 254.273357 
L 152.844979 255.364204 
L 151.947406 256.17093 
L 151.049834 256.588466 
L 150.152261 256.557639 
L 149.254689 256.064745 
L 148.357116 255.137903 
L 147.459543 253.84108 
L 146.561971 252.26661 
L 145.664398 250.526837 
L 144.766826 248.745474 
L 143.869253 247.049128 
L 142.971681 245.559358 
L 142.074108 244.385571 
L 141.176535 243.61895 
L 140.278963 243.327589 
L 139.38139 243.552898 
L 138.483818 244.307337 
L 137.586245 245.573445 
L 136.688673 247.304145 
L 135.7911 249.424218 
L 134.893527 251.83284 
L 133.995955 254.407067 
L 133.098382 257.006092 
L 132.20081 259.47613 
L 131.303237 261.655757 
L 130.405664 263.381524 
L 129.508092 264.493679 
L 128.610519 264.84182 
L 127.712947 264.29032 
L 126.815374 262.723378 
L 125.917802 260.049536 
L 125.020229 256.205558 
L 124.122656 251.159549 
L 123.225084 244.913232 
L 122.327511 237.503306 
L 121.429939 229.001842 
L 120.532366 219.515695 
L 119.634794 253.204806 
L 118.737221 253.205272 
L 117.839648 185.919067 
L 116.942076 174.495007 
L 116.044503 163.084544 
L 115.146931 151.921795 
L 114.249358 141.245174 
L 113.351786 131.291343 
L 112.454213 122.288964 
L 111.55664 114.452397 
L 110.659068 107.975498 
L 109.761495 103.025678 
L 108.863923 99.738388 
L 107.96635 98.212199 
L 107.068778 98.504628 
L 106.171205 100.628881 
L 105.273632 104.551659 
L 104.37606 110.192154 
L 103.478487 117.422363 
L 102.580915 126.068819 
L 101.683342 135.915802 
L 100.785769 146.710079 
L 99.888197 158.167183 
L 98.990624 169.979188 
L 98.093052 181.823911 
L 97.195479 193.375399 
L 96.297907 204.315527 
L 95.400334 214.34644 
L 94.502761 223.203524 
L 93.605189 230.66851 
L 92.707616 236.582227 
L 91.810044 240.85642 
L 90.912471 243.483982 
L 90.014899 244.546805 
L 89.117326 244.220371 
L 88.219753 242.774064 
L 87.322181 240.566064 
L 86.424608 238.031548 
L 85.527036 235.662755 
L 84.629463 233.979354 
L 83.731891 233.487339 
L 82.834318 234.624549 
L 81.936745 237.690693 
L 81.039173 242.759572 
L 80.1416 249.571002 
L 79.244028 257.399693 
L 78.346455 264.898157 
L 77.448883 269.910429 
L 76.55131 269.253192 
L 75.653737 258.460585 
L 74.756165 231.48874 
z
" clip-path="url(#p219177e5d1)" style="fill: #8c564b; fill-opacity: 0.166667"/>
   </g>
   <g id="matplotlib.axis_1">
    <g id="xtick_1">
     <g id="line2d_1">
      <defs>
       <path id="me177a633b7" d="M 0 0 
L 0 3.5 
" style="stroke: #000000; stroke-width: 0.8"/>
      </defs>
      <g>
       <use xlink:href="#me177a633b7" x="74.756165" y="288.430125" style="stroke: #000000; stroke-width: 0.8"/>
      </g>
     </g>
     <g id="text_1">
      <!-- 0.0000 -->
      <g transform="translate(57.260852 303.028562) scale(0.1 -0.1)">
       <defs>
        <path id="DejaVuSans-30" d="M 2034 4250 
Q 1547 4250 1301 3770 
Q 1056 3291 1056 2328 
Q 1056 1369 1301 889 
Q 1547 409 2034 409 
Q 2525 409 2770 889 
Q 3016 1369 3016 2328 
Q 3016 3291 2770 3770 
Q 2525 4250 2034 4250 
z
M 2034 4750 
Q 2819 4750 3233 4129 
Q 3647 3509 3647 2328 
Q 3647 1150 3233 529 
Q 2819 -91 2034 -91 
Q 1250 -91 836 529 
Q 422 1150 422 2328 
Q 422 3509 836 4129 
Q 1250 4750 2034 4750 
z
" transform="scale(0.015625)"/>
        <path id="DejaVuSans-2e" d="M 684 794 
L 1344 794 
L 1344 0 
L 684 0 
L 684 794 
z
" transform="scale(0.015625)"/>
       </defs>
       <use xlink:href="#DejaVuSans-30"/>
       <use xlink:href="#DejaVuSans-2e" x="63.623047"/>
       <use xlink:href="#DejaVuSans-30" x="95.410156"/>
       <use xlink:href="#DejaVuSans-30" x="159.033203"/>
       <use xlink:href="#DejaVuSans-30" x="222.65625"/>
       <use xlink:href="#DejaVuSans-30" x="286.279297"/>
      </g>
     </g>
    </g>
    <g id="xtick_2">
     <g id="line2d_2">
      <g>
       <use xlink:href="#me177a633b7" x="116.402345" y="288.430125" style="stroke: #000000; stroke-width: 0.8"/>
      </g>
     </g>
     <g id="text_2">
      <!-- 0.0005 -->
      <g transform="translate(98.907032 303.028562) scale(0.1 -0.1)">
       <defs>
        <path id="DejaVuSans-35" d="M 691 4666 
L 3169 4666 
L 3169 4134 
L 1269 4134 
L 1269 2991 
Q 1406 3038 1543 3061 
Q 1681 3084 1819 3084 
Q 2600 3084 3056 2656 
Q 3513 2228 3513 1497 
Q 3513 744 3044 326 
Q 2575 -91 1722 -91 
Q 1428 -91 1123 -41 
Q 819 9 494 109 
L 494 744 
Q 775 591 1075 516 
Q 1375 441 1709 441 
Q 2250 441 2565 725 
Q 2881 1009 2881 1497 
Q 2881 1984 2565 2268 
Q 2250 2553 1709 2553 
Q 1456 2553 1204 2497 
Q 953 2441 691 2322 
L 691 4666 
z
" transform="scale(0.015625)"/>
       </defs>
       <use xlink:href="#DejaVuSans-30"/>
       <use xlink:href="#DejaVuSans-2e" x="63.623047"/>
       <use xlink:href="#DejaVuSans-30" x="95.410156"/>
       <use xlink:href="#DejaVuSans-30" x="159.033203"/>
       <use xlink:href="#DejaVuSans-30" x="222.65625"/>
       <use xlink:href="#DejaVuSans-35" x="286.279297"/>
      </g>
     </g>
    </g>
    <g id="xtick_3">
     <g id="line2d_3">
      <g>
       <use xlink:href="#me177a633b7" x="158.048525" y="288.430125" style="stroke: #000000; stroke-width: 0.8"/>
      </g>
     </g>
     <g id="text_3">
      <!-- 0.0010 -->
      <g transform="translate(140.553212 303.028562) scale(0.1 -0.1)">
       <defs>
        <path id="DejaVuSans-31" d="M 794 531 
L 1825 531 
L 1825 4091 
L 703 3866 
L 703 4441 
L 1819 4666 
L 2450 4666 
L 2450 531 
L 3481 531 
L 3481 0 
L 794 0 
L 794 531 
z
" transform="scale(0.015625)"/>
       </defs>
       <use xlink:href="#DejaVuSans-30"/>
       <use xlink:href="#DejaVuSans-2e" x="63.623047"/>
       <use xlink:href="#DejaVuSans-30" x="95.410156"/>
       <use xlink:href="#DejaVuSans-30" x="159.033203"/>
       <use xlink:href="#DejaVuSans-31" x="222.65625"/>
       <use xlink:href="#DejaVuSans-30" x="286.279297"/>
      </g>
     </g>
    </g>
    <g id="xtick_4">
     <g id="line2d_4">
      <g>
       <use xlink:href="#me177a633b7" x="199.694704" y="288.430125" style="stroke: #000000; stroke-width: 0.8"/>
      </g>
     </g>
     <g id="text_4">
      <!-- 0.0015 -->
      <g transform="translate(182.199392 303.028562) scale(0.1 -0.1)">
       <use xlink:href="#DejaVuSans-30"/>
       <use xlink:href="#DejaVuSans-2e" x="63.623047"/>
       <use xlink:href="#DejaVuSans-30" x="95.410156"/>
       <use xlink:href="#DejaVuSans-30" x="159.033203"/>
       <use xlink:href="#DejaVuSans-31" x="222.65625"/>
       <use xlink:href="#DejaVuSans-35" x="286.279297"/>
      </g>
     </g>
    </g>
    <g id="xtick_5">
     <g id="line2d_5">
      <g>
       <use xlink:href="#me177a633b7" x="241.340884" y="288.430125" style="stroke: #000000; stroke-width: 0.8"/>
      </g>
     </g>
     <g id="text_5">
      <!-- 0.0020 -->
      <g transform="translate(223.845572 303.028562) scale(0.1 -0.1)">
       <defs>
        <path id="DejaVuSans-32" d="M 1228 531 
L 3431 531 
L 3431 0 
L 469 0 
L 469 531 
Q 828 903 1448 1529 
Q 2069 2156 2228 2338 
Q 2531 2678 2651 2914 
Q 2772 3150 2772 3378 
Q 2772 3750 2511 3984 
Q 2250 4219 1831 4219 
Q 1534 4219 1204 4116 
Q 875 4013 500 3803 
L 500 4441 
Q 881 4594 1212 4672 
Q 1544 4750 1819 4750 
Q 2544 4750 2975 4387 
Q 3406 4025 3406 3419 
Q 3406 3131 3298 2873 
Q 3191 2616 2906 2266 
Q 2828 2175 2409 1742 
Q 1991 1309 1228 531 
z
" transform="scale(0.015625)"/>
       </defs>
       <use xlink:href="#DejaVuSans-30"/>
       <use xlink:href="#DejaVuSans-2e" x="63.623047"/>
       <use xlink:href="#DejaVuSans-30" x="95.410156"/>
       <use xlink:href="#DejaVuSans-30" x="159.033203"/>
       <use xlink:href="#DejaVuSans-32" x="222.65625"/>
       <use xlink:href="#DejaVuSans-30" x="286.279297"/>
      </g>
     </g>
    </g>
    <g id="xtick_6">
     <g id="line2d_6">
      <g>
       <use xlink:href="#me177a633b7" x="282.987064" y="288.430125" style="stroke: #000000; stroke-width: 0.8"/>
      </g>
     </g>
     <g id="text_6">
      <!-- 0.0025 -->
      <g transform="translate(265.491752 303.028562) scale(0.1 -0.1)">
       <use xlink:href="#DejaVuSans-30"/>
       <use xlink:href="#DejaVuSans-2e" x="63.623047"/>
       <use xlink:href="#DejaVuSans-30" x="95.410156"/>
       <use xlink:href="#DejaVuSans-30" x="159.033203"/>
       <use xlink:href="#DejaVuSans-32" x="222.65625"/>
       <use xlink:href="#DejaVuSans-35" x="286.279297"/>
      </g>
     </g>
    </g>
    <g id="xtick_7">
     <g id="line2d_7">
      <g>
       <use xlink:href="#me177a633b7" x="324.633244" y="288.430125" style="stroke: #000000; stroke-width: 0.8"/>
      </g>
     </g>
     <g id="text_7">
      <!-- 0.0030 -->
      <g transform="translate(307.137932 303.028562) scale(0.1 -0.1)">
       <defs>
        <path id="DejaVuSans-33" d="M 2597 2516 
Q 3050 2419 3304 2112 
Q 3559 1806 3559 1356 
Q 3559 666 3084 287 
Q 2609 -91 1734 -91 
Q 1441 -91 1130 -33 
Q 819 25 488 141 
L 488 750 
Q 750 597 1062 519 
Q 1375 441 1716 441 
Q 2309 441 2620 675 
Q 2931 909 2931 1356 
Q 2931 1769 2642 2001 
Q 2353 2234 1838 2234 
L 1294 2234 
L 1294 2753 
L 1863 2753 
Q 2328 2753 2575 2939 
Q 2822 3125 2822 3475 
Q 2822 3834 2567 4026 
Q 2313 4219 1838 4219 
Q 1578 4219 1281 4162 
Q 984 4106 628 3988 
L 628 4550 
Q 988 4650 1302 4700 
Q 1616 4750 1894 4750 
Q 2613 4750 3031 4423 
Q 3450 4097 3450 3541 
Q 3450 3153 3228 2886 
Q 3006 2619 2597 2516 
z
" transform="scale(0.015625)"/>
       </defs>
       <use xlink:href="#DejaVuSans-30"/>
       <use xlink:href="#DejaVuSans-2e" x="63.623047"/>
       <use xlink:href="#DejaVuSans-30" x="95.410156"/>
       <use xlink:href="#DejaVuSans-30" x="159.033203"/>
       <use xlink:href="#DejaVuSans-33" x="222.65625"/>
       <use xlink:href="#DejaVuSans-30" x="286.279297"/>
      </g>
     </g>
    </g>
    <g id="xtick_8">
     <g id="line2d_8">
      <g>
       <use xlink:href="#me177a633b7" x="366.279424" y="288.430125" style="stroke: #000000; stroke-width: 0.8"/>
      </g>
     </g>
     <g id="text_8">
      <!-- 0.0035 -->
      <g transform="translate(348.784112 303.028562) scale(0.1 -0.1)">
       <use xlink:href="#DejaVuSans-30"/>
       <use xlink:href="#DejaVuSans-2e" x="63.623047"/>
       <use xlink:href="#DejaVuSans-30" x="95.410156"/>
       <use xlink:href="#DejaVuSans-30" x="159.033203"/>
       <use xlink:href="#DejaVuSans-33" x="222.65625"/>
       <use xlink:href="#DejaVuSans-35" x="286.279297"/>
      </g>
     </g>
    </g>
    <g id="xtick_9">
     <g id="line2d_9">
      <g>
       <use xlink:href="#me177a633b7" x="407.925604" y="288.430125" style="stroke: #000000; stroke-width: 0.8"/>
      </g>
     </g>
     <g id="text_9">
      <!-- 0.0040 -->
      <g transform="translate(390.430291 303.028562) scale(0.1 -0.1)">
       <defs>
        <path id="DejaVuSans-34" d="M 2419 4116 
L 825 1625 
L 2419 1625 
L 2419 4116 
z
M 2253 4666 
L 3047 4666 
L 3047 1625 
L 3713 1625 
L 3713 1100 
L 3047 1100 
L 3047 0 
L 2419 0 
L 2419 1100 
L 313 1100 
L 313 1709 
L 2253 4666 
z
" transform="scale(0.015625)"/>
       </defs>
       <use xlink:href="#DejaVuSans-30"/>
       <use xlink:href="#DejaVuSans-2e" x="63.623047"/>
       <use xlink:href="#DejaVuSans-30" x="95.410156"/>
       <use xlink:href="#DejaVuSans-30" x="159.033203"/>
       <use xlink:href="#DejaVuSans-34" x="222.65625"/>
       <use xlink:href="#DejaVuSans-30" x="286.279297"/>
      </g>
     </g>
    </g>
    <g id="text_10">
     <!-- Pixel values -->
     <g transform="translate(207.671719 316.706687) scale(0.1 -0.1)">
      <defs>
       <path id="DejaVuSans-50" d="M 1259 4147 
L 1259 2394 
L 2053 2394 
Q 2494 2394 2734 2622 
Q 2975 2850 2975 3272 
Q 2975 3691 2734 3919 
Q 2494 4147 2053 4147 
L 1259 4147 
z
M 628 4666 
L 2053 4666 
Q 2838 4666 3239 4311 
Q 3641 3956 3641 3272 
Q 3641 2581 3239 2228 
Q 2838 1875 2053 1875 
L 1259 1875 
L 1259 0 
L 628 0 
L 628 4666 
z
" transform="scale(0.015625)"/>
       <path id="DejaVuSans-69" d="M 603 3500 
L 1178 3500 
L 1178 0 
L 603 0 
L 603 3500 
z
M 603 4863 
L 1178 4863 
L 1178 4134 
L 603 4134 
L 603 4863 
z
" transform="scale(0.015625)"/>
       <path id="DejaVuSans-78" d="M 3513 3500 
L 2247 1797 
L 3578 0 
L 2900 0 
L 1881 1375 
L 863 0 
L 184 0 
L 1544 1831 
L 300 3500 
L 978 3500 
L 1906 2253 
L 2834 3500 
L 3513 3500 
z
" transform="scale(0.015625)"/>
       <path id="DejaVuSans-65" d="M 3597 1894 
L 3597 1613 
L 953 1613 
Q 991 1019 1311 708 
Q 1631 397 2203 397 
Q 2534 397 2845 478 
Q 3156 559 3463 722 
L 3463 178 
Q 3153 47 2828 -22 
Q 2503 -91 2169 -91 
Q 1331 -91 842 396 
Q 353 884 353 1716 
Q 353 2575 817 3079 
Q 1281 3584 2069 3584 
Q 2775 3584 3186 3129 
Q 3597 2675 3597 1894 
z
M 3022 2063 
Q 3016 2534 2758 2815 
Q 2500 3097 2075 3097 
Q 1594 3097 1305 2825 
Q 1016 2553 972 2059 
L 3022 2063 
z
" transform="scale(0.015625)"/>
       <path id="DejaVuSans-6c" d="M 603 4863 
L 1178 4863 
L 1178 0 
L 603 0 
L 603 4863 
z
" transform="scale(0.015625)"/>
       <path id="DejaVuSans-20" transform="scale(0.015625)"/>
       <path id="DejaVuSans-76" d="M 191 3500 
L 800 3500 
L 1894 563 
L 2988 3500 
L 3597 3500 
L 2284 0 
L 1503 0 
L 191 3500 
z
" transform="scale(0.015625)"/>
       <path id="DejaVuSans-61" d="M 2194 1759 
Q 1497 1759 1228 1600 
Q 959 1441 959 1056 
Q 959 750 1161 570 
Q 1363 391 1709 391 
Q 2188 391 2477 730 
Q 2766 1069 2766 1631 
L 2766 1759 
L 2194 1759 
z
M 3341 1997 
L 3341 0 
L 2766 0 
L 2766 531 
Q 2569 213 2275 61 
Q 1981 -91 1556 -91 
Q 1019 -91 701 211 
Q 384 513 384 1019 
Q 384 1609 779 1909 
Q 1175 2209 1959 2209 
L 2766 2209 
L 2766 2266 
Q 2766 2663 2505 2880 
Q 2244 3097 1772 3097 
Q 1472 3097 1187 3025 
Q 903 2953 641 2809 
L 641 3341 
Q 956 3463 1253 3523 
Q 1550 3584 1831 3584 
Q 2591 3584 2966 3190 
Q 3341 2797 3341 1997 
z
" transform="scale(0.015625)"/>
       <path id="DejaVuSans-75" d="M 544 1381 
L 544 3500 
L 1119 3500 
L 1119 1403 
Q 1119 906 1312 657 
Q 1506 409 1894 409 
Q 2359 409 2629 706 
Q 2900 1003 2900 1516 
L 2900 3500 
L 3475 3500 
L 3475 0 
L 2900 0 
L 2900 538 
Q 2691 219 2414 64 
Q 2138 -91 1772 -91 
Q 1169 -91 856 284 
Q 544 659 544 1381 
z
M 1991 3584 
L 1991 3584 
z
" transform="scale(0.015625)"/>
       <path id="DejaVuSans-73" d="M 2834 3397 
L 2834 2853 
Q 2591 2978 2328 3040 
Q 2066 3103 1784 3103 
Q 1356 3103 1142 2972 
Q 928 2841 928 2578 
Q 928 2378 1081 2264 
Q 1234 2150 1697 2047 
L 1894 2003 
Q 2506 1872 2764 1633 
Q 3022 1394 3022 966 
Q 3022 478 2636 193 
Q 2250 -91 1575 -91 
Q 1294 -91 989 -36 
Q 684 19 347 128 
L 347 722 
Q 666 556 975 473 
Q 1284 391 1588 391 
Q 1994 391 2212 530 
Q 2431 669 2431 922 
Q 2431 1156 2273 1281 
Q 2116 1406 1581 1522 
L 1381 1569 
Q 847 1681 609 1914 
Q 372 2147 372 2553 
Q 372 3047 722 3315 
Q 1072 3584 1716 3584 
Q 2034 3584 2315 3537 
Q 2597 3491 2834 3397 
z
" transform="scale(0.015625)"/>
      </defs>
      <use xlink:href="#DejaVuSans-50"/>
      <use xlink:href="#DejaVuSans-69" x="58.052734"/>
      <use xlink:href="#DejaVuSans-78" x="85.835938"/>
      <use xlink:href="#DejaVuSans-65" x="141.890625"/>
      <use xlink:href="#DejaVuSans-6c" x="203.414062"/>
      <use xlink:href="#DejaVuSans-20" x="231.197266"/>
      <use xlink:href="#DejaVuSans-76" x="262.984375"/>
      <use xlink:href="#DejaVuSans-61" x="322.164062"/>
      <use xlink:href="#DejaVuSans-6c" x="383.443359"/>
      <use xlink:href="#DejaVuSans-75" x="411.226562"/>
      <use xlink:href="#DejaVuSans-65" x="474.605469"/>
      <use xlink:href="#DejaVuSans-73" x="536.128906"/>
     </g>
    </g>
   </g>
   <g id="matplotlib.axis_2">
    <g id="ytick_1">
     <g id="line2d_10">
      <defs>
       <path id="m3181c5b586" d="M 0 0 
L -3.5 0 
" style="stroke: #000000; stroke-width: 0.8"/>
      </defs>
      <g>
       <use xlink:href="#m3181c5b586" x="58.523438" y="286.567714" style="stroke: #000000; stroke-width: 0.8"/>
      </g>
     </g>
     <g id="text_11">
      <!-- −0.01 -->
      <g transform="translate(20.878125 290.366932) scale(0.1 -0.1)">
       <defs>
        <path id="DejaVuSans-2212" d="M 678 2272 
L 4684 2272 
L 4684 1741 
L 678 1741 
L 678 2272 
z
" transform="scale(0.015625)"/>
       </defs>
       <use xlink:href="#DejaVuSans-2212"/>
       <use xlink:href="#DejaVuSans-30" x="83.789062"/>
       <use xlink:href="#DejaVuSans-2e" x="147.412109"/>
       <use xlink:href="#DejaVuSans-30" x="179.199219"/>
       <use xlink:href="#DejaVuSans-31" x="242.822266"/>
      </g>
     </g>
    </g>
    <g id="ytick_2">
     <g id="line2d_11">
      <g>
       <use xlink:href="#m3181c5b586" x="58.523438" y="253.221387" style="stroke: #000000; stroke-width: 0.8"/>
      </g>
     </g>
     <g id="text_12">
      <!-- 0.00 -->
      <g transform="translate(29.257813 257.020606) scale(0.1 -0.1)">
       <use xlink:href="#DejaVuSans-30"/>
       <use xlink:href="#DejaVuSans-2e" x="63.623047"/>
       <use xlink:href="#DejaVuSans-30" x="95.410156"/>
       <use xlink:href="#DejaVuSans-30" x="159.033203"/>
      </g>
     </g>
    </g>
    <g id="ytick_3">
     <g id="line2d_12">
      <g>
       <use xlink:href="#m3181c5b586" x="58.523438" y="219.875061" style="stroke: #000000; stroke-width: 0.8"/>
      </g>
     </g>
     <g id="text_13">
      <!-- 0.01 -->
      <g transform="translate(29.257813 223.674279) scale(0.1 -0.1)">
       <use xlink:href="#DejaVuSans-30"/>
       <use xlink:href="#DejaVuSans-2e" x="63.623047"/>
       <use xlink:href="#DejaVuSans-30" x="95.410156"/>
       <use xlink:href="#DejaVuSans-31" x="159.033203"/>
      </g>
     </g>
    </g>
    <g id="ytick_4">
     <g id="line2d_13">
      <g>
       <use xlink:href="#m3181c5b586" x="58.523438" y="186.528734" style="stroke: #000000; stroke-width: 0.8"/>
      </g>
     </g>
     <g id="text_14">
      <!-- 0.02 -->
      <g transform="translate(29.257813 190.327953) scale(0.1 -0.1)">
       <use xlink:href="#DejaVuSans-30"/>
       <use xlink:href="#DejaVuSans-2e" x="63.623047"/>
       <use xlink:href="#DejaVuSans-30" x="95.410156"/>
       <use xlink:href="#DejaVuSans-32" x="159.033203"/>
      </g>
     </g>
    </g>
    <g id="ytick_5">
     <g id="line2d_14">
      <g>
       <use xlink:href="#m3181c5b586" x="58.523438" y="153.182408" style="stroke: #000000; stroke-width: 0.8"/>
      </g>
     </g>
     <g id="text_15">
      <!-- 0.03 -->
      <g transform="translate(29.257813 156.981627) scale(0.1 -0.1)">
       <use xlink:href="#DejaVuSans-30"/>
       <use xlink:href="#DejaVuSans-2e" x="63.623047"/>
       <use xlink:href="#DejaVuSans-30" x="95.410156"/>
       <use xlink:href="#DejaVuSans-33" x="159.033203"/>
      </g>
     </g>
    </g>
    <g id="ytick_6">
     <g id="line2d_15">
      <g>
       <use xlink:href="#m3181c5b586" x="58.523438" y="119.836082" style="stroke: #000000; stroke-width: 0.8"/>
      </g>
     </g>
     <g id="text_16">
      <!-- 0.04 -->
      <g transform="translate(29.257813 123.6353) scale(0.1 -0.1)">
       <use xlink:href="#DejaVuSans-30"/>
       <use xlink:href="#DejaVuSans-2e" x="63.623047"/>
       <use xlink:href="#DejaVuSans-30" x="95.410156"/>
       <use xlink:href="#DejaVuSans-34" x="159.033203"/>
      </g>
     </g>
    </g>
    <g id="ytick_7">
     <g id="line2d_16">
      <g>
       <use xlink:href="#m3181c5b586" x="58.523438" y="86.489755" style="stroke: #000000; stroke-width: 0.8"/>
      </g>
     </g>
     <g id="text_17">
      <!-- 0.05 -->
      <g transform="translate(29.257813 90.288974) scale(0.1 -0.1)">
       <use xlink:href="#DejaVuSans-30"/>
       <use xlink:href="#DejaVuSans-2e" x="63.623047"/>
       <use xlink:href="#DejaVuSans-30" x="95.410156"/>
       <use xlink:href="#DejaVuSans-35" x="159.033203"/>
      </g>
     </g>
    </g>
    <g id="ytick_8">
     <g id="line2d_17">
      <g>
       <use xlink:href="#m3181c5b586" x="58.523438" y="53.143429" style="stroke: #000000; stroke-width: 0.8"/>
      </g>
     </g>
     <g id="text_18">
      <!-- 0.06 -->
      <g transform="translate(29.257813 56.942647) scale(0.1 -0.1)">
       <defs>
        <path id="DejaVuSans-36" d="M 2113 2584 
Q 1688 2584 1439 2293 
Q 1191 2003 1191 1497 
Q 1191 994 1439 701 
Q 1688 409 2113 409 
Q 2538 409 2786 701 
Q 3034 994 3034 1497 
Q 3034 2003 2786 2293 
Q 2538 2584 2113 2584 
z
M 3366 4563 
L 3366 3988 
Q 3128 4100 2886 4159 
Q 2644 4219 2406 4219 
Q 1781 4219 1451 3797 
Q 1122 3375 1075 2522 
Q 1259 2794 1537 2939 
Q 1816 3084 2150 3084 
Q 2853 3084 3261 2657 
Q 3669 2231 3669 1497 
Q 3669 778 3244 343 
Q 2819 -91 2113 -91 
Q 1303 -91 875 529 
Q 447 1150 447 2328 
Q 447 3434 972 4092 
Q 1497 4750 2381 4750 
Q 2619 4750 2861 4703 
Q 3103 4656 3366 4563 
z
" transform="scale(0.015625)"/>
       </defs>
       <use xlink:href="#DejaVuSans-30"/>
       <use xlink:href="#DejaVuSans-2e" x="63.623047"/>
       <use xlink:href="#DejaVuSans-30" x="95.410156"/>
       <use xlink:href="#DejaVuSans-36" x="159.033203"/>
      </g>
     </g>
    </g>
    <g id="text_19">
     <!-- Frequency -->
     <g transform="translate(14.798438 181.203812) rotate(-90) scale(0.1 -0.1)">
      <defs>
       <path id="DejaVuSans-46" d="M 628 4666 
L 3309 4666 
L 3309 4134 
L 1259 4134 
L 1259 2759 
L 3109 2759 
L 3109 2228 
L 1259 2228 
L 1259 0 
L 628 0 
L 628 4666 
z
" transform="scale(0.015625)"/>
       <path id="DejaVuSans-72" d="M 2631 2963 
Q 2534 3019 2420 3045 
Q 2306 3072 2169 3072 
Q 1681 3072 1420 2755 
Q 1159 2438 1159 1844 
L 1159 0 
L 581 0 
L 581 3500 
L 1159 3500 
L 1159 2956 
Q 1341 3275 1631 3429 
Q 1922 3584 2338 3584 
Q 2397 3584 2469 3576 
Q 2541 3569 2628 3553 
L 2631 2963 
z
" transform="scale(0.015625)"/>
       <path id="DejaVuSans-71" d="M 947 1747 
Q 947 1113 1208 752 
Q 1469 391 1925 391 
Q 2381 391 2643 752 
Q 2906 1113 2906 1747 
Q 2906 2381 2643 2742 
Q 2381 3103 1925 3103 
Q 1469 3103 1208 2742 
Q 947 2381 947 1747 
z
M 2906 525 
Q 2725 213 2448 61 
Q 2172 -91 1784 -91 
Q 1150 -91 751 415 
Q 353 922 353 1747 
Q 353 2572 751 3078 
Q 1150 3584 1784 3584 
Q 2172 3584 2448 3432 
Q 2725 3281 2906 2969 
L 2906 3500 
L 3481 3500 
L 3481 -1331 
L 2906 -1331 
L 2906 525 
z
" transform="scale(0.015625)"/>
       <path id="DejaVuSans-6e" d="M 3513 2113 
L 3513 0 
L 2938 0 
L 2938 2094 
Q 2938 2591 2744 2837 
Q 2550 3084 2163 3084 
Q 1697 3084 1428 2787 
Q 1159 2491 1159 1978 
L 1159 0 
L 581 0 
L 581 3500 
L 1159 3500 
L 1159 2956 
Q 1366 3272 1645 3428 
Q 1925 3584 2291 3584 
Q 2894 3584 3203 3211 
Q 3513 2838 3513 2113 
z
" transform="scale(0.015625)"/>
       <path id="DejaVuSans-63" d="M 3122 3366 
L 3122 2828 
Q 2878 2963 2633 3030 
Q 2388 3097 2138 3097 
Q 1578 3097 1268 2742 
Q 959 2388 959 1747 
Q 959 1106 1268 751 
Q 1578 397 2138 397 
Q 2388 397 2633 464 
Q 2878 531 3122 666 
L 3122 134 
Q 2881 22 2623 -34 
Q 2366 -91 2075 -91 
Q 1284 -91 818 406 
Q 353 903 353 1747 
Q 353 2603 823 3093 
Q 1294 3584 2113 3584 
Q 2378 3584 2631 3529 
Q 2884 3475 3122 3366 
z
" transform="scale(0.015625)"/>
       <path id="DejaVuSans-79" d="M 2059 -325 
Q 1816 -950 1584 -1140 
Q 1353 -1331 966 -1331 
L 506 -1331 
L 506 -850 
L 844 -850 
Q 1081 -850 1212 -737 
Q 1344 -625 1503 -206 
L 1606 56 
L 191 3500 
L 800 3500 
L 1894 763 
L 2988 3500 
L 3597 3500 
L 2059 -325 
z
" transform="scale(0.015625)"/>
      </defs>
      <use xlink:href="#DejaVuSans-46"/>
      <use xlink:href="#DejaVuSans-72" x="50.269531"/>
      <use xlink:href="#DejaVuSans-65" x="89.132812"/>
      <use xlink:href="#DejaVuSans-71" x="150.65625"/>
      <use xlink:href="#DejaVuSans-75" x="214.132812"/>
      <use xlink:href="#DejaVuSans-65" x="277.511719"/>
      <use xlink:href="#DejaVuSans-6e" x="339.035156"/>
      <use xlink:href="#DejaVuSans-63" x="402.414062"/>
      <use xlink:href="#DejaVuSans-79" x="457.394531"/>
     </g>
    </g>
   </g>
   <g id="line2d_18">
    <path d="M 74.756165 270.596868 
L 76.058356 254.344862 
L 77.360547 244.238724 
L 78.662739 239.338218 
L 79.96493 238.566007 
L 81.267121 240.798482 
L 82.569313 244.936185 
L 83.871504 249.95658 
L 85.173695 254.951675 
L 86.475887 259.152789 
L 87.778078 261.944537 
L 89.080269 262.869907 
L 90.382461 261.628112 
L 91.684652 258.066723 
L 92.986843 252.169424 
L 94.289035 244.04056 
L 95.591226 233.887528 
L 96.893417 222.001892 
L 98.195609 208.739992 
L 99.4978 194.503716 
L 100.799991 179.721948 
L 102.102183 164.833156 
L 103.404374 150.269461 
L 104.706565 136.442449 
L 106.008757 123.73092 
L 107.310948 112.470691 
L 108.613139 102.946518 
L 109.915331 95.386136 
L 111.217522 89.956376 
L 112.519713 86.761275 
L 113.821904 85.84207 
L 115.124096 87.178906 
L 116.426287 90.694109 
L 117.728478 96.256819 
L 119.03067 103.688782 
L 120.332861 112.771091 
L 121.635052 123.251646 
L 122.937244 134.853128 
L 124.239435 147.281264 
L 125.541626 160.233159 
L 126.843818 173.405523 
L 128.146009 186.502571 
L 129.4482 199.243449 
L 130.750392 211.369009 
L 132.052583 222.647805 
L 133.354774 232.881186 
L 134.656966 241.907402 
L 135.959157 249.604628 
L 137.261348 255.892877 
L 138.56354 253.206479 
L 139.865731 253.208408 
L 141.167922 264.434401 
L 142.470114 265.300428 
L 143.772305 265.054663 
L 145.074496 263.832753 
L 146.376688 261.79157 
L 147.678879 259.103965 
L 148.98107 255.953142 
L 150.283262 252.526785 
L 151.585453 249.011093 
L 152.887644 245.584875 
L 154.189836 242.413846 
L 155.492027 239.645297 
L 156.794218 237.403284 
L 158.096409 235.784487 
L 159.398601 234.854882 
L 160.700792 234.647359 
L 162.002983 235.160405 
L 163.305175 236.357942 
L 164.607366 238.170405 
L 165.909557 240.497117 
L 167.211749 243.209963 
L 168.51394 246.15837 
L 169.816131 249.175533 
L 171.118323 252.085779 
L 172.420514 254.712947 
L 173.722705 256.88956 
L 175.024897 258.466549 
L 176.327088 259.323191 
L 177.629279 259.376877 
L 178.931471 258.592224 
L 180.233662 256.988994 
L 181.535853 254.648159 
L 182.838045 251.715387 
L 184.140236 248.401093 
L 185.442427 244.976116 
L 186.744619 241.761943 
L 188.04681 239.114299 
L 189.349001 237.398772 
L 190.651193 236.957018 
L 191.953384 238.061935 
L 193.255575 240.860039 
L 194.557767 245.299129 
L 195.859958 251.039137 
L 197.162149 257.343876 
L 198.464341 262.951252 
L 199.766532 265.919237 
L 201.068723 263.444774 
L 202.370914 251.652498 
L 203.673106 225.349979 
" clip-path="url(#p219177e5d1)" style="fill: none; stroke: #1f77b4; stroke-width: 1.5; stroke-linecap: square"/>
   </g>
   <g id="line2d_19">
    <path d="M 74.756165 235.157123 
L 75.714143 261.117934 
L 76.672122 269.185818 
L 77.6301 266.93197 
L 78.588079 259.728967 
L 79.546057 251.20231 
L 80.504036 243.615017 
L 81.462014 238.192428 
L 82.419993 235.393796 
L 83.377971 235.136803 
L 84.33595 236.980608 
L 85.293928 240.272615 
L 86.251907 244.263695 
L 87.209885 248.1962 
L 88.167864 251.368699 
L 89.125843 253.181038 
L 90.083821 253.162922 
L 91.0418 250.988945 
L 91.999778 246.482655 
L 92.957757 239.611963 
L 93.915735 230.477924 
L 94.873714 219.298697 
L 95.831692 206.390213 
L 96.789671 192.144898 
L 97.747649 177.00958 
L 98.705628 161.463522 
L 99.663606 145.997365 
L 100.621585 131.093596 
L 101.579563 117.209024 
L 102.537542 104.759611 
L 103.49552 94.107893 
L 104.453499 85.553135 
L 105.411477 79.324251 
L 106.369456 75.575464 
L 107.327434 74.384594 
L 108.285413 75.753819 
L 109.243391 79.612707 
L 110.20137 85.823249 
L 111.159348 94.186655 
L 112.117327 104.451574 
L 113.075305 116.323461 
L 114.033284 129.474754 
L 114.991262 143.555555 
L 115.949241 158.204495 
L 116.90722 173.059495 
L 117.865198 187.768135 
L 118.823177 201.997377 
L 119.781155 215.442394 
L 120.739134 227.834323 
L 121.697112 253.201876 
L 122.655091 253.202329 
L 123.613069 257.172926 
L 124.571048 263.90466 
L 125.529026 268.919207 
L 126.487005 272.235135 
L 127.444983 273.922443 
L 128.402962 274.098841 
L 129.36094 272.924625 
L 130.318919 270.596312 
L 131.276897 267.339185 
L 132.234876 263.398982 
L 133.192854 259.032941 
L 134.150833 254.500454 
L 135.108811 250.053632 
L 136.06679 245.928022 
L 137.024768 242.333819 
L 137.982747 239.447838 
L 138.940725 237.406546 
L 139.898704 236.300448 
L 140.856682 236.170079 
L 141.814661 237.003834 
L 142.772639 238.737853 
L 143.730618 241.258099 
L 144.688597 244.404741 
L 145.646575 247.978875 
L 146.604554 251.751548 
L 147.562532 255.474945 
L 148.520511 258.895543 
L 149.478489 261.768863 
L 150.436468 263.875389 
L 151.394446 265.03704 
L 152.352425 265.133456 
L 153.310403 264.117183 
L 154.268382 262.026659 
L 155.22636 258.995713 
L 156.184339 255.25808 
L 157.142317 251.145183 
L 158.100296 247.075223 
L 159.058274 243.531319 
L 160.016253 241.026177 
L 160.974231 240.05047 
L 161.93221 241.001764 
L 162.890188 244.090525 
L 163.848167 249.219337 
L 164.806145 255.831118 
L 165.764124 262.721694 
L 166.722102 267.811672 
L 167.680081 267.872113 
L 168.638059 258.19802 
L 169.596038 232.223174 
" clip-path="url(#p219177e5d1)" style="fill: none; stroke: #ff7f0e; stroke-width: 1.5; stroke-linecap: square"/>
   </g>
   <g id="line2d_20">
    <path d="M 74.756165 248.658316 
L 75.783219 260.574821 
L 76.810274 261.302214 
L 77.837328 256.456187 
L 78.864382 249.828012 
L 79.891437 243.788341 
L 80.918491 239.627846 
L 81.945546 237.841708 
L 82.9726 238.364447 
L 83.999654 240.761052 
L 85.026709 244.379906 
L 86.053763 248.472533 
L 87.080818 252.284743 
L 88.107872 255.123372 
L 89.134926 256.402385 
L 90.161981 255.671757 
L 91.189035 252.632219 
L 92.216089 247.138586 
L 93.243144 239.194115 
L 94.270198 228.938043 
L 95.297253 216.628175 
L 96.324307 202.620162 
L 97.351361 187.344865 
L 98.378416 171.28499 
L 99.40547 154.951983 
L 100.432525 138.864002 
L 101.459579 123.525588 
L 102.486633 109.409559 
L 103.513688 96.941451 
L 104.540742 86.486776 
L 105.567797 78.341193 
L 106.594851 72.723654 
L 107.621905 69.772454 
L 108.64896 69.544073 
L 109.676014 72.014636 
L 110.703069 77.083736 
L 111.730123 84.580379 
L 112.757177 94.270726 
L 113.784232 105.867323 
L 114.811286 119.039471 
L 115.838341 133.424413 
L 116.865395 148.638966 
L 117.892449 164.291305 
L 118.919504 179.992538 
L 119.946558 195.367806 
L 120.973613 210.066615 
L 122.000667 223.77215 
L 123.027721 236.209364 
L 124.054776 247.151654 
L 125.08183 253.201698 
L 126.108885 253.202985 
L 127.135939 268.91374 
L 128.162993 273.115553 
L 129.190048 275.558024 
L 130.217102 276.334125 
L 131.244157 275.5847 
L 132.271211 273.492878 
L 133.298265 270.277258 
L 134.32532 266.184042 
L 135.352374 261.478343 
L 136.379429 256.434871 
L 137.406483 251.328293 
L 138.433537 246.423501 
L 139.460592 241.966103 
L 140.487646 238.173425 
L 141.5147 235.226307 
L 142.541755 233.262006 
L 143.568809 232.368475 
L 144.595864 232.580276 
L 145.622918 233.876389 
L 146.649972 236.180081 
L 147.677027 239.361037 
L 148.704081 243.239827 
L 149.731136 247.594772 
L 150.75819 252.171182 
L 151.785244 256.692848 
L 152.812299 260.87559 
L 153.839353 264.442546 
L 154.866408 267.140785 
L 155.893462 268.758659 
L 156.920516 269.143225 
L 157.947571 268.216833 
L 158.974625 265.991876 
L 160.00168 262.58247 
L 161.028734 258.211619 
L 162.055788 253.212253 
L 163.082843 248.020225 
L 164.109897 243.157158 
L 165.136952 239.200729 
L 166.164006 236.739705 
L 167.19106 236.310738 
L 168.218115 238.313591 
L 169.245169 242.901142 
L 170.272224 249.840144 
L 171.299278 258.338312 
L 172.326332 266.83294 
L 173.353387 272.735797 
L 174.380441 272.128616 
L 175.407496 259.403015 
L 176.43455 226.838192 
" clip-path="url(#p219177e5d1)" style="fill: none; stroke: #2ca02c; stroke-width: 1.5; stroke-linecap: square"/>
   </g>
   <g id="line2d_21">
    <path d="M 74.756165 148.031667 
L 78.035504 187.869558 
L 81.314842 195.972597 
L 84.594181 183.911484 
L 87.87352 160.500017 
L 91.152859 132.273525 
L 94.432198 103.905057 
L 97.711537 78.565328 
L 100.990876 58.232034 
L 104.270214 43.95373 
L 107.549553 36.073106 
L 110.828892 34.414125 
L 114.108231 38.437167 
L 117.38757 47.365963 
L 120.666909 60.28983 
L 123.946247 76.244402 
L 127.225586 94.273772 
L 130.504925 113.476726 
L 133.784264 133.039452 
L 137.063603 152.256927 
L 140.342942 170.544918 
L 143.62228 187.444356 
L 146.901619 202.619633 
L 150.180958 215.852191 
L 153.460297 227.030619 
L 156.739636 236.138284 
L 160.018975 243.239413 
L 163.298314 248.464376 
L 166.577652 251.994822 
L 169.856991 254.049193 
L 173.13633 254.869026 
L 176.415669 254.706393 
L 179.695008 253.812709 
L 182.974347 252.429074 
L 186.253685 250.778266 
L 189.533024 249.058406 
L 192.812363 247.438306 
L 196.091702 246.054423 
L 199.371041 245.009351 
L 202.65038 244.371708 
L 205.929718 244.177287 
L 209.209057 244.431296 
L 212.488396 245.111518 
L 215.767735 246.172189 
L 219.047074 247.548428 
L 222.326413 249.161003 
L 225.605752 250.921279 
L 228.88509 252.736141 
L 232.164429 254.512763 
L 235.443768 253.219631 
L 238.723107 253.219625 
L 242.002446 257.628957 
L 245.281785 258.553795 
L 248.561123 259.174396 
L 251.840462 259.466654 
L 255.119801 259.422667 
L 258.39914 259.050816 
L 261.678479 258.375179 
L 264.957818 257.43429 
L 268.237157 256.279306 
L 271.516495 254.97164 
L 274.795834 253.580152 
L 278.075173 252.177987 
L 281.354512 250.839185 
L 284.633851 249.635168 
L 287.91319 248.631252 
L 291.192528 247.883315 
L 294.471867 247.434756 
L 297.751206 247.313889 
L 301.030545 247.531901 
L 304.309884 248.081509 
L 307.589223 248.936408 
L 310.868561 250.051628 
L 314.1479 251.364852 
L 317.427239 252.798744 
L 320.706578 254.264303 
L 323.985917 255.665194 
L 327.265256 256.903002 
L 330.544595 257.883263 
L 333.823933 258.522082 
L 337.103272 258.753104 
L 340.382611 258.534474 
L 343.66195 257.855412 
L 346.941289 256.741865 
L 350.220628 255.260672 
L 353.499966 253.521505 
L 356.779305 251.675776 
L 360.058644 249.91157 
L 363.337983 248.4435 
L 366.617322 247.49627 
L 369.896661 247.280558 
L 373.175999 247.959669 
L 376.455338 249.605223 
L 379.734677 252.139979 
L 383.014016 255.26566 
L 386.293355 258.37347 
L 389.572694 260.434741 
L 392.852033 259.868929 
L 396.131371 254.385923 
L 399.41071 240.799368 
" clip-path="url(#p219177e5d1)" style="fill: none; stroke: #d62728; stroke-width: 1.5; stroke-linecap: square"/>
   </g>
   <g id="line2d_22">
    <path d="M 74.756165 251.265537 
L 75.810895 253.036812 
L 76.865625 254.160976 
L 77.920354 254.502792 
L 78.975084 254.02283 
L 80.029814 252.751391 
L 81.084544 250.767002 
L 82.139274 248.178895 
L 83.194004 245.112997 
L 84.248734 241.700949 
L 85.303464 238.071737 
L 86.358193 234.345568 
L 87.412923 230.629612 
L 88.467653 227.015338 
L 89.522383 223.577126 
L 90.577113 220.371932 
L 91.631843 217.439775 
L 92.686573 214.804845 
L 93.741303 212.477072 
L 94.796032 210.454 
L 95.850762 208.722851 
L 96.905492 207.262654 
L 97.960222 206.046366 
L 99.014952 205.042914 
L 100.069682 204.219077 
L 101.124412 203.541203 
L 102.179142 202.976689 
L 103.233871 202.495234 
L 104.288601 202.069841 
L 105.343331 201.677561 
L 106.398061 201.299996 
L 107.452791 200.92357 
L 108.507521 200.53957 
L 109.562251 200.143995 
L 110.616981 199.737236 
L 111.67171 199.3236 
L 112.72644 198.910718 
L 113.78117 198.508864 
L 114.8359 198.130215 
L 115.89063 197.788076 
L 116.94536 197.496102 
L 118.00009 197.267552 
L 119.05482 197.114579 
L 120.109549 197.047598 
L 121.164279 197.074742 
L 122.219009 197.201428 
L 123.273739 197.430031 
L 124.328469 197.759706 
L 125.383199 198.186323 
L 126.437929 253.21128 
L 127.492659 253.211105 
L 128.547388 200.270349 
L 129.602118 200.916823 
L 130.656848 201.583964 
L 131.711578 202.258022 
L 132.766308 202.925646 
L 133.821038 203.574495 
L 134.875768 204.193835 
L 135.930498 204.775136 
L 136.985227 205.312622 
L 138.039957 205.803763 
L 139.094687 206.249696 
L 140.149417 206.65554 
L 141.204147 207.030597 
L 142.258877 207.388414 
L 143.313607 207.746694 
L 144.368337 208.12704 
L 145.423066 208.554522 
L 146.477796 209.057063 
L 147.532526 209.66463 
L 148.587256 210.408253 
L 149.641986 211.31886 
L 150.696716 212.425949 
L 151.751446 213.756129 
L 152.806175 215.331549 
L 153.860905 217.168253 
L 154.915635 219.27452 
L 155.970365 221.649244 
L 157.025095 224.280423 
L 158.079825 227.143843 
L 159.134555 230.202066 
L 160.189285 233.403813 
L 161.244014 236.683893 
L 162.298744 239.963816 
L 163.353474 243.153249 
L 164.408204 246.152512 
L 165.462934 248.856303 
L 166.517664 251.158893 
L 167.572394 252.961033 
L 168.627124 254.17885 
L 169.681853 254.755029 
L 170.736583 254.672612 
L 171.791313 253.971771 
L 172.846043 252.769937 
L 173.900773 251.285705 
L 174.955503 249.866971 
L 176.010233 249.023775 
L 177.064963 249.466387 
L 178.119692 252.149182 
L 179.174422 258.320913 
" clip-path="url(#p219177e5d1)" style="fill: none; stroke: #9467bd; stroke-width: 1.5; stroke-linecap: square"/>
   </g>
   <g id="line2d_23">
    <path d="M 74.756165 231.48874 
L 75.653737 258.460585 
L 76.55131 269.253192 
L 77.448883 269.910429 
L 78.346455 264.898157 
L 79.244028 257.399693 
L 80.1416 249.571002 
L 81.039173 242.759572 
L 81.936745 237.690693 
L 82.834318 234.624549 
L 83.731891 233.487339 
L 84.629463 233.979354 
L 85.527036 235.662755 
L 86.424608 238.031548 
L 87.322181 240.566064 
L 88.219753 242.774064 
L 89.117326 244.220371 
L 90.014899 244.546805 
L 90.912471 243.483982 
L 91.810044 240.85642 
L 92.707616 236.582227 
L 93.605189 230.66851 
L 94.502761 223.203524 
L 95.400334 214.34644 
L 96.297907 204.315527 
L 97.195479 193.375399 
L 98.093052 181.823911 
L 98.990624 169.979188 
L 99.888197 158.167183 
L 100.785769 146.710079 
L 101.683342 135.915802 
L 102.580915 126.068819 
L 103.478487 117.422363 
L 104.37606 110.192154 
L 105.273632 104.551659 
L 106.171205 100.628881 
L 107.068778 98.504628 
L 107.96635 98.212199 
L 108.863923 99.738388 
L 109.761495 103.025678 
L 110.659068 107.975498 
L 111.55664 114.452397 
L 112.454213 122.288964 
L 113.351786 131.291343 
L 114.249358 141.245174 
L 115.146931 151.921795 
L 116.044503 163.084544 
L 116.942076 174.495007 
L 117.839648 185.919067 
L 118.737221 253.205272 
L 119.634794 253.204806 
L 120.532366 219.515695 
L 121.429939 229.001842 
L 122.327511 237.503306 
L 123.225084 244.913232 
L 124.122656 251.159549 
L 125.020229 256.205558 
L 125.917802 260.049536 
L 126.815374 262.723378 
L 127.712947 264.29032 
L 128.610519 264.84182 
L 129.508092 264.493679 
L 130.405664 263.381524 
L 131.303237 261.655757 
L 132.20081 259.47613 
L 133.098382 257.006092 
L 133.995955 254.407067 
L 134.893527 251.83284 
L 135.7911 249.424218 
L 136.688673 247.304145 
L 137.586245 245.573445 
L 138.483818 244.307337 
L 139.38139 243.552898 
L 140.278963 243.327589 
L 141.176535 243.61895 
L 142.074108 244.385571 
L 142.971681 245.559358 
L 143.869253 247.049128 
L 144.766826 248.745474 
L 145.664398 250.526837 
L 146.561971 252.26661 
L 147.459543 253.84108 
L 148.357116 255.137903 
L 149.254689 256.064745 
L 150.152261 256.557639 
L 151.049834 256.588466 
L 151.947406 256.17093 
L 152.844979 255.364204 
L 153.742551 254.273357 
L 154.640124 253.045515 
L 155.537697 251.860536 
L 156.435269 250.914884 
L 157.332842 250.397151 
L 158.230414 250.453551 
L 159.127987 251.141494 
L 160.025559 252.369149 
L 160.923132 253.818702 
L 161.820705 254.850786 
L 162.718277 254.387311 
L 163.61585 250.769694 
" clip-path="url(#p219177e5d1)" style="fill: none; stroke: #8c564b; stroke-width: 1.5; stroke-linecap: square"/>
   </g>
   <g id="patch_3">
    <path d="M 58.523438 288.430125 
L 58.523438 22.318125 
" style="fill: none; stroke: #000000; stroke-width: 0.8; stroke-linejoin: miter; stroke-linecap: square"/>
   </g>
   <g id="patch_4">
    <path d="M 415.643438 288.430125 
L 415.643438 22.318125 
" style="fill: none; stroke: #000000; stroke-width: 0.8; stroke-linejoin: miter; stroke-linecap: square"/>
   </g>
   <g id="patch_5">
    <path d="M 58.523438 288.430125 
L 415.643438 288.430125 
" style="fill: none; stroke: #000000; stroke-width: 0.8; stroke-linejoin: miter; stroke-linecap: square"/>
   </g>
   <g id="patch_6">
    <path d="M 58.523438 22.318125 
L 415.643438 22.318125 
" style="fill: none; stroke: #000000; stroke-width: 0.8; stroke-linejoin: miter; stroke-linecap: square"/>
   </g>
   <g id="text_20">
    <!-- MD - Cortico_Ponto_Cerebellum_Right -->
    <g transform="translate(123.9075 16.318125) scale(0.12 -0.12)">
     <defs>
      <path id="DejaVuSans-4d" d="M 628 4666 
L 1569 4666 
L 2759 1491 
L 3956 4666 
L 4897 4666 
L 4897 0 
L 4281 0 
L 4281 4097 
L 3078 897 
L 2444 897 
L 1241 4097 
L 1241 0 
L 628 0 
L 628 4666 
z
" transform="scale(0.015625)"/>
      <path id="DejaVuSans-44" d="M 1259 4147 
L 1259 519 
L 2022 519 
Q 2988 519 3436 956 
Q 3884 1394 3884 2338 
Q 3884 3275 3436 3711 
Q 2988 4147 2022 4147 
L 1259 4147 
z
M 628 4666 
L 1925 4666 
Q 3281 4666 3915 4102 
Q 4550 3538 4550 2338 
Q 4550 1131 3912 565 
Q 3275 0 1925 0 
L 628 0 
L 628 4666 
z
" transform="scale(0.015625)"/>
      <path id="DejaVuSans-2d" d="M 313 2009 
L 1997 2009 
L 1997 1497 
L 313 1497 
L 313 2009 
z
" transform="scale(0.015625)"/>
      <path id="DejaVuSans-43" d="M 4122 4306 
L 4122 3641 
Q 3803 3938 3442 4084 
Q 3081 4231 2675 4231 
Q 1875 4231 1450 3742 
Q 1025 3253 1025 2328 
Q 1025 1406 1450 917 
Q 1875 428 2675 428 
Q 3081 428 3442 575 
Q 3803 722 4122 1019 
L 4122 359 
Q 3791 134 3420 21 
Q 3050 -91 2638 -91 
Q 1578 -91 968 557 
Q 359 1206 359 2328 
Q 359 3453 968 4101 
Q 1578 4750 2638 4750 
Q 3056 4750 3426 4639 
Q 3797 4528 4122 4306 
z
" transform="scale(0.015625)"/>
      <path id="DejaVuSans-6f" d="M 1959 3097 
Q 1497 3097 1228 2736 
Q 959 2375 959 1747 
Q 959 1119 1226 758 
Q 1494 397 1959 397 
Q 2419 397 2687 759 
Q 2956 1122 2956 1747 
Q 2956 2369 2687 2733 
Q 2419 3097 1959 3097 
z
M 1959 3584 
Q 2709 3584 3137 3096 
Q 3566 2609 3566 1747 
Q 3566 888 3137 398 
Q 2709 -91 1959 -91 
Q 1206 -91 779 398 
Q 353 888 353 1747 
Q 353 2609 779 3096 
Q 1206 3584 1959 3584 
z
" transform="scale(0.015625)"/>
      <path id="DejaVuSans-74" d="M 1172 4494 
L 1172 3500 
L 2356 3500 
L 2356 3053 
L 1172 3053 
L 1172 1153 
Q 1172 725 1289 603 
Q 1406 481 1766 481 
L 2356 481 
L 2356 0 
L 1766 0 
Q 1100 0 847 248 
Q 594 497 594 1153 
L 594 3053 
L 172 3053 
L 172 3500 
L 594 3500 
L 594 4494 
L 1172 4494 
z
" transform="scale(0.015625)"/>
      <path id="DejaVuSans-5f" d="M 3263 -1063 
L 3263 -1509 
L -63 -1509 
L -63 -1063 
L 3263 -1063 
z
" transform="scale(0.015625)"/>
      <path id="DejaVuSans-62" d="M 3116 1747 
Q 3116 2381 2855 2742 
Q 2594 3103 2138 3103 
Q 1681 3103 1420 2742 
Q 1159 2381 1159 1747 
Q 1159 1113 1420 752 
Q 1681 391 2138 391 
Q 2594 391 2855 752 
Q 3116 1113 3116 1747 
z
M 1159 2969 
Q 1341 3281 1617 3432 
Q 1894 3584 2278 3584 
Q 2916 3584 3314 3078 
Q 3713 2572 3713 1747 
Q 3713 922 3314 415 
Q 2916 -91 2278 -91 
Q 1894 -91 1617 61 
Q 1341 213 1159 525 
L 1159 0 
L 581 0 
L 581 4863 
L 1159 4863 
L 1159 2969 
z
" transform="scale(0.015625)"/>
      <path id="DejaVuSans-6d" d="M 3328 2828 
Q 3544 3216 3844 3400 
Q 4144 3584 4550 3584 
Q 5097 3584 5394 3201 
Q 5691 2819 5691 2113 
L 5691 0 
L 5113 0 
L 5113 2094 
Q 5113 2597 4934 2840 
Q 4756 3084 4391 3084 
Q 3944 3084 3684 2787 
Q 3425 2491 3425 1978 
L 3425 0 
L 2847 0 
L 2847 2094 
Q 2847 2600 2669 2842 
Q 2491 3084 2119 3084 
Q 1678 3084 1418 2786 
Q 1159 2488 1159 1978 
L 1159 0 
L 581 0 
L 581 3500 
L 1159 3500 
L 1159 2956 
Q 1356 3278 1631 3431 
Q 1906 3584 2284 3584 
Q 2666 3584 2933 3390 
Q 3200 3197 3328 2828 
z
" transform="scale(0.015625)"/>
      <path id="DejaVuSans-52" d="M 2841 2188 
Q 3044 2119 3236 1894 
Q 3428 1669 3622 1275 
L 4263 0 
L 3584 0 
L 2988 1197 
Q 2756 1666 2539 1819 
Q 2322 1972 1947 1972 
L 1259 1972 
L 1259 0 
L 628 0 
L 628 4666 
L 2053 4666 
Q 2853 4666 3247 4331 
Q 3641 3997 3641 3322 
Q 3641 2881 3436 2590 
Q 3231 2300 2841 2188 
z
M 1259 4147 
L 1259 2491 
L 2053 2491 
Q 2509 2491 2742 2702 
Q 2975 2913 2975 3322 
Q 2975 3731 2742 3939 
Q 2509 4147 2053 4147 
L 1259 4147 
z
" transform="scale(0.015625)"/>
      <path id="DejaVuSans-67" d="M 2906 1791 
Q 2906 2416 2648 2759 
Q 2391 3103 1925 3103 
Q 1463 3103 1205 2759 
Q 947 2416 947 1791 
Q 947 1169 1205 825 
Q 1463 481 1925 481 
Q 2391 481 2648 825 
Q 2906 1169 2906 1791 
z
M 3481 434 
Q 3481 -459 3084 -895 
Q 2688 -1331 1869 -1331 
Q 1566 -1331 1297 -1286 
Q 1028 -1241 775 -1147 
L 775 -588 
Q 1028 -725 1275 -790 
Q 1522 -856 1778 -856 
Q 2344 -856 2625 -561 
Q 2906 -266 2906 331 
L 2906 616 
Q 2728 306 2450 153 
Q 2172 0 1784 0 
Q 1141 0 747 490 
Q 353 981 353 1791 
Q 353 2603 747 3093 
Q 1141 3584 1784 3584 
Q 2172 3584 2450 3431 
Q 2728 3278 2906 2969 
L 2906 3500 
L 3481 3500 
L 3481 434 
z
" transform="scale(0.015625)"/>
      <path id="DejaVuSans-68" d="M 3513 2113 
L 3513 0 
L 2938 0 
L 2938 2094 
Q 2938 2591 2744 2837 
Q 2550 3084 2163 3084 
Q 1697 3084 1428 2787 
Q 1159 2491 1159 1978 
L 1159 0 
L 581 0 
L 581 4863 
L 1159 4863 
L 1159 2956 
Q 1366 3272 1645 3428 
Q 1925 3584 2291 3584 
Q 2894 3584 3203 3211 
Q 3513 2838 3513 2113 
z
" transform="scale(0.015625)"/>
     </defs>
     <use xlink:href="#DejaVuSans-4d"/>
     <use xlink:href="#DejaVuSans-44" x="86.279297"/>
     <use xlink:href="#DejaVuSans-20" x="163.28125"/>
     <use xlink:href="#DejaVuSans-2d" x="195.068359"/>
     <use xlink:href="#DejaVuSans-20" x="231.152344"/>
     <use xlink:href="#DejaVuSans-43" x="262.939453"/>
     <use xlink:href="#DejaVuSans-6f" x="332.763672"/>
     <use xlink:href="#DejaVuSans-72" x="393.945312"/>
     <use xlink:href="#DejaVuSans-74" x="435.058594"/>
     <use xlink:href="#DejaVuSans-69" x="474.267578"/>
     <use xlink:href="#DejaVuSans-63" x="502.050781"/>
     <use xlink:href="#DejaVuSans-6f" x="557.03125"/>
     <use xlink:href="#DejaVuSans-5f" x="618.212891"/>
     <use xlink:href="#DejaVuSans-50" x="668.212891"/>
     <use xlink:href="#DejaVuSans-6f" x="724.890625"/>
     <use xlink:href="#DejaVuSans-6e" x="786.072266"/>
     <use xlink:href="#DejaVuSans-74" x="849.451172"/>
     <use xlink:href="#DejaVuSans-6f" x="888.660156"/>
     <use xlink:href="#DejaVuSans-5f" x="949.841797"/>
     <use xlink:href="#DejaVuSans-43" x="999.841797"/>
     <use xlink:href="#DejaVuSans-65" x="1069.666016"/>
     <use xlink:href="#DejaVuSans-72" x="1131.189453"/>
     <use xlink:href="#DejaVuSans-65" x="1170.052734"/>
     <use xlink:href="#DejaVuSans-62" x="1231.576172"/>
     <use xlink:href="#DejaVuSans-65" x="1295.052734"/>
     <use xlink:href="#DejaVuSans-6c" x="1356.576172"/>
     <use xlink:href="#DejaVuSans-6c" x="1384.359375"/>
     <use xlink:href="#DejaVuSans-75" x="1412.142578"/>
     <use xlink:href="#DejaVuSans-6d" x="1475.521484"/>
     <use xlink:href="#DejaVuSans-5f" x="1572.933594"/>
     <use xlink:href="#DejaVuSans-52" x="1622.933594"/>
     <use xlink:href="#DejaVuSans-69" x="1692.416016"/>
     <use xlink:href="#DejaVuSans-67" x="1720.199219"/>
     <use xlink:href="#DejaVuSans-68" x="1783.675781"/>
     <use xlink:href="#DejaVuSans-74" x="1847.054688"/>
    </g>
   </g>
   <g id="legend_1">
    <g id="patch_7">
     <path d="M 458.355438 146.666825 
L 556.211688 146.666825 
Q 558.211688 146.666825 558.211688 144.666825 
L 558.211688 55.929325 
Q 558.211688 53.929325 556.211688 53.929325 
L 458.355438 53.929325 
Q 456.355438 53.929325 456.355438 55.929325 
L 456.355438 144.666825 
Q 456.355438 146.666825 458.355438 146.666825 
z
" style="fill: #ffffff; opacity: 0.8; stroke: #cccccc; stroke-linejoin: miter"/>
    </g>
    <g id="line2d_24">
     <path d="M 460.355438 62.027762 
L 470.355438 62.027762 
L 480.355438 62.027762 
" style="fill: none; stroke: #1f77b4; stroke-width: 1.5; stroke-linecap: square"/>
    </g>
    <g id="text_21">
     <!-- 20_06_02_E3 -->
     <g transform="translate(488.355438 65.527762) scale(0.1 -0.1)">
      <defs>
       <path id="DejaVuSans-45" d="M 628 4666 
L 3578 4666 
L 3578 4134 
L 1259 4134 
L 1259 2753 
L 3481 2753 
L 3481 2222 
L 1259 2222 
L 1259 531 
L 3634 531 
L 3634 0 
L 628 0 
L 628 4666 
z
" transform="scale(0.015625)"/>
      </defs>
      <use xlink:href="#DejaVuSans-32"/>
      <use xlink:href="#DejaVuSans-30" x="63.623047"/>
      <use xlink:href="#DejaVuSans-5f" x="127.246094"/>
      <use xlink:href="#DejaVuSans-30" x="177.246094"/>
      <use xlink:href="#DejaVuSans-36" x="240.869141"/>
      <use xlink:href="#DejaVuSans-5f" x="304.492188"/>
      <use xlink:href="#DejaVuSans-30" x="354.492188"/>
      <use xlink:href="#DejaVuSans-32" x="418.115234"/>
      <use xlink:href="#DejaVuSans-5f" x="481.738281"/>
      <use xlink:href="#DejaVuSans-45" x="531.738281"/>
      <use xlink:href="#DejaVuSans-33" x="594.921875"/>
     </g>
    </g>
    <g id="line2d_25">
     <path d="M 460.355438 76.984013 
L 470.355438 76.984013 
L 480.355438 76.984013 
" style="fill: none; stroke: #ff7f0e; stroke-width: 1.5; stroke-linecap: square"/>
    </g>
    <g id="text_22">
     <!-- 20_05_01_E3 -->
     <g transform="translate(488.355438 80.484013) scale(0.1 -0.1)">
      <use xlink:href="#DejaVuSans-32"/>
      <use xlink:href="#DejaVuSans-30" x="63.623047"/>
      <use xlink:href="#DejaVuSans-5f" x="127.246094"/>
      <use xlink:href="#DejaVuSans-30" x="177.246094"/>
      <use xlink:href="#DejaVuSans-35" x="240.869141"/>
      <use xlink:href="#DejaVuSans-5f" x="304.492188"/>
      <use xlink:href="#DejaVuSans-30" x="354.492188"/>
      <use xlink:href="#DejaVuSans-31" x="418.115234"/>
      <use xlink:href="#DejaVuSans-5f" x="481.738281"/>
      <use xlink:href="#DejaVuSans-45" x="531.738281"/>
      <use xlink:href="#DejaVuSans-33" x="594.921875"/>
     </g>
    </g>
    <g id="line2d_26">
     <path d="M 460.355438 91.940262 
L 470.355438 91.940262 
L 480.355438 91.940262 
" style="fill: none; stroke: #2ca02c; stroke-width: 1.5; stroke-linecap: square"/>
    </g>
    <g id="text_23">
     <!-- 20_02_02_E3 -->
     <g transform="translate(488.355438 95.440262) scale(0.1 -0.1)">
      <use xlink:href="#DejaVuSans-32"/>
      <use xlink:href="#DejaVuSans-30" x="63.623047"/>
      <use xlink:href="#DejaVuSans-5f" x="127.246094"/>
      <use xlink:href="#DejaVuSans-30" x="177.246094"/>
      <use xlink:href="#DejaVuSans-32" x="240.869141"/>
      <use xlink:href="#DejaVuSans-5f" x="304.492188"/>
      <use xlink:href="#DejaVuSans-30" x="354.492188"/>
      <use xlink:href="#DejaVuSans-32" x="418.115234"/>
      <use xlink:href="#DejaVuSans-5f" x="481.738281"/>
      <use xlink:href="#DejaVuSans-45" x="531.738281"/>
      <use xlink:href="#DejaVuSans-33" x="594.921875"/>
     </g>
    </g>
    <g id="line2d_27">
     <path d="M 460.355438 106.896513 
L 470.355438 106.896513 
L 480.355438 106.896513 
" style="fill: none; stroke: #d62728; stroke-width: 1.5; stroke-linecap: square"/>
    </g>
    <g id="text_24">
     <!-- 20_10_02_E3 -->
     <g transform="translate(488.355438 110.396513) scale(0.1 -0.1)">
      <use xlink:href="#DejaVuSans-32"/>
      <use xlink:href="#DejaVuSans-30" x="63.623047"/>
      <use xlink:href="#DejaVuSans-5f" x="127.246094"/>
      <use xlink:href="#DejaVuSans-31" x="177.246094"/>
      <use xlink:href="#DejaVuSans-30" x="240.869141"/>
      <use xlink:href="#DejaVuSans-5f" x="304.492188"/>
      <use xlink:href="#DejaVuSans-30" x="354.492188"/>
      <use xlink:href="#DejaVuSans-32" x="418.115234"/>
      <use xlink:href="#DejaVuSans-5f" x="481.738281"/>
      <use xlink:href="#DejaVuSans-45" x="531.738281"/>
      <use xlink:href="#DejaVuSans-33" x="594.921875"/>
     </g>
    </g>
    <g id="line2d_28">
     <path d="M 460.355438 121.852762 
L 470.355438 121.852762 
L 480.355438 121.852762 
" style="fill: none; stroke: #9467bd; stroke-width: 1.5; stroke-linecap: square"/>
    </g>
    <g id="text_25">
     <!-- 20_08_02_E3 -->
     <g transform="translate(488.355438 125.352762) scale(0.1 -0.1)">
      <defs>
       <path id="DejaVuSans-38" d="M 2034 2216 
Q 1584 2216 1326 1975 
Q 1069 1734 1069 1313 
Q 1069 891 1326 650 
Q 1584 409 2034 409 
Q 2484 409 2743 651 
Q 3003 894 3003 1313 
Q 3003 1734 2745 1975 
Q 2488 2216 2034 2216 
z
M 1403 2484 
Q 997 2584 770 2862 
Q 544 3141 544 3541 
Q 544 4100 942 4425 
Q 1341 4750 2034 4750 
Q 2731 4750 3128 4425 
Q 3525 4100 3525 3541 
Q 3525 3141 3298 2862 
Q 3072 2584 2669 2484 
Q 3125 2378 3379 2068 
Q 3634 1759 3634 1313 
Q 3634 634 3220 271 
Q 2806 -91 2034 -91 
Q 1263 -91 848 271 
Q 434 634 434 1313 
Q 434 1759 690 2068 
Q 947 2378 1403 2484 
z
M 1172 3481 
Q 1172 3119 1398 2916 
Q 1625 2713 2034 2713 
Q 2441 2713 2670 2916 
Q 2900 3119 2900 3481 
Q 2900 3844 2670 4047 
Q 2441 4250 2034 4250 
Q 1625 4250 1398 4047 
Q 1172 3844 1172 3481 
z
" transform="scale(0.015625)"/>
      </defs>
      <use xlink:href="#DejaVuSans-32"/>
      <use xlink:href="#DejaVuSans-30" x="63.623047"/>
      <use xlink:href="#DejaVuSans-5f" x="127.246094"/>
      <use xlink:href="#DejaVuSans-30" x="177.246094"/>
      <use xlink:href="#DejaVuSans-38" x="240.869141"/>
      <use xlink:href="#DejaVuSans-5f" x="304.492188"/>
      <use xlink:href="#DejaVuSans-30" x="354.492188"/>
      <use xlink:href="#DejaVuSans-32" x="418.115234"/>
      <use xlink:href="#DejaVuSans-5f" x="481.738281"/>
      <use xlink:href="#DejaVuSans-45" x="531.738281"/>
      <use xlink:href="#DejaVuSans-33" x="594.921875"/>
     </g>
    </g>
    <g id="line2d_29">
     <path d="M 460.355438 136.809012 
L 470.355438 136.809012 
L 480.355438 136.809012 
" style="fill: none; stroke: #8c564b; stroke-width: 1.5; stroke-linecap: square"/>
    </g>
    <g id="text_26">
     <!-- 20_11_02_E3 -->
     <g transform="translate(488.355438 140.309012) scale(0.1 -0.1)">
      <use xlink:href="#DejaVuSans-32"/>
      <use xlink:href="#DejaVuSans-30" x="63.623047"/>
      <use xlink:href="#DejaVuSans-5f" x="127.246094"/>
      <use xlink:href="#DejaVuSans-31" x="177.246094"/>
      <use xlink:href="#DejaVuSans-31" x="240.869141"/>
      <use xlink:href="#DejaVuSans-5f" x="304.492188"/>
      <use xlink:href="#DejaVuSans-30" x="354.492188"/>
      <use xlink:href="#DejaVuSans-32" x="418.115234"/>
      <use xlink:href="#DejaVuSans-5f" x="481.738281"/>
      <use xlink:href="#DejaVuSans-45" x="531.738281"/>
      <use xlink:href="#DejaVuSans-33" x="594.921875"/>
     </g>
    </g>
   </g>
  </g>
 </g>
 <defs>
  <clipPath id="p219177e5d1">
   <rect x="58.523438" y="22.318125" width="357.12" height="266.112"/>
  </clipPath>
 </defs>
</svg>
