<?xml version="1.0" encoding="utf-8" standalone="no"?>
<!DOCTYPE svg PUBLIC "-//W3C//DTD SVG 1.1//EN"
  "http://www.w3.org/Graphics/SVG/1.1/DTD/svg11.dtd">
<svg xmlns:xlink="http://www.w3.org/1999/xlink" width="565.411687pt" height="325.986375pt" viewBox="0 0 565.411687 325.986375" xmlns="http://www.w3.org/2000/svg" version="1.1">
 <metadata>
  <rdf:RDF xmlns:dc="http://purl.org/dc/elements/1.1/" xmlns:cc="http://creativecommons.org/ns#" xmlns:rdf="http://www.w3.org/1999/02/22-rdf-syntax-ns#">
   <cc:Work>
    <dc:type rdf:resource="http://purl.org/dc/dcmitype/StillImage"/>
    <dc:date>2023-02-07T23:00:11.193736</dc:date>
    <dc:format>image/svg+xml</dc:format>
    <dc:creator>
     <cc:Agent>
      <dc:title>Matplotlib v3.6.2, https://matplotlib.org/</dc:title>
     </cc:Agent>
    </dc:creator>
   </cc:Work>
  </rdf:RDF>
 </metadata>
 <defs>
  <style type="text/css">*{stroke-linejoin: round; stroke-linecap: butt}</style>
 </defs>
 <g id="figure_1">
  <g id="patch_1">
   <path d="M 0 325.986375 
L 565.411687 325.986375 
L 565.411687 0 
L 0 0 
z
" style="fill: #ffffff"/>
  </g>
  <g id="axes_1">
   <g id="patch_2">
    <path d="M 58.523438 288.430125 
L 415.643438 288.430125 
L 415.643438 22.318125 
L 58.523438 22.318125 
z
" style="fill: #ffffff"/>
   </g>
   <g id="PolyCollection_1">
    <path d="M 74.756165 236.269327 
L 74.756165 248.859849 
L 78.035504 248.859849 
L 81.314842 248.859849 
L 84.594181 248.859849 
L 87.87352 248.859849 
L 91.152859 248.859849 
L 94.432198 248.859849 
L 97.711537 248.859849 
L 100.990876 248.859849 
L 104.270214 248.859849 
L 107.549553 248.859849 
L 110.828892 248.859849 
L 114.108231 248.859849 
L 117.38757 248.859849 
L 120.666909 248.859849 
L 123.946247 248.859849 
L 127.225586 248.859849 
L 130.504925 248.859849 
L 133.784264 248.859849 
L 137.063603 248.859849 
L 140.342942 248.859849 
L 143.62228 248.859849 
L 146.901619 248.859849 
L 150.180958 248.859849 
L 153.460297 248.859849 
L 156.739636 248.859849 
L 160.018975 248.859849 
L 163.298314 248.859849 
L 166.577652 248.859849 
L 169.856991 248.859849 
L 173.13633 248.859849 
L 176.415669 248.859849 
L 179.695008 248.859849 
L 182.974347 248.859849 
L 186.253685 248.859849 
L 189.533024 248.859849 
L 192.812363 248.859849 
L 196.091702 248.859849 
L 199.371041 248.859849 
L 202.65038 248.859849 
L 205.929718 248.859849 
L 209.209057 248.859849 
L 212.488396 248.859849 
L 215.767735 248.859849 
L 219.047074 248.859849 
L 222.326413 248.859849 
L 225.605752 248.859849 
L 228.88509 248.859849 
L 232.164429 248.859849 
L 235.443768 248.859849 
L 238.723107 248.859849 
L 242.002446 248.859849 
L 245.281785 248.859849 
L 248.561123 248.859849 
L 251.840462 248.859849 
L 255.119801 248.859849 
L 258.39914 248.859849 
L 261.678479 248.859849 
L 264.957818 248.859849 
L 268.237157 248.859849 
L 271.516495 248.859849 
L 274.795834 248.859849 
L 278.075173 248.859849 
L 281.354512 248.859849 
L 284.633851 248.859849 
L 287.91319 248.859849 
L 291.192528 248.859849 
L 294.471867 248.859849 
L 297.751206 248.859849 
L 301.030545 248.859849 
L 304.309884 248.859849 
L 307.589223 248.859849 
L 310.868561 248.859849 
L 314.1479 248.859849 
L 317.427239 248.859849 
L 320.706578 248.859849 
L 323.985917 248.859849 
L 327.265256 248.859849 
L 330.544595 248.859849 
L 333.823933 248.859849 
L 337.103272 248.859849 
L 340.382611 248.859849 
L 343.66195 248.859849 
L 346.941289 248.859849 
L 350.220628 248.859849 
L 353.499966 248.859849 
L 356.779305 248.859849 
L 360.058644 248.859849 
L 363.337983 248.859849 
L 366.617322 248.859849 
L 369.896661 248.859849 
L 373.175999 248.859849 
L 376.455338 248.859849 
L 379.734677 248.859849 
L 383.014016 248.859849 
L 386.293355 248.859849 
L 389.572694 248.859849 
L 392.852033 248.859849 
L 396.131371 248.859849 
L 399.41071 248.859849 
L 399.41071 254.003111 
L 399.41071 254.003111 
L 396.131371 241.700158 
L 392.852033 237.174648 
L 389.572694 237.338758 
L 386.293355 239.960996 
L 383.014016 243.493038 
L 379.734677 246.922366 
L 376.455338 249.6479 
L 373.175999 251.376059 
L 369.896661 252.034874 
L 366.617322 251.703958 
L 363.337983 250.558323 
L 360.058644 248.824212 
L 356.779305 246.745263 
L 353.499966 244.557479 
L 350.220628 242.471629 
L 346.941289 240.661836 
L 343.66195 239.259231 
L 340.382611 238.349691 
L 337.103272 237.974766 
L 333.823933 238.135035 
L 330.544595 238.7952 
L 327.265256 239.890348 
L 323.985917 241.33287 
L 320.706578 243.01962 
L 317.427239 244.838975 
L 314.1479 246.677495 
L 310.868561 248.425983 
L 307.589223 249.984762 
L 304.309884 251.268055 
L 301.030545 252.207409 
L 297.751206 252.754101 
L 294.471867 252.880556 
L 291.192528 252.580791 
L 287.91319 251.869936 
L 284.633851 250.78293 
L 281.354512 249.372459 
L 278.075173 247.70627 
L 274.795834 245.863955 
L 271.516495 243.933355 
L 268.237157 242.00669 
L 264.957818 240.176555 
L 261.678479 238.531916 
L 258.39914 237.154213 
L 255.119801 236.113706 
L 251.840462 235.466157 
L 248.561123 235.249958 
L 245.281785 235.483778 
L 242.002446 236.164825 
L 238.723107 248.861776 
L 235.443768 248.86181 
L 232.164429 239.251903 
L 228.88509 241.380073 
L 225.605752 243.667604 
L 222.326413 245.975458 
L 219.047074 248.148037 
L 215.767735 250.017553 
L 212.488396 251.40904 
L 209.209057 252.145907 
L 205.929718 252.055896 
L 202.65038 250.977308 
L 199.371041 248.765338 
L 196.091702 245.298349 
L 192.812363 240.483908 
L 189.533024 234.264396 
L 186.253685 226.622007 
L 182.974347 217.582948 
L 179.695008 207.220644 
L 176.415669 195.657793 
L 173.13633 183.067079 
L 169.856991 169.670416 
L 166.577652 155.736582 
L 163.298314 141.577147 
L 160.018975 127.540631 
L 156.739636 114.004846 
L 153.460297 101.367454 
L 150.180958 90.034785 
L 146.901619 80.409048 
L 143.62228 72.87411 
L 140.342942 67.780102 
L 137.063603 65.427182 
L 133.784264 66.048866 
L 130.504925 69.795458 
L 127.225586 76.718171 
L 123.946247 86.754686 
L 120.666909 99.716979 
L 117.38757 115.282405 
L 114.108231 132.989144 
L 110.828892 152.237279 
L 107.549553 172.296931 
L 104.270214 192.325029 
L 100.990876 211.39251 
L 97.711537 228.523891 
L 94.432198 242.751395 
L 91.152859 253.185996 
L 87.87352 259.108007 
L 84.594181 260.080039 
L 81.314842 256.085431 
L 78.035504 247.695512 
L 74.756165 236.269327 
z
" clip-path="url(#p2eea3a9a21)" style="fill: #1f77b4; fill-opacity: 0.166667"/>
   </g>
   <g id="PolyCollection_2">
    <path d="M 74.756165 229.791992 
L 74.756165 248.859849 
L 77.208369 248.859849 
L 79.660573 248.859849 
L 82.112778 248.859849 
L 84.564982 248.859849 
L 87.017186 248.859849 
L 89.469391 248.859849 
L 91.921595 248.859849 
L 94.373799 248.859849 
L 96.826004 248.859849 
L 99.278208 248.859849 
L 101.730413 248.859849 
L 104.182617 248.859849 
L 106.634821 248.859849 
L 109.087026 248.859849 
L 111.53923 248.859849 
L 113.991434 248.859849 
L 116.443639 248.859849 
L 118.895843 248.859849 
L 121.348047 248.859849 
L 123.800252 248.859849 
L 126.252456 248.859849 
L 128.70466 248.859849 
L 131.156865 248.859849 
L 133.609069 248.859849 
L 136.061273 248.859849 
L 138.513478 248.859849 
L 140.965682 248.859849 
L 143.417886 248.859849 
L 145.870091 248.859849 
L 148.322295 248.859849 
L 150.774499 248.859849 
L 153.226704 248.859849 
L 155.678908 248.859849 
L 158.131112 248.859849 
L 160.583317 248.859849 
L 163.035521 248.859849 
L 165.487725 248.859849 
L 167.93993 248.859849 
L 170.392134 248.859849 
L 172.844338 248.859849 
L 175.296543 248.859849 
L 177.748747 248.859849 
L 180.200951 248.859849 
L 182.653156 248.859849 
L 185.10536 248.859849 
L 187.557564 248.859849 
L 190.009769 248.859849 
L 192.461973 248.859849 
L 194.914177 248.859849 
L 197.366382 248.859849 
L 199.818586 248.859849 
L 202.27079 248.859849 
L 204.722995 248.859849 
L 207.175199 248.859849 
L 209.627403 248.859849 
L 212.079608 248.859849 
L 214.531812 248.859849 
L 216.984016 248.859849 
L 219.436221 248.859849 
L 221.888425 248.859849 
L 224.340629 248.859849 
L 226.792834 248.859849 
L 229.245038 248.859849 
L 231.697242 248.859849 
L 234.149447 248.859849 
L 236.601651 248.859849 
L 239.053855 248.859849 
L 241.50606 248.859849 
L 243.958264 248.859849 
L 246.410469 248.859849 
L 248.862673 248.859849 
L 251.314877 248.859849 
L 253.767082 248.859849 
L 256.219286 248.859849 
L 258.67149 248.859849 
L 261.123695 248.859849 
L 263.575899 248.859849 
L 266.028103 248.859849 
L 268.480308 248.859849 
L 270.932512 248.859849 
L 273.384716 248.859849 
L 275.836921 248.859849 
L 278.289125 248.859849 
L 280.741329 248.859849 
L 283.193534 248.859849 
L 285.645738 248.859849 
L 288.097942 248.859849 
L 290.550147 248.859849 
L 293.002351 248.859849 
L 295.454555 248.859849 
L 297.90676 248.859849 
L 300.358964 248.859849 
L 302.811168 248.859849 
L 305.263373 248.859849 
L 307.715577 248.859849 
L 310.167781 248.859849 
L 312.619986 248.859849 
L 315.07219 248.859849 
L 317.524394 248.859849 
L 317.524394 262.001161 
L 317.524394 262.001161 
L 315.07219 245.063323 
L 312.619986 238.418668 
L 310.167781 238.074473 
L 307.715577 241.129797 
L 305.263373 245.556542 
L 302.811168 250.012961 
L 300.358964 253.686125 
L 297.90676 256.160127 
L 295.454555 257.30701 
L 293.002351 257.197687 
L 290.550147 256.030334 
L 288.097942 254.07392 
L 285.645738 251.624803 
L 283.193534 248.974439 
L 280.741329 246.386498 
L 278.289125 244.081815 
L 275.836921 242.229762 
L 273.384716 240.944822 
L 270.932512 240.287215 
L 268.480308 240.266644 
L 266.028103 240.848275 
L 263.575899 241.960233 
L 261.123695 243.501986 
L 258.67149 245.353071 
L 256.219286 247.381739 
L 253.767082 249.453153 
L 251.314877 251.436857 
L 248.862673 253.213315 
L 246.410469 254.679351 
L 243.958264 255.752411 
L 241.50606 256.373601 
L 239.053855 256.509486 
L 236.601651 256.152697 
L 234.149447 255.321404 
L 231.697242 254.057765 
L 229.245038 252.42544 
L 226.792834 250.506331 
L 224.340629 248.396669 
L 221.888425 246.202627 
L 219.436221 244.035589 
L 216.984016 242.007267 
L 214.531812 240.224793 
L 212.079608 238.78597 
L 209.627403 237.774791 
L 207.175199 237.257403 
L 204.722995 237.278597 
L 202.27079 237.858956 
L 199.818586 238.992748 
L 197.366382 248.863431 
L 194.914177 248.863513 
L 192.461973 243.71997 
L 190.009769 246.664291 
L 187.557564 249.795916 
L 185.10536 252.941422 
L 182.653156 255.907567 
L 180.200951 258.486758 
L 177.748747 260.463296 
L 175.296543 261.620269 
L 172.844338 261.746928 
L 170.392134 260.64637 
L 167.93993 258.143329 
L 165.487725 254.091863 
L 163.035521 248.382723 
L 160.583317 240.950157 
L 158.131112 231.777934 
L 155.678908 220.904343 
L 153.226704 208.42594 
L 150.774499 194.499836 
L 148.322295 179.344302 
L 145.870091 163.237541 
L 143.417886 146.514439 
L 140.965682 129.561211 
L 138.513478 112.807832 
L 136.061273 96.71825 
L 133.609069 81.778386 
L 131.156865 68.482022 
L 128.70466 57.314739 
L 126.252456 48.736136 
L 123.800252 43.160679 
L 121.348047 40.937591 
L 118.895843 42.330339 
L 116.443639 47.496377 
L 113.991434 56.467916 
L 111.53923 69.13467 
L 109.087026 85.229656 
L 106.634821 104.319274 
L 104.182617 125.799118 
L 101.730413 148.897094 
L 99.278208 172.685672 
L 96.826004 196.105295 
L 94.373799 218.001177 
L 91.921595 237.175994 
L 89.469391 252.461206 
L 87.017186 262.81003 
L 84.564982 267.415346 
L 82.112778 265.856159 
L 79.660573 258.2765 
L 77.208369 245.601042 
L 74.756165 229.791992 
z
" clip-path="url(#p2eea3a9a21)" style="fill: #ff7f0e; fill-opacity: 0.166667"/>
   </g>
   <g id="PolyCollection_3">
    <path d="M 74.756165 217.601047 
L 74.756165 248.859849 
L 77.371612 248.859849 
L 79.987059 248.859849 
L 82.602506 248.859849 
L 85.217953 248.859849 
L 87.8334 248.859849 
L 90.448847 248.859849 
L 93.064294 248.859849 
L 95.679741 248.859849 
L 98.295188 248.859849 
L 100.910635 248.859849 
L 103.526082 248.859849 
L 106.141529 248.859849 
L 108.756976 248.859849 
L 111.372423 248.859849 
L 113.98787 248.859849 
L 116.603317 248.859849 
L 119.218764 248.859849 
L 121.834211 248.859849 
L 124.449658 248.859849 
L 127.065105 248.859849 
L 129.680552 248.859849 
L 132.295999 248.859849 
L 134.911446 248.859849 
L 137.526893 248.859849 
L 140.142341 248.859849 
L 142.757788 248.859849 
L 145.373235 248.859849 
L 147.988682 248.859849 
L 150.604129 248.859849 
L 153.219576 248.859849 
L 155.835023 248.859849 
L 158.45047 248.859849 
L 161.065917 248.859849 
L 163.681364 248.859849 
L 166.296811 248.859849 
L 168.912258 248.859849 
L 171.527705 248.859849 
L 174.143152 248.859849 
L 176.758599 248.859849 
L 179.374046 248.859849 
L 181.989493 248.859849 
L 184.60494 248.859849 
L 187.220387 248.859849 
L 189.835834 248.859849 
L 192.451281 248.859849 
L 195.066728 248.859849 
L 197.682175 248.859849 
L 200.297622 248.859849 
L 202.913069 248.859849 
L 205.528516 248.859849 
L 208.143963 248.859849 
L 210.75941 248.859849 
L 213.374857 248.859849 
L 215.990304 248.859849 
L 218.605751 248.859849 
L 221.221198 248.859849 
L 223.836645 248.859849 
L 226.452092 248.859849 
L 229.067539 248.859849 
L 231.682987 248.859849 
L 234.298434 248.859849 
L 236.913881 248.859849 
L 239.529328 248.859849 
L 242.144775 248.859849 
L 244.760222 248.859849 
L 247.375669 248.859849 
L 249.991116 248.859849 
L 252.606563 248.859849 
L 255.22201 248.859849 
L 257.837457 248.859849 
L 260.452904 248.859849 
L 263.068351 248.859849 
L 265.683798 248.859849 
L 268.299245 248.859849 
L 270.914692 248.859849 
L 273.530139 248.859849 
L 276.145586 248.859849 
L 278.761033 248.859849 
L 281.37648 248.859849 
L 283.991927 248.859849 
L 286.607374 248.859849 
L 289.222821 248.859849 
L 291.838268 248.859849 
L 294.453715 248.859849 
L 297.069162 248.859849 
L 299.684609 248.859849 
L 302.300056 248.859849 
L 304.915503 248.859849 
L 307.53095 248.859849 
L 310.146397 248.859849 
L 312.761844 248.859849 
L 315.377291 248.859849 
L 317.992738 248.859849 
L 320.608186 248.859849 
L 323.223633 248.859849 
L 325.83908 248.859849 
L 328.454527 248.859849 
L 331.069974 248.859849 
L 333.685421 248.859849 
L 333.685421 262.463543 
L 333.685421 262.463543 
L 331.069974 245.89425 
L 328.454527 239.096361 
L 325.83908 238.385361 
L 323.223633 241.053574 
L 320.608186 245.180928 
L 317.992738 249.472711 
L 315.377291 253.121517 
L 312.761844 255.690823 
L 310.146397 257.017772 
L 307.53095 257.132975 
L 304.915503 256.195263 
L 302.300056 254.439526 
L 299.684609 252.135911 
L 297.069162 249.558798 
L 294.453715 246.964126 
L 291.838268 244.573767 
L 289.222821 242.565768 
L 286.607374 241.069402 
L 283.991927 240.164093 
L 281.37648 239.881367 
L 278.761033 240.209085 
L 276.145586 241.097314 
L 273.530139 242.46528 
L 270.914692 244.208897 
L 268.299245 246.208488 
L 265.683798 248.336347 
L 263.068351 250.463859 
L 260.452904 252.467967 
L 257.837457 254.236822 
L 255.22201 255.674483 
L 252.606563 256.704607 
L 249.991116 257.273078 
L 247.375669 257.349582 
L 244.760222 256.928151 
L 242.144775 256.026718 
L 239.529328 254.685778 
L 236.913881 252.966222 
L 234.298434 250.946476 
L 231.682987 248.71904 
L 229.067539 246.386571 
L 226.452092 244.057633 
L 223.836645 241.842248 
L 221.221198 239.847392 
L 218.605751 238.17255 
L 215.990304 236.905473 
L 213.374857 236.118254 
L 210.75941 235.863821 
L 208.143963 236.172971 
L 205.528516 248.863742 
L 202.913069 248.864444 
L 200.297622 238.390934 
L 197.682175 241.154738 
L 195.066728 244.338718 
L 192.451281 247.793733 
L 189.835834 251.344282 
L 187.220387 254.792881 
L 184.60494 257.92536 
L 181.989493 260.516981 
L 179.374046 262.339247 
L 176.758599 263.167266 
L 174.143152 262.787485 
L 171.527705 261.00563 
L 168.912258 257.654637 
L 166.296811 252.60237 
L 163.681364 245.7589 
L 161.065917 237.083122 
L 158.45047 226.58847 
L 155.835023 214.347511 
L 153.219576 200.495184 
L 150.604129 185.23048 
L 147.988682 168.816353 
L 145.373235 151.577698 
L 142.757788 133.897229 
L 140.142341 116.209145 
L 137.526893 98.990502 
L 134.911446 82.750253 
L 132.295999 68.01596 
L 129.680552 55.318269 
L 127.065105 45.173269 
L 124.449658 38.062962 
L 121.834211 34.414125 
L 119.218764 34.575961 
L 116.603317 38.79702 
L 113.98787 47.201981 
L 111.372423 59.76901 
L 108.756976 76.308534 
L 106.141529 96.444398 
L 103.526082 119.598548 
L 100.910635 144.980505 
L 98.295188 171.583098 
L 95.679741 198.186087 
L 93.064294 223.369495 
L 90.448847 245.538701 
L 87.8334 262.963524 
L 85.217953 273.833793 
L 82.602506 276.334125 
L 79.987059 268.740874 
L 77.371612 249.544524 
L 74.756165 217.601047 
z
" clip-path="url(#p2eea3a9a21)" style="fill: #2ca02c; fill-opacity: 0.166667"/>
   </g>
   <g id="PolyCollection_4">
    <path d="M 74.756165 121.903592 
L 74.756165 248.859849 
L 77.650662 248.859849 
L 80.545159 248.859849 
L 83.439657 248.859849 
L 86.334154 248.859849 
L 89.228651 248.859849 
L 92.123149 248.859849 
L 95.017646 248.859849 
L 97.912143 248.859849 
L 100.806641 248.859849 
L 103.701138 248.859849 
L 106.595635 248.859849 
L 109.490133 248.859849 
L 112.38463 248.859849 
L 115.279127 248.859849 
L 118.173625 248.859849 
L 121.068122 248.859849 
L 123.962619 248.859849 
L 126.857117 248.859849 
L 129.751614 248.859849 
L 132.646111 248.859849 
L 135.540609 248.859849 
L 138.435106 248.859849 
L 141.329603 248.859849 
L 144.224101 248.859849 
L 147.118598 248.859849 
L 150.013095 248.859849 
L 152.907593 248.859849 
L 155.80209 248.859849 
L 158.696587 248.859849 
L 161.591085 248.859849 
L 164.485582 248.859849 
L 167.380079 248.859849 
L 170.274577 248.859849 
L 173.169074 248.859849 
L 176.063571 248.859849 
L 178.958068 248.859849 
L 181.852566 248.859849 
L 184.747063 248.859849 
L 187.64156 248.859849 
L 190.536058 248.859849 
L 193.430555 248.859849 
L 196.325052 248.859849 
L 199.21955 248.859849 
L 202.114047 248.859849 
L 205.008544 248.859849 
L 207.903042 248.859849 
L 210.797539 248.859849 
L 213.692036 248.859849 
L 216.586534 248.859849 
L 219.481031 248.859849 
L 222.375528 248.859849 
L 225.270026 248.859849 
L 228.164523 248.859849 
L 231.05902 248.859849 
L 233.953518 248.859849 
L 236.848015 248.859849 
L 239.742512 248.859849 
L 242.63701 248.859849 
L 245.531507 248.859849 
L 248.426004 248.859849 
L 251.320502 248.859849 
L 254.214999 248.859849 
L 257.109496 248.859849 
L 260.003994 248.859849 
L 262.898491 248.859849 
L 265.792988 248.859849 
L 268.687486 248.859849 
L 271.581983 248.859849 
L 274.47648 248.859849 
L 277.370978 248.859849 
L 280.265475 248.859849 
L 283.159972 248.859849 
L 286.05447 248.859849 
L 288.948967 248.859849 
L 291.843464 248.859849 
L 294.737962 248.859849 
L 297.632459 248.859849 
L 300.526956 248.859849 
L 303.421453 248.859849 
L 306.315951 248.859849 
L 309.210448 248.859849 
L 312.104945 248.859849 
L 314.999443 248.859849 
L 317.89394 248.859849 
L 320.788437 248.859849 
L 323.682935 248.859849 
L 326.577432 248.859849 
L 329.471929 248.859849 
L 332.366427 248.859849 
L 335.260924 248.859849 
L 338.155421 248.859849 
L 341.049919 248.859849 
L 343.944416 248.859849 
L 346.838913 248.859849 
L 349.733411 248.859849 
L 352.627908 248.859849 
L 355.522405 248.859849 
L 358.416903 248.859849 
L 361.3114 248.859849 
L 361.3114 249.283838 
L 361.3114 249.283838 
L 358.416903 246.304987 
L 355.522405 245.665457 
L 352.627908 246.28269 
L 349.733411 247.402298 
L 346.838913 248.527775 
L 343.944416 249.361129 
L 341.049919 249.753234 
L 338.155421 249.662753 
L 335.260924 249.122588 
L 332.366427 248.212922 
L 329.471929 247.039951 
L 326.577432 245.719532 
L 323.682935 244.365018 
L 320.788437 243.078615 
L 317.89394 241.945695 
L 314.999443 241.031514 
L 312.104945 240.379883 
L 309.210448 240.01337 
L 306.315951 239.934668 
L 303.421453 240.128804 
L 300.526956 240.565934 
L 297.632459 241.204464 
L 294.737962 241.994318 
L 291.843464 242.880184 
L 288.948967 243.804603 
L 286.05447 244.710802 
L 283.159972 245.545188 
L 280.265475 246.259456 
L 277.370978 246.812264 
L 274.47648 247.170472 
L 271.581983 247.309935 
L 268.687486 247.215869 
L 265.792988 246.882807 
L 262.898491 246.314189 
L 260.003994 245.521627 
L 257.109496 244.523878 
L 254.214999 243.345605 
L 251.320502 242.01595 
L 248.426004 240.567003 
L 245.531507 239.03221 
L 242.63701 237.444771 
L 239.742512 235.836097 
L 236.848015 234.234359 
L 233.953518 232.663193 
L 231.05902 231.140578 
L 228.164523 229.677952 
L 225.270026 228.279562 
L 222.375528 226.942098 
L 219.481031 248.855528 
L 216.586534 248.854251 
L 213.692036 224.360759 
L 210.797539 222.474538 
L 207.903042 220.482642 
L 205.008544 218.375263 
L 202.114047 216.141986 
L 199.21955 213.772169 
L 196.325052 211.255398 
L 193.430555 208.582021 
L 190.536058 205.743739 
L 187.64156 202.734276 
L 184.747063 199.550088 
L 181.852566 196.191137 
L 178.958068 192.661682 
L 176.063571 188.971109 
L 173.169074 185.134745 
L 170.274577 181.174662 
L 167.380079 177.12044 
L 164.485582 173.009843 
L 161.591085 168.889403 
L 158.696587 164.814849 
L 155.80209 160.851354 
L 152.907593 157.073548 
L 150.013095 153.56524 
L 147.118598 150.41879 
L 144.224101 147.734078 
L 141.329603 145.616979 
L 138.435106 144.177279 
L 135.540609 143.525935 
L 132.646111 143.771603 
L 129.751614 145.016305 
L 126.857117 147.350143 
L 123.962619 150.844942 
L 121.068122 155.546674 
L 118.173625 161.466542 
L 115.279127 168.570562 
L 112.38463 176.76749 
L 109.490133 185.894917 
L 106.595635 195.703343 
L 103.701138 205.838051 
L 100.806641 215.818543 
L 97.912143 225.015345 
L 95.017646 232.62392 
L 92.123149 237.635452 
L 89.228651 238.804227 
L 86.334154 234.611328 
L 83.439657 223.224352 
L 80.545159 202.452826 
L 77.650662 169.698988 
L 74.756165 121.903592 
z
" clip-path="url(#p2eea3a9a21)" style="fill: #d62728; fill-opacity: 0.166667"/>
   </g>
   <g id="PolyCollection_5">
    <path d="M 74.756165 231.264286 
L 74.756165 248.859849 
L 77.345666 248.859849 
L 79.935166 248.859849 
L 82.524667 248.859849 
L 85.114168 248.859849 
L 87.703668 248.859849 
L 90.293169 248.859849 
L 92.88267 248.859849 
L 95.472171 248.859849 
L 98.061671 248.859849 
L 100.651172 248.859849 
L 103.240673 248.859849 
L 105.830174 248.859849 
L 108.419674 248.859849 
L 111.009175 248.859849 
L 113.598676 248.859849 
L 116.188177 248.859849 
L 118.777677 248.859849 
L 121.367178 248.859849 
L 123.956679 248.859849 
L 126.546179 248.859849 
L 129.13568 248.859849 
L 131.725181 248.859849 
L 134.314682 248.859849 
L 136.904182 248.859849 
L 139.493683 248.859849 
L 142.083184 248.859849 
L 144.672685 248.859849 
L 147.262185 248.859849 
L 149.851686 248.859849 
L 152.441187 248.859849 
L 155.030688 248.859849 
L 157.620188 248.859849 
L 160.209689 248.859849 
L 162.79919 248.859849 
L 165.38869 248.859849 
L 167.978191 248.859849 
L 170.567692 248.859849 
L 173.157193 248.859849 
L 175.746693 248.859849 
L 178.336194 248.859849 
L 180.925695 248.859849 
L 183.515196 248.859849 
L 186.104696 248.859849 
L 188.694197 248.859849 
L 191.283698 248.859849 
L 193.873199 248.859849 
L 196.462699 248.859849 
L 199.0522 248.859849 
L 201.641701 248.859849 
L 204.231201 248.859849 
L 206.820702 248.859849 
L 209.410203 248.859849 
L 211.999704 248.859849 
L 214.589204 248.859849 
L 217.178705 248.859849 
L 219.768206 248.859849 
L 222.357707 248.859849 
L 224.947207 248.859849 
L 227.536708 248.859849 
L 230.126209 248.859849 
L 232.71571 248.859849 
L 235.30521 248.859849 
L 237.894711 248.859849 
L 240.484212 248.859849 
L 243.073712 248.859849 
L 245.663213 248.859849 
L 248.252714 248.859849 
L 250.842215 248.859849 
L 253.431715 248.859849 
L 256.021216 248.859849 
L 258.610717 248.859849 
L 261.200218 248.859849 
L 263.789718 248.859849 
L 266.379219 248.859849 
L 268.96872 248.859849 
L 271.558221 248.859849 
L 274.147721 248.859849 
L 276.737222 248.859849 
L 279.326723 248.859849 
L 281.916223 248.859849 
L 284.505724 248.859849 
L 287.095225 248.859849 
L 289.684726 248.859849 
L 292.274226 248.859849 
L 294.863727 248.859849 
L 297.453228 248.859849 
L 300.042729 248.859849 
L 302.632229 248.859849 
L 305.22173 248.859849 
L 307.811231 248.859849 
L 310.400732 248.859849 
L 312.990232 248.859849 
L 315.579733 248.859849 
L 318.169234 248.859849 
L 320.758734 248.859849 
L 323.348235 248.859849 
L 325.937736 248.859849 
L 328.527237 248.859849 
L 331.116737 248.859849 
L 331.116737 244.563377 
L 331.116737 244.563377 
L 328.527237 249.022838 
L 325.937736 250.635372 
L 323.348235 250.516041 
L 320.758734 249.462782 
L 318.169234 248.023847 
L 315.579733 246.55445 
L 312.990232 245.263886 
L 310.400732 244.254299 
L 307.811231 243.552166 
L 305.22173 243.133481 
L 302.632229 242.943511 
L 300.042729 242.911946 
L 297.453228 242.964137 
L 294.863727 243.029101 
L 292.274226 243.044842 
L 289.684726 242.961517 
L 287.095225 242.742883 
L 284.505724 242.366439 
L 281.916223 241.822576 
L 279.326723 241.113053 
L 276.737222 240.249025 
L 274.147721 239.248854 
L 271.558221 238.135835 
L 268.96872 236.936017 
L 266.379219 235.676184 
L 263.789718 234.382093 
L 261.200218 233.077027 
L 258.610717 231.780669 
L 256.021216 230.50834 
L 253.431715 229.270575 
L 250.842215 228.073033 
L 248.252714 226.916708 
L 245.663213 225.798399 
L 243.073712 224.711416 
L 240.484212 223.646443 
L 237.894711 222.592532 
L 235.30521 221.538168 
L 232.71571 220.472347 
L 230.126209 219.385623 
L 227.536708 218.271074 
L 224.947207 217.125145 
L 222.357707 215.948326 
L 219.768206 214.745639 
L 217.178705 213.526898 
L 214.589204 212.306738 
L 211.999704 211.104382 
L 209.410203 209.943168 
L 206.820702 208.849819 
L 204.231201 248.853015 
L 201.641701 248.853489 
L 199.0522 205.78162 
L 196.462699 205.516768 
L 193.873199 205.481259 
L 191.283698 205.682797 
L 188.694197 206.12192 
L 186.104696 206.790976 
L 183.515196 207.673238 
L 180.925695 208.742237 
L 178.336194 209.961321 
L 175.746693 211.283525 
L 173.157193 212.651758 
L 170.567692 213.999368 
L 167.978191 215.251111 
L 165.38869 216.324552 
L 162.79919 217.131907 
L 160.209689 217.582355 
L 157.620188 217.584796 
L 155.030688 217.051052 
L 152.441187 215.899476 
L 149.851686 214.058926 
L 147.262185 211.473028 
L 144.672685 208.104654 
L 142.083184 203.940489 
L 139.493683 198.995562 
L 136.904182 193.317573 
L 134.314682 186.990821 
L 131.725181 180.139499 
L 129.13568 172.930105 
L 126.546179 165.572657 
L 123.956679 158.320366 
L 121.367178 151.467391 
L 118.777677 145.344231 
L 116.188177 140.310268 
L 113.598676 136.742932 
L 111.009175 135.02288 
L 108.419674 135.514536 
L 105.830174 138.541284 
L 103.240673 144.354504 
L 100.651172 153.095618 
L 98.061671 164.750191 
L 95.472171 179.093091 
L 92.88267 195.623611 
L 90.293169 213.489366 
L 87.703668 231.397704 
L 85.114168 247.51326 
L 82.524667 259.340192 
L 79.935166 263.58753 
L 77.345666 256.015965 
L 74.756165 231.264286 
z
" clip-path="url(#p2eea3a9a21)" style="fill: #9467bd; fill-opacity: 0.166667"/>
   </g>
   <g id="PolyCollection_6">
    <path d="M 74.756165 258.297432 
L 74.756165 248.859849 
L 76.945261 248.859849 
L 79.134357 248.859849 
L 81.323454 248.859849 
L 83.51255 248.859849 
L 85.701646 248.859849 
L 87.890743 248.859849 
L 90.079839 248.859849 
L 92.268935 248.859849 
L 94.458031 248.859849 
L 96.647128 248.859849 
L 98.836224 248.859849 
L 101.02532 248.859849 
L 103.214417 248.859849 
L 105.403513 248.859849 
L 107.592609 248.859849 
L 109.781706 248.859849 
L 111.970802 248.859849 
L 114.159898 248.859849 
L 116.348994 248.859849 
L 118.538091 248.859849 
L 120.727187 248.859849 
L 122.916283 248.859849 
L 125.10538 248.859849 
L 127.294476 248.859849 
L 129.483572 248.859849 
L 131.672668 248.859849 
L 133.861765 248.859849 
L 136.050861 248.859849 
L 138.239957 248.859849 
L 140.429054 248.859849 
L 142.61815 248.859849 
L 144.807246 248.859849 
L 146.996343 248.859849 
L 149.185439 248.859849 
L 151.374535 248.859849 
L 153.563631 248.859849 
L 155.752728 248.859849 
L 157.941824 248.859849 
L 160.13092 248.859849 
L 162.320017 248.859849 
L 164.509113 248.859849 
L 166.698209 248.859849 
L 168.887306 248.859849 
L 171.076402 248.859849 
L 173.265498 248.859849 
L 175.454594 248.859849 
L 177.643691 248.859849 
L 179.832787 248.859849 
L 182.021883 248.859849 
L 184.21098 248.859849 
L 186.400076 248.859849 
L 188.589172 248.859849 
L 190.778268 248.859849 
L 192.967365 248.859849 
L 195.156461 248.859849 
L 197.345557 248.859849 
L 199.534654 248.859849 
L 201.72375 248.859849 
L 203.912846 248.859849 
L 206.101943 248.859849 
L 208.291039 248.859849 
L 210.480135 248.859849 
L 212.669231 248.859849 
L 214.858328 248.859849 
L 217.047424 248.859849 
L 219.23652 248.859849 
L 221.425617 248.859849 
L 223.614713 248.859849 
L 225.803809 248.859849 
L 227.992906 248.859849 
L 230.182002 248.859849 
L 232.371098 248.859849 
L 234.560194 248.859849 
L 236.749291 248.859849 
L 238.938387 248.859849 
L 241.127483 248.859849 
L 243.31658 248.859849 
L 245.505676 248.859849 
L 247.694772 248.859849 
L 249.883868 248.859849 
L 252.072965 248.859849 
L 254.262061 248.859849 
L 256.451157 248.859849 
L 258.640254 248.859849 
L 260.82935 248.859849 
L 263.018446 248.859849 
L 265.207543 248.859849 
L 267.396639 248.859849 
L 269.585735 248.859849 
L 271.774831 248.859849 
L 273.963928 248.859849 
L 276.153024 248.859849 
L 278.34212 248.859849 
L 280.531217 248.859849 
L 282.720313 248.859849 
L 284.909409 248.859849 
L 287.098506 248.859849 
L 289.287602 248.859849 
L 291.476698 248.859849 
L 291.476698 255.328726 
L 291.476698 255.328726 
L 289.287602 245.336177 
L 287.098506 242.042659 
L 284.909409 242.633391 
L 282.720313 245.119012 
L 280.531217 248.15886 
L 278.34212 250.912177 
L 276.153024 252.914015 
L 273.963928 253.972907 
L 271.774831 254.087602 
L 269.585735 253.380378 
L 267.396639 252.044679 
L 265.207543 250.305025 
L 263.018446 248.387335 
L 260.82935 246.497988 
L 258.640254 244.810115 
L 256.451157 243.455789 
L 254.262061 242.522914 
L 252.072965 242.055773 
L 249.883868 242.058313 
L 247.694772 242.499373 
L 245.505676 243.319185 
L 243.31658 244.436551 
L 241.127483 245.756242 
L 238.938387 247.176212 
L 236.749291 248.594313 
L 234.560194 249.914293 
L 232.371098 251.050874 
L 230.182002 251.933824 
L 227.992906 252.510939 
L 225.803809 252.749933 
L 223.614713 252.639236 
L 221.425617 252.187785 
L 219.23652 251.423859 
L 217.047424 250.393083 
L 214.858328 249.15572 
L 212.669231 247.783376 
L 210.480135 246.355281 
L 208.291039 244.954279 
L 206.101943 243.662683 
L 203.912846 242.558143 
L 201.72375 241.709673 
L 199.534654 241.173959 
L 197.345557 240.992081 
L 195.156461 241.186761 
L 192.967365 241.760211 
L 190.778268 242.692689 
L 188.589172 243.941791 
L 186.400076 245.442544 
L 184.21098 248.860175 
L 182.021883 248.859124 
L 179.832787 250.253693 
L 177.643691 251.542694 
L 175.454594 252.495964 
L 173.265498 252.965564 
L 171.076402 252.801907 
L 168.887306 251.858923 
L 166.698209 249.99951 
L 164.509113 247.101117 
L 162.320017 243.061317 
L 160.13092 237.8032 
L 157.941824 231.280422 
L 155.752728 223.481724 
L 153.563631 214.434769 
L 151.374535 204.209099 
L 149.185439 192.918064 
L 146.996343 180.71956 
L 144.807246 167.815437 
L 142.61815 154.449458 
L 140.429054 140.903706 
L 138.239957 127.493385 
L 136.050861 114.559969 
L 133.861765 102.462726 
L 131.672668 91.568658 
L 129.483572 82.240985 
L 127.294476 74.826335 
L 125.10538 69.640884 
L 122.916283 66.955766 
L 120.727187 66.98215 
L 118.538091 69.856466 
L 116.348994 75.626384 
L 114.159898 84.23823 
L 111.970802 95.526661 
L 109.781706 109.207522 
L 107.592609 124.874988 
L 105.403513 142.00417 
L 103.214417 159.960602 
L 101.02532 178.0181 
L 98.836224 195.386751 
L 96.647128 211.2529 
L 94.458031 224.833253 
L 92.268935 235.445382 
L 90.079839 242.597188 
L 87.890743 246.09806 
L 85.701646 246.19474 
L 83.51255 243.735169 
L 81.323454 240.363843 
L 79.134357 238.752488 
L 76.945261 242.870198 
L 74.756165 258.297432 
z
" clip-path="url(#p2eea3a9a21)" style="fill: #8c564b; fill-opacity: 0.166667"/>
   </g>
   <g id="matplotlib.axis_1">
    <g id="xtick_1">
     <g id="line2d_1">
      <defs>
       <path id="mb083500d3f" d="M 0 0 
L 0 3.5 
" style="stroke: #000000; stroke-width: 0.8"/>
      </defs>
      <g>
       <use xlink:href="#mb083500d3f" x="74.756165" y="288.430125" style="stroke: #000000; stroke-width: 0.8"/>
      </g>
     </g>
     <g id="text_1">
      <!-- 0.0000 -->
      <g transform="translate(57.260852 303.028562) scale(0.1 -0.1)">
       <defs>
        <path id="DejaVuSans-30" d="M 2034 4250 
Q 1547 4250 1301 3770 
Q 1056 3291 1056 2328 
Q 1056 1369 1301 889 
Q 1547 409 2034 409 
Q 2525 409 2770 889 
Q 3016 1369 3016 2328 
Q 3016 3291 2770 3770 
Q 2525 4250 2034 4250 
z
M 2034 4750 
Q 2819 4750 3233 4129 
Q 3647 3509 3647 2328 
Q 3647 1150 3233 529 
Q 2819 -91 2034 -91 
Q 1250 -91 836 529 
Q 422 1150 422 2328 
Q 422 3509 836 4129 
Q 1250 4750 2034 4750 
z
" transform="scale(0.015625)"/>
        <path id="DejaVuSans-2e" d="M 684 794 
L 1344 794 
L 1344 0 
L 684 0 
L 684 794 
z
" transform="scale(0.015625)"/>
       </defs>
       <use xlink:href="#DejaVuSans-30"/>
       <use xlink:href="#DejaVuSans-2e" x="63.623047"/>
       <use xlink:href="#DejaVuSans-30" x="95.410156"/>
       <use xlink:href="#DejaVuSans-30" x="159.033203"/>
       <use xlink:href="#DejaVuSans-30" x="222.65625"/>
       <use xlink:href="#DejaVuSans-30" x="286.279297"/>
      </g>
     </g>
    </g>
    <g id="xtick_2">
     <g id="line2d_2">
      <g>
       <use xlink:href="#mb083500d3f" x="120.360859" y="288.430125" style="stroke: #000000; stroke-width: 0.8"/>
      </g>
     </g>
     <g id="text_2">
      <!-- 0.0002 -->
      <g transform="translate(102.865547 303.028562) scale(0.1 -0.1)">
       <defs>
        <path id="DejaVuSans-32" d="M 1228 531 
L 3431 531 
L 3431 0 
L 469 0 
L 469 531 
Q 828 903 1448 1529 
Q 2069 2156 2228 2338 
Q 2531 2678 2651 2914 
Q 2772 3150 2772 3378 
Q 2772 3750 2511 3984 
Q 2250 4219 1831 4219 
Q 1534 4219 1204 4116 
Q 875 4013 500 3803 
L 500 4441 
Q 881 4594 1212 4672 
Q 1544 4750 1819 4750 
Q 2544 4750 2975 4387 
Q 3406 4025 3406 3419 
Q 3406 3131 3298 2873 
Q 3191 2616 2906 2266 
Q 2828 2175 2409 1742 
Q 1991 1309 1228 531 
z
" transform="scale(0.015625)"/>
       </defs>
       <use xlink:href="#DejaVuSans-30"/>
       <use xlink:href="#DejaVuSans-2e" x="63.623047"/>
       <use xlink:href="#DejaVuSans-30" x="95.410156"/>
       <use xlink:href="#DejaVuSans-30" x="159.033203"/>
       <use xlink:href="#DejaVuSans-30" x="222.65625"/>
       <use xlink:href="#DejaVuSans-32" x="286.279297"/>
      </g>
     </g>
    </g>
    <g id="xtick_3">
     <g id="line2d_3">
      <g>
       <use xlink:href="#mb083500d3f" x="165.965554" y="288.430125" style="stroke: #000000; stroke-width: 0.8"/>
      </g>
     </g>
     <g id="text_3">
      <!-- 0.0004 -->
      <g transform="translate(148.470242 303.028562) scale(0.1 -0.1)">
       <defs>
        <path id="DejaVuSans-34" d="M 2419 4116 
L 825 1625 
L 2419 1625 
L 2419 4116 
z
M 2253 4666 
L 3047 4666 
L 3047 1625 
L 3713 1625 
L 3713 1100 
L 3047 1100 
L 3047 0 
L 2419 0 
L 2419 1100 
L 313 1100 
L 313 1709 
L 2253 4666 
z
" transform="scale(0.015625)"/>
       </defs>
       <use xlink:href="#DejaVuSans-30"/>
       <use xlink:href="#DejaVuSans-2e" x="63.623047"/>
       <use xlink:href="#DejaVuSans-30" x="95.410156"/>
       <use xlink:href="#DejaVuSans-30" x="159.033203"/>
       <use xlink:href="#DejaVuSans-30" x="222.65625"/>
       <use xlink:href="#DejaVuSans-34" x="286.279297"/>
      </g>
     </g>
    </g>
    <g id="xtick_4">
     <g id="line2d_4">
      <g>
       <use xlink:href="#mb083500d3f" x="211.570249" y="288.430125" style="stroke: #000000; stroke-width: 0.8"/>
      </g>
     </g>
     <g id="text_4">
      <!-- 0.0006 -->
      <g transform="translate(194.074936 303.028562) scale(0.1 -0.1)">
       <defs>
        <path id="DejaVuSans-36" d="M 2113 2584 
Q 1688 2584 1439 2293 
Q 1191 2003 1191 1497 
Q 1191 994 1439 701 
Q 1688 409 2113 409 
Q 2538 409 2786 701 
Q 3034 994 3034 1497 
Q 3034 2003 2786 2293 
Q 2538 2584 2113 2584 
z
M 3366 4563 
L 3366 3988 
Q 3128 4100 2886 4159 
Q 2644 4219 2406 4219 
Q 1781 4219 1451 3797 
Q 1122 3375 1075 2522 
Q 1259 2794 1537 2939 
Q 1816 3084 2150 3084 
Q 2853 3084 3261 2657 
Q 3669 2231 3669 1497 
Q 3669 778 3244 343 
Q 2819 -91 2113 -91 
Q 1303 -91 875 529 
Q 447 1150 447 2328 
Q 447 3434 972 4092 
Q 1497 4750 2381 4750 
Q 2619 4750 2861 4703 
Q 3103 4656 3366 4563 
z
" transform="scale(0.015625)"/>
       </defs>
       <use xlink:href="#DejaVuSans-30"/>
       <use xlink:href="#DejaVuSans-2e" x="63.623047"/>
       <use xlink:href="#DejaVuSans-30" x="95.410156"/>
       <use xlink:href="#DejaVuSans-30" x="159.033203"/>
       <use xlink:href="#DejaVuSans-30" x="222.65625"/>
       <use xlink:href="#DejaVuSans-36" x="286.279297"/>
      </g>
     </g>
    </g>
    <g id="xtick_5">
     <g id="line2d_5">
      <g>
       <use xlink:href="#mb083500d3f" x="257.174943" y="288.430125" style="stroke: #000000; stroke-width: 0.8"/>
      </g>
     </g>
     <g id="text_5">
      <!-- 0.0008 -->
      <g transform="translate(239.679631 303.028562) scale(0.1 -0.1)">
       <defs>
        <path id="DejaVuSans-38" d="M 2034 2216 
Q 1584 2216 1326 1975 
Q 1069 1734 1069 1313 
Q 1069 891 1326 650 
Q 1584 409 2034 409 
Q 2484 409 2743 651 
Q 3003 894 3003 1313 
Q 3003 1734 2745 1975 
Q 2488 2216 2034 2216 
z
M 1403 2484 
Q 997 2584 770 2862 
Q 544 3141 544 3541 
Q 544 4100 942 4425 
Q 1341 4750 2034 4750 
Q 2731 4750 3128 4425 
Q 3525 4100 3525 3541 
Q 3525 3141 3298 2862 
Q 3072 2584 2669 2484 
Q 3125 2378 3379 2068 
Q 3634 1759 3634 1313 
Q 3634 634 3220 271 
Q 2806 -91 2034 -91 
Q 1263 -91 848 271 
Q 434 634 434 1313 
Q 434 1759 690 2068 
Q 947 2378 1403 2484 
z
M 1172 3481 
Q 1172 3119 1398 2916 
Q 1625 2713 2034 2713 
Q 2441 2713 2670 2916 
Q 2900 3119 2900 3481 
Q 2900 3844 2670 4047 
Q 2441 4250 2034 4250 
Q 1625 4250 1398 4047 
Q 1172 3844 1172 3481 
z
" transform="scale(0.015625)"/>
       </defs>
       <use xlink:href="#DejaVuSans-30"/>
       <use xlink:href="#DejaVuSans-2e" x="63.623047"/>
       <use xlink:href="#DejaVuSans-30" x="95.410156"/>
       <use xlink:href="#DejaVuSans-30" x="159.033203"/>
       <use xlink:href="#DejaVuSans-30" x="222.65625"/>
       <use xlink:href="#DejaVuSans-38" x="286.279297"/>
      </g>
     </g>
    </g>
    <g id="xtick_6">
     <g id="line2d_6">
      <g>
       <use xlink:href="#mb083500d3f" x="302.779638" y="288.430125" style="stroke: #000000; stroke-width: 0.8"/>
      </g>
     </g>
     <g id="text_6">
      <!-- 0.0010 -->
      <g transform="translate(285.284325 303.028562) scale(0.1 -0.1)">
       <defs>
        <path id="DejaVuSans-31" d="M 794 531 
L 1825 531 
L 1825 4091 
L 703 3866 
L 703 4441 
L 1819 4666 
L 2450 4666 
L 2450 531 
L 3481 531 
L 3481 0 
L 794 0 
L 794 531 
z
" transform="scale(0.015625)"/>
       </defs>
       <use xlink:href="#DejaVuSans-30"/>
       <use xlink:href="#DejaVuSans-2e" x="63.623047"/>
       <use xlink:href="#DejaVuSans-30" x="95.410156"/>
       <use xlink:href="#DejaVuSans-30" x="159.033203"/>
       <use xlink:href="#DejaVuSans-31" x="222.65625"/>
       <use xlink:href="#DejaVuSans-30" x="286.279297"/>
      </g>
     </g>
    </g>
    <g id="xtick_7">
     <g id="line2d_7">
      <g>
       <use xlink:href="#mb083500d3f" x="348.384333" y="288.430125" style="stroke: #000000; stroke-width: 0.8"/>
      </g>
     </g>
     <g id="text_7">
      <!-- 0.0012 -->
      <g transform="translate(330.88902 303.028562) scale(0.1 -0.1)">
       <use xlink:href="#DejaVuSans-30"/>
       <use xlink:href="#DejaVuSans-2e" x="63.623047"/>
       <use xlink:href="#DejaVuSans-30" x="95.410156"/>
       <use xlink:href="#DejaVuSans-30" x="159.033203"/>
       <use xlink:href="#DejaVuSans-31" x="222.65625"/>
       <use xlink:href="#DejaVuSans-32" x="286.279297"/>
      </g>
     </g>
    </g>
    <g id="xtick_8">
     <g id="line2d_8">
      <g>
       <use xlink:href="#mb083500d3f" x="393.989027" y="288.430125" style="stroke: #000000; stroke-width: 0.8"/>
      </g>
     </g>
     <g id="text_8">
      <!-- 0.0014 -->
      <g transform="translate(376.493715 303.028562) scale(0.1 -0.1)">
       <use xlink:href="#DejaVuSans-30"/>
       <use xlink:href="#DejaVuSans-2e" x="63.623047"/>
       <use xlink:href="#DejaVuSans-30" x="95.410156"/>
       <use xlink:href="#DejaVuSans-30" x="159.033203"/>
       <use xlink:href="#DejaVuSans-31" x="222.65625"/>
       <use xlink:href="#DejaVuSans-34" x="286.279297"/>
      </g>
     </g>
    </g>
    <g id="text_9">
     <!-- Pixel values -->
     <g transform="translate(207.671719 316.706687) scale(0.1 -0.1)">
      <defs>
       <path id="DejaVuSans-50" d="M 1259 4147 
L 1259 2394 
L 2053 2394 
Q 2494 2394 2734 2622 
Q 2975 2850 2975 3272 
Q 2975 3691 2734 3919 
Q 2494 4147 2053 4147 
L 1259 4147 
z
M 628 4666 
L 2053 4666 
Q 2838 4666 3239 4311 
Q 3641 3956 3641 3272 
Q 3641 2581 3239 2228 
Q 2838 1875 2053 1875 
L 1259 1875 
L 1259 0 
L 628 0 
L 628 4666 
z
" transform="scale(0.015625)"/>
       <path id="DejaVuSans-69" d="M 603 3500 
L 1178 3500 
L 1178 0 
L 603 0 
L 603 3500 
z
M 603 4863 
L 1178 4863 
L 1178 4134 
L 603 4134 
L 603 4863 
z
" transform="scale(0.015625)"/>
       <path id="DejaVuSans-78" d="M 3513 3500 
L 2247 1797 
L 3578 0 
L 2900 0 
L 1881 1375 
L 863 0 
L 184 0 
L 1544 1831 
L 300 3500 
L 978 3500 
L 1906 2253 
L 2834 3500 
L 3513 3500 
z
" transform="scale(0.015625)"/>
       <path id="DejaVuSans-65" d="M 3597 1894 
L 3597 1613 
L 953 1613 
Q 991 1019 1311 708 
Q 1631 397 2203 397 
Q 2534 397 2845 478 
Q 3156 559 3463 722 
L 3463 178 
Q 3153 47 2828 -22 
Q 2503 -91 2169 -91 
Q 1331 -91 842 396 
Q 353 884 353 1716 
Q 353 2575 817 3079 
Q 1281 3584 2069 3584 
Q 2775 3584 3186 3129 
Q 3597 2675 3597 1894 
z
M 3022 2063 
Q 3016 2534 2758 2815 
Q 2500 3097 2075 3097 
Q 1594 3097 1305 2825 
Q 1016 2553 972 2059 
L 3022 2063 
z
" transform="scale(0.015625)"/>
       <path id="DejaVuSans-6c" d="M 603 4863 
L 1178 4863 
L 1178 0 
L 603 0 
L 603 4863 
z
" transform="scale(0.015625)"/>
       <path id="DejaVuSans-20" transform="scale(0.015625)"/>
       <path id="DejaVuSans-76" d="M 191 3500 
L 800 3500 
L 1894 563 
L 2988 3500 
L 3597 3500 
L 2284 0 
L 1503 0 
L 191 3500 
z
" transform="scale(0.015625)"/>
       <path id="DejaVuSans-61" d="M 2194 1759 
Q 1497 1759 1228 1600 
Q 959 1441 959 1056 
Q 959 750 1161 570 
Q 1363 391 1709 391 
Q 2188 391 2477 730 
Q 2766 1069 2766 1631 
L 2766 1759 
L 2194 1759 
z
M 3341 1997 
L 3341 0 
L 2766 0 
L 2766 531 
Q 2569 213 2275 61 
Q 1981 -91 1556 -91 
Q 1019 -91 701 211 
Q 384 513 384 1019 
Q 384 1609 779 1909 
Q 1175 2209 1959 2209 
L 2766 2209 
L 2766 2266 
Q 2766 2663 2505 2880 
Q 2244 3097 1772 3097 
Q 1472 3097 1187 3025 
Q 903 2953 641 2809 
L 641 3341 
Q 956 3463 1253 3523 
Q 1550 3584 1831 3584 
Q 2591 3584 2966 3190 
Q 3341 2797 3341 1997 
z
" transform="scale(0.015625)"/>
       <path id="DejaVuSans-75" d="M 544 1381 
L 544 3500 
L 1119 3500 
L 1119 1403 
Q 1119 906 1312 657 
Q 1506 409 1894 409 
Q 2359 409 2629 706 
Q 2900 1003 2900 1516 
L 2900 3500 
L 3475 3500 
L 3475 0 
L 2900 0 
L 2900 538 
Q 2691 219 2414 64 
Q 2138 -91 1772 -91 
Q 1169 -91 856 284 
Q 544 659 544 1381 
z
M 1991 3584 
L 1991 3584 
z
" transform="scale(0.015625)"/>
       <path id="DejaVuSans-73" d="M 2834 3397 
L 2834 2853 
Q 2591 2978 2328 3040 
Q 2066 3103 1784 3103 
Q 1356 3103 1142 2972 
Q 928 2841 928 2578 
Q 928 2378 1081 2264 
Q 1234 2150 1697 2047 
L 1894 2003 
Q 2506 1872 2764 1633 
Q 3022 1394 3022 966 
Q 3022 478 2636 193 
Q 2250 -91 1575 -91 
Q 1294 -91 989 -36 
Q 684 19 347 128 
L 347 722 
Q 666 556 975 473 
Q 1284 391 1588 391 
Q 1994 391 2212 530 
Q 2431 669 2431 922 
Q 2431 1156 2273 1281 
Q 2116 1406 1581 1522 
L 1381 1569 
Q 847 1681 609 1914 
Q 372 2147 372 2553 
Q 372 3047 722 3315 
Q 1072 3584 1716 3584 
Q 2034 3584 2315 3537 
Q 2597 3491 2834 3397 
z
" transform="scale(0.015625)"/>
      </defs>
      <use xlink:href="#DejaVuSans-50"/>
      <use xlink:href="#DejaVuSans-69" x="58.052734"/>
      <use xlink:href="#DejaVuSans-78" x="85.835938"/>
      <use xlink:href="#DejaVuSans-65" x="141.890625"/>
      <use xlink:href="#DejaVuSans-6c" x="203.414062"/>
      <use xlink:href="#DejaVuSans-20" x="231.197266"/>
      <use xlink:href="#DejaVuSans-76" x="262.984375"/>
      <use xlink:href="#DejaVuSans-61" x="322.164062"/>
      <use xlink:href="#DejaVuSans-6c" x="383.443359"/>
      <use xlink:href="#DejaVuSans-75" x="411.226562"/>
      <use xlink:href="#DejaVuSans-65" x="474.605469"/>
      <use xlink:href="#DejaVuSans-73" x="536.128906"/>
     </g>
    </g>
   </g>
   <g id="matplotlib.axis_2">
    <g id="ytick_1">
     <g id="line2d_9">
      <defs>
       <path id="mea04f10ca9" d="M 0 0 
L -3.5 0 
" style="stroke: #000000; stroke-width: 0.8"/>
      </defs>
      <g>
       <use xlink:href="#mea04f10ca9" x="58.523438" y="283.041897" style="stroke: #000000; stroke-width: 0.8"/>
      </g>
     </g>
     <g id="text_10">
      <!-- −0.01 -->
      <g transform="translate(20.878125 286.841116) scale(0.1 -0.1)">
       <defs>
        <path id="DejaVuSans-2212" d="M 678 2272 
L 4684 2272 
L 4684 1741 
L 678 1741 
L 678 2272 
z
" transform="scale(0.015625)"/>
       </defs>
       <use xlink:href="#DejaVuSans-2212"/>
       <use xlink:href="#DejaVuSans-30" x="83.789062"/>
       <use xlink:href="#DejaVuSans-2e" x="147.412109"/>
       <use xlink:href="#DejaVuSans-30" x="179.199219"/>
       <use xlink:href="#DejaVuSans-31" x="242.822266"/>
      </g>
     </g>
    </g>
    <g id="ytick_2">
     <g id="line2d_10">
      <g>
       <use xlink:href="#mea04f10ca9" x="58.523438" y="248.859849" style="stroke: #000000; stroke-width: 0.8"/>
      </g>
     </g>
     <g id="text_11">
      <!-- 0.00 -->
      <g transform="translate(29.257813 252.659068) scale(0.1 -0.1)">
       <use xlink:href="#DejaVuSans-30"/>
       <use xlink:href="#DejaVuSans-2e" x="63.623047"/>
       <use xlink:href="#DejaVuSans-30" x="95.410156"/>
       <use xlink:href="#DejaVuSans-30" x="159.033203"/>
      </g>
     </g>
    </g>
    <g id="ytick_3">
     <g id="line2d_11">
      <g>
       <use xlink:href="#mea04f10ca9" x="58.523438" y="214.6778" style="stroke: #000000; stroke-width: 0.8"/>
      </g>
     </g>
     <g id="text_12">
      <!-- 0.01 -->
      <g transform="translate(29.257813 218.477019) scale(0.1 -0.1)">
       <use xlink:href="#DejaVuSans-30"/>
       <use xlink:href="#DejaVuSans-2e" x="63.623047"/>
       <use xlink:href="#DejaVuSans-30" x="95.410156"/>
       <use xlink:href="#DejaVuSans-31" x="159.033203"/>
      </g>
     </g>
    </g>
    <g id="ytick_4">
     <g id="line2d_12">
      <g>
       <use xlink:href="#mea04f10ca9" x="58.523438" y="180.495752" style="stroke: #000000; stroke-width: 0.8"/>
      </g>
     </g>
     <g id="text_13">
      <!-- 0.02 -->
      <g transform="translate(29.257813 184.294971) scale(0.1 -0.1)">
       <use xlink:href="#DejaVuSans-30"/>
       <use xlink:href="#DejaVuSans-2e" x="63.623047"/>
       <use xlink:href="#DejaVuSans-30" x="95.410156"/>
       <use xlink:href="#DejaVuSans-32" x="159.033203"/>
      </g>
     </g>
    </g>
    <g id="ytick_5">
     <g id="line2d_13">
      <g>
       <use xlink:href="#mea04f10ca9" x="58.523438" y="146.313703" style="stroke: #000000; stroke-width: 0.8"/>
      </g>
     </g>
     <g id="text_14">
      <!-- 0.03 -->
      <g transform="translate(29.257813 150.112922) scale(0.1 -0.1)">
       <defs>
        <path id="DejaVuSans-33" d="M 2597 2516 
Q 3050 2419 3304 2112 
Q 3559 1806 3559 1356 
Q 3559 666 3084 287 
Q 2609 -91 1734 -91 
Q 1441 -91 1130 -33 
Q 819 25 488 141 
L 488 750 
Q 750 597 1062 519 
Q 1375 441 1716 441 
Q 2309 441 2620 675 
Q 2931 909 2931 1356 
Q 2931 1769 2642 2001 
Q 2353 2234 1838 2234 
L 1294 2234 
L 1294 2753 
L 1863 2753 
Q 2328 2753 2575 2939 
Q 2822 3125 2822 3475 
Q 2822 3834 2567 4026 
Q 2313 4219 1838 4219 
Q 1578 4219 1281 4162 
Q 984 4106 628 3988 
L 628 4550 
Q 988 4650 1302 4700 
Q 1616 4750 1894 4750 
Q 2613 4750 3031 4423 
Q 3450 4097 3450 3541 
Q 3450 3153 3228 2886 
Q 3006 2619 2597 2516 
z
" transform="scale(0.015625)"/>
       </defs>
       <use xlink:href="#DejaVuSans-30"/>
       <use xlink:href="#DejaVuSans-2e" x="63.623047"/>
       <use xlink:href="#DejaVuSans-30" x="95.410156"/>
       <use xlink:href="#DejaVuSans-33" x="159.033203"/>
      </g>
     </g>
    </g>
    <g id="ytick_6">
     <g id="line2d_14">
      <g>
       <use xlink:href="#mea04f10ca9" x="58.523438" y="112.131655" style="stroke: #000000; stroke-width: 0.8"/>
      </g>
     </g>
     <g id="text_15">
      <!-- 0.04 -->
      <g transform="translate(29.257813 115.930874) scale(0.1 -0.1)">
       <use xlink:href="#DejaVuSans-30"/>
       <use xlink:href="#DejaVuSans-2e" x="63.623047"/>
       <use xlink:href="#DejaVuSans-30" x="95.410156"/>
       <use xlink:href="#DejaVuSans-34" x="159.033203"/>
      </g>
     </g>
    </g>
    <g id="ytick_7">
     <g id="line2d_15">
      <g>
       <use xlink:href="#mea04f10ca9" x="58.523438" y="77.949607" style="stroke: #000000; stroke-width: 0.8"/>
      </g>
     </g>
     <g id="text_16">
      <!-- 0.05 -->
      <g transform="translate(29.257813 81.748825) scale(0.1 -0.1)">
       <defs>
        <path id="DejaVuSans-35" d="M 691 4666 
L 3169 4666 
L 3169 4134 
L 1269 4134 
L 1269 2991 
Q 1406 3038 1543 3061 
Q 1681 3084 1819 3084 
Q 2600 3084 3056 2656 
Q 3513 2228 3513 1497 
Q 3513 744 3044 326 
Q 2575 -91 1722 -91 
Q 1428 -91 1123 -41 
Q 819 9 494 109 
L 494 744 
Q 775 591 1075 516 
Q 1375 441 1709 441 
Q 2250 441 2565 725 
Q 2881 1009 2881 1497 
Q 2881 1984 2565 2268 
Q 2250 2553 1709 2553 
Q 1456 2553 1204 2497 
Q 953 2441 691 2322 
L 691 4666 
z
" transform="scale(0.015625)"/>
       </defs>
       <use xlink:href="#DejaVuSans-30"/>
       <use xlink:href="#DejaVuSans-2e" x="63.623047"/>
       <use xlink:href="#DejaVuSans-30" x="95.410156"/>
       <use xlink:href="#DejaVuSans-35" x="159.033203"/>
      </g>
     </g>
    </g>
    <g id="ytick_8">
     <g id="line2d_16">
      <g>
       <use xlink:href="#mea04f10ca9" x="58.523438" y="43.767558" style="stroke: #000000; stroke-width: 0.8"/>
      </g>
     </g>
     <g id="text_17">
      <!-- 0.06 -->
      <g transform="translate(29.257813 47.566777) scale(0.1 -0.1)">
       <use xlink:href="#DejaVuSans-30"/>
       <use xlink:href="#DejaVuSans-2e" x="63.623047"/>
       <use xlink:href="#DejaVuSans-30" x="95.410156"/>
       <use xlink:href="#DejaVuSans-36" x="159.033203"/>
      </g>
     </g>
    </g>
    <g id="text_18">
     <!-- Frequency -->
     <g transform="translate(14.798438 181.203812) rotate(-90) scale(0.1 -0.1)">
      <defs>
       <path id="DejaVuSans-46" d="M 628 4666 
L 3309 4666 
L 3309 4134 
L 1259 4134 
L 1259 2759 
L 3109 2759 
L 3109 2228 
L 1259 2228 
L 1259 0 
L 628 0 
L 628 4666 
z
" transform="scale(0.015625)"/>
       <path id="DejaVuSans-72" d="M 2631 2963 
Q 2534 3019 2420 3045 
Q 2306 3072 2169 3072 
Q 1681 3072 1420 2755 
Q 1159 2438 1159 1844 
L 1159 0 
L 581 0 
L 581 3500 
L 1159 3500 
L 1159 2956 
Q 1341 3275 1631 3429 
Q 1922 3584 2338 3584 
Q 2397 3584 2469 3576 
Q 2541 3569 2628 3553 
L 2631 2963 
z
" transform="scale(0.015625)"/>
       <path id="DejaVuSans-71" d="M 947 1747 
Q 947 1113 1208 752 
Q 1469 391 1925 391 
Q 2381 391 2643 752 
Q 2906 1113 2906 1747 
Q 2906 2381 2643 2742 
Q 2381 3103 1925 3103 
Q 1469 3103 1208 2742 
Q 947 2381 947 1747 
z
M 2906 525 
Q 2725 213 2448 61 
Q 2172 -91 1784 -91 
Q 1150 -91 751 415 
Q 353 922 353 1747 
Q 353 2572 751 3078 
Q 1150 3584 1784 3584 
Q 2172 3584 2448 3432 
Q 2725 3281 2906 2969 
L 2906 3500 
L 3481 3500 
L 3481 -1331 
L 2906 -1331 
L 2906 525 
z
" transform="scale(0.015625)"/>
       <path id="DejaVuSans-6e" d="M 3513 2113 
L 3513 0 
L 2938 0 
L 2938 2094 
Q 2938 2591 2744 2837 
Q 2550 3084 2163 3084 
Q 1697 3084 1428 2787 
Q 1159 2491 1159 1978 
L 1159 0 
L 581 0 
L 581 3500 
L 1159 3500 
L 1159 2956 
Q 1366 3272 1645 3428 
Q 1925 3584 2291 3584 
Q 2894 3584 3203 3211 
Q 3513 2838 3513 2113 
z
" transform="scale(0.015625)"/>
       <path id="DejaVuSans-63" d="M 3122 3366 
L 3122 2828 
Q 2878 2963 2633 3030 
Q 2388 3097 2138 3097 
Q 1578 3097 1268 2742 
Q 959 2388 959 1747 
Q 959 1106 1268 751 
Q 1578 397 2138 397 
Q 2388 397 2633 464 
Q 2878 531 3122 666 
L 3122 134 
Q 2881 22 2623 -34 
Q 2366 -91 2075 -91 
Q 1284 -91 818 406 
Q 353 903 353 1747 
Q 353 2603 823 3093 
Q 1294 3584 2113 3584 
Q 2378 3584 2631 3529 
Q 2884 3475 3122 3366 
z
" transform="scale(0.015625)"/>
       <path id="DejaVuSans-79" d="M 2059 -325 
Q 1816 -950 1584 -1140 
Q 1353 -1331 966 -1331 
L 506 -1331 
L 506 -850 
L 844 -850 
Q 1081 -850 1212 -737 
Q 1344 -625 1503 -206 
L 1606 56 
L 191 3500 
L 800 3500 
L 1894 763 
L 2988 3500 
L 3597 3500 
L 2059 -325 
z
" transform="scale(0.015625)"/>
      </defs>
      <use xlink:href="#DejaVuSans-46"/>
      <use xlink:href="#DejaVuSans-72" x="50.269531"/>
      <use xlink:href="#DejaVuSans-65" x="89.132812"/>
      <use xlink:href="#DejaVuSans-71" x="150.65625"/>
      <use xlink:href="#DejaVuSans-75" x="214.132812"/>
      <use xlink:href="#DejaVuSans-65" x="277.511719"/>
      <use xlink:href="#DejaVuSans-6e" x="339.035156"/>
      <use xlink:href="#DejaVuSans-63" x="402.414062"/>
      <use xlink:href="#DejaVuSans-79" x="457.394531"/>
     </g>
    </g>
   </g>
   <g id="line2d_17">
    <path d="M 74.756165 236.269327 
L 78.035504 247.695512 
L 81.314842 256.085431 
L 84.594181 260.080039 
L 87.87352 259.108007 
L 91.152859 253.185996 
L 94.432198 242.751395 
L 97.711537 228.523891 
L 100.990876 211.39251 
L 104.270214 192.325029 
L 107.549553 172.296931 
L 110.828892 152.237279 
L 114.108231 132.989144 
L 117.38757 115.282405 
L 120.666909 99.716979 
L 123.946247 86.754686 
L 127.225586 76.718171 
L 130.504925 69.795458 
L 133.784264 66.048866 
L 137.063603 65.427182 
L 140.342942 67.780102 
L 143.62228 72.87411 
L 146.901619 80.409048 
L 150.180958 90.034785 
L 153.460297 101.367454 
L 156.739636 114.004846 
L 160.018975 127.540631 
L 163.298314 141.577147 
L 166.577652 155.736582 
L 169.856991 169.670416 
L 173.13633 183.067079 
L 176.415669 195.657793 
L 179.695008 207.220644 
L 182.974347 217.582948 
L 186.253685 226.622007 
L 189.533024 234.264396 
L 192.812363 240.483908 
L 196.091702 245.298349 
L 199.371041 248.765338 
L 202.65038 250.977308 
L 205.929718 252.055896 
L 209.209057 252.145907 
L 212.488396 251.40904 
L 215.767735 250.017553 
L 219.047074 248.148037 
L 222.326413 245.975458 
L 225.605752 243.667604 
L 228.88509 241.380073 
L 232.164429 239.251903 
L 235.443768 248.86181 
L 238.723107 248.861776 
L 242.002446 236.164825 
L 245.281785 235.483778 
L 248.561123 235.249958 
L 251.840462 235.466157 
L 255.119801 236.113706 
L 258.39914 237.154213 
L 261.678479 238.531916 
L 264.957818 240.176555 
L 268.237157 242.00669 
L 271.516495 243.933355 
L 274.795834 245.863955 
L 278.075173 247.70627 
L 281.354512 249.372459 
L 284.633851 250.78293 
L 287.91319 251.869936 
L 291.192528 252.580791 
L 294.471867 252.880556 
L 297.751206 252.754101 
L 301.030545 252.207409 
L 304.309884 251.268055 
L 307.589223 249.984762 
L 310.868561 248.425983 
L 314.1479 246.677495 
L 317.427239 244.838975 
L 320.706578 243.01962 
L 323.985917 241.33287 
L 327.265256 239.890348 
L 330.544595 238.7952 
L 333.823933 238.135035 
L 337.103272 237.974766 
L 340.382611 238.349691 
L 343.66195 239.259231 
L 346.941289 240.661836 
L 350.220628 242.471629 
L 353.499966 244.557479 
L 356.779305 246.745263 
L 360.058644 248.824212 
L 363.337983 250.558323 
L 366.617322 251.703958 
L 369.896661 252.034874 
L 373.175999 251.376059 
L 376.455338 249.6479 
L 379.734677 246.922366 
L 383.014016 243.493038 
L 386.293355 239.960996 
L 389.572694 237.338758 
L 392.852033 237.174648 
L 396.131371 241.700158 
L 399.41071 254.003111 
" clip-path="url(#p2eea3a9a21)" style="fill: none; stroke: #1f77b4; stroke-width: 1.5; stroke-linecap: square"/>
   </g>
   <g id="line2d_18">
    <path d="M 74.756165 229.791992 
L 77.208369 245.601042 
L 79.660573 258.2765 
L 82.112778 265.856159 
L 84.564982 267.415346 
L 87.017186 262.81003 
L 89.469391 252.461206 
L 91.921595 237.175994 
L 94.373799 218.001177 
L 96.826004 196.105295 
L 99.278208 172.685672 
L 101.730413 148.897094 
L 104.182617 125.799118 
L 106.634821 104.319274 
L 109.087026 85.229656 
L 111.53923 69.13467 
L 113.991434 56.467916 
L 116.443639 47.496377 
L 118.895843 42.330339 
L 121.348047 40.937591 
L 123.800252 43.160679 
L 126.252456 48.736136 
L 128.70466 57.314739 
L 131.156865 68.482022 
L 133.609069 81.778386 
L 136.061273 96.71825 
L 138.513478 112.807832 
L 140.965682 129.561211 
L 143.417886 146.514439 
L 145.870091 163.237541 
L 148.322295 179.344302 
L 150.774499 194.499836 
L 153.226704 208.42594 
L 155.678908 220.904343 
L 158.131112 231.777934 
L 160.583317 240.950157 
L 163.035521 248.382723 
L 165.487725 254.091863 
L 167.93993 258.143329 
L 170.392134 260.64637 
L 172.844338 261.746928 
L 175.296543 261.620269 
L 177.748747 260.463296 
L 180.200951 258.486758 
L 182.653156 255.907567 
L 185.10536 252.941422 
L 187.557564 249.795916 
L 190.009769 246.664291 
L 192.461973 243.71997 
L 194.914177 248.863513 
L 197.366382 248.863431 
L 199.818586 238.992748 
L 202.27079 237.858956 
L 204.722995 237.278597 
L 207.175199 237.257403 
L 209.627403 237.774791 
L 212.079608 238.78597 
L 214.531812 240.224793 
L 216.984016 242.007267 
L 219.436221 244.035589 
L 221.888425 246.202627 
L 224.340629 248.396669 
L 226.792834 250.506331 
L 229.245038 252.42544 
L 231.697242 254.057765 
L 234.149447 255.321404 
L 236.601651 256.152697 
L 239.053855 256.509486 
L 241.50606 256.373601 
L 243.958264 255.752411 
L 246.410469 254.679351 
L 248.862673 253.213315 
L 251.314877 251.436857 
L 253.767082 249.453153 
L 256.219286 247.381739 
L 258.67149 245.353071 
L 261.123695 243.501986 
L 263.575899 241.960233 
L 266.028103 240.848275 
L 268.480308 240.266644 
L 270.932512 240.287215 
L 273.384716 240.944822 
L 275.836921 242.229762 
L 278.289125 244.081815 
L 280.741329 246.386498 
L 283.193534 248.974439 
L 285.645738 251.624803 
L 288.097942 254.07392 
L 290.550147 256.030334 
L 293.002351 257.197687 
L 295.454555 257.30701 
L 297.90676 256.160127 
L 300.358964 253.686125 
L 302.811168 250.012961 
L 305.263373 245.556542 
L 307.715577 241.129797 
L 310.167781 238.074473 
L 312.619986 238.418668 
L 315.07219 245.063323 
L 317.524394 262.001161 
" clip-path="url(#p2eea3a9a21)" style="fill: none; stroke: #ff7f0e; stroke-width: 1.5; stroke-linecap: square"/>
   </g>
   <g id="line2d_19">
    <path d="M 74.756165 217.601047 
L 77.371612 249.544524 
L 79.987059 268.740874 
L 82.602506 276.334125 
L 85.217953 273.833793 
L 87.8334 262.963524 
L 90.448847 245.538701 
L 93.064294 223.369495 
L 95.679741 198.186087 
L 98.295188 171.583098 
L 100.910635 144.980505 
L 103.526082 119.598548 
L 106.141529 96.444398 
L 108.756976 76.308534 
L 111.372423 59.76901 
L 113.98787 47.201981 
L 116.603317 38.79702 
L 119.218764 34.575961 
L 121.834211 34.414125 
L 124.449658 38.062962 
L 127.065105 45.173269 
L 129.680552 55.318269 
L 132.295999 68.01596 
L 134.911446 82.750253 
L 137.526893 98.990502 
L 140.142341 116.209145 
L 142.757788 133.897229 
L 145.373235 151.577698 
L 147.988682 168.816353 
L 150.604129 185.23048 
L 153.219576 200.495184 
L 155.835023 214.347511 
L 158.45047 226.58847 
L 161.065917 237.083122 
L 163.681364 245.7589 
L 166.296811 252.60237 
L 168.912258 257.654637 
L 171.527705 261.00563 
L 174.143152 262.787485 
L 176.758599 263.167266 
L 179.374046 262.339247 
L 181.989493 260.516981 
L 184.60494 257.92536 
L 187.220387 254.792881 
L 189.835834 251.344282 
L 192.451281 247.793733 
L 195.066728 244.338718 
L 197.682175 241.154738 
L 200.297622 238.390934 
L 202.913069 248.864444 
L 205.528516 248.863742 
L 208.143963 236.172971 
L 210.75941 235.863821 
L 213.374857 236.118254 
L 215.990304 236.905473 
L 218.605751 238.17255 
L 221.221198 239.847392 
L 223.836645 241.842248 
L 226.452092 244.057633 
L 229.067539 246.386571 
L 231.682987 248.71904 
L 234.298434 250.946476 
L 236.913881 252.966222 
L 239.529328 254.685778 
L 242.144775 256.026718 
L 244.760222 256.928151 
L 247.375669 257.349582 
L 249.991116 257.273078 
L 252.606563 256.704607 
L 255.22201 255.674483 
L 257.837457 254.236822 
L 260.452904 252.467967 
L 263.068351 250.463859 
L 265.683798 248.336347 
L 268.299245 246.208488 
L 270.914692 244.208897 
L 273.530139 242.46528 
L 276.145586 241.097314 
L 278.761033 240.209085 
L 281.37648 239.881367 
L 283.991927 240.164093 
L 286.607374 241.069402 
L 289.222821 242.565768 
L 291.838268 244.573767 
L 294.453715 246.964126 
L 297.069162 249.558798 
L 299.684609 252.135911 
L 302.300056 254.439526 
L 304.915503 256.195263 
L 307.53095 257.132975 
L 310.146397 257.017772 
L 312.761844 255.690823 
L 315.377291 253.121517 
L 317.992738 249.472711 
L 320.608186 245.180928 
L 323.223633 241.053574 
L 325.83908 238.385361 
L 328.454527 239.096361 
L 331.069974 245.89425 
L 333.685421 262.463543 
" clip-path="url(#p2eea3a9a21)" style="fill: none; stroke: #2ca02c; stroke-width: 1.5; stroke-linecap: square"/>
   </g>
   <g id="line2d_20">
    <path d="M 74.756165 121.903592 
L 77.650662 169.698988 
L 80.545159 202.452826 
L 83.439657 223.224352 
L 86.334154 234.611328 
L 89.228651 238.804227 
L 92.123149 237.635452 
L 95.017646 232.62392 
L 97.912143 225.015345 
L 100.806641 215.818543 
L 103.701138 205.838051 
L 106.595635 195.703343 
L 109.490133 185.894917 
L 112.38463 176.76749 
L 115.279127 168.570562 
L 118.173625 161.466542 
L 121.068122 155.546674 
L 123.962619 150.844942 
L 126.857117 147.350143 
L 129.751614 145.016305 
L 132.646111 143.771603 
L 135.540609 143.525935 
L 138.435106 144.177279 
L 141.329603 145.616979 
L 144.224101 147.734078 
L 147.118598 150.41879 
L 150.013095 153.56524 
L 152.907593 157.073548 
L 155.80209 160.851354 
L 158.696587 164.814849 
L 161.591085 168.889403 
L 164.485582 173.009843 
L 167.380079 177.12044 
L 170.274577 181.174662 
L 173.169074 185.134745 
L 176.063571 188.971109 
L 178.958068 192.661682 
L 181.852566 196.191137 
L 184.747063 199.550088 
L 187.64156 202.734276 
L 190.536058 205.743739 
L 193.430555 208.582021 
L 196.325052 211.255398 
L 199.21955 213.772169 
L 202.114047 216.141986 
L 205.008544 218.375263 
L 207.903042 220.482642 
L 210.797539 222.474538 
L 213.692036 224.360759 
L 216.586534 248.854251 
L 219.481031 248.855528 
L 222.375528 226.942098 
L 225.270026 228.279562 
L 228.164523 229.677952 
L 231.05902 231.140578 
L 233.953518 232.663193 
L 236.848015 234.234359 
L 239.742512 235.836097 
L 242.63701 237.444771 
L 245.531507 239.03221 
L 248.426004 240.567003 
L 251.320502 242.01595 
L 254.214999 243.345605 
L 257.109496 244.523878 
L 260.003994 245.521627 
L 262.898491 246.314189 
L 265.792988 246.882807 
L 268.687486 247.215869 
L 271.581983 247.309935 
L 274.47648 247.170472 
L 277.370978 246.812264 
L 280.265475 246.259456 
L 283.159972 245.545188 
L 286.05447 244.710802 
L 288.948967 243.804603 
L 291.843464 242.880184 
L 294.737962 241.994318 
L 297.632459 241.204464 
L 300.526956 240.565934 
L 303.421453 240.128804 
L 306.315951 239.934668 
L 309.210448 240.01337 
L 312.104945 240.379883 
L 314.999443 241.031514 
L 317.89394 241.945695 
L 320.788437 243.078615 
L 323.682935 244.365018 
L 326.577432 245.719532 
L 329.471929 247.039951 
L 332.366427 248.212922 
L 335.260924 249.122588 
L 338.155421 249.662753 
L 341.049919 249.753234 
L 343.944416 249.361129 
L 346.838913 248.527775 
L 349.733411 247.402298 
L 352.627908 246.28269 
L 355.522405 245.665457 
L 358.416903 246.304987 
L 361.3114 249.283838 
" clip-path="url(#p2eea3a9a21)" style="fill: none; stroke: #d62728; stroke-width: 1.5; stroke-linecap: square"/>
   </g>
   <g id="line2d_21">
    <path d="M 74.756165 231.264286 
L 77.345666 256.015965 
L 79.935166 263.58753 
L 82.524667 259.340192 
L 85.114168 247.51326 
L 87.703668 231.397704 
L 90.293169 213.489366 
L 92.88267 195.623611 
L 95.472171 179.093091 
L 98.061671 164.750191 
L 100.651172 153.095618 
L 103.240673 144.354504 
L 105.830174 138.541284 
L 108.419674 135.514536 
L 111.009175 135.02288 
L 113.598676 136.742932 
L 116.188177 140.310268 
L 118.777677 145.344231 
L 121.367178 151.467391 
L 123.956679 158.320366 
L 126.546179 165.572657 
L 129.13568 172.930105 
L 131.725181 180.139499 
L 134.314682 186.990821 
L 136.904182 193.317573 
L 139.493683 198.995562 
L 142.083184 203.940489 
L 144.672685 208.104654 
L 147.262185 211.473028 
L 149.851686 214.058926 
L 152.441187 215.899476 
L 155.030688 217.051052 
L 157.620188 217.584796 
L 160.209689 217.582355 
L 162.79919 217.131907 
L 165.38869 216.324552 
L 167.978191 215.251111 
L 170.567692 213.999368 
L 173.157193 212.651758 
L 175.746693 211.283525 
L 178.336194 209.961321 
L 180.925695 208.742237 
L 183.515196 207.673238 
L 186.104696 206.790976 
L 188.694197 206.12192 
L 191.283698 205.682797 
L 193.873199 205.481259 
L 196.462699 205.516768 
L 199.0522 205.78162 
L 201.641701 248.853489 
L 204.231201 248.853015 
L 206.820702 208.849819 
L 209.410203 209.943168 
L 211.999704 211.104382 
L 214.589204 212.306738 
L 217.178705 213.526898 
L 219.768206 214.745639 
L 222.357707 215.948326 
L 224.947207 217.125145 
L 227.536708 218.271074 
L 230.126209 219.385623 
L 232.71571 220.472347 
L 235.30521 221.538168 
L 237.894711 222.592532 
L 240.484212 223.646443 
L 243.073712 224.711416 
L 245.663213 225.798399 
L 248.252714 226.916708 
L 250.842215 228.073033 
L 253.431715 229.270575 
L 256.021216 230.50834 
L 258.610717 231.780669 
L 261.200218 233.077027 
L 263.789718 234.382093 
L 266.379219 235.676184 
L 268.96872 236.936017 
L 271.558221 238.135835 
L 274.147721 239.248854 
L 276.737222 240.249025 
L 279.326723 241.113053 
L 281.916223 241.822576 
L 284.505724 242.366439 
L 287.095225 242.742883 
L 289.684726 242.961517 
L 292.274226 243.044842 
L 294.863727 243.029101 
L 297.453228 242.964137 
L 300.042729 242.911946 
L 302.632229 242.943511 
L 305.22173 243.133481 
L 307.811231 243.552166 
L 310.400732 244.254299 
L 312.990232 245.263886 
L 315.579733 246.55445 
L 318.169234 248.023847 
L 320.758734 249.462782 
L 323.348235 250.516041 
L 325.937736 250.635372 
L 328.527237 249.022838 
L 331.116737 244.563377 
" clip-path="url(#p2eea3a9a21)" style="fill: none; stroke: #9467bd; stroke-width: 1.5; stroke-linecap: square"/>
   </g>
   <g id="line2d_22">
    <path d="M 74.756165 258.297432 
L 76.945261 242.870198 
L 79.134357 238.752488 
L 81.323454 240.363843 
L 83.51255 243.735169 
L 85.701646 246.19474 
L 87.890743 246.09806 
L 90.079839 242.597188 
L 92.268935 235.445382 
L 94.458031 224.833253 
L 96.647128 211.2529 
L 98.836224 195.386751 
L 101.02532 178.0181 
L 103.214417 159.960602 
L 105.403513 142.00417 
L 107.592609 124.874988 
L 109.781706 109.207522 
L 111.970802 95.526661 
L 114.159898 84.23823 
L 116.348994 75.626384 
L 118.538091 69.856466 
L 120.727187 66.98215 
L 122.916283 66.955766 
L 125.10538 69.640884 
L 127.294476 74.826335 
L 129.483572 82.240985 
L 131.672668 91.568658 
L 133.861765 102.462726 
L 136.050861 114.559969 
L 138.239957 127.493385 
L 140.429054 140.903706 
L 142.61815 154.449458 
L 144.807246 167.815437 
L 146.996343 180.71956 
L 149.185439 192.918064 
L 151.374535 204.209099 
L 153.563631 214.434769 
L 155.752728 223.481724 
L 157.941824 231.280422 
L 160.13092 237.8032 
L 162.320017 243.061317 
L 164.509113 247.101117 
L 166.698209 249.99951 
L 168.887306 251.858923 
L 171.076402 252.801907 
L 173.265498 252.965564 
L 175.454594 252.495964 
L 177.643691 251.542694 
L 179.832787 250.253693 
L 182.021883 248.859124 
L 184.21098 248.860175 
L 186.400076 245.442544 
L 188.589172 243.941791 
L 190.778268 242.692689 
L 192.967365 241.760211 
L 195.156461 241.186761 
L 197.345557 240.992081 
L 199.534654 241.173959 
L 201.72375 241.709673 
L 203.912846 242.558143 
L 206.101943 243.662683 
L 208.291039 244.954279 
L 210.480135 246.355281 
L 212.669231 247.783376 
L 214.858328 249.15572 
L 217.047424 250.393083 
L 219.23652 251.423859 
L 221.425617 252.187785 
L 223.614713 252.639236 
L 225.803809 252.749933 
L 227.992906 252.510939 
L 230.182002 251.933824 
L 232.371098 251.050874 
L 234.560194 249.914293 
L 236.749291 248.594313 
L 238.938387 247.176212 
L 241.127483 245.756242 
L 243.31658 244.436551 
L 245.505676 243.319185 
L 247.694772 242.499373 
L 249.883868 242.058313 
L 252.072965 242.055773 
L 254.262061 242.522914 
L 256.451157 243.455789 
L 258.640254 244.810115 
L 260.82935 246.497988 
L 263.018446 248.387335 
L 265.207543 250.305025 
L 267.396639 252.044679 
L 269.585735 253.380378 
L 271.774831 254.087602 
L 273.963928 253.972907 
L 276.153024 252.914015 
L 278.34212 250.912177 
L 280.531217 248.15886 
L 282.720313 245.119012 
L 284.909409 242.633391 
L 287.098506 242.042659 
L 289.287602 245.336177 
L 291.476698 255.328726 
" clip-path="url(#p2eea3a9a21)" style="fill: none; stroke: #8c564b; stroke-width: 1.5; stroke-linecap: square"/>
   </g>
   <g id="patch_3">
    <path d="M 58.523438 288.430125 
L 58.523438 22.318125 
" style="fill: none; stroke: #000000; stroke-width: 0.8; stroke-linejoin: miter; stroke-linecap: square"/>
   </g>
   <g id="patch_4">
    <path d="M 415.643438 288.430125 
L 415.643438 22.318125 
" style="fill: none; stroke: #000000; stroke-width: 0.8; stroke-linejoin: miter; stroke-linecap: square"/>
   </g>
   <g id="patch_5">
    <path d="M 58.523438 288.430125 
L 415.643438 288.430125 
" style="fill: none; stroke: #000000; stroke-width: 0.8; stroke-linejoin: miter; stroke-linecap: square"/>
   </g>
   <g id="patch_6">
    <path d="M 58.523438 22.318125 
L 415.643438 22.318125 
" style="fill: none; stroke: #000000; stroke-width: 0.8; stroke-linejoin: miter; stroke-linecap: square"/>
   </g>
   <g id="text_19">
    <!-- RD - Cortico_Ponto_Cerebellum_Right -->
    <g transform="translate(124.915313 16.318125) scale(0.12 -0.12)">
     <defs>
      <path id="DejaVuSans-52" d="M 2841 2188 
Q 3044 2119 3236 1894 
Q 3428 1669 3622 1275 
L 4263 0 
L 3584 0 
L 2988 1197 
Q 2756 1666 2539 1819 
Q 2322 1972 1947 1972 
L 1259 1972 
L 1259 0 
L 628 0 
L 628 4666 
L 2053 4666 
Q 2853 4666 3247 4331 
Q 3641 3997 3641 3322 
Q 3641 2881 3436 2590 
Q 3231 2300 2841 2188 
z
M 1259 4147 
L 1259 2491 
L 2053 2491 
Q 2509 2491 2742 2702 
Q 2975 2913 2975 3322 
Q 2975 3731 2742 3939 
Q 2509 4147 2053 4147 
L 1259 4147 
z
" transform="scale(0.015625)"/>
      <path id="DejaVuSans-44" d="M 1259 4147 
L 1259 519 
L 2022 519 
Q 2988 519 3436 956 
Q 3884 1394 3884 2338 
Q 3884 3275 3436 3711 
Q 2988 4147 2022 4147 
L 1259 4147 
z
M 628 4666 
L 1925 4666 
Q 3281 4666 3915 4102 
Q 4550 3538 4550 2338 
Q 4550 1131 3912 565 
Q 3275 0 1925 0 
L 628 0 
L 628 4666 
z
" transform="scale(0.015625)"/>
      <path id="DejaVuSans-2d" d="M 313 2009 
L 1997 2009 
L 1997 1497 
L 313 1497 
L 313 2009 
z
" transform="scale(0.015625)"/>
      <path id="DejaVuSans-43" d="M 4122 4306 
L 4122 3641 
Q 3803 3938 3442 4084 
Q 3081 4231 2675 4231 
Q 1875 4231 1450 3742 
Q 1025 3253 1025 2328 
Q 1025 1406 1450 917 
Q 1875 428 2675 428 
Q 3081 428 3442 575 
Q 3803 722 4122 1019 
L 4122 359 
Q 3791 134 3420 21 
Q 3050 -91 2638 -91 
Q 1578 -91 968 557 
Q 359 1206 359 2328 
Q 359 3453 968 4101 
Q 1578 4750 2638 4750 
Q 3056 4750 3426 4639 
Q 3797 4528 4122 4306 
z
" transform="scale(0.015625)"/>
      <path id="DejaVuSans-6f" d="M 1959 3097 
Q 1497 3097 1228 2736 
Q 959 2375 959 1747 
Q 959 1119 1226 758 
Q 1494 397 1959 397 
Q 2419 397 2687 759 
Q 2956 1122 2956 1747 
Q 2956 2369 2687 2733 
Q 2419 3097 1959 3097 
z
M 1959 3584 
Q 2709 3584 3137 3096 
Q 3566 2609 3566 1747 
Q 3566 888 3137 398 
Q 2709 -91 1959 -91 
Q 1206 -91 779 398 
Q 353 888 353 1747 
Q 353 2609 779 3096 
Q 1206 3584 1959 3584 
z
" transform="scale(0.015625)"/>
      <path id="DejaVuSans-74" d="M 1172 4494 
L 1172 3500 
L 2356 3500 
L 2356 3053 
L 1172 3053 
L 1172 1153 
Q 1172 725 1289 603 
Q 1406 481 1766 481 
L 2356 481 
L 2356 0 
L 1766 0 
Q 1100 0 847 248 
Q 594 497 594 1153 
L 594 3053 
L 172 3053 
L 172 3500 
L 594 3500 
L 594 4494 
L 1172 4494 
z
" transform="scale(0.015625)"/>
      <path id="DejaVuSans-5f" d="M 3263 -1063 
L 3263 -1509 
L -63 -1509 
L -63 -1063 
L 3263 -1063 
z
" transform="scale(0.015625)"/>
      <path id="DejaVuSans-62" d="M 3116 1747 
Q 3116 2381 2855 2742 
Q 2594 3103 2138 3103 
Q 1681 3103 1420 2742 
Q 1159 2381 1159 1747 
Q 1159 1113 1420 752 
Q 1681 391 2138 391 
Q 2594 391 2855 752 
Q 3116 1113 3116 1747 
z
M 1159 2969 
Q 1341 3281 1617 3432 
Q 1894 3584 2278 3584 
Q 2916 3584 3314 3078 
Q 3713 2572 3713 1747 
Q 3713 922 3314 415 
Q 2916 -91 2278 -91 
Q 1894 -91 1617 61 
Q 1341 213 1159 525 
L 1159 0 
L 581 0 
L 581 4863 
L 1159 4863 
L 1159 2969 
z
" transform="scale(0.015625)"/>
      <path id="DejaVuSans-6d" d="M 3328 2828 
Q 3544 3216 3844 3400 
Q 4144 3584 4550 3584 
Q 5097 3584 5394 3201 
Q 5691 2819 5691 2113 
L 5691 0 
L 5113 0 
L 5113 2094 
Q 5113 2597 4934 2840 
Q 4756 3084 4391 3084 
Q 3944 3084 3684 2787 
Q 3425 2491 3425 1978 
L 3425 0 
L 2847 0 
L 2847 2094 
Q 2847 2600 2669 2842 
Q 2491 3084 2119 3084 
Q 1678 3084 1418 2786 
Q 1159 2488 1159 1978 
L 1159 0 
L 581 0 
L 581 3500 
L 1159 3500 
L 1159 2956 
Q 1356 3278 1631 3431 
Q 1906 3584 2284 3584 
Q 2666 3584 2933 3390 
Q 3200 3197 3328 2828 
z
" transform="scale(0.015625)"/>
      <path id="DejaVuSans-67" d="M 2906 1791 
Q 2906 2416 2648 2759 
Q 2391 3103 1925 3103 
Q 1463 3103 1205 2759 
Q 947 2416 947 1791 
Q 947 1169 1205 825 
Q 1463 481 1925 481 
Q 2391 481 2648 825 
Q 2906 1169 2906 1791 
z
M 3481 434 
Q 3481 -459 3084 -895 
Q 2688 -1331 1869 -1331 
Q 1566 -1331 1297 -1286 
Q 1028 -1241 775 -1147 
L 775 -588 
Q 1028 -725 1275 -790 
Q 1522 -856 1778 -856 
Q 2344 -856 2625 -561 
Q 2906 -266 2906 331 
L 2906 616 
Q 2728 306 2450 153 
Q 2172 0 1784 0 
Q 1141 0 747 490 
Q 353 981 353 1791 
Q 353 2603 747 3093 
Q 1141 3584 1784 3584 
Q 2172 3584 2450 3431 
Q 2728 3278 2906 2969 
L 2906 3500 
L 3481 3500 
L 3481 434 
z
" transform="scale(0.015625)"/>
      <path id="DejaVuSans-68" d="M 3513 2113 
L 3513 0 
L 2938 0 
L 2938 2094 
Q 2938 2591 2744 2837 
Q 2550 3084 2163 3084 
Q 1697 3084 1428 2787 
Q 1159 2491 1159 1978 
L 1159 0 
L 581 0 
L 581 4863 
L 1159 4863 
L 1159 2956 
Q 1366 3272 1645 3428 
Q 1925 3584 2291 3584 
Q 2894 3584 3203 3211 
Q 3513 2838 3513 2113 
z
" transform="scale(0.015625)"/>
     </defs>
     <use xlink:href="#DejaVuSans-52"/>
     <use xlink:href="#DejaVuSans-44" x="69.482422"/>
     <use xlink:href="#DejaVuSans-20" x="146.484375"/>
     <use xlink:href="#DejaVuSans-2d" x="178.271484"/>
     <use xlink:href="#DejaVuSans-20" x="214.355469"/>
     <use xlink:href="#DejaVuSans-43" x="246.142578"/>
     <use xlink:href="#DejaVuSans-6f" x="315.966797"/>
     <use xlink:href="#DejaVuSans-72" x="377.148438"/>
     <use xlink:href="#DejaVuSans-74" x="418.261719"/>
     <use xlink:href="#DejaVuSans-69" x="457.470703"/>
     <use xlink:href="#DejaVuSans-63" x="485.253906"/>
     <use xlink:href="#DejaVuSans-6f" x="540.234375"/>
     <use xlink:href="#DejaVuSans-5f" x="601.416016"/>
     <use xlink:href="#DejaVuSans-50" x="651.416016"/>
     <use xlink:href="#DejaVuSans-6f" x="708.09375"/>
     <use xlink:href="#DejaVuSans-6e" x="769.275391"/>
     <use xlink:href="#DejaVuSans-74" x="832.654297"/>
     <use xlink:href="#DejaVuSans-6f" x="871.863281"/>
     <use xlink:href="#DejaVuSans-5f" x="933.044922"/>
     <use xlink:href="#DejaVuSans-43" x="983.044922"/>
     <use xlink:href="#DejaVuSans-65" x="1052.869141"/>
     <use xlink:href="#DejaVuSans-72" x="1114.392578"/>
     <use xlink:href="#DejaVuSans-65" x="1153.255859"/>
     <use xlink:href="#DejaVuSans-62" x="1214.779297"/>
     <use xlink:href="#DejaVuSans-65" x="1278.255859"/>
     <use xlink:href="#DejaVuSans-6c" x="1339.779297"/>
     <use xlink:href="#DejaVuSans-6c" x="1367.5625"/>
     <use xlink:href="#DejaVuSans-75" x="1395.345703"/>
     <use xlink:href="#DejaVuSans-6d" x="1458.724609"/>
     <use xlink:href="#DejaVuSans-5f" x="1556.136719"/>
     <use xlink:href="#DejaVuSans-52" x="1606.136719"/>
     <use xlink:href="#DejaVuSans-69" x="1675.619141"/>
     <use xlink:href="#DejaVuSans-67" x="1703.402344"/>
     <use xlink:href="#DejaVuSans-68" x="1766.878906"/>
     <use xlink:href="#DejaVuSans-74" x="1830.257812"/>
    </g>
   </g>
   <g id="legend_1">
    <g id="patch_7">
     <path d="M 458.355438 146.666825 
L 556.211688 146.666825 
Q 558.211688 146.666825 558.211688 144.666825 
L 558.211688 55.929325 
Q 558.211688 53.929325 556.211688 53.929325 
L 458.355438 53.929325 
Q 456.355438 53.929325 456.355438 55.929325 
L 456.355438 144.666825 
Q 456.355438 146.666825 458.355438 146.666825 
z
" style="fill: #ffffff; opacity: 0.8; stroke: #cccccc; stroke-linejoin: miter"/>
    </g>
    <g id="line2d_23">
     <path d="M 460.355438 62.027762 
L 470.355438 62.027762 
L 480.355438 62.027762 
" style="fill: none; stroke: #1f77b4; stroke-width: 1.5; stroke-linecap: square"/>
    </g>
    <g id="text_20">
     <!-- 20_06_02_E3 -->
     <g transform="translate(488.355438 65.527762) scale(0.1 -0.1)">
      <defs>
       <path id="DejaVuSans-45" d="M 628 4666 
L 3578 4666 
L 3578 4134 
L 1259 4134 
L 1259 2753 
L 3481 2753 
L 3481 2222 
L 1259 2222 
L 1259 531 
L 3634 531 
L 3634 0 
L 628 0 
L 628 4666 
z
" transform="scale(0.015625)"/>
      </defs>
      <use xlink:href="#DejaVuSans-32"/>
      <use xlink:href="#DejaVuSans-30" x="63.623047"/>
      <use xlink:href="#DejaVuSans-5f" x="127.246094"/>
      <use xlink:href="#DejaVuSans-30" x="177.246094"/>
      <use xlink:href="#DejaVuSans-36" x="240.869141"/>
      <use xlink:href="#DejaVuSans-5f" x="304.492188"/>
      <use xlink:href="#DejaVuSans-30" x="354.492188"/>
      <use xlink:href="#DejaVuSans-32" x="418.115234"/>
      <use xlink:href="#DejaVuSans-5f" x="481.738281"/>
      <use xlink:href="#DejaVuSans-45" x="531.738281"/>
      <use xlink:href="#DejaVuSans-33" x="594.921875"/>
     </g>
    </g>
    <g id="line2d_24">
     <path d="M 460.355438 76.984013 
L 470.355438 76.984013 
L 480.355438 76.984013 
" style="fill: none; stroke: #ff7f0e; stroke-width: 1.5; stroke-linecap: square"/>
    </g>
    <g id="text_21">
     <!-- 20_05_01_E3 -->
     <g transform="translate(488.355438 80.484013) scale(0.1 -0.1)">
      <use xlink:href="#DejaVuSans-32"/>
      <use xlink:href="#DejaVuSans-30" x="63.623047"/>
      <use xlink:href="#DejaVuSans-5f" x="127.246094"/>
      <use xlink:href="#DejaVuSans-30" x="177.246094"/>
      <use xlink:href="#DejaVuSans-35" x="240.869141"/>
      <use xlink:href="#DejaVuSans-5f" x="304.492188"/>
      <use xlink:href="#DejaVuSans-30" x="354.492188"/>
      <use xlink:href="#DejaVuSans-31" x="418.115234"/>
      <use xlink:href="#DejaVuSans-5f" x="481.738281"/>
      <use xlink:href="#DejaVuSans-45" x="531.738281"/>
      <use xlink:href="#DejaVuSans-33" x="594.921875"/>
     </g>
    </g>
    <g id="line2d_25">
     <path d="M 460.355438 91.940262 
L 470.355438 91.940262 
L 480.355438 91.940262 
" style="fill: none; stroke: #2ca02c; stroke-width: 1.5; stroke-linecap: square"/>
    </g>
    <g id="text_22">
     <!-- 20_02_02_E3 -->
     <g transform="translate(488.355438 95.440262) scale(0.1 -0.1)">
      <use xlink:href="#DejaVuSans-32"/>
      <use xlink:href="#DejaVuSans-30" x="63.623047"/>
      <use xlink:href="#DejaVuSans-5f" x="127.246094"/>
      <use xlink:href="#DejaVuSans-30" x="177.246094"/>
      <use xlink:href="#DejaVuSans-32" x="240.869141"/>
      <use xlink:href="#DejaVuSans-5f" x="304.492188"/>
      <use xlink:href="#DejaVuSans-30" x="354.492188"/>
      <use xlink:href="#DejaVuSans-32" x="418.115234"/>
      <use xlink:href="#DejaVuSans-5f" x="481.738281"/>
      <use xlink:href="#DejaVuSans-45" x="531.738281"/>
      <use xlink:href="#DejaVuSans-33" x="594.921875"/>
     </g>
    </g>
    <g id="line2d_26">
     <path d="M 460.355438 106.896513 
L 470.355438 106.896513 
L 480.355438 106.896513 
" style="fill: none; stroke: #d62728; stroke-width: 1.5; stroke-linecap: square"/>
    </g>
    <g id="text_23">
     <!-- 20_10_02_E3 -->
     <g transform="translate(488.355438 110.396513) scale(0.1 -0.1)">
      <use xlink:href="#DejaVuSans-32"/>
      <use xlink:href="#DejaVuSans-30" x="63.623047"/>
      <use xlink:href="#DejaVuSans-5f" x="127.246094"/>
      <use xlink:href="#DejaVuSans-31" x="177.246094"/>
      <use xlink:href="#DejaVuSans-30" x="240.869141"/>
      <use xlink:href="#DejaVuSans-5f" x="304.492188"/>
      <use xlink:href="#DejaVuSans-30" x="354.492188"/>
      <use xlink:href="#DejaVuSans-32" x="418.115234"/>
      <use xlink:href="#DejaVuSans-5f" x="481.738281"/>
      <use xlink:href="#DejaVuSans-45" x="531.738281"/>
      <use xlink:href="#DejaVuSans-33" x="594.921875"/>
     </g>
    </g>
    <g id="line2d_27">
     <path d="M 460.355438 121.852762 
L 470.355438 121.852762 
L 480.355438 121.852762 
" style="fill: none; stroke: #9467bd; stroke-width: 1.5; stroke-linecap: square"/>
    </g>
    <g id="text_24">
     <!-- 20_08_02_E3 -->
     <g transform="translate(488.355438 125.352762) scale(0.1 -0.1)">
      <use xlink:href="#DejaVuSans-32"/>
      <use xlink:href="#DejaVuSans-30" x="63.623047"/>
      <use xlink:href="#DejaVuSans-5f" x="127.246094"/>
      <use xlink:href="#DejaVuSans-30" x="177.246094"/>
      <use xlink:href="#DejaVuSans-38" x="240.869141"/>
      <use xlink:href="#DejaVuSans-5f" x="304.492188"/>
      <use xlink:href="#DejaVuSans-30" x="354.492188"/>
      <use xlink:href="#DejaVuSans-32" x="418.115234"/>
      <use xlink:href="#DejaVuSans-5f" x="481.738281"/>
      <use xlink:href="#DejaVuSans-45" x="531.738281"/>
      <use xlink:href="#DejaVuSans-33" x="594.921875"/>
     </g>
    </g>
    <g id="line2d_28">
     <path d="M 460.355438 136.809012 
L 470.355438 136.809012 
L 480.355438 136.809012 
" style="fill: none; stroke: #8c564b; stroke-width: 1.5; stroke-linecap: square"/>
    </g>
    <g id="text_25">
     <!-- 20_11_02_E3 -->
     <g transform="translate(488.355438 140.309012) scale(0.1 -0.1)">
      <use xlink:href="#DejaVuSans-32"/>
      <use xlink:href="#DejaVuSans-30" x="63.623047"/>
      <use xlink:href="#DejaVuSans-5f" x="127.246094"/>
      <use xlink:href="#DejaVuSans-31" x="177.246094"/>
      <use xlink:href="#DejaVuSans-31" x="240.869141"/>
      <use xlink:href="#DejaVuSans-5f" x="304.492188"/>
      <use xlink:href="#DejaVuSans-30" x="354.492188"/>
      <use xlink:href="#DejaVuSans-32" x="418.115234"/>
      <use xlink:href="#DejaVuSans-5f" x="481.738281"/>
      <use xlink:href="#DejaVuSans-45" x="531.738281"/>
      <use xlink:href="#DejaVuSans-33" x="594.921875"/>
     </g>
    </g>
   </g>
  </g>
 </g>
 <defs>
  <clipPath id="p2eea3a9a21">
   <rect x="58.523438" y="22.318125" width="357.12" height="266.112"/>
  </clipPath>
 </defs>
</svg>
