<?xml version="1.0" encoding="utf-8" standalone="no"?>
<!DOCTYPE svg PUBLIC "-//W3C//DTD SVG 1.1//EN"
  "http://www.w3.org/Graphics/SVG/1.1/DTD/svg11.dtd">
<svg xmlns:xlink="http://www.w3.org/1999/xlink" width="557.032pt" height="325.986375pt" viewBox="0 0 557.032 325.986375" xmlns="http://www.w3.org/2000/svg" version="1.1">
 <metadata>
  <rdf:RDF xmlns:dc="http://purl.org/dc/elements/1.1/" xmlns:cc="http://creativecommons.org/ns#" xmlns:rdf="http://www.w3.org/1999/02/22-rdf-syntax-ns#">
   <cc:Work>
    <dc:type rdf:resource="http://purl.org/dc/dcmitype/StillImage"/>
    <dc:date>2023-02-07T23:00:06.113147</dc:date>
    <dc:format>image/svg+xml</dc:format>
    <dc:creator>
     <cc:Agent>
      <dc:title>Matplotlib v3.6.2, https://matplotlib.org/</dc:title>
     </cc:Agent>
    </dc:creator>
   </cc:Work>
  </rdf:RDF>
 </metadata>
 <defs>
  <style type="text/css">*{stroke-linejoin: round; stroke-linecap: butt}</style>
 </defs>
 <g id="figure_1">
  <g id="patch_1">
   <path d="M 0 325.986375 
L 557.032 325.986375 
L 557.032 0 
L 0 0 
z
" style="fill: #ffffff"/>
  </g>
  <g id="axes_1">
   <g id="patch_2">
    <path d="M 50.14375 288.430125 
L 407.26375 288.430125 
L 407.26375 22.318125 
L 50.14375 22.318125 
z
" style="fill: #ffffff"/>
   </g>
   <g id="PolyCollection_1">
    <path d="M 66.376477 61.110029 
L 66.376477 238.428418 
L 69.655816 238.428418 
L 72.935155 238.428418 
L 76.214494 238.428418 
L 79.493833 238.428418 
L 82.773171 238.428418 
L 86.05251 238.428418 
L 89.331849 238.428418 
L 92.611188 238.428418 
L 95.890527 238.428418 
L 99.169866 238.428418 
L 102.449205 238.428418 
L 105.728543 238.428418 
L 109.007882 238.428418 
L 112.287221 238.428418 
L 115.56656 238.428418 
L 118.845899 238.428418 
L 122.125238 238.428418 
L 125.404576 238.428418 
L 128.683915 238.428418 
L 131.963254 238.428418 
L 135.242593 238.428418 
L 138.521932 238.428418 
L 141.801271 238.428418 
L 145.08061 238.428418 
L 148.359948 238.428418 
L 151.639287 238.428418 
L 154.918626 238.428418 
L 158.197965 238.428418 
L 161.477304 238.428418 
L 164.756643 238.428418 
L 168.035981 238.428418 
L 171.31532 238.428418 
L 174.594659 238.428418 
L 177.873998 238.428418 
L 181.153337 238.428418 
L 184.432676 238.428418 
L 187.712014 238.428418 
L 190.991353 238.428418 
L 194.270692 238.428418 
L 197.550031 238.428418 
L 200.82937 238.428418 
L 204.108709 238.428418 
L 207.388048 238.428418 
L 210.667386 238.428418 
L 213.946725 238.428418 
L 217.226064 238.428418 
L 220.505403 238.428418 
L 223.784742 238.428418 
L 227.064081 238.428418 
L 230.343419 238.428418 
L 233.622758 238.428418 
L 236.902097 238.428418 
L 240.181436 238.428418 
L 243.460775 238.428418 
L 246.740114 238.428418 
L 250.019452 238.428418 
L 253.298791 238.428418 
L 256.57813 238.428418 
L 259.857469 238.428418 
L 263.136808 238.428418 
L 266.416147 238.428418 
L 269.695486 238.428418 
L 272.974824 238.428418 
L 276.254163 238.428418 
L 279.533502 238.428418 
L 282.812841 238.428418 
L 286.09218 238.428418 
L 289.371519 238.428418 
L 292.650857 238.428418 
L 295.930196 238.428418 
L 299.209535 238.428418 
L 302.488874 238.428418 
L 305.768213 238.428418 
L 309.047552 238.428418 
L 312.32689 238.428418 
L 315.606229 238.428418 
L 318.885568 238.428418 
L 322.164907 238.428418 
L 325.444246 238.428418 
L 328.723585 238.428418 
L 332.002924 238.428418 
L 335.282262 238.428418 
L 338.561601 238.428418 
L 341.84094 238.428418 
L 345.120279 238.428418 
L 348.399618 238.428418 
L 351.678957 238.428418 
L 354.958295 238.428418 
L 358.237634 238.428418 
L 361.516973 238.428418 
L 364.796312 238.428418 
L 368.075651 238.428418 
L 371.35499 238.428418 
L 374.634329 238.428418 
L 377.913667 238.428418 
L 381.193006 238.428418 
L 384.472345 238.428418 
L 387.751684 238.428418 
L 391.031023 238.428418 
L 391.031023 237.662893 
L 391.031023 237.662893 
L 387.751684 238.847809 
L 384.472345 239.159698 
L 381.193006 239.002963 
L 377.913667 238.651387 
L 374.634329 238.278874 
L 371.35499 237.984856 
L 368.075651 237.815037 
L 364.796312 237.778087 
L 361.516973 237.858855 
L 358.237634 238.028591 
L 354.958295 238.252649 
L 351.678957 238.496066 
L 348.399618 238.727394 
L 345.120279 238.921104 
L 341.84094 239.058851 
L 338.561601 239.12985 
L 335.282262 239.130587 
L 332.002924 239.064043 
L 328.723585 238.938598 
L 325.444246 238.766755 
L 322.164907 238.563779 
L 318.885568 238.346358 
L 315.606229 238.131343 
L 312.32689 237.934631 
L 309.047552 237.770217 
L 305.768213 237.649455 
L 302.488874 237.580521 
L 299.209535 237.568095 
L 295.930196 237.613256 
L 292.650857 237.713556 
L 289.371519 237.863285 
L 286.09218 238.053874 
L 282.812841 238.274425 
L 279.533502 238.512332 
L 276.254163 238.753964 
L 272.974824 238.985382 
L 269.695486 239.193046 
L 266.416147 239.364507 
L 263.136808 239.489028 
L 259.857469 239.55814 
L 256.57813 239.566083 
L 253.298791 239.510139 
L 250.019452 239.390828 
L 246.740114 239.21197 
L 243.460775 238.980595 
L 240.181436 238.70672 
L 236.902097 238.402977 
L 233.622758 238.084126 
L 230.343419 238.428492 
L 227.064081 238.432019 
L 223.784742 231.144911 
L 220.505403 233.368057 
L 217.226064 235.896348 
L 213.946725 238.617289 
L 210.667386 241.406011 
L 207.388048 244.130199 
L 204.108709 246.655513 
L 200.82937 248.851333 
L 197.550031 250.596641 
L 194.270692 251.785853 
L 190.991353 252.334378 
L 187.712014 252.183691 
L 184.432676 251.305704 
L 181.153337 249.706209 
L 177.873998 247.427196 
L 174.594659 244.547836 
L 171.31532 241.183962 
L 168.035981 237.485902 
L 164.756643 233.634538 
L 161.477304 229.835534 
L 158.197965 226.311696 
L 154.918626 223.293507 
L 151.639287 221.00795 
L 148.359948 219.665772 
L 145.08061 219.447495 
L 141.801271 220.488506 
L 138.521932 222.863717 
L 135.242593 226.572385 
L 131.963254 231.523813 
L 128.683915 237.524805 
L 125.404576 244.269884 
L 122.125238 251.335491 
L 118.845899 258.17951 
L 115.56656 264.147716 
L 112.287221 268.4889 
L 109.007882 270.380713 
L 105.728543 268.968441 
L 102.449205 263.41924 
L 99.169866 252.994602 
L 95.890527 237.144109 
L 92.611188 215.623864 
L 89.331849 188.643279 
L 86.05251 157.044275 
L 82.773171 122.517276 
L 79.493833 87.858788 
L 76.214494 57.275729 
L 72.935155 36.742116 
L 69.655816 34.414125 
L 66.376477 61.110029 
z
" clip-path="url(#p1266c48254)" style="fill: #1f77b4; fill-opacity: 0.166667"/>
   </g>
   <g id="PolyCollection_2">
    <path d="M 66.376477 256.187797 
L 66.376477 238.428418 
L 67.173272 238.428418 
L 67.970067 238.428418 
L 68.766862 238.428418 
L 69.563656 238.428418 
L 70.360451 238.428418 
L 71.157246 238.428418 
L 71.954041 238.428418 
L 72.750836 238.428418 
L 73.54763 238.428418 
L 74.344425 238.428418 
L 75.14122 238.428418 
L 75.938015 238.428418 
L 76.734809 238.428418 
L 77.531604 238.428418 
L 78.328399 238.428418 
L 79.125194 238.428418 
L 79.921989 238.428418 
L 80.718783 238.428418 
L 81.515578 238.428418 
L 82.312373 238.428418 
L 83.109168 238.428418 
L 83.905963 238.428418 
L 84.702757 238.428418 
L 85.499552 238.428418 
L 86.296347 238.428418 
L 87.093142 238.428418 
L 87.889936 238.428418 
L 88.686731 238.428418 
L 89.483526 238.428418 
L 90.280321 238.428418 
L 91.077116 238.428418 
L 91.87391 238.428418 
L 92.670705 238.428418 
L 93.4675 238.428418 
L 94.264295 238.428418 
L 95.06109 238.428418 
L 95.857884 238.428418 
L 96.654679 238.428418 
L 97.451474 238.428418 
L 98.248269 238.428418 
L 99.045063 238.428418 
L 99.841858 238.428418 
L 100.638653 238.428418 
L 101.435448 238.428418 
L 102.232243 238.428418 
L 103.029037 238.428418 
L 103.825832 238.428418 
L 104.622627 238.428418 
L 105.419422 238.428418 
L 106.216217 238.428418 
L 107.013011 238.428418 
L 107.809806 238.428418 
L 108.606601 238.428418 
L 109.403396 238.428418 
L 110.20019 238.428418 
L 110.996985 238.428418 
L 111.79378 238.428418 
L 112.590575 238.428418 
L 113.38737 238.428418 
L 114.184164 238.428418 
L 114.980959 238.428418 
L 115.777754 238.428418 
L 116.574549 238.428418 
L 117.371344 238.428418 
L 118.168138 238.428418 
L 118.964933 238.428418 
L 119.761728 238.428418 
L 120.558523 238.428418 
L 121.355317 238.428418 
L 122.152112 238.428418 
L 122.948907 238.428418 
L 123.745702 238.428418 
L 124.542497 238.428418 
L 125.339291 238.428418 
L 126.136086 238.428418 
L 126.932881 238.428418 
L 127.729676 238.428418 
L 128.52647 238.428418 
L 129.323265 238.428418 
L 130.12006 238.428418 
L 130.916855 238.428418 
L 131.71365 238.428418 
L 132.510444 238.428418 
L 133.307239 238.428418 
L 134.104034 238.428418 
L 134.900829 238.428418 
L 135.697624 238.428418 
L 136.494418 238.428418 
L 137.291213 238.428418 
L 138.088008 238.428418 
L 138.884803 238.428418 
L 139.681597 238.428418 
L 140.478392 238.428418 
L 141.275187 238.428418 
L 142.071982 238.428418 
L 142.868777 238.428418 
L 143.665571 238.428418 
L 144.462366 238.428418 
L 145.259161 238.428418 
L 145.259161 230.969746 
L 145.259161 230.969746 
L 144.462366 239.943698 
L 143.665571 243.60869 
L 142.868777 243.983751 
L 142.071982 242.544284 
L 141.275187 240.329824 
L 140.478392 238.035944 
L 139.681597 236.092004 
L 138.884803 234.726324 
L 138.088008 234.02023 
L 137.291213 233.952326 
L 136.494418 234.434201 
L 135.697624 235.338718 
L 134.900829 236.521886 
L 134.104034 237.839277 
L 133.307239 239.157807 
L 132.510444 240.363649 
L 131.71365 241.36697 
L 130.916855 242.104089 
L 130.12006 242.537595 
L 129.323265 242.654909 
L 128.52647 242.4657 
L 127.729676 241.998509 
L 126.932881 241.296894 
L 126.136086 240.415359 
L 125.339291 239.415269 
L 124.542497 238.360936 
L 123.745702 237.31602 
L 122.948907 236.340329 
L 122.152112 235.487122 
L 121.355317 234.800933 
L 120.558523 234.315968 
L 119.761728 234.055065 
L 118.964933 234.029197 
L 118.168138 234.237512 
L 117.371344 234.667841 
L 116.574549 235.297641 
L 115.777754 236.095303 
L 114.980959 237.021765 
L 114.184164 238.032354 
L 113.38737 239.078784 
L 112.590575 240.111246 
L 111.79378 241.080505 
L 110.996985 241.939945 
L 110.20019 242.647493 
L 109.403396 243.167361 
L 108.606601 243.471551 
L 107.809806 243.541081 
L 107.013011 243.366889 
L 106.216217 238.426704 
L 105.419422 238.426195 
L 104.622627 242.762203 
L 103.825832 241.425192 
L 103.029037 239.89579 
L 102.232243 238.24014 
L 101.435448 236.532659 
L 100.638653 234.853241 
L 99.841858 233.28409 
L 99.045063 231.906313 
L 98.248269 230.796334 
L 97.451474 230.022254 
L 96.654679 229.640268 
L 95.857884 229.691262 
L 95.06109 230.19771 
L 94.264295 231.161002 
L 93.4675 232.559331 
L 92.670705 234.346256 
L 91.87391 236.450059 
L 91.077116 238.774002 
L 90.280321 241.197577 
L 89.483526 243.578815 
L 88.686731 245.75772 
L 87.889936 247.560839 
L 87.093142 248.806979 
L 86.296347 249.314024 
L 85.499552 248.906773 
L 84.702757 247.425689 
L 83.905963 244.736363 
L 83.109168 240.739489 
L 82.312373 235.381037 
L 81.515578 228.662286 
L 80.718783 220.649263 
L 79.921989 211.481091 
L 79.125194 201.376638 
L 78.328399 190.638778 
L 77.531604 179.655451 
L 76.734809 168.896641 
L 75.938015 158.906232 
L 75.14122 150.287597 
L 74.344425 143.68165 
L 73.54763 139.735929 
L 72.750836 139.063152 
L 71.954041 142.187508 
L 71.157246 149.476787 
L 70.360451 161.05829 
L 69.563656 176.71624 
L 68.766862 195.768262 
L 67.970067 216.918248 
L 67.173272 238.082751 
L 66.376477 256.187797 
z
" clip-path="url(#p1266c48254)" style="fill: #ff7f0e; fill-opacity: 0.166667"/>
   </g>
   <g id="PolyCollection_3">
    <path d="M 66.376477 218.390706 
L 66.376477 238.428418 
L 68.70768 238.428418 
L 71.038883 238.428418 
L 73.370085 238.428418 
L 75.701288 238.428418 
L 78.032491 238.428418 
L 80.363693 238.428418 
L 82.694896 238.428418 
L 85.026099 238.428418 
L 87.357302 238.428418 
L 89.688504 238.428418 
L 92.019707 238.428418 
L 94.35091 238.428418 
L 96.682112 238.428418 
L 99.013315 238.428418 
L 101.344518 238.428418 
L 103.67572 238.428418 
L 106.006923 238.428418 
L 108.338126 238.428418 
L 110.669328 238.428418 
L 113.000531 238.428418 
L 115.331734 238.428418 
L 117.662937 238.428418 
L 119.994139 238.428418 
L 122.325342 238.428418 
L 124.656545 238.428418 
L 126.987747 238.428418 
L 129.31895 238.428418 
L 131.650153 238.428418 
L 133.981355 238.428418 
L 136.312558 238.428418 
L 138.643761 238.428418 
L 140.974963 238.428418 
L 143.306166 238.428418 
L 145.637369 238.428418 
L 147.968572 238.428418 
L 150.299774 238.428418 
L 152.630977 238.428418 
L 154.96218 238.428418 
L 157.293382 238.428418 
L 159.624585 238.428418 
L 161.955788 238.428418 
L 164.28699 238.428418 
L 166.618193 238.428418 
L 168.949396 238.428418 
L 171.280599 238.428418 
L 173.611801 238.428418 
L 175.943004 238.428418 
L 178.274207 238.428418 
L 180.605409 238.428418 
L 182.936612 238.428418 
L 185.267815 238.428418 
L 187.599017 238.428418 
L 189.93022 238.428418 
L 192.261423 238.428418 
L 194.592625 238.428418 
L 196.923828 238.428418 
L 199.255031 238.428418 
L 201.586234 238.428418 
L 203.917436 238.428418 
L 206.248639 238.428418 
L 208.579842 238.428418 
L 210.911044 238.428418 
L 213.242247 238.428418 
L 215.57345 238.428418 
L 217.904652 238.428418 
L 220.235855 238.428418 
L 222.567058 238.428418 
L 224.89826 238.428418 
L 227.229463 238.428418 
L 229.560666 238.428418 
L 231.891869 238.428418 
L 234.223071 238.428418 
L 236.554274 238.428418 
L 238.885477 238.428418 
L 241.216679 238.428418 
L 243.547882 238.428418 
L 245.879085 238.428418 
L 248.210287 238.428418 
L 250.54149 238.428418 
L 252.872693 238.428418 
L 255.203896 238.428418 
L 257.535098 238.428418 
L 259.866301 238.428418 
L 262.197504 238.428418 
L 264.528706 238.428418 
L 266.859909 238.428418 
L 269.191112 238.428418 
L 271.522314 238.428418 
L 273.853517 238.428418 
L 276.18472 238.428418 
L 278.515922 238.428418 
L 280.847125 238.428418 
L 283.178328 238.428418 
L 285.509531 238.428418 
L 287.840733 238.428418 
L 290.171936 238.428418 
L 292.503139 238.428418 
L 294.834341 238.428418 
L 297.165544 238.428418 
L 297.165544 249.761854 
L 297.165544 249.761854 
L 294.834341 235.611086 
L 292.503139 230.129341 
L 290.171936 229.896192 
L 287.840733 232.44931 
L 285.509531 236.086241 
L 283.178328 239.696734 
L 280.847125 242.622179 
L 278.515922 244.538974 
L 276.18472 245.362888 
L 273.853517 245.17175 
L 271.522314 244.144034 
L 269.191112 242.511092 
L 266.859909 240.521048 
L 264.528706 238.412523 
L 262.197504 236.396556 
L 259.866301 234.645274 
L 257.535098 233.286009 
L 255.203896 232.399706 
L 252.872693 232.022644 
L 250.54149 232.15057 
L 248.210287 232.744521 
L 245.879085 233.73767 
L 243.547882 235.042683 
L 241.216679 236.559134 
L 238.885477 238.180623 
L 236.554274 239.801323 
L 234.223071 241.321745 
L 231.891869 242.653582 
L 229.560666 243.723528 
L 227.229463 244.47605 
L 224.89826 244.875097 
L 222.567058 244.904791 
L 220.235855 244.569165 
L 217.904652 243.891038 
L 215.57345 242.910136 
L 213.242247 241.680584 
L 210.911044 240.267913 
L 208.579842 238.745701 
L 206.248639 237.192013 
L 203.917436 235.685763 
L 201.586234 234.303142 
L 199.255031 233.114236 
L 196.923828 232.179948 
L 194.592625 231.549334 
L 192.261423 231.257429 
L 189.93022 231.323648 
L 187.599017 231.750809 
L 185.267815 232.524811 
L 182.936612 238.430528 
L 180.605409 238.430293 
L 178.274207 235.958957 
L 175.943004 237.567334 
L 173.611801 239.266237 
L 171.280599 240.972184 
L 168.949396 242.598216 
L 166.618193 244.05772 
L 164.28699 245.268439 
L 161.955788 246.156505 
L 159.624585 246.660374 
L 157.293382 246.734489 
L 154.96218 246.352517 
L 152.630977 245.510006 
L 150.299774 244.226297 
L 147.968572 242.545556 
L 145.637369 240.536778 
L 143.306166 238.292657 
L 140.974963 235.927217 
L 138.643761 233.572153 
L 136.312558 231.371837 
L 133.981355 229.477011 
L 131.650153 228.037218 
L 129.31895 227.192086 
L 126.987747 227.061649 
L 124.656545 227.735934 
L 122.325342 229.264156 
L 119.994139 231.643923 
L 117.662937 234.810953 
L 115.331734 238.629929 
L 113.000531 242.887197 
L 110.669328 247.286175 
L 108.338126 251.446445 
L 106.006923 254.907655 
L 103.67572 257.139528 
L 101.344518 257.559409 
L 99.013315 255.55899 
L 96.682112 250.542038 
L 94.35091 241.97513 
L 92.019707 229.453646 
L 89.688504 212.785481 
L 87.357302 192.095176 
L 85.026099 167.951443 
L 82.694896 141.521295 
L 80.363693 114.754315 
L 78.032491 90.60086 
L 75.701288 73.268329 
L 73.370085 68.519956 
L 71.038883 84.020915 
L 68.70768 129.736899 
L 66.376477 218.390706 
z
" clip-path="url(#p1266c48254)" style="fill: #2ca02c; fill-opacity: 0.166667"/>
   </g>
   <g id="PolyCollection_4">
    <path d="M 66.376477 168.322702 
L 66.376477 238.428418 
L 68.693047 238.428418 
L 71.009616 238.428418 
L 73.326186 238.428418 
L 75.642755 238.428418 
L 77.959325 238.428418 
L 80.275894 238.428418 
L 82.592464 238.428418 
L 84.909033 238.428418 
L 87.225603 238.428418 
L 89.542173 238.428418 
L 91.858742 238.428418 
L 94.175312 238.428418 
L 96.491881 238.428418 
L 98.808451 238.428418 
L 101.12502 238.428418 
L 103.44159 238.428418 
L 105.758159 238.428418 
L 108.074729 238.428418 
L 110.391298 238.428418 
L 112.707868 238.428418 
L 115.024437 238.428418 
L 117.341007 238.428418 
L 119.657576 238.428418 
L 121.974146 238.428418 
L 124.290715 238.428418 
L 126.607285 238.428418 
L 128.923854 238.428418 
L 131.240424 238.428418 
L 133.556994 238.428418 
L 135.873563 238.428418 
L 138.190133 238.428418 
L 140.506702 238.428418 
L 142.823272 238.428418 
L 145.139841 238.428418 
L 147.456411 238.428418 
L 149.77298 238.428418 
L 152.08955 238.428418 
L 154.406119 238.428418 
L 156.722689 238.428418 
L 159.039258 238.428418 
L 161.355828 238.428418 
L 163.672397 238.428418 
L 165.988967 238.428418 
L 168.305536 238.428418 
L 170.622106 238.428418 
L 172.938675 238.428418 
L 175.255245 238.428418 
L 177.571814 238.428418 
L 179.888384 238.428418 
L 182.204954 238.428418 
L 184.521523 238.428418 
L 186.838093 238.428418 
L 189.154662 238.428418 
L 191.471232 238.428418 
L 193.787801 238.428418 
L 196.104371 238.428418 
L 198.42094 238.428418 
L 200.73751 238.428418 
L 203.054079 238.428418 
L 205.370649 238.428418 
L 207.687218 238.428418 
L 210.003788 238.428418 
L 212.320357 238.428418 
L 214.636927 238.428418 
L 216.953496 238.428418 
L 219.270066 238.428418 
L 221.586635 238.428418 
L 223.903205 238.428418 
L 226.219775 238.428418 
L 228.536344 238.428418 
L 230.852914 238.428418 
L 233.169483 238.428418 
L 235.486053 238.428418 
L 237.802622 238.428418 
L 240.119192 238.428418 
L 242.435761 238.428418 
L 244.752331 238.428418 
L 247.0689 238.428418 
L 249.38547 238.428418 
L 251.702039 238.428418 
L 254.018609 238.428418 
L 256.335178 238.428418 
L 258.651748 238.428418 
L 260.968317 238.428418 
L 263.284887 238.428418 
L 265.601456 238.428418 
L 267.918026 238.428418 
L 270.234595 238.428418 
L 272.551165 238.428418 
L 274.867735 238.428418 
L 277.184304 238.428418 
L 279.500874 238.428418 
L 281.817443 238.428418 
L 284.134013 238.428418 
L 286.450582 238.428418 
L 288.767152 238.428418 
L 291.083721 238.428418 
L 293.400291 238.428418 
L 295.71686 238.428418 
L 295.71686 254.129016 
L 295.71686 254.129016 
L 293.400291 234.924443 
L 291.083721 227.243425 
L 288.767152 226.634136 
L 286.450582 229.865282 
L 284.134013 234.679034 
L 281.817443 239.581209 
L 279.500874 243.664585 
L 277.184304 246.461563 
L 274.867735 247.822658 
L 272.551165 247.81764 
L 270.234595 246.65635 
L 267.918026 244.626559 
L 265.601456 242.046392 
L 263.284887 239.22915 
L 260.968317 236.458526 
L 258.651748 233.972436 
L 256.335178 231.953885 
L 254.018609 230.527443 
L 251.702039 229.760113 
L 249.38547 229.665475 
L 247.0689 230.210193 
L 244.752331 231.32206 
L 242.435761 232.898906 
L 240.119192 234.817802 
L 237.802622 236.944084 
L 235.486053 239.139833 
L 233.169483 241.271533 
L 230.852914 243.216677 
L 228.536344 244.869203 
L 226.219775 246.143664 
L 223.903205 246.978119 
L 221.586635 247.335746 
L 219.270066 247.205252 
L 216.953496 246.600164 
L 214.636927 245.557111 
L 212.320357 244.133243 
L 210.003788 242.402937 
L 207.687218 240.453943 
L 205.370649 238.383156 
L 203.054079 236.292159 
L 200.73751 234.28272 
L 198.42094 232.452394 
L 196.104371 230.890382 
L 193.787801 229.673773 
L 191.471232 228.864304 
L 189.154662 228.505732 
L 186.838093 228.6219 
L 184.521523 229.215563 
L 182.204954 238.431553 
L 179.888384 238.432681 
L 177.571814 230.492103 
L 175.255245 233.370489 
L 172.938675 236.574185 
L 170.622106 239.956775 
L 168.305536 243.358746 
L 165.988967 246.613978 
L 163.672397 249.556768 
L 161.355828 252.029175 
L 159.039258 253.888432 
L 156.722689 255.014159 
L 154.406119 255.315124 
L 152.08955 254.735243 
L 149.77298 253.258562 
L 147.456411 250.912938 
L 145.139841 247.772156 
L 142.823272 243.956254 
L 140.506702 239.629842 
L 138.190133 234.998249 
L 135.873563 230.301394 
L 133.556994 225.805302 
L 131.240424 221.791303 
L 128.923854 218.542995 
L 126.607285 216.331175 
L 124.290715 215.397027 
L 121.974146 215.934001 
L 119.657576 218.06893 
L 117.341007 221.843085 
L 115.024437 227.194058 
L 112.707868 233.9395 
L 110.391298 241.76397 
L 108.074729 250.210361 
L 105.758159 258.677579 
L 103.44159 266.42642 
L 101.12502 272.595862 
L 98.808451 276.23224 
L 96.491881 276.334125 
L 94.175312 271.916024 
L 91.858742 262.09437 
L 89.542173 246.199653 
L 87.225603 223.918918 
L 84.909033 195.473285 
L 82.592464 161.835566 
L 80.275894 124.993538 
L 77.959325 88.264895 
L 75.642755 56.670428 
L 73.326186 37.372509 
L 71.009616 40.186524 
L 68.693047 78.173491 
L 66.376477 168.322702 
z
" clip-path="url(#p1266c48254)" style="fill: #d62728; fill-opacity: 0.166667"/>
   </g>
   <g id="PolyCollection_5">
    <path d="M 66.376477 261.167091 
L 66.376477 238.428418 
L 67.129959 238.428418 
L 67.883441 238.428418 
L 68.636922 238.428418 
L 69.390404 238.428418 
L 70.143886 238.428418 
L 70.897368 238.428418 
L 71.650849 238.428418 
L 72.404331 238.428418 
L 73.157813 238.428418 
L 73.911295 238.428418 
L 74.664776 238.428418 
L 75.418258 238.428418 
L 76.17174 238.428418 
L 76.925222 238.428418 
L 77.678703 238.428418 
L 78.432185 238.428418 
L 79.185667 238.428418 
L 79.939148 238.428418 
L 80.69263 238.428418 
L 81.446112 238.428418 
L 82.199594 238.428418 
L 82.953075 238.428418 
L 83.706557 238.428418 
L 84.460039 238.428418 
L 85.213521 238.428418 
L 85.967002 238.428418 
L 86.720484 238.428418 
L 87.473966 238.428418 
L 88.227448 238.428418 
L 88.980929 238.428418 
L 89.734411 238.428418 
L 90.487893 238.428418 
L 91.241374 238.428418 
L 91.994856 238.428418 
L 92.748338 238.428418 
L 93.50182 238.428418 
L 94.255301 238.428418 
L 95.008783 238.428418 
L 95.762265 238.428418 
L 96.515747 238.428418 
L 97.269228 238.428418 
L 98.02271 238.428418 
L 98.776192 238.428418 
L 99.529674 238.428418 
L 100.283155 238.428418 
L 101.036637 238.428418 
L 101.790119 238.428418 
L 102.543601 238.428418 
L 103.297082 238.428418 
L 104.050564 238.428418 
L 104.804046 238.428418 
L 105.557527 238.428418 
L 106.311009 238.428418 
L 107.064491 238.428418 
L 107.817973 238.428418 
L 108.571454 238.428418 
L 109.324936 238.428418 
L 110.078418 238.428418 
L 110.8319 238.428418 
L 111.585381 238.428418 
L 112.338863 238.428418 
L 113.092345 238.428418 
L 113.845827 238.428418 
L 114.599308 238.428418 
L 115.35279 238.428418 
L 116.106272 238.428418 
L 116.859753 238.428418 
L 117.613235 238.428418 
L 118.366717 238.428418 
L 119.120199 238.428418 
L 119.87368 238.428418 
L 120.627162 238.428418 
L 121.380644 238.428418 
L 122.134126 238.428418 
L 122.887607 238.428418 
L 123.641089 238.428418 
L 124.394571 238.428418 
L 125.148053 238.428418 
L 125.901534 238.428418 
L 126.655016 238.428418 
L 127.408498 238.428418 
L 128.161979 238.428418 
L 128.915461 238.428418 
L 129.668943 238.428418 
L 130.422425 238.428418 
L 131.175906 238.428418 
L 131.929388 238.428418 
L 132.68287 238.428418 
L 133.436352 238.428418 
L 134.189833 238.428418 
L 134.943315 238.428418 
L 135.696797 238.428418 
L 136.450279 238.428418 
L 137.20376 238.428418 
L 137.957242 238.428418 
L 138.710724 238.428418 
L 139.464205 238.428418 
L 140.217687 238.428418 
L 140.971169 238.428418 
L 140.971169 229.540525 
L 140.971169 229.540525 
L 140.217687 240.231794 
L 139.464205 244.585864 
L 138.710724 245.017915 
L 137.957242 243.291426 
L 137.20376 240.647645 
L 136.450279 237.915969 
L 135.696797 235.607274 
L 134.943315 233.992116 
L 134.189833 233.165548 
L 133.436352 233.100168 
L 132.68287 233.688889 
L 131.929388 234.778776 
L 131.175906 236.197201 
L 130.422425 237.77142 
L 129.668943 239.342612 
L 128.915461 240.775276 
L 128.161979 241.96282 
L 127.408498 242.830063 
L 126.655016 243.333312 
L 125.901534 243.458572 
L 125.148053 243.218397 
L 124.394571 242.6478 
L 123.641089 241.79961 
L 122.887607 240.739563 
L 122.134126 239.541407 
L 121.380644 238.282208 
L 120.627162 237.038044 
L 119.87368 235.880194 
L 119.120199 234.871921 
L 118.366717 234.065903 
L 117.613235 233.502339 
L 116.859753 233.207736 
L 116.106272 233.194361 
L 115.35279 233.460315 
L 114.599308 233.990183 
L 113.845827 234.756196 
L 113.092345 235.719834 
L 112.338863 236.833779 
L 111.585381 238.044145 
L 110.8319 239.292891 
L 110.078418 240.520335 
L 109.324936 241.667669 
L 108.571454 242.679411 
L 107.817973 243.505702 
L 107.064491 244.104376 
L 106.311009 244.442749 
L 105.557527 244.499065 
L 104.804046 244.263545 
L 104.050564 238.426371 
L 103.297082 238.425816 
L 102.543601 243.386612 
L 101.790119 241.801358 
L 101.036637 239.99493 
L 100.283155 238.045947 
L 99.529674 236.042696 
L 98.776192 234.079821 
L 98.02271 232.254615 
L 97.269228 230.662996 
L 96.515747 229.39531 
L 95.762265 228.532058 
L 95.008783 228.139703 
L 94.255301 228.266688 
L 93.50182 228.939819 
L 92.748338 230.161153 
L 91.994856 231.905548 
L 91.241374 234.119016 
L 90.487893 236.718004 
L 89.734411 239.589735 
L 88.980929 242.593718 
L 88.227448 245.564495 
L 87.473966 248.315702 
L 86.720484 250.645465 
L 85.967002 252.343117 
L 85.213521 253.1972 
L 84.460039 253.00465 
L 83.706557 251.58101 
L 82.953075 248.771467 
L 82.199594 244.462443 
L 81.446112 238.593379 
L 80.69263 231.168291 
L 79.939148 222.266581 
L 79.185667 212.052486 
L 78.432185 200.782454 
L 77.678703 188.809617 
L 76.925222 176.584413 
L 76.17174 164.650281 
L 75.418258 153.633216 
L 74.664776 144.22382 
L 73.911295 137.150326 
L 73.157813 133.140919 
L 72.404331 132.873483 
L 71.650849 136.910727 
L 70.897368 145.618441 
L 70.143886 159.06443 
L 69.390404 176.895439 
L 68.636922 198.18917 
L 67.883441 221.278233 
L 67.129959 243.54263 
L 66.376477 261.167091 
z
" clip-path="url(#p1266c48254)" style="fill: #9467bd; fill-opacity: 0.166667"/>
   </g>
   <g id="PolyCollection_6">
    <path d="M 66.376477 240.532582 
L 66.376477 238.428418 
L 66.638665 238.428418 
L 66.900853 238.428418 
L 67.16304 238.428418 
L 67.425228 238.428418 
L 67.687415 238.428418 
L 67.949603 238.428418 
L 68.211791 238.428418 
L 68.473978 238.428418 
L 68.736166 238.428418 
L 68.998354 238.428418 
L 69.260541 238.428418 
L 69.522729 238.428418 
L 69.784916 238.428418 
L 70.047104 238.428418 
L 70.309292 238.428418 
L 70.571479 238.428418 
L 70.833667 238.428418 
L 71.095855 238.428418 
L 71.358042 238.428418 
L 71.62023 238.428418 
L 71.882417 238.428418 
L 72.144605 238.428418 
L 72.406793 238.428418 
L 72.66898 238.428418 
L 72.931168 238.428418 
L 73.193356 238.428418 
L 73.455543 238.428418 
L 73.717731 238.428418 
L 73.979918 238.428418 
L 74.242106 238.428418 
L 74.504294 238.428418 
L 74.766481 238.428418 
L 75.028669 238.428418 
L 75.290856 238.428418 
L 75.553044 238.428418 
L 75.815232 238.428418 
L 76.077419 238.428418 
L 76.339607 238.428418 
L 76.601795 238.428418 
L 76.863982 238.428418 
L 77.12617 238.428418 
L 77.388357 238.428418 
L 77.650545 238.428418 
L 77.912733 238.428418 
L 78.17492 238.428418 
L 78.437108 238.428418 
L 78.699296 238.428418 
L 78.961483 238.428418 
L 79.223671 238.428418 
L 79.485858 238.428418 
L 79.748046 238.428418 
L 80.010234 238.428418 
L 80.272421 238.428418 
L 80.534609 238.428418 
L 80.796797 238.428418 
L 81.058984 238.428418 
L 81.321172 238.428418 
L 81.583359 238.428418 
L 81.845547 238.428418 
L 82.107735 238.428418 
L 82.369922 238.428418 
L 82.63211 238.428418 
L 82.894298 238.428418 
L 83.156485 238.428418 
L 83.418673 238.428418 
L 83.68086 238.428418 
L 83.943048 238.428418 
L 84.205236 238.428418 
L 84.467423 238.428418 
L 84.729611 238.428418 
L 84.991799 238.428418 
L 85.253986 238.428418 
L 85.516174 238.428418 
L 85.778361 238.428418 
L 86.040549 238.428418 
L 86.302737 238.428418 
L 86.564924 238.428418 
L 86.827112 238.428418 
L 87.0893 238.428418 
L 87.351487 238.428418 
L 87.613675 238.428418 
L 87.875862 238.428418 
L 88.13805 238.428418 
L 88.400238 238.428418 
L 88.662425 238.428418 
L 88.924613 238.428418 
L 89.186801 238.428418 
L 89.448988 238.428418 
L 89.711176 238.428418 
L 89.973363 238.428418 
L 90.235551 238.428418 
L 90.497739 238.428418 
L 90.759926 238.428418 
L 91.022114 238.428418 
L 91.284302 238.428418 
L 91.546489 238.428418 
L 91.808677 238.428418 
L 92.070864 238.428418 
L 92.333052 238.428418 
L 92.333052 235.903046 
L 92.333052 235.903046 
L 92.070864 238.739557 
L 91.808677 239.95393 
L 91.546489 240.134735 
L 91.284302 239.722101 
L 91.022114 239.034585 
L 90.759926 238.292526 
L 90.497739 237.638238 
L 90.235551 237.153324 
L 89.973363 236.873397 
L 89.711176 236.800468 
L 89.448988 236.913256 
L 89.186801 237.175637 
L 88.924613 237.543457 
L 88.662425 237.969892 
L 88.400238 238.409555 
L 88.13805 238.82151 
L 87.875862 239.171345 
L 87.613675 239.432453 
L 87.351487 239.58665 
L 87.0893 239.624244 
L 86.827112 239.543669 
L 86.564924 239.35077 
L 86.302737 239.057842 
L 86.040549 238.682475 
L 85.778361 238.246305 
L 85.516174 237.773692 
L 85.253986 237.290415 
L 84.991799 236.822397 
L 84.729611 236.394511 
L 84.467423 236.029496 
L 84.205236 235.747 
L 83.943048 235.562781 
L 83.68086 235.488057 
L 83.418673 235.529044 
L 83.156485 235.686646 
L 82.894298 235.956338 
L 82.63211 236.328208 
L 82.369922 236.787155 
L 82.107735 237.313255 
L 81.845547 237.882246 
L 81.583359 238.466151 
L 81.321172 239.034002 
L 81.058984 239.55265 
L 80.796797 239.98765 
L 80.534609 240.304194 
L 80.272421 240.46807 
L 80.010234 240.446628 
L 79.748046 240.209742 
L 79.485858 238.42567 
L 79.223671 238.425226 
L 78.961483 238.189365 
L 78.699296 236.848461 
L 78.437108 235.1983 
L 78.17492 233.242387 
L 77.912733 230.991929 
L 77.650545 228.465939 
L 77.388357 225.691153 
L 77.12617 222.701784 
L 76.863982 219.539079 
L 76.601795 216.25071 
L 76.339607 212.88999 
L 76.077419 209.514928 
L 75.815232 206.18713 
L 75.553044 202.970568 
L 75.290856 199.930232 
L 75.028669 197.130681 
L 74.766481 194.634531 
L 74.504294 192.500893 
L 74.242106 190.783796 
L 73.979918 189.530631 
L 73.717731 188.780642 
L 73.455543 188.563512 
L 73.193356 188.898066 
L 72.931168 189.791151 
L 72.66898 191.236717 
L 72.406793 193.215145 
L 72.144605 195.692878 
L 71.882417 198.622369 
L 71.62023 201.942426 
L 71.358042 205.578958 
L 71.095855 209.446192 
L 70.833667 213.448387 
L 70.571479 217.482077 
L 70.309292 221.438898 
L 70.047104 225.209002 
L 69.784916 228.685115 
L 69.522729 231.767239 
L 69.260541 234.368034 
L 68.998354 236.418883 
L 68.736166 237.876648 
L 68.473978 238.731124 
L 68.211791 239.013179 
L 67.949603 238.803558 
L 67.687415 238.242346 
L 67.425228 237.539025 
L 67.16304 236.983117 
L 66.900853 236.955319 
L 66.638665 237.939087 
L 66.376477 240.532582 
z
" clip-path="url(#p1266c48254)" style="fill: #8c564b; fill-opacity: 0.166667"/>
   </g>
   <g id="matplotlib.axis_1">
    <g id="xtick_1">
     <g id="line2d_1">
      <defs>
       <path id="m8cf54ff8c2" d="M 0 0 
L 0 3.5 
" style="stroke: #000000; stroke-width: 0.8"/>
      </defs>
      <g>
       <use xlink:href="#m8cf54ff8c2" x="66.376477" y="288.430125" style="stroke: #000000; stroke-width: 0.8"/>
      </g>
     </g>
     <g id="text_1">
      <!-- 0.000 -->
      <g transform="translate(52.062415 303.028562) scale(0.1 -0.1)">
       <defs>
        <path id="DejaVuSans-30" d="M 2034 4250 
Q 1547 4250 1301 3770 
Q 1056 3291 1056 2328 
Q 1056 1369 1301 889 
Q 1547 409 2034 409 
Q 2525 409 2770 889 
Q 3016 1369 3016 2328 
Q 3016 3291 2770 3770 
Q 2525 4250 2034 4250 
z
M 2034 4750 
Q 2819 4750 3233 4129 
Q 3647 3509 3647 2328 
Q 3647 1150 3233 529 
Q 2819 -91 2034 -91 
Q 1250 -91 836 529 
Q 422 1150 422 2328 
Q 422 3509 836 4129 
Q 1250 4750 2034 4750 
z
" transform="scale(0.015625)"/>
        <path id="DejaVuSans-2e" d="M 684 794 
L 1344 794 
L 1344 0 
L 684 0 
L 684 794 
z
" transform="scale(0.015625)"/>
       </defs>
       <use xlink:href="#DejaVuSans-30"/>
       <use xlink:href="#DejaVuSans-2e" x="63.623047"/>
       <use xlink:href="#DejaVuSans-30" x="95.410156"/>
       <use xlink:href="#DejaVuSans-30" x="159.033203"/>
       <use xlink:href="#DejaVuSans-30" x="222.65625"/>
      </g>
     </g>
    </g>
    <g id="xtick_2">
     <g id="line2d_2">
      <g>
       <use xlink:href="#m8cf54ff8c2" x="117.08535" y="288.430125" style="stroke: #000000; stroke-width: 0.8"/>
      </g>
     </g>
     <g id="text_2">
      <!-- 0.005 -->
      <g transform="translate(102.771287 303.028562) scale(0.1 -0.1)">
       <defs>
        <path id="DejaVuSans-35" d="M 691 4666 
L 3169 4666 
L 3169 4134 
L 1269 4134 
L 1269 2991 
Q 1406 3038 1543 3061 
Q 1681 3084 1819 3084 
Q 2600 3084 3056 2656 
Q 3513 2228 3513 1497 
Q 3513 744 3044 326 
Q 2575 -91 1722 -91 
Q 1428 -91 1123 -41 
Q 819 9 494 109 
L 494 744 
Q 775 591 1075 516 
Q 1375 441 1709 441 
Q 2250 441 2565 725 
Q 2881 1009 2881 1497 
Q 2881 1984 2565 2268 
Q 2250 2553 1709 2553 
Q 1456 2553 1204 2497 
Q 953 2441 691 2322 
L 691 4666 
z
" transform="scale(0.015625)"/>
       </defs>
       <use xlink:href="#DejaVuSans-30"/>
       <use xlink:href="#DejaVuSans-2e" x="63.623047"/>
       <use xlink:href="#DejaVuSans-30" x="95.410156"/>
       <use xlink:href="#DejaVuSans-30" x="159.033203"/>
       <use xlink:href="#DejaVuSans-35" x="222.65625"/>
      </g>
     </g>
    </g>
    <g id="xtick_3">
     <g id="line2d_3">
      <g>
       <use xlink:href="#m8cf54ff8c2" x="167.794223" y="288.430125" style="stroke: #000000; stroke-width: 0.8"/>
      </g>
     </g>
     <g id="text_3">
      <!-- 0.010 -->
      <g transform="translate(153.48016 303.028562) scale(0.1 -0.1)">
       <defs>
        <path id="DejaVuSans-31" d="M 794 531 
L 1825 531 
L 1825 4091 
L 703 3866 
L 703 4441 
L 1819 4666 
L 2450 4666 
L 2450 531 
L 3481 531 
L 3481 0 
L 794 0 
L 794 531 
z
" transform="scale(0.015625)"/>
       </defs>
       <use xlink:href="#DejaVuSans-30"/>
       <use xlink:href="#DejaVuSans-2e" x="63.623047"/>
       <use xlink:href="#DejaVuSans-30" x="95.410156"/>
       <use xlink:href="#DejaVuSans-31" x="159.033203"/>
       <use xlink:href="#DejaVuSans-30" x="222.65625"/>
      </g>
     </g>
    </g>
    <g id="xtick_4">
     <g id="line2d_4">
      <g>
       <use xlink:href="#m8cf54ff8c2" x="218.503095" y="288.430125" style="stroke: #000000; stroke-width: 0.8"/>
      </g>
     </g>
     <g id="text_4">
      <!-- 0.015 -->
      <g transform="translate(204.189033 303.028562) scale(0.1 -0.1)">
       <use xlink:href="#DejaVuSans-30"/>
       <use xlink:href="#DejaVuSans-2e" x="63.623047"/>
       <use xlink:href="#DejaVuSans-30" x="95.410156"/>
       <use xlink:href="#DejaVuSans-31" x="159.033203"/>
       <use xlink:href="#DejaVuSans-35" x="222.65625"/>
      </g>
     </g>
    </g>
    <g id="xtick_5">
     <g id="line2d_5">
      <g>
       <use xlink:href="#m8cf54ff8c2" x="269.211968" y="288.430125" style="stroke: #000000; stroke-width: 0.8"/>
      </g>
     </g>
     <g id="text_5">
      <!-- 0.020 -->
      <g transform="translate(254.897906 303.028562) scale(0.1 -0.1)">
       <defs>
        <path id="DejaVuSans-32" d="M 1228 531 
L 3431 531 
L 3431 0 
L 469 0 
L 469 531 
Q 828 903 1448 1529 
Q 2069 2156 2228 2338 
Q 2531 2678 2651 2914 
Q 2772 3150 2772 3378 
Q 2772 3750 2511 3984 
Q 2250 4219 1831 4219 
Q 1534 4219 1204 4116 
Q 875 4013 500 3803 
L 500 4441 
Q 881 4594 1212 4672 
Q 1544 4750 1819 4750 
Q 2544 4750 2975 4387 
Q 3406 4025 3406 3419 
Q 3406 3131 3298 2873 
Q 3191 2616 2906 2266 
Q 2828 2175 2409 1742 
Q 1991 1309 1228 531 
z
" transform="scale(0.015625)"/>
       </defs>
       <use xlink:href="#DejaVuSans-30"/>
       <use xlink:href="#DejaVuSans-2e" x="63.623047"/>
       <use xlink:href="#DejaVuSans-30" x="95.410156"/>
       <use xlink:href="#DejaVuSans-32" x="159.033203"/>
       <use xlink:href="#DejaVuSans-30" x="222.65625"/>
      </g>
     </g>
    </g>
    <g id="xtick_6">
     <g id="line2d_6">
      <g>
       <use xlink:href="#m8cf54ff8c2" x="319.920841" y="288.430125" style="stroke: #000000; stroke-width: 0.8"/>
      </g>
     </g>
     <g id="text_6">
      <!-- 0.025 -->
      <g transform="translate(305.606778 303.028562) scale(0.1 -0.1)">
       <use xlink:href="#DejaVuSans-30"/>
       <use xlink:href="#DejaVuSans-2e" x="63.623047"/>
       <use xlink:href="#DejaVuSans-30" x="95.410156"/>
       <use xlink:href="#DejaVuSans-32" x="159.033203"/>
       <use xlink:href="#DejaVuSans-35" x="222.65625"/>
      </g>
     </g>
    </g>
    <g id="xtick_7">
     <g id="line2d_7">
      <g>
       <use xlink:href="#m8cf54ff8c2" x="370.629714" y="288.430125" style="stroke: #000000; stroke-width: 0.8"/>
      </g>
     </g>
     <g id="text_7">
      <!-- 0.030 -->
      <g transform="translate(356.315651 303.028562) scale(0.1 -0.1)">
       <defs>
        <path id="DejaVuSans-33" d="M 2597 2516 
Q 3050 2419 3304 2112 
Q 3559 1806 3559 1356 
Q 3559 666 3084 287 
Q 2609 -91 1734 -91 
Q 1441 -91 1130 -33 
Q 819 25 488 141 
L 488 750 
Q 750 597 1062 519 
Q 1375 441 1716 441 
Q 2309 441 2620 675 
Q 2931 909 2931 1356 
Q 2931 1769 2642 2001 
Q 2353 2234 1838 2234 
L 1294 2234 
L 1294 2753 
L 1863 2753 
Q 2328 2753 2575 2939 
Q 2822 3125 2822 3475 
Q 2822 3834 2567 4026 
Q 2313 4219 1838 4219 
Q 1578 4219 1281 4162 
Q 984 4106 628 3988 
L 628 4550 
Q 988 4650 1302 4700 
Q 1616 4750 1894 4750 
Q 2613 4750 3031 4423 
Q 3450 4097 3450 3541 
Q 3450 3153 3228 2886 
Q 3006 2619 2597 2516 
z
" transform="scale(0.015625)"/>
       </defs>
       <use xlink:href="#DejaVuSans-30"/>
       <use xlink:href="#DejaVuSans-2e" x="63.623047"/>
       <use xlink:href="#DejaVuSans-30" x="95.410156"/>
       <use xlink:href="#DejaVuSans-33" x="159.033203"/>
       <use xlink:href="#DejaVuSans-30" x="222.65625"/>
      </g>
     </g>
    </g>
    <g id="text_8">
     <!-- Pixel values -->
     <g transform="translate(199.292031 316.706687) scale(0.1 -0.1)">
      <defs>
       <path id="DejaVuSans-50" d="M 1259 4147 
L 1259 2394 
L 2053 2394 
Q 2494 2394 2734 2622 
Q 2975 2850 2975 3272 
Q 2975 3691 2734 3919 
Q 2494 4147 2053 4147 
L 1259 4147 
z
M 628 4666 
L 2053 4666 
Q 2838 4666 3239 4311 
Q 3641 3956 3641 3272 
Q 3641 2581 3239 2228 
Q 2838 1875 2053 1875 
L 1259 1875 
L 1259 0 
L 628 0 
L 628 4666 
z
" transform="scale(0.015625)"/>
       <path id="DejaVuSans-69" d="M 603 3500 
L 1178 3500 
L 1178 0 
L 603 0 
L 603 3500 
z
M 603 4863 
L 1178 4863 
L 1178 4134 
L 603 4134 
L 603 4863 
z
" transform="scale(0.015625)"/>
       <path id="DejaVuSans-78" d="M 3513 3500 
L 2247 1797 
L 3578 0 
L 2900 0 
L 1881 1375 
L 863 0 
L 184 0 
L 1544 1831 
L 300 3500 
L 978 3500 
L 1906 2253 
L 2834 3500 
L 3513 3500 
z
" transform="scale(0.015625)"/>
       <path id="DejaVuSans-65" d="M 3597 1894 
L 3597 1613 
L 953 1613 
Q 991 1019 1311 708 
Q 1631 397 2203 397 
Q 2534 397 2845 478 
Q 3156 559 3463 722 
L 3463 178 
Q 3153 47 2828 -22 
Q 2503 -91 2169 -91 
Q 1331 -91 842 396 
Q 353 884 353 1716 
Q 353 2575 817 3079 
Q 1281 3584 2069 3584 
Q 2775 3584 3186 3129 
Q 3597 2675 3597 1894 
z
M 3022 2063 
Q 3016 2534 2758 2815 
Q 2500 3097 2075 3097 
Q 1594 3097 1305 2825 
Q 1016 2553 972 2059 
L 3022 2063 
z
" transform="scale(0.015625)"/>
       <path id="DejaVuSans-6c" d="M 603 4863 
L 1178 4863 
L 1178 0 
L 603 0 
L 603 4863 
z
" transform="scale(0.015625)"/>
       <path id="DejaVuSans-20" transform="scale(0.015625)"/>
       <path id="DejaVuSans-76" d="M 191 3500 
L 800 3500 
L 1894 563 
L 2988 3500 
L 3597 3500 
L 2284 0 
L 1503 0 
L 191 3500 
z
" transform="scale(0.015625)"/>
       <path id="DejaVuSans-61" d="M 2194 1759 
Q 1497 1759 1228 1600 
Q 959 1441 959 1056 
Q 959 750 1161 570 
Q 1363 391 1709 391 
Q 2188 391 2477 730 
Q 2766 1069 2766 1631 
L 2766 1759 
L 2194 1759 
z
M 3341 1997 
L 3341 0 
L 2766 0 
L 2766 531 
Q 2569 213 2275 61 
Q 1981 -91 1556 -91 
Q 1019 -91 701 211 
Q 384 513 384 1019 
Q 384 1609 779 1909 
Q 1175 2209 1959 2209 
L 2766 2209 
L 2766 2266 
Q 2766 2663 2505 2880 
Q 2244 3097 1772 3097 
Q 1472 3097 1187 3025 
Q 903 2953 641 2809 
L 641 3341 
Q 956 3463 1253 3523 
Q 1550 3584 1831 3584 
Q 2591 3584 2966 3190 
Q 3341 2797 3341 1997 
z
" transform="scale(0.015625)"/>
       <path id="DejaVuSans-75" d="M 544 1381 
L 544 3500 
L 1119 3500 
L 1119 1403 
Q 1119 906 1312 657 
Q 1506 409 1894 409 
Q 2359 409 2629 706 
Q 2900 1003 2900 1516 
L 2900 3500 
L 3475 3500 
L 3475 0 
L 2900 0 
L 2900 538 
Q 2691 219 2414 64 
Q 2138 -91 1772 -91 
Q 1169 -91 856 284 
Q 544 659 544 1381 
z
M 1991 3584 
L 1991 3584 
z
" transform="scale(0.015625)"/>
       <path id="DejaVuSans-73" d="M 2834 3397 
L 2834 2853 
Q 2591 2978 2328 3040 
Q 2066 3103 1784 3103 
Q 1356 3103 1142 2972 
Q 928 2841 928 2578 
Q 928 2378 1081 2264 
Q 1234 2150 1697 2047 
L 1894 2003 
Q 2506 1872 2764 1633 
Q 3022 1394 3022 966 
Q 3022 478 2636 193 
Q 2250 -91 1575 -91 
Q 1294 -91 989 -36 
Q 684 19 347 128 
L 347 722 
Q 666 556 975 473 
Q 1284 391 1588 391 
Q 1994 391 2212 530 
Q 2431 669 2431 922 
Q 2431 1156 2273 1281 
Q 2116 1406 1581 1522 
L 1381 1569 
Q 847 1681 609 1914 
Q 372 2147 372 2553 
Q 372 3047 722 3315 
Q 1072 3584 1716 3584 
Q 2034 3584 2315 3537 
Q 2597 3491 2834 3397 
z
" transform="scale(0.015625)"/>
      </defs>
      <use xlink:href="#DejaVuSans-50"/>
      <use xlink:href="#DejaVuSans-69" x="58.052734"/>
      <use xlink:href="#DejaVuSans-78" x="85.835938"/>
      <use xlink:href="#DejaVuSans-65" x="141.890625"/>
      <use xlink:href="#DejaVuSans-6c" x="203.414062"/>
      <use xlink:href="#DejaVuSans-20" x="231.197266"/>
      <use xlink:href="#DejaVuSans-76" x="262.984375"/>
      <use xlink:href="#DejaVuSans-61" x="322.164062"/>
      <use xlink:href="#DejaVuSans-6c" x="383.443359"/>
      <use xlink:href="#DejaVuSans-75" x="411.226562"/>
      <use xlink:href="#DejaVuSans-65" x="474.605469"/>
      <use xlink:href="#DejaVuSans-73" x="536.128906"/>
     </g>
    </g>
   </g>
   <g id="matplotlib.axis_2">
    <g id="ytick_1">
     <g id="line2d_8">
      <defs>
       <path id="m4a026062c1" d="M 0 0 
L -3.5 0 
" style="stroke: #000000; stroke-width: 0.8"/>
      </defs>
      <g>
       <use xlink:href="#m4a026062c1" x="50.14375" y="238.428418" style="stroke: #000000; stroke-width: 0.8"/>
      </g>
     </g>
     <g id="text_9">
      <!-- 0.00 -->
      <g transform="translate(20.878125 242.227637) scale(0.1 -0.1)">
       <use xlink:href="#DejaVuSans-30"/>
       <use xlink:href="#DejaVuSans-2e" x="63.623047"/>
       <use xlink:href="#DejaVuSans-30" x="95.410156"/>
       <use xlink:href="#DejaVuSans-30" x="159.033203"/>
      </g>
     </g>
    </g>
    <g id="ytick_2">
     <g id="line2d_9">
      <g>
       <use xlink:href="#m4a026062c1" x="50.14375" y="184.792983" style="stroke: #000000; stroke-width: 0.8"/>
      </g>
     </g>
     <g id="text_10">
      <!-- 0.05 -->
      <g transform="translate(20.878125 188.592202) scale(0.1 -0.1)">
       <use xlink:href="#DejaVuSans-30"/>
       <use xlink:href="#DejaVuSans-2e" x="63.623047"/>
       <use xlink:href="#DejaVuSans-30" x="95.410156"/>
       <use xlink:href="#DejaVuSans-35" x="159.033203"/>
      </g>
     </g>
    </g>
    <g id="ytick_3">
     <g id="line2d_10">
      <g>
       <use xlink:href="#m4a026062c1" x="50.14375" y="131.157548" style="stroke: #000000; stroke-width: 0.8"/>
      </g>
     </g>
     <g id="text_11">
      <!-- 0.10 -->
      <g transform="translate(20.878125 134.956766) scale(0.1 -0.1)">
       <use xlink:href="#DejaVuSans-30"/>
       <use xlink:href="#DejaVuSans-2e" x="63.623047"/>
       <use xlink:href="#DejaVuSans-31" x="95.410156"/>
       <use xlink:href="#DejaVuSans-30" x="159.033203"/>
      </g>
     </g>
    </g>
    <g id="ytick_4">
     <g id="line2d_11">
      <g>
       <use xlink:href="#m4a026062c1" x="50.14375" y="77.522112" style="stroke: #000000; stroke-width: 0.8"/>
      </g>
     </g>
     <g id="text_12">
      <!-- 0.15 -->
      <g transform="translate(20.878125 81.321331) scale(0.1 -0.1)">
       <use xlink:href="#DejaVuSans-30"/>
       <use xlink:href="#DejaVuSans-2e" x="63.623047"/>
       <use xlink:href="#DejaVuSans-31" x="95.410156"/>
       <use xlink:href="#DejaVuSans-35" x="159.033203"/>
      </g>
     </g>
    </g>
    <g id="ytick_5">
     <g id="line2d_12">
      <g>
       <use xlink:href="#m4a026062c1" x="50.14375" y="23.886677" style="stroke: #000000; stroke-width: 0.8"/>
      </g>
     </g>
     <g id="text_13">
      <!-- 0.20 -->
      <g transform="translate(20.878125 27.685896) scale(0.1 -0.1)">
       <use xlink:href="#DejaVuSans-30"/>
       <use xlink:href="#DejaVuSans-2e" x="63.623047"/>
       <use xlink:href="#DejaVuSans-32" x="95.410156"/>
       <use xlink:href="#DejaVuSans-30" x="159.033203"/>
      </g>
     </g>
    </g>
    <g id="text_14">
     <!-- Frequency -->
     <g transform="translate(14.798438 181.203812) rotate(-90) scale(0.1 -0.1)">
      <defs>
       <path id="DejaVuSans-46" d="M 628 4666 
L 3309 4666 
L 3309 4134 
L 1259 4134 
L 1259 2759 
L 3109 2759 
L 3109 2228 
L 1259 2228 
L 1259 0 
L 628 0 
L 628 4666 
z
" transform="scale(0.015625)"/>
       <path id="DejaVuSans-72" d="M 2631 2963 
Q 2534 3019 2420 3045 
Q 2306 3072 2169 3072 
Q 1681 3072 1420 2755 
Q 1159 2438 1159 1844 
L 1159 0 
L 581 0 
L 581 3500 
L 1159 3500 
L 1159 2956 
Q 1341 3275 1631 3429 
Q 1922 3584 2338 3584 
Q 2397 3584 2469 3576 
Q 2541 3569 2628 3553 
L 2631 2963 
z
" transform="scale(0.015625)"/>
       <path id="DejaVuSans-71" d="M 947 1747 
Q 947 1113 1208 752 
Q 1469 391 1925 391 
Q 2381 391 2643 752 
Q 2906 1113 2906 1747 
Q 2906 2381 2643 2742 
Q 2381 3103 1925 3103 
Q 1469 3103 1208 2742 
Q 947 2381 947 1747 
z
M 2906 525 
Q 2725 213 2448 61 
Q 2172 -91 1784 -91 
Q 1150 -91 751 415 
Q 353 922 353 1747 
Q 353 2572 751 3078 
Q 1150 3584 1784 3584 
Q 2172 3584 2448 3432 
Q 2725 3281 2906 2969 
L 2906 3500 
L 3481 3500 
L 3481 -1331 
L 2906 -1331 
L 2906 525 
z
" transform="scale(0.015625)"/>
       <path id="DejaVuSans-6e" d="M 3513 2113 
L 3513 0 
L 2938 0 
L 2938 2094 
Q 2938 2591 2744 2837 
Q 2550 3084 2163 3084 
Q 1697 3084 1428 2787 
Q 1159 2491 1159 1978 
L 1159 0 
L 581 0 
L 581 3500 
L 1159 3500 
L 1159 2956 
Q 1366 3272 1645 3428 
Q 1925 3584 2291 3584 
Q 2894 3584 3203 3211 
Q 3513 2838 3513 2113 
z
" transform="scale(0.015625)"/>
       <path id="DejaVuSans-63" d="M 3122 3366 
L 3122 2828 
Q 2878 2963 2633 3030 
Q 2388 3097 2138 3097 
Q 1578 3097 1268 2742 
Q 959 2388 959 1747 
Q 959 1106 1268 751 
Q 1578 397 2138 397 
Q 2388 397 2633 464 
Q 2878 531 3122 666 
L 3122 134 
Q 2881 22 2623 -34 
Q 2366 -91 2075 -91 
Q 1284 -91 818 406 
Q 353 903 353 1747 
Q 353 2603 823 3093 
Q 1294 3584 2113 3584 
Q 2378 3584 2631 3529 
Q 2884 3475 3122 3366 
z
" transform="scale(0.015625)"/>
       <path id="DejaVuSans-79" d="M 2059 -325 
Q 1816 -950 1584 -1140 
Q 1353 -1331 966 -1331 
L 506 -1331 
L 506 -850 
L 844 -850 
Q 1081 -850 1212 -737 
Q 1344 -625 1503 -206 
L 1606 56 
L 191 3500 
L 800 3500 
L 1894 763 
L 2988 3500 
L 3597 3500 
L 2059 -325 
z
" transform="scale(0.015625)"/>
      </defs>
      <use xlink:href="#DejaVuSans-46"/>
      <use xlink:href="#DejaVuSans-72" x="50.269531"/>
      <use xlink:href="#DejaVuSans-65" x="89.132812"/>
      <use xlink:href="#DejaVuSans-71" x="150.65625"/>
      <use xlink:href="#DejaVuSans-75" x="214.132812"/>
      <use xlink:href="#DejaVuSans-65" x="277.511719"/>
      <use xlink:href="#DejaVuSans-6e" x="339.035156"/>
      <use xlink:href="#DejaVuSans-63" x="402.414062"/>
      <use xlink:href="#DejaVuSans-79" x="457.394531"/>
     </g>
    </g>
   </g>
   <g id="line2d_13">
    <path d="M 66.376477 61.110029 
L 69.655816 34.414125 
L 72.935155 36.742116 
L 76.214494 57.275729 
L 79.493833 87.858788 
L 82.773171 122.517276 
L 86.05251 157.044275 
L 89.331849 188.643279 
L 92.611188 215.623864 
L 95.890527 237.144109 
L 99.169866 252.994602 
L 102.449205 263.41924 
L 105.728543 268.968441 
L 109.007882 270.380713 
L 112.287221 268.4889 
L 115.56656 264.147716 
L 118.845899 258.17951 
L 122.125238 251.335491 
L 125.404576 244.269884 
L 128.683915 237.524805 
L 131.963254 231.523813 
L 135.242593 226.572385 
L 138.521932 222.863717 
L 141.801271 220.488506 
L 145.08061 219.447495 
L 148.359948 219.665772 
L 151.639287 221.00795 
L 154.918626 223.293507 
L 158.197965 226.311696 
L 161.477304 229.835534 
L 164.756643 233.634538 
L 168.035981 237.485902 
L 171.31532 241.183962 
L 174.594659 244.547836 
L 177.873998 247.427196 
L 181.153337 249.706209 
L 184.432676 251.305704 
L 187.712014 252.183691 
L 190.991353 252.334378 
L 194.270692 251.785853 
L 197.550031 250.596641 
L 200.82937 248.851333 
L 204.108709 246.655513 
L 207.388048 244.130199 
L 210.667386 241.406011 
L 213.946725 238.617289 
L 217.226064 235.896348 
L 220.505403 233.368057 
L 223.784742 231.144911 
L 227.064081 238.432019 
L 230.343419 238.428492 
L 233.622758 238.084126 
L 236.902097 238.402977 
L 240.181436 238.70672 
L 243.460775 238.980595 
L 246.740114 239.21197 
L 250.019452 239.390828 
L 253.298791 239.510139 
L 256.57813 239.566083 
L 259.857469 239.55814 
L 263.136808 239.489028 
L 266.416147 239.364507 
L 269.695486 239.193046 
L 272.974824 238.985382 
L 276.254163 238.753964 
L 279.533502 238.512332 
L 282.812841 238.274425 
L 286.09218 238.053874 
L 289.371519 237.863285 
L 292.650857 237.713556 
L 295.930196 237.613256 
L 299.209535 237.568095 
L 302.488874 237.580521 
L 305.768213 237.649455 
L 309.047552 237.770217 
L 312.32689 237.934631 
L 315.606229 238.131343 
L 318.885568 238.346358 
L 322.164907 238.563779 
L 325.444246 238.766755 
L 328.723585 238.938598 
L 332.002924 239.064043 
L 335.282262 239.130587 
L 338.561601 239.12985 
L 341.84094 239.058851 
L 345.120279 238.921104 
L 348.399618 238.727394 
L 351.678957 238.496066 
L 354.958295 238.252649 
L 358.237634 238.028591 
L 361.516973 237.858855 
L 364.796312 237.778087 
L 368.075651 237.815037 
L 371.35499 237.984856 
L 374.634329 238.278874 
L 377.913667 238.651387 
L 381.193006 239.002963 
L 384.472345 239.159698 
L 387.751684 238.847809 
L 391.031023 237.662893 
" clip-path="url(#p1266c48254)" style="fill: none; stroke: #1f77b4; stroke-width: 1.5; stroke-linecap: square"/>
   </g>
   <g id="line2d_14">
    <path d="M 66.376477 256.187797 
L 67.173272 238.082751 
L 67.970067 216.918248 
L 68.766862 195.768262 
L 69.563656 176.71624 
L 70.360451 161.05829 
L 71.157246 149.476787 
L 71.954041 142.187508 
L 72.750836 139.063152 
L 73.54763 139.735929 
L 74.344425 143.68165 
L 75.14122 150.287597 
L 75.938015 158.906232 
L 76.734809 168.896641 
L 77.531604 179.655451 
L 78.328399 190.638778 
L 79.125194 201.376638 
L 79.921989 211.481091 
L 80.718783 220.649263 
L 81.515578 228.662286 
L 82.312373 235.381037 
L 83.109168 240.739489 
L 83.905963 244.736363 
L 84.702757 247.425689 
L 85.499552 248.906773 
L 86.296347 249.314024 
L 87.093142 248.806979 
L 87.889936 247.560839 
L 88.686731 245.75772 
L 89.483526 243.578815 
L 90.280321 241.197577 
L 91.077116 238.774002 
L 91.87391 236.450059 
L 92.670705 234.346256 
L 93.4675 232.559331 
L 94.264295 231.161002 
L 95.06109 230.19771 
L 95.857884 229.691262 
L 96.654679 229.640268 
L 97.451474 230.022254 
L 98.248269 230.796334 
L 99.045063 231.906313 
L 99.841858 233.28409 
L 100.638653 234.853241 
L 101.435448 236.532659 
L 102.232243 238.24014 
L 103.029037 239.89579 
L 103.825832 241.425192 
L 104.622627 242.762203 
L 105.419422 238.426195 
L 106.216217 238.426704 
L 107.013011 243.366889 
L 107.809806 243.541081 
L 108.606601 243.471551 
L 109.403396 243.167361 
L 110.20019 242.647493 
L 110.996985 241.939945 
L 111.79378 241.080505 
L 112.590575 240.111246 
L 113.38737 239.078784 
L 114.184164 238.032354 
L 114.980959 237.021765 
L 115.777754 236.095303 
L 116.574549 235.297641 
L 117.371344 234.667841 
L 118.168138 234.237512 
L 118.964933 234.029197 
L 119.761728 234.055065 
L 120.558523 234.315968 
L 121.355317 234.800933 
L 122.152112 235.487122 
L 122.948907 236.340329 
L 123.745702 237.31602 
L 124.542497 238.360936 
L 125.339291 239.415269 
L 126.136086 240.415359 
L 126.932881 241.296894 
L 127.729676 241.998509 
L 128.52647 242.4657 
L 129.323265 242.654909 
L 130.12006 242.537595 
L 130.916855 242.104089 
L 131.71365 241.36697 
L 132.510444 240.363649 
L 133.307239 239.157807 
L 134.104034 237.839277 
L 134.900829 236.521886 
L 135.697624 235.338718 
L 136.494418 234.434201 
L 137.291213 233.952326 
L 138.088008 234.02023 
L 138.884803 234.726324 
L 139.681597 236.092004 
L 140.478392 238.035944 
L 141.275187 240.329824 
L 142.071982 242.544284 
L 142.868777 243.983751 
L 143.665571 243.60869 
L 144.462366 239.943698 
L 145.259161 230.969746 
" clip-path="url(#p1266c48254)" style="fill: none; stroke: #ff7f0e; stroke-width: 1.5; stroke-linecap: square"/>
   </g>
   <g id="line2d_15">
    <path d="M 66.376477 218.390706 
L 68.70768 129.736899 
L 71.038883 84.020915 
L 73.370085 68.519956 
L 75.701288 73.268329 
L 78.032491 90.60086 
L 80.363693 114.754315 
L 82.694896 141.521295 
L 85.026099 167.951443 
L 87.357302 192.095176 
L 89.688504 212.785481 
L 92.019707 229.453646 
L 94.35091 241.97513 
L 96.682112 250.542038 
L 99.013315 255.55899 
L 101.344518 257.559409 
L 103.67572 257.139528 
L 106.006923 254.907655 
L 108.338126 251.446445 
L 110.669328 247.286175 
L 113.000531 242.887197 
L 115.331734 238.629929 
L 117.662937 234.810953 
L 119.994139 231.643923 
L 122.325342 229.264156 
L 124.656545 227.735934 
L 126.987747 227.061649 
L 129.31895 227.192086 
L 131.650153 228.037218 
L 133.981355 229.477011 
L 136.312558 231.371837 
L 138.643761 233.572153 
L 140.974963 235.927217 
L 143.306166 238.292657 
L 145.637369 240.536778 
L 147.968572 242.545556 
L 150.299774 244.226297 
L 152.630977 245.510006 
L 154.96218 246.352517 
L 157.293382 246.734489 
L 159.624585 246.660374 
L 161.955788 246.156505 
L 164.28699 245.268439 
L 166.618193 244.05772 
L 168.949396 242.598216 
L 171.280599 240.972184 
L 173.611801 239.266237 
L 175.943004 237.567334 
L 178.274207 235.958957 
L 180.605409 238.430293 
L 182.936612 238.430528 
L 185.267815 232.524811 
L 187.599017 231.750809 
L 189.93022 231.323648 
L 192.261423 231.257429 
L 194.592625 231.549334 
L 196.923828 232.179948 
L 199.255031 233.114236 
L 201.586234 234.303142 
L 203.917436 235.685763 
L 206.248639 237.192013 
L 208.579842 238.745701 
L 210.911044 240.267913 
L 213.242247 241.680584 
L 215.57345 242.910136 
L 217.904652 243.891038 
L 220.235855 244.569165 
L 222.567058 244.904791 
L 224.89826 244.875097 
L 227.229463 244.47605 
L 229.560666 243.723528 
L 231.891869 242.653582 
L 234.223071 241.321745 
L 236.554274 239.801323 
L 238.885477 238.180623 
L 241.216679 236.559134 
L 243.547882 235.042683 
L 245.879085 233.73767 
L 248.210287 232.744521 
L 250.54149 232.15057 
L 252.872693 232.022644 
L 255.203896 232.399706 
L 257.535098 233.286009 
L 259.866301 234.645274 
L 262.197504 236.396556 
L 264.528706 238.412523 
L 266.859909 240.521048 
L 269.191112 242.511092 
L 271.522314 244.144034 
L 273.853517 245.17175 
L 276.18472 245.362888 
L 278.515922 244.538974 
L 280.847125 242.622179 
L 283.178328 239.696734 
L 285.509531 236.086241 
L 287.840733 232.44931 
L 290.171936 229.896192 
L 292.503139 230.129341 
L 294.834341 235.611086 
L 297.165544 249.761854 
" clip-path="url(#p1266c48254)" style="fill: none; stroke: #2ca02c; stroke-width: 1.5; stroke-linecap: square"/>
   </g>
   <g id="line2d_16">
    <path d="M 66.376477 168.322702 
L 68.693047 78.173491 
L 71.009616 40.186524 
L 73.326186 37.372509 
L 75.642755 56.670428 
L 77.959325 88.264895 
L 80.275894 124.993538 
L 82.592464 161.835566 
L 84.909033 195.473285 
L 87.225603 223.918918 
L 89.542173 246.199653 
L 91.858742 262.09437 
L 94.175312 271.916024 
L 96.491881 276.334125 
L 98.808451 276.23224 
L 101.12502 272.595862 
L 103.44159 266.42642 
L 105.758159 258.677579 
L 108.074729 250.210361 
L 110.391298 241.76397 
L 112.707868 233.9395 
L 115.024437 227.194058 
L 117.341007 221.843085 
L 119.657576 218.06893 
L 121.974146 215.934001 
L 124.290715 215.397027 
L 126.607285 216.331175 
L 128.923854 218.542995 
L 131.240424 221.791303 
L 133.556994 225.805302 
L 135.873563 230.301394 
L 138.190133 234.998249 
L 140.506702 239.629842 
L 142.823272 243.956254 
L 145.139841 247.772156 
L 147.456411 250.912938 
L 149.77298 253.258562 
L 152.08955 254.735243 
L 154.406119 255.315124 
L 156.722689 255.014159 
L 159.039258 253.888432 
L 161.355828 252.029175 
L 163.672397 249.556768 
L 165.988967 246.613978 
L 168.305536 243.358746 
L 170.622106 239.956775 
L 172.938675 236.574185 
L 175.255245 233.370489 
L 177.571814 230.492103 
L 179.888384 238.432681 
L 182.204954 238.431553 
L 184.521523 229.215563 
L 186.838093 228.6219 
L 189.154662 228.505732 
L 191.471232 228.864304 
L 193.787801 229.673773 
L 196.104371 230.890382 
L 198.42094 232.452394 
L 200.73751 234.28272 
L 203.054079 236.292159 
L 205.370649 238.383156 
L 207.687218 240.453943 
L 210.003788 242.402937 
L 212.320357 244.133243 
L 214.636927 245.557111 
L 216.953496 246.600164 
L 219.270066 247.205252 
L 221.586635 247.335746 
L 223.903205 246.978119 
L 226.219775 246.143664 
L 228.536344 244.869203 
L 230.852914 243.216677 
L 233.169483 241.271533 
L 235.486053 239.139833 
L 237.802622 236.944084 
L 240.119192 234.817802 
L 242.435761 232.898906 
L 244.752331 231.32206 
L 247.0689 230.210193 
L 249.38547 229.665475 
L 251.702039 229.760113 
L 254.018609 230.527443 
L 256.335178 231.953885 
L 258.651748 233.972436 
L 260.968317 236.458526 
L 263.284887 239.22915 
L 265.601456 242.046392 
L 267.918026 244.626559 
L 270.234595 246.65635 
L 272.551165 247.81764 
L 274.867735 247.822658 
L 277.184304 246.461563 
L 279.500874 243.664585 
L 281.817443 239.581209 
L 284.134013 234.679034 
L 286.450582 229.865282 
L 288.767152 226.634136 
L 291.083721 227.243425 
L 293.400291 234.924443 
L 295.71686 254.129016 
" clip-path="url(#p1266c48254)" style="fill: none; stroke: #d62728; stroke-width: 1.5; stroke-linecap: square"/>
   </g>
   <g id="line2d_17">
    <path d="M 66.376477 261.167091 
L 67.129959 243.54263 
L 67.883441 221.278233 
L 68.636922 198.18917 
L 69.390404 176.895439 
L 70.143886 159.06443 
L 70.897368 145.618441 
L 71.650849 136.910727 
L 72.404331 132.873483 
L 73.157813 133.140919 
L 73.911295 137.150326 
L 74.664776 144.22382 
L 75.418258 153.633216 
L 76.17174 164.650281 
L 76.925222 176.584413 
L 77.678703 188.809617 
L 78.432185 200.782454 
L 79.185667 212.052486 
L 79.939148 222.266581 
L 80.69263 231.168291 
L 81.446112 238.593379 
L 82.199594 244.462443 
L 82.953075 248.771467 
L 83.706557 251.58101 
L 84.460039 253.00465 
L 85.213521 253.1972 
L 85.967002 252.343117 
L 86.720484 250.645465 
L 87.473966 248.315702 
L 88.227448 245.564495 
L 88.980929 242.593718 
L 89.734411 239.589735 
L 90.487893 236.718004 
L 91.241374 234.119016 
L 91.994856 231.905548 
L 92.748338 230.161153 
L 93.50182 228.939819 
L 94.255301 228.266688 
L 95.008783 228.139703 
L 95.762265 228.532058 
L 96.515747 229.39531 
L 97.269228 230.662996 
L 98.02271 232.254615 
L 98.776192 234.079821 
L 99.529674 236.042696 
L 100.283155 238.045947 
L 101.036637 239.99493 
L 101.790119 241.801358 
L 102.543601 243.386612 
L 103.297082 238.425816 
L 104.050564 238.426371 
L 104.804046 244.263545 
L 105.557527 244.499065 
L 106.311009 244.442749 
L 107.064491 244.104376 
L 107.817973 243.505702 
L 108.571454 242.679411 
L 109.324936 241.667669 
L 110.078418 240.520335 
L 110.8319 239.292891 
L 111.585381 238.044145 
L 112.338863 236.833779 
L 113.092345 235.719834 
L 113.845827 234.756196 
L 114.599308 233.990183 
L 115.35279 233.460315 
L 116.106272 233.194361 
L 116.859753 233.207736 
L 117.613235 233.502339 
L 118.366717 234.065903 
L 119.120199 234.871921 
L 119.87368 235.880194 
L 120.627162 237.038044 
L 121.380644 238.282208 
L 122.134126 239.541407 
L 122.887607 240.739563 
L 123.641089 241.79961 
L 124.394571 242.6478 
L 125.148053 243.218397 
L 125.901534 243.458572 
L 126.655016 243.333312 
L 127.408498 242.830063 
L 128.161979 241.96282 
L 128.915461 240.775276 
L 129.668943 239.342612 
L 130.422425 237.77142 
L 131.175906 236.197201 
L 131.929388 234.778776 
L 132.68287 233.688889 
L 133.436352 233.100168 
L 134.189833 233.165548 
L 134.943315 233.992116 
L 135.696797 235.607274 
L 136.450279 237.915969 
L 137.20376 240.647645 
L 137.957242 243.291426 
L 138.710724 245.017915 
L 139.464205 244.585864 
L 140.217687 240.231794 
L 140.971169 229.540525 
" clip-path="url(#p1266c48254)" style="fill: none; stroke: #9467bd; stroke-width: 1.5; stroke-linecap: square"/>
   </g>
   <g id="line2d_18">
    <path d="M 66.376477 240.532582 
L 66.638665 237.939087 
L 66.900853 236.955319 
L 67.16304 236.983117 
L 67.425228 237.539025 
L 67.687415 238.242346 
L 67.949603 238.803558 
L 68.211791 239.013179 
L 68.473978 238.731124 
L 68.736166 237.876648 
L 68.998354 236.418883 
L 69.260541 234.368034 
L 69.522729 231.767239 
L 69.784916 228.685115 
L 70.047104 225.209002 
L 70.309292 221.438898 
L 70.571479 217.482077 
L 70.833667 213.448387 
L 71.095855 209.446192 
L 71.358042 205.578958 
L 71.62023 201.942426 
L 71.882417 198.622369 
L 72.144605 195.692878 
L 72.406793 193.215145 
L 72.66898 191.236717 
L 72.931168 189.791151 
L 73.193356 188.898066 
L 73.455543 188.563512 
L 73.717731 188.780642 
L 73.979918 189.530631 
L 74.242106 190.783796 
L 74.504294 192.500893 
L 74.766481 194.634531 
L 75.028669 197.130681 
L 75.290856 199.930232 
L 75.553044 202.970568 
L 75.815232 206.18713 
L 76.077419 209.514928 
L 76.339607 212.88999 
L 76.601795 216.25071 
L 76.863982 219.539079 
L 77.12617 222.701784 
L 77.388357 225.691153 
L 77.650545 228.465939 
L 77.912733 230.991929 
L 78.17492 233.242387 
L 78.437108 235.1983 
L 78.699296 236.848461 
L 78.961483 238.189365 
L 79.223671 238.425226 
L 79.485858 238.42567 
L 79.748046 240.209742 
L 80.010234 240.446628 
L 80.272421 240.46807 
L 80.534609 240.304194 
L 80.796797 239.98765 
L 81.058984 239.55265 
L 81.321172 239.034002 
L 81.583359 238.466151 
L 81.845547 237.882246 
L 82.107735 237.313255 
L 82.369922 236.787155 
L 82.63211 236.328208 
L 82.894298 235.956338 
L 83.156485 235.686646 
L 83.418673 235.529044 
L 83.68086 235.488057 
L 83.943048 235.562781 
L 84.205236 235.747 
L 84.467423 236.029496 
L 84.729611 236.394511 
L 84.991799 236.822397 
L 85.253986 237.290415 
L 85.516174 237.773692 
L 85.778361 238.246305 
L 86.040549 238.682475 
L 86.302737 239.057842 
L 86.564924 239.35077 
L 86.827112 239.543669 
L 87.0893 239.624244 
L 87.351487 239.58665 
L 87.613675 239.432453 
L 87.875862 239.171345 
L 88.13805 238.82151 
L 88.400238 238.409555 
L 88.662425 237.969892 
L 88.924613 237.543457 
L 89.186801 237.175637 
L 89.448988 236.913256 
L 89.711176 236.800468 
L 89.973363 236.873397 
L 90.235551 237.153324 
L 90.497739 237.638238 
L 90.759926 238.292526 
L 91.022114 239.034585 
L 91.284302 239.722101 
L 91.546489 240.134735 
L 91.808677 239.95393 
L 92.070864 238.739557 
L 92.333052 235.903046 
" clip-path="url(#p1266c48254)" style="fill: none; stroke: #8c564b; stroke-width: 1.5; stroke-linecap: square"/>
   </g>
   <g id="patch_3">
    <path d="M 50.14375 288.430125 
L 50.14375 22.318125 
" style="fill: none; stroke: #000000; stroke-width: 0.8; stroke-linejoin: miter; stroke-linecap: square"/>
   </g>
   <g id="patch_4">
    <path d="M 407.26375 288.430125 
L 407.26375 22.318125 
" style="fill: none; stroke: #000000; stroke-width: 0.8; stroke-linejoin: miter; stroke-linecap: square"/>
   </g>
   <g id="patch_5">
    <path d="M 50.14375 288.430125 
L 407.26375 288.430125 
" style="fill: none; stroke: #000000; stroke-width: 0.8; stroke-linejoin: miter; stroke-linecap: square"/>
   </g>
   <g id="patch_6">
    <path d="M 50.14375 22.318125 
L 407.26375 22.318125 
" style="fill: none; stroke: #000000; stroke-width: 0.8; stroke-linejoin: miter; stroke-linecap: square"/>
   </g>
   <g id="text_15">
    <!-- AD - xtract_prob_Superior_Thalamic_Radiation_L -->
    <g transform="translate(83.300313 16.318125) scale(0.12 -0.12)">
     <defs>
      <path id="DejaVuSans-41" d="M 2188 4044 
L 1331 1722 
L 3047 1722 
L 2188 4044 
z
M 1831 4666 
L 2547 4666 
L 4325 0 
L 3669 0 
L 3244 1197 
L 1141 1197 
L 716 0 
L 50 0 
L 1831 4666 
z
" transform="scale(0.015625)"/>
      <path id="DejaVuSans-44" d="M 1259 4147 
L 1259 519 
L 2022 519 
Q 2988 519 3436 956 
Q 3884 1394 3884 2338 
Q 3884 3275 3436 3711 
Q 2988 4147 2022 4147 
L 1259 4147 
z
M 628 4666 
L 1925 4666 
Q 3281 4666 3915 4102 
Q 4550 3538 4550 2338 
Q 4550 1131 3912 565 
Q 3275 0 1925 0 
L 628 0 
L 628 4666 
z
" transform="scale(0.015625)"/>
      <path id="DejaVuSans-2d" d="M 313 2009 
L 1997 2009 
L 1997 1497 
L 313 1497 
L 313 2009 
z
" transform="scale(0.015625)"/>
      <path id="DejaVuSans-74" d="M 1172 4494 
L 1172 3500 
L 2356 3500 
L 2356 3053 
L 1172 3053 
L 1172 1153 
Q 1172 725 1289 603 
Q 1406 481 1766 481 
L 2356 481 
L 2356 0 
L 1766 0 
Q 1100 0 847 248 
Q 594 497 594 1153 
L 594 3053 
L 172 3053 
L 172 3500 
L 594 3500 
L 594 4494 
L 1172 4494 
z
" transform="scale(0.015625)"/>
      <path id="DejaVuSans-5f" d="M 3263 -1063 
L 3263 -1509 
L -63 -1509 
L -63 -1063 
L 3263 -1063 
z
" transform="scale(0.015625)"/>
      <path id="DejaVuSans-70" d="M 1159 525 
L 1159 -1331 
L 581 -1331 
L 581 3500 
L 1159 3500 
L 1159 2969 
Q 1341 3281 1617 3432 
Q 1894 3584 2278 3584 
Q 2916 3584 3314 3078 
Q 3713 2572 3713 1747 
Q 3713 922 3314 415 
Q 2916 -91 2278 -91 
Q 1894 -91 1617 61 
Q 1341 213 1159 525 
z
M 3116 1747 
Q 3116 2381 2855 2742 
Q 2594 3103 2138 3103 
Q 1681 3103 1420 2742 
Q 1159 2381 1159 1747 
Q 1159 1113 1420 752 
Q 1681 391 2138 391 
Q 2594 391 2855 752 
Q 3116 1113 3116 1747 
z
" transform="scale(0.015625)"/>
      <path id="DejaVuSans-6f" d="M 1959 3097 
Q 1497 3097 1228 2736 
Q 959 2375 959 1747 
Q 959 1119 1226 758 
Q 1494 397 1959 397 
Q 2419 397 2687 759 
Q 2956 1122 2956 1747 
Q 2956 2369 2687 2733 
Q 2419 3097 1959 3097 
z
M 1959 3584 
Q 2709 3584 3137 3096 
Q 3566 2609 3566 1747 
Q 3566 888 3137 398 
Q 2709 -91 1959 -91 
Q 1206 -91 779 398 
Q 353 888 353 1747 
Q 353 2609 779 3096 
Q 1206 3584 1959 3584 
z
" transform="scale(0.015625)"/>
      <path id="DejaVuSans-62" d="M 3116 1747 
Q 3116 2381 2855 2742 
Q 2594 3103 2138 3103 
Q 1681 3103 1420 2742 
Q 1159 2381 1159 1747 
Q 1159 1113 1420 752 
Q 1681 391 2138 391 
Q 2594 391 2855 752 
Q 3116 1113 3116 1747 
z
M 1159 2969 
Q 1341 3281 1617 3432 
Q 1894 3584 2278 3584 
Q 2916 3584 3314 3078 
Q 3713 2572 3713 1747 
Q 3713 922 3314 415 
Q 2916 -91 2278 -91 
Q 1894 -91 1617 61 
Q 1341 213 1159 525 
L 1159 0 
L 581 0 
L 581 4863 
L 1159 4863 
L 1159 2969 
z
" transform="scale(0.015625)"/>
      <path id="DejaVuSans-53" d="M 3425 4513 
L 3425 3897 
Q 3066 4069 2747 4153 
Q 2428 4238 2131 4238 
Q 1616 4238 1336 4038 
Q 1056 3838 1056 3469 
Q 1056 3159 1242 3001 
Q 1428 2844 1947 2747 
L 2328 2669 
Q 3034 2534 3370 2195 
Q 3706 1856 3706 1288 
Q 3706 609 3251 259 
Q 2797 -91 1919 -91 
Q 1588 -91 1214 -16 
Q 841 59 441 206 
L 441 856 
Q 825 641 1194 531 
Q 1563 422 1919 422 
Q 2459 422 2753 634 
Q 3047 847 3047 1241 
Q 3047 1584 2836 1778 
Q 2625 1972 2144 2069 
L 1759 2144 
Q 1053 2284 737 2584 
Q 422 2884 422 3419 
Q 422 4038 858 4394 
Q 1294 4750 2059 4750 
Q 2388 4750 2728 4690 
Q 3069 4631 3425 4513 
z
" transform="scale(0.015625)"/>
      <path id="DejaVuSans-54" d="M -19 4666 
L 3928 4666 
L 3928 4134 
L 2272 4134 
L 2272 0 
L 1638 0 
L 1638 4134 
L -19 4134 
L -19 4666 
z
" transform="scale(0.015625)"/>
      <path id="DejaVuSans-68" d="M 3513 2113 
L 3513 0 
L 2938 0 
L 2938 2094 
Q 2938 2591 2744 2837 
Q 2550 3084 2163 3084 
Q 1697 3084 1428 2787 
Q 1159 2491 1159 1978 
L 1159 0 
L 581 0 
L 581 4863 
L 1159 4863 
L 1159 2956 
Q 1366 3272 1645 3428 
Q 1925 3584 2291 3584 
Q 2894 3584 3203 3211 
Q 3513 2838 3513 2113 
z
" transform="scale(0.015625)"/>
      <path id="DejaVuSans-6d" d="M 3328 2828 
Q 3544 3216 3844 3400 
Q 4144 3584 4550 3584 
Q 5097 3584 5394 3201 
Q 5691 2819 5691 2113 
L 5691 0 
L 5113 0 
L 5113 2094 
Q 5113 2597 4934 2840 
Q 4756 3084 4391 3084 
Q 3944 3084 3684 2787 
Q 3425 2491 3425 1978 
L 3425 0 
L 2847 0 
L 2847 2094 
Q 2847 2600 2669 2842 
Q 2491 3084 2119 3084 
Q 1678 3084 1418 2786 
Q 1159 2488 1159 1978 
L 1159 0 
L 581 0 
L 581 3500 
L 1159 3500 
L 1159 2956 
Q 1356 3278 1631 3431 
Q 1906 3584 2284 3584 
Q 2666 3584 2933 3390 
Q 3200 3197 3328 2828 
z
" transform="scale(0.015625)"/>
      <path id="DejaVuSans-52" d="M 2841 2188 
Q 3044 2119 3236 1894 
Q 3428 1669 3622 1275 
L 4263 0 
L 3584 0 
L 2988 1197 
Q 2756 1666 2539 1819 
Q 2322 1972 1947 1972 
L 1259 1972 
L 1259 0 
L 628 0 
L 628 4666 
L 2053 4666 
Q 2853 4666 3247 4331 
Q 3641 3997 3641 3322 
Q 3641 2881 3436 2590 
Q 3231 2300 2841 2188 
z
M 1259 4147 
L 1259 2491 
L 2053 2491 
Q 2509 2491 2742 2702 
Q 2975 2913 2975 3322 
Q 2975 3731 2742 3939 
Q 2509 4147 2053 4147 
L 1259 4147 
z
" transform="scale(0.015625)"/>
      <path id="DejaVuSans-64" d="M 2906 2969 
L 2906 4863 
L 3481 4863 
L 3481 0 
L 2906 0 
L 2906 525 
Q 2725 213 2448 61 
Q 2172 -91 1784 -91 
Q 1150 -91 751 415 
Q 353 922 353 1747 
Q 353 2572 751 3078 
Q 1150 3584 1784 3584 
Q 2172 3584 2448 3432 
Q 2725 3281 2906 2969 
z
M 947 1747 
Q 947 1113 1208 752 
Q 1469 391 1925 391 
Q 2381 391 2643 752 
Q 2906 1113 2906 1747 
Q 2906 2381 2643 2742 
Q 2381 3103 1925 3103 
Q 1469 3103 1208 2742 
Q 947 2381 947 1747 
z
" transform="scale(0.015625)"/>
      <path id="DejaVuSans-4c" d="M 628 4666 
L 1259 4666 
L 1259 531 
L 3531 531 
L 3531 0 
L 628 0 
L 628 4666 
z
" transform="scale(0.015625)"/>
     </defs>
     <use xlink:href="#DejaVuSans-41"/>
     <use xlink:href="#DejaVuSans-44" x="68.408203"/>
     <use xlink:href="#DejaVuSans-20" x="145.410156"/>
     <use xlink:href="#DejaVuSans-2d" x="177.197266"/>
     <use xlink:href="#DejaVuSans-20" x="213.28125"/>
     <use xlink:href="#DejaVuSans-78" x="245.068359"/>
     <use xlink:href="#DejaVuSans-74" x="304.248047"/>
     <use xlink:href="#DejaVuSans-72" x="343.457031"/>
     <use xlink:href="#DejaVuSans-61" x="384.570312"/>
     <use xlink:href="#DejaVuSans-63" x="445.849609"/>
     <use xlink:href="#DejaVuSans-74" x="500.830078"/>
     <use xlink:href="#DejaVuSans-5f" x="540.039062"/>
     <use xlink:href="#DejaVuSans-70" x="590.039062"/>
     <use xlink:href="#DejaVuSans-72" x="653.515625"/>
     <use xlink:href="#DejaVuSans-6f" x="692.378906"/>
     <use xlink:href="#DejaVuSans-62" x="753.560547"/>
     <use xlink:href="#DejaVuSans-5f" x="817.037109"/>
     <use xlink:href="#DejaVuSans-53" x="867.037109"/>
     <use xlink:href="#DejaVuSans-75" x="930.513672"/>
     <use xlink:href="#DejaVuSans-70" x="993.892578"/>
     <use xlink:href="#DejaVuSans-65" x="1057.369141"/>
     <use xlink:href="#DejaVuSans-72" x="1118.892578"/>
     <use xlink:href="#DejaVuSans-69" x="1160.005859"/>
     <use xlink:href="#DejaVuSans-6f" x="1187.789062"/>
     <use xlink:href="#DejaVuSans-72" x="1248.970703"/>
     <use xlink:href="#DejaVuSans-5f" x="1290.083984"/>
     <use xlink:href="#DejaVuSans-54" x="1340.083984"/>
     <use xlink:href="#DejaVuSans-68" x="1401.167969"/>
     <use xlink:href="#DejaVuSans-61" x="1464.546875"/>
     <use xlink:href="#DejaVuSans-6c" x="1525.826172"/>
     <use xlink:href="#DejaVuSans-61" x="1553.609375"/>
     <use xlink:href="#DejaVuSans-6d" x="1614.888672"/>
     <use xlink:href="#DejaVuSans-69" x="1712.300781"/>
     <use xlink:href="#DejaVuSans-63" x="1740.083984"/>
     <use xlink:href="#DejaVuSans-5f" x="1795.064453"/>
     <use xlink:href="#DejaVuSans-52" x="1845.064453"/>
     <use xlink:href="#DejaVuSans-61" x="1912.296875"/>
     <use xlink:href="#DejaVuSans-64" x="1973.576172"/>
     <use xlink:href="#DejaVuSans-69" x="2037.052734"/>
     <use xlink:href="#DejaVuSans-61" x="2064.835938"/>
     <use xlink:href="#DejaVuSans-74" x="2126.115234"/>
     <use xlink:href="#DejaVuSans-69" x="2165.324219"/>
     <use xlink:href="#DejaVuSans-6f" x="2193.107422"/>
     <use xlink:href="#DejaVuSans-6e" x="2254.289062"/>
     <use xlink:href="#DejaVuSans-5f" x="2317.667969"/>
     <use xlink:href="#DejaVuSans-4c" x="2367.667969"/>
    </g>
   </g>
   <g id="legend_1">
    <g id="patch_7">
     <path d="M 449.97575 146.666825 
L 547.832 146.666825 
Q 549.832 146.666825 549.832 144.666825 
L 549.832 55.929325 
Q 549.832 53.929325 547.832 53.929325 
L 449.97575 53.929325 
Q 447.97575 53.929325 447.97575 55.929325 
L 447.97575 144.666825 
Q 447.97575 146.666825 449.97575 146.666825 
z
" style="fill: #ffffff; opacity: 0.8; stroke: #cccccc; stroke-linejoin: miter"/>
    </g>
    <g id="line2d_19">
     <path d="M 451.97575 62.027762 
L 461.97575 62.027762 
L 471.97575 62.027762 
" style="fill: none; stroke: #1f77b4; stroke-width: 1.5; stroke-linecap: square"/>
    </g>
    <g id="text_16">
     <!-- 20_06_02_E3 -->
     <g transform="translate(479.97575 65.527762) scale(0.1 -0.1)">
      <defs>
       <path id="DejaVuSans-36" d="M 2113 2584 
Q 1688 2584 1439 2293 
Q 1191 2003 1191 1497 
Q 1191 994 1439 701 
Q 1688 409 2113 409 
Q 2538 409 2786 701 
Q 3034 994 3034 1497 
Q 3034 2003 2786 2293 
Q 2538 2584 2113 2584 
z
M 3366 4563 
L 3366 3988 
Q 3128 4100 2886 4159 
Q 2644 4219 2406 4219 
Q 1781 4219 1451 3797 
Q 1122 3375 1075 2522 
Q 1259 2794 1537 2939 
Q 1816 3084 2150 3084 
Q 2853 3084 3261 2657 
Q 3669 2231 3669 1497 
Q 3669 778 3244 343 
Q 2819 -91 2113 -91 
Q 1303 -91 875 529 
Q 447 1150 447 2328 
Q 447 3434 972 4092 
Q 1497 4750 2381 4750 
Q 2619 4750 2861 4703 
Q 3103 4656 3366 4563 
z
" transform="scale(0.015625)"/>
       <path id="DejaVuSans-45" d="M 628 4666 
L 3578 4666 
L 3578 4134 
L 1259 4134 
L 1259 2753 
L 3481 2753 
L 3481 2222 
L 1259 2222 
L 1259 531 
L 3634 531 
L 3634 0 
L 628 0 
L 628 4666 
z
" transform="scale(0.015625)"/>
      </defs>
      <use xlink:href="#DejaVuSans-32"/>
      <use xlink:href="#DejaVuSans-30" x="63.623047"/>
      <use xlink:href="#DejaVuSans-5f" x="127.246094"/>
      <use xlink:href="#DejaVuSans-30" x="177.246094"/>
      <use xlink:href="#DejaVuSans-36" x="240.869141"/>
      <use xlink:href="#DejaVuSans-5f" x="304.492188"/>
      <use xlink:href="#DejaVuSans-30" x="354.492188"/>
      <use xlink:href="#DejaVuSans-32" x="418.115234"/>
      <use xlink:href="#DejaVuSans-5f" x="481.738281"/>
      <use xlink:href="#DejaVuSans-45" x="531.738281"/>
      <use xlink:href="#DejaVuSans-33" x="594.921875"/>
     </g>
    </g>
    <g id="line2d_20">
     <path d="M 451.97575 76.984013 
L 461.97575 76.984013 
L 471.97575 76.984013 
" style="fill: none; stroke: #ff7f0e; stroke-width: 1.5; stroke-linecap: square"/>
    </g>
    <g id="text_17">
     <!-- 20_05_01_E3 -->
     <g transform="translate(479.97575 80.484013) scale(0.1 -0.1)">
      <use xlink:href="#DejaVuSans-32"/>
      <use xlink:href="#DejaVuSans-30" x="63.623047"/>
      <use xlink:href="#DejaVuSans-5f" x="127.246094"/>
      <use xlink:href="#DejaVuSans-30" x="177.246094"/>
      <use xlink:href="#DejaVuSans-35" x="240.869141"/>
      <use xlink:href="#DejaVuSans-5f" x="304.492188"/>
      <use xlink:href="#DejaVuSans-30" x="354.492188"/>
      <use xlink:href="#DejaVuSans-31" x="418.115234"/>
      <use xlink:href="#DejaVuSans-5f" x="481.738281"/>
      <use xlink:href="#DejaVuSans-45" x="531.738281"/>
      <use xlink:href="#DejaVuSans-33" x="594.921875"/>
     </g>
    </g>
    <g id="line2d_21">
     <path d="M 451.97575 91.940262 
L 461.97575 91.940262 
L 471.97575 91.940262 
" style="fill: none; stroke: #2ca02c; stroke-width: 1.5; stroke-linecap: square"/>
    </g>
    <g id="text_18">
     <!-- 20_02_02_E3 -->
     <g transform="translate(479.97575 95.440262) scale(0.1 -0.1)">
      <use xlink:href="#DejaVuSans-32"/>
      <use xlink:href="#DejaVuSans-30" x="63.623047"/>
      <use xlink:href="#DejaVuSans-5f" x="127.246094"/>
      <use xlink:href="#DejaVuSans-30" x="177.246094"/>
      <use xlink:href="#DejaVuSans-32" x="240.869141"/>
      <use xlink:href="#DejaVuSans-5f" x="304.492188"/>
      <use xlink:href="#DejaVuSans-30" x="354.492188"/>
      <use xlink:href="#DejaVuSans-32" x="418.115234"/>
      <use xlink:href="#DejaVuSans-5f" x="481.738281"/>
      <use xlink:href="#DejaVuSans-45" x="531.738281"/>
      <use xlink:href="#DejaVuSans-33" x="594.921875"/>
     </g>
    </g>
    <g id="line2d_22">
     <path d="M 451.97575 106.896513 
L 461.97575 106.896513 
L 471.97575 106.896513 
" style="fill: none; stroke: #d62728; stroke-width: 1.5; stroke-linecap: square"/>
    </g>
    <g id="text_19">
     <!-- 20_10_02_E3 -->
     <g transform="translate(479.97575 110.396513) scale(0.1 -0.1)">
      <use xlink:href="#DejaVuSans-32"/>
      <use xlink:href="#DejaVuSans-30" x="63.623047"/>
      <use xlink:href="#DejaVuSans-5f" x="127.246094"/>
      <use xlink:href="#DejaVuSans-31" x="177.246094"/>
      <use xlink:href="#DejaVuSans-30" x="240.869141"/>
      <use xlink:href="#DejaVuSans-5f" x="304.492188"/>
      <use xlink:href="#DejaVuSans-30" x="354.492188"/>
      <use xlink:href="#DejaVuSans-32" x="418.115234"/>
      <use xlink:href="#DejaVuSans-5f" x="481.738281"/>
      <use xlink:href="#DejaVuSans-45" x="531.738281"/>
      <use xlink:href="#DejaVuSans-33" x="594.921875"/>
     </g>
    </g>
    <g id="line2d_23">
     <path d="M 451.97575 121.852762 
L 461.97575 121.852762 
L 471.97575 121.852762 
" style="fill: none; stroke: #9467bd; stroke-width: 1.5; stroke-linecap: square"/>
    </g>
    <g id="text_20">
     <!-- 20_08_02_E3 -->
     <g transform="translate(479.97575 125.352762) scale(0.1 -0.1)">
      <defs>
       <path id="DejaVuSans-38" d="M 2034 2216 
Q 1584 2216 1326 1975 
Q 1069 1734 1069 1313 
Q 1069 891 1326 650 
Q 1584 409 2034 409 
Q 2484 409 2743 651 
Q 3003 894 3003 1313 
Q 3003 1734 2745 1975 
Q 2488 2216 2034 2216 
z
M 1403 2484 
Q 997 2584 770 2862 
Q 544 3141 544 3541 
Q 544 4100 942 4425 
Q 1341 4750 2034 4750 
Q 2731 4750 3128 4425 
Q 3525 4100 3525 3541 
Q 3525 3141 3298 2862 
Q 3072 2584 2669 2484 
Q 3125 2378 3379 2068 
Q 3634 1759 3634 1313 
Q 3634 634 3220 271 
Q 2806 -91 2034 -91 
Q 1263 -91 848 271 
Q 434 634 434 1313 
Q 434 1759 690 2068 
Q 947 2378 1403 2484 
z
M 1172 3481 
Q 1172 3119 1398 2916 
Q 1625 2713 2034 2713 
Q 2441 2713 2670 2916 
Q 2900 3119 2900 3481 
Q 2900 3844 2670 4047 
Q 2441 4250 2034 4250 
Q 1625 4250 1398 4047 
Q 1172 3844 1172 3481 
z
" transform="scale(0.015625)"/>
      </defs>
      <use xlink:href="#DejaVuSans-32"/>
      <use xlink:href="#DejaVuSans-30" x="63.623047"/>
      <use xlink:href="#DejaVuSans-5f" x="127.246094"/>
      <use xlink:href="#DejaVuSans-30" x="177.246094"/>
      <use xlink:href="#DejaVuSans-38" x="240.869141"/>
      <use xlink:href="#DejaVuSans-5f" x="304.492188"/>
      <use xlink:href="#DejaVuSans-30" x="354.492188"/>
      <use xlink:href="#DejaVuSans-32" x="418.115234"/>
      <use xlink:href="#DejaVuSans-5f" x="481.738281"/>
      <use xlink:href="#DejaVuSans-45" x="531.738281"/>
      <use xlink:href="#DejaVuSans-33" x="594.921875"/>
     </g>
    </g>
    <g id="line2d_24">
     <path d="M 451.97575 136.809012 
L 461.97575 136.809012 
L 471.97575 136.809012 
" style="fill: none; stroke: #8c564b; stroke-width: 1.5; stroke-linecap: square"/>
    </g>
    <g id="text_21">
     <!-- 20_11_02_E3 -->
     <g transform="translate(479.97575 140.309012) scale(0.1 -0.1)">
      <use xlink:href="#DejaVuSans-32"/>
      <use xlink:href="#DejaVuSans-30" x="63.623047"/>
      <use xlink:href="#DejaVuSans-5f" x="127.246094"/>
      <use xlink:href="#DejaVuSans-31" x="177.246094"/>
      <use xlink:href="#DejaVuSans-31" x="240.869141"/>
      <use xlink:href="#DejaVuSans-5f" x="304.492188"/>
      <use xlink:href="#DejaVuSans-30" x="354.492188"/>
      <use xlink:href="#DejaVuSans-32" x="418.115234"/>
      <use xlink:href="#DejaVuSans-5f" x="481.738281"/>
      <use xlink:href="#DejaVuSans-45" x="531.738281"/>
      <use xlink:href="#DejaVuSans-33" x="594.921875"/>
     </g>
    </g>
   </g>
  </g>
 </g>
 <defs>
  <clipPath id="p1266c48254">
   <rect x="50.14375" y="22.318125" width="357.12" height="266.112"/>
  </clipPath>
 </defs>
</svg>
