<?xml version="1.0" encoding="utf-8" standalone="no"?>
<!DOCTYPE svg PUBLIC "-//W3C//DTD SVG 1.1//EN"
  "http://www.w3.org/Graphics/SVG/1.1/DTD/svg11.dtd">
<svg xmlns:xlink="http://www.w3.org/1999/xlink" width="565.411687pt" height="325.986375pt" viewBox="0 0 565.411687 325.986375" xmlns="http://www.w3.org/2000/svg" version="1.1">
 <metadata>
  <rdf:RDF xmlns:dc="http://purl.org/dc/elements/1.1/" xmlns:cc="http://creativecommons.org/ns#" xmlns:rdf="http://www.w3.org/1999/02/22-rdf-syntax-ns#">
   <cc:Work>
    <dc:type rdf:resource="http://purl.org/dc/dcmitype/StillImage"/>
    <dc:date>2023-02-07T23:00:10.457821</dc:date>
    <dc:format>image/svg+xml</dc:format>
    <dc:creator>
     <cc:Agent>
      <dc:title>Matplotlib v3.6.2, https://matplotlib.org/</dc:title>
     </cc:Agent>
    </dc:creator>
   </cc:Work>
  </rdf:RDF>
 </metadata>
 <defs>
  <style type="text/css">*{stroke-linejoin: round; stroke-linecap: butt}</style>
 </defs>
 <g id="figure_1">
  <g id="patch_1">
   <path d="M 0 325.986375 
L 565.411687 325.986375 
L 565.411687 0 
L 0 0 
z
" style="fill: #ffffff"/>
  </g>
  <g id="axes_1">
   <g id="patch_2">
    <path d="M 58.523438 288.430125 
L 415.643438 288.430125 
L 415.643438 22.318125 
L 58.523438 22.318125 
z
" style="fill: #ffffff"/>
   </g>
   <g id="PolyCollection_1">
    <path d="M 74.756165 179.623179 
L 74.756165 215.564662 
L 76.550665 215.564662 
L 78.345165 215.564662 
L 80.139664 215.564662 
L 81.934164 215.564662 
L 83.728664 215.564662 
L 85.523164 215.564662 
L 87.317664 215.564662 
L 89.112164 215.564662 
L 90.906664 215.564662 
L 92.701164 215.564662 
L 94.495663 215.564662 
L 96.290163 215.564662 
L 98.084663 215.564662 
L 99.879163 215.564662 
L 101.673663 215.564662 
L 103.468163 215.564662 
L 105.262663 215.564662 
L 107.057163 215.564662 
L 108.851663 215.564662 
L 110.646162 215.564662 
L 112.440662 215.564662 
L 114.235162 215.564662 
L 116.029662 215.564662 
L 117.824162 215.564662 
L 119.618662 215.564662 
L 121.413162 215.564662 
L 123.207662 215.564662 
L 125.002162 215.564662 
L 126.796661 215.564662 
L 128.591161 215.564662 
L 130.385661 215.564662 
L 132.180161 215.564662 
L 133.974661 215.564662 
L 135.769161 215.564662 
L 137.563661 215.564662 
L 139.358161 215.564662 
L 141.15266 215.564662 
L 142.94716 215.564662 
L 144.74166 215.564662 
L 146.53616 215.564662 
L 148.33066 215.564662 
L 150.12516 215.564662 
L 151.91966 215.564662 
L 153.71416 215.564662 
L 155.50866 215.564662 
L 157.303159 215.564662 
L 159.097659 215.564662 
L 160.892159 215.564662 
L 162.686659 215.564662 
L 164.481159 215.564662 
L 166.275659 215.564662 
L 168.070159 215.564662 
L 169.864659 215.564662 
L 171.659158 215.564662 
L 173.453658 215.564662 
L 175.248158 215.564662 
L 177.042658 215.564662 
L 178.837158 215.564662 
L 180.631658 215.564662 
L 182.426158 215.564662 
L 184.220658 215.564662 
L 186.015158 215.564662 
L 187.809657 215.564662 
L 189.604157 215.564662 
L 191.398657 215.564662 
L 193.193157 215.564662 
L 194.987657 215.564662 
L 196.782157 215.564662 
L 198.576657 215.564662 
L 200.371157 215.564662 
L 202.165656 215.564662 
L 203.960156 215.564662 
L 205.754656 215.564662 
L 207.549156 215.564662 
L 209.343656 215.564662 
L 211.138156 215.564662 
L 212.932656 215.564662 
L 214.727156 215.564662 
L 216.521656 215.564662 
L 218.316155 215.564662 
L 220.110655 215.564662 
L 221.905155 215.564662 
L 223.699655 215.564662 
L 225.494155 215.564662 
L 227.288655 215.564662 
L 229.083155 215.564662 
L 230.877655 215.564662 
L 232.672154 215.564662 
L 234.466654 215.564662 
L 236.261154 215.564662 
L 238.055654 215.564662 
L 239.850154 215.564662 
L 241.644654 215.564662 
L 243.439154 215.564662 
L 245.233654 215.564662 
L 247.028154 215.564662 
L 248.822653 215.564662 
L 250.617153 215.564662 
L 252.411653 215.564662 
L 252.411653 210.858111 
L 252.411653 210.858111 
L 250.617153 216.838679 
L 248.822653 218.885727 
L 247.028154 218.617762 
L 245.233654 217.175867 
L 243.439154 215.328126 
L 241.644654 213.557051 
L 239.850154 212.132027 
L 238.055654 211.168624 
L 236.261154 210.676487 
L 234.466654 210.597344 
L 232.672154 210.834529 
L 230.877655 211.275301 
L 229.083155 211.807107 
L 227.288655 212.328787 
L 225.494155 212.757679 
L 223.699655 213.033385 
L 221.905155 213.11895 
L 220.110655 213.000058 
L 218.316155 212.682782 
L 216.521656 212.190364 
L 214.727156 211.559393 
L 212.932656 210.835732 
L 211.138156 210.070434 
L 209.343656 209.315882 
L 207.549156 208.622291 
L 205.754656 208.034714 
L 203.960156 207.590613 
L 202.165656 207.318054 
L 200.371157 207.23453 
L 198.576657 207.346411 
L 196.782157 207.648985 
L 194.987657 208.127043 
L 193.193157 208.755933 
L 191.398657 209.503026 
L 189.604157 210.329498 
L 187.809657 211.192341 
L 186.015158 212.04652 
L 184.220658 212.847172 
L 182.426158 213.55178 
L 180.631658 214.122216 
L 178.837158 214.526599 
L 177.042658 214.740872 
L 175.248158 214.750073 
L 173.453658 214.549219 
L 171.659158 214.143783 
L 169.864659 213.549741 
L 168.070159 212.793163 
L 166.275659 211.90937 
L 164.481159 215.563334 
L 162.686659 215.564104 
L 160.892159 208.418054 
L 159.097659 207.852594 
L 157.303159 207.434848 
L 155.50866 207.199749 
L 153.71416 207.175343 
L 151.91966 207.380669 
L 150.12516 207.82378 
L 148.33066 208.499981 
L 146.53616 209.390364 
L 144.74166 210.46073 
L 142.94716 211.660965 
L 141.15266 212.924951 
L 139.358161 214.171084 
L 137.563661 215.303451 
L 135.769161 216.213711 
L 133.974661 216.783733 
L 132.180161 216.888981 
L 130.385661 216.402663 
L 128.591161 215.200616 
L 126.796661 213.166865 
L 125.002162 210.199788 
L 123.207662 206.218758 
L 121.413162 201.171128 
L 119.618662 195.039353 
L 117.824162 187.848011 
L 116.029662 179.670452 
L 114.235162 170.634715 
L 112.440662 160.928332 
L 110.646162 150.801545 
L 108.851663 140.56842 
L 107.057163 130.605244 
L 105.262663 121.345538 
L 103.468163 113.270919 
L 101.673663 106.896956 
L 99.879163 102.75309 
L 98.084663 101.355554 
L 96.290163 103.172159 
L 94.495663 108.577674 
L 92.701164 117.798426 
L 90.906664 130.844605 
L 89.112164 147.428655 
L 87.317664 166.867947 
L 85.523164 187.969854 
L 83.728664 208.897113 
L 81.934164 227.011282 
L 80.139664 238.691872 
L 78.345165 239.128587 
L 76.550665 222.083921 
L 74.756165 179.623179 
z
" clip-path="url(#p5dc1853395)" style="fill: #1f77b4; fill-opacity: 0.166667"/>
   </g>
   <g id="PolyCollection_2">
    <path d="M 74.756165 185.570604 
L 74.756165 215.564662 
L 76.310869 215.564662 
L 77.865572 215.564662 
L 79.420276 215.564662 
L 80.97498 215.564662 
L 82.529684 215.564662 
L 84.084388 215.564662 
L 85.639091 215.564662 
L 87.193795 215.564662 
L 88.748499 215.564662 
L 90.303203 215.564662 
L 91.857907 215.564662 
L 93.412611 215.564662 
L 94.967314 215.564662 
L 96.522018 215.564662 
L 98.076722 215.564662 
L 99.631426 215.564662 
L 101.18613 215.564662 
L 102.740833 215.564662 
L 104.295537 215.564662 
L 105.850241 215.564662 
L 107.404945 215.564662 
L 108.959649 215.564662 
L 110.514352 215.564662 
L 112.069056 215.564662 
L 113.62376 215.564662 
L 115.178464 215.564662 
L 116.733168 215.564662 
L 118.287872 215.564662 
L 119.842575 215.564662 
L 121.397279 215.564662 
L 122.951983 215.564662 
L 124.506687 215.564662 
L 126.061391 215.564662 
L 127.616094 215.564662 
L 129.170798 215.564662 
L 130.725502 215.564662 
L 132.280206 215.564662 
L 133.83491 215.564662 
L 135.389613 215.564662 
L 136.944317 215.564662 
L 138.499021 215.564662 
L 140.053725 215.564662 
L 141.608429 215.564662 
L 143.163133 215.564662 
L 144.717836 215.564662 
L 146.27254 215.564662 
L 147.827244 215.564662 
L 149.381948 215.564662 
L 150.936652 215.564662 
L 152.491355 215.564662 
L 154.046059 215.564662 
L 155.600763 215.564662 
L 157.155467 215.564662 
L 158.710171 215.564662 
L 160.264874 215.564662 
L 161.819578 215.564662 
L 163.374282 215.564662 
L 164.928986 215.564662 
L 166.48369 215.564662 
L 168.038394 215.564662 
L 169.593097 215.564662 
L 171.147801 215.564662 
L 172.702505 215.564662 
L 174.257209 215.564662 
L 175.811913 215.564662 
L 177.366616 215.564662 
L 178.92132 215.564662 
L 180.476024 215.564662 
L 182.030728 215.564662 
L 183.585432 215.564662 
L 185.140135 215.564662 
L 186.694839 215.564662 
L 188.249543 215.564662 
L 189.804247 215.564662 
L 191.358951 215.564662 
L 192.913655 215.564662 
L 194.468358 215.564662 
L 196.023062 215.564662 
L 197.577766 215.564662 
L 199.13247 215.564662 
L 200.687174 215.564662 
L 202.241877 215.564662 
L 203.796581 215.564662 
L 205.351285 215.564662 
L 206.905989 215.564662 
L 208.460693 215.564662 
L 210.015396 215.564662 
L 211.5701 215.564662 
L 213.124804 215.564662 
L 214.679508 215.564662 
L 216.234212 215.564662 
L 217.788916 215.564662 
L 219.343619 215.564662 
L 220.898323 215.564662 
L 222.453027 215.564662 
L 224.007731 215.564662 
L 225.562435 215.564662 
L 227.117138 215.564662 
L 228.671842 215.564662 
L 228.671842 219.290124 
L 228.671842 219.290124 
L 227.117138 215.014036 
L 225.562435 213.014757 
L 224.007731 212.489803 
L 222.453027 212.830899 
L 220.898323 213.590821 
L 219.343619 214.454193 
L 217.788916 215.211929 
L 216.234212 215.739025 
L 214.679508 215.975405 
L 213.124804 215.909572 
L 211.5701 215.564783 
L 210.015396 214.987517 
L 208.460693 214.238007 
L 206.905989 213.382604 
L 205.351285 212.487777 
L 203.796581 211.615561 
L 202.241877 210.820249 
L 200.687174 210.146183 
L 199.13247 209.626472 
L 197.577766 209.28249 
L 196.023062 209.124026 
L 194.468358 209.149952 
L 192.913655 209.349305 
L 191.358951 209.702664 
L 189.804247 210.183753 
L 188.249543 210.76115 
L 186.694839 211.400071 
L 185.140135 212.064118 
L 183.585432 212.716977 
L 182.030728 213.323981 
L 180.476024 213.853528 
L 178.92132 214.278299 
L 177.366616 214.576266 
L 175.811913 214.73146 
L 174.257209 214.734507 
L 172.702505 214.582898 
L 171.147801 214.281026 
L 169.593097 213.839968 
L 168.038394 213.277048 
L 166.48369 212.615175 
L 164.928986 211.881994 
L 163.374282 211.108867 
L 161.819578 210.329705 
L 160.264874 209.57969 
L 158.710171 208.893925 
L 157.155467 208.306025 
L 155.600763 207.846705 
L 154.046059 207.542398 
L 152.491355 215.565182 
L 150.936652 215.565689 
L 149.381948 206.878761 
L 147.827244 207.556362 
L 146.27254 208.45189 
L 144.717836 209.530558 
L 143.163133 210.745849 
L 141.608429 212.040194 
L 140.053725 213.346018 
L 138.499021 214.587145 
L 136.944317 215.680561 
L 135.389613 216.538504 
L 133.83491 217.070855 
L 132.280206 217.187791 
L 130.725502 216.802672 
L 129.170798 215.83508 
L 127.616094 214.213984 
L 126.061391 211.880941 
L 124.506687 208.793271 
L 122.951983 204.927123 
L 121.397279 200.280343 
L 119.842575 194.875057 
L 118.287872 188.75987 
L 116.733168 182.011572 
L 115.178464 174.736252 
L 113.62376 167.069706 
L 112.069056 159.177025 
L 110.514352 151.251247 
L 108.959649 143.510959 
L 107.404945 136.196723 
L 105.850241 129.566224 
L 104.295537 123.888003 
L 102.740833 119.433678 
L 101.18613 116.468541 
L 99.631426 115.240417 
L 98.076722 115.966689 
L 96.522018 118.819405 
L 94.967314 123.908368 
L 93.412611 131.262148 
L 91.857907 140.806945 
L 90.303203 152.343254 
L 88.748499 165.520301 
L 87.193795 179.808222 
L 85.639091 194.467985 
L 84.084388 208.519077 
L 82.529684 220.704982 
L 80.97498 229.456521 
L 79.420276 232.853133 
L 77.865572 228.58221 
L 76.310869 213.896621 
L 74.756165 185.570604 
z
" clip-path="url(#p5dc1853395)" style="fill: #ff7f0e; fill-opacity: 0.166667"/>
   </g>
   <g id="PolyCollection_3">
    <path d="M 74.756165 192.951524 
L 74.756165 215.564662 
L 76.834884 215.564662 
L 78.913602 215.564662 
L 80.992321 215.564662 
L 83.07104 215.564662 
L 85.149759 215.564662 
L 87.228477 215.564662 
L 89.307196 215.564662 
L 91.385915 215.564662 
L 93.464634 215.564662 
L 95.543353 215.564662 
L 97.622071 215.564662 
L 99.70079 215.564662 
L 101.779509 215.564662 
L 103.858228 215.564662 
L 105.936947 215.564662 
L 108.015665 215.564662 
L 110.094384 215.564662 
L 112.173103 215.564662 
L 114.251822 215.564662 
L 116.33054 215.564662 
L 118.409259 215.564662 
L 120.487978 215.564662 
L 122.566697 215.564662 
L 124.645416 215.564662 
L 126.724134 215.564662 
L 128.802853 215.564662 
L 130.881572 215.564662 
L 132.960291 215.564662 
L 135.039009 215.564662 
L 137.117728 215.564662 
L 139.196447 215.564662 
L 141.275166 215.564662 
L 143.353885 215.564662 
L 145.432603 215.564662 
L 147.511322 215.564662 
L 149.590041 215.564662 
L 151.66876 215.564662 
L 153.747478 215.564662 
L 155.826197 215.564662 
L 157.904916 215.564662 
L 159.983635 215.564662 
L 162.062354 215.564662 
L 164.141072 215.564662 
L 166.219791 215.564662 
L 168.29851 215.564662 
L 170.377229 215.564662 
L 172.455948 215.564662 
L 174.534666 215.564662 
L 176.613385 215.564662 
L 178.692104 215.564662 
L 180.770823 215.564662 
L 182.849541 215.564662 
L 184.92826 215.564662 
L 187.006979 215.564662 
L 189.085698 215.564662 
L 191.164417 215.564662 
L 193.243135 215.564662 
L 195.321854 215.564662 
L 197.400573 215.564662 
L 199.479292 215.564662 
L 201.55801 215.564662 
L 203.636729 215.564662 
L 205.715448 215.564662 
L 207.794167 215.564662 
L 209.872886 215.564662 
L 211.951604 215.564662 
L 214.030323 215.564662 
L 216.109042 215.564662 
L 218.187761 215.564662 
L 220.26648 215.564662 
L 222.345198 215.564662 
L 224.423917 215.564662 
L 226.502636 215.564662 
L 228.581355 215.564662 
L 230.660073 215.564662 
L 232.738792 215.564662 
L 234.817511 215.564662 
L 236.89623 215.564662 
L 238.974949 215.564662 
L 241.053667 215.564662 
L 243.132386 215.564662 
L 245.211105 215.564662 
L 247.289824 215.564662 
L 249.368542 215.564662 
L 251.447261 215.564662 
L 253.52598 215.564662 
L 255.604699 215.564662 
L 257.683418 215.564662 
L 259.762136 215.564662 
L 261.840855 215.564662 
L 263.919574 215.564662 
L 265.998293 215.564662 
L 268.077011 215.564662 
L 270.15573 215.564662 
L 272.234449 215.564662 
L 274.313168 215.564662 
L 276.391887 215.564662 
L 278.470605 215.564662 
L 280.549324 215.564662 
L 280.549324 220.585758 
L 280.549324 220.585758 
L 278.470605 214.232418 
L 276.391887 211.732857 
L 274.313168 211.61076 
L 272.234449 212.782514 
L 270.15573 214.481452 
L 268.077011 216.192823 
L 265.998293 217.598372 
L 263.919574 218.529529 
L 261.840855 218.928241 
L 259.762136 218.814592 
L 257.683418 218.260392 
L 255.604699 217.367994 
L 253.52598 216.253668 
L 251.447261 215.034897 
L 249.368542 213.821033 
L 247.289824 212.706799 
L 245.211105 211.768171 
L 243.132386 211.060222 
L 241.053667 210.616546 
L 238.974949 210.449941 
L 236.89623 210.554041 
L 234.817511 210.905651 
L 232.738792 211.467554 
L 230.660073 212.191588 
L 228.581355 213.021851 
L 226.502636 213.897866 
L 224.423917 214.757616 
L 222.345198 215.540348 
L 220.26648 216.189082 
L 218.187761 216.652755 
L 216.109042 216.888001 
L 214.030323 216.860504 
L 211.951604 216.545955 
L 209.872886 215.930594 
L 207.794167 215.011365 
L 205.715448 213.795704 
L 203.636729 212.300988 
L 201.55801 210.553688 
L 199.479292 208.588269 
L 197.400573 206.445868 
L 195.321854 204.172816 
L 193.243135 201.819046 
L 191.164417 199.436421 
L 189.085698 197.077056 
L 187.006979 194.791661 
L 184.92826 192.627954 
L 182.849541 190.629189 
L 180.770823 188.83283 
L 178.692104 215.561861 
L 176.613385 215.561812 
L 174.534666 184.703341 
L 172.455948 183.876678 
L 170.377229 183.333918 
L 168.29851 183.064027 
L 166.219791 183.046624 
L 164.141072 183.252555 
L 162.062354 183.644745 
L 159.983635 184.179317 
L 157.904916 184.80694 
L 155.826197 185.474402 
L 153.747478 186.126346 
L 151.66876 186.707153 
L 149.590041 187.16291 
L 147.511322 187.443432 
L 145.432603 187.504259 
L 143.353885 187.308607 
L 141.275166 186.829185 
L 139.196447 186.049832 
L 137.117728 184.966916 
L 135.039009 183.590433 
L 132.960291 181.944746 
L 130.881572 180.068914 
L 128.802853 178.01656 
L 126.724134 175.855226 
L 124.645416 173.665194 
L 122.566697 171.537721 
L 120.487978 169.572685 
L 118.409259 167.875629 
L 116.33054 166.554204 
L 114.251822 165.714039 
L 112.173103 165.454065 
L 110.094384 165.861363 
L 108.015665 167.005598 
L 105.936947 168.93315 
L 103.858228 171.661061 
L 101.779509 175.170965 
L 99.70079 179.403156 
L 97.622071 184.251044 
L 95.543353 189.556224 
L 93.464634 195.104457 
L 91.385915 200.622887 
L 89.307196 205.778873 
L 87.228477 210.180844 
L 85.149759 213.381641 
L 83.07104 214.884879 
L 80.992321 214.15488 
L 78.913602 210.630824 
L 76.834884 203.745803 
L 74.756165 192.951524 
z
" clip-path="url(#p5dc1853395)" style="fill: #2ca02c; fill-opacity: 0.166667"/>
   </g>
   <g id="PolyCollection_4">
    <path d="M 74.756165 276.334125 
L 74.756165 215.564662 
L 78.035504 215.564662 
L 81.314842 215.564662 
L 84.594181 215.564662 
L 87.87352 215.564662 
L 91.152859 215.564662 
L 94.432198 215.564662 
L 97.711537 215.564662 
L 100.990876 215.564662 
L 104.270214 215.564662 
L 107.549553 215.564662 
L 110.828892 215.564662 
L 114.108231 215.564662 
L 117.38757 215.564662 
L 120.666909 215.564662 
L 123.946247 215.564662 
L 127.225586 215.564662 
L 130.504925 215.564662 
L 133.784264 215.564662 
L 137.063603 215.564662 
L 140.342942 215.564662 
L 143.62228 215.564662 
L 146.901619 215.564662 
L 150.180958 215.564662 
L 153.460297 215.564662 
L 156.739636 215.564662 
L 160.018975 215.564662 
L 163.298314 215.564662 
L 166.577652 215.564662 
L 169.856991 215.564662 
L 173.13633 215.564662 
L 176.415669 215.564662 
L 179.695008 215.564662 
L 182.974347 215.564662 
L 186.253685 215.564662 
L 189.533024 215.564662 
L 192.812363 215.564662 
L 196.091702 215.564662 
L 199.371041 215.564662 
L 202.65038 215.564662 
L 205.929718 215.564662 
L 209.209057 215.564662 
L 212.488396 215.564662 
L 215.767735 215.564662 
L 219.047074 215.564662 
L 222.326413 215.564662 
L 225.605752 215.564662 
L 228.88509 215.564662 
L 232.164429 215.564662 
L 235.443768 215.564662 
L 238.723107 215.564662 
L 242.002446 215.564662 
L 245.281785 215.564662 
L 248.561123 215.564662 
L 251.840462 215.564662 
L 255.119801 215.564662 
L 258.39914 215.564662 
L 261.678479 215.564662 
L 264.957818 215.564662 
L 268.237157 215.564662 
L 271.516495 215.564662 
L 274.795834 215.564662 
L 278.075173 215.564662 
L 281.354512 215.564662 
L 284.633851 215.564662 
L 287.91319 215.564662 
L 291.192528 215.564662 
L 294.471867 215.564662 
L 297.751206 215.564662 
L 301.030545 215.564662 
L 304.309884 215.564662 
L 307.589223 215.564662 
L 310.868561 215.564662 
L 314.1479 215.564662 
L 317.427239 215.564662 
L 320.706578 215.564662 
L 323.985917 215.564662 
L 327.265256 215.564662 
L 330.544595 215.564662 
L 333.823933 215.564662 
L 337.103272 215.564662 
L 340.382611 215.564662 
L 343.66195 215.564662 
L 346.941289 215.564662 
L 350.220628 215.564662 
L 353.499966 215.564662 
L 356.779305 215.564662 
L 360.058644 215.564662 
L 363.337983 215.564662 
L 366.617322 215.564662 
L 369.896661 215.564662 
L 373.175999 215.564662 
L 376.455338 215.564662 
L 379.734677 215.564662 
L 383.014016 215.564662 
L 386.293355 215.564662 
L 389.572694 215.564662 
L 392.852033 215.564662 
L 396.131371 215.564662 
L 399.41071 215.564662 
L 399.41071 211.266484 
L 399.41071 211.266484 
L 396.131371 215.757782 
L 392.852033 217.935117 
L 389.572694 218.540682 
L 386.293355 218.157388 
L 383.014016 217.231536 
L 379.734677 216.093615 
L 376.455338 214.977252 
L 373.175999 214.036353 
L 369.896661 213.360473 
L 366.617322 212.988498 
L 363.337983 212.920684 
L 360.058644 213.129137 
L 356.779305 213.56683 
L 353.499966 214.175224 
L 350.220628 214.890602 
L 346.941289 215.649206 
L 343.66195 216.391277 
L 340.382611 217.064097 
L 337.103272 217.624127 
L 333.823933 218.038361 
L 330.544595 218.284966 
L 327.265256 218.353326 
L 323.985917 218.243578 
L 320.706578 217.965728 
L 317.427239 217.538429 
L 314.1479 216.987524 
L 310.868561 216.344403 
L 307.589223 215.644268 
L 304.309884 214.924362 
L 301.030545 214.222224 
L 297.751206 213.57403 
L 294.471867 213.013055 
L 291.192528 212.568309 
L 287.91319 212.263379 
L 284.633851 212.115494 
L 281.354512 212.13485 
L 278.075173 212.324189 
L 274.795834 212.678659 
L 271.516495 213.185941 
L 268.237157 213.826635 
L 264.957818 214.574907 
L 261.678479 215.399367 
L 258.39914 216.264149 
L 255.119801 217.130186 
L 251.840462 217.956616 
L 248.561123 218.702306 
L 245.281785 219.327442 
L 242.002446 219.795139 
L 238.723107 215.563109 
L 235.443768 215.561101 
L 232.164429 223.287408 
L 228.88509 221.658877 
L 225.605752 219.649604 
L 222.326413 217.332264 
L 219.047074 214.795596 
L 215.767735 212.141605 
L 212.488396 209.482162 
L 209.209057 206.935079 
L 205.929718 204.61974 
L 202.65038 202.652404 
L 199.371041 201.141293 
L 196.091702 200.181591 
L 192.812363 199.850504 
L 189.533024 200.20253 
L 186.253685 201.265093 
L 182.974347 203.034705 
L 179.695008 205.473823 
L 176.415669 208.50856 
L 173.13633 212.027408 
L 169.856991 215.881132 
L 166.577652 219.88397 
L 163.298314 223.816267 
L 160.018975 227.428648 
L 156.739636 230.447828 
L 153.460297 232.584098 
L 150.180958 233.540533 
L 146.901619 233.023903 
L 143.62228 230.757229 
L 140.342942 226.493907 
L 137.063603 220.033226 
L 133.784264 211.237085 
L 130.504925 200.047629 
L 127.225586 186.505471 
L 123.946247 170.768064 
L 120.666909 153.127726 
L 117.38757 134.028726 
L 114.108231 114.082735 
L 110.828892 94.08184 
L 107.549553 75.008219 
L 104.270214 58.039432 
L 100.990876 44.548184 
L 97.711537 36.09525 
L 94.432198 34.414125 
L 91.152859 41.3858 
L 87.87352 59.001906 
L 84.594181 89.314288 
L 81.314842 134.3689 
L 78.035504 196.121713 
L 74.756165 276.334125 
z
" clip-path="url(#p5dc1853395)" style="fill: #d62728; fill-opacity: 0.166667"/>
   </g>
   <g id="PolyCollection_5">
    <path d="M 74.756165 190.283692 
L 74.756165 215.564662 
L 76.3815 215.564662 
L 78.006835 215.564662 
L 79.632171 215.564662 
L 81.257506 215.564662 
L 82.882841 215.564662 
L 84.508177 215.564662 
L 86.133512 215.564662 
L 87.758847 215.564662 
L 89.384183 215.564662 
L 91.009518 215.564662 
L 92.634854 215.564662 
L 94.260189 215.564662 
L 95.885524 215.564662 
L 97.51086 215.564662 
L 99.136195 215.564662 
L 100.76153 215.564662 
L 102.386866 215.564662 
L 104.012201 215.564662 
L 105.637536 215.564662 
L 107.262872 215.564662 
L 108.888207 215.564662 
L 110.513542 215.564662 
L 112.138878 215.564662 
L 113.764213 215.564662 
L 115.389548 215.564662 
L 117.014884 215.564662 
L 118.640219 215.564662 
L 120.265554 215.564662 
L 121.89089 215.564662 
L 123.516225 215.564662 
L 125.14156 215.564662 
L 126.766896 215.564662 
L 128.392231 215.564662 
L 130.017566 215.564662 
L 131.642902 215.564662 
L 133.268237 215.564662 
L 134.893572 215.564662 
L 136.518908 215.564662 
L 138.144243 215.564662 
L 139.769578 215.564662 
L 141.394914 215.564662 
L 143.020249 215.564662 
L 144.645584 215.564662 
L 146.27092 215.564662 
L 147.896255 215.564662 
L 149.52159 215.564662 
L 151.146926 215.564662 
L 152.772261 215.564662 
L 154.397596 215.564662 
L 156.022932 215.564662 
L 157.648267 215.564662 
L 159.273602 215.564662 
L 160.898938 215.564662 
L 162.524273 215.564662 
L 164.149609 215.564662 
L 165.774944 215.564662 
L 167.400279 215.564662 
L 169.025615 215.564662 
L 170.65095 215.564662 
L 172.276285 215.564662 
L 173.901621 215.564662 
L 175.526956 215.564662 
L 177.152291 215.564662 
L 178.777627 215.564662 
L 180.402962 215.564662 
L 182.028297 215.564662 
L 183.653633 215.564662 
L 185.278968 215.564662 
L 186.904303 215.564662 
L 188.529639 215.564662 
L 190.154974 215.564662 
L 191.780309 215.564662 
L 193.405645 215.564662 
L 195.03098 215.564662 
L 196.656315 215.564662 
L 198.281651 215.564662 
L 199.906986 215.564662 
L 201.532321 215.564662 
L 203.157657 215.564662 
L 204.782992 215.564662 
L 206.408327 215.564662 
L 208.033663 215.564662 
L 209.658998 215.564662 
L 211.284333 215.564662 
L 212.909669 215.564662 
L 214.535004 215.564662 
L 216.160339 215.564662 
L 217.785675 215.564662 
L 219.41101 215.564662 
L 221.036345 215.564662 
L 222.661681 215.564662 
L 224.287016 215.564662 
L 225.912351 215.564662 
L 227.537687 215.564662 
L 229.163022 215.564662 
L 230.788357 215.564662 
L 232.413693 215.564662 
L 234.039028 215.564662 
L 235.664364 215.564662 
L 235.664364 202.737907 
L 235.664364 202.737907 
L 234.039028 218.85859 
L 232.413693 224.984614 
L 230.788357 225.101117 
L 229.163022 222.066579 
L 227.537687 217.847641 
L 225.912351 213.71753 
L 224.287016 210.422214 
L 222.661681 208.318098 
L 221.036345 207.484742 
L 219.41101 207.815795 
L 217.785675 209.091072 
L 216.160339 211.032409 
L 214.535004 213.345717 
L 212.909669 215.75139 
L 211.284333 218.005017 
L 209.658998 219.910148 
L 208.033663 221.324638 
L 206.408327 222.161958 
L 204.782992 222.388648 
L 203.157657 222.018962 
L 201.532321 221.107592 
L 199.906986 219.741228 
L 198.281651 218.029596 
L 196.656315 216.096491 
L 195.03098 214.071222 
L 193.405645 212.080802 
L 191.780309 210.243118 
L 190.154974 208.661261 
L 188.529639 207.419098 
L 186.904303 206.578151 
L 185.278968 206.175763 
L 183.653633 206.224501 
L 182.028297 206.712719 
L 180.402962 207.606161 
L 178.777627 208.850459 
L 177.152291 210.37439 
L 175.526956 212.093705 
L 173.901621 213.915369 
L 172.276285 215.742031 
L 170.65095 217.476557 
L 169.025615 219.026458 
L 167.400279 220.308048 
L 165.774944 221.250203 
L 164.149609 221.797587 
L 162.524273 221.913231 
L 160.898938 221.580386 
L 159.273602 220.803579 
L 157.648267 219.608823 
L 156.022932 215.561681 
L 154.397596 215.562293 
L 152.772261 214.307837 
L 151.146926 212.370784 
L 149.52159 210.396608 
L 147.896255 208.486762 
L 146.27092 206.744659 
L 144.645584 205.270914 
L 143.020249 204.15838 
L 141.394914 203.487133 
L 139.769578 203.319578 
L 138.144243 203.695859 
L 136.518908 204.62976 
L 134.893572 206.105275 
L 133.268237 208.074053 
L 131.642902 210.453873 
L 130.017566 213.128331 
L 128.392231 215.947884 
L 126.766896 218.732368 
L 125.14156 221.275105 
L 123.516225 223.348642 
L 121.89089 224.712149 
L 120.265554 225.120441 
L 118.640219 224.334545 
L 117.014884 222.133643 
L 115.389548 218.328173 
L 113.764213 212.773785 
L 112.138878 205.385732 
L 110.513542 196.153221 
L 108.888207 185.153081 
L 107.262872 172.56205 
L 105.637536 158.666785 
L 104.012201 143.870616 
L 102.386866 128.695863 
L 100.76153 113.780408 
L 99.136195 99.867012 
L 97.51086 87.783689 
L 95.885524 78.413243 
L 94.260189 72.649855 
L 92.634854 71.340395 
L 91.009518 75.20786 
L 89.384183 84.754113 
L 87.758847 100.138815 
L 86.133512 121.031139 
L 84.508177 146.430583 
L 82.882841 174.452854 
L 81.257506 202.076477 
L 79.632171 224.845431 
L 78.006835 236.522724 
L 76.3815 228.689488 
L 74.756165 190.283692 
z
" clip-path="url(#p5dc1853395)" style="fill: #9467bd; fill-opacity: 0.166667"/>
   </g>
   <g id="PolyCollection_6">
    <path d="M 74.756165 192.82067 
L 74.756165 215.564662 
L 76.342115 215.564662 
L 77.928066 215.564662 
L 79.514017 215.564662 
L 81.099968 215.564662 
L 82.685918 215.564662 
L 84.271869 215.564662 
L 85.85782 215.564662 
L 87.44377 215.564662 
L 89.029721 215.564662 
L 90.615672 215.564662 
L 92.201623 215.564662 
L 93.787573 215.564662 
L 95.373524 215.564662 
L 96.959475 215.564662 
L 98.545425 215.564662 
L 100.131376 215.564662 
L 101.717327 215.564662 
L 103.303278 215.564662 
L 104.889228 215.564662 
L 106.475179 215.564662 
L 108.06113 215.564662 
L 109.64708 215.564662 
L 111.233031 215.564662 
L 112.818982 215.564662 
L 114.404932 215.564662 
L 115.990883 215.564662 
L 117.576834 215.564662 
L 119.162785 215.564662 
L 120.748735 215.564662 
L 122.334686 215.564662 
L 123.920637 215.564662 
L 125.506587 215.564662 
L 127.092538 215.564662 
L 128.678489 215.564662 
L 130.26444 215.564662 
L 131.85039 215.564662 
L 133.436341 215.564662 
L 135.022292 215.564662 
L 136.608242 215.564662 
L 138.194193 215.564662 
L 139.780144 215.564662 
L 141.366094 215.564662 
L 142.952045 215.564662 
L 144.537996 215.564662 
L 146.123947 215.564662 
L 147.709897 215.564662 
L 149.295848 215.564662 
L 150.881799 215.564662 
L 152.467749 215.564662 
L 154.0537 215.564662 
L 155.639651 215.564662 
L 157.225602 215.564662 
L 158.811552 215.564662 
L 160.397503 215.564662 
L 161.983454 215.564662 
L 163.569404 215.564662 
L 165.155355 215.564662 
L 166.741306 215.564662 
L 168.327257 215.564662 
L 169.913207 215.564662 
L 171.499158 215.564662 
L 173.085109 215.564662 
L 174.671059 215.564662 
L 176.25701 215.564662 
L 177.842961 215.564662 
L 179.428911 215.564662 
L 181.014862 215.564662 
L 182.600813 215.564662 
L 184.186764 215.564662 
L 185.772714 215.564662 
L 187.358665 215.564662 
L 188.944616 215.564662 
L 190.530566 215.564662 
L 192.116517 215.564662 
L 193.702468 215.564662 
L 195.288419 215.564662 
L 196.874369 215.564662 
L 198.46032 215.564662 
L 200.046271 215.564662 
L 201.632221 215.564662 
L 203.218172 215.564662 
L 204.804123 215.564662 
L 206.390073 215.564662 
L 207.976024 215.564662 
L 209.561975 215.564662 
L 211.147926 215.564662 
L 212.733876 215.564662 
L 214.319827 215.564662 
L 215.905778 215.564662 
L 217.491728 215.564662 
L 219.077679 215.564662 
L 220.66363 215.564662 
L 222.249581 215.564662 
L 223.835531 215.564662 
L 225.421482 215.564662 
L 227.007433 215.564662 
L 228.593383 215.564662 
L 230.179334 215.564662 
L 231.765285 215.564662 
L 231.765285 215.558154 
L 231.765285 215.558154 
L 230.179334 215.214361 
L 228.593383 214.848028 
L 227.007433 214.567987 
L 225.421482 214.421978 
L 223.835531 214.415935 
L 222.249581 214.529253 
L 220.66363 214.726604 
L 219.077679 214.966812 
L 217.491728 215.209281 
L 215.905778 215.41837 
L 214.319827 215.566102 
L 212.733876 215.633543 
L 211.147926 215.611129 
L 209.561975 215.498206 
L 207.976024 215.302008 
L 206.390073 215.036242 
L 204.804123 214.71946 
L 203.218172 214.373346 
L 201.632221 214.02101 
L 200.046271 213.685399 
L 198.46032 213.387875 
L 196.874369 213.147005 
L 195.288419 212.977609 
L 193.702468 212.890071 
L 192.116517 212.889918 
L 190.530566 212.977672 
L 188.944616 213.148947 
L 187.358665 213.394775 
L 185.772714 213.702138 
L 184.186764 214.054661 
L 182.600813 214.433441 
L 181.014862 214.817969 
L 179.428911 215.187107 
L 177.842961 215.520078 
L 176.25701 215.797437 
L 174.671059 216.001984 
L 173.085109 216.11958 
L 171.499158 216.139849 
L 169.913207 216.056725 
L 168.327257 215.868832 
L 166.741306 215.579681 
L 165.155355 215.197665 
L 163.569404 214.735852 
L 161.983454 214.211571 
L 160.397503 213.645806 
L 158.811552 213.062397 
L 157.225602 212.487072 
L 155.639651 211.946333 
L 154.0537 215.564803 
L 152.467749 215.56545 
L 150.881799 209.880705 
L 149.295848 210.036341 
L 147.709897 210.361789 
L 146.123947 210.843706 
L 144.537996 211.459003 
L 142.952045 212.174648 
L 141.366094 212.947764 
L 139.780144 213.726025 
L 138.194193 214.448387 
L 136.608242 215.046148 
L 135.022292 215.444352 
L 133.436341 215.563537 
L 131.85039 215.321807 
L 130.26444 214.637231 
L 128.678489 213.430529 
L 127.092538 211.628013 
L 125.506587 209.164755 
L 123.920637 205.987909 
L 122.334686 202.060126 
L 120.748735 197.363005 
L 119.162785 191.900454 
L 117.576834 185.701894 
L 115.990883 178.825167 
L 114.404932 171.359019 
L 112.818982 163.425016 
L 111.233031 155.178723 
L 109.64708 146.809965 
L 108.06113 138.541974 
L 106.475179 130.629191 
L 104.889228 123.353501 
L 103.303278 117.018625 
L 101.717327 111.942397 
L 100.131376 108.446624 
L 98.545425 106.844188 
L 96.959475 107.423059 
L 95.373524 110.426829 
L 93.787573 116.031361 
L 92.201623 124.317142 
L 90.615672 135.236862 
L 89.029721 148.57775 
L 87.44377 163.918137 
L 85.85782 180.577712 
L 84.271869 197.560885 
L 82.685918 213.492649 
L 81.099968 226.546293 
L 79.514017 234.3623 
L 77.928066 233.957689 
L 76.342115 221.62508 
L 74.756165 192.82067 
z
" clip-path="url(#p5dc1853395)" style="fill: #8c564b; fill-opacity: 0.166667"/>
   </g>
   <g id="matplotlib.axis_1">
    <g id="xtick_1">
     <g id="line2d_1">
      <defs>
       <path id="m3508aa4399" d="M 0 0 
L 0 3.5 
" style="stroke: #000000; stroke-width: 0.8"/>
      </defs>
      <g>
       <use xlink:href="#m3508aa4399" x="74.756165" y="288.430125" style="stroke: #000000; stroke-width: 0.8"/>
      </g>
     </g>
     <g id="text_1">
      <!-- 0.0000 -->
      <g transform="translate(57.260852 303.028562) scale(0.1 -0.1)">
       <defs>
        <path id="DejaVuSans-30" d="M 2034 4250 
Q 1547 4250 1301 3770 
Q 1056 3291 1056 2328 
Q 1056 1369 1301 889 
Q 1547 409 2034 409 
Q 2525 409 2770 889 
Q 3016 1369 3016 2328 
Q 3016 3291 2770 3770 
Q 2525 4250 2034 4250 
z
M 2034 4750 
Q 2819 4750 3233 4129 
Q 3647 3509 3647 2328 
Q 3647 1150 3233 529 
Q 2819 -91 2034 -91 
Q 1250 -91 836 529 
Q 422 1150 422 2328 
Q 422 3509 836 4129 
Q 1250 4750 2034 4750 
z
" transform="scale(0.015625)"/>
        <path id="DejaVuSans-2e" d="M 684 794 
L 1344 794 
L 1344 0 
L 684 0 
L 684 794 
z
" transform="scale(0.015625)"/>
       </defs>
       <use xlink:href="#DejaVuSans-30"/>
       <use xlink:href="#DejaVuSans-2e" x="63.623047"/>
       <use xlink:href="#DejaVuSans-30" x="95.410156"/>
       <use xlink:href="#DejaVuSans-30" x="159.033203"/>
       <use xlink:href="#DejaVuSans-30" x="222.65625"/>
       <use xlink:href="#DejaVuSans-30" x="286.279297"/>
      </g>
     </g>
    </g>
    <g id="xtick_2">
     <g id="line2d_2">
      <g>
       <use xlink:href="#m3508aa4399" x="118.427847" y="288.430125" style="stroke: #000000; stroke-width: 0.8"/>
      </g>
     </g>
     <g id="text_2">
      <!-- 0.0005 -->
      <g transform="translate(100.932535 303.028562) scale(0.1 -0.1)">
       <defs>
        <path id="DejaVuSans-35" d="M 691 4666 
L 3169 4666 
L 3169 4134 
L 1269 4134 
L 1269 2991 
Q 1406 3038 1543 3061 
Q 1681 3084 1819 3084 
Q 2600 3084 3056 2656 
Q 3513 2228 3513 1497 
Q 3513 744 3044 326 
Q 2575 -91 1722 -91 
Q 1428 -91 1123 -41 
Q 819 9 494 109 
L 494 744 
Q 775 591 1075 516 
Q 1375 441 1709 441 
Q 2250 441 2565 725 
Q 2881 1009 2881 1497 
Q 2881 1984 2565 2268 
Q 2250 2553 1709 2553 
Q 1456 2553 1204 2497 
Q 953 2441 691 2322 
L 691 4666 
z
" transform="scale(0.015625)"/>
       </defs>
       <use xlink:href="#DejaVuSans-30"/>
       <use xlink:href="#DejaVuSans-2e" x="63.623047"/>
       <use xlink:href="#DejaVuSans-30" x="95.410156"/>
       <use xlink:href="#DejaVuSans-30" x="159.033203"/>
       <use xlink:href="#DejaVuSans-30" x="222.65625"/>
       <use xlink:href="#DejaVuSans-35" x="286.279297"/>
      </g>
     </g>
    </g>
    <g id="xtick_3">
     <g id="line2d_3">
      <g>
       <use xlink:href="#m3508aa4399" x="162.09953" y="288.430125" style="stroke: #000000; stroke-width: 0.8"/>
      </g>
     </g>
     <g id="text_3">
      <!-- 0.0010 -->
      <g transform="translate(144.604218 303.028562) scale(0.1 -0.1)">
       <defs>
        <path id="DejaVuSans-31" d="M 794 531 
L 1825 531 
L 1825 4091 
L 703 3866 
L 703 4441 
L 1819 4666 
L 2450 4666 
L 2450 531 
L 3481 531 
L 3481 0 
L 794 0 
L 794 531 
z
" transform="scale(0.015625)"/>
       </defs>
       <use xlink:href="#DejaVuSans-30"/>
       <use xlink:href="#DejaVuSans-2e" x="63.623047"/>
       <use xlink:href="#DejaVuSans-30" x="95.410156"/>
       <use xlink:href="#DejaVuSans-30" x="159.033203"/>
       <use xlink:href="#DejaVuSans-31" x="222.65625"/>
       <use xlink:href="#DejaVuSans-30" x="286.279297"/>
      </g>
     </g>
    </g>
    <g id="xtick_4">
     <g id="line2d_4">
      <g>
       <use xlink:href="#m3508aa4399" x="205.771213" y="288.430125" style="stroke: #000000; stroke-width: 0.8"/>
      </g>
     </g>
     <g id="text_4">
      <!-- 0.0015 -->
      <g transform="translate(188.2759 303.028562) scale(0.1 -0.1)">
       <use xlink:href="#DejaVuSans-30"/>
       <use xlink:href="#DejaVuSans-2e" x="63.623047"/>
       <use xlink:href="#DejaVuSans-30" x="95.410156"/>
       <use xlink:href="#DejaVuSans-30" x="159.033203"/>
       <use xlink:href="#DejaVuSans-31" x="222.65625"/>
       <use xlink:href="#DejaVuSans-35" x="286.279297"/>
      </g>
     </g>
    </g>
    <g id="xtick_5">
     <g id="line2d_5">
      <g>
       <use xlink:href="#m3508aa4399" x="249.442896" y="288.430125" style="stroke: #000000; stroke-width: 0.8"/>
      </g>
     </g>
     <g id="text_5">
      <!-- 0.0020 -->
      <g transform="translate(231.947583 303.028562) scale(0.1 -0.1)">
       <defs>
        <path id="DejaVuSans-32" d="M 1228 531 
L 3431 531 
L 3431 0 
L 469 0 
L 469 531 
Q 828 903 1448 1529 
Q 2069 2156 2228 2338 
Q 2531 2678 2651 2914 
Q 2772 3150 2772 3378 
Q 2772 3750 2511 3984 
Q 2250 4219 1831 4219 
Q 1534 4219 1204 4116 
Q 875 4013 500 3803 
L 500 4441 
Q 881 4594 1212 4672 
Q 1544 4750 1819 4750 
Q 2544 4750 2975 4387 
Q 3406 4025 3406 3419 
Q 3406 3131 3298 2873 
Q 3191 2616 2906 2266 
Q 2828 2175 2409 1742 
Q 1991 1309 1228 531 
z
" transform="scale(0.015625)"/>
       </defs>
       <use xlink:href="#DejaVuSans-30"/>
       <use xlink:href="#DejaVuSans-2e" x="63.623047"/>
       <use xlink:href="#DejaVuSans-30" x="95.410156"/>
       <use xlink:href="#DejaVuSans-30" x="159.033203"/>
       <use xlink:href="#DejaVuSans-32" x="222.65625"/>
       <use xlink:href="#DejaVuSans-30" x="286.279297"/>
      </g>
     </g>
    </g>
    <g id="xtick_6">
     <g id="line2d_6">
      <g>
       <use xlink:href="#m3508aa4399" x="293.114578" y="288.430125" style="stroke: #000000; stroke-width: 0.8"/>
      </g>
     </g>
     <g id="text_6">
      <!-- 0.0025 -->
      <g transform="translate(275.619266 303.028562) scale(0.1 -0.1)">
       <use xlink:href="#DejaVuSans-30"/>
       <use xlink:href="#DejaVuSans-2e" x="63.623047"/>
       <use xlink:href="#DejaVuSans-30" x="95.410156"/>
       <use xlink:href="#DejaVuSans-30" x="159.033203"/>
       <use xlink:href="#DejaVuSans-32" x="222.65625"/>
       <use xlink:href="#DejaVuSans-35" x="286.279297"/>
      </g>
     </g>
    </g>
    <g id="xtick_7">
     <g id="line2d_7">
      <g>
       <use xlink:href="#m3508aa4399" x="336.786261" y="288.430125" style="stroke: #000000; stroke-width: 0.8"/>
      </g>
     </g>
     <g id="text_7">
      <!-- 0.0030 -->
      <g transform="translate(319.290948 303.028562) scale(0.1 -0.1)">
       <defs>
        <path id="DejaVuSans-33" d="M 2597 2516 
Q 3050 2419 3304 2112 
Q 3559 1806 3559 1356 
Q 3559 666 3084 287 
Q 2609 -91 1734 -91 
Q 1441 -91 1130 -33 
Q 819 25 488 141 
L 488 750 
Q 750 597 1062 519 
Q 1375 441 1716 441 
Q 2309 441 2620 675 
Q 2931 909 2931 1356 
Q 2931 1769 2642 2001 
Q 2353 2234 1838 2234 
L 1294 2234 
L 1294 2753 
L 1863 2753 
Q 2328 2753 2575 2939 
Q 2822 3125 2822 3475 
Q 2822 3834 2567 4026 
Q 2313 4219 1838 4219 
Q 1578 4219 1281 4162 
Q 984 4106 628 3988 
L 628 4550 
Q 988 4650 1302 4700 
Q 1616 4750 1894 4750 
Q 2613 4750 3031 4423 
Q 3450 4097 3450 3541 
Q 3450 3153 3228 2886 
Q 3006 2619 2597 2516 
z
" transform="scale(0.015625)"/>
       </defs>
       <use xlink:href="#DejaVuSans-30"/>
       <use xlink:href="#DejaVuSans-2e" x="63.623047"/>
       <use xlink:href="#DejaVuSans-30" x="95.410156"/>
       <use xlink:href="#DejaVuSans-30" x="159.033203"/>
       <use xlink:href="#DejaVuSans-33" x="222.65625"/>
       <use xlink:href="#DejaVuSans-30" x="286.279297"/>
      </g>
     </g>
    </g>
    <g id="xtick_8">
     <g id="line2d_8">
      <g>
       <use xlink:href="#m3508aa4399" x="380.457944" y="288.430125" style="stroke: #000000; stroke-width: 0.8"/>
      </g>
     </g>
     <g id="text_8">
      <!-- 0.0035 -->
      <g transform="translate(362.962631 303.028562) scale(0.1 -0.1)">
       <use xlink:href="#DejaVuSans-30"/>
       <use xlink:href="#DejaVuSans-2e" x="63.623047"/>
       <use xlink:href="#DejaVuSans-30" x="95.410156"/>
       <use xlink:href="#DejaVuSans-30" x="159.033203"/>
       <use xlink:href="#DejaVuSans-33" x="222.65625"/>
       <use xlink:href="#DejaVuSans-35" x="286.279297"/>
      </g>
     </g>
    </g>
    <g id="text_9">
     <!-- Pixel values -->
     <g transform="translate(207.671719 316.706687) scale(0.1 -0.1)">
      <defs>
       <path id="DejaVuSans-50" d="M 1259 4147 
L 1259 2394 
L 2053 2394 
Q 2494 2394 2734 2622 
Q 2975 2850 2975 3272 
Q 2975 3691 2734 3919 
Q 2494 4147 2053 4147 
L 1259 4147 
z
M 628 4666 
L 2053 4666 
Q 2838 4666 3239 4311 
Q 3641 3956 3641 3272 
Q 3641 2581 3239 2228 
Q 2838 1875 2053 1875 
L 1259 1875 
L 1259 0 
L 628 0 
L 628 4666 
z
" transform="scale(0.015625)"/>
       <path id="DejaVuSans-69" d="M 603 3500 
L 1178 3500 
L 1178 0 
L 603 0 
L 603 3500 
z
M 603 4863 
L 1178 4863 
L 1178 4134 
L 603 4134 
L 603 4863 
z
" transform="scale(0.015625)"/>
       <path id="DejaVuSans-78" d="M 3513 3500 
L 2247 1797 
L 3578 0 
L 2900 0 
L 1881 1375 
L 863 0 
L 184 0 
L 1544 1831 
L 300 3500 
L 978 3500 
L 1906 2253 
L 2834 3500 
L 3513 3500 
z
" transform="scale(0.015625)"/>
       <path id="DejaVuSans-65" d="M 3597 1894 
L 3597 1613 
L 953 1613 
Q 991 1019 1311 708 
Q 1631 397 2203 397 
Q 2534 397 2845 478 
Q 3156 559 3463 722 
L 3463 178 
Q 3153 47 2828 -22 
Q 2503 -91 2169 -91 
Q 1331 -91 842 396 
Q 353 884 353 1716 
Q 353 2575 817 3079 
Q 1281 3584 2069 3584 
Q 2775 3584 3186 3129 
Q 3597 2675 3597 1894 
z
M 3022 2063 
Q 3016 2534 2758 2815 
Q 2500 3097 2075 3097 
Q 1594 3097 1305 2825 
Q 1016 2553 972 2059 
L 3022 2063 
z
" transform="scale(0.015625)"/>
       <path id="DejaVuSans-6c" d="M 603 4863 
L 1178 4863 
L 1178 0 
L 603 0 
L 603 4863 
z
" transform="scale(0.015625)"/>
       <path id="DejaVuSans-20" transform="scale(0.015625)"/>
       <path id="DejaVuSans-76" d="M 191 3500 
L 800 3500 
L 1894 563 
L 2988 3500 
L 3597 3500 
L 2284 0 
L 1503 0 
L 191 3500 
z
" transform="scale(0.015625)"/>
       <path id="DejaVuSans-61" d="M 2194 1759 
Q 1497 1759 1228 1600 
Q 959 1441 959 1056 
Q 959 750 1161 570 
Q 1363 391 1709 391 
Q 2188 391 2477 730 
Q 2766 1069 2766 1631 
L 2766 1759 
L 2194 1759 
z
M 3341 1997 
L 3341 0 
L 2766 0 
L 2766 531 
Q 2569 213 2275 61 
Q 1981 -91 1556 -91 
Q 1019 -91 701 211 
Q 384 513 384 1019 
Q 384 1609 779 1909 
Q 1175 2209 1959 2209 
L 2766 2209 
L 2766 2266 
Q 2766 2663 2505 2880 
Q 2244 3097 1772 3097 
Q 1472 3097 1187 3025 
Q 903 2953 641 2809 
L 641 3341 
Q 956 3463 1253 3523 
Q 1550 3584 1831 3584 
Q 2591 3584 2966 3190 
Q 3341 2797 3341 1997 
z
" transform="scale(0.015625)"/>
       <path id="DejaVuSans-75" d="M 544 1381 
L 544 3500 
L 1119 3500 
L 1119 1403 
Q 1119 906 1312 657 
Q 1506 409 1894 409 
Q 2359 409 2629 706 
Q 2900 1003 2900 1516 
L 2900 3500 
L 3475 3500 
L 3475 0 
L 2900 0 
L 2900 538 
Q 2691 219 2414 64 
Q 2138 -91 1772 -91 
Q 1169 -91 856 284 
Q 544 659 544 1381 
z
M 1991 3584 
L 1991 3584 
z
" transform="scale(0.015625)"/>
       <path id="DejaVuSans-73" d="M 2834 3397 
L 2834 2853 
Q 2591 2978 2328 3040 
Q 2066 3103 1784 3103 
Q 1356 3103 1142 2972 
Q 928 2841 928 2578 
Q 928 2378 1081 2264 
Q 1234 2150 1697 2047 
L 1894 2003 
Q 2506 1872 2764 1633 
Q 3022 1394 3022 966 
Q 3022 478 2636 193 
Q 2250 -91 1575 -91 
Q 1294 -91 989 -36 
Q 684 19 347 128 
L 347 722 
Q 666 556 975 473 
Q 1284 391 1588 391 
Q 1994 391 2212 530 
Q 2431 669 2431 922 
Q 2431 1156 2273 1281 
Q 2116 1406 1581 1522 
L 1381 1569 
Q 847 1681 609 1914 
Q 372 2147 372 2553 
Q 372 3047 722 3315 
Q 1072 3584 1716 3584 
Q 2034 3584 2315 3537 
Q 2597 3491 2834 3397 
z
" transform="scale(0.015625)"/>
      </defs>
      <use xlink:href="#DejaVuSans-50"/>
      <use xlink:href="#DejaVuSans-69" x="58.052734"/>
      <use xlink:href="#DejaVuSans-78" x="85.835938"/>
      <use xlink:href="#DejaVuSans-65" x="141.890625"/>
      <use xlink:href="#DejaVuSans-6c" x="203.414062"/>
      <use xlink:href="#DejaVuSans-20" x="231.197266"/>
      <use xlink:href="#DejaVuSans-76" x="262.984375"/>
      <use xlink:href="#DejaVuSans-61" x="322.164062"/>
      <use xlink:href="#DejaVuSans-6c" x="383.443359"/>
      <use xlink:href="#DejaVuSans-75" x="411.226562"/>
      <use xlink:href="#DejaVuSans-65" x="474.605469"/>
      <use xlink:href="#DejaVuSans-73" x="536.128906"/>
     </g>
    </g>
   </g>
   <g id="matplotlib.axis_2">
    <g id="ytick_1">
     <g id="line2d_9">
      <defs>
       <path id="m6297b291ec" d="M 0 0 
L -3.5 0 
" style="stroke: #000000; stroke-width: 0.8"/>
      </defs>
      <g>
       <use xlink:href="#m6297b291ec" x="58.523438" y="286.310547" style="stroke: #000000; stroke-width: 0.8"/>
      </g>
     </g>
     <g id="text_10">
      <!-- −0.04 -->
      <g transform="translate(20.878125 290.109766) scale(0.1 -0.1)">
       <defs>
        <path id="DejaVuSans-2212" d="M 678 2272 
L 4684 2272 
L 4684 1741 
L 678 1741 
L 678 2272 
z
" transform="scale(0.015625)"/>
        <path id="DejaVuSans-34" d="M 2419 4116 
L 825 1625 
L 2419 1625 
L 2419 4116 
z
M 2253 4666 
L 3047 4666 
L 3047 1625 
L 3713 1625 
L 3713 1100 
L 3047 1100 
L 3047 0 
L 2419 0 
L 2419 1100 
L 313 1100 
L 313 1709 
L 2253 4666 
z
" transform="scale(0.015625)"/>
       </defs>
       <use xlink:href="#DejaVuSans-2212"/>
       <use xlink:href="#DejaVuSans-30" x="83.789062"/>
       <use xlink:href="#DejaVuSans-2e" x="147.412109"/>
       <use xlink:href="#DejaVuSans-30" x="179.199219"/>
       <use xlink:href="#DejaVuSans-34" x="242.822266"/>
      </g>
     </g>
    </g>
    <g id="ytick_2">
     <g id="line2d_10">
      <g>
       <use xlink:href="#m6297b291ec" x="58.523438" y="250.937605" style="stroke: #000000; stroke-width: 0.8"/>
      </g>
     </g>
     <g id="text_11">
      <!-- −0.02 -->
      <g transform="translate(20.878125 254.736823) scale(0.1 -0.1)">
       <use xlink:href="#DejaVuSans-2212"/>
       <use xlink:href="#DejaVuSans-30" x="83.789062"/>
       <use xlink:href="#DejaVuSans-2e" x="147.412109"/>
       <use xlink:href="#DejaVuSans-30" x="179.199219"/>
       <use xlink:href="#DejaVuSans-32" x="242.822266"/>
      </g>
     </g>
    </g>
    <g id="ytick_3">
     <g id="line2d_11">
      <g>
       <use xlink:href="#m6297b291ec" x="58.523438" y="215.564662" style="stroke: #000000; stroke-width: 0.8"/>
      </g>
     </g>
     <g id="text_12">
      <!-- 0.00 -->
      <g transform="translate(29.257813 219.363881) scale(0.1 -0.1)">
       <use xlink:href="#DejaVuSans-30"/>
       <use xlink:href="#DejaVuSans-2e" x="63.623047"/>
       <use xlink:href="#DejaVuSans-30" x="95.410156"/>
       <use xlink:href="#DejaVuSans-30" x="159.033203"/>
      </g>
     </g>
    </g>
    <g id="ytick_4">
     <g id="line2d_12">
      <g>
       <use xlink:href="#m6297b291ec" x="58.523438" y="180.19172" style="stroke: #000000; stroke-width: 0.8"/>
      </g>
     </g>
     <g id="text_13">
      <!-- 0.02 -->
      <g transform="translate(29.257813 183.990939) scale(0.1 -0.1)">
       <use xlink:href="#DejaVuSans-30"/>
       <use xlink:href="#DejaVuSans-2e" x="63.623047"/>
       <use xlink:href="#DejaVuSans-30" x="95.410156"/>
       <use xlink:href="#DejaVuSans-32" x="159.033203"/>
      </g>
     </g>
    </g>
    <g id="ytick_5">
     <g id="line2d_13">
      <g>
       <use xlink:href="#m6297b291ec" x="58.523438" y="144.818778" style="stroke: #000000; stroke-width: 0.8"/>
      </g>
     </g>
     <g id="text_14">
      <!-- 0.04 -->
      <g transform="translate(29.257813 148.617997) scale(0.1 -0.1)">
       <use xlink:href="#DejaVuSans-30"/>
       <use xlink:href="#DejaVuSans-2e" x="63.623047"/>
       <use xlink:href="#DejaVuSans-30" x="95.410156"/>
       <use xlink:href="#DejaVuSans-34" x="159.033203"/>
      </g>
     </g>
    </g>
    <g id="ytick_6">
     <g id="line2d_14">
      <g>
       <use xlink:href="#m6297b291ec" x="58.523438" y="109.445836" style="stroke: #000000; stroke-width: 0.8"/>
      </g>
     </g>
     <g id="text_15">
      <!-- 0.06 -->
      <g transform="translate(29.257813 113.245054) scale(0.1 -0.1)">
       <defs>
        <path id="DejaVuSans-36" d="M 2113 2584 
Q 1688 2584 1439 2293 
Q 1191 2003 1191 1497 
Q 1191 994 1439 701 
Q 1688 409 2113 409 
Q 2538 409 2786 701 
Q 3034 994 3034 1497 
Q 3034 2003 2786 2293 
Q 2538 2584 2113 2584 
z
M 3366 4563 
L 3366 3988 
Q 3128 4100 2886 4159 
Q 2644 4219 2406 4219 
Q 1781 4219 1451 3797 
Q 1122 3375 1075 2522 
Q 1259 2794 1537 2939 
Q 1816 3084 2150 3084 
Q 2853 3084 3261 2657 
Q 3669 2231 3669 1497 
Q 3669 778 3244 343 
Q 2819 -91 2113 -91 
Q 1303 -91 875 529 
Q 447 1150 447 2328 
Q 447 3434 972 4092 
Q 1497 4750 2381 4750 
Q 2619 4750 2861 4703 
Q 3103 4656 3366 4563 
z
" transform="scale(0.015625)"/>
       </defs>
       <use xlink:href="#DejaVuSans-30"/>
       <use xlink:href="#DejaVuSans-2e" x="63.623047"/>
       <use xlink:href="#DejaVuSans-30" x="95.410156"/>
       <use xlink:href="#DejaVuSans-36" x="159.033203"/>
      </g>
     </g>
    </g>
    <g id="ytick_7">
     <g id="line2d_15">
      <g>
       <use xlink:href="#m6297b291ec" x="58.523438" y="74.072893" style="stroke: #000000; stroke-width: 0.8"/>
      </g>
     </g>
     <g id="text_16">
      <!-- 0.08 -->
      <g transform="translate(29.257813 77.872112) scale(0.1 -0.1)">
       <defs>
        <path id="DejaVuSans-38" d="M 2034 2216 
Q 1584 2216 1326 1975 
Q 1069 1734 1069 1313 
Q 1069 891 1326 650 
Q 1584 409 2034 409 
Q 2484 409 2743 651 
Q 3003 894 3003 1313 
Q 3003 1734 2745 1975 
Q 2488 2216 2034 2216 
z
M 1403 2484 
Q 997 2584 770 2862 
Q 544 3141 544 3541 
Q 544 4100 942 4425 
Q 1341 4750 2034 4750 
Q 2731 4750 3128 4425 
Q 3525 4100 3525 3541 
Q 3525 3141 3298 2862 
Q 3072 2584 2669 2484 
Q 3125 2378 3379 2068 
Q 3634 1759 3634 1313 
Q 3634 634 3220 271 
Q 2806 -91 2034 -91 
Q 1263 -91 848 271 
Q 434 634 434 1313 
Q 434 1759 690 2068 
Q 947 2378 1403 2484 
z
M 1172 3481 
Q 1172 3119 1398 2916 
Q 1625 2713 2034 2713 
Q 2441 2713 2670 2916 
Q 2900 3119 2900 3481 
Q 2900 3844 2670 4047 
Q 2441 4250 2034 4250 
Q 1625 4250 1398 4047 
Q 1172 3844 1172 3481 
z
" transform="scale(0.015625)"/>
       </defs>
       <use xlink:href="#DejaVuSans-30"/>
       <use xlink:href="#DejaVuSans-2e" x="63.623047"/>
       <use xlink:href="#DejaVuSans-30" x="95.410156"/>
       <use xlink:href="#DejaVuSans-38" x="159.033203"/>
      </g>
     </g>
    </g>
    <g id="ytick_8">
     <g id="line2d_16">
      <g>
       <use xlink:href="#m6297b291ec" x="58.523438" y="38.699951" style="stroke: #000000; stroke-width: 0.8"/>
      </g>
     </g>
     <g id="text_17">
      <!-- 0.10 -->
      <g transform="translate(29.257813 42.49917) scale(0.1 -0.1)">
       <use xlink:href="#DejaVuSans-30"/>
       <use xlink:href="#DejaVuSans-2e" x="63.623047"/>
       <use xlink:href="#DejaVuSans-31" x="95.410156"/>
       <use xlink:href="#DejaVuSans-30" x="159.033203"/>
      </g>
     </g>
    </g>
    <g id="text_18">
     <!-- Frequency -->
     <g transform="translate(14.798438 181.203812) rotate(-90) scale(0.1 -0.1)">
      <defs>
       <path id="DejaVuSans-46" d="M 628 4666 
L 3309 4666 
L 3309 4134 
L 1259 4134 
L 1259 2759 
L 3109 2759 
L 3109 2228 
L 1259 2228 
L 1259 0 
L 628 0 
L 628 4666 
z
" transform="scale(0.015625)"/>
       <path id="DejaVuSans-72" d="M 2631 2963 
Q 2534 3019 2420 3045 
Q 2306 3072 2169 3072 
Q 1681 3072 1420 2755 
Q 1159 2438 1159 1844 
L 1159 0 
L 581 0 
L 581 3500 
L 1159 3500 
L 1159 2956 
Q 1341 3275 1631 3429 
Q 1922 3584 2338 3584 
Q 2397 3584 2469 3576 
Q 2541 3569 2628 3553 
L 2631 2963 
z
" transform="scale(0.015625)"/>
       <path id="DejaVuSans-71" d="M 947 1747 
Q 947 1113 1208 752 
Q 1469 391 1925 391 
Q 2381 391 2643 752 
Q 2906 1113 2906 1747 
Q 2906 2381 2643 2742 
Q 2381 3103 1925 3103 
Q 1469 3103 1208 2742 
Q 947 2381 947 1747 
z
M 2906 525 
Q 2725 213 2448 61 
Q 2172 -91 1784 -91 
Q 1150 -91 751 415 
Q 353 922 353 1747 
Q 353 2572 751 3078 
Q 1150 3584 1784 3584 
Q 2172 3584 2448 3432 
Q 2725 3281 2906 2969 
L 2906 3500 
L 3481 3500 
L 3481 -1331 
L 2906 -1331 
L 2906 525 
z
" transform="scale(0.015625)"/>
       <path id="DejaVuSans-6e" d="M 3513 2113 
L 3513 0 
L 2938 0 
L 2938 2094 
Q 2938 2591 2744 2837 
Q 2550 3084 2163 3084 
Q 1697 3084 1428 2787 
Q 1159 2491 1159 1978 
L 1159 0 
L 581 0 
L 581 3500 
L 1159 3500 
L 1159 2956 
Q 1366 3272 1645 3428 
Q 1925 3584 2291 3584 
Q 2894 3584 3203 3211 
Q 3513 2838 3513 2113 
z
" transform="scale(0.015625)"/>
       <path id="DejaVuSans-63" d="M 3122 3366 
L 3122 2828 
Q 2878 2963 2633 3030 
Q 2388 3097 2138 3097 
Q 1578 3097 1268 2742 
Q 959 2388 959 1747 
Q 959 1106 1268 751 
Q 1578 397 2138 397 
Q 2388 397 2633 464 
Q 2878 531 3122 666 
L 3122 134 
Q 2881 22 2623 -34 
Q 2366 -91 2075 -91 
Q 1284 -91 818 406 
Q 353 903 353 1747 
Q 353 2603 823 3093 
Q 1294 3584 2113 3584 
Q 2378 3584 2631 3529 
Q 2884 3475 3122 3366 
z
" transform="scale(0.015625)"/>
       <path id="DejaVuSans-79" d="M 2059 -325 
Q 1816 -950 1584 -1140 
Q 1353 -1331 966 -1331 
L 506 -1331 
L 506 -850 
L 844 -850 
Q 1081 -850 1212 -737 
Q 1344 -625 1503 -206 
L 1606 56 
L 191 3500 
L 800 3500 
L 1894 763 
L 2988 3500 
L 3597 3500 
L 2059 -325 
z
" transform="scale(0.015625)"/>
      </defs>
      <use xlink:href="#DejaVuSans-46"/>
      <use xlink:href="#DejaVuSans-72" x="50.269531"/>
      <use xlink:href="#DejaVuSans-65" x="89.132812"/>
      <use xlink:href="#DejaVuSans-71" x="150.65625"/>
      <use xlink:href="#DejaVuSans-75" x="214.132812"/>
      <use xlink:href="#DejaVuSans-65" x="277.511719"/>
      <use xlink:href="#DejaVuSans-6e" x="339.035156"/>
      <use xlink:href="#DejaVuSans-63" x="402.414062"/>
      <use xlink:href="#DejaVuSans-79" x="457.394531"/>
     </g>
    </g>
   </g>
   <g id="line2d_17">
    <path d="M 74.756165 179.623179 
L 76.550665 222.083921 
L 78.345165 239.128587 
L 80.139664 238.691872 
L 81.934164 227.011282 
L 83.728664 208.897113 
L 85.523164 187.969854 
L 87.317664 166.867947 
L 89.112164 147.428655 
L 90.906664 130.844605 
L 92.701164 117.798426 
L 94.495663 108.577674 
L 96.290163 103.172159 
L 98.084663 101.355554 
L 99.879163 102.75309 
L 101.673663 106.896956 
L 103.468163 113.270919 
L 105.262663 121.345538 
L 107.057163 130.605244 
L 108.851663 140.56842 
L 110.646162 150.801545 
L 112.440662 160.928332 
L 114.235162 170.634715 
L 116.029662 179.670452 
L 117.824162 187.848011 
L 119.618662 195.039353 
L 121.413162 201.171128 
L 123.207662 206.218758 
L 125.002162 210.199788 
L 126.796661 213.166865 
L 128.591161 215.200616 
L 130.385661 216.402663 
L 132.180161 216.888981 
L 133.974661 216.783733 
L 135.769161 216.213711 
L 137.563661 215.303451 
L 139.358161 214.171084 
L 141.15266 212.924951 
L 142.94716 211.660965 
L 144.74166 210.46073 
L 146.53616 209.390364 
L 148.33066 208.499981 
L 150.12516 207.82378 
L 151.91966 207.380669 
L 153.71416 207.175343 
L 155.50866 207.199749 
L 157.303159 207.434848 
L 159.097659 207.852594 
L 160.892159 208.418054 
L 162.686659 215.564104 
L 164.481159 215.563334 
L 166.275659 211.90937 
L 168.070159 212.793163 
L 169.864659 213.549741 
L 171.659158 214.143783 
L 173.453658 214.549219 
L 175.248158 214.750073 
L 177.042658 214.740872 
L 178.837158 214.526599 
L 180.631658 214.122216 
L 182.426158 213.55178 
L 184.220658 212.847172 
L 186.015158 212.04652 
L 187.809657 211.192341 
L 189.604157 210.329498 
L 191.398657 209.503026 
L 193.193157 208.755933 
L 194.987657 208.127043 
L 196.782157 207.648985 
L 198.576657 207.346411 
L 200.371157 207.23453 
L 202.165656 207.318054 
L 203.960156 207.590613 
L 205.754656 208.034714 
L 207.549156 208.622291 
L 209.343656 209.315882 
L 211.138156 210.070434 
L 212.932656 210.835732 
L 214.727156 211.559393 
L 216.521656 212.190364 
L 218.316155 212.682782 
L 220.110655 213.000058 
L 221.905155 213.11895 
L 223.699655 213.033385 
L 225.494155 212.757679 
L 227.288655 212.328787 
L 229.083155 211.807107 
L 230.877655 211.275301 
L 232.672154 210.834529 
L 234.466654 210.597344 
L 236.261154 210.676487 
L 238.055654 211.168624 
L 239.850154 212.132027 
L 241.644654 213.557051 
L 243.439154 215.328126 
L 245.233654 217.175867 
L 247.028154 218.617762 
L 248.822653 218.885727 
L 250.617153 216.838679 
L 252.411653 210.858111 
" clip-path="url(#p5dc1853395)" style="fill: none; stroke: #1f77b4; stroke-width: 1.5; stroke-linecap: square"/>
   </g>
   <g id="line2d_18">
    <path d="M 74.756165 185.570604 
L 76.310869 213.896621 
L 77.865572 228.58221 
L 79.420276 232.853133 
L 80.97498 229.456521 
L 82.529684 220.704982 
L 84.084388 208.519077 
L 85.639091 194.467985 
L 87.193795 179.808222 
L 88.748499 165.520301 
L 90.303203 152.343254 
L 91.857907 140.806945 
L 93.412611 131.262148 
L 94.967314 123.908368 
L 96.522018 118.819405 
L 98.076722 115.966689 
L 99.631426 115.240417 
L 101.18613 116.468541 
L 102.740833 119.433678 
L 104.295537 123.888003 
L 105.850241 129.566224 
L 107.404945 136.196723 
L 108.959649 143.510959 
L 110.514352 151.251247 
L 112.069056 159.177025 
L 113.62376 167.069706 
L 115.178464 174.736252 
L 116.733168 182.011572 
L 118.287872 188.75987 
L 119.842575 194.875057 
L 121.397279 200.280343 
L 122.951983 204.927123 
L 124.506687 208.793271 
L 126.061391 211.880941 
L 127.616094 214.213984 
L 129.170798 215.83508 
L 130.725502 216.802672 
L 132.280206 217.187791 
L 133.83491 217.070855 
L 135.389613 216.538504 
L 136.944317 215.680561 
L 138.499021 214.587145 
L 140.053725 213.346018 
L 141.608429 212.040194 
L 143.163133 210.745849 
L 144.717836 209.530558 
L 146.27254 208.45189 
L 147.827244 207.556362 
L 149.381948 206.878761 
L 150.936652 215.565689 
L 152.491355 215.565182 
L 154.046059 207.542398 
L 155.600763 207.846705 
L 157.155467 208.306025 
L 158.710171 208.893925 
L 160.264874 209.57969 
L 161.819578 210.329705 
L 163.374282 211.108867 
L 164.928986 211.881994 
L 166.48369 212.615175 
L 168.038394 213.277048 
L 169.593097 213.839968 
L 171.147801 214.281026 
L 172.702505 214.582898 
L 174.257209 214.734507 
L 175.811913 214.73146 
L 177.366616 214.576266 
L 178.92132 214.278299 
L 180.476024 213.853528 
L 182.030728 213.323981 
L 183.585432 212.716977 
L 185.140135 212.064118 
L 186.694839 211.400071 
L 188.249543 210.76115 
L 189.804247 210.183753 
L 191.358951 209.702664 
L 192.913655 209.349305 
L 194.468358 209.149952 
L 196.023062 209.124026 
L 197.577766 209.28249 
L 199.13247 209.626472 
L 200.687174 210.146183 
L 202.241877 210.820249 
L 203.796581 211.615561 
L 205.351285 212.487777 
L 206.905989 213.382604 
L 208.460693 214.238007 
L 210.015396 214.987517 
L 211.5701 215.564783 
L 213.124804 215.909572 
L 214.679508 215.975405 
L 216.234212 215.739025 
L 217.788916 215.211929 
L 219.343619 214.454193 
L 220.898323 213.590821 
L 222.453027 212.830899 
L 224.007731 212.489803 
L 225.562435 213.014757 
L 227.117138 215.014036 
L 228.671842 219.290124 
" clip-path="url(#p5dc1853395)" style="fill: none; stroke: #ff7f0e; stroke-width: 1.5; stroke-linecap: square"/>
   </g>
   <g id="line2d_19">
    <path d="M 74.756165 192.951524 
L 76.834884 203.745803 
L 78.913602 210.630824 
L 80.992321 214.15488 
L 83.07104 214.884879 
L 85.149759 213.381641 
L 87.228477 210.180844 
L 89.307196 205.778873 
L 91.385915 200.622887 
L 93.464634 195.104457 
L 95.543353 189.556224 
L 97.622071 184.251044 
L 99.70079 179.403156 
L 101.779509 175.170965 
L 103.858228 171.661061 
L 105.936947 168.93315 
L 108.015665 167.005598 
L 110.094384 165.861363 
L 112.173103 165.454065 
L 114.251822 165.714039 
L 116.33054 166.554204 
L 118.409259 167.875629 
L 120.487978 169.572685 
L 122.566697 171.537721 
L 124.645416 173.665194 
L 126.724134 175.855226 
L 128.802853 178.01656 
L 130.881572 180.068914 
L 132.960291 181.944746 
L 135.039009 183.590433 
L 137.117728 184.966916 
L 139.196447 186.049832 
L 141.275166 186.829185 
L 143.353885 187.308607 
L 145.432603 187.504259 
L 147.511322 187.443432 
L 149.590041 187.16291 
L 151.66876 186.707153 
L 153.747478 186.126346 
L 155.826197 185.474402 
L 157.904916 184.80694 
L 159.983635 184.179317 
L 162.062354 183.644745 
L 164.141072 183.252555 
L 166.219791 183.046624 
L 168.29851 183.064027 
L 170.377229 183.333918 
L 172.455948 183.876678 
L 174.534666 184.703341 
L 176.613385 215.561812 
L 178.692104 215.561861 
L 180.770823 188.83283 
L 182.849541 190.629189 
L 184.92826 192.627954 
L 187.006979 194.791661 
L 189.085698 197.077056 
L 191.164417 199.436421 
L 193.243135 201.819046 
L 195.321854 204.172816 
L 197.400573 206.445868 
L 199.479292 208.588269 
L 201.55801 210.553688 
L 203.636729 212.300988 
L 205.715448 213.795704 
L 207.794167 215.011365 
L 209.872886 215.930594 
L 211.951604 216.545955 
L 214.030323 216.860504 
L 216.109042 216.888001 
L 218.187761 216.652755 
L 220.26648 216.189082 
L 222.345198 215.540348 
L 224.423917 214.757616 
L 226.502636 213.897866 
L 228.581355 213.021851 
L 230.660073 212.191588 
L 232.738792 211.467554 
L 234.817511 210.905651 
L 236.89623 210.554041 
L 238.974949 210.449941 
L 241.053667 210.616546 
L 243.132386 211.060222 
L 245.211105 211.768171 
L 247.289824 212.706799 
L 249.368542 213.821033 
L 251.447261 215.034897 
L 253.52598 216.253668 
L 255.604699 217.367994 
L 257.683418 218.260392 
L 259.762136 218.814592 
L 261.840855 218.928241 
L 263.919574 218.529529 
L 265.998293 217.598372 
L 268.077011 216.192823 
L 270.15573 214.481452 
L 272.234449 212.782514 
L 274.313168 211.61076 
L 276.391887 211.732857 
L 278.470605 214.232418 
L 280.549324 220.585758 
" clip-path="url(#p5dc1853395)" style="fill: none; stroke: #2ca02c; stroke-width: 1.5; stroke-linecap: square"/>
   </g>
   <g id="line2d_20">
    <path d="M 74.756165 276.334125 
L 78.035504 196.121713 
L 81.314842 134.3689 
L 84.594181 89.314288 
L 87.87352 59.001906 
L 91.152859 41.3858 
L 94.432198 34.414125 
L 97.711537 36.09525 
L 100.990876 44.548184 
L 104.270214 58.039432 
L 107.549553 75.008219 
L 110.828892 94.08184 
L 114.108231 114.082735 
L 117.38757 134.028726 
L 120.666909 153.127726 
L 123.946247 170.768064 
L 127.225586 186.505471 
L 130.504925 200.047629 
L 133.784264 211.237085 
L 137.063603 220.033226 
L 140.342942 226.493907 
L 143.62228 230.757229 
L 146.901619 233.023903 
L 150.180958 233.540533 
L 153.460297 232.584098 
L 156.739636 230.447828 
L 160.018975 227.428648 
L 163.298314 223.816267 
L 166.577652 219.88397 
L 169.856991 215.881132 
L 173.13633 212.027408 
L 176.415669 208.50856 
L 179.695008 205.473823 
L 182.974347 203.034705 
L 186.253685 201.265093 
L 189.533024 200.20253 
L 192.812363 199.850504 
L 196.091702 200.181591 
L 199.371041 201.141293 
L 202.65038 202.652404 
L 205.929718 204.61974 
L 209.209057 206.935079 
L 212.488396 209.482162 
L 215.767735 212.141605 
L 219.047074 214.795596 
L 222.326413 217.332264 
L 225.605752 219.649604 
L 228.88509 221.658877 
L 232.164429 223.287408 
L 235.443768 215.561101 
L 238.723107 215.563109 
L 242.002446 219.795139 
L 245.281785 219.327442 
L 248.561123 218.702306 
L 251.840462 217.956616 
L 255.119801 217.130186 
L 258.39914 216.264149 
L 261.678479 215.399367 
L 264.957818 214.574907 
L 268.237157 213.826635 
L 271.516495 213.185941 
L 274.795834 212.678659 
L 278.075173 212.324189 
L 281.354512 212.13485 
L 284.633851 212.115494 
L 287.91319 212.263379 
L 291.192528 212.568309 
L 294.471867 213.013055 
L 297.751206 213.57403 
L 301.030545 214.222224 
L 304.309884 214.924362 
L 307.589223 215.644268 
L 310.868561 216.344403 
L 314.1479 216.987524 
L 317.427239 217.538429 
L 320.706578 217.965728 
L 323.985917 218.243578 
L 327.265256 218.353326 
L 330.544595 218.284966 
L 333.823933 218.038361 
L 337.103272 217.624127 
L 340.382611 217.064097 
L 343.66195 216.391277 
L 346.941289 215.649206 
L 350.220628 214.890602 
L 353.499966 214.175224 
L 356.779305 213.56683 
L 360.058644 213.129137 
L 363.337983 212.920684 
L 366.617322 212.988498 
L 369.896661 213.360473 
L 373.175999 214.036353 
L 376.455338 214.977252 
L 379.734677 216.093615 
L 383.014016 217.231536 
L 386.293355 218.157388 
L 389.572694 218.540682 
L 392.852033 217.935117 
L 396.131371 215.757782 
L 399.41071 211.266484 
" clip-path="url(#p5dc1853395)" style="fill: none; stroke: #d62728; stroke-width: 1.5; stroke-linecap: square"/>
   </g>
   <g id="line2d_21">
    <path d="M 74.756165 190.283692 
L 76.3815 228.689488 
L 78.006835 236.522724 
L 79.632171 224.845431 
L 81.257506 202.076477 
L 82.882841 174.452854 
L 84.508177 146.430583 
L 86.133512 121.031139 
L 87.758847 100.138815 
L 89.384183 84.754113 
L 91.009518 75.20786 
L 92.634854 71.340395 
L 94.260189 72.649855 
L 95.885524 78.413243 
L 97.51086 87.783689 
L 99.136195 99.867012 
L 100.76153 113.780408 
L 102.386866 128.695863 
L 104.012201 143.870616 
L 105.637536 158.666785 
L 107.262872 172.56205 
L 108.888207 185.153081 
L 110.513542 196.153221 
L 112.138878 205.385732 
L 113.764213 212.773785 
L 115.389548 218.328173 
L 117.014884 222.133643 
L 118.640219 224.334545 
L 120.265554 225.120441 
L 121.89089 224.712149 
L 123.516225 223.348642 
L 125.14156 221.275105 
L 126.766896 218.732368 
L 128.392231 215.947884 
L 130.017566 213.128331 
L 131.642902 210.453873 
L 133.268237 208.074053 
L 134.893572 206.105275 
L 136.518908 204.62976 
L 138.144243 203.695859 
L 139.769578 203.319578 
L 141.394914 203.487133 
L 143.020249 204.15838 
L 144.645584 205.270914 
L 146.27092 206.744659 
L 147.896255 208.486762 
L 149.52159 210.396608 
L 151.146926 212.370784 
L 152.772261 214.307837 
L 154.397596 215.562293 
L 156.022932 215.561681 
L 157.648267 219.608823 
L 159.273602 220.803579 
L 160.898938 221.580386 
L 162.524273 221.913231 
L 164.149609 221.797587 
L 165.774944 221.250203 
L 167.400279 220.308048 
L 169.025615 219.026458 
L 170.65095 217.476557 
L 172.276285 215.742031 
L 173.901621 213.915369 
L 175.526956 212.093705 
L 177.152291 210.37439 
L 178.777627 208.850459 
L 180.402962 207.606161 
L 182.028297 206.712719 
L 183.653633 206.224501 
L 185.278968 206.175763 
L 186.904303 206.578151 
L 188.529639 207.419098 
L 190.154974 208.661261 
L 191.780309 210.243118 
L 193.405645 212.080802 
L 195.03098 214.071222 
L 196.656315 216.096491 
L 198.281651 218.029596 
L 199.906986 219.741228 
L 201.532321 221.107592 
L 203.157657 222.018962 
L 204.782992 222.388648 
L 206.408327 222.161958 
L 208.033663 221.324638 
L 209.658998 219.910148 
L 211.284333 218.005017 
L 212.909669 215.75139 
L 214.535004 213.345717 
L 216.160339 211.032409 
L 217.785675 209.091072 
L 219.41101 207.815795 
L 221.036345 207.484742 
L 222.661681 208.318098 
L 224.287016 210.422214 
L 225.912351 213.71753 
L 227.537687 217.847641 
L 229.163022 222.066579 
L 230.788357 225.101117 
L 232.413693 224.984614 
L 234.039028 218.85859 
L 235.664364 202.737907 
" clip-path="url(#p5dc1853395)" style="fill: none; stroke: #9467bd; stroke-width: 1.5; stroke-linecap: square"/>
   </g>
   <g id="line2d_22">
    <path d="M 74.756165 192.82067 
L 76.342115 221.62508 
L 77.928066 233.957689 
L 79.514017 234.3623 
L 81.099968 226.546293 
L 82.685918 213.492649 
L 84.271869 197.560885 
L 85.85782 180.577712 
L 87.44377 163.918137 
L 89.029721 148.57775 
L 90.615672 135.236862 
L 92.201623 124.317142 
L 93.787573 116.031361 
L 95.373524 110.426829 
L 96.959475 107.423059 
L 98.545425 106.844188 
L 100.131376 108.446624 
L 101.717327 111.942397 
L 103.303278 117.018625 
L 104.889228 123.353501 
L 106.475179 130.629191 
L 108.06113 138.541974 
L 109.64708 146.809965 
L 111.233031 155.178723 
L 112.818982 163.425016 
L 114.404932 171.359019 
L 115.990883 178.825167 
L 117.576834 185.701894 
L 119.162785 191.900454 
L 120.748735 197.363005 
L 122.334686 202.060126 
L 123.920637 205.987909 
L 125.506587 209.164755 
L 127.092538 211.628013 
L 128.678489 213.430529 
L 130.26444 214.637231 
L 131.85039 215.321807 
L 133.436341 215.563537 
L 135.022292 215.444352 
L 136.608242 215.046148 
L 138.194193 214.448387 
L 139.780144 213.726025 
L 141.366094 212.947764 
L 142.952045 212.174648 
L 144.537996 211.459003 
L 146.123947 210.843706 
L 147.709897 210.361789 
L 149.295848 210.036341 
L 150.881799 209.880705 
L 152.467749 215.56545 
L 154.0537 215.564803 
L 155.639651 211.946333 
L 157.225602 212.487072 
L 158.811552 213.062397 
L 160.397503 213.645806 
L 161.983454 214.211571 
L 163.569404 214.735852 
L 165.155355 215.197665 
L 166.741306 215.579681 
L 168.327257 215.868832 
L 169.913207 216.056725 
L 171.499158 216.139849 
L 173.085109 216.11958 
L 174.671059 216.001984 
L 176.25701 215.797437 
L 177.842961 215.520078 
L 179.428911 215.187107 
L 181.014862 214.817969 
L 182.600813 214.433441 
L 184.186764 214.054661 
L 185.772714 213.702138 
L 187.358665 213.394775 
L 188.944616 213.148947 
L 190.530566 212.977672 
L 192.116517 212.889918 
L 193.702468 212.890071 
L 195.288419 212.977609 
L 196.874369 213.147005 
L 198.46032 213.387875 
L 200.046271 213.685399 
L 201.632221 214.02101 
L 203.218172 214.373346 
L 204.804123 214.71946 
L 206.390073 215.036242 
L 207.976024 215.302008 
L 209.561975 215.498206 
L 211.147926 215.611129 
L 212.733876 215.633543 
L 214.319827 215.566102 
L 215.905778 215.41837 
L 217.491728 215.209281 
L 219.077679 214.966812 
L 220.66363 214.726604 
L 222.249581 214.529253 
L 223.835531 214.415935 
L 225.421482 214.421978 
L 227.007433 214.567987 
L 228.593383 214.848028 
L 230.179334 215.214361 
L 231.765285 215.558154 
" clip-path="url(#p5dc1853395)" style="fill: none; stroke: #8c564b; stroke-width: 1.5; stroke-linecap: square"/>
   </g>
   <g id="patch_3">
    <path d="M 58.523438 288.430125 
L 58.523438 22.318125 
" style="fill: none; stroke: #000000; stroke-width: 0.8; stroke-linejoin: miter; stroke-linecap: square"/>
   </g>
   <g id="patch_4">
    <path d="M 415.643438 288.430125 
L 415.643438 22.318125 
" style="fill: none; stroke: #000000; stroke-width: 0.8; stroke-linejoin: miter; stroke-linecap: square"/>
   </g>
   <g id="patch_5">
    <path d="M 58.523438 288.430125 
L 415.643438 288.430125 
" style="fill: none; stroke: #000000; stroke-width: 0.8; stroke-linejoin: miter; stroke-linecap: square"/>
   </g>
   <g id="patch_6">
    <path d="M 58.523438 22.318125 
L 415.643438 22.318125 
" style="fill: none; stroke: #000000; stroke-width: 0.8; stroke-linejoin: miter; stroke-linecap: square"/>
   </g>
   <g id="text_19">
    <!-- RD - xtract_prob_Superior_Thalamic_Radiation_L -->
    <g transform="translate(91.615313 16.318125) scale(0.12 -0.12)">
     <defs>
      <path id="DejaVuSans-52" d="M 2841 2188 
Q 3044 2119 3236 1894 
Q 3428 1669 3622 1275 
L 4263 0 
L 3584 0 
L 2988 1197 
Q 2756 1666 2539 1819 
Q 2322 1972 1947 1972 
L 1259 1972 
L 1259 0 
L 628 0 
L 628 4666 
L 2053 4666 
Q 2853 4666 3247 4331 
Q 3641 3997 3641 3322 
Q 3641 2881 3436 2590 
Q 3231 2300 2841 2188 
z
M 1259 4147 
L 1259 2491 
L 2053 2491 
Q 2509 2491 2742 2702 
Q 2975 2913 2975 3322 
Q 2975 3731 2742 3939 
Q 2509 4147 2053 4147 
L 1259 4147 
z
" transform="scale(0.015625)"/>
      <path id="DejaVuSans-44" d="M 1259 4147 
L 1259 519 
L 2022 519 
Q 2988 519 3436 956 
Q 3884 1394 3884 2338 
Q 3884 3275 3436 3711 
Q 2988 4147 2022 4147 
L 1259 4147 
z
M 628 4666 
L 1925 4666 
Q 3281 4666 3915 4102 
Q 4550 3538 4550 2338 
Q 4550 1131 3912 565 
Q 3275 0 1925 0 
L 628 0 
L 628 4666 
z
" transform="scale(0.015625)"/>
      <path id="DejaVuSans-2d" d="M 313 2009 
L 1997 2009 
L 1997 1497 
L 313 1497 
L 313 2009 
z
" transform="scale(0.015625)"/>
      <path id="DejaVuSans-74" d="M 1172 4494 
L 1172 3500 
L 2356 3500 
L 2356 3053 
L 1172 3053 
L 1172 1153 
Q 1172 725 1289 603 
Q 1406 481 1766 481 
L 2356 481 
L 2356 0 
L 1766 0 
Q 1100 0 847 248 
Q 594 497 594 1153 
L 594 3053 
L 172 3053 
L 172 3500 
L 594 3500 
L 594 4494 
L 1172 4494 
z
" transform="scale(0.015625)"/>
      <path id="DejaVuSans-5f" d="M 3263 -1063 
L 3263 -1509 
L -63 -1509 
L -63 -1063 
L 3263 -1063 
z
" transform="scale(0.015625)"/>
      <path id="DejaVuSans-70" d="M 1159 525 
L 1159 -1331 
L 581 -1331 
L 581 3500 
L 1159 3500 
L 1159 2969 
Q 1341 3281 1617 3432 
Q 1894 3584 2278 3584 
Q 2916 3584 3314 3078 
Q 3713 2572 3713 1747 
Q 3713 922 3314 415 
Q 2916 -91 2278 -91 
Q 1894 -91 1617 61 
Q 1341 213 1159 525 
z
M 3116 1747 
Q 3116 2381 2855 2742 
Q 2594 3103 2138 3103 
Q 1681 3103 1420 2742 
Q 1159 2381 1159 1747 
Q 1159 1113 1420 752 
Q 1681 391 2138 391 
Q 2594 391 2855 752 
Q 3116 1113 3116 1747 
z
" transform="scale(0.015625)"/>
      <path id="DejaVuSans-6f" d="M 1959 3097 
Q 1497 3097 1228 2736 
Q 959 2375 959 1747 
Q 959 1119 1226 758 
Q 1494 397 1959 397 
Q 2419 397 2687 759 
Q 2956 1122 2956 1747 
Q 2956 2369 2687 2733 
Q 2419 3097 1959 3097 
z
M 1959 3584 
Q 2709 3584 3137 3096 
Q 3566 2609 3566 1747 
Q 3566 888 3137 398 
Q 2709 -91 1959 -91 
Q 1206 -91 779 398 
Q 353 888 353 1747 
Q 353 2609 779 3096 
Q 1206 3584 1959 3584 
z
" transform="scale(0.015625)"/>
      <path id="DejaVuSans-62" d="M 3116 1747 
Q 3116 2381 2855 2742 
Q 2594 3103 2138 3103 
Q 1681 3103 1420 2742 
Q 1159 2381 1159 1747 
Q 1159 1113 1420 752 
Q 1681 391 2138 391 
Q 2594 391 2855 752 
Q 3116 1113 3116 1747 
z
M 1159 2969 
Q 1341 3281 1617 3432 
Q 1894 3584 2278 3584 
Q 2916 3584 3314 3078 
Q 3713 2572 3713 1747 
Q 3713 922 3314 415 
Q 2916 -91 2278 -91 
Q 1894 -91 1617 61 
Q 1341 213 1159 525 
L 1159 0 
L 581 0 
L 581 4863 
L 1159 4863 
L 1159 2969 
z
" transform="scale(0.015625)"/>
      <path id="DejaVuSans-53" d="M 3425 4513 
L 3425 3897 
Q 3066 4069 2747 4153 
Q 2428 4238 2131 4238 
Q 1616 4238 1336 4038 
Q 1056 3838 1056 3469 
Q 1056 3159 1242 3001 
Q 1428 2844 1947 2747 
L 2328 2669 
Q 3034 2534 3370 2195 
Q 3706 1856 3706 1288 
Q 3706 609 3251 259 
Q 2797 -91 1919 -91 
Q 1588 -91 1214 -16 
Q 841 59 441 206 
L 441 856 
Q 825 641 1194 531 
Q 1563 422 1919 422 
Q 2459 422 2753 634 
Q 3047 847 3047 1241 
Q 3047 1584 2836 1778 
Q 2625 1972 2144 2069 
L 1759 2144 
Q 1053 2284 737 2584 
Q 422 2884 422 3419 
Q 422 4038 858 4394 
Q 1294 4750 2059 4750 
Q 2388 4750 2728 4690 
Q 3069 4631 3425 4513 
z
" transform="scale(0.015625)"/>
      <path id="DejaVuSans-54" d="M -19 4666 
L 3928 4666 
L 3928 4134 
L 2272 4134 
L 2272 0 
L 1638 0 
L 1638 4134 
L -19 4134 
L -19 4666 
z
" transform="scale(0.015625)"/>
      <path id="DejaVuSans-68" d="M 3513 2113 
L 3513 0 
L 2938 0 
L 2938 2094 
Q 2938 2591 2744 2837 
Q 2550 3084 2163 3084 
Q 1697 3084 1428 2787 
Q 1159 2491 1159 1978 
L 1159 0 
L 581 0 
L 581 4863 
L 1159 4863 
L 1159 2956 
Q 1366 3272 1645 3428 
Q 1925 3584 2291 3584 
Q 2894 3584 3203 3211 
Q 3513 2838 3513 2113 
z
" transform="scale(0.015625)"/>
      <path id="DejaVuSans-6d" d="M 3328 2828 
Q 3544 3216 3844 3400 
Q 4144 3584 4550 3584 
Q 5097 3584 5394 3201 
Q 5691 2819 5691 2113 
L 5691 0 
L 5113 0 
L 5113 2094 
Q 5113 2597 4934 2840 
Q 4756 3084 4391 3084 
Q 3944 3084 3684 2787 
Q 3425 2491 3425 1978 
L 3425 0 
L 2847 0 
L 2847 2094 
Q 2847 2600 2669 2842 
Q 2491 3084 2119 3084 
Q 1678 3084 1418 2786 
Q 1159 2488 1159 1978 
L 1159 0 
L 581 0 
L 581 3500 
L 1159 3500 
L 1159 2956 
Q 1356 3278 1631 3431 
Q 1906 3584 2284 3584 
Q 2666 3584 2933 3390 
Q 3200 3197 3328 2828 
z
" transform="scale(0.015625)"/>
      <path id="DejaVuSans-64" d="M 2906 2969 
L 2906 4863 
L 3481 4863 
L 3481 0 
L 2906 0 
L 2906 525 
Q 2725 213 2448 61 
Q 2172 -91 1784 -91 
Q 1150 -91 751 415 
Q 353 922 353 1747 
Q 353 2572 751 3078 
Q 1150 3584 1784 3584 
Q 2172 3584 2448 3432 
Q 2725 3281 2906 2969 
z
M 947 1747 
Q 947 1113 1208 752 
Q 1469 391 1925 391 
Q 2381 391 2643 752 
Q 2906 1113 2906 1747 
Q 2906 2381 2643 2742 
Q 2381 3103 1925 3103 
Q 1469 3103 1208 2742 
Q 947 2381 947 1747 
z
" transform="scale(0.015625)"/>
      <path id="DejaVuSans-4c" d="M 628 4666 
L 1259 4666 
L 1259 531 
L 3531 531 
L 3531 0 
L 628 0 
L 628 4666 
z
" transform="scale(0.015625)"/>
     </defs>
     <use xlink:href="#DejaVuSans-52"/>
     <use xlink:href="#DejaVuSans-44" x="69.482422"/>
     <use xlink:href="#DejaVuSans-20" x="146.484375"/>
     <use xlink:href="#DejaVuSans-2d" x="178.271484"/>
     <use xlink:href="#DejaVuSans-20" x="214.355469"/>
     <use xlink:href="#DejaVuSans-78" x="246.142578"/>
     <use xlink:href="#DejaVuSans-74" x="305.322266"/>
     <use xlink:href="#DejaVuSans-72" x="344.53125"/>
     <use xlink:href="#DejaVuSans-61" x="385.644531"/>
     <use xlink:href="#DejaVuSans-63" x="446.923828"/>
     <use xlink:href="#DejaVuSans-74" x="501.904297"/>
     <use xlink:href="#DejaVuSans-5f" x="541.113281"/>
     <use xlink:href="#DejaVuSans-70" x="591.113281"/>
     <use xlink:href="#DejaVuSans-72" x="654.589844"/>
     <use xlink:href="#DejaVuSans-6f" x="693.453125"/>
     <use xlink:href="#DejaVuSans-62" x="754.634766"/>
     <use xlink:href="#DejaVuSans-5f" x="818.111328"/>
     <use xlink:href="#DejaVuSans-53" x="868.111328"/>
     <use xlink:href="#DejaVuSans-75" x="931.587891"/>
     <use xlink:href="#DejaVuSans-70" x="994.966797"/>
     <use xlink:href="#DejaVuSans-65" x="1058.443359"/>
     <use xlink:href="#DejaVuSans-72" x="1119.966797"/>
     <use xlink:href="#DejaVuSans-69" x="1161.080078"/>
     <use xlink:href="#DejaVuSans-6f" x="1188.863281"/>
     <use xlink:href="#DejaVuSans-72" x="1250.044922"/>
     <use xlink:href="#DejaVuSans-5f" x="1291.158203"/>
     <use xlink:href="#DejaVuSans-54" x="1341.158203"/>
     <use xlink:href="#DejaVuSans-68" x="1402.242188"/>
     <use xlink:href="#DejaVuSans-61" x="1465.621094"/>
     <use xlink:href="#DejaVuSans-6c" x="1526.900391"/>
     <use xlink:href="#DejaVuSans-61" x="1554.683594"/>
     <use xlink:href="#DejaVuSans-6d" x="1615.962891"/>
     <use xlink:href="#DejaVuSans-69" x="1713.375"/>
     <use xlink:href="#DejaVuSans-63" x="1741.158203"/>
     <use xlink:href="#DejaVuSans-5f" x="1796.138672"/>
     <use xlink:href="#DejaVuSans-52" x="1846.138672"/>
     <use xlink:href="#DejaVuSans-61" x="1913.371094"/>
     <use xlink:href="#DejaVuSans-64" x="1974.650391"/>
     <use xlink:href="#DejaVuSans-69" x="2038.126953"/>
     <use xlink:href="#DejaVuSans-61" x="2065.910156"/>
     <use xlink:href="#DejaVuSans-74" x="2127.189453"/>
     <use xlink:href="#DejaVuSans-69" x="2166.398438"/>
     <use xlink:href="#DejaVuSans-6f" x="2194.181641"/>
     <use xlink:href="#DejaVuSans-6e" x="2255.363281"/>
     <use xlink:href="#DejaVuSans-5f" x="2318.742188"/>
     <use xlink:href="#DejaVuSans-4c" x="2368.742188"/>
    </g>
   </g>
   <g id="legend_1">
    <g id="patch_7">
     <path d="M 458.355438 146.666825 
L 556.211688 146.666825 
Q 558.211688 146.666825 558.211688 144.666825 
L 558.211688 55.929325 
Q 558.211688 53.929325 556.211688 53.929325 
L 458.355438 53.929325 
Q 456.355438 53.929325 456.355438 55.929325 
L 456.355438 144.666825 
Q 456.355438 146.666825 458.355438 146.666825 
z
" style="fill: #ffffff; opacity: 0.8; stroke: #cccccc; stroke-linejoin: miter"/>
    </g>
    <g id="line2d_23">
     <path d="M 460.355438 62.027762 
L 470.355438 62.027762 
L 480.355438 62.027762 
" style="fill: none; stroke: #1f77b4; stroke-width: 1.5; stroke-linecap: square"/>
    </g>
    <g id="text_20">
     <!-- 20_06_02_E3 -->
     <g transform="translate(488.355438 65.527762) scale(0.1 -0.1)">
      <defs>
       <path id="DejaVuSans-45" d="M 628 4666 
L 3578 4666 
L 3578 4134 
L 1259 4134 
L 1259 2753 
L 3481 2753 
L 3481 2222 
L 1259 2222 
L 1259 531 
L 3634 531 
L 3634 0 
L 628 0 
L 628 4666 
z
" transform="scale(0.015625)"/>
      </defs>
      <use xlink:href="#DejaVuSans-32"/>
      <use xlink:href="#DejaVuSans-30" x="63.623047"/>
      <use xlink:href="#DejaVuSans-5f" x="127.246094"/>
      <use xlink:href="#DejaVuSans-30" x="177.246094"/>
      <use xlink:href="#DejaVuSans-36" x="240.869141"/>
      <use xlink:href="#DejaVuSans-5f" x="304.492188"/>
      <use xlink:href="#DejaVuSans-30" x="354.492188"/>
      <use xlink:href="#DejaVuSans-32" x="418.115234"/>
      <use xlink:href="#DejaVuSans-5f" x="481.738281"/>
      <use xlink:href="#DejaVuSans-45" x="531.738281"/>
      <use xlink:href="#DejaVuSans-33" x="594.921875"/>
     </g>
    </g>
    <g id="line2d_24">
     <path d="M 460.355438 76.984013 
L 470.355438 76.984013 
L 480.355438 76.984013 
" style="fill: none; stroke: #ff7f0e; stroke-width: 1.5; stroke-linecap: square"/>
    </g>
    <g id="text_21">
     <!-- 20_05_01_E3 -->
     <g transform="translate(488.355438 80.484013) scale(0.1 -0.1)">
      <use xlink:href="#DejaVuSans-32"/>
      <use xlink:href="#DejaVuSans-30" x="63.623047"/>
      <use xlink:href="#DejaVuSans-5f" x="127.246094"/>
      <use xlink:href="#DejaVuSans-30" x="177.246094"/>
      <use xlink:href="#DejaVuSans-35" x="240.869141"/>
      <use xlink:href="#DejaVuSans-5f" x="304.492188"/>
      <use xlink:href="#DejaVuSans-30" x="354.492188"/>
      <use xlink:href="#DejaVuSans-31" x="418.115234"/>
      <use xlink:href="#DejaVuSans-5f" x="481.738281"/>
      <use xlink:href="#DejaVuSans-45" x="531.738281"/>
      <use xlink:href="#DejaVuSans-33" x="594.921875"/>
     </g>
    </g>
    <g id="line2d_25">
     <path d="M 460.355438 91.940262 
L 470.355438 91.940262 
L 480.355438 91.940262 
" style="fill: none; stroke: #2ca02c; stroke-width: 1.5; stroke-linecap: square"/>
    </g>
    <g id="text_22">
     <!-- 20_02_02_E3 -->
     <g transform="translate(488.355438 95.440262) scale(0.1 -0.1)">
      <use xlink:href="#DejaVuSans-32"/>
      <use xlink:href="#DejaVuSans-30" x="63.623047"/>
      <use xlink:href="#DejaVuSans-5f" x="127.246094"/>
      <use xlink:href="#DejaVuSans-30" x="177.246094"/>
      <use xlink:href="#DejaVuSans-32" x="240.869141"/>
      <use xlink:href="#DejaVuSans-5f" x="304.492188"/>
      <use xlink:href="#DejaVuSans-30" x="354.492188"/>
      <use xlink:href="#DejaVuSans-32" x="418.115234"/>
      <use xlink:href="#DejaVuSans-5f" x="481.738281"/>
      <use xlink:href="#DejaVuSans-45" x="531.738281"/>
      <use xlink:href="#DejaVuSans-33" x="594.921875"/>
     </g>
    </g>
    <g id="line2d_26">
     <path d="M 460.355438 106.896513 
L 470.355438 106.896513 
L 480.355438 106.896513 
" style="fill: none; stroke: #d62728; stroke-width: 1.5; stroke-linecap: square"/>
    </g>
    <g id="text_23">
     <!-- 20_10_02_E3 -->
     <g transform="translate(488.355438 110.396513) scale(0.1 -0.1)">
      <use xlink:href="#DejaVuSans-32"/>
      <use xlink:href="#DejaVuSans-30" x="63.623047"/>
      <use xlink:href="#DejaVuSans-5f" x="127.246094"/>
      <use xlink:href="#DejaVuSans-31" x="177.246094"/>
      <use xlink:href="#DejaVuSans-30" x="240.869141"/>
      <use xlink:href="#DejaVuSans-5f" x="304.492188"/>
      <use xlink:href="#DejaVuSans-30" x="354.492188"/>
      <use xlink:href="#DejaVuSans-32" x="418.115234"/>
      <use xlink:href="#DejaVuSans-5f" x="481.738281"/>
      <use xlink:href="#DejaVuSans-45" x="531.738281"/>
      <use xlink:href="#DejaVuSans-33" x="594.921875"/>
     </g>
    </g>
    <g id="line2d_27">
     <path d="M 460.355438 121.852762 
L 470.355438 121.852762 
L 480.355438 121.852762 
" style="fill: none; stroke: #9467bd; stroke-width: 1.5; stroke-linecap: square"/>
    </g>
    <g id="text_24">
     <!-- 20_08_02_E3 -->
     <g transform="translate(488.355438 125.352762) scale(0.1 -0.1)">
      <use xlink:href="#DejaVuSans-32"/>
      <use xlink:href="#DejaVuSans-30" x="63.623047"/>
      <use xlink:href="#DejaVuSans-5f" x="127.246094"/>
      <use xlink:href="#DejaVuSans-30" x="177.246094"/>
      <use xlink:href="#DejaVuSans-38" x="240.869141"/>
      <use xlink:href="#DejaVuSans-5f" x="304.492188"/>
      <use xlink:href="#DejaVuSans-30" x="354.492188"/>
      <use xlink:href="#DejaVuSans-32" x="418.115234"/>
      <use xlink:href="#DejaVuSans-5f" x="481.738281"/>
      <use xlink:href="#DejaVuSans-45" x="531.738281"/>
      <use xlink:href="#DejaVuSans-33" x="594.921875"/>
     </g>
    </g>
    <g id="line2d_28">
     <path d="M 460.355438 136.809012 
L 470.355438 136.809012 
L 480.355438 136.809012 
" style="fill: none; stroke: #8c564b; stroke-width: 1.5; stroke-linecap: square"/>
    </g>
    <g id="text_25">
     <!-- 20_11_02_E3 -->
     <g transform="translate(488.355438 140.309012) scale(0.1 -0.1)">
      <use xlink:href="#DejaVuSans-32"/>
      <use xlink:href="#DejaVuSans-30" x="63.623047"/>
      <use xlink:href="#DejaVuSans-5f" x="127.246094"/>
      <use xlink:href="#DejaVuSans-31" x="177.246094"/>
      <use xlink:href="#DejaVuSans-31" x="240.869141"/>
      <use xlink:href="#DejaVuSans-5f" x="304.492188"/>
      <use xlink:href="#DejaVuSans-30" x="354.492188"/>
      <use xlink:href="#DejaVuSans-32" x="418.115234"/>
      <use xlink:href="#DejaVuSans-5f" x="481.738281"/>
      <use xlink:href="#DejaVuSans-45" x="531.738281"/>
      <use xlink:href="#DejaVuSans-33" x="594.921875"/>
     </g>
    </g>
   </g>
  </g>
 </g>
 <defs>
  <clipPath id="p5dc1853395">
   <rect x="58.523438" y="22.318125" width="357.12" height="266.112"/>
  </clipPath>
 </defs>
</svg>
