<?xml version="1.0" encoding="utf-8" standalone="no"?>
<!DOCTYPE svg PUBLIC "-//W3C//DTD SVG 1.1//EN"
  "http://www.w3.org/Graphics/SVG/1.1/DTD/svg11.dtd">
<svg xmlns:xlink="http://www.w3.org/1999/xlink" width="571.774188pt" height="325.986375pt" viewBox="0 0 571.774188 325.986375" xmlns="http://www.w3.org/2000/svg" version="1.1">
 <metadata>
  <rdf:RDF xmlns:dc="http://purl.org/dc/elements/1.1/" xmlns:cc="http://creativecommons.org/ns#" xmlns:rdf="http://www.w3.org/1999/02/22-rdf-syntax-ns#">
   <cc:Work>
    <dc:type rdf:resource="http://purl.org/dc/dcmitype/StillImage"/>
    <dc:date>2023-02-07T23:00:04.968533</dc:date>
    <dc:format>image/svg+xml</dc:format>
    <dc:creator>
     <cc:Agent>
      <dc:title>Matplotlib v3.6.2, https://matplotlib.org/</dc:title>
     </cc:Agent>
    </dc:creator>
   </cc:Work>
  </rdf:RDF>
 </metadata>
 <defs>
  <style type="text/css">*{stroke-linejoin: round; stroke-linecap: butt}</style>
 </defs>
 <g id="figure_1">
  <g id="patch_1">
   <path d="M 0 325.986375 
L 571.774188 325.986375 
L 571.774188 0 
L 0 0 
z
" style="fill: #ffffff"/>
  </g>
  <g id="axes_1">
   <g id="patch_2">
    <path d="M 64.885937 288.430125 
L 422.005938 288.430125 
L 422.005938 22.318125 
L 64.885937 22.318125 
z
" style="fill: #ffffff"/>
   </g>
   <g id="PolyCollection_1">
    <path d="M 81.118665 225.186859 
L 81.118665 206.910124 
L 83.659118 206.910124 
L 86.199571 206.910124 
L 88.740025 206.910124 
L 91.280478 206.910124 
L 93.820932 206.910124 
L 96.361385 206.910124 
L 98.901838 206.910124 
L 101.442292 206.910124 
L 103.982745 206.910124 
L 106.523198 206.910124 
L 109.063652 206.910124 
L 111.604105 206.910124 
L 114.144558 206.910124 
L 116.685012 206.910124 
L 119.225465 206.910124 
L 121.765918 206.910124 
L 124.306372 206.910124 
L 126.846825 206.910124 
L 129.387278 206.910124 
L 131.927732 206.910124 
L 134.468185 206.910124 
L 137.008639 206.910124 
L 139.549092 206.910124 
L 142.089545 206.910124 
L 144.629999 206.910124 
L 147.170452 206.910124 
L 149.710905 206.910124 
L 152.251359 206.910124 
L 154.791812 206.910124 
L 157.332265 206.910124 
L 159.872719 206.910124 
L 162.413172 206.910124 
L 164.953625 206.910124 
L 167.494079 206.910124 
L 170.034532 206.910124 
L 172.574986 206.910124 
L 175.115439 206.910124 
L 177.655892 206.910124 
L 180.196346 206.910124 
L 182.736799 206.910124 
L 185.277252 206.910124 
L 187.817706 206.910124 
L 190.358159 206.910124 
L 192.898612 206.910124 
L 195.439066 206.910124 
L 197.979519 206.910124 
L 200.519972 206.910124 
L 203.060426 206.910124 
L 205.600879 206.910124 
L 208.141332 206.910124 
L 210.681786 206.910124 
L 213.222239 206.910124 
L 215.762693 206.910124 
L 218.303146 206.910124 
L 220.843599 206.910124 
L 223.384053 206.910124 
L 225.924506 206.910124 
L 228.464959 206.910124 
L 231.005413 206.910124 
L 233.545866 206.910124 
L 236.086319 206.910124 
L 238.626773 206.910124 
L 241.167226 206.910124 
L 243.707679 206.910124 
L 246.248133 206.910124 
L 248.788586 206.910124 
L 251.329039 206.910124 
L 253.869493 206.910124 
L 256.409946 206.910124 
L 258.9504 206.910124 
L 261.490853 206.910124 
L 264.031306 206.910124 
L 266.57176 206.910124 
L 269.112213 206.910124 
L 271.652666 206.910124 
L 274.19312 206.910124 
L 276.733573 206.910124 
L 279.274026 206.910124 
L 281.81448 206.910124 
L 284.354933 206.910124 
L 286.895386 206.910124 
L 289.43584 206.910124 
L 291.976293 206.910124 
L 294.516747 206.910124 
L 297.0572 206.910124 
L 299.597653 206.910124 
L 302.138107 206.910124 
L 304.67856 206.910124 
L 307.219013 206.910124 
L 309.759467 206.910124 
L 312.29992 206.910124 
L 314.840373 206.910124 
L 317.380827 206.910124 
L 319.92128 206.910124 
L 322.461733 206.910124 
L 325.002187 206.910124 
L 327.54264 206.910124 
L 330.083093 206.910124 
L 332.623547 206.910124 
L 332.623547 191.951553 
L 332.623547 191.951553 
L 330.083093 209.885797 
L 327.54264 217.171387 
L 325.002187 217.881635 
L 322.461733 214.98526 
L 319.92128 210.567179 
L 317.380827 206.016495 
L 314.840373 202.18524 
L 312.29992 199.521177 
L 309.759467 198.177684 
L 307.219013 198.103529 
L 304.67856 199.115082 
L 302.138107 200.953307 
L 299.597653 203.32767 
L 297.0572 205.948892 
L 294.516747 208.552287 
L 291.976293 210.913275 
L 289.43584 212.856458 
L 286.895386 214.25952 
L 284.354933 215.053055 
L 281.81448 215.217303 
L 279.274026 214.776631 
L 276.733573 213.79249 
L 274.19312 212.355477 
L 271.652666 210.577021 
L 269.112213 208.581121 
L 266.57176 206.496489 
L 264.031306 204.44937 
L 261.490853 202.557242 
L 258.9504 200.923538 
L 256.409946 199.633484 
L 253.869493 198.751087 
L 251.329039 198.317279 
L 248.788586 198.349165 
L 246.248133 198.840329 
L 243.707679 199.762089 
L 241.167226 201.065585 
L 238.626773 202.684591 
L 236.086319 204.538889 
L 233.545866 206.53807 
L 231.005413 208.585612 
L 228.464959 210.583082 
L 225.924506 212.434322 
L 223.384053 214.049468 
L 220.843599 215.348692 
L 218.303146 216.265529 
L 215.762693 216.749701 
L 213.222239 216.769334 
L 210.681786 216.312519 
L 208.141332 206.906841 
L 205.600879 206.906233 
L 203.060426 214.235483 
L 200.519972 211.809543 
L 197.979519 209.059696 
L 195.439066 206.106242 
L 192.898612 203.083415 
L 190.358159 200.13426 
L 187.817706 197.404933 
L 185.277252 195.038574 
L 182.736799 193.168939 
L 180.196346 191.913984 
L 177.655892 191.369613 
L 175.115439 191.60381 
L 172.574986 192.651382 
L 170.034532 194.50953 
L 167.494079 197.13449 
L 164.953625 200.439438 
L 162.413172 204.293868 
L 159.872719 208.52462 
L 157.332265 212.918701 
L 154.791812 217.228019 
L 152.251359 221.176095 
L 149.710905 224.466777 
L 147.170452 226.794912 
L 144.629999 227.858878 
L 142.089545 227.374771 
L 139.549092 225.092002 
L 137.008639 220.809912 
L 134.468185 214.394937 
L 131.927732 205.79773 
L 129.387278 195.069509 
L 126.846825 182.376766 
L 124.306372 168.013312 
L 121.765918 152.408475 
L 119.225465 136.130078 
L 116.685012 119.880637 
L 114.144558 104.485004 
L 111.604105 90.867478 
L 109.063652 80.01614 
L 106.523198 72.931939 
L 103.982745 70.559789 
L 101.442292 73.698634 
L 98.901838 82.887164 
L 96.361385 98.261522 
L 93.820932 119.381026 
L 91.280478 145.017582 
L 88.740025 172.904066 
L 86.199571 199.436595 
L 83.659118 219.325184 
L 81.118665 225.186859 
z
" clip-path="url(#pe2121c7819)" style="fill: #1f77b4; fill-opacity: 0.166667"/>
   </g>
   <g id="PolyCollection_2">
    <path d="M 81.118665 205.467479 
L 81.118665 206.910124 
L 82.188067 206.910124 
L 83.257469 206.910124 
L 84.326871 206.910124 
L 85.396273 206.910124 
L 86.465675 206.910124 
L 87.535077 206.910124 
L 88.604479 206.910124 
L 89.673881 206.910124 
L 90.743283 206.910124 
L 91.812685 206.910124 
L 92.882087 206.910124 
L 93.951489 206.910124 
L 95.020891 206.910124 
L 96.090293 206.910124 
L 97.159695 206.910124 
L 98.229097 206.910124 
L 99.298499 206.910124 
L 100.367901 206.910124 
L 101.437303 206.910124 
L 102.506705 206.910124 
L 103.576107 206.910124 
L 104.645509 206.910124 
L 105.714911 206.910124 
L 106.784313 206.910124 
L 107.853715 206.910124 
L 108.923117 206.910124 
L 109.992519 206.910124 
L 111.061921 206.910124 
L 112.131323 206.910124 
L 113.200725 206.910124 
L 114.270127 206.910124 
L 115.339529 206.910124 
L 116.408931 206.910124 
L 117.478333 206.910124 
L 118.547735 206.910124 
L 119.617137 206.910124 
L 120.686539 206.910124 
L 121.755941 206.910124 
L 122.825343 206.910124 
L 123.894745 206.910124 
L 124.964147 206.910124 
L 126.033549 206.910124 
L 127.102951 206.910124 
L 128.172353 206.910124 
L 129.241755 206.910124 
L 130.311157 206.910124 
L 131.380559 206.910124 
L 132.449961 206.910124 
L 133.519363 206.910124 
L 134.588765 206.910124 
L 135.658167 206.910124 
L 136.727569 206.910124 
L 137.796971 206.910124 
L 138.866373 206.910124 
L 139.935775 206.910124 
L 141.005176 206.910124 
L 142.074578 206.910124 
L 143.14398 206.910124 
L 144.213382 206.910124 
L 145.282784 206.910124 
L 146.352186 206.910124 
L 147.421588 206.910124 
L 148.49099 206.910124 
L 149.560392 206.910124 
L 150.629794 206.910124 
L 151.699196 206.910124 
L 152.768598 206.910124 
L 153.838 206.910124 
L 154.907402 206.910124 
L 155.976804 206.910124 
L 157.046206 206.910124 
L 158.115608 206.910124 
L 159.18501 206.910124 
L 160.254412 206.910124 
L 161.323814 206.910124 
L 162.393216 206.910124 
L 163.462618 206.910124 
L 164.53202 206.910124 
L 165.601422 206.910124 
L 166.670824 206.910124 
L 167.740226 206.910124 
L 168.809628 206.910124 
L 169.87903 206.910124 
L 170.948432 206.910124 
L 172.017834 206.910124 
L 173.087236 206.910124 
L 174.156638 206.910124 
L 175.22604 206.910124 
L 176.295442 206.910124 
L 177.364844 206.910124 
L 178.434246 206.910124 
L 179.503648 206.910124 
L 180.57305 206.910124 
L 181.642452 206.910124 
L 182.711854 206.910124 
L 183.781256 206.910124 
L 184.850658 206.910124 
L 185.92006 206.910124 
L 186.989462 206.910124 
L 186.989462 219.686269 
L 186.989462 219.686269 
L 185.92006 203.860334 
L 184.850658 197.634116 
L 183.781256 197.270657 
L 182.711854 200.061379 
L 181.642452 204.118046 
L 180.57305 208.195929 
L 179.503648 211.54475 
L 178.434246 213.784268 
L 177.364844 214.80158 
L 176.295442 214.667493 
L 175.22604 213.569498 
L 174.156638 211.759121 
L 173.087236 209.51162 
L 172.017834 207.096175 
L 170.948432 204.754913 
L 169.87903 202.689262 
L 168.809628 201.052305 
L 167.740226 199.94594 
L 166.670824 199.421787 
L 165.601422 199.484932 
L 164.53202 200.0997 
L 163.462618 201.196762 
L 162.393216 202.681005 
L 161.323814 204.439657 
L 160.254412 206.350271 
L 159.18501 208.28825 
L 158.115608 210.133641 
L 157.046206 211.777037 
L 155.976804 213.124436 
L 154.907402 214.100996 
L 153.838 214.653646 
L 152.768598 214.75257 
L 151.699196 214.391594 
L 150.629794 213.587571 
L 149.560392 212.378831 
L 148.49099 210.822837 
L 147.421588 208.993162 
L 146.352186 206.975925 
L 145.282784 204.865842 
L 144.213382 202.762032 
L 143.14398 200.763723 
L 142.074578 198.966014 
L 141.005176 197.45581 
L 139.935775 196.308075 
L 138.866373 195.582509 
L 137.796971 195.320748 
L 136.727569 195.544182 
L 135.658167 196.252456 
L 134.588765 206.912965 
L 133.519363 206.912779 
L 132.449961 200.178382 
L 131.380559 202.308482 
L 130.311157 204.636732 
L 129.241755 207.043694 
L 128.172353 209.396772 
L 127.102951 211.554459 
L 126.033549 213.371114 
L 124.964147 214.702127 
L 123.894745 215.409367 
L 122.825343 215.366734 
L 121.755941 214.465673 
L 120.686539 212.620466 
L 119.617137 209.773135 
L 118.547735 205.897774 
L 117.478333 201.004122 
L 116.408931 195.140222 
L 115.339529 188.393989 
L 114.270127 180.893539 
L 113.200725 172.806147 
L 112.131323 164.335738 
L 111.061921 155.718809 
L 109.992519 147.218769 
L 108.923117 139.118668 
L 107.853715 131.712389 
L 106.784313 125.294376 
L 105.714911 120.14809 
L 104.645509 116.533401 
L 103.576107 114.673248 
L 102.506705 114.739948 
L 101.437303 116.841641 
L 100.367901 121.00948 
L 99.298499 127.186243 
L 98.229097 135.217214 
L 97.159695 144.844268 
L 96.090293 155.704263 
L 95.020891 167.332975 
L 93.951489 179.175996 
L 92.882087 190.608144 
L 91.812685 200.963182 
L 90.743283 209.575756 
L 89.673881 215.837762 
L 88.604479 219.271474 
L 87.535077 219.622079 
L 86.465675 216.972461 
L 85.396273 211.883336 
L 84.326871 205.562143 
L 83.257469 200.064339 
L 82.188067 198.531065 
L 81.118665 205.467479 
z
" clip-path="url(#pe2121c7819)" style="fill: #ff7f0e; fill-opacity: 0.166667"/>
   </g>
   <g id="PolyCollection_3">
    <path d="M 81.118665 178.974265 
L 81.118665 206.910124 
L 82.921017 206.910124 
L 84.72337 206.910124 
L 86.525722 206.910124 
L 88.328075 206.910124 
L 90.130427 206.910124 
L 91.93278 206.910124 
L 93.735133 206.910124 
L 95.537485 206.910124 
L 97.339838 206.910124 
L 99.14219 206.910124 
L 100.944543 206.910124 
L 102.746895 206.910124 
L 104.549248 206.910124 
L 106.3516 206.910124 
L 108.153953 206.910124 
L 109.956305 206.910124 
L 111.758658 206.910124 
L 113.561011 206.910124 
L 115.363363 206.910124 
L 117.165716 206.910124 
L 118.968068 206.910124 
L 120.770421 206.910124 
L 122.572773 206.910124 
L 124.375126 206.910124 
L 126.177478 206.910124 
L 127.979831 206.910124 
L 129.782183 206.910124 
L 131.584536 206.910124 
L 133.386889 206.910124 
L 135.189241 206.910124 
L 136.991594 206.910124 
L 138.793946 206.910124 
L 140.596299 206.910124 
L 142.398651 206.910124 
L 144.201004 206.910124 
L 146.003356 206.910124 
L 147.805709 206.910124 
L 149.608061 206.910124 
L 151.410414 206.910124 
L 153.212766 206.910124 
L 155.015119 206.910124 
L 156.817472 206.910124 
L 158.619824 206.910124 
L 160.422177 206.910124 
L 162.224529 206.910124 
L 164.026882 206.910124 
L 165.829234 206.910124 
L 167.631587 206.910124 
L 169.433939 206.910124 
L 171.236292 206.910124 
L 173.038644 206.910124 
L 174.840997 206.910124 
L 176.64335 206.910124 
L 178.445702 206.910124 
L 180.248055 206.910124 
L 182.050407 206.910124 
L 183.85276 206.910124 
L 185.655112 206.910124 
L 187.457465 206.910124 
L 189.259817 206.910124 
L 191.06217 206.910124 
L 192.864522 206.910124 
L 194.666875 206.910124 
L 196.469228 206.910124 
L 198.27158 206.910124 
L 200.073933 206.910124 
L 201.876285 206.910124 
L 203.678638 206.910124 
L 205.48099 206.910124 
L 207.283343 206.910124 
L 209.085695 206.910124 
L 210.888048 206.910124 
L 212.6904 206.910124 
L 214.492753 206.910124 
L 216.295105 206.910124 
L 218.097458 206.910124 
L 219.899811 206.910124 
L 221.702163 206.910124 
L 223.504516 206.910124 
L 225.306868 206.910124 
L 227.109221 206.910124 
L 228.911573 206.910124 
L 230.713926 206.910124 
L 232.516278 206.910124 
L 234.318631 206.910124 
L 236.120983 206.910124 
L 237.923336 206.910124 
L 239.725689 206.910124 
L 241.528041 206.910124 
L 243.330394 206.910124 
L 245.132746 206.910124 
L 246.935099 206.910124 
L 248.737451 206.910124 
L 250.539804 206.910124 
L 252.342156 206.910124 
L 254.144509 206.910124 
L 255.946861 206.910124 
L 257.749214 206.910124 
L 259.551567 206.910124 
L 259.551567 207.093417 
L 259.551567 207.093417 
L 257.749214 206.623845 
L 255.946861 206.582397 
L 254.144509 206.747677 
L 252.342156 206.973673 
L 250.539804 207.171792 
L 248.737451 207.295953 
L 246.935099 207.33037 
L 245.132746 207.279672 
L 243.330394 207.161081 
L 241.528041 206.998336 
L 239.725689 206.81713 
L 237.923336 206.641811 
L 236.120983 206.493154 
L 234.318631 206.386997 
L 232.516278 206.333594 
L 230.713926 206.337515 
L 228.911573 206.397983 
L 227.109221 206.509511 
L 225.306868 206.66276 
L 223.504516 206.845517 
L 221.702163 207.043735 
L 219.899811 207.24256 
L 218.097458 207.427308 
L 216.295105 207.584354 
L 214.492753 207.701891 
L 212.6904 207.770557 
L 210.888048 207.783897 
L 209.085695 207.738672 
L 207.283343 207.635002 
L 205.48099 207.47635 
L 203.678638 207.26936 
L 201.876285 207.023558 
L 200.073933 206.750929 
L 198.27158 206.4654 
L 196.469228 206.182233 
L 194.666875 205.917357 
L 192.864522 205.68667 
L 191.06217 205.505309 
L 189.259817 205.386942 
L 187.457465 205.343074 
L 185.655112 205.382405 
L 183.85276 205.510259 
L 182.050407 205.728087 
L 180.248055 206.033082 
L 178.445702 206.417893 
L 176.64335 206.870479 
L 174.840997 207.374079 
L 173.038644 207.907337 
L 171.236292 206.910146 
L 169.433939 206.909826 
L 167.631587 209.487262 
L 165.829234 209.80832 
L 164.026882 209.994194 
L 162.224529 210.007965 
L 160.422177 209.812777 
L 158.619824 209.372823 
L 156.817472 208.654405 
L 155.015119 207.627007 
L 153.212766 206.264399 
L 151.410414 204.545724 
L 149.608061 202.456548 
L 147.805709 199.989861 
L 146.003356 197.14698 
L 144.201004 193.938349 
L 142.398651 190.384188 
L 140.596299 186.514986 
L 138.793946 182.371783 
L 136.991594 178.006245 
L 135.189241 173.480483 
L 133.386889 168.866608 
L 131.584536 164.245987 
L 129.782183 159.7082 
L 127.979831 155.349669 
L 126.177478 151.271949 
L 124.375126 147.57968 
L 122.572773 144.378202 
L 120.770421 141.770821 
L 118.968068 139.855757 
L 117.165716 138.722778 
L 115.363363 138.449552 
L 113.561011 139.097746 
L 111.758658 140.70893 
L 109.956305 143.300314 
L 108.153953 146.860417 
L 106.3516 151.344714 
L 104.549248 156.67137 
L 102.746895 162.717159 
L 100.944543 169.313686 
L 99.14219 176.244046 
L 97.339838 183.240073 
L 95.537485 189.980344 
L 93.735133 196.089133 
L 91.93278 201.136507 
L 90.130427 204.639809 
L 88.328075 206.066768 
L 86.525722 204.840515 
L 84.72337 200.346791 
L 82.921017 191.943689 
L 81.118665 178.974265 
z
" clip-path="url(#pe2121c7819)" style="fill: #2ca02c; fill-opacity: 0.166667"/>
   </g>
   <g id="PolyCollection_4">
    <path d="M 81.118665 216.16153 
L 81.118665 206.910124 
L 82.066712 206.910124 
L 83.014759 206.910124 
L 83.962806 206.910124 
L 84.910853 206.910124 
L 85.8589 206.910124 
L 86.806946 206.910124 
L 87.754993 206.910124 
L 88.70304 206.910124 
L 89.651087 206.910124 
L 90.599134 206.910124 
L 91.547181 206.910124 
L 92.495228 206.910124 
L 93.443275 206.910124 
L 94.391322 206.910124 
L 95.339369 206.910124 
L 96.287416 206.910124 
L 97.235463 206.910124 
L 98.18351 206.910124 
L 99.131557 206.910124 
L 100.079604 206.910124 
L 101.027651 206.910124 
L 101.975698 206.910124 
L 102.923745 206.910124 
L 103.871792 206.910124 
L 104.819839 206.910124 
L 105.767886 206.910124 
L 106.715933 206.910124 
L 107.663979 206.910124 
L 108.612026 206.910124 
L 109.560073 206.910124 
L 110.50812 206.910124 
L 111.456167 206.910124 
L 112.404214 206.910124 
L 113.352261 206.910124 
L 114.300308 206.910124 
L 115.248355 206.910124 
L 116.196402 206.910124 
L 117.144449 206.910124 
L 118.092496 206.910124 
L 119.040543 206.910124 
L 119.98859 206.910124 
L 120.936637 206.910124 
L 121.884684 206.910124 
L 122.832731 206.910124 
L 123.780778 206.910124 
L 124.728825 206.910124 
L 125.676872 206.910124 
L 126.624919 206.910124 
L 127.572966 206.910124 
L 128.521012 206.910124 
L 129.469059 206.910124 
L 130.417106 206.910124 
L 131.365153 206.910124 
L 132.3132 206.910124 
L 133.261247 206.910124 
L 134.209294 206.910124 
L 135.157341 206.910124 
L 136.105388 206.910124 
L 137.053435 206.910124 
L 138.001482 206.910124 
L 138.949529 206.910124 
L 139.897576 206.910124 
L 140.845623 206.910124 
L 141.79367 206.910124 
L 142.741717 206.910124 
L 143.689764 206.910124 
L 144.637811 206.910124 
L 145.585858 206.910124 
L 146.533905 206.910124 
L 147.481952 206.910124 
L 148.429999 206.910124 
L 149.378045 206.910124 
L 150.326092 206.910124 
L 151.274139 206.910124 
L 152.222186 206.910124 
L 153.170233 206.910124 
L 154.11828 206.910124 
L 155.066327 206.910124 
L 156.014374 206.910124 
L 156.962421 206.910124 
L 157.910468 206.910124 
L 158.858515 206.910124 
L 159.806562 206.910124 
L 160.754609 206.910124 
L 161.702656 206.910124 
L 162.650703 206.910124 
L 163.59875 206.910124 
L 164.546797 206.910124 
L 165.494844 206.910124 
L 166.442891 206.910124 
L 167.390938 206.910124 
L 168.338985 206.910124 
L 169.287032 206.910124 
L 170.235078 206.910124 
L 171.183125 206.910124 
L 172.131172 206.910124 
L 173.079219 206.910124 
L 174.027266 206.910124 
L 174.975313 206.910124 
L 174.975313 213.508905 
L 174.975313 213.508905 
L 174.027266 204.756814 
L 173.079219 201.663511 
L 172.131172 201.885867 
L 171.183125 203.764867 
L 170.235078 206.179109 
L 169.287032 208.421517 
L 168.338985 210.096572 
L 167.390938 211.03561 
L 166.442891 211.227945 
L 165.494844 210.765719 
L 164.546797 209.80064 
L 163.59875 208.510857 
L 162.650703 207.076463 
L 161.702656 205.662207 
L 160.754609 204.406182 
L 159.806562 203.413373 
L 158.858515 202.753072 
L 157.910468 202.459303 
L 156.962421 202.533499 
L 156.014374 202.948764 
L 155.066327 203.65517 
L 154.11828 204.585619 
L 153.170233 205.661862 
L 152.222186 206.800371 
L 151.274139 207.917794 
L 150.326092 208.935822 
L 149.378045 209.785296 
L 148.429999 210.409497 
L 147.481952 210.766547 
L 146.533905 210.830912 
L 145.585858 210.594035 
L 144.637811 210.064144 
L 143.689764 209.265295 
L 142.741717 208.235745 
L 141.79367 207.025767 
L 140.845623 205.694992 
L 139.897576 204.309425 
L 138.949529 202.93824 
L 138.001482 201.650477 
L 137.053435 200.511769 
L 136.105388 199.581206 
L 135.157341 198.90844 
L 134.209294 198.531135 
L 133.261247 198.472848 
L 132.3132 198.741399 
L 131.365153 199.327813 
L 130.417106 200.205848 
L 129.469059 201.332161 
L 128.521012 206.910573 
L 127.572966 206.909638 
L 126.624919 205.782249 
L 125.676872 206.873723 
L 124.728825 207.785357 
L 123.780778 208.422402 
L 122.832731 208.690407 
L 121.884684 208.498788 
L 120.936637 207.764529 
L 119.98859 206.415908 
L 119.040543 204.39614 
L 118.092496 201.666811 
L 117.144449 198.210995 
L 116.196402 194.035922 
L 115.248355 189.175081 
L 114.300308 183.689637 
L 113.352261 177.669062 
L 112.404214 171.230865 
L 111.456167 164.51935 
L 110.50812 157.703318 
L 109.560073 150.972677 
L 108.612026 144.533928 
L 107.663979 138.604533 
L 106.715933 133.406205 
L 105.767886 129.157198 
L 104.819839 126.063707 
L 103.871792 124.310561 
L 102.923745 124.051411 
L 101.975698 125.398711 
L 101.027651 128.413818 
L 100.079604 133.09764 
L 99.131557 139.382315 
L 98.18351 147.124499 
L 97.235463 156.100916 
L 96.287416 166.006954 
L 95.339369 176.45914 
L 94.391322 187.002493 
L 93.443275 197.123836 
L 92.495228 206.272283 
L 91.547181 213.888263 
L 90.599134 219.442561 
L 89.651087 222.487036 
L 88.70304 222.718803 
L 87.754993 220.059854 
L 86.806946 214.754279 
L 85.8589 207.485382 
L 84.910853 199.515268 
L 83.962806 192.849583 
L 83.014759 190.430395 
L 82.066712 196.360348 
L 81.118665 216.16153 
z
" clip-path="url(#pe2121c7819)" style="fill: #d62728; fill-opacity: 0.166667"/>
   </g>
   <g id="PolyCollection_5">
    <path d="M 81.118665 276.334125 
L 81.118665 206.910124 
L 84.398004 206.910124 
L 87.677342 206.910124 
L 90.956681 206.910124 
L 94.23602 206.910124 
L 97.515359 206.910124 
L 100.794698 206.910124 
L 104.074037 206.910124 
L 107.353376 206.910124 
L 110.632714 206.910124 
L 113.912053 206.910124 
L 117.191392 206.910124 
L 120.470731 206.910124 
L 123.75007 206.910124 
L 127.029409 206.910124 
L 130.308747 206.910124 
L 133.588086 206.910124 
L 136.867425 206.910124 
L 140.146764 206.910124 
L 143.426103 206.910124 
L 146.705442 206.910124 
L 149.98478 206.910124 
L 153.264119 206.910124 
L 156.543458 206.910124 
L 159.822797 206.910124 
L 163.102136 206.910124 
L 166.381475 206.910124 
L 169.660814 206.910124 
L 172.940152 206.910124 
L 176.219491 206.910124 
L 179.49883 206.910124 
L 182.778169 206.910124 
L 186.057508 206.910124 
L 189.336847 206.910124 
L 192.616185 206.910124 
L 195.895524 206.910124 
L 199.174863 206.910124 
L 202.454202 206.910124 
L 205.733541 206.910124 
L 209.01288 206.910124 
L 212.292218 206.910124 
L 215.571557 206.910124 
L 218.850896 206.910124 
L 222.130235 206.910124 
L 225.409574 206.910124 
L 228.688913 206.910124 
L 231.968252 206.910124 
L 235.24759 206.910124 
L 238.526929 206.910124 
L 241.806268 206.910124 
L 245.085607 206.910124 
L 248.364946 206.910124 
L 251.644285 206.910124 
L 254.923623 206.910124 
L 258.202962 206.910124 
L 261.482301 206.910124 
L 264.76164 206.910124 
L 268.040979 206.910124 
L 271.320318 206.910124 
L 274.599657 206.910124 
L 277.878995 206.910124 
L 281.158334 206.910124 
L 284.437673 206.910124 
L 287.717012 206.910124 
L 290.996351 206.910124 
L 294.27569 206.910124 
L 297.555028 206.910124 
L 300.834367 206.910124 
L 304.113706 206.910124 
L 307.393045 206.910124 
L 310.672384 206.910124 
L 313.951723 206.910124 
L 317.231061 206.910124 
L 320.5104 206.910124 
L 323.789739 206.910124 
L 327.069078 206.910124 
L 330.348417 206.910124 
L 333.627756 206.910124 
L 336.907095 206.910124 
L 340.186433 206.910124 
L 343.465772 206.910124 
L 346.745111 206.910124 
L 350.02445 206.910124 
L 353.303789 206.910124 
L 356.583128 206.910124 
L 359.862466 206.910124 
L 363.141805 206.910124 
L 366.421144 206.910124 
L 369.700483 206.910124 
L 372.979822 206.910124 
L 376.259161 206.910124 
L 379.538499 206.910124 
L 382.817838 206.910124 
L 386.097177 206.910124 
L 389.376516 206.910124 
L 392.655855 206.910124 
L 395.935194 206.910124 
L 399.214533 206.910124 
L 402.493871 206.910124 
L 405.77321 206.910124 
L 405.77321 211.448091 
L 405.77321 211.448091 
L 402.493871 205.102872 
L 399.214533 203.003973 
L 395.935194 203.337538 
L 392.655855 204.836555 
L 389.376516 206.659652 
L 386.097177 208.289822 
L 382.817838 209.450696 
L 379.538499 210.038171 
L 376.259161 210.065369 
L 372.979822 209.619121 
L 369.700483 208.826306 
L 366.421144 207.828554 
L 363.141805 206.763979 
L 359.862466 205.754714 
L 356.583128 204.899202 
L 353.303789 204.268281 
L 350.02445 203.904237 
L 346.745111 203.822096 
L 343.465772 204.012537 
L 340.186433 204.445883 
L 336.907095 205.076722 
L 333.627756 205.848791 
L 330.348417 206.699814 
L 327.069078 207.566052 
L 323.789739 208.386392 
L 320.5104 209.105833 
L 317.231061 209.67829 
L 313.951723 210.068668 
L 310.672384 210.254189 
L 307.393045 210.224997 
L 304.113706 209.984076 
L 300.834367 209.546552 
L 297.555028 208.938443 
L 294.27569 208.194961 
L 290.996351 207.35846 
L 287.717012 206.476124 
L 284.437673 205.59752 
L 281.158334 204.772092 
L 277.878995 204.046731 
L 274.599657 203.463476 
L 271.320318 203.057466 
L 268.040979 202.855195 
L 264.76164 202.873147 
L 261.482301 203.116854 
L 258.202962 203.580418 
L 254.923623 204.246523 
L 251.644285 205.08693 
L 248.364946 206.063466 
L 245.085607 206.910584 
L 241.806268 206.908425 
L 238.526929 212.285151 
L 235.24759 211.959483 
L 231.968252 211.380677 
L 228.688913 210.560701 
L 225.409574 209.52241 
L 222.130235 208.299367 
L 218.850896 206.935305 
L 215.571557 205.483186 
L 212.292218 204.003878 
L 209.01288 202.564429 
L 205.733541 201.235965 
L 202.454202 200.091234 
L 199.174863 199.201804 
L 195.895524 198.634995 
L 192.616185 198.450555 
L 189.336847 198.697187 
L 186.057508 199.408966 
L 182.778169 200.601768 
L 179.49883 202.269802 
L 176.219491 204.382359 
L 172.940152 206.880932 
L 169.660814 209.676836 
L 166.381475 212.649513 
L 163.102136 215.64569 
L 159.822797 218.479609 
L 156.543458 220.934536 
L 153.264119 222.765784 
L 149.98478 223.70553 
L 146.705442 223.469669 
L 143.426103 221.76704 
L 140.146764 218.311314 
L 136.867425 212.835896 
L 133.588086 205.112205 
L 130.308747 194.971714 
L 127.029409 182.33215 
L 123.75007 167.228307 
L 120.470731 149.847896 
L 117.191392 130.572941 
L 113.912053 110.027206 
L 110.632714 89.130199 
L 107.353376 69.158289 
L 104.074037 51.813543 
L 100.794698 39.300869 
L 97.515359 34.414125 
L 94.23602 40.631836 
L 90.956681 62.223233 
L 87.677342 104.365318 
L 84.398004 173.271723 
L 81.118665 276.334125 
z
" clip-path="url(#pe2121c7819)" style="fill: #9467bd; fill-opacity: 0.166667"/>
   </g>
   <g id="PolyCollection_6">
    <path d="M 81.118665 229.626894 
L 81.118665 206.910124 
L 83.635088 206.910124 
L 86.151512 206.910124 
L 88.667935 206.910124 
L 91.184359 206.910124 
L 93.700783 206.910124 
L 96.217206 206.910124 
L 98.73363 206.910124 
L 101.250053 206.910124 
L 103.766477 206.910124 
L 106.2829 206.910124 
L 108.799324 206.910124 
L 111.315747 206.910124 
L 113.832171 206.910124 
L 116.348594 206.910124 
L 118.865018 206.910124 
L 121.381442 206.910124 
L 123.897865 206.910124 
L 126.414289 206.910124 
L 128.930712 206.910124 
L 131.447136 206.910124 
L 133.963559 206.910124 
L 136.479983 206.910124 
L 138.996406 206.910124 
L 141.51283 206.910124 
L 144.029253 206.910124 
L 146.545677 206.910124 
L 149.062101 206.910124 
L 151.578524 206.910124 
L 154.094948 206.910124 
L 156.611371 206.910124 
L 159.127795 206.910124 
L 161.644218 206.910124 
L 164.160642 206.910124 
L 166.677065 206.910124 
L 169.193489 206.910124 
L 171.709912 206.910124 
L 174.226336 206.910124 
L 176.74276 206.910124 
L 179.259183 206.910124 
L 181.775607 206.910124 
L 184.29203 206.910124 
L 186.808454 206.910124 
L 189.324877 206.910124 
L 191.841301 206.910124 
L 194.357724 206.910124 
L 196.874148 206.910124 
L 199.390571 206.910124 
L 201.906995 206.910124 
L 204.423419 206.910124 
L 206.939842 206.910124 
L 209.456266 206.910124 
L 211.972689 206.910124 
L 214.489113 206.910124 
L 217.005536 206.910124 
L 219.52196 206.910124 
L 222.038383 206.910124 
L 224.554807 206.910124 
L 227.071231 206.910124 
L 229.587654 206.910124 
L 232.104078 206.910124 
L 234.620501 206.910124 
L 237.136925 206.910124 
L 239.653348 206.910124 
L 242.169772 206.910124 
L 244.686195 206.910124 
L 247.202619 206.910124 
L 249.719042 206.910124 
L 252.235466 206.910124 
L 254.75189 206.910124 
L 257.268313 206.910124 
L 259.784737 206.910124 
L 262.30116 206.910124 
L 264.817584 206.910124 
L 267.334007 206.910124 
L 269.850431 206.910124 
L 272.366854 206.910124 
L 274.883278 206.910124 
L 277.399701 206.910124 
L 279.916125 206.910124 
L 282.432549 206.910124 
L 284.948972 206.910124 
L 287.465396 206.910124 
L 289.981819 206.910124 
L 292.498243 206.910124 
L 295.014666 206.910124 
L 297.53109 206.910124 
L 300.047513 206.910124 
L 302.563937 206.910124 
L 305.08036 206.910124 
L 307.596784 206.910124 
L 310.113208 206.910124 
L 312.629631 206.910124 
L 315.146055 206.910124 
L 317.662478 206.910124 
L 320.178902 206.910124 
L 322.695325 206.910124 
L 325.211749 206.910124 
L 327.728172 206.910124 
L 330.244596 206.910124 
L 330.244596 193.835873 
L 330.244596 193.835873 
L 327.728172 209.546694 
L 325.211749 215.978445 
L 322.695325 216.654836 
L 320.178902 214.151943 
L 317.662478 210.285892 
L 315.146055 206.272945 
L 312.629631 202.864934 
L 310.113208 200.462807 
L 307.596784 199.210802 
L 305.08036 199.073597 
L 302.563937 199.898557 
L 300.047513 201.465057 
L 297.53109 203.52265 
L 295.014666 205.819712 
L 292.498243 208.124031 
L 289.981819 210.236661 
L 287.465396 212.00023 
L 284.948972 213.302766 
L 282.432549 214.077965 
L 279.916125 214.302743 
L 277.399701 213.992784 
L 274.883278 213.196716 
L 272.366854 211.989436 
L 269.850431 210.465046 
L 267.334007 208.729781 
L 264.817584 206.895206 
L 262.30116 205.07196 
L 259.784737 203.364195 
L 257.268313 201.864871 
L 254.75189 200.651968 
L 252.235466 199.785671 
L 249.719042 199.306539 
L 247.202619 199.234623 
L 244.686195 199.569489 
L 242.169772 200.291077 
L 239.653348 201.361302 
L 237.136925 202.726291 
L 234.620501 204.319151 
L 232.104078 206.063126 
L 229.587654 207.875046 
L 227.071231 209.66892 
L 224.554807 211.359554 
L 222.038383 212.866081 
L 219.52196 214.115286 
L 217.005536 215.04462 
L 214.489113 215.604815 
L 211.972689 215.762014 
L 209.456266 215.499355 
L 206.939842 206.907165 
L 204.423419 206.906344 
L 201.906995 214.448165 
L 199.390571 212.21983 
L 196.874148 209.657798 
L 194.357724 206.872514 
L 191.841301 203.988785 
L 189.324877 201.141121 
L 186.808454 198.468505 
L 184.29203 196.108711 
L 181.775607 194.192342 
L 179.259183 192.836774 
L 176.74276 192.140179 
L 174.226336 192.175846 
L 171.709912 192.987003 
L 169.193489 194.582353 
L 166.677065 196.932525 
L 164.160642 199.967662 
L 161.644218 203.576315 
L 159.127795 207.605835 
L 156.611371 211.864397 
L 154.094948 216.12479 
L 151.578524 220.130045 
L 149.062101 223.600948 
L 146.545677 226.245419 
L 144.029253 227.769687 
L 141.51283 227.891128 
L 138.996406 226.352536 
L 136.479983 222.937541 
L 133.963559 217.486757 
L 131.447136 209.914185 
L 128.930712 200.223218 
L 126.414289 188.521545 
L 123.897865 175.034033 
L 121.381442 160.112592 
L 118.865018 144.241804 
L 116.348594 128.038982 
L 113.832171 112.247088 
L 111.315747 97.718778 
L 108.799324 85.389608 
L 106.2829 76.238233 
L 103.766477 71.231156 
L 101.250053 71.249372 
L 98.73363 76.993943 
L 96.217206 88.867292 
L 93.700783 106.826675 
L 91.184359 130.205985 
L 88.667935 157.501721 
L 86.151512 186.118581 
L 83.635088 212.06979 
L 81.118665 229.626894 
z
" clip-path="url(#pe2121c7819)" style="fill: #8c564b; fill-opacity: 0.166667"/>
   </g>
   <g id="matplotlib.axis_1">
    <g id="xtick_1">
     <g id="line2d_1">
      <defs>
       <path id="mcafd200ea9" d="M 0 0 
L 0 3.5 
" style="stroke: #000000; stroke-width: 0.8"/>
      </defs>
      <g>
       <use xlink:href="#mcafd200ea9" x="81.118665" y="288.430125" style="stroke: #000000; stroke-width: 0.8"/>
      </g>
     </g>
     <g id="text_1">
      <!-- 0.000 -->
      <g transform="translate(66.804602 303.028562) scale(0.1 -0.1)">
       <defs>
        <path id="DejaVuSans-30" d="M 2034 4250 
Q 1547 4250 1301 3770 
Q 1056 3291 1056 2328 
Q 1056 1369 1301 889 
Q 1547 409 2034 409 
Q 2525 409 2770 889 
Q 3016 1369 3016 2328 
Q 3016 3291 2770 3770 
Q 2525 4250 2034 4250 
z
M 2034 4750 
Q 2819 4750 3233 4129 
Q 3647 3509 3647 2328 
Q 3647 1150 3233 529 
Q 2819 -91 2034 -91 
Q 1250 -91 836 529 
Q 422 1150 422 2328 
Q 422 3509 836 4129 
Q 1250 4750 2034 4750 
z
" transform="scale(0.015625)"/>
        <path id="DejaVuSans-2e" d="M 684 794 
L 1344 794 
L 1344 0 
L 684 0 
L 684 794 
z
" transform="scale(0.015625)"/>
       </defs>
       <use xlink:href="#DejaVuSans-30"/>
       <use xlink:href="#DejaVuSans-2e" x="63.623047"/>
       <use xlink:href="#DejaVuSans-30" x="95.410156"/>
       <use xlink:href="#DejaVuSans-30" x="159.033203"/>
       <use xlink:href="#DejaVuSans-30" x="222.65625"/>
      </g>
     </g>
    </g>
    <g id="xtick_2">
     <g id="line2d_2">
      <g>
       <use xlink:href="#mcafd200ea9" x="146.305613" y="288.430125" style="stroke: #000000; stroke-width: 0.8"/>
      </g>
     </g>
     <g id="text_2">
      <!-- 0.002 -->
      <g transform="translate(131.99155 303.028562) scale(0.1 -0.1)">
       <defs>
        <path id="DejaVuSans-32" d="M 1228 531 
L 3431 531 
L 3431 0 
L 469 0 
L 469 531 
Q 828 903 1448 1529 
Q 2069 2156 2228 2338 
Q 2531 2678 2651 2914 
Q 2772 3150 2772 3378 
Q 2772 3750 2511 3984 
Q 2250 4219 1831 4219 
Q 1534 4219 1204 4116 
Q 875 4013 500 3803 
L 500 4441 
Q 881 4594 1212 4672 
Q 1544 4750 1819 4750 
Q 2544 4750 2975 4387 
Q 3406 4025 3406 3419 
Q 3406 3131 3298 2873 
Q 3191 2616 2906 2266 
Q 2828 2175 2409 1742 
Q 1991 1309 1228 531 
z
" transform="scale(0.015625)"/>
       </defs>
       <use xlink:href="#DejaVuSans-30"/>
       <use xlink:href="#DejaVuSans-2e" x="63.623047"/>
       <use xlink:href="#DejaVuSans-30" x="95.410156"/>
       <use xlink:href="#DejaVuSans-30" x="159.033203"/>
       <use xlink:href="#DejaVuSans-32" x="222.65625"/>
      </g>
     </g>
    </g>
    <g id="xtick_3">
     <g id="line2d_3">
      <g>
       <use xlink:href="#mcafd200ea9" x="211.49256" y="288.430125" style="stroke: #000000; stroke-width: 0.8"/>
      </g>
     </g>
     <g id="text_3">
      <!-- 0.004 -->
      <g transform="translate(197.178498 303.028562) scale(0.1 -0.1)">
       <defs>
        <path id="DejaVuSans-34" d="M 2419 4116 
L 825 1625 
L 2419 1625 
L 2419 4116 
z
M 2253 4666 
L 3047 4666 
L 3047 1625 
L 3713 1625 
L 3713 1100 
L 3047 1100 
L 3047 0 
L 2419 0 
L 2419 1100 
L 313 1100 
L 313 1709 
L 2253 4666 
z
" transform="scale(0.015625)"/>
       </defs>
       <use xlink:href="#DejaVuSans-30"/>
       <use xlink:href="#DejaVuSans-2e" x="63.623047"/>
       <use xlink:href="#DejaVuSans-30" x="95.410156"/>
       <use xlink:href="#DejaVuSans-30" x="159.033203"/>
       <use xlink:href="#DejaVuSans-34" x="222.65625"/>
      </g>
     </g>
    </g>
    <g id="xtick_4">
     <g id="line2d_4">
      <g>
       <use xlink:href="#mcafd200ea9" x="276.679508" y="288.430125" style="stroke: #000000; stroke-width: 0.8"/>
      </g>
     </g>
     <g id="text_4">
      <!-- 0.006 -->
      <g transform="translate(262.365446 303.028562) scale(0.1 -0.1)">
       <defs>
        <path id="DejaVuSans-36" d="M 2113 2584 
Q 1688 2584 1439 2293 
Q 1191 2003 1191 1497 
Q 1191 994 1439 701 
Q 1688 409 2113 409 
Q 2538 409 2786 701 
Q 3034 994 3034 1497 
Q 3034 2003 2786 2293 
Q 2538 2584 2113 2584 
z
M 3366 4563 
L 3366 3988 
Q 3128 4100 2886 4159 
Q 2644 4219 2406 4219 
Q 1781 4219 1451 3797 
Q 1122 3375 1075 2522 
Q 1259 2794 1537 2939 
Q 1816 3084 2150 3084 
Q 2853 3084 3261 2657 
Q 3669 2231 3669 1497 
Q 3669 778 3244 343 
Q 2819 -91 2113 -91 
Q 1303 -91 875 529 
Q 447 1150 447 2328 
Q 447 3434 972 4092 
Q 1497 4750 2381 4750 
Q 2619 4750 2861 4703 
Q 3103 4656 3366 4563 
z
" transform="scale(0.015625)"/>
       </defs>
       <use xlink:href="#DejaVuSans-30"/>
       <use xlink:href="#DejaVuSans-2e" x="63.623047"/>
       <use xlink:href="#DejaVuSans-30" x="95.410156"/>
       <use xlink:href="#DejaVuSans-30" x="159.033203"/>
       <use xlink:href="#DejaVuSans-36" x="222.65625"/>
      </g>
     </g>
    </g>
    <g id="xtick_5">
     <g id="line2d_5">
      <g>
       <use xlink:href="#mcafd200ea9" x="341.866456" y="288.430125" style="stroke: #000000; stroke-width: 0.8"/>
      </g>
     </g>
     <g id="text_5">
      <!-- 0.008 -->
      <g transform="translate(327.552394 303.028562) scale(0.1 -0.1)">
       <defs>
        <path id="DejaVuSans-38" d="M 2034 2216 
Q 1584 2216 1326 1975 
Q 1069 1734 1069 1313 
Q 1069 891 1326 650 
Q 1584 409 2034 409 
Q 2484 409 2743 651 
Q 3003 894 3003 1313 
Q 3003 1734 2745 1975 
Q 2488 2216 2034 2216 
z
M 1403 2484 
Q 997 2584 770 2862 
Q 544 3141 544 3541 
Q 544 4100 942 4425 
Q 1341 4750 2034 4750 
Q 2731 4750 3128 4425 
Q 3525 4100 3525 3541 
Q 3525 3141 3298 2862 
Q 3072 2584 2669 2484 
Q 3125 2378 3379 2068 
Q 3634 1759 3634 1313 
Q 3634 634 3220 271 
Q 2806 -91 2034 -91 
Q 1263 -91 848 271 
Q 434 634 434 1313 
Q 434 1759 690 2068 
Q 947 2378 1403 2484 
z
M 1172 3481 
Q 1172 3119 1398 2916 
Q 1625 2713 2034 2713 
Q 2441 2713 2670 2916 
Q 2900 3119 2900 3481 
Q 2900 3844 2670 4047 
Q 2441 4250 2034 4250 
Q 1625 4250 1398 4047 
Q 1172 3844 1172 3481 
z
" transform="scale(0.015625)"/>
       </defs>
       <use xlink:href="#DejaVuSans-30"/>
       <use xlink:href="#DejaVuSans-2e" x="63.623047"/>
       <use xlink:href="#DejaVuSans-30" x="95.410156"/>
       <use xlink:href="#DejaVuSans-30" x="159.033203"/>
       <use xlink:href="#DejaVuSans-38" x="222.65625"/>
      </g>
     </g>
    </g>
    <g id="xtick_6">
     <g id="line2d_6">
      <g>
       <use xlink:href="#mcafd200ea9" x="407.053404" y="288.430125" style="stroke: #000000; stroke-width: 0.8"/>
      </g>
     </g>
     <g id="text_6">
      <!-- 0.010 -->
      <g transform="translate(392.739341 303.028562) scale(0.1 -0.1)">
       <defs>
        <path id="DejaVuSans-31" d="M 794 531 
L 1825 531 
L 1825 4091 
L 703 3866 
L 703 4441 
L 1819 4666 
L 2450 4666 
L 2450 531 
L 3481 531 
L 3481 0 
L 794 0 
L 794 531 
z
" transform="scale(0.015625)"/>
       </defs>
       <use xlink:href="#DejaVuSans-30"/>
       <use xlink:href="#DejaVuSans-2e" x="63.623047"/>
       <use xlink:href="#DejaVuSans-30" x="95.410156"/>
       <use xlink:href="#DejaVuSans-31" x="159.033203"/>
       <use xlink:href="#DejaVuSans-30" x="222.65625"/>
      </g>
     </g>
    </g>
    <g id="text_7">
     <!-- Pixel values -->
     <g transform="translate(214.034219 316.706687) scale(0.1 -0.1)">
      <defs>
       <path id="DejaVuSans-50" d="M 1259 4147 
L 1259 2394 
L 2053 2394 
Q 2494 2394 2734 2622 
Q 2975 2850 2975 3272 
Q 2975 3691 2734 3919 
Q 2494 4147 2053 4147 
L 1259 4147 
z
M 628 4666 
L 2053 4666 
Q 2838 4666 3239 4311 
Q 3641 3956 3641 3272 
Q 3641 2581 3239 2228 
Q 2838 1875 2053 1875 
L 1259 1875 
L 1259 0 
L 628 0 
L 628 4666 
z
" transform="scale(0.015625)"/>
       <path id="DejaVuSans-69" d="M 603 3500 
L 1178 3500 
L 1178 0 
L 603 0 
L 603 3500 
z
M 603 4863 
L 1178 4863 
L 1178 4134 
L 603 4134 
L 603 4863 
z
" transform="scale(0.015625)"/>
       <path id="DejaVuSans-78" d="M 3513 3500 
L 2247 1797 
L 3578 0 
L 2900 0 
L 1881 1375 
L 863 0 
L 184 0 
L 1544 1831 
L 300 3500 
L 978 3500 
L 1906 2253 
L 2834 3500 
L 3513 3500 
z
" transform="scale(0.015625)"/>
       <path id="DejaVuSans-65" d="M 3597 1894 
L 3597 1613 
L 953 1613 
Q 991 1019 1311 708 
Q 1631 397 2203 397 
Q 2534 397 2845 478 
Q 3156 559 3463 722 
L 3463 178 
Q 3153 47 2828 -22 
Q 2503 -91 2169 -91 
Q 1331 -91 842 396 
Q 353 884 353 1716 
Q 353 2575 817 3079 
Q 1281 3584 2069 3584 
Q 2775 3584 3186 3129 
Q 3597 2675 3597 1894 
z
M 3022 2063 
Q 3016 2534 2758 2815 
Q 2500 3097 2075 3097 
Q 1594 3097 1305 2825 
Q 1016 2553 972 2059 
L 3022 2063 
z
" transform="scale(0.015625)"/>
       <path id="DejaVuSans-6c" d="M 603 4863 
L 1178 4863 
L 1178 0 
L 603 0 
L 603 4863 
z
" transform="scale(0.015625)"/>
       <path id="DejaVuSans-20" transform="scale(0.015625)"/>
       <path id="DejaVuSans-76" d="M 191 3500 
L 800 3500 
L 1894 563 
L 2988 3500 
L 3597 3500 
L 2284 0 
L 1503 0 
L 191 3500 
z
" transform="scale(0.015625)"/>
       <path id="DejaVuSans-61" d="M 2194 1759 
Q 1497 1759 1228 1600 
Q 959 1441 959 1056 
Q 959 750 1161 570 
Q 1363 391 1709 391 
Q 2188 391 2477 730 
Q 2766 1069 2766 1631 
L 2766 1759 
L 2194 1759 
z
M 3341 1997 
L 3341 0 
L 2766 0 
L 2766 531 
Q 2569 213 2275 61 
Q 1981 -91 1556 -91 
Q 1019 -91 701 211 
Q 384 513 384 1019 
Q 384 1609 779 1909 
Q 1175 2209 1959 2209 
L 2766 2209 
L 2766 2266 
Q 2766 2663 2505 2880 
Q 2244 3097 1772 3097 
Q 1472 3097 1187 3025 
Q 903 2953 641 2809 
L 641 3341 
Q 956 3463 1253 3523 
Q 1550 3584 1831 3584 
Q 2591 3584 2966 3190 
Q 3341 2797 3341 1997 
z
" transform="scale(0.015625)"/>
       <path id="DejaVuSans-75" d="M 544 1381 
L 544 3500 
L 1119 3500 
L 1119 1403 
Q 1119 906 1312 657 
Q 1506 409 1894 409 
Q 2359 409 2629 706 
Q 2900 1003 2900 1516 
L 2900 3500 
L 3475 3500 
L 3475 0 
L 2900 0 
L 2900 538 
Q 2691 219 2414 64 
Q 2138 -91 1772 -91 
Q 1169 -91 856 284 
Q 544 659 544 1381 
z
M 1991 3584 
L 1991 3584 
z
" transform="scale(0.015625)"/>
       <path id="DejaVuSans-73" d="M 2834 3397 
L 2834 2853 
Q 2591 2978 2328 3040 
Q 2066 3103 1784 3103 
Q 1356 3103 1142 2972 
Q 928 2841 928 2578 
Q 928 2378 1081 2264 
Q 1234 2150 1697 2047 
L 1894 2003 
Q 2506 1872 2764 1633 
Q 3022 1394 3022 966 
Q 3022 478 2636 193 
Q 2250 -91 1575 -91 
Q 1294 -91 989 -36 
Q 684 19 347 128 
L 347 722 
Q 666 556 975 473 
Q 1284 391 1588 391 
Q 1994 391 2212 530 
Q 2431 669 2431 922 
Q 2431 1156 2273 1281 
Q 2116 1406 1581 1522 
L 1381 1569 
Q 847 1681 609 1914 
Q 372 2147 372 2553 
Q 372 3047 722 3315 
Q 1072 3584 1716 3584 
Q 2034 3584 2315 3537 
Q 2597 3491 2834 3397 
z
" transform="scale(0.015625)"/>
      </defs>
      <use xlink:href="#DejaVuSans-50"/>
      <use xlink:href="#DejaVuSans-69" x="58.052734"/>
      <use xlink:href="#DejaVuSans-78" x="85.835938"/>
      <use xlink:href="#DejaVuSans-65" x="141.890625"/>
      <use xlink:href="#DejaVuSans-6c" x="203.414062"/>
      <use xlink:href="#DejaVuSans-20" x="231.197266"/>
      <use xlink:href="#DejaVuSans-76" x="262.984375"/>
      <use xlink:href="#DejaVuSans-61" x="322.164062"/>
      <use xlink:href="#DejaVuSans-6c" x="383.443359"/>
      <use xlink:href="#DejaVuSans-75" x="411.226562"/>
      <use xlink:href="#DejaVuSans-65" x="474.605469"/>
      <use xlink:href="#DejaVuSans-73" x="536.128906"/>
     </g>
    </g>
   </g>
   <g id="matplotlib.axis_2">
    <g id="ytick_1">
     <g id="line2d_7">
      <defs>
       <path id="m1eb86edceb" d="M 0 0 
L -3.5 0 
" style="stroke: #000000; stroke-width: 0.8"/>
      </defs>
      <g>
       <use xlink:href="#m1eb86edceb" x="64.885937" y="274.834438" style="stroke: #000000; stroke-width: 0.8"/>
      </g>
     </g>
     <g id="text_8">
      <!-- −0.050 -->
      <g transform="translate(20.878125 278.633657) scale(0.1 -0.1)">
       <defs>
        <path id="DejaVuSans-2212" d="M 678 2272 
L 4684 2272 
L 4684 1741 
L 678 1741 
L 678 2272 
z
" transform="scale(0.015625)"/>
        <path id="DejaVuSans-35" d="M 691 4666 
L 3169 4666 
L 3169 4134 
L 1269 4134 
L 1269 2991 
Q 1406 3038 1543 3061 
Q 1681 3084 1819 3084 
Q 2600 3084 3056 2656 
Q 3513 2228 3513 1497 
Q 3513 744 3044 326 
Q 2575 -91 1722 -91 
Q 1428 -91 1123 -41 
Q 819 9 494 109 
L 494 744 
Q 775 591 1075 516 
Q 1375 441 1709 441 
Q 2250 441 2565 725 
Q 2881 1009 2881 1497 
Q 2881 1984 2565 2268 
Q 2250 2553 1709 2553 
Q 1456 2553 1204 2497 
Q 953 2441 691 2322 
L 691 4666 
z
" transform="scale(0.015625)"/>
       </defs>
       <use xlink:href="#DejaVuSans-2212"/>
       <use xlink:href="#DejaVuSans-30" x="83.789062"/>
       <use xlink:href="#DejaVuSans-2e" x="147.412109"/>
       <use xlink:href="#DejaVuSans-30" x="179.199219"/>
       <use xlink:href="#DejaVuSans-35" x="242.822266"/>
       <use xlink:href="#DejaVuSans-30" x="306.445312"/>
      </g>
     </g>
    </g>
    <g id="ytick_2">
     <g id="line2d_8">
      <g>
       <use xlink:href="#m1eb86edceb" x="64.885937" y="240.872281" style="stroke: #000000; stroke-width: 0.8"/>
      </g>
     </g>
     <g id="text_9">
      <!-- −0.025 -->
      <g transform="translate(20.878125 244.6715) scale(0.1 -0.1)">
       <use xlink:href="#DejaVuSans-2212"/>
       <use xlink:href="#DejaVuSans-30" x="83.789062"/>
       <use xlink:href="#DejaVuSans-2e" x="147.412109"/>
       <use xlink:href="#DejaVuSans-30" x="179.199219"/>
       <use xlink:href="#DejaVuSans-32" x="242.822266"/>
       <use xlink:href="#DejaVuSans-35" x="306.445312"/>
      </g>
     </g>
    </g>
    <g id="ytick_3">
     <g id="line2d_9">
      <g>
       <use xlink:href="#m1eb86edceb" x="64.885937" y="206.910124" style="stroke: #000000; stroke-width: 0.8"/>
      </g>
     </g>
     <g id="text_10">
      <!-- 0.000 -->
      <g transform="translate(29.257812 210.709343) scale(0.1 -0.1)">
       <use xlink:href="#DejaVuSans-30"/>
       <use xlink:href="#DejaVuSans-2e" x="63.623047"/>
       <use xlink:href="#DejaVuSans-30" x="95.410156"/>
       <use xlink:href="#DejaVuSans-30" x="159.033203"/>
       <use xlink:href="#DejaVuSans-30" x="222.65625"/>
      </g>
     </g>
    </g>
    <g id="ytick_4">
     <g id="line2d_10">
      <g>
       <use xlink:href="#m1eb86edceb" x="64.885937" y="172.947968" style="stroke: #000000; stroke-width: 0.8"/>
      </g>
     </g>
     <g id="text_11">
      <!-- 0.025 -->
      <g transform="translate(29.257812 176.747186) scale(0.1 -0.1)">
       <use xlink:href="#DejaVuSans-30"/>
       <use xlink:href="#DejaVuSans-2e" x="63.623047"/>
       <use xlink:href="#DejaVuSans-30" x="95.410156"/>
       <use xlink:href="#DejaVuSans-32" x="159.033203"/>
       <use xlink:href="#DejaVuSans-35" x="222.65625"/>
      </g>
     </g>
    </g>
    <g id="ytick_5">
     <g id="line2d_11">
      <g>
       <use xlink:href="#m1eb86edceb" x="64.885937" y="138.985811" style="stroke: #000000; stroke-width: 0.8"/>
      </g>
     </g>
     <g id="text_12">
      <!-- 0.050 -->
      <g transform="translate(29.257812 142.785029) scale(0.1 -0.1)">
       <use xlink:href="#DejaVuSans-30"/>
       <use xlink:href="#DejaVuSans-2e" x="63.623047"/>
       <use xlink:href="#DejaVuSans-30" x="95.410156"/>
       <use xlink:href="#DejaVuSans-35" x="159.033203"/>
       <use xlink:href="#DejaVuSans-30" x="222.65625"/>
      </g>
     </g>
    </g>
    <g id="ytick_6">
     <g id="line2d_12">
      <g>
       <use xlink:href="#m1eb86edceb" x="64.885937" y="105.023654" style="stroke: #000000; stroke-width: 0.8"/>
      </g>
     </g>
     <g id="text_13">
      <!-- 0.075 -->
      <g transform="translate(29.257812 108.822872) scale(0.1 -0.1)">
       <defs>
        <path id="DejaVuSans-37" d="M 525 4666 
L 3525 4666 
L 3525 4397 
L 1831 0 
L 1172 0 
L 2766 4134 
L 525 4134 
L 525 4666 
z
" transform="scale(0.015625)"/>
       </defs>
       <use xlink:href="#DejaVuSans-30"/>
       <use xlink:href="#DejaVuSans-2e" x="63.623047"/>
       <use xlink:href="#DejaVuSans-30" x="95.410156"/>
       <use xlink:href="#DejaVuSans-37" x="159.033203"/>
       <use xlink:href="#DejaVuSans-35" x="222.65625"/>
      </g>
     </g>
    </g>
    <g id="ytick_7">
     <g id="line2d_13">
      <g>
       <use xlink:href="#m1eb86edceb" x="64.885937" y="71.061497" style="stroke: #000000; stroke-width: 0.8"/>
      </g>
     </g>
     <g id="text_14">
      <!-- 0.100 -->
      <g transform="translate(29.257812 74.860715) scale(0.1 -0.1)">
       <use xlink:href="#DejaVuSans-30"/>
       <use xlink:href="#DejaVuSans-2e" x="63.623047"/>
       <use xlink:href="#DejaVuSans-31" x="95.410156"/>
       <use xlink:href="#DejaVuSans-30" x="159.033203"/>
       <use xlink:href="#DejaVuSans-30" x="222.65625"/>
      </g>
     </g>
    </g>
    <g id="ytick_8">
     <g id="line2d_14">
      <g>
       <use xlink:href="#m1eb86edceb" x="64.885937" y="37.09934" style="stroke: #000000; stroke-width: 0.8"/>
      </g>
     </g>
     <g id="text_15">
      <!-- 0.125 -->
      <g transform="translate(29.257812 40.898558) scale(0.1 -0.1)">
       <use xlink:href="#DejaVuSans-30"/>
       <use xlink:href="#DejaVuSans-2e" x="63.623047"/>
       <use xlink:href="#DejaVuSans-31" x="95.410156"/>
       <use xlink:href="#DejaVuSans-32" x="159.033203"/>
       <use xlink:href="#DejaVuSans-35" x="222.65625"/>
      </g>
     </g>
    </g>
    <g id="text_16">
     <!-- Frequency -->
     <g transform="translate(14.798437 181.203812) rotate(-90) scale(0.1 -0.1)">
      <defs>
       <path id="DejaVuSans-46" d="M 628 4666 
L 3309 4666 
L 3309 4134 
L 1259 4134 
L 1259 2759 
L 3109 2759 
L 3109 2228 
L 1259 2228 
L 1259 0 
L 628 0 
L 628 4666 
z
" transform="scale(0.015625)"/>
       <path id="DejaVuSans-72" d="M 2631 2963 
Q 2534 3019 2420 3045 
Q 2306 3072 2169 3072 
Q 1681 3072 1420 2755 
Q 1159 2438 1159 1844 
L 1159 0 
L 581 0 
L 581 3500 
L 1159 3500 
L 1159 2956 
Q 1341 3275 1631 3429 
Q 1922 3584 2338 3584 
Q 2397 3584 2469 3576 
Q 2541 3569 2628 3553 
L 2631 2963 
z
" transform="scale(0.015625)"/>
       <path id="DejaVuSans-71" d="M 947 1747 
Q 947 1113 1208 752 
Q 1469 391 1925 391 
Q 2381 391 2643 752 
Q 2906 1113 2906 1747 
Q 2906 2381 2643 2742 
Q 2381 3103 1925 3103 
Q 1469 3103 1208 2742 
Q 947 2381 947 1747 
z
M 2906 525 
Q 2725 213 2448 61 
Q 2172 -91 1784 -91 
Q 1150 -91 751 415 
Q 353 922 353 1747 
Q 353 2572 751 3078 
Q 1150 3584 1784 3584 
Q 2172 3584 2448 3432 
Q 2725 3281 2906 2969 
L 2906 3500 
L 3481 3500 
L 3481 -1331 
L 2906 -1331 
L 2906 525 
z
" transform="scale(0.015625)"/>
       <path id="DejaVuSans-6e" d="M 3513 2113 
L 3513 0 
L 2938 0 
L 2938 2094 
Q 2938 2591 2744 2837 
Q 2550 3084 2163 3084 
Q 1697 3084 1428 2787 
Q 1159 2491 1159 1978 
L 1159 0 
L 581 0 
L 581 3500 
L 1159 3500 
L 1159 2956 
Q 1366 3272 1645 3428 
Q 1925 3584 2291 3584 
Q 2894 3584 3203 3211 
Q 3513 2838 3513 2113 
z
" transform="scale(0.015625)"/>
       <path id="DejaVuSans-63" d="M 3122 3366 
L 3122 2828 
Q 2878 2963 2633 3030 
Q 2388 3097 2138 3097 
Q 1578 3097 1268 2742 
Q 959 2388 959 1747 
Q 959 1106 1268 751 
Q 1578 397 2138 397 
Q 2388 397 2633 464 
Q 2878 531 3122 666 
L 3122 134 
Q 2881 22 2623 -34 
Q 2366 -91 2075 -91 
Q 1284 -91 818 406 
Q 353 903 353 1747 
Q 353 2603 823 3093 
Q 1294 3584 2113 3584 
Q 2378 3584 2631 3529 
Q 2884 3475 3122 3366 
z
" transform="scale(0.015625)"/>
       <path id="DejaVuSans-79" d="M 2059 -325 
Q 1816 -950 1584 -1140 
Q 1353 -1331 966 -1331 
L 506 -1331 
L 506 -850 
L 844 -850 
Q 1081 -850 1212 -737 
Q 1344 -625 1503 -206 
L 1606 56 
L 191 3500 
L 800 3500 
L 1894 763 
L 2988 3500 
L 3597 3500 
L 2059 -325 
z
" transform="scale(0.015625)"/>
      </defs>
      <use xlink:href="#DejaVuSans-46"/>
      <use xlink:href="#DejaVuSans-72" x="50.269531"/>
      <use xlink:href="#DejaVuSans-65" x="89.132812"/>
      <use xlink:href="#DejaVuSans-71" x="150.65625"/>
      <use xlink:href="#DejaVuSans-75" x="214.132812"/>
      <use xlink:href="#DejaVuSans-65" x="277.511719"/>
      <use xlink:href="#DejaVuSans-6e" x="339.035156"/>
      <use xlink:href="#DejaVuSans-63" x="402.414062"/>
      <use xlink:href="#DejaVuSans-79" x="457.394531"/>
     </g>
    </g>
   </g>
   <g id="line2d_15">
    <path d="M 81.118665 225.186859 
L 83.659118 219.325184 
L 86.199571 199.436595 
L 88.740025 172.904066 
L 91.280478 145.017582 
L 93.820932 119.381026 
L 96.361385 98.261522 
L 98.901838 82.887164 
L 101.442292 73.698634 
L 103.982745 70.559789 
L 106.523198 72.931939 
L 109.063652 80.01614 
L 111.604105 90.867478 
L 114.144558 104.485004 
L 116.685012 119.880637 
L 119.225465 136.130078 
L 121.765918 152.408475 
L 124.306372 168.013312 
L 126.846825 182.376766 
L 129.387278 195.069509 
L 131.927732 205.79773 
L 134.468185 214.394937 
L 137.008639 220.809912 
L 139.549092 225.092002 
L 142.089545 227.374771 
L 144.629999 227.858878 
L 147.170452 226.794912 
L 149.710905 224.466777 
L 152.251359 221.176095 
L 154.791812 217.228019 
L 157.332265 212.918701 
L 159.872719 208.52462 
L 162.413172 204.293868 
L 164.953625 200.439438 
L 167.494079 197.13449 
L 170.034532 194.50953 
L 172.574986 192.651382 
L 175.115439 191.60381 
L 177.655892 191.369613 
L 180.196346 191.913984 
L 182.736799 193.168939 
L 185.277252 195.038574 
L 187.817706 197.404933 
L 190.358159 200.13426 
L 192.898612 203.083415 
L 195.439066 206.106242 
L 197.979519 209.059696 
L 200.519972 211.809543 
L 203.060426 214.235483 
L 205.600879 206.906233 
L 208.141332 206.906841 
L 210.681786 216.312519 
L 213.222239 216.769334 
L 215.762693 216.749701 
L 218.303146 216.265529 
L 220.843599 215.348692 
L 223.384053 214.049468 
L 225.924506 212.434322 
L 228.464959 210.583082 
L 231.005413 208.585612 
L 233.545866 206.53807 
L 236.086319 204.538889 
L 238.626773 202.684591 
L 241.167226 201.065585 
L 243.707679 199.762089 
L 246.248133 198.840329 
L 248.788586 198.349165 
L 251.329039 198.317279 
L 253.869493 198.751087 
L 256.409946 199.633484 
L 258.9504 200.923538 
L 261.490853 202.557242 
L 264.031306 204.44937 
L 266.57176 206.496489 
L 269.112213 208.581121 
L 271.652666 210.577021 
L 274.19312 212.355477 
L 276.733573 213.79249 
L 279.274026 214.776631 
L 281.81448 215.217303 
L 284.354933 215.053055 
L 286.895386 214.25952 
L 289.43584 212.856458 
L 291.976293 210.913275 
L 294.516747 208.552287 
L 297.0572 205.948892 
L 299.597653 203.32767 
L 302.138107 200.953307 
L 304.67856 199.115082 
L 307.219013 198.103529 
L 309.759467 198.177684 
L 312.29992 199.521177 
L 314.840373 202.18524 
L 317.380827 206.016495 
L 319.92128 210.567179 
L 322.461733 214.98526 
L 325.002187 217.881635 
L 327.54264 217.171387 
L 330.083093 209.885797 
L 332.623547 191.951553 
" clip-path="url(#pe2121c7819)" style="fill: none; stroke: #1f77b4; stroke-width: 1.5; stroke-linecap: square"/>
   </g>
   <g id="line2d_16">
    <path d="M 81.118665 205.467479 
L 82.188067 198.531065 
L 83.257469 200.064339 
L 84.326871 205.562143 
L 85.396273 211.883336 
L 86.465675 216.972461 
L 87.535077 219.622079 
L 88.604479 219.271474 
L 89.673881 215.837762 
L 90.743283 209.575756 
L 91.812685 200.963182 
L 92.882087 190.608144 
L 93.951489 179.175996 
L 95.020891 167.332975 
L 96.090293 155.704263 
L 97.159695 144.844268 
L 98.229097 135.217214 
L 99.298499 127.186243 
L 100.367901 121.00948 
L 101.437303 116.841641 
L 102.506705 114.739948 
L 103.576107 114.673248 
L 104.645509 116.533401 
L 105.714911 120.14809 
L 106.784313 125.294376 
L 107.853715 131.712389 
L 108.923117 139.118668 
L 109.992519 147.218769 
L 111.061921 155.718809 
L 112.131323 164.335738 
L 113.200725 172.806147 
L 114.270127 180.893539 
L 115.339529 188.393989 
L 116.408931 195.140222 
L 117.478333 201.004122 
L 118.547735 205.897774 
L 119.617137 209.773135 
L 120.686539 212.620466 
L 121.755941 214.465673 
L 122.825343 215.366734 
L 123.894745 215.409367 
L 124.964147 214.702127 
L 126.033549 213.371114 
L 127.102951 211.554459 
L 128.172353 209.396772 
L 129.241755 207.043694 
L 130.311157 204.636732 
L 131.380559 202.308482 
L 132.449961 200.178382 
L 133.519363 206.912779 
L 134.588765 206.912965 
L 135.658167 196.252456 
L 136.727569 195.544182 
L 137.796971 195.320748 
L 138.866373 195.582509 
L 139.935775 196.308075 
L 141.005176 197.45581 
L 142.074578 198.966014 
L 143.14398 200.763723 
L 144.213382 202.762032 
L 145.282784 204.865842 
L 146.352186 206.975925 
L 147.421588 208.993162 
L 148.49099 210.822837 
L 149.560392 212.378831 
L 150.629794 213.587571 
L 151.699196 214.391594 
L 152.768598 214.75257 
L 153.838 214.653646 
L 154.907402 214.100996 
L 155.976804 213.124436 
L 157.046206 211.777037 
L 158.115608 210.133641 
L 159.18501 208.28825 
L 160.254412 206.350271 
L 161.323814 204.439657 
L 162.393216 202.681005 
L 163.462618 201.196762 
L 164.53202 200.0997 
L 165.601422 199.484932 
L 166.670824 199.421787 
L 167.740226 199.94594 
L 168.809628 201.052305 
L 169.87903 202.689262 
L 170.948432 204.754913 
L 172.017834 207.096175 
L 173.087236 209.51162 
L 174.156638 211.759121 
L 175.22604 213.569498 
L 176.295442 214.667493 
L 177.364844 214.80158 
L 178.434246 213.784268 
L 179.503648 211.54475 
L 180.57305 208.195929 
L 181.642452 204.118046 
L 182.711854 200.061379 
L 183.781256 197.270657 
L 184.850658 197.634116 
L 185.92006 203.860334 
L 186.989462 219.686269 
" clip-path="url(#pe2121c7819)" style="fill: none; stroke: #ff7f0e; stroke-width: 1.5; stroke-linecap: square"/>
   </g>
   <g id="line2d_17">
    <path d="M 81.118665 178.974265 
L 82.921017 191.943689 
L 84.72337 200.346791 
L 86.525722 204.840515 
L 88.328075 206.066768 
L 90.130427 204.639809 
L 91.93278 201.136507 
L 93.735133 196.089133 
L 95.537485 189.980344 
L 97.339838 183.240073 
L 99.14219 176.244046 
L 100.944543 169.313686 
L 102.746895 162.717159 
L 104.549248 156.67137 
L 106.3516 151.344714 
L 108.153953 146.860417 
L 109.956305 143.300314 
L 111.758658 140.70893 
L 113.561011 139.097746 
L 115.363363 138.449552 
L 117.165716 138.722778 
L 118.968068 139.855757 
L 120.770421 141.770821 
L 122.572773 144.378202 
L 124.375126 147.57968 
L 126.177478 151.271949 
L 127.979831 155.349669 
L 129.782183 159.7082 
L 131.584536 164.245987 
L 133.386889 168.866608 
L 135.189241 173.480483 
L 136.991594 178.006245 
L 138.793946 182.371783 
L 140.596299 186.514986 
L 142.398651 190.384188 
L 144.201004 193.938349 
L 146.003356 197.14698 
L 147.805709 199.989861 
L 149.608061 202.456548 
L 151.410414 204.545724 
L 153.212766 206.264399 
L 155.015119 207.627007 
L 156.817472 208.654405 
L 158.619824 209.372823 
L 160.422177 209.812777 
L 162.224529 210.007965 
L 164.026882 209.994194 
L 165.829234 209.80832 
L 167.631587 209.487262 
L 169.433939 206.909826 
L 171.236292 206.910146 
L 173.038644 207.907337 
L 174.840997 207.374079 
L 176.64335 206.870479 
L 178.445702 206.417893 
L 180.248055 206.033082 
L 182.050407 205.728087 
L 183.85276 205.510259 
L 185.655112 205.382405 
L 187.457465 205.343074 
L 189.259817 205.386942 
L 191.06217 205.505309 
L 192.864522 205.68667 
L 194.666875 205.917357 
L 196.469228 206.182233 
L 198.27158 206.4654 
L 200.073933 206.750929 
L 201.876285 207.023558 
L 203.678638 207.26936 
L 205.48099 207.47635 
L 207.283343 207.635002 
L 209.085695 207.738672 
L 210.888048 207.783897 
L 212.6904 207.770557 
L 214.492753 207.701891 
L 216.295105 207.584354 
L 218.097458 207.427308 
L 219.899811 207.24256 
L 221.702163 207.043735 
L 223.504516 206.845517 
L 225.306868 206.66276 
L 227.109221 206.509511 
L 228.911573 206.397983 
L 230.713926 206.337515 
L 232.516278 206.333594 
L 234.318631 206.386997 
L 236.120983 206.493154 
L 237.923336 206.641811 
L 239.725689 206.81713 
L 241.528041 206.998336 
L 243.330394 207.161081 
L 245.132746 207.279672 
L 246.935099 207.33037 
L 248.737451 207.295953 
L 250.539804 207.171792 
L 252.342156 206.973673 
L 254.144509 206.747677 
L 255.946861 206.582397 
L 257.749214 206.623845 
L 259.551567 207.093417 
" clip-path="url(#pe2121c7819)" style="fill: none; stroke: #2ca02c; stroke-width: 1.5; stroke-linecap: square"/>
   </g>
   <g id="line2d_18">
    <path d="M 81.118665 216.16153 
L 82.066712 196.360348 
L 83.014759 190.430395 
L 83.962806 192.849583 
L 84.910853 199.515268 
L 85.8589 207.485382 
L 86.806946 214.754279 
L 87.754993 220.059854 
L 88.70304 222.718803 
L 89.651087 222.487036 
L 90.599134 219.442561 
L 91.547181 213.888263 
L 92.495228 206.272283 
L 93.443275 197.123836 
L 94.391322 187.002493 
L 95.339369 176.45914 
L 96.287416 166.006954 
L 97.235463 156.100916 
L 98.18351 147.124499 
L 99.131557 139.382315 
L 100.079604 133.09764 
L 101.027651 128.413818 
L 101.975698 125.398711 
L 102.923745 124.051411 
L 103.871792 124.310561 
L 104.819839 126.063707 
L 105.767886 129.157198 
L 106.715933 133.406205 
L 107.663979 138.604533 
L 108.612026 144.533928 
L 109.560073 150.972677 
L 110.50812 157.703318 
L 111.456167 164.51935 
L 112.404214 171.230865 
L 113.352261 177.669062 
L 114.300308 183.689637 
L 115.248355 189.175081 
L 116.196402 194.035922 
L 117.144449 198.210995 
L 118.092496 201.666811 
L 119.040543 204.39614 
L 119.98859 206.415908 
L 120.936637 207.764529 
L 121.884684 208.498788 
L 122.832731 208.690407 
L 123.780778 208.422402 
L 124.728825 207.785357 
L 125.676872 206.873723 
L 126.624919 205.782249 
L 127.572966 206.909638 
L 128.521012 206.910573 
L 129.469059 201.332161 
L 130.417106 200.205848 
L 131.365153 199.327813 
L 132.3132 198.741399 
L 133.261247 198.472848 
L 134.209294 198.531135 
L 135.157341 198.90844 
L 136.105388 199.581206 
L 137.053435 200.511769 
L 138.001482 201.650477 
L 138.949529 202.93824 
L 139.897576 204.309425 
L 140.845623 205.694992 
L 141.79367 207.025767 
L 142.741717 208.235745 
L 143.689764 209.265295 
L 144.637811 210.064144 
L 145.585858 210.594035 
L 146.533905 210.830912 
L 147.481952 210.766547 
L 148.429999 210.409497 
L 149.378045 209.785296 
L 150.326092 208.935822 
L 151.274139 207.917794 
L 152.222186 206.800371 
L 153.170233 205.661862 
L 154.11828 204.585619 
L 155.066327 203.65517 
L 156.014374 202.948764 
L 156.962421 202.533499 
L 157.910468 202.459303 
L 158.858515 202.753072 
L 159.806562 203.413373 
L 160.754609 204.406182 
L 161.702656 205.662207 
L 162.650703 207.076463 
L 163.59875 208.510857 
L 164.546797 209.80064 
L 165.494844 210.765719 
L 166.442891 211.227945 
L 167.390938 211.03561 
L 168.338985 210.096572 
L 169.287032 208.421517 
L 170.235078 206.179109 
L 171.183125 203.764867 
L 172.131172 201.885867 
L 173.079219 201.663511 
L 174.027266 204.756814 
L 174.975313 213.508905 
" clip-path="url(#pe2121c7819)" style="fill: none; stroke: #d62728; stroke-width: 1.5; stroke-linecap: square"/>
   </g>
   <g id="line2d_19">
    <path d="M 81.118665 276.334125 
L 84.398004 173.271723 
L 87.677342 104.365318 
L 90.956681 62.223233 
L 94.23602 40.631836 
L 97.515359 34.414125 
L 100.794698 39.300869 
L 104.074037 51.813543 
L 107.353376 69.158289 
L 110.632714 89.130199 
L 113.912053 110.027206 
L 117.191392 130.572941 
L 120.470731 149.847896 
L 123.75007 167.228307 
L 127.029409 182.33215 
L 130.308747 194.971714 
L 133.588086 205.112205 
L 136.867425 212.835896 
L 140.146764 218.311314 
L 143.426103 221.76704 
L 146.705442 223.469669 
L 149.98478 223.70553 
L 153.264119 222.765784 
L 156.543458 220.934536 
L 159.822797 218.479609 
L 163.102136 215.64569 
L 166.381475 212.649513 
L 169.660814 209.676836 
L 172.940152 206.880932 
L 176.219491 204.382359 
L 179.49883 202.269802 
L 182.778169 200.601768 
L 186.057508 199.408966 
L 189.336847 198.697187 
L 192.616185 198.450555 
L 195.895524 198.634995 
L 199.174863 199.201804 
L 202.454202 200.091234 
L 205.733541 201.235965 
L 209.01288 202.564429 
L 212.292218 204.003878 
L 215.571557 205.483186 
L 218.850896 206.935305 
L 222.130235 208.299367 
L 225.409574 209.52241 
L 228.688913 210.560701 
L 231.968252 211.380677 
L 235.24759 211.959483 
L 238.526929 212.285151 
L 241.806268 206.908425 
L 245.085607 206.910584 
L 248.364946 206.063466 
L 251.644285 205.08693 
L 254.923623 204.246523 
L 258.202962 203.580418 
L 261.482301 203.116854 
L 264.76164 202.873147 
L 268.040979 202.855195 
L 271.320318 203.057466 
L 274.599657 203.463476 
L 277.878995 204.046731 
L 281.158334 204.772092 
L 284.437673 205.59752 
L 287.717012 206.476124 
L 290.996351 207.35846 
L 294.27569 208.194961 
L 297.555028 208.938443 
L 300.834367 209.546552 
L 304.113706 209.984076 
L 307.393045 210.224997 
L 310.672384 210.254189 
L 313.951723 210.068668 
L 317.231061 209.67829 
L 320.5104 209.105833 
L 323.789739 208.386392 
L 327.069078 207.566052 
L 330.348417 206.699814 
L 333.627756 205.848791 
L 336.907095 205.076722 
L 340.186433 204.445883 
L 343.465772 204.012537 
L 346.745111 203.822096 
L 350.02445 203.904237 
L 353.303789 204.268281 
L 356.583128 204.899202 
L 359.862466 205.754714 
L 363.141805 206.763979 
L 366.421144 207.828554 
L 369.700483 208.826306 
L 372.979822 209.619121 
L 376.259161 210.065369 
L 379.538499 210.038171 
L 382.817838 209.450696 
L 386.097177 208.289822 
L 389.376516 206.659652 
L 392.655855 204.836555 
L 395.935194 203.337538 
L 399.214533 203.003973 
L 402.493871 205.102872 
L 405.77321 211.448091 
" clip-path="url(#pe2121c7819)" style="fill: none; stroke: #9467bd; stroke-width: 1.5; stroke-linecap: square"/>
   </g>
   <g id="line2d_20">
    <path d="M 81.118665 229.626894 
L 83.635088 212.06979 
L 86.151512 186.118581 
L 88.667935 157.501721 
L 91.184359 130.205985 
L 93.700783 106.826675 
L 96.217206 88.867292 
L 98.73363 76.993943 
L 101.250053 71.249372 
L 103.766477 71.231156 
L 106.2829 76.238233 
L 108.799324 85.389608 
L 111.315747 97.718778 
L 113.832171 112.247088 
L 116.348594 128.038982 
L 118.865018 144.241804 
L 121.381442 160.112592 
L 123.897865 175.034033 
L 126.414289 188.521545 
L 128.930712 200.223218 
L 131.447136 209.914185 
L 133.963559 217.486757 
L 136.479983 222.937541 
L 138.996406 226.352536 
L 141.51283 227.891128 
L 144.029253 227.769687 
L 146.545677 226.245419 
L 149.062101 223.600948 
L 151.578524 220.130045 
L 154.094948 216.12479 
L 156.611371 211.864397 
L 159.127795 207.605835 
L 161.644218 203.576315 
L 164.160642 199.967662 
L 166.677065 196.932525 
L 169.193489 194.582353 
L 171.709912 192.987003 
L 174.226336 192.175846 
L 176.74276 192.140179 
L 179.259183 192.836774 
L 181.775607 194.192342 
L 184.29203 196.108711 
L 186.808454 198.468505 
L 189.324877 201.141121 
L 191.841301 203.988785 
L 194.357724 206.872514 
L 196.874148 209.657798 
L 199.390571 212.21983 
L 201.906995 214.448165 
L 204.423419 206.906344 
L 206.939842 206.907165 
L 209.456266 215.499355 
L 211.972689 215.762014 
L 214.489113 215.604815 
L 217.005536 215.04462 
L 219.52196 214.115286 
L 222.038383 212.866081 
L 224.554807 211.359554 
L 227.071231 209.66892 
L 229.587654 207.875046 
L 232.104078 206.063126 
L 234.620501 204.319151 
L 237.136925 202.726291 
L 239.653348 201.361302 
L 242.169772 200.291077 
L 244.686195 199.569489 
L 247.202619 199.234623 
L 249.719042 199.306539 
L 252.235466 199.785671 
L 254.75189 200.651968 
L 257.268313 201.864871 
L 259.784737 203.364195 
L 262.30116 205.07196 
L 264.817584 206.895206 
L 267.334007 208.729781 
L 269.850431 210.465046 
L 272.366854 211.989436 
L 274.883278 213.196716 
L 277.399701 213.992784 
L 279.916125 214.302743 
L 282.432549 214.077965 
L 284.948972 213.302766 
L 287.465396 212.00023 
L 289.981819 210.236661 
L 292.498243 208.124031 
L 295.014666 205.819712 
L 297.53109 203.52265 
L 300.047513 201.465057 
L 302.563937 199.898557 
L 305.08036 199.073597 
L 307.596784 199.210802 
L 310.113208 200.462807 
L 312.629631 202.864934 
L 315.146055 206.272945 
L 317.662478 210.285892 
L 320.178902 214.151943 
L 322.695325 216.654836 
L 325.211749 215.978445 
L 327.728172 209.546694 
L 330.244596 193.835873 
" clip-path="url(#pe2121c7819)" style="fill: none; stroke: #8c564b; stroke-width: 1.5; stroke-linecap: square"/>
   </g>
   <g id="patch_3">
    <path d="M 64.885937 288.430125 
L 64.885937 22.318125 
" style="fill: none; stroke: #000000; stroke-width: 0.8; stroke-linejoin: miter; stroke-linecap: square"/>
   </g>
   <g id="patch_4">
    <path d="M 422.005938 288.430125 
L 422.005938 22.318125 
" style="fill: none; stroke: #000000; stroke-width: 0.8; stroke-linejoin: miter; stroke-linecap: square"/>
   </g>
   <g id="patch_5">
    <path d="M 64.885937 288.430125 
L 422.005937 288.430125 
" style="fill: none; stroke: #000000; stroke-width: 0.8; stroke-linejoin: miter; stroke-linecap: square"/>
   </g>
   <g id="patch_6">
    <path d="M 64.885937 22.318125 
L 422.005937 22.318125 
" style="fill: none; stroke: #000000; stroke-width: 0.8; stroke-linejoin: miter; stroke-linecap: square"/>
   </g>
   <g id="text_17">
    <!-- AD - xtract_prob_Superior_Longitudinal_Fasciculus_2_L -->
    <g transform="translate(79.546563 16.318125) scale(0.12 -0.12)">
     <defs>
      <path id="DejaVuSans-41" d="M 2188 4044 
L 1331 1722 
L 3047 1722 
L 2188 4044 
z
M 1831 4666 
L 2547 4666 
L 4325 0 
L 3669 0 
L 3244 1197 
L 1141 1197 
L 716 0 
L 50 0 
L 1831 4666 
z
" transform="scale(0.015625)"/>
      <path id="DejaVuSans-44" d="M 1259 4147 
L 1259 519 
L 2022 519 
Q 2988 519 3436 956 
Q 3884 1394 3884 2338 
Q 3884 3275 3436 3711 
Q 2988 4147 2022 4147 
L 1259 4147 
z
M 628 4666 
L 1925 4666 
Q 3281 4666 3915 4102 
Q 4550 3538 4550 2338 
Q 4550 1131 3912 565 
Q 3275 0 1925 0 
L 628 0 
L 628 4666 
z
" transform="scale(0.015625)"/>
      <path id="DejaVuSans-2d" d="M 313 2009 
L 1997 2009 
L 1997 1497 
L 313 1497 
L 313 2009 
z
" transform="scale(0.015625)"/>
      <path id="DejaVuSans-74" d="M 1172 4494 
L 1172 3500 
L 2356 3500 
L 2356 3053 
L 1172 3053 
L 1172 1153 
Q 1172 725 1289 603 
Q 1406 481 1766 481 
L 2356 481 
L 2356 0 
L 1766 0 
Q 1100 0 847 248 
Q 594 497 594 1153 
L 594 3053 
L 172 3053 
L 172 3500 
L 594 3500 
L 594 4494 
L 1172 4494 
z
" transform="scale(0.015625)"/>
      <path id="DejaVuSans-5f" d="M 3263 -1063 
L 3263 -1509 
L -63 -1509 
L -63 -1063 
L 3263 -1063 
z
" transform="scale(0.015625)"/>
      <path id="DejaVuSans-70" d="M 1159 525 
L 1159 -1331 
L 581 -1331 
L 581 3500 
L 1159 3500 
L 1159 2969 
Q 1341 3281 1617 3432 
Q 1894 3584 2278 3584 
Q 2916 3584 3314 3078 
Q 3713 2572 3713 1747 
Q 3713 922 3314 415 
Q 2916 -91 2278 -91 
Q 1894 -91 1617 61 
Q 1341 213 1159 525 
z
M 3116 1747 
Q 3116 2381 2855 2742 
Q 2594 3103 2138 3103 
Q 1681 3103 1420 2742 
Q 1159 2381 1159 1747 
Q 1159 1113 1420 752 
Q 1681 391 2138 391 
Q 2594 391 2855 752 
Q 3116 1113 3116 1747 
z
" transform="scale(0.015625)"/>
      <path id="DejaVuSans-6f" d="M 1959 3097 
Q 1497 3097 1228 2736 
Q 959 2375 959 1747 
Q 959 1119 1226 758 
Q 1494 397 1959 397 
Q 2419 397 2687 759 
Q 2956 1122 2956 1747 
Q 2956 2369 2687 2733 
Q 2419 3097 1959 3097 
z
M 1959 3584 
Q 2709 3584 3137 3096 
Q 3566 2609 3566 1747 
Q 3566 888 3137 398 
Q 2709 -91 1959 -91 
Q 1206 -91 779 398 
Q 353 888 353 1747 
Q 353 2609 779 3096 
Q 1206 3584 1959 3584 
z
" transform="scale(0.015625)"/>
      <path id="DejaVuSans-62" d="M 3116 1747 
Q 3116 2381 2855 2742 
Q 2594 3103 2138 3103 
Q 1681 3103 1420 2742 
Q 1159 2381 1159 1747 
Q 1159 1113 1420 752 
Q 1681 391 2138 391 
Q 2594 391 2855 752 
Q 3116 1113 3116 1747 
z
M 1159 2969 
Q 1341 3281 1617 3432 
Q 1894 3584 2278 3584 
Q 2916 3584 3314 3078 
Q 3713 2572 3713 1747 
Q 3713 922 3314 415 
Q 2916 -91 2278 -91 
Q 1894 -91 1617 61 
Q 1341 213 1159 525 
L 1159 0 
L 581 0 
L 581 4863 
L 1159 4863 
L 1159 2969 
z
" transform="scale(0.015625)"/>
      <path id="DejaVuSans-53" d="M 3425 4513 
L 3425 3897 
Q 3066 4069 2747 4153 
Q 2428 4238 2131 4238 
Q 1616 4238 1336 4038 
Q 1056 3838 1056 3469 
Q 1056 3159 1242 3001 
Q 1428 2844 1947 2747 
L 2328 2669 
Q 3034 2534 3370 2195 
Q 3706 1856 3706 1288 
Q 3706 609 3251 259 
Q 2797 -91 1919 -91 
Q 1588 -91 1214 -16 
Q 841 59 441 206 
L 441 856 
Q 825 641 1194 531 
Q 1563 422 1919 422 
Q 2459 422 2753 634 
Q 3047 847 3047 1241 
Q 3047 1584 2836 1778 
Q 2625 1972 2144 2069 
L 1759 2144 
Q 1053 2284 737 2584 
Q 422 2884 422 3419 
Q 422 4038 858 4394 
Q 1294 4750 2059 4750 
Q 2388 4750 2728 4690 
Q 3069 4631 3425 4513 
z
" transform="scale(0.015625)"/>
      <path id="DejaVuSans-4c" d="M 628 4666 
L 1259 4666 
L 1259 531 
L 3531 531 
L 3531 0 
L 628 0 
L 628 4666 
z
" transform="scale(0.015625)"/>
      <path id="DejaVuSans-67" d="M 2906 1791 
Q 2906 2416 2648 2759 
Q 2391 3103 1925 3103 
Q 1463 3103 1205 2759 
Q 947 2416 947 1791 
Q 947 1169 1205 825 
Q 1463 481 1925 481 
Q 2391 481 2648 825 
Q 2906 1169 2906 1791 
z
M 3481 434 
Q 3481 -459 3084 -895 
Q 2688 -1331 1869 -1331 
Q 1566 -1331 1297 -1286 
Q 1028 -1241 775 -1147 
L 775 -588 
Q 1028 -725 1275 -790 
Q 1522 -856 1778 -856 
Q 2344 -856 2625 -561 
Q 2906 -266 2906 331 
L 2906 616 
Q 2728 306 2450 153 
Q 2172 0 1784 0 
Q 1141 0 747 490 
Q 353 981 353 1791 
Q 353 2603 747 3093 
Q 1141 3584 1784 3584 
Q 2172 3584 2450 3431 
Q 2728 3278 2906 2969 
L 2906 3500 
L 3481 3500 
L 3481 434 
z
" transform="scale(0.015625)"/>
      <path id="DejaVuSans-64" d="M 2906 2969 
L 2906 4863 
L 3481 4863 
L 3481 0 
L 2906 0 
L 2906 525 
Q 2725 213 2448 61 
Q 2172 -91 1784 -91 
Q 1150 -91 751 415 
Q 353 922 353 1747 
Q 353 2572 751 3078 
Q 1150 3584 1784 3584 
Q 2172 3584 2448 3432 
Q 2725 3281 2906 2969 
z
M 947 1747 
Q 947 1113 1208 752 
Q 1469 391 1925 391 
Q 2381 391 2643 752 
Q 2906 1113 2906 1747 
Q 2906 2381 2643 2742 
Q 2381 3103 1925 3103 
Q 1469 3103 1208 2742 
Q 947 2381 947 1747 
z
" transform="scale(0.015625)"/>
     </defs>
     <use xlink:href="#DejaVuSans-41"/>
     <use xlink:href="#DejaVuSans-44" x="68.408203"/>
     <use xlink:href="#DejaVuSans-20" x="145.410156"/>
     <use xlink:href="#DejaVuSans-2d" x="177.197266"/>
     <use xlink:href="#DejaVuSans-20" x="213.28125"/>
     <use xlink:href="#DejaVuSans-78" x="245.068359"/>
     <use xlink:href="#DejaVuSans-74" x="304.248047"/>
     <use xlink:href="#DejaVuSans-72" x="343.457031"/>
     <use xlink:href="#DejaVuSans-61" x="384.570312"/>
     <use xlink:href="#DejaVuSans-63" x="445.849609"/>
     <use xlink:href="#DejaVuSans-74" x="500.830078"/>
     <use xlink:href="#DejaVuSans-5f" x="540.039062"/>
     <use xlink:href="#DejaVuSans-70" x="590.039062"/>
     <use xlink:href="#DejaVuSans-72" x="653.515625"/>
     <use xlink:href="#DejaVuSans-6f" x="692.378906"/>
     <use xlink:href="#DejaVuSans-62" x="753.560547"/>
     <use xlink:href="#DejaVuSans-5f" x="817.037109"/>
     <use xlink:href="#DejaVuSans-53" x="867.037109"/>
     <use xlink:href="#DejaVuSans-75" x="930.513672"/>
     <use xlink:href="#DejaVuSans-70" x="993.892578"/>
     <use xlink:href="#DejaVuSans-65" x="1057.369141"/>
     <use xlink:href="#DejaVuSans-72" x="1118.892578"/>
     <use xlink:href="#DejaVuSans-69" x="1160.005859"/>
     <use xlink:href="#DejaVuSans-6f" x="1187.789062"/>
     <use xlink:href="#DejaVuSans-72" x="1248.970703"/>
     <use xlink:href="#DejaVuSans-5f" x="1290.083984"/>
     <use xlink:href="#DejaVuSans-4c" x="1340.083984"/>
     <use xlink:href="#DejaVuSans-6f" x="1394.046875"/>
     <use xlink:href="#DejaVuSans-6e" x="1455.228516"/>
     <use xlink:href="#DejaVuSans-67" x="1518.607422"/>
     <use xlink:href="#DejaVuSans-69" x="1582.083984"/>
     <use xlink:href="#DejaVuSans-74" x="1609.867188"/>
     <use xlink:href="#DejaVuSans-75" x="1649.076172"/>
     <use xlink:href="#DejaVuSans-64" x="1712.455078"/>
     <use xlink:href="#DejaVuSans-69" x="1775.931641"/>
     <use xlink:href="#DejaVuSans-6e" x="1803.714844"/>
     <use xlink:href="#DejaVuSans-61" x="1867.09375"/>
     <use xlink:href="#DejaVuSans-6c" x="1928.373047"/>
     <use xlink:href="#DejaVuSans-5f" x="1956.15625"/>
     <use xlink:href="#DejaVuSans-46" x="2006.15625"/>
     <use xlink:href="#DejaVuSans-61" x="2054.550781"/>
     <use xlink:href="#DejaVuSans-73" x="2115.830078"/>
     <use xlink:href="#DejaVuSans-63" x="2167.929688"/>
     <use xlink:href="#DejaVuSans-69" x="2222.910156"/>
     <use xlink:href="#DejaVuSans-63" x="2250.693359"/>
     <use xlink:href="#DejaVuSans-75" x="2305.673828"/>
     <use xlink:href="#DejaVuSans-6c" x="2369.052734"/>
     <use xlink:href="#DejaVuSans-75" x="2396.835938"/>
     <use xlink:href="#DejaVuSans-73" x="2460.214844"/>
     <use xlink:href="#DejaVuSans-5f" x="2512.314453"/>
     <use xlink:href="#DejaVuSans-32" x="2562.314453"/>
     <use xlink:href="#DejaVuSans-5f" x="2625.9375"/>
     <use xlink:href="#DejaVuSans-4c" x="2675.9375"/>
    </g>
   </g>
   <g id="legend_1">
    <g id="patch_7">
     <path d="M 464.717938 146.666825 
L 562.574188 146.666825 
Q 564.574188 146.666825 564.574188 144.666825 
L 564.574188 55.929325 
Q 564.574188 53.929325 562.574188 53.929325 
L 464.717938 53.929325 
Q 462.717938 53.929325 462.717938 55.929325 
L 462.717938 144.666825 
Q 462.717938 146.666825 464.717938 146.666825 
z
" style="fill: #ffffff; opacity: 0.8; stroke: #cccccc; stroke-linejoin: miter"/>
    </g>
    <g id="line2d_21">
     <path d="M 466.717938 62.027762 
L 476.717938 62.027762 
L 486.717938 62.027762 
" style="fill: none; stroke: #1f77b4; stroke-width: 1.5; stroke-linecap: square"/>
    </g>
    <g id="text_18">
     <!-- 20_06_02_E3 -->
     <g transform="translate(494.717938 65.527762) scale(0.1 -0.1)">
      <defs>
       <path id="DejaVuSans-45" d="M 628 4666 
L 3578 4666 
L 3578 4134 
L 1259 4134 
L 1259 2753 
L 3481 2753 
L 3481 2222 
L 1259 2222 
L 1259 531 
L 3634 531 
L 3634 0 
L 628 0 
L 628 4666 
z
" transform="scale(0.015625)"/>
       <path id="DejaVuSans-33" d="M 2597 2516 
Q 3050 2419 3304 2112 
Q 3559 1806 3559 1356 
Q 3559 666 3084 287 
Q 2609 -91 1734 -91 
Q 1441 -91 1130 -33 
Q 819 25 488 141 
L 488 750 
Q 750 597 1062 519 
Q 1375 441 1716 441 
Q 2309 441 2620 675 
Q 2931 909 2931 1356 
Q 2931 1769 2642 2001 
Q 2353 2234 1838 2234 
L 1294 2234 
L 1294 2753 
L 1863 2753 
Q 2328 2753 2575 2939 
Q 2822 3125 2822 3475 
Q 2822 3834 2567 4026 
Q 2313 4219 1838 4219 
Q 1578 4219 1281 4162 
Q 984 4106 628 3988 
L 628 4550 
Q 988 4650 1302 4700 
Q 1616 4750 1894 4750 
Q 2613 4750 3031 4423 
Q 3450 4097 3450 3541 
Q 3450 3153 3228 2886 
Q 3006 2619 2597 2516 
z
" transform="scale(0.015625)"/>
      </defs>
      <use xlink:href="#DejaVuSans-32"/>
      <use xlink:href="#DejaVuSans-30" x="63.623047"/>
      <use xlink:href="#DejaVuSans-5f" x="127.246094"/>
      <use xlink:href="#DejaVuSans-30" x="177.246094"/>
      <use xlink:href="#DejaVuSans-36" x="240.869141"/>
      <use xlink:href="#DejaVuSans-5f" x="304.492188"/>
      <use xlink:href="#DejaVuSans-30" x="354.492188"/>
      <use xlink:href="#DejaVuSans-32" x="418.115234"/>
      <use xlink:href="#DejaVuSans-5f" x="481.738281"/>
      <use xlink:href="#DejaVuSans-45" x="531.738281"/>
      <use xlink:href="#DejaVuSans-33" x="594.921875"/>
     </g>
    </g>
    <g id="line2d_22">
     <path d="M 466.717938 76.984013 
L 476.717938 76.984013 
L 486.717938 76.984013 
" style="fill: none; stroke: #ff7f0e; stroke-width: 1.5; stroke-linecap: square"/>
    </g>
    <g id="text_19">
     <!-- 20_05_01_E3 -->
     <g transform="translate(494.717938 80.484013) scale(0.1 -0.1)">
      <use xlink:href="#DejaVuSans-32"/>
      <use xlink:href="#DejaVuSans-30" x="63.623047"/>
      <use xlink:href="#DejaVuSans-5f" x="127.246094"/>
      <use xlink:href="#DejaVuSans-30" x="177.246094"/>
      <use xlink:href="#DejaVuSans-35" x="240.869141"/>
      <use xlink:href="#DejaVuSans-5f" x="304.492188"/>
      <use xlink:href="#DejaVuSans-30" x="354.492188"/>
      <use xlink:href="#DejaVuSans-31" x="418.115234"/>
      <use xlink:href="#DejaVuSans-5f" x="481.738281"/>
      <use xlink:href="#DejaVuSans-45" x="531.738281"/>
      <use xlink:href="#DejaVuSans-33" x="594.921875"/>
     </g>
    </g>
    <g id="line2d_23">
     <path d="M 466.717938 91.940262 
L 476.717938 91.940262 
L 486.717938 91.940262 
" style="fill: none; stroke: #2ca02c; stroke-width: 1.5; stroke-linecap: square"/>
    </g>
    <g id="text_20">
     <!-- 20_02_02_E3 -->
     <g transform="translate(494.717938 95.440262) scale(0.1 -0.1)">
      <use xlink:href="#DejaVuSans-32"/>
      <use xlink:href="#DejaVuSans-30" x="63.623047"/>
      <use xlink:href="#DejaVuSans-5f" x="127.246094"/>
      <use xlink:href="#DejaVuSans-30" x="177.246094"/>
      <use xlink:href="#DejaVuSans-32" x="240.869141"/>
      <use xlink:href="#DejaVuSans-5f" x="304.492188"/>
      <use xlink:href="#DejaVuSans-30" x="354.492188"/>
      <use xlink:href="#DejaVuSans-32" x="418.115234"/>
      <use xlink:href="#DejaVuSans-5f" x="481.738281"/>
      <use xlink:href="#DejaVuSans-45" x="531.738281"/>
      <use xlink:href="#DejaVuSans-33" x="594.921875"/>
     </g>
    </g>
    <g id="line2d_24">
     <path d="M 466.717938 106.896513 
L 476.717938 106.896513 
L 486.717938 106.896513 
" style="fill: none; stroke: #d62728; stroke-width: 1.5; stroke-linecap: square"/>
    </g>
    <g id="text_21">
     <!-- 20_10_02_E3 -->
     <g transform="translate(494.717938 110.396513) scale(0.1 -0.1)">
      <use xlink:href="#DejaVuSans-32"/>
      <use xlink:href="#DejaVuSans-30" x="63.623047"/>
      <use xlink:href="#DejaVuSans-5f" x="127.246094"/>
      <use xlink:href="#DejaVuSans-31" x="177.246094"/>
      <use xlink:href="#DejaVuSans-30" x="240.869141"/>
      <use xlink:href="#DejaVuSans-5f" x="304.492188"/>
      <use xlink:href="#DejaVuSans-30" x="354.492188"/>
      <use xlink:href="#DejaVuSans-32" x="418.115234"/>
      <use xlink:href="#DejaVuSans-5f" x="481.738281"/>
      <use xlink:href="#DejaVuSans-45" x="531.738281"/>
      <use xlink:href="#DejaVuSans-33" x="594.921875"/>
     </g>
    </g>
    <g id="line2d_25">
     <path d="M 466.717938 121.852762 
L 476.717938 121.852762 
L 486.717938 121.852762 
" style="fill: none; stroke: #9467bd; stroke-width: 1.5; stroke-linecap: square"/>
    </g>
    <g id="text_22">
     <!-- 20_08_02_E3 -->
     <g transform="translate(494.717938 125.352762) scale(0.1 -0.1)">
      <use xlink:href="#DejaVuSans-32"/>
      <use xlink:href="#DejaVuSans-30" x="63.623047"/>
      <use xlink:href="#DejaVuSans-5f" x="127.246094"/>
      <use xlink:href="#DejaVuSans-30" x="177.246094"/>
      <use xlink:href="#DejaVuSans-38" x="240.869141"/>
      <use xlink:href="#DejaVuSans-5f" x="304.492188"/>
      <use xlink:href="#DejaVuSans-30" x="354.492188"/>
      <use xlink:href="#DejaVuSans-32" x="418.115234"/>
      <use xlink:href="#DejaVuSans-5f" x="481.738281"/>
      <use xlink:href="#DejaVuSans-45" x="531.738281"/>
      <use xlink:href="#DejaVuSans-33" x="594.921875"/>
     </g>
    </g>
    <g id="line2d_26">
     <path d="M 466.717938 136.809012 
L 476.717938 136.809012 
L 486.717938 136.809012 
" style="fill: none; stroke: #8c564b; stroke-width: 1.5; stroke-linecap: square"/>
    </g>
    <g id="text_23">
     <!-- 20_11_02_E3 -->
     <g transform="translate(494.717938 140.309012) scale(0.1 -0.1)">
      <use xlink:href="#DejaVuSans-32"/>
      <use xlink:href="#DejaVuSans-30" x="63.623047"/>
      <use xlink:href="#DejaVuSans-5f" x="127.246094"/>
      <use xlink:href="#DejaVuSans-31" x="177.246094"/>
      <use xlink:href="#DejaVuSans-31" x="240.869141"/>
      <use xlink:href="#DejaVuSans-5f" x="304.492188"/>
      <use xlink:href="#DejaVuSans-30" x="354.492188"/>
      <use xlink:href="#DejaVuSans-32" x="418.115234"/>
      <use xlink:href="#DejaVuSans-5f" x="481.738281"/>
      <use xlink:href="#DejaVuSans-45" x="531.738281"/>
      <use xlink:href="#DejaVuSans-33" x="594.921875"/>
     </g>
    </g>
   </g>
  </g>
 </g>
 <defs>
  <clipPath id="pe2121c7819">
   <rect x="64.885937" y="22.318125" width="357.12" height="266.112"/>
  </clipPath>
 </defs>
</svg>
