<?xml version="1.0" encoding="utf-8" standalone="no"?>
<!DOCTYPE svg PUBLIC "-//W3C//DTD SVG 1.1//EN"
  "http://www.w3.org/Graphics/SVG/1.1/DTD/svg11.dtd">
<svg xmlns:xlink="http://www.w3.org/1999/xlink" width="557.032pt" height="325.986375pt" viewBox="0 0 557.032 325.986375" xmlns="http://www.w3.org/2000/svg" version="1.1">
 <metadata>
  <rdf:RDF xmlns:dc="http://purl.org/dc/elements/1.1/" xmlns:cc="http://creativecommons.org/ns#" xmlns:rdf="http://www.w3.org/1999/02/22-rdf-syntax-ns#">
   <cc:Work>
    <dc:type rdf:resource="http://purl.org/dc/dcmitype/StillImage"/>
    <dc:date>2023-02-07T22:59:56.761915</dc:date>
    <dc:format>image/svg+xml</dc:format>
    <dc:creator>
     <cc:Agent>
      <dc:title>Matplotlib v3.6.2, https://matplotlib.org/</dc:title>
     </cc:Agent>
    </dc:creator>
   </cc:Work>
  </rdf:RDF>
 </metadata>
 <defs>
  <style type="text/css">*{stroke-linejoin: round; stroke-linecap: butt}</style>
 </defs>
 <g id="figure_1">
  <g id="patch_1">
   <path d="M 0 325.986375 
L 557.032 325.986375 
L 557.032 0 
L 0 0 
z
" style="fill: #ffffff"/>
  </g>
  <g id="axes_1">
   <g id="patch_2">
    <path d="M 50.14375 288.430125 
L 407.26375 288.430125 
L 407.26375 22.318125 
L 50.14375 22.318125 
z
" style="fill: #ffffff"/>
   </g>
   <g id="PolyCollection_1">
    <path d="M 66.376477 254.222376 
L 66.376477 259.187209 
L 69.655816 259.187209 
L 72.935155 259.187209 
L 76.214494 259.187209 
L 79.493833 259.187209 
L 82.773171 259.187209 
L 86.05251 259.187209 
L 89.331849 259.187209 
L 92.611188 259.187209 
L 95.890527 259.187209 
L 99.169866 259.187209 
L 102.449205 259.187209 
L 105.728543 259.187209 
L 109.007882 259.187209 
L 112.287221 259.187209 
L 115.56656 259.187209 
L 118.845899 259.187209 
L 122.125238 259.187209 
L 125.404576 259.187209 
L 128.683915 259.187209 
L 131.963254 259.187209 
L 135.242593 259.187209 
L 138.521932 259.187209 
L 141.801271 259.187209 
L 145.08061 259.187209 
L 148.359948 259.187209 
L 151.639287 259.187209 
L 154.918626 259.187209 
L 158.197965 259.187209 
L 161.477304 259.187209 
L 164.756643 259.187209 
L 168.035981 259.187209 
L 171.31532 259.187209 
L 174.594659 259.187209 
L 177.873998 259.187209 
L 181.153337 259.187209 
L 184.432676 259.187209 
L 187.712014 259.187209 
L 190.991353 259.187209 
L 194.270692 259.187209 
L 197.550031 259.187209 
L 200.82937 259.187209 
L 204.108709 259.187209 
L 207.388048 259.187209 
L 210.667386 259.187209 
L 213.946725 259.187209 
L 217.226064 259.187209 
L 220.505403 259.187209 
L 223.784742 259.187209 
L 227.064081 259.187209 
L 230.343419 259.187209 
L 233.622758 259.187209 
L 236.902097 259.187209 
L 240.181436 259.187209 
L 243.460775 259.187209 
L 246.740114 259.187209 
L 250.019452 259.187209 
L 253.298791 259.187209 
L 256.57813 259.187209 
L 259.857469 259.187209 
L 263.136808 259.187209 
L 266.416147 259.187209 
L 269.695486 259.187209 
L 272.974824 259.187209 
L 276.254163 259.187209 
L 279.533502 259.187209 
L 282.812841 259.187209 
L 286.09218 259.187209 
L 289.371519 259.187209 
L 292.650857 259.187209 
L 295.930196 259.187209 
L 299.209535 259.187209 
L 302.488874 259.187209 
L 305.768213 259.187209 
L 309.047552 259.187209 
L 312.32689 259.187209 
L 315.606229 259.187209 
L 318.885568 259.187209 
L 322.164907 259.187209 
L 325.444246 259.187209 
L 328.723585 259.187209 
L 332.002924 259.187209 
L 335.282262 259.187209 
L 338.561601 259.187209 
L 341.84094 259.187209 
L 345.120279 259.187209 
L 348.399618 259.187209 
L 351.678957 259.187209 
L 354.958295 259.187209 
L 358.237634 259.187209 
L 361.516973 259.187209 
L 364.796312 259.187209 
L 368.075651 259.187209 
L 371.35499 259.187209 
L 374.634329 259.187209 
L 377.913667 259.187209 
L 381.193006 259.187209 
L 384.472345 259.187209 
L 387.751684 259.187209 
L 391.031023 259.187209 
L 391.031023 249.081917 
L 391.031023 249.081917 
L 387.751684 252.187054 
L 384.472345 255.16821 
L 381.193006 257.768213 
L 377.913667 259.825084 
L 374.634329 261.253015 
L 371.35499 262.025699 
L 368.075651 262.161869 
L 364.796312 261.71285 
L 361.516973 260.75197 
L 358.237634 259.365683 
L 354.958295 257.646236 
L 351.678957 255.685746 
L 348.399618 253.571543 
L 345.120279 251.382641 
L 341.84094 249.18722 
L 338.561601 247.040982 
L 335.282262 244.986288 
L 332.002924 243.051939 
L 328.723585 241.253525 
L 325.444246 239.594227 
L 322.164907 238.065993 
L 318.885568 236.651001 
L 315.606229 235.32333 
L 312.32689 234.05077 
L 309.047552 232.796714 
L 305.768213 231.522052 
L 302.488874 230.187046 
L 299.209535 228.753113 
L 295.930196 227.184488 
L 292.650857 225.449733 
L 289.371519 223.523059 
L 286.09218 221.385443 
L 282.812841 219.025516 
L 279.533502 216.440213 
L 276.254163 213.635181 
L 272.974824 210.624933 
L 269.695486 207.432757 
L 266.416147 204.090386 
L 263.136808 200.637435 
L 259.857469 197.120618 
L 256.57813 193.592776 
L 253.298791 190.111713 
L 250.019452 186.738888 
L 246.740114 183.537975 
L 243.460775 180.573322 
L 240.181436 177.908339 
L 236.902097 175.603861 
L 233.622758 173.71649 
L 230.343419 259.175479 
L 227.064081 259.175936 
L 223.784742 170.432 
L 220.505403 170.689358 
L 217.226064 171.558772 
L 213.946725 173.037054 
L 210.667386 175.106785 
L 207.388048 177.736082 
L 204.108709 180.878709 
L 200.82937 184.474524 
L 197.550031 188.450292 
L 194.270692 192.720844 
L 190.991353 197.190596 
L 187.712014 201.755404 
L 184.432676 206.304746 
L 181.153337 210.724205 
L 177.873998 214.898221 
L 174.594659 218.713074 
L 171.31532 222.060051 
L 168.035981 224.838748 
L 164.756643 226.960441 
L 161.477304 228.351457 
L 158.197965 228.956472 
L 154.918626 228.741645 
L 151.639287 227.697502 
L 148.359948 225.841458 
L 145.08061 223.219877 
L 141.801271 219.909552 
L 138.521932 216.018466 
L 135.242593 211.685717 
L 131.963254 207.080454 
L 128.683915 202.399678 
L 125.404576 197.864749 
L 122.125238 193.716432 
L 118.845899 190.208313 
L 115.56656 187.598402 
L 112.287221 186.138735 
L 109.007882 186.062785 
L 105.728543 187.570472 
L 102.449205 190.810579 
L 99.169866 195.860347 
L 95.890527 202.702035 
L 92.611188 211.196229 
L 89.331849 221.051657 
L 86.05251 231.791278 
L 82.773171 242.714424 
L 79.493833 252.854727 
L 76.214494 260.933608 
L 72.935155 265.309059 
L 69.655816 263.919491 
L 66.376477 254.222376 
z
" clip-path="url(#p00f0fac820)" style="fill: #1f77b4; fill-opacity: 0.166667"/>
   </g>
   <g id="PolyCollection_2">
    <path d="M 66.376477 259.448561 
L 66.376477 259.187209 
L 69.655816 259.187209 
L 72.935155 259.187209 
L 76.214493 259.187209 
L 79.493832 259.187209 
L 82.773171 259.187209 
L 86.052509 259.187209 
L 89.331848 259.187209 
L 92.611186 259.187209 
L 95.890525 259.187209 
L 99.169864 259.187209 
L 102.449202 259.187209 
L 105.728541 259.187209 
L 109.00788 259.187209 
L 112.287218 259.187209 
L 115.566557 259.187209 
L 118.845896 259.187209 
L 122.125234 259.187209 
L 125.404573 259.187209 
L 128.683912 259.187209 
L 131.96325 259.187209 
L 135.242589 259.187209 
L 138.521928 259.187209 
L 141.801266 259.187209 
L 145.080605 259.187209 
L 148.359943 259.187209 
L 151.639282 259.187209 
L 154.918621 259.187209 
L 158.197959 259.187209 
L 161.477298 259.187209 
L 164.756637 259.187209 
L 168.035975 259.187209 
L 171.315314 259.187209 
L 174.594653 259.187209 
L 177.873991 259.187209 
L 181.15333 259.187209 
L 184.432669 259.187209 
L 187.712007 259.187209 
L 190.991346 259.187209 
L 194.270685 259.187209 
L 197.550023 259.187209 
L 200.829362 259.187209 
L 204.1087 259.187209 
L 207.388039 259.187209 
L 210.667378 259.187209 
L 213.946716 259.187209 
L 217.226055 259.187209 
L 220.505394 259.187209 
L 223.784732 259.187209 
L 227.064071 259.187209 
L 230.34341 259.187209 
L 233.622748 259.187209 
L 236.902087 259.187209 
L 240.181426 259.187209 
L 243.460764 259.187209 
L 246.740103 259.187209 
L 250.019442 259.187209 
L 253.29878 259.187209 
L 256.578119 259.187209 
L 259.857457 259.187209 
L 263.136796 259.187209 
L 266.416135 259.187209 
L 269.695473 259.187209 
L 272.974812 259.187209 
L 276.254151 259.187209 
L 279.533489 259.187209 
L 282.812828 259.187209 
L 286.092167 259.187209 
L 289.371505 259.187209 
L 292.650844 259.187209 
L 295.930183 259.187209 
L 299.209521 259.187209 
L 302.48886 259.187209 
L 305.768199 259.187209 
L 309.047537 259.187209 
L 312.326876 259.187209 
L 315.606214 259.187209 
L 318.885553 259.187209 
L 322.164892 259.187209 
L 325.44423 259.187209 
L 328.723569 259.187209 
L 332.002908 259.187209 
L 335.282246 259.187209 
L 338.561585 259.187209 
L 341.840924 259.187209 
L 345.120262 259.187209 
L 348.399601 259.187209 
L 351.67894 259.187209 
L 354.958278 259.187209 
L 358.237617 259.187209 
L 361.516956 259.187209 
L 364.796294 259.187209 
L 368.075633 259.187209 
L 371.354971 259.187209 
L 374.63431 259.187209 
L 377.913649 259.187209 
L 381.192987 259.187209 
L 384.472326 259.187209 
L 387.751665 259.187209 
L 391.031003 259.187209 
L 391.031003 253.078729 
L 391.031003 253.078729 
L 387.751665 254.899995 
L 384.472326 256.548586 
L 381.192987 257.95148 
L 377.913649 259.059204 
L 374.63431 259.841831 
L 371.354971 260.285364 
L 368.075633 260.38848 
L 364.796294 260.159629 
L 361.516956 259.614492 
L 358.237617 258.773771 
L 354.958278 257.661302 
L 351.67894 256.302476 
L 348.399601 254.722951 
L 345.120262 252.947622 
L 341.840924 250.999853 
L 338.561585 248.90092 
L 335.282246 246.669672 
L 332.002908 244.322357 
L 328.723569 241.872621 
L 325.44423 239.331631 
L 322.164892 236.708321 
L 318.885553 234.009716 
L 315.606214 231.24134 
L 312.326876 228.407668 
L 309.047537 225.512599 
L 305.768199 222.559961 
L 302.48886 219.55399 
L 299.209521 216.499802 
L 295.930183 213.403825 
L 292.650844 210.274182 
L 289.371505 207.121021 
L 286.092167 203.956769 
L 282.812828 200.796317 
L 279.533489 197.657122 
L 276.254151 194.559219 
L 272.974812 191.525149 
L 269.695473 188.5798 
L 266.416135 185.750153 
L 263.136796 183.064952 
L 259.857457 180.554286 
L 256.578119 178.249106 
L 253.29878 176.180667 
L 250.019442 174.379915 
L 246.740103 172.876833 
L 243.460764 171.699745 
L 240.181426 170.874602 
L 236.902087 170.42426 
L 233.622748 170.367762 
L 230.34341 259.174095 
L 227.064071 259.174356 
L 223.784732 172.492631 
L 220.505394 174.088336 
L 217.226055 176.103272 
L 213.946716 178.520959 
L 210.667378 181.317146 
L 207.388039 184.459739 
L 204.1087 187.908889 
L 200.829362 191.617254 
L 197.550023 195.530441 
L 194.270685 199.587638 
L 190.991346 203.722438 
L 187.712007 207.863849 
L 184.432669 211.937494 
L 181.15333 215.866994 
L 177.873991 219.575523 
L 174.594653 222.987512 
L 171.315314 226.030497 
L 168.035975 228.637075 
L 164.756637 230.746945 
L 161.477298 232.308995 
L 158.197959 233.283401 
L 154.918621 233.643683 
L 151.639282 233.378669 
L 148.359943 232.49431 
L 145.080605 231.015274 
L 141.801266 228.986245 
L 138.521928 226.472847 
L 135.242589 223.562104 
L 131.96325 220.36233 
L 128.683912 217.002347 
L 125.404573 213.629912 
L 122.125234 210.409226 
L 118.845896 207.517387 
L 115.566557 205.13964 
L 112.287218 203.463273 
L 109.00788 202.669969 
L 105.728541 202.926461 
L 102.449202 204.373276 
L 99.169864 207.111369 
L 95.890525 211.186436 
L 92.611186 216.570659 
L 89.331848 223.141654 
L 86.052509 230.658356 
L 82.773171 238.733565 
L 79.493832 246.80287 
L 76.214493 254.089644 
L 72.935155 259.565793 
L 69.655816 261.907921 
L 66.376477 259.448561 
z
" clip-path="url(#p00f0fac820)" style="fill: #ff7f0e; fill-opacity: 0.166667"/>
   </g>
   <g id="PolyCollection_3">
    <path d="M 66.376477 276.334125 
L 66.376477 259.187209 
L 69.655816 259.187209 
L 72.935155 259.187209 
L 76.214493 259.187209 
L 79.493832 259.187209 
L 82.773171 259.187209 
L 86.052509 259.187209 
L 89.331848 259.187209 
L 92.611186 259.187209 
L 95.890525 259.187209 
L 99.169864 259.187209 
L 102.449202 259.187209 
L 105.728541 259.187209 
L 109.00788 259.187209 
L 112.287218 259.187209 
L 115.566557 259.187209 
L 118.845896 259.187209 
L 122.125234 259.187209 
L 125.404573 259.187209 
L 128.683912 259.187209 
L 131.96325 259.187209 
L 135.242589 259.187209 
L 138.521928 259.187209 
L 141.801266 259.187209 
L 145.080605 259.187209 
L 148.359943 259.187209 
L 151.639282 259.187209 
L 154.918621 259.187209 
L 158.197959 259.187209 
L 161.477298 259.187209 
L 164.756637 259.187209 
L 168.035975 259.187209 
L 171.315314 259.187209 
L 174.594653 259.187209 
L 177.873991 259.187209 
L 181.15333 259.187209 
L 184.432669 259.187209 
L 187.712007 259.187209 
L 190.991346 259.187209 
L 194.270685 259.187209 
L 197.550023 259.187209 
L 200.829362 259.187209 
L 204.1087 259.187209 
L 207.388039 259.187209 
L 210.667378 259.187209 
L 213.946716 259.187209 
L 217.226055 259.187209 
L 220.505394 259.187209 
L 223.784732 259.187209 
L 227.064071 259.187209 
L 230.34341 259.187209 
L 233.622748 259.187209 
L 236.902087 259.187209 
L 240.181426 259.187209 
L 243.460764 259.187209 
L 246.740103 259.187209 
L 250.019442 259.187209 
L 253.29878 259.187209 
L 256.578119 259.187209 
L 259.857457 259.187209 
L 263.136796 259.187209 
L 266.416135 259.187209 
L 269.695473 259.187209 
L 272.974812 259.187209 
L 276.254151 259.187209 
L 279.533489 259.187209 
L 282.812828 259.187209 
L 286.092167 259.187209 
L 289.371505 259.187209 
L 292.650844 259.187209 
L 295.930183 259.187209 
L 299.209521 259.187209 
L 302.48886 259.187209 
L 305.768199 259.187209 
L 309.047537 259.187209 
L 312.326876 259.187209 
L 315.606214 259.187209 
L 318.885553 259.187209 
L 322.164892 259.187209 
L 325.44423 259.187209 
L 328.723569 259.187209 
L 332.002908 259.187209 
L 335.282246 259.187209 
L 338.561585 259.187209 
L 341.840924 259.187209 
L 345.120262 259.187209 
L 348.399601 259.187209 
L 351.67894 259.187209 
L 354.958278 259.187209 
L 358.237617 259.187209 
L 361.516956 259.187209 
L 364.796294 259.187209 
L 368.075633 259.187209 
L 371.354971 259.187209 
L 374.63431 259.187209 
L 377.913649 259.187209 
L 381.192987 259.187209 
L 384.472326 259.187209 
L 387.751665 259.187209 
L 391.031003 259.187209 
L 391.031003 208.60496 
L 391.031003 208.60496 
L 387.751665 240.100789 
L 384.472326 257.448045 
L 381.192987 265.314532 
L 377.913649 267.205568 
L 374.63431 265.685042 
L 371.354971 262.564524 
L 368.075633 259.063858 
L 364.796294 255.946399 
L 361.516956 253.631825 
L 358.237617 252.289199 
L 354.958278 251.91275 
L 351.67894 252.38262 
L 348.399601 253.51264 
L 345.120262 255.086984 
L 341.840924 256.887402 
L 338.561585 258.712533 
L 335.282246 260.390673 
L 332.002908 261.787205 
L 328.723569 262.807755 
L 325.44423 263.398036 
L 322.164892 263.541191 
L 318.885553 263.253357 
L 315.606214 262.578053 
L 312.326876 261.579913 
L 309.047537 260.338188 
L 305.768199 258.940375 
L 302.48886 257.476233 
L 299.209521 256.032419 
L 295.930183 254.68788 
L 292.650844 253.51011 
L 289.371505 252.552329 
L 286.092167 251.851592 
L 282.812828 251.427823 
L 279.533489 251.283705 
L 276.254151 251.405376 
L 272.974812 251.76383 
L 269.695473 252.316909 
L 266.416135 253.011786 
L 263.136796 253.7878 
L 259.857457 254.579529 
L 256.578119 255.319968 
L 253.29878 255.943678 
L 250.019442 256.389821 
L 246.740103 256.604927 
L 243.460764 256.545341 
L 240.181426 256.179226 
L 236.902087 255.488076 
L 233.622748 254.467668 
L 230.34341 259.18263 
L 227.064071 259.182558 
L 223.784732 249.755388 
L 220.505394 247.390645 
L 217.226055 244.881216 
L 213.946716 242.307148 
L 210.667378 239.752687 
L 207.388039 237.302377 
L 204.1087 235.036889 
L 200.829362 233.028712 
L 197.550023 231.33785 
L 194.270685 230.00766 
L 190.991346 229.061012 
L 187.712007 228.496917 
L 184.432669 228.287793 
L 181.15333 228.377526 
L 177.873991 228.680486 
L 174.594653 229.081633 
L 171.315314 229.437846 
L 168.035975 229.580579 
L 164.756637 229.31993 
L 161.477298 228.450159 
L 158.197959 226.756695 
L 154.918621 224.024564 
L 151.639282 220.048199 
L 148.359943 214.642464 
L 145.080605 207.654709 
L 141.801266 198.977578 
L 138.521928 188.56223 
L 135.242589 176.431527 
L 131.96325 162.692664 
L 128.683912 147.548606 
L 125.404573 131.307587 
L 122.125234 114.389799 
L 118.845896 97.330275 
L 115.566557 80.776819 
L 112.287218 65.4817 
L 109.00788 52.285646 
L 105.728541 42.092511 
L 102.449202 35.832815 
L 99.169864 34.414125 
L 95.890525 38.656097 
L 92.611186 49.207711 
L 89.331848 66.44405 
L 86.052509 90.339719 
L 82.773171 120.315717 
L 79.493832 155.056335 
L 76.214493 192.292362 
L 72.935155 228.546554 
L 69.655816 258.837062 
L 66.376477 276.334125 
z
" clip-path="url(#p00f0fac820)" style="fill: #2ca02c; fill-opacity: 0.166667"/>
   </g>
   <g id="PolyCollection_4">
    <path d="M 66.376477 258.827125 
L 66.376477 259.187209 
L 69.655811 259.187209 
L 72.935144 259.187209 
L 76.214478 259.187209 
L 79.493812 259.187209 
L 82.773145 259.187209 
L 86.052479 259.187209 
L 89.331812 259.187209 
L 92.611146 259.187209 
L 95.890479 259.187209 
L 99.169813 259.187209 
L 102.449146 259.187209 
L 105.72848 259.187209 
L 109.007814 259.187209 
L 112.287147 259.187209 
L 115.566481 259.187209 
L 118.845814 259.187209 
L 122.125148 259.187209 
L 125.404481 259.187209 
L 128.683815 259.187209 
L 131.963149 259.187209 
L 135.242482 259.187209 
L 138.521816 259.187209 
L 141.801149 259.187209 
L 145.080483 259.187209 
L 148.359816 259.187209 
L 151.63915 259.187209 
L 154.918484 259.187209 
L 158.197817 259.187209 
L 161.477151 259.187209 
L 164.756484 259.187209 
L 168.035818 259.187209 
L 171.315151 259.187209 
L 174.594485 259.187209 
L 177.873818 259.187209 
L 181.153152 259.187209 
L 184.432486 259.187209 
L 187.711819 259.187209 
L 190.991153 259.187209 
L 194.270486 259.187209 
L 197.54982 259.187209 
L 200.829153 259.187209 
L 204.108487 259.187209 
L 207.387821 259.187209 
L 210.667154 259.187209 
L 213.946488 259.187209 
L 217.225821 259.187209 
L 220.505155 259.187209 
L 223.784488 259.187209 
L 227.063822 259.187209 
L 230.343156 259.187209 
L 233.622489 259.187209 
L 236.901823 259.187209 
L 240.181156 259.187209 
L 243.46049 259.187209 
L 246.739823 259.187209 
L 250.019157 259.187209 
L 253.298491 259.187209 
L 256.577824 259.187209 
L 259.857158 259.187209 
L 263.136491 259.187209 
L 266.415825 259.187209 
L 269.695158 259.187209 
L 272.974492 259.187209 
L 276.253825 259.187209 
L 279.533159 259.187209 
L 282.812493 259.187209 
L 286.091826 259.187209 
L 289.37116 259.187209 
L 292.650493 259.187209 
L 295.929827 259.187209 
L 299.20916 259.187209 
L 302.488494 259.187209 
L 305.767828 259.187209 
L 309.047161 259.187209 
L 312.326495 259.187209 
L 315.605828 259.187209 
L 318.885162 259.187209 
L 322.164495 259.187209 
L 325.443829 259.187209 
L 328.723163 259.187209 
L 332.002496 259.187209 
L 335.28183 259.187209 
L 338.561163 259.187209 
L 341.840497 259.187209 
L 345.11983 259.187209 
L 348.399164 259.187209 
L 351.678497 259.187209 
L 354.957831 259.187209 
L 358.237165 259.187209 
L 361.516498 259.187209 
L 364.795832 259.187209 
L 368.075165 259.187209 
L 371.354499 259.187209 
L 374.633832 259.187209 
L 377.913166 259.187209 
L 381.1925 259.187209 
L 384.471833 259.187209 
L 387.751167 259.187209 
L 391.0305 259.187209 
L 391.0305 252.997047 
L 391.0305 252.997047 
L 387.751167 255.437696 
L 384.471833 257.115283 
L 381.1925 258.273557 
L 377.913166 259.080311 
L 374.633832 259.644573 
L 371.354499 260.030943 
L 368.075165 260.271434 
L 364.795832 260.375134 
L 361.516498 260.335966 
L 358.237165 260.138814 
L 354.957831 259.764263 
L 351.678497 259.192141 
L 348.399164 258.404087 
L 345.11983 257.385285 
L 341.840497 256.12554 
L 338.561163 254.619815 
L 335.28183 252.868358 
L 332.002496 250.876504 
L 328.723163 248.654261 
L 325.443829 246.215738 
L 322.164495 243.578483 
L 318.885162 240.762782 
L 315.605828 237.790962 
L 312.326495 234.686728 
L 309.047161 231.474554 
L 305.767828 228.17916 
L 302.488494 224.825065 
L 299.20916 221.436239 
L 295.929827 218.035842 
L 292.650493 214.646056 
L 289.37116 211.287997 
L 286.091826 207.9817 
L 282.812493 204.746165 
L 279.533159 201.599446 
L 276.253825 198.558789 
L 272.974492 195.64077 
L 269.695158 192.861455 
L 266.415825 190.236544 
L 263.136491 187.781497 
L 259.857158 185.511627 
L 256.577824 183.44215 
L 253.298491 181.588183 
L 250.019157 179.964684 
L 246.739823 178.586334 
L 243.46049 177.467346 
L 240.181156 176.621213 
L 236.901823 176.0604 
L 233.622489 175.795968 
L 230.343156 259.17393 
L 227.063822 259.174135 
L 223.784488 176.626347 
L 220.505155 177.608142 
L 217.225821 178.916863 
L 213.946488 180.544896 
L 210.667154 182.479347 
L 207.387821 184.701689 
L 204.108487 187.187515 
L 200.829153 189.906394 
L 197.54982 192.821874 
L 194.270486 195.891632 
L 190.991153 199.067783 
L 187.711819 202.297385 
L 184.432486 205.523116 
L 181.153152 208.684161 
L 177.873818 211.7173 
L 174.594485 214.558192 
L 171.315151 217.142859 
L 168.035818 219.409362 
L 164.756484 221.299636 
L 161.477151 222.761478 
L 158.197817 223.750652 
L 154.918484 224.233064 
L 151.63915 224.186968 
L 148.359816 223.605141 
L 145.080483 222.49696 
L 141.801149 220.890296 
L 138.521816 218.833132 
L 135.242482 216.394807 
L 131.963149 213.666758 
L 128.683815 210.762617 
L 125.404481 207.817528 
L 122.125148 204.986497 
L 118.845814 202.441597 
L 115.566481 200.367813 
L 112.287147 198.957306 
L 109.007814 198.401838 
L 105.72848 198.883085 
L 102.449146 200.560549 
L 99.169813 203.556734 
L 95.890479 207.939244 
L 92.611146 213.69942 
L 89.331812 220.72712 
L 86.052479 228.781179 
L 82.773145 237.455114 
L 79.493812 246.137543 
L 76.214478 253.966788 
L 72.935144 259.779094 
L 69.655811 262.049845 
L 66.376477 258.827125 
z
" clip-path="url(#p00f0fac820)" style="fill: #d62728; fill-opacity: 0.166667"/>
   </g>
   <g id="PolyCollection_5">
    <path d="M 66.376477 257.006892 
L 66.376477 259.187209 
L 69.655816 259.187209 
L 72.935155 259.187209 
L 76.214493 259.187209 
L 79.493832 259.187209 
L 82.773171 259.187209 
L 86.052509 259.187209 
L 89.331848 259.187209 
L 92.611186 259.187209 
L 95.890525 259.187209 
L 99.169864 259.187209 
L 102.449202 259.187209 
L 105.728541 259.187209 
L 109.00788 259.187209 
L 112.287218 259.187209 
L 115.566557 259.187209 
L 118.845896 259.187209 
L 122.125234 259.187209 
L 125.404573 259.187209 
L 128.683912 259.187209 
L 131.96325 259.187209 
L 135.242589 259.187209 
L 138.521928 259.187209 
L 141.801266 259.187209 
L 145.080605 259.187209 
L 148.359943 259.187209 
L 151.639282 259.187209 
L 154.918621 259.187209 
L 158.197959 259.187209 
L 161.477298 259.187209 
L 164.756637 259.187209 
L 168.035975 259.187209 
L 171.315314 259.187209 
L 174.594653 259.187209 
L 177.873991 259.187209 
L 181.15333 259.187209 
L 184.432669 259.187209 
L 187.712007 259.187209 
L 190.991346 259.187209 
L 194.270685 259.187209 
L 197.550023 259.187209 
L 200.829362 259.187209 
L 204.1087 259.187209 
L 207.388039 259.187209 
L 210.667378 259.187209 
L 213.946716 259.187209 
L 217.226055 259.187209 
L 220.505394 259.187209 
L 223.784732 259.187209 
L 227.064071 259.187209 
L 230.34341 259.187209 
L 233.622748 259.187209 
L 236.902087 259.187209 
L 240.181426 259.187209 
L 243.460764 259.187209 
L 246.740103 259.187209 
L 250.019442 259.187209 
L 253.29878 259.187209 
L 256.578119 259.187209 
L 259.857457 259.187209 
L 263.136796 259.187209 
L 266.416135 259.187209 
L 269.695473 259.187209 
L 272.974812 259.187209 
L 276.254151 259.187209 
L 279.533489 259.187209 
L 282.812828 259.187209 
L 286.092167 259.187209 
L 289.371505 259.187209 
L 292.650844 259.187209 
L 295.930183 259.187209 
L 299.209521 259.187209 
L 302.48886 259.187209 
L 305.768199 259.187209 
L 309.047537 259.187209 
L 312.326876 259.187209 
L 315.606214 259.187209 
L 318.885553 259.187209 
L 322.164892 259.187209 
L 325.44423 259.187209 
L 328.723569 259.187209 
L 332.002908 259.187209 
L 335.282246 259.187209 
L 338.561585 259.187209 
L 341.840924 259.187209 
L 345.120262 259.187209 
L 348.399601 259.187209 
L 351.67894 259.187209 
L 354.958278 259.187209 
L 358.237617 259.187209 
L 361.516956 259.187209 
L 364.796294 259.187209 
L 368.075633 259.187209 
L 371.354971 259.187209 
L 374.63431 259.187209 
L 377.913649 259.187209 
L 381.192987 259.187209 
L 384.472326 259.187209 
L 387.751665 259.187209 
L 391.031003 259.187209 
L 391.031003 231.47389 
L 391.031003 231.47389 
L 387.751665 243.613601 
L 384.472326 251.920738 
L 381.192987 257.24534 
L 377.913649 260.292133 
L 374.63431 261.638808 
L 371.354971 261.752629 
L 368.075633 261.005473 
L 364.796294 259.687423 
L 361.516956 258.019015 
L 358.237617 256.16223 
L 354.958278 254.230321 
L 351.67894 252.296577 
L 348.399601 250.402084 
L 345.120262 248.562578 
L 341.840924 246.774442 
L 338.561585 245.019941 
L 335.282246 243.271725 
L 332.002908 241.496695 
L 328.723569 239.659259 
L 325.44423 237.724043 
L 322.164892 235.658113 
L 318.885553 233.432737 
L 315.606214 231.024744 
L 312.326876 228.417519 
L 309.047537 225.601664 
L 305.768199 222.575367 
L 302.48886 219.344519 
L 299.209521 215.922592 
L 295.930183 212.330326 
L 292.650844 208.595246 
L 289.371505 204.751029 
L 286.092167 200.836755 
L 282.812828 196.89606 
L 279.533489 192.976208 
L 276.254151 189.127121 
L 272.974812 185.400356 
L 269.695473 181.848071 
L 266.416135 178.521994 
L 263.136796 175.472395 
L 259.857457 172.747094 
L 256.578119 170.390508 
L 253.29878 168.442757 
L 250.019442 166.938828 
L 246.740103 165.907827 
L 243.460764 165.372313 
L 240.181426 165.347732 
L 236.902087 165.841952 
L 233.622748 166.85492 
L 230.34341 259.174492 
L 227.064071 259.17491 
L 223.784732 172.10581 
L 220.505394 175.024543 
L 217.226055 178.379214 
L 213.946716 182.119792 
L 210.667378 186.187673 
L 207.388039 190.516558 
L 204.1087 195.033528 
L 200.829362 199.660315 
L 197.550023 204.314733 
L 194.270685 208.912269 
L 190.991346 213.367797 
L 187.712007 217.597398 
L 184.432669 221.520247 
L 181.15333 225.060543 
L 177.873991 228.149438 
L 174.594653 230.726939 
L 171.315314 232.743725 
L 168.035975 234.162854 
L 164.756637 234.961308 
L 161.477298 235.131331 
L 158.197959 234.68152 
L 154.918621 233.637616 
L 151.639282 232.042962 
L 148.359943 229.958565 
L 145.080605 227.462741 
L 141.801266 224.650289 
L 138.521928 221.631156 
L 135.242589 218.528568 
L 131.96325 215.476581 
L 128.683912 212.617047 
L 125.404573 210.095957 
L 122.125234 208.05915 
L 118.845896 206.647396 
L 115.566557 205.990836 
L 112.287218 206.202796 
L 109.00788 207.373004 
L 105.728541 209.560228 
L 102.449202 212.784384 
L 99.169864 217.018172 
L 95.890525 222.178309 
L 92.611186 228.116438 
L 89.331848 234.60982 
L 86.052509 241.35193 
L 82.773171 247.943084 
L 79.493832 253.881266 
L 76.214493 258.553317 
L 72.935155 261.226705 
L 69.655816 261.042083 
L 66.376477 257.006892 
z
" clip-path="url(#p00f0fac820)" style="fill: #9467bd; fill-opacity: 0.166667"/>
   </g>
   <g id="PolyCollection_6">
    <path d="M 66.376477 256.52026 
L 66.376477 259.187209 
L 69.655816 259.187209 
L 72.935155 259.187209 
L 76.214494 259.187209 
L 79.493833 259.187209 
L 82.773171 259.187209 
L 86.05251 259.187209 
L 89.331849 259.187209 
L 92.611188 259.187209 
L 95.890527 259.187209 
L 99.169866 259.187209 
L 102.449205 259.187209 
L 105.728543 259.187209 
L 109.007882 259.187209 
L 112.287221 259.187209 
L 115.56656 259.187209 
L 118.845899 259.187209 
L 122.125238 259.187209 
L 125.404576 259.187209 
L 128.683915 259.187209 
L 131.963254 259.187209 
L 135.242593 259.187209 
L 138.521932 259.187209 
L 141.801271 259.187209 
L 145.08061 259.187209 
L 148.359948 259.187209 
L 151.639287 259.187209 
L 154.918626 259.187209 
L 158.197965 259.187209 
L 161.477304 259.187209 
L 164.756643 259.187209 
L 168.035981 259.187209 
L 171.31532 259.187209 
L 174.594659 259.187209 
L 177.873998 259.187209 
L 181.153337 259.187209 
L 184.432676 259.187209 
L 187.712014 259.187209 
L 190.991353 259.187209 
L 194.270692 259.187209 
L 197.550031 259.187209 
L 200.82937 259.187209 
L 204.108709 259.187209 
L 207.388048 259.187209 
L 210.667386 259.187209 
L 213.946725 259.187209 
L 217.226064 259.187209 
L 220.505403 259.187209 
L 223.784742 259.187209 
L 227.064081 259.187209 
L 230.343419 259.187209 
L 233.622758 259.187209 
L 236.902097 259.187209 
L 240.181436 259.187209 
L 243.460775 259.187209 
L 246.740114 259.187209 
L 250.019452 259.187209 
L 253.298791 259.187209 
L 256.57813 259.187209 
L 259.857469 259.187209 
L 263.136808 259.187209 
L 266.416147 259.187209 
L 269.695486 259.187209 
L 272.974824 259.187209 
L 276.254163 259.187209 
L 279.533502 259.187209 
L 282.812841 259.187209 
L 286.09218 259.187209 
L 289.371519 259.187209 
L 292.650857 259.187209 
L 295.930196 259.187209 
L 299.209535 259.187209 
L 302.488874 259.187209 
L 305.768213 259.187209 
L 309.047552 259.187209 
L 312.32689 259.187209 
L 315.606229 259.187209 
L 318.885568 259.187209 
L 322.164907 259.187209 
L 325.444246 259.187209 
L 328.723585 259.187209 
L 332.002924 259.187209 
L 335.282262 259.187209 
L 338.561601 259.187209 
L 341.84094 259.187209 
L 345.120279 259.187209 
L 348.399618 259.187209 
L 351.678957 259.187209 
L 354.958295 259.187209 
L 358.237634 259.187209 
L 361.516973 259.187209 
L 364.796312 259.187209 
L 368.075651 259.187209 
L 371.35499 259.187209 
L 374.634329 259.187209 
L 377.913667 259.187209 
L 381.193006 259.187209 
L 384.472345 259.187209 
L 387.751684 259.187209 
L 391.031023 259.187209 
L 391.031023 229.094455 
L 391.031023 229.094455 
L 387.751684 243.337297 
L 384.472345 252.713277 
L 381.193006 258.459948 
L 377.913667 261.564771 
L 374.634329 262.805183 
L 371.35499 262.783534 
L 368.075651 261.957397 
L 364.796312 260.665747 
L 361.516973 259.151434 
L 358.237634 257.580387 
L 354.958295 256.057891 
L 351.678957 254.642311 
L 348.399618 253.356552 
L 345.120279 252.197558 
L 341.84094 251.144092 
L 338.561601 250.163048 
L 335.282262 249.214484 
L 332.002924 248.255585 
L 328.723585 247.243707 
L 325.444246 246.138658 
L 322.164907 244.904346 
L 318.885568 243.509907 
L 315.606229 241.930411 
L 312.32689 240.147238 
L 309.047552 238.148189 
L 305.768213 235.927396 
L 302.488874 233.485093 
L 299.209535 230.827268 
L 295.930196 227.965254 
L 292.650857 224.915268 
L 289.371519 221.697932 
L 286.09218 218.337772 
L 282.812841 214.862731 
L 279.533502 211.303678 
L 276.254163 207.69393 
L 272.974824 204.068785 
L 269.695486 200.465054 
L 266.416147 196.920614 
L 263.136808 193.473947 
L 259.857469 190.163682 
L 256.57813 187.028136 
L 253.298791 184.104836 
L 250.019452 181.430036 
L 246.740114 179.038213 
L 243.460775 176.961556 
L 240.181436 175.229439 
L 236.902097 173.867883 
L 233.622758 172.899015 
L 230.343419 259.174483 
L 227.064081 259.174883 
L 223.784742 171.581653 
L 220.505403 172.304132 
L 217.226064 173.500369 
L 213.946725 175.155997 
L 210.667386 177.247513 
L 207.388048 179.742292 
L 204.108709 182.5988 
L 200.82937 185.767003 
L 197.550031 189.188985 
L 194.270692 192.799771 
L 190.991353 196.528358 
L 187.712014 200.298954 
L 184.432676 204.032404 
L 181.153337 207.647804 
L 177.873998 211.064285 
L 174.594659 214.202933 
L 171.31532 216.988839 
L 168.035981 219.353234 
L 164.756643 221.235684 
L 161.477304 222.586294 
L 158.197965 223.367877 
L 154.918626 223.558046 
L 151.639287 223.151156 
L 148.359948 222.160033 
L 145.08061 220.617432 
L 141.801271 218.577123 
L 138.521932 216.11454 
L 135.242593 213.326885 
L 131.963254 210.332596 
L 128.683915 207.270064 
L 125.404576 204.295482 
L 122.125238 201.579708 
L 118.845899 199.303999 
L 115.56656 197.654481 
L 112.287221 196.8152 
L 109.007882 196.959591 
L 105.728543 198.240201 
L 102.449205 200.776477 
L 99.169866 204.640445 
L 95.890527 209.840054 
L 92.611188 216.300007 
L 89.331849 223.839822 
L 86.05251 232.148929 
L 82.773171 240.758522 
L 79.493833 249.009944 
L 76.214494 256.019315 
L 72.935155 260.638143 
L 69.655816 261.409612 
L 66.376477 256.52026 
z
" clip-path="url(#p00f0fac820)" style="fill: #8c564b; fill-opacity: 0.166667"/>
   </g>
   <g id="matplotlib.axis_1">
    <g id="xtick_1">
     <g id="line2d_1">
      <defs>
       <path id="m933fe50872" d="M 0 0 
L 0 3.5 
" style="stroke: #000000; stroke-width: 0.8"/>
      </defs>
      <g>
       <use xlink:href="#m933fe50872" x="66.376477" y="288.430125" style="stroke: #000000; stroke-width: 0.8"/>
      </g>
     </g>
     <g id="text_1">
      <!-- 0.0 -->
      <g transform="translate(58.424915 303.028562) scale(0.1 -0.1)">
       <defs>
        <path id="DejaVuSans-30" d="M 2034 4250 
Q 1547 4250 1301 3770 
Q 1056 3291 1056 2328 
Q 1056 1369 1301 889 
Q 1547 409 2034 409 
Q 2525 409 2770 889 
Q 3016 1369 3016 2328 
Q 3016 3291 2770 3770 
Q 2525 4250 2034 4250 
z
M 2034 4750 
Q 2819 4750 3233 4129 
Q 3647 3509 3647 2328 
Q 3647 1150 3233 529 
Q 2819 -91 2034 -91 
Q 1250 -91 836 529 
Q 422 1150 422 2328 
Q 422 3509 836 4129 
Q 1250 4750 2034 4750 
z
" transform="scale(0.015625)"/>
        <path id="DejaVuSans-2e" d="M 684 794 
L 1344 794 
L 1344 0 
L 684 0 
L 684 794 
z
" transform="scale(0.015625)"/>
       </defs>
       <use xlink:href="#DejaVuSans-30"/>
       <use xlink:href="#DejaVuSans-2e" x="63.623047"/>
       <use xlink:href="#DejaVuSans-30" x="95.410156"/>
      </g>
     </g>
    </g>
    <g id="xtick_2">
     <g id="line2d_2">
      <g>
       <use xlink:href="#m933fe50872" x="131.963254" y="288.430125" style="stroke: #000000; stroke-width: 0.8"/>
      </g>
     </g>
     <g id="text_2">
      <!-- 0.2 -->
      <g transform="translate(124.011692 303.028562) scale(0.1 -0.1)">
       <defs>
        <path id="DejaVuSans-32" d="M 1228 531 
L 3431 531 
L 3431 0 
L 469 0 
L 469 531 
Q 828 903 1448 1529 
Q 2069 2156 2228 2338 
Q 2531 2678 2651 2914 
Q 2772 3150 2772 3378 
Q 2772 3750 2511 3984 
Q 2250 4219 1831 4219 
Q 1534 4219 1204 4116 
Q 875 4013 500 3803 
L 500 4441 
Q 881 4594 1212 4672 
Q 1544 4750 1819 4750 
Q 2544 4750 2975 4387 
Q 3406 4025 3406 3419 
Q 3406 3131 3298 2873 
Q 3191 2616 2906 2266 
Q 2828 2175 2409 1742 
Q 1991 1309 1228 531 
z
" transform="scale(0.015625)"/>
       </defs>
       <use xlink:href="#DejaVuSans-30"/>
       <use xlink:href="#DejaVuSans-2e" x="63.623047"/>
       <use xlink:href="#DejaVuSans-32" x="95.410156"/>
      </g>
     </g>
    </g>
    <g id="xtick_3">
     <g id="line2d_3">
      <g>
       <use xlink:href="#m933fe50872" x="197.550031" y="288.430125" style="stroke: #000000; stroke-width: 0.8"/>
      </g>
     </g>
     <g id="text_3">
      <!-- 0.4 -->
      <g transform="translate(189.598468 303.028562) scale(0.1 -0.1)">
       <defs>
        <path id="DejaVuSans-34" d="M 2419 4116 
L 825 1625 
L 2419 1625 
L 2419 4116 
z
M 2253 4666 
L 3047 4666 
L 3047 1625 
L 3713 1625 
L 3713 1100 
L 3047 1100 
L 3047 0 
L 2419 0 
L 2419 1100 
L 313 1100 
L 313 1709 
L 2253 4666 
z
" transform="scale(0.015625)"/>
       </defs>
       <use xlink:href="#DejaVuSans-30"/>
       <use xlink:href="#DejaVuSans-2e" x="63.623047"/>
       <use xlink:href="#DejaVuSans-34" x="95.410156"/>
      </g>
     </g>
    </g>
    <g id="xtick_4">
     <g id="line2d_4">
      <g>
       <use xlink:href="#m933fe50872" x="263.136808" y="288.430125" style="stroke: #000000; stroke-width: 0.8"/>
      </g>
     </g>
     <g id="text_4">
      <!-- 0.6 -->
      <g transform="translate(255.185245 303.028562) scale(0.1 -0.1)">
       <defs>
        <path id="DejaVuSans-36" d="M 2113 2584 
Q 1688 2584 1439 2293 
Q 1191 2003 1191 1497 
Q 1191 994 1439 701 
Q 1688 409 2113 409 
Q 2538 409 2786 701 
Q 3034 994 3034 1497 
Q 3034 2003 2786 2293 
Q 2538 2584 2113 2584 
z
M 3366 4563 
L 3366 3988 
Q 3128 4100 2886 4159 
Q 2644 4219 2406 4219 
Q 1781 4219 1451 3797 
Q 1122 3375 1075 2522 
Q 1259 2794 1537 2939 
Q 1816 3084 2150 3084 
Q 2853 3084 3261 2657 
Q 3669 2231 3669 1497 
Q 3669 778 3244 343 
Q 2819 -91 2113 -91 
Q 1303 -91 875 529 
Q 447 1150 447 2328 
Q 447 3434 972 4092 
Q 1497 4750 2381 4750 
Q 2619 4750 2861 4703 
Q 3103 4656 3366 4563 
z
" transform="scale(0.015625)"/>
       </defs>
       <use xlink:href="#DejaVuSans-30"/>
       <use xlink:href="#DejaVuSans-2e" x="63.623047"/>
       <use xlink:href="#DejaVuSans-36" x="95.410156"/>
      </g>
     </g>
    </g>
    <g id="xtick_5">
     <g id="line2d_5">
      <g>
       <use xlink:href="#m933fe50872" x="328.723585" y="288.430125" style="stroke: #000000; stroke-width: 0.8"/>
      </g>
     </g>
     <g id="text_5">
      <!-- 0.8 -->
      <g transform="translate(320.772022 303.028562) scale(0.1 -0.1)">
       <defs>
        <path id="DejaVuSans-38" d="M 2034 2216 
Q 1584 2216 1326 1975 
Q 1069 1734 1069 1313 
Q 1069 891 1326 650 
Q 1584 409 2034 409 
Q 2484 409 2743 651 
Q 3003 894 3003 1313 
Q 3003 1734 2745 1975 
Q 2488 2216 2034 2216 
z
M 1403 2484 
Q 997 2584 770 2862 
Q 544 3141 544 3541 
Q 544 4100 942 4425 
Q 1341 4750 2034 4750 
Q 2731 4750 3128 4425 
Q 3525 4100 3525 3541 
Q 3525 3141 3298 2862 
Q 3072 2584 2669 2484 
Q 3125 2378 3379 2068 
Q 3634 1759 3634 1313 
Q 3634 634 3220 271 
Q 2806 -91 2034 -91 
Q 1263 -91 848 271 
Q 434 634 434 1313 
Q 434 1759 690 2068 
Q 947 2378 1403 2484 
z
M 1172 3481 
Q 1172 3119 1398 2916 
Q 1625 2713 2034 2713 
Q 2441 2713 2670 2916 
Q 2900 3119 2900 3481 
Q 2900 3844 2670 4047 
Q 2441 4250 2034 4250 
Q 1625 4250 1398 4047 
Q 1172 3844 1172 3481 
z
" transform="scale(0.015625)"/>
       </defs>
       <use xlink:href="#DejaVuSans-30"/>
       <use xlink:href="#DejaVuSans-2e" x="63.623047"/>
       <use xlink:href="#DejaVuSans-38" x="95.410156"/>
      </g>
     </g>
    </g>
    <g id="xtick_6">
     <g id="line2d_6">
      <g>
       <use xlink:href="#m933fe50872" x="394.310362" y="288.430125" style="stroke: #000000; stroke-width: 0.8"/>
      </g>
     </g>
     <g id="text_6">
      <!-- 1.0 -->
      <g transform="translate(386.358799 303.028562) scale(0.1 -0.1)">
       <defs>
        <path id="DejaVuSans-31" d="M 794 531 
L 1825 531 
L 1825 4091 
L 703 3866 
L 703 4441 
L 1819 4666 
L 2450 4666 
L 2450 531 
L 3481 531 
L 3481 0 
L 794 0 
L 794 531 
z
" transform="scale(0.015625)"/>
       </defs>
       <use xlink:href="#DejaVuSans-31"/>
       <use xlink:href="#DejaVuSans-2e" x="63.623047"/>
       <use xlink:href="#DejaVuSans-30" x="95.410156"/>
      </g>
     </g>
    </g>
    <g id="text_7">
     <!-- Pixel values -->
     <g transform="translate(199.292031 316.706687) scale(0.1 -0.1)">
      <defs>
       <path id="DejaVuSans-50" d="M 1259 4147 
L 1259 2394 
L 2053 2394 
Q 2494 2394 2734 2622 
Q 2975 2850 2975 3272 
Q 2975 3691 2734 3919 
Q 2494 4147 2053 4147 
L 1259 4147 
z
M 628 4666 
L 2053 4666 
Q 2838 4666 3239 4311 
Q 3641 3956 3641 3272 
Q 3641 2581 3239 2228 
Q 2838 1875 2053 1875 
L 1259 1875 
L 1259 0 
L 628 0 
L 628 4666 
z
" transform="scale(0.015625)"/>
       <path id="DejaVuSans-69" d="M 603 3500 
L 1178 3500 
L 1178 0 
L 603 0 
L 603 3500 
z
M 603 4863 
L 1178 4863 
L 1178 4134 
L 603 4134 
L 603 4863 
z
" transform="scale(0.015625)"/>
       <path id="DejaVuSans-78" d="M 3513 3500 
L 2247 1797 
L 3578 0 
L 2900 0 
L 1881 1375 
L 863 0 
L 184 0 
L 1544 1831 
L 300 3500 
L 978 3500 
L 1906 2253 
L 2834 3500 
L 3513 3500 
z
" transform="scale(0.015625)"/>
       <path id="DejaVuSans-65" d="M 3597 1894 
L 3597 1613 
L 953 1613 
Q 991 1019 1311 708 
Q 1631 397 2203 397 
Q 2534 397 2845 478 
Q 3156 559 3463 722 
L 3463 178 
Q 3153 47 2828 -22 
Q 2503 -91 2169 -91 
Q 1331 -91 842 396 
Q 353 884 353 1716 
Q 353 2575 817 3079 
Q 1281 3584 2069 3584 
Q 2775 3584 3186 3129 
Q 3597 2675 3597 1894 
z
M 3022 2063 
Q 3016 2534 2758 2815 
Q 2500 3097 2075 3097 
Q 1594 3097 1305 2825 
Q 1016 2553 972 2059 
L 3022 2063 
z
" transform="scale(0.015625)"/>
       <path id="DejaVuSans-6c" d="M 603 4863 
L 1178 4863 
L 1178 0 
L 603 0 
L 603 4863 
z
" transform="scale(0.015625)"/>
       <path id="DejaVuSans-20" transform="scale(0.015625)"/>
       <path id="DejaVuSans-76" d="M 191 3500 
L 800 3500 
L 1894 563 
L 2988 3500 
L 3597 3500 
L 2284 0 
L 1503 0 
L 191 3500 
z
" transform="scale(0.015625)"/>
       <path id="DejaVuSans-61" d="M 2194 1759 
Q 1497 1759 1228 1600 
Q 959 1441 959 1056 
Q 959 750 1161 570 
Q 1363 391 1709 391 
Q 2188 391 2477 730 
Q 2766 1069 2766 1631 
L 2766 1759 
L 2194 1759 
z
M 3341 1997 
L 3341 0 
L 2766 0 
L 2766 531 
Q 2569 213 2275 61 
Q 1981 -91 1556 -91 
Q 1019 -91 701 211 
Q 384 513 384 1019 
Q 384 1609 779 1909 
Q 1175 2209 1959 2209 
L 2766 2209 
L 2766 2266 
Q 2766 2663 2505 2880 
Q 2244 3097 1772 3097 
Q 1472 3097 1187 3025 
Q 903 2953 641 2809 
L 641 3341 
Q 956 3463 1253 3523 
Q 1550 3584 1831 3584 
Q 2591 3584 2966 3190 
Q 3341 2797 3341 1997 
z
" transform="scale(0.015625)"/>
       <path id="DejaVuSans-75" d="M 544 1381 
L 544 3500 
L 1119 3500 
L 1119 1403 
Q 1119 906 1312 657 
Q 1506 409 1894 409 
Q 2359 409 2629 706 
Q 2900 1003 2900 1516 
L 2900 3500 
L 3475 3500 
L 3475 0 
L 2900 0 
L 2900 538 
Q 2691 219 2414 64 
Q 2138 -91 1772 -91 
Q 1169 -91 856 284 
Q 544 659 544 1381 
z
M 1991 3584 
L 1991 3584 
z
" transform="scale(0.015625)"/>
       <path id="DejaVuSans-73" d="M 2834 3397 
L 2834 2853 
Q 2591 2978 2328 3040 
Q 2066 3103 1784 3103 
Q 1356 3103 1142 2972 
Q 928 2841 928 2578 
Q 928 2378 1081 2264 
Q 1234 2150 1697 2047 
L 1894 2003 
Q 2506 1872 2764 1633 
Q 3022 1394 3022 966 
Q 3022 478 2636 193 
Q 2250 -91 1575 -91 
Q 1294 -91 989 -36 
Q 684 19 347 128 
L 347 722 
Q 666 556 975 473 
Q 1284 391 1588 391 
Q 1994 391 2212 530 
Q 2431 669 2431 922 
Q 2431 1156 2273 1281 
Q 2116 1406 1581 1522 
L 1381 1569 
Q 847 1681 609 1914 
Q 372 2147 372 2553 
Q 372 3047 722 3315 
Q 1072 3584 1716 3584 
Q 2034 3584 2315 3537 
Q 2597 3491 2834 3397 
z
" transform="scale(0.015625)"/>
      </defs>
      <use xlink:href="#DejaVuSans-50"/>
      <use xlink:href="#DejaVuSans-69" x="58.052734"/>
      <use xlink:href="#DejaVuSans-78" x="85.835938"/>
      <use xlink:href="#DejaVuSans-65" x="141.890625"/>
      <use xlink:href="#DejaVuSans-6c" x="203.414062"/>
      <use xlink:href="#DejaVuSans-20" x="231.197266"/>
      <use xlink:href="#DejaVuSans-76" x="262.984375"/>
      <use xlink:href="#DejaVuSans-61" x="322.164062"/>
      <use xlink:href="#DejaVuSans-6c" x="383.443359"/>
      <use xlink:href="#DejaVuSans-75" x="411.226562"/>
      <use xlink:href="#DejaVuSans-65" x="474.605469"/>
      <use xlink:href="#DejaVuSans-73" x="536.128906"/>
     </g>
    </g>
   </g>
   <g id="matplotlib.axis_2">
    <g id="ytick_1">
     <g id="line2d_7">
      <defs>
       <path id="m4476681841" d="M 0 0 
L -3.5 0 
" style="stroke: #000000; stroke-width: 0.8"/>
      </defs>
      <g>
       <use xlink:href="#m4476681841" x="50.14375" y="259.187209" style="stroke: #000000; stroke-width: 0.8"/>
      </g>
     </g>
     <g id="text_8">
      <!-- 0.00 -->
      <g transform="translate(20.878125 262.986428) scale(0.1 -0.1)">
       <use xlink:href="#DejaVuSans-30"/>
       <use xlink:href="#DejaVuSans-2e" x="63.623047"/>
       <use xlink:href="#DejaVuSans-30" x="95.410156"/>
       <use xlink:href="#DejaVuSans-30" x="159.033203"/>
      </g>
     </g>
    </g>
    <g id="ytick_2">
     <g id="line2d_8">
      <g>
       <use xlink:href="#m4476681841" x="50.14375" y="218.147302" style="stroke: #000000; stroke-width: 0.8"/>
      </g>
     </g>
     <g id="text_9">
      <!-- 0.01 -->
      <g transform="translate(20.878125 221.946521) scale(0.1 -0.1)">
       <use xlink:href="#DejaVuSans-30"/>
       <use xlink:href="#DejaVuSans-2e" x="63.623047"/>
       <use xlink:href="#DejaVuSans-30" x="95.410156"/>
       <use xlink:href="#DejaVuSans-31" x="159.033203"/>
      </g>
     </g>
    </g>
    <g id="ytick_3">
     <g id="line2d_9">
      <g>
       <use xlink:href="#m4476681841" x="50.14375" y="177.107395" style="stroke: #000000; stroke-width: 0.8"/>
      </g>
     </g>
     <g id="text_10">
      <!-- 0.02 -->
      <g transform="translate(20.878125 180.906614) scale(0.1 -0.1)">
       <use xlink:href="#DejaVuSans-30"/>
       <use xlink:href="#DejaVuSans-2e" x="63.623047"/>
       <use xlink:href="#DejaVuSans-30" x="95.410156"/>
       <use xlink:href="#DejaVuSans-32" x="159.033203"/>
      </g>
     </g>
    </g>
    <g id="ytick_4">
     <g id="line2d_10">
      <g>
       <use xlink:href="#m4476681841" x="50.14375" y="136.067489" style="stroke: #000000; stroke-width: 0.8"/>
      </g>
     </g>
     <g id="text_11">
      <!-- 0.03 -->
      <g transform="translate(20.878125 139.866707) scale(0.1 -0.1)">
       <defs>
        <path id="DejaVuSans-33" d="M 2597 2516 
Q 3050 2419 3304 2112 
Q 3559 1806 3559 1356 
Q 3559 666 3084 287 
Q 2609 -91 1734 -91 
Q 1441 -91 1130 -33 
Q 819 25 488 141 
L 488 750 
Q 750 597 1062 519 
Q 1375 441 1716 441 
Q 2309 441 2620 675 
Q 2931 909 2931 1356 
Q 2931 1769 2642 2001 
Q 2353 2234 1838 2234 
L 1294 2234 
L 1294 2753 
L 1863 2753 
Q 2328 2753 2575 2939 
Q 2822 3125 2822 3475 
Q 2822 3834 2567 4026 
Q 2313 4219 1838 4219 
Q 1578 4219 1281 4162 
Q 984 4106 628 3988 
L 628 4550 
Q 988 4650 1302 4700 
Q 1616 4750 1894 4750 
Q 2613 4750 3031 4423 
Q 3450 4097 3450 3541 
Q 3450 3153 3228 2886 
Q 3006 2619 2597 2516 
z
" transform="scale(0.015625)"/>
       </defs>
       <use xlink:href="#DejaVuSans-30"/>
       <use xlink:href="#DejaVuSans-2e" x="63.623047"/>
       <use xlink:href="#DejaVuSans-30" x="95.410156"/>
       <use xlink:href="#DejaVuSans-33" x="159.033203"/>
      </g>
     </g>
    </g>
    <g id="ytick_5">
     <g id="line2d_11">
      <g>
       <use xlink:href="#m4476681841" x="50.14375" y="95.027582" style="stroke: #000000; stroke-width: 0.8"/>
      </g>
     </g>
     <g id="text_12">
      <!-- 0.04 -->
      <g transform="translate(20.878125 98.826801) scale(0.1 -0.1)">
       <use xlink:href="#DejaVuSans-30"/>
       <use xlink:href="#DejaVuSans-2e" x="63.623047"/>
       <use xlink:href="#DejaVuSans-30" x="95.410156"/>
       <use xlink:href="#DejaVuSans-34" x="159.033203"/>
      </g>
     </g>
    </g>
    <g id="ytick_6">
     <g id="line2d_12">
      <g>
       <use xlink:href="#m4476681841" x="50.14375" y="53.987675" style="stroke: #000000; stroke-width: 0.8"/>
      </g>
     </g>
     <g id="text_13">
      <!-- 0.05 -->
      <g transform="translate(20.878125 57.786894) scale(0.1 -0.1)">
       <defs>
        <path id="DejaVuSans-35" d="M 691 4666 
L 3169 4666 
L 3169 4134 
L 1269 4134 
L 1269 2991 
Q 1406 3038 1543 3061 
Q 1681 3084 1819 3084 
Q 2600 3084 3056 2656 
Q 3513 2228 3513 1497 
Q 3513 744 3044 326 
Q 2575 -91 1722 -91 
Q 1428 -91 1123 -41 
Q 819 9 494 109 
L 494 744 
Q 775 591 1075 516 
Q 1375 441 1709 441 
Q 2250 441 2565 725 
Q 2881 1009 2881 1497 
Q 2881 1984 2565 2268 
Q 2250 2553 1709 2553 
Q 1456 2553 1204 2497 
Q 953 2441 691 2322 
L 691 4666 
z
" transform="scale(0.015625)"/>
       </defs>
       <use xlink:href="#DejaVuSans-30"/>
       <use xlink:href="#DejaVuSans-2e" x="63.623047"/>
       <use xlink:href="#DejaVuSans-30" x="95.410156"/>
       <use xlink:href="#DejaVuSans-35" x="159.033203"/>
      </g>
     </g>
    </g>
    <g id="text_14">
     <!-- Frequency -->
     <g transform="translate(14.798438 181.203812) rotate(-90) scale(0.1 -0.1)">
      <defs>
       <path id="DejaVuSans-46" d="M 628 4666 
L 3309 4666 
L 3309 4134 
L 1259 4134 
L 1259 2759 
L 3109 2759 
L 3109 2228 
L 1259 2228 
L 1259 0 
L 628 0 
L 628 4666 
z
" transform="scale(0.015625)"/>
       <path id="DejaVuSans-72" d="M 2631 2963 
Q 2534 3019 2420 3045 
Q 2306 3072 2169 3072 
Q 1681 3072 1420 2755 
Q 1159 2438 1159 1844 
L 1159 0 
L 581 0 
L 581 3500 
L 1159 3500 
L 1159 2956 
Q 1341 3275 1631 3429 
Q 1922 3584 2338 3584 
Q 2397 3584 2469 3576 
Q 2541 3569 2628 3553 
L 2631 2963 
z
" transform="scale(0.015625)"/>
       <path id="DejaVuSans-71" d="M 947 1747 
Q 947 1113 1208 752 
Q 1469 391 1925 391 
Q 2381 391 2643 752 
Q 2906 1113 2906 1747 
Q 2906 2381 2643 2742 
Q 2381 3103 1925 3103 
Q 1469 3103 1208 2742 
Q 947 2381 947 1747 
z
M 2906 525 
Q 2725 213 2448 61 
Q 2172 -91 1784 -91 
Q 1150 -91 751 415 
Q 353 922 353 1747 
Q 353 2572 751 3078 
Q 1150 3584 1784 3584 
Q 2172 3584 2448 3432 
Q 2725 3281 2906 2969 
L 2906 3500 
L 3481 3500 
L 3481 -1331 
L 2906 -1331 
L 2906 525 
z
" transform="scale(0.015625)"/>
       <path id="DejaVuSans-6e" d="M 3513 2113 
L 3513 0 
L 2938 0 
L 2938 2094 
Q 2938 2591 2744 2837 
Q 2550 3084 2163 3084 
Q 1697 3084 1428 2787 
Q 1159 2491 1159 1978 
L 1159 0 
L 581 0 
L 581 3500 
L 1159 3500 
L 1159 2956 
Q 1366 3272 1645 3428 
Q 1925 3584 2291 3584 
Q 2894 3584 3203 3211 
Q 3513 2838 3513 2113 
z
" transform="scale(0.015625)"/>
       <path id="DejaVuSans-63" d="M 3122 3366 
L 3122 2828 
Q 2878 2963 2633 3030 
Q 2388 3097 2138 3097 
Q 1578 3097 1268 2742 
Q 959 2388 959 1747 
Q 959 1106 1268 751 
Q 1578 397 2138 397 
Q 2388 397 2633 464 
Q 2878 531 3122 666 
L 3122 134 
Q 2881 22 2623 -34 
Q 2366 -91 2075 -91 
Q 1284 -91 818 406 
Q 353 903 353 1747 
Q 353 2603 823 3093 
Q 1294 3584 2113 3584 
Q 2378 3584 2631 3529 
Q 2884 3475 3122 3366 
z
" transform="scale(0.015625)"/>
       <path id="DejaVuSans-79" d="M 2059 -325 
Q 1816 -950 1584 -1140 
Q 1353 -1331 966 -1331 
L 506 -1331 
L 506 -850 
L 844 -850 
Q 1081 -850 1212 -737 
Q 1344 -625 1503 -206 
L 1606 56 
L 191 3500 
L 800 3500 
L 1894 763 
L 2988 3500 
L 3597 3500 
L 2059 -325 
z
" transform="scale(0.015625)"/>
      </defs>
      <use xlink:href="#DejaVuSans-46"/>
      <use xlink:href="#DejaVuSans-72" x="50.269531"/>
      <use xlink:href="#DejaVuSans-65" x="89.132812"/>
      <use xlink:href="#DejaVuSans-71" x="150.65625"/>
      <use xlink:href="#DejaVuSans-75" x="214.132812"/>
      <use xlink:href="#DejaVuSans-65" x="277.511719"/>
      <use xlink:href="#DejaVuSans-6e" x="339.035156"/>
      <use xlink:href="#DejaVuSans-63" x="402.414062"/>
      <use xlink:href="#DejaVuSans-79" x="457.394531"/>
     </g>
    </g>
   </g>
   <g id="line2d_13">
    <path d="M 66.376477 254.222376 
L 69.655816 263.919491 
L 72.935155 265.309059 
L 76.214494 260.933608 
L 79.493833 252.854727 
L 82.773171 242.714424 
L 86.05251 231.791278 
L 89.331849 221.051657 
L 92.611188 211.196229 
L 95.890527 202.702035 
L 99.169866 195.860347 
L 102.449205 190.810579 
L 105.728543 187.570472 
L 109.007882 186.062785 
L 112.287221 186.138735 
L 115.56656 187.598402 
L 118.845899 190.208313 
L 122.125238 193.716432 
L 125.404576 197.864749 
L 128.683915 202.399678 
L 131.963254 207.080454 
L 135.242593 211.685717 
L 138.521932 216.018466 
L 141.801271 219.909552 
L 145.08061 223.219877 
L 148.359948 225.841458 
L 151.639287 227.697502 
L 154.918626 228.741645 
L 158.197965 228.956472 
L 161.477304 228.351457 
L 164.756643 226.960441 
L 168.035981 224.838748 
L 171.31532 222.060051 
L 174.594659 218.713074 
L 177.873998 214.898221 
L 181.153337 210.724205 
L 184.432676 206.304746 
L 187.712014 201.755404 
L 190.991353 197.190596 
L 194.270692 192.720844 
L 197.550031 188.450292 
L 200.82937 184.474524 
L 204.108709 180.878709 
L 207.388048 177.736082 
L 210.667386 175.106785 
L 213.946725 173.037054 
L 217.226064 171.558772 
L 220.505403 170.689358 
L 223.784742 170.432 
L 227.064081 259.175936 
L 230.343419 259.175479 
L 233.622758 173.71649 
L 236.902097 175.603861 
L 240.181436 177.908339 
L 243.460775 180.573322 
L 246.740114 183.537975 
L 250.019452 186.738888 
L 253.298791 190.111713 
L 256.57813 193.592776 
L 259.857469 197.120618 
L 263.136808 200.637435 
L 266.416147 204.090386 
L 269.695486 207.432757 
L 272.974824 210.624933 
L 276.254163 213.635181 
L 279.533502 216.440213 
L 282.812841 219.025516 
L 286.09218 221.385443 
L 289.371519 223.523059 
L 292.650857 225.449733 
L 295.930196 227.184488 
L 299.209535 228.753113 
L 302.488874 230.187046 
L 305.768213 231.522052 
L 309.047552 232.796714 
L 312.32689 234.05077 
L 315.606229 235.32333 
L 318.885568 236.651001 
L 322.164907 238.065993 
L 325.444246 239.594227 
L 328.723585 241.253525 
L 332.002924 243.051939 
L 335.282262 244.986288 
L 338.561601 247.040982 
L 341.84094 249.18722 
L 345.120279 251.382641 
L 348.399618 253.571543 
L 351.678957 255.685746 
L 354.958295 257.646236 
L 358.237634 259.365683 
L 361.516973 260.75197 
L 364.796312 261.71285 
L 368.075651 262.161869 
L 371.35499 262.025699 
L 374.634329 261.253015 
L 377.913667 259.825084 
L 381.193006 257.768213 
L 384.472345 255.16821 
L 387.751684 252.187054 
L 391.031023 249.081917 
" clip-path="url(#p00f0fac820)" style="fill: none; stroke: #1f77b4; stroke-width: 1.5; stroke-linecap: square"/>
   </g>
   <g id="line2d_14">
    <path d="M 66.376477 259.448561 
L 69.655816 261.907921 
L 72.935155 259.565793 
L 76.214493 254.089644 
L 79.493832 246.80287 
L 82.773171 238.733565 
L 86.052509 230.658356 
L 89.331848 223.141654 
L 92.611186 216.570659 
L 95.890525 211.186436 
L 99.169864 207.111369 
L 102.449202 204.373276 
L 105.728541 202.926461 
L 109.00788 202.669969 
L 112.287218 203.463273 
L 115.566557 205.13964 
L 118.845896 207.517387 
L 122.125234 210.409226 
L 125.404573 213.629912 
L 128.683912 217.002347 
L 131.96325 220.36233 
L 135.242589 223.562104 
L 138.521928 226.472847 
L 141.801266 228.986245 
L 145.080605 231.015274 
L 148.359943 232.49431 
L 151.639282 233.378669 
L 154.918621 233.643683 
L 158.197959 233.283401 
L 161.477298 232.308995 
L 164.756637 230.746945 
L 168.035975 228.637075 
L 171.315314 226.030497 
L 174.594653 222.987512 
L 177.873991 219.575523 
L 181.15333 215.866994 
L 184.432669 211.937494 
L 187.712007 207.863849 
L 190.991346 203.722438 
L 194.270685 199.587638 
L 197.550023 195.530441 
L 200.829362 191.617254 
L 204.1087 187.908889 
L 207.388039 184.459739 
L 210.667378 181.317146 
L 213.946716 178.520959 
L 217.226055 176.103272 
L 220.505394 174.088336 
L 223.784732 172.492631 
L 227.064071 259.174356 
L 230.34341 259.174095 
L 233.622748 170.367762 
L 236.902087 170.42426 
L 240.181426 170.874602 
L 243.460764 171.699745 
L 246.740103 172.876833 
L 250.019442 174.379915 
L 253.29878 176.180667 
L 256.578119 178.249106 
L 259.857457 180.554286 
L 263.136796 183.064952 
L 266.416135 185.750153 
L 269.695473 188.5798 
L 272.974812 191.525149 
L 276.254151 194.559219 
L 279.533489 197.657122 
L 282.812828 200.796317 
L 286.092167 203.956769 
L 289.371505 207.121021 
L 292.650844 210.274182 
L 295.930183 213.403825 
L 299.209521 216.499802 
L 302.48886 219.55399 
L 305.768199 222.559961 
L 309.047537 225.512599 
L 312.326876 228.407668 
L 315.606214 231.24134 
L 318.885553 234.009716 
L 322.164892 236.708321 
L 325.44423 239.331631 
L 328.723569 241.872621 
L 332.002908 244.322357 
L 335.282246 246.669672 
L 338.561585 248.90092 
L 341.840924 250.999853 
L 345.120262 252.947622 
L 348.399601 254.722951 
L 351.67894 256.302476 
L 354.958278 257.661302 
L 358.237617 258.773771 
L 361.516956 259.614492 
L 364.796294 260.159629 
L 368.075633 260.38848 
L 371.354971 260.285364 
L 374.63431 259.841831 
L 377.913649 259.059204 
L 381.192987 257.95148 
L 384.472326 256.548586 
L 387.751665 254.899995 
L 391.031003 253.078729 
" clip-path="url(#p00f0fac820)" style="fill: none; stroke: #ff7f0e; stroke-width: 1.5; stroke-linecap: square"/>
   </g>
   <g id="line2d_15">
    <path d="M 66.376477 276.334125 
L 69.655816 258.837062 
L 72.935155 228.546554 
L 76.214493 192.292362 
L 79.493832 155.056335 
L 82.773171 120.315717 
L 86.052509 90.339719 
L 89.331848 66.44405 
L 92.611186 49.207711 
L 95.890525 38.656097 
L 99.169864 34.414125 
L 102.449202 35.832815 
L 105.728541 42.092511 
L 109.00788 52.285646 
L 112.287218 65.4817 
L 115.566557 80.776819 
L 118.845896 97.330275 
L 122.125234 114.389799 
L 125.404573 131.307587 
L 128.683912 147.548606 
L 131.96325 162.692664 
L 135.242589 176.431527 
L 138.521928 188.56223 
L 141.801266 198.977578 
L 145.080605 207.654709 
L 148.359943 214.642464 
L 151.639282 220.048199 
L 154.918621 224.024564 
L 158.197959 226.756695 
L 161.477298 228.450159 
L 164.756637 229.31993 
L 168.035975 229.580579 
L 171.315314 229.437846 
L 174.594653 229.081633 
L 177.873991 228.680486 
L 181.15333 228.377526 
L 184.432669 228.287793 
L 187.712007 228.496917 
L 190.991346 229.061012 
L 194.270685 230.00766 
L 197.550023 231.33785 
L 200.829362 233.028712 
L 204.1087 235.036889 
L 207.388039 237.302377 
L 210.667378 239.752687 
L 213.946716 242.307148 
L 217.226055 244.881216 
L 220.505394 247.390645 
L 223.784732 249.755388 
L 227.064071 259.182558 
L 230.34341 259.18263 
L 233.622748 254.467668 
L 236.902087 255.488076 
L 240.181426 256.179226 
L 243.460764 256.545341 
L 246.740103 256.604927 
L 250.019442 256.389821 
L 253.29878 255.943678 
L 256.578119 255.319968 
L 259.857457 254.579529 
L 263.136796 253.7878 
L 266.416135 253.011786 
L 269.695473 252.316909 
L 272.974812 251.76383 
L 276.254151 251.405376 
L 279.533489 251.283705 
L 282.812828 251.427823 
L 286.092167 251.851592 
L 289.371505 252.552329 
L 292.650844 253.51011 
L 295.930183 254.68788 
L 299.209521 256.032419 
L 302.48886 257.476233 
L 305.768199 258.940375 
L 309.047537 260.338188 
L 312.326876 261.579913 
L 315.606214 262.578053 
L 318.885553 263.253357 
L 322.164892 263.541191 
L 325.44423 263.398036 
L 328.723569 262.807755 
L 332.002908 261.787205 
L 335.282246 260.390673 
L 338.561585 258.712533 
L 341.840924 256.887402 
L 345.120262 255.086984 
L 348.399601 253.51264 
L 351.67894 252.38262 
L 354.958278 251.91275 
L 358.237617 252.289199 
L 361.516956 253.631825 
L 364.796294 255.946399 
L 368.075633 259.063858 
L 371.354971 262.564524 
L 374.63431 265.685042 
L 377.913649 267.205568 
L 381.192987 265.314532 
L 384.472326 257.448045 
L 387.751665 240.100789 
L 391.031003 208.60496 
" clip-path="url(#p00f0fac820)" style="fill: none; stroke: #2ca02c; stroke-width: 1.5; stroke-linecap: square"/>
   </g>
   <g id="line2d_16">
    <path d="M 66.376477 258.827125 
L 69.655811 262.049845 
L 72.935144 259.779094 
L 76.214478 253.966788 
L 79.493812 246.137543 
L 82.773145 237.455114 
L 86.052479 228.781179 
L 89.331812 220.72712 
L 92.611146 213.69942 
L 95.890479 207.939244 
L 99.169813 203.556734 
L 102.449146 200.560549 
L 105.72848 198.883085 
L 109.007814 198.401838 
L 112.287147 198.957306 
L 115.566481 200.367813 
L 118.845814 202.441597 
L 122.125148 204.986497 
L 125.404481 207.817528 
L 128.683815 210.762617 
L 131.963149 213.666758 
L 135.242482 216.394807 
L 138.521816 218.833132 
L 141.801149 220.890296 
L 145.080483 222.49696 
L 148.359816 223.605141 
L 151.63915 224.186968 
L 154.918484 224.233064 
L 158.197817 223.750652 
L 161.477151 222.761478 
L 164.756484 221.299636 
L 168.035818 219.409362 
L 171.315151 217.142859 
L 174.594485 214.558192 
L 177.873818 211.7173 
L 181.153152 208.684161 
L 184.432486 205.523116 
L 187.711819 202.297385 
L 190.991153 199.067783 
L 194.270486 195.891632 
L 197.54982 192.821874 
L 200.829153 189.906394 
L 204.108487 187.187515 
L 207.387821 184.701689 
L 210.667154 182.479347 
L 213.946488 180.544896 
L 217.225821 178.916863 
L 220.505155 177.608142 
L 223.784488 176.626347 
L 227.063822 259.174135 
L 230.343156 259.17393 
L 233.622489 175.795968 
L 236.901823 176.0604 
L 240.181156 176.621213 
L 243.46049 177.467346 
L 246.739823 178.586334 
L 250.019157 179.964684 
L 253.298491 181.588183 
L 256.577824 183.44215 
L 259.857158 185.511627 
L 263.136491 187.781497 
L 266.415825 190.236544 
L 269.695158 192.861455 
L 272.974492 195.64077 
L 276.253825 198.558789 
L 279.533159 201.599446 
L 282.812493 204.746165 
L 286.091826 207.9817 
L 289.37116 211.287997 
L 292.650493 214.646056 
L 295.929827 218.035842 
L 299.20916 221.436239 
L 302.488494 224.825065 
L 305.767828 228.17916 
L 309.047161 231.474554 
L 312.326495 234.686728 
L 315.605828 237.790962 
L 318.885162 240.762782 
L 322.164495 243.578483 
L 325.443829 246.215738 
L 328.723163 248.654261 
L 332.002496 250.876504 
L 335.28183 252.868358 
L 338.561163 254.619815 
L 341.840497 256.12554 
L 345.11983 257.385285 
L 348.399164 258.404087 
L 351.678497 259.192141 
L 354.957831 259.764263 
L 358.237165 260.138814 
L 361.516498 260.335966 
L 364.795832 260.375134 
L 368.075165 260.271434 
L 371.354499 260.030943 
L 374.633832 259.644573 
L 377.913166 259.080311 
L 381.1925 258.273557 
L 384.471833 257.115283 
L 387.751167 255.437696 
L 391.0305 252.997047 
" clip-path="url(#p00f0fac820)" style="fill: none; stroke: #d62728; stroke-width: 1.5; stroke-linecap: square"/>
   </g>
   <g id="line2d_17">
    <path d="M 66.376477 257.006892 
L 69.655816 261.042083 
L 72.935155 261.226705 
L 76.214493 258.553317 
L 79.493832 253.881266 
L 82.773171 247.943084 
L 86.052509 241.35193 
L 89.331848 234.60982 
L 92.611186 228.116438 
L 95.890525 222.178309 
L 99.169864 217.018172 
L 102.449202 212.784384 
L 105.728541 209.560228 
L 109.00788 207.373004 
L 112.287218 206.202796 
L 115.566557 205.990836 
L 118.845896 206.647396 
L 122.125234 208.05915 
L 125.404573 210.095957 
L 128.683912 212.617047 
L 131.96325 215.476581 
L 135.242589 218.528568 
L 138.521928 221.631156 
L 141.801266 224.650289 
L 145.080605 227.462741 
L 148.359943 229.958565 
L 151.639282 232.042962 
L 154.918621 233.637616 
L 158.197959 234.68152 
L 161.477298 235.131331 
L 164.756637 234.961308 
L 168.035975 234.162854 
L 171.315314 232.743725 
L 174.594653 230.726939 
L 177.873991 228.149438 
L 181.15333 225.060543 
L 184.432669 221.520247 
L 187.712007 217.597398 
L 190.991346 213.367797 
L 194.270685 208.912269 
L 197.550023 204.314733 
L 200.829362 199.660315 
L 204.1087 195.033528 
L 207.388039 190.516558 
L 210.667378 186.187673 
L 213.946716 182.119792 
L 217.226055 178.379214 
L 220.505394 175.024543 
L 223.784732 172.10581 
L 227.064071 259.17491 
L 230.34341 259.174492 
L 233.622748 166.85492 
L 236.902087 165.841952 
L 240.181426 165.347732 
L 243.460764 165.372313 
L 246.740103 165.907827 
L 250.019442 166.938828 
L 253.29878 168.442757 
L 256.578119 170.390508 
L 259.857457 172.747094 
L 263.136796 175.472395 
L 266.416135 178.521994 
L 269.695473 181.848071 
L 272.974812 185.400356 
L 276.254151 189.127121 
L 279.533489 192.976208 
L 282.812828 196.89606 
L 286.092167 200.836755 
L 289.371505 204.751029 
L 292.650844 208.595246 
L 295.930183 212.330326 
L 299.209521 215.922592 
L 302.48886 219.344519 
L 305.768199 222.575367 
L 309.047537 225.601664 
L 312.326876 228.417519 
L 315.606214 231.024744 
L 318.885553 233.432737 
L 322.164892 235.658113 
L 325.44423 237.724043 
L 328.723569 239.659259 
L 332.002908 241.496695 
L 335.282246 243.271725 
L 338.561585 245.019941 
L 341.840924 246.774442 
L 345.120262 248.562578 
L 348.399601 250.402084 
L 351.67894 252.296577 
L 354.958278 254.230321 
L 358.237617 256.16223 
L 361.516956 258.019015 
L 364.796294 259.687423 
L 368.075633 261.005473 
L 371.354971 261.752629 
L 374.63431 261.638808 
L 377.913649 260.292133 
L 381.192987 257.24534 
L 384.472326 251.920738 
L 387.751665 243.613601 
L 391.031003 231.47389 
" clip-path="url(#p00f0fac820)" style="fill: none; stroke: #9467bd; stroke-width: 1.5; stroke-linecap: square"/>
   </g>
   <g id="line2d_18">
    <path d="M 66.376477 256.52026 
L 69.655816 261.409612 
L 72.935155 260.638143 
L 76.214494 256.019315 
L 79.493833 249.009944 
L 82.773171 240.758522 
L 86.05251 232.148929 
L 89.331849 223.839822 
L 92.611188 216.300007 
L 95.890527 209.840054 
L 99.169866 204.640445 
L 102.449205 200.776477 
L 105.728543 198.240201 
L 109.007882 196.959591 
L 112.287221 196.8152 
L 115.56656 197.654481 
L 118.845899 199.303999 
L 122.125238 201.579708 
L 125.404576 204.295482 
L 128.683915 207.270064 
L 131.963254 210.332596 
L 135.242593 213.326885 
L 138.521932 216.11454 
L 141.801271 218.577123 
L 145.08061 220.617432 
L 148.359948 222.160033 
L 151.639287 223.151156 
L 154.918626 223.558046 
L 158.197965 223.367877 
L 161.477304 222.586294 
L 164.756643 221.235684 
L 168.035981 219.353234 
L 171.31532 216.988839 
L 174.594659 214.202933 
L 177.873998 211.064285 
L 181.153337 207.647804 
L 184.432676 204.032404 
L 187.712014 200.298954 
L 190.991353 196.528358 
L 194.270692 192.799771 
L 197.550031 189.188985 
L 200.82937 185.767003 
L 204.108709 182.5988 
L 207.388048 179.742292 
L 210.667386 177.247513 
L 213.946725 175.155997 
L 217.226064 173.500369 
L 220.505403 172.304132 
L 223.784742 171.581653 
L 227.064081 259.174883 
L 230.343419 259.174483 
L 233.622758 172.899015 
L 236.902097 173.867883 
L 240.181436 175.229439 
L 243.460775 176.961556 
L 246.740114 179.038213 
L 250.019452 181.430036 
L 253.298791 184.104836 
L 256.57813 187.028136 
L 259.857469 190.163682 
L 263.136808 193.473947 
L 266.416147 196.920614 
L 269.695486 200.465054 
L 272.974824 204.068785 
L 276.254163 207.69393 
L 279.533502 211.303678 
L 282.812841 214.862731 
L 286.09218 218.337772 
L 289.371519 221.697932 
L 292.650857 224.915268 
L 295.930196 227.965254 
L 299.209535 230.827268 
L 302.488874 233.485093 
L 305.768213 235.927396 
L 309.047552 238.148189 
L 312.32689 240.147238 
L 315.606229 241.930411 
L 318.885568 243.509907 
L 322.164907 244.904346 
L 325.444246 246.138658 
L 328.723585 247.243707 
L 332.002924 248.255585 
L 335.282262 249.214484 
L 338.561601 250.163048 
L 341.84094 251.144092 
L 345.120279 252.197558 
L 348.399618 253.356552 
L 351.678957 254.642311 
L 354.958295 256.057891 
L 358.237634 257.580387 
L 361.516973 259.151434 
L 364.796312 260.665747 
L 368.075651 261.957397 
L 371.35499 262.783534 
L 374.634329 262.805183 
L 377.913667 261.564771 
L 381.193006 258.459948 
L 384.472345 252.713277 
L 387.751684 243.337297 
L 391.031023 229.094455 
" clip-path="url(#p00f0fac820)" style="fill: none; stroke: #8c564b; stroke-width: 1.5; stroke-linecap: square"/>
   </g>
   <g id="patch_3">
    <path d="M 50.14375 288.430125 
L 50.14375 22.318125 
" style="fill: none; stroke: #000000; stroke-width: 0.8; stroke-linejoin: miter; stroke-linecap: square"/>
   </g>
   <g id="patch_4">
    <path d="M 407.26375 288.430125 
L 407.26375 22.318125 
" style="fill: none; stroke: #000000; stroke-width: 0.8; stroke-linejoin: miter; stroke-linecap: square"/>
   </g>
   <g id="patch_5">
    <path d="M 50.14375 288.430125 
L 407.26375 288.430125 
" style="fill: none; stroke: #000000; stroke-width: 0.8; stroke-linejoin: miter; stroke-linecap: square"/>
   </g>
   <g id="patch_6">
    <path d="M 50.14375 22.318125 
L 407.26375 22.318125 
" style="fill: none; stroke: #000000; stroke-width: 0.8; stroke-linejoin: miter; stroke-linecap: square"/>
   </g>
   <g id="text_15">
    <!-- FA - xtract_prob_Superior_Longitudinal_Fasciculus_2_L -->
    <g transform="translate(66.520938 16.318125) scale(0.12 -0.12)">
     <defs>
      <path id="DejaVuSans-41" d="M 2188 4044 
L 1331 1722 
L 3047 1722 
L 2188 4044 
z
M 1831 4666 
L 2547 4666 
L 4325 0 
L 3669 0 
L 3244 1197 
L 1141 1197 
L 716 0 
L 50 0 
L 1831 4666 
z
" transform="scale(0.015625)"/>
      <path id="DejaVuSans-2d" d="M 313 2009 
L 1997 2009 
L 1997 1497 
L 313 1497 
L 313 2009 
z
" transform="scale(0.015625)"/>
      <path id="DejaVuSans-74" d="M 1172 4494 
L 1172 3500 
L 2356 3500 
L 2356 3053 
L 1172 3053 
L 1172 1153 
Q 1172 725 1289 603 
Q 1406 481 1766 481 
L 2356 481 
L 2356 0 
L 1766 0 
Q 1100 0 847 248 
Q 594 497 594 1153 
L 594 3053 
L 172 3053 
L 172 3500 
L 594 3500 
L 594 4494 
L 1172 4494 
z
" transform="scale(0.015625)"/>
      <path id="DejaVuSans-5f" d="M 3263 -1063 
L 3263 -1509 
L -63 -1509 
L -63 -1063 
L 3263 -1063 
z
" transform="scale(0.015625)"/>
      <path id="DejaVuSans-70" d="M 1159 525 
L 1159 -1331 
L 581 -1331 
L 581 3500 
L 1159 3500 
L 1159 2969 
Q 1341 3281 1617 3432 
Q 1894 3584 2278 3584 
Q 2916 3584 3314 3078 
Q 3713 2572 3713 1747 
Q 3713 922 3314 415 
Q 2916 -91 2278 -91 
Q 1894 -91 1617 61 
Q 1341 213 1159 525 
z
M 3116 1747 
Q 3116 2381 2855 2742 
Q 2594 3103 2138 3103 
Q 1681 3103 1420 2742 
Q 1159 2381 1159 1747 
Q 1159 1113 1420 752 
Q 1681 391 2138 391 
Q 2594 391 2855 752 
Q 3116 1113 3116 1747 
z
" transform="scale(0.015625)"/>
      <path id="DejaVuSans-6f" d="M 1959 3097 
Q 1497 3097 1228 2736 
Q 959 2375 959 1747 
Q 959 1119 1226 758 
Q 1494 397 1959 397 
Q 2419 397 2687 759 
Q 2956 1122 2956 1747 
Q 2956 2369 2687 2733 
Q 2419 3097 1959 3097 
z
M 1959 3584 
Q 2709 3584 3137 3096 
Q 3566 2609 3566 1747 
Q 3566 888 3137 398 
Q 2709 -91 1959 -91 
Q 1206 -91 779 398 
Q 353 888 353 1747 
Q 353 2609 779 3096 
Q 1206 3584 1959 3584 
z
" transform="scale(0.015625)"/>
      <path id="DejaVuSans-62" d="M 3116 1747 
Q 3116 2381 2855 2742 
Q 2594 3103 2138 3103 
Q 1681 3103 1420 2742 
Q 1159 2381 1159 1747 
Q 1159 1113 1420 752 
Q 1681 391 2138 391 
Q 2594 391 2855 752 
Q 3116 1113 3116 1747 
z
M 1159 2969 
Q 1341 3281 1617 3432 
Q 1894 3584 2278 3584 
Q 2916 3584 3314 3078 
Q 3713 2572 3713 1747 
Q 3713 922 3314 415 
Q 2916 -91 2278 -91 
Q 1894 -91 1617 61 
Q 1341 213 1159 525 
L 1159 0 
L 581 0 
L 581 4863 
L 1159 4863 
L 1159 2969 
z
" transform="scale(0.015625)"/>
      <path id="DejaVuSans-53" d="M 3425 4513 
L 3425 3897 
Q 3066 4069 2747 4153 
Q 2428 4238 2131 4238 
Q 1616 4238 1336 4038 
Q 1056 3838 1056 3469 
Q 1056 3159 1242 3001 
Q 1428 2844 1947 2747 
L 2328 2669 
Q 3034 2534 3370 2195 
Q 3706 1856 3706 1288 
Q 3706 609 3251 259 
Q 2797 -91 1919 -91 
Q 1588 -91 1214 -16 
Q 841 59 441 206 
L 441 856 
Q 825 641 1194 531 
Q 1563 422 1919 422 
Q 2459 422 2753 634 
Q 3047 847 3047 1241 
Q 3047 1584 2836 1778 
Q 2625 1972 2144 2069 
L 1759 2144 
Q 1053 2284 737 2584 
Q 422 2884 422 3419 
Q 422 4038 858 4394 
Q 1294 4750 2059 4750 
Q 2388 4750 2728 4690 
Q 3069 4631 3425 4513 
z
" transform="scale(0.015625)"/>
      <path id="DejaVuSans-4c" d="M 628 4666 
L 1259 4666 
L 1259 531 
L 3531 531 
L 3531 0 
L 628 0 
L 628 4666 
z
" transform="scale(0.015625)"/>
      <path id="DejaVuSans-67" d="M 2906 1791 
Q 2906 2416 2648 2759 
Q 2391 3103 1925 3103 
Q 1463 3103 1205 2759 
Q 947 2416 947 1791 
Q 947 1169 1205 825 
Q 1463 481 1925 481 
Q 2391 481 2648 825 
Q 2906 1169 2906 1791 
z
M 3481 434 
Q 3481 -459 3084 -895 
Q 2688 -1331 1869 -1331 
Q 1566 -1331 1297 -1286 
Q 1028 -1241 775 -1147 
L 775 -588 
Q 1028 -725 1275 -790 
Q 1522 -856 1778 -856 
Q 2344 -856 2625 -561 
Q 2906 -266 2906 331 
L 2906 616 
Q 2728 306 2450 153 
Q 2172 0 1784 0 
Q 1141 0 747 490 
Q 353 981 353 1791 
Q 353 2603 747 3093 
Q 1141 3584 1784 3584 
Q 2172 3584 2450 3431 
Q 2728 3278 2906 2969 
L 2906 3500 
L 3481 3500 
L 3481 434 
z
" transform="scale(0.015625)"/>
      <path id="DejaVuSans-64" d="M 2906 2969 
L 2906 4863 
L 3481 4863 
L 3481 0 
L 2906 0 
L 2906 525 
Q 2725 213 2448 61 
Q 2172 -91 1784 -91 
Q 1150 -91 751 415 
Q 353 922 353 1747 
Q 353 2572 751 3078 
Q 1150 3584 1784 3584 
Q 2172 3584 2448 3432 
Q 2725 3281 2906 2969 
z
M 947 1747 
Q 947 1113 1208 752 
Q 1469 391 1925 391 
Q 2381 391 2643 752 
Q 2906 1113 2906 1747 
Q 2906 2381 2643 2742 
Q 2381 3103 1925 3103 
Q 1469 3103 1208 2742 
Q 947 2381 947 1747 
z
" transform="scale(0.015625)"/>
     </defs>
     <use xlink:href="#DejaVuSans-46"/>
     <use xlink:href="#DejaVuSans-41" x="48.394531"/>
     <use xlink:href="#DejaVuSans-20" x="116.802734"/>
     <use xlink:href="#DejaVuSans-2d" x="148.589844"/>
     <use xlink:href="#DejaVuSans-20" x="184.673828"/>
     <use xlink:href="#DejaVuSans-78" x="216.460938"/>
     <use xlink:href="#DejaVuSans-74" x="275.640625"/>
     <use xlink:href="#DejaVuSans-72" x="314.849609"/>
     <use xlink:href="#DejaVuSans-61" x="355.962891"/>
     <use xlink:href="#DejaVuSans-63" x="417.242188"/>
     <use xlink:href="#DejaVuSans-74" x="472.222656"/>
     <use xlink:href="#DejaVuSans-5f" x="511.431641"/>
     <use xlink:href="#DejaVuSans-70" x="561.431641"/>
     <use xlink:href="#DejaVuSans-72" x="624.908203"/>
     <use xlink:href="#DejaVuSans-6f" x="663.771484"/>
     <use xlink:href="#DejaVuSans-62" x="724.953125"/>
     <use xlink:href="#DejaVuSans-5f" x="788.429688"/>
     <use xlink:href="#DejaVuSans-53" x="838.429688"/>
     <use xlink:href="#DejaVuSans-75" x="901.90625"/>
     <use xlink:href="#DejaVuSans-70" x="965.285156"/>
     <use xlink:href="#DejaVuSans-65" x="1028.761719"/>
     <use xlink:href="#DejaVuSans-72" x="1090.285156"/>
     <use xlink:href="#DejaVuSans-69" x="1131.398438"/>
     <use xlink:href="#DejaVuSans-6f" x="1159.181641"/>
     <use xlink:href="#DejaVuSans-72" x="1220.363281"/>
     <use xlink:href="#DejaVuSans-5f" x="1261.476562"/>
     <use xlink:href="#DejaVuSans-4c" x="1311.476562"/>
     <use xlink:href="#DejaVuSans-6f" x="1365.439453"/>
     <use xlink:href="#DejaVuSans-6e" x="1426.621094"/>
     <use xlink:href="#DejaVuSans-67" x="1490"/>
     <use xlink:href="#DejaVuSans-69" x="1553.476562"/>
     <use xlink:href="#DejaVuSans-74" x="1581.259766"/>
     <use xlink:href="#DejaVuSans-75" x="1620.46875"/>
     <use xlink:href="#DejaVuSans-64" x="1683.847656"/>
     <use xlink:href="#DejaVuSans-69" x="1747.324219"/>
     <use xlink:href="#DejaVuSans-6e" x="1775.107422"/>
     <use xlink:href="#DejaVuSans-61" x="1838.486328"/>
     <use xlink:href="#DejaVuSans-6c" x="1899.765625"/>
     <use xlink:href="#DejaVuSans-5f" x="1927.548828"/>
     <use xlink:href="#DejaVuSans-46" x="1977.548828"/>
     <use xlink:href="#DejaVuSans-61" x="2025.943359"/>
     <use xlink:href="#DejaVuSans-73" x="2087.222656"/>
     <use xlink:href="#DejaVuSans-63" x="2139.322266"/>
     <use xlink:href="#DejaVuSans-69" x="2194.302734"/>
     <use xlink:href="#DejaVuSans-63" x="2222.085938"/>
     <use xlink:href="#DejaVuSans-75" x="2277.066406"/>
     <use xlink:href="#DejaVuSans-6c" x="2340.445312"/>
     <use xlink:href="#DejaVuSans-75" x="2368.228516"/>
     <use xlink:href="#DejaVuSans-73" x="2431.607422"/>
     <use xlink:href="#DejaVuSans-5f" x="2483.707031"/>
     <use xlink:href="#DejaVuSans-32" x="2533.707031"/>
     <use xlink:href="#DejaVuSans-5f" x="2597.330078"/>
     <use xlink:href="#DejaVuSans-4c" x="2647.330078"/>
    </g>
   </g>
   <g id="legend_1">
    <g id="patch_7">
     <path d="M 449.97575 146.666825 
L 547.832 146.666825 
Q 549.832 146.666825 549.832 144.666825 
L 549.832 55.929325 
Q 549.832 53.929325 547.832 53.929325 
L 449.97575 53.929325 
Q 447.97575 53.929325 447.97575 55.929325 
L 447.97575 144.666825 
Q 447.97575 146.666825 449.97575 146.666825 
z
" style="fill: #ffffff; opacity: 0.8; stroke: #cccccc; stroke-linejoin: miter"/>
    </g>
    <g id="line2d_19">
     <path d="M 451.97575 62.027762 
L 461.97575 62.027762 
L 471.97575 62.027762 
" style="fill: none; stroke: #1f77b4; stroke-width: 1.5; stroke-linecap: square"/>
    </g>
    <g id="text_16">
     <!-- 20_06_02_E3 -->
     <g transform="translate(479.97575 65.527762) scale(0.1 -0.1)">
      <defs>
       <path id="DejaVuSans-45" d="M 628 4666 
L 3578 4666 
L 3578 4134 
L 1259 4134 
L 1259 2753 
L 3481 2753 
L 3481 2222 
L 1259 2222 
L 1259 531 
L 3634 531 
L 3634 0 
L 628 0 
L 628 4666 
z
" transform="scale(0.015625)"/>
      </defs>
      <use xlink:href="#DejaVuSans-32"/>
      <use xlink:href="#DejaVuSans-30" x="63.623047"/>
      <use xlink:href="#DejaVuSans-5f" x="127.246094"/>
      <use xlink:href="#DejaVuSans-30" x="177.246094"/>
      <use xlink:href="#DejaVuSans-36" x="240.869141"/>
      <use xlink:href="#DejaVuSans-5f" x="304.492188"/>
      <use xlink:href="#DejaVuSans-30" x="354.492188"/>
      <use xlink:href="#DejaVuSans-32" x="418.115234"/>
      <use xlink:href="#DejaVuSans-5f" x="481.738281"/>
      <use xlink:href="#DejaVuSans-45" x="531.738281"/>
      <use xlink:href="#DejaVuSans-33" x="594.921875"/>
     </g>
    </g>
    <g id="line2d_20">
     <path d="M 451.97575 76.984013 
L 461.97575 76.984013 
L 471.97575 76.984013 
" style="fill: none; stroke: #ff7f0e; stroke-width: 1.5; stroke-linecap: square"/>
    </g>
    <g id="text_17">
     <!-- 20_05_01_E3 -->
     <g transform="translate(479.97575 80.484013) scale(0.1 -0.1)">
      <use xlink:href="#DejaVuSans-32"/>
      <use xlink:href="#DejaVuSans-30" x="63.623047"/>
      <use xlink:href="#DejaVuSans-5f" x="127.246094"/>
      <use xlink:href="#DejaVuSans-30" x="177.246094"/>
      <use xlink:href="#DejaVuSans-35" x="240.869141"/>
      <use xlink:href="#DejaVuSans-5f" x="304.492188"/>
      <use xlink:href="#DejaVuSans-30" x="354.492188"/>
      <use xlink:href="#DejaVuSans-31" x="418.115234"/>
      <use xlink:href="#DejaVuSans-5f" x="481.738281"/>
      <use xlink:href="#DejaVuSans-45" x="531.738281"/>
      <use xlink:href="#DejaVuSans-33" x="594.921875"/>
     </g>
    </g>
    <g id="line2d_21">
     <path d="M 451.97575 91.940262 
L 461.97575 91.940262 
L 471.97575 91.940262 
" style="fill: none; stroke: #2ca02c; stroke-width: 1.5; stroke-linecap: square"/>
    </g>
    <g id="text_18">
     <!-- 20_02_02_E3 -->
     <g transform="translate(479.97575 95.440262) scale(0.1 -0.1)">
      <use xlink:href="#DejaVuSans-32"/>
      <use xlink:href="#DejaVuSans-30" x="63.623047"/>
      <use xlink:href="#DejaVuSans-5f" x="127.246094"/>
      <use xlink:href="#DejaVuSans-30" x="177.246094"/>
      <use xlink:href="#DejaVuSans-32" x="240.869141"/>
      <use xlink:href="#DejaVuSans-5f" x="304.492188"/>
      <use xlink:href="#DejaVuSans-30" x="354.492188"/>
      <use xlink:href="#DejaVuSans-32" x="418.115234"/>
      <use xlink:href="#DejaVuSans-5f" x="481.738281"/>
      <use xlink:href="#DejaVuSans-45" x="531.738281"/>
      <use xlink:href="#DejaVuSans-33" x="594.921875"/>
     </g>
    </g>
    <g id="line2d_22">
     <path d="M 451.97575 106.896513 
L 461.97575 106.896513 
L 471.97575 106.896513 
" style="fill: none; stroke: #d62728; stroke-width: 1.5; stroke-linecap: square"/>
    </g>
    <g id="text_19">
     <!-- 20_10_02_E3 -->
     <g transform="translate(479.97575 110.396513) scale(0.1 -0.1)">
      <use xlink:href="#DejaVuSans-32"/>
      <use xlink:href="#DejaVuSans-30" x="63.623047"/>
      <use xlink:href="#DejaVuSans-5f" x="127.246094"/>
      <use xlink:href="#DejaVuSans-31" x="177.246094"/>
      <use xlink:href="#DejaVuSans-30" x="240.869141"/>
      <use xlink:href="#DejaVuSans-5f" x="304.492188"/>
      <use xlink:href="#DejaVuSans-30" x="354.492188"/>
      <use xlink:href="#DejaVuSans-32" x="418.115234"/>
      <use xlink:href="#DejaVuSans-5f" x="481.738281"/>
      <use xlink:href="#DejaVuSans-45" x="531.738281"/>
      <use xlink:href="#DejaVuSans-33" x="594.921875"/>
     </g>
    </g>
    <g id="line2d_23">
     <path d="M 451.97575 121.852762 
L 461.97575 121.852762 
L 471.97575 121.852762 
" style="fill: none; stroke: #9467bd; stroke-width: 1.5; stroke-linecap: square"/>
    </g>
    <g id="text_20">
     <!-- 20_08_02_E3 -->
     <g transform="translate(479.97575 125.352762) scale(0.1 -0.1)">
      <use xlink:href="#DejaVuSans-32"/>
      <use xlink:href="#DejaVuSans-30" x="63.623047"/>
      <use xlink:href="#DejaVuSans-5f" x="127.246094"/>
      <use xlink:href="#DejaVuSans-30" x="177.246094"/>
      <use xlink:href="#DejaVuSans-38" x="240.869141"/>
      <use xlink:href="#DejaVuSans-5f" x="304.492188"/>
      <use xlink:href="#DejaVuSans-30" x="354.492188"/>
      <use xlink:href="#DejaVuSans-32" x="418.115234"/>
      <use xlink:href="#DejaVuSans-5f" x="481.738281"/>
      <use xlink:href="#DejaVuSans-45" x="531.738281"/>
      <use xlink:href="#DejaVuSans-33" x="594.921875"/>
     </g>
    </g>
    <g id="line2d_24">
     <path d="M 451.97575 136.809012 
L 461.97575 136.809012 
L 471.97575 136.809012 
" style="fill: none; stroke: #8c564b; stroke-width: 1.5; stroke-linecap: square"/>
    </g>
    <g id="text_21">
     <!-- 20_11_02_E3 -->
     <g transform="translate(479.97575 140.309012) scale(0.1 -0.1)">
      <use xlink:href="#DejaVuSans-32"/>
      <use xlink:href="#DejaVuSans-30" x="63.623047"/>
      <use xlink:href="#DejaVuSans-5f" x="127.246094"/>
      <use xlink:href="#DejaVuSans-31" x="177.246094"/>
      <use xlink:href="#DejaVuSans-31" x="240.869141"/>
      <use xlink:href="#DejaVuSans-5f" x="304.492188"/>
      <use xlink:href="#DejaVuSans-30" x="354.492188"/>
      <use xlink:href="#DejaVuSans-32" x="418.115234"/>
      <use xlink:href="#DejaVuSans-5f" x="481.738281"/>
      <use xlink:href="#DejaVuSans-45" x="531.738281"/>
      <use xlink:href="#DejaVuSans-33" x="594.921875"/>
     </g>
    </g>
   </g>
  </g>
 </g>
 <defs>
  <clipPath id="p00f0fac820">
   <rect x="50.14375" y="22.318125" width="357.12" height="266.112"/>
  </clipPath>
 </defs>
</svg>
