<?xml version="1.0" encoding="utf-8" standalone="no"?>
<!DOCTYPE svg PUBLIC "-//W3C//DTD SVG 1.1//EN"
  "http://www.w3.org/Graphics/SVG/1.1/DTD/svg11.dtd">
<svg xmlns:xlink="http://www.w3.org/1999/xlink" width="565.411687pt" height="325.986375pt" viewBox="0 0 565.411687 325.986375" xmlns="http://www.w3.org/2000/svg" version="1.1">
 <metadata>
  <rdf:RDF xmlns:dc="http://purl.org/dc/elements/1.1/" xmlns:cc="http://creativecommons.org/ns#" xmlns:rdf="http://www.w3.org/1999/02/22-rdf-syntax-ns#">
   <cc:Work>
    <dc:type rdf:resource="http://purl.org/dc/dcmitype/StillImage"/>
    <dc:date>2023-02-07T23:00:00.780508</dc:date>
    <dc:format>image/svg+xml</dc:format>
    <dc:creator>
     <cc:Agent>
      <dc:title>Matplotlib v3.6.2, https://matplotlib.org/</dc:title>
     </cc:Agent>
    </dc:creator>
   </cc:Work>
  </rdf:RDF>
 </metadata>
 <defs>
  <style type="text/css">*{stroke-linejoin: round; stroke-linecap: butt}</style>
 </defs>
 <g id="figure_1">
  <g id="patch_1">
   <path d="M 0 325.986375 
L 565.411687 325.986375 
L 565.411687 0 
L 0 0 
z
" style="fill: #ffffff"/>
  </g>
  <g id="axes_1">
   <g id="patch_2">
    <path d="M 58.523438 288.430125 
L 415.643438 288.430125 
L 415.643438 22.318125 
L 58.523438 22.318125 
z
" style="fill: #ffffff"/>
   </g>
   <g id="PolyCollection_1">
    <path d="M 74.756165 186.092931 
L 74.756165 237.632798 
L 77.050569 237.632798 
L 79.344974 237.632798 
L 81.639379 237.632798 
L 83.933784 237.632798 
L 86.228188 237.632798 
L 88.522593 237.632798 
L 90.816998 237.632798 
L 93.111402 237.632798 
L 95.405807 237.632798 
L 97.700212 237.632798 
L 99.994617 237.632798 
L 102.289021 237.632798 
L 104.583426 237.632798 
L 106.877831 237.632798 
L 109.172235 237.632798 
L 111.46664 237.632798 
L 113.761045 237.632798 
L 116.05545 237.632798 
L 118.349854 237.632798 
L 120.644259 237.632798 
L 122.938664 237.632798 
L 125.233068 237.632798 
L 127.527473 237.632798 
L 129.821878 237.632798 
L 132.116283 237.632798 
L 134.410687 237.632798 
L 136.705092 237.632798 
L 138.999497 237.632798 
L 141.293901 237.632798 
L 143.588306 237.632798 
L 145.882711 237.632798 
L 148.177116 237.632798 
L 150.47152 237.632798 
L 152.765925 237.632798 
L 155.06033 237.632798 
L 157.354734 237.632798 
L 159.649139 237.632798 
L 161.943544 237.632798 
L 164.237949 237.632798 
L 166.532353 237.632798 
L 168.826758 237.632798 
L 171.121163 237.632798 
L 173.415567 237.632798 
L 175.709972 237.632798 
L 178.004377 237.632798 
L 180.298782 237.632798 
L 182.593186 237.632798 
L 184.887591 237.632798 
L 187.181996 237.632798 
L 189.4764 237.632798 
L 191.770805 237.632798 
L 194.06521 237.632798 
L 196.359615 237.632798 
L 198.654019 237.632798 
L 200.948424 237.632798 
L 203.242829 237.632798 
L 205.537233 237.632798 
L 207.831638 237.632798 
L 210.126043 237.632798 
L 212.420448 237.632798 
L 214.714852 237.632798 
L 217.009257 237.632798 
L 219.303662 237.632798 
L 221.598066 237.632798 
L 223.892471 237.632798 
L 226.186876 237.632798 
L 228.481281 237.632798 
L 230.775685 237.632798 
L 233.07009 237.632798 
L 235.364495 237.632798 
L 237.658899 237.632798 
L 239.953304 237.632798 
L 242.247709 237.632798 
L 244.542114 237.632798 
L 246.836518 237.632798 
L 249.130923 237.632798 
L 251.425328 237.632798 
L 253.719732 237.632798 
L 256.014137 237.632798 
L 258.308542 237.632798 
L 260.602947 237.632798 
L 262.897351 237.632798 
L 265.191756 237.632798 
L 267.486161 237.632798 
L 269.780565 237.632798 
L 272.07497 237.632798 
L 274.369375 237.632798 
L 276.66378 237.632798 
L 278.958184 237.632798 
L 281.252589 237.632798 
L 283.546994 237.632798 
L 285.841398 237.632798 
L 288.135803 237.632798 
L 290.430208 237.632798 
L 292.724613 237.632798 
L 295.019017 237.632798 
L 297.313422 237.632798 
L 299.607827 237.632798 
L 301.902231 237.632798 
L 301.902231 250.008102 
L 301.902231 250.008102 
L 299.607827 235.384183 
L 297.313422 229.065358 
L 295.019017 228.055043 
L 292.724613 230.113499 
L 290.430208 233.618906 
L 288.135803 237.447074 
L 285.841398 240.867997 
L 283.546994 243.457568 
L 281.252589 245.022919 
L 278.958184 245.539904 
L 276.66378 245.101404 
L 274.369375 243.875183 
L 272.07497 242.070143 
L 269.780565 239.90992 
L 267.486161 237.612829 
L 265.191756 235.377266 
L 262.897351 233.371742 
L 260.602947 231.728813 
L 258.308542 230.542213 
L 256.014137 229.8666 
L 253.719732 229.719355 
L 251.425328 230.083955 
L 249.130923 230.914486 
L 246.836518 232.140926 
L 244.542114 233.67486 
L 242.247709 235.415353 
L 239.953304 237.254747 
L 237.658899 239.084168 
L 235.364495 240.798604 
L 233.07009 242.301407 
L 230.775685 243.508146 
L 228.481281 244.349718 
L 226.186876 244.774708 
L 223.892471 244.750956 
L 221.598066 244.266352 
L 219.303662 243.328877 
L 217.009257 241.965928 
L 214.714852 240.222992 
L 212.420448 238.161716 
L 210.126043 235.857478 
L 207.831638 233.396511 
L 205.537233 230.872703 
L 203.242829 228.384137 
L 200.948424 226.029497 
L 198.654019 223.904421 
L 196.359615 222.097898 
L 194.06521 220.688814 
L 191.770805 219.742739 
L 189.4764 237.63529 
L 187.181996 237.636444 
L 184.887591 217.950085 
L 182.593186 219.624234 
L 180.298782 221.89892 
L 178.004377 224.688477 
L 175.709972 227.880405 
L 173.415567 231.337824 
L 171.121163 234.90278 
L 168.826758 238.400362 
L 166.532353 241.643551 
L 164.237949 244.4387 
L 161.943544 246.591551 
L 159.649139 247.91365 
L 157.354734 248.229013 
L 155.06033 247.380894 
L 152.765925 245.238479 
L 150.47152 241.703329 
L 148.177116 236.715374 
L 145.882711 230.258277 
L 143.588306 222.363955 
L 141.293901 213.116074 
L 138.999497 202.652314 
L 136.705092 191.165216 
L 134.410687 178.901446 
L 132.116283 166.159293 
L 129.821878 153.284277 
L 127.527473 140.662728 
L 125.233068 128.713256 
L 122.938664 117.876037 
L 120.644259 108.599903 
L 118.349854 101.327241 
L 116.05545 96.476776 
L 113.761045 94.424357 
L 111.46664 95.481921 
L 109.172235 99.874884 
L 106.877831 107.718284 
L 104.583426 118.992059 
L 102.289021 133.515966 
L 99.994617 150.924696 
L 97.700212 170.643885 
L 95.405807 191.867796 
L 93.111402 213.53958 
L 90.816998 234.335149 
L 88.522593 252.651818 
L 86.228188 266.603025 
L 83.933784 274.020573 
L 81.639379 272.466027 
L 79.344974 259.253031 
L 77.050569 231.482514 
L 74.756165 186.092931 
z
" clip-path="url(#p154f1c5418)" style="fill: #1f77b4; fill-opacity: 0.166667"/>
   </g>
   <g id="PolyCollection_2">
    <path d="M 74.756165 251.50503 
L 74.756165 237.632798 
L 76.470276 237.632798 
L 78.184386 237.632798 
L 79.898497 237.632798 
L 81.612608 237.632798 
L 83.326719 237.632798 
L 85.04083 237.632798 
L 86.754941 237.632798 
L 88.469051 237.632798 
L 90.183162 237.632798 
L 91.897273 237.632798 
L 93.611384 237.632798 
L 95.325495 237.632798 
L 97.039606 237.632798 
L 98.753716 237.632798 
L 100.467827 237.632798 
L 102.181938 237.632798 
L 103.896049 237.632798 
L 105.61016 237.632798 
L 107.324271 237.632798 
L 109.038381 237.632798 
L 110.752492 237.632798 
L 112.466603 237.632798 
L 114.180714 237.632798 
L 115.894825 237.632798 
L 117.608935 237.632798 
L 119.323046 237.632798 
L 121.037157 237.632798 
L 122.751268 237.632798 
L 124.465379 237.632798 
L 126.17949 237.632798 
L 127.8936 237.632798 
L 129.607711 237.632798 
L 131.321822 237.632798 
L 133.035933 237.632798 
L 134.750044 237.632798 
L 136.464155 237.632798 
L 138.178265 237.632798 
L 139.892376 237.632798 
L 141.606487 237.632798 
L 143.320598 237.632798 
L 145.034709 237.632798 
L 146.74882 237.632798 
L 148.46293 237.632798 
L 150.177041 237.632798 
L 151.891152 237.632798 
L 153.605263 237.632798 
L 155.319374 237.632798 
L 157.033485 237.632798 
L 158.747595 237.632798 
L 160.461706 237.632798 
L 162.175817 237.632798 
L 163.889928 237.632798 
L 165.604039 237.632798 
L 167.31815 237.632798 
L 169.03226 237.632798 
L 170.746371 237.632798 
L 172.460482 237.632798 
L 174.174593 237.632798 
L 175.888704 237.632798 
L 177.602814 237.632798 
L 179.316925 237.632798 
L 181.031036 237.632798 
L 182.745147 237.632798 
L 184.459258 237.632798 
L 186.173369 237.632798 
L 187.887479 237.632798 
L 189.60159 237.632798 
L 191.315701 237.632798 
L 193.029812 237.632798 
L 194.743923 237.632798 
L 196.458034 237.632798 
L 198.172144 237.632798 
L 199.886255 237.632798 
L 201.600366 237.632798 
L 203.314477 237.632798 
L 205.028588 237.632798 
L 206.742699 237.632798 
L 208.456809 237.632798 
L 210.17092 237.632798 
L 211.885031 237.632798 
L 213.599142 237.632798 
L 215.313253 237.632798 
L 217.027364 237.632798 
L 218.741474 237.632798 
L 220.455585 237.632798 
L 222.169696 237.632798 
L 223.883807 237.632798 
L 225.597918 237.632798 
L 227.312029 237.632798 
L 229.026139 237.632798 
L 230.74025 237.632798 
L 232.454361 237.632798 
L 234.168472 237.632798 
L 235.882583 237.632798 
L 237.596693 237.632798 
L 239.310804 237.632798 
L 241.024915 237.632798 
L 242.739026 237.632798 
L 244.453137 237.632798 
L 244.453137 260.62492 
L 244.453137 260.62492 
L 242.739026 231.709162 
L 241.024915 220.590306 
L 239.310804 220.232175 
L 237.596693 225.563043 
L 235.882583 233.0726 
L 234.168472 240.470223 
L 232.454361 246.39773 
L 230.74025 250.190349 
L 229.026139 251.680133 
L 227.312029 251.036518 
L 225.597918 248.63918 
L 223.883807 244.978756 
L 222.169696 240.581428 
L 220.455585 235.953724 
L 218.741474 231.544252 
L 217.027364 227.719441 
L 215.313253 224.750651 
L 213.599142 222.810344 
L 211.885031 221.975245 
L 210.17092 222.234727 
L 208.456809 223.502848 
L 206.742699 225.632735 
L 205.028588 228.432175 
L 203.314477 231.679481 
L 201.600366 235.138888 
L 199.886255 238.574849 
L 198.172144 241.764795 
L 196.458034 244.509999 
L 194.743923 246.644344 
L 193.029812 248.040867 
L 191.315701 248.616038 
L 189.60159 248.331839 
L 187.887479 247.195734 
L 186.173369 245.258711 
L 184.459258 242.611584 
L 182.745147 239.379819 
L 181.031036 235.717138 
L 179.316925 231.798187 
L 177.602814 227.810571 
L 175.888704 223.946537 
L 174.174593 220.394616 
L 172.460482 217.331478 
L 170.746371 214.914288 
L 169.03226 213.273789 
L 167.31815 212.50833 
L 165.604039 212.679032 
L 163.889928 213.806241 
L 162.175817 215.86738 
L 160.461706 237.637659 
L 158.747595 237.636827 
L 157.033485 226.011435 
L 155.319374 230.364127 
L 153.605263 234.97433 
L 151.891152 239.614578 
L 150.177041 244.038123 
L 148.46293 247.987186 
L 146.74882 251.20201 
L 145.034709 253.430516 
L 143.320598 254.438266 
L 141.606487 254.018456 
L 139.892376 252.001635 
L 138.178265 248.264818 
L 136.464155 242.739682 
L 134.750044 235.419496 
L 133.035933 226.364483 
L 131.321822 215.705293 
L 129.607711 203.644309 
L 127.8936 190.454538 
L 126.17949 176.475855 
L 124.465379 162.108471 
L 122.751268 147.803495 
L 121.037157 134.050588 
L 119.323046 121.362759 
L 117.608935 110.258465 
L 115.894825 101.241272 
L 114.180714 94.777497 
L 112.466603 91.272333 
L 110.752492 91.045162 
L 109.038381 94.304907 
L 107.324271 101.126462 
L 105.61016 111.429444 
L 103.896049 124.960724 
L 102.181938 141.282444 
L 100.467827 159.767472 
L 98.753716 179.604514 
L 97.039606 199.815417 
L 95.325495 219.287505 
L 93.611384 236.824096 
L 91.897273 251.216763 
L 90.183162 261.343215 
L 88.469051 266.295135 
L 86.754941 265.540679 
L 85.04083 259.126849 
L 83.326719 247.927375 
L 81.612608 233.94225 
L 79.898497 220.655628 
L 78.184386 213.459264 
L 76.470276 220.149337 
L 74.756165 251.50503 
z
" clip-path="url(#p154f1c5418)" style="fill: #ff7f0e; fill-opacity: 0.166667"/>
   </g>
   <g id="PolyCollection_3">
    <path d="M 74.756165 204.307839 
L 74.756165 237.632798 
L 76.853363 237.632798 
L 78.950561 237.632798 
L 81.047759 237.632798 
L 83.144957 237.632798 
L 85.242155 237.632798 
L 87.339353 237.632798 
L 89.436551 237.632798 
L 91.533749 237.632798 
L 93.630948 237.632798 
L 95.728146 237.632798 
L 97.825344 237.632798 
L 99.922542 237.632798 
L 102.01974 237.632798 
L 104.116938 237.632798 
L 106.214136 237.632798 
L 108.311334 237.632798 
L 110.408532 237.632798 
L 112.50573 237.632798 
L 114.602928 237.632798 
L 116.700127 237.632798 
L 118.797325 237.632798 
L 120.894523 237.632798 
L 122.991721 237.632798 
L 125.088919 237.632798 
L 127.186117 237.632798 
L 129.283315 237.632798 
L 131.380513 237.632798 
L 133.477711 237.632798 
L 135.574909 237.632798 
L 137.672107 237.632798 
L 139.769305 237.632798 
L 141.866504 237.632798 
L 143.963702 237.632798 
L 146.0609 237.632798 
L 148.158098 237.632798 
L 150.255296 237.632798 
L 152.352494 237.632798 
L 154.449692 237.632798 
L 156.54689 237.632798 
L 158.644088 237.632798 
L 160.741286 237.632798 
L 162.838484 237.632798 
L 164.935683 237.632798 
L 167.032881 237.632798 
L 169.130079 237.632798 
L 171.227277 237.632798 
L 173.324475 237.632798 
L 175.421673 237.632798 
L 177.518871 237.632798 
L 179.616069 237.632798 
L 181.713267 237.632798 
L 183.810465 237.632798 
L 185.907663 237.632798 
L 188.004862 237.632798 
L 190.10206 237.632798 
L 192.199258 237.632798 
L 194.296456 237.632798 
L 196.393654 237.632798 
L 198.490852 237.632798 
L 200.58805 237.632798 
L 202.685248 237.632798 
L 204.782446 237.632798 
L 206.879644 237.632798 
L 208.976842 237.632798 
L 211.07404 237.632798 
L 213.171239 237.632798 
L 215.268437 237.632798 
L 217.365635 237.632798 
L 219.462833 237.632798 
L 221.560031 237.632798 
L 223.657229 237.632798 
L 225.754427 237.632798 
L 227.851625 237.632798 
L 229.948823 237.632798 
L 232.046021 237.632798 
L 234.143219 237.632798 
L 236.240418 237.632798 
L 238.337616 237.632798 
L 240.434814 237.632798 
L 242.532012 237.632798 
L 244.62921 237.632798 
L 246.726408 237.632798 
L 248.823606 237.632798 
L 250.920804 237.632798 
L 253.018002 237.632798 
L 255.1152 237.632798 
L 257.212398 237.632798 
L 259.309597 237.632798 
L 261.406795 237.632798 
L 263.503993 237.632798 
L 265.601191 237.632798 
L 267.698389 237.632798 
L 269.795587 237.632798 
L 271.892785 237.632798 
L 273.989983 237.632798 
L 276.087181 237.632798 
L 278.184379 237.632798 
L 280.281577 237.632798 
L 282.378775 237.632798 
L 282.378775 233.998283 
L 282.378775 233.998283 
L 280.281577 238.070333 
L 278.184379 240.039373 
L 276.087181 240.536377 
L 273.989983 240.078896 
L 271.892785 239.081248 
L 269.795587 237.864979 
L 267.698389 236.669385 
L 265.601191 235.661913 
L 263.503993 234.948306 
L 261.406795 234.582346 
L 259.309597 234.575102 
L 257.212398 234.903589 
L 255.1152 235.518779 
L 253.018002 236.352909 
L 250.920804 237.326048 
L 248.823606 238.351922 
L 246.726408 239.342968 
L 244.62921 240.214637 
L 242.532012 240.888956 
L 240.434814 241.297374 
L 238.337616 241.382931 
L 236.240418 241.101773 
L 234.143219 240.424079 
L 232.046021 239.334436 
L 229.948823 237.831715 
L 227.851625 235.928513 
L 225.754427 233.650212 
L 223.657229 231.033718 
L 221.560031 228.125926 
L 219.462833 224.981999 
L 217.365635 221.663484 
L 215.268437 218.236345 
L 213.171239 214.768956 
L 211.07404 211.330105 
L 208.976842 207.987065 
L 206.879644 204.803754 
L 204.782446 201.839056 
L 202.685248 199.145299 
L 200.58805 196.766953 
L 198.490852 194.739557 
L 196.393654 193.08889 
L 194.296456 191.830415 
L 192.199258 190.968991 
L 190.10206 190.498867 
L 188.004862 190.403948 
L 185.907663 190.658331 
L 183.810465 191.227093 
L 181.713267 192.067327 
L 179.616069 237.62571 
L 177.518871 237.624843 
L 175.421673 196.580684 
L 173.324475 197.717328 
L 171.227277 198.802593 
L 169.130079 199.790785 
L 167.032881 200.641267 
L 164.935683 201.319631 
L 162.838484 201.798713 
L 160.741286 202.059452 
L 158.644088 202.091537 
L 156.54689 201.89385 
L 154.449692 201.474688 
L 152.352494 200.851737 
L 150.255296 200.051812 
L 148.158098 199.110345 
L 146.0609 198.070624 
L 143.963702 196.9828 
L 141.866504 195.902648 
L 139.769305 194.890124 
L 137.672107 194.007715 
L 135.574909 193.318613 
L 133.477711 192.884748 
L 131.380513 192.764697 
L 129.283315 193.011529 
L 127.186117 193.670606 
L 125.088919 194.777409 
L 122.991721 196.355427 
L 120.894523 198.414175 
L 118.797325 200.947405 
L 116.700127 203.931569 
L 114.602928 207.32462 
L 112.50573 211.065219 
L 110.408532 215.072432 
L 108.311334 219.246005 
L 106.214136 223.467311 
L 104.116938 227.601056 
L 102.01974 231.497848 
L 99.922542 234.997734 
L 97.825344 237.934811 
L 95.728146 240.143009 
L 93.630948 241.463178 
L 91.533749 241.751579 
L 89.436551 240.889905 
L 87.339353 238.796949 
L 85.242155 235.442039 
L 83.144957 230.860371 
L 81.047759 225.170356 
L 78.950561 218.593107 
L 76.853363 211.474203 
L 74.756165 204.307839 
z
" clip-path="url(#p154f1c5418)" style="fill: #2ca02c; fill-opacity: 0.166667"/>
   </g>
   <g id="PolyCollection_4">
    <path d="M 74.756165 230.43297 
L 74.756165 237.632798 
L 76.649575 237.632798 
L 78.542986 237.632798 
L 80.436396 237.632798 
L 82.329806 237.632798 
L 84.223217 237.632798 
L 86.116627 237.632798 
L 88.010038 237.632798 
L 89.903448 237.632798 
L 91.796858 237.632798 
L 93.690269 237.632798 
L 95.583679 237.632798 
L 97.47709 237.632798 
L 99.3705 237.632798 
L 101.26391 237.632798 
L 103.157321 237.632798 
L 105.050731 237.632798 
L 106.944142 237.632798 
L 108.837552 237.632798 
L 110.730962 237.632798 
L 112.624373 237.632798 
L 114.517783 237.632798 
L 116.411194 237.632798 
L 118.304604 237.632798 
L 120.198014 237.632798 
L 122.091425 237.632798 
L 123.984835 237.632798 
L 125.878246 237.632798 
L 127.771656 237.632798 
L 129.665066 237.632798 
L 131.558477 237.632798 
L 133.451887 237.632798 
L 135.345298 237.632798 
L 137.238708 237.632798 
L 139.132118 237.632798 
L 141.025529 237.632798 
L 142.918939 237.632798 
L 144.81235 237.632798 
L 146.70576 237.632798 
L 148.59917 237.632798 
L 150.492581 237.632798 
L 152.385991 237.632798 
L 154.279402 237.632798 
L 156.172812 237.632798 
L 158.066222 237.632798 
L 159.959633 237.632798 
L 161.853043 237.632798 
L 163.746454 237.632798 
L 165.639864 237.632798 
L 167.533275 237.632798 
L 169.426685 237.632798 
L 171.320095 237.632798 
L 173.213506 237.632798 
L 175.106916 237.632798 
L 177.000327 237.632798 
L 178.893737 237.632798 
L 180.787147 237.632798 
L 182.680558 237.632798 
L 184.573968 237.632798 
L 186.467379 237.632798 
L 188.360789 237.632798 
L 190.254199 237.632798 
L 192.14761 237.632798 
L 194.04102 237.632798 
L 195.934431 237.632798 
L 197.827841 237.632798 
L 199.721251 237.632798 
L 201.614662 237.632798 
L 203.508072 237.632798 
L 205.401483 237.632798 
L 207.294893 237.632798 
L 209.188303 237.632798 
L 211.081714 237.632798 
L 212.975124 237.632798 
L 214.868535 237.632798 
L 216.761945 237.632798 
L 218.655355 237.632798 
L 220.548766 237.632798 
L 222.442176 237.632798 
L 224.335587 237.632798 
L 226.228997 237.632798 
L 228.122407 237.632798 
L 230.015818 237.632798 
L 231.909228 237.632798 
L 233.802639 237.632798 
L 235.696049 237.632798 
L 237.589459 237.632798 
L 239.48287 237.632798 
L 241.37628 237.632798 
L 243.269691 237.632798 
L 245.163101 237.632798 
L 247.056511 237.632798 
L 248.949922 237.632798 
L 250.843332 237.632798 
L 252.736743 237.632798 
L 254.630153 237.632798 
L 256.523563 237.632798 
L 258.416974 237.632798 
L 260.310384 237.632798 
L 262.203795 237.632798 
L 262.203795 260.737604 
L 262.203795 260.737604 
L 260.310384 232.119678 
L 258.416974 220.82045 
L 256.523563 220.114367 
L 254.630153 225.121867 
L 252.736743 232.436724 
L 250.843332 239.809203 
L 248.949922 245.878906 
L 247.056511 249.95169 
L 245.163101 251.815468 
L 243.269691 251.590101 
L 241.37628 249.607041 
L 239.48287 246.314696 
L 237.589459 242.205911 
L 235.696049 237.764245 
L 233.802639 233.426085 
L 231.909228 229.555905 
L 230.015818 226.432282 
L 228.122407 224.242548 
L 226.228997 223.084184 
L 224.335587 222.971309 
L 222.442176 223.844837 
L 220.548766 225.585065 
L 218.655355 228.025636 
L 216.761945 230.967999 
L 214.868535 234.195649 
L 212.975124 237.487558 
L 211.081714 240.630339 
L 209.188303 243.428823 
L 207.294893 245.7148 
L 205.401483 247.353793 
L 203.508072 248.249811 
L 201.614662 248.348082 
L 199.721251 247.635859 
L 197.827841 246.141409 
L 195.934431 243.931364 
L 194.04102 241.106631 
L 192.14761 237.797093 
L 190.254199 234.155352 
L 188.360789 230.349756 
L 186.467379 226.556992 
L 184.573968 222.954494 
L 182.680558 219.712923 
L 180.787147 216.988965 
L 178.893737 214.918659 
L 177.000327 213.611479 
L 175.106916 213.145337 
L 173.213506 213.562657 
L 171.320095 214.867662 
L 169.426685 237.637507 
L 167.533275 237.637145 
L 165.639864 222.396202 
L 163.746454 226.290752 
L 161.853043 230.584191 
L 159.959633 235.074825 
L 158.066222 239.537595 
L 156.172812 243.731274 
L 154.279402 247.406567 
L 152.385991 250.314919 
L 150.492581 252.21779 
L 148.59917 252.896148 
L 146.70576 252.1599 
L 144.81235 249.856964 
L 142.918939 245.881686 
L 141.025529 240.182291 
L 139.132118 232.767064 
L 137.238708 223.708963 
L 135.345298 213.148377 
L 133.451887 201.29378 
L 131.558477 188.420057 
L 129.665066 174.864296 
L 127.771656 161.018947 
L 125.878246 147.322238 
L 123.984835 134.245872 
L 122.091425 122.280077 
L 120.198014 111.916178 
L 118.304604 103.62698 
L 116.411194 97.845359 
L 114.517783 94.941593 
L 112.624373 95.200114 
L 110.730962 98.796522 
L 108.837552 105.775873 
L 106.944142 116.033451 
L 105.050731 129.299442 
L 103.157321 145.129147 
L 101.26391 162.900606 
L 99.3705 181.821792 
L 97.47709 200.949772 
L 95.583679 219.224558 
L 93.690269 235.520672 
L 91.796858 248.719798 
L 89.903448 257.808221 
L 88.010038 262.003171 
L 86.116627 260.912548 
L 84.223217 254.732959 
L 82.329806 244.491407 
L 80.436396 232.336469 
L 78.542986 221.885274 
L 76.649575 218.6331 
L 74.756165 230.43297 
z
" clip-path="url(#p154f1c5418)" style="fill: #d62728; fill-opacity: 0.166667"/>
   </g>
   <g id="PolyCollection_5">
    <path d="M 74.756165 191.278565 
L 74.756165 237.632798 
L 78.035504 237.632798 
L 81.314842 237.632798 
L 84.594181 237.632798 
L 87.87352 237.632798 
L 91.152859 237.632798 
L 94.432198 237.632798 
L 97.711537 237.632798 
L 100.990876 237.632798 
L 104.270214 237.632798 
L 107.549553 237.632798 
L 110.828892 237.632798 
L 114.108231 237.632798 
L 117.38757 237.632798 
L 120.666909 237.632798 
L 123.946247 237.632798 
L 127.225586 237.632798 
L 130.504925 237.632798 
L 133.784264 237.632798 
L 137.063603 237.632798 
L 140.342942 237.632798 
L 143.62228 237.632798 
L 146.901619 237.632798 
L 150.180958 237.632798 
L 153.460297 237.632798 
L 156.739636 237.632798 
L 160.018975 237.632798 
L 163.298314 237.632798 
L 166.577652 237.632798 
L 169.856991 237.632798 
L 173.13633 237.632798 
L 176.415669 237.632798 
L 179.695008 237.632798 
L 182.974347 237.632798 
L 186.253685 237.632798 
L 189.533024 237.632798 
L 192.812363 237.632798 
L 196.091702 237.632798 
L 199.371041 237.632798 
L 202.65038 237.632798 
L 205.929718 237.632798 
L 209.209057 237.632798 
L 212.488396 237.632798 
L 215.767735 237.632798 
L 219.047074 237.632798 
L 222.326413 237.632798 
L 225.605752 237.632798 
L 228.88509 237.632798 
L 232.164429 237.632798 
L 235.443768 237.632798 
L 238.723107 237.632798 
L 242.002446 237.632798 
L 245.281785 237.632798 
L 248.561123 237.632798 
L 251.840462 237.632798 
L 255.119801 237.632798 
L 258.39914 237.632798 
L 261.678479 237.632798 
L 264.957818 237.632798 
L 268.237157 237.632798 
L 271.516495 237.632798 
L 274.795834 237.632798 
L 278.075173 237.632798 
L 281.354512 237.632798 
L 284.633851 237.632798 
L 287.91319 237.632798 
L 291.192528 237.632798 
L 294.471867 237.632798 
L 297.751206 237.632798 
L 301.030545 237.632798 
L 304.309884 237.632798 
L 307.589223 237.632798 
L 310.868561 237.632798 
L 314.1479 237.632798 
L 317.427239 237.632798 
L 320.706578 237.632798 
L 323.985917 237.632798 
L 327.265256 237.632798 
L 330.544595 237.632798 
L 333.823933 237.632798 
L 337.103272 237.632798 
L 340.382611 237.632798 
L 343.66195 237.632798 
L 346.941289 237.632798 
L 350.220628 237.632798 
L 353.499966 237.632798 
L 356.779305 237.632798 
L 360.058644 237.632798 
L 363.337983 237.632798 
L 366.617322 237.632798 
L 369.896661 237.632798 
L 373.175999 237.632798 
L 376.455338 237.632798 
L 379.734677 237.632798 
L 383.014016 237.632798 
L 386.293355 237.632798 
L 389.572694 237.632798 
L 392.852033 237.632798 
L 396.131371 237.632798 
L 399.41071 237.632798 
L 399.41071 209.5355 
L 399.41071 209.5355 
L 396.131371 243.981567 
L 392.852033 257.551906 
L 389.572694 258.398984 
L 386.293355 252.416685 
L 383.014016 243.701951 
L 379.734677 234.946204 
L 376.455338 227.764383 
L 373.175999 222.968787 
L 369.896661 220.79437 
L 366.617322 221.081571 
L 363.337983 223.422236 
L 360.058644 227.273693 
L 356.779305 232.045608 
L 353.499966 237.163751 
L 350.220628 242.114448 
L 346.941289 246.473059 
L 343.66195 249.919484 
L 340.382611 252.243344 
L 337.103272 253.341169 
L 333.823933 253.207634 
L 330.544595 251.92259 
L 327.265256 249.635409 
L 323.985917 246.547904 
L 320.706578 242.89688 
L 317.427239 238.937178 
L 314.1479 234.925887 
L 310.868561 231.108243 
L 307.589223 227.705591 
L 304.309884 224.905648 
L 301.030545 222.855207 
L 297.751206 221.655297 
L 294.471867 221.358768 
L 291.192528 221.970143 
L 287.91319 223.447586 
L 284.633851 225.706717 
L 281.354512 228.626027 
L 278.075173 232.053574 
L 274.795834 235.814663 
L 271.516495 239.720171 
L 268.237157 243.575192 
L 264.957818 247.187696 
L 261.678479 250.376886 
L 258.39914 252.980983 
L 255.119801 254.864169 
L 251.840462 255.922476 
L 248.561123 256.088421 
L 245.281785 255.334234 
L 242.002446 253.673586 
L 238.723107 237.626903 
L 235.443768 237.627412 
L 232.164429 245.265627 
L 228.88509 241.216066 
L 225.605752 236.825843 
L 222.326413 232.296213 
L 219.047074 227.842854 
L 215.767735 223.686949 
L 212.488396 220.045571 
L 209.209057 217.121674 
L 205.929718 215.093994 
L 202.65038 214.107216 
L 199.371041 214.26276 
L 196.091702 215.610562 
L 192.812363 218.142209 
L 189.533024 221.785802 
L 186.253685 226.402895 
L 182.974347 231.787816 
L 179.695008 237.669682 
L 176.415669 243.717309 
L 173.13633 249.547227 
L 169.856991 254.734875 
L 166.577652 258.829004 
L 163.298314 261.369204 
L 160.018975 261.906331 
L 156.739636 260.02553 
L 153.460297 255.371336 
L 150.180958 247.67422 
L 146.901619 236.777741 
L 143.62228 222.665255 
L 140.342942 205.484931 
L 137.063603 185.571549 
L 133.784264 163.463333 
L 130.504925 139.911738 
L 127.225586 115.881842 
L 123.946247 92.540639 
L 120.666909 71.230182 
L 117.38757 53.422136 
L 114.108231 40.649917 
L 110.828892 34.414125 
L 107.549553 36.056559 
L 104.270214 46.597587 
L 100.990876 66.531141 
L 97.711537 95.571066 
L 94.432198 132.341965 
L 91.152859 174.007092 
L 87.87352 215.825205 
L 84.594181 250.627616 
L 81.314842 268.205982 
L 78.035504 254.600645 
L 74.756165 191.278565 
z
" clip-path="url(#p154f1c5418)" style="fill: #9467bd; fill-opacity: 0.166667"/>
   </g>
   <g id="PolyCollection_6">
    <path d="M 74.756165 171.310256 
L 74.756165 237.632798 
L 77.028867 237.632798 
L 79.301569 237.632798 
L 81.574272 237.632798 
L 83.846974 237.632798 
L 86.119676 237.632798 
L 88.392378 237.632798 
L 90.665081 237.632798 
L 92.937783 237.632798 
L 95.210485 237.632798 
L 97.483187 237.632798 
L 99.75589 237.632798 
L 102.028592 237.632798 
L 104.301294 237.632798 
L 106.573996 237.632798 
L 108.846699 237.632798 
L 111.119401 237.632798 
L 113.392103 237.632798 
L 115.664805 237.632798 
L 117.937508 237.632798 
L 120.21021 237.632798 
L 122.482912 237.632798 
L 124.755614 237.632798 
L 127.028317 237.632798 
L 129.301019 237.632798 
L 131.573721 237.632798 
L 133.846423 237.632798 
L 136.119126 237.632798 
L 138.391828 237.632798 
L 140.66453 237.632798 
L 142.937232 237.632798 
L 145.209935 237.632798 
L 147.482637 237.632798 
L 149.755339 237.632798 
L 152.028041 237.632798 
L 154.300744 237.632798 
L 156.573446 237.632798 
L 158.846148 237.632798 
L 161.11885 237.632798 
L 163.391553 237.632798 
L 165.664255 237.632798 
L 167.936957 237.632798 
L 170.209659 237.632798 
L 172.482362 237.632798 
L 174.755064 237.632798 
L 177.027766 237.632798 
L 179.300468 237.632798 
L 181.57317 237.632798 
L 183.845873 237.632798 
L 186.118575 237.632798 
L 188.391277 237.632798 
L 190.663979 237.632798 
L 192.936682 237.632798 
L 195.209384 237.632798 
L 197.482086 237.632798 
L 199.754788 237.632798 
L 202.027491 237.632798 
L 204.300193 237.632798 
L 206.572895 237.632798 
L 208.845597 237.632798 
L 211.1183 237.632798 
L 213.391002 237.632798 
L 215.663704 237.632798 
L 217.936406 237.632798 
L 220.209109 237.632798 
L 222.481811 237.632798 
L 224.754513 237.632798 
L 227.027215 237.632798 
L 229.299918 237.632798 
L 231.57262 237.632798 
L 233.845322 237.632798 
L 236.118024 237.632798 
L 238.390727 237.632798 
L 240.663429 237.632798 
L 242.936131 237.632798 
L 245.208833 237.632798 
L 247.481536 237.632798 
L 249.754238 237.632798 
L 252.02694 237.632798 
L 254.299642 237.632798 
L 256.572345 237.632798 
L 258.845047 237.632798 
L 261.117749 237.632798 
L 263.390451 237.632798 
L 265.663154 237.632798 
L 267.935856 237.632798 
L 270.208558 237.632798 
L 272.48126 237.632798 
L 274.753963 237.632798 
L 277.026665 237.632798 
L 279.299367 237.632798 
L 281.572069 237.632798 
L 283.844772 237.632798 
L 286.117474 237.632798 
L 288.390176 237.632798 
L 290.662878 237.632798 
L 292.935581 237.632798 
L 295.208283 237.632798 
L 297.480985 237.632798 
L 299.753687 237.632798 
L 299.753687 247.349935 
L 299.753687 247.349935 
L 297.480985 236.393742 
L 295.208283 231.413651 
L 292.935581 230.353063 
L 290.662878 231.643972 
L 288.390176 234.124517 
L 286.117474 236.966315 
L 283.844772 239.610804 
L 281.572069 241.713868 
L 279.299367 243.098019 
L 277.026665 243.711486 
L 274.753963 243.593556 
L 272.48126 242.84558 
L 270.208558 241.607064 
L 267.935856 240.036304 
L 265.663154 238.295074 
L 263.390451 236.536869 
L 261.117749 234.898277 
L 258.845047 233.493055 
L 256.572345 232.408514 
L 254.299642 231.703878 
L 252.02694 231.410254 
L 249.754238 231.531939 
L 247.481536 232.04876 
L 245.208833 232.919207 
L 242.936131 234.084134 
L 240.663429 235.470802 
L 238.390727 236.99711 
L 236.118024 238.575829 
L 233.845322 240.11871 
L 231.57262 241.540352 
L 229.299918 242.761719 
L 227.027215 243.713231 
L 224.754513 244.33737 
L 222.481811 244.590744 
L 220.209109 244.445591 
L 217.936406 243.890693 
L 215.663704 242.931709 
L 213.391002 241.590937 
L 211.1183 239.906517 
L 208.845597 237.93113 
L 206.572895 235.730208 
L 204.300193 233.379738 
L 202.027491 230.963694 
L 199.754788 228.571185 
L 197.482086 226.293375 
L 195.209384 224.220263 
L 192.936682 222.437403 
L 190.663979 221.022635 
L 188.391277 237.634811 
L 186.118575 237.636284 
L 183.845873 217.285791 
L 181.57317 218.493405 
L 179.300468 220.339461 
L 177.027766 222.764012 
L 174.755064 225.679962 
L 172.482362 228.974453 
L 170.209659 232.511092 
L 167.936957 236.132978 
L 165.664255 239.666515 
L 163.391553 242.925931 
L 161.11885 245.718452 
L 158.846148 247.850026 
L 156.573446 249.131494 
L 154.300744 249.385095 
L 152.028041 248.451157 
L 149.755339 246.194818 
L 147.482637 242.512628 
L 145.209935 237.338843 
L 142.937232 230.651224 
L 140.66453 222.476146 
L 138.391828 212.892819 
L 136.119126 202.0364 
L 133.846423 190.099795 
L 131.573721 177.33393 
L 129.301019 164.046288 
L 127.028317 150.59749 
L 124.755614 137.395732 
L 122.482912 124.888882 
L 120.21021 113.554056 
L 117.937508 103.884506 
L 115.664805 96.373685 
L 113.392103 91.496363 
L 111.119401 89.686689 
L 108.846699 91.313152 
L 106.573996 96.650388 
L 104.301294 105.847863 
L 102.028592 118.895457 
L 99.75589 135.586065 
L 97.483187 155.475352 
L 95.210485 177.838867 
L 92.937783 201.626792 
L 90.665081 225.416639 
L 88.392378 247.364322 
L 86.119676 265.154061 
L 83.846974 275.947709 
L 81.574272 276.334125 
L 79.301569 262.279369 
L 77.028867 229.078545 
L 74.756165 171.310256 
z
" clip-path="url(#p154f1c5418)" style="fill: #8c564b; fill-opacity: 0.166667"/>
   </g>
   <g id="matplotlib.axis_1">
    <g id="xtick_1">
     <g id="line2d_1">
      <defs>
       <path id="m7fd8672988" d="M 0 0 
L 0 3.5 
" style="stroke: #000000; stroke-width: 0.8"/>
      </defs>
      <g>
       <use xlink:href="#m7fd8672988" x="74.756165" y="288.430125" style="stroke: #000000; stroke-width: 0.8"/>
      </g>
     </g>
     <g id="text_1">
      <!-- 0.0000 -->
      <g transform="translate(57.260852 303.028562) scale(0.1 -0.1)">
       <defs>
        <path id="DejaVuSans-30" d="M 2034 4250 
Q 1547 4250 1301 3770 
Q 1056 3291 1056 2328 
Q 1056 1369 1301 889 
Q 1547 409 2034 409 
Q 2525 409 2770 889 
Q 3016 1369 3016 2328 
Q 3016 3291 2770 3770 
Q 2525 4250 2034 4250 
z
M 2034 4750 
Q 2819 4750 3233 4129 
Q 3647 3509 3647 2328 
Q 3647 1150 3233 529 
Q 2819 -91 2034 -91 
Q 1250 -91 836 529 
Q 422 1150 422 2328 
Q 422 3509 836 4129 
Q 1250 4750 2034 4750 
z
" transform="scale(0.015625)"/>
        <path id="DejaVuSans-2e" d="M 684 794 
L 1344 794 
L 1344 0 
L 684 0 
L 684 794 
z
" transform="scale(0.015625)"/>
       </defs>
       <use xlink:href="#DejaVuSans-30"/>
       <use xlink:href="#DejaVuSans-2e" x="63.623047"/>
       <use xlink:href="#DejaVuSans-30" x="95.410156"/>
       <use xlink:href="#DejaVuSans-30" x="159.033203"/>
       <use xlink:href="#DejaVuSans-30" x="222.65625"/>
       <use xlink:href="#DejaVuSans-30" x="286.279297"/>
      </g>
     </g>
    </g>
    <g id="xtick_2">
     <g id="line2d_2">
      <g>
       <use xlink:href="#m7fd8672988" x="118.911246" y="288.430125" style="stroke: #000000; stroke-width: 0.8"/>
      </g>
     </g>
     <g id="text_2">
      <!-- 0.0005 -->
      <g transform="translate(101.415933 303.028562) scale(0.1 -0.1)">
       <defs>
        <path id="DejaVuSans-35" d="M 691 4666 
L 3169 4666 
L 3169 4134 
L 1269 4134 
L 1269 2991 
Q 1406 3038 1543 3061 
Q 1681 3084 1819 3084 
Q 2600 3084 3056 2656 
Q 3513 2228 3513 1497 
Q 3513 744 3044 326 
Q 2575 -91 1722 -91 
Q 1428 -91 1123 -41 
Q 819 9 494 109 
L 494 744 
Q 775 591 1075 516 
Q 1375 441 1709 441 
Q 2250 441 2565 725 
Q 2881 1009 2881 1497 
Q 2881 1984 2565 2268 
Q 2250 2553 1709 2553 
Q 1456 2553 1204 2497 
Q 953 2441 691 2322 
L 691 4666 
z
" transform="scale(0.015625)"/>
       </defs>
       <use xlink:href="#DejaVuSans-30"/>
       <use xlink:href="#DejaVuSans-2e" x="63.623047"/>
       <use xlink:href="#DejaVuSans-30" x="95.410156"/>
       <use xlink:href="#DejaVuSans-30" x="159.033203"/>
       <use xlink:href="#DejaVuSans-30" x="222.65625"/>
       <use xlink:href="#DejaVuSans-35" x="286.279297"/>
      </g>
     </g>
    </g>
    <g id="xtick_3">
     <g id="line2d_3">
      <g>
       <use xlink:href="#m7fd8672988" x="163.066327" y="288.430125" style="stroke: #000000; stroke-width: 0.8"/>
      </g>
     </g>
     <g id="text_3">
      <!-- 0.0010 -->
      <g transform="translate(145.571014 303.028562) scale(0.1 -0.1)">
       <defs>
        <path id="DejaVuSans-31" d="M 794 531 
L 1825 531 
L 1825 4091 
L 703 3866 
L 703 4441 
L 1819 4666 
L 2450 4666 
L 2450 531 
L 3481 531 
L 3481 0 
L 794 0 
L 794 531 
z
" transform="scale(0.015625)"/>
       </defs>
       <use xlink:href="#DejaVuSans-30"/>
       <use xlink:href="#DejaVuSans-2e" x="63.623047"/>
       <use xlink:href="#DejaVuSans-30" x="95.410156"/>
       <use xlink:href="#DejaVuSans-30" x="159.033203"/>
       <use xlink:href="#DejaVuSans-31" x="222.65625"/>
       <use xlink:href="#DejaVuSans-30" x="286.279297"/>
      </g>
     </g>
    </g>
    <g id="xtick_4">
     <g id="line2d_4">
      <g>
       <use xlink:href="#m7fd8672988" x="207.221408" y="288.430125" style="stroke: #000000; stroke-width: 0.8"/>
      </g>
     </g>
     <g id="text_4">
      <!-- 0.0015 -->
      <g transform="translate(189.726095 303.028562) scale(0.1 -0.1)">
       <use xlink:href="#DejaVuSans-30"/>
       <use xlink:href="#DejaVuSans-2e" x="63.623047"/>
       <use xlink:href="#DejaVuSans-30" x="95.410156"/>
       <use xlink:href="#DejaVuSans-30" x="159.033203"/>
       <use xlink:href="#DejaVuSans-31" x="222.65625"/>
       <use xlink:href="#DejaVuSans-35" x="286.279297"/>
      </g>
     </g>
    </g>
    <g id="xtick_5">
     <g id="line2d_5">
      <g>
       <use xlink:href="#m7fd8672988" x="251.376489" y="288.430125" style="stroke: #000000; stroke-width: 0.8"/>
      </g>
     </g>
     <g id="text_5">
      <!-- 0.0020 -->
      <g transform="translate(233.881176 303.028562) scale(0.1 -0.1)">
       <defs>
        <path id="DejaVuSans-32" d="M 1228 531 
L 3431 531 
L 3431 0 
L 469 0 
L 469 531 
Q 828 903 1448 1529 
Q 2069 2156 2228 2338 
Q 2531 2678 2651 2914 
Q 2772 3150 2772 3378 
Q 2772 3750 2511 3984 
Q 2250 4219 1831 4219 
Q 1534 4219 1204 4116 
Q 875 4013 500 3803 
L 500 4441 
Q 881 4594 1212 4672 
Q 1544 4750 1819 4750 
Q 2544 4750 2975 4387 
Q 3406 4025 3406 3419 
Q 3406 3131 3298 2873 
Q 3191 2616 2906 2266 
Q 2828 2175 2409 1742 
Q 1991 1309 1228 531 
z
" transform="scale(0.015625)"/>
       </defs>
       <use xlink:href="#DejaVuSans-30"/>
       <use xlink:href="#DejaVuSans-2e" x="63.623047"/>
       <use xlink:href="#DejaVuSans-30" x="95.410156"/>
       <use xlink:href="#DejaVuSans-30" x="159.033203"/>
       <use xlink:href="#DejaVuSans-32" x="222.65625"/>
       <use xlink:href="#DejaVuSans-30" x="286.279297"/>
      </g>
     </g>
    </g>
    <g id="xtick_6">
     <g id="line2d_6">
      <g>
       <use xlink:href="#m7fd8672988" x="295.53157" y="288.430125" style="stroke: #000000; stroke-width: 0.8"/>
      </g>
     </g>
     <g id="text_6">
      <!-- 0.0025 -->
      <g transform="translate(278.036257 303.028562) scale(0.1 -0.1)">
       <use xlink:href="#DejaVuSans-30"/>
       <use xlink:href="#DejaVuSans-2e" x="63.623047"/>
       <use xlink:href="#DejaVuSans-30" x="95.410156"/>
       <use xlink:href="#DejaVuSans-30" x="159.033203"/>
       <use xlink:href="#DejaVuSans-32" x="222.65625"/>
       <use xlink:href="#DejaVuSans-35" x="286.279297"/>
      </g>
     </g>
    </g>
    <g id="xtick_7">
     <g id="line2d_7">
      <g>
       <use xlink:href="#m7fd8672988" x="339.686651" y="288.430125" style="stroke: #000000; stroke-width: 0.8"/>
      </g>
     </g>
     <g id="text_7">
      <!-- 0.0030 -->
      <g transform="translate(322.191338 303.028562) scale(0.1 -0.1)">
       <defs>
        <path id="DejaVuSans-33" d="M 2597 2516 
Q 3050 2419 3304 2112 
Q 3559 1806 3559 1356 
Q 3559 666 3084 287 
Q 2609 -91 1734 -91 
Q 1441 -91 1130 -33 
Q 819 25 488 141 
L 488 750 
Q 750 597 1062 519 
Q 1375 441 1716 441 
Q 2309 441 2620 675 
Q 2931 909 2931 1356 
Q 2931 1769 2642 2001 
Q 2353 2234 1838 2234 
L 1294 2234 
L 1294 2753 
L 1863 2753 
Q 2328 2753 2575 2939 
Q 2822 3125 2822 3475 
Q 2822 3834 2567 4026 
Q 2313 4219 1838 4219 
Q 1578 4219 1281 4162 
Q 984 4106 628 3988 
L 628 4550 
Q 988 4650 1302 4700 
Q 1616 4750 1894 4750 
Q 2613 4750 3031 4423 
Q 3450 4097 3450 3541 
Q 3450 3153 3228 2886 
Q 3006 2619 2597 2516 
z
" transform="scale(0.015625)"/>
       </defs>
       <use xlink:href="#DejaVuSans-30"/>
       <use xlink:href="#DejaVuSans-2e" x="63.623047"/>
       <use xlink:href="#DejaVuSans-30" x="95.410156"/>
       <use xlink:href="#DejaVuSans-30" x="159.033203"/>
       <use xlink:href="#DejaVuSans-33" x="222.65625"/>
       <use xlink:href="#DejaVuSans-30" x="286.279297"/>
      </g>
     </g>
    </g>
    <g id="xtick_8">
     <g id="line2d_8">
      <g>
       <use xlink:href="#m7fd8672988" x="383.841732" y="288.430125" style="stroke: #000000; stroke-width: 0.8"/>
      </g>
     </g>
     <g id="text_8">
      <!-- 0.0035 -->
      <g transform="translate(366.346419 303.028562) scale(0.1 -0.1)">
       <use xlink:href="#DejaVuSans-30"/>
       <use xlink:href="#DejaVuSans-2e" x="63.623047"/>
       <use xlink:href="#DejaVuSans-30" x="95.410156"/>
       <use xlink:href="#DejaVuSans-30" x="159.033203"/>
       <use xlink:href="#DejaVuSans-33" x="222.65625"/>
       <use xlink:href="#DejaVuSans-35" x="286.279297"/>
      </g>
     </g>
    </g>
    <g id="text_9">
     <!-- Pixel values -->
     <g transform="translate(207.671719 316.706687) scale(0.1 -0.1)">
      <defs>
       <path id="DejaVuSans-50" d="M 1259 4147 
L 1259 2394 
L 2053 2394 
Q 2494 2394 2734 2622 
Q 2975 2850 2975 3272 
Q 2975 3691 2734 3919 
Q 2494 4147 2053 4147 
L 1259 4147 
z
M 628 4666 
L 2053 4666 
Q 2838 4666 3239 4311 
Q 3641 3956 3641 3272 
Q 3641 2581 3239 2228 
Q 2838 1875 2053 1875 
L 1259 1875 
L 1259 0 
L 628 0 
L 628 4666 
z
" transform="scale(0.015625)"/>
       <path id="DejaVuSans-69" d="M 603 3500 
L 1178 3500 
L 1178 0 
L 603 0 
L 603 3500 
z
M 603 4863 
L 1178 4863 
L 1178 4134 
L 603 4134 
L 603 4863 
z
" transform="scale(0.015625)"/>
       <path id="DejaVuSans-78" d="M 3513 3500 
L 2247 1797 
L 3578 0 
L 2900 0 
L 1881 1375 
L 863 0 
L 184 0 
L 1544 1831 
L 300 3500 
L 978 3500 
L 1906 2253 
L 2834 3500 
L 3513 3500 
z
" transform="scale(0.015625)"/>
       <path id="DejaVuSans-65" d="M 3597 1894 
L 3597 1613 
L 953 1613 
Q 991 1019 1311 708 
Q 1631 397 2203 397 
Q 2534 397 2845 478 
Q 3156 559 3463 722 
L 3463 178 
Q 3153 47 2828 -22 
Q 2503 -91 2169 -91 
Q 1331 -91 842 396 
Q 353 884 353 1716 
Q 353 2575 817 3079 
Q 1281 3584 2069 3584 
Q 2775 3584 3186 3129 
Q 3597 2675 3597 1894 
z
M 3022 2063 
Q 3016 2534 2758 2815 
Q 2500 3097 2075 3097 
Q 1594 3097 1305 2825 
Q 1016 2553 972 2059 
L 3022 2063 
z
" transform="scale(0.015625)"/>
       <path id="DejaVuSans-6c" d="M 603 4863 
L 1178 4863 
L 1178 0 
L 603 0 
L 603 4863 
z
" transform="scale(0.015625)"/>
       <path id="DejaVuSans-20" transform="scale(0.015625)"/>
       <path id="DejaVuSans-76" d="M 191 3500 
L 800 3500 
L 1894 563 
L 2988 3500 
L 3597 3500 
L 2284 0 
L 1503 0 
L 191 3500 
z
" transform="scale(0.015625)"/>
       <path id="DejaVuSans-61" d="M 2194 1759 
Q 1497 1759 1228 1600 
Q 959 1441 959 1056 
Q 959 750 1161 570 
Q 1363 391 1709 391 
Q 2188 391 2477 730 
Q 2766 1069 2766 1631 
L 2766 1759 
L 2194 1759 
z
M 3341 1997 
L 3341 0 
L 2766 0 
L 2766 531 
Q 2569 213 2275 61 
Q 1981 -91 1556 -91 
Q 1019 -91 701 211 
Q 384 513 384 1019 
Q 384 1609 779 1909 
Q 1175 2209 1959 2209 
L 2766 2209 
L 2766 2266 
Q 2766 2663 2505 2880 
Q 2244 3097 1772 3097 
Q 1472 3097 1187 3025 
Q 903 2953 641 2809 
L 641 3341 
Q 956 3463 1253 3523 
Q 1550 3584 1831 3584 
Q 2591 3584 2966 3190 
Q 3341 2797 3341 1997 
z
" transform="scale(0.015625)"/>
       <path id="DejaVuSans-75" d="M 544 1381 
L 544 3500 
L 1119 3500 
L 1119 1403 
Q 1119 906 1312 657 
Q 1506 409 1894 409 
Q 2359 409 2629 706 
Q 2900 1003 2900 1516 
L 2900 3500 
L 3475 3500 
L 3475 0 
L 2900 0 
L 2900 538 
Q 2691 219 2414 64 
Q 2138 -91 1772 -91 
Q 1169 -91 856 284 
Q 544 659 544 1381 
z
M 1991 3584 
L 1991 3584 
z
" transform="scale(0.015625)"/>
       <path id="DejaVuSans-73" d="M 2834 3397 
L 2834 2853 
Q 2591 2978 2328 3040 
Q 2066 3103 1784 3103 
Q 1356 3103 1142 2972 
Q 928 2841 928 2578 
Q 928 2378 1081 2264 
Q 1234 2150 1697 2047 
L 1894 2003 
Q 2506 1872 2764 1633 
Q 3022 1394 3022 966 
Q 3022 478 2636 193 
Q 2250 -91 1575 -91 
Q 1294 -91 989 -36 
Q 684 19 347 128 
L 347 722 
Q 666 556 975 473 
Q 1284 391 1588 391 
Q 1994 391 2212 530 
Q 2431 669 2431 922 
Q 2431 1156 2273 1281 
Q 2116 1406 1581 1522 
L 1381 1569 
Q 847 1681 609 1914 
Q 372 2147 372 2553 
Q 372 3047 722 3315 
Q 1072 3584 1716 3584 
Q 2034 3584 2315 3537 
Q 2597 3491 2834 3397 
z
" transform="scale(0.015625)"/>
      </defs>
      <use xlink:href="#DejaVuSans-50"/>
      <use xlink:href="#DejaVuSans-69" x="58.052734"/>
      <use xlink:href="#DejaVuSans-78" x="85.835938"/>
      <use xlink:href="#DejaVuSans-65" x="141.890625"/>
      <use xlink:href="#DejaVuSans-6c" x="203.414062"/>
      <use xlink:href="#DejaVuSans-20" x="231.197266"/>
      <use xlink:href="#DejaVuSans-76" x="262.984375"/>
      <use xlink:href="#DejaVuSans-61" x="322.164062"/>
      <use xlink:href="#DejaVuSans-6c" x="383.443359"/>
      <use xlink:href="#DejaVuSans-75" x="411.226562"/>
      <use xlink:href="#DejaVuSans-65" x="474.605469"/>
      <use xlink:href="#DejaVuSans-73" x="536.128906"/>
     </g>
    </g>
   </g>
   <g id="matplotlib.axis_2">
    <g id="ytick_1">
     <g id="line2d_9">
      <defs>
       <path id="ma68bf94e93" d="M 0 0 
L -3.5 0 
" style="stroke: #000000; stroke-width: 0.8"/>
      </defs>
      <g>
       <use xlink:href="#ma68bf94e93" x="58.523438" y="280.517752" style="stroke: #000000; stroke-width: 0.8"/>
      </g>
     </g>
     <g id="text_10">
      <!-- −0.02 -->
      <g transform="translate(20.878125 284.316971) scale(0.1 -0.1)">
       <defs>
        <path id="DejaVuSans-2212" d="M 678 2272 
L 4684 2272 
L 4684 1741 
L 678 1741 
L 678 2272 
z
" transform="scale(0.015625)"/>
       </defs>
       <use xlink:href="#DejaVuSans-2212"/>
       <use xlink:href="#DejaVuSans-30" x="83.789062"/>
       <use xlink:href="#DejaVuSans-2e" x="147.412109"/>
       <use xlink:href="#DejaVuSans-30" x="179.199219"/>
       <use xlink:href="#DejaVuSans-32" x="242.822266"/>
      </g>
     </g>
    </g>
    <g id="ytick_2">
     <g id="line2d_10">
      <g>
       <use xlink:href="#ma68bf94e93" x="58.523438" y="237.632798" style="stroke: #000000; stroke-width: 0.8"/>
      </g>
     </g>
     <g id="text_11">
      <!-- 0.00 -->
      <g transform="translate(29.257813 241.432017) scale(0.1 -0.1)">
       <use xlink:href="#DejaVuSans-30"/>
       <use xlink:href="#DejaVuSans-2e" x="63.623047"/>
       <use xlink:href="#DejaVuSans-30" x="95.410156"/>
       <use xlink:href="#DejaVuSans-30" x="159.033203"/>
      </g>
     </g>
    </g>
    <g id="ytick_3">
     <g id="line2d_11">
      <g>
       <use xlink:href="#ma68bf94e93" x="58.523438" y="194.747845" style="stroke: #000000; stroke-width: 0.8"/>
      </g>
     </g>
     <g id="text_12">
      <!-- 0.02 -->
      <g transform="translate(29.257813 198.547064) scale(0.1 -0.1)">
       <use xlink:href="#DejaVuSans-30"/>
       <use xlink:href="#DejaVuSans-2e" x="63.623047"/>
       <use xlink:href="#DejaVuSans-30" x="95.410156"/>
       <use xlink:href="#DejaVuSans-32" x="159.033203"/>
      </g>
     </g>
    </g>
    <g id="ytick_4">
     <g id="line2d_12">
      <g>
       <use xlink:href="#ma68bf94e93" x="58.523438" y="151.862891" style="stroke: #000000; stroke-width: 0.8"/>
      </g>
     </g>
     <g id="text_13">
      <!-- 0.04 -->
      <g transform="translate(29.257813 155.66211) scale(0.1 -0.1)">
       <defs>
        <path id="DejaVuSans-34" d="M 2419 4116 
L 825 1625 
L 2419 1625 
L 2419 4116 
z
M 2253 4666 
L 3047 4666 
L 3047 1625 
L 3713 1625 
L 3713 1100 
L 3047 1100 
L 3047 0 
L 2419 0 
L 2419 1100 
L 313 1100 
L 313 1709 
L 2253 4666 
z
" transform="scale(0.015625)"/>
       </defs>
       <use xlink:href="#DejaVuSans-30"/>
       <use xlink:href="#DejaVuSans-2e" x="63.623047"/>
       <use xlink:href="#DejaVuSans-30" x="95.410156"/>
       <use xlink:href="#DejaVuSans-34" x="159.033203"/>
      </g>
     </g>
    </g>
    <g id="ytick_5">
     <g id="line2d_13">
      <g>
       <use xlink:href="#ma68bf94e93" x="58.523438" y="108.977938" style="stroke: #000000; stroke-width: 0.8"/>
      </g>
     </g>
     <g id="text_14">
      <!-- 0.06 -->
      <g transform="translate(29.257813 112.777157) scale(0.1 -0.1)">
       <defs>
        <path id="DejaVuSans-36" d="M 2113 2584 
Q 1688 2584 1439 2293 
Q 1191 2003 1191 1497 
Q 1191 994 1439 701 
Q 1688 409 2113 409 
Q 2538 409 2786 701 
Q 3034 994 3034 1497 
Q 3034 2003 2786 2293 
Q 2538 2584 2113 2584 
z
M 3366 4563 
L 3366 3988 
Q 3128 4100 2886 4159 
Q 2644 4219 2406 4219 
Q 1781 4219 1451 3797 
Q 1122 3375 1075 2522 
Q 1259 2794 1537 2939 
Q 1816 3084 2150 3084 
Q 2853 3084 3261 2657 
Q 3669 2231 3669 1497 
Q 3669 778 3244 343 
Q 2819 -91 2113 -91 
Q 1303 -91 875 529 
Q 447 1150 447 2328 
Q 447 3434 972 4092 
Q 1497 4750 2381 4750 
Q 2619 4750 2861 4703 
Q 3103 4656 3366 4563 
z
" transform="scale(0.015625)"/>
       </defs>
       <use xlink:href="#DejaVuSans-30"/>
       <use xlink:href="#DejaVuSans-2e" x="63.623047"/>
       <use xlink:href="#DejaVuSans-30" x="95.410156"/>
       <use xlink:href="#DejaVuSans-36" x="159.033203"/>
      </g>
     </g>
    </g>
    <g id="ytick_6">
     <g id="line2d_14">
      <g>
       <use xlink:href="#ma68bf94e93" x="58.523438" y="66.092985" style="stroke: #000000; stroke-width: 0.8"/>
      </g>
     </g>
     <g id="text_15">
      <!-- 0.08 -->
      <g transform="translate(29.257813 69.892203) scale(0.1 -0.1)">
       <defs>
        <path id="DejaVuSans-38" d="M 2034 2216 
Q 1584 2216 1326 1975 
Q 1069 1734 1069 1313 
Q 1069 891 1326 650 
Q 1584 409 2034 409 
Q 2484 409 2743 651 
Q 3003 894 3003 1313 
Q 3003 1734 2745 1975 
Q 2488 2216 2034 2216 
z
M 1403 2484 
Q 997 2584 770 2862 
Q 544 3141 544 3541 
Q 544 4100 942 4425 
Q 1341 4750 2034 4750 
Q 2731 4750 3128 4425 
Q 3525 4100 3525 3541 
Q 3525 3141 3298 2862 
Q 3072 2584 2669 2484 
Q 3125 2378 3379 2068 
Q 3634 1759 3634 1313 
Q 3634 634 3220 271 
Q 2806 -91 2034 -91 
Q 1263 -91 848 271 
Q 434 634 434 1313 
Q 434 1759 690 2068 
Q 947 2378 1403 2484 
z
M 1172 3481 
Q 1172 3119 1398 2916 
Q 1625 2713 2034 2713 
Q 2441 2713 2670 2916 
Q 2900 3119 2900 3481 
Q 2900 3844 2670 4047 
Q 2441 4250 2034 4250 
Q 1625 4250 1398 4047 
Q 1172 3844 1172 3481 
z
" transform="scale(0.015625)"/>
       </defs>
       <use xlink:href="#DejaVuSans-30"/>
       <use xlink:href="#DejaVuSans-2e" x="63.623047"/>
       <use xlink:href="#DejaVuSans-30" x="95.410156"/>
       <use xlink:href="#DejaVuSans-38" x="159.033203"/>
      </g>
     </g>
    </g>
    <g id="ytick_7">
     <g id="line2d_15">
      <g>
       <use xlink:href="#ma68bf94e93" x="58.523438" y="23.208031" style="stroke: #000000; stroke-width: 0.8"/>
      </g>
     </g>
     <g id="text_16">
      <!-- 0.10 -->
      <g transform="translate(29.257813 27.00725) scale(0.1 -0.1)">
       <use xlink:href="#DejaVuSans-30"/>
       <use xlink:href="#DejaVuSans-2e" x="63.623047"/>
       <use xlink:href="#DejaVuSans-31" x="95.410156"/>
       <use xlink:href="#DejaVuSans-30" x="159.033203"/>
      </g>
     </g>
    </g>
    <g id="text_17">
     <!-- Frequency -->
     <g transform="translate(14.798438 181.203812) rotate(-90) scale(0.1 -0.1)">
      <defs>
       <path id="DejaVuSans-46" d="M 628 4666 
L 3309 4666 
L 3309 4134 
L 1259 4134 
L 1259 2759 
L 3109 2759 
L 3109 2228 
L 1259 2228 
L 1259 0 
L 628 0 
L 628 4666 
z
" transform="scale(0.015625)"/>
       <path id="DejaVuSans-72" d="M 2631 2963 
Q 2534 3019 2420 3045 
Q 2306 3072 2169 3072 
Q 1681 3072 1420 2755 
Q 1159 2438 1159 1844 
L 1159 0 
L 581 0 
L 581 3500 
L 1159 3500 
L 1159 2956 
Q 1341 3275 1631 3429 
Q 1922 3584 2338 3584 
Q 2397 3584 2469 3576 
Q 2541 3569 2628 3553 
L 2631 2963 
z
" transform="scale(0.015625)"/>
       <path id="DejaVuSans-71" d="M 947 1747 
Q 947 1113 1208 752 
Q 1469 391 1925 391 
Q 2381 391 2643 752 
Q 2906 1113 2906 1747 
Q 2906 2381 2643 2742 
Q 2381 3103 1925 3103 
Q 1469 3103 1208 2742 
Q 947 2381 947 1747 
z
M 2906 525 
Q 2725 213 2448 61 
Q 2172 -91 1784 -91 
Q 1150 -91 751 415 
Q 353 922 353 1747 
Q 353 2572 751 3078 
Q 1150 3584 1784 3584 
Q 2172 3584 2448 3432 
Q 2725 3281 2906 2969 
L 2906 3500 
L 3481 3500 
L 3481 -1331 
L 2906 -1331 
L 2906 525 
z
" transform="scale(0.015625)"/>
       <path id="DejaVuSans-6e" d="M 3513 2113 
L 3513 0 
L 2938 0 
L 2938 2094 
Q 2938 2591 2744 2837 
Q 2550 3084 2163 3084 
Q 1697 3084 1428 2787 
Q 1159 2491 1159 1978 
L 1159 0 
L 581 0 
L 581 3500 
L 1159 3500 
L 1159 2956 
Q 1366 3272 1645 3428 
Q 1925 3584 2291 3584 
Q 2894 3584 3203 3211 
Q 3513 2838 3513 2113 
z
" transform="scale(0.015625)"/>
       <path id="DejaVuSans-63" d="M 3122 3366 
L 3122 2828 
Q 2878 2963 2633 3030 
Q 2388 3097 2138 3097 
Q 1578 3097 1268 2742 
Q 959 2388 959 1747 
Q 959 1106 1268 751 
Q 1578 397 2138 397 
Q 2388 397 2633 464 
Q 2878 531 3122 666 
L 3122 134 
Q 2881 22 2623 -34 
Q 2366 -91 2075 -91 
Q 1284 -91 818 406 
Q 353 903 353 1747 
Q 353 2603 823 3093 
Q 1294 3584 2113 3584 
Q 2378 3584 2631 3529 
Q 2884 3475 3122 3366 
z
" transform="scale(0.015625)"/>
       <path id="DejaVuSans-79" d="M 2059 -325 
Q 1816 -950 1584 -1140 
Q 1353 -1331 966 -1331 
L 506 -1331 
L 506 -850 
L 844 -850 
Q 1081 -850 1212 -737 
Q 1344 -625 1503 -206 
L 1606 56 
L 191 3500 
L 800 3500 
L 1894 763 
L 2988 3500 
L 3597 3500 
L 2059 -325 
z
" transform="scale(0.015625)"/>
      </defs>
      <use xlink:href="#DejaVuSans-46"/>
      <use xlink:href="#DejaVuSans-72" x="50.269531"/>
      <use xlink:href="#DejaVuSans-65" x="89.132812"/>
      <use xlink:href="#DejaVuSans-71" x="150.65625"/>
      <use xlink:href="#DejaVuSans-75" x="214.132812"/>
      <use xlink:href="#DejaVuSans-65" x="277.511719"/>
      <use xlink:href="#DejaVuSans-6e" x="339.035156"/>
      <use xlink:href="#DejaVuSans-63" x="402.414062"/>
      <use xlink:href="#DejaVuSans-79" x="457.394531"/>
     </g>
    </g>
   </g>
   <g id="line2d_16">
    <path d="M 74.756165 186.092931 
L 77.050569 231.482514 
L 79.344974 259.253031 
L 81.639379 272.466027 
L 83.933784 274.020573 
L 86.228188 266.603025 
L 88.522593 252.651818 
L 90.816998 234.335149 
L 93.111402 213.53958 
L 95.405807 191.867796 
L 97.700212 170.643885 
L 99.994617 150.924696 
L 102.289021 133.515966 
L 104.583426 118.992059 
L 106.877831 107.718284 
L 109.172235 99.874884 
L 111.46664 95.481921 
L 113.761045 94.424357 
L 116.05545 96.476776 
L 118.349854 101.327241 
L 120.644259 108.599903 
L 122.938664 117.876037 
L 125.233068 128.713256 
L 127.527473 140.662728 
L 129.821878 153.284277 
L 132.116283 166.159293 
L 134.410687 178.901446 
L 136.705092 191.165216 
L 138.999497 202.652314 
L 141.293901 213.116074 
L 143.588306 222.363955 
L 145.882711 230.258277 
L 148.177116 236.715374 
L 150.47152 241.703329 
L 152.765925 245.238479 
L 155.06033 247.380894 
L 157.354734 248.229013 
L 159.649139 247.91365 
L 161.943544 246.591551 
L 164.237949 244.4387 
L 166.532353 241.643551 
L 168.826758 238.400362 
L 171.121163 234.90278 
L 173.415567 231.337824 
L 175.709972 227.880405 
L 178.004377 224.688477 
L 180.298782 221.89892 
L 182.593186 219.624234 
L 184.887591 217.950085 
L 187.181996 237.636444 
L 189.4764 237.63529 
L 191.770805 219.742739 
L 194.06521 220.688814 
L 196.359615 222.097898 
L 198.654019 223.904421 
L 200.948424 226.029497 
L 203.242829 228.384137 
L 205.537233 230.872703 
L 207.831638 233.396511 
L 210.126043 235.857478 
L 212.420448 238.161716 
L 214.714852 240.222992 
L 217.009257 241.965928 
L 219.303662 243.328877 
L 221.598066 244.266352 
L 223.892471 244.750956 
L 226.186876 244.774708 
L 228.481281 244.349718 
L 230.775685 243.508146 
L 233.07009 242.301407 
L 235.364495 240.798604 
L 237.658899 239.084168 
L 239.953304 237.254747 
L 242.247709 235.415353 
L 244.542114 233.67486 
L 246.836518 232.140926 
L 249.130923 230.914486 
L 251.425328 230.083955 
L 253.719732 229.719355 
L 256.014137 229.8666 
L 258.308542 230.542213 
L 260.602947 231.728813 
L 262.897351 233.371742 
L 265.191756 235.377266 
L 267.486161 237.612829 
L 269.780565 239.90992 
L 272.07497 242.070143 
L 274.369375 243.875183 
L 276.66378 245.101404 
L 278.958184 245.539904 
L 281.252589 245.022919 
L 283.546994 243.457568 
L 285.841398 240.867997 
L 288.135803 237.447074 
L 290.430208 233.618906 
L 292.724613 230.113499 
L 295.019017 228.055043 
L 297.313422 229.065358 
L 299.607827 235.384183 
L 301.902231 250.008102 
" clip-path="url(#p154f1c5418)" style="fill: none; stroke: #1f77b4; stroke-width: 1.5; stroke-linecap: square"/>
   </g>
   <g id="line2d_17">
    <path d="M 74.756165 251.50503 
L 76.470276 220.149337 
L 78.184386 213.459264 
L 79.898497 220.655628 
L 81.612608 233.94225 
L 83.326719 247.927375 
L 85.04083 259.126849 
L 86.754941 265.540679 
L 88.469051 266.295135 
L 90.183162 261.343215 
L 91.897273 251.216763 
L 93.611384 236.824096 
L 95.325495 219.287505 
L 97.039606 199.815417 
L 98.753716 179.604514 
L 100.467827 159.767472 
L 102.181938 141.282444 
L 103.896049 124.960724 
L 105.61016 111.429444 
L 107.324271 101.126462 
L 109.038381 94.304907 
L 110.752492 91.045162 
L 112.466603 91.272333 
L 114.180714 94.777497 
L 115.894825 101.241272 
L 117.608935 110.258465 
L 119.323046 121.362759 
L 121.037157 134.050588 
L 122.751268 147.803495 
L 124.465379 162.108471 
L 126.17949 176.475855 
L 127.8936 190.454538 
L 129.607711 203.644309 
L 131.321822 215.705293 
L 133.035933 226.364483 
L 134.750044 235.419496 
L 136.464155 242.739682 
L 138.178265 248.264818 
L 139.892376 252.001635 
L 141.606487 254.018456 
L 143.320598 254.438266 
L 145.034709 253.430516 
L 146.74882 251.20201 
L 148.46293 247.987186 
L 150.177041 244.038123 
L 151.891152 239.614578 
L 153.605263 234.97433 
L 155.319374 230.364127 
L 157.033485 226.011435 
L 158.747595 237.636827 
L 160.461706 237.637659 
L 162.175817 215.86738 
L 163.889928 213.806241 
L 165.604039 212.679032 
L 167.31815 212.50833 
L 169.03226 213.273789 
L 170.746371 214.914288 
L 172.460482 217.331478 
L 174.174593 220.394616 
L 175.888704 223.946537 
L 177.602814 227.810571 
L 179.316925 231.798187 
L 181.031036 235.717138 
L 182.745147 239.379819 
L 184.459258 242.611584 
L 186.173369 245.258711 
L 187.887479 247.195734 
L 189.60159 248.331839 
L 191.315701 248.616038 
L 193.029812 248.040867 
L 194.743923 246.644344 
L 196.458034 244.509999 
L 198.172144 241.764795 
L 199.886255 238.574849 
L 201.600366 235.138888 
L 203.314477 231.679481 
L 205.028588 228.432175 
L 206.742699 225.632735 
L 208.456809 223.502848 
L 210.17092 222.234727 
L 211.885031 221.975245 
L 213.599142 222.810344 
L 215.313253 224.750651 
L 217.027364 227.719441 
L 218.741474 231.544252 
L 220.455585 235.953724 
L 222.169696 240.581428 
L 223.883807 244.978756 
L 225.597918 248.63918 
L 227.312029 251.036518 
L 229.026139 251.680133 
L 230.74025 250.190349 
L 232.454361 246.39773 
L 234.168472 240.470223 
L 235.882583 233.0726 
L 237.596693 225.563043 
L 239.310804 220.232175 
L 241.024915 220.590306 
L 242.739026 231.709162 
L 244.453137 260.62492 
" clip-path="url(#p154f1c5418)" style="fill: none; stroke: #ff7f0e; stroke-width: 1.5; stroke-linecap: square"/>
   </g>
   <g id="line2d_18">
    <path d="M 74.756165 204.307839 
L 76.853363 211.474203 
L 78.950561 218.593107 
L 81.047759 225.170356 
L 83.144957 230.860371 
L 85.242155 235.442039 
L 87.339353 238.796949 
L 89.436551 240.889905 
L 91.533749 241.751579 
L 93.630948 241.463178 
L 95.728146 240.143009 
L 97.825344 237.934811 
L 99.922542 234.997734 
L 102.01974 231.497848 
L 104.116938 227.601056 
L 106.214136 223.467311 
L 108.311334 219.246005 
L 110.408532 215.072432 
L 112.50573 211.065219 
L 114.602928 207.32462 
L 116.700127 203.931569 
L 118.797325 200.947405 
L 120.894523 198.414175 
L 122.991721 196.355427 
L 125.088919 194.777409 
L 127.186117 193.670606 
L 129.283315 193.011529 
L 131.380513 192.764697 
L 133.477711 192.884748 
L 135.574909 193.318613 
L 137.672107 194.007715 
L 139.769305 194.890124 
L 141.866504 195.902648 
L 143.963702 196.9828 
L 146.0609 198.070624 
L 148.158098 199.110345 
L 150.255296 200.051812 
L 152.352494 200.851737 
L 154.449692 201.474688 
L 156.54689 201.89385 
L 158.644088 202.091537 
L 160.741286 202.059452 
L 162.838484 201.798713 
L 164.935683 201.319631 
L 167.032881 200.641267 
L 169.130079 199.790785 
L 171.227277 198.802593 
L 173.324475 197.717328 
L 175.421673 196.580684 
L 177.518871 237.624843 
L 179.616069 237.62571 
L 181.713267 192.067327 
L 183.810465 191.227093 
L 185.907663 190.658331 
L 188.004862 190.403948 
L 190.10206 190.498867 
L 192.199258 190.968991 
L 194.296456 191.830415 
L 196.393654 193.08889 
L 198.490852 194.739557 
L 200.58805 196.766953 
L 202.685248 199.145299 
L 204.782446 201.839056 
L 206.879644 204.803754 
L 208.976842 207.987065 
L 211.07404 211.330105 
L 213.171239 214.768956 
L 215.268437 218.236345 
L 217.365635 221.663484 
L 219.462833 224.981999 
L 221.560031 228.125926 
L 223.657229 231.033718 
L 225.754427 233.650212 
L 227.851625 235.928513 
L 229.948823 237.831715 
L 232.046021 239.334436 
L 234.143219 240.424079 
L 236.240418 241.101773 
L 238.337616 241.382931 
L 240.434814 241.297374 
L 242.532012 240.888956 
L 244.62921 240.214637 
L 246.726408 239.342968 
L 248.823606 238.351922 
L 250.920804 237.326048 
L 253.018002 236.352909 
L 255.1152 235.518779 
L 257.212398 234.903589 
L 259.309597 234.575102 
L 261.406795 234.582346 
L 263.503993 234.948306 
L 265.601191 235.661913 
L 267.698389 236.669385 
L 269.795587 237.864979 
L 271.892785 239.081248 
L 273.989983 240.078896 
L 276.087181 240.536377 
L 278.184379 240.039373 
L 280.281577 238.070333 
L 282.378775 233.998283 
" clip-path="url(#p154f1c5418)" style="fill: none; stroke: #2ca02c; stroke-width: 1.5; stroke-linecap: square"/>
   </g>
   <g id="line2d_19">
    <path d="M 74.756165 230.43297 
L 76.649575 218.6331 
L 78.542986 221.885274 
L 80.436396 232.336469 
L 82.329806 244.491407 
L 84.223217 254.732959 
L 86.116627 260.912548 
L 88.010038 262.003171 
L 89.903448 257.808221 
L 91.796858 248.719798 
L 93.690269 235.520672 
L 95.583679 219.224558 
L 97.47709 200.949772 
L 99.3705 181.821792 
L 101.26391 162.900606 
L 103.157321 145.129147 
L 105.050731 129.299442 
L 106.944142 116.033451 
L 108.837552 105.775873 
L 110.730962 98.796522 
L 112.624373 95.200114 
L 114.517783 94.941593 
L 116.411194 97.845359 
L 118.304604 103.62698 
L 120.198014 111.916178 
L 122.091425 122.280077 
L 123.984835 134.245872 
L 125.878246 147.322238 
L 127.771656 161.018947 
L 129.665066 174.864296 
L 131.558477 188.420057 
L 133.451887 201.29378 
L 135.345298 213.148377 
L 137.238708 223.708963 
L 139.132118 232.767064 
L 141.025529 240.182291 
L 142.918939 245.881686 
L 144.81235 249.856964 
L 146.70576 252.1599 
L 148.59917 252.896148 
L 150.492581 252.21779 
L 152.385991 250.314919 
L 154.279402 247.406567 
L 156.172812 243.731274 
L 158.066222 239.537595 
L 159.959633 235.074825 
L 161.853043 230.584191 
L 163.746454 226.290752 
L 165.639864 222.396202 
L 167.533275 237.637145 
L 169.426685 237.637507 
L 171.320095 214.867662 
L 173.213506 213.562657 
L 175.106916 213.145337 
L 177.000327 213.611479 
L 178.893737 214.918659 
L 180.787147 216.988965 
L 182.680558 219.712923 
L 184.573968 222.954494 
L 186.467379 226.556992 
L 188.360789 230.349756 
L 190.254199 234.155352 
L 192.14761 237.797093 
L 194.04102 241.106631 
L 195.934431 243.931364 
L 197.827841 246.141409 
L 199.721251 247.635859 
L 201.614662 248.348082 
L 203.508072 248.249811 
L 205.401483 247.353793 
L 207.294893 245.7148 
L 209.188303 243.428823 
L 211.081714 240.630339 
L 212.975124 237.487558 
L 214.868535 234.195649 
L 216.761945 230.967999 
L 218.655355 228.025636 
L 220.548766 225.585065 
L 222.442176 223.844837 
L 224.335587 222.971309 
L 226.228997 223.084184 
L 228.122407 224.242548 
L 230.015818 226.432282 
L 231.909228 229.555905 
L 233.802639 233.426085 
L 235.696049 237.764245 
L 237.589459 242.205911 
L 239.48287 246.314696 
L 241.37628 249.607041 
L 243.269691 251.590101 
L 245.163101 251.815468 
L 247.056511 249.95169 
L 248.949922 245.878906 
L 250.843332 239.809203 
L 252.736743 232.436724 
L 254.630153 225.121867 
L 256.523563 220.114367 
L 258.416974 220.82045 
L 260.310384 232.119678 
L 262.203795 260.737604 
" clip-path="url(#p154f1c5418)" style="fill: none; stroke: #d62728; stroke-width: 1.5; stroke-linecap: square"/>
   </g>
   <g id="line2d_20">
    <path d="M 74.756165 191.278565 
L 78.035504 254.600645 
L 81.314842 268.205982 
L 84.594181 250.627616 
L 87.87352 215.825205 
L 91.152859 174.007092 
L 94.432198 132.341965 
L 97.711537 95.571066 
L 100.990876 66.531141 
L 104.270214 46.597587 
L 107.549553 36.056559 
L 110.828892 34.414125 
L 114.108231 40.649917 
L 117.38757 53.422136 
L 120.666909 71.230182 
L 123.946247 92.540639 
L 127.225586 115.881842 
L 130.504925 139.911738 
L 133.784264 163.463333 
L 137.063603 185.571549 
L 140.342942 205.484931 
L 143.62228 222.665255 
L 146.901619 236.777741 
L 150.180958 247.67422 
L 153.460297 255.371336 
L 156.739636 260.02553 
L 160.018975 261.906331 
L 163.298314 261.369204 
L 166.577652 258.829004 
L 169.856991 254.734875 
L 173.13633 249.547227 
L 176.415669 243.717309 
L 179.695008 237.669682 
L 182.974347 231.787816 
L 186.253685 226.402895 
L 189.533024 221.785802 
L 192.812363 218.142209 
L 196.091702 215.610562 
L 199.371041 214.26276 
L 202.65038 214.107216 
L 205.929718 215.093994 
L 209.209057 217.121674 
L 212.488396 220.045571 
L 215.767735 223.686949 
L 219.047074 227.842854 
L 222.326413 232.296213 
L 225.605752 236.825843 
L 228.88509 241.216066 
L 232.164429 245.265627 
L 235.443768 237.627412 
L 238.723107 237.626903 
L 242.002446 253.673586 
L 245.281785 255.334234 
L 248.561123 256.088421 
L 251.840462 255.922476 
L 255.119801 254.864169 
L 258.39914 252.980983 
L 261.678479 250.376886 
L 264.957818 247.187696 
L 268.237157 243.575192 
L 271.516495 239.720171 
L 274.795834 235.814663 
L 278.075173 232.053574 
L 281.354512 228.626027 
L 284.633851 225.706717 
L 287.91319 223.447586 
L 291.192528 221.970143 
L 294.471867 221.358768 
L 297.751206 221.655297 
L 301.030545 222.855207 
L 304.309884 224.905648 
L 307.589223 227.705591 
L 310.868561 231.108243 
L 314.1479 234.925887 
L 317.427239 238.937178 
L 320.706578 242.89688 
L 323.985917 246.547904 
L 327.265256 249.635409 
L 330.544595 251.92259 
L 333.823933 253.207634 
L 337.103272 253.341169 
L 340.382611 252.243344 
L 343.66195 249.919484 
L 346.941289 246.473059 
L 350.220628 242.114448 
L 353.499966 237.163751 
L 356.779305 232.045608 
L 360.058644 227.273693 
L 363.337983 223.422236 
L 366.617322 221.081571 
L 369.896661 220.79437 
L 373.175999 222.968787 
L 376.455338 227.764383 
L 379.734677 234.946204 
L 383.014016 243.701951 
L 386.293355 252.416685 
L 389.572694 258.398984 
L 392.852033 257.551906 
L 396.131371 243.981567 
L 399.41071 209.5355 
" clip-path="url(#p154f1c5418)" style="fill: none; stroke: #9467bd; stroke-width: 1.5; stroke-linecap: square"/>
   </g>
   <g id="line2d_21">
    <path d="M 74.756165 171.310256 
L 77.028867 229.078545 
L 79.301569 262.279369 
L 81.574272 276.334125 
L 83.846974 275.947709 
L 86.119676 265.154061 
L 88.392378 247.364322 
L 90.665081 225.416639 
L 92.937783 201.626792 
L 95.210485 177.838867 
L 97.483187 155.475352 
L 99.75589 135.586065 
L 102.028592 118.895457 
L 104.301294 105.847863 
L 106.573996 96.650388 
L 108.846699 91.313152 
L 111.119401 89.686689 
L 113.392103 91.496363 
L 115.664805 96.373685 
L 117.937508 103.884506 
L 120.21021 113.554056 
L 122.482912 124.888882 
L 124.755614 137.395732 
L 127.028317 150.59749 
L 129.301019 164.046288 
L 131.573721 177.33393 
L 133.846423 190.099795 
L 136.119126 202.0364 
L 138.391828 212.892819 
L 140.66453 222.476146 
L 142.937232 230.651224 
L 145.209935 237.338843 
L 147.482637 242.512628 
L 149.755339 246.194818 
L 152.028041 248.451157 
L 154.300744 249.385095 
L 156.573446 249.131494 
L 158.846148 247.850026 
L 161.11885 245.718452 
L 163.391553 242.925931 
L 165.664255 239.666515 
L 167.936957 236.132978 
L 170.209659 232.511092 
L 172.482362 228.974453 
L 174.755064 225.679962 
L 177.027766 222.764012 
L 179.300468 220.339461 
L 181.57317 218.493405 
L 183.845873 217.285791 
L 186.118575 237.636284 
L 188.391277 237.634811 
L 190.663979 221.022635 
L 192.936682 222.437403 
L 195.209384 224.220263 
L 197.482086 226.293375 
L 199.754788 228.571185 
L 202.027491 230.963694 
L 204.300193 233.379738 
L 206.572895 235.730208 
L 208.845597 237.93113 
L 211.1183 239.906517 
L 213.391002 241.590937 
L 215.663704 242.931709 
L 217.936406 243.890693 
L 220.209109 244.445591 
L 222.481811 244.590744 
L 224.754513 244.33737 
L 227.027215 243.713231 
L 229.299918 242.761719 
L 231.57262 241.540352 
L 233.845322 240.11871 
L 236.118024 238.575829 
L 238.390727 236.99711 
L 240.663429 235.470802 
L 242.936131 234.084134 
L 245.208833 232.919207 
L 247.481536 232.04876 
L 249.754238 231.531939 
L 252.02694 231.410254 
L 254.299642 231.703878 
L 256.572345 232.408514 
L 258.845047 233.493055 
L 261.117749 234.898277 
L 263.390451 236.536869 
L 265.663154 238.295074 
L 267.935856 240.036304 
L 270.208558 241.607064 
L 272.48126 242.84558 
L 274.753963 243.593556 
L 277.026665 243.711486 
L 279.299367 243.098019 
L 281.572069 241.713868 
L 283.844772 239.610804 
L 286.117474 236.966315 
L 288.390176 234.124517 
L 290.662878 231.643972 
L 292.935581 230.353063 
L 295.208283 231.413651 
L 297.480985 236.393742 
L 299.753687 247.349935 
" clip-path="url(#p154f1c5418)" style="fill: none; stroke: #8c564b; stroke-width: 1.5; stroke-linecap: square"/>
   </g>
   <g id="patch_3">
    <path d="M 58.523438 288.430125 
L 58.523438 22.318125 
" style="fill: none; stroke: #000000; stroke-width: 0.8; stroke-linejoin: miter; stroke-linecap: square"/>
   </g>
   <g id="patch_4">
    <path d="M 415.643438 288.430125 
L 415.643438 22.318125 
" style="fill: none; stroke: #000000; stroke-width: 0.8; stroke-linejoin: miter; stroke-linecap: square"/>
   </g>
   <g id="patch_5">
    <path d="M 58.523438 288.430125 
L 415.643438 288.430125 
" style="fill: none; stroke: #000000; stroke-width: 0.8; stroke-linejoin: miter; stroke-linecap: square"/>
   </g>
   <g id="patch_6">
    <path d="M 58.523438 22.318125 
L 415.643438 22.318125 
" style="fill: none; stroke: #000000; stroke-width: 0.8; stroke-linejoin: miter; stroke-linecap: square"/>
   </g>
   <g id="text_18">
    <!-- MD - xtract_prob_Superior_Longitudinal_Fasciculus_2_L -->
    <g transform="translate(72.111563 16.318125) scale(0.12 -0.12)">
     <defs>
      <path id="DejaVuSans-4d" d="M 628 4666 
L 1569 4666 
L 2759 1491 
L 3956 4666 
L 4897 4666 
L 4897 0 
L 4281 0 
L 4281 4097 
L 3078 897 
L 2444 897 
L 1241 4097 
L 1241 0 
L 628 0 
L 628 4666 
z
" transform="scale(0.015625)"/>
      <path id="DejaVuSans-44" d="M 1259 4147 
L 1259 519 
L 2022 519 
Q 2988 519 3436 956 
Q 3884 1394 3884 2338 
Q 3884 3275 3436 3711 
Q 2988 4147 2022 4147 
L 1259 4147 
z
M 628 4666 
L 1925 4666 
Q 3281 4666 3915 4102 
Q 4550 3538 4550 2338 
Q 4550 1131 3912 565 
Q 3275 0 1925 0 
L 628 0 
L 628 4666 
z
" transform="scale(0.015625)"/>
      <path id="DejaVuSans-2d" d="M 313 2009 
L 1997 2009 
L 1997 1497 
L 313 1497 
L 313 2009 
z
" transform="scale(0.015625)"/>
      <path id="DejaVuSans-74" d="M 1172 4494 
L 1172 3500 
L 2356 3500 
L 2356 3053 
L 1172 3053 
L 1172 1153 
Q 1172 725 1289 603 
Q 1406 481 1766 481 
L 2356 481 
L 2356 0 
L 1766 0 
Q 1100 0 847 248 
Q 594 497 594 1153 
L 594 3053 
L 172 3053 
L 172 3500 
L 594 3500 
L 594 4494 
L 1172 4494 
z
" transform="scale(0.015625)"/>
      <path id="DejaVuSans-5f" d="M 3263 -1063 
L 3263 -1509 
L -63 -1509 
L -63 -1063 
L 3263 -1063 
z
" transform="scale(0.015625)"/>
      <path id="DejaVuSans-70" d="M 1159 525 
L 1159 -1331 
L 581 -1331 
L 581 3500 
L 1159 3500 
L 1159 2969 
Q 1341 3281 1617 3432 
Q 1894 3584 2278 3584 
Q 2916 3584 3314 3078 
Q 3713 2572 3713 1747 
Q 3713 922 3314 415 
Q 2916 -91 2278 -91 
Q 1894 -91 1617 61 
Q 1341 213 1159 525 
z
M 3116 1747 
Q 3116 2381 2855 2742 
Q 2594 3103 2138 3103 
Q 1681 3103 1420 2742 
Q 1159 2381 1159 1747 
Q 1159 1113 1420 752 
Q 1681 391 2138 391 
Q 2594 391 2855 752 
Q 3116 1113 3116 1747 
z
" transform="scale(0.015625)"/>
      <path id="DejaVuSans-6f" d="M 1959 3097 
Q 1497 3097 1228 2736 
Q 959 2375 959 1747 
Q 959 1119 1226 758 
Q 1494 397 1959 397 
Q 2419 397 2687 759 
Q 2956 1122 2956 1747 
Q 2956 2369 2687 2733 
Q 2419 3097 1959 3097 
z
M 1959 3584 
Q 2709 3584 3137 3096 
Q 3566 2609 3566 1747 
Q 3566 888 3137 398 
Q 2709 -91 1959 -91 
Q 1206 -91 779 398 
Q 353 888 353 1747 
Q 353 2609 779 3096 
Q 1206 3584 1959 3584 
z
" transform="scale(0.015625)"/>
      <path id="DejaVuSans-62" d="M 3116 1747 
Q 3116 2381 2855 2742 
Q 2594 3103 2138 3103 
Q 1681 3103 1420 2742 
Q 1159 2381 1159 1747 
Q 1159 1113 1420 752 
Q 1681 391 2138 391 
Q 2594 391 2855 752 
Q 3116 1113 3116 1747 
z
M 1159 2969 
Q 1341 3281 1617 3432 
Q 1894 3584 2278 3584 
Q 2916 3584 3314 3078 
Q 3713 2572 3713 1747 
Q 3713 922 3314 415 
Q 2916 -91 2278 -91 
Q 1894 -91 1617 61 
Q 1341 213 1159 525 
L 1159 0 
L 581 0 
L 581 4863 
L 1159 4863 
L 1159 2969 
z
" transform="scale(0.015625)"/>
      <path id="DejaVuSans-53" d="M 3425 4513 
L 3425 3897 
Q 3066 4069 2747 4153 
Q 2428 4238 2131 4238 
Q 1616 4238 1336 4038 
Q 1056 3838 1056 3469 
Q 1056 3159 1242 3001 
Q 1428 2844 1947 2747 
L 2328 2669 
Q 3034 2534 3370 2195 
Q 3706 1856 3706 1288 
Q 3706 609 3251 259 
Q 2797 -91 1919 -91 
Q 1588 -91 1214 -16 
Q 841 59 441 206 
L 441 856 
Q 825 641 1194 531 
Q 1563 422 1919 422 
Q 2459 422 2753 634 
Q 3047 847 3047 1241 
Q 3047 1584 2836 1778 
Q 2625 1972 2144 2069 
L 1759 2144 
Q 1053 2284 737 2584 
Q 422 2884 422 3419 
Q 422 4038 858 4394 
Q 1294 4750 2059 4750 
Q 2388 4750 2728 4690 
Q 3069 4631 3425 4513 
z
" transform="scale(0.015625)"/>
      <path id="DejaVuSans-4c" d="M 628 4666 
L 1259 4666 
L 1259 531 
L 3531 531 
L 3531 0 
L 628 0 
L 628 4666 
z
" transform="scale(0.015625)"/>
      <path id="DejaVuSans-67" d="M 2906 1791 
Q 2906 2416 2648 2759 
Q 2391 3103 1925 3103 
Q 1463 3103 1205 2759 
Q 947 2416 947 1791 
Q 947 1169 1205 825 
Q 1463 481 1925 481 
Q 2391 481 2648 825 
Q 2906 1169 2906 1791 
z
M 3481 434 
Q 3481 -459 3084 -895 
Q 2688 -1331 1869 -1331 
Q 1566 -1331 1297 -1286 
Q 1028 -1241 775 -1147 
L 775 -588 
Q 1028 -725 1275 -790 
Q 1522 -856 1778 -856 
Q 2344 -856 2625 -561 
Q 2906 -266 2906 331 
L 2906 616 
Q 2728 306 2450 153 
Q 2172 0 1784 0 
Q 1141 0 747 490 
Q 353 981 353 1791 
Q 353 2603 747 3093 
Q 1141 3584 1784 3584 
Q 2172 3584 2450 3431 
Q 2728 3278 2906 2969 
L 2906 3500 
L 3481 3500 
L 3481 434 
z
" transform="scale(0.015625)"/>
      <path id="DejaVuSans-64" d="M 2906 2969 
L 2906 4863 
L 3481 4863 
L 3481 0 
L 2906 0 
L 2906 525 
Q 2725 213 2448 61 
Q 2172 -91 1784 -91 
Q 1150 -91 751 415 
Q 353 922 353 1747 
Q 353 2572 751 3078 
Q 1150 3584 1784 3584 
Q 2172 3584 2448 3432 
Q 2725 3281 2906 2969 
z
M 947 1747 
Q 947 1113 1208 752 
Q 1469 391 1925 391 
Q 2381 391 2643 752 
Q 2906 1113 2906 1747 
Q 2906 2381 2643 2742 
Q 2381 3103 1925 3103 
Q 1469 3103 1208 2742 
Q 947 2381 947 1747 
z
" transform="scale(0.015625)"/>
     </defs>
     <use xlink:href="#DejaVuSans-4d"/>
     <use xlink:href="#DejaVuSans-44" x="86.279297"/>
     <use xlink:href="#DejaVuSans-20" x="163.28125"/>
     <use xlink:href="#DejaVuSans-2d" x="195.068359"/>
     <use xlink:href="#DejaVuSans-20" x="231.152344"/>
     <use xlink:href="#DejaVuSans-78" x="262.939453"/>
     <use xlink:href="#DejaVuSans-74" x="322.119141"/>
     <use xlink:href="#DejaVuSans-72" x="361.328125"/>
     <use xlink:href="#DejaVuSans-61" x="402.441406"/>
     <use xlink:href="#DejaVuSans-63" x="463.720703"/>
     <use xlink:href="#DejaVuSans-74" x="518.701172"/>
     <use xlink:href="#DejaVuSans-5f" x="557.910156"/>
     <use xlink:href="#DejaVuSans-70" x="607.910156"/>
     <use xlink:href="#DejaVuSans-72" x="671.386719"/>
     <use xlink:href="#DejaVuSans-6f" x="710.25"/>
     <use xlink:href="#DejaVuSans-62" x="771.431641"/>
     <use xlink:href="#DejaVuSans-5f" x="834.908203"/>
     <use xlink:href="#DejaVuSans-53" x="884.908203"/>
     <use xlink:href="#DejaVuSans-75" x="948.384766"/>
     <use xlink:href="#DejaVuSans-70" x="1011.763672"/>
     <use xlink:href="#DejaVuSans-65" x="1075.240234"/>
     <use xlink:href="#DejaVuSans-72" x="1136.763672"/>
     <use xlink:href="#DejaVuSans-69" x="1177.876953"/>
     <use xlink:href="#DejaVuSans-6f" x="1205.660156"/>
     <use xlink:href="#DejaVuSans-72" x="1266.841797"/>
     <use xlink:href="#DejaVuSans-5f" x="1307.955078"/>
     <use xlink:href="#DejaVuSans-4c" x="1357.955078"/>
     <use xlink:href="#DejaVuSans-6f" x="1411.917969"/>
     <use xlink:href="#DejaVuSans-6e" x="1473.099609"/>
     <use xlink:href="#DejaVuSans-67" x="1536.478516"/>
     <use xlink:href="#DejaVuSans-69" x="1599.955078"/>
     <use xlink:href="#DejaVuSans-74" x="1627.738281"/>
     <use xlink:href="#DejaVuSans-75" x="1666.947266"/>
     <use xlink:href="#DejaVuSans-64" x="1730.326172"/>
     <use xlink:href="#DejaVuSans-69" x="1793.802734"/>
     <use xlink:href="#DejaVuSans-6e" x="1821.585938"/>
     <use xlink:href="#DejaVuSans-61" x="1884.964844"/>
     <use xlink:href="#DejaVuSans-6c" x="1946.244141"/>
     <use xlink:href="#DejaVuSans-5f" x="1974.027344"/>
     <use xlink:href="#DejaVuSans-46" x="2024.027344"/>
     <use xlink:href="#DejaVuSans-61" x="2072.421875"/>
     <use xlink:href="#DejaVuSans-73" x="2133.701172"/>
     <use xlink:href="#DejaVuSans-63" x="2185.800781"/>
     <use xlink:href="#DejaVuSans-69" x="2240.78125"/>
     <use xlink:href="#DejaVuSans-63" x="2268.564453"/>
     <use xlink:href="#DejaVuSans-75" x="2323.544922"/>
     <use xlink:href="#DejaVuSans-6c" x="2386.923828"/>
     <use xlink:href="#DejaVuSans-75" x="2414.707031"/>
     <use xlink:href="#DejaVuSans-73" x="2478.085938"/>
     <use xlink:href="#DejaVuSans-5f" x="2530.185547"/>
     <use xlink:href="#DejaVuSans-32" x="2580.185547"/>
     <use xlink:href="#DejaVuSans-5f" x="2643.808594"/>
     <use xlink:href="#DejaVuSans-4c" x="2693.808594"/>
    </g>
   </g>
   <g id="legend_1">
    <g id="patch_7">
     <path d="M 458.355438 146.666825 
L 556.211688 146.666825 
Q 558.211688 146.666825 558.211688 144.666825 
L 558.211688 55.929325 
Q 558.211688 53.929325 556.211688 53.929325 
L 458.355438 53.929325 
Q 456.355438 53.929325 456.355438 55.929325 
L 456.355438 144.666825 
Q 456.355438 146.666825 458.355438 146.666825 
z
" style="fill: #ffffff; opacity: 0.8; stroke: #cccccc; stroke-linejoin: miter"/>
    </g>
    <g id="line2d_22">
     <path d="M 460.355438 62.027762 
L 470.355438 62.027762 
L 480.355438 62.027762 
" style="fill: none; stroke: #1f77b4; stroke-width: 1.5; stroke-linecap: square"/>
    </g>
    <g id="text_19">
     <!-- 20_06_02_E3 -->
     <g transform="translate(488.355438 65.527762) scale(0.1 -0.1)">
      <defs>
       <path id="DejaVuSans-45" d="M 628 4666 
L 3578 4666 
L 3578 4134 
L 1259 4134 
L 1259 2753 
L 3481 2753 
L 3481 2222 
L 1259 2222 
L 1259 531 
L 3634 531 
L 3634 0 
L 628 0 
L 628 4666 
z
" transform="scale(0.015625)"/>
      </defs>
      <use xlink:href="#DejaVuSans-32"/>
      <use xlink:href="#DejaVuSans-30" x="63.623047"/>
      <use xlink:href="#DejaVuSans-5f" x="127.246094"/>
      <use xlink:href="#DejaVuSans-30" x="177.246094"/>
      <use xlink:href="#DejaVuSans-36" x="240.869141"/>
      <use xlink:href="#DejaVuSans-5f" x="304.492188"/>
      <use xlink:href="#DejaVuSans-30" x="354.492188"/>
      <use xlink:href="#DejaVuSans-32" x="418.115234"/>
      <use xlink:href="#DejaVuSans-5f" x="481.738281"/>
      <use xlink:href="#DejaVuSans-45" x="531.738281"/>
      <use xlink:href="#DejaVuSans-33" x="594.921875"/>
     </g>
    </g>
    <g id="line2d_23">
     <path d="M 460.355438 76.984013 
L 470.355438 76.984013 
L 480.355438 76.984013 
" style="fill: none; stroke: #ff7f0e; stroke-width: 1.5; stroke-linecap: square"/>
    </g>
    <g id="text_20">
     <!-- 20_05_01_E3 -->
     <g transform="translate(488.355438 80.484013) scale(0.1 -0.1)">
      <use xlink:href="#DejaVuSans-32"/>
      <use xlink:href="#DejaVuSans-30" x="63.623047"/>
      <use xlink:href="#DejaVuSans-5f" x="127.246094"/>
      <use xlink:href="#DejaVuSans-30" x="177.246094"/>
      <use xlink:href="#DejaVuSans-35" x="240.869141"/>
      <use xlink:href="#DejaVuSans-5f" x="304.492188"/>
      <use xlink:href="#DejaVuSans-30" x="354.492188"/>
      <use xlink:href="#DejaVuSans-31" x="418.115234"/>
      <use xlink:href="#DejaVuSans-5f" x="481.738281"/>
      <use xlink:href="#DejaVuSans-45" x="531.738281"/>
      <use xlink:href="#DejaVuSans-33" x="594.921875"/>
     </g>
    </g>
    <g id="line2d_24">
     <path d="M 460.355438 91.940262 
L 470.355438 91.940262 
L 480.355438 91.940262 
" style="fill: none; stroke: #2ca02c; stroke-width: 1.5; stroke-linecap: square"/>
    </g>
    <g id="text_21">
     <!-- 20_02_02_E3 -->
     <g transform="translate(488.355438 95.440262) scale(0.1 -0.1)">
      <use xlink:href="#DejaVuSans-32"/>
      <use xlink:href="#DejaVuSans-30" x="63.623047"/>
      <use xlink:href="#DejaVuSans-5f" x="127.246094"/>
      <use xlink:href="#DejaVuSans-30" x="177.246094"/>
      <use xlink:href="#DejaVuSans-32" x="240.869141"/>
      <use xlink:href="#DejaVuSans-5f" x="304.492188"/>
      <use xlink:href="#DejaVuSans-30" x="354.492188"/>
      <use xlink:href="#DejaVuSans-32" x="418.115234"/>
      <use xlink:href="#DejaVuSans-5f" x="481.738281"/>
      <use xlink:href="#DejaVuSans-45" x="531.738281"/>
      <use xlink:href="#DejaVuSans-33" x="594.921875"/>
     </g>
    </g>
    <g id="line2d_25">
     <path d="M 460.355438 106.896513 
L 470.355438 106.896513 
L 480.355438 106.896513 
" style="fill: none; stroke: #d62728; stroke-width: 1.5; stroke-linecap: square"/>
    </g>
    <g id="text_22">
     <!-- 20_10_02_E3 -->
     <g transform="translate(488.355438 110.396513) scale(0.1 -0.1)">
      <use xlink:href="#DejaVuSans-32"/>
      <use xlink:href="#DejaVuSans-30" x="63.623047"/>
      <use xlink:href="#DejaVuSans-5f" x="127.246094"/>
      <use xlink:href="#DejaVuSans-31" x="177.246094"/>
      <use xlink:href="#DejaVuSans-30" x="240.869141"/>
      <use xlink:href="#DejaVuSans-5f" x="304.492188"/>
      <use xlink:href="#DejaVuSans-30" x="354.492188"/>
      <use xlink:href="#DejaVuSans-32" x="418.115234"/>
      <use xlink:href="#DejaVuSans-5f" x="481.738281"/>
      <use xlink:href="#DejaVuSans-45" x="531.738281"/>
      <use xlink:href="#DejaVuSans-33" x="594.921875"/>
     </g>
    </g>
    <g id="line2d_26">
     <path d="M 460.355438 121.852762 
L 470.355438 121.852762 
L 480.355438 121.852762 
" style="fill: none; stroke: #9467bd; stroke-width: 1.5; stroke-linecap: square"/>
    </g>
    <g id="text_23">
     <!-- 20_08_02_E3 -->
     <g transform="translate(488.355438 125.352762) scale(0.1 -0.1)">
      <use xlink:href="#DejaVuSans-32"/>
      <use xlink:href="#DejaVuSans-30" x="63.623047"/>
      <use xlink:href="#DejaVuSans-5f" x="127.246094"/>
      <use xlink:href="#DejaVuSans-30" x="177.246094"/>
      <use xlink:href="#DejaVuSans-38" x="240.869141"/>
      <use xlink:href="#DejaVuSans-5f" x="304.492188"/>
      <use xlink:href="#DejaVuSans-30" x="354.492188"/>
      <use xlink:href="#DejaVuSans-32" x="418.115234"/>
      <use xlink:href="#DejaVuSans-5f" x="481.738281"/>
      <use xlink:href="#DejaVuSans-45" x="531.738281"/>
      <use xlink:href="#DejaVuSans-33" x="594.921875"/>
     </g>
    </g>
    <g id="line2d_27">
     <path d="M 460.355438 136.809012 
L 470.355438 136.809012 
L 480.355438 136.809012 
" style="fill: none; stroke: #8c564b; stroke-width: 1.5; stroke-linecap: square"/>
    </g>
    <g id="text_24">
     <!-- 20_11_02_E3 -->
     <g transform="translate(488.355438 140.309012) scale(0.1 -0.1)">
      <use xlink:href="#DejaVuSans-32"/>
      <use xlink:href="#DejaVuSans-30" x="63.623047"/>
      <use xlink:href="#DejaVuSans-5f" x="127.246094"/>
      <use xlink:href="#DejaVuSans-31" x="177.246094"/>
      <use xlink:href="#DejaVuSans-31" x="240.869141"/>
      <use xlink:href="#DejaVuSans-5f" x="304.492188"/>
      <use xlink:href="#DejaVuSans-30" x="354.492188"/>
      <use xlink:href="#DejaVuSans-32" x="418.115234"/>
      <use xlink:href="#DejaVuSans-5f" x="481.738281"/>
      <use xlink:href="#DejaVuSans-45" x="531.738281"/>
      <use xlink:href="#DejaVuSans-33" x="594.921875"/>
     </g>
    </g>
   </g>
  </g>
 </g>
 <defs>
  <clipPath id="p154f1c5418">
   <rect x="58.523438" y="22.318125" width="357.12" height="266.112"/>
  </clipPath>
 </defs>
</svg>
