<?xml version="1.0" encoding="utf-8" standalone="no"?>
<!DOCTYPE svg PUBLIC "-//W3C//DTD SVG 1.1//EN"
  "http://www.w3.org/Graphics/SVG/1.1/DTD/svg11.dtd">
<svg xmlns:xlink="http://www.w3.org/1999/xlink" width="563.3945pt" height="325.986375pt" viewBox="0 0 563.3945 325.986375" xmlns="http://www.w3.org/2000/svg" version="1.1">
 <metadata>
  <rdf:RDF xmlns:dc="http://purl.org/dc/elements/1.1/" xmlns:cc="http://creativecommons.org/ns#" xmlns:rdf="http://www.w3.org/1999/02/22-rdf-syntax-ns#">
   <cc:Work>
    <dc:type rdf:resource="http://purl.org/dc/dcmitype/StillImage"/>
    <dc:date>2023-02-07T22:59:56.542632</dc:date>
    <dc:format>image/svg+xml</dc:format>
    <dc:creator>
     <cc:Agent>
      <dc:title>Matplotlib v3.6.2, https://matplotlib.org/</dc:title>
     </cc:Agent>
    </dc:creator>
   </cc:Work>
  </rdf:RDF>
 </metadata>
 <defs>
  <style type="text/css">*{stroke-linejoin: round; stroke-linecap: butt}</style>
 </defs>
 <g id="figure_1">
  <g id="patch_1">
   <path d="M 0 325.986375 
L 563.3945 325.986375 
L 563.3945 0 
L 0 0 
z
" style="fill: #ffffff"/>
  </g>
  <g id="axes_1">
   <g id="patch_2">
    <path d="M 56.50625 288.430125 
L 413.62625 288.430125 
L 413.62625 22.318125 
L 56.50625 22.318125 
z
" style="fill: #ffffff"/>
   </g>
   <g id="PolyCollection_1">
    <path d="M 72.738977 259.762667 
L 72.738977 258.226533 
L 76.018316 258.226533 
L 79.297655 258.226533 
L 82.576993 258.226533 
L 85.856332 258.226533 
L 89.135671 258.226533 
L 92.415009 258.226533 
L 95.694348 258.226533 
L 98.973686 258.226533 
L 102.253025 258.226533 
L 105.532364 258.226533 
L 108.811702 258.226533 
L 112.091041 258.226533 
L 115.37038 258.226533 
L 118.649718 258.226533 
L 121.929057 258.226533 
L 125.208396 258.226533 
L 128.487734 258.226533 
L 131.767073 258.226533 
L 135.046412 258.226533 
L 138.32575 258.226533 
L 141.605089 258.226533 
L 144.884428 258.226533 
L 148.163766 258.226533 
L 151.443105 258.226533 
L 154.722443 258.226533 
L 158.001782 258.226533 
L 161.281121 258.226533 
L 164.560459 258.226533 
L 167.839798 258.226533 
L 171.119137 258.226533 
L 174.398475 258.226533 
L 177.677814 258.226533 
L 180.957153 258.226533 
L 184.236491 258.226533 
L 187.51583 258.226533 
L 190.795169 258.226533 
L 194.074507 258.226533 
L 197.353846 258.226533 
L 200.633185 258.226533 
L 203.912523 258.226533 
L 207.191862 258.226533 
L 210.4712 258.226533 
L 213.750539 258.226533 
L 217.029878 258.226533 
L 220.309216 258.226533 
L 223.588555 258.226533 
L 226.867894 258.226533 
L 230.147232 258.226533 
L 233.426571 258.226533 
L 236.70591 258.226533 
L 239.985248 258.226533 
L 243.264587 258.226533 
L 246.543926 258.226533 
L 249.823264 258.226533 
L 253.102603 258.226533 
L 256.381942 258.226533 
L 259.66128 258.226533 
L 262.940619 258.226533 
L 266.219957 258.226533 
L 269.499296 258.226533 
L 272.778635 258.226533 
L 276.057973 258.226533 
L 279.337312 258.226533 
L 282.616651 258.226533 
L 285.895989 258.226533 
L 289.175328 258.226533 
L 292.454667 258.226533 
L 295.734005 258.226533 
L 299.013344 258.226533 
L 302.292683 258.226533 
L 305.572021 258.226533 
L 308.85136 258.226533 
L 312.130699 258.226533 
L 315.410037 258.226533 
L 318.689376 258.226533 
L 321.968714 258.226533 
L 325.248053 258.226533 
L 328.527392 258.226533 
L 331.80673 258.226533 
L 335.086069 258.226533 
L 338.365408 258.226533 
L 341.644746 258.226533 
L 344.924085 258.226533 
L 348.203424 258.226533 
L 351.482762 258.226533 
L 354.762101 258.226533 
L 358.04144 258.226533 
L 361.320778 258.226533 
L 364.600117 258.226533 
L 367.879456 258.226533 
L 371.158794 258.226533 
L 374.438133 258.226533 
L 377.717471 258.226533 
L 380.99681 258.226533 
L 384.276149 258.226533 
L 387.555487 258.226533 
L 390.834826 258.226533 
L 394.114165 258.226533 
L 397.393503 258.226533 
L 397.393503 168.017217 
L 397.393503 168.017217 
L 394.114165 214.988809 
L 390.834826 243.579305 
L 387.555487 259.189372 
L 384.276149 266.00019 
L 380.99681 267.182435 
L 377.717471 265.07816 
L 374.438133 261.358186 
L 371.158794 257.157452 
L 367.879456 253.19059 
L 364.600117 249.849823 
L 361.320778 247.287144 
L 358.04144 245.482558 
L 354.762101 244.300051 
L 351.482762 243.532798 
L 348.203424 242.939 
L 344.924085 242.269621 
L 341.644746 241.289176 
L 338.365408 239.790607 
L 335.086069 237.605209 
L 331.80673 234.608428 
L 328.527392 230.722304 
L 325.248053 225.915225 
L 321.968714 220.199588 
L 318.689376 213.627878 
L 315.410037 206.287635 
L 312.130699 198.295675 
L 308.85136 189.791917 
L 305.572021 180.933083 
L 302.292683 171.8865 
L 299.013344 162.824195 
L 295.734005 153.91742 
L 292.454667 145.331726 
L 289.175328 137.222653 
L 285.895989 129.73209 
L 282.616651 122.985322 
L 279.337312 117.088781 
L 276.057973 112.12846 
L 272.778635 108.168986 
L 269.499296 105.253277 
L 266.219957 103.402757 
L 262.940619 102.61805 
L 259.66128 102.880086 
L 256.381942 104.151554 
L 253.102603 106.378633 
L 249.823264 109.492915 
L 246.543926 113.413475 
L 243.264587 118.048999 
L 239.985248 123.299925 
L 236.70591 258.204991 
L 233.426571 258.20552 
L 230.147232 140.051519 
L 226.867894 146.566024 
L 223.588555 153.229654 
L 220.309216 159.932815 
L 217.029878 166.565399 
L 213.750539 173.0179 
L 210.4712 179.182496 
L 207.191862 184.954094 
L 203.912523 190.231359 
L 200.633185 194.917736 
L 197.353846 198.922486 
L 194.074507 202.161744 
L 190.795169 204.559633 
L 187.51583 206.049425 
L 184.236491 206.574797 
L 180.957153 206.091157 
L 177.677814 204.56708 
L 174.398475 201.985838 
L 171.119137 198.347017 
L 167.839798 193.668225 
L 164.560459 187.986845 
L 161.281121 181.361821 
L 158.001782 173.875401 
L 154.722443 165.634799 
L 151.443105 156.77368 
L 148.163766 147.45336 
L 144.884428 137.863612 
L 141.605089 128.222921 
L 138.32575 118.778015 
L 135.046412 109.80246 
L 131.767073 101.594102 
L 128.487734 94.471064 
L 125.208396 88.766004 
L 121.929057 84.818285 
L 118.649718 82.963657 
L 115.37038 83.52102 
L 112.091041 86.77579 
L 108.811702 92.959305 
L 105.532364 102.223701 
L 102.253025 114.611586 
L 98.973686 130.019795 
L 95.694348 148.156451 
L 92.415009 168.490464 
L 89.135671 190.192542 
L 85.856332 212.066706 
L 82.576993 232.471216 
L 79.297655 249.227726 
L 76.018316 259.517408 
L 72.738977 259.762667 
z
" clip-path="url(#p5fa77320bb)" style="fill: #1f77b4; fill-opacity: 0.166667"/>
   </g>
   <g id="PolyCollection_2">
    <path d="M 72.738977 243.340472 
L 72.738977 258.226533 
L 76.018316 258.226533 
L 79.297655 258.226533 
L 82.576994 258.226533 
L 85.856333 258.226533 
L 89.135671 258.226533 
L 92.41501 258.226533 
L 95.694349 258.226533 
L 98.973688 258.226533 
L 102.253027 258.226533 
L 105.532366 258.226533 
L 108.811705 258.226533 
L 112.091043 258.226533 
L 115.370382 258.226533 
L 118.649721 258.226533 
L 121.92906 258.226533 
L 125.208399 258.226533 
L 128.487738 258.226533 
L 131.767076 258.226533 
L 135.046415 258.226533 
L 138.325754 258.226533 
L 141.605093 258.226533 
L 144.884432 258.226533 
L 148.163771 258.226533 
L 151.44311 258.226533 
L 154.722448 258.226533 
L 158.001787 258.226533 
L 161.281126 258.226533 
L 164.560465 258.226533 
L 167.839804 258.226533 
L 171.119143 258.226533 
L 174.398481 258.226533 
L 177.67782 258.226533 
L 180.957159 258.226533 
L 184.236498 258.226533 
L 187.515837 258.226533 
L 190.795176 258.226533 
L 194.074514 258.226533 
L 197.353853 258.226533 
L 200.633192 258.226533 
L 203.912531 258.226533 
L 207.19187 258.226533 
L 210.471209 258.226533 
L 213.750548 258.226533 
L 217.029886 258.226533 
L 220.309225 258.226533 
L 223.588564 258.226533 
L 226.867903 258.226533 
L 230.147242 258.226533 
L 233.426581 258.226533 
L 236.705919 258.226533 
L 239.985258 258.226533 
L 243.264597 258.226533 
L 246.543936 258.226533 
L 249.823275 258.226533 
L 253.102614 258.226533 
L 256.381952 258.226533 
L 259.661291 258.226533 
L 262.94063 258.226533 
L 266.219969 258.226533 
L 269.499308 258.226533 
L 272.778647 258.226533 
L 276.057986 258.226533 
L 279.337324 258.226533 
L 282.616663 258.226533 
L 285.896002 258.226533 
L 289.175341 258.226533 
L 292.45468 258.226533 
L 295.734019 258.226533 
L 299.013357 258.226533 
L 302.292696 258.226533 
L 305.572035 258.226533 
L 308.851374 258.226533 
L 312.130713 258.226533 
L 315.410052 258.226533 
L 318.68939 258.226533 
L 321.968729 258.226533 
L 325.248068 258.226533 
L 328.527407 258.226533 
L 331.806746 258.226533 
L 335.086085 258.226533 
L 338.365424 258.226533 
L 341.644762 258.226533 
L 344.924101 258.226533 
L 348.20344 258.226533 
L 351.482779 258.226533 
L 354.762118 258.226533 
L 358.041457 258.226533 
L 361.320795 258.226533 
L 364.600134 258.226533 
L 367.879473 258.226533 
L 371.158812 258.226533 
L 374.438151 258.226533 
L 377.71749 258.226533 
L 380.996829 258.226533 
L 384.276167 258.226533 
L 387.555506 258.226533 
L 390.834845 258.226533 
L 394.114184 258.226533 
L 397.393523 258.226533 
L 397.393523 180.968679 
L 397.393523 180.968679 
L 394.114184 228.865504 
L 390.834845 254.264226 
L 387.555506 265.080571 
L 384.276167 267.141379 
L 380.996829 264.591335 
L 377.71749 260.24118 
L 374.438151 255.863565 
L 371.158812 252.442222 
L 367.879473 250.379733 
L 364.600134 249.668734 
L 361.320795 250.031019 
L 358.041457 251.028647 
L 354.762118 252.150781 
L 351.482779 252.879669 
L 348.20344 252.738866 
L 344.924101 251.326496 
L 341.644762 248.336061 
L 338.365424 243.567058 
L 335.086085 236.927421 
L 331.806746 228.429546 
L 328.527407 218.181485 
L 325.248068 206.374641 
L 321.968729 193.269178 
L 318.68939 179.178109 
L 315.410052 164.450936 
L 312.130713 149.457534 
L 308.851374 134.572831 
L 305.572035 120.162754 
L 302.292696 106.571752 
L 299.013357 94.112156 
L 295.734019 83.055507 
L 292.45468 73.625936 
L 289.175341 65.995598 
L 285.896002 60.282113 
L 282.616663 56.547899 
L 279.337324 54.801264 
L 276.057986 54.999084 
L 272.778647 57.050847 
L 269.499308 60.823869 
L 266.219969 66.149423 
L 262.94063 72.82956 
L 259.661291 80.644372 
L 256.381952 89.359472 
L 253.102614 98.733454 
L 249.823275 108.525126 
L 246.543936 118.500325 
L 243.264597 128.43813 
L 239.985258 138.136324 
L 236.705919 258.197637 
L 233.426581 258.198633 
L 230.147242 162.668679 
L 226.867903 170.0654 
L 223.588564 176.687684 
L 220.309225 182.494257 
L 217.029886 187.469711 
L 213.750548 191.622452 
L 210.471209 194.981931 
L 207.19187 197.595242 
L 203.912531 199.523219 
L 200.633192 200.836179 
L 197.353853 201.609451 
L 194.074514 201.918872 
L 190.795176 201.836423 
L 187.515837 201.426171 
L 184.236498 200.740709 
L 180.957159 199.818265 
L 177.67782 198.680641 
L 174.398481 197.33213 
L 171.119143 195.759562 
L 167.839804 193.933544 
L 164.560465 191.811013 
L 161.281126 189.339093 
L 158.001787 186.46027 
L 154.722448 183.118806 
L 151.44311 179.268266 
L 148.163771 174.879955 
L 144.884432 169.952001 
L 141.605093 164.518704 
L 138.325754 158.659702 
L 135.046415 152.508379 
L 131.767076 146.258842 
L 128.487738 140.170649 
L 125.208399 134.570335 
L 121.92906 129.848659 
L 118.649721 126.452295 
L 115.370382 124.868548 
L 112.091043 125.601481 
L 108.811705 129.137637 
L 105.532366 135.899342 
L 102.253027 146.183334 
L 98.973688 160.08225 
L 95.694349 177.386218 
L 92.41501 197.461568 
L 89.135671 219.103375 
L 85.856333 240.35825 
L 82.576994 258.313502 
L 79.297655 268.848434 
L 76.018316 266.343227 
L 72.738977 243.340472 
z
" clip-path="url(#p5fa77320bb)" style="fill: #ff7f0e; fill-opacity: 0.166667"/>
   </g>
   <g id="PolyCollection_3">
    <path d="M 72.738977 276.334125 
L 72.738977 258.226533 
L 76.018316 258.226533 
L 79.297655 258.226533 
L 82.576994 258.226533 
L 85.856333 258.226533 
L 89.135671 258.226533 
L 92.41501 258.226533 
L 95.694349 258.226533 
L 98.973688 258.226533 
L 102.253027 258.226533 
L 105.532366 258.226533 
L 108.811705 258.226533 
L 112.091043 258.226533 
L 115.370382 258.226533 
L 118.649721 258.226533 
L 121.92906 258.226533 
L 125.208399 258.226533 
L 128.487738 258.226533 
L 131.767076 258.226533 
L 135.046415 258.226533 
L 138.325754 258.226533 
L 141.605093 258.226533 
L 144.884432 258.226533 
L 148.163771 258.226533 
L 151.44311 258.226533 
L 154.722448 258.226533 
L 158.001787 258.226533 
L 161.281126 258.226533 
L 164.560465 258.226533 
L 167.839804 258.226533 
L 171.119143 258.226533 
L 174.398481 258.226533 
L 177.67782 258.226533 
L 180.957159 258.226533 
L 184.236498 258.226533 
L 187.515837 258.226533 
L 190.795176 258.226533 
L 194.074514 258.226533 
L 197.353853 258.226533 
L 200.633192 258.226533 
L 203.912531 258.226533 
L 207.19187 258.226533 
L 210.471209 258.226533 
L 213.750548 258.226533 
L 217.029886 258.226533 
L 220.309225 258.226533 
L 223.588564 258.226533 
L 226.867903 258.226533 
L 230.147242 258.226533 
L 233.426581 258.226533 
L 236.705919 258.226533 
L 239.985258 258.226533 
L 243.264597 258.226533 
L 246.543936 258.226533 
L 249.823275 258.226533 
L 253.102614 258.226533 
L 256.381952 258.226533 
L 259.661291 258.226533 
L 262.94063 258.226533 
L 266.219969 258.226533 
L 269.499308 258.226533 
L 272.778647 258.226533 
L 276.057986 258.226533 
L 279.337324 258.226533 
L 282.616663 258.226533 
L 285.896002 258.226533 
L 289.175341 258.226533 
L 292.45468 258.226533 
L 295.734019 258.226533 
L 299.013357 258.226533 
L 302.292696 258.226533 
L 305.572035 258.226533 
L 308.851374 258.226533 
L 312.130713 258.226533 
L 315.410052 258.226533 
L 318.68939 258.226533 
L 321.968729 258.226533 
L 325.248068 258.226533 
L 328.527407 258.226533 
L 331.806746 258.226533 
L 335.086085 258.226533 
L 338.365424 258.226533 
L 341.644762 258.226533 
L 344.924101 258.226533 
L 348.20344 258.226533 
L 351.482779 258.226533 
L 354.762118 258.226533 
L 358.041457 258.226533 
L 361.320795 258.226533 
L 364.600134 258.226533 
L 367.879473 258.226533 
L 371.158812 258.226533 
L 374.438151 258.226533 
L 377.71749 258.226533 
L 380.996829 258.226533 
L 384.276167 258.226533 
L 387.555506 258.226533 
L 390.834845 258.226533 
L 394.114184 258.226533 
L 397.393523 258.226533 
L 397.393523 164.090891 
L 397.393523 164.090891 
L 394.114184 211.143349 
L 390.834845 240.403759 
L 387.555506 256.957916 
L 384.276167 264.768799 
L 380.996829 266.869507 
L 377.71749 265.530548 
L 374.438151 262.404061 
L 371.158812 258.647348 
L 367.879473 255.027915 
L 364.600134 252.012069 
L 361.320795 249.838955 
L 358.041457 248.581755 
L 354.762118 248.197647 
L 351.482779 248.567979 
L 348.20344 249.529969 
L 344.924101 250.901157 
L 341.644762 252.497676 
L 338.365424 254.147345 
L 335.086085 255.698447 
L 331.806746 257.024986 
L 328.527407 258.029128 
L 325.248068 258.641414 
L 321.968729 258.819315 
L 318.68939 258.544567 
L 315.410052 257.819692 
L 312.130713 256.664057 
L 308.851374 255.109722 
L 305.572035 253.197341 
L 302.292696 250.972273 
L 299.013357 248.481057 
L 295.734019 245.768351 
L 292.45468 242.874409 
L 289.175341 239.833124 
L 285.896002 236.670669 
L 282.616663 233.404714 
L 279.337324 230.044193 
L 276.057986 226.589586 
L 272.778647 223.03365 
L 269.499308 219.362541 
L 266.219969 215.557252 
L 262.94063 211.595286 
L 259.661291 207.452486 
L 256.381952 203.104948 
L 253.102614 198.530927 
L 249.823275 193.712673 
L 246.543936 188.638115 
L 243.264597 183.302344 
L 239.985258 177.708825 
L 236.705919 258.206553 
L 233.426581 258.20612 
L 230.147242 157.991372 
L 226.867903 151.218355 
L 223.588564 144.440679 
L 220.309225 137.729892 
L 217.029886 131.160111 
L 213.750548 124.806061 
L 210.471209 118.74099 
L 207.19187 113.03449 
L 203.912531 107.750311 
L 200.633192 102.944216 
L 197.353853 98.661953 
L 194.074514 94.937413 
L 190.795176 91.791054 
L 187.515837 89.228644 
L 184.236498 87.240419 
L 180.957159 85.800695 
L 177.67782 84.868012 
L 174.398481 84.38586 
L 171.119143 84.284015 
L 167.839804 84.480537 
L 164.560465 84.884428 
L 161.281126 85.39896 
L 158.001787 85.925642 
L 154.722448 86.368793 
L 151.44311 86.64065 
L 148.163771 86.666908 
L 144.884432 86.392568 
L 141.605093 85.787939 
L 138.325754 84.854574 
L 135.046415 83.630919 
L 131.767076 82.19737 
L 128.487738 80.680409 
L 125.208399 79.255434 
L 121.92906 78.147823 
L 118.649721 77.631737 
L 115.370382 78.026083 
L 112.091043 79.686991 
L 108.811705 82.996092 
L 105.532366 88.343797 
L 102.253027 96.106695 
L 98.973688 106.618104 
L 95.694349 120.130708 
L 92.41501 136.770112 
L 89.135671 156.478055 
L 85.856333 178.9439 
L 82.576994 203.522903 
L 79.297655 229.139652 
L 76.018316 254.17493 
L 72.738977 276.334125 
z
" clip-path="url(#p5fa77320bb)" style="fill: #2ca02c; fill-opacity: 0.166667"/>
   </g>
   <g id="PolyCollection_4">
    <path d="M 72.738977 243.184675 
L 72.738977 258.226533 
L 76.018316 258.226533 
L 79.297655 258.226533 
L 82.576994 258.226533 
L 85.856333 258.226533 
L 89.135671 258.226533 
L 92.41501 258.226533 
L 95.694349 258.226533 
L 98.973688 258.226533 
L 102.253027 258.226533 
L 105.532366 258.226533 
L 108.811705 258.226533 
L 112.091043 258.226533 
L 115.370382 258.226533 
L 118.649721 258.226533 
L 121.92906 258.226533 
L 125.208399 258.226533 
L 128.487738 258.226533 
L 131.767076 258.226533 
L 135.046415 258.226533 
L 138.325754 258.226533 
L 141.605093 258.226533 
L 144.884432 258.226533 
L 148.163771 258.226533 
L 151.44311 258.226533 
L 154.722448 258.226533 
L 158.001787 258.226533 
L 161.281126 258.226533 
L 164.560465 258.226533 
L 167.839804 258.226533 
L 171.119143 258.226533 
L 174.398481 258.226533 
L 177.67782 258.226533 
L 180.957159 258.226533 
L 184.236498 258.226533 
L 187.515837 258.226533 
L 190.795176 258.226533 
L 194.074514 258.226533 
L 197.353853 258.226533 
L 200.633192 258.226533 
L 203.912531 258.226533 
L 207.19187 258.226533 
L 210.471209 258.226533 
L 213.750548 258.226533 
L 217.029886 258.226533 
L 220.309225 258.226533 
L 223.588564 258.226533 
L 226.867903 258.226533 
L 230.147242 258.226533 
L 233.426581 258.226533 
L 236.705919 258.226533 
L 239.985258 258.226533 
L 243.264597 258.226533 
L 246.543936 258.226533 
L 249.823275 258.226533 
L 253.102614 258.226533 
L 256.381952 258.226533 
L 259.661291 258.226533 
L 262.94063 258.226533 
L 266.219969 258.226533 
L 269.499308 258.226533 
L 272.778647 258.226533 
L 276.057986 258.226533 
L 279.337324 258.226533 
L 282.616663 258.226533 
L 285.896002 258.226533 
L 289.175341 258.226533 
L 292.45468 258.226533 
L 295.734019 258.226533 
L 299.013357 258.226533 
L 302.292696 258.226533 
L 305.572035 258.226533 
L 308.851374 258.226533 
L 312.130713 258.226533 
L 315.410052 258.226533 
L 318.68939 258.226533 
L 321.968729 258.226533 
L 325.248068 258.226533 
L 328.527407 258.226533 
L 331.806746 258.226533 
L 335.086085 258.226533 
L 338.365424 258.226533 
L 341.644762 258.226533 
L 344.924101 258.226533 
L 348.20344 258.226533 
L 351.482779 258.226533 
L 354.762118 258.226533 
L 358.041457 258.226533 
L 361.320795 258.226533 
L 364.600134 258.226533 
L 367.879473 258.226533 
L 371.158812 258.226533 
L 374.438151 258.226533 
L 377.71749 258.226533 
L 380.996829 258.226533 
L 384.276167 258.226533 
L 387.555506 258.226533 
L 390.834845 258.226533 
L 394.114184 258.226533 
L 397.393523 258.226533 
L 397.393523 173.54399 
L 397.393523 173.54399 
L 394.114184 230.560374 
L 390.834845 259.821284 
L 387.555506 271.154092 
L 384.276167 271.819365 
L 380.996829 267.003562 
L 377.71749 260.241896 
L 374.438151 253.778572 
L 371.158812 248.871116 
L 367.879473 246.045001 
L 364.600134 245.304292 
L 361.320795 246.303598 
L 358.041457 248.486166 
L 354.762118 251.192557 
L 351.482779 253.74396 
L 348.20344 255.503812 
L 344.924101 255.921079 
L 341.644762 254.558185 
L 338.365424 251.106311 
L 335.086085 245.390459 
L 331.806746 237.36644 
L 328.527407 227.111657 
L 325.248068 214.811349 
L 321.968729 200.741723 
L 318.68939 185.251212 
L 315.410052 168.740885 
L 312.130713 151.644895 
L 308.851374 134.411678 
L 305.572035 117.486446 
L 302.292696 101.295444 
L 299.013357 86.232266 
L 295.734019 72.646445 
L 292.45468 60.834455 
L 289.175341 51.033135 
L 285.896002 43.415525 
L 282.616663 38.088998 
L 279.337324 35.095562 
L 276.057986 34.414125 
L 272.778647 35.964508 
L 269.499308 39.61296 
L 266.219969 45.178907 
L 262.94063 52.442658 
L 259.661291 61.15379 
L 256.381952 71.039938 
L 253.102614 81.815709 
L 249.823275 93.191482 
L 246.543936 104.881829 
L 243.264597 116.613368 
L 239.985258 128.13183 
L 236.705919 258.195176 
L 233.426581 258.195903 
L 230.147242 158.19482 
L 226.867903 167.079929 
L 223.588564 174.991821 
L 220.309225 181.867486 
L 217.029886 187.678754 
L 213.750548 192.430476 
L 210.471209 196.157695 
L 207.19187 198.921921 
L 203.912531 200.806636 
L 200.633192 201.912185 
L 197.353853 202.350241 
L 194.074514 202.238009 
L 190.795176 201.692412 
L 187.515837 200.82444 
L 184.236498 199.733902 
L 180.957159 198.504795 
L 177.67782 197.201489 
L 174.398481 195.865958 
L 171.119143 194.5162 
L 167.839804 193.146038 
L 164.560465 191.726399 
L 161.281126 190.20817 
L 158.001787 188.526654 
L 154.722448 186.607608 
L 151.44311 184.374777 
L 148.163771 181.758743 
L 144.884432 178.706849 
L 141.605093 175.193847 
L 138.325754 171.232807 
L 135.046415 166.885715 
L 131.767076 162.273045 
L 128.487738 157.581472 
L 125.208399 153.068699 
L 121.92906 149.06423 
L 118.649721 145.964741 
L 115.370382 144.222468 
L 112.091043 144.324875 
L 108.811705 146.763587 
L 105.532366 151.990352 
L 102.253027 160.357559 
L 98.973688 172.040519 
L 95.694349 186.938461 
L 92.41501 204.550882 
L 89.135671 223.825546 
L 85.856333 242.974097 
L 82.576994 259.250893 
L 79.297655 268.690268 
L 76.018316 265.797041 
L 72.738977 243.184675 
z
" clip-path="url(#p5fa77320bb)" style="fill: #d62728; fill-opacity: 0.166667"/>
   </g>
   <g id="PolyCollection_5">
    <path d="M 72.738977 246.770943 
L 72.738977 258.226533 
L 76.018316 258.226533 
L 79.297655 258.226533 
L 82.576993 258.226533 
L 85.856332 258.226533 
L 89.135671 258.226533 
L 92.415009 258.226533 
L 95.694348 258.226533 
L 98.973686 258.226533 
L 102.253025 258.226533 
L 105.532364 258.226533 
L 108.811702 258.226533 
L 112.091041 258.226533 
L 115.37038 258.226533 
L 118.649718 258.226533 
L 121.929057 258.226533 
L 125.208396 258.226533 
L 128.487734 258.226533 
L 131.767073 258.226533 
L 135.046412 258.226533 
L 138.32575 258.226533 
L 141.605089 258.226533 
L 144.884428 258.226533 
L 148.163766 258.226533 
L 151.443105 258.226533 
L 154.722443 258.226533 
L 158.001782 258.226533 
L 161.281121 258.226533 
L 164.560459 258.226533 
L 167.839798 258.226533 
L 171.119137 258.226533 
L 174.398475 258.226533 
L 177.677814 258.226533 
L 180.957153 258.226533 
L 184.236491 258.226533 
L 187.51583 258.226533 
L 190.795169 258.226533 
L 194.074507 258.226533 
L 197.353846 258.226533 
L 200.633185 258.226533 
L 203.912523 258.226533 
L 207.191862 258.226533 
L 210.4712 258.226533 
L 213.750539 258.226533 
L 217.029878 258.226533 
L 220.309216 258.226533 
L 223.588555 258.226533 
L 226.867894 258.226533 
L 230.147232 258.226533 
L 233.426571 258.226533 
L 236.70591 258.226533 
L 239.985248 258.226533 
L 243.264587 258.226533 
L 246.543926 258.226533 
L 249.823264 258.226533 
L 253.102603 258.226533 
L 256.381942 258.226533 
L 259.66128 258.226533 
L 262.940619 258.226533 
L 266.219957 258.226533 
L 269.499296 258.226533 
L 272.778635 258.226533 
L 276.057973 258.226533 
L 279.337312 258.226533 
L 282.616651 258.226533 
L 285.895989 258.226533 
L 289.175328 258.226533 
L 292.454667 258.226533 
L 295.734005 258.226533 
L 299.013344 258.226533 
L 302.292683 258.226533 
L 305.572021 258.226533 
L 308.85136 258.226533 
L 312.130699 258.226533 
L 315.410037 258.226533 
L 318.689376 258.226533 
L 321.968714 258.226533 
L 325.248053 258.226533 
L 328.527392 258.226533 
L 331.80673 258.226533 
L 335.086069 258.226533 
L 338.365408 258.226533 
L 341.644746 258.226533 
L 344.924085 258.226533 
L 348.203424 258.226533 
L 351.482762 258.226533 
L 354.762101 258.226533 
L 358.04144 258.226533 
L 361.320778 258.226533 
L 364.600117 258.226533 
L 367.879456 258.226533 
L 371.158794 258.226533 
L 374.438133 258.226533 
L 377.717471 258.226533 
L 380.99681 258.226533 
L 384.276149 258.226533 
L 387.555487 258.226533 
L 390.834826 258.226533 
L 394.114165 258.226533 
L 397.393503 258.226533 
L 397.393503 168.133818 
L 397.393503 168.133818 
L 394.114165 224.733581 
L 390.834826 255.233027 
L 387.555487 268.001611 
L 384.276149 269.359845 
L 380.99681 263.959772 
L 377.717471 255.112302 
L 374.438133 245.0669 
L 371.158794 235.248691 
L 367.879456 226.457669 
L 364.600117 219.034361 
L 361.320778 212.995914 
L 358.04144 208.146303 
L 354.762101 204.163984 
L 351.482762 200.670079 
L 348.203424 197.279877 
L 344.924085 193.640161 
L 341.644746 189.454667 
L 338.365408 184.499687 
L 335.086069 178.631681 
L 331.80673 171.78849 
L 328.527392 163.985608 
L 325.248053 155.308744 
L 321.968714 145.903792 
L 318.689376 135.965113 
L 315.410037 125.722957 
L 312.130699 115.43066 
L 308.85136 105.352182 
L 305.572021 95.750414 
L 302.292683 86.876591 
L 299.013344 78.961068 
L 295.734005 72.205624 
L 292.454667 66.777389 
L 289.175328 62.804446 
L 285.895989 60.373077 
L 282.616651 59.526606 
L 279.337312 60.265725 
L 276.057973 62.55018 
L 272.778635 66.301661 
L 269.499296 71.407714 
L 266.219957 77.72649 
L 262.940619 85.092139 
L 259.66128 93.320638 
L 256.381942 102.215867 
L 253.102603 111.57574 
L 249.823264 121.198197 
L 246.543926 130.886901 
L 243.264587 140.45649 
L 239.985248 149.73723 
L 236.70591 258.199944 
L 233.426571 258.200937 
L 230.147232 173.32318 
L 226.867894 180.312212 
L 223.588555 186.562197 
L 220.309216 192.041739 
L 217.029878 196.742294 
L 213.750539 200.67652 
L 210.4712 203.87599 
L 207.191862 206.388334 
L 203.912523 208.273913 
L 200.633185 209.602152 
L 197.353846 210.447645 
L 194.074507 210.886195 
L 190.795169 210.990905 
L 187.51583 210.828513 
L 184.236491 210.456085 
L 180.957153 209.91825 
L 177.677814 209.245107 
L 174.398475 208.450934 
L 171.119137 207.533833 
L 167.839798 206.476397 
L 164.560459 205.247467 
L 161.281121 203.805035 
L 158.001782 202.100274 
L 154.722443 200.082661 
L 151.443105 197.706102 
L 148.163766 194.935895 
L 144.884428 191.756318 
L 141.605089 188.178547 
L 138.32575 184.248531 
L 135.046412 180.054355 
L 131.767073 175.732529 
L 128.487734 171.472536 
L 125.208396 167.518838 
L 121.929057 164.169445 
L 118.649718 161.769961 
L 115.37038 160.701947 
L 112.091041 161.364211 
L 108.811702 164.145506 
L 105.532364 169.386939 
L 102.253025 177.332179 
L 98.973686 188.063358 
L 95.694348 201.420356 
L 92.415009 216.900912 
L 89.135671 233.538763 
L 85.856332 249.756782 
L 82.576993 263.191773 
L 79.297655 270.487347 
L 76.018316 267.050965 
L 72.738977 246.770943 
z
" clip-path="url(#p5fa77320bb)" style="fill: #9467bd; fill-opacity: 0.166667"/>
   </g>
   <g id="PolyCollection_6">
    <path d="M 72.738977 270.762128 
L 72.738977 258.226533 
L 76.018316 258.226533 
L 79.297655 258.226533 
L 82.576993 258.226533 
L 85.856332 258.226533 
L 89.135671 258.226533 
L 92.415009 258.226533 
L 95.694348 258.226533 
L 98.973686 258.226533 
L 102.253025 258.226533 
L 105.532364 258.226533 
L 108.811702 258.226533 
L 112.091041 258.226533 
L 115.37038 258.226533 
L 118.649718 258.226533 
L 121.929057 258.226533 
L 125.208396 258.226533 
L 128.487734 258.226533 
L 131.767073 258.226533 
L 135.046412 258.226533 
L 138.32575 258.226533 
L 141.605089 258.226533 
L 144.884428 258.226533 
L 148.163766 258.226533 
L 151.443105 258.226533 
L 154.722443 258.226533 
L 158.001782 258.226533 
L 161.281121 258.226533 
L 164.560459 258.226533 
L 167.839798 258.226533 
L 171.119137 258.226533 
L 174.398475 258.226533 
L 177.677814 258.226533 
L 180.957153 258.226533 
L 184.236491 258.226533 
L 187.51583 258.226533 
L 190.795169 258.226533 
L 194.074507 258.226533 
L 197.353846 258.226533 
L 200.633185 258.226533 
L 203.912523 258.226533 
L 207.191862 258.226533 
L 210.4712 258.226533 
L 213.750539 258.226533 
L 217.029878 258.226533 
L 220.309216 258.226533 
L 223.588555 258.226533 
L 226.867894 258.226533 
L 230.147232 258.226533 
L 233.426571 258.226533 
L 236.70591 258.226533 
L 239.985248 258.226533 
L 243.264587 258.226533 
L 246.543926 258.226533 
L 249.823264 258.226533 
L 253.102603 258.226533 
L 256.381942 258.226533 
L 259.66128 258.226533 
L 262.940619 258.226533 
L 266.219957 258.226533 
L 269.499296 258.226533 
L 272.778635 258.226533 
L 276.057973 258.226533 
L 279.337312 258.226533 
L 282.616651 258.226533 
L 285.895989 258.226533 
L 289.175328 258.226533 
L 292.454667 258.226533 
L 295.734005 258.226533 
L 299.013344 258.226533 
L 302.292683 258.226533 
L 305.572021 258.226533 
L 308.85136 258.226533 
L 312.130699 258.226533 
L 315.410037 258.226533 
L 318.689376 258.226533 
L 321.968714 258.226533 
L 325.248053 258.226533 
L 328.527392 258.226533 
L 331.80673 258.226533 
L 335.086069 258.226533 
L 338.365408 258.226533 
L 341.644746 258.226533 
L 344.924085 258.226533 
L 348.203424 258.226533 
L 351.482762 258.226533 
L 354.762101 258.226533 
L 358.04144 258.226533 
L 361.320778 258.226533 
L 364.600117 258.226533 
L 367.879456 258.226533 
L 371.158794 258.226533 
L 374.438133 258.226533 
L 377.717471 258.226533 
L 380.99681 258.226533 
L 384.276149 258.226533 
L 387.555487 258.226533 
L 390.834826 258.226533 
L 394.114165 258.226533 
L 397.393503 258.226533 
L 397.393503 229.991596 
L 397.393503 229.991596 
L 394.114165 251.9569 
L 390.834826 262.822994 
L 387.555487 266.411911 
L 384.276149 265.611401 
L 380.99681 262.538125 
L 377.717471 258.680107 
L 374.438133 255.020338 
L 371.158794 252.143353 
L 367.879456 250.326423 
L 364.600117 249.616955 
L 361.320778 249.897529 
L 358.04144 250.93993 
L 354.762101 252.449417 
L 351.482762 254.100383 
L 348.203424 255.564469 
L 344.924085 256.532107 
L 341.644746 256.728376 
L 338.365408 255.924003 
L 335.086069 253.942239 
L 331.80673 250.662284 
L 328.527392 246.019877 
L 325.248053 240.005578 
L 321.968714 232.661246 
L 318.689376 224.075142 
L 315.410037 214.376025 
L 312.130699 203.726594 
L 308.85136 192.316546 
L 305.572021 180.355519 
L 302.292683 168.066102 
L 299.013344 155.677116 
L 295.734005 143.417287 
L 292.454667 131.509433 
L 289.175328 120.165247 
L 285.895989 109.580743 
L 282.616651 99.932395 
L 279.337312 91.374005 
L 276.057973 84.034281 
L 272.778635 78.015139 
L 269.499296 73.390682 
L 266.219957 70.206832 
L 262.940619 68.481566 
L 259.66128 68.205712 
L 256.381942 69.344229 
L 253.102603 71.837926 
L 249.823264 75.60555 
L 246.543926 80.546174 
L 243.264587 86.541814 
L 239.985248 93.460227 
L 236.70591 258.201943 
L 233.426571 258.201463 
L 230.147232 119.05345 
L 226.867894 127.993966 
L 223.588555 137.048923 
L 220.309216 146.070477 
L 217.029878 154.917381 
L 213.750539 163.4567 
L 210.4712 171.565247 
L 207.191862 179.130705 
L 203.912523 186.052475 
L 200.633185 192.24224 
L 197.353846 197.624302 
L 194.074507 202.135697 
L 190.795169 205.726142 
L 187.51583 208.357858 
L 184.236491 210.005309 
L 180.957153 210.654908 
L 177.677814 210.304748 
L 174.398475 208.9644 
L 171.119137 206.654815 
L 167.839798 203.408397 
L 164.560459 199.26925 
L 161.281121 194.293641 
L 158.001782 188.550686 
L 154.722443 182.123258 
L 151.443105 175.109086 
L 148.163766 167.622017 
L 144.884428 159.793366 
L 141.605089 151.77326 
L 138.32575 143.731862 
L 135.046412 135.860304 
L 131.767073 128.371146 
L 128.487734 121.498108 
L 125.208396 115.494809 
L 121.929057 110.63216 
L 118.649718 107.194034 
L 115.37038 105.470759 
L 112.091041 105.749923 
L 108.811702 108.303906 
L 105.532364 113.373486 
L 102.253025 121.146785 
L 98.973686 131.732727 
L 95.694348 145.128108 
L 92.415009 161.177271 
L 89.135671 179.523261 
L 85.856332 199.549279 
L 82.576993 220.309065 
L 79.297655 240.444799 
L 76.018316 258.090913 
L 72.738977 270.762128 
z
" clip-path="url(#p5fa77320bb)" style="fill: #8c564b; fill-opacity: 0.166667"/>
   </g>
   <g id="matplotlib.axis_1">
    <g id="xtick_1">
     <g id="line2d_1">
      <defs>
       <path id="mb888c84283" d="M 0 0 
L 0 3.5 
" style="stroke: #000000; stroke-width: 0.8"/>
      </defs>
      <g>
       <use xlink:href="#mb888c84283" x="72.738977" y="288.430125" style="stroke: #000000; stroke-width: 0.8"/>
      </g>
     </g>
     <g id="text_1">
      <!-- 0.0 -->
      <g transform="translate(64.787415 303.028562) scale(0.1 -0.1)">
       <defs>
        <path id="DejaVuSans-30" d="M 2034 4250 
Q 1547 4250 1301 3770 
Q 1056 3291 1056 2328 
Q 1056 1369 1301 889 
Q 1547 409 2034 409 
Q 2525 409 2770 889 
Q 3016 1369 3016 2328 
Q 3016 3291 2770 3770 
Q 2525 4250 2034 4250 
z
M 2034 4750 
Q 2819 4750 3233 4129 
Q 3647 3509 3647 2328 
Q 3647 1150 3233 529 
Q 2819 -91 2034 -91 
Q 1250 -91 836 529 
Q 422 1150 422 2328 
Q 422 3509 836 4129 
Q 1250 4750 2034 4750 
z
" transform="scale(0.015625)"/>
        <path id="DejaVuSans-2e" d="M 684 794 
L 1344 794 
L 1344 0 
L 684 0 
L 684 794 
z
" transform="scale(0.015625)"/>
       </defs>
       <use xlink:href="#DejaVuSans-30"/>
       <use xlink:href="#DejaVuSans-2e" x="63.623047"/>
       <use xlink:href="#DejaVuSans-30" x="95.410156"/>
      </g>
     </g>
    </g>
    <g id="xtick_2">
     <g id="line2d_2">
      <g>
       <use xlink:href="#mb888c84283" x="138.325754" y="288.430125" style="stroke: #000000; stroke-width: 0.8"/>
      </g>
     </g>
     <g id="text_2">
      <!-- 0.2 -->
      <g transform="translate(130.374192 303.028562) scale(0.1 -0.1)">
       <defs>
        <path id="DejaVuSans-32" d="M 1228 531 
L 3431 531 
L 3431 0 
L 469 0 
L 469 531 
Q 828 903 1448 1529 
Q 2069 2156 2228 2338 
Q 2531 2678 2651 2914 
Q 2772 3150 2772 3378 
Q 2772 3750 2511 3984 
Q 2250 4219 1831 4219 
Q 1534 4219 1204 4116 
Q 875 4013 500 3803 
L 500 4441 
Q 881 4594 1212 4672 
Q 1544 4750 1819 4750 
Q 2544 4750 2975 4387 
Q 3406 4025 3406 3419 
Q 3406 3131 3298 2873 
Q 3191 2616 2906 2266 
Q 2828 2175 2409 1742 
Q 1991 1309 1228 531 
z
" transform="scale(0.015625)"/>
       </defs>
       <use xlink:href="#DejaVuSans-30"/>
       <use xlink:href="#DejaVuSans-2e" x="63.623047"/>
       <use xlink:href="#DejaVuSans-32" x="95.410156"/>
      </g>
     </g>
    </g>
    <g id="xtick_3">
     <g id="line2d_3">
      <g>
       <use xlink:href="#mb888c84283" x="203.912531" y="288.430125" style="stroke: #000000; stroke-width: 0.8"/>
      </g>
     </g>
     <g id="text_3">
      <!-- 0.4 -->
      <g transform="translate(195.960968 303.028562) scale(0.1 -0.1)">
       <defs>
        <path id="DejaVuSans-34" d="M 2419 4116 
L 825 1625 
L 2419 1625 
L 2419 4116 
z
M 2253 4666 
L 3047 4666 
L 3047 1625 
L 3713 1625 
L 3713 1100 
L 3047 1100 
L 3047 0 
L 2419 0 
L 2419 1100 
L 313 1100 
L 313 1709 
L 2253 4666 
z
" transform="scale(0.015625)"/>
       </defs>
       <use xlink:href="#DejaVuSans-30"/>
       <use xlink:href="#DejaVuSans-2e" x="63.623047"/>
       <use xlink:href="#DejaVuSans-34" x="95.410156"/>
      </g>
     </g>
    </g>
    <g id="xtick_4">
     <g id="line2d_4">
      <g>
       <use xlink:href="#mb888c84283" x="269.499308" y="288.430125" style="stroke: #000000; stroke-width: 0.8"/>
      </g>
     </g>
     <g id="text_4">
      <!-- 0.6 -->
      <g transform="translate(261.547745 303.028562) scale(0.1 -0.1)">
       <defs>
        <path id="DejaVuSans-36" d="M 2113 2584 
Q 1688 2584 1439 2293 
Q 1191 2003 1191 1497 
Q 1191 994 1439 701 
Q 1688 409 2113 409 
Q 2538 409 2786 701 
Q 3034 994 3034 1497 
Q 3034 2003 2786 2293 
Q 2538 2584 2113 2584 
z
M 3366 4563 
L 3366 3988 
Q 3128 4100 2886 4159 
Q 2644 4219 2406 4219 
Q 1781 4219 1451 3797 
Q 1122 3375 1075 2522 
Q 1259 2794 1537 2939 
Q 1816 3084 2150 3084 
Q 2853 3084 3261 2657 
Q 3669 2231 3669 1497 
Q 3669 778 3244 343 
Q 2819 -91 2113 -91 
Q 1303 -91 875 529 
Q 447 1150 447 2328 
Q 447 3434 972 4092 
Q 1497 4750 2381 4750 
Q 2619 4750 2861 4703 
Q 3103 4656 3366 4563 
z
" transform="scale(0.015625)"/>
       </defs>
       <use xlink:href="#DejaVuSans-30"/>
       <use xlink:href="#DejaVuSans-2e" x="63.623047"/>
       <use xlink:href="#DejaVuSans-36" x="95.410156"/>
      </g>
     </g>
    </g>
    <g id="xtick_5">
     <g id="line2d_5">
      <g>
       <use xlink:href="#mb888c84283" x="335.086085" y="288.430125" style="stroke: #000000; stroke-width: 0.8"/>
      </g>
     </g>
     <g id="text_5">
      <!-- 0.8 -->
      <g transform="translate(327.134522 303.028562) scale(0.1 -0.1)">
       <defs>
        <path id="DejaVuSans-38" d="M 2034 2216 
Q 1584 2216 1326 1975 
Q 1069 1734 1069 1313 
Q 1069 891 1326 650 
Q 1584 409 2034 409 
Q 2484 409 2743 651 
Q 3003 894 3003 1313 
Q 3003 1734 2745 1975 
Q 2488 2216 2034 2216 
z
M 1403 2484 
Q 997 2584 770 2862 
Q 544 3141 544 3541 
Q 544 4100 942 4425 
Q 1341 4750 2034 4750 
Q 2731 4750 3128 4425 
Q 3525 4100 3525 3541 
Q 3525 3141 3298 2862 
Q 3072 2584 2669 2484 
Q 3125 2378 3379 2068 
Q 3634 1759 3634 1313 
Q 3634 634 3220 271 
Q 2806 -91 2034 -91 
Q 1263 -91 848 271 
Q 434 634 434 1313 
Q 434 1759 690 2068 
Q 947 2378 1403 2484 
z
M 1172 3481 
Q 1172 3119 1398 2916 
Q 1625 2713 2034 2713 
Q 2441 2713 2670 2916 
Q 2900 3119 2900 3481 
Q 2900 3844 2670 4047 
Q 2441 4250 2034 4250 
Q 1625 4250 1398 4047 
Q 1172 3844 1172 3481 
z
" transform="scale(0.015625)"/>
       </defs>
       <use xlink:href="#DejaVuSans-30"/>
       <use xlink:href="#DejaVuSans-2e" x="63.623047"/>
       <use xlink:href="#DejaVuSans-38" x="95.410156"/>
      </g>
     </g>
    </g>
    <g id="xtick_6">
     <g id="line2d_6">
      <g>
       <use xlink:href="#mb888c84283" x="400.672862" y="288.430125" style="stroke: #000000; stroke-width: 0.8"/>
      </g>
     </g>
     <g id="text_6">
      <!-- 1.0 -->
      <g transform="translate(392.721299 303.028562) scale(0.1 -0.1)">
       <defs>
        <path id="DejaVuSans-31" d="M 794 531 
L 1825 531 
L 1825 4091 
L 703 3866 
L 703 4441 
L 1819 4666 
L 2450 4666 
L 2450 531 
L 3481 531 
L 3481 0 
L 794 0 
L 794 531 
z
" transform="scale(0.015625)"/>
       </defs>
       <use xlink:href="#DejaVuSans-31"/>
       <use xlink:href="#DejaVuSans-2e" x="63.623047"/>
       <use xlink:href="#DejaVuSans-30" x="95.410156"/>
      </g>
     </g>
    </g>
    <g id="text_7">
     <!-- Pixel values -->
     <g transform="translate(205.654531 316.706687) scale(0.1 -0.1)">
      <defs>
       <path id="DejaVuSans-50" d="M 1259 4147 
L 1259 2394 
L 2053 2394 
Q 2494 2394 2734 2622 
Q 2975 2850 2975 3272 
Q 2975 3691 2734 3919 
Q 2494 4147 2053 4147 
L 1259 4147 
z
M 628 4666 
L 2053 4666 
Q 2838 4666 3239 4311 
Q 3641 3956 3641 3272 
Q 3641 2581 3239 2228 
Q 2838 1875 2053 1875 
L 1259 1875 
L 1259 0 
L 628 0 
L 628 4666 
z
" transform="scale(0.015625)"/>
       <path id="DejaVuSans-69" d="M 603 3500 
L 1178 3500 
L 1178 0 
L 603 0 
L 603 3500 
z
M 603 4863 
L 1178 4863 
L 1178 4134 
L 603 4134 
L 603 4863 
z
" transform="scale(0.015625)"/>
       <path id="DejaVuSans-78" d="M 3513 3500 
L 2247 1797 
L 3578 0 
L 2900 0 
L 1881 1375 
L 863 0 
L 184 0 
L 1544 1831 
L 300 3500 
L 978 3500 
L 1906 2253 
L 2834 3500 
L 3513 3500 
z
" transform="scale(0.015625)"/>
       <path id="DejaVuSans-65" d="M 3597 1894 
L 3597 1613 
L 953 1613 
Q 991 1019 1311 708 
Q 1631 397 2203 397 
Q 2534 397 2845 478 
Q 3156 559 3463 722 
L 3463 178 
Q 3153 47 2828 -22 
Q 2503 -91 2169 -91 
Q 1331 -91 842 396 
Q 353 884 353 1716 
Q 353 2575 817 3079 
Q 1281 3584 2069 3584 
Q 2775 3584 3186 3129 
Q 3597 2675 3597 1894 
z
M 3022 2063 
Q 3016 2534 2758 2815 
Q 2500 3097 2075 3097 
Q 1594 3097 1305 2825 
Q 1016 2553 972 2059 
L 3022 2063 
z
" transform="scale(0.015625)"/>
       <path id="DejaVuSans-6c" d="M 603 4863 
L 1178 4863 
L 1178 0 
L 603 0 
L 603 4863 
z
" transform="scale(0.015625)"/>
       <path id="DejaVuSans-20" transform="scale(0.015625)"/>
       <path id="DejaVuSans-76" d="M 191 3500 
L 800 3500 
L 1894 563 
L 2988 3500 
L 3597 3500 
L 2284 0 
L 1503 0 
L 191 3500 
z
" transform="scale(0.015625)"/>
       <path id="DejaVuSans-61" d="M 2194 1759 
Q 1497 1759 1228 1600 
Q 959 1441 959 1056 
Q 959 750 1161 570 
Q 1363 391 1709 391 
Q 2188 391 2477 730 
Q 2766 1069 2766 1631 
L 2766 1759 
L 2194 1759 
z
M 3341 1997 
L 3341 0 
L 2766 0 
L 2766 531 
Q 2569 213 2275 61 
Q 1981 -91 1556 -91 
Q 1019 -91 701 211 
Q 384 513 384 1019 
Q 384 1609 779 1909 
Q 1175 2209 1959 2209 
L 2766 2209 
L 2766 2266 
Q 2766 2663 2505 2880 
Q 2244 3097 1772 3097 
Q 1472 3097 1187 3025 
Q 903 2953 641 2809 
L 641 3341 
Q 956 3463 1253 3523 
Q 1550 3584 1831 3584 
Q 2591 3584 2966 3190 
Q 3341 2797 3341 1997 
z
" transform="scale(0.015625)"/>
       <path id="DejaVuSans-75" d="M 544 1381 
L 544 3500 
L 1119 3500 
L 1119 1403 
Q 1119 906 1312 657 
Q 1506 409 1894 409 
Q 2359 409 2629 706 
Q 2900 1003 2900 1516 
L 2900 3500 
L 3475 3500 
L 3475 0 
L 2900 0 
L 2900 538 
Q 2691 219 2414 64 
Q 2138 -91 1772 -91 
Q 1169 -91 856 284 
Q 544 659 544 1381 
z
M 1991 3584 
L 1991 3584 
z
" transform="scale(0.015625)"/>
       <path id="DejaVuSans-73" d="M 2834 3397 
L 2834 2853 
Q 2591 2978 2328 3040 
Q 2066 3103 1784 3103 
Q 1356 3103 1142 2972 
Q 928 2841 928 2578 
Q 928 2378 1081 2264 
Q 1234 2150 1697 2047 
L 1894 2003 
Q 2506 1872 2764 1633 
Q 3022 1394 3022 966 
Q 3022 478 2636 193 
Q 2250 -91 1575 -91 
Q 1294 -91 989 -36 
Q 684 19 347 128 
L 347 722 
Q 666 556 975 473 
Q 1284 391 1588 391 
Q 1994 391 2212 530 
Q 2431 669 2431 922 
Q 2431 1156 2273 1281 
Q 2116 1406 1581 1522 
L 1381 1569 
Q 847 1681 609 1914 
Q 372 2147 372 2553 
Q 372 3047 722 3315 
Q 1072 3584 1716 3584 
Q 2034 3584 2315 3537 
Q 2597 3491 2834 3397 
z
" transform="scale(0.015625)"/>
      </defs>
      <use xlink:href="#DejaVuSans-50"/>
      <use xlink:href="#DejaVuSans-69" x="58.052734"/>
      <use xlink:href="#DejaVuSans-78" x="85.835938"/>
      <use xlink:href="#DejaVuSans-65" x="141.890625"/>
      <use xlink:href="#DejaVuSans-6c" x="203.414062"/>
      <use xlink:href="#DejaVuSans-20" x="231.197266"/>
      <use xlink:href="#DejaVuSans-76" x="262.984375"/>
      <use xlink:href="#DejaVuSans-61" x="322.164062"/>
      <use xlink:href="#DejaVuSans-6c" x="383.443359"/>
      <use xlink:href="#DejaVuSans-75" x="411.226562"/>
      <use xlink:href="#DejaVuSans-65" x="474.605469"/>
      <use xlink:href="#DejaVuSans-73" x="536.128906"/>
     </g>
    </g>
   </g>
   <g id="matplotlib.axis_2">
    <g id="ytick_1">
     <g id="line2d_7">
      <defs>
       <path id="m34f0cc17ec" d="M 0 0 
L -3.5 0 
" style="stroke: #000000; stroke-width: 0.8"/>
      </defs>
      <g>
       <use xlink:href="#m34f0cc17ec" x="56.50625" y="258.226533" style="stroke: #000000; stroke-width: 0.8"/>
      </g>
     </g>
     <g id="text_8">
      <!-- 0.000 -->
      <g transform="translate(20.878125 262.025751) scale(0.1 -0.1)">
       <use xlink:href="#DejaVuSans-30"/>
       <use xlink:href="#DejaVuSans-2e" x="63.623047"/>
       <use xlink:href="#DejaVuSans-30" x="95.410156"/>
       <use xlink:href="#DejaVuSans-30" x="159.033203"/>
       <use xlink:href="#DejaVuSans-30" x="222.65625"/>
      </g>
     </g>
    </g>
    <g id="ytick_2">
     <g id="line2d_8">
      <g>
       <use xlink:href="#m34f0cc17ec" x="56.50625" y="216.670226" style="stroke: #000000; stroke-width: 0.8"/>
      </g>
     </g>
     <g id="text_9">
      <!-- 0.005 -->
      <g transform="translate(20.878125 220.469444) scale(0.1 -0.1)">
       <defs>
        <path id="DejaVuSans-35" d="M 691 4666 
L 3169 4666 
L 3169 4134 
L 1269 4134 
L 1269 2991 
Q 1406 3038 1543 3061 
Q 1681 3084 1819 3084 
Q 2600 3084 3056 2656 
Q 3513 2228 3513 1497 
Q 3513 744 3044 326 
Q 2575 -91 1722 -91 
Q 1428 -91 1123 -41 
Q 819 9 494 109 
L 494 744 
Q 775 591 1075 516 
Q 1375 441 1709 441 
Q 2250 441 2565 725 
Q 2881 1009 2881 1497 
Q 2881 1984 2565 2268 
Q 2250 2553 1709 2553 
Q 1456 2553 1204 2497 
Q 953 2441 691 2322 
L 691 4666 
z
" transform="scale(0.015625)"/>
       </defs>
       <use xlink:href="#DejaVuSans-30"/>
       <use xlink:href="#DejaVuSans-2e" x="63.623047"/>
       <use xlink:href="#DejaVuSans-30" x="95.410156"/>
       <use xlink:href="#DejaVuSans-30" x="159.033203"/>
       <use xlink:href="#DejaVuSans-35" x="222.65625"/>
      </g>
     </g>
    </g>
    <g id="ytick_3">
     <g id="line2d_9">
      <g>
       <use xlink:href="#m34f0cc17ec" x="56.50625" y="175.113919" style="stroke: #000000; stroke-width: 0.8"/>
      </g>
     </g>
     <g id="text_10">
      <!-- 0.010 -->
      <g transform="translate(20.878125 178.913138) scale(0.1 -0.1)">
       <use xlink:href="#DejaVuSans-30"/>
       <use xlink:href="#DejaVuSans-2e" x="63.623047"/>
       <use xlink:href="#DejaVuSans-30" x="95.410156"/>
       <use xlink:href="#DejaVuSans-31" x="159.033203"/>
       <use xlink:href="#DejaVuSans-30" x="222.65625"/>
      </g>
     </g>
    </g>
    <g id="ytick_4">
     <g id="line2d_10">
      <g>
       <use xlink:href="#m34f0cc17ec" x="56.50625" y="133.557612" style="stroke: #000000; stroke-width: 0.8"/>
      </g>
     </g>
     <g id="text_11">
      <!-- 0.015 -->
      <g transform="translate(20.878125 137.356831) scale(0.1 -0.1)">
       <use xlink:href="#DejaVuSans-30"/>
       <use xlink:href="#DejaVuSans-2e" x="63.623047"/>
       <use xlink:href="#DejaVuSans-30" x="95.410156"/>
       <use xlink:href="#DejaVuSans-31" x="159.033203"/>
       <use xlink:href="#DejaVuSans-35" x="222.65625"/>
      </g>
     </g>
    </g>
    <g id="ytick_5">
     <g id="line2d_11">
      <g>
       <use xlink:href="#m34f0cc17ec" x="56.50625" y="92.001305" style="stroke: #000000; stroke-width: 0.8"/>
      </g>
     </g>
     <g id="text_12">
      <!-- 0.020 -->
      <g transform="translate(20.878125 95.800524) scale(0.1 -0.1)">
       <use xlink:href="#DejaVuSans-30"/>
       <use xlink:href="#DejaVuSans-2e" x="63.623047"/>
       <use xlink:href="#DejaVuSans-30" x="95.410156"/>
       <use xlink:href="#DejaVuSans-32" x="159.033203"/>
       <use xlink:href="#DejaVuSans-30" x="222.65625"/>
      </g>
     </g>
    </g>
    <g id="ytick_6">
     <g id="line2d_12">
      <g>
       <use xlink:href="#m34f0cc17ec" x="56.50625" y="50.444998" style="stroke: #000000; stroke-width: 0.8"/>
      </g>
     </g>
     <g id="text_13">
      <!-- 0.025 -->
      <g transform="translate(20.878125 54.244217) scale(0.1 -0.1)">
       <use xlink:href="#DejaVuSans-30"/>
       <use xlink:href="#DejaVuSans-2e" x="63.623047"/>
       <use xlink:href="#DejaVuSans-30" x="95.410156"/>
       <use xlink:href="#DejaVuSans-32" x="159.033203"/>
       <use xlink:href="#DejaVuSans-35" x="222.65625"/>
      </g>
     </g>
    </g>
    <g id="text_14">
     <!-- Frequency -->
     <g transform="translate(14.798437 181.203812) rotate(-90) scale(0.1 -0.1)">
      <defs>
       <path id="DejaVuSans-46" d="M 628 4666 
L 3309 4666 
L 3309 4134 
L 1259 4134 
L 1259 2759 
L 3109 2759 
L 3109 2228 
L 1259 2228 
L 1259 0 
L 628 0 
L 628 4666 
z
" transform="scale(0.015625)"/>
       <path id="DejaVuSans-72" d="M 2631 2963 
Q 2534 3019 2420 3045 
Q 2306 3072 2169 3072 
Q 1681 3072 1420 2755 
Q 1159 2438 1159 1844 
L 1159 0 
L 581 0 
L 581 3500 
L 1159 3500 
L 1159 2956 
Q 1341 3275 1631 3429 
Q 1922 3584 2338 3584 
Q 2397 3584 2469 3576 
Q 2541 3569 2628 3553 
L 2631 2963 
z
" transform="scale(0.015625)"/>
       <path id="DejaVuSans-71" d="M 947 1747 
Q 947 1113 1208 752 
Q 1469 391 1925 391 
Q 2381 391 2643 752 
Q 2906 1113 2906 1747 
Q 2906 2381 2643 2742 
Q 2381 3103 1925 3103 
Q 1469 3103 1208 2742 
Q 947 2381 947 1747 
z
M 2906 525 
Q 2725 213 2448 61 
Q 2172 -91 1784 -91 
Q 1150 -91 751 415 
Q 353 922 353 1747 
Q 353 2572 751 3078 
Q 1150 3584 1784 3584 
Q 2172 3584 2448 3432 
Q 2725 3281 2906 2969 
L 2906 3500 
L 3481 3500 
L 3481 -1331 
L 2906 -1331 
L 2906 525 
z
" transform="scale(0.015625)"/>
       <path id="DejaVuSans-6e" d="M 3513 2113 
L 3513 0 
L 2938 0 
L 2938 2094 
Q 2938 2591 2744 2837 
Q 2550 3084 2163 3084 
Q 1697 3084 1428 2787 
Q 1159 2491 1159 1978 
L 1159 0 
L 581 0 
L 581 3500 
L 1159 3500 
L 1159 2956 
Q 1366 3272 1645 3428 
Q 1925 3584 2291 3584 
Q 2894 3584 3203 3211 
Q 3513 2838 3513 2113 
z
" transform="scale(0.015625)"/>
       <path id="DejaVuSans-63" d="M 3122 3366 
L 3122 2828 
Q 2878 2963 2633 3030 
Q 2388 3097 2138 3097 
Q 1578 3097 1268 2742 
Q 959 2388 959 1747 
Q 959 1106 1268 751 
Q 1578 397 2138 397 
Q 2388 397 2633 464 
Q 2878 531 3122 666 
L 3122 134 
Q 2881 22 2623 -34 
Q 2366 -91 2075 -91 
Q 1284 -91 818 406 
Q 353 903 353 1747 
Q 353 2603 823 3093 
Q 1294 3584 2113 3584 
Q 2378 3584 2631 3529 
Q 2884 3475 3122 3366 
z
" transform="scale(0.015625)"/>
       <path id="DejaVuSans-79" d="M 2059 -325 
Q 1816 -950 1584 -1140 
Q 1353 -1331 966 -1331 
L 506 -1331 
L 506 -850 
L 844 -850 
Q 1081 -850 1212 -737 
Q 1344 -625 1503 -206 
L 1606 56 
L 191 3500 
L 800 3500 
L 1894 763 
L 2988 3500 
L 3597 3500 
L 2059 -325 
z
" transform="scale(0.015625)"/>
      </defs>
      <use xlink:href="#DejaVuSans-46"/>
      <use xlink:href="#DejaVuSans-72" x="50.269531"/>
      <use xlink:href="#DejaVuSans-65" x="89.132812"/>
      <use xlink:href="#DejaVuSans-71" x="150.65625"/>
      <use xlink:href="#DejaVuSans-75" x="214.132812"/>
      <use xlink:href="#DejaVuSans-65" x="277.511719"/>
      <use xlink:href="#DejaVuSans-6e" x="339.035156"/>
      <use xlink:href="#DejaVuSans-63" x="402.414062"/>
      <use xlink:href="#DejaVuSans-79" x="457.394531"/>
     </g>
    </g>
   </g>
   <g id="line2d_13">
    <path d="M 72.738977 259.762667 
L 76.018316 259.517408 
L 79.297655 249.227726 
L 82.576993 232.471216 
L 85.856332 212.066706 
L 89.135671 190.192542 
L 92.415009 168.490464 
L 95.694348 148.156451 
L 98.973686 130.019795 
L 102.253025 114.611586 
L 105.532364 102.223701 
L 108.811702 92.959305 
L 112.091041 86.77579 
L 115.37038 83.52102 
L 118.649718 82.963657 
L 121.929057 84.818285 
L 125.208396 88.766004 
L 128.487734 94.471064 
L 131.767073 101.594102 
L 135.046412 109.80246 
L 138.32575 118.778015 
L 141.605089 128.222921 
L 144.884428 137.863612 
L 148.163766 147.45336 
L 151.443105 156.77368 
L 154.722443 165.634799 
L 158.001782 173.875401 
L 161.281121 181.361821 
L 164.560459 187.986845 
L 167.839798 193.668225 
L 171.119137 198.347017 
L 174.398475 201.985838 
L 177.677814 204.56708 
L 180.957153 206.091157 
L 184.236491 206.574797 
L 187.51583 206.049425 
L 190.795169 204.559633 
L 194.074507 202.161744 
L 197.353846 198.922486 
L 200.633185 194.917736 
L 203.912523 190.231359 
L 207.191862 184.954094 
L 210.4712 179.182496 
L 213.750539 173.0179 
L 217.029878 166.565399 
L 220.309216 159.932815 
L 223.588555 153.229654 
L 226.867894 146.566024 
L 230.147232 140.051519 
L 233.426571 258.20552 
L 236.70591 258.204991 
L 239.985248 123.299925 
L 243.264587 118.048999 
L 246.543926 113.413475 
L 249.823264 109.492915 
L 253.102603 106.378633 
L 256.381942 104.151554 
L 259.66128 102.880086 
L 262.940619 102.61805 
L 266.219957 103.402757 
L 269.499296 105.253277 
L 272.778635 108.168986 
L 276.057973 112.12846 
L 279.337312 117.088781 
L 282.616651 122.985322 
L 285.895989 129.73209 
L 289.175328 137.222653 
L 292.454667 145.331726 
L 295.734005 153.91742 
L 299.013344 162.824195 
L 302.292683 171.8865 
L 305.572021 180.933083 
L 308.85136 189.791917 
L 312.130699 198.295675 
L 315.410037 206.287635 
L 318.689376 213.627878 
L 321.968714 220.199588 
L 325.248053 225.915225 
L 328.527392 230.722304 
L 331.80673 234.608428 
L 335.086069 237.605209 
L 338.365408 239.790607 
L 341.644746 241.289176 
L 344.924085 242.269621 
L 348.203424 242.939 
L 351.482762 243.532798 
L 354.762101 244.300051 
L 358.04144 245.482558 
L 361.320778 247.287144 
L 364.600117 249.849823 
L 367.879456 253.19059 
L 371.158794 257.157452 
L 374.438133 261.358186 
L 377.717471 265.07816 
L 380.99681 267.182435 
L 384.276149 266.00019 
L 387.555487 259.189372 
L 390.834826 243.579305 
L 394.114165 214.988809 
L 397.393503 168.017217 
" clip-path="url(#p5fa77320bb)" style="fill: none; stroke: #1f77b4; stroke-width: 1.5; stroke-linecap: square"/>
   </g>
   <g id="line2d_14">
    <path d="M 72.738977 243.340472 
L 76.018316 266.343227 
L 79.297655 268.848434 
L 82.576994 258.313502 
L 85.856333 240.35825 
L 89.135671 219.103375 
L 92.41501 197.461568 
L 95.694349 177.386218 
L 98.973688 160.08225 
L 102.253027 146.183334 
L 105.532366 135.899342 
L 108.811705 129.137637 
L 112.091043 125.601481 
L 115.370382 124.868548 
L 118.649721 126.452295 
L 121.92906 129.848659 
L 125.208399 134.570335 
L 128.487738 140.170649 
L 131.767076 146.258842 
L 135.046415 152.508379 
L 138.325754 158.659702 
L 141.605093 164.518704 
L 144.884432 169.952001 
L 148.163771 174.879955 
L 151.44311 179.268266 
L 154.722448 183.118806 
L 158.001787 186.46027 
L 161.281126 189.339093 
L 164.560465 191.811013 
L 167.839804 193.933544 
L 171.119143 195.759562 
L 174.398481 197.33213 
L 177.67782 198.680641 
L 180.957159 199.818265 
L 184.236498 200.740709 
L 187.515837 201.426171 
L 190.795176 201.836423 
L 194.074514 201.918872 
L 197.353853 201.609451 
L 200.633192 200.836179 
L 203.912531 199.523219 
L 207.19187 197.595242 
L 210.471209 194.981931 
L 213.750548 191.622452 
L 217.029886 187.469711 
L 220.309225 182.494257 
L 223.588564 176.687684 
L 226.867903 170.0654 
L 230.147242 162.668679 
L 233.426581 258.198633 
L 236.705919 258.197637 
L 239.985258 138.136324 
L 243.264597 128.43813 
L 246.543936 118.500325 
L 249.823275 108.525126 
L 253.102614 98.733454 
L 256.381952 89.359472 
L 259.661291 80.644372 
L 262.94063 72.82956 
L 266.219969 66.149423 
L 269.499308 60.823869 
L 272.778647 57.050847 
L 276.057986 54.999084 
L 279.337324 54.801264 
L 282.616663 56.547899 
L 285.896002 60.282113 
L 289.175341 65.995598 
L 292.45468 73.625936 
L 295.734019 83.055507 
L 299.013357 94.112156 
L 302.292696 106.571752 
L 305.572035 120.162754 
L 308.851374 134.572831 
L 312.130713 149.457534 
L 315.410052 164.450936 
L 318.68939 179.178109 
L 321.968729 193.269178 
L 325.248068 206.374641 
L 328.527407 218.181485 
L 331.806746 228.429546 
L 335.086085 236.927421 
L 338.365424 243.567058 
L 341.644762 248.336061 
L 344.924101 251.326496 
L 348.20344 252.738866 
L 351.482779 252.879669 
L 354.762118 252.150781 
L 358.041457 251.028647 
L 361.320795 250.031019 
L 364.600134 249.668734 
L 367.879473 250.379733 
L 371.158812 252.442222 
L 374.438151 255.863565 
L 377.71749 260.24118 
L 380.996829 264.591335 
L 384.276167 267.141379 
L 387.555506 265.080571 
L 390.834845 254.264226 
L 394.114184 228.865504 
L 397.393523 180.968679 
" clip-path="url(#p5fa77320bb)" style="fill: none; stroke: #ff7f0e; stroke-width: 1.5; stroke-linecap: square"/>
   </g>
   <g id="line2d_15">
    <path d="M 72.738977 276.334125 
L 76.018316 254.17493 
L 79.297655 229.139652 
L 82.576994 203.522903 
L 85.856333 178.9439 
L 89.135671 156.478055 
L 92.41501 136.770112 
L 95.694349 120.130708 
L 98.973688 106.618104 
L 102.253027 96.106695 
L 105.532366 88.343797 
L 108.811705 82.996092 
L 112.091043 79.686991 
L 115.370382 78.026083 
L 118.649721 77.631737 
L 121.92906 78.147823 
L 125.208399 79.255434 
L 128.487738 80.680409 
L 131.767076 82.19737 
L 135.046415 83.630919 
L 138.325754 84.854574 
L 141.605093 85.787939 
L 144.884432 86.392568 
L 148.163771 86.666908 
L 151.44311 86.64065 
L 154.722448 86.368793 
L 158.001787 85.925642 
L 161.281126 85.39896 
L 164.560465 84.884428 
L 167.839804 84.480537 
L 171.119143 84.284015 
L 174.398481 84.38586 
L 177.67782 84.868012 
L 180.957159 85.800695 
L 184.236498 87.240419 
L 187.515837 89.228644 
L 190.795176 91.791054 
L 194.074514 94.937413 
L 197.353853 98.661953 
L 200.633192 102.944216 
L 203.912531 107.750311 
L 207.19187 113.03449 
L 210.471209 118.74099 
L 213.750548 124.806061 
L 217.029886 131.160111 
L 220.309225 137.729892 
L 223.588564 144.440679 
L 226.867903 151.218355 
L 230.147242 157.991372 
L 233.426581 258.20612 
L 236.705919 258.206553 
L 239.985258 177.708825 
L 243.264597 183.302344 
L 246.543936 188.638115 
L 249.823275 193.712673 
L 253.102614 198.530927 
L 256.381952 203.104948 
L 259.661291 207.452486 
L 262.94063 211.595286 
L 266.219969 215.557252 
L 269.499308 219.362541 
L 272.778647 223.03365 
L 276.057986 226.589586 
L 279.337324 230.044193 
L 282.616663 233.404714 
L 285.896002 236.670669 
L 289.175341 239.833124 
L 292.45468 242.874409 
L 295.734019 245.768351 
L 299.013357 248.481057 
L 302.292696 250.972273 
L 305.572035 253.197341 
L 308.851374 255.109722 
L 312.130713 256.664057 
L 315.410052 257.819692 
L 318.68939 258.544567 
L 321.968729 258.819315 
L 325.248068 258.641414 
L 328.527407 258.029128 
L 331.806746 257.024986 
L 335.086085 255.698447 
L 338.365424 254.147345 
L 341.644762 252.497676 
L 344.924101 250.901157 
L 348.20344 249.529969 
L 351.482779 248.567979 
L 354.762118 248.197647 
L 358.041457 248.581755 
L 361.320795 249.838955 
L 364.600134 252.012069 
L 367.879473 255.027915 
L 371.158812 258.647348 
L 374.438151 262.404061 
L 377.71749 265.530548 
L 380.996829 266.869507 
L 384.276167 264.768799 
L 387.555506 256.957916 
L 390.834845 240.403759 
L 394.114184 211.143349 
L 397.393523 164.090891 
" clip-path="url(#p5fa77320bb)" style="fill: none; stroke: #2ca02c; stroke-width: 1.5; stroke-linecap: square"/>
   </g>
   <g id="line2d_16">
    <path d="M 72.738977 243.184675 
L 76.018316 265.797041 
L 79.297655 268.690268 
L 82.576994 259.250893 
L 85.856333 242.974097 
L 89.135671 223.825546 
L 92.41501 204.550882 
L 95.694349 186.938461 
L 98.973688 172.040519 
L 102.253027 160.357559 
L 105.532366 151.990352 
L 108.811705 146.763587 
L 112.091043 144.324875 
L 115.370382 144.222468 
L 118.649721 145.964741 
L 121.92906 149.06423 
L 125.208399 153.068699 
L 128.487738 157.581472 
L 131.767076 162.273045 
L 135.046415 166.885715 
L 138.325754 171.232807 
L 141.605093 175.193847 
L 144.884432 178.706849 
L 148.163771 181.758743 
L 151.44311 184.374777 
L 154.722448 186.607608 
L 158.001787 188.526654 
L 161.281126 190.20817 
L 164.560465 191.726399 
L 167.839804 193.146038 
L 171.119143 194.5162 
L 174.398481 195.865958 
L 177.67782 197.201489 
L 180.957159 198.504795 
L 184.236498 199.733902 
L 187.515837 200.82444 
L 190.795176 201.692412 
L 194.074514 202.238009 
L 197.353853 202.350241 
L 200.633192 201.912185 
L 203.912531 200.806636 
L 207.19187 198.921921 
L 210.471209 196.157695 
L 213.750548 192.430476 
L 217.029886 187.678754 
L 220.309225 181.867486 
L 223.588564 174.991821 
L 226.867903 167.079929 
L 230.147242 158.19482 
L 233.426581 258.195903 
L 236.705919 258.195176 
L 239.985258 128.13183 
L 243.264597 116.613368 
L 246.543936 104.881829 
L 249.823275 93.191482 
L 253.102614 81.815709 
L 256.381952 71.039938 
L 259.661291 61.15379 
L 262.94063 52.442658 
L 266.219969 45.178907 
L 269.499308 39.61296 
L 272.778647 35.964508 
L 276.057986 34.414125 
L 279.337324 35.095562 
L 282.616663 38.088998 
L 285.896002 43.415525 
L 289.175341 51.033135 
L 292.45468 60.834455 
L 295.734019 72.646445 
L 299.013357 86.232266 
L 302.292696 101.295444 
L 305.572035 117.486446 
L 308.851374 134.411678 
L 312.130713 151.644895 
L 315.410052 168.740885 
L 318.68939 185.251212 
L 321.968729 200.741723 
L 325.248068 214.811349 
L 328.527407 227.111657 
L 331.806746 237.36644 
L 335.086085 245.390459 
L 338.365424 251.106311 
L 341.644762 254.558185 
L 344.924101 255.921079 
L 348.20344 255.503812 
L 351.482779 253.74396 
L 354.762118 251.192557 
L 358.041457 248.486166 
L 361.320795 246.303598 
L 364.600134 245.304292 
L 367.879473 246.045001 
L 371.158812 248.871116 
L 374.438151 253.778572 
L 377.71749 260.241896 
L 380.996829 267.003562 
L 384.276167 271.819365 
L 387.555506 271.154092 
L 390.834845 259.821284 
L 394.114184 230.560374 
L 397.393523 173.54399 
" clip-path="url(#p5fa77320bb)" style="fill: none; stroke: #d62728; stroke-width: 1.5; stroke-linecap: square"/>
   </g>
   <g id="line2d_17">
    <path d="M 72.738977 246.770943 
L 76.018316 267.050965 
L 79.297655 270.487347 
L 82.576993 263.191773 
L 85.856332 249.756782 
L 89.135671 233.538763 
L 92.415009 216.900912 
L 95.694348 201.420356 
L 98.973686 188.063358 
L 102.253025 177.332179 
L 105.532364 169.386939 
L 108.811702 164.145506 
L 112.091041 161.364211 
L 115.37038 160.701947 
L 118.649718 161.769961 
L 121.929057 164.169445 
L 125.208396 167.518838 
L 128.487734 171.472536 
L 131.767073 175.732529 
L 135.046412 180.054355 
L 138.32575 184.248531 
L 141.605089 188.178547 
L 144.884428 191.756318 
L 148.163766 194.935895 
L 151.443105 197.706102 
L 154.722443 200.082661 
L 158.001782 202.100274 
L 161.281121 203.805035 
L 164.560459 205.247467 
L 167.839798 206.476397 
L 171.119137 207.533833 
L 174.398475 208.450934 
L 177.677814 209.245107 
L 180.957153 209.91825 
L 184.236491 210.456085 
L 187.51583 210.828513 
L 190.795169 210.990905 
L 194.074507 210.886195 
L 197.353846 210.447645 
L 200.633185 209.602152 
L 203.912523 208.273913 
L 207.191862 206.388334 
L 210.4712 203.87599 
L 213.750539 200.67652 
L 217.029878 196.742294 
L 220.309216 192.041739 
L 223.588555 186.562197 
L 226.867894 180.312212 
L 230.147232 173.32318 
L 233.426571 258.200937 
L 236.70591 258.199944 
L 239.985248 149.73723 
L 243.264587 140.45649 
L 246.543926 130.886901 
L 249.823264 121.198197 
L 253.102603 111.57574 
L 256.381942 102.215867 
L 259.66128 93.320638 
L 262.940619 85.092139 
L 266.219957 77.72649 
L 269.499296 71.407714 
L 272.778635 66.301661 
L 276.057973 62.55018 
L 279.337312 60.265725 
L 282.616651 59.526606 
L 285.895989 60.373077 
L 289.175328 62.804446 
L 292.454667 66.777389 
L 295.734005 72.205624 
L 299.013344 78.961068 
L 302.292683 86.876591 
L 305.572021 95.750414 
L 308.85136 105.352182 
L 312.130699 115.43066 
L 315.410037 125.722957 
L 318.689376 135.965113 
L 321.968714 145.903792 
L 325.248053 155.308744 
L 328.527392 163.985608 
L 331.80673 171.78849 
L 335.086069 178.631681 
L 338.365408 184.499687 
L 341.644746 189.454667 
L 344.924085 193.640161 
L 348.203424 197.279877 
L 351.482762 200.670079 
L 354.762101 204.163984 
L 358.04144 208.146303 
L 361.320778 212.995914 
L 364.600117 219.034361 
L 367.879456 226.457669 
L 371.158794 235.248691 
L 374.438133 245.0669 
L 377.717471 255.112302 
L 380.99681 263.959772 
L 384.276149 269.359845 
L 387.555487 268.001611 
L 390.834826 255.233027 
L 394.114165 224.733581 
L 397.393503 168.133818 
" clip-path="url(#p5fa77320bb)" style="fill: none; stroke: #9467bd; stroke-width: 1.5; stroke-linecap: square"/>
   </g>
   <g id="line2d_18">
    <path d="M 72.738977 270.762128 
L 76.018316 258.090913 
L 79.297655 240.444799 
L 82.576993 220.309065 
L 85.856332 199.549279 
L 89.135671 179.523261 
L 92.415009 161.177271 
L 95.694348 145.128108 
L 98.973686 131.732727 
L 102.253025 121.146785 
L 105.532364 113.373486 
L 108.811702 108.303906 
L 112.091041 105.749923 
L 115.37038 105.470759 
L 118.649718 107.194034 
L 121.929057 110.63216 
L 125.208396 115.494809 
L 128.487734 121.498108 
L 131.767073 128.371146 
L 135.046412 135.860304 
L 138.32575 143.731862 
L 141.605089 151.77326 
L 144.884428 159.793366 
L 148.163766 167.622017 
L 151.443105 175.109086 
L 154.722443 182.123258 
L 158.001782 188.550686 
L 161.281121 194.293641 
L 164.560459 199.26925 
L 167.839798 203.408397 
L 171.119137 206.654815 
L 174.398475 208.9644 
L 177.677814 210.304748 
L 180.957153 210.654908 
L 184.236491 210.005309 
L 187.51583 208.357858 
L 190.795169 205.726142 
L 194.074507 202.135697 
L 197.353846 197.624302 
L 200.633185 192.24224 
L 203.912523 186.052475 
L 207.191862 179.130705 
L 210.4712 171.565247 
L 213.750539 163.4567 
L 217.029878 154.917381 
L 220.309216 146.070477 
L 223.588555 137.048923 
L 226.867894 127.993966 
L 230.147232 119.05345 
L 233.426571 258.201463 
L 236.70591 258.201943 
L 239.985248 93.460227 
L 243.264587 86.541814 
L 246.543926 80.546174 
L 249.823264 75.60555 
L 253.102603 71.837926 
L 256.381942 69.344229 
L 259.66128 68.205712 
L 262.940619 68.481566 
L 266.219957 70.206832 
L 269.499296 73.390682 
L 272.778635 78.015139 
L 276.057973 84.034281 
L 279.337312 91.374005 
L 282.616651 99.932395 
L 285.895989 109.580743 
L 289.175328 120.165247 
L 292.454667 131.509433 
L 295.734005 143.417287 
L 299.013344 155.677116 
L 302.292683 168.066102 
L 305.572021 180.355519 
L 308.85136 192.316546 
L 312.130699 203.726594 
L 315.410037 214.376025 
L 318.689376 224.075142 
L 321.968714 232.661246 
L 325.248053 240.005578 
L 328.527392 246.019877 
L 331.80673 250.662284 
L 335.086069 253.942239 
L 338.365408 255.924003 
L 341.644746 256.728376 
L 344.924085 256.532107 
L 348.203424 255.564469 
L 351.482762 254.100383 
L 354.762101 252.449417 
L 358.04144 250.93993 
L 361.320778 249.897529 
L 364.600117 249.616955 
L 367.879456 250.326423 
L 371.158794 252.143353 
L 374.438133 255.020338 
L 377.717471 258.680107 
L 380.99681 262.538125 
L 384.276149 265.611401 
L 387.555487 266.411911 
L 390.834826 262.822994 
L 394.114165 251.9569 
L 397.393503 229.991596 
" clip-path="url(#p5fa77320bb)" style="fill: none; stroke: #8c564b; stroke-width: 1.5; stroke-linecap: square"/>
   </g>
   <g id="patch_3">
    <path d="M 56.50625 288.430125 
L 56.50625 22.318125 
" style="fill: none; stroke: #000000; stroke-width: 0.8; stroke-linejoin: miter; stroke-linecap: square"/>
   </g>
   <g id="patch_4">
    <path d="M 413.62625 288.430125 
L 413.62625 22.318125 
" style="fill: none; stroke: #000000; stroke-width: 0.8; stroke-linejoin: miter; stroke-linecap: square"/>
   </g>
   <g id="patch_5">
    <path d="M 56.50625 288.430125 
L 413.62625 288.430125 
" style="fill: none; stroke: #000000; stroke-width: 0.8; stroke-linejoin: miter; stroke-linecap: square"/>
   </g>
   <g id="patch_6">
    <path d="M 56.50625 22.318125 
L 413.62625 22.318125 
" style="fill: none; stroke: #000000; stroke-width: 0.8; stroke-linejoin: miter; stroke-linecap: square"/>
   </g>
   <g id="text_15">
    <!-- FA - xtract_prob_Superior_Longitudinal_Fasciculus_1_L -->
    <g transform="translate(72.883438 16.318125) scale(0.12 -0.12)">
     <defs>
      <path id="DejaVuSans-41" d="M 2188 4044 
L 1331 1722 
L 3047 1722 
L 2188 4044 
z
M 1831 4666 
L 2547 4666 
L 4325 0 
L 3669 0 
L 3244 1197 
L 1141 1197 
L 716 0 
L 50 0 
L 1831 4666 
z
" transform="scale(0.015625)"/>
      <path id="DejaVuSans-2d" d="M 313 2009 
L 1997 2009 
L 1997 1497 
L 313 1497 
L 313 2009 
z
" transform="scale(0.015625)"/>
      <path id="DejaVuSans-74" d="M 1172 4494 
L 1172 3500 
L 2356 3500 
L 2356 3053 
L 1172 3053 
L 1172 1153 
Q 1172 725 1289 603 
Q 1406 481 1766 481 
L 2356 481 
L 2356 0 
L 1766 0 
Q 1100 0 847 248 
Q 594 497 594 1153 
L 594 3053 
L 172 3053 
L 172 3500 
L 594 3500 
L 594 4494 
L 1172 4494 
z
" transform="scale(0.015625)"/>
      <path id="DejaVuSans-5f" d="M 3263 -1063 
L 3263 -1509 
L -63 -1509 
L -63 -1063 
L 3263 -1063 
z
" transform="scale(0.015625)"/>
      <path id="DejaVuSans-70" d="M 1159 525 
L 1159 -1331 
L 581 -1331 
L 581 3500 
L 1159 3500 
L 1159 2969 
Q 1341 3281 1617 3432 
Q 1894 3584 2278 3584 
Q 2916 3584 3314 3078 
Q 3713 2572 3713 1747 
Q 3713 922 3314 415 
Q 2916 -91 2278 -91 
Q 1894 -91 1617 61 
Q 1341 213 1159 525 
z
M 3116 1747 
Q 3116 2381 2855 2742 
Q 2594 3103 2138 3103 
Q 1681 3103 1420 2742 
Q 1159 2381 1159 1747 
Q 1159 1113 1420 752 
Q 1681 391 2138 391 
Q 2594 391 2855 752 
Q 3116 1113 3116 1747 
z
" transform="scale(0.015625)"/>
      <path id="DejaVuSans-6f" d="M 1959 3097 
Q 1497 3097 1228 2736 
Q 959 2375 959 1747 
Q 959 1119 1226 758 
Q 1494 397 1959 397 
Q 2419 397 2687 759 
Q 2956 1122 2956 1747 
Q 2956 2369 2687 2733 
Q 2419 3097 1959 3097 
z
M 1959 3584 
Q 2709 3584 3137 3096 
Q 3566 2609 3566 1747 
Q 3566 888 3137 398 
Q 2709 -91 1959 -91 
Q 1206 -91 779 398 
Q 353 888 353 1747 
Q 353 2609 779 3096 
Q 1206 3584 1959 3584 
z
" transform="scale(0.015625)"/>
      <path id="DejaVuSans-62" d="M 3116 1747 
Q 3116 2381 2855 2742 
Q 2594 3103 2138 3103 
Q 1681 3103 1420 2742 
Q 1159 2381 1159 1747 
Q 1159 1113 1420 752 
Q 1681 391 2138 391 
Q 2594 391 2855 752 
Q 3116 1113 3116 1747 
z
M 1159 2969 
Q 1341 3281 1617 3432 
Q 1894 3584 2278 3584 
Q 2916 3584 3314 3078 
Q 3713 2572 3713 1747 
Q 3713 922 3314 415 
Q 2916 -91 2278 -91 
Q 1894 -91 1617 61 
Q 1341 213 1159 525 
L 1159 0 
L 581 0 
L 581 4863 
L 1159 4863 
L 1159 2969 
z
" transform="scale(0.015625)"/>
      <path id="DejaVuSans-53" d="M 3425 4513 
L 3425 3897 
Q 3066 4069 2747 4153 
Q 2428 4238 2131 4238 
Q 1616 4238 1336 4038 
Q 1056 3838 1056 3469 
Q 1056 3159 1242 3001 
Q 1428 2844 1947 2747 
L 2328 2669 
Q 3034 2534 3370 2195 
Q 3706 1856 3706 1288 
Q 3706 609 3251 259 
Q 2797 -91 1919 -91 
Q 1588 -91 1214 -16 
Q 841 59 441 206 
L 441 856 
Q 825 641 1194 531 
Q 1563 422 1919 422 
Q 2459 422 2753 634 
Q 3047 847 3047 1241 
Q 3047 1584 2836 1778 
Q 2625 1972 2144 2069 
L 1759 2144 
Q 1053 2284 737 2584 
Q 422 2884 422 3419 
Q 422 4038 858 4394 
Q 1294 4750 2059 4750 
Q 2388 4750 2728 4690 
Q 3069 4631 3425 4513 
z
" transform="scale(0.015625)"/>
      <path id="DejaVuSans-4c" d="M 628 4666 
L 1259 4666 
L 1259 531 
L 3531 531 
L 3531 0 
L 628 0 
L 628 4666 
z
" transform="scale(0.015625)"/>
      <path id="DejaVuSans-67" d="M 2906 1791 
Q 2906 2416 2648 2759 
Q 2391 3103 1925 3103 
Q 1463 3103 1205 2759 
Q 947 2416 947 1791 
Q 947 1169 1205 825 
Q 1463 481 1925 481 
Q 2391 481 2648 825 
Q 2906 1169 2906 1791 
z
M 3481 434 
Q 3481 -459 3084 -895 
Q 2688 -1331 1869 -1331 
Q 1566 -1331 1297 -1286 
Q 1028 -1241 775 -1147 
L 775 -588 
Q 1028 -725 1275 -790 
Q 1522 -856 1778 -856 
Q 2344 -856 2625 -561 
Q 2906 -266 2906 331 
L 2906 616 
Q 2728 306 2450 153 
Q 2172 0 1784 0 
Q 1141 0 747 490 
Q 353 981 353 1791 
Q 353 2603 747 3093 
Q 1141 3584 1784 3584 
Q 2172 3584 2450 3431 
Q 2728 3278 2906 2969 
L 2906 3500 
L 3481 3500 
L 3481 434 
z
" transform="scale(0.015625)"/>
      <path id="DejaVuSans-64" d="M 2906 2969 
L 2906 4863 
L 3481 4863 
L 3481 0 
L 2906 0 
L 2906 525 
Q 2725 213 2448 61 
Q 2172 -91 1784 -91 
Q 1150 -91 751 415 
Q 353 922 353 1747 
Q 353 2572 751 3078 
Q 1150 3584 1784 3584 
Q 2172 3584 2448 3432 
Q 2725 3281 2906 2969 
z
M 947 1747 
Q 947 1113 1208 752 
Q 1469 391 1925 391 
Q 2381 391 2643 752 
Q 2906 1113 2906 1747 
Q 2906 2381 2643 2742 
Q 2381 3103 1925 3103 
Q 1469 3103 1208 2742 
Q 947 2381 947 1747 
z
" transform="scale(0.015625)"/>
     </defs>
     <use xlink:href="#DejaVuSans-46"/>
     <use xlink:href="#DejaVuSans-41" x="48.394531"/>
     <use xlink:href="#DejaVuSans-20" x="116.802734"/>
     <use xlink:href="#DejaVuSans-2d" x="148.589844"/>
     <use xlink:href="#DejaVuSans-20" x="184.673828"/>
     <use xlink:href="#DejaVuSans-78" x="216.460938"/>
     <use xlink:href="#DejaVuSans-74" x="275.640625"/>
     <use xlink:href="#DejaVuSans-72" x="314.849609"/>
     <use xlink:href="#DejaVuSans-61" x="355.962891"/>
     <use xlink:href="#DejaVuSans-63" x="417.242188"/>
     <use xlink:href="#DejaVuSans-74" x="472.222656"/>
     <use xlink:href="#DejaVuSans-5f" x="511.431641"/>
     <use xlink:href="#DejaVuSans-70" x="561.431641"/>
     <use xlink:href="#DejaVuSans-72" x="624.908203"/>
     <use xlink:href="#DejaVuSans-6f" x="663.771484"/>
     <use xlink:href="#DejaVuSans-62" x="724.953125"/>
     <use xlink:href="#DejaVuSans-5f" x="788.429688"/>
     <use xlink:href="#DejaVuSans-53" x="838.429688"/>
     <use xlink:href="#DejaVuSans-75" x="901.90625"/>
     <use xlink:href="#DejaVuSans-70" x="965.285156"/>
     <use xlink:href="#DejaVuSans-65" x="1028.761719"/>
     <use xlink:href="#DejaVuSans-72" x="1090.285156"/>
     <use xlink:href="#DejaVuSans-69" x="1131.398438"/>
     <use xlink:href="#DejaVuSans-6f" x="1159.181641"/>
     <use xlink:href="#DejaVuSans-72" x="1220.363281"/>
     <use xlink:href="#DejaVuSans-5f" x="1261.476562"/>
     <use xlink:href="#DejaVuSans-4c" x="1311.476562"/>
     <use xlink:href="#DejaVuSans-6f" x="1365.439453"/>
     <use xlink:href="#DejaVuSans-6e" x="1426.621094"/>
     <use xlink:href="#DejaVuSans-67" x="1490"/>
     <use xlink:href="#DejaVuSans-69" x="1553.476562"/>
     <use xlink:href="#DejaVuSans-74" x="1581.259766"/>
     <use xlink:href="#DejaVuSans-75" x="1620.46875"/>
     <use xlink:href="#DejaVuSans-64" x="1683.847656"/>
     <use xlink:href="#DejaVuSans-69" x="1747.324219"/>
     <use xlink:href="#DejaVuSans-6e" x="1775.107422"/>
     <use xlink:href="#DejaVuSans-61" x="1838.486328"/>
     <use xlink:href="#DejaVuSans-6c" x="1899.765625"/>
     <use xlink:href="#DejaVuSans-5f" x="1927.548828"/>
     <use xlink:href="#DejaVuSans-46" x="1977.548828"/>
     <use xlink:href="#DejaVuSans-61" x="2025.943359"/>
     <use xlink:href="#DejaVuSans-73" x="2087.222656"/>
     <use xlink:href="#DejaVuSans-63" x="2139.322266"/>
     <use xlink:href="#DejaVuSans-69" x="2194.302734"/>
     <use xlink:href="#DejaVuSans-63" x="2222.085938"/>
     <use xlink:href="#DejaVuSans-75" x="2277.066406"/>
     <use xlink:href="#DejaVuSans-6c" x="2340.445312"/>
     <use xlink:href="#DejaVuSans-75" x="2368.228516"/>
     <use xlink:href="#DejaVuSans-73" x="2431.607422"/>
     <use xlink:href="#DejaVuSans-5f" x="2483.707031"/>
     <use xlink:href="#DejaVuSans-31" x="2533.707031"/>
     <use xlink:href="#DejaVuSans-5f" x="2597.330078"/>
     <use xlink:href="#DejaVuSans-4c" x="2647.330078"/>
    </g>
   </g>
   <g id="legend_1">
    <g id="patch_7">
     <path d="M 456.33825 146.666825 
L 554.1945 146.666825 
Q 556.1945 146.666825 556.1945 144.666825 
L 556.1945 55.929325 
Q 556.1945 53.929325 554.1945 53.929325 
L 456.33825 53.929325 
Q 454.33825 53.929325 454.33825 55.929325 
L 454.33825 144.666825 
Q 454.33825 146.666825 456.33825 146.666825 
z
" style="fill: #ffffff; opacity: 0.8; stroke: #cccccc; stroke-linejoin: miter"/>
    </g>
    <g id="line2d_19">
     <path d="M 458.33825 62.027762 
L 468.33825 62.027762 
L 478.33825 62.027762 
" style="fill: none; stroke: #1f77b4; stroke-width: 1.5; stroke-linecap: square"/>
    </g>
    <g id="text_16">
     <!-- 20_06_02_E3 -->
     <g transform="translate(486.33825 65.527762) scale(0.1 -0.1)">
      <defs>
       <path id="DejaVuSans-45" d="M 628 4666 
L 3578 4666 
L 3578 4134 
L 1259 4134 
L 1259 2753 
L 3481 2753 
L 3481 2222 
L 1259 2222 
L 1259 531 
L 3634 531 
L 3634 0 
L 628 0 
L 628 4666 
z
" transform="scale(0.015625)"/>
       <path id="DejaVuSans-33" d="M 2597 2516 
Q 3050 2419 3304 2112 
Q 3559 1806 3559 1356 
Q 3559 666 3084 287 
Q 2609 -91 1734 -91 
Q 1441 -91 1130 -33 
Q 819 25 488 141 
L 488 750 
Q 750 597 1062 519 
Q 1375 441 1716 441 
Q 2309 441 2620 675 
Q 2931 909 2931 1356 
Q 2931 1769 2642 2001 
Q 2353 2234 1838 2234 
L 1294 2234 
L 1294 2753 
L 1863 2753 
Q 2328 2753 2575 2939 
Q 2822 3125 2822 3475 
Q 2822 3834 2567 4026 
Q 2313 4219 1838 4219 
Q 1578 4219 1281 4162 
Q 984 4106 628 3988 
L 628 4550 
Q 988 4650 1302 4700 
Q 1616 4750 1894 4750 
Q 2613 4750 3031 4423 
Q 3450 4097 3450 3541 
Q 3450 3153 3228 2886 
Q 3006 2619 2597 2516 
z
" transform="scale(0.015625)"/>
      </defs>
      <use xlink:href="#DejaVuSans-32"/>
      <use xlink:href="#DejaVuSans-30" x="63.623047"/>
      <use xlink:href="#DejaVuSans-5f" x="127.246094"/>
      <use xlink:href="#DejaVuSans-30" x="177.246094"/>
      <use xlink:href="#DejaVuSans-36" x="240.869141"/>
      <use xlink:href="#DejaVuSans-5f" x="304.492188"/>
      <use xlink:href="#DejaVuSans-30" x="354.492188"/>
      <use xlink:href="#DejaVuSans-32" x="418.115234"/>
      <use xlink:href="#DejaVuSans-5f" x="481.738281"/>
      <use xlink:href="#DejaVuSans-45" x="531.738281"/>
      <use xlink:href="#DejaVuSans-33" x="594.921875"/>
     </g>
    </g>
    <g id="line2d_20">
     <path d="M 458.33825 76.984013 
L 468.33825 76.984013 
L 478.33825 76.984013 
" style="fill: none; stroke: #ff7f0e; stroke-width: 1.5; stroke-linecap: square"/>
    </g>
    <g id="text_17">
     <!-- 20_05_01_E3 -->
     <g transform="translate(486.33825 80.484013) scale(0.1 -0.1)">
      <use xlink:href="#DejaVuSans-32"/>
      <use xlink:href="#DejaVuSans-30" x="63.623047"/>
      <use xlink:href="#DejaVuSans-5f" x="127.246094"/>
      <use xlink:href="#DejaVuSans-30" x="177.246094"/>
      <use xlink:href="#DejaVuSans-35" x="240.869141"/>
      <use xlink:href="#DejaVuSans-5f" x="304.492188"/>
      <use xlink:href="#DejaVuSans-30" x="354.492188"/>
      <use xlink:href="#DejaVuSans-31" x="418.115234"/>
      <use xlink:href="#DejaVuSans-5f" x="481.738281"/>
      <use xlink:href="#DejaVuSans-45" x="531.738281"/>
      <use xlink:href="#DejaVuSans-33" x="594.921875"/>
     </g>
    </g>
    <g id="line2d_21">
     <path d="M 458.33825 91.940262 
L 468.33825 91.940262 
L 478.33825 91.940262 
" style="fill: none; stroke: #2ca02c; stroke-width: 1.5; stroke-linecap: square"/>
    </g>
    <g id="text_18">
     <!-- 20_02_02_E3 -->
     <g transform="translate(486.33825 95.440262) scale(0.1 -0.1)">
      <use xlink:href="#DejaVuSans-32"/>
      <use xlink:href="#DejaVuSans-30" x="63.623047"/>
      <use xlink:href="#DejaVuSans-5f" x="127.246094"/>
      <use xlink:href="#DejaVuSans-30" x="177.246094"/>
      <use xlink:href="#DejaVuSans-32" x="240.869141"/>
      <use xlink:href="#DejaVuSans-5f" x="304.492188"/>
      <use xlink:href="#DejaVuSans-30" x="354.492188"/>
      <use xlink:href="#DejaVuSans-32" x="418.115234"/>
      <use xlink:href="#DejaVuSans-5f" x="481.738281"/>
      <use xlink:href="#DejaVuSans-45" x="531.738281"/>
      <use xlink:href="#DejaVuSans-33" x="594.921875"/>
     </g>
    </g>
    <g id="line2d_22">
     <path d="M 458.33825 106.896513 
L 468.33825 106.896513 
L 478.33825 106.896513 
" style="fill: none; stroke: #d62728; stroke-width: 1.5; stroke-linecap: square"/>
    </g>
    <g id="text_19">
     <!-- 20_10_02_E3 -->
     <g transform="translate(486.33825 110.396513) scale(0.1 -0.1)">
      <use xlink:href="#DejaVuSans-32"/>
      <use xlink:href="#DejaVuSans-30" x="63.623047"/>
      <use xlink:href="#DejaVuSans-5f" x="127.246094"/>
      <use xlink:href="#DejaVuSans-31" x="177.246094"/>
      <use xlink:href="#DejaVuSans-30" x="240.869141"/>
      <use xlink:href="#DejaVuSans-5f" x="304.492188"/>
      <use xlink:href="#DejaVuSans-30" x="354.492188"/>
      <use xlink:href="#DejaVuSans-32" x="418.115234"/>
      <use xlink:href="#DejaVuSans-5f" x="481.738281"/>
      <use xlink:href="#DejaVuSans-45" x="531.738281"/>
      <use xlink:href="#DejaVuSans-33" x="594.921875"/>
     </g>
    </g>
    <g id="line2d_23">
     <path d="M 458.33825 121.852762 
L 468.33825 121.852762 
L 478.33825 121.852762 
" style="fill: none; stroke: #9467bd; stroke-width: 1.5; stroke-linecap: square"/>
    </g>
    <g id="text_20">
     <!-- 20_08_02_E3 -->
     <g transform="translate(486.33825 125.352762) scale(0.1 -0.1)">
      <use xlink:href="#DejaVuSans-32"/>
      <use xlink:href="#DejaVuSans-30" x="63.623047"/>
      <use xlink:href="#DejaVuSans-5f" x="127.246094"/>
      <use xlink:href="#DejaVuSans-30" x="177.246094"/>
      <use xlink:href="#DejaVuSans-38" x="240.869141"/>
      <use xlink:href="#DejaVuSans-5f" x="304.492188"/>
      <use xlink:href="#DejaVuSans-30" x="354.492188"/>
      <use xlink:href="#DejaVuSans-32" x="418.115234"/>
      <use xlink:href="#DejaVuSans-5f" x="481.738281"/>
      <use xlink:href="#DejaVuSans-45" x="531.738281"/>
      <use xlink:href="#DejaVuSans-33" x="594.921875"/>
     </g>
    </g>
    <g id="line2d_24">
     <path d="M 458.33825 136.809012 
L 468.33825 136.809012 
L 478.33825 136.809012 
" style="fill: none; stroke: #8c564b; stroke-width: 1.5; stroke-linecap: square"/>
    </g>
    <g id="text_21">
     <!-- 20_11_02_E3 -->
     <g transform="translate(486.33825 140.309012) scale(0.1 -0.1)">
      <use xlink:href="#DejaVuSans-32"/>
      <use xlink:href="#DejaVuSans-30" x="63.623047"/>
      <use xlink:href="#DejaVuSans-5f" x="127.246094"/>
      <use xlink:href="#DejaVuSans-31" x="177.246094"/>
      <use xlink:href="#DejaVuSans-31" x="240.869141"/>
      <use xlink:href="#DejaVuSans-5f" x="304.492188"/>
      <use xlink:href="#DejaVuSans-30" x="354.492188"/>
      <use xlink:href="#DejaVuSans-32" x="418.115234"/>
      <use xlink:href="#DejaVuSans-5f" x="481.738281"/>
      <use xlink:href="#DejaVuSans-45" x="531.738281"/>
      <use xlink:href="#DejaVuSans-33" x="594.921875"/>
     </g>
    </g>
   </g>
  </g>
 </g>
 <defs>
  <clipPath id="p5fa77320bb">
   <rect x="56.50625" y="22.318125" width="357.12" height="266.112"/>
  </clipPath>
 </defs>
</svg>
