<?xml version="1.0" encoding="utf-8" standalone="no"?>
<!DOCTYPE svg PUBLIC "-//W3C//DTD SVG 1.1//EN"
  "http://www.w3.org/Graphics/SVG/1.1/DTD/svg11.dtd">
<svg xmlns:xlink="http://www.w3.org/1999/xlink" width="565.411687pt" height="325.986375pt" viewBox="0 0 565.411687 325.986375" xmlns="http://www.w3.org/2000/svg" version="1.1">
 <metadata>
  <rdf:RDF xmlns:dc="http://purl.org/dc/elements/1.1/" xmlns:cc="http://creativecommons.org/ns#" xmlns:rdf="http://www.w3.org/1999/02/22-rdf-syntax-ns#">
   <cc:Work>
    <dc:type rdf:resource="http://purl.org/dc/dcmitype/StillImage"/>
    <dc:date>2023-02-07T23:00:09.051449</dc:date>
    <dc:format>image/svg+xml</dc:format>
    <dc:creator>
     <cc:Agent>
      <dc:title>Matplotlib v3.6.2, https://matplotlib.org/</dc:title>
     </cc:Agent>
    </dc:creator>
   </cc:Work>
  </rdf:RDF>
 </metadata>
 <defs>
  <style type="text/css">*{stroke-linejoin: round; stroke-linecap: butt}</style>
 </defs>
 <g id="figure_1">
  <g id="patch_1">
   <path d="M 0 325.986375 
L 565.411687 325.986375 
L 565.411687 0 
L 0 0 
z
" style="fill: #ffffff"/>
  </g>
  <g id="axes_1">
   <g id="patch_2">
    <path d="M 58.523438 288.430125 
L 415.643438 288.430125 
L 415.643438 22.318125 
L 58.523438 22.318125 
z
" style="fill: #ffffff"/>
   </g>
   <g id="PolyCollection_1">
    <path d="M 74.756165 151.729904 
L 74.756165 238.606885 
L 76.488443 238.606885 
L 78.220721 238.606885 
L 79.952998 238.606885 
L 81.685276 238.606885 
L 83.417554 238.606885 
L 85.149832 238.606885 
L 86.88211 238.606885 
L 88.614388 238.606885 
L 90.346666 238.606885 
L 92.078944 238.606885 
L 93.811222 238.606885 
L 95.543499 238.606885 
L 97.275777 238.606885 
L 99.008055 238.606885 
L 100.740333 238.606885 
L 102.472611 238.606885 
L 104.204889 238.606885 
L 105.937167 238.606885 
L 107.669445 238.606885 
L 109.401723 238.606885 
L 111.134 238.606885 
L 112.866278 238.606885 
L 114.598556 238.606885 
L 116.330834 238.606885 
L 118.063112 238.606885 
L 119.79539 238.606885 
L 121.527668 238.606885 
L 123.259946 238.606885 
L 124.992224 238.606885 
L 126.724501 238.606885 
L 128.456779 238.606885 
L 130.189057 238.606885 
L 131.921335 238.606885 
L 133.653613 238.606885 
L 135.385891 238.606885 
L 137.118169 238.606885 
L 138.850447 238.606885 
L 140.582724 238.606885 
L 142.315002 238.606885 
L 144.04728 238.606885 
L 145.779558 238.606885 
L 147.511836 238.606885 
L 149.244114 238.606885 
L 150.976392 238.606885 
L 152.70867 238.606885 
L 154.440948 238.606885 
L 156.173225 238.606885 
L 157.905503 238.606885 
L 159.637781 238.606885 
L 161.370059 238.606885 
L 163.102337 238.606885 
L 164.834615 238.606885 
L 166.566893 238.606885 
L 168.299171 238.606885 
L 170.031449 238.606885 
L 171.763726 238.606885 
L 173.496004 238.606885 
L 175.228282 238.606885 
L 176.96056 238.606885 
L 178.692838 238.606885 
L 180.425116 238.606885 
L 182.157394 238.606885 
L 183.889672 238.606885 
L 185.62195 238.606885 
L 187.354227 238.606885 
L 189.086505 238.606885 
L 190.818783 238.606885 
L 192.551061 238.606885 
L 194.283339 238.606885 
L 196.015617 238.606885 
L 197.747895 238.606885 
L 199.480173 238.606885 
L 201.212451 238.606885 
L 202.944728 238.606885 
L 204.677006 238.606885 
L 206.409284 238.606885 
L 208.141562 238.606885 
L 209.87384 238.606885 
L 211.606118 238.606885 
L 213.338396 238.606885 
L 215.070674 238.606885 
L 216.802952 238.606885 
L 218.535229 238.606885 
L 220.267507 238.606885 
L 221.999785 238.606885 
L 223.732063 238.606885 
L 225.464341 238.606885 
L 227.196619 238.606885 
L 228.928897 238.606885 
L 230.661175 238.606885 
L 232.393453 238.606885 
L 234.12573 238.606885 
L 235.858008 238.606885 
L 237.590286 238.606885 
L 239.322564 238.606885 
L 241.054842 238.606885 
L 242.78712 238.606885 
L 244.519398 238.606885 
L 246.251676 238.606885 
L 246.251676 238.212861 
L 246.251676 238.212861 
L 244.519398 238.967966 
L 242.78712 238.889873 
L 241.054842 238.359761 
L 239.322564 237.632129 
L 237.590286 236.866213 
L 235.858008 236.151627 
L 234.12573 235.529024 
L 232.393453 235.006437 
L 230.661175 234.571955 
L 228.928897 234.203288 
L 227.196619 233.874728 
L 225.464341 233.561966 
L 223.732063 233.245161 
L 221.999785 232.910626 
L 220.267507 232.551424 
L 218.535229 232.16717 
L 216.802952 231.763244 
L 215.070674 231.34963 
L 213.338396 230.939534 
L 211.606118 230.547933 
L 209.87384 230.190137 
L 208.141562 229.880481 
L 206.409284 229.631179 
L 204.677006 229.451409 
L 202.944728 229.346641 
L 201.212451 229.318224 
L 199.480173 229.363235 
L 197.747895 229.474572 
L 196.015617 229.641278 
L 194.283339 229.849062 
L 192.551061 230.080987 
L 190.818783 230.31829 
L 189.086505 230.541288 
L 187.354227 230.730336 
L 185.62195 230.866789 
L 183.889672 230.933934 
L 182.157394 230.917851 
L 180.425116 230.808171 
L 178.692838 230.598687 
L 176.96056 230.287817 
L 175.228282 229.878869 
L 173.496004 229.380107 
L 171.763726 228.804613 
L 170.031449 228.16992 
L 168.299171 227.497444 
L 166.566893 226.811707 
L 164.834615 226.139366 
L 163.102337 225.508083 
L 161.370059 238.605199 
L 159.637781 238.605518 
L 157.905503 223.849639 
L 156.173225 223.744151 
L 154.440948 223.796472 
L 152.70867 224.005583 
L 150.976392 224.361419 
L 149.244114 224.844069 
L 147.511836 225.423223 
L 145.779558 226.057924 
L 144.04728 226.696664 
L 142.315002 227.277861 
L 140.582724 227.73075 
L 138.850447 227.976716 
L 137.118169 227.931094 
L 135.385891 227.505428 
L 133.653613 226.610213 
L 131.921335 225.158075 
L 130.189057 223.067389 
L 128.456779 220.266271 
L 126.724501 216.696884 
L 124.992224 212.319976 
L 123.259946 207.119548 
L 121.527668 201.107509 
L 119.79539 194.328175 
L 118.063112 186.862411 
L 116.330834 178.831214 
L 114.598556 170.398469 
L 112.866278 161.7726 
L 111.134 153.206791 
L 109.401723 144.997395 
L 107.669445 137.480132 
L 105.937167 131.023607 
L 104.204889 126.019639 
L 102.472611 122.869832 
L 100.740333 121.967779 
L 99.008055 123.676204 
L 97.275777 128.298303 
L 95.543499 136.042479 
L 93.811222 146.979585 
L 92.078944 160.991727 
L 90.346666 177.711591 
L 88.614388 196.451184 
L 86.88211 216.11881 
L 85.149832 235.12297 
L 83.417554 251.261836 
L 81.685276 261.596819 
L 79.952998 262.308659 
L 78.220721 248.53436 
L 76.488443 214.183201 
L 74.756165 151.729904 
z
" clip-path="url(#pf529c74c1b)" style="fill: #1f77b4; fill-opacity: 0.166667"/>
   </g>
   <g id="PolyCollection_2">
    <path d="M 74.756165 153.748265 
L 74.756165 238.606885 
L 76.674052 238.606885 
L 78.591939 238.606885 
L 80.509826 238.606885 
L 82.427713 238.606885 
L 84.3456 238.606885 
L 86.263487 238.606885 
L 88.181374 238.606885 
L 90.099261 238.606885 
L 92.017148 238.606885 
L 93.935035 238.606885 
L 95.852922 238.606885 
L 97.770809 238.606885 
L 99.688696 238.606885 
L 101.606583 238.606885 
L 103.52447 238.606885 
L 105.442357 238.606885 
L 107.360244 238.606885 
L 109.278131 238.606885 
L 111.196018 238.606885 
L 113.113905 238.606885 
L 115.031792 238.606885 
L 116.949679 238.606885 
L 118.867566 238.606885 
L 120.785453 238.606885 
L 122.70334 238.606885 
L 124.621227 238.606885 
L 126.539114 238.606885 
L 128.457001 238.606885 
L 130.374888 238.606885 
L 132.292775 238.606885 
L 134.210662 238.606885 
L 136.128549 238.606885 
L 138.046436 238.606885 
L 139.964323 238.606885 
L 141.882211 238.606885 
L 143.800098 238.606885 
L 145.717985 238.606885 
L 147.635872 238.606885 
L 149.553759 238.606885 
L 151.471646 238.606885 
L 153.389533 238.606885 
L 155.30742 238.606885 
L 157.225307 238.606885 
L 159.143194 238.606885 
L 161.061081 238.606885 
L 162.978968 238.606885 
L 164.896855 238.606885 
L 166.814742 238.606885 
L 168.732629 238.606885 
L 170.650516 238.606885 
L 172.568403 238.606885 
L 174.48629 238.606885 
L 176.404177 238.606885 
L 178.322064 238.606885 
L 180.239951 238.606885 
L 182.157838 238.606885 
L 184.075725 238.606885 
L 185.993612 238.606885 
L 187.911499 238.606885 
L 189.829386 238.606885 
L 191.747273 238.606885 
L 193.66516 238.606885 
L 195.583047 238.606885 
L 197.500934 238.606885 
L 199.418821 238.606885 
L 201.336708 238.606885 
L 203.254595 238.606885 
L 205.172482 238.606885 
L 207.090369 238.606885 
L 209.008256 238.606885 
L 210.926143 238.606885 
L 212.84403 238.606885 
L 214.761917 238.606885 
L 216.679804 238.606885 
L 218.597691 238.606885 
L 220.515578 238.606885 
L 222.433465 238.606885 
L 224.351352 238.606885 
L 226.269239 238.606885 
L 228.187126 238.606885 
L 230.105013 238.606885 
L 232.0229 238.606885 
L 233.940788 238.606885 
L 235.858675 238.606885 
L 237.776562 238.606885 
L 239.694449 238.606885 
L 241.612336 238.606885 
L 243.530223 238.606885 
L 245.44811 238.606885 
L 247.365997 238.606885 
L 249.283884 238.606885 
L 251.201771 238.606885 
L 253.119658 238.606885 
L 255.037545 238.606885 
L 256.955432 238.606885 
L 258.873319 238.606885 
L 260.791206 238.606885 
L 262.709093 238.606885 
L 264.62698 238.606885 
L 264.62698 227.383051 
L 264.62698 227.383051 
L 262.709093 241.507201 
L 260.791206 246.724329 
L 258.873319 246.643244 
L 256.955432 243.835739 
L 255.037545 240.0563 
L 253.119658 236.427199 
L 251.201771 233.592936 
L 249.283884 231.847735 
L 247.365997 231.239428 
L 245.44811 231.652838 
L 243.530223 232.875446 
L 241.612336 234.647888 
L 239.694449 236.701593 
L 237.776562 238.785624 
L 235.858675 240.684583 
L 233.940788 242.229226 
L 232.0229 243.301258 
L 230.105013 243.833589 
L 228.187126 243.807181 
L 226.269239 243.245441 
L 224.351352 242.207016 
L 222.433465 240.777653 
L 220.515578 239.061747 
L 218.597691 237.174012 
L 216.679804 235.23168 
L 214.761917 233.347494 
L 212.84403 231.62371 
L 210.926143 230.147251 
L 209.008256 228.986068 
L 207.090369 228.186755 
L 205.172482 227.773358 
L 203.254595 227.747354 
L 201.336708 228.088659 
L 199.418821 228.757576 
L 197.500934 229.697521 
L 195.583047 230.838375 
L 193.66516 232.100296 
L 191.747273 233.397823 
L 189.829386 234.644098 
L 187.911499 235.755047 
L 185.993612 236.65336 
L 184.075725 237.272135 
L 182.157838 237.558036 
L 180.239951 237.473886 
L 178.322064 237.000567 
L 176.404177 236.138185 
L 174.48629 234.906439 
L 172.568403 233.344166 
L 170.650516 238.60315 
L 168.732629 238.603992 
L 166.814742 227.075884 
L 164.896855 225.313759 
L 162.978968 223.631587 
L 161.061081 222.111973 
L 159.143194 220.833817 
L 157.225307 219.868046 
L 155.30742 219.273333 
L 153.389533 219.091957 
L 151.471646 219.345973 
L 149.553759 220.03384 
L 147.635872 221.127698 
L 145.717985 222.571442 
L 143.800098 224.279761 
L 141.882211 226.138273 
L 139.964323 228.004909 
L 138.046436 229.712633 
L 136.128549 231.073584 
L 134.210662 231.884694 
L 132.292775 231.934783 
L 130.374888 231.013084 
L 128.457001 228.919129 
L 126.539114 225.473813 
L 124.621227 220.531441 
L 122.70334 213.992438 
L 120.785453 205.816361 
L 118.867566 196.034717 
L 116.949679 184.76302 
L 115.031792 172.211401 
L 113.113905 158.692936 
L 111.196018 144.628784 
L 109.278131 130.549013 
L 107.360244 117.087902 
L 105.442357 104.972299 
L 103.52447 95.001468 
L 101.606583 88.01665 
L 99.688696 84.858383 
L 97.770809 86.309392 
L 95.852922 93.020653 
L 93.935035 105.417998 
L 92.017148 123.58635 
L 90.099261 147.128456 
L 88.181374 174.994654 
L 86.263487 205.279969 
L 84.3456 234.984478 
L 82.427713 259.732588 
L 80.509826 273.446525 
L 78.591939 267.968963 
L 76.674052 232.629374 
L 74.756165 153.748265 
z
" clip-path="url(#pf529c74c1b)" style="fill: #ff7f0e; fill-opacity: 0.166667"/>
   </g>
   <g id="PolyCollection_3">
    <path d="M 74.756165 159.442128 
L 74.756165 238.606885 
L 76.845066 238.606885 
L 78.933966 238.606885 
L 81.022867 238.606885 
L 83.111768 238.606885 
L 85.200669 238.606885 
L 87.28957 238.606885 
L 89.37847 238.606885 
L 91.467371 238.606885 
L 93.556272 238.606885 
L 95.645173 238.606885 
L 97.734074 238.606885 
L 99.822974 238.606885 
L 101.911875 238.606885 
L 104.000776 238.606885 
L 106.089677 238.606885 
L 108.178578 238.606885 
L 110.267478 238.606885 
L 112.356379 238.606885 
L 114.44528 238.606885 
L 116.534181 238.606885 
L 118.623082 238.606885 
L 120.711982 238.606885 
L 122.800883 238.606885 
L 124.889784 238.606885 
L 126.978685 238.606885 
L 129.067585 238.606885 
L 131.156486 238.606885 
L 133.245387 238.606885 
L 135.334288 238.606885 
L 137.423189 238.606885 
L 139.512089 238.606885 
L 141.60099 238.606885 
L 143.689891 238.606885 
L 145.778792 238.606885 
L 147.867693 238.606885 
L 149.956593 238.606885 
L 152.045494 238.606885 
L 154.134395 238.606885 
L 156.223296 238.606885 
L 158.312197 238.606885 
L 160.401097 238.606885 
L 162.489998 238.606885 
L 164.578899 238.606885 
L 166.6678 238.606885 
L 168.756701 238.606885 
L 170.845601 238.606885 
L 172.934502 238.606885 
L 175.023403 238.606885 
L 177.112304 238.606885 
L 179.201205 238.606885 
L 181.290105 238.606885 
L 183.379006 238.606885 
L 185.467907 238.606885 
L 187.556808 238.606885 
L 189.645709 238.606885 
L 191.734609 238.606885 
L 193.82351 238.606885 
L 195.912411 238.606885 
L 198.001312 238.606885 
L 200.090213 238.606885 
L 202.179113 238.606885 
L 204.268014 238.606885 
L 206.356915 238.606885 
L 208.445816 238.606885 
L 210.534717 238.606885 
L 212.623617 238.606885 
L 214.712518 238.606885 
L 216.801419 238.606885 
L 218.89032 238.606885 
L 220.979221 238.606885 
L 223.068121 238.606885 
L 225.157022 238.606885 
L 227.245923 238.606885 
L 229.334824 238.606885 
L 231.423725 238.606885 
L 233.512625 238.606885 
L 235.601526 238.606885 
L 237.690427 238.606885 
L 239.779328 238.606885 
L 241.868228 238.606885 
L 243.957129 238.606885 
L 246.04603 238.606885 
L 248.134931 238.606885 
L 250.223832 238.606885 
L 252.312732 238.606885 
L 254.401633 238.606885 
L 256.490534 238.606885 
L 258.579435 238.606885 
L 260.668336 238.606885 
L 262.757236 238.606885 
L 264.846137 238.606885 
L 266.935038 238.606885 
L 269.023939 238.606885 
L 271.11284 238.606885 
L 273.20174 238.606885 
L 275.290641 238.606885 
L 277.379542 238.606885 
L 279.468443 238.606885 
L 281.557344 238.606885 
L 281.557344 245.425682 
L 281.557344 245.425682 
L 279.468443 236.148879 
L 277.379542 232.682911 
L 275.290641 232.701445 
L 273.20174 234.523375 
L 271.11284 236.982608 
L 269.023939 239.317239 
L 266.935038 241.076013 
L 264.846137 242.040133 
L 262.757236 242.158625 
L 260.668336 241.495604 
L 258.579435 240.187932 
L 256.490534 238.411888 
L 254.401633 236.357578 
L 252.312732 234.209962 
L 250.223832 232.135439 
L 248.134931 230.273076 
L 246.04603 228.729637 
L 243.957129 227.577676 
L 241.868228 226.856029 
L 239.779328 226.572134 
L 237.690427 226.705666 
L 235.601526 227.213064 
L 233.512625 228.032568 
L 231.423725 229.089461 
L 229.334824 230.301251 
L 227.245923 231.582599 
L 225.157022 232.849804 
L 223.068121 234.024752 
L 220.979221 235.038216 
L 218.89032 235.832476 
L 216.801419 236.363211 
L 214.712518 236.600687 
L 212.623617 236.530244 
L 210.534717 236.152136 
L 208.445816 235.480767 
L 206.356915 234.543402 
L 204.268014 233.378431 
L 202.179113 232.033259 
L 200.090213 230.561926 
L 198.001312 229.022538 
L 195.912411 227.474607 
L 193.82351 225.976384 
L 191.734609 224.582284 
L 189.645709 223.340461 
L 187.556808 222.290635 
L 185.467907 221.46222 
L 183.379006 220.872809 
L 181.290105 220.527075 
L 179.201205 238.605635 
L 177.112304 238.604967 
L 175.023403 221.094768 
L 172.934502 221.137523 
L 170.845601 221.242627 
L 168.756701 221.357006 
L 166.6678 221.420049 
L 164.578899 221.365434 
L 162.489998 221.123261 
L 160.401097 220.622451 
L 158.312197 219.79337 
L 156.223296 218.570592 
L 154.134395 216.895767 
L 152.045494 214.720485 
L 149.956593 212.009083 
L 147.867693 208.7413 
L 145.778792 204.914692 
L 143.689891 200.546718 
L 141.60099 195.676417 
L 139.512089 190.365567 
L 137.423189 184.699265 
L 135.334288 178.785829 
L 133.245387 172.755949 
L 131.156486 166.76103 
L 129.067585 160.970658 
L 126.978685 155.56916 
L 124.889784 150.75121 
L 122.800883 146.716497 
L 120.711982 143.663435 
L 118.623082 141.781973 
L 116.534181 141.245552 
L 114.44528 142.202296 
L 112.356379 144.765555 
L 110.267478 149.003969 
L 108.178578 154.931225 
L 106.089677 162.49576 
L 104.000776 171.570678 
L 101.911875 181.944224 
L 99.822974 193.311187 
L 97.734074 205.265676 
L 95.645173 217.295776 
L 93.556272 228.780643 
L 91.467371 238.990677 
L 89.37847 247.091489 
L 87.28957 252.152443 
L 85.200669 253.160647 
L 83.111768 249.041365 
L 81.022867 238.685881 
L 78.933966 220.987992 
L 76.845066 194.890364 
L 74.756165 159.442128 
z
" clip-path="url(#pf529c74c1b)" style="fill: #2ca02c; fill-opacity: 0.166667"/>
   </g>
   <g id="PolyCollection_4">
    <path d="M 74.756165 254.260225 
L 74.756165 238.606885 
L 78.035504 238.606885 
L 81.314842 238.606885 
L 84.594181 238.606885 
L 87.87352 238.606885 
L 91.152859 238.606885 
L 94.432198 238.606885 
L 97.711537 238.606885 
L 100.990876 238.606885 
L 104.270214 238.606885 
L 107.549553 238.606885 
L 110.828892 238.606885 
L 114.108231 238.606885 
L 117.38757 238.606885 
L 120.666909 238.606885 
L 123.946247 238.606885 
L 127.225586 238.606885 
L 130.504925 238.606885 
L 133.784264 238.606885 
L 137.063603 238.606885 
L 140.342942 238.606885 
L 143.62228 238.606885 
L 146.901619 238.606885 
L 150.180958 238.606885 
L 153.460297 238.606885 
L 156.739636 238.606885 
L 160.018975 238.606885 
L 163.298314 238.606885 
L 166.577652 238.606885 
L 169.856991 238.606885 
L 173.13633 238.606885 
L 176.415669 238.606885 
L 179.695008 238.606885 
L 182.974347 238.606885 
L 186.253685 238.606885 
L 189.533024 238.606885 
L 192.812363 238.606885 
L 196.091702 238.606885 
L 199.371041 238.606885 
L 202.65038 238.606885 
L 205.929718 238.606885 
L 209.209057 238.606885 
L 212.488396 238.606885 
L 215.767735 238.606885 
L 219.047074 238.606885 
L 222.326413 238.606885 
L 225.605752 238.606885 
L 228.88509 238.606885 
L 232.164429 238.606885 
L 235.443768 238.606885 
L 238.723107 238.606885 
L 242.002446 238.606885 
L 245.281785 238.606885 
L 248.561123 238.606885 
L 251.840462 238.606885 
L 255.119801 238.606885 
L 258.39914 238.606885 
L 261.678479 238.606885 
L 264.957818 238.606885 
L 268.237157 238.606885 
L 271.516495 238.606885 
L 274.795834 238.606885 
L 278.075173 238.606885 
L 281.354512 238.606885 
L 284.633851 238.606885 
L 287.91319 238.606885 
L 291.192528 238.606885 
L 294.471867 238.606885 
L 297.751206 238.606885 
L 301.030545 238.606885 
L 304.309884 238.606885 
L 307.589223 238.606885 
L 310.868561 238.606885 
L 314.1479 238.606885 
L 317.427239 238.606885 
L 320.706578 238.606885 
L 323.985917 238.606885 
L 327.265256 238.606885 
L 330.544595 238.606885 
L 333.823933 238.606885 
L 337.103272 238.606885 
L 340.382611 238.606885 
L 343.66195 238.606885 
L 346.941289 238.606885 
L 350.220628 238.606885 
L 353.499966 238.606885 
L 356.779305 238.606885 
L 360.058644 238.606885 
L 363.337983 238.606885 
L 366.617322 238.606885 
L 369.896661 238.606885 
L 373.175999 238.606885 
L 376.455338 238.606885 
L 379.734677 238.606885 
L 383.014016 238.606885 
L 386.293355 238.606885 
L 389.572694 238.606885 
L 392.852033 238.606885 
L 396.131371 238.606885 
L 399.41071 238.606885 
L 399.41071 224.442772 
L 399.41071 224.442772 
L 396.131371 241.380425 
L 392.852033 248.366295 
L 389.572694 249.156915 
L 386.293355 246.50575 
L 383.014016 242.360161 
L 379.734677 238.029697 
L 376.455338 234.328765 
L 373.175999 231.696481 
L 369.896661 230.296318 
L 366.617322 230.097948 
L 363.337983 230.943476 
L 360.058644 232.600099 
L 356.779305 234.801026 
L 353.499966 237.276354 
L 350.220628 239.775408 
L 346.941289 242.081936 
L 343.66195 244.023388 
L 340.382611 245.47539 
L 337.103272 246.362392 
L 333.823933 246.655366 
L 330.544595 246.36731 
L 327.265256 245.547211 
L 323.985917 244.273056 
L 320.706578 242.64435 
L 317.427239 240.774559 
L 314.1479 238.783805 
L 310.868561 236.792068 
L 307.589223 234.913115 
L 304.309884 233.249286 
L 301.030545 231.887253 
L 297.751206 230.894796 
L 294.471867 230.318621 
L 291.192528 230.183205 
L 287.91319 230.490616 
L 284.633851 231.221244 
L 281.354512 232.335357 
L 278.075173 233.775375 
L 274.795834 235.468736 
L 271.516495 237.331245 
L 268.237157 239.270761 
L 264.957818 241.191093 
L 261.678479 242.995972 
L 258.39914 244.592975 
L 255.119801 245.897268 
L 251.840462 246.83506 
L 248.561123 247.346658 
L 245.281785 247.389037 
L 242.002446 246.937832 
L 238.723107 238.602882 
L 235.443768 238.601093 
L 232.164429 246.458869 
L 228.88509 243.102437 
L 225.605752 239.272495 
L 222.326413 235.119717 
L 219.047074 230.814595 
L 215.767735 226.541163 
L 212.488396 222.489923 
L 209.209057 218.850158 
L 205.929718 215.801854 
L 202.65038 213.507469 
L 199.371041 212.103802 
L 196.091702 211.694246 
L 192.812363 212.34169 
L 189.533024 214.062378 
L 186.253685 216.82098 
L 182.974347 220.52718 
L 179.695008 225.034017 
L 176.415669 230.13823 
L 173.13633 235.582808 
L 169.856991 241.061906 
L 166.577652 246.228256 
L 163.298314 250.703121 
L 160.018975 254.088792 
L 156.739636 255.983535 
L 153.460297 255.998809 
L 150.180958 253.778483 
L 146.901619 249.019655 
L 143.62228 241.494545 
L 140.342942 231.07282 
L 137.063603 217.743519 
L 133.784264 201.635614 
L 130.504925 183.036034 
L 127.225586 162.403789 
L 123.946247 140.37863 
L 120.666909 117.782431 
L 117.38757 95.611246 
L 114.108231 75.015727 
L 110.828892 57.267294 
L 107.549553 43.707182 
L 104.270214 35.675124 
L 100.990876 34.414125 
L 97.711537 40.947415 
L 94.432198 55.923279 
L 91.152859 79.423076 
L 87.87352 110.727326 
L 84.594181 148.034306 
L 81.314842 188.125133 
L 78.035504 225.968813 
L 74.756165 254.260225 
z
" clip-path="url(#pf529c74c1b)" style="fill: #d62728; fill-opacity: 0.166667"/>
   </g>
   <g id="PolyCollection_5">
    <path d="M 74.756165 164.790903 
L 74.756165 238.606885 
L 76.383766 238.606885 
L 78.011367 238.606885 
L 79.638968 238.606885 
L 81.266569 238.606885 
L 82.89417 238.606885 
L 84.521771 238.606885 
L 86.149372 238.606885 
L 87.776973 238.606885 
L 89.404574 238.606885 
L 91.032175 238.606885 
L 92.659776 238.606885 
L 94.287378 238.606885 
L 95.914979 238.606885 
L 97.54258 238.606885 
L 99.170181 238.606885 
L 100.797782 238.606885 
L 102.425383 238.606885 
L 104.052984 238.606885 
L 105.680585 238.606885 
L 107.308186 238.606885 
L 108.935787 238.606885 
L 110.563388 238.606885 
L 112.190989 238.606885 
L 113.81859 238.606885 
L 115.446191 238.606885 
L 117.073792 238.606885 
L 118.701393 238.606885 
L 120.328995 238.606885 
L 121.956596 238.606885 
L 123.584197 238.606885 
L 125.211798 238.606885 
L 126.839399 238.606885 
L 128.467 238.606885 
L 130.094601 238.606885 
L 131.722202 238.606885 
L 133.349803 238.606885 
L 134.977404 238.606885 
L 136.605005 238.606885 
L 138.232606 238.606885 
L 139.860207 238.606885 
L 141.487808 238.606885 
L 143.115409 238.606885 
L 144.74301 238.606885 
L 146.370612 238.606885 
L 147.998213 238.606885 
L 149.625814 238.606885 
L 151.253415 238.606885 
L 152.881016 238.606885 
L 154.508617 238.606885 
L 156.136218 238.606885 
L 157.763819 238.606885 
L 159.39142 238.606885 
L 161.019021 238.606885 
L 162.646622 238.606885 
L 164.274223 238.606885 
L 165.901824 238.606885 
L 167.529425 238.606885 
L 169.157026 238.606885 
L 170.784627 238.606885 
L 172.412228 238.606885 
L 174.03983 238.606885 
L 175.667431 238.606885 
L 177.295032 238.606885 
L 178.922633 238.606885 
L 180.550234 238.606885 
L 182.177835 238.606885 
L 183.805436 238.606885 
L 185.433037 238.606885 
L 187.060638 238.606885 
L 188.688239 238.606885 
L 190.31584 238.606885 
L 191.943441 238.606885 
L 193.571042 238.606885 
L 195.198643 238.606885 
L 196.826244 238.606885 
L 198.453845 238.606885 
L 200.081447 238.606885 
L 201.709048 238.606885 
L 203.336649 238.606885 
L 204.96425 238.606885 
L 206.591851 238.606885 
L 208.219452 238.606885 
L 209.847053 238.606885 
L 211.474654 238.606885 
L 213.102255 238.606885 
L 214.729856 238.606885 
L 216.357457 238.606885 
L 217.985058 238.606885 
L 219.612659 238.606885 
L 221.24026 238.606885 
L 222.867861 238.606885 
L 224.495462 238.606885 
L 226.123064 238.606885 
L 227.750665 238.606885 
L 229.378266 238.606885 
L 231.005867 238.606885 
L 232.633468 238.606885 
L 234.261069 238.606885 
L 235.88867 238.606885 
L 235.88867 227.623071 
L 235.88867 227.623071 
L 234.261069 241.222609 
L 232.633468 246.261906 
L 231.005867 246.213299 
L 229.378266 243.54992 
L 227.750665 239.957549 
L 226.123064 236.513076 
L 224.495462 233.833429 
L 222.867861 232.198503 
L 221.24026 231.651334 
L 219.612659 232.078484 
L 217.985058 233.273351 
L 216.357457 234.984832 
L 214.729856 236.953588 
L 213.102255 238.937884 
L 211.474654 240.730803 
L 209.847053 242.170432 
L 208.219452 243.144419 
L 206.591851 243.590155 
L 204.96425 243.491659 
L 203.336649 242.874099 
L 201.709048 241.796764 
L 200.081447 240.345142 
L 198.453845 238.622689 
L 196.826244 236.742726 
L 195.198643 234.820848 
L 193.571042 232.968099 
L 191.943441 231.285134 
L 190.31584 229.857489 
L 188.688239 228.752037 
L 187.060638 228.014644 
L 185.433037 227.669009 
L 183.805436 227.716618 
L 182.177835 228.137722 
L 180.550234 228.893219 
L 178.922633 229.927298 
L 177.295032 231.170705 
L 175.667431 232.544453 
L 174.03983 233.963823 
L 172.412228 235.342497 
L 170.784627 236.596646 
L 169.157026 237.648839 
L 167.529425 238.431621 
L 165.901824 238.890641 
L 164.274223 238.987224 
L 162.646622 238.700276 
L 161.019021 238.027484 
L 159.39142 236.985734 
L 157.763819 235.610737 
L 156.136218 238.603536 
L 154.508617 238.60422 
L 152.881016 230.112376 
L 151.253415 228.368243 
L 149.625814 226.675408 
L 147.998213 225.120238 
L 146.370612 223.786348 
L 144.74301 222.750175 
L 143.115409 222.076523 
L 141.487808 221.814204 
L 139.860207 221.991965 
L 138.232606 222.614854 
L 136.605005 223.661218 
L 134.977404 225.080485 
L 133.349803 226.791906 
L 131.722202 228.684407 
L 130.094601 230.617686 
L 128.467 232.424686 
L 126.839399 233.915505 
L 125.211798 234.882837 
L 123.584197 235.108922 
L 121.956596 234.374011 
L 120.328995 232.466241 
L 118.701393 229.192782 
L 117.073792 224.392057 
L 115.446191 217.946724 
L 113.81859 209.797076 
L 112.190989 199.954362 
L 110.563388 188.513487 
L 108.935787 175.66438 
L 107.308186 161.701257 
L 105.680585 147.028805 
L 104.052984 132.164238 
L 102.425383 117.733966 
L 100.797782 104.463482 
L 99.170181 93.158894 
L 97.54258 84.67832 
L 95.914979 79.891187 
L 94.287378 79.623238 
L 92.659776 84.584844 
L 91.032175 95.279957 
L 89.404574 111.8928 
L 87.776973 134.14911 
L 86.149372 161.148485 
L 84.521771 191.164054 
L 82.89417 221.405411 
L 81.266569 247.740411 
L 79.638968 264.371063 
L 78.011367 263.458432 
L 76.383766 234.691039 
L 74.756165 164.790903 
z
" clip-path="url(#pf529c74c1b)" style="fill: #9467bd; fill-opacity: 0.166667"/>
   </g>
   <g id="PolyCollection_6">
    <path d="M 74.756165 186.875933 
L 74.756165 238.606885 
L 76.6019 238.606885 
L 78.447636 238.606885 
L 80.293371 238.606885 
L 82.139106 238.606885 
L 83.984842 238.606885 
L 85.830577 238.606885 
L 87.676312 238.606885 
L 89.522048 238.606885 
L 91.367783 238.606885 
L 93.213519 238.606885 
L 95.059254 238.606885 
L 96.904989 238.606885 
L 98.750725 238.606885 
L 100.59646 238.606885 
L 102.442196 238.606885 
L 104.287931 238.606885 
L 106.133666 238.606885 
L 107.979402 238.606885 
L 109.825137 238.606885 
L 111.670872 238.606885 
L 113.516608 238.606885 
L 115.362343 238.606885 
L 117.208079 238.606885 
L 119.053814 238.606885 
L 120.899549 238.606885 
L 122.745285 238.606885 
L 124.59102 238.606885 
L 126.436756 238.606885 
L 128.282491 238.606885 
L 130.128226 238.606885 
L 131.973962 238.606885 
L 133.819697 238.606885 
L 135.665433 238.606885 
L 137.511168 238.606885 
L 139.356903 238.606885 
L 141.202639 238.606885 
L 143.048374 238.606885 
L 144.894109 238.606885 
L 146.739845 238.606885 
L 148.58558 238.606885 
L 150.431316 238.606885 
L 152.277051 238.606885 
L 154.122786 238.606885 
L 155.968522 238.606885 
L 157.814257 238.606885 
L 159.659993 238.606885 
L 161.505728 238.606885 
L 163.351463 238.606885 
L 165.197199 238.606885 
L 167.042934 238.606885 
L 168.888669 238.606885 
L 170.734405 238.606885 
L 172.58014 238.606885 
L 174.425876 238.606885 
L 176.271611 238.606885 
L 178.117346 238.606885 
L 179.963082 238.606885 
L 181.808817 238.606885 
L 183.654553 238.606885 
L 185.500288 238.606885 
L 187.346023 238.606885 
L 189.191759 238.606885 
L 191.037494 238.606885 
L 192.883229 238.606885 
L 194.728965 238.606885 
L 196.5747 238.606885 
L 198.420436 238.606885 
L 200.266171 238.606885 
L 202.111906 238.606885 
L 203.957642 238.606885 
L 205.803377 238.606885 
L 207.649113 238.606885 
L 209.494848 238.606885 
L 211.340583 238.606885 
L 213.186319 238.606885 
L 215.032054 238.606885 
L 216.877789 238.606885 
L 218.723525 238.606885 
L 220.56926 238.606885 
L 222.414996 238.606885 
L 224.260731 238.606885 
L 226.106466 238.606885 
L 227.952202 238.606885 
L 229.797937 238.606885 
L 231.643673 238.606885 
L 233.489408 238.606885 
L 235.335143 238.606885 
L 237.180879 238.606885 
L 239.026614 238.606885 
L 240.87235 238.606885 
L 242.718085 238.606885 
L 244.56382 238.606885 
L 246.409556 238.606885 
L 248.255291 238.606885 
L 250.101026 238.606885 
L 251.946762 238.606885 
L 253.792497 238.606885 
L 255.638233 238.606885 
L 257.483968 238.606885 
L 257.483968 237.983711 
L 257.483968 237.983711 
L 255.638233 239.23977 
L 253.792497 239.38139 
L 251.946762 238.996154 
L 250.101026 238.450782 
L 248.255291 237.949372 
L 246.409556 237.580731 
L 244.56382 237.356261 
L 242.718085 237.239685 
L 240.87235 237.169833 
L 239.026614 237.077528 
L 237.180879 236.897568 
L 235.335143 236.576644 
L 233.489408 236.077972 
L 231.643673 235.383321 
L 229.797937 234.49302 
L 227.952202 233.424466 
L 226.106466 232.209586 
L 224.260731 230.891627 
L 222.414996 229.52158 
L 220.56926 228.154533 
L 218.723525 226.846125 
L 216.877789 225.649303 
L 215.032054 224.611481 
L 213.186319 223.772208 
L 211.340583 223.161379 
L 209.494848 222.798039 
L 207.649113 222.68976 
L 205.803377 222.832584 
L 203.957642 223.211486 
L 202.111906 223.801312 
L 200.266171 224.568115 
L 198.420436 225.470833 
L 196.5747 226.463215 
L 194.728965 227.495916 
L 192.883229 228.518685 
L 191.037494 229.482555 
L 189.191759 230.341956 
L 187.346023 231.05668 
L 185.500288 231.593627 
L 183.654553 231.928272 
L 181.808817 232.045798 
L 179.963082 231.941858 
L 178.117346 231.622926 
L 176.271611 231.106233 
L 174.425876 230.419258 
L 172.58014 229.5988 
L 170.734405 228.68963 
L 168.888669 227.742762 
L 167.042934 238.60535 
L 165.197199 238.606577 
L 163.351463 223.885411 
L 161.505728 223.893366 
L 159.659993 224.183804 
L 157.814257 224.765688 
L 155.968522 225.63403 
L 154.122786 226.768639 
L 152.277051 228.133259 
L 150.431316 229.675154 
L 148.58558 231.325194 
L 146.739845 232.998481 
L 144.894109 234.59557 
L 143.048374 236.004287 
L 141.202639 237.102193 
L 139.356903 237.759672 
L 137.511168 237.843654 
L 135.665433 237.221931 
L 133.819697 235.768041 
L 131.973962 233.366638 
L 130.128226 229.919276 
L 128.282491 225.350488 
L 126.436756 219.614038 
L 124.59102 212.699164 
L 122.745285 204.636633 
L 120.899549 195.504372 
L 119.053814 185.432414 
L 117.208079 174.606863 
L 115.362343 163.272524 
L 113.516608 151.733831 
L 111.670872 140.353628 
L 109.825137 129.549334 
L 107.979402 119.785956 
L 106.133666 111.56537 
L 104.287931 105.411232 
L 102.442196 101.848801 
L 100.59646 101.37894 
L 98.750725 104.445428 
L 96.904989 111.394715 
L 95.059254 122.42712 
L 93.213519 137.538442 
L 91.367783 156.450844 
L 89.522048 178.531795 
L 87.676312 202.699785 
L 85.830577 227.315398 
L 83.984842 250.056289 
L 82.139106 267.774453 
L 80.293371 276.334125 
L 78.447636 270.428507 
L 76.6019 243.37343 
L 74.756165 186.875933 
z
" clip-path="url(#pf529c74c1b)" style="fill: #8c564b; fill-opacity: 0.166667"/>
   </g>
   <g id="matplotlib.axis_1">
    <g id="xtick_1">
     <g id="line2d_1">
      <defs>
       <path id="m3fde1ec6c2" d="M 0 0 
L 0 3.5 
" style="stroke: #000000; stroke-width: 0.8"/>
      </defs>
      <g>
       <use xlink:href="#m3fde1ec6c2" x="74.756165" y="288.430125" style="stroke: #000000; stroke-width: 0.8"/>
      </g>
     </g>
     <g id="text_1">
      <!-- 0.0000 -->
      <g transform="translate(57.260852 303.028562) scale(0.1 -0.1)">
       <defs>
        <path id="DejaVuSans-30" d="M 2034 4250 
Q 1547 4250 1301 3770 
Q 1056 3291 1056 2328 
Q 1056 1369 1301 889 
Q 1547 409 2034 409 
Q 2525 409 2770 889 
Q 3016 1369 3016 2328 
Q 3016 3291 2770 3770 
Q 2525 4250 2034 4250 
z
M 2034 4750 
Q 2819 4750 3233 4129 
Q 3647 3509 3647 2328 
Q 3647 1150 3233 529 
Q 2819 -91 2034 -91 
Q 1250 -91 836 529 
Q 422 1150 422 2328 
Q 422 3509 836 4129 
Q 1250 4750 2034 4750 
z
" transform="scale(0.015625)"/>
        <path id="DejaVuSans-2e" d="M 684 794 
L 1344 794 
L 1344 0 
L 684 0 
L 684 794 
z
" transform="scale(0.015625)"/>
       </defs>
       <use xlink:href="#DejaVuSans-30"/>
       <use xlink:href="#DejaVuSans-2e" x="63.623047"/>
       <use xlink:href="#DejaVuSans-30" x="95.410156"/>
       <use xlink:href="#DejaVuSans-30" x="159.033203"/>
       <use xlink:href="#DejaVuSans-30" x="222.65625"/>
       <use xlink:href="#DejaVuSans-30" x="286.279297"/>
      </g>
     </g>
    </g>
    <g id="xtick_2">
     <g id="line2d_2">
      <g>
       <use xlink:href="#m3fde1ec6c2" x="121.058967" y="288.430125" style="stroke: #000000; stroke-width: 0.8"/>
      </g>
     </g>
     <g id="text_2">
      <!-- 0.0005 -->
      <g transform="translate(103.563654 303.028562) scale(0.1 -0.1)">
       <defs>
        <path id="DejaVuSans-35" d="M 691 4666 
L 3169 4666 
L 3169 4134 
L 1269 4134 
L 1269 2991 
Q 1406 3038 1543 3061 
Q 1681 3084 1819 3084 
Q 2600 3084 3056 2656 
Q 3513 2228 3513 1497 
Q 3513 744 3044 326 
Q 2575 -91 1722 -91 
Q 1428 -91 1123 -41 
Q 819 9 494 109 
L 494 744 
Q 775 591 1075 516 
Q 1375 441 1709 441 
Q 2250 441 2565 725 
Q 2881 1009 2881 1497 
Q 2881 1984 2565 2268 
Q 2250 2553 1709 2553 
Q 1456 2553 1204 2497 
Q 953 2441 691 2322 
L 691 4666 
z
" transform="scale(0.015625)"/>
       </defs>
       <use xlink:href="#DejaVuSans-30"/>
       <use xlink:href="#DejaVuSans-2e" x="63.623047"/>
       <use xlink:href="#DejaVuSans-30" x="95.410156"/>
       <use xlink:href="#DejaVuSans-30" x="159.033203"/>
       <use xlink:href="#DejaVuSans-30" x="222.65625"/>
       <use xlink:href="#DejaVuSans-35" x="286.279297"/>
      </g>
     </g>
    </g>
    <g id="xtick_3">
     <g id="line2d_3">
      <g>
       <use xlink:href="#m3fde1ec6c2" x="167.361769" y="288.430125" style="stroke: #000000; stroke-width: 0.8"/>
      </g>
     </g>
     <g id="text_3">
      <!-- 0.0010 -->
      <g transform="translate(149.866457 303.028562) scale(0.1 -0.1)">
       <defs>
        <path id="DejaVuSans-31" d="M 794 531 
L 1825 531 
L 1825 4091 
L 703 3866 
L 703 4441 
L 1819 4666 
L 2450 4666 
L 2450 531 
L 3481 531 
L 3481 0 
L 794 0 
L 794 531 
z
" transform="scale(0.015625)"/>
       </defs>
       <use xlink:href="#DejaVuSans-30"/>
       <use xlink:href="#DejaVuSans-2e" x="63.623047"/>
       <use xlink:href="#DejaVuSans-30" x="95.410156"/>
       <use xlink:href="#DejaVuSans-30" x="159.033203"/>
       <use xlink:href="#DejaVuSans-31" x="222.65625"/>
       <use xlink:href="#DejaVuSans-30" x="286.279297"/>
      </g>
     </g>
    </g>
    <g id="xtick_4">
     <g id="line2d_4">
      <g>
       <use xlink:href="#m3fde1ec6c2" x="213.664571" y="288.430125" style="stroke: #000000; stroke-width: 0.8"/>
      </g>
     </g>
     <g id="text_4">
      <!-- 0.0015 -->
      <g transform="translate(196.169259 303.028562) scale(0.1 -0.1)">
       <use xlink:href="#DejaVuSans-30"/>
       <use xlink:href="#DejaVuSans-2e" x="63.623047"/>
       <use xlink:href="#DejaVuSans-30" x="95.410156"/>
       <use xlink:href="#DejaVuSans-30" x="159.033203"/>
       <use xlink:href="#DejaVuSans-31" x="222.65625"/>
       <use xlink:href="#DejaVuSans-35" x="286.279297"/>
      </g>
     </g>
    </g>
    <g id="xtick_5">
     <g id="line2d_5">
      <g>
       <use xlink:href="#m3fde1ec6c2" x="259.967374" y="288.430125" style="stroke: #000000; stroke-width: 0.8"/>
      </g>
     </g>
     <g id="text_5">
      <!-- 0.0020 -->
      <g transform="translate(242.472061 303.028562) scale(0.1 -0.1)">
       <defs>
        <path id="DejaVuSans-32" d="M 1228 531 
L 3431 531 
L 3431 0 
L 469 0 
L 469 531 
Q 828 903 1448 1529 
Q 2069 2156 2228 2338 
Q 2531 2678 2651 2914 
Q 2772 3150 2772 3378 
Q 2772 3750 2511 3984 
Q 2250 4219 1831 4219 
Q 1534 4219 1204 4116 
Q 875 4013 500 3803 
L 500 4441 
Q 881 4594 1212 4672 
Q 1544 4750 1819 4750 
Q 2544 4750 2975 4387 
Q 3406 4025 3406 3419 
Q 3406 3131 3298 2873 
Q 3191 2616 2906 2266 
Q 2828 2175 2409 1742 
Q 1991 1309 1228 531 
z
" transform="scale(0.015625)"/>
       </defs>
       <use xlink:href="#DejaVuSans-30"/>
       <use xlink:href="#DejaVuSans-2e" x="63.623047"/>
       <use xlink:href="#DejaVuSans-30" x="95.410156"/>
       <use xlink:href="#DejaVuSans-30" x="159.033203"/>
       <use xlink:href="#DejaVuSans-32" x="222.65625"/>
       <use xlink:href="#DejaVuSans-30" x="286.279297"/>
      </g>
     </g>
    </g>
    <g id="xtick_6">
     <g id="line2d_6">
      <g>
       <use xlink:href="#m3fde1ec6c2" x="306.270176" y="288.430125" style="stroke: #000000; stroke-width: 0.8"/>
      </g>
     </g>
     <g id="text_6">
      <!-- 0.0025 -->
      <g transform="translate(288.774863 303.028562) scale(0.1 -0.1)">
       <use xlink:href="#DejaVuSans-30"/>
       <use xlink:href="#DejaVuSans-2e" x="63.623047"/>
       <use xlink:href="#DejaVuSans-30" x="95.410156"/>
       <use xlink:href="#DejaVuSans-30" x="159.033203"/>
       <use xlink:href="#DejaVuSans-32" x="222.65625"/>
       <use xlink:href="#DejaVuSans-35" x="286.279297"/>
      </g>
     </g>
    </g>
    <g id="xtick_7">
     <g id="line2d_7">
      <g>
       <use xlink:href="#m3fde1ec6c2" x="352.572978" y="288.430125" style="stroke: #000000; stroke-width: 0.8"/>
      </g>
     </g>
     <g id="text_7">
      <!-- 0.0030 -->
      <g transform="translate(335.077666 303.028562) scale(0.1 -0.1)">
       <defs>
        <path id="DejaVuSans-33" d="M 2597 2516 
Q 3050 2419 3304 2112 
Q 3559 1806 3559 1356 
Q 3559 666 3084 287 
Q 2609 -91 1734 -91 
Q 1441 -91 1130 -33 
Q 819 25 488 141 
L 488 750 
Q 750 597 1062 519 
Q 1375 441 1716 441 
Q 2309 441 2620 675 
Q 2931 909 2931 1356 
Q 2931 1769 2642 2001 
Q 2353 2234 1838 2234 
L 1294 2234 
L 1294 2753 
L 1863 2753 
Q 2328 2753 2575 2939 
Q 2822 3125 2822 3475 
Q 2822 3834 2567 4026 
Q 2313 4219 1838 4219 
Q 1578 4219 1281 4162 
Q 984 4106 628 3988 
L 628 4550 
Q 988 4650 1302 4700 
Q 1616 4750 1894 4750 
Q 2613 4750 3031 4423 
Q 3450 4097 3450 3541 
Q 3450 3153 3228 2886 
Q 3006 2619 2597 2516 
z
" transform="scale(0.015625)"/>
       </defs>
       <use xlink:href="#DejaVuSans-30"/>
       <use xlink:href="#DejaVuSans-2e" x="63.623047"/>
       <use xlink:href="#DejaVuSans-30" x="95.410156"/>
       <use xlink:href="#DejaVuSans-30" x="159.033203"/>
       <use xlink:href="#DejaVuSans-33" x="222.65625"/>
       <use xlink:href="#DejaVuSans-30" x="286.279297"/>
      </g>
     </g>
    </g>
    <g id="xtick_8">
     <g id="line2d_8">
      <g>
       <use xlink:href="#m3fde1ec6c2" x="398.87578" y="288.430125" style="stroke: #000000; stroke-width: 0.8"/>
      </g>
     </g>
     <g id="text_8">
      <!-- 0.0035 -->
      <g transform="translate(381.380468 303.028562) scale(0.1 -0.1)">
       <use xlink:href="#DejaVuSans-30"/>
       <use xlink:href="#DejaVuSans-2e" x="63.623047"/>
       <use xlink:href="#DejaVuSans-30" x="95.410156"/>
       <use xlink:href="#DejaVuSans-30" x="159.033203"/>
       <use xlink:href="#DejaVuSans-33" x="222.65625"/>
       <use xlink:href="#DejaVuSans-35" x="286.279297"/>
      </g>
     </g>
    </g>
    <g id="text_9">
     <!-- Pixel values -->
     <g transform="translate(207.671719 316.706687) scale(0.1 -0.1)">
      <defs>
       <path id="DejaVuSans-50" d="M 1259 4147 
L 1259 2394 
L 2053 2394 
Q 2494 2394 2734 2622 
Q 2975 2850 2975 3272 
Q 2975 3691 2734 3919 
Q 2494 4147 2053 4147 
L 1259 4147 
z
M 628 4666 
L 2053 4666 
Q 2838 4666 3239 4311 
Q 3641 3956 3641 3272 
Q 3641 2581 3239 2228 
Q 2838 1875 2053 1875 
L 1259 1875 
L 1259 0 
L 628 0 
L 628 4666 
z
" transform="scale(0.015625)"/>
       <path id="DejaVuSans-69" d="M 603 3500 
L 1178 3500 
L 1178 0 
L 603 0 
L 603 3500 
z
M 603 4863 
L 1178 4863 
L 1178 4134 
L 603 4134 
L 603 4863 
z
" transform="scale(0.015625)"/>
       <path id="DejaVuSans-78" d="M 3513 3500 
L 2247 1797 
L 3578 0 
L 2900 0 
L 1881 1375 
L 863 0 
L 184 0 
L 1544 1831 
L 300 3500 
L 978 3500 
L 1906 2253 
L 2834 3500 
L 3513 3500 
z
" transform="scale(0.015625)"/>
       <path id="DejaVuSans-65" d="M 3597 1894 
L 3597 1613 
L 953 1613 
Q 991 1019 1311 708 
Q 1631 397 2203 397 
Q 2534 397 2845 478 
Q 3156 559 3463 722 
L 3463 178 
Q 3153 47 2828 -22 
Q 2503 -91 2169 -91 
Q 1331 -91 842 396 
Q 353 884 353 1716 
Q 353 2575 817 3079 
Q 1281 3584 2069 3584 
Q 2775 3584 3186 3129 
Q 3597 2675 3597 1894 
z
M 3022 2063 
Q 3016 2534 2758 2815 
Q 2500 3097 2075 3097 
Q 1594 3097 1305 2825 
Q 1016 2553 972 2059 
L 3022 2063 
z
" transform="scale(0.015625)"/>
       <path id="DejaVuSans-6c" d="M 603 4863 
L 1178 4863 
L 1178 0 
L 603 0 
L 603 4863 
z
" transform="scale(0.015625)"/>
       <path id="DejaVuSans-20" transform="scale(0.015625)"/>
       <path id="DejaVuSans-76" d="M 191 3500 
L 800 3500 
L 1894 563 
L 2988 3500 
L 3597 3500 
L 2284 0 
L 1503 0 
L 191 3500 
z
" transform="scale(0.015625)"/>
       <path id="DejaVuSans-61" d="M 2194 1759 
Q 1497 1759 1228 1600 
Q 959 1441 959 1056 
Q 959 750 1161 570 
Q 1363 391 1709 391 
Q 2188 391 2477 730 
Q 2766 1069 2766 1631 
L 2766 1759 
L 2194 1759 
z
M 3341 1997 
L 3341 0 
L 2766 0 
L 2766 531 
Q 2569 213 2275 61 
Q 1981 -91 1556 -91 
Q 1019 -91 701 211 
Q 384 513 384 1019 
Q 384 1609 779 1909 
Q 1175 2209 1959 2209 
L 2766 2209 
L 2766 2266 
Q 2766 2663 2505 2880 
Q 2244 3097 1772 3097 
Q 1472 3097 1187 3025 
Q 903 2953 641 2809 
L 641 3341 
Q 956 3463 1253 3523 
Q 1550 3584 1831 3584 
Q 2591 3584 2966 3190 
Q 3341 2797 3341 1997 
z
" transform="scale(0.015625)"/>
       <path id="DejaVuSans-75" d="M 544 1381 
L 544 3500 
L 1119 3500 
L 1119 1403 
Q 1119 906 1312 657 
Q 1506 409 1894 409 
Q 2359 409 2629 706 
Q 2900 1003 2900 1516 
L 2900 3500 
L 3475 3500 
L 3475 0 
L 2900 0 
L 2900 538 
Q 2691 219 2414 64 
Q 2138 -91 1772 -91 
Q 1169 -91 856 284 
Q 544 659 544 1381 
z
M 1991 3584 
L 1991 3584 
z
" transform="scale(0.015625)"/>
       <path id="DejaVuSans-73" d="M 2834 3397 
L 2834 2853 
Q 2591 2978 2328 3040 
Q 2066 3103 1784 3103 
Q 1356 3103 1142 2972 
Q 928 2841 928 2578 
Q 928 2378 1081 2264 
Q 1234 2150 1697 2047 
L 1894 2003 
Q 2506 1872 2764 1633 
Q 3022 1394 3022 966 
Q 3022 478 2636 193 
Q 2250 -91 1575 -91 
Q 1294 -91 989 -36 
Q 684 19 347 128 
L 347 722 
Q 666 556 975 473 
Q 1284 391 1588 391 
Q 1994 391 2212 530 
Q 2431 669 2431 922 
Q 2431 1156 2273 1281 
Q 2116 1406 1581 1522 
L 1381 1569 
Q 847 1681 609 1914 
Q 372 2147 372 2553 
Q 372 3047 722 3315 
Q 1072 3584 1716 3584 
Q 2034 3584 2315 3537 
Q 2597 3491 2834 3397 
z
" transform="scale(0.015625)"/>
      </defs>
      <use xlink:href="#DejaVuSans-50"/>
      <use xlink:href="#DejaVuSans-69" x="58.052734"/>
      <use xlink:href="#DejaVuSans-78" x="85.835938"/>
      <use xlink:href="#DejaVuSans-65" x="141.890625"/>
      <use xlink:href="#DejaVuSans-6c" x="203.414062"/>
      <use xlink:href="#DejaVuSans-20" x="231.197266"/>
      <use xlink:href="#DejaVuSans-76" x="262.984375"/>
      <use xlink:href="#DejaVuSans-61" x="322.164062"/>
      <use xlink:href="#DejaVuSans-6c" x="383.443359"/>
      <use xlink:href="#DejaVuSans-75" x="411.226562"/>
      <use xlink:href="#DejaVuSans-65" x="474.605469"/>
      <use xlink:href="#DejaVuSans-73" x="536.128906"/>
     </g>
    </g>
   </g>
   <g id="matplotlib.axis_2">
    <g id="ytick_1">
     <g id="line2d_9">
      <defs>
       <path id="m00e2253542" d="M 0 0 
L -3.5 0 
" style="stroke: #000000; stroke-width: 0.8"/>
      </defs>
      <g>
       <use xlink:href="#m00e2253542" x="58.523438" y="287.152519" style="stroke: #000000; stroke-width: 0.8"/>
      </g>
     </g>
     <g id="text_10">
      <!-- −0.02 -->
      <g transform="translate(20.878125 290.951738) scale(0.1 -0.1)">
       <defs>
        <path id="DejaVuSans-2212" d="M 678 2272 
L 4684 2272 
L 4684 1741 
L 678 1741 
L 678 2272 
z
" transform="scale(0.015625)"/>
       </defs>
       <use xlink:href="#DejaVuSans-2212"/>
       <use xlink:href="#DejaVuSans-30" x="83.789062"/>
       <use xlink:href="#DejaVuSans-2e" x="147.412109"/>
       <use xlink:href="#DejaVuSans-30" x="179.199219"/>
       <use xlink:href="#DejaVuSans-32" x="242.822266"/>
      </g>
     </g>
    </g>
    <g id="ytick_2">
     <g id="line2d_10">
      <g>
       <use xlink:href="#m00e2253542" x="58.523438" y="238.606885" style="stroke: #000000; stroke-width: 0.8"/>
      </g>
     </g>
     <g id="text_11">
      <!-- 0.00 -->
      <g transform="translate(29.257813 242.406104) scale(0.1 -0.1)">
       <use xlink:href="#DejaVuSans-30"/>
       <use xlink:href="#DejaVuSans-2e" x="63.623047"/>
       <use xlink:href="#DejaVuSans-30" x="95.410156"/>
       <use xlink:href="#DejaVuSans-30" x="159.033203"/>
      </g>
     </g>
    </g>
    <g id="ytick_3">
     <g id="line2d_11">
      <g>
       <use xlink:href="#m00e2253542" x="58.523438" y="190.061251" style="stroke: #000000; stroke-width: 0.8"/>
      </g>
     </g>
     <g id="text_12">
      <!-- 0.02 -->
      <g transform="translate(29.257813 193.86047) scale(0.1 -0.1)">
       <use xlink:href="#DejaVuSans-30"/>
       <use xlink:href="#DejaVuSans-2e" x="63.623047"/>
       <use xlink:href="#DejaVuSans-30" x="95.410156"/>
       <use xlink:href="#DejaVuSans-32" x="159.033203"/>
      </g>
     </g>
    </g>
    <g id="ytick_4">
     <g id="line2d_12">
      <g>
       <use xlink:href="#m00e2253542" x="58.523438" y="141.515617" style="stroke: #000000; stroke-width: 0.8"/>
      </g>
     </g>
     <g id="text_13">
      <!-- 0.04 -->
      <g transform="translate(29.257813 145.314836) scale(0.1 -0.1)">
       <defs>
        <path id="DejaVuSans-34" d="M 2419 4116 
L 825 1625 
L 2419 1625 
L 2419 4116 
z
M 2253 4666 
L 3047 4666 
L 3047 1625 
L 3713 1625 
L 3713 1100 
L 3047 1100 
L 3047 0 
L 2419 0 
L 2419 1100 
L 313 1100 
L 313 1709 
L 2253 4666 
z
" transform="scale(0.015625)"/>
       </defs>
       <use xlink:href="#DejaVuSans-30"/>
       <use xlink:href="#DejaVuSans-2e" x="63.623047"/>
       <use xlink:href="#DejaVuSans-30" x="95.410156"/>
       <use xlink:href="#DejaVuSans-34" x="159.033203"/>
      </g>
     </g>
    </g>
    <g id="ytick_5">
     <g id="line2d_13">
      <g>
       <use xlink:href="#m00e2253542" x="58.523438" y="92.969983" style="stroke: #000000; stroke-width: 0.8"/>
      </g>
     </g>
     <g id="text_14">
      <!-- 0.06 -->
      <g transform="translate(29.257813 96.769202) scale(0.1 -0.1)">
       <defs>
        <path id="DejaVuSans-36" d="M 2113 2584 
Q 1688 2584 1439 2293 
Q 1191 2003 1191 1497 
Q 1191 994 1439 701 
Q 1688 409 2113 409 
Q 2538 409 2786 701 
Q 3034 994 3034 1497 
Q 3034 2003 2786 2293 
Q 2538 2584 2113 2584 
z
M 3366 4563 
L 3366 3988 
Q 3128 4100 2886 4159 
Q 2644 4219 2406 4219 
Q 1781 4219 1451 3797 
Q 1122 3375 1075 2522 
Q 1259 2794 1537 2939 
Q 1816 3084 2150 3084 
Q 2853 3084 3261 2657 
Q 3669 2231 3669 1497 
Q 3669 778 3244 343 
Q 2819 -91 2113 -91 
Q 1303 -91 875 529 
Q 447 1150 447 2328 
Q 447 3434 972 4092 
Q 1497 4750 2381 4750 
Q 2619 4750 2861 4703 
Q 3103 4656 3366 4563 
z
" transform="scale(0.015625)"/>
       </defs>
       <use xlink:href="#DejaVuSans-30"/>
       <use xlink:href="#DejaVuSans-2e" x="63.623047"/>
       <use xlink:href="#DejaVuSans-30" x="95.410156"/>
       <use xlink:href="#DejaVuSans-36" x="159.033203"/>
      </g>
     </g>
    </g>
    <g id="ytick_6">
     <g id="line2d_14">
      <g>
       <use xlink:href="#m00e2253542" x="58.523438" y="44.424349" style="stroke: #000000; stroke-width: 0.8"/>
      </g>
     </g>
     <g id="text_15">
      <!-- 0.08 -->
      <g transform="translate(29.257813 48.223568) scale(0.1 -0.1)">
       <defs>
        <path id="DejaVuSans-38" d="M 2034 2216 
Q 1584 2216 1326 1975 
Q 1069 1734 1069 1313 
Q 1069 891 1326 650 
Q 1584 409 2034 409 
Q 2484 409 2743 651 
Q 3003 894 3003 1313 
Q 3003 1734 2745 1975 
Q 2488 2216 2034 2216 
z
M 1403 2484 
Q 997 2584 770 2862 
Q 544 3141 544 3541 
Q 544 4100 942 4425 
Q 1341 4750 2034 4750 
Q 2731 4750 3128 4425 
Q 3525 4100 3525 3541 
Q 3525 3141 3298 2862 
Q 3072 2584 2669 2484 
Q 3125 2378 3379 2068 
Q 3634 1759 3634 1313 
Q 3634 634 3220 271 
Q 2806 -91 2034 -91 
Q 1263 -91 848 271 
Q 434 634 434 1313 
Q 434 1759 690 2068 
Q 947 2378 1403 2484 
z
M 1172 3481 
Q 1172 3119 1398 2916 
Q 1625 2713 2034 2713 
Q 2441 2713 2670 2916 
Q 2900 3119 2900 3481 
Q 2900 3844 2670 4047 
Q 2441 4250 2034 4250 
Q 1625 4250 1398 4047 
Q 1172 3844 1172 3481 
z
" transform="scale(0.015625)"/>
       </defs>
       <use xlink:href="#DejaVuSans-30"/>
       <use xlink:href="#DejaVuSans-2e" x="63.623047"/>
       <use xlink:href="#DejaVuSans-30" x="95.410156"/>
       <use xlink:href="#DejaVuSans-38" x="159.033203"/>
      </g>
     </g>
    </g>
    <g id="text_16">
     <!-- Frequency -->
     <g transform="translate(14.798438 181.203812) rotate(-90) scale(0.1 -0.1)">
      <defs>
       <path id="DejaVuSans-46" d="M 628 4666 
L 3309 4666 
L 3309 4134 
L 1259 4134 
L 1259 2759 
L 3109 2759 
L 3109 2228 
L 1259 2228 
L 1259 0 
L 628 0 
L 628 4666 
z
" transform="scale(0.015625)"/>
       <path id="DejaVuSans-72" d="M 2631 2963 
Q 2534 3019 2420 3045 
Q 2306 3072 2169 3072 
Q 1681 3072 1420 2755 
Q 1159 2438 1159 1844 
L 1159 0 
L 581 0 
L 581 3500 
L 1159 3500 
L 1159 2956 
Q 1341 3275 1631 3429 
Q 1922 3584 2338 3584 
Q 2397 3584 2469 3576 
Q 2541 3569 2628 3553 
L 2631 2963 
z
" transform="scale(0.015625)"/>
       <path id="DejaVuSans-71" d="M 947 1747 
Q 947 1113 1208 752 
Q 1469 391 1925 391 
Q 2381 391 2643 752 
Q 2906 1113 2906 1747 
Q 2906 2381 2643 2742 
Q 2381 3103 1925 3103 
Q 1469 3103 1208 2742 
Q 947 2381 947 1747 
z
M 2906 525 
Q 2725 213 2448 61 
Q 2172 -91 1784 -91 
Q 1150 -91 751 415 
Q 353 922 353 1747 
Q 353 2572 751 3078 
Q 1150 3584 1784 3584 
Q 2172 3584 2448 3432 
Q 2725 3281 2906 2969 
L 2906 3500 
L 3481 3500 
L 3481 -1331 
L 2906 -1331 
L 2906 525 
z
" transform="scale(0.015625)"/>
       <path id="DejaVuSans-6e" d="M 3513 2113 
L 3513 0 
L 2938 0 
L 2938 2094 
Q 2938 2591 2744 2837 
Q 2550 3084 2163 3084 
Q 1697 3084 1428 2787 
Q 1159 2491 1159 1978 
L 1159 0 
L 581 0 
L 581 3500 
L 1159 3500 
L 1159 2956 
Q 1366 3272 1645 3428 
Q 1925 3584 2291 3584 
Q 2894 3584 3203 3211 
Q 3513 2838 3513 2113 
z
" transform="scale(0.015625)"/>
       <path id="DejaVuSans-63" d="M 3122 3366 
L 3122 2828 
Q 2878 2963 2633 3030 
Q 2388 3097 2138 3097 
Q 1578 3097 1268 2742 
Q 959 2388 959 1747 
Q 959 1106 1268 751 
Q 1578 397 2138 397 
Q 2388 397 2633 464 
Q 2878 531 3122 666 
L 3122 134 
Q 2881 22 2623 -34 
Q 2366 -91 2075 -91 
Q 1284 -91 818 406 
Q 353 903 353 1747 
Q 353 2603 823 3093 
Q 1294 3584 2113 3584 
Q 2378 3584 2631 3529 
Q 2884 3475 3122 3366 
z
" transform="scale(0.015625)"/>
       <path id="DejaVuSans-79" d="M 2059 -325 
Q 1816 -950 1584 -1140 
Q 1353 -1331 966 -1331 
L 506 -1331 
L 506 -850 
L 844 -850 
Q 1081 -850 1212 -737 
Q 1344 -625 1503 -206 
L 1606 56 
L 191 3500 
L 800 3500 
L 1894 763 
L 2988 3500 
L 3597 3500 
L 2059 -325 
z
" transform="scale(0.015625)"/>
      </defs>
      <use xlink:href="#DejaVuSans-46"/>
      <use xlink:href="#DejaVuSans-72" x="50.269531"/>
      <use xlink:href="#DejaVuSans-65" x="89.132812"/>
      <use xlink:href="#DejaVuSans-71" x="150.65625"/>
      <use xlink:href="#DejaVuSans-75" x="214.132812"/>
      <use xlink:href="#DejaVuSans-65" x="277.511719"/>
      <use xlink:href="#DejaVuSans-6e" x="339.035156"/>
      <use xlink:href="#DejaVuSans-63" x="402.414062"/>
      <use xlink:href="#DejaVuSans-79" x="457.394531"/>
     </g>
    </g>
   </g>
   <g id="line2d_15">
    <path d="M 74.756165 151.729904 
L 76.488443 214.183201 
L 78.220721 248.53436 
L 79.952998 262.308659 
L 81.685276 261.596819 
L 83.417554 251.261836 
L 85.149832 235.12297 
L 86.88211 216.11881 
L 88.614388 196.451184 
L 90.346666 177.711591 
L 92.078944 160.991727 
L 93.811222 146.979585 
L 95.543499 136.042479 
L 97.275777 128.298303 
L 99.008055 123.676204 
L 100.740333 121.967779 
L 102.472611 122.869832 
L 104.204889 126.019639 
L 105.937167 131.023607 
L 107.669445 137.480132 
L 109.401723 144.997395 
L 111.134 153.206791 
L 112.866278 161.7726 
L 114.598556 170.398469 
L 116.330834 178.831214 
L 118.063112 186.862411 
L 119.79539 194.328175 
L 121.527668 201.107509 
L 123.259946 207.119548 
L 124.992224 212.319976 
L 126.724501 216.696884 
L 128.456779 220.266271 
L 130.189057 223.067389 
L 131.921335 225.158075 
L 133.653613 226.610213 
L 135.385891 227.505428 
L 137.118169 227.931094 
L 138.850447 227.976716 
L 140.582724 227.73075 
L 142.315002 227.277861 
L 144.04728 226.696664 
L 145.779558 226.057924 
L 147.511836 225.423223 
L 149.244114 224.844069 
L 150.976392 224.361419 
L 152.70867 224.005583 
L 154.440948 223.796472 
L 156.173225 223.744151 
L 157.905503 223.849639 
L 159.637781 238.605518 
L 161.370059 238.605199 
L 163.102337 225.508083 
L 164.834615 226.139366 
L 166.566893 226.811707 
L 168.299171 227.497444 
L 170.031449 228.16992 
L 171.763726 228.804613 
L 173.496004 229.380107 
L 175.228282 229.878869 
L 176.96056 230.287817 
L 178.692838 230.598687 
L 180.425116 230.808171 
L 182.157394 230.917851 
L 183.889672 230.933934 
L 185.62195 230.866789 
L 187.354227 230.730336 
L 189.086505 230.541288 
L 190.818783 230.31829 
L 192.551061 230.080987 
L 194.283339 229.849062 
L 196.015617 229.641278 
L 197.747895 229.474572 
L 199.480173 229.363235 
L 201.212451 229.318224 
L 202.944728 229.346641 
L 204.677006 229.451409 
L 206.409284 229.631179 
L 208.141562 229.880481 
L 209.87384 230.190137 
L 211.606118 230.547933 
L 213.338396 230.939534 
L 215.070674 231.34963 
L 216.802952 231.763244 
L 218.535229 232.16717 
L 220.267507 232.551424 
L 221.999785 232.910626 
L 223.732063 233.245161 
L 225.464341 233.561966 
L 227.196619 233.874728 
L 228.928897 234.203288 
L 230.661175 234.571955 
L 232.393453 235.006437 
L 234.12573 235.529024 
L 235.858008 236.151627 
L 237.590286 236.866213 
L 239.322564 237.632129 
L 241.054842 238.359761 
L 242.78712 238.889873 
L 244.519398 238.967966 
L 246.251676 238.212861 
" clip-path="url(#pf529c74c1b)" style="fill: none; stroke: #1f77b4; stroke-width: 1.5; stroke-linecap: square"/>
   </g>
   <g id="line2d_16">
    <path d="M 74.756165 153.748265 
L 76.674052 232.629374 
L 78.591939 267.968963 
L 80.509826 273.446525 
L 82.427713 259.732588 
L 84.3456 234.984478 
L 86.263487 205.279969 
L 88.181374 174.994654 
L 90.099261 147.128456 
L 92.017148 123.58635 
L 93.935035 105.417998 
L 95.852922 93.020653 
L 97.770809 86.309392 
L 99.688696 84.858383 
L 101.606583 88.01665 
L 103.52447 95.001468 
L 105.442357 104.972299 
L 107.360244 117.087902 
L 109.278131 130.549013 
L 111.196018 144.628784 
L 113.113905 158.692936 
L 115.031792 172.211401 
L 116.949679 184.76302 
L 118.867566 196.034717 
L 120.785453 205.816361 
L 122.70334 213.992438 
L 124.621227 220.531441 
L 126.539114 225.473813 
L 128.457001 228.919129 
L 130.374888 231.013084 
L 132.292775 231.934783 
L 134.210662 231.884694 
L 136.128549 231.073584 
L 138.046436 229.712633 
L 139.964323 228.004909 
L 141.882211 226.138273 
L 143.800098 224.279761 
L 145.717985 222.571442 
L 147.635872 221.127698 
L 149.553759 220.03384 
L 151.471646 219.345973 
L 153.389533 219.091957 
L 155.30742 219.273333 
L 157.225307 219.868046 
L 159.143194 220.833817 
L 161.061081 222.111973 
L 162.978968 223.631587 
L 164.896855 225.313759 
L 166.814742 227.075884 
L 168.732629 238.603992 
L 170.650516 238.60315 
L 172.568403 233.344166 
L 174.48629 234.906439 
L 176.404177 236.138185 
L 178.322064 237.000567 
L 180.239951 237.473886 
L 182.157838 237.558036 
L 184.075725 237.272135 
L 185.993612 236.65336 
L 187.911499 235.755047 
L 189.829386 234.644098 
L 191.747273 233.397823 
L 193.66516 232.100296 
L 195.583047 230.838375 
L 197.500934 229.697521 
L 199.418821 228.757576 
L 201.336708 228.088659 
L 203.254595 227.747354 
L 205.172482 227.773358 
L 207.090369 228.186755 
L 209.008256 228.986068 
L 210.926143 230.147251 
L 212.84403 231.62371 
L 214.761917 233.347494 
L 216.679804 235.23168 
L 218.597691 237.174012 
L 220.515578 239.061747 
L 222.433465 240.777653 
L 224.351352 242.207016 
L 226.269239 243.245441 
L 228.187126 243.807181 
L 230.105013 243.833589 
L 232.0229 243.301258 
L 233.940788 242.229226 
L 235.858675 240.684583 
L 237.776562 238.785624 
L 239.694449 236.701593 
L 241.612336 234.647888 
L 243.530223 232.875446 
L 245.44811 231.652838 
L 247.365997 231.239428 
L 249.283884 231.847735 
L 251.201771 233.592936 
L 253.119658 236.427199 
L 255.037545 240.0563 
L 256.955432 243.835739 
L 258.873319 246.643244 
L 260.791206 246.724329 
L 262.709093 241.507201 
L 264.62698 227.383051 
" clip-path="url(#pf529c74c1b)" style="fill: none; stroke: #ff7f0e; stroke-width: 1.5; stroke-linecap: square"/>
   </g>
   <g id="line2d_17">
    <path d="M 74.756165 159.442128 
L 76.845066 194.890364 
L 78.933966 220.987992 
L 81.022867 238.685881 
L 83.111768 249.041365 
L 85.200669 253.160647 
L 87.28957 252.152443 
L 89.37847 247.091489 
L 91.467371 238.990677 
L 93.556272 228.780643 
L 95.645173 217.295776 
L 97.734074 205.265676 
L 99.822974 193.311187 
L 101.911875 181.944224 
L 104.000776 171.570678 
L 106.089677 162.49576 
L 108.178578 154.931225 
L 110.267478 149.003969 
L 112.356379 144.765555 
L 114.44528 142.202296 
L 116.534181 141.245552 
L 118.623082 141.781973 
L 120.711982 143.663435 
L 122.800883 146.716497 
L 124.889784 150.75121 
L 126.978685 155.56916 
L 129.067585 160.970658 
L 131.156486 166.76103 
L 133.245387 172.755949 
L 135.334288 178.785829 
L 137.423189 184.699265 
L 139.512089 190.365567 
L 141.60099 195.676417 
L 143.689891 200.546718 
L 145.778792 204.914692 
L 147.867693 208.7413 
L 149.956593 212.009083 
L 152.045494 214.720485 
L 154.134395 216.895767 
L 156.223296 218.570592 
L 158.312197 219.79337 
L 160.401097 220.622451 
L 162.489998 221.123261 
L 164.578899 221.365434 
L 166.6678 221.420049 
L 168.756701 221.357006 
L 170.845601 221.242627 
L 172.934502 221.137523 
L 175.023403 221.094768 
L 177.112304 238.604967 
L 179.201205 238.605635 
L 181.290105 220.527075 
L 183.379006 220.872809 
L 185.467907 221.46222 
L 187.556808 222.290635 
L 189.645709 223.340461 
L 191.734609 224.582284 
L 193.82351 225.976384 
L 195.912411 227.474607 
L 198.001312 229.022538 
L 200.090213 230.561926 
L 202.179113 232.033259 
L 204.268014 233.378431 
L 206.356915 234.543402 
L 208.445816 235.480767 
L 210.534717 236.152136 
L 212.623617 236.530244 
L 214.712518 236.600687 
L 216.801419 236.363211 
L 218.89032 235.832476 
L 220.979221 235.038216 
L 223.068121 234.024752 
L 225.157022 232.849804 
L 227.245923 231.582599 
L 229.334824 230.301251 
L 231.423725 229.089461 
L 233.512625 228.032568 
L 235.601526 227.213064 
L 237.690427 226.705666 
L 239.779328 226.572134 
L 241.868228 226.856029 
L 243.957129 227.577676 
L 246.04603 228.729637 
L 248.134931 230.273076 
L 250.223832 232.135439 
L 252.312732 234.209962 
L 254.401633 236.357578 
L 256.490534 238.411888 
L 258.579435 240.187932 
L 260.668336 241.495604 
L 262.757236 242.158625 
L 264.846137 242.040133 
L 266.935038 241.076013 
L 269.023939 239.317239 
L 271.11284 236.982608 
L 273.20174 234.523375 
L 275.290641 232.701445 
L 277.379542 232.682911 
L 279.468443 236.148879 
L 281.557344 245.425682 
" clip-path="url(#pf529c74c1b)" style="fill: none; stroke: #2ca02c; stroke-width: 1.5; stroke-linecap: square"/>
   </g>
   <g id="line2d_18">
    <path d="M 74.756165 254.260225 
L 78.035504 225.968813 
L 81.314842 188.125133 
L 84.594181 148.034306 
L 87.87352 110.727326 
L 91.152859 79.423076 
L 94.432198 55.923279 
L 97.711537 40.947415 
L 100.990876 34.414125 
L 104.270214 35.675124 
L 107.549553 43.707182 
L 110.828892 57.267294 
L 114.108231 75.015727 
L 117.38757 95.611246 
L 120.666909 117.782431 
L 123.946247 140.37863 
L 127.225586 162.403789 
L 130.504925 183.036034 
L 133.784264 201.635614 
L 137.063603 217.743519 
L 140.342942 231.07282 
L 143.62228 241.494545 
L 146.901619 249.019655 
L 150.180958 253.778483 
L 153.460297 255.998809 
L 156.739636 255.983535 
L 160.018975 254.088792 
L 163.298314 250.703121 
L 166.577652 246.228256 
L 169.856991 241.061906 
L 173.13633 235.582808 
L 176.415669 230.13823 
L 179.695008 225.034017 
L 182.974347 220.52718 
L 186.253685 216.82098 
L 189.533024 214.062378 
L 192.812363 212.34169 
L 196.091702 211.694246 
L 199.371041 212.103802 
L 202.65038 213.507469 
L 205.929718 215.801854 
L 209.209057 218.850158 
L 212.488396 222.489923 
L 215.767735 226.541163 
L 219.047074 230.814595 
L 222.326413 235.119717 
L 225.605752 239.272495 
L 228.88509 243.102437 
L 232.164429 246.458869 
L 235.443768 238.601093 
L 238.723107 238.602882 
L 242.002446 246.937832 
L 245.281785 247.389037 
L 248.561123 247.346658 
L 251.840462 246.83506 
L 255.119801 245.897268 
L 258.39914 244.592975 
L 261.678479 242.995972 
L 264.957818 241.191093 
L 268.237157 239.270761 
L 271.516495 237.331245 
L 274.795834 235.468736 
L 278.075173 233.775375 
L 281.354512 232.335357 
L 284.633851 231.221244 
L 287.91319 230.490616 
L 291.192528 230.183205 
L 294.471867 230.318621 
L 297.751206 230.894796 
L 301.030545 231.887253 
L 304.309884 233.249286 
L 307.589223 234.913115 
L 310.868561 236.792068 
L 314.1479 238.783805 
L 317.427239 240.774559 
L 320.706578 242.64435 
L 323.985917 244.273056 
L 327.265256 245.547211 
L 330.544595 246.36731 
L 333.823933 246.655366 
L 337.103272 246.362392 
L 340.382611 245.47539 
L 343.66195 244.023388 
L 346.941289 242.081936 
L 350.220628 239.775408 
L 353.499966 237.276354 
L 356.779305 234.801026 
L 360.058644 232.600099 
L 363.337983 230.943476 
L 366.617322 230.097948 
L 369.896661 230.296318 
L 373.175999 231.696481 
L 376.455338 234.328765 
L 379.734677 238.029697 
L 383.014016 242.360161 
L 386.293355 246.50575 
L 389.572694 249.156915 
L 392.852033 248.366295 
L 396.131371 241.380425 
L 399.41071 224.442772 
" clip-path="url(#pf529c74c1b)" style="fill: none; stroke: #d62728; stroke-width: 1.5; stroke-linecap: square"/>
   </g>
   <g id="line2d_19">
    <path d="M 74.756165 164.790903 
L 76.383766 234.691039 
L 78.011367 263.458432 
L 79.638968 264.371063 
L 81.266569 247.740411 
L 82.89417 221.405411 
L 84.521771 191.164054 
L 86.149372 161.148485 
L 87.776973 134.14911 
L 89.404574 111.8928 
L 91.032175 95.279957 
L 92.659776 84.584844 
L 94.287378 79.623238 
L 95.914979 79.891187 
L 97.54258 84.67832 
L 99.170181 93.158894 
L 100.797782 104.463482 
L 102.425383 117.733966 
L 104.052984 132.164238 
L 105.680585 147.028805 
L 107.308186 161.701257 
L 108.935787 175.66438 
L 110.563388 188.513487 
L 112.190989 199.954362 
L 113.81859 209.797076 
L 115.446191 217.946724 
L 117.073792 224.392057 
L 118.701393 229.192782 
L 120.328995 232.466241 
L 121.956596 234.374011 
L 123.584197 235.108922 
L 125.211798 234.882837 
L 126.839399 233.915505 
L 128.467 232.424686 
L 130.094601 230.617686 
L 131.722202 228.684407 
L 133.349803 226.791906 
L 134.977404 225.080485 
L 136.605005 223.661218 
L 138.232606 222.614854 
L 139.860207 221.991965 
L 141.487808 221.814204 
L 143.115409 222.076523 
L 144.74301 222.750175 
L 146.370612 223.786348 
L 147.998213 225.120238 
L 149.625814 226.675408 
L 151.253415 228.368243 
L 152.881016 230.112376 
L 154.508617 238.60422 
L 156.136218 238.603536 
L 157.763819 235.610737 
L 159.39142 236.985734 
L 161.019021 238.027484 
L 162.646622 238.700276 
L 164.274223 238.987224 
L 165.901824 238.890641 
L 167.529425 238.431621 
L 169.157026 237.648839 
L 170.784627 236.596646 
L 172.412228 235.342497 
L 174.03983 233.963823 
L 175.667431 232.544453 
L 177.295032 231.170705 
L 178.922633 229.927298 
L 180.550234 228.893219 
L 182.177835 228.137722 
L 183.805436 227.716618 
L 185.433037 227.669009 
L 187.060638 228.014644 
L 188.688239 228.752037 
L 190.31584 229.857489 
L 191.943441 231.285134 
L 193.571042 232.968099 
L 195.198643 234.820848 
L 196.826244 236.742726 
L 198.453845 238.622689 
L 200.081447 240.345142 
L 201.709048 241.796764 
L 203.336649 242.874099 
L 204.96425 243.491659 
L 206.591851 243.590155 
L 208.219452 243.144419 
L 209.847053 242.170432 
L 211.474654 240.730803 
L 213.102255 238.937884 
L 214.729856 236.953588 
L 216.357457 234.984832 
L 217.985058 233.273351 
L 219.612659 232.078484 
L 221.24026 231.651334 
L 222.867861 232.198503 
L 224.495462 233.833429 
L 226.123064 236.513076 
L 227.750665 239.957549 
L 229.378266 243.54992 
L 231.005867 246.213299 
L 232.633468 246.261906 
L 234.261069 241.222609 
L 235.88867 227.623071 
" clip-path="url(#pf529c74c1b)" style="fill: none; stroke: #9467bd; stroke-width: 1.5; stroke-linecap: square"/>
   </g>
   <g id="line2d_20">
    <path d="M 74.756165 186.875933 
L 76.6019 243.37343 
L 78.447636 270.428507 
L 80.293371 276.334125 
L 82.139106 267.774453 
L 83.984842 250.056289 
L 85.830577 227.315398 
L 87.676312 202.699785 
L 89.522048 178.531795 
L 91.367783 156.450844 
L 93.213519 137.538442 
L 95.059254 122.42712 
L 96.904989 111.394715 
L 98.750725 104.445428 
L 100.59646 101.37894 
L 102.442196 101.848801 
L 104.287931 105.411232 
L 106.133666 111.56537 
L 107.979402 119.785956 
L 109.825137 129.549334 
L 111.670872 140.353628 
L 113.516608 151.733831 
L 115.362343 163.272524 
L 117.208079 174.606863 
L 119.053814 185.432414 
L 120.899549 195.504372 
L 122.745285 204.636633 
L 124.59102 212.699164 
L 126.436756 219.614038 
L 128.282491 225.350488 
L 130.128226 229.919276 
L 131.973962 233.366638 
L 133.819697 235.768041 
L 135.665433 237.221931 
L 137.511168 237.843654 
L 139.356903 237.759672 
L 141.202639 237.102193 
L 143.048374 236.004287 
L 144.894109 234.59557 
L 146.739845 232.998481 
L 148.58558 231.325194 
L 150.431316 229.675154 
L 152.277051 228.133259 
L 154.122786 226.768639 
L 155.968522 225.63403 
L 157.814257 224.765688 
L 159.659993 224.183804 
L 161.505728 223.893366 
L 163.351463 223.885411 
L 165.197199 238.606577 
L 167.042934 238.60535 
L 168.888669 227.742762 
L 170.734405 228.68963 
L 172.58014 229.5988 
L 174.425876 230.419258 
L 176.271611 231.106233 
L 178.117346 231.622926 
L 179.963082 231.941858 
L 181.808817 232.045798 
L 183.654553 231.928272 
L 185.500288 231.593627 
L 187.346023 231.05668 
L 189.191759 230.341956 
L 191.037494 229.482555 
L 192.883229 228.518685 
L 194.728965 227.495916 
L 196.5747 226.463215 
L 198.420436 225.470833 
L 200.266171 224.568115 
L 202.111906 223.801312 
L 203.957642 223.211486 
L 205.803377 222.832584 
L 207.649113 222.68976 
L 209.494848 222.798039 
L 211.340583 223.161379 
L 213.186319 223.772208 
L 215.032054 224.611481 
L 216.877789 225.649303 
L 218.723525 226.846125 
L 220.56926 228.154533 
L 222.414996 229.52158 
L 224.260731 230.891627 
L 226.106466 232.209586 
L 227.952202 233.424466 
L 229.797937 234.49302 
L 231.643673 235.383321 
L 233.489408 236.077972 
L 235.335143 236.576644 
L 237.180879 236.897568 
L 239.026614 237.077528 
L 240.87235 237.169833 
L 242.718085 237.239685 
L 244.56382 237.356261 
L 246.409556 237.580731 
L 248.255291 237.949372 
L 250.101026 238.450782 
L 251.946762 238.996154 
L 253.792497 239.38139 
L 255.638233 239.23977 
L 257.483968 237.983711 
" clip-path="url(#pf529c74c1b)" style="fill: none; stroke: #8c564b; stroke-width: 1.5; stroke-linecap: square"/>
   </g>
   <g id="patch_3">
    <path d="M 58.523438 288.430125 
L 58.523438 22.318125 
" style="fill: none; stroke: #000000; stroke-width: 0.8; stroke-linejoin: miter; stroke-linecap: square"/>
   </g>
   <g id="patch_4">
    <path d="M 415.643438 288.430125 
L 415.643438 22.318125 
" style="fill: none; stroke: #000000; stroke-width: 0.8; stroke-linejoin: miter; stroke-linecap: square"/>
   </g>
   <g id="patch_5">
    <path d="M 58.523438 288.430125 
L 415.643438 288.430125 
" style="fill: none; stroke: #000000; stroke-width: 0.8; stroke-linejoin: miter; stroke-linecap: square"/>
   </g>
   <g id="patch_6">
    <path d="M 58.523438 22.318125 
L 415.643438 22.318125 
" style="fill: none; stroke: #000000; stroke-width: 0.8; stroke-linejoin: miter; stroke-linecap: square"/>
   </g>
   <g id="text_17">
    <!-- RD - xtract_prob_Superior_Longitudinal_Fasciculus_1_L -->
    <g transform="translate(73.119375 16.318125) scale(0.12 -0.12)">
     <defs>
      <path id="DejaVuSans-52" d="M 2841 2188 
Q 3044 2119 3236 1894 
Q 3428 1669 3622 1275 
L 4263 0 
L 3584 0 
L 2988 1197 
Q 2756 1666 2539 1819 
Q 2322 1972 1947 1972 
L 1259 1972 
L 1259 0 
L 628 0 
L 628 4666 
L 2053 4666 
Q 2853 4666 3247 4331 
Q 3641 3997 3641 3322 
Q 3641 2881 3436 2590 
Q 3231 2300 2841 2188 
z
M 1259 4147 
L 1259 2491 
L 2053 2491 
Q 2509 2491 2742 2702 
Q 2975 2913 2975 3322 
Q 2975 3731 2742 3939 
Q 2509 4147 2053 4147 
L 1259 4147 
z
" transform="scale(0.015625)"/>
      <path id="DejaVuSans-44" d="M 1259 4147 
L 1259 519 
L 2022 519 
Q 2988 519 3436 956 
Q 3884 1394 3884 2338 
Q 3884 3275 3436 3711 
Q 2988 4147 2022 4147 
L 1259 4147 
z
M 628 4666 
L 1925 4666 
Q 3281 4666 3915 4102 
Q 4550 3538 4550 2338 
Q 4550 1131 3912 565 
Q 3275 0 1925 0 
L 628 0 
L 628 4666 
z
" transform="scale(0.015625)"/>
      <path id="DejaVuSans-2d" d="M 313 2009 
L 1997 2009 
L 1997 1497 
L 313 1497 
L 313 2009 
z
" transform="scale(0.015625)"/>
      <path id="DejaVuSans-74" d="M 1172 4494 
L 1172 3500 
L 2356 3500 
L 2356 3053 
L 1172 3053 
L 1172 1153 
Q 1172 725 1289 603 
Q 1406 481 1766 481 
L 2356 481 
L 2356 0 
L 1766 0 
Q 1100 0 847 248 
Q 594 497 594 1153 
L 594 3053 
L 172 3053 
L 172 3500 
L 594 3500 
L 594 4494 
L 1172 4494 
z
" transform="scale(0.015625)"/>
      <path id="DejaVuSans-5f" d="M 3263 -1063 
L 3263 -1509 
L -63 -1509 
L -63 -1063 
L 3263 -1063 
z
" transform="scale(0.015625)"/>
      <path id="DejaVuSans-70" d="M 1159 525 
L 1159 -1331 
L 581 -1331 
L 581 3500 
L 1159 3500 
L 1159 2969 
Q 1341 3281 1617 3432 
Q 1894 3584 2278 3584 
Q 2916 3584 3314 3078 
Q 3713 2572 3713 1747 
Q 3713 922 3314 415 
Q 2916 -91 2278 -91 
Q 1894 -91 1617 61 
Q 1341 213 1159 525 
z
M 3116 1747 
Q 3116 2381 2855 2742 
Q 2594 3103 2138 3103 
Q 1681 3103 1420 2742 
Q 1159 2381 1159 1747 
Q 1159 1113 1420 752 
Q 1681 391 2138 391 
Q 2594 391 2855 752 
Q 3116 1113 3116 1747 
z
" transform="scale(0.015625)"/>
      <path id="DejaVuSans-6f" d="M 1959 3097 
Q 1497 3097 1228 2736 
Q 959 2375 959 1747 
Q 959 1119 1226 758 
Q 1494 397 1959 397 
Q 2419 397 2687 759 
Q 2956 1122 2956 1747 
Q 2956 2369 2687 2733 
Q 2419 3097 1959 3097 
z
M 1959 3584 
Q 2709 3584 3137 3096 
Q 3566 2609 3566 1747 
Q 3566 888 3137 398 
Q 2709 -91 1959 -91 
Q 1206 -91 779 398 
Q 353 888 353 1747 
Q 353 2609 779 3096 
Q 1206 3584 1959 3584 
z
" transform="scale(0.015625)"/>
      <path id="DejaVuSans-62" d="M 3116 1747 
Q 3116 2381 2855 2742 
Q 2594 3103 2138 3103 
Q 1681 3103 1420 2742 
Q 1159 2381 1159 1747 
Q 1159 1113 1420 752 
Q 1681 391 2138 391 
Q 2594 391 2855 752 
Q 3116 1113 3116 1747 
z
M 1159 2969 
Q 1341 3281 1617 3432 
Q 1894 3584 2278 3584 
Q 2916 3584 3314 3078 
Q 3713 2572 3713 1747 
Q 3713 922 3314 415 
Q 2916 -91 2278 -91 
Q 1894 -91 1617 61 
Q 1341 213 1159 525 
L 1159 0 
L 581 0 
L 581 4863 
L 1159 4863 
L 1159 2969 
z
" transform="scale(0.015625)"/>
      <path id="DejaVuSans-53" d="M 3425 4513 
L 3425 3897 
Q 3066 4069 2747 4153 
Q 2428 4238 2131 4238 
Q 1616 4238 1336 4038 
Q 1056 3838 1056 3469 
Q 1056 3159 1242 3001 
Q 1428 2844 1947 2747 
L 2328 2669 
Q 3034 2534 3370 2195 
Q 3706 1856 3706 1288 
Q 3706 609 3251 259 
Q 2797 -91 1919 -91 
Q 1588 -91 1214 -16 
Q 841 59 441 206 
L 441 856 
Q 825 641 1194 531 
Q 1563 422 1919 422 
Q 2459 422 2753 634 
Q 3047 847 3047 1241 
Q 3047 1584 2836 1778 
Q 2625 1972 2144 2069 
L 1759 2144 
Q 1053 2284 737 2584 
Q 422 2884 422 3419 
Q 422 4038 858 4394 
Q 1294 4750 2059 4750 
Q 2388 4750 2728 4690 
Q 3069 4631 3425 4513 
z
" transform="scale(0.015625)"/>
      <path id="DejaVuSans-4c" d="M 628 4666 
L 1259 4666 
L 1259 531 
L 3531 531 
L 3531 0 
L 628 0 
L 628 4666 
z
" transform="scale(0.015625)"/>
      <path id="DejaVuSans-67" d="M 2906 1791 
Q 2906 2416 2648 2759 
Q 2391 3103 1925 3103 
Q 1463 3103 1205 2759 
Q 947 2416 947 1791 
Q 947 1169 1205 825 
Q 1463 481 1925 481 
Q 2391 481 2648 825 
Q 2906 1169 2906 1791 
z
M 3481 434 
Q 3481 -459 3084 -895 
Q 2688 -1331 1869 -1331 
Q 1566 -1331 1297 -1286 
Q 1028 -1241 775 -1147 
L 775 -588 
Q 1028 -725 1275 -790 
Q 1522 -856 1778 -856 
Q 2344 -856 2625 -561 
Q 2906 -266 2906 331 
L 2906 616 
Q 2728 306 2450 153 
Q 2172 0 1784 0 
Q 1141 0 747 490 
Q 353 981 353 1791 
Q 353 2603 747 3093 
Q 1141 3584 1784 3584 
Q 2172 3584 2450 3431 
Q 2728 3278 2906 2969 
L 2906 3500 
L 3481 3500 
L 3481 434 
z
" transform="scale(0.015625)"/>
      <path id="DejaVuSans-64" d="M 2906 2969 
L 2906 4863 
L 3481 4863 
L 3481 0 
L 2906 0 
L 2906 525 
Q 2725 213 2448 61 
Q 2172 -91 1784 -91 
Q 1150 -91 751 415 
Q 353 922 353 1747 
Q 353 2572 751 3078 
Q 1150 3584 1784 3584 
Q 2172 3584 2448 3432 
Q 2725 3281 2906 2969 
z
M 947 1747 
Q 947 1113 1208 752 
Q 1469 391 1925 391 
Q 2381 391 2643 752 
Q 2906 1113 2906 1747 
Q 2906 2381 2643 2742 
Q 2381 3103 1925 3103 
Q 1469 3103 1208 2742 
Q 947 2381 947 1747 
z
" transform="scale(0.015625)"/>
     </defs>
     <use xlink:href="#DejaVuSans-52"/>
     <use xlink:href="#DejaVuSans-44" x="69.482422"/>
     <use xlink:href="#DejaVuSans-20" x="146.484375"/>
     <use xlink:href="#DejaVuSans-2d" x="178.271484"/>
     <use xlink:href="#DejaVuSans-20" x="214.355469"/>
     <use xlink:href="#DejaVuSans-78" x="246.142578"/>
     <use xlink:href="#DejaVuSans-74" x="305.322266"/>
     <use xlink:href="#DejaVuSans-72" x="344.53125"/>
     <use xlink:href="#DejaVuSans-61" x="385.644531"/>
     <use xlink:href="#DejaVuSans-63" x="446.923828"/>
     <use xlink:href="#DejaVuSans-74" x="501.904297"/>
     <use xlink:href="#DejaVuSans-5f" x="541.113281"/>
     <use xlink:href="#DejaVuSans-70" x="591.113281"/>
     <use xlink:href="#DejaVuSans-72" x="654.589844"/>
     <use xlink:href="#DejaVuSans-6f" x="693.453125"/>
     <use xlink:href="#DejaVuSans-62" x="754.634766"/>
     <use xlink:href="#DejaVuSans-5f" x="818.111328"/>
     <use xlink:href="#DejaVuSans-53" x="868.111328"/>
     <use xlink:href="#DejaVuSans-75" x="931.587891"/>
     <use xlink:href="#DejaVuSans-70" x="994.966797"/>
     <use xlink:href="#DejaVuSans-65" x="1058.443359"/>
     <use xlink:href="#DejaVuSans-72" x="1119.966797"/>
     <use xlink:href="#DejaVuSans-69" x="1161.080078"/>
     <use xlink:href="#DejaVuSans-6f" x="1188.863281"/>
     <use xlink:href="#DejaVuSans-72" x="1250.044922"/>
     <use xlink:href="#DejaVuSans-5f" x="1291.158203"/>
     <use xlink:href="#DejaVuSans-4c" x="1341.158203"/>
     <use xlink:href="#DejaVuSans-6f" x="1395.121094"/>
     <use xlink:href="#DejaVuSans-6e" x="1456.302734"/>
     <use xlink:href="#DejaVuSans-67" x="1519.681641"/>
     <use xlink:href="#DejaVuSans-69" x="1583.158203"/>
     <use xlink:href="#DejaVuSans-74" x="1610.941406"/>
     <use xlink:href="#DejaVuSans-75" x="1650.150391"/>
     <use xlink:href="#DejaVuSans-64" x="1713.529297"/>
     <use xlink:href="#DejaVuSans-69" x="1777.005859"/>
     <use xlink:href="#DejaVuSans-6e" x="1804.789062"/>
     <use xlink:href="#DejaVuSans-61" x="1868.167969"/>
     <use xlink:href="#DejaVuSans-6c" x="1929.447266"/>
     <use xlink:href="#DejaVuSans-5f" x="1957.230469"/>
     <use xlink:href="#DejaVuSans-46" x="2007.230469"/>
     <use xlink:href="#DejaVuSans-61" x="2055.625"/>
     <use xlink:href="#DejaVuSans-73" x="2116.904297"/>
     <use xlink:href="#DejaVuSans-63" x="2169.003906"/>
     <use xlink:href="#DejaVuSans-69" x="2223.984375"/>
     <use xlink:href="#DejaVuSans-63" x="2251.767578"/>
     <use xlink:href="#DejaVuSans-75" x="2306.748047"/>
     <use xlink:href="#DejaVuSans-6c" x="2370.126953"/>
     <use xlink:href="#DejaVuSans-75" x="2397.910156"/>
     <use xlink:href="#DejaVuSans-73" x="2461.289062"/>
     <use xlink:href="#DejaVuSans-5f" x="2513.388672"/>
     <use xlink:href="#DejaVuSans-31" x="2563.388672"/>
     <use xlink:href="#DejaVuSans-5f" x="2627.011719"/>
     <use xlink:href="#DejaVuSans-4c" x="2677.011719"/>
    </g>
   </g>
   <g id="legend_1">
    <g id="patch_7">
     <path d="M 458.355438 146.666825 
L 556.211688 146.666825 
Q 558.211688 146.666825 558.211688 144.666825 
L 558.211688 55.929325 
Q 558.211688 53.929325 556.211688 53.929325 
L 458.355438 53.929325 
Q 456.355438 53.929325 456.355438 55.929325 
L 456.355438 144.666825 
Q 456.355438 146.666825 458.355438 146.666825 
z
" style="fill: #ffffff; opacity: 0.8; stroke: #cccccc; stroke-linejoin: miter"/>
    </g>
    <g id="line2d_21">
     <path d="M 460.355438 62.027762 
L 470.355438 62.027762 
L 480.355438 62.027762 
" style="fill: none; stroke: #1f77b4; stroke-width: 1.5; stroke-linecap: square"/>
    </g>
    <g id="text_18">
     <!-- 20_06_02_E3 -->
     <g transform="translate(488.355438 65.527762) scale(0.1 -0.1)">
      <defs>
       <path id="DejaVuSans-45" d="M 628 4666 
L 3578 4666 
L 3578 4134 
L 1259 4134 
L 1259 2753 
L 3481 2753 
L 3481 2222 
L 1259 2222 
L 1259 531 
L 3634 531 
L 3634 0 
L 628 0 
L 628 4666 
z
" transform="scale(0.015625)"/>
      </defs>
      <use xlink:href="#DejaVuSans-32"/>
      <use xlink:href="#DejaVuSans-30" x="63.623047"/>
      <use xlink:href="#DejaVuSans-5f" x="127.246094"/>
      <use xlink:href="#DejaVuSans-30" x="177.246094"/>
      <use xlink:href="#DejaVuSans-36" x="240.869141"/>
      <use xlink:href="#DejaVuSans-5f" x="304.492188"/>
      <use xlink:href="#DejaVuSans-30" x="354.492188"/>
      <use xlink:href="#DejaVuSans-32" x="418.115234"/>
      <use xlink:href="#DejaVuSans-5f" x="481.738281"/>
      <use xlink:href="#DejaVuSans-45" x="531.738281"/>
      <use xlink:href="#DejaVuSans-33" x="594.921875"/>
     </g>
    </g>
    <g id="line2d_22">
     <path d="M 460.355438 76.984013 
L 470.355438 76.984013 
L 480.355438 76.984013 
" style="fill: none; stroke: #ff7f0e; stroke-width: 1.5; stroke-linecap: square"/>
    </g>
    <g id="text_19">
     <!-- 20_05_01_E3 -->
     <g transform="translate(488.355438 80.484013) scale(0.1 -0.1)">
      <use xlink:href="#DejaVuSans-32"/>
      <use xlink:href="#DejaVuSans-30" x="63.623047"/>
      <use xlink:href="#DejaVuSans-5f" x="127.246094"/>
      <use xlink:href="#DejaVuSans-30" x="177.246094"/>
      <use xlink:href="#DejaVuSans-35" x="240.869141"/>
      <use xlink:href="#DejaVuSans-5f" x="304.492188"/>
      <use xlink:href="#DejaVuSans-30" x="354.492188"/>
      <use xlink:href="#DejaVuSans-31" x="418.115234"/>
      <use xlink:href="#DejaVuSans-5f" x="481.738281"/>
      <use xlink:href="#DejaVuSans-45" x="531.738281"/>
      <use xlink:href="#DejaVuSans-33" x="594.921875"/>
     </g>
    </g>
    <g id="line2d_23">
     <path d="M 460.355438 91.940262 
L 470.355438 91.940262 
L 480.355438 91.940262 
" style="fill: none; stroke: #2ca02c; stroke-width: 1.5; stroke-linecap: square"/>
    </g>
    <g id="text_20">
     <!-- 20_02_02_E3 -->
     <g transform="translate(488.355438 95.440262) scale(0.1 -0.1)">
      <use xlink:href="#DejaVuSans-32"/>
      <use xlink:href="#DejaVuSans-30" x="63.623047"/>
      <use xlink:href="#DejaVuSans-5f" x="127.246094"/>
      <use xlink:href="#DejaVuSans-30" x="177.246094"/>
      <use xlink:href="#DejaVuSans-32" x="240.869141"/>
      <use xlink:href="#DejaVuSans-5f" x="304.492188"/>
      <use xlink:href="#DejaVuSans-30" x="354.492188"/>
      <use xlink:href="#DejaVuSans-32" x="418.115234"/>
      <use xlink:href="#DejaVuSans-5f" x="481.738281"/>
      <use xlink:href="#DejaVuSans-45" x="531.738281"/>
      <use xlink:href="#DejaVuSans-33" x="594.921875"/>
     </g>
    </g>
    <g id="line2d_24">
     <path d="M 460.355438 106.896513 
L 470.355438 106.896513 
L 480.355438 106.896513 
" style="fill: none; stroke: #d62728; stroke-width: 1.5; stroke-linecap: square"/>
    </g>
    <g id="text_21">
     <!-- 20_10_02_E3 -->
     <g transform="translate(488.355438 110.396513) scale(0.1 -0.1)">
      <use xlink:href="#DejaVuSans-32"/>
      <use xlink:href="#DejaVuSans-30" x="63.623047"/>
      <use xlink:href="#DejaVuSans-5f" x="127.246094"/>
      <use xlink:href="#DejaVuSans-31" x="177.246094"/>
      <use xlink:href="#DejaVuSans-30" x="240.869141"/>
      <use xlink:href="#DejaVuSans-5f" x="304.492188"/>
      <use xlink:href="#DejaVuSans-30" x="354.492188"/>
      <use xlink:href="#DejaVuSans-32" x="418.115234"/>
      <use xlink:href="#DejaVuSans-5f" x="481.738281"/>
      <use xlink:href="#DejaVuSans-45" x="531.738281"/>
      <use xlink:href="#DejaVuSans-33" x="594.921875"/>
     </g>
    </g>
    <g id="line2d_25">
     <path d="M 460.355438 121.852762 
L 470.355438 121.852762 
L 480.355438 121.852762 
" style="fill: none; stroke: #9467bd; stroke-width: 1.5; stroke-linecap: square"/>
    </g>
    <g id="text_22">
     <!-- 20_08_02_E3 -->
     <g transform="translate(488.355438 125.352762) scale(0.1 -0.1)">
      <use xlink:href="#DejaVuSans-32"/>
      <use xlink:href="#DejaVuSans-30" x="63.623047"/>
      <use xlink:href="#DejaVuSans-5f" x="127.246094"/>
      <use xlink:href="#DejaVuSans-30" x="177.246094"/>
      <use xlink:href="#DejaVuSans-38" x="240.869141"/>
      <use xlink:href="#DejaVuSans-5f" x="304.492188"/>
      <use xlink:href="#DejaVuSans-30" x="354.492188"/>
      <use xlink:href="#DejaVuSans-32" x="418.115234"/>
      <use xlink:href="#DejaVuSans-5f" x="481.738281"/>
      <use xlink:href="#DejaVuSans-45" x="531.738281"/>
      <use xlink:href="#DejaVuSans-33" x="594.921875"/>
     </g>
    </g>
    <g id="line2d_26">
     <path d="M 460.355438 136.809012 
L 470.355438 136.809012 
L 480.355438 136.809012 
" style="fill: none; stroke: #8c564b; stroke-width: 1.5; stroke-linecap: square"/>
    </g>
    <g id="text_23">
     <!-- 20_11_02_E3 -->
     <g transform="translate(488.355438 140.309012) scale(0.1 -0.1)">
      <use xlink:href="#DejaVuSans-32"/>
      <use xlink:href="#DejaVuSans-30" x="63.623047"/>
      <use xlink:href="#DejaVuSans-5f" x="127.246094"/>
      <use xlink:href="#DejaVuSans-31" x="177.246094"/>
      <use xlink:href="#DejaVuSans-31" x="240.869141"/>
      <use xlink:href="#DejaVuSans-5f" x="304.492188"/>
      <use xlink:href="#DejaVuSans-30" x="354.492188"/>
      <use xlink:href="#DejaVuSans-32" x="418.115234"/>
      <use xlink:href="#DejaVuSans-5f" x="481.738281"/>
      <use xlink:href="#DejaVuSans-45" x="531.738281"/>
      <use xlink:href="#DejaVuSans-33" x="594.921875"/>
     </g>
    </g>
   </g>
  </g>
 </g>
 <defs>
  <clipPath id="pf529c74c1b">
   <rect x="58.523438" y="22.318125" width="357.12" height="266.112"/>
  </clipPath>
 </defs>
</svg>
